<svg xmlns="http://www.w3.org/2000/svg" xmlns:xlink="http://www.w3.org/1999/xlink" version="1.1" x="0" y="0" height="230" width="800" viewBox="0 0 800 230" preserveAspectRatio="none"  >
<g label="Query sequence" class="clusterblast-cluster"  >
<text x="5" y="20" class="clusterblast-acc"  >
Query sequence</text>
<line x1="10" y1="35" x2="778.0" y2="35" style="stroke-width:1; stroke:grey; "  />
<polygon points="273,40 275,35 273,30 273,40 " style="fill:#d81515; stroke-width:1; stroke:black; " description="&lt;b&gt;input.path1.gene1429&lt;/b&gt;&lt;br&gt;input.path1.gene1429&lt;br&gt;Location: 5192993 - 5193559" locus_tag="input.path1.gene1429" class="clusterblast-orf" id="dummy-6_q0_0_all"  />
<polygon points="277,35 281,30 281,40 277,35 " style="fill:#56d815; stroke-width:1; stroke:black; " description="&lt;b&gt;input.path1.gene1430&lt;/b&gt;&lt;br&gt;input.path1.gene1430&lt;br&gt;Location: 5193953 - 5194785" locus_tag="input.path1.gene1430" class="clusterblast-orf" id="dummy-6_q1_0_all"  />
<polygon points="285,40 289,35 285,30 285,40 " style="fill:#1597d8; stroke-width:1; stroke:black; " description="&lt;b&gt;input.path1.gene1431&lt;/b&gt;&lt;br&gt;input.path1.gene1431&lt;br&gt;Location: 5195715 - 5196738" locus_tag="input.path1.gene1431" class="clusterblast-orf" id="dummy-6_q2_0_all"  />
<polygon points="290,35 295,30 295,30 295,40 295,40 290,35 " style="fill:#9715d8; stroke-width:1; stroke:black; " description="&lt;b&gt;input.path1.gene1432&lt;/b&gt;&lt;br&gt;input.path1.gene1432&lt;br&gt;Location: 5196932 - 5198017" locus_tag="input.path1.gene1432" class="clusterblast-orf" id="dummy-6_q3_0_all"  />
<polygon points="297,40 298,35 297,30 297,40 " style="fill:white; stroke-width:1; stroke:black; " description="&lt;b&gt;input.path1.gene1433&lt;/b&gt;&lt;br&gt;input.path1.gene1433&lt;br&gt;Location: 5198504 - 5198762" locus_tag="input.path1.gene1433" class="clusterblast-orf" id="dummy-6_q4_0_all"  />
<polygon points="309,40 312,40 317,35 312,30 309,30 309,40 " style="fill:#d85615; stroke-width:1; stroke:black; " description="&lt;b&gt;input.path1.gene1434&lt;/b&gt;&lt;br&gt;input.path1.gene1434&lt;br&gt;Location: 5201153 - 5203060" locus_tag="input.path1.gene1434" class="clusterblast-orf" id="dummy-6_q5_0_all"  />
<polygon points="322,35 327,30 328,30 328,40 327,40 322,35 " style="fill:#15d815; stroke-width:1; stroke:black; " description="&lt;b&gt;input.path1.gene1435&lt;/b&gt;&lt;br&gt;input.path1.gene1435&lt;br&gt;Location: 5204223 - 5205521" locus_tag="input.path1.gene1435" class="clusterblast-orf" id="dummy-6_q6_0_all"  />
<polygon points="334,40 339,40 344,35 339,30 334,30 334,40 " style="fill:#1556d8; stroke-width:1; stroke:black; " description="&lt;b&gt;input.path1.gene1436&lt;/b&gt;&lt;br&gt;input.path1.gene1436&lt;br&gt;Location: 5207042 - 5209236" locus_tag="input.path1.gene1436" class="clusterblast-orf" id="dummy-6_q7_0_all"  />
<polygon points="345,35 348,30 348,40 345,35 " style="fill:#d815d8; stroke-width:1; stroke:black; " description="&lt;b&gt;input.path1.gene1437&lt;/b&gt;&lt;br&gt;input.path1.gene1437&lt;br&gt;Location: 5209483 - 5210188" locus_tag="input.path1.gene1437" class="clusterblast-orf" id="dummy-6_q8_0_all"  />
<polygon points="361,40 369,40 374,35 369,30 361,30 361,40 " style="fill:#d89715; stroke-width:1; stroke:black; " description="&lt;b&gt;input.path1.gene1438&lt;/b&gt;&lt;br&gt;input.path1.gene1438&lt;br&gt;Location: 5213194 - 5216156" locus_tag="input.path1.gene1438" class="clusterblast-orf" id="dummy-6_q9_0_all"  />
<polygon points="377,35 381,30 381,40 377,35 " style="fill:#15d856; stroke-width:1; stroke:black; " description="&lt;b&gt;input.path1.gene1439&lt;/b&gt;&lt;br&gt;input.path1.gene1439&lt;br&gt;Location: 5216673 - 5217751" locus_tag="input.path1.gene1439" class="clusterblast-orf" id="dummy-6_q10_0_all"  />
<polygon points="389,40 391,40 396,35 391,30 389,30 389,40 " style="fill:#1515d8; stroke-width:1; stroke:black; " description="&lt;b&gt;input.path1.gene1440&lt;/b&gt;&lt;br&gt;input.path1.gene1440&lt;br&gt;Location: 5219592 - 5221071" locus_tag="input.path1.gene1440" class="clusterblast-orf" id="dummy-6_q11_0_all"  />
<polygon points="396,40 397,40 402,35 397,30 396,30 396,40 " style="fill:white; stroke-width:1; stroke:black; " description="&lt;b&gt;input.path1.gene1441&lt;/b&gt;&lt;br&gt;input.path1.gene1441&lt;br&gt;Location: 5221122 - 5222463" locus_tag="input.path1.gene1441" class="clusterblast-orf" id="dummy-6_q12_0_all"  />
<polygon points="405,40 408,40 413,35 408,30 405,30 405,40 " style="fill:#d81597; stroke-width:1; stroke:black; " description="&lt;b&gt;input.path1.gene1442&lt;/b&gt;&lt;br&gt;input.path1.gene1442&lt;br&gt;Location: 5223084 - 5224961" locus_tag="input.path1.gene1442" class="clusterblast-orf" id="dummy-6_q13_0_all"  />
<polygon points="418,40 427,40 432,35 427,30 418,30 418,40 " style="fill:#d8d815; stroke-width:1; stroke:black; " description="&lt;b&gt;input.path1.gene1443&lt;/b&gt;&lt;br&gt;input.path1.gene1443&lt;br&gt;Location: 5226204 - 5229240" locus_tag="input.path1.gene1443" class="clusterblast-orf" id="dummy-6_q14_0_all"  />
<polygon points="432,35 437,30 451,30 451,40 437,40 432,35 " style="fill:#15d897; stroke-width:1; stroke:black; " description="&lt;b&gt;input.path1.gene1444&lt;/b&gt;&lt;br&gt;input.path1.gene1444&lt;br&gt;Location: 5229345 - 5233690" locus_tag="input.path1.gene1444" class="clusterblast-orf" id="dummy-6_q15_0_all"  />
<polygon points="457,40 463,40 468,35 463,30 457,30 457,40 " style="fill:#5615d8; stroke-width:1; stroke:black; " description="&lt;b&gt;input.path1.gene1445&lt;/b&gt;&lt;br&gt;input.path1.gene1445&lt;br&gt;Location: 5234943 - 5237549" locus_tag="input.path1.gene1445" class="clusterblast-orf" id="dummy-6_q16_0_all"  />
<polygon points="474,35 477,30 477,40 474,35 " style="fill:#d81556; stroke-width:1; stroke:black; " description="&lt;b&gt;input.path1.gene1446&lt;/b&gt;&lt;br&gt;input.path1.gene1446&lt;br&gt;Location: 5238946 - 5239535" locus_tag="input.path1.gene1446" class="clusterblast-orf" id="dummy-6_q17_0_all"  />
<polygon points="490,35 494,30 494,40 490,35 " style="fill:#97d815; stroke-width:1; stroke:black; " description="&lt;b&gt;input.path1.gene1447&lt;/b&gt;&lt;br&gt;input.path1.gene1447&lt;br&gt;Location: 5242633 - 5243359" locus_tag="input.path1.gene1447" class="clusterblast-orf" id="dummy-6_q18_0_all"  />
<polygon points="500,40 504,35 500,30 500,40 " style="fill:#15d8d8; stroke-width:1; stroke:black; " description="&lt;b&gt;input.path1.gene1448&lt;/b&gt;&lt;br&gt;input.path1.gene1448&lt;br&gt;Location: 5244946 - 5245801" locus_tag="input.path1.gene1448" class="clusterblast-orf" id="dummy-6_q19_0_all"  />
<polygon points="505,35 506,30 506,40 505,35 " style="fill:white; stroke-width:1; stroke:black; " description="&lt;b&gt;input.path1.gene1449&lt;/b&gt;&lt;br&gt;input.path1.gene1449&lt;br&gt;Location: 5245901 - 5246281" locus_tag="input.path1.gene1449" class="clusterblast-orf" id="dummy-6_q20_0_all"  />
</g>
<g label="NW_025953252" description="NW_025953252 (947231-1128644): Annulohypoxylon maeteangense strain CBS 123835... (4% of genes show similarity), fungal-RiPP-like" class="clusterblast-cluster"  >
<text x="5" y="70" class="clusterblast-acc"  >
<a xlink:href="https://antismash-db.secondarymetabolites.org/area?record=NW_025953252&amp;start=947231&amp;end=1128644" target="_blank">NW_025953252 (947231-1128644)</a>: Annulohypoxylon maeteangense strain CBS 123835... (4% of genes show similarity), fungal-RiPP-like</text>
<line x1="10" y1="85" x2="778.0" y2="85" style="stroke-width:1; stroke:grey; "  />
</g>
<g id="a6_000"  >
<polygon points="0,85 2,80 2,90 0,85 " style="fill:white; stroke-width:1; stroke:black; " description="&lt;b&gt;GGS22DRAFT_158657&lt;/b&gt;&lt;br&gt;uncharacterized protein&lt;br&gt;Location: 1128589 - 1128056" locus_tag="GGS22DRAFT_158657" class="clusterblast-orf" id="dummy-6_h6_8_0"  />
</g>
<g id="a6_001"  >
<polygon points="12,90 14,90 19,85 14,80 12,80 12,90 " style="fill:white; stroke-width:1; stroke:black; " description="&lt;b&gt;GGS22DRAFT_117486&lt;/b&gt;&lt;br&gt;sorbitol dehydrogenase&lt;br&gt;Location: 1125722 - 1124214" locus_tag="GGS22DRAFT_117486" class="clusterblast-orf" id="dummy-6_h6_8_1"  />
</g>
<g id="a6_002"  >
<polygon points="30,90 34,90 39,85 34,80 30,80 30,90 " style="fill:white; stroke-width:1; stroke:black; " description="&lt;b&gt;GGS22DRAFT_158650&lt;/b&gt;&lt;br&gt;putative multicopper oxidase&lt;br&gt;Location: 1121740 - 1119582" locus_tag="GGS22DRAFT_158650" class="clusterblast-orf" id="dummy-6_h6_8_2"  />
</g>
<g id="a6_003"  >
<polygon points="49,85 51,80 51,90 49,85 " style="fill:white; stroke-width:1; stroke:black; " description="&lt;b&gt;GGS22DRAFT_117420&lt;/b&gt;&lt;br&gt;uncharacterized protein&lt;br&gt;Location: 1117395 - 1116853" locus_tag="GGS22DRAFT_117420" class="clusterblast-orf" id="dummy-6_h6_8_3"  />
</g>
<g id="a6_004"  >
<polygon points="56,90 60,90 65,85 60,80 56,80 56,90 " style="fill:white; stroke-width:1; stroke:black; " description="&lt;b&gt;GGS22DRAFT_158644&lt;/b&gt;&lt;br&gt;putative vanilly-alcohol oxidase&lt;br&gt;Location: 1115797 - 1113633" locus_tag="GGS22DRAFT_158644" class="clusterblast-orf" id="dummy-6_h6_8_4"  />
</g>
<g id="a6_005"  >
<polygon points="71,90 74,90 79,85 74,80 71,80 71,90 " style="fill:white; stroke-width:1; stroke:black; " description="&lt;b&gt;GGS22DRAFT_158638&lt;/b&gt;&lt;br&gt;cytochrome P450 monooxygenase&lt;br&gt;Location: 1112330 - 1110482" locus_tag="GGS22DRAFT_158638" class="clusterblast-orf" id="dummy-6_h6_8_5"  />
</g>
<g id="a6_006"  >
<polygon points="88,90 90,85 88,80 88,90 " style="fill:white; stroke-width:1; stroke:black; " description="&lt;b&gt;GGS22DRAFT_158635&lt;/b&gt;&lt;br&gt;uncharacterized protein&lt;br&gt;Location: 1108442 - 1107873" locus_tag="GGS22DRAFT_158635" class="clusterblast-orf" id="dummy-6_h6_8_6"  />
</g>
<g id="a6_007"  >
<polygon points="92,90 92,90 97,85 92,80 92,80 92,90 " style="fill:white; stroke-width:1; stroke:black; " description="&lt;b&gt;GGS22DRAFT_199130&lt;/b&gt;&lt;br&gt;uncharacterized protein&lt;br&gt;Location: 1107452 - 1106292" locus_tag="GGS22DRAFT_199130" class="clusterblast-orf" id="dummy-6_h6_8_7"  />
</g>
<g id="a6_008"  >
<polygon points="112,90 113,90 118,85 113,80 112,80 112,90 " style="fill:white; stroke-width:1; stroke:black; " description="&lt;b&gt;GGS22DRAFT_186846&lt;/b&gt;&lt;br&gt;uncharacterized protein&lt;br&gt;Location: 1102943 - 1101510" locus_tag="GGS22DRAFT_186846" class="clusterblast-orf" id="dummy-6_h6_8_8"  />
</g>
<g id="a6_009"  >
<polygon points="120,85 124,80 124,90 120,85 " style="fill:white; stroke-width:1; stroke:black; " description="&lt;b&gt;GGS22DRAFT_199129&lt;/b&gt;&lt;br&gt;uncharacterized protein&lt;br&gt;Location: 1101054 - 1100083" locus_tag="GGS22DRAFT_199129" class="clusterblast-orf" id="dummy-6_h6_8_9"  />
</g>
<g id="a6_0010"  >
<polygon points="126,85 131,80 131,80 131,90 131,90 126,85 " style="fill:white; stroke-width:1; stroke:black; " description="&lt;b&gt;GGS22DRAFT_186844&lt;/b&gt;&lt;br&gt;uncharacterized protein&lt;br&gt;Location: 1099658 - 1098512" locus_tag="GGS22DRAFT_186844" class="clusterblast-orf" id="dummy-6_h6_8_10"  />
</g>
<g id="a6_0011"  >
<polygon points="138,90 139,85 138,80 138,90 " style="fill:white; stroke-width:1; stroke:black; " description="&lt;b&gt;GGS22DRAFT_158630&lt;/b&gt;&lt;br&gt;uncharacterized protein&lt;br&gt;Location: 1097022 - 1096705" locus_tag="GGS22DRAFT_158630" class="clusterblast-orf" id="dummy-6_h6_8_11"  />
</g>
<g id="a6_0012"  >
<polygon points="143,90 147,85 143,80 143,90 " style="fill:white; stroke-width:1; stroke:black; " description="&lt;b&gt;GGS22DRAFT_158628&lt;/b&gt;&lt;br&gt;alpha/beta-hydrolase&lt;br&gt;Location: 1095927 - 1094972" locus_tag="GGS22DRAFT_158628" class="clusterblast-orf" id="dummy-6_h6_8_12"  />
</g>
<g id="a6_0013"  >
<polygon points="154,90 154,90 159,85 154,80 154,80 154,90 " style="fill:white; stroke-width:1; stroke:black; " description="&lt;b&gt;GGS22DRAFT_158627&lt;/b&gt;&lt;br&gt;membrane fusion mating protein FIG1&lt;br&gt;Location: 1093236 - 1092279" locus_tag="GGS22DRAFT_158627" class="clusterblast-orf" id="dummy-6_h6_8_13"  />
</g>
<g id="a6_0014"  >
<polygon points="162,85 167,80 171,80 171,90 167,90 162,85 " style="fill:white; stroke-width:1; stroke:black; " description="&lt;b&gt;GGS22DRAFT_158624&lt;/b&gt;&lt;br&gt;amino acid transporter&lt;br&gt;Location: 1091431 - 1089358" locus_tag="GGS22DRAFT_158624" class="clusterblast-orf" id="dummy-6_h6_8_14"  />
</g>
<g id="a6_0015"  >
<polygon points="175,85 180,80 181,80 181,90 180,90 175,85 " style="fill:white; stroke-width:1; stroke:black; " description="&lt;b&gt;GGS22DRAFT_199121&lt;/b&gt;&lt;br&gt;uncharacterized protein&lt;br&gt;Location: 1088523 - 1087210" locus_tag="GGS22DRAFT_199121" class="clusterblast-orf" id="dummy-6_h6_8_15"  />
</g>
<g id="a6_0016"  >
<polygon points="186,90 190,85 186,80 186,90 " style="fill:white; stroke-width:1; stroke:black; " description="&lt;b&gt;GGS22DRAFT_117296&lt;/b&gt;&lt;br&gt;uncharacterized protein&lt;br&gt;Location: 1085981 - 1085184" locus_tag="GGS22DRAFT_117296" class="clusterblast-orf" id="dummy-6_h6_8_16"  />
</g>
<g id="a6_0017"  >
<polygon points="193,85 194,80 194,90 193,85 " style="fill:white; stroke-width:1; stroke:black; " description="&lt;b&gt;GGS22DRAFT_186837&lt;/b&gt;&lt;br&gt;uncharacterized protein&lt;br&gt;Location: 1084345 - 1084112" locus_tag="GGS22DRAFT_186837" class="clusterblast-orf" id="dummy-6_h6_8_17"  />
</g>
<g id="a6_0018"  >
<polygon points="197,90 201,85 197,80 197,90 " style="fill:white; stroke-width:1; stroke:black; " description="&lt;b&gt;GGS22DRAFT_186836&lt;/b&gt;&lt;br&gt;uncharacterized protein&lt;br&gt;Location: 1083644 - 1082671" locus_tag="GGS22DRAFT_186836" class="clusterblast-orf" id="dummy-6_h6_8_18"  />
</g>
<g id="a6_0019"  >
<polygon points="203,85 208,80 209,80 209,90 208,90 203,85 " style="fill:white; stroke-width:1; stroke:black; " description="&lt;b&gt;GGS22DRAFT_158613&lt;/b&gt;&lt;br&gt;S-adenosyl-L-methionine-dependent methyltransferase&lt;br&gt;Location: 1082217 - 1080739" locus_tag="GGS22DRAFT_158613" class="clusterblast-orf" id="dummy-6_h6_8_19"  />
</g>
<g id="a6_0020"  >
<polygon points="217,90 217,90 222,85 217,80 217,80 217,90 " style="fill:white; stroke-width:1; stroke:black; " description="&lt;b&gt;GGS22DRAFT_117261&lt;/b&gt;&lt;br&gt;uncharacterized protein&lt;br&gt;Location: 1078948 - 1077849" locus_tag="GGS22DRAFT_117261" class="clusterblast-orf" id="dummy-6_h6_8_20"  />
</g>
<g id="a6_0021"  >
<polygon points="223,90 226,85 223,80 223,90 " style="fill:white; stroke-width:1; stroke:black; " description="&lt;b&gt;GGS22DRAFT_117262&lt;/b&gt;&lt;br&gt;uncharacterized protein&lt;br&gt;Location: 1077567 - 1076812" locus_tag="GGS22DRAFT_117262" class="clusterblast-orf" id="dummy-6_h6_8_21"  />
</g>
<g id="a6_0022"  >
<polygon points="236,90 239,85 236,80 236,90 " style="fill:white; stroke-width:1; stroke:black; " description="&lt;b&gt;GGS22DRAFT_186832&lt;/b&gt;&lt;br&gt;uncharacterized protein&lt;br&gt;Location: 1074632 - 1073898" locus_tag="GGS22DRAFT_186832" class="clusterblast-orf" id="dummy-6_h6_8_22"  />
</g>
<g id="a6_0023"  >
<polygon points="246,90 255,90 260,85 255,80 246,80 246,90 " style="fill:white; stroke-width:1; stroke:black; " description="&lt;b&gt;GGS22DRAFT_117249&lt;/b&gt;&lt;br&gt;glycoside hydrolase family 47 protein&lt;br&gt;Location: 1072331 - 1069211" locus_tag="GGS22DRAFT_117249" class="clusterblast-orf" id="dummy-6_h6_8_23"  />
</g>
<g id="a6_0024"  >
<polygon points="266,90 269,90 274,85 269,80 266,80 266,90 " style="fill:white; stroke-width:1; stroke:black; " description="&lt;b&gt;GGS22DRAFT_158606&lt;/b&gt;&lt;br&gt;proline-specific permease&lt;br&gt;Location: 1067800 - 1065883" locus_tag="GGS22DRAFT_158606" class="clusterblast-orf" id="dummy-6_h6_8_24"  />
</g>
<g id="a6_0025"  >
<polygon points="276,85 281,80 281,80 281,90 281,90 276,85 " style="fill:white; stroke-width:1; stroke:black; " description="&lt;b&gt;GGS22DRAFT_158605&lt;/b&gt;&lt;br&gt;NAD(P)-binding protein&lt;br&gt;Location: 1065437 - 1064313" locus_tag="GGS22DRAFT_158605" class="clusterblast-orf" id="dummy-6_h6_8_25"  />
</g>
<g id="a6_0026"  >
<polygon points="283,85 288,80 290,80 290,90 288,90 283,85 " style="fill:white; stroke-width:1; stroke:black; " description="&lt;b&gt;GGS22DRAFT_158603&lt;/b&gt;&lt;br&gt;phosphoglycerate mutase-like protein&lt;br&gt;Location: 1063819 - 1062386" locus_tag="GGS22DRAFT_158603" class="clusterblast-orf" id="dummy-6_h6_8_26"  />
</g>
<g id="a6_0027"  >
<polygon points="292,85 297,80 297,80 297,90 297,90 292,85 " style="fill:white; stroke-width:1; stroke:black; " description="&lt;b&gt;GGS22DRAFT_178818&lt;/b&gt;&lt;br&gt;acyl-CoA dehydrogenase NM domain-like protein&lt;br&gt;Location: 1061869 - 1060667" locus_tag="GGS22DRAFT_178818" class="clusterblast-orf" id="dummy-6_h6_8_27"  />
</g>
<g id="a6_0028"  >
<polygon points="305,90 309,85 305,80 305,90 " style="fill:white; stroke-width:1; stroke:black; " description="&lt;b&gt;GGS22DRAFT_199115&lt;/b&gt;&lt;br&gt;Cloroperoxidase&lt;br&gt;Location: 1058947 - 1057888" locus_tag="GGS22DRAFT_199115" class="clusterblast-orf" id="dummy-6_h6_8_28"  />
</g>
<g id="a6_0029"  >
<polygon points="312,85 316,80 316,90 312,85 " style="fill:white; stroke-width:1; stroke:black; " description="&lt;b&gt;GGS22DRAFT_158602&lt;/b&gt;&lt;br&gt;DUF829-domain-containing protein&lt;br&gt;Location: 1057219 - 1056323" locus_tag="GGS22DRAFT_158602" class="clusterblast-orf" id="dummy-6_h6_8_29"  />
</g>
<g id="a6_0030"  >
<polygon points="320,85 325,80 325,80 325,90 325,90 320,85 " style="fill:white; stroke-width:1; stroke:black; " description="&lt;b&gt;GGS22DRAFT_199113&lt;/b&gt;&lt;br&gt;uncharacterized protein&lt;br&gt;Location: 1055546 - 1054308" locus_tag="GGS22DRAFT_199113" class="clusterblast-orf" id="dummy-6_h6_8_30"  />
</g>
<g id="a6_0031"  >
<polygon points="331,85 336,80 337,80 337,90 336,90 331,85 " style="fill:white; stroke-width:1; stroke:black; " description="&lt;b&gt;GGS22DRAFT_199111&lt;/b&gt;&lt;br&gt;SET domain-containing protein&lt;br&gt;Location: 1052860 - 1051598" locus_tag="GGS22DRAFT_199111" class="clusterblast-orf" id="dummy-6_h6_8_31"  />
</g>
<g id="a6_0032"  >
<polygon points="339,85 344,80 347,80 347,90 344,90 339,85 " style="fill:white; stroke-width:1; stroke:black; " description="&lt;b&gt;GGS22DRAFT_158600&lt;/b&gt;&lt;br&gt;HET-domain-containing protein&lt;br&gt;Location: 1051169 - 1049220" locus_tag="GGS22DRAFT_158600" class="clusterblast-orf" id="dummy-6_h6_8_32"  />
</g>
<g id="a6_0033"  >
<polygon points="349,90 352,90 357,85 352,80 349,80 349,90 " style="fill:white; stroke-width:1; stroke:black; " description="&lt;b&gt;GGS22DRAFT_158598&lt;/b&gt;&lt;br&gt;GMC oxidoreductase&lt;br&gt;Location: 1048884 - 1046977" locus_tag="GGS22DRAFT_158598" class="clusterblast-orf" id="dummy-6_h6_8_33"  />
</g>
<g id="a6_0034"  >
<polygon points="360,85 364,80 364,90 360,85 " style="fill:white; stroke-width:1; stroke:black; " description="&lt;b&gt;GGS22DRAFT_186820&lt;/b&gt;&lt;br&gt;uncharacterized protein&lt;br&gt;Location: 1046257 - 1045524" locus_tag="GGS22DRAFT_186820" class="clusterblast-orf" id="dummy-6_h6_8_34"  />
</g>
<g id="a6_0035"  >
<polygon points="367,85 372,80 397,80 397,90 372,90 367,85 " style="fill:white; stroke-width:1; stroke:black; " description="&lt;b&gt;GGS22DRAFT_199107&lt;/b&gt;&lt;br&gt;DUF1744-domain-containing protein&lt;br&gt;Location: 1044665 - 1037817" locus_tag="GGS22DRAFT_199107" class="clusterblast-orf" id="dummy-6_h6_8_35"  />
</g>
<g id="a6_0036"  >
<polygon points="400,90 402,85 400,80 400,90 " style="fill:white; stroke-width:1; stroke:black; " description="&lt;b&gt;GGS22DRAFT_117194&lt;/b&gt;&lt;br&gt;uncharacterized protein&lt;br&gt;Location: 1037299 - 1036687" locus_tag="GGS22DRAFT_117194" class="clusterblast-orf" id="dummy-6_h6_8_36"  />
</g>
<g id="a6_0037"  >
<polygon points="404,85 409,80 409,80 409,90 409,90 404,85 " style="fill:#56d815; stroke-width:1; stroke:black; " description="&lt;b&gt;GGS22DRAFT_158588&lt;/b&gt;&lt;br&gt;uncharacterized protein&lt;br&gt;Location: 1036276 - 1035182&lt;br&gt;&lt;br&gt;&lt;b&gt;BlastP hit with input.path1.gene1430&lt;/b&gt;&lt;br&gt;Percentage identity: 79&lt;br&gt;Percentage coverage: 25&lt;br&gt;BLAST bit score: 112&lt;br&gt;E-value: 4.42e-27" locus_tag="GGS22DRAFT_158588" class="clusterblast-orf" id="dummy-6_h6_8_37"  />
</g>
<g id="a6_0038"  >
<polygon points="415,90 415,90 420,85 415,80 415,80 415,90 " style="fill:#1597d8; stroke-width:1; stroke:black; " description="&lt;b&gt;GGS22DRAFT_117183&lt;/b&gt;&lt;br&gt;aldose 1-epimerase&lt;br&gt;Location: 1033855 - 1032768&lt;br&gt;&lt;br&gt;&lt;b&gt;BlastP hit with input.path1.gene1431&lt;/b&gt;&lt;br&gt;Percentage identity: 63&lt;br&gt;Percentage coverage: 99&lt;br&gt;BLAST bit score: 436&lt;br&gt;E-value: 2.98e-152" locus_tag="GGS22DRAFT_117183" class="clusterblast-orf" id="dummy-6_h6_8_38"  />
</g>
<g id="a6_0039"  >
<polygon points="420,85 425,80 432,80 432,90 425,90 420,85 " style="fill:white; stroke-width:1; stroke:black; " description="&lt;b&gt;GGS22DRAFT_186815&lt;/b&gt;&lt;br&gt;ATP-dependent DNA ligase&lt;br&gt;Location: 1032654 - 1029884" locus_tag="GGS22DRAFT_186815" class="clusterblast-orf" id="dummy-6_h6_8_39"  />
</g>
<g id="a6_0040"  >
<polygon points="435,85 439,80 439,90 435,85 " style="fill:white; stroke-width:1; stroke:black; " description="&lt;b&gt;GGS22DRAFT_158583&lt;/b&gt;&lt;br&gt;carbohydrate esterase family 1 protein&lt;br&gt;Location: 1029253 - 1028257" locus_tag="GGS22DRAFT_158583" class="clusterblast-orf" id="dummy-6_h6_8_40"  />
</g>
<g id="a6_0041"  >
<polygon points="442,85 447,80 448,80 448,90 447,90 442,85 " style="fill:white; stroke-width:1; stroke:black; " description="&lt;b&gt;GGS22DRAFT_158582&lt;/b&gt;&lt;br&gt;uncharacterized protein&lt;br&gt;Location: 1027560 - 1026376" locus_tag="GGS22DRAFT_158582" class="clusterblast-orf" id="dummy-6_h6_8_41"  />
</g>
<g id="a6_0042"  >
<polygon points="453,90 456,85 453,80 453,90 " style="fill:white; stroke-width:1; stroke:black; " description="&lt;b&gt;GGS22DRAFT_117127&lt;/b&gt;&lt;br&gt;EF-hand&lt;br&gt;Location: 1025166 - 1024397" locus_tag="GGS22DRAFT_117127" class="clusterblast-orf" id="dummy-6_h6_8_42"  />
</g>
<g id="a6_0043"  >
<polygon points="458,85 462,80 462,90 458,85 " style="fill:white; stroke-width:1; stroke:black; " description="&lt;b&gt;GGS22DRAFT_158577&lt;/b&gt;&lt;br&gt;uncharacterized protein&lt;br&gt;Location: 1023954 - 1023109" locus_tag="GGS22DRAFT_158577" class="clusterblast-orf" id="dummy-6_h6_8_43"  />
</g>
<g id="a6_0044"  >
<polygon points="473,90 475,90 480,85 475,80 473,80 473,90 " style="fill:white; stroke-width:1; stroke:black; " description="&lt;b&gt;GGS22DRAFT_199099&lt;/b&gt;&lt;br&gt;voltage-dependent anion channel-domain-containing protein&lt;br&gt;Location: 1020565 - 1019067" locus_tag="GGS22DRAFT_199099" class="clusterblast-orf" id="dummy-6_h6_8_44"  />
</g>
<g id="a6_0045"  >
<polygon points="483,90 486,90 491,85 486,80 483,80 483,90 " style="fill:white; stroke-width:1; stroke:black; " description="&lt;b&gt;GGS22DRAFT_117105&lt;/b&gt;&lt;br&gt;RCC1/BLIP-II&lt;br&gt;Location: 1018199 - 1016409" locus_tag="GGS22DRAFT_117105" class="clusterblast-orf" id="dummy-6_h6_8_45"  />
</g>
<g id="a6_0046"  >
<polygon points="495,90 505,90 510,85 505,80 495,80 495,90 " style="fill:white; stroke-width:1; stroke:black; " description="&lt;b&gt;GGS22DRAFT_186808&lt;/b&gt;&lt;br&gt;glycoside hydrolase family 2 protein&lt;br&gt;Location: 1015599 - 1012207" locus_tag="GGS22DRAFT_186808" class="clusterblast-orf" id="dummy-6_h6_8_46"  />
</g>
<g id="a6_0047"  >
<polygon points="522,90 524,85 522,80 522,90 " style="fill:white; stroke-width:1; stroke:black; " description="&lt;b&gt;GGS22DRAFT_186807&lt;/b&gt;&lt;br&gt;uncharacterized protein&lt;br&gt;Location: 1009337 - 1008882" locus_tag="GGS22DRAFT_186807" class="clusterblast-orf" id="dummy-6_h6_8_47"  />
</g>
<g id="a6_0048"  >
<polygon points="546,90 554,90 559,85 554,80 546,80 546,90 " style="fill:#d89715; stroke-width:1; stroke:black; " description="&lt;b&gt;GGS22DRAFT_158569&lt;/b&gt;&lt;br&gt;frequency clock protein&lt;br&gt;Location: 1003956 - 1000963&lt;br&gt;&lt;br&gt;&lt;b&gt;BlastP hit with input.path1.gene1438&lt;/b&gt;&lt;br&gt;Percentage identity: 45&lt;br&gt;Percentage coverage: 90&lt;br&gt;BLAST bit score: 501&lt;br&gt;E-value: 1.42e-160" locus_tag="GGS22DRAFT_158569" class="clusterblast-orf" id="dummy-6_h6_8_48"  />
</g>
<g id="a6_0049"  >
<polygon points="565,90 568,90 573,85 568,80 565,80 565,90 " style="fill:white; stroke-width:1; stroke:black; " description="&lt;b&gt;GGS22DRAFT_158568&lt;/b&gt;&lt;br&gt;TAP-like protein-domain-containing protein&lt;br&gt;Location: 999654 - 997775" locus_tag="GGS22DRAFT_158568" class="clusterblast-orf" id="dummy-6_h6_8_49"  />
</g>
<g id="a6_0050"  >
<polygon points="576,85 580,80 580,90 576,85 " style="fill:white; stroke-width:1; stroke:black; " description="&lt;b&gt;GGS22DRAFT_186804&lt;/b&gt;&lt;br&gt;uncharacterized protein&lt;br&gt;Location: 997122 - 996160" locus_tag="GGS22DRAFT_186804" class="clusterblast-orf" id="dummy-6_h6_8_50"  />
</g>
<g id="a6_0051"  >
<polygon points="592,90 592,90 597,85 592,80 592,80 592,90 " style="fill:white; stroke-width:1; stroke:black; " description="&lt;b&gt;GGS22DRAFT_199093&lt;/b&gt;&lt;br&gt;uncharacterized protein&lt;br&gt;Location: 993391 - 992232" locus_tag="GGS22DRAFT_199093" class="clusterblast-orf" id="dummy-6_h6_8_51"  />
</g>
<g id="a6_0052"  >
<polygon points="598,85 602,80 602,90 598,85 " style="fill:white; stroke-width:1; stroke:black; " description="&lt;b&gt;GGS22DRAFT_158566&lt;/b&gt;&lt;br&gt;uncharacterized protein&lt;br&gt;Location: 992110 - 991185" locus_tag="GGS22DRAFT_158566" class="clusterblast-orf" id="dummy-6_h6_8_52"  />
</g>
<g id="a6_0053"  >
<polygon points="604,90 604,90 609,85 604,80 604,80 604,90 " style="fill:white; stroke-width:1; stroke:black; " description="&lt;b&gt;GGS22DRAFT_158563&lt;/b&gt;&lt;br&gt;Prefoldin, subunit 3&lt;br&gt;Location: 990570 - 989516" locus_tag="GGS22DRAFT_158563" class="clusterblast-orf" id="dummy-6_h6_8_53"  />
</g>
<g id="a6_0054"  >
<polygon points="614,90 614,90 619,85 614,80 614,80 614,90 " style="fill:white; stroke-width:1; stroke:black; " description="&lt;b&gt;GGS22DRAFT_158561&lt;/b&gt;&lt;br&gt;CRAL-TRIO domain-containing protein&lt;br&gt;Location: 988478 - 987160" locus_tag="GGS22DRAFT_158561" class="clusterblast-orf" id="dummy-6_h6_8_54"  />
</g>
<g id="a6_0055"  >
<polygon points="623,85 628,80 628,80 628,90 628,90 623,85 " style="fill:white; stroke-width:1; stroke:black; " description="&lt;b&gt;GGS22DRAFT_158557&lt;/b&gt;&lt;br&gt;uncharacterized protein&lt;br&gt;Location: 986360 - 985185" locus_tag="GGS22DRAFT_158557" class="clusterblast-orf" id="dummy-6_h6_8_55"  />
</g>
<g id="a6_0056"  >
<polygon points="633,85 638,80 638,80 638,90 638,90 633,85 " style="fill:white; stroke-width:1; stroke:black; " description="&lt;b&gt;GGS22DRAFT_158556&lt;/b&gt;&lt;br&gt;putative methyltransferase-domain-containing protein&lt;br&gt;Location: 984024 - 982822" locus_tag="GGS22DRAFT_158556" class="clusterblast-orf" id="dummy-6_h6_8_56"  />
</g>
<g id="a6_0057"  >
<polygon points="651,85 653,80 653,90 651,85 " style="fill:white; stroke-width:1; stroke:black; " description="&lt;b&gt;GGS22DRAFT_117013&lt;/b&gt;&lt;br&gt;uncharacterized protein&lt;br&gt;Location: 979995 - 979400" locus_tag="GGS22DRAFT_117013" class="clusterblast-orf" id="dummy-6_h6_8_57"  />
</g>
<g id="a6_0058"  >
<polygon points="662,90 663,90 668,85 663,80 662,80 662,90 " style="fill:white; stroke-width:1; stroke:black; " description="&lt;b&gt;GGS22DRAFT_158553&lt;/b&gt;&lt;br&gt;26S protease regulatory subunit 6B&lt;br&gt;Location: 977483 - 976032" locus_tag="GGS22DRAFT_158553" class="clusterblast-orf" id="dummy-6_h6_8_58"  />
</g>
<g id="a6_0059"  >
<polygon points="674,85 679,80 685,80 685,90 679,90 674,85 " style="fill:white; stroke-width:1; stroke:black; " description="&lt;b&gt;GGS22DRAFT_178806&lt;/b&gt;&lt;br&gt;vesicle coat protein&lt;br&gt;Location: 974687 - 972103" locus_tag="GGS22DRAFT_178806" class="clusterblast-orf" id="dummy-6_h6_8_59"  />
</g>
<g id="a6_0060"  >
<polygon points="717,85 721,80 721,90 717,85 " style="fill:white; stroke-width:1; stroke:black; " description="&lt;b&gt;GGS22DRAFT_116935&lt;/b&gt;&lt;br&gt;polysaccharide lyase family 3 protein&lt;br&gt;Location: 964922 - 963972" locus_tag="GGS22DRAFT_116935" class="clusterblast-orf" id="dummy-6_h6_8_60"  />
</g>
<g id="a6_0061"  >
<polygon points="728,85 731,80 731,90 728,85 " style="fill:white; stroke-width:1; stroke:black; " description="&lt;b&gt;GGS22DRAFT_158537&lt;/b&gt;&lt;br&gt;DUF427-domain-containing protein&lt;br&gt;Location: 962400 - 961591" locus_tag="GGS22DRAFT_158537" class="clusterblast-orf" id="dummy-6_h6_8_61"  />
</g>
<g id="a6_0062"  >
<polygon points="736,85 741,80 742,80 742,90 741,90 736,85 " style="fill:white; stroke-width:1; stroke:black; " description="&lt;b&gt;GGS22DRAFT_178804&lt;/b&gt;&lt;br&gt;phosphatases II&lt;br&gt;Location: 960637 - 959105" locus_tag="GGS22DRAFT_178804" class="clusterblast-orf" id="dummy-6_h6_8_62"  />
</g>
<g id="a6_0063"  >
<polygon points="760,90 766,90 771,85 766,80 760,80 760,90 " style="fill:white; stroke-width:1; stroke:black; " description="&lt;b&gt;GGS22DRAFT_116841&lt;/b&gt;&lt;br&gt;Sec34-like family protein&lt;br&gt;Location: 955024 - 952478" locus_tag="GGS22DRAFT_116841" class="clusterblast-orf" id="dummy-6_h6_8_63"  />
</g>
<g id="a6_0064"  >
<polygon points="775,90 775,90 780,85 775,80 775,80 775,90 " style="fill:white; stroke-width:1; stroke:black; " description="&lt;b&gt;GGS22DRAFT_116842&lt;/b&gt;&lt;br&gt;putative alpha/beta hydrolase&lt;br&gt;Location: 951768 - 950639" locus_tag="GGS22DRAFT_116842" class="clusterblast-orf" id="dummy-6_h6_8_64"  />
</g>
</svg>
