<svg xmlns="http://www.w3.org/2000/svg" xmlns:xlink="http://www.w3.org/1999/xlink" version="1.1" x="0" y="0" height="230" width="800" viewBox="0 0 800 230" preserveAspectRatio="none"  >
<g label="Query sequence" class="clusterblast-cluster"  >
<text x="5" y="20" class="clusterblast-acc"  >
Query sequence</text>
<line x1="10" y1="35" x2="778.0" y2="35" style="stroke-width:1; stroke:grey; "  />
<polygon points="236,35 241,30 252,30 252,40 241,40 236,35 " style="fill:white; stroke-width:1; stroke:black; " description="&lt;b&gt;input.path1.gene1514&lt;/b&gt;&lt;br&gt;input.path1.gene1514&lt;br&gt;Location: 5793354 - 5795727" locus_tag="input.path1.gene1514" class="clusterblast-orf" id="dummy-9_q0_0_all"  />
<polygon points="256,40 257,40 262,35 257,30 256,30 256,40 " style="fill:white; stroke-width:1; stroke:black; " description="&lt;b&gt;input.path1.gene1515&lt;/b&gt;&lt;br&gt;input.path1.gene1515&lt;br&gt;Location: 5796239 - 5797137" locus_tag="input.path1.gene1515" class="clusterblast-orf" id="dummy-9_q1_0_all"  />
<polygon points="280,35 285,30 287,30 287,40 285,40 280,35 " style="fill:white; stroke-width:1; stroke:black; " description="&lt;b&gt;input.path1.gene1516&lt;/b&gt;&lt;br&gt;input.path1.gene1516&lt;br&gt;Location: 5799789 - 5800729" locus_tag="input.path1.gene1516" class="clusterblast-orf" id="dummy-9_q2_0_all"  />
<polygon points="299,35 303,30 303,40 299,35 " style="fill:white; stroke-width:1; stroke:black; " description="&lt;b&gt;input.path1.gene1517&lt;/b&gt;&lt;br&gt;input.path1.gene1517&lt;br&gt;Location: 5802526 - 5803105" locus_tag="input.path1.gene1517" class="clusterblast-orf" id="dummy-9_q3_0_all"  />
<polygon points="306,40 310,40 315,35 310,30 306,30 306,40 " style="fill:white; stroke-width:1; stroke:black; " description="&lt;b&gt;input.path1.gene1518&lt;/b&gt;&lt;br&gt;input.path1.gene1518&lt;br&gt;Location: 5803517 - 5804876" locus_tag="input.path1.gene1518" class="clusterblast-orf" id="dummy-9_q4_0_all"  />
<polygon points="347,40 350,40 355,35 350,30 347,30 347,40 " style="fill:white; stroke-width:1; stroke:black; " description="&lt;b&gt;input.path1.gene1519&lt;/b&gt;&lt;br&gt;input.path1.gene1519&lt;br&gt;Location: 5809538 - 5810676" locus_tag="input.path1.gene1519" class="clusterblast-orf" id="dummy-9_q5_0_all"  />
<polygon points="357,35 362,30 419,30 419,40 362,40 357,35 " style="fill:#d81515; stroke-width:1; stroke:black; " description="&lt;b&gt;input.path1.gene1520&lt;/b&gt;&lt;br&gt;input.path1.gene1520&lt;br&gt;Location: 5810964 - 5820010" locus_tag="input.path1.gene1520" class="clusterblast-orf" id="dummy-9_q6_0_all"  />
<polygon points="426,35 431,30 437,30 437,40 431,40 426,35 " style="fill:#15d815; stroke-width:1; stroke:black; " description="&lt;b&gt;input.path1.gene1521&lt;/b&gt;&lt;br&gt;input.path1.gene1521&lt;br&gt;Location: 5821085 - 5822644" locus_tag="input.path1.gene1521" class="clusterblast-orf" id="dummy-9_q7_0_all"  />
<polygon points="447,35 452,30 460,30 460,40 452,40 447,35 " style="fill:#1515d8; stroke-width:1; stroke:black; " description="&lt;b&gt;input.path1.gene1522&lt;/b&gt;&lt;br&gt;input.path1.gene1522&lt;br&gt;Location: 5824147 - 5825914" locus_tag="input.path1.gene1522" class="clusterblast-orf" id="dummy-9_q8_0_all"  />
<polygon points="465,40 469,40 474,35 469,30 465,30 465,40 " style="fill:white; stroke-width:1; stroke:black; " description="&lt;b&gt;input.path1.gene1523&lt;/b&gt;&lt;br&gt;input.path1.gene1523&lt;br&gt;Location: 5826760 - 5827959" locus_tag="input.path1.gene1523" class="clusterblast-orf" id="dummy-9_q9_0_all"  />
<polygon points="479,35 484,30 487,30 487,40 484,40 479,35 " style="fill:white; stroke-width:1; stroke:black; " description="&lt;b&gt;input.path1.gene1524&lt;/b&gt;&lt;br&gt;input.path1.gene1524&lt;br&gt;Location: 5828699 - 5829925" locus_tag="input.path1.gene1524" class="clusterblast-orf" id="dummy-9_q10_0_all"  />
<polygon points="492,40 500,40 505,35 500,30 492,30 492,40 " style="fill:white; stroke-width:1; stroke:black; " description="&lt;b&gt;input.path1.gene1525&lt;/b&gt;&lt;br&gt;input.path1.gene1525&lt;br&gt;Location: 5830634 - 5832491" locus_tag="input.path1.gene1525" class="clusterblast-orf" id="dummy-9_q11_0_all"  />
<polygon points="510,40 520,40 525,35 520,30 510,30 510,40 " style="fill:white; stroke-width:1; stroke:black; " description="&lt;b&gt;input.path1.gene1526&lt;/b&gt;&lt;br&gt;input.path1.gene1526&lt;br&gt;Location: 5833238 - 5835370" locus_tag="input.path1.gene1526" class="clusterblast-orf" id="dummy-9_q12_0_all"  />
<polygon points="530,35 535,30 543,30 543,40 535,40 530,35 " style="fill:white; stroke-width:1; stroke:black; " description="&lt;b&gt;input.path1.gene1527&lt;/b&gt;&lt;br&gt;input.path1.gene1527&lt;br&gt;Location: 5836109 - 5838091" locus_tag="input.path1.gene1527" class="clusterblast-orf" id="dummy-9_q13_0_all"  />
</g>
<g label="NW_017253364" description="NW_017253364 (1410639-1535276): Paraphaeosphaeria sporulosa strain AP3s5-JAC2... (4% of genes show similarity), T1PKS,fungal-RiPP-like,terpene" class="clusterblast-cluster"  >
<text x="5" y="70" class="clusterblast-acc"  >
<a xlink:href="https://antismash-db.secondarymetabolites.org/area?record=NW_017253364&amp;start=1410639&amp;end=1535276" target="_blank">NW_017253364 (1410639-1535276)</a>: Paraphaeosphaeria sporulosa strain AP3s5-JAC2... (4% of genes show similarity), T1PKS,fungal-RiPP-like,terpene</text>
<line x1="10" y1="85" x2="778.0" y2="85" style="stroke-width:1; stroke:grey; "  />
</g>
<g id="a9_000"  >
<polygon points="0,90 4,85 0,80 0,90 " style="fill:white; stroke-width:1; stroke:black; " description="&lt;b&gt;CC84DRAFT_1244505&lt;/b&gt;&lt;br&gt;DUF1961-domain-containing protein&lt;br&gt;Location: 1410966 - 1411667" locus_tag="CC84DRAFT_1244505" class="clusterblast-orf" id="dummy-9_h9_4_0"  />
</g>
<g id="a9_001"  >
<polygon points="6,85 10,80 10,90 6,85 " style="fill:white; stroke-width:1; stroke:black; " description="&lt;b&gt;CC84DRAFT_1259216&lt;/b&gt;&lt;br&gt;CHAP-domain-containing protein&lt;br&gt;Location: 1411840 - 1412428" locus_tag="CC84DRAFT_1259216" class="clusterblast-orf" id="dummy-9_h9_4_1"  />
</g>
<g id="a9_002"  >
<polygon points="13,85 18,80 20,80 20,90 18,90 13,85 " style="fill:white; stroke-width:1; stroke:black; " description="&lt;b&gt;CC84DRAFT_1217172&lt;/b&gt;&lt;br&gt;Dyp-type peroxidase&lt;br&gt;Location: 1412963 - 1413907" locus_tag="CC84DRAFT_1217172" class="clusterblast-orf" id="dummy-9_h9_4_2"  />
</g>
<g id="a9_003"  >
<polygon points="38,90 43,90 48,85 43,80 38,80 38,90 " style="fill:white; stroke-width:1; stroke:black; " description="&lt;b&gt;CC84DRAFT_739315&lt;/b&gt;&lt;br&gt;hypothetical protein&lt;br&gt;Location: 1416519 - 1418010" locus_tag="CC84DRAFT_739315" class="clusterblast-orf" id="dummy-9_h9_4_3"  />
</g>
<g id="a9_004"  >
<polygon points="62,85 66,80 66,90 62,85 " style="fill:white; stroke-width:1; stroke:black; " description="&lt;b&gt;CC84DRAFT_1164303&lt;/b&gt;&lt;br&gt;flavo protein&lt;br&gt;Location: 1420136 - 1420687" locus_tag="CC84DRAFT_1164303" class="clusterblast-orf" id="dummy-9_h9_4_4"  />
</g>
<g id="a9_005"  >
<polygon points="77,85 82,80 86,80 86,90 82,90 77,85 " style="fill:white; stroke-width:1; stroke:black; " description="&lt;b&gt;CC84DRAFT_1244517&lt;/b&gt;&lt;br&gt;hypothetical protein&lt;br&gt;Location: 1422189 - 1423505" locus_tag="CC84DRAFT_1244517" class="clusterblast-orf" id="dummy-9_h9_4_5"  />
</g>
<g id="a9_006"  >
<polygon points="92,90 97,90 102,85 97,80 92,80 92,90 " style="fill:white; stroke-width:1; stroke:black; " description="&lt;b&gt;CC84DRAFT_739375&lt;/b&gt;&lt;br&gt;hypothetical protein&lt;br&gt;Location: 1424421 - 1425923" locus_tag="CC84DRAFT_739375" class="clusterblast-orf" id="dummy-9_h9_4_6"  />
</g>
<g id="a9_007"  >
<polygon points="111,90 116,90 121,85 116,80 111,80 111,90 " style="fill:white; stroke-width:1; stroke:black; " description="&lt;b&gt;CC84DRAFT_1217178&lt;/b&gt;&lt;br&gt;Presilphiperfolan-8-beta-ol synthase&lt;br&gt;Location: 1427251 - 1428692" locus_tag="CC84DRAFT_1217178" class="clusterblast-orf" id="dummy-9_h9_4_7"  />
</g>
<g id="a9_008"  >
<polygon points="125,90 132,90 137,85 132,80 125,80 125,90 " style="fill:white; stroke-width:1; stroke:black; " description="&lt;b&gt;CC84DRAFT_1259223&lt;/b&gt;&lt;br&gt;cytochrome P450&lt;br&gt;Location: 1429310 - 1431044" locus_tag="CC84DRAFT_1259223" class="clusterblast-orf" id="dummy-9_h9_4_8"  />
</g>
<g id="a9_009"  >
<polygon points="141,85 146,80 148,80 148,90 146,90 141,85 " style="fill:white; stroke-width:1; stroke:black; " description="&lt;b&gt;CC84DRAFT_1090863&lt;/b&gt;&lt;br&gt;oxidoreductase CipA-like protein&lt;br&gt;Location: 1431617 - 1432610" locus_tag="CC84DRAFT_1090863" class="clusterblast-orf" id="dummy-9_h9_4_9"  />
</g>
<g id="a9_0010"  >
<polygon points="153,85 158,80 172,80 172,90 158,90 153,85 " style="fill:white; stroke-width:1; stroke:black; " description="&lt;b&gt;CC84DRAFT_739563&lt;/b&gt;&lt;br&gt;autoinducer 2 sensor kinase/phosphatase luxQ&lt;br&gt;Location: 1433305 - 1436070" locus_tag="CC84DRAFT_739563" class="clusterblast-orf" id="dummy-9_h9_4_10"  />
</g>
<g id="a9_0011"  >
<polygon points="173,90 176,85 173,80 173,90 " style="fill:white; stroke-width:1; stroke:black; " description="&lt;b&gt;CC84DRAFT_739590&lt;/b&gt;&lt;br&gt;hypothetical protein&lt;br&gt;Location: 1436174 - 1436671" locus_tag="CC84DRAFT_739590" class="clusterblast-orf" id="dummy-9_h9_4_11"  />
</g>
<g id="a9_0012"  >
<polygon points="180,85 185,80 190,80 190,90 185,90 180,85 " style="fill:white; stroke-width:1; stroke:black; " description="&lt;b&gt;CC84DRAFT_739660&lt;/b&gt;&lt;br&gt;hypothetical protein&lt;br&gt;Location: 1437308 - 1438719" locus_tag="CC84DRAFT_739660" class="clusterblast-orf" id="dummy-9_h9_4_12"  />
</g>
<g id="a9_0013"  >
<polygon points="191,90 194,85 191,80 191,90 " style="fill:white; stroke-width:1; stroke:black; " description="&lt;b&gt;CC84DRAFT_1164310&lt;/b&gt;&lt;br&gt;hypothetical protein&lt;br&gt;Location: 1438818 - 1439354" locus_tag="CC84DRAFT_1164310" class="clusterblast-orf" id="dummy-9_h9_4_13"  />
</g>
<g id="a9_0014"  >
<polygon points="203,85 208,80 262,80 262,90 208,90 203,85 " style="fill:#d81515; stroke-width:1; stroke:black; " description="&lt;b&gt;CC84DRAFT_1244536&lt;/b&gt;&lt;br&gt;polyketide synthase&lt;br&gt;Location: 1440640 - 1449163&lt;br&gt;&lt;br&gt;&lt;b&gt;BlastP hit with input.path1.gene1520&lt;/b&gt;&lt;br&gt;Percentage identity: 39&lt;br&gt;Percentage coverage: 105&lt;br&gt;BLAST bit score: 1682&lt;br&gt;E-value: 0.0" locus_tag="CC84DRAFT_1244536" class="clusterblast-orf" id="dummy-9_h9_4_14"  />
</g>
<g id="a9_0015"  >
<polygon points="264,85 269,80 274,80 274,90 269,90 264,85 " style="fill:#15d815; stroke-width:1; stroke:black; " description="&lt;b&gt;CC84DRAFT_1244547&lt;/b&gt;&lt;br&gt;sterigmatocystin 8-O-methyltransferase precursor&lt;br&gt;Location: 1449471 - 1450877&lt;br&gt;&lt;br&gt;&lt;b&gt;BlastP hit with input.path1.gene1521&lt;/b&gt;&lt;br&gt;Percentage identity: 40&lt;br&gt;Percentage coverage: 99&lt;br&gt;BLAST bit score: 308&lt;br&gt;E-value: 4.48e-99" locus_tag="CC84DRAFT_1244547" class="clusterblast-orf" id="dummy-9_h9_4_15"  />
</g>
<g id="a9_0016"  >
<polygon points="283,85 286,80 286,90 283,85 " style="fill:white; stroke-width:1; stroke:black; " description="&lt;b&gt;CC84DRAFT_1090992&lt;/b&gt;&lt;br&gt;hypothetical protein&lt;br&gt;Location: 1452296 - 1452748" locus_tag="CC84DRAFT_1090992" class="clusterblast-orf" id="dummy-9_h9_4_16"  />
</g>
<g id="a9_0017"  >
<polygon points="294,85 299,80 301,80 301,90 299,90 294,85 " style="fill:white; stroke-width:1; stroke:black; " description="&lt;b&gt;CC84DRAFT_1090683&lt;/b&gt;&lt;br&gt;putative 3-oxoacyl-reductase&lt;br&gt;Location: 1453806 - 1454852" locus_tag="CC84DRAFT_1090683" class="clusterblast-orf" id="dummy-9_h9_4_17"  />
</g>
<g id="a9_0018"  >
<polygon points="304,85 309,80 315,80 315,90 309,90 304,85 " style="fill:white; stroke-width:1; stroke:black; " description="&lt;b&gt;CC84DRAFT_1244569&lt;/b&gt;&lt;br&gt;bifunctional solanapyrone synthase&lt;br&gt;Location: 1455357 - 1456971" locus_tag="CC84DRAFT_1244569" class="clusterblast-orf" id="dummy-9_h9_4_18"  />
</g>
<g id="a9_0019"  >
<polygon points="318,90 325,90 330,85 325,80 318,80 318,90 " style="fill:white; stroke-width:1; stroke:black; " description="&lt;b&gt;CC84DRAFT_1187002&lt;/b&gt;&lt;br&gt;cytochrome P450&lt;br&gt;Location: 1457398 - 1459021" locus_tag="CC84DRAFT_1187002" class="clusterblast-orf" id="dummy-9_h9_4_19"  />
</g>
<g id="a9_0020"  >
<polygon points="369,90 373,85 369,80 369,90 " style="fill:white; stroke-width:1; stroke:black; " description="&lt;b&gt;CC84DRAFT_1164314&lt;/b&gt;&lt;br&gt;hypothetical protein&lt;br&gt;Location: 1464794 - 1465343" locus_tag="CC84DRAFT_1164314" class="clusterblast-orf" id="dummy-9_h9_4_20"  />
</g>
<g id="a9_0021"  >
<polygon points="378,90 381,90 386,85 381,80 378,80 378,90 " style="fill:white; stroke-width:1; stroke:black; " description="&lt;b&gt;CC84DRAFT_1145602&lt;/b&gt;&lt;br&gt;putative hydrolase or acyltransferase of alpha/beta superfamily&lt;br&gt;Location: 1466090 - 1467174" locus_tag="CC84DRAFT_1145602" class="clusterblast-orf" id="dummy-9_h9_4_21"  />
</g>
<g id="a9_0022"  >
<polygon points="387,85 392,80 398,80 398,90 392,90 387,85 " style="fill:white; stroke-width:1; stroke:black; " description="&lt;b&gt;CC84DRAFT_1145605&lt;/b&gt;&lt;br&gt;feruloyl esteras-like protein B&lt;br&gt;Location: 1467315 - 1469058" locus_tag="CC84DRAFT_1145605" class="clusterblast-orf" id="dummy-9_h9_4_22"  />
</g>
<g id="a9_0023"  >
<polygon points="432,85 437,80 439,80 439,90 437,90 432,85 " style="fill:white; stroke-width:1; stroke:black; " description="&lt;b&gt;CC84DRAFT_1092414&lt;/b&gt;&lt;br&gt;putative 14-3-3 family protein ArtA&lt;br&gt;Location: 1473974 - 1474987" locus_tag="CC84DRAFT_1092414" class="clusterblast-orf" id="dummy-9_h9_4_23"  />
</g>
<g id="a9_0024"  >
<polygon points="447,90 447,90 452,85 447,80 447,80 447,90 " style="fill:white; stroke-width:1; stroke:black; " description="&lt;b&gt;CC84DRAFT_1164317&lt;/b&gt;&lt;br&gt;hypothetical protein&lt;br&gt;Location: 1476176 - 1476788" locus_tag="CC84DRAFT_1164317" class="clusterblast-orf" id="dummy-9_h9_4_24"  />
</g>
<g id="a9_0025"  >
<polygon points="456,85 461,80 469,80 469,90 461,90 456,85 " style="fill:white; stroke-width:1; stroke:black; " description="&lt;b&gt;CC84DRAFT_1259233&lt;/b&gt;&lt;br&gt;hypothetical protein&lt;br&gt;Location: 1477428 - 1479338" locus_tag="CC84DRAFT_1259233" class="clusterblast-orf" id="dummy-9_h9_4_25"  />
</g>
<g id="a9_0026"  >
<polygon points="473,85 478,80 492,80 492,90 478,90 473,85 " style="fill:white; stroke-width:1; stroke:black; " description="&lt;b&gt;CC84DRAFT_1244591&lt;/b&gt;&lt;br&gt;hypothetical protein&lt;br&gt;Location: 1479870 - 1482660" locus_tag="CC84DRAFT_1244591" class="clusterblast-orf" id="dummy-9_h9_4_26"  />
</g>
<g id="a9_0027"  >
<polygon points="501,90 501,90 506,85 501,80 501,80 501,90 " style="fill:white; stroke-width:1; stroke:black; " description="&lt;b&gt;CC84DRAFT_1205568&lt;/b&gt;&lt;br&gt;hypothetical protein&lt;br&gt;Location: 1484035 - 1484648" locus_tag="CC84DRAFT_1205568" class="clusterblast-orf" id="dummy-9_h9_4_27"  />
</g>
<g id="a9_0028"  >
<polygon points="517,90 525,90 530,85 525,80 517,80 517,90 " style="fill:white; stroke-width:1; stroke:black; " description="&lt;b&gt;CC84DRAFT_1175994&lt;/b&gt;&lt;br&gt;HET-domain-containing protein&lt;br&gt;Location: 1486313 - 1488221" locus_tag="CC84DRAFT_1175994" class="clusterblast-orf" id="dummy-9_h9_4_28"  />
</g>
<g id="a9_0029"  >
<polygon points="538,85 539,80 539,90 538,85 " style="fill:white; stroke-width:1; stroke:black; " description="&lt;b&gt;CC84DRAFT_740271&lt;/b&gt;&lt;br&gt;hypothetical protein&lt;br&gt;Location: 1489318 - 1489566" locus_tag="CC84DRAFT_740271" class="clusterblast-orf" id="dummy-9_h9_4_29"  />
</g>
<g id="a9_0030"  >
<polygon points="540,85 544,80 544,90 540,85 " style="fill:white; stroke-width:1; stroke:black; " description="&lt;b&gt;CC84DRAFT_1092207&lt;/b&gt;&lt;br&gt;hypothetical protein&lt;br&gt;Location: 1489590 - 1490276" locus_tag="CC84DRAFT_1092207" class="clusterblast-orf" id="dummy-9_h9_4_30"  />
</g>
<g id="a9_0031"  >
<polygon points="551,90 554,85 551,80 551,90 " style="fill:white; stroke-width:1; stroke:black; " description="&lt;b&gt;CC84DRAFT_1217197&lt;/b&gt;&lt;br&gt;hypothetical protein&lt;br&gt;Location: 1491331 - 1491696" locus_tag="CC84DRAFT_1217197" class="clusterblast-orf" id="dummy-9_h9_4_31"  />
</g>
<g id="a9_0032"  >
<polygon points="563,85 568,80 591,80 591,90 568,90 563,85 " style="fill:white; stroke-width:1; stroke:black; " description="&lt;b&gt;CC84DRAFT_1259235&lt;/b&gt;&lt;br&gt;hypothetical protein&lt;br&gt;Location: 1493023 - 1497092" locus_tag="CC84DRAFT_1259235" class="clusterblast-orf" id="dummy-9_h9_4_32"  />
</g>
<g id="a9_0033"  >
<polygon points="603,85 608,80 615,80 615,90 608,90 603,85 " style="fill:white; stroke-width:1; stroke:black; " description="&lt;b&gt;CC84DRAFT_1119428&lt;/b&gt;&lt;br&gt;hypothetical protein&lt;br&gt;Location: 1498856 - 1500572" locus_tag="CC84DRAFT_1119428" class="clusterblast-orf" id="dummy-9_h9_4_33"  />
</g>
<g id="a9_0034"  >
<polygon points="619,90 629,90 634,85 629,80 619,80 619,90 " style="fill:white; stroke-width:1; stroke:black; " description="&lt;b&gt;CC84DRAFT_1119431&lt;/b&gt;&lt;br&gt;hypothetical protein&lt;br&gt;Location: 1501112 - 1503418" locus_tag="CC84DRAFT_1119431" class="clusterblast-orf" id="dummy-9_h9_4_34"  />
</g>
<g id="a9_0035"  >
<polygon points="642,90 658,90 663,85 658,80 642,80 642,90 " style="fill:white; stroke-width:1; stroke:black; " description="&lt;b&gt;CC84DRAFT_1205572&lt;/b&gt;&lt;br&gt;hypothetical protein&lt;br&gt;Location: 1504581 - 1507577" locus_tag="CC84DRAFT_1205572" class="clusterblast-orf" id="dummy-9_h9_4_35"  />
</g>
<g id="a9_0036"  >
<polygon points="670,85 675,80 678,80 678,90 675,90 670,85 " style="fill:white; stroke-width:1; stroke:black; " description="&lt;b&gt;CC84DRAFT_1145626&lt;/b&gt;&lt;br&gt;subtilisin-like protease&lt;br&gt;Location: 1508575 - 1509813" locus_tag="CC84DRAFT_1145626" class="clusterblast-orf" id="dummy-9_h9_4_36"  />
</g>
<g id="a9_0037"  >
<polygon points="681,85 683,80 683,90 681,85 " style="fill:white; stroke-width:1; stroke:black; " description="&lt;b&gt;CC84DRAFT_740378&lt;/b&gt;&lt;br&gt;hypothetical protein&lt;br&gt;Location: 1510212 - 1510472" locus_tag="CC84DRAFT_740378" class="clusterblast-orf" id="dummy-9_h9_4_37"  />
</g>
<g id="a9_0038"  >
<polygon points="691,85 696,80 700,80 700,90 696,90 691,85 " style="fill:white; stroke-width:1; stroke:black; " description="&lt;b&gt;CC84DRAFT_1176001&lt;/b&gt;&lt;br&gt;hypothetical protein&lt;br&gt;Location: 1511606 - 1512997" locus_tag="CC84DRAFT_1176001" class="clusterblast-orf" id="dummy-9_h9_4_38"  />
</g>
<g id="a9_0039"  >
<polygon points="709,85 714,80 719,80 719,90 714,90 709,85 " style="fill:white; stroke-width:1; stroke:black; " description="&lt;b&gt;CC84DRAFT_1164326&lt;/b&gt;&lt;br&gt;WD40 repeat-like protein&lt;br&gt;Location: 1514242 - 1515755" locus_tag="CC84DRAFT_1164326" class="clusterblast-orf" id="dummy-9_h9_4_39"  />
</g>
<g id="a9_0040"  >
<polygon points="721,90 722,90 727,85 722,80 721,80 721,90 " style="fill:white; stroke-width:1; stroke:black; " description="&lt;b&gt;CC84DRAFT_1259242&lt;/b&gt;&lt;br&gt;trafficking protein-like protein particle complex subunit 3&lt;br&gt;Location: 1516058 - 1516832" locus_tag="CC84DRAFT_1259242" class="clusterblast-orf" id="dummy-9_h9_4_40"  />
</g>
<g id="a9_0041"  >
<polygon points="734,90 746,90 751,85 746,80 734,80 734,90 " style="fill:white; stroke-width:1; stroke:black; " description="&lt;b&gt;CC84DRAFT_740437&lt;/b&gt;&lt;br&gt;hypothetical protein&lt;br&gt;Location: 1517965 - 1520341" locus_tag="CC84DRAFT_740437" class="clusterblast-orf" id="dummy-9_h9_4_41"  />
</g>
<g id="a9_0042"  >
<polygon points="765,85 770,80 780,80 780,90 770,90 765,85 " style="fill:white; stroke-width:1; stroke:black; " description="&lt;b&gt;CC84DRAFT_1092576&lt;/b&gt;&lt;br&gt;hypothetical protein&lt;br&gt;Location: 1522426 - 1524534" locus_tag="CC84DRAFT_1092576" class="clusterblast-orf" id="dummy-9_h9_4_42"  />
</g>
</svg>
