<svg xmlns="http://www.w3.org/2000/svg" xmlns:xlink="http://www.w3.org/1999/xlink" version="1.1" x="0" y="0" height="230" width="800" viewBox="0 0 800 230" preserveAspectRatio="none"  >
<g label="Query sequence" class="clusterblast-cluster"  >
<text x="5" y="20" class="clusterblast-acc"  >
Query sequence</text>
<line x1="10" y1="35" x2="778.0" y2="35" style="stroke-width:1; stroke:grey; "  />
<polygon points="151,40 155,35 151,30 151,40 " style="fill:#d81515; stroke-width:1; stroke:black; " description="&lt;b&gt;input.path1.gene941&lt;/b&gt;&lt;br&gt;input.path1.gene941&lt;br&gt;Location: 3639171 - 3639739" locus_tag="input.path1.gene941" class="clusterblast-orf" id="dummy-6_q0_0_all"  />
<polygon points="164,35 169,30 177,30 177,40 169,40 164,35 " style="fill:#43d815; stroke-width:1; stroke:black; " description="&lt;b&gt;input.path1.gene942&lt;/b&gt;&lt;br&gt;input.path1.gene942&lt;br&gt;Location: 3640900 - 3642705" locus_tag="input.path1.gene942" class="clusterblast-orf" id="dummy-6_q1_0_all"  />
<polygon points="226,40 233,40 238,35 233,30 226,30 226,40 " style="fill:#15b6d8; stroke-width:1; stroke:black; " description="&lt;b&gt;input.path1.gene943&lt;/b&gt;&lt;br&gt;input.path1.gene943&lt;br&gt;Location: 3649169 - 3650802" locus_tag="input.path1.gene943" class="clusterblast-orf" id="dummy-6_q2_0_all"  />
<polygon points="244,35 249,30 257,30 257,40 249,40 244,35 " style="fill:#8815d8; stroke-width:1; stroke:black; " description="&lt;b&gt;input.path1.gene944&lt;/b&gt;&lt;br&gt;input.path1.gene944&lt;br&gt;Location: 3651541 - 3653324" locus_tag="input.path1.gene944" class="clusterblast-orf" id="dummy-6_q3_0_all"  />
<polygon points="262,40 272,40 277,35 272,30 262,30 262,40 " style="fill:#d85a15; stroke-width:1; stroke:black; " description="&lt;b&gt;input.path1.gene945&lt;/b&gt;&lt;br&gt;input.path1.gene945&lt;br&gt;Location: 3654030 - 3655932" locus_tag="input.path1.gene945" class="clusterblast-orf" id="dummy-6_q4_0_all"  />
<polygon points="277,35 282,30 285,30 285,40 282,40 277,35 " style="fill:#15d82c; stroke-width:1; stroke:black; " description="&lt;b&gt;input.path1.gene946&lt;/b&gt;&lt;br&gt;input.path1.gene946&lt;br&gt;Location: 3655989 - 3657076" locus_tag="input.path1.gene946" class="clusterblast-orf" id="dummy-6_q5_0_all"  />
<polygon points="289,35 294,30 297,30 297,40 294,40 289,35 " style="fill:#1571d8; stroke-width:1; stroke:black; " description="&lt;b&gt;input.path1.gene947&lt;/b&gt;&lt;br&gt;input.path1.gene947&lt;br&gt;Location: 3657495 - 3658567" locus_tag="input.path1.gene947" class="clusterblast-orf" id="dummy-6_q6_0_all"  />
<polygon points="321,35 326,30 330,30 330,40 326,40 321,35 " style="fill:#cd15d8; stroke-width:1; stroke:black; " description="&lt;b&gt;input.path1.gene948&lt;/b&gt;&lt;br&gt;input.path1.gene948&lt;br&gt;Location: 3661802 - 3663057" locus_tag="input.path1.gene948" class="clusterblast-orf" id="dummy-6_q7_0_all"  />
<polygon points="341,35 346,30 347,30 347,40 346,40 341,35 " style="fill:#d89f15; stroke-width:1; stroke:black; " description="&lt;b&gt;input.path1.gene949&lt;/b&gt;&lt;br&gt;input.path1.gene949&lt;br&gt;Location: 3664494 - 3665289" locus_tag="input.path1.gene949" class="clusterblast-orf" id="dummy-6_q8_0_all"  />
<polygon points="355,40 359,40 364,35 359,30 355,30 355,40 " style="fill:#15d871; stroke-width:1; stroke:black; " description="&lt;b&gt;input.path1.gene950&lt;/b&gt;&lt;br&gt;input.path1.gene950&lt;br&gt;Location: 3666274 - 3667586" locus_tag="input.path1.gene950" class="clusterblast-orf" id="dummy-6_q9_0_all"  />
<polygon points="383,40 389,40 394,35 389,30 383,30 383,40 " style="fill:#152cd8; stroke-width:1; stroke:black; " description="&lt;b&gt;input.path1.gene951&lt;/b&gt;&lt;br&gt;input.path1.gene951&lt;br&gt;Location: 3669992 - 3671462" locus_tag="input.path1.gene951" class="clusterblast-orf" id="dummy-6_q10_0_all"  />
<polygon points="395,35 400,30 408,30 408,40 400,40 395,35 " style="fill:#d8159f; stroke-width:1; stroke:black; " description="&lt;b&gt;input.path1.gene952&lt;/b&gt;&lt;br&gt;input.path1.gene952&lt;br&gt;Location: 3671651 - 3673396" locus_tag="input.path1.gene952" class="clusterblast-orf" id="dummy-6_q11_0_all"  />
<polygon points="409,40 421,40 426,35 421,30 409,30 409,40 " style="fill:#15d871; stroke-width:1; stroke:black; " description="&lt;b&gt;input.path1.gene953&lt;/b&gt;&lt;br&gt;input.path1.gene953&lt;br&gt;Location: 3673533 - 3675803" locus_tag="input.path1.gene953" class="clusterblast-orf" id="dummy-6_q12_0_all"  />
<polygon points="429,35 434,30 437,30 437,40 434,40 429,35 " style="fill:#15d871; stroke-width:1; stroke:black; " description="&lt;b&gt;input.path1.gene954&lt;/b&gt;&lt;br&gt;input.path1.gene954&lt;br&gt;Location: 3676152 - 3677268" locus_tag="input.path1.gene954" class="clusterblast-orf" id="dummy-6_q13_0_all"  />
<polygon points="441,40 464,40 469,35 464,30 441,30 441,40 " style="fill:#15d871; stroke-width:1; stroke:black; " description="&lt;b&gt;input.path1.gene955&lt;/b&gt;&lt;br&gt;input.path1.gene955&lt;br&gt;Location: 3677739 - 3681474" locus_tag="input.path1.gene955" class="clusterblast-orf" id="dummy-6_q14_0_all"  />
<polygon points="472,40 491,40 496,35 491,30 472,30 472,40 " style="fill:#cdd815; stroke-width:1; stroke:black; " description="&lt;b&gt;input.path1.gene956&lt;/b&gt;&lt;br&gt;input.path1.gene956&lt;br&gt;Location: 3681854 - 3685105" locus_tag="input.path1.gene956" class="clusterblast-orf" id="dummy-6_q15_0_all"  />
<polygon points="497,40 505,40 510,35 505,30 497,30 497,40 " style="fill:#15d8b6; stroke-width:1; stroke:black; " description="&lt;b&gt;input.path1.gene957&lt;/b&gt;&lt;br&gt;input.path1.gene957&lt;br&gt;Location: 3685281 - 3686949" locus_tag="input.path1.gene957" class="clusterblast-orf" id="dummy-6_q16_0_all"  />
<polygon points="511,35 516,30 572,30 572,40 516,40 511,35 " style="fill:#4315d8; stroke-width:1; stroke:black; " description="&lt;b&gt;input.path1.gene958&lt;/b&gt;&lt;br&gt;input.path1.gene958&lt;br&gt;Location: 3687026 - 3695134" locus_tag="input.path1.gene958" class="clusterblast-orf" id="dummy-6_q17_0_all"  />
<polygon points="593,40 603,40 608,35 603,30 593,30 593,40 " style="fill:#d8155a; stroke-width:1; stroke:black; " description="&lt;b&gt;input.path1.gene959&lt;/b&gt;&lt;br&gt;input.path1.gene959&lt;br&gt;Location: 3697954 - 3699968" locus_tag="input.path1.gene959" class="clusterblast-orf" id="dummy-6_q18_0_all"  />
<polygon points="615,35 620,30 628,30 628,40 620,40 615,35 " style="fill:#88d815; stroke-width:1; stroke:black; " description="&lt;b&gt;input.path1.gene960&lt;/b&gt;&lt;br&gt;input.path1.gene960&lt;br&gt;Location: 3700898 - 3702687" locus_tag="input.path1.gene960" class="clusterblast-orf" id="dummy-6_q19_0_all"  />
</g>
<g label="NW_024468986" description="NW_024468986 (554990-661675): Aspergillus fijiensis CBS 313.89 unplaced genom... (5% of genes show similarity), fungal-RiPP-like" class="clusterblast-cluster"  >
<text x="5" y="70" class="clusterblast-acc"  >
<a xlink:href="https://antismash-db.secondarymetabolites.org/area?record=NW_024468986&amp;start=554990&amp;end=661675" target="_blank">NW_024468986 (554990-661675)</a>: Aspergillus fijiensis CBS 313.89 unplaced genom... (5% of genes show similarity), fungal-RiPP-like</text>
<line x1="10" y1="85" x2="778.0" y2="85" style="stroke-width:1; stroke:grey; "  />
</g>
<g id="a6_000"  >
<polygon points="0,85 5,80 26,80 26,90 5,90 0,85 " style="fill:white; stroke-width:1; stroke:black; " description="&lt;b&gt;BO72DRAFT_484086&lt;/b&gt;&lt;br&gt;PLP-dependent transferase&lt;br&gt;Location: 661124 - 657649" locus_tag="BO72DRAFT_484086" class="clusterblast-orf" id="dummy-6_h6_10_0"  />
</g>
<g id="a6_001"  >
<polygon points="49,90 59,90 64,85 59,80 49,80 49,90 " style="fill:#15d871; stroke-width:1; stroke:black; " description="&lt;b&gt;BO72DRAFT_525483&lt;/b&gt;&lt;br&gt;subtilisin-like protein&lt;br&gt;Location: 654488 - 652556&lt;br&gt;&lt;br&gt;&lt;b&gt;BlastP hit with input.path1.gene953&lt;/b&gt;&lt;br&gt;Percentage identity: 33&lt;br&gt;Percentage coverage: 96&lt;br&gt;BLAST bit score: 293&lt;br&gt;E-value: 9.57e-89" locus_tag="BO72DRAFT_525483" class="clusterblast-orf" id="dummy-6_h6_10_1"  />
</g>
<g id="a6_002"  >
<polygon points="67,90 72,90 77,85 72,80 67,80 67,90 " style="fill:white; stroke-width:1; stroke:black; " description="&lt;b&gt;BO72DRAFT_475562&lt;/b&gt;&lt;br&gt;uncharacterized protein&lt;br&gt;Location: 652094 - 650771" locus_tag="BO72DRAFT_475562" class="clusterblast-orf" id="dummy-6_h6_10_2"  />
</g>
<g id="a6_003"  >
<polygon points="86,90 90,90 95,85 90,80 86,80 86,90 " style="fill:white; stroke-width:1; stroke:black; " description="&lt;b&gt;BO72DRAFT_525481&lt;/b&gt;&lt;br&gt;uncharacterized protein&lt;br&gt;Location: 649583 - 648364" locus_tag="BO72DRAFT_525481" class="clusterblast-orf" id="dummy-6_h6_10_3"  />
</g>
<g id="a6_004"  >
<polygon points="99,85 104,80 110,80 110,90 104,90 99,85 " style="fill:white; stroke-width:1; stroke:black; " description="&lt;b&gt;BO72DRAFT_423612&lt;/b&gt;&lt;br&gt;aromatic compound dioxygenase&lt;br&gt;Location: 647911 - 646484" locus_tag="BO72DRAFT_423612" class="clusterblast-orf" id="dummy-6_h6_10_4"  />
</g>
<g id="a6_005"  >
<polygon points="117,90 127,90 132,85 127,80 117,80 117,90 " style="fill:white; stroke-width:1; stroke:black; " description="&lt;b&gt;BO72DRAFT_456507&lt;/b&gt;&lt;br&gt;uncharacterized protein&lt;br&gt;Location: 645506 - 643479" locus_tag="BO72DRAFT_456507" class="clusterblast-orf" id="dummy-6_h6_10_5"  />
</g>
<g id="a6_006"  >
<polygon points="145,90 155,90 160,85 155,80 145,80 145,90 " style="fill:white; stroke-width:1; stroke:black; " description="&lt;b&gt;BO72DRAFT_503228&lt;/b&gt;&lt;br&gt;MFS general substrate transporter&lt;br&gt;Location: 641743 - 639831" locus_tag="BO72DRAFT_503228" class="clusterblast-orf" id="dummy-6_h6_10_6"  />
</g>
<g id="a6_007"  >
<polygon points="165,90 175,90 180,85 175,80 165,80 165,90 " style="fill:white; stroke-width:1; stroke:black; " description="&lt;b&gt;BO72DRAFT_445598&lt;/b&gt;&lt;br&gt;uncharacterized protein&lt;br&gt;Location: 639071 - 637184" locus_tag="BO72DRAFT_445598" class="clusterblast-orf" id="dummy-6_h6_10_7"  />
</g>
<g id="a6_008"  >
<polygon points="183,90 186,90 191,85 186,80 183,80 183,90 " style="fill:white; stroke-width:1; stroke:black; " description="&lt;b&gt;BO72DRAFT_493604&lt;/b&gt;&lt;br&gt;uncharacterized protein&lt;br&gt;Location: 636679 - 635693" locus_tag="BO72DRAFT_493604" class="clusterblast-orf" id="dummy-6_h6_10_8"  />
</g>
<g id="a6_009"  >
<polygon points="193,85 198,80 208,80 208,90 198,90 193,85 " style="fill:white; stroke-width:1; stroke:black; " description="&lt;b&gt;BO72DRAFT_456504&lt;/b&gt;&lt;br&gt;uncharacterized protein&lt;br&gt;Location: 635435 - 633398" locus_tag="BO72DRAFT_456504" class="clusterblast-orf" id="dummy-6_h6_10_9"  />
</g>
<g id="a6_0010"  >
<polygon points="217,85 220,80 220,90 217,85 " style="fill:white; stroke-width:1; stroke:black; " description="&lt;b&gt;BO72DRAFT_371682&lt;/b&gt;&lt;br&gt;uncharacterized protein&lt;br&gt;Location: 632213 - 631859" locus_tag="BO72DRAFT_371682" class="clusterblast-orf" id="dummy-6_h6_10_10"  />
</g>
<g id="a6_0011"  >
<polygon points="230,85 235,80 246,80 246,90 235,90 230,85 " style="fill:white; stroke-width:1; stroke:black; " description="&lt;b&gt;BO72DRAFT_475559&lt;/b&gt;&lt;br&gt;uncharacterized protein&lt;br&gt;Location: 630516 - 628400" locus_tag="BO72DRAFT_475559" class="clusterblast-orf" id="dummy-6_h6_10_11"  />
</g>
<g id="a6_0012"  >
<polygon points="254,85 259,80 286,80 286,90 259,90 254,85 " style="fill:white; stroke-width:1; stroke:black; " description="&lt;b&gt;BO72DRAFT_456502&lt;/b&gt;&lt;br&gt;glycoside hydrolase&lt;br&gt;Location: 627224 - 622997" locus_tag="BO72DRAFT_456502" class="clusterblast-orf" id="dummy-6_h6_10_12"  />
</g>
<g id="a6_0013"  >
<polygon points="294,90 295,90 300,85 295,80 294,80 294,90 " style="fill:white; stroke-width:1; stroke:black; " description="&lt;b&gt;BO72DRAFT_371730&lt;/b&gt;&lt;br&gt;uncharacterized protein&lt;br&gt;Location: 622011 - 621223" locus_tag="BO72DRAFT_371730" class="clusterblast-orf" id="dummy-6_h6_10_13"  />
</g>
<g id="a6_0014"  >
<polygon points="321,90 324,90 329,85 324,80 321,80 321,90 " style="fill:white; stroke-width:1; stroke:black; " description="&lt;b&gt;BO72DRAFT_456500&lt;/b&gt;&lt;br&gt;uncharacterized protein&lt;br&gt;Location: 618427 - 617303" locus_tag="BO72DRAFT_456500" class="clusterblast-orf" id="dummy-6_h6_10_14"  />
</g>
<g id="a6_0015"  >
<polygon points="334,85 339,80 342,80 342,90 339,90 334,85 " style="fill:white; stroke-width:1; stroke:black; " description="&lt;b&gt;BO72DRAFT_503200&lt;/b&gt;&lt;br&gt;uncharacterized protein&lt;br&gt;Location: 616675 - 615644" locus_tag="BO72DRAFT_503200" class="clusterblast-orf" id="dummy-6_h6_10_15"  />
</g>
<g id="a6_0016"  >
<polygon points="344,85 349,80 349,80 349,90 349,90 344,85 " style="fill:white; stroke-width:1; stroke:black; " description="&lt;b&gt;BO72DRAFT_365046&lt;/b&gt;&lt;br&gt;uncharacterized protein&lt;br&gt;Location: 615262 - 614601" locus_tag="BO72DRAFT_365046" class="clusterblast-orf" id="dummy-6_h6_10_16"  />
</g>
<g id="a6_0017"  >
<polygon points="356,85 361,80 363,80 363,90 361,90 356,85 " style="fill:white; stroke-width:1; stroke:black; " description="&lt;b&gt;BO72DRAFT_371976&lt;/b&gt;&lt;br&gt;uncharacterized protein&lt;br&gt;Location: 613696 - 612850" locus_tag="BO72DRAFT_371976" class="clusterblast-orf" id="dummy-6_h6_10_17"  />
</g>
<g id="a6_0018"  >
<polygon points="368,90 375,90 380,85 375,80 368,80 368,90 " style="fill:white; stroke-width:1; stroke:black; " description="&lt;b&gt;BO72DRAFT_493593&lt;/b&gt;&lt;br&gt;MFS general substrate transporter&lt;br&gt;Location: 612082 - 610587" locus_tag="BO72DRAFT_493593" class="clusterblast-orf" id="dummy-6_h6_10_18"  />
</g>
<g id="a6_0019"  >
<polygon points="382,85 385,80 385,90 382,85 " style="fill:white; stroke-width:1; stroke:black; " description="&lt;b&gt;BO72DRAFT_525475&lt;/b&gt;&lt;br&gt;uncharacterized protein&lt;br&gt;Location: 610206 - 609878" locus_tag="BO72DRAFT_525475" class="clusterblast-orf" id="dummy-6_h6_10_19"  />
</g>
<g id="a6_0020"  >
<polygon points="392,90 399,90 404,85 399,80 392,80 392,90 " style="fill:white; stroke-width:1; stroke:black; " description="&lt;b&gt;BO72DRAFT_398685&lt;/b&gt;&lt;br&gt;amidase&lt;br&gt;Location: 608941 - 607285" locus_tag="BO72DRAFT_398685" class="clusterblast-orf" id="dummy-6_h6_10_20"  />
</g>
<g id="a6_0021"  >
<polygon points="405,85 410,80 416,80 416,90 410,90 405,85 " style="fill:white; stroke-width:1; stroke:black; " description="&lt;b&gt;BO72DRAFT_493590&lt;/b&gt;&lt;br&gt;uncharacterized protein&lt;br&gt;Location: 607148 - 605755" locus_tag="BO72DRAFT_493590" class="clusterblast-orf" id="dummy-6_h6_10_21"  />
</g>
<g id="a6_0022"  >
<polygon points="422,90 422,90 427,85 422,80 422,80 422,90 " style="fill:white; stroke-width:1; stroke:black; " description="&lt;b&gt;BO72DRAFT_371985&lt;/b&gt;&lt;br&gt;uncharacterized protein&lt;br&gt;Location: 604899 - 604213" locus_tag="BO72DRAFT_371985" class="clusterblast-orf" id="dummy-6_h6_10_22"  />
</g>
<g id="a6_0023"  >
<polygon points="431,90 432,90 437,85 432,80 431,80 431,90 " style="fill:white; stroke-width:1; stroke:black; " description="&lt;b&gt;BO72DRAFT_493588&lt;/b&gt;&lt;br&gt;uncharacterized protein&lt;br&gt;Location: 603735 - 602962" locus_tag="BO72DRAFT_493588" class="clusterblast-orf" id="dummy-6_h6_10_23"  />
</g>
<g id="a6_0024"  >
<polygon points="438,85 443,80 443,80 443,90 443,90 438,85 " style="fill:#15d871; stroke-width:1; stroke:black; " description="&lt;b&gt;BO72DRAFT_503189&lt;/b&gt;&lt;br&gt;uncharacterized protein&lt;br&gt;Location: 602823 - 602207&lt;br&gt;&lt;br&gt;&lt;b&gt;BlastP hit with input.path1.gene950&lt;/b&gt;&lt;br&gt;Percentage identity: 36&lt;br&gt;Percentage coverage: 53&lt;br&gt;BLAST bit score: 84&lt;br&gt;E-value: 3.38e-18&lt;br&gt;&lt;br&gt;&lt;b&gt;BlastP hit with input.path1.gene954&lt;/b&gt;&lt;br&gt;Percentage identity: 31&lt;br&gt;Percentage coverage: 44&lt;br&gt;BLAST bit score: 66&lt;br&gt;E-value: 5.06e-11" locus_tag="BO72DRAFT_503189" class="clusterblast-orf" id="dummy-6_h6_10_24"  />
</g>
<g id="a6_0025"  >
<polygon points="451,90 454,90 459,85 454,80 451,80 451,90 " style="fill:white; stroke-width:1; stroke:black; " description="&lt;b&gt;BO72DRAFT_503185&lt;/b&gt;&lt;br&gt;uncharacterized protein&lt;br&gt;Location: 601121 - 599991" locus_tag="BO72DRAFT_503185" class="clusterblast-orf" id="dummy-6_h6_10_25"  />
</g>
<g id="a6_0026"  >
<polygon points="465,90 466,90 471,85 466,80 465,80 465,90 " style="fill:white; stroke-width:1; stroke:black; " description="&lt;b&gt;BO72DRAFT_493585&lt;/b&gt;&lt;br&gt;uncharacterized protein&lt;br&gt;Location: 599219 - 598470" locus_tag="BO72DRAFT_493585" class="clusterblast-orf" id="dummy-6_h6_10_26"  />
</g>
<g id="a6_0027"  >
<polygon points="489,90 492,85 489,80 489,90 " style="fill:white; stroke-width:1; stroke:black; " description="&lt;b&gt;BO72DRAFT_346054&lt;/b&gt;&lt;br&gt;uncharacterized protein&lt;br&gt;Location: 596011 - 595615" locus_tag="BO72DRAFT_346054" class="clusterblast-orf" id="dummy-6_h6_10_27"  />
</g>
<g id="a6_0028"  >
<polygon points="503,85 508,80 525,80 525,90 508,90 503,85 " style="fill:white; stroke-width:1; stroke:black; " description="&lt;b&gt;BO72DRAFT_503184&lt;/b&gt;&lt;br&gt;chitin synthase&lt;br&gt;Location: 594147 - 591190" locus_tag="BO72DRAFT_503184" class="clusterblast-orf" id="dummy-6_h6_10_28"  />
</g>
<g id="a6_0029"  >
<polygon points="532,90 538,90 543,85 538,80 532,80 532,90 " style="fill:white; stroke-width:1; stroke:black; " description="&lt;b&gt;BO72DRAFT_371571&lt;/b&gt;&lt;br&gt;uncharacterized protein&lt;br&gt;Location: 590251 - 588868" locus_tag="BO72DRAFT_371571" class="clusterblast-orf" id="dummy-6_h6_10_29"  />
</g>
<g id="a6_0030"  >
<polygon points="549,90 554,90 559,85 554,80 549,80 549,90 " style="fill:white; stroke-width:1; stroke:black; " description="&lt;b&gt;BO72DRAFT_423599&lt;/b&gt;&lt;br&gt;uncharacterized protein&lt;br&gt;Location: 588054 - 586759" locus_tag="BO72DRAFT_423599" class="clusterblast-orf" id="dummy-6_h6_10_30"  />
</g>
<g id="a6_0031"  >
<polygon points="623,85 628,80 633,80 633,90 628,90 623,85 " style="fill:white; stroke-width:1; stroke:black; " description="&lt;b&gt;BO72DRAFT_445594&lt;/b&gt;&lt;br&gt;uncharacterized protein&lt;br&gt;Location: 578171 - 576897" locus_tag="BO72DRAFT_445594" class="clusterblast-orf" id="dummy-6_h6_10_31"  />
</g>
<g id="a6_0032"  >
<polygon points="639,85 644,80 648,80 648,90 644,90 639,85 " style="fill:white; stroke-width:1; stroke:black; " description="&lt;b&gt;BO72DRAFT_14211&lt;/b&gt;&lt;br&gt;uncharacterized protein&lt;br&gt;Location: 576045 - 574843" locus_tag="BO72DRAFT_14211" class="clusterblast-orf" id="dummy-6_h6_10_32"  />
</g>
<g id="a6_0033"  >
<polygon points="655,85 657,80 657,90 655,85 " style="fill:white; stroke-width:1; stroke:black; " description="&lt;b&gt;BO72DRAFT_493578&lt;/b&gt;&lt;br&gt;uncharacterized protein&lt;br&gt;Location: 573901 - 573642" locus_tag="BO72DRAFT_493578" class="clusterblast-orf" id="dummy-6_h6_10_33"  />
</g>
<g id="a6_0034"  >
<polygon points="662,90 668,90 673,85 668,80 662,80 662,90 " style="fill:white; stroke-width:1; stroke:black; " description="&lt;b&gt;BO72DRAFT_456482&lt;/b&gt;&lt;br&gt;putative oxidoreductase&lt;br&gt;Location: 573064 - 571525" locus_tag="BO72DRAFT_456482" class="clusterblast-orf" id="dummy-6_h6_10_34"  />
</g>
<g id="a6_0035"  >
<polygon points="677,90 679,90 684,85 679,80 677,80 677,90 " style="fill:white; stroke-width:1; stroke:black; " description="&lt;b&gt;BO72DRAFT_14161&lt;/b&gt;&lt;br&gt;ClpP/crotonase&lt;br&gt;Location: 571050 - 570127" locus_tag="BO72DRAFT_14161" class="clusterblast-orf" id="dummy-6_h6_10_35"  />
</g>
<g id="a6_0036"  >
<polygon points="719,85 722,80 722,90 719,85 " style="fill:white; stroke-width:1; stroke:black; " description="&lt;b&gt;BO72DRAFT_525467&lt;/b&gt;&lt;br&gt;uncharacterized protein&lt;br&gt;Location: 565400 - 565053" locus_tag="BO72DRAFT_525467" class="clusterblast-orf" id="dummy-6_h6_10_36"  />
</g>
<g id="a6_0037"  >
<polygon points="730,85 735,80 738,80 738,90 735,90 730,85 " style="fill:white; stroke-width:1; stroke:black; " description="&lt;b&gt;BO72DRAFT_445591&lt;/b&gt;&lt;br&gt;fructose-bisphosphate aldolase&lt;br&gt;Location: 563963 - 562954" locus_tag="BO72DRAFT_445591" class="clusterblast-orf" id="dummy-6_h6_10_37"  />
</g>
<g id="a6_0038"  >
<polygon points="740,90 755,90 760,85 755,80 740,80 740,90 " style="fill:white; stroke-width:1; stroke:black; " description="&lt;b&gt;BO72DRAFT_398665&lt;/b&gt;&lt;br&gt;uncharacterized protein&lt;br&gt;Location: 562682 - 560040" locus_tag="BO72DRAFT_398665" class="clusterblast-orf" id="dummy-6_h6_10_38"  />
</g>
<g id="a6_0039"  >
<polygon points="769,90 775,90 780,85 775,80 769,80 769,90 " style="fill:white; stroke-width:1; stroke:black; " description="&lt;b&gt;BO72DRAFT_503173&lt;/b&gt;&lt;br&gt;Malate/L-lactate dehydrogenase&lt;br&gt;Location: 558809 - 557399" locus_tag="BO72DRAFT_503173" class="clusterblast-orf" id="dummy-6_h6_10_39"  />
</g>
</svg>
