<svg xmlns="http://www.w3.org/2000/svg" xmlns:xlink="http://www.w3.org/1999/xlink" version="1.1" x="0" y="0" height="230" width="800" viewBox="0 0 800 230" preserveAspectRatio="none"  >
<g label="Query sequence" class="clusterblast-cluster"  >
<text x="5" y="20" class="clusterblast-acc"  >
Query sequence</text>
<line x1="10" y1="35" x2="778.0" y2="35" style="stroke-width:1; stroke:grey; "  />
<polygon points="0,40 29,40 34,35 29,30 0,30 0,40 " style="fill:#d81515; stroke-width:1; stroke:black; " description="&lt;b&gt;input.path1.gene76&lt;/b&gt;&lt;br&gt;input.path1.gene76&lt;br&gt;Location: 342425 - 344380" locus_tag="input.path1.gene76" class="clusterblast-orf" id="dummy-2_q0_0_all"  />
<polygon points="43,35 48,30 86,30 86,40 48,40 43,35 " style="fill:#3cd815; stroke-width:1; stroke:black; " description="&lt;b&gt;input.path1.gene77&lt;/b&gt;&lt;br&gt;input.path1.gene77&lt;br&gt;Location: 344888 - 347280" locus_tag="input.path1.gene77" class="clusterblast-orf" id="dummy-2_q1_0_all"  />
<polygon points="96,40 110,40 115,35 110,30 96,30 96,40 " style="fill:#1563d8; stroke-width:1; stroke:black; " description="&lt;b&gt;input.path1.gene78&lt;/b&gt;&lt;br&gt;input.path1.gene78&lt;br&gt;Location: 347876 - 348967" locus_tag="input.path1.gene78" class="clusterblast-orf" id="dummy-2_q2_0_all"  />
<polygon points="135,40 185,40 190,35 185,30 135,30 135,40 " style="fill:white; stroke-width:1; stroke:black; " description="&lt;b&gt;input.path1.gene79&lt;/b&gt;&lt;br&gt;input.path1.gene79&lt;br&gt;Location: 350081 - 353183" locus_tag="input.path1.gene79" class="clusterblast-orf" id="dummy-2_q3_0_all"  />
<polygon points="194,35 199,30 213,30 213,40 199,40 194,35 " style="fill:#b115d8; stroke-width:1; stroke:black; " description="&lt;b&gt;input.path1.gene80&lt;/b&gt;&lt;br&gt;input.path1.gene80&lt;br&gt;Location: 353407 - 354478" locus_tag="input.path1.gene80" class="clusterblast-orf" id="dummy-2_q4_0_all"  />
<polygon points="241,40 247,40 252,35 247,30 241,30 241,40 " style="fill:#d88a15; stroke-width:1; stroke:black; " description="&lt;b&gt;input.path1.gene81&lt;/b&gt;&lt;br&gt;input.path1.gene81&lt;br&gt;Location: 356070 - 356718" locus_tag="input.path1.gene81" class="clusterblast-orf" id="dummy-2_q5_0_all"  />
<polygon points="272,35 277,30 284,30 284,40 277,40 272,35 " style="fill:#15d863; stroke-width:1; stroke:black; " description="&lt;b&gt;input.path1.gene82&lt;/b&gt;&lt;br&gt;input.path1.gene82&lt;br&gt;Location: 357818 - 358508" locus_tag="input.path1.gene82" class="clusterblast-orf" id="dummy-2_q6_0_all"  />
<polygon points="297,35 302,30 429,30 429,40 302,40 297,35 " style="fill:#3c15d8; stroke-width:1; stroke:black; " description="&lt;b&gt;input.path1.gene83&lt;/b&gt;&lt;br&gt;input.path1.gene83&lt;br&gt;Location: 359261 - 366696" locus_tag="input.path1.gene83" class="clusterblast-orf" id="dummy-2_q7_0_all"  />
<polygon points="500,40 515,40 520,35 515,30 500,30 500,40 " style="fill:#d8158a; stroke-width:1; stroke:black; " description="&lt;b&gt;input.path1.gene84&lt;/b&gt;&lt;br&gt;input.path1.gene84&lt;br&gt;Location: 370739 - 371856" locus_tag="input.path1.gene84" class="clusterblast-orf" id="dummy-2_q8_0_all"  />
<polygon points="563,35 567,30 567,40 563,35 " style="fill:white; stroke-width:1; stroke:black; " description="&lt;b&gt;input.path1.gene85&lt;/b&gt;&lt;br&gt;input.path1.gene85&lt;br&gt;Location: 374281 - 374510" locus_tag="input.path1.gene85" class="clusterblast-orf" id="dummy-2_q9_0_all"  />
<polygon points="584,40 586,40 591,35 586,30 584,30 584,40 " style="fill:white; stroke-width:1; stroke:black; " description="&lt;b&gt;input.path1.gene86&lt;/b&gt;&lt;br&gt;input.path1.gene86&lt;br&gt;Location: 375442 - 375853" locus_tag="input.path1.gene86" class="clusterblast-orf" id="dummy-2_q10_0_all"  />
<polygon points="592,35 597,30 684,30 684,40 597,40 592,35 " style="fill:#b1d815; stroke-width:1; stroke:black; " description="&lt;b&gt;input.path1.gene87&lt;/b&gt;&lt;br&gt;input.path1.gene87&lt;br&gt;Location: 375931 - 381142" locus_tag="input.path1.gene87" class="clusterblast-orf" id="dummy-2_q11_0_all"  />
<polygon points="748,35 753,30 780,30 780,40 753,40 748,35 " style="fill:#15d8d8; stroke-width:1; stroke:black; " description="&lt;b&gt;input.path1.gene88&lt;/b&gt;&lt;br&gt;input.path1.gene88&lt;br&gt;Location: 384761 - 386536" locus_tag="input.path1.gene88" class="clusterblast-orf" id="dummy-2_q12_0_all"  />
</g>
<g label="NZ_CADEWI010000007" description="NZ_CADEWI010000007 (18512-60348): Burkholderia gladioli strain BCC1649, whole... (5% of genes show similarity), isocyanide" class="clusterblast-cluster"  >
<text x="5" y="70" class="clusterblast-acc"  >
<a xlink:href="https://antismash-db.secondarymetabolites.org/area?record=NZ_CADEWI010000007&amp;start=18512&amp;end=60348" target="_blank">NZ_CADEWI010000007 (18512-60348)</a>: Burkholderia gladioli strain BCC1649, whole... (5% of genes show similarity), isocyanide</text>
<line x1="10" y1="85" x2="778.0" y2="85" style="stroke-width:1; stroke:grey; "  />
</g>
<g id="a2_000"  >
<polygon points="35,85 40,80 51,80 51,90 40,90 35,85 " style="fill:white; stroke-width:1; stroke:black; " description="&lt;b&gt;H9D03_RS21300&lt;/b&gt;&lt;br&gt;ABC transporter substrate-binding protein&lt;br&gt;Location: 60144 - 59194" locus_tag="H9D03_RS21300" class="clusterblast-orf" id="dummy-2_h2_6_0"  />
</g>
<g id="a2_001"  >
<polygon points="59,90 62,85 59,80 59,90 " style="fill:white; stroke-width:1; stroke:black; " description="&lt;b&gt;H9D03_RS21295&lt;/b&gt;&lt;br&gt;DUF3562 domain-containing protein&lt;br&gt;Location: 58776 - 58582" locus_tag="H9D03_RS21295" class="clusterblast-orf" id="dummy-2_h2_6_1"  />
</g>
<g id="a2_002"  >
<polygon points="65,85 70,80 77,80 77,90 70,90 65,85 " style="fill:white; stroke-width:1; stroke:black; " description="&lt;b&gt;H9D03_RS21290&lt;/b&gt;&lt;br&gt;LysE family translocator&lt;br&gt;Location: 58403 - 57765" locus_tag="H9D03_RS21290" class="clusterblast-orf" id="dummy-2_h2_6_2"  />
</g>
<g id="a2_003"  >
<polygon points="78,85 83,80 96,80 96,90 83,90 78,85 " style="fill:white; stroke-width:1; stroke:black; " description="&lt;b&gt;H9D03_RS21285&lt;/b&gt;&lt;br&gt;sensor domain-containing diguanylate cyclase&lt;br&gt;Location: 57671 - 56697" locus_tag="H9D03_RS21285" class="clusterblast-orf" id="dummy-2_h2_6_3"  />
</g>
<g id="a2_004"  >
<polygon points="103,90 106,85 103,80 103,90 " style="fill:white; stroke-width:1; stroke:black; " description="&lt;b&gt;H9D03_RS21280&lt;/b&gt;&lt;br&gt;hypothetical protein&lt;br&gt;Location: 56298 - 56098" locus_tag="H9D03_RS21280" class="clusterblast-orf" id="dummy-2_h2_6_4"  />
</g>
<g id="a2_005"  >
<polygon points="107,90 140,90 145,85 140,80 107,80 107,90 " style="fill:#d81515; stroke-width:1; stroke:black; " description="&lt;b&gt;H9D03_RS21275&lt;/b&gt;&lt;br&gt;phospholipase C, phosphocholine-specific&lt;br&gt;Location: 56059 - 53930&lt;br&gt;&lt;br&gt;&lt;b&gt;BlastP hit with input.path1.gene76&lt;/b&gt;&lt;br&gt;Percentage identity: 35&lt;br&gt;Percentage coverage: 70&lt;br&gt;BLAST bit score: 218&lt;br&gt;E-value: 4.14e-60" locus_tag="H9D03_RS21275" class="clusterblast-orf" id="dummy-2_h2_6_5"  />
</g>
<g id="a2_006"  >
<polygon points="150,90 154,85 150,80 150,90 " style="fill:white; stroke-width:1; stroke:black; " description="&lt;b&gt;H9D03_RS21270&lt;/b&gt;&lt;br&gt;hypothetical protein&lt;br&gt;Location: 53620 - 53402" locus_tag="H9D03_RS21270" class="clusterblast-orf" id="dummy-2_h2_6_6"  />
</g>
<g id="a2_007"  >
<polygon points="156,85 161,80 163,80 163,90 161,90 156,85 " style="fill:white; stroke-width:1; stroke:black; " description="&lt;b&gt;H9D03_RS21265&lt;/b&gt;&lt;br&gt;CBS domain-containing protein&lt;br&gt;Location: 53288 - 52860" locus_tag="H9D03_RS21265" class="clusterblast-orf" id="dummy-2_h2_6_7"  />
</g>
<g id="a2_008"  >
<polygon points="166,90 171,90 176,85 171,80 166,80 166,90 " style="fill:white; stroke-width:1; stroke:black; " description="&lt;b&gt;H9D03_RS21260&lt;/b&gt;&lt;br&gt;hypothetical protein&lt;br&gt;Location: 52707 - 52156" locus_tag="H9D03_RS21260" class="clusterblast-orf" id="dummy-2_h2_6_8"  />
</g>
<g id="a2_009"  >
<polygon points="180,90 185,90 190,85 185,80 180,80 180,90 " style="fill:white; stroke-width:1; stroke:black; " description="&lt;b&gt;H9D03_RS21255&lt;/b&gt;&lt;br&gt;DUF3005 domain-containing protein&lt;br&gt;Location: 51921 - 51367" locus_tag="H9D03_RS21255" class="clusterblast-orf" id="dummy-2_h2_6_9"  />
</g>
<g id="a2_0010"  >
<polygon points="197,90 214,90 219,85 214,80 197,80 197,90 " style="fill:white; stroke-width:1; stroke:black; " description="&lt;b&gt;H9D03_RS21250&lt;/b&gt;&lt;br&gt;YeeE/YedE family protein&lt;br&gt;Location: 50971 - 49745" locus_tag="H9D03_RS21250" class="clusterblast-orf" id="dummy-2_h2_6_10"  />
</g>
<g id="a2_0011"  >
<polygon points="223,90 225,90 230,85 225,80 223,80 223,90 " style="fill:white; stroke-width:1; stroke:black; " description="&lt;b&gt;H9D03_RS21245&lt;/b&gt;&lt;br&gt;hypothetical protein&lt;br&gt;Location: 49518 - 49096" locus_tag="H9D03_RS21245" class="clusterblast-orf" id="dummy-2_h2_6_11"  />
</g>
<g id="a2_0012"  >
<polygon points="230,90 236,90 241,85 236,80 230,80 230,90 " style="fill:white; stroke-width:1; stroke:black; " description="&lt;b&gt;H9D03_RS21240&lt;/b&gt;&lt;br&gt;hypothetical protein&lt;br&gt;Location: 49099 - 48479" locus_tag="H9D03_RS21240" class="clusterblast-orf" id="dummy-2_h2_6_12"  />
</g>
<g id="a2_0013"  >
<polygon points="241,85 246,80 250,80 250,90 246,90 241,85 " style="fill:white; stroke-width:1; stroke:black; " description="&lt;b&gt;H9D03_RS21235&lt;/b&gt;&lt;br&gt;hypothetical protein&lt;br&gt;Location: 48453 - 47965" locus_tag="H9D03_RS21235" class="clusterblast-orf" id="dummy-2_h2_6_13"  />
</g>
<g id="a2_0014"  >
<polygon points="252,90 258,90 263,85 258,80 252,80 252,90 " style="fill:white; stroke-width:1; stroke:black; " description="&lt;b&gt;H9D03_RS21230&lt;/b&gt;&lt;br&gt;hypothetical protein&lt;br&gt;Location: 47862 - 47215" locus_tag="H9D03_RS21230" class="clusterblast-orf" id="dummy-2_h2_6_14"  />
</g>
<g id="a2_0015"  >
<polygon points="265,90 273,90 278,85 273,80 265,80 265,90 " style="fill:white; stroke-width:1; stroke:black; " description="&lt;b&gt;H9D03_RS21225&lt;/b&gt;&lt;br&gt;DNA/RNA non-specific endonuclease&lt;br&gt;Location: 47113 - 46367" locus_tag="H9D03_RS21225" class="clusterblast-orf" id="dummy-2_h2_6_15"  />
</g>
<g id="a2_0016"  >
<polygon points="278,90 278,90 283,85 278,80 278,80 278,90 " style="fill:white; stroke-width:1; stroke:black; " description="&lt;b&gt;H9D03_RS21220&lt;/b&gt;&lt;br&gt;hypothetical protein&lt;br&gt;Location: 46374 - 46105" locus_tag="H9D03_RS21220" class="clusterblast-orf" id="dummy-2_h2_6_16"  />
</g>
<g id="a2_0017"  >
<polygon points="284,85 289,80 303,80 303,90 289,90 284,85 " style="fill:white; stroke-width:1; stroke:black; " description="&lt;b&gt;H9D03_RS21215&lt;/b&gt;&lt;br&gt;LLM class flavin-dependent oxidoreductase&lt;br&gt;Location: 46046 - 44985" locus_tag="H9D03_RS21215" class="clusterblast-orf" id="dummy-2_h2_6_17"  />
</g>
<g id="a2_0018"  >
<polygon points="306,90 318,90 323,85 318,80 306,80 306,90 " style="fill:white; stroke-width:1; stroke:black; " description="&lt;b&gt;H9D03_RS21210&lt;/b&gt;&lt;br&gt;GlxA family transcriptional regulator&lt;br&gt;Location: 44777 - 43833" locus_tag="H9D03_RS21210" class="clusterblast-orf" id="dummy-2_h2_6_18"  />
</g>
<g id="a2_0019"  >
<polygon points="337,90 349,90 354,85 349,80 337,80 337,90 " style="fill:#3c15d8; stroke-width:1; stroke:black; " description="&lt;b&gt;H9D03_RS21205&lt;/b&gt;&lt;br&gt;isocyanide synthase family protein&lt;br&gt;Location: 43065 - 42082&lt;br&gt;&lt;br&gt;&lt;b&gt;BlastP hit with input.path1.gene83&lt;/b&gt;&lt;br&gt;Percentage identity: 32&lt;br&gt;Percentage coverage: 14&lt;br&gt;BLAST bit score: 123&lt;br&gt;E-value: 4.57e-28" locus_tag="H9D03_RS21205" class="clusterblast-orf" id="dummy-2_h2_6_19"  />
</g>
<g id="a2_0020"  >
<polygon points="355,90 371,90 376,85 371,80 355,80 355,90 " style="fill:white; stroke-width:1; stroke:black; " description="&lt;b&gt;H9D03_RS21200&lt;/b&gt;&lt;br&gt;Bcr/CflA family efflux MFS transporter&lt;br&gt;Location: 42053 - 40845" locus_tag="H9D03_RS21200" class="clusterblast-orf" id="dummy-2_h2_6_20"  />
</g>
<g id="a2_0021"  >
<polygon points="376,90 380,90 385,85 380,80 376,80 376,90 " style="fill:white; stroke-width:1; stroke:black; " description="&lt;b&gt;H9D03_RS21195&lt;/b&gt;&lt;br&gt;protein tyrosine phosphatase family protein&lt;br&gt;Location: 40815 - 40345" locus_tag="H9D03_RS21195" class="clusterblast-orf" id="dummy-2_h2_6_21"  />
</g>
<g id="a2_0022"  >
<polygon points="385,90 412,90 417,85 412,80 385,80 385,90 " style="fill:white; stroke-width:1; stroke:black; " description="&lt;b&gt;H9D03_RS21190&lt;/b&gt;&lt;br&gt;L-tyrosine/L-tryptophan isonitrile synthase family protein&lt;br&gt;Location: 40348 - 38513" locus_tag="H9D03_RS21190" class="clusterblast-orf" id="dummy-2_h2_6_22"  />
</g>
<g id="a2_0023"  >
<polygon points="418,90 435,90 440,85 435,80 418,80 418,90 " style="fill:white; stroke-width:1; stroke:black; " description="&lt;b&gt;H9D03_RS21185&lt;/b&gt;&lt;br&gt;glycosyl transferase family 1&lt;br&gt;Location: 38487 - 37198" locus_tag="H9D03_RS21185" class="clusterblast-orf" id="dummy-2_h2_6_23"  />
</g>
<g id="a2_0024"  >
<polygon points="442,90 481,90 486,85 481,80 442,80 442,90 " style="fill:white; stroke-width:1; stroke:black; " description="&lt;b&gt;H9D03_RS21180&lt;/b&gt;&lt;br&gt;hypothetical protein&lt;br&gt;Location: 37091 - 34644" locus_tag="H9D03_RS21180" class="clusterblast-orf" id="dummy-2_h2_6_24"  />
</g>
<g id="a2_0025"  >
<polygon points="486,90 493,90 498,85 493,80 486,80 486,90 " style="fill:white; stroke-width:1; stroke:black; " description="&lt;b&gt;H9D03_RS21175&lt;/b&gt;&lt;br&gt;class I SAM-dependent methyltransferase&lt;br&gt;Location: 34633 - 33953" locus_tag="H9D03_RS21175" class="clusterblast-orf" id="dummy-2_h2_6_25"  />
</g>
<g id="a2_0026"  >
<polygon points="498,90 518,90 523,85 518,80 498,80 498,90 " style="fill:white; stroke-width:1; stroke:black; " description="&lt;b&gt;H9D03_RS21170&lt;/b&gt;&lt;br&gt;UbiA family prenyltransferase&lt;br&gt;Location: 33935 - 32517" locus_tag="H9D03_RS21170" class="clusterblast-orf" id="dummy-2_h2_6_26"  />
</g>
<g id="a2_0027"  >
<polygon points="523,90 543,90 548,85 543,80 523,80 523,90 " style="fill:white; stroke-width:1; stroke:black; " description="&lt;b&gt;H9D03_RS21165&lt;/b&gt;&lt;br&gt;FAD-binding oxidoreductase&lt;br&gt;Location: 32520 - 31138" locus_tag="H9D03_RS21165" class="clusterblast-orf" id="dummy-2_h2_6_27"  />
</g>
<g id="a2_0028"  >
<polygon points="548,90 556,90 561,85 556,80 548,80 548,90 " style="fill:white; stroke-width:1; stroke:black; " description="&lt;b&gt;H9D03_RS21160&lt;/b&gt;&lt;br&gt;SDR family oxidoreductase&lt;br&gt;Location: 31141 - 30401" locus_tag="H9D03_RS21160" class="clusterblast-orf" id="dummy-2_h2_6_28"  />
</g>
<g id="a2_0029"  >
<polygon points="561,90 572,90 577,85 572,80 561,80 561,90 " style="fill:white; stroke-width:1; stroke:black; " description="&lt;b&gt;H9D03_RS21155&lt;/b&gt;&lt;br&gt;NAD-dependent epimerase/dehydratase family protein&lt;br&gt;Location: 30404 - 29469" locus_tag="H9D03_RS21155" class="clusterblast-orf" id="dummy-2_h2_6_29"  />
</g>
<g id="a2_0030"  >
<polygon points="577,90 595,90 600,85 595,80 577,80 577,90 " style="fill:white; stroke-width:1; stroke:black; " description="&lt;b&gt;H9D03_RS21150&lt;/b&gt;&lt;br&gt;NAD(P)/FAD-dependent oxidoreductase&lt;br&gt;Location: 29458 - 28163" locus_tag="H9D03_RS21150" class="clusterblast-orf" id="dummy-2_h2_6_30"  />
</g>
<g id="a2_0031"  >
<polygon points="600,90 603,90 608,85 603,80 600,80 600,90 " style="fill:white; stroke-width:1; stroke:black; " description="&lt;b&gt;H9D03_RS21145&lt;/b&gt;&lt;br&gt;GtrA family protein&lt;br&gt;Location: 28166 - 27708" locus_tag="H9D03_RS21145" class="clusterblast-orf" id="dummy-2_h2_6_31"  />
</g>
<g id="a2_0032"  >
<polygon points="609,85 614,80 614,80 614,90 614,90 609,85 " style="fill:white; stroke-width:1; stroke:black; " description="&lt;b&gt;H9D03_RS21140&lt;/b&gt;&lt;br&gt;hypothetical protein&lt;br&gt;Location: 27683 - 27366" locus_tag="H9D03_RS21140" class="clusterblast-orf" id="dummy-2_h2_6_32"  />
</g>
<g id="a2_0033"  >
<polygon points="614,85 619,80 639,80 639,90 619,90 614,85 " style="fill:white; stroke-width:1; stroke:black; " description="&lt;b&gt;H9D03_RS21135&lt;/b&gt;&lt;br&gt;DUF1446 domain-containing protein&lt;br&gt;Location: 27379 - 25967" locus_tag="H9D03_RS21135" class="clusterblast-orf" id="dummy-2_h2_6_33"  />
</g>
<g id="a2_0034"  >
<polygon points="640,85 645,80 663,80 663,90 645,90 640,85 " style="fill:white; stroke-width:1; stroke:black; " description="&lt;b&gt;H9D03_RS21130&lt;/b&gt;&lt;br&gt;citrate:proton symporter&lt;br&gt;Location: 25893 - 24586" locus_tag="H9D03_RS21130" class="clusterblast-orf" id="dummy-2_h2_6_34"  />
</g>
<g id="a2_0035"  >
<polygon points="665,90 676,90 681,85 676,80 665,80 665,90 " style="fill:white; stroke-width:1; stroke:black; " description="&lt;b&gt;H9D03_RS21125&lt;/b&gt;&lt;br&gt;LysR family transcriptional regulator&lt;br&gt;Location: 24486 - 23596" locus_tag="H9D03_RS21125" class="clusterblast-orf" id="dummy-2_h2_6_35"  />
</g>
<g id="a2_0036"  >
<polygon points="687,90 697,90 702,85 697,80 687,80 687,90 " style="fill:white; stroke-width:1; stroke:black; " description="&lt;b&gt;H9D03_RS21120&lt;/b&gt;&lt;br&gt;transporter substrate-binding domain-containing protein&lt;br&gt;Location: 23280 - 22432" locus_tag="H9D03_RS21120" class="clusterblast-orf" id="dummy-2_h2_6_36"  />
</g>
<g id="a2_0037"  >
<polygon points="704,90 711,90 716,85 711,80 704,80 704,90 " style="fill:white; stroke-width:1; stroke:black; " description="&lt;b&gt;H9D03_RS21115&lt;/b&gt;&lt;br&gt;ABC transporter permease subunit&lt;br&gt;Location: 22318 - 21593" locus_tag="H9D03_RS21115" class="clusterblast-orf" id="dummy-2_h2_6_37"  />
</g>
<g id="a2_0038"  >
<polygon points="717,90 725,90 730,85 725,80 717,80 717,90 " style="fill:white; stroke-width:1; stroke:black; " description="&lt;b&gt;H9D03_RS21110&lt;/b&gt;&lt;br&gt;ABC transporter permease subunit&lt;br&gt;Location: 21574 - 20828" locus_tag="H9D03_RS21110" class="clusterblast-orf" id="dummy-2_h2_6_38"  />
</g>
<g id="a2_0039"  >
<polygon points="730,90 739,90 744,85 739,80 730,80 730,90 " style="fill:white; stroke-width:1; stroke:black; " description="&lt;b&gt;H9D03_RS21105&lt;/b&gt;&lt;br&gt;ATP-binding cassette domain-containing protein&lt;br&gt;Location: 20801 - 20010" locus_tag="H9D03_RS21105" class="clusterblast-orf" id="dummy-2_h2_6_39"  />
</g>
</svg>
