<svg xmlns="http://www.w3.org/2000/svg" xmlns:xlink="http://www.w3.org/1999/xlink" version="1.1" x="0" y="0" height="230" width="800" viewBox="0 0 800 230" preserveAspectRatio="none"  >
<g label="Query sequence" class="clusterblast-cluster"  >
<text x="5" y="20" class="clusterblast-acc"  >
Query sequence</text>
<line x1="10" y1="35" x2="778.0" y2="35" style="stroke-width:1; stroke:grey; "  />
<polygon points="105,35 107,30 107,40 105,35 " style="fill:white; stroke-width:1; stroke:black; " description="&lt;b&gt;input.path1.gene372&lt;/b&gt;&lt;br&gt;input.path1.gene372&lt;br&gt;Location: 1303662 - 1303782" locus_tag="input.path1.gene372" class="clusterblast-orf" id="dummy-1_q0_0_all"  />
<polygon points="114,35 119,30 145,30 145,40 119,40 114,35 " style="fill:#d81515; stroke-width:1; stroke:black; " description="&lt;b&gt;input.path1.gene373&lt;/b&gt;&lt;br&gt;input.path1.gene373&lt;br&gt;Location: 1304321 - 1306600" locus_tag="input.path1.gene373" class="clusterblast-orf" id="dummy-1_q1_0_all"  />
<polygon points="161,40 174,40 179,35 174,30 161,30 161,40 " style="fill:#15d815; stroke-width:1; stroke:black; " description="&lt;b&gt;input.path1.gene374&lt;/b&gt;&lt;br&gt;input.path1.gene374&lt;br&gt;Location: 1307807 - 1309073" locus_tag="input.path1.gene374" class="clusterblast-orf" id="dummy-1_q2_0_all"  />
<polygon points="196,40 216,40 221,35 216,30 196,30 196,40 " style="fill:#1597d8; stroke-width:1; stroke:black; " description="&lt;b&gt;input.path1.gene375&lt;/b&gt;&lt;br&gt;input.path1.gene375&lt;br&gt;Location: 1310335 - 1312234" locus_tag="input.path1.gene375" class="clusterblast-orf" id="dummy-1_q3_0_all"  />
<polygon points="246,35 251,30 251,30 251,40 251,40 246,35 " style="fill:#9715d8; stroke-width:1; stroke:black; " description="&lt;b&gt;input.path1.gene376&lt;/b&gt;&lt;br&gt;input.path1.gene376&lt;br&gt;Location: 1314020 - 1314400" locus_tag="input.path1.gene376" class="clusterblast-orf" id="dummy-1_q4_0_all"  />
<polygon points="312,40 410,40 415,35 410,30 312,30 312,40 " style="fill:#d89715; stroke-width:1; stroke:black; " description="&lt;b&gt;input.path1.gene377&lt;/b&gt;&lt;br&gt;input.path1.gene377&lt;br&gt;Location: 1318901 - 1326541" locus_tag="input.path1.gene377" class="clusterblast-orf" id="dummy-1_q5_0_all"  />
<polygon points="426,35 431,30 447,30 447,40 431,40 426,35 " style="fill:#15d897; stroke-width:1; stroke:black; " description="&lt;b&gt;input.path1.gene378&lt;/b&gt;&lt;br&gt;input.path1.gene378&lt;br&gt;Location: 1327354 - 1328864" locus_tag="input.path1.gene378" class="clusterblast-orf" id="dummy-1_q6_0_all"  />
<polygon points="496,35 501,30 513,30 513,40 501,40 496,35 " style="fill:#1515d8; stroke-width:1; stroke:black; " description="&lt;b&gt;input.path1.gene379&lt;/b&gt;&lt;br&gt;input.path1.gene379&lt;br&gt;Location: 1332492 - 1333785" locus_tag="input.path1.gene379" class="clusterblast-orf" id="dummy-1_q7_0_all"  />
<polygon points="561,35 566,30 578,30 578,40 566,40 561,35 " style="fill:white; stroke-width:1; stroke:black; " description="&lt;b&gt;input.path1.gene380&lt;/b&gt;&lt;br&gt;input.path1.gene380&lt;br&gt;Location: 1337317 - 1338545" locus_tag="input.path1.gene380" class="clusterblast-orf" id="dummy-1_q8_0_all"  />
<polygon points="594,40 617,40 622,35 617,30 594,30 594,40 " style="fill:#d81597; stroke-width:1; stroke:black; " description="&lt;b&gt;input.path1.gene381&lt;/b&gt;&lt;br&gt;input.path1.gene381&lt;br&gt;Location: 1339695 - 1341806" locus_tag="input.path1.gene381" class="clusterblast-orf" id="dummy-1_q9_0_all"  />
<polygon points="624,35 629,30 674,30 674,40 629,40 624,35 " style="fill:#97d815; stroke-width:1; stroke:black; " description="&lt;b&gt;input.path1.gene382&lt;/b&gt;&lt;br&gt;input.path1.gene382&lt;br&gt;Location: 1341942 - 1345635" locus_tag="input.path1.gene382" class="clusterblast-orf" id="dummy-1_q10_0_all"  />
</g>
<g label="NW_006711164" description="NW_006711164 (601534-669174): Trichoderma reesei QM6a unplaced genomic scaffo... (71% of genes show similarity), T1PKS" class="clusterblast-cluster"  >
<text x="5" y="70" class="clusterblast-acc"  >
<a xlink:href="https://antismash-db.secondarymetabolites.org/area?record=NW_006711164&amp;start=601534&amp;end=669174" target="_blank">NW_006711164 (601534-669174)</a>: Trichoderma reesei QM6a unplaced genomic scaffo... (71% of genes show similarity), T1PKS</text>
<line x1="10" y1="85" x2="778.0" y2="85" style="stroke-width:1; stroke:grey; "  />
</g>
<g id="a1_000"  >
<polygon points="0,90 89,90 94,85 89,80 0,80 0,90 " style="fill:white; stroke-width:1; stroke:black; " description="&lt;b&gt;TRIREDRAFT_34611&lt;/b&gt;&lt;br&gt;Hypothetical protein&lt;br&gt;Location: 608761 - 615711" locus_tag="TRIREDRAFT_34611" class="clusterblast-orf" id="dummy-1_h1_1_0"  />
</g>
<g id="a1_001"  >
<polygon points="111,85 116,80 141,80 141,90 116,90 111,85 " style="fill:#d81515; stroke-width:1; stroke:black; " description="&lt;b&gt;TRIREDRAFT_80243&lt;/b&gt;&lt;br&gt;uncharacterized protein&lt;br&gt;Location: 616955 - 619233&lt;br&gt;&lt;br&gt;&lt;b&gt;BlastP hit with input.path1.gene373&lt;/b&gt;&lt;br&gt;Percentage identity: 100&lt;br&gt;Percentage coverage: 100&lt;br&gt;BLAST bit score: 1253&lt;br&gt;E-value: 0.0" locus_tag="TRIREDRAFT_80243" class="clusterblast-orf" id="dummy-1_h1_1_1"  />
</g>
<g id="a1_002"  >
<polygon points="158,90 169,90 174,85 169,80 158,80 158,90 " style="fill:#15d815; stroke-width:1; stroke:black; " description="&lt;b&gt;TRIREDRAFT_80245&lt;/b&gt;&lt;br&gt;uncharacterized protein&lt;br&gt;Location: 620441 - 621639&lt;br&gt;&lt;br&gt;&lt;b&gt;BlastP hit with input.path1.gene374&lt;/b&gt;&lt;br&gt;Percentage identity: 93&lt;br&gt;Percentage coverage: 106&lt;br&gt;BLAST bit score: 527&lt;br&gt;E-value: 1.65e-189" locus_tag="TRIREDRAFT_80245" class="clusterblast-orf" id="dummy-1_h1_1_2"  />
</g>
<g id="a1_003"  >
<polygon points="192,90 195,90 200,85 195,80 192,80 192,90 " style="fill:#1597d8; stroke-width:1; stroke:black; " description="&lt;b&gt;TRIREDRAFT_65992&lt;/b&gt;&lt;br&gt;uncharacterized protein&lt;br&gt;Location: 622969 - 623522&lt;br&gt;&lt;br&gt;&lt;b&gt;BlastP hit with input.path1.gene375&lt;/b&gt;&lt;br&gt;Percentage identity: 100&lt;br&gt;Percentage coverage: 36&lt;br&gt;BLAST bit score: 219&lt;br&gt;E-value: 1.37e-70" locus_tag="TRIREDRAFT_65992" class="clusterblast-orf" id="dummy-1_h1_1_3"  />
</g>
<g id="a1_004"  >
<polygon points="209,90 213,90 218,85 213,80 209,80 209,90 " style="fill:#1597d8; stroke-width:1; stroke:black; " description="&lt;b&gt;TRIREDRAFT_65739&lt;/b&gt;&lt;br&gt;uncharacterized protein&lt;br&gt;Location: 624244 - 624867&lt;br&gt;&lt;br&gt;&lt;b&gt;BlastP hit with input.path1.gene375&lt;/b&gt;&lt;br&gt;Percentage identity: 100&lt;br&gt;Percentage coverage: 56&lt;br&gt;BLAST bit score: 342&lt;br&gt;E-value: 1.3e-117" locus_tag="TRIREDRAFT_65739" class="clusterblast-orf" id="dummy-1_h1_1_4"  />
</g>
<g id="a1_005"  >
<polygon points="225,85 230,80 253,80 253,90 230,90 225,85 " style="fill:#9715d8; stroke-width:1; stroke:black; " description="&lt;b&gt;TRIREDRAFT_65744&lt;/b&gt;&lt;br&gt;uncharacterized protein&lt;br&gt;Location: 625422 - 627465&lt;br&gt;&lt;br&gt;&lt;b&gt;BlastP hit with input.path1.gene376&lt;/b&gt;&lt;br&gt;Percentage identity: 99&lt;br&gt;Percentage coverage: 100&lt;br&gt;BLAST bit score: 207&lt;br&gt;E-value: 1.26e-63" locus_tag="TRIREDRAFT_65744" class="clusterblast-orf" id="dummy-1_h1_1_5"  />
</g>
<g id="a1_006"  >
<polygon points="308,90 407,90 412,85 407,80 308,80 308,90 " style="fill:#d89715; stroke-width:1; stroke:black; " description="&lt;b&gt;TRIREDRAFT_65891&lt;/b&gt;&lt;br&gt;polyketide synthase&lt;br&gt;Location: 631535 - 639174&lt;br&gt;&lt;br&gt;&lt;b&gt;BlastP hit with input.path1.gene377&lt;/b&gt;&lt;br&gt;Percentage identity: 98&lt;br&gt;Percentage coverage: 102&lt;br&gt;BLAST bit score: 4563&lt;br&gt;E-value: 0.0" locus_tag="TRIREDRAFT_65891" class="clusterblast-orf" id="dummy-1_h1_1_6"  />
</g>
<g id="a1_007"  >
<polygon points="423,85 428,80 444,80 444,90 428,90 423,85 " style="fill:#15d897; stroke-width:1; stroke:black; " description="&lt;b&gt;TRIREDRAFT_65711&lt;/b&gt;&lt;br&gt;uncharacterized protein&lt;br&gt;Location: 639988 - 641581&lt;br&gt;&lt;br&gt;&lt;b&gt;BlastP hit with input.path1.gene378&lt;/b&gt;&lt;br&gt;Percentage identity: 96&lt;br&gt;Percentage coverage: 105&lt;br&gt;BLAST bit score: 796&lt;br&gt;E-value: 7.27e-292" locus_tag="TRIREDRAFT_65711" class="clusterblast-orf" id="dummy-1_h1_1_7"  />
</g>
<g id="a1_008"  >
<polygon points="492,85 497,80 510,80 510,90 497,90 492,85 " style="fill:#1515d8; stroke-width:1; stroke:black; " description="&lt;b&gt;TRIREDRAFT_65965&lt;/b&gt;&lt;br&gt;uncharacterized protein&lt;br&gt;Location: 645126 - 646418&lt;br&gt;&lt;br&gt;&lt;b&gt;BlastP hit with input.path1.gene379&lt;/b&gt;&lt;br&gt;Percentage identity: 100&lt;br&gt;Percentage coverage: 100&lt;br&gt;BLAST bit score: 753&lt;br&gt;E-value: 2.59e-276" locus_tag="TRIREDRAFT_65965" class="clusterblast-orf" id="dummy-1_h1_1_8"  />
</g>
<g id="a1_009"  >
<polygon points="545,90 557,90 562,85 557,80 545,80 545,90 " style="fill:white; stroke-width:1; stroke:black; " description="&lt;b&gt;TRIREDRAFT_80252&lt;/b&gt;&lt;br&gt;uncharacterized protein&lt;br&gt;Location: 649002 - 650274" locus_tag="TRIREDRAFT_80252" class="clusterblast-orf" id="dummy-1_h1_1_9"  />
</g>
<g id="a1_0010"  >
<polygon points="596,90 610,90 615,85 610,80 596,80 596,90 " style="fill:#d81597; stroke-width:1; stroke:black; " description="&lt;b&gt;TRIREDRAFT_65945&lt;/b&gt;&lt;br&gt;uncharacterized protein&lt;br&gt;Location: 652737 - 654175&lt;br&gt;&lt;br&gt;&lt;b&gt;BlastP hit with input.path1.gene381&lt;/b&gt;&lt;br&gt;Percentage identity: 100&lt;br&gt;Percentage coverage: 75&lt;br&gt;BLAST bit score: 850&lt;br&gt;E-value: 3.04e-310" locus_tag="TRIREDRAFT_65945" class="clusterblast-orf" id="dummy-1_h1_1_10"  />
</g>
<g id="a1_0011"  >
<polygon points="621,85 626,80 667,80 667,90 626,90 621,85 " style="fill:#97d815; stroke-width:1; stroke:black; " description="&lt;b&gt;TRIREDRAFT_50491&lt;/b&gt;&lt;br&gt;uncharacterized protein&lt;br&gt;Location: 654600 - 657971&lt;br&gt;&lt;br&gt;&lt;b&gt;BlastP hit with input.path1.gene382&lt;/b&gt;&lt;br&gt;Percentage identity: 100&lt;br&gt;Percentage coverage: 96&lt;br&gt;BLAST bit score: 1859&lt;br&gt;E-value: 0.0" locus_tag="TRIREDRAFT_50491" class="clusterblast-orf" id="dummy-1_h1_1_11"  />
</g>
<g id="a1_0012"  >
<polygon points="732,90 737,90 742,85 737,80 732,80 732,90 " style="fill:white; stroke-width:1; stroke:black; " description="&lt;b&gt;TRIREDRAFT_123056&lt;/b&gt;&lt;br&gt;woronin body major protein&lt;br&gt;Location: 662775 - 663558" locus_tag="TRIREDRAFT_123056" class="clusterblast-orf" id="dummy-1_h1_1_12"  />
</g>
<g id="a1_0013"  >
<polygon points="760,90 775,90 780,85 775,80 760,80 760,90 " style="fill:white; stroke-width:1; stroke:black; " description="&lt;b&gt;TRIREDRAFT_65735&lt;/b&gt;&lt;br&gt;peptidase C1B-like protein&lt;br&gt;Location: 664872 - 666302" locus_tag="TRIREDRAFT_65735" class="clusterblast-orf" id="dummy-1_h1_1_13"  />
</g>
</svg>
