<svg xmlns="http://www.w3.org/2000/svg" xmlns:xlink="http://www.w3.org/1999/xlink" version="1.1" x="0" y="0" height="230" width="800" viewBox="0 0 800 230" preserveAspectRatio="none"  >
<g label="Query sequence" class="clusterblast-cluster"  >
<text x="5" y="20" class="clusterblast-acc"  >
Query sequence</text>
<line x1="10" y1="35" x2="778.0" y2="35" style="stroke-width:1; stroke:grey; "  />
<polygon points="117,35 122,30 129,30 129,40 122,40 117,35 " style="fill:#d81515; stroke-width:1; stroke:black; " description="&lt;b&gt;input.path1.gene18&lt;/b&gt;&lt;br&gt;input.path1.gene18&lt;br&gt;Location: 58899 - 59813" locus_tag="input.path1.gene18" class="clusterblast-orf" id="dummy-2_q0_0_all"  />
<polygon points="142,35 147,30 170,30 170,40 147,40 142,35 " style="fill:#77d815; stroke-width:1; stroke:black; " description="&lt;b&gt;input.path1.gene19&lt;/b&gt;&lt;br&gt;input.path1.gene19&lt;br&gt;Location: 60882 - 62973" locus_tag="input.path1.gene19" class="clusterblast-orf" id="dummy-2_q1_0_all"  />
<polygon points="217,40 244,40 249,35 244,30 217,30 217,40 " style="fill:#15d8d8; stroke-width:1; stroke:black; " description="&lt;b&gt;input.path1.gene20&lt;/b&gt;&lt;br&gt;input.path1.gene20&lt;br&gt;Location: 66584 - 69065" locus_tag="input.path1.gene20" class="clusterblast-orf" id="dummy-2_q2_0_all"  />
<polygon points="252,35 257,30 262,30 262,40 257,40 252,35 " style="fill:#7715d8; stroke-width:1; stroke:black; " description="&lt;b&gt;input.path1.gene21&lt;/b&gt;&lt;br&gt;input.path1.gene21&lt;br&gt;Location: 69254 - 70073" locus_tag="input.path1.gene21" class="clusterblast-orf" id="dummy-2_q3_0_all"  />
<polygon points="284,40 309,40 314,35 309,30 284,30 284,40 " style="fill:#d87715; stroke-width:1; stroke:black; " description="&lt;b&gt;input.path1.gene22&lt;/b&gt;&lt;br&gt;input.path1.gene22&lt;br&gt;Location: 71701 - 74071" locus_tag="input.path1.gene22" class="clusterblast-orf" id="dummy-2_q4_0_all"  />
<polygon points="322,35 327,30 350,30 350,40 327,40 322,35 " style="fill:#15d815; stroke-width:1; stroke:black; " description="&lt;b&gt;input.path1.gene23&lt;/b&gt;&lt;br&gt;input.path1.gene23&lt;br&gt;Location: 74613 - 76757" locus_tag="input.path1.gene23" class="clusterblast-orf" id="dummy-2_q5_0_all"  />
<polygon points="357,40 418,40 423,35 418,30 357,30 357,40 " style="fill:#1577d8; stroke-width:1; stroke:black; " description="&lt;b&gt;input.path1.gene24&lt;/b&gt;&lt;br&gt;input.path1.gene24&lt;br&gt;Location: 77311 - 82364" locus_tag="input.path1.gene24" class="clusterblast-orf" id="dummy-2_q6_0_all"  />
<polygon points="440,40 454,40 459,35 454,30 440,30 440,40 " style="fill:#d815d8; stroke-width:1; stroke:black; " description="&lt;b&gt;input.path1.gene25&lt;/b&gt;&lt;br&gt;input.path1.gene25&lt;br&gt;Location: 83703 - 85121" locus_tag="input.path1.gene25" class="clusterblast-orf" id="dummy-2_q7_0_all"  />
<polygon points="459,35 464,30 494,30 494,40 464,40 459,35 " style="fill:#d8d815; stroke-width:1; stroke:black; " description="&lt;b&gt;input.path1.gene26&lt;/b&gt;&lt;br&gt;input.path1.gene26&lt;br&gt;Location: 85180 - 87853" locus_tag="input.path1.gene26" class="clusterblast-orf" id="dummy-2_q8_0_all"  />
<polygon points="503,35 508,30 585,30 585,40 508,40 503,35 " style="fill:#15d877; stroke-width:1; stroke:black; " description="&lt;b&gt;input.path1.gene27&lt;/b&gt;&lt;br&gt;input.path1.gene27&lt;br&gt;Location: 88495 - 94816" locus_tag="input.path1.gene27" class="clusterblast-orf" id="dummy-2_q9_0_all"  />
<polygon points="595,35 600,30 600,30 600,40 600,40 595,35 " style="fill:white; stroke-width:1; stroke:black; " description="&lt;b&gt;input.path1.gene28&lt;/b&gt;&lt;br&gt;input.path1.gene28&lt;br&gt;Location: 95571 - 95987" locus_tag="input.path1.gene28" class="clusterblast-orf" id="dummy-2_q10_0_all"  />
<polygon points="608,35 613,30 621,30 621,40 613,40 608,35 " style="fill:#1515d8; stroke-width:1; stroke:black; " description="&lt;b&gt;input.path1.gene29&lt;/b&gt;&lt;br&gt;input.path1.gene29&lt;br&gt;Location: 96583 - 97597" locus_tag="input.path1.gene29" class="clusterblast-orf" id="dummy-2_q11_0_all"  />
<polygon points="647,40 658,40 663,35 658,30 647,30 647,40 " style="fill:#d81577; stroke-width:1; stroke:black; " description="&lt;b&gt;input.path1.gene30&lt;/b&gt;&lt;br&gt;input.path1.gene30&lt;br&gt;Location: 99541 - 100763" locus_tag="input.path1.gene30" class="clusterblast-orf" id="dummy-2_q12_0_all"  />
</g>
<g label="NW_014574715" description="NW_014574715 (467040-529181): Metarhizium brunneum ARSEF 3297 chromosome Unkn... (44% of genes show similarity), isocyanide" class="clusterblast-cluster"  >
<text x="5" y="70" class="clusterblast-acc"  >
<a xlink:href="https://antismash-db.secondarymetabolites.org/area?record=NW_014574715&amp;start=467040&amp;end=529181" target="_blank">NW_014574715 (467040-529181)</a>: Metarhizium brunneum ARSEF 3297 chromosome Unkn... (44% of genes show similarity), isocyanide</text>
<line x1="10" y1="85" x2="778.0" y2="85" style="stroke-width:1; stroke:grey; "  />
</g>
<g id="a2_000"  >
<polygon points="0,85 5,80 16,80 16,90 5,90 0,85 " style="fill:white; stroke-width:1; stroke:black; " description="&lt;b&gt;MBR_02250&lt;/b&gt;&lt;br&gt;NAD(P)-binding domain protein&lt;br&gt;Location: 527689 - 526415" locus_tag="MBR_02250" class="clusterblast-orf" id="dummy-2_h2_2_0"  />
</g>
<g id="a2_001"  >
<polygon points="30,90 57,90 62,85 57,80 30,80 30,90 " style="fill:white; stroke-width:1; stroke:black; " description="&lt;b&gt;MBR_02249&lt;/b&gt;&lt;br&gt;Glycoside hydrolase, family 31&lt;br&gt;Location: 525358 - 522893" locus_tag="MBR_02249" class="clusterblast-orf" id="dummy-2_h2_2_1"  />
</g>
<g id="a2_002"  >
<polygon points="72,90 90,90 95,85 90,80 72,80 72,90 " style="fill:#77d815; stroke-width:1; stroke:black; " description="&lt;b&gt;MBR_02248&lt;/b&gt;&lt;br&gt;extracelular serine carboxypeptidase&lt;br&gt;Location: 522109 - 520367&lt;br&gt;&lt;br&gt;&lt;b&gt;BlastP hit with input.path1.gene19&lt;/b&gt;&lt;br&gt;Percentage identity: 56&lt;br&gt;Percentage coverage: 84&lt;br&gt;BLAST bit score: 560&lt;br&gt;E-value: 1.33e-193" locus_tag="MBR_02248" class="clusterblast-orf" id="dummy-2_h2_2_2"  />
</g>
<g id="a2_003"  >
<polygon points="132,90 141,90 146,85 141,80 132,80 132,90 " style="fill:white; stroke-width:1; stroke:black; " description="&lt;b&gt;MBR_02247&lt;/b&gt;&lt;br&gt;GPI anchored cell wall protein&lt;br&gt;Location: 517506 - 516482" locus_tag="MBR_02247" class="clusterblast-orf" id="dummy-2_h2_2_3"  />
</g>
<g id="a2_004"  >
<polygon points="168,90 176,90 181,85 176,80 168,80 168,90 " style="fill:white; stroke-width:1; stroke:black; " description="&lt;b&gt;MBR_02246&lt;/b&gt;&lt;br&gt;hypothetical protein&lt;br&gt;Location: 514785 - 513763" locus_tag="MBR_02246" class="clusterblast-orf" id="dummy-2_h2_2_4"  />
</g>
<g id="a2_005"  >
<polygon points="192,90 215,90 220,85 215,80 192,80 192,90 " style="fill:white; stroke-width:1; stroke:black; " description="&lt;b&gt;MBR_02245&lt;/b&gt;&lt;br&gt;Heterokaryon incompatibility&lt;br&gt;Location: 512965 - 510782" locus_tag="MBR_02245" class="clusterblast-orf" id="dummy-2_h2_2_5"  />
</g>
<g id="a2_006"  >
<polygon points="233,90 240,90 245,85 240,80 233,80 233,90 " style="fill:white; stroke-width:1; stroke:black; " description="&lt;b&gt;MBR_02244&lt;/b&gt;&lt;br&gt;hypothetical protein&lt;br&gt;Location: 509788 - 508853" locus_tag="MBR_02244" class="clusterblast-orf" id="dummy-2_h2_2_6"  />
</g>
<g id="a2_007"  >
<polygon points="257,90 260,90 265,85 260,80 257,80 257,90 " style="fill:#d87715; stroke-width:1; stroke:black; " description="&lt;b&gt;MBR_02243&lt;/b&gt;&lt;br&gt;hypothetical protein&lt;br&gt;Location: 507934 - 507320&lt;br&gt;&lt;br&gt;&lt;b&gt;BlastP hit with input.path1.gene22&lt;/b&gt;&lt;br&gt;Percentage identity: 39&lt;br&gt;Percentage coverage: 53&lt;br&gt;BLAST bit score: 112&lt;br&gt;E-value: 2.96e-27" locus_tag="MBR_02243" class="clusterblast-orf" id="dummy-2_h2_2_7"  />
</g>
<g id="a2_008"  >
<polygon points="319,85 324,80 344,80 344,90 324,90 319,85 " style="fill:#15d815; stroke-width:1; stroke:black; " description="&lt;b&gt;MBR_02242&lt;/b&gt;&lt;br&gt;FAD binding domain containing protein&lt;br&gt;Location: 503186 - 501284&lt;br&gt;&lt;br&gt;&lt;b&gt;BlastP hit with input.path1.gene23&lt;/b&gt;&lt;br&gt;Percentage identity: 67&lt;br&gt;Percentage coverage: 99&lt;br&gt;BLAST bit score: 684&lt;br&gt;E-value: 1.47e-244" locus_tag="MBR_02242" class="clusterblast-orf" id="dummy-2_h2_2_8"  />
</g>
<g id="a2_009"  >
<polygon points="371,90 394,90 399,85 394,80 371,80 371,90 " style="fill:#1577d8; stroke-width:1; stroke:black; " description="&lt;b&gt;MBR_02241&lt;/b&gt;&lt;br&gt;Pyoverdine biosynthesis&lt;br&gt;Location: 499181 - 497041&lt;br&gt;&lt;br&gt;&lt;b&gt;BlastP hit with input.path1.gene24&lt;/b&gt;&lt;br&gt;Percentage identity: 53&lt;br&gt;Percentage coverage: 66&lt;br&gt;BLAST bit score: 612&lt;br&gt;E-value: 3.18e-208" locus_tag="MBR_02241" class="clusterblast-orf" id="dummy-2_h2_2_9"  />
</g>
<g id="a2_0010"  >
<polygon points="414,90 433,90 438,85 433,80 414,80 414,90 " style="fill:white; stroke-width:1; stroke:black; " description="&lt;b&gt;MBR_02240&lt;/b&gt;&lt;br&gt;hypothetical protein&lt;br&gt;Location: 495939 - 494069" locus_tag="MBR_02240" class="clusterblast-orf" id="dummy-2_h2_2_10"  />
</g>
<g id="a2_0011"  >
<polygon points="440,85 445,80 472,80 472,90 445,90 440,85 " style="fill:#d8d815; stroke-width:1; stroke:black; " description="&lt;b&gt;MBR_02239&lt;/b&gt;&lt;br&gt;DNA/RNA helicase, DEAD/DEAH box type&lt;br&gt;Location: 493893 - 491452&lt;br&gt;&lt;br&gt;&lt;b&gt;BlastP hit with input.path1.gene26&lt;/b&gt;&lt;br&gt;Percentage identity: 63&lt;br&gt;Percentage coverage: 103&lt;br&gt;BLAST bit score: 912&lt;br&gt;E-value: 0.0" locus_tag="MBR_02239" class="clusterblast-orf" id="dummy-2_h2_2_11"  />
</g>
<g id="a2_0012"  >
<polygon points="480,85 485,80 561,80 561,90 485,90 480,85 " style="fill:#15d877; stroke-width:1; stroke:black; " description="&lt;b&gt;MBR_02238&lt;/b&gt;&lt;br&gt;filament-forming protein&lt;br&gt;Location: 490833 - 484619&lt;br&gt;&lt;br&gt;&lt;b&gt;BlastP hit with input.path1.gene27&lt;/b&gt;&lt;br&gt;Percentage identity: 64&lt;br&gt;Percentage coverage: 100&lt;br&gt;BLAST bit score: 1604&lt;br&gt;E-value: 0.0" locus_tag="MBR_02238" class="clusterblast-orf" id="dummy-2_h2_2_12"  />
</g>
<g id="a2_0013"  >
<polygon points="581,85 586,80 589,80 589,90 586,90 581,85 " style="fill:white; stroke-width:1; stroke:black; " description="&lt;b&gt;MBR_02237&lt;/b&gt;&lt;br&gt;hypothetical protein&lt;br&gt;Location: 483135 - 482521" locus_tag="MBR_02237" class="clusterblast-orf" id="dummy-2_h2_2_13"  />
</g>
<g id="a2_0014"  >
<polygon points="687,90 697,90 702,85 697,80 687,80 687,90 " style="fill:white; stroke-width:1; stroke:black; " description="&lt;b&gt;MBR_02236&lt;/b&gt;&lt;br&gt;hypothetical protein&lt;br&gt;Location: 475002 - 473863" locus_tag="MBR_02236" class="clusterblast-orf" id="dummy-2_h2_2_14"  />
</g>
<g id="a2_0015"  >
<polygon points="712,85 717,80 717,80 717,90 717,90 712,85 " style="fill:#1515d8; stroke-width:1; stroke:black; " description="&lt;b&gt;MBR_02235&lt;/b&gt;&lt;br&gt;hypothetical protein&lt;br&gt;Location: 473092 - 472688&lt;br&gt;&lt;br&gt;&lt;b&gt;BlastP hit with input.path1.gene29&lt;/b&gt;&lt;br&gt;Percentage identity: 44&lt;br&gt;Percentage coverage: 75&lt;br&gt;BLAST bit score: 136&lt;br&gt;E-value: 1.83e-39" locus_tag="MBR_02235" class="clusterblast-orf" id="dummy-2_h2_2_15"  />
</g>
<g id="a2_0016"  >
<polygon points="750,90 758,90 763,85 758,80 750,80 750,90 " style="fill:#d81577; stroke-width:1; stroke:black; " description="&lt;b&gt;MBR_02234&lt;/b&gt;&lt;br&gt;hypothetical protein&lt;br&gt;Location: 470188 - 469143&lt;br&gt;&lt;br&gt;&lt;b&gt;BlastP hit with input.path1.gene30&lt;/b&gt;&lt;br&gt;Percentage identity: 41&lt;br&gt;Percentage coverage: 97&lt;br&gt;BLAST bit score: 219&lt;br&gt;E-value: 1.61e-67" locus_tag="MBR_02234" class="clusterblast-orf" id="dummy-2_h2_2_16"  />
</g>
<g id="a2_0017"  >
<polygon points="772,90 775,90 780,85 775,80 772,80 772,90 " style="fill:white; stroke-width:1; stroke:black; " description="&lt;b&gt;MBR_02233&lt;/b&gt;&lt;br&gt;hypothetical protein&lt;br&gt;Location: 468499 - 467893" locus_tag="MBR_02233" class="clusterblast-orf" id="dummy-2_h2_2_17"  />
</g>
</svg>
