<svg xmlns="http://www.w3.org/2000/svg" xmlns:xlink="http://www.w3.org/1999/xlink" version="1.1" x="0" y="0" height="230" width="800" viewBox="0 0 800 230" preserveAspectRatio="none"  >
<g label="Query sequence" class="clusterblast-cluster"  >
<text x="5" y="20" class="clusterblast-acc"  >
Query sequence</text>
<line x1="10" y1="35" x2="778.0" y2="35" style="stroke-width:1; stroke:grey; "  />
<polygon points="106,40 112,40 117,35 112,30 106,30 106,40 " style="fill:#d81515; stroke-width:1; stroke:black; " description="&lt;b&gt;input.path1.gene548&lt;/b&gt;&lt;br&gt;input.path1.gene548&lt;br&gt;Location: 2159176 - 2160313" locus_tag="input.path1.gene548" class="clusterblast-orf" id="dummy-2_q0_0_all"  />
<polygon points="117,35 122,30 139,30 139,40 122,40 117,35 " style="fill:#4dd815; stroke-width:1; stroke:black; " description="&lt;b&gt;input.path1.gene549&lt;/b&gt;&lt;br&gt;input.path1.gene549&lt;br&gt;Location: 2160334 - 2162649" locus_tag="input.path1.gene549" class="clusterblast-orf" id="dummy-2_q1_0_all"  />
<polygon points="155,35 160,30 164,30 164,40 160,40 155,35 " style="fill:#1585d8; stroke-width:1; stroke:black; " description="&lt;b&gt;input.path1.gene550&lt;/b&gt;&lt;br&gt;input.path1.gene550&lt;br&gt;Location: 2164240 - 2165150" locus_tag="input.path1.gene550" class="clusterblast-orf" id="dummy-2_q2_0_all"  />
<polygon points="178,40 193,40 198,35 193,30 178,30 178,40 " style="fill:#a115d8; stroke-width:1; stroke:black; " description="&lt;b&gt;input.path1.gene551&lt;/b&gt;&lt;br&gt;input.path1.gene551&lt;br&gt;Location: 2166587 - 2168704" locus_tag="input.path1.gene551" class="clusterblast-orf" id="dummy-2_q3_0_all"  />
<polygon points="205,40 239,40 244,35 239,30 205,30 205,40 " style="fill:#d86915; stroke-width:1; stroke:black; " description="&lt;b&gt;input.path1.gene552&lt;/b&gt;&lt;br&gt;input.path1.gene552&lt;br&gt;Location: 2169435 - 2173430" locus_tag="input.path1.gene552" class="clusterblast-orf" id="dummy-2_q4_0_all"  />
<polygon points="246,35 251,30 271,30 271,40 251,40 246,35 " style="fill:#15d831; stroke-width:1; stroke:black; " description="&lt;b&gt;input.path1.gene553&lt;/b&gt;&lt;br&gt;input.path1.gene553&lt;br&gt;Location: 2173582 - 2176159" locus_tag="input.path1.gene553" class="clusterblast-orf" id="dummy-2_q5_0_all"  />
<polygon points="278,35 283,30 289,30 289,40 283,40 278,35 " style="fill:#1531d8; stroke-width:1; stroke:black; " description="&lt;b&gt;input.path1.gene554&lt;/b&gt;&lt;br&gt;input.path1.gene554&lt;br&gt;Location: 2176908 - 2178033" locus_tag="input.path1.gene554" class="clusterblast-orf" id="dummy-2_q6_0_all"  />
<polygon points="291,35 296,30 372,30 372,40 296,40 291,35 " style="fill:#d815bc; stroke-width:1; stroke:black; " description="&lt;b&gt;input.path1.gene555&lt;/b&gt;&lt;br&gt;input.path1.gene555&lt;br&gt;Location: 2178253 - 2186574" locus_tag="input.path1.gene555" class="clusterblast-orf" id="dummy-2_q7_0_all"  />
<polygon points="377,35 381,30 381,40 377,35 " style="fill:white; stroke-width:1; stroke:black; " description="&lt;b&gt;input.path1.gene556&lt;/b&gt;&lt;br&gt;input.path1.gene556&lt;br&gt;Location: 2187056 - 2187491" locus_tag="input.path1.gene556" class="clusterblast-orf" id="dummy-2_q8_0_all"  />
<polygon points="383,40 475,40 480,35 475,30 383,30 383,40 " style="fill:#d815bc; stroke-width:1; stroke:black; " description="&lt;b&gt;input.path1.gene557&lt;/b&gt;&lt;br&gt;input.path1.gene557&lt;br&gt;Location: 2187754 - 2197697" locus_tag="input.path1.gene557" class="clusterblast-orf" id="dummy-2_q9_0_all"  />
<polygon points="484,35 489,30 501,30 501,40 489,40 484,35 " style="fill:#d8bc15; stroke-width:1; stroke:black; " description="&lt;b&gt;input.path1.gene558&lt;/b&gt;&lt;br&gt;input.path1.gene558&lt;br&gt;Location: 2198116 - 2199891" locus_tag="input.path1.gene558" class="clusterblast-orf" id="dummy-2_q10_0_all"  />
<polygon points="507,40 526,40 531,35 526,30 507,30 507,40 " style="fill:#15d885; stroke-width:1; stroke:black; " description="&lt;b&gt;input.path1.gene559&lt;/b&gt;&lt;br&gt;input.path1.gene559&lt;br&gt;Location: 2200435 - 2202900" locus_tag="input.path1.gene559" class="clusterblast-orf" id="dummy-2_q11_0_all"  />
<polygon points="531,35 536,30 550,30 550,40 536,40 531,35 " style="fill:#4d15d8; stroke-width:1; stroke:black; " description="&lt;b&gt;input.path1.gene560&lt;/b&gt;&lt;br&gt;input.path1.gene560&lt;br&gt;Location: 2202949 - 2204833" locus_tag="input.path1.gene560" class="clusterblast-orf" id="dummy-2_q12_0_all"  />
<polygon points="550,40 552,35 550,30 550,40 " style="fill:white; stroke-width:1; stroke:black; " description="&lt;b&gt;input.path1.gene561&lt;/b&gt;&lt;br&gt;input.path1.gene561&lt;br&gt;Location: 2204850 - 2205081" locus_tag="input.path1.gene561" class="clusterblast-orf" id="dummy-2_q13_0_all"  />
<polygon points="568,35 573,30 591,30 591,40 573,40 568,35 " style="fill:#d81569; stroke-width:1; stroke:black; " description="&lt;b&gt;input.path1.gene562&lt;/b&gt;&lt;br&gt;input.path1.gene562&lt;br&gt;Location: 2206709 - 2209125" locus_tag="input.path1.gene562" class="clusterblast-orf" id="dummy-2_q14_0_all"  />
<polygon points="617,40 617,40 622,35 617,30 617,30 617,40 " style="fill:white; stroke-width:1; stroke:black; " description="&lt;b&gt;input.path1.gene563&lt;/b&gt;&lt;br&gt;input.path1.gene563&lt;br&gt;Location: 2211772 - 2212277" locus_tag="input.path1.gene563" class="clusterblast-orf" id="dummy-2_q15_0_all"  />
<polygon points="643,35 648,30 649,30 649,40 648,40 643,35 " style="fill:#a1d815; stroke-width:1; stroke:black; " description="&lt;b&gt;input.path1.gene564&lt;/b&gt;&lt;br&gt;input.path1.gene564&lt;br&gt;Location: 2214463 - 2215057" locus_tag="input.path1.gene564" class="clusterblast-orf" id="dummy-2_q16_0_all"  />
<polygon points="663,35 668,30 674,30 674,40 668,40 663,35 " style="fill:#15d8d8; stroke-width:1; stroke:black; " description="&lt;b&gt;input.path1.gene565&lt;/b&gt;&lt;br&gt;input.path1.gene565&lt;br&gt;Location: 2216540 - 2217596" locus_tag="input.path1.gene565" class="clusterblast-orf" id="dummy-2_q17_0_all"  />
</g>
<g label="NZ_CP053109" description="NZ_CP053109 (701614-782770): Streptomyces sp. Z423-1 chromosome (7% of genes show similarity), NRPS,T1PKS" class="clusterblast-cluster"  >
<text x="5" y="70" class="clusterblast-acc"  >
<a xlink:href="https://antismash-db.secondarymetabolites.org/area?record=NZ_CP053109&amp;start=701614&amp;end=782770" target="_blank">NZ_CP053109 (701614-782770)</a>: Streptomyces sp. Z423-1 chromosome (7% of genes show similarity), NRPS,T1PKS</text>
<line x1="10" y1="85" x2="778.0" y2="85" style="stroke-width:1; stroke:grey; "  />
</g>
<g id="a2_000"  >
<polygon points="0,85 5,80 7,80 7,90 5,90 0,85 " style="fill:white; stroke-width:1; stroke:black; " description="&lt;b&gt;HJD23_RS03480&lt;/b&gt;&lt;br&gt;crotonase/enoyl-CoA hydratase family protein&lt;br&gt;Location: 782269 - 781505" locus_tag="HJD23_RS03480" class="clusterblast-orf" id="dummy-2_h2_4_0"  />
</g>
<g id="a2_001"  >
<polygon points="7,85 12,80 17,80 17,90 12,90 7,85 " style="fill:white; stroke-width:1; stroke:black; " description="&lt;b&gt;HJD23_RS03475&lt;/b&gt;&lt;br&gt;flippase-like domain-containing protein&lt;br&gt;Location: 781461 - 780493" locus_tag="HJD23_RS03475" class="clusterblast-orf" id="dummy-2_h2_4_1"  />
</g>
<g id="a2_002"  >
<polygon points="19,90 32,90 37,85 32,80 19,80 19,90 " style="fill:white; stroke-width:1; stroke:black; " description="&lt;b&gt;HJD23_RS03470&lt;/b&gt;&lt;br&gt;ABC transporter ATP-binding protein/permease&lt;br&gt;Location: 780311 - 778428" locus_tag="HJD23_RS03470" class="clusterblast-orf" id="dummy-2_h2_4_2"  />
</g>
<g id="a2_003"  >
<polygon points="44,90 47,90 52,85 47,80 44,80 44,90 " style="fill:white; stroke-width:1; stroke:black; " description="&lt;b&gt;HJD23_RS03465&lt;/b&gt;&lt;br&gt;site-specific integrase&lt;br&gt;Location: 777728 - 776874" locus_tag="HJD23_RS03465" class="clusterblast-orf" id="dummy-2_h2_4_3"  />
</g>
<g id="a2_004"  >
<polygon points="57,90 59,85 57,80 57,90 " style="fill:white; stroke-width:1; stroke:black; " description="&lt;b&gt;HJD23_RS03460&lt;/b&gt;&lt;br&gt;e9imm peptide&lt;br&gt;Location: 776349 - 776119" locus_tag="HJD23_RS03460" class="clusterblast-orf" id="dummy-2_h2_4_4"  />
</g>
<g id="a2_005"  >
<polygon points="59,85 64,80 68,80 68,90 64,90 59,85 " style="fill:white; stroke-width:1; stroke:black; " description="&lt;b&gt;HJD23_RS03455&lt;/b&gt;&lt;br&gt;IS5 family transposase&lt;br&gt;Location: 776109 - 775178" locus_tag="HJD23_RS03455" class="clusterblast-orf" id="dummy-2_h2_4_5"  />
</g>
<g id="a2_006"  >
<polygon points="70,90 74,85 70,80 70,90 " style="fill:white; stroke-width:1; stroke:black; " description="&lt;b&gt;HJD23_RS03450&lt;/b&gt;&lt;br&gt;FMN-binding negative transcriptional regulator&lt;br&gt;Location: 775043 - 774588" locus_tag="HJD23_RS03450" class="clusterblast-orf" id="dummy-2_h2_4_6"  />
</g>
<g id="a2_007"  >
<polygon points="74,85 79,80 81,80 81,90 79,90 74,85 " style="fill:white; stroke-width:1; stroke:black; " description="&lt;b&gt;HJD23_RS03445&lt;/b&gt;&lt;br&gt;TetR family transcriptional regulator&lt;br&gt;Location: 774562 - 773918" locus_tag="HJD23_RS03445" class="clusterblast-orf" id="dummy-2_h2_4_7"  />
</g>
<g id="a2_008"  >
<polygon points="82,90 92,90 97,85 92,80 82,80 82,90 " style="fill:white; stroke-width:1; stroke:black; " description="&lt;b&gt;HJD23_RS03440&lt;/b&gt;&lt;br&gt;DHA2 family efflux MFS transporter permease subunit&lt;br&gt;Location: 773768 - 772275" locus_tag="HJD23_RS03440" class="clusterblast-orf" id="dummy-2_h2_4_8"  />
</g>
<g id="a2_009"  >
<polygon points="99,90 106,90 111,85 106,80 99,80 99,90 " style="fill:white; stroke-width:1; stroke:black; " description="&lt;b&gt;HJD23_RS03435&lt;/b&gt;&lt;br&gt;cytochrome P450&lt;br&gt;Location: 772009 - 770774" locus_tag="HJD23_RS03435" class="clusterblast-orf" id="dummy-2_h2_4_9"  />
</g>
<g id="a2_0010"  >
<polygon points="111,85 116,80 130,80 130,90 116,90 111,85 " style="fill:white; stroke-width:1; stroke:black; " description="&lt;b&gt;HJD23_RS03430&lt;/b&gt;&lt;br&gt;LuxR family transcriptional regulator&lt;br&gt;Location: 770820 - 768862" locus_tag="HJD23_RS03430" class="clusterblast-orf" id="dummy-2_h2_4_10"  />
</g>
<g id="a2_0011"  >
<polygon points="129,85 134,80 138,80 138,90 134,90 129,85 " style="fill:white; stroke-width:1; stroke:black; " description="&lt;b&gt;HJD23_RS03425&lt;/b&gt;&lt;br&gt;ATP-binding protein&lt;br&gt;Location: 768940 - 768008" locus_tag="HJD23_RS03425" class="clusterblast-orf" id="dummy-2_h2_4_11"  />
</g>
<g id="a2_0012"  >
<polygon points="141,85 146,80 160,80 160,90 146,90 141,85 " style="fill:white; stroke-width:1; stroke:black; " description="&lt;b&gt;HJD23_RS03420&lt;/b&gt;&lt;br&gt;AAA family ATPase&lt;br&gt;Location: 767744 - 765753" locus_tag="HJD23_RS03420" class="clusterblast-orf" id="dummy-2_h2_4_12"  />
</g>
<g id="a2_0013"  >
<polygon points="166,85 171,80 181,80 181,90 171,90 166,85 " style="fill:white; stroke-width:1; stroke:black; " description="&lt;b&gt;HJD23_RS03415&lt;/b&gt;&lt;br&gt;prenyltransferase&lt;br&gt;Location: 765159 - 763621" locus_tag="HJD23_RS03415" class="clusterblast-orf" id="dummy-2_h2_4_13"  />
</g>
<g id="a2_0014"  >
<polygon points="181,85 186,80 189,80 189,90 186,90 181,85 " style="fill:white; stroke-width:1; stroke:black; " description="&lt;b&gt;HJD23_RS03410&lt;/b&gt;&lt;br&gt;glycoside hydrolase family 16 protein&lt;br&gt;Location: 763624 - 762794" locus_tag="HJD23_RS03410" class="clusterblast-orf" id="dummy-2_h2_4_14"  />
</g>
<g id="a2_0015"  >
<polygon points="189,85 194,80 220,80 220,90 194,90 189,85 " style="fill:white; stroke-width:1; stroke:black; " description="&lt;b&gt;HJD23_RS03405&lt;/b&gt;&lt;br&gt;non-ribosomal peptide synthetase&lt;br&gt;Location: 762770 - 759606" locus_tag="HJD23_RS03405" class="clusterblast-orf" id="dummy-2_h2_4_15"  />
</g>
<g id="a2_0016"  >
<polygon points="221,85 226,80 229,80 229,90 226,90 221,85 " style="fill:white; stroke-width:1; stroke:black; " description="&lt;b&gt;HJD23_RS03400&lt;/b&gt;&lt;br&gt;hypothetical protein&lt;br&gt;Location: 759534 - 758704" locus_tag="HJD23_RS03400" class="clusterblast-orf" id="dummy-2_h2_4_16"  />
</g>
<g id="a2_0017"  >
<polygon points="231,85 236,80 238,80 238,90 236,90 231,85 " style="fill:white; stroke-width:1; stroke:black; " description="&lt;b&gt;HJD23_RS03395&lt;/b&gt;&lt;br&gt;alpha/beta fold hydrolase&lt;br&gt;Location: 758511 - 757735" locus_tag="HJD23_RS03395" class="clusterblast-orf" id="dummy-2_h2_4_17"  />
</g>
<g id="a2_0018"  >
<polygon points="238,85 243,80 320,80 320,90 243,90 238,85 " style="fill:white; stroke-width:1; stroke:black; " description="&lt;b&gt;HJD23_RS43390&lt;/b&gt;&lt;br&gt;SDR family NAD(P)-dependent oxidoreductase&lt;br&gt;Location: 757738 - 749342" locus_tag="HJD23_RS43390" class="clusterblast-orf" id="dummy-2_h2_4_18"  />
</g>
<g id="a2_0019"  >
<polygon points="320,85 325,80 418,80 418,90 325,90 320,85 " style="fill:#d815bc; stroke-width:1; stroke:black; " description="&lt;b&gt;HJD23_RS43385&lt;/b&gt;&lt;br&gt;SDR family NAD(P)-dependent oxidoreductase&lt;br&gt;Location: 749337 - 739207&lt;br&gt;&lt;br&gt;&lt;b&gt;BlastP hit with input.path1.gene555&lt;/b&gt;&lt;br&gt;Percentage identity: 31&lt;br&gt;Percentage coverage: 38&lt;br&gt;BLAST bit score: 360&lt;br&gt;E-value: 2.58e-97" locus_tag="HJD23_RS43385" class="clusterblast-orf" id="dummy-2_h2_4_19"  />
</g>
<g id="a2_0020"  >
<polygon points="419,85 424,80 589,80 589,90 424,90 419,85 " style="fill:#d815bc; stroke-width:1; stroke:black; " description="&lt;b&gt;HJD23_RS03370&lt;/b&gt;&lt;br&gt;SDR family NAD(P)-dependent oxidoreductase&lt;br&gt;Location: 739107 - 721615&lt;br&gt;&lt;br&gt;&lt;b&gt;BlastP hit with input.path1.gene557&lt;/b&gt;&lt;br&gt;Percentage identity: 31&lt;br&gt;Percentage coverage: 32&lt;br&gt;BLAST bit score: 345&lt;br&gt;E-value: 1.24e-92" locus_tag="HJD23_RS03370" class="clusterblast-orf" id="dummy-2_h2_4_20"  />
</g>
<g id="a2_0021"  >
<polygon points="591,85 596,80 606,80 606,90 596,90 591,85 " style="fill:#4d15d8; stroke-width:1; stroke:black; " description="&lt;b&gt;HJD23_RS03365&lt;/b&gt;&lt;br&gt;FAD-binding protein&lt;br&gt;Location: 721410 - 719908&lt;br&gt;&lt;br&gt;&lt;b&gt;BlastP hit with input.path1.gene560&lt;/b&gt;&lt;br&gt;Percentage identity: 33&lt;br&gt;Percentage coverage: 32&lt;br&gt;BLAST bit score: 69&lt;br&gt;E-value: 3.72e-10" locus_tag="HJD23_RS03365" class="clusterblast-orf" id="dummy-2_h2_4_21"  />
</g>
<g id="a2_0022"  >
<polygon points="607,90 609,85 607,80 607,90 " style="fill:white; stroke-width:1; stroke:black; " description="&lt;b&gt;HJD23_RS43380&lt;/b&gt;&lt;br&gt;hypothetical protein&lt;br&gt;Location: 719801 - 719568" locus_tag="HJD23_RS43380" class="clusterblast-orf" id="dummy-2_h2_4_22"  />
</g>
<g id="a2_0023"  >
<polygon points="611,90 615,85 611,80 611,90 " style="fill:white; stroke-width:1; stroke:black; " description="&lt;b&gt;HJD23_RS43375&lt;/b&gt;&lt;br&gt;hypothetical protein&lt;br&gt;Location: 719429 - 718959" locus_tag="HJD23_RS43375" class="clusterblast-orf" id="dummy-2_h2_4_23"  />
</g>
<g id="a2_0024"  >
<polygon points="620,85 624,80 624,90 620,85 " style="fill:white; stroke-width:1; stroke:black; " description="&lt;b&gt;HJD23_RS03355&lt;/b&gt;&lt;br&gt;DNA-binding protein&lt;br&gt;Location: 718485 - 718089" locus_tag="HJD23_RS03355" class="clusterblast-orf" id="dummy-2_h2_4_24"  />
</g>
<g id="a2_0025"  >
<polygon points="625,90 629,90 634,85 629,80 625,80 625,90 " style="fill:white; stroke-width:1; stroke:black; " description="&lt;b&gt;HJD23_RS03350&lt;/b&gt;&lt;br&gt;alpha-L-rhamnosidase N-terminal domain-containing protein&lt;br&gt;Location: 717992 - 716976" locus_tag="HJD23_RS03350" class="clusterblast-orf" id="dummy-2_h2_4_25"  />
</g>
<g id="a2_0026"  >
<polygon points="635,90 643,90 648,85 643,80 635,80 635,90 " style="fill:white; stroke-width:1; stroke:black; " description="&lt;b&gt;HJD23_RS03345&lt;/b&gt;&lt;br&gt;hypothetical protein&lt;br&gt;Location: 716940 - 715534" locus_tag="HJD23_RS03345" class="clusterblast-orf" id="dummy-2_h2_4_26"  />
</g>
<g id="a2_0027"  >
<polygon points="660,90 664,85 660,80 660,90 " style="fill:white; stroke-width:1; stroke:black; " description="&lt;b&gt;HJD23_RS03340&lt;/b&gt;&lt;br&gt;aspartate 1-decarboxylase&lt;br&gt;Location: 714398 - 713979" locus_tag="HJD23_RS03340" class="clusterblast-orf" id="dummy-2_h2_4_27"  />
</g>
<g id="a2_0028"  >
<polygon points="664,90 667,85 664,80 664,90 " style="fill:white; stroke-width:1; stroke:black; " description="&lt;b&gt;HJD23_RS03335&lt;/b&gt;&lt;br&gt;N-acetyltransferase&lt;br&gt;Location: 713958 - 713614" locus_tag="HJD23_RS03335" class="clusterblast-orf" id="dummy-2_h2_4_28"  />
</g>
<g id="a2_0029"  >
<polygon points="667,90 668,90 673,85 668,80 667,80 667,90 " style="fill:white; stroke-width:1; stroke:black; " description="&lt;b&gt;HJD23_RS03330&lt;/b&gt;&lt;br&gt;aspartate/glutamate racemase family protein&lt;br&gt;Location: 713611 - 712979" locus_tag="HJD23_RS03330" class="clusterblast-orf" id="dummy-2_h2_4_29"  />
</g>
<g id="a2_0030"  >
<polygon points="678,85 683,80 692,80 692,90 683,90 678,85 " style="fill:white; stroke-width:1; stroke:black; " description="&lt;b&gt;HJD23_RS03325&lt;/b&gt;&lt;br&gt;NADP-dependent phosphogluconate dehydrogenase&lt;br&gt;Location: 712531 - 711092" locus_tag="HJD23_RS03325" class="clusterblast-orf" id="dummy-2_h2_4_30"  />
</g>
<g id="a2_0031"  >
<polygon points="695,90 702,90 707,85 702,80 695,80 695,90 " style="fill:white; stroke-width:1; stroke:black; " description="&lt;b&gt;HJD23_RS03320&lt;/b&gt;&lt;br&gt;transglycosylase family protein&lt;br&gt;Location: 710780 - 709533" locus_tag="HJD23_RS03320" class="clusterblast-orf" id="dummy-2_h2_4_31"  />
</g>
<g id="a2_0032"  >
<polygon points="707,85 712,80 717,80 717,90 712,90 707,85 " style="fill:white; stroke-width:1; stroke:black; " description="&lt;b&gt;HJD23_RS03315&lt;/b&gt;&lt;br&gt;DMT family transporter&lt;br&gt;Location: 709543 - 708446" locus_tag="HJD23_RS03315" class="clusterblast-orf" id="dummy-2_h2_4_32"  />
</g>
<g id="a2_0033"  >
<polygon points="720,90 721,85 720,80 720,90 " style="fill:white; stroke-width:1; stroke:black; " description="&lt;b&gt;HJD23_RS03310&lt;/b&gt;&lt;br&gt;(2Fe-2S)-binding protein&lt;br&gt;Location: 708164 - 708069" locus_tag="HJD23_RS03310" class="clusterblast-orf" id="dummy-2_h2_4_33"  />
</g>
<g id="a2_0034"  >
<polygon points="722,90 728,90 733,85 728,80 722,80 722,90 " style="fill:white; stroke-width:1; stroke:black; " description="&lt;b&gt;HJD23_RS03305&lt;/b&gt;&lt;br&gt;glycogen synthase&lt;br&gt;Location: 707984 - 706806" locus_tag="HJD23_RS03305" class="clusterblast-orf" id="dummy-2_h2_4_34"  />
</g>
<g id="a2_0035"  >
<polygon points="734,90 741,90 746,85 741,80 734,80 734,90 " style="fill:white; stroke-width:1; stroke:black; " description="&lt;b&gt;HJD23_RS03300&lt;/b&gt;&lt;br&gt;glucose-1-phosphate adenylyltransferase&lt;br&gt;Location: 706754 - 705534" locus_tag="HJD23_RS03300" class="clusterblast-orf" id="dummy-2_h2_4_35"  />
</g>
<g id="a2_0036"  >
<polygon points="749,90 757,90 762,85 757,80 749,80 749,90 " style="fill:white; stroke-width:1; stroke:black; " description="&lt;b&gt;HJD23_RS03295&lt;/b&gt;&lt;br&gt;wax ester/triacylglycerol synthase family O-acyltransferase&lt;br&gt;Location: 705163 - 703823" locus_tag="HJD23_RS03295" class="clusterblast-orf" id="dummy-2_h2_4_36"  />
</g>
<g id="a2_0037"  >
<polygon points="763,90 773,90 778,85 773,80 763,80 763,90 " style="fill:white; stroke-width:1; stroke:black; " description="&lt;b&gt;HJD23_RS03290&lt;/b&gt;&lt;br&gt;SDR family NAD(P)-dependent oxidoreductase&lt;br&gt;Location: 703715 - 702240" locus_tag="HJD23_RS03290" class="clusterblast-orf" id="dummy-2_h2_4_37"  />
</g>
<g id="a2_0038"  >
<polygon points="778,85 780,80 780,90 778,85 " style="fill:white; stroke-width:1; stroke:black; " description="&lt;b&gt;HJD23_RS03285&lt;/b&gt;&lt;br&gt;hypothetical protein&lt;br&gt;Location: 702232 - 702059" locus_tag="HJD23_RS03285" class="clusterblast-orf" id="dummy-2_h2_4_38"  />
</g>
</svg>
