<svg xmlns="http://www.w3.org/2000/svg" xmlns:xlink="http://www.w3.org/1999/xlink" version="1.1" x="0" y="0" height="230" width="800" viewBox="0 0 800 230" preserveAspectRatio="none"  >
<g label="Query sequence" class="clusterblast-cluster"  >
<text x="5" y="20" class="clusterblast-acc"  >
Query sequence</text>
<line x1="10" y1="35" x2="778.0" y2="35" style="stroke-width:1; stroke:grey; "  />
<polygon points="0,40 2,40 7,35 2,30 0,30 0,40 " style="fill:#d81515; stroke-width:1; stroke:black; " description="&lt;b&gt;input.path1.gene1312&lt;/b&gt;&lt;br&gt;input.path1.gene1312&lt;br&gt;Location: 5224346 - 5225036" locus_tag="input.path1.gene1312" class="clusterblast-orf" id="dummy-4_q0_0_all"  />
<polygon points="33,40 40,40 45,35 40,30 33,30 33,40 " style="fill:#4dd815; stroke-width:1; stroke:black; " description="&lt;b&gt;input.path1.gene1313&lt;/b&gt;&lt;br&gt;input.path1.gene1313&lt;br&gt;Location: 5227553 - 5228660" locus_tag="input.path1.gene1313" class="clusterblast-orf" id="dummy-4_q1_0_all"  />
<polygon points="102,35 107,30 114,30 114,40 107,40 102,35 " style="fill:#1585d8; stroke-width:1; stroke:black; " description="&lt;b&gt;input.path1.gene1314&lt;/b&gt;&lt;br&gt;input.path1.gene1314&lt;br&gt;Location: 5234043 - 5235161" locus_tag="input.path1.gene1314" class="clusterblast-orf" id="dummy-4_q2_0_all"  />
<polygon points="134,40 138,35 134,30 134,40 " style="fill:#a115d8; stroke-width:1; stroke:black; " description="&lt;b&gt;input.path1.gene1315&lt;/b&gt;&lt;br&gt;input.path1.gene1315&lt;br&gt;Location: 5237105 - 5237473" locus_tag="input.path1.gene1315" class="clusterblast-orf" id="dummy-4_q3_0_all"  />
<polygon points="148,35 153,30 157,30 157,40 153,40 148,35 " style="fill:#d86915; stroke-width:1; stroke:black; " description="&lt;b&gt;input.path1.gene1316&lt;/b&gt;&lt;br&gt;input.path1.gene1316&lt;br&gt;Location: 5238380 - 5239278" locus_tag="input.path1.gene1316" class="clusterblast-orf" id="dummy-4_q4_0_all"  />
<polygon points="167,40 172,40 177,35 172,30 167,30 167,40 " style="fill:white; stroke-width:1; stroke:black; " description="&lt;b&gt;input.path1.gene1317&lt;/b&gt;&lt;br&gt;input.path1.gene1317&lt;br&gt;Location: 5240193 - 5241171" locus_tag="input.path1.gene1317" class="clusterblast-orf" id="dummy-4_q5_0_all"  />
<polygon points="193,40 234,40 239,35 234,30 193,30 193,40 " style="fill:#15d831; stroke-width:1; stroke:black; " description="&lt;b&gt;input.path1.gene1318&lt;/b&gt;&lt;br&gt;input.path1.gene1318&lt;br&gt;Location: 5242643 - 5247046" locus_tag="input.path1.gene1318" class="clusterblast-orf" id="dummy-4_q6_0_all"  />
<polygon points="241,35 246,30 246,30 246,40 246,40 241,35 " style="fill:white; stroke-width:1; stroke:black; " description="&lt;b&gt;input.path1.gene1319&lt;/b&gt;&lt;br&gt;input.path1.gene1319&lt;br&gt;Location: 5247198 - 5247656" locus_tag="input.path1.gene1319" class="clusterblast-orf" id="dummy-4_q7_0_all"  />
<polygon points="246,40 250,40 255,35 250,30 246,30 246,40 " style="fill:#15d831; stroke-width:1; stroke:black; " description="&lt;b&gt;input.path1.gene1320&lt;/b&gt;&lt;br&gt;input.path1.gene1320&lt;br&gt;Location: 5247688 - 5248576" locus_tag="input.path1.gene1320" class="clusterblast-orf" id="dummy-4_q8_0_all"  />
<polygon points="260,35 265,30 317,30 317,40 265,40 260,35 " style="fill:#1531d8; stroke-width:1; stroke:black; " description="&lt;b&gt;input.path1.gene1321&lt;/b&gt;&lt;br&gt;input.path1.gene1321&lt;br&gt;Location: 5249029 - 5254431" locus_tag="input.path1.gene1321" class="clusterblast-orf" id="dummy-4_q9_0_all"  />
<polygon points="353,40 366,40 371,35 366,30 353,30 353,40 " style="fill:#d815bc; stroke-width:1; stroke:black; " description="&lt;b&gt;input.path1.gene1322&lt;/b&gt;&lt;br&gt;input.path1.gene1322&lt;br&gt;Location: 5257844 - 5259527" locus_tag="input.path1.gene1322" class="clusterblast-orf" id="dummy-4_q10_0_all"  />
<polygon points="373,35 378,30 390,30 390,40 378,40 373,35 " style="fill:#d8bc15; stroke-width:1; stroke:black; " description="&lt;b&gt;input.path1.gene1323&lt;/b&gt;&lt;br&gt;input.path1.gene1323&lt;br&gt;Location: 5259765 - 5261360" locus_tag="input.path1.gene1323" class="clusterblast-orf" id="dummy-4_q11_0_all"  />
<polygon points="397,35 402,30 405,30 405,40 402,40 397,35 " style="fill:#15d885; stroke-width:1; stroke:black; " description="&lt;b&gt;input.path1.gene1324&lt;/b&gt;&lt;br&gt;input.path1.gene1324&lt;br&gt;Location: 5262052 - 5262773" locus_tag="input.path1.gene1324" class="clusterblast-orf" id="dummy-4_q12_0_all"  />
<polygon points="434,40 566,40 571,35 566,30 434,30 434,40 " style="fill:#15d831; stroke-width:1; stroke:black; " description="&lt;b&gt;input.path1.gene1325&lt;/b&gt;&lt;br&gt;input.path1.gene1325&lt;br&gt;Location: 5265495 - 5278528" locus_tag="input.path1.gene1325" class="clusterblast-orf" id="dummy-4_q13_0_all"  />
<polygon points="577,35 582,30 597,30 597,40 582,40 577,35 " style="fill:#4d15d8; stroke-width:1; stroke:black; " description="&lt;b&gt;input.path1.gene1326&lt;/b&gt;&lt;br&gt;input.path1.gene1326&lt;br&gt;Location: 5279096 - 5280949" locus_tag="input.path1.gene1326" class="clusterblast-orf" id="dummy-4_q14_0_all"  />
<polygon points="646,35 651,30 652,30 652,40 651,40 646,35 " style="fill:#d81569; stroke-width:1; stroke:black; " description="&lt;b&gt;input.path1.gene1327&lt;/b&gt;&lt;br&gt;input.path1.gene1327&lt;br&gt;Location: 5285560 - 5286126" locus_tag="input.path1.gene1327" class="clusterblast-orf" id="dummy-4_q15_0_all"  />
<polygon points="661,35 666,30 675,30 675,40 666,40 661,35 " style="fill:#a1d815; stroke-width:1; stroke:black; " description="&lt;b&gt;input.path1.gene1328&lt;/b&gt;&lt;br&gt;input.path1.gene1328&lt;br&gt;Location: 5287051 - 5288306" locus_tag="input.path1.gene1328" class="clusterblast-orf" id="dummy-4_q16_0_all"  />
<polygon points="722,35 727,30 741,30 741,40 727,40 722,35 " style="fill:#15d8d8; stroke-width:1; stroke:black; " description="&lt;b&gt;input.path1.gene1329&lt;/b&gt;&lt;br&gt;input.path1.gene1329&lt;br&gt;Location: 5292844 - 5294647" locus_tag="input.path1.gene1329" class="clusterblast-orf" id="dummy-4_q17_0_all"  />
<polygon points="751,40 775,40 780,35 775,30 751,30 751,40 " style="fill:#1531d8; stroke-width:1; stroke:black; " description="&lt;b&gt;input.path1.gene1330&lt;/b&gt;&lt;br&gt;input.path1.gene1330&lt;br&gt;Location: 5295592 - 5298263" locus_tag="input.path1.gene1330" class="clusterblast-orf" id="dummy-4_q18_0_all"  />
</g>
<g label="NC_072845" description="NC_072845 (3949401-4017370): Fusarium oxysporum Fo47 chromosome VI, complete ... (14% of genes show similarity), T1PKS" class="clusterblast-cluster"  >
<text x="5" y="70" class="clusterblast-acc"  >
<a xlink:href="https://antismash-db.secondarymetabolites.org/area?record=NC_072845&amp;start=3949401&amp;end=4017370" target="_blank">NC_072845 (3949401-4017370)</a>: Fusarium oxysporum Fo47 chromosome VI, complete ... (14% of genes show similarity), T1PKS</text>
<line x1="10" y1="85" x2="778.0" y2="85" style="stroke-width:1; stroke:grey; "  />
</g>
<g id="a4_000"  >
<polygon points="61,90 74,90 79,85 74,80 61,80 61,90 " style="fill:white; stroke-width:1; stroke:black; " description="&lt;b&gt;FOBC_10738&lt;/b&gt;&lt;br&gt;aldehyde dehydrogenase (NAD+)&lt;br&gt;Location: 4012849 - 4011093" locus_tag="FOBC_10738" class="clusterblast-orf" id="dummy-4_h4_5_0"  />
</g>
<g id="a4_001"  >
<polygon points="89,90 96,90 101,85 96,80 89,80 89,90 " style="fill:white; stroke-width:1; stroke:black; " description="&lt;b&gt;FOBC_10737&lt;/b&gt;&lt;br&gt;uncharacterized protein&lt;br&gt;Location: 4010124 - 4009049" locus_tag="FOBC_10737" class="clusterblast-orf" id="dummy-4_h4_5_1"  />
</g>
<g id="a4_002"  >
<polygon points="102,85 107,80 121,80 121,90 107,90 102,85 " style="fill:white; stroke-width:1; stroke:black; " description="&lt;b&gt;FOBC_10736&lt;/b&gt;&lt;br&gt;quinate permease&lt;br&gt;Location: 4008881 - 4007171" locus_tag="FOBC_10736" class="clusterblast-orf" id="dummy-4_h4_5_2"  />
</g>
<g id="a4_003"  >
<polygon points="138,85 143,80 153,80 153,90 143,90 138,85 " style="fill:white; stroke-width:1; stroke:black; " description="&lt;b&gt;FOBC_10735&lt;/b&gt;&lt;br&gt;uncharacterized protein&lt;br&gt;Location: 4005552 - 4004087" locus_tag="FOBC_10735" class="clusterblast-orf" id="dummy-4_h4_5_3"  />
</g>
<g id="a4_004"  >
<polygon points="171,85 176,80 251,80 251,90 176,90 171,85 " style="fill:#1531d8; stroke-width:1; stroke:black; " description="&lt;b&gt;FOBC_10734&lt;/b&gt;&lt;br&gt;uncharacterized protein&lt;br&gt;Location: 4002339 - 3994845&lt;br&gt;&lt;br&gt;&lt;b&gt;BlastP hit with input.path1.gene1321&lt;/b&gt;&lt;br&gt;Percentage identity: 33&lt;br&gt;Percentage coverage: 28&lt;br&gt;BLAST bit score: 201&lt;br&gt;E-value: 1.12e-49&lt;br&gt;&lt;br&gt;&lt;b&gt;BlastP hit with input.path1.gene1330&lt;/b&gt;&lt;br&gt;Percentage identity: 31&lt;br&gt;Percentage coverage: 50&lt;br&gt;BLAST bit score: 170&lt;br&gt;E-value: 5.65e-41" locus_tag="FOBC_10734" class="clusterblast-orf" id="dummy-4_h4_5_4"  />
</g>
<g id="a4_005"  >
<polygon points="254,90 280,90 285,85 280,80 254,80 254,90 " style="fill:#d815bc; stroke-width:1; stroke:black; " description="&lt;b&gt;FOBC_10733&lt;/b&gt;&lt;br&gt;uncharacterized protein&lt;br&gt;Location: 3994548 - 3991599&lt;br&gt;&lt;br&gt;&lt;b&gt;BlastP hit with input.path1.gene1322&lt;/b&gt;&lt;br&gt;Percentage identity: 39&lt;br&gt;Percentage coverage: 29&lt;br&gt;BLAST bit score: 119&lt;br&gt;E-value: 5.65e-26" locus_tag="FOBC_10733" class="clusterblast-orf" id="dummy-4_h4_5_5"  />
</g>
<g id="a4_006"  >
<polygon points="294,90 300,90 305,85 300,80 294,80 294,90 " style="fill:white; stroke-width:1; stroke:black; " description="&lt;b&gt;FOBC_10732&lt;/b&gt;&lt;br&gt;uncharacterized protein&lt;br&gt;Location: 3990711 - 3989649" locus_tag="FOBC_10732" class="clusterblast-orf" id="dummy-4_h4_5_6"  />
</g>
<g id="a4_007"  >
<polygon points="307,85 312,80 325,80 325,90 312,90 307,85 " style="fill:white; stroke-width:1; stroke:black; " description="&lt;b&gt;FOBC_10731&lt;/b&gt;&lt;br&gt;uncharacterized protein&lt;br&gt;Location: 3989504 - 3987825" locus_tag="FOBC_10731" class="clusterblast-orf" id="dummy-4_h4_5_7"  />
</g>
<g id="a4_008"  >
<polygon points="329,90 409,90 414,85 409,80 329,80 329,90 " style="fill:#15d831; stroke-width:1; stroke:black; " description="&lt;b&gt;FOBC_10730&lt;/b&gt;&lt;br&gt;uncharacterized protein&lt;br&gt;Location: 3987370 - 3979402&lt;br&gt;&lt;br&gt;&lt;b&gt;BlastP hit with input.path1.gene1318&lt;/b&gt;&lt;br&gt;Percentage identity: 36&lt;br&gt;Percentage coverage: 36&lt;br&gt;BLAST bit score: 273&lt;br&gt;E-value: 2.22e-72&lt;br&gt;&lt;br&gt;&lt;b&gt;BlastP hit with input.path1.gene1325&lt;/b&gt;&lt;br&gt;Percentage identity: 31&lt;br&gt;Percentage coverage: 61&lt;br&gt;BLAST bit score: 959&lt;br&gt;E-value: 3.29e-291" locus_tag="FOBC_10730" class="clusterblast-orf" id="dummy-4_h4_5_8"  />
</g>
<g id="a4_009"  >
<polygon points="415,85 420,80 423,80 423,90 420,90 415,85 " style="fill:white; stroke-width:1; stroke:black; " description="&lt;b&gt;FOBC_10729&lt;/b&gt;&lt;br&gt;uncharacterized protein&lt;br&gt;Location: 3979246 - 3978464" locus_tag="FOBC_10729" class="clusterblast-orf" id="dummy-4_h4_5_9"  />
</g>
<g id="a4_0010"  >
<polygon points="440,85 445,80 456,80 456,90 445,90 440,85 " style="fill:white; stroke-width:1; stroke:black; " description="&lt;b&gt;FOBC_10728&lt;/b&gt;&lt;br&gt;uncharacterized protein&lt;br&gt;Location: 3976924 - 3975370" locus_tag="FOBC_10728" class="clusterblast-orf" id="dummy-4_h4_5_10"  />
</g>
<g id="a4_0011"  >
<polygon points="465,90 479,90 484,85 479,80 465,80 465,90 " style="fill:white; stroke-width:1; stroke:black; " description="&lt;b&gt;FOBC_10727&lt;/b&gt;&lt;br&gt;uncharacterized protein&lt;br&gt;Location: 3974517 - 3972731" locus_tag="FOBC_10727" class="clusterblast-orf" id="dummy-4_h4_5_11"  />
</g>
<g id="a4_0012"  >
<polygon points="489,85 494,80 507,80 507,90 494,90 489,85 " style="fill:white; stroke-width:1; stroke:black; " description="&lt;b&gt;FOBC_10726&lt;/b&gt;&lt;br&gt;succinate-semialdehyde dehydrogenase&lt;br&gt;Location: 3972249 - 3970574" locus_tag="FOBC_10726" class="clusterblast-orf" id="dummy-4_h4_5_12"  />
</g>
<g id="a4_0013"  >
<polygon points="548,85 553,80 553,80 553,90 553,90 548,85 " style="fill:white; stroke-width:1; stroke:black; " description="&lt;b&gt;FOBC_10725&lt;/b&gt;&lt;br&gt;uncharacterized protein&lt;br&gt;Location: 3966616 - 3966209" locus_tag="FOBC_10725" class="clusterblast-orf" id="dummy-4_h4_5_13"  />
</g>
<g id="a4_0014"  >
<polygon points="568,85 573,80 578,80 578,90 573,90 568,85 " style="fill:white; stroke-width:1; stroke:black; " description="&lt;b&gt;FOBC_10724&lt;/b&gt;&lt;br&gt;uncharacterized protein&lt;br&gt;Location: 3964761 - 3963850" locus_tag="FOBC_10724" class="clusterblast-orf" id="dummy-4_h4_5_14"  />
</g>
<g id="a4_0015"  >
<polygon points="585,90 600,90 605,85 600,80 585,80 585,90 " style="fill:white; stroke-width:1; stroke:black; " description="&lt;b&gt;FOBC_10723&lt;/b&gt;&lt;br&gt;uncharacterized protein&lt;br&gt;Location: 3963145 - 3961282" locus_tag="FOBC_10723" class="clusterblast-orf" id="dummy-4_h4_5_15"  />
</g>
<g id="a4_0016"  >
<polygon points="613,90 624,90 629,85 624,80 613,80 613,90 " style="fill:white; stroke-width:1; stroke:black; " description="&lt;b&gt;FOBC_10722&lt;/b&gt;&lt;br&gt;uncharacterized protein&lt;br&gt;Location: 3960474 - 3958963" locus_tag="FOBC_10722" class="clusterblast-orf" id="dummy-4_h4_5_16"  />
</g>
<g id="a4_0017"  >
<polygon points="631,85 636,80 640,80 640,90 636,90 631,85 " style="fill:white; stroke-width:1; stroke:black; " description="&lt;b&gt;FOBC_10721&lt;/b&gt;&lt;br&gt;uncharacterized protein&lt;br&gt;Location: 3958795 - 3957959" locus_tag="FOBC_10721" class="clusterblast-orf" id="dummy-4_h4_5_17"  />
</g>
<g id="a4_0018"  >
<polygon points="645,85 650,80 691,80 691,90 650,90 645,85 " style="fill:white; stroke-width:1; stroke:black; " description="&lt;b&gt;FOBC_10720&lt;/b&gt;&lt;br&gt;uncharacterized protein&lt;br&gt;Location: 3957482 - 3953076" locus_tag="FOBC_10720" class="clusterblast-orf" id="dummy-4_h4_5_18"  />
</g>
<g id="a4_0019"  >
<polygon points="702,90 709,90 714,85 709,80 702,80 702,90 " style="fill:white; stroke-width:1; stroke:black; " description="&lt;b&gt;FOBC_10719&lt;/b&gt;&lt;br&gt;uncharacterized protein&lt;br&gt;Location: 3952038 - 3950939" locus_tag="FOBC_10719" class="clusterblast-orf" id="dummy-4_h4_5_19"  />
</g>
<g id="a4_0020"  >
<polygon points="716,85 718,80 718,90 716,85 " style="fill:white; stroke-width:1; stroke:black; " description="&lt;b&gt;FOBC_10718&lt;/b&gt;&lt;br&gt;uncharacterized protein&lt;br&gt;Location: 3950745 - 3950510" locus_tag="FOBC_10718" class="clusterblast-orf" id="dummy-4_h4_5_20"  />
</g>
</svg>
