<svg xmlns="http://www.w3.org/2000/svg" xmlns:xlink="http://www.w3.org/1999/xlink" version="1.1" x="0" y="0" height="230" width="800" viewBox="0 0 800 230" preserveAspectRatio="none"  >
<g label="Query sequence" class="clusterblast-cluster"  >
<text x="5" y="20" class="clusterblast-acc"  >
Query sequence</text>
<line x1="10" y1="35" x2="778.0" y2="35" style="stroke-width:1; stroke:grey; "  />
<polygon points="0,35 5,30 47,30 47,40 5,40 0,35 " style="fill:#d81515; stroke-width:1; stroke:black; " description="&lt;b&gt;input.path1.gene134&lt;/b&gt;&lt;br&gt;input.path1.gene134&lt;br&gt;Location: 443508 - 446206" locus_tag="input.path1.gene134" class="clusterblast-orf" id="dummy-2_q0_0_all"  />
<polygon points="56,40 93,40 98,35 93,30 56,30 56,40 " style="fill:#3cd815; stroke-width:1; stroke:black; " description="&lt;b&gt;input.path1.gene135&lt;/b&gt;&lt;br&gt;input.path1.gene135&lt;br&gt;Location: 446698 - 449103" locus_tag="input.path1.gene135" class="clusterblast-orf" id="dummy-2_q1_0_all"  />
<polygon points="109,40 129,40 134,35 129,30 109,30 109,40 " style="fill:#3cd815; stroke-width:1; stroke:black; " description="&lt;b&gt;input.path1.gene136&lt;/b&gt;&lt;br&gt;input.path1.gene136&lt;br&gt;Location: 449694 - 451115" locus_tag="input.path1.gene136" class="clusterblast-orf" id="dummy-2_q2_0_all"  />
<polygon points="140,35 145,30 171,30 171,40 145,40 140,35 " style="fill:#1563d8; stroke-width:1; stroke:black; " description="&lt;b&gt;input.path1.gene137&lt;/b&gt;&lt;br&gt;input.path1.gene137&lt;br&gt;Location: 451463 - 453248" locus_tag="input.path1.gene137" class="clusterblast-orf" id="dummy-2_q3_0_all"  />
<polygon points="181,35 186,30 229,30 229,40 186,40 181,35 " style="fill:#b115d8; stroke-width:1; stroke:black; " description="&lt;b&gt;input.path1.gene138&lt;/b&gt;&lt;br&gt;input.path1.gene138&lt;br&gt;Location: 453827 - 456548" locus_tag="input.path1.gene138" class="clusterblast-orf" id="dummy-2_q4_0_all"  />
<polygon points="255,40 280,40 285,35 280,30 255,30 255,40 " style="fill:#d88a15; stroke-width:1; stroke:black; " description="&lt;b&gt;input.path1.gene139&lt;/b&gt;&lt;br&gt;input.path1.gene139&lt;br&gt;Location: 458025 - 459720" locus_tag="input.path1.gene139" class="clusterblast-orf" id="dummy-2_q5_0_all"  />
<polygon points="293,35 298,30 432,30 432,40 298,40 293,35 " style="fill:#15d863; stroke-width:1; stroke:black; " description="&lt;b&gt;input.path1.gene140&lt;/b&gt;&lt;br&gt;input.path1.gene140&lt;br&gt;Location: 460176 - 468065" locus_tag="input.path1.gene140" class="clusterblast-orf" id="dummy-2_q6_0_all"  />
<polygon points="443,40 471,40 476,35 471,30 443,30 443,40 " style="fill:#3c15d8; stroke-width:1; stroke:black; " description="&lt;b&gt;input.path1.gene141&lt;/b&gt;&lt;br&gt;input.path1.gene141&lt;br&gt;Location: 468675 - 470563" locus_tag="input.path1.gene141" class="clusterblast-orf" id="dummy-2_q7_0_all"  />
<polygon points="595,40 603,40 608,35 603,30 595,30 595,40 " style="fill:#d8158a; stroke-width:1; stroke:black; " description="&lt;b&gt;input.path1.gene142&lt;/b&gt;&lt;br&gt;input.path1.gene142&lt;br&gt;Location: 477308 - 478041" locus_tag="input.path1.gene142" class="clusterblast-orf" id="dummy-2_q8_0_all"  />
<polygon points="715,40 743,40 748,35 743,30 715,30 715,40 " style="fill:#b1d815; stroke-width:1; stroke:black; " description="&lt;b&gt;input.path1.gene143&lt;/b&gt;&lt;br&gt;input.path1.gene143&lt;br&gt;Location: 484157 - 486032" locus_tag="input.path1.gene143" class="clusterblast-orf" id="dummy-2_q9_0_all"  />
<polygon points="767,40 775,40 780,35 775,30 767,30 767,40 " style="fill:#15d8d8; stroke-width:1; stroke:black; " description="&lt;b&gt;input.path1.gene144&lt;/b&gt;&lt;br&gt;input.path1.gene144&lt;br&gt;Location: 487130 - 487823" locus_tag="input.path1.gene144" class="clusterblast-orf" id="dummy-2_q10_0_all"  />
</g>
<g label="NW_006271977" description="NW_006271977 (650506-682810): Cordyceps militaris CM01 unplaced genomic scaff... (50% of genes show similarity), terpene" class="clusterblast-cluster"  >
<text x="5" y="70" class="clusterblast-acc"  >
<a xlink:href="https://antismash-db.secondarymetabolites.org/area?record=NW_006271977&amp;start=650506&amp;end=682810" target="_blank">NW_006271977 (650506-682810)</a>: Cordyceps militaris CM01 unplaced genomic scaff... (50% of genes show similarity), terpene</text>
<line x1="10" y1="85" x2="778.0" y2="85" style="stroke-width:1; stroke:grey; "  />
</g>
<g id="a2_000"  >
<polygon points="146,90 152,90 157,85 152,80 146,80 146,90 " style="fill:white; stroke-width:1; stroke:black; " description="&lt;b&gt;CCM_09532&lt;/b&gt;&lt;br&gt;ATP-dependent RNA helicase DHX8&lt;br&gt;Location: 679849 - 679214" locus_tag="CCM_09532" class="clusterblast-orf" id="dummy-2_h2_9_0"  />
</g>
<g id="a2_001"  >
<polygon points="159,85 164,80 191,80 191,90 164,90 159,85 " style="fill:white; stroke-width:1; stroke:black; " description="&lt;b&gt;CCM_09531&lt;/b&gt;&lt;br&gt;ankyrin repeat-containing protein, putative&lt;br&gt;Location: 679137 - 677304" locus_tag="CCM_09531" class="clusterblast-orf" id="dummy-2_h2_9_1"  />
</g>
<g id="a2_002"  >
<polygon points="213,85 218,80 246,80 246,90 218,90 213,85 " style="fill:white; stroke-width:1; stroke:black; " description="&lt;b&gt;CCM_09530&lt;/b&gt;&lt;br&gt;amidase family protein&lt;br&gt;Location: 676043 - 674164" locus_tag="CCM_09530" class="clusterblast-orf" id="dummy-2_h2_9_2"  />
</g>
<g id="a2_003"  >
<polygon points="258,90 300,90 305,85 300,80 258,80 258,90 " style="fill:white; stroke-width:1; stroke:black; " description="&lt;b&gt;CCM_09529&lt;/b&gt;&lt;br&gt;hypothetical protein&lt;br&gt;Location: 673495 - 670807" locus_tag="CCM_09529" class="clusterblast-orf" id="dummy-2_h2_9_3"  />
</g>
<g id="a2_004"  >
<polygon points="311,85 316,80 323,80 323,90 316,90 311,85 " style="fill:#d81515; stroke-width:1; stroke:black; " description="&lt;b&gt;CCM_09528&lt;/b&gt;&lt;br&gt;hypothetical protein&lt;br&gt;Location: 670452 - 669815&lt;br&gt;&lt;br&gt;&lt;b&gt;BlastP hit with input.path1.gene134&lt;/b&gt;&lt;br&gt;Percentage identity: 49&lt;br&gt;Percentage coverage: 37&lt;br&gt;BLAST bit score: 154&lt;br&gt;E-value: 2.73e-42" locus_tag="CCM_09528" class="clusterblast-orf" id="dummy-2_h2_9_4"  />
</g>
<g id="a2_005"  >
<polygon points="327,85 332,80 347,80 347,90 332,90 327,85 " style="fill:#d81515; stroke-width:1; stroke:black; " description="&lt;b&gt;CCM_09527&lt;/b&gt;&lt;br&gt;meiotic recombination protein spo11&lt;br&gt;Location: 669590 - 668454&lt;br&gt;&lt;br&gt;&lt;b&gt;BlastP hit with input.path1.gene134&lt;/b&gt;&lt;br&gt;Percentage identity: 31&lt;br&gt;Percentage coverage: 57&lt;br&gt;BLAST bit score: 112&lt;br&gt;E-value: 1.21e-25" locus_tag="CCM_09527" class="clusterblast-orf" id="dummy-2_h2_9_5"  />
</g>
<g id="a2_006"  >
<polygon points="358,90 394,90 399,85 394,80 358,80 358,90 " style="fill:#3cd815; stroke-width:1; stroke:black; " description="&lt;b&gt;CCM_09526&lt;/b&gt;&lt;br&gt;lanosterol synthase&lt;br&gt;Location: 667810 - 665507&lt;br&gt;&lt;br&gt;&lt;b&gt;BlastP hit with input.path1.gene135&lt;/b&gt;&lt;br&gt;Percentage identity: 74&lt;br&gt;Percentage coverage: 100&lt;br&gt;BLAST bit score: 1214&lt;br&gt;E-value: 0.0" locus_tag="CCM_09526" class="clusterblast-orf" id="dummy-2_h2_9_6"  />
</g>
<g id="a2_007"  >
<polygon points="401,85 406,80 418,80 418,90 406,90 401,85 " style="fill:white; stroke-width:1; stroke:black; " description="&lt;b&gt;CCM_09525&lt;/b&gt;&lt;br&gt;ribulose-phosphate 3-epimerase&lt;br&gt;Location: 665351 - 664387" locus_tag="CCM_09525" class="clusterblast-orf" id="dummy-2_h2_9_7"  />
</g>
<g id="a2_008"  >
<polygon points="428,90 451,90 456,85 451,80 428,80 428,90 " style="fill:#3cd815; stroke-width:1; stroke:black; " description="&lt;b&gt;CCM_09524&lt;/b&gt;&lt;br&gt;SGT1 and CS domain containing protein&lt;br&gt;Location: 663815 - 662217&lt;br&gt;&lt;br&gt;&lt;b&gt;BlastP hit with input.path1.gene136&lt;/b&gt;&lt;br&gt;Percentage identity: 52&lt;br&gt;Percentage coverage: 104&lt;br&gt;BLAST bit score: 415&lt;br&gt;E-value: 3.09e-139" locus_tag="CCM_09524" class="clusterblast-orf" id="dummy-2_h2_9_8"  />
</g>
<g id="a2_009"  >
<polygon points="461,85 466,80 488,80 488,90 466,90 461,85 " style="fill:#1563d8; stroke-width:1; stroke:black; " description="&lt;b&gt;CCM_09523&lt;/b&gt;&lt;br&gt;Taurine catabolism dioxygenase TauD/TfdA&lt;br&gt;Location: 661969 - 660440&lt;br&gt;&lt;br&gt;&lt;b&gt;BlastP hit with input.path1.gene137&lt;/b&gt;&lt;br&gt;Percentage identity: 49&lt;br&gt;Percentage coverage: 73&lt;br&gt;BLAST bit score: 399&lt;br&gt;E-value: 3.95e-131" locus_tag="CCM_09523" class="clusterblast-orf" id="dummy-2_h2_9_9"  />
</g>
<g id="a2_0010"  >
<polygon points="496,85 501,80 523,80 523,90 501,90 496,85 " style="fill:#b115d8; stroke-width:1; stroke:black; " description="&lt;b&gt;CCM_09522&lt;/b&gt;&lt;br&gt;tRNA-splicing endonuclease subunit Sen2, putative&lt;br&gt;Location: 659985 - 658423&lt;br&gt;&lt;br&gt;&lt;b&gt;BlastP hit with input.path1.gene138&lt;/b&gt;&lt;br&gt;Percentage identity: 54&lt;br&gt;Percentage coverage: 79&lt;br&gt;BLAST bit score: 530&lt;br&gt;E-value: 1.04e-180" locus_tag="CCM_09522" class="clusterblast-orf" id="dummy-2_h2_9_10"  />
</g>
<g id="a2_0011"  >
<polygon points="540,90 564,90 569,85 564,80 540,80 540,90 " style="fill:#d88a15; stroke-width:1; stroke:black; " description="&lt;b&gt;CCM_09521&lt;/b&gt;&lt;br&gt;ceramide glucosyltransferase, putative&lt;br&gt;Location: 657488 - 655823&lt;br&gt;&lt;br&gt;&lt;b&gt;BlastP hit with input.path1.gene139&lt;/b&gt;&lt;br&gt;Percentage identity: 63&lt;br&gt;Percentage coverage: 99&lt;br&gt;BLAST bit score: 660&lt;br&gt;E-value: 4.15e-234" locus_tag="CCM_09521" class="clusterblast-orf" id="dummy-2_h2_9_11"  />
</g>
<g id="a2_0012"  >
<polygon points="582,85 587,80 597,80 597,90 587,90 582,85 " style="fill:white; stroke-width:1; stroke:black; " description="&lt;b&gt;CCM_09520&lt;/b&gt;&lt;br&gt;multiple ankyrin repeats single kh domain protein, putative&lt;br&gt;Location: 655069 - 654242" locus_tag="CCM_09520" class="clusterblast-orf" id="dummy-2_h2_9_12"  />
</g>
<g id="a2_0013"  >
<polygon points="622,90 628,90 633,85 628,80 622,80 622,90 " style="fill:white; stroke-width:1; stroke:black; " description="&lt;b&gt;CCM_09519&lt;/b&gt;&lt;br&gt;hypothetical protein&lt;br&gt;Location: 652829 - 652191" locus_tag="CCM_09519" class="clusterblast-orf" id="dummy-2_h2_9_13"  />
</g>
</svg>
