<svg xmlns="http://www.w3.org/2000/svg" xmlns:xlink="http://www.w3.org/1999/xlink" version="1.1" x="0" y="0" height="230" width="800" viewBox="0 0 800 230" preserveAspectRatio="none"  >
<g label="Query sequence" class="clusterblast-cluster"  >
<text x="5" y="20" class="clusterblast-acc"  >
Query sequence</text>
<line x1="10" y1="35" x2="778.0" y2="35" style="stroke-width:1; stroke:grey; "  />
<polygon points="5,35 10,30 14,30 14,40 10,40 5,35 " style="fill:#d81515; stroke-width:1; stroke:black; " description="&lt;b&gt;input.path1.gene184&lt;/b&gt;&lt;br&gt;input.path1.gene184&lt;br&gt;Location: 707847 - 708957" locus_tag="input.path1.gene184" class="clusterblast-orf" id="dummy-3_q0_0_all"  />
<polygon points="20,35 25,30 26,30 26,40 25,40 20,35 " style="fill:#77d815; stroke-width:1; stroke:black; " description="&lt;b&gt;input.path1.gene185&lt;/b&gt;&lt;br&gt;input.path1.gene185&lt;br&gt;Location: 709766 - 710465" locus_tag="input.path1.gene185" class="clusterblast-orf" id="dummy-3_q1_0_all"  />
<polygon points="27,35 28,30 28,40 27,35 " style="fill:#77d815; stroke-width:1; stroke:black; " description="&lt;b&gt;input.path1.gene186&lt;/b&gt;&lt;br&gt;input.path1.gene186&lt;br&gt;Location: 710609 - 710756" locus_tag="input.path1.gene186" class="clusterblast-orf" id="dummy-3_q2_0_all"  />
<polygon points="31,35 36,30 48,30 48,40 36,40 31,35 " style="fill:#15d8d8; stroke-width:1; stroke:black; " description="&lt;b&gt;input.path1.gene187&lt;/b&gt;&lt;br&gt;input.path1.gene187&lt;br&gt;Location: 711078 - 713260" locus_tag="input.path1.gene187" class="clusterblast-orf" id="dummy-3_q3_0_all"  />
<polygon points="90,40 97,40 102,35 97,30 90,30 90,40 " style="fill:#7715d8; stroke-width:1; stroke:black; " description="&lt;b&gt;input.path1.gene188&lt;/b&gt;&lt;br&gt;input.path1.gene188&lt;br&gt;Location: 718582 - 720085" locus_tag="input.path1.gene188" class="clusterblast-orf" id="dummy-3_q4_0_all"  />
<polygon points="105,35 110,30 655,30 655,40 110,40 105,35 " style="fill:#d8a715; stroke-width:1; stroke:black; " description="&lt;b&gt;input.path1.gene189&lt;/b&gt;&lt;br&gt;input.path1.gene189&lt;br&gt;Location: 720449 - 789967" locus_tag="input.path1.gene189" class="clusterblast-orf" id="dummy-3_q5_0_all"  />
<polygon points="710,40 712,40 717,35 712,30 710,30 710,40 " style="fill:#15d846; stroke-width:1; stroke:black; " description="&lt;b&gt;input.path1.gene190&lt;/b&gt;&lt;br&gt;input.path1.gene190&lt;br&gt;Location: 796805 - 797762" locus_tag="input.path1.gene190" class="clusterblast-orf" id="dummy-3_q6_0_all"  />
<polygon points="719,35 721,30 721,40 719,35 " style="fill:white; stroke-width:1; stroke:black; " description="&lt;b&gt;input.path1.gene191&lt;/b&gt;&lt;br&gt;input.path1.gene191&lt;br&gt;Location: 797982 - 798287" locus_tag="input.path1.gene191" class="clusterblast-orf" id="dummy-3_q7_0_all"  />
<polygon points="740,35 745,30 763,30 763,40 745,40 740,35 " style="fill:#1546d8; stroke-width:1; stroke:black; " description="&lt;b&gt;input.path1.gene192&lt;/b&gt;&lt;br&gt;input.path1.gene192&lt;br&gt;Location: 800641 - 803549" locus_tag="input.path1.gene192" class="clusterblast-orf" id="dummy-3_q8_0_all"  />
<polygon points="766,40 769,40 774,35 769,30 766,30 766,40 " style="fill:#d815a7; stroke-width:1; stroke:black; " description="&lt;b&gt;input.path1.gene193&lt;/b&gt;&lt;br&gt;input.path1.gene193&lt;br&gt;Location: 803904 - 804971" locus_tag="input.path1.gene193" class="clusterblast-orf" id="dummy-3_q9_0_all"  />
</g>
<g label="NW_026250026" description="NW_026250026 (1109305-1212503): Hypoxylon trugodes strain CBS 135444 unplaced... (5% of genes show similarity), NRPS,T1PKS" class="clusterblast-cluster"  >
<text x="5" y="70" class="clusterblast-acc"  >
<a xlink:href="https://antismash-db.secondarymetabolites.org/area?record=NW_026250026&amp;start=1109305&amp;end=1212503" target="_blank">NW_026250026 (1109305-1212503)</a>: Hypoxylon trugodes strain CBS 135444 unplaced... (5% of genes show similarity), NRPS,T1PKS</text>
<line x1="10" y1="85" x2="778.0" y2="85" style="stroke-width:1; stroke:grey; "  />
</g>
<g id="a3_000"  >
<polygon points="0,90 39,90 44,85 39,80 0,80 0,90 " style="fill:white; stroke-width:1; stroke:black; " description="&lt;b&gt;F4822DRAFT_420981&lt;/b&gt;&lt;br&gt;proteasome component&lt;br&gt;Location: 1209237 - 1203634" locus_tag="F4822DRAFT_420981" class="clusterblast-orf" id="dummy-3_h3_8_0"  />
</g>
<g id="a3_001"  >
<polygon points="54,90 62,90 67,85 62,80 54,80 54,90 " style="fill:white; stroke-width:1; stroke:black; " description="&lt;b&gt;F4822DRAFT_81015&lt;/b&gt;&lt;br&gt;uncharacterized protein&lt;br&gt;Location: 1202409 - 1200709" locus_tag="F4822DRAFT_81015" class="clusterblast-orf" id="dummy-3_h3_8_1"  />
</g>
<g id="a3_002"  >
<polygon points="89,85 94,80 101,80 101,90 94,90 89,85 " style="fill:#15d8d8; stroke-width:1; stroke:black; " description="&lt;b&gt;F4822DRAFT_80959&lt;/b&gt;&lt;br&gt;amino acid permease/ SLC12A domain-containing protein&lt;br&gt;Location: 1197984 - 1196443&lt;br&gt;&lt;br&gt;&lt;b&gt;BlastP hit with input.path1.gene187&lt;/b&gt;&lt;br&gt;Percentage identity: 44&lt;br&gt;Percentage coverage: 87&lt;br&gt;BLAST bit score: 372&lt;br&gt;E-value: 3.89e-121" locus_tag="F4822DRAFT_80959" class="clusterblast-orf" id="dummy-3_h3_8_2"  />
</g>
<g id="a3_003"  >
<polygon points="119,90 129,90 134,85 129,80 119,80 119,90 " style="fill:white; stroke-width:1; stroke:black; " description="&lt;b&gt;F4822DRAFT_80707&lt;/b&gt;&lt;br&gt;cytochrome P450&lt;br&gt;Location: 1194113 - 1192199" locus_tag="F4822DRAFT_80707" class="clusterblast-orf" id="dummy-3_h3_8_3"  />
</g>
<g id="a3_004"  >
<polygon points="141,85 145,80 145,90 141,85 " style="fill:white; stroke-width:1; stroke:black; " description="&lt;b&gt;F4822DRAFT_420966&lt;/b&gt;&lt;br&gt;uncharacterized protein&lt;br&gt;Location: 1191391 - 1190855" locus_tag="F4822DRAFT_420966" class="clusterblast-orf" id="dummy-3_h3_8_4"  />
</g>
<g id="a3_005"  >
<polygon points="157,90 169,90 174,85 169,80 157,80 157,90 " style="fill:white; stroke-width:1; stroke:black; " description="&lt;b&gt;F4822DRAFT_80685&lt;/b&gt;&lt;br&gt;Pkinase-domain-containing protein&lt;br&gt;Location: 1189401 - 1187247" locus_tag="F4822DRAFT_80685" class="clusterblast-orf" id="dummy-3_h3_8_5"  />
</g>
<g id="a3_006"  >
<polygon points="177,85 182,80 184,80 184,90 182,90 177,85 " style="fill:white; stroke-width:1; stroke:black; " description="&lt;b&gt;F4822DRAFT_440572&lt;/b&gt;&lt;br&gt;uncharacterized protein&lt;br&gt;Location: 1186812 - 1185995" locus_tag="F4822DRAFT_440572" class="clusterblast-orf" id="dummy-3_h3_8_6"  />
</g>
<g id="a3_007"  >
<polygon points="196,90 201,90 206,85 201,80 196,80 196,90 " style="fill:white; stroke-width:1; stroke:black; " description="&lt;b&gt;F4822DRAFT_80576&lt;/b&gt;&lt;br&gt;isocitrate dehydrogenase subunit 1&lt;br&gt;Location: 1184458 - 1183141" locus_tag="F4822DRAFT_80576" class="clusterblast-orf" id="dummy-3_h3_8_7"  />
</g>
<g id="a3_008"  >
<polygon points="211,85 216,80 309,80 309,90 216,90 211,85 " style="fill:white; stroke-width:1; stroke:black; " description="&lt;b&gt;F4822DRAFT_80590&lt;/b&gt;&lt;br&gt;hybrid PKS-NRPS PsoA&lt;br&gt;Location: 1182503 - 1170140" locus_tag="F4822DRAFT_80590" class="clusterblast-orf" id="dummy-3_h3_8_8"  />
</g>
<g id="a3_009"  >
<polygon points="315,90 319,85 315,80 315,90 " style="fill:white; stroke-width:1; stroke:black; " description="&lt;b&gt;F4822DRAFT_80400&lt;/b&gt;&lt;br&gt;uncharacterized protein&lt;br&gt;Location: 1169401 - 1168905" locus_tag="F4822DRAFT_80400" class="clusterblast-orf" id="dummy-3_h3_8_9"  />
</g>
<g id="a3_0010"  >
<polygon points="330,85 335,80 344,80 344,90 335,90 330,85 " style="fill:white; stroke-width:1; stroke:black; " description="&lt;b&gt;F4822DRAFT_420954&lt;/b&gt;&lt;br&gt;putative multidrug resistance protein fnx1&lt;br&gt;Location: 1167478 - 1165753" locus_tag="F4822DRAFT_420954" class="clusterblast-orf" id="dummy-3_h3_8_10"  />
</g>
<g id="a3_0011"  >
<polygon points="351,90 357,90 362,85 357,80 351,80 351,90 " style="fill:white; stroke-width:1; stroke:black; " description="&lt;b&gt;F4822DRAFT_420949&lt;/b&gt;&lt;br&gt;uncharacterized protein&lt;br&gt;Location: 1164859 - 1163501" locus_tag="F4822DRAFT_420949" class="clusterblast-orf" id="dummy-3_h3_8_11"  />
</g>
<g id="a3_0012"  >
<polygon points="365,90 369,85 365,80 365,90 " style="fill:white; stroke-width:1; stroke:black; " description="&lt;b&gt;F4822DRAFT_434661&lt;/b&gt;&lt;br&gt;putative integral membrane protein&lt;br&gt;Location: 1163103 - 1162567" locus_tag="F4822DRAFT_434661" class="clusterblast-orf" id="dummy-3_h3_8_12"  />
</g>
<g id="a3_0013"  >
<polygon points="403,90 415,90 420,85 415,80 403,80 403,90 " style="fill:white; stroke-width:1; stroke:black; " description="&lt;b&gt;F4822DRAFT_420944&lt;/b&gt;&lt;br&gt;alcohol oxidase-like protein&lt;br&gt;Location: 1158258 - 1156113" locus_tag="F4822DRAFT_420944" class="clusterblast-orf" id="dummy-3_h3_8_13"  />
</g>
<g id="a3_0014"  >
<polygon points="429,85 434,80 440,80 440,90 434,90 429,85 " style="fill:white; stroke-width:1; stroke:black; " description="&lt;b&gt;F4822DRAFT_420943&lt;/b&gt;&lt;br&gt;uncharacterized protein&lt;br&gt;Location: 1155054 - 1153657" locus_tag="F4822DRAFT_420943" class="clusterblast-orf" id="dummy-3_h3_8_14"  />
</g>
<g id="a3_0015"  >
<polygon points="442,90 445,85 442,80 442,90 " style="fill:white; stroke-width:1; stroke:black; " description="&lt;b&gt;F4822DRAFT_434658&lt;/b&gt;&lt;br&gt;uncharacterized protein&lt;br&gt;Location: 1153385 - 1153045" locus_tag="F4822DRAFT_434658" class="clusterblast-orf" id="dummy-3_h3_8_15"  />
</g>
<g id="a3_0016"  >
<polygon points="445,90 449,85 445,80 445,90 " style="fill:white; stroke-width:1; stroke:black; " description="&lt;b&gt;F4822DRAFT_420938&lt;/b&gt;&lt;br&gt;uncharacterized protein&lt;br&gt;Location: 1152966 - 1152547" locus_tag="F4822DRAFT_420938" class="clusterblast-orf" id="dummy-3_h3_8_16"  />
</g>
<g id="a3_0017"  >
<polygon points="457,85 462,80 469,80 469,90 462,90 457,85 " style="fill:white; stroke-width:1; stroke:black; " description="&lt;b&gt;F4822DRAFT_420937&lt;/b&gt;&lt;br&gt;uncharacterized protein&lt;br&gt;Location: 1151456 - 1150011" locus_tag="F4822DRAFT_420937" class="clusterblast-orf" id="dummy-3_h3_8_17"  />
</g>
<g id="a3_0018"  >
<polygon points="473,85 478,80 479,80 479,90 478,90 473,85 " style="fill:white; stroke-width:1; stroke:black; " description="&lt;b&gt;F4822DRAFT_434655&lt;/b&gt;&lt;br&gt;serine hydrolase FSH&lt;br&gt;Location: 1149426 - 1148748" locus_tag="F4822DRAFT_434655" class="clusterblast-orf" id="dummy-3_h3_8_18"  />
</g>
<g id="a3_0019"  >
<polygon points="485,90 548,90 553,85 548,80 485,80 485,90 " style="fill:white; stroke-width:1; stroke:black; " description="&lt;b&gt;F4822DRAFT_438966&lt;/b&gt;&lt;br&gt;putative polyketide synthase&lt;br&gt;Location: 1147998 - 1139306" locus_tag="F4822DRAFT_438966" class="clusterblast-orf" id="dummy-3_h3_8_19"  />
</g>
<g id="a3_0020"  >
<polygon points="565,90 569,85 565,80 565,90 " style="fill:white; stroke-width:1; stroke:black; " description="&lt;b&gt;F4822DRAFT_420928&lt;/b&gt;&lt;br&gt;uncharacterized protein&lt;br&gt;Location: 1137787 - 1137356" locus_tag="F4822DRAFT_420928" class="clusterblast-orf" id="dummy-3_h3_8_20"  />
</g>
<g id="a3_0021"  >
<polygon points="569,90 572,85 569,80 569,90 " style="fill:white; stroke-width:1; stroke:black; " description="&lt;b&gt;F4822DRAFT_434653&lt;/b&gt;&lt;br&gt;uncharacterized protein&lt;br&gt;Location: 1137325 - 1136901" locus_tag="F4822DRAFT_434653" class="clusterblast-orf" id="dummy-3_h3_8_21"  />
</g>
<g id="a3_0022"  >
<polygon points="580,85 585,80 588,80 588,90 585,90 580,85 " style="fill:white; stroke-width:1; stroke:black; " description="&lt;b&gt;F4822DRAFT_434652&lt;/b&gt;&lt;br&gt;uncharacterized protein&lt;br&gt;Location: 1135979 - 1134913" locus_tag="F4822DRAFT_434652" class="clusterblast-orf" id="dummy-3_h3_8_22"  />
</g>
<g id="a3_0023"  >
<polygon points="591,90 592,90 597,85 592,80 591,80 591,90 " style="fill:white; stroke-width:1; stroke:black; " description="&lt;b&gt;F4822DRAFT_434651&lt;/b&gt;&lt;br&gt;uncharacterized protein&lt;br&gt;Location: 1134571 - 1133778" locus_tag="F4822DRAFT_434651" class="clusterblast-orf" id="dummy-3_h3_8_23"  />
</g>
<g id="a3_0024"  >
<polygon points="623,85 628,80 639,80 639,90 628,90 623,85 " style="fill:white; stroke-width:1; stroke:black; " description="&lt;b&gt;F4822DRAFT_420927&lt;/b&gt;&lt;br&gt;HET-domain-containing protein&lt;br&gt;Location: 1130458 - 1128530" locus_tag="F4822DRAFT_420927" class="clusterblast-orf" id="dummy-3_h3_8_24"  />
</g>
<g id="a3_0025"  >
<polygon points="645,85 650,80 654,80 654,90 650,90 645,85 " style="fill:#d81515; stroke-width:1; stroke:black; " description="&lt;b&gt;F4822DRAFT_420925&lt;/b&gt;&lt;br&gt;Aldo/keto reductase&lt;br&gt;Location: 1127723 - 1126622&lt;br&gt;&lt;br&gt;&lt;b&gt;BlastP hit with input.path1.gene184&lt;/b&gt;&lt;br&gt;Percentage identity: 32&lt;br&gt;Percentage coverage: 97&lt;br&gt;BLAST bit score: 154&lt;br&gt;E-value: 2.1e-42" locus_tag="F4822DRAFT_420925" class="clusterblast-orf" id="dummy-3_h3_8_25"  />
</g>
<g id="a3_0026"  >
<polygon points="658,85 663,80 664,80 664,90 663,90 658,85 " style="fill:white; stroke-width:1; stroke:black; " description="&lt;b&gt;F4822DRAFT_420924&lt;/b&gt;&lt;br&gt;S-adenosyl-L-methionine-dependent methyltransferase&lt;br&gt;Location: 1126154 - 1125333" locus_tag="F4822DRAFT_420924" class="clusterblast-orf" id="dummy-3_h3_8_26"  />
</g>
<g id="a3_0027"  >
<polygon points="679,90 686,90 691,85 686,80 679,80 679,90 " style="fill:white; stroke-width:1; stroke:black; " description="&lt;b&gt;F4822DRAFT_420923&lt;/b&gt;&lt;br&gt;monooxygenase&lt;br&gt;Location: 1123452 - 1121923" locus_tag="F4822DRAFT_420923" class="clusterblast-orf" id="dummy-3_h3_8_27"  />
</g>
<g id="a3_0028"  >
<polygon points="697,85 702,80 708,80 708,90 702,90 697,85 " style="fill:white; stroke-width:1; stroke:black; " description="&lt;b&gt;F4822DRAFT_434646&lt;/b&gt;&lt;br&gt;uncharacterized protein&lt;br&gt;Location: 1121112 - 1119758" locus_tag="F4822DRAFT_434646" class="clusterblast-orf" id="dummy-3_h3_8_28"  />
</g>
<g id="a3_0029"  >
<polygon points="718,85 723,80 725,80 725,90 723,90 718,85 " style="fill:white; stroke-width:1; stroke:black; " description="&lt;b&gt;F4822DRAFT_80276&lt;/b&gt;&lt;br&gt;Alpha/Beta hydrolase protein&lt;br&gt;Location: 1118464 - 1117662" locus_tag="F4822DRAFT_80276" class="clusterblast-orf" id="dummy-3_h3_8_29"  />
</g>
<g id="a3_0030"  >
<polygon points="739,90 747,90 752,85 747,80 739,80 739,90 " style="fill:white; stroke-width:1; stroke:black; " description="&lt;b&gt;F4822DRAFT_434644&lt;/b&gt;&lt;br&gt;uncharacterized protein&lt;br&gt;Location: 1115864 - 1114231" locus_tag="F4822DRAFT_434644" class="clusterblast-orf" id="dummy-3_h3_8_30"  />
</g>
<g id="a3_0031"  >
<polygon points="757,90 761,85 757,80 757,90 " style="fill:white; stroke-width:1; stroke:black; " description="&lt;b&gt;F4822DRAFT_434643&lt;/b&gt;&lt;br&gt;uncharacterized protein&lt;br&gt;Location: 1113634 - 1113110" locus_tag="F4822DRAFT_434643" class="clusterblast-orf" id="dummy-3_h3_8_31"  />
</g>
<g id="a3_0032"  >
<polygon points="762,85 767,80 770,80 770,90 767,90 762,85 " style="fill:white; stroke-width:1; stroke:black; " description="&lt;b&gt;F4822DRAFT_420919&lt;/b&gt;&lt;br&gt;S-adenosyl-L-methionine-dependent methyltransferase&lt;br&gt;Location: 1112940 - 1112014" locus_tag="F4822DRAFT_420919" class="clusterblast-orf" id="dummy-3_h3_8_32"  />
</g>
<g id="a3_0033"  >
<polygon points="773,90 775,90 780,85 775,80 773,80 773,90 " style="fill:white; stroke-width:1; stroke:black; " description="&lt;b&gt;F4822DRAFT_80094&lt;/b&gt;&lt;br&gt;DUF396-domain-containing protein&lt;br&gt;Location: 1111536 - 1110756" locus_tag="F4822DRAFT_80094" class="clusterblast-orf" id="dummy-3_h3_8_33"  />
</g>
</svg>
