<svg xmlns="http://www.w3.org/2000/svg" xmlns:xlink="http://www.w3.org/1999/xlink" version="1.1" x="0" y="0" height="230" width="800" viewBox="0 0 800 230" preserveAspectRatio="none"  >
<g label="Query sequence" class="clusterblast-cluster"  >
<text x="5" y="20" class="clusterblast-acc"  >
Query sequence</text>
<line x1="10" y1="35" x2="778.0" y2="35" style="stroke-width:1; stroke:grey; "  />
<polygon points="124,35 129,30 148,30 148,40 129,40 124,35 " style="fill:#d81515; stroke-width:1; stroke:black; " description="&lt;b&gt;input.path1.gene143&lt;/b&gt;&lt;br&gt;input.path1.gene143&lt;br&gt;Location: 551867 - 552665" locus_tag="input.path1.gene143" class="clusterblast-orf" id="dummy-2_q0_0_all"  />
<polygon points="162,40 189,40 194,35 189,30 162,30 162,40 " style="fill:#15d863; stroke-width:1; stroke:black; " description="&lt;b&gt;input.path1.gene144&lt;/b&gt;&lt;br&gt;input.path1.gene144&lt;br&gt;Location: 553121 - 554203" locus_tag="input.path1.gene144" class="clusterblast-orf" id="dummy-2_q1_0_all"  />
<polygon points="313,40 349,40 354,35 349,30 313,30 313,40 " style="fill:#1563d8; stroke-width:1; stroke:black; " description="&lt;b&gt;input.path1.gene145&lt;/b&gt;&lt;br&gt;input.path1.gene145&lt;br&gt;Location: 558163 - 559513" locus_tag="input.path1.gene145" class="clusterblast-orf" id="dummy-2_q2_0_all"  />
<polygon points="424,40 453,40 458,35 453,30 424,30 424,40 " style="fill:#b115d8; stroke-width:1; stroke:black; " description="&lt;b&gt;input.path1.gene146&lt;/b&gt;&lt;br&gt;input.path1.gene146&lt;br&gt;Location: 561860 - 562966" locus_tag="input.path1.gene146" class="clusterblast-orf" id="dummy-2_q3_0_all"  />
<polygon points="568,40 651,40 656,35 651,30 568,30 568,40 " style="fill:#b1d815; stroke-width:1; stroke:black; " description="&lt;b&gt;input.path1.gene147&lt;/b&gt;&lt;br&gt;input.path1.gene147&lt;br&gt;Location: 566623 - 569547" locus_tag="input.path1.gene147" class="clusterblast-orf" id="dummy-2_q4_0_all"  />
</g>
<g label="NW_014013672" description="NW_014013672 (190023-221487): Trichoderma virens Gv29-8 chromosome Unknown TR... (37% of genes show similarity), terpene" class="clusterblast-cluster"  >
<text x="5" y="70" class="clusterblast-acc"  >
<a xlink:href="https://antismash-db.secondarymetabolites.org/area?record=NW_014013672&amp;start=190023&amp;end=221487" target="_blank">NW_014013672 (190023-221487)</a>: Trichoderma virens Gv29-8 chromosome Unknown TR... (37% of genes show similarity), terpene</text>
<line x1="10" y1="85" x2="778.0" y2="85" style="stroke-width:1; stroke:grey; "  />
</g>
<g id="a2_000"  >
<polygon points="0,90 56,90 61,85 56,80 0,80 0,90 " style="fill:white; stroke-width:1; stroke:black; " description="&lt;b&gt;TRIVIDRAFT_192541&lt;/b&gt;&lt;br&gt;hypothetical protein&lt;br&gt;Location: 191195 - 193246" locus_tag="TRIVIDRAFT_192541" class="clusterblast-orf" id="dummy-2_h2_2_0"  />
</g>
<g id="a2_001"  >
<polygon points="91,90 153,90 158,85 153,80 91,80 91,90 " style="fill:white; stroke-width:1; stroke:black; " description="&lt;b&gt;TRIVIDRAFT_223558&lt;/b&gt;&lt;br&gt;hypothetical protein&lt;br&gt;Location: 194232 - 196454" locus_tag="TRIVIDRAFT_223558" class="clusterblast-orf" id="dummy-2_h2_2_1"  />
</g>
<g id="a2_002"  >
<polygon points="184,85 189,80 210,80 210,90 189,90 184,85 " style="fill:white; stroke-width:1; stroke:black; " description="&lt;b&gt;TRIVIDRAFT_50504&lt;/b&gt;&lt;br&gt;hypothetical protein&lt;br&gt;Location: 197331 - 198188" locus_tag="TRIVIDRAFT_50504" class="clusterblast-orf" id="dummy-2_h2_2_2"  />
</g>
<g id="a2_003"  >
<polygon points="232,90 241,90 246,85 241,80 232,80 232,90 " style="fill:white; stroke-width:1; stroke:black; " description="&lt;b&gt;TRIVIDRAFT_216302&lt;/b&gt;&lt;br&gt;hypothetical protein&lt;br&gt;Location: 198930 - 199397" locus_tag="TRIVIDRAFT_216302" class="clusterblast-orf" id="dummy-2_h2_2_3"  />
</g>
<g id="a2_004"  >
<polygon points="322,90 358,90 363,85 358,80 322,80 322,90 " style="fill:#1563d8; stroke-width:1; stroke:black; " description="&lt;b&gt;TRIVIDRAFT_50439&lt;/b&gt;&lt;br&gt;glycoside hydrolase family 64 protein&lt;br&gt;Location: 201926 - 203281&lt;br&gt;&lt;br&gt;&lt;b&gt;BlastP hit with input.path1.gene145&lt;/b&gt;&lt;br&gt;Percentage identity: 69&lt;br&gt;Percentage coverage: 100&lt;br&gt;BLAST bit score: 654&lt;br&gt;E-value: 1.7e-234" locus_tag="TRIVIDRAFT_50439" class="clusterblast-orf" id="dummy-2_h2_2_4"  />
</g>
<g id="a2_005"  >
<polygon points="415,90 454,90 459,85 454,80 415,80 415,90 " style="fill:#b115d8; stroke-width:1; stroke:black; " description="&lt;b&gt;TRIVIDRAFT_59217&lt;/b&gt;&lt;br&gt;hypothetical protein&lt;br&gt;Location: 205024 - 206487&lt;br&gt;&lt;br&gt;&lt;b&gt;BlastP hit with input.path1.gene146&lt;/b&gt;&lt;br&gt;Percentage identity: 52&lt;br&gt;Percentage coverage: 95&lt;br&gt;BLAST bit score: 186&lt;br&gt;E-value: 3.37e-56" locus_tag="TRIVIDRAFT_59217" class="clusterblast-orf" id="dummy-2_h2_2_5"  />
</g>
<g id="a2_006"  >
<polygon points="489,85 494,80 604,80 604,90 494,90 489,85 " style="fill:white; stroke-width:1; stroke:black; " description="&lt;b&gt;TRIVIDRAFT_132430&lt;/b&gt;&lt;br&gt;hypothetical protein&lt;br&gt;Location: 207457 - 211292" locus_tag="TRIVIDRAFT_132430" class="clusterblast-orf" id="dummy-2_h2_2_6"  />
</g>
<g id="a2_007"  >
<polygon points="694,90 775,90 780,85 775,80 694,80 694,90 " style="fill:#b1d815; stroke-width:1; stroke:black; " description="&lt;b&gt;TRIVIDRAFT_180828&lt;/b&gt;&lt;br&gt;hypothetical protein&lt;br&gt;Location: 214292 - 217132&lt;br&gt;&lt;br&gt;&lt;b&gt;BlastP hit with input.path1.gene147&lt;/b&gt;&lt;br&gt;Percentage identity: 82&lt;br&gt;Percentage coverage: 104&lt;br&gt;BLAST bit score: 1419&lt;br&gt;E-value: 0.0" locus_tag="TRIVIDRAFT_180828" class="clusterblast-orf" id="dummy-2_h2_2_7"  />
</g>
</svg>
