<svg xmlns="http://www.w3.org/2000/svg" xmlns:xlink="http://www.w3.org/1999/xlink" version="1.1" x="0" y="0" height="230" width="800" viewBox="0 0 800 230" preserveAspectRatio="none"  >
<g label="Query sequence" class="clusterblast-cluster"  >
<text x="5" y="20" class="clusterblast-acc"  >
Query sequence</text>
<line x1="10" y1="35" x2="778.0" y2="35" style="stroke-width:1; stroke:grey; "  />
<polygon points="157,40 205,40 210,35 205,30 157,30 157,40 " style="fill:#d81515; stroke-width:1; stroke:black; " description="&lt;b&gt;input.path1.gene435&lt;/b&gt;&lt;br&gt;input.path1.gene435&lt;br&gt;Location: 1726499 - 1730677" locus_tag="input.path1.gene435" class="clusterblast-orf" id="dummy-2_q0_0_all"  />
<polygon points="210,35 215,30 233,30 233,40 215,40 210,35 " style="fill:#15d815; stroke-width:1; stroke:black; " description="&lt;b&gt;input.path1.gene436&lt;/b&gt;&lt;br&gt;input.path1.gene436&lt;br&gt;Location: 1730700 - 1732523" locus_tag="input.path1.gene436" class="clusterblast-orf" id="dummy-2_q1_0_all"  />
<polygon points="260,40 274,40 279,35 274,30 260,30 260,40 " style="fill:#1597d8; stroke-width:1; stroke:black; " description="&lt;b&gt;input.path1.gene437&lt;/b&gt;&lt;br&gt;input.path1.gene437&lt;br&gt;Location: 1734607 - 1736118" locus_tag="input.path1.gene437" class="clusterblast-orf" id="dummy-2_q2_0_all"  />
<polygon points="286,35 291,30 294,30 294,40 291,40 286,35 " style="fill:white; stroke-width:1; stroke:black; " description="&lt;b&gt;input.path1.gene438&lt;/b&gt;&lt;br&gt;input.path1.gene438&lt;br&gt;Location: 1736704 - 1737324" locus_tag="input.path1.gene438" class="clusterblast-orf" id="dummy-2_q3_0_all"  />
<polygon points="344,40 378,40 383,35 378,30 344,30 344,40 " style="fill:#9715d8; stroke-width:1; stroke:black; " description="&lt;b&gt;input.path1.gene439&lt;/b&gt;&lt;br&gt;input.path1.gene439&lt;br&gt;Location: 1741249 - 1744304" locus_tag="input.path1.gene439" class="clusterblast-orf" id="dummy-2_q4_0_all"  />
<polygon points="391,35 396,30 460,30 460,40 396,40 391,35 " style="fill:#d89715; stroke-width:1; stroke:black; " description="&lt;b&gt;input.path1.gene440&lt;/b&gt;&lt;br&gt;input.path1.gene440&lt;br&gt;Location: 1744899 - 1750341" locus_tag="input.path1.gene440" class="clusterblast-orf" id="dummy-2_q5_0_all"  />
<polygon points="485,40 505,40 510,35 505,30 485,30 485,40 " style="fill:#15d897; stroke-width:1; stroke:black; " description="&lt;b&gt;input.path1.gene441&lt;/b&gt;&lt;br&gt;input.path1.gene441&lt;br&gt;Location: 1752367 - 1754294" locus_tag="input.path1.gene441" class="clusterblast-orf" id="dummy-2_q6_0_all"  />
<polygon points="513,35 518,30 531,30 531,40 518,40 513,35 " style="fill:#1515d8; stroke-width:1; stroke:black; " description="&lt;b&gt;input.path1.gene442&lt;/b&gt;&lt;br&gt;input.path1.gene442&lt;br&gt;Location: 1754544 - 1755984" locus_tag="input.path1.gene442" class="clusterblast-orf" id="dummy-2_q7_0_all"  />
<polygon points="560,40 593,40 598,35 593,30 560,30 560,40 " style="fill:#d81597; stroke-width:1; stroke:black; " description="&lt;b&gt;input.path1.gene443&lt;/b&gt;&lt;br&gt;input.path1.gene443&lt;br&gt;Location: 1758238 - 1761283" locus_tag="input.path1.gene443" class="clusterblast-orf" id="dummy-2_q8_0_all"  />
<polygon points="603,35 608,30 622,30 622,40 608,40 603,35 " style="fill:#97d815; stroke-width:1; stroke:black; " description="&lt;b&gt;input.path1.gene444&lt;/b&gt;&lt;br&gt;input.path1.gene444&lt;br&gt;Location: 1761620 - 1763157" locus_tag="input.path1.gene444" class="clusterblast-orf" id="dummy-2_q9_0_all"  />
</g>
<g label="NC_070536" description="NC_070536 (2319263-2385135): Fusarium keratoplasticum isolate Fu6.1 chromosom... (43% of genes show similarity), NRPS" class="clusterblast-cluster"  >
<text x="5" y="70" class="clusterblast-acc"  >
<a xlink:href="https://antismash-db.secondarymetabolites.org/area?record=NC_070536&amp;start=2319263&amp;end=2385135" target="_blank">NC_070536 (2319263-2385135)</a>: Fusarium keratoplasticum isolate Fu6.1 chromosom... (43% of genes show similarity), NRPS</text>
<line x1="10" y1="85" x2="778.0" y2="85" style="stroke-width:1; stroke:grey; "  />
</g>
<g id="a2_000"  >
<polygon points="0,85 5,80 17,80 17,90 5,90 0,85 " style="fill:white; stroke-width:1; stroke:black; " description="&lt;b&gt;NCS57_01052400&lt;/b&gt;&lt;br&gt;F-box domain-containing protein&lt;br&gt;Location: 2321958 - 2323310" locus_tag="NCS57_01052400" class="clusterblast-orf" id="dummy-2_h2_7_0"  />
</g>
<g id="a2_001"  >
<polygon points="30,85 35,80 43,80 43,90 35,90 30,85 " style="fill:white; stroke-width:1; stroke:black; " description="&lt;b&gt;NCS57_01052500&lt;/b&gt;&lt;br&gt;Brix domain-containing protein&lt;br&gt;Location: 2324325 - 2325368" locus_tag="NCS57_01052500" class="clusterblast-orf" id="dummy-2_h2_7_1"  />
</g>
<g id="a2_002"  >
<polygon points="53,85 58,80 65,80 65,90 58,90 53,85 " style="fill:white; stroke-width:1; stroke:black; " description="&lt;b&gt;NCS57_01052600&lt;/b&gt;&lt;br&gt;hypothetical protein&lt;br&gt;Location: 2326162 - 2327083" locus_tag="NCS57_01052600" class="clusterblast-orf" id="dummy-2_h2_7_2"  />
</g>
<g id="a2_003"  >
<polygon points="86,90 131,90 136,85 131,80 86,80 86,90 " style="fill:white; stroke-width:1; stroke:black; " description="&lt;b&gt;NCS57_01052700&lt;/b&gt;&lt;br&gt;Chromo domain-containing protein&lt;br&gt;Location: 2328758 - 2332687" locus_tag="NCS57_01052700" class="clusterblast-orf" id="dummy-2_h2_7_3"  />
</g>
<g id="a2_004"  >
<polygon points="138,85 143,80 153,80 153,90 143,90 138,85 " style="fill:#15d815; stroke-width:1; stroke:black; " description="&lt;b&gt;NCS57_01052800&lt;/b&gt;&lt;br&gt;Peroxisomal membrane protein PEX14&lt;br&gt;Location: 2332900 - 2334082&lt;br&gt;&lt;br&gt;&lt;b&gt;BlastP hit with input.path1.gene436&lt;/b&gt;&lt;br&gt;Percentage identity: 42&lt;br&gt;Percentage coverage: 98&lt;br&gt;BLAST bit score: 229&lt;br&gt;E-value: 2.12e-69" locus_tag="NCS57_01052800" class="clusterblast-orf" id="dummy-2_h2_7_4"  />
</g>
<g id="a2_005"  >
<polygon points="179,90 191,90 196,85 191,80 179,80 179,90 " style="fill:#1597d8; stroke-width:1; stroke:black; " description="&lt;b&gt;NCS57_01052900&lt;/b&gt;&lt;br&gt;PAPA-1 domain-containing protein&lt;br&gt;Location: 2336120 - 2337410&lt;br&gt;&lt;br&gt;&lt;b&gt;BlastP hit with input.path1.gene437&lt;/b&gt;&lt;br&gt;Percentage identity: 62&lt;br&gt;Percentage coverage: 100&lt;br&gt;BLAST bit score: 289&lt;br&gt;E-value: 4.86e-92" locus_tag="NCS57_01052900" class="clusterblast-orf" id="dummy-2_h2_7_5"  />
</g>
<g id="a2_006"  >
<polygon points="218,90 261,90 266,85 261,80 218,80 218,90 " style="fill:white; stroke-width:1; stroke:black; " description="&lt;b&gt;NCS57_01053000&lt;/b&gt;&lt;br&gt;hypothetical protein&lt;br&gt;Location: 2339176 - 2342990" locus_tag="NCS57_01053000" class="clusterblast-orf" id="dummy-2_h2_7_6"  />
</g>
<g id="a2_007"  >
<polygon points="314,90 327,90 332,85 327,80 314,80 314,90 " style="fill:#9715d8; stroke-width:1; stroke:black; " description="&lt;b&gt;NCS57_01053100&lt;/b&gt;&lt;br&gt;DUF4050 domain-containing protein&lt;br&gt;Location: 2346767 - 2348143&lt;br&gt;&lt;br&gt;&lt;b&gt;BlastP hit with input.path1.gene439&lt;/b&gt;&lt;br&gt;Percentage identity: 50&lt;br&gt;Percentage coverage: 74&lt;br&gt;BLAST bit score: 393&lt;br&gt;E-value: 3.84e-129" locus_tag="NCS57_01053100" class="clusterblast-orf" id="dummy-2_h2_7_7"  />
</g>
<g id="a2_008"  >
<polygon points="346,85 351,80 421,80 421,90 351,90 346,85 " style="fill:#d89715; stroke-width:1; stroke:black; " description="&lt;b&gt;NCS57_01053200&lt;/b&gt;&lt;br&gt;hypothetical protein&lt;br&gt;Location: 2349264 - 2355135&lt;br&gt;&lt;br&gt;&lt;b&gt;BlastP hit with input.path1.gene440&lt;/b&gt;&lt;br&gt;Percentage identity: 65&lt;br&gt;Percentage coverage: 98&lt;br&gt;BLAST bit score: 2193&lt;br&gt;E-value: 0.0" locus_tag="NCS57_01053200" class="clusterblast-orf" id="dummy-2_h2_7_8"  />
</g>
<g id="a2_009"  >
<polygon points="457,90 476,90 481,85 476,80 457,80 457,90 " style="fill:#15d897; stroke-width:1; stroke:black; " description="&lt;b&gt;NCS57_01053300&lt;/b&gt;&lt;br&gt;hypothetical protein&lt;br&gt;Location: 2358035 - 2359911&lt;br&gt;&lt;br&gt;&lt;b&gt;BlastP hit with input.path1.gene441&lt;/b&gt;&lt;br&gt;Percentage identity: 83&lt;br&gt;Percentage coverage: 98&lt;br&gt;BLAST bit score: 964&lt;br&gt;E-value: 0.0" locus_tag="NCS57_01053300" class="clusterblast-orf" id="dummy-2_h2_7_9"  />
</g>
<g id="a2_0010"  >
<polygon points="486,85 491,80 504,80 504,90 491,90 486,85 " style="fill:#1515d8; stroke-width:1; stroke:black; " description="&lt;b&gt;NCS57_01053400&lt;/b&gt;&lt;br&gt;AlcB domain-containing protein&lt;br&gt;Location: 2360301 - 2361730&lt;br&gt;&lt;br&gt;&lt;b&gt;BlastP hit with input.path1.gene442&lt;/b&gt;&lt;br&gt;Percentage identity: 75&lt;br&gt;Percentage coverage: 99&lt;br&gt;BLAST bit score: 719&lt;br&gt;E-value: 3.61e-260" locus_tag="NCS57_01053400" class="clusterblast-orf" id="dummy-2_h2_7_10"  />
</g>
<g id="a2_0011"  >
<polygon points="556,85 561,80 578,80 578,90 561,90 556,85 " style="fill:#97d815; stroke-width:1; stroke:black; " description="&lt;b&gt;NCS57_01053500&lt;/b&gt;&lt;br&gt;Pyr-redox-2 domain-containing protein&lt;br&gt;Location: 2365798 - 2367504&lt;br&gt;&lt;br&gt;&lt;b&gt;BlastP hit with input.path1.gene444&lt;/b&gt;&lt;br&gt;Percentage identity: 67&lt;br&gt;Percentage coverage: 100&lt;br&gt;BLAST bit score: 560&lt;br&gt;E-value: 2.19e-197" locus_tag="NCS57_01053500" class="clusterblast-orf" id="dummy-2_h2_7_11"  />
</g>
<g id="a2_0012"  >
<polygon points="609,90 660,90 665,85 660,80 609,80 609,90 " style="fill:white; stroke-width:1; stroke:black; " description="&lt;b&gt;NCS57_01053600&lt;/b&gt;&lt;br&gt;hypothetical protein&lt;br&gt;Location: 2369980 - 2374358" locus_tag="NCS57_01053600" class="clusterblast-orf" id="dummy-2_h2_7_12"  />
</g>
<g id="a2_0013"  >
<polygon points="680,90 714,90 719,85 714,80 680,80 680,90 " style="fill:white; stroke-width:1; stroke:black; " description="&lt;b&gt;NCS57_01053700&lt;/b&gt;&lt;br&gt;Hypothetical protein&lt;br&gt;Location: 2375552 - 2378670" locus_tag="NCS57_01053700" class="clusterblast-orf" id="dummy-2_h2_7_13"  />
</g>
<g id="a2_0014"  >
<polygon points="726,90 764,90 769,85 764,80 726,80 726,90 " style="fill:white; stroke-width:1; stroke:black; " description="&lt;b&gt;NCS57_01053800&lt;/b&gt;&lt;br&gt;CNH domain-containing protein&lt;br&gt;Location: 2379170 - 2382570" locus_tag="NCS57_01053800" class="clusterblast-orf" id="dummy-2_h2_7_14"  />
</g>
<g id="a2_0015"  >
<polygon points="772,85 777,80 780,80 780,90 777,90 772,85 " style="fill:white; stroke-width:1; stroke:black; " description="&lt;b&gt;NCS57_01053900&lt;/b&gt;&lt;br&gt;EKC/KEOPS complex subunit GON7&lt;br&gt;Location: 2382781 - 2383407" locus_tag="NCS57_01053900" class="clusterblast-orf" id="dummy-2_h2_7_15"  />
</g>
</svg>
