<svg xmlns="http://www.w3.org/2000/svg" xmlns:xlink="http://www.w3.org/1999/xlink" version="1.1" x="0" y="0" height="230" width="800" viewBox="0 0 800 230" preserveAspectRatio="none"  >
<g label="Query sequence" class="clusterblast-cluster"  >
<text x="5" y="20" class="clusterblast-acc"  >
Query sequence</text>
<line x1="10" y1="35" x2="778.0" y2="35" style="stroke-width:1; stroke:grey; "  />
<polygon points="0,40 13,40 18,35 13,30 0,30 0,40 " style="fill:white; stroke-width:1; stroke:black; " description="&lt;b&gt;input.path1.gene291&lt;/b&gt;&lt;br&gt;input.path1.gene291&lt;br&gt;Location: 1298604 - 1300731" locus_tag="input.path1.gene291" class="clusterblast-orf" id="dummy-4_q0_0_all"  />
<polygon points="26,35 31,30 41,30 41,40 31,40 26,35 " style="fill:white; stroke-width:1; stroke:black; " description="&lt;b&gt;input.path1.gene292&lt;/b&gt;&lt;br&gt;input.path1.gene292&lt;br&gt;Location: 1301605 - 1303345" locus_tag="input.path1.gene292" class="clusterblast-orf" id="dummy-4_q1_0_all"  />
<polygon points="45,40 58,40 63,35 58,30 45,30 45,40 " style="fill:white; stroke-width:1; stroke:black; " description="&lt;b&gt;input.path1.gene293&lt;/b&gt;&lt;br&gt;input.path1.gene293&lt;br&gt;Location: 1303815 - 1305878" locus_tag="input.path1.gene293" class="clusterblast-orf" id="dummy-4_q2_0_all"  />
<polygon points="89,40 93,40 98,35 93,30 89,30 89,40 " style="fill:white; stroke-width:1; stroke:black; " description="&lt;b&gt;input.path1.gene294&lt;/b&gt;&lt;br&gt;input.path1.gene294&lt;br&gt;Location: 1308963 - 1309972" locus_tag="input.path1.gene294" class="clusterblast-orf" id="dummy-4_q3_0_all"  />
<polygon points="101,35 106,30 112,30 112,40 106,40 101,35 " style="fill:white; stroke-width:1; stroke:black; " description="&lt;b&gt;input.path1.gene295&lt;/b&gt;&lt;br&gt;input.path1.gene295&lt;br&gt;Location: 1310357 - 1311555" locus_tag="input.path1.gene295" class="clusterblast-orf" id="dummy-4_q4_0_all"  />
<polygon points="134,40 136,35 134,30 134,40 " style="fill:white; stroke-width:1; stroke:black; " description="&lt;b&gt;input.path1.gene296&lt;/b&gt;&lt;br&gt;input.path1.gene296&lt;br&gt;Location: 1314101 - 1314376" locus_tag="input.path1.gene296" class="clusterblast-orf" id="dummy-4_q5_0_all"  />
<polygon points="150,40 164,40 169,35 164,30 150,30 150,40 " style="fill:white; stroke-width:1; stroke:black; " description="&lt;b&gt;input.path1.gene297&lt;/b&gt;&lt;br&gt;input.path1.gene297&lt;br&gt;Location: 1315988 - 1318216" locus_tag="input.path1.gene297" class="clusterblast-orf" id="dummy-4_q6_0_all"  />
<polygon points="189,35 194,30 205,30 205,40 194,40 189,35 " style="fill:white; stroke-width:1; stroke:black; " description="&lt;b&gt;input.path1.gene298&lt;/b&gt;&lt;br&gt;input.path1.gene298&lt;br&gt;Location: 1320452 - 1322303" locus_tag="input.path1.gene298" class="clusterblast-orf" id="dummy-4_q7_0_all"  />
<polygon points="210,40 212,40 217,35 212,30 210,30 210,40 " style="fill:white; stroke-width:1; stroke:black; " description="&lt;b&gt;input.path1.gene299&lt;/b&gt;&lt;br&gt;input.path1.gene299&lt;br&gt;Location: 1322969 - 1323679" locus_tag="input.path1.gene299" class="clusterblast-orf" id="dummy-4_q8_0_all"  />
<polygon points="229,40 236,40 241,35 236,30 229,30 229,40 " style="fill:white; stroke-width:1; stroke:black; " description="&lt;b&gt;input.path1.gene300&lt;/b&gt;&lt;br&gt;input.path1.gene300&lt;br&gt;Location: 1325131 - 1326524" locus_tag="input.path1.gene300" class="clusterblast-orf" id="dummy-4_q9_0_all"  />
<polygon points="243,35 248,30 254,30 254,40 248,40 243,35 " style="fill:white; stroke-width:1; stroke:black; " description="&lt;b&gt;input.path1.gene301&lt;/b&gt;&lt;br&gt;input.path1.gene301&lt;br&gt;Location: 1326716 - 1327989" locus_tag="input.path1.gene301" class="clusterblast-orf" id="dummy-4_q10_0_all"  />
<polygon points="264,40 266,40 271,35 266,30 264,30 264,40 " style="fill:white; stroke-width:1; stroke:black; " description="&lt;b&gt;input.path1.gene302&lt;/b&gt;&lt;br&gt;input.path1.gene302&lt;br&gt;Location: 1329121 - 1329994" locus_tag="input.path1.gene302" class="clusterblast-orf" id="dummy-4_q11_0_all"  />
<polygon points="280,40 284,35 280,30 280,40 " style="fill:white; stroke-width:1; stroke:black; " description="&lt;b&gt;input.path1.gene303&lt;/b&gt;&lt;br&gt;input.path1.gene303&lt;br&gt;Location: 1331036 - 1331497" locus_tag="input.path1.gene303" class="clusterblast-orf" id="dummy-4_q12_0_all"  />
<polygon points="317,40 348,40 353,35 348,30 317,30 317,40 " style="fill:white; stroke-width:1; stroke:black; " description="&lt;b&gt;input.path1.gene304&lt;/b&gt;&lt;br&gt;input.path1.gene304&lt;br&gt;Location: 1335348 - 1339412" locus_tag="input.path1.gene304" class="clusterblast-orf" id="dummy-4_q13_0_all"  />
<polygon points="357,35 362,30 399,30 399,40 362,40 357,35 " style="fill:#d81515; stroke-width:1; stroke:black; " description="&lt;b&gt;input.path1.gene305&lt;/b&gt;&lt;br&gt;input.path1.gene305&lt;br&gt;Location: 1339925 - 1344800" locus_tag="input.path1.gene305" class="clusterblast-orf" id="dummy-4_q14_0_all"  />
<polygon points="409,40 418,40 423,35 418,30 409,30 409,40 " style="fill:#15d815; stroke-width:1; stroke:black; " description="&lt;b&gt;input.path1.gene306&lt;/b&gt;&lt;br&gt;input.path1.gene306&lt;br&gt;Location: 1345937 - 1347552" locus_tag="input.path1.gene306" class="clusterblast-orf" id="dummy-4_q15_0_all"  />
<polygon points="427,40 434,40 439,35 434,30 427,30 427,40 " style="fill:#1597d8; stroke-width:1; stroke:black; " description="&lt;b&gt;input.path1.gene307&lt;/b&gt;&lt;br&gt;input.path1.gene307&lt;br&gt;Location: 1347991 - 1349354" locus_tag="input.path1.gene307" class="clusterblast-orf" id="dummy-4_q16_0_all"  />
<polygon points="439,35 444,30 501,30 501,40 444,40 439,35 " style="fill:#9715d8; stroke-width:1; stroke:black; " description="&lt;b&gt;input.path1.gene308&lt;/b&gt;&lt;br&gt;input.path1.gene308&lt;br&gt;Location: 1349413 - 1356597" locus_tag="input.path1.gene308" class="clusterblast-orf" id="dummy-4_q17_0_all"  />
<polygon points="511,40 513,35 511,30 511,40 " style="fill:white; stroke-width:1; stroke:black; " description="&lt;b&gt;input.path1.gene309&lt;/b&gt;&lt;br&gt;input.path1.gene309&lt;br&gt;Location: 1357772 - 1357978" locus_tag="input.path1.gene309" class="clusterblast-orf" id="dummy-4_q18_0_all"  />
<polygon points="550,40 567,40 572,35 567,30 550,30 550,40 " style="fill:#d89715; stroke-width:1; stroke:black; " description="&lt;b&gt;input.path1.gene310&lt;/b&gt;&lt;br&gt;input.path1.gene310&lt;br&gt;Location: 1362243 - 1364808" locus_tag="input.path1.gene310" class="clusterblast-orf" id="dummy-4_q19_0_all"  />
<polygon points="573,35 578,30 642,30 642,40 578,40 573,35 " style="fill:#15d897; stroke-width:1; stroke:black; " description="&lt;b&gt;input.path1.gene311&lt;/b&gt;&lt;br&gt;input.path1.gene311&lt;br&gt;Location: 1364826 - 1372871" locus_tag="input.path1.gene311" class="clusterblast-orf" id="dummy-4_q20_0_all"  />
<polygon points="645,40 656,40 661,35 656,30 645,30 645,40 " style="fill:#1515d8; stroke-width:1; stroke:black; " description="&lt;b&gt;input.path1.gene312&lt;/b&gt;&lt;br&gt;input.path1.gene312&lt;br&gt;Location: 1373230 - 1375014" locus_tag="input.path1.gene312" class="clusterblast-orf" id="dummy-4_q21_0_all"  />
<polygon points="661,35 666,30 674,30 674,40 666,40 661,35 " style="fill:#d81597; stroke-width:1; stroke:black; " description="&lt;b&gt;input.path1.gene313&lt;/b&gt;&lt;br&gt;input.path1.gene313&lt;br&gt;Location: 1375066 - 1376614" locus_tag="input.path1.gene313" class="clusterblast-orf" id="dummy-4_q22_0_all"  />
<polygon points="680,40 684,40 689,35 684,30 680,30 680,40 " style="fill:#97d815; stroke-width:1; stroke:black; " description="&lt;b&gt;input.path1.gene314&lt;/b&gt;&lt;br&gt;input.path1.gene314&lt;br&gt;Location: 1377209 - 1378242" locus_tag="input.path1.gene314" class="clusterblast-orf" id="dummy-4_q23_0_all"  />
<polygon points="690,35 695,30 697,30 697,40 695,40 690,35 " style="fill:white; stroke-width:1; stroke:black; " description="&lt;b&gt;input.path1.gene315&lt;/b&gt;&lt;br&gt;input.path1.gene315&lt;br&gt;Location: 1378386 - 1379268" locus_tag="input.path1.gene315" class="clusterblast-orf" id="dummy-4_q24_0_all"  />
<polygon points="707,35 712,30 716,30 716,40 712,40 707,35 " style="fill:white; stroke-width:1; stroke:black; " description="&lt;b&gt;input.path1.gene316&lt;/b&gt;&lt;br&gt;input.path1.gene316&lt;br&gt;Location: 1380396 - 1381467" locus_tag="input.path1.gene316" class="clusterblast-orf" id="dummy-4_q25_0_all"  />
<polygon points="729,35 734,30 742,30 742,40 734,40 729,35 " style="fill:white; stroke-width:1; stroke:black; " description="&lt;b&gt;input.path1.gene317&lt;/b&gt;&lt;br&gt;input.path1.gene317&lt;br&gt;Location: 1382941 - 1384438" locus_tag="input.path1.gene317" class="clusterblast-orf" id="dummy-4_q26_0_all"  />
<polygon points="753,35 758,30 759,30 759,40 758,40 753,35 " style="fill:white; stroke-width:1; stroke:black; " description="&lt;b&gt;input.path1.gene318&lt;/b&gt;&lt;br&gt;input.path1.gene318&lt;br&gt;Location: 1385704 - 1386399" locus_tag="input.path1.gene318" class="clusterblast-orf" id="dummy-4_q27_0_all"  />
<polygon points="765,40 766,40 771,35 766,30 765,30 765,40 " style="fill:white; stroke-width:1; stroke:black; " description="&lt;b&gt;input.path1.gene319&lt;/b&gt;&lt;br&gt;input.path1.gene319&lt;br&gt;Location: 1387110 - 1387809" locus_tag="input.path1.gene319" class="clusterblast-orf" id="dummy-4_q28_0_all"  />
<polygon points="771,35 776,30 780,30 780,40 776,40 771,35 " style="fill:white; stroke-width:1; stroke:black; " description="&lt;b&gt;input.path1.gene320&lt;/b&gt;&lt;br&gt;input.path1.gene320&lt;br&gt;Location: 1387805 - 1388761" locus_tag="input.path1.gene320" class="clusterblast-orf" id="dummy-4_q29_0_all"  />
</g>
<g label="BGC0001820" description="BGC0001820_c1: verticillin (76% of genes show similarity), NRP" class="clusterblast-cluster"  >
<text x="5" y="70" class="clusterblast-acc"  >
<a xlink:href="https://mibig.secondarymetabolites.org/go/BGC0001820/1" target="_blank">BGC0001820</a>: verticillin                                                                      (76% of genes show similarity), NRP</text>
<line x1="10" y1="85" x2="778.0" y2="85" style="stroke-width:1; stroke:grey; "  />
</g>
<g id="a4_000"  >
<polygon points="251,85 256,80 267,80 267,90 256,90 251,85 " style="fill:white; stroke-width:1; stroke:black; " description="&lt;b&gt;AQZ42168.1&lt;/b&gt;&lt;br&gt;putative cytochrome P450&lt;br&gt;Location: 9708 - 11524" locus_tag="AQZ42168.1" class="clusterblast-orf" id="dummy-4_h4_2_0"  />
</g>
<g id="a4_001"  >
<polygon points="275,85 280,80 289,80 289,90 280,90 275,85 " style="fill:white; stroke-width:1; stroke:black; " description="&lt;b&gt;AQZ42167.1&lt;/b&gt;&lt;br&gt;putative zinc finger&lt;br&gt;Location: 12541 - 14077" locus_tag="AQZ42167.1" class="clusterblast-orf" id="dummy-4_h4_2_1"  />
</g>
<g id="a4_002"  >
<polygon points="302,90 304,90 309,85 304,80 302,80 302,90 " style="fill:#d89715; stroke-width:1; stroke:black; " description="&lt;b&gt;AQZ42166.1&lt;/b&gt;&lt;br&gt;putative glutathione S-transferase&lt;br&gt;Location: 15599 - 16458&lt;br&gt;&lt;br&gt;&lt;b&gt;BlastP hit with input.path1.gene310&lt;/b&gt;&lt;br&gt;Percentage identity: 72&lt;br&gt;Percentage coverage: 43&lt;br&gt;BLAST bit score: 380&lt;br&gt;E-value: 2.09e-130" locus_tag="AQZ42166.1" class="clusterblast-orf" id="dummy-4_h4_2_2"  />
</g>
<g id="a4_003"  >
<polygon points="314,90 319,90 324,85 319,80 314,80 314,90 " style="fill:#d89715; stroke-width:1; stroke:black; " description="&lt;b&gt;AQZ42165.1&lt;/b&gt;&lt;br&gt;putative membrane dipeptidase&lt;br&gt;Location: 17058 - 18223&lt;br&gt;&lt;br&gt;&lt;b&gt;BlastP hit with input.path1.gene310&lt;/b&gt;&lt;br&gt;Percentage identity: 67&lt;br&gt;Percentage coverage: 56&lt;br&gt;BLAST bit score: 426&lt;br&gt;E-value: 3.37e-147" locus_tag="AQZ42165.1" class="clusterblast-orf" id="dummy-4_h4_2_3"  />
</g>
<g id="a4_004"  >
<polygon points="328,85 333,80 333,80 333,90 333,90 328,85 " style="fill:white; stroke-width:1; stroke:black; " description="&lt;b&gt;AQZ42164.1&lt;/b&gt;&lt;br&gt;putative Gamma-glutamylcyclotransferase&lt;br&gt;Location: 18636 - 19175" locus_tag="AQZ42164.1" class="clusterblast-orf" id="dummy-4_h4_2_4"  />
</g>
<g id="a4_005"  >
<polygon points="340,85 345,80 395,80 395,90 345,90 340,85 " style="fill:#15d897; stroke-width:1; stroke:black; " description="&lt;b&gt;AQZ42163.1&lt;/b&gt;&lt;br&gt;putative nonribosomal peptide synthase&lt;br&gt;Location: 20001 - 26319&lt;br&gt;&lt;br&gt;&lt;b&gt;BlastP hit with input.path1.gene311&lt;/b&gt;&lt;br&gt;Percentage identity: 48&lt;br&gt;Percentage coverage: 90&lt;br&gt;BLAST bit score: 1790&lt;br&gt;E-value: 0.0" locus_tag="AQZ42163.1" class="clusterblast-orf" id="dummy-4_h4_2_5"  />
</g>
<g id="a4_006"  >
<polygon points="398,90 405,90 410,85 405,80 398,80 398,90 " style="fill:#1515d8; stroke-width:1; stroke:black; " description="&lt;b&gt;AQZ42162.1&lt;/b&gt;&lt;br&gt;putative cytochrome P450 oxidoreductase&lt;br&gt;Location: 26677 - 28130&lt;br&gt;&lt;br&gt;&lt;b&gt;BlastP hit with input.path1.gene312&lt;/b&gt;&lt;br&gt;Percentage identity: 59&lt;br&gt;Percentage coverage: 80&lt;br&gt;BLAST bit score: 407&lt;br&gt;E-value: 6.92e-140" locus_tag="AQZ42162.1" class="clusterblast-orf" id="dummy-4_h4_2_6"  />
</g>
<g id="a4_007"  >
<polygon points="415,85 420,80 428,80 428,90 420,90 415,85 " style="fill:#d81597; stroke-width:1; stroke:black; " description="&lt;b&gt;AQZ42161.1&lt;/b&gt;&lt;br&gt;putative aminotransferase&lt;br&gt;Location: 28698 - 30166&lt;br&gt;&lt;br&gt;&lt;b&gt;BlastP hit with input.path1.gene313&lt;/b&gt;&lt;br&gt;Percentage identity: 56&lt;br&gt;Percentage coverage: 111&lt;br&gt;BLAST bit score: 454&lt;br&gt;E-value: 3.61e-159" locus_tag="AQZ42161.1" class="clusterblast-orf" id="dummy-4_h4_2_7"  />
</g>
<g id="a4_008"  >
<polygon points="432,90 436,90 441,85 436,80 432,80 432,90 " style="fill:#97d815; stroke-width:1; stroke:black; " description="&lt;b&gt;AQZ42160.1&lt;/b&gt;&lt;br&gt;putative methyltransferase&lt;br&gt;Location: 30658 - 31722&lt;br&gt;&lt;br&gt;&lt;b&gt;BlastP hit with input.path1.gene314&lt;/b&gt;&lt;br&gt;Percentage identity: 49&lt;br&gt;Percentage coverage: 121&lt;br&gt;BLAST bit score: 257&lt;br&gt;E-value: 3.2e-86" locus_tag="AQZ42160.1" class="clusterblast-orf" id="dummy-4_h4_2_8"  />
</g>
<g id="a4_009"  >
<polygon points="444,85 449,80 455,80 455,90 449,90 444,85 " style="fill:#1597d8; stroke-width:1; stroke:black; " description="&lt;b&gt;AQZ42159.1&lt;/b&gt;&lt;br&gt;putative O-methyltransferase&lt;br&gt;Location: 32049 - 33346&lt;br&gt;&lt;br&gt;&lt;b&gt;BlastP hit with input.path1.gene307&lt;/b&gt;&lt;br&gt;Percentage identity: 58&lt;br&gt;Percentage coverage: 98&lt;br&gt;BLAST bit score: 496&lt;br&gt;E-value: 3.5e-175" locus_tag="AQZ42159.1" class="clusterblast-orf" id="dummy-4_h4_2_9"  />
</g>
<g id="a4_0010"  >
<polygon points="458,85 463,80 473,80 473,90 463,90 458,85 " style="fill:#15d815; stroke-width:1; stroke:black; " description="&lt;b&gt;AQZ42158.1&lt;/b&gt;&lt;br&gt;putative cytochrome P450&lt;br&gt;Location: 33666 - 35415&lt;br&gt;&lt;br&gt;&lt;b&gt;BlastP hit with input.path1.gene306&lt;/b&gt;&lt;br&gt;Percentage identity: 82&lt;br&gt;Percentage coverage: 100&lt;br&gt;BLAST bit score: 856&lt;br&gt;E-value: 5.29e-314" locus_tag="AQZ42158.1" class="clusterblast-orf" id="dummy-4_h4_2_10"  />
</g>
<g id="a4_0011"  >
<polygon points="478,90 483,90 488,85 483,80 478,80 478,90 " style="fill:#d81515; stroke-width:1; stroke:black; " description="&lt;b&gt;AQZ42157.1&lt;/b&gt;&lt;br&gt;putative thioredoxin reductase&lt;br&gt;Location: 35997 - 37149&lt;br&gt;&lt;br&gt;&lt;b&gt;BlastP hit with input.path1.gene305&lt;/b&gt;&lt;br&gt;Percentage identity: 53&lt;br&gt;Percentage coverage: 42&lt;br&gt;BLAST bit score: 295&lt;br&gt;E-value: 4.25e-94" locus_tag="AQZ42157.1" class="clusterblast-orf" id="dummy-4_h4_2_11"  />
</g>
<g id="a4_0012"  >
<polygon points="491,85 496,80 528,80 528,90 496,90 491,85 " style="fill:#9715d8; stroke-width:1; stroke:black; " description="&lt;b&gt;AQZ42156.1&lt;/b&gt;&lt;br&gt;putative ABC multidrug transporter&lt;br&gt;Location: 37435 - 41767&lt;br&gt;&lt;br&gt;&lt;b&gt;BlastP hit with input.path1.gene308&lt;/b&gt;&lt;br&gt;Percentage identity: 64&lt;br&gt;Percentage coverage: 84&lt;br&gt;BLAST bit score: 1428&lt;br&gt;E-value: 0.0" locus_tag="AQZ42156.1" class="clusterblast-orf" id="dummy-4_h4_2_12"  />
</g>
</svg>
