<svg xmlns="http://www.w3.org/2000/svg" xmlns:xlink="http://www.w3.org/1999/xlink" version="1.1" x="0" y="0" height="230" width="800" viewBox="0 0 800 230" preserveAspectRatio="none"  >
<g label="Query sequence" class="clusterblast-cluster"  >
<text x="5" y="20" class="clusterblast-acc"  >
Query sequence</text>
<line x1="10" y1="35" x2="778.0" y2="35" style="stroke-width:1; stroke:grey; "  />
<polygon points="0,40 35,40 40,35 35,30 0,30 0,40 " style="fill:white; stroke-width:1; stroke:black; " description="&lt;b&gt;input.path1.gene87&lt;/b&gt;&lt;br&gt;input.path1.gene87&lt;br&gt;Location: 345176 - 347060" locus_tag="input.path1.gene87" class="clusterblast-orf" id="dummy-1_q0_0_all"  />
<polygon points="68,40 88,40 93,35 88,30 68,30 68,40 " style="fill:white; stroke-width:1; stroke:black; " description="&lt;b&gt;input.path1.gene88&lt;/b&gt;&lt;br&gt;input.path1.gene88&lt;br&gt;Location: 348348 - 349546" locus_tag="input.path1.gene88" class="clusterblast-orf" id="dummy-1_q1_0_all"  />
<polygon points="156,40 180,40 185,35 180,30 156,30 156,40 " style="fill:white; stroke-width:1; stroke:black; " description="&lt;b&gt;input.path1.gene89&lt;/b&gt;&lt;br&gt;input.path1.gene89&lt;br&gt;Location: 352473 - 353826" locus_tag="input.path1.gene89" class="clusterblast-orf" id="dummy-1_q2_0_all"  />
<polygon points="188,35 193,30 260,30 260,40 193,40 188,35 " style="fill:#d81515; stroke-width:1; stroke:black; " description="&lt;b&gt;input.path1.gene90&lt;/b&gt;&lt;br&gt;input.path1.gene90&lt;br&gt;Location: 353963 - 357358" locus_tag="input.path1.gene90" class="clusterblast-orf" id="dummy-1_q3_0_all"  />
<polygon points="267,35 272,30 273,30 273,40 272,40 267,35 " style="fill:white; stroke-width:1; stroke:black; " description="&lt;b&gt;input.path1.gene91&lt;/b&gt;&lt;br&gt;input.path1.gene91&lt;br&gt;Location: 357700 - 357974" locus_tag="input.path1.gene91" class="clusterblast-orf" id="dummy-1_q4_0_all"  />
<polygon points="278,40 280,40 285,35 280,30 278,30 278,40 " style="fill:#77d815; stroke-width:1; stroke:black; " description="&lt;b&gt;input.path1.gene92&lt;/b&gt;&lt;br&gt;input.path1.gene92&lt;br&gt;Location: 358210 - 358537" locus_tag="input.path1.gene92" class="clusterblast-orf" id="dummy-1_q5_0_all"  />
<polygon points="317,40 439,40 444,35 439,30 317,30 317,40 " style="fill:#15d8d8; stroke-width:1; stroke:black; " description="&lt;b&gt;input.path1.gene93&lt;/b&gt;&lt;br&gt;input.path1.gene93&lt;br&gt;Location: 360026 - 365937" locus_tag="input.path1.gene93" class="clusterblast-orf" id="dummy-1_q6_0_all"  />
<polygon points="531,35 536,30 552,30 552,40 536,40 531,35 " style="fill:#7715d8; stroke-width:1; stroke:black; " description="&lt;b&gt;input.path1.gene94&lt;/b&gt;&lt;br&gt;input.path1.gene94&lt;br&gt;Location: 370017 - 370984" locus_tag="input.path1.gene94" class="clusterblast-orf" id="dummy-1_q7_0_all"  />
<polygon points="557,40 586,40 591,35 586,30 557,30 557,40 " style="fill:white; stroke-width:1; stroke:black; " description="&lt;b&gt;input.path1.gene95&lt;/b&gt;&lt;br&gt;input.path1.gene95&lt;br&gt;Location: 371240 - 372849" locus_tag="input.path1.gene95" class="clusterblast-orf" id="dummy-1_q8_0_all"  />
<polygon points="613,40 743,40 748,35 743,30 613,30 613,40 " style="fill:white; stroke-width:1; stroke:black; " description="&lt;b&gt;input.path1.gene96&lt;/b&gt;&lt;br&gt;input.path1.gene96&lt;br&gt;Location: 373875 - 380174" locus_tag="input.path1.gene96" class="clusterblast-orf" id="dummy-1_q9_0_all"  />
<polygon points="766,35 771,30 780,30 780,40 771,40 766,35 " style="fill:white; stroke-width:1; stroke:black; " description="&lt;b&gt;input.path1.gene97&lt;/b&gt;&lt;br&gt;input.path1.gene97&lt;br&gt;Location: 381013 - 381657" locus_tag="input.path1.gene97" class="clusterblast-orf" id="dummy-1_q10_0_all"  />
</g>
<g label="BGC0002608" description="BGC0002608_c1: ochratoxin A (100% of genes show similarity), NRP+Polyketide" class="clusterblast-cluster"  >
<text x="5" y="70" class="clusterblast-acc"  >
<a xlink:href="https://mibig.secondarymetabolites.org/go/BGC0002608/1" target="_blank">BGC0002608</a>: ochratoxin A                                                                     (100% of genes show similarity), NRP+Polyketide</text>
<line x1="10" y1="85" x2="778.0" y2="85" style="stroke-width:1; stroke:grey; "  />
</g>
<g id="a1_000"  >
<polygon points="371,85 376,80 408,80 408,90 376,90 371,85 " style="fill:#d81515; stroke-width:1; stroke:black; " description="&lt;b&gt;AUS29501.1&lt;/b&gt;&lt;br&gt;halogenase&lt;br&gt;Location: 1 - 1774&lt;br&gt;&lt;br&gt;&lt;b&gt;BlastP hit with input.path1.gene90&lt;/b&gt;&lt;br&gt;Percentage identity: 51&lt;br&gt;Percentage coverage: 54&lt;br&gt;BLAST bit score: 486&lt;br&gt;E-value: 5.65e-162" locus_tag="AUS29501.1" class="clusterblast-orf" id="dummy-1_h1_10_0"  />
</g>
</svg>
