<svg xmlns="http://www.w3.org/2000/svg" xmlns:xlink="http://www.w3.org/1999/xlink" version="1.1" x="0" y="0" height="400" width="800" viewBox="0 0 800 400" preserveAspectRatio="none"  >
<g label="Query sequence" class="clusterblast-cluster"  >
<text x="5" y="20" class="clusterblast-acc"  >
Query sequence</text>
<line x1="10" y1="35" x2="778.0" y2="35" style="stroke-width:1; stroke:grey; "  />
<polygon points="0,40 43,40 48,35 43,30 0,30 0,40 " style="fill:white; stroke-width:1; stroke:black; " description="&lt;b&gt;input.path1.gene1807&lt;/b&gt;&lt;br&gt;input.path1.gene1807&lt;br&gt;Location: 6775614 - 6778665" locus_tag="input.path1.gene1807" class="clusterblast-orf" id="knownclusterblast-4_q0_0_all"  />
<polygon points="78,35 83,30 105,30 105,40 83,40 78,35 " style="fill:#d81515; stroke-width:1; stroke:black; " description="&lt;b&gt;input.path1.gene1808&lt;/b&gt;&lt;br&gt;input.path1.gene1808&lt;br&gt;Location: 6780499 - 6782196" locus_tag="input.path1.gene1808" class="clusterblast-orf" id="knownclusterblast-4_q1_0_all"  />
<polygon points="120,40 127,40 132,35 127,30 120,30 120,40 " style="fill:#77d815; stroke-width:1; stroke:black; " description="&lt;b&gt;input.path1.gene1809&lt;/b&gt;&lt;br&gt;input.path1.gene1809&lt;br&gt;Location: 6783151 - 6783883" locus_tag="input.path1.gene1809" class="clusterblast-orf" id="knownclusterblast-4_q2_0_all"  />
<polygon points="184,35 189,30 203,30 203,40 189,40 184,35 " style="fill:#15d8d8; stroke-width:1; stroke:black; " description="&lt;b&gt;input.path1.gene1810&lt;/b&gt;&lt;br&gt;input.path1.gene1810&lt;br&gt;Location: 6787158 - 6788301" locus_tag="input.path1.gene1810" class="clusterblast-orf" id="knownclusterblast-4_q3_0_all"  />
<polygon points="232,40 422,40 427,35 422,30 232,30 232,40 " style="fill:#7715d8; stroke-width:1; stroke:black; " description="&lt;b&gt;input.path1.gene1811&lt;/b&gt;&lt;br&gt;input.path1.gene1811&lt;br&gt;Location: 6790149 - 6802305" locus_tag="input.path1.gene1811" class="clusterblast-orf" id="knownclusterblast-4_q4_0_all"  />
<polygon points="612,35 617,30 624,30 624,40 617,40 612,35 " style="fill:white; stroke-width:1; stroke:black; " description="&lt;b&gt;input.path1.gene1812&lt;/b&gt;&lt;br&gt;input.path1.gene1812&lt;br&gt;Location: 6813918 - 6814680" locus_tag="input.path1.gene1812" class="clusterblast-orf" id="knownclusterblast-4_q5_0_all"  />
<polygon points="754,40 758,40 763,35 758,30 754,30 754,40 " style="fill:white; stroke-width:1; stroke:black; " description="&lt;b&gt;input.path1.gene1813&lt;/b&gt;&lt;br&gt;input.path1.gene1813&lt;br&gt;Location: 6822771 - 6823313" locus_tag="input.path1.gene1813" class="clusterblast-orf" id="knownclusterblast-4_q6_0_all"  />
<polygon points="773,40 775,40 780,35 775,30 773,30 773,40 " style="fill:white; stroke-width:1; stroke:black; " description="&lt;b&gt;input.path1.gene1814&lt;/b&gt;&lt;br&gt;input.path1.gene1814&lt;br&gt;Location: 6823965 - 6824385" locus_tag="input.path1.gene1814" class="clusterblast-orf" id="knownclusterblast-4_q7_0_all"  />
</g>
<g label="BGC0001136" description="BGC0001136_c1: desmethylbassianin (60% of genes show similarity), NRP+Polyketide:Iterative type I polyketide" class="clusterblast-cluster"  >
<text x="5" y="70" class="clusterblast-acc"  >
<a xlink:href="https://mibig.secondarymetabolites.org/go/BGC0001136/1" target="_blank">BGC0001136</a>: desmethylbassianin                                                               (60% of genes show similarity), NRP+Polyketide:Iterative type I polyketide</text>
<line x1="10" y1="85" x2="778.0" y2="85" style="stroke-width:1; stroke:grey; "  />
</g>
<g id="a4_000"  >
<polygon points="228,85 230,80 230,90 228,85 " style="fill:white; stroke-width:1; stroke:black; " description="&lt;b&gt;ADN43681.1&lt;/b&gt;&lt;br&gt;hypothetical protein&lt;br&gt;Location: 1 - 88" locus_tag="ADN43681.1" class="clusterblast-orf" id="knownclusterblast-4_all_4_1_0"  />
</g>
<g id="a4_001"  >
<polygon points="250,90 271,90 276,85 271,80 250,80 250,90 " style="fill:#d81515; stroke-width:1; stroke:black; " description="&lt;b&gt;ADN43682.1&lt;/b&gt;&lt;br&gt;P450&lt;br&gt;Location: 1334 - 2986&lt;br&gt;&lt;br&gt;&lt;b&gt;BlastP hit with input.path1.gene1808&lt;/b&gt;&lt;br&gt;Percentage identity: 52&lt;br&gt;Percentage coverage: 113&lt;br&gt;BLAST bit score: 493&lt;br&gt;E-value: 2.16e-172" locus_tag="ADN43682.1" class="clusterblast-orf" id="knownclusterblast-4_all_4_1_1"  />
</g>
<g id="a4_002"  >
<polygon points="283,85 288,80 309,80 309,90 288,90 283,85 " style="fill:white; stroke-width:1; stroke:black; " description="&lt;b&gt;ADN43683.1&lt;/b&gt;&lt;br&gt;P450&lt;br&gt;Location: 3394 - 5070" locus_tag="ADN43683.1" class="clusterblast-orf" id="knownclusterblast-4_all_4_1_2"  />
</g>
<g id="a4_003"  >
<polygon points="319,85 324,80 337,80 337,90 324,90 319,85 " style="fill:#15d8d8; stroke-width:1; stroke:black; " description="&lt;b&gt;ADN43684.1&lt;/b&gt;&lt;br&gt;ER&lt;br&gt;Location: 5654 - 6823&lt;br&gt;&lt;br&gt;&lt;b&gt;BlastP hit with input.path1.gene1810&lt;/b&gt;&lt;br&gt;Percentage identity: 48&lt;br&gt;Percentage coverage: 67&lt;br&gt;BLAST bit score: 140&lt;br&gt;E-value: 3.1e-39" locus_tag="ADN43684.1" class="clusterblast-orf" id="knownclusterblast-4_all_4_1_3"  />
</g>
<g id="a4_004"  >
<polygon points="348,90 546,90 551,85 546,80 348,80 348,90 " style="fill:#7715d8; stroke-width:1; stroke:black; " description="&lt;b&gt;ADN43685.1&lt;/b&gt;&lt;br&gt;PKS-NRPS&lt;br&gt;Location: 7496 - 20147&lt;br&gt;&lt;br&gt;&lt;b&gt;BlastP hit with input.path1.gene1811&lt;/b&gt;&lt;br&gt;Percentage identity: 50&lt;br&gt;Percentage coverage: 104&lt;br&gt;BLAST bit score: 3880&lt;br&gt;E-value: 0.0" locus_tag="ADN43685.1" class="clusterblast-orf" id="knownclusterblast-4_all_4_1_4"  />
</g>
<g label="BGC0001049" description="BGC0001049_c1: tenellin (75% of genes show similarity), NRP+Polyketide:Iterative type I polyketide" class="clusterblast-cluster"  >
<text x="5" y="120" class="clusterblast-acc"  >
<a xlink:href="https://mibig.secondarymetabolites.org/go/BGC0001049/1" target="_blank">BGC0001049</a>: tenellin                                                                         (75% of genes show similarity), NRP+Polyketide:Iterative type I polyketide</text>
<line x1="10" y1="135" x2="778.0" y2="135" style="stroke-width:1; stroke:grey; "  />
</g>
<g id="a4_000"  >
<polygon points="236,140 258,140 263,135 258,130 236,130 236,140 " style="fill:#d81515; stroke-width:1; stroke:black; " description="&lt;b&gt;CAL69594.1&lt;/b&gt;&lt;br&gt;hypothetical protein&lt;br&gt;Location: 1 - 1653&lt;br&gt;&lt;br&gt;&lt;b&gt;BlastP hit with input.path1.gene1808&lt;/b&gt;&lt;br&gt;Percentage identity: 52&lt;br&gt;Percentage coverage: 113&lt;br&gt;BLAST bit score: 490&lt;br&gt;E-value: 2.48e-171" locus_tag="CAL69594.1" class="clusterblast-orf" id="knownclusterblast-4_all_4_2_0"  />
</g>
<g id="a4_001"  >
<polygon points="269,135 274,130 296,130 296,140 274,140 269,135 " style="fill:white; stroke-width:1; stroke:black; " description="&lt;b&gt;CAL69595.1&lt;/b&gt;&lt;br&gt;hypothetical protein&lt;br&gt;Location: 2061 - 3737" locus_tag="CAL69595.1" class="clusterblast-orf" id="knownclusterblast-4_all_4_2_1"  />
</g>
<g id="a4_002"  >
<polygon points="306,135 311,130 325,130 325,140 311,140 306,135 " style="fill:#15d8d8; stroke-width:1; stroke:black; " description="&lt;b&gt;CAL69596.1&lt;/b&gt;&lt;br&gt;hypothetical protein&lt;br&gt;Location: 4377 - 5543&lt;br&gt;&lt;br&gt;&lt;b&gt;BlastP hit with input.path1.gene1810&lt;/b&gt;&lt;br&gt;Percentage identity: 46&lt;br&gt;Percentage coverage: 67&lt;br&gt;BLAST bit score: 138&lt;br&gt;E-value: 1.17e-38" locus_tag="CAL69596.1" class="clusterblast-orf" id="knownclusterblast-4_all_4_2_2"  />
</g>
<g id="a4_003"  >
<polygon points="336,140 538,140 543,135 538,130 336,130 336,140 " style="fill:#7715d8; stroke-width:1; stroke:black; " description="&lt;b&gt;CAL69597.1&lt;/b&gt;&lt;br&gt;PKS-NRPS&lt;br&gt;Location: 6225 - 19176&lt;br&gt;&lt;br&gt;&lt;b&gt;BlastP hit with input.path1.gene1811&lt;/b&gt;&lt;br&gt;Percentage identity: 48&lt;br&gt;Percentage coverage: 105&lt;br&gt;BLAST bit score: 3722&lt;br&gt;E-value: 0.0" locus_tag="CAL69597.1" class="clusterblast-orf" id="knownclusterblast-4_all_4_2_3"  />
</g>
<g label="BGC0002035" description="BGC0002035_c1: ilicicolin H/ilicicolin J/8-epi-ilicicolin H (60% of genes show similarity), NRP+Polyketide" class="clusterblast-cluster"  >
<text x="5" y="170" class="clusterblast-acc"  >
<a xlink:href="https://mibig.secondarymetabolites.org/go/BGC0002035/1" target="_blank">BGC0002035</a>: ilicicolin H/ilicicolin J/8-epi-ilicicolin H                                     (60% of genes show similarity), NRP+Polyketide</text>
<line x1="10" y1="185" x2="778.0" y2="185" style="stroke-width:1; stroke:grey; "  />
</g>
<g id="a4_000"  >
<polygon points="228,185 233,180 253,180 253,190 233,190 228,185 " style="fill:#d81515; stroke-width:1; stroke:black; " description="&lt;b&gt;iliC&lt;/b&gt;&lt;br&gt;&lt;br&gt;Location: 21596 - 20060&lt;br&gt;&lt;br&gt;&lt;b&gt;BlastP hit with input.path1.gene1808&lt;/b&gt;&lt;br&gt;Percentage identity: 53&lt;br&gt;Percentage coverage: 103&lt;br&gt;BLAST bit score: 463&lt;br&gt;E-value: 1.45e-161" locus_tag="iliC" class="clusterblast-orf" id="knownclusterblast-4_all_4_3_0"  />
</g>
<g id="a4_001"  >
<polygon points="264,190 284,190 289,185 284,180 264,180 264,190 " style="fill:#77d815; stroke-width:1; stroke:black; " description="&lt;b&gt;iliD&lt;/b&gt;&lt;br&gt;&lt;br&gt;Location: 19345 - 17760&lt;br&gt;&lt;br&gt;&lt;b&gt;BlastP hit with input.path1.gene1809&lt;/b&gt;&lt;br&gt;Percentage identity: 54&lt;br&gt;Percentage coverage: 93&lt;br&gt;BLAST bit score: 173&lt;br&gt;E-value: 1.74e-54" locus_tag="iliD" class="clusterblast-orf" id="knownclusterblast-4_all_4_3_1"  />
</g>
<g id="a4_002"  >
<polygon points="292,185 297,180 310,180 310,190 297,190 292,185 " style="fill:white; stroke-width:1; stroke:black; " description="&lt;b&gt;iliB&lt;/b&gt;&lt;br&gt;&lt;br&gt;Location: 17614 - 16469" locus_tag="iliB" class="clusterblast-orf" id="knownclusterblast-4_all_4_3_2"  />
</g>
<g id="a4_003"  >
<polygon points="324,190 514,190 519,185 514,180 324,180 324,190 " style="fill:#7715d8; stroke-width:1; stroke:black; " description="&lt;b&gt;iliA&lt;/b&gt;&lt;br&gt;&lt;br&gt;Location: 15590 - 3426&lt;br&gt;&lt;br&gt;&lt;b&gt;BlastP hit with input.path1.gene1811&lt;/b&gt;&lt;br&gt;Percentage identity: 60&lt;br&gt;Percentage coverage: 101&lt;br&gt;BLAST bit score: 4819&lt;br&gt;E-value: 0.0" locus_tag="iliA" class="clusterblast-orf" id="knownclusterblast-4_all_4_3_3"  />
</g>
<g id="a4_004"  >
<polygon points="523,190 546,190 551,185 546,180 523,180 523,190 " style="fill:white; stroke-width:1; stroke:black; " description="&lt;b&gt;iliE&lt;/b&gt;&lt;br&gt;&lt;br&gt;Location: 3141 - 1396" locus_tag="iliE" class="clusterblast-orf" id="knownclusterblast-4_all_4_3_4"  />
</g>
<g label="BGC0002093" description="BGC0002093_c1: ilicicolin H (37% of genes show similarity), Polyketide+NRP" class="clusterblast-cluster"  >
<text x="5" y="220" class="clusterblast-acc"  >
<a xlink:href="https://mibig.secondarymetabolites.org/go/BGC0002093/1" target="_blank">BGC0002093</a>: ilicicolin H                                                                     (37% of genes show similarity), Polyketide+NRP</text>
<line x1="10" y1="235" x2="778.0" y2="235" style="stroke-width:1; stroke:grey; "  />
</g>
<g id="a4_000"  >
<polygon points="139,235 144,230 161,230 161,240 144,240 139,235 " style="fill:white; stroke-width:1; stroke:black; " description="&lt;b&gt;QBQ83711.1&lt;/b&gt;&lt;br&gt;NADH-dependent flavin oxidoreductase&lt;br&gt;Location: 39745 - 38367" locus_tag="QBQ83711.1" class="clusterblast-orf" id="knownclusterblast-4_all_4_4_0"  />
</g>
<g id="a4_001"  >
<polygon points="178,240 191,240 196,235 191,230 178,230 178,240 " style="fill:white; stroke-width:1; stroke:black; " description="&lt;b&gt;QBQ83710.1&lt;/b&gt;&lt;br&gt;trans-enoyl reductase&lt;br&gt;Location: 37259 - 36132" locus_tag="QBQ83710.1" class="clusterblast-orf" id="knownclusterblast-4_all_4_4_1"  />
</g>
<g id="a4_002"  >
<polygon points="206,235 211,230 232,230 232,240 211,240 206,235 " style="fill:white; stroke-width:1; stroke:black; " description="&lt;b&gt;QBQ83709.1&lt;/b&gt;&lt;br&gt;cytochrome P450&lt;br&gt;Location: 35550 - 33889" locus_tag="QBQ83709.1" class="clusterblast-orf" id="knownclusterblast-4_all_4_4_2"  />
</g>
<g id="a4_003"  >
<polygon points="240,240 250,240 255,235 250,230 240,230 240,240 " style="fill:#77d815; stroke-width:1; stroke:black; " description="&lt;b&gt;QBQ83708.1&lt;/b&gt;&lt;br&gt;Diels-Alderase&lt;br&gt;Location: 33408 - 32464&lt;br&gt;&lt;br&gt;&lt;b&gt;BlastP hit with input.path1.gene1809&lt;/b&gt;&lt;br&gt;Percentage identity: 58&lt;br&gt;Percentage coverage: 93&lt;br&gt;BLAST bit score: 207&lt;br&gt;E-value: 3.63e-67" locus_tag="QBQ83708.1" class="clusterblast-orf" id="knownclusterblast-4_all_4_4_3"  />
</g>
<g id="a4_004"  >
<polygon points="259,235 264,230 284,230 284,240 264,240 259,235 " style="fill:white; stroke-width:1; stroke:black; " description="&lt;b&gt;QBQ83707.1&lt;/b&gt;&lt;br&gt;epimerase&lt;br&gt;Location: 32208 - 30654" locus_tag="QBQ83707.1" class="clusterblast-orf" id="knownclusterblast-4_all_4_4_4"  />
</g>
<g id="a4_005"  >
<polygon points="292,240 307,240 312,235 307,230 292,230 292,240 " style="fill:white; stroke-width:1; stroke:black; " description="&lt;b&gt;QBQ83706.1&lt;/b&gt;&lt;br&gt;short-chain dehydrogenase TIC 32&lt;br&gt;Location: 30159 - 28927" locus_tag="QBQ83706.1" class="clusterblast-orf" id="knownclusterblast-4_all_4_4_5"  />
</g>
<g id="a4_006"  >
<polygon points="401,235 406,230 427,230 427,240 406,240 401,235 " style="fill:#d81515; stroke-width:1; stroke:black; " description="&lt;b&gt;QBQ83705.1&lt;/b&gt;&lt;br&gt;ring expansion P450&lt;br&gt;Location: 23336 - 21712&lt;br&gt;&lt;br&gt;&lt;b&gt;BlastP hit with input.path1.gene1808&lt;/b&gt;&lt;br&gt;Percentage identity: 55&lt;br&gt;Percentage coverage: 113&lt;br&gt;BLAST bit score: 536&lt;br&gt;E-value: 2.77e-189" locus_tag="QBQ83705.1" class="clusterblast-orf" id="knownclusterblast-4_all_4_4_6"  />
</g>
<g id="a4_007"  >
<polygon points="447,240 635,240 640,235 635,230 447,230 447,240 " style="fill:#7715d8; stroke-width:1; stroke:black; " description="&lt;b&gt;QBQ83704.1&lt;/b&gt;&lt;br&gt;polyketide synthase-nonribosomal peptide synthetase&lt;br&gt;Location: 20470 - 8376&lt;br&gt;&lt;br&gt;&lt;b&gt;BlastP hit with input.path1.gene1811&lt;/b&gt;&lt;br&gt;Percentage identity: 57&lt;br&gt;Percentage coverage: 100&lt;br&gt;BLAST bit score: 4559&lt;br&gt;E-value: 0.0" locus_tag="QBQ83704.1" class="clusterblast-orf" id="knownclusterblast-4_all_4_4_7"  />
</g>
<g label="BGC0001218" description="BGC0001218_c1: fumosorinone (33% of genes show similarity), NRP+Polyketide" class="clusterblast-cluster"  >
<text x="5" y="270" class="clusterblast-acc"  >
<a xlink:href="https://mibig.secondarymetabolites.org/go/BGC0001218/1" target="_blank">BGC0001218</a>: fumosorinone                                                                     (33% of genes show similarity), NRP+Polyketide</text>
<line x1="10" y1="285" x2="778.0" y2="285" style="stroke-width:1; stroke:grey; "  />
</g>
<g id="a4_000"  >
<polygon points="189,290 199,290 204,285 199,280 189,280 189,290 " style="fill:white; stroke-width:1; stroke:black; " description="&lt;b&gt;AKC54417.1&lt;/b&gt;&lt;br&gt;kinesin motor domain-containing protein&lt;br&gt;Location: 1350 - 2246" locus_tag="AKC54417.1" class="clusterblast-orf" id="knownclusterblast-4_all_4_5_0"  />
</g>
<g id="a4_001"  >
<polygon points="226,285 231,280 271,280 271,290 231,290 226,285 " style="fill:white; stroke-width:1; stroke:black; " description="&lt;b&gt;AKC54418.1&lt;/b&gt;&lt;br&gt;C6-zinc finger domain-containing protein&lt;br&gt;Location: 3671 - 6460" locus_tag="AKC54418.1" class="clusterblast-orf" id="knownclusterblast-4_all_4_5_1"  />
</g>
<g id="a4_002"  >
<polygon points="296,290 318,290 323,285 318,280 296,280 296,290 " style="fill:#d81515; stroke-width:1; stroke:black; " description="&lt;b&gt;AKC54420.1&lt;/b&gt;&lt;br&gt;cytochrome P450 monooxygenase&lt;br&gt;Location: 8023 - 9716&lt;br&gt;&lt;br&gt;&lt;b&gt;BlastP hit with input.path1.gene1808&lt;/b&gt;&lt;br&gt;Percentage identity: 52&lt;br&gt;Percentage coverage: 114&lt;br&gt;BLAST bit score: 498&lt;br&gt;E-value: 2.39e-174" locus_tag="AKC54420.1" class="clusterblast-orf" id="knownclusterblast-4_all_4_5_2"  />
</g>
<g id="a4_003"  >
<polygon points="327,285 332,280 354,280 354,290 332,290 327,285 " style="fill:white; stroke-width:1; stroke:black; " description="&lt;b&gt;AKC54421.1&lt;/b&gt;&lt;br&gt;cytochrome P450 monooxygenase&lt;br&gt;Location: 9990 - 11630" locus_tag="AKC54421.1" class="clusterblast-orf" id="knownclusterblast-4_all_4_5_3"  />
</g>
<g id="a4_004"  >
<polygon points="363,285 368,280 382,280 382,290 368,290 363,285 " style="fill:white; stroke-width:1; stroke:black; " description="&lt;b&gt;AKC54419.1&lt;/b&gt;&lt;br&gt;trans enoyl-reductase&lt;br&gt;Location: 12207 - 13391" locus_tag="AKC54419.1" class="clusterblast-orf" id="knownclusterblast-4_all_4_5_4"  />
</g>
<g id="a4_005"  >
<polygon points="391,290 585,290 590,285 585,280 391,280 391,290 " style="fill:#7715d8; stroke-width:1; stroke:black; " description="&lt;b&gt;AKC54422.1&lt;/b&gt;&lt;br&gt;fumosorinone biosynthesis polyketide synthase&lt;br&gt;Location: 13982 - 26398&lt;br&gt;&lt;br&gt;&lt;b&gt;BlastP hit with input.path1.gene1811&lt;/b&gt;&lt;br&gt;Percentage identity: 50&lt;br&gt;Percentage coverage: 104&lt;br&gt;BLAST bit score: 3727&lt;br&gt;E-value: 0.0" locus_tag="AKC54422.1" class="clusterblast-orf" id="knownclusterblast-4_all_4_5_5"  />
</g>
<g label="BGC0002066" description="BGC0002066_c1: harzianopyridone (20% of genes show similarity), NRP+Polyketide:Iterative type I polyketide" class="clusterblast-cluster"  >
<text x="5" y="320" class="clusterblast-acc"  >
<a xlink:href="https://mibig.secondarymetabolites.org/go/BGC0002066/1" target="_blank">BGC0002066</a>: harzianopyridone                                                                 (20% of genes show similarity), NRP+Polyketide:Iterative type I polyketide</text>
<line x1="10" y1="335" x2="778.0" y2="335" style="stroke-width:1; stroke:grey; "  />
</g>
<g id="a4_000"  >
<polygon points="130,335 135,330 169,330 169,340 135,340 130,335 " style="fill:white; stroke-width:1; stroke:black; " description="&lt;b&gt;THAR02_03291&lt;/b&gt;&lt;br&gt;major facilitator superfamily transporter&lt;br&gt;Location: 32436 - 30004" locus_tag="THAR02_03291" class="clusterblast-orf" id="knownclusterblast-4_all_4_6_0"  />
</g>
<g id="a4_001"  >
<polygon points="185,340 200,340 205,335 200,330 185,330 185,340 " style="fill:white; stroke-width:1; stroke:black; " description="&lt;b&gt;THAR02_03290&lt;/b&gt;&lt;br&gt;Transcription factor&lt;br&gt;Location: 28975 - 27764" locus_tag="THAR02_03290" class="clusterblast-orf" id="knownclusterblast-4_all_4_6_1"  />
</g>
<g id="a4_002"  >
<polygon points="209,335 214,330 399,330 399,340 214,340 209,335 " style="fill:white; stroke-width:1; stroke:black; " description="&lt;b&gt;THAR02_03289&lt;/b&gt;&lt;br&gt;Non-ribosomal peptide synthetase - Polyketide synthase&lt;br&gt;Location: 27514 - 15647" locus_tag="THAR02_03289" class="clusterblast-orf" id="knownclusterblast-4_all_4_6_2"  />
</g>
<g id="a4_003"  >
<polygon points="410,340 431,340 436,335 431,330 410,330 410,340 " style="fill:#d81515; stroke-width:1; stroke:black; " description="&lt;b&gt;THAR02_03288&lt;/b&gt;&lt;br&gt;cytochrome P450 monooxygenase&lt;br&gt;Location: 14937 - 13317&lt;br&gt;&lt;br&gt;&lt;b&gt;BlastP hit with input.path1.gene1808&lt;/b&gt;&lt;br&gt;Percentage identity: 46&lt;br&gt;Percentage coverage: 109&lt;br&gt;BLAST bit score: 423&lt;br&gt;E-value: 4.67e-145" locus_tag="THAR02_03288" class="clusterblast-orf" id="knownclusterblast-4_all_4_6_3"  />
</g>
<g id="a4_004"  >
<polygon points="443,335 448,330 469,330 469,340 448,340 443,335 " style="fill:white; stroke-width:1; stroke:black; " description="&lt;b&gt;THAR02_03287&lt;/b&gt;&lt;br&gt;Flavin-dependent monooxygenase&lt;br&gt;Location: 12861 - 11227" locus_tag="THAR02_03287" class="clusterblast-orf" id="knownclusterblast-4_all_4_6_4"  />
</g>
<g id="a4_005"  >
<polygon points="480,335 485,330 498,330 498,340 485,340 480,335 " style="fill:#15d8d8; stroke-width:1; stroke:black; " description="&lt;b&gt;THAR02_03286&lt;/b&gt;&lt;br&gt;trans enoyl-reductase&lt;br&gt;Location: 10558 - 9445&lt;br&gt;&lt;br&gt;&lt;b&gt;BlastP hit with input.path1.gene1810&lt;/b&gt;&lt;br&gt;Percentage identity: 47&lt;br&gt;Percentage coverage: 76&lt;br&gt;BLAST bit score: 147&lt;br&gt;E-value: 1.74e-42" locus_tag="THAR02_03286" class="clusterblast-orf" id="knownclusterblast-4_all_4_6_5"  />
</g>
<g id="a4_006"  >
<polygon points="504,340 530,340 535,335 530,330 504,330 504,340 " style="fill:white; stroke-width:1; stroke:black; " description="&lt;b&gt;THAR02_03285&lt;/b&gt;&lt;br&gt;cytochrome P450 monooxygenase&lt;br&gt;Location: 9060 - 7108" locus_tag="THAR02_03285" class="clusterblast-orf" id="knownclusterblast-4_all_4_6_6"  />
</g>
<g id="a4_007"  >
<polygon points="544,335 549,330 566,330 566,340 549,340 544,335 " style="fill:white; stroke-width:1; stroke:black; " description="&lt;b&gt;THAR02_03284&lt;/b&gt;&lt;br&gt;Flavin-dependent monooxygenase&lt;br&gt;Location: 6536 - 5191" locus_tag="THAR02_03284" class="clusterblast-orf" id="knownclusterblast-4_all_4_6_7"  />
</g>
<g id="a4_008"  >
<polygon points="585,340 602,340 607,335 602,330 585,330 585,340 " style="fill:white; stroke-width:1; stroke:black; " description="&lt;b&gt;THAR02_03283&lt;/b&gt;&lt;br&gt;O-methyl transferase&lt;br&gt;Location: 3991 - 2616" locus_tag="THAR02_03283" class="clusterblast-orf" id="knownclusterblast-4_all_4_6_8"  />
</g>
<g id="a4_009"  >
<polygon points="612,335 617,330 649,330 649,340 617,340 612,335 " style="fill:white; stroke-width:1; stroke:black; " description="&lt;b&gt;THAR02_03282&lt;/b&gt;&lt;br&gt;Transcription factor&lt;br&gt;Location: 2323 - 1" locus_tag="THAR02_03282" class="clusterblast-orf" id="knownclusterblast-4_all_4_6_9"  />
</g>
<g label="BGC0000968" description="BGC0000968_c1: chaetoglobosin A/chaetoglobosin C (28% of genes show similarity), NRP+Polyketide:Iterative type I polyketide" class="clusterblast-cluster"  >
<text x="5" y="370" class="clusterblast-acc"  >
<a xlink:href="https://mibig.secondarymetabolites.org/go/BGC0000968/1" target="_blank">BGC0000968</a>: chaetoglobosin A/chaetoglobosin C                                                (28% of genes show similarity), NRP+Polyketide:Iterative type I polyketide</text>
<line x1="10" y1="385" x2="778.0" y2="385" style="stroke-width:1; stroke:grey; "  />
</g>
<g id="a4_000"  >
<polygon points="182,390 212,390 217,385 212,380 182,380 182,390 " style="fill:white; stroke-width:1; stroke:black; " description="&lt;b&gt;CAO91859.1&lt;/b&gt;&lt;br&gt;putative transcription factor&lt;br&gt;Location: 1 - 2204" locus_tag="CAO91859.1" class="clusterblast-orf" id="knownclusterblast-4_all_4_7_0"  />
</g>
<g id="a4_001"  >
<polygon points="222,385 227,380 241,380 241,390 227,390 222,385 " style="fill:#15d8d8; stroke-width:1; stroke:black; " description="&lt;b&gt;CAO91860.1&lt;/b&gt;&lt;br&gt;putative enoyl reductase&lt;br&gt;Location: 2478 - 3661&lt;br&gt;&lt;br&gt;&lt;b&gt;BlastP hit with input.path1.gene1810&lt;/b&gt;&lt;br&gt;Percentage identity: 46&lt;br&gt;Percentage coverage: 63&lt;br&gt;BLAST bit score: 129&lt;br&gt;E-value: 2.86e-35" locus_tag="CAO91860.1" class="clusterblast-orf" id="knownclusterblast-4_all_4_7_1"  />
</g>
<g id="a4_002"  >
<polygon points="249,390 437,390 442,385 437,380 249,380 249,390 " style="fill:white; stroke-width:1; stroke:black; " description="&lt;b&gt;CAO91861.1&lt;/b&gt;&lt;br&gt;PKS-NRPS hybrid&lt;br&gt;Location: 4198 - 16239" locus_tag="CAO91861.1" class="clusterblast-orf" id="knownclusterblast-4_all_4_7_2"  />
</g>
<g id="a4_003"  >
<polygon points="451,385 456,380 482,380 482,390 456,390 451,385 " style="fill:white; stroke-width:1; stroke:black; " description="&lt;b&gt;CAO91862.1&lt;/b&gt;&lt;br&gt;putative monooxygenase&lt;br&gt;Location: 16833 - 18776" locus_tag="CAO91862.1" class="clusterblast-orf" id="knownclusterblast-4_all_4_7_3"  />
</g>
<g id="a4_004"  >
<polygon points="490,390 516,390 521,385 516,380 490,380 490,390 " style="fill:white; stroke-width:1; stroke:black; " description="&lt;b&gt;CAO91863.1&lt;/b&gt;&lt;br&gt;putative monooxygenase&lt;br&gt;Location: 19231 - 21209" locus_tag="CAO91863.1" class="clusterblast-orf" id="knownclusterblast-4_all_4_7_4"  />
</g>
<g id="a4_005"  >
<polygon points="523,385 528,380 562,380 562,390 528,390 523,385 " style="fill:white; stroke-width:1; stroke:black; " description="&lt;b&gt;CAO91864.1&lt;/b&gt;&lt;br&gt;putative transcription factor&lt;br&gt;Location: 21322 - 23755" locus_tag="CAO91864.1" class="clusterblast-orf" id="knownclusterblast-4_all_4_7_5"  />
</g>
<g id="a4_006"  >
<polygon points="571,385 576,380 597,380 597,390 576,390 571,385 " style="fill:#d81515; stroke-width:1; stroke:black; " description="&lt;b&gt;CAO91865.1&lt;/b&gt;&lt;br&gt;putative monooxygenase&lt;br&gt;Location: 24298 - 25930&lt;br&gt;&lt;br&gt;&lt;b&gt;BlastP hit with input.path1.gene1808&lt;/b&gt;&lt;br&gt;Percentage identity: 47&lt;br&gt;Percentage coverage: 111&lt;br&gt;BLAST bit score: 429&lt;br&gt;E-value: 3.3e-147" locus_tag="CAO91865.1" class="clusterblast-orf" id="knownclusterblast-4_all_4_7_6"  />
</g>
</svg>
