<svg xmlns="http://www.w3.org/2000/svg" xmlns:xlink="http://www.w3.org/1999/xlink" version="1.1" x="0" y="0" height="50" width="800" viewBox="0 0 800 50" preserveAspectRatio="none"  >
<g label="Query sequence" class="clusterblast-cluster"  >
<text x="5" y="20" class="clusterblast-acc"  >
Query sequence</text>
<line x1="10" y1="35" x2="778.0" y2="35" style="stroke-width:1; stroke:grey; "  />
<polygon points="0,35 5,30 17,30 17,40 5,40 0,35 " style="fill:white; stroke-width:1; stroke:black; " description="&lt;b&gt;input.path1.gene20&lt;/b&gt;&lt;br&gt;input.path1.gene20&lt;br&gt;Location: 57140 - 58117" locus_tag="input.path1.gene20" class="clusterblast-orf" id="subclusterblast-1_q0_0_all"  />
<polygon points="43,40 105,40 110,35 105,30 43,30 43,40 " style="fill:white; stroke-width:1; stroke:black; " description="&lt;b&gt;input.path1.gene21&lt;/b&gt;&lt;br&gt;input.path1.gene21&lt;br&gt;Location: 59651 - 63520" locus_tag="input.path1.gene21" class="clusterblast-orf" id="subclusterblast-1_q1_0_all"  />
<polygon points="128,40 136,40 141,35 136,30 128,30 128,40 " style="fill:white; stroke-width:1; stroke:black; " description="&lt;b&gt;input.path1.gene22&lt;/b&gt;&lt;br&gt;input.path1.gene22&lt;br&gt;Location: 64589 - 65318" locus_tag="input.path1.gene22" class="clusterblast-orf" id="subclusterblast-1_q2_0_all"  />
<polygon points="144,35 149,30 185,30 185,40 149,40 144,35 " style="fill:white; stroke-width:1; stroke:black; " description="&lt;b&gt;input.path1.gene23&lt;/b&gt;&lt;br&gt;input.path1.gene23&lt;br&gt;Location: 65500 - 67886" locus_tag="input.path1.gene23" class="clusterblast-orf" id="subclusterblast-1_q3_0_all"  />
<polygon points="223,35 228,30 251,30 251,40 228,40 223,35 " style="fill:white; stroke-width:1; stroke:black; " description="&lt;b&gt;input.path1.gene24&lt;/b&gt;&lt;br&gt;input.path1.gene24&lt;br&gt;Location: 70080 - 71697" locus_tag="input.path1.gene24" class="clusterblast-orf" id="subclusterblast-1_q4_0_all"  />
<polygon points="295,40 334,40 339,35 334,30 295,30 295,40 " style="fill:white; stroke-width:1; stroke:black; " description="&lt;b&gt;input.path1.gene25&lt;/b&gt;&lt;br&gt;input.path1.gene25&lt;br&gt;Location: 74251 - 76803" locus_tag="input.path1.gene25" class="clusterblast-orf" id="subclusterblast-1_q5_0_all"  />
<polygon points="342,35 347,30 457,30 457,40 347,40 342,35 " style="fill:white; stroke-width:1; stroke:black; " description="&lt;b&gt;input.path1.gene26&lt;/b&gt;&lt;br&gt;input.path1.gene26&lt;br&gt;Location: 76951 - 83617" locus_tag="input.path1.gene26" class="clusterblast-orf" id="subclusterblast-1_q6_0_all"  />
<polygon points="601,40 620,40 625,35 620,30 601,30 601,40 " style="fill:white; stroke-width:1; stroke:black; " description="&lt;b&gt;input.path1.gene27&lt;/b&gt;&lt;br&gt;input.path1.gene27&lt;br&gt;Location: 91925 - 93350" locus_tag="input.path1.gene27" class="clusterblast-orf" id="subclusterblast-1_q7_0_all"  />
<polygon points="644,40 679,40 684,35 679,30 644,30 644,40 " style="fill:white; stroke-width:1; stroke:black; " description="&lt;b&gt;input.path1.gene28&lt;/b&gt;&lt;br&gt;input.path1.gene28&lt;br&gt;Location: 94414 - 96768" locus_tag="input.path1.gene28" class="clusterblast-orf" id="subclusterblast-1_q8_0_all"  />
<polygon points="733,40 750,40 755,35 750,30 733,30 733,40 " style="fill:white; stroke-width:1; stroke:black; " description="&lt;b&gt;input.path1.gene29&lt;/b&gt;&lt;br&gt;input.path1.gene29&lt;br&gt;Location: 99571 - 100865" locus_tag="input.path1.gene29" class="clusterblast-orf" id="subclusterblast-1_q9_0_all"  />
<polygon points="761,40 775,40 780,35 775,30 761,30 761,40 " style="fill:white; stroke-width:1; stroke:black; " description="&lt;b&gt;input.path1.gene30&lt;/b&gt;&lt;br&gt;input.path1.gene30&lt;br&gt;Location: 101221 - 102286" locus_tag="input.path1.gene30" class="clusterblast-orf" id="subclusterblast-1_q10_0_all"  />
</g>
</svg>
