<svg xmlns="http://www.w3.org/2000/svg" xmlns:xlink="http://www.w3.org/1999/xlink" version="1.1" x="0" y="0" height="230" width="800" viewBox="0 0 800 230" preserveAspectRatio="none"  >
<g label="Query sequence" class="clusterblast-cluster"  >
<text x="5" y="20" class="clusterblast-acc"  >
Query sequence</text>
<line x1="10" y1="35" x2="778.0" y2="35" style="stroke-width:1; stroke:grey; "  />
<polygon points="183,35 188,30 216,30 216,40 188,40 183,35 " style="fill:#d81515; stroke-width:1; stroke:black; " description="&lt;b&gt;input.path1.gene370&lt;/b&gt;&lt;br&gt;input.path1.gene370&lt;br&gt;Location: 1377762 - 1380128" locus_tag="input.path1.gene370" class="clusterblast-orf" id="dummy-4_q0_0_all"  />
<polygon points="232,40 246,40 251,35 246,30 232,30 232,40 " style="fill:#15d815; stroke-width:1; stroke:black; " description="&lt;b&gt;input.path1.gene371&lt;/b&gt;&lt;br&gt;input.path1.gene371&lt;br&gt;Location: 1381244 - 1382528" locus_tag="input.path1.gene371" class="clusterblast-orf" id="dummy-4_q1_0_all"  />
<polygon points="264,40 280,40 285,35 280,30 264,30 264,40 " style="fill:#1597d8; stroke-width:1; stroke:black; " description="&lt;b&gt;input.path1.gene372&lt;/b&gt;&lt;br&gt;input.path1.gene372&lt;br&gt;Location: 1383433 - 1384921" locus_tag="input.path1.gene372" class="clusterblast-orf" id="dummy-4_q2_0_all"  />
<polygon points="287,35 292,30 335,30 335,40 292,40 287,35 " style="fill:#9715d8; stroke-width:1; stroke:black; " description="&lt;b&gt;input.path1.gene373&lt;/b&gt;&lt;br&gt;input.path1.gene373&lt;br&gt;Location: 1385097 - 1388422" locus_tag="input.path1.gene373" class="clusterblast-orf" id="dummy-4_q3_0_all"  />
<polygon points="395,40 461,40 466,35 461,30 395,30 395,40 " style="fill:#d89715; stroke-width:1; stroke:black; " description="&lt;b&gt;input.path1.gene374&lt;/b&gt;&lt;br&gt;input.path1.gene374&lt;br&gt;Location: 1392636 - 1397586" locus_tag="input.path1.gene374" class="clusterblast-orf" id="dummy-4_q4_0_all"  />
<polygon points="478,35 483,30 498,30 498,40 483,40 478,35 " style="fill:#15d897; stroke-width:1; stroke:black; " description="&lt;b&gt;input.path1.gene375&lt;/b&gt;&lt;br&gt;input.path1.gene375&lt;br&gt;Location: 1398439 - 1399836" locus_tag="input.path1.gene375" class="clusterblast-orf" id="dummy-4_q5_0_all"  />
<polygon points="536,40 540,40 545,35 540,30 536,30 536,40 " style="fill:#1515d8; stroke-width:1; stroke:black; " description="&lt;b&gt;input.path1.gene376&lt;/b&gt;&lt;br&gt;input.path1.gene376&lt;br&gt;Location: 1402518 - 1403122" locus_tag="input.path1.gene376" class="clusterblast-orf" id="dummy-4_q6_0_all"  />
<polygon points="556,40 566,40 571,35 566,30 556,30 556,40 " style="fill:#d81597; stroke-width:1; stroke:black; " description="&lt;b&gt;input.path1.gene377&lt;/b&gt;&lt;br&gt;input.path1.gene377&lt;br&gt;Location: 1403917 - 1404937" locus_tag="input.path1.gene377" class="clusterblast-orf" id="dummy-4_q7_0_all"  />
<polygon points="573,35 578,30 597,30 597,40 578,40 573,35 " style="fill:#97d815; stroke-width:1; stroke:black; " description="&lt;b&gt;input.path1.gene378&lt;/b&gt;&lt;br&gt;input.path1.gene378&lt;br&gt;Location: 1405068 - 1406755" locus_tag="input.path1.gene378" class="clusterblast-orf" id="dummy-4_q8_0_all"  />
</g>
<g label="NC_054390" description="NC_054390 (3457342-3520670): Drechmeria coniospora strain ARSEF 6962 chromoso... (28% of genes show similarity), NRPS-like" class="clusterblast-cluster"  >
<text x="5" y="70" class="clusterblast-acc"  >
<a xlink:href="https://antismash-db.secondarymetabolites.org/area?record=NC_054390&amp;start=3457342&amp;end=3520670" target="_blank">NC_054390 (3457342-3520670)</a>: Drechmeria coniospora strain ARSEF 6962 chromoso... (28% of genes show similarity), NRPS-like</text>
<line x1="10" y1="85" x2="778.0" y2="85" style="stroke-width:1; stroke:grey; "  />
</g>
<g id="a4_000"  >
<polygon points="0,90 8,90 13,85 8,80 0,80 0,90 " style="fill:white; stroke-width:1; stroke:black; " description="&lt;b&gt;DCS_04082&lt;/b&gt;&lt;br&gt;hypothetical protein&lt;br&gt;Location: 3465871 - 3466790" locus_tag="DCS_04082" class="clusterblast-orf" id="dummy-4_h4_4_0"  />
</g>
<g id="a4_001"  >
<polygon points="30,90 44,90 49,85 44,80 30,80 30,90 " style="fill:white; stroke-width:1; stroke:black; " description="&lt;b&gt;DCS_04083&lt;/b&gt;&lt;br&gt;hypothetical protein&lt;br&gt;Location: 3467999 - 3469368" locus_tag="DCS_04083" class="clusterblast-orf" id="dummy-4_h4_4_1"  />
</g>
<g id="a4_002"  >
<polygon points="99,85 104,80 137,80 137,90 104,90 99,85 " style="fill:white; stroke-width:1; stroke:black; " description="&lt;b&gt;DCS_04084&lt;/b&gt;&lt;br&gt;sulfatase domain protein&lt;br&gt;Location: 3472850 - 3475501" locus_tag="DCS_04084" class="clusterblast-orf" id="dummy-4_h4_4_2"  />
</g>
<g id="a4_003"  >
<polygon points="195,90 206,90 211,85 206,80 195,80 195,90 " style="fill:white; stroke-width:1; stroke:black; " description="&lt;b&gt;DCS_04085&lt;/b&gt;&lt;br&gt;putative mitochondrial protein&lt;br&gt;Location: 3479540 - 3480686" locus_tag="DCS_04085" class="clusterblast-orf" id="dummy-4_h4_4_3"  />
</g>
<g id="a4_004"  >
<polygon points="215,85 220,80 243,80 243,90 220,90 215,85 " style="fill:#d89715; stroke-width:1; stroke:black; " description="&lt;b&gt;DCS_04086&lt;/b&gt;&lt;br&gt;succinyl-CoA:3-ketoacid-coenzyme A transferase&lt;br&gt;Location: 3480939 - 3482944&lt;br&gt;&lt;br&gt;&lt;b&gt;BlastP hit with input.path1.gene374&lt;/b&gt;&lt;br&gt;Percentage identity: 76&lt;br&gt;Percentage coverage: 58&lt;br&gt;BLAST bit score: 757&lt;br&gt;E-value: 1.76e-267" locus_tag="DCS_04086" class="clusterblast-orf" id="dummy-4_h4_4_4"  />
</g>
<g id="a4_005"  >
<polygon points="261,85 266,80 267,80 267,90 266,90 261,85 " style="fill:white; stroke-width:1; stroke:black; " description="&lt;b&gt;DCS_04087&lt;/b&gt;&lt;br&gt;hydrophobin&lt;br&gt;Location: 3484190 - 3484594" locus_tag="DCS_04087" class="clusterblast-orf" id="dummy-4_h4_4_5"  />
</g>
<g id="a4_006"  >
<polygon points="306,90 349,90 354,85 349,80 306,80 306,90 " style="fill:#9715d8; stroke-width:1; stroke:black; " description="&lt;b&gt;DCS_04088&lt;/b&gt;&lt;br&gt;NRPS-like enzyme&lt;br&gt;Location: 3487343 - 3490670&lt;br&gt;&lt;br&gt;&lt;b&gt;BlastP hit with input.path1.gene373&lt;/b&gt;&lt;br&gt;Percentage identity: 52&lt;br&gt;Percentage coverage: 105&lt;br&gt;BLAST bit score: 1091&lt;br&gt;E-value: 0.0" locus_tag="DCS_04088" class="clusterblast-orf" id="dummy-4_h4_4_6"  />
</g>
<g id="a4_007"  >
<polygon points="356,85 361,80 365,80 365,90 361,90 356,85 " style="fill:white; stroke-width:1; stroke:black; " description="&lt;b&gt;DCS_04089&lt;/b&gt;&lt;br&gt;hypothetical protein&lt;br&gt;Location: 3490830 - 3491477" locus_tag="DCS_04089" class="clusterblast-orf" id="dummy-4_h4_4_7"  />
</g>
<g id="a4_008"  >
<polygon points="422,90 433,90 438,85 433,80 422,80 422,90 " style="fill:#d81597; stroke-width:1; stroke:black; " description="&lt;b&gt;DCS_04090&lt;/b&gt;&lt;br&gt;glutathione S-transferase II&lt;br&gt;Location: 3495464 - 3496596&lt;br&gt;&lt;br&gt;&lt;b&gt;BlastP hit with input.path1.gene377&lt;/b&gt;&lt;br&gt;Percentage identity: 74&lt;br&gt;Percentage coverage: 99&lt;br&gt;BLAST bit score: 425&lt;br&gt;E-value: 3.16e-150" locus_tag="DCS_04090" class="clusterblast-orf" id="dummy-4_h4_4_8"  />
</g>
<g id="a4_009"  >
<polygon points="441,85 446,80 466,80 466,90 446,90 441,85 " style="fill:#97d815; stroke-width:1; stroke:black; " description="&lt;b&gt;DCS_04091&lt;/b&gt;&lt;br&gt;hypothetical protein&lt;br&gt;Location: 3496816 - 3498563&lt;br&gt;&lt;br&gt;&lt;b&gt;BlastP hit with input.path1.gene378&lt;/b&gt;&lt;br&gt;Percentage identity: 72&lt;br&gt;Percentage coverage: 104&lt;br&gt;BLAST bit score: 680&lt;br&gt;E-value: 2.04e-245" locus_tag="DCS_04091" class="clusterblast-orf" id="dummy-4_h4_4_9"  />
</g>
<g id="a4_0010"  >
<polygon points="488,85 493,80 512,80 512,90 493,90 488,85 " style="fill:white; stroke-width:1; stroke:black; " description="&lt;b&gt;DCS_04092&lt;/b&gt;&lt;br&gt;hypothetical protein&lt;br&gt;Location: 3500047 - 3501731" locus_tag="DCS_04092" class="clusterblast-orf" id="dummy-4_h4_4_10"  />
</g>
<g id="a4_0011"  >
<polygon points="581,90 596,90 601,85 596,80 581,80 581,90 " style="fill:white; stroke-width:1; stroke:black; " description="&lt;b&gt;DCS_04093&lt;/b&gt;&lt;br&gt;putative rhamnogalacturonate lyase C&lt;br&gt;Location: 3506572 - 3507956" locus_tag="DCS_04093" class="clusterblast-orf" id="dummy-4_h4_4_11"  />
</g>
<g id="a4_0012"  >
<polygon points="692,90 712,90 717,85 712,80 692,80 692,90 " style="fill:white; stroke-width:1; stroke:black; " description="&lt;b&gt;DCS_04094&lt;/b&gt;&lt;br&gt;DnaJ domain containing protein&lt;br&gt;Location: 3514339 - 3516096" locus_tag="DCS_04094" class="clusterblast-orf" id="dummy-4_h4_4_12"  />
</g>
<g id="a4_0013"  >
<polygon points="749,90 775,90 780,85 775,80 749,80 749,90 " style="fill:white; stroke-width:1; stroke:black; " description="&lt;b&gt;DCS_04095&lt;/b&gt;&lt;br&gt;hypothetical protein&lt;br&gt;Location: 3518361 - 3520489" locus_tag="DCS_04095" class="clusterblast-orf" id="dummy-4_h4_4_13"  />
</g>
</svg>
