<svg xmlns="http://www.w3.org/2000/svg" xmlns:xlink="http://www.w3.org/1999/xlink" version="1.1" x="0" y="0" height="230" width="800" viewBox="0 0 800 230" preserveAspectRatio="none"  >
<g label="Query sequence" class="clusterblast-cluster"  >
<text x="5" y="20" class="clusterblast-acc"  >
Query sequence</text>
<line x1="10" y1="35" x2="778.0" y2="35" style="stroke-width:1; stroke:grey; "  />
<polygon points="98,35 103,30 113,30 113,40 103,40 98,35 " style="fill:white; stroke-width:1; stroke:black; " description="&lt;b&gt;input.path1.gene1029&lt;/b&gt;&lt;br&gt;input.path1.gene1029&lt;br&gt;Location: 4152217 - 4153431" locus_tag="input.path1.gene1029" class="clusterblast-orf" id="dummy-6_q0_0_all"  />
<polygon points="122,40 135,40 140,35 135,30 122,30 122,40 " style="fill:white; stroke-width:1; stroke:black; " description="&lt;b&gt;input.path1.gene1030&lt;/b&gt;&lt;br&gt;input.path1.gene1030&lt;br&gt;Location: 4154161 - 4155673" locus_tag="input.path1.gene1030" class="clusterblast-orf" id="dummy-6_q1_0_all"  />
<polygon points="159,40 194,40 199,35 194,30 159,30 159,40 " style="fill:white; stroke-width:1; stroke:black; " description="&lt;b&gt;input.path1.gene1031&lt;/b&gt;&lt;br&gt;input.path1.gene1031&lt;br&gt;Location: 4157251 - 4160622" locus_tag="input.path1.gene1031" class="clusterblast-orf" id="dummy-6_q2_0_all"  />
<polygon points="200,35 205,30 228,30 228,40 205,40 200,35 " style="fill:white; stroke-width:1; stroke:black; " description="&lt;b&gt;input.path1.gene1032&lt;/b&gt;&lt;br&gt;input.path1.gene1032&lt;br&gt;Location: 4160649 - 4162973" locus_tag="input.path1.gene1032" class="clusterblast-orf" id="dummy-6_q3_0_all"  />
<polygon points="251,35 256,30 256,30 256,40 256,40 251,35 " style="fill:#d81515; stroke-width:1; stroke:black; " description="&lt;b&gt;input.path1.gene1033&lt;/b&gt;&lt;br&gt;input.path1.gene1033&lt;br&gt;Location: 4164923 - 4165335" locus_tag="input.path1.gene1033" class="clusterblast-orf" id="dummy-6_q4_0_all"  />
<polygon points="261,40 272,40 277,35 272,30 261,30 261,40 " style="fill:#3cd815; stroke-width:1; stroke:black; " description="&lt;b&gt;input.path1.gene1034&lt;/b&gt;&lt;br&gt;input.path1.gene1034&lt;br&gt;Location: 4165749 - 4167072" locus_tag="input.path1.gene1034" class="clusterblast-orf" id="dummy-6_q5_0_all"  />
<polygon points="305,40 319,40 324,35 319,30 305,30 305,40 " style="fill:#1563d8; stroke-width:1; stroke:black; " description="&lt;b&gt;input.path1.gene1035&lt;/b&gt;&lt;br&gt;input.path1.gene1035&lt;br&gt;Location: 4169373 - 4170990" locus_tag="input.path1.gene1035" class="clusterblast-orf" id="dummy-6_q6_0_all"  />
<polygon points="326,35 331,30 443,30 443,40 331,40 326,35 " style="fill:#b115d8; stroke-width:1; stroke:black; " description="&lt;b&gt;input.path1.gene1036&lt;/b&gt;&lt;br&gt;input.path1.gene1036&lt;br&gt;Location: 4171145 - 4180828" locus_tag="input.path1.gene1036" class="clusterblast-orf" id="dummy-6_q7_0_all"  />
<polygon points="483,35 488,30 495,30 495,40 488,40 483,35 " style="fill:#d88a15; stroke-width:1; stroke:black; " description="&lt;b&gt;input.path1.gene1037&lt;/b&gt;&lt;br&gt;input.path1.gene1037&lt;br&gt;Location: 4184109 - 4185129" locus_tag="input.path1.gene1037" class="clusterblast-orf" id="dummy-6_q8_0_all"  />
<polygon points="513,35 518,30 525,30 525,40 518,40 513,35 " style="fill:#15d863; stroke-width:1; stroke:black; " description="&lt;b&gt;input.path1.gene1038&lt;/b&gt;&lt;br&gt;input.path1.gene1038&lt;br&gt;Location: 4186588 - 4187643" locus_tag="input.path1.gene1038" class="clusterblast-orf" id="dummy-6_q9_0_all"  />
<polygon points="537,40 552,40 557,35 552,30 537,30 537,40 " style="fill:#3c15d8; stroke-width:1; stroke:black; " description="&lt;b&gt;input.path1.gene1039&lt;/b&gt;&lt;br&gt;input.path1.gene1039&lt;br&gt;Location: 4188586 - 4190289" locus_tag="input.path1.gene1039" class="clusterblast-orf" id="dummy-6_q10_0_all"  />
<polygon points="559,35 564,30 584,30 584,40 564,40 559,35 " style="fill:#3c15d8; stroke-width:1; stroke:black; " description="&lt;b&gt;input.path1.gene1040&lt;/b&gt;&lt;br&gt;input.path1.gene1040&lt;br&gt;Location: 4190409 - 4192477" locus_tag="input.path1.gene1040" class="clusterblast-orf" id="dummy-6_q11_0_all"  />
<polygon points="586,40 597,40 602,35 597,30 586,30 586,40 " style="fill:#d8158a; stroke-width:1; stroke:black; " description="&lt;b&gt;input.path1.gene1041&lt;/b&gt;&lt;br&gt;input.path1.gene1041&lt;br&gt;Location: 4192685 - 4194014" locus_tag="input.path1.gene1041" class="clusterblast-orf" id="dummy-6_q12_0_all"  />
<polygon points="603,35 608,30 613,30 613,40 608,40 603,35 " style="fill:#b1d815; stroke-width:1; stroke:black; " description="&lt;b&gt;input.path1.gene1042&lt;/b&gt;&lt;br&gt;input.path1.gene1042&lt;br&gt;Location: 4194055 - 4194878" locus_tag="input.path1.gene1042" class="clusterblast-orf" id="dummy-6_q13_0_all"  />
<polygon points="664,35 669,30 674,30 674,40 669,40 664,35 " style="fill:#15d8d8; stroke-width:1; stroke:black; " description="&lt;b&gt;input.path1.gene1043&lt;/b&gt;&lt;br&gt;input.path1.gene1043&lt;br&gt;Location: 4199125 - 4200013" locus_tag="input.path1.gene1043" class="clusterblast-orf" id="dummy-6_q14_0_all"  />
<polygon points="675,40 676,40 681,35 676,30 675,30 675,40 " style="fill:white; stroke-width:1; stroke:black; " description="&lt;b&gt;input.path1.gene1044&lt;/b&gt;&lt;br&gt;input.path1.gene1044&lt;br&gt;Location: 4200033 - 4200565" locus_tag="input.path1.gene1044" class="clusterblast-orf" id="dummy-6_q15_0_all"  />
</g>
<g label="NC_054849" description="NC_054849 (3859619-3927003): Aspergillus luchuensis IFO 4308 DNA, chromosome ... (21% of genes show similarity), T1PKS" class="clusterblast-cluster"  >
<text x="5" y="70" class="clusterblast-acc"  >
<a xlink:href="https://antismash-db.secondarymetabolites.org/area?record=NC_054849&amp;start=3859619&amp;end=3927003" target="_blank">NC_054849 (3859619-3927003)</a>: Aspergillus luchuensis IFO 4308 DNA, chromosome ... (21% of genes show similarity), T1PKS</text>
<line x1="10" y1="85" x2="778.0" y2="85" style="stroke-width:1; stroke:grey; "  />
</g>
<g id="a6_000"  >
<polygon points="0,85 5,80 18,80 18,90 5,90 0,85 " style="fill:white; stroke-width:1; stroke:black; " description="&lt;b&gt;AKAW2_11322S&lt;/b&gt;&lt;br&gt;uncharacterized protein&lt;br&gt;Location: 3925322 - 3923821" locus_tag="AKAW2_11322S" class="clusterblast-orf" id="dummy-6_h6_3_0"  />
</g>
<g id="a6_001"  >
<polygon points="34,85 39,80 50,80 50,90 39,90 34,85 " style="fill:white; stroke-width:1; stroke:black; " description="&lt;b&gt;AKAW2_11321S&lt;/b&gt;&lt;br&gt;uncharacterized protein&lt;br&gt;Location: 3922491 - 3921117" locus_tag="AKAW2_11321S" class="clusterblast-orf" id="dummy-6_h6_3_1"  />
</g>
<g id="a6_002"  >
<polygon points="90,90 116,90 121,85 116,80 90,80 90,90 " style="fill:white; stroke-width:1; stroke:black; " description="&lt;b&gt;AKAW2_11320A&lt;/b&gt;&lt;br&gt;uncharacterized protein&lt;br&gt;Location: 3917818 - 3915237" locus_tag="AKAW2_11320A" class="clusterblast-orf" id="dummy-6_h6_3_2"  />
</g>
<g id="a6_003"  >
<polygon points="127,85 132,80 145,80 145,90 132,90 127,85 " style="fill:white; stroke-width:1; stroke:black; " description="&lt;b&gt;AKAW2_11319S&lt;/b&gt;&lt;br&gt;uncharacterized protein&lt;br&gt;Location: 3914733 - 3913234" locus_tag="AKAW2_11319S" class="clusterblast-orf" id="dummy-6_h6_3_3"  />
</g>
<g id="a6_004"  >
<polygon points="155,90 166,90 171,85 166,80 155,80 155,90 " style="fill:white; stroke-width:1; stroke:black; " description="&lt;b&gt;AKAW2_11318A&lt;/b&gt;&lt;br&gt;uncharacterized protein&lt;br&gt;Location: 3912387 - 3911139" locus_tag="AKAW2_11318A" class="clusterblast-orf" id="dummy-6_h6_3_4"  />
</g>
<g id="a6_005"  >
<polygon points="174,90 183,90 188,85 183,80 174,80 174,90 " style="fill:white; stroke-width:1; stroke:black; " description="&lt;b&gt;AKAW2_11317A&lt;/b&gt;&lt;br&gt;uncharacterized protein&lt;br&gt;Location: 3910817 - 3909661" locus_tag="AKAW2_11317A" class="clusterblast-orf" id="dummy-6_h6_3_5"  />
</g>
<g id="a6_006"  >
<polygon points="196,85 201,80 219,80 219,90 201,90 196,85 " style="fill:white; stroke-width:1; stroke:black; " description="&lt;b&gt;AKAW2_11316S&lt;/b&gt;&lt;br&gt;uncharacterized protein&lt;br&gt;Location: 3909054 - 3907125" locus_tag="AKAW2_11316S" class="clusterblast-orf" id="dummy-6_h6_3_6"  />
</g>
<g id="a6_007"  >
<polygon points="227,90 228,90 233,85 228,80 227,80 227,90 " style="fill:white; stroke-width:1; stroke:black; " description="&lt;b&gt;AKAW2_11315A&lt;/b&gt;&lt;br&gt;uncharacterized protein&lt;br&gt;Location: 3906449 - 3905952" locus_tag="AKAW2_11315A" class="clusterblast-orf" id="dummy-6_h6_3_7"  />
</g>
<g id="a6_008"  >
<polygon points="282,90 308,90 313,85 308,80 282,80 282,90 " style="fill:white; stroke-width:1; stroke:black; " description="&lt;b&gt;AKAW2_11314A&lt;/b&gt;&lt;br&gt;uncharacterized protein&lt;br&gt;Location: 3901877 - 3899343" locus_tag="AKAW2_11314A" class="clusterblast-orf" id="dummy-6_h6_3_8"  />
</g>
<g id="a6_009"  >
<polygon points="320,85 325,80 330,80 330,90 325,90 320,85 " style="fill:white; stroke-width:1; stroke:black; " description="&lt;b&gt;AKAW2_11313S&lt;/b&gt;&lt;br&gt;uncharacterized protein&lt;br&gt;Location: 3898719 - 3897922" locus_tag="AKAW2_11313S" class="clusterblast-orf" id="dummy-6_h6_3_9"  />
</g>
<g id="a6_0010"  >
<polygon points="341,85 346,80 430,80 430,90 346,90 341,85 " style="fill:#b115d8; stroke-width:1; stroke:black; " description="&lt;b&gt;AKAW2_11312S&lt;/b&gt;&lt;br&gt;type I iterative PKS&lt;br&gt;Location: 3897003 - 3889620&lt;br&gt;&lt;br&gt;&lt;b&gt;BlastP hit with input.path1.gene1036&lt;/b&gt;&lt;br&gt;Percentage identity: 63&lt;br&gt;Percentage coverage: 95&lt;br&gt;BLAST bit score: 2941&lt;br&gt;E-value: 0.0" locus_tag="AKAW2_11312S" class="clusterblast-orf" id="dummy-6_h6_3_10"  />
</g>
<g id="a6_0011"  >
<polygon points="454,90 461,90 466,85 461,80 454,80 454,90 " style="fill:#15d863; stroke-width:1; stroke:black; " description="&lt;b&gt;AKAW2_11311A&lt;/b&gt;&lt;br&gt;uncharacterized protein&lt;br&gt;Location: 3887593 - 3886594&lt;br&gt;&lt;br&gt;&lt;b&gt;BlastP hit with input.path1.gene1038&lt;/b&gt;&lt;br&gt;Percentage identity: 55&lt;br&gt;Percentage coverage: 104&lt;br&gt;BLAST bit score: 327&lt;br&gt;E-value: 1.6e-110" locus_tag="AKAW2_11311A" class="clusterblast-orf" id="dummy-6_h6_3_11"  />
</g>
<g id="a6_0012"  >
<polygon points="469,85 474,80 506,80 506,90 474,90 469,85 " style="fill:#d88a15; stroke-width:1; stroke:black; " description="&lt;b&gt;AKAW2_11310S&lt;/b&gt;&lt;br&gt;uncharacterized protein&lt;br&gt;Location: 3886423 - 3883280&lt;br&gt;&lt;br&gt;&lt;b&gt;BlastP hit with input.path1.gene1037&lt;/b&gt;&lt;br&gt;Percentage identity: 47&lt;br&gt;Percentage coverage: 99&lt;br&gt;BLAST bit score: 282&lt;br&gt;E-value: 8.14e-86" locus_tag="AKAW2_11310S" class="clusterblast-orf" id="dummy-6_h6_3_12"  />
</g>
<g id="a6_0013"  >
<polygon points="514,90 529,90 534,85 529,80 514,80 514,90 " style="fill:#3c15d8; stroke-width:1; stroke:black; " description="&lt;b&gt;AKAW2_11309A&lt;/b&gt;&lt;br&gt;uncharacterized protein&lt;br&gt;Location: 3882613 - 3880990&lt;br&gt;&lt;br&gt;&lt;b&gt;BlastP hit with input.path1.gene1039&lt;/b&gt;&lt;br&gt;Percentage identity: 61&lt;br&gt;Percentage coverage: 94&lt;br&gt;BLAST bit score: 573&lt;br&gt;E-value: 8.05e-202" locus_tag="AKAW2_11309A" class="clusterblast-orf" id="dummy-6_h6_3_13"  />
</g>
<g id="a6_0014"  >
<polygon points="537,90 555,90 560,85 555,80 537,80 537,90 " style="fill:#3c15d8; stroke-width:1; stroke:black; " description="&lt;b&gt;AKAW2_11308A&lt;/b&gt;&lt;br&gt;uncharacterized protein&lt;br&gt;Location: 3880759 - 3878865&lt;br&gt;&lt;br&gt;&lt;b&gt;BlastP hit with input.path1.gene1040&lt;/b&gt;&lt;br&gt;Percentage identity: 61&lt;br&gt;Percentage coverage: 91&lt;br&gt;BLAST bit score: 582&lt;br&gt;E-value: 2.13e-202" locus_tag="AKAW2_11308A" class="clusterblast-orf" id="dummy-6_h6_3_14"  />
</g>
<g id="a6_0015"  >
<polygon points="573,90 585,90 590,85 585,80 573,80 573,90 " style="fill:white; stroke-width:1; stroke:black; " description="&lt;b&gt;AKAW2_11307A&lt;/b&gt;&lt;br&gt;uncharacterized protein&lt;br&gt;Location: 3877726 - 3876355" locus_tag="AKAW2_11307A" class="clusterblast-orf" id="dummy-6_h6_3_15"  />
</g>
<g id="a6_0016"  >
<polygon points="596,85 601,80 625,80 625,90 601,90 596,85 " style="fill:white; stroke-width:1; stroke:black; " description="&lt;b&gt;AKAW2_11306S&lt;/b&gt;&lt;br&gt;phosphate metabolism transcription protein&lt;br&gt;Location: 3875870 - 3873428" locus_tag="AKAW2_11306S" class="clusterblast-orf" id="dummy-6_h6_3_16"  />
</g>
<g id="a6_0017"  >
<polygon points="633,90 645,90 650,85 645,80 633,80 633,90 " style="fill:white; stroke-width:1; stroke:black; " description="&lt;b&gt;AKAW2_11305A&lt;/b&gt;&lt;br&gt;uncharacterized protein&lt;br&gt;Location: 3872799 - 3871394" locus_tag="AKAW2_11305A" class="clusterblast-orf" id="dummy-6_h6_3_17"  />
</g>
<g id="a6_0018"  >
<polygon points="655,90 656,90 661,85 656,80 655,80 655,90 " style="fill:white; stroke-width:1; stroke:black; " description="&lt;b&gt;AKAW2_11304A&lt;/b&gt;&lt;br&gt;uncharacterized protein&lt;br&gt;Location: 3870974 - 3870491" locus_tag="AKAW2_11304A" class="clusterblast-orf" id="dummy-6_h6_3_18"  />
</g>
<g id="a6_0019"  >
<polygon points="670,90 684,90 689,85 684,80 670,80 670,90 " style="fill:white; stroke-width:1; stroke:black; " description="&lt;b&gt;AKAW2_11303A&lt;/b&gt;&lt;br&gt;uncharacterized protein&lt;br&gt;Location: 3869746 - 3868177" locus_tag="AKAW2_11303A" class="clusterblast-orf" id="dummy-6_h6_3_19"  />
</g>
<g id="a6_0020"  >
<polygon points="701,90 713,90 718,85 713,80 701,80 701,90 " style="fill:white; stroke-width:1; stroke:black; " description="&lt;b&gt;AKAW2_11302A&lt;/b&gt;&lt;br&gt;uncharacterized protein&lt;br&gt;Location: 3867112 - 3865712" locus_tag="AKAW2_11302A" class="clusterblast-orf" id="dummy-6_h6_3_20"  />
</g>
<g id="a6_0021"  >
<polygon points="726,85 731,80 740,80 740,90 731,90 726,85 " style="fill:white; stroke-width:1; stroke:black; " description="&lt;b&gt;AKAW2_11301S&lt;/b&gt;&lt;br&gt;uncharacterized protein&lt;br&gt;Location: 3865082 - 3863925" locus_tag="AKAW2_11301S" class="clusterblast-orf" id="dummy-6_h6_3_21"  />
</g>
<g id="a6_0022"  >
<polygon points="744,85 749,80 780,80 780,90 749,90 744,85 " style="fill:white; stroke-width:1; stroke:black; " description="&lt;b&gt;AKAW2_11300S&lt;/b&gt;&lt;br&gt;uncharacterized protein&lt;br&gt;Location: 3863575 - 3860636" locus_tag="AKAW2_11300S" class="clusterblast-orf" id="dummy-6_h6_3_22"  />
</g>
</svg>
