<svg xmlns="http://www.w3.org/2000/svg" xmlns:xlink="http://www.w3.org/1999/xlink" version="1.1" x="0" y="0" height="230" width="800" viewBox="0 0 800 230" preserveAspectRatio="none"  >
<g label="Query sequence" class="clusterblast-cluster"  >
<text x="5" y="20" class="clusterblast-acc"  >
Query sequence</text>
<line x1="10" y1="35" x2="778.0" y2="35" style="stroke-width:1; stroke:grey; "  />
<polygon points="312,40 314,40 319,35 314,30 312,30 312,40 " style="fill:#d81515; stroke-width:1; stroke:black; " description="&lt;b&gt;input.path1.gene178&lt;/b&gt;&lt;br&gt;input.path1.gene178&lt;br&gt;Location: 658816 - 660264" locus_tag="input.path1.gene178" class="clusterblast-orf" id="dummy-2_q0_0_all"  />
<polygon points="344,40 344,40 349,35 344,30 344,30 344,40 " style="fill:#15d815; stroke-width:1; stroke:black; " description="&lt;b&gt;input.path1.gene179&lt;/b&gt;&lt;br&gt;input.path1.gene179&lt;br&gt;Location: 665512 - 666562" locus_tag="input.path1.gene179" class="clusterblast-orf" id="dummy-2_q1_0_all"  />
<polygon points="362,40 362,40 367,35 362,30 362,30 362,40 " style="fill:#1515d8; stroke-width:1; stroke:black; " description="&lt;b&gt;input.path1.gene180&lt;/b&gt;&lt;br&gt;input.path1.gene180&lt;br&gt;Location: 669198 - 670219" locus_tag="input.path1.gene180" class="clusterblast-orf" id="dummy-2_q2_0_all"  />
<polygon points="372,35 377,30 378,30 378,40 377,40 372,35 " style="fill:#d815d8; stroke-width:1; stroke:black; " description="&lt;b&gt;input.path1.gene181&lt;/b&gt;&lt;br&gt;input.path1.gene181&lt;br&gt;Location: 671245 - 672661" locus_tag="input.path1.gene181" class="clusterblast-orf" id="dummy-2_q3_0_all"  />
<polygon points="393,40 394,40 399,35 394,30 393,30 393,40 " style="fill:#d8d815; stroke-width:1; stroke:black; " description="&lt;b&gt;input.path1.gene182&lt;/b&gt;&lt;br&gt;input.path1.gene182&lt;br&gt;Location: 675680 - 676817" locus_tag="input.path1.gene182" class="clusterblast-orf" id="dummy-2_q4_0_all"  />
<polygon points="406,40 431,40 436,35 431,30 406,30 406,40 " style="fill:#d815d8; stroke-width:1; stroke:black; " description="&lt;b&gt;input.path1.gene183&lt;/b&gt;&lt;br&gt;input.path1.gene183&lt;br&gt;Location: 678451 - 684569" locus_tag="input.path1.gene183" class="clusterblast-orf" id="dummy-2_q5_0_all"  />
<polygon points="436,35 440,30 440,40 436,35 " style="fill:#15d8d8; stroke-width:1; stroke:black; " description="&lt;b&gt;input.path1.gene184&lt;/b&gt;&lt;br&gt;input.path1.gene184&lt;br&gt;Location: 684570 - 685400" locus_tag="input.path1.gene184" class="clusterblast-orf" id="dummy-2_q6_0_all"  />
<polygon points="466,35 467,30 467,40 466,35 " style="fill:white; stroke-width:1; stroke:black; " description="&lt;b&gt;input.path1.gene185&lt;/b&gt;&lt;br&gt;input.path1.gene185&lt;br&gt;Location: 690931 - 691094" locus_tag="input.path1.gene185" class="clusterblast-orf" id="dummy-2_q7_0_all"  />
</g>
<g label="NW_024468995" description="NW_024468995 (361260-526376): Aspergillus fijiensis CBS 313.89 unplaced genom... (5% of genes show similarity), NRPS,T1PKS,fungal-RiPP-like" class="clusterblast-cluster"  >
<text x="5" y="70" class="clusterblast-acc"  >
<a xlink:href="https://antismash-db.secondarymetabolites.org/area?record=NW_024468995&amp;start=361260&amp;end=526376" target="_blank">NW_024468995 (361260-526376)</a>: Aspergillus fijiensis CBS 313.89 unplaced genom... (5% of genes show similarity), NRPS,T1PKS,fungal-RiPP-like</text>
<line x1="10" y1="85" x2="778.0" y2="85" style="stroke-width:1; stroke:grey; "  />
</g>
<g id="a2_000"  >
<polygon points="0,90 4,90 9,85 4,80 0,80 0,90 " style="fill:white; stroke-width:1; stroke:black; " description="&lt;b&gt;BO72DRAFT_447507&lt;/b&gt;&lt;br&gt;efflux pump protein&lt;br&gt;Location: 524050 - 521994" locus_tag="BO72DRAFT_447507" class="clusterblast-orf" id="dummy-2_h2_9_0"  />
</g>
<g id="a2_001"  >
<polygon points="11,85 16,80 20,80 20,90 16,90 11,85 " style="fill:white; stroke-width:1; stroke:black; " description="&lt;b&gt;BO72DRAFT_507962&lt;/b&gt;&lt;br&gt;MFS general substrate transporter&lt;br&gt;Location: 521666 - 519801" locus_tag="BO72DRAFT_507962" class="clusterblast-orf" id="dummy-2_h2_9_1"  />
</g>
<g id="a2_002"  >
<polygon points="26,85 28,80 28,90 26,85 " style="fill:white; stroke-width:1; stroke:black; " description="&lt;b&gt;BO72DRAFT_495626&lt;/b&gt;&lt;br&gt;uncharacterized protein&lt;br&gt;Location: 518613 - 518098" locus_tag="BO72DRAFT_495626" class="clusterblast-orf" id="dummy-2_h2_9_2"  />
</g>
<g id="a2_003"  >
<polygon points="33,85 38,80 40,80 40,90 38,90 33,85 " style="fill:white; stroke-width:1; stroke:black; " description="&lt;b&gt;BO72DRAFT_447506&lt;/b&gt;&lt;br&gt;uncharacterized protein&lt;br&gt;Location: 517005 - 515578" locus_tag="BO72DRAFT_447506" class="clusterblast-orf" id="dummy-2_h2_9_3"  />
</g>
<g id="a2_004"  >
<polygon points="43,90 49,90 54,85 49,80 43,80 43,90 " style="fill:white; stroke-width:1; stroke:black; " description="&lt;b&gt;BO72DRAFT_495624&lt;/b&gt;&lt;br&gt;uncharacterized protein&lt;br&gt;Location: 515110 - 512684" locus_tag="BO72DRAFT_495624" class="clusterblast-orf" id="dummy-2_h2_9_4"  />
</g>
<g id="a2_005"  >
<polygon points="58,90 59,90 64,85 59,80 58,80 58,90 " style="fill:white; stroke-width:1; stroke:black; " description="&lt;b&gt;BO72DRAFT_84308&lt;/b&gt;&lt;br&gt;uncharacterized protein&lt;br&gt;Location: 511978 - 510635" locus_tag="BO72DRAFT_84308" class="clusterblast-orf" id="dummy-2_h2_9_5"  />
</g>
<g id="a2_006"  >
<polygon points="68,85 73,80 76,80 76,90 73,90 68,85 " style="fill:white; stroke-width:1; stroke:black; " description="&lt;b&gt;BO72DRAFT_447504&lt;/b&gt;&lt;br&gt;cytochrome P450&lt;br&gt;Location: 509782 - 508095" locus_tag="BO72DRAFT_447504" class="clusterblast-orf" id="dummy-2_h2_9_6"  />
</g>
<g id="a2_007"  >
<polygon points="78,90 79,90 84,85 79,80 78,80 78,90 " style="fill:white; stroke-width:1; stroke:black; " description="&lt;b&gt;BO72DRAFT_447503&lt;/b&gt;&lt;br&gt;GroES-like protein&lt;br&gt;Location: 507734 - 506560" locus_tag="BO72DRAFT_447503" class="clusterblast-orf" id="dummy-2_h2_9_7"  />
</g>
<g id="a2_008"  >
<polygon points="84,85 89,80 91,80 91,90 89,90 84,85 " style="fill:white; stroke-width:1; stroke:black; " description="&lt;b&gt;BO72DRAFT_84300&lt;/b&gt;&lt;br&gt;beta-lactamase class C and other penicillin binding protein&lt;br&gt;Location: 506445 - 505146" locus_tag="BO72DRAFT_84300" class="clusterblast-orf" id="dummy-2_h2_9_8"  />
</g>
<g id="a2_009"  >
<polygon points="93,90 93,90 98,85 93,80 93,80 93,90 " style="fill:white; stroke-width:1; stroke:black; " description="&lt;b&gt;BO72DRAFT_447501&lt;/b&gt;&lt;br&gt;NAD(P)-binding protein&lt;br&gt;Location: 504595 - 503534" locus_tag="BO72DRAFT_447501" class="clusterblast-orf" id="dummy-2_h2_9_9"  />
</g>
<g id="a2_0010"  >
<polygon points="100,85 105,80 106,80 106,90 105,90 100,85 " style="fill:white; stroke-width:1; stroke:black; " description="&lt;b&gt;BO72DRAFT_427745&lt;/b&gt;&lt;br&gt;S-adenosyl-L-methionine-dependent methyltransferase&lt;br&gt;Location: 503185 - 501939" locus_tag="BO72DRAFT_427745" class="clusterblast-orf" id="dummy-2_h2_9_10"  />
</g>
<g id="a2_0011"  >
<polygon points="108,85 113,80 124,80 124,90 113,90 108,85 " style="fill:white; stroke-width:1; stroke:black; " description="&lt;b&gt;BO72DRAFT_427743&lt;/b&gt;&lt;br&gt;cytochrome P450&lt;br&gt;Location: 501495 - 498096" locus_tag="BO72DRAFT_427743" class="clusterblast-orf" id="dummy-2_h2_9_11"  />
</g>
<g id="a2_0012"  >
<polygon points="126,90 130,90 135,85 130,80 126,80 126,90 " style="fill:white; stroke-width:1; stroke:black; " description="&lt;b&gt;BO72DRAFT_427739&lt;/b&gt;&lt;br&gt;FAD-binding domain-containing protein&lt;br&gt;Location: 497714 - 495881" locus_tag="BO72DRAFT_427739" class="clusterblast-orf" id="dummy-2_h2_9_12"  />
</g>
<g id="a2_0013"  >
<polygon points="138,90 142,85 138,80 138,90 " style="fill:white; stroke-width:1; stroke:black; " description="&lt;b&gt;BO72DRAFT_376283&lt;/b&gt;&lt;br&gt;uncharacterized protein&lt;br&gt;Location: 495287 - 494462" locus_tag="BO72DRAFT_376283" class="clusterblast-orf" id="dummy-2_h2_9_13"  />
</g>
<g id="a2_0014"  >
<polygon points="145,85 150,80 154,80 154,90 150,90 145,85 " style="fill:white; stroke-width:1; stroke:black; " description="&lt;b&gt;BO72DRAFT_402819&lt;/b&gt;&lt;br&gt;cytochrome P450&lt;br&gt;Location: 493909 - 492004" locus_tag="BO72DRAFT_402819" class="clusterblast-orf" id="dummy-2_h2_9_14"  />
</g>
<g id="a2_0015"  >
<polygon points="157,90 159,90 164,85 159,80 157,80 157,90 " style="fill:white; stroke-width:1; stroke:black; " description="&lt;b&gt;BO72DRAFT_527193&lt;/b&gt;&lt;br&gt;uncharacterized protein&lt;br&gt;Location: 491447 - 489906" locus_tag="BO72DRAFT_527193" class="clusterblast-orf" id="dummy-2_h2_9_15"  />
</g>
<g id="a2_0016"  >
<polygon points="165,85 170,80 170,80 170,90 170,90 165,85 " style="fill:white; stroke-width:1; stroke:black; " description="&lt;b&gt;BO72DRAFT_376178&lt;/b&gt;&lt;br&gt;toxin biosynthesis ketoreductase&lt;br&gt;Location: 489585 - 488657" locus_tag="BO72DRAFT_376178" class="clusterblast-orf" id="dummy-2_h2_9_16"  />
</g>
<g id="a2_0017"  >
<polygon points="174,85 179,80 180,80 180,90 179,90 174,85 " style="fill:white; stroke-width:1; stroke:black; " description="&lt;b&gt;BO72DRAFT_507944&lt;/b&gt;&lt;br&gt;NmrA-like family protein&lt;br&gt;Location: 487841 - 486557" locus_tag="BO72DRAFT_507944" class="clusterblast-orf" id="dummy-2_h2_9_17"  />
</g>
<g id="a2_0018"  >
<polygon points="184,85 185,80 185,90 184,85 " style="fill:white; stroke-width:1; stroke:black; " description="&lt;b&gt;BO72DRAFT_527192&lt;/b&gt;&lt;br&gt;uncharacterized protein&lt;br&gt;Location: 485663 - 485435" locus_tag="BO72DRAFT_527192" class="clusterblast-orf" id="dummy-2_h2_9_18"  />
</g>
<g id="a2_0019"  >
<polygon points="188,85 193,80 195,80 195,90 193,90 188,85 " style="fill:white; stroke-width:1; stroke:black; " description="&lt;b&gt;BO72DRAFT_495609&lt;/b&gt;&lt;br&gt;uncharacterized protein&lt;br&gt;Location: 484828 - 483503" locus_tag="BO72DRAFT_495609" class="clusterblast-orf" id="dummy-2_h2_9_19"  />
</g>
<g id="a2_0020"  >
<polygon points="205,90 205,90 210,85 205,80 205,80 205,90 " style="fill:white; stroke-width:1; stroke:black; " description="&lt;b&gt;BO72DRAFT_495607&lt;/b&gt;&lt;br&gt;uncharacterized protein&lt;br&gt;Location: 481376 - 480375" locus_tag="BO72DRAFT_495607" class="clusterblast-orf" id="dummy-2_h2_9_20"  />
</g>
<g id="a2_0021"  >
<polygon points="210,85 213,80 213,90 210,85 " style="fill:white; stroke-width:1; stroke:black; " description="&lt;b&gt;BO72DRAFT_507936&lt;/b&gt;&lt;br&gt;uncharacterized protein&lt;br&gt;Location: 480255 - 479717" locus_tag="BO72DRAFT_507936" class="clusterblast-orf" id="dummy-2_h2_9_21"  />
</g>
<g id="a2_0022"  >
<polygon points="216,90 218,90 223,85 218,80 216,80 216,90 " style="fill:white; stroke-width:1; stroke:black; " description="&lt;b&gt;BO72DRAFT_427727&lt;/b&gt;&lt;br&gt;uncharacterized protein&lt;br&gt;Location: 479057 - 477619" locus_tag="BO72DRAFT_427727" class="clusterblast-orf" id="dummy-2_h2_9_22"  />
</g>
<g id="a2_0023"  >
<polygon points="225,90 226,90 231,85 226,80 225,80 225,90 " style="fill:white; stroke-width:1; stroke:black; " description="&lt;b&gt;BO72DRAFT_402811&lt;/b&gt;&lt;br&gt;S-adenosyl-L-methionine-dependent methyltransferase&lt;br&gt;Location: 477248 - 476061" locus_tag="BO72DRAFT_402811" class="clusterblast-orf" id="dummy-2_h2_9_23"  />
</g>
<g id="a2_0024"  >
<polygon points="232,85 237,80 275,80 275,90 237,90 232,85 " style="fill:white; stroke-width:1; stroke:black; " description="&lt;b&gt;BO72DRAFT_427723&lt;/b&gt;&lt;br&gt;putative polyketide synthase&lt;br&gt;Location: 475813 - 466946" locus_tag="BO72DRAFT_427723" class="clusterblast-orf" id="dummy-2_h2_9_24"  />
</g>
<g id="a2_0025"  >
<polygon points="279,85 284,80 287,80 287,90 284,90 279,85 " style="fill:white; stroke-width:1; stroke:black; " description="&lt;b&gt;BO72DRAFT_402806&lt;/b&gt;&lt;br&gt;pantothenate transporter&lt;br&gt;Location: 466078 - 464322" locus_tag="BO72DRAFT_402806" class="clusterblast-orf" id="dummy-2_h2_9_25"  />
</g>
<g id="a2_0026"  >
<polygon points="289,85 294,80 297,80 297,90 294,90 289,85 " style="fill:white; stroke-width:1; stroke:black; " description="&lt;b&gt;BO72DRAFT_447488&lt;/b&gt;&lt;br&gt;oxidoreductase&lt;br&gt;Location: 463835 - 462367" locus_tag="BO72DRAFT_447488" class="clusterblast-orf" id="dummy-2_h2_9_26"  />
</g>
<g id="a2_0027"  >
<polygon points="305,90 306,90 311,85 306,80 305,80 305,90 " style="fill:white; stroke-width:1; stroke:black; " description="&lt;b&gt;BO72DRAFT_495600&lt;/b&gt;&lt;br&gt;tyrosinase&lt;br&gt;Location: 460711 - 459305" locus_tag="BO72DRAFT_495600" class="clusterblast-orf" id="dummy-2_h2_9_27"  />
</g>
<g id="a2_0028"  >
<polygon points="314,85 319,80 320,80 320,90 319,90 314,85 " style="fill:white; stroke-width:1; stroke:black; " description="&lt;b&gt;BO72DRAFT_447486&lt;/b&gt;&lt;br&gt;putative tartrate dehydrogenase&lt;br&gt;Location: 458790 - 457586" locus_tag="BO72DRAFT_447486" class="clusterblast-orf" id="dummy-2_h2_9_28"  />
</g>
<g id="a2_0029"  >
<polygon points="323,85 327,80 327,90 323,85 " style="fill:white; stroke-width:1; stroke:black; " description="&lt;b&gt;BO72DRAFT_527183&lt;/b&gt;&lt;br&gt;uncharacterized protein&lt;br&gt;Location: 456800 - 455986" locus_tag="BO72DRAFT_527183" class="clusterblast-orf" id="dummy-2_h2_9_29"  />
</g>
<g id="a2_0030"  >
<polygon points="334,90 376,90 381,85 376,80 334,80 334,90 " style="fill:white; stroke-width:1; stroke:black; " description="&lt;b&gt;BO72DRAFT_477000&lt;/b&gt;&lt;br&gt;uncharacterized protein&lt;br&gt;Location: 454522 - 444894" locus_tag="BO72DRAFT_477000" class="clusterblast-orf" id="dummy-2_h2_9_30"  />
</g>
<g id="a2_0031"  >
<polygon points="389,85 393,80 393,90 389,85 " style="fill:white; stroke-width:1; stroke:black; " description="&lt;b&gt;BO72DRAFT_507920&lt;/b&gt;&lt;br&gt;uncharacterized protein&lt;br&gt;Location: 443171 - 442283" locus_tag="BO72DRAFT_507920" class="clusterblast-orf" id="dummy-2_h2_9_31"  />
</g>
<g id="a2_0032"  >
<polygon points="413,85 417,80 417,90 413,85 " style="fill:white; stroke-width:1; stroke:black; " description="&lt;b&gt;BO72DRAFT_507918&lt;/b&gt;&lt;br&gt;putative carbonic anhydrase&lt;br&gt;Location: 438288 - 437414" locus_tag="BO72DRAFT_507918" class="clusterblast-orf" id="dummy-2_h2_9_32"  />
</g>
<g id="a2_0033"  >
<polygon points="422,90 424,85 422,80 422,90 " style="fill:white; stroke-width:1; stroke:black; " description="&lt;b&gt;BO72DRAFT_507916&lt;/b&gt;&lt;br&gt;uncharacterized protein&lt;br&gt;Location: 436376 - 435842" locus_tag="BO72DRAFT_507916" class="clusterblast-orf" id="dummy-2_h2_9_33"  />
</g>
<g id="a2_0034"  >
<polygon points="427,85 430,80 430,90 427,85 " style="fill:white; stroke-width:1; stroke:black; " description="&lt;b&gt;BO72DRAFT_507914&lt;/b&gt;&lt;br&gt;uncharacterized protein&lt;br&gt;Location: 435185 - 434701" locus_tag="BO72DRAFT_507914" class="clusterblast-orf" id="dummy-2_h2_9_34"  />
</g>
<g id="a2_0035"  >
<polygon points="433,85 435,80 435,90 433,85 " style="fill:white; stroke-width:1; stroke:black; " description="&lt;b&gt;BO72DRAFT_495592&lt;/b&gt;&lt;br&gt;uncharacterized protein&lt;br&gt;Location: 434077 - 433523" locus_tag="BO72DRAFT_495592" class="clusterblast-orf" id="dummy-2_h2_9_35"  />
</g>
<g id="a2_0036"  >
<polygon points="437,90 444,90 449,85 444,80 437,80 437,90 " style="fill:white; stroke-width:1; stroke:black; " description="&lt;b&gt;BO72DRAFT_458244&lt;/b&gt;&lt;br&gt;WSC-domain-containing protein&lt;br&gt;Location: 433105 - 430687" locus_tag="BO72DRAFT_458244" class="clusterblast-orf" id="dummy-2_h2_9_36"  />
</g>
<g id="a2_0037"  >
<polygon points="458,85 463,80 484,80 484,90 463,90 458,85 " style="fill:white; stroke-width:1; stroke:black; " description="&lt;b&gt;BO72DRAFT_507908&lt;/b&gt;&lt;br&gt;putative ABC multidrug transporter&lt;br&gt;Location: 428831 - 423519" locus_tag="BO72DRAFT_507908" class="clusterblast-orf" id="dummy-2_h2_9_37"  />
</g>
<g id="a2_0038"  >
<polygon points="486,90 487,90 492,85 487,80 486,80 486,90 " style="fill:white; stroke-width:1; stroke:black; " description="&lt;b&gt;BO72DRAFT_527181&lt;/b&gt;&lt;br&gt;putative gibberellin 20-oxidase&lt;br&gt;Location: 423042 - 421873" locus_tag="BO72DRAFT_527181" class="clusterblast-orf" id="dummy-2_h2_9_38"  />
</g>
<g id="a2_0039"  >
<polygon points="495,85 500,80 506,80 506,90 500,90 495,85 " style="fill:white; stroke-width:1; stroke:black; " description="&lt;b&gt;BO72DRAFT_507902&lt;/b&gt;&lt;br&gt;uncharacterized protein&lt;br&gt;Location: 421247 - 418939" locus_tag="BO72DRAFT_507902" class="clusterblast-orf" id="dummy-2_h2_9_39"  />
</g>
<g id="a2_0040"  >
<polygon points="517,90 521,90 526,85 521,80 517,80 517,90 " style="fill:white; stroke-width:1; stroke:black; " description="&lt;b&gt;BO72DRAFT_340398&lt;/b&gt;&lt;br&gt;acetyl-CoA synthetase-like protein&lt;br&gt;Location: 416543 - 414701" locus_tag="BO72DRAFT_340398" class="clusterblast-orf" id="dummy-2_h2_9_40"  />
</g>
<g id="a2_0041"  >
<polygon points="529,85 534,80 538,80 538,90 534,90 529,85 " style="fill:white; stroke-width:1; stroke:black; " description="&lt;b&gt;BO72DRAFT_495586&lt;/b&gt;&lt;br&gt;cytochrome P450&lt;br&gt;Location: 414020 - 412274" locus_tag="BO72DRAFT_495586" class="clusterblast-orf" id="dummy-2_h2_9_41"  />
</g>
<g id="a2_0042"  >
<polygon points="540,85 545,80 546,80 546,90 545,90 540,85 " style="fill:white; stroke-width:1; stroke:black; " description="&lt;b&gt;BO72DRAFT_485581&lt;/b&gt;&lt;br&gt;Clavaminate synthase-like protein&lt;br&gt;Location: 411756 - 410577" locus_tag="BO72DRAFT_485581" class="clusterblast-orf" id="dummy-2_h2_9_42"  />
</g>
<g id="a2_0043"  >
<polygon points="548,85 553,80 601,80 601,90 553,90 548,85 " style="fill:#d815d8; stroke-width:1; stroke:black; " description="&lt;b&gt;BO72DRAFT_507887&lt;/b&gt;&lt;br&gt;acetyl-CoA synthetase-like protein&lt;br&gt;Location: 410187 - 399097&lt;br&gt;&lt;br&gt;&lt;b&gt;BlastP hit with input.path1.gene181&lt;/b&gt;&lt;br&gt;Percentage identity: 31&lt;br&gt;Percentage coverage: 70&lt;br&gt;BLAST bit score: 106&lt;br&gt;E-value: 3.38e-23&lt;br&gt;&lt;br&gt;&lt;b&gt;BlastP hit with input.path1.gene183&lt;/b&gt;&lt;br&gt;Percentage identity: 35&lt;br&gt;Percentage coverage: 29&lt;br&gt;BLAST bit score: 223&lt;br&gt;E-value: 2.25e-56" locus_tag="BO72DRAFT_507887" class="clusterblast-orf" id="dummy-2_h2_9_43"  />
</g>
<g id="a2_0044"  >
<polygon points="607,85 612,80 639,80 639,90 612,90 607,85 " style="fill:#d815d8; stroke-width:1; stroke:black; " description="&lt;b&gt;BO72DRAFT_343478&lt;/b&gt;&lt;br&gt;acetyl-CoA synthetase-like protein&lt;br&gt;Location: 397974 - 391261&lt;br&gt;&lt;br&gt;&lt;b&gt;BlastP hit with input.path1.gene181&lt;/b&gt;&lt;br&gt;Percentage identity: 32&lt;br&gt;Percentage coverage: 83&lt;br&gt;BLAST bit score: 117&lt;br&gt;E-value: 6.78e-27&lt;br&gt;&lt;br&gt;&lt;b&gt;BlastP hit with input.path1.gene183&lt;/b&gt;&lt;br&gt;Percentage identity: 33&lt;br&gt;Percentage coverage: 30&lt;br&gt;BLAST bit score: 226&lt;br&gt;E-value: 2.53e-57" locus_tag="BO72DRAFT_343478" class="clusterblast-orf" id="dummy-2_h2_9_44"  />
</g>
<g id="a2_0045"  >
<polygon points="660,90 664,90 669,85 664,80 660,80 660,90 " style="fill:white; stroke-width:1; stroke:black; " description="&lt;b&gt;BO72DRAFT_476998&lt;/b&gt;&lt;br&gt;putative Ent-kaurene oxidase&lt;br&gt;Location: 386799 - 385021" locus_tag="BO72DRAFT_476998" class="clusterblast-orf" id="dummy-2_h2_9_45"  />
</g>
<g id="a2_0046"  >
<polygon points="670,85 675,80 675,80 675,90 675,90 670,85 " style="fill:white; stroke-width:1; stroke:black; " description="&lt;b&gt;BO72DRAFT_495582&lt;/b&gt;&lt;br&gt;putative RTA1 domain protein&lt;br&gt;Location: 384861 - 383845" locus_tag="BO72DRAFT_495582" class="clusterblast-orf" id="dummy-2_h2_9_46"  />
</g>
<g id="a2_0047"  >
<polygon points="681,90 683,85 681,80 681,90 " style="fill:white; stroke-width:1; stroke:black; " description="&lt;b&gt;BO72DRAFT_447482&lt;/b&gt;&lt;br&gt;uncharacterized protein&lt;br&gt;Location: 382460 - 382209" locus_tag="BO72DRAFT_447482" class="clusterblast-orf" id="dummy-2_h2_9_47"  />
</g>
<g id="a2_0048"  >
<polygon points="685,85 690,80 700,80 700,90 690,90 685,85 " style="fill:white; stroke-width:1; stroke:black; " description="&lt;b&gt;BO72DRAFT_476995&lt;/b&gt;&lt;br&gt;aconitase iron-sulfur domain-containing protein&lt;br&gt;Location: 381743 - 378661" locus_tag="BO72DRAFT_476995" class="clusterblast-orf" id="dummy-2_h2_9_48"  />
</g>
<g id="a2_0049"  >
<polygon points="701,85 706,80 708,80 708,90 706,90 701,85 " style="fill:white; stroke-width:1; stroke:black; " description="&lt;b&gt;BO72DRAFT_507855&lt;/b&gt;&lt;br&gt;3-isopropylmalate dehydrogenase-like protein&lt;br&gt;Location: 378292 - 376881" locus_tag="BO72DRAFT_507855" class="clusterblast-orf" id="dummy-2_h2_9_49"  />
</g>
<g id="a2_0050"  >
<polygon points="712,90 714,90 719,85 714,80 712,80 712,90 " style="fill:white; stroke-width:1; stroke:black; " description="&lt;b&gt;BO72DRAFT_507852&lt;/b&gt;&lt;br&gt;aldolase&lt;br&gt;Location: 376206 - 374750" locus_tag="BO72DRAFT_507852" class="clusterblast-orf" id="dummy-2_h2_9_50"  />
</g>
<g id="a2_0051"  >
<polygon points="722,85 727,80 728,80 728,90 727,90 722,85 " style="fill:white; stroke-width:1; stroke:black; " description="&lt;b&gt;BO72DRAFT_495577&lt;/b&gt;&lt;br&gt;Clavaminate synthase-like protein&lt;br&gt;Location: 373927 - 372787" locus_tag="BO72DRAFT_495577" class="clusterblast-orf" id="dummy-2_h2_9_51"  />
</g>
<g id="a2_0052"  >
<polygon points="733,85 738,80 741,80 741,90 738,90 733,85 " style="fill:white; stroke-width:1; stroke:black; " description="&lt;b&gt;BO72DRAFT_376558&lt;/b&gt;&lt;br&gt;kinase-like protein&lt;br&gt;Location: 371727 - 370040" locus_tag="BO72DRAFT_376558" class="clusterblast-orf" id="dummy-2_h2_9_52"  />
</g>
<g id="a2_0053"  >
<polygon points="750,85 755,80 759,80 759,90 755,90 750,85 " style="fill:white; stroke-width:1; stroke:black; " description="&lt;b&gt;BO72DRAFT_495575&lt;/b&gt;&lt;br&gt;alcohol oxidase&lt;br&gt;Location: 368195 - 366267" locus_tag="BO72DRAFT_495575" class="clusterblast-orf" id="dummy-2_h2_9_53"  />
</g>
<g id="a2_0054"  >
<polygon points="764,90 768,90 773,85 768,80 764,80 764,90 " style="fill:#15d815; stroke-width:1; stroke:black; " description="&lt;b&gt;BO72DRAFT_376163&lt;/b&gt;&lt;br&gt;putative catalase&lt;br&gt;Location: 365320 - 363456&lt;br&gt;&lt;br&gt;&lt;b&gt;BlastP hit with input.path1.gene179&lt;/b&gt;&lt;br&gt;Percentage identity: 41&lt;br&gt;Percentage coverage: 67&lt;br&gt;BLAST bit score: 179&lt;br&gt;E-value: 4.63e-50" locus_tag="BO72DRAFT_376163" class="clusterblast-orf" id="dummy-2_h2_9_54"  />
</g>
<g id="a2_0055"  >
<polygon points="776,90 780,85 776,80 776,90 " style="fill:white; stroke-width:1; stroke:black; " description="&lt;b&gt;BO72DRAFT_83874&lt;/b&gt;&lt;br&gt;uncharacterized protein&lt;br&gt;Location: 362753 - 362087" locus_tag="BO72DRAFT_83874" class="clusterblast-orf" id="dummy-2_h2_9_55"  />
</g>
</svg>
