<svg xmlns="http://www.w3.org/2000/svg" xmlns:xlink="http://www.w3.org/1999/xlink" version="1.1" x="0" y="0" height="230" width="800" viewBox="0 0 800 230" preserveAspectRatio="none"  >
<g label="Query sequence" class="clusterblast-cluster"  >
<text x="5" y="20" class="clusterblast-acc"  >
Query sequence</text>
<line x1="10" y1="35" x2="778.0" y2="35" style="stroke-width:1; stroke:grey; "  />
<polygon points="151,40 190,40 195,35 190,30 151,30 151,40 " style="fill:#d81515; stroke-width:1; stroke:black; " description="&lt;b&gt;input.path1.gene248&lt;/b&gt;&lt;br&gt;input.path1.gene248&lt;br&gt;Location: 1007059 - 1008835" locus_tag="input.path1.gene248" class="clusterblast-orf" id="dummy-4_q0_0_all"  />
<polygon points="218,40 226,40 231,35 226,30 218,30 218,40 " style="fill:#15d863; stroke-width:1; stroke:black; " description="&lt;b&gt;input.path1.gene249&lt;/b&gt;&lt;br&gt;input.path1.gene249&lt;br&gt;Location: 1009784 - 1010317" locus_tag="input.path1.gene249" class="clusterblast-orf" id="dummy-4_q1_0_all"  />
<polygon points="270,40 394,40 399,35 394,30 270,30 270,40 " style="fill:#1563d8; stroke-width:1; stroke:black; " description="&lt;b&gt;input.path1.gene250&lt;/b&gt;&lt;br&gt;input.path1.gene250&lt;br&gt;Location: 1011875 - 1017127" locus_tag="input.path1.gene250" class="clusterblast-orf" id="dummy-4_q2_0_all"  />
<polygon points="417,35 422,30 442,30 442,40 422,40 417,35 " style="fill:#b115d8; stroke-width:1; stroke:black; " description="&lt;b&gt;input.path1.gene251&lt;/b&gt;&lt;br&gt;input.path1.gene251&lt;br&gt;Location: 1017866 - 1018874" locus_tag="input.path1.gene251" class="clusterblast-orf" id="dummy-4_q3_0_all"  />
<polygon points="495,40 589,40 594,35 589,30 495,30 495,40 " style="fill:#b1d815; stroke-width:1; stroke:black; " description="&lt;b&gt;input.path1.gene252&lt;/b&gt;&lt;br&gt;input.path1.gene252&lt;br&gt;Location: 1021014 - 1025016" locus_tag="input.path1.gene252" class="clusterblast-orf" id="dummy-4_q4_0_all"  />
<polygon points="620,35 625,30 629,30 629,40 625,40 620,35 " style="fill:white; stroke-width:1; stroke:black; " description="&lt;b&gt;input.path1.gene253&lt;/b&gt;&lt;br&gt;input.path1.gene253&lt;br&gt;Location: 1026104 - 1026439" locus_tag="input.path1.gene253" class="clusterblast-orf" id="dummy-4_q5_0_all"  />
</g>
<g label="NZ_CP059997" description="NZ_CP059997 (3178758-3212721): Amycolatopsis sp. CA-230715 chromosome, comple... (10% of genes show similarity), NAPAA" class="clusterblast-cluster"  >
<text x="5" y="70" class="clusterblast-acc"  >
<a xlink:href="https://antismash-db.secondarymetabolites.org/area?record=NZ_CP059997&amp;start=3178758&amp;end=3212721" target="_blank">NZ_CP059997 (3178758-3212721)</a>: Amycolatopsis sp. CA-230715 chromosome, comple... (10% of genes show similarity), NAPAA</text>
<line x1="10" y1="85" x2="778.0" y2="85" style="stroke-width:1; stroke:grey; "  />
</g>
<g id="a4_000"  >
<polygon points="0,85 3,80 3,90 0,85 " style="fill:white; stroke-width:1; stroke:black; " description="&lt;b&gt;HUW46_RS14765&lt;/b&gt;&lt;br&gt;hypothetical protein&lt;br&gt;Location: 3180806 - 3180961" locus_tag="HUW46_RS14765" class="clusterblast-orf" id="dummy-4_h4_3_0"  />
</g>
<g id="a4_001"  >
<polygon points="5,85 10,80 43,80 43,90 10,90 5,85 " style="fill:white; stroke-width:1; stroke:black; " description="&lt;b&gt;HUW46_RS14770&lt;/b&gt;&lt;br&gt;DNA polymerase Y family protein&lt;br&gt;Location: 3181022 - 3182581" locus_tag="HUW46_RS14770" class="clusterblast-orf" id="dummy-4_h4_3_1"  />
</g>
<g id="a4_002"  >
<polygon points="44,85 49,80 62,80 62,90 49,90 44,85 " style="fill:white; stroke-width:1; stroke:black; " description="&lt;b&gt;HUW46_RS14775&lt;/b&gt;&lt;br&gt;hypothetical protein&lt;br&gt;Location: 3182626 - 3183354" locus_tag="HUW46_RS14775" class="clusterblast-orf" id="dummy-4_h4_3_2"  />
</g>
<g id="a4_003"  >
<polygon points="69,90 77,90 82,85 77,80 69,80 69,90 " style="fill:white; stroke-width:1; stroke:black; " description="&lt;b&gt;HUW46_RS14780&lt;/b&gt;&lt;br&gt;GNAT family N-acetyltransferase&lt;br&gt;Location: 3183615 - 3184157" locus_tag="HUW46_RS14780" class="clusterblast-orf" id="dummy-4_h4_3_3"  />
</g>
<g id="a4_004"  >
<polygon points="83,90 96,90 101,85 96,80 83,80 83,90 " style="fill:white; stroke-width:1; stroke:black; " description="&lt;b&gt;HUW46_RS14785&lt;/b&gt;&lt;br&gt;phosphotransferase&lt;br&gt;Location: 3184199 - 3184936" locus_tag="HUW46_RS14785" class="clusterblast-orf" id="dummy-4_h4_3_4"  />
</g>
<g id="a4_005"  >
<polygon points="105,90 126,90 131,85 126,80 105,80 105,90 " style="fill:white; stroke-width:1; stroke:black; " description="&lt;b&gt;HUW46_RS14790&lt;/b&gt;&lt;br&gt;IS630 family transposase&lt;br&gt;Location: 3185076 - 3186158" locus_tag="HUW46_RS14790" class="clusterblast-orf" id="dummy-4_h4_3_5"  />
</g>
<g id="a4_006"  >
<polygon points="132,90 147,90 152,85 147,80 132,80 132,90 " style="fill:white; stroke-width:1; stroke:black; " description="&lt;b&gt;HUW46_RS14795&lt;/b&gt;&lt;br&gt;LLM class F420-dependent oxidoreductase&lt;br&gt;Location: 3186195 - 3186983" locus_tag="HUW46_RS14795" class="clusterblast-orf" id="dummy-4_h4_3_6"  />
</g>
<g id="a4_007"  >
<polygon points="152,85 157,80 162,80 162,90 157,90 152,85 " style="fill:white; stroke-width:1; stroke:black; " description="&lt;b&gt;HUW46_RS48325&lt;/b&gt;&lt;br&gt;cyclic nucleotide-binding domain-containing protein&lt;br&gt;Location: 3186987 - 3187391" locus_tag="HUW46_RS48325" class="clusterblast-orf" id="dummy-4_h4_3_7"  />
</g>
<g id="a4_008"  >
<polygon points="163,85 168,80 205,80 205,90 168,90 163,85 " style="fill:white; stroke-width:1; stroke:black; " description="&lt;b&gt;HUW46_RS14800&lt;/b&gt;&lt;br&gt;GMC family oxidoreductase&lt;br&gt;Location: 3187428 - 3189125" locus_tag="HUW46_RS14800" class="clusterblast-orf" id="dummy-4_h4_3_8"  />
</g>
<g id="a4_009"  >
<polygon points="208,90 209,90 214,85 209,80 208,80 208,90 " style="fill:white; stroke-width:1; stroke:black; " description="&lt;b&gt;HUW46_RS14805&lt;/b&gt;&lt;br&gt;hypothetical protein&lt;br&gt;Location: 3189268 - 3189504" locus_tag="HUW46_RS14805" class="clusterblast-orf" id="dummy-4_h4_3_9"  />
</g>
<g id="a4_0010"  >
<polygon points="215,85 220,80 252,80 252,90 220,90 215,85 " style="fill:white; stroke-width:1; stroke:black; " description="&lt;b&gt;HUW46_RS14810&lt;/b&gt;&lt;br&gt;glycosyltransferase family 39 protein&lt;br&gt;Location: 3189533 - 3191035" locus_tag="HUW46_RS14810" class="clusterblast-orf" id="dummy-4_h4_3_10"  />
</g>
<g id="a4_0011"  >
<polygon points="254,85 259,80 283,80 283,90 259,90 254,85 " style="fill:white; stroke-width:1; stroke:black; " description="&lt;b&gt;HUW46_RS14815&lt;/b&gt;&lt;br&gt;MFS transporter&lt;br&gt;Location: 3191125 - 3192309" locus_tag="HUW46_RS14815" class="clusterblast-orf" id="dummy-4_h4_3_11"  />
</g>
<g id="a4_0012"  >
<polygon points="285,90 303,90 308,85 303,80 285,80 285,90 " style="fill:white; stroke-width:1; stroke:black; " description="&lt;b&gt;HUW46_RS14820&lt;/b&gt;&lt;br&gt;winged helix-turn-helix domain-containing protein&lt;br&gt;Location: 3192367 - 3193338" locus_tag="HUW46_RS14820" class="clusterblast-orf" id="dummy-4_h4_3_12"  />
</g>
<g id="a4_0013"  >
<polygon points="319,90 411,90 416,85 411,80 319,80 319,90 " style="fill:#b1d815; stroke-width:1; stroke:black; " description="&lt;b&gt;HUW46_RS14825&lt;/b&gt;&lt;br&gt;amino acid adenylation domain-containing protein&lt;br&gt;Location: 3193759 - 3197721&lt;br&gt;&lt;br&gt;&lt;b&gt;BlastP hit with input.path1.gene252&lt;/b&gt;&lt;br&gt;Percentage identity: 33&lt;br&gt;Percentage coverage: 102&lt;br&gt;BLAST bit score: 503&lt;br&gt;E-value: 3.14e-153" locus_tag="HUW46_RS14825" class="clusterblast-orf" id="dummy-4_h4_3_13"  />
</g>
<g id="a4_0014"  >
<polygon points="416,90 428,90 433,85 428,80 416,80 416,90 " style="fill:#b115d8; stroke-width:1; stroke:black; " description="&lt;b&gt;HUW46_RS14830&lt;/b&gt;&lt;br&gt;BPL-N domain-containing protein&lt;br&gt;Location: 3197718 - 3198371&lt;br&gt;&lt;br&gt;&lt;b&gt;BlastP hit with input.path1.gene251&lt;/b&gt;&lt;br&gt;Percentage identity: 47&lt;br&gt;Percentage coverage: 95&lt;br&gt;BLAST bit score: 177&lt;br&gt;E-value: 1.77e-53" locus_tag="HUW46_RS14830" class="clusterblast-orf" id="dummy-4_h4_3_14"  />
</g>
<g id="a4_0015"  >
<polygon points="432,90 457,90 462,85 457,80 432,80 432,90 " style="fill:white; stroke-width:1; stroke:black; " description="&lt;b&gt;HUW46_RS14835&lt;/b&gt;&lt;br&gt;heparan-alpha-glucosaminide N-acetyltransferase domain-containing protein&lt;br&gt;Location: 3198368 - 3199549" locus_tag="HUW46_RS14835" class="clusterblast-orf" id="dummy-4_h4_3_15"  />
</g>
<g id="a4_0016"  >
<polygon points="469,90 493,90 498,85 493,80 469,80 469,90 " style="fill:white; stroke-width:1; stroke:black; " description="&lt;b&gt;HUW46_RS14840&lt;/b&gt;&lt;br&gt;MFS transporter&lt;br&gt;Location: 3199853 - 3201040" locus_tag="HUW46_RS14840" class="clusterblast-orf" id="dummy-4_h4_3_16"  />
</g>
<g id="a4_0017"  >
<polygon points="508,85 513,80 528,80 528,90 513,90 508,85 " style="fill:white; stroke-width:1; stroke:black; " description="&lt;b&gt;HUW46_RS14845&lt;/b&gt;&lt;br&gt;ABC transporter permease&lt;br&gt;Location: 3201438 - 3202247" locus_tag="HUW46_RS14845" class="clusterblast-orf" id="dummy-4_h4_3_17"  />
</g>
<g id="a4_0018"  >
<polygon points="531,85 536,80 552,80 552,90 536,90 531,85 " style="fill:white; stroke-width:1; stroke:black; " description="&lt;b&gt;HUW46_RS14850&lt;/b&gt;&lt;br&gt;ABC transporter permease&lt;br&gt;Location: 3202351 - 3203220" locus_tag="HUW46_RS14850" class="clusterblast-orf" id="dummy-4_h4_3_18"  />
</g>
<g id="a4_0019"  >
<polygon points="554,85 559,80 584,80 584,90 559,90 554,85 " style="fill:white; stroke-width:1; stroke:black; " description="&lt;b&gt;HUW46_RS14855&lt;/b&gt;&lt;br&gt;ABC transporter substrate-binding protein&lt;br&gt;Location: 3203294 - 3204499" locus_tag="HUW46_RS14855" class="clusterblast-orf" id="dummy-4_h4_3_19"  />
</g>
<g id="a4_0020"  >
<polygon points="584,85 589,80 611,80 611,90 589,90 584,85 " style="fill:white; stroke-width:1; stroke:black; " description="&lt;b&gt;HUW46_RS14860&lt;/b&gt;&lt;br&gt;ABC transporter ATP-binding protein&lt;br&gt;Location: 3204517 - 3205605" locus_tag="HUW46_RS14860" class="clusterblast-orf" id="dummy-4_h4_3_20"  />
</g>
<g id="a4_0021"  >
<polygon points="611,85 616,80 646,80 646,90 616,90 611,85 " style="fill:white; stroke-width:1; stroke:black; " description="&lt;b&gt;HUW46_RS14865&lt;/b&gt;&lt;br&gt;gamma-aminobutyraldehyde dehydrogenase&lt;br&gt;Location: 3205629 - 3207047" locus_tag="HUW46_RS14865" class="clusterblast-orf" id="dummy-4_h4_3_21"  />
</g>
<g id="a4_0022"  >
<polygon points="650,90 664,90 669,85 664,80 650,80 650,90 " style="fill:white; stroke-width:1; stroke:black; " description="&lt;b&gt;HUW46_RS14870&lt;/b&gt;&lt;br&gt;FCD domain-containing protein&lt;br&gt;Location: 3207206 - 3207952" locus_tag="HUW46_RS14870" class="clusterblast-orf" id="dummy-4_h4_3_22"  />
</g>
<g id="a4_0023"  >
<polygon points="670,90 682,90 687,85 682,80 670,80 670,90 " style="fill:white; stroke-width:1; stroke:black; " description="&lt;b&gt;HUW46_RS14875&lt;/b&gt;&lt;br&gt;cache domain-containing protein&lt;br&gt;Location: 3207986 - 3208702" locus_tag="HUW46_RS14875" class="clusterblast-orf" id="dummy-4_h4_3_23"  />
</g>
<g id="a4_0024"  >
<polygon points="689,90 707,90 712,85 707,80 689,80 689,90 " style="fill:#1563d8; stroke-width:1; stroke:black; " description="&lt;b&gt;HUW46_RS14880&lt;/b&gt;&lt;br&gt;ATP-binding cassette domain-containing protein&lt;br&gt;Location: 3208786 - 3209724&lt;br&gt;&lt;br&gt;&lt;b&gt;BlastP hit with input.path1.gene250&lt;/b&gt;&lt;br&gt;Percentage identity: 33&lt;br&gt;Percentage coverage: 14&lt;br&gt;BLAST bit score: 111&lt;br&gt;E-value: 3.71e-24" locus_tag="HUW46_RS14880" class="clusterblast-orf" id="dummy-4_h4_3_24"  />
</g>
<g id="a4_0025"  >
<polygon points="712,90 728,90 733,85 728,80 712,80 712,90 " style="fill:white; stroke-width:1; stroke:black; " description="&lt;b&gt;HUW46_RS14885&lt;/b&gt;&lt;br&gt;ABC transporter permease&lt;br&gt;Location: 3209721 - 3210548" locus_tag="HUW46_RS14885" class="clusterblast-orf" id="dummy-4_h4_3_25"  />
</g>
<g id="a4_0026"  >
<polygon points="735,90 741,90 746,85 741,80 735,80 735,90 " style="fill:white; stroke-width:1; stroke:black; " description="&lt;b&gt;HUW46_RS14890&lt;/b&gt;&lt;br&gt;hypothetical protein&lt;br&gt;Location: 3210654 - 3211097" locus_tag="HUW46_RS14890" class="clusterblast-orf" id="dummy-4_h4_3_26"  />
</g>
<g id="a4_0027"  >
<polygon points="747,90 762,90 767,85 762,80 747,80 747,90 " style="fill:white; stroke-width:1; stroke:black; " description="&lt;b&gt;HUW46_RS14895&lt;/b&gt;&lt;br&gt;alpha/beta fold hydrolase&lt;br&gt;Location: 3211125 - 3211940" locus_tag="HUW46_RS14895" class="clusterblast-orf" id="dummy-4_h4_3_27"  />
</g>
<g id="a4_0028"  >
<polygon points="767,90 775,90 780,85 775,80 767,80 767,90 " style="fill:white; stroke-width:1; stroke:black; " description="&lt;b&gt;HUW46_RS14900&lt;/b&gt;&lt;br&gt;GNAT family N-acetyltransferase&lt;br&gt;Location: 3211937 - 3212446" locus_tag="HUW46_RS14900" class="clusterblast-orf" id="dummy-4_h4_3_28"  />
</g>
</svg>
