<svg xmlns="http://www.w3.org/2000/svg" xmlns:xlink="http://www.w3.org/1999/xlink" version="1.1" x="0" y="0" height="230" width="800" viewBox="0 0 800 230" preserveAspectRatio="none"  >
<g label="Query sequence" class="clusterblast-cluster"  >
<text x="5" y="20" class="clusterblast-acc"  >
Query sequence</text>
<line x1="10" y1="35" x2="778.0" y2="35" style="stroke-width:1; stroke:grey; "  />
<polygon points="89,40 138,40 143,35 138,30 89,30 89,40 " style="fill:#d81515; stroke-width:1; stroke:black; " description="&lt;b&gt;input.path1.gene1071&lt;/b&gt;&lt;br&gt;input.path1.gene1071&lt;br&gt;Location: 4183732 - 4187903" locus_tag="input.path1.gene1071" class="clusterblast-orf" id="dummy-8_q0_0_all"  />
<polygon points="191,35 196,30 217,30 217,40 196,40 191,35 " style="fill:#4dd815; stroke-width:1; stroke:black; " description="&lt;b&gt;input.path1.gene1072&lt;/b&gt;&lt;br&gt;input.path1.gene1072&lt;br&gt;Location: 4191645 - 4193696" locus_tag="input.path1.gene1072" class="clusterblast-orf" id="dummy-8_q1_0_all"  />
<polygon points="226,40 249,40 254,35 249,30 226,30 226,40 " style="fill:#1585d8; stroke-width:1; stroke:black; " description="&lt;b&gt;input.path1.gene1073&lt;/b&gt;&lt;br&gt;input.path1.gene1073&lt;br&gt;Location: 4194356 - 4196540" locus_tag="input.path1.gene1073" class="clusterblast-orf" id="dummy-8_q2_0_all"  />
<polygon points="258,35 263,30 269,30 269,40 263,40 258,35 " style="fill:#a115d8; stroke-width:1; stroke:black; " description="&lt;b&gt;input.path1.gene1074&lt;/b&gt;&lt;br&gt;input.path1.gene1074&lt;br&gt;Location: 4196867 - 4197674" locus_tag="input.path1.gene1074" class="clusterblast-orf" id="dummy-8_q3_0_all"  />
<polygon points="288,40 298,40 303,35 298,30 288,30 288,40 " style="fill:#d86915; stroke-width:1; stroke:black; " description="&lt;b&gt;input.path1.gene1075&lt;/b&gt;&lt;br&gt;input.path1.gene1075&lt;br&gt;Location: 4199177 - 4200376" locus_tag="input.path1.gene1075" class="clusterblast-orf" id="dummy-8_q4_0_all"  />
<polygon points="312,35 317,30 328,30 328,40 317,40 312,35 " style="fill:#15d831; stroke-width:1; stroke:black; " description="&lt;b&gt;input.path1.gene1076&lt;/b&gt;&lt;br&gt;input.path1.gene1076&lt;br&gt;Location: 4201041 - 4202280" locus_tag="input.path1.gene1076" class="clusterblast-orf" id="dummy-8_q5_0_all"  />
<polygon points="336,40 431,40 436,35 431,30 336,30 336,40 " style="fill:#1531d8; stroke-width:1; stroke:black; " description="&lt;b&gt;input.path1.gene1077&lt;/b&gt;&lt;br&gt;input.path1.gene1077&lt;br&gt;Location: 4202908 - 4210725" locus_tag="input.path1.gene1077" class="clusterblast-orf" id="dummy-8_q6_0_all"  />
<polygon points="444,40 446,35 444,30 444,40 " style="fill:white; stroke-width:1; stroke:black; " description="&lt;b&gt;input.path1.gene1078&lt;/b&gt;&lt;br&gt;input.path1.gene1078&lt;br&gt;Location: 4211293 - 4211464" locus_tag="input.path1.gene1078" class="clusterblast-orf" id="dummy-8_q7_0_all"  />
<polygon points="469,35 474,30 478,30 478,40 474,40 469,35 " style="fill:#d815bc; stroke-width:1; stroke:black; " description="&lt;b&gt;input.path1.gene1079&lt;/b&gt;&lt;br&gt;input.path1.gene1079&lt;br&gt;Location: 4213275 - 4213992" locus_tag="input.path1.gene1079" class="clusterblast-orf" id="dummy-8_q8_0_all"  />
<polygon points="488,40 502,40 507,35 502,30 488,30 488,40 " style="fill:#d8bc15; stroke-width:1; stroke:black; " description="&lt;b&gt;input.path1.gene1080&lt;/b&gt;&lt;br&gt;input.path1.gene1080&lt;br&gt;Location: 4214703 - 4216222" locus_tag="input.path1.gene1080" class="clusterblast-orf" id="dummy-8_q9_0_all"  />
<polygon points="530,40 542,40 547,35 542,30 530,30 530,40 " style="fill:#15d885; stroke-width:1; stroke:black; " description="&lt;b&gt;input.path1.gene1081&lt;/b&gt;&lt;br&gt;input.path1.gene1081&lt;br&gt;Location: 4218033 - 4219316" locus_tag="input.path1.gene1081" class="clusterblast-orf" id="dummy-8_q10_0_all"  />
<polygon points="549,35 554,30 575,30 575,40 554,40 549,35 " style="fill:#4d15d8; stroke-width:1; stroke:black; " description="&lt;b&gt;input.path1.gene1082&lt;/b&gt;&lt;br&gt;input.path1.gene1082&lt;br&gt;Location: 4219512 - 4221497" locus_tag="input.path1.gene1082" class="clusterblast-orf" id="dummy-8_q11_0_all"  />
<polygon points="580,40 582,40 587,35 582,30 580,30 580,40 " style="fill:#d81569; stroke-width:1; stroke:black; " description="&lt;b&gt;input.path1.gene1083&lt;/b&gt;&lt;br&gt;input.path1.gene1083&lt;br&gt;Location: 4221859 - 4222427" locus_tag="input.path1.gene1083" class="clusterblast-orf" id="dummy-8_q12_0_all"  />
<polygon points="596,35 601,30 622,30 622,40 601,40 596,35 " style="fill:#a1d815; stroke-width:1; stroke:black; " description="&lt;b&gt;input.path1.gene1084&lt;/b&gt;&lt;br&gt;input.path1.gene1084&lt;br&gt;Location: 4223120 - 4225180" locus_tag="input.path1.gene1084" class="clusterblast-orf" id="dummy-8_q13_0_all"  />
<polygon points="659,40 685,40 690,35 685,30 659,30 659,40 " style="fill:#15d8d8; stroke-width:1; stroke:black; " description="&lt;b&gt;input.path1.gene1085&lt;/b&gt;&lt;br&gt;input.path1.gene1085&lt;br&gt;Location: 4228026 - 4230444" locus_tag="input.path1.gene1085" class="clusterblast-orf" id="dummy-8_q14_0_all"  />
</g>
<g label="NW_020292043" description="NW_020292043 (1006677-1074663): Aspergillus vadensis CBS 113365 unplaced geno... (16% of genes show similarity), T1PKS" class="clusterblast-cluster"  >
<text x="5" y="70" class="clusterblast-acc"  >
<a xlink:href="https://antismash-db.secondarymetabolites.org/area?record=NW_020292043&amp;start=1006677&amp;end=1074663" target="_blank">NW_020292043 (1006677-1074663)</a>: Aspergillus vadensis CBS 113365 unplaced geno... (16% of genes show similarity), T1PKS</text>
<line x1="10" y1="85" x2="778.0" y2="85" style="stroke-width:1; stroke:grey; "  />
</g>
<g id="a8_000"  >
<polygon points="0,85 5,80 26,80 26,90 5,90 0,85 " style="fill:white; stroke-width:1; stroke:black; " description="&lt;b&gt;BO88DRAFT_384131&lt;/b&gt;&lt;br&gt;hypothetical protein&lt;br&gt;Location: 1071066 - 1069023" locus_tag="BO88DRAFT_384131" class="clusterblast-orf" id="dummy-8_h8_4_0"  />
</g>
<g id="a8_001"  >
<polygon points="34,85 39,80 57,80 57,90 39,90 34,85 " style="fill:#1585d8; stroke-width:1; stroke:black; " description="&lt;b&gt;BO88DRAFT_239181&lt;/b&gt;&lt;br&gt;MFS general substrate transporter&lt;br&gt;Location: 1068390 - 1066612&lt;br&gt;&lt;br&gt;&lt;b&gt;BlastP hit with input.path1.gene1073&lt;/b&gt;&lt;br&gt;Percentage identity: 34&lt;br&gt;Percentage coverage: 94&lt;br&gt;BLAST bit score: 287&lt;br&gt;E-value: 2.11e-88" locus_tag="BO88DRAFT_239181" class="clusterblast-orf" id="dummy-8_h8_4_1"  />
</g>
<g id="a8_002"  >
<polygon points="60,90 60,90 65,85 60,80 60,80 60,90 " style="fill:white; stroke-width:1; stroke:black; " description="&lt;b&gt;BO88DRAFT_239060&lt;/b&gt;&lt;br&gt;hypothetical protein&lt;br&gt;Location: 1066341 - 1065999" locus_tag="BO88DRAFT_239060" class="clusterblast-orf" id="dummy-8_h8_4_2"  />
</g>
<g id="a8_003"  >
<polygon points="65,90 80,90 85,85 80,80 65,80 65,90 " style="fill:white; stroke-width:1; stroke:black; " description="&lt;b&gt;BO88DRAFT_451392&lt;/b&gt;&lt;br&gt;hypothetical protein&lt;br&gt;Location: 1065975 - 1064399" locus_tag="BO88DRAFT_451392" class="clusterblast-orf" id="dummy-8_h8_4_3"  />
</g>
<g id="a8_004"  >
<polygon points="96,90 102,90 107,85 102,80 96,80 96,90 " style="fill:white; stroke-width:1; stroke:black; " description="&lt;b&gt;BO88DRAFT_239138&lt;/b&gt;&lt;br&gt;hypothetical protein&lt;br&gt;Location: 1063560 - 1062703" locus_tag="BO88DRAFT_239138" class="clusterblast-orf" id="dummy-8_h8_4_4"  />
</g>
<g id="a8_005"  >
<polygon points="118,85 123,80 126,80 126,90 123,90 118,85 " style="fill:white; stroke-width:1; stroke:black; " description="&lt;b&gt;BO88DRAFT_486192&lt;/b&gt;&lt;br&gt;hypothetical protein&lt;br&gt;Location: 1061875 - 1061241" locus_tag="BO88DRAFT_486192" class="clusterblast-orf" id="dummy-8_h8_4_5"  />
</g>
<g id="a8_006"  >
<polygon points="156,90 175,90 180,85 175,80 156,80 156,90 " style="fill:#1585d8; stroke-width:1; stroke:black; " description="&lt;b&gt;BO88DRAFT_486191&lt;/b&gt;&lt;br&gt;MFS transporter&lt;br&gt;Location: 1058909 - 1057007&lt;br&gt;&lt;br&gt;&lt;b&gt;BlastP hit with input.path1.gene1073&lt;/b&gt;&lt;br&gt;Percentage identity: 32&lt;br&gt;Percentage coverage: 91&lt;br&gt;BLAST bit score: 270&lt;br&gt;E-value: 1.74e-81" locus_tag="BO88DRAFT_486191" class="clusterblast-orf" id="dummy-8_h8_4_6"  />
</g>
<g id="a8_007"  >
<polygon points="185,85 190,80 203,80 203,90 190,90 185,85 " style="fill:white; stroke-width:1; stroke:black; " description="&lt;b&gt;BO88DRAFT_486190&lt;/b&gt;&lt;br&gt;S-adenosyl-L-methionine-dependent methyltransferase&lt;br&gt;Location: 1056646 - 1055262" locus_tag="BO88DRAFT_486190" class="clusterblast-orf" id="dummy-8_h8_4_7"  />
</g>
<g id="a8_008"  >
<polygon points="230,90 243,90 248,85 243,80 230,80 230,90 " style="fill:white; stroke-width:1; stroke:black; " description="&lt;b&gt;BO88DRAFT_478466&lt;/b&gt;&lt;br&gt;C6 transcription factor&lt;br&gt;Location: 1053169 - 1051767" locus_tag="BO88DRAFT_478466" class="clusterblast-orf" id="dummy-8_h8_4_8"  />
</g>
<g id="a8_009"  >
<polygon points="254,90 259,90 264,85 259,80 254,80 254,90 " style="fill:white; stroke-width:1; stroke:black; " description="&lt;b&gt;BO88DRAFT_451386&lt;/b&gt;&lt;br&gt;oxidoreductase&lt;br&gt;Location: 1051269 - 1050508" locus_tag="BO88DRAFT_451386" class="clusterblast-orf" id="dummy-8_h8_4_9"  />
</g>
<g id="a8_0010"  >
<polygon points="265,85 270,80 282,80 282,90 270,90 265,85 " style="fill:white; stroke-width:1; stroke:black; " description="&lt;b&gt;BO88DRAFT_478465&lt;/b&gt;&lt;br&gt;aldose 1-epimerase family protein&lt;br&gt;Location: 1050408 - 1049083" locus_tag="BO88DRAFT_478465" class="clusterblast-orf" id="dummy-8_h8_4_10"  />
</g>
<g id="a8_0011"  >
<polygon points="285,85 290,80 308,80 308,90 290,90 285,85 " style="fill:white; stroke-width:1; stroke:black; " description="&lt;b&gt;BO88DRAFT_334704&lt;/b&gt;&lt;br&gt;cytochrome P450&lt;br&gt;Location: 1048859 - 1047106" locus_tag="BO88DRAFT_334704" class="clusterblast-orf" id="dummy-8_h8_4_11"  />
</g>
<g id="a8_0012"  >
<polygon points="317,85 322,80 332,80 332,90 322,90 317,85 " style="fill:#15d831; stroke-width:1; stroke:black; " description="&lt;b&gt;BO88DRAFT_334822&lt;/b&gt;&lt;br&gt;zinc-binding dehydrogenase family oxidoreductase&lt;br&gt;Location: 1046385 - 1045253&lt;br&gt;&lt;br&gt;&lt;b&gt;BlastP hit with input.path1.gene1076&lt;/b&gt;&lt;br&gt;Percentage identity: 36&lt;br&gt;Percentage coverage: 139&lt;br&gt;BLAST bit score: 206&lt;br&gt;E-value: 5.7e-63" locus_tag="BO88DRAFT_334822" class="clusterblast-orf" id="dummy-8_h8_4_12"  />
</g>
<g id="a8_0013"  >
<polygon points="339,90 437,90 442,85 437,80 339,80 339,90 " style="fill:#1531d8; stroke-width:1; stroke:black; " description="&lt;b&gt;BO88DRAFT_334798&lt;/b&gt;&lt;br&gt;hypothetical protein&lt;br&gt;Location: 1044663 - 1036678&lt;br&gt;&lt;br&gt;&lt;b&gt;BlastP hit with input.path1.gene1077&lt;/b&gt;&lt;br&gt;Percentage identity: 44&lt;br&gt;Percentage coverage: 101&lt;br&gt;BLAST bit score: 1884&lt;br&gt;E-value: 0.0" locus_tag="BO88DRAFT_334798" class="clusterblast-orf" id="dummy-8_h8_4_13"  />
</g>
<g id="a8_0014"  >
<polygon points="461,85 466,80 480,80 480,90 466,90 461,85 " style="fill:white; stroke-width:1; stroke:black; " description="&lt;b&gt;BO88DRAFT_478459&lt;/b&gt;&lt;br&gt;cytochrome P450 ClCP1&lt;br&gt;Location: 1035202 - 1033681" locus_tag="BO88DRAFT_478459" class="clusterblast-orf" id="dummy-8_h8_4_14"  />
</g>
<g id="a8_0015"  >
<polygon points="493,90 500,90 505,85 500,80 493,80 493,90 " style="fill:white; stroke-width:1; stroke:black; " description="&lt;b&gt;BO88DRAFT_442250&lt;/b&gt;&lt;br&gt;glutathione S-transferase&lt;br&gt;Location: 1032661 - 1031761" locus_tag="BO88DRAFT_442250" class="clusterblast-orf" id="dummy-8_h8_4_15"  />
</g>
<g id="a8_0016"  >
<polygon points="547,90 571,90 576,85 571,80 547,80 547,90 " style="fill:white; stroke-width:1; stroke:black; " description="&lt;b&gt;BO88DRAFT_478445&lt;/b&gt;&lt;br&gt;HET-domain-containing protein&lt;br&gt;Location: 1028525 - 1026235" locus_tag="BO88DRAFT_478445" class="clusterblast-orf" id="dummy-8_h8_4_16"  />
</g>
<g id="a8_0017"  >
<polygon points="583,90 595,90 600,85 595,80 583,80 583,90 " style="fill:white; stroke-width:1; stroke:black; " description="&lt;b&gt;BO88DRAFT_433646&lt;/b&gt;&lt;br&gt;hypothetical protein&lt;br&gt;Location: 1025694 - 1024417" locus_tag="BO88DRAFT_433646" class="clusterblast-orf" id="dummy-8_h8_4_17"  />
</g>
<g id="a8_0018"  >
<polygon points="600,85 605,80 619,80 619,90 605,90 600,85 " style="fill:white; stroke-width:1; stroke:black; " description="&lt;b&gt;BO88DRAFT_486187&lt;/b&gt;&lt;br&gt;hypothetical protein&lt;br&gt;Location: 1024376 - 1022940" locus_tag="BO88DRAFT_486187" class="clusterblast-orf" id="dummy-8_h8_4_18"  />
</g>
<g id="a8_0019"  >
<polygon points="630,85 635,80 648,80 648,90 635,90 630,85 " style="fill:white; stroke-width:1; stroke:black; " description="&lt;b&gt;BO88DRAFT_486186&lt;/b&gt;&lt;br&gt;hypothetical protein&lt;br&gt;Location: 1022046 - 1020665" locus_tag="BO88DRAFT_486186" class="clusterblast-orf" id="dummy-8_h8_4_19"  />
</g>
<g id="a8_0020"  >
<polygon points="664,90 680,90 685,85 680,80 664,80 664,90 " style="fill:white; stroke-width:1; stroke:black; " description="&lt;b&gt;BO88DRAFT_451375&lt;/b&gt;&lt;br&gt;hypothetical protein&lt;br&gt;Location: 1019407 - 1017752" locus_tag="BO88DRAFT_451375" class="clusterblast-orf" id="dummy-8_h8_4_20"  />
</g>
<g id="a8_0021"  >
<polygon points="696,85 701,80 706,80 706,90 701,90 696,85 " style="fill:white; stroke-width:1; stroke:black; " description="&lt;b&gt;BO88DRAFT_403046&lt;/b&gt;&lt;br&gt;hypothetical protein&lt;br&gt;Location: 1016952 - 1016136" locus_tag="BO88DRAFT_403046" class="clusterblast-orf" id="dummy-8_h8_4_21"  />
</g>
<g id="a8_0022"  >
<polygon points="713,90 721,90 726,85 721,80 713,80 713,90 " style="fill:white; stroke-width:1; stroke:black; " description="&lt;b&gt;BO88DRAFT_403045&lt;/b&gt;&lt;br&gt;NmrA-like family protein&lt;br&gt;Location: 1015623 - 1014573" locus_tag="BO88DRAFT_403045" class="clusterblast-orf" id="dummy-8_h8_4_22"  />
</g>
<g id="a8_0023"  >
<polygon points="771,85 776,80 780,80 780,90 776,90 771,85 " style="fill:white; stroke-width:1; stroke:black; " description="&lt;b&gt;BO88DRAFT_451372&lt;/b&gt;&lt;br&gt;hypothetical protein&lt;br&gt;Location: 1011109 - 1010426" locus_tag="BO88DRAFT_451372" class="clusterblast-orf" id="dummy-8_h8_4_23"  />
</g>
</svg>
