<svg xmlns="http://www.w3.org/2000/svg" xmlns:xlink="http://www.w3.org/1999/xlink" version="1.1" x="0" y="0" height="230" width="800" viewBox="0 0 800 230" preserveAspectRatio="none"  >
<g label="Query sequence" class="clusterblast-cluster"  >
<text x="5" y="20" class="clusterblast-acc"  >
Query sequence</text>
<line x1="10" y1="35" x2="778.0" y2="35" style="stroke-width:1; stroke:grey; "  />
<polygon points="233,35 238,30 244,30 244,40 238,40 233,35 " style="fill:#d81515; stroke-width:1; stroke:black; " description="&lt;b&gt;input.path1.gene858&lt;/b&gt;&lt;br&gt;input.path1.gene858&lt;br&gt;Location: 3171140 - 3172673" locus_tag="input.path1.gene858" class="clusterblast-orf" id="dummy-7_q0_0_all"  />
<polygon points="247,40 255,40 260,35 255,30 247,30 247,40 " style="fill:#77d815; stroke-width:1; stroke:black; " description="&lt;b&gt;input.path1.gene859&lt;/b&gt;&lt;br&gt;input.path1.gene859&lt;br&gt;Location: 3173127 - 3175093" locus_tag="input.path1.gene859" class="clusterblast-orf" id="dummy-7_q1_0_all"  />
<polygon points="265,35 270,30 280,30 280,40 270,40 265,35 " style="fill:#15d8d8; stroke-width:1; stroke:black; " description="&lt;b&gt;input.path1.gene860&lt;/b&gt;&lt;br&gt;input.path1.gene860&lt;br&gt;Location: 3175773 - 3177967" locus_tag="input.path1.gene860" class="clusterblast-orf" id="dummy-7_q2_0_all"  />
<polygon points="286,35 291,30 293,30 293,40 291,40 286,35 " style="fill:white; stroke-width:1; stroke:black; " description="&lt;b&gt;input.path1.gene861&lt;/b&gt;&lt;br&gt;input.path1.gene861&lt;br&gt;Location: 3178857 - 3179854" locus_tag="input.path1.gene861" class="clusterblast-orf" id="dummy-7_q3_0_all"  />
<polygon points="303,40 307,35 303,30 303,40 " style="fill:#7715d8; stroke-width:1; stroke:black; " description="&lt;b&gt;input.path1.gene862&lt;/b&gt;&lt;br&gt;input.path1.gene862&lt;br&gt;Location: 3181389 - 3181994" locus_tag="input.path1.gene862" class="clusterblast-orf" id="dummy-7_q4_0_all"  />
<polygon points="322,35 327,30 335,30 335,40 327,40 322,35 " style="fill:#d87715; stroke-width:1; stroke:black; " description="&lt;b&gt;input.path1.gene863&lt;/b&gt;&lt;br&gt;input.path1.gene863&lt;br&gt;Location: 3184117 - 3186105" locus_tag="input.path1.gene863" class="clusterblast-orf" id="dummy-7_q5_0_all"  />
<polygon points="356,35 361,30 365,30 365,40 361,40 356,35 " style="fill:#15d815; stroke-width:1; stroke:black; " description="&lt;b&gt;input.path1.gene864&lt;/b&gt;&lt;br&gt;input.path1.gene864&lt;br&gt;Location: 3189171 - 3190369" locus_tag="input.path1.gene864" class="clusterblast-orf" id="dummy-7_q6_0_all"  />
<polygon points="379,35 384,30 391,30 391,40 384,40 379,35 " style="fill:#1577d8; stroke-width:1; stroke:black; " description="&lt;b&gt;input.path1.gene865&lt;/b&gt;&lt;br&gt;input.path1.gene865&lt;br&gt;Location: 3192540 - 3194310" locus_tag="input.path1.gene865" class="clusterblast-orf" id="dummy-7_q7_0_all"  />
<polygon points="395,35 400,30 434,30 434,40 400,40 395,35 " style="fill:#d815d8; stroke-width:1; stroke:black; " description="&lt;b&gt;input.path1.gene866&lt;/b&gt;&lt;br&gt;input.path1.gene866&lt;br&gt;Location: 3194879 - 3200557" locus_tag="input.path1.gene866" class="clusterblast-orf" id="dummy-7_q8_0_all"  />
<polygon points="437,40 440,40 445,35 440,30 437,30 437,40 " style="fill:#d8d815; stroke-width:1; stroke:black; " description="&lt;b&gt;input.path1.gene867&lt;/b&gt;&lt;br&gt;input.path1.gene867&lt;br&gt;Location: 3201020 - 3202095" locus_tag="input.path1.gene867" class="clusterblast-orf" id="dummy-7_q9_0_all"  />
<polygon points="445,35 449,30 449,40 445,35 " style="fill:white; stroke-width:1; stroke:black; " description="&lt;b&gt;input.path1.gene868&lt;/b&gt;&lt;br&gt;input.path1.gene868&lt;br&gt;Location: 3202108 - 3202755" locus_tag="input.path1.gene868" class="clusterblast-orf" id="dummy-7_q10_0_all"  />
<polygon points="452,40 455,40 460,35 455,30 452,30 452,40 " style="fill:#15d877; stroke-width:1; stroke:black; " description="&lt;b&gt;input.path1.gene869&lt;/b&gt;&lt;br&gt;input.path1.gene869&lt;br&gt;Location: 3203225 - 3204269" locus_tag="input.path1.gene869" class="clusterblast-orf" id="dummy-7_q11_0_all"  />
<polygon points="460,40 464,35 460,30 460,40 " style="fill:white; stroke-width:1; stroke:black; " description="&lt;b&gt;input.path1.gene870&lt;/b&gt;&lt;br&gt;input.path1.gene870&lt;br&gt;Location: 3204398 - 3204978" locus_tag="input.path1.gene870" class="clusterblast-orf" id="dummy-7_q12_0_all"  />
<polygon points="465,40 474,40 479,35 474,30 465,30 465,40 " style="fill:#1577d8; stroke-width:1; stroke:black; " description="&lt;b&gt;input.path1.gene871&lt;/b&gt;&lt;br&gt;input.path1.gene871&lt;br&gt;Location: 3205064 - 3207054" locus_tag="input.path1.gene871" class="clusterblast-orf" id="dummy-7_q13_0_all"  />
<polygon points="481,35 486,30 486,30 486,40 486,40 481,35 " style="fill:#1515d8; stroke-width:1; stroke:black; " description="&lt;b&gt;input.path1.gene872&lt;/b&gt;&lt;br&gt;input.path1.gene872&lt;br&gt;Location: 3207413 - 3208146" locus_tag="input.path1.gene872" class="clusterblast-orf" id="dummy-7_q14_0_all"  />
<polygon points="507,35 512,30 521,30 521,40 512,40 507,35 " style="fill:white; stroke-width:1; stroke:black; " description="&lt;b&gt;input.path1.gene873&lt;/b&gt;&lt;br&gt;input.path1.gene873&lt;br&gt;Location: 3211172 - 3213224" locus_tag="input.path1.gene873" class="clusterblast-orf" id="dummy-7_q15_0_all"  />
<polygon points="534,35 539,30 543,30 543,40 539,40 534,35 " style="fill:#d81577; stroke-width:1; stroke:black; " description="&lt;b&gt;input.path1.gene874&lt;/b&gt;&lt;br&gt;input.path1.gene874&lt;br&gt;Location: 3215230 - 3216472" locus_tag="input.path1.gene874" class="clusterblast-orf" id="dummy-7_q16_0_all"  />
<polygon points="545,35 546,30 546,40 545,35 " style="fill:white; stroke-width:1; stroke:black; " description="&lt;b&gt;input.path1.gene875&lt;/b&gt;&lt;br&gt;input.path1.gene875&lt;br&gt;Location: 3216731 - 3216921" locus_tag="input.path1.gene875" class="clusterblast-orf" id="dummy-7_q17_0_all"  />
</g>
<g label="NC_026475" description="NC_026475 (6050982-6167538): Fusarium graminearum PH-1 chromosome 2, whole ge... (13% of genes show similarity), NRPS,isocyanide-nrp" class="clusterblast-cluster"  >
<text x="5" y="70" class="clusterblast-acc"  >
<a xlink:href="https://antismash-db.secondarymetabolites.org/area?record=NC_026475&amp;start=6050982&amp;end=6167538" target="_blank">NC_026475 (6050982-6167538)</a>: Fusarium graminearum PH-1 chromosome 2, whole ge... (13% of genes show similarity), NRPS,isocyanide-nrp</text>
<line x1="10" y1="85" x2="778.0" y2="85" style="stroke-width:1; stroke:grey; "  />
</g>
<g id="a7_000"  >
<polygon points="0,85 5,80 11,80 11,90 5,90 0,85 " style="fill:white; stroke-width:1; stroke:black; " description="&lt;b&gt;FGSG_03758&lt;/b&gt;&lt;br&gt;hypothetical protein&lt;br&gt;Location: 6052505 - 6054120" locus_tag="FGSG_03758" class="clusterblast-orf" id="dummy-7_h7_9_0"  />
</g>
<g id="a7_001"  >
<polygon points="17,90 21,85 17,80 17,90 " style="fill:white; stroke-width:1; stroke:black; " description="&lt;b&gt;FGSG_03757&lt;/b&gt;&lt;br&gt;hypothetical protein&lt;br&gt;Location: 6055063 - 6055668" locus_tag="FGSG_03757" class="clusterblast-orf" id="dummy-7_h7_9_1"  />
</g>
<g id="a7_002"  >
<polygon points="32,90 37,90 42,85 37,80 32,80 32,90 " style="fill:white; stroke-width:1; stroke:black; " description="&lt;b&gt;FGSG_03756&lt;/b&gt;&lt;br&gt;hypothetical protein&lt;br&gt;Location: 6057246 - 6058754" locus_tag="FGSG_03756" class="clusterblast-orf" id="dummy-7_h7_9_2"  />
</g>
<g id="a7_003"  >
<polygon points="45,90 47,90 52,85 47,80 45,80 45,90 " style="fill:white; stroke-width:1; stroke:black; " description="&lt;b&gt;FGSG_03755&lt;/b&gt;&lt;br&gt;hypothetical protein&lt;br&gt;Location: 6059189 - 6060256" locus_tag="FGSG_03755" class="clusterblast-orf" id="dummy-7_h7_9_3"  />
</g>
<g id="a7_004"  >
<polygon points="53,85 58,80 63,80 63,90 58,90 53,85 " style="fill:white; stroke-width:1; stroke:black; " description="&lt;b&gt;FGSG_03754&lt;/b&gt;&lt;br&gt;hypothetical protein&lt;br&gt;Location: 6060348 - 6061776" locus_tag="FGSG_03754" class="clusterblast-orf" id="dummy-7_h7_9_4"  />
</g>
<g id="a7_005"  >
<polygon points="67,90 76,90 81,85 76,80 67,80 67,90 " style="fill:white; stroke-width:1; stroke:black; " description="&lt;b&gt;FGSG_12385&lt;/b&gt;&lt;br&gt;hypothetical protein&lt;br&gt;Location: 6062446 - 6064429" locus_tag="FGSG_12385" class="clusterblast-orf" id="dummy-7_h7_9_5"  />
</g>
<g id="a7_006"  >
<polygon points="85,90 88,90 93,85 88,80 85,80 85,90 " style="fill:white; stroke-width:1; stroke:black; " description="&lt;b&gt;FGSG_12386&lt;/b&gt;&lt;br&gt;hypothetical protein&lt;br&gt;Location: 6064994 - 6066133" locus_tag="FGSG_12386" class="clusterblast-orf" id="dummy-7_h7_9_6"  />
</g>
<g id="a7_007"  >
<polygon points="94,85 99,80 101,80 101,90 99,90 94,85 " style="fill:white; stroke-width:1; stroke:black; " description="&lt;b&gt;FGSG_03752&lt;/b&gt;&lt;br&gt;hypothetical protein&lt;br&gt;Location: 6066269 - 6067397" locus_tag="FGSG_03752" class="clusterblast-orf" id="dummy-7_h7_9_7"  />
</g>
<g id="a7_008"  >
<polygon points="109,90 117,90 122,85 117,80 109,80 109,90 " style="fill:white; stroke-width:1; stroke:black; " description="&lt;b&gt;FGSG_03751&lt;/b&gt;&lt;br&gt;hypothetical protein&lt;br&gt;Location: 6068496 - 6070408" locus_tag="FGSG_03751" class="clusterblast-orf" id="dummy-7_h7_9_8"  />
</g>
<g id="a7_009"  >
<polygon points="125,85 130,80 141,80 141,90 130,90 125,85 " style="fill:white; stroke-width:1; stroke:black; " description="&lt;b&gt;FGSG_03750&lt;/b&gt;&lt;br&gt;hypothetical protein&lt;br&gt;Location: 6070896 - 6073259" locus_tag="FGSG_03750" class="clusterblast-orf" id="dummy-7_h7_9_9"  />
</g>
<g id="a7_0010"  >
<polygon points="149,90 151,85 149,80 149,90 " style="fill:white; stroke-width:1; stroke:black; " description="&lt;b&gt;FGSG_12387&lt;/b&gt;&lt;br&gt;hypothetical protein&lt;br&gt;Location: 6074384 - 6074705" locus_tag="FGSG_12387" class="clusterblast-orf" id="dummy-7_h7_9_10"  />
</g>
<g id="a7_0011"  >
<polygon points="154,85 159,80 162,80 162,90 159,90 154,85 " style="fill:white; stroke-width:1; stroke:black; " description="&lt;b&gt;FGSG_03749&lt;/b&gt;&lt;br&gt;hypothetical protein&lt;br&gt;Location: 6075142 - 6076353" locus_tag="FGSG_03749" class="clusterblast-orf" id="dummy-7_h7_9_11"  />
</g>
<g id="a7_0012"  >
<polygon points="172,90 173,85 172,80 172,90 " style="fill:white; stroke-width:1; stroke:black; " description="&lt;b&gt;FGSG_12388&lt;/b&gt;&lt;br&gt;hypothetical protein&lt;br&gt;Location: 6077685 - 6077952" locus_tag="FGSG_12388" class="clusterblast-orf" id="dummy-7_h7_9_12"  />
</g>
<g id="a7_0013"  >
<polygon points="188,90 188,90 193,85 188,80 188,80 188,90 " style="fill:white; stroke-width:1; stroke:black; " description="&lt;b&gt;FGSG_03748&lt;/b&gt;&lt;br&gt;hypothetical protein&lt;br&gt;Location: 6080037 - 6080850" locus_tag="FGSG_03748" class="clusterblast-orf" id="dummy-7_h7_9_13"  />
</g>
<g id="a7_0014"  >
<polygon points="194,85 199,80 237,80 237,90 199,90 194,85 " style="fill:white; stroke-width:1; stroke:black; " description="&lt;b&gt;FGSG_03747&lt;/b&gt;&lt;br&gt;hypothetical protein&lt;br&gt;Location: 6080983 - 6087254" locus_tag="FGSG_03747" class="clusterblast-orf" id="dummy-7_h7_9_14"  />
</g>
<g id="a7_0015"  >
<polygon points="246,85 251,80 251,80 251,90 251,90 246,85 " style="fill:white; stroke-width:1; stroke:black; " description="&lt;b&gt;FGSG_03746&lt;/b&gt;&lt;br&gt;hypothetical protein&lt;br&gt;Location: 6088613 - 6089371" locus_tag="FGSG_03746" class="clusterblast-orf" id="dummy-7_h7_9_15"  />
</g>
<g id="a7_0016"  >
<polygon points="268,90 272,90 277,85 272,80 268,80 268,90 " style="fill:white; stroke-width:1; stroke:black; " description="&lt;b&gt;FGSG_03745&lt;/b&gt;&lt;br&gt;hypothetical protein&lt;br&gt;Location: 6091868 - 6093154" locus_tag="FGSG_03745" class="clusterblast-orf" id="dummy-7_h7_9_16"  />
</g>
<g id="a7_0017"  >
<polygon points="290,90 298,90 303,85 298,80 290,80 290,90 " style="fill:#1577d8; stroke-width:1; stroke:black; " description="&lt;b&gt;FGSG_03744&lt;/b&gt;&lt;br&gt;siderophore iron transporter mirB&lt;br&gt;Location: 6094963 - 6096909&lt;br&gt;&lt;br&gt;&lt;b&gt;BlastP hit with input.path1.gene865&lt;/b&gt;&lt;br&gt;Percentage identity: 42&lt;br&gt;Percentage coverage: 95&lt;br&gt;BLAST bit score: 417&lt;br&gt;E-value: 3.08e-137&lt;br&gt;&lt;br&gt;&lt;b&gt;BlastP hit with input.path1.gene871&lt;/b&gt;&lt;br&gt;Percentage identity: 38&lt;br&gt;Percentage coverage: 99&lt;br&gt;BLAST bit score: 380&lt;br&gt;E-value: 6.02e-123" locus_tag="FGSG_03744" class="clusterblast-orf" id="dummy-7_h7_9_17"  />
</g>
<g id="a7_0018"  >
<polygon points="305,85 310,80 312,80 312,90 310,90 305,85 " style="fill:white; stroke-width:1; stroke:black; " description="&lt;b&gt;FGSG_03743&lt;/b&gt;&lt;br&gt;hypothetical protein&lt;br&gt;Location: 6097188 - 6098306" locus_tag="FGSG_03743" class="clusterblast-orf" id="dummy-7_h7_9_18"  />
</g>
<g id="a7_0019"  >
<polygon points="322,85 327,80 338,80 338,90 327,90 322,85 " style="fill:white; stroke-width:1; stroke:black; " description="&lt;b&gt;FGSG_03742&lt;/b&gt;&lt;br&gt;hypothetical protein&lt;br&gt;Location: 6099673 - 6102087" locus_tag="FGSG_03742" class="clusterblast-orf" id="dummy-7_h7_9_19"  />
</g>
<g id="a7_0020"  >
<polygon points="348,85 353,80 360,80 360,90 353,90 348,85 " style="fill:white; stroke-width:1; stroke:black; " description="&lt;b&gt;FGSG_03741&lt;/b&gt;&lt;br&gt;hypothetical protein&lt;br&gt;Location: 6103509 - 6105328" locus_tag="FGSG_03741" class="clusterblast-orf" id="dummy-7_h7_9_20"  />
</g>
<g id="a7_0021"  >
<polygon points="365,85 370,80 374,80 374,90 370,90 365,85 " style="fill:white; stroke-width:1; stroke:black; " description="&lt;b&gt;FGSG_12389&lt;/b&gt;&lt;br&gt;hypothetical protein&lt;br&gt;Location: 6105938 - 6107356" locus_tag="FGSG_12389" class="clusterblast-orf" id="dummy-7_h7_9_21"  />
</g>
<g id="a7_0022"  >
<polygon points="378,85 383,80 393,80 393,90 383,90 378,85 " style="fill:white; stroke-width:1; stroke:black; " description="&lt;b&gt;FGSG_12390&lt;/b&gt;&lt;br&gt;hypothetical protein&lt;br&gt;Location: 6107862 - 6110061" locus_tag="FGSG_12390" class="clusterblast-orf" id="dummy-7_h7_9_22"  />
</g>
<g id="a7_0023"  >
<polygon points="397,85 402,80 408,80 408,90 402,90 397,85 " style="fill:#d8d815; stroke-width:1; stroke:black; " description="&lt;b&gt;FGSG_03739&lt;/b&gt;&lt;br&gt;hypothetical protein&lt;br&gt;Location: 6110754 - 6112355&lt;br&gt;&lt;br&gt;&lt;b&gt;BlastP hit with input.path1.gene867&lt;/b&gt;&lt;br&gt;Percentage identity: 44&lt;br&gt;Percentage coverage: 92&lt;br&gt;BLAST bit score: 198&lt;br&gt;E-value: 1.78e-58" locus_tag="FGSG_03739" class="clusterblast-orf" id="dummy-7_h7_9_23"  />
</g>
<g id="a7_0024"  >
<polygon points="414,90 416,90 421,85 416,80 414,80 414,90 " style="fill:#15d877; stroke-width:1; stroke:black; " description="&lt;b&gt;FGSG_03738&lt;/b&gt;&lt;br&gt;hypothetical protein&lt;br&gt;Location: 6113116 - 6114189&lt;br&gt;&lt;br&gt;&lt;b&gt;BlastP hit with input.path1.gene869&lt;/b&gt;&lt;br&gt;Percentage identity: 61&lt;br&gt;Percentage coverage: 99&lt;br&gt;BLAST bit score: 430&lt;br&gt;E-value: 2.52e-149" locus_tag="FGSG_03738" class="clusterblast-orf" id="dummy-7_h7_9_24"  />
</g>
<g id="a7_0025"  >
<polygon points="424,85 429,80 436,80 436,90 429,90 424,85 " style="fill:#1577d8; stroke-width:1; stroke:black; " description="&lt;b&gt;FGSG_03737&lt;/b&gt;&lt;br&gt;hypothetical protein&lt;br&gt;Location: 6114677 - 6116428&lt;br&gt;&lt;br&gt;&lt;b&gt;BlastP hit with input.path1.gene865&lt;/b&gt;&lt;br&gt;Percentage identity: 53&lt;br&gt;Percentage coverage: 93&lt;br&gt;BLAST bit score: 577&lt;br&gt;E-value: 5.55e-200&lt;br&gt;&lt;br&gt;&lt;b&gt;BlastP hit with input.path1.gene871&lt;/b&gt;&lt;br&gt;Percentage identity: 51&lt;br&gt;Percentage coverage: 98&lt;br&gt;BLAST bit score: 541&lt;br&gt;E-value: 3.7e-186" locus_tag="FGSG_03737" class="clusterblast-orf" id="dummy-7_h7_9_25"  />
</g>
<g id="a7_0026"  >
<polygon points="441,85 446,80 471,80 471,90 446,90 441,85 " style="fill:#d815d8; stroke-width:1; stroke:black; " description="&lt;b&gt;FGSG_03736&lt;/b&gt;&lt;br&gt;hypothetical protein&lt;br&gt;Location: 6117080 - 6121531&lt;br&gt;&lt;br&gt;&lt;b&gt;BlastP hit with input.path1.gene866&lt;/b&gt;&lt;br&gt;Percentage identity: 57&lt;br&gt;Percentage coverage: 72&lt;br&gt;BLAST bit score: 1382&lt;br&gt;E-value: 0.0" locus_tag="FGSG_03736" class="clusterblast-orf" id="dummy-7_h7_9_26"  />
</g>
<g id="a7_0027"  >
<polygon points="483,90 524,90 529,85 524,80 483,80 483,90 " style="fill:#d815d8; stroke-width:1; stroke:black; " description="&lt;b&gt;FGSG_03735&lt;/b&gt;&lt;br&gt;hypothetical protein&lt;br&gt;Location: 6123334 - 6130038&lt;br&gt;&lt;br&gt;&lt;b&gt;BlastP hit with input.path1.gene866&lt;/b&gt;&lt;br&gt;Percentage identity: 65&lt;br&gt;Percentage coverage: 20&lt;br&gt;BLAST bit score: 454&lt;br&gt;E-value: 1.67e-130" locus_tag="FGSG_03735" class="clusterblast-orf" id="dummy-7_h7_9_27"  />
</g>
<g id="a7_0028"  >
<polygon points="531,90 531,90 536,85 531,80 531,80 531,90 " style="fill:white; stroke-width:1; stroke:black; " description="&lt;b&gt;FGSG_03734&lt;/b&gt;&lt;br&gt;hypothetical protein&lt;br&gt;Location: 6130376 - 6131054" locus_tag="FGSG_03734" class="clusterblast-orf" id="dummy-7_h7_9_28"  />
</g>
<g id="a7_0029"  >
<polygon points="541,85 546,80 550,80 550,90 546,90 541,85 " style="fill:white; stroke-width:1; stroke:black; " description="&lt;b&gt;FGSG_03733&lt;/b&gt;&lt;br&gt;hypothetical protein&lt;br&gt;Location: 6131763 - 6133158" locus_tag="FGSG_03733" class="clusterblast-orf" id="dummy-7_h7_9_29"  />
</g>
<g id="a7_0030"  >
<polygon points="554,85 559,80 567,80 567,90 559,90 554,85 " style="fill:white; stroke-width:1; stroke:black; " description="&lt;b&gt;FGSG_03732&lt;/b&gt;&lt;br&gt;hypothetical protein&lt;br&gt;Location: 6133660 - 6135575" locus_tag="FGSG_03732" class="clusterblast-orf" id="dummy-7_h7_9_30"  />
</g>
<g id="a7_0031"  >
<polygon points="573,85 578,80 580,80 580,90 578,90 573,85 " style="fill:white; stroke-width:1; stroke:black; " description="&lt;b&gt;FGSG_03731&lt;/b&gt;&lt;br&gt;hypothetical protein&lt;br&gt;Location: 6136394 - 6137492" locus_tag="FGSG_03731" class="clusterblast-orf" id="dummy-7_h7_9_31"  />
</g>
<g id="a7_0032"  >
<polygon points="586,90 594,90 599,85 594,80 586,80 586,90 " style="fill:white; stroke-width:1; stroke:black; " description="&lt;b&gt;FGSG_03730&lt;/b&gt;&lt;br&gt;hypothetical protein&lt;br&gt;Location: 6138390 - 6140276" locus_tag="FGSG_03730" class="clusterblast-orf" id="dummy-7_h7_9_32"  />
</g>
<g id="a7_0033"  >
<polygon points="602,85 607,80 611,80 611,90 607,90 602,85 " style="fill:white; stroke-width:1; stroke:black; " description="&lt;b&gt;FGSG_03729&lt;/b&gt;&lt;br&gt;hypothetical protein&lt;br&gt;Location: 6140695 - 6141989" locus_tag="FGSG_03729" class="clusterblast-orf" id="dummy-7_h7_9_33"  />
</g>
<g id="a7_0034"  >
<polygon points="618,85 623,80 625,80 625,90 623,90 618,85 " style="fill:white; stroke-width:1; stroke:black; " description="&lt;b&gt;FGSG_03728&lt;/b&gt;&lt;br&gt;hypothetical protein&lt;br&gt;Location: 6142980 - 6144085" locus_tag="FGSG_03728" class="clusterblast-orf" id="dummy-7_h7_9_34"  />
</g>
<g id="a7_0035"  >
<polygon points="632,85 637,80 648,80 648,90 637,90 632,85 " style="fill:white; stroke-width:1; stroke:black; " description="&lt;b&gt;FGSG_03727&lt;/b&gt;&lt;br&gt;hypothetical protein&lt;br&gt;Location: 6145146 - 6147367" locus_tag="FGSG_03727" class="clusterblast-orf" id="dummy-7_h7_9_35"  />
</g>
<g id="a7_0036"  >
<polygon points="650,90 652,85 650,80 650,90 " style="fill:white; stroke-width:1; stroke:black; " description="&lt;b&gt;FGSG_12391&lt;/b&gt;&lt;br&gt;hypothetical protein&lt;br&gt;Location: 6147718 - 6148020" locus_tag="FGSG_12391" class="clusterblast-orf" id="dummy-7_h7_9_36"  />
</g>
<g id="a7_0037"  >
<polygon points="656,90 659,90 664,85 659,80 656,80 656,90 " style="fill:white; stroke-width:1; stroke:black; " description="&lt;b&gt;FGSG_03726&lt;/b&gt;&lt;br&gt;hypothetical protein&lt;br&gt;Location: 6148670 - 6149828" locus_tag="FGSG_03726" class="clusterblast-orf" id="dummy-7_h7_9_37"  />
</g>
<g id="a7_0038"  >
<polygon points="678,90 685,90 690,85 685,80 678,80 678,90 " style="fill:white; stroke-width:1; stroke:black; " description="&lt;b&gt;FGSG_03725&lt;/b&gt;&lt;br&gt;hypothetical protein&lt;br&gt;Location: 6151799 - 6153607" locus_tag="FGSG_03725" class="clusterblast-orf" id="dummy-7_h7_9_38"  />
</g>
<g id="a7_0039"  >
<polygon points="696,85 701,80 709,80 709,90 701,90 696,85 " style="fill:white; stroke-width:1; stroke:black; " description="&lt;b&gt;FGSG_03724&lt;/b&gt;&lt;br&gt;hypothetical protein&lt;br&gt;Location: 6154534 - 6156411" locus_tag="FGSG_03724" class="clusterblast-orf" id="dummy-7_h7_9_39"  />
</g>
<g id="a7_0040"  >
<polygon points="713,90 720,90 725,85 720,80 713,80 713,90 " style="fill:white; stroke-width:1; stroke:black; " description="&lt;b&gt;FGSG_03723&lt;/b&gt;&lt;br&gt;hypothetical protein&lt;br&gt;Location: 6156982 - 6158707" locus_tag="FGSG_03723" class="clusterblast-orf" id="dummy-7_h7_9_40"  />
</g>
<g id="a7_0041"  >
<polygon points="729,85 733,80 733,90 729,85 " style="fill:white; stroke-width:1; stroke:black; " description="&lt;b&gt;FGSG_03722&lt;/b&gt;&lt;br&gt;hypothetical protein&lt;br&gt;Location: 6159317 - 6159824" locus_tag="FGSG_03722" class="clusterblast-orf" id="dummy-7_h7_9_41"  />
</g>
<g id="a7_0042"  >
<polygon points="744,90 746,90 751,85 746,80 744,80 744,90 " style="fill:white; stroke-width:1; stroke:black; " description="&lt;b&gt;FGSG_03721&lt;/b&gt;&lt;br&gt;hypothetical protein&lt;br&gt;Location: 6161511 - 6162563" locus_tag="FGSG_03721" class="clusterblast-orf" id="dummy-7_h7_9_42"  />
</g>
<g id="a7_0043"  >
<polygon points="755,90 759,85 755,80 755,90 " style="fill:white; stroke-width:1; stroke:black; " description="&lt;b&gt;FGSG_03720&lt;/b&gt;&lt;br&gt;hypothetical protein&lt;br&gt;Location: 6163149 - 6163668" locus_tag="FGSG_03720" class="clusterblast-orf" id="dummy-7_h7_9_43"  />
</g>
<g id="a7_0044"  >
<polygon points="764,85 767,80 767,90 764,85 " style="fill:white; stroke-width:1; stroke:black; " description="&lt;b&gt;FGSG_03719&lt;/b&gt;&lt;br&gt;hypothetical protein&lt;br&gt;Location: 6164411 - 6164836" locus_tag="FGSG_03719" class="clusterblast-orf" id="dummy-7_h7_9_44"  />
</g>
<g id="a7_0045"  >
<polygon points="770,85 775,80 780,80 780,90 775,90 770,85 " style="fill:white; stroke-width:1; stroke:black; " description="&lt;b&gt;FGSG_03718&lt;/b&gt;&lt;br&gt;hypothetical protein&lt;br&gt;Location: 6165250 - 6166688" locus_tag="FGSG_03718" class="clusterblast-orf" id="dummy-7_h7_9_45"  />
</g>
</svg>
