<svg xmlns="http://www.w3.org/2000/svg" xmlns:xlink="http://www.w3.org/1999/xlink" version="1.1" x="0" y="0" height="230" width="800" viewBox="0 0 800 230" preserveAspectRatio="none"  >
<g label="Query sequence" class="clusterblast-cluster"  >
<text x="5" y="20" class="clusterblast-acc"  >
Query sequence</text>
<line x1="10" y1="35" x2="778.0" y2="35" style="stroke-width:1; stroke:grey; "  />
<polygon points="171,40 197,40 202,35 197,30 171,30 171,40 " style="fill:#d81515; stroke-width:1; stroke:black; " description="&lt;b&gt;input.path1.gene2458&lt;/b&gt;&lt;br&gt;input.path1.gene2458&lt;br&gt;Location: 9181928 - 9183134" locus_tag="input.path1.gene2458" class="clusterblast-orf" id="dummy-12_q0_0_all"  />
<polygon points="218,35 223,30 284,30 284,40 223,40 218,35 " style="fill:#15d863; stroke-width:1; stroke:black; " description="&lt;b&gt;input.path1.gene2459&lt;/b&gt;&lt;br&gt;input.path1.gene2459&lt;br&gt;Location: 9183728 - 9186278" locus_tag="input.path1.gene2459" class="clusterblast-orf" id="dummy-12_q1_0_all"  />
<polygon points="346,40 392,40 397,35 392,30 346,30 346,40 " style="fill:#1563d8; stroke-width:1; stroke:black; " description="&lt;b&gt;input.path1.gene2460&lt;/b&gt;&lt;br&gt;input.path1.gene2460&lt;br&gt;Location: 9188660 - 9190627" locus_tag="input.path1.gene2460" class="clusterblast-orf" id="dummy-12_q2_0_all"  />
<polygon points="417,35 422,30 461,30 461,40 422,40 417,35 " style="fill:#b115d8; stroke-width:1; stroke:black; " description="&lt;b&gt;input.path1.gene2461&lt;/b&gt;&lt;br&gt;input.path1.gene2461&lt;br&gt;Location: 9191399 - 9193085" locus_tag="input.path1.gene2461" class="clusterblast-orf" id="dummy-12_q3_0_all"  />
<polygon points="575,40 604,40 609,35 604,30 575,30 575,40 " style="fill:#b1d815; stroke-width:1; stroke:black; " description="&lt;b&gt;input.path1.gene2462&lt;/b&gt;&lt;br&gt;input.path1.gene2462&lt;br&gt;Location: 9197443 - 9198746" locus_tag="input.path1.gene2462" class="clusterblast-orf" id="dummy-12_q4_0_all"  />
</g>
<g label="NC_054390" description="NC_054390 (5438362-5469923): Drechmeria coniospora strain ARSEF 6962 chromoso... (20% of genes show similarity), terpene" class="clusterblast-cluster"  >
<text x="5" y="70" class="clusterblast-acc"  >
<a xlink:href="https://antismash-db.secondarymetabolites.org/area?record=NC_054390&amp;start=5438362&amp;end=5469923" target="_blank">NC_054390 (5438362-5469923)</a>: Drechmeria coniospora strain ARSEF 6962 chromoso... (20% of genes show similarity), terpene</text>
<line x1="10" y1="85" x2="778.0" y2="85" style="stroke-width:1; stroke:grey; "  />
</g>
<g id="a12_000"  >
<polygon points="0,90 62,90 67,85 62,80 0,80 0,90 " style="fill:white; stroke-width:1; stroke:black; " description="&lt;b&gt;DCS_04578&lt;/b&gt;&lt;br&gt;hypothetical protein&lt;br&gt;Location: 5439938 - 5442534" locus_tag="DCS_04578" class="clusterblast-orf" id="dummy-12_h12_6_0"  />
</g>
<g id="a12_001"  >
<polygon points="83,85 88,80 140,80 140,90 88,90 83,85 " style="fill:white; stroke-width:1; stroke:black; " description="&lt;b&gt;DCS_04579&lt;/b&gt;&lt;br&gt;hypothetical protein&lt;br&gt;Location: 5443126 - 5445345" locus_tag="DCS_04579" class="clusterblast-orf" id="dummy-12_h12_6_1"  />
</g>
<g id="a12_002"  >
<polygon points="221,90 240,90 245,85 240,80 221,80 221,90 " style="fill:white; stroke-width:1; stroke:black; " description="&lt;b&gt;DCS_04580&lt;/b&gt;&lt;br&gt;heme/steroid binding protein&lt;br&gt;Location: 5448429 - 5449373" locus_tag="DCS_04580" class="clusterblast-orf" id="dummy-12_h12_6_2"  />
</g>
<g id="a12_003"  >
<polygon points="265,90 305,90 310,85 305,80 265,80 265,90 " style="fill:white; stroke-width:1; stroke:black; " description="&lt;b&gt;DCS_04581&lt;/b&gt;&lt;br&gt;DNAJ domain containing protein&lt;br&gt;Location: 5450113 - 5451849" locus_tag="DCS_04581" class="clusterblast-orf" id="dummy-12_h12_6_3"  />
</g>
<g id="a12_004"  >
<polygon points="349,90 385,90 390,85 385,80 349,80 349,90 " style="fill:#1563d8; stroke-width:1; stroke:black; " description="&lt;b&gt;DCS_04582&lt;/b&gt;&lt;br&gt;squalene synthase&lt;br&gt;Location: 5453363 - 5454923&lt;br&gt;&lt;br&gt;&lt;b&gt;BlastP hit with input.path1.gene2460&lt;/b&gt;&lt;br&gt;Percentage identity: 84&lt;br&gt;Percentage coverage: 90&lt;br&gt;BLAST bit score: 739&lt;br&gt;E-value: 6.96e-268" locus_tag="DCS_04582" class="clusterblast-orf" id="dummy-12_h12_6_4"  />
</g>
<g id="a12_005"  >
<polygon points="407,85 412,80 445,80 445,90 412,90 407,85 " style="fill:#b115d8; stroke-width:1; stroke:black; " description="&lt;b&gt;DCS_04583&lt;/b&gt;&lt;br&gt;putative alkaline protease&lt;br&gt;Location: 5455591 - 5457036&lt;br&gt;&lt;br&gt;&lt;b&gt;BlastP hit with input.path1.gene2461&lt;/b&gt;&lt;br&gt;Percentage identity: 47&lt;br&gt;Percentage coverage: 96&lt;br&gt;BLAST bit score: 317&lt;br&gt;E-value: 1.71e-102" locus_tag="DCS_04583" class="clusterblast-orf" id="dummy-12_h12_6_5"  />
</g>
<g id="a12_006"  >
<polygon points="546,90 552,90 557,85 552,80 546,80 546,90 " style="fill:white; stroke-width:1; stroke:black; " description="&lt;b&gt;DCS_04584&lt;/b&gt;&lt;br&gt;hypothetical protein&lt;br&gt;Location: 5460912 - 5461322" locus_tag="DCS_04584" class="clusterblast-orf" id="dummy-12_h12_6_6"  />
</g>
<g id="a12_007"  >
<polygon points="621,90 666,90 671,85 666,80 621,80 621,90 " style="fill:white; stroke-width:1; stroke:black; " description="&lt;b&gt;DCS_04585&lt;/b&gt;&lt;br&gt;hypothetical protein&lt;br&gt;Location: 5463798 - 5465700" locus_tag="DCS_04585" class="clusterblast-orf" id="dummy-12_h12_6_7"  />
</g>
<g id="a12_008"  >
<polygon points="685,85 690,80 722,80 722,90 690,90 685,85 " style="fill:white; stroke-width:1; stroke:black; " description="&lt;b&gt;DCS_04586&lt;/b&gt;&lt;br&gt;glycosyltransferase family 50&lt;br&gt;Location: 5466233 - 5467657" locus_tag="DCS_04586" class="clusterblast-orf" id="dummy-12_h12_6_8"  />
</g>
<g id="a12_009"  >
<polygon points="755,90 775,90 780,85 775,80 755,80 755,90 " style="fill:white; stroke-width:1; stroke:black; " description="&lt;b&gt;DCS_04587&lt;/b&gt;&lt;br&gt;translin-associated protein X&lt;br&gt;Location: 5468922 - 5469871" locus_tag="DCS_04587" class="clusterblast-orf" id="dummy-12_h12_6_9"  />
</g>
</svg>
