<svg xmlns="http://www.w3.org/2000/svg" xmlns:xlink="http://www.w3.org/1999/xlink" version="1.1" x="0" y="0" height="230" width="800" viewBox="0 0 800 230" preserveAspectRatio="none"  >
<g label="Query sequence" class="clusterblast-cluster"  >
<text x="5" y="20" class="clusterblast-acc"  >
Query sequence</text>
<line x1="10" y1="35" x2="778.0" y2="35" style="stroke-width:1; stroke:grey; "  />
<polygon points="131,35 136,30 148,30 148,40 136,40 131,35 " style="fill:#d81515; stroke-width:1; stroke:black; " description="&lt;b&gt;input.path1.gene731&lt;/b&gt;&lt;br&gt;input.path1.gene731&lt;br&gt;Location: 2692857 - 2693992" locus_tag="input.path1.gene731" class="clusterblast-orf" id="dummy-6_q0_0_all"  />
<polygon points="173,40 186,40 191,35 186,30 173,30 173,40 " style="fill:#15d815; stroke-width:1; stroke:black; " description="&lt;b&gt;input.path1.gene732&lt;/b&gt;&lt;br&gt;input.path1.gene732&lt;br&gt;Location: 2695719 - 2696986" locus_tag="input.path1.gene732" class="clusterblast-orf" id="dummy-6_q1_0_all"  />
<polygon points="210,40 243,40 248,35 243,30 210,30 210,40 " style="fill:#1597d8; stroke-width:1; stroke:black; " description="&lt;b&gt;input.path1.gene733&lt;/b&gt;&lt;br&gt;input.path1.gene733&lt;br&gt;Location: 2698266 - 2700908" locus_tag="input.path1.gene733" class="clusterblast-orf" id="dummy-6_q2_0_all"  />
<polygon points="303,40 318,40 323,35 318,30 303,30 303,40 " style="fill:#9715d8; stroke-width:1; stroke:black; " description="&lt;b&gt;input.path1.gene734&lt;/b&gt;&lt;br&gt;input.path1.gene734&lt;br&gt;Location: 2704698 - 2706066" locus_tag="input.path1.gene734" class="clusterblast-orf" id="dummy-6_q3_0_all"  />
<polygon points="329,35 334,30 415,30 415,40 334,40 329,35 " style="fill:#d89715; stroke-width:1; stroke:black; " description="&lt;b&gt;input.path1.gene735&lt;/b&gt;&lt;br&gt;input.path1.gene735&lt;br&gt;Location: 2706478 - 2712427" locus_tag="input.path1.gene735" class="clusterblast-orf" id="dummy-6_q4_0_all"  />
<polygon points="443,40 465,40 470,35 465,30 443,30 443,40 " style="fill:#15d897; stroke-width:1; stroke:black; " description="&lt;b&gt;input.path1.gene736&lt;/b&gt;&lt;br&gt;input.path1.gene736&lt;br&gt;Location: 2714361 - 2716237" locus_tag="input.path1.gene736" class="clusterblast-orf" id="dummy-6_q5_0_all"  />
<polygon points="474,35 479,30 502,30 502,40 479,40 474,35 " style="fill:#1515d8; stroke-width:1; stroke:black; " description="&lt;b&gt;input.path1.gene737&lt;/b&gt;&lt;br&gt;input.path1.gene737&lt;br&gt;Location: 2716513 - 2718411" locus_tag="input.path1.gene737" class="clusterblast-orf" id="dummy-6_q6_0_all"  />
<polygon points="538,35 543,30 554,30 554,40 543,40 538,35 " style="fill:#d81597; stroke-width:1; stroke:black; " description="&lt;b&gt;input.path1.gene738&lt;/b&gt;&lt;br&gt;input.path1.gene738&lt;br&gt;Location: 2720949 - 2721999" locus_tag="input.path1.gene738" class="clusterblast-orf" id="dummy-6_q7_0_all"  />
<polygon points="585,40 643,40 648,35 643,30 585,30 585,40 " style="fill:#97d815; stroke-width:1; stroke:black; " description="&lt;b&gt;input.path1.gene739&lt;/b&gt;&lt;br&gt;input.path1.gene739&lt;br&gt;Location: 2724157 - 2728500" locus_tag="input.path1.gene739" class="clusterblast-orf" id="dummy-6_q8_0_all"  />
</g>
<g label="NW_021167080" description="NW_021167080 (1267789-1333877): Sodiomyces alkalinus F11 unplaced genomic sca... (42% of genes show similarity), NRPS" class="clusterblast-cluster"  >
<text x="5" y="70" class="clusterblast-acc"  >
<a xlink:href="https://antismash-db.secondarymetabolites.org/area?record=NW_021167080&amp;start=1267789&amp;end=1333877" target="_blank">NW_021167080 (1267789-1333877)</a>: Sodiomyces alkalinus F11 unplaced genomic sca... (42% of genes show similarity), NRPS</text>
<line x1="10" y1="85" x2="778.0" y2="85" style="stroke-width:1; stroke:grey; "  />
</g>
<g id="a6_000"  >
<polygon points="0,90 30,90 35,85 30,80 0,80 0,90 " style="fill:white; stroke-width:1; stroke:black; " description="&lt;b&gt;SODALDRAFT_348529&lt;/b&gt;&lt;br&gt;hypothetical protein&lt;br&gt;Location: 1333686 - 1331212" locus_tag="SODALDRAFT_348529" class="clusterblast-orf" id="dummy-6_h6_10_0"  />
</g>
<g id="a6_001"  >
<polygon points="38,90 39,90 44,85 39,80 38,80 38,90 " style="fill:white; stroke-width:1; stroke:black; " description="&lt;b&gt;SODALDRAFT_91748&lt;/b&gt;&lt;br&gt;hypothetical protein&lt;br&gt;Location: 1331013 - 1330645" locus_tag="SODALDRAFT_91748" class="clusterblast-orf" id="dummy-6_h6_10_1"  />
</g>
<g id="a6_002"  >
<polygon points="50,85 55,80 78,80 78,90 55,90 50,85 " style="fill:white; stroke-width:1; stroke:black; " description="&lt;b&gt;SODALDRAFT_91771&lt;/b&gt;&lt;br&gt;hypothetical protein&lt;br&gt;Location: 1330215 - 1328234" locus_tag="SODALDRAFT_91771" class="clusterblast-orf" id="dummy-6_h6_10_2"  />
</g>
<g id="a6_003"  >
<polygon points="91,85 96,80 129,80 129,90 96,90 91,85 " style="fill:white; stroke-width:1; stroke:black; " description="&lt;b&gt;SODALDRAFT_272173&lt;/b&gt;&lt;br&gt;histone deacetylase clr3&lt;br&gt;Location: 1327390 - 1324769" locus_tag="SODALDRAFT_272173" class="clusterblast-orf" id="dummy-6_h6_10_3"  />
</g>
<g id="a6_004"  >
<polygon points="146,85 151,80 166,80 166,90 151,90 146,85 " style="fill:white; stroke-width:1; stroke:black; " description="&lt;b&gt;SODALDRAFT_272554&lt;/b&gt;&lt;br&gt;hypothetical protein&lt;br&gt;Location: 1323576 - 1322209" locus_tag="SODALDRAFT_272554" class="clusterblast-orf" id="dummy-6_h6_10_4"  />
</g>
<g id="a6_005"  >
<polygon points="189,85 194,80 205,80 205,90 194,90 189,85 " style="fill:white; stroke-width:1; stroke:black; " description="&lt;b&gt;SODALDRAFT_329924&lt;/b&gt;&lt;br&gt;GTP-binding protein ypt3&lt;br&gt;Location: 1320636 - 1319512" locus_tag="SODALDRAFT_329924" class="clusterblast-orf" id="dummy-6_h6_10_5"  />
</g>
<g id="a6_006"  >
<polygon points="228,90 282,90 287,85 282,80 228,80 228,90 " style="fill:white; stroke-width:1; stroke:black; " description="&lt;b&gt;SODALDRAFT_329923&lt;/b&gt;&lt;br&gt;hypothetical protein&lt;br&gt;Location: 1317928 - 1313840" locus_tag="SODALDRAFT_329923" class="clusterblast-orf" id="dummy-6_h6_10_6"  />
</g>
<g id="a6_007"  >
<polygon points="295,85 300,80 313,80 313,90 300,90 295,85 " style="fill:#d81515; stroke-width:1; stroke:black; " description="&lt;b&gt;SODALDRAFT_348524&lt;/b&gt;&lt;br&gt;hypothetical protein&lt;br&gt;Location: 1313274 - 1312066&lt;br&gt;&lt;br&gt;&lt;b&gt;BlastP hit with input.path1.gene731&lt;/b&gt;&lt;br&gt;Percentage identity: 46&lt;br&gt;Percentage coverage: 111&lt;br&gt;BLAST bit score: 283&lt;br&gt;E-value: 1.38e-91" locus_tag="SODALDRAFT_348524" class="clusterblast-orf" id="dummy-6_h6_10_7"  />
</g>
<g id="a6_008"  >
<polygon points="403,90 419,90 424,85 419,80 403,80 403,90 " style="fill:#9715d8; stroke-width:1; stroke:black; " description="&lt;b&gt;SODALDRAFT_270883&lt;/b&gt;&lt;br&gt;hypothetical protein&lt;br&gt;Location: 1305806 - 1304403&lt;br&gt;&lt;br&gt;&lt;b&gt;BlastP hit with input.path1.gene734&lt;/b&gt;&lt;br&gt;Percentage identity: 47&lt;br&gt;Percentage coverage: 104&lt;br&gt;BLAST bit score: 332&lt;br&gt;E-value: 1.23e-107" locus_tag="SODALDRAFT_270883" class="clusterblast-orf" id="dummy-6_h6_10_8"  />
</g>
<g id="a6_009"  >
<polygon points="431,85 436,80 520,80 520,90 436,90 431,85 " style="fill:#d89715; stroke-width:1; stroke:black; " description="&lt;b&gt;SODALDRAFT_91571&lt;/b&gt;&lt;br&gt;surfactin synthetase subunit 3&lt;br&gt;Location: 1303877 - 1297790&lt;br&gt;&lt;br&gt;&lt;b&gt;BlastP hit with input.path1.gene735&lt;/b&gt;&lt;br&gt;Percentage identity: 57&lt;br&gt;Percentage coverage: 97&lt;br&gt;BLAST bit score: 1952&lt;br&gt;E-value: 0.0" locus_tag="SODALDRAFT_91571" class="clusterblast-orf" id="dummy-6_h6_10_9"  />
</g>
<g id="a6_0010"  >
<polygon points="545,90 569,90 574,85 569,80 545,80 545,90 " style="fill:#15d897; stroke-width:1; stroke:black; " description="&lt;b&gt;SODALDRAFT_272253&lt;/b&gt;&lt;br&gt;AMP-binding enzyme&lt;br&gt;Location: 1296057 - 1294024&lt;br&gt;&lt;br&gt;&lt;b&gt;BlastP hit with input.path1.gene736&lt;/b&gt;&lt;br&gt;Percentage identity: 75&lt;br&gt;Percentage coverage: 102&lt;br&gt;BLAST bit score: 902&lt;br&gt;E-value: 0.0" locus_tag="SODALDRAFT_272253" class="clusterblast-orf" id="dummy-6_h6_10_10"  />
</g>
<g id="a6_0011"  >
<polygon points="579,85 584,80 600,80 600,90 584,90 579,85 " style="fill:#1515d8; stroke-width:1; stroke:black; " description="&lt;b&gt;SODALDRAFT_329917&lt;/b&gt;&lt;br&gt;aerobactin siderophore biosynthesis protein iucB&lt;br&gt;Location: 1293670 - 1292264&lt;br&gt;&lt;br&gt;&lt;b&gt;BlastP hit with input.path1.gene737&lt;/b&gt;&lt;br&gt;Percentage identity: 69&lt;br&gt;Percentage coverage: 95&lt;br&gt;BLAST bit score: 657&lt;br&gt;E-value: 6.1e-235" locus_tag="SODALDRAFT_329917" class="clusterblast-orf" id="dummy-6_h6_10_11"  />
</g>
<g id="a6_0012"  >
<polygon points="623,85 628,80 646,80 646,90 628,90 623,85 " style="fill:#d81597; stroke-width:1; stroke:black; " description="&lt;b&gt;SODALDRAFT_338088&lt;/b&gt;&lt;br&gt;FAD/NAD(P)-binding domain-containing protein&lt;br&gt;Location: 1290643 - 1289048&lt;br&gt;&lt;br&gt;&lt;b&gt;BlastP hit with input.path1.gene738&lt;/b&gt;&lt;br&gt;Percentage identity: 53&lt;br&gt;Percentage coverage: 88&lt;br&gt;BLAST bit score: 252&lt;br&gt;E-value: 1.29e-79" locus_tag="SODALDRAFT_338088" class="clusterblast-orf" id="dummy-6_h6_10_12"  />
</g>
<g id="a6_0013"  >
<polygon points="678,90 775,90 780,85 775,80 678,80 678,90 " style="fill:white; stroke-width:1; stroke:black; " description="&lt;b&gt;SODALDRAFT_321616&lt;/b&gt;&lt;br&gt;SPX-domain-containing protein&lt;br&gt;Location: 1286887 - 1279847" locus_tag="SODALDRAFT_321616" class="clusterblast-orf" id="dummy-6_h6_10_13"  />
</g>
</svg>
