<svg xmlns="http://www.w3.org/2000/svg" xmlns:xlink="http://www.w3.org/1999/xlink" version="1.1" x="0" y="0" height="230" width="800" viewBox="0 0 800 230" preserveAspectRatio="none"  >
<g label="Query sequence" class="clusterblast-cluster"  >
<text x="5" y="20" class="clusterblast-acc"  >
Query sequence</text>
<line x1="10" y1="35" x2="778.0" y2="35" style="stroke-width:1; stroke:grey; "  />
<polygon points="163,35 168,30 178,30 178,40 168,40 163,35 " style="fill:#d81515; stroke-width:1; stroke:black; " description="&lt;b&gt;input.path1.gene731&lt;/b&gt;&lt;br&gt;input.path1.gene731&lt;br&gt;Location: 2692857 - 2693992" locus_tag="input.path1.gene731" class="clusterblast-orf" id="dummy-6_q0_0_all"  />
<polygon points="200,40 211,40 216,35 211,30 200,30 200,40 " style="fill:#15d815; stroke-width:1; stroke:black; " description="&lt;b&gt;input.path1.gene732&lt;/b&gt;&lt;br&gt;input.path1.gene732&lt;br&gt;Location: 2695719 - 2696986" locus_tag="input.path1.gene732" class="clusterblast-orf" id="dummy-6_q1_0_all"  />
<polygon points="232,40 261,40 266,35 261,30 232,30 232,40 " style="fill:#1597d8; stroke-width:1; stroke:black; " description="&lt;b&gt;input.path1.gene733&lt;/b&gt;&lt;br&gt;input.path1.gene733&lt;br&gt;Location: 2698266 - 2700908" locus_tag="input.path1.gene733" class="clusterblast-orf" id="dummy-6_q2_0_all"  />
<polygon points="314,40 326,40 331,35 326,30 314,30 314,40 " style="fill:#9715d8; stroke-width:1; stroke:black; " description="&lt;b&gt;input.path1.gene734&lt;/b&gt;&lt;br&gt;input.path1.gene734&lt;br&gt;Location: 2704698 - 2706066" locus_tag="input.path1.gene734" class="clusterblast-orf" id="dummy-6_q3_0_all"  />
<polygon points="336,35 341,30 412,30 412,40 341,40 336,35 " style="fill:#d89715; stroke-width:1; stroke:black; " description="&lt;b&gt;input.path1.gene735&lt;/b&gt;&lt;br&gt;input.path1.gene735&lt;br&gt;Location: 2706478 - 2712427" locus_tag="input.path1.gene735" class="clusterblast-orf" id="dummy-6_q4_0_all"  />
<polygon points="436,40 455,40 460,35 455,30 436,30 436,40 " style="fill:#15d897; stroke-width:1; stroke:black; " description="&lt;b&gt;input.path1.gene736&lt;/b&gt;&lt;br&gt;input.path1.gene736&lt;br&gt;Location: 2714361 - 2716237" locus_tag="input.path1.gene736" class="clusterblast-orf" id="dummy-6_q5_0_all"  />
<polygon points="464,35 469,30 488,30 488,40 469,40 464,35 " style="fill:#1515d8; stroke-width:1; stroke:black; " description="&lt;b&gt;input.path1.gene737&lt;/b&gt;&lt;br&gt;input.path1.gene737&lt;br&gt;Location: 2716513 - 2718411" locus_tag="input.path1.gene737" class="clusterblast-orf" id="dummy-6_q6_0_all"  />
<polygon points="520,35 525,30 533,30 533,40 525,40 520,35 " style="fill:#d81597; stroke-width:1; stroke:black; " description="&lt;b&gt;input.path1.gene738&lt;/b&gt;&lt;br&gt;input.path1.gene738&lt;br&gt;Location: 2720949 - 2721999" locus_tag="input.path1.gene738" class="clusterblast-orf" id="dummy-6_q7_0_all"  />
<polygon points="561,40 611,40 616,35 611,30 561,30 561,40 " style="fill:#97d815; stroke-width:1; stroke:black; " description="&lt;b&gt;input.path1.gene739&lt;/b&gt;&lt;br&gt;input.path1.gene739&lt;br&gt;Location: 2724157 - 2728500" locus_tag="input.path1.gene739" class="clusterblast-orf" id="dummy-6_q8_0_all"  />
</g>
<g label="NC_070536" description="NC_070536 (2319263-2385135): Fusarium keratoplasticum isolate Fu6.1 chromosom... (50% of genes show similarity), NRPS" class="clusterblast-cluster"  >
<text x="5" y="70" class="clusterblast-acc"  >
<a xlink:href="https://antismash-db.secondarymetabolites.org/area?record=NC_070536&amp;start=2319263&amp;end=2385135" target="_blank">NC_070536 (2319263-2385135)</a>: Fusarium keratoplasticum isolate Fu6.1 chromosom... (50% of genes show similarity), NRPS</text>
<line x1="10" y1="85" x2="778.0" y2="85" style="stroke-width:1; stroke:grey; "  />
</g>
<g id="a6_000"  >
<polygon points="0,85 5,80 17,80 17,90 5,90 0,85 " style="fill:white; stroke-width:1; stroke:black; " description="&lt;b&gt;NCS57_01052400&lt;/b&gt;&lt;br&gt;F-box domain-containing protein&lt;br&gt;Location: 2321958 - 2323310" locus_tag="NCS57_01052400" class="clusterblast-orf" id="dummy-6_h6_5_0"  />
</g>
<g id="a6_001"  >
<polygon points="30,85 35,80 43,80 43,90 35,90 30,85 " style="fill:white; stroke-width:1; stroke:black; " description="&lt;b&gt;NCS57_01052500&lt;/b&gt;&lt;br&gt;Brix domain-containing protein&lt;br&gt;Location: 2324325 - 2325368" locus_tag="NCS57_01052500" class="clusterblast-orf" id="dummy-6_h6_5_1"  />
</g>
<g id="a6_002"  >
<polygon points="53,85 58,80 65,80 65,90 58,90 53,85 " style="fill:white; stroke-width:1; stroke:black; " description="&lt;b&gt;NCS57_01052600&lt;/b&gt;&lt;br&gt;hypothetical protein&lt;br&gt;Location: 2326162 - 2327083" locus_tag="NCS57_01052600" class="clusterblast-orf" id="dummy-6_h6_5_2"  />
</g>
<g id="a6_003"  >
<polygon points="86,90 131,90 136,85 131,80 86,80 86,90 " style="fill:white; stroke-width:1; stroke:black; " description="&lt;b&gt;NCS57_01052700&lt;/b&gt;&lt;br&gt;Chromo domain-containing protein&lt;br&gt;Location: 2328758 - 2332687" locus_tag="NCS57_01052700" class="clusterblast-orf" id="dummy-6_h6_5_3"  />
</g>
<g id="a6_004"  >
<polygon points="138,85 143,80 153,80 153,90 143,90 138,85 " style="fill:#d81515; stroke-width:1; stroke:black; " description="&lt;b&gt;NCS57_01052800&lt;/b&gt;&lt;br&gt;Peroxisomal membrane protein PEX14&lt;br&gt;Location: 2332900 - 2334082&lt;br&gt;&lt;br&gt;&lt;b&gt;BlastP hit with input.path1.gene731&lt;/b&gt;&lt;br&gt;Percentage identity: 47&lt;br&gt;Percentage coverage: 110&lt;br&gt;BLAST bit score: 293&lt;br&gt;E-value: 1.72e-95" locus_tag="NCS57_01052800" class="clusterblast-orf" id="dummy-6_h6_5_4"  />
</g>
<g id="a6_005"  >
<polygon points="179,90 191,90 196,85 191,80 179,80 179,90 " style="fill:#15d815; stroke-width:1; stroke:black; " description="&lt;b&gt;NCS57_01052900&lt;/b&gt;&lt;br&gt;PAPA-1 domain-containing protein&lt;br&gt;Location: 2336120 - 2337410&lt;br&gt;&lt;br&gt;&lt;b&gt;BlastP hit with input.path1.gene732&lt;/b&gt;&lt;br&gt;Percentage identity: 57&lt;br&gt;Percentage coverage: 100&lt;br&gt;BLAST bit score: 245&lt;br&gt;E-value: 8.38e-76" locus_tag="NCS57_01052900" class="clusterblast-orf" id="dummy-6_h6_5_5"  />
</g>
<g id="a6_006"  >
<polygon points="218,90 261,90 266,85 261,80 218,80 218,90 " style="fill:white; stroke-width:1; stroke:black; " description="&lt;b&gt;NCS57_01053000&lt;/b&gt;&lt;br&gt;hypothetical protein&lt;br&gt;Location: 2339176 - 2342990" locus_tag="NCS57_01053000" class="clusterblast-orf" id="dummy-6_h6_5_6"  />
</g>
<g id="a6_007"  >
<polygon points="314,90 327,90 332,85 327,80 314,80 314,90 " style="fill:#9715d8; stroke-width:1; stroke:black; " description="&lt;b&gt;NCS57_01053100&lt;/b&gt;&lt;br&gt;DUF4050 domain-containing protein&lt;br&gt;Location: 2346767 - 2348143&lt;br&gt;&lt;br&gt;&lt;b&gt;BlastP hit with input.path1.gene734&lt;/b&gt;&lt;br&gt;Percentage identity: 55&lt;br&gt;Percentage coverage: 103&lt;br&gt;BLAST bit score: 442&lt;br&gt;E-value: 4.58e-151" locus_tag="NCS57_01053100" class="clusterblast-orf" id="dummy-6_h6_5_7"  />
</g>
<g id="a6_008"  >
<polygon points="346,85 351,80 421,80 421,90 351,90 346,85 " style="fill:#d89715; stroke-width:1; stroke:black; " description="&lt;b&gt;NCS57_01053200&lt;/b&gt;&lt;br&gt;hypothetical protein&lt;br&gt;Location: 2349264 - 2355135&lt;br&gt;&lt;br&gt;&lt;b&gt;BlastP hit with input.path1.gene735&lt;/b&gt;&lt;br&gt;Percentage identity: 67&lt;br&gt;Percentage coverage: 94&lt;br&gt;BLAST bit score: 2320&lt;br&gt;E-value: 0.0" locus_tag="NCS57_01053200" class="clusterblast-orf" id="dummy-6_h6_5_8"  />
</g>
<g id="a6_009"  >
<polygon points="457,90 476,90 481,85 476,80 457,80 457,90 " style="fill:#15d897; stroke-width:1; stroke:black; " description="&lt;b&gt;NCS57_01053300&lt;/b&gt;&lt;br&gt;hypothetical protein&lt;br&gt;Location: 2358035 - 2359911&lt;br&gt;&lt;br&gt;&lt;b&gt;BlastP hit with input.path1.gene736&lt;/b&gt;&lt;br&gt;Percentage identity: 81&lt;br&gt;Percentage coverage: 100&lt;br&gt;BLAST bit score: 961&lt;br&gt;E-value: 0.0" locus_tag="NCS57_01053300" class="clusterblast-orf" id="dummy-6_h6_5_9"  />
</g>
<g id="a6_0010"  >
<polygon points="486,85 491,80 504,80 504,90 491,90 486,85 " style="fill:#1515d8; stroke-width:1; stroke:black; " description="&lt;b&gt;NCS57_01053400&lt;/b&gt;&lt;br&gt;AlcB domain-containing protein&lt;br&gt;Location: 2360301 - 2361730&lt;br&gt;&lt;br&gt;&lt;b&gt;BlastP hit with input.path1.gene737&lt;/b&gt;&lt;br&gt;Percentage identity: 75&lt;br&gt;Percentage coverage: 93&lt;br&gt;BLAST bit score: 719&lt;br&gt;E-value: 9.23e-260" locus_tag="NCS57_01053400" class="clusterblast-orf" id="dummy-6_h6_5_10"  />
</g>
<g id="a6_0011"  >
<polygon points="556,85 561,80 578,80 578,90 561,90 556,85 " style="fill:#d81597; stroke-width:1; stroke:black; " description="&lt;b&gt;NCS57_01053500&lt;/b&gt;&lt;br&gt;Pyr-redox-2 domain-containing protein&lt;br&gt;Location: 2365798 - 2367504&lt;br&gt;&lt;br&gt;&lt;b&gt;BlastP hit with input.path1.gene738&lt;/b&gt;&lt;br&gt;Percentage identity: 66&lt;br&gt;Percentage coverage: 92&lt;br&gt;BLAST bit score: 300&lt;br&gt;E-value: 1.14e-97" locus_tag="NCS57_01053500" class="clusterblast-orf" id="dummy-6_h6_5_11"  />
</g>
<g id="a6_0012"  >
<polygon points="609,90 660,90 665,85 660,80 609,80 609,90 " style="fill:#97d815; stroke-width:1; stroke:black; " description="&lt;b&gt;NCS57_01053600&lt;/b&gt;&lt;br&gt;hypothetical protein&lt;br&gt;Location: 2369980 - 2374358&lt;br&gt;&lt;br&gt;&lt;b&gt;BlastP hit with input.path1.gene739&lt;/b&gt;&lt;br&gt;Percentage identity: 64&lt;br&gt;Percentage coverage: 103&lt;br&gt;BLAST bit score: 1575&lt;br&gt;E-value: 0.0" locus_tag="NCS57_01053600" class="clusterblast-orf" id="dummy-6_h6_5_12"  />
</g>
<g id="a6_0013"  >
<polygon points="680,90 714,90 719,85 714,80 680,80 680,90 " style="fill:white; stroke-width:1; stroke:black; " description="&lt;b&gt;NCS57_01053700&lt;/b&gt;&lt;br&gt;Hypothetical protein&lt;br&gt;Location: 2375552 - 2378670" locus_tag="NCS57_01053700" class="clusterblast-orf" id="dummy-6_h6_5_13"  />
</g>
<g id="a6_0014"  >
<polygon points="726,90 764,90 769,85 764,80 726,80 726,90 " style="fill:white; stroke-width:1; stroke:black; " description="&lt;b&gt;NCS57_01053800&lt;/b&gt;&lt;br&gt;CNH domain-containing protein&lt;br&gt;Location: 2379170 - 2382570" locus_tag="NCS57_01053800" class="clusterblast-orf" id="dummy-6_h6_5_14"  />
</g>
<g id="a6_0015"  >
<polygon points="772,85 777,80 780,80 780,90 777,90 772,85 " style="fill:white; stroke-width:1; stroke:black; " description="&lt;b&gt;NCS57_01053900&lt;/b&gt;&lt;br&gt;EKC/KEOPS complex subunit GON7&lt;br&gt;Location: 2382781 - 2383407" locus_tag="NCS57_01053900" class="clusterblast-orf" id="dummy-6_h6_5_15"  />
</g>
</svg>
