<svg xmlns="http://www.w3.org/2000/svg" xmlns:xlink="http://www.w3.org/1999/xlink" version="1.1" x="0" y="0" height="230" width="800" viewBox="0 0 800 230" preserveAspectRatio="none"  >
<g label="Query sequence" class="clusterblast-cluster"  >
<text x="5" y="20" class="clusterblast-acc"  >
Query sequence</text>
<line x1="10" y1="35" x2="778.0" y2="35" style="stroke-width:1; stroke:grey; "  />
<polygon points="6,40 18,40 23,35 18,30 6,30 6,40 " style="fill:#d81515; stroke-width:1; stroke:black; " description="&lt;b&gt;input.path1.gene1088&lt;/b&gt;&lt;br&gt;input.path1.gene1088&lt;br&gt;Location: 4403059 - 4404434" locus_tag="input.path1.gene1088" class="clusterblast-orf" id="dummy-7_q0_0_all"  />
<polygon points="57,40 67,40 72,35 67,30 57,30 57,40 " style="fill:#77d815; stroke-width:1; stroke:black; " description="&lt;b&gt;input.path1.gene1089&lt;/b&gt;&lt;br&gt;input.path1.gene1089&lt;br&gt;Location: 4407011 - 4408205" locus_tag="input.path1.gene1089" class="clusterblast-orf" id="dummy-7_q1_0_all"  />
<polygon points="93,35 98,30 98,30 98,40 98,40 93,35 " style="fill:#15d8d8; stroke-width:1; stroke:black; " description="&lt;b&gt;input.path1.gene1090&lt;/b&gt;&lt;br&gt;input.path1.gene1090&lt;br&gt;Location: 4409801 - 4410208" locus_tag="input.path1.gene1090" class="clusterblast-orf" id="dummy-7_q2_0_all"  />
<polygon points="202,40 202,40 207,35 202,30 202,30 202,40 " style="fill:#7715d8; stroke-width:1; stroke:black; " description="&lt;b&gt;input.path1.gene1091&lt;/b&gt;&lt;br&gt;input.path1.gene1091&lt;br&gt;Location: 4418242 - 4418656" locus_tag="input.path1.gene1091" class="clusterblast-orf" id="dummy-7_q3_0_all"  />
<polygon points="222,35 227,30 258,30 258,40 227,40 222,35 " style="fill:#d87715; stroke-width:1; stroke:black; " description="&lt;b&gt;input.path1.gene1092&lt;/b&gt;&lt;br&gt;input.path1.gene1092&lt;br&gt;Location: 4419784 - 4422626" locus_tag="input.path1.gene1092" class="clusterblast-orf" id="dummy-7_q4_0_all"  />
<polygon points="381,35 386,30 405,30 405,40 386,40 381,35 " style="fill:#15d815; stroke-width:1; stroke:black; " description="&lt;b&gt;input.path1.gene1093&lt;/b&gt;&lt;br&gt;input.path1.gene1093&lt;br&gt;Location: 4432090 - 4433949" locus_tag="input.path1.gene1093" class="clusterblast-orf" id="dummy-7_q5_0_all"  />
<polygon points="422,40 430,40 435,35 430,30 422,30 422,40 " style="fill:#1577d8; stroke-width:1; stroke:black; " description="&lt;b&gt;input.path1.gene1094&lt;/b&gt;&lt;br&gt;input.path1.gene1094&lt;br&gt;Location: 4435312 - 4436289" locus_tag="input.path1.gene1094" class="clusterblast-orf" id="dummy-7_q6_0_all"  />
<polygon points="448,40 452,40 457,35 452,30 448,30 448,40 " style="fill:#d815d8; stroke-width:1; stroke:black; " description="&lt;b&gt;input.path1.gene1095&lt;/b&gt;&lt;br&gt;input.path1.gene1095&lt;br&gt;Location: 4437288 - 4438007" locus_tag="input.path1.gene1095" class="clusterblast-orf" id="dummy-7_q7_0_all"  />
<polygon points="466,35 471,30 483,30 483,40 471,40 466,35 " style="fill:white; stroke-width:1; stroke:black; " description="&lt;b&gt;input.path1.gene1096&lt;/b&gt;&lt;br&gt;input.path1.gene1096&lt;br&gt;Location: 4438729 - 4439994" locus_tag="input.path1.gene1096" class="clusterblast-orf" id="dummy-7_q8_0_all"  />
<polygon points="529,40 557,40 562,35 557,30 529,30 529,40 " style="fill:#d8d815; stroke-width:1; stroke:black; " description="&lt;b&gt;input.path1.gene1097&lt;/b&gt;&lt;br&gt;input.path1.gene1097&lt;br&gt;Location: 4443549 - 4446132" locus_tag="input.path1.gene1097" class="clusterblast-orf" id="dummy-7_q9_0_all"  />
<polygon points="575,40 580,40 585,35 580,30 575,30 575,40 " style="fill:white; stroke-width:1; stroke:black; " description="&lt;b&gt;input.path1.gene1098&lt;/b&gt;&lt;br&gt;input.path1.gene1098&lt;br&gt;Location: 4447096 - 4447895" locus_tag="input.path1.gene1098" class="clusterblast-orf" id="dummy-7_q10_0_all"  />
<polygon points="619,40 650,40 655,35 650,30 619,30 619,40 " style="fill:#15d877; stroke-width:1; stroke:black; " description="&lt;b&gt;input.path1.gene1099&lt;/b&gt;&lt;br&gt;input.path1.gene1099&lt;br&gt;Location: 4450501 - 4453293" locus_tag="input.path1.gene1099" class="clusterblast-orf" id="dummy-7_q11_0_all"  />
<polygon points="671,35 676,30 685,30 685,40 676,40 671,35 " style="fill:#1515d8; stroke-width:1; stroke:black; " description="&lt;b&gt;input.path1.gene1100&lt;/b&gt;&lt;br&gt;input.path1.gene1100&lt;br&gt;Location: 4454576 - 4455662" locus_tag="input.path1.gene1100" class="clusterblast-orf" id="dummy-7_q12_0_all"  />
<polygon points="688,40 725,40 730,35 725,30 688,30 688,40 " style="fill:white; stroke-width:1; stroke:black; " description="&lt;b&gt;input.path1.gene1101&lt;/b&gt;&lt;br&gt;input.path1.gene1101&lt;br&gt;Location: 4455863 - 4459113" locus_tag="input.path1.gene1101" class="clusterblast-orf" id="dummy-7_q13_0_all"  />
<polygon points="736,40 741,40 746,35 741,30 736,30 736,40 " style="fill:white; stroke-width:1; stroke:black; " description="&lt;b&gt;input.path1.gene1102&lt;/b&gt;&lt;br&gt;input.path1.gene1102&lt;br&gt;Location: 4459577 - 4460365" locus_tag="input.path1.gene1102" class="clusterblast-orf" id="dummy-7_q14_0_all"  />
<polygon points="770,40 774,35 770,30 770,40 " style="fill:#d81577; stroke-width:1; stroke:black; " description="&lt;b&gt;input.path1.gene1103&lt;/b&gt;&lt;br&gt;input.path1.gene1103&lt;br&gt;Location: 4462253 - 4462505" locus_tag="input.path1.gene1103" class="clusterblast-orf" id="dummy-7_q15_0_all"  />
</g>
<g label="NC_035796" description="NC_035796 (2956898-3023955): Pochonia chlamydosporia 170 chromosome 7, whole ... (9% of genes show similarity), T1PKS" class="clusterblast-cluster"  >
<text x="5" y="70" class="clusterblast-acc"  >
<a xlink:href="https://antismash-db.secondarymetabolites.org/area?record=NC_035796&amp;start=2956898&amp;end=3023955" target="_blank">NC_035796 (2956898-3023955)</a>: Pochonia chlamydosporia 170 chromosome 7, whole ... (9% of genes show similarity), T1PKS</text>
<line x1="10" y1="85" x2="778.0" y2="85" style="stroke-width:1; stroke:grey; "  />
</g>
<g id="a7_000"  >
<polygon points="0,85 5,80 26,80 26,90 5,90 0,85 " style="fill:white; stroke-width:1; stroke:black; " description="&lt;b&gt;VFPPC_09246&lt;/b&gt;&lt;br&gt;heterokaryon incompatibility Het-C&lt;br&gt;Location: 3019272 - 3017248" locus_tag="VFPPC_09246" class="clusterblast-orf" id="dummy-7_h7_3_0"  />
</g>
<g id="a7_001"  >
<polygon points="33,90 36,90 41,85 36,80 33,80 33,90 " style="fill:white; stroke-width:1; stroke:black; " description="&lt;b&gt;VFPPC_09247&lt;/b&gt;&lt;br&gt;hypothetical protein&lt;br&gt;Location: 3016662 - 3016075" locus_tag="VFPPC_09247" class="clusterblast-orf" id="dummy-7_h7_3_1"  />
</g>
<g id="a7_002"  >
<polygon points="50,85 55,80 79,80 79,90 55,90 50,85 " style="fill:white; stroke-width:1; stroke:black; " description="&lt;b&gt;VFPPC_09248&lt;/b&gt;&lt;br&gt;glucose dehydrogenase&lt;br&gt;Location: 3015376 - 3013156" locus_tag="VFPPC_09248" class="clusterblast-orf" id="dummy-7_h7_3_2"  />
</g>
<g id="a7_003"  >
<polygon points="83,85 86,80 86,90 83,85 " style="fill:white; stroke-width:1; stroke:black; " description="&lt;b&gt;VFPPC_18151&lt;/b&gt;&lt;br&gt;hypothetical protein&lt;br&gt;Location: 3012811 - 3012587" locus_tag="VFPPC_18151" class="clusterblast-orf" id="dummy-7_h7_3_3"  />
</g>
<g id="a7_004"  >
<polygon points="117,90 134,90 139,85 134,80 117,80 117,90 " style="fill:white; stroke-width:1; stroke:black; " description="&lt;b&gt;VFPPC_09249&lt;/b&gt;&lt;br&gt;membrane protein&lt;br&gt;Location: 3010184 - 3008470" locus_tag="VFPPC_09249" class="clusterblast-orf" id="dummy-7_h7_3_4"  />
</g>
<g id="a7_005"  >
<polygon points="146,90 153,90 158,85 153,80 146,80 146,90 " style="fill:#7715d8; stroke-width:1; stroke:black; " description="&lt;b&gt;VFPPC_16508&lt;/b&gt;&lt;br&gt;methyltransferase domain-containing protein&lt;br&gt;Location: 3007925 - 3006976&lt;br&gt;&lt;br&gt;&lt;b&gt;BlastP hit with input.path1.gene1091&lt;/b&gt;&lt;br&gt;Percentage identity: 63&lt;br&gt;Percentage coverage: 66&lt;br&gt;BLAST bit score: 107&lt;br&gt;E-value: 3.22e-27" locus_tag="VFPPC_16508" class="clusterblast-orf" id="dummy-7_h7_3_5"  />
</g>
<g id="a7_006"  >
<polygon points="168,90 171,90 176,85 171,80 168,80 168,90 " style="fill:white; stroke-width:1; stroke:black; " description="&lt;b&gt;VFPPC_09250&lt;/b&gt;&lt;br&gt;acetyltransferase&lt;br&gt;Location: 3006206 - 3005614" locus_tag="VFPPC_09250" class="clusterblast-orf" id="dummy-7_h7_3_6"  />
</g>
<g id="a7_007"  >
<polygon points="220,90 229,90 234,85 229,80 220,80 220,90 " style="fill:white; stroke-width:1; stroke:black; " description="&lt;b&gt;VFPPC_09252&lt;/b&gt;&lt;br&gt;biotin protein ligase&lt;br&gt;Location: 3002182 - 3001116" locus_tag="VFPPC_09252" class="clusterblast-orf" id="dummy-7_h7_3_7"  />
</g>
<g id="a7_008"  >
<polygon points="240,85 245,80 254,80 254,90 245,90 240,85 " style="fill:white; stroke-width:1; stroke:black; " description="&lt;b&gt;VFPPC_09253&lt;/b&gt;&lt;br&gt;heterokaryon incompatibility protein&lt;br&gt;Location: 3000654 - 2999566" locus_tag="VFPPC_09253" class="clusterblast-orf" id="dummy-7_h7_3_8"  />
</g>
<g id="a7_009"  >
<polygon points="276,90 292,90 297,85 292,80 276,80 276,90 " style="fill:white; stroke-width:1; stroke:black; " description="&lt;b&gt;VFPPC_09254&lt;/b&gt;&lt;br&gt;hypothetical protein&lt;br&gt;Location: 2997894 - 2996227" locus_tag="VFPPC_09254" class="clusterblast-orf" id="dummy-7_h7_3_9"  />
</g>
<g id="a7_0010"  >
<polygon points="310,90 318,90 323,85 318,80 310,80 310,90 " style="fill:white; stroke-width:1; stroke:black; " description="&lt;b&gt;VFPPC_14564&lt;/b&gt;&lt;br&gt;hypothetical protein&lt;br&gt;Location: 2995238 - 2994234" locus_tag="VFPPC_14564" class="clusterblast-orf" id="dummy-7_h7_3_10"  />
</g>
<g id="a7_0011"  >
<polygon points="327,85 332,80 418,80 418,90 332,90 327,85 " style="fill:white; stroke-width:1; stroke:black; " description="&lt;b&gt;VFPPC_09255&lt;/b&gt;&lt;br&gt;polyketide synthase&lt;br&gt;Location: 2993955 - 2986899" locus_tag="VFPPC_09255" class="clusterblast-orf" id="dummy-7_h7_3_11"  />
</g>
<g id="a7_0012"  >
<polygon points="442,90 450,90 455,85 450,80 442,80 442,90 " style="fill:white; stroke-width:1; stroke:black; " description="&lt;b&gt;VFPPC_09257&lt;/b&gt;&lt;br&gt;hypothetical protein&lt;br&gt;Location: 2984981 - 2983989" locus_tag="VFPPC_09257" class="clusterblast-orf" id="dummy-7_h7_3_12"  />
</g>
<g id="a7_0013"  >
<polygon points="457,85 462,80 504,80 504,90 462,90 457,85 " style="fill:white; stroke-width:1; stroke:black; " description="&lt;b&gt;VFPPC_09259&lt;/b&gt;&lt;br&gt;n-alkane-inducible cytochrome P450&lt;br&gt;Location: 2983820 - 2980230" locus_tag="VFPPC_09259" class="clusterblast-orf" id="dummy-7_h7_3_13"  />
</g>
<g id="a7_0014"  >
<polygon points="535,90 545,90 550,85 545,80 535,80 535,90 " style="fill:white; stroke-width:1; stroke:black; " description="&lt;b&gt;VFPPC_09260&lt;/b&gt;&lt;br&gt;NADP-dependent alcohol dehydrogenase&lt;br&gt;Location: 2977792 - 2976671" locus_tag="VFPPC_09260" class="clusterblast-orf" id="dummy-7_h7_3_14"  />
</g>
<g id="a7_0015"  >
<polygon points="560,90 563,90 568,85 563,80 560,80 560,90 " style="fill:white; stroke-width:1; stroke:black; " description="&lt;b&gt;VFPPC_09261&lt;/b&gt;&lt;br&gt;hypothetical protein&lt;br&gt;Location: 2975916 - 2975273" locus_tag="VFPPC_09261" class="clusterblast-orf" id="dummy-7_h7_3_15"  />
</g>
<g id="a7_0016"  >
<polygon points="579,90 582,90 587,85 582,80 579,80 579,90 " style="fill:white; stroke-width:1; stroke:black; " description="&lt;b&gt;VFPPC_09262&lt;/b&gt;&lt;br&gt;carbonic anhydrase&lt;br&gt;Location: 2974416 - 2973773" locus_tag="VFPPC_09262" class="clusterblast-orf" id="dummy-7_h7_3_16"  />
</g>
<g id="a7_0017"  >
<polygon points="599,85 604,80 620,80 620,90 604,90 599,85 " style="fill:white; stroke-width:1; stroke:black; " description="&lt;b&gt;VFPPC_09263&lt;/b&gt;&lt;br&gt;Fe(2+) transport protein 3&lt;br&gt;Location: 2972835 - 2971229" locus_tag="VFPPC_09263" class="clusterblast-orf" id="dummy-7_h7_3_17"  />
</g>
<g id="a7_0018"  >
<polygon points="711,90 719,90 724,85 719,80 711,80 711,90 " style="fill:#d81577; stroke-width:1; stroke:black; " description="&lt;b&gt;VFPPC_09266&lt;/b&gt;&lt;br&gt;major allergen Asp f 2-like protein&lt;br&gt;Location: 2964208 - 2963164&lt;br&gt;&lt;br&gt;&lt;b&gt;BlastP hit with input.path1.gene1103&lt;/b&gt;&lt;br&gt;Percentage identity: 52&lt;br&gt;Percentage coverage: 100&lt;br&gt;BLAST bit score: 69&lt;br&gt;E-value: 9.64e-14" locus_tag="VFPPC_09266" class="clusterblast-orf" id="dummy-7_h7_3_18"  />
</g>
<g id="a7_0019"  >
<polygon points="754,90 771,90 776,85 771,80 754,80 754,90 " style="fill:white; stroke-width:1; stroke:black; " description="&lt;b&gt;VFPPC_09267&lt;/b&gt;&lt;br&gt;WD40 repeat-like-containing domain&lt;br&gt;Location: 2960898 - 2959144" locus_tag="VFPPC_09267" class="clusterblast-orf" id="dummy-7_h7_3_19"  />
</g>
<g id="a7_0020"  >
<polygon points="777,90 780,85 777,80 777,90 " style="fill:white; stroke-width:1; stroke:black; " description="&lt;b&gt;VFPPC_16509&lt;/b&gt;&lt;br&gt;hypothetical protein&lt;br&gt;Location: 2959120 - 2958893" locus_tag="VFPPC_16509" class="clusterblast-orf" id="dummy-7_h7_3_20"  />
</g>
</svg>
