<svg xmlns="http://www.w3.org/2000/svg" xmlns:xlink="http://www.w3.org/1999/xlink" version="1.1" x="0" y="0" height="230" width="800" viewBox="0 0 800 230" preserveAspectRatio="none"  >
<g label="Query sequence" class="clusterblast-cluster"  >
<text x="5" y="20" class="clusterblast-acc"  >
Query sequence</text>
<line x1="10" y1="35" x2="778.0" y2="35" style="stroke-width:1; stroke:grey; "  />
<polygon points="116,35 121,30 129,30 129,40 121,40 116,35 " style="fill:#d81515; stroke-width:1; stroke:black; " description="&lt;b&gt;input.path1.gene1909&lt;/b&gt;&lt;br&gt;input.path1.gene1909&lt;br&gt;Location: 7314562 - 7315747" locus_tag="input.path1.gene1909" class="clusterblast-orf" id="dummy-8_q0_0_all"  />
<polygon points="147,40 194,40 199,35 194,30 147,30 147,40 " style="fill:#4dd815; stroke-width:1; stroke:black; " description="&lt;b&gt;input.path1.gene1910&lt;/b&gt;&lt;br&gt;input.path1.gene1910&lt;br&gt;Location: 7317430 - 7322106" locus_tag="input.path1.gene1910" class="clusterblast-orf" id="dummy-8_q1_0_all"  />
<polygon points="256,40 288,40 293,35 288,30 256,30 256,40 " style="fill:#1585d8; stroke-width:1; stroke:black; " description="&lt;b&gt;input.path1.gene1911&lt;/b&gt;&lt;br&gt;input.path1.gene1911&lt;br&gt;Location: 7327230 - 7330530" locus_tag="input.path1.gene1911" class="clusterblast-orf" id="dummy-8_q2_0_all"  />
<polygon points="304,35 309,30 488,30 488,40 309,40 304,35 " style="fill:#d815bc; stroke-width:1; stroke:black; " description="&lt;b&gt;input.path1.gene1912&lt;/b&gt;&lt;br&gt;input.path1.gene1912&lt;br&gt;Location: 7331534 - 7348130" locus_tag="input.path1.gene1912" class="clusterblast-orf" id="dummy-8_q3_0_all"  />
<polygon points="529,40 554,40 559,35 554,30 529,30 529,40 " style="fill:#d8bc15; stroke-width:1; stroke:black; " description="&lt;b&gt;input.path1.gene1913&lt;/b&gt;&lt;br&gt;input.path1.gene1913&lt;br&gt;Location: 7351883 - 7354562" locus_tag="input.path1.gene1913" class="clusterblast-orf" id="dummy-8_q4_0_all"  />
<polygon points="560,35 565,30 575,30 575,40 565,40 560,35 " style="fill:#15d885; stroke-width:1; stroke:black; " description="&lt;b&gt;input.path1.gene1914&lt;/b&gt;&lt;br&gt;input.path1.gene1914&lt;br&gt;Location: 7354677 - 7356046" locus_tag="input.path1.gene1914" class="clusterblast-orf" id="dummy-8_q5_0_all"  />
<polygon points="595,40 659,40 664,35 659,30 595,30 595,40 " style="fill:#4d15d8; stroke-width:1; stroke:black; " description="&lt;b&gt;input.path1.gene1915&lt;/b&gt;&lt;br&gt;input.path1.gene1915&lt;br&gt;Location: 7357801 - 7363998" locus_tag="input.path1.gene1915" class="clusterblast-orf" id="dummy-8_q6_0_all"  />
</g>
<g label="NW_003052499" description="NW_003052499 (4397710-4473277): Uncinocarpus reesii 1704 scaffold 2 genomic s... (23% of genes show similarity), NRPS" class="clusterblast-cluster"  >
<text x="5" y="70" class="clusterblast-acc"  >
<a xlink:href="https://antismash-db.secondarymetabolites.org/area?record=NW_003052499&amp;start=4397710&amp;end=4473277" target="_blank">NW_003052499 (4397710-4473277)</a>: Uncinocarpus reesii 1704 scaffold 2 genomic s... (23% of genes show similarity), NRPS</text>
<line x1="10" y1="85" x2="778.0" y2="85" style="stroke-width:1; stroke:grey; "  />
</g>
<g id="a8_000"  >
<polygon points="0,90 0,90 5,85 0,80 0,80 0,90 " style="fill:white; stroke-width:1; stroke:black; " description="&lt;b&gt;UREG_04472&lt;/b&gt;&lt;br&gt;hypothetical protein&lt;br&gt;Location: 4469707 - 4469178" locus_tag="UREG_04472" class="clusterblast-orf" id="dummy-8_h8_6_0"  />
</g>
<g id="a8_001"  >
<polygon points="31,85 36,80 39,80 39,90 36,90 31,85 " style="fill:white; stroke-width:1; stroke:black; " description="&lt;b&gt;UREG_04471&lt;/b&gt;&lt;br&gt;hypothetical protein&lt;br&gt;Location: 4466842 - 4466168" locus_tag="UREG_04471" class="clusterblast-orf" id="dummy-8_h8_6_1"  />
</g>
<g id="a8_002"  >
<polygon points="49,90 53,90 58,85 53,80 49,80 49,90 " style="fill:white; stroke-width:1; stroke:black; " description="&lt;b&gt;UREG_04470&lt;/b&gt;&lt;br&gt;hypothetical protein&lt;br&gt;Location: 4465260 - 4464409" locus_tag="UREG_04470" class="clusterblast-orf" id="dummy-8_h8_6_2"  />
</g>
<g id="a8_003"  >
<polygon points="63,85 68,80 82,80 82,90 68,90 63,85 " style="fill:white; stroke-width:1; stroke:black; " description="&lt;b&gt;UREG_04469&lt;/b&gt;&lt;br&gt;hypothetical protein&lt;br&gt;Location: 4463949 - 4462243" locus_tag="UREG_04469" class="clusterblast-orf" id="dummy-8_h8_6_3"  />
</g>
<g id="a8_004"  >
<polygon points="97,85 102,80 109,80 109,90 102,90 97,85 " style="fill:white; stroke-width:1; stroke:black; " description="&lt;b&gt;UREG_04468&lt;/b&gt;&lt;br&gt;hypothetical protein&lt;br&gt;Location: 4460950 - 4459807" locus_tag="UREG_04468" class="clusterblast-orf" id="dummy-8_h8_6_4"  />
</g>
<g id="a8_005"  >
<polygon points="132,85 137,80 153,80 153,90 137,90 132,85 " style="fill:white; stroke-width:1; stroke:black; " description="&lt;b&gt;UREG_04467&lt;/b&gt;&lt;br&gt;tubulin gamma chain&lt;br&gt;Location: 4457710 - 4455882" locus_tag="UREG_04467" class="clusterblast-orf" id="dummy-8_h8_6_5"  />
</g>
<g id="a8_006"  >
<polygon points="164,90 175,90 180,85 175,80 164,80 164,90 " style="fill:white; stroke-width:1; stroke:black; " description="&lt;b&gt;UREG_04466&lt;/b&gt;&lt;br&gt;hypothetical protein&lt;br&gt;Location: 4454854 - 4453417" locus_tag="UREG_04466" class="clusterblast-orf" id="dummy-8_h8_6_6"  />
</g>
<g id="a8_007"  >
<polygon points="185,90 191,90 196,85 191,80 185,80 185,90 " style="fill:#15d885; stroke-width:1; stroke:black; " description="&lt;b&gt;UREG_04465&lt;/b&gt;&lt;br&gt;hypothetical protein&lt;br&gt;Location: 4452985 - 4452014&lt;br&gt;&lt;br&gt;&lt;b&gt;BlastP hit with input.path1.gene1914&lt;/b&gt;&lt;br&gt;Percentage identity: 40&lt;br&gt;Percentage coverage: 58&lt;br&gt;BLAST bit score: 110&lt;br&gt;E-value: 2e-26" locus_tag="UREG_04465" class="clusterblast-orf" id="dummy-8_h8_6_7"  />
</g>
<g id="a8_008"  >
<polygon points="202,90 206,85 202,80 202,90 " style="fill:white; stroke-width:1; stroke:black; " description="&lt;b&gt;UREG_04464&lt;/b&gt;&lt;br&gt;hypothetical protein&lt;br&gt;Location: 4451454 - 4451039" locus_tag="UREG_04464" class="clusterblast-orf" id="dummy-8_h8_6_8"  />
</g>
<g id="a8_009"  >
<polygon points="237,85 242,80 252,80 252,90 242,90 237,85 " style="fill:white; stroke-width:1; stroke:black; " description="&lt;b&gt;UREG_04463&lt;/b&gt;&lt;br&gt;hypothetical protein&lt;br&gt;Location: 4448297 - 4446886" locus_tag="UREG_04463" class="clusterblast-orf" id="dummy-8_h8_6_9"  />
</g>
<g id="a8_0010"  >
<polygon points="258,85 263,80 283,80 283,90 263,90 258,85 " style="fill:white; stroke-width:1; stroke:black; " description="&lt;b&gt;UREG_04462&lt;/b&gt;&lt;br&gt;hypothetical protein&lt;br&gt;Location: 4446392 - 4444155" locus_tag="UREG_04462" class="clusterblast-orf" id="dummy-8_h8_6_10"  />
</g>
<g id="a8_0011"  >
<polygon points="292,85 297,80 465,80 465,90 297,90 292,85 " style="fill:#d815bc; stroke-width:1; stroke:black; " description="&lt;b&gt;UREG_04461&lt;/b&gt;&lt;br&gt;hypothetical protein&lt;br&gt;Location: 4443277 - 4427711&lt;br&gt;&lt;br&gt;&lt;b&gt;BlastP hit with input.path1.gene1912&lt;/b&gt;&lt;br&gt;Percentage identity: 34&lt;br&gt;Percentage coverage: 76&lt;br&gt;BLAST bit score: 1960&lt;br&gt;E-value: 0.0" locus_tag="UREG_04461" class="clusterblast-orf" id="dummy-8_h8_6_11"  />
</g>
<g id="a8_0012"  >
<polygon points="475,85 480,80 492,80 492,90 480,90 475,85 " style="fill:#d81515; stroke-width:1; stroke:black; " description="&lt;b&gt;UREG_04460&lt;/b&gt;&lt;br&gt;hypothetical protein&lt;br&gt;Location: 4426803 - 4425277&lt;br&gt;&lt;br&gt;&lt;b&gt;BlastP hit with input.path1.gene1909&lt;/b&gt;&lt;br&gt;Percentage identity: 43&lt;br&gt;Percentage coverage: 103&lt;br&gt;BLAST bit score: 308&lt;br&gt;E-value: 2.9e-99" locus_tag="UREG_04460" class="clusterblast-orf" id="dummy-8_h8_6_12"  />
</g>
<g id="a8_0013"  >
<polygon points="509,90 560,90 565,85 560,80 509,80 509,90 " style="fill:#4dd815; stroke-width:1; stroke:black; " description="&lt;b&gt;UREG_04459&lt;/b&gt;&lt;br&gt;fatty acid synthase alpha subunit&lt;br&gt;Location: 4423740 - 4418703&lt;br&gt;&lt;br&gt;&lt;b&gt;BlastP hit with input.path1.gene1910&lt;/b&gt;&lt;br&gt;Percentage identity: 45&lt;br&gt;Percentage coverage: 101&lt;br&gt;BLAST bit score: 1262&lt;br&gt;E-value: 0.0" locus_tag="UREG_04459" class="clusterblast-orf" id="dummy-8_h8_6_13"  />
</g>
<g id="a8_0014"  >
<polygon points="575,90 641,90 646,85 641,80 575,80 575,90 " style="fill:#4d15d8; stroke-width:1; stroke:black; " description="&lt;b&gt;UREG_04458&lt;/b&gt;&lt;br&gt;hypothetical protein&lt;br&gt;Location: 4417738 - 4411358&lt;br&gt;&lt;br&gt;&lt;b&gt;BlastP hit with input.path1.gene1915&lt;/b&gt;&lt;br&gt;Percentage identity: 38&lt;br&gt;Percentage coverage: 102&lt;br&gt;BLAST bit score: 1339&lt;br&gt;E-value: 0.0" locus_tag="UREG_04458" class="clusterblast-orf" id="dummy-8_h8_6_14"  />
</g>
<g id="a8_0015"  >
<polygon points="652,85 657,80 664,80 664,90 657,90 652,85 " style="fill:white; stroke-width:1; stroke:black; " description="&lt;b&gt;UREG_04457&lt;/b&gt;&lt;br&gt;hypothetical protein&lt;br&gt;Location: 4410798 - 4409703" locus_tag="UREG_04457" class="clusterblast-orf" id="dummy-8_h8_6_15"  />
</g>
<g id="a8_0016"  >
<polygon points="674,85 679,80 692,80 692,90 679,90 674,85 " style="fill:white; stroke-width:1; stroke:black; " description="&lt;b&gt;UREG_04456&lt;/b&gt;&lt;br&gt;phosphomannose isomerase type I&lt;br&gt;Location: 4408857 - 4407242" locus_tag="UREG_04456" class="clusterblast-orf" id="dummy-8_h8_6_16"  />
</g>
<g id="a8_0017"  >
<polygon points="698,90 705,90 710,85 705,80 698,80 698,90 " style="fill:white; stroke-width:1; stroke:black; " description="&lt;b&gt;UREG_04455&lt;/b&gt;&lt;br&gt;hypothetical protein&lt;br&gt;Location: 4406715 - 4405625" locus_tag="UREG_04455" class="clusterblast-orf" id="dummy-8_h8_6_17"  />
</g>
<g id="a8_0018"  >
<polygon points="716,90 725,90 730,85 725,80 716,80 716,90 " style="fill:white; stroke-width:1; stroke:black; " description="&lt;b&gt;UREG_04454&lt;/b&gt;&lt;br&gt;GTP cyclohydrolase-2&lt;br&gt;Location: 4405060 - 4403822" locus_tag="UREG_04454" class="clusterblast-orf" id="dummy-8_h8_6_18"  />
</g>
<g id="a8_0019"  >
<polygon points="739,85 744,80 744,80 744,90 744,90 739,85 " style="fill:white; stroke-width:1; stroke:black; " description="&lt;b&gt;UREG_04453&lt;/b&gt;&lt;br&gt;hypothetical protein&lt;br&gt;Location: 4402966 - 4402535" locus_tag="UREG_04453" class="clusterblast-orf" id="dummy-8_h8_6_19"  />
</g>
<g id="a8_0020"  >
<polygon points="761,90 775,90 780,85 775,80 761,80 761,90 " style="fill:white; stroke-width:1; stroke:black; " description="&lt;b&gt;UREG_04452&lt;/b&gt;&lt;br&gt;hypothetical protein&lt;br&gt;Location: 4401017 - 4399320" locus_tag="UREG_04452" class="clusterblast-orf" id="dummy-8_h8_6_20"  />
</g>
</svg>
