<svg xmlns="http://www.w3.org/2000/svg" xmlns:xlink="http://www.w3.org/1999/xlink" version="1.1" x="0" y="0" height="230" width="800" viewBox="0 0 800 230" preserveAspectRatio="none"  >
<g label="Query sequence" class="clusterblast-cluster"  >
<text x="5" y="20" class="clusterblast-acc"  >
Query sequence</text>
<line x1="10" y1="35" x2="778.0" y2="35" style="stroke-width:1; stroke:grey; "  />
<polygon points="122,35 127,30 140,30 140,40 127,40 122,35 " style="fill:#d81515; stroke-width:1; stroke:black; " description="&lt;b&gt;input.path1.gene1100&lt;/b&gt;&lt;br&gt;input.path1.gene1100&lt;br&gt;Location: 4239504 - 4241125" locus_tag="input.path1.gene1100" class="clusterblast-orf" id="dummy-6_q0_0_all"  />
<polygon points="144,40 167,40 172,35 167,30 144,30 144,40 " style="fill:#4dd815; stroke-width:1; stroke:black; " description="&lt;b&gt;input.path1.gene1101&lt;/b&gt;&lt;br&gt;input.path1.gene1101&lt;br&gt;Location: 4241409 - 4243881" locus_tag="input.path1.gene1101" class="clusterblast-orf" id="dummy-6_q1_0_all"  />
<polygon points="196,40 208,40 213,35 208,30 196,30 196,40 " style="fill:#1585d8; stroke-width:1; stroke:black; " description="&lt;b&gt;input.path1.gene1102&lt;/b&gt;&lt;br&gt;input.path1.gene1102&lt;br&gt;Location: 4245946 - 4247471" locus_tag="input.path1.gene1102" class="clusterblast-orf" id="dummy-6_q2_0_all"  />
<polygon points="225,40 238,40 243,35 238,30 225,30 225,40 " style="fill:#d815bc; stroke-width:1; stroke:black; " description="&lt;b&gt;input.path1.gene1103&lt;/b&gt;&lt;br&gt;input.path1.gene1103&lt;br&gt;Location: 4248478 - 4250113" locus_tag="input.path1.gene1103" class="clusterblast-orf" id="dummy-6_q3_0_all"  />
<polygon points="321,40 490,40 495,35 490,30 321,30 321,40 " style="fill:#d8bc15; stroke-width:1; stroke:black; " description="&lt;b&gt;input.path1.gene1104&lt;/b&gt;&lt;br&gt;input.path1.gene1104&lt;br&gt;Location: 4256871 - 4272047" locus_tag="input.path1.gene1104" class="clusterblast-orf" id="dummy-6_q4_0_all"  />
<polygon points="498,35 503,30 512,30 512,40 503,40 498,35 " style="fill:#15d885; stroke-width:1; stroke:black; " description="&lt;b&gt;input.path1.gene1105&lt;/b&gt;&lt;br&gt;input.path1.gene1105&lt;br&gt;Location: 4272388 - 4273599" locus_tag="input.path1.gene1105" class="clusterblast-orf" id="dummy-6_q5_0_all"  />
<polygon points="522,35 527,30 536,30 536,40 527,40 522,35 " style="fill:#4d15d8; stroke-width:1; stroke:black; " description="&lt;b&gt;input.path1.gene1106&lt;/b&gt;&lt;br&gt;input.path1.gene1106&lt;br&gt;Location: 4274475 - 4275678" locus_tag="input.path1.gene1106" class="clusterblast-orf" id="dummy-6_q6_0_all"  />
<polygon points="645,40 652,40 657,35 652,30 645,30 645,40 " style="fill:white; stroke-width:1; stroke:black; " description="&lt;b&gt;input.path1.gene1107&lt;/b&gt;&lt;br&gt;input.path1.gene1107&lt;br&gt;Location: 4285211 - 4286264" locus_tag="input.path1.gene1107" class="clusterblast-orf" id="dummy-6_q7_0_all"  />
</g>
<g label="NT_165976" description="NT_165976 (3807736-3883747): Chaetomium globosum CBS 148.51 scaffold 1 genomi... (21% of genes show similarity), NRPS,T1PKS" class="clusterblast-cluster"  >
<text x="5" y="70" class="clusterblast-acc"  >
<a xlink:href="https://antismash-db.secondarymetabolites.org/area?record=NT_165976&amp;start=3807736&amp;end=3883747" target="_blank">NT_165976 (3807736-3883747)</a>: Chaetomium globosum CBS 148.51 scaffold 1 genomi... (21% of genes show similarity), NRPS,T1PKS</text>
<line x1="10" y1="85" x2="778.0" y2="85" style="stroke-width:1; stroke:grey; "  />
</g>
<g id="a6_000"  >
<polygon points="0,90 18,90 23,85 18,80 0,80 0,90 " style="fill:white; stroke-width:1; stroke:black; " description="&lt;b&gt;CHGG_01248&lt;/b&gt;&lt;br&gt;uncharacterized protein&lt;br&gt;Location: 3875911 - 3873869" locus_tag="CHGG_01248" class="clusterblast-orf" id="dummy-6_h6_8_0"  />
</g>
<g id="a6_001"  >
<polygon points="37,90 46,90 51,85 46,80 37,80 37,90 " style="fill:white; stroke-width:1; stroke:black; " description="&lt;b&gt;CHGG_01247&lt;/b&gt;&lt;br&gt;uncharacterized protein&lt;br&gt;Location: 3872661 - 3871395" locus_tag="CHGG_01247" class="clusterblast-orf" id="dummy-6_h6_8_1"  />
</g>
<g id="a6_002"  >
<polygon points="63,85 68,80 79,80 79,90 68,90 63,85 " style="fill:white; stroke-width:1; stroke:black; " description="&lt;b&gt;CHGG_01246&lt;/b&gt;&lt;br&gt;uncharacterized protein&lt;br&gt;Location: 3870335 - 3868962" locus_tag="CHGG_01246" class="clusterblast-orf" id="dummy-6_h6_8_2"  />
</g>
<g id="a6_003"  >
<polygon points="87,90 95,90 100,85 95,80 87,80 87,90 " style="fill:white; stroke-width:1; stroke:black; " description="&lt;b&gt;CHGG_01245&lt;/b&gt;&lt;br&gt;uncharacterized protein&lt;br&gt;Location: 3868231 - 3867098" locus_tag="CHGG_01245" class="clusterblast-orf" id="dummy-6_h6_8_3"  />
</g>
<g id="a6_004"  >
<polygon points="106,85 111,80 112,80 112,90 111,90 106,85 " style="fill:white; stroke-width:1; stroke:black; " description="&lt;b&gt;CHGG_01244&lt;/b&gt;&lt;br&gt;uncharacterized protein&lt;br&gt;Location: 3866651 - 3866088" locus_tag="CHGG_01244" class="clusterblast-orf" id="dummy-6_h6_8_4"  />
</g>
<g id="a6_005"  >
<polygon points="126,90 133,90 138,85 133,80 126,80 126,90 " style="fill:white; stroke-width:1; stroke:black; " description="&lt;b&gt;CHGG_01243&lt;/b&gt;&lt;br&gt;uncharacterized protein&lt;br&gt;Location: 3864908 - 3863829" locus_tag="CHGG_01243" class="clusterblast-orf" id="dummy-6_h6_8_5"  />
</g>
<g id="a6_006"  >
<polygon points="153,90 195,90 200,85 195,80 153,80 153,90 " style="fill:#4dd815; stroke-width:1; stroke:black; " description="&lt;b&gt;CHGG_01242&lt;/b&gt;&lt;br&gt;uncharacterized protein&lt;br&gt;Location: 3862541 - 3858380&lt;br&gt;&lt;br&gt;&lt;b&gt;BlastP hit with input.path1.gene1101&lt;/b&gt;&lt;br&gt;Percentage identity: 42&lt;br&gt;Percentage coverage: 23&lt;br&gt;BLAST bit score: 73&lt;br&gt;E-value: 8.42e-12" locus_tag="CHGG_01242" class="clusterblast-orf" id="dummy-6_h6_8_6"  />
</g>
<g id="a6_007"  >
<polygon points="207,85 212,80 222,80 222,90 212,90 207,85 " style="fill:#d81515; stroke-width:1; stroke:black; " description="&lt;b&gt;CHGG_01241&lt;/b&gt;&lt;br&gt;uncharacterized protein&lt;br&gt;Location: 3857789 - 3856518&lt;br&gt;&lt;br&gt;&lt;b&gt;BlastP hit with input.path1.gene1100&lt;/b&gt;&lt;br&gt;Percentage identity: 48&lt;br&gt;Percentage coverage: 55&lt;br&gt;BLAST bit score: 156&lt;br&gt;E-value: 9.27e-43" locus_tag="CHGG_01241" class="clusterblast-orf" id="dummy-6_h6_8_7"  />
</g>
<g id="a6_008"  >
<polygon points="229,90 237,90 242,85 237,80 229,80 229,90 " style="fill:#4dd815; stroke-width:1; stroke:black; " description="&lt;b&gt;CHGG_01240&lt;/b&gt;&lt;br&gt;uncharacterized protein&lt;br&gt;Location: 3855890 - 3854705&lt;br&gt;&lt;br&gt;&lt;b&gt;BlastP hit with input.path1.gene1101&lt;/b&gt;&lt;br&gt;Percentage identity: 49&lt;br&gt;Percentage coverage: 30&lt;br&gt;BLAST bit score: 120&lt;br&gt;E-value: 1.35e-28" locus_tag="CHGG_01240" class="clusterblast-orf" id="dummy-6_h6_8_8"  />
</g>
<g id="a6_009"  >
<polygon points="253,90 432,90 437,85 432,80 253,80 253,90 " style="fill:#d8bc15; stroke-width:1; stroke:black; " description="&lt;b&gt;CHGG_01239&lt;/b&gt;&lt;br&gt;uncharacterized protein&lt;br&gt;Location: 3853747 - 3837737&lt;br&gt;&lt;br&gt;&lt;b&gt;BlastP hit with input.path1.gene1104&lt;/b&gt;&lt;br&gt;Percentage identity: 41&lt;br&gt;Percentage coverage: 91&lt;br&gt;BLAST bit score: 2832&lt;br&gt;E-value: 0.0" locus_tag="CHGG_01239" class="clusterblast-orf" id="dummy-6_h6_8_9"  />
</g>
<g id="a6_0010"  >
<polygon points="464,85 469,80 480,80 480,90 469,90 464,85 " style="fill:white; stroke-width:1; stroke:black; " description="&lt;b&gt;CHGG_01238&lt;/b&gt;&lt;br&gt;uncharacterized protein&lt;br&gt;Location: 3835398 - 3833962" locus_tag="CHGG_01238" class="clusterblast-orf" id="dummy-6_h6_8_10"  />
</g>
<g id="a6_0011"  >
<polygon points="496,90 510,90 515,85 510,80 496,80 496,90 " style="fill:white; stroke-width:1; stroke:black; " description="&lt;b&gt;CHGG_01237&lt;/b&gt;&lt;br&gt;uncharacterized protein&lt;br&gt;Location: 3832525 - 3830915" locus_tag="CHGG_01237" class="clusterblast-orf" id="dummy-6_h6_8_11"  />
</g>
<g id="a6_0012"  >
<polygon points="524,85 529,80 542,80 542,90 529,90 524,85 " style="fill:white; stroke-width:1; stroke:black; " description="&lt;b&gt;CHGG_01236&lt;/b&gt;&lt;br&gt;uncharacterized protein&lt;br&gt;Location: 3830125 - 3828585" locus_tag="CHGG_01236" class="clusterblast-orf" id="dummy-6_h6_8_12"  />
</g>
<g id="a6_0013"  >
<polygon points="550,90 570,90 575,85 570,80 550,80 550,90 " style="fill:white; stroke-width:1; stroke:black; " description="&lt;b&gt;CHGG_01235&lt;/b&gt;&lt;br&gt;uncharacterized protein&lt;br&gt;Location: 3827871 - 3825686" locus_tag="CHGG_01235" class="clusterblast-orf" id="dummy-6_h6_8_13"  />
</g>
<g id="a6_0014"  >
<polygon points="625,85 630,80 653,80 653,90 630,90 625,85 " style="fill:white; stroke-width:1; stroke:black; " description="&lt;b&gt;CHGG_01234&lt;/b&gt;&lt;br&gt;uncharacterized protein&lt;br&gt;Location: 3821290 - 3818832" locus_tag="CHGG_01234" class="clusterblast-orf" id="dummy-6_h6_8_14"  />
</g>
<g id="a6_0015"  >
<polygon points="661,90 682,90 687,85 682,80 661,80 661,90 " style="fill:white; stroke-width:1; stroke:black; " description="&lt;b&gt;CHGG_01233&lt;/b&gt;&lt;br&gt;uncharacterized protein&lt;br&gt;Location: 3818147 - 3815886" locus_tag="CHGG_01233" class="clusterblast-orf" id="dummy-6_h6_8_15"  />
</g>
<g id="a6_0016"  >
<polygon points="691,85 696,80 702,80 702,90 696,90 691,85 " style="fill:white; stroke-width:1; stroke:black; " description="&lt;b&gt;CHGG_01232&lt;/b&gt;&lt;br&gt;uncharacterized protein&lt;br&gt;Location: 3815555 - 3814592" locus_tag="CHGG_01232" class="clusterblast-orf" id="dummy-6_h6_8_16"  />
</g>
<g id="a6_0017"  >
<polygon points="744,90 747,90 752,85 747,80 744,80 744,90 " style="fill:white; stroke-width:1; stroke:black; " description="&lt;b&gt;CHGG_01231&lt;/b&gt;&lt;br&gt;uncharacterized protein&lt;br&gt;Location: 3810955 - 3810187" locus_tag="CHGG_01231" class="clusterblast-orf" id="dummy-6_h6_8_17"  />
</g>
<g id="a6_0018"  >
<polygon points="756,90 775,90 780,85 775,80 756,80 756,90 " style="fill:white; stroke-width:1; stroke:black; " description="&lt;b&gt;CHGG_01230&lt;/b&gt;&lt;br&gt;uncharacterized protein&lt;br&gt;Location: 3809850 - 3807820" locus_tag="CHGG_01230" class="clusterblast-orf" id="dummy-6_h6_8_18"  />
</g>
</svg>
