<svg xmlns="http://www.w3.org/2000/svg" xmlns:xlink="http://www.w3.org/1999/xlink" version="1.1" x="0" y="0" height="230" width="800" viewBox="0 0 800 230" preserveAspectRatio="none"  >
<g label="Query sequence" class="clusterblast-cluster"  >
<text x="5" y="20" class="clusterblast-acc"  >
Query sequence</text>
<line x1="10" y1="35" x2="778.0" y2="35" style="stroke-width:1; stroke:grey; "  />
<polygon points="152,35 157,30 173,30 173,40 157,40 152,35 " style="fill:#d81515; stroke-width:1; stroke:black; " description="&lt;b&gt;input.path1.gene1061&lt;/b&gt;&lt;br&gt;input.path1.gene1061&lt;br&gt;Location: 3889752 - 3890779" locus_tag="input.path1.gene1061" class="clusterblast-orf" id="dummy-5_q0_0_all"  />
<polygon points="194,35 199,30 224,30 224,40 199,40 194,35 " style="fill:#d81515; stroke-width:1; stroke:black; " description="&lt;b&gt;input.path1.gene1062&lt;/b&gt;&lt;br&gt;input.path1.gene1062&lt;br&gt;Location: 3891795 - 3893268" locus_tag="input.path1.gene1062" class="clusterblast-orf" id="dummy-5_q1_0_all"  />
<polygon points="243,40 271,40 276,35 271,30 243,30 243,40 " style="fill:#77d815; stroke-width:1; stroke:black; " description="&lt;b&gt;input.path1.gene1063&lt;/b&gt;&lt;br&gt;input.path1.gene1063&lt;br&gt;Location: 3894229 - 3895842" locus_tag="input.path1.gene1063" class="clusterblast-orf" id="dummy-5_q2_0_all"  />
<polygon points="287,35 292,30 309,30 309,40 292,40 287,35 " style="fill:#15d8d8; stroke-width:1; stroke:black; " description="&lt;b&gt;input.path1.gene1064&lt;/b&gt;&lt;br&gt;input.path1.gene1064&lt;br&gt;Location: 3896356 - 3897442" locus_tag="input.path1.gene1064" class="clusterblast-orf" id="dummy-5_q3_0_all"  />
<polygon points="395,35 400,30 420,30 420,40 400,40 395,35 " style="fill:#7715d8; stroke-width:1; stroke:black; " description="&lt;b&gt;input.path1.gene1065&lt;/b&gt;&lt;br&gt;input.path1.gene1065&lt;br&gt;Location: 3901658 - 3902869" locus_tag="input.path1.gene1065" class="clusterblast-orf" id="dummy-5_q4_0_all"  />
<polygon points="444,35 449,30 468,30 468,40 449,40 444,35 " style="fill:#7715d8; stroke-width:1; stroke:black; " description="&lt;b&gt;input.path1.gene1066&lt;/b&gt;&lt;br&gt;input.path1.gene1066&lt;br&gt;Location: 3904027 - 3905197" locus_tag="input.path1.gene1066" class="clusterblast-orf" id="dummy-5_q5_0_all"  />
<polygon points="554,40 583,40 588,35 583,30 554,30 554,40 " style="fill:#d81515; stroke-width:1; stroke:black; " description="&lt;b&gt;input.path1.gene1067&lt;/b&gt;&lt;br&gt;input.path1.gene1067&lt;br&gt;Location: 3909408 - 3911096" locus_tag="input.path1.gene1067" class="clusterblast-orf" id="dummy-5_q6_0_all"  />
<polygon points="623,35 627,30 627,40 623,35 " style="fill:white; stroke-width:1; stroke:black; " description="&lt;b&gt;input.path1.gene1068&lt;/b&gt;&lt;br&gt;input.path1.gene1068&lt;br&gt;Location: 3912793 - 3913009" locus_tag="input.path1.gene1068" class="clusterblast-orf" id="dummy-5_q7_0_all"  />
</g>
<g label="NC_054389" description="NC_054389 (6551691-6594528): Drechmeria coniospora strain ARSEF 6962 chromoso... (46% of genes show similarity), indole,terpene" class="clusterblast-cluster"  >
<text x="5" y="70" class="clusterblast-acc"  >
<a xlink:href="https://antismash-db.secondarymetabolites.org/area?record=NC_054389&amp;start=6551691&amp;end=6594528" target="_blank">NC_054389 (6551691-6594528)</a>: Drechmeria coniospora strain ARSEF 6962 chromoso... (46% of genes show similarity), indole,terpene</text>
<line x1="10" y1="85" x2="778.0" y2="85" style="stroke-width:1; stroke:grey; "  />
</g>
<g id="a5_000"  >
<polygon points="0,85 5,80 9,80 9,90 5,90 0,85 " style="fill:white; stroke-width:1; stroke:black; " description="&lt;b&gt;DCS_01705&lt;/b&gt;&lt;br&gt;uncharacterized protein&lt;br&gt;Location: 6591087 - 6590644" locus_tag="DCS_01705" class="clusterblast-orf" id="dummy-5_h5_3_0"  />
</g>
<g id="a5_001"  >
<polygon points="46,90 92,90 97,85 92,80 46,80 46,90 " style="fill:white; stroke-width:1; stroke:black; " description="&lt;b&gt;DCS_01704&lt;/b&gt;&lt;br&gt;hypothetical protein&lt;br&gt;Location: 6588795 - 6586326" locus_tag="DCS_01704" class="clusterblast-orf" id="dummy-5_h5_3_1"  />
</g>
<g id="a5_002"  >
<polygon points="128,90 154,90 159,85 154,80 128,80 128,90 " style="fill:white; stroke-width:1; stroke:black; " description="&lt;b&gt;DCS_01703&lt;/b&gt;&lt;br&gt;hypothetical protein&lt;br&gt;Location: 6584806 - 6583298" locus_tag="DCS_01703" class="clusterblast-orf" id="dummy-5_h5_3_2"  />
</g>
<g id="a5_003"  >
<polygon points="165,85 170,80 206,80 206,90 170,90 165,85 " style="fill:#d81515; stroke-width:1; stroke:black; " description="&lt;b&gt;DCS_01702&lt;/b&gt;&lt;br&gt;hypothetical protein&lt;br&gt;Location: 6582984 - 6580976&lt;br&gt;&lt;br&gt;&lt;b&gt;BlastP hit with input.path1.gene1061&lt;/b&gt;&lt;br&gt;Percentage identity: 49&lt;br&gt;Percentage coverage: 102&lt;br&gt;BLAST bit score: 304&lt;br&gt;E-value: 1.63e-98" locus_tag="DCS_01702" class="clusterblast-orf" id="dummy-5_h5_3_3"  />
</g>
<g id="a5_004"  >
<polygon points="216,90 228,90 233,85 228,80 216,80 216,90 " style="fill:#77d815; stroke-width:1; stroke:black; " description="&lt;b&gt;DCS_01701&lt;/b&gt;&lt;br&gt;hypothetical protein&lt;br&gt;Location: 6580495 - 6579654&lt;br&gt;&lt;br&gt;&lt;b&gt;BlastP hit with input.path1.gene1063&lt;/b&gt;&lt;br&gt;Percentage identity: 49&lt;br&gt;Percentage coverage: 77&lt;br&gt;BLAST bit score: 171&lt;br&gt;E-value: 6.79e-50" locus_tag="DCS_01701" class="clusterblast-orf" id="dummy-5_h5_3_4"  />
</g>
<g id="a5_005"  >
<polygon points="236,85 241,80 259,80 259,90 241,90 236,85 " style="fill:#15d8d8; stroke-width:1; stroke:black; " description="&lt;b&gt;DCS_01700&lt;/b&gt;&lt;br&gt;prenyl transferase&lt;br&gt;Location: 6579528 - 6578412&lt;br&gt;&lt;br&gt;&lt;b&gt;BlastP hit with input.path1.gene1064&lt;/b&gt;&lt;br&gt;Percentage identity: 58&lt;br&gt;Percentage coverage: 97&lt;br&gt;BLAST bit score: 390&lt;br&gt;E-value: 8.79e-134" locus_tag="DCS_01700" class="clusterblast-orf" id="dummy-5_h5_3_5"  />
</g>
<g id="a5_006"  >
<polygon points="267,90 279,90 284,85 279,80 267,80 267,90 " style="fill:white; stroke-width:1; stroke:black; " description="&lt;b&gt;DCS_01699&lt;/b&gt;&lt;br&gt;terpene cyclase&lt;br&gt;Location: 6578023 - 6577171" locus_tag="DCS_01699" class="clusterblast-orf" id="dummy-5_h5_3_6"  />
</g>
<g id="a5_007"  >
<polygon points="310,85 315,80 391,80 391,90 315,90 310,85 " style="fill:#d81515; stroke-width:1; stroke:black; " description="&lt;b&gt;DCS_01698&lt;/b&gt;&lt;br&gt;cytochrome P450 monooxygenase&lt;br&gt;Location: 6575916 - 6571960&lt;br&gt;&lt;br&gt;&lt;b&gt;BlastP hit with input.path1.gene1062&lt;/b&gt;&lt;br&gt;Percentage identity: 47&lt;br&gt;Percentage coverage: 71&lt;br&gt;BLAST bit score: 110&lt;br&gt;E-value: 1.05e-26&lt;br&gt;&lt;br&gt;&lt;b&gt;BlastP hit with input.path1.gene1067&lt;/b&gt;&lt;br&gt;Percentage identity: 63&lt;br&gt;Percentage coverage: 91&lt;br&gt;BLAST bit score: 535&lt;br&gt;E-value: 4.23e-182" locus_tag="DCS_01698" class="clusterblast-orf" id="dummy-5_h5_3_7"  />
</g>
<g id="a5_008"  >
<polygon points="413,90 445,90 450,85 445,80 413,80 413,90 " style="fill:#d81515; stroke-width:1; stroke:black; " description="&lt;b&gt;DCS_01697&lt;/b&gt;&lt;br&gt;cytochrome P450 monooxygenase&lt;br&gt;Location: 6570884 - 6569046&lt;br&gt;&lt;br&gt;&lt;b&gt;BlastP hit with input.path1.gene1061&lt;/b&gt;&lt;br&gt;Percentage identity: 32&lt;br&gt;Percentage coverage: 92&lt;br&gt;BLAST bit score: 135&lt;br&gt;E-value: 1.99e-34" locus_tag="DCS_01697" class="clusterblast-orf" id="dummy-5_h5_3_8"  />
</g>
<g id="a5_009"  >
<polygon points="469,90 493,90 498,85 493,80 469,80 469,90 " style="fill:#7715d8; stroke-width:1; stroke:black; " description="&lt;b&gt;DCS_01696&lt;/b&gt;&lt;br&gt;aromatic prenyl transferase&lt;br&gt;Location: 6568122 - 6566692&lt;br&gt;&lt;br&gt;&lt;b&gt;BlastP hit with input.path1.gene1065&lt;/b&gt;&lt;br&gt;Percentage identity: 45&lt;br&gt;Percentage coverage: 98&lt;br&gt;BLAST bit score: 342&lt;br&gt;E-value: 5.62e-113&lt;br&gt;&lt;br&gt;&lt;b&gt;BlastP hit with input.path1.gene1066&lt;/b&gt;&lt;br&gt;Percentage identity: 54&lt;br&gt;Percentage coverage: 100&lt;br&gt;BLAST bit score: 392&lt;br&gt;E-value: 1.06e-133" locus_tag="DCS_01696" class="clusterblast-orf" id="dummy-5_h5_3_9"  />
</g>
<g id="a5_0010"  >
<polygon points="545,90 561,90 566,85 561,80 545,80 545,90 " style="fill:white; stroke-width:1; stroke:black; " description="&lt;b&gt;DCS_01695&lt;/b&gt;&lt;br&gt;hypothetical protein&lt;br&gt;Location: 6564427 - 6563393" locus_tag="DCS_01695" class="clusterblast-orf" id="dummy-5_h5_3_10"  />
</g>
<g id="a5_0011"  >
<polygon points="572,85 577,80 701,80 701,90 577,90 572,85 " style="fill:white; stroke-width:1; stroke:black; " description="&lt;b&gt;DCS_01694&lt;/b&gt;&lt;br&gt;hypothetical protein&lt;br&gt;Location: 6563110 - 6556799" locus_tag="DCS_01694" class="clusterblast-orf" id="dummy-5_h5_3_11"  />
</g>
<g id="a5_0012"  >
<polygon points="741,90 775,90 780,85 775,80 741,80 741,90 " style="fill:white; stroke-width:1; stroke:black; " description="&lt;b&gt;DCS_01693&lt;/b&gt;&lt;br&gt;hypothetical protein&lt;br&gt;Location: 6554804 - 6552942" locus_tag="DCS_01693" class="clusterblast-orf" id="dummy-5_h5_3_12"  />
</g>
</svg>
