<svg xmlns="http://www.w3.org/2000/svg" xmlns:xlink="http://www.w3.org/1999/xlink" version="1.1" x="0" y="0" height="230" width="800" viewBox="0 0 800 230" preserveAspectRatio="none"  >
<g label="Query sequence" class="clusterblast-cluster"  >
<text x="5" y="20" class="clusterblast-acc"  >
Query sequence</text>
<line x1="10" y1="35" x2="778.0" y2="35" style="stroke-width:1; stroke:grey; "  />
<polygon points="0,40 30,40 35,35 30,30 0,30 0,40 " style="fill:#d81515; stroke-width:1; stroke:black; " description="&lt;b&gt;input.path1.gene178&lt;/b&gt;&lt;br&gt;input.path1.gene178&lt;br&gt;Location: 658816 - 660264" locus_tag="input.path1.gene178" class="clusterblast-orf" id="dummy-2_q0_0_all"  />
<polygon points="162,40 182,40 187,35 182,30 162,30 162,40 " style="fill:#77d815; stroke-width:1; stroke:black; " description="&lt;b&gt;input.path1.gene179&lt;/b&gt;&lt;br&gt;input.path1.gene179&lt;br&gt;Location: 665512 - 666562" locus_tag="input.path1.gene179" class="clusterblast-orf" id="dummy-2_q1_0_all"  />
<polygon points="251,40 270,40 275,35 270,30 251,30 251,40 " style="fill:#15d8d8; stroke-width:1; stroke:black; " description="&lt;b&gt;input.path1.gene180&lt;/b&gt;&lt;br&gt;input.path1.gene180&lt;br&gt;Location: 669198 - 670219" locus_tag="input.path1.gene180" class="clusterblast-orf" id="dummy-2_q2_0_all"  />
<polygon points="300,35 305,30 334,30 334,40 305,40 300,35 " style="fill:white; stroke-width:1; stroke:black; " description="&lt;b&gt;input.path1.gene181&lt;/b&gt;&lt;br&gt;input.path1.gene181&lt;br&gt;Location: 671245 - 672661" locus_tag="input.path1.gene181" class="clusterblast-orf" id="dummy-2_q3_0_all"  />
<polygon points="407,40 430,40 435,35 430,30 407,30 407,40 " style="fill:#7715d8; stroke-width:1; stroke:black; " description="&lt;b&gt;input.path1.gene182&lt;/b&gt;&lt;br&gt;input.path1.gene182&lt;br&gt;Location: 675680 - 676817" locus_tag="input.path1.gene182" class="clusterblast-orf" id="dummy-2_q4_0_all"  />
<polygon points="474,40 617,40 622,35 617,30 474,30 474,40 " style="fill:white; stroke-width:1; stroke:black; " description="&lt;b&gt;input.path1.gene183&lt;/b&gt;&lt;br&gt;input.path1.gene183&lt;br&gt;Location: 678451 - 684569" locus_tag="input.path1.gene183" class="clusterblast-orf" id="dummy-2_q5_0_all"  />
<polygon points="622,35 627,30 642,30 642,40 627,40 622,35 " style="fill:white; stroke-width:1; stroke:black; " description="&lt;b&gt;input.path1.gene184&lt;/b&gt;&lt;br&gt;input.path1.gene184&lt;br&gt;Location: 684570 - 685400" locus_tag="input.path1.gene184" class="clusterblast-orf" id="dummy-2_q6_0_all"  />
<polygon points="776,35 780,30 780,40 776,35 " style="fill:white; stroke-width:1; stroke:black; " description="&lt;b&gt;input.path1.gene185&lt;/b&gt;&lt;br&gt;input.path1.gene185&lt;br&gt;Location: 690931 - 691094" locus_tag="input.path1.gene185" class="clusterblast-orf" id="dummy-2_q7_0_all"  />
</g>
<g label="BGC0000348" description="BGC0000348_c1: ergovaline (33% of genes show similarity), NRP" class="clusterblast-cluster"  >
<text x="5" y="70" class="clusterblast-acc"  >
<a xlink:href="https://mibig.secondarymetabolites.org/go/BGC0000348/1" target="_blank">BGC0000348</a>: ergovaline                                                                       (33% of genes show similarity), NRP</text>
<line x1="10" y1="85" x2="778.0" y2="85" style="stroke-width:1; stroke:grey; "  />
</g>
<g id="a2_000"  >
<polygon points="226,85 231,80 326,80 326,90 231,90 226,85 " style="fill:white; stroke-width:1; stroke:black; " description="&lt;b&gt;ABM91454.1&lt;/b&gt;&lt;br&gt;lysergyl peptide synthetase LpsB&lt;br&gt;Location: 13540 - 9411" locus_tag="ABM91454.1" class="clusterblast-orf" id="dummy-2_h2_6_0"  />
</g>
<g id="a2_001"  >
<polygon points="356,90 399,90 404,85 399,80 356,80 356,90 " style="fill:white; stroke-width:1; stroke:black; " description="&lt;b&gt;ABM91450.1&lt;/b&gt;&lt;br&gt;putative oxidoreductase&lt;br&gt;Location: 8140 - 6190" locus_tag="ABM91450.1" class="clusterblast-orf" id="dummy-2_h2_6_1"  />
</g>
<g id="a2_002"  >
<polygon points="415,90 436,90 441,85 436,80 415,80 415,90 " style="fill:white; stroke-width:1; stroke:black; " description="&lt;b&gt;ABM91451.1&lt;/b&gt;&lt;br&gt;conserved protein EasF&lt;br&gt;Location: 5721 - 4619" locus_tag="ABM91451.1" class="clusterblast-orf" id="dummy-2_h2_6_2"  />
</g>
<g id="a2_003"  >
<polygon points="443,85 448,80 468,80 468,90 448,90 443,85 " style="fill:#d81515; stroke-width:1; stroke:black; " description="&lt;b&gt;ABM91452.1&lt;/b&gt;&lt;br&gt;conserved protein EasG&lt;br&gt;Location: 4575 - 3517&lt;br&gt;&lt;br&gt;&lt;b&gt;BlastP hit with input.path1.gene178&lt;/b&gt;&lt;br&gt;Percentage identity: 49&lt;br&gt;Percentage coverage: 60&lt;br&gt;BLAST bit score: 140&lt;br&gt;E-value: 8.02e-40" locus_tag="ABM91452.1" class="clusterblast-orf" id="dummy-2_h2_6_3"  />
</g>
<g id="a2_004"  >
<polygon points="501,90 523,90 528,85 523,80 501,80 501,90 " style="fill:#7715d8; stroke-width:1; stroke:black; " description="&lt;b&gt;ABM91449.1&lt;/b&gt;&lt;br&gt;putative oxidoreductase&lt;br&gt;Location: 2161 - 1019&lt;br&gt;&lt;br&gt;&lt;b&gt;BlastP hit with input.path1.gene182&lt;/b&gt;&lt;br&gt;Percentage identity: 80&lt;br&gt;Percentage coverage: 96&lt;br&gt;BLAST bit score: 531&lt;br&gt;E-value: 3.26e-191" locus_tag="ABM91449.1" class="clusterblast-orf" id="dummy-2_h2_6_4"  />
</g>
<g id="a2_005"  >
<polygon points="540,85 545,80 553,80 553,90 545,90 540,85 " style="fill:white; stroke-width:1; stroke:black; " description="&lt;b&gt;ABM91453.1&lt;/b&gt;&lt;br&gt;putative dioxygenase&lt;br&gt;Location: 558 - 1" locus_tag="ABM91453.1" class="clusterblast-orf" id="dummy-2_h2_6_5"  />
</g>
</svg>
