<svg xmlns="http://www.w3.org/2000/svg" xmlns:xlink="http://www.w3.org/1999/xlink" version="1.1" x="0" y="0" height="230" width="800" viewBox="0 0 800 230" preserveAspectRatio="none"  >
<g label="Query sequence" class="clusterblast-cluster"  >
<text x="5" y="20" class="clusterblast-acc"  >
Query sequence</text>
<line x1="10" y1="35" x2="778.0" y2="35" style="stroke-width:1; stroke:grey; "  />
<polygon points="0,40 13,40 18,35 13,30 0,30 0,40 " style="fill:#d81515; stroke-width:1; stroke:black; " description="&lt;b&gt;input.path1.gene109&lt;/b&gt;&lt;br&gt;input.path1.gene109&lt;br&gt;Location: 468834 - 470998" locus_tag="input.path1.gene109" class="clusterblast-orf" id="dummy-2_q0_0_all"  />
<polygon points="38,40 40,40 45,35 40,30 38,30 38,40 " style="fill:#77d815; stroke-width:1; stroke:black; " description="&lt;b&gt;input.path1.gene110&lt;/b&gt;&lt;br&gt;input.path1.gene110&lt;br&gt;Location: 473246 - 474062" locus_tag="input.path1.gene110" class="clusterblast-orf" id="dummy-2_q1_0_all"  />
<polygon points="64,40 66,40 71,35 66,30 64,30 64,40 " style="fill:white; stroke-width:1; stroke:black; " description="&lt;b&gt;input.path1.gene111&lt;/b&gt;&lt;br&gt;input.path1.gene111&lt;br&gt;Location: 476253 - 476971" locus_tag="input.path1.gene111" class="clusterblast-orf" id="dummy-2_q2_0_all"  />
<polygon points="106,35 111,30 128,30 128,40 111,40 106,35 " style="fill:#15d8d8; stroke-width:1; stroke:black; " description="&lt;b&gt;input.path1.gene112&lt;/b&gt;&lt;br&gt;input.path1.gene112&lt;br&gt;Location: 481022 - 483554" locus_tag="input.path1.gene112" class="clusterblast-orf" id="dummy-2_q3_0_all"  />
<polygon points="139,40 200,40 205,35 200,30 139,30 139,40 " style="fill:#7715d8; stroke-width:1; stroke:black; " description="&lt;b&gt;input.path1.gene113&lt;/b&gt;&lt;br&gt;input.path1.gene113&lt;br&gt;Location: 484802 - 492413" locus_tag="input.path1.gene113" class="clusterblast-orf" id="dummy-2_q4_0_all"  />
<polygon points="225,40 242,40 247,35 242,30 225,30 225,40 " style="fill:#7715d8; stroke-width:1; stroke:black; " description="&lt;b&gt;input.path1.gene114&lt;/b&gt;&lt;br&gt;input.path1.gene114&lt;br&gt;Location: 494706 - 497252" locus_tag="input.path1.gene114" class="clusterblast-orf" id="dummy-2_q5_0_all"  />
<polygon points="250,35 255,30 258,30 258,40 255,40 250,35 " style="fill:#d85e15; stroke-width:1; stroke:black; " description="&lt;b&gt;input.path1.gene115&lt;/b&gt;&lt;br&gt;input.path1.gene115&lt;br&gt;Location: 497573 - 498444" locus_tag="input.path1.gene115" class="clusterblast-orf" id="dummy-2_q6_0_all"  />
<polygon points="266,40 273,40 278,35 273,30 266,30 266,40 " style="fill:#2ed815; stroke-width:1; stroke:black; " description="&lt;b&gt;input.path1.gene116&lt;/b&gt;&lt;br&gt;input.path1.gene116&lt;br&gt;Location: 499409 - 500770" locus_tag="input.path1.gene116" class="clusterblast-orf" id="dummy-2_q7_0_all"  />
<polygon points="290,35 295,30 313,30 313,40 295,40 290,35 " style="fill:#158fd8; stroke-width:1; stroke:black; " description="&lt;b&gt;input.path1.gene117&lt;/b&gt;&lt;br&gt;input.path1.gene117&lt;br&gt;Location: 502113 - 504759" locus_tag="input.path1.gene117" class="clusterblast-orf" id="dummy-2_q8_0_all"  />
<polygon points="316,40 324,40 329,35 324,30 316,30 316,40 " style="fill:#c015d8; stroke-width:1; stroke:black; " description="&lt;b&gt;input.path1.gene118&lt;/b&gt;&lt;br&gt;input.path1.gene118&lt;br&gt;Location: 505159 - 506562" locus_tag="input.path1.gene118" class="clusterblast-orf" id="dummy-2_q9_0_all"  />
<polygon points="355,40 355,40 360,35 355,30 355,30 355,40 " style="fill:#d8a715; stroke-width:1; stroke:black; " description="&lt;b&gt;input.path1.gene119&lt;/b&gt;&lt;br&gt;input.path1.gene119&lt;br&gt;Location: 509634 - 510120" locus_tag="input.path1.gene119" class="clusterblast-orf" id="dummy-2_q10_0_all"  />
<polygon points="363,35 368,30 388,30 388,40 368,40 363,35 " style="fill:#15d846; stroke-width:1; stroke:black; " description="&lt;b&gt;input.path1.gene120&lt;/b&gt;&lt;br&gt;input.path1.gene120&lt;br&gt;Location: 510504 - 513369" locus_tag="input.path1.gene120" class="clusterblast-orf" id="dummy-2_q11_0_all"  />
<polygon points="395,40 396,40 401,35 396,30 395,30 395,40 " style="fill:white; stroke-width:1; stroke:black; " description="&lt;b&gt;input.path1.gene121&lt;/b&gt;&lt;br&gt;input.path1.gene121&lt;br&gt;Location: 514196 - 514835" locus_tag="input.path1.gene121" class="clusterblast-orf" id="dummy-2_q12_0_all"  />
<polygon points="417,35 422,30 426,30 426,40 422,40 417,35 " style="fill:white; stroke-width:1; stroke:black; " description="&lt;b&gt;input.path1.gene122&lt;/b&gt;&lt;br&gt;input.path1.gene122&lt;br&gt;Location: 516671 - 517674" locus_tag="input.path1.gene122" class="clusterblast-orf" id="dummy-2_q13_0_all"  />
<polygon points="431,40 438,40 443,35 438,30 431,30 431,40 " style="fill:#1546d8; stroke-width:1; stroke:black; " description="&lt;b&gt;input.path1.gene123&lt;/b&gt;&lt;br&gt;input.path1.gene123&lt;br&gt;Location: 518338 - 519638" locus_tag="input.path1.gene123" class="clusterblast-orf" id="dummy-2_q14_0_all"  />
<polygon points="465,40 468,40 473,35 468,30 465,30 465,40 " style="fill:white; stroke-width:1; stroke:black; " description="&lt;b&gt;input.path1.gene124&lt;/b&gt;&lt;br&gt;input.path1.gene124&lt;br&gt;Location: 522235 - 523113" locus_tag="input.path1.gene124" class="clusterblast-orf" id="dummy-2_q15_0_all"  />
<polygon points="480,35 485,30 490,30 490,40 485,40 480,35 " style="fill:#d815a7; stroke-width:1; stroke:black; " description="&lt;b&gt;input.path1.gene125&lt;/b&gt;&lt;br&gt;input.path1.gene125&lt;br&gt;Location: 523862 - 525011" locus_tag="input.path1.gene125" class="clusterblast-orf" id="dummy-2_q16_0_all"  />
<polygon points="507,40 516,40 521,35 516,30 507,30 507,40 " style="fill:#c0d815; stroke-width:1; stroke:black; " description="&lt;b&gt;input.path1.gene126&lt;/b&gt;&lt;br&gt;input.path1.gene126&lt;br&gt;Location: 527035 - 528627" locus_tag="input.path1.gene126" class="clusterblast-orf" id="dummy-2_q17_0_all"  />
<polygon points="522,35 527,30 532,30 532,40 527,40 522,35 " style="fill:#15d88f; stroke-width:1; stroke:black; " description="&lt;b&gt;input.path1.gene127&lt;/b&gt;&lt;br&gt;input.path1.gene127&lt;br&gt;Location: 528682 - 529862" locus_tag="input.path1.gene127" class="clusterblast-orf" id="dummy-2_q18_0_all"  />
<polygon points="542,40 553,40 558,35 553,30 542,30 542,40 " style="fill:#2e15d8; stroke-width:1; stroke:black; " description="&lt;b&gt;input.path1.gene128&lt;/b&gt;&lt;br&gt;input.path1.gene128&lt;br&gt;Location: 531015 - 532879" locus_tag="input.path1.gene128" class="clusterblast-orf" id="dummy-2_q19_0_all"  />
<polygon points="588,40 633,40 638,35 633,30 588,30 588,40 " style="fill:#d8155e; stroke-width:1; stroke:black; " description="&lt;b&gt;input.path1.gene129&lt;/b&gt;&lt;br&gt;input.path1.gene129&lt;br&gt;Location: 536321 - 542062" locus_tag="input.path1.gene129" class="clusterblast-orf" id="dummy-2_q20_0_all"  />
<polygon points="639,35 644,30 657,30 657,40 644,40 639,35 " style="fill:white; stroke-width:1; stroke:black; " description="&lt;b&gt;input.path1.gene130&lt;/b&gt;&lt;br&gt;input.path1.gene130&lt;br&gt;Location: 542184 - 544196" locus_tag="input.path1.gene130" class="clusterblast-orf" id="dummy-2_q21_0_all"  />
<polygon points="675,35 680,30 708,30 708,40 680,40 675,35 " style="fill:white; stroke-width:1; stroke:black; " description="&lt;b&gt;input.path1.gene131&lt;/b&gt;&lt;br&gt;input.path1.gene131&lt;br&gt;Location: 546312 - 550038" locus_tag="input.path1.gene131" class="clusterblast-orf" id="dummy-2_q22_0_all"  />
<polygon points="743,40 746,40 751,35 746,30 743,30 743,40 " style="fill:white; stroke-width:1; stroke:black; " description="&lt;b&gt;input.path1.gene132&lt;/b&gt;&lt;br&gt;input.path1.gene132&lt;br&gt;Location: 554032 - 555039" locus_tag="input.path1.gene132" class="clusterblast-orf" id="dummy-2_q23_0_all"  />
<polygon points="757,40 761,40 766,35 761,30 757,30 757,40 " style="fill:white; stroke-width:1; stroke:black; " description="&lt;b&gt;input.path1.gene133&lt;/b&gt;&lt;br&gt;input.path1.gene133&lt;br&gt;Location: 555721 - 556678" locus_tag="input.path1.gene133" class="clusterblast-orf" id="dummy-2_q24_0_all"  />
<polygon points="772,40 775,40 780,35 775,30 772,30 772,40 " style="fill:white; stroke-width:1; stroke:black; " description="&lt;b&gt;input.path1.gene134&lt;/b&gt;&lt;br&gt;input.path1.gene134&lt;br&gt;Location: 557382 - 558270" locus_tag="input.path1.gene134" class="clusterblast-orf" id="dummy-2_q25_0_all"  />
</g>
<g label="BGC0001037" description="BGC0001037_c1: pseurotin/azaspirene (80% of genes show similarity), NRP+Polyketide:Iterative type I polyketide" class="clusterblast-cluster"  >
<text x="5" y="70" class="clusterblast-acc"  >
<a xlink:href="https://mibig.secondarymetabolites.org/go/BGC0001037/1" target="_blank">BGC0001037</a>: pseurotin/azaspirene                                                             (80% of genes show similarity), NRP+Polyketide:Iterative type I polyketide</text>
<line x1="10" y1="85" x2="778.0" y2="85" style="stroke-width:1; stroke:grey; "  />
</g>
<g id="a2_000"  >
<polygon points="308,85 313,80 319,80 319,90 313,90 308,85 " style="fill:#15d8d8; stroke-width:1; stroke:black; " description="&lt;b&gt;AFUA_8G00530&lt;/b&gt;&lt;br&gt;alpha/beta hydrolase&lt;br&gt;Location: 1 - 1338&lt;br&gt;&lt;br&gt;&lt;b&gt;BlastP hit with input.path1.gene112&lt;/b&gt;&lt;br&gt;Percentage identity: 82&lt;br&gt;Percentage coverage: 67&lt;br&gt;BLAST bit score: 377&lt;br&gt;E-value: 2.78e-129" locus_tag="AFUA_8G00530" class="clusterblast-orf" id="dummy-2_h2_1_0"  />
</g>
<g id="a2_001"  >
<polygon points="323,90 426,90 431,85 426,80 323,80 323,90 " style="fill:#7715d8; stroke-width:1; stroke:black; " description="&lt;b&gt;AFUA_8G00540&lt;/b&gt;&lt;br&gt;hybrid PKS-NRPS enzyme&lt;br&gt;Location: 1801 - 14106&lt;br&gt;&lt;br&gt;&lt;b&gt;BlastP hit with input.path1.gene113&lt;/b&gt;&lt;br&gt;Percentage identity: 55&lt;br&gt;Percentage coverage: 115&lt;br&gt;BLAST bit score: 2506&lt;br&gt;E-value: 0.0&lt;br&gt;&lt;br&gt;&lt;b&gt;BlastP hit with input.path1.gene114&lt;/b&gt;&lt;br&gt;Percentage identity: 66&lt;br&gt;Percentage coverage: 100&lt;br&gt;BLAST bit score: 1028&lt;br&gt;E-value: 0.0" locus_tag="AFUA_8G00540" class="clusterblast-orf" id="dummy-2_h2_1_1"  />
</g>
<g id="a2_002"  >
<polygon points="433,85 438,80 440,80 440,90 438,90 433,85 " style="fill:#d85e15; stroke-width:1; stroke:black; " description="&lt;b&gt;AFUA_8G00550&lt;/b&gt;&lt;br&gt;methyltransferase&lt;br&gt;Location: 14341 - 15210&lt;br&gt;&lt;br&gt;&lt;b&gt;BlastP hit with input.path1.gene115&lt;/b&gt;&lt;br&gt;Percentage identity: 65&lt;br&gt;Percentage coverage: 99&lt;br&gt;BLAST bit score: 370&lt;br&gt;E-value: 5.21e-130" locus_tag="AFUA_8G00550" class="clusterblast-orf" id="dummy-2_h2_1_2"  />
</g>
<g id="a2_003"  >
<polygon points="445,90 455,90 460,85 455,80 445,80 445,90 " style="fill:#2ed815; stroke-width:1; stroke:black; " description="&lt;b&gt;AFUA_8G00560&lt;/b&gt;&lt;br&gt;cytochrome P450 oxidoreductase&lt;br&gt;Location: 15749 - 17497&lt;br&gt;&lt;br&gt;&lt;b&gt;BlastP hit with input.path1.gene116&lt;/b&gt;&lt;br&gt;Percentage identity: 66&lt;br&gt;Percentage coverage: 110&lt;br&gt;BLAST bit score: 436&lt;br&gt;E-value: 3.32e-152" locus_tag="AFUA_8G00560" class="clusterblast-orf" id="dummy-2_h2_1_3"  />
</g>
<g id="a2_004"  >
<polygon points="461,85 466,80 471,80 471,90 466,90 461,85 " style="fill:white; stroke-width:1; stroke:black; " description="&lt;b&gt;AFUA_8G00570&lt;/b&gt;&lt;br&gt;alpha/beta hydrolase, putative&lt;br&gt;Location: 17586 - 18799" locus_tag="AFUA_8G00570" class="clusterblast-orf" id="dummy-2_h2_1_4"  />
</g>
</svg>
