<svg xmlns="http://www.w3.org/2000/svg" xmlns:xlink="http://www.w3.org/1999/xlink" version="1.1" x="0" y="0" height="50" width="800" viewBox="0 0 800 50" preserveAspectRatio="none"  >
<g label="Query sequence" class="clusterblast-cluster"  >
<text x="5" y="20" class="clusterblast-acc"  >
Query sequence</text>
<line x1="10" y1="35" x2="778.0" y2="35" style="stroke-width:1; stroke:grey; "  />
<polygon points="0,40 13,40 18,35 13,30 0,30 0,40 " style="fill:white; stroke-width:1; stroke:black; " description="&lt;b&gt;input.path1.gene130&lt;/b&gt;&lt;br&gt;input.path1.gene130&lt;br&gt;Location: 537741 - 538530" locus_tag="input.path1.gene130" class="clusterblast-orf" id="subclusterblast-3_q0_0_all"  />
<polygon points="81,40 89,40 94,35 89,30 81,30 81,40 " style="fill:white; stroke-width:1; stroke:black; " description="&lt;b&gt;input.path1.gene131&lt;/b&gt;&lt;br&gt;input.path1.gene131&lt;br&gt;Location: 541287 - 541868" locus_tag="input.path1.gene131" class="clusterblast-orf" id="subclusterblast-3_q1_0_all"  />
<polygon points="127,35 132,30 143,30 143,40 132,40 127,35 " style="fill:white; stroke-width:1; stroke:black; " description="&lt;b&gt;input.path1.gene132&lt;/b&gt;&lt;br&gt;input.path1.gene132&lt;br&gt;Location: 543307 - 544000" locus_tag="input.path1.gene132" class="clusterblast-orf" id="subclusterblast-3_q2_0_all"  />
<polygon points="179,35 184,30 201,30 201,40 184,40 179,35 " style="fill:white; stroke-width:1; stroke:black; " description="&lt;b&gt;input.path1.gene133&lt;/b&gt;&lt;br&gt;input.path1.gene133&lt;br&gt;Location: 545574 - 546543" locus_tag="input.path1.gene133" class="clusterblast-orf" id="subclusterblast-3_q3_0_all"  />
<polygon points="239,40 255,40 260,35 255,30 239,30 239,40 " style="fill:white; stroke-width:1; stroke:black; " description="&lt;b&gt;input.path1.gene134&lt;/b&gt;&lt;br&gt;input.path1.gene134&lt;br&gt;Location: 548238 - 549125" locus_tag="input.path1.gene134" class="clusterblast-orf" id="subclusterblast-3_q4_0_all"  />
<polygon points="362,40 441,40 446,35 441,30 362,30 362,40 " style="fill:white; stroke-width:1; stroke:black; " description="&lt;b&gt;input.path1.gene135&lt;/b&gt;&lt;br&gt;input.path1.gene135&lt;br&gt;Location: 553624 - 557291" locus_tag="input.path1.gene135" class="clusterblast-orf" id="subclusterblast-3_q5_0_all"  />
<polygon points="561,35 565,30 565,40 561,35 " style="fill:white; stroke-width:1; stroke:black; " description="&lt;b&gt;input.path1.gene136&lt;/b&gt;&lt;br&gt;input.path1.gene136&lt;br&gt;Location: 562326 - 562500" locus_tag="input.path1.gene136" class="clusterblast-orf" id="subclusterblast-3_q6_0_all"  />
<polygon points="646,35 651,30 671,30 671,40 651,40 646,35 " style="fill:white; stroke-width:1; stroke:black; " description="&lt;b&gt;input.path1.gene137&lt;/b&gt;&lt;br&gt;input.path1.gene137&lt;br&gt;Location: 566048 - 567137" locus_tag="input.path1.gene137" class="clusterblast-orf" id="subclusterblast-3_q7_0_all"  />
<polygon points="685,35 690,30 742,30 742,40 690,40 685,35 " style="fill:white; stroke-width:1; stroke:black; " description="&lt;b&gt;input.path1.gene138&lt;/b&gt;&lt;br&gt;input.path1.gene138&lt;br&gt;Location: 567751 - 570246" locus_tag="input.path1.gene138" class="clusterblast-orf" id="subclusterblast-3_q8_0_all"  />
<polygon points="749,40 775,40 780,35 775,30 749,30 749,40 " style="fill:white; stroke-width:1; stroke:black; " description="&lt;b&gt;input.path1.gene139&lt;/b&gt;&lt;br&gt;input.path1.gene139&lt;br&gt;Location: 570544 - 571901" locus_tag="input.path1.gene139" class="clusterblast-orf" id="subclusterblast-3_q9_0_all"  />
</g>
</svg>
