<svg xmlns="http://www.w3.org/2000/svg" xmlns:xlink="http://www.w3.org/1999/xlink" version="1.1" x="0" y="0" height="230" width="800" viewBox="0 0 800 230" preserveAspectRatio="none"  >
<g label="Query sequence" class="clusterblast-cluster"  >
<text x="5" y="20" class="clusterblast-acc"  >
Query sequence</text>
<line x1="10" y1="35" x2="778.0" y2="35" style="stroke-width:1; stroke:grey; "  />
<polygon points="99,40 103,40 108,35 103,30 99,30 99,40 " style="fill:#d81515; stroke-width:1; stroke:black; " description="&lt;b&gt;input.path1.gene685&lt;/b&gt;&lt;br&gt;input.path1.gene685&lt;br&gt;Location: 2209612 - 2210660" locus_tag="input.path1.gene685" class="clusterblast-orf" id="dummy-5_q0_0_all"  />
<polygon points="112,40 117,40 122,35 117,30 112,30 112,40 " style="fill:white; stroke-width:1; stroke:black; " description="&lt;b&gt;input.path1.gene686&lt;/b&gt;&lt;br&gt;input.path1.gene686&lt;br&gt;Location: 2211132 - 2212261" locus_tag="input.path1.gene686" class="clusterblast-orf" id="dummy-5_q1_0_all"  />
<polygon points="176,35 181,30 190,30 190,40 181,40 176,35 " style="fill:#77d815; stroke-width:1; stroke:black; " description="&lt;b&gt;input.path1.gene687&lt;/b&gt;&lt;br&gt;input.path1.gene687&lt;br&gt;Location: 2218287 - 2219943" locus_tag="input.path1.gene687" class="clusterblast-orf" id="dummy-5_q2_0_all"  />
<polygon points="204,40 216,40 221,35 216,30 204,30 204,40 " style="fill:#15d8d8; stroke-width:1; stroke:black; " description="&lt;b&gt;input.path1.gene688&lt;/b&gt;&lt;br&gt;input.path1.gene688&lt;br&gt;Location: 2221421 - 2223425" locus_tag="input.path1.gene688" class="clusterblast-orf" id="dummy-5_q3_0_all"  />
<polygon points="225,35 230,30 238,30 238,40 230,40 225,35 " style="fill:#7715d8; stroke-width:1; stroke:black; " description="&lt;b&gt;input.path1.gene689&lt;/b&gt;&lt;br&gt;input.path1.gene689&lt;br&gt;Location: 2223837 - 2225355" locus_tag="input.path1.gene689" class="clusterblast-orf" id="dummy-5_q4_0_all"  />
<polygon points="247,40 248,40 253,35 248,30 247,30 247,40 " style="fill:#d87715; stroke-width:1; stroke:black; " description="&lt;b&gt;input.path1.gene690&lt;/b&gt;&lt;br&gt;input.path1.gene690&lt;br&gt;Location: 2226358 - 2227008" locus_tag="input.path1.gene690" class="clusterblast-orf" id="dummy-5_q5_0_all"  />
<polygon points="261,35 266,30 369,30 369,40 266,40 261,35 " style="fill:#15d815; stroke-width:1; stroke:black; " description="&lt;b&gt;input.path1.gene691&lt;/b&gt;&lt;br&gt;input.path1.gene691&lt;br&gt;Location: 2227849 - 2240008" locus_tag="input.path1.gene691" class="clusterblast-orf" id="dummy-5_q6_0_all"  />
<polygon points="378,40 380,35 378,30 378,40 " style="fill:white; stroke-width:1; stroke:black; " description="&lt;b&gt;input.path1.gene692&lt;/b&gt;&lt;br&gt;input.path1.gene692&lt;br&gt;Location: 2241072 - 2241352" locus_tag="input.path1.gene692" class="clusterblast-orf" id="dummy-5_q7_0_all"  />
<polygon points="403,35 408,30 413,30 413,40 408,40 403,35 " style="fill:#1577d8; stroke-width:1; stroke:black; " description="&lt;b&gt;input.path1.gene693&lt;/b&gt;&lt;br&gt;input.path1.gene693&lt;br&gt;Location: 2243923 - 2245003" locus_tag="input.path1.gene693" class="clusterblast-orf" id="dummy-5_q8_0_all"  />
<polygon points="449,40 459,40 464,35 459,30 449,30 449,40 " style="fill:#d815d8; stroke-width:1; stroke:black; " description="&lt;b&gt;input.path1.gene694&lt;/b&gt;&lt;br&gt;input.path1.gene694&lt;br&gt;Location: 2249033 - 2250812" locus_tag="input.path1.gene694" class="clusterblast-orf" id="dummy-5_q9_0_all"  />
<polygon points="470,35 475,30 509,30 509,40 475,40 470,35 " style="fill:#d8d815; stroke-width:1; stroke:black; " description="&lt;b&gt;input.path1.gene695&lt;/b&gt;&lt;br&gt;input.path1.gene695&lt;br&gt;Location: 2251467 - 2255850" locus_tag="input.path1.gene695" class="clusterblast-orf" id="dummy-5_q10_0_all"  />
<polygon points="526,40 528,40 533,35 528,30 526,30 526,40 " style="fill:#15d877; stroke-width:1; stroke:black; " description="&lt;b&gt;input.path1.gene696&lt;/b&gt;&lt;br&gt;input.path1.gene696&lt;br&gt;Location: 2257737 - 2258496" locus_tag="input.path1.gene696" class="clusterblast-orf" id="dummy-5_q11_0_all"  />
<polygon points="546,40 569,40 574,35 569,30 546,30 546,40 " style="fill:#1515d8; stroke-width:1; stroke:black; " description="&lt;b&gt;input.path1.gene697&lt;/b&gt;&lt;br&gt;input.path1.gene697&lt;br&gt;Location: 2259956 - 2263161" locus_tag="input.path1.gene697" class="clusterblast-orf" id="dummy-5_q12_0_all"  />
<polygon points="576,35 581,30 643,30 643,40 581,40 576,35 " style="fill:#d81577; stroke-width:1; stroke:black; " description="&lt;b&gt;input.path1.gene698&lt;/b&gt;&lt;br&gt;input.path1.gene698&lt;br&gt;Location: 2263355 - 2270948" locus_tag="input.path1.gene698" class="clusterblast-orf" id="dummy-5_q13_0_all"  />
<polygon points="648,40 651,40 656,35 651,30 648,30 648,40 " style="fill:white; stroke-width:1; stroke:black; " description="&lt;b&gt;input.path1.gene699&lt;/b&gt;&lt;br&gt;input.path1.gene699&lt;br&gt;Location: 2271477 - 2272352" locus_tag="input.path1.gene699" class="clusterblast-orf" id="dummy-5_q14_0_all"  />
<polygon points="664,40 676,40 681,35 676,30 664,30 664,40 " style="fill:white; stroke-width:1; stroke:black; " description="&lt;b&gt;input.path1.gene700&lt;/b&gt;&lt;br&gt;input.path1.gene700&lt;br&gt;Location: 2273264 - 2275144" locus_tag="input.path1.gene700" class="clusterblast-orf" id="dummy-5_q15_0_all"  />
</g>
<g label="NW_020291816" description="NW_020291816 (340965-433020): Aspergillus costaricaensis CBS 115574 unplaced ... (29% of genes show similarity), NRPS,T1PKS" class="clusterblast-cluster"  >
<text x="5" y="70" class="clusterblast-acc"  >
<a xlink:href="https://antismash-db.secondarymetabolites.org/area?record=NW_020291816&amp;start=340965&amp;end=433020" target="_blank">NW_020291816 (340965-433020)</a>: Aspergillus costaricaensis CBS 115574 unplaced ... (29% of genes show similarity), NRPS,T1PKS</text>
<line x1="10" y1="85" x2="778.0" y2="85" style="stroke-width:1; stroke:grey; "  />
</g>
<g id="a5_000"  >
<polygon points="0,90 6,90 11,85 6,80 0,80 0,90 " style="fill:white; stroke-width:1; stroke:black; " description="&lt;b&gt;BO79DRAFT_16992&lt;/b&gt;&lt;br&gt;hypothetical protein&lt;br&gt;Location: 342435 - 343724" locus_tag="BO79DRAFT_16992" class="clusterblast-orf" id="dummy-5_h5_5_0"  />
</g>
<g id="a5_001"  >
<polygon points="52,90 67,90 72,85 67,80 52,80 52,90 " style="fill:white; stroke-width:1; stroke:black; " description="&lt;b&gt;BO79DRAFT_265892&lt;/b&gt;&lt;br&gt;phenylalanine ammonia-lyase&lt;br&gt;Location: 348297 - 350594" locus_tag="BO79DRAFT_265892" class="clusterblast-orf" id="dummy-5_h5_5_1"  />
</g>
<g id="a5_002"  >
<polygon points="99,90 111,90 116,85 111,80 99,80 99,90 " style="fill:white; stroke-width:1; stroke:black; " description="&lt;b&gt;BO79DRAFT_195115&lt;/b&gt;&lt;br&gt;hypothetical protein&lt;br&gt;Location: 353625 - 355564" locus_tag="BO79DRAFT_195115" class="clusterblast-orf" id="dummy-5_h5_5_2"  />
</g>
<g id="a5_003"  >
<polygon points="123,90 128,90 133,85 128,80 123,80 123,90 " style="fill:white; stroke-width:1; stroke:black; " description="&lt;b&gt;BO79DRAFT_195119&lt;/b&gt;&lt;br&gt;hypothetical protein&lt;br&gt;Location: 356290 - 357439" locus_tag="BO79DRAFT_195119" class="clusterblast-orf" id="dummy-5_h5_5_3"  />
</g>
<g id="a5_004"  >
<polygon points="143,90 149,90 154,85 149,80 143,80 143,90 " style="fill:white; stroke-width:1; stroke:black; " description="&lt;b&gt;BO79DRAFT_265903&lt;/b&gt;&lt;br&gt;taurine dioxygenase family protein&lt;br&gt;Location: 358601 - 359824" locus_tag="BO79DRAFT_265903" class="clusterblast-orf" id="dummy-5_h5_5_4"  />
</g>
<g id="a5_005"  >
<polygon points="161,85 166,80 177,80 177,90 166,90 161,85 " style="fill:white; stroke-width:1; stroke:black; " description="&lt;b&gt;BO79DRAFT_245492&lt;/b&gt;&lt;br&gt;sugar transport protein&lt;br&gt;Location: 360651 - 362388" locus_tag="BO79DRAFT_245492" class="clusterblast-orf" id="dummy-5_h5_5_5"  />
</g>
<g id="a5_006"  >
<polygon points="194,90 195,90 200,85 195,80 194,80 194,90 " style="fill:white; stroke-width:1; stroke:black; " description="&lt;b&gt;BO79DRAFT_287628&lt;/b&gt;&lt;br&gt;hypothetical protein&lt;br&gt;Location: 364325 - 365027" locus_tag="BO79DRAFT_287628" class="clusterblast-orf" id="dummy-5_h5_5_6"  />
</g>
<g id="a5_007"  >
<polygon points="207,85 210,80 210,90 207,85 " style="fill:white; stroke-width:1; stroke:black; " description="&lt;b&gt;BO79DRAFT_209148&lt;/b&gt;&lt;br&gt;hypothetical protein&lt;br&gt;Location: 365801 - 366103" locus_tag="BO79DRAFT_209148" class="clusterblast-orf" id="dummy-5_h5_5_7"  />
</g>
<g id="a5_008"  >
<polygon points="223,85 228,80 233,80 233,90 228,90 223,85 " style="fill:#1577d8; stroke-width:1; stroke:black; " description="&lt;b&gt;BO79DRAFT_255249&lt;/b&gt;&lt;br&gt;alcohol dehydrogenase&lt;br&gt;Location: 367656 - 368738&lt;br&gt;&lt;br&gt;&lt;b&gt;BlastP hit with input.path1.gene693&lt;/b&gt;&lt;br&gt;Percentage identity: 74&lt;br&gt;Percentage coverage: 99&lt;br&gt;BLAST bit score: 525&lt;br&gt;E-value: 1.24e-186" locus_tag="BO79DRAFT_255249" class="clusterblast-orf" id="dummy-5_h5_5_8"  />
</g>
<g id="a5_009"  >
<polygon points="253,90 354,90 359,85 354,80 253,80 253,90 " style="fill:#15d815; stroke-width:1; stroke:black; " description="&lt;b&gt;BO79DRAFT_255250&lt;/b&gt;&lt;br&gt;hybrid NRPS/PKS enzyme&lt;br&gt;Location: 370966 - 382905&lt;br&gt;&lt;br&gt;&lt;b&gt;BlastP hit with input.path1.gene691&lt;/b&gt;&lt;br&gt;Percentage identity: 68&lt;br&gt;Percentage coverage: 100&lt;br&gt;BLAST bit score: 5370&lt;br&gt;E-value: 0.0" locus_tag="BO79DRAFT_255250" class="clusterblast-orf" id="dummy-5_h5_5_9"  />
</g>
<g id="a5_0010"  >
<polygon points="369,85 374,80 374,80 374,90 374,90 369,85 " style="fill:#d87715; stroke-width:1; stroke:black; " description="&lt;b&gt;BO79DRAFT_255251&lt;/b&gt;&lt;br&gt;hypothetical protein&lt;br&gt;Location: 384020 - 384633&lt;br&gt;&lt;br&gt;&lt;b&gt;BlastP hit with input.path1.gene690&lt;/b&gt;&lt;br&gt;Percentage identity: 67&lt;br&gt;Percentage coverage: 97&lt;br&gt;BLAST bit score: 252&lt;br&gt;E-value: 2.11e-84" locus_tag="BO79DRAFT_255251" class="clusterblast-orf" id="dummy-5_h5_5_10"  />
</g>
<g id="a5_0011"  >
<polygon points="383,90 393,90 398,85 393,80 383,80 383,90 " style="fill:#7715d8; stroke-width:1; stroke:black; " description="&lt;b&gt;BO79DRAFT_255252&lt;/b&gt;&lt;br&gt;hypothetical protein&lt;br&gt;Location: 385619 - 387333&lt;br&gt;&lt;br&gt;&lt;b&gt;BlastP hit with input.path1.gene689&lt;/b&gt;&lt;br&gt;Percentage identity: 57&lt;br&gt;Percentage coverage: 76&lt;br&gt;BLAST bit score: 406&lt;br&gt;E-value: 3.92e-135" locus_tag="BO79DRAFT_255252" class="clusterblast-orf" id="dummy-5_h5_5_11"  />
</g>
<g id="a5_0012"  >
<polygon points="403,85 408,80 418,80 418,90 408,90 403,85 " style="fill:#15d8d8; stroke-width:1; stroke:black; " description="&lt;b&gt;BO79DRAFT_265908&lt;/b&gt;&lt;br&gt;cytochrome P450 monooxygenase CYP52G11&lt;br&gt;Location: 387929 - 389578&lt;br&gt;&lt;br&gt;&lt;b&gt;BlastP hit with input.path1.gene688&lt;/b&gt;&lt;br&gt;Percentage identity: 66&lt;br&gt;Percentage coverage: 93&lt;br&gt;BLAST bit score: 706&lt;br&gt;E-value: 5.11e-252" locus_tag="BO79DRAFT_265908" class="clusterblast-orf" id="dummy-5_h5_5_12"  />
</g>
<g id="a5_0013"  >
<polygon points="463,90 478,90 483,85 478,80 463,80 463,90 " style="fill:#d815d8; stroke-width:1; stroke:black; " description="&lt;b&gt;BO79DRAFT_173383&lt;/b&gt;&lt;br&gt;hypothetical protein&lt;br&gt;Location: 394588 - 396834&lt;br&gt;&lt;br&gt;&lt;b&gt;BlastP hit with input.path1.gene694&lt;/b&gt;&lt;br&gt;Percentage identity: 54&lt;br&gt;Percentage coverage: 106&lt;br&gt;BLAST bit score: 555&lt;br&gt;E-value: 2.68e-189" locus_tag="BO79DRAFT_173383" class="clusterblast-orf" id="dummy-5_h5_5_13"  />
</g>
<g id="a5_0014"  >
<polygon points="488,85 493,80 537,80 537,90 493,90 488,85 " style="fill:#d8d815; stroke-width:1; stroke:black; " description="&lt;b&gt;BO79DRAFT_265916&lt;/b&gt;&lt;br&gt;aureobasidin A1 biosynthesis complex&lt;br&gt;Location: 397507 - 403020&lt;br&gt;&lt;br&gt;&lt;b&gt;BlastP hit with input.path1.gene695&lt;/b&gt;&lt;br&gt;Percentage identity: 42&lt;br&gt;Percentage coverage: 48&lt;br&gt;BLAST bit score: 495&lt;br&gt;E-value: 3.38e-146" locus_tag="BO79DRAFT_265916" class="clusterblast-orf" id="dummy-5_h5_5_14"  />
</g>
<g id="a5_0015"  >
<polygon points="548,90 552,90 557,85 552,80 548,80 548,90 " style="fill:#15d877; stroke-width:1; stroke:black; " description="&lt;b&gt;BO79DRAFT_217907&lt;/b&gt;&lt;br&gt;hypothetical protein&lt;br&gt;Location: 404204 - 405201&lt;br&gt;&lt;br&gt;&lt;b&gt;BlastP hit with input.path1.gene696&lt;/b&gt;&lt;br&gt;Percentage identity: 44&lt;br&gt;Percentage coverage: 121&lt;br&gt;BLAST bit score: 181&lt;br&gt;E-value: 9.25e-55" locus_tag="BO79DRAFT_217907" class="clusterblast-orf" id="dummy-5_h5_5_15"  />
</g>
<g id="a5_0016"  >
<polygon points="567,90 573,90 578,85 573,80 567,80 567,90 " style="fill:white; stroke-width:1; stroke:black; " description="&lt;b&gt;BO79DRAFT_228629&lt;/b&gt;&lt;br&gt;hypothetical protein&lt;br&gt;Location: 406295 - 407571" locus_tag="BO79DRAFT_228629" class="clusterblast-orf" id="dummy-5_h5_5_16"  />
</g>
<g id="a5_0017"  >
<polygon points="607,85 612,80 612,80 612,90 612,90 607,85 " style="fill:white; stroke-width:1; stroke:black; " description="&lt;b&gt;BO79DRAFT_255258&lt;/b&gt;&lt;br&gt;hypothetical protein&lt;br&gt;Location: 410861 - 411385" locus_tag="BO79DRAFT_255258" class="clusterblast-orf" id="dummy-5_h5_5_17"  />
</g>
<g id="a5_0018"  >
<polygon points="620,90 630,90 635,85 630,80 620,80 620,90 " style="fill:white; stroke-width:1; stroke:black; " description="&lt;b&gt;BO79DRAFT_265922&lt;/b&gt;&lt;br&gt;quinate permease&lt;br&gt;Location: 412298 - 413966" locus_tag="BO79DRAFT_265922" class="clusterblast-orf" id="dummy-5_h5_5_18"  />
</g>
<g id="a5_0019"  >
<polygon points="644,90 648,90 653,85 648,80 644,80 644,90 " style="fill:white; stroke-width:1; stroke:black; " description="&lt;b&gt;BO79DRAFT_217911&lt;/b&gt;&lt;br&gt;hypothetical protein&lt;br&gt;Location: 415034 - 416027" locus_tag="BO79DRAFT_217911" class="clusterblast-orf" id="dummy-5_h5_5_19"  />
</g>
<g id="a5_0020"  >
<polygon points="670,85 675,80 676,80 676,90 675,90 670,85 " style="fill:white; stroke-width:1; stroke:black; " description="&lt;b&gt;BO79DRAFT_147972&lt;/b&gt;&lt;br&gt;hypothetical protein&lt;br&gt;Location: 417922 - 418621" locus_tag="BO79DRAFT_147972" class="clusterblast-orf" id="dummy-5_h5_5_20"  />
</g>
<g id="a5_0021"  >
<polygon points="685,85 690,80 694,80 694,90 690,90 685,85 " style="fill:white; stroke-width:1; stroke:black; " description="&lt;b&gt;BO79DRAFT_209149&lt;/b&gt;&lt;br&gt;oxidoreductase&lt;br&gt;Location: 419588 - 420643" locus_tag="BO79DRAFT_209149" class="clusterblast-orf" id="dummy-5_h5_5_21"  />
</g>
<g id="a5_0022"  >
<polygon points="702,85 707,80 707,80 707,90 707,90 702,85 " style="fill:white; stroke-width:1; stroke:black; " description="&lt;b&gt;BO79DRAFT_209150&lt;/b&gt;&lt;br&gt;isochorismatase family hydrolase&lt;br&gt;Location: 421537 - 422148" locus_tag="BO79DRAFT_209150" class="clusterblast-orf" id="dummy-5_h5_5_22"  />
</g>
<g id="a5_0023"  >
<polygon points="720,90 726,90 731,85 726,80 720,80 720,90 " style="fill:white; stroke-width:1; stroke:black; " description="&lt;b&gt;BO79DRAFT_287633&lt;/b&gt;&lt;br&gt;hypothetical protein&lt;br&gt;Location: 423614 - 424795" locus_tag="BO79DRAFT_287633" class="clusterblast-orf" id="dummy-5_h5_5_23"  />
</g>
<g id="a5_0024"  >
<polygon points="734,90 734,90 739,85 734,80 734,80 734,90 " style="fill:white; stroke-width:1; stroke:black; " description="&lt;b&gt;BO79DRAFT_265935&lt;/b&gt;&lt;br&gt;UBC-like protein&lt;br&gt;Location: 425186 - 425764" locus_tag="BO79DRAFT_265935" class="clusterblast-orf" id="dummy-5_h5_5_24"  />
</g>
<g id="a5_0025"  >
<polygon points="746,85 751,80 760,80 760,90 751,90 746,85 " style="fill:white; stroke-width:1; stroke:black; " description="&lt;b&gt;BO79DRAFT_265936&lt;/b&gt;&lt;br&gt;acetylglutamate kinase&lt;br&gt;Location: 426536 - 428041" locus_tag="BO79DRAFT_265936" class="clusterblast-orf" id="dummy-5_h5_5_25"  />
</g>
<g id="a5_0026"  >
<polygon points="762,85 767,80 780,80 780,90 767,90 762,85 " style="fill:white; stroke-width:1; stroke:black; " description="&lt;b&gt;BO79DRAFT_228637&lt;/b&gt;&lt;br&gt;hypothetical protein&lt;br&gt;Location: 428358 - 430281" locus_tag="BO79DRAFT_228637" class="clusterblast-orf" id="dummy-5_h5_5_26"  />
</g>
</svg>
