<svg xmlns="http://www.w3.org/2000/svg" xmlns:xlink="http://www.w3.org/1999/xlink" version="1.1" x="0" y="0" height="230" width="800" viewBox="0 0 800 230" preserveAspectRatio="none"  >
<g label="Query sequence" class="clusterblast-cluster"  >
<text x="5" y="20" class="clusterblast-acc"  >
Query sequence</text>
<line x1="10" y1="35" x2="778.0" y2="35" style="stroke-width:1; stroke:grey; "  />
<polygon points="162,35 167,30 169,30 169,40 167,40 162,35 " style="fill:#d81515; stroke-width:1; stroke:black; " description="&lt;b&gt;input.path1.gene280&lt;/b&gt;&lt;br&gt;input.path1.gene280&lt;br&gt;Location: 865672 - 866410" locus_tag="input.path1.gene280" class="clusterblast-orf" id="dummy-3_q0_0_all"  />
<polygon points="182,40 215,40 220,35 215,30 182,30 182,40 " style="fill:#15d863; stroke-width:1; stroke:black; " description="&lt;b&gt;input.path1.gene281&lt;/b&gt;&lt;br&gt;input.path1.gene281&lt;br&gt;Location: 867647 - 871268" locus_tag="input.path1.gene281" class="clusterblast-orf" id="dummy-3_q1_0_all"  />
<polygon points="230,35 235,30 243,30 243,40 235,40 230,35 " style="fill:white; stroke-width:1; stroke:black; " description="&lt;b&gt;input.path1.gene282&lt;/b&gt;&lt;br&gt;input.path1.gene282&lt;br&gt;Location: 872266 - 873532" locus_tag="input.path1.gene282" class="clusterblast-orf" id="dummy-3_q2_0_all"  />
<polygon points="251,35 256,30 273,30 273,40 256,40 251,35 " style="fill:white; stroke-width:1; stroke:black; " description="&lt;b&gt;input.path1.gene283&lt;/b&gt;&lt;br&gt;input.path1.gene283&lt;br&gt;Location: 874287 - 876428" locus_tag="input.path1.gene283" class="clusterblast-orf" id="dummy-3_q3_0_all"  />
<polygon points="287,40 292,40 297,35 292,30 287,30 287,40 " style="fill:white; stroke-width:1; stroke:black; " description="&lt;b&gt;input.path1.gene284&lt;/b&gt;&lt;br&gt;input.path1.gene284&lt;br&gt;Location: 877714 - 878758" locus_tag="input.path1.gene284" class="clusterblast-orf" id="dummy-3_q4_0_all"  />
<polygon points="298,35 303,30 310,30 310,40 303,40 298,35 " style="fill:#1563d8; stroke-width:1; stroke:black; " description="&lt;b&gt;input.path1.gene285&lt;/b&gt;&lt;br&gt;input.path1.gene285&lt;br&gt;Location: 878844 - 879973" locus_tag="input.path1.gene285" class="clusterblast-orf" id="dummy-3_q5_0_all"  />
<polygon points="317,40 337,40 342,35 337,30 317,30 317,40 " style="fill:white; stroke-width:1; stroke:black; " description="&lt;b&gt;input.path1.gene286&lt;/b&gt;&lt;br&gt;input.path1.gene286&lt;br&gt;Location: 880643 - 883057" locus_tag="input.path1.gene286" class="clusterblast-orf" id="dummy-3_q6_0_all"  />
<polygon points="344,35 349,30 352,30 352,40 349,40 344,35 " style="fill:white; stroke-width:1; stroke:black; " description="&lt;b&gt;input.path1.gene287&lt;/b&gt;&lt;br&gt;input.path1.gene287&lt;br&gt;Location: 883230 - 884037" locus_tag="input.path1.gene287" class="clusterblast-orf" id="dummy-3_q7_0_all"  />
<polygon points="356,40 406,40 411,35 406,30 356,30 356,40 " style="fill:#b115d8; stroke-width:1; stroke:black; " description="&lt;b&gt;input.path1.gene288&lt;/b&gt;&lt;br&gt;input.path1.gene288&lt;br&gt;Location: 884413 - 889766" locus_tag="input.path1.gene288" class="clusterblast-orf" id="dummy-3_q8_0_all"  />
<polygon points="439,40 466,40 471,35 466,30 439,30 439,40 " style="fill:white; stroke-width:1; stroke:black; " description="&lt;b&gt;input.path1.gene289&lt;/b&gt;&lt;br&gt;input.path1.gene289&lt;br&gt;Location: 892410 - 895469" locus_tag="input.path1.gene289" class="clusterblast-orf" id="dummy-3_q9_0_all"  />
<polygon points="488,40 496,40 501,35 496,30 488,30 488,40 " style="fill:white; stroke-width:1; stroke:black; " description="&lt;b&gt;input.path1.gene290&lt;/b&gt;&lt;br&gt;input.path1.gene290&lt;br&gt;Location: 897195 - 898374" locus_tag="input.path1.gene290" class="clusterblast-orf" id="dummy-3_q10_0_all"  />
<polygon points="521,40 531,40 536,35 531,30 521,30 521,40 " style="fill:white; stroke-width:1; stroke:black; " description="&lt;b&gt;input.path1.gene291&lt;/b&gt;&lt;br&gt;input.path1.gene291&lt;br&gt;Location: 900299 - 901811" locus_tag="input.path1.gene291" class="clusterblast-orf" id="dummy-3_q11_0_all"  />
<polygon points="549,35 554,30 578,30 578,40 554,40 549,35 " style="fill:#b1d815; stroke-width:1; stroke:black; " description="&lt;b&gt;input.path1.gene292&lt;/b&gt;&lt;br&gt;input.path1.gene292&lt;br&gt;Location: 903051 - 905839" locus_tag="input.path1.gene292" class="clusterblast-orf" id="dummy-3_q12_0_all"  />
<polygon points="600,35 605,30 617,30 617,40 605,40 600,35 " style="fill:white; stroke-width:1; stroke:black; " description="&lt;b&gt;input.path1.gene293&lt;/b&gt;&lt;br&gt;input.path1.gene293&lt;br&gt;Location: 907955 - 909648" locus_tag="input.path1.gene293" class="clusterblast-orf" id="dummy-3_q13_0_all"  />
</g>
<g label="NC_054859" description="NC_054859 (3374101-3450218): Aspergillus puulaauensis MK2 DNA, chromosome 3, ... (7% of genes show similarity), NRPS" class="clusterblast-cluster"  >
<text x="5" y="70" class="clusterblast-acc"  >
<a xlink:href="https://antismash-db.secondarymetabolites.org/area?record=NC_054859&amp;start=3374101&amp;end=3450218" target="_blank">NC_054859 (3374101-3450218)</a>: Aspergillus puulaauensis MK2 DNA, chromosome 3, ... (7% of genes show similarity), NRPS</text>
<line x1="10" y1="85" x2="778.0" y2="85" style="stroke-width:1; stroke:grey; "  />
</g>
<g id="a3_000"  >
<polygon points="0,85 5,80 12,80 12,90 5,90 0,85 " style="fill:white; stroke-width:1; stroke:black; " description="&lt;b&gt;APUU_31387S&lt;/b&gt;&lt;br&gt;uncharacterized protein&lt;br&gt;Location: 3450101 - 3448867" locus_tag="APUU_31387S" class="clusterblast-orf" id="dummy-3_h3_9_0"  />
</g>
<g id="a3_001"  >
<polygon points="15,90 30,90 35,85 30,80 15,80 15,90 " style="fill:white; stroke-width:1; stroke:black; " description="&lt;b&gt;APUU_31386A&lt;/b&gt;&lt;br&gt;uncharacterized protein&lt;br&gt;Location: 3448611 - 3446686" locus_tag="APUU_31386A" class="clusterblast-orf" id="dummy-3_h3_9_1"  />
</g>
<g id="a3_002"  >
<polygon points="38,85 43,80 48,80 48,90 43,90 38,85 " style="fill:white; stroke-width:1; stroke:black; " description="&lt;b&gt;APUU_31385S&lt;/b&gt;&lt;br&gt;uncharacterized protein&lt;br&gt;Location: 3446344 - 3445430" locus_tag="APUU_31385S" class="clusterblast-orf" id="dummy-3_h3_9_2"  />
</g>
<g id="a3_003"  >
<polygon points="52,85 57,80 66,80 66,90 57,90 52,85 " style="fill:white; stroke-width:1; stroke:black; " description="&lt;b&gt;APUU_31384S&lt;/b&gt;&lt;br&gt;uncharacterized protein&lt;br&gt;Location: 3444994 - 3443699" locus_tag="APUU_31384S" class="clusterblast-orf" id="dummy-3_h3_9_3"  />
</g>
<g id="a3_004"  >
<polygon points="76,85 81,80 90,80 90,90 81,90 76,85 " style="fill:white; stroke-width:1; stroke:black; " description="&lt;b&gt;APUU_31383S&lt;/b&gt;&lt;br&gt;uncharacterized protein&lt;br&gt;Location: 3442701 - 3441360" locus_tag="APUU_31383S" class="clusterblast-orf" id="dummy-3_h3_9_4"  />
</g>
<g id="a3_005"  >
<polygon points="101,90 115,90 120,85 115,80 101,80 101,90 " style="fill:white; stroke-width:1; stroke:black; " description="&lt;b&gt;APUU_31382A&lt;/b&gt;&lt;br&gt;uncharacterized protein&lt;br&gt;Location: 3440355 - 3438490" locus_tag="APUU_31382A" class="clusterblast-orf" id="dummy-3_h3_9_5"  />
</g>
<g id="a3_006"  >
<polygon points="123,85 128,80 132,80 132,90 128,90 123,85 " style="fill:white; stroke-width:1; stroke:black; " description="&lt;b&gt;APUU_31381S&lt;/b&gt;&lt;br&gt;uncharacterized protein&lt;br&gt;Location: 3438219 - 3437272" locus_tag="APUU_31381S" class="clusterblast-orf" id="dummy-3_h3_9_6"  />
</g>
<g id="a3_007"  >
<polygon points="138,90 141,90 146,85 141,80 138,80 138,90 " style="fill:white; stroke-width:1; stroke:black; " description="&lt;b&gt;APUU_31380A&lt;/b&gt;&lt;br&gt;uncharacterized protein&lt;br&gt;Location: 3436744 - 3435971" locus_tag="APUU_31380A" class="clusterblast-orf" id="dummy-3_h3_9_7"  />
</g>
<g id="a3_008"  >
<polygon points="148,85 153,80 161,80 161,90 153,90 148,85 " style="fill:white; stroke-width:1; stroke:black; " description="&lt;b&gt;APUU_31379S&lt;/b&gt;&lt;br&gt;uncharacterized protein&lt;br&gt;Location: 3435739 - 3434477" locus_tag="APUU_31379S" class="clusterblast-orf" id="dummy-3_h3_9_8"  />
</g>
<g id="a3_009"  >
<polygon points="168,90 178,90 183,85 178,80 168,80 168,90 " style="fill:white; stroke-width:1; stroke:black; " description="&lt;b&gt;APUU_31378A&lt;/b&gt;&lt;br&gt;uncharacterized protein&lt;br&gt;Location: 3433823 - 3432433" locus_tag="APUU_31378A" class="clusterblast-orf" id="dummy-3_h3_9_9"  />
</g>
<g id="a3_0010"  >
<polygon points="185,90 204,90 209,85 204,80 185,80 185,90 " style="fill:white; stroke-width:1; stroke:black; " description="&lt;b&gt;APUU_31377A&lt;/b&gt;&lt;br&gt;uncharacterized protein&lt;br&gt;Location: 3432236 - 3429925" locus_tag="APUU_31377A" class="clusterblast-orf" id="dummy-3_h3_9_10"  />
</g>
<g id="a3_0011"  >
<polygon points="210,85 215,80 227,80 227,90 215,90 210,85 " style="fill:white; stroke-width:1; stroke:black; " description="&lt;b&gt;APUU_31376S&lt;/b&gt;&lt;br&gt;uncharacterized protein&lt;br&gt;Location: 3429837 - 3428143" locus_tag="APUU_31376S" class="clusterblast-orf" id="dummy-3_h3_9_11"  />
</g>
<g id="a3_0012"  >
<polygon points="232,85 237,80 244,80 244,90 237,90 232,85 " style="fill:white; stroke-width:1; stroke:black; " description="&lt;b&gt;APUU_31375S&lt;/b&gt;&lt;br&gt;uncharacterized protein&lt;br&gt;Location: 3427677 - 3426541" locus_tag="APUU_31375S" class="clusterblast-orf" id="dummy-3_h3_9_12"  />
</g>
<g id="a3_0013"  >
<polygon points="254,85 259,80 296,80 296,90 259,90 254,85 " style="fill:white; stroke-width:1; stroke:black; " description="&lt;b&gt;APUU_31374S&lt;/b&gt;&lt;br&gt;uncharacterized protein&lt;br&gt;Location: 3425497 - 3421506" locus_tag="APUU_31374S" class="clusterblast-orf" id="dummy-3_h3_9_13"  />
</g>
<g id="a3_0014"  >
<polygon points="309,90 471,90 476,85 471,80 309,80 309,90 " style="fill:#b115d8; stroke-width:1; stroke:black; " description="&lt;b&gt;APUU_31373A&lt;/b&gt;&lt;br&gt;non-ribosomal peptide synthetase&lt;br&gt;Location: 3420218 - 3404102&lt;br&gt;&lt;br&gt;&lt;b&gt;BlastP hit with input.path1.gene288&lt;/b&gt;&lt;br&gt;Percentage identity: 31&lt;br&gt;Percentage coverage: 62&lt;br&gt;BLAST bit score: 357&lt;br&gt;E-value: 8.39e-99" locus_tag="APUU_31373A" class="clusterblast-orf" id="dummy-3_h3_9_14"  />
</g>
<g id="a3_0015"  >
<polygon points="485,85 490,80 493,80 493,90 490,90 485,85 " style="fill:white; stroke-width:1; stroke:black; " description="&lt;b&gt;APUU_31372S&lt;/b&gt;&lt;br&gt;uncharacterized protein&lt;br&gt;Location: 3403266 - 3402434" locus_tag="APUU_31372S" class="clusterblast-orf" id="dummy-3_h3_9_15"  />
</g>
<g id="a3_0016"  >
<polygon points="502,85 507,80 510,80 510,90 507,90 502,85 " style="fill:white; stroke-width:1; stroke:black; " description="&lt;b&gt;APUU_31371S&lt;/b&gt;&lt;br&gt;uncharacterized protein&lt;br&gt;Location: 3401651 - 3400863" locus_tag="APUU_31371S" class="clusterblast-orf" id="dummy-3_h3_9_16"  />
</g>
<g id="a3_0017"  >
<polygon points="524,85 529,80 529,80 529,90 529,90 524,85 " style="fill:white; stroke-width:1; stroke:black; " description="&lt;b&gt;APUU_31370S&lt;/b&gt;&lt;br&gt;uncharacterized protein&lt;br&gt;Location: 3399475 - 3398966" locus_tag="APUU_31370S" class="clusterblast-orf" id="dummy-3_h3_9_17"  />
</g>
<g id="a3_0018"  >
<polygon points="551,85 556,80 580,80 580,90 556,90 551,85 " style="fill:white; stroke-width:1; stroke:black; " description="&lt;b&gt;APUU_31369S&lt;/b&gt;&lt;br&gt;uncharacterized protein&lt;br&gt;Location: 3396919 - 3394067" locus_tag="APUU_31369S" class="clusterblast-orf" id="dummy-3_h3_9_18"  />
</g>
<g id="a3_0019"  >
<polygon points="586,85 591,80 595,80 595,90 591,90 586,85 " style="fill:white; stroke-width:1; stroke:black; " description="&lt;b&gt;APUU_31368S&lt;/b&gt;&lt;br&gt;uncharacterized protein&lt;br&gt;Location: 3393544 - 3392636" locus_tag="APUU_31368S" class="clusterblast-orf" id="dummy-3_h3_9_19"  />
</g>
<g id="a3_0020"  >
<polygon points="598,85 603,80 610,80 610,90 603,90 598,85 " style="fill:white; stroke-width:1; stroke:black; " description="&lt;b&gt;APUU_31367S&lt;/b&gt;&lt;br&gt;uncharacterized protein&lt;br&gt;Location: 3392368 - 3391146" locus_tag="APUU_31367S" class="clusterblast-orf" id="dummy-3_h3_9_20"  />
</g>
<g id="a3_0021"  >
<polygon points="623,90 651,90 656,85 651,80 623,80 623,90 " style="fill:white; stroke-width:1; stroke:black; " description="&lt;b&gt;APUU_31366A&lt;/b&gt;&lt;br&gt;uncharacterized protein&lt;br&gt;Location: 3389913 - 3386707" locus_tag="APUU_31366A" class="clusterblast-orf" id="dummy-3_h3_9_21"  />
</g>
<g id="a3_0022"  >
<polygon points="659,85 664,80 675,80 675,90 664,90 659,85 " style="fill:white; stroke-width:1; stroke:black; " description="&lt;b&gt;APUU_31365S&lt;/b&gt;&lt;br&gt;uncharacterized protein&lt;br&gt;Location: 3386442 - 3384927" locus_tag="APUU_31365S" class="clusterblast-orf" id="dummy-3_h3_9_22"  />
</g>
<g id="a3_0023"  >
<polygon points="680,90 693,90 698,85 693,80 680,80 680,90 " style="fill:white; stroke-width:1; stroke:black; " description="&lt;b&gt;APUU_31364A&lt;/b&gt;&lt;br&gt;uncharacterized protein&lt;br&gt;Location: 3384449 - 3382746" locus_tag="APUU_31364A" class="clusterblast-orf" id="dummy-3_h3_9_23"  />
</g>
<g id="a3_0024"  >
<polygon points="708,85 713,80 731,80 731,90 713,90 708,85 " style="fill:#b1d815; stroke-width:1; stroke:black; " description="&lt;b&gt;APUU_31363S&lt;/b&gt;&lt;br&gt;uncharacterized protein&lt;br&gt;Location: 3381757 - 3379481&lt;br&gt;&lt;br&gt;&lt;b&gt;BlastP hit with input.path1.gene292&lt;/b&gt;&lt;br&gt;Percentage identity: 33&lt;br&gt;Percentage coverage: 67&lt;br&gt;BLAST bit score: 257&lt;br&gt;E-value: 3.37e-73" locus_tag="APUU_31363S" class="clusterblast-orf" id="dummy-3_h3_9_24"  />
</g>
<g id="a3_0025"  >
<polygon points="738,90 755,90 760,85 755,80 738,80 738,90 " style="fill:white; stroke-width:1; stroke:black; " description="&lt;b&gt;APUU_31362A&lt;/b&gt;&lt;br&gt;uncharacterized protein&lt;br&gt;Location: 3378883 - 3376686" locus_tag="APUU_31362A" class="clusterblast-orf" id="dummy-3_h3_9_25"  />
</g>
<g id="a3_0026"  >
<polygon points="764,85 769,80 779,80 779,90 769,90 764,85 " style="fill:white; stroke-width:1; stroke:black; " description="&lt;b&gt;APUU_31361S&lt;/b&gt;&lt;br&gt;uncharacterized protein&lt;br&gt;Location: 3376366 - 3374835" locus_tag="APUU_31361S" class="clusterblast-orf" id="dummy-3_h3_9_26"  />
</g>
</svg>
