<svg xmlns="http://www.w3.org/2000/svg" xmlns:xlink="http://www.w3.org/1999/xlink" version="1.1" x="0" y="0" height="230" width="800" viewBox="0 0 800 230" preserveAspectRatio="none"  >
<g label="Query sequence" class="clusterblast-cluster"  >
<text x="5" y="20" class="clusterblast-acc"  >
Query sequence</text>
<line x1="10" y1="35" x2="778.0" y2="35" style="stroke-width:1; stroke:grey; "  />
<polygon points="26,40 45,40 50,35 45,30 26,30 26,40 " style="fill:#d81515; stroke-width:1; stroke:black; " description="&lt;b&gt;input.path1.gene249&lt;/b&gt;&lt;br&gt;input.path1.gene249&lt;br&gt;Location: 802097 - 803861" locus_tag="input.path1.gene249" class="clusterblast-orf" id="dummy-3_q0_0_all"  />
<polygon points="54,35 59,30 65,30 65,40 59,40 54,35 " style="fill:#15d815; stroke-width:1; stroke:black; " description="&lt;b&gt;input.path1.gene250&lt;/b&gt;&lt;br&gt;input.path1.gene250&lt;br&gt;Location: 804183 - 805017" locus_tag="input.path1.gene250" class="clusterblast-orf" id="dummy-3_q1_0_all"  />
<polygon points="94,40 108,40 113,35 108,30 94,30 94,40 " style="fill:#1597d8; stroke-width:1; stroke:black; " description="&lt;b&gt;input.path1.gene251&lt;/b&gt;&lt;br&gt;input.path1.gene251&lt;br&gt;Location: 807162 - 808547" locus_tag="input.path1.gene251" class="clusterblast-orf" id="dummy-3_q2_0_all"  />
<polygon points="114,35 119,30 124,30 124,40 119,40 114,35 " style="fill:#9715d8; stroke-width:1; stroke:black; " description="&lt;b&gt;input.path1.gene252&lt;/b&gt;&lt;br&gt;input.path1.gene252&lt;br&gt;Location: 808602 - 809344" locus_tag="input.path1.gene252" class="clusterblast-orf" id="dummy-3_q3_0_all"  />
<polygon points="132,40 156,40 161,35 156,30 132,30 132,40 " style="fill:#d89715; stroke-width:1; stroke:black; " description="&lt;b&gt;input.path1.gene253&lt;/b&gt;&lt;br&gt;input.path1.gene253&lt;br&gt;Location: 809932 - 812074" locus_tag="input.path1.gene253" class="clusterblast-orf" id="dummy-3_q4_0_all"  />
<polygon points="172,40 187,40 192,35 187,30 172,30 172,40 " style="fill:#15d897; stroke-width:1; stroke:black; " description="&lt;b&gt;input.path1.gene254&lt;/b&gt;&lt;br&gt;input.path1.gene254&lt;br&gt;Location: 812908 - 814394" locus_tag="input.path1.gene254" class="clusterblast-orf" id="dummy-3_q5_0_all"  />
<polygon points="199,40 204,40 209,35 204,30 199,30 199,40 " style="fill:#15d897; stroke-width:1; stroke:black; " description="&lt;b&gt;input.path1.gene255&lt;/b&gt;&lt;br&gt;input.path1.gene255&lt;br&gt;Location: 814914 - 815635" locus_tag="input.path1.gene255" class="clusterblast-orf" id="dummy-3_q6_0_all"  />
<polygon points="221,35 226,30 263,30 263,40 226,40 221,35 " style="fill:#1515d8; stroke-width:1; stroke:black; " description="&lt;b&gt;input.path1.gene256&lt;/b&gt;&lt;br&gt;input.path1.gene256&lt;br&gt;Location: 816545 - 819667" locus_tag="input.path1.gene256" class="clusterblast-orf" id="dummy-3_q7_0_all"  />
<polygon points="284,35 289,30 492,30 492,40 289,40 284,35 " style="fill:#d81597; stroke-width:1; stroke:black; " description="&lt;b&gt;input.path1.gene257&lt;/b&gt;&lt;br&gt;input.path1.gene257&lt;br&gt;Location: 821211 - 836665" locus_tag="input.path1.gene257" class="clusterblast-orf" id="dummy-3_q8_0_all"  />
<polygon points="539,40 559,40 564,35 559,30 539,30 539,40 " style="fill:#97d815; stroke-width:1; stroke:black; " description="&lt;b&gt;input.path1.gene258&lt;/b&gt;&lt;br&gt;input.path1.gene258&lt;br&gt;Location: 840156 - 841993" locus_tag="input.path1.gene258" class="clusterblast-orf" id="dummy-3_q9_0_all"  />
<polygon points="616,40 651,40 656,35 651,30 616,30 616,40 " style="fill:white; stroke-width:1; stroke:black; " description="&lt;b&gt;input.path1.gene259&lt;/b&gt;&lt;br&gt;input.path1.gene259&lt;br&gt;Location: 845812 - 848779" locus_tag="input.path1.gene259" class="clusterblast-orf" id="dummy-3_q10_0_all"  />
<polygon points="656,35 661,30 667,30 667,40 661,40 656,35 " style="fill:white; stroke-width:1; stroke:black; " description="&lt;b&gt;input.path1.gene260&lt;/b&gt;&lt;br&gt;input.path1.gene260&lt;br&gt;Location: 848775 - 849618" locus_tag="input.path1.gene260" class="clusterblast-orf" id="dummy-3_q11_0_all"  />
<polygon points="691,40 704,40 709,35 704,30 691,30 691,40 " style="fill:white; stroke-width:1; stroke:black; " description="&lt;b&gt;input.path1.gene261&lt;/b&gt;&lt;br&gt;input.path1.gene261&lt;br&gt;Location: 851407 - 852748" locus_tag="input.path1.gene261" class="clusterblast-orf" id="dummy-3_q12_0_all"  />
<polygon points="709,35 714,30 726,30 726,40 714,40 709,35 " style="fill:white; stroke-width:1; stroke:black; " description="&lt;b&gt;input.path1.gene262&lt;/b&gt;&lt;br&gt;input.path1.gene262&lt;br&gt;Location: 852744 - 853967" locus_tag="input.path1.gene262" class="clusterblast-orf" id="dummy-3_q13_0_all"  />
<polygon points="736,40 748,40 753,35 748,30 736,30 736,40 " style="fill:white; stroke-width:1; stroke:black; " description="&lt;b&gt;input.path1.gene263&lt;/b&gt;&lt;br&gt;input.path1.gene263&lt;br&gt;Location: 854753 - 856015" locus_tag="input.path1.gene263" class="clusterblast-orf" id="dummy-3_q14_0_all"  />
</g>
<g label="NC_064672" description="NC_064672 (5757548-5826257): Colletotrichum lupini chromosome 1, complete seq... (12% of genes show similarity), NRPS" class="clusterblast-cluster"  >
<text x="5" y="70" class="clusterblast-acc"  >
<a xlink:href="https://antismash-db.secondarymetabolites.org/area?record=NC_064672&amp;start=5757548&amp;end=5826257" target="_blank">NC_064672 (5757548-5826257)</a>: Colletotrichum lupini chromosome 1, complete seq... (12% of genes show similarity), NRPS</text>
<line x1="10" y1="85" x2="778.0" y2="85" style="stroke-width:1; stroke:grey; "  />
</g>
<g id="a3_000"  >
<polygon points="0,90 9,90 14,85 9,80 0,80 0,90 " style="fill:white; stroke-width:1; stroke:black; " description="&lt;b&gt;CLUP02_01726&lt;/b&gt;&lt;br&gt;uncharacterized protein&lt;br&gt;Location: 5762246 - 5763352" locus_tag="CLUP02_01726" class="clusterblast-orf" id="dummy-3_h3_7_0"  />
</g>
<g id="a3_001"  >
<polygon points="18,85 23,80 115,80 115,90 23,90 18,85 " style="fill:white; stroke-width:1; stroke:black; " description="&lt;b&gt;CLUP02_01727&lt;/b&gt;&lt;br&gt;modin&lt;br&gt;Location: 5763602 - 5770837" locus_tag="CLUP02_01727" class="clusterblast-orf" id="dummy-3_h3_7_1"  />
</g>
<g id="a3_002"  >
<polygon points="244,85 249,80 254,80 254,90 249,90 244,85 " style="fill:white; stroke-width:1; stroke:black; " description="&lt;b&gt;CLUP02_01728&lt;/b&gt;&lt;br&gt;modin&lt;br&gt;Location: 5780349 - 5781107" locus_tag="CLUP02_01728" class="clusterblast-orf" id="dummy-3_h3_7_2"  />
</g>
<g id="a3_003"  >
<polygon points="272,85 277,80 281,80 281,90 277,90 272,85 " style="fill:white; stroke-width:1; stroke:black; " description="&lt;b&gt;CLUP02_01729&lt;/b&gt;&lt;br&gt;choline dehydrogenase&lt;br&gt;Location: 5782475 - 5783104" locus_tag="CLUP02_01729" class="clusterblast-orf" id="dummy-3_h3_7_3"  />
</g>
<g id="a3_004"  >
<polygon points="290,90 328,90 333,85 328,80 290,80 290,90 " style="fill:white; stroke-width:1; stroke:black; " description="&lt;b&gt;CLUP02_01730&lt;/b&gt;&lt;br&gt;uncharacterized protein&lt;br&gt;Location: 5783749 - 5786960" locus_tag="CLUP02_01730" class="clusterblast-orf" id="dummy-3_h3_7_4"  />
</g>
<g id="a3_005"  >
<polygon points="341,85 346,80 458,80 458,90 346,90 341,85 " style="fill:#d81597; stroke-width:1; stroke:black; " description="&lt;b&gt;CLUP02_01731&lt;/b&gt;&lt;br&gt;amino acid adenylation domain-containing protein&lt;br&gt;Location: 5787549 - 5796257&lt;br&gt;&lt;br&gt;&lt;b&gt;BlastP hit with input.path1.gene257&lt;/b&gt;&lt;br&gt;Percentage identity: 32&lt;br&gt;Percentage coverage: 37&lt;br&gt;BLAST bit score: 879&lt;br&gt;E-value: 1.84e-262" locus_tag="CLUP02_01731" class="clusterblast-orf" id="dummy-3_h3_7_5"  />
</g>
<g id="a3_006"  >
<polygon points="481,90 527,90 532,85 527,80 481,80 481,90 " style="fill:#97d815; stroke-width:1; stroke:black; " description="&lt;b&gt;CLUP02_01732&lt;/b&gt;&lt;br&gt;major facilitator superfamily transporter&lt;br&gt;Location: 5797929 - 5801720&lt;br&gt;&lt;br&gt;&lt;b&gt;BlastP hit with input.path1.gene258&lt;/b&gt;&lt;br&gt;Percentage identity: 45&lt;br&gt;Percentage coverage: 87&lt;br&gt;BLAST bit score: 423&lt;br&gt;E-value: 7.43e-134" locus_tag="CLUP02_01732" class="clusterblast-orf" id="dummy-3_h3_7_6"  />
</g>
<g id="a3_007"  >
<polygon points="564,85 569,80 572,80 572,90 569,90 564,85 " style="fill:white; stroke-width:1; stroke:black; " description="&lt;b&gt;CLUP02_01733&lt;/b&gt;&lt;br&gt;uncharacterized protein&lt;br&gt;Location: 5804112 - 5804713" locus_tag="CLUP02_01733" class="clusterblast-orf" id="dummy-3_h3_7_7"  />
</g>
<g id="a3_008"  >
<polygon points="575,85 580,80 587,80 587,90 580,90 575,85 " style="fill:white; stroke-width:1; stroke:black; " description="&lt;b&gt;CLUP02_01734&lt;/b&gt;&lt;br&gt;uncharacterized protein&lt;br&gt;Location: 5804911 - 5805783" locus_tag="CLUP02_01734" class="clusterblast-orf" id="dummy-3_h3_7_8"  />
</g>
<g id="a3_009"  >
<polygon points="590,85 595,80 606,80 606,90 595,90 590,85 " style="fill:white; stroke-width:1; stroke:black; " description="&lt;b&gt;CLUP02_01735&lt;/b&gt;&lt;br&gt;uncharacterized protein&lt;br&gt;Location: 5805992 - 5807245" locus_tag="CLUP02_01735" class="clusterblast-orf" id="dummy-3_h3_7_9"  />
</g>
<g id="a3_0010"  >
<polygon points="609,90 618,90 623,85 618,80 609,80 609,90 " style="fill:white; stroke-width:1; stroke:black; " description="&lt;b&gt;CLUP02_01736&lt;/b&gt;&lt;br&gt;uncharacterized protein&lt;br&gt;Location: 5807425 - 5808438" locus_tag="CLUP02_01736" class="clusterblast-orf" id="dummy-3_h3_7_10"  />
</g>
<g id="a3_0011"  >
<polygon points="625,85 630,80 640,80 640,90 630,90 625,85 " style="fill:white; stroke-width:1; stroke:black; " description="&lt;b&gt;CLUP02_01737&lt;/b&gt;&lt;br&gt;uncharacterized protein&lt;br&gt;Location: 5808616 - 5809719" locus_tag="CLUP02_01737" class="clusterblast-orf" id="dummy-3_h3_7_11"  />
</g>
<g id="a3_0012"  >
<polygon points="663,90 698,90 703,85 698,80 663,80 663,90 " style="fill:white; stroke-width:1; stroke:black; " description="&lt;b&gt;CLUP02_01738&lt;/b&gt;&lt;br&gt;alanine racemase domain-containing protein&lt;br&gt;Location: 5811431 - 5814432" locus_tag="CLUP02_01738" class="clusterblast-orf" id="dummy-3_h3_7_12"  />
</g>
<g id="a3_0013"  >
<polygon points="707,85 712,80 732,80 732,90 712,90 707,85 " style="fill:white; stroke-width:1; stroke:black; " description="&lt;b&gt;CLUP02_01739&lt;/b&gt;&lt;br&gt;uncharacterized protein&lt;br&gt;Location: 5814676 - 5816566" locus_tag="CLUP02_01739" class="clusterblast-orf" id="dummy-3_h3_7_13"  />
</g>
<g id="a3_0014"  >
<polygon points="753,85 758,80 771,80 771,90 758,90 753,85 " style="fill:white; stroke-width:1; stroke:black; " description="&lt;b&gt;CLUP02_01740&lt;/b&gt;&lt;br&gt;uncharacterized protein&lt;br&gt;Location: 5818091 - 5819449" locus_tag="CLUP02_01740" class="clusterblast-orf" id="dummy-3_h3_7_14"  />
</g>
<g id="a3_0015"  >
<polygon points="777,85 780,80 780,90 777,85 " style="fill:white; stroke-width:1; stroke:black; " description="&lt;b&gt;CLUP02_01741&lt;/b&gt;&lt;br&gt;uncharacterized protein&lt;br&gt;Location: 5819857 - 5820075" locus_tag="CLUP02_01741" class="clusterblast-orf" id="dummy-3_h3_7_15"  />
</g>
</svg>
