<svg xmlns="http://www.w3.org/2000/svg" xmlns:xlink="http://www.w3.org/1999/xlink" version="1.1" x="0" y="0" height="230" width="800" viewBox="0 0 800 230" preserveAspectRatio="none"  >
<g label="Query sequence" class="clusterblast-cluster"  >
<text x="5" y="20" class="clusterblast-acc"  >
Query sequence</text>
<line x1="10" y1="35" x2="778.0" y2="35" style="stroke-width:1; stroke:grey; "  />
<polygon points="0,40 21,40 26,35 21,30 0,30 0,40 " style="fill:#d81515; stroke-width:1; stroke:black; " description="&lt;b&gt;input.path1.gene1035&lt;/b&gt;&lt;br&gt;input.path1.gene1035&lt;br&gt;Location: 3382246 - 3383473" locus_tag="input.path1.gene1035" class="clusterblast-orf" id="dummy-7_q0_0_all"  />
<polygon points="41,40 101,40 106,35 101,30 41,30 41,40 " style="fill:#5cd815; stroke-width:1; stroke:black; " description="&lt;b&gt;input.path1.gene1036&lt;/b&gt;&lt;br&gt;input.path1.gene1036&lt;br&gt;Location: 3384208 - 3387244" locus_tag="input.path1.gene1036" class="clusterblast-orf" id="dummy-7_q1_0_all"  />
<polygon points="105,35 110,30 133,30 133,40 110,40 105,35 " style="fill:#15a3d8; stroke-width:1; stroke:black; " description="&lt;b&gt;input.path1.gene1037&lt;/b&gt;&lt;br&gt;input.path1.gene1037&lt;br&gt;Location: 3387240 - 3388541" locus_tag="input.path1.gene1037" class="clusterblast-orf" id="dummy-7_q2_0_all"  />
<polygon points="157,40 190,40 195,35 190,30 157,30 157,40 " style="fill:#c715d8; stroke-width:1; stroke:black; " description="&lt;b&gt;input.path1.gene1038&lt;/b&gt;&lt;br&gt;input.path1.gene1038&lt;br&gt;Location: 3389671 - 3391452" locus_tag="input.path1.gene1038" class="clusterblast-orf" id="dummy-7_q3_0_all"  />
<polygon points="196,35 201,30 221,30 221,40 201,40 196,35 " style="fill:#d88015; stroke-width:1; stroke:black; " description="&lt;b&gt;input.path1.gene1039&lt;/b&gt;&lt;br&gt;input.path1.gene1039&lt;br&gt;Location: 3391504 - 3392702" locus_tag="input.path1.gene1039" class="clusterblast-orf" id="dummy-7_q4_0_all"  />
<polygon points="239,40 270,40 275,35 270,30 239,30 239,40 " style="fill:#15d839; stroke-width:1; stroke:black; " description="&lt;b&gt;input.path1.gene1040&lt;/b&gt;&lt;br&gt;input.path1.gene1040&lt;br&gt;Location: 3393571 - 3395251" locus_tag="input.path1.gene1040" class="clusterblast-orf" id="dummy-7_q5_0_all"  />
<polygon points="297,40 308,40 313,35 308,30 297,30 297,40 " style="fill:#1539d8; stroke-width:1; stroke:black; " description="&lt;b&gt;input.path1.gene1041&lt;/b&gt;&lt;br&gt;input.path1.gene1041&lt;br&gt;Location: 3396275 - 3397040" locus_tag="input.path1.gene1041" class="clusterblast-orf" id="dummy-7_q6_0_all"  />
<polygon points="323,35 328,30 361,30 361,40 328,40 323,35 " style="fill:#d81580; stroke-width:1; stroke:black; " description="&lt;b&gt;input.path1.gene1042&lt;/b&gt;&lt;br&gt;input.path1.gene1042&lt;br&gt;Location: 3397534 - 3399288" locus_tag="input.path1.gene1042" class="clusterblast-orf" id="dummy-7_q7_0_all"  />
<polygon points="404,40 445,40 450,35 445,30 404,30 404,40 " style="fill:#c7d815; stroke-width:1; stroke:black; " description="&lt;b&gt;input.path1.gene1043&lt;/b&gt;&lt;br&gt;input.path1.gene1043&lt;br&gt;Location: 3401357 - 3403497" locus_tag="input.path1.gene1043" class="clusterblast-orf" id="dummy-7_q8_0_all"  />
<polygon points="508,35 513,30 559,30 559,40 513,40 508,35 " style="fill:#15d8a3; stroke-width:1; stroke:black; " description="&lt;b&gt;input.path1.gene1044&lt;/b&gt;&lt;br&gt;input.path1.gene1044&lt;br&gt;Location: 3406241 - 3408641" locus_tag="input.path1.gene1044" class="clusterblast-orf" id="dummy-7_q9_0_all"  />
<polygon points="573,40 581,40 586,35 581,30 573,30 573,40 " style="fill:white; stroke-width:1; stroke:black; " description="&lt;b&gt;input.path1.gene1045&lt;/b&gt;&lt;br&gt;input.path1.gene1045&lt;br&gt;Location: 3409323 - 3409920" locus_tag="input.path1.gene1045" class="clusterblast-orf" id="dummy-7_q10_0_all"  />
<polygon points="620,40 652,40 657,35 652,30 620,30 620,40 " style="fill:#5c15d8; stroke-width:1; stroke:black; " description="&lt;b&gt;input.path1.gene1046&lt;/b&gt;&lt;br&gt;input.path1.gene1046&lt;br&gt;Location: 3411552 - 3413311" locus_tag="input.path1.gene1046" class="clusterblast-orf" id="dummy-7_q11_0_all"  />
<polygon points="691,40 718,40 723,35 718,30 691,30 691,40 " style="fill:white; stroke-width:1; stroke:black; " description="&lt;b&gt;input.path1.gene1047&lt;/b&gt;&lt;br&gt;input.path1.gene1047&lt;br&gt;Location: 3414898 - 3416411" locus_tag="input.path1.gene1047" class="clusterblast-orf" id="dummy-7_q12_0_all"  />
<polygon points="744,40 775,40 780,35 775,30 744,30 744,40 " style="fill:white; stroke-width:1; stroke:black; " description="&lt;b&gt;input.path1.gene1048&lt;/b&gt;&lt;br&gt;input.path1.gene1048&lt;br&gt;Location: 3417386 - 3419085" locus_tag="input.path1.gene1048" class="clusterblast-orf" id="dummy-7_q13_0_all"  />
</g>
<g label="NW_006271969" description="NW_006271969 (5556555-5618595): Cordyceps militaris CM01 unplaced genomic sca... (30% of genes show similarity), isocyanide" class="clusterblast-cluster"  >
<text x="5" y="70" class="clusterblast-acc"  >
<a xlink:href="https://antismash-db.secondarymetabolites.org/area?record=NW_006271969&amp;start=5556555&amp;end=5618595" target="_blank">NW_006271969 (5556555-5618595)</a>: Cordyceps militaris CM01 unplaced genomic sca... (30% of genes show similarity), isocyanide</text>
<line x1="10" y1="85" x2="778.0" y2="85" style="stroke-width:1; stroke:grey; "  />
</g>
<g id="a7_000"  >
<polygon points="30,85 35,80 68,80 68,90 35,90 30,85 " style="fill:#d81580; stroke-width:1; stroke:black; " description="&lt;b&gt;CCM_01729&lt;/b&gt;&lt;br&gt;monooxygenase, putative&lt;br&gt;Location: 5592141 - 5590336&lt;br&gt;&lt;br&gt;&lt;b&gt;BlastP hit with input.path1.gene1042&lt;/b&gt;&lt;br&gt;Percentage identity: 82&lt;br&gt;Percentage coverage: 102&lt;br&gt;BLAST bit score: 840&lt;br&gt;E-value: 1.97e-306" locus_tag="CCM_01729" class="clusterblast-orf" id="dummy-7_h7_8_0"  />
</g>
<g id="a7_001"  >
<polygon points="105,90 143,90 148,85 143,80 105,80 105,90 " style="fill:#c7d815; stroke-width:1; stroke:black; " description="&lt;b&gt;CCM_01728&lt;/b&gt;&lt;br&gt;pyoverdine/dityrosine biosynthesis protein, putative&lt;br&gt;Location: 5588595 - 5586556&lt;br&gt;&lt;br&gt;&lt;b&gt;BlastP hit with input.path1.gene1043&lt;/b&gt;&lt;br&gt;Percentage identity: 90&lt;br&gt;Percentage coverage: 93&lt;br&gt;BLAST bit score: 1171&lt;br&gt;E-value: 0.0" locus_tag="CCM_01728" class="clusterblast-orf" id="dummy-7_h7_8_1"  />
</g>
<g id="a7_002"  >
<polygon points="155,90 197,90 202,85 197,80 155,80 155,90 " style="fill:white; stroke-width:1; stroke:black; " description="&lt;b&gt;CCM_01727&lt;/b&gt;&lt;br&gt;DNA repair protein, putative&lt;br&gt;Location: 5586226 - 5584035" locus_tag="CCM_01727" class="clusterblast-orf" id="dummy-7_h7_8_2"  />
</g>
<g id="a7_003"  >
<polygon points="204,85 209,80 258,80 258,90 209,90 204,85 " style="fill:#15d8a3; stroke-width:1; stroke:black; " description="&lt;b&gt;CCM_01726&lt;/b&gt;&lt;br&gt;ATP dependent RNA helicase, putative&lt;br&gt;Location: 5583931 - 5581373&lt;br&gt;&lt;br&gt;&lt;b&gt;BlastP hit with input.path1.gene1044&lt;/b&gt;&lt;br&gt;Percentage identity: 72&lt;br&gt;Percentage coverage: 108&lt;br&gt;BLAST bit score: 920&lt;br&gt;E-value: 0.0" locus_tag="CCM_01726" class="clusterblast-orf" id="dummy-7_h7_8_3"  />
</g>
<g id="a7_004"  >
<polygon points="266,85 271,80 396,80 396,90 271,90 266,85 " style="fill:white; stroke-width:1; stroke:black; " description="&lt;b&gt;CCM_01725&lt;/b&gt;&lt;br&gt;filament-forming protein, putative&lt;br&gt;Location: 5580991 - 5574855" locus_tag="CCM_01725" class="clusterblast-orf" id="dummy-7_h7_8_4"  />
</g>
<g id="a7_005"  >
<polygon points="414,85 419,80 430,80 430,90 419,90 414,85 " style="fill:white; stroke-width:1; stroke:black; " description="&lt;b&gt;CCM_01724&lt;/b&gt;&lt;br&gt;hypothetical protein&lt;br&gt;Location: 5574004 - 5573240" locus_tag="CCM_01724" class="clusterblast-orf" id="dummy-7_h7_8_5"  />
</g>
<g id="a7_006"  >
<polygon points="466,85 471,80 486,80 486,90 471,90 466,85 " style="fill:white; stroke-width:1; stroke:black; " description="&lt;b&gt;CCM_01723&lt;/b&gt;&lt;br&gt;hypothetical protein&lt;br&gt;Location: 5571537 - 5570626" locus_tag="CCM_01723" class="clusterblast-orf" id="dummy-7_h7_8_6"  />
</g>
<g id="a7_007"  >
<polygon points="570,85 575,80 584,80 584,90 575,90 570,85 " style="fill:white; stroke-width:1; stroke:black; " description="&lt;b&gt;CCM_01722&lt;/b&gt;&lt;br&gt;cyclophilin&lt;br&gt;Location: 5566662 - 5565998" locus_tag="CCM_01722" class="clusterblast-orf" id="dummy-7_h7_8_7"  />
</g>
<g id="a7_008"  >
<polygon points="625,90 661,90 666,85 661,80 625,80 625,90 " style="fill:white; stroke-width:1; stroke:black; " description="&lt;b&gt;CCM_01721&lt;/b&gt;&lt;br&gt;ankyrin repeat domain protein, putative&lt;br&gt;Location: 5564042 - 5562101" locus_tag="CCM_01721" class="clusterblast-orf" id="dummy-7_h7_8_8"  />
</g>
<g id="a7_009"  >
<polygon points="682,90 744,90 749,85 744,80 682,80 682,90 " style="fill:white; stroke-width:1; stroke:black; " description="&lt;b&gt;CCM_01720&lt;/b&gt;&lt;br&gt;TUP1-like enhancer of split&lt;br&gt;Location: 5561373 - 5558202" locus_tag="CCM_01720" class="clusterblast-orf" id="dummy-7_h7_8_9"  />
</g>
</svg>
