<svg xmlns="http://www.w3.org/2000/svg" xmlns:xlink="http://www.w3.org/1999/xlink" version="1.1" x="0" y="0" height="230" width="800" viewBox="0 0 800 230" preserveAspectRatio="none"  >
<g label="Query sequence" class="clusterblast-cluster"  >
<text x="5" y="20" class="clusterblast-acc"  >
Query sequence</text>
<line x1="10" y1="35" x2="778.0" y2="35" style="stroke-width:1; stroke:grey; "  />
<polygon points="88,40 93,40 98,35 93,30 88,30 88,40 " style="fill:#d81515; stroke-width:1; stroke:black; " description="&lt;b&gt;input.path1.gene559&lt;/b&gt;&lt;br&gt;input.path1.gene559&lt;br&gt;Location: 1915586 - 1916354" locus_tag="input.path1.gene559" class="clusterblast-orf" id="dummy-1_q0_0_all"  />
<polygon points="113,35 118,30 143,30 143,40 118,40 113,35 " style="fill:#4dd815; stroke-width:1; stroke:black; " description="&lt;b&gt;input.path1.gene560&lt;/b&gt;&lt;br&gt;input.path1.gene560&lt;br&gt;Location: 1917422 - 1919543" locus_tag="input.path1.gene560" class="clusterblast-orf" id="dummy-1_q1_0_all"  />
<polygon points="184,40 190,40 195,35 190,30 184,30 184,40 " style="fill:#1585d8; stroke-width:1; stroke:black; " description="&lt;b&gt;input.path1.gene561&lt;/b&gt;&lt;br&gt;input.path1.gene561&lt;br&gt;Location: 1922474 - 1923329" locus_tag="input.path1.gene561" class="clusterblast-orf" id="dummy-1_q2_0_all"  />
<polygon points="209,35 214,30 219,30 219,40 214,40 209,35 " style="fill:#a115d8; stroke-width:1; stroke:black; " description="&lt;b&gt;input.path1.gene562&lt;/b&gt;&lt;br&gt;input.path1.gene562&lt;br&gt;Location: 1924289 - 1925036" locus_tag="input.path1.gene562" class="clusterblast-orf" id="dummy-1_q3_0_all"  />
<polygon points="219,40 220,40 225,35 220,30 219,30 219,40 " style="fill:white; stroke-width:1; stroke:black; " description="&lt;b&gt;input.path1.gene563&lt;/b&gt;&lt;br&gt;input.path1.gene563&lt;br&gt;Location: 1925045 - 1925435" locus_tag="input.path1.gene563" class="clusterblast-orf" id="dummy-1_q4_0_all"  />
<polygon points="243,35 248,30 256,30 256,40 248,40 243,35 " style="fill:#d86915; stroke-width:1; stroke:black; " description="&lt;b&gt;input.path1.gene564&lt;/b&gt;&lt;br&gt;input.path1.gene564&lt;br&gt;Location: 1926736 - 1927671" locus_tag="input.path1.gene564" class="clusterblast-orf" id="dummy-1_q5_0_all"  />
<polygon points="273,40 282,40 287,35 282,30 273,30 273,40 " style="fill:white; stroke-width:1; stroke:black; " description="&lt;b&gt;input.path1.gene565&lt;/b&gt;&lt;br&gt;input.path1.gene565&lt;br&gt;Location: 1928875 - 1929931" locus_tag="input.path1.gene565" class="clusterblast-orf" id="dummy-1_q6_0_all"  />
<polygon points="294,35 299,30 319,30 319,40 299,40 294,35 " style="fill:#15d831; stroke-width:1; stroke:black; " description="&lt;b&gt;input.path1.gene566&lt;/b&gt;&lt;br&gt;input.path1.gene566&lt;br&gt;Location: 1930427 - 1932183" locus_tag="input.path1.gene566" class="clusterblast-orf" id="dummy-1_q7_0_all"  />
<polygon points="342,40 414,40 419,35 414,30 342,30 342,40 " style="fill:#1531d8; stroke-width:1; stroke:black; " description="&lt;b&gt;input.path1.gene567&lt;/b&gt;&lt;br&gt;input.path1.gene567&lt;br&gt;Location: 1933882 - 1939398" locus_tag="input.path1.gene567" class="clusterblast-orf" id="dummy-1_q8_0_all"  />
<polygon points="424,35 429,30 454,30 454,40 429,40 424,35 " style="fill:#d815bc; stroke-width:1; stroke:black; " description="&lt;b&gt;input.path1.gene568&lt;/b&gt;&lt;br&gt;input.path1.gene568&lt;br&gt;Location: 1939723 - 1941893" locus_tag="input.path1.gene568" class="clusterblast-orf" id="dummy-1_q9_0_all"  />
<polygon points="481,35 486,30 487,30 487,40 486,40 481,35 " style="fill:#d8bc15; stroke-width:1; stroke:black; " description="&lt;b&gt;input.path1.gene569&lt;/b&gt;&lt;br&gt;input.path1.gene569&lt;br&gt;Location: 1943856 - 1944295" locus_tag="input.path1.gene569" class="clusterblast-orf" id="dummy-1_q10_0_all"  />
<polygon points="548,40 559,40 564,35 559,30 548,30 548,40 " style="fill:#15d885; stroke-width:1; stroke:black; " description="&lt;b&gt;input.path1.gene570&lt;/b&gt;&lt;br&gt;input.path1.gene570&lt;br&gt;Location: 1948662 - 1949831" locus_tag="input.path1.gene570" class="clusterblast-orf" id="dummy-1_q11_0_all"  />
<polygon points="571,35 576,30 590,30 590,40 576,40 571,35 " style="fill:#4d15d8; stroke-width:1; stroke:black; " description="&lt;b&gt;input.path1.gene571&lt;/b&gt;&lt;br&gt;input.path1.gene571&lt;br&gt;Location: 1950305 - 1951674" locus_tag="input.path1.gene571" class="clusterblast-orf" id="dummy-1_q12_0_all"  />
<polygon points="603,35 608,30 622,30 622,40 608,40 603,35 " style="fill:#d81569; stroke-width:1; stroke:black; " description="&lt;b&gt;input.path1.gene572&lt;/b&gt;&lt;br&gt;input.path1.gene572&lt;br&gt;Location: 1952644 - 1953963" locus_tag="input.path1.gene572" class="clusterblast-orf" id="dummy-1_q13_0_all"  />
<polygon points="653,40 661,40 666,35 661,30 653,30 653,40 " style="fill:#a1d815; stroke-width:1; stroke:black; " description="&lt;b&gt;input.path1.gene573&lt;/b&gt;&lt;br&gt;input.path1.gene573&lt;br&gt;Location: 1956214 - 1957128" locus_tag="input.path1.gene573" class="clusterblast-orf" id="dummy-1_q14_0_all"  />
<polygon points="679,35 684,30 692,30 692,40 684,40 679,35 " style="fill:#15d8d8; stroke-width:1; stroke:black; " description="&lt;b&gt;input.path1.gene574&lt;/b&gt;&lt;br&gt;input.path1.gene574&lt;br&gt;Location: 1958086 - 1958982" locus_tag="input.path1.gene574" class="clusterblast-orf" id="dummy-1_q15_0_all"  />
</g>
<g label="NC_036627" description="NC_036627 (1441489-1505176): Fusarium fujikuroi IMI 58289 draft genome, chrom... (12% of genes show similarity), NRPS" class="clusterblast-cluster"  >
<text x="5" y="70" class="clusterblast-acc"  >
<a xlink:href="https://antismash-db.secondarymetabolites.org/area?record=NC_036627&amp;start=1441489&amp;end=1505176" target="_blank">NC_036627 (1441489-1505176)</a>: Fusarium fujikuroi IMI 58289 draft genome, chrom... (12% of genes show similarity), NRPS</text>
<line x1="10" y1="85" x2="778.0" y2="85" style="stroke-width:1; stroke:grey; "  />
</g>
<g id="a1_000"  >
<polygon points="0,90 41,90 46,85 41,80 0,80 0,90 " style="fill:white; stroke-width:1; stroke:black; " description="&lt;b&gt;FFUJ_05809&lt;/b&gt;&lt;br&gt;uncharacterized protein&lt;br&gt;Location: 1498362 - 1495009" locus_tag="FFUJ_05809" class="clusterblast-orf" id="dummy-1_h1_6_0"  />
</g>
<g id="a1_001"  >
<polygon points="72,85 74,80 74,90 72,85 " style="fill:white; stroke-width:1; stroke:black; " description="&lt;b&gt;FFUJ_14922&lt;/b&gt;&lt;br&gt;uncharacterized protein&lt;br&gt;Location: 1493133 - 1493029" locus_tag="FFUJ_14922" class="clusterblast-orf" id="dummy-1_h1_6_1"  />
</g>
<g id="a1_002"  >
<polygon points="111,85 116,80 126,80 126,90 116,90 111,85 " style="fill:white; stroke-width:1; stroke:black; " description="&lt;b&gt;FFUJ_05808&lt;/b&gt;&lt;br&gt;uncharacterized protein&lt;br&gt;Location: 1490321 - 1489269" locus_tag="FFUJ_05808" class="clusterblast-orf" id="dummy-1_h1_6_2"  />
</g>
<g id="a1_003"  >
<polygon points="148,90 151,90 156,85 151,80 148,80 148,90 " style="fill:white; stroke-width:1; stroke:black; " description="&lt;b&gt;FFUJ_05807&lt;/b&gt;&lt;br&gt;uncharacterized protein&lt;br&gt;Location: 1487672 - 1487109" locus_tag="FFUJ_05807" class="clusterblast-orf" id="dummy-1_h1_6_3"  />
</g>
<g id="a1_004"  >
<polygon points="221,90 243,90 248,85 243,80 221,80 221,90 " style="fill:white; stroke-width:1; stroke:black; " description="&lt;b&gt;FFUJ_05806&lt;/b&gt;&lt;br&gt;related to acriflavine sensitivity control protein ACR-2&lt;br&gt;Location: 1482450 - 1480531" locus_tag="FFUJ_05806" class="clusterblast-orf" id="dummy-1_h1_6_4"  />
</g>
<g id="a1_005"  >
<polygon points="266,85 271,80 288,80 288,90 271,90 266,85 " style="fill:#15d831; stroke-width:1; stroke:black; " description="&lt;b&gt;FFUJ_05805&lt;/b&gt;&lt;br&gt;related to n-alkane-inducible cytochrome P450&lt;br&gt;Location: 1479219 - 1477609&lt;br&gt;&lt;br&gt;&lt;b&gt;BlastP hit with input.path1.gene566&lt;/b&gt;&lt;br&gt;Percentage identity: 34&lt;br&gt;Percentage coverage: 130&lt;br&gt;BLAST bit score: 266&lt;br&gt;E-value: 1.33e-83" locus_tag="FFUJ_05805" class="clusterblast-orf" id="dummy-1_h1_6_5"  />
</g>
<g id="a1_006"  >
<polygon points="322,90 368,90 373,85 368,80 322,80 322,90 " style="fill:#1531d8; stroke-width:1; stroke:black; " description="&lt;b&gt;FFUJ_05804&lt;/b&gt;&lt;br&gt;related to long-chain-fatty-acid-CoA ligase&lt;br&gt;Location: 1475176 - 1471490&lt;br&gt;&lt;br&gt;&lt;b&gt;BlastP hit with input.path1.gene567&lt;/b&gt;&lt;br&gt;Percentage identity: 41&lt;br&gt;Percentage coverage: 74&lt;br&gt;BLAST bit score: 840&lt;br&gt;E-value: 4.81e-281" locus_tag="FFUJ_05804" class="clusterblast-orf" id="dummy-1_h1_6_6"  />
</g>
<g id="a1_007"  >
<polygon points="378,85 383,80 396,80 396,90 383,90 378,85 " style="fill:white; stroke-width:1; stroke:black; " description="&lt;b&gt;FFUJ_05803&lt;/b&gt;&lt;br&gt;uncharacterized protein&lt;br&gt;Location: 1471163 - 1469898" locus_tag="FFUJ_05803" class="clusterblast-orf" id="dummy-1_h1_6_7"  />
</g>
<g id="a1_008"  >
<polygon points="405,90 412,90 417,85 412,80 405,80 405,90 " style="fill:white; stroke-width:1; stroke:black; " description="&lt;b&gt;FFUJ_05802&lt;/b&gt;&lt;br&gt;uncharacterized protein&lt;br&gt;Location: 1469226 - 1468339" locus_tag="FFUJ_05802" class="clusterblast-orf" id="dummy-1_h1_6_8"  />
</g>
<g id="a1_009"  >
<polygon points="422,85 427,80 447,80 447,90 427,90 422,85 " style="fill:white; stroke-width:1; stroke:black; " description="&lt;b&gt;FFUJ_05801&lt;/b&gt;&lt;br&gt;related to acetyl-CoA transporter&lt;br&gt;Location: 1467992 - 1466202" locus_tag="FFUJ_05801" class="clusterblast-orf" id="dummy-1_h1_6_9"  />
</g>
<g id="a1_0010"  >
<polygon points="464,90 472,90 477,85 472,80 464,80 464,90 " style="fill:white; stroke-width:1; stroke:black; " description="&lt;b&gt;FFUJ_05800&lt;/b&gt;&lt;br&gt;uncharacterized protein&lt;br&gt;Location: 1464972 - 1464051" locus_tag="FFUJ_05800" class="clusterblast-orf" id="dummy-1_h1_6_10"  />
</g>
<g id="a1_0011"  >
<polygon points="491,85 496,80 501,80 501,90 496,90 491,85 " style="fill:white; stroke-width:1; stroke:black; " description="&lt;b&gt;FFUJ_05799&lt;/b&gt;&lt;br&gt;uncharacterized protein&lt;br&gt;Location: 1463011 - 1462319" locus_tag="FFUJ_05799" class="clusterblast-orf" id="dummy-1_h1_6_11"  />
</g>
<g id="a1_0012"  >
<polygon points="507,85 512,80 529,80 529,90 512,90 507,85 " style="fill:white; stroke-width:1; stroke:black; " description="&lt;b&gt;FFUJ_05798&lt;/b&gt;&lt;br&gt;related to transcription activator&lt;br&gt;Location: 1461896 - 1460307" locus_tag="FFUJ_05798" class="clusterblast-orf" id="dummy-1_h1_6_12"  />
</g>
<g id="a1_0013"  >
<polygon points="639,90 659,90 664,85 659,80 639,80 639,90 " style="fill:white; stroke-width:1; stroke:black; " description="&lt;b&gt;FFUJ_05797&lt;/b&gt;&lt;br&gt;related to trichodiene oxygenase cytochrome P450&lt;br&gt;Location: 1452405 - 1450625" locus_tag="FFUJ_05797" class="clusterblast-orf" id="dummy-1_h1_6_13"  />
</g>
<g id="a1_0014"  >
<polygon points="679,90 694,90 699,85 694,80 679,80 679,90 " style="fill:white; stroke-width:1; stroke:black; " description="&lt;b&gt;FFUJ_05796&lt;/b&gt;&lt;br&gt;related to tetracycline resistance protein&lt;br&gt;Location: 1449504 - 1448072" locus_tag="FFUJ_05796" class="clusterblast-orf" id="dummy-1_h1_6_14"  />
</g>
<g id="a1_0015"  >
<polygon points="755,90 775,90 780,85 775,80 755,80 755,90 " style="fill:white; stroke-width:1; stroke:black; " description="&lt;b&gt;FFUJ_05795&lt;/b&gt;&lt;br&gt;translation elongation factor 1 alpha&lt;br&gt;Location: 1444069 - 1442308" locus_tag="FFUJ_05795" class="clusterblast-orf" id="dummy-1_h1_6_15"  />
</g>
</svg>
