<svg xmlns="http://www.w3.org/2000/svg" xmlns:xlink="http://www.w3.org/1999/xlink" version="1.1" x="0" y="0" height="230" width="800" viewBox="0 0 800 230" preserveAspectRatio="none"  >
<g label="Query sequence" class="clusterblast-cluster"  >
<text x="5" y="20" class="clusterblast-acc"  >
Query sequence</text>
<line x1="10" y1="35" x2="778.0" y2="35" style="stroke-width:1; stroke:grey; "  />
<polygon points="0,40 6,40 11,35 6,30 0,30 0,40 " style="fill:white; stroke-width:1; stroke:black; " description="&lt;b&gt;input.path1.gene1242&lt;/b&gt;&lt;br&gt;input.path1.gene1242&lt;br&gt;Location: 3940269 - 3942027" locus_tag="input.path1.gene1242" class="clusterblast-orf" id="dummy-3_q0_0_all"  />
<polygon points="32,40 36,40 41,35 36,30 32,30 32,40 " style="fill:#d81515; stroke-width:1; stroke:black; " description="&lt;b&gt;input.path1.gene1243&lt;/b&gt;&lt;br&gt;input.path1.gene1243&lt;br&gt;Location: 3945108 - 3946359" locus_tag="input.path1.gene1243" class="clusterblast-orf" id="dummy-3_q1_0_all"  />
<polygon points="49,40 58,40 63,35 58,30 49,30 49,40 " style="fill:#63d815; stroke-width:1; stroke:black; " description="&lt;b&gt;input.path1.gene1244&lt;/b&gt;&lt;br&gt;input.path1.gene1244&lt;br&gt;Location: 3947517 - 3949581" locus_tag="input.path1.gene1244" class="clusterblast-orf" id="dummy-3_q2_0_all"  />
<polygon points="65,35 70,30 79,30 79,40 70,40 65,35 " style="fill:#15b1d8; stroke-width:1; stroke:black; " description="&lt;b&gt;input.path1.gene1245&lt;/b&gt;&lt;br&gt;input.path1.gene1245&lt;br&gt;Location: 3949911 - 3951976" locus_tag="input.path1.gene1245" class="clusterblast-orf" id="dummy-3_q3_0_all"  />
<polygon points="83,40 90,40 95,35 90,30 83,30 83,40 " style="fill:#b115d8; stroke-width:1; stroke:black; " description="&lt;b&gt;input.path1.gene1246&lt;/b&gt;&lt;br&gt;input.path1.gene1246&lt;br&gt;Location: 3952585 - 3954337" locus_tag="input.path1.gene1246" class="clusterblast-orf" id="dummy-3_q4_0_all"  />
<polygon points="96,35 101,30 103,30 103,40 101,40 96,35 " style="fill:#d86315; stroke-width:1; stroke:black; " description="&lt;b&gt;input.path1.gene1247&lt;/b&gt;&lt;br&gt;input.path1.gene1247&lt;br&gt;Location: 3954463 - 3955492" locus_tag="input.path1.gene1247" class="clusterblast-orf" id="dummy-3_q5_0_all"  />
<polygon points="109,35 114,30 115,30 115,40 114,40 109,35 " style="fill:#15d815; stroke-width:1; stroke:black; " description="&lt;b&gt;input.path1.gene1248&lt;/b&gt;&lt;br&gt;input.path1.gene1248&lt;br&gt;Location: 3956417 - 3957371" locus_tag="input.path1.gene1248" class="clusterblast-orf" id="dummy-3_q6_0_all"  />
<polygon points="121,40 170,40 175,35 170,30 121,30 121,40 " style="fill:#1563d8; stroke-width:1; stroke:black; " description="&lt;b&gt;input.path1.gene1249&lt;/b&gt;&lt;br&gt;input.path1.gene1249&lt;br&gt;Location: 3958254 - 3966169" locus_tag="input.path1.gene1249" class="clusterblast-orf" id="dummy-3_q7_0_all"  />
<polygon points="178,35 181,30 181,40 178,35 " style="fill:white; stroke-width:1; stroke:black; " description="&lt;b&gt;input.path1.gene1250&lt;/b&gt;&lt;br&gt;input.path1.gene1250&lt;br&gt;Location: 3966549 - 3967010" locus_tag="input.path1.gene1250" class="clusterblast-orf" id="dummy-3_q8_0_all"  />
<polygon points="195,35 200,30 205,30 205,40 200,40 195,35 " style="fill:white; stroke-width:1; stroke:black; " description="&lt;b&gt;input.path1.gene1251&lt;/b&gt;&lt;br&gt;input.path1.gene1251&lt;br&gt;Location: 3969073 - 3970537" locus_tag="input.path1.gene1251" class="clusterblast-orf" id="dummy-3_q9_0_all"  />
<polygon points="208,35 213,30 237,30 237,40 213,40 208,35 " style="fill:#d815b1; stroke-width:1; stroke:black; " description="&lt;b&gt;input.path1.gene1252&lt;/b&gt;&lt;br&gt;input.path1.gene1252&lt;br&gt;Location: 3971035 - 3975273" locus_tag="input.path1.gene1252" class="clusterblast-orf" id="dummy-3_q10_0_all"  />
<polygon points="287,35 292,30 292,30 292,40 292,40 287,35 " style="fill:white; stroke-width:1; stroke:black; " description="&lt;b&gt;input.path1.gene1253&lt;/b&gt;&lt;br&gt;input.path1.gene1253&lt;br&gt;Location: 3982700 - 3983402" locus_tag="input.path1.gene1253" class="clusterblast-orf" id="dummy-3_q11_0_all"  />
<polygon points="305,40 308,35 305,30 305,40 " style="fill:#d8b115; stroke-width:1; stroke:black; " description="&lt;b&gt;input.path1.gene1254&lt;/b&gt;&lt;br&gt;input.path1.gene1254&lt;br&gt;Location: 3985316 - 3985759" locus_tag="input.path1.gene1254" class="clusterblast-orf" id="dummy-3_q12_0_all"  />
<polygon points="310,35 315,30 335,30 335,40 315,40 310,35 " style="fill:#15d863; stroke-width:1; stroke:black; " description="&lt;b&gt;input.path1.gene1255&lt;/b&gt;&lt;br&gt;input.path1.gene1255&lt;br&gt;Location: 3986061 - 3989864" locus_tag="input.path1.gene1255" class="clusterblast-orf" id="dummy-3_q13_0_all"  />
<polygon points="348,40 361,40 366,35 361,30 348,30 348,40 " style="fill:#1515d8; stroke-width:1; stroke:black; " description="&lt;b&gt;input.path1.gene1256&lt;/b&gt;&lt;br&gt;input.path1.gene1256&lt;br&gt;Location: 3991755 - 3994429" locus_tag="input.path1.gene1256" class="clusterblast-orf" id="dummy-3_q14_0_all"  />
<polygon points="373,40 375,40 380,35 375,30 373,30 373,40 " style="fill:#d81563; stroke-width:1; stroke:black; " description="&lt;b&gt;input.path1.gene1257&lt;/b&gt;&lt;br&gt;input.path1.gene1257&lt;br&gt;Location: 3995346 - 3996410" locus_tag="input.path1.gene1257" class="clusterblast-orf" id="dummy-3_q15_0_all"  />
<polygon points="382,35 387,30 387,30 387,40 387,40 382,35 " style="fill:#b1d815; stroke-width:1; stroke:black; " description="&lt;b&gt;input.path1.gene1258&lt;/b&gt;&lt;br&gt;input.path1.gene1258&lt;br&gt;Location: 3996792 - 3997491" locus_tag="input.path1.gene1258" class="clusterblast-orf" id="dummy-3_q16_0_all"  />
<polygon points="396,40 468,40 473,35 468,30 396,30 396,40 " style="fill:#1563d8; stroke-width:1; stroke:black; " description="&lt;b&gt;input.path1.gene1259&lt;/b&gt;&lt;br&gt;input.path1.gene1259&lt;br&gt;Location: 3998734 - 4010187" locus_tag="input.path1.gene1259" class="clusterblast-orf" id="dummy-3_q17_0_all"  />
<polygon points="481,40 482,40 487,35 482,30 481,30 481,40 " style="fill:white; stroke-width:1; stroke:black; " description="&lt;b&gt;input.path1.gene1260&lt;/b&gt;&lt;br&gt;input.path1.gene1260&lt;br&gt;Location: 4011297 - 4012170" locus_tag="input.path1.gene1260" class="clusterblast-orf" id="dummy-3_q18_0_all"  />
<polygon points="490,35 495,30 498,30 498,40 495,40 490,35 " style="fill:#15d8b1; stroke-width:1; stroke:black; " description="&lt;b&gt;input.path1.gene1261&lt;/b&gt;&lt;br&gt;input.path1.gene1261&lt;br&gt;Location: 4012639 - 4013839" locus_tag="input.path1.gene1261" class="clusterblast-orf" id="dummy-3_q19_0_all"  />
<polygon points="510,35 515,30 520,30 520,40 515,40 510,35 " style="fill:#6315d8; stroke-width:1; stroke:black; " description="&lt;b&gt;input.path1.gene1262&lt;/b&gt;&lt;br&gt;input.path1.gene1262&lt;br&gt;Location: 4015700 - 4017138" locus_tag="input.path1.gene1262" class="clusterblast-orf" id="dummy-3_q20_0_all"  />
<polygon points="521,35 526,30 543,30 543,40 526,40 521,35 " style="fill:white; stroke-width:1; stroke:black; " description="&lt;b&gt;input.path1.gene1263&lt;/b&gt;&lt;br&gt;input.path1.gene1263&lt;br&gt;Location: 4017262 - 4020574" locus_tag="input.path1.gene1263" class="clusterblast-orf" id="dummy-3_q21_0_all"  />
<polygon points="550,35 555,30 560,30 560,40 555,40 550,35 " style="fill:white; stroke-width:1; stroke:black; " description="&lt;b&gt;input.path1.gene1264&lt;/b&gt;&lt;br&gt;input.path1.gene1264&lt;br&gt;Location: 4021592 - 4022950" locus_tag="input.path1.gene1264" class="clusterblast-orf" id="dummy-3_q22_0_all"  />
<polygon points="576,35 581,30 584,30 584,40 581,40 576,35 " style="fill:white; stroke-width:1; stroke:black; " description="&lt;b&gt;input.path1.gene1265&lt;/b&gt;&lt;br&gt;input.path1.gene1265&lt;br&gt;Location: 4025311 - 4026622" locus_tag="input.path1.gene1265" class="clusterblast-orf" id="dummy-3_q23_0_all"  />
<polygon points="619,35 624,30 658,30 658,40 624,40 619,35 " style="fill:white; stroke-width:1; stroke:black; " description="&lt;b&gt;input.path1.gene1266&lt;/b&gt;&lt;br&gt;input.path1.gene1266&lt;br&gt;Location: 4031672 - 4037426" locus_tag="input.path1.gene1266" class="clusterblast-orf" id="dummy-3_q24_0_all"  />
<polygon points="664,40 672,40 677,35 672,30 664,30 664,40 " style="fill:white; stroke-width:1; stroke:black; " description="&lt;b&gt;input.path1.gene1267&lt;/b&gt;&lt;br&gt;input.path1.gene1267&lt;br&gt;Location: 4038431 - 4040363" locus_tag="input.path1.gene1267" class="clusterblast-orf" id="dummy-3_q25_0_all"  />
<polygon points="679,35 684,30 692,30 692,40 684,40 679,35 " style="fill:white; stroke-width:1; stroke:black; " description="&lt;b&gt;input.path1.gene1268&lt;/b&gt;&lt;br&gt;input.path1.gene1268&lt;br&gt;Location: 4040627 - 4042507" locus_tag="input.path1.gene1268" class="clusterblast-orf" id="dummy-3_q26_0_all"  />
<polygon points="694,35 699,30 721,30 721,40 699,40 694,35 " style="fill:white; stroke-width:1; stroke:black; " description="&lt;b&gt;input.path1.gene1269&lt;/b&gt;&lt;br&gt;input.path1.gene1269&lt;br&gt;Location: 4042730 - 4046788" locus_tag="input.path1.gene1269" class="clusterblast-orf" id="dummy-3_q27_0_all"  />
<polygon points="729,40 736,40 741,35 736,30 729,30 729,40 " style="fill:white; stroke-width:1; stroke:black; " description="&lt;b&gt;input.path1.gene1270&lt;/b&gt;&lt;br&gt;input.path1.gene1270&lt;br&gt;Location: 4047934 - 4049715" locus_tag="input.path1.gene1270" class="clusterblast-orf" id="dummy-3_q28_0_all"  />
<polygon points="742,35 747,30 755,30 755,40 747,40 742,35 " style="fill:white; stroke-width:1; stroke:black; " description="&lt;b&gt;input.path1.gene1271&lt;/b&gt;&lt;br&gt;input.path1.gene1271&lt;br&gt;Location: 4049895 - 4051866" locus_tag="input.path1.gene1271" class="clusterblast-orf" id="dummy-3_q29_0_all"  />
<polygon points="761,35 766,30 780,30 780,40 766,40 761,35 " style="fill:white; stroke-width:1; stroke:black; " description="&lt;b&gt;input.path1.gene1272&lt;/b&gt;&lt;br&gt;input.path1.gene1272&lt;br&gt;Location: 4052739 - 4055438" locus_tag="input.path1.gene1272" class="clusterblast-orf" id="dummy-3_q30_0_all"  />
</g>
<g label="NW_020194484" description="NW_020194484 (7340-83776): Amorphotheca resinae ATCC 22711 unplaced genomic s... (41% of genes show similarity), T1PKS,terpene" class="clusterblast-cluster"  >
<text x="5" y="70" class="clusterblast-acc"  >
<a xlink:href="https://antismash-db.secondarymetabolites.org/area?record=NW_020194484&amp;start=7340&amp;end=83776" target="_blank">NW_020194484 (7340-83776)</a>: Amorphotheca resinae ATCC 22711 unplaced genomic s... (41% of genes show similarity), T1PKS,terpene</text>
<line x1="10" y1="85" x2="778.0" y2="85" style="stroke-width:1; stroke:grey; "  />
</g>
<g id="a3_000"  >
<polygon points="141,90 150,90 155,85 150,80 141,80 141,90 " style="fill:white; stroke-width:1; stroke:black; " description="&lt;b&gt;M430DRAFT_110719&lt;/b&gt;&lt;br&gt;glycosyltransferase family 90 protein&lt;br&gt;Location: 81285 - 79215" locus_tag="M430DRAFT_110719" class="clusterblast-orf" id="dummy-3_h3_3_0"  />
</g>
<g id="a3_001"  >
<polygon points="171,85 176,80 181,80 181,90 176,90 171,85 " style="fill:white; stroke-width:1; stroke:black; " description="&lt;b&gt;M430DRAFT_23067&lt;/b&gt;&lt;br&gt;glycoside hydrolase family 5 protein&lt;br&gt;Location: 76830 - 75413" locus_tag="M430DRAFT_23067" class="clusterblast-orf" id="dummy-3_h3_3_1"  />
</g>
<g id="a3_002"  >
<polygon points="194,90 198,90 203,85 198,80 194,80 194,90 " style="fill:white; stroke-width:1; stroke:black; " description="&lt;b&gt;M430DRAFT_70073&lt;/b&gt;&lt;br&gt;hypothetical protein&lt;br&gt;Location: 73418 - 72117" locus_tag="M430DRAFT_70073" class="clusterblast-orf" id="dummy-3_h3_3_2"  />
</g>
<g id="a3_003"  >
<polygon points="213,85 218,80 226,80 226,90 218,90 213,85 " style="fill:white; stroke-width:1; stroke:black; " description="&lt;b&gt;M430DRAFT_23065&lt;/b&gt;&lt;br&gt;hypothetical protein&lt;br&gt;Location: 70680 - 68672" locus_tag="M430DRAFT_23065" class="clusterblast-orf" id="dummy-3_h3_3_3"  />
</g>
<g id="a3_004"  >
<polygon points="246,85 251,80 257,80 257,90 251,90 246,85 " style="fill:#15b1d8; stroke-width:1; stroke:black; " description="&lt;b&gt;M430DRAFT_23063&lt;/b&gt;&lt;br&gt;hypothetical protein&lt;br&gt;Location: 65786 - 64067&lt;br&gt;&lt;br&gt;&lt;b&gt;BlastP hit with input.path1.gene1245&lt;/b&gt;&lt;br&gt;Percentage identity: 32&lt;br&gt;Percentage coverage: 97&lt;br&gt;BLAST bit score: 266&lt;br&gt;E-value: 2.89e-80" locus_tag="M430DRAFT_23063" class="clusterblast-orf" id="dummy-3_h3_3_4"  />
</g>
<g id="a3_005"  >
<polygon points="263,90 264,90 269,85 264,80 263,80 263,90 " style="fill:#d86315; stroke-width:1; stroke:black; " description="&lt;b&gt;M430DRAFT_110425&lt;/b&gt;&lt;br&gt;hypothetical protein&lt;br&gt;Location: 63255 - 62399&lt;br&gt;&lt;br&gt;&lt;b&gt;BlastP hit with input.path1.gene1247&lt;/b&gt;&lt;br&gt;Percentage identity: 41&lt;br&gt;Percentage coverage: 99&lt;br&gt;BLAST bit score: 175&lt;br&gt;E-value: 2.37e-52" locus_tag="M430DRAFT_110425" class="clusterblast-orf" id="dummy-3_h3_3_5"  />
</g>
<g id="a3_006"  >
<polygon points="273,85 278,80 287,80 287,90 278,90 273,85 " style="fill:#b115d8; stroke-width:1; stroke:black; " description="&lt;b&gt;M430DRAFT_70069&lt;/b&gt;&lt;br&gt;hypothetical protein&lt;br&gt;Location: 61792 - 59751&lt;br&gt;&lt;br&gt;&lt;b&gt;BlastP hit with input.path1.gene1246&lt;/b&gt;&lt;br&gt;Percentage identity: 42&lt;br&gt;Percentage coverage: 96&lt;br&gt;BLAST bit score: 431&lt;br&gt;E-value: 5.89e-143" locus_tag="M430DRAFT_70069" class="clusterblast-orf" id="dummy-3_h3_3_6"  />
</g>
<g id="a3_007"  >
<polygon points="290,90 298,90 303,85 298,80 290,80 290,90 " style="fill:#63d815; stroke-width:1; stroke:black; " description="&lt;b&gt;M430DRAFT_23060&lt;/b&gt;&lt;br&gt;hypothetical protein&lt;br&gt;Location: 59264 - 57284&lt;br&gt;&lt;br&gt;&lt;b&gt;BlastP hit with input.path1.gene1244&lt;/b&gt;&lt;br&gt;Percentage identity: 35&lt;br&gt;Percentage coverage: 122&lt;br&gt;BLAST bit score: 220&lt;br&gt;E-value: 3.2e-64" locus_tag="M430DRAFT_23060" class="clusterblast-orf" id="dummy-3_h3_3_7"  />
</g>
<g id="a3_008"  >
<polygon points="304,85 309,80 311,80 311,90 309,90 304,85 " style="fill:#b1d815; stroke-width:1; stroke:black; " description="&lt;b&gt;M430DRAFT_23059&lt;/b&gt;&lt;br&gt;hypothetical protein&lt;br&gt;Location: 57148 - 56224&lt;br&gt;&lt;br&gt;&lt;b&gt;BlastP hit with input.path1.gene1258&lt;/b&gt;&lt;br&gt;Percentage identity: 33&lt;br&gt;Percentage coverage: 50&lt;br&gt;BLAST bit score: 64&lt;br&gt;E-value: 4.6e-10" locus_tag="M430DRAFT_23059" class="clusterblast-orf" id="dummy-3_h3_3_8"  />
</g>
<g id="a3_009"  >
<polygon points="315,85 320,80 322,80 322,90 320,90 315,85 " style="fill:#15d815; stroke-width:1; stroke:black; " description="&lt;b&gt;M430DRAFT_110432&lt;/b&gt;&lt;br&gt;hypothetical protein&lt;br&gt;Location: 55504 - 54575&lt;br&gt;&lt;br&gt;&lt;b&gt;BlastP hit with input.path1.gene1248&lt;/b&gt;&lt;br&gt;Percentage identity: 40&lt;br&gt;Percentage coverage: 97&lt;br&gt;BLAST bit score: 226&lt;br&gt;E-value: 7e-71" locus_tag="M430DRAFT_110432" class="clusterblast-orf" id="dummy-3_h3_3_9"  />
</g>
<g id="a3_0010"  >
<polygon points="327,90 375,90 380,85 375,80 327,80 327,90 " style="fill:#1563d8; stroke-width:1; stroke:black; " description="&lt;b&gt;M430DRAFT_110834&lt;/b&gt;&lt;br&gt;hypothetical protein&lt;br&gt;Location: 53776 - 45921&lt;br&gt;&lt;br&gt;&lt;b&gt;BlastP hit with input.path1.gene1249&lt;/b&gt;&lt;br&gt;Percentage identity: 51&lt;br&gt;Percentage coverage: 99&lt;br&gt;BLAST bit score: 2326&lt;br&gt;E-value: 0.0&lt;br&gt;&lt;br&gt;&lt;b&gt;BlastP hit with input.path1.gene1259&lt;/b&gt;&lt;br&gt;Percentage identity: 34&lt;br&gt;Percentage coverage: 36&lt;br&gt;BLAST bit score: 646&lt;br&gt;E-value: 6.24e-187" locus_tag="M430DRAFT_110834" class="clusterblast-orf" id="dummy-3_h3_3_10"  />
</g>
<g id="a3_0011"  >
<polygon points="387,85 392,80 395,80 395,90 392,90 387,85 " style="fill:white; stroke-width:1; stroke:black; " description="&lt;b&gt;M430DRAFT_129154&lt;/b&gt;&lt;br&gt;hypothetical protein&lt;br&gt;Location: 44973 - 43702" locus_tag="M430DRAFT_129154" class="clusterblast-orf" id="dummy-3_h3_3_11"  />
</g>
<g id="a3_0012"  >
<polygon points="408,90 413,90 418,85 413,80 408,80 408,90 " style="fill:white; stroke-width:1; stroke:black; " description="&lt;b&gt;M430DRAFT_54198&lt;/b&gt;&lt;br&gt;hypothetical protein&lt;br&gt;Location: 41812 - 40421" locus_tag="M430DRAFT_54198" class="clusterblast-orf" id="dummy-3_h3_3_12"  />
</g>
<g id="a3_0013"  >
<polygon points="530,85 535,80 540,80 540,90 535,90 530,85 " style="fill:white; stroke-width:1; stroke:black; " description="&lt;b&gt;M430DRAFT_271666&lt;/b&gt;&lt;br&gt;hypothetical protein&lt;br&gt;Location: 23817 - 22341" locus_tag="M430DRAFT_271666" class="clusterblast-orf" id="dummy-3_h3_3_13"  />
</g>
<g id="a3_0014"  >
<polygon points="619,90 622,85 619,80 619,90 " style="fill:white; stroke-width:1; stroke:black; " description="&lt;b&gt;M430DRAFT_70064&lt;/b&gt;&lt;br&gt;hypothetical protein&lt;br&gt;Location: 10672 - 10301" locus_tag="M430DRAFT_70064" class="clusterblast-orf" id="dummy-3_h3_3_14"  />
</g>
<g id="a3_0015"  >
<polygon points="626,90 627,90 632,85 627,80 626,80 626,90 " style="fill:white; stroke-width:1; stroke:black; " description="&lt;b&gt;M430DRAFT_23053&lt;/b&gt;&lt;br&gt;hypothetical protein&lt;br&gt;Location: 9690 - 8758" locus_tag="M430DRAFT_23053" class="clusterblast-orf" id="dummy-3_h3_3_15"  />
</g>
<g id="a3_0016"  >
<polygon points="635,90 638,85 635,80 635,90 " style="fill:white; stroke-width:1; stroke:black; " description="&lt;b&gt;M430DRAFT_190065&lt;/b&gt;&lt;br&gt;hypothetical protein&lt;br&gt;Location: 8318 - 7848" locus_tag="M430DRAFT_190065" class="clusterblast-orf" id="dummy-3_h3_3_16"  />
</g>
</svg>
