<svg xmlns="http://www.w3.org/2000/svg" xmlns:xlink="http://www.w3.org/1999/xlink" version="1.1" x="0" y="0" height="230" width="800" viewBox="0 0 800 230" preserveAspectRatio="none"  >
<g label="Query sequence" class="clusterblast-cluster"  >
<text x="5" y="20" class="clusterblast-acc"  >
Query sequence</text>
<line x1="10" y1="35" x2="778.0" y2="35" style="stroke-width:1; stroke:grey; "  />
<polygon points="0,35 5,30 48,30 48,40 5,40 0,35 " style="fill:white; stroke-width:1; stroke:black; " description="&lt;b&gt;input.path1.gene97&lt;/b&gt;&lt;br&gt;input.path1.gene97&lt;br&gt;Location: 294027 - 299391" locus_tag="input.path1.gene97" class="clusterblast-orf" id="dummy-2_q0_0_all"  />
<polygon points="102,40 112,40 117,35 112,30 102,30 102,40 " style="fill:white; stroke-width:1; stroke:black; " description="&lt;b&gt;input.path1.gene98&lt;/b&gt;&lt;br&gt;input.path1.gene98&lt;br&gt;Location: 305299 - 306943" locus_tag="input.path1.gene98" class="clusterblast-orf" id="dummy-2_q1_0_all"  />
<polygon points="134,40 137,40 142,35 137,30 134,30 134,40 " style="fill:white; stroke-width:1; stroke:black; " description="&lt;b&gt;input.path1.gene99&lt;/b&gt;&lt;br&gt;input.path1.gene99&lt;br&gt;Location: 308909 - 309772" locus_tag="input.path1.gene99" class="clusterblast-orf" id="dummy-2_q2_0_all"  />
<polygon points="159,40 162,35 159,30 159,40 " style="fill:white; stroke-width:1; stroke:black; " description="&lt;b&gt;input.path1.gene100&lt;/b&gt;&lt;br&gt;input.path1.gene100&lt;br&gt;Location: 311614 - 311958" locus_tag="input.path1.gene100" class="clusterblast-orf" id="dummy-2_q3_0_all"  />
<polygon points="170,35 175,30 178,30 178,40 175,40 170,35 " style="fill:#d81515; stroke-width:1; stroke:black; " description="&lt;b&gt;input.path1.gene101&lt;/b&gt;&lt;br&gt;input.path1.gene101&lt;br&gt;Location: 312804 - 313755" locus_tag="input.path1.gene101" class="clusterblast-orf" id="dummy-2_q4_0_all"  />
<polygon points="202,40 204,40 209,35 204,30 202,30 202,40 " style="fill:#3cd815; stroke-width:1; stroke:black; " description="&lt;b&gt;input.path1.gene102&lt;/b&gt;&lt;br&gt;input.path1.gene102&lt;br&gt;Location: 316354 - 317196" locus_tag="input.path1.gene102" class="clusterblast-orf" id="dummy-2_q5_0_all"  />
<polygon points="212,35 217,30 220,30 220,40 217,40 212,35 " style="fill:#1563d8; stroke-width:1; stroke:black; " description="&lt;b&gt;input.path1.gene103&lt;/b&gt;&lt;br&gt;input.path1.gene103&lt;br&gt;Location: 317546 - 318428" locus_tag="input.path1.gene103" class="clusterblast-orf" id="dummy-2_q6_0_all"  />
<polygon points="225,35 228,30 228,40 225,35 " style="fill:#1563d8; stroke-width:1; stroke:black; " description="&lt;b&gt;input.path1.gene104&lt;/b&gt;&lt;br&gt;input.path1.gene104&lt;br&gt;Location: 318918 - 319246" locus_tag="input.path1.gene104" class="clusterblast-orf" id="dummy-2_q7_0_all"  />
<polygon points="230,35 235,30 256,30 256,40 235,40 230,35 " style="fill:white; stroke-width:1; stroke:black; " description="&lt;b&gt;input.path1.gene105&lt;/b&gt;&lt;br&gt;input.path1.gene105&lt;br&gt;Location: 319451 - 322378" locus_tag="input.path1.gene105" class="clusterblast-orf" id="dummy-2_q8_0_all"  />
<polygon points="257,40 274,40 279,35 274,30 257,30 257,40 " style="fill:#b115d8; stroke-width:1; stroke:black; " description="&lt;b&gt;input.path1.gene106&lt;/b&gt;&lt;br&gt;input.path1.gene106&lt;br&gt;Location: 322494 - 324846" locus_tag="input.path1.gene106" class="clusterblast-orf" id="dummy-2_q9_0_all"  />
<polygon points="286,40 297,40 302,35 297,30 286,30 286,40 " style="fill:white; stroke-width:1; stroke:black; " description="&lt;b&gt;input.path1.gene107&lt;/b&gt;&lt;br&gt;input.path1.gene107&lt;br&gt;Location: 325707 - 327439" locus_tag="input.path1.gene107" class="clusterblast-orf" id="dummy-2_q10_0_all"  />
<polygon points="304,40 321,40 326,35 321,30 304,30 304,40 " style="fill:#d88a15; stroke-width:1; stroke:black; " description="&lt;b&gt;input.path1.gene108&lt;/b&gt;&lt;br&gt;input.path1.gene108&lt;br&gt;Location: 327683 - 330141" locus_tag="input.path1.gene108" class="clusterblast-orf" id="dummy-2_q11_0_all"  />
<polygon points="330,40 334,40 339,35 334,30 330,30 330,40 " style="fill:white; stroke-width:1; stroke:black; " description="&lt;b&gt;input.path1.gene109&lt;/b&gt;&lt;br&gt;input.path1.gene109&lt;br&gt;Location: 330516 - 331509" locus_tag="input.path1.gene109" class="clusterblast-orf" id="dummy-2_q12_0_all"  />
<polygon points="343,35 348,30 358,30 358,40 348,40 343,35 " style="fill:#15d863; stroke-width:1; stroke:black; " description="&lt;b&gt;input.path1.gene110&lt;/b&gt;&lt;br&gt;input.path1.gene110&lt;br&gt;Location: 331940 - 333615" locus_tag="input.path1.gene110" class="clusterblast-orf" id="dummy-2_q13_0_all"  />
<polygon points="375,40 379,40 384,35 379,30 375,30 375,40 " style="fill:white; stroke-width:1; stroke:black; " description="&lt;b&gt;input.path1.gene111&lt;/b&gt;&lt;br&gt;input.path1.gene111&lt;br&gt;Location: 335461 - 336505" locus_tag="input.path1.gene111" class="clusterblast-orf" id="dummy-2_q14_0_all"  />
<polygon points="391,40 394,40 399,35 394,30 391,30 391,40 " style="fill:white; stroke-width:1; stroke:black; " description="&lt;b&gt;input.path1.gene112&lt;/b&gt;&lt;br&gt;input.path1.gene112&lt;br&gt;Location: 337278 - 338173" locus_tag="input.path1.gene112" class="clusterblast-orf" id="dummy-2_q15_0_all"  />
<polygon points="400,35 405,30 422,30 422,40 405,40 400,35 " style="fill:white; stroke-width:1; stroke:black; " description="&lt;b&gt;input.path1.gene113&lt;/b&gt;&lt;br&gt;input.path1.gene113&lt;br&gt;Location: 338291 - 340745" locus_tag="input.path1.gene113" class="clusterblast-orf" id="dummy-2_q16_0_all"  />
<polygon points="439,40 449,40 454,35 449,30 439,30 439,40 " style="fill:#3c15d8; stroke-width:1; stroke:black; " description="&lt;b&gt;input.path1.gene114&lt;/b&gt;&lt;br&gt;input.path1.gene114&lt;br&gt;Location: 342553 - 344222" locus_tag="input.path1.gene114" class="clusterblast-orf" id="dummy-2_q17_0_all"  />
<polygon points="468,35 473,30 485,30 485,40 473,40 468,35 " style="fill:white; stroke-width:1; stroke:black; " description="&lt;b&gt;input.path1.gene115&lt;/b&gt;&lt;br&gt;input.path1.gene115&lt;br&gt;Location: 345773 - 347606" locus_tag="input.path1.gene115" class="clusterblast-orf" id="dummy-2_q18_0_all"  />
<polygon points="494,40 505,40 510,35 505,30 494,30 494,40 " style="fill:white; stroke-width:1; stroke:black; " description="&lt;b&gt;input.path1.gene116&lt;/b&gt;&lt;br&gt;input.path1.gene116&lt;br&gt;Location: 348611 - 350417" locus_tag="input.path1.gene116" class="clusterblast-orf" id="dummy-2_q19_0_all"  />
<polygon points="520,35 525,30 534,30 534,40 525,40 520,35 " style="fill:#d8158a; stroke-width:1; stroke:black; " description="&lt;b&gt;input.path1.gene117&lt;/b&gt;&lt;br&gt;input.path1.gene117&lt;br&gt;Location: 351492 - 353014" locus_tag="input.path1.gene117" class="clusterblast-orf" id="dummy-2_q20_0_all"  />
<polygon points="534,35 539,30 601,30 601,40 539,40 534,35 " style="fill:#b1d815; stroke-width:1; stroke:black; " description="&lt;b&gt;input.path1.gene118&lt;/b&gt;&lt;br&gt;input.path1.gene118&lt;br&gt;Location: 353045 - 360465" locus_tag="input.path1.gene118" class="clusterblast-orf" id="dummy-2_q21_0_all"  />
<polygon points="608,40 617,40 622,35 617,30 608,30 608,40 " style="fill:white; stroke-width:1; stroke:black; " description="&lt;b&gt;input.path1.gene119&lt;/b&gt;&lt;br&gt;input.path1.gene119&lt;br&gt;Location: 361288 - 362793" locus_tag="input.path1.gene119" class="clusterblast-orf" id="dummy-2_q22_0_all"  />
<polygon points="627,40 632,40 637,35 632,30 627,30 627,40 " style="fill:white; stroke-width:1; stroke:black; " description="&lt;b&gt;input.path1.gene120&lt;/b&gt;&lt;br&gt;input.path1.gene120&lt;br&gt;Location: 363299 - 364451" locus_tag="input.path1.gene120" class="clusterblast-orf" id="dummy-2_q23_0_all"  />
<polygon points="637,35 642,30 667,30 667,40 642,40 637,35 " style="fill:white; stroke-width:1; stroke:black; " description="&lt;b&gt;input.path1.gene121&lt;/b&gt;&lt;br&gt;input.path1.gene121&lt;br&gt;Location: 364493 - 367717" locus_tag="input.path1.gene121" class="clusterblast-orf" id="dummy-2_q24_0_all"  />
<polygon points="713,40 714,40 719,35 714,30 713,30 713,40 " style="fill:white; stroke-width:1; stroke:black; " description="&lt;b&gt;input.path1.gene122&lt;/b&gt;&lt;br&gt;input.path1.gene122&lt;br&gt;Location: 372873 - 373495" locus_tag="input.path1.gene122" class="clusterblast-orf" id="dummy-2_q25_0_all"  />
<polygon points="726,35 731,30 740,30 740,40 731,40 726,35 " style="fill:white; stroke-width:1; stroke:black; " description="&lt;b&gt;input.path1.gene123&lt;/b&gt;&lt;br&gt;input.path1.gene123&lt;br&gt;Location: 374304 - 375875" locus_tag="input.path1.gene123" class="clusterblast-orf" id="dummy-2_q26_0_all"  />
<polygon points="754,35 759,30 780,30 780,40 759,40 754,35 " style="fill:#15d8d8; stroke-width:1; stroke:black; " description="&lt;b&gt;input.path1.gene124&lt;/b&gt;&lt;br&gt;input.path1.gene124&lt;br&gt;Location: 377337 - 380195" locus_tag="input.path1.gene124" class="clusterblast-orf" id="dummy-2_q27_0_all"  />
</g>
<g label="NW_024467526" description="NW_024467526 (3357689-3444377): Aspergillus versicolor CBS 583.65 unplaced ge... (7% of genes show similarity), T1PKS,terpene" class="clusterblast-cluster"  >
<text x="5" y="70" class="clusterblast-acc"  >
<a xlink:href="https://antismash-db.secondarymetabolites.org/area?record=NW_024467526&amp;start=3357689&amp;end=3444377" target="_blank">NW_024467526 (3357689-3444377)</a>: Aspergillus versicolor CBS 583.65 unplaced ge... (7% of genes show similarity), T1PKS,terpene</text>
<line x1="10" y1="85" x2="778.0" y2="85" style="stroke-width:1; stroke:grey; "  />
</g>
<g id="a2_000"  >
<polygon points="8,85 12,80 12,90 8,85 " style="fill:white; stroke-width:1; stroke:black; " description="&lt;b&gt;ASPVEDRAFT_592559&lt;/b&gt;&lt;br&gt;uncharacterized protein&lt;br&gt;Location: 3359850 - 3360320" locus_tag="ASPVEDRAFT_592559" class="clusterblast-orf" id="dummy-2_h2_3_0"  />
</g>
<g id="a2_001"  >
<polygon points="98,85 101,80 101,90 98,85 " style="fill:white; stroke-width:1; stroke:black; " description="&lt;b&gt;ASPVEDRAFT_592525&lt;/b&gt;&lt;br&gt;uncharacterized protein&lt;br&gt;Location: 3369795 - 3370139" locus_tag="ASPVEDRAFT_592525" class="clusterblast-orf" id="dummy-2_h2_3_1"  />
</g>
<g id="a2_002"  >
<polygon points="113,90 122,90 127,85 122,80 113,80 113,90 " style="fill:white; stroke-width:1; stroke:black; " description="&lt;b&gt;ASPVEDRAFT_51944&lt;/b&gt;&lt;br&gt;uncharacterized protein&lt;br&gt;Location: 3371430 - 3373024" locus_tag="ASPVEDRAFT_51944" class="clusterblast-orf" id="dummy-2_h2_3_2"  />
</g>
<g id="a2_003"  >
<polygon points="153,85 157,80 157,90 153,85 " style="fill:white; stroke-width:1; stroke:black; " description="&lt;b&gt;ASPVEDRAFT_40392&lt;/b&gt;&lt;br&gt;uncharacterized protein&lt;br&gt;Location: 3375925 - 3376365" locus_tag="ASPVEDRAFT_40392" class="clusterblast-orf" id="dummy-2_h2_3_3"  />
</g>
<g id="a2_004"  >
<polygon points="171,85 176,80 187,80 187,90 176,90 171,85 " style="fill:#1563d8; stroke-width:1; stroke:black; " description="&lt;b&gt;ASPVEDRAFT_128807&lt;/b&gt;&lt;br&gt;uncharacterized protein&lt;br&gt;Location: 3377925 - 3379615&lt;br&gt;&lt;br&gt;&lt;b&gt;BlastP hit with input.path1.gene103&lt;/b&gt;&lt;br&gt;Percentage identity: 40&lt;br&gt;Percentage coverage: 81&lt;br&gt;BLAST bit score: 170&lt;br&gt;E-value: 4.47e-47&lt;br&gt;&lt;br&gt;&lt;b&gt;BlastP hit with input.path1.gene104&lt;/b&gt;&lt;br&gt;Percentage identity: 40&lt;br&gt;Percentage coverage: 87&lt;br&gt;BLAST bit score: 56&lt;br&gt;E-value: 1.68e-08" locus_tag="ASPVEDRAFT_128807" class="clusterblast-orf" id="dummy-2_h2_3_4"  />
</g>
<g id="a2_005"  >
<polygon points="207,90 213,90 218,85 213,80 207,80 207,90 " style="fill:white; stroke-width:1; stroke:black; " description="&lt;b&gt;ASPVEDRAFT_51938&lt;/b&gt;&lt;br&gt;uncharacterized protein&lt;br&gt;Location: 3381826 - 3383110" locus_tag="ASPVEDRAFT_51938" class="clusterblast-orf" id="dummy-2_h2_3_5"  />
</g>
<g id="a2_006"  >
<polygon points="223,90 232,90 237,85 232,80 223,80 223,90 " style="fill:white; stroke-width:1; stroke:black; " description="&lt;b&gt;ASPVEDRAFT_592630&lt;/b&gt;&lt;br&gt;uncharacterized protein&lt;br&gt;Location: 3383564 - 3385219" locus_tag="ASPVEDRAFT_592630" class="clusterblast-orf" id="dummy-2_h2_3_6"  />
</g>
<g id="a2_007"  >
<polygon points="239,85 244,80 255,80 255,90 244,90 239,85 " style="fill:white; stroke-width:1; stroke:black; " description="&lt;b&gt;ASPVEDRAFT_592672&lt;/b&gt;&lt;br&gt;uncharacterized protein&lt;br&gt;Location: 3385365 - 3387098" locus_tag="ASPVEDRAFT_592672" class="clusterblast-orf" id="dummy-2_h2_3_7"  />
</g>
<g id="a2_008"  >
<polygon points="260,85 265,80 329,80 329,90 265,90 260,85 " style="fill:#b1d815; stroke-width:1; stroke:black; " description="&lt;b&gt;ASPVEDRAFT_126971&lt;/b&gt;&lt;br&gt;uncharacterized protein&lt;br&gt;Location: 3387690 - 3395338&lt;br&gt;&lt;br&gt;&lt;b&gt;BlastP hit with input.path1.gene118&lt;/b&gt;&lt;br&gt;Percentage identity: 34&lt;br&gt;Percentage coverage: 84&lt;br&gt;BLAST bit score: 986&lt;br&gt;E-value: 8.41e-315" locus_tag="ASPVEDRAFT_126971" class="clusterblast-orf" id="dummy-2_h2_3_8"  />
</g>
<g id="a2_009"  >
<polygon points="339,85 344,80 354,80 354,90 344,90 339,85 " style="fill:white; stroke-width:1; stroke:black; " description="&lt;b&gt;ASPVEDRAFT_128228&lt;/b&gt;&lt;br&gt;uncharacterized protein&lt;br&gt;Location: 3396441 - 3398078" locus_tag="ASPVEDRAFT_128228" class="clusterblast-orf" id="dummy-2_h2_3_9"  />
</g>
<g id="a2_0010"  >
<polygon points="373,90 380,90 385,85 380,80 373,80 373,90 " style="fill:white; stroke-width:1; stroke:black; " description="&lt;b&gt;ASPVEDRAFT_127449&lt;/b&gt;&lt;br&gt;uncharacterized protein&lt;br&gt;Location: 3400167 - 3401537" locus_tag="ASPVEDRAFT_127449" class="clusterblast-orf" id="dummy-2_h2_3_10"  />
</g>
<g id="a2_0011"  >
<polygon points="388,85 393,80 403,80 403,90 393,90 388,85 " style="fill:white; stroke-width:1; stroke:black; " description="&lt;b&gt;ASPVEDRAFT_51946&lt;/b&gt;&lt;br&gt;uncharacterized protein&lt;br&gt;Location: 3401805 - 3403488" locus_tag="ASPVEDRAFT_51946" class="clusterblast-orf" id="dummy-2_h2_3_11"  />
</g>
<g id="a2_0012"  >
<polygon points="408,90 416,90 421,85 416,80 408,80 408,90 " style="fill:white; stroke-width:1; stroke:black; " description="&lt;b&gt;ASPVEDRAFT_126632&lt;/b&gt;&lt;br&gt;uncharacterized protein&lt;br&gt;Location: 3404063 - 3405504" locus_tag="ASPVEDRAFT_126632" class="clusterblast-orf" id="dummy-2_h2_3_12"  />
</g>
<g id="a2_0013"  >
<polygon points="424,85 426,80 426,90 424,85 " style="fill:white; stroke-width:1; stroke:black; " description="&lt;b&gt;ASPVEDRAFT_126990&lt;/b&gt;&lt;br&gt;uncharacterized protein&lt;br&gt;Location: 3405785 - 3406069" locus_tag="ASPVEDRAFT_126990" class="clusterblast-orf" id="dummy-2_h2_3_13"  />
</g>
<g id="a2_0014"  >
<polygon points="427,85 432,80 481,80 481,90 432,90 427,85 " style="fill:white; stroke-width:1; stroke:black; " description="&lt;b&gt;ASPVEDRAFT_593308&lt;/b&gt;&lt;br&gt;uncharacterized protein&lt;br&gt;Location: 3406159 - 3412149" locus_tag="ASPVEDRAFT_593308" class="clusterblast-orf" id="dummy-2_h2_3_14"  />
</g>
<g id="a2_0015"  >
<polygon points="487,90 532,90 537,85 532,80 487,80 487,90 " style="fill:white; stroke-width:1; stroke:black; " description="&lt;b&gt;ASPVEDRAFT_593098&lt;/b&gt;&lt;br&gt;uncharacterized protein&lt;br&gt;Location: 3412803 - 3418326" locus_tag="ASPVEDRAFT_593098" class="clusterblast-orf" id="dummy-2_h2_3_15"  />
</g>
<g id="a2_0016"  >
<polygon points="538,85 543,80 551,80 551,90 543,90 538,85 " style="fill:white; stroke-width:1; stroke:black; " description="&lt;b&gt;ASPVEDRAFT_126360&lt;/b&gt;&lt;br&gt;uncharacterized protein&lt;br&gt;Location: 3418432 - 3419885" locus_tag="ASPVEDRAFT_126360" class="clusterblast-orf" id="dummy-2_h2_3_16"  />
</g>
<g id="a2_0017"  >
<polygon points="567,85 572,80 578,80 578,90 572,90 567,85 " style="fill:white; stroke-width:1; stroke:black; " description="&lt;b&gt;ASPVEDRAFT_51951&lt;/b&gt;&lt;br&gt;uncharacterized protein&lt;br&gt;Location: 3421644 - 3422799" locus_tag="ASPVEDRAFT_51951" class="clusterblast-orf" id="dummy-2_h2_3_17"  />
</g>
<g id="a2_0018"  >
<polygon points="590,85 595,80 600,80 600,90 595,90 590,85 " style="fill:white; stroke-width:1; stroke:black; " description="&lt;b&gt;ASPVEDRAFT_40406&lt;/b&gt;&lt;br&gt;uncharacterized protein&lt;br&gt;Location: 3424129 - 3425253" locus_tag="ASPVEDRAFT_40406" class="clusterblast-orf" id="dummy-2_h2_3_18"  />
</g>
<g id="a2_0019"  >
<polygon points="611,85 616,80 617,80 617,90 616,90 611,85 " style="fill:white; stroke-width:1; stroke:black; " description="&lt;b&gt;ASPVEDRAFT_128644&lt;/b&gt;&lt;br&gt;uncharacterized protein&lt;br&gt;Location: 3426534 - 3427160" locus_tag="ASPVEDRAFT_128644" class="clusterblast-orf" id="dummy-2_h2_3_19"  />
</g>
<g id="a2_0020"  >
<polygon points="623,85 628,80 637,80 637,90 628,90 623,85 " style="fill:white; stroke-width:1; stroke:black; " description="&lt;b&gt;ASPVEDRAFT_166084&lt;/b&gt;&lt;br&gt;uncharacterized protein&lt;br&gt;Location: 3427795 - 3429377" locus_tag="ASPVEDRAFT_166084" class="clusterblast-orf" id="dummy-2_h2_3_20"  />
</g>
<g id="a2_0021"  >
<polygon points="644,90 654,90 659,85 654,80 644,80 644,90 " style="fill:white; stroke-width:1; stroke:black; " description="&lt;b&gt;ASPVEDRAFT_40409&lt;/b&gt;&lt;br&gt;uncharacterized protein&lt;br&gt;Location: 3430128 - 3431814" locus_tag="ASPVEDRAFT_40409" class="clusterblast-orf" id="dummy-2_h2_3_21"  />
</g>
<g id="a2_0022"  >
<polygon points="667,90 669,90 674,85 669,80 667,80 667,90 " style="fill:white; stroke-width:1; stroke:black; " description="&lt;b&gt;ASPVEDRAFT_594352&lt;/b&gt;&lt;br&gt;uncharacterized protein&lt;br&gt;Location: 3432669 - 3433475" locus_tag="ASPVEDRAFT_594352" class="clusterblast-orf" id="dummy-2_h2_3_22"  />
</g>
<g id="a2_0023"  >
<polygon points="680,85 685,80 696,80 696,90 685,90 680,85 " style="fill:white; stroke-width:1; stroke:black; " description="&lt;b&gt;ASPVEDRAFT_127125&lt;/b&gt;&lt;br&gt;uncharacterized protein&lt;br&gt;Location: 3434110 - 3435870" locus_tag="ASPVEDRAFT_127125" class="clusterblast-orf" id="dummy-2_h2_3_23"  />
</g>
<g id="a2_0024"  >
<polygon points="705,85 710,80 723,80 723,90 710,90 705,85 " style="fill:white; stroke-width:1; stroke:black; " description="&lt;b&gt;ASPVEDRAFT_127276&lt;/b&gt;&lt;br&gt;uncharacterized protein&lt;br&gt;Location: 3436908 - 3438800" locus_tag="ASPVEDRAFT_127276" class="clusterblast-orf" id="dummy-2_h2_3_24"  />
</g>
<g id="a2_0025"  >
<polygon points="724,90 740,90 745,85 740,80 724,80 724,90 " style="fill:white; stroke-width:1; stroke:black; " description="&lt;b&gt;ASPVEDRAFT_128846&lt;/b&gt;&lt;br&gt;uncharacterized protein&lt;br&gt;Location: 3439013 - 3441330" locus_tag="ASPVEDRAFT_128846" class="clusterblast-orf" id="dummy-2_h2_3_25"  />
</g>
<g id="a2_0026"  >
<polygon points="755,90 766,90 771,85 766,80 755,80 755,90 " style="fill:white; stroke-width:1; stroke:black; " description="&lt;b&gt;ASPVEDRAFT_51958&lt;/b&gt;&lt;br&gt;uncharacterized protein&lt;br&gt;Location: 3442360 - 3444171" locus_tag="ASPVEDRAFT_51958" class="clusterblast-orf" id="dummy-2_h2_3_26"  />
</g>
</svg>
