<svg xmlns="http://www.w3.org/2000/svg" xmlns:xlink="http://www.w3.org/1999/xlink" version="1.1" x="0" y="0" height="150" width="800" viewBox="0 0 800 150" preserveAspectRatio="none"  >
<g label="Query sequence" class="clusterblast-cluster"  >
<text x="5" y="20" class="clusterblast-acc"  >
Query sequence</text>
<line x1="10" y1="35" x2="778.0" y2="35" style="stroke-width:1; stroke:grey; "  />
<polygon points="194,35 199,30 223,30 223,40 199,40 194,35 " style="fill:white; stroke-width:1; stroke:black; " description="&lt;b&gt;input.path1.gene168&lt;/b&gt;&lt;br&gt;input.path1.gene168&lt;br&gt;Location: 528807 - 530959" locus_tag="input.path1.gene168" class="clusterblast-orf" id="knownclusterblast-1_q0_0_all"  />
<polygon points="230,40 246,40 251,35 246,30 230,30 230,40 " style="fill:#d81515; stroke-width:1; stroke:black; " description="&lt;b&gt;input.path1.gene169&lt;/b&gt;&lt;br&gt;input.path1.gene169&lt;br&gt;Location: 531471 - 533124" locus_tag="input.path1.gene169" class="clusterblast-orf" id="knownclusterblast-1_q1_0_all"  />
<polygon points="254,40 272,40 277,35 272,30 254,30 254,40 " style="fill:white; stroke-width:1; stroke:black; " description="&lt;b&gt;input.path1.gene170&lt;/b&gt;&lt;br&gt;input.path1.gene170&lt;br&gt;Location: 533343 - 535081" locus_tag="input.path1.gene170" class="clusterblast-orf" id="knownclusterblast-1_q2_0_all"  />
<polygon points="279,35 284,30 299,30 299,40 284,40 279,35 " style="fill:#15d815; stroke-width:1; stroke:black; " description="&lt;b&gt;input.path1.gene171&lt;/b&gt;&lt;br&gt;input.path1.gene171&lt;br&gt;Location: 535189 - 536738" locus_tag="input.path1.gene171" class="clusterblast-orf" id="knownclusterblast-1_q3_0_all"  />
<polygon points="326,40 329,40 334,35 329,30 326,30 326,40 " style="fill:#1515d8; stroke-width:1; stroke:black; " description="&lt;b&gt;input.path1.gene172&lt;/b&gt;&lt;br&gt;input.path1.gene172&lt;br&gt;Location: 538794 - 539376" locus_tag="input.path1.gene172" class="clusterblast-orf" id="knownclusterblast-1_q4_0_all"  />
<polygon points="340,35 345,30 382,30 382,40 345,40 340,35 " style="fill:white; stroke-width:1; stroke:black; " description="&lt;b&gt;input.path1.gene173&lt;/b&gt;&lt;br&gt;input.path1.gene173&lt;br&gt;Location: 539831 - 543059" locus_tag="input.path1.gene173" class="clusterblast-orf" id="knownclusterblast-1_q5_0_all"  />
<polygon points="403,40 418,40 423,35 418,30 403,30 403,40 " style="fill:white; stroke-width:1; stroke:black; " description="&lt;b&gt;input.path1.gene174&lt;/b&gt;&lt;br&gt;input.path1.gene174&lt;br&gt;Location: 544641 - 546137" locus_tag="input.path1.gene174" class="clusterblast-orf" id="knownclusterblast-1_q6_0_all"  />
<polygon points="424,35 429,30 442,30 442,40 429,40 424,35 " style="fill:white; stroke-width:1; stroke:black; " description="&lt;b&gt;input.path1.gene175&lt;/b&gt;&lt;br&gt;input.path1.gene175&lt;br&gt;Location: 546235 - 547591" locus_tag="input.path1.gene175" class="clusterblast-orf" id="knownclusterblast-1_q7_0_all"  />
<polygon points="448,40 453,40 458,35 453,30 448,30 448,40 " style="fill:#d815d8; stroke-width:1; stroke:black; " description="&lt;b&gt;input.path1.gene176&lt;/b&gt;&lt;br&gt;input.path1.gene176&lt;br&gt;Location: 548063 - 548774" locus_tag="input.path1.gene176" class="clusterblast-orf" id="knownclusterblast-1_q8_0_all"  />
<polygon points="472,40 491,40 496,35 491,30 472,30 472,40 " style="fill:#d8d815; stroke-width:1; stroke:black; " description="&lt;b&gt;input.path1.gene177&lt;/b&gt;&lt;br&gt;input.path1.gene177&lt;br&gt;Location: 549852 - 551680" locus_tag="input.path1.gene177" class="clusterblast-orf" id="knownclusterblast-1_q9_0_all"  />
<polygon points="512,40 521,40 526,35 521,30 512,30 512,40 " style="fill:#15d8d8; stroke-width:1; stroke:black; " description="&lt;b&gt;input.path1.gene178&lt;/b&gt;&lt;br&gt;input.path1.gene178&lt;br&gt;Location: 552872 - 553939" locus_tag="input.path1.gene178" class="clusterblast-orf" id="knownclusterblast-1_q10_0_all"  />
<polygon points="557,40 562,40 567,35 562,30 557,30 557,40 " style="fill:white; stroke-width:1; stroke:black; " description="&lt;b&gt;input.path1.gene179&lt;/b&gt;&lt;br&gt;input.path1.gene179&lt;br&gt;Location: 556308 - 557099" locus_tag="input.path1.gene179" class="clusterblast-orf" id="knownclusterblast-1_q11_0_all"  />
<polygon points="569,35 574,30 585,30 585,40 574,40 569,35 " style="fill:white; stroke-width:1; stroke:black; " description="&lt;b&gt;input.path1.gene180&lt;/b&gt;&lt;br&gt;input.path1.gene180&lt;br&gt;Location: 557232 - 558413" locus_tag="input.path1.gene180" class="clusterblast-orf" id="knownclusterblast-1_q12_0_all"  />
</g>
<g label="BGC0000627" description="BGC0000627_c1: ustiloxin B (31% of genes show similarity), RiPP:Dikaritin" class="clusterblast-cluster"  >
<text x="5" y="70" class="clusterblast-acc"  >
<a xlink:href="https://mibig.secondarymetabolites.org/go/BGC0000627/1" target="_blank">BGC0000627</a>: ustiloxin B                                                                      (31% of genes show similarity), RiPP:Dikaritin</text>
<line x1="10" y1="85" x2="778.0" y2="85" style="stroke-width:1; stroke:grey; "  />
</g>
<g id="a1_000"  >
<polygon points="203,90 205,90 210,85 205,80 203,80 203,90 " style="fill:white; stroke-width:1; stroke:black; " description="&lt;b&gt;AFLA_094930&lt;/b&gt;&lt;br&gt;hypothetical protein&lt;br&gt;Location: 1 - 543" locus_tag="AFLA_094930" class="clusterblast-orf" id="knownclusterblast-1_all_1_1_0"  />
</g>
<g id="a1_001"  >
<polygon points="214,85 219,80 225,80 225,90 219,90 214,85 " style="fill:white; stroke-width:1; stroke:black; " description="&lt;b&gt;AFLA_094940&lt;/b&gt;&lt;br&gt;conserved hypothetical protein&lt;br&gt;Location: 869 - 1682" locus_tag="AFLA_094940" class="clusterblast-orf" id="knownclusterblast-1_all_1_1_1"  />
</g>
<g id="a1_002"  >
<polygon points="230,90 249,90 254,85 249,80 230,80 230,90 " style="fill:white; stroke-width:1; stroke:black; " description="&lt;b&gt;AFLA_094950&lt;/b&gt;&lt;br&gt;monooxygenase, putative&lt;br&gt;Location: 2032 - 3843" locus_tag="AFLA_094950" class="clusterblast-orf" id="knownclusterblast-1_all_1_1_2"  />
</g>
<g id="a1_003"  >
<polygon points="256,90 276,90 281,85 276,80 256,80 256,90 " style="fill:white; stroke-width:1; stroke:black; " description="&lt;b&gt;AFLA_094960&lt;/b&gt;&lt;br&gt;cytochrome P450, putative&lt;br&gt;Location: 4050 - 5918" locus_tag="AFLA_094960" class="clusterblast-orf" id="knownclusterblast-1_all_1_1_3"  />
</g>
<g id="a1_004"  >
<polygon points="282,85 287,80 289,80 289,90 287,90 282,85 " style="fill:white; stroke-width:1; stroke:black; " description="&lt;b&gt;AFLA_094970&lt;/b&gt;&lt;br&gt;hypothetical protein&lt;br&gt;Location: 5977 - 6496" locus_tag="AFLA_094970" class="clusterblast-orf" id="knownclusterblast-1_all_1_1_4"  />
</g>
<g id="a1_005"  >
<polygon points="290,90 295,90 300,85 295,80 290,80 290,90 " style="fill:white; stroke-width:1; stroke:black; " description="&lt;b&gt;AFLA_094980&lt;/b&gt;&lt;br&gt;conserved hypothetical protein&lt;br&gt;Location: 6621 - 7390" locus_tag="AFLA_094980" class="clusterblast-orf" id="knownclusterblast-1_all_1_1_5"  />
</g>
<g id="a1_006"  >
<polygon points="306,85 311,80 318,80 318,90 311,90 306,85 " style="fill:#1515d8; stroke-width:1; stroke:black; " description="&lt;b&gt;AFLA_094990&lt;/b&gt;&lt;br&gt;conserved hypothetical protein&lt;br&gt;Location: 7835 - 8744&lt;br&gt;&lt;br&gt;&lt;b&gt;BlastP hit with input.path1.gene172&lt;/b&gt;&lt;br&gt;Percentage identity: 61&lt;br&gt;Percentage coverage: 45&lt;br&gt;BLAST bit score: 78&lt;br&gt;E-value: 1.46e-18" locus_tag="AFLA_094990" class="clusterblast-orf" id="knownclusterblast-1_all_1_1_6"  />
</g>
<g id="a1_007"  >
<polygon points="322,90 326,85 322,80 322,90 " style="fill:white; stroke-width:1; stroke:black; " description="&lt;b&gt;AFLA_095000&lt;/b&gt;&lt;br&gt;hypothetical protein&lt;br&gt;Location: 9035 - 9300" locus_tag="AFLA_095000" class="clusterblast-orf" id="knownclusterblast-1_all_1_1_7"  />
</g>
<g id="a1_008"  >
<polygon points="334,90 348,90 353,85 348,80 334,80 334,90 " style="fill:white; stroke-width:1; stroke:black; " description="&lt;b&gt;AFLA_095010&lt;/b&gt;&lt;br&gt;conserved hypothetical protein&lt;br&gt;Location: 9902 - 11391" locus_tag="AFLA_095010" class="clusterblast-orf" id="knownclusterblast-1_all_1_1_8"  />
</g>
<g id="a1_009"  >
<polygon points="354,85 359,80 362,80 362,90 359,90 354,85 " style="fill:white; stroke-width:1; stroke:black; " description="&lt;b&gt;AFLA_095020&lt;/b&gt;&lt;br&gt;hypothetical protein&lt;br&gt;Location: 11492 - 12036" locus_tag="AFLA_095020" class="clusterblast-orf" id="knownclusterblast-1_all_1_1_9"  />
</g>
<g id="a1_0010"  >
<polygon points="373,90 395,90 400,85 395,80 373,80 373,90 " style="fill:#d8d815; stroke-width:1; stroke:black; " description="&lt;b&gt;AFLA_095030&lt;/b&gt;&lt;br&gt;gamma glutamyl transpeptidase, putative&lt;br&gt;Location: 12908 - 14972&lt;br&gt;&lt;br&gt;&lt;b&gt;BlastP hit with input.path1.gene177&lt;/b&gt;&lt;br&gt;Percentage identity: 48&lt;br&gt;Percentage coverage: 115&lt;br&gt;BLAST bit score: 449&lt;br&gt;E-value: 5.85e-154" locus_tag="AFLA_095030" class="clusterblast-orf" id="knownclusterblast-1_all_1_1_10"  />
</g>
<g id="a1_0011"  >
<polygon points="402,85 407,80 421,80 421,90 407,90 402,85 " style="fill:white; stroke-width:1; stroke:black; " description="&lt;b&gt;AFLA_095040&lt;/b&gt;&lt;br&gt;NRPS-like enzyme, putative&lt;br&gt;Location: 15080 - 16532" locus_tag="AFLA_095040" class="clusterblast-orf" id="knownclusterblast-1_all_1_1_11"  />
</g>
<g id="a1_0012"  >
<polygon points="424,90 441,90 446,85 441,80 424,80 424,90 " style="fill:#d81515; stroke-width:1; stroke:black; " description="&lt;b&gt;AFLA_095050&lt;/b&gt;&lt;br&gt;dimethylaniline monooxygenase, putative&lt;br&gt;Location: 16797 - 18446&lt;br&gt;&lt;br&gt;&lt;b&gt;BlastP hit with input.path1.gene169&lt;/b&gt;&lt;br&gt;Percentage identity: 49&lt;br&gt;Percentage coverage: 101&lt;br&gt;BLAST bit score: 482&lt;br&gt;E-value: 2.42e-167" locus_tag="AFLA_095050" class="clusterblast-orf" id="knownclusterblast-1_all_1_1_12"  />
</g>
<g id="a1_0013"  >
<polygon points="449,90 462,90 467,85 462,80 449,80 449,90 " style="fill:#15d815; stroke-width:1; stroke:black; " description="&lt;b&gt;AFLA_095060&lt;/b&gt;&lt;br&gt;tyrosinase, putative&lt;br&gt;Location: 18661 - 20010&lt;br&gt;&lt;br&gt;&lt;b&gt;BlastP hit with input.path1.gene171&lt;/b&gt;&lt;br&gt;Percentage identity: 58&lt;br&gt;Percentage coverage: 87&lt;br&gt;BLAST bit score: 303&lt;br&gt;E-value: 2.45e-102" locus_tag="AFLA_095060" class="clusterblast-orf" id="knownclusterblast-1_all_1_1_13"  />
</g>
<g id="a1_0014"  >
<polygon points="468,85 473,80 492,80 492,90 473,90 468,85 " style="fill:#15d8d8; stroke-width:1; stroke:black; " description="&lt;b&gt;AFLA_095070&lt;/b&gt;&lt;br&gt;MFS multidrug transporter, putative&lt;br&gt;Location: 20134 - 21924&lt;br&gt;&lt;br&gt;&lt;b&gt;BlastP hit with input.path1.gene178&lt;/b&gt;&lt;br&gt;Percentage identity: 49&lt;br&gt;Percentage coverage: 73&lt;br&gt;BLAST bit score: 197&lt;br&gt;E-value: 1.22e-59" locus_tag="AFLA_095070" class="clusterblast-orf" id="knownclusterblast-1_all_1_1_14"  />
</g>
<g id="a1_0015"  >
<polygon points="521,90 528,90 533,85 528,80 521,80 521,90 " style="fill:white; stroke-width:1; stroke:black; " description="&lt;b&gt;AFLA_095080&lt;/b&gt;&lt;br&gt;conserved hypothetical protein&lt;br&gt;Location: 24116 - 25009" locus_tag="AFLA_095080" class="clusterblast-orf" id="knownclusterblast-1_all_1_1_15"  />
</g>
<g id="a1_0016"  >
<polygon points="533,90 540,90 545,85 540,80 533,80 533,90 " style="fill:white; stroke-width:1; stroke:black; " description="&lt;b&gt;AFLA_095090&lt;/b&gt;&lt;br&gt;C6 transcription factor, putative&lt;br&gt;Location: 25025 - 25942" locus_tag="AFLA_095090" class="clusterblast-orf" id="knownclusterblast-1_all_1_1_16"  />
</g>
<g id="a1_0017"  >
<polygon points="549,85 554,80 565,80 565,90 554,90 549,85 " style="fill:white; stroke-width:1; stroke:black; " description="&lt;b&gt;AFLA_095100&lt;/b&gt;&lt;br&gt;conserved hypothetical protein&lt;br&gt;Location: 26249 - 27481" locus_tag="AFLA_095100" class="clusterblast-orf" id="knownclusterblast-1_all_1_1_17"  />
</g>
<g id="a1_0018"  >
<polygon points="566,90 571,90 576,85 571,80 566,80 566,90 " style="fill:#d815d8; stroke-width:1; stroke:black; " description="&lt;b&gt;AFLA_095110&lt;/b&gt;&lt;br&gt;conserved hypothetical protein&lt;br&gt;Location: 27564 - 28295&lt;br&gt;&lt;br&gt;&lt;b&gt;BlastP hit with input.path1.gene176&lt;/b&gt;&lt;br&gt;Percentage identity: 64&lt;br&gt;Percentage coverage: 99&lt;br&gt;BLAST bit score: 295&lt;br&gt;E-value: 2.14e-101" locus_tag="AFLA_095110" class="clusterblast-orf" id="knownclusterblast-1_all_1_1_18"  />
</g>
<g label="BGC0001398" description="BGC0001398_c1: phomopsin A/phomopsin B/phomopsin E (9% of genes show similarity), RiPP" class="clusterblast-cluster"  >
<text x="5" y="120" class="clusterblast-acc"  >
<a xlink:href="https://mibig.secondarymetabolites.org/go/BGC0001398/1" target="_blank">BGC0001398</a>: phomopsin A/phomopsin B/phomopsin E                                              (9% of genes show similarity), RiPP</text>
<line x1="10" y1="135" x2="778.0" y2="135" style="stroke-width:1; stroke:grey; "  />
</g>
<g id="a1_000"  >
<polygon points="0,140 2,140 7,135 2,130 0,130 0,140 " style="fill:white; stroke-width:1; stroke:black; " description="&lt;b&gt;BDA39134.1&lt;/b&gt;&lt;br&gt;cupin family protein&lt;br&gt;Location: 5000 - 5569" locus_tag="BDA39134.1" class="clusterblast-orf" id="knownclusterblast-1_all_1_2_0"  />
</g>
<g id="a1_001"  >
<polygon points="55,140 69,140 74,135 69,130 55,130 55,140 " style="fill:white; stroke-width:1; stroke:black; " description="&lt;b&gt;BDA39135.1&lt;/b&gt;&lt;br&gt;transcriptional regulator&lt;br&gt;Location: 9209 - 10618" locus_tag="BDA39135.1" class="clusterblast-orf" id="knownclusterblast-1_all_1_2_1"  />
</g>
<g id="a1_002"  >
<polygon points="98,135 103,130 121,130 121,140 103,140 98,135 " style="fill:white; stroke-width:1; stroke:black; " description="&lt;b&gt;BDA39136.1&lt;/b&gt;&lt;br&gt;MFS transporter&lt;br&gt;Location: 12450 - 14237" locus_tag="BDA39136.1" class="clusterblast-orf" id="knownclusterblast-1_all_1_2_2"  />
</g>
<g id="a1_003"  >
<polygon points="135,135 140,130 156,130 156,140 140,140 135,135 " style="fill:white; stroke-width:1; stroke:black; " description="&lt;b&gt;BDA39137.1&lt;/b&gt;&lt;br&gt;flavin-dependent monooxygenase&lt;br&gt;Location: 15254 - 16905" locus_tag="BDA39137.1" class="clusterblast-orf" id="knownclusterblast-1_all_1_2_3"  />
</g>
<g id="a1_004"  >
<polygon points="172,140 181,140 186,135 181,130 172,130 172,140 " style="fill:white; stroke-width:1; stroke:black; " description="&lt;b&gt;BDA39138.1&lt;/b&gt;&lt;br&gt;short chain dehydrogenase/reductase&lt;br&gt;Location: 18075 - 19155" locus_tag="BDA39138.1" class="clusterblast-orf" id="knownclusterblast-1_all_1_2_4"  />
</g>
<g id="a1_005"  >
<polygon points="232,140 242,140 247,135 242,130 232,130 232,140 " style="fill:white; stroke-width:1; stroke:black; " description="&lt;b&gt;BDA39139.1&lt;/b&gt;&lt;br&gt;DUF3328&lt;br&gt;Location: 22659 - 23768" locus_tag="BDA39139.1" class="clusterblast-orf" id="knownclusterblast-1_all_1_2_5"  />
</g>
<g id="a1_006"  >
<polygon points="250,135 255,130 280,130 280,140 255,140 250,135 " style="fill:white; stroke-width:1; stroke:black; " description="&lt;b&gt;BDA39140.1&lt;/b&gt;&lt;br&gt;peptidase family S41&lt;br&gt;Location: 23985 - 26250" locus_tag="BDA39140.1" class="clusterblast-orf" id="knownclusterblast-1_all_1_2_6"  />
</g>
<g id="a1_007"  >
<polygon points="287,140 293,140 298,135 293,130 287,130 287,140 " style="fill:#1515d8; stroke-width:1; stroke:black; " description="&lt;b&gt;BDA39141.1&lt;/b&gt;&lt;br&gt;DUF3328&lt;br&gt;Location: 26773 - 27670&lt;br&gt;&lt;br&gt;&lt;b&gt;BlastP hit with input.path1.gene172&lt;/b&gt;&lt;br&gt;Percentage identity: 53&lt;br&gt;Percentage coverage: 62&lt;br&gt;BLAST bit score: 94&lt;br&gt;E-value: 1.9e-24" locus_tag="BDA39141.1" class="clusterblast-orf" id="knownclusterblast-1_all_1_2_7"  />
</g>
<g id="a1_008"  >
<polygon points="307,135 312,130 315,130 315,140 312,140 307,135 " style="fill:white; stroke-width:1; stroke:black; " description="&lt;b&gt;BDA39142.1&lt;/b&gt;&lt;br&gt;precursor protein&lt;br&gt;Location: 28344 - 28958" locus_tag="BDA39142.1" class="clusterblast-orf" id="knownclusterblast-1_all_1_2_8"  />
</g>
<g id="a1_009"  >
<polygon points="339,135 344,130 369,130 369,140 344,140 339,135 " style="fill:white; stroke-width:1; stroke:black; " description="&lt;b&gt;BDA39143.1&lt;/b&gt;&lt;br&gt;transcriptional regulator&lt;br&gt;Location: 30744 - 32997" locus_tag="BDA39143.1" class="clusterblast-orf" id="knownclusterblast-1_all_1_2_9"  />
</g>
<g id="a1_0010"  >
<polygon points="419,140 486,140 491,135 486,130 419,130 419,140 " style="fill:white; stroke-width:1; stroke:black; " description="&lt;b&gt;BDA39144.1&lt;/b&gt;&lt;br&gt;ABC transporter&lt;br&gt;Location: 36849 - 42318" locus_tag="BDA39144.1" class="clusterblast-orf" id="knownclusterblast-1_all_1_2_10"  />
</g>
<g id="a1_0011"  >
<polygon points="499,135 504,130 514,130 514,140 504,140 499,135 " style="fill:white; stroke-width:1; stroke:black; " description="&lt;b&gt;BDA39145.1&lt;/b&gt;&lt;br&gt;methyltransferase&lt;br&gt;Location: 42886 - 44049" locus_tag="BDA39145.1" class="clusterblast-orf" id="knownclusterblast-1_all_1_2_11"  />
</g>
<g id="a1_0012"  >
<polygon points="522,140 531,140 536,135 531,130 522,130 522,140 " style="fill:white; stroke-width:1; stroke:black; " description="&lt;b&gt;BDA39146.1&lt;/b&gt;&lt;br&gt;hypothetical protein&lt;br&gt;Location: 44647 - 45675" locus_tag="BDA39146.1" class="clusterblast-orf" id="knownclusterblast-1_all_1_2_12"  />
</g>
<g id="a1_0013"  >
<polygon points="540,135 545,130 574,130 574,140 545,140 540,135 " style="fill:white; stroke-width:1; stroke:black; " description="&lt;b&gt;BDA39147.1&lt;/b&gt;&lt;br&gt;oligopeptide transporter&lt;br&gt;Location: 45977 - 48569" locus_tag="BDA39147.1" class="clusterblast-orf" id="knownclusterblast-1_all_1_2_13"  />
</g>
<g id="a1_0014"  >
<polygon points="579,140 587,140 592,135 587,130 579,130 579,140 " style="fill:white; stroke-width:1; stroke:black; " description="&lt;b&gt;BDA39148.1&lt;/b&gt;&lt;br&gt;DUF3328&lt;br&gt;Location: 48980 - 49947" locus_tag="BDA39148.1" class="clusterblast-orf" id="knownclusterblast-1_all_1_2_14"  />
</g>
<g id="a1_0015"  >
<polygon points="610,135 615,130 628,130 628,140 615,140 610,135 " style="fill:white; stroke-width:1; stroke:black; " description="&lt;b&gt;BDA39149.1&lt;/b&gt;&lt;br&gt;tyrosinase&lt;br&gt;Location: 51341 - 52660" locus_tag="BDA39149.1" class="clusterblast-orf" id="knownclusterblast-1_all_1_2_15"  />
</g>
<g id="a1_0016"  >
<polygon points="633,140 648,140 653,135 648,130 633,130 633,140 " style="fill:#15d815; stroke-width:1; stroke:black; " description="&lt;b&gt;BDA39150.1&lt;/b&gt;&lt;br&gt;tyrosinase&lt;br&gt;Location: 53056 - 54556&lt;br&gt;&lt;br&gt;&lt;b&gt;BlastP hit with input.path1.gene171&lt;/b&gt;&lt;br&gt;Percentage identity: 56&lt;br&gt;Percentage coverage: 72&lt;br&gt;BLAST bit score: 267&lt;br&gt;E-value: 1.51e-87" locus_tag="BDA39150.1" class="clusterblast-orf" id="knownclusterblast-1_all_1_2_16"  />
</g>
<g id="a1_0017"  >
<polygon points="659,140 671,140 676,135 671,130 659,130 659,140 " style="fill:white; stroke-width:1; stroke:black; " description="&lt;b&gt;BDA39151.1&lt;/b&gt;&lt;br&gt;DUF3328&lt;br&gt;Location: 55055 - 56327" locus_tag="BDA39151.1" class="clusterblast-orf" id="knownclusterblast-1_all_1_2_17"  />
</g>
<g id="a1_0018"  >
<polygon points="681,140 688,140 693,135 688,130 681,130 681,140 " style="fill:white; stroke-width:1; stroke:black; " description="&lt;b&gt;BDA39152.1&lt;/b&gt;&lt;br&gt;DUF3328&lt;br&gt;Location: 56736 - 57593" locus_tag="BDA39152.1" class="clusterblast-orf" id="knownclusterblast-1_all_1_2_18"  />
</g>
<g id="a1_0019"  >
<polygon points="701,140 727,140 732,135 727,130 701,130 701,140 " style="fill:white; stroke-width:1; stroke:black; " description="&lt;b&gt;BDA39153.1&lt;/b&gt;&lt;br&gt;peptidase M3&lt;br&gt;Location: 58189 - 60569" locus_tag="BDA39153.1" class="clusterblast-orf" id="knownclusterblast-1_all_1_2_19"  />
</g>
<g id="a1_0020"  >
<polygon points="751,140 775,140 780,135 775,130 751,130 751,140 " style="fill:white; stroke-width:1; stroke:black; " description="&lt;b&gt;BDA39154.1&lt;/b&gt;&lt;br&gt;oxidoreductase&lt;br&gt;Location: 61990 - 64171" locus_tag="BDA39154.1" class="clusterblast-orf" id="knownclusterblast-1_all_1_2_20"  />
</g>
</svg>
