<svg xmlns="http://www.w3.org/2000/svg" xmlns:xlink="http://www.w3.org/1999/xlink" version="1.1" x="0" y="0" height="230" width="800" viewBox="0 0 800 230" preserveAspectRatio="none"  >
<g label="Query sequence" class="clusterblast-cluster"  >
<text x="5" y="20" class="clusterblast-acc"  >
Query sequence</text>
<line x1="10" y1="35" x2="778.0" y2="35" style="stroke-width:1; stroke:grey; "  />
<polygon points="300,40 300,40 305,35 300,30 300,30 300,40 " style="fill:white; stroke-width:1; stroke:black; " description="&lt;b&gt;input.path1.gene1290&lt;/b&gt;&lt;br&gt;input.path1.gene1290&lt;br&gt;Location: 4950285 - 4951446" locus_tag="input.path1.gene1290" class="clusterblast-orf" id="dummy-5_q0_0_all"  />
<polygon points="308,35 313,30 314,30 314,40 313,40 308,35 " style="fill:#d81515; stroke-width:1; stroke:black; " description="&lt;b&gt;input.path1.gene1291&lt;/b&gt;&lt;br&gt;input.path1.gene1291&lt;br&gt;Location: 4952057 - 4953483" locus_tag="input.path1.gene1291" class="clusterblast-orf" id="dummy-5_q1_0_all"  />
<polygon points="331,35 336,30 336,30 336,40 336,40 331,35 " style="fill:#77d815; stroke-width:1; stroke:black; " description="&lt;b&gt;input.path1.gene1292&lt;/b&gt;&lt;br&gt;input.path1.gene1292&lt;br&gt;Location: 4957469 - 4958522" locus_tag="input.path1.gene1292" class="clusterblast-orf" id="dummy-5_q2_0_all"  />
<polygon points="341,35 343,30 343,40 341,35 " style="fill:white; stroke-width:1; stroke:black; " description="&lt;b&gt;input.path1.gene1293&lt;/b&gt;&lt;br&gt;input.path1.gene1293&lt;br&gt;Location: 4959578 - 4960149" locus_tag="input.path1.gene1293" class="clusterblast-orf" id="dummy-5_q3_0_all"  />
<polygon points="361,40 363,40 368,35 363,30 361,30 361,40 " style="fill:#15d8d8; stroke-width:1; stroke:black; " description="&lt;b&gt;input.path1.gene1294&lt;/b&gt;&lt;br&gt;input.path1.gene1294&lt;br&gt;Location: 4964312 - 4965899" locus_tag="input.path1.gene1294" class="clusterblast-orf" id="dummy-5_q4_0_all"  />
<polygon points="385,40 397,40 402,35 397,30 385,30 385,40 " style="fill:#7715d8; stroke-width:1; stroke:black; " description="&lt;b&gt;input.path1.gene1295&lt;/b&gt;&lt;br&gt;input.path1.gene1295&lt;br&gt;Location: 4969631 - 4973501" locus_tag="input.path1.gene1295" class="clusterblast-orf" id="dummy-5_q5_0_all"  />
<polygon points="409,40 422,40 427,35 422,30 409,30 409,40 " style="fill:#d8a715; stroke-width:1; stroke:black; " description="&lt;b&gt;input.path1.gene1296&lt;/b&gt;&lt;br&gt;input.path1.gene1296&lt;br&gt;Location: 4975184 - 4979168" locus_tag="input.path1.gene1296" class="clusterblast-orf" id="dummy-5_q6_0_all"  />
<polygon points="427,35 432,30 437,30 437,40 432,40 427,35 " style="fill:white; stroke-width:1; stroke:black; " description="&lt;b&gt;input.path1.gene1297&lt;/b&gt;&lt;br&gt;input.path1.gene1297&lt;br&gt;Location: 4979173 - 4981409" locus_tag="input.path1.gene1297" class="clusterblast-orf" id="dummy-5_q7_0_all"  />
<polygon points="440,40 440,40 445,35 440,30 440,30 440,40 " style="fill:#15d846; stroke-width:1; stroke:black; " description="&lt;b&gt;input.path1.gene1298&lt;/b&gt;&lt;br&gt;input.path1.gene1298&lt;br&gt;Location: 4982063 - 4983225" locus_tag="input.path1.gene1298" class="clusterblast-orf" id="dummy-5_q8_0_all"  />
<polygon points="454,35 459,30 461,30 461,40 459,40 454,35 " style="fill:#1546d8; stroke-width:1; stroke:black; " description="&lt;b&gt;input.path1.gene1299&lt;/b&gt;&lt;br&gt;input.path1.gene1299&lt;br&gt;Location: 4985308 - 4987015" locus_tag="input.path1.gene1299" class="clusterblast-orf" id="dummy-5_q9_0_all"  />
<polygon points="464,35 468,30 468,40 464,35 " style="fill:white; stroke-width:1; stroke:black; " description="&lt;b&gt;input.path1.gene1300&lt;/b&gt;&lt;br&gt;input.path1.gene1300&lt;br&gt;Location: 4987617 - 4988503" locus_tag="input.path1.gene1300" class="clusterblast-orf" id="dummy-5_q10_0_all"  />
<polygon points="472,40 474,40 479,35 474,30 472,30 472,40 " style="fill:#d815a7; stroke-width:1; stroke:black; " description="&lt;b&gt;input.path1.gene1301&lt;/b&gt;&lt;br&gt;input.path1.gene1301&lt;br&gt;Location: 4989459 - 4991089" locus_tag="input.path1.gene1301" class="clusterblast-orf" id="dummy-5_q11_0_all"  />
</g>
<g label="NC_054390" description="NC_054390 (745744-925575): Drechmeria coniospora strain ARSEF 6962 chromosome... (10% of genes show similarity), NRPS,NRPS-like,fungal-RiPP-like" class="clusterblast-cluster"  >
<text x="5" y="70" class="clusterblast-acc"  >
<a xlink:href="https://antismash-db.secondarymetabolites.org/area?record=NC_054390&amp;start=745744&amp;end=925575" target="_blank">NC_054390 (745744-925575)</a>: Drechmeria coniospora strain ARSEF 6962 chromosome... (10% of genes show similarity), NRPS,NRPS-like,fungal-RiPP-like</text>
<line x1="10" y1="85" x2="778.0" y2="85" style="stroke-width:1; stroke:grey; "  />
</g>
<g id="a5_000"  >
<polygon points="0,85 5,80 6,80 6,90 5,90 0,85 " style="fill:white; stroke-width:1; stroke:black; " description="&lt;b&gt;DCS_03525&lt;/b&gt;&lt;br&gt;S-adenosyl-L-methionine-dependent methyltransferase&lt;br&gt;Location: 924417 - 923032" locus_tag="DCS_03525" class="clusterblast-orf" id="dummy-5_h5_6_0"  />
</g>
<g id="a5_001"  >
<polygon points="25,90 26,85 25,80 25,90 " style="fill:white; stroke-width:1; stroke:black; " description="&lt;b&gt;DCS_03524&lt;/b&gt;&lt;br&gt;hypothetical protein&lt;br&gt;Location: 918529 - 918338" locus_tag="DCS_03524" class="clusterblast-orf" id="dummy-5_h5_6_1"  />
</g>
<g id="a5_002"  >
<polygon points="31,90 33,90 38,85 33,80 31,80 31,90 " style="fill:white; stroke-width:1; stroke:black; " description="&lt;b&gt;DCS_03523&lt;/b&gt;&lt;br&gt;hypothetical protein&lt;br&gt;Location: 917149 - 915609" locus_tag="DCS_03523" class="clusterblast-orf" id="dummy-5_h5_6_2"  />
</g>
<g id="a5_003"  >
<polygon points="42,85 47,80 50,80 50,90 47,90 42,85 " style="fill:white; stroke-width:1; stroke:black; " description="&lt;b&gt;DCS_03522&lt;/b&gt;&lt;br&gt;FAD binding domain-containing protein&lt;br&gt;Location: 914865 - 912889" locus_tag="DCS_03522" class="clusterblast-orf" id="dummy-5_h5_6_3"  />
</g>
<g id="a5_004"  >
<polygon points="77,85 82,80 102,80 102,90 82,90 77,85 " style="fill:white; stroke-width:1; stroke:black; " description="&lt;b&gt;DCS_03521&lt;/b&gt;&lt;br&gt;ABC transporter&lt;br&gt;Location: 906858 - 901058" locus_tag="DCS_03521" class="clusterblast-orf" id="dummy-5_h5_6_4"  />
</g>
<g id="a5_005"  >
<polygon points="126,90 165,90 170,85 165,80 126,80 126,90 " style="fill:white; stroke-width:1; stroke:black; " description="&lt;b&gt;DCS_03520&lt;/b&gt;&lt;br&gt;non-ribosomal peptide synthetase&lt;br&gt;Location: 895575 - 885754" locus_tag="DCS_03520" class="clusterblast-orf" id="dummy-5_h5_6_5"  />
</g>
<g id="a5_006"  >
<polygon points="172,85 177,80 180,80 180,90 177,90 172,85 " style="fill:white; stroke-width:1; stroke:black; " description="&lt;b&gt;DCS_03519&lt;/b&gt;&lt;br&gt;hypothetical protein&lt;br&gt;Location: 885119 - 883482" locus_tag="DCS_03519" class="clusterblast-orf" id="dummy-5_h5_6_6"  />
</g>
<g id="a5_007"  >
<polygon points="183,90 186,85 183,80 183,90 " style="fill:white; stroke-width:1; stroke:black; " description="&lt;b&gt;DCS_03518&lt;/b&gt;&lt;br&gt;hypothetical protein&lt;br&gt;Location: 882640 - 881942" locus_tag="DCS_03518" class="clusterblast-orf" id="dummy-5_h5_6_7"  />
</g>
<g id="a5_008"  >
<polygon points="189,90 192,85 189,80 189,90 " style="fill:white; stroke-width:1; stroke:black; " description="&lt;b&gt;DCS_03517&lt;/b&gt;&lt;br&gt;hypothetical protein&lt;br&gt;Location: 881243 - 880749" locus_tag="DCS_03517" class="clusterblast-orf" id="dummy-5_h5_6_8"  />
</g>
<g id="a5_009"  >
<polygon points="192,85 194,80 194,90 192,85 " style="fill:white; stroke-width:1; stroke:black; " description="&lt;b&gt;DCS_03516&lt;/b&gt;&lt;br&gt;hypothetical protein&lt;br&gt;Location: 880687 - 880301" locus_tag="DCS_03516" class="clusterblast-orf" id="dummy-5_h5_6_9"  />
</g>
<g id="a5_0010"  >
<polygon points="205,90 205,90 210,85 205,80 205,80 205,90 " style="fill:#77d815; stroke-width:1; stroke:black; " description="&lt;b&gt;DCS_03515&lt;/b&gt;&lt;br&gt;hypothetical protein&lt;br&gt;Location: 877770 - 876631&lt;br&gt;&lt;br&gt;&lt;b&gt;BlastP hit with input.path1.gene1292&lt;/b&gt;&lt;br&gt;Percentage identity: 38&lt;br&gt;Percentage coverage: 100&lt;br&gt;BLAST bit score: 188&lt;br&gt;E-value: 1.72e-54" locus_tag="DCS_03515" class="clusterblast-orf" id="dummy-5_h5_6_10"  />
</g>
<g id="a5_0011"  >
<polygon points="221,90 224,85 221,80 221,90 " style="fill:white; stroke-width:1; stroke:black; " description="&lt;b&gt;DCS_03514&lt;/b&gt;&lt;br&gt;hypothetical protein&lt;br&gt;Location: 874106 - 873300" locus_tag="DCS_03514" class="clusterblast-orf" id="dummy-5_h5_6_11"  />
</g>
<g id="a5_0012"  >
<polygon points="225,90 227,85 225,80 225,90 " style="fill:white; stroke-width:1; stroke:black; " description="&lt;b&gt;DCS_03513&lt;/b&gt;&lt;br&gt;hypothetical protein&lt;br&gt;Location: 873266 - 872676" locus_tag="DCS_03513" class="clusterblast-orf" id="dummy-5_h5_6_12"  />
</g>
<g id="a5_0013"  >
<polygon points="237,90 239,90 244,85 239,80 237,80 237,90 " style="fill:white; stroke-width:1; stroke:black; " description="&lt;b&gt;DCS_03512&lt;/b&gt;&lt;br&gt;hypothetical protein&lt;br&gt;Location: 870428 - 868927" locus_tag="DCS_03512" class="clusterblast-orf" id="dummy-5_h5_6_13"  />
</g>
<g id="a5_0014"  >
<polygon points="245,85 250,80 251,80 251,90 250,90 245,85 " style="fill:white; stroke-width:1; stroke:black; " description="&lt;b&gt;DCS_03511&lt;/b&gt;&lt;br&gt;hypothetical protein&lt;br&gt;Location: 868650 - 867190" locus_tag="DCS_03511" class="clusterblast-orf" id="dummy-5_h5_6_14"  />
</g>
<g id="a5_0015"  >
<polygon points="252,90 253,85 252,80 252,90 " style="fill:white; stroke-width:1; stroke:black; " description="&lt;b&gt;DCS_03510&lt;/b&gt;&lt;br&gt;hypothetical protein&lt;br&gt;Location: 867149 - 866844" locus_tag="DCS_03510" class="clusterblast-orf" id="dummy-5_h5_6_15"  />
</g>
<g id="a5_0016"  >
<polygon points="255,90 256,90 261,85 256,80 255,80 255,90 " style="fill:white; stroke-width:1; stroke:black; " description="&lt;b&gt;DCS_03509&lt;/b&gt;&lt;br&gt;hypothetical protein&lt;br&gt;Location: 866268 - 864979" locus_tag="DCS_03509" class="clusterblast-orf" id="dummy-5_h5_6_16"  />
</g>
<g id="a5_0017"  >
<polygon points="267,85 272,80 273,80 273,90 272,90 267,85 " style="fill:white; stroke-width:1; stroke:black; " description="&lt;b&gt;DCS_03508&lt;/b&gt;&lt;br&gt;hypothetical protein&lt;br&gt;Location: 863542 - 862224" locus_tag="DCS_03508" class="clusterblast-orf" id="dummy-5_h5_6_17"  />
</g>
<g id="a5_0018"  >
<polygon points="280,90 283,85 280,80 280,90 " style="fill:white; stroke-width:1; stroke:black; " description="&lt;b&gt;DCS_03507&lt;/b&gt;&lt;br&gt;hypothetical protein&lt;br&gt;Location: 860780 - 860055" locus_tag="DCS_03507" class="clusterblast-orf" id="dummy-5_h5_6_18"  />
</g>
<g id="a5_0019"  >
<polygon points="285,85 290,80 290,80 290,90 290,90 285,85 " style="fill:white; stroke-width:1; stroke:black; " description="&lt;b&gt;DCS_03506&lt;/b&gt;&lt;br&gt;hypothetical protein&lt;br&gt;Location: 859577 - 858468" locus_tag="DCS_03506" class="clusterblast-orf" id="dummy-5_h5_6_19"  />
</g>
<g id="a5_0020"  >
<polygon points="290,85 294,80 294,90 290,85 " style="fill:white; stroke-width:1; stroke:black; " description="&lt;b&gt;DCS_03505&lt;/b&gt;&lt;br&gt;hypothetical protein&lt;br&gt;Location: 858374 - 857523" locus_tag="DCS_03505" class="clusterblast-orf" id="dummy-5_h5_6_20"  />
</g>
<g id="a5_0021"  >
<polygon points="294,85 297,80 297,90 294,85 " style="fill:white; stroke-width:1; stroke:black; " description="&lt;b&gt;DCS_03504&lt;/b&gt;&lt;br&gt;hypothetical protein&lt;br&gt;Location: 857448 - 856887" locus_tag="DCS_03504" class="clusterblast-orf" id="dummy-5_h5_6_21"  />
</g>
<g id="a5_0022"  >
<polygon points="303,85 308,80 308,80 308,90 308,90 303,85 " style="fill:white; stroke-width:1; stroke:black; " description="&lt;b&gt;DCS_03503&lt;/b&gt;&lt;br&gt;hypothetical protein&lt;br&gt;Location: 855400 - 854390" locus_tag="DCS_03503" class="clusterblast-orf" id="dummy-5_h5_6_22"  />
</g>
<g id="a5_0023"  >
<polygon points="321,90 324,85 321,80 321,90 " style="fill:white; stroke-width:1; stroke:black; " description="&lt;b&gt;DCS_03502&lt;/b&gt;&lt;br&gt;hypothetical protein&lt;br&gt;Location: 851253 - 850774" locus_tag="DCS_03502" class="clusterblast-orf" id="dummy-5_h5_6_23"  />
</g>
<g id="a5_0024"  >
<polygon points="326,85 331,80 334,80 334,90 331,90 326,85 " style="fill:white; stroke-width:1; stroke:black; " description="&lt;b&gt;DCS_03501&lt;/b&gt;&lt;br&gt;tRNA pseudouridine synthase&lt;br&gt;Location: 850264 - 848358" locus_tag="DCS_03501" class="clusterblast-orf" id="dummy-5_h5_6_24"  />
</g>
<g id="a5_0025"  >
<polygon points="336,85 340,80 340,90 336,85 " style="fill:white; stroke-width:1; stroke:black; " description="&lt;b&gt;DCS_03500&lt;/b&gt;&lt;br&gt;hypothetical protein&lt;br&gt;Location: 847987 - 847114" locus_tag="DCS_03500" class="clusterblast-orf" id="dummy-5_h5_6_25"  />
</g>
<g id="a5_0026"  >
<polygon points="344,85 349,80 350,80 350,90 349,90 344,85 " style="fill:white; stroke-width:1; stroke:black; " description="&lt;b&gt;DCS_03499&lt;/b&gt;&lt;br&gt;hypothetical protein&lt;br&gt;Location: 846158 - 844765" locus_tag="DCS_03499" class="clusterblast-orf" id="dummy-5_h5_6_26"  />
</g>
<g id="a5_0027"  >
<polygon points="359,90 363,85 359,80 359,90 " style="fill:white; stroke-width:1; stroke:black; " description="&lt;b&gt;DCS_03498&lt;/b&gt;&lt;br&gt;hypothetical protein&lt;br&gt;Location: 842702 - 841901" locus_tag="DCS_03498" class="clusterblast-orf" id="dummy-5_h5_6_27"  />
</g>
<g id="a5_0028"  >
<polygon points="371,85 376,80 376,80 376,90 376,90 371,85 " style="fill:white; stroke-width:1; stroke:black; " description="&lt;b&gt;DCS_03497&lt;/b&gt;&lt;br&gt;hypothetical protein&lt;br&gt;Location: 839898 - 838869" locus_tag="DCS_03497" class="clusterblast-orf" id="dummy-5_h5_6_28"  />
</g>
<g id="a5_0029"  >
<polygon points="379,90 379,90 384,85 379,80 379,80 379,90 " style="fill:white; stroke-width:1; stroke:black; " description="&lt;b&gt;DCS_03496&lt;/b&gt;&lt;br&gt;uncharacterized protein&lt;br&gt;Location: 838063 - 837132" locus_tag="DCS_03496" class="clusterblast-orf" id="dummy-5_h5_6_29"  />
</g>
<g id="a5_0030"  >
<polygon points="385,85 389,80 389,90 385,85 " style="fill:white; stroke-width:1; stroke:black; " description="&lt;b&gt;DCS_03495&lt;/b&gt;&lt;br&gt;alpha-galactosidase A&lt;br&gt;Location: 836847 - 836017" locus_tag="DCS_03495" class="clusterblast-orf" id="dummy-5_h5_6_30"  />
</g>
<g id="a5_0031"  >
<polygon points="390,85 395,80 395,80 395,90 395,90 390,85 " style="fill:white; stroke-width:1; stroke:black; " description="&lt;b&gt;DCS_03494&lt;/b&gt;&lt;br&gt;Cyclin-like F-box&lt;br&gt;Location: 835627 - 834557" locus_tag="DCS_03494" class="clusterblast-orf" id="dummy-5_h5_6_31"  />
</g>
<g id="a5_0032"  >
<polygon points="398,85 403,80 403,80 403,90 403,90 398,85 " style="fill:white; stroke-width:1; stroke:black; " description="&lt;b&gt;DCS_03493&lt;/b&gt;&lt;br&gt;hypothetical protein&lt;br&gt;Location: 833803 - 832816" locus_tag="DCS_03493" class="clusterblast-orf" id="dummy-5_h5_6_32"  />
</g>
<g id="a5_0033"  >
<polygon points="418,90 424,90 429,85 424,80 418,80 418,90 " style="fill:white; stroke-width:1; stroke:black; " description="&lt;b&gt;DCS_03492&lt;/b&gt;&lt;br&gt;sulfur controller-2&lt;br&gt;Location: 829331 - 826876" locus_tag="DCS_03492" class="clusterblast-orf" id="dummy-5_h5_6_33"  />
</g>
<g id="a5_0034"  >
<polygon points="436,90 437,85 436,80 436,90 " style="fill:white; stroke-width:1; stroke:black; " description="&lt;b&gt;DCS_03491&lt;/b&gt;&lt;br&gt;hypothetical protein&lt;br&gt;Location: 825121 - 824927" locus_tag="DCS_03491" class="clusterblast-orf" id="dummy-5_h5_6_34"  />
</g>
<g id="a5_0035"  >
<polygon points="450,90 450,90 455,85 450,80 450,80 450,90 " style="fill:white; stroke-width:1; stroke:black; " description="&lt;b&gt;DCS_03490&lt;/b&gt;&lt;br&gt;hypothetical protein&lt;br&gt;Location: 822011 - 820824" locus_tag="DCS_03490" class="clusterblast-orf" id="dummy-5_h5_6_35"  />
</g>
<g id="a5_0036"  >
<polygon points="456,85 461,80 461,80 461,90 461,90 456,85 " style="fill:white; stroke-width:1; stroke:black; " description="&lt;b&gt;DCS_03489&lt;/b&gt;&lt;br&gt;Twinfilin&lt;br&gt;Location: 820704 - 819599" locus_tag="DCS_03489" class="clusterblast-orf" id="dummy-5_h5_6_36"  />
</g>
<g id="a5_0037"  >
<polygon points="464,85 469,80 469,80 469,90 469,90 464,85 " style="fill:white; stroke-width:1; stroke:black; " description="&lt;b&gt;DCS_03488&lt;/b&gt;&lt;br&gt;hypothetical protein&lt;br&gt;Location: 818874 - 817749" locus_tag="DCS_03488" class="clusterblast-orf" id="dummy-5_h5_6_37"  />
</g>
<g id="a5_0038"  >
<polygon points="475,90 479,85 475,80 475,90 " style="fill:white; stroke-width:1; stroke:black; " description="&lt;b&gt;DCS_03487&lt;/b&gt;&lt;br&gt;40S ribosomal protein S7&lt;br&gt;Location: 816365 - 815469" locus_tag="DCS_03487" class="clusterblast-orf" id="dummy-5_h5_6_38"  />
</g>
<g id="a5_0039"  >
<polygon points="480,85 485,80 488,80 488,90 485,90 480,85 " style="fill:white; stroke-width:1; stroke:black; " description="&lt;b&gt;DCS_03486&lt;/b&gt;&lt;br&gt;dynactin subunit&lt;br&gt;Location: 815221 - 813478" locus_tag="DCS_03486" class="clusterblast-orf" id="dummy-5_h5_6_39"  />
</g>
<g id="a5_0040"  >
<polygon points="521,90 530,90 535,85 530,80 521,80 521,90 " style="fill:white; stroke-width:1; stroke:black; " description="&lt;b&gt;DCS_03485&lt;/b&gt;&lt;br&gt;hypothetical protein&lt;br&gt;Location: 805992 - 802632" locus_tag="DCS_03485" class="clusterblast-orf" id="dummy-5_h5_6_40"  />
</g>
<g id="a5_0041"  >
<polygon points="538,85 542,80 542,90 538,85 " style="fill:white; stroke-width:1; stroke:black; " description="&lt;b&gt;DCS_03484&lt;/b&gt;&lt;br&gt;hypothetical protein&lt;br&gt;Location: 802154 - 801168" locus_tag="DCS_03484" class="clusterblast-orf" id="dummy-5_h5_6_41"  />
</g>
<g id="a5_0042"  >
<polygon points="546,85 550,80 550,90 546,85 " style="fill:white; stroke-width:1; stroke:black; " description="&lt;b&gt;DCS_03483&lt;/b&gt;&lt;br&gt;hypothetical protein&lt;br&gt;Location: 800264 - 799417" locus_tag="DCS_03483" class="clusterblast-orf" id="dummy-5_h5_6_42"  />
</g>
<g id="a5_0043"  >
<polygon points="559,90 560,85 559,80 559,90 " style="fill:white; stroke-width:1; stroke:black; " description="&lt;b&gt;DCS_03482&lt;/b&gt;&lt;br&gt;uncharacterized protein&lt;br&gt;Location: 797302 - 797036" locus_tag="DCS_03482" class="clusterblast-orf" id="dummy-5_h5_6_43"  />
</g>
<g id="a5_0044"  >
<polygon points="564,85 569,80 573,80 573,90 569,90 564,85 " style="fill:#d815a7; stroke-width:1; stroke:black; " description="&lt;b&gt;DCS_03481&lt;/b&gt;&lt;br&gt;UPF0052 domain protein&lt;br&gt;Location: 796117 - 794064&lt;br&gt;&lt;br&gt;&lt;b&gt;BlastP hit with input.path1.gene1301&lt;/b&gt;&lt;br&gt;Percentage identity: 60&lt;br&gt;Percentage coverage: 114&lt;br&gt;BLAST bit score: 486&lt;br&gt;E-value: 3.46e-167" locus_tag="DCS_03481" class="clusterblast-orf" id="dummy-5_h5_6_44"  />
</g>
<g id="a5_0045"  >
<polygon points="577,90 577,90 582,85 577,80 577,80 577,90 " style="fill:white; stroke-width:1; stroke:black; " description="&lt;b&gt;DCS_03480&lt;/b&gt;&lt;br&gt;zinc-binding dehydrogenase&lt;br&gt;Location: 793185 - 791962" locus_tag="DCS_03480" class="clusterblast-orf" id="dummy-5_h5_6_45"  />
</g>
<g id="a5_0046"  >
<polygon points="583,85 588,80 590,80 590,90 588,90 583,85 " style="fill:white; stroke-width:1; stroke:black; " description="&lt;b&gt;DCS_03479&lt;/b&gt;&lt;br&gt;hypothetical protein&lt;br&gt;Location: 791729 - 790232" locus_tag="DCS_03479" class="clusterblast-orf" id="dummy-5_h5_6_46"  />
</g>
<g id="a5_0047"  >
<polygon points="592,90 594,85 592,80 592,90 " style="fill:white; stroke-width:1; stroke:black; " description="&lt;b&gt;DCS_03478&lt;/b&gt;&lt;br&gt;hypothetical protein&lt;br&gt;Location: 789832 - 789349" locus_tag="DCS_03478" class="clusterblast-orf" id="dummy-5_h5_6_47"  />
</g>
<g id="a5_0048"  >
<polygon points="620,90 623,90 628,85 623,80 620,80 620,90 " style="fill:#15d8d8; stroke-width:1; stroke:black; " description="&lt;b&gt;DCS_03477&lt;/b&gt;&lt;br&gt;arginine permease&lt;br&gt;Location: 783316 - 781605&lt;br&gt;&lt;br&gt;&lt;b&gt;BlastP hit with input.path1.gene1294&lt;/b&gt;&lt;br&gt;Percentage identity: 59&lt;br&gt;Percentage coverage: 109&lt;br&gt;BLAST bit score: 619&lt;br&gt;E-value: 1.11e-218" locus_tag="DCS_03477" class="clusterblast-orf" id="dummy-5_h5_6_48"  />
</g>
<g id="a5_0049"  >
<polygon points="637,90 649,90 654,85 649,80 637,80 637,90 " style="fill:#7715d8; stroke-width:1; stroke:black; " description="&lt;b&gt;DCS_03476&lt;/b&gt;&lt;br&gt;nonribosomal peptide synthetase 10&lt;br&gt;Location: 779596 - 775745&lt;br&gt;&lt;br&gt;&lt;b&gt;BlastP hit with input.path1.gene1295&lt;/b&gt;&lt;br&gt;Percentage identity: 76&lt;br&gt;Percentage coverage: 100&lt;br&gt;BLAST bit score: 1950&lt;br&gt;E-value: 0.0" locus_tag="DCS_03476" class="clusterblast-orf" id="dummy-5_h5_6_49"  />
</g>
<g id="a5_0050"  >
<polygon points="660,90 661,85 660,80 660,90 " style="fill:white; stroke-width:1; stroke:black; " description="&lt;b&gt;DCS_03475&lt;/b&gt;&lt;br&gt;hypothetical protein&lt;br&gt;Location: 774431 - 774204" locus_tag="DCS_03475" class="clusterblast-orf" id="dummy-5_h5_6_50"  />
</g>
<g id="a5_0051"  >
<polygon points="668,85 673,80 685,80 685,90 673,90 668,85 " style="fill:white; stroke-width:1; stroke:black; " description="&lt;b&gt;DCS_03474&lt;/b&gt;&lt;br&gt;hypothetical protein&lt;br&gt;Location: 772564 - 768653" locus_tag="DCS_03474" class="clusterblast-orf" id="dummy-5_h5_6_51"  />
</g>
<g id="a5_0052"  >
<polygon points="688,90 692,90 697,85 692,80 688,80 688,90 " style="fill:white; stroke-width:1; stroke:black; " description="&lt;b&gt;DCS_03473&lt;/b&gt;&lt;br&gt;Aminoglycoside phosphotransferase&lt;br&gt;Location: 767913 - 766004" locus_tag="DCS_03473" class="clusterblast-orf" id="dummy-5_h5_6_52"  />
</g>
<g id="a5_0053"  >
<polygon points="705,90 711,90 716,85 711,80 705,80 705,90 " style="fill:#15d846; stroke-width:1; stroke:black; " description="&lt;b&gt;DCS_03472&lt;/b&gt;&lt;br&gt;Fungal specific transcription factor&lt;br&gt;Location: 764194 - 761623&lt;br&gt;&lt;br&gt;&lt;b&gt;BlastP hit with input.path1.gene1298&lt;/b&gt;&lt;br&gt;Percentage identity: 63&lt;br&gt;Percentage coverage: 72&lt;br&gt;BLAST bit score: 120&lt;br&gt;E-value: 2.16e-30" locus_tag="DCS_03472" class="clusterblast-orf" id="dummy-5_h5_6_53"  />
</g>
<g id="a5_0054"  >
<polygon points="719,85 724,80 727,80 727,90 724,90 719,85 " style="fill:#1546d8; stroke-width:1; stroke:black; " description="&lt;b&gt;DCS_03471&lt;/b&gt;&lt;br&gt;serine/threonine-protein kinase RIO1&lt;br&gt;Location: 760863 - 759134&lt;br&gt;&lt;br&gt;&lt;b&gt;BlastP hit with input.path1.gene1299&lt;/b&gt;&lt;br&gt;Percentage identity: 74&lt;br&gt;Percentage coverage: 86&lt;br&gt;BLAST bit score: 665&lt;br&gt;E-value: 2.65e-235" locus_tag="DCS_03471" class="clusterblast-orf" id="dummy-5_h5_6_54"  />
</g>
<g id="a5_0055"  >
<polygon points="731,90 733,90 738,85 733,80 731,80 731,90 " style="fill:white; stroke-width:1; stroke:black; " description="&lt;b&gt;DCS_03470&lt;/b&gt;&lt;br&gt;hypothetical protein&lt;br&gt;Location: 758090 - 756670" locus_tag="DCS_03470" class="clusterblast-orf" id="dummy-5_h5_6_55"  />
</g>
<g id="a5_0056"  >
<polygon points="745,90 746,90 751,85 746,80 745,80 745,90 " style="fill:white; stroke-width:1; stroke:black; " description="&lt;b&gt;DCS_03469&lt;/b&gt;&lt;br&gt;hypothetical protein&lt;br&gt;Location: 754966 - 753653" locus_tag="DCS_03469" class="clusterblast-orf" id="dummy-5_h5_6_56"  />
</g>
<g id="a5_0057"  >
<polygon points="756,85 761,80 765,80 765,90 761,90 756,85 " style="fill:white; stroke-width:1; stroke:black; " description="&lt;b&gt;DCS_03468&lt;/b&gt;&lt;br&gt;hypothetical protein&lt;br&gt;Location: 752606 - 750471" locus_tag="DCS_03468" class="clusterblast-orf" id="dummy-5_h5_6_57"  />
</g>
<g id="a5_0058"  >
<polygon points="776,90 780,85 776,80 776,90 " style="fill:white; stroke-width:1; stroke:black; " description="&lt;b&gt;DCS_03467&lt;/b&gt;&lt;br&gt;uncharacterized protein&lt;br&gt;Location: 748069 - 747164" locus_tag="DCS_03467" class="clusterblast-orf" id="dummy-5_h5_6_58"  />
</g>
</svg>
