<svg xmlns="http://www.w3.org/2000/svg" xmlns:xlink="http://www.w3.org/1999/xlink" version="1.1" x="0" y="0" height="230" width="800" viewBox="0 0 800 230" preserveAspectRatio="none"  >
<g label="Query sequence" class="clusterblast-cluster"  >
<text x="5" y="20" class="clusterblast-acc"  >
Query sequence</text>
<line x1="10" y1="35" x2="778.0" y2="35" style="stroke-width:1; stroke:grey; "  />
<polygon points="241,35 246,30 301,30 301,40 246,40 241,35 " style="fill:#d81515; stroke-width:1; stroke:black; " description="&lt;b&gt;input.path1.gene1018&lt;/b&gt;&lt;br&gt;input.path1.gene1018&lt;br&gt;Location: 3820740 - 3823031" locus_tag="input.path1.gene1018" class="clusterblast-orf" id="dummy-8_q0_0_all"  />
<polygon points="321,40 389,40 394,35 389,30 321,30 321,40 " style="fill:#15d815; stroke-width:1; stroke:black; " description="&lt;b&gt;input.path1.gene1019&lt;/b&gt;&lt;br&gt;input.path1.gene1019&lt;br&gt;Location: 3823801 - 3826575" locus_tag="input.path1.gene1019" class="clusterblast-orf" id="dummy-8_q1_0_all"  />
<polygon points="402,35 407,30 485,30 485,40 407,40 402,35 " style="fill:#1515d8; stroke-width:1; stroke:black; " description="&lt;b&gt;input.path1.gene1020&lt;/b&gt;&lt;br&gt;input.path1.gene1020&lt;br&gt;Location: 3826854 - 3830044" locus_tag="input.path1.gene1020" class="clusterblast-orf" id="dummy-8_q2_0_all"  />
<polygon points="500,40 533,40 538,35 533,30 500,30 500,40 " style="fill:white; stroke-width:1; stroke:black; " description="&lt;b&gt;input.path1.gene1021&lt;/b&gt;&lt;br&gt;input.path1.gene1021&lt;br&gt;Location: 3830609 - 3832064" locus_tag="input.path1.gene1021" class="clusterblast-orf" id="dummy-8_q3_0_all"  />
</g>
<g label="NW_020291503" description="NW_020291503 (31867-64708): Aspergillus aculeatinus CBS 121060 unplaced genom... (22% of genes show similarity), terpene" class="clusterblast-cluster"  >
<text x="5" y="70" class="clusterblast-acc"  >
<a xlink:href="https://antismash-db.secondarymetabolites.org/area?record=NW_020291503&amp;start=31867&amp;end=64708" target="_blank">NW_020291503 (31867-64708)</a>: Aspergillus aculeatinus CBS 121060 unplaced genom... (22% of genes show similarity), terpene</text>
<line x1="10" y1="85" x2="778.0" y2="85" style="stroke-width:1; stroke:grey; "  />
</g>
<g id="a8_000"  >
<polygon points="0,90 18,90 23,85 18,80 0,80 0,90 " style="fill:white; stroke-width:1; stroke:black; " description="&lt;b&gt;BO66DRAFT_377338&lt;/b&gt;&lt;br&gt;hypothetical protein&lt;br&gt;Location: 33588 - 34496" locus_tag="BO66DRAFT_377338" class="clusterblast-orf" id="dummy-8_h8_5_0"  />
</g>
<g id="a8_001"  >
<polygon points="53,90 83,90 88,85 83,80 53,80 53,90 " style="fill:white; stroke-width:1; stroke:black; " description="&lt;b&gt;BO66DRAFT_472650&lt;/b&gt;&lt;br&gt;hypothetical protein&lt;br&gt;Location: 35607 - 36966" locus_tag="BO66DRAFT_472650" class="clusterblast-orf" id="dummy-8_h8_5_1"  />
</g>
<g id="a8_002"  >
<polygon points="113,85 118,80 230,80 230,90 118,90 113,85 " style="fill:white; stroke-width:1; stroke:black; " description="&lt;b&gt;BO66DRAFT_455071&lt;/b&gt;&lt;br&gt;ABC drug exporter AbcA&lt;br&gt;Location: 37898 - 42375" locus_tag="BO66DRAFT_455071" class="clusterblast-orf" id="dummy-8_h8_5_2"  />
</g>
<g id="a8_003"  >
<polygon points="264,85 269,80 318,80 318,90 269,90 264,85 " style="fill:#d81515; stroke-width:1; stroke:black; " description="&lt;b&gt;BO66DRAFT_455073&lt;/b&gt;&lt;br&gt;putative cytochrome P450&lt;br&gt;Location: 43663 - 45717&lt;br&gt;&lt;br&gt;&lt;b&gt;BlastP hit with input.path1.gene1018&lt;/b&gt;&lt;br&gt;Percentage identity: 37&lt;br&gt;Percentage coverage: 112&lt;br&gt;BLAST bit score: 347&lt;br&gt;E-value: 6.12e-113" locus_tag="BO66DRAFT_455073" class="clusterblast-orf" id="dummy-8_h8_5_3"  />
</g>
<g id="a8_004"  >
<polygon points="348,90 418,90 423,85 418,80 348,80 348,90 " style="fill:#15d815; stroke-width:1; stroke:black; " description="&lt;b&gt;BO66DRAFT_455078&lt;/b&gt;&lt;br&gt;putative geranylgeranyl diphosphate synthase&lt;br&gt;Location: 46868 - 49708&lt;br&gt;&lt;br&gt;&lt;b&gt;BlastP hit with input.path1.gene1019&lt;/b&gt;&lt;br&gt;Percentage identity: 49&lt;br&gt;Percentage coverage: 38&lt;br&gt;BLAST bit score: 285&lt;br&gt;E-value: 1.04e-82" locus_tag="BO66DRAFT_455078" class="clusterblast-orf" id="dummy-8_h8_5_4"  />
</g>
<g id="a8_005"  >
<polygon points="514,90 557,90 562,85 557,80 514,80 514,90 " style="fill:white; stroke-width:1; stroke:black; " description="&lt;b&gt;BO66DRAFT_326609&lt;/b&gt;&lt;br&gt;hypothetical protein&lt;br&gt;Location: 53179 - 55014" locus_tag="BO66DRAFT_326609" class="clusterblast-orf" id="dummy-8_h8_5_5"  />
</g>
<g id="a8_006"  >
<polygon points="595,85 600,80 612,80 612,90 600,90 595,85 " style="fill:white; stroke-width:1; stroke:black; " description="&lt;b&gt;BO66DRAFT_472651&lt;/b&gt;&lt;br&gt;hypothetical protein&lt;br&gt;Location: 56266 - 56932" locus_tag="BO66DRAFT_472651" class="clusterblast-orf" id="dummy-8_h8_5_6"  />
</g>
<g id="a8_007"  >
<polygon points="702,90 707,90 712,85 707,80 702,80 702,90 " style="fill:white; stroke-width:1; stroke:black; " description="&lt;b&gt;BO66DRAFT_440053&lt;/b&gt;&lt;br&gt;hypothetical protein&lt;br&gt;Location: 60353 - 60709" locus_tag="BO66DRAFT_440053" class="clusterblast-orf" id="dummy-8_h8_5_7"  />
</g>
<g id="a8_008"  >
<polygon points="748,85 753,80 780,80 780,90 753,90 748,85 " style="fill:white; stroke-width:1; stroke:black; " description="&lt;b&gt;BO66DRAFT_352873&lt;/b&gt;&lt;br&gt;2OG-Fe(II) oxygenase superfamily protein&lt;br&gt;Location: 62084 - 63295" locus_tag="BO66DRAFT_352873" class="clusterblast-orf" id="dummy-8_h8_5_8"  />
</g>
</svg>
