<svg xmlns="http://www.w3.org/2000/svg" xmlns:xlink="http://www.w3.org/1999/xlink" version="1.1" x="0" y="0" height="230" width="800" viewBox="0 0 800 230" preserveAspectRatio="none"  >
<g label="Query sequence" class="clusterblast-cluster"  >
<text x="5" y="20" class="clusterblast-acc"  >
Query sequence</text>
<line x1="10" y1="35" x2="778.0" y2="35" style="stroke-width:1; stroke:grey; "  />
<polygon points="67,40 115,40 120,35 115,30 67,30 67,40 " style="fill:#d81515; stroke-width:1; stroke:black; " description="&lt;b&gt;input.path1.gene1106&lt;/b&gt;&lt;br&gt;input.path1.gene1106&lt;br&gt;Location: 4259431 - 4264080" locus_tag="input.path1.gene1106" class="clusterblast-orf" id="dummy-8_q0_0_all"  />
<polygon points="144,40 154,40 159,35 154,30 144,30 144,40 " style="fill:#33d815; stroke-width:1; stroke:black; " description="&lt;b&gt;input.path1.gene1107&lt;/b&gt;&lt;br&gt;input.path1.gene1107&lt;br&gt;Location: 4266151 - 4267500" locus_tag="input.path1.gene1107" class="clusterblast-orf" id="dummy-8_q1_0_all"  />
<polygon points="175,40 191,40 196,35 191,30 175,30 175,40 " style="fill:#15abd8; stroke-width:1; stroke:black; " description="&lt;b&gt;input.path1.gene1108&lt;/b&gt;&lt;br&gt;input.path1.gene1108&lt;br&gt;Location: 4268831 - 4270697" locus_tag="input.path1.gene1108" class="clusterblast-orf" id="dummy-8_q2_0_all"  />
<polygon points="200,35 205,30 218,30 218,40 205,40 200,35 " style="fill:#8d15d8; stroke-width:1; stroke:black; " description="&lt;b&gt;input.path1.gene1109&lt;/b&gt;&lt;br&gt;input.path1.gene1109&lt;br&gt;Location: 4271072 - 4272602" locus_tag="input.path1.gene1109" class="clusterblast-orf" id="dummy-8_q3_0_all"  />
<polygon points="248,40 262,40 267,35 262,30 248,30 248,40 " style="fill:#d86f15; stroke-width:1; stroke:black; " description="&lt;b&gt;input.path1.gene1110&lt;/b&gt;&lt;br&gt;input.path1.gene1110&lt;br&gt;Location: 4275305 - 4276943" locus_tag="input.path1.gene1110" class="clusterblast-orf" id="dummy-8_q4_0_all"  />
<polygon points="273,35 278,30 425,30 425,40 278,40 273,35 " style="fill:#15d851; stroke-width:1; stroke:black; " description="&lt;b&gt;input.path1.gene1111&lt;/b&gt;&lt;br&gt;input.path1.gene1111&lt;br&gt;Location: 4277420 - 4290761" locus_tag="input.path1.gene1111" class="clusterblast-orf" id="dummy-8_q5_0_all"  />
<polygon points="480,40 495,40 500,35 495,30 480,30 480,40 " style="fill:#1551d8; stroke-width:1; stroke:black; " description="&lt;b&gt;input.path1.gene1112&lt;/b&gt;&lt;br&gt;input.path1.gene1112&lt;br&gt;Location: 4295618 - 4297347" locus_tag="input.path1.gene1112" class="clusterblast-orf" id="dummy-8_q6_0_all"  />
<polygon points="538,40 559,40 564,35 559,30 538,30 538,40 " style="fill:#d815c9; stroke-width:1; stroke:black; " description="&lt;b&gt;input.path1.gene1113&lt;/b&gt;&lt;br&gt;input.path1.gene1113&lt;br&gt;Location: 4300722 - 4302978" locus_tag="input.path1.gene1113" class="clusterblast-orf" id="dummy-8_q7_0_all"  />
<polygon points="575,35 580,30 594,30 594,40 580,40 575,35 " style="fill:#d8c915; stroke-width:1; stroke:black; " description="&lt;b&gt;input.path1.gene1114&lt;/b&gt;&lt;br&gt;input.path1.gene1114&lt;br&gt;Location: 4303917 - 4305621" locus_tag="input.path1.gene1114" class="clusterblast-orf" id="dummy-8_q8_0_all"  />
<polygon points="614,35 619,30 624,30 624,40 619,40 614,35 " style="fill:#15d8ab; stroke-width:1; stroke:black; " description="&lt;b&gt;input.path1.gene1115&lt;/b&gt;&lt;br&gt;input.path1.gene1115&lt;br&gt;Location: 4307344 - 4308274" locus_tag="input.path1.gene1115" class="clusterblast-orf" id="dummy-8_q9_0_all"  />
<polygon points="637,40 662,40 667,35 662,30 637,30 637,40 " style="fill:#3315d8; stroke-width:1; stroke:black; " description="&lt;b&gt;input.path1.gene1116&lt;/b&gt;&lt;br&gt;input.path1.gene1116&lt;br&gt;Location: 4309343 - 4312009" locus_tag="input.path1.gene1116" class="clusterblast-orf" id="dummy-8_q10_0_all"  />
<polygon points="668,35 673,30 686,30 686,40 673,40 668,35 " style="fill:#d8156f; stroke-width:1; stroke:black; " description="&lt;b&gt;input.path1.gene1117&lt;/b&gt;&lt;br&gt;input.path1.gene1117&lt;br&gt;Location: 4312092 - 4313690" locus_tag="input.path1.gene1117" class="clusterblast-orf" id="dummy-8_q11_0_all"  />
<polygon points="691,40 707,40 712,35 707,30 691,30 691,40 " style="fill:#8dd815; stroke-width:1; stroke:black; " description="&lt;b&gt;input.path1.gene1118&lt;/b&gt;&lt;br&gt;input.path1.gene1118&lt;br&gt;Location: 4314145 - 4315949" locus_tag="input.path1.gene1118" class="clusterblast-orf" id="dummy-8_q12_0_all"  />
</g>
<g label="NW_014574715" description="NW_014574715 (339608-420863): Metarhizium brunneum ARSEF 3297 chromosome Unkn... (72% of genes show similarity), NRP-metallophore,NRPS" class="clusterblast-cluster"  >
<text x="5" y="70" class="clusterblast-acc"  >
<a xlink:href="https://antismash-db.secondarymetabolites.org/area?record=NW_014574715&amp;start=339608&amp;end=420863" target="_blank">NW_014574715 (339608-420863)</a>: Metarhizium brunneum ARSEF 3297 chromosome Unkn... (72% of genes show similarity), NRP-metallophore,NRPS</text>
<line x1="10" y1="85" x2="778.0" y2="85" style="stroke-width:1; stroke:grey; "  />
</g>
<g id="a8_000"  >
<polygon points="0,90 48,90 53,85 48,80 0,80 0,90 " style="fill:#d81515; stroke-width:1; stroke:black; " description="&lt;b&gt;MBR_02201&lt;/b&gt;&lt;br&gt;ATP-binding cassette transporter ABC1&lt;br&gt;Location: 345240 - 349954&lt;br&gt;&lt;br&gt;&lt;b&gt;BlastP hit with input.path1.gene1106&lt;/b&gt;&lt;br&gt;Percentage identity: 72&lt;br&gt;Percentage coverage: 94&lt;br&gt;BLAST bit score: 2027&lt;br&gt;E-value: 0.0" locus_tag="MBR_02201" class="clusterblast-orf" id="dummy-8_h8_1_0"  />
</g>
<g id="a8_001"  >
<polygon points="95,90 106,90 111,85 106,80 95,80 95,90 " style="fill:#33d815; stroke-width:1; stroke:black; " description="&lt;b&gt;MBR_02202&lt;/b&gt;&lt;br&gt;proteinrelated to integral membrane protein pth11&lt;br&gt;Location: 353610 - 355001&lt;br&gt;&lt;br&gt;&lt;b&gt;BlastP hit with input.path1.gene1107&lt;/b&gt;&lt;br&gt;Percentage identity: 60&lt;br&gt;Percentage coverage: 87&lt;br&gt;BLAST bit score: 277&lt;br&gt;E-value: 7.44e-90" locus_tag="MBR_02202" class="clusterblast-orf" id="dummy-8_h8_1_1"  />
</g>
<g id="a8_002"  >
<polygon points="131,90 149,90 154,85 149,80 131,80 131,90 " style="fill:#15abd8; stroke-width:1; stroke:black; " description="&lt;b&gt;MBR_02203&lt;/b&gt;&lt;br&gt;amidase&lt;br&gt;Location: 356814 - 358750&lt;br&gt;&lt;br&gt;&lt;b&gt;BlastP hit with input.path1.gene1108&lt;/b&gt;&lt;br&gt;Percentage identity: 71&lt;br&gt;Percentage coverage: 99&lt;br&gt;BLAST bit score: 704&lt;br&gt;E-value: 1.01e-251" locus_tag="MBR_02203" class="clusterblast-orf" id="dummy-8_h8_1_2"  />
</g>
<g id="a8_003"  >
<polygon points="157,90 160,90 165,85 160,80 157,80 157,90 " style="fill:white; stroke-width:1; stroke:black; " description="&lt;b&gt;MBR_02204&lt;/b&gt;&lt;br&gt;glyoxalase/bleomycin resistance protein/dioxygenase&lt;br&gt;Location: 359085 - 359795" locus_tag="MBR_02204" class="clusterblast-orf" id="dummy-8_h8_1_3"  />
</g>
<g id="a8_004"  >
<polygon points="171,85 176,80 188,80 188,90 176,90 171,85 " style="fill:#8d15d8; stroke-width:1; stroke:black; " description="&lt;b&gt;MBR_02205&lt;/b&gt;&lt;br&gt;betaine aldehyde dehydrogenase&lt;br&gt;Location: 360257 - 361786&lt;br&gt;&lt;br&gt;&lt;b&gt;BlastP hit with input.path1.gene1109&lt;/b&gt;&lt;br&gt;Percentage identity: 84&lt;br&gt;Percentage coverage: 100&lt;br&gt;BLAST bit score: 871&lt;br&gt;E-value: 0.0" locus_tag="MBR_02205" class="clusterblast-orf" id="dummy-8_h8_1_4"  />
</g>
<g id="a8_005"  >
<polygon points="225,90 239,90 244,85 239,80 225,80 225,90 " style="fill:#d86f15; stroke-width:1; stroke:black; " description="&lt;b&gt;MBR_02206&lt;/b&gt;&lt;br&gt;choline oxidase (CodA)&lt;br&gt;Location: 365004 - 366638&lt;br&gt;&lt;br&gt;&lt;b&gt;BlastP hit with input.path1.gene1110&lt;/b&gt;&lt;br&gt;Percentage identity: 83&lt;br&gt;Percentage coverage: 100&lt;br&gt;BLAST bit score: 954&lt;br&gt;E-value: 0.0" locus_tag="MBR_02206" class="clusterblast-orf" id="dummy-8_h8_1_5"  />
</g>
<g id="a8_006"  >
<polygon points="256,90 271,90 276,85 271,80 256,80 256,90 " style="fill:white; stroke-width:1; stroke:black; " description="&lt;b&gt;MBR_02207&lt;/b&gt;&lt;br&gt;DUF1479 domain-containing protein&lt;br&gt;Location: 367730 - 369457" locus_tag="MBR_02207" class="clusterblast-orf" id="dummy-8_h8_1_6"  />
</g>
<g id="a8_007"  >
<polygon points="277,85 282,80 444,80 444,90 282,90 277,85 " style="fill:#15d851; stroke-width:1; stroke:black; " description="&lt;b&gt;MBR_02208&lt;/b&gt;&lt;br&gt;peptide synthetase&lt;br&gt;Location: 369609 - 384260&lt;br&gt;&lt;br&gt;&lt;b&gt;BlastP hit with input.path1.gene1111&lt;/b&gt;&lt;br&gt;Percentage identity: 44&lt;br&gt;Percentage coverage: 102&lt;br&gt;BLAST bit score: 3622&lt;br&gt;E-value: 0.0" locus_tag="MBR_02208" class="clusterblast-orf" id="dummy-8_h8_1_7"  />
</g>
<g id="a8_008"  >
<polygon points="498,90 515,90 520,85 515,80 498,80 498,90 " style="fill:#1551d8; stroke-width:1; stroke:black; " description="&lt;b&gt;MBR_02209&lt;/b&gt;&lt;br&gt;L-ornithine 5-monooxygenase (L-ornithine N(5)-oxygenase)&lt;br&gt;Location: 388924 - 390863&lt;br&gt;&lt;br&gt;&lt;b&gt;BlastP hit with input.path1.gene1112&lt;/b&gt;&lt;br&gt;Percentage identity: 67&lt;br&gt;Percentage coverage: 90&lt;br&gt;BLAST bit score: 684&lt;br&gt;E-value: 9.75e-243" locus_tag="MBR_02209" class="clusterblast-orf" id="dummy-8_h8_1_8"  />
</g>
<g id="a8_009"  >
<polygon points="566,90 589,90 594,85 589,80 566,80 566,90 " style="fill:#d815c9; stroke-width:1; stroke:black; " description="&lt;b&gt;MBR_02210&lt;/b&gt;&lt;br&gt;Transcription factor, fungi&lt;br&gt;Location: 394923 - 397356&lt;br&gt;&lt;br&gt;&lt;b&gt;BlastP hit with input.path1.gene1113&lt;/b&gt;&lt;br&gt;Percentage identity: 41&lt;br&gt;Percentage coverage: 129&lt;br&gt;BLAST bit score: 430&lt;br&gt;E-value: 1.16e-141" locus_tag="MBR_02210" class="clusterblast-orf" id="dummy-8_h8_1_9"  />
</g>
<g id="a8_0010"  >
<polygon points="599,90 612,90 617,85 612,80 599,80 599,90 " style="fill:white; stroke-width:1; stroke:black; " description="&lt;b&gt;MBR_02211&lt;/b&gt;&lt;br&gt;translation initiation factor eIF-2B subunit family protein&lt;br&gt;Location: 397838 - 399416" locus_tag="MBR_02211" class="clusterblast-orf" id="dummy-8_h8_1_10"  />
</g>
<g id="a8_0011"  >
<polygon points="621,85 626,80 640,80 640,90 626,90 621,85 " style="fill:#d8c915; stroke-width:1; stroke:black; " description="&lt;b&gt;MBR_02212&lt;/b&gt;&lt;br&gt;FF domain protein&lt;br&gt;Location: 399699 - 401444&lt;br&gt;&lt;br&gt;&lt;b&gt;BlastP hit with input.path1.gene1114&lt;/b&gt;&lt;br&gt;Percentage identity: 59&lt;br&gt;Percentage coverage: 101&lt;br&gt;BLAST bit score: 533&lt;br&gt;E-value: 4.15e-183" locus_tag="MBR_02212" class="clusterblast-orf" id="dummy-8_h8_1_11"  />
</g>
<g id="a8_0012"  >
<polygon points="647,90 654,90 659,85 654,80 647,80 647,90 " style="fill:white; stroke-width:1; stroke:black; " description="&lt;b&gt;MBR_02213&lt;/b&gt;&lt;br&gt;PAP2 domain protein&lt;br&gt;Location: 402008 - 403111" locus_tag="MBR_02213" class="clusterblast-orf" id="dummy-8_h8_1_12"  />
</g>
<g id="a8_0013"  >
<polygon points="663,85 668,80 673,80 673,90 668,90 663,85 " style="fill:#15d8ab; stroke-width:1; stroke:black; " description="&lt;b&gt;MBR_02214&lt;/b&gt;&lt;br&gt;hypothetical protein&lt;br&gt;Location: 403390 - 404332&lt;br&gt;&lt;br&gt;&lt;b&gt;BlastP hit with input.path1.gene1115&lt;/b&gt;&lt;br&gt;Percentage identity: 97&lt;br&gt;Percentage coverage: 100&lt;br&gt;BLAST bit score: 492&lt;br&gt;E-value: 2.81e-177" locus_tag="MBR_02214" class="clusterblast-orf" id="dummy-8_h8_1_13"  />
</g>
<g id="a8_0014"  >
<polygon points="691,90 715,90 720,85 715,80 691,80 691,90 " style="fill:#3315d8; stroke-width:1; stroke:black; " description="&lt;b&gt;MBR_02215&lt;/b&gt;&lt;br&gt;Transcription factor S-II, central domain containing protein&lt;br&gt;Location: 405897 - 408466&lt;br&gt;&lt;br&gt;&lt;b&gt;BlastP hit with input.path1.gene1116&lt;/b&gt;&lt;br&gt;Percentage identity: 64&lt;br&gt;Percentage coverage: 101&lt;br&gt;BLAST bit score: 969&lt;br&gt;E-value: 0.0" locus_tag="MBR_02215" class="clusterblast-orf" id="dummy-8_h8_1_14"  />
</g>
<g id="a8_0015"  >
<polygon points="729,85 734,80 738,80 738,90 734,90 729,85 " style="fill:#d8156f; stroke-width:1; stroke:black; " description="&lt;b&gt;MBR_02216&lt;/b&gt;&lt;br&gt;mediator complex subunit 7&lt;br&gt;Location: 409234 - 410040&lt;br&gt;&lt;br&gt;&lt;b&gt;BlastP hit with input.path1.gene1117&lt;/b&gt;&lt;br&gt;Percentage identity: 73&lt;br&gt;Percentage coverage: 64&lt;br&gt;BLAST bit score: 318&lt;br&gt;E-value: 3.21e-107" locus_tag="MBR_02216" class="clusterblast-orf" id="dummy-8_h8_1_15"  />
</g>
<g id="a8_0016"  >
<polygon points="745,90 754,90 759,85 754,80 745,80 745,90 " style="fill:#8dd815; stroke-width:1; stroke:black; " description="&lt;b&gt;MBR_02217&lt;/b&gt;&lt;br&gt;Coiled-coil domain-containing protein 16&lt;br&gt;Location: 410609 - 411823&lt;br&gt;&lt;br&gt;&lt;b&gt;BlastP hit with input.path1.gene1118&lt;/b&gt;&lt;br&gt;Percentage identity: 40&lt;br&gt;Percentage coverage: 93&lt;br&gt;BLAST bit score: 174&lt;br&gt;E-value: 6.52e-47" locus_tag="MBR_02217" class="clusterblast-orf" id="dummy-8_h8_1_16"  />
</g>
<g id="a8_0017"  >
<polygon points="766,85 771,80 780,80 780,90 771,90 766,85 " style="fill:white; stroke-width:1; stroke:black; " description="&lt;b&gt;MBR_02218&lt;/b&gt;&lt;br&gt;F-box domain-containing protein&lt;br&gt;Location: 412472 - 413640" locus_tag="MBR_02218" class="clusterblast-orf" id="dummy-8_h8_1_17"  />
</g>
</svg>
