<svg xmlns="http://www.w3.org/2000/svg" xmlns:xlink="http://www.w3.org/1999/xlink" version="1.1" x="0" y="0" height="230" width="800" viewBox="0 0 800 230" preserveAspectRatio="none"  >
<g label="Query sequence" class="clusterblast-cluster"  >
<text x="5" y="20" class="clusterblast-acc"  >
Query sequence</text>
<line x1="10" y1="35" x2="778.0" y2="35" style="stroke-width:1; stroke:grey; "  />
<polygon points="0,35 5,30 18,30 18,40 5,40 0,35 " style="fill:white; stroke-width:1; stroke:black; " description="&lt;b&gt;input.path1.gene823&lt;/b&gt;&lt;br&gt;input.path1.gene823&lt;br&gt;Location: 3099433 - 3100481" locus_tag="input.path1.gene823" class="clusterblast-orf" id="dummy-6_q0_0_all"  />
<polygon points="42,35 47,30 144,30 144,40 47,40 42,35 " style="fill:white; stroke-width:1; stroke:black; " description="&lt;b&gt;input.path1.gene824&lt;/b&gt;&lt;br&gt;input.path1.gene824&lt;br&gt;Location: 3101782 - 3107496" locus_tag="input.path1.gene824" class="clusterblast-orf" id="dummy-6_q1_0_all"  />
<polygon points="158,35 163,30 165,30 165,40 163,40 158,35 " style="fill:white; stroke-width:1; stroke:black; " description="&lt;b&gt;input.path1.gene825&lt;/b&gt;&lt;br&gt;input.path1.gene825&lt;br&gt;Location: 3108300 - 3108686" locus_tag="input.path1.gene825" class="clusterblast-orf" id="dummy-6_q2_0_all"  />
<polygon points="170,40 175,40 180,35 175,30 170,30 170,40 " style="fill:white; stroke-width:1; stroke:black; " description="&lt;b&gt;input.path1.gene826&lt;/b&gt;&lt;br&gt;input.path1.gene826&lt;br&gt;Location: 3108958 - 3109525" locus_tag="input.path1.gene826" class="clusterblast-orf" id="dummy-6_q3_0_all"  />
<polygon points="182,35 187,30 220,30 220,40 187,40 182,35 " style="fill:#d81515; stroke-width:1; stroke:black; " description="&lt;b&gt;input.path1.gene827&lt;/b&gt;&lt;br&gt;input.path1.gene827&lt;br&gt;Location: 3109679 - 3111801" locus_tag="input.path1.gene827" class="clusterblast-orf" id="dummy-6_q4_0_all"  />
<polygon points="279,35 284,30 302,30 302,40 284,40 279,35 " style="fill:#77d815; stroke-width:1; stroke:black; " description="&lt;b&gt;input.path1.gene828&lt;/b&gt;&lt;br&gt;input.path1.gene828&lt;br&gt;Location: 3115077 - 3116403" locus_tag="input.path1.gene828" class="clusterblast-orf" id="dummy-6_q5_0_all"  />
<polygon points="310,40 313,40 318,35 313,30 310,30 310,40 " style="fill:white; stroke-width:1; stroke:black; " description="&lt;b&gt;input.path1.gene829&lt;/b&gt;&lt;br&gt;input.path1.gene829&lt;br&gt;Location: 3116837 - 3117271" locus_tag="input.path1.gene829" class="clusterblast-orf" id="dummy-6_q6_0_all"  />
<polygon points="331,40 457,40 462,35 457,30 331,30 331,40 " style="fill:#15d8d8; stroke-width:1; stroke:black; " description="&lt;b&gt;input.path1.gene830&lt;/b&gt;&lt;br&gt;input.path1.gene830&lt;br&gt;Location: 3117977 - 3125368" locus_tag="input.path1.gene830" class="clusterblast-orf" id="dummy-6_q7_0_all"  />
<polygon points="485,40 511,40 516,35 511,30 485,30 485,40 " style="fill:#7715d8; stroke-width:1; stroke:black; " description="&lt;b&gt;input.path1.gene831&lt;/b&gt;&lt;br&gt;input.path1.gene831&lt;br&gt;Location: 3126617 - 3128357" locus_tag="input.path1.gene831" class="clusterblast-orf" id="dummy-6_q8_0_all"  />
<polygon points="620,40 646,40 651,35 646,30 620,30 620,40 " style="fill:white; stroke-width:1; stroke:black; " description="&lt;b&gt;input.path1.gene832&lt;/b&gt;&lt;br&gt;input.path1.gene832&lt;br&gt;Location: 3134210 - 3135965" locus_tag="input.path1.gene832" class="clusterblast-orf" id="dummy-6_q9_0_all"  />
<polygon points="653,40 686,40 691,35 686,30 653,30 653,40 " style="fill:white; stroke-width:1; stroke:black; " description="&lt;b&gt;input.path1.gene833&lt;/b&gt;&lt;br&gt;input.path1.gene833&lt;br&gt;Location: 3136038 - 3138194" locus_tag="input.path1.gene833" class="clusterblast-orf" id="dummy-6_q10_0_all"  />
<polygon points="699,35 704,30 712,30 712,40 704,40 699,35 " style="fill:white; stroke-width:1; stroke:black; " description="&lt;b&gt;input.path1.gene834&lt;/b&gt;&lt;br&gt;input.path1.gene834&lt;br&gt;Location: 3138610 - 3139370" locus_tag="input.path1.gene834" class="clusterblast-orf" id="dummy-6_q11_0_all"  />
<polygon points="741,40 775,40 780,35 775,30 741,30 741,40 " style="fill:#7715d8; stroke-width:1; stroke:black; " description="&lt;b&gt;input.path1.gene835&lt;/b&gt;&lt;br&gt;input.path1.gene835&lt;br&gt;Location: 3141000 - 3143153" locus_tag="input.path1.gene835" class="clusterblast-orf" id="dummy-6_q12_0_all"  />
</g>
<g label="NC_054849" description="NC_054849 (78324-143361): Aspergillus luchuensis IFO 4308 DNA, chromosome 1, ... (28% of genes show similarity), T1PKS" class="clusterblast-cluster"  >
<text x="5" y="70" class="clusterblast-acc"  >
<a xlink:href="https://antismash-db.secondarymetabolites.org/area?record=NC_054849&amp;start=78324&amp;end=143361" target="_blank">NC_054849 (78324-143361)</a>: Aspergillus luchuensis IFO 4308 DNA, chromosome 1, ... (28% of genes show similarity), T1PKS</text>
<line x1="10" y1="85" x2="778.0" y2="85" style="stroke-width:1; stroke:grey; "  />
</g>
<g id="a6_000"  >
<polygon points="57,90 79,90 84,85 79,80 57,80 57,90 " style="fill:white; stroke-width:1; stroke:black; " description="&lt;b&gt;AKAW2_10032S&lt;/b&gt;&lt;br&gt;uncharacterized protein&lt;br&gt;Location: 80299 - 81787" locus_tag="AKAW2_10032S" class="clusterblast-orf" id="dummy-6_h6_9_0"  />
</g>
<g id="a6_001"  >
<polygon points="96,85 101,80 124,80 124,90 101,90 96,85 " style="fill:white; stroke-width:1; stroke:black; " description="&lt;b&gt;AKAW2_10033A&lt;/b&gt;&lt;br&gt;uncharacterized protein&lt;br&gt;Location: 82492 - 84069" locus_tag="AKAW2_10033A" class="clusterblast-orf" id="dummy-6_h6_9_1"  />
</g>
<g id="a6_002"  >
<polygon points="150,90 157,90 162,85 157,80 150,80 150,90 " style="fill:white; stroke-width:1; stroke:black; " description="&lt;b&gt;AKAW2_10035S&lt;/b&gt;&lt;br&gt;uncharacterized protein&lt;br&gt;Location: 85485 - 86204" locus_tag="AKAW2_10035S" class="clusterblast-orf" id="dummy-6_h6_9_2"  />
</g>
<g id="a6_003"  >
<polygon points="170,85 175,80 198,80 198,90 175,90 170,85 " style="fill:white; stroke-width:1; stroke:black; " description="&lt;b&gt;AKAW2_10034A&lt;/b&gt;&lt;br&gt;endo-1,6-beta-D-glucanase Neg1&lt;br&gt;Location: 86639 - 88193" locus_tag="AKAW2_10034A" class="clusterblast-orf" id="dummy-6_h6_9_3"  />
</g>
<g id="a6_004"  >
<polygon points="216,90 245,90 250,85 245,80 216,80 216,90 " style="fill:white; stroke-width:1; stroke:black; " description="&lt;b&gt;AKAW2_10036S&lt;/b&gt;&lt;br&gt;uncharacterized protein&lt;br&gt;Location: 89205 - 91126" locus_tag="AKAW2_10036S" class="clusterblast-orf" id="dummy-6_h6_9_4"  />
</g>
<g id="a6_005"  >
<polygon points="317,90 321,90 326,85 321,80 317,80 317,90 " style="fill:white; stroke-width:1; stroke:black; " description="&lt;b&gt;AKAW2_10037S&lt;/b&gt;&lt;br&gt;uncharacterized protein&lt;br&gt;Location: 94882 - 95379" locus_tag="AKAW2_10037S" class="clusterblast-orf" id="dummy-6_h6_9_5"  />
</g>
<g id="a6_006"  >
<polygon points="338,90 345,90 350,85 345,80 338,80 338,90 " style="fill:white; stroke-width:1; stroke:black; " description="&lt;b&gt;AKAW2_10038S&lt;/b&gt;&lt;br&gt;uncharacterized protein&lt;br&gt;Location: 96055 - 96702" locus_tag="AKAW2_10038S" class="clusterblast-orf" id="dummy-6_h6_9_6"  />
</g>
<g id="a6_007"  >
<polygon points="394,85 399,80 413,80 413,90 399,90 394,85 " style="fill:white; stroke-width:1; stroke:black; " description="&lt;b&gt;AKAW2_10039A&lt;/b&gt;&lt;br&gt;uncharacterized protein&lt;br&gt;Location: 99188 - 100237" locus_tag="AKAW2_10039A" class="clusterblast-orf" id="dummy-6_h6_9_7"  />
</g>
<g id="a6_008"  >
<polygon points="422,85 427,80 465,80 465,90 427,90 422,85 " style="fill:white; stroke-width:1; stroke:black; " description="&lt;b&gt;AKAW2_10040A&lt;/b&gt;&lt;br&gt;uncharacterized protein&lt;br&gt;Location: 100744 - 103182" locus_tag="AKAW2_10040A" class="clusterblast-orf" id="dummy-6_h6_9_8"  />
</g>
<g id="a6_009"  >
<polygon points="472,85 477,80 502,80 502,90 477,90 472,85 " style="fill:#d81515; stroke-width:1; stroke:black; " description="&lt;b&gt;AKAW2_10041A&lt;/b&gt;&lt;br&gt;uncharacterized protein&lt;br&gt;Location: 103574 - 105229&lt;br&gt;&lt;br&gt;&lt;b&gt;BlastP hit with input.path1.gene827&lt;/b&gt;&lt;br&gt;Percentage identity: 48&lt;br&gt;Percentage coverage: 96&lt;br&gt;BLAST bit score: 477&lt;br&gt;E-value: 4.61e-162" locus_tag="AKAW2_10041A" class="clusterblast-orf" id="dummy-6_h6_9_9"  />
</g>
<g id="a6_0010"  >
<polygon points="510,85 515,80 537,80 537,90 515,90 510,85 " style="fill:#77d815; stroke-width:1; stroke:black; " description="&lt;b&gt;AKAW2_10042A&lt;/b&gt;&lt;br&gt;putative secondary metabolism biosynthetic enzyme&lt;br&gt;Location: 105697 - 107197&lt;br&gt;&lt;br&gt;&lt;b&gt;BlastP hit with input.path1.gene828&lt;/b&gt;&lt;br&gt;Percentage identity: 55&lt;br&gt;Percentage coverage: 68&lt;br&gt;BLAST bit score: 274&lt;br&gt;E-value: 5.46e-87" locus_tag="AKAW2_10042A" class="clusterblast-orf" id="dummy-6_h6_9_10"  />
</g>
<g id="a6_0011"  >
<polygon points="557,90 642,90 647,85 642,80 557,80 557,90 " style="fill:#15d8d8; stroke-width:1; stroke:black; " description="&lt;b&gt;AKAW2_10043S&lt;/b&gt;&lt;br&gt;type I iterative PKS&lt;br&gt;Location: 108325 - 113361&lt;br&gt;&lt;br&gt;&lt;b&gt;BlastP hit with input.path1.gene830&lt;/b&gt;&lt;br&gt;Percentage identity: 40&lt;br&gt;Percentage coverage: 68&lt;br&gt;BLAST bit score: 1043&lt;br&gt;E-value: 0.0" locus_tag="AKAW2_10043S" class="clusterblast-orf" id="dummy-6_h6_9_11"  />
</g>
<g id="a6_0012"  >
<polygon points="648,90 690,90 695,85 690,80 648,80 648,90 " style="fill:#15d8d8; stroke-width:1; stroke:black; " description="&lt;b&gt;AKAW2_10044S&lt;/b&gt;&lt;br&gt;putative secondary metabolism biosynthetic enzyme&lt;br&gt;Location: 113425 - 116036&lt;br&gt;&lt;br&gt;&lt;b&gt;BlastP hit with input.path1.gene830&lt;/b&gt;&lt;br&gt;Percentage identity: 39&lt;br&gt;Percentage coverage: 35&lt;br&gt;BLAST bit score: 508&lt;br&gt;E-value: 3.98e-155" locus_tag="AKAW2_10044S" class="clusterblast-orf" id="dummy-6_h6_9_12"  />
</g>
<g id="a6_0013"  >
<polygon points="708,90 717,90 722,85 717,80 708,80 708,90 " style="fill:white; stroke-width:1; stroke:black; " description="&lt;b&gt;AKAW2_10045S&lt;/b&gt;&lt;br&gt;uncharacterized protein&lt;br&gt;Location: 116796 - 117570" locus_tag="AKAW2_10045S" class="clusterblast-orf" id="dummy-6_h6_9_13"  />
</g>
</svg>
