<svg xmlns="http://www.w3.org/2000/svg" xmlns:xlink="http://www.w3.org/1999/xlink" version="1.1" x="0" y="0" height="230" width="800" viewBox="0 0 800 230" preserveAspectRatio="none"  >
<g label="Query sequence" class="clusterblast-cluster"  >
<text x="5" y="20" class="clusterblast-acc"  >
Query sequence</text>
<line x1="10" y1="35" x2="778.0" y2="35" style="stroke-width:1; stroke:grey; "  />
<polygon points="133,35 138,30 146,30 146,40 138,40 133,35 " style="fill:white; stroke-width:1; stroke:black; " description="&lt;b&gt;input.path1.gene680&lt;/b&gt;&lt;br&gt;input.path1.gene680&lt;br&gt;Location: 2736672 - 2737634" locus_tag="input.path1.gene680" class="clusterblast-orf" id="dummy-2_q0_0_all"  />
<polygon points="206,40 222,40 227,35 222,30 206,30 206,40 " style="fill:white; stroke-width:1; stroke:black; " description="&lt;b&gt;input.path1.gene681&lt;/b&gt;&lt;br&gt;input.path1.gene681&lt;br&gt;Location: 2742290 - 2743886" locus_tag="input.path1.gene681" class="clusterblast-orf" id="dummy-2_q1_0_all"  />
<polygon points="228,35 233,30 249,30 249,40 233,40 228,35 " style="fill:#d81515; stroke-width:1; stroke:black; " description="&lt;b&gt;input.path1.gene682&lt;/b&gt;&lt;br&gt;input.path1.gene682&lt;br&gt;Location: 2743959 - 2745648" locus_tag="input.path1.gene682" class="clusterblast-orf" id="dummy-2_q2_0_all"  />
<polygon points="282,35 287,30 291,30 291,40 287,40 282,35 " style="fill:#4dd815; stroke-width:1; stroke:black; " description="&lt;b&gt;input.path1.gene683&lt;/b&gt;&lt;br&gt;input.path1.gene683&lt;br&gt;Location: 2748146 - 2748826" locus_tag="input.path1.gene683" class="clusterblast-orf" id="dummy-2_q3_0_all"  />
<polygon points="357,40 445,40 450,35 445,30 357,30 357,40 " style="fill:#1585d8; stroke-width:1; stroke:black; " description="&lt;b&gt;input.path1.gene684&lt;/b&gt;&lt;br&gt;input.path1.gene684&lt;br&gt;Location: 2753943 - 2761143" locus_tag="input.path1.gene684" class="clusterblast-orf" id="dummy-2_q4_0_all"  />
<polygon points="462,40 479,40 484,35 479,30 462,30 462,40 " style="fill:#d815bc; stroke-width:1; stroke:black; " description="&lt;b&gt;input.path1.gene685&lt;/b&gt;&lt;br&gt;input.path1.gene685&lt;br&gt;Location: 2762064 - 2763780" locus_tag="input.path1.gene685" class="clusterblast-orf" id="dummy-2_q5_0_all"  />
<polygon points="491,35 496,30 539,30 539,40 496,40 491,35 " style="fill:#d8bc15; stroke-width:1; stroke:black; " description="&lt;b&gt;input.path1.gene686&lt;/b&gt;&lt;br&gt;input.path1.gene686&lt;br&gt;Location: 2764328 - 2768036" locus_tag="input.path1.gene686" class="clusterblast-orf" id="dummy-2_q6_0_all"  />
<polygon points="596,40 616,40 621,35 616,30 596,30 596,40 " style="fill:#15d885; stroke-width:1; stroke:black; " description="&lt;b&gt;input.path1.gene687&lt;/b&gt;&lt;br&gt;input.path1.gene687&lt;br&gt;Location: 2772477 - 2774376" locus_tag="input.path1.gene687" class="clusterblast-orf" id="dummy-2_q7_0_all"  />
<polygon points="631,35 636,30 646,30 646,40 636,40 631,35 " style="fill:#4d15d8; stroke-width:1; stroke:black; " description="&lt;b&gt;input.path1.gene688&lt;/b&gt;&lt;br&gt;input.path1.gene688&lt;br&gt;Location: 2775117 - 2776299" locus_tag="input.path1.gene688" class="clusterblast-orf" id="dummy-2_q8_0_all"  />
</g>
<g label="NW_025953257" description="NW_025953257 (328883-396554): Annulohypoxylon maeteangense strain CBS 123835 ... (16% of genes show similarity), T1PKS" class="clusterblast-cluster"  >
<text x="5" y="70" class="clusterblast-acc"  >
<a xlink:href="https://antismash-db.secondarymetabolites.org/area?record=NW_025953257&amp;start=328883&amp;end=396554" target="_blank">NW_025953257 (328883-396554)</a>: Annulohypoxylon maeteangense strain CBS 123835 ... (16% of genes show similarity), T1PKS</text>
<line x1="10" y1="85" x2="778.0" y2="85" style="stroke-width:1; stroke:grey; "  />
</g>
<g id="a2_000"  >
<polygon points="0,90 7,90 12,85 7,80 0,80 0,90 " style="fill:white; stroke-width:1; stroke:black; " description="&lt;b&gt;GGS22DRAFT_19792&lt;/b&gt;&lt;br&gt;carbohydrate esterase family 5 protein&lt;br&gt;Location: 394670 - 393681" locus_tag="GGS22DRAFT_19792" class="clusterblast-orf" id="dummy-2_h2_7_0"  />
</g>
<g id="a2_001"  >
<polygon points="35,85 40,80 82,80 82,90 40,90 35,85 " style="fill:white; stroke-width:1; stroke:black; " description="&lt;b&gt;GGS22DRAFT_164988&lt;/b&gt;&lt;br&gt;kinesin-domain-containing protein&lt;br&gt;Location: 391926 - 388272" locus_tag="GGS22DRAFT_164988" class="clusterblast-orf" id="dummy-2_h2_7_1"  />
</g>
<g id="a2_002"  >
<polygon points="94,90 101,90 106,85 101,80 94,80 94,90 " style="fill:white; stroke-width:1; stroke:black; " description="&lt;b&gt;GGS22DRAFT_164977&lt;/b&gt;&lt;br&gt;uncharacterized protein&lt;br&gt;Location: 387392 - 386412" locus_tag="GGS22DRAFT_164977" class="clusterblast-orf" id="dummy-2_h2_7_2"  />
</g>
<g id="a2_003"  >
<polygon points="117,85 122,80 141,80 141,90 122,90 117,85 " style="fill:white; stroke-width:1; stroke:black; " description="&lt;b&gt;GGS22DRAFT_189283&lt;/b&gt;&lt;br&gt;dihydroxy-acid dehydratase&lt;br&gt;Location: 385595 - 383718" locus_tag="GGS22DRAFT_189283" class="clusterblast-orf" id="dummy-2_h2_7_3"  />
</g>
<g id="a2_004"  >
<polygon points="160,90 176,90 181,85 176,80 160,80 160,90 " style="fill:white; stroke-width:1; stroke:black; " description="&lt;b&gt;GGS22DRAFT_19757&lt;/b&gt;&lt;br&gt;transmembrane amino acid transporter protein-domain-containing protein&lt;br&gt;Location: 382226 - 380672" locus_tag="GGS22DRAFT_19757" class="clusterblast-orf" id="dummy-2_h2_7_4"  />
</g>
<g id="a2_005"  >
<polygon points="188,90 190,90 195,85 190,80 188,80 188,90 " style="fill:white; stroke-width:1; stroke:black; " description="&lt;b&gt;GGS22DRAFT_19748&lt;/b&gt;&lt;br&gt;uncharacterized protein&lt;br&gt;Location: 380100 - 379576" locus_tag="GGS22DRAFT_19748" class="clusterblast-orf" id="dummy-2_h2_7_5"  />
</g>
<g id="a2_006"  >
<polygon points="247,85 252,80 315,80 315,90 252,90 247,85 " style="fill:white; stroke-width:1; stroke:black; " description="&lt;b&gt;GGS22DRAFT_164972&lt;/b&gt;&lt;br&gt;P-loop containing nucleoside triphosphate hydrolase protein&lt;br&gt;Location: 375559 - 370243" locus_tag="GGS22DRAFT_164972" class="clusterblast-orf" id="dummy-2_h2_7_6"  />
</g>
<g id="a2_007"  >
<polygon points="329,85 334,80 341,80 341,90 334,90 329,85 " style="fill:#4dd815; stroke-width:1; stroke:black; " description="&lt;b&gt;GGS22DRAFT_164968&lt;/b&gt;&lt;br&gt;serine hydrolase FSH&lt;br&gt;Location: 369214 - 368281&lt;br&gt;&lt;br&gt;&lt;b&gt;BlastP hit with input.path1.gene683&lt;/b&gt;&lt;br&gt;Percentage identity: 42&lt;br&gt;Percentage coverage: 87&lt;br&gt;BLAST bit score: 92&lt;br&gt;E-value: 1.8e-21" locus_tag="GGS22DRAFT_164968" class="clusterblast-orf" id="dummy-2_h2_7_7"  />
</g>
<g id="a2_008"  >
<polygon points="363,90 457,90 462,85 457,80 363,80 363,90 " style="fill:#1585d8; stroke-width:1; stroke:black; " description="&lt;b&gt;GGS22DRAFT_194754&lt;/b&gt;&lt;br&gt;ketoacyl-synt-domain-containing protein&lt;br&gt;Location: 366554 - 358884&lt;br&gt;&lt;br&gt;&lt;b&gt;BlastP hit with input.path1.gene684&lt;/b&gt;&lt;br&gt;Percentage identity: 41&lt;br&gt;Percentage coverage: 100&lt;br&gt;BLAST bit score: 1699&lt;br&gt;E-value: 0.0" locus_tag="GGS22DRAFT_194754" class="clusterblast-orf" id="dummy-2_h2_7_8"  />
</g>
<g id="a2_009"  >
<polygon points="474,85 479,80 504,80 504,90 479,90 474,85 " style="fill:white; stroke-width:1; stroke:black; " description="&lt;b&gt;GGS22DRAFT_164963&lt;/b&gt;&lt;br&gt;3-phytase&lt;br&gt;Location: 357966 - 355672" locus_tag="GGS22DRAFT_164963" class="clusterblast-orf" id="dummy-2_h2_7_9"  />
</g>
<g id="a2_0010"  >
<polygon points="534,90 553,90 558,85 553,80 534,80 534,90 " style="fill:#d815bc; stroke-width:1; stroke:black; " description="&lt;b&gt;GGS22DRAFT_164962&lt;/b&gt;&lt;br&gt;amino acid permease/ SLC12A domain-containing protein&lt;br&gt;Location: 353342 - 351459&lt;br&gt;&lt;br&gt;&lt;b&gt;BlastP hit with input.path1.gene685&lt;/b&gt;&lt;br&gt;Percentage identity: 31&lt;br&gt;Percentage coverage: 81&lt;br&gt;BLAST bit score: 219&lt;br&gt;E-value: 5.91e-62" locus_tag="GGS22DRAFT_164962" class="clusterblast-orf" id="dummy-2_h2_7_10"  />
</g>
<g id="a2_0011"  >
<polygon points="591,90 604,90 609,85 604,80 591,80 591,90 " style="fill:white; stroke-width:1; stroke:black; " description="&lt;b&gt;GGS22DRAFT_164961&lt;/b&gt;&lt;br&gt;2-methylcitrate dehydratase PrpD&lt;br&gt;Location: 348938 - 347550" locus_tag="GGS22DRAFT_164961" class="clusterblast-orf" id="dummy-2_h2_7_11"  />
</g>
<g id="a2_0012"  >
<polygon points="613,90 613,90 618,85 613,80 613,80 613,90 " style="fill:white; stroke-width:1; stroke:black; " description="&lt;b&gt;GGS22DRAFT_194747&lt;/b&gt;&lt;br&gt;uncharacterized protein&lt;br&gt;Location: 347272 - 346826" locus_tag="GGS22DRAFT_194747" class="clusterblast-orf" id="dummy-2_h2_7_12"  />
</g>
<g id="a2_0013"  >
<polygon points="621,85 626,80 633,80 633,90 626,90 621,85 " style="fill:white; stroke-width:1; stroke:black; " description="&lt;b&gt;GGS22DRAFT_19592&lt;/b&gt;&lt;br&gt;uncharacterized protein&lt;br&gt;Location: 346646 - 345702" locus_tag="GGS22DRAFT_19592" class="clusterblast-orf" id="dummy-2_h2_7_13"  />
</g>
<g id="a2_0014"  >
<polygon points="639,85 644,80 662,80 662,90 644,90 639,85 " style="fill:white; stroke-width:1; stroke:black; " description="&lt;b&gt;GGS22DRAFT_19576&lt;/b&gt;&lt;br&gt;uncharacterized protein&lt;br&gt;Location: 345207 - 343424" locus_tag="GGS22DRAFT_19576" class="clusterblast-orf" id="dummy-2_h2_7_14"  />
</g>
<g id="a2_0015"  >
<polygon points="679,90 695,90 700,85 695,80 679,80 679,90 " style="fill:white; stroke-width:1; stroke:black; " description="&lt;b&gt;GGS22DRAFT_164957&lt;/b&gt;&lt;br&gt;DNA primase, large subunit&lt;br&gt;Location: 342174 - 340538" locus_tag="GGS22DRAFT_164957" class="clusterblast-orf" id="dummy-2_h2_7_15"  />
</g>
<g id="a2_0016"  >
<polygon points="717,90 719,85 717,80 717,90 " style="fill:white; stroke-width:1; stroke:black; " description="&lt;b&gt;GGS22DRAFT_19552&lt;/b&gt;&lt;br&gt;uncharacterized protein&lt;br&gt;Location: 339236 - 339015" locus_tag="GGS22DRAFT_19552" class="clusterblast-orf" id="dummy-2_h2_7_16"  />
</g>
<g id="a2_0017"  >
<polygon points="775,90 775,90 780,85 775,80 775,80 775,90 " style="fill:white; stroke-width:1; stroke:black; " description="&lt;b&gt;GGS22DRAFT_189270&lt;/b&gt;&lt;br&gt;uncharacterized protein&lt;br&gt;Location: 334737 - 334371" locus_tag="GGS22DRAFT_189270" class="clusterblast-orf" id="dummy-2_h2_7_17"  />
</g>
</svg>
