<svg xmlns="http://www.w3.org/2000/svg" xmlns:xlink="http://www.w3.org/1999/xlink" version="1.1" x="0" y="0" height="230" width="800" viewBox="0 0 800 230" preserveAspectRatio="none"  >
<g label="Query sequence" class="clusterblast-cluster"  >
<text x="5" y="20" class="clusterblast-acc"  >
Query sequence</text>
<line x1="10" y1="35" x2="778.0" y2="35" style="stroke-width:1; stroke:grey; "  />
<polygon points="255,35 260,30 270,30 270,40 260,40 255,35 " style="fill:white; stroke-width:1; stroke:black; " description="&lt;b&gt;input.path1.gene1287&lt;/b&gt;&lt;br&gt;input.path1.gene1287&lt;br&gt;Location: 5041161 - 5043692" locus_tag="input.path1.gene1287" class="clusterblast-orf" id="dummy-6_q0_0_all"  />
<polygon points="276,35 281,30 299,30 299,40 281,40 276,35 " style="fill:white; stroke-width:1; stroke:black; " description="&lt;b&gt;input.path1.gene1288&lt;/b&gt;&lt;br&gt;input.path1.gene1288&lt;br&gt;Location: 5044643 - 5048384" locus_tag="input.path1.gene1288" class="clusterblast-orf" id="dummy-6_q1_0_all"  />
<polygon points="325,40 325,40 330,35 325,30 325,30 325,40 " style="fill:white; stroke-width:1; stroke:black; " description="&lt;b&gt;input.path1.gene1289&lt;/b&gt;&lt;br&gt;input.path1.gene1289&lt;br&gt;Location: 5052680 - 5053377" locus_tag="input.path1.gene1289" class="clusterblast-orf" id="dummy-6_q2_0_all"  />
<polygon points="350,40 353,40 358,35 353,30 350,30 350,40 " style="fill:white; stroke-width:1; stroke:black; " description="&lt;b&gt;input.path1.gene1290&lt;/b&gt;&lt;br&gt;input.path1.gene1290&lt;br&gt;Location: 5056655 - 5057975" locus_tag="input.path1.gene1290" class="clusterblast-orf" id="dummy-6_q3_0_all"  />
<polygon points="359,35 364,30 420,30 420,40 364,40 359,35 " style="fill:#d81515; stroke-width:1; stroke:black; " description="&lt;b&gt;input.path1.gene1291&lt;/b&gt;&lt;br&gt;input.path1.gene1291&lt;br&gt;Location: 5058255 - 5068211" locus_tag="input.path1.gene1291" class="clusterblast-orf" id="dummy-6_q4_0_all"  />
<polygon points="430,40 434,35 430,30 430,40 " style="fill:#15d815; stroke-width:1; stroke:black; " description="&lt;b&gt;input.path1.gene1292&lt;/b&gt;&lt;br&gt;input.path1.gene1292&lt;br&gt;Location: 5069788 - 5070523" locus_tag="input.path1.gene1292" class="clusterblast-orf" id="dummy-6_q5_0_all"  />
<polygon points="437,35 442,30 449,30 449,40 442,40 437,35 " style="fill:#1515d8; stroke-width:1; stroke:black; " description="&lt;b&gt;input.path1.gene1293&lt;/b&gt;&lt;br&gt;input.path1.gene1293&lt;br&gt;Location: 5071059 - 5072997" locus_tag="input.path1.gene1293" class="clusterblast-orf" id="dummy-6_q6_0_all"  />
<polygon points="458,35 460,30 460,40 458,35 " style="fill:white; stroke-width:1; stroke:black; " description="&lt;b&gt;input.path1.gene1294&lt;/b&gt;&lt;br&gt;input.path1.gene1294&lt;br&gt;Location: 5074367 - 5074736" locus_tag="input.path1.gene1294" class="clusterblast-orf" id="dummy-6_q7_0_all"  />
<polygon points="490,40 491,40 496,35 491,30 490,30 490,40 " style="fill:white; stroke-width:1; stroke:black; " description="&lt;b&gt;input.path1.gene1295&lt;/b&gt;&lt;br&gt;input.path1.gene1295&lt;br&gt;Location: 5079699 - 5080615" locus_tag="input.path1.gene1295" class="clusterblast-orf" id="dummy-6_q8_0_all"  />
<polygon points="496,35 500,30 500,40 496,35 " style="fill:white; stroke-width:1; stroke:black; " description="&lt;b&gt;input.path1.gene1296&lt;/b&gt;&lt;br&gt;input.path1.gene1296&lt;br&gt;Location: 5080706 - 5081394" locus_tag="input.path1.gene1296" class="clusterblast-orf" id="dummy-6_q9_0_all"  />
<polygon points="518,40 519,40 524,35 519,30 518,30 518,40 " style="fill:white; stroke-width:1; stroke:black; " description="&lt;b&gt;input.path1.gene1297&lt;/b&gt;&lt;br&gt;input.path1.gene1297&lt;br&gt;Location: 5084188 - 5085269" locus_tag="input.path1.gene1297" class="clusterblast-orf" id="dummy-6_q10_0_all"  />
</g>
<g label="NW_025091284" description="NW_025091284 (4592542-4724179): Aspergillus pseudoviridinutans IFM 55266 DNA,... (17% of genes show similarity), NRPS" class="clusterblast-cluster"  >
<text x="5" y="70" class="clusterblast-acc"  >
<a xlink:href="https://antismash-db.secondarymetabolites.org/area?record=NW_025091284&amp;start=4592542&amp;end=4724179" target="_blank">NW_025091284 (4592542-4724179)</a>: Aspergillus pseudoviridinutans IFM 55266 DNA,... (17% of genes show similarity), NRPS</text>
<line x1="10" y1="85" x2="778.0" y2="85" style="stroke-width:1; stroke:grey; "  />
</g>
<g id="a6_000"  >
<polygon points="0,85 5,80 8,80 8,90 5,90 0,85 " style="fill:white; stroke-width:1; stroke:black; " description="&lt;b&gt;Asppvi_007080&lt;/b&gt;&lt;br&gt;uncharacterized protein&lt;br&gt;Location: 4724037 - 4722626" locus_tag="Asppvi_007080" class="clusterblast-orf" id="dummy-6_h6_4_0"  />
</g>
<g id="a6_001"  >
<polygon points="16,90 19,85 16,80 16,90 " style="fill:white; stroke-width:1; stroke:black; " description="&lt;b&gt;Asppvi_007079&lt;/b&gt;&lt;br&gt;uncharacterized protein&lt;br&gt;Location: 4721257 - 4720856" locus_tag="Asppvi_007079" class="clusterblast-orf" id="dummy-6_h6_4_1"  />
</g>
<g id="a6_002"  >
<polygon points="27,90 47,90 52,85 47,80 27,80 27,90 " style="fill:white; stroke-width:1; stroke:black; " description="&lt;b&gt;Asppvi_007078&lt;/b&gt;&lt;br&gt;uncharacterized protein&lt;br&gt;Location: 4719543 - 4715429" locus_tag="Asppvi_007078" class="clusterblast-orf" id="dummy-6_h6_4_2"  />
</g>
<g id="a6_003"  >
<polygon points="57,90 63,90 68,85 63,80 57,80 57,90 " style="fill:white; stroke-width:1; stroke:black; " description="&lt;b&gt;Asppvi_007077&lt;/b&gt;&lt;br&gt;uncharacterized protein&lt;br&gt;Location: 4714581 - 4712884" locus_tag="Asppvi_007077" class="clusterblast-orf" id="dummy-6_h6_4_3"  />
</g>
<g id="a6_004"  >
<polygon points="70,85 75,80 76,80 76,90 75,90 70,85 " style="fill:white; stroke-width:1; stroke:black; " description="&lt;b&gt;Asppvi_007076&lt;/b&gt;&lt;br&gt;uncharacterized protein&lt;br&gt;Location: 4712519 - 4711502" locus_tag="Asppvi_007076" class="clusterblast-orf" id="dummy-6_h6_4_4"  />
</g>
<g id="a6_005"  >
<polygon points="132,85 137,80 147,80 147,90 137,90 132,85 " style="fill:#d81515; stroke-width:1; stroke:black; " description="&lt;b&gt;Asppvi_007075&lt;/b&gt;&lt;br&gt;uncharacterized protein&lt;br&gt;Location: 4702347 - 4699871&lt;br&gt;&lt;br&gt;&lt;b&gt;BlastP hit with input.path1.gene1291&lt;/b&gt;&lt;br&gt;Percentage identity: 48&lt;br&gt;Percentage coverage: 17&lt;br&gt;BLAST bit score: 479&lt;br&gt;E-value: 4.19e-148" locus_tag="Asppvi_007075" class="clusterblast-orf" id="dummy-6_h6_4_5"  />
</g>
<g id="a6_006"  >
<polygon points="151,90 153,85 151,80 151,90 " style="fill:white; stroke-width:1; stroke:black; " description="&lt;b&gt;Asppvi_007074&lt;/b&gt;&lt;br&gt;uncharacterized protein&lt;br&gt;Location: 4699212 - 4698819" locus_tag="Asppvi_007074" class="clusterblast-orf" id="dummy-6_h6_4_6"  />
</g>
<g id="a6_007"  >
<polygon points="171,85 175,80 175,90 171,85 " style="fill:#15d815; stroke-width:1; stroke:black; " description="&lt;b&gt;Asppvi_007073&lt;/b&gt;&lt;br&gt;uncharacterized protein&lt;br&gt;Location: 4695902 - 4695222&lt;br&gt;&lt;br&gt;&lt;b&gt;BlastP hit with input.path1.gene1292&lt;/b&gt;&lt;br&gt;Percentage identity: 33&lt;br&gt;Percentage coverage: 81&lt;br&gt;BLAST bit score: 87&lt;br&gt;E-value: 9.94e-19" locus_tag="Asppvi_007073" class="clusterblast-orf" id="dummy-6_h6_4_7"  />
</g>
<g id="a6_008"  >
<polygon points="182,90 222,90 227,85 222,80 182,80 182,90 " style="fill:#d81515; stroke-width:1; stroke:black; " description="&lt;b&gt;Asppvi_007072&lt;/b&gt;&lt;br&gt;nonribosomal peptide synthase&lt;br&gt;Location: 4694179 - 4686704&lt;br&gt;&lt;br&gt;&lt;b&gt;BlastP hit with input.path1.gene1291&lt;/b&gt;&lt;br&gt;Percentage identity: 38&lt;br&gt;Percentage coverage: 74&lt;br&gt;BLAST bit score: 1401&lt;br&gt;E-value: 0.0" locus_tag="Asppvi_007072" class="clusterblast-orf" id="dummy-6_h6_4_8"  />
</g>
<g id="a6_009"  >
<polygon points="234,85 239,80 241,80 241,90 239,90 234,85 " style="fill:white; stroke-width:1; stroke:black; " description="&lt;b&gt;Asppvi_007071&lt;/b&gt;&lt;br&gt;uncharacterized protein&lt;br&gt;Location: 4685631 - 4684492" locus_tag="Asppvi_007071" class="clusterblast-orf" id="dummy-6_h6_4_9"  />
</g>
<g id="a6_0010"  >
<polygon points="254,90 258,90 263,85 258,80 254,80 254,90 " style="fill:white; stroke-width:1; stroke:black; " description="&lt;b&gt;Asppvi_007070&lt;/b&gt;&lt;br&gt;uncharacterized protein&lt;br&gt;Location: 4682389 - 4680884" locus_tag="Asppvi_007070" class="clusterblast-orf" id="dummy-6_h6_4_10"  />
</g>
<g id="a6_0011"  >
<polygon points="266,85 271,80 271,80 271,90 271,90 266,85 " style="fill:white; stroke-width:1; stroke:black; " description="&lt;b&gt;Asppvi_007069&lt;/b&gt;&lt;br&gt;uncharacterized protein&lt;br&gt;Location: 4680440 - 4679494" locus_tag="Asppvi_007069" class="clusterblast-orf" id="dummy-6_h6_4_11"  />
</g>
<g id="a6_0012"  >
<polygon points="275,90 279,90 284,85 279,80 275,80 275,90 " style="fill:white; stroke-width:1; stroke:black; " description="&lt;b&gt;Asppvi_007068&lt;/b&gt;&lt;br&gt;uncharacterized protein&lt;br&gt;Location: 4678901 - 4677332" locus_tag="Asppvi_007068" class="clusterblast-orf" id="dummy-6_h6_4_12"  />
</g>
<g id="a6_0013"  >
<polygon points="297,85 302,80 303,80 303,90 302,90 297,85 " style="fill:white; stroke-width:1; stroke:black; " description="&lt;b&gt;Asppvi_007067&lt;/b&gt;&lt;br&gt;uncharacterized protein&lt;br&gt;Location: 4675257 - 4674265" locus_tag="Asppvi_007067" class="clusterblast-orf" id="dummy-6_h6_4_13"  />
</g>
<g id="a6_0014"  >
<polygon points="319,85 324,80 325,80 325,90 324,90 319,85 " style="fill:white; stroke-width:1; stroke:black; " description="&lt;b&gt;Asppvi_007066&lt;/b&gt;&lt;br&gt;uncharacterized protein&lt;br&gt;Location: 4671723 - 4670675" locus_tag="Asppvi_007066" class="clusterblast-orf" id="dummy-6_h6_4_14"  />
</g>
<g id="a6_0015"  >
<polygon points="331,90 331,90 336,85 331,80 331,80 331,90 " style="fill:white; stroke-width:1; stroke:black; " description="&lt;b&gt;Asppvi_007065&lt;/b&gt;&lt;br&gt;uncharacterized protein&lt;br&gt;Location: 4669763 - 4668864" locus_tag="Asppvi_007065" class="clusterblast-orf" id="dummy-6_h6_4_15"  />
</g>
<g id="a6_0016"  >
<polygon points="339,90 348,90 353,85 348,80 339,80 339,90 " style="fill:white; stroke-width:1; stroke:black; " description="&lt;b&gt;Asppvi_007064&lt;/b&gt;&lt;br&gt;lactose regulatory protein lac9 and GAL4-like protein&lt;br&gt;Location: 4668449 - 4666165" locus_tag="Asppvi_007064" class="clusterblast-orf" id="dummy-6_h6_4_16"  />
</g>
<g id="a6_0017"  >
<polygon points="357,90 361,85 357,80 357,90 " style="fill:white; stroke-width:1; stroke:black; " description="&lt;b&gt;Asppvi_007063&lt;/b&gt;&lt;br&gt;uncharacterized protein&lt;br&gt;Location: 4665501 - 4664768" locus_tag="Asppvi_007063" class="clusterblast-orf" id="dummy-6_h6_4_17"  />
</g>
<g id="a6_0018"  >
<polygon points="370,85 375,80 379,80 379,90 375,90 370,85 " style="fill:white; stroke-width:1; stroke:black; " description="&lt;b&gt;Asppvi_007062&lt;/b&gt;&lt;br&gt;uncharacterized protein&lt;br&gt;Location: 4663306 - 4661903" locus_tag="Asppvi_007062" class="clusterblast-orf" id="dummy-6_h6_4_18"  />
</g>
<g id="a6_0019"  >
<polygon points="382,90 388,90 393,85 388,80 382,80 382,90 " style="fill:white; stroke-width:1; stroke:black; " description="&lt;b&gt;Asppvi_007061&lt;/b&gt;&lt;br&gt;uncharacterized protein&lt;br&gt;Location: 4661273 - 4659600" locus_tag="Asppvi_007061" class="clusterblast-orf" id="dummy-6_h6_4_19"  />
</g>
<g id="a6_0020"  >
<polygon points="403,90 405,90 410,85 405,80 403,80 403,90 " style="fill:white; stroke-width:1; stroke:black; " description="&lt;b&gt;Asppvi_007060&lt;/b&gt;&lt;br&gt;uncharacterized protein&lt;br&gt;Location: 4657872 - 4656695" locus_tag="Asppvi_007060" class="clusterblast-orf" id="dummy-6_h6_4_20"  />
</g>
<g id="a6_0021"  >
<polygon points="413,85 418,80 422,80 422,90 418,90 413,85 " style="fill:white; stroke-width:1; stroke:black; " description="&lt;b&gt;Asppvi_007059&lt;/b&gt;&lt;br&gt;uncharacterized protein&lt;br&gt;Location: 4656242 - 4654842" locus_tag="Asppvi_007059" class="clusterblast-orf" id="dummy-6_h6_4_21"  />
</g>
<g id="a6_0022"  >
<polygon points="427,90 434,90 439,85 434,80 427,80 427,90 " style="fill:white; stroke-width:1; stroke:black; " description="&lt;b&gt;Asppvi_007058&lt;/b&gt;&lt;br&gt;uncharacterized protein&lt;br&gt;Location: 4654014 - 4652082" locus_tag="Asppvi_007058" class="clusterblast-orf" id="dummy-6_h6_4_22"  />
</g>
<g id="a6_0023"  >
<polygon points="452,90 455,90 460,85 455,80 452,80 452,90 " style="fill:white; stroke-width:1; stroke:black; " description="&lt;b&gt;Asppvi_007057&lt;/b&gt;&lt;br&gt;uncharacterized protein&lt;br&gt;Location: 4649820 - 4648567" locus_tag="Asppvi_007057" class="clusterblast-orf" id="dummy-6_h6_4_23"  />
</g>
<g id="a6_0024"  >
<polygon points="466,90 467,90 472,85 467,80 466,80 466,90 " style="fill:white; stroke-width:1; stroke:black; " description="&lt;b&gt;Asppvi_007056&lt;/b&gt;&lt;br&gt;uncharacterized protein&lt;br&gt;Location: 4647608 - 4646587" locus_tag="Asppvi_007056" class="clusterblast-orf" id="dummy-6_h6_4_24"  />
</g>
<g id="a6_0025"  >
<polygon points="476,85 481,80 481,80 481,90 481,90 476,85 " style="fill:white; stroke-width:1; stroke:black; " description="&lt;b&gt;Asppvi_007055&lt;/b&gt;&lt;br&gt;uncharacterized protein&lt;br&gt;Location: 4646019 - 4645173" locus_tag="Asppvi_007055" class="clusterblast-orf" id="dummy-6_h6_4_25"  />
</g>
<g id="a6_0026"  >
<polygon points="483,85 488,80 504,80 504,90 488,90 483,85 " style="fill:white; stroke-width:1; stroke:black; " description="&lt;b&gt;Asppvi_007054&lt;/b&gt;&lt;br&gt;uncharacterized protein&lt;br&gt;Location: 4644742 - 4641432" locus_tag="Asppvi_007054" class="clusterblast-orf" id="dummy-6_h6_4_26"  />
</g>
<g id="a6_0027"  >
<polygon points="506,85 511,80 515,80 515,90 511,90 506,85 " style="fill:white; stroke-width:1; stroke:black; " description="&lt;b&gt;Asppvi_007053&lt;/b&gt;&lt;br&gt;uncharacterized protein&lt;br&gt;Location: 4640994 - 4639627" locus_tag="Asppvi_007053" class="clusterblast-orf" id="dummy-6_h6_4_27"  />
</g>
<g id="a6_0028"  >
<polygon points="541,85 546,80 553,80 553,90 546,90 541,85 " style="fill:#1515d8; stroke-width:1; stroke:black; " description="&lt;b&gt;Asppvi_007052&lt;/b&gt;&lt;br&gt;uncharacterized protein&lt;br&gt;Location: 4635354 - 4633378&lt;br&gt;&lt;br&gt;&lt;b&gt;BlastP hit with input.path1.gene1293&lt;/b&gt;&lt;br&gt;Percentage identity: 34&lt;br&gt;Percentage coverage: 98&lt;br&gt;BLAST bit score: 211&lt;br&gt;E-value: 9.7e-59" locus_tag="Asppvi_007052" class="clusterblast-orf" id="dummy-6_h6_4_28"  />
</g>
<g id="a6_0029"  >
<polygon points="566,90 567,90 572,85 567,80 566,80 566,90 " style="fill:white; stroke-width:1; stroke:black; " description="&lt;b&gt;Asppvi_007051&lt;/b&gt;&lt;br&gt;uncharacterized protein&lt;br&gt;Location: 4631202 - 4630128" locus_tag="Asppvi_007051" class="clusterblast-orf" id="dummy-6_h6_4_29"  />
</g>
<g id="a6_0030"  >
<polygon points="575,85 580,80 619,80 619,90 580,90 575,85 " style="fill:#d81515; stroke-width:1; stroke:black; " description="&lt;b&gt;Asppvi_007050&lt;/b&gt;&lt;br&gt;nonribosomal peptide synthetase 7&lt;br&gt;Location: 4629655 - 4622543&lt;br&gt;&lt;br&gt;&lt;b&gt;BlastP hit with input.path1.gene1291&lt;/b&gt;&lt;br&gt;Percentage identity: 54&lt;br&gt;Percentage coverage: 80&lt;br&gt;BLAST bit score: 2464&lt;br&gt;E-value: 0.0" locus_tag="Asppvi_007050" class="clusterblast-orf" id="dummy-6_h6_4_30"  />
</g>
<g id="a6_0031"  >
<polygon points="625,85 630,80 635,80 635,90 630,90 625,85 " style="fill:#d81515; stroke-width:1; stroke:black; " description="&lt;b&gt;Asppvi_007049&lt;/b&gt;&lt;br&gt;uncharacterized protein&lt;br&gt;Location: 4621551 - 4619854&lt;br&gt;&lt;br&gt;&lt;b&gt;BlastP hit with input.path1.gene1291&lt;/b&gt;&lt;br&gt;Percentage identity: 62&lt;br&gt;Percentage coverage: 17&lt;br&gt;BLAST bit score: 619&lt;br&gt;E-value: 6.93e-197" locus_tag="Asppvi_007049" class="clusterblast-orf" id="dummy-6_h6_4_31"  />
</g>
<g id="a6_0032"  >
<polygon points="639,90 643,85 639,80 639,90 " style="fill:#15d815; stroke-width:1; stroke:black; " description="&lt;b&gt;Asppvi_007048&lt;/b&gt;&lt;br&gt;uncharacterized protein&lt;br&gt;Location: 4619222 - 4618566&lt;br&gt;&lt;br&gt;&lt;b&gt;BlastP hit with input.path1.gene1292&lt;/b&gt;&lt;br&gt;Percentage identity: 74&lt;br&gt;Percentage coverage: 92&lt;br&gt;BLAST bit score: 285&lt;br&gt;E-value: 1.66e-96" locus_tag="Asppvi_007048" class="clusterblast-orf" id="dummy-6_h6_4_32"  />
</g>
<g id="a6_0033"  >
<polygon points="645,90 652,90 657,85 652,80 645,80 645,90 " style="fill:white; stroke-width:1; stroke:black; " description="&lt;b&gt;Asppvi_007047&lt;/b&gt;&lt;br&gt;uncharacterized protein&lt;br&gt;Location: 4618188 - 4616327" locus_tag="Asppvi_007047" class="clusterblast-orf" id="dummy-6_h6_4_33"  />
</g>
<g id="a6_0034"  >
<polygon points="665,85 670,80 681,80 681,90 670,90 665,85 " style="fill:white; stroke-width:1; stroke:black; " description="&lt;b&gt;Asppvi_007046&lt;/b&gt;&lt;br&gt;uncharacterized protein&lt;br&gt;Location: 4615020 - 4612281" locus_tag="Asppvi_007046" class="clusterblast-orf" id="dummy-6_h6_4_34"  />
</g>
<g id="a6_0035"  >
<polygon points="686,90 695,90 700,85 695,80 686,80 686,90 " style="fill:white; stroke-width:1; stroke:black; " description="&lt;b&gt;Asppvi_007045&lt;/b&gt;&lt;br&gt;uncharacterized protein&lt;br&gt;Location: 4611584 - 4609202" locus_tag="Asppvi_007045" class="clusterblast-orf" id="dummy-6_h6_4_35"  />
</g>
<g id="a6_0036"  >
<polygon points="704,85 709,80 722,80 722,90 709,90 704,85 " style="fill:white; stroke-width:1; stroke:black; " description="&lt;b&gt;Asppvi_007044&lt;/b&gt;&lt;br&gt;uncharacterized protein&lt;br&gt;Location: 4608586 - 4605597" locus_tag="Asppvi_007044" class="clusterblast-orf" id="dummy-6_h6_4_36"  />
</g>
<g id="a6_0037"  >
<polygon points="724,85 729,80 736,80 736,90 729,90 724,85 " style="fill:white; stroke-width:1; stroke:black; " description="&lt;b&gt;Asppvi_007043&lt;/b&gt;&lt;br&gt;uncharacterized protein&lt;br&gt;Location: 4605231 - 4603270" locus_tag="Asppvi_007043" class="clusterblast-orf" id="dummy-6_h6_4_37"  />
</g>
<g id="a6_0038"  >
<polygon points="750,85 755,80 755,80 755,90 755,90 750,85 " style="fill:white; stroke-width:1; stroke:black; " description="&lt;b&gt;Asppvi_007042&lt;/b&gt;&lt;br&gt;uncharacterized protein&lt;br&gt;Location: 4600965 - 4600261" locus_tag="Asppvi_007042" class="clusterblast-orf" id="dummy-6_h6_4_38"  />
</g>
<g id="a6_0039"  >
<polygon points="767,85 772,80 780,80 780,90 772,90 767,85 " style="fill:white; stroke-width:1; stroke:black; " description="&lt;b&gt;Asppvi_007041&lt;/b&gt;&lt;br&gt;uncharacterized protein&lt;br&gt;Location: 4598308 - 4596200" locus_tag="Asppvi_007041" class="clusterblast-orf" id="dummy-6_h6_4_39"  />
</g>
</svg>
