<svg xmlns="http://www.w3.org/2000/svg" xmlns:xlink="http://www.w3.org/1999/xlink" version="1.1" x="0" y="0" height="230" width="800" viewBox="0 0 800 230" preserveAspectRatio="none"  >
<g label="Query sequence" class="clusterblast-cluster"  >
<text x="5" y="20" class="clusterblast-acc"  >
Query sequence</text>
<line x1="10" y1="35" x2="778.0" y2="35" style="stroke-width:1; stroke:grey; "  />
<polygon points="173,40 176,40 181,35 176,30 173,30 173,40 " style="fill:#d81515; stroke-width:1; stroke:black; " description="&lt;b&gt;input.path1.gene945&lt;/b&gt;&lt;br&gt;input.path1.gene945&lt;br&gt;Location: 3574116 - 3575034" locus_tag="input.path1.gene945" class="clusterblast-orf" id="dummy-7_q0_0_all"  />
<polygon points="184,35 189,30 219,30 219,40 189,40 184,35 " style="fill:#3cd815; stroke-width:1; stroke:black; " description="&lt;b&gt;input.path1.gene946&lt;/b&gt;&lt;br&gt;input.path1.gene946&lt;br&gt;Location: 3575344 - 3579243" locus_tag="input.path1.gene946" class="clusterblast-orf" id="dummy-7_q1_0_all"  />
<polygon points="257,40 261,40 266,35 261,30 257,30 257,40 " style="fill:#1563d8; stroke-width:1; stroke:black; " description="&lt;b&gt;input.path1.gene947&lt;/b&gt;&lt;br&gt;input.path1.gene947&lt;br&gt;Location: 3583410 - 3584439" locus_tag="input.path1.gene947" class="clusterblast-orf" id="dummy-7_q2_0_all"  />
<polygon points="281,35 286,30 291,30 291,40 286,40 281,35 " style="fill:#b115d8; stroke-width:1; stroke:black; " description="&lt;b&gt;input.path1.gene948&lt;/b&gt;&lt;br&gt;input.path1.gene948&lt;br&gt;Location: 3586003 - 3587101" locus_tag="input.path1.gene948" class="clusterblast-orf" id="dummy-7_q3_0_all"  />
<polygon points="314,35 319,30 332,30 332,40 319,40 314,35 " style="fill:#d88a15; stroke-width:1; stroke:black; " description="&lt;b&gt;input.path1.gene949&lt;/b&gt;&lt;br&gt;input.path1.gene949&lt;br&gt;Location: 3589707 - 3591658" locus_tag="input.path1.gene949" class="clusterblast-orf" id="dummy-7_q4_0_all"  />
<polygon points="368,35 373,30 375,30 375,40 373,40 368,35 " style="fill:white; stroke-width:1; stroke:black; " description="&lt;b&gt;input.path1.gene950&lt;/b&gt;&lt;br&gt;input.path1.gene950&lt;br&gt;Location: 3595574 - 3596437" locus_tag="input.path1.gene950" class="clusterblast-orf" id="dummy-7_q5_0_all"  />
<polygon points="402,35 406,30 406,40 402,35 " style="fill:white; stroke-width:1; stroke:black; " description="&lt;b&gt;input.path1.gene951&lt;/b&gt;&lt;br&gt;input.path1.gene951&lt;br&gt;Location: 3599342 - 3599810" locus_tag="input.path1.gene951" class="clusterblast-orf" id="dummy-7_q6_0_all"  />
<polygon points="416,40 418,40 423,35 418,30 416,30 416,40 " style="fill:#15d863; stroke-width:1; stroke:black; " description="&lt;b&gt;input.path1.gene952&lt;/b&gt;&lt;br&gt;input.path1.gene952&lt;br&gt;Location: 3600862 - 3601695" locus_tag="input.path1.gene952" class="clusterblast-orf" id="dummy-7_q7_0_all"  />
<polygon points="450,40 458,40 463,35 458,30 450,30 450,40 " style="fill:white; stroke-width:1; stroke:black; " description="&lt;b&gt;input.path1.gene953&lt;/b&gt;&lt;br&gt;input.path1.gene953&lt;br&gt;Location: 3604678 - 3606121" locus_tag="input.path1.gene953" class="clusterblast-orf" id="dummy-7_q8_0_all"  />
<polygon points="463,35 468,30 481,30 481,40 468,40 463,35 " style="fill:#3c15d8; stroke-width:1; stroke:black; " description="&lt;b&gt;input.path1.gene954&lt;/b&gt;&lt;br&gt;input.path1.gene954&lt;br&gt;Location: 3606138 - 3608108" locus_tag="input.path1.gene954" class="clusterblast-orf" id="dummy-7_q9_0_all"  />
<polygon points="484,40 487,40 492,35 487,30 484,30 484,40 " style="fill:white; stroke-width:1; stroke:black; " description="&lt;b&gt;input.path1.gene955&lt;/b&gt;&lt;br&gt;input.path1.gene955&lt;br&gt;Location: 3608425 - 3609289" locus_tag="input.path1.gene955" class="clusterblast-orf" id="dummy-7_q10_0_all"  />
<polygon points="492,35 495,30 495,40 492,35 " style="fill:white; stroke-width:1; stroke:black; " description="&lt;b&gt;input.path1.gene956&lt;/b&gt;&lt;br&gt;input.path1.gene956&lt;br&gt;Location: 3609322 - 3609590" locus_tag="input.path1.gene956" class="clusterblast-orf" id="dummy-7_q11_0_all"  />
<polygon points="510,40 516,40 521,35 516,30 510,30 510,40 " style="fill:#d8158a; stroke-width:1; stroke:black; " description="&lt;b&gt;input.path1.gene957&lt;/b&gt;&lt;br&gt;input.path1.gene957&lt;br&gt;Location: 3611309 - 3612472" locus_tag="input.path1.gene957" class="clusterblast-orf" id="dummy-7_q12_0_all"  />
<polygon points="553,40 571,40 576,35 571,30 553,30 553,40 " style="fill:#b1d815; stroke-width:1; stroke:black; " description="&lt;b&gt;input.path1.gene958&lt;/b&gt;&lt;br&gt;input.path1.gene958&lt;br&gt;Location: 3616049 - 3618574" locus_tag="input.path1.gene958" class="clusterblast-orf" id="dummy-7_q13_0_all"  />
<polygon points="597,35 602,30 607,30 607,40 602,40 597,35 " style="fill:#15d8d8; stroke-width:1; stroke:black; " description="&lt;b&gt;input.path1.gene959&lt;/b&gt;&lt;br&gt;input.path1.gene959&lt;br&gt;Location: 3620841 - 3621893" locus_tag="input.path1.gene959" class="clusterblast-orf" id="dummy-7_q14_0_all"  />
</g>
<g label="NW_006271973" description="NW_006271973 (266414-357915): Cordyceps militaris CM01 unplaced genomic scaff... (31% of genes show similarity), fungal-RiPP-like" class="clusterblast-cluster"  >
<text x="5" y="70" class="clusterblast-acc"  >
<a xlink:href="https://antismash-db.secondarymetabolites.org/area?record=NW_006271973&amp;start=266414&amp;end=357915" target="_blank">NW_006271973 (266414-357915)</a>: Cordyceps militaris CM01 unplaced genomic scaff... (31% of genes show similarity), fungal-RiPP-like</text>
<line x1="10" y1="85" x2="778.0" y2="85" style="stroke-width:1; stroke:grey; "  />
</g>
<g id="a7_000"  >
<polygon points="0,90 18,90 23,85 18,80 0,80 0,90 " style="fill:white; stroke-width:1; stroke:black; " description="&lt;b&gt;CCM_06509&lt;/b&gt;&lt;br&gt;serine/threonine-protein kinase hal4&lt;br&gt;Location: 353016 - 350382" locus_tag="CCM_06509" class="clusterblast-orf" id="dummy-7_h7_1_0"  />
</g>
<g id="a7_001"  >
<polygon points="40,90 43,90 48,85 43,80 40,80 40,90 " style="fill:white; stroke-width:1; stroke:black; " description="&lt;b&gt;CCM_06508&lt;/b&gt;&lt;br&gt;muramidase, putative&lt;br&gt;Location: 348525 - 347701" locus_tag="CCM_06508" class="clusterblast-orf" id="dummy-7_h7_1_1"  />
</g>
<g id="a7_002"  >
<polygon points="61,90 67,90 72,85 67,80 61,80 61,90 " style="fill:white; stroke-width:1; stroke:black; " description="&lt;b&gt;CCM_06507&lt;/b&gt;&lt;br&gt;hypothetical protein&lt;br&gt;Location: 346295 - 345008" locus_tag="CCM_06507" class="clusterblast-orf" id="dummy-7_h7_1_2"  />
</g>
<g id="a7_003"  >
<polygon points="95,85 100,80 115,80 115,90 100,90 95,85 " style="fill:white; stroke-width:1; stroke:black; " description="&lt;b&gt;CCM_06506&lt;/b&gt;&lt;br&gt;MFS transporter, putative&lt;br&gt;Location: 342517 - 340280" locus_tag="CCM_06506" class="clusterblast-orf" id="dummy-7_h7_1_3"  />
</g>
<g id="a7_004"  >
<polygon points="119,90 121,85 119,80 119,90 " style="fill:white; stroke-width:1; stroke:black; " description="&lt;b&gt;CCM_06505&lt;/b&gt;&lt;br&gt;hypothetical protein&lt;br&gt;Location: 339873 - 339628" locus_tag="CCM_06505" class="clusterblast-orf" id="dummy-7_h7_1_4"  />
</g>
<g id="a7_005"  >
<polygon points="126,85 131,80 140,80 140,90 131,90 126,85 " style="fill:white; stroke-width:1; stroke:black; " description="&lt;b&gt;CCM_06504&lt;/b&gt;&lt;br&gt;IMP-specific 5'-nucleotidase 1&lt;br&gt;Location: 339123 - 337545" locus_tag="CCM_06504" class="clusterblast-orf" id="dummy-7_h7_1_5"  />
</g>
<g id="a7_006"  >
<polygon points="155,90 158,90 163,85 158,80 155,80 155,90 " style="fill:#d81515; stroke-width:1; stroke:black; " description="&lt;b&gt;CCM_06503&lt;/b&gt;&lt;br&gt;PEX11 domain protein&lt;br&gt;Location: 335870 - 335019&lt;br&gt;&lt;br&gt;&lt;b&gt;BlastP hit with input.path1.gene945&lt;/b&gt;&lt;br&gt;Percentage identity: 58&lt;br&gt;Percentage coverage: 93&lt;br&gt;BLAST bit score: 227&lt;br&gt;E-value: 9.33e-73" locus_tag="CCM_06503" class="clusterblast-orf" id="dummy-7_h7_1_6"  />
</g>
<g id="a7_007"  >
<polygon points="167,85 172,80 201,80 201,90 172,90 167,85 " style="fill:#3cd815; stroke-width:1; stroke:black; " description="&lt;b&gt;CCM_06502&lt;/b&gt;&lt;br&gt;nonsense-mediated mRNA decay protein (Nmd5), putative&lt;br&gt;Location: 334555 - 330814&lt;br&gt;&lt;br&gt;&lt;b&gt;BlastP hit with input.path1.gene946&lt;/b&gt;&lt;br&gt;Percentage identity: 89&lt;br&gt;Percentage coverage: 104&lt;br&gt;BLAST bit score: 1745&lt;br&gt;E-value: 0.0" locus_tag="CCM_06502" class="clusterblast-orf" id="dummy-7_h7_1_7"  />
</g>
<g id="a7_008"  >
<polygon points="230,90 242,90 247,85 242,80 230,80 230,90 " style="fill:#1563d8; stroke-width:1; stroke:black; " description="&lt;b&gt;CCM_06501&lt;/b&gt;&lt;br&gt;hypothetical protein&lt;br&gt;Location: 327642 - 325755&lt;br&gt;&lt;br&gt;&lt;b&gt;BlastP hit with input.path1.gene947&lt;/b&gt;&lt;br&gt;Percentage identity: 47&lt;br&gt;Percentage coverage: 46&lt;br&gt;BLAST bit score: 123&lt;br&gt;E-value: 1.02e-29" locus_tag="CCM_06501" class="clusterblast-orf" id="dummy-7_h7_1_8"  />
</g>
<g id="a7_009"  >
<polygon points="259,85 264,80 279,80 279,90 264,90 259,85 " style="fill:#b115d8; stroke-width:1; stroke:black; " description="&lt;b&gt;CCM_06500&lt;/b&gt;&lt;br&gt;transcription factor RfeG&lt;br&gt;Location: 324487 - 322231&lt;br&gt;&lt;br&gt;&lt;b&gt;BlastP hit with input.path1.gene948&lt;/b&gt;&lt;br&gt;Percentage identity: 70&lt;br&gt;Percentage coverage: 123&lt;br&gt;BLAST bit score: 429&lt;br&gt;E-value: 1.55e-147" locus_tag="CCM_06500" class="clusterblast-orf" id="dummy-7_h7_1_9"  />
</g>
<g id="a7_0010"  >
<polygon points="295,85 300,80 313,80 313,90 300,90 295,85 " style="fill:#d88a15; stroke-width:1; stroke:black; " description="&lt;b&gt;CCM_06499&lt;/b&gt;&lt;br&gt;sister chromatid cohesion protein Eso1&lt;br&gt;Location: 320520 - 318453&lt;br&gt;&lt;br&gt;&lt;b&gt;BlastP hit with input.path1.gene949&lt;/b&gt;&lt;br&gt;Percentage identity: 68&lt;br&gt;Percentage coverage: 119&lt;br&gt;BLAST bit score: 714&lt;br&gt;E-value: 7.08e-254" locus_tag="CCM_06499" class="clusterblast-orf" id="dummy-7_h7_1_10"  />
</g>
<g id="a7_0011"  >
<polygon points="319,85 322,80 322,90 319,85 " style="fill:white; stroke-width:1; stroke:black; " description="&lt;b&gt;CCM_06498&lt;/b&gt;&lt;br&gt;hypothetical protein&lt;br&gt;Location: 317802 - 317461" locus_tag="CCM_06498" class="clusterblast-orf" id="dummy-7_h7_1_11"  />
</g>
<g id="a7_0012"  >
<polygon points="326,85 329,80 329,90 326,85 " style="fill:white; stroke-width:1; stroke:black; " description="&lt;b&gt;CCM_06497&lt;/b&gt;&lt;br&gt;hypothetical protein&lt;br&gt;Location: 317026 - 316734" locus_tag="CCM_06497" class="clusterblast-orf" id="dummy-7_h7_1_12"  />
</g>
<g id="a7_0013"  >
<polygon points="364,90 372,90 377,85 372,80 364,80 364,90 " style="fill:#15d863; stroke-width:1; stroke:black; " description="&lt;b&gt;CCM_06496&lt;/b&gt;&lt;br&gt;hypothetical protein&lt;br&gt;Location: 312915 - 311415&lt;br&gt;&lt;br&gt;&lt;b&gt;BlastP hit with input.path1.gene952&lt;/b&gt;&lt;br&gt;Percentage identity: 64&lt;br&gt;Percentage coverage: 91&lt;br&gt;BLAST bit score: 134&lt;br&gt;E-value: 1.22e-37" locus_tag="CCM_06496" class="clusterblast-orf" id="dummy-7_h7_1_13"  />
</g>
<g id="a7_0014"  >
<polygon points="411,85 416,80 424,80 424,90 416,90 411,85 " style="fill:#3c15d8; stroke-width:1; stroke:black; " description="&lt;b&gt;CCM_06495&lt;/b&gt;&lt;br&gt;DHHC zinc finger membrane protein&lt;br&gt;Location: 307711 - 306279&lt;br&gt;&lt;br&gt;&lt;b&gt;BlastP hit with input.path1.gene954&lt;/b&gt;&lt;br&gt;Percentage identity: 47&lt;br&gt;Percentage coverage: 131&lt;br&gt;BLAST bit score: 320&lt;br&gt;E-value: 1.19e-105" locus_tag="CCM_06495" class="clusterblast-orf" id="dummy-7_h7_1_14"  />
</g>
<g id="a7_0015"  >
<polygon points="436,90 448,90 453,85 448,80 436,80 436,90 " style="fill:#15d8d8; stroke-width:1; stroke:black; " description="&lt;b&gt;CCM_06494&lt;/b&gt;&lt;br&gt;hypothetical protein&lt;br&gt;Location: 304929 - 303129&lt;br&gt;&lt;br&gt;&lt;b&gt;BlastP hit with input.path1.gene959&lt;/b&gt;&lt;br&gt;Percentage identity: 47&lt;br&gt;Percentage coverage: 115&lt;br&gt;BLAST bit score: 208&lt;br&gt;E-value: 2.05e-62" locus_tag="CCM_06494" class="clusterblast-orf" id="dummy-7_h7_1_15"  />
</g>
<g id="a7_0016"  >
<polygon points="473,85 478,80 506,80 506,90 478,90 473,85 " style="fill:#b1d815; stroke-width:1; stroke:black; " description="&lt;b&gt;CCM_06493&lt;/b&gt;&lt;br&gt;histone-lysine N-methyltransferase (Ash1), putative&lt;br&gt;Location: 300841 - 297203&lt;br&gt;&lt;br&gt;&lt;b&gt;BlastP hit with input.path1.gene958&lt;/b&gt;&lt;br&gt;Percentage identity: 78&lt;br&gt;Percentage coverage: 103&lt;br&gt;BLAST bit score: 1135&lt;br&gt;E-value: 0.0" locus_tag="CCM_06493" class="clusterblast-orf" id="dummy-7_h7_1_16"  />
</g>
<g id="a7_0017"  >
<polygon points="512,90 521,90 526,85 521,80 512,80 512,90 " style="fill:white; stroke-width:1; stroke:black; " description="&lt;b&gt;CCM_06492&lt;/b&gt;&lt;br&gt;hypothetical protein&lt;br&gt;Location: 296636 - 295023" locus_tag="CCM_06492" class="clusterblast-orf" id="dummy-7_h7_1_17"  />
</g>
<g id="a7_0018"  >
<polygon points="535,85 540,80 546,80 546,90 540,90 535,85 " style="fill:#d8158a; stroke-width:1; stroke:black; " description="&lt;b&gt;CCM_06491&lt;/b&gt;&lt;br&gt;CRAL/TRIO domain protein&lt;br&gt;Location: 294057 - 292868&lt;br&gt;&lt;br&gt;&lt;b&gt;BlastP hit with input.path1.gene957&lt;/b&gt;&lt;br&gt;Percentage identity: 87&lt;br&gt;Percentage coverage: 86&lt;br&gt;BLAST bit score: 543&lt;br&gt;E-value: 2.29e-193" locus_tag="CCM_06491" class="clusterblast-orf" id="dummy-7_h7_1_18"  />
</g>
<g id="a7_0019"  >
<polygon points="556,85 559,80 559,90 556,85 " style="fill:white; stroke-width:1; stroke:black; " description="&lt;b&gt;CCM_06490&lt;/b&gt;&lt;br&gt;Barwin-related endoglucanase&lt;br&gt;Location: 291705 - 291376" locus_tag="CCM_06490" class="clusterblast-orf" id="dummy-7_h7_1_19"  />
</g>
<g id="a7_0020"  >
<polygon points="573,85 578,80 593,80 593,90 578,90 573,85 " style="fill:white; stroke-width:1; stroke:black; " description="&lt;b&gt;CCM_06489&lt;/b&gt;&lt;br&gt;RNA recognition, RNP-1&lt;br&gt;Location: 289845 - 287666" locus_tag="CCM_06489" class="clusterblast-orf" id="dummy-7_h7_1_20"  />
</g>
<g id="a7_0021"  >
<polygon points="600,85 605,80 610,80 610,90 605,90 600,85 " style="fill:white; stroke-width:1; stroke:black; " description="&lt;b&gt;CCM_06488&lt;/b&gt;&lt;br&gt;ARP2/3 complex 20 kDa subunit&lt;br&gt;Location: 286920 - 285845" locus_tag="CCM_06488" class="clusterblast-orf" id="dummy-7_h7_1_21"  />
</g>
<g id="a7_0022"  >
<polygon points="612,90 623,90 628,85 623,80 612,80 612,90 " style="fill:white; stroke-width:1; stroke:black; " description="&lt;b&gt;CCM_06487&lt;/b&gt;&lt;br&gt;ubiquitin C-terminal hydrolase&lt;br&gt;Location: 285574 - 283821" locus_tag="CCM_06487" class="clusterblast-orf" id="dummy-7_h7_1_22"  />
</g>
<g id="a7_0023"  >
<polygon points="630,85 633,80 633,90 630,85 " style="fill:white; stroke-width:1; stroke:black; " description="&lt;b&gt;CCM_06486&lt;/b&gt;&lt;br&gt;hypothetical protein&lt;br&gt;Location: 283610 - 283257" locus_tag="CCM_06486" class="clusterblast-orf" id="dummy-7_h7_1_23"  />
</g>
<g id="a7_0024"  >
<polygon points="647,90 647,90 652,85 647,80 647,80 647,90 " style="fill:white; stroke-width:1; stroke:black; " description="&lt;b&gt;CCM_06485&lt;/b&gt;&lt;br&gt;NlpC/P60-like cell-wall peptidase, putative&lt;br&gt;Location: 281724 - 281202" locus_tag="CCM_06485" class="clusterblast-orf" id="dummy-7_h7_1_24"  />
</g>
<g id="a7_0025"  >
<polygon points="653,85 658,80 669,80 669,90 658,90 653,85 " style="fill:white; stroke-width:1; stroke:black; " description="&lt;b&gt;CCM_06484&lt;/b&gt;&lt;br&gt;dimethylaniline monooxygenase 2&lt;br&gt;Location: 281087 - 279255" locus_tag="CCM_06484" class="clusterblast-orf" id="dummy-7_h7_1_25"  />
</g>
<g id="a7_0026"  >
<polygon points="676,90 682,90 687,85 682,80 676,80 676,90 " style="fill:white; stroke-width:1; stroke:black; " description="&lt;b&gt;CCM_06483&lt;/b&gt;&lt;br&gt;FAD dependent oxidoreductase&lt;br&gt;Location: 278569 - 277301" locus_tag="CCM_06483" class="clusterblast-orf" id="dummy-7_h7_1_26"  />
</g>
<g id="a7_0027"  >
<polygon points="689,85 694,80 707,80 707,90 694,90 689,85 " style="fill:white; stroke-width:1; stroke:black; " description="&lt;b&gt;CCM_06482&lt;/b&gt;&lt;br&gt;proteinase, putative&lt;br&gt;Location: 277052 - 275155" locus_tag="CCM_06482" class="clusterblast-orf" id="dummy-7_h7_1_27"  />
</g>
<g id="a7_0028"  >
<polygon points="712,90 712,90 717,85 712,80 712,80 712,90 " style="fill:white; stroke-width:1; stroke:black; " description="&lt;b&gt;CCM_06481&lt;/b&gt;&lt;br&gt;hypothetical protein&lt;br&gt;Location: 274563 - 273973" locus_tag="CCM_06481" class="clusterblast-orf" id="dummy-7_h7_1_28"  />
</g>
<g id="a7_0029"  >
<polygon points="724,90 739,90 744,85 739,80 724,80 724,90 " style="fill:white; stroke-width:1; stroke:black; " description="&lt;b&gt;CCM_06480&lt;/b&gt;&lt;br&gt;phosphoglycerate mutase family protein&lt;br&gt;Location: 273302 - 271058" locus_tag="CCM_06480" class="clusterblast-orf" id="dummy-7_h7_1_29"  />
</g>
<g id="a7_0030"  >
<polygon points="745,85 750,80 754,80 754,90 750,90 745,85 " style="fill:white; stroke-width:1; stroke:black; " description="&lt;b&gt;CCM_06479&lt;/b&gt;&lt;br&gt;2-heptaprenyl-1,4-naphthoquinone methyltransferase, putative&lt;br&gt;Location: 270919 - 269923" locus_tag="CCM_06479" class="clusterblast-orf" id="dummy-7_h7_1_30"  />
</g>
<g id="a7_0031"  >
<polygon points="774,85 779,80 780,80 780,90 779,90 774,85 " style="fill:white; stroke-width:1; stroke:black; " description="&lt;b&gt;CCM_06478&lt;/b&gt;&lt;br&gt;hypothetical protein&lt;br&gt;Location: 267694 - 267138" locus_tag="CCM_06478" class="clusterblast-orf" id="dummy-7_h7_1_31"  />
</g>
</svg>
