<svg xmlns="http://www.w3.org/2000/svg" xmlns:xlink="http://www.w3.org/1999/xlink" version="1.1" x="0" y="0" height="230" width="800" viewBox="0 0 800 230" preserveAspectRatio="none"  >
<g label="Query sequence" class="clusterblast-cluster"  >
<text x="5" y="20" class="clusterblast-acc"  >
Query sequence</text>
<line x1="10" y1="35" x2="778.0" y2="35" style="stroke-width:1; stroke:grey; "  />
<polygon points="323,40 326,35 323,30 323,40 " style="fill:white; stroke-width:1; stroke:black; " description="&lt;b&gt;input.path1.gene654&lt;/b&gt;&lt;br&gt;input.path1.gene654&lt;br&gt;Location: 2475326 - 2475995" locus_tag="input.path1.gene654" class="clusterblast-orf" id="dummy-5_q0_0_all"  />
<polygon points="327,40 330,35 327,30 327,40 " style="fill:white; stroke-width:1; stroke:black; " description="&lt;b&gt;input.path1.gene655&lt;/b&gt;&lt;br&gt;input.path1.gene655&lt;br&gt;Location: 2476396 - 2477296" locus_tag="input.path1.gene655" class="clusterblast-orf" id="dummy-5_q1_0_all"  />
<polygon points="330,35 333,30 333,40 330,35 " style="fill:white; stroke-width:1; stroke:black; " description="&lt;b&gt;input.path1.gene656&lt;/b&gt;&lt;br&gt;input.path1.gene656&lt;br&gt;Location: 2477305 - 2478382" locus_tag="input.path1.gene656" class="clusterblast-orf" id="dummy-5_q2_0_all"  />
<polygon points="336,40 339,35 336,30 336,40 " style="fill:white; stroke-width:1; stroke:black; " description="&lt;b&gt;input.path1.gene657&lt;/b&gt;&lt;br&gt;input.path1.gene657&lt;br&gt;Location: 2479278 - 2480109" locus_tag="input.path1.gene657" class="clusterblast-orf" id="dummy-5_q3_0_all"  />
<polygon points="340,35 343,30 343,40 340,35 " style="fill:white; stroke-width:1; stroke:black; " description="&lt;b&gt;input.path1.gene658&lt;/b&gt;&lt;br&gt;input.path1.gene658&lt;br&gt;Location: 2480463 - 2481609" locus_tag="input.path1.gene658" class="clusterblast-orf" id="dummy-5_q4_0_all"  />
<polygon points="345,35 347,30 347,40 345,35 " style="fill:white; stroke-width:1; stroke:black; " description="&lt;b&gt;input.path1.gene659&lt;/b&gt;&lt;br&gt;input.path1.gene659&lt;br&gt;Location: 2482008 - 2482785" locus_tag="input.path1.gene659" class="clusterblast-orf" id="dummy-5_q5_0_all"  />
<polygon points="351,40 353,40 358,35 353,30 351,30 351,40 " style="fill:white; stroke-width:1; stroke:black; " description="&lt;b&gt;input.path1.gene660&lt;/b&gt;&lt;br&gt;input.path1.gene660&lt;br&gt;Location: 2483955 - 2486083" locus_tag="input.path1.gene660" class="clusterblast-orf" id="dummy-5_q6_0_all"  />
<polygon points="359,35 364,30 364,30 364,40 364,40 359,35 " style="fill:white; stroke-width:1; stroke:black; " description="&lt;b&gt;input.path1.gene661&lt;/b&gt;&lt;br&gt;input.path1.gene661&lt;br&gt;Location: 2486401 - 2488031" locus_tag="input.path1.gene661" class="clusterblast-orf" id="dummy-5_q7_0_all"  />
<polygon points="368,35 369,30 369,40 368,35 " style="fill:white; stroke-width:1; stroke:black; " description="&lt;b&gt;input.path1.gene662&lt;/b&gt;&lt;br&gt;input.path1.gene662&lt;br&gt;Location: 2489264 - 2489719" locus_tag="input.path1.gene662" class="clusterblast-orf" id="dummy-5_q8_0_all"  />
<polygon points="372,35 374,30 374,40 372,35 " style="fill:white; stroke-width:1; stroke:black; " description="&lt;b&gt;input.path1.gene663&lt;/b&gt;&lt;br&gt;input.path1.gene663&lt;br&gt;Location: 2490616 - 2491162" locus_tag="input.path1.gene663" class="clusterblast-orf" id="dummy-5_q9_0_all"  />
<polygon points="376,40 378,35 376,30 376,40 " style="fill:white; stroke-width:1; stroke:black; " description="&lt;b&gt;input.path1.gene664&lt;/b&gt;&lt;br&gt;input.path1.gene664&lt;br&gt;Location: 2491812 - 2492386" locus_tag="input.path1.gene664" class="clusterblast-orf" id="dummy-5_q10_0_all"  />
<polygon points="381,40 382,35 381,30 381,40 " style="fill:#d81515; stroke-width:1; stroke:black; " description="&lt;b&gt;input.path1.gene665&lt;/b&gt;&lt;br&gt;input.path1.gene665&lt;br&gt;Location: 2493348 - 2493778" locus_tag="input.path1.gene665" class="clusterblast-orf" id="dummy-5_q11_0_all"  />
<polygon points="383,40 390,40 395,35 390,30 383,30 383,40 " style="fill:#d81515; stroke-width:1; stroke:black; " description="&lt;b&gt;input.path1.gene666&lt;/b&gt;&lt;br&gt;input.path1.gene666&lt;br&gt;Location: 2494020 - 2497924" locus_tag="input.path1.gene666" class="clusterblast-orf" id="dummy-5_q12_0_all"  />
<polygon points="396,40 404,40 409,35 404,30 396,30 396,40 " style="fill:#d81515; stroke-width:1; stroke:black; " description="&lt;b&gt;input.path1.gene667&lt;/b&gt;&lt;br&gt;input.path1.gene667&lt;br&gt;Location: 2497988 - 2502084" locus_tag="input.path1.gene667" class="clusterblast-orf" id="dummy-5_q13_0_all"  />
<polygon points="409,35 414,30 417,30 417,40 414,40 409,35 " style="fill:white; stroke-width:1; stroke:black; " description="&lt;b&gt;input.path1.gene668&lt;/b&gt;&lt;br&gt;input.path1.gene668&lt;br&gt;Location: 2502201 - 2504616" locus_tag="input.path1.gene668" class="clusterblast-orf" id="dummy-5_q14_0_all"  />
<polygon points="432,35 437,30 437,30 437,40 437,40 432,35 " style="fill:white; stroke-width:1; stroke:black; " description="&lt;b&gt;input.path1.gene669&lt;/b&gt;&lt;br&gt;input.path1.gene669&lt;br&gt;Location: 2509404 - 2511076" locus_tag="input.path1.gene669" class="clusterblast-orf" id="dummy-5_q15_0_all"  />
<polygon points="439,35 444,30 445,30 445,40 444,40 439,35 " style="fill:white; stroke-width:1; stroke:black; " description="&lt;b&gt;input.path1.gene670&lt;/b&gt;&lt;br&gt;input.path1.gene670&lt;br&gt;Location: 2511744 - 2513679" locus_tag="input.path1.gene670" class="clusterblast-orf" id="dummy-5_q16_0_all"  />
<polygon points="451,35 456,30 456,30 456,40 456,40 451,35 " style="fill:white; stroke-width:1; stroke:black; " description="&lt;b&gt;input.path1.gene671&lt;/b&gt;&lt;br&gt;input.path1.gene671&lt;br&gt;Location: 2515336 - 2516851" locus_tag="input.path1.gene671" class="clusterblast-orf" id="dummy-5_q17_0_all"  />
</g>
<g label="NZ_SNXZ01000007" description="NZ_SNXZ01000007 (57627-303701): Labedaea rhizosphaerae strain DSM 45361 Ga031... (11% of genes show similarity), LAP,NRPS,T1PKS,oligosaccharide" class="clusterblast-cluster"  >
<text x="5" y="70" class="clusterblast-acc"  >
<a xlink:href="https://antismash-db.secondarymetabolites.org/area?record=NZ_SNXZ01000007&amp;start=57627&amp;end=303701" target="_blank">NZ_SNXZ01000007 (57627-303701)</a>: Labedaea rhizosphaerae strain DSM 45361 Ga031... (11% of genes show similarity), LAP,NRPS,T1PKS,oligosaccharide</text>
<line x1="10" y1="85" x2="778.0" y2="85" style="stroke-width:1; stroke:grey; "  />
</g>
<g id="a5_000"  >
<polygon points="0,90 8,90 13,85 8,80 0,80 0,90 " style="fill:white; stroke-width:1; stroke:black; " description="&lt;b&gt;EV186_RS31675&lt;/b&gt;&lt;br&gt;S8 family serine peptidase&lt;br&gt;Location: 58088 - 62218" locus_tag="EV186_RS31675" class="clusterblast-orf" id="dummy-5_h5_2_0"  />
</g>
<g id="a5_001"  >
<polygon points="13,90 13,90 18,85 13,80 13,80 13,90 " style="fill:white; stroke-width:1; stroke:black; " description="&lt;b&gt;EV186_RS31680&lt;/b&gt;&lt;br&gt;serine/threonine protein kinase&lt;br&gt;Location: 62357 - 63871" locus_tag="EV186_RS31680" class="clusterblast-orf" id="dummy-5_h5_2_1"  />
</g>
<g id="a5_002"  >
<polygon points="18,85 22,80 22,90 18,85 " style="fill:white; stroke-width:1; stroke:black; " description="&lt;b&gt;EV186_RS31685&lt;/b&gt;&lt;br&gt;hypothetical protein&lt;br&gt;Location: 63887 - 65314" locus_tag="EV186_RS31685" class="clusterblast-orf" id="dummy-5_h5_2_2"  />
</g>
<g id="a5_003"  >
<polygon points="23,90 26,85 23,80 23,90 " style="fill:white; stroke-width:1; stroke:black; " description="&lt;b&gt;EV186_RS31690&lt;/b&gt;&lt;br&gt;nitroreductase&lt;br&gt;Location: 65499 - 66488" locus_tag="EV186_RS31690" class="clusterblast-orf" id="dummy-5_h5_2_3"  />
</g>
<g id="a5_004"  >
<polygon points="27,90 28,85 27,80 27,90 " style="fill:white; stroke-width:1; stroke:black; " description="&lt;b&gt;EV186_RS31695&lt;/b&gt;&lt;br&gt;hypothetical protein&lt;br&gt;Location: 66609 - 67187" locus_tag="EV186_RS31695" class="clusterblast-orf" id="dummy-5_h5_2_4"  />
</g>
<g id="a5_005"  >
<polygon points="29,90 30,85 29,80 29,90 " style="fill:white; stroke-width:1; stroke:black; " description="&lt;b&gt;EV186_RS31700&lt;/b&gt;&lt;br&gt;CBS domain-containing protein&lt;br&gt;Location: 67219 - 67830" locus_tag="EV186_RS31700" class="clusterblast-orf" id="dummy-5_h5_2_5"  />
</g>
<g id="a5_006"  >
<polygon points="31,90 35,85 31,80 31,90 " style="fill:white; stroke-width:1; stroke:black; " description="&lt;b&gt;EV186_RS31705&lt;/b&gt;&lt;br&gt;MFS transporter&lt;br&gt;Location: 68112 - 69395" locus_tag="EV186_RS31705" class="clusterblast-orf" id="dummy-5_h5_2_6"  />
</g>
<g id="a5_007"  >
<polygon points="35,90 35,90 40,85 35,80 35,80 35,90 " style="fill:white; stroke-width:1; stroke:black; " description="&lt;b&gt;EV186_RS31710&lt;/b&gt;&lt;br&gt;amino acid adenylation domain-containing protein&lt;br&gt;Location: 69392 - 70945" locus_tag="EV186_RS31710" class="clusterblast-orf" id="dummy-5_h5_2_7"  />
</g>
<g id="a5_008"  >
<polygon points="41,85 46,80 49,80 49,90 46,90 41,85 " style="fill:white; stroke-width:1; stroke:black; " description="&lt;b&gt;EV186_RS31715&lt;/b&gt;&lt;br&gt;condensation domain-containing protein&lt;br&gt;Location: 71108 - 73552" locus_tag="EV186_RS31715" class="clusterblast-orf" id="dummy-5_h5_2_8"  />
</g>
<g id="a5_009"  >
<polygon points="49,85 54,80 54,80 54,90 54,90 49,85 " style="fill:white; stroke-width:1; stroke:black; " description="&lt;b&gt;EV186_RS31720&lt;/b&gt;&lt;br&gt;AMP-binding protein&lt;br&gt;Location: 73549 - 75132" locus_tag="EV186_RS31720" class="clusterblast-orf" id="dummy-5_h5_2_9"  />
</g>
<g id="a5_0010"  >
<polygon points="54,85 56,80 56,90 54,85 " style="fill:white; stroke-width:1; stroke:black; " description="&lt;b&gt;EV186_RS31725&lt;/b&gt;&lt;br&gt;4'-phosphopantetheinyl transferase superfamily protein&lt;br&gt;Location: 75129 - 75695" locus_tag="EV186_RS31725" class="clusterblast-orf" id="dummy-5_h5_2_10"  />
</g>
<g id="a5_0011"  >
<polygon points="56,85 59,80 59,90 56,85 " style="fill:white; stroke-width:1; stroke:black; " description="&lt;b&gt;EV186_RS31730&lt;/b&gt;&lt;br&gt;acyl carrier protein&lt;br&gt;Location: 75692 - 76864" locus_tag="EV186_RS31730" class="clusterblast-orf" id="dummy-5_h5_2_11"  />
</g>
<g id="a5_0012"  >
<polygon points="59,85 62,80 62,90 59,85 " style="fill:white; stroke-width:1; stroke:black; " description="&lt;b&gt;EV186_RS31735&lt;/b&gt;&lt;br&gt;alpha/beta fold hydrolase&lt;br&gt;Location: 76858 - 77631" locus_tag="EV186_RS31735" class="clusterblast-orf" id="dummy-5_h5_2_12"  />
</g>
<g id="a5_0013"  >
<polygon points="62,85 67,80 72,80 72,90 67,90 62,85 " style="fill:white; stroke-width:1; stroke:black; " description="&lt;b&gt;EV186_RS31740&lt;/b&gt;&lt;br&gt;non-ribosomal peptide synthetase&lt;br&gt;Location: 77628 - 80822" locus_tag="EV186_RS31740" class="clusterblast-orf" id="dummy-5_h5_2_13"  />
</g>
<g id="a5_0014"  >
<polygon points="72,85 73,80 73,90 72,85 " style="fill:white; stroke-width:1; stroke:black; " description="&lt;b&gt;EV186_RS31745&lt;/b&gt;&lt;br&gt;phosphopantetheine-binding protein&lt;br&gt;Location: 80819 - 81061" locus_tag="EV186_RS31745" class="clusterblast-orf" id="dummy-5_h5_2_14"  />
</g>
<g id="a5_0015"  >
<polygon points="73,90 77,85 73,80 73,90 " style="fill:white; stroke-width:1; stroke:black; " description="&lt;b&gt;EV186_RS31750&lt;/b&gt;&lt;br&gt;glutamate 5-kinase&lt;br&gt;Location: 81302 - 82426" locus_tag="EV186_RS31750" class="clusterblast-orf" id="dummy-5_h5_2_15"  />
</g>
<g id="a5_0016"  >
<polygon points="77,90 81,85 77,80 77,90 " style="fill:white; stroke-width:1; stroke:black; " description="&lt;b&gt;EV186_RS31755&lt;/b&gt;&lt;br&gt;glutamate-5-semialdehyde dehydrogenase&lt;br&gt;Location: 82423 - 83688" locus_tag="EV186_RS31755" class="clusterblast-orf" id="dummy-5_h5_2_16"  />
</g>
<g id="a5_0017"  >
<polygon points="81,90 85,85 81,80 81,90 " style="fill:white; stroke-width:1; stroke:black; " description="&lt;b&gt;EV186_RS31760&lt;/b&gt;&lt;br&gt;pyridoxal phosphate-dependent aminotransferase&lt;br&gt;Location: 83717 - 84931" locus_tag="EV186_RS31760" class="clusterblast-orf" id="dummy-5_h5_2_17"  />
</g>
<g id="a5_0018"  >
<polygon points="85,90 89,85 85,80 85,90 " style="fill:white; stroke-width:1; stroke:black; " description="&lt;b&gt;EV186_RS31765&lt;/b&gt;&lt;br&gt;APC family permease&lt;br&gt;Location: 85006 - 86307" locus_tag="EV186_RS31765" class="clusterblast-orf" id="dummy-5_h5_2_18"  />
</g>
<g id="a5_0019"  >
<polygon points="89,85 94,80 96,80 96,90 94,90 89,85 " style="fill:white; stroke-width:1; stroke:black; " description="&lt;b&gt;EV186_RS31770&lt;/b&gt;&lt;br&gt;AfsR/SARP family transcriptional regulator&lt;br&gt;Location: 86267 - 88417" locus_tag="EV186_RS31770" class="clusterblast-orf" id="dummy-5_h5_2_19"  />
</g>
<g id="a5_0020"  >
<polygon points="96,85 99,80 99,90 96,85 " style="fill:white; stroke-width:1; stroke:black; " description="&lt;b&gt;EV186_RS31775&lt;/b&gt;&lt;br&gt;50S ribosomal protein L11 methyltransferase&lt;br&gt;Location: 88414 - 89517" locus_tag="EV186_RS31775" class="clusterblast-orf" id="dummy-5_h5_2_20"  />
</g>
<g id="a5_0021"  >
<polygon points="100,85 101,80 101,90 100,85 " style="fill:white; stroke-width:1; stroke:black; " description="&lt;b&gt;EV186_RS31780&lt;/b&gt;&lt;br&gt;Rieske 2Fe-2S domain-containing protein&lt;br&gt;Location: 89579 - 89911" locus_tag="EV186_RS31780" class="clusterblast-orf" id="dummy-5_h5_2_21"  />
</g>
<g id="a5_0022"  >
<polygon points="101,85 105,80 105,90 101,85 " style="fill:white; stroke-width:1; stroke:black; " description="&lt;b&gt;EV186_RS31785&lt;/b&gt;&lt;br&gt;iron-containing redox enzyme family protein&lt;br&gt;Location: 89908 - 91266" locus_tag="EV186_RS31785" class="clusterblast-orf" id="dummy-5_h5_2_22"  />
</g>
<g id="a5_0023"  >
<polygon points="106,90 107,85 106,80 106,90 " style="fill:white; stroke-width:1; stroke:black; " description="&lt;b&gt;EV186_RS31790&lt;/b&gt;&lt;br&gt;hypothetical protein&lt;br&gt;Location: 91458 - 91811" locus_tag="EV186_RS31790" class="clusterblast-orf" id="dummy-5_h5_2_23"  />
</g>
<g id="a5_0024"  >
<polygon points="110,90 115,90 120,85 115,80 110,80 110,90 " style="fill:white; stroke-width:1; stroke:black; " description="&lt;b&gt;EV186_RS31795&lt;/b&gt;&lt;br&gt;AfsR/SARP family transcriptional regulator&lt;br&gt;Location: 92750 - 95860" locus_tag="EV186_RS31795" class="clusterblast-orf" id="dummy-5_h5_2_24"  />
</g>
<g id="a5_0025"  >
<polygon points="120,85 121,80 121,90 120,85 " style="fill:white; stroke-width:1; stroke:black; " description="&lt;b&gt;EV186_RS31800&lt;/b&gt;&lt;br&gt;hypothetical protein&lt;br&gt;Location: 95901 - 96122" locus_tag="EV186_RS31800" class="clusterblast-orf" id="dummy-5_h5_2_25"  />
</g>
<g id="a5_0026"  >
<polygon points="121,90 125,90 130,85 125,80 121,80 121,90 " style="fill:white; stroke-width:1; stroke:black; " description="&lt;b&gt;EV186_RS31805&lt;/b&gt;&lt;br&gt;AAA family ATPase&lt;br&gt;Location: 96252 - 99074" locus_tag="EV186_RS31805" class="clusterblast-orf" id="dummy-5_h5_2_26"  />
</g>
<g id="a5_0027"  >
<polygon points="130,85 134,80 134,90 130,85 " style="fill:white; stroke-width:1; stroke:black; " description="&lt;b&gt;EV186_RS31810&lt;/b&gt;&lt;br&gt;DUF1205 domain-containing protein&lt;br&gt;Location: 99096 - 100319" locus_tag="EV186_RS31810" class="clusterblast-orf" id="dummy-5_h5_2_27"  />
</g>
<g id="a5_0028"  >
<polygon points="134,85 136,80 136,90 134,85 " style="fill:white; stroke-width:1; stroke:black; " description="&lt;b&gt;EV186_RS31815&lt;/b&gt;&lt;br&gt;alpha/beta fold hydrolase&lt;br&gt;Location: 100326 - 101075" locus_tag="EV186_RS31815" class="clusterblast-orf" id="dummy-5_h5_2_28"  />
</g>
<g id="a5_0029"  >
<polygon points="137,90 141,85 137,80 137,90 " style="fill:white; stroke-width:1; stroke:black; " description="&lt;b&gt;EV186_RS31820&lt;/b&gt;&lt;br&gt;cytochrome P450&lt;br&gt;Location: 101282 - 102532" locus_tag="EV186_RS31820" class="clusterblast-orf" id="dummy-5_h5_2_29"  />
</g>
<g id="a5_0030"  >
<polygon points="141,90 144,90 149,85 144,80 141,80 141,90 " style="fill:#d81515; stroke-width:1; stroke:black; " description="&lt;b&gt;EV186_RS40245&lt;/b&gt;&lt;br&gt;type I polyketide synthase&lt;br&gt;Location: 102541 - 105042&lt;br&gt;&lt;br&gt;&lt;b&gt;BlastP hit with input.path1.gene666&lt;/b&gt;&lt;br&gt;Percentage identity: 31&lt;br&gt;Percentage coverage: 60&lt;br&gt;BLAST bit score: 172&lt;br&gt;E-value: 5.15e-42" locus_tag="EV186_RS40245" class="clusterblast-orf" id="dummy-5_h5_2_30"  />
</g>
<g id="a5_0031"  >
<polygon points="149,90 181,90 186,85 181,80 149,80 149,90 " style="fill:white; stroke-width:1; stroke:black; " description="&lt;b&gt;EV186_RS31825&lt;/b&gt;&lt;br&gt;SDR family NAD(P)-dependent oxidoreductase&lt;br&gt;Location: 105109 - 116808" locus_tag="EV186_RS31825" class="clusterblast-orf" id="dummy-5_h5_2_31"  />
</g>
<g id="a5_0032"  >
<polygon points="186,90 195,90 200,85 195,80 186,80 186,90 " style="fill:#d81515; stroke-width:1; stroke:black; " description="&lt;b&gt;EV186_RS31830&lt;/b&gt;&lt;br&gt;type I polyketide synthase&lt;br&gt;Location: 116830 - 121236&lt;br&gt;&lt;br&gt;&lt;b&gt;BlastP hit with input.path1.gene665&lt;/b&gt;&lt;br&gt;Percentage identity: 33&lt;br&gt;Percentage coverage: 89&lt;br&gt;BLAST bit score: 70&lt;br&gt;E-value: 5.42e-13" locus_tag="EV186_RS31830" class="clusterblast-orf" id="dummy-5_h5_2_32"  />
</g>
<g id="a5_0033"  >
<polygon points="200,90 227,90 232,85 227,80 200,80 200,90 " style="fill:#d81515; stroke-width:1; stroke:black; " description="&lt;b&gt;EV186_RS31835&lt;/b&gt;&lt;br&gt;SDR family NAD(P)-dependent oxidoreductase&lt;br&gt;Location: 121233 - 131201&lt;br&gt;&lt;br&gt;&lt;b&gt;BlastP hit with input.path1.gene665&lt;/b&gt;&lt;br&gt;Percentage identity: 39&lt;br&gt;Percentage coverage: 84&lt;br&gt;BLAST bit score: 66&lt;br&gt;E-value: 1.24e-11" locus_tag="EV186_RS31835" class="clusterblast-orf" id="dummy-5_h5_2_33"  />
</g>
<g id="a5_0034"  >
<polygon points="232,90 235,85 232,80 232,90 " style="fill:white; stroke-width:1; stroke:black; " description="&lt;b&gt;EV186_RS31840&lt;/b&gt;&lt;br&gt;ABC transporter ATP-binding protein&lt;br&gt;Location: 131244 - 132017" locus_tag="EV186_RS31840" class="clusterblast-orf" id="dummy-5_h5_2_34"  />
</g>
<g id="a5_0035"  >
<polygon points="235,90 236,90 241,85 236,80 235,80 235,90 " style="fill:white; stroke-width:1; stroke:black; " description="&lt;b&gt;EV186_RS31845&lt;/b&gt;&lt;br&gt;hypothetical protein&lt;br&gt;Location: 132002 - 133900" locus_tag="EV186_RS31845" class="clusterblast-orf" id="dummy-5_h5_2_35"  />
</g>
<g id="a5_0036"  >
<polygon points="241,90 243,90 248,85 243,80 241,80 241,90 " style="fill:white; stroke-width:1; stroke:black; " description="&lt;b&gt;EV186_RS40250&lt;/b&gt;&lt;br&gt;type I polyketide synthase&lt;br&gt;Location: 134028 - 136301" locus_tag="EV186_RS40250" class="clusterblast-orf" id="dummy-5_h5_2_36"  />
</g>
<g id="a5_0037"  >
<polygon points="249,90 252,90 257,85 252,80 249,80 249,90 " style="fill:white; stroke-width:1; stroke:black; " description="&lt;b&gt;EV186_RS40255&lt;/b&gt;&lt;br&gt;acyltransferase domain-containing protein&lt;br&gt;Location: 136632 - 139037" locus_tag="EV186_RS40255" class="clusterblast-orf" id="dummy-5_h5_2_37"  />
</g>
<g id="a5_0038"  >
<polygon points="257,90 336,90 341,85 336,80 257,80 257,90 " style="fill:#d81515; stroke-width:1; stroke:black; " description="&lt;b&gt;EV186_RS40260&lt;/b&gt;&lt;br&gt;SDR family NAD(P)-dependent oxidoreductase&lt;br&gt;Location: 139159 - 165435&lt;br&gt;&lt;br&gt;&lt;b&gt;BlastP hit with input.path1.gene666&lt;/b&gt;&lt;br&gt;Percentage identity: 33&lt;br&gt;Percentage coverage: 59&lt;br&gt;BLAST bit score: 175&lt;br&gt;E-value: 2.86e-42" locus_tag="EV186_RS40260" class="clusterblast-orf" id="dummy-5_h5_2_38"  />
</g>
<g id="a5_0039"  >
<polygon points="341,90 414,90 419,85 414,80 341,80 341,90 " style="fill:#d81515; stroke-width:1; stroke:black; " description="&lt;b&gt;EV186_RS39610&lt;/b&gt;&lt;br&gt;SDR family NAD(P)-dependent oxidoreductase&lt;br&gt;Location: 165449 - 189970&lt;br&gt;&lt;br&gt;&lt;b&gt;BlastP hit with input.path1.gene665&lt;/b&gt;&lt;br&gt;Percentage identity: 32&lt;br&gt;Percentage coverage: 86&lt;br&gt;BLAST bit score: 60&lt;br&gt;E-value: 2.45e-09" locus_tag="EV186_RS39610" class="clusterblast-orf" id="dummy-5_h5_2_39"  />
</g>
<g id="a5_0040"  >
<polygon points="419,90 486,90 491,85 486,80 419,80 419,90 " style="fill:#d81515; stroke-width:1; stroke:black; " description="&lt;b&gt;EV186_RS40265&lt;/b&gt;&lt;br&gt;SDR family NAD(P)-dependent oxidoreductase&lt;br&gt;Location: 189984 - 212474&lt;br&gt;&lt;br&gt;&lt;b&gt;BlastP hit with input.path1.gene665&lt;/b&gt;&lt;br&gt;Percentage identity: 36&lt;br&gt;Percentage coverage: 82&lt;br&gt;BLAST bit score: 63&lt;br&gt;E-value: 1.5e-10&lt;br&gt;&lt;br&gt;&lt;b&gt;BlastP hit with input.path1.gene666&lt;/b&gt;&lt;br&gt;Percentage identity: 31&lt;br&gt;Percentage coverage: 61&lt;br&gt;BLAST bit score: 169&lt;br&gt;E-value: 1.88e-40" locus_tag="EV186_RS40265" class="clusterblast-orf" id="dummy-5_h5_2_40"  />
</g>
<g id="a5_0041"  >
<polygon points="491,90 534,90 539,85 534,80 491,80 491,90 " style="fill:white; stroke-width:1; stroke:black; " description="&lt;b&gt;EV186_RS40270&lt;/b&gt;&lt;br&gt;SDR family NAD(P)-dependent oxidoreductase&lt;br&gt;Location: 212666 - 227656" locus_tag="EV186_RS40270" class="clusterblast-orf" id="dummy-5_h5_2_41"  />
</g>
<g id="a5_0042"  >
<polygon points="539,90 564,90 569,85 564,80 539,80 539,90 " style="fill:#d81515; stroke-width:1; stroke:black; " description="&lt;b&gt;EV186_RS31935&lt;/b&gt;&lt;br&gt;SDR family NAD(P)-dependent oxidoreductase&lt;br&gt;Location: 227653 - 236934&lt;br&gt;&lt;br&gt;&lt;b&gt;BlastP hit with input.path1.gene665&lt;/b&gt;&lt;br&gt;Percentage identity: 36&lt;br&gt;Percentage coverage: 83&lt;br&gt;BLAST bit score: 64&lt;br&gt;E-value: 7.97e-11&lt;br&gt;&lt;br&gt;&lt;b&gt;BlastP hit with input.path1.gene666&lt;/b&gt;&lt;br&gt;Percentage identity: 31&lt;br&gt;Percentage coverage: 60&lt;br&gt;BLAST bit score: 163&lt;br&gt;E-value: 1.06e-38" locus_tag="EV186_RS31935" class="clusterblast-orf" id="dummy-5_h5_2_42"  />
</g>
<g id="a5_0043"  >
<polygon points="569,90 597,90 602,85 597,80 569,80 569,90 " style="fill:#d81515; stroke-width:1; stroke:black; " description="&lt;b&gt;EV186_RS31940&lt;/b&gt;&lt;br&gt;type I polyketide synthase&lt;br&gt;Location: 236963 - 247366&lt;br&gt;&lt;br&gt;&lt;b&gt;BlastP hit with input.path1.gene665&lt;/b&gt;&lt;br&gt;Percentage identity: 36&lt;br&gt;Percentage coverage: 80&lt;br&gt;BLAST bit score: 63&lt;br&gt;E-value: 2.03e-10&lt;br&gt;&lt;br&gt;&lt;b&gt;BlastP hit with input.path1.gene666&lt;/b&gt;&lt;br&gt;Percentage identity: 31&lt;br&gt;Percentage coverage: 60&lt;br&gt;BLAST bit score: 166&lt;br&gt;E-value: 1.55e-39&lt;br&gt;&lt;br&gt;&lt;b&gt;BlastP hit with input.path1.gene667&lt;/b&gt;&lt;br&gt;Percentage identity: 35&lt;br&gt;Percentage coverage: 19&lt;br&gt;BLAST bit score: 89&lt;br&gt;E-value: 1.99e-15" locus_tag="EV186_RS31940" class="clusterblast-orf" id="dummy-5_h5_2_43"  />
</g>
<g id="a5_0044"  >
<polygon points="602,90 603,85 602,80 602,90 " style="fill:white; stroke-width:1; stroke:black; " description="&lt;b&gt;EV186_RS31945&lt;/b&gt;&lt;br&gt;hypothetical protein&lt;br&gt;Location: 247356 - 247751" locus_tag="EV186_RS31945" class="clusterblast-orf" id="dummy-5_h5_2_44"  />
</g>
<g id="a5_0045"  >
<polygon points="603,90 606,90 611,85 606,80 603,80 603,90 " style="fill:white; stroke-width:1; stroke:black; " description="&lt;b&gt;EV186_RS40275&lt;/b&gt;&lt;br&gt;type I polyketide synthase&lt;br&gt;Location: 247756 - 250425" locus_tag="EV186_RS40275" class="clusterblast-orf" id="dummy-5_h5_2_45"  />
</g>
<g id="a5_0046"  >
<polygon points="612,90 641,90 646,85 641,80 612,80 612,90 " style="fill:white; stroke-width:1; stroke:black; " description="&lt;b&gt;EV186_RS31950&lt;/b&gt;&lt;br&gt;SDR family NAD(P)-dependent oxidoreductase&lt;br&gt;Location: 250477 - 261435" locus_tag="EV186_RS31950" class="clusterblast-orf" id="dummy-5_h5_2_46"  />
</g>
<g id="a5_0047"  >
<polygon points="646,90 651,90 656,85 651,80 646,80 646,90 " style="fill:#d81515; stroke-width:1; stroke:black; " description="&lt;b&gt;EV186_RS31955&lt;/b&gt;&lt;br&gt;acyltransferase domain-containing protein&lt;br&gt;Location: 261435 - 264326&lt;br&gt;&lt;br&gt;&lt;b&gt;BlastP hit with input.path1.gene665&lt;/b&gt;&lt;br&gt;Percentage identity: 35&lt;br&gt;Percentage coverage: 79&lt;br&gt;BLAST bit score: 64&lt;br&gt;E-value: 1.04e-10&lt;br&gt;&lt;br&gt;&lt;b&gt;BlastP hit with input.path1.gene666&lt;/b&gt;&lt;br&gt;Percentage identity: 31&lt;br&gt;Percentage coverage: 54&lt;br&gt;BLAST bit score: 166&lt;br&gt;E-value: 5.96e-40" locus_tag="EV186_RS31955" class="clusterblast-orf" id="dummy-5_h5_2_47"  />
</g>
<g id="a5_0048"  >
<polygon points="656,90 658,85 656,80 656,90 " style="fill:white; stroke-width:1; stroke:black; " description="&lt;b&gt;EV186_RS40280&lt;/b&gt;&lt;br&gt;alpha/beta fold hydrolase&lt;br&gt;Location: 264525 - 265154" locus_tag="EV186_RS40280" class="clusterblast-orf" id="dummy-5_h5_2_48"  />
</g>
<g id="a5_0049"  >
<polygon points="658,90 661,85 658,80 658,90 " style="fill:white; stroke-width:1; stroke:black; " description="&lt;b&gt;EV186_RS31960&lt;/b&gt;&lt;br&gt;ABC transporter ATP-binding protein&lt;br&gt;Location: 265195 - 266103" locus_tag="EV186_RS31960" class="clusterblast-orf" id="dummy-5_h5_2_49"  />
</g>
<g id="a5_0050"  >
<polygon points="661,90 664,85 661,80 661,90 " style="fill:white; stroke-width:1; stroke:black; " description="&lt;b&gt;EV186_RS31965&lt;/b&gt;&lt;br&gt;ABC transporter permease&lt;br&gt;Location: 266107 - 266844" locus_tag="EV186_RS31965" class="clusterblast-orf" id="dummy-5_h5_2_50"  />
</g>
<g id="a5_0051"  >
<polygon points="664,90 668,85 664,80 664,90 " style="fill:white; stroke-width:1; stroke:black; " description="&lt;b&gt;EV186_RS31970&lt;/b&gt;&lt;br&gt;glycosyl transferase&lt;br&gt;Location: 266921 - 268168" locus_tag="EV186_RS31970" class="clusterblast-orf" id="dummy-5_h5_2_51"  />
</g>
<g id="a5_0052"  >
<polygon points="668,90 672,85 668,80 668,90 " style="fill:white; stroke-width:1; stroke:black; " description="&lt;b&gt;EV186_RS31975&lt;/b&gt;&lt;br&gt;oleandomycin glycosyltransferase&lt;br&gt;Location: 268165 - 269388" locus_tag="EV186_RS31975" class="clusterblast-orf" id="dummy-5_h5_2_52"  />
</g>
<g id="a5_0053"  >
<polygon points="672,90 675,85 672,80 672,90 " style="fill:white; stroke-width:1; stroke:black; " description="&lt;b&gt;EV186_RS31980&lt;/b&gt;&lt;br&gt;NAD(P)-dependent oxidoreductase&lt;br&gt;Location: 269390 - 270352" locus_tag="EV186_RS31980" class="clusterblast-orf" id="dummy-5_h5_2_53"  />
</g>
<g id="a5_0054"  >
<polygon points="675,90 679,85 675,80 675,90 " style="fill:white; stroke-width:1; stroke:black; " description="&lt;b&gt;EV186_RS31985&lt;/b&gt;&lt;br&gt;glycosyl transferase&lt;br&gt;Location: 270349 - 271569" locus_tag="EV186_RS31985" class="clusterblast-orf" id="dummy-5_h5_2_54"  />
</g>
<g id="a5_0055"  >
<polygon points="679,85 683,80 683,90 679,85 " style="fill:white; stroke-width:1; stroke:black; " description="&lt;b&gt;EV186_RS31990&lt;/b&gt;&lt;br&gt;cytochrome P450&lt;br&gt;Location: 271571 - 272764" locus_tag="EV186_RS31990" class="clusterblast-orf" id="dummy-5_h5_2_55"  />
</g>
<g id="a5_0056"  >
<polygon points="683,90 685,85 683,80 683,90 " style="fill:white; stroke-width:1; stroke:black; " description="&lt;b&gt;EV186_RS31995&lt;/b&gt;&lt;br&gt;hypothetical protein&lt;br&gt;Location: 273004 - 273399" locus_tag="EV186_RS31995" class="clusterblast-orf" id="dummy-5_h5_2_56"  />
</g>
<g id="a5_0057"  >
<polygon points="685,85 689,80 689,90 685,85 " style="fill:white; stroke-width:1; stroke:black; " description="&lt;b&gt;EV186_RS40285&lt;/b&gt;&lt;br&gt;3-hydroxyacyl-CoA dehydrogenase NAD-binding domain-containing protein&lt;br&gt;Location: 273586 - 274767" locus_tag="EV186_RS40285" class="clusterblast-orf" id="dummy-5_h5_2_57"  />
</g>
<g id="a5_0058"  >
<polygon points="689,85 693,80 693,90 689,85 " style="fill:white; stroke-width:1; stroke:black; " description="&lt;b&gt;EV186_RS40290&lt;/b&gt;&lt;br&gt;crotonyl-CoA carboxylase/reductase&lt;br&gt;Location: 274792 - 276120" locus_tag="EV186_RS40290" class="clusterblast-orf" id="dummy-5_h5_2_58"  />
</g>
<g id="a5_0059"  >
<polygon points="694,90 697,85 694,80 694,90 " style="fill:white; stroke-width:1; stroke:black; " description="&lt;b&gt;EV186_RS32005&lt;/b&gt;&lt;br&gt;GDP-mannose 4,6-dehydratase&lt;br&gt;Location: 276368 - 277321" locus_tag="EV186_RS32005" class="clusterblast-orf" id="dummy-5_h5_2_59"  />
</g>
<g id="a5_0060"  >
<polygon points="697,85 702,80 702,80 702,90 702,90 697,85 " style="fill:white; stroke-width:1; stroke:black; " description="&lt;b&gt;EV186_RS32010&lt;/b&gt;&lt;br&gt;PH domain-containing protein&lt;br&gt;Location: 277387 - 278949" locus_tag="EV186_RS32010" class="clusterblast-orf" id="dummy-5_h5_2_60"  />
</g>
<g id="a5_0061"  >
<polygon points="702,85 704,80 704,90 702,85 " style="fill:white; stroke-width:1; stroke:black; " description="&lt;b&gt;EV186_RS32015&lt;/b&gt;&lt;br&gt;PH domain-containing protein&lt;br&gt;Location: 278946 - 279437" locus_tag="EV186_RS32015" class="clusterblast-orf" id="dummy-5_h5_2_61"  />
</g>
<g id="a5_0062"  >
<polygon points="704,85 709,80 711,80 711,90 709,90 704,85 " style="fill:white; stroke-width:1; stroke:black; " description="&lt;b&gt;EV186_RS32020&lt;/b&gt;&lt;br&gt;glycoside hydrolase family 15 protein&lt;br&gt;Location: 279475 - 281595" locus_tag="EV186_RS32020" class="clusterblast-orf" id="dummy-5_h5_2_62"  />
</g>
<g id="a5_0063"  >
<polygon points="712,90 715,85 712,80 712,90 " style="fill:white; stroke-width:1; stroke:black; " description="&lt;b&gt;EV186_RS32025&lt;/b&gt;&lt;br&gt;aldo/keto reductase&lt;br&gt;Location: 281912 - 282823" locus_tag="EV186_RS32025" class="clusterblast-orf" id="dummy-5_h5_2_63"  />
</g>
<g id="a5_0064"  >
<polygon points="715,85 717,80 717,90 715,85 " style="fill:white; stroke-width:1; stroke:black; " description="&lt;b&gt;EV186_RS32030&lt;/b&gt;&lt;br&gt;TauD/TfdA family dioxygenase&lt;br&gt;Location: 282830 - 283711" locus_tag="EV186_RS32030" class="clusterblast-orf" id="dummy-5_h5_2_64"  />
</g>
<g id="a5_0065"  >
<polygon points="718,90 719,85 718,80 718,90 " style="fill:white; stroke-width:1; stroke:black; " description="&lt;b&gt;EV186_RS32035&lt;/b&gt;&lt;br&gt;FKBP-type peptidyl-prolyl cis-trans isomerase&lt;br&gt;Location: 283830 - 284204" locus_tag="EV186_RS32035" class="clusterblast-orf" id="dummy-5_h5_2_65"  />
</g>
<g id="a5_0066"  >
<polygon points="719,85 723,80 723,90 719,85 " style="fill:white; stroke-width:1; stroke:black; " description="&lt;b&gt;EV186_RS32040&lt;/b&gt;&lt;br&gt;serine hydrolase&lt;br&gt;Location: 284241 - 285629" locus_tag="EV186_RS32040" class="clusterblast-orf" id="dummy-5_h5_2_66"  />
</g>
<g id="a5_0067"  >
<polygon points="724,90 727,85 724,80 724,90 " style="fill:white; stroke-width:1; stroke:black; " description="&lt;b&gt;EV186_RS32045&lt;/b&gt;&lt;br&gt;glycosyltransferase family 4 protein&lt;br&gt;Location: 285743 - 286894" locus_tag="EV186_RS32045" class="clusterblast-orf" id="dummy-5_h5_2_67"  />
</g>
<g id="a5_0068"  >
<polygon points="727,90 731,85 727,80 727,90 " style="fill:white; stroke-width:1; stroke:black; " description="&lt;b&gt;EV186_RS32050&lt;/b&gt;&lt;br&gt;serine hydrolase&lt;br&gt;Location: 286901 - 287998" locus_tag="EV186_RS32050" class="clusterblast-orf" id="dummy-5_h5_2_68"  />
</g>
<g id="a5_0069"  >
<polygon points="731,90 732,85 731,80 731,90 " style="fill:white; stroke-width:1; stroke:black; " description="&lt;b&gt;EV186_RS32055&lt;/b&gt;&lt;br&gt;hypothetical protein&lt;br&gt;Location: 288054 - 288245" locus_tag="EV186_RS32055" class="clusterblast-orf" id="dummy-5_h5_2_69"  />
</g>
<g id="a5_0070"  >
<polygon points="732,90 736,85 732,80 732,90 " style="fill:white; stroke-width:1; stroke:black; " description="&lt;b&gt;EV186_RS32060&lt;/b&gt;&lt;br&gt;YcaO-like family protein&lt;br&gt;Location: 288333 - 289673" locus_tag="EV186_RS32060" class="clusterblast-orf" id="dummy-5_h5_2_70"  />
</g>
<g id="a5_0071"  >
<polygon points="736,90 738,85 736,80 736,90 " style="fill:white; stroke-width:1; stroke:black; " description="&lt;b&gt;EV186_RS32065&lt;/b&gt;&lt;br&gt;TOMM precursor leader peptide-binding protein&lt;br&gt;Location: 289690 - 290307" locus_tag="EV186_RS32065" class="clusterblast-orf" id="dummy-5_h5_2_71"  />
</g>
<g id="a5_0072"  >
<polygon points="738,90 740,90 745,85 740,80 738,80 738,90 " style="fill:white; stroke-width:1; stroke:black; " description="&lt;b&gt;EV186_RS32070&lt;/b&gt;&lt;br&gt;hypothetical protein&lt;br&gt;Location: 290304 - 292256" locus_tag="EV186_RS32070" class="clusterblast-orf" id="dummy-5_h5_2_72"  />
</g>
<g id="a5_0073"  >
<polygon points="745,90 749,85 745,80 745,90 " style="fill:white; stroke-width:1; stroke:black; " description="&lt;b&gt;EV186_RS32075&lt;/b&gt;&lt;br&gt;SagB family peptide dehydrogenase&lt;br&gt;Location: 292253 - 293701" locus_tag="EV186_RS32075" class="clusterblast-orf" id="dummy-5_h5_2_73"  />
</g>
<g id="a5_0074"  >
<polygon points="749,90 749,90 754,85 749,80 749,80 749,90 " style="fill:white; stroke-width:1; stroke:black; " description="&lt;b&gt;EV186_RS32080&lt;/b&gt;&lt;br&gt;AMP-binding protein&lt;br&gt;Location: 293698 - 295173" locus_tag="EV186_RS32080" class="clusterblast-orf" id="dummy-5_h5_2_74"  />
</g>
<g id="a5_0075"  >
<polygon points="754,90 756,85 754,80 754,90 " style="fill:white; stroke-width:1; stroke:black; " description="&lt;b&gt;EV186_RS32085&lt;/b&gt;&lt;br&gt;phosphopantetheine-binding protein&lt;br&gt;Location: 295158 - 295709" locus_tag="EV186_RS32085" class="clusterblast-orf" id="dummy-5_h5_2_75"  />
</g>
<g id="a5_0076"  >
<polygon points="756,90 760,85 756,80 756,90 " style="fill:white; stroke-width:1; stroke:black; " description="&lt;b&gt;EV186_RS39185&lt;/b&gt;&lt;br&gt;hypothetical protein&lt;br&gt;Location: 295706 - 297229" locus_tag="EV186_RS39185" class="clusterblast-orf" id="dummy-5_h5_2_76"  />
</g>
<g id="a5_0077"  >
<polygon points="760,90 763,85 760,80 760,90 " style="fill:white; stroke-width:1; stroke:black; " description="&lt;b&gt;EV186_RS32095&lt;/b&gt;&lt;br&gt;phosphatase PAP2 family protein&lt;br&gt;Location: 297258 - 298121" locus_tag="EV186_RS32095" class="clusterblast-orf" id="dummy-5_h5_2_77"  />
</g>
<g id="a5_0078"  >
<polygon points="763,90 765,85 763,80 763,90 " style="fill:white; stroke-width:1; stroke:black; " description="&lt;b&gt;EV186_RS32100&lt;/b&gt;&lt;br&gt;hypothetical protein&lt;br&gt;Location: 298200 - 298664" locus_tag="EV186_RS32100" class="clusterblast-orf" id="dummy-5_h5_2_78"  />
</g>
<g id="a5_0079"  >
<polygon points="765,85 770,80 774,80 774,90 770,90 765,85 " style="fill:white; stroke-width:1; stroke:black; " description="&lt;b&gt;EV186_RS32105&lt;/b&gt;&lt;br&gt;hypothetical protein&lt;br&gt;Location: 298800 - 301568" locus_tag="EV186_RS32105" class="clusterblast-orf" id="dummy-5_h5_2_79"  />
</g>
<g id="a5_0080"  >
<polygon points="775,85 780,80 780,80 780,90 780,90 775,85 " style="fill:white; stroke-width:1; stroke:black; " description="&lt;b&gt;EV186_RS32110&lt;/b&gt;&lt;br&gt;fatty acid--CoA ligase family protein&lt;br&gt;Location: 301717 - 303246" locus_tag="EV186_RS32110" class="clusterblast-orf" id="dummy-5_h5_2_80"  />
</g>
</svg>
