<svg xmlns="http://www.w3.org/2000/svg" xmlns:xlink="http://www.w3.org/1999/xlink" version="1.1" x="0" y="0" height="50" width="800" viewBox="0 0 800 50" preserveAspectRatio="none"  >
<g label="Query sequence" class="clusterblast-cluster"  >
<text x="5" y="20" class="clusterblast-acc"  >
Query sequence</text>
<line x1="10" y1="35" x2="778.0" y2="35" style="stroke-width:1; stroke:grey; "  />
<polygon points="0,40 86,40 91,35 86,30 0,30 0,40 " style="fill:white; stroke-width:1; stroke:black; " description="&lt;b&gt;input.path1.gene76&lt;/b&gt;&lt;br&gt;input.path1.gene76&lt;br&gt;Location: 279552 - 286322" locus_tag="input.path1.gene76" class="clusterblast-orf" id="knownclusterblast-2_q0_0_all"  />
<polygon points="92,40 95,40 100,35 95,30 92,30 92,40 " style="fill:white; stroke-width:1; stroke:black; " description="&lt;b&gt;input.path1.gene77&lt;/b&gt;&lt;br&gt;input.path1.gene77&lt;br&gt;Location: 286442 - 286999" locus_tag="input.path1.gene77" class="clusterblast-orf" id="knownclusterblast-2_q1_0_all"  />
<polygon points="101,35 106,30 126,30 126,40 106,40 101,35 " style="fill:white; stroke-width:1; stroke:black; " description="&lt;b&gt;input.path1.gene78&lt;/b&gt;&lt;br&gt;input.path1.gene78&lt;br&gt;Location: 287081 - 288929" locus_tag="input.path1.gene78" class="clusterblast-orf" id="knownclusterblast-2_q2_0_all"  />
<polygon points="160,35 165,30 176,30 176,40 165,40 160,35 " style="fill:white; stroke-width:1; stroke:black; " description="&lt;b&gt;input.path1.gene79&lt;/b&gt;&lt;br&gt;input.path1.gene79&lt;br&gt;Location: 291531 - 292676" locus_tag="input.path1.gene79" class="clusterblast-orf" id="knownclusterblast-2_q3_0_all"  />
<polygon points="234,40 264,40 269,35 264,30 234,30 234,40 " style="fill:white; stroke-width:1; stroke:black; " description="&lt;b&gt;input.path1.gene80&lt;/b&gt;&lt;br&gt;input.path1.gene80&lt;br&gt;Location: 296994 - 299646" locus_tag="input.path1.gene80" class="clusterblast-orf" id="knownclusterblast-2_q4_0_all"  />
<polygon points="297,35 302,30 313,30 313,40 302,40 297,35 " style="fill:white; stroke-width:1; stroke:black; " description="&lt;b&gt;input.path1.gene81&lt;/b&gt;&lt;br&gt;input.path1.gene81&lt;br&gt;Location: 301732 - 302907" locus_tag="input.path1.gene81" class="clusterblast-orf" id="knownclusterblast-2_q5_0_all"  />
<polygon points="330,40 360,40 365,35 360,30 330,30 330,40 " style="fill:white; stroke-width:1; stroke:black; " description="&lt;b&gt;input.path1.gene82&lt;/b&gt;&lt;br&gt;input.path1.gene82&lt;br&gt;Location: 304193 - 306750" locus_tag="input.path1.gene82" class="clusterblast-orf" id="knownclusterblast-2_q6_0_all"  />
<polygon points="366,35 371,30 380,30 380,40 371,40 366,35 " style="fill:white; stroke-width:1; stroke:black; " description="&lt;b&gt;input.path1.gene83&lt;/b&gt;&lt;br&gt;input.path1.gene83&lt;br&gt;Location: 306864 - 307882" locus_tag="input.path1.gene83" class="clusterblast-orf" id="knownclusterblast-2_q7_0_all"  />
<polygon points="416,40 418,35 416,30 416,40 " style="fill:white; stroke-width:1; stroke:black; " description="&lt;b&gt;input.path1.gene84&lt;/b&gt;&lt;br&gt;input.path1.gene84&lt;br&gt;Location: 310552 - 310732" locus_tag="input.path1.gene84" class="clusterblast-orf" id="knownclusterblast-2_q8_0_all"  />
<polygon points="442,40 446,40 451,35 446,30 442,30 442,40 " style="fill:white; stroke-width:1; stroke:black; " description="&lt;b&gt;input.path1.gene85&lt;/b&gt;&lt;br&gt;input.path1.gene85&lt;br&gt;Location: 312507 - 313168" locus_tag="input.path1.gene85" class="clusterblast-orf" id="knownclusterblast-2_q9_0_all"  />
<polygon points="458,35 463,30 465,30 465,40 463,40 458,35 " style="fill:white; stroke-width:1; stroke:black; " description="&lt;b&gt;input.path1.gene86&lt;/b&gt;&lt;br&gt;input.path1.gene86&lt;br&gt;Location: 313661 - 314224" locus_tag="input.path1.gene86" class="clusterblast-orf" id="knownclusterblast-2_q10_0_all"  />
<polygon points="484,40 484,40 489,35 484,30 484,30 484,40 " style="fill:white; stroke-width:1; stroke:black; " description="&lt;b&gt;input.path1.gene87&lt;/b&gt;&lt;br&gt;input.path1.gene87&lt;br&gt;Location: 315626 - 316030" locus_tag="input.path1.gene87" class="clusterblast-orf" id="knownclusterblast-2_q11_0_all"  />
<polygon points="509,40 531,40 536,35 531,30 509,30 509,40 " style="fill:white; stroke-width:1; stroke:black; " description="&lt;b&gt;input.path1.gene88&lt;/b&gt;&lt;br&gt;input.path1.gene88&lt;br&gt;Location: 317527 - 319480" locus_tag="input.path1.gene88" class="clusterblast-orf" id="knownclusterblast-2_q12_0_all"  />
<polygon points="573,40 576,40 581,35 576,30 573,30 573,40 " style="fill:white; stroke-width:1; stroke:black; " description="&lt;b&gt;input.path1.gene89&lt;/b&gt;&lt;br&gt;input.path1.gene89&lt;br&gt;Location: 322226 - 322868" locus_tag="input.path1.gene89" class="clusterblast-orf" id="knownclusterblast-2_q13_0_all"  />
<polygon points="636,35 641,30 663,30 663,40 641,40 636,35 " style="fill:white; stroke-width:1; stroke:black; " description="&lt;b&gt;input.path1.gene90&lt;/b&gt;&lt;br&gt;input.path1.gene90&lt;br&gt;Location: 326991 - 328949" locus_tag="input.path1.gene90" class="clusterblast-orf" id="knownclusterblast-2_q14_0_all"  />
<polygon points="702,35 707,30 710,30 710,40 707,40 702,35 " style="fill:white; stroke-width:1; stroke:black; " description="&lt;b&gt;input.path1.gene91&lt;/b&gt;&lt;br&gt;input.path1.gene91&lt;br&gt;Location: 331894 - 332494" locus_tag="input.path1.gene91" class="clusterblast-orf" id="knownclusterblast-2_q15_0_all"  />
<polygon points="717,40 719,40 724,35 719,30 717,30 717,40 " style="fill:white; stroke-width:1; stroke:black; " description="&lt;b&gt;input.path1.gene92&lt;/b&gt;&lt;br&gt;input.path1.gene92&lt;br&gt;Location: 332958 - 333525" locus_tag="input.path1.gene92" class="clusterblast-orf" id="knownclusterblast-2_q16_0_all"  />
<polygon points="757,40 775,40 780,35 775,30 757,30 757,40 " style="fill:white; stroke-width:1; stroke:black; " description="&lt;b&gt;input.path1.gene93&lt;/b&gt;&lt;br&gt;input.path1.gene93&lt;br&gt;Location: 335989 - 337655" locus_tag="input.path1.gene93" class="clusterblast-orf" id="knownclusterblast-2_q17_0_all"  />
</g>
</svg>
