<svg xmlns="http://www.w3.org/2000/svg" xmlns:xlink="http://www.w3.org/1999/xlink" version="1.1" x="0" y="0" height="50" width="800" viewBox="0 0 800 50" preserveAspectRatio="none"  >
<g label="Query sequence" class="clusterblast-cluster"  >
<text x="5" y="20" class="clusterblast-acc"  >
Query sequence</text>
<line x1="10" y1="35" x2="778.0" y2="35" style="stroke-width:1; stroke:grey; "  />
<polygon points="0,40 6,40 11,35 6,30 0,30 0,40 " style="fill:white; stroke-width:1; stroke:black; " description="&lt;b&gt;input.path1.gene1623&lt;/b&gt;&lt;br&gt;input.path1.gene1623&lt;br&gt;Location: 6158613 - 6159488" locus_tag="input.path1.gene1623" class="clusterblast-orf" id="subclusterblast-7_q0_0_all"  />
<polygon points="68,35 73,30 78,30 78,40 73,40 68,35 " style="fill:white; stroke-width:1; stroke:black; " description="&lt;b&gt;input.path1.gene1624&lt;/b&gt;&lt;br&gt;input.path1.gene1624&lt;br&gt;Location: 6164005 - 6164836" locus_tag="input.path1.gene1624" class="clusterblast-orf" id="subclusterblast-7_q1_0_all"  />
<polygon points="105,40 148,40 153,35 148,30 105,30 105,40 " style="fill:white; stroke-width:1; stroke:black; " description="&lt;b&gt;input.path1.gene1625&lt;/b&gt;&lt;br&gt;input.path1.gene1625&lt;br&gt;Location: 6166929 - 6170752" locus_tag="input.path1.gene1625" class="clusterblast-orf" id="subclusterblast-7_q2_0_all"  />
<polygon points="154,35 159,30 175,30 175,40 159,40 154,35 " style="fill:white; stroke-width:1; stroke:black; " description="&lt;b&gt;input.path1.gene1626&lt;/b&gt;&lt;br&gt;input.path1.gene1626&lt;br&gt;Location: 6170818 - 6172477" locus_tag="input.path1.gene1626" class="clusterblast-orf" id="subclusterblast-7_q3_0_all"  />
<polygon points="178,40 195,40 200,35 195,30 178,30 178,40 " style="fill:white; stroke-width:1; stroke:black; " description="&lt;b&gt;input.path1.gene1627&lt;/b&gt;&lt;br&gt;input.path1.gene1627&lt;br&gt;Location: 6172708 - 6174449" locus_tag="input.path1.gene1627" class="clusterblast-orf" id="subclusterblast-7_q4_0_all"  />
<polygon points="322,35 327,30 331,30 331,40 327,40 322,35 " style="fill:white; stroke-width:1; stroke:black; " description="&lt;b&gt;input.path1.gene1628&lt;/b&gt;&lt;br&gt;input.path1.gene1628&lt;br&gt;Location: 6184115 - 6184847" locus_tag="input.path1.gene1628" class="clusterblast-orf" id="subclusterblast-7_q5_0_all"  />
<polygon points="334,40 338,35 334,30 334,40 " style="fill:white; stroke-width:1; stroke:black; " description="&lt;b&gt;input.path1.gene1629&lt;/b&gt;&lt;br&gt;input.path1.gene1629&lt;br&gt;Location: 6185047 - 6185366" locus_tag="input.path1.gene1629" class="clusterblast-orf" id="subclusterblast-7_q6_0_all"  />
<polygon points="352,40 413,40 418,35 413,30 352,30 352,40 " style="fill:white; stroke-width:1; stroke:black; " description="&lt;b&gt;input.path1.gene1630&lt;/b&gt;&lt;br&gt;input.path1.gene1630&lt;br&gt;Location: 6186506 - 6191691" locus_tag="input.path1.gene1630" class="clusterblast-orf" id="subclusterblast-7_q7_0_all"  />
<polygon points="464,40 487,40 492,35 487,30 464,30 464,40 " style="fill:white; stroke-width:1; stroke:black; " description="&lt;b&gt;input.path1.gene1631&lt;/b&gt;&lt;br&gt;input.path1.gene1631&lt;br&gt;Location: 6195354 - 6197602" locus_tag="input.path1.gene1631" class="clusterblast-orf" id="subclusterblast-7_q8_0_all"  />
<polygon points="535,40 537,40 542,35 537,30 535,30 535,40 " style="fill:white; stroke-width:1; stroke:black; " description="&lt;b&gt;input.path1.gene1632&lt;/b&gt;&lt;br&gt;input.path1.gene1632&lt;br&gt;Location: 6201007 - 6201544" locus_tag="input.path1.gene1632" class="clusterblast-orf" id="subclusterblast-7_q9_0_all"  />
<polygon points="551,35 555,30 555,40 551,35 " style="fill:white; stroke-width:1; stroke:black; " description="&lt;b&gt;input.path1.gene1633&lt;/b&gt;&lt;br&gt;input.path1.gene1633&lt;br&gt;Location: 6202238 - 6202580" locus_tag="input.path1.gene1633" class="clusterblast-orf" id="subclusterblast-7_q10_0_all"  />
<polygon points="581,40 596,40 601,35 596,30 581,30 581,40 " style="fill:white; stroke-width:1; stroke:black; " description="&lt;b&gt;input.path1.gene1634&lt;/b&gt;&lt;br&gt;input.path1.gene1634&lt;br&gt;Location: 6204602 - 6206243" locus_tag="input.path1.gene1634" class="clusterblast-orf" id="subclusterblast-7_q11_0_all"  />
<polygon points="639,40 667,40 672,35 667,30 639,30 639,40 " style="fill:white; stroke-width:1; stroke:black; " description="&lt;b&gt;input.path1.gene1635&lt;/b&gt;&lt;br&gt;input.path1.gene1635&lt;br&gt;Location: 6209239 - 6211824" locus_tag="input.path1.gene1635" class="clusterblast-orf" id="subclusterblast-7_q12_0_all"  />
<polygon points="697,40 712,40 717,35 712,30 697,30 697,40 " style="fill:white; stroke-width:1; stroke:black; " description="&lt;b&gt;input.path1.gene1636&lt;/b&gt;&lt;br&gt;input.path1.gene1636&lt;br&gt;Location: 6213821 - 6215397" locus_tag="input.path1.gene1636" class="clusterblast-orf" id="subclusterblast-7_q13_0_all"  />
<polygon points="737,40 742,40 747,35 742,30 737,30 737,40 " style="fill:white; stroke-width:1; stroke:black; " description="&lt;b&gt;input.path1.gene1637&lt;/b&gt;&lt;br&gt;input.path1.gene1637&lt;br&gt;Location: 6216984 - 6217769" locus_tag="input.path1.gene1637" class="clusterblast-orf" id="subclusterblast-7_q14_0_all"  />
<polygon points="760,40 775,40 780,35 775,30 760,30 760,40 " style="fill:white; stroke-width:1; stroke:black; " description="&lt;b&gt;input.path1.gene1638&lt;/b&gt;&lt;br&gt;input.path1.gene1638&lt;br&gt;Location: 6218776 - 6220353" locus_tag="input.path1.gene1638" class="clusterblast-orf" id="subclusterblast-7_q15_0_all"  />
</g>
</svg>
