<svg xmlns="http://www.w3.org/2000/svg" xmlns:xlink="http://www.w3.org/1999/xlink" version="1.1" x="0" y="0" height="230" width="800" viewBox="0 0 800 230" preserveAspectRatio="none"  >
<g label="Query sequence" class="clusterblast-cluster"  >
<text x="5" y="20" class="clusterblast-acc"  >
Query sequence</text>
<line x1="10" y1="35" x2="778.0" y2="35" style="stroke-width:1; stroke:grey; "  />
<polygon points="112,40 133,40 138,35 133,30 112,30 112,40 " style="fill:#d81515; stroke-width:1; stroke:black; " description="&lt;b&gt;input.path1.gene53&lt;/b&gt;&lt;br&gt;input.path1.gene53&lt;br&gt;Location: 225506 - 227563" locus_tag="input.path1.gene53" class="clusterblast-orf" id="dummy-1_q0_0_all"  />
<polygon points="154,40 168,40 173,35 168,30 154,30 154,40 " style="fill:#77d815; stroke-width:1; stroke:black; " description="&lt;b&gt;input.path1.gene54&lt;/b&gt;&lt;br&gt;input.path1.gene54&lt;br&gt;Location: 228788 - 230230" locus_tag="input.path1.gene54" class="clusterblast-orf" id="dummy-1_q1_0_all"  />
<polygon points="175,35 180,30 196,30 196,40 180,40 175,35 " style="fill:#15d8d8; stroke-width:1; stroke:black; " description="&lt;b&gt;input.path1.gene55&lt;/b&gt;&lt;br&gt;input.path1.gene55&lt;br&gt;Location: 230448 - 232041" locus_tag="input.path1.gene55" class="clusterblast-orf" id="dummy-1_q2_0_all"  />
<polygon points="209,35 214,30 214,30 214,40 214,40 209,35 " style="fill:white; stroke-width:1; stroke:black; " description="&lt;b&gt;input.path1.gene56&lt;/b&gt;&lt;br&gt;input.path1.gene56&lt;br&gt;Location: 233117 - 233477" locus_tag="input.path1.gene56" class="clusterblast-orf" id="dummy-1_q3_0_all"  />
<polygon points="296,40 300,40 305,35 300,30 296,30 296,40 " style="fill:#7715d8; stroke-width:1; stroke:black; " description="&lt;b&gt;input.path1.gene57&lt;/b&gt;&lt;br&gt;input.path1.gene57&lt;br&gt;Location: 239909 - 240596" locus_tag="input.path1.gene57" class="clusterblast-orf" id="dummy-1_q4_0_all"  />
<polygon points="314,40 317,40 322,35 317,30 314,30 314,40 " style="fill:#d87715; stroke-width:1; stroke:black; " description="&lt;b&gt;input.path1.gene58&lt;/b&gt;&lt;br&gt;input.path1.gene58&lt;br&gt;Location: 241309 - 241917" locus_tag="input.path1.gene58" class="clusterblast-orf" id="dummy-1_q5_0_all"  />
<polygon points="328,35 333,30 348,30 348,40 333,40 328,35 " style="fill:#15d815; stroke-width:1; stroke:black; " description="&lt;b&gt;input.path1.gene59&lt;/b&gt;&lt;br&gt;input.path1.gene59&lt;br&gt;Location: 242431 - 243925" locus_tag="input.path1.gene59" class="clusterblast-orf" id="dummy-1_q6_0_all"  />
<polygon points="356,40 428,40 433,35 428,30 356,30 356,40 " style="fill:#1577d8; stroke-width:1; stroke:black; " description="&lt;b&gt;input.path1.gene60&lt;/b&gt;&lt;br&gt;input.path1.gene60&lt;br&gt;Location: 244578 - 250613" locus_tag="input.path1.gene60" class="clusterblast-orf" id="dummy-1_q7_0_all"  />
<polygon points="433,35 438,30 454,30 454,40 438,40 433,35 " style="fill:#d815d8; stroke-width:1; stroke:black; " description="&lt;b&gt;input.path1.gene61&lt;/b&gt;&lt;br&gt;input.path1.gene61&lt;br&gt;Location: 250641 - 252291" locus_tag="input.path1.gene61" class="clusterblast-orf" id="dummy-1_q8_0_all"  />
<polygon points="511,40 511,40 516,35 511,30 511,30 511,40 " style="fill:#d8d815; stroke-width:1; stroke:black; " description="&lt;b&gt;input.path1.gene62&lt;/b&gt;&lt;br&gt;input.path1.gene62&lt;br&gt;Location: 256710 - 257118" locus_tag="input.path1.gene62" class="clusterblast-orf" id="dummy-1_q9_0_all"  />
<polygon points="526,35 531,30 537,30 537,40 531,40 526,35 " style="fill:white; stroke-width:1; stroke:black; " description="&lt;b&gt;input.path1.gene63&lt;/b&gt;&lt;br&gt;input.path1.gene63&lt;br&gt;Location: 257873 - 258744" locus_tag="input.path1.gene63" class="clusterblast-orf" id="dummy-1_q10_0_all"  />
<polygon points="555,40 563,40 568,35 563,30 555,30 555,40 " style="fill:#15d877; stroke-width:1; stroke:black; " description="&lt;b&gt;input.path1.gene64&lt;/b&gt;&lt;br&gt;input.path1.gene64&lt;br&gt;Location: 260173 - 261207" locus_tag="input.path1.gene64" class="clusterblast-orf" id="dummy-1_q11_0_all"  />
<polygon points="581,35 586,30 594,30 594,40 586,40 581,35 " style="fill:#1515d8; stroke-width:1; stroke:black; " description="&lt;b&gt;input.path1.gene65&lt;/b&gt;&lt;br&gt;input.path1.gene65&lt;br&gt;Location: 262167 - 263181" locus_tag="input.path1.gene65" class="clusterblast-orf" id="dummy-1_q12_0_all"  />
<polygon points="642,35 647,30 667,30 667,40 647,40 642,35 " style="fill:#d81577; stroke-width:1; stroke:black; " description="&lt;b&gt;input.path1.gene66&lt;/b&gt;&lt;br&gt;input.path1.gene66&lt;br&gt;Location: 266967 - 268927" locus_tag="input.path1.gene66" class="clusterblast-orf" id="dummy-1_q13_0_all"  />
</g>
<g label="NW_011942171" description="NW_011942171 (2100194-2164118): Metarhizium robertsii ARSEF 23 MAA Scf 3, who... (58% of genes show similarity), NRPS-like" class="clusterblast-cluster"  >
<text x="5" y="70" class="clusterblast-acc"  >
<a xlink:href="https://antismash-db.secondarymetabolites.org/area?record=NW_011942171&amp;start=2100194&amp;end=2164118" target="_blank">NW_011942171 (2100194-2164118)</a>: Metarhizium robertsii ARSEF 23 MAA Scf 3, who... (58% of genes show similarity), NRPS-like</text>
<line x1="10" y1="85" x2="778.0" y2="85" style="stroke-width:1; stroke:grey; "  />
</g>
<g id="a1_000"  >
<polygon points="0,90 10,90 15,85 10,80 0,80 0,90 " style="fill:white; stroke-width:1; stroke:black; " description="&lt;b&gt;MAA_03745&lt;/b&gt;&lt;br&gt;RRM domain protein&lt;br&gt;Location: 2162814 - 2161630" locus_tag="MAA_03745" class="clusterblast-orf" id="dummy-1_h1_2_0"  />
</g>
<g id="a1_001"  >
<polygon points="19,85 24,80 34,80 34,90 24,90 19,85 " style="fill:white; stroke-width:1; stroke:black; " description="&lt;b&gt;MAA_03746&lt;/b&gt;&lt;br&gt;SET domain protein&lt;br&gt;Location: 2161306 - 2160132" locus_tag="MAA_03746" class="clusterblast-orf" id="dummy-1_h1_2_1"  />
</g>
<g id="a1_002"  >
<polygon points="49,90 56,90 61,85 56,80 49,80 49,90 " style="fill:white; stroke-width:1; stroke:black; " description="&lt;b&gt;MAA_03747&lt;/b&gt;&lt;br&gt;coenzyme Q biosynthesis protein Coq4&lt;br&gt;Location: 2158919 - 2157996" locus_tag="MAA_03747" class="clusterblast-orf" id="dummy-1_h1_2_2"  />
</g>
<g id="a1_003"  >
<polygon points="64,85 69,80 71,80 71,90 69,90 64,85 " style="fill:white; stroke-width:1; stroke:black; " description="&lt;b&gt;MAA_03748&lt;/b&gt;&lt;br&gt;DNA-binding TFAR19-related protein&lt;br&gt;Location: 2157759 - 2157225" locus_tag="MAA_03748" class="clusterblast-orf" id="dummy-1_h1_2_3"  />
</g>
<g id="a1_004"  >
<polygon points="75,85 80,80 88,80 88,90 80,90 75,85 " style="fill:white; stroke-width:1; stroke:black; " description="&lt;b&gt;MAA_03749&lt;/b&gt;&lt;br&gt;2-dehydropantoate 2-reductase&lt;br&gt;Location: 2156887 - 2155877" locus_tag="MAA_03749" class="clusterblast-orf" id="dummy-1_h1_2_4"  />
</g>
<g id="a1_005"  >
<polygon points="106,90 122,90 127,85 122,80 106,80 106,90 " style="fill:white; stroke-width:1; stroke:black; " description="&lt;b&gt;MAA_03750&lt;/b&gt;&lt;br&gt;MFS transporter&lt;br&gt;Location: 2154517 - 2152829" locus_tag="MAA_03750" class="clusterblast-orf" id="dummy-1_h1_2_5"  />
</g>
<g id="a1_006"  >
<polygon points="134,90 149,90 154,85 149,80 134,80 134,90 " style="fill:#d81515; stroke-width:1; stroke:black; " description="&lt;b&gt;MAA_03751&lt;/b&gt;&lt;br&gt;extracellular salicylate hydroxylase/monooxygenase&lt;br&gt;Location: 2152285 - 2150721&lt;br&gt;&lt;br&gt;&lt;b&gt;BlastP hit with input.path1.gene53&lt;/b&gt;&lt;br&gt;Percentage identity: 97&lt;br&gt;Percentage coverage: 83&lt;br&gt;BLAST bit score: 850&lt;br&gt;E-value: 7.68e-311" locus_tag="MAA_03751" class="clusterblast-orf" id="dummy-1_h1_2_6"  />
</g>
<g id="a1_007"  >
<polygon points="167,90 180,90 185,85 180,80 167,80 167,90 " style="fill:#77d815; stroke-width:1; stroke:black; " description="&lt;b&gt;MAA_03752&lt;/b&gt;&lt;br&gt;Alcohol dehydrogenase superfamily, zinc-type&lt;br&gt;Location: 2149731 - 2148291&lt;br&gt;&lt;br&gt;&lt;b&gt;BlastP hit with input.path1.gene54&lt;/b&gt;&lt;br&gt;Percentage identity: 99&lt;br&gt;Percentage coverage: 100&lt;br&gt;BLAST bit score: 684&lt;br&gt;E-value: 2.12e-249" locus_tag="MAA_03752" class="clusterblast-orf" id="dummy-1_h1_2_7"  />
</g>
<g id="a1_008"  >
<polygon points="188,85 193,80 208,80 208,90 193,90 188,85 " style="fill:#15d8d8; stroke-width:1; stroke:black; " description="&lt;b&gt;MAA_03753&lt;/b&gt;&lt;br&gt;Amine oxidase&lt;br&gt;Location: 2148061 - 2146469&lt;br&gt;&lt;br&gt;&lt;b&gt;BlastP hit with input.path1.gene55&lt;/b&gt;&lt;br&gt;Percentage identity: 88&lt;br&gt;Percentage coverage: 111&lt;br&gt;BLAST bit score: 800&lt;br&gt;E-value: 2.84e-292" locus_tag="MAA_03753" class="clusterblast-orf" id="dummy-1_h1_2_8"  />
</g>
<g id="a1_009"  >
<polygon points="271,90 294,90 299,85 294,80 271,80 271,90 " style="fill:white; stroke-width:1; stroke:black; " description="&lt;b&gt;MAA_03754&lt;/b&gt;&lt;br&gt;Zn(2)-C6 fungal-type DNA-binding domain protein&lt;br&gt;Location: 2141555 - 2139344" locus_tag="MAA_03754" class="clusterblast-orf" id="dummy-1_h1_2_9"  />
</g>
<g id="a1_0010"  >
<polygon points="308,90 312,90 317,85 312,80 308,80 308,90 " style="fill:#7715d8; stroke-width:1; stroke:black; " description="&lt;b&gt;MAA_03755&lt;/b&gt;&lt;br&gt;exosome-associated family protein&lt;br&gt;Location: 2138677 - 2137991&lt;br&gt;&lt;br&gt;&lt;b&gt;BlastP hit with input.path1.gene57&lt;/b&gt;&lt;br&gt;Percentage identity: 99&lt;br&gt;Percentage coverage: 88&lt;br&gt;BLAST bit score: 283&lt;br&gt;E-value: 9.76e-97" locus_tag="MAA_03755" class="clusterblast-orf" id="dummy-1_h1_2_10"  />
</g>
<g id="a1_0011"  >
<polygon points="325,90 327,90 332,85 327,80 325,80 325,90 " style="fill:#d87715; stroke-width:1; stroke:black; " description="&lt;b&gt;MAA_03756&lt;/b&gt;&lt;br&gt;CHCH domain-containing protein&lt;br&gt;Location: 2137378 - 2136774&lt;br&gt;&lt;br&gt;&lt;b&gt;BlastP hit with input.path1.gene58&lt;/b&gt;&lt;br&gt;Percentage identity: 98&lt;br&gt;Percentage coverage: 100&lt;br&gt;BLAST bit score: 275&lt;br&gt;E-value: 1.35e-94" locus_tag="MAA_03756" class="clusterblast-orf" id="dummy-1_h1_2_11"  />
</g>
<g id="a1_0012"  >
<polygon points="339,85 344,80 358,80 358,90 344,90 339,85 " style="fill:#15d815; stroke-width:1; stroke:black; " description="&lt;b&gt;MAA_03757&lt;/b&gt;&lt;br&gt;ubx&lt;br&gt;Location: 2136265 - 2134772&lt;br&gt;&lt;br&gt;&lt;b&gt;BlastP hit with input.path1.gene59&lt;/b&gt;&lt;br&gt;Percentage identity: 86&lt;br&gt;Percentage coverage: 109&lt;br&gt;BLAST bit score: 580&lt;br&gt;E-value: 2.37e-206" locus_tag="MAA_03757" class="clusterblast-orf" id="dummy-1_h1_2_12"  />
</g>
<g id="a1_0013"  >
<polygon points="366,90 411,90 416,85 411,80 366,80 366,90 " style="fill:#1577d8; stroke-width:1; stroke:black; " description="&lt;b&gt;MAA_03758&lt;/b&gt;&lt;br&gt;L-aminoadipate-semialdehyde dehydrogenase large subunit&lt;br&gt;Location: 2134118 - 2130195&lt;br&gt;&lt;br&gt;&lt;b&gt;BlastP hit with input.path1.gene60&lt;/b&gt;&lt;br&gt;Percentage identity: 98&lt;br&gt;Percentage coverage: 79&lt;br&gt;BLAST bit score: 2294&lt;br&gt;E-value: 0.0" locus_tag="MAA_03758" class="clusterblast-orf" id="dummy-1_h1_2_13"  />
</g>
<g id="a1_0014"  >
<polygon points="426,90 435,90 440,85 435,80 426,80 426,90 " style="fill:#1577d8; stroke-width:1; stroke:black; " description="&lt;b&gt;MAA_03759&lt;/b&gt;&lt;br&gt;Surfeit locus 1&lt;br&gt;Location: 2129468 - 2128329&lt;br&gt;&lt;br&gt;&lt;b&gt;BlastP hit with input.path1.gene60&lt;/b&gt;&lt;br&gt;Percentage identity: 98&lt;br&gt;Percentage coverage: 19&lt;br&gt;BLAST bit score: 590&lt;br&gt;E-value: 6.76e-198" locus_tag="MAA_03759" class="clusterblast-orf" id="dummy-1_h1_2_14"  />
</g>
<g id="a1_0015"  >
<polygon points="442,85 447,80 464,80 464,90 447,90 442,85 " style="fill:#d815d8; stroke-width:1; stroke:black; " description="&lt;b&gt;MAA_03760&lt;/b&gt;&lt;br&gt;Histone-fold domain containing protein&lt;br&gt;Location: 2128208 - 2126427&lt;br&gt;&lt;br&gt;&lt;b&gt;BlastP hit with input.path1.gene61&lt;/b&gt;&lt;br&gt;Percentage identity: 84&lt;br&gt;Percentage coverage: 112&lt;br&gt;BLAST bit score: 741&lt;br&gt;E-value: 9.2e-268" locus_tag="MAA_03760" class="clusterblast-orf" id="dummy-1_h1_2_15"  />
</g>
<g id="a1_0016"  >
<polygon points="521,90 521,90 526,85 521,80 521,80 521,90 " style="fill:#d8d815; stroke-width:1; stroke:black; " description="&lt;b&gt;MAA_03761&lt;/b&gt;&lt;br&gt;hypothetical protein&lt;br&gt;Location: 2122039 - 2121632&lt;br&gt;&lt;br&gt;&lt;b&gt;BlastP hit with input.path1.gene62&lt;/b&gt;&lt;br&gt;Percentage identity: 80&lt;br&gt;Percentage coverage: 124&lt;br&gt;BLAST bit score: 211&lt;br&gt;E-value: 2.9e-70" locus_tag="MAA_03761" class="clusterblast-orf" id="dummy-1_h1_2_16"  />
</g>
<g id="a1_0017"  >
<polygon points="568,90 571,90 576,85 571,80 568,80 568,90 " style="fill:#15d877; stroke-width:1; stroke:black; " description="&lt;b&gt;MAA_03762&lt;/b&gt;&lt;br&gt;Small GTPase superfamily, Rho type&lt;br&gt;Location: 2118338 - 2117667&lt;br&gt;&lt;br&gt;&lt;b&gt;BlastP hit with input.path1.gene64&lt;/b&gt;&lt;br&gt;Percentage identity: 92&lt;br&gt;Percentage coverage: 81&lt;br&gt;BLAST bit score: 312&lt;br&gt;E-value: 2.11e-107" locus_tag="MAA_03762" class="clusterblast-orf" id="dummy-1_h1_2_17"  />
</g>
<g id="a1_0018"  >
<polygon points="591,85 596,80 604,80 604,90 596,90 591,85 " style="fill:#1515d8; stroke-width:1; stroke:black; " description="&lt;b&gt;MAA_03763&lt;/b&gt;&lt;br&gt;RNA recognition motif domain protein&lt;br&gt;Location: 2116505 - 2115518&lt;br&gt;&lt;br&gt;&lt;b&gt;BlastP hit with input.path1.gene65&lt;/b&gt;&lt;br&gt;Percentage identity: 87&lt;br&gt;Percentage coverage: 100&lt;br&gt;BLAST bit score: 302&lt;br&gt;E-value: 3.17e-100" locus_tag="MAA_03763" class="clusterblast-orf" id="dummy-1_h1_2_18"  />
</g>
<g id="a1_0019"  >
<polygon points="646,85 651,80 659,80 659,90 651,90 646,85 " style="fill:#d81577; stroke-width:1; stroke:black; " description="&lt;b&gt;MAA_03764&lt;/b&gt;&lt;br&gt;DNA/RNA helicase, DEAD/DEAH box type&lt;br&gt;Location: 2112196 - 2111207&lt;br&gt;&lt;br&gt;&lt;b&gt;BlastP hit with input.path1.gene66&lt;/b&gt;&lt;br&gt;Percentage identity: 96&lt;br&gt;Percentage coverage: 31&lt;br&gt;BLAST bit score: 245&lt;br&gt;E-value: 2.84e-77" locus_tag="MAA_03764" class="clusterblast-orf" id="dummy-1_h1_2_19"  />
</g>
<g id="a1_0020"  >
<polygon points="666,85 671,80 677,80 677,90 671,90 666,85 " style="fill:#d81577; stroke-width:1; stroke:black; " description="&lt;b&gt;MAA_03765&lt;/b&gt;&lt;br&gt;Src like protein&lt;br&gt;Location: 2110680 - 2109777&lt;br&gt;&lt;br&gt;&lt;b&gt;BlastP hit with input.path1.gene66&lt;/b&gt;&lt;br&gt;Percentage identity: 97&lt;br&gt;Percentage coverage: 63&lt;br&gt;BLAST bit score: 430&lt;br&gt;E-value: 2.27e-149" locus_tag="MAA_03765" class="clusterblast-orf" id="dummy-1_h1_2_20"  />
</g>
<g id="a1_0021"  >
<polygon points="692,90 704,90 709,85 704,80 692,80 692,90 " style="fill:white; stroke-width:1; stroke:black; " description="&lt;b&gt;MAA_03766&lt;/b&gt;&lt;br&gt;Ankyrin repeat-containing domain protein&lt;br&gt;Location: 2108586 - 2107258" locus_tag="MAA_03766" class="clusterblast-orf" id="dummy-1_h1_2_21"  />
</g>
<g id="a1_0022"  >
<polygon points="726,90 744,90 749,85 744,80 726,80 726,90 " style="fill:white; stroke-width:1; stroke:black; " description="&lt;b&gt;MAA_03767&lt;/b&gt;&lt;br&gt;glycoside hydrolase family 79 protein&lt;br&gt;Location: 2105970 - 2104146" locus_tag="MAA_03767" class="clusterblast-orf" id="dummy-1_h1_2_22"  />
</g>
<g id="a1_0023"  >
<polygon points="753,85 758,80 780,80 780,90 758,90 753,85 " style="fill:white; stroke-width:1; stroke:black; " description="&lt;b&gt;MAA_03768&lt;/b&gt;&lt;br&gt;2-methylcitrate dehydratase&lt;br&gt;Location: 2103852 - 2101776" locus_tag="MAA_03768" class="clusterblast-orf" id="dummy-1_h1_2_23"  />
</g>
</svg>
