<svg xmlns="http://www.w3.org/2000/svg" xmlns:xlink="http://www.w3.org/1999/xlink" version="1.1" x="0" y="0" height="230" width="800" viewBox="0 0 800 230" preserveAspectRatio="none"  >
<g label="Query sequence" class="clusterblast-cluster"  >
<text x="5" y="20" class="clusterblast-acc"  >
Query sequence</text>
<line x1="10" y1="35" x2="778.0" y2="35" style="stroke-width:1; stroke:grey; "  />
<polygon points="197,35 202,30 202,30 202,40 202,40 197,35 " style="fill:white; stroke-width:1; stroke:black; " description="&lt;b&gt;input.path1.gene1542&lt;/b&gt;&lt;br&gt;input.path1.gene1542&lt;br&gt;Location: 5780646 - 5781264" locus_tag="input.path1.gene1542" class="clusterblast-orf" id="dummy-5_q0_0_all"  />
<polygon points="259,40 265,40 270,35 265,30 259,30 259,40 " style="fill:#d81515; stroke-width:1; stroke:black; " description="&lt;b&gt;input.path1.gene1543&lt;/b&gt;&lt;br&gt;input.path1.gene1543&lt;br&gt;Location: 5789275 - 5790772" locus_tag="input.path1.gene1543" class="clusterblast-orf" id="dummy-5_q1_0_all"  />
<polygon points="282,40 286,35 282,30 282,40 " style="fill:white; stroke-width:1; stroke:black; " description="&lt;b&gt;input.path1.gene1544&lt;/b&gt;&lt;br&gt;input.path1.gene1544&lt;br&gt;Location: 5792523 - 5793036" locus_tag="input.path1.gene1544" class="clusterblast-orf" id="dummy-5_q2_0_all"  />
<polygon points="289,35 294,30 297,30 297,40 294,40 289,35 " style="fill:#77d815; stroke-width:1; stroke:black; " description="&lt;b&gt;input.path1.gene1545&lt;/b&gt;&lt;br&gt;input.path1.gene1545&lt;br&gt;Location: 5793555 - 5794694" locus_tag="input.path1.gene1545" class="clusterblast-orf" id="dummy-5_q3_0_all"  />
<polygon points="318,40 322,35 318,30 318,40 " style="fill:#15d8d8; stroke-width:1; stroke:black; " description="&lt;b&gt;input.path1.gene1546&lt;/b&gt;&lt;br&gt;input.path1.gene1546&lt;br&gt;Location: 5797601 - 5798111" locus_tag="input.path1.gene1546" class="clusterblast-orf" id="dummy-5_q4_0_all"  />
<polygon points="322,35 327,30 327,30 327,40 327,40 322,35 " style="fill:white; stroke-width:1; stroke:black; " description="&lt;b&gt;input.path1.gene1547&lt;/b&gt;&lt;br&gt;input.path1.gene1547&lt;br&gt;Location: 5798180 - 5798840" locus_tag="input.path1.gene1547" class="clusterblast-orf" id="dummy-5_q5_0_all"  />
<polygon points="328,35 333,30 340,30 340,40 333,40 328,35 " style="fill:#7715d8; stroke-width:1; stroke:black; " description="&lt;b&gt;input.path1.gene1548&lt;/b&gt;&lt;br&gt;input.path1.gene1548&lt;br&gt;Location: 5798916 - 5800683" locus_tag="input.path1.gene1548" class="clusterblast-orf" id="dummy-5_q6_0_all"  />
<polygon points="341,35 345,30 345,40 341,35 " style="fill:white; stroke-width:1; stroke:black; " description="&lt;b&gt;input.path1.gene1549&lt;/b&gt;&lt;br&gt;input.path1.gene1549&lt;br&gt;Location: 5800769 - 5801349" locus_tag="input.path1.gene1549" class="clusterblast-orf" id="dummy-5_q7_0_all"  />
<polygon points="346,35 351,30 353,30 353,40 351,40 346,35 " style="fill:#d87715; stroke-width:1; stroke:black; " description="&lt;b&gt;input.path1.gene1550&lt;/b&gt;&lt;br&gt;input.path1.gene1550&lt;br&gt;Location: 5801478 - 5802522" locus_tag="input.path1.gene1550" class="clusterblast-orf" id="dummy-5_q8_0_all"  />
<polygon points="357,40 361,35 357,30 357,40 " style="fill:white; stroke-width:1; stroke:black; " description="&lt;b&gt;input.path1.gene1551&lt;/b&gt;&lt;br&gt;input.path1.gene1551&lt;br&gt;Location: 5802992 - 5803639" locus_tag="input.path1.gene1551" class="clusterblast-orf" id="dummy-5_q9_0_all"  />
<polygon points="361,35 366,30 369,30 369,40 366,40 361,35 " style="fill:#15d815; stroke-width:1; stroke:black; " description="&lt;b&gt;input.path1.gene1552&lt;/b&gt;&lt;br&gt;input.path1.gene1552&lt;br&gt;Location: 5803652 - 5804727" locus_tag="input.path1.gene1552" class="clusterblast-orf" id="dummy-5_q10_0_all"  />
<polygon points="375,40 408,40 413,35 408,30 375,30 375,40 " style="fill:#1577d8; stroke-width:1; stroke:black; " description="&lt;b&gt;input.path1.gene1553&lt;/b&gt;&lt;br&gt;input.path1.gene1553&lt;br&gt;Location: 5805537 - 5810868" locus_tag="input.path1.gene1553" class="clusterblast-orf" id="dummy-5_q11_0_all"  />
<polygon points="417,40 424,40 429,35 424,30 417,30 417,40 " style="fill:#7715d8; stroke-width:1; stroke:black; " description="&lt;b&gt;input.path1.gene1554&lt;/b&gt;&lt;br&gt;input.path1.gene1554&lt;br&gt;Location: 5811437 - 5813207" locus_tag="input.path1.gene1554" class="clusterblast-orf" id="dummy-5_q12_0_all"  />
<polygon points="449,40 451,40 456,35 451,30 449,30 449,40 " style="fill:#d815d8; stroke-width:1; stroke:black; " description="&lt;b&gt;input.path1.gene1555&lt;/b&gt;&lt;br&gt;input.path1.gene1555&lt;br&gt;Location: 5816021 - 5816887" locus_tag="input.path1.gene1555" class="clusterblast-orf" id="dummy-5_q13_0_all"  />
<polygon points="475,40 484,40 489,35 484,30 475,30 475,40 " style="fill:#d8d815; stroke-width:1; stroke:black; " description="&lt;b&gt;input.path1.gene1556&lt;/b&gt;&lt;br&gt;input.path1.gene1556&lt;br&gt;Location: 5819642 - 5821630" locus_tag="input.path1.gene1556" class="clusterblast-orf" id="dummy-5_q14_0_all"  />
<polygon points="493,35 498,30 499,30 499,40 498,40 493,35 " style="fill:white; stroke-width:1; stroke:black; " description="&lt;b&gt;input.path1.gene1557&lt;/b&gt;&lt;br&gt;input.path1.gene1557&lt;br&gt;Location: 5822169 - 5823058" locus_tag="input.path1.gene1557" class="clusterblast-orf" id="dummy-5_q15_0_all"  />
<polygon points="533,40 544,40 549,35 544,30 533,30 533,40 " style="fill:#15d877; stroke-width:1; stroke:black; " description="&lt;b&gt;input.path1.gene1558&lt;/b&gt;&lt;br&gt;input.path1.gene1558&lt;br&gt;Location: 5827780 - 5829974" locus_tag="input.path1.gene1558" class="clusterblast-orf" id="dummy-5_q16_0_all"  />
<polygon points="554,35 559,30 568,30 568,40 559,40 554,35 " style="fill:#1515d8; stroke-width:1; stroke:black; " description="&lt;b&gt;input.path1.gene1559&lt;/b&gt;&lt;br&gt;input.path1.gene1559&lt;br&gt;Location: 5830654 - 5832620" locus_tag="input.path1.gene1559" class="clusterblast-orf" id="dummy-5_q17_0_all"  />
<polygon points="571,40 577,40 582,35 577,30 571,30 571,40 " style="fill:#d81577; stroke-width:1; stroke:black; " description="&lt;b&gt;input.path1.gene1560&lt;/b&gt;&lt;br&gt;input.path1.gene1560&lt;br&gt;Location: 5833074 - 5834607" locus_tag="input.path1.gene1560" class="clusterblast-orf" id="dummy-5_q18_0_all"  />
</g>
<g label="NC_036631" description="NC_036631 (1325902-1438592): Fusarium fujikuroi IMI 58289 draft genome, chrom... (15% of genes show similarity), NRPS,isocyanide-nrp" class="clusterblast-cluster"  >
<text x="5" y="70" class="clusterblast-acc"  >
<a xlink:href="https://antismash-db.secondarymetabolites.org/area?record=NC_036631&amp;start=1325902&amp;end=1438592" target="_blank">NC_036631 (1325902-1438592)</a>: Fusarium fujikuroi IMI 58289 draft genome, chrom... (15% of genes show similarity), NRPS,isocyanide-nrp</text>
<line x1="10" y1="85" x2="778.0" y2="85" style="stroke-width:1; stroke:grey; "  />
</g>
<g id="a5_000"  >
<polygon points="0,90 2,90 7,85 2,80 0,80 0,90 " style="fill:white; stroke-width:1; stroke:black; " description="&lt;b&gt;FFUJ_10707&lt;/b&gt;&lt;br&gt;related to reductases&lt;br&gt;Location: 1326768 - 1327790" locus_tag="FFUJ_10707" class="clusterblast-orf" id="dummy-5_h5_9_0"  />
</g>
<g id="a5_001"  >
<polygon points="13,85 18,80 20,80 20,90 18,90 13,85 " style="fill:white; stroke-width:1; stroke:black; " description="&lt;b&gt;FFUJ_10708&lt;/b&gt;&lt;br&gt;uncharacterized protein&lt;br&gt;Location: 1328732 - 1329652" locus_tag="FFUJ_10708" class="clusterblast-orf" id="dummy-5_h5_9_1"  />
</g>
<g id="a5_002"  >
<polygon points="24,85 29,80 33,80 33,90 29,90 24,85 " style="fill:white; stroke-width:1; stroke:black; " description="&lt;b&gt;FFUJ_10709&lt;/b&gt;&lt;br&gt;related to methyltransferase&lt;br&gt;Location: 1330253 - 1331442" locus_tag="FFUJ_10709" class="clusterblast-orf" id="dummy-5_h5_9_2"  />
</g>
<g id="a5_003"  >
<polygon points="63,85 68,80 72,80 72,90 68,90 63,85 " style="fill:white; stroke-width:1; stroke:black; " description="&lt;b&gt;FFUJ_10710&lt;/b&gt;&lt;br&gt;related to mixed-linked glucanase precursor MLG1&lt;br&gt;Location: 1335620 - 1337006" locus_tag="FFUJ_10710" class="clusterblast-orf" id="dummy-5_h5_9_3"  />
</g>
<g id="a5_004"  >
<polygon points="90,90 98,90 103,85 98,80 90,80 90,90 " style="fill:white; stroke-width:1; stroke:black; " description="&lt;b&gt;FFUJ_10711&lt;/b&gt;&lt;br&gt;probable mfs-multidrug-resistance transporter&lt;br&gt;Location: 1339440 - 1341251" locus_tag="FFUJ_10711" class="clusterblast-orf" id="dummy-5_h5_9_4"  />
</g>
<g id="a5_005"  >
<polygon points="108,85 113,80 120,80 120,90 113,90 108,85 " style="fill:white; stroke-width:1; stroke:black; " description="&lt;b&gt;FFUJ_10712&lt;/b&gt;&lt;br&gt;related to DHA14-like major facilitator efflux transporter (MFS transporter)&lt;br&gt;Location: 1342015 - 1343716" locus_tag="FFUJ_10712" class="clusterblast-orf" id="dummy-5_h5_9_5"  />
</g>
<g id="a5_006"  >
<polygon points="136,90 148,90 153,85 148,80 136,80 136,90 " style="fill:white; stroke-width:1; stroke:black; " description="&lt;b&gt;FFUJ_10713&lt;/b&gt;&lt;br&gt;related to STB5-transcription factor&lt;br&gt;Location: 1345981 - 1348288" locus_tag="FFUJ_10713" class="clusterblast-orf" id="dummy-5_h5_9_6"  />
</g>
<g id="a5_007"  >
<polygon points="162,90 165,90 170,85 165,80 162,80 162,90 " style="fill:white; stroke-width:1; stroke:black; " description="&lt;b&gt;FFUJ_10714&lt;/b&gt;&lt;br&gt;uncharacterized protein&lt;br&gt;Location: 1349534 - 1350688" locus_tag="FFUJ_10714" class="clusterblast-orf" id="dummy-5_h5_9_7"  />
</g>
<g id="a5_008"  >
<polygon points="175,90 180,90 185,85 180,80 175,80 175,90 " style="fill:white; stroke-width:1; stroke:black; " description="&lt;b&gt;FFUJ_10715&lt;/b&gt;&lt;br&gt;related to salicylate 1-monooxygenase&lt;br&gt;Location: 1351467 - 1352758" locus_tag="FFUJ_10715" class="clusterblast-orf" id="dummy-5_h5_9_8"  />
</g>
<g id="a5_009"  >
<polygon points="188,85 193,80 201,80 201,90 193,90 188,85 " style="fill:white; stroke-width:1; stroke:black; " description="&lt;b&gt;FFUJ_10716&lt;/b&gt;&lt;br&gt;related to transporter protein HOL1&lt;br&gt;Location: 1353228 - 1355077" locus_tag="FFUJ_10716" class="clusterblast-orf" id="dummy-5_h5_9_9"  />
</g>
<g id="a5_0010"  >
<polygon points="206,85 211,80 215,80 215,90 211,90 206,85 " style="fill:white; stroke-width:1; stroke:black; " description="&lt;b&gt;FFUJ_10717&lt;/b&gt;&lt;br&gt;uncharacterized protein&lt;br&gt;Location: 1355806 - 1356999" locus_tag="FFUJ_10717" class="clusterblast-orf" id="dummy-5_h5_9_10"  />
</g>
<g id="a5_0011"  >
<polygon points="220,90 228,90 233,85 228,80 220,80 220,90 " style="fill:white; stroke-width:1; stroke:black; " description="&lt;b&gt;FFUJ_10718&lt;/b&gt;&lt;br&gt;related to cocaine esterase&lt;br&gt;Location: 1357738 - 1359553" locus_tag="FFUJ_10718" class="clusterblast-orf" id="dummy-5_h5_9_11"  />
</g>
<g id="a5_0012"  >
<polygon points="235,85 240,80 240,80 240,90 240,90 235,85 " style="fill:white; stroke-width:1; stroke:black; " description="&lt;b&gt;FFUJ_10719&lt;/b&gt;&lt;br&gt;related to ThiJ/PfpI family protein&lt;br&gt;Location: 1359867 - 1360544" locus_tag="FFUJ_10719" class="clusterblast-orf" id="dummy-5_h5_9_12"  />
</g>
<g id="a5_0013"  >
<polygon points="242,85 247,80 254,80 254,90 247,90 242,85 " style="fill:#7715d8; stroke-width:1; stroke:black; " description="&lt;b&gt;FFUJ_10720&lt;/b&gt;&lt;br&gt;related to major facilitator MirA&lt;br&gt;Location: 1360797 - 1362524&lt;br&gt;&lt;br&gt;&lt;b&gt;BlastP hit with input.path1.gene1548&lt;/b&gt;&lt;br&gt;Percentage identity: 54&lt;br&gt;Percentage coverage: 93&lt;br&gt;BLAST bit score: 575&lt;br&gt;E-value: 3.29e-199&lt;br&gt;&lt;br&gt;&lt;b&gt;BlastP hit with input.path1.gene1554&lt;/b&gt;&lt;br&gt;Percentage identity: 37&lt;br&gt;Percentage coverage: 133&lt;br&gt;BLAST bit score: 299&lt;br&gt;E-value: 3.6e-94" locus_tag="FFUJ_10720" class="clusterblast-orf" id="dummy-5_h5_9_13"  />
</g>
<g id="a5_0014"  >
<polygon points="260,85 265,80 288,80 288,90 265,90 260,85 " style="fill:#1577d8; stroke-width:1; stroke:black; " description="&lt;b&gt;FFUJ_10721&lt;/b&gt;&lt;br&gt;related to nonribosomal peptide synthetase MxcG&lt;br&gt;Location: 1363403 - 1367240&lt;br&gt;&lt;br&gt;&lt;b&gt;BlastP hit with input.path1.gene1553&lt;/b&gt;&lt;br&gt;Percentage identity: 60&lt;br&gt;Percentage coverage: 74&lt;br&gt;BLAST bit score: 1456&lt;br&gt;E-value: 0.0" locus_tag="FFUJ_10721" class="clusterblast-orf" id="dummy-5_h5_9_14"  />
</g>
<g id="a5_0015"  >
<polygon points="294,90 300,90 305,85 300,80 294,80 294,90 " style="fill:#1577d8; stroke-width:1; stroke:black; " description="&lt;b&gt;FFUJ_10722&lt;/b&gt;&lt;br&gt;probable ABC1 transport protein&lt;br&gt;Location: 1368159 - 1369689&lt;br&gt;&lt;br&gt;&lt;b&gt;BlastP hit with input.path1.gene1553&lt;/b&gt;&lt;br&gt;Percentage identity: 67&lt;br&gt;Percentage coverage: 21&lt;br&gt;BLAST bit score: 466&lt;br&gt;E-value: 3.54e-147" locus_tag="FFUJ_10722" class="clusterblast-orf" id="dummy-5_h5_9_15"  />
</g>
<g id="a5_0016"  >
<polygon points="307,85 312,80 315,80 315,90 312,90 307,85 " style="fill:#d87715; stroke-width:1; stroke:black; " description="&lt;b&gt;FFUJ_10723&lt;/b&gt;&lt;br&gt;related to lipase/esterase&lt;br&gt;Location: 1369996 - 1371054&lt;br&gt;&lt;br&gt;&lt;b&gt;BlastP hit with input.path1.gene1550&lt;/b&gt;&lt;br&gt;Percentage identity: 62&lt;br&gt;Percentage coverage: 99&lt;br&gt;BLAST bit score: 434&lt;br&gt;E-value: 4.52e-151" locus_tag="FFUJ_10723" class="clusterblast-orf" id="dummy-5_h5_9_16"  />
</g>
<g id="a5_0017"  >
<polygon points="319,90 325,90 330,85 325,80 319,80 319,90 " style="fill:#15d815; stroke-width:1; stroke:black; " description="&lt;b&gt;FFUJ_10724&lt;/b&gt;&lt;br&gt;uncharacterized protein&lt;br&gt;Location: 1371668 - 1373127&lt;br&gt;&lt;br&gt;&lt;b&gt;BlastP hit with input.path1.gene1552&lt;/b&gt;&lt;br&gt;Percentage identity: 41&lt;br&gt;Percentage coverage: 102&lt;br&gt;BLAST bit score: 187&lt;br&gt;E-value: 5.53e-54" locus_tag="FFUJ_10724" class="clusterblast-orf" id="dummy-5_h5_9_17"  />
</g>
<g id="a5_0018"  >
<polygon points="337,90 347,90 352,85 347,80 337,80 337,90 " style="fill:white; stroke-width:1; stroke:black; " description="&lt;b&gt;FFUJ_10725&lt;/b&gt;&lt;br&gt;related to alcohol oxidase&lt;br&gt;Location: 1374138 - 1376325" locus_tag="FFUJ_10725" class="clusterblast-orf" id="dummy-5_h5_9_18"  />
</g>
<g id="a5_0019"  >
<polygon points="357,90 362,90 367,85 362,80 357,80 357,90 " style="fill:white; stroke-width:1; stroke:black; " description="&lt;b&gt;FFUJ_10726&lt;/b&gt;&lt;br&gt;uncharacterized protein&lt;br&gt;Location: 1376970 - 1378352" locus_tag="FFUJ_10726" class="clusterblast-orf" id="dummy-5_h5_9_19"  />
</g>
<g id="a5_0020"  >
<polygon points="372,90 372,90 377,85 372,80 372,80 372,90 " style="fill:white; stroke-width:1; stroke:black; " description="&lt;b&gt;FFUJ_10727&lt;/b&gt;&lt;br&gt;related to maltose O-acetyltransferase&lt;br&gt;Location: 1379032 - 1379794" locus_tag="FFUJ_10727" class="clusterblast-orf" id="dummy-5_h5_9_20"  />
</g>
<g id="a5_0021"  >
<polygon points="381,85 384,80 384,90 381,85 " style="fill:white; stroke-width:1; stroke:black; " description="&lt;b&gt;FFUJ_10728&lt;/b&gt;&lt;br&gt;related to glycine-rich RNA-binding protein&lt;br&gt;Location: 1380282 - 1380783" locus_tag="FFUJ_10728" class="clusterblast-orf" id="dummy-5_h5_9_21"  />
</g>
<g id="a5_0022"  >
<polygon points="391,85 396,80 396,80 396,90 396,90 391,85 " style="fill:white; stroke-width:1; stroke:black; " description="&lt;b&gt;FFUJ_10729&lt;/b&gt;&lt;br&gt;uncharacterized protein&lt;br&gt;Location: 1381694 - 1382496" locus_tag="FFUJ_10729" class="clusterblast-orf" id="dummy-5_h5_9_22"  />
</g>
<g id="a5_0023"  >
<polygon points="405,90 412,90 417,85 412,80 405,80 405,90 " style="fill:white; stroke-width:1; stroke:black; " description="&lt;b&gt;FFUJ_10730&lt;/b&gt;&lt;br&gt;related to O-methylsterigmatocystin oxidoreductase&lt;br&gt;Location: 1383753 - 1385449" locus_tag="FFUJ_10730" class="clusterblast-orf" id="dummy-5_h5_9_23"  />
</g>
<g id="a5_0024"  >
<polygon points="423,90 435,90 440,85 435,80 423,80 423,90 " style="fill:white; stroke-width:1; stroke:black; " description="&lt;b&gt;FFUJ_10731&lt;/b&gt;&lt;br&gt;related to cellobiose dehydrogenase&lt;br&gt;Location: 1386301 - 1388682" locus_tag="FFUJ_10731" class="clusterblast-orf" id="dummy-5_h5_9_24"  />
</g>
<g id="a5_0025"  >
<polygon points="459,90 460,90 465,85 460,80 459,80 459,90 " style="fill:white; stroke-width:1; stroke:black; " description="&lt;b&gt;FFUJ_10732&lt;/b&gt;&lt;br&gt;uncharacterized protein&lt;br&gt;Location: 1391252 - 1392212" locus_tag="FFUJ_10732" class="clusterblast-orf" id="dummy-5_h5_9_25"  />
</g>
<g id="a5_0026"  >
<polygon points="469,85 474,80 483,80 483,90 474,90 469,85 " style="fill:#7715d8; stroke-width:1; stroke:black; " description="&lt;b&gt;FFUJ_10733&lt;/b&gt;&lt;br&gt;related to major facilitator MirA&lt;br&gt;Location: 1392754 - 1394638&lt;br&gt;&lt;br&gt;&lt;b&gt;BlastP hit with input.path1.gene1548&lt;/b&gt;&lt;br&gt;Percentage identity: 41&lt;br&gt;Percentage coverage: 94&lt;br&gt;BLAST bit score: 416&lt;br&gt;E-value: 1.12e-136" locus_tag="FFUJ_10733" class="clusterblast-orf" id="dummy-5_h5_9_26"  />
</g>
<g id="a5_0027"  >
<polygon points="496,85 501,80 505,80 505,90 501,90 496,85 " style="fill:white; stroke-width:1; stroke:black; " description="&lt;b&gt;FFUJ_10734&lt;/b&gt;&lt;br&gt;related to aerobactin siderophore biosynthesis protein iucB&lt;br&gt;Location: 1396540 - 1397826" locus_tag="FFUJ_10734" class="clusterblast-orf" id="dummy-5_h5_9_27"  />
</g>
<g id="a5_0028"  >
<polygon points="523,90 525,90 530,85 525,80 523,80 523,90 " style="fill:white; stroke-width:1; stroke:black; " description="&lt;b&gt;FFUJ_10735&lt;/b&gt;&lt;br&gt;related to enoyl-CoA hydratase&lt;br&gt;Location: 1400338 - 1401210" locus_tag="FFUJ_10735" class="clusterblast-orf" id="dummy-5_h5_9_28"  />
</g>
<g id="a5_0029"  >
<polygon points="538,90 577,90 582,85 577,80 538,80 538,90 " style="fill:white; stroke-width:1; stroke:black; " description="&lt;b&gt;FFUJ_10736&lt;/b&gt;&lt;br&gt;related to AM-toxin synthetase (AMT)&lt;br&gt;Location: 1402333 - 1408592" locus_tag="FFUJ_10736" class="clusterblast-orf" id="dummy-5_h5_9_29"  />
</g>
<g id="a5_0030"  >
<polygon points="588,85 593,80 599,80 599,90 593,90 588,85 " style="fill:white; stroke-width:1; stroke:black; " description="&lt;b&gt;FFUJ_10737&lt;/b&gt;&lt;br&gt;uncharacterized protein&lt;br&gt;Location: 1409484 - 1410929" locus_tag="FFUJ_10737" class="clusterblast-orf" id="dummy-5_h5_9_30"  />
</g>
<g id="a5_0031"  >
<polygon points="610,90 619,90 624,85 619,80 610,80 610,90 " style="fill:white; stroke-width:1; stroke:black; " description="&lt;b&gt;FFUJ_10738&lt;/b&gt;&lt;br&gt;uncharacterized protein&lt;br&gt;Location: 1412482 - 1414528" locus_tag="FFUJ_10738" class="clusterblast-orf" id="dummy-5_h5_9_31"  />
</g>
<g id="a5_0032"  >
<polygon points="628,85 633,80 643,80 643,90 633,90 628,85 " style="fill:white; stroke-width:1; stroke:black; " description="&lt;b&gt;FFUJ_10739&lt;/b&gt;&lt;br&gt;related to isoamyl alcohol oxidase&lt;br&gt;Location: 1415062 - 1417211" locus_tag="FFUJ_10739" class="clusterblast-orf" id="dummy-5_h5_9_32"  />
</g>
<g id="a5_0033"  >
<polygon points="660,90 665,90 670,85 665,80 660,80 660,90 " style="fill:white; stroke-width:1; stroke:black; " description="&lt;b&gt;FFUJ_10740&lt;/b&gt;&lt;br&gt;related to integral membrane protein PTH11&lt;br&gt;Location: 1419487 - 1420909" locus_tag="FFUJ_10740" class="clusterblast-orf" id="dummy-5_h5_9_33"  />
</g>
<g id="a5_0034"  >
<polygon points="675,85 680,80 683,80 683,90 680,90 675,85 " style="fill:white; stroke-width:1; stroke:black; " description="&lt;b&gt;FFUJ_10741&lt;/b&gt;&lt;br&gt;uncharacterized protein&lt;br&gt;Location: 1421647 - 1422734" locus_tag="FFUJ_10741" class="clusterblast-orf" id="dummy-5_h5_9_34"  />
</g>
<g id="a5_0035"  >
<polygon points="691,85 696,80 703,80 703,90 696,90 691,85 " style="fill:white; stroke-width:1; stroke:black; " description="&lt;b&gt;FFUJ_10742&lt;/b&gt;&lt;br&gt;related to oxidoreductase&lt;br&gt;Location: 1423835 - 1425505" locus_tag="FFUJ_10742" class="clusterblast-orf" id="dummy-5_h5_9_35"  />
</g>
<g id="a5_0036"  >
<polygon points="712,90 717,90 722,85 717,80 712,80 712,90 " style="fill:white; stroke-width:1; stroke:black; " description="&lt;b&gt;FFUJ_10743&lt;/b&gt;&lt;br&gt;related to integral membrane protein PTH11&lt;br&gt;Location: 1426837 - 1428259" locus_tag="FFUJ_10743" class="clusterblast-orf" id="dummy-5_h5_9_36"  />
</g>
<g id="a5_0037"  >
<polygon points="725,85 730,80 730,80 730,90 730,90 725,85 " style="fill:white; stroke-width:1; stroke:black; " description="&lt;b&gt;FFUJ_10744&lt;/b&gt;&lt;br&gt;uncharacterized protein&lt;br&gt;Location: 1428724 - 1429425" locus_tag="FFUJ_10744" class="clusterblast-orf" id="dummy-5_h5_9_37"  />
</g>
<g id="a5_0038"  >
<polygon points="754,90 760,90 765,85 760,80 754,80 754,90 " style="fill:white; stroke-width:1; stroke:black; " description="&lt;b&gt;FFUJ_10745&lt;/b&gt;&lt;br&gt;D-mannonate oxidoreductase family protein&lt;br&gt;Location: 1432784 - 1434295" locus_tag="FFUJ_10745" class="clusterblast-orf" id="dummy-5_h5_9_38"  />
</g>
<g id="a5_0039"  >
<polygon points="774,85 779,80 780,80 780,90 779,90 774,85 " style="fill:white; stroke-width:1; stroke:black; " description="&lt;b&gt;FFUJ_10746&lt;/b&gt;&lt;br&gt;related to the plant PR-1 class of pathogen related proteins&lt;br&gt;Location: 1435504 - 1436313" locus_tag="FFUJ_10746" class="clusterblast-orf" id="dummy-5_h5_9_39"  />
</g>
</svg>
