<svg xmlns="http://www.w3.org/2000/svg" xmlns:xlink="http://www.w3.org/1999/xlink" version="1.1" x="0" y="0" height="230" width="800" viewBox="0 0 800 230" preserveAspectRatio="none"  >
<g label="Query sequence" class="clusterblast-cluster"  >
<text x="5" y="20" class="clusterblast-acc"  >
Query sequence</text>
<line x1="10" y1="35" x2="778.0" y2="35" style="stroke-width:1; stroke:grey; "  />
<polygon points="0,40 6,40 11,35 6,30 0,30 0,40 " style="fill:#d81515; stroke-width:1; stroke:black; " description="&lt;b&gt;input.path1.gene1&lt;/b&gt;&lt;br&gt;input.path1.gene1&lt;br&gt;Location: 912 - 2380" locus_tag="input.path1.gene1" class="clusterblast-orf" id="dummy-1_q0_0_all"  />
<polygon points="33,35 37,30 37,40 33,35 " style="fill:#6ad815; stroke-width:1; stroke:black; " description="&lt;b&gt;input.path1.gene2&lt;/b&gt;&lt;br&gt;input.path1.gene2&lt;br&gt;Location: 5270 - 5807" locus_tag="input.path1.gene2" class="clusterblast-orf" id="dummy-1_q1_0_all"  />
<polygon points="45,35 50,30 115,30 115,40 50,40 45,35 " style="fill:#15bfd8; stroke-width:1; stroke:black; " description="&lt;b&gt;input.path1.gene3&lt;/b&gt;&lt;br&gt;input.path1.gene3&lt;br&gt;Location: 6736 - 15854" locus_tag="input.path1.gene3" class="clusterblast-orf" id="dummy-1_q2_0_all"  />
<polygon points="123,40 129,40 134,35 129,30 123,30 123,40 " style="fill:#9d15d8; stroke-width:1; stroke:black; " description="&lt;b&gt;input.path1.gene4&lt;/b&gt;&lt;br&gt;input.path1.gene4&lt;br&gt;Location: 16828 - 18242" locus_tag="input.path1.gene4" class="clusterblast-orf" id="dummy-1_q3_0_all"  />
<polygon points="134,35 139,30 141,30 141,40 139,40 134,35 " style="fill:#d84815; stroke-width:1; stroke:black; " description="&lt;b&gt;input.path1.gene5&lt;/b&gt;&lt;br&gt;input.path1.gene5&lt;br&gt;Location: 18238 - 19199" locus_tag="input.path1.gene5" class="clusterblast-orf" id="dummy-1_q4_0_all"  />
<polygon points="151,40 208,40 213,35 208,30 151,30 151,40 " style="fill:#37d815; stroke-width:1; stroke:black; " description="&lt;b&gt;input.path1.gene6&lt;/b&gt;&lt;br&gt;input.path1.gene6&lt;br&gt;Location: 20504 - 28548" locus_tag="input.path1.gene6" class="clusterblast-orf" id="dummy-1_q5_0_all"  />
<polygon points="257,40 264,40 269,35 264,30 257,30 257,40 " style="fill:#158cd8; stroke-width:1; stroke:black; " description="&lt;b&gt;input.path1.gene7&lt;/b&gt;&lt;br&gt;input.path1.gene7&lt;br&gt;Location: 34241 - 35730" locus_tag="input.path1.gene7" class="clusterblast-orf" id="dummy-1_q6_0_all"  />
<polygon points="276,35 281,30 284,30 284,40 281,40 276,35 " style="fill:#d015d8; stroke-width:1; stroke:black; " description="&lt;b&gt;input.path1.gene8&lt;/b&gt;&lt;br&gt;input.path1.gene8&lt;br&gt;Location: 36645 - 37714" locus_tag="input.path1.gene8" class="clusterblast-orf" id="dummy-1_q7_0_all"  />
<polygon points="288,40 298,40 303,35 298,30 288,30 288,40 " style="fill:#d87b15; stroke-width:1; stroke:black; " description="&lt;b&gt;input.path1.gene9&lt;/b&gt;&lt;br&gt;input.path1.gene9&lt;br&gt;Location: 38171 - 40088" locus_tag="input.path1.gene9" class="clusterblast-orf" id="dummy-1_q8_0_all"  />
<polygon points="304,35 309,30 317,30 317,40 309,40 304,35 " style="fill:#15d826; stroke-width:1; stroke:black; " description="&lt;b&gt;input.path1.gene10&lt;/b&gt;&lt;br&gt;input.path1.gene10&lt;br&gt;Location: 40222 - 41995" locus_tag="input.path1.gene10" class="clusterblast-orf" id="dummy-1_q9_0_all"  />
<polygon points="327,35 332,30 334,30 334,40 332,40 327,35 " style="fill:#1559d8; stroke-width:1; stroke:black; " description="&lt;b&gt;input.path1.gene11&lt;/b&gt;&lt;br&gt;input.path1.gene11&lt;br&gt;Location: 43277 - 44150" locus_tag="input.path1.gene11" class="clusterblast-orf" id="dummy-1_q10_0_all"  />
<polygon points="365,35 370,30 382,30 382,40 370,40 365,35 " style="fill:#d815ae; stroke-width:1; stroke:black; " description="&lt;b&gt;input.path1.gene12&lt;/b&gt;&lt;br&gt;input.path1.gene12&lt;br&gt;Location: 48191 - 50403" locus_tag="input.path1.gene12" class="clusterblast-orf" id="dummy-1_q11_0_all"  />
<polygon points="396,40 398,40 403,35 398,30 396,30 396,40 " style="fill:#d8ae15; stroke-width:1; stroke:black; " description="&lt;b&gt;input.path1.gene13&lt;/b&gt;&lt;br&gt;input.path1.gene13&lt;br&gt;Location: 52189 - 53116" locus_tag="input.path1.gene13" class="clusterblast-orf" id="dummy-1_q12_0_all"  />
<polygon points="420,35 425,30 428,30 428,40 425,40 420,35 " style="fill:#15d859; stroke-width:1; stroke:black; " description="&lt;b&gt;input.path1.gene14&lt;/b&gt;&lt;br&gt;input.path1.gene14&lt;br&gt;Location: 55241 - 56354" locus_tag="input.path1.gene14" class="clusterblast-orf" id="dummy-1_q13_0_all"  />
<polygon points="429,40 443,40 448,35 443,30 429,30 429,40 " style="fill:#1526d8; stroke-width:1; stroke:black; " description="&lt;b&gt;input.path1.gene15&lt;/b&gt;&lt;br&gt;input.path1.gene15&lt;br&gt;Location: 56435 - 58841" locus_tag="input.path1.gene15" class="clusterblast-orf" id="dummy-1_q14_0_all"  />
<polygon points="453,35 458,30 514,30 514,40 458,40 453,35 " style="fill:#37d815; stroke-width:1; stroke:black; " description="&lt;b&gt;input.path1.gene16&lt;/b&gt;&lt;br&gt;input.path1.gene16&lt;br&gt;Location: 59566 - 67414" locus_tag="input.path1.gene16" class="clusterblast-orf" id="dummy-1_q15_0_all"  />
<polygon points="520,40 525,40 530,35 525,30 520,30 520,40 " style="fill:#d8157b; stroke-width:1; stroke:black; " description="&lt;b&gt;input.path1.gene17&lt;/b&gt;&lt;br&gt;input.path1.gene17&lt;br&gt;Location: 68169 - 69480" locus_tag="input.path1.gene17" class="clusterblast-orf" id="dummy-1_q16_0_all"  />
<polygon points="549,40 554,40 559,35 554,30 549,30 549,40 " style="fill:#d0d815; stroke-width:1; stroke:black; " description="&lt;b&gt;input.path1.gene18&lt;/b&gt;&lt;br&gt;input.path1.gene18&lt;br&gt;Location: 71884 - 73210" locus_tag="input.path1.gene18" class="clusterblast-orf" id="dummy-1_q17_0_all"  />
<polygon points="566,40 579,40 584,35 579,30 566,30 566,40 " style="fill:#d0d815; stroke-width:1; stroke:black; " description="&lt;b&gt;input.path1.gene19&lt;/b&gt;&lt;br&gt;input.path1.gene19&lt;br&gt;Location: 74187 - 76509" locus_tag="input.path1.gene19" class="clusterblast-orf" id="dummy-1_q18_0_all"  />
<polygon points="604,40 633,40 638,35 633,30 604,30 604,40 " style="fill:#d8157b; stroke-width:1; stroke:black; " description="&lt;b&gt;input.path1.gene20&lt;/b&gt;&lt;br&gt;input.path1.gene20&lt;br&gt;Location: 79061 - 83458" locus_tag="input.path1.gene20" class="clusterblast-orf" id="dummy-1_q19_0_all"  />
<polygon points="654,35 659,30 659,30 659,40 659,40 654,35 " style="fill:white; stroke-width:1; stroke:black; " description="&lt;b&gt;input.path1.gene21&lt;/b&gt;&lt;br&gt;input.path1.gene21&lt;br&gt;Location: 85550 - 86168" locus_tag="input.path1.gene21" class="clusterblast-orf" id="dummy-1_q20_0_all"  />
<polygon points="672,40 676,35 672,30 672,40 " style="fill:#15d88c; stroke-width:1; stroke:black; " description="&lt;b&gt;input.path1.gene22&lt;/b&gt;&lt;br&gt;input.path1.gene22&lt;br&gt;Location: 87897 - 88316" locus_tag="input.path1.gene22" class="clusterblast-orf" id="dummy-1_q21_0_all"  />
<polygon points="689,40 691,35 689,30 689,40 " style="fill:#3715d8; stroke-width:1; stroke:black; " description="&lt;b&gt;input.path1.gene23&lt;/b&gt;&lt;br&gt;input.path1.gene23&lt;br&gt;Location: 90104 - 90275" locus_tag="input.path1.gene23" class="clusterblast-orf" id="dummy-1_q22_0_all"  />
<polygon points="704,35 709,30 713,30 713,40 709,40 704,35 " style="fill:#d81548; stroke-width:1; stroke:black; " description="&lt;b&gt;input.path1.gene24&lt;/b&gt;&lt;br&gt;input.path1.gene24&lt;br&gt;Location: 91946 - 93146" locus_tag="input.path1.gene24" class="clusterblast-orf" id="dummy-1_q23_0_all"  />
<polygon points="730,35 732,30 732,40 730,35 " style="fill:#9dd815; stroke-width:1; stroke:black; " description="&lt;b&gt;input.path1.gene25&lt;/b&gt;&lt;br&gt;input.path1.gene25&lt;br&gt;Location: 95284 - 95619" locus_tag="input.path1.gene25" class="clusterblast-orf" id="dummy-1_q24_0_all"  />
<polygon points="744,40 748,35 744,30 744,40 " style="fill:white; stroke-width:1; stroke:black; " description="&lt;b&gt;input.path1.gene26&lt;/b&gt;&lt;br&gt;input.path1.gene26&lt;br&gt;Location: 97118 - 97673" locus_tag="input.path1.gene26" class="clusterblast-orf" id="dummy-1_q25_0_all"  />
<polygon points="753,40 760,40 765,35 760,30 753,30 753,40 " style="fill:#15d8bf; stroke-width:1; stroke:black; " description="&lt;b&gt;input.path1.gene27&lt;/b&gt;&lt;br&gt;input.path1.gene27&lt;br&gt;Location: 98267 - 99892" locus_tag="input.path1.gene27" class="clusterblast-orf" id="dummy-1_q26_0_all"  />
<polygon points="766,35 771,30 780,30 780,40 771,40 766,35 " style="fill:#6a15d8; stroke-width:1; stroke:black; " description="&lt;b&gt;input.path1.gene28&lt;/b&gt;&lt;br&gt;input.path1.gene28&lt;br&gt;Location: 100018 - 101750" locus_tag="input.path1.gene28" class="clusterblast-orf" id="dummy-1_q27_0_all"  />
</g>
<g label="NW_025091270" description="NW_025091270 (2458662-2536359): Aspergillus udagawae IFM 46973 DNA, scaffold ... (40% of genes show similarity), T1PKS" class="clusterblast-cluster"  >
<text x="5" y="70" class="clusterblast-acc"  >
<a xlink:href="https://antismash-db.secondarymetabolites.org/area?record=NW_025091270&amp;start=2458662&amp;end=2536359" target="_blank">NW_025091270 (2458662-2536359)</a>: Aspergillus udagawae IFM 46973 DNA, scaffold ... (40% of genes show similarity), T1PKS</text>
<line x1="10" y1="85" x2="778.0" y2="85" style="stroke-width:1; stroke:grey; "  />
</g>
<g id="a1_000"  >
<polygon points="104,90 106,90 111,85 106,80 104,80 104,90 " style="fill:white; stroke-width:1; stroke:black; " description="&lt;b&gt;Aud_009518&lt;/b&gt;&lt;br&gt;uncharacterized protein&lt;br&gt;Location: 2533880 - 2533032" locus_tag="Aud_009518" class="clusterblast-orf" id="dummy-1_h1_6_0"  />
</g>
<g id="a1_001"  >
<polygon points="227,90 230,85 227,80 227,90 " style="fill:white; stroke-width:1; stroke:black; " description="&lt;b&gt;Aud_009517&lt;/b&gt;&lt;br&gt;uncharacterized protein&lt;br&gt;Location: 2517942 - 2517619" locus_tag="Aud_009517" class="clusterblast-orf" id="dummy-1_h1_6_1"  />
</g>
<g id="a1_002"  >
<polygon points="298,85 303,80 303,80 303,90 303,90 298,85 " style="fill:white; stroke-width:1; stroke:black; " description="&lt;b&gt;Aud_009516&lt;/b&gt;&lt;br&gt;uncharacterized protein&lt;br&gt;Location: 2508848 - 2508173" locus_tag="Aud_009516" class="clusterblast-orf" id="dummy-1_h1_6_2"  />
</g>
<g id="a1_003"  >
<polygon points="307,85 312,80 313,80 313,90 312,90 307,85 " style="fill:white; stroke-width:1; stroke:black; " description="&lt;b&gt;Aud_009515&lt;/b&gt;&lt;br&gt;uncharacterized protein&lt;br&gt;Location: 2507653 - 2506859" locus_tag="Aud_009515" class="clusterblast-orf" id="dummy-1_h1_6_3"  />
</g>
<g id="a1_004"  >
<polygon points="317,85 322,80 369,80 369,90 322,90 317,85 " style="fill:#15bfd8; stroke-width:1; stroke:black; " description="&lt;b&gt;Aud_009514&lt;/b&gt;&lt;br&gt;type I iterative polyketide synthase&lt;br&gt;Location: 2506359 - 2499622&lt;br&gt;&lt;br&gt;&lt;b&gt;BlastP hit with input.path1.gene3&lt;/b&gt;&lt;br&gt;Percentage identity: 73&lt;br&gt;Percentage coverage: 93&lt;br&gt;BLAST bit score: 3278&lt;br&gt;E-value: 0.0" locus_tag="Aud_009514" class="clusterblast-orf" id="dummy-1_h1_6_4"  />
</g>
<g id="a1_005"  >
<polygon points="374,90 379,90 384,85 379,80 374,80 374,90 " style="fill:#9d15d8; stroke-width:1; stroke:black; " description="&lt;b&gt;Aud_009513&lt;/b&gt;&lt;br&gt;uncharacterized protein&lt;br&gt;Location: 2499033 - 2497726&lt;br&gt;&lt;br&gt;&lt;b&gt;BlastP hit with input.path1.gene4&lt;/b&gt;&lt;br&gt;Percentage identity: 68&lt;br&gt;Percentage coverage: 107&lt;br&gt;BLAST bit score: 557&lt;br&gt;E-value: 1.29e-197" locus_tag="Aud_009513" class="clusterblast-orf" id="dummy-1_h1_6_5"  />
</g>
<g id="a1_006"  >
<polygon points="386,85 389,80 389,90 386,85 " style="fill:#d84815; stroke-width:1; stroke:black; " description="&lt;b&gt;Aud_009512&lt;/b&gt;&lt;br&gt;uncharacterized protein&lt;br&gt;Location: 2497481 - 2496993&lt;br&gt;&lt;br&gt;&lt;b&gt;BlastP hit with input.path1.gene5&lt;/b&gt;&lt;br&gt;Percentage identity: 80&lt;br&gt;Percentage coverage: 75&lt;br&gt;BLAST bit score: 232&lt;br&gt;E-value: 6.42e-77" locus_tag="Aud_009512" class="clusterblast-orf" id="dummy-1_h1_6_6"  />
</g>
<g id="a1_007"  >
<polygon points="394,90 449,90 454,85 449,80 394,80 394,90 " style="fill:#37d815; stroke-width:1; stroke:black; " description="&lt;b&gt;Aud_009511&lt;/b&gt;&lt;br&gt;type I iterative polyketide synthase&lt;br&gt;Location: 2496455 - 2488663&lt;br&gt;&lt;br&gt;&lt;b&gt;BlastP hit with input.path1.gene6&lt;/b&gt;&lt;br&gt;Percentage identity: 76&lt;br&gt;Percentage coverage: 100&lt;br&gt;BLAST bit score: 3862&lt;br&gt;E-value: 0.0&lt;br&gt;&lt;br&gt;&lt;b&gt;BlastP hit with input.path1.gene16&lt;/b&gt;&lt;br&gt;Percentage identity: 33&lt;br&gt;Percentage coverage: 109&lt;br&gt;BLAST bit score: 1140&lt;br&gt;E-value: 0.0" locus_tag="Aud_009511" class="clusterblast-orf" id="dummy-1_h1_6_7"  />
</g>
<g id="a1_008"  >
<polygon points="458,85 463,80 467,80 467,90 463,90 458,85 " style="fill:white; stroke-width:1; stroke:black; " description="&lt;b&gt;Aud_009510&lt;/b&gt;&lt;br&gt;uncharacterized protein&lt;br&gt;Location: 2488056 - 2486909" locus_tag="Aud_009510" class="clusterblast-orf" id="dummy-1_h1_6_8"  />
</g>
<g id="a1_009"  >
<polygon points="470,85 474,80 474,90 470,85 " style="fill:white; stroke-width:1; stroke:black; " description="&lt;b&gt;Aud_009509&lt;/b&gt;&lt;br&gt;uncharacterized protein&lt;br&gt;Location: 2486557 - 2486009" locus_tag="Aud_009509" class="clusterblast-orf" id="dummy-1_h1_6_9"  />
</g>
<g id="a1_0010"  >
<polygon points="501,85 504,80 504,90 501,85 " style="fill:#d87b15; stroke-width:1; stroke:black; " description="&lt;b&gt;Aud_009508&lt;/b&gt;&lt;br&gt;low affinity NH4+ transporter&lt;br&gt;Location: 2482588 - 2482196&lt;br&gt;&lt;br&gt;&lt;b&gt;BlastP hit with input.path1.gene9&lt;/b&gt;&lt;br&gt;Percentage identity: 75&lt;br&gt;Percentage coverage: 21&lt;br&gt;BLAST bit score: 186&lt;br&gt;E-value: 2.77e-54" locus_tag="Aud_009508" class="clusterblast-orf" id="dummy-1_h1_6_10"  />
</g>
<g id="a1_0011"  >
<polygon points="515,90 518,90 523,85 518,80 515,80 515,90 " style="fill:#d015d8; stroke-width:1; stroke:black; " description="&lt;b&gt;Aud_009507&lt;/b&gt;&lt;br&gt;uncharacterized protein&lt;br&gt;Location: 2480723 - 2479652&lt;br&gt;&lt;br&gt;&lt;b&gt;BlastP hit with input.path1.gene8&lt;/b&gt;&lt;br&gt;Percentage identity: 76&lt;br&gt;Percentage coverage: 99&lt;br&gt;BLAST bit score: 506&lt;br&gt;E-value: 6.3e-180" locus_tag="Aud_009507" class="clusterblast-orf" id="dummy-1_h1_6_11"  />
</g>
<g id="a1_0012"  >
<polygon points="564,90 564,90 569,85 564,80 564,80 564,90 " style="fill:white; stroke-width:1; stroke:black; " description="&lt;b&gt;Aud_009506&lt;/b&gt;&lt;br&gt;uncharacterized protein&lt;br&gt;Location: 2474404 - 2473832" locus_tag="Aud_009506" class="clusterblast-orf" id="dummy-1_h1_6_12"  />
</g>
<g id="a1_0013"  >
<polygon points="643,85 648,80 651,80 651,90 648,90 643,85 " style="fill:white; stroke-width:1; stroke:black; " description="&lt;b&gt;Aud_009505&lt;/b&gt;&lt;br&gt;uncharacterized protein&lt;br&gt;Location: 2464201 - 2463215" locus_tag="Aud_009505" class="clusterblast-orf" id="dummy-1_h1_6_13"  />
</g>
<g id="a1_0014"  >
<polygon points="671,90 675,85 671,80 671,90 " style="fill:white; stroke-width:1; stroke:black; " description="&lt;b&gt;Aud_009504&lt;/b&gt;&lt;br&gt;uncharacterized protein&lt;br&gt;Location: 2460614 - 2460069" locus_tag="Aud_009504" class="clusterblast-orf" id="dummy-1_h1_6_14"  />
</g>
</svg>
