<svg xmlns="http://www.w3.org/2000/svg" xmlns:xlink="http://www.w3.org/1999/xlink" version="1.1" x="0" y="0" height="230" width="800" viewBox="0 0 800 230" preserveAspectRatio="none"  >
<g label="Query sequence" class="clusterblast-cluster"  >
<text x="5" y="20" class="clusterblast-acc"  >
Query sequence</text>
<line x1="10" y1="35" x2="778.0" y2="35" style="stroke-width:1; stroke:grey; "  />
<polygon points="0,35 5,30 36,30 36,40 5,40 0,35 " style="fill:#d81515; stroke-width:1; stroke:black; " description="&lt;b&gt;input.path1.gene232&lt;/b&gt;&lt;br&gt;input.path1.gene232&lt;br&gt;Location: 819785 - 822515" locus_tag="input.path1.gene232" class="clusterblast-orf" id="dummy-2_q0_0_all"  />
<polygon points="48,40 52,40 57,35 52,30 48,30 48,40 " style="fill:white; stroke-width:1; stroke:black; " description="&lt;b&gt;input.path1.gene233&lt;/b&gt;&lt;br&gt;input.path1.gene233&lt;br&gt;Location: 823416 - 824085" locus_tag="input.path1.gene233" class="clusterblast-orf" id="dummy-2_q1_0_all"  />
<polygon points="109,40 126,40 131,35 126,30 109,30 109,40 " style="fill:#63d815; stroke-width:1; stroke:black; " description="&lt;b&gt;input.path1.gene234&lt;/b&gt;&lt;br&gt;input.path1.gene234&lt;br&gt;Location: 827933 - 829576" locus_tag="input.path1.gene234" class="clusterblast-orf" id="dummy-2_q2_0_all"  />
<polygon points="133,35 138,30 152,30 152,40 138,40 133,35 " style="fill:#15b1d8; stroke-width:1; stroke:black; " description="&lt;b&gt;input.path1.gene235&lt;/b&gt;&lt;br&gt;input.path1.gene235&lt;br&gt;Location: 829784 - 831208" locus_tag="input.path1.gene235" class="clusterblast-orf" id="dummy-2_q3_0_all"  />
<polygon points="157,40 157,40 162,35 157,30 157,30 157,40 " style="fill:white; stroke-width:1; stroke:black; " description="&lt;b&gt;input.path1.gene236&lt;/b&gt;&lt;br&gt;input.path1.gene236&lt;br&gt;Location: 831582 - 831952" locus_tag="input.path1.gene236" class="clusterblast-orf" id="dummy-2_q4_0_all"  />
<polygon points="177,35 182,30 267,30 267,40 182,40 177,35 " style="fill:#b115d8; stroke-width:1; stroke:black; " description="&lt;b&gt;input.path1.gene237&lt;/b&gt;&lt;br&gt;input.path1.gene237&lt;br&gt;Location: 833040 - 839775" locus_tag="input.path1.gene237" class="clusterblast-orf" id="dummy-2_q5_0_all"  />
<polygon points="287,35 292,30 316,30 316,40 292,40 287,35 " style="fill:#d86315; stroke-width:1; stroke:black; " description="&lt;b&gt;input.path1.gene238&lt;/b&gt;&lt;br&gt;input.path1.gene238&lt;br&gt;Location: 841260 - 843407" locus_tag="input.path1.gene238" class="clusterblast-orf" id="dummy-2_q6_0_all"  />
<polygon points="326,35 331,30 336,30 336,40 331,40 326,35 " style="fill:#15d815; stroke-width:1; stroke:black; " description="&lt;b&gt;input.path1.gene239&lt;/b&gt;&lt;br&gt;input.path1.gene239&lt;br&gt;Location: 844189 - 844956" locus_tag="input.path1.gene239" class="clusterblast-orf" id="dummy-2_q7_0_all"  />
<polygon points="412,40 417,40 422,35 417,30 412,30 412,40 " style="fill:#1563d8; stroke-width:1; stroke:black; " description="&lt;b&gt;input.path1.gene240&lt;/b&gt;&lt;br&gt;input.path1.gene240&lt;br&gt;Location: 850648 - 851380" locus_tag="input.path1.gene240" class="clusterblast-orf" id="dummy-2_q8_0_all"  />
<polygon points="441,35 446,30 515,30 515,40 446,40 441,35 " style="fill:#d815b1; stroke-width:1; stroke:black; " description="&lt;b&gt;input.path1.gene241&lt;/b&gt;&lt;br&gt;input.path1.gene241&lt;br&gt;Location: 852822 - 858328" locus_tag="input.path1.gene241" class="clusterblast-orf" id="dummy-2_q9_0_all"  />
<polygon points="537,40 557,40 562,35 557,30 537,30 537,40 " style="fill:#d8b115; stroke-width:1; stroke:black; " description="&lt;b&gt;input.path1.gene242&lt;/b&gt;&lt;br&gt;input.path1.gene242&lt;br&gt;Location: 859956 - 861876" locus_tag="input.path1.gene242" class="clusterblast-orf" id="dummy-2_q10_0_all"  />
<polygon points="564,35 569,30 576,30 576,40 569,40 564,35 " style="fill:#15d863; stroke-width:1; stroke:black; " description="&lt;b&gt;input.path1.gene243&lt;/b&gt;&lt;br&gt;input.path1.gene243&lt;br&gt;Location: 862022 - 862910" locus_tag="input.path1.gene243" class="clusterblast-orf" id="dummy-2_q11_0_all"  />
<polygon points="611,40 618,40 623,35 618,30 611,30 611,40 " style="fill:#1515d8; stroke-width:1; stroke:black; " description="&lt;b&gt;input.path1.gene244&lt;/b&gt;&lt;br&gt;input.path1.gene244&lt;br&gt;Location: 865517 - 866403" locus_tag="input.path1.gene244" class="clusterblast-orf" id="dummy-2_q12_0_all"  />
<polygon points="647,40 662,40 667,35 662,30 647,30 647,40 " style="fill:#d81563; stroke-width:1; stroke:black; " description="&lt;b&gt;input.path1.gene245&lt;/b&gt;&lt;br&gt;input.path1.gene245&lt;br&gt;Location: 868167 - 869680" locus_tag="input.path1.gene245" class="clusterblast-orf" id="dummy-2_q13_0_all"  />
<polygon points="695,40 723,40 728,35 723,30 695,30 695,40 " style="fill:#b1d815; stroke-width:1; stroke:black; " description="&lt;b&gt;input.path1.gene246&lt;/b&gt;&lt;br&gt;input.path1.gene246&lt;br&gt;Location: 871814 - 874237" locus_tag="input.path1.gene246" class="clusterblast-orf" id="dummy-2_q14_0_all"  />
<polygon points="736,35 741,30 752,30 752,40 741,40 736,35 " style="fill:#15d8b1; stroke-width:1; stroke:black; " description="&lt;b&gt;input.path1.gene247&lt;/b&gt;&lt;br&gt;input.path1.gene247&lt;br&gt;Location: 874884 - 876039" locus_tag="input.path1.gene247" class="clusterblast-orf" id="dummy-2_q15_0_all"  />
<polygon points="764,40 775,40 780,35 775,30 764,30 764,40 " style="fill:#6315d8; stroke-width:1; stroke:black; " description="&lt;b&gt;input.path1.gene248&lt;/b&gt;&lt;br&gt;input.path1.gene248&lt;br&gt;Location: 876982 - 878115" locus_tag="input.path1.gene248" class="clusterblast-orf" id="dummy-2_q16_0_all"  />
</g>
<g label="NW_022156719" description="NW_022156719 (1957514-1988753): Pyricularia grisea strain NI907 chromosome V ... (55% of genes show similarity), terpene" class="clusterblast-cluster"  >
<text x="5" y="70" class="clusterblast-acc"  >
<a xlink:href="https://antismash-db.secondarymetabolites.org/area?record=NW_022156719&amp;start=1957514&amp;end=1988753" target="_blank">NW_022156719 (1957514-1988753)</a>: Pyricularia grisea strain NI907 chromosome V ... (55% of genes show similarity), terpene</text>
<line x1="10" y1="85" x2="778.0" y2="85" style="stroke-width:1; stroke:grey; "  />
</g>
<g id="a2_000"  >
<polygon points="216,90 219,85 216,80 216,90 " style="fill:white; stroke-width:1; stroke:black; " description="&lt;b&gt;PgNI_08544&lt;/b&gt;&lt;br&gt;uncharacterized protein&lt;br&gt;Location: 1959814 - 1960014" locus_tag="PgNI_08544" class="clusterblast-orf" id="dummy-2_h2_6_0"  />
</g>
<g id="a2_001"  >
<polygon points="255,85 260,80 330,80 330,90 260,90 255,85 " style="fill:#d81515; stroke-width:1; stroke:black; " description="&lt;b&gt;PgNI_08545&lt;/b&gt;&lt;br&gt;uncharacterized protein&lt;br&gt;Location: 1962686 - 1968272&lt;br&gt;&lt;br&gt;&lt;b&gt;BlastP hit with input.path1.gene232&lt;/b&gt;&lt;br&gt;Percentage identity: 58&lt;br&gt;Percentage coverage: 106&lt;br&gt;BLAST bit score: 919&lt;br&gt;E-value: 1.26e-316" locus_tag="PgNI_08545" class="clusterblast-orf" id="dummy-2_h2_6_1"  />
</g>
<g id="a2_002"  >
<polygon points="353,90 370,90 375,85 370,80 353,80 353,90 " style="fill:#63d815; stroke-width:1; stroke:black; " description="&lt;b&gt;PgNI_08546&lt;/b&gt;&lt;br&gt;uncharacterized protein&lt;br&gt;Location: 1970021 - 1971665&lt;br&gt;&lt;br&gt;&lt;b&gt;BlastP hit with input.path1.gene234&lt;/b&gt;&lt;br&gt;Percentage identity: 45&lt;br&gt;Percentage coverage: 106&lt;br&gt;BLAST bit score: 422&lt;br&gt;E-value: 1.19e-141" locus_tag="PgNI_08546" class="clusterblast-orf" id="dummy-2_h2_6_2"  />
</g>
<g id="a2_003"  >
<polygon points="386,85 391,80 403,80 403,90 391,90 386,85 " style="fill:#15b1d8; stroke-width:1; stroke:black; " description="&lt;b&gt;PgNI_08547&lt;/b&gt;&lt;br&gt;uncharacterized protein&lt;br&gt;Location: 1972515 - 1973753&lt;br&gt;&lt;br&gt;&lt;b&gt;BlastP hit with input.path1.gene235&lt;/b&gt;&lt;br&gt;Percentage identity: 70&lt;br&gt;Percentage coverage: 77&lt;br&gt;BLAST bit score: 471&lt;br&gt;E-value: 1.75e-163" locus_tag="PgNI_08547" class="clusterblast-orf" id="dummy-2_h2_6_3"  />
</g>
<g id="a2_004"  >
<polygon points="427,90 435,90 440,85 435,80 427,80 427,90 " style="fill:white; stroke-width:1; stroke:black; " description="&lt;b&gt;PgNI_08548&lt;/b&gt;&lt;br&gt;uncharacterized protein&lt;br&gt;Location: 1975578 - 1976568" locus_tag="PgNI_08548" class="clusterblast-orf" id="dummy-2_h2_6_4"  />
</g>
<g id="a2_005"  >
<polygon points="448,85 453,80 469,80 469,90 453,90 448,85 " style="fill:white; stroke-width:1; stroke:black; " description="&lt;b&gt;PgNI_08549&lt;/b&gt;&lt;br&gt;uncharacterized protein&lt;br&gt;Location: 1977159 - 1978722" locus_tag="PgNI_08549" class="clusterblast-orf" id="dummy-2_h2_6_5"  />
</g>
<g id="a2_006"  >
<polygon points="487,85 492,80 511,80 511,90 492,90 487,85 " style="fill:#b115d8; stroke-width:1; stroke:black; " description="&lt;b&gt;PgNI_08551&lt;/b&gt;&lt;br&gt;uncharacterized protein&lt;br&gt;Location: 1980062 - 1981821&lt;br&gt;&lt;br&gt;&lt;b&gt;BlastP hit with input.path1.gene237&lt;/b&gt;&lt;br&gt;Percentage identity: 69&lt;br&gt;Percentage coverage: 33&lt;br&gt;BLAST bit score: 679&lt;br&gt;E-value: 3.19e-229" locus_tag="PgNI_08551" class="clusterblast-orf" id="dummy-2_h2_6_6"  />
</g>
<g id="a2_007"  >
<polygon points="490,90 494,90 499,85 494,80 490,80 490,90 " style="fill:white; stroke-width:1; stroke:black; " description="&lt;b&gt;PgNI_08550&lt;/b&gt;&lt;br&gt;uncharacterized protein&lt;br&gt;Location: 1980273 - 1980975" locus_tag="PgNI_08550" class="clusterblast-orf" id="dummy-2_h2_6_7"  />
</g>
<g id="a2_008"  >
<polygon points="550,90 558,90 563,85 558,80 550,80 550,90 " style="fill:#1515d8; stroke-width:1; stroke:black; " description="&lt;b&gt;PgNI_08552&lt;/b&gt;&lt;br&gt;uncharacterized protein&lt;br&gt;Location: 1984764 - 1985702&lt;br&gt;&lt;br&gt;&lt;b&gt;BlastP hit with input.path1.gene244&lt;/b&gt;&lt;br&gt;Percentage identity: 63&lt;br&gt;Percentage coverage: 43&lt;br&gt;BLAST bit score: 125&lt;br&gt;E-value: 2.63e-32" locus_tag="PgNI_08552" class="clusterblast-orf" id="dummy-2_h2_6_8"  />
</g>
</svg>
