<svg xmlns="http://www.w3.org/2000/svg" xmlns:xlink="http://www.w3.org/1999/xlink" version="1.1" x="0" y="0" height="230" width="800" viewBox="0 0 800 230" preserveAspectRatio="none"  >
<g label="Query sequence" class="clusterblast-cluster"  >
<text x="5" y="20" class="clusterblast-acc"  >
Query sequence</text>
<line x1="10" y1="35" x2="778.0" y2="35" style="stroke-width:1; stroke:grey; "  />
<polygon points="164,40 191,40 196,35 191,30 164,30 164,40 " style="fill:#d81515; stroke-width:1; stroke:black; " description="&lt;b&gt;input.path1.gene89&lt;/b&gt;&lt;br&gt;input.path1.gene89&lt;br&gt;Location: 340817 - 343449" locus_tag="input.path1.gene89" class="clusterblast-orf" id="dummy-2_q0_0_all"  />
<polygon points="243,40 257,40 262,35 257,30 243,30 243,40 " style="fill:#15d815; stroke-width:1; stroke:black; " description="&lt;b&gt;input.path1.gene90&lt;/b&gt;&lt;br&gt;input.path1.gene90&lt;br&gt;Location: 347293 - 348874" locus_tag="input.path1.gene90" class="clusterblast-orf" id="dummy-2_q1_0_all"  />
<polygon points="304,40 307,40 312,35 307,30 304,30 304,40 " style="fill:white; stroke-width:1; stroke:black; " description="&lt;b&gt;input.path1.gene91&lt;/b&gt;&lt;br&gt;input.path1.gene91&lt;br&gt;Location: 352320 - 352943" locus_tag="input.path1.gene91" class="clusterblast-orf" id="dummy-2_q2_0_all"  />
<polygon points="322,35 327,30 405,30 405,40 327,40 322,35 " style="fill:#1515d8; stroke-width:1; stroke:black; " description="&lt;b&gt;input.path1.gene92&lt;/b&gt;&lt;br&gt;input.path1.gene92&lt;br&gt;Location: 353761 - 360546" locus_tag="input.path1.gene92" class="clusterblast-orf" id="dummy-2_q3_0_all"  />
<polygon points="420,35 425,30 439,30 439,40 425,40 420,35 " style="fill:#d815d8; stroke-width:1; stroke:black; " description="&lt;b&gt;input.path1.gene93&lt;/b&gt;&lt;br&gt;input.path1.gene93&lt;br&gt;Location: 361787 - 363335" locus_tag="input.path1.gene93" class="clusterblast-orf" id="dummy-2_q4_0_all"  />
<polygon points="498,35 503,30 518,30 518,40 503,40 498,35 " style="fill:#d8d815; stroke-width:1; stroke:black; " description="&lt;b&gt;input.path1.gene94&lt;/b&gt;&lt;br&gt;input.path1.gene94&lt;br&gt;Location: 368190 - 369832" locus_tag="input.path1.gene94" class="clusterblast-orf" id="dummy-2_q5_0_all"  />
<polygon points="604,40 610,40 615,35 610,30 604,30 604,40 " style="fill:#15d8d8; stroke-width:1; stroke:black; " description="&lt;b&gt;input.path1.gene95&lt;/b&gt;&lt;br&gt;input.path1.gene95&lt;br&gt;Location: 376850 - 377803" locus_tag="input.path1.gene95" class="clusterblast-orf" id="dummy-2_q6_0_all"  />
</g>
<g label="NW_025091268" description="NW_025091268 (170405-235928): Aspergillus udagawae IFM 46973 DNA, scaffold 5,... (7% of genes show similarity), T1PKS" class="clusterblast-cluster"  >
<text x="5" y="70" class="clusterblast-acc"  >
<a xlink:href="https://antismash-db.secondarymetabolites.org/area?record=NW_025091268&amp;start=170405&amp;end=235928" target="_blank">NW_025091268 (170405-235928)</a>: Aspergillus udagawae IFM 46973 DNA, scaffold 5,... (7% of genes show similarity), T1PKS</text>
<line x1="10" y1="85" x2="778.0" y2="85" style="stroke-width:1; stroke:grey; "  />
</g>
<g id="a2_000"  >
<polygon points="0,90 28,90 33,85 28,80 0,80 0,90 " style="fill:white; stroke-width:1; stroke:black; " description="&lt;b&gt;Aud_006869&lt;/b&gt;&lt;br&gt;uncharacterized protein&lt;br&gt;Location: 170524 - 173268" locus_tag="Aud_006869" class="clusterblast-orf" id="dummy-2_h2_3_0"  />
</g>
<g id="a2_001"  >
<polygon points="38,90 60,90 65,85 60,80 38,80 38,90 " style="fill:white; stroke-width:1; stroke:black; " description="&lt;b&gt;Aud_006870&lt;/b&gt;&lt;br&gt;aspartate-semialdehyde dehydrogenase-like protein&lt;br&gt;Location: 173699 - 175888" locus_tag="Aud_006870" class="clusterblast-orf" id="dummy-2_h2_3_1"  />
</g>
<g id="a2_002"  >
<polygon points="69,85 74,80 91,80 91,90 74,90 69,85 " style="fill:white; stroke-width:1; stroke:black; " description="&lt;b&gt;Aud_006871&lt;/b&gt;&lt;br&gt;uncharacterized protein&lt;br&gt;Location: 176214 - 178051" locus_tag="Aud_006871" class="clusterblast-orf" id="dummy-2_h2_3_2"  />
</g>
<g id="a2_003"  >
<polygon points="99,85 104,80 129,80 129,90 104,90 99,85 " style="fill:white; stroke-width:1; stroke:black; " description="&lt;b&gt;Aud_006872&lt;/b&gt;&lt;br&gt;putative NRPS-like protein biosynthetic cluster&lt;br&gt;Location: 178655 - 181118" locus_tag="Aud_006872" class="clusterblast-orf" id="dummy-2_h2_3_3"  />
</g>
<g id="a2_004"  >
<polygon points="156,90 169,90 174,85 169,80 156,80 156,90 " style="fill:white; stroke-width:1; stroke:black; " description="&lt;b&gt;Aud_006873&lt;/b&gt;&lt;br&gt;uncharacterized protein&lt;br&gt;Location: 183319 - 184827" locus_tag="Aud_006873" class="clusterblast-orf" id="dummy-2_h2_3_4"  />
</g>
<g id="a2_005"  >
<polygon points="180,85 185,80 192,80 192,90 185,90 180,85 " style="fill:white; stroke-width:1; stroke:black; " description="&lt;b&gt;Aud_006874&lt;/b&gt;&lt;br&gt;uncharacterized protein&lt;br&gt;Location: 185314 - 186273" locus_tag="Aud_006874" class="clusterblast-orf" id="dummy-2_h2_3_5"  />
</g>
<g id="a2_006"  >
<polygon points="196,85 201,80 203,80 203,90 201,90 196,85 " style="fill:white; stroke-width:1; stroke:black; " description="&lt;b&gt;Aud_006875&lt;/b&gt;&lt;br&gt;uncharacterized protein&lt;br&gt;Location: 186629 - 187178" locus_tag="Aud_006875" class="clusterblast-orf" id="dummy-2_h2_3_6"  />
</g>
<g id="a2_007"  >
<polygon points="206,90 208,90 213,85 208,80 206,80 206,90 " style="fill:white; stroke-width:1; stroke:black; " description="&lt;b&gt;Aud_006876&lt;/b&gt;&lt;br&gt;uncharacterized protein&lt;br&gt;Location: 187446 - 187994" locus_tag="Aud_006876" class="clusterblast-orf" id="dummy-2_h2_3_7"  />
</g>
<g id="a2_008"  >
<polygon points="216,90 237,90 242,85 237,80 216,80 216,90 " style="fill:white; stroke-width:1; stroke:black; " description="&lt;b&gt;Aud_006877&lt;/b&gt;&lt;br&gt;uncharacterized protein&lt;br&gt;Location: 188265 - 190409" locus_tag="Aud_006877" class="clusterblast-orf" id="dummy-2_h2_3_8"  />
</g>
<g id="a2_009"  >
<polygon points="248,90 260,90 265,85 260,80 248,80 248,90 " style="fill:white; stroke-width:1; stroke:black; " description="&lt;b&gt;Aud_006878&lt;/b&gt;&lt;br&gt;uncharacterized protein&lt;br&gt;Location: 190939 - 192279" locus_tag="Aud_006878" class="clusterblast-orf" id="dummy-2_h2_3_9"  />
</g>
<g id="a2_0010"  >
<polygon points="268,85 273,80 280,80 280,90 273,90 268,85 " style="fill:white; stroke-width:1; stroke:black; " description="&lt;b&gt;Aud_006879&lt;/b&gt;&lt;br&gt;uncharacterized protein&lt;br&gt;Location: 192522 - 193545" locus_tag="Aud_006879" class="clusterblast-orf" id="dummy-2_h2_3_10"  />
</g>
<g id="a2_0011"  >
<polygon points="288,90 293,90 298,85 293,80 288,80 288,90 " style="fill:white; stroke-width:1; stroke:black; " description="&lt;b&gt;Aud_006880&lt;/b&gt;&lt;br&gt;uncharacterized protein&lt;br&gt;Location: 194172 - 194981" locus_tag="Aud_006880" class="clusterblast-orf" id="dummy-2_h2_3_11"  />
</g>
<g id="a2_0012"  >
<polygon points="302,90 305,90 310,85 305,80 302,80 302,90 " style="fill:white; stroke-width:1; stroke:black; " description="&lt;b&gt;Aud_006881&lt;/b&gt;&lt;br&gt;uncharacterized protein&lt;br&gt;Location: 195346 - 196023" locus_tag="Aud_006881" class="clusterblast-orf" id="dummy-2_h2_3_12"  />
</g>
<g id="a2_0013"  >
<polygon points="312,85 317,80 327,80 327,90 317,90 312,85 " style="fill:white; stroke-width:1; stroke:black; " description="&lt;b&gt;Aud_006882&lt;/b&gt;&lt;br&gt;uncharacterized protein&lt;br&gt;Location: 196109 - 197354" locus_tag="Aud_006882" class="clusterblast-orf" id="dummy-2_h2_3_13"  />
</g>
<g id="a2_0014"  >
<polygon points="343,85 348,80 360,80 360,90 348,90 343,85 " style="fill:white; stroke-width:1; stroke:black; " description="&lt;b&gt;Aud_006883&lt;/b&gt;&lt;br&gt;uncharacterized protein&lt;br&gt;Location: 198724 - 200084" locus_tag="Aud_006883" class="clusterblast-orf" id="dummy-2_h2_3_14"  />
</g>
<g id="a2_0015"  >
<polygon points="364,85 369,80 431,80 431,90 369,90 364,85 " style="fill:#1515d8; stroke-width:1; stroke:black; " description="&lt;b&gt;Aud_006884&lt;/b&gt;&lt;br&gt;type I iterative polyketide synthase&lt;br&gt;Location: 200406 - 205928&lt;br&gt;&lt;br&gt;&lt;b&gt;BlastP hit with input.path1.gene92&lt;/b&gt;&lt;br&gt;Percentage identity: 40&lt;br&gt;Percentage coverage: 91&lt;br&gt;BLAST bit score: 1009&lt;br&gt;E-value: 0.0" locus_tag="Aud_006884" class="clusterblast-orf" id="dummy-2_h2_3_15"  />
</g>
<g id="a2_0016"  >
<polygon points="436,90 469,90 474,85 469,80 436,80 436,90 " style="fill:white; stroke-width:1; stroke:black; " description="&lt;b&gt;Aud_006885&lt;/b&gt;&lt;br&gt;uncharacterized protein&lt;br&gt;Location: 206334 - 209391" locus_tag="Aud_006885" class="clusterblast-orf" id="dummy-2_h2_3_16"  />
</g>
<g id="a2_0017"  >
<polygon points="480,85 485,80 507,80 507,90 485,90 480,85 " style="fill:white; stroke-width:1; stroke:black; " description="&lt;b&gt;Aud_006886&lt;/b&gt;&lt;br&gt;uncharacterized protein&lt;br&gt;Location: 209954 - 212102" locus_tag="Aud_006886" class="clusterblast-orf" id="dummy-2_h2_3_17"  />
</g>
<g id="a2_0018"  >
<polygon points="516,85 521,80 533,80 533,90 521,90 516,85 " style="fill:white; stroke-width:1; stroke:black; " description="&lt;b&gt;Aud_006887&lt;/b&gt;&lt;br&gt;uncharacterized protein&lt;br&gt;Location: 212857 - 214303" locus_tag="Aud_006887" class="clusterblast-orf" id="dummy-2_h2_3_18"  />
</g>
<g id="a2_0019"  >
<polygon points="541,90 558,90 563,85 558,80 541,80 541,90 " style="fill:white; stroke-width:1; stroke:black; " description="&lt;b&gt;Aud_006888&lt;/b&gt;&lt;br&gt;uncharacterized protein&lt;br&gt;Location: 214908 - 216758" locus_tag="Aud_006888" class="clusterblast-orf" id="dummy-2_h2_3_19"  />
</g>
<g id="a2_0020"  >
<polygon points="596,90 610,90 615,85 610,80 596,80 596,90 " style="fill:white; stroke-width:1; stroke:black; " description="&lt;b&gt;Aud_006889&lt;/b&gt;&lt;br&gt;uncharacterized protein&lt;br&gt;Location: 219427 - 220959" locus_tag="Aud_006889" class="clusterblast-orf" id="dummy-2_h2_3_20"  />
</g>
<g id="a2_0021"  >
<polygon points="621,85 626,80 639,80 639,90 626,90 621,85 " style="fill:#d815d8; stroke-width:1; stroke:black; " description="&lt;b&gt;Aud_006890&lt;/b&gt;&lt;br&gt;low-affinity Fe(2+) transport protein&lt;br&gt;Location: 221463 - 222959&lt;br&gt;&lt;br&gt;&lt;b&gt;BlastP hit with input.path1.gene93&lt;/b&gt;&lt;br&gt;Percentage identity: 50&lt;br&gt;Percentage coverage: 100&lt;br&gt;BLAST bit score: 486&lt;br&gt;E-value: 1.6e-166" locus_tag="Aud_006890" class="clusterblast-orf" id="dummy-2_h2_3_21"  />
</g>
<g id="a2_0022"  >
<polygon points="668,90 675,90 680,85 675,80 668,80 668,90 " style="fill:white; stroke-width:1; stroke:black; " description="&lt;b&gt;Aud_006891&lt;/b&gt;&lt;br&gt;uncharacterized protein&lt;br&gt;Location: 225305 - 226357" locus_tag="Aud_006891" class="clusterblast-orf" id="dummy-2_h2_3_22"  />
</g>
<g id="a2_0023"  >
<polygon points="681,85 686,80 705,80 705,90 686,90 681,85 " style="fill:white; stroke-width:1; stroke:black; " description="&lt;b&gt;Aud_006892&lt;/b&gt;&lt;br&gt;uncharacterized protein&lt;br&gt;Location: 226390 - 228334" locus_tag="Aud_006892" class="clusterblast-orf" id="dummy-2_h2_3_23"  />
</g>
<g id="a2_0024"  >
<polygon points="711,85 716,80 735,80 735,90 716,90 711,85 " style="fill:white; stroke-width:1; stroke:black; " description="&lt;b&gt;Aud_006893&lt;/b&gt;&lt;br&gt;uncharacterized protein&lt;br&gt;Location: 228891 - 230798" locus_tag="Aud_006893" class="clusterblast-orf" id="dummy-2_h2_3_24"  />
</g>
<g id="a2_0025"  >
<polygon points="745,85 750,80 763,80 763,90 750,90 745,85 " style="fill:white; stroke-width:1; stroke:black; " description="&lt;b&gt;Aud_006894&lt;/b&gt;&lt;br&gt;uncharacterized protein&lt;br&gt;Location: 231656 - 233104" locus_tag="Aud_006894" class="clusterblast-orf" id="dummy-2_h2_3_25"  />
</g>
<g id="a2_0026"  >
<polygon points="768,85 773,80 780,80 780,90 773,90 768,85 " style="fill:white; stroke-width:1; stroke:black; " description="&lt;b&gt;Aud_006895&lt;/b&gt;&lt;br&gt;uncharacterized protein&lt;br&gt;Location: 233504 - 234481" locus_tag="Aud_006895" class="clusterblast-orf" id="dummy-2_h2_3_26"  />
</g>
</svg>
