<svg xmlns="http://www.w3.org/2000/svg" xmlns:xlink="http://www.w3.org/1999/xlink" version="1.1" x="0" y="0" height="230" width="800" viewBox="0 0 800 230" preserveAspectRatio="none"  >
<g label="Query sequence" class="clusterblast-cluster"  >
<text x="5" y="20" class="clusterblast-acc"  >
Query sequence</text>
<line x1="10" y1="35" x2="778.0" y2="35" style="stroke-width:1; stroke:grey; "  />
<polygon points="101,35 106,30 117,30 117,40 106,40 101,35 " style="fill:#d81515; stroke-width:1; stroke:black; " description="&lt;b&gt;input.path1.gene118&lt;/b&gt;&lt;br&gt;input.path1.gene118&lt;br&gt;Location: 396877 - 398659" locus_tag="input.path1.gene118" class="clusterblast-orf" id="dummy-1_q0_0_all"  />
<polygon points="159,35 164,30 170,30 170,40 164,40 159,35 " style="fill:#15d815; stroke-width:1; stroke:black; " description="&lt;b&gt;input.path1.gene119&lt;/b&gt;&lt;br&gt;input.path1.gene119&lt;br&gt;Location: 403464 - 404751" locus_tag="input.path1.gene119" class="clusterblast-orf" id="dummy-1_q1_0_all"  />
<polygon points="182,35 187,30 192,30 192,40 187,40 182,35 " style="fill:#1597d8; stroke-width:1; stroke:black; " description="&lt;b&gt;input.path1.gene120&lt;/b&gt;&lt;br&gt;input.path1.gene120&lt;br&gt;Location: 406164 - 407301" locus_tag="input.path1.gene120" class="clusterblast-orf" id="dummy-1_q2_0_all"  />
<polygon points="204,35 209,30 214,30 214,40 209,40 204,35 " style="fill:#9715d8; stroke-width:1; stroke:black; " description="&lt;b&gt;input.path1.gene121&lt;/b&gt;&lt;br&gt;input.path1.gene121&lt;br&gt;Location: 408707 - 409880" locus_tag="input.path1.gene121" class="clusterblast-orf" id="dummy-1_q3_0_all"  />
<polygon points="225,40 236,40 241,35 236,30 225,30 225,40 " style="fill:#d89715; stroke-width:1; stroke:black; " description="&lt;b&gt;input.path1.gene122&lt;/b&gt;&lt;br&gt;input.path1.gene122&lt;br&gt;Location: 411099 - 412978" locus_tag="input.path1.gene122" class="clusterblast-orf" id="dummy-1_q4_0_all"  />
<polygon points="248,35 253,30 516,30 516,40 253,40 248,35 " style="fill:#15d897; stroke-width:1; stroke:black; " description="&lt;b&gt;input.path1.gene123&lt;/b&gt;&lt;br&gt;input.path1.gene123&lt;br&gt;Location: 413736 - 444713" locus_tag="input.path1.gene123" class="clusterblast-orf" id="dummy-1_q5_0_all"  />
<polygon points="531,40 541,40 546,35 541,30 531,30 531,40 " style="fill:#1515d8; stroke-width:1; stroke:black; " description="&lt;b&gt;input.path1.gene124&lt;/b&gt;&lt;br&gt;input.path1.gene124&lt;br&gt;Location: 446483 - 448192" locus_tag="input.path1.gene124" class="clusterblast-orf" id="dummy-1_q6_0_all"  />
<polygon points="571,35 576,30 579,30 579,40 576,40 571,35 " style="fill:white; stroke-width:1; stroke:black; " description="&lt;b&gt;input.path1.gene125&lt;/b&gt;&lt;br&gt;input.path1.gene125&lt;br&gt;Location: 451080 - 451928" locus_tag="input.path1.gene125" class="clusterblast-orf" id="dummy-1_q7_0_all"  />
<polygon points="580,35 585,30 590,30 590,40 585,40 580,35 " style="fill:white; stroke-width:1; stroke:black; " description="&lt;b&gt;input.path1.gene126&lt;/b&gt;&lt;br&gt;input.path1.gene126&lt;br&gt;Location: 452102 - 453280" locus_tag="input.path1.gene126" class="clusterblast-orf" id="dummy-1_q8_0_all"  />
<polygon points="593,35 594,30 594,40 593,35 " style="fill:white; stroke-width:1; stroke:black; " description="&lt;b&gt;input.path1.gene127&lt;/b&gt;&lt;br&gt;input.path1.gene127&lt;br&gt;Location: 453597 - 453763" locus_tag="input.path1.gene127" class="clusterblast-orf" id="dummy-1_q9_0_all"  />
<polygon points="609,35 614,30 618,30 618,40 614,40 609,35 " style="fill:#d81597; stroke-width:1; stroke:black; " description="&lt;b&gt;input.path1.gene128&lt;/b&gt;&lt;br&gt;input.path1.gene128&lt;br&gt;Location: 455445 - 456422" locus_tag="input.path1.gene128" class="clusterblast-orf" id="dummy-1_q10_0_all"  />
<polygon points="634,35 639,30 643,30 643,40 639,40 634,35 " style="fill:#97d815; stroke-width:1; stroke:black; " description="&lt;b&gt;input.path1.gene129&lt;/b&gt;&lt;br&gt;input.path1.gene129&lt;br&gt;Location: 458269 - 459325" locus_tag="input.path1.gene129" class="clusterblast-orf" id="dummy-1_q11_0_all"  />
<polygon points="675,40 678,35 675,30 675,40 " style="fill:white; stroke-width:1; stroke:black; " description="&lt;b&gt;input.path1.gene130&lt;/b&gt;&lt;br&gt;input.path1.gene130&lt;br&gt;Location: 462998 - 463368" locus_tag="input.path1.gene130" class="clusterblast-orf" id="dummy-1_q12_0_all"  />
</g>
<g label="NW_014574707" description="NW_014574707 (383137-474713): Metarhizium brunneum ARSEF 3297 chromosome Unkn... (56% of genes show similarity), NRPS" class="clusterblast-cluster"  >
<text x="5" y="70" class="clusterblast-acc"  >
<a xlink:href="https://antismash-db.secondarymetabolites.org/area?record=NW_014574707&amp;start=383137&amp;end=474713" target="_blank">NW_014574707 (383137-474713)</a>: Metarhizium brunneum ARSEF 3297 chromosome Unkn... (56% of genes show similarity), NRPS</text>
<line x1="10" y1="85" x2="778.0" y2="85" style="stroke-width:1; stroke:grey; "  />
</g>
<g id="a1_000"  >
<polygon points="0,90 3,90 8,85 3,80 0,80 0,90 " style="fill:white; stroke-width:1; stroke:black; " description="&lt;b&gt;MBR_06992&lt;/b&gt;&lt;br&gt;hypothetical protein&lt;br&gt;Location: 383898 - 384857" locus_tag="MBR_06992" class="clusterblast-orf" id="dummy-1_h1_1_0"  />
</g>
<g id="a1_001"  >
<polygon points="19,85 24,80 33,80 33,90 24,90 19,85 " style="fill:white; stroke-width:1; stroke:black; " description="&lt;b&gt;MBR_06993&lt;/b&gt;&lt;br&gt;hypothetical protein&lt;br&gt;Location: 386133 - 387794" locus_tag="MBR_06993" class="clusterblast-orf" id="dummy-1_h1_1_1"  />
</g>
<g id="a1_002"  >
<polygon points="112,85 117,80 139,80 139,90 117,90 112,85 " style="fill:#d81515; stroke-width:1; stroke:black; " description="&lt;b&gt;MBR_06994&lt;/b&gt;&lt;br&gt;hypothetical protein&lt;br&gt;Location: 396878 - 399967&lt;br&gt;&lt;br&gt;&lt;b&gt;BlastP hit with input.path1.gene118&lt;/b&gt;&lt;br&gt;Percentage identity: 100&lt;br&gt;Percentage coverage: 100&lt;br&gt;BLAST bit score: 1173&lt;br&gt;E-value: 0.0" locus_tag="MBR_06994" class="clusterblast-orf" id="dummy-1_h1_1_2"  />
</g>
<g id="a1_003"  >
<polygon points="169,85 174,80 180,80 180,90 174,90 169,85 " style="fill:#15d815; stroke-width:1; stroke:black; " description="&lt;b&gt;MBR_06995&lt;/b&gt;&lt;br&gt;DUF914 domain membrane protein&lt;br&gt;Location: 403465 - 404781&lt;br&gt;&lt;br&gt;&lt;b&gt;BlastP hit with input.path1.gene119&lt;/b&gt;&lt;br&gt;Percentage identity: 91&lt;br&gt;Percentage coverage: 109&lt;br&gt;BLAST bit score: 745&lt;br&gt;E-value: 6.15e-272" locus_tag="MBR_06995" class="clusterblast-orf" id="dummy-1_h1_1_3"  />
</g>
<g id="a1_004"  >
<polygon points="192,85 196,80 196,90 192,85 " style="fill:#1597d8; stroke-width:1; stroke:black; " description="&lt;b&gt;MBR_06996&lt;/b&gt;&lt;br&gt;hypothetical protein&lt;br&gt;Location: 406165 - 406622&lt;br&gt;&lt;br&gt;&lt;b&gt;BlastP hit with input.path1.gene120&lt;/b&gt;&lt;br&gt;Percentage identity: 100&lt;br&gt;Percentage coverage: 74&lt;br&gt;BLAST bit score: 175&lt;br&gt;E-value: 1.97e-56" locus_tag="MBR_06996" class="clusterblast-orf" id="dummy-1_h1_1_4"  />
</g>
<g id="a1_005"  >
<polygon points="213,85 218,80 226,80 226,90 218,90 213,85 " style="fill:#9715d8; stroke-width:1; stroke:black; " description="&lt;b&gt;MBR_06997&lt;/b&gt;&lt;br&gt;Major facilitator superfamily transporter&lt;br&gt;Location: 408514 - 410003&lt;br&gt;&lt;br&gt;&lt;b&gt;BlastP hit with input.path1.gene121&lt;/b&gt;&lt;br&gt;Percentage identity: 100&lt;br&gt;Percentage coverage: 100&lt;br&gt;BLAST bit score: 795&lt;br&gt;E-value: 7.14e-291" locus_tag="MBR_06997" class="clusterblast-orf" id="dummy-1_h1_1_5"  />
</g>
<g id="a1_006"  >
<polygon points="235,90 247,90 252,85 247,80 235,80 235,90 " style="fill:#d89715; stroke-width:1; stroke:black; " description="&lt;b&gt;MBR_06998&lt;/b&gt;&lt;br&gt;Ser/Thr protein phosphatase family&lt;br&gt;Location: 411100 - 412978&lt;br&gt;&lt;br&gt;&lt;b&gt;BlastP hit with input.path1.gene122&lt;/b&gt;&lt;br&gt;Percentage identity: 99&lt;br&gt;Percentage coverage: 100&lt;br&gt;BLAST bit score: 1246&lt;br&gt;E-value: 0.0" locus_tag="MBR_06998" class="clusterblast-orf" id="dummy-1_h1_1_6"  />
</g>
<g id="a1_007"  >
<polygon points="253,85 258,80 527,80 527,90 258,90 253,85 " style="fill:#15d897; stroke-width:1; stroke:black; " description="&lt;b&gt;MBR_06999&lt;/b&gt;&lt;br&gt;nonribosomal peptide synthase&lt;br&gt;Location: 413138 - 444713&lt;br&gt;&lt;br&gt;&lt;b&gt;BlastP hit with input.path1.gene123&lt;/b&gt;&lt;br&gt;Percentage identity: 98&lt;br&gt;Percentage coverage: 101&lt;br&gt;BLAST bit score: 19964&lt;br&gt;E-value: 0.0" locus_tag="MBR_06999" class="clusterblast-orf" id="dummy-1_h1_1_7"  />
</g>
<g id="a1_008"  >
<polygon points="542,90 551,90 556,85 551,80 542,80 542,90 " style="fill:#1515d8; stroke-width:1; stroke:black; " description="&lt;b&gt;MBR_07000&lt;/b&gt;&lt;br&gt;Cytochrome P450 family protein&lt;br&gt;Location: 446484 - 448140&lt;br&gt;&lt;br&gt;&lt;b&gt;BlastP hit with input.path1.gene124&lt;/b&gt;&lt;br&gt;Percentage identity: 100&lt;br&gt;Percentage coverage: 98&lt;br&gt;BLAST bit score: 1063&lt;br&gt;E-value: 0.0" locus_tag="MBR_07000" class="clusterblast-orf" id="dummy-1_h1_1_8"  />
</g>
<g id="a1_009"  >
<polygon points="565,90 605,90 610,85 605,80 565,80 565,90 " style="fill:white; stroke-width:1; stroke:black; " description="&lt;b&gt;MBR_07001&lt;/b&gt;&lt;br&gt;ABC transporter&lt;br&gt;Location: 449115 - 454372" locus_tag="MBR_07001" class="clusterblast-orf" id="dummy-1_h1_1_9"  />
</g>
<g id="a1_0010"  >
<polygon points="620,85 625,80 627,80 627,90 625,90 620,85 " style="fill:#d81597; stroke-width:1; stroke:black; " description="&lt;b&gt;MBR_07002&lt;/b&gt;&lt;br&gt;amino acid transporter arg-13&lt;br&gt;Location: 455446 - 456321&lt;br&gt;&lt;br&gt;&lt;b&gt;BlastP hit with input.path1.gene128&lt;/b&gt;&lt;br&gt;Percentage identity: 100&lt;br&gt;Percentage coverage: 90&lt;br&gt;BLAST bit score: 582&lt;br&gt;E-value: 6.8e-211" locus_tag="MBR_07002" class="clusterblast-orf" id="dummy-1_h1_1_10"  />
</g>
<g id="a1_0011"  >
<polygon points="644,85 649,80 653,80 653,90 649,90 644,85 " style="fill:#97d815; stroke-width:1; stroke:black; " description="&lt;b&gt;MBR_07003&lt;/b&gt;&lt;br&gt;lysine amidinotransferase&lt;br&gt;Location: 458270 - 459325&lt;br&gt;&lt;br&gt;&lt;b&gt;BlastP hit with input.path1.gene129&lt;/b&gt;&lt;br&gt;Percentage identity: 100&lt;br&gt;Percentage coverage: 100&lt;br&gt;BLAST bit score: 724&lt;br&gt;E-value: 1.12e-265" locus_tag="MBR_07003" class="clusterblast-orf" id="dummy-1_h1_1_11"  />
</g>
<g id="a1_0012"  >
<polygon points="681,85 686,80 691,80 691,90 686,90 681,85 " style="fill:white; stroke-width:1; stroke:black; " description="&lt;b&gt;MBR_07004&lt;/b&gt;&lt;br&gt;aspartic peptidase A1&lt;br&gt;Location: 462490 - 463637" locus_tag="MBR_07004" class="clusterblast-orf" id="dummy-1_h1_1_12"  />
</g>
<g id="a1_0013"  >
<polygon points="705,85 710,80 728,80 728,90 710,90 705,85 " style="fill:white; stroke-width:1; stroke:black; " description="&lt;b&gt;MBR_07005&lt;/b&gt;&lt;br&gt;hypothetical protein&lt;br&gt;Location: 465347 - 467932" locus_tag="MBR_07005" class="clusterblast-orf" id="dummy-1_h1_1_13"  />
</g>
<g id="a1_0014"  >
<polygon points="742,85 747,80 753,80 753,90 747,90 742,85 " style="fill:white; stroke-width:1; stroke:black; " description="&lt;b&gt;MBR_07006&lt;/b&gt;&lt;br&gt;Nucleotide sugar dehydrogenase&lt;br&gt;Location: 469614 - 470891" locus_tag="MBR_07006" class="clusterblast-orf" id="dummy-1_h1_1_14"  />
</g>
<g id="a1_0015"  >
<polygon points="762,90 775,90 780,85 775,80 762,80 762,90 " style="fill:white; stroke-width:1; stroke:black; " description="&lt;b&gt;MBR_07007&lt;/b&gt;&lt;br&gt;glycosyl transferase, group 2 family protein&lt;br&gt;Location: 471925 - 473898" locus_tag="MBR_07007" class="clusterblast-orf" id="dummy-1_h1_1_15"  />
</g>
</svg>
