<svg xmlns="http://www.w3.org/2000/svg" xmlns:xlink="http://www.w3.org/1999/xlink" version="1.1" x="0" y="0" height="230" width="800" viewBox="0 0 800 230" preserveAspectRatio="none"  >
<g label="Query sequence" class="clusterblast-cluster"  >
<text x="5" y="20" class="clusterblast-acc"  >
Query sequence</text>
<line x1="10" y1="35" x2="778.0" y2="35" style="stroke-width:1; stroke:grey; "  />
<polygon points="0,35 5,30 45,30 45,40 5,40 0,35 " style="fill:white; stroke-width:1; stroke:black; " description="&lt;b&gt;input.path1.gene18&lt;/b&gt;&lt;br&gt;input.path1.gene18&lt;br&gt;Location: 81636 - 82947" locus_tag="input.path1.gene18" class="clusterblast-orf" id="dummy-1_q0_0_all"  />
<polygon points="249,40 265,40 270,35 265,30 249,30 249,40 " style="fill:white; stroke-width:1; stroke:black; " description="&lt;b&gt;input.path1.gene19&lt;/b&gt;&lt;br&gt;input.path1.gene19&lt;br&gt;Location: 88884 - 89512" locus_tag="input.path1.gene19" class="clusterblast-orf" id="dummy-1_q1_0_all"  />
<polygon points="304,35 309,30 362,30 362,40 309,40 304,35 " style="fill:#d81515; stroke-width:1; stroke:black; " description="&lt;b&gt;input.path1.gene20&lt;/b&gt;&lt;br&gt;input.path1.gene20&lt;br&gt;Location: 90481 - 92172" locus_tag="input.path1.gene20" class="clusterblast-orf" id="dummy-1_q2_0_all"  />
<polygon points="452,35 457,30 580,30 580,40 457,40 452,35 " style="fill:white; stroke-width:1; stroke:black; " description="&lt;b&gt;input.path1.gene21&lt;/b&gt;&lt;br&gt;input.path1.gene21&lt;br&gt;Location: 94793 - 98534" locus_tag="input.path1.gene21" class="clusterblast-orf" id="dummy-1_q3_0_all"  />
<polygon points="590,40 610,40 615,35 610,30 590,30 590,40 " style="fill:white; stroke-width:1; stroke:black; " description="&lt;b&gt;input.path1.gene22&lt;/b&gt;&lt;br&gt;input.path1.gene22&lt;br&gt;Location: 98815 - 99539" locus_tag="input.path1.gene22" class="clusterblast-orf" id="dummy-1_q4_0_all"  />
<polygon points="718,40 775,40 780,35 775,30 718,30 718,40 " style="fill:#15d8d8; stroke-width:1; stroke:black; " description="&lt;b&gt;input.path1.gene23&lt;/b&gt;&lt;br&gt;input.path1.gene23&lt;br&gt;Location: 102550 - 104352" locus_tag="input.path1.gene23" class="clusterblast-orf" id="dummy-1_q5_0_all"  />
</g>
<g label="BGC0001135" description="BGC0001135_c1: bicornutin A1/bicornutin A2 (100% of genes show similarity), NRP" class="clusterblast-cluster"  >
<text x="5" y="70" class="clusterblast-acc"  >
<a xlink:href="https://mibig.secondarymetabolites.org/go/BGC0001135/1" target="_blank">BGC0001135</a>: bicornutin A1/bicornutin A2                                                      (100% of genes show similarity), NRP</text>
<line x1="10" y1="85" x2="778.0" y2="85" style="stroke-width:1; stroke:grey; "  />
</g>
<g id="a1_000"  >
<polygon points="100,85 105,80 679,80 679,90 105,90 100,85 " style="fill:#d81515; stroke-width:1; stroke:black; " description="&lt;b&gt;AFP87549.1&lt;/b&gt;&lt;br&gt;NrpS&lt;br&gt;Location: 16848 - 1&lt;br&gt;&lt;br&gt;&lt;b&gt;BlastP hit with input.path1.gene20&lt;/b&gt;&lt;br&gt;Percentage identity: 47&lt;br&gt;Percentage coverage: 43&lt;br&gt;BLAST bit score: 74&lt;br&gt;E-value: 7.6e-15" locus_tag="AFP87549.1" class="clusterblast-orf" id="dummy-1_h1_6_0"  />
</g>
</svg>
