<svg xmlns="http://www.w3.org/2000/svg" xmlns:xlink="http://www.w3.org/1999/xlink" version="1.1" x="0" y="0" height="230" width="800" viewBox="0 0 800 230" preserveAspectRatio="none"  >
<g label="Query sequence" class="clusterblast-cluster"  >
<text x="5" y="20" class="clusterblast-acc"  >
Query sequence</text>
<line x1="10" y1="35" x2="778.0" y2="35" style="stroke-width:1; stroke:grey; "  />
<polygon points="242,40 295,40 300,35 295,30 242,30 242,40 " style="fill:#d81515; stroke-width:1; stroke:black; " description="&lt;b&gt;input.path1.gene1&lt;/b&gt;&lt;br&gt;input.path1.gene1&lt;br&gt;Location: 142 - 4642" locus_tag="input.path1.gene1" class="clusterblast-orf" id="dummy-1_q0_0_all"  />
<polygon points="310,40 322,40 327,35 322,30 310,30 310,40 " style="fill:white; stroke-width:1; stroke:black; " description="&lt;b&gt;input.path1.gene2&lt;/b&gt;&lt;br&gt;input.path1.gene2&lt;br&gt;Location: 5411 - 6755" locus_tag="input.path1.gene2" class="clusterblast-orf" id="dummy-1_q1_0_all"  />
<polygon points="337,40 339,40 344,35 339,30 337,30 337,40 " style="fill:white; stroke-width:1; stroke:black; " description="&lt;b&gt;input.path1.gene3&lt;/b&gt;&lt;br&gt;input.path1.gene3&lt;br&gt;Location: 7546 - 8106" locus_tag="input.path1.gene3" class="clusterblast-orf" id="dummy-1_q2_0_all"  />
<polygon points="344,35 349,30 350,30 350,40 349,40 344,35 " style="fill:#15d815; stroke-width:1; stroke:black; " description="&lt;b&gt;input.path1.gene4&lt;/b&gt;&lt;br&gt;input.path1.gene4&lt;br&gt;Location: 8102 - 8560" locus_tag="input.path1.gene4" class="clusterblast-orf" id="dummy-1_q3_0_all"  />
<polygon points="368,40 371,40 376,35 371,30 368,30 368,40 " style="fill:white; stroke-width:1; stroke:black; " description="&lt;b&gt;input.path1.gene5&lt;/b&gt;&lt;br&gt;input.path1.gene5&lt;br&gt;Location: 9948 - 10596" locus_tag="input.path1.gene5" class="clusterblast-orf" id="dummy-1_q4_0_all"  />
<polygon points="376,35 381,30 397,30 397,40 381,40 376,35 " style="fill:#1515d8; stroke-width:1; stroke:black; " description="&lt;b&gt;input.path1.gene6&lt;/b&gt;&lt;br&gt;input.path1.gene6&lt;br&gt;Location: 10634 - 12280" locus_tag="input.path1.gene6" class="clusterblast-orf" id="dummy-1_q5_0_all"  />
<polygon points="403,40 429,40 434,35 429,30 403,30 403,40 " style="fill:#d815d8; stroke-width:1; stroke:black; " description="&lt;b&gt;input.path1.gene7&lt;/b&gt;&lt;br&gt;input.path1.gene7&lt;br&gt;Location: 12763 - 15166" locus_tag="input.path1.gene7" class="clusterblast-orf" id="dummy-1_q6_0_all"  />
<polygon points="449,40 451,35 449,30 449,40 " style="fill:white; stroke-width:1; stroke:black; " description="&lt;b&gt;input.path1.gene8&lt;/b&gt;&lt;br&gt;input.path1.gene8&lt;br&gt;Location: 16337 - 16476" locus_tag="input.path1.gene8" class="clusterblast-orf" id="dummy-1_q7_0_all"  />
<polygon points="463,40 488,40 493,35 488,30 463,30 463,40 " style="fill:#d8d815; stroke-width:1; stroke:black; " description="&lt;b&gt;input.path1.gene9&lt;/b&gt;&lt;br&gt;input.path1.gene9&lt;br&gt;Location: 17401 - 19810" locus_tag="input.path1.gene9" class="clusterblast-orf" id="dummy-1_q8_0_all"  />
<polygon points="509,35 514,30 537,30 537,40 514,40 509,35 " style="fill:#15d8d8; stroke-width:1; stroke:black; " description="&lt;b&gt;input.path1.gene10&lt;/b&gt;&lt;br&gt;input.path1.gene10&lt;br&gt;Location: 21041 - 23214" locus_tag="input.path1.gene10" class="clusterblast-orf" id="dummy-1_q9_0_all"  />
</g>
<g label="NW_020291592" description="NW_020291592 (537171-603735): Aspergillus piperis CBS 112811 unplaced genomic... (8% of genes show similarity), NRPS" class="clusterblast-cluster"  >
<text x="5" y="70" class="clusterblast-acc"  >
<a xlink:href="https://antismash-db.secondarymetabolites.org/area?record=NW_020291592&amp;start=537171&amp;end=603735" target="_blank">NW_020291592 (537171-603735)</a>: Aspergillus piperis CBS 112811 unplaced genomic... (8% of genes show similarity), NRPS</text>
<line x1="10" y1="85" x2="778.0" y2="85" style="stroke-width:1; stroke:grey; "  />
</g>
<g id="a1_000"  >
<polygon points="0,90 19,90 24,85 19,80 0,80 0,90 " style="fill:white; stroke-width:1; stroke:black; " description="&lt;b&gt;BO85DRAFT_501110&lt;/b&gt;&lt;br&gt;fatty-acid amide hydrolase&lt;br&gt;Location: 537944 - 539835" locus_tag="BO85DRAFT_501110" class="clusterblast-orf" id="dummy-1_h1_9_0"  />
</g>
<g id="a1_001"  >
<polygon points="26,85 31,80 42,80 42,90 31,90 26,85 " style="fill:white; stroke-width:1; stroke:black; " description="&lt;b&gt;BO85DRAFT_434348&lt;/b&gt;&lt;br&gt;hypothetical protein&lt;br&gt;Location: 540039 - 541301" locus_tag="BO85DRAFT_434348" class="clusterblast-orf" id="dummy-1_h1_9_1"  />
</g>
<g id="a1_002"  >
<polygon points="54,85 59,80 78,80 78,90 59,90 54,85 " style="fill:#1515d8; stroke-width:1; stroke:black; " description="&lt;b&gt;BO85DRAFT_361923&lt;/b&gt;&lt;br&gt;MFS general substrate transporter&lt;br&gt;Location: 542224 - 544104&lt;br&gt;&lt;br&gt;&lt;b&gt;BlastP hit with input.path1.gene6&lt;/b&gt;&lt;br&gt;Percentage identity: 41&lt;br&gt;Percentage coverage: 69&lt;br&gt;BLAST bit score: 231&lt;br&gt;E-value: 2.09e-68" locus_tag="BO85DRAFT_361923" class="clusterblast-orf" id="dummy-1_h1_9_2"  />
</g>
<g id="a1_003"  >
<polygon points="97,90 122,90 127,85 122,80 97,80 97,90 " style="fill:white; stroke-width:1; stroke:black; " description="&lt;b&gt;BO85DRAFT_412269&lt;/b&gt;&lt;br&gt;C6 transcription factor&lt;br&gt;Location: 545564 - 547908" locus_tag="BO85DRAFT_412269" class="clusterblast-orf" id="dummy-1_h1_9_3"  />
</g>
<g id="a1_004"  >
<polygon points="131,85 136,80 143,80 143,90 136,90 131,85 " style="fill:white; stroke-width:1; stroke:black; " description="&lt;b&gt;BO85DRAFT_445109&lt;/b&gt;&lt;br&gt;thiosulfate sulfurtransferase&lt;br&gt;Location: 548210 - 549198" locus_tag="BO85DRAFT_445109" class="clusterblast-orf" id="dummy-1_h1_9_4"  />
</g>
<g id="a1_005"  >
<polygon points="164,90 177,90 182,85 177,80 164,80 164,90 " style="fill:white; stroke-width:1; stroke:black; " description="&lt;b&gt;BO85DRAFT_445112&lt;/b&gt;&lt;br&gt;histidine acid phosphatase&lt;br&gt;Location: 550867 - 552249" locus_tag="BO85DRAFT_445112" class="clusterblast-orf" id="dummy-1_h1_9_5"  />
</g>
<g id="a1_006"  >
<polygon points="194,85 199,80 220,80 220,90 199,90 194,85 " style="fill:white; stroke-width:1; stroke:black; " description="&lt;b&gt;BO85DRAFT_465619&lt;/b&gt;&lt;br&gt;MFS transporter&lt;br&gt;Location: 553196 - 555223" locus_tag="BO85DRAFT_465619" class="clusterblast-orf" id="dummy-1_h1_9_6"  />
</g>
<g id="a1_007"  >
<polygon points="228,85 233,80 239,80 239,90 233,90 228,85 " style="fill:white; stroke-width:1; stroke:black; " description="&lt;b&gt;BO85DRAFT_412279&lt;/b&gt;&lt;br&gt;alpha/beta-hydrolase&lt;br&gt;Location: 555873 - 556733" locus_tag="BO85DRAFT_412279" class="clusterblast-orf" id="dummy-1_h1_9_7"  />
</g>
<g id="a1_008"  >
<polygon points="253,90 270,90 275,85 270,80 253,80 253,90 " style="fill:white; stroke-width:1; stroke:black; " description="&lt;b&gt;BO85DRAFT_465621&lt;/b&gt;&lt;br&gt;kinase-like protein&lt;br&gt;Location: 557775 - 559555" locus_tag="BO85DRAFT_465621" class="clusterblast-orf" id="dummy-1_h1_9_8"  />
</g>
<g id="a1_009"  >
<polygon points="279,90 303,90 308,85 303,80 279,80 279,90 " style="fill:white; stroke-width:1; stroke:black; " description="&lt;b&gt;BO85DRAFT_412286&lt;/b&gt;&lt;br&gt;Zn(II)2Cys6 transcription factor&lt;br&gt;Location: 559857 - 562132" locus_tag="BO85DRAFT_412286" class="clusterblast-orf" id="dummy-1_h1_9_9"  />
</g>
<g id="a1_0010"  >
<polygon points="314,85 319,80 333,80 333,90 319,90 314,85 " style="fill:white; stroke-width:1; stroke:black; " description="&lt;b&gt;BO85DRAFT_388641&lt;/b&gt;&lt;br&gt;O-methyltransferase&lt;br&gt;Location: 562602 - 564110" locus_tag="BO85DRAFT_388641" class="clusterblast-orf" id="dummy-1_h1_9_10"  />
</g>
<g id="a1_0011"  >
<polygon points="342,85 347,80 361,80 361,90 347,90 342,85 " style="fill:white; stroke-width:1; stroke:black; " description="&lt;b&gt;BO85DRAFT_388645&lt;/b&gt;&lt;br&gt;FAD-binding domain-containing protein&lt;br&gt;Location: 564758 - 566258" locus_tag="BO85DRAFT_388645" class="clusterblast-orf" id="dummy-1_h1_9_11"  />
</g>
<g id="a1_0012"  >
<polygon points="373,90 451,90 456,85 451,80 373,80 373,90 " style="fill:#d81515; stroke-width:1; stroke:black; " description="&lt;b&gt;BO85DRAFT_501132&lt;/b&gt;&lt;br&gt;non-ribosomal peptide synthetase&lt;br&gt;Location: 567172 - 573735&lt;br&gt;&lt;br&gt;&lt;b&gt;BlastP hit with input.path1.gene1&lt;/b&gt;&lt;br&gt;Percentage identity: 33&lt;br&gt;Percentage coverage: 102&lt;br&gt;BLAST bit score: 702&lt;br&gt;E-value: 2.48e-218" locus_tag="BO85DRAFT_501132" class="clusterblast-orf" id="dummy-1_h1_9_12"  />
</g>
<g id="a1_0013"  >
<polygon points="462,85 467,80 498,80 498,90 467,90 462,85 " style="fill:white; stroke-width:1; stroke:black; " description="&lt;b&gt;BO85DRAFT_388647&lt;/b&gt;&lt;br&gt;purine and uridine phosphorylase&lt;br&gt;Location: 574151 - 576983" locus_tag="BO85DRAFT_388647" class="clusterblast-orf" id="dummy-1_h1_9_13"  />
</g>
<g id="a1_0014"  >
<polygon points="509,90 526,90 531,85 526,80 509,80 509,90 " style="fill:white; stroke-width:1; stroke:black; " description="&lt;b&gt;BO85DRAFT_114550&lt;/b&gt;&lt;br&gt;hypothetical protein&lt;br&gt;Location: 577887 - 579614" locus_tag="BO85DRAFT_114550" class="clusterblast-orf" id="dummy-1_h1_9_14"  />
</g>
<g id="a1_0015"  >
<polygon points="538,90 540,90 545,85 540,80 538,80 538,90 " style="fill:white; stroke-width:1; stroke:black; " description="&lt;b&gt;BO85DRAFT_434363&lt;/b&gt;&lt;br&gt;hypothetical protein&lt;br&gt;Location: 580110 - 580668" locus_tag="BO85DRAFT_434363" class="clusterblast-orf" id="dummy-1_h1_9_15"  />
</g>
<g id="a1_0016"  >
<polygon points="547,85 552,80 556,80 556,90 552,90 547,85 " style="fill:white; stroke-width:1; stroke:black; " description="&lt;b&gt;BO85DRAFT_483720&lt;/b&gt;&lt;br&gt;hypothetical protein&lt;br&gt;Location: 580880 - 581559" locus_tag="BO85DRAFT_483720" class="clusterblast-orf" id="dummy-1_h1_9_16"  />
</g>
<g id="a1_0017"  >
<polygon points="569,90 574,90 579,85 574,80 569,80 569,90 " style="fill:white; stroke-width:1; stroke:black; " description="&lt;b&gt;BO85DRAFT_434365&lt;/b&gt;&lt;br&gt;hypothetical protein&lt;br&gt;Location: 582605 - 583375" locus_tag="BO85DRAFT_434365" class="clusterblast-orf" id="dummy-1_h1_9_17"  />
</g>
<g id="a1_0018"  >
<polygon points="588,90 599,90 604,85 599,80 588,80 588,90 " style="fill:white; stroke-width:1; stroke:black; " description="&lt;b&gt;BO85DRAFT_363983&lt;/b&gt;&lt;br&gt;GroES-like protein&lt;br&gt;Location: 584022 - 585273" locus_tag="BO85DRAFT_363983" class="clusterblast-orf" id="dummy-1_h1_9_18"  />
</g>
<g id="a1_0019"  >
<polygon points="632,85 637,80 675,80 675,90 637,90 632,85 " style="fill:white; stroke-width:1; stroke:black; " description="&lt;b&gt;BO85DRAFT_455836&lt;/b&gt;&lt;br&gt;hypothetical protein&lt;br&gt;Location: 587532 - 590846" locus_tag="BO85DRAFT_455836" class="clusterblast-orf" id="dummy-1_h1_9_19"  />
</g>
<g id="a1_0020"  >
<polygon points="677,85 682,80 694,80 694,90 682,90 677,85 " style="fill:white; stroke-width:1; stroke:black; " description="&lt;b&gt;BO85DRAFT_501147&lt;/b&gt;&lt;br&gt;C6 transcription factor&lt;br&gt;Location: 591054 - 592336" locus_tag="BO85DRAFT_501147" class="clusterblast-orf" id="dummy-1_h1_9_20"  />
</g>
<g id="a1_0021"  >
<polygon points="703,90 710,90 715,85 710,80 703,80 703,90 " style="fill:white; stroke-width:1; stroke:black; " description="&lt;b&gt;BO85DRAFT_501149&lt;/b&gt;&lt;br&gt;RTA1 domain protein&lt;br&gt;Location: 593079 - 594041" locus_tag="BO85DRAFT_501149" class="clusterblast-orf" id="dummy-1_h1_9_21"  />
</g>
<g id="a1_0022"  >
<polygon points="741,85 746,80 761,80 761,90 746,90 741,85 " style="fill:white; stroke-width:1; stroke:black; " description="&lt;b&gt;BO85DRAFT_362143&lt;/b&gt;&lt;br&gt;methyltransferase&lt;br&gt;Location: 596019 - 597607" locus_tag="BO85DRAFT_362143" class="clusterblast-orf" id="dummy-1_h1_9_22"  />
</g>
<g id="a1_0023"  >
<polygon points="777,85 780,80 780,90 777,85 " style="fill:white; stroke-width:1; stroke:black; " description="&lt;b&gt;BO85DRAFT_445126&lt;/b&gt;&lt;br&gt;hypothetical protein&lt;br&gt;Location: 598843 - 599061" locus_tag="BO85DRAFT_445126" class="clusterblast-orf" id="dummy-1_h1_9_23"  />
</g>
</svg>
