<svg xmlns="http://www.w3.org/2000/svg" xmlns:xlink="http://www.w3.org/1999/xlink" version="1.1" x="0" y="0" height="230" width="800" viewBox="0 0 800 230" preserveAspectRatio="none"  >
<g label="Query sequence" class="clusterblast-cluster"  >
<text x="5" y="20" class="clusterblast-acc"  >
Query sequence</text>
<line x1="10" y1="35" x2="778.0" y2="35" style="stroke-width:1; stroke:grey; "  />
<polygon points="131,35 136,30 154,30 154,40 136,40 131,35 " style="fill:white; stroke-width:1; stroke:black; " description="&lt;b&gt;input.path1.gene110&lt;/b&gt;&lt;br&gt;input.path1.gene110&lt;br&gt;Location: 370449 - 371110" locus_tag="input.path1.gene110" class="clusterblast-orf" id="dummy-2_q0_0_all"  />
<polygon points="183,40 256,40 261,35 256,30 183,30 183,40 " style="fill:#d81515; stroke-width:1; stroke:black; " description="&lt;b&gt;input.path1.gene111&lt;/b&gt;&lt;br&gt;input.path1.gene111&lt;br&gt;Location: 371968 - 374211" locus_tag="input.path1.gene111" class="clusterblast-orf" id="dummy-2_q1_0_all"  />
<polygon points="268,35 273,30 303,30 303,40 273,40 268,35 " style="fill:#15d863; stroke-width:1; stroke:black; " description="&lt;b&gt;input.path1.gene112&lt;/b&gt;&lt;br&gt;input.path1.gene112&lt;br&gt;Location: 374417 - 375424" locus_tag="input.path1.gene112" class="clusterblast-orf" id="dummy-2_q2_0_all"  />
<polygon points="423,40 438,40 443,35 438,30 423,30 423,40 " style="fill:white; stroke-width:1; stroke:black; " description="&lt;b&gt;input.path1.gene113&lt;/b&gt;&lt;br&gt;input.path1.gene113&lt;br&gt;Location: 378922 - 379494" locus_tag="input.path1.gene113" class="clusterblast-orf" id="dummy-2_q3_0_all"  />
<polygon points="473,40 512,40 517,35 512,30 473,30 473,40 " style="fill:#1563d8; stroke-width:1; stroke:black; " description="&lt;b&gt;input.path1.gene114&lt;/b&gt;&lt;br&gt;input.path1.gene114&lt;br&gt;Location: 380372 - 381635" locus_tag="input.path1.gene114" class="clusterblast-orf" id="dummy-2_q4_0_all"  />
<polygon points="521,35 526,30 575,30 575,40 526,40 521,35 " style="fill:#b115d8; stroke-width:1; stroke:black; " description="&lt;b&gt;input.path1.gene115&lt;/b&gt;&lt;br&gt;input.path1.gene115&lt;br&gt;Location: 381764 - 383322" locus_tag="input.path1.gene115" class="clusterblast-orf" id="dummy-2_q5_0_all"  />
<polygon points="601,40 644,40 649,35 644,30 601,30 601,40 " style="fill:#b1d815; stroke-width:1; stroke:black; " description="&lt;b&gt;input.path1.gene116&lt;/b&gt;&lt;br&gt;input.path1.gene116&lt;br&gt;Location: 384072 - 385460" locus_tag="input.path1.gene116" class="clusterblast-orf" id="dummy-2_q6_0_all"  />
</g>
<g label="NC_070533" description="NC_070533 (2808830-2840090): Fusarium keratoplasticum isolate Fu6.1 chromosom... (50% of genes show similarity), terpene" class="clusterblast-cluster"  >
<text x="5" y="70" class="clusterblast-acc"  >
<a xlink:href="https://antismash-db.secondarymetabolites.org/area?record=NC_070533&amp;start=2808830&amp;end=2840090" target="_blank">NC_070533 (2808830-2840090)</a>: Fusarium keratoplasticum isolate Fu6.1 chromosom... (50% of genes show similarity), terpene</text>
<line x1="10" y1="85" x2="778.0" y2="85" style="stroke-width:1; stroke:grey; "  />
</g>
<g id="a2_000"  >
<polygon points="0,85 5,80 31,80 31,90 5,90 0,85 " style="fill:white; stroke-width:1; stroke:black; " description="&lt;b&gt;NCS57_00749900&lt;/b&gt;&lt;br&gt;hypothetical protein&lt;br&gt;Location: 2811599 - 2812498" locus_tag="NCS57_00749900" class="clusterblast-orf" id="dummy-2_h2_2_0"  />
</g>
<g id="a2_001"  >
<polygon points="111,90 191,90 196,85 191,80 111,80 111,90 " style="fill:white; stroke-width:1; stroke:black; " description="&lt;b&gt;NCS57_00750000&lt;/b&gt;&lt;br&gt;hypothetical protein&lt;br&gt;Location: 2814823 - 2817297" locus_tag="NCS57_00750000" class="clusterblast-orf" id="dummy-2_h2_2_1"  />
</g>
<g id="a2_002"  >
<polygon points="219,90 229,90 234,85 229,80 219,80 219,90 " style="fill:white; stroke-width:1; stroke:black; " description="&lt;b&gt;NCS57_00750100&lt;/b&gt;&lt;br&gt;hypothetical protein&lt;br&gt;Location: 2817971 - 2818396" locus_tag="NCS57_00750100" class="clusterblast-orf" id="dummy-2_h2_2_2"  />
</g>
<g id="a2_003"  >
<polygon points="264,90 305,90 310,85 305,80 264,80 264,90 " style="fill:#d81515; stroke-width:1; stroke:black; " description="&lt;b&gt;NCS57_00750200&lt;/b&gt;&lt;br&gt;hypothetical protein&lt;br&gt;Location: 2819262 - 2820590&lt;br&gt;&lt;br&gt;&lt;b&gt;BlastP hit with input.path1.gene111&lt;/b&gt;&lt;br&gt;Percentage identity: 48&lt;br&gt;Percentage coverage: 20&lt;br&gt;BLAST bit score: 108&lt;br&gt;E-value: 1.92e-23" locus_tag="NCS57_00750200" class="clusterblast-orf" id="dummy-2_h2_2_3"  />
</g>
<g id="a2_004"  >
<polygon points="319,85 324,80 352,80 352,90 324,90 319,85 " style="fill:#15d863; stroke-width:1; stroke:black; " description="&lt;b&gt;NCS57_00750300&lt;/b&gt;&lt;br&gt;hypothetical protein&lt;br&gt;Location: 2820864 - 2821805&lt;br&gt;&lt;br&gt;&lt;b&gt;BlastP hit with input.path1.gene112&lt;/b&gt;&lt;br&gt;Percentage identity: 72&lt;br&gt;Percentage coverage: 42&lt;br&gt;BLAST bit score: 193&lt;br&gt;E-value: 9.64e-58" locus_tag="NCS57_00750300" class="clusterblast-orf" id="dummy-2_h2_2_4"  />
</g>
<g id="a2_005"  >
<polygon points="421,90 460,90 465,85 460,80 421,80 421,90 " style="fill:#1563d8; stroke-width:1; stroke:black; " description="&lt;b&gt;NCS57_00750400&lt;/b&gt;&lt;br&gt;hypothetical protein&lt;br&gt;Location: 2823831 - 2825090&lt;br&gt;&lt;br&gt;&lt;b&gt;BlastP hit with input.path1.gene114&lt;/b&gt;&lt;br&gt;Percentage identity: 75&lt;br&gt;Percentage coverage: 76&lt;br&gt;BLAST bit score: 486&lt;br&gt;E-value: 1.64e-169" locus_tag="NCS57_00750400" class="clusterblast-orf" id="dummy-2_h2_2_5"  />
</g>
<g id="a2_006"  >
<polygon points="482,85 487,80 535,80 535,90 487,90 482,85 " style="fill:#b115d8; stroke-width:1; stroke:black; " description="&lt;b&gt;NCS57_00750500&lt;/b&gt;&lt;br&gt;hypothetical protein&lt;br&gt;Location: 2825593 - 2827134&lt;br&gt;&lt;br&gt;&lt;b&gt;BlastP hit with input.path1.gene115&lt;/b&gt;&lt;br&gt;Percentage identity: 59&lt;br&gt;Percentage coverage: 100&lt;br&gt;BLAST bit score: 535&lt;br&gt;E-value: 2.17e-186" locus_tag="NCS57_00750500" class="clusterblast-orf" id="dummy-2_h2_2_6"  />
</g>
<g id="a2_007"  >
<polygon points="628,90 775,90 780,85 775,80 628,80 628,90 " style="fill:white; stroke-width:1; stroke:black; " description="&lt;b&gt;NCS57_00750600&lt;/b&gt;&lt;br&gt;Protein kinase domain-containing protein&lt;br&gt;Location: 2829810 - 2834211" locus_tag="NCS57_00750600" class="clusterblast-orf" id="dummy-2_h2_2_7"  />
</g>
</svg>
