<svg xmlns="http://www.w3.org/2000/svg" xmlns:xlink="http://www.w3.org/1999/xlink" version="1.1" x="0" y="0" height="230" width="800" viewBox="0 0 800 230" preserveAspectRatio="none"  >
<g label="Query sequence" class="clusterblast-cluster"  >
<text x="5" y="20" class="clusterblast-acc"  >
Query sequence</text>
<line x1="10" y1="35" x2="778.0" y2="35" style="stroke-width:1; stroke:grey; "  />
<polygon points="299,35 304,30 326,30 326,40 304,40 299,35 " style="fill:#d81515; stroke-width:1; stroke:black; " description="&lt;b&gt;input.path1.gene7&lt;/b&gt;&lt;br&gt;input.path1.gene7&lt;br&gt;Location: 50424 - 52599" locus_tag="input.path1.gene7" class="clusterblast-orf" id="dummy-1_q0_0_all"  />
<polygon points="332,40 344,40 349,35 344,30 332,30 332,40 " style="fill:#15d815; stroke-width:1; stroke:black; " description="&lt;b&gt;input.path1.gene8&lt;/b&gt;&lt;br&gt;input.path1.gene8&lt;br&gt;Location: 53147 - 54476" locus_tag="input.path1.gene8" class="clusterblast-orf" id="dummy-1_q1_0_all"  />
<polygon points="403,40 475,40 480,35 475,30 403,30 403,40 " style="fill:#1515d8; stroke-width:1; stroke:black; " description="&lt;b&gt;input.path1.gene9&lt;/b&gt;&lt;br&gt;input.path1.gene9&lt;br&gt;Location: 58947 - 65227" locus_tag="input.path1.gene9" class="clusterblast-orf" id="dummy-1_q2_0_all"  />
</g>
<g label="NW_025091267" description="NW_025091267 (57500-124807): Aspergillus udagawae IFM 46973 DNA, scaffold 4, ... (13% of genes show similarity), T1PKS" class="clusterblast-cluster"  >
<text x="5" y="70" class="clusterblast-acc"  >
<a xlink:href="https://antismash-db.secondarymetabolites.org/area?record=NW_025091267&amp;start=57500&amp;end=124807" target="_blank">NW_025091267 (57500-124807)</a>: Aspergillus udagawae IFM 46973 DNA, scaffold 4, ... (13% of genes show similarity), T1PKS</text>
<line x1="10" y1="85" x2="778.0" y2="85" style="stroke-width:1; stroke:grey; "  />
</g>
<g id="a1_000"  >
<polygon points="0,85 5,80 85,80 85,90 5,90 0,85 " style="fill:white; stroke-width:1; stroke:black; " description="&lt;b&gt;Aud_005383&lt;/b&gt;&lt;br&gt;uncharacterized protein&lt;br&gt;Location: 58929 - 65948" locus_tag="Aud_005383" class="clusterblast-orf" id="dummy-1_h1_8_0"  />
</g>
<g id="a1_001"  >
<polygon points="99,90 106,90 111,85 106,80 99,80 99,90 " style="fill:white; stroke-width:1; stroke:black; " description="&lt;b&gt;Aud_005384&lt;/b&gt;&lt;br&gt;uncharacterized protein&lt;br&gt;Location: 67070 - 68073" locus_tag="Aud_005384" class="clusterblast-orf" id="dummy-1_h1_8_1"  />
</g>
<g id="a1_002"  >
<polygon points="124,85 129,80 145,80 145,90 129,90 124,85 " style="fill:white; stroke-width:1; stroke:black; " description="&lt;b&gt;Aud_005385&lt;/b&gt;&lt;br&gt;uncharacterized protein&lt;br&gt;Location: 69135 - 70884" locus_tag="Aud_005385" class="clusterblast-orf" id="dummy-1_h1_8_2"  />
</g>
<g id="a1_003"  >
<polygon points="154,85 159,80 183,80 183,90 159,90 154,85 " style="fill:#d81515; stroke-width:1; stroke:black; " description="&lt;b&gt;Aud_005386&lt;/b&gt;&lt;br&gt;uncharacterized protein&lt;br&gt;Location: 71562 - 73967&lt;br&gt;&lt;br&gt;&lt;b&gt;BlastP hit with input.path1.gene7&lt;/b&gt;&lt;br&gt;Percentage identity: 71&lt;br&gt;Percentage coverage: 82&lt;br&gt;BLAST bit score: 914&lt;br&gt;E-value: 0.0" locus_tag="Aud_005386" class="clusterblast-orf" id="dummy-1_h1_8_3"  />
</g>
<g id="a1_004"  >
<polygon points="188,90 200,90 205,85 200,80 188,80 188,90 " style="fill:#15d815; stroke-width:1; stroke:black; " description="&lt;b&gt;Aud_005387&lt;/b&gt;&lt;br&gt;uncharacterized protein&lt;br&gt;Location: 74347 - 75746&lt;br&gt;&lt;br&gt;&lt;b&gt;BlastP hit with input.path1.gene8&lt;/b&gt;&lt;br&gt;Percentage identity: 51&lt;br&gt;Percentage coverage: 100&lt;br&gt;BLAST bit score: 392&lt;br&gt;E-value: 4.37e-132" locus_tag="Aud_005387" class="clusterblast-orf" id="dummy-1_h1_8_4"  />
</g>
<g id="a1_005"  >
<polygon points="206,90 224,90 229,85 224,80 206,80 206,90 " style="fill:white; stroke-width:1; stroke:black; " description="&lt;b&gt;Aud_005388.1&lt;/b&gt;&lt;br&gt;uncharacterized protein&lt;br&gt;Location: 75882 - 77755" locus_tag="Aud_005388.1" class="clusterblast-orf" id="dummy-1_h1_8_5"  />
</g>
<g id="a1_006"  >
<polygon points="233,90 250,90 255,85 250,80 233,80 233,90 " style="fill:white; stroke-width:1; stroke:black; " description="&lt;b&gt;Aud_005388.2&lt;/b&gt;&lt;br&gt;uncharacterized protein&lt;br&gt;Location: 78021 - 79818" locus_tag="Aud_005388.2" class="clusterblast-orf" id="dummy-1_h1_8_6"  />
</g>
<g id="a1_007"  >
<polygon points="255,85 260,80 268,80 268,90 260,90 255,85 " style="fill:white; stroke-width:1; stroke:black; " description="&lt;b&gt;Aud_005389&lt;/b&gt;&lt;br&gt;uncharacterized protein&lt;br&gt;Location: 79881 - 80940" locus_tag="Aud_005389" class="clusterblast-orf" id="dummy-1_h1_8_7"  />
</g>
<g id="a1_008"  >
<polygon points="276,85 281,80 299,80 299,90 281,90 276,85 " style="fill:white; stroke-width:1; stroke:black; " description="&lt;b&gt;Aud_005390&lt;/b&gt;&lt;br&gt;uncharacterized protein&lt;br&gt;Location: 81547 - 83497" locus_tag="Aud_005390" class="clusterblast-orf" id="dummy-1_h1_8_8"  />
</g>
<g id="a1_009"  >
<polygon points="320,90 331,90 336,85 331,80 320,80 320,90 " style="fill:white; stroke-width:1; stroke:black; " description="&lt;b&gt;Aud_005391&lt;/b&gt;&lt;br&gt;uncharacterized protein&lt;br&gt;Location: 85217 - 86500" locus_tag="Aud_005391" class="clusterblast-orf" id="dummy-1_h1_8_9"  />
</g>
<g id="a1_0010"  >
<polygon points="348,90 433,90 438,85 433,80 348,80 348,90 " style="fill:#1515d8; stroke-width:1; stroke:black; " description="&lt;b&gt;Aud_005392&lt;/b&gt;&lt;br&gt;type I iterative polyketide synthase&lt;br&gt;Location: 87501 - 94807&lt;br&gt;&lt;br&gt;&lt;b&gt;BlastP hit with input.path1.gene9&lt;/b&gt;&lt;br&gt;Percentage identity: 45&lt;br&gt;Percentage coverage: 108&lt;br&gt;BLAST bit score: 1592&lt;br&gt;E-value: 0.0" locus_tag="Aud_005392" class="clusterblast-orf" id="dummy-1_h1_8_10"  />
</g>
<g id="a1_0011"  >
<polygon points="530,90 536,90 541,85 536,80 530,80 530,90 " style="fill:white; stroke-width:1; stroke:black; " description="&lt;b&gt;Aud_005393&lt;/b&gt;&lt;br&gt;uncharacterized protein&lt;br&gt;Location: 102404 - 103309" locus_tag="Aud_005393" class="clusterblast-orf" id="dummy-1_h1_8_11"  />
</g>
<g id="a1_0012"  >
<polygon points="546,90 557,90 562,85 557,80 546,80 546,90 " style="fill:white; stroke-width:1; stroke:black; " description="&lt;b&gt;Aud_005394&lt;/b&gt;&lt;br&gt;uncharacterized protein&lt;br&gt;Location: 103723 - 105011" locus_tag="Aud_005394" class="clusterblast-orf" id="dummy-1_h1_8_12"  />
</g>
<g id="a1_0013"  >
<polygon points="564,85 569,80 570,80 570,90 569,90 564,85 " style="fill:white; stroke-width:1; stroke:black; " description="&lt;b&gt;Aud_005395&lt;/b&gt;&lt;br&gt;uncharacterized protein&lt;br&gt;Location: 105173 - 105666" locus_tag="Aud_005395" class="clusterblast-orf" id="dummy-1_h1_8_13"  />
</g>
<g id="a1_0014"  >
<polygon points="578,85 583,80 588,80 588,90 583,90 578,85 " style="fill:white; stroke-width:1; stroke:black; " description="&lt;b&gt;Aud_005396&lt;/b&gt;&lt;br&gt;uncharacterized protein&lt;br&gt;Location: 106275 - 107147" locus_tag="Aud_005396" class="clusterblast-orf" id="dummy-1_h1_8_14"  />
</g>
<g id="a1_0015"  >
<polygon points="619,85 624,80 634,80 634,90 624,90 619,85 " style="fill:white; stroke-width:1; stroke:black; " description="&lt;b&gt;Aud_005397&lt;/b&gt;&lt;br&gt;uncharacterized protein&lt;br&gt;Location: 109684 - 110889" locus_tag="Aud_005397" class="clusterblast-orf" id="dummy-1_h1_8_15"  />
</g>
<g id="a1_0016"  >
<polygon points="642,90 657,90 662,85 657,80 642,80 642,90 " style="fill:white; stroke-width:1; stroke:black; " description="&lt;b&gt;Aud_005398&lt;/b&gt;&lt;br&gt;uncharacterized protein&lt;br&gt;Location: 111523 - 113191" locus_tag="Aud_005398" class="clusterblast-orf" id="dummy-1_h1_8_16"  />
</g>
<g id="a1_0017"  >
<polygon points="666,85 671,80 689,80 689,90 671,90 666,85 " style="fill:white; stroke-width:1; stroke:black; " description="&lt;b&gt;Aud_005399&lt;/b&gt;&lt;br&gt;uncharacterized protein&lt;br&gt;Location: 113479 - 115385" locus_tag="Aud_005399" class="clusterblast-orf" id="dummy-1_h1_8_17"  />
</g>
<g id="a1_0018"  >
<polygon points="697,90 703,90 708,85 703,80 697,80 697,90 " style="fill:white; stroke-width:1; stroke:black; " description="&lt;b&gt;Aud_005400&lt;/b&gt;&lt;br&gt;uncharacterized protein&lt;br&gt;Location: 116043 - 116991" locus_tag="Aud_005400" class="clusterblast-orf" id="dummy-1_h1_8_18"  />
</g>
<g id="a1_0019"  >
<polygon points="710,85 715,80 718,80 718,90 715,90 710,85 " style="fill:white; stroke-width:1; stroke:black; " description="&lt;b&gt;Aud_005401&lt;/b&gt;&lt;br&gt;uncharacterized protein&lt;br&gt;Location: 117101 - 117784" locus_tag="Aud_005401" class="clusterblast-orf" id="dummy-1_h1_8_19"  />
</g>
<g id="a1_0020"  >
<polygon points="724,85 729,80 739,80 739,90 729,90 724,85 " style="fill:white; stroke-width:1; stroke:black; " description="&lt;b&gt;Aud_005402&lt;/b&gt;&lt;br&gt;uncharacterized protein&lt;br&gt;Location: 118233 - 119515" locus_tag="Aud_005402" class="clusterblast-orf" id="dummy-1_h1_8_20"  />
</g>
<g id="a1_0021"  >
<polygon points="756,90 775,90 780,85 775,80 756,80 756,90 " style="fill:white; stroke-width:1; stroke:black; " description="&lt;b&gt;Aud_005403&lt;/b&gt;&lt;br&gt;uncharacterized protein&lt;br&gt;Location: 120847 - 122810" locus_tag="Aud_005403" class="clusterblast-orf" id="dummy-1_h1_8_21"  />
</g>
</svg>
