<svg xmlns="http://www.w3.org/2000/svg" xmlns:xlink="http://www.w3.org/1999/xlink" version="1.1" x="0" y="0" height="230" width="800" viewBox="0 0 800 230" preserveAspectRatio="none"  >
<g label="Query sequence" class="clusterblast-cluster"  >
<text x="5" y="20" class="clusterblast-acc"  >
Query sequence</text>
<line x1="10" y1="35" x2="778.0" y2="35" style="stroke-width:1; stroke:grey; "  />
<polygon points="143,35 148,30 177,30 177,40 148,40 143,35 " style="fill:#d81515; stroke-width:1; stroke:black; " description="&lt;b&gt;input.path1.gene52&lt;/b&gt;&lt;br&gt;input.path1.gene52&lt;br&gt;Location: 188979 - 191716" locus_tag="input.path1.gene52" class="clusterblast-orf" id="dummy-1_q0_0_all"  />
<polygon points="183,40 224,40 229,35 224,30 183,30 183,40 " style="fill:#3cd815; stroke-width:1; stroke:black; " description="&lt;b&gt;input.path1.gene53&lt;/b&gt;&lt;br&gt;input.path1.gene53&lt;br&gt;Location: 192240 - 195913" locus_tag="input.path1.gene53" class="clusterblast-orf" id="dummy-1_q1_0_all"  />
<polygon points="231,35 236,30 260,30 260,40 236,40 231,35 " style="fill:#1563d8; stroke-width:1; stroke:black; " description="&lt;b&gt;input.path1.gene54&lt;/b&gt;&lt;br&gt;input.path1.gene54&lt;br&gt;Location: 196059 - 198426" locus_tag="input.path1.gene54" class="clusterblast-orf" id="dummy-1_q2_0_all"  />
<polygon points="268,35 273,30 283,30 283,40 273,40 268,35 " style="fill:#b115d8; stroke-width:1; stroke:black; " description="&lt;b&gt;input.path1.gene55&lt;/b&gt;&lt;br&gt;input.path1.gene55&lt;br&gt;Location: 199055 - 200266" locus_tag="input.path1.gene55" class="clusterblast-orf" id="dummy-1_q3_0_all"  />
<polygon points="306,40 321,40 326,35 321,30 306,30 306,40 " style="fill:#d88a15; stroke-width:1; stroke:black; " description="&lt;b&gt;input.path1.gene56&lt;/b&gt;&lt;br&gt;input.path1.gene56&lt;br&gt;Location: 202139 - 203683" locus_tag="input.path1.gene56" class="clusterblast-orf" id="dummy-1_q4_0_all"  />
<polygon points="366,40 371,40 376,35 371,30 366,30 366,40 " style="fill:#15d863; stroke-width:1; stroke:black; " description="&lt;b&gt;input.path1.gene57&lt;/b&gt;&lt;br&gt;input.path1.gene57&lt;br&gt;Location: 206889 - 207710" locus_tag="input.path1.gene57" class="clusterblast-orf" id="dummy-1_q5_0_all"  />
<polygon points="381,35 386,30 484,30 484,40 386,40 381,35 " style="fill:#3c15d8; stroke-width:1; stroke:black; " description="&lt;b&gt;input.path1.gene58&lt;/b&gt;&lt;br&gt;input.path1.gene58&lt;br&gt;Location: 208115 - 216369" locus_tag="input.path1.gene58" class="clusterblast-orf" id="dummy-1_q6_0_all"  />
<polygon points="541,35 546,30 546,30 546,40 546,40 541,35 " style="fill:#d8158a; stroke-width:1; stroke:black; " description="&lt;b&gt;input.path1.gene59&lt;/b&gt;&lt;br&gt;input.path1.gene59&lt;br&gt;Location: 220955 - 221367" locus_tag="input.path1.gene59" class="clusterblast-orf" id="dummy-1_q7_0_all"  />
<polygon points="560,40 564,40 569,35 564,30 560,30 560,40 " style="fill:white; stroke-width:1; stroke:black; " description="&lt;b&gt;input.path1.gene60&lt;/b&gt;&lt;br&gt;input.path1.gene60&lt;br&gt;Location: 222454 - 223174" locus_tag="input.path1.gene60" class="clusterblast-orf" id="dummy-1_q8_0_all"  />
<polygon points="573,35 578,30 604,30 604,40 578,40 573,35 " style="fill:#b1d815; stroke-width:1; stroke:black; " description="&lt;b&gt;input.path1.gene61&lt;/b&gt;&lt;br&gt;input.path1.gene61&lt;br&gt;Location: 223521 - 226018" locus_tag="input.path1.gene61" class="clusterblast-orf" id="dummy-1_q9_0_all"  />
<polygon points="611,40 632,40 637,35 632,30 611,30 611,40 " style="fill:#15d8d8; stroke-width:1; stroke:black; " description="&lt;b&gt;input.path1.gene62&lt;/b&gt;&lt;br&gt;input.path1.gene62&lt;br&gt;Location: 226596 - 228645" locus_tag="input.path1.gene62" class="clusterblast-orf" id="dummy-1_q10_0_all"  />
</g>
<g label="NC_063077" description="NC_063077 (1099162-1166854): Purpureocillium takamizusanense chromosome 10, c... (68% of genes show similarity), T1PKS" class="clusterblast-cluster"  >
<text x="5" y="70" class="clusterblast-acc"  >
<a xlink:href="https://antismash-db.secondarymetabolites.org/area?record=NC_063077&amp;start=1099162&amp;end=1166854" target="_blank">NC_063077 (1099162-1166854)</a>: Purpureocillium takamizusanense chromosome 10, c... (68% of genes show similarity), T1PKS</text>
<line x1="10" y1="85" x2="778.0" y2="85" style="stroke-width:1; stroke:grey; "  />
</g>
<g id="a1_000"  >
<polygon points="0,85 5,80 30,80 30,90 5,90 0,85 " style="fill:#d81515; stroke-width:1; stroke:black; " description="&lt;b&gt;JDV02_009871&lt;/b&gt;&lt;br&gt;uncharacterized protein&lt;br&gt;Location: 1164497 - 1162063&lt;br&gt;&lt;br&gt;&lt;b&gt;BlastP hit with input.path1.gene52&lt;/b&gt;&lt;br&gt;Percentage identity: 74&lt;br&gt;Percentage coverage: 73&lt;br&gt;BLAST bit score: 440&lt;br&gt;E-value: 2.94e-152" locus_tag="JDV02_009871" class="clusterblast-orf" id="dummy-1_h1_6_0"  />
</g>
<g id="a1_001"  >
<polygon points="46,90 83,90 88,85 83,80 46,80 46,90 " style="fill:#3cd815; stroke-width:1; stroke:black; " description="&lt;b&gt;JDV02_009870&lt;/b&gt;&lt;br&gt;uncharacterized protein&lt;br&gt;Location: 1160777 - 1157427&lt;br&gt;&lt;br&gt;&lt;b&gt;BlastP hit with input.path1.gene53&lt;/b&gt;&lt;br&gt;Percentage identity: 51&lt;br&gt;Percentage coverage: 100&lt;br&gt;BLAST bit score: 828&lt;br&gt;E-value: 9.9e-286" locus_tag="JDV02_009870" class="clusterblast-orf" id="dummy-1_h1_6_1"  />
</g>
<g id="a1_002"  >
<polygon points="91,85 96,80 104,80 104,90 96,90 91,85 " style="fill:white; stroke-width:1; stroke:black; " description="&lt;b&gt;JDV02_009869&lt;/b&gt;&lt;br&gt;uncharacterized protein&lt;br&gt;Location: 1157168 - 1156146" locus_tag="JDV02_009869" class="clusterblast-orf" id="dummy-1_h1_6_2"  />
</g>
<g id="a1_003"  >
<polygon points="112,90 112,90 117,85 112,80 112,80 112,90 " style="fill:white; stroke-width:1; stroke:black; " description="&lt;b&gt;JDV02_009868&lt;/b&gt;&lt;br&gt;uncharacterized protein&lt;br&gt;Location: 1155449 - 1155042" locus_tag="JDV02_009868" class="clusterblast-orf" id="dummy-1_h1_6_3"  />
</g>
<g id="a1_004"  >
<polygon points="123,85 128,80 156,80 156,90 128,90 123,85 " style="fill:#1563d8; stroke-width:1; stroke:black; " description="&lt;b&gt;JDV02_009867&lt;/b&gt;&lt;br&gt;uncharacterized protein&lt;br&gt;Location: 1154605 - 1151918&lt;br&gt;&lt;br&gt;&lt;b&gt;BlastP hit with input.path1.gene54&lt;/b&gt;&lt;br&gt;Percentage identity: 50&lt;br&gt;Percentage coverage: 106&lt;br&gt;BLAST bit score: 590&lt;br&gt;E-value: 5.4e-199" locus_tag="JDV02_009867" class="clusterblast-orf" id="dummy-1_h1_6_4"  />
</g>
<g id="a1_005"  >
<polygon points="124,85 129,80 156,80 156,90 129,90 124,85 " style="fill:#1563d8; stroke-width:1; stroke:black; " description="&lt;b&gt;JDV02_009867_51aab2ed&lt;/b&gt;&lt;br&gt;uncharacterized protein&lt;br&gt;Location: 1154499 - 1151918&lt;br&gt;&lt;br&gt;&lt;b&gt;BlastP hit with input.path1.gene54&lt;/b&gt;&lt;br&gt;Percentage identity: 49&lt;br&gt;Percentage coverage: 121&lt;br&gt;BLAST bit score: 652&lt;br&gt;E-value: 4.64e-224" locus_tag="JDV02_009867_51aab2ed" class="clusterblast-orf" id="dummy-1_h1_6_5"  />
</g>
<g id="a1_006"  >
<polygon points="175,85 180,80 190,80 190,90 180,90 175,85 " style="fill:#b115d8; stroke-width:1; stroke:black; " description="&lt;b&gt;JDV02_009866&lt;/b&gt;&lt;br&gt;uncharacterized protein&lt;br&gt;Location: 1150405 - 1149187&lt;br&gt;&lt;br&gt;&lt;b&gt;BlastP hit with input.path1.gene55&lt;/b&gt;&lt;br&gt;Percentage identity: 65&lt;br&gt;Percentage coverage: 71&lt;br&gt;BLAST bit score: 234&lt;br&gt;E-value: 4.31e-74" locus_tag="JDV02_009866" class="clusterblast-orf" id="dummy-1_h1_6_6"  />
</g>
<g id="a1_007"  >
<polygon points="236,90 255,90 260,85 255,80 236,80 236,90 " style="fill:#d88a15; stroke-width:1; stroke:black; " description="&lt;b&gt;JDV02_009865&lt;/b&gt;&lt;br&gt;uncharacterized protein&lt;br&gt;Location: 1145526 - 1143558&lt;br&gt;&lt;br&gt;&lt;b&gt;BlastP hit with input.path1.gene56&lt;/b&gt;&lt;br&gt;Percentage identity: 70&lt;br&gt;Percentage coverage: 99&lt;br&gt;BLAST bit score: 449&lt;br&gt;E-value: 1.49e-153" locus_tag="JDV02_009865" class="clusterblast-orf" id="dummy-1_h1_6_7"  />
</g>
<g id="a1_008"  >
<polygon points="313,90 329,90 334,85 329,80 313,80 313,90 " style="fill:#15d863; stroke-width:1; stroke:black; " description="&lt;b&gt;JDV02_009864&lt;/b&gt;&lt;br&gt;Alpha-1,3-mannosyltransferase cmt1&lt;br&gt;Location: 1139353 - 1137641&lt;br&gt;&lt;br&gt;&lt;b&gt;BlastP hit with input.path1.gene57&lt;/b&gt;&lt;br&gt;Percentage identity: 71&lt;br&gt;Percentage coverage: 95&lt;br&gt;BLAST bit score: 351&lt;br&gt;E-value: 6.74e-118" locus_tag="JDV02_009864" class="clusterblast-orf" id="dummy-1_h1_6_8"  />
</g>
<g id="a1_009"  >
<polygon points="344,85 349,80 440,80 440,90 349,90 344,85 " style="fill:#3c15d8; stroke-width:1; stroke:black; " description="&lt;b&gt;JDV02_009862&lt;/b&gt;&lt;br&gt;Type I Iterative PKS&lt;br&gt;Location: 1136854 - 1129163&lt;br&gt;&lt;br&gt;&lt;b&gt;BlastP hit with input.path1.gene58&lt;/b&gt;&lt;br&gt;Percentage identity: 40&lt;br&gt;Percentage coverage: 128&lt;br&gt;BLAST bit score: 1549&lt;br&gt;E-value: 0.0" locus_tag="JDV02_009862" class="clusterblast-orf" id="dummy-1_h1_6_9"  />
</g>
<g id="a1_0010"  >
<polygon points="510,90 532,90 537,85 532,80 510,80 510,90 " style="fill:white; stroke-width:1; stroke:black; " description="&lt;b&gt;JDV02_009861&lt;/b&gt;&lt;br&gt;uncharacterized protein&lt;br&gt;Location: 1123542 - 1121390" locus_tag="JDV02_009861" class="clusterblast-orf" id="dummy-1_h1_6_10"  />
</g>
<g id="a1_0011"  >
<polygon points="560,85 565,80 567,80 567,90 565,90 560,85 " style="fill:white; stroke-width:1; stroke:black; " description="&lt;b&gt;JDV02_009860&lt;/b&gt;&lt;br&gt;uncharacterized protein&lt;br&gt;Location: 1119539 - 1118961" locus_tag="JDV02_009860" class="clusterblast-orf" id="dummy-1_h1_6_11"  />
</g>
<g id="a1_0012"  >
<polygon points="571,85 576,80 579,80 579,90 576,90 571,85 " style="fill:#d8158a; stroke-width:1; stroke:black; " description="&lt;b&gt;JDV02_009859&lt;/b&gt;&lt;br&gt;uncharacterized protein&lt;br&gt;Location: 1118602 - 1117996&lt;br&gt;&lt;br&gt;&lt;b&gt;BlastP hit with input.path1.gene59&lt;/b&gt;&lt;br&gt;Percentage identity: 57&lt;br&gt;Percentage coverage: 94&lt;br&gt;BLAST bit score: 138&lt;br&gt;E-value: 4.96e-41" locus_tag="JDV02_009859" class="clusterblast-orf" id="dummy-1_h1_6_12"  />
</g>
<g id="a1_0013"  >
<polygon points="597,90 602,90 607,85 602,80 597,80 597,90 " style="fill:white; stroke-width:1; stroke:black; " description="&lt;b&gt;JDV02_009858&lt;/b&gt;&lt;br&gt;uncharacterized protein&lt;br&gt;Location: 1116512 - 1115733" locus_tag="JDV02_009858" class="clusterblast-orf" id="dummy-1_h1_6_13"  />
</g>
<g id="a1_0014"  >
<polygon points="614,85 619,80 624,80 624,90 619,90 614,85 " style="fill:#b1d815; stroke-width:1; stroke:black; " description="&lt;b&gt;JDV02_009857_c1548720&lt;/b&gt;&lt;br&gt;uncharacterized protein&lt;br&gt;Location: 1115167 - 1114396&lt;br&gt;&lt;br&gt;&lt;b&gt;BlastP hit with input.path1.gene61&lt;/b&gt;&lt;br&gt;Percentage identity: 51&lt;br&gt;Percentage coverage: 47&lt;br&gt;BLAST bit score: 209&lt;br&gt;E-value: 1.46e-63" locus_tag="JDV02_009857_c1548720" class="clusterblast-orf" id="dummy-1_h1_6_14"  />
</g>
<g id="a1_0015"  >
<polygon points="614,85 619,80 629,80 629,90 619,90 614,85 " style="fill:#b1d815; stroke-width:1; stroke:black; " description="&lt;b&gt;JDV02_009857&lt;/b&gt;&lt;br&gt;uncharacterized protein&lt;br&gt;Location: 1115167 - 1113992&lt;br&gt;&lt;br&gt;&lt;b&gt;BlastP hit with input.path1.gene61&lt;/b&gt;&lt;br&gt;Percentage identity: 52&lt;br&gt;Percentage coverage: 45&lt;br&gt;BLAST bit score: 209&lt;br&gt;E-value: 3.23e-63" locus_tag="JDV02_009857" class="clusterblast-orf" id="dummy-1_h1_6_15"  />
</g>
<g id="a1_0016"  >
<polygon points="638,85 643,80 652,80 652,90 643,90 638,85 " style="fill:#b1d815; stroke-width:1; stroke:black; " description="&lt;b&gt;JDV02_009856&lt;/b&gt;&lt;br&gt;Protein transport protein yif1&lt;br&gt;Location: 1113260 - 1112089&lt;br&gt;&lt;br&gt;&lt;b&gt;BlastP hit with input.path1.gene61&lt;/b&gt;&lt;br&gt;Percentage identity: 86&lt;br&gt;Percentage coverage: 60&lt;br&gt;BLAST bit score: 459&lt;br&gt;E-value: 1.31e-159" locus_tag="JDV02_009856" class="clusterblast-orf" id="dummy-1_h1_6_16"  />
</g>
<g id="a1_0017"  >
<polygon points="662,90 686,90 691,85 686,80 662,80 662,90 " style="fill:#15d8d8; stroke-width:1; stroke:black; " description="&lt;b&gt;JDV02_009855&lt;/b&gt;&lt;br&gt;uncharacterized protein&lt;br&gt;Location: 1111304 - 1108995&lt;br&gt;&lt;br&gt;&lt;b&gt;BlastP hit with input.path1.gene62&lt;/b&gt;&lt;br&gt;Percentage identity: 76&lt;br&gt;Percentage coverage: 103&lt;br&gt;BLAST bit score: 945&lt;br&gt;E-value: 0.0" locus_tag="JDV02_009855" class="clusterblast-orf" id="dummy-1_h1_6_17"  />
</g>
<g id="a1_0018"  >
<polygon points="703,85 708,80 780,80 780,90 708,90 703,85 " style="fill:white; stroke-width:1; stroke:black; " description="&lt;b&gt;JDV02_009854&lt;/b&gt;&lt;br&gt;uncharacterized protein&lt;br&gt;Location: 1107994 - 1101887" locus_tag="JDV02_009854" class="clusterblast-orf" id="dummy-1_h1_6_18"  />
</g>
</svg>
