<svg xmlns="http://www.w3.org/2000/svg" xmlns:xlink="http://www.w3.org/1999/xlink" version="1.1" x="0" y="0" height="230" width="800" viewBox="0 0 800 230" preserveAspectRatio="none"  >
<g label="Query sequence" class="clusterblast-cluster"  >
<text x="5" y="20" class="clusterblast-acc"  >
Query sequence</text>
<line x1="10" y1="35" x2="778.0" y2="35" style="stroke-width:1; stroke:grey; "  />
<polygon points="201,40 207,40 212,35 207,30 201,30 201,40 " style="fill:white; stroke-width:1; stroke:black; " description="&lt;b&gt;input.path1.gene1&lt;/b&gt;&lt;br&gt;input.path1.gene1&lt;br&gt;Location: 7867 - 8707" locus_tag="input.path1.gene1" class="clusterblast-orf" id="dummy-1_q0_0_all"  />
<polygon points="301,40 304,40 309,35 304,30 301,30 301,40 " style="fill:white; stroke-width:1; stroke:black; " description="&lt;b&gt;input.path1.gene2&lt;/b&gt;&lt;br&gt;input.path1.gene2&lt;br&gt;Location: 15657 - 16261" locus_tag="input.path1.gene2" class="clusterblast-orf" id="dummy-1_q1_0_all"  />
<polygon points="335,40 335,40 340,35 335,30 335,30 335,40 " style="fill:white; stroke-width:1; stroke:black; " description="&lt;b&gt;input.path1.gene3&lt;/b&gt;&lt;br&gt;input.path1.gene3&lt;br&gt;Location: 18360 - 18711" locus_tag="input.path1.gene3" class="clusterblast-orf" id="dummy-1_q2_0_all"  />
<polygon points="355,40 360,40 365,35 360,30 355,30 355,40 " style="fill:white; stroke-width:1; stroke:black; " description="&lt;b&gt;input.path1.gene4&lt;/b&gt;&lt;br&gt;input.path1.gene4&lt;br&gt;Location: 19904 - 20636" locus_tag="input.path1.gene4" class="clusterblast-orf" id="dummy-1_q3_0_all"  />
<polygon points="366,35 371,30 381,30 381,40 371,40 366,35 " style="fill:#d81515; stroke-width:1; stroke:black; " description="&lt;b&gt;input.path1.gene5&lt;/b&gt;&lt;br&gt;input.path1.gene5&lt;br&gt;Location: 20735 - 21937" locus_tag="input.path1.gene5" class="clusterblast-orf" id="dummy-1_q4_0_all"  />
<polygon points="391,40 395,35 391,30 391,40 " style="fill:white; stroke-width:1; stroke:black; " description="&lt;b&gt;input.path1.gene6&lt;/b&gt;&lt;br&gt;input.path1.gene6&lt;br&gt;Location: 22702 - 23031" locus_tag="input.path1.gene6" class="clusterblast-orf" id="dummy-1_q5_0_all"  />
<polygon points="407,35 412,30 504,30 504,40 412,40 407,35 " style="fill:#15d815; stroke-width:1; stroke:black; " description="&lt;b&gt;input.path1.gene7&lt;/b&gt;&lt;br&gt;input.path1.gene7&lt;br&gt;Location: 23983 - 31524" locus_tag="input.path1.gene7" class="clusterblast-orf" id="dummy-1_q6_0_all"  />
<polygon points="520,40 527,40 532,35 527,30 520,30 520,40 " style="fill:white; stroke-width:1; stroke:black; " description="&lt;b&gt;input.path1.gene8&lt;/b&gt;&lt;br&gt;input.path1.gene8&lt;br&gt;Location: 32778 - 33716" locus_tag="input.path1.gene8" class="clusterblast-orf" id="dummy-1_q7_0_all"  />
<polygon points="537,40 542,40 547,35 542,30 537,30 537,40 " style="fill:#1515d8; stroke-width:1; stroke:black; " description="&lt;b&gt;input.path1.gene9&lt;/b&gt;&lt;br&gt;input.path1.gene9&lt;br&gt;Location: 34130 - 34937" locus_tag="input.path1.gene9" class="clusterblast-orf" id="dummy-1_q8_0_all"  />
<polygon points="574,35 578,30 578,40 574,35 " style="fill:white; stroke-width:1; stroke:black; " description="&lt;b&gt;input.path1.gene10&lt;/b&gt;&lt;br&gt;input.path1.gene10&lt;br&gt;Location: 37052 - 37332" locus_tag="input.path1.gene10" class="clusterblast-orf" id="dummy-1_q9_0_all"  />
</g>
<g label="NW_014574707" description="NW_014574707 (595356-657106): Metarhizium brunneum ARSEF 3297 chromosome Unkn... (9% of genes show similarity), NRPS-like" class="clusterblast-cluster"  >
<text x="5" y="70" class="clusterblast-acc"  >
<a xlink:href="https://antismash-db.secondarymetabolites.org/area?record=NW_014574707&amp;start=595356&amp;end=657106" target="_blank">NW_014574707 (595356-657106)</a>: Metarhizium brunneum ARSEF 3297 chromosome Unkn... (9% of genes show similarity), NRPS-like</text>
<line x1="10" y1="85" x2="778.0" y2="85" style="stroke-width:1; stroke:grey; "  />
</g>
<g id="a1_000"  >
<polygon points="0,85 5,80 10,80 10,90 5,90 0,85 " style="fill:white; stroke-width:1; stroke:black; " description="&lt;b&gt;MBR_07062&lt;/b&gt;&lt;br&gt;Phosducin family protein&lt;br&gt;Location: 657000 - 656157" locus_tag="MBR_07062" class="clusterblast-orf" id="dummy-1_h1_1_0"  />
</g>
<g id="a1_001"  >
<polygon points="17,90 19,90 24,85 19,80 17,80 17,90 " style="fill:white; stroke-width:1; stroke:black; " description="&lt;b&gt;MBR_07061&lt;/b&gt;&lt;br&gt;Ribosomal protein S27e&lt;br&gt;Location: 655629 - 655080" locus_tag="MBR_07061" class="clusterblast-orf" id="dummy-1_h1_1_1"  />
</g>
<g id="a1_002"  >
<polygon points="55,90 59,90 64,85 59,80 55,80 55,90 " style="fill:white; stroke-width:1; stroke:black; " description="&lt;b&gt;MBR_07060&lt;/b&gt;&lt;br&gt;ribonucleotide reductase inhibitor&lt;br&gt;Location: 652686 - 651928" locus_tag="MBR_07060" class="clusterblast-orf" id="dummy-1_h1_1_2"  />
</g>
<g id="a1_003"  >
<polygon points="68,85 73,80 88,80 88,90 73,90 68,85 " style="fill:white; stroke-width:1; stroke:black; " description="&lt;b&gt;MBR_07059&lt;/b&gt;&lt;br&gt;v-snare&lt;br&gt;Location: 651666 - 650099" locus_tag="MBR_07059" class="clusterblast-orf" id="dummy-1_h1_1_3"  />
</g>
<g id="a1_004"  >
<polygon points="94,90 110,90 115,85 110,80 94,80 94,90 " style="fill:white; stroke-width:1; stroke:black; " description="&lt;b&gt;MBR_07058&lt;/b&gt;&lt;br&gt;glutamyl-tRNA amidotransferase, A subunit&lt;br&gt;Location: 649626 - 647985" locus_tag="MBR_07058" class="clusterblast-orf" id="dummy-1_h1_1_4"  />
</g>
<g id="a1_005"  >
<polygon points="121,85 126,80 131,80 131,90 126,90 121,85 " style="fill:white; stroke-width:1; stroke:black; " description="&lt;b&gt;MBR_07057&lt;/b&gt;&lt;br&gt;pre-mRNA-processing factor&lt;br&gt;Location: 647502 - 646744" locus_tag="MBR_07057" class="clusterblast-orf" id="dummy-1_h1_1_5"  />
</g>
<g id="a1_006"  >
<polygon points="134,90 138,90 143,85 138,80 134,80 134,90 " style="fill:white; stroke-width:1; stroke:black; " description="&lt;b&gt;MBR_07056&lt;/b&gt;&lt;br&gt;hypothetical protein&lt;br&gt;Location: 646469 - 645761" locus_tag="MBR_07056" class="clusterblast-orf" id="dummy-1_h1_1_6"  />
</g>
<g id="a1_007"  >
<polygon points="176,85 181,80 186,80 186,90 181,90 176,85 " style="fill:white; stroke-width:1; stroke:black; " description="&lt;b&gt;MBR_07055&lt;/b&gt;&lt;br&gt;hypothetical protein&lt;br&gt;Location: 643187 - 642372" locus_tag="MBR_07055" class="clusterblast-orf" id="dummy-1_h1_1_7"  />
</g>
<g id="a1_008"  >
<polygon points="271,85 276,80 277,80 277,90 276,90 271,85 " style="fill:white; stroke-width:1; stroke:black; " description="&lt;b&gt;MBR_07054&lt;/b&gt;&lt;br&gt;Cytochrome c oxidase assembly protein COX16&lt;br&gt;Location: 635751 - 635258" locus_tag="MBR_07054" class="clusterblast-orf" id="dummy-1_h1_1_8"  />
</g>
<g id="a1_009"  >
<polygon points="319,85 324,80 349,80 349,90 324,90 319,85 " style="fill:white; stroke-width:1; stroke:black; " description="&lt;b&gt;MBR_07053&lt;/b&gt;&lt;br&gt;cytoplasm to vacuole targeting Vps64&lt;br&gt;Location: 631976 - 629652" locus_tag="MBR_07053" class="clusterblast-orf" id="dummy-1_h1_1_9"  />
</g>
<g id="a1_0010"  >
<polygon points="361,90 364,90 369,85 364,80 361,80 361,90 " style="fill:white; stroke-width:1; stroke:black; " description="&lt;b&gt;MBR_07052&lt;/b&gt;&lt;br&gt;Mgr2&lt;br&gt;Location: 628673 - 628104" locus_tag="MBR_07052" class="clusterblast-orf" id="dummy-1_h1_1_10"  />
</g>
<g id="a1_0011"  >
<polygon points="382,85 387,80 404,80 404,90 387,90 382,85 " style="fill:white; stroke-width:1; stroke:black; " description="&lt;b&gt;MBR_07051&lt;/b&gt;&lt;br&gt;gramicidin S synthetase 1&lt;br&gt;Location: 627106 - 625357" locus_tag="MBR_07051" class="clusterblast-orf" id="dummy-1_h1_1_11"  />
</g>
<g id="a1_0012"  >
<polygon points="427,90 447,90 452,85 447,80 427,80 427,90 " style="fill:white; stroke-width:1; stroke:black; " description="&lt;b&gt;MBR_07050&lt;/b&gt;&lt;br&gt;ascorbase and Cu-oxidase&lt;br&gt;Location: 623552 - 621574" locus_tag="MBR_07050" class="clusterblast-orf" id="dummy-1_h1_1_12"  />
</g>
<g id="a1_0013"  >
<polygon points="455,85 460,80 471,80 471,90 460,90 455,85 " style="fill:white; stroke-width:1; stroke:black; " description="&lt;b&gt;MBR_07049&lt;/b&gt;&lt;br&gt;NAD-dependent deacetylase sirtuin-2&lt;br&gt;Location: 621371 - 620064" locus_tag="MBR_07049" class="clusterblast-orf" id="dummy-1_h1_1_13"  />
</g>
<g id="a1_0014"  >
<polygon points="477,85 482,80 535,80 535,90 482,90 477,85 " style="fill:white; stroke-width:1; stroke:black; " description="&lt;b&gt;MBR_07048&lt;/b&gt;&lt;br&gt;nitrate assimilation regulatory protein nirA&lt;br&gt;Location: 619621 - 615093" locus_tag="MBR_07048" class="clusterblast-orf" id="dummy-1_h1_1_14"  />
</g>
<g id="a1_0015"  >
<polygon points="553,85 558,80 566,80 566,90 558,90 553,85 " style="fill:white; stroke-width:1; stroke:black; " description="&lt;b&gt;MBR_07047&lt;/b&gt;&lt;br&gt;short-chain dehydrogenase&lt;br&gt;Location: 613673 - 612702" locus_tag="MBR_07047" class="clusterblast-orf" id="dummy-1_h1_1_15"  />
</g>
<g id="a1_0016"  >
<polygon points="588,90 606,90 611,85 606,80 588,80 588,90 " style="fill:white; stroke-width:1; stroke:black; " description="&lt;b&gt;MBR_07046&lt;/b&gt;&lt;br&gt;non-ribosomal peptide synthetase&lt;br&gt;Location: 610985 - 609183" locus_tag="MBR_07046" class="clusterblast-orf" id="dummy-1_h1_1_16"  />
</g>
<g id="a1_0017"  >
<polygon points="652,85 657,80 663,80 663,90 657,90 652,85 " style="fill:white; stroke-width:1; stroke:black; " description="&lt;b&gt;MBR_07045&lt;/b&gt;&lt;br&gt;hypothetical protein&lt;br&gt;Location: 605905 - 605093" locus_tag="MBR_07045" class="clusterblast-orf" id="dummy-1_h1_1_17"  />
</g>
<g id="a1_0018"  >
<polygon points="680,90 689,90 694,85 689,80 680,80 680,90 " style="fill:white; stroke-width:1; stroke:black; " description="&lt;b&gt;MBR_07044&lt;/b&gt;&lt;br&gt;Protein kinase-like domain protein&lt;br&gt;Location: 603720 - 602616" locus_tag="MBR_07044" class="clusterblast-orf" id="dummy-1_h1_1_18"  />
</g>
<g id="a1_0019"  >
<polygon points="738,90 740,90 745,85 740,80 738,80 738,90 " style="fill:#1515d8; stroke-width:1; stroke:black; " description="&lt;b&gt;MBR_07043&lt;/b&gt;&lt;br&gt;hypothetical protein&lt;br&gt;Location: 599202 - 598697&lt;br&gt;&lt;br&gt;&lt;b&gt;BlastP hit with input.path1.gene9&lt;/b&gt;&lt;br&gt;Percentage identity: 48&lt;br&gt;Percentage coverage: 62&lt;br&gt;BLAST bit score: 100&lt;br&gt;E-value: 5.19e-25" locus_tag="MBR_07043" class="clusterblast-orf" id="dummy-1_h1_1_19"  />
</g>
<g id="a1_0020"  >
<polygon points="755,90 775,90 780,85 775,80 755,80 755,90 " style="fill:#15d815; stroke-width:1; stroke:black; " description="&lt;b&gt;MBR_07042&lt;/b&gt;&lt;br&gt;Lipopolysaccharide-modifying protein&lt;br&gt;Location: 597850 - 595961&lt;br&gt;&lt;br&gt;&lt;b&gt;BlastP hit with input.path1.gene7&lt;/b&gt;&lt;br&gt;Percentage identity: 59&lt;br&gt;Percentage coverage: 22&lt;br&gt;BLAST bit score: 476&lt;br&gt;E-value: 8.1e-149" locus_tag="MBR_07042" class="clusterblast-orf" id="dummy-1_h1_1_20"  />
</g>
</svg>
