<svg xmlns="http://www.w3.org/2000/svg" xmlns:xlink="http://www.w3.org/1999/xlink" version="1.1" x="0" y="0" height="230" width="800" viewBox="0 0 800 230" preserveAspectRatio="none"  >
<g label="Query sequence" class="clusterblast-cluster"  >
<text x="5" y="20" class="clusterblast-acc"  >
Query sequence</text>
<line x1="10" y1="35" x2="778.0" y2="35" style="stroke-width:1; stroke:grey; "  />
<polygon points="126,40 132,40 137,35 132,30 126,30 126,40 " style="fill:#d81515; stroke-width:1; stroke:black; " description="&lt;b&gt;input.path1.gene459&lt;/b&gt;&lt;br&gt;input.path1.gene459&lt;br&gt;Location: 1562182 - 1562942" locus_tag="input.path1.gene459" class="clusterblast-orf" id="dummy-7_q0_0_all"  />
<polygon points="139,35 144,30 161,30 161,40 144,40 139,35 " style="fill:#5cd815; stroke-width:1; stroke:black; " description="&lt;b&gt;input.path1.gene460&lt;/b&gt;&lt;br&gt;input.path1.gene460&lt;br&gt;Location: 1563067 - 1564513" locus_tag="input.path1.gene460" class="clusterblast-orf" id="dummy-7_q1_0_all"  />
<polygon points="165,40 185,40 190,35 185,30 165,30 165,40 " style="fill:#15a3d8; stroke-width:1; stroke:black; " description="&lt;b&gt;input.path1.gene461&lt;/b&gt;&lt;br&gt;input.path1.gene461&lt;br&gt;Location: 1564750 - 1566413" locus_tag="input.path1.gene461" class="clusterblast-orf" id="dummy-7_q2_0_all"  />
<polygon points="193,40 215,40 220,35 215,30 193,30 193,40 " style="fill:#15a3d8; stroke-width:1; stroke:black; " description="&lt;b&gt;input.path1.gene462&lt;/b&gt;&lt;br&gt;input.path1.gene462&lt;br&gt;Location: 1566637 - 1568404" locus_tag="input.path1.gene462" class="clusterblast-orf" id="dummy-7_q3_0_all"  />
<polygon points="221,35 226,30 241,30 241,40 226,40 221,35 " style="fill:#c715d8; stroke-width:1; stroke:black; " description="&lt;b&gt;input.path1.gene463&lt;/b&gt;&lt;br&gt;input.path1.gene463&lt;br&gt;Location: 1568501 - 1569851" locus_tag="input.path1.gene463" class="clusterblast-orf" id="dummy-7_q4_0_all"  />
<polygon points="258,40 263,40 268,35 263,30 258,30 258,40 " style="fill:#d88015; stroke-width:1; stroke:black; " description="&lt;b&gt;input.path1.gene464&lt;/b&gt;&lt;br&gt;input.path1.gene464&lt;br&gt;Location: 1570971 - 1571599" locus_tag="input.path1.gene464" class="clusterblast-orf" id="dummy-7_q5_0_all"  />
<polygon points="289,40 294,40 299,35 294,30 289,30 289,40 " style="fill:#d88015; stroke-width:1; stroke:black; " description="&lt;b&gt;input.path1.gene465&lt;/b&gt;&lt;br&gt;input.path1.gene465&lt;br&gt;Location: 1573015 - 1573704" locus_tag="input.path1.gene465" class="clusterblast-orf" id="dummy-7_q6_0_all"  />
<polygon points="307,35 312,30 317,30 317,40 312,40 307,35 " style="fill:white; stroke-width:1; stroke:black; " description="&lt;b&gt;input.path1.gene466&lt;/b&gt;&lt;br&gt;input.path1.gene466&lt;br&gt;Location: 1574200 - 1574893" locus_tag="input.path1.gene466" class="clusterblast-orf" id="dummy-7_q7_0_all"  />
<polygon points="328,35 333,30 352,30 352,40 333,40 328,35 " style="fill:#15d839; stroke-width:1; stroke:black; " description="&lt;b&gt;input.path1.gene467&lt;/b&gt;&lt;br&gt;input.path1.gene467&lt;br&gt;Location: 1575590 - 1577196" locus_tag="input.path1.gene467" class="clusterblast-orf" id="dummy-7_q8_0_all"  />
<polygon points="372,40 401,40 406,35 401,30 372,30 372,40 " style="fill:#1539d8; stroke-width:1; stroke:black; " description="&lt;b&gt;input.path1.gene468&lt;/b&gt;&lt;br&gt;input.path1.gene468&lt;br&gt;Location: 1578509 - 1580785" locus_tag="input.path1.gene468" class="clusterblast-orf" id="dummy-7_q9_0_all"  />
<polygon points="408,35 413,30 423,30 423,40 413,40 408,35 " style="fill:#d81580; stroke-width:1; stroke:black; " description="&lt;b&gt;input.path1.gene469&lt;/b&gt;&lt;br&gt;input.path1.gene469&lt;br&gt;Location: 1580932 - 1581898" locus_tag="input.path1.gene469" class="clusterblast-orf" id="dummy-7_q10_0_all"  />
<polygon points="428,40 437,40 442,35 437,30 428,30 428,40 " style="fill:#c7d815; stroke-width:1; stroke:black; " description="&lt;b&gt;input.path1.gene470&lt;/b&gt;&lt;br&gt;input.path1.gene470&lt;br&gt;Location: 1582266 - 1583156" locus_tag="input.path1.gene470" class="clusterblast-orf" id="dummy-7_q11_0_all"  />
<polygon points="458,40 480,40 485,35 480,30 458,30 458,40 " style="fill:#15d8a3; stroke-width:1; stroke:black; " description="&lt;b&gt;input.path1.gene471&lt;/b&gt;&lt;br&gt;input.path1.gene471&lt;br&gt;Location: 1584265 - 1586037" locus_tag="input.path1.gene471" class="clusterblast-orf" id="dummy-7_q12_0_all"  />
<polygon points="503,40 519,40 524,35 519,30 503,30 503,40 " style="fill:#5c15d8; stroke-width:1; stroke:black; " description="&lt;b&gt;input.path1.gene472&lt;/b&gt;&lt;br&gt;input.path1.gene472&lt;br&gt;Location: 1587249 - 1588640" locus_tag="input.path1.gene472" class="clusterblast-orf" id="dummy-7_q13_0_all"  />
<polygon points="542,40 544,40 549,35 544,30 542,30 542,40 " style="fill:white; stroke-width:1; stroke:black; " description="&lt;b&gt;input.path1.gene473&lt;/b&gt;&lt;br&gt;input.path1.gene473&lt;br&gt;Location: 1589829 - 1590293" locus_tag="input.path1.gene473" class="clusterblast-orf" id="dummy-7_q14_0_all"  />
<polygon points="564,40 599,40 604,35 599,30 564,30 564,40 " style="fill:white; stroke-width:1; stroke:black; " description="&lt;b&gt;input.path1.gene474&lt;/b&gt;&lt;br&gt;input.path1.gene474&lt;br&gt;Location: 1591261 - 1593935" locus_tag="input.path1.gene474" class="clusterblast-orf" id="dummy-7_q15_0_all"  />
<polygon points="605,35 610,30 653,30 653,40 610,40 605,35 " style="fill:white; stroke-width:1; stroke:black; " description="&lt;b&gt;input.path1.gene475&lt;/b&gt;&lt;br&gt;input.path1.gene475&lt;br&gt;Location: 1594011 - 1597234" locus_tag="input.path1.gene475" class="clusterblast-orf" id="dummy-7_q16_0_all"  />
</g>
<g label="NC_036439" description="NC_036439 (4081578-4137471): Aspergillus oryzae RIB40 DNA, chromosome 5 (45% of genes show similarity), fungal-RiPP" class="clusterblast-cluster"  >
<text x="5" y="70" class="clusterblast-acc"  >
<a xlink:href="https://antismash-db.secondarymetabolites.org/area?record=NC_036439&amp;start=4081578&amp;end=4137471" target="_blank">NC_036439 (4081578-4137471)</a>: Aspergillus oryzae RIB40 DNA, chromosome 5 (45% of genes show similarity), fungal-RiPP</text>
<line x1="10" y1="85" x2="778.0" y2="85" style="stroke-width:1; stroke:grey; "  />
</g>
<g id="a7_000"  >
<polygon points="0,90 25,90 30,85 25,80 0,80 0,90 " style="fill:white; stroke-width:1; stroke:black; " description="&lt;b&gt;AO090113000014&lt;/b&gt;&lt;br&gt;&lt;br&gt;Location: 4082858 - 4084902" locus_tag="AO090113000014" class="clusterblast-orf" id="dummy-7_h7_3_0"  />
</g>
<g id="a7_001"  >
<polygon points="75,85 80,80 84,80 84,90 80,90 75,85 " style="fill:white; stroke-width:1; stroke:black; " description="&lt;b&gt;AO090113000015&lt;/b&gt;&lt;br&gt;&lt;br&gt;Location: 4087845 - 4088449" locus_tag="AO090113000015" class="clusterblast-orf" id="dummy-7_h7_3_1"  />
</g>
<g id="a7_002"  >
<polygon points="99,85 104,80 115,80 115,90 104,90 99,85 " style="fill:white; stroke-width:1; stroke:black; " description="&lt;b&gt;AO090113000016&lt;/b&gt;&lt;br&gt;&lt;br&gt;Location: 4089495 - 4090565" locus_tag="AO090113000016" class="clusterblast-orf" id="dummy-7_h7_3_2"  />
</g>
<g id="a7_003"  >
<polygon points="132,85 137,80 142,80 142,90 137,90 132,85 " style="fill:white; stroke-width:1; stroke:black; " description="&lt;b&gt;AO090113000017&lt;/b&gt;&lt;br&gt;&lt;br&gt;Location: 4091695 - 4092300" locus_tag="AO090113000017" class="clusterblast-orf" id="dummy-7_h7_3_3"  />
</g>
<g id="a7_004"  >
<polygon points="163,90 208,90 213,85 208,80 163,80 163,90 " style="fill:white; stroke-width:1; stroke:black; " description="&lt;b&gt;AO090113000019&lt;/b&gt;&lt;br&gt;&lt;br&gt;Location: 4093715 - 4097070" locus_tag="AO090113000019" class="clusterblast-orf" id="dummy-7_h7_3_4"  />
</g>
<g id="a7_005"  >
<polygon points="216,90 227,90 232,85 227,80 216,80 216,90 " style="fill:white; stroke-width:1; stroke:black; " description="&lt;b&gt;AO090113000020&lt;/b&gt;&lt;br&gt;&lt;br&gt;Location: 4097241 - 4098302" locus_tag="AO090113000020" class="clusterblast-orf" id="dummy-7_h7_3_5"  />
</g>
<g id="a7_006"  >
<polygon points="260,90 311,90 316,85 311,80 260,80 260,90 " style="fill:#15a3d8; stroke-width:1; stroke:black; " description="&lt;b&gt;AO090113000021&lt;/b&gt;&lt;br&gt;&lt;br&gt;Location: 4100195 - 4103872&lt;br&gt;&lt;br&gt;&lt;b&gt;BlastP hit with input.path1.gene461&lt;/b&gt;&lt;br&gt;Percentage identity: 47&lt;br&gt;Percentage coverage: 101&lt;br&gt;BLAST bit score: 414&lt;br&gt;E-value: 1.34e-137&lt;br&gt;&lt;br&gt;&lt;b&gt;BlastP hit with input.path1.gene462&lt;/b&gt;&lt;br&gt;Percentage identity: 45&lt;br&gt;Percentage coverage: 98&lt;br&gt;BLAST bit score: 387&lt;br&gt;E-value: 1.39e-127" locus_tag="AO090113000021" class="clusterblast-orf" id="dummy-7_h7_3_6"  />
</g>
<g id="a7_007"  >
<polygon points="319,90 341,90 346,85 341,80 319,80 319,90 " style="fill:#15d839; stroke-width:1; stroke:black; " description="&lt;b&gt;AO090113000022&lt;/b&gt;&lt;br&gt;&lt;br&gt;Location: 4104079 - 4105907&lt;br&gt;&lt;br&gt;&lt;b&gt;BlastP hit with input.path1.gene467&lt;/b&gt;&lt;br&gt;Percentage identity: 49&lt;br&gt;Percentage coverage: 97&lt;br&gt;BLAST bit score: 382&lt;br&gt;E-value: 3.32e-127" locus_tag="AO090113000022" class="clusterblast-orf" id="dummy-7_h7_3_7"  />
</g>
<g id="a7_008"  >
<polygon points="358,90 364,90 369,85 364,80 358,80 358,90 " style="fill:white; stroke-width:1; stroke:black; " description="&lt;b&gt;AO090113000024&lt;/b&gt;&lt;br&gt;&lt;br&gt;Location: 4106649 - 4107379" locus_tag="AO090113000024" class="clusterblast-orf" id="dummy-7_h7_3_8"  />
</g>
<g id="a7_009"  >
<polygon points="375,85 380,80 385,80 385,90 380,90 375,85 " style="fill:#d88015; stroke-width:1; stroke:black; " description="&lt;b&gt;AO090113000025&lt;/b&gt;&lt;br&gt;&lt;br&gt;Location: 4107823 - 4108494&lt;br&gt;&lt;br&gt;&lt;b&gt;BlastP hit with input.path1.gene465&lt;/b&gt;&lt;br&gt;Percentage identity: 70&lt;br&gt;Percentage coverage: 91&lt;br&gt;BLAST bit score: 238&lt;br&gt;E-value: 1.17e-79" locus_tag="AO090113000025" class="clusterblast-orf" id="dummy-7_h7_3_9"  />
</g>
<g id="a7_0010"  >
<polygon points="406,90 424,90 429,85 424,80 406,80 406,90 " style="fill:white; stroke-width:1; stroke:black; " description="&lt;b&gt;AO090113000027&lt;/b&gt;&lt;br&gt;&lt;br&gt;Location: 4109894 - 4111383" locus_tag="AO090113000027" class="clusterblast-orf" id="dummy-7_h7_3_10"  />
</g>
<g id="a7_0011"  >
<polygon points="452,90 478,90 483,85 478,80 452,80 452,90 " style="fill:#15d8a3; stroke-width:1; stroke:black; " description="&lt;b&gt;AO090113000029&lt;/b&gt;&lt;br&gt;&lt;br&gt;Location: 4112907 - 4114971&lt;br&gt;&lt;br&gt;&lt;b&gt;BlastP hit with input.path1.gene471&lt;/b&gt;&lt;br&gt;Percentage identity: 49&lt;br&gt;Percentage coverage: 111&lt;br&gt;BLAST bit score: 497&lt;br&gt;E-value: 2.66e-170" locus_tag="AO090113000029" class="clusterblast-orf" id="dummy-7_h7_3_11"  />
</g>
<g id="a7_0012"  >
<polygon points="484,85 489,80 506,80 506,90 489,90 484,85 " style="fill:#5cd815; stroke-width:1; stroke:black; " description="&lt;b&gt;AO090113000030&lt;/b&gt;&lt;br&gt;&lt;br&gt;Location: 4115079 - 4116528&lt;br&gt;&lt;br&gt;&lt;b&gt;BlastP hit with input.path1.gene460&lt;/b&gt;&lt;br&gt;Percentage identity: 52&lt;br&gt;Percentage coverage: 119&lt;br&gt;BLAST bit score: 419&lt;br&gt;E-value: 1.1e-143" locus_tag="AO090113000030" class="clusterblast-orf" id="dummy-7_h7_3_12"  />
</g>
<g id="a7_0013"  >
<polygon points="510,90 530,90 535,85 530,80 510,80 510,90 " style="fill:#15a3d8; stroke-width:1; stroke:black; " description="&lt;b&gt;AO090113000031&lt;/b&gt;&lt;br&gt;&lt;br&gt;Location: 4116793 - 4118442&lt;br&gt;&lt;br&gt;&lt;b&gt;BlastP hit with input.path1.gene461&lt;/b&gt;&lt;br&gt;Percentage identity: 48&lt;br&gt;Percentage coverage: 103&lt;br&gt;BLAST bit score: 469&lt;br&gt;E-value: 2.04e-160&lt;br&gt;&lt;br&gt;&lt;b&gt;BlastP hit with input.path1.gene462&lt;/b&gt;&lt;br&gt;Percentage identity: 39&lt;br&gt;Percentage coverage: 101&lt;br&gt;BLAST bit score: 353&lt;br&gt;E-value: 3.14e-115" locus_tag="AO090113000031" class="clusterblast-orf" id="dummy-7_h7_3_13"  />
</g>
<g id="a7_0014"  >
<polygon points="538,90 554,90 559,85 554,80 538,80 538,90 " style="fill:#c715d8; stroke-width:1; stroke:black; " description="&lt;b&gt;AO090113000032&lt;/b&gt;&lt;br&gt;&lt;br&gt;Location: 4118657 - 4120032&lt;br&gt;&lt;br&gt;&lt;b&gt;BlastP hit with input.path1.gene463&lt;/b&gt;&lt;br&gt;Percentage identity: 55&lt;br&gt;Percentage coverage: 106&lt;br&gt;BLAST bit score: 399&lt;br&gt;E-value: 3.53e-137" locus_tag="AO090113000032" class="clusterblast-orf" id="dummy-7_h7_3_14"  />
</g>
<g id="a7_0015"  >
<polygon points="563,85 568,80 573,80 573,90 568,90 563,85 " style="fill:white; stroke-width:1; stroke:black; " description="&lt;b&gt;AO090113000033&lt;/b&gt;&lt;br&gt;&lt;br&gt;Location: 4120286 - 4120993" locus_tag="AO090113000033" class="clusterblast-orf" id="dummy-7_h7_3_15"  />
</g>
<g id="a7_0016"  >
<polygon points="580,85 585,80 588,80 588,90 585,90 580,85 " style="fill:#5c15d8; stroke-width:1; stroke:black; " description="&lt;b&gt;AO090113000034&lt;/b&gt;&lt;br&gt;&lt;br&gt;Location: 4121446 - 4121947&lt;br&gt;&lt;br&gt;&lt;b&gt;BlastP hit with input.path1.gene472&lt;/b&gt;&lt;br&gt;Percentage identity: 49&lt;br&gt;Percentage coverage: 20&lt;br&gt;BLAST bit score: 76&lt;br&gt;E-value: 2.1e-14" locus_tag="AO090113000034" class="clusterblast-orf" id="dummy-7_h7_3_16"  />
</g>
<g id="a7_0017"  >
<polygon points="596,90 619,90 624,85 619,80 596,80 596,90 " style="fill:white; stroke-width:1; stroke:black; " description="&lt;b&gt;AO090113000035&lt;/b&gt;&lt;br&gt;&lt;br&gt;Location: 4122516 - 4124342" locus_tag="AO090113000035" class="clusterblast-orf" id="dummy-7_h7_3_17"  />
</g>
<g id="a7_0018"  >
<polygon points="628,85 633,80 642,80 642,90 633,90 628,85 " style="fill:#d81580; stroke-width:1; stroke:black; " description="&lt;b&gt;AO090113000036&lt;/b&gt;&lt;br&gt;&lt;br&gt;Location: 4124649 - 4125539&lt;br&gt;&lt;br&gt;&lt;b&gt;BlastP hit with input.path1.gene469&lt;/b&gt;&lt;br&gt;Percentage identity: 45&lt;br&gt;Percentage coverage: 93&lt;br&gt;BLAST bit score: 238&lt;br&gt;E-value: 4.85e-75" locus_tag="AO090113000036" class="clusterblast-orf" id="dummy-7_h7_3_18"  />
</g>
<g id="a7_0019"  >
<polygon points="648,90 654,90 659,85 654,80 648,80 648,90 " style="fill:#c7d815; stroke-width:1; stroke:black; " description="&lt;b&gt;AO090113000037&lt;/b&gt;&lt;br&gt;&lt;br&gt;Location: 4125962 - 4126693&lt;br&gt;&lt;br&gt;&lt;b&gt;BlastP hit with input.path1.gene470&lt;/b&gt;&lt;br&gt;Percentage identity: 68&lt;br&gt;Percentage coverage: 88&lt;br&gt;BLAST bit score: 317&lt;br&gt;E-value: 1.05e-107" locus_tag="AO090113000037" class="clusterblast-orf" id="dummy-7_h7_3_19"  />
</g>
<g id="a7_0020"  >
<polygon points="662,85 667,80 689,80 689,90 667,90 662,85 " style="fill:white; stroke-width:1; stroke:black; " description="&lt;b&gt;AO090113000038&lt;/b&gt;&lt;br&gt;&lt;br&gt;Location: 4126884 - 4128681" locus_tag="AO090113000038" class="clusterblast-orf" id="dummy-7_h7_3_20"  />
</g>
<g id="a7_0021"  >
<polygon points="743,85 748,80 780,80 780,90 748,90 743,85 " style="fill:white; stroke-width:1; stroke:black; " description="&lt;b&gt;AO090113000039&lt;/b&gt;&lt;br&gt;&lt;br&gt;Location: 4132250 - 4134688" locus_tag="AO090113000039" class="clusterblast-orf" id="dummy-7_h7_3_21"  />
</g>
</svg>
