<svg xmlns="http://www.w3.org/2000/svg" xmlns:xlink="http://www.w3.org/1999/xlink" version="1.1" x="0" y="0" height="230" width="800" viewBox="0 0 800 230" preserveAspectRatio="none"  >
<g label="Query sequence" class="clusterblast-cluster"  >
<text x="5" y="20" class="clusterblast-acc"  >
Query sequence</text>
<line x1="10" y1="35" x2="778.0" y2="35" style="stroke-width:1; stroke:grey; "  />
<polygon points="159,40 170,40 175,35 170,30 159,30 159,40 " style="fill:#d81515; stroke-width:1; stroke:black; " description="&lt;b&gt;input.path1.gene175&lt;/b&gt;&lt;br&gt;input.path1.gene175&lt;br&gt;Location: 575635 - 577763" locus_tag="input.path1.gene175" class="clusterblast-orf" id="dummy-1_q0_0_all"  />
<polygon points="183,35 188,30 190,30 190,40 188,40 183,35 " style="fill:#77d815; stroke-width:1; stroke:black; " description="&lt;b&gt;input.path1.gene176&lt;/b&gt;&lt;br&gt;input.path1.gene176&lt;br&gt;Location: 578729 - 579608" locus_tag="input.path1.gene176" class="clusterblast-orf" id="dummy-1_q1_0_all"  />
<polygon points="195,40 198,35 195,30 195,40 " style="fill:white; stroke-width:1; stroke:black; " description="&lt;b&gt;input.path1.gene177&lt;/b&gt;&lt;br&gt;input.path1.gene177&lt;br&gt;Location: 580238 - 580714" locus_tag="input.path1.gene177" class="clusterblast-orf" id="dummy-1_q2_0_all"  />
<polygon points="204,35 209,30 236,30 236,40 209,40 204,35 " style="fill:white; stroke-width:1; stroke:black; " description="&lt;b&gt;input.path1.gene178&lt;/b&gt;&lt;br&gt;input.path1.gene178&lt;br&gt;Location: 581444 - 585606" locus_tag="input.path1.gene178" class="clusterblast-orf" id="dummy-1_q3_0_all"  />
<polygon points="247,40 249,40 254,35 249,30 247,30 247,40 " style="fill:white; stroke-width:1; stroke:black; " description="&lt;b&gt;input.path1.gene179&lt;/b&gt;&lt;br&gt;input.path1.gene179&lt;br&gt;Location: 586934 - 587934" locus_tag="input.path1.gene179" class="clusterblast-orf" id="dummy-1_q4_0_all"  />
<polygon points="270,40 275,40 280,35 275,30 270,30 270,40 " style="fill:white; stroke-width:1; stroke:black; " description="&lt;b&gt;input.path1.gene180&lt;/b&gt;&lt;br&gt;input.path1.gene180&lt;br&gt;Location: 589908 - 591163" locus_tag="input.path1.gene180" class="clusterblast-orf" id="dummy-1_q5_0_all"  />
<polygon points="284,35 289,30 293,30 293,40 289,40 284,35 " style="fill:white; stroke-width:1; stroke:black; " description="&lt;b&gt;input.path1.gene181&lt;/b&gt;&lt;br&gt;input.path1.gene181&lt;br&gt;Location: 591681 - 592884" locus_tag="input.path1.gene181" class="clusterblast-orf" id="dummy-1_q6_0_all"  />
<polygon points="293,40 293,40 298,35 293,30 293,30 293,40 " style="fill:white; stroke-width:1; stroke:black; " description="&lt;b&gt;input.path1.gene182&lt;/b&gt;&lt;br&gt;input.path1.gene182&lt;br&gt;Location: 592923 - 593583" locus_tag="input.path1.gene182" class="clusterblast-orf" id="dummy-1_q7_0_all"  />
<polygon points="299,35 304,30 311,30 311,40 304,40 299,35 " style="fill:#15d8d8; stroke-width:1; stroke:black; " description="&lt;b&gt;input.path1.gene183&lt;/b&gt;&lt;br&gt;input.path1.gene183&lt;br&gt;Location: 593633 - 595177" locus_tag="input.path1.gene183" class="clusterblast-orf" id="dummy-1_q8_0_all"  />
<polygon points="317,40 321,40 326,35 321,30 317,30 317,40 " style="fill:white; stroke-width:1; stroke:black; " description="&lt;b&gt;input.path1.gene184&lt;/b&gt;&lt;br&gt;input.path1.gene184&lt;br&gt;Location: 595983 - 597188" locus_tag="input.path1.gene184" class="clusterblast-orf" id="dummy-1_q9_0_all"  />
<polygon points="331,40 336,40 341,35 336,30 331,30 331,40 " style="fill:white; stroke-width:1; stroke:black; " description="&lt;b&gt;input.path1.gene185&lt;/b&gt;&lt;br&gt;input.path1.gene185&lt;br&gt;Location: 597832 - 599036" locus_tag="input.path1.gene185" class="clusterblast-orf" id="dummy-1_q10_0_all"  />
<polygon points="346,35 350,30 350,40 346,35 " style="fill:white; stroke-width:1; stroke:black; " description="&lt;b&gt;input.path1.gene186&lt;/b&gt;&lt;br&gt;input.path1.gene186&lt;br&gt;Location: 599644 - 600227" locus_tag="input.path1.gene186" class="clusterblast-orf" id="dummy-1_q11_0_all"  />
<polygon points="360,40 382,40 387,35 382,30 360,30 360,40 " style="fill:#7715d8; stroke-width:1; stroke:black; " description="&lt;b&gt;input.path1.gene187&lt;/b&gt;&lt;br&gt;input.path1.gene187&lt;br&gt;Location: 601505 - 604914" locus_tag="input.path1.gene187" class="clusterblast-orf" id="dummy-1_q12_0_all"  />
<polygon points="388,35 393,30 396,30 396,40 393,40 388,35 " style="fill:#d8a715; stroke-width:1; stroke:black; " description="&lt;b&gt;input.path1.gene188&lt;/b&gt;&lt;br&gt;input.path1.gene188&lt;br&gt;Location: 605099 - 606164" locus_tag="input.path1.gene188" class="clusterblast-orf" id="dummy-1_q13_0_all"  />
<polygon points="401,40 403,35 401,30 401,40 " style="fill:white; stroke-width:1; stroke:black; " description="&lt;b&gt;input.path1.gene189&lt;/b&gt;&lt;br&gt;input.path1.gene189&lt;br&gt;Location: 606725 - 606998" locus_tag="input.path1.gene189" class="clusterblast-orf" id="dummy-1_q14_0_all"  />
<polygon points="427,35 432,30 432,30 432,40 432,40 427,35 " style="fill:white; stroke-width:1; stroke:black; " description="&lt;b&gt;input.path1.gene190&lt;/b&gt;&lt;br&gt;input.path1.gene190&lt;br&gt;Location: 610066 - 610722" locus_tag="input.path1.gene190" class="clusterblast-orf" id="dummy-1_q15_0_all"  />
<polygon points="439,40 442,40 447,35 442,30 439,30 439,40 " style="fill:#15d846; stroke-width:1; stroke:black; " description="&lt;b&gt;input.path1.gene191&lt;/b&gt;&lt;br&gt;input.path1.gene191&lt;br&gt;Location: 611648 - 612684" locus_tag="input.path1.gene191" class="clusterblast-orf" id="dummy-1_q16_0_all"  />
<polygon points="453,35 458,30 470,30 470,40 458,40 453,35 " style="fill:#1546d8; stroke-width:1; stroke:black; " description="&lt;b&gt;input.path1.gene192&lt;/b&gt;&lt;br&gt;input.path1.gene192&lt;br&gt;Location: 613408 - 615630" locus_tag="input.path1.gene192" class="clusterblast-orf" id="dummy-1_q17_0_all"  />
<polygon points="478,40 482,40 487,35 482,30 478,30 478,40 " style="fill:white; stroke-width:1; stroke:black; " description="&lt;b&gt;input.path1.gene193&lt;/b&gt;&lt;br&gt;input.path1.gene193&lt;br&gt;Location: 616649 - 617811" locus_tag="input.path1.gene193" class="clusterblast-orf" id="dummy-1_q18_0_all"  />
<polygon points="487,35 492,30 493,30 493,40 492,40 487,35 " style="fill:white; stroke-width:1; stroke:black; " description="&lt;b&gt;input.path1.gene194&lt;/b&gt;&lt;br&gt;input.path1.gene194&lt;br&gt;Location: 617807 - 618592" locus_tag="input.path1.gene194" class="clusterblast-orf" id="dummy-1_q19_0_all"  />
<polygon points="498,40 507,40 512,35 507,30 498,30 498,40 " style="fill:#d815a7; stroke-width:1; stroke:black; " description="&lt;b&gt;input.path1.gene195&lt;/b&gt;&lt;br&gt;input.path1.gene195&lt;br&gt;Location: 619249 - 620985" locus_tag="input.path1.gene195" class="clusterblast-orf" id="dummy-1_q20_0_all"  />
<polygon points="514,35 519,30 523,30 523,40 519,40 514,35 " style="fill:white; stroke-width:1; stroke:black; " description="&lt;b&gt;input.path1.gene196&lt;/b&gt;&lt;br&gt;input.path1.gene196&lt;br&gt;Location: 621307 - 622459" locus_tag="input.path1.gene196" class="clusterblast-orf" id="dummy-1_q21_0_all"  />
<polygon points="545,40 547,40 552,35 547,30 545,30 545,40 " style="fill:white; stroke-width:1; stroke:black; " description="&lt;b&gt;input.path1.gene197&lt;/b&gt;&lt;br&gt;input.path1.gene197&lt;br&gt;Location: 625293 - 626116" locus_tag="input.path1.gene197" class="clusterblast-orf" id="dummy-1_q22_0_all"  />
<polygon points="559,40 559,35 559,30 559,40 " style="fill:white; stroke-width:1; stroke:black; " description="&lt;b&gt;input.path1.gene198&lt;/b&gt;&lt;br&gt;input.path1.gene198&lt;br&gt;Location: 627022 - 627130" locus_tag="input.path1.gene198" class="clusterblast-orf" id="dummy-1_q23_0_all"  />
<polygon points="575,40 586,40 591,35 586,30 575,30 575,40 " style="fill:white; stroke-width:1; stroke:black; " description="&lt;b&gt;input.path1.gene199&lt;/b&gt;&lt;br&gt;input.path1.gene199&lt;br&gt;Location: 629101 - 631130" locus_tag="input.path1.gene199" class="clusterblast-orf" id="dummy-1_q24_0_all"  />
<polygon points="598,35 603,30 604,30 604,40 603,40 598,35 " style="fill:white; stroke-width:1; stroke:black; " description="&lt;b&gt;input.path1.gene200&lt;/b&gt;&lt;br&gt;input.path1.gene200&lt;br&gt;Location: 632028 - 632863" locus_tag="input.path1.gene200" class="clusterblast-orf" id="dummy-1_q25_0_all"  />
<polygon points="612,35 617,30 620,30 620,40 617,40 612,35 " style="fill:white; stroke-width:1; stroke:black; " description="&lt;b&gt;input.path1.gene201&lt;/b&gt;&lt;br&gt;input.path1.gene201&lt;br&gt;Location: 633915 - 634962" locus_tag="input.path1.gene201" class="clusterblast-orf" id="dummy-1_q26_0_all"  />
</g>
<g label="NW_013550615" description="NW_013550615 (4368823-4474200): Fonsecaea pedrosoi CBS 271.37 unplaced genomi... (5% of genes show similarity), fungal-RiPP-like" class="clusterblast-cluster"  >
<text x="5" y="70" class="clusterblast-acc"  >
<a xlink:href="https://antismash-db.secondarymetabolites.org/area?record=NW_013550615&amp;start=4368823&amp;end=4474200" target="_blank">NW_013550615 (4368823-4474200)</a>: Fonsecaea pedrosoi CBS 271.37 unplaced genomi... (5% of genes show similarity), fungal-RiPP-like</text>
<line x1="10" y1="85" x2="778.0" y2="85" style="stroke-width:1; stroke:grey; "  />
</g>
<g id="a1_000"  >
<polygon points="0,90 3,90 8,85 3,80 0,80 0,90 " style="fill:white; stroke-width:1; stroke:black; " description="&lt;b&gt;Z517_01619&lt;/b&gt;&lt;br&gt;hypothetical protein&lt;br&gt;Location: 4472840 - 4471692" locus_tag="Z517_01619" class="clusterblast-orf" id="dummy-1_h1_5_0"  />
</g>
<g id="a1_001"  >
<polygon points="16,85 21,80 48,80 48,90 21,90 16,85 " style="fill:white; stroke-width:1; stroke:black; " description="&lt;b&gt;Z517_01618&lt;/b&gt;&lt;br&gt;hypothetical protein&lt;br&gt;Location: 4470739 - 4466670" locus_tag="Z517_01618" class="clusterblast-orf" id="dummy-1_h1_5_1"  />
</g>
<g id="a1_002"  >
<polygon points="53,90 54,90 59,85 54,80 53,80 53,90 " style="fill:white; stroke-width:1; stroke:black; " description="&lt;b&gt;Z517_01617&lt;/b&gt;&lt;br&gt;hypothetical protein&lt;br&gt;Location: 4466025 - 4465204" locus_tag="Z517_01617" class="clusterblast-orf" id="dummy-1_h1_5_2"  />
</g>
<g id="a1_003"  >
<polygon points="63,90 69,90 74,85 69,80 63,80 63,90 " style="fill:white; stroke-width:1; stroke:black; " description="&lt;b&gt;Z517_01616&lt;/b&gt;&lt;br&gt;hypothetical protein&lt;br&gt;Location: 4464652 - 4463248" locus_tag="Z517_01616" class="clusterblast-orf" id="dummy-1_h1_5_3"  />
</g>
<g id="a1_004"  >
<polygon points="87,90 96,90 101,85 96,80 87,80 87,90 " style="fill:white; stroke-width:1; stroke:black; " description="&lt;b&gt;Z517_01615&lt;/b&gt;&lt;br&gt;hypothetical protein&lt;br&gt;Location: 4461614 - 4459845" locus_tag="Z517_01615" class="clusterblast-orf" id="dummy-1_h1_5_4"  />
</g>
<g id="a1_005"  >
<polygon points="118,90 130,90 135,85 130,80 118,80 118,90 " style="fill:white; stroke-width:1; stroke:black; " description="&lt;b&gt;Z517_01614&lt;/b&gt;&lt;br&gt;hypothetical protein&lt;br&gt;Location: 4457621 - 4455379" locus_tag="Z517_01614" class="clusterblast-orf" id="dummy-1_h1_5_5"  />
</g>
<g id="a1_006"  >
<polygon points="155,90 155,90 160,85 155,80 155,80 155,90 " style="fill:white; stroke-width:1; stroke:black; " description="&lt;b&gt;Z517_01613&lt;/b&gt;&lt;br&gt;hypothetical protein&lt;br&gt;Location: 4452897 - 4452221" locus_tag="Z517_01613" class="clusterblast-orf" id="dummy-1_h1_5_6"  />
</g>
<g id="a1_007"  >
<polygon points="195,90 197,90 202,85 197,80 195,80 195,90 " style="fill:white; stroke-width:1; stroke:black; " description="&lt;b&gt;Z517_01612&lt;/b&gt;&lt;br&gt;hypothetical protein&lt;br&gt;Location: 4447720 - 4446848" locus_tag="Z517_01612" class="clusterblast-orf" id="dummy-1_h1_5_7"  />
</g>
<g id="a1_008"  >
<polygon points="203,85 208,80 211,80 211,90 208,90 203,85 " style="fill:white; stroke-width:1; stroke:black; " description="&lt;b&gt;Z517_01611&lt;/b&gt;&lt;br&gt;V-type proton ATPase subunit D&lt;br&gt;Location: 4446670 - 4445627" locus_tag="Z517_01611" class="clusterblast-orf" id="dummy-1_h1_5_8"  />
</g>
<g id="a1_009"  >
<polygon points="220,90 235,90 240,85 235,80 220,80 220,90 " style="fill:white; stroke-width:1; stroke:black; " description="&lt;b&gt;Z517_01610&lt;/b&gt;&lt;br&gt;pre-mRNA-splicing factor syf1&lt;br&gt;Location: 4444510 - 4441964" locus_tag="Z517_01610" class="clusterblast-orf" id="dummy-1_h1_5_9"  />
</g>
<g id="a1_0010"  >
<polygon points="247,85 252,80 258,80 258,90 252,90 247,85 " style="fill:white; stroke-width:1; stroke:black; " description="&lt;b&gt;Z517_01609&lt;/b&gt;&lt;br&gt;hypothetical protein&lt;br&gt;Location: 4441003 - 4439570" locus_tag="Z517_01609" class="clusterblast-orf" id="dummy-1_h1_5_10"  />
</g>
<g id="a1_0011"  >
<polygon points="266,85 271,80 281,80 281,90 271,90 266,85 " style="fill:white; stroke-width:1; stroke:black; " description="&lt;b&gt;Z517_01608&lt;/b&gt;&lt;br&gt;hypothetical protein&lt;br&gt;Location: 4438608 - 4436670" locus_tag="Z517_01608" class="clusterblast-orf" id="dummy-1_h1_5_11"  />
</g>
<g id="a1_0012"  >
<polygon points="285,85 290,80 300,80 300,90 290,90 285,85 " style="fill:white; stroke-width:1; stroke:black; " description="&lt;b&gt;Z517_01607&lt;/b&gt;&lt;br&gt;hypothetical protein&lt;br&gt;Location: 4436164 - 4434245" locus_tag="Z517_01607" class="clusterblast-orf" id="dummy-1_h1_5_12"  />
</g>
<g id="a1_0013"  >
<polygon points="317,85 322,80 330,80 330,90 322,90 317,85 " style="fill:#1546d8; stroke-width:1; stroke:black; " description="&lt;b&gt;Z517_01606&lt;/b&gt;&lt;br&gt;T-complex protein 1 subunit alpha&lt;br&gt;Location: 4432057 - 4430348&lt;br&gt;&lt;br&gt;&lt;b&gt;BlastP hit with input.path1.gene192&lt;/b&gt;&lt;br&gt;Percentage identity: 81&lt;br&gt;Percentage coverage: 84&lt;br&gt;BLAST bit score: 888&lt;br&gt;E-value: 0.0" locus_tag="Z517_01606" class="clusterblast-orf" id="dummy-1_h1_5_13"  />
</g>
<g id="a1_0014"  >
<polygon points="339,85 344,80 348,80 348,90 344,90 339,85 " style="fill:white; stroke-width:1; stroke:black; " description="&lt;b&gt;Z517_01605&lt;/b&gt;&lt;br&gt;hypothetical protein&lt;br&gt;Location: 4429200 - 4427999" locus_tag="Z517_01605" class="clusterblast-orf" id="dummy-1_h1_5_14"  />
</g>
<g id="a1_0015"  >
<polygon points="354,90 356,90 361,85 356,80 354,80 354,90 " style="fill:white; stroke-width:1; stroke:black; " description="&lt;b&gt;Z517_01604&lt;/b&gt;&lt;br&gt;hypothetical protein&lt;br&gt;Location: 4427222 - 4426380" locus_tag="Z517_01604" class="clusterblast-orf" id="dummy-1_h1_5_15"  />
</g>
<g id="a1_0016"  >
<polygon points="365,85 370,80 378,80 378,90 370,90 365,85 " style="fill:white; stroke-width:1; stroke:black; " description="&lt;b&gt;Z517_01603&lt;/b&gt;&lt;br&gt;hypothetical protein&lt;br&gt;Location: 4425893 - 4424193" locus_tag="Z517_01603" class="clusterblast-orf" id="dummy-1_h1_5_16"  />
</g>
<g id="a1_0017"  >
<polygon points="388,90 391,90 396,85 391,80 388,80 388,90 " style="fill:white; stroke-width:1; stroke:black; " description="&lt;b&gt;Z517_01602&lt;/b&gt;&lt;br&gt;hypothetical protein&lt;br&gt;Location: 4422870 - 4421855" locus_tag="Z517_01602" class="clusterblast-orf" id="dummy-1_h1_5_17"  />
</g>
<g id="a1_0018"  >
<polygon points="398,90 404,90 409,85 404,80 398,80 398,90 " style="fill:white; stroke-width:1; stroke:black; " description="&lt;b&gt;Z517_01601&lt;/b&gt;&lt;br&gt;hypothetical protein&lt;br&gt;Location: 4421561 - 4420257" locus_tag="Z517_01601" class="clusterblast-orf" id="dummy-1_h1_5_18"  />
</g>
<g id="a1_0019"  >
<polygon points="412,85 417,80 421,80 421,90 417,90 412,85 " style="fill:white; stroke-width:1; stroke:black; " description="&lt;b&gt;Z517_01600&lt;/b&gt;&lt;br&gt;hypothetical protein&lt;br&gt;Location: 4419816 - 4418604" locus_tag="Z517_01600" class="clusterblast-orf" id="dummy-1_h1_5_19"  />
</g>
<g id="a1_0020"  >
<polygon points="435,90 436,90 441,85 436,80 435,80 435,90 " style="fill:white; stroke-width:1; stroke:black; " description="&lt;b&gt;Z517_01599&lt;/b&gt;&lt;br&gt;hypothetical protein&lt;br&gt;Location: 4416886 - 4416081" locus_tag="Z517_01599" class="clusterblast-orf" id="dummy-1_h1_5_20"  />
</g>
<g id="a1_0021"  >
<polygon points="450,90 454,90 459,85 454,80 450,80 450,90 " style="fill:white; stroke-width:1; stroke:black; " description="&lt;b&gt;Z517_01598&lt;/b&gt;&lt;br&gt;hypothetical protein&lt;br&gt;Location: 4414965 - 4413824" locus_tag="Z517_01598" class="clusterblast-orf" id="dummy-1_h1_5_21"  />
</g>
<g id="a1_0022"  >
<polygon points="465,85 469,80 469,90 465,85 " style="fill:white; stroke-width:1; stroke:black; " description="&lt;b&gt;Z517_01597&lt;/b&gt;&lt;br&gt;hypothetical protein&lt;br&gt;Location: 4413011 - 4412523" locus_tag="Z517_01597" class="clusterblast-orf" id="dummy-1_h1_5_22"  />
</g>
<g id="a1_0023"  >
<polygon points="481,85 486,80 491,80 491,90 486,90 481,85 " style="fill:white; stroke-width:1; stroke:black; " description="&lt;b&gt;Z517_01596&lt;/b&gt;&lt;br&gt;hypothetical protein&lt;br&gt;Location: 4410955 - 4409637" locus_tag="Z517_01596" class="clusterblast-orf" id="dummy-1_h1_5_23"  />
</g>
<g id="a1_0024"  >
<polygon points="502,90 508,90 513,85 508,80 502,80 502,90 " style="fill:white; stroke-width:1; stroke:black; " description="&lt;b&gt;Z517_01595&lt;/b&gt;&lt;br&gt;hypothetical protein&lt;br&gt;Location: 4408313 - 4406784" locus_tag="Z517_01595" class="clusterblast-orf" id="dummy-1_h1_5_24"  />
</g>
<g id="a1_0025"  >
<polygon points="521,85 526,80 536,80 536,90 526,90 521,85 " style="fill:white; stroke-width:1; stroke:black; " description="&lt;b&gt;Z517_01594&lt;/b&gt;&lt;br&gt;hypothetical protein&lt;br&gt;Location: 4405759 - 4403870" locus_tag="Z517_01594" class="clusterblast-orf" id="dummy-1_h1_5_25"  />
</g>
<g id="a1_0026"  >
<polygon points="548,90 557,90 562,85 557,80 548,80 548,90 " style="fill:#d815a7; stroke-width:1; stroke:black; " description="&lt;b&gt;Z517_01593&lt;/b&gt;&lt;br&gt;proline-tRNA ligase&lt;br&gt;Location: 4402292 - 4400562&lt;br&gt;&lt;br&gt;&lt;b&gt;BlastP hit with input.path1.gene195&lt;/b&gt;&lt;br&gt;Percentage identity: 59&lt;br&gt;Percentage coverage: 95&lt;br&gt;BLAST bit score: 669&lt;br&gt;E-value: 1.17e-236" locus_tag="Z517_01593" class="clusterblast-orf" id="dummy-1_h1_5_26"  />
</g>
<g id="a1_0027"  >
<polygon points="570,90 575,90 580,85 575,80 570,80 570,90 " style="fill:white; stroke-width:1; stroke:black; " description="&lt;b&gt;Z517_01592&lt;/b&gt;&lt;br&gt;hypothetical protein&lt;br&gt;Location: 4399476 - 4398208" locus_tag="Z517_01592" class="clusterblast-orf" id="dummy-1_h1_5_27"  />
</g>
<g id="a1_0028"  >
<polygon points="585,85 590,80 596,80 596,90 590,90 585,85 " style="fill:white; stroke-width:1; stroke:black; " description="&lt;b&gt;Z517_01591&lt;/b&gt;&lt;br&gt;serine/threonine-protein phosphatase 4 catalytic subunit B&lt;br&gt;Location: 4397549 - 4396129" locus_tag="Z517_01591" class="clusterblast-orf" id="dummy-1_h1_5_28"  />
</g>
<g id="a1_0029"  >
<polygon points="602,90 606,85 602,80 602,90 " style="fill:white; stroke-width:1; stroke:black; " description="&lt;b&gt;Z517_01590&lt;/b&gt;&lt;br&gt;hypothetical protein&lt;br&gt;Location: 4395371 - 4394859" locus_tag="Z517_01590" class="clusterblast-orf" id="dummy-1_h1_5_29"  />
</g>
<g id="a1_0030"  >
<polygon points="614,85 619,80 625,80 625,90 619,90 614,85 " style="fill:white; stroke-width:1; stroke:black; " description="&lt;b&gt;Z517_01589&lt;/b&gt;&lt;br&gt;hypothetical protein&lt;br&gt;Location: 4393925 - 4392389" locus_tag="Z517_01589" class="clusterblast-orf" id="dummy-1_h1_5_30"  />
</g>
<g id="a1_0031"  >
<polygon points="633,85 638,80 655,80 655,90 638,90 633,85 " style="fill:white; stroke-width:1; stroke:black; " description="&lt;b&gt;Z517_01588&lt;/b&gt;&lt;br&gt;hypothetical protein&lt;br&gt;Location: 4391422 - 4388577" locus_tag="Z517_01588" class="clusterblast-orf" id="dummy-1_h1_5_31"  />
</g>
<g id="a1_0032"  >
<polygon points="668,90 678,90 683,85 678,80 668,80 668,90 " style="fill:white; stroke-width:1; stroke:black; " description="&lt;b&gt;Z517_01587&lt;/b&gt;&lt;br&gt;hypothetical protein&lt;br&gt;Location: 4386960 - 4384963" locus_tag="Z517_01587" class="clusterblast-orf" id="dummy-1_h1_5_32"  />
</g>
<g id="a1_0033"  >
<polygon points="691,85 696,80 707,80 707,90 696,90 691,85 " style="fill:white; stroke-width:1; stroke:black; " description="&lt;b&gt;Z517_01586&lt;/b&gt;&lt;br&gt;hypothetical protein&lt;br&gt;Location: 4384026 - 4381894" locus_tag="Z517_01586" class="clusterblast-orf" id="dummy-1_h1_5_33"  />
</g>
<g id="a1_0034"  >
<polygon points="711,90 748,90 753,85 748,80 711,80 711,90 " style="fill:white; stroke-width:1; stroke:black; " description="&lt;b&gt;Z517_01585&lt;/b&gt;&lt;br&gt;hypothetical protein&lt;br&gt;Location: 4381412 - 4376031" locus_tag="Z517_01585" class="clusterblast-orf" id="dummy-1_h1_5_34"  />
</g>
<g id="a1_0035"  >
<polygon points="766,90 775,90 780,85 775,80 766,80 766,90 " style="fill:white; stroke-width:1; stroke:black; " description="&lt;b&gt;Z517_01584&lt;/b&gt;&lt;br&gt;hypothetical protein&lt;br&gt;Location: 4374278 - 4372590" locus_tag="Z517_01584" class="clusterblast-orf" id="dummy-1_h1_5_35"  />
</g>
</svg>
