<svg xmlns="http://www.w3.org/2000/svg" xmlns:xlink="http://www.w3.org/1999/xlink" version="1.1" x="0" y="0" height="230" width="800" viewBox="0 0 800 230" preserveAspectRatio="none"  >
<g label="Query sequence" class="clusterblast-cluster"  >
<text x="5" y="20" class="clusterblast-acc"  >
Query sequence</text>
<line x1="10" y1="35" x2="778.0" y2="35" style="stroke-width:1; stroke:grey; "  />
<polygon points="128,35 133,30 139,30 139,40 133,40 128,35 " style="fill:#d81515; stroke-width:1; stroke:black; " description="&lt;b&gt;input.path1.gene446&lt;/b&gt;&lt;br&gt;input.path1.gene446&lt;br&gt;Location: 1644352 - 1645161" locus_tag="input.path1.gene446" class="clusterblast-orf" id="dummy-2_q0_0_all"  />
<polygon points="151,40 157,40 162,35 157,30 151,30 151,40 " style="fill:#5cd815; stroke-width:1; stroke:black; " description="&lt;b&gt;input.path1.gene447&lt;/b&gt;&lt;br&gt;input.path1.gene447&lt;br&gt;Location: 1646137 - 1646951" locus_tag="input.path1.gene447" class="clusterblast-orf" id="dummy-2_q1_0_all"  />
<polygon points="171,40 210,40 215,35 210,30 171,30 171,40 " style="fill:#15a3d8; stroke-width:1; stroke:black; " description="&lt;b&gt;input.path1.gene448&lt;/b&gt;&lt;br&gt;input.path1.gene448&lt;br&gt;Location: 1647712 - 1651160" locus_tag="input.path1.gene448" class="clusterblast-orf" id="dummy-2_q2_0_all"  />
<polygon points="219,35 224,30 231,30 231,40 224,40 219,35 " style="fill:#c715d8; stroke-width:1; stroke:black; " description="&lt;b&gt;input.path1.gene449&lt;/b&gt;&lt;br&gt;input.path1.gene449&lt;br&gt;Location: 1651439 - 1652444" locus_tag="input.path1.gene449" class="clusterblast-orf" id="dummy-2_q3_0_all"  />
<polygon points="244,40 247,40 252,35 247,30 244,30 244,40 " style="fill:white; stroke-width:1; stroke:black; " description="&lt;b&gt;input.path1.gene450&lt;/b&gt;&lt;br&gt;input.path1.gene450&lt;br&gt;Location: 1653400 - 1654029" locus_tag="input.path1.gene450" class="clusterblast-orf" id="dummy-2_q4_0_all"  />
<polygon points="258,35 263,30 269,30 269,40 263,40 258,35 " style="fill:#d88015; stroke-width:1; stroke:black; " description="&lt;b&gt;input.path1.gene451&lt;/b&gt;&lt;br&gt;input.path1.gene451&lt;br&gt;Location: 1654487 - 1655369" locus_tag="input.path1.gene451" class="clusterblast-orf" id="dummy-2_q5_0_all"  />
<polygon points="275,35 280,30 296,30 296,40 280,40 275,35 " style="fill:#d88015; stroke-width:1; stroke:black; " description="&lt;b&gt;input.path1.gene452&lt;/b&gt;&lt;br&gt;input.path1.gene452&lt;br&gt;Location: 1655864 - 1657474" locus_tag="input.path1.gene452" class="clusterblast-orf" id="dummy-2_q6_0_all"  />
<polygon points="298,35 303,30 321,30 321,40 303,40 298,35 " style="fill:#15d839; stroke-width:1; stroke:black; " description="&lt;b&gt;input.path1.gene453&lt;/b&gt;&lt;br&gt;input.path1.gene453&lt;br&gt;Location: 1657636 - 1659436" locus_tag="input.path1.gene453" class="clusterblast-orf" id="dummy-2_q7_0_all"  />
<polygon points="355,40 412,40 417,35 412,30 355,30 355,40 " style="fill:#1539d8; stroke-width:1; stroke:black; " description="&lt;b&gt;input.path1.gene454&lt;/b&gt;&lt;br&gt;input.path1.gene454&lt;br&gt;Location: 1662104 - 1666976" locus_tag="input.path1.gene454" class="clusterblast-orf" id="dummy-2_q8_0_all"  />
<polygon points="425,35 430,30 471,30 471,40 430,40 425,35 " style="fill:#d81580; stroke-width:1; stroke:black; " description="&lt;b&gt;input.path1.gene455&lt;/b&gt;&lt;br&gt;input.path1.gene455&lt;br&gt;Location: 1667671 - 1671220" locus_tag="input.path1.gene455" class="clusterblast-orf" id="dummy-2_q9_0_all"  />
<polygon points="522,35 527,30 531,30 531,40 527,40 522,35 " style="fill:#c7d815; stroke-width:1; stroke:black; " description="&lt;b&gt;input.path1.gene456&lt;/b&gt;&lt;br&gt;input.path1.gene456&lt;br&gt;Location: 1675234 - 1675999" locus_tag="input.path1.gene456" class="clusterblast-orf" id="dummy-2_q10_0_all"  />
<polygon points="543,40 572,40 577,35 572,30 543,30 543,40 " style="fill:#15d8a3; stroke-width:1; stroke:black; " description="&lt;b&gt;input.path1.gene457&lt;/b&gt;&lt;br&gt;input.path1.gene457&lt;br&gt;Location: 1676929 - 1679541" locus_tag="input.path1.gene457" class="clusterblast-orf" id="dummy-2_q11_0_all"  />
<polygon points="580,35 585,30 616,30 616,40 585,40 580,35 " style="fill:#5c15d8; stroke-width:1; stroke:black; " description="&lt;b&gt;input.path1.gene458&lt;/b&gt;&lt;br&gt;input.path1.gene458&lt;br&gt;Location: 1679827 - 1682602" locus_tag="input.path1.gene458" class="clusterblast-orf" id="dummy-2_q12_0_all"  />
<polygon points="638,35 643,30 651,30 651,40 643,40 638,35 " style="fill:white; stroke-width:1; stroke:black; " description="&lt;b&gt;input.path1.gene459&lt;/b&gt;&lt;br&gt;input.path1.gene459&lt;br&gt;Location: 1684392 - 1685370" locus_tag="input.path1.gene459" class="clusterblast-orf" id="dummy-2_q13_0_all"  />
</g>
<g label="NW_006271970" description="NW_006271970 (1632104-1696976): Cordyceps militaris CM01 unplaced genomic sca... (54% of genes show similarity), NRPS" class="clusterblast-cluster"  >
<text x="5" y="70" class="clusterblast-acc"  >
<a xlink:href="https://antismash-db.secondarymetabolites.org/area?record=NW_006271970&amp;start=1632104&amp;end=1696976" target="_blank">NW_006271970 (1632104-1696976)</a>: Cordyceps militaris CM01 unplaced genomic sca... (54% of genes show similarity), NRPS</text>
<line x1="10" y1="85" x2="778.0" y2="85" style="stroke-width:1; stroke:grey; "  />
</g>
<g id="a2_000"  >
<polygon points="0,85 5,80 18,80 18,90 5,90 0,85 " style="fill:white; stroke-width:1; stroke:black; " description="&lt;b&gt;CCM_02426&lt;/b&gt;&lt;br&gt;NFX1-type zinc finger-containing protein 1&lt;br&gt;Location: 1633211 - 1634701" locus_tag="CCM_02426" class="clusterblast-orf" id="dummy-2_h2_1_0"  />
</g>
<g id="a2_001"  >
<polygon points="85,85 90,80 128,80 128,90 90,90 85,85 " style="fill:white; stroke-width:1; stroke:black; " description="&lt;b&gt;CCM_02427&lt;/b&gt;&lt;br&gt;HEAT repeat containing protein&lt;br&gt;Location: 1639962 - 1643327" locus_tag="CCM_02427" class="clusterblast-orf" id="dummy-2_h2_1_1"  />
</g>
<g id="a2_002"  >
<polygon points="141,85 146,80 149,80 149,90 146,90 141,85 " style="fill:#d81515; stroke-width:1; stroke:black; " description="&lt;b&gt;CCM_02428&lt;/b&gt;&lt;br&gt;hypothetical protein&lt;br&gt;Location: 1644353 - 1644916&lt;br&gt;&lt;br&gt;&lt;b&gt;BlastP hit with input.path1.gene446&lt;/b&gt;&lt;br&gt;Percentage identity: 100&lt;br&gt;Percentage coverage: 80&lt;br&gt;BLAST bit score: 404&lt;br&gt;E-value: 1.56e-143" locus_tag="CCM_02428" class="clusterblast-orf" id="dummy-2_h2_1_2"  />
</g>
<g id="a2_003"  >
<polygon points="158,90 169,90 174,85 169,80 158,80 158,90 " style="fill:#5cd815; stroke-width:1; stroke:black; " description="&lt;b&gt;CCM_02429&lt;/b&gt;&lt;br&gt;PBSP domain protein&lt;br&gt;Location: 1645622 - 1646881&lt;br&gt;&lt;br&gt;&lt;b&gt;BlastP hit with input.path1.gene447&lt;/b&gt;&lt;br&gt;Percentage identity: 100&lt;br&gt;Percentage coverage: 87&lt;br&gt;BLAST bit score: 473&lt;br&gt;E-value: 4.63e-169" locus_tag="CCM_02429" class="clusterblast-orf" id="dummy-2_h2_1_3"  />
</g>
<g id="a2_004"  >
<polygon points="184,90 201,90 206,85 201,80 184,80 184,90 " style="fill:#15a3d8; stroke-width:1; stroke:black; " description="&lt;b&gt;CCM_02430&lt;/b&gt;&lt;br&gt;argininosuccinate lyase&lt;br&gt;Location: 1647713 - 1649453&lt;br&gt;&lt;br&gt;&lt;b&gt;BlastP hit with input.path1.gene448&lt;/b&gt;&lt;br&gt;Percentage identity: 83&lt;br&gt;Percentage coverage: 58&lt;br&gt;BLAST bit score: 717&lt;br&gt;E-value: 4.38e-254" locus_tag="CCM_02430" class="clusterblast-orf" id="dummy-2_h2_1_4"  />
</g>
<g id="a2_005"  >
<polygon points="214,90 223,90 228,85 223,80 214,80 214,90 " style="fill:#15a3d8; stroke-width:1; stroke:black; " description="&lt;b&gt;CCM_02431&lt;/b&gt;&lt;br&gt;hypothetical protein&lt;br&gt;Location: 1650048 - 1651160&lt;br&gt;&lt;br&gt;&lt;b&gt;BlastP hit with input.path1.gene448&lt;/b&gt;&lt;br&gt;Percentage identity: 95&lt;br&gt;Percentage coverage: 47&lt;br&gt;BLAST bit score: 681&lt;br&gt;E-value: 2.52e-241" locus_tag="CCM_02431" class="clusterblast-orf" id="dummy-2_h2_1_5"  />
</g>
<g id="a2_006"  >
<polygon points="232,85 237,80 244,80 244,90 237,90 232,85 " style="fill:#c715d8; stroke-width:1; stroke:black; " description="&lt;b&gt;CCM_02432&lt;/b&gt;&lt;br&gt;hypothetical protein&lt;br&gt;Location: 1651440 - 1652444&lt;br&gt;&lt;br&gt;&lt;b&gt;BlastP hit with input.path1.gene449&lt;/b&gt;&lt;br&gt;Percentage identity: 100&lt;br&gt;Percentage coverage: 100&lt;br&gt;BLAST bit score: 669&lt;br&gt;E-value: 2.66e-244" locus_tag="CCM_02432" class="clusterblast-orf" id="dummy-2_h2_1_6"  />
</g>
<g id="a2_007"  >
<polygon points="270,85 275,80 308,80 308,90 275,90 270,85 " style="fill:#d88015; stroke-width:1; stroke:black; " description="&lt;b&gt;CCM_02433&lt;/b&gt;&lt;br&gt;pantothenate transporter, putative&lt;br&gt;Location: 1654488 - 1657474&lt;br&gt;&lt;br&gt;&lt;b&gt;BlastP hit with input.path1.gene451&lt;/b&gt;&lt;br&gt;Percentage identity: 92&lt;br&gt;Percentage coverage: 100&lt;br&gt;BLAST bit score: 443&lt;br&gt;E-value: 3.56e-151&lt;br&gt;&lt;br&gt;&lt;b&gt;BlastP hit with input.path1.gene452&lt;/b&gt;&lt;br&gt;Percentage identity: 74&lt;br&gt;Percentage coverage: 134&lt;br&gt;BLAST bit score: 659&lt;br&gt;E-value: 3.32e-234" locus_tag="CCM_02433" class="clusterblast-orf" id="dummy-2_h2_1_7"  />
</g>
<g id="a2_008"  >
<polygon points="314,85 319,80 333,80 333,90 319,90 314,85 " style="fill:#15d839; stroke-width:1; stroke:black; " description="&lt;b&gt;CCM_02434&lt;/b&gt;&lt;br&gt;monocarboxylate permease-like protein&lt;br&gt;Location: 1657890 - 1659436&lt;br&gt;&lt;br&gt;&lt;b&gt;BlastP hit with input.path1.gene453&lt;/b&gt;&lt;br&gt;Percentage identity: 76&lt;br&gt;Percentage coverage: 109&lt;br&gt;BLAST bit score: 553&lt;br&gt;E-value: 2.98e-196" locus_tag="CCM_02434" class="clusterblast-orf" id="dummy-2_h2_1_8"  />
</g>
<g id="a2_009"  >
<polygon points="348,85 350,80 350,90 348,85 " style="fill:white; stroke-width:1; stroke:black; " description="&lt;b&gt;CCM_02435&lt;/b&gt;&lt;br&gt;hypothetical protein&lt;br&gt;Location: 1660543 - 1660746" locus_tag="CCM_02435" class="clusterblast-orf" id="dummy-2_h2_1_9"  />
</g>
<g id="a2_0010"  >
<polygon points="351,85 356,80 359,80 359,90 356,90 351,85 " style="fill:white; stroke-width:1; stroke:black; " description="&lt;b&gt;CCM_02436&lt;/b&gt;&lt;br&gt;hypothetical protein&lt;br&gt;Location: 1660820 - 1661412" locus_tag="CCM_02436" class="clusterblast-orf" id="dummy-2_h2_1_10"  />
</g>
<g id="a2_0011"  >
<polygon points="367,90 424,90 429,85 424,80 367,80 367,90 " style="fill:#1539d8; stroke-width:1; stroke:black; " description="&lt;b&gt;CCM_02437&lt;/b&gt;&lt;br&gt;non-ribosomal peptide synthetase&lt;br&gt;Location: 1662105 - 1666976&lt;br&gt;&lt;br&gt;&lt;b&gt;BlastP hit with input.path1.gene454&lt;/b&gt;&lt;br&gt;Percentage identity: 100&lt;br&gt;Percentage coverage: 100&lt;br&gt;BLAST bit score: 3058&lt;br&gt;E-value: 0.0" locus_tag="CCM_02437" class="clusterblast-orf" id="dummy-2_h2_1_11"  />
</g>
<g id="a2_0012"  >
<polygon points="438,85 443,80 484,80 484,90 443,90 438,85 " style="fill:#d81580; stroke-width:1; stroke:black; " description="&lt;b&gt;CCM_02438&lt;/b&gt;&lt;br&gt;Rho GTPase activator Rga&lt;br&gt;Location: 1667672 - 1671220&lt;br&gt;&lt;br&gt;&lt;b&gt;BlastP hit with input.path1.gene455&lt;/b&gt;&lt;br&gt;Percentage identity: 87&lt;br&gt;Percentage coverage: 114&lt;br&gt;BLAST bit score: 1743&lt;br&gt;E-value: 0.0" locus_tag="CCM_02438" class="clusterblast-orf" id="dummy-2_h2_1_12"  />
</g>
<g id="a2_0013"  >
<polygon points="484,85 489,80 497,80 497,90 489,90 484,85 " style="fill:white; stroke-width:1; stroke:black; " description="&lt;b&gt;CCM_02439&lt;/b&gt;&lt;br&gt;hypothetical protein&lt;br&gt;Location: 1671278 - 1672294" locus_tag="CCM_02439" class="clusterblast-orf" id="dummy-2_h2_1_13"  />
</g>
<g id="a2_0014"  >
<polygon points="518,85 520,80 520,90 518,85 " style="fill:white; stroke-width:1; stroke:black; " description="&lt;b&gt;CCM_02440&lt;/b&gt;&lt;br&gt;hypothetical protein&lt;br&gt;Location: 1673917 - 1674117" locus_tag="CCM_02440" class="clusterblast-orf" id="dummy-2_h2_1_14"  />
</g>
<g id="a2_0015"  >
<polygon points="535,85 540,80 544,80 544,90 540,90 535,85 " style="fill:#c7d815; stroke-width:1; stroke:black; " description="&lt;b&gt;CCM_02441&lt;/b&gt;&lt;br&gt;hypothetical protein&lt;br&gt;Location: 1675235 - 1675999&lt;br&gt;&lt;br&gt;&lt;b&gt;BlastP hit with input.path1.gene456&lt;/b&gt;&lt;br&gt;Percentage identity: 100&lt;br&gt;Percentage coverage: 100&lt;br&gt;BLAST bit score: 342&lt;br&gt;E-value: 2.34e-119" locus_tag="CCM_02441" class="clusterblast-orf" id="dummy-2_h2_1_15"  />
</g>
<g id="a2_0016"  >
<polygon points="556,90 582,90 587,85 582,80 556,80 556,90 " style="fill:#15d8a3; stroke-width:1; stroke:black; " description="&lt;b&gt;CCM_02442&lt;/b&gt;&lt;br&gt;hypothetical protein&lt;br&gt;Location: 1676930 - 1679333&lt;br&gt;&lt;br&gt;&lt;b&gt;BlastP hit with input.path1.gene457&lt;/b&gt;&lt;br&gt;Percentage identity: 94&lt;br&gt;Percentage coverage: 106&lt;br&gt;BLAST bit score: 1417&lt;br&gt;E-value: 0.0" locus_tag="CCM_02442" class="clusterblast-orf" id="dummy-2_h2_1_16"  />
</g>
<g id="a2_0017"  >
<polygon points="593,85 598,80 638,80 638,90 598,90 593,85 " style="fill:#5c15d8; stroke-width:1; stroke:black; " description="&lt;b&gt;CCM_02443&lt;/b&gt;&lt;br&gt;translation regulator (Cya5), putative&lt;br&gt;Location: 1679828 - 1683378&lt;br&gt;&lt;br&gt;&lt;b&gt;BlastP hit with input.path1.gene458&lt;/b&gt;&lt;br&gt;Percentage identity: 95&lt;br&gt;Percentage coverage: 104&lt;br&gt;BLAST bit score: 1612&lt;br&gt;E-value: 0.0" locus_tag="CCM_02443" class="clusterblast-orf" id="dummy-2_h2_1_17"  />
</g>
<g id="a2_0018"  >
<polygon points="693,85 698,80 715,80 715,90 698,90 693,85 " style="fill:white; stroke-width:1; stroke:black; " description="&lt;b&gt;CCM_02444&lt;/b&gt;&lt;br&gt;serine/threonine-protein kinase Sgk2&lt;br&gt;Location: 1687657 - 1689426" locus_tag="CCM_02444" class="clusterblast-orf" id="dummy-2_h2_1_18"  />
</g>
<g id="a2_0019"  >
<polygon points="725,90 730,90 735,85 730,80 725,80 725,90 " style="fill:white; stroke-width:1; stroke:black; " description="&lt;b&gt;CCM_02445&lt;/b&gt;&lt;br&gt;hypothetical protein&lt;br&gt;Location: 1690173 - 1690961" locus_tag="CCM_02445" class="clusterblast-orf" id="dummy-2_h2_1_19"  />
</g>
<g id="a2_0020"  >
<polygon points="742,85 747,80 751,80 751,90 747,90 742,85 " style="fill:white; stroke-width:1; stroke:black; " description="&lt;b&gt;CCM_02446&lt;/b&gt;&lt;br&gt;Acyl-CoA N-acyltransferase&lt;br&gt;Location: 1691542 - 1692195" locus_tag="CCM_02446" class="clusterblast-orf" id="dummy-2_h2_1_20"  />
</g>
<g id="a2_0021"  >
<polygon points="756,85 761,80 780,80 780,90 761,90 756,85 " style="fill:white; stroke-width:1; stroke:black; " description="&lt;b&gt;CCM_02447&lt;/b&gt;&lt;br&gt;FAD/FMN-containing isoamyl alcohol oxidase MreA-like, putative&lt;br&gt;Location: 1692593 - 1694462" locus_tag="CCM_02447" class="clusterblast-orf" id="dummy-2_h2_1_21"  />
</g>
</svg>
