<svg xmlns="http://www.w3.org/2000/svg" xmlns:xlink="http://www.w3.org/1999/xlink" version="1.1" x="0" y="0" height="230" width="800" viewBox="0 0 800 230" preserveAspectRatio="none"  >
<g label="Query sequence" class="clusterblast-cluster"  >
<text x="5" y="20" class="clusterblast-acc"  >
Query sequence</text>
<line x1="10" y1="35" x2="778.0" y2="35" style="stroke-width:1; stroke:grey; "  />
<polygon points="253,40 255,35 253,30 253,40 " style="fill:#d81515; stroke-width:1; stroke:black; " description="&lt;b&gt;input.path1.gene1084&lt;/b&gt;&lt;br&gt;input.path1.gene1084&lt;br&gt;Location: 3861878 - 3862395" locus_tag="input.path1.gene1084" class="clusterblast-orf" id="dummy-7_q0_0_all"  />
<polygon points="257,35 260,30 260,40 257,35 " style="fill:#63d815; stroke-width:1; stroke:black; " description="&lt;b&gt;input.path1.gene1085&lt;/b&gt;&lt;br&gt;input.path1.gene1085&lt;br&gt;Location: 3862737 - 3863359" locus_tag="input.path1.gene1085" class="clusterblast-orf" id="dummy-7_q1_0_all"  />
<polygon points="265,40 277,40 282,35 277,30 265,30 265,40 " style="fill:#15b1d8; stroke-width:1; stroke:black; " description="&lt;b&gt;input.path1.gene1086&lt;/b&gt;&lt;br&gt;input.path1.gene1086&lt;br&gt;Location: 3864539 - 3868160" locus_tag="input.path1.gene1086" class="clusterblast-orf" id="dummy-7_q2_0_all"  />
<polygon points="284,35 289,30 301,30 301,40 289,40 284,35 " style="fill:white; stroke-width:1; stroke:black; " description="&lt;b&gt;input.path1.gene1087&lt;/b&gt;&lt;br&gt;input.path1.gene1087&lt;br&gt;Location: 3868438 - 3872153" locus_tag="input.path1.gene1087" class="clusterblast-orf" id="dummy-7_q3_0_all"  />
<polygon points="304,40 306,40 311,35 306,30 304,30 304,40 " style="fill:#b115d8; stroke-width:1; stroke:black; " description="&lt;b&gt;input.path1.gene1088&lt;/b&gt;&lt;br&gt;input.path1.gene1088&lt;br&gt;Location: 3872666 - 3874229" locus_tag="input.path1.gene1088" class="clusterblast-orf" id="dummy-7_q4_0_all"  />
<polygon points="313,35 318,30 321,30 321,40 318,40 313,35 " style="fill:#d86315; stroke-width:1; stroke:black; " description="&lt;b&gt;input.path1.gene1089&lt;/b&gt;&lt;br&gt;input.path1.gene1089&lt;br&gt;Location: 3874692 - 3876219" locus_tag="input.path1.gene1089" class="clusterblast-orf" id="dummy-7_q5_0_all"  />
<polygon points="324,35 329,30 335,30 335,40 329,40 324,35 " style="fill:#15d815; stroke-width:1; stroke:black; " description="&lt;b&gt;input.path1.gene1090&lt;/b&gt;&lt;br&gt;input.path1.gene1090&lt;br&gt;Location: 3876914 - 3879302" locus_tag="input.path1.gene1090" class="clusterblast-orf" id="dummy-7_q6_0_all"  />
<polygon points="340,35 345,30 346,30 346,40 345,40 340,35 " style="fill:#1563d8; stroke-width:1; stroke:black; " description="&lt;b&gt;input.path1.gene1091&lt;/b&gt;&lt;br&gt;input.path1.gene1091&lt;br&gt;Location: 3880432 - 3881632" locus_tag="input.path1.gene1091" class="clusterblast-orf" id="dummy-7_q7_0_all"  />
<polygon points="350,35 355,30 380,30 380,40 355,40 350,35 " style="fill:#d815b1; stroke-width:1; stroke:black; " description="&lt;b&gt;input.path1.gene1092&lt;/b&gt;&lt;br&gt;input.path1.gene1092&lt;br&gt;Location: 3882528 - 3888844" locus_tag="input.path1.gene1092" class="clusterblast-orf" id="dummy-7_q8_0_all"  />
<polygon points="386,40 390,35 386,30 386,40 " style="fill:#d8b115; stroke-width:1; stroke:black; " description="&lt;b&gt;input.path1.gene1093&lt;/b&gt;&lt;br&gt;input.path1.gene1093&lt;br&gt;Location: 3890154 - 3891010" locus_tag="input.path1.gene1093" class="clusterblast-orf" id="dummy-7_q9_0_all"  />
<polygon points="411,40 411,40 416,35 411,30 411,30 411,40 " style="fill:#15d863; stroke-width:1; stroke:black; " description="&lt;b&gt;input.path1.gene1094&lt;/b&gt;&lt;br&gt;input.path1.gene1094&lt;br&gt;Location: 3895380 - 3896407" locus_tag="input.path1.gene1094" class="clusterblast-orf" id="dummy-7_q10_0_all"  />
<polygon points="416,35 421,30 421,30 421,40 421,40 416,35 " style="fill:#1515d8; stroke-width:1; stroke:black; " description="&lt;b&gt;input.path1.gene1095&lt;/b&gt;&lt;br&gt;input.path1.gene1095&lt;br&gt;Location: 3896487 - 3897555" locus_tag="input.path1.gene1095" class="clusterblast-orf" id="dummy-7_q11_0_all"  />
<polygon points="427,35 432,30 433,30 433,40 432,40 427,35 " style="fill:#d81563; stroke-width:1; stroke:black; " description="&lt;b&gt;input.path1.gene1096&lt;/b&gt;&lt;br&gt;input.path1.gene1096&lt;br&gt;Location: 3898764 - 3900149" locus_tag="input.path1.gene1096" class="clusterblast-orf" id="dummy-7_q12_0_all"  />
<polygon points="444,35 447,30 447,40 444,35 " style="fill:white; stroke-width:1; stroke:black; " description="&lt;b&gt;input.path1.gene1097&lt;/b&gt;&lt;br&gt;input.path1.gene1097&lt;br&gt;Location: 3902308 - 3903130" locus_tag="input.path1.gene1097" class="clusterblast-orf" id="dummy-7_q13_0_all"  />
<polygon points="464,35 469,30 470,30 470,40 469,40 464,35 " style="fill:#b1d815; stroke-width:1; stroke:black; " description="&lt;b&gt;input.path1.gene1098&lt;/b&gt;&lt;br&gt;input.path1.gene1098&lt;br&gt;Location: 3906617 - 3907955" locus_tag="input.path1.gene1098" class="clusterblast-orf" id="dummy-7_q14_0_all"  />
<polygon points="475,35 480,30 486,30 486,40 480,40 475,35 " style="fill:#15d8b1; stroke-width:1; stroke:black; " description="&lt;b&gt;input.path1.gene1099&lt;/b&gt;&lt;br&gt;input.path1.gene1099&lt;br&gt;Location: 3908866 - 3911272" locus_tag="input.path1.gene1099" class="clusterblast-orf" id="dummy-7_q15_0_all"  />
<polygon points="508,35 513,30 518,30 518,40 513,40 508,35 " style="fill:#6315d8; stroke-width:1; stroke:black; " description="&lt;b&gt;input.path1.gene1100&lt;/b&gt;&lt;br&gt;input.path1.gene1100&lt;br&gt;Location: 3915932 - 3918022" locus_tag="input.path1.gene1100" class="clusterblast-orf" id="dummy-7_q16_0_all"  />
<polygon points="520,35 525,30 526,30 526,40 525,40 520,35 " style="fill:#6315d8; stroke-width:1; stroke:black; " description="&lt;b&gt;input.path1.gene1101&lt;/b&gt;&lt;br&gt;input.path1.gene1101&lt;br&gt;Location: 3918560 - 3919823" locus_tag="input.path1.gene1101" class="clusterblast-orf" id="dummy-7_q17_0_all"  />
</g>
<g label="NW_006271970" description="NW_006271970 (3761055-3936010): Cordyceps militaris CM01 unplaced genomic sca... (33% of genes show similarity), fungal-RiPP-like" class="clusterblast-cluster"  >
<text x="5" y="70" class="clusterblast-acc"  >
<a xlink:href="https://antismash-db.secondarymetabolites.org/area?record=NW_006271970&amp;start=3761055&amp;end=3936010" target="_blank">NW_006271970 (3761055-3936010)</a>: Cordyceps militaris CM01 unplaced genomic sca... (33% of genes show similarity), fungal-RiPP-like</text>
<line x1="10" y1="85" x2="778.0" y2="85" style="stroke-width:1; stroke:grey; "  />
</g>
<g id="a7_000"  >
<polygon points="0,85 5,80 11,80 11,90 5,90 0,85 " style="fill:white; stroke-width:1; stroke:black; " description="&lt;b&gt;CCM_03124&lt;/b&gt;&lt;br&gt;Fungal transcriptional regulatory protein&lt;br&gt;Location: 3762412 - 3764794" locus_tag="CCM_03124" class="clusterblast-orf" id="dummy-7_h7_1_0"  />
</g>
<g id="a7_001"  >
<polygon points="15,85 20,80 70,80 70,90 20,90 15,85 " style="fill:white; stroke-width:1; stroke:black; " description="&lt;b&gt;CCM_03125&lt;/b&gt;&lt;br&gt;histone acetylase complex subunit Paf400, putative&lt;br&gt;Location: 3765673 - 3777348" locus_tag="CCM_03125" class="clusterblast-orf" id="dummy-7_h7_1_1"  />
</g>
<g id="a7_002"  >
<polygon points="81,85 86,80 87,80 87,90 86,90 81,85 " style="fill:white; stroke-width:1; stroke:black; " description="&lt;b&gt;CCM_03126&lt;/b&gt;&lt;br&gt;hypothetical protein&lt;br&gt;Location: 3779779 - 3781041" locus_tag="CCM_03126" class="clusterblast-orf" id="dummy-7_h7_1_2"  />
</g>
<g id="a7_003"  >
<polygon points="88,90 90,85 88,80 88,90 " style="fill:white; stroke-width:1; stroke:black; " description="&lt;b&gt;CCM_03127&lt;/b&gt;&lt;br&gt;hypothetical protein&lt;br&gt;Location: 3781225 - 3781659" locus_tag="CCM_03127" class="clusterblast-orf" id="dummy-7_h7_1_3"  />
</g>
<g id="a7_004"  >
<polygon points="91,90 107,90 112,85 107,80 91,80 91,90 " style="fill:white; stroke-width:1; stroke:black; " description="&lt;b&gt;CCM_03128&lt;/b&gt;&lt;br&gt;cell polarity protein (Tea1), putative&lt;br&gt;Location: 3781757 - 3786176" locus_tag="CCM_03128" class="clusterblast-orf" id="dummy-7_h7_1_4"  />
</g>
<g id="a7_005"  >
<polygon points="117,85 122,80 134,80 134,90 122,90 117,85 " style="fill:white; stroke-width:1; stroke:black; " description="&lt;b&gt;CCM_03129&lt;/b&gt;&lt;br&gt;structural maintenance of chromosome complex subunit SmcA&lt;br&gt;Location: 3787363 - 3790870" locus_tag="CCM_03129" class="clusterblast-orf" id="dummy-7_h7_1_5"  />
</g>
<g id="a7_006"  >
<polygon points="140,90 156,90 161,85 156,80 140,80 140,90 " style="fill:white; stroke-width:1; stroke:black; " description="&lt;b&gt;CCM_03130&lt;/b&gt;&lt;br&gt;serine/threonine protein kinase (Kcc4), putative&lt;br&gt;Location: 3792257 - 3796675" locus_tag="CCM_03130" class="clusterblast-orf" id="dummy-7_h7_1_6"  />
</g>
<g id="a7_007"  >
<polygon points="176,90 183,90 188,85 183,80 176,80 176,90 " style="fill:white; stroke-width:1; stroke:black; " description="&lt;b&gt;CCM_03131&lt;/b&gt;&lt;br&gt;Malate synthase, glyoxysomal&lt;br&gt;Location: 3799827 - 3802332" locus_tag="CCM_03131" class="clusterblast-orf" id="dummy-7_h7_1_7"  />
</g>
<g id="a7_008"  >
<polygon points="193,90 196,90 201,85 196,80 193,80 193,90 " style="fill:white; stroke-width:1; stroke:black; " description="&lt;b&gt;CCM_03132&lt;/b&gt;&lt;br&gt;peroxysomal citrate synthase&lt;br&gt;Location: 3803525 - 3805107" locus_tag="CCM_03132" class="clusterblast-orf" id="dummy-7_h7_1_8"  />
</g>
<g id="a7_009"  >
<polygon points="205,90 206,90 211,85 206,80 205,80 205,90 " style="fill:white; stroke-width:1; stroke:black; " description="&lt;b&gt;CCM_03133&lt;/b&gt;&lt;br&gt;hypothetical protein&lt;br&gt;Location: 3806056 - 3807147" locus_tag="CCM_03133" class="clusterblast-orf" id="dummy-7_h7_1_9"  />
</g>
<g id="a7_0010"  >
<polygon points="212,85 215,80 215,90 212,85 " style="fill:white; stroke-width:1; stroke:black; " description="&lt;b&gt;CCM_03134&lt;/b&gt;&lt;br&gt;hypothetical protein&lt;br&gt;Location: 3807439 - 3808136" locus_tag="CCM_03134" class="clusterblast-orf" id="dummy-7_h7_1_10"  />
</g>
<g id="a7_0011"  >
<polygon points="223,90 228,90 233,85 228,80 223,80 223,90 " style="fill:white; stroke-width:1; stroke:black; " description="&lt;b&gt;CCM_03135&lt;/b&gt;&lt;br&gt;ATP-dependent RNA helicase DED1&lt;br&gt;Location: 3809832 - 3811945" locus_tag="CCM_03135" class="clusterblast-orf" id="dummy-7_h7_1_11"  />
</g>
<g id="a7_0012"  >
<polygon points="236,85 239,80 239,90 236,85 " style="fill:white; stroke-width:1; stroke:black; " description="&lt;b&gt;CCM_03136&lt;/b&gt;&lt;br&gt;hypothetical protein&lt;br&gt;Location: 3812533 - 3813092" locus_tag="CCM_03136" class="clusterblast-orf" id="dummy-7_h7_1_12"  />
</g>
<g id="a7_0013"  >
<polygon points="241,90 245,90 250,85 245,80 241,80 241,90 " style="fill:white; stroke-width:1; stroke:black; " description="&lt;b&gt;CCM_03137&lt;/b&gt;&lt;br&gt;hypothetical protein&lt;br&gt;Location: 3813577 - 3815476" locus_tag="CCM_03137" class="clusterblast-orf" id="dummy-7_h7_1_13"  />
</g>
<g id="a7_0014"  >
<polygon points="257,90 264,90 269,85 264,80 257,80 257,90 " style="fill:white; stroke-width:1; stroke:black; " description="&lt;b&gt;CCM_03138&lt;/b&gt;&lt;br&gt;Heterokaryon incompatibility&lt;br&gt;Location: 3816906 - 3819539" locus_tag="CCM_03138" class="clusterblast-orf" id="dummy-7_h7_1_14"  />
</g>
<g id="a7_0015"  >
<polygon points="272,85 277,80 280,80 280,90 277,90 272,85 " style="fill:white; stroke-width:1; stroke:black; " description="&lt;b&gt;CCM_03139&lt;/b&gt;&lt;br&gt;hypothetical protein&lt;br&gt;Location: 3820152 - 3821828" locus_tag="CCM_03139" class="clusterblast-orf" id="dummy-7_h7_1_15"  />
</g>
<g id="a7_0016"  >
<polygon points="288,90 295,90 300,85 295,80 288,80 288,90 " style="fill:white; stroke-width:1; stroke:black; " description="&lt;b&gt;CCM_03140&lt;/b&gt;&lt;br&gt;hypothetical protein&lt;br&gt;Location: 3823654 - 3826168" locus_tag="CCM_03140" class="clusterblast-orf" id="dummy-7_h7_1_16"  />
</g>
<g id="a7_0017"  >
<polygon points="303,85 308,80 309,80 309,90 308,90 303,85 " style="fill:white; stroke-width:1; stroke:black; " description="&lt;b&gt;CCM_03141&lt;/b&gt;&lt;br&gt;hypothetical protein&lt;br&gt;Location: 3826727 - 3828054" locus_tag="CCM_03141" class="clusterblast-orf" id="dummy-7_h7_1_17"  />
</g>
<g id="a7_0018"  >
<polygon points="318,90 328,90 333,85 328,80 318,80 318,90 " style="fill:white; stroke-width:1; stroke:black; " description="&lt;b&gt;CCM_03142&lt;/b&gt;&lt;br&gt;fungal specific transcription factor domain-containing protein&lt;br&gt;Location: 3829975 - 3833036" locus_tag="CCM_03142" class="clusterblast-orf" id="dummy-7_h7_1_18"  />
</g>
<g id="a7_0019"  >
<polygon points="339,85 344,80 349,80 349,90 344,90 339,85 " style="fill:white; stroke-width:1; stroke:black; " description="&lt;b&gt;CCM_03143&lt;/b&gt;&lt;br&gt;Mediator complex, subunit Med19, fungi&lt;br&gt;Location: 3834434 - 3836477" locus_tag="CCM_03143" class="clusterblast-orf" id="dummy-7_h7_1_19"  />
</g>
<g id="a7_0020"  >
<polygon points="354,85 359,80 360,80 360,90 359,90 354,85 " style="fill:white; stroke-width:1; stroke:black; " description="&lt;b&gt;CCM_03144&lt;/b&gt;&lt;br&gt;hypothetical protein&lt;br&gt;Location: 3837548 - 3838724" locus_tag="CCM_03144" class="clusterblast-orf" id="dummy-7_h7_1_20"  />
</g>
<g id="a7_0021"  >
<polygon points="390,90 392,85 390,80 390,90 " style="fill:white; stroke-width:1; stroke:black; " description="&lt;b&gt;CCM_03145&lt;/b&gt;&lt;br&gt;hypothetical protein&lt;br&gt;Location: 3845078 - 3845632" locus_tag="CCM_03145" class="clusterblast-orf" id="dummy-7_h7_1_21"  />
</g>
<g id="a7_0022"  >
<polygon points="401,90 403,90 408,85 403,80 401,80 401,90 " style="fill:white; stroke-width:1; stroke:black; " description="&lt;b&gt;CCM_03146&lt;/b&gt;&lt;br&gt;acyl-CoA dehydrogenase&lt;br&gt;Location: 3847395 - 3848888" locus_tag="CCM_03146" class="clusterblast-orf" id="dummy-7_h7_1_22"  />
</g>
<g id="a7_0023"  >
<polygon points="408,85 413,80 413,80 413,90 413,90 408,85 " style="fill:white; stroke-width:1; stroke:black; " description="&lt;b&gt;CCM_03147&lt;/b&gt;&lt;br&gt;3-hydroxybutyryl-CoA dehydrogenase, putative&lt;br&gt;Location: 3849053 - 3850125" locus_tag="CCM_03147" class="clusterblast-orf" id="dummy-7_h7_1_23"  />
</g>
<g id="a7_0024"  >
<polygon points="416,90 428,90 433,85 428,80 416,80 416,90 " style="fill:white; stroke-width:1; stroke:black; " description="&lt;b&gt;CCM_03148&lt;/b&gt;&lt;br&gt;drug resistance protein MdrA&lt;br&gt;Location: 3850708 - 3854255" locus_tag="CCM_03148" class="clusterblast-orf" id="dummy-7_h7_1_24"  />
</g>
<g id="a7_0025"  >
<polygon points="435,90 443,90 448,85 443,80 435,80 435,90 " style="fill:white; stroke-width:1; stroke:black; " description="&lt;b&gt;CCM_03149&lt;/b&gt;&lt;br&gt;G-patch domain protein, putative&lt;br&gt;Location: 3854712 - 3857464" locus_tag="CCM_03149" class="clusterblast-orf" id="dummy-7_h7_1_25"  />
</g>
<g id="a7_0026"  >
<polygon points="450,90 452,90 457,85 452,80 450,80 450,90 " style="fill:white; stroke-width:1; stroke:black; " description="&lt;b&gt;CCM_03150&lt;/b&gt;&lt;br&gt;WD40/YVTN repeat-like-containing domain&lt;br&gt;Location: 3857898 - 3859390" locus_tag="CCM_03150" class="clusterblast-orf" id="dummy-7_h7_1_26"  />
</g>
<g id="a7_0027"  >
<polygon points="458,85 463,80 466,80 466,90 463,90 458,85 " style="fill:white; stroke-width:1; stroke:black; " description="&lt;b&gt;CCM_03151&lt;/b&gt;&lt;br&gt;3'-5' exonuclease/helicase (Wrn), putative&lt;br&gt;Location: 3859569 - 3861373" locus_tag="CCM_03151" class="clusterblast-orf" id="dummy-7_h7_1_27"  />
</g>
<g id="a7_0028"  >
<polygon points="469,90 471,85 469,80 469,90 " style="fill:#d81515; stroke-width:1; stroke:black; " description="&lt;b&gt;CCM_03152&lt;/b&gt;&lt;br&gt;small nuclear ribonucleoprotein&lt;br&gt;Location: 3861879 - 3862395&lt;br&gt;&lt;br&gt;&lt;b&gt;BlastP hit with input.path1.gene1084&lt;/b&gt;&lt;br&gt;Percentage identity: 76&lt;br&gt;Percentage coverage: 132&lt;br&gt;BLAST bit score: 118&lt;br&gt;E-value: 4.82e-35" locus_tag="CCM_03152" class="clusterblast-orf" id="dummy-7_h7_1_28"  />
</g>
<g id="a7_0029"  >
<polygon points="473,85 476,80 476,90 473,85 " style="fill:#63d815; stroke-width:1; stroke:black; " description="&lt;b&gt;CCM_03153&lt;/b&gt;&lt;br&gt;DNA-directed RNA polymerase II subunit RPB11a, putative&lt;br&gt;Location: 3862738 - 3863359&lt;br&gt;&lt;br&gt;&lt;b&gt;BlastP hit with input.path1.gene1085&lt;/b&gt;&lt;br&gt;Percentage identity: 96&lt;br&gt;Percentage coverage: 105&lt;br&gt;BLAST bit score: 253&lt;br&gt;E-value: 1.03e-86" locus_tag="CCM_03153" class="clusterblast-orf" id="dummy-7_h7_1_29"  />
</g>
<g id="a7_0030"  >
<polygon points="479,90 479,90 484,85 479,80 479,80 479,90 " style="fill:#15b1d8; stroke-width:1; stroke:black; " description="&lt;b&gt;CCM_03154&lt;/b&gt;&lt;br&gt;Modification methylase HemK&lt;br&gt;Location: 3863955 - 3865001&lt;br&gt;&lt;br&gt;&lt;b&gt;BlastP hit with input.path1.gene1086&lt;/b&gt;&lt;br&gt;Percentage identity: 98&lt;br&gt;Percentage coverage: 14&lt;br&gt;BLAST bit score: 300&lt;br&gt;E-value: 3.73e-91" locus_tag="CCM_03154" class="clusterblast-orf" id="dummy-7_h7_1_30"  />
</g>
<g id="a7_0031"  >
<polygon points="486,90 493,90 498,85 493,80 486,80 486,90 " style="fill:#15b1d8; stroke-width:1; stroke:black; " description="&lt;b&gt;CCM_03155&lt;/b&gt;&lt;br&gt;mitochondrial inner membrane AAA protease Yta12, putative&lt;br&gt;Location: 3865488 - 3868160&lt;br&gt;&lt;br&gt;&lt;b&gt;BlastP hit with input.path1.gene1086&lt;/b&gt;&lt;br&gt;Percentage identity: 100&lt;br&gt;Percentage coverage: 86&lt;br&gt;BLAST bit score: 1698&lt;br&gt;E-value: 0.0" locus_tag="CCM_03155" class="clusterblast-orf" id="dummy-7_h7_1_31"  />
</g>
<g id="a7_0032"  >
<polygon points="505,90 508,90 513,85 508,80 505,80 505,90 " style="fill:white; stroke-width:1; stroke:black; " description="&lt;b&gt;CCM_03156&lt;/b&gt;&lt;br&gt;membrane transporter&lt;br&gt;Location: 3869568 - 3871323" locus_tag="CCM_03156" class="clusterblast-orf" id="dummy-7_h7_1_32"  />
</g>
<g id="a7_0033"  >
<polygon points="517,90 522,90 527,85 522,80 517,80 517,90 " style="fill:#b115d8; stroke-width:1; stroke:black; " description="&lt;b&gt;CCM_03157&lt;/b&gt;&lt;br&gt;anion exchange family protein&lt;br&gt;Location: 3872014 - 3874229&lt;br&gt;&lt;br&gt;&lt;b&gt;BlastP hit with input.path1.gene1088&lt;/b&gt;&lt;br&gt;Percentage identity: 100&lt;br&gt;Percentage coverage: 100&lt;br&gt;BLAST bit score: 972&lt;br&gt;E-value: 0.0" locus_tag="CCM_03157" class="clusterblast-orf" id="dummy-7_h7_1_33"  />
</g>
<g id="a7_0034"  >
<polygon points="528,90 531,85 528,80 528,90 " style="fill:white; stroke-width:1; stroke:black; " description="&lt;b&gt;CCM_03158&lt;/b&gt;&lt;br&gt;polysaccharide deacetylase, putative&lt;br&gt;Location: 3874483 - 3875046" locus_tag="CCM_03158" class="clusterblast-orf" id="dummy-7_h7_1_34"  />
</g>
<g id="a7_0035"  >
<polygon points="534,85 539,80 539,80 539,90 539,90 534,85 " style="fill:#d86315; stroke-width:1; stroke:black; " description="&lt;b&gt;CCM_03159&lt;/b&gt;&lt;br&gt;hypothetical protein&lt;br&gt;Location: 3875606 - 3876678&lt;br&gt;&lt;br&gt;&lt;b&gt;BlastP hit with input.path1.gene1089&lt;/b&gt;&lt;br&gt;Percentage identity: 100&lt;br&gt;Percentage coverage: 47&lt;br&gt;BLAST bit score: 145&lt;br&gt;E-value: 5.9e-43" locus_tag="CCM_03159" class="clusterblast-orf" id="dummy-7_h7_1_35"  />
</g>
<g id="a7_0036"  >
<polygon points="540,85 545,80 547,80 547,90 545,90 540,85 " style="fill:#15d815; stroke-width:1; stroke:black; " description="&lt;b&gt;CCM_03160&lt;/b&gt;&lt;br&gt;candidapepsin-4 precursor&lt;br&gt;Location: 3876915 - 3878519&lt;br&gt;&lt;br&gt;&lt;b&gt;BlastP hit with input.path1.gene1090&lt;/b&gt;&lt;br&gt;Percentage identity: 100&lt;br&gt;Percentage coverage: 89&lt;br&gt;BLAST bit score: 929&lt;br&gt;E-value: 0.0" locus_tag="CCM_03160" class="clusterblast-orf" id="dummy-7_h7_1_36"  />
</g>
<g id="a7_0037"  >
<polygon points="556,85 561,80 562,80 562,90 561,90 556,85 " style="fill:#1563d8; stroke-width:1; stroke:black; " description="&lt;b&gt;CCM_03161&lt;/b&gt;&lt;br&gt;acyl-CoA thioesterase II&lt;br&gt;Location: 3880433 - 3881632&lt;br&gt;&lt;br&gt;&lt;b&gt;BlastP hit with input.path1.gene1091&lt;/b&gt;&lt;br&gt;Percentage identity: 50&lt;br&gt;Percentage coverage: 121&lt;br&gt;BLAST bit score: 244&lt;br&gt;E-value: 7.06e-77" locus_tag="CCM_03161" class="clusterblast-orf" id="dummy-7_h7_1_37"  />
</g>
<g id="a7_0038"  >
<polygon points="566,85 571,80 585,80 585,90 571,90 566,85 " style="fill:#d815b1; stroke-width:1; stroke:black; " description="&lt;b&gt;CCM_03162&lt;/b&gt;&lt;br&gt;oxysterol binding protein&lt;br&gt;Location: 3882529 - 3886576&lt;br&gt;&lt;br&gt;&lt;b&gt;BlastP hit with input.path1.gene1092&lt;/b&gt;&lt;br&gt;Percentage identity: 98&lt;br&gt;Percentage coverage: 83&lt;br&gt;BLAST bit score: 2347&lt;br&gt;E-value: 0.0" locus_tag="CCM_03162" class="clusterblast-orf" id="dummy-7_h7_1_38"  />
</g>
<g id="a7_0039"  >
<polygon points="591,85 594,80 594,90 591,85 " style="fill:#d815b1; stroke-width:1; stroke:black; " description="&lt;b&gt;CCM_03163&lt;/b&gt;&lt;br&gt;hypothetical protein&lt;br&gt;Location: 3887817 - 3888335&lt;br&gt;&lt;br&gt;&lt;b&gt;BlastP hit with input.path1.gene1092&lt;/b&gt;&lt;br&gt;Percentage identity: 100&lt;br&gt;Percentage coverage: 11&lt;br&gt;BLAST bit score: 294&lt;br&gt;E-value: 8.38e-90" locus_tag="CCM_03163" class="clusterblast-orf" id="dummy-7_h7_1_39"  />
</g>
<g id="a7_0040"  >
<polygon points="595,90 597,85 595,80 595,90 " style="fill:white; stroke-width:1; stroke:black; " description="&lt;b&gt;CCM_03164&lt;/b&gt;&lt;br&gt;hypothetical protein&lt;br&gt;Location: 3888695 - 3889016" locus_tag="CCM_03164" class="clusterblast-orf" id="dummy-7_h7_1_40"  />
</g>
<g id="a7_0041"  >
<polygon points="598,85 599,80 599,90 598,85 " style="fill:white; stroke-width:1; stroke:black; " description="&lt;b&gt;CCM_03165&lt;/b&gt;&lt;br&gt;hypothetical protein&lt;br&gt;Location: 3889240 - 3889458" locus_tag="CCM_03165" class="clusterblast-orf" id="dummy-7_h7_1_41"  />
</g>
<g id="a7_0042"  >
<polygon points="601,90 601,90 606,85 601,80 601,80 601,90 " style="fill:#d8b115; stroke-width:1; stroke:black; " description="&lt;b&gt;CCM_03166&lt;/b&gt;&lt;br&gt;hypothetical protein&lt;br&gt;Location: 3889900 - 3891010&lt;br&gt;&lt;br&gt;&lt;b&gt;BlastP hit with input.path1.gene1093&lt;/b&gt;&lt;br&gt;Percentage identity: 79&lt;br&gt;Percentage coverage: 125&lt;br&gt;BLAST bit score: 306&lt;br&gt;E-value: 6.39e-105" locus_tag="CCM_03166" class="clusterblast-orf" id="dummy-7_h7_1_42"  />
</g>
<g id="a7_0043"  >
<polygon points="611,90 626,90 631,85 626,80 611,80 611,90 " style="fill:#15d863; stroke-width:1; stroke:black; " description="&lt;b&gt;CCM_03167&lt;/b&gt;&lt;br&gt;ABC bile acid transporter, putative&lt;br&gt;Location: 3891940 - 3896256&lt;br&gt;&lt;br&gt;&lt;b&gt;BlastP hit with input.path1.gene1094&lt;/b&gt;&lt;br&gt;Percentage identity: 94&lt;br&gt;Percentage coverage: 100&lt;br&gt;BLAST bit score: 426&lt;br&gt;E-value: 1.77e-138" locus_tag="CCM_03167" class="clusterblast-orf" id="dummy-7_h7_1_43"  />
</g>
<g id="a7_0044"  >
<polygon points="632,85 637,80 637,80 637,90 637,90 632,85 " style="fill:#1515d8; stroke-width:1; stroke:black; " description="&lt;b&gt;CCM_03168&lt;/b&gt;&lt;br&gt;peptidylarginine deiminase-like enzyme&lt;br&gt;Location: 3896488 - 3897555&lt;br&gt;&lt;br&gt;&lt;b&gt;BlastP hit with input.path1.gene1095&lt;/b&gt;&lt;br&gt;Percentage identity: 100&lt;br&gt;Percentage coverage: 100&lt;br&gt;BLAST bit score: 714&lt;br&gt;E-value: 9.91e-262" locus_tag="CCM_03168" class="clusterblast-orf" id="dummy-7_h7_1_44"  />
</g>
<g id="a7_0045"  >
<polygon points="643,85 648,80 650,80 650,90 648,90 643,85 " style="fill:#d81563; stroke-width:1; stroke:black; " description="&lt;b&gt;CCM_03169&lt;/b&gt;&lt;br&gt;alkaline serine protease Alp1&lt;br&gt;Location: 3898765 - 3900341&lt;br&gt;&lt;br&gt;&lt;b&gt;BlastP hit with input.path1.gene1096&lt;/b&gt;&lt;br&gt;Percentage identity: 87&lt;br&gt;Percentage coverage: 114&lt;br&gt;BLAST bit score: 682&lt;br&gt;E-value: 6.4e-247" locus_tag="CCM_03169" class="clusterblast-orf" id="dummy-7_h7_1_45"  />
</g>
<g id="a7_0046"  >
<polygon points="676,90 679,85 676,80 676,90 " style="fill:white; stroke-width:1; stroke:black; " description="&lt;b&gt;CCM_03170&lt;/b&gt;&lt;br&gt;hypothetical protein&lt;br&gt;Location: 3905785 - 3906338" locus_tag="CCM_03170" class="clusterblast-orf" id="dummy-7_h7_1_46"  />
</g>
<g id="a7_0047"  >
<polygon points="680,85 685,80 686,80 686,90 685,90 680,85 " style="fill:#b1d815; stroke-width:1; stroke:black; " description="&lt;b&gt;CCM_03171&lt;/b&gt;&lt;br&gt;pyridine nucleotide-disulfide oxidoreductase, putative&lt;br&gt;Location: 3906618 - 3907955&lt;br&gt;&lt;br&gt;&lt;b&gt;BlastP hit with input.path1.gene1098&lt;/b&gt;&lt;br&gt;Percentage identity: 100&lt;br&gt;Percentage coverage: 100&lt;br&gt;BLAST bit score: 877&lt;br&gt;E-value: 0.0" locus_tag="CCM_03171" class="clusterblast-orf" id="dummy-7_h7_1_47"  />
</g>
<g id="a7_0048"  >
<polygon points="691,85 696,80 700,80 700,90 696,90 691,85 " style="fill:#15d8b1; stroke-width:1; stroke:black; " description="&lt;b&gt;CCM_03172&lt;/b&gt;&lt;br&gt;G1/S-specific cyclin Pcl5, putative&lt;br&gt;Location: 3908867 - 3910933&lt;br&gt;&lt;br&gt;&lt;b&gt;BlastP hit with input.path1.gene1099&lt;/b&gt;&lt;br&gt;Percentage identity: 99&lt;br&gt;Percentage coverage: 96&lt;br&gt;BLAST bit score: 1247&lt;br&gt;E-value: 0.0" locus_tag="CCM_03172" class="clusterblast-orf" id="dummy-7_h7_1_48"  />
</g>
<g id="a7_0049"  >
<polygon points="723,85 728,80 740,80 740,90 728,90 723,85 " style="fill:#6315d8; stroke-width:1; stroke:black; " description="&lt;b&gt;CCM_03173&lt;/b&gt;&lt;br&gt;ATP-dependent RNA helicase SUB2&lt;br&gt;Location: 3915836 - 3919385&lt;br&gt;&lt;br&gt;&lt;b&gt;BlastP hit with input.path1.gene1100&lt;/b&gt;&lt;br&gt;Percentage identity: 90&lt;br&gt;Percentage coverage: 106&lt;br&gt;BLAST bit score: 876&lt;br&gt;E-value: 2.47e-317&lt;br&gt;&lt;br&gt;&lt;b&gt;BlastP hit with input.path1.gene1101&lt;/b&gt;&lt;br&gt;Percentage identity: 100&lt;br&gt;Percentage coverage: 90&lt;br&gt;BLAST bit score: 360&lt;br&gt;E-value: 1.36e-119" locus_tag="CCM_03173" class="clusterblast-orf" id="dummy-7_h7_1_49"  />
</g>
<g id="a7_0050"  >
<polygon points="748,85 753,80 780,80 780,90 753,90 748,85 " style="fill:white; stroke-width:1; stroke:black; " description="&lt;b&gt;CCM_03174&lt;/b&gt;&lt;br&gt;2-dehydropantoate 2-reductase, putative&lt;br&gt;Location: 3921092 - 3927713" locus_tag="CCM_03174" class="clusterblast-orf" id="dummy-7_h7_1_50"  />
</g>
</svg>
