<svg xmlns="http://www.w3.org/2000/svg" xmlns:xlink="http://www.w3.org/1999/xlink" version="1.1" x="0" y="0" height="230" width="800" viewBox="0 0 800 230" preserveAspectRatio="none"  >
<g label="Query sequence" class="clusterblast-cluster"  >
<text x="5" y="20" class="clusterblast-acc"  >
Query sequence</text>
<line x1="10" y1="35" x2="778.0" y2="35" style="stroke-width:1; stroke:grey; "  />
<polygon points="178,35 183,30 198,30 198,40 183,40 178,35 " style="fill:#d81515; stroke-width:1; stroke:black; " description="&lt;b&gt;input.path1.gene1149&lt;/b&gt;&lt;br&gt;input.path1.gene1149&lt;br&gt;Location: 4113227 - 4115591" locus_tag="input.path1.gene1149" class="clusterblast-orf" id="dummy-4_q0_0_all"  />
<polygon points="210,35 215,30 278,30 278,40 215,40 210,35 " style="fill:#5cd815; stroke-width:1; stroke:black; " description="&lt;b&gt;input.path1.gene1150&lt;/b&gt;&lt;br&gt;input.path1.gene1150&lt;br&gt;Location: 4117038 - 4125239" locus_tag="input.path1.gene1150" class="clusterblast-orf" id="dummy-4_q1_0_all"  />
<polygon points="288,35 291,30 291,40 288,35 " style="fill:white; stroke-width:1; stroke:black; " description="&lt;b&gt;input.path1.gene1151&lt;/b&gt;&lt;br&gt;input.path1.gene1151&lt;br&gt;Location: 4126410 - 4126726" locus_tag="input.path1.gene1151" class="clusterblast-orf" id="dummy-4_q2_0_all"  />
<polygon points="293,35 298,30 321,30 321,40 298,40 293,35 " style="fill:#15a3d8; stroke-width:1; stroke:black; " description="&lt;b&gt;input.path1.gene1152&lt;/b&gt;&lt;br&gt;input.path1.gene1152&lt;br&gt;Location: 4127005 - 4130368" locus_tag="input.path1.gene1152" class="clusterblast-orf" id="dummy-4_q3_0_all"  />
<polygon points="332,40 446,40 451,35 446,30 332,30 332,40 " style="fill:#c715d8; stroke-width:1; stroke:black; " description="&lt;b&gt;input.path1.gene1153&lt;/b&gt;&lt;br&gt;input.path1.gene1153&lt;br&gt;Location: 4131637 - 4145983" locus_tag="input.path1.gene1153" class="clusterblast-orf" id="dummy-4_q4_0_all"  />
<polygon points="459,40 466,40 471,35 466,30 459,30 459,40 " style="fill:white; stroke-width:1; stroke:black; " description="&lt;b&gt;input.path1.gene1154&lt;/b&gt;&lt;br&gt;input.path1.gene1154&lt;br&gt;Location: 4147005 - 4148421" locus_tag="input.path1.gene1154" class="clusterblast-orf" id="dummy-4_q5_0_all"  />
<polygon points="498,40 501,40 506,35 501,30 498,30 498,40 " style="fill:#d88015; stroke-width:1; stroke:black; " description="&lt;b&gt;input.path1.gene1155&lt;/b&gt;&lt;br&gt;input.path1.gene1155&lt;br&gt;Location: 4151593 - 4152580" locus_tag="input.path1.gene1155" class="clusterblast-orf" id="dummy-4_q6_0_all"  />
<polygon points="507,35 512,30 516,30 516,40 512,40 507,35 " style="fill:#15d839; stroke-width:1; stroke:black; " description="&lt;b&gt;input.path1.gene1156&lt;/b&gt;&lt;br&gt;input.path1.gene1156&lt;br&gt;Location: 4152666 - 4153817" locus_tag="input.path1.gene1156" class="clusterblast-orf" id="dummy-4_q7_0_all"  />
<polygon points="519,40 520,40 525,35 520,30 519,30 519,40 " style="fill:#1539d8; stroke-width:1; stroke:black; " description="&lt;b&gt;input.path1.gene1157&lt;/b&gt;&lt;br&gt;input.path1.gene1157&lt;br&gt;Location: 4154134 - 4154929" locus_tag="input.path1.gene1157" class="clusterblast-orf" id="dummy-4_q8_0_all"  />
<polygon points="527,35 532,30 546,30 546,40 532,40 527,35 " style="fill:#d81580; stroke-width:1; stroke:black; " description="&lt;b&gt;input.path1.gene1158&lt;/b&gt;&lt;br&gt;input.path1.gene1158&lt;br&gt;Location: 4155094 - 4157415" locus_tag="input.path1.gene1158" class="clusterblast-orf" id="dummy-4_q9_0_all"  />
<polygon points="554,35 559,30 576,30 576,40 559,40 554,35 " style="fill:#c7d815; stroke-width:1; stroke:black; " description="&lt;b&gt;input.path1.gene1159&lt;/b&gt;&lt;br&gt;input.path1.gene1159&lt;br&gt;Location: 4158327 - 4160974" locus_tag="input.path1.gene1159" class="clusterblast-orf" id="dummy-4_q10_0_all"  />
<polygon points="579,40 581,40 586,35 581,30 579,30 579,40 " style="fill:#15d8a3; stroke-width:1; stroke:black; " description="&lt;b&gt;input.path1.gene1160&lt;/b&gt;&lt;br&gt;input.path1.gene1160&lt;br&gt;Location: 4161340 - 4162275" locus_tag="input.path1.gene1160" class="clusterblast-orf" id="dummy-4_q11_0_all"  />
<polygon points="590,35 595,30 601,30 601,40 595,40 590,35 " style="fill:#5c15d8; stroke-width:1; stroke:black; " description="&lt;b&gt;input.path1.gene1161&lt;/b&gt;&lt;br&gt;input.path1.gene1161&lt;br&gt;Location: 4162654 - 4163983" locus_tag="input.path1.gene1161" class="clusterblast-orf" id="dummy-4_q12_0_all"  />
</g>
<g label="NC_058399" description="NC_058399 (6406982-6512577): Fusarium poae strain DAOMC 252244 chromosome 1, ... (15% of genes show similarity), NRPS,T1PKS" class="clusterblast-cluster"  >
<text x="5" y="70" class="clusterblast-acc"  >
<a xlink:href="https://antismash-db.secondarymetabolites.org/area?record=NC_058399&amp;start=6406982&amp;end=6512577" target="_blank">NC_058399 (6406982-6512577)</a>: Fusarium poae strain DAOMC 252244 chromosome 1, ... (15% of genes show similarity), NRPS,T1PKS</text>
<line x1="10" y1="85" x2="778.0" y2="85" style="stroke-width:1; stroke:grey; "  />
</g>
<g id="a4_000"  >
<polygon points="0,85 5,80 47,80 47,90 5,90 0,85 " style="fill:white; stroke-width:1; stroke:black; " description="&lt;b&gt;FPOAC1_002088&lt;/b&gt;&lt;br&gt;hypothetical protein&lt;br&gt;Location: 6511009 - 6505312" locus_tag="FPOAC1_002088" class="clusterblast-orf" id="dummy-4_h4_4_0"  />
</g>
<g id="a4_001"  >
<polygon points="83,90 123,90 128,85 123,80 83,80 83,90 " style="fill:white; stroke-width:1; stroke:black; " description="&lt;b&gt;FPOAC1_002087&lt;/b&gt;&lt;br&gt;hypothetical protein&lt;br&gt;Location: 6500998 - 6495555" locus_tag="FPOAC1_002087" class="clusterblast-orf" id="dummy-4_h4_4_1"  />
</g>
<g id="a4_002"  >
<polygon points="133,85 138,80 145,80 145,90 138,90 133,85 " style="fill:white; stroke-width:1; stroke:black; " description="&lt;b&gt;FPOAC1_002086&lt;/b&gt;&lt;br&gt;hypothetical protein&lt;br&gt;Location: 6494901 - 6493571" locus_tag="FPOAC1_002086" class="clusterblast-orf" id="dummy-4_h4_4_2"  />
</g>
<g id="a4_003"  >
<polygon points="154,90 165,90 170,85 165,80 154,80 154,90 " style="fill:white; stroke-width:1; stroke:black; " description="&lt;b&gt;FPOAC1_002085&lt;/b&gt;&lt;br&gt;hypothetical protein&lt;br&gt;Location: 6492473 - 6490453" locus_tag="FPOAC1_002085" class="clusterblast-orf" id="dummy-4_h4_4_3"  />
</g>
<g id="a4_004"  >
<polygon points="179,90 189,90 194,85 189,80 179,80 179,90 " style="fill:white; stroke-width:1; stroke:black; " description="&lt;b&gt;FPOAC1_002084&lt;/b&gt;&lt;br&gt;hypothetical protein&lt;br&gt;Location: 6489452 - 6487649" locus_tag="FPOAC1_002084" class="clusterblast-orf" id="dummy-4_h4_4_4"  />
</g>
<g id="a4_005"  >
<polygon points="203,85 208,80 216,80 216,90 208,90 203,85 " style="fill:white; stroke-width:1; stroke:black; " description="&lt;b&gt;FPOAC1_002083&lt;/b&gt;&lt;br&gt;hypothetical protein&lt;br&gt;Location: 6486560 - 6485008" locus_tag="FPOAC1_002083" class="clusterblast-orf" id="dummy-4_h4_4_5"  />
</g>
<g id="a4_006"  >
<polygon points="236,85 241,80 302,80 302,90 241,90 236,85 " style="fill:#5cd815; stroke-width:1; stroke:black; " description="&lt;b&gt;FPOAC1_002082&lt;/b&gt;&lt;br&gt;Highly reducing polyketide synthase 40&lt;br&gt;Location: 6482577 - 6474665&lt;br&gt;&lt;br&gt;&lt;b&gt;BlastP hit with input.path1.gene1150&lt;/b&gt;&lt;br&gt;Percentage identity: 44&lt;br&gt;Percentage coverage: 101&lt;br&gt;BLAST bit score: 1934&lt;br&gt;E-value: 0.0" locus_tag="FPOAC1_002082" class="clusterblast-orf" id="dummy-4_h4_4_6"  />
</g>
<g id="a4_007"  >
<polygon points="311,90 313,90 318,85 313,80 311,80 311,90 " style="fill:white; stroke-width:1; stroke:black; " description="&lt;b&gt;FPOAC1_002081&lt;/b&gt;&lt;br&gt;hypothetical protein&lt;br&gt;Location: 6473543 - 6472687" locus_tag="FPOAC1_002081" class="clusterblast-orf" id="dummy-4_h4_4_7"  />
</g>
<g id="a4_008"  >
<polygon points="321,85 326,80 355,80 355,90 326,90 321,85 " style="fill:white; stroke-width:1; stroke:black; " description="&lt;b&gt;FPOAC1_002080&lt;/b&gt;&lt;br&gt;hypothetical protein&lt;br&gt;Location: 6472313 - 6468216" locus_tag="FPOAC1_002080" class="clusterblast-orf" id="dummy-4_h4_4_8"  />
</g>
<g id="a4_009"  >
<polygon points="362,90 374,90 379,85 374,80 362,80 362,90 " style="fill:#15a3d8; stroke-width:1; stroke:black; " description="&lt;b&gt;FPOAC1_002079&lt;/b&gt;&lt;br&gt;hypothetical protein&lt;br&gt;Location: 6467427 - 6465365&lt;br&gt;&lt;br&gt;&lt;b&gt;BlastP hit with input.path1.gene1152&lt;/b&gt;&lt;br&gt;Percentage identity: 43&lt;br&gt;Percentage coverage: 32&lt;br&gt;BLAST bit score: 156&lt;br&gt;E-value: 4.04e-39" locus_tag="FPOAC1_002079" class="clusterblast-orf" id="dummy-4_h4_4_9"  />
</g>
<g id="a4_0010"  >
<polygon points="391,90 610,90 615,85 610,80 391,80 391,90 " style="fill:#c715d8; stroke-width:1; stroke:black; " description="&lt;b&gt;FPOAC1_002078&lt;/b&gt;&lt;br&gt;Nonribosomal peptide synthetase 32&lt;br&gt;Location: 6463909 - 6436983&lt;br&gt;&lt;br&gt;&lt;b&gt;BlastP hit with input.path1.gene1153&lt;/b&gt;&lt;br&gt;Percentage identity: 32&lt;br&gt;Percentage coverage: 101&lt;br&gt;BLAST bit score: 2144&lt;br&gt;E-value: 0.0" locus_tag="FPOAC1_002078" class="clusterblast-orf" id="dummy-4_h4_4_10"  />
</g>
<g id="a4_0011"  >
<polygon points="619,85 622,80 622,90 619,85 " style="fill:white; stroke-width:1; stroke:black; " description="&lt;b&gt;FPOAC1_002077&lt;/b&gt;&lt;br&gt;hypothetical protein&lt;br&gt;Location: 6436517 - 6436138" locus_tag="FPOAC1_002077" class="clusterblast-orf" id="dummy-4_h4_4_11"  />
</g>
<g id="a4_0012"  >
<polygon points="623,85 626,80 626,90 623,85 " style="fill:white; stroke-width:1; stroke:black; " description="&lt;b&gt;FPOAC1_002076&lt;/b&gt;&lt;br&gt;hypothetical protein&lt;br&gt;Location: 6436055 - 6435699" locus_tag="FPOAC1_002076" class="clusterblast-orf" id="dummy-4_h4_4_12"  />
</g>
<g id="a4_0013"  >
<polygon points="654,90 664,90 669,85 664,80 654,80 654,90 " style="fill:white; stroke-width:1; stroke:black; " description="&lt;b&gt;FPOAC1_002075&lt;/b&gt;&lt;br&gt;hypothetical protein&lt;br&gt;Location: 6432366 - 6430528" locus_tag="FPOAC1_002075" class="clusterblast-orf" id="dummy-4_h4_4_13"  />
</g>
<g id="a4_0014"  >
<polygon points="675,90 675,90 680,85 675,80 675,80 675,90 " style="fill:white; stroke-width:1; stroke:black; " description="&lt;b&gt;FPOAC1_002074&lt;/b&gt;&lt;br&gt;hypothetical protein&lt;br&gt;Location: 6429749 - 6429141" locus_tag="FPOAC1_002074" class="clusterblast-orf" id="dummy-4_h4_4_14"  />
</g>
<g id="a4_0015"  >
<polygon points="682,85 687,80 691,80 691,90 687,90 682,85 " style="fill:white; stroke-width:1; stroke:black; " description="&lt;b&gt;FPOAC1_002073&lt;/b&gt;&lt;br&gt;hypothetical protein&lt;br&gt;Location: 6428897 - 6427892" locus_tag="FPOAC1_002073" class="clusterblast-orf" id="dummy-4_h4_4_15"  />
</g>
<g id="a4_0016"  >
<polygon points="705,85 710,80 720,80 720,90 710,90 705,85 " style="fill:white; stroke-width:1; stroke:black; " description="&lt;b&gt;FPOAC1_002072&lt;/b&gt;&lt;br&gt;hypothetical protein&lt;br&gt;Location: 6426239 - 6424386" locus_tag="FPOAC1_002072" class="clusterblast-orf" id="dummy-4_h4_4_16"  />
</g>
<g id="a4_0017"  >
<polygon points="727,85 732,80 734,80 734,90 732,90 727,85 " style="fill:white; stroke-width:1; stroke:black; " description="&lt;b&gt;FPOAC1_002071&lt;/b&gt;&lt;br&gt;translation initiation factor eIF5A&lt;br&gt;Location: 6423603 - 6422715" locus_tag="FPOAC1_002071" class="clusterblast-orf" id="dummy-4_h4_4_17"  />
</g>
<g id="a4_0018"  >
<polygon points="748,90 761,90 766,85 761,80 748,80 748,90 " style="fill:white; stroke-width:1; stroke:black; " description="&lt;b&gt;FPOAC1_002070&lt;/b&gt;&lt;br&gt;hypothetical protein&lt;br&gt;Location: 6420977 - 6418898" locus_tag="FPOAC1_002070" class="clusterblast-orf" id="dummy-4_h4_4_18"  />
</g>
<g id="a4_0019"  >
<polygon points="768,85 773,80 780,80 780,90 773,90 768,85 " style="fill:white; stroke-width:1; stroke:black; " description="&lt;b&gt;FPOAC1_002069&lt;/b&gt;&lt;br&gt;hypothetical protein&lt;br&gt;Location: 6418585 - 6417234" locus_tag="FPOAC1_002069" class="clusterblast-orf" id="dummy-4_h4_4_19"  />
</g>
</svg>
