<svg xmlns="http://www.w3.org/2000/svg" xmlns:xlink="http://www.w3.org/1999/xlink" version="1.1" x="0" y="0" height="230" width="800" viewBox="0 0 800 230" preserveAspectRatio="none"  >
<g label="Query sequence" class="clusterblast-cluster"  >
<text x="5" y="20" class="clusterblast-acc"  >
Query sequence</text>
<line x1="10" y1="35" x2="778.0" y2="35" style="stroke-width:1; stroke:grey; "  />
<polygon points="154,40 157,40 162,35 157,30 154,30 154,40 " style="fill:#d81515; stroke-width:1; stroke:black; " description="&lt;b&gt;input.path1.gene1370&lt;/b&gt;&lt;br&gt;input.path1.gene1370&lt;br&gt;Location: 4877275 - 4877939" locus_tag="input.path1.gene1370" class="clusterblast-orf" id="dummy-5_q0_0_all"  />
<polygon points="166,35 171,30 178,30 178,40 171,40 166,35 " style="fill:#4dd815; stroke-width:1; stroke:black; " description="&lt;b&gt;input.path1.gene1371&lt;/b&gt;&lt;br&gt;input.path1.gene1371&lt;br&gt;Location: 4878296 - 4879368" locus_tag="input.path1.gene1371" class="clusterblast-orf" id="dummy-5_q1_0_all"  />
<polygon points="185,35 190,30 199,30 199,40 190,40 185,35 " style="fill:#1585d8; stroke-width:1; stroke:black; " description="&lt;b&gt;input.path1.gene1372&lt;/b&gt;&lt;br&gt;input.path1.gene1372&lt;br&gt;Location: 4879931 - 4881125" locus_tag="input.path1.gene1372" class="clusterblast-orf" id="dummy-5_q2_0_all"  />
<polygon points="235,40 236,40 241,35 236,30 235,30 235,40 " style="fill:#a115d8; stroke-width:1; stroke:black; " description="&lt;b&gt;input.path1.gene1373&lt;/b&gt;&lt;br&gt;input.path1.gene1373&lt;br&gt;Location: 4884140 - 4884686" locus_tag="input.path1.gene1373" class="clusterblast-orf" id="dummy-5_q3_0_all"  />
<polygon points="246,35 251,30 263,30 263,40 251,40 246,35 " style="fill:#d86915; stroke-width:1; stroke:black; " description="&lt;b&gt;input.path1.gene1374&lt;/b&gt;&lt;br&gt;input.path1.gene1374&lt;br&gt;Location: 4885090 - 4886565" locus_tag="input.path1.gene1374" class="clusterblast-orf" id="dummy-5_q4_0_all"  />
<polygon points="289,35 294,30 300,30 300,40 294,40 289,35 " style="fill:#15d831; stroke-width:1; stroke:black; " description="&lt;b&gt;input.path1.gene1375&lt;/b&gt;&lt;br&gt;input.path1.gene1375&lt;br&gt;Location: 4888719 - 4889632" locus_tag="input.path1.gene1375" class="clusterblast-orf" id="dummy-5_q5_0_all"  />
<polygon points="308,40 392,40 397,35 392,30 308,30 308,40 " style="fill:#1531d8; stroke-width:1; stroke:black; " description="&lt;b&gt;input.path1.gene1376&lt;/b&gt;&lt;br&gt;input.path1.gene1376&lt;br&gt;Location: 4890304 - 4897848" locus_tag="input.path1.gene1376" class="clusterblast-orf" id="dummy-5_q6_0_all"  />
<polygon points="401,35 406,30 409,30 409,40 406,40 401,35 " style="fill:#d815bc; stroke-width:1; stroke:black; " description="&lt;b&gt;input.path1.gene1377&lt;/b&gt;&lt;br&gt;input.path1.gene1377&lt;br&gt;Location: 4898198 - 4898904" locus_tag="input.path1.gene1377" class="clusterblast-orf" id="dummy-5_q7_0_all"  />
<polygon points="420,35 425,30 440,30 440,40 425,40 420,35 " style="fill:#d8bc15; stroke-width:1; stroke:black; " description="&lt;b&gt;input.path1.gene1378&lt;/b&gt;&lt;br&gt;input.path1.gene1378&lt;br&gt;Location: 4899794 - 4901540" locus_tag="input.path1.gene1378" class="clusterblast-orf" id="dummy-5_q8_0_all"  />
<polygon points="449,40 476,40 481,35 476,30 449,30 449,40 " style="fill:#15d885; stroke-width:1; stroke:black; " description="&lt;b&gt;input.path1.gene1379&lt;/b&gt;&lt;br&gt;input.path1.gene1379&lt;br&gt;Location: 4902318 - 4904984" locus_tag="input.path1.gene1379" class="clusterblast-orf" id="dummy-5_q9_0_all"  />
<polygon points="490,40 497,40 502,35 497,30 490,30 490,40 " style="fill:#4d15d8; stroke-width:1; stroke:black; " description="&lt;b&gt;input.path1.gene1380&lt;/b&gt;&lt;br&gt;input.path1.gene1380&lt;br&gt;Location: 4905723 - 4906734" locus_tag="input.path1.gene1380" class="clusterblast-orf" id="dummy-5_q10_0_all"  />
<polygon points="504,35 509,30 522,30 522,40 509,40 504,35 " style="fill:#d81569; stroke-width:1; stroke:black; " description="&lt;b&gt;input.path1.gene1381&lt;/b&gt;&lt;br&gt;input.path1.gene1381&lt;br&gt;Location: 4906918 - 4908462" locus_tag="input.path1.gene1381" class="clusterblast-orf" id="dummy-5_q11_0_all"  />
<polygon points="529,35 534,30 537,30 537,40 534,40 529,35 " style="fill:white; stroke-width:1; stroke:black; " description="&lt;b&gt;input.path1.gene1382&lt;/b&gt;&lt;br&gt;input.path1.gene1382&lt;br&gt;Location: 4909057 - 4909738" locus_tag="input.path1.gene1382" class="clusterblast-orf" id="dummy-5_q12_0_all"  />
<polygon points="558,40 587,40 592,35 587,30 558,30 558,40 " style="fill:#a1d815; stroke-width:1; stroke:black; " description="&lt;b&gt;input.path1.gene1383&lt;/b&gt;&lt;br&gt;input.path1.gene1383&lt;br&gt;Location: 4911536 - 4914365" locus_tag="input.path1.gene1383" class="clusterblast-orf" id="dummy-5_q13_0_all"  />
<polygon points="601,35 606,30 625,30 625,40 606,40 601,35 " style="fill:#15d8d8; stroke-width:1; stroke:black; " description="&lt;b&gt;input.path1.gene1384&lt;/b&gt;&lt;br&gt;input.path1.gene1384&lt;br&gt;Location: 4915143 - 4917236" locus_tag="input.path1.gene1384" class="clusterblast-orf" id="dummy-5_q14_0_all"  />
</g>
<g label="NC_049565" description="NC_049565 (1715696-1783101): Talaromyces rugulosus chromosome V, complete seq... (20% of genes show similarity), T1PKS" class="clusterblast-cluster"  >
<text x="5" y="70" class="clusterblast-acc"  >
<a xlink:href="https://antismash-db.secondarymetabolites.org/area?record=NC_049565&amp;start=1715696&amp;end=1783101" target="_blank">NC_049565 (1715696-1783101)</a>: Talaromyces rugulosus chromosome V, complete seq... (20% of genes show similarity), T1PKS</text>
<line x1="10" y1="85" x2="778.0" y2="85" style="stroke-width:1; stroke:grey; "  />
</g>
<g id="a5_000"  >
<polygon points="0,90 10,90 15,85 10,80 0,80 0,90 " style="fill:white; stroke-width:1; stroke:black; " description="&lt;b&gt;TRUGW13939_09141&lt;/b&gt;&lt;br&gt;uncharacterized protein&lt;br&gt;Location: 1715711 - 1717003" locus_tag="TRUGW13939_09141" class="clusterblast-orf" id="dummy-5_h5_4_0"  />
</g>
<g id="a5_001"  >
<polygon points="25,90 52,90 57,85 52,80 25,80 25,90 " style="fill:white; stroke-width:1; stroke:black; " description="&lt;b&gt;TRUGW13939_09142&lt;/b&gt;&lt;br&gt;uncharacterized protein&lt;br&gt;Location: 1717882 - 1720541" locus_tag="TRUGW13939_09142" class="clusterblast-orf" id="dummy-5_h5_4_1"  />
</g>
<g id="a5_002"  >
<polygon points="58,85 63,80 67,80 67,90 63,90 58,85 " style="fill:white; stroke-width:1; stroke:black; " description="&lt;b&gt;TRUGW13939_09143&lt;/b&gt;&lt;br&gt;uncharacterized protein&lt;br&gt;Location: 1720657 - 1721448" locus_tag="TRUGW13939_09143" class="clusterblast-orf" id="dummy-5_h5_4_2"  />
</g>
<g id="a5_003"  >
<polygon points="75,85 80,80 89,80 89,90 80,90 75,85 " style="fill:white; stroke-width:1; stroke:black; " description="&lt;b&gt;TRUGW13939_09144&lt;/b&gt;&lt;br&gt;uncharacterized protein&lt;br&gt;Location: 1722110 - 1723325" locus_tag="TRUGW13939_09144" class="clusterblast-orf" id="dummy-5_h5_4_3"  />
</g>
<g id="a5_004"  >
<polygon points="94,85 99,80 135,80 135,90 99,90 94,85 " style="fill:white; stroke-width:1; stroke:black; " description="&lt;b&gt;TRUGW13939_09145&lt;/b&gt;&lt;br&gt;uncharacterized protein&lt;br&gt;Location: 1723745 - 1727170" locus_tag="TRUGW13939_09145" class="clusterblast-orf" id="dummy-5_h5_4_4"  />
</g>
<g id="a5_005"  >
<polygon points="150,90 161,90 166,85 161,80 150,80 150,90 " style="fill:white; stroke-width:1; stroke:black; " description="&lt;b&gt;TRUGW13939_09146&lt;/b&gt;&lt;br&gt;uncharacterized protein&lt;br&gt;Location: 1728456 - 1729799" locus_tag="TRUGW13939_09146" class="clusterblast-orf" id="dummy-5_h5_4_5"  />
</g>
<g id="a5_006"  >
<polygon points="192,85 197,80 212,80 212,90 197,90 192,85 " style="fill:white; stroke-width:1; stroke:black; " description="&lt;b&gt;TRUGW13939_09147&lt;/b&gt;&lt;br&gt;uncharacterized protein&lt;br&gt;Location: 1732051 - 1733690" locus_tag="TRUGW13939_09147" class="clusterblast-orf" id="dummy-5_h5_4_6"  />
</g>
<g id="a5_007"  >
<polygon points="217,90 234,90 239,85 234,80 217,80 217,90 " style="fill:white; stroke-width:1; stroke:black; " description="&lt;b&gt;TRUGW13939_09148&lt;/b&gt;&lt;br&gt;uncharacterized protein&lt;br&gt;Location: 1734098 - 1736026" locus_tag="TRUGW13939_09148" class="clusterblast-orf" id="dummy-5_h5_4_7"  />
</g>
<g id="a5_008"  >
<polygon points="243,85 248,80 252,80 252,90 248,90 243,85 " style="fill:#d815bc; stroke-width:1; stroke:black; " description="&lt;b&gt;TRUGW13939_09149&lt;/b&gt;&lt;br&gt;uncharacterized protein&lt;br&gt;Location: 1736346 - 1737095&lt;br&gt;&lt;br&gt;&lt;b&gt;BlastP hit with input.path1.gene1377&lt;/b&gt;&lt;br&gt;Percentage identity: 31&lt;br&gt;Percentage coverage: 95&lt;br&gt;BLAST bit score: 99&lt;br&gt;E-value: 2.46e-23" locus_tag="TRUGW13939_09149" class="clusterblast-orf" id="dummy-5_h5_4_8"  />
</g>
<g id="a5_009"  >
<polygon points="257,90 273,90 278,85 273,80 257,80 257,90 " style="fill:#d8bc15; stroke-width:1; stroke:black; " description="&lt;b&gt;TRUGW13939_09150&lt;/b&gt;&lt;br&gt;uncharacterized protein&lt;br&gt;Location: 1737565 - 1739302&lt;br&gt;&lt;br&gt;&lt;b&gt;BlastP hit with input.path1.gene1378&lt;/b&gt;&lt;br&gt;Percentage identity: 58&lt;br&gt;Percentage coverage: 99&lt;br&gt;BLAST bit score: 682&lt;br&gt;E-value: 3.95e-242" locus_tag="TRUGW13939_09150" class="clusterblast-orf" id="dummy-5_h5_4_9"  />
</g>
<g id="a5_0010"  >
<polygon points="287,90 309,90 314,85 309,80 287,80 287,90 " style="fill:#15d885; stroke-width:1; stroke:black; " description="&lt;b&gt;TRUGW13939_09151&lt;/b&gt;&lt;br&gt;uncharacterized protein&lt;br&gt;Location: 1740069 - 1742336&lt;br&gt;&lt;br&gt;&lt;b&gt;BlastP hit with input.path1.gene1379&lt;/b&gt;&lt;br&gt;Percentage identity: 62&lt;br&gt;Percentage coverage: 82&lt;br&gt;BLAST bit score: 873&lt;br&gt;E-value: 1.3e-310" locus_tag="TRUGW13939_09151" class="clusterblast-orf" id="dummy-5_h5_4_10"  />
</g>
<g id="a5_0011"  >
<polygon points="316,85 321,80 327,80 327,90 321,90 316,85 " style="fill:white; stroke-width:1; stroke:black; " description="&lt;b&gt;TRUGW13939_09152&lt;/b&gt;&lt;br&gt;uncharacterized protein&lt;br&gt;Location: 1742480 - 1743478" locus_tag="TRUGW13939_09152" class="clusterblast-orf" id="dummy-5_h5_4_11"  />
</g>
<g id="a5_0012"  >
<polygon points="336,85 341,80 347,80 347,90 341,90 336,85 " style="fill:#15d831; stroke-width:1; stroke:black; " description="&lt;b&gt;TRUGW13939_09153&lt;/b&gt;&lt;br&gt;uncharacterized protein&lt;br&gt;Location: 1744213 - 1745109&lt;br&gt;&lt;br&gt;&lt;b&gt;BlastP hit with input.path1.gene1375&lt;/b&gt;&lt;br&gt;Percentage identity: 39&lt;br&gt;Percentage coverage: 98&lt;br&gt;BLAST bit score: 212&lt;br&gt;E-value: 7.04e-66" locus_tag="TRUGW13939_09153" class="clusterblast-orf" id="dummy-5_h5_4_12"  />
</g>
<g id="a5_0013"  >
<polygon points="353,90 436,90 441,85 436,80 353,80 353,90 " style="fill:#1531d8; stroke-width:1; stroke:black; " description="&lt;b&gt;TRUGW13939_09154&lt;/b&gt;&lt;br&gt;uncharacterized protein&lt;br&gt;Location: 1745697 - 1753101&lt;br&gt;&lt;br&gt;&lt;b&gt;BlastP hit with input.path1.gene1376&lt;/b&gt;&lt;br&gt;Percentage identity: 49&lt;br&gt;Percentage coverage: 103&lt;br&gt;BLAST bit score: 2127&lt;br&gt;E-value: 0.0" locus_tag="TRUGW13939_09154" class="clusterblast-orf" id="dummy-5_h5_4_13"  />
</g>
<g id="a5_0014"  >
<polygon points="461,90 478,90 483,85 478,80 461,80 461,90 " style="fill:white; stroke-width:1; stroke:black; " description="&lt;b&gt;TRUGW13939_09155&lt;/b&gt;&lt;br&gt;uncharacterized protein&lt;br&gt;Location: 1754842 - 1756677" locus_tag="TRUGW13939_09155" class="clusterblast-orf" id="dummy-5_h5_4_14"  />
</g>
<g id="a5_0015"  >
<polygon points="496,85 501,80 514,80 514,90 501,90 496,85 " style="fill:white; stroke-width:1; stroke:black; " description="&lt;b&gt;TRUGW13939_09156&lt;/b&gt;&lt;br&gt;uncharacterized protein&lt;br&gt;Location: 1757761 - 1759312" locus_tag="TRUGW13939_09156" class="clusterblast-orf" id="dummy-5_h5_4_15"  />
</g>
<g id="a5_0016"  >
<polygon points="543,90 557,90 562,85 557,80 543,80 543,90 " style="fill:white; stroke-width:1; stroke:black; " description="&lt;b&gt;TRUGW13939_09157&lt;/b&gt;&lt;br&gt;uncharacterized protein&lt;br&gt;Location: 1761747 - 1763370" locus_tag="TRUGW13939_09157" class="clusterblast-orf" id="dummy-5_h5_4_16"  />
</g>
<g id="a5_0017"  >
<polygon points="569,85 574,80 600,80 600,90 574,90 569,85 " style="fill:white; stroke-width:1; stroke:black; " description="&lt;b&gt;TRUGW13939_09158&lt;/b&gt;&lt;br&gt;uncharacterized protein&lt;br&gt;Location: 1763953 - 1766614" locus_tag="TRUGW13939_09158" class="clusterblast-orf" id="dummy-5_h5_4_17"  />
</g>
<g id="a5_0018"  >
<polygon points="626,90 638,90 643,85 638,80 626,80 626,90 " style="fill:white; stroke-width:1; stroke:black; " description="&lt;b&gt;TRUGW13939_09159&lt;/b&gt;&lt;br&gt;uncharacterized protein&lt;br&gt;Location: 1768773 - 1770196" locus_tag="TRUGW13939_09159" class="clusterblast-orf" id="dummy-5_h5_4_18"  />
</g>
<g id="a5_0019"  >
<polygon points="663,90 692,90 697,85 692,80 663,80 663,90 " style="fill:white; stroke-width:1; stroke:black; " description="&lt;b&gt;TRUGW13939_09160&lt;/b&gt;&lt;br&gt;uncharacterized protein&lt;br&gt;Location: 1771890 - 1774775" locus_tag="TRUGW13939_09160" class="clusterblast-orf" id="dummy-5_h5_4_19"  />
</g>
<g id="a5_0020"  >
<polygon points="700,85 705,80 710,80 710,90 705,90 700,85 " style="fill:white; stroke-width:1; stroke:black; " description="&lt;b&gt;TRUGW13939_09161&lt;/b&gt;&lt;br&gt;uncharacterized protein&lt;br&gt;Location: 1775044 - 1775901" locus_tag="TRUGW13939_09161" class="clusterblast-orf" id="dummy-5_h5_4_20"  />
</g>
<g id="a5_0021"  >
<polygon points="715,85 720,80 725,80 725,90 720,90 715,85 " style="fill:white; stroke-width:1; stroke:black; " description="&lt;b&gt;TRUGW13939_09162&lt;/b&gt;&lt;br&gt;uncharacterized protein&lt;br&gt;Location: 1776333 - 1777196" locus_tag="TRUGW13939_09162" class="clusterblast-orf" id="dummy-5_h5_4_21"  />
</g>
<g id="a5_0022"  >
<polygon points="745,90 750,90 755,85 750,80 745,80 745,90 " style="fill:white; stroke-width:1; stroke:black; " description="&lt;b&gt;TRUGW13939_09163&lt;/b&gt;&lt;br&gt;uncharacterized protein&lt;br&gt;Location: 1778865 - 1779683" locus_tag="TRUGW13939_09163" class="clusterblast-orf" id="dummy-5_h5_4_22"  />
</g>
<g id="a5_0023"  >
<polygon points="758,85 763,80 780,80 780,90 763,90 758,85 " style="fill:white; stroke-width:1; stroke:black; " description="&lt;b&gt;TRUGW13939_09164&lt;/b&gt;&lt;br&gt;uncharacterized protein&lt;br&gt;Location: 1779991 - 1781783" locus_tag="TRUGW13939_09164" class="clusterblast-orf" id="dummy-5_h5_4_23"  />
</g>
</svg>
