<svg xmlns="http://www.w3.org/2000/svg" xmlns:xlink="http://www.w3.org/1999/xlink" version="1.1" x="0" y="0" height="230" width="800" viewBox="0 0 800 230" preserveAspectRatio="none"  >
<g label="Query sequence" class="clusterblast-cluster"  >
<text x="5" y="20" class="clusterblast-acc"  >
Query sequence</text>
<line x1="10" y1="35" x2="778.0" y2="35" style="stroke-width:1; stroke:grey; "  />
<polygon points="111,35 116,30 144,30 144,40 116,40 111,35 " style="fill:#d81515; stroke-width:1; stroke:black; " description="&lt;b&gt;input.path1.gene250&lt;/b&gt;&lt;br&gt;input.path1.gene250&lt;br&gt;Location: 857939 - 860574" locus_tag="input.path1.gene250" class="clusterblast-orf" id="dummy-2_q0_0_all"  />
<polygon points="158,40 161,35 158,30 158,40 " style="fill:white; stroke-width:1; stroke:black; " description="&lt;b&gt;input.path1.gene251&lt;/b&gt;&lt;br&gt;input.path1.gene251&lt;br&gt;Location: 861714 - 861938" locus_tag="input.path1.gene251" class="clusterblast-orf" id="dummy-2_q1_0_all"  />
<polygon points="167,40 176,40 181,35 176,30 167,30 167,40 " style="fill:white; stroke-width:1; stroke:black; " description="&lt;b&gt;input.path1.gene252&lt;/b&gt;&lt;br&gt;input.path1.gene252&lt;br&gt;Location: 862385 - 863501" locus_tag="input.path1.gene252" class="clusterblast-orf" id="dummy-2_q2_0_all"  />
<polygon points="196,40 201,40 206,35 201,30 196,30 196,40 " style="fill:#33d815; stroke-width:1; stroke:black; " description="&lt;b&gt;input.path1.gene253&lt;/b&gt;&lt;br&gt;input.path1.gene253&lt;br&gt;Location: 864697 - 865493" locus_tag="input.path1.gene253" class="clusterblast-orf" id="dummy-2_q3_0_all"  />
<polygon points="216,35 221,30 226,30 226,40 221,40 216,35 " style="fill:#15abd8; stroke-width:1; stroke:black; " description="&lt;b&gt;input.path1.gene254&lt;/b&gt;&lt;br&gt;input.path1.gene254&lt;br&gt;Location: 866338 - 867081" locus_tag="input.path1.gene254" class="clusterblast-orf" id="dummy-2_q4_0_all"  />
<polygon points="285,40 294,40 299,35 294,30 285,30 285,40 " style="fill:#8d15d8; stroke-width:1; stroke:black; " description="&lt;b&gt;input.path1.gene255&lt;/b&gt;&lt;br&gt;input.path1.gene255&lt;br&gt;Location: 871816 - 872878" locus_tag="input.path1.gene255" class="clusterblast-orf" id="dummy-2_q5_0_all"  />
<polygon points="302,35 307,30 316,30 316,40 307,40 302,35 " style="fill:#d86f15; stroke-width:1; stroke:black; " description="&lt;b&gt;input.path1.gene256&lt;/b&gt;&lt;br&gt;input.path1.gene256&lt;br&gt;Location: 873137 - 874281" locus_tag="input.path1.gene256" class="clusterblast-orf" id="dummy-2_q6_0_all"  />
<polygon points="349,40 413,40 418,35 413,30 349,30 349,40 " style="fill:#15d851; stroke-width:1; stroke:black; " description="&lt;b&gt;input.path1.gene257&lt;/b&gt;&lt;br&gt;input.path1.gene257&lt;br&gt;Location: 876909 - 882360" locus_tag="input.path1.gene257" class="clusterblast-orf" id="dummy-2_q7_0_all"  />
<polygon points="422,35 427,30 446,30 446,40 427,40 422,35 " style="fill:#1551d8; stroke-width:1; stroke:black; " description="&lt;b&gt;input.path1.gene258&lt;/b&gt;&lt;br&gt;input.path1.gene258&lt;br&gt;Location: 882708 - 884544" locus_tag="input.path1.gene258" class="clusterblast-orf" id="dummy-2_q8_0_all"  />
<polygon points="475,35 480,30 493,30 493,40 480,40 475,35 " style="fill:#d815c9; stroke-width:1; stroke:black; " description="&lt;b&gt;input.path1.gene259&lt;/b&gt;&lt;br&gt;input.path1.gene259&lt;br&gt;Location: 886881 - 888306" locus_tag="input.path1.gene259" class="clusterblast-orf" id="dummy-2_q9_0_all"  />
<polygon points="535,40 544,40 549,35 544,30 535,30 535,40 " style="fill:#d8c915; stroke-width:1; stroke:black; " description="&lt;b&gt;input.path1.gene260&lt;/b&gt;&lt;br&gt;input.path1.gene260&lt;br&gt;Location: 891626 - 892766" locus_tag="input.path1.gene260" class="clusterblast-orf" id="dummy-2_q10_0_all"  />
<polygon points="555,35 560,30 574,30 574,40 560,40 555,35 " style="fill:#15d8ab; stroke-width:1; stroke:black; " description="&lt;b&gt;input.path1.gene261&lt;/b&gt;&lt;br&gt;input.path1.gene261&lt;br&gt;Location: 893263 - 894749" locus_tag="input.path1.gene261" class="clusterblast-orf" id="dummy-2_q11_0_all"  />
<polygon points="584,35 589,30 601,30 601,40 589,40 584,35 " style="fill:#3315d8; stroke-width:1; stroke:black; " description="&lt;b&gt;input.path1.gene262&lt;/b&gt;&lt;br&gt;input.path1.gene262&lt;br&gt;Location: 895574 - 896888" locus_tag="input.path1.gene262" class="clusterblast-orf" id="dummy-2_q12_0_all"  />
<polygon points="634,40 640,40 645,35 640,30 634,30 634,40 " style="fill:#d8156f; stroke-width:1; stroke:black; " description="&lt;b&gt;input.path1.gene263&lt;/b&gt;&lt;br&gt;input.path1.gene263&lt;br&gt;Location: 899494 - 900409" locus_tag="input.path1.gene263" class="clusterblast-orf" id="dummy-2_q13_0_all"  />
<polygon points="655,35 660,30 669,30 669,40 660,40 655,35 " style="fill:#8dd815; stroke-width:1; stroke:black; " description="&lt;b&gt;input.path1.gene264&lt;/b&gt;&lt;br&gt;input.path1.gene264&lt;br&gt;Location: 901154 - 902257" locus_tag="input.path1.gene264" class="clusterblast-orf" id="dummy-2_q14_0_all"  />
</g>
<g label="NW_006271972" description="NW_006271972 (846900-910624): Cordyceps militaris CM01 unplaced genomic scaff... (54% of genes show similarity), NRPS" class="clusterblast-cluster"  >
<text x="5" y="70" class="clusterblast-acc"  >
<a xlink:href="https://antismash-db.secondarymetabolites.org/area?record=NW_006271972&amp;start=846900&amp;end=910624" target="_blank">NW_006271972 (846900-910624)</a>: Cordyceps militaris CM01 unplaced genomic scaff... (54% of genes show similarity), NRPS</text>
<line x1="10" y1="85" x2="778.0" y2="85" style="stroke-width:1; stroke:grey; "  />
</g>
<g id="a2_000"  >
<polygon points="0,90 15,90 20,85 15,80 0,80 0,90 " style="fill:white; stroke-width:1; stroke:black; " description="&lt;b&gt;CCM_05297&lt;/b&gt;&lt;br&gt;MFS hexose transporter, putative&lt;br&gt;Location: 847049 - 848653" locus_tag="CCM_05297" class="clusterblast-orf" id="dummy-2_h2_1_0"  />
</g>
<g id="a2_001"  >
<polygon points="32,90 52,90 57,85 52,80 32,80 32,90 " style="fill:white; stroke-width:1; stroke:black; " description="&lt;b&gt;CCM_05298&lt;/b&gt;&lt;br&gt;plastidic glucose transporter 4&lt;br&gt;Location: 849655 - 851594" locus_tag="CCM_05298" class="clusterblast-orf" id="dummy-2_h2_1_1"  />
</g>
<g id="a2_002"  >
<polygon points="107,90 113,90 118,85 113,80 107,80 107,90 " style="fill:white; stroke-width:1; stroke:black; " description="&lt;b&gt;CCM_05299&lt;/b&gt;&lt;br&gt;hypothetical protein&lt;br&gt;Location: 855623 - 856426" locus_tag="CCM_05299" class="clusterblast-orf" id="dummy-2_h2_1_2"  />
</g>
<g id="a2_003"  >
<polygon points="133,90 136,90 141,85 136,80 133,80 133,90 " style="fill:white; stroke-width:1; stroke:black; " description="&lt;b&gt;CCM_05300&lt;/b&gt;&lt;br&gt;dolichyl-phosphate mannosyltransferase polypeptide 3&lt;br&gt;Location: 857680 - 858277" locus_tag="CCM_05300" class="clusterblast-orf" id="dummy-2_h2_1_3"  />
</g>
<g id="a2_004"  >
<polygon points="179,85 184,80 210,80 210,90 184,90 179,85 " style="fill:white; stroke-width:1; stroke:black; " description="&lt;b&gt;CCM_05301&lt;/b&gt;&lt;br&gt;pathway-specific nitrogen regulator&lt;br&gt;Location: 861324 - 863748" locus_tag="CCM_05301" class="clusterblast-orf" id="dummy-2_h2_1_4"  />
</g>
<g id="a2_005"  >
<polygon points="222,90 227,90 232,85 227,80 222,80 222,90 " style="fill:#33d815; stroke-width:1; stroke:black; " description="&lt;b&gt;CCM_05302&lt;/b&gt;&lt;br&gt;Oxidoreductase-like protein&lt;br&gt;Location: 864732 - 865493&lt;br&gt;&lt;br&gt;&lt;b&gt;BlastP hit with input.path1.gene253&lt;/b&gt;&lt;br&gt;Percentage identity: 100&lt;br&gt;Percentage coverage: 92&lt;br&gt;BLAST bit score: 434&lt;br&gt;E-value: 4.11e-154" locus_tag="CCM_05302" class="clusterblast-orf" id="dummy-2_h2_1_5"  />
</g>
<g id="a2_006"  >
<polygon points="242,85 247,80 252,80 252,90 247,90 242,85 " style="fill:#15abd8; stroke-width:1; stroke:black; " description="&lt;b&gt;CCM_05303&lt;/b&gt;&lt;br&gt;xanthine phosphoribosyltransferase 1&lt;br&gt;Location: 866339 - 867081&lt;br&gt;&lt;br&gt;&lt;b&gt;BlastP hit with input.path1.gene254&lt;/b&gt;&lt;br&gt;Percentage identity: 100&lt;br&gt;Percentage coverage: 100&lt;br&gt;BLAST bit score: 417&lt;br&gt;E-value: 4.08e-149" locus_tag="CCM_05303" class="clusterblast-orf" id="dummy-2_h2_1_6"  />
</g>
<g id="a2_007"  >
<polygon points="260,85 265,80 300,80 300,90 265,90 260,85 " style="fill:white; stroke-width:1; stroke:black; " description="&lt;b&gt;CCM_05304&lt;/b&gt;&lt;br&gt;hypothetical protein&lt;br&gt;Location: 867777 - 870922" locus_tag="CCM_05304" class="clusterblast-orf" id="dummy-2_h2_1_7"  />
</g>
<g id="a2_008"  >
<polygon points="311,90 320,90 325,85 320,80 311,80 311,90 " style="fill:#8d15d8; stroke-width:1; stroke:black; " description="&lt;b&gt;CCM_05305&lt;/b&gt;&lt;br&gt;hypothetical protein&lt;br&gt;Location: 871817 - 872878&lt;br&gt;&lt;br&gt;&lt;b&gt;BlastP hit with input.path1.gene255&lt;/b&gt;&lt;br&gt;Percentage identity: 100&lt;br&gt;Percentage coverage: 100&lt;br&gt;BLAST bit score: 713&lt;br&gt;E-value: 3.45e-261" locus_tag="CCM_05305" class="clusterblast-orf" id="dummy-2_h2_1_8"  />
</g>
<g id="a2_009"  >
<polygon points="328,85 333,80 349,80 349,90 333,90 328,85 " style="fill:#d86f15; stroke-width:1; stroke:black; " description="&lt;b&gt;CCM_05306&lt;/b&gt;&lt;br&gt;cytochrome P450 alkane hydroxylase, putative&lt;br&gt;Location: 873138 - 874845&lt;br&gt;&lt;br&gt;&lt;b&gt;BlastP hit with input.path1.gene256&lt;/b&gt;&lt;br&gt;Percentage identity: 100&lt;br&gt;Percentage coverage: 100&lt;br&gt;BLAST bit score: 670&lt;br&gt;E-value: 4.57e-242" locus_tag="CCM_05306" class="clusterblast-orf" id="dummy-2_h2_1_9"  />
</g>
<g id="a2_0010"  >
<polygon points="375,90 417,90 422,85 417,80 375,80 375,90 " style="fill:#15d851; stroke-width:1; stroke:black; " description="&lt;b&gt;CCM_05307&lt;/b&gt;&lt;br&gt;AMP-binding enzyme family protein&lt;br&gt;Location: 876901 - 880624&lt;br&gt;&lt;br&gt;&lt;b&gt;BlastP hit with input.path1.gene257&lt;/b&gt;&lt;br&gt;Percentage identity: 100&lt;br&gt;Percentage coverage: 75&lt;br&gt;BLAST bit score: 2355&lt;br&gt;E-value: 0.0" locus_tag="CCM_05307" class="clusterblast-orf" id="dummy-2_h2_1_10"  />
</g>
<g id="a2_0011"  >
<polygon points="448,85 453,80 489,80 489,90 453,90 448,85 " style="fill:#1551d8; stroke-width:1; stroke:black; " description="&lt;b&gt;CCM_05308&lt;/b&gt;&lt;br&gt;peroxisomal membrane protein Pex23-Penicillium chrysogenum&lt;br&gt;Location: 882709 - 885902&lt;br&gt;&lt;br&gt;&lt;b&gt;BlastP hit with input.path1.gene258&lt;/b&gt;&lt;br&gt;Percentage identity: 100&lt;br&gt;Percentage coverage: 100&lt;br&gt;BLAST bit score: 1167&lt;br&gt;E-value: 0.0" locus_tag="CCM_05308" class="clusterblast-orf" id="dummy-2_h2_1_11"  />
</g>
<g id="a2_0012"  >
<polygon points="501,85 506,80 526,80 526,90 506,90 501,85 " style="fill:#d815c9; stroke-width:1; stroke:black; " description="&lt;b&gt;CCM_05309&lt;/b&gt;&lt;br&gt;hypothetical protein&lt;br&gt;Location: 886882 - 888830&lt;br&gt;&lt;br&gt;&lt;b&gt;BlastP hit with input.path1.gene259&lt;/b&gt;&lt;br&gt;Percentage identity: 100&lt;br&gt;Percentage coverage: 100&lt;br&gt;BLAST bit score: 947&lt;br&gt;E-value: 0.0" locus_tag="CCM_05309" class="clusterblast-orf" id="dummy-2_h2_1_12"  />
</g>
<g id="a2_0013"  >
<polygon points="560,90 570,90 575,85 570,80 560,80 560,90 " style="fill:#d8c915; stroke-width:1; stroke:black; " description="&lt;b&gt;CCM_05310&lt;/b&gt;&lt;br&gt;extracellular dioxygenase, putative&lt;br&gt;Location: 891567 - 892766&lt;br&gt;&lt;br&gt;&lt;b&gt;BlastP hit with input.path1.gene260&lt;/b&gt;&lt;br&gt;Percentage identity: 100&lt;br&gt;Percentage coverage: 100&lt;br&gt;BLAST bit score: 699&lt;br&gt;E-value: 4.91e-256" locus_tag="CCM_05310" class="clusterblast-orf" id="dummy-2_h2_1_13"  />
</g>
<g id="a2_0014"  >
<polygon points="581,85 586,80 597,80 597,90 586,90 581,85 " style="fill:#15d8ab; stroke-width:1; stroke:black; " description="&lt;b&gt;CCM_05311&lt;/b&gt;&lt;br&gt;hypothetical protein&lt;br&gt;Location: 893264 - 894514&lt;br&gt;&lt;br&gt;&lt;b&gt;BlastP hit with input.path1.gene261&lt;/b&gt;&lt;br&gt;Percentage identity: 100&lt;br&gt;Percentage coverage: 90&lt;br&gt;BLAST bit score: 763&lt;br&gt;E-value: 8.48e-279" locus_tag="CCM_05311" class="clusterblast-orf" id="dummy-2_h2_1_14"  />
</g>
<g id="a2_0015"  >
<polygon points="600,90 602,90 607,85 602,80 600,80 600,90 " style="fill:white; stroke-width:1; stroke:black; " description="&lt;b&gt;CCM_05312&lt;/b&gt;&lt;br&gt;MFS transporter, putative&lt;br&gt;Location: 894748 - 895281" locus_tag="CCM_05312" class="clusterblast-orf" id="dummy-2_h2_1_15"  />
</g>
<g id="a2_0016"  >
<polygon points="610,85 615,80 627,80 627,90 615,90 610,85 " style="fill:#3315d8; stroke-width:1; stroke:black; " description="&lt;b&gt;CCM_05313&lt;/b&gt;&lt;br&gt;phospho-2-dehydro-3-deoxyheptonate aldolase&lt;br&gt;Location: 895575 - 896912&lt;br&gt;&lt;br&gt;&lt;b&gt;BlastP hit with input.path1.gene262&lt;/b&gt;&lt;br&gt;Percentage identity: 100&lt;br&gt;Percentage coverage: 100&lt;br&gt;BLAST bit score: 706&lt;br&gt;E-value: 3.53e-258" locus_tag="CCM_05313" class="clusterblast-orf" id="dummy-2_h2_1_16"  />
</g>
<g id="a2_0017"  >
<polygon points="660,90 666,90 671,85 666,80 660,80 660,90 " style="fill:#d8156f; stroke-width:1; stroke:black; " description="&lt;b&gt;CCM_05314&lt;/b&gt;&lt;br&gt;hypothetical protein&lt;br&gt;Location: 899495 - 900409&lt;br&gt;&lt;br&gt;&lt;b&gt;BlastP hit with input.path1.gene263&lt;/b&gt;&lt;br&gt;Percentage identity: 80&lt;br&gt;Percentage coverage: 124&lt;br&gt;BLAST bit score: 463&lt;br&gt;E-value: 1.65e-165" locus_tag="CCM_05314" class="clusterblast-orf" id="dummy-2_h2_1_17"  />
</g>
<g id="a2_0018"  >
<polygon points="683,85 688,80 695,80 695,90 688,90 683,85 " style="fill:#8dd815; stroke-width:1; stroke:black; " description="&lt;b&gt;CCM_05315&lt;/b&gt;&lt;br&gt;hypothetical protein&lt;br&gt;Location: 901333 - 902257&lt;br&gt;&lt;br&gt;&lt;b&gt;BlastP hit with input.path1.gene264&lt;/b&gt;&lt;br&gt;Percentage identity: 100&lt;br&gt;Percentage coverage: 98&lt;br&gt;BLAST bit score: 510&lt;br&gt;E-value: 2.04e-183" locus_tag="CCM_05315" class="clusterblast-orf" id="dummy-2_h2_1_18"  />
</g>
<g id="a2_0019"  >
<polygon points="707,90 722,90 727,85 722,80 707,80 707,90 " style="fill:white; stroke-width:1; stroke:black; " description="&lt;b&gt;CCM_05316&lt;/b&gt;&lt;br&gt;60S ribosomal protein L13&lt;br&gt;Location: 903239 - 904829" locus_tag="CCM_05316" class="clusterblast-orf" id="dummy-2_h2_1_19"  />
</g>
<g id="a2_0020"  >
<polygon points="731,85 736,80 758,80 758,90 736,90 731,85 " style="fill:white; stroke-width:1; stroke:black; " description="&lt;b&gt;CCM_05317&lt;/b&gt;&lt;br&gt;Armadillo-type fold domain containing protein&lt;br&gt;Location: 905153 - 907314" locus_tag="CCM_05317" class="clusterblast-orf" id="dummy-2_h2_1_20"  />
</g>
<g id="a2_0021"  >
<polygon points="769,90 775,90 780,85 775,80 769,80 769,90 " style="fill:white; stroke-width:1; stroke:black; " description="&lt;b&gt;CCM_05318&lt;/b&gt;&lt;br&gt;mitochondrial import inner membrane translocase subunit tim-16&lt;br&gt;Location: 908193 - 909004" locus_tag="CCM_05318" class="clusterblast-orf" id="dummy-2_h2_1_21"  />
</g>
</svg>
