<svg xmlns="http://www.w3.org/2000/svg" xmlns:xlink="http://www.w3.org/1999/xlink" version="1.1" x="0" y="0" height="230" width="800" viewBox="0 0 800 230" preserveAspectRatio="none"  >
<g label="Query sequence" class="clusterblast-cluster"  >
<text x="5" y="20" class="clusterblast-acc"  >
Query sequence</text>
<line x1="10" y1="35" x2="778.0" y2="35" style="stroke-width:1; stroke:grey; "  />
<polygon points="130,40 140,40 145,35 140,30 130,30 130,40 " style="fill:#d81515; stroke-width:1; stroke:black; " description="&lt;b&gt;input.path1.gene535&lt;/b&gt;&lt;br&gt;input.path1.gene535&lt;br&gt;Location: 1981999 - 1984432" locus_tag="input.path1.gene535" class="clusterblast-orf" id="dummy-1_q0_0_all"  />
<polygon points="159,40 163,35 159,30 159,40 " style="fill:white; stroke-width:1; stroke:black; " description="&lt;b&gt;input.path1.gene536&lt;/b&gt;&lt;br&gt;input.path1.gene536&lt;br&gt;Location: 1986720 - 1987490" locus_tag="input.path1.gene536" class="clusterblast-orf" id="dummy-1_q1_0_all"  />
<polygon points="184,40 187,35 184,30 184,40 " style="fill:#6ad815; stroke-width:1; stroke:black; " description="&lt;b&gt;input.path1.gene537&lt;/b&gt;&lt;br&gt;input.path1.gene537&lt;br&gt;Location: 1990949 - 1991421" locus_tag="input.path1.gene537" class="clusterblast-orf" id="dummy-1_q2_0_all"  />
<polygon points="187,35 190,30 190,40 187,35 " style="fill:#15bfd8; stroke-width:1; stroke:black; " description="&lt;b&gt;input.path1.gene538&lt;/b&gt;&lt;br&gt;input.path1.gene538&lt;br&gt;Location: 1991469 - 1991951" locus_tag="input.path1.gene538" class="clusterblast-orf" id="dummy-1_q3_0_all"  />
<polygon points="197,35 201,30 201,40 197,35 " style="fill:#9d15d8; stroke-width:1; stroke:black; " description="&lt;b&gt;input.path1.gene539&lt;/b&gt;&lt;br&gt;input.path1.gene539&lt;br&gt;Location: 1993061 - 1993763" locus_tag="input.path1.gene539" class="clusterblast-orf" id="dummy-1_q4_0_all"  />
<polygon points="215,40 216,40 221,35 216,30 215,30 215,40 " style="fill:#d84815; stroke-width:1; stroke:black; " description="&lt;b&gt;input.path1.gene540&lt;/b&gt;&lt;br&gt;input.path1.gene540&lt;br&gt;Location: 1996031 - 1997004" locus_tag="input.path1.gene540" class="clusterblast-orf" id="dummy-1_q5_0_all"  />
<polygon points="223,35 228,30 271,30 271,40 228,40 223,35 " style="fill:#37d815; stroke-width:1; stroke:black; " description="&lt;b&gt;input.path1.gene541&lt;/b&gt;&lt;br&gt;input.path1.gene541&lt;br&gt;Location: 1997436 - 2005384" locus_tag="input.path1.gene541" class="clusterblast-orf" id="dummy-1_q6_0_all"  />
<polygon points="274,40 277,40 282,35 277,30 274,30 274,40 " style="fill:#158cd8; stroke-width:1; stroke:black; " description="&lt;b&gt;input.path1.gene542&lt;/b&gt;&lt;br&gt;input.path1.gene542&lt;br&gt;Location: 2005958 - 2007286" locus_tag="input.path1.gene542" class="clusterblast-orf" id="dummy-1_q7_0_all"  />
<polygon points="299,40 301,40 306,35 301,30 299,30 299,40 " style="fill:#d015d8; stroke-width:1; stroke:black; " description="&lt;b&gt;input.path1.gene543&lt;/b&gt;&lt;br&gt;input.path1.gene543&lt;br&gt;Location: 2009994 - 2011179" locus_tag="input.path1.gene543" class="clusterblast-orf" id="dummy-1_q8_0_all"  />
<polygon points="322,35 327,30 335,30 335,40 327,40 322,35 " style="fill:#d87b15; stroke-width:1; stroke:black; " description="&lt;b&gt;input.path1.gene544&lt;/b&gt;&lt;br&gt;input.path1.gene544&lt;br&gt;Location: 2013964 - 2016015" locus_tag="input.path1.gene544" class="clusterblast-orf" id="dummy-1_q9_0_all"  />
<polygon points="343,35 345,30 345,40 343,35 " style="fill:white; stroke-width:1; stroke:black; " description="&lt;b&gt;input.path1.gene545&lt;/b&gt;&lt;br&gt;input.path1.gene545&lt;br&gt;Location: 2017404 - 2017714" locus_tag="input.path1.gene545" class="clusterblast-orf" id="dummy-1_q10_0_all"  />
<polygon points="346,40 370,40 375,35 370,30 346,30 346,40 " style="fill:#15d826; stroke-width:1; stroke:black; " description="&lt;b&gt;input.path1.gene546&lt;/b&gt;&lt;br&gt;input.path1.gene546&lt;br&gt;Location: 2017951 - 2022730" locus_tag="input.path1.gene546" class="clusterblast-orf" id="dummy-1_q11_0_all"  />
<polygon points="376,35 381,30 391,30 391,40 381,40 376,35 " style="fill:#1559d8; stroke-width:1; stroke:black; " description="&lt;b&gt;input.path1.gene547&lt;/b&gt;&lt;br&gt;input.path1.gene547&lt;br&gt;Location: 2022883 - 2025405" locus_tag="input.path1.gene547" class="clusterblast-orf" id="dummy-1_q12_0_all"  />
<polygon points="408,40 411,40 416,35 411,30 408,30 408,40 " style="fill:#d815ae; stroke-width:1; stroke:black; " description="&lt;b&gt;input.path1.gene548&lt;/b&gt;&lt;br&gt;input.path1.gene548&lt;br&gt;Location: 2028209 - 2029523" locus_tag="input.path1.gene548" class="clusterblast-orf" id="dummy-1_q13_0_all"  />
<polygon points="433,40 435,40 440,35 435,30 433,30 433,40 " style="fill:#d8ae15; stroke-width:1; stroke:black; " description="&lt;b&gt;input.path1.gene549&lt;/b&gt;&lt;br&gt;input.path1.gene549&lt;br&gt;Location: 2032434 - 2033574" locus_tag="input.path1.gene549" class="clusterblast-orf" id="dummy-1_q14_0_all"  />
<polygon points="442,35 447,30 449,30 449,40 447,40 442,35 " style="fill:#15d859; stroke-width:1; stroke:black; " description="&lt;b&gt;input.path1.gene550&lt;/b&gt;&lt;br&gt;input.path1.gene550&lt;br&gt;Location: 2033890 - 2034967" locus_tag="input.path1.gene550" class="clusterblast-orf" id="dummy-1_q15_0_all"  />
<polygon points="459,40 467,40 472,35 467,30 459,30 459,40 " style="fill:#1526d8; stroke-width:1; stroke:black; " description="&lt;b&gt;input.path1.gene551&lt;/b&gt;&lt;br&gt;input.path1.gene551&lt;br&gt;Location: 2036619 - 2038869" locus_tag="input.path1.gene551" class="clusterblast-orf" id="dummy-1_q16_0_all"  />
<polygon points="482,40 486,35 482,30 482,40 " style="fill:#d8157b; stroke-width:1; stroke:black; " description="&lt;b&gt;input.path1.gene552&lt;/b&gt;&lt;br&gt;input.path1.gene552&lt;br&gt;Location: 2040564 - 2041242" locus_tag="input.path1.gene552" class="clusterblast-orf" id="dummy-1_q17_0_all"  />
<polygon points="492,35 497,30 507,30 507,40 497,40 492,35 " style="fill:#d0d815; stroke-width:1; stroke:black; " description="&lt;b&gt;input.path1.gene553&lt;/b&gt;&lt;br&gt;input.path1.gene553&lt;br&gt;Location: 2042181 - 2044661" locus_tag="input.path1.gene553" class="clusterblast-orf" id="dummy-1_q18_0_all"  />
<polygon points="511,35 516,30 531,30 531,40 516,40 511,35 " style="fill:#15d88c; stroke-width:1; stroke:black; " description="&lt;b&gt;input.path1.gene554&lt;/b&gt;&lt;br&gt;input.path1.gene554&lt;br&gt;Location: 2045383 - 2048707" locus_tag="input.path1.gene554" class="clusterblast-orf" id="dummy-1_q19_0_all"  />
<polygon points="538,40 542,35 538,30 538,40 " style="fill:white; stroke-width:1; stroke:black; " description="&lt;b&gt;input.path1.gene555&lt;/b&gt;&lt;br&gt;input.path1.gene555&lt;br&gt;Location: 2049780 - 2050522" locus_tag="input.path1.gene555" class="clusterblast-orf" id="dummy-1_q20_0_all"  />
<polygon points="560,40 576,40 581,35 576,30 560,30 560,40 " style="fill:#3715d8; stroke-width:1; stroke:black; " description="&lt;b&gt;input.path1.gene556&lt;/b&gt;&lt;br&gt;input.path1.gene556&lt;br&gt;Location: 2053558 - 2056973" locus_tag="input.path1.gene556" class="clusterblast-orf" id="dummy-1_q21_0_all"  />
<polygon points="581,35 586,30 595,30 595,40 586,40 581,35 " style="fill:#d81548; stroke-width:1; stroke:black; " description="&lt;b&gt;input.path1.gene557&lt;/b&gt;&lt;br&gt;input.path1.gene557&lt;br&gt;Location: 2057081 - 2059391" locus_tag="input.path1.gene557" class="clusterblast-orf" id="dummy-1_q22_0_all"  />
<polygon points="605,35 610,30 610,30 610,40 610,40 605,35 " style="fill:#9dd815; stroke-width:1; stroke:black; " description="&lt;b&gt;input.path1.gene558&lt;/b&gt;&lt;br&gt;input.path1.gene558&lt;br&gt;Location: 2061057 - 2061846" locus_tag="input.path1.gene558" class="clusterblast-orf" id="dummy-1_q23_0_all"  />
<polygon points="622,35 627,30 629,30 629,40 627,40 622,35 " style="fill:#15d8bf; stroke-width:1; stroke:black; " description="&lt;b&gt;input.path1.gene559&lt;/b&gt;&lt;br&gt;input.path1.gene559&lt;br&gt;Location: 2063782 - 2065022" locus_tag="input.path1.gene559" class="clusterblast-orf" id="dummy-1_q24_0_all"  />
<polygon points="643,40 644,40 649,35 644,30 643,30 643,40 " style="fill:#6a15d8; stroke-width:1; stroke:black; " description="&lt;b&gt;input.path1.gene560&lt;/b&gt;&lt;br&gt;input.path1.gene560&lt;br&gt;Location: 2067320 - 2068262" locus_tag="input.path1.gene560" class="clusterblast-orf" id="dummy-1_q25_0_all"  />
</g>
<g label="NW_025091288" description="NW_025091288 (77418-218033): Aspergillus pseudoviridinutans IFM 55266 DNA, sc... (8% of genes show similarity), NRPS,NRPS-like,T1PKS" class="clusterblast-cluster"  >
<text x="5" y="70" class="clusterblast-acc"  >
<a xlink:href="https://antismash-db.secondarymetabolites.org/area?record=NW_025091288&amp;start=77418&amp;end=218033" target="_blank">NW_025091288 (77418-218033)</a>: Aspergillus pseudoviridinutans IFM 55266 DNA, sc... (8% of genes show similarity), NRPS,NRPS-like,T1PKS</text>
<line x1="10" y1="85" x2="778.0" y2="85" style="stroke-width:1; stroke:grey; "  />
</g>
<g id="a1_000"  >
<polygon points="0,90 2,85 0,80 0,90 " style="fill:white; stroke-width:1; stroke:black; " description="&lt;b&gt;Asppvi_010126&lt;/b&gt;&lt;br&gt;uncharacterized protein&lt;br&gt;Location: 85591 - 86005" locus_tag="Asppvi_010126" class="clusterblast-orf" id="dummy-1_h1_5_0"  />
</g>
<g id="a1_001"  >
<polygon points="93,85 98,80 101,80 101,90 98,90 93,85 " style="fill:white; stroke-width:1; stroke:black; " description="&lt;b&gt;Asppvi_010127&lt;/b&gt;&lt;br&gt;uncharacterized protein&lt;br&gt;Location: 101170 - 102561" locus_tag="Asppvi_010127" class="clusterblast-orf" id="dummy-1_h1_5_1"  />
</g>
<g id="a1_002"  >
<polygon points="114,85 119,80 126,80 126,90 119,90 114,85 " style="fill:white; stroke-width:1; stroke:black; " description="&lt;b&gt;Asppvi_010128&lt;/b&gt;&lt;br&gt;uncharacterized protein&lt;br&gt;Location: 104700 - 106694" locus_tag="Asppvi_010128" class="clusterblast-orf" id="dummy-1_h1_5_2"  />
</g>
<g id="a1_003"  >
<polygon points="131,85 136,80 161,80 161,90 136,90 131,85 " style="fill:#15d88c; stroke-width:1; stroke:black; " description="&lt;b&gt;Asppvi_010129&lt;/b&gt;&lt;br&gt;putative NRPS-like protein biosynthetic cluster&lt;br&gt;Location: 107419 - 112537&lt;br&gt;&lt;br&gt;&lt;b&gt;BlastP hit with input.path1.gene554&lt;/b&gt;&lt;br&gt;Percentage identity: 37&lt;br&gt;Percentage coverage: 34&lt;br&gt;BLAST bit score: 202&lt;br&gt;E-value: 1.2e-50" locus_tag="Asppvi_010129" class="clusterblast-orf" id="dummy-1_h1_5_3"  />
</g>
<g id="a1_004"  >
<polygon points="166,85 171,80 190,80 190,90 171,90 166,85 " style="fill:#3715d8; stroke-width:1; stroke:black; " description="&lt;b&gt;Asppvi_010130&lt;/b&gt;&lt;br&gt;uncharacterized protein&lt;br&gt;Location: 113233 - 117314&lt;br&gt;&lt;br&gt;&lt;b&gt;BlastP hit with input.path1.gene556&lt;/b&gt;&lt;br&gt;Percentage identity: 39&lt;br&gt;Percentage coverage: 102&lt;br&gt;BLAST bit score: 709&lt;br&gt;E-value: 2.32e-234" locus_tag="Asppvi_010130" class="clusterblast-orf" id="dummy-1_h1_5_4"  />
</g>
<g id="a1_005"  >
<polygon points="194,85 199,80 207,80 207,90 199,90 194,85 " style="fill:white; stroke-width:1; stroke:black; " description="&lt;b&gt;Asppvi_010131&lt;/b&gt;&lt;br&gt;uncharacterized protein&lt;br&gt;Location: 118038 - 120078" locus_tag="Asppvi_010131" class="clusterblast-orf" id="dummy-1_h1_5_5"  />
</g>
<g id="a1_006"  >
<polygon points="213,85 218,80 220,80 220,90 218,90 213,85 " style="fill:white; stroke-width:1; stroke:black; " description="&lt;b&gt;Asppvi_010132&lt;/b&gt;&lt;br&gt;uncharacterized protein&lt;br&gt;Location: 121128 - 122294" locus_tag="Asppvi_010132" class="clusterblast-orf" id="dummy-1_h1_5_6"  />
</g>
<g id="a1_007"  >
<polygon points="223,90 228,90 233,85 228,80 223,80 223,90 " style="fill:white; stroke-width:1; stroke:black; " description="&lt;b&gt;Asppvi_010133&lt;/b&gt;&lt;br&gt;uncharacterized protein&lt;br&gt;Location: 122873 - 124434" locus_tag="Asppvi_010133" class="clusterblast-orf" id="dummy-1_h1_5_7"  />
</g>
<g id="a1_008"  >
<polygon points="234,85 239,80 243,80 243,90 239,90 234,85 " style="fill:white; stroke-width:1; stroke:black; " description="&lt;b&gt;Asppvi_010134&lt;/b&gt;&lt;br&gt;uncharacterized protein&lt;br&gt;Location: 124645 - 126207" locus_tag="Asppvi_010134" class="clusterblast-orf" id="dummy-1_h1_5_8"  />
</g>
<g id="a1_009"  >
<polygon points="305,90 312,90 317,85 312,80 305,80 305,90 " style="fill:white; stroke-width:1; stroke:black; " description="&lt;b&gt;Asppvi_010135&lt;/b&gt;&lt;br&gt;uncharacterized protein&lt;br&gt;Location: 136384 - 138470" locus_tag="Asppvi_010135" class="clusterblast-orf" id="dummy-1_h1_5_9"  />
</g>
<g id="a1_0010"  >
<polygon points="319,85 324,80 333,80 333,90 324,90 319,85 " style="fill:white; stroke-width:1; stroke:black; " description="&lt;b&gt;Asppvi_010136&lt;/b&gt;&lt;br&gt;uncharacterized protein&lt;br&gt;Location: 138713 - 141161" locus_tag="Asppvi_010136" class="clusterblast-orf" id="dummy-1_h1_5_10"  />
</g>
<g id="a1_0011"  >
<polygon points="347,90 350,90 355,85 350,80 347,80 347,90 " style="fill:white; stroke-width:1; stroke:black; " description="&lt;b&gt;Asppvi_010137&lt;/b&gt;&lt;br&gt;uncharacterized protein&lt;br&gt;Location: 143501 - 144859" locus_tag="Asppvi_010137" class="clusterblast-orf" id="dummy-1_h1_5_11"  />
</g>
<g id="a1_0012"  >
<polygon points="360,85 365,80 432,80 432,90 365,90 360,85 " style="fill:#37d815; stroke-width:1; stroke:black; " description="&lt;b&gt;Asppvi_010138&lt;/b&gt;&lt;br&gt;putative hybrid PKS-NRPS biosynthetic cluster&lt;br&gt;Location: 145620 - 157559&lt;br&gt;&lt;br&gt;&lt;b&gt;BlastP hit with input.path1.gene541&lt;/b&gt;&lt;br&gt;Percentage identity: 36&lt;br&gt;Percentage coverage: 57&lt;br&gt;BLAST bit score: 630&lt;br&gt;E-value: 4.74e-183" locus_tag="Asppvi_010138" class="clusterblast-orf" id="dummy-1_h1_5_12"  />
</g>
<g id="a1_0013"  >
<polygon points="435,90 440,90 445,85 440,80 435,80 435,90 " style="fill:white; stroke-width:1; stroke:black; " description="&lt;b&gt;Asppvi_010139&lt;/b&gt;&lt;br&gt;uncharacterized protein&lt;br&gt;Location: 158052 - 159724" locus_tag="Asppvi_010139" class="clusterblast-orf" id="dummy-1_h1_5_13"  />
</g>
<g id="a1_0014"  >
<polygon points="448,85 453,80 459,80 459,90 453,90 448,85 " style="fill:white; stroke-width:1; stroke:black; " description="&lt;b&gt;Asppvi_010140&lt;/b&gt;&lt;br&gt;uncharacterized protein&lt;br&gt;Location: 160232 - 162051" locus_tag="Asppvi_010140" class="clusterblast-orf" id="dummy-1_h1_5_14"  />
</g>
<g id="a1_0015"  >
<polygon points="462,85 467,80 469,80 469,90 467,90 462,85 " style="fill:white; stroke-width:1; stroke:black; " description="&lt;b&gt;Asppvi_010141&lt;/b&gt;&lt;br&gt;uncharacterized protein&lt;br&gt;Location: 162566 - 163724" locus_tag="Asppvi_010141" class="clusterblast-orf" id="dummy-1_h1_5_15"  />
</g>
<g id="a1_0016"  >
<polygon points="471,90 478,90 483,85 478,80 471,80 471,90 " style="fill:white; stroke-width:1; stroke:black; " description="&lt;b&gt;Asppvi_010142&lt;/b&gt;&lt;br&gt;uncharacterized protein&lt;br&gt;Location: 164102 - 166067" locus_tag="Asppvi_010142" class="clusterblast-orf" id="dummy-1_h1_5_16"  />
</g>
<g id="a1_0017"  >
<polygon points="486,85 489,80 489,90 486,85 " style="fill:white; stroke-width:1; stroke:black; " description="&lt;b&gt;Asppvi_010143&lt;/b&gt;&lt;br&gt;uncharacterized protein&lt;br&gt;Location: 166618 - 167049" locus_tag="Asppvi_010143" class="clusterblast-orf" id="dummy-1_h1_5_17"  />
</g>
<g id="a1_0018"  >
<polygon points="493,90 495,85 493,80 493,90 " style="fill:white; stroke-width:1; stroke:black; " description="&lt;b&gt;Asppvi_010144&lt;/b&gt;&lt;br&gt;uncharacterized protein&lt;br&gt;Location: 167791 - 168090" locus_tag="Asppvi_010144" class="clusterblast-orf" id="dummy-1_h1_5_18"  />
</g>
<g id="a1_0019"  >
<polygon points="505,85 508,80 508,90 505,85 " style="fill:white; stroke-width:1; stroke:black; " description="&lt;b&gt;Asppvi_010145&lt;/b&gt;&lt;br&gt;uncharacterized protein&lt;br&gt;Location: 169750 - 170172" locus_tag="Asppvi_010145" class="clusterblast-orf" id="dummy-1_h1_5_19"  />
</g>
<g id="a1_0020"  >
<polygon points="511,85 516,80 516,80 516,90 516,90 511,85 " style="fill:white; stroke-width:1; stroke:black; " description="&lt;b&gt;Asppvi_010146&lt;/b&gt;&lt;br&gt;uncharacterized protein&lt;br&gt;Location: 170686 - 171558" locus_tag="Asppvi_010146" class="clusterblast-orf" id="dummy-1_h1_5_20"  />
</g>
<g id="a1_0021"  >
<polygon points="525,90 529,90 534,85 529,80 525,80 525,90 " style="fill:white; stroke-width:1; stroke:black; " description="&lt;b&gt;Asppvi_010147&lt;/b&gt;&lt;br&gt;uncharacterized protein&lt;br&gt;Location: 173047 - 174513" locus_tag="Asppvi_010147" class="clusterblast-orf" id="dummy-1_h1_5_21"  />
</g>
<g id="a1_0022"  >
<polygon points="540,90 542,85 540,80 540,90 " style="fill:white; stroke-width:1; stroke:black; " description="&lt;b&gt;Asppvi_010148&lt;/b&gt;&lt;br&gt;uncharacterized protein&lt;br&gt;Location: 175526 - 175884" locus_tag="Asppvi_010148" class="clusterblast-orf" id="dummy-1_h1_5_22"  />
</g>
<g id="a1_0023"  >
<polygon points="560,90 568,90 573,85 568,80 560,80 560,90 " style="fill:white; stroke-width:1; stroke:black; " description="&lt;b&gt;Asppvi_010149&lt;/b&gt;&lt;br&gt;uncharacterized protein&lt;br&gt;Location: 178905 - 181004" locus_tag="Asppvi_010149" class="clusterblast-orf" id="dummy-1_h1_5_23"  />
</g>
<g id="a1_0024"  >
<polygon points="578,85 583,80 589,80 589,90 583,90 578,85 " style="fill:white; stroke-width:1; stroke:black; " description="&lt;b&gt;Asppvi_010150&lt;/b&gt;&lt;br&gt;uncharacterized protein&lt;br&gt;Location: 181841 - 183662" locus_tag="Asppvi_010150" class="clusterblast-orf" id="dummy-1_h1_5_24"  />
</g>
<g id="a1_0025"  >
<polygon points="592,85 597,80 615,80 615,90 597,90 592,85 " style="fill:white; stroke-width:1; stroke:black; " description="&lt;b&gt;Asppvi_010151&lt;/b&gt;&lt;br&gt;nonribosomal peptide synthase&lt;br&gt;Location: 184183 - 188033" locus_tag="Asppvi_010151" class="clusterblast-orf" id="dummy-1_h1_5_25"  />
</g>
<g id="a1_0026"  >
<polygon points="621,85 626,80 628,80 628,90 626,90 621,85 " style="fill:white; stroke-width:1; stroke:black; " description="&lt;b&gt;Asppvi_010152&lt;/b&gt;&lt;br&gt;uncharacterized protein&lt;br&gt;Location: 189103 - 190210" locus_tag="Asppvi_010152" class="clusterblast-orf" id="dummy-1_h1_5_26"  />
</g>
<g id="a1_0027"  >
<polygon points="660,85 665,80 674,80 674,90 665,90 660,85 " style="fill:white; stroke-width:1; stroke:black; " description="&lt;b&gt;Asppvi_010153&lt;/b&gt;&lt;br&gt;uncharacterized protein&lt;br&gt;Location: 195559 - 197957" locus_tag="Asppvi_010153" class="clusterblast-orf" id="dummy-1_h1_5_27"  />
</g>
<g id="a1_0028"  >
<polygon points="685,85 690,80 692,80 692,90 690,90 685,85 " style="fill:white; stroke-width:1; stroke:black; " description="&lt;b&gt;Asppvi_010154&lt;/b&gt;&lt;br&gt;uncharacterized protein&lt;br&gt;Location: 199776 - 200827" locus_tag="Asppvi_010154" class="clusterblast-orf" id="dummy-1_h1_5_28"  />
</g>
<g id="a1_0029"  >
<polygon points="706,90 709,85 706,80 706,90 " style="fill:white; stroke-width:1; stroke:black; " description="&lt;b&gt;Asppvi_010155&lt;/b&gt;&lt;br&gt;uncharacterized protein&lt;br&gt;Location: 203136 - 203650" locus_tag="Asppvi_010155" class="clusterblast-orf" id="dummy-1_h1_5_29"  />
</g>
<g id="a1_0030"  >
<polygon points="713,90 716,90 721,85 716,80 713,80 713,90 " style="fill:white; stroke-width:1; stroke:black; " description="&lt;b&gt;Asppvi_010156&lt;/b&gt;&lt;br&gt;uncharacterized protein&lt;br&gt;Location: 204440 - 205645" locus_tag="Asppvi_010156" class="clusterblast-orf" id="dummy-1_h1_5_30"  />
</g>
<g id="a1_0031"  >
<polygon points="725,90 729,90 734,85 729,80 725,80 725,90 " style="fill:white; stroke-width:1; stroke:black; " description="&lt;b&gt;Asppvi_010157&lt;/b&gt;&lt;br&gt;uncharacterized protein&lt;br&gt;Location: 206302 - 207926" locus_tag="Asppvi_010157" class="clusterblast-orf" id="dummy-1_h1_5_31"  />
</g>
<g id="a1_0032"  >
<polygon points="735,85 738,80 738,90 735,85 " style="fill:white; stroke-width:1; stroke:black; " description="&lt;b&gt;Asppvi_010158&lt;/b&gt;&lt;br&gt;uncharacterized protein&lt;br&gt;Location: 208061 - 208531" locus_tag="Asppvi_010158" class="clusterblast-orf" id="dummy-1_h1_5_32"  />
</g>
<g id="a1_0033"  >
<polygon points="742,85 746,80 746,90 742,85 " style="fill:white; stroke-width:1; stroke:black; " description="&lt;b&gt;Asppvi_010159&lt;/b&gt;&lt;br&gt;uncharacterized protein&lt;br&gt;Location: 209167 - 209795" locus_tag="Asppvi_010159" class="clusterblast-orf" id="dummy-1_h1_5_33"  />
</g>
<g id="a1_0034"  >
<polygon points="749,85 754,80 754,80 754,90 754,90 749,85 " style="fill:white; stroke-width:1; stroke:black; " description="&lt;b&gt;Asppvi_010160&lt;/b&gt;&lt;br&gt;endoglucanase-5&lt;br&gt;Location: 210363 - 211180" locus_tag="Asppvi_010160" class="clusterblast-orf" id="dummy-1_h1_5_34"  />
</g>
<g id="a1_0035"  >
<polygon points="765,90 768,85 765,80 765,90 " style="fill:white; stroke-width:1; stroke:black; " description="&lt;b&gt;Asppvi_010161&lt;/b&gt;&lt;br&gt;uncharacterized protein&lt;br&gt;Location: 213027 - 213543" locus_tag="Asppvi_010161" class="clusterblast-orf" id="dummy-1_h1_5_35"  />
</g>
<g id="a1_0036"  >
<polygon points="769,85 774,80 780,80 780,90 774,90 769,85 " style="fill:white; stroke-width:1; stroke:black; " description="&lt;b&gt;Asppvi_010162&lt;/b&gt;&lt;br&gt;uncharacterized protein&lt;br&gt;Location: 213732 - 215453" locus_tag="Asppvi_010162" class="clusterblast-orf" id="dummy-1_h1_5_36"  />
</g>
</svg>
