<svg xmlns="http://www.w3.org/2000/svg" xmlns:xlink="http://www.w3.org/1999/xlink" version="1.1" x="0" y="0" height="230" width="800" viewBox="0 0 800 230" preserveAspectRatio="none"  >
<g label="Query sequence" class="clusterblast-cluster"  >
<text x="5" y="20" class="clusterblast-acc"  >
Query sequence</text>
<line x1="10" y1="35" x2="778.0" y2="35" style="stroke-width:1; stroke:grey; "  />
<polygon points="193,40 195,40 200,35 195,30 193,30 193,40 " style="fill:white; stroke-width:1; stroke:black; " description="&lt;b&gt;input.path1.gene356&lt;/b&gt;&lt;br&gt;input.path1.gene356&lt;br&gt;Location: 2085231 - 2086235" locus_tag="input.path1.gene356" class="clusterblast-orf" id="dummy-2_q0_0_all"  />
<polygon points="206,40 209,35 206,30 206,40 " style="fill:white; stroke-width:1; stroke:black; " description="&lt;b&gt;input.path1.gene357&lt;/b&gt;&lt;br&gt;input.path1.gene357&lt;br&gt;Location: 2087073 - 2087486" locus_tag="input.path1.gene357" class="clusterblast-orf" id="dummy-2_q1_0_all"  />
<polygon points="260,35 265,30 280,30 280,40 265,40 260,35 " style="fill:#d81515; stroke-width:1; stroke:black; " description="&lt;b&gt;input.path1.gene358&lt;/b&gt;&lt;br&gt;input.path1.gene358&lt;br&gt;Location: 2094683 - 2097500" locus_tag="input.path1.gene358" class="clusterblast-orf" id="dummy-2_q2_0_all"  />
<polygon points="313,40 316,40 321,35 316,30 313,30 313,40 " style="fill:#77d815; stroke-width:1; stroke:black; " description="&lt;b&gt;input.path1.gene359&lt;/b&gt;&lt;br&gt;input.path1.gene359&lt;br&gt;Location: 2102008 - 2103196" locus_tag="input.path1.gene359" class="clusterblast-orf" id="dummy-2_q3_0_all"  />
<polygon points="322,35 327,30 370,30 370,40 327,40 322,35 " style="fill:#15d8d8; stroke-width:1; stroke:black; " description="&lt;b&gt;input.path1.gene360&lt;/b&gt;&lt;br&gt;input.path1.gene360&lt;br&gt;Location: 2103401 - 2110061" locus_tag="input.path1.gene360" class="clusterblast-orf" id="dummy-2_q4_0_all"  />
<polygon points="381,40 445,40 450,35 445,30 381,30 381,40 " style="fill:#15d8d8; stroke-width:1; stroke:black; " description="&lt;b&gt;input.path1.gene361&lt;/b&gt;&lt;br&gt;input.path1.gene361&lt;br&gt;Location: 2111587 - 2121341" locus_tag="input.path1.gene361" class="clusterblast-orf" id="dummy-2_q5_0_all"  />
<polygon points="453,35 458,30 481,30 481,40 458,40 453,35 " style="fill:#7715d8; stroke-width:1; stroke:black; " description="&lt;b&gt;input.path1.gene362&lt;/b&gt;&lt;br&gt;input.path1.gene362&lt;br&gt;Location: 2121711 - 2125554" locus_tag="input.path1.gene362" class="clusterblast-orf" id="dummy-2_q6_0_all"  />
<polygon points="484,40 491,40 496,35 491,30 484,30 484,40 " style="fill:white; stroke-width:1; stroke:black; " description="&lt;b&gt;input.path1.gene363&lt;/b&gt;&lt;br&gt;input.path1.gene363&lt;br&gt;Location: 2125980 - 2127705" locus_tag="input.path1.gene363" class="clusterblast-orf" id="dummy-2_q7_0_all"  />
<polygon points="499,35 504,30 506,30 506,40 504,40 499,35 " style="fill:white; stroke-width:1; stroke:black; " description="&lt;b&gt;input.path1.gene364&lt;/b&gt;&lt;br&gt;input.path1.gene364&lt;br&gt;Location: 2128181 - 2129189" locus_tag="input.path1.gene364" class="clusterblast-orf" id="dummy-2_q8_0_all"  />
<polygon points="515,35 520,30 527,30 527,40 520,40 515,35 " style="fill:white; stroke-width:1; stroke:black; " description="&lt;b&gt;input.path1.gene365&lt;/b&gt;&lt;br&gt;input.path1.gene365&lt;br&gt;Location: 2130450 - 2132092" locus_tag="input.path1.gene365" class="clusterblast-orf" id="dummy-2_q9_0_all"  />
<polygon points="534,40 556,40 561,35 556,30 534,30 534,40 " style="fill:white; stroke-width:1; stroke:black; " description="&lt;b&gt;input.path1.gene366&lt;/b&gt;&lt;br&gt;input.path1.gene366&lt;br&gt;Location: 2132987 - 2136883" locus_tag="input.path1.gene366" class="clusterblast-orf" id="dummy-2_q10_0_all"  />
<polygon points="575,40 581,40 586,35 581,30 575,30 575,40 " style="fill:white; stroke-width:1; stroke:black; " description="&lt;b&gt;input.path1.gene367&lt;/b&gt;&lt;br&gt;input.path1.gene367&lt;br&gt;Location: 2138818 - 2140380" locus_tag="input.path1.gene367" class="clusterblast-orf" id="dummy-2_q11_0_all"  />
</g>
<g label="NW_024468919" description="NW_024468919 (637636-749466): Cryphonectria parasitica EP155 unplaced genomic... (10% of genes show similarity), NRPS-like,T1PKS,fungal-RiPP-like" class="clusterblast-cluster"  >
<text x="5" y="70" class="clusterblast-acc"  >
<a xlink:href="https://antismash-db.secondarymetabolites.org/area?record=NW_024468919&amp;start=637636&amp;end=749466" target="_blank">NW_024468919 (637636-749466)</a>: Cryphonectria parasitica EP155 unplaced genomic... (10% of genes show similarity), NRPS-like,T1PKS,fungal-RiPP-like</text>
<line x1="10" y1="85" x2="778.0" y2="85" style="stroke-width:1; stroke:grey; "  />
</g>
<g id="a2_000"  >
<polygon points="0,85 5,80 10,80 10,90 5,90 0,85 " style="fill:white; stroke-width:1; stroke:black; " description="&lt;b&gt;M406DRAFT_270117&lt;/b&gt;&lt;br&gt;mitochondrial carrier&lt;br&gt;Location: 747855 - 746448" locus_tag="M406DRAFT_270117" class="clusterblast-orf" id="dummy-2_h2_4_0"  />
</g>
<g id="a2_001"  >
<polygon points="35,90 35,90 40,85 35,80 35,80 35,90 " style="fill:white; stroke-width:1; stroke:black; " description="&lt;b&gt;M406DRAFT_335266&lt;/b&gt;&lt;br&gt;uncharacterized protein&lt;br&gt;Location: 742886 - 742196" locus_tag="M406DRAFT_335266" class="clusterblast-orf" id="dummy-2_h2_4_1"  />
</g>
<g id="a2_002"  >
<polygon points="56,85 61,80 69,80 69,90 61,90 56,85 " style="fill:white; stroke-width:1; stroke:black; " description="&lt;b&gt;M406DRAFT_270108&lt;/b&gt;&lt;br&gt;uncharacterized protein&lt;br&gt;Location: 739889 - 738104" locus_tag="M406DRAFT_270108" class="clusterblast-orf" id="dummy-2_h2_4_2"  />
</g>
<g id="a2_003"  >
<polygon points="95,85 100,80 100,80 100,90 100,90 95,85 " style="fill:white; stroke-width:1; stroke:black; " description="&lt;b&gt;M406DRAFT_109188&lt;/b&gt;&lt;br&gt;uncharacterized protein&lt;br&gt;Location: 734500 - 733738" locus_tag="M406DRAFT_109188" class="clusterblast-orf" id="dummy-2_h2_4_3"  />
</g>
<g id="a2_004"  >
<polygon points="104,90 112,90 117,85 112,80 104,80 104,90 " style="fill:white; stroke-width:1; stroke:black; " description="&lt;b&gt;M406DRAFT_297385&lt;/b&gt;&lt;br&gt;cysteine proteinase&lt;br&gt;Location: 733228 - 731364" locus_tag="M406DRAFT_297385" class="clusterblast-orf" id="dummy-2_h2_4_4"  />
</g>
<g id="a2_005"  >
<polygon points="130,90 139,90 144,85 139,80 130,80 130,90 " style="fill:white; stroke-width:1; stroke:black; " description="&lt;b&gt;M406DRAFT_51727&lt;/b&gt;&lt;br&gt;uncharacterized protein&lt;br&gt;Location: 729607 - 727576" locus_tag="M406DRAFT_51727" class="clusterblast-orf" id="dummy-2_h2_4_5"  />
</g>
<g id="a2_006"  >
<polygon points="160,90 161,90 166,85 161,80 160,80 160,90 " style="fill:white; stroke-width:1; stroke:black; " description="&lt;b&gt;M406DRAFT_240277&lt;/b&gt;&lt;br&gt;uncharacterized protein&lt;br&gt;Location: 725313 - 724465" locus_tag="M406DRAFT_240277" class="clusterblast-orf" id="dummy-2_h2_4_6"  />
</g>
<g id="a2_007"  >
<polygon points="181,90 185,90 190,85 185,80 181,80 181,90 " style="fill:white; stroke-width:1; stroke:black; " description="&lt;b&gt;M406DRAFT_100163&lt;/b&gt;&lt;br&gt;putative Atg3&lt;br&gt;Location: 722427 - 721176" locus_tag="M406DRAFT_100163" class="clusterblast-orf" id="dummy-2_h2_4_7"  />
</g>
<g id="a2_008"  >
<polygon points="202,85 207,80 253,80 253,90 207,90 202,85 " style="fill:#15d8d8; stroke-width:1; stroke:black; " description="&lt;b&gt;M406DRAFT_109185&lt;/b&gt;&lt;br&gt;uncharacterized protein&lt;br&gt;Location: 719466 - 712325&lt;br&gt;&lt;br&gt;&lt;b&gt;BlastP hit with input.path1.gene360&lt;/b&gt;&lt;br&gt;Percentage identity: 37&lt;br&gt;Percentage coverage: 40&lt;br&gt;BLAST bit score: 287&lt;br&gt;E-value: 7.94e-77" locus_tag="M406DRAFT_109185" class="clusterblast-orf" id="dummy-2_h2_4_8"  />
</g>
<g id="a2_009"  >
<polygon points="276,90 324,90 329,85 324,80 276,80 276,90 " style="fill:#15d8d8; stroke-width:1; stroke:black; " description="&lt;b&gt;M406DRAFT_95656&lt;/b&gt;&lt;br&gt;uncharacterized protein&lt;br&gt;Location: 709122 - 701731&lt;br&gt;&lt;br&gt;&lt;b&gt;BlastP hit with input.path1.gene361&lt;/b&gt;&lt;br&gt;Percentage identity: 31&lt;br&gt;Percentage coverage: 81&lt;br&gt;BLAST bit score: 995&lt;br&gt;E-value: 2.94e-310" locus_tag="M406DRAFT_95656" class="clusterblast-orf" id="dummy-2_h2_4_9"  />
</g>
<g id="a2_0010"  >
<polygon points="336,90 338,85 336,80 336,90 " style="fill:white; stroke-width:1; stroke:black; " description="&lt;b&gt;M406DRAFT_51942&lt;/b&gt;&lt;br&gt;uncharacterized protein&lt;br&gt;Location: 700774 - 700367" locus_tag="M406DRAFT_51942" class="clusterblast-orf" id="dummy-2_h2_4_10"  />
</g>
<g id="a2_0011"  >
<polygon points="346,85 351,80 354,80 354,90 351,90 346,85 " style="fill:white; stroke-width:1; stroke:black; " description="&lt;b&gt;M406DRAFT_269961&lt;/b&gt;&lt;br&gt;Aldo/keto reductase&lt;br&gt;Location: 699356 - 698205" locus_tag="M406DRAFT_269961" class="clusterblast-orf" id="dummy-2_h2_4_11"  />
</g>
<g id="a2_0012"  >
<polygon points="362,85 367,80 385,80 385,90 367,90 362,85 " style="fill:white; stroke-width:1; stroke:black; " description="&lt;b&gt;M406DRAFT_270014&lt;/b&gt;&lt;br&gt;uncharacterized protein&lt;br&gt;Location: 697090 - 693898" locus_tag="M406DRAFT_270014" class="clusterblast-orf" id="dummy-2_h2_4_12"  />
</g>
<g id="a2_0013"  >
<polygon points="395,85 400,80 419,80 419,90 400,90 395,85 " style="fill:white; stroke-width:1; stroke:black; " description="&lt;b&gt;M406DRAFT_95652&lt;/b&gt;&lt;br&gt;uncharacterized protein&lt;br&gt;Location: 692481 - 689130" locus_tag="M406DRAFT_95652" class="clusterblast-orf" id="dummy-2_h2_4_13"  />
</g>
<g id="a2_0014"  >
<polygon points="432,85 437,80 445,80 445,90 437,90 432,85 " style="fill:white; stroke-width:1; stroke:black; " description="&lt;b&gt;M406DRAFT_269773&lt;/b&gt;&lt;br&gt;FAD/NAD(P)-binding domain-containing protein&lt;br&gt;Location: 687261 - 685396" locus_tag="M406DRAFT_269773" class="clusterblast-orf" id="dummy-2_h2_4_14"  />
</g>
<g id="a2_0015"  >
<polygon points="460,90 460,90 465,85 460,80 460,80 460,90 " style="fill:white; stroke-width:1; stroke:black; " description="&lt;b&gt;M406DRAFT_243431&lt;/b&gt;&lt;br&gt;uncharacterized protein&lt;br&gt;Location: 683382 - 682637" locus_tag="M406DRAFT_243431" class="clusterblast-orf" id="dummy-2_h2_4_15"  />
</g>
<g id="a2_0016"  >
<polygon points="474,90 495,90 500,85 495,80 474,80 474,90 " style="fill:white; stroke-width:1; stroke:black; " description="&lt;b&gt;M406DRAFT_335251&lt;/b&gt;&lt;br&gt;uncharacterized protein&lt;br&gt;Location: 681357 - 677796" locus_tag="M406DRAFT_335251" class="clusterblast-orf" id="dummy-2_h2_4_16"  />
</g>
<g id="a2_0017"  >
<polygon points="500,85 505,80 512,80 512,90 505,90 500,85 " style="fill:white; stroke-width:1; stroke:black; " description="&lt;b&gt;M406DRAFT_335250&lt;/b&gt;&lt;br&gt;deoxyribodipyrimidine photo-lyase&lt;br&gt;Location: 677698 - 676082" locus_tag="M406DRAFT_335250" class="clusterblast-orf" id="dummy-2_h2_4_17"  />
</g>
<g id="a2_0018"  >
<polygon points="518,85 523,80 524,80 524,90 523,90 518,85 " style="fill:white; stroke-width:1; stroke:black; " description="&lt;b&gt;M406DRAFT_358688&lt;/b&gt;&lt;br&gt;uncharacterized protein&lt;br&gt;Location: 675217 - 674421" locus_tag="M406DRAFT_358688" class="clusterblast-orf" id="dummy-2_h2_4_18"  />
</g>
<g id="a2_0019"  >
<polygon points="545,90 545,90 550,85 545,80 545,80 545,90 " style="fill:white; stroke-width:1; stroke:black; " description="&lt;b&gt;M406DRAFT_335248&lt;/b&gt;&lt;br&gt;uncharacterized protein&lt;br&gt;Location: 671434 - 670753" locus_tag="M406DRAFT_335248" class="clusterblast-orf" id="dummy-2_h2_4_19"  />
</g>
<g id="a2_0020"  >
<polygon points="556,85 561,80 562,80 562,90 561,90 556,85 " style="fill:white; stroke-width:1; stroke:black; " description="&lt;b&gt;M406DRAFT_222847&lt;/b&gt;&lt;br&gt;uncharacterized protein&lt;br&gt;Location: 669814 - 669033" locus_tag="M406DRAFT_222847" class="clusterblast-orf" id="dummy-2_h2_4_20"  />
</g>
<g id="a2_0021"  >
<polygon points="570,85 572,80 572,90 570,85 " style="fill:white; stroke-width:1; stroke:black; " description="&lt;b&gt;M406DRAFT_243831&lt;/b&gt;&lt;br&gt;uncharacterized protein&lt;br&gt;Location: 667918 - 667655" locus_tag="M406DRAFT_243831" class="clusterblast-orf" id="dummy-2_h2_4_21"  />
</g>
<g id="a2_0022"  >
<polygon points="593,85 598,80 620,80 620,90 598,90 593,85 " style="fill:white; stroke-width:1; stroke:black; " description="&lt;b&gt;M406DRAFT_51944&lt;/b&gt;&lt;br&gt;family 65 glycoside hydrolase&lt;br&gt;Location: 664643 - 660947" locus_tag="M406DRAFT_51944" class="clusterblast-orf" id="dummy-2_h2_4_22"  />
</g>
<g id="a2_0023"  >
<polygon points="637,85 642,80 652,80 652,90 642,90 637,85 " style="fill:white; stroke-width:1; stroke:black; " description="&lt;b&gt;M406DRAFT_269973&lt;/b&gt;&lt;br&gt;amidase signature enzyme&lt;br&gt;Location: 658499 - 656376" locus_tag="M406DRAFT_269973" class="clusterblast-orf" id="dummy-2_h2_4_23"  />
</g>
<g id="a2_0024"  >
<polygon points="669,90 675,90 680,85 675,80 669,80 669,90 " style="fill:white; stroke-width:1; stroke:black; " description="&lt;b&gt;M406DRAFT_343645&lt;/b&gt;&lt;br&gt;NAD(P)-binding protein&lt;br&gt;Location: 654061 - 652459" locus_tag="M406DRAFT_343645" class="clusterblast-orf" id="dummy-2_h2_4_24"  />
</g>
<g id="a2_0025"  >
<polygon points="681,85 686,80 687,80 687,90 686,90 681,85 " style="fill:white; stroke-width:1; stroke:black; " description="&lt;b&gt;M406DRAFT_75399&lt;/b&gt;&lt;br&gt;uncharacterized protein&lt;br&gt;Location: 652324 - 651492" locus_tag="M406DRAFT_75399" class="clusterblast-orf" id="dummy-2_h2_4_25"  />
</g>
<g id="a2_0026"  >
<polygon points="696,90 705,90 710,85 705,80 696,80 696,90 " style="fill:white; stroke-width:1; stroke:black; " description="&lt;b&gt;M406DRAFT_343643&lt;/b&gt;&lt;br&gt;uncharacterized protein&lt;br&gt;Location: 650330 - 648273" locus_tag="M406DRAFT_343643" class="clusterblast-orf" id="dummy-2_h2_4_26"  />
</g>
<g id="a2_0027"  >
<polygon points="717,90 721,90 726,85 721,80 717,80 717,90 " style="fill:white; stroke-width:1; stroke:black; " description="&lt;b&gt;M406DRAFT_269754&lt;/b&gt;&lt;br&gt;uncharacterized protein&lt;br&gt;Location: 647390 - 646035" locus_tag="M406DRAFT_269754" class="clusterblast-orf" id="dummy-2_h2_4_27"  />
</g>
<g id="a2_0028"  >
<polygon points="727,85 732,80 734,80 734,90 732,90 727,85 " style="fill:white; stroke-width:1; stroke:black; " description="&lt;b&gt;M406DRAFT_269825&lt;/b&gt;&lt;br&gt;uncharacterized protein&lt;br&gt;Location: 645888 - 645006" locus_tag="M406DRAFT_269825" class="clusterblast-orf" id="dummy-2_h2_4_28"  />
</g>
<g id="a2_0029"  >
<polygon points="743,90 775,90 780,85 775,80 743,80 743,90 " style="fill:#d81515; stroke-width:1; stroke:black; " description="&lt;b&gt;M406DRAFT_269832&lt;/b&gt;&lt;br&gt;P-loop containing nucleoside triphosphate hydrolase protein&lt;br&gt;Location: 643725 - 638563&lt;br&gt;&lt;br&gt;&lt;b&gt;BlastP hit with input.path1.gene358&lt;/b&gt;&lt;br&gt;Percentage identity: 33&lt;br&gt;Percentage coverage: 76&lt;br&gt;BLAST bit score: 138&lt;br&gt;E-value: 3.31e-33" locus_tag="M406DRAFT_269832" class="clusterblast-orf" id="dummy-2_h2_4_29"  />
</g>
</svg>
