<svg xmlns="http://www.w3.org/2000/svg" xmlns:xlink="http://www.w3.org/1999/xlink" version="1.1" x="0" y="0" height="230" width="800" viewBox="0 0 800 230" preserveAspectRatio="none"  >
<g label="Query sequence" class="clusterblast-cluster"  >
<text x="5" y="20" class="clusterblast-acc"  >
Query sequence</text>
<line x1="10" y1="35" x2="778.0" y2="35" style="stroke-width:1; stroke:grey; "  />
<polygon points="92,35 97,30 100,30 100,40 97,40 92,35 " style="fill:white; stroke-width:1; stroke:black; " description="&lt;b&gt;input.path1.gene1581&lt;/b&gt;&lt;br&gt;input.path1.gene1581&lt;br&gt;Location: 7408468 - 7409063" locus_tag="input.path1.gene1581" class="clusterblast-orf" id="dummy-5_q0_0_all"  />
<polygon points="120,40 124,40 129,35 124,30 120,30 120,40 " style="fill:white; stroke-width:1; stroke:black; " description="&lt;b&gt;input.path1.gene1582&lt;/b&gt;&lt;br&gt;input.path1.gene1582&lt;br&gt;Location: 7410624 - 7411323" locus_tag="input.path1.gene1582" class="clusterblast-orf" id="dummy-5_q1_0_all"  />
<polygon points="144,40 161,40 166,35 161,30 144,30 144,40 " style="fill:white; stroke-width:1; stroke:black; " description="&lt;b&gt;input.path1.gene1583&lt;/b&gt;&lt;br&gt;input.path1.gene1583&lt;br&gt;Location: 7412408 - 7414116" locus_tag="input.path1.gene1583" class="clusterblast-orf" id="dummy-5_q2_0_all"  />
<polygon points="169,35 174,30 197,30 197,40 174,40 169,35 " style="fill:#d81515; stroke-width:1; stroke:black; " description="&lt;b&gt;input.path1.gene1584&lt;/b&gt;&lt;br&gt;input.path1.gene1584&lt;br&gt;Location: 7414368 - 7416472" locus_tag="input.path1.gene1584" class="clusterblast-orf" id="dummy-5_q3_0_all"  />
<polygon points="201,40 243,40 248,35 243,30 201,30 201,40 " style="fill:white; stroke-width:1; stroke:black; " description="&lt;b&gt;input.path1.gene1585&lt;/b&gt;&lt;br&gt;input.path1.gene1585&lt;br&gt;Location: 7416762 - 7420289" locus_tag="input.path1.gene1585" class="clusterblast-orf" id="dummy-5_q4_0_all"  />
<polygon points="254,40 284,40 289,35 284,30 254,30 254,40 " style="fill:white; stroke-width:1; stroke:black; " description="&lt;b&gt;input.path1.gene1586&lt;/b&gt;&lt;br&gt;input.path1.gene1586&lt;br&gt;Location: 7420766 - 7423415" locus_tag="input.path1.gene1586" class="clusterblast-orf" id="dummy-5_q5_0_all"  />
<polygon points="302,40 321,40 326,35 321,30 302,30 302,40 " style="fill:white; stroke-width:1; stroke:black; " description="&lt;b&gt;input.path1.gene1587&lt;/b&gt;&lt;br&gt;input.path1.gene1587&lt;br&gt;Location: 7424393 - 7426239" locus_tag="input.path1.gene1587" class="clusterblast-orf" id="dummy-5_q6_0_all"  />
<polygon points="330,35 335,30 434,30 434,40 335,40 330,35 " style="fill:#5cd815; stroke-width:1; stroke:black; " description="&lt;b&gt;input.path1.gene1588&lt;/b&gt;&lt;br&gt;input.path1.gene1588&lt;br&gt;Location: 7426549 - 7434406" locus_tag="input.path1.gene1588" class="clusterblast-orf" id="dummy-5_q7_0_all"  />
<polygon points="462,40 474,40 479,35 474,30 462,30 462,40 " style="fill:#15a3d8; stroke-width:1; stroke:black; " description="&lt;b&gt;input.path1.gene1589&lt;/b&gt;&lt;br&gt;input.path1.gene1589&lt;br&gt;Location: 7436597 - 7437870" locus_tag="input.path1.gene1589" class="clusterblast-orf" id="dummy-5_q8_0_all"  />
<polygon points="488,35 493,30 510,30 510,40 493,40 488,35 " style="fill:#c715d8; stroke-width:1; stroke:black; " description="&lt;b&gt;input.path1.gene1590&lt;/b&gt;&lt;br&gt;input.path1.gene1590&lt;br&gt;Location: 7438499 - 7440238" locus_tag="input.path1.gene1590" class="clusterblast-orf" id="dummy-5_q9_0_all"  />
<polygon points="523,40 532,40 537,35 532,30 523,30 523,40 " style="fill:#d88015; stroke-width:1; stroke:black; " description="&lt;b&gt;input.path1.gene1591&lt;/b&gt;&lt;br&gt;input.path1.gene1591&lt;br&gt;Location: 7441201 - 7442237" locus_tag="input.path1.gene1591" class="clusterblast-orf" id="dummy-5_q10_0_all"  />
<polygon points="539,35 544,30 556,30 556,40 544,40 539,35 " style="fill:white; stroke-width:1; stroke:black; " description="&lt;b&gt;input.path1.gene1592&lt;/b&gt;&lt;br&gt;input.path1.gene1592&lt;br&gt;Location: 7442387 - 7443694" locus_tag="input.path1.gene1592" class="clusterblast-orf" id="dummy-5_q11_0_all"  />
<polygon points="563,40 566,40 571,35 566,30 563,30 563,40 " style="fill:#15d839; stroke-width:1; stroke:black; " description="&lt;b&gt;input.path1.gene1593&lt;/b&gt;&lt;br&gt;input.path1.gene1593&lt;br&gt;Location: 7444188 - 7444829" locus_tag="input.path1.gene1593" class="clusterblast-orf" id="dummy-5_q12_0_all"  />
<polygon points="577,40 583,40 588,35 583,30 577,30 577,40 " style="fill:#1539d8; stroke-width:1; stroke:black; " description="&lt;b&gt;input.path1.gene1594&lt;/b&gt;&lt;br&gt;input.path1.gene1594&lt;br&gt;Location: 7445325 - 7446091" locus_tag="input.path1.gene1594" class="clusterblast-orf" id="dummy-5_q13_0_all"  />
<polygon points="590,35 595,30 615,30 615,40 595,40 590,35 " style="fill:#d81580; stroke-width:1; stroke:black; " description="&lt;b&gt;input.path1.gene1595&lt;/b&gt;&lt;br&gt;input.path1.gene1595&lt;br&gt;Location: 7446269 - 7448195" locus_tag="input.path1.gene1595" class="clusterblast-orf" id="dummy-5_q14_0_all"  />
<polygon points="617,40 628,40 633,35 628,30 617,30 617,40 " style="fill:#c7d815; stroke-width:1; stroke:black; " description="&lt;b&gt;input.path1.gene1596&lt;/b&gt;&lt;br&gt;input.path1.gene1596&lt;br&gt;Location: 7448304 - 7449505" locus_tag="input.path1.gene1596" class="clusterblast-orf" id="dummy-5_q15_0_all"  />
<polygon points="642,35 647,30 662,30 662,40 647,40 642,35 " style="fill:#15d8a3; stroke-width:1; stroke:black; " description="&lt;b&gt;input.path1.gene1597&lt;/b&gt;&lt;br&gt;input.path1.gene1597&lt;br&gt;Location: 7450232 - 7451753" locus_tag="input.path1.gene1597" class="clusterblast-orf" id="dummy-5_q16_0_all"  />
<polygon points="675,40 683,40 688,35 683,30 675,30 675,40 " style="fill:#5c15d8; stroke-width:1; stroke:black; " description="&lt;b&gt;input.path1.gene1598&lt;/b&gt;&lt;br&gt;input.path1.gene1598&lt;br&gt;Location: 7452711 - 7453674" locus_tag="input.path1.gene1598" class="clusterblast-orf" id="dummy-5_q17_0_all"  />
</g>
<g label="NW_017263595" description="NW_017263595 (627002-693843): Mollisia scopiformis unplaced genomic scaffold ... (18% of genes show similarity), T1PKS" class="clusterblast-cluster"  >
<text x="5" y="70" class="clusterblast-acc"  >
<a xlink:href="https://antismash-db.secondarymetabolites.org/area?record=NW_017263595&amp;start=627002&amp;end=693843" target="_blank">NW_017263595 (627002-693843)</a>: Mollisia scopiformis unplaced genomic scaffold ... (18% of genes show similarity), T1PKS</text>
<line x1="10" y1="85" x2="778.0" y2="85" style="stroke-width:1; stroke:grey; "  />
</g>
<g id="a5_000"  >
<polygon points="0,90 2,85 0,80 0,90 " style="fill:white; stroke-width:1; stroke:black; " description="&lt;b&gt;LY89DRAFT_686136&lt;/b&gt;&lt;br&gt;uncharacterized protein&lt;br&gt;Location: 686223 - 686002" locus_tag="LY89DRAFT_686136" class="clusterblast-orf" id="dummy-5_h5_5_0"  />
</g>
<g id="a5_001"  >
<polygon points="31,85 36,80 37,80 37,90 36,90 31,85 " style="fill:white; stroke-width:1; stroke:black; " description="&lt;b&gt;LY89DRAFT_686133&lt;/b&gt;&lt;br&gt;uncharacterized protein&lt;br&gt;Location: 683853 - 683398" locus_tag="LY89DRAFT_686133" class="clusterblast-orf" id="dummy-5_h5_5_1"  />
</g>
<g id="a5_002"  >
<polygon points="56,85 61,80 61,80 61,90 61,90 56,85 " style="fill:white; stroke-width:1; stroke:black; " description="&lt;b&gt;LY89DRAFT_111202&lt;/b&gt;&lt;br&gt;uncharacterized protein&lt;br&gt;Location: 681959 - 681525" locus_tag="LY89DRAFT_111202" class="clusterblast-orf" id="dummy-5_h5_5_2"  />
</g>
<g id="a5_003"  >
<polygon points="68,90 105,90 110,85 105,80 68,80 68,90 " style="fill:white; stroke-width:1; stroke:black; " description="&lt;b&gt;LY89DRAFT_698179&lt;/b&gt;&lt;br&gt;putative 1-phosphatidylinositol-4,5-bisphosphate phosphodiesterase 1&lt;br&gt;Location: 680993 - 677817" locus_tag="LY89DRAFT_698179" class="clusterblast-orf" id="dummy-5_h5_5_3"  />
</g>
<g id="a5_004"  >
<polygon points="144,90 147,90 152,85 147,80 144,80 144,90 " style="fill:white; stroke-width:1; stroke:black; " description="&lt;b&gt;LY89DRAFT_111170&lt;/b&gt;&lt;br&gt;uncharacterized protein&lt;br&gt;Location: 675261 - 674678" locus_tag="LY89DRAFT_111170" class="clusterblast-orf" id="dummy-5_h5_5_4"  />
</g>
<g id="a5_005"  >
<polygon points="195,85 200,80 220,80 220,90 200,90 195,85 " style="fill:white; stroke-width:1; stroke:black; " description="&lt;b&gt;LY89DRAFT_588204&lt;/b&gt;&lt;br&gt;uncharacterized protein&lt;br&gt;Location: 671353 - 669491" locus_tag="LY89DRAFT_588204" class="clusterblast-orf" id="dummy-5_h5_5_5"  />
</g>
<g id="a5_006"  >
<polygon points="250,85 255,80 262,80 262,90 255,90 250,85 " style="fill:#d88015; stroke-width:1; stroke:black; " description="&lt;b&gt;LY89DRAFT_698178&lt;/b&gt;&lt;br&gt;putative versicolorin reductase&lt;br&gt;Location: 667245 - 666317&lt;br&gt;&lt;br&gt;&lt;b&gt;BlastP hit with input.path1.gene1591&lt;/b&gt;&lt;br&gt;Percentage identity: 68&lt;br&gt;Percentage coverage: 97&lt;br&gt;BLAST bit score: 363&lt;br&gt;E-value: 8.04e-126" locus_tag="LY89DRAFT_698178" class="clusterblast-orf" id="dummy-5_h5_5_6"  />
</g>
<g id="a5_007"  >
<polygon points="294,85 299,80 385,80 385,90 299,90 294,85 " style="fill:#5cd815; stroke-width:1; stroke:black; " description="&lt;b&gt;LY89DRAFT_670845&lt;/b&gt;&lt;br&gt;ketoacyl-synt-domain-containing protein&lt;br&gt;Location: 663843 - 657003&lt;br&gt;&lt;br&gt;&lt;b&gt;BlastP hit with input.path1.gene1588&lt;/b&gt;&lt;br&gt;Percentage identity: 37&lt;br&gt;Percentage coverage: 100&lt;br&gt;BLAST bit score: 1389&lt;br&gt;E-value: 0.0" locus_tag="LY89DRAFT_670845" class="clusterblast-orf" id="dummy-5_h5_5_7"  />
</g>
<g id="a5_008"  >
<polygon points="427,90 447,90 452,85 447,80 427,80 427,90 " style="fill:#15a3d8; stroke-width:1; stroke:black; " description="&lt;b&gt;LY89DRAFT_619257&lt;/b&gt;&lt;br&gt;uncharacterized protein&lt;br&gt;Location: 653755 - 651925&lt;br&gt;&lt;br&gt;&lt;b&gt;BlastP hit with input.path1.gene1589&lt;/b&gt;&lt;br&gt;Percentage identity: 48&lt;br&gt;Percentage coverage: 75&lt;br&gt;BLAST bit score: 227&lt;br&gt;E-value: 6e-67" locus_tag="LY89DRAFT_619257" class="clusterblast-orf" id="dummy-5_h5_5_8"  />
</g>
<g id="a5_009"  >
<polygon points="485,85 490,80 516,80 516,90 490,90 485,85 " style="fill:white; stroke-width:1; stroke:black; " description="&lt;b&gt;LY89DRAFT_735483&lt;/b&gt;&lt;br&gt;uncharacterized protein&lt;br&gt;Location: 649417 - 647036" locus_tag="LY89DRAFT_735483" class="clusterblast-orf" id="dummy-5_h5_5_9"  />
</g>
<g id="a5_0010"  >
<polygon points="541,85 546,80 548,80 548,90 546,90 541,85 " style="fill:white; stroke-width:1; stroke:black; " description="&lt;b&gt;LY89DRAFT_110786&lt;/b&gt;&lt;br&gt;uncharacterized protein&lt;br&gt;Location: 645136 - 644638" locus_tag="LY89DRAFT_110786" class="clusterblast-orf" id="dummy-5_h5_5_10"  />
</g>
<g id="a5_0011"  >
<polygon points="628,85 633,80 638,80 638,90 633,90 628,85 " style="fill:white; stroke-width:1; stroke:black; " description="&lt;b&gt;LY89DRAFT_110784&lt;/b&gt;&lt;br&gt;uncharacterized protein&lt;br&gt;Location: 638523 - 637789" locus_tag="LY89DRAFT_110784" class="clusterblast-orf" id="dummy-5_h5_5_11"  />
</g>
<g id="a5_0012"  >
<polygon points="648,85 653,80 656,80 656,90 653,90 648,85 " style="fill:white; stroke-width:1; stroke:black; " description="&lt;b&gt;LY89DRAFT_686119&lt;/b&gt;&lt;br&gt;uncharacterized protein&lt;br&gt;Location: 637034 - 636423" locus_tag="LY89DRAFT_686119" class="clusterblast-orf" id="dummy-5_h5_5_12"  />
</g>
<g id="a5_0013"  >
<polygon points="667,90 710,90 715,85 710,80 667,80 667,90 " style="fill:white; stroke-width:1; stroke:black; " description="&lt;b&gt;LY89DRAFT_686118&lt;/b&gt;&lt;br&gt;putative subtilisin&lt;br&gt;Location: 635601 - 631912" locus_tag="LY89DRAFT_686118" class="clusterblast-orf" id="dummy-5_h5_5_13"  />
</g>
<g id="a5_0014"  >
<polygon points="728,85 733,80 764,80 764,90 733,90 728,85 " style="fill:white; stroke-width:1; stroke:black; " description="&lt;b&gt;LY89DRAFT_719925&lt;/b&gt;&lt;br&gt;uncharacterized protein&lt;br&gt;Location: 630927 - 628233" locus_tag="LY89DRAFT_719925" class="clusterblast-orf" id="dummy-5_h5_5_14"  />
</g>
<g id="a5_0015"  >
<polygon points="776,90 780,85 776,80 776,90 " style="fill:white; stroke-width:1; stroke:black; " description="&lt;b&gt;LY89DRAFT_110675&lt;/b&gt;&lt;br&gt;uncharacterized protein&lt;br&gt;Location: 627283 - 627044" locus_tag="LY89DRAFT_110675" class="clusterblast-orf" id="dummy-5_h5_5_15"  />
</g>
</svg>
