<svg xmlns="http://www.w3.org/2000/svg" xmlns:xlink="http://www.w3.org/1999/xlink" version="1.1" x="0" y="0" height="550" width="800" viewBox="0 0 800 550" preserveAspectRatio="none"  >
<g label="Query sequence" class="clusterblast-cluster"  >
<text x="5" y="20" class="clusterblast-acc"  >
Query sequence</text>
<line x1="10" y1="35" x2="778.0" y2="35" style="stroke-width:1; stroke:grey; "  />
<polygon points="141,40 218,40 223,35 218,30 141,30 141,40 " style="fill:#d81515; stroke-width:1; stroke:black; " description="&lt;b&gt;input.path1.gene1561&lt;/b&gt;&lt;br&gt;input.path1.gene1561&lt;br&gt;Location: 7337532 - 7340786" locus_tag="input.path1.gene1561" class="clusterblast-orf" id="general-4_q0_0_all"  />
<polygon points="229,35 234,30 264,30 264,40 234,40 229,35 " style="fill:#77d815; stroke-width:1; stroke:black; " description="&lt;b&gt;input.path1.gene1562&lt;/b&gt;&lt;br&gt;input.path1.gene1562&lt;br&gt;Location: 7341018 - 7342408" locus_tag="input.path1.gene1562" class="clusterblast-orf" id="general-4_q1_0_all"  />
<polygon points="335,40 386,40 391,35 386,30 335,30 335,40 " style="fill:#15d8d8; stroke-width:1; stroke:black; " description="&lt;b&gt;input.path1.gene1563&lt;/b&gt;&lt;br&gt;input.path1.gene1563&lt;br&gt;Location: 7345227 - 7347441" locus_tag="input.path1.gene1563" class="clusterblast-orf" id="general-4_q2_0_all"  />
<polygon points="392,35 397,30 440,30 440,40 397,40 392,35 " style="fill:#7715d8; stroke-width:1; stroke:black; " description="&lt;b&gt;input.path1.gene1564&lt;/b&gt;&lt;br&gt;input.path1.gene1564&lt;br&gt;Location: 7347511 - 7349411" locus_tag="input.path1.gene1564" class="clusterblast-orf" id="general-4_q3_0_all"  />
<polygon points="632,40 634,40 639,35 634,30 632,30 632,40 " style="fill:white; stroke-width:1; stroke:black; " description="&lt;b&gt;input.path1.gene1565&lt;/b&gt;&lt;br&gt;input.path1.gene1565&lt;br&gt;Location: 7357021 - 7357287" locus_tag="input.path1.gene1565" class="clusterblast-orf" id="general-4_q4_0_all"  />
</g>
<g label="NC_057316" description="NC_057316 (7045325-7076967): Ustilaginoidea virens chromosome 1, complete seq... (50% of genes show similarity), terpene" class="clusterblast-cluster"  >
<text x="5" y="70" class="clusterblast-acc"  >
<a xlink:href="https://antismash-db.secondarymetabolites.org/area?record=NC_057316&amp;start=7045325&amp;end=7076967" target="_blank">NC_057316 (7045325-7076967)</a>: Ustilaginoidea virens chromosome 1, complete seq... (50% of genes show similarity), terpene</text>
<line x1="10" y1="85" x2="778.0" y2="85" style="stroke-width:1; stroke:grey; "  />
</g>
<g id="a4_000"  >
<polygon points="138,90 165,90 170,85 165,80 138,80 138,90 " style="fill:white; stroke-width:1; stroke:black; " description="&lt;b&gt;UV8b_01675&lt;/b&gt;&lt;br&gt;uncharacterized protein&lt;br&gt;Location: 7046360 - 7047648" locus_tag="UV8b_01675" class="clusterblast-orf" id="general-4_all_4_1_0"  />
</g>
<g id="a4_001"  >
<polygon points="193,90 272,90 277,85 272,80 193,80 193,90 " style="fill:#d81515; stroke-width:1; stroke:black; " description="&lt;b&gt;UV8b_01676&lt;/b&gt;&lt;br&gt;uncharacterized protein&lt;br&gt;Location: 7048541 - 7051896&lt;br&gt;&lt;br&gt;&lt;b&gt;BlastP hit with input.path1.gene1561&lt;/b&gt;&lt;br&gt;Percentage identity: 82&lt;br&gt;Percentage coverage: 90&lt;br&gt;BLAST bit score: 1280&lt;br&gt;E-value: 0.0" locus_tag="UV8b_01676" class="clusterblast-orf" id="general-4_all_4_1_1"  />
</g>
<g id="a4_002"  >
<polygon points="297,85 302,80 321,80 321,90 302,90 297,85 " style="fill:#77d815; stroke-width:1; stroke:black; " description="&lt;b&gt;UV8b_01677&lt;/b&gt;&lt;br&gt;uncharacterized protein&lt;br&gt;Location: 7052687 - 7053658&lt;br&gt;&lt;br&gt;&lt;b&gt;BlastP hit with input.path1.gene1562&lt;/b&gt;&lt;br&gt;Percentage identity: 54&lt;br&gt;Percentage coverage: 71&lt;br&gt;BLAST bit score: 188&lt;br&gt;E-value: 2.15e-57" locus_tag="UV8b_01677" class="clusterblast-orf" id="general-4_all_4_1_2"  />
</g>
<g id="a4_003"  >
<polygon points="337,85 342,80 350,80 350,90 342,90 337,85 " style="fill:white; stroke-width:1; stroke:black; " description="&lt;b&gt;UV8b_01678&lt;/b&gt;&lt;br&gt;uncharacterized protein&lt;br&gt;Location: 7054281 - 7054784" locus_tag="UV8b_01678" class="clusterblast-orf" id="general-4_all_4_1_3"  />
</g>
<g id="a4_004"  >
<polygon points="408,85 413,80 450,80 450,90 413,90 408,85 " style="fill:white; stroke-width:1; stroke:black; " description="&lt;b&gt;UV8b_01679&lt;/b&gt;&lt;br&gt;uncharacterized protein&lt;br&gt;Location: 7057113 - 7058762" locus_tag="UV8b_01679" class="clusterblast-orf" id="general-4_all_4_1_4"  />
</g>
<g id="a4_005"  >
<polygon points="489,90 526,90 531,85 526,80 489,80 489,90 " style="fill:#15d8d8; stroke-width:1; stroke:black; " description="&lt;b&gt;UV8b_01680&lt;/b&gt;&lt;br&gt;uncharacterized protein&lt;br&gt;Location: 7060326 - 7061967&lt;br&gt;&lt;br&gt;&lt;b&gt;BlastP hit with input.path1.gene1563&lt;/b&gt;&lt;br&gt;Percentage identity: 79&lt;br&gt;Percentage coverage: 93&lt;br&gt;BLAST bit score: 693&lt;br&gt;E-value: 6.84e-250" locus_tag="UV8b_01680" class="clusterblast-orf" id="general-4_all_4_1_5"  />
</g>
<g id="a4_006"  >
<polygon points="572,85 577,80 612,80 612,90 577,90 572,85 " style="fill:#7715d8; stroke-width:1; stroke:black; " description="&lt;b&gt;UV8b_01681&lt;/b&gt;&lt;br&gt;uncharacterized protein&lt;br&gt;Location: 7063589 - 7065203&lt;br&gt;&lt;br&gt;&lt;b&gt;BlastP hit with input.path1.gene1564&lt;/b&gt;&lt;br&gt;Percentage identity: 66&lt;br&gt;Percentage coverage: 78&lt;br&gt;BLAST bit score: 482&lt;br&gt;E-value: 2.5e-165" locus_tag="UV8b_01681" class="clusterblast-orf" id="general-4_all_4_1_6"  />
</g>
<g id="a4_007"  >
<polygon points="633,85 638,80 641,80 641,90 638,90 633,85 " style="fill:white; stroke-width:1; stroke:black; " description="&lt;b&gt;UV8b_01682&lt;/b&gt;&lt;br&gt;uncharacterized protein&lt;br&gt;Location: 7066012 - 7066362" locus_tag="UV8b_01682" class="clusterblast-orf" id="general-4_all_4_1_7"  />
</g>
<g label="NC_035795" description="NC_035795 (3085439-3117081): Pochonia chlamydosporia 170 chromosome 6, whole ... (14% of genes show similarity), terpene" class="clusterblast-cluster"  >
<text x="5" y="120" class="clusterblast-acc"  >
<a xlink:href="https://antismash-db.secondarymetabolites.org/area?record=NC_035795&amp;start=3085439&amp;end=3117081" target="_blank">NC_035795 (3085439-3117081)</a>: Pochonia chlamydosporia 170 chromosome 6, whole ... (14% of genes show similarity), terpene</text>
<line x1="10" y1="135" x2="778.0" y2="135" style="stroke-width:1; stroke:grey; "  />
</g>
<g id="a4_000"  >
<polygon points="15,140 24,140 29,135 24,130 15,130 15,140 " style="fill:white; stroke-width:1; stroke:black; " description="&lt;b&gt;VFPPC_14874&lt;/b&gt;&lt;br&gt;hypothetical protein&lt;br&gt;Location: 3086780 - 3087334" locus_tag="VFPPC_14874" class="clusterblast-orf" id="general-4_all_4_2_0"  />
</g>
<g id="a4_001"  >
<polygon points="59,140 84,140 89,135 84,130 59,130 59,140 " style="fill:white; stroke-width:1; stroke:black; " description="&lt;b&gt;VFPPC_16368&lt;/b&gt;&lt;br&gt;eukaryotic aspartyl protease domain-containing protein&lt;br&gt;Location: 3088523 - 3089746" locus_tag="VFPPC_16368" class="clusterblast-orf" id="general-4_all_4_2_1"  />
</g>
<g id="a4_002"  >
<polygon points="95,140 128,140 133,135 128,130 95,130 95,140 " style="fill:white; stroke-width:1; stroke:black; " description="&lt;b&gt;VFPPC_11111&lt;/b&gt;&lt;br&gt;ankyrin repeats (3 copies) domain-containing protein&lt;br&gt;Location: 3089952 - 3091490" locus_tag="VFPPC_11111" class="clusterblast-orf" id="general-4_all_4_2_2"  />
</g>
<g id="a4_003"  >
<polygon points="138,135 143,130 185,130 185,140 143,140 138,135 " style="fill:white; stroke-width:1; stroke:black; " description="&lt;b&gt;VFPPC_14873&lt;/b&gt;&lt;br&gt;heme peroxidase protein&lt;br&gt;Location: 3091686 - 3093531" locus_tag="VFPPC_14873" class="clusterblast-orf" id="general-4_all_4_2_3"  />
</g>
<g id="a4_004"  >
<polygon points="227,135 232,130 268,130 268,140 232,140 227,135 " style="fill:white; stroke-width:1; stroke:black; " description="&lt;b&gt;VFPPC_14872&lt;/b&gt;&lt;br&gt;permease involved in the uptake of glycerophosphoinositol (GroPIns)&lt;br&gt;Location: 3095219 - 3096853" locus_tag="VFPPC_14872" class="clusterblast-orf" id="general-4_all_4_2_4"  />
</g>
<g id="a4_005"  >
<polygon points="359,140 395,140 400,135 395,130 359,130 359,140 " style="fill:#15d8d8; stroke-width:1; stroke:black; " description="&lt;b&gt;VFPPC_11109&lt;/b&gt;&lt;br&gt;squalene synthetase&lt;br&gt;Location: 3100440 - 3102081&lt;br&gt;&lt;br&gt;&lt;b&gt;BlastP hit with input.path1.gene1563&lt;/b&gt;&lt;br&gt;Percentage identity: 83&lt;br&gt;Percentage coverage: 94&lt;br&gt;BLAST bit score: 739&lt;br&gt;E-value: 3.7e-268" locus_tag="VFPPC_11109" class="clusterblast-orf" id="general-4_all_4_2_5"  />
</g>
<g id="a4_006"  >
<polygon points="423,135 428,130 460,130 460,140 428,140 423,135 " style="fill:#7715d8; stroke-width:1; stroke:black; " description="&lt;b&gt;VFPPC_11108&lt;/b&gt;&lt;br&gt;protease&lt;br&gt;Location: 3102999 - 3104454&lt;br&gt;&lt;br&gt;&lt;b&gt;BlastP hit with input.path1.gene1564&lt;/b&gt;&lt;br&gt;Percentage identity: 61&lt;br&gt;Percentage coverage: 81&lt;br&gt;BLAST bit score: 456&lt;br&gt;E-value: 5.73e-156" locus_tag="VFPPC_11108" class="clusterblast-orf" id="general-4_all_4_2_6"  />
</g>
<g id="a4_007"  >
<polygon points="475,140 482,140 487,135 482,130 475,130 475,140 " style="fill:white; stroke-width:1; stroke:black; " description="&lt;b&gt;VFPPC_18065&lt;/b&gt;&lt;br&gt;hypothetical protein&lt;br&gt;Location: 3105074 - 3105538" locus_tag="VFPPC_18065" class="clusterblast-orf" id="general-4_all_4_2_7"  />
</g>
<g id="a4_008"  >
<polygon points="502,135 507,130 512,130 512,140 507,140 502,135 " style="fill:white; stroke-width:1; stroke:black; " description="&lt;b&gt;VFPPC_16367&lt;/b&gt;&lt;br&gt;hypothetical protein&lt;br&gt;Location: 3106141 - 3106518" locus_tag="VFPPC_16367" class="clusterblast-orf" id="general-4_all_4_2_8"  />
</g>
<g id="a4_009"  >
<polygon points="522,135 527,130 529,130 529,140 527,140 522,135 " style="fill:white; stroke-width:1; stroke:black; " description="&lt;b&gt;VFPPC_16366&lt;/b&gt;&lt;br&gt;hypothetical protein&lt;br&gt;Location: 3106942 - 3107217" locus_tag="VFPPC_16366" class="clusterblast-orf" id="general-4_all_4_2_9"  />
</g>
<g id="a4_0010"  >
<polygon points="542,140 550,140 555,135 550,130 542,130 542,140 " style="fill:white; stroke-width:1; stroke:black; " description="&lt;b&gt;VFPPC_16365&lt;/b&gt;&lt;br&gt;hypothetical protein&lt;br&gt;Location: 3107721 - 3108250" locus_tag="VFPPC_16365" class="clusterblast-orf" id="general-4_all_4_2_10"  />
</g>
<g id="a4_0011"  >
<polygon points="600,140 611,140 616,135 611,130 600,130 600,140 " style="fill:white; stroke-width:1; stroke:black; " description="&lt;b&gt;VFPPC_16364&lt;/b&gt;&lt;br&gt;hypothetical protein&lt;br&gt;Location: 3110025 - 3110642" locus_tag="VFPPC_16364" class="clusterblast-orf" id="general-4_all_4_2_11"  />
</g>
<g id="a4_0012"  >
<polygon points="628,140 638,140 643,135 638,130 628,130 628,140 " style="fill:white; stroke-width:1; stroke:black; " description="&lt;b&gt;VFPPC_11106&lt;/b&gt;&lt;br&gt;NTPase&lt;br&gt;Location: 3111133 - 3111717" locus_tag="VFPPC_11106" class="clusterblast-orf" id="general-4_all_4_2_12"  />
</g>
<g id="a4_0013"  >
<polygon points="717,140 759,140 764,135 759,130 717,130 717,140 " style="fill:white; stroke-width:1; stroke:black; " description="&lt;b&gt;VFPPC_11105&lt;/b&gt;&lt;br&gt;hypothetical protein&lt;br&gt;Location: 3114655 - 3116547" locus_tag="VFPPC_11105" class="clusterblast-orf" id="general-4_all_4_2_13"  />
</g>
<g label="NC_070529" description="NC_070529 (5465471-5497016): Fusarium keratoplasticum isolate Fu6.1 chromosom... (20% of genes show similarity), terpene" class="clusterblast-cluster"  >
<text x="5" y="170" class="clusterblast-acc"  >
<a xlink:href="https://antismash-db.secondarymetabolites.org/area?record=NC_070529&amp;start=5465471&amp;end=5497016" target="_blank">NC_070529 (5465471-5497016)</a>: Fusarium keratoplasticum isolate Fu6.1 chromosom... (20% of genes show similarity), terpene</text>
<line x1="10" y1="185" x2="778.0" y2="185" style="stroke-width:1; stroke:grey; "  />
</g>
<g id="a4_000"  >
<polygon points="46,190 105,190 110,185 105,180 46,180 46,190 " style="fill:white; stroke-width:1; stroke:black; " description="&lt;b&gt;NCS57_00163000&lt;/b&gt;&lt;br&gt;FHA domain-containing protein&lt;br&gt;Location: 5466697 - 5469237" locus_tag="NCS57_00163000" class="clusterblast-orf" id="general-4_all_4_3_0"  />
</g>
<g id="a4_001"  >
<polygon points="115,185 120,180 146,180 146,190 120,190 115,185 " style="fill:white; stroke-width:1; stroke:black; " description="&lt;b&gt;NCS57_00163100&lt;/b&gt;&lt;br&gt;Cytochrome b5 heme-binding domain-containing protein&lt;br&gt;Location: 5469431 - 5470675" locus_tag="NCS57_00163100" class="clusterblast-orf" id="general-4_all_4_3_1"  />
</g>
<g id="a4_002"  >
<polygon points="195,190 248,190 253,185 248,180 195,180 195,190 " style="fill:white; stroke-width:1; stroke:black; " description="&lt;b&gt;NCS57_00163200&lt;/b&gt;&lt;br&gt;hypothetical protein&lt;br&gt;Location: 5472643 - 5474910" locus_tag="NCS57_00163200" class="clusterblast-orf" id="general-4_all_4_3_2"  />
</g>
<g id="a4_003"  >
<polygon points="281,185 286,180 323,180 323,190 286,190 281,185 " style="fill:white; stroke-width:1; stroke:black; " description="&lt;b&gt;NCS57_00163300&lt;/b&gt;&lt;br&gt;J domain-containing protein&lt;br&gt;Location: 5476049 - 5477712" locus_tag="NCS57_00163300" class="clusterblast-orf" id="general-4_all_4_3_3"  />
</g>
<g id="a4_004"  >
<polygon points="393,190 427,190 432,185 427,180 393,180 393,190 " style="fill:#15d8d8; stroke-width:1; stroke:black; " description="&lt;b&gt;NCS57_00163400&lt;/b&gt;&lt;br&gt;Squalene synthase&lt;br&gt;Location: 5480472 - 5482016&lt;br&gt;&lt;br&gt;&lt;b&gt;BlastP hit with input.path1.gene1563&lt;/b&gt;&lt;br&gt;Percentage identity: 77&lt;br&gt;Percentage coverage: 94&lt;br&gt;BLAST bit score: 693&lt;br&gt;E-value: 6.59e-250" locus_tag="NCS57_00163400" class="clusterblast-orf" id="general-4_all_4_3_4"  />
</g>
<g id="a4_005"  >
<polygon points="460,185 465,180 497,180 497,190 465,190 460,185 " style="fill:#7715d8; stroke-width:1; stroke:black; " description="&lt;b&gt;NCS57_00163500&lt;/b&gt;&lt;br&gt;hypothetical protein&lt;br&gt;Location: 5483138 - 5484631&lt;br&gt;&lt;br&gt;&lt;b&gt;BlastP hit with input.path1.gene1564&lt;/b&gt;&lt;br&gt;Percentage identity: 62&lt;br&gt;Percentage coverage: 75&lt;br&gt;BLAST bit score: 441&lt;br&gt;E-value: 1.8e-149" locus_tag="NCS57_00163500" class="clusterblast-orf" id="general-4_all_4_3_5"  />
</g>
<g id="a4_006"  >
<polygon points="590,185 595,180 614,180 614,190 595,190 590,185 " style="fill:white; stroke-width:1; stroke:black; " description="&lt;b&gt;NCS57_00163600&lt;/b&gt;&lt;br&gt;Hypothetical protein&lt;br&gt;Location: 5488327 - 5489272" locus_tag="NCS57_00163600" class="clusterblast-orf" id="general-4_all_4_3_6"  />
</g>
<g id="a4_007"  >
<polygon points="625,190 640,190 645,185 640,180 625,180 625,190 " style="fill:white; stroke-width:1; stroke:black; " description="&lt;b&gt;NCS57_00163700&lt;/b&gt;&lt;br&gt;hypothetical protein&lt;br&gt;Location: 5489709 - 5490500" locus_tag="NCS57_00163700" class="clusterblast-orf" id="general-4_all_4_3_7"  />
</g>
<g id="a4_008"  >
<polygon points="655,185 660,180 694,180 694,190 660,190 655,185 " style="fill:white; stroke-width:1; stroke:black; " description="&lt;b&gt;NCS57_00163800&lt;/b&gt;&lt;br&gt;Choline transport protein&lt;br&gt;Location: 5490906 - 5492429" locus_tag="NCS57_00163800" class="clusterblast-orf" id="general-4_all_4_3_8"  />
</g>
<g id="a4_009"  >
<polygon points="712,190 728,190 733,185 728,180 712,180 712,190 " style="fill:white; stroke-width:1; stroke:black; " description="&lt;b&gt;NCS57_00163900&lt;/b&gt;&lt;br&gt;Acetoacetate decarboxylase&lt;br&gt;Location: 5493144 - 5493998" locus_tag="NCS57_00163900" class="clusterblast-orf" id="general-4_all_4_3_9"  />
</g>
<g label="NC_070544" description="NC_070544 (5794890-5826434): Fusarium falciforme chromosome 1, complete sequence (20% of genes show similarity), terpene" class="clusterblast-cluster"  >
<text x="5" y="220" class="clusterblast-acc"  >
<a xlink:href="https://antismash-db.secondarymetabolites.org/area?record=NC_070544&amp;start=5794890&amp;end=5826434" target="_blank">NC_070544 (5794890-5826434)</a>: Fusarium falciforme chromosome 1, complete sequence (20% of genes show similarity), terpene</text>
<line x1="10" y1="235" x2="778.0" y2="235" style="stroke-width:1; stroke:grey; "  />
</g>
<g id="a4_000"  >
<polygon points="47,240 106,240 111,235 106,230 47,230 47,240 " style="fill:white; stroke-width:1; stroke:black; " description="&lt;b&gt;NCS54_00165500&lt;/b&gt;&lt;br&gt;FHA domain-containing protein&lt;br&gt;Location: 5796140 - 5798680" locus_tag="NCS54_00165500" class="clusterblast-orf" id="general-4_all_4_4_0"  />
</g>
<g id="a4_001"  >
<polygon points="115,235 120,230 147,230 147,240 120,240 115,235 " style="fill:white; stroke-width:1; stroke:black; " description="&lt;b&gt;NCS54_00165600&lt;/b&gt;&lt;br&gt;Cytochrome b5 heme-binding domain-containing protein&lt;br&gt;Location: 5798874 - 5800118" locus_tag="NCS54_00165600" class="clusterblast-orf" id="general-4_all_4_4_1"  />
</g>
<g id="a4_002"  >
<polygon points="197,240 249,240 254,235 249,230 197,230 197,240 " style="fill:white; stroke-width:1; stroke:black; " description="&lt;b&gt;NCS54_00165700&lt;/b&gt;&lt;br&gt;Hypothetical protein&lt;br&gt;Location: 5802094 - 5804367" locus_tag="NCS54_00165700" class="clusterblast-orf" id="general-4_all_4_4_2"  />
</g>
<g id="a4_003"  >
<polygon points="282,235 287,230 324,230 324,240 287,240 282,235 " style="fill:white; stroke-width:1; stroke:black; " description="&lt;b&gt;NCS54_00165800&lt;/b&gt;&lt;br&gt;J domain-containing protein&lt;br&gt;Location: 5805500 - 5807163" locus_tag="NCS54_00165800" class="clusterblast-orf" id="general-4_all_4_4_3"  />
</g>
<g id="a4_004"  >
<polygon points="393,240 427,240 432,235 427,230 393,230 393,240 " style="fill:#15d8d8; stroke-width:1; stroke:black; " description="&lt;b&gt;NCS54_00165900&lt;/b&gt;&lt;br&gt;Squalene synthase&lt;br&gt;Location: 5809891 - 5811434&lt;br&gt;&lt;br&gt;&lt;b&gt;BlastP hit with input.path1.gene1563&lt;/b&gt;&lt;br&gt;Percentage identity: 76&lt;br&gt;Percentage coverage: 94&lt;br&gt;BLAST bit score: 688&lt;br&gt;E-value: 8.9e-248" locus_tag="NCS54_00165900" class="clusterblast-orf" id="general-4_all_4_4_4"  />
</g>
<g id="a4_005"  >
<polygon points="460,235 465,230 497,230 497,240 465,240 460,235 " style="fill:#7715d8; stroke-width:1; stroke:black; " description="&lt;b&gt;NCS54_00166000&lt;/b&gt;&lt;br&gt;Hypothetical protein&lt;br&gt;Location: 5812546 - 5814039&lt;br&gt;&lt;br&gt;&lt;b&gt;BlastP hit with input.path1.gene1564&lt;/b&gt;&lt;br&gt;Percentage identity: 61&lt;br&gt;Percentage coverage: 75&lt;br&gt;BLAST bit score: 439&lt;br&gt;E-value: 5.11e-149" locus_tag="NCS54_00166000" class="clusterblast-orf" id="general-4_all_4_4_5"  />
</g>
<g id="a4_006"  >
<polygon points="590,235 595,230 614,230 614,240 595,240 590,235 " style="fill:white; stroke-width:1; stroke:black; " description="&lt;b&gt;NCS54_00166100&lt;/b&gt;&lt;br&gt;Hypothetical protein&lt;br&gt;Location: 5817716 - 5818661" locus_tag="NCS54_00166100" class="clusterblast-orf" id="general-4_all_4_4_6"  />
</g>
<g id="a4_007"  >
<polygon points="625,240 640,240 645,235 640,230 625,230 625,240 " style="fill:white; stroke-width:1; stroke:black; " description="&lt;b&gt;NCS54_00166200&lt;/b&gt;&lt;br&gt;Hypothetical protein&lt;br&gt;Location: 5819093 - 5819884" locus_tag="NCS54_00166200" class="clusterblast-orf" id="general-4_all_4_4_7"  />
</g>
<g id="a4_008"  >
<polygon points="655,235 660,230 693,230 693,240 660,240 655,235 " style="fill:white; stroke-width:1; stroke:black; " description="&lt;b&gt;NCS54_00166300&lt;/b&gt;&lt;br&gt;Choline transport protein&lt;br&gt;Location: 5820289 - 5821812" locus_tag="NCS54_00166300" class="clusterblast-orf" id="general-4_all_4_4_8"  />
</g>
<g id="a4_009"  >
<polygon points="711,240 727,240 732,235 727,230 711,230 711,240 " style="fill:white; stroke-width:1; stroke:black; " description="&lt;b&gt;NCS54_00166400&lt;/b&gt;&lt;br&gt;Acetoacetate decarboxylase&lt;br&gt;Location: 5822517 - 5823371" locus_tag="NCS54_00166400" class="clusterblast-orf" id="general-4_all_4_4_9"  />
</g>
<g label="NC_058389" description="NC_058389 (1466023-1497573): Fusarium musae strain F31 chromosome 3, whole ge... (22% of genes show similarity), terpene" class="clusterblast-cluster"  >
<text x="5" y="270" class="clusterblast-acc"  >
<a xlink:href="https://antismash-db.secondarymetabolites.org/area?record=NC_058389&amp;start=1466023&amp;end=1497573" target="_blank">NC_058389 (1466023-1497573)</a>: Fusarium musae strain F31 chromosome 3, whole ge... (22% of genes show similarity), terpene</text>
<line x1="10" y1="285" x2="778.0" y2="285" style="stroke-width:1; stroke:grey; "  />
</g>
<g id="a4_000"  >
<polygon points="16,285 21,280 38,280 38,290 21,290 16,285 " style="fill:white; stroke-width:1; stroke:black; " description="&lt;b&gt;J7337_003932&lt;/b&gt;&lt;br&gt;hypothetical protein&lt;br&gt;Location: 1466104 - 1466982" locus_tag="J7337_003932" class="clusterblast-orf" id="general-4_all_4_5_0"  />
</g>
<g id="a4_001"  >
<polygon points="56,290 114,290 119,285 114,280 56,280 56,290 " style="fill:white; stroke-width:1; stroke:black; " description="&lt;b&gt;J7337_003933&lt;/b&gt;&lt;br&gt;hypothetical protein&lt;br&gt;Location: 1467673 - 1470197" locus_tag="J7337_003933" class="clusterblast-orf" id="general-4_all_4_5_1"  />
</g>
<g id="a4_002"  >
<polygon points="123,285 128,280 152,280 152,290 128,290 123,285 " style="fill:white; stroke-width:1; stroke:black; " description="&lt;b&gt;J7337_003934&lt;/b&gt;&lt;br&gt;hypothetical protein&lt;br&gt;Location: 1470368 - 1471516" locus_tag="J7337_003934" class="clusterblast-orf" id="general-4_all_4_5_2"  />
</g>
<g id="a4_003"  >
<polygon points="197,290 248,290 253,285 248,280 197,280 197,290 " style="fill:white; stroke-width:1; stroke:black; " description="&lt;b&gt;J7337_003935&lt;/b&gt;&lt;br&gt;hypothetical protein&lt;br&gt;Location: 1473285 - 1475513" locus_tag="J7337_003935" class="clusterblast-orf" id="general-4_all_4_5_3"  />
</g>
<g id="a4_004"  >
<polygon points="278,285 283,280 321,280 321,290 283,290 278,285 " style="fill:white; stroke-width:1; stroke:black; " description="&lt;b&gt;J7337_003936&lt;/b&gt;&lt;br&gt;hypothetical protein&lt;br&gt;Location: 1476516 - 1478205" locus_tag="J7337_003936" class="clusterblast-orf" id="general-4_all_4_5_4"  />
</g>
<g id="a4_005"  >
<polygon points="392,290 426,290 431,285 426,280 392,280 392,290 " style="fill:#15d8d8; stroke-width:1; stroke:black; " description="&lt;b&gt;J7337_003937&lt;/b&gt;&lt;br&gt;Delta(24)-sterol C-methyltransferase&lt;br&gt;Location: 1481024 - 1482573&lt;br&gt;&lt;br&gt;&lt;b&gt;BlastP hit with input.path1.gene1563&lt;/b&gt;&lt;br&gt;Percentage identity: 76&lt;br&gt;Percentage coverage: 94&lt;br&gt;BLAST bit score: 684&lt;br&gt;E-value: 2.08e-246" locus_tag="J7337_003937" class="clusterblast-orf" id="general-4_all_4_5_5"  />
</g>
<g id="a4_006"  >
<polygon points="461,285 466,280 499,280 499,290 466,290 461,285 " style="fill:#7715d8; stroke-width:1; stroke:black; " description="&lt;b&gt;J7337_003938&lt;/b&gt;&lt;br&gt;hypothetical protein&lt;br&gt;Location: 1483774 - 1485269&lt;br&gt;&lt;br&gt;&lt;b&gt;BlastP hit with input.path1.gene1564&lt;/b&gt;&lt;br&gt;Percentage identity: 60&lt;br&gt;Percentage coverage: 74&lt;br&gt;BLAST bit score: 431&lt;br&gt;E-value: 7.61e-146" locus_tag="J7337_003938" class="clusterblast-orf" id="general-4_all_4_5_6"  />
</g>
<g id="a4_007"  >
<polygon points="629,290 642,290 647,285 642,280 629,280 629,290 " style="fill:white; stroke-width:1; stroke:black; " description="&lt;b&gt;J7337_003939&lt;/b&gt;&lt;br&gt;hypothetical protein&lt;br&gt;Location: 1490435 - 1491174" locus_tag="J7337_003939" class="clusterblast-orf" id="general-4_all_4_5_7"  />
</g>
<g id="a4_008"  >
<polygon points="714,290 758,290 763,285 758,280 714,280 714,290 " style="fill:white; stroke-width:1; stroke:black; " description="&lt;b&gt;J7337_003940&lt;/b&gt;&lt;br&gt;hypothetical protein&lt;br&gt;Location: 1493796 - 1495760" locus_tag="J7337_003940" class="clusterblast-orf" id="general-4_all_4_5_8"  />
</g>
<g label="NC_038015" description="NC_038015 (6636088-6667634): Fusarium venenatum strain A3/5 genome assembly, ... (22% of genes show similarity), terpene" class="clusterblast-cluster"  >
<text x="5" y="320" class="clusterblast-acc"  >
<a xlink:href="https://antismash-db.secondarymetabolites.org/area?record=NC_038015&amp;start=6636088&amp;end=6667634" target="_blank">NC_038015 (6636088-6667634)</a>: Fusarium venenatum strain A3/5 genome assembly, ... (22% of genes show similarity), terpene</text>
<line x1="10" y1="335" x2="778.0" y2="335" style="stroke-width:1; stroke:grey; "  />
</g>
<g id="a4_000"  >
<polygon points="26,340 92,340 97,335 92,330 26,330 26,340 " style="fill:white; stroke-width:1; stroke:black; " description="&lt;b&gt;FVRRES_13382&lt;/b&gt;&lt;br&gt;uncharacterized protein&lt;br&gt;Location: 6665767 - 6662959" locus_tag="FVRRES_13382" class="clusterblast-orf" id="general-4_all_4_6_0"  />
</g>
<g id="a4_001"  >
<polygon points="101,335 106,330 130,330 130,340 106,340 101,335 " style="fill:white; stroke-width:1; stroke:black; " description="&lt;b&gt;FVRRES_13381&lt;/b&gt;&lt;br&gt;uncharacterized protein&lt;br&gt;Location: 6662789 - 6661641" locus_tag="FVRRES_13381" class="clusterblast-orf" id="general-4_all_4_6_1"  />
</g>
<g id="a4_002"  >
<polygon points="180,340 229,340 234,335 229,330 180,330 180,340 " style="fill:white; stroke-width:1; stroke:black; " description="&lt;b&gt;FVRRES_13380&lt;/b&gt;&lt;br&gt;uncharacterized protein&lt;br&gt;Location: 6659674 - 6657497" locus_tag="FVRRES_13380" class="clusterblast-orf" id="general-4_all_4_6_2"  />
</g>
<g id="a4_003"  >
<polygon points="262,335 267,330 305,330 305,340 267,340 262,335 " style="fill:white; stroke-width:1; stroke:black; " description="&lt;b&gt;FVRRES_13379&lt;/b&gt;&lt;br&gt;uncharacterized protein&lt;br&gt;Location: 6656411 - 6654694" locus_tag="FVRRES_13379" class="clusterblast-orf" id="general-4_all_4_6_3"  />
</g>
<g id="a4_004"  >
<polygon points="357,340 391,340 396,335 391,330 357,330 357,340 " style="fill:#15d8d8; stroke-width:1; stroke:black; " description="&lt;b&gt;FVRRES_13378&lt;/b&gt;&lt;br&gt;uncharacterized protein&lt;br&gt;Location: 6652634 - 6651089&lt;br&gt;&lt;br&gt;&lt;b&gt;BlastP hit with input.path1.gene1563&lt;/b&gt;&lt;br&gt;Percentage identity: 76&lt;br&gt;Percentage coverage: 94&lt;br&gt;BLAST bit score: 685&lt;br&gt;E-value: 1.47e-246" locus_tag="FVRRES_13378" class="clusterblast-orf" id="general-4_all_4_6_4"  />
</g>
<g id="a4_005"  >
<polygon points="427,335 432,330 465,330 465,340 432,340 427,335 " style="fill:#7715d8; stroke-width:1; stroke:black; " description="&lt;b&gt;FVRRES_13377&lt;/b&gt;&lt;br&gt;uncharacterized protein&lt;br&gt;Location: 6649857 - 6648357&lt;br&gt;&lt;br&gt;&lt;b&gt;BlastP hit with input.path1.gene1564&lt;/b&gt;&lt;br&gt;Percentage identity: 59&lt;br&gt;Percentage coverage: 74&lt;br&gt;BLAST bit score: 424&lt;br&gt;E-value: 4.55e-143" locus_tag="FVRRES_13377" class="clusterblast-orf" id="general-4_all_4_6_5"  />
</g>
<g id="a4_006"  >
<polygon points="583,340 596,340 601,335 596,330 583,330 583,340 " style="fill:white; stroke-width:1; stroke:black; " description="&lt;b&gt;FVRRES_13376&lt;/b&gt;&lt;br&gt;uncharacterized protein&lt;br&gt;Location: 6643672 - 6642933" locus_tag="FVRRES_13376" class="clusterblast-orf" id="general-4_all_4_6_6"  />
</g>
<g id="a4_007"  >
<polygon points="658,340 703,340 708,335 703,330 658,330 658,340 " style="fill:white; stroke-width:1; stroke:black; " description="&lt;b&gt;FVRRES_13375&lt;/b&gt;&lt;br&gt;uncharacterized protein&lt;br&gt;Location: 6640666 - 6638708" locus_tag="FVRRES_13375" class="clusterblast-orf" id="general-4_all_4_6_7"  />
</g>
<g id="a4_008"  >
<polygon points="718,335 723,330 753,330 753,340 723,340 718,335 " style="fill:white; stroke-width:1; stroke:black; " description="&lt;b&gt;FVRRES_13374&lt;/b&gt;&lt;br&gt;uncharacterized protein&lt;br&gt;Location: 6638280 - 6636909" locus_tag="FVRRES_13374" class="clusterblast-orf" id="general-4_all_4_6_8"  />
</g>
<g label="NC_072843" description="NC_072843 (3340945-3372495): Fusarium oxysporum Fo47 chromosome IV, complete ... (20% of genes show similarity), terpene" class="clusterblast-cluster"  >
<text x="5" y="370" class="clusterblast-acc"  >
<a xlink:href="https://antismash-db.secondarymetabolites.org/area?record=NC_072843&amp;start=3340945&amp;end=3372495" target="_blank">NC_072843 (3340945-3372495)</a>: Fusarium oxysporum Fo47 chromosome IV, complete ... (20% of genes show similarity), terpene</text>
<line x1="10" y1="385" x2="778.0" y2="385" style="stroke-width:1; stroke:grey; "  />
</g>
<g id="a4_000"  >
<polygon points="7,390 65,390 70,385 65,380 7,380 7,390 " style="fill:white; stroke-width:1; stroke:black; " description="&lt;b&gt;FOBC_07334&lt;/b&gt;&lt;br&gt;uncharacterized protein&lt;br&gt;Location: 3371487 - 3368961" locus_tag="FOBC_07334" class="clusterblast-orf" id="general-4_all_4_7_0"  />
</g>
<g id="a4_001"  >
<polygon points="74,385 79,380 104,380 104,390 79,390 74,385 " style="fill:white; stroke-width:1; stroke:black; " description="&lt;b&gt;FOBC_07333&lt;/b&gt;&lt;br&gt;uncharacterized protein&lt;br&gt;Location: 3368790 - 3367636" locus_tag="FOBC_07333" class="clusterblast-orf" id="general-4_all_4_7_1"  />
</g>
<g id="a4_002"  >
<polygon points="146,390 198,390 203,385 198,380 146,380 146,390 " style="fill:white; stroke-width:1; stroke:black; " description="&lt;b&gt;FOBC_07332&lt;/b&gt;&lt;br&gt;uncharacterized protein&lt;br&gt;Location: 3365930 - 3363702" locus_tag="FOBC_07332" class="clusterblast-orf" id="general-4_all_4_7_2"  />
</g>
<g id="a4_003"  >
<polygon points="228,385 233,380 270,380 270,390 233,390 228,385 " style="fill:white; stroke-width:1; stroke:black; " description="&lt;b&gt;FOBC_07331&lt;/b&gt;&lt;br&gt;uncharacterized protein&lt;br&gt;Location: 3362699 - 3361009" locus_tag="FOBC_07331" class="clusterblast-orf" id="general-4_all_4_7_3"  />
</g>
<g id="a4_004"  >
<polygon points="292,385 297,380 313,380 313,390 297,390 292,385 " style="fill:white; stroke-width:1; stroke:black; " description="&lt;b&gt;FOBC_07330&lt;/b&gt;&lt;br&gt;uncharacterized protein&lt;br&gt;Location: 3360164 - 3359303" locus_tag="FOBC_07330" class="clusterblast-orf" id="general-4_all_4_7_4"  />
</g>
<g id="a4_005"  >
<polygon points="359,390 393,390 398,385 393,380 359,380 359,390 " style="fill:#15d8d8; stroke-width:1; stroke:black; " description="&lt;b&gt;FOBC_07329&lt;/b&gt;&lt;br&gt;squalene synthase&lt;br&gt;Location: 3357495 - 3355946&lt;br&gt;&lt;br&gt;&lt;b&gt;BlastP hit with input.path1.gene1563&lt;/b&gt;&lt;br&gt;Percentage identity: 75&lt;br&gt;Percentage coverage: 94&lt;br&gt;BLAST bit score: 679&lt;br&gt;E-value: 3.99e-244" locus_tag="FOBC_07329" class="clusterblast-orf" id="general-4_all_4_7_5"  />
</g>
<g id="a4_006"  >
<polygon points="428,385 433,380 466,380 466,390 433,390 428,385 " style="fill:#7715d8; stroke-width:1; stroke:black; " description="&lt;b&gt;FOBC_07328&lt;/b&gt;&lt;br&gt;uncharacterized protein&lt;br&gt;Location: 3354736 - 3353240&lt;br&gt;&lt;br&gt;&lt;b&gt;BlastP hit with input.path1.gene1564&lt;/b&gt;&lt;br&gt;Percentage identity: 59&lt;br&gt;Percentage coverage: 74&lt;br&gt;BLAST bit score: 430&lt;br&gt;E-value: 2.16e-145" locus_tag="FOBC_07328" class="clusterblast-orf" id="general-4_all_4_7_6"  />
</g>
<g id="a4_007"  >
<polygon points="595,390 608,390 613,385 608,380 595,380 595,390 " style="fill:white; stroke-width:1; stroke:black; " description="&lt;b&gt;FOBC_07327&lt;/b&gt;&lt;br&gt;uncharacterized protein&lt;br&gt;Location: 3348137 - 3347398" locus_tag="FOBC_07327" class="clusterblast-orf" id="general-4_all_4_7_7"  />
</g>
<g id="a4_008"  >
<polygon points="677,390 721,390 726,385 721,380 677,380 677,390 " style="fill:white; stroke-width:1; stroke:black; " description="&lt;b&gt;FOBC_07326&lt;/b&gt;&lt;br&gt;uncharacterized protein&lt;br&gt;Location: 3344883 - 3342919" locus_tag="FOBC_07326" class="clusterblast-orf" id="general-4_all_4_7_8"  />
</g>
<g id="a4_009"  >
<polygon points="738,385 743,380 772,380 772,390 743,390 738,385 " style="fill:white; stroke-width:1; stroke:black; " description="&lt;b&gt;FOBC_07325&lt;/b&gt;&lt;br&gt;GPI mannosyltransferase 1&lt;br&gt;Location: 3342446 - 3341077" locus_tag="FOBC_07325" class="clusterblast-orf" id="general-4_all_4_7_9"  />
</g>
<g label="NC_036623" description="NC_036623 (3601013-3632563): Fusarium fujikuroi IMI 58289 draft genome, chrom... (20% of genes show similarity), terpene" class="clusterblast-cluster"  >
<text x="5" y="420" class="clusterblast-acc"  >
<a xlink:href="https://antismash-db.secondarymetabolites.org/area?record=NC_036623&amp;start=3601013&amp;end=3632563" target="_blank">NC_036623 (3601013-3632563)</a>: Fusarium fujikuroi IMI 58289 draft genome, chrom... (20% of genes show similarity), terpene</text>
<line x1="10" y1="435" x2="778.0" y2="435" style="stroke-width:1; stroke:grey; "  />
</g>
<g id="a4_000"  >
<polygon points="0,435 5,430 21,430 21,440 5,440 0,435 " style="fill:white; stroke-width:1; stroke:black; " description="&lt;b&gt;FFUJ_04228&lt;/b&gt;&lt;br&gt;uncharacterized protein&lt;br&gt;Location: 3632039 - 3631166" locus_tag="FFUJ_04228" class="clusterblast-orf" id="general-4_all_4_8_0"  />
</g>
<g id="a4_001"  >
<polygon points="31,440 89,440 94,435 89,430 31,430 31,440 " style="fill:white; stroke-width:1; stroke:black; " description="&lt;b&gt;FFUJ_04229&lt;/b&gt;&lt;br&gt;related to campothecin resistance conferring protein&lt;br&gt;Location: 3630778 - 3628268" locus_tag="FFUJ_04229" class="clusterblast-orf" id="general-4_all_4_8_1"  />
</g>
<g id="a4_002"  >
<polygon points="99,435 104,430 128,430 128,440 104,440 99,435 " style="fill:white; stroke-width:1; stroke:black; " description="&lt;b&gt;FFUJ_04230&lt;/b&gt;&lt;br&gt;related to cytochrome b-type NAD(P)H oxidoreductase&lt;br&gt;Location: 3628100 - 3626949" locus_tag="FFUJ_04230" class="clusterblast-orf" id="general-4_all_4_8_2"  />
</g>
<g id="a4_003"  >
<polygon points="171,440 222,440 227,435 222,430 171,430 171,440 " style="fill:white; stroke-width:1; stroke:black; " description="&lt;b&gt;FFUJ_04231&lt;/b&gt;&lt;br&gt;uncharacterized protein&lt;br&gt;Location: 3625224 - 3622999" locus_tag="FFUJ_04231" class="clusterblast-orf" id="general-4_all_4_8_3"  />
</g>
<g id="a4_004"  >
<polygon points="257,435 262,430 299,430 299,440 262,440 257,435 " style="fill:white; stroke-width:1; stroke:black; " description="&lt;b&gt;FFUJ_04232&lt;/b&gt;&lt;br&gt;related to DnaJ-like protein&lt;br&gt;Location: 3621825 - 3620135" locus_tag="FFUJ_04232" class="clusterblast-orf" id="general-4_all_4_8_4"  />
</g>
<g id="a4_005"  >
<polygon points="364,440 398,440 403,435 398,430 364,430 364,440 " style="fill:#15d8d8; stroke-width:1; stroke:black; " description="&lt;b&gt;FFUJ_04233&lt;/b&gt;&lt;br&gt;probable farnesyl-diphosphate farnesyltransferase&lt;br&gt;Location: 3617563 - 3616014&lt;br&gt;&lt;br&gt;&lt;b&gt;BlastP hit with input.path1.gene1563&lt;/b&gt;&lt;br&gt;Percentage identity: 75&lt;br&gt;Percentage coverage: 94&lt;br&gt;BLAST bit score: 677&lt;br&gt;E-value: 1.62e-243" locus_tag="FFUJ_04233" class="clusterblast-orf" id="general-4_all_4_8_5"  />
</g>
<g id="a4_006"  >
<polygon points="435,435 440,430 473,430 473,440 440,440 435,435 " style="fill:#7715d8; stroke-width:1; stroke:black; " description="&lt;b&gt;FFUJ_04234&lt;/b&gt;&lt;br&gt;probable alkaline protease (oryzin)&lt;br&gt;Location: 3614739 - 3613247&lt;br&gt;&lt;br&gt;&lt;b&gt;BlastP hit with input.path1.gene1564&lt;/b&gt;&lt;br&gt;Percentage identity: 60&lt;br&gt;Percentage coverage: 74&lt;br&gt;BLAST bit score: 431&lt;br&gt;E-value: 7.61e-146" locus_tag="FFUJ_04234" class="clusterblast-orf" id="general-4_all_4_8_6"  />
</g>
<g id="a4_007"  >
<polygon points="600,440 614,440 619,435 614,430 600,430 600,440 " style="fill:white; stroke-width:1; stroke:black; " description="&lt;b&gt;FFUJ_04235&lt;/b&gt;&lt;br&gt;related to O-methyltransferase&lt;br&gt;Location: 3608202 - 3607463" locus_tag="FFUJ_04235" class="clusterblast-orf" id="general-4_all_4_8_7"  />
</g>
<g id="a4_008"  >
<polygon points="684,440 728,440 733,435 728,430 684,430 684,440 " style="fill:white; stroke-width:1; stroke:black; " description="&lt;b&gt;FFUJ_04236&lt;/b&gt;&lt;br&gt;uncharacterized protein&lt;br&gt;Location: 3604881 - 3602911" locus_tag="FFUJ_04236" class="clusterblast-orf" id="general-4_all_4_8_8"  />
</g>
<g id="a4_009"  >
<polygon points="745,435 750,430 780,430 780,440 750,440 745,435 " style="fill:white; stroke-width:1; stroke:black; " description="&lt;b&gt;FFUJ_04237&lt;/b&gt;&lt;br&gt;related to mannosyltransferase&lt;br&gt;Location: 3602439 - 3601071" locus_tag="FFUJ_04237" class="clusterblast-orf" id="general-4_all_4_8_9"  />
</g>
<g label="NC_058402" description="NC_058402 (6845329-6876878): Fusarium poae strain DAOMC 252244 chromosome 4, ... (22% of genes show similarity), terpene" class="clusterblast-cluster"  >
<text x="5" y="470" class="clusterblast-acc"  >
<a xlink:href="https://antismash-db.secondarymetabolites.org/area?record=NC_058402&amp;start=6845329&amp;end=6876878" target="_blank">NC_058402 (6845329-6876878)</a>: Fusarium poae strain DAOMC 252244 chromosome 4, ... (22% of genes show similarity), terpene</text>
<line x1="10" y1="485" x2="778.0" y2="485" style="stroke-width:1; stroke:grey; "  />
</g>
<g id="a4_000"  >
<polygon points="28,490 88,490 93,485 88,480 28,480 28,490 " style="fill:white; stroke-width:1; stroke:black; " description="&lt;b&gt;FPOAC1_012299&lt;/b&gt;&lt;br&gt;hypothetical protein&lt;br&gt;Location: 6874784 - 6872230" locus_tag="FPOAC1_012299" class="clusterblast-orf" id="general-4_all_4_9_0"  />
</g>
<g id="a4_001"  >
<polygon points="97,485 102,480 126,480 126,490 102,490 97,485 " style="fill:white; stroke-width:1; stroke:black; " description="&lt;b&gt;FPOAC1_012298&lt;/b&gt;&lt;br&gt;hypothetical protein&lt;br&gt;Location: 6872058 - 6870907" locus_tag="FPOAC1_012298" class="clusterblast-orf" id="general-4_all_4_9_1"  />
</g>
<g id="a4_002"  >
<polygon points="177,490 227,490 232,485 227,480 177,480 177,490 " style="fill:white; stroke-width:1; stroke:black; " description="&lt;b&gt;FPOAC1_012297&lt;/b&gt;&lt;br&gt;hypothetical protein&lt;br&gt;Location: 6868870 - 6866681" locus_tag="FPOAC1_012297" class="clusterblast-orf" id="general-4_all_4_9_2"  />
</g>
<g id="a4_003"  >
<polygon points="260,485 265,480 303,480 303,490 265,490 260,485 " style="fill:white; stroke-width:1; stroke:black; " description="&lt;b&gt;FPOAC1_012296&lt;/b&gt;&lt;br&gt;hypothetical protein&lt;br&gt;Location: 6865595 - 6863887" locus_tag="FPOAC1_012296" class="clusterblast-orf" id="general-4_all_4_9_3"  />
</g>
<g id="a4_004"  >
<polygon points="353,490 387,490 392,485 387,480 353,480 353,490 " style="fill:#15d8d8; stroke-width:1; stroke:black; " description="&lt;b&gt;FPOAC1_012295&lt;/b&gt;&lt;br&gt;Delta(24)-sterol C-methyltransferase&lt;br&gt;Location: 6861878 - 6860330&lt;br&gt;&lt;br&gt;&lt;b&gt;BlastP hit with input.path1.gene1563&lt;/b&gt;&lt;br&gt;Percentage identity: 75&lt;br&gt;Percentage coverage: 94&lt;br&gt;BLAST bit score: 679&lt;br&gt;E-value: 2.81e-244" locus_tag="FPOAC1_012295" class="clusterblast-orf" id="general-4_all_4_9_4"  />
</g>
<g id="a4_005"  >
<polygon points="424,485 429,480 462,480 462,490 429,490 424,485 " style="fill:#7715d8; stroke-width:1; stroke:black; " description="&lt;b&gt;FPOAC1_012294&lt;/b&gt;&lt;br&gt;hypothetical protein&lt;br&gt;Location: 6859084 - 6857584&lt;br&gt;&lt;br&gt;&lt;b&gt;BlastP hit with input.path1.gene1564&lt;/b&gt;&lt;br&gt;Percentage identity: 59&lt;br&gt;Percentage coverage: 74&lt;br&gt;BLAST bit score: 424&lt;br&gt;E-value: 6.44e-143" locus_tag="FPOAC1_012294" class="clusterblast-orf" id="general-4_all_4_9_5"  />
</g>
<g id="a4_006"  >
<polygon points="578,490 592,490 597,485 592,480 578,480 578,490 " style="fill:white; stroke-width:1; stroke:black; " description="&lt;b&gt;FPOAC1_012293&lt;/b&gt;&lt;br&gt;hypothetical protein&lt;br&gt;Location: 6852948 - 6852209" locus_tag="FPOAC1_012293" class="clusterblast-orf" id="general-4_all_4_9_6"  />
</g>
<g id="a4_007"  >
<polygon points="657,490 700,490 705,485 700,480 657,480 657,490 " style="fill:white; stroke-width:1; stroke:black; " description="&lt;b&gt;FPOAC1_012292&lt;/b&gt;&lt;br&gt;hypothetical protein&lt;br&gt;Location: 6849829 - 6847910" locus_tag="FPOAC1_012292" class="clusterblast-orf" id="general-4_all_4_9_7"  />
</g>
<g id="a4_008"  >
<polygon points="716,485 721,480 751,480 751,490 721,490 716,485 " style="fill:white; stroke-width:1; stroke:black; " description="&lt;b&gt;FPOAC1_012291&lt;/b&gt;&lt;br&gt;GPI mannosyltransferase 1&lt;br&gt;Location: 6847485 - 6846110" locus_tag="FPOAC1_012291" class="clusterblast-orf" id="general-4_all_4_9_8"  />
</g>
<g label="NC_026477" description="NC_026477 (6663266-6694813): Fusarium graminearum PH-1 chromosome 4, whole ge... (22% of genes show similarity), terpene" class="clusterblast-cluster"  >
<text x="5" y="520" class="clusterblast-acc"  >
<a xlink:href="https://antismash-db.secondarymetabolites.org/area?record=NC_026477&amp;start=6663266&amp;end=6694813" target="_blank">NC_026477 (6663266-6694813)</a>: Fusarium graminearum PH-1 chromosome 4, whole ge... (22% of genes show similarity), terpene</text>
<line x1="10" y1="535" x2="778.0" y2="535" style="stroke-width:1; stroke:grey; "  />
</g>
<g id="a4_000"  >
<polygon points="27,540 87,540 92,535 87,530 27,530 27,540 " style="fill:white; stroke-width:1; stroke:black; " description="&lt;b&gt;FGSG_09377&lt;/b&gt;&lt;br&gt;hypothetical protein&lt;br&gt;Location: 6692821 - 6690260" locus_tag="FGSG_09377" class="clusterblast-orf" id="general-4_all_4_10_0"  />
</g>
<g id="a4_001"  >
<polygon points="96,535 101,530 125,530 125,540 101,540 96,535 " style="fill:white; stroke-width:1; stroke:black; " description="&lt;b&gt;FGSG_09378&lt;/b&gt;&lt;br&gt;hypothetical protein&lt;br&gt;Location: 6690078 - 6688912" locus_tag="FGSG_09378" class="clusterblast-orf" id="general-4_all_4_10_1"  />
</g>
<g id="a4_002"  >
<polygon points="176,540 226,540 231,535 226,530 176,530 176,540 " style="fill:white; stroke-width:1; stroke:black; " description="&lt;b&gt;FGSG_09379&lt;/b&gt;&lt;br&gt;hypothetical protein&lt;br&gt;Location: 6686895 - 6684706" locus_tag="FGSG_09379" class="clusterblast-orf" id="general-4_all_4_10_2"  />
</g>
<g id="a4_003"  >
<polygon points="259,535 264,530 303,530 303,540 264,540 259,535 " style="fill:white; stroke-width:1; stroke:black; " description="&lt;b&gt;FGSG_09380&lt;/b&gt;&lt;br&gt;hypothetical protein&lt;br&gt;Location: 6683607 - 6681876" locus_tag="FGSG_09380" class="clusterblast-orf" id="general-4_all_4_10_3"  />
</g>
<g id="a4_004"  >
<polygon points="355,540 389,540 394,535 389,530 355,530 355,540 " style="fill:#15d8d8; stroke-width:1; stroke:black; " description="&lt;b&gt;FGSG_09381&lt;/b&gt;&lt;br&gt;squalene synthetase&lt;br&gt;Location: 6679813 - 6678267&lt;br&gt;&lt;br&gt;&lt;b&gt;BlastP hit with input.path1.gene1563&lt;/b&gt;&lt;br&gt;Percentage identity: 75&lt;br&gt;Percentage coverage: 94&lt;br&gt;BLAST bit score: 675&lt;br&gt;E-value: 1.33e-242" locus_tag="FGSG_09381" class="clusterblast-orf" id="general-4_all_4_10_4"  />
</g>
<g id="a4_005"  >
<polygon points="421,535 426,530 459,530 459,540 426,540 421,535 " style="fill:#7715d8; stroke-width:1; stroke:black; " description="&lt;b&gt;FGSG_09382&lt;/b&gt;&lt;br&gt;hypothetical protein&lt;br&gt;Location: 6677163 - 6675665&lt;br&gt;&lt;br&gt;&lt;b&gt;BlastP hit with input.path1.gene1564&lt;/b&gt;&lt;br&gt;Percentage identity: 59&lt;br&gt;Percentage coverage: 74&lt;br&gt;BLAST bit score: 426&lt;br&gt;E-value: 9.9e-144" locus_tag="FGSG_09382" class="clusterblast-orf" id="general-4_all_4_10_5"  />
</g>
<g id="a4_006"  >
<polygon points="576,540 590,540 595,535 590,530 576,530 576,540 " style="fill:white; stroke-width:1; stroke:black; " description="&lt;b&gt;FGSG_09383&lt;/b&gt;&lt;br&gt;hypothetical protein&lt;br&gt;Location: 6671017 - 6670278" locus_tag="FGSG_09383" class="clusterblast-orf" id="general-4_all_4_10_6"  />
</g>
<g id="a4_007"  >
<polygon points="658,540 701,540 706,535 701,530 658,530 658,540 " style="fill:white; stroke-width:1; stroke:black; " description="&lt;b&gt;FGSG_09384&lt;/b&gt;&lt;br&gt;hypothetical protein&lt;br&gt;Location: 6667751 - 6665859" locus_tag="FGSG_09384" class="clusterblast-orf" id="general-4_all_4_10_7"  />
</g>
<g id="a4_008"  >
<polygon points="717,535 722,530 752,530 752,540 722,540 717,535 " style="fill:white; stroke-width:1; stroke:black; " description="&lt;b&gt;FGSG_09385&lt;/b&gt;&lt;br&gt;GPI mannosyltransferase 1&lt;br&gt;Location: 6665411 - 6664040" locus_tag="FGSG_09385" class="clusterblast-orf" id="general-4_all_4_10_8"  />
</g>
</svg>
