<svg xmlns="http://www.w3.org/2000/svg" xmlns:xlink="http://www.w3.org/1999/xlink" version="1.1" x="0" y="0" height="230" width="800" viewBox="0 0 800 230" preserveAspectRatio="none"  >
<g label="Query sequence" class="clusterblast-cluster"  >
<text x="5" y="20" class="clusterblast-acc"  >
Query sequence</text>
<line x1="10" y1="35" x2="778.0" y2="35" style="stroke-width:1; stroke:grey; "  />
<polygon points="334,40 335,40 340,35 335,30 334,30 334,40 " style="fill:#d81515; stroke-width:1; stroke:black; " description="&lt;b&gt;input.path1.gene1634&lt;/b&gt;&lt;br&gt;input.path1.gene1634&lt;br&gt;Location: 7851492 - 7852189" locus_tag="input.path1.gene1634" class="clusterblast-orf" id="dummy-7_q0_0_all"  />
<polygon points="345,35 350,30 354,30 354,40 350,40 345,35 " style="fill:#15d863; stroke-width:1; stroke:black; " description="&lt;b&gt;input.path1.gene1635&lt;/b&gt;&lt;br&gt;input.path1.gene1635&lt;br&gt;Location: 7852878 - 7853946" locus_tag="input.path1.gene1635" class="clusterblast-orf" id="dummy-7_q1_0_all"  />
<polygon points="370,40 370,40 375,35 370,30 370,30 370,40 " style="fill:#1563d8; stroke-width:1; stroke:black; " description="&lt;b&gt;input.path1.gene1636&lt;/b&gt;&lt;br&gt;input.path1.gene1636&lt;br&gt;Location: 7855889 - 7856565" locus_tag="input.path1.gene1636" class="clusterblast-orf" id="dummy-7_q2_0_all"  />
<polygon points="385,35 390,30 407,30 407,40 390,40 385,35 " style="fill:#b115d8; stroke-width:1; stroke:black; " description="&lt;b&gt;input.path1.gene1637&lt;/b&gt;&lt;br&gt;input.path1.gene1637&lt;br&gt;Location: 7857761 - 7860533" locus_tag="input.path1.gene1637" class="clusterblast-orf" id="dummy-7_q3_0_all"  />
<polygon points="431,40 440,40 445,35 440,30 431,30 431,40 " style="fill:#b1d815; stroke-width:1; stroke:black; " description="&lt;b&gt;input.path1.gene1638&lt;/b&gt;&lt;br&gt;input.path1.gene1638&lt;br&gt;Location: 7863506 - 7865230" locus_tag="input.path1.gene1638" class="clusterblast-orf" id="dummy-7_q4_0_all"  />
</g>
<g label="NW_024468991" description="NW_024468991 (326250-425882): Aspergillus fijiensis CBS 313.89 unplaced genom... (5% of genes show similarity), NRPS,NRPS-like" class="clusterblast-cluster"  >
<text x="5" y="70" class="clusterblast-acc"  >
<a xlink:href="https://antismash-db.secondarymetabolites.org/area?record=NW_024468991&amp;start=326250&amp;end=425882" target="_blank">NW_024468991 (326250-425882)</a>: Aspergillus fijiensis CBS 313.89 unplaced genom... (5% of genes show similarity), NRPS,NRPS-like</text>
<line x1="10" y1="85" x2="778.0" y2="85" style="stroke-width:1; stroke:grey; "  />
</g>
<g id="a7_000"  >
<polygon points="0,85 5,80 13,80 13,90 5,90 0,85 " style="fill:white; stroke-width:1; stroke:black; " description="&lt;b&gt;BO72DRAFT_457491&lt;/b&gt;&lt;br&gt;uncharacterized protein&lt;br&gt;Location: 328107 - 329768" locus_tag="BO72DRAFT_457491" class="clusterblast-orf" id="dummy-7_h7_9_0"  />
</g>
<g id="a7_001"  >
<polygon points="23,85 28,80 35,80 35,90 28,90 23,85 " style="fill:white; stroke-width:1; stroke:black; " description="&lt;b&gt;BO72DRAFT_457492&lt;/b&gt;&lt;br&gt;ankyrin&lt;br&gt;Location: 330984 - 332552" locus_tag="BO72DRAFT_457492" class="clusterblast-orf" id="dummy-7_h7_9_1"  />
</g>
<g id="a7_002"  >
<polygon points="45,85 50,80 58,80 58,90 50,90 45,85 " style="fill:white; stroke-width:1; stroke:black; " description="&lt;b&gt;BO72DRAFT_60827&lt;/b&gt;&lt;br&gt;uncharacterized protein&lt;br&gt;Location: 333686 - 335392" locus_tag="BO72DRAFT_60827" class="clusterblast-orf" id="dummy-7_h7_9_2"  />
</g>
<g id="a7_003"  >
<polygon points="70,90 80,90 85,85 80,80 70,80 70,90 " style="fill:white; stroke-width:1; stroke:black; " description="&lt;b&gt;BO72DRAFT_374310&lt;/b&gt;&lt;br&gt;efflux pump antibiotic resistance protein&lt;br&gt;Location: 336838 - 338708" locus_tag="BO72DRAFT_374310" class="clusterblast-orf" id="dummy-7_h7_9_3"  />
</g>
<g id="a7_004"  >
<polygon points="88,90 92,90 97,85 92,80 88,80 88,90 " style="fill:white; stroke-width:1; stroke:black; " description="&lt;b&gt;BO72DRAFT_353469&lt;/b&gt;&lt;br&gt;beta-lactamase&lt;br&gt;Location: 339046 - 340206" locus_tag="BO72DRAFT_353469" class="clusterblast-orf" id="dummy-7_h7_9_4"  />
</g>
<g id="a7_005"  >
<polygon points="100,90 110,90 115,85 110,80 100,80 100,90 " style="fill:white; stroke-width:1; stroke:black; " description="&lt;b&gt;BO72DRAFT_506558&lt;/b&gt;&lt;br&gt;MFS general substrate transporter&lt;br&gt;Location: 340518 - 342434" locus_tag="BO72DRAFT_506558" class="clusterblast-orf" id="dummy-7_h7_9_5"  />
</g>
<g id="a7_006"  >
<polygon points="119,90 137,90 142,85 137,80 119,80 119,90 " style="fill:white; stroke-width:1; stroke:black; " description="&lt;b&gt;BO72DRAFT_467349&lt;/b&gt;&lt;br&gt;nucleoside transporter&lt;br&gt;Location: 342947 - 345770" locus_tag="BO72DRAFT_467349" class="clusterblast-orf" id="dummy-7_h7_9_6"  />
</g>
<g id="a7_007"  >
<polygon points="152,90 165,90 170,85 165,80 152,80 152,90 " style="fill:white; stroke-width:1; stroke:black; " description="&lt;b&gt;BO72DRAFT_457497&lt;/b&gt;&lt;br&gt;C6 transcription factor&lt;br&gt;Location: 347060 - 349273" locus_tag="BO72DRAFT_457497" class="clusterblast-orf" id="dummy-7_h7_9_7"  />
</g>
<g id="a7_008"  >
<polygon points="174,85 179,80 189,80 189,90 179,90 174,85 " style="fill:white; stroke-width:1; stroke:black; " description="&lt;b&gt;BO72DRAFT_526457&lt;/b&gt;&lt;br&gt;uncharacterized protein&lt;br&gt;Location: 349709 - 351578" locus_tag="BO72DRAFT_526457" class="clusterblast-orf" id="dummy-7_h7_9_8"  />
</g>
<g id="a7_009"  >
<polygon points="202,90 212,90 217,85 212,80 202,80 202,90 " style="fill:white; stroke-width:1; stroke:black; " description="&lt;b&gt;BO72DRAFT_446678&lt;/b&gt;&lt;br&gt;amine oxidase&lt;br&gt;Location: 353198 - 355058" locus_tag="BO72DRAFT_446678" class="clusterblast-orf" id="dummy-7_h7_9_9"  />
</g>
<g id="a7_0010"  >
<polygon points="220,85 222,80 222,90 220,85 " style="fill:white; stroke-width:1; stroke:black; " description="&lt;b&gt;BO72DRAFT_446680&lt;/b&gt;&lt;br&gt;uncharacterized protein&lt;br&gt;Location: 355363 - 355725" locus_tag="BO72DRAFT_446680" class="clusterblast-orf" id="dummy-7_h7_9_10"  />
</g>
<g id="a7_0011"  >
<polygon points="227,85 232,80 253,80 253,90 232,90 227,85 " style="fill:white; stroke-width:1; stroke:black; " description="&lt;b&gt;BO72DRAFT_374410&lt;/b&gt;&lt;br&gt;NRPS-like enzyme&lt;br&gt;Location: 356251 - 359536" locus_tag="BO72DRAFT_374410" class="clusterblast-orf" id="dummy-7_h7_9_11"  />
</g>
<g id="a7_0012"  >
<polygon points="273,85 278,80 289,80 289,90 278,90 273,85 " style="fill:white; stroke-width:1; stroke:black; " description="&lt;b&gt;BO72DRAFT_526461&lt;/b&gt;&lt;br&gt;six-hairpin glycosidase&lt;br&gt;Location: 361983 - 364034" locus_tag="BO72DRAFT_526461" class="clusterblast-orf" id="dummy-7_h7_9_12"  />
</g>
<g id="a7_0013"  >
<polygon points="303,90 335,90 340,85 335,80 303,80 303,90 " style="fill:white; stroke-width:1; stroke:black; " description="&lt;b&gt;BO72DRAFT_374343&lt;/b&gt;&lt;br&gt;P-loop containing nucleoside triphosphate hydrolase protein&lt;br&gt;Location: 365692 - 370265" locus_tag="BO72DRAFT_374343" class="clusterblast-orf" id="dummy-7_h7_9_13"  />
</g>
<g id="a7_0014"  >
<polygon points="345,90 347,90 352,85 347,80 345,80 345,90 " style="fill:white; stroke-width:1; stroke:black; " description="&lt;b&gt;BO72DRAFT_61554&lt;/b&gt;&lt;br&gt;putative short-chain dehydrogenase/oxidoreductase&lt;br&gt;Location: 370935 - 371818" locus_tag="BO72DRAFT_61554" class="clusterblast-orf" id="dummy-7_h7_9_14"  />
</g>
<g id="a7_0015"  >
<polygon points="354,85 357,80 357,90 354,85 " style="fill:white; stroke-width:1; stroke:black; " description="&lt;b&gt;BO72DRAFT_446682&lt;/b&gt;&lt;br&gt;uncharacterized protein&lt;br&gt;Location: 371991 - 372434" locus_tag="BO72DRAFT_446682" class="clusterblast-orf" id="dummy-7_h7_9_15"  />
</g>
<g id="a7_0016"  >
<polygon points="366,85 371,80 374,80 374,90 371,90 366,85 " style="fill:white; stroke-width:1; stroke:black; " description="&lt;b&gt;BO72DRAFT_446683&lt;/b&gt;&lt;br&gt;4-hydroxyphenylpyruvate dioxygenase&lt;br&gt;Location: 373459 - 374475" locus_tag="BO72DRAFT_446683" class="clusterblast-orf" id="dummy-7_h7_9_16"  />
</g>
<g id="a7_0017"  >
<polygon points="380,90 385,90 390,85 385,80 380,80 380,90 " style="fill:white; stroke-width:1; stroke:black; " description="&lt;b&gt;BO72DRAFT_401007&lt;/b&gt;&lt;br&gt;aspartyl protease&lt;br&gt;Location: 375213 - 376525" locus_tag="BO72DRAFT_401007" class="clusterblast-orf" id="dummy-7_h7_9_17"  />
</g>
<g id="a7_0018"  >
<polygon points="402,90 402,90 407,85 402,80 402,80 402,90 " style="fill:white; stroke-width:1; stroke:black; " description="&lt;b&gt;BO72DRAFT_494761&lt;/b&gt;&lt;br&gt;uncharacterized protein&lt;br&gt;Location: 377921 - 378568" locus_tag="BO72DRAFT_494761" class="clusterblast-orf" id="dummy-7_h7_9_18"  />
</g>
<g id="a7_0019"  >
<polygon points="409,85 413,80 413,90 409,85 " style="fill:white; stroke-width:1; stroke:black; " description="&lt;b&gt;BO72DRAFT_526467&lt;/b&gt;&lt;br&gt;uncharacterized protein&lt;br&gt;Location: 378796 - 379290" locus_tag="BO72DRAFT_526467" class="clusterblast-orf" id="dummy-7_h7_9_19"  />
</g>
<g id="a7_0020"  >
<polygon points="432,90 438,90 443,85 438,80 432,80 432,90 " style="fill:white; stroke-width:1; stroke:black; " description="&lt;b&gt;BO72DRAFT_457510&lt;/b&gt;&lt;br&gt;taurine catabolism dioxygenase&lt;br&gt;Location: 381715 - 382999" locus_tag="BO72DRAFT_457510" class="clusterblast-orf" id="dummy-7_h7_9_20"  />
</g>
<g id="a7_0021"  >
<polygon points="448,85 452,80 452,90 448,85 " style="fill:white; stroke-width:1; stroke:black; " description="&lt;b&gt;BO72DRAFT_494764&lt;/b&gt;&lt;br&gt;uncharacterized protein&lt;br&gt;Location: 383695 - 384111" locus_tag="BO72DRAFT_494764" class="clusterblast-orf" id="dummy-7_h7_9_21"  />
</g>
<g id="a7_0022"  >
<polygon points="456,85 461,80 466,80 466,90 461,90 456,85 " style="fill:white; stroke-width:1; stroke:black; " description="&lt;b&gt;BO72DRAFT_401011&lt;/b&gt;&lt;br&gt;putative aldehyde reductase&lt;br&gt;Location: 384660 - 385923" locus_tag="BO72DRAFT_401011" class="clusterblast-orf" id="dummy-7_h7_9_22"  />
</g>
<g id="a7_0023"  >
<polygon points="476,90 482,90 487,85 482,80 476,80 476,90 " style="fill:white; stroke-width:1; stroke:black; " description="&lt;b&gt;BO72DRAFT_446687&lt;/b&gt;&lt;br&gt;uncharacterized protein&lt;br&gt;Location: 387158 - 388534" locus_tag="BO72DRAFT_446687" class="clusterblast-orf" id="dummy-7_h7_9_23"  />
</g>
<g id="a7_0024"  >
<polygon points="494,90 503,90 508,85 503,80 494,80 494,90 " style="fill:#b115d8; stroke-width:1; stroke:black; " description="&lt;b&gt;BO72DRAFT_401013&lt;/b&gt;&lt;br&gt;FAD-binding domain-containing protein&lt;br&gt;Location: 389366 - 391107&lt;br&gt;&lt;br&gt;&lt;b&gt;BlastP hit with input.path1.gene1637&lt;/b&gt;&lt;br&gt;Percentage identity: 37&lt;br&gt;Percentage coverage: 45&lt;br&gt;BLAST bit score: 66&lt;br&gt;E-value: 5.5e-10" locus_tag="BO72DRAFT_401013" class="clusterblast-orf" id="dummy-7_h7_9_24"  />
</g>
<g id="a7_0025"  >
<polygon points="516,90 542,90 547,85 542,80 516,80 516,90 " style="fill:#b1d815; stroke-width:1; stroke:black; " description="&lt;b&gt;BO72DRAFT_344191&lt;/b&gt;&lt;br&gt;acetyl-CoA synthetase-like protein&lt;br&gt;Location: 392118 - 395882&lt;br&gt;&lt;br&gt;&lt;b&gt;BlastP hit with input.path1.gene1638&lt;/b&gt;&lt;br&gt;Percentage identity: 36&lt;br&gt;Percentage coverage: 84&lt;br&gt;BLAST bit score: 240&lt;br&gt;E-value: 8.2e-67" locus_tag="BO72DRAFT_344191" class="clusterblast-orf" id="dummy-7_h7_9_25"  />
</g>
<g id="a7_0026"  >
<polygon points="556,90 561,90 566,85 561,80 556,80 556,90 " style="fill:white; stroke-width:1; stroke:black; " description="&lt;b&gt;BO72DRAFT_446689&lt;/b&gt;&lt;br&gt;C-3 sterol dehydrogenase/C-4 decarboxylase family protein&lt;br&gt;Location: 397019 - 398233" locus_tag="BO72DRAFT_446689" class="clusterblast-orf" id="dummy-7_h7_9_26"  />
</g>
<g id="a7_0027"  >
<polygon points="574,85 579,80 586,80 586,90 579,90 574,85 " style="fill:white; stroke-width:1; stroke:black; " description="&lt;b&gt;BO72DRAFT_61654&lt;/b&gt;&lt;br&gt;putative beta-1,6-glucanase&lt;br&gt;Location: 399285 - 400824" locus_tag="BO72DRAFT_61654" class="clusterblast-orf" id="dummy-7_h7_9_27"  />
</g>
<g id="a7_0028"  >
<polygon points="596,90 599,85 596,80 596,90 " style="fill:white; stroke-width:1; stroke:black; " description="&lt;b&gt;BO72DRAFT_526473&lt;/b&gt;&lt;br&gt;uncharacterized protein&lt;br&gt;Location: 401946 - 402439" locus_tag="BO72DRAFT_526473" class="clusterblast-orf" id="dummy-7_h7_9_28"  />
</g>
<g id="a7_0029"  >
<polygon points="606,90 628,90 633,85 628,80 606,80 606,90 " style="fill:white; stroke-width:1; stroke:black; " description="&lt;b&gt;BO72DRAFT_425945&lt;/b&gt;&lt;br&gt;beta-galactosidase B&lt;br&gt;Location: 403272 - 406618" locus_tag="BO72DRAFT_425945" class="clusterblast-orf" id="dummy-7_h7_9_29"  />
</g>
<g id="a7_0030"  >
<polygon points="635,85 640,80 655,80 655,90 640,90 635,85 " style="fill:white; stroke-width:1; stroke:black; " description="&lt;b&gt;BO72DRAFT_425947&lt;/b&gt;&lt;br&gt;heme-dependent catalase&lt;br&gt;Location: 406879 - 409318" locus_tag="BO72DRAFT_425947" class="clusterblast-orf" id="dummy-7_h7_9_30"  />
</g>
<g id="a7_0031"  >
<polygon points="669,85 674,80 686,80 686,90 674,90 669,85 " style="fill:white; stroke-width:1; stroke:black; " description="&lt;b&gt;BO72DRAFT_526476&lt;/b&gt;&lt;br&gt;uncharacterized protein&lt;br&gt;Location: 411035 - 413152" locus_tag="BO72DRAFT_526476" class="clusterblast-orf" id="dummy-7_h7_9_31"  />
</g>
<g id="a7_0032"  >
<polygon points="690,85 695,80 709,80 709,90 695,90 690,85 " style="fill:white; stroke-width:1; stroke:black; " description="&lt;b&gt;BO72DRAFT_425953&lt;/b&gt;&lt;br&gt;actin-like ATPase domain-containing protein&lt;br&gt;Location: 413659 - 415961" locus_tag="BO72DRAFT_425953" class="clusterblast-orf" id="dummy-7_h7_9_32"  />
</g>
<g id="a7_0033"  >
<polygon points="711,90 716,90 721,85 716,80 711,80 711,90 " style="fill:white; stroke-width:1; stroke:black; " description="&lt;b&gt;BO72DRAFT_446694&lt;/b&gt;&lt;br&gt;uncharacterized protein&lt;br&gt;Location: 416263 - 417519" locus_tag="BO72DRAFT_446694" class="clusterblast-orf" id="dummy-7_h7_9_33"  />
</g>
<g id="a7_0034"  >
<polygon points="722,85 727,80 728,80 728,90 727,90 722,85 " style="fill:white; stroke-width:1; stroke:black; " description="&lt;b&gt;BO72DRAFT_61751&lt;/b&gt;&lt;br&gt;uncharacterized protein&lt;br&gt;Location: 417615 - 418397" locus_tag="BO72DRAFT_61751" class="clusterblast-orf" id="dummy-7_h7_9_34"  />
</g>
<g id="a7_0035"  >
<polygon points="741,90 745,85 741,80 741,90 " style="fill:white; stroke-width:1; stroke:black; " description="&lt;b&gt;BO72DRAFT_446695&lt;/b&gt;&lt;br&gt;uncharacterized protein&lt;br&gt;Location: 420018 - 420422" locus_tag="BO72DRAFT_446695" class="clusterblast-orf" id="dummy-7_h7_9_35"  />
</g>
<g id="a7_0036"  >
<polygon points="752,90 760,90 765,85 760,80 752,80 752,90 " style="fill:white; stroke-width:1; stroke:black; " description="&lt;b&gt;BO72DRAFT_61788&lt;/b&gt;&lt;br&gt;uncharacterized protein&lt;br&gt;Location: 421283 - 422889" locus_tag="BO72DRAFT_61788" class="clusterblast-orf" id="dummy-7_h7_9_36"  />
</g>
<g id="a7_0037"  >
<polygon points="768,85 773,80 780,80 780,90 773,90 768,85 " style="fill:white; stroke-width:1; stroke:black; " description="&lt;b&gt;BO72DRAFT_526482&lt;/b&gt;&lt;br&gt;FAD/NAD(P)-binding domain-containing protein&lt;br&gt;Location: 423280 - 424741" locus_tag="BO72DRAFT_526482" class="clusterblast-orf" id="dummy-7_h7_9_37"  />
</g>
</svg>
