<svg xmlns="http://www.w3.org/2000/svg" xmlns:xlink="http://www.w3.org/1999/xlink" version="1.1" x="0" y="0" height="230" width="800" viewBox="0 0 800 230" preserveAspectRatio="none"  >
<g label="Query sequence" class="clusterblast-cluster"  >
<text x="5" y="20" class="clusterblast-acc"  >
Query sequence</text>
<line x1="10" y1="35" x2="778.0" y2="35" style="stroke-width:1; stroke:grey; "  />
<polygon points="264,35 269,30 292,30 292,40 269,40 264,35 " style="fill:white; stroke-width:1; stroke:black; " description="&lt;b&gt;input.path1.gene421&lt;/b&gt;&lt;br&gt;input.path1.gene421&lt;br&gt;Location: 2352103 - 2357478" locus_tag="input.path1.gene421" class="clusterblast-orf" id="dummy-4_q0_0_all"  />
<polygon points="302,40 306,40 311,35 306,30 302,30 302,40 " style="fill:white; stroke-width:1; stroke:black; " description="&lt;b&gt;input.path1.gene422&lt;/b&gt;&lt;br&gt;input.path1.gene422&lt;br&gt;Location: 2359512 - 2361074" locus_tag="input.path1.gene422" class="clusterblast-orf" id="dummy-4_q1_0_all"  />
<polygon points="319,35 324,30 325,30 325,40 324,40 319,35 " style="fill:white; stroke-width:1; stroke:black; " description="&lt;b&gt;input.path1.gene423&lt;/b&gt;&lt;br&gt;input.path1.gene423&lt;br&gt;Location: 2362660 - 2363806" locus_tag="input.path1.gene423" class="clusterblast-orf" id="dummy-4_q2_0_all"  />
<polygon points="334,35 338,30 338,40 334,35 " style="fill:white; stroke-width:1; stroke:black; " description="&lt;b&gt;input.path1.gene424&lt;/b&gt;&lt;br&gt;input.path1.gene424&lt;br&gt;Location: 2365586 - 2366326" locus_tag="input.path1.gene424" class="clusterblast-orf" id="dummy-4_q3_0_all"  />
<polygon points="343,40 345,35 343,30 343,40 " style="fill:white; stroke-width:1; stroke:black; " description="&lt;b&gt;input.path1.gene425&lt;/b&gt;&lt;br&gt;input.path1.gene425&lt;br&gt;Location: 2367405 - 2367740" locus_tag="input.path1.gene425" class="clusterblast-orf" id="dummy-4_q4_0_all"  />
<polygon points="347,35 352,30 356,30 356,40 352,40 347,35 " style="fill:#d81515; stroke-width:1; stroke:black; " description="&lt;b&gt;input.path1.gene426&lt;/b&gt;&lt;br&gt;input.path1.gene426&lt;br&gt;Location: 2368074 - 2369753" locus_tag="input.path1.gene426" class="clusterblast-orf" id="dummy-4_q5_0_all"  />
<polygon points="361,40 375,40 380,35 375,30 361,30 361,40 " style="fill:#15d8d8; stroke-width:1; stroke:black; " description="&lt;b&gt;input.path1.gene427&lt;/b&gt;&lt;br&gt;input.path1.gene427&lt;br&gt;Location: 2370884 - 2374503" locus_tag="input.path1.gene427" class="clusterblast-orf" id="dummy-4_q6_0_all"  />
<polygon points="386,40 388,35 386,30 386,40 " style="fill:#15d8d8; stroke-width:1; stroke:black; " description="&lt;b&gt;input.path1.gene428&lt;/b&gt;&lt;br&gt;input.path1.gene428&lt;br&gt;Location: 2375605 - 2376065" locus_tag="input.path1.gene428" class="clusterblast-orf" id="dummy-4_q7_0_all"  />
<polygon points="394,40 420,40 425,35 420,30 394,30 394,40 " style="fill:#15d8d8; stroke-width:1; stroke:black; " description="&lt;b&gt;input.path1.gene429&lt;/b&gt;&lt;br&gt;input.path1.gene429&lt;br&gt;Location: 2377228 - 2383114" locus_tag="input.path1.gene429" class="clusterblast-orf" id="dummy-4_q8_0_all"  />
<polygon points="431,40 456,40 461,35 456,30 431,30 431,40 " style="fill:white; stroke-width:1; stroke:black; " description="&lt;b&gt;input.path1.gene430&lt;/b&gt;&lt;br&gt;input.path1.gene430&lt;br&gt;Location: 2384288 - 2390127" locus_tag="input.path1.gene430" class="clusterblast-orf" id="dummy-4_q9_0_all"  />
<polygon points="471,35 474,30 474,40 471,35 " style="fill:white; stroke-width:1; stroke:black; " description="&lt;b&gt;input.path1.gene431&lt;/b&gt;&lt;br&gt;input.path1.gene431&lt;br&gt;Location: 2391957 - 2392648" locus_tag="input.path1.gene431" class="clusterblast-orf" id="dummy-4_q10_0_all"  />
<polygon points="475,40 481,40 486,35 481,30 475,30 475,40 " style="fill:white; stroke-width:1; stroke:black; " description="&lt;b&gt;input.path1.gene432&lt;/b&gt;&lt;br&gt;input.path1.gene432&lt;br&gt;Location: 2392805 - 2394845" locus_tag="input.path1.gene432" class="clusterblast-orf" id="dummy-4_q11_0_all"  />
<polygon points="490,40 493,35 490,30 490,40 " style="fill:white; stroke-width:1; stroke:black; " description="&lt;b&gt;input.path1.gene433&lt;/b&gt;&lt;br&gt;input.path1.gene433&lt;br&gt;Location: 2395619 - 2396339" locus_tag="input.path1.gene433" class="clusterblast-orf" id="dummy-4_q12_0_all"  />
<polygon points="493,40 496,35 493,30 493,40 " style="fill:white; stroke-width:1; stroke:black; " description="&lt;b&gt;input.path1.gene434&lt;/b&gt;&lt;br&gt;input.path1.gene434&lt;br&gt;Location: 2396346 - 2396740" locus_tag="input.path1.gene434" class="clusterblast-orf" id="dummy-4_q13_0_all"  />
<polygon points="499,35 504,30 515,30 515,40 504,40 499,35 " style="fill:white; stroke-width:1; stroke:black; " description="&lt;b&gt;input.path1.gene435&lt;/b&gt;&lt;br&gt;input.path1.gene435&lt;br&gt;Location: 2397418 - 2400514" locus_tag="input.path1.gene435" class="clusterblast-orf" id="dummy-4_q14_0_all"  />
</g>
<g label="NW_020290612" description="NW_020290612 (481397-633757): Aspergillus saccharolyticus JOP 1030-1 unplaced... (4% of genes show similarity), NRPS,fungal-RiPP-like" class="clusterblast-cluster"  >
<text x="5" y="70" class="clusterblast-acc"  >
<a xlink:href="https://antismash-db.secondarymetabolites.org/area?record=NW_020290612&amp;start=481397&amp;end=633757" target="_blank">NW_020290612 (481397-633757)</a>: Aspergillus saccharolyticus JOP 1030-1 unplaced... (4% of genes show similarity), NRPS,fungal-RiPP-like</text>
<line x1="10" y1="85" x2="778.0" y2="85" style="stroke-width:1; stroke:grey; "  />
</g>
<g id="a4_000"  >
<polygon points="0,85 5,80 6,80 6,90 5,90 0,85 " style="fill:white; stroke-width:1; stroke:black; " description="&lt;b&gt;BP01DRAFT_378881&lt;/b&gt;&lt;br&gt;FAD-binding domain-containing protein&lt;br&gt;Location: 632882 - 631629" locus_tag="BP01DRAFT_378881" class="clusterblast-orf" id="dummy-4_h4_7_0"  />
</g>
<g id="a4_001"  >
<polygon points="17,90 21,90 26,85 21,80 17,80 17,90 " style="fill:white; stroke-width:1; stroke:black; " description="&lt;b&gt;BP01DRAFT_378879&lt;/b&gt;&lt;br&gt;hypothetical protein&lt;br&gt;Location: 629543 - 627856" locus_tag="BP01DRAFT_378879" class="clusterblast-orf" id="dummy-4_h4_7_1"  />
</g>
<g id="a4_002"  >
<polygon points="36,90 39,85 36,80 36,90 " style="fill:white; stroke-width:1; stroke:black; " description="&lt;b&gt;BP01DRAFT_362262&lt;/b&gt;&lt;br&gt;hypothetical protein&lt;br&gt;Location: 625854 - 625219" locus_tag="BP01DRAFT_362262" class="clusterblast-orf" id="dummy-4_h4_7_2"  />
</g>
<g id="a4_003"  >
<polygon points="54,90 59,90 64,85 59,80 54,80 54,90 " style="fill:white; stroke-width:1; stroke:black; " description="&lt;b&gt;BP01DRAFT_370814&lt;/b&gt;&lt;br&gt;hypothetical protein&lt;br&gt;Location: 622296 - 620487" locus_tag="BP01DRAFT_370814" class="clusterblast-orf" id="dummy-4_h4_7_3"  />
</g>
<g id="a4_004"  >
<polygon points="65,85 67,80 67,90 65,85 " style="fill:white; stroke-width:1; stroke:black; " description="&lt;b&gt;BP01DRAFT_378877&lt;/b&gt;&lt;br&gt;hypothetical protein&lt;br&gt;Location: 620188 - 619779" locus_tag="BP01DRAFT_378877" class="clusterblast-orf" id="dummy-4_h4_7_4"  />
</g>
<g id="a4_005"  >
<polygon points="71,85 76,80 87,80 87,90 76,90 71,85 " style="fill:white; stroke-width:1; stroke:black; " description="&lt;b&gt;BP01DRAFT_378876&lt;/b&gt;&lt;br&gt;Ent-kaurene synthase&lt;br&gt;Location: 619094 - 616057" locus_tag="BP01DRAFT_378876" class="clusterblast-orf" id="dummy-4_h4_7_5"  />
</g>
<g id="a4_006"  >
<polygon points="91,90 96,90 101,85 96,80 91,80 91,90 " style="fill:white; stroke-width:1; stroke:black; " description="&lt;b&gt;BP01DRAFT_370796&lt;/b&gt;&lt;br&gt;putative cytochrome P450 oxygenase&lt;br&gt;Location: 615172 - 613306" locus_tag="BP01DRAFT_370796" class="clusterblast-orf" id="dummy-4_h4_7_6"  />
</g>
<g id="a4_007"  >
<polygon points="104,90 108,85 104,80 104,90 " style="fill:white; stroke-width:1; stroke:black; " description="&lt;b&gt;BP01DRAFT_400649&lt;/b&gt;&lt;br&gt;NAD dependent epimerase/dehydratase&lt;br&gt;Location: 612796 - 611975" locus_tag="BP01DRAFT_400649" class="clusterblast-orf" id="dummy-4_h4_7_7"  />
</g>
<g id="a4_008"  >
<polygon points="120,85 125,80 136,80 136,90 125,90 120,85 " style="fill:white; stroke-width:1; stroke:black; " description="&lt;b&gt;BP01DRAFT_400645&lt;/b&gt;&lt;br&gt;alkaline phosphatase-like protein&lt;br&gt;Location: 609600 - 606635" locus_tag="BP01DRAFT_400645" class="clusterblast-orf" id="dummy-4_h4_7_8"  />
</g>
<g id="a4_009"  >
<polygon points="138,85 143,80 147,80 147,90 143,90 138,85 " style="fill:white; stroke-width:1; stroke:black; " description="&lt;b&gt;BP01DRAFT_413017&lt;/b&gt;&lt;br&gt;serine palmitoyl transferase subunit&lt;br&gt;Location: 606173 - 604500" locus_tag="BP01DRAFT_413017" class="clusterblast-orf" id="dummy-4_h4_7_9"  />
</g>
<g id="a4_0010"  >
<polygon points="150,90 150,90 155,85 150,80 150,80 150,90 " style="fill:white; stroke-width:1; stroke:black; " description="&lt;b&gt;BP01DRAFT_287426&lt;/b&gt;&lt;br&gt;RTA1-domain-containing protein&lt;br&gt;Location: 603939 - 602920" locus_tag="BP01DRAFT_287426" class="clusterblast-orf" id="dummy-4_h4_7_10"  />
</g>
<g id="a4_0011"  >
<polygon points="157,90 159,90 164,85 159,80 157,80 157,90 " style="fill:white; stroke-width:1; stroke:black; " description="&lt;b&gt;BP01DRAFT_75374&lt;/b&gt;&lt;br&gt;hypothetical protein&lt;br&gt;Location: 602521 - 601242" locus_tag="BP01DRAFT_75374" class="clusterblast-orf" id="dummy-4_h4_7_11"  />
</g>
<g id="a4_0012"  >
<polygon points="166,90 171,90 176,85 171,80 166,80 166,90 " style="fill:white; stroke-width:1; stroke:black; " description="&lt;b&gt;BP01DRAFT_420309&lt;/b&gt;&lt;br&gt;cytochrome P450&lt;br&gt;Location: 600738 - 598877" locus_tag="BP01DRAFT_420309" class="clusterblast-orf" id="dummy-4_h4_7_12"  />
</g>
<g id="a4_0013"  >
<polygon points="187,90 191,85 187,80 187,90 " style="fill:white; stroke-width:1; stroke:black; " description="&lt;b&gt;BP01DRAFT_378869&lt;/b&gt;&lt;br&gt;hypothetical protein&lt;br&gt;Location: 596814 - 596012" locus_tag="BP01DRAFT_378869" class="clusterblast-orf" id="dummy-4_h4_7_13"  />
</g>
<g id="a4_0014"  >
<polygon points="196,90 199,85 196,80 196,90 " style="fill:white; stroke-width:1; stroke:black; " description="&lt;b&gt;BP01DRAFT_378867&lt;/b&gt;&lt;br&gt;hypothetical protein&lt;br&gt;Location: 595055 - 594474" locus_tag="BP01DRAFT_378867" class="clusterblast-orf" id="dummy-4_h4_7_14"  />
</g>
<g id="a4_0015"  >
<polygon points="202,90 206,85 202,80 202,90 " style="fill:white; stroke-width:1; stroke:black; " description="&lt;b&gt;BP01DRAFT_332223&lt;/b&gt;&lt;br&gt;hypothetical protein&lt;br&gt;Location: 593906 - 593136" locus_tag="BP01DRAFT_332223" class="clusterblast-orf" id="dummy-4_h4_7_15"  />
</g>
<g id="a4_0016"  >
<polygon points="228,85 233,80 234,80 234,90 233,90 228,85 " style="fill:white; stroke-width:1; stroke:black; " description="&lt;b&gt;BP01DRAFT_378865&lt;/b&gt;&lt;br&gt;hypothetical protein&lt;br&gt;Location: 588757 - 587749" locus_tag="BP01DRAFT_378865" class="clusterblast-orf" id="dummy-4_h4_7_16"  />
</g>
<g id="a4_0017"  >
<polygon points="243,85 248,80 249,80 249,90 248,90 243,85 " style="fill:white; stroke-width:1; stroke:black; " description="&lt;b&gt;BP01DRAFT_378864&lt;/b&gt;&lt;br&gt;hypothetical protein&lt;br&gt;Location: 585862 - 584854" locus_tag="BP01DRAFT_378864" class="clusterblast-orf" id="dummy-4_h4_7_17"  />
</g>
<g id="a4_0018"  >
<polygon points="267,85 272,80 277,80 277,90 272,90 267,85 " style="fill:white; stroke-width:1; stroke:black; " description="&lt;b&gt;BP01DRAFT_388365&lt;/b&gt;&lt;br&gt;sodium/phosphate symporter&lt;br&gt;Location: 581287 - 579360" locus_tag="BP01DRAFT_388365" class="clusterblast-orf" id="dummy-4_h4_7_18"  />
</g>
<g id="a4_0019"  >
<polygon points="284,85 289,80 294,80 294,90 289,90 284,85 " style="fill:white; stroke-width:1; stroke:black; " description="&lt;b&gt;BP01DRAFT_75320&lt;/b&gt;&lt;br&gt;amidase signature enzyme&lt;br&gt;Location: 578031 - 576169" locus_tag="BP01DRAFT_75320" class="clusterblast-orf" id="dummy-4_h4_7_19"  />
</g>
<g id="a4_0020"  >
<polygon points="302,85 307,80 307,80 307,90 307,90 302,85 " style="fill:white; stroke-width:1; stroke:black; " description="&lt;b&gt;BP01DRAFT_388363&lt;/b&gt;&lt;br&gt;NAD(P)-binding protein&lt;br&gt;Location: 574628 - 573636" locus_tag="BP01DRAFT_388363" class="clusterblast-orf" id="dummy-4_h4_7_20"  />
</g>
<g id="a4_0021"  >
<polygon points="312,90 315,85 312,80 312,90 " style="fill:white; stroke-width:1; stroke:black; " description="&lt;b&gt;BP01DRAFT_75307&lt;/b&gt;&lt;br&gt;hypothetical protein&lt;br&gt;Location: 572656 - 571990" locus_tag="BP01DRAFT_75307" class="clusterblast-orf" id="dummy-4_h4_7_21"  />
</g>
<g id="a4_0022"  >
<polygon points="320,90 323,90 328,85 323,80 320,80 320,90 " style="fill:white; stroke-width:1; stroke:black; " description="&lt;b&gt;BP01DRAFT_75309&lt;/b&gt;&lt;br&gt;hypothetical protein&lt;br&gt;Location: 571112 - 569631" locus_tag="BP01DRAFT_75309" class="clusterblast-orf" id="dummy-4_h4_7_22"  />
</g>
<g id="a4_0023"  >
<polygon points="331,85 334,80 334,90 331,85 " style="fill:white; stroke-width:1; stroke:black; " description="&lt;b&gt;BP01DRAFT_352810&lt;/b&gt;&lt;br&gt;hypothetical protein&lt;br&gt;Location: 568951 - 568413" locus_tag="BP01DRAFT_352810" class="clusterblast-orf" id="dummy-4_h4_7_23"  />
</g>
<g id="a4_0024"  >
<polygon points="357,85 362,80 365,80 365,90 362,90 357,85 " style="fill:white; stroke-width:1; stroke:black; " description="&lt;b&gt;BP01DRAFT_388359&lt;/b&gt;&lt;br&gt;hypothetical protein&lt;br&gt;Location: 563970 - 562474" locus_tag="BP01DRAFT_388359" class="clusterblast-orf" id="dummy-4_h4_7_24"  />
</g>
<g id="a4_0025"  >
<polygon points="378,85 381,80 381,90 378,85 " style="fill:white; stroke-width:1; stroke:black; " description="&lt;b&gt;BP01DRAFT_352809&lt;/b&gt;&lt;br&gt;hypothetical protein&lt;br&gt;Location: 559882 - 559268" locus_tag="BP01DRAFT_352809" class="clusterblast-orf" id="dummy-4_h4_7_25"  />
</g>
<g id="a4_0026"  >
<polygon points="387,90 391,85 387,80 387,90 " style="fill:white; stroke-width:1; stroke:black; " description="&lt;b&gt;BP01DRAFT_352808&lt;/b&gt;&lt;br&gt;hypothetical protein&lt;br&gt;Location: 558160 - 557445" locus_tag="BP01DRAFT_352808" class="clusterblast-orf" id="dummy-4_h4_7_26"  />
</g>
<g id="a4_0027"  >
<polygon points="391,85 396,80 402,80 402,90 396,90 391,85 " style="fill:white; stroke-width:1; stroke:black; " description="&lt;b&gt;BP01DRAFT_352806&lt;/b&gt;&lt;br&gt;putative DNA photolyase&lt;br&gt;Location: 557353 - 555340" locus_tag="BP01DRAFT_352806" class="clusterblast-orf" id="dummy-4_h4_7_27"  />
</g>
<g id="a4_0028"  >
<polygon points="411,90 415,85 411,80 411,90 " style="fill:white; stroke-width:1; stroke:black; " description="&lt;b&gt;BP01DRAFT_362240&lt;/b&gt;&lt;br&gt;hypothetical protein&lt;br&gt;Location: 553570 - 552678" locus_tag="BP01DRAFT_362240" class="clusterblast-orf" id="dummy-4_h4_7_28"  />
</g>
<g id="a4_0029"  >
<polygon points="419,85 424,80 424,80 424,90 424,90 419,85 " style="fill:white; stroke-width:1; stroke:black; " description="&lt;b&gt;BP01DRAFT_352805&lt;/b&gt;&lt;br&gt;putative short chain dehydrogenase/reductase&lt;br&gt;Location: 552008 - 550941" locus_tag="BP01DRAFT_352805" class="clusterblast-orf" id="dummy-4_h4_7_29"  />
</g>
<g id="a4_0030"  >
<polygon points="430,85 434,80 434,90 430,85 " style="fill:white; stroke-width:1; stroke:black; " description="&lt;b&gt;BP01DRAFT_332213&lt;/b&gt;&lt;br&gt;class I glutamine amidotransferase-like protein&lt;br&gt;Location: 549853 - 549083" locus_tag="BP01DRAFT_332213" class="clusterblast-orf" id="dummy-4_h4_7_30"  />
</g>
<g id="a4_0031"  >
<polygon points="436,90 442,90 447,85 442,80 436,80 436,90 " style="fill:white; stroke-width:1; stroke:black; " description="&lt;b&gt;BP01DRAFT_75247&lt;/b&gt;&lt;br&gt;putative Zn(II)2Cys6 transcription factor&lt;br&gt;Location: 548635 - 546506" locus_tag="BP01DRAFT_75247" class="clusterblast-orf" id="dummy-4_h4_7_31"  />
</g>
<g id="a4_0032"  >
<polygon points="453,85 458,80 460,80 460,90 458,90 453,85 " style="fill:white; stroke-width:1; stroke:black; " description="&lt;b&gt;BP01DRAFT_362236&lt;/b&gt;&lt;br&gt;hypothetical protein&lt;br&gt;Location: 545482 - 544025" locus_tag="BP01DRAFT_362236" class="clusterblast-orf" id="dummy-4_h4_7_32"  />
</g>
<g id="a4_0033"  >
<polygon points="470,85 475,80 479,80 479,90 475,90 470,85 " style="fill:#d81515; stroke-width:1; stroke:black; " description="&lt;b&gt;BP01DRAFT_400622&lt;/b&gt;&lt;br&gt;MFS general substrate transporter&lt;br&gt;Location: 542147 - 540394&lt;br&gt;&lt;br&gt;&lt;b&gt;BlastP hit with input.path1.gene426&lt;/b&gt;&lt;br&gt;Percentage identity: 32&lt;br&gt;Percentage coverage: 89&lt;br&gt;BLAST bit score: 213&lt;br&gt;E-value: 5.09e-61" locus_tag="BP01DRAFT_400622" class="clusterblast-orf" id="dummy-4_h4_7_33"  />
</g>
<g id="a4_0034"  >
<polygon points="482,90 490,90 495,85 490,80 482,80 482,90 " style="fill:white; stroke-width:1; stroke:black; " description="&lt;b&gt;BP01DRAFT_332208&lt;/b&gt;&lt;br&gt;hypothetical protein&lt;br&gt;Location: 539863 - 537403" locus_tag="BP01DRAFT_332208" class="clusterblast-orf" id="dummy-4_h4_7_34"  />
</g>
<g id="a4_0035"  >
<polygon points="498,85 503,80 511,80 511,90 503,90 498,85 " style="fill:white; stroke-width:1; stroke:black; " description="&lt;b&gt;BP01DRAFT_420292&lt;/b&gt;&lt;br&gt;hypothetical protein&lt;br&gt;Location: 536745 - 534334" locus_tag="BP01DRAFT_420292" class="clusterblast-orf" id="dummy-4_h4_7_35"  />
</g>
<g id="a4_0036"  >
<polygon points="520,85 525,80 525,80 525,90 525,90 520,85 " style="fill:white; stroke-width:1; stroke:black; " description="&lt;b&gt;BP01DRAFT_352800&lt;/b&gt;&lt;br&gt;catalytic protein&lt;br&gt;Location: 532529 - 531567" locus_tag="BP01DRAFT_352800" class="clusterblast-orf" id="dummy-4_h4_7_36"  />
</g>
<g id="a4_0037"  >
<polygon points="528,85 533,80 538,80 538,90 533,90 528,85 " style="fill:white; stroke-width:1; stroke:black; " description="&lt;b&gt;BP01DRAFT_413005&lt;/b&gt;&lt;br&gt;MFS general substrate transporter&lt;br&gt;Location: 530906 - 529063" locus_tag="BP01DRAFT_413005" class="clusterblast-orf" id="dummy-4_h4_7_37"  />
</g>
<g id="a4_0038"  >
<polygon points="542,90 624,90 629,85 624,80 542,80 542,90 " style="fill:#15d8d8; stroke-width:1; stroke:black; " description="&lt;b&gt;BP01DRAFT_388346&lt;/b&gt;&lt;br&gt;acetyl-CoA synthetase-like protein&lt;br&gt;Location: 528308 - 511398&lt;br&gt;&lt;br&gt;&lt;b&gt;BlastP hit with input.path1.gene427&lt;/b&gt;&lt;br&gt;Percentage identity: 40&lt;br&gt;Percentage coverage: 28&lt;br&gt;BLAST bit score: 169&lt;br&gt;E-value: 1.48e-40&lt;br&gt;&lt;br&gt;&lt;b&gt;BlastP hit with input.path1.gene429&lt;/b&gt;&lt;br&gt;Percentage identity: 35&lt;br&gt;Percentage coverage: 47&lt;br&gt;BLAST bit score: 410&lt;br&gt;E-value: 1.24e-114" locus_tag="BP01DRAFT_388346" class="clusterblast-orf" id="dummy-4_h4_7_38"  />
</g>
<g id="a4_0039"  >
<polygon points="646,85 650,80 650,90 646,85 " style="fill:white; stroke-width:1; stroke:black; " description="&lt;b&gt;BP01DRAFT_75176&lt;/b&gt;&lt;br&gt;hypothetical protein&lt;br&gt;Location: 508129 - 507512" locus_tag="BP01DRAFT_75176" class="clusterblast-orf" id="dummy-4_h4_7_39"  />
</g>
<g id="a4_0040"  >
<polygon points="667,85 668,80 668,90 667,85 " style="fill:white; stroke-width:1; stroke:black; " description="&lt;b&gt;BP01DRAFT_378840&lt;/b&gt;&lt;br&gt;hypothetical protein&lt;br&gt;Location: 504169 - 503882" locus_tag="BP01DRAFT_378840" class="clusterblast-orf" id="dummy-4_h4_7_40"  />
</g>
<g id="a4_0041"  >
<polygon points="676,90 678,90 683,85 678,80 676,80 676,90 " style="fill:white; stroke-width:1; stroke:black; " description="&lt;b&gt;BP01DRAFT_75153&lt;/b&gt;&lt;br&gt;peptidase family M20/M25/M40 protein&lt;br&gt;Location: 502391 - 501000" locus_tag="BP01DRAFT_75153" class="clusterblast-orf" id="dummy-4_h4_7_41"  />
</g>
<g id="a4_0042"  >
<polygon points="684,85 689,80 690,80 690,90 689,90 684,85 " style="fill:white; stroke-width:1; stroke:black; " description="&lt;b&gt;BP01DRAFT_352796&lt;/b&gt;&lt;br&gt;NAD(P)-binding protein&lt;br&gt;Location: 500853 - 499795" locus_tag="BP01DRAFT_352796" class="clusterblast-orf" id="dummy-4_h4_7_42"  />
</g>
<g id="a4_0043"  >
<polygon points="695,90 706,90 711,85 706,80 695,80 695,90 " style="fill:white; stroke-width:1; stroke:black; " description="&lt;b&gt;BP01DRAFT_352794&lt;/b&gt;&lt;br&gt;alpha/beta-hydrolase&lt;br&gt;Location: 498706 - 495719" locus_tag="BP01DRAFT_352794" class="clusterblast-orf" id="dummy-4_h4_7_43"  />
</g>
<g id="a4_0044"  >
<polygon points="712,85 717,80 719,80 719,90 717,90 712,85 " style="fill:white; stroke-width:1; stroke:black; " description="&lt;b&gt;BP01DRAFT_352793&lt;/b&gt;&lt;br&gt;putative nucleotide binding protein&lt;br&gt;Location: 495452 - 494194" locus_tag="BP01DRAFT_352793" class="clusterblast-orf" id="dummy-4_h4_7_44"  />
</g>
<g id="a4_0045"  >
<polygon points="720,90 725,90 730,85 725,80 720,80 720,90 " style="fill:white; stroke-width:1; stroke:black; " description="&lt;b&gt;BP01DRAFT_332188&lt;/b&gt;&lt;br&gt;TRAUB-domain-containing protein&lt;br&gt;Location: 493967 - 492098" locus_tag="BP01DRAFT_332188" class="clusterblast-orf" id="dummy-4_h4_7_45"  />
</g>
<g id="a4_0046"  >
<polygon points="732,85 735,80 735,90 732,85 " style="fill:white; stroke-width:1; stroke:black; " description="&lt;b&gt;BP01DRAFT_75047&lt;/b&gt;&lt;br&gt;hypothetical protein&lt;br&gt;Location: 491685 - 490966" locus_tag="BP01DRAFT_75047" class="clusterblast-orf" id="dummy-4_h4_7_46"  />
</g>
<g id="a4_0047"  >
<polygon points="741,85 746,80 748,80 748,90 746,90 741,85 " style="fill:white; stroke-width:1; stroke:black; " description="&lt;b&gt;BP01DRAFT_75078&lt;/b&gt;&lt;br&gt;hypothetical protein&lt;br&gt;Location: 489910 - 488546" locus_tag="BP01DRAFT_75078" class="clusterblast-orf" id="dummy-4_h4_7_47"  />
</g>
<g id="a4_0048"  >
<polygon points="774,90 775,90 780,85 775,80 774,80 774,90 " style="fill:white; stroke-width:1; stroke:black; " description="&lt;b&gt;BP01DRAFT_378831&lt;/b&gt;&lt;br&gt;hypothetical protein&lt;br&gt;Location: 483564 - 482470" locus_tag="BP01DRAFT_378831" class="clusterblast-orf" id="dummy-4_h4_7_48"  />
</g>
</svg>
