<svg xmlns="http://www.w3.org/2000/svg" xmlns:xlink="http://www.w3.org/1999/xlink" version="1.1" x="0" y="0" height="230" width="800" viewBox="0 0 800 230" preserveAspectRatio="none"  >
<g label="Query sequence" class="clusterblast-cluster"  >
<text x="5" y="20" class="clusterblast-acc"  >
Query sequence</text>
<line x1="10" y1="35" x2="778.0" y2="35" style="stroke-width:1; stroke:grey; "  />
<polygon points="238,35 243,30 244,30 244,40 243,40 238,35 " style="fill:white; stroke-width:1; stroke:black; " description="&lt;b&gt;input.path1.gene682&lt;/b&gt;&lt;br&gt;input.path1.gene682&lt;br&gt;Location: 3092124 - 3092794" locus_tag="input.path1.gene682" class="clusterblast-orf" id="dummy-2_q0_0_all"  />
<polygon points="305,40 307,40 312,35 307,30 305,30 305,40 " style="fill:white; stroke-width:1; stroke:black; " description="&lt;b&gt;input.path1.gene683&lt;/b&gt;&lt;br&gt;input.path1.gene683&lt;br&gt;Location: 3099377 - 3100076" locus_tag="input.path1.gene683" class="clusterblast-orf" id="dummy-2_q1_0_all"  />
<polygon points="318,35 321,30 321,40 318,35 " style="fill:white; stroke-width:1; stroke:black; " description="&lt;b&gt;input.path1.gene684&lt;/b&gt;&lt;br&gt;input.path1.gene684&lt;br&gt;Location: 3100761 - 3101121" locus_tag="input.path1.gene684" class="clusterblast-orf" id="dummy-2_q2_0_all"  />
<polygon points="331,40 332,40 337,35 332,30 331,30 331,40 " style="fill:white; stroke-width:1; stroke:black; " description="&lt;b&gt;input.path1.gene685&lt;/b&gt;&lt;br&gt;input.path1.gene685&lt;br&gt;Location: 3102125 - 3102814" locus_tag="input.path1.gene685" class="clusterblast-orf" id="dummy-2_q3_0_all"  />
<polygon points="344,35 349,30 387,30 387,40 349,40 344,35 " style="fill:#d81515; stroke-width:1; stroke:black; " description="&lt;b&gt;input.path1.gene686&lt;/b&gt;&lt;br&gt;input.path1.gene686&lt;br&gt;Location: 3103589 - 3108207" locus_tag="input.path1.gene686" class="clusterblast-orf" id="dummy-2_q4_0_all"  />
<polygon points="389,35 394,30 431,30 431,40 394,40 389,35 " style="fill:#d81515; stroke-width:1; stroke:black; " description="&lt;b&gt;input.path1.gene687&lt;/b&gt;&lt;br&gt;input.path1.gene687&lt;br&gt;Location: 3108396 - 3112903" locus_tag="input.path1.gene687" class="clusterblast-orf" id="dummy-2_q5_0_all"  />
<polygon points="435,40 440,40 445,35 440,30 435,30 435,40 " style="fill:#15d8d8; stroke-width:1; stroke:black; " description="&lt;b&gt;input.path1.gene688&lt;/b&gt;&lt;br&gt;input.path1.gene688&lt;br&gt;Location: 3113428 - 3114463" locus_tag="input.path1.gene688" class="clusterblast-orf" id="dummy-2_q6_0_all"  />
<polygon points="450,40 460,40 465,35 460,30 450,30 450,40 " style="fill:white; stroke-width:1; stroke:black; " description="&lt;b&gt;input.path1.gene689&lt;/b&gt;&lt;br&gt;input.path1.gene689&lt;br&gt;Location: 3115035 - 3116620" locus_tag="input.path1.gene689" class="clusterblast-orf" id="dummy-2_q7_0_all"  />
<polygon points="499,40 518,40 523,35 518,30 499,30 499,40 " style="fill:white; stroke-width:1; stroke:black; " description="&lt;b&gt;input.path1.gene690&lt;/b&gt;&lt;br&gt;input.path1.gene690&lt;br&gt;Location: 3120229 - 3122895" locus_tag="input.path1.gene690" class="clusterblast-orf" id="dummy-2_q8_0_all"  />
<polygon points="534,40 536,40 541,35 536,30 534,30 534,40 " style="fill:white; stroke-width:1; stroke:black; " description="&lt;b&gt;input.path1.gene691&lt;/b&gt;&lt;br&gt;input.path1.gene691&lt;br&gt;Location: 3124054 - 3124850" locus_tag="input.path1.gene691" class="clusterblast-orf" id="dummy-2_q9_0_all"  />
</g>
<g label="NZ_CP063845" description="NZ_CP063845 (1604071-1689401): Gloeobacter morelensis MG652769 chromosome, co... (7% of genes show similarity), NRPS,T1PKS" class="clusterblast-cluster"  >
<text x="5" y="70" class="clusterblast-acc"  >
<a xlink:href="https://antismash-db.secondarymetabolites.org/area?record=NZ_CP063845&amp;start=1604071&amp;end=1689401" target="_blank">NZ_CP063845 (1604071-1689401)</a>: Gloeobacter morelensis MG652769 chromosome, co... (7% of genes show similarity), NRPS,T1PKS</text>
<line x1="10" y1="85" x2="778.0" y2="85" style="stroke-width:1; stroke:grey; "  />
</g>
<g id="a2_000"  >
<polygon points="0,85 5,80 10,80 10,90 5,90 0,85 " style="fill:white; stroke-width:1; stroke:black; " description="&lt;b&gt;ISF26_RS08015&lt;/b&gt;&lt;br&gt;glucose-6-phosphate dehydrogenase assembly protein OpcA&lt;br&gt;Location: 1604527 - 1605654" locus_tag="ISF26_RS08015" class="clusterblast-orf" id="dummy-2_h2_9_0"  />
</g>
<g id="a2_001"  >
<polygon points="10,85 15,80 25,80 25,90 15,90 10,85 " style="fill:white; stroke-width:1; stroke:black; " description="&lt;b&gt;ISF26_RS08020&lt;/b&gt;&lt;br&gt;glucose-6-phosphate dehydrogenase&lt;br&gt;Location: 1605687 - 1607225" locus_tag="ISF26_RS08020" class="clusterblast-orf" id="dummy-2_h2_9_1"  />
</g>
<g id="a2_002"  >
<polygon points="26,85 29,80 29,90 26,85 " style="fill:white; stroke-width:1; stroke:black; " description="&lt;b&gt;ISF26_RS08025&lt;/b&gt;&lt;br&gt;hypothetical protein&lt;br&gt;Location: 1607388 - 1607672" locus_tag="ISF26_RS08025" class="clusterblast-orf" id="dummy-2_h2_9_2"  />
</g>
<g id="a2_003"  >
<polygon points="29,85 34,80 35,80 35,90 34,90 29,85 " style="fill:white; stroke-width:1; stroke:black; " description="&lt;b&gt;ISF26_RS08030&lt;/b&gt;&lt;br&gt;HAD family phosphatase&lt;br&gt;Location: 1607700 - 1608407" locus_tag="ISF26_RS08030" class="clusterblast-orf" id="dummy-2_h2_9_3"  />
</g>
<g id="a2_004"  >
<polygon points="37,90 44,90 49,85 44,80 37,80 37,90 " style="fill:white; stroke-width:1; stroke:black; " description="&lt;b&gt;ISF26_RS08035&lt;/b&gt;&lt;br&gt;type II CAAX endopeptidase family protein&lt;br&gt;Location: 1608520 - 1609878" locus_tag="ISF26_RS08035" class="clusterblast-orf" id="dummy-2_h2_9_4"  />
</g>
<g id="a2_005"  >
<polygon points="49,90 49,90 54,85 49,80 49,80 49,90 " style="fill:white; stroke-width:1; stroke:black; " description="&lt;b&gt;ISF26_RS08040&lt;/b&gt;&lt;br&gt;low molecular weight phosphotyrosine protein phosphatase&lt;br&gt;Location: 1609916 - 1610404" locus_tag="ISF26_RS08040" class="clusterblast-orf" id="dummy-2_h2_9_5"  />
</g>
<g id="a2_006"  >
<polygon points="54,90 57,90 62,85 57,80 54,80 54,90 " style="fill:white; stroke-width:1; stroke:black; " description="&lt;b&gt;ISF26_RS08045&lt;/b&gt;&lt;br&gt;fructosamine kinase family protein&lt;br&gt;Location: 1610385 - 1611251" locus_tag="ISF26_RS08045" class="clusterblast-orf" id="dummy-2_h2_9_6"  />
</g>
<g id="a2_007"  >
<polygon points="64,85 69,80 71,80 71,90 69,90 64,85 " style="fill:white; stroke-width:1; stroke:black; " description="&lt;b&gt;ISF26_RS08055&lt;/b&gt;&lt;br&gt;ISL3 family transposase&lt;br&gt;Location: 1611510 - 1612223" locus_tag="ISF26_RS08055" class="clusterblast-orf" id="dummy-2_h2_9_7"  />
</g>
<g id="a2_008"  >
<polygon points="71,85 75,80 75,90 71,85 " style="fill:white; stroke-width:1; stroke:black; " description="&lt;b&gt;ISF26_RS08060&lt;/b&gt;&lt;br&gt;helix-turn-helix domain-containing protein&lt;br&gt;Location: 1612216 - 1612677" locus_tag="ISF26_RS08060" class="clusterblast-orf" id="dummy-2_h2_9_8"  />
</g>
<g id="a2_009"  >
<polygon points="77,85 82,80 82,80 82,90 82,90 77,85 " style="fill:white; stroke-width:1; stroke:black; " description="&lt;b&gt;ISF26_RS08065&lt;/b&gt;&lt;br&gt;hypothetical protein&lt;br&gt;Location: 1612841 - 1613461" locus_tag="ISF26_RS08065" class="clusterblast-orf" id="dummy-2_h2_9_9"  />
</g>
<g id="a2_0010"  >
<polygon points="82,85 87,80 127,80 127,90 87,90 82,85 " style="fill:white; stroke-width:1; stroke:black; " description="&lt;b&gt;ISF26_RS08070&lt;/b&gt;&lt;br&gt;polymorphic toxin-type HINT domain-containing protein&lt;br&gt;Location: 1613458 - 1618227" locus_tag="ISF26_RS08070" class="clusterblast-orf" id="dummy-2_h2_9_10"  />
</g>
<g id="a2_0011"  >
<polygon points="133,90 148,90 153,85 148,80 133,80 133,90 " style="fill:white; stroke-width:1; stroke:black; " description="&lt;b&gt;ISF26_RS08075&lt;/b&gt;&lt;br&gt;hypothetical protein&lt;br&gt;Location: 1618917 - 1621121" locus_tag="ISF26_RS08075" class="clusterblast-orf" id="dummy-2_h2_9_11"  />
</g>
<g id="a2_0012"  >
<polygon points="154,90 163,90 168,85 163,80 154,80 154,90 " style="fill:white; stroke-width:1; stroke:black; " description="&lt;b&gt;ISF26_RS08080&lt;/b&gt;&lt;br&gt;ferredoxin:protochlorophyllide reductase (ATP-dependent) subunit B&lt;br&gt;Location: 1621198 - 1622715" locus_tag="ISF26_RS08080" class="clusterblast-orf" id="dummy-2_h2_9_12"  />
</g>
<g id="a2_0013"  >
<polygon points="169,85 174,80 180,80 180,90 174,90 169,85 " style="fill:white; stroke-width:1; stroke:black; " description="&lt;b&gt;ISF26_RS08085&lt;/b&gt;&lt;br&gt;hypothetical protein&lt;br&gt;Location: 1622841 - 1623935" locus_tag="ISF26_RS08085" class="clusterblast-orf" id="dummy-2_h2_9_13"  />
</g>
<g id="a2_0014"  >
<polygon points="181,85 186,80 206,80 206,90 186,90 181,85 " style="fill:#d81515; stroke-width:1; stroke:black; " description="&lt;b&gt;ISF26_RS08090&lt;/b&gt;&lt;br&gt;type I polyketide synthase&lt;br&gt;Location: 1624072 - 1626804&lt;br&gt;&lt;br&gt;&lt;b&gt;BlastP hit with input.path1.gene687&lt;/b&gt;&lt;br&gt;Percentage identity: 31&lt;br&gt;Percentage coverage: 87&lt;br&gt;BLAST bit score: 369&lt;br&gt;E-value: 9e-110" locus_tag="ISF26_RS08090" class="clusterblast-orf" id="dummy-2_h2_9_14"  />
</g>
<g id="a2_0015"  >
<polygon points="206,85 211,80 281,80 281,90 211,90 206,85 " style="fill:#d81515; stroke-width:1; stroke:black; " description="&lt;b&gt;ISF26_RS08095&lt;/b&gt;&lt;br&gt;type I polyketide synthase&lt;br&gt;Location: 1626814 - 1634823&lt;br&gt;&lt;br&gt;&lt;b&gt;BlastP hit with input.path1.gene686&lt;/b&gt;&lt;br&gt;Percentage identity: 34&lt;br&gt;Percentage coverage: 57&lt;br&gt;BLAST bit score: 326&lt;br&gt;E-value: 2.58e-89" locus_tag="ISF26_RS08095" class="clusterblast-orf" id="dummy-2_h2_9_15"  />
</g>
<g id="a2_0016"  >
<polygon points="281,85 286,80 297,80 297,90 286,90 281,85 " style="fill:white; stroke-width:1; stroke:black; " description="&lt;b&gt;ISF26_RS08100&lt;/b&gt;&lt;br&gt;hypothetical protein&lt;br&gt;Location: 1634820 - 1636565" locus_tag="ISF26_RS08100" class="clusterblast-orf" id="dummy-2_h2_9_16"  />
</g>
<g id="a2_0017"  >
<polygon points="299,85 304,80 314,80 314,90 304,90 299,85 " style="fill:white; stroke-width:1; stroke:black; " description="&lt;b&gt;ISF26_RS08105&lt;/b&gt;&lt;br&gt;acyltransferase&lt;br&gt;Location: 1636766 - 1638421" locus_tag="ISF26_RS08105" class="clusterblast-orf" id="dummy-2_h2_9_17"  />
</g>
<g id="a2_0018"  >
<polygon points="314,85 319,80 337,80 337,90 319,90 314,85 " style="fill:white; stroke-width:1; stroke:black; " description="&lt;b&gt;ISF26_RS08110&lt;/b&gt;&lt;br&gt;ABC transporter permease&lt;br&gt;Location: 1638474 - 1640906" locus_tag="ISF26_RS08110" class="clusterblast-orf" id="dummy-2_h2_9_18"  />
</g>
<g id="a2_0019"  >
<polygon points="337,85 342,80 345,80 345,90 342,90 337,85 " style="fill:white; stroke-width:1; stroke:black; " description="&lt;b&gt;ISF26_RS08115&lt;/b&gt;&lt;br&gt;aspartyl/asparaginyl beta-hydroxylase domain-containing protein&lt;br&gt;Location: 1640956 - 1641714" locus_tag="ISF26_RS08115" class="clusterblast-orf" id="dummy-2_h2_9_19"  />
</g>
<g id="a2_0020"  >
<polygon points="345,85 350,80 444,80 444,90 350,90 345,85 " style="fill:white; stroke-width:1; stroke:black; " description="&lt;b&gt;ISF26_RS08120&lt;/b&gt;&lt;br&gt;non-ribosomal peptide synthetase&lt;br&gt;Location: 1641751 - 1652481" locus_tag="ISF26_RS08120" class="clusterblast-orf" id="dummy-2_h2_9_20"  />
</g>
<g id="a2_0021"  >
<polygon points="445,85 450,80 518,80 518,90 450,90 445,85 " style="fill:white; stroke-width:1; stroke:black; " description="&lt;b&gt;ISF26_RS08125&lt;/b&gt;&lt;br&gt;non-ribosomal peptide synthetase&lt;br&gt;Location: 1652577 - 1660451" locus_tag="ISF26_RS08125" class="clusterblast-orf" id="dummy-2_h2_9_21"  />
</g>
<g id="a2_0022"  >
<polygon points="519,85 524,80 526,80 526,90 524,90 519,85 " style="fill:white; stroke-width:1; stroke:black; " description="&lt;b&gt;ISF26_RS08130&lt;/b&gt;&lt;br&gt;alpha/beta fold hydrolase&lt;br&gt;Location: 1660491 - 1661243" locus_tag="ISF26_RS08130" class="clusterblast-orf" id="dummy-2_h2_9_22"  />
</g>
<g id="a2_0023"  >
<polygon points="526,85 531,80 541,80 541,90 531,90 526,85 " style="fill:white; stroke-width:1; stroke:black; " description="&lt;b&gt;ISF26_RS08135&lt;/b&gt;&lt;br&gt;cyclic peptide export ABC transporter&lt;br&gt;Location: 1661296 - 1662930" locus_tag="ISF26_RS08135" class="clusterblast-orf" id="dummy-2_h2_9_23"  />
</g>
<g id="a2_0024"  >
<polygon points="542,85 547,80 601,80 601,90 547,90 542,85 " style="fill:#d81515; stroke-width:1; stroke:black; " description="&lt;b&gt;ISF26_RS08140&lt;/b&gt;&lt;br&gt;type I polyketide synthase&lt;br&gt;Location: 1663009 - 1669401&lt;br&gt;&lt;br&gt;&lt;b&gt;BlastP hit with input.path1.gene687&lt;/b&gt;&lt;br&gt;Percentage identity: 33&lt;br&gt;Percentage coverage: 71&lt;br&gt;BLAST bit score: 303&lt;br&gt;E-value: 4.39e-83" locus_tag="ISF26_RS08140" class="clusterblast-orf" id="dummy-2_h2_9_24"  />
</g>
<g id="a2_0025"  >
<polygon points="602,90 605,85 602,80 602,90 " style="fill:white; stroke-width:1; stroke:black; " description="&lt;b&gt;ISF26_RS08145&lt;/b&gt;&lt;br&gt;hypothetical protein&lt;br&gt;Location: 1669469 - 1669825" locus_tag="ISF26_RS08145" class="clusterblast-orf" id="dummy-2_h2_9_25"  />
</g>
<g id="a2_0026"  >
<polygon points="606,85 608,80 608,90 606,85 " style="fill:white; stroke-width:1; stroke:black; " description="&lt;b&gt;ISF26_RS08150&lt;/b&gt;&lt;br&gt;MbtH family NRPS accessory protein&lt;br&gt;Location: 1669881 - 1670141" locus_tag="ISF26_RS08150" class="clusterblast-orf" id="dummy-2_h2_9_26"  />
</g>
<g id="a2_0027"  >
<polygon points="608,85 613,80 616,80 616,90 613,90 608,85 " style="fill:white; stroke-width:1; stroke:black; " description="&lt;b&gt;ISF26_RS08155&lt;/b&gt;&lt;br&gt;4'-phosphopantetheinyl transferase superfamily protein&lt;br&gt;Location: 1670151 - 1670924" locus_tag="ISF26_RS08155" class="clusterblast-orf" id="dummy-2_h2_9_27"  />
</g>
<g id="a2_0028"  >
<polygon points="616,85 619,80 619,90 616,85 " style="fill:white; stroke-width:1; stroke:black; " description="&lt;b&gt;ISF26_RS08160&lt;/b&gt;&lt;br&gt;hypothetical protein&lt;br&gt;Location: 1670929 - 1671309" locus_tag="ISF26_RS08160" class="clusterblast-orf" id="dummy-2_h2_9_28"  />
</g>
<g id="a2_0029"  >
<polygon points="621,85 626,80 627,80 627,90 626,90 621,85 " style="fill:white; stroke-width:1; stroke:black; " description="&lt;b&gt;ISF26_RS08165&lt;/b&gt;&lt;br&gt;ABC transporter ATP-binding protein&lt;br&gt;Location: 1671483 - 1672211" locus_tag="ISF26_RS08165" class="clusterblast-orf" id="dummy-2_h2_9_29"  />
</g>
<g id="a2_0030"  >
<polygon points="628,85 633,80 639,80 639,90 633,90 628,85 " style="fill:white; stroke-width:1; stroke:black; " description="&lt;b&gt;ISF26_RS08170&lt;/b&gt;&lt;br&gt;HlyD family efflux transporter periplasmic adaptor subunit&lt;br&gt;Location: 1672243 - 1673496" locus_tag="ISF26_RS08170" class="clusterblast-orf" id="dummy-2_h2_9_30"  />
</g>
<g id="a2_0031"  >
<polygon points="640,85 645,80 647,80 647,90 645,90 640,85 " style="fill:white; stroke-width:1; stroke:black; " description="&lt;b&gt;ISF26_RS08175&lt;/b&gt;&lt;br&gt;hypothetical protein&lt;br&gt;Location: 1673540 - 1674310" locus_tag="ISF26_RS08175" class="clusterblast-orf" id="dummy-2_h2_9_31"  />
</g>
<g id="a2_0032"  >
<polygon points="650,90 678,90 683,85 678,80 650,80 650,90 " style="fill:white; stroke-width:1; stroke:black; " description="&lt;b&gt;ISF26_RS08180&lt;/b&gt;&lt;br&gt;NB-ARC domain-containing protein&lt;br&gt;Location: 1674608 - 1678186" locus_tag="ISF26_RS08180" class="clusterblast-orf" id="dummy-2_h2_9_32"  />
</g>
<g id="a2_0033"  >
<polygon points="684,90 684,90 689,85 684,80 684,80 684,90 " style="fill:white; stroke-width:1; stroke:black; " description="&lt;b&gt;ISF26_RS08185&lt;/b&gt;&lt;br&gt;MarR family transcriptional regulator&lt;br&gt;Location: 1678297 - 1678806" locus_tag="ISF26_RS08185" class="clusterblast-orf" id="dummy-2_h2_9_33"  />
</g>
<g id="a2_0034"  >
<polygon points="692,90 695,85 692,80 692,90 " style="fill:white; stroke-width:1; stroke:black; " description="&lt;b&gt;ISF26_RS08190&lt;/b&gt;&lt;br&gt;hypothetical protein&lt;br&gt;Location: 1679183 - 1679455" locus_tag="ISF26_RS08190" class="clusterblast-orf" id="dummy-2_h2_9_34"  />
</g>
<g id="a2_0035"  >
<polygon points="695,90 702,90 707,85 702,80 695,80 695,90 " style="fill:white; stroke-width:1; stroke:black; " description="&lt;b&gt;ISF26_RS08195&lt;/b&gt;&lt;br&gt;beta-ketoacyl-[acyl-carrier-protein] synthase family protein&lt;br&gt;Location: 1679491 - 1680738" locus_tag="ISF26_RS08195" class="clusterblast-orf" id="dummy-2_h2_9_35"  />
</g>
<g id="a2_0036"  >
<polygon points="706,90 712,90 717,85 712,80 706,80 706,90 " style="fill:white; stroke-width:1; stroke:black; " description="&lt;b&gt;ISF26_RS08200&lt;/b&gt;&lt;br&gt;beta-ketoacyl synthase N-terminal-like domain-containing protein&lt;br&gt;Location: 1680731 - 1681906" locus_tag="ISF26_RS08200" class="clusterblast-orf" id="dummy-2_h2_9_36"  />
</g>
<g id="a2_0037"  >
<polygon points="719,85 724,80 728,80 728,90 724,90 719,85 " style="fill:white; stroke-width:1; stroke:black; " description="&lt;b&gt;ISF26_RS08205&lt;/b&gt;&lt;br&gt;bifunctional riboflavin kinase/FAD synthetase&lt;br&gt;Location: 1682132 - 1683040" locus_tag="ISF26_RS08205" class="clusterblast-orf" id="dummy-2_h2_9_37"  />
</g>
<g id="a2_0038"  >
<polygon points="731,90 745,90 750,85 745,80 731,80 731,90 " style="fill:white; stroke-width:1; stroke:black; " description="&lt;b&gt;ISF26_RS08210&lt;/b&gt;&lt;br&gt;NAD(P)H-quinone oxidoreductase subunit 5&lt;br&gt;Location: 1683345 - 1685420" locus_tag="ISF26_RS08210" class="clusterblast-orf" id="dummy-2_h2_9_38"  />
</g>
<g id="a2_0039"  >
<polygon points="750,90 760,90 765,85 760,80 750,80 750,90 " style="fill:white; stroke-width:1; stroke:black; " description="&lt;b&gt;ISF26_RS08215&lt;/b&gt;&lt;br&gt;NAD(P)H-quinone oxidoreductase subunit 4&lt;br&gt;Location: 1685435 - 1687006" locus_tag="ISF26_RS08215" class="clusterblast-orf" id="dummy-2_h2_9_39"  />
</g>
<g id="a2_0040"  >
<polygon points="768,90 775,90 780,85 775,80 768,80 768,90 " style="fill:white; stroke-width:1; stroke:black; " description="&lt;b&gt;ISF26_RS08220&lt;/b&gt;&lt;br&gt;sigma-70 family RNA polymerase sigma factor&lt;br&gt;Location: 1687414 - 1688601" locus_tag="ISF26_RS08220" class="clusterblast-orf" id="dummy-2_h2_9_40"  />
</g>
</svg>
