<svg xmlns="http://www.w3.org/2000/svg" xmlns:xlink="http://www.w3.org/1999/xlink" version="1.1" x="0" y="0" height="350" width="800" viewBox="0 0 800 350" preserveAspectRatio="none"  >
<g label="Query sequence" class="clusterblast-cluster"  >
<text x="5" y="20" class="clusterblast-acc"  >
Query sequence</text>
<line x1="10" y1="35" x2="778.0" y2="35" style="stroke-width:1; stroke:grey; "  />
<polygon points="183,35 188,30 202,30 202,40 188,40 183,35 " style="fill:#d81515; stroke-width:1; stroke:black; " description="&lt;b&gt;input.path1.gene1627&lt;/b&gt;&lt;br&gt;input.path1.gene1627&lt;br&gt;Location: 7787878 - 7789630" locus_tag="input.path1.gene1627" class="clusterblast-orf" id="knownclusterblast-6_q0_0_all"  />
<polygon points="217,40 219,35 217,30 217,40 " style="fill:white; stroke-width:1; stroke:black; " description="&lt;b&gt;input.path1.gene1628&lt;/b&gt;&lt;br&gt;input.path1.gene1628&lt;br&gt;Location: 7790941 - 7791181" locus_tag="input.path1.gene1628" class="clusterblast-orf" id="knownclusterblast-6_q1_0_all"  />
<polygon points="221,35 226,30 269,30 269,40 226,40 221,35 " style="fill:#d81515; stroke-width:1; stroke:black; " description="&lt;b&gt;input.path1.gene1629&lt;/b&gt;&lt;br&gt;input.path1.gene1629&lt;br&gt;Location: 7791297 - 7795685" locus_tag="input.path1.gene1629" class="clusterblast-orf" id="knownclusterblast-6_q2_0_all"  />
<polygon points="289,35 294,30 304,30 304,40 294,40 289,35 " style="fill:white; stroke-width:1; stroke:black; " description="&lt;b&gt;input.path1.gene1630&lt;/b&gt;&lt;br&gt;input.path1.gene1630&lt;br&gt;Location: 7797449 - 7798797" locus_tag="input.path1.gene1630" class="clusterblast-orf" id="knownclusterblast-6_q3_0_all"  />
<polygon points="521,40 528,40 533,35 528,30 521,30 521,40 " style="fill:#77d815; stroke-width:1; stroke:black; " description="&lt;b&gt;input.path1.gene1631&lt;/b&gt;&lt;br&gt;input.path1.gene1631&lt;br&gt;Location: 7818355 - 7819511" locus_tag="input.path1.gene1631" class="clusterblast-orf" id="knownclusterblast-6_q4_0_all"  />
<polygon points="558,40 566,40 571,35 566,30 558,30 558,40 " style="fill:#15d8d8; stroke-width:1; stroke:black; " description="&lt;b&gt;input.path1.gene1632&lt;/b&gt;&lt;br&gt;input.path1.gene1632&lt;br&gt;Location: 7821765 - 7822920" locus_tag="input.path1.gene1632" class="clusterblast-orf" id="knownclusterblast-6_q5_0_all"  />
<polygon points="574,35 579,30 597,30 597,40 579,40 574,35 " style="fill:#7715d8; stroke-width:1; stroke:black; " description="&lt;b&gt;input.path1.gene1633&lt;/b&gt;&lt;br&gt;input.path1.gene1633&lt;br&gt;Location: 7823172 - 7825203" locus_tag="input.path1.gene1633" class="clusterblast-orf" id="knownclusterblast-6_q6_0_all"  />
</g>
<g label="BGC0001241" description="BGC0001241_c1: ergotamine (29% of genes show similarity), Terpene" class="clusterblast-cluster"  >
<text x="5" y="70" class="clusterblast-acc"  >
<a xlink:href="https://mibig.secondarymetabolites.org/go/BGC0001241/1" target="_blank">BGC0001241</a>: ergotamine                                                                       (29% of genes show similarity), Terpene</text>
<line x1="10" y1="85" x2="778.0" y2="85" style="stroke-width:1; stroke:grey; "  />
</g>
<g id="a6_000"  >
<polygon points="0,90 7,90 12,85 7,80 0,80 0,90 " style="fill:white; stroke-width:1; stroke:black; " description="&lt;b&gt;AET79186.1&lt;/b&gt;&lt;br&gt;hypothetical protein&lt;br&gt;Location: 71064 - 69960" locus_tag="AET79186.1" class="clusterblast-orf" id="knownclusterblast-6_all_6_1_0"  />
</g>
<g id="a6_001"  >
<polygon points="42,85 46,80 46,90 42,85 " style="fill:white; stroke-width:1; stroke:black; " description="&lt;b&gt;AET79185.1&lt;/b&gt;&lt;br&gt;hypothetical protein&lt;br&gt;Location: 67226 - 66909" locus_tag="AET79185.1" class="clusterblast-orf" id="knownclusterblast-6_all_6_1_1"  />
</g>
<g id="a6_002"  >
<polygon points="85,85 90,80 206,80 206,90 90,90 85,85 " style="fill:#d81515; stroke-width:1; stroke:black; " description="&lt;b&gt;AET79184.1&lt;/b&gt;&lt;br&gt;lysergyl peptide synthetase subunit 1&lt;br&gt;Location: 63381 - 52447&lt;br&gt;&lt;br&gt;&lt;b&gt;BlastP hit with input.path1.gene1627&lt;/b&gt;&lt;br&gt;Percentage identity: 52&lt;br&gt;Percentage coverage: 101&lt;br&gt;BLAST bit score: 591&lt;br&gt;E-value: 5.32e-189&lt;br&gt;&lt;br&gt;&lt;b&gt;BlastP hit with input.path1.gene1629&lt;/b&gt;&lt;br&gt;Percentage identity: 49&lt;br&gt;Percentage coverage: 105&lt;br&gt;BLAST bit score: 1310&lt;br&gt;E-value: 0.0" locus_tag="AET79184.1" class="clusterblast-orf" id="knownclusterblast-6_all_6_1_2"  />
</g>
<g id="a6_003"  >
<polygon points="248,85 253,80 369,80 369,90 253,90 248,85 " style="fill:#d81515; stroke-width:1; stroke:black; " description="&lt;b&gt;AET79183.1&lt;/b&gt;&lt;br&gt;lysergyl peptide synthetase subunit 1&lt;br&gt;Location: 48636 - 37705&lt;br&gt;&lt;br&gt;&lt;b&gt;BlastP hit with input.path1.gene1627&lt;/b&gt;&lt;br&gt;Percentage identity: 51&lt;br&gt;Percentage coverage: 101&lt;br&gt;BLAST bit score: 589&lt;br&gt;E-value: 2.48e-188&lt;br&gt;&lt;br&gt;&lt;b&gt;BlastP hit with input.path1.gene1629&lt;/b&gt;&lt;br&gt;Percentage identity: 50&lt;br&gt;Percentage coverage: 105&lt;br&gt;BLAST bit score: 1327&lt;br&gt;E-value: 0.0" locus_tag="AET79183.1" class="clusterblast-orf" id="knownclusterblast-6_all_6_1_3"  />
</g>
<g id="a6_004"  >
<polygon points="378,90 384,90 389,85 384,80 378,80 378,90 " style="fill:white; stroke-width:1; stroke:black; " description="&lt;b&gt;AET79182.1&lt;/b&gt;&lt;br&gt;putative oxygenase&lt;br&gt;Location: 36891 - 35947" locus_tag="AET79182.1" class="clusterblast-orf" id="knownclusterblast-6_all_6_1_4"  />
</g>
<g id="a6_005"  >
<polygon points="404,85 409,80 421,80 421,90 409,90 404,85 " style="fill:#7715d8; stroke-width:1; stroke:black; " description="&lt;b&gt;AET79188.1&lt;/b&gt;&lt;br&gt;dimethylallyl tryptophan synthase&lt;br&gt;Location: 34554 - 33089&lt;br&gt;&lt;br&gt;&lt;b&gt;BlastP hit with input.path1.gene1633&lt;/b&gt;&lt;br&gt;Percentage identity: 65&lt;br&gt;Percentage coverage: 99&lt;br&gt;BLAST bit score: 385&lt;br&gt;E-value: 3.53e-133" locus_tag="AET79188.1" class="clusterblast-orf" id="knownclusterblast-6_all_6_1_5"  />
</g>
<g id="a6_006"  >
<polygon points="428,90 435,90 440,85 435,80 428,80 428,90 " style="fill:white; stroke-width:1; stroke:black; " description="&lt;b&gt;AET79181.1&lt;/b&gt;&lt;br&gt;agroclavine dehydrogenase&lt;br&gt;Location: 32431 - 31353" locus_tag="AET79181.1" class="clusterblast-orf" id="knownclusterblast-6_all_6_1_6"  />
</g>
<g id="a6_007"  >
<polygon points="444,85 449,80 456,80 456,90 449,90 444,85 " style="fill:white; stroke-width:1; stroke:black; " description="&lt;b&gt;AET79190.1&lt;/b&gt;&lt;br&gt;dimethylallyltryptophan N-methyltransferase&lt;br&gt;Location: 30993 - 29844" locus_tag="AET79190.1" class="clusterblast-orf" id="knownclusterblast-6_all_6_1_7"  />
</g>
<g id="a6_008"  >
<polygon points="460,85 465,80 482,80 482,90 465,90 460,85 " style="fill:white; stroke-width:1; stroke:black; " description="&lt;b&gt;AET79192.1&lt;/b&gt;&lt;br&gt;chanoclavine-I synthase oxidoreductase&lt;br&gt;Location: 29490 - 27587" locus_tag="AET79192.1" class="clusterblast-orf" id="knownclusterblast-6_all_6_1_8"  />
</g>
<g id="a6_009"  >
<polygon points="486,90 490,90 495,85 490,80 486,80 486,90 " style="fill:white; stroke-width:1; stroke:black; " description="&lt;b&gt;AET79189.1&lt;/b&gt;&lt;br&gt;chanoclavine-I dehydrogenase&lt;br&gt;Location: 27179 - 26331" locus_tag="AET79189.1" class="clusterblast-orf" id="knownclusterblast-6_all_6_1_9"  />
</g>
<g id="a6_0010"  >
<polygon points="504,90 515,90 520,85 515,80 504,80 504,90 " style="fill:#77d815; stroke-width:1; stroke:black; " description="&lt;b&gt;AET79180.1&lt;/b&gt;&lt;br&gt;chanoclavine synthase catalase protein&lt;br&gt;Location: 25602 - 24095&lt;br&gt;&lt;br&gt;&lt;b&gt;BlastP hit with input.path1.gene1631&lt;/b&gt;&lt;br&gt;Percentage identity: 72&lt;br&gt;Percentage coverage: 107&lt;br&gt;BLAST bit score: 390&lt;br&gt;E-value: 5.94e-136" locus_tag="AET79180.1" class="clusterblast-orf" id="knownclusterblast-6_all_6_1_10"  />
</g>
<g id="a6_0011"  >
<polygon points="528,90 546,90 551,85 546,80 528,80 528,90 " style="fill:#15d8d8; stroke-width:1; stroke:black; " description="&lt;b&gt;AET79191.1&lt;/b&gt;&lt;br&gt;elymoclavine monooxygenase&lt;br&gt;Location: 23435 - 21324&lt;br&gt;&lt;br&gt;&lt;b&gt;BlastP hit with input.path1.gene1632&lt;/b&gt;&lt;br&gt;Percentage identity: 59&lt;br&gt;Percentage coverage: 113&lt;br&gt;BLAST bit score: 335&lt;br&gt;E-value: 1.87e-113" locus_tag="AET79191.1" class="clusterblast-orf" id="knownclusterblast-6_all_6_1_11"  />
</g>
<g id="a6_0012"  >
<polygon points="555,85 560,80 599,80 599,90 560,90 555,85 " style="fill:white; stroke-width:1; stroke:black; " description="&lt;b&gt;AET79179.1&lt;/b&gt;&lt;br&gt;lysergyl peptide synthetase subunit 2&lt;br&gt;Location: 21003 - 17028" locus_tag="AET79179.1" class="clusterblast-orf" id="knownclusterblast-6_all_6_1_12"  />
</g>
<g id="a6_0013"  >
<polygon points="605,90 612,90 617,85 612,80 605,80 605,90 " style="fill:white; stroke-width:1; stroke:black; " description="&lt;b&gt;AET79178.1&lt;/b&gt;&lt;br&gt;chanoclavine-I aldehyde oxidoreductase&lt;br&gt;Location: 16483 - 15341" locus_tag="AET79178.1" class="clusterblast-orf" id="knownclusterblast-6_all_6_1_13"  />
</g>
<g id="a6_0014"  >
<polygon points="629,90 684,90 689,85 684,80 629,80 629,90 " style="fill:white; stroke-width:1; stroke:black; " description="&lt;b&gt;AET79177.1&lt;/b&gt;&lt;br&gt;lysergyl peptide synthetase subunit 3&lt;br&gt;Location: 14264 - 8839" locus_tag="AET79177.1" class="clusterblast-orf" id="knownclusterblast-6_all_6_1_14"  />
</g>
<g id="a6_0015"  >
<polygon points="696,85 701,80 714,80 714,90 701,90 696,85 " style="fill:white; stroke-width:1; stroke:black; " description="&lt;b&gt;AET79176.1&lt;/b&gt;&lt;br&gt;hypothetical protein&lt;br&gt;Location: 8245 - 6589" locus_tag="AET79176.1" class="clusterblast-orf" id="knownclusterblast-6_all_6_1_15"  />
</g>
<g id="a6_0016"  >
<polygon points="751,85 756,80 780,80 780,90 756,90 751,85 " style="fill:white; stroke-width:1; stroke:black; " description="&lt;b&gt;AET79187.1&lt;/b&gt;&lt;br&gt;3-isopropylmalate dehydratase&lt;br&gt;Location: 3321 - 708" locus_tag="AET79187.1" class="clusterblast-orf" id="knownclusterblast-6_all_6_1_16"  />
</g>
<g label="BGC0002232" description="BGC0002232_c1: ergotamine (38% of genes show similarity), Alkaloid" class="clusterblast-cluster"  >
<text x="5" y="120" class="clusterblast-acc"  >
<a xlink:href="https://mibig.secondarymetabolites.org/go/BGC0002232/1" target="_blank">BGC0002232</a>: ergotamine                                                                       (38% of genes show similarity), Alkaloid</text>
<line x1="10" y1="135" x2="778.0" y2="135" style="stroke-width:1; stroke:grey; "  />
</g>
<g id="a6_000"  >
<polygon points="87,135 92,130 208,130 208,140 92,140 87,135 " style="fill:#d81515; stroke-width:1; stroke:black; " description="&lt;b&gt;CPUR_04073&lt;/b&gt;&lt;br&gt;non-ribosomal peptide synthetase&lt;br&gt;Location: 1054 - 11988&lt;br&gt;&lt;br&gt;&lt;b&gt;BlastP hit with input.path1.gene1627&lt;/b&gt;&lt;br&gt;Percentage identity: 52&lt;br&gt;Percentage coverage: 101&lt;br&gt;BLAST bit score: 591&lt;br&gt;E-value: 5.32e-189&lt;br&gt;&lt;br&gt;&lt;b&gt;BlastP hit with input.path1.gene1629&lt;/b&gt;&lt;br&gt;Percentage identity: 49&lt;br&gt;Percentage coverage: 105&lt;br&gt;BLAST bit score: 1310&lt;br&gt;E-value: 0.0" locus_tag="CPUR_04073" class="clusterblast-orf" id="knownclusterblast-6_all_6_2_0"  />
</g>
<g id="a6_001"  >
<polygon points="251,135 256,130 372,130 372,140 256,140 251,135 " style="fill:#d81515; stroke-width:1; stroke:black; " description="&lt;b&gt;CPUR_04074&lt;/b&gt;&lt;br&gt;non-ribosomal peptide synthetase&lt;br&gt;Location: 15799 - 26730&lt;br&gt;&lt;br&gt;&lt;b&gt;BlastP hit with input.path1.gene1627&lt;/b&gt;&lt;br&gt;Percentage identity: 51&lt;br&gt;Percentage coverage: 101&lt;br&gt;BLAST bit score: 589&lt;br&gt;E-value: 2.48e-188&lt;br&gt;&lt;br&gt;&lt;b&gt;BlastP hit with input.path1.gene1629&lt;/b&gt;&lt;br&gt;Percentage identity: 50&lt;br&gt;Percentage coverage: 105&lt;br&gt;BLAST bit score: 1327&lt;br&gt;E-value: 0.0" locus_tag="CPUR_04074" class="clusterblast-orf" id="knownclusterblast-6_all_6_2_1"  />
</g>
<g id="a6_002"  >
<polygon points="381,140 386,140 391,135 386,130 381,130 381,140 " style="fill:white; stroke-width:1; stroke:black; " description="&lt;b&gt;CPUR_04075&lt;/b&gt;&lt;br&gt;uncharacterized protein&lt;br&gt;Location: 27544 - 28488" locus_tag="CPUR_04075" class="clusterblast-orf" id="knownclusterblast-6_all_6_2_2"  />
</g>
<g id="a6_003"  >
<polygon points="407,135 412,130 423,130 423,140 412,140 407,135 " style="fill:#7715d8; stroke-width:1; stroke:black; " description="&lt;b&gt;CPUR_04076&lt;/b&gt;&lt;br&gt;uncharacterized protein&lt;br&gt;Location: 29881 - 31346&lt;br&gt;&lt;br&gt;&lt;b&gt;BlastP hit with input.path1.gene1633&lt;/b&gt;&lt;br&gt;Percentage identity: 65&lt;br&gt;Percentage coverage: 99&lt;br&gt;BLAST bit score: 385&lt;br&gt;E-value: 3.53e-133" locus_tag="CPUR_04076" class="clusterblast-orf" id="knownclusterblast-6_all_6_2_3"  />
</g>
<g id="a6_004"  >
<polygon points="430,140 437,140 442,135 437,130 430,130 430,140 " style="fill:white; stroke-width:1; stroke:black; " description="&lt;b&gt;CPUR_04077&lt;/b&gt;&lt;br&gt;uncharacterized protein&lt;br&gt;Location: 32004 - 33082" locus_tag="CPUR_04077" class="clusterblast-orf" id="knownclusterblast-6_all_6_2_4"  />
</g>
<g id="a6_005"  >
<polygon points="446,135 451,130 459,130 459,140 451,140 446,135 " style="fill:white; stroke-width:1; stroke:black; " description="&lt;b&gt;CPUR_04078&lt;/b&gt;&lt;br&gt;uncharacterized protein&lt;br&gt;Location: 33442 - 34591" locus_tag="CPUR_04078" class="clusterblast-orf" id="knownclusterblast-6_all_6_2_5"  />
</g>
<g id="a6_006"  >
<polygon points="463,135 468,130 480,130 480,140 468,140 463,135 " style="fill:white; stroke-width:1; stroke:black; " description="&lt;b&gt;CPUR_04079&lt;/b&gt;&lt;br&gt;probable isoamyl alcohol oxidase&lt;br&gt;Location: 34945 - 36447" locus_tag="CPUR_04079" class="clusterblast-orf" id="knownclusterblast-6_all_6_2_6"  />
</g>
<g id="a6_007"  >
<polygon points="489,140 493,140 498,135 493,130 489,130 489,140 " style="fill:white; stroke-width:1; stroke:black; " description="&lt;b&gt;CPUR_04080&lt;/b&gt;&lt;br&gt;related to D-arabinitol 2-dehydrogenase&lt;br&gt;Location: 37256 - 38104" locus_tag="CPUR_04080" class="clusterblast-orf" id="knownclusterblast-6_all_6_2_7"  />
</g>
<g id="a6_008"  >
<polygon points="506,140 518,140 523,135 518,130 506,130 506,140 " style="fill:#77d815; stroke-width:1; stroke:black; " description="&lt;b&gt;CPUR_04081&lt;/b&gt;&lt;br&gt;probable catalase isozyme P&lt;br&gt;Location: 38833 - 40340&lt;br&gt;&lt;br&gt;&lt;b&gt;BlastP hit with input.path1.gene1631&lt;/b&gt;&lt;br&gt;Percentage identity: 72&lt;br&gt;Percentage coverage: 107&lt;br&gt;BLAST bit score: 390&lt;br&gt;E-value: 5.94e-136" locus_tag="CPUR_04081" class="clusterblast-orf" id="knownclusterblast-6_all_6_2_8"  />
</g>
<g id="a6_009"  >
<polygon points="530,140 548,140 553,135 548,130 530,130 530,140 " style="fill:#15d8d8; stroke-width:1; stroke:black; " description="&lt;b&gt;CPUR_04082&lt;/b&gt;&lt;br&gt;related to trichodiene oxygenase cytochrome P450&lt;br&gt;Location: 41000 - 43111&lt;br&gt;&lt;br&gt;&lt;b&gt;BlastP hit with input.path1.gene1632&lt;/b&gt;&lt;br&gt;Percentage identity: 59&lt;br&gt;Percentage coverage: 113&lt;br&gt;BLAST bit score: 335&lt;br&gt;E-value: 1.87e-113" locus_tag="CPUR_04082" class="clusterblast-orf" id="knownclusterblast-6_all_6_2_9"  />
</g>
<g id="a6_0010"  >
<polygon points="557,135 562,130 601,130 601,140 562,140 557,135 " style="fill:white; stroke-width:1; stroke:black; " description="&lt;b&gt;CPUR_04083&lt;/b&gt;&lt;br&gt;related to non-ribosomal peptide synthetase&lt;br&gt;Location: 43432 - 47407" locus_tag="CPUR_04083" class="clusterblast-orf" id="knownclusterblast-6_all_6_2_10"  />
</g>
<g id="a6_0011"  >
<polygon points="607,140 615,140 620,135 615,130 607,130 607,140 " style="fill:white; stroke-width:1; stroke:black; " description="&lt;b&gt;CPUR_04084&lt;/b&gt;&lt;br&gt;probable NADPH2 dehydrogenase chain OYE2&lt;br&gt;Location: 47952 - 49094" locus_tag="CPUR_04084" class="clusterblast-orf" id="knownclusterblast-6_all_6_2_11"  />
</g>
<g id="a6_0012"  >
<polygon points="632,140 687,140 692,135 687,130 632,130 632,140 " style="fill:white; stroke-width:1; stroke:black; " description="&lt;b&gt;CPUR_04085&lt;/b&gt;&lt;br&gt;related to AM-toxin synthetase (AMT)&lt;br&gt;Location: 50171 - 55596" locus_tag="CPUR_04085" class="clusterblast-orf" id="knownclusterblast-6_all_6_2_12"  />
</g>
<g label="BGC0001573" description="BGC0001573_c1: dihydrolysergic acid (50% of genes show similarity), Alkaloid" class="clusterblast-cluster"  >
<text x="5" y="170" class="clusterblast-acc"  >
<a xlink:href="https://mibig.secondarymetabolites.org/go/BGC0001573/1" target="_blank">BGC0001573</a>: dihydrolysergic acid                                                             (50% of genes show similarity), Alkaloid</text>
<line x1="10" y1="185" x2="778.0" y2="185" style="stroke-width:1; stroke:grey; "  />
</g>
<g id="a6_000"  >
<polygon points="255,190 266,190 271,185 266,180 255,180 255,190 " style="fill:#77d815; stroke-width:1; stroke:black; " description="&lt;b&gt;ARB50203.1&lt;/b&gt;&lt;br&gt;chanoclavine synthase catalase protein&lt;br&gt;Location: 1078 - 2609&lt;br&gt;&lt;br&gt;&lt;b&gt;BlastP hit with input.path1.gene1631&lt;/b&gt;&lt;br&gt;Percentage identity: 70&lt;br&gt;Percentage coverage: 107&lt;br&gt;BLAST bit score: 377&lt;br&gt;E-value: 1.05e-130" locus_tag="ARB50203.1" class="clusterblast-orf" id="knownclusterblast-6_all_6_3_0"  />
</g>
<g id="a6_001"  >
<polygon points="281,190 300,190 305,185 300,180 281,180 281,190 " style="fill:#15d8d8; stroke-width:1; stroke:black; " description="&lt;b&gt;ARB50204.1&lt;/b&gt;&lt;br&gt;clavine oxidase&lt;br&gt;Location: 3435 - 5669&lt;br&gt;&lt;br&gt;&lt;b&gt;BlastP hit with input.path1.gene1632&lt;/b&gt;&lt;br&gt;Percentage identity: 56&lt;br&gt;Percentage coverage: 111&lt;br&gt;BLAST bit score: 316&lt;br&gt;E-value: 6.64e-106" locus_tag="ARB50204.1" class="clusterblast-orf" id="knownclusterblast-6_all_6_3_1"  />
</g>
<g id="a6_002"  >
<polygon points="311,185 316,180 324,180 324,190 316,190 311,185 " style="fill:white; stroke-width:1; stroke:black; " description="&lt;b&gt;ARB50205.1&lt;/b&gt;&lt;br&gt;chanoclavine cyclase oxidoreducatase&lt;br&gt;Location: 6154 - 7308" locus_tag="ARB50205.1" class="clusterblast-orf" id="knownclusterblast-6_all_6_3_2"  />
</g>
<g id="a6_003"  >
<polygon points="329,190 369,190 374,185 369,180 329,180 329,190 " style="fill:white; stroke-width:1; stroke:black; " description="&lt;b&gt;ARB50206.1&lt;/b&gt;&lt;br&gt;lysergyl peptide synthetase 2&lt;br&gt;Location: 7780 - 11900" locus_tag="ARB50206.1" class="clusterblast-orf" id="knownclusterblast-6_all_6_3_3"  />
</g>
<g id="a6_004"  >
<polygon points="381,185 386,180 503,180 503,190 386,190 381,185 " style="fill:#d81515; stroke-width:1; stroke:black; " description="&lt;b&gt;ARB50207.1&lt;/b&gt;&lt;br&gt;lysergyl peptide synthetase 21&lt;br&gt;Location: 12510 - 23494&lt;br&gt;&lt;br&gt;&lt;b&gt;BlastP hit with input.path1.gene1627&lt;/b&gt;&lt;br&gt;Percentage identity: 49&lt;br&gt;Percentage coverage: 100&lt;br&gt;BLAST bit score: 547&lt;br&gt;E-value: 7.11e-174&lt;br&gt;&lt;br&gt;&lt;b&gt;BlastP hit with input.path1.gene1629&lt;/b&gt;&lt;br&gt;Percentage identity: 48&lt;br&gt;Percentage coverage: 106&lt;br&gt;BLAST bit score: 1271&lt;br&gt;E-value: 0.0" locus_tag="ARB50207.1" class="clusterblast-orf" id="knownclusterblast-6_all_6_3_4"  />
</g>
<g id="a6_005"  >
<polygon points="514,190 520,190 525,185 520,180 514,180 514,190 " style="fill:white; stroke-width:1; stroke:black; " description="&lt;b&gt;ARB50208.1&lt;/b&gt;&lt;br&gt;putative dioxygenase&lt;br&gt;Location: 24518 - 25432" locus_tag="ARB50208.1" class="clusterblast-orf" id="knownclusterblast-6_all_6_3_5"  />
</g>
<g label="BGC0001267" description="BGC0001267_c1: lysergic acid/elymoclavine (23% of genes show similarity), Terpene" class="clusterblast-cluster"  >
<text x="5" y="220" class="clusterblast-acc"  >
<a xlink:href="https://mibig.secondarymetabolites.org/go/BGC0001267/1" target="_blank">BGC0001267</a>: lysergic acid/elymoclavine                                                       (23% of genes show similarity), Terpene</text>
<line x1="10" y1="235" x2="778.0" y2="235" style="stroke-width:1; stroke:grey; "  />
</g>
<g id="a6_000"  >
<polygon points="193,235 198,230 210,230 210,240 198,240 193,235 " style="fill:#7715d8; stroke-width:1; stroke:black; " description="&lt;b&gt;ABV57826.1&lt;/b&gt;&lt;br&gt;dimethylallyltryptophan synthase&lt;br&gt;Location: 35442 - 33939&lt;br&gt;&lt;br&gt;&lt;b&gt;BlastP hit with input.path1.gene1633&lt;/b&gt;&lt;br&gt;Percentage identity: 59&lt;br&gt;Percentage coverage: 100&lt;br&gt;BLAST bit score: 346&lt;br&gt;E-value: 1.21e-117" locus_tag="ABV57826.1" class="clusterblast-orf" id="knownclusterblast-6_all_6_4_0"  />
</g>
<g id="a6_001"  >
<polygon points="221,240 227,240 232,235 227,230 221,230 221,240 " style="fill:white; stroke-width:1; stroke:black; " description="&lt;b&gt;ABV57825.1&lt;/b&gt;&lt;br&gt;ergot alkaloid biosynthetic protein A&lt;br&gt;Location: 32946 - 31926" locus_tag="ABV57825.1" class="clusterblast-orf" id="knownclusterblast-6_all_6_4_1"  />
</g>
<g id="a6_002"  >
<polygon points="232,235 237,230 245,230 245,240 237,240 232,235 " style="fill:white; stroke-width:1; stroke:black; " description="&lt;b&gt;ABV57824.1&lt;/b&gt;&lt;br&gt;ergot alkaloid biosynthetic protein B&lt;br&gt;Location: 31905 - 30724" locus_tag="ABV57824.1" class="clusterblast-orf" id="knownclusterblast-6_all_6_4_2"  />
</g>
<g id="a6_003"  >
<polygon points="249,235 254,230 272,230 272,240 254,240 249,235 " style="fill:white; stroke-width:1; stroke:black; " description="&lt;b&gt;ABV57823.1&lt;/b&gt;&lt;br&gt;oxidoreductase&lt;br&gt;Location: 30389 - 28362" locus_tag="ABV57823.1" class="clusterblast-orf" id="knownclusterblast-6_all_6_4_3"  />
</g>
<g id="a6_004"  >
<polygon points="278,240 282,240 287,235 282,230 278,230 278,240 " style="fill:white; stroke-width:1; stroke:black; " description="&lt;b&gt;ABV57822.1&lt;/b&gt;&lt;br&gt;oxidoreductase&lt;br&gt;Location: 27815 - 26935" locus_tag="ABV57822.1" class="clusterblast-orf" id="knownclusterblast-6_all_6_4_4"  />
</g>
<g id="a6_005"  >
<polygon points="296,240 309,240 314,235 309,230 296,230 296,240 " style="fill:#77d815; stroke-width:1; stroke:black; " description="&lt;b&gt;ABV57821.1&lt;/b&gt;&lt;br&gt;putative catalase&lt;br&gt;Location: 26116 - 24559&lt;br&gt;&lt;br&gt;&lt;b&gt;BlastP hit with input.path1.gene1631&lt;/b&gt;&lt;br&gt;Percentage identity: 71&lt;br&gt;Percentage coverage: 107&lt;br&gt;BLAST bit score: 386&lt;br&gt;E-value: 4.74e-134" locus_tag="ABV57821.1" class="clusterblast-orf" id="knownclusterblast-6_all_6_4_5"  />
</g>
<g id="a6_006"  >
<polygon points="320,240 340,240 345,235 340,230 320,230 320,240 " style="fill:#15d8d8; stroke-width:1; stroke:black; " description="&lt;b&gt;ABV57820.1&lt;/b&gt;&lt;br&gt;cytochrome P450 monooxygenase&lt;br&gt;Location: 24035 - 21766&lt;br&gt;&lt;br&gt;&lt;b&gt;BlastP hit with input.path1.gene1632&lt;/b&gt;&lt;br&gt;Percentage identity: 53&lt;br&gt;Percentage coverage: 112&lt;br&gt;BLAST bit score: 282&lt;br&gt;E-value: 1.24e-92" locus_tag="ABV57820.1" class="clusterblast-orf" id="knownclusterblast-6_all_6_4_6"  />
</g>
<g id="a6_007"  >
<polygon points="355,235 360,230 368,230 368,240 360,240 355,235 " style="fill:white; stroke-width:1; stroke:black; " description="&lt;b&gt;ABV57819.1&lt;/b&gt;&lt;br&gt;putative oxidase&lt;br&gt;Location: 20822 - 19674" locus_tag="ABV57819.1" class="clusterblast-orf" id="knownclusterblast-6_all_6_4_7"  />
</g>
<g id="a6_008"  >
<polygon points="415,240 441,240 446,235 441,230 415,230 415,240 " style="fill:white; stroke-width:1; stroke:black; " description="&lt;b&gt;ABV57818.1&lt;/b&gt;&lt;br&gt;hypothetical protein&lt;br&gt;Location: 15440 - 12668" locus_tag="ABV57818.1" class="clusterblast-orf" id="knownclusterblast-6_all_6_4_8"  />
</g>
<g id="a6_009"  >
<polygon points="480,240 485,240 490,235 485,230 480,230 480,240 " style="fill:white; stroke-width:1; stroke:black; " description="&lt;b&gt;ABV57817.1&lt;/b&gt;&lt;br&gt;hypothetical protein&lt;br&gt;Location: 9543 - 8657" locus_tag="ABV57817.1" class="clusterblast-orf" id="knownclusterblast-6_all_6_4_9"  />
</g>
<g id="a6_0010"  >
<polygon points="492,235 497,230 505,230 505,240 497,240 492,235 " style="fill:white; stroke-width:1; stroke:black; " description="&lt;b&gt;ABV57816.1&lt;/b&gt;&lt;br&gt;hypothetical protein&lt;br&gt;Location: 8444 - 7314" locus_tag="ABV57816.1" class="clusterblast-orf" id="knownclusterblast-6_all_6_4_10"  />
</g>
<g id="a6_0011"  >
<polygon points="514,240 525,240 530,235 525,230 514,230 514,240 " style="fill:white; stroke-width:1; stroke:black; " description="&lt;b&gt;ABV57815.1&lt;/b&gt;&lt;br&gt;hypothetical protein&lt;br&gt;Location: 6525 - 5035" locus_tag="ABV57815.1" class="clusterblast-orf" id="knownclusterblast-6_all_6_4_11"  />
</g>
<g id="a6_0012"  >
<polygon points="574,240 581,240 586,235 581,230 574,230 574,240 " style="fill:white; stroke-width:1; stroke:black; " description="&lt;b&gt;ABV57814.1&lt;/b&gt;&lt;br&gt;hypothetical protein&lt;br&gt;Location: 1080 - 4" locus_tag="ABV57814.1" class="clusterblast-orf" id="knownclusterblast-6_all_6_4_12"  />
</g>
<g label="BGC0000811" description="BGC0000811_c1: fumigaclavine C (18% of genes show similarity), Alkaloid" class="clusterblast-cluster"  >
<text x="5" y="270" class="clusterblast-acc"  >
<a xlink:href="https://mibig.secondarymetabolites.org/go/BGC0000811/1" target="_blank">BGC0000811</a>: fumigaclavine C                                                                  (18% of genes show similarity), Alkaloid</text>
<line x1="10" y1="285" x2="778.0" y2="285" style="stroke-width:1; stroke:grey; "  />
</g>
<g id="a6_000"  >
<polygon points="267,285 272,280 279,280 279,290 272,290 267,285 " style="fill:white; stroke-width:1; stroke:black; " description="&lt;b&gt;AFUA_2G18060&lt;/b&gt;&lt;br&gt;conserved hypothetical protein&lt;br&gt;Location: 22152 - 21061" locus_tag="AFUA_2G18060" class="clusterblast-orf" id="knownclusterblast-6_all_6_5_0"  />
</g>
<g id="a6_001"  >
<polygon points="282,285 287,280 305,280 305,290 287,290 282,285 " style="fill:white; stroke-width:1; stroke:black; " description="&lt;b&gt;AFUA_2G18050&lt;/b&gt;&lt;br&gt;FAD binding oxidoreductase CpoX1&lt;br&gt;Location: 20804 - 18683" locus_tag="AFUA_2G18050" class="clusterblast-orf" id="knownclusterblast-6_all_6_5_1"  />
</g>
<g id="a6_002"  >
<polygon points="311,290 323,290 328,285 323,280 311,280 311,290 " style="fill:#7715d8; stroke-width:1; stroke:black; " description="&lt;b&gt;AFUA_2G18040&lt;/b&gt;&lt;br&gt;dimethylallyl tryptophan synthase FgaPT2&lt;br&gt;Location: 18182 - 16668&lt;br&gt;&lt;br&gt;&lt;b&gt;BlastP hit with input.path1.gene1633&lt;/b&gt;&lt;br&gt;Percentage identity: 61&lt;br&gt;Percentage coverage: 98&lt;br&gt;BLAST bit score: 367&lt;br&gt;E-value: 7.22e-126" locus_tag="AFUA_2G18040" class="clusterblast-orf" id="knownclusterblast-6_all_6_5_2"  />
</g>
<g id="a6_003"  >
<polygon points="339,290 352,290 357,285 352,280 339,280 339,290 " style="fill:#77d815; stroke-width:1; stroke:black; " description="&lt;b&gt;AFUA_2G18030&lt;/b&gt;&lt;br&gt;catalase Cat&lt;br&gt;Location: 15595 - 13976&lt;br&gt;&lt;br&gt;&lt;b&gt;BlastP hit with input.path1.gene1631&lt;/b&gt;&lt;br&gt;Percentage identity: 65&lt;br&gt;Percentage coverage: 107&lt;br&gt;BLAST bit score: 353&lt;br&gt;E-value: 1.23e-120" locus_tag="AFUA_2G18030" class="clusterblast-orf" id="knownclusterblast-6_all_6_5_3"  />
</g>
<g id="a6_004"  >
<polygon points="365,285 370,280 381,280 381,290 370,290 365,285 " style="fill:white; stroke-width:1; stroke:black; " description="&lt;b&gt;AFUA_2G18020&lt;/b&gt;&lt;br&gt;O-acetyltransferase, putative&lt;br&gt;Location: 13299 - 11815" locus_tag="AFUA_2G18020" class="clusterblast-orf" id="knownclusterblast-6_all_6_5_4"  />
</g>
<g id="a6_005"  >
<polygon points="391,285 396,280 412,280 412,290 396,290 391,285 " style="fill:white; stroke-width:1; stroke:black; " description="&lt;b&gt;AFUA_2G18010&lt;/b&gt;&lt;br&gt;cytochrome P450 monooxygenase, putative&lt;br&gt;Location: 10967 - 9076" locus_tag="AFUA_2G18010" class="clusterblast-orf" id="knownclusterblast-6_all_6_5_5"  />
</g>
<g id="a6_006"  >
<polygon points="419,285 424,280 428,280 428,290 424,290 419,285 " style="fill:white; stroke-width:1; stroke:black; " description="&lt;b&gt;AFUA_2G18000&lt;/b&gt;&lt;br&gt;short chain dehydrogenase/oxidoreductase CpoX2&lt;br&gt;Location: 8423 - 7571" locus_tag="AFUA_2G18000" class="clusterblast-orf" id="knownclusterblast-6_all_6_5_6"  />
</g>
<g id="a6_007"  >
<polygon points="436,290 447,290 452,285 447,280 436,280 436,290 " style="fill:white; stroke-width:1; stroke:black; " description="&lt;b&gt;AFUA_2G17990&lt;/b&gt;&lt;br&gt;dimethylallyl tryptophan synthase FgaPT1&lt;br&gt;Location: 6841 - 5477" locus_tag="AFUA_2G17990" class="clusterblast-orf" id="knownclusterblast-6_all_6_5_7"  />
</g>
<g id="a6_008"  >
<polygon points="457,290 467,290 472,285 467,280 457,280 457,290 " style="fill:white; stroke-width:1; stroke:black; " description="&lt;b&gt;AFUA_2G17980&lt;/b&gt;&lt;br&gt;cytochrome P450 monooxygenase, putative&lt;br&gt;Location: 4947 - 3608" locus_tag="AFUA_2G17980" class="clusterblast-orf" id="knownclusterblast-6_all_6_5_8"  />
</g>
<g id="a6_009"  >
<polygon points="480,285 485,280 491,280 491,290 485,290 480,285 " style="fill:white; stroke-width:1; stroke:black; " description="&lt;b&gt;AFUA_2G17970&lt;/b&gt;&lt;br&gt;ergot alkaloid biosynthetic protein A&lt;br&gt;Location: 2902 - 1919" locus_tag="AFUA_2G17970" class="clusterblast-orf" id="knownclusterblast-6_all_6_5_9"  />
</g>
<g id="a6_0010"  >
<polygon points="500,290 507,290 512,285 507,280 500,280 500,290 " style="fill:white; stroke-width:1; stroke:black; " description="&lt;b&gt;AFUA_2G17960&lt;/b&gt;&lt;br&gt;NADPH dehydrogenase Oye3, putative&lt;br&gt;Location: 1131 - 1" locus_tag="AFUA_2G17960" class="clusterblast-orf" id="knownclusterblast-6_all_6_5_10"  />
</g>
<g label="BGC0001205" description="BGC0001205_c1: communesin A/communesin B/communesin C/communesin D/communesin... (12% of genes show similarity), Polyketide" class="clusterblast-cluster"  >
<text x="5" y="320" class="clusterblast-acc"  >
<a xlink:href="https://mibig.secondarymetabolites.org/go/BGC0001205/1" target="_blank">BGC0001205</a>: communesin A/communesin B/communesin C/communesin D/communesin E/communesin G/communesin H (12% of genes show similarity), Polyketide</text>
<line x1="10" y1="335" x2="778.0" y2="335" style="stroke-width:1; stroke:grey; "  />
</g>
<g id="a6_000"  >
<polygon points="128,335 133,330 153,330 153,340 133,340 128,335 " style="fill:white; stroke-width:1; stroke:black; " description="&lt;b&gt;PEXP_030460&lt;/b&gt;&lt;br&gt;FAD linked oxidase, N-terminal&lt;br&gt;Location: 1 - 2260" locus_tag="PEXP_030460" class="clusterblast-orf" id="knownclusterblast-6_all_6_6_0"  />
</g>
<g id="a6_001"  >
<polygon points="165,340 175,340 180,335 175,330 165,330 165,340 " style="fill:white; stroke-width:1; stroke:black; " description="&lt;b&gt;PEXP_030470&lt;/b&gt;&lt;br&gt;Pyridoxal phosphate-dependent decarboxylase&lt;br&gt;Location: 3397 - 4761" locus_tag="PEXP_030470" class="clusterblast-orf" id="knownclusterblast-6_all_6_6_1"  />
</g>
<g id="a6_002"  >
<polygon points="188,335 193,330 208,330 208,340 193,340 188,335 " style="fill:white; stroke-width:1; stroke:black; " description="&lt;b&gt;PEXP_030480&lt;/b&gt;&lt;br&gt;Cytochrome P450&lt;br&gt;Location: 5426 - 7228" locus_tag="PEXP_030480" class="clusterblast-orf" id="knownclusterblast-6_all_6_6_2"  />
</g>
<g id="a6_003"  >
<polygon points="228,340 240,340 245,335 240,330 228,330 228,340 " style="fill:#77d815; stroke-width:1; stroke:black; " description="&lt;b&gt;PEXP_030490&lt;/b&gt;&lt;br&gt;Catalase, mono-functional, heme-containing&lt;br&gt;Location: 9089 - 10544&lt;br&gt;&lt;br&gt;&lt;b&gt;BlastP hit with input.path1.gene1631&lt;/b&gt;&lt;br&gt;Percentage identity: 60&lt;br&gt;Percentage coverage: 108&lt;br&gt;BLAST bit score: 317&lt;br&gt;E-value: 3.7e-107" locus_tag="PEXP_030490" class="clusterblast-orf" id="knownclusterblast-6_all_6_6_3"  />
</g>
<g id="a6_004"  >
<polygon points="252,335 257,330 261,330 261,340 257,340 252,335 " style="fill:white; stroke-width:1; stroke:black; " description="&lt;b&gt;PEXP_030500&lt;/b&gt;&lt;br&gt;Methyltransferase type 11&lt;br&gt;Location: 11228 - 12058" locus_tag="PEXP_030500" class="clusterblast-orf" id="knownclusterblast-6_all_6_6_4"  />
</g>
<g id="a6_005"  >
<polygon points="279,340 291,340 296,335 291,330 279,330 279,340 " style="fill:#7715d8; stroke-width:1; stroke:black; " description="&lt;b&gt;PEXP_030510&lt;/b&gt;&lt;br&gt;Aromatic prenyltransferase, DMATS type&lt;br&gt;Location: 13673 - 15159&lt;br&gt;&lt;br&gt;&lt;b&gt;BlastP hit with input.path1.gene1633&lt;/b&gt;&lt;br&gt;Percentage identity: 53&lt;br&gt;Percentage coverage: 97&lt;br&gt;BLAST bit score: 312&lt;br&gt;E-value: 3.1e-104" locus_tag="PEXP_030510" class="clusterblast-orf" id="knownclusterblast-6_all_6_6_5"  />
</g>
<g id="a6_006"  >
<polygon points="311,335 316,330 333,330 333,340 316,340 311,335 " style="fill:white; stroke-width:1; stroke:black; " description="&lt;b&gt;PEXP_030520&lt;/b&gt;&lt;br&gt;AMP-dependent synthetase/ligase&lt;br&gt;Location: 16576 - 18521" locus_tag="PEXP_030520" class="clusterblast-orf" id="knownclusterblast-6_all_6_6_6"  />
</g>
<g id="a6_007"  >
<polygon points="343,335 348,330 351,330 351,340 348,340 343,335 " style="fill:white; stroke-width:1; stroke:black; " description="&lt;b&gt;PEXP_030530&lt;/b&gt;&lt;br&gt;Serine hydrolase FSH&lt;br&gt;Location: 19421 - 20149" locus_tag="PEXP_030530" class="clusterblast-orf" id="knownclusterblast-6_all_6_6_7"  />
</g>
<g id="a6_008"  >
<polygon points="363,340 442,340 447,335 442,330 363,330 363,340 " style="fill:white; stroke-width:1; stroke:black; " description="&lt;b&gt;PEXP_030540&lt;/b&gt;&lt;br&gt;Acyl transferase/acyl hydrolase/lysophospholipase&lt;br&gt;Location: 21257 - 28797" locus_tag="PEXP_030540" class="clusterblast-orf" id="knownclusterblast-6_all_6_6_8"  />
</g>
<g id="a6_009"  >
<polygon points="464,335 469,330 477,330 477,340 469,340 464,335 " style="fill:white; stroke-width:1; stroke:black; " description="&lt;b&gt;PEXP_030550&lt;/b&gt;&lt;br&gt;Phytanoyl-CoA dioxygenase&lt;br&gt;Location: 30380 - 31493" locus_tag="PEXP_030550" class="clusterblast-orf" id="knownclusterblast-6_all_6_6_9"  />
</g>
<g id="a6_0010"  >
<polygon points="488,335 493,330 503,330 503,340 493,340 488,335 " style="fill:white; stroke-width:1; stroke:black; " description="&lt;b&gt;PEXP_030560&lt;/b&gt;&lt;br&gt;Transferase&lt;br&gt;Location: 32499 - 33899" locus_tag="PEXP_030560" class="clusterblast-orf" id="knownclusterblast-6_all_6_6_10"  />
</g>
<g id="a6_0011"  >
<polygon points="517,335 522,330 538,330 538,340 522,340 517,335 " style="fill:white; stroke-width:1; stroke:black; " description="&lt;b&gt;PEXP_030570&lt;/b&gt;&lt;br&gt;Major facilitator superfamily domain, general substrate transporter&lt;br&gt;Location: 35129 - 37036" locus_tag="PEXP_030570" class="clusterblast-orf" id="knownclusterblast-6_all_6_6_11"  />
</g>
<g id="a6_0012"  >
<polygon points="543,340 554,340 559,335 554,330 543,330 543,340 " style="fill:white; stroke-width:1; stroke:black; " description="&lt;b&gt;PEXP_030580&lt;/b&gt;&lt;br&gt;Taurine catabolism dioxygenase TauD/TfdA&lt;br&gt;Location: 37457 - 38876" locus_tag="PEXP_030580" class="clusterblast-orf" id="knownclusterblast-6_all_6_6_12"  />
</g>
<g id="a6_0013"  >
<polygon points="559,335 564,330 600,330 600,340 564,340 559,335 " style="fill:white; stroke-width:1; stroke:black; " description="&lt;b&gt;PEXP_030590&lt;/b&gt;&lt;br&gt;Aldolase-type TIM barrel&lt;br&gt;Location: 38924 - 42606" locus_tag="PEXP_030590" class="clusterblast-orf" id="knownclusterblast-6_all_6_6_13"  />
</g>
<g id="a6_0014"  >
<polygon points="610,335 615,330 632,330 632,340 615,340 610,335 " style="fill:white; stroke-width:1; stroke:black; " description="&lt;b&gt;PEXP_030600&lt;/b&gt;&lt;br&gt;Major facilitator superfamily domain, general substrate transporter&lt;br&gt;Location: 43536 - 45462" locus_tag="PEXP_030600" class="clusterblast-orf" id="knownclusterblast-6_all_6_6_14"  />
</g>
<g id="a6_0015"  >
<polygon points="637,340 646,340 651,335 646,330 637,330 637,340 " style="fill:white; stroke-width:1; stroke:black; " description="&lt;b&gt;PEXP_030610&lt;/b&gt;&lt;br&gt;Taurine catabolism dioxygenase TauD/TfdA&lt;br&gt;Location: 45952 - 47244" locus_tag="PEXP_030610" class="clusterblast-orf" id="knownclusterblast-6_all_6_6_15"  />
</g>
</svg>
