<svg xmlns="http://www.w3.org/2000/svg" xmlns:xlink="http://www.w3.org/1999/xlink" version="1.1" x="0" y="0" height="50" width="800" viewBox="0 0 800 50" preserveAspectRatio="none"  >
<g label="Query sequence" class="clusterblast-cluster"  >
<text x="5" y="20" class="clusterblast-acc"  >
Query sequence</text>
<line x1="10" y1="35" x2="778.0" y2="35" style="stroke-width:1; stroke:grey; "  />
<polygon points="0,35 5,30 33,30 33,40 5,40 0,35 " style="fill:white; stroke-width:1; stroke:black; " description="&lt;b&gt;input.path1.gene1263&lt;/b&gt;&lt;br&gt;input.path1.gene1263&lt;br&gt;Location: 5533830 - 5535039" locus_tag="input.path1.gene1263" class="clusterblast-orf" id="knownclusterblast-6_q0_0_all"  />
<polygon points="50,40 51,40 56,35 51,30 50,30 50,40 " style="fill:white; stroke-width:1; stroke:black; " description="&lt;b&gt;input.path1.gene1264&lt;/b&gt;&lt;br&gt;input.path1.gene1264&lt;br&gt;Location: 5535667 - 5535913" locus_tag="input.path1.gene1264" class="clusterblast-orf" id="knownclusterblast-6_q1_0_all"  />
<polygon points="100,40 120,40 125,35 120,30 100,30 100,40 " style="fill:white; stroke-width:1; stroke:black; " description="&lt;b&gt;input.path1.gene1265&lt;/b&gt;&lt;br&gt;input.path1.gene1265&lt;br&gt;Location: 5537508 - 5538456" locus_tag="input.path1.gene1265" class="clusterblast-orf" id="knownclusterblast-6_q2_0_all"  />
<polygon points="127,35 132,30 201,30 201,40 132,40 127,35 " style="fill:white; stroke-width:1; stroke:black; " description="&lt;b&gt;input.path1.gene1266&lt;/b&gt;&lt;br&gt;input.path1.gene1266&lt;br&gt;Location: 5538510 - 5541251" locus_tag="input.path1.gene1266" class="clusterblast-orf" id="knownclusterblast-6_q3_0_all"  />
<polygon points="225,35 230,30 254,30 254,40 230,40 225,35 " style="fill:white; stroke-width:1; stroke:black; " description="&lt;b&gt;input.path1.gene1267&lt;/b&gt;&lt;br&gt;input.path1.gene1267&lt;br&gt;Location: 5542140 - 5543202" locus_tag="input.path1.gene1267" class="clusterblast-orf" id="knownclusterblast-6_q4_0_all"  />
<polygon points="292,40 330,40 335,35 330,30 292,30 292,40 " style="fill:white; stroke-width:1; stroke:black; " description="&lt;b&gt;input.path1.gene1268&lt;/b&gt;&lt;br&gt;input.path1.gene1268&lt;br&gt;Location: 5544605 - 5546186" locus_tag="input.path1.gene1268" class="clusterblast-orf" id="knownclusterblast-6_q5_0_all"  />
<polygon points="358,40 399,40 404,35 399,30 358,30 358,40 " style="fill:white; stroke-width:1; stroke:black; " description="&lt;b&gt;input.path1.gene1269&lt;/b&gt;&lt;br&gt;input.path1.gene1269&lt;br&gt;Location: 5547034 - 5548722" locus_tag="input.path1.gene1269" class="clusterblast-orf" id="knownclusterblast-6_q6_0_all"  />
<polygon points="416,35 421,30 483,30 483,40 421,40 416,35 " style="fill:white; stroke-width:1; stroke:black; " description="&lt;b&gt;input.path1.gene1270&lt;/b&gt;&lt;br&gt;input.path1.gene1270&lt;br&gt;Location: 5549164 - 5551614" locus_tag="input.path1.gene1270" class="clusterblast-orf" id="knownclusterblast-6_q7_0_all"  />
<polygon points="490,40 525,40 530,35 525,30 490,30 490,40 " style="fill:white; stroke-width:1; stroke:black; " description="&lt;b&gt;input.path1.gene1271&lt;/b&gt;&lt;br&gt;input.path1.gene1271&lt;br&gt;Location: 5551893 - 5553348" locus_tag="input.path1.gene1271" class="clusterblast-orf" id="knownclusterblast-6_q8_0_all"  />
<polygon points="530,35 535,30 724,30 724,40 535,40 530,35 " style="fill:white; stroke-width:1; stroke:black; " description="&lt;b&gt;input.path1.gene1272&lt;/b&gt;&lt;br&gt;input.path1.gene1272&lt;br&gt;Location: 5553357 - 5560483" locus_tag="input.path1.gene1272" class="clusterblast-orf" id="knownclusterblast-6_q9_0_all"  />
<polygon points="763,40 775,40 780,35 775,30 763,30 763,40 " style="fill:white; stroke-width:1; stroke:black; " description="&lt;b&gt;input.path1.gene1273&lt;/b&gt;&lt;br&gt;input.path1.gene1273&lt;br&gt;Location: 5561943 - 5562550" locus_tag="input.path1.gene1273" class="clusterblast-orf" id="knownclusterblast-6_q10_0_all"  />
</g>
</svg>
