<svg xmlns="http://www.w3.org/2000/svg" xmlns:xlink="http://www.w3.org/1999/xlink" version="1.1" x="0" y="0" height="50" width="800" viewBox="0 0 800 50" preserveAspectRatio="none"  >
<g label="Query sequence" class="clusterblast-cluster"  >
<text x="5" y="20" class="clusterblast-acc"  >
Query sequence</text>
<line x1="10" y1="35" x2="778.0" y2="35" style="stroke-width:1; stroke:grey; "  />
<polygon points="0,40 55,40 60,35 55,30 0,30 0,40 " style="fill:white; stroke-width:1; stroke:black; " description="&lt;b&gt;input.path1.gene1229&lt;/b&gt;&lt;br&gt;input.path1.gene1229&lt;br&gt;Location: 5428299 - 5431416" locus_tag="input.path1.gene1229" class="clusterblast-orf" id="subclusterblast-5_q0_0_all"  />
<polygon points="79,35 84,30 98,30 98,40 84,40 79,35 " style="fill:white; stroke-width:1; stroke:black; " description="&lt;b&gt;input.path1.gene1230&lt;/b&gt;&lt;br&gt;input.path1.gene1230&lt;br&gt;Location: 5432417 - 5433404" locus_tag="input.path1.gene1230" class="clusterblast-orf" id="subclusterblast-5_q1_0_all"  />
<polygon points="126,35 131,30 154,30 154,40 131,40 126,35 " style="fill:white; stroke-width:1; stroke:black; " description="&lt;b&gt;input.path1.gene1231&lt;/b&gt;&lt;br&gt;input.path1.gene1231&lt;br&gt;Location: 5434841 - 5436268" locus_tag="input.path1.gene1231" class="clusterblast-orf" id="subclusterblast-5_q2_0_all"  />
<polygon points="172,40 201,40 206,35 201,30 172,30 172,40 " style="fill:white; stroke-width:1; stroke:black; " description="&lt;b&gt;input.path1.gene1232&lt;/b&gt;&lt;br&gt;input.path1.gene1232&lt;br&gt;Location: 5437228 - 5438984" locus_tag="input.path1.gene1232" class="clusterblast-orf" id="subclusterblast-5_q3_0_all"  />
<polygon points="215,35 220,30 241,30 241,40 220,40 215,35 " style="fill:white; stroke-width:1; stroke:black; " description="&lt;b&gt;input.path1.gene1233&lt;/b&gt;&lt;br&gt;input.path1.gene1233&lt;br&gt;Location: 5439425 - 5440768" locus_tag="input.path1.gene1233" class="clusterblast-orf" id="subclusterblast-5_q4_0_all"  />
<polygon points="325,40 343,40 348,35 343,30 325,30 325,40 " style="fill:white; stroke-width:1; stroke:black; " description="&lt;b&gt;input.path1.gene1234&lt;/b&gt;&lt;br&gt;input.path1.gene1234&lt;br&gt;Location: 5445106 - 5446342" locus_tag="input.path1.gene1234" class="clusterblast-orf" id="subclusterblast-5_q5_0_all"  />
<polygon points="360,35 365,30 440,30 440,40 365,40 360,35 " style="fill:white; stroke-width:1; stroke:black; " description="&lt;b&gt;input.path1.gene1235&lt;/b&gt;&lt;br&gt;input.path1.gene1235&lt;br&gt;Location: 5446943 - 5451105" locus_tag="input.path1.gene1235" class="clusterblast-orf" id="subclusterblast-5_q6_0_all"  />
<polygon points="460,35 465,30 484,30 484,40 465,40 460,35 " style="fill:white; stroke-width:1; stroke:black; " description="&lt;b&gt;input.path1.gene1236&lt;/b&gt;&lt;br&gt;input.path1.gene1236&lt;br&gt;Location: 5452108 - 5453377" locus_tag="input.path1.gene1236" class="clusterblast-orf" id="subclusterblast-5_q7_0_all"  />
<polygon points="545,40 576,40 581,35 576,30 545,30 545,40 " style="fill:white; stroke-width:1; stroke:black; " description="&lt;b&gt;input.path1.gene1237&lt;/b&gt;&lt;br&gt;input.path1.gene1237&lt;br&gt;Location: 5456507 - 5458390" locus_tag="input.path1.gene1237" class="clusterblast-orf" id="subclusterblast-5_q8_0_all"  />
<polygon points="591,35 596,30 610,30 610,40 596,40 591,35 " style="fill:white; stroke-width:1; stroke:black; " description="&lt;b&gt;input.path1.gene1238&lt;/b&gt;&lt;br&gt;input.path1.gene1238&lt;br&gt;Location: 5458914 - 5459865" locus_tag="input.path1.gene1238" class="clusterblast-orf" id="subclusterblast-5_q9_0_all"  />
<polygon points="633,40 638,40 643,35 638,30 633,30 633,40 " style="fill:white; stroke-width:1; stroke:black; " description="&lt;b&gt;input.path1.gene1239&lt;/b&gt;&lt;br&gt;input.path1.gene1239&lt;br&gt;Location: 5461083 - 5461588" locus_tag="input.path1.gene1239" class="clusterblast-orf" id="subclusterblast-5_q10_0_all"  />
<polygon points="658,35 663,30 683,30 683,40 663,40 658,35 " style="fill:white; stroke-width:1; stroke:black; " description="&lt;b&gt;input.path1.gene1240&lt;/b&gt;&lt;br&gt;input.path1.gene1240&lt;br&gt;Location: 5462352 - 5463671" locus_tag="input.path1.gene1240" class="clusterblast-orf" id="subclusterblast-5_q11_0_all"  />
<polygon points="710,40 725,40 730,35 725,30 710,30 710,40 " style="fill:white; stroke-width:1; stroke:black; " description="&lt;b&gt;input.path1.gene1241&lt;/b&gt;&lt;br&gt;input.path1.gene1241&lt;br&gt;Location: 5465039 - 5466072" locus_tag="input.path1.gene1241" class="clusterblast-orf" id="subclusterblast-5_q12_0_all"  />
<polygon points="731,35 736,30 780,30 780,40 736,40 731,35 " style="fill:white; stroke-width:1; stroke:black; " description="&lt;b&gt;input.path1.gene1242&lt;/b&gt;&lt;br&gt;input.path1.gene1242&lt;br&gt;Location: 5466144 - 5468658" locus_tag="input.path1.gene1242" class="clusterblast-orf" id="subclusterblast-5_q13_0_all"  />
</g>
</svg>
