<svg xmlns="http://www.w3.org/2000/svg" xmlns:xlink="http://www.w3.org/1999/xlink" version="1.1" x="0" y="0" height="230" width="800" viewBox="0 0 800 230" preserveAspectRatio="none"  >
<g label="Query sequence" class="clusterblast-cluster"  >
<text x="5" y="20" class="clusterblast-acc"  >
Query sequence</text>
<line x1="10" y1="35" x2="778.0" y2="35" style="stroke-width:1; stroke:grey; "  />
<polygon points="125,35 130,30 130,30 130,40 130,40 125,35 " style="fill:white; stroke-width:1; stroke:black; " description="&lt;b&gt;input.path1.gene561&lt;/b&gt;&lt;br&gt;input.path1.gene561&lt;br&gt;Location: 2053410 - 2054000" locus_tag="input.path1.gene561" class="clusterblast-orf" id="dummy-3_q0_0_all"  />
<polygon points="139,40 150,40 155,35 150,30 139,30 139,40 " style="fill:#d81515; stroke-width:1; stroke:black; " description="&lt;b&gt;input.path1.gene562&lt;/b&gt;&lt;br&gt;input.path1.gene562&lt;br&gt;Location: 2054932 - 2056720" locus_tag="input.path1.gene562" class="clusterblast-orf" id="dummy-3_q1_0_all"  />
<polygon points="163,35 168,30 182,30 182,40 168,40 163,35 " style="fill:#5cd815; stroke-width:1; stroke:black; " description="&lt;b&gt;input.path1.gene563&lt;/b&gt;&lt;br&gt;input.path1.gene563&lt;br&gt;Location: 2057648 - 2059671" locus_tag="input.path1.gene563" class="clusterblast-orf" id="dummy-3_q2_0_all"  />
<polygon points="188,40 191,40 196,35 191,30 188,30 188,40 " style="fill:#15a3d8; stroke-width:1; stroke:black; " description="&lt;b&gt;input.path1.gene564&lt;/b&gt;&lt;br&gt;input.path1.gene564&lt;br&gt;Location: 2060370 - 2061188" locus_tag="input.path1.gene564" class="clusterblast-orf" id="dummy-3_q3_0_all"  />
<polygon points="208,40 277,40 282,35 277,30 208,30 208,40 " style="fill:#c715d8; stroke-width:1; stroke:black; " description="&lt;b&gt;input.path1.gene565&lt;/b&gt;&lt;br&gt;input.path1.gene565&lt;br&gt;Location: 2062513 - 2070621" locus_tag="input.path1.gene565" class="clusterblast-orf" id="dummy-3_q4_0_all"  />
<polygon points="283,35 288,30 298,30 298,40 288,40 283,35 " style="fill:#d88015; stroke-width:1; stroke:black; " description="&lt;b&gt;input.path1.gene566&lt;/b&gt;&lt;br&gt;input.path1.gene566&lt;br&gt;Location: 2070698 - 2072360" locus_tag="input.path1.gene566" class="clusterblast-orf" id="dummy-3_q5_0_all"  />
<polygon points="301,35 306,30 329,30 329,40 306,40 301,35 " style="fill:#15d839; stroke-width:1; stroke:black; " description="&lt;b&gt;input.path1.gene567&lt;/b&gt;&lt;br&gt;input.path1.gene567&lt;br&gt;Location: 2072607 - 2075732" locus_tag="input.path1.gene567" class="clusterblast-orf" id="dummy-3_q6_0_all"  />
<polygon points="334,35 339,30 367,30 367,40 339,40 334,35 " style="fill:#1539d8; stroke-width:1; stroke:black; " description="&lt;b&gt;input.path1.gene568&lt;/b&gt;&lt;br&gt;input.path1.gene568&lt;br&gt;Location: 2076211 - 2079867" locus_tag="input.path1.gene568" class="clusterblast-orf" id="dummy-3_q7_0_all"  />
<polygon points="371,40 377,40 382,35 377,30 371,30 371,40 " style="fill:#1539d8; stroke-width:1; stroke:black; " description="&lt;b&gt;input.path1.gene569&lt;/b&gt;&lt;br&gt;input.path1.gene569&lt;br&gt;Location: 2080338 - 2081455" locus_tag="input.path1.gene569" class="clusterblast-orf" id="dummy-3_q8_0_all"  />
<polygon points="385,35 390,30 406,30 406,40 390,40 385,35 " style="fill:#1539d8; stroke-width:1; stroke:black; " description="&lt;b&gt;input.path1.gene570&lt;/b&gt;&lt;br&gt;input.path1.gene570&lt;br&gt;Location: 2081797 - 2084075" locus_tag="input.path1.gene570" class="clusterblast-orf" id="dummy-3_q9_0_all"  />
<polygon points="410,40 430,40 435,35 430,30 410,30 410,40 " style="fill:#d81580; stroke-width:1; stroke:black; " description="&lt;b&gt;input.path1.gene571&lt;/b&gt;&lt;br&gt;input.path1.gene571&lt;br&gt;Location: 2084547 - 2087301" locus_tag="input.path1.gene571" class="clusterblast-orf" id="dummy-3_q10_0_all"  />
<polygon points="502,40 506,40 511,35 506,30 502,30 502,40 " style="fill:#c7d815; stroke-width:1; stroke:black; " description="&lt;b&gt;input.path1.gene572&lt;/b&gt;&lt;br&gt;input.path1.gene572&lt;br&gt;Location: 2094615 - 2095634" locus_tag="input.path1.gene572" class="clusterblast-orf" id="dummy-3_q11_0_all"  />
<polygon points="525,40 528,40 533,35 528,30 525,30 525,40 " style="fill:#15d8a3; stroke-width:1; stroke:black; " description="&lt;b&gt;input.path1.gene573&lt;/b&gt;&lt;br&gt;input.path1.gene573&lt;br&gt;Location: 2097099 - 2097973" locus_tag="input.path1.gene573" class="clusterblast-orf" id="dummy-3_q12_0_all"  />
<polygon points="632,40 650,40 655,35 650,30 632,30 632,40 " style="fill:#5c15d8; stroke-width:1; stroke:black; " description="&lt;b&gt;input.path1.gene574&lt;/b&gt;&lt;br&gt;input.path1.gene574&lt;br&gt;Location: 2108762 - 2111253" locus_tag="input.path1.gene574" class="clusterblast-orf" id="dummy-3_q13_0_all"  />
</g>
<g label="NC_035796" description="NC_035796 (212423-303459): Pochonia chlamydosporia 170 chromosome 7, whole ge... (13% of genes show similarity), fungal-RiPP-like,terpene" class="clusterblast-cluster"  >
<text x="5" y="70" class="clusterblast-acc"  >
<a xlink:href="https://antismash-db.secondarymetabolites.org/area?record=NC_035796&amp;start=212423&amp;end=303459" target="_blank">NC_035796 (212423-303459)</a>: Pochonia chlamydosporia 170 chromosome 7, whole ge... (13% of genes show similarity), fungal-RiPP-like,terpene</text>
<line x1="10" y1="85" x2="778.0" y2="85" style="stroke-width:1; stroke:grey; "  />
</g>
<g id="a3_000"  >
<polygon points="0,85 5,80 9,80 9,90 5,90 0,85 " style="fill:white; stroke-width:1; stroke:black; " description="&lt;b&gt;VFPPC_06977&lt;/b&gt;&lt;br&gt;membrane-associating domain-containing protein&lt;br&gt;Location: 302569 - 301525" locus_tag="VFPPC_06977" class="clusterblast-orf" id="dummy-3_h3_6_0"  />
</g>
<g id="a3_001"  >
<polygon points="51,90 61,90 66,85 61,80 51,80 51,90 " style="fill:white; stroke-width:1; stroke:black; " description="&lt;b&gt;VFPPC_14137&lt;/b&gt;&lt;br&gt;G protein-coupled receptor&lt;br&gt;Location: 296985 - 295330" locus_tag="VFPPC_14137" class="clusterblast-orf" id="dummy-3_h3_6_1"  />
</g>
<g id="a3_002"  >
<polygon points="67,85 72,80 74,80 74,90 72,90 67,85 " style="fill:white; stroke-width:1; stroke:black; " description="&lt;b&gt;VFPPC_06974&lt;/b&gt;&lt;br&gt;NUDIX domain-containing protein&lt;br&gt;Location: 295146 - 294463" locus_tag="VFPPC_06974" class="clusterblast-orf" id="dummy-3_h3_6_2"  />
</g>
<g id="a3_003"  >
<polygon points="82,85 87,80 100,80 100,90 87,90 82,85 " style="fill:#5cd815; stroke-width:1; stroke:black; " description="&lt;b&gt;VFPPC_06973&lt;/b&gt;&lt;br&gt;RNA recognition motif containing protein&lt;br&gt;Location: 293558 - 291604&lt;br&gt;&lt;br&gt;&lt;b&gt;BlastP hit with input.path1.gene563&lt;/b&gt;&lt;br&gt;Percentage identity: 56&lt;br&gt;Percentage coverage: 105&lt;br&gt;BLAST bit score: 417&lt;br&gt;E-value: 7.1e-139" locus_tag="VFPPC_06973" class="clusterblast-orf" id="dummy-3_h3_6_3"  />
</g>
<g id="a3_004"  >
<polygon points="109,90 112,90 117,85 112,80 109,80 109,90 " style="fill:#15a3d8; stroke-width:1; stroke:black; " description="&lt;b&gt;VFPPC_06972&lt;/b&gt;&lt;br&gt;beta-ketoacyl synthase&lt;br&gt;Location: 290634 - 289778&lt;br&gt;&lt;br&gt;&lt;b&gt;BlastP hit with input.path1.gene564&lt;/b&gt;&lt;br&gt;Percentage identity: 55&lt;br&gt;Percentage coverage: 90&lt;br&gt;BLAST bit score: 223&lt;br&gt;E-value: 8.29e-72" locus_tag="VFPPC_06972" class="clusterblast-orf" id="dummy-3_h3_6_4"  />
</g>
<g id="a3_005"  >
<polygon points="149,90 225,90 230,85 225,80 149,80 149,90 " style="fill:#c715d8; stroke-width:1; stroke:black; " description="&lt;b&gt;VFPPC_06970&lt;/b&gt;&lt;br&gt;hypothetical protein&lt;br&gt;Location: 286299 - 277399&lt;br&gt;&lt;br&gt;&lt;b&gt;BlastP hit with input.path1.gene565&lt;/b&gt;&lt;br&gt;Percentage identity: 70&lt;br&gt;Percentage coverage: 101&lt;br&gt;BLAST bit score: 3730&lt;br&gt;E-value: 0.0" locus_tag="VFPPC_06970" class="clusterblast-orf" id="dummy-3_h3_6_5"  />
</g>
<g id="a3_006"  >
<polygon points="236,90 264,90 269,85 264,80 236,80 236,90 " style="fill:white; stroke-width:1; stroke:black; " description="&lt;b&gt;VFPPC_06969&lt;/b&gt;&lt;br&gt;farnesyl-diphosphate farnesyltransferase&lt;br&gt;Location: 276798 - 273152" locus_tag="VFPPC_06969" class="clusterblast-orf" id="dummy-3_h3_6_6"  />
</g>
<g id="a3_007"  >
<polygon points="296,85 299,80 299,90 296,85 " style="fill:white; stroke-width:1; stroke:black; " description="&lt;b&gt;VFPPC_16653&lt;/b&gt;&lt;br&gt;hypothetical protein&lt;br&gt;Location: 270204 - 269869" locus_tag="VFPPC_16653" class="clusterblast-orf" id="dummy-3_h3_6_7"  />
</g>
<g id="a3_008"  >
<polygon points="313,90 323,90 328,85 323,80 313,80 313,90 " style="fill:white; stroke-width:1; stroke:black; " description="&lt;b&gt;VFPPC_14136&lt;/b&gt;&lt;br&gt;hypothetical protein&lt;br&gt;Location: 268380 - 266695" locus_tag="VFPPC_14136" class="clusterblast-orf" id="dummy-3_h3_6_8"  />
</g>
<g id="a3_009"  >
<polygon points="353,90 365,90 370,85 365,80 353,80 353,90 " style="fill:white; stroke-width:1; stroke:black; " description="&lt;b&gt;VFPPC_06966&lt;/b&gt;&lt;br&gt;amidase-like protein&lt;br&gt;Location: 263974 - 262123" locus_tag="VFPPC_06966" class="clusterblast-orf" id="dummy-3_h3_6_9"  />
</g>
<g id="a3_0010"  >
<polygon points="372,85 377,80 383,80 383,90 377,90 372,85 " style="fill:white; stroke-width:1; stroke:black; " description="&lt;b&gt;VFPPC_06965&lt;/b&gt;&lt;br&gt;hypothetical protein&lt;br&gt;Location: 261955 - 260708" locus_tag="VFPPC_06965" class="clusterblast-orf" id="dummy-3_h3_6_10"  />
</g>
<g id="a3_0011"  >
<polygon points="393,85 397,80 397,90 393,85 " style="fill:white; stroke-width:1; stroke:black; " description="&lt;b&gt;VFPPC_14135&lt;/b&gt;&lt;br&gt;hypothetical protein&lt;br&gt;Location: 259598 - 259191" locus_tag="VFPPC_14135" class="clusterblast-orf" id="dummy-3_h3_6_11"  />
</g>
<g id="a3_0012"  >
<polygon points="404,90 408,90 413,85 408,80 404,80 404,90 " style="fill:#1539d8; stroke-width:1; stroke:black; " description="&lt;b&gt;VFPPC_06964&lt;/b&gt;&lt;br&gt;hypothetical protein&lt;br&gt;Location: 258459 - 257424&lt;br&gt;&lt;br&gt;&lt;b&gt;BlastP hit with input.path1.gene569&lt;/b&gt;&lt;br&gt;Percentage identity: 34&lt;br&gt;Percentage coverage: 44&lt;br&gt;BLAST bit score: 76&lt;br&gt;E-value: 1.76e-13" locus_tag="VFPPC_06964" class="clusterblast-orf" id="dummy-3_h3_6_12"  />
</g>
<g id="a3_0013"  >
<polygon points="423,85 428,80 436,80 436,90 428,90 423,85 " style="fill:white; stroke-width:1; stroke:black; " description="&lt;b&gt;VFPPC_14134&lt;/b&gt;&lt;br&gt;hypothetical protein&lt;br&gt;Location: 256367 - 254867" locus_tag="VFPPC_14134" class="clusterblast-orf" id="dummy-3_h3_6_13"  />
</g>
<g id="a3_0014"  >
<polygon points="455,90 472,90 477,85 472,80 455,80 455,90 " style="fill:white; stroke-width:1; stroke:black; " description="&lt;b&gt;VFPPC_06962&lt;/b&gt;&lt;br&gt;3-hydroxyisobutyrate dehydrogenase protein&lt;br&gt;Location: 252893 - 250400" locus_tag="VFPPC_06962" class="clusterblast-orf" id="dummy-3_h3_6_14"  />
</g>
<g id="a3_0015"  >
<polygon points="505,90 507,85 505,80 505,90 " style="fill:white; stroke-width:1; stroke:black; " description="&lt;b&gt;VFPPC_18074&lt;/b&gt;&lt;br&gt;hypothetical protein&lt;br&gt;Location: 247404 - 247144" locus_tag="VFPPC_18074" class="clusterblast-orf" id="dummy-3_h3_6_15"  />
</g>
<g id="a3_0016"  >
<polygon points="508,85 511,80 511,90 508,85 " style="fill:white; stroke-width:1; stroke:black; " description="&lt;b&gt;VFPPC_16654&lt;/b&gt;&lt;br&gt;hypothetical protein&lt;br&gt;Location: 247068 - 246772" locus_tag="VFPPC_16654" class="clusterblast-orf" id="dummy-3_h3_6_16"  />
</g>
<g id="a3_0017"  >
<polygon points="522,90 541,90 546,85 541,80 522,80 522,90 " style="fill:white; stroke-width:1; stroke:black; " description="&lt;b&gt;VFPPC_06959&lt;/b&gt;&lt;br&gt;hypothetical protein&lt;br&gt;Location: 245573 - 242916" locus_tag="VFPPC_06959" class="clusterblast-orf" id="dummy-3_h3_6_17"  />
</g>
<g id="a3_0018"  >
<polygon points="555,90 570,90 575,85 570,80 555,80 555,90 " style="fill:white; stroke-width:1; stroke:black; " description="&lt;b&gt;VFPPC_06958&lt;/b&gt;&lt;br&gt;PX-associated domain-containing protein&lt;br&gt;Location: 241882 - 239724" locus_tag="VFPPC_06958" class="clusterblast-orf" id="dummy-3_h3_6_18"  />
</g>
<g id="a3_0019"  >
<polygon points="576,85 581,80 587,80 587,90 581,90 576,85 " style="fill:white; stroke-width:1; stroke:black; " description="&lt;b&gt;VFPPC_06957&lt;/b&gt;&lt;br&gt;hypothetical protein&lt;br&gt;Location: 239630 - 238431" locus_tag="VFPPC_06957" class="clusterblast-orf" id="dummy-3_h3_6_19"  />
</g>
<g id="a3_0020"  >
<polygon points="595,85 600,80 603,80 603,90 600,90 595,85 " style="fill:white; stroke-width:1; stroke:black; " description="&lt;b&gt;VFPPC_06956&lt;/b&gt;&lt;br&gt;40S ribosomal protein S19&lt;br&gt;Location: 237582 - 236660" locus_tag="VFPPC_06956" class="clusterblast-orf" id="dummy-3_h3_6_20"  />
</g>
<g id="a3_0021"  >
<polygon points="610,85 615,80 620,80 620,90 615,90 610,85 " style="fill:white; stroke-width:1; stroke:black; " description="&lt;b&gt;VFPPC_06955&lt;/b&gt;&lt;br&gt;membrane zinc transporter&lt;br&gt;Location: 235928 - 234807" locus_tag="VFPPC_06955" class="clusterblast-orf" id="dummy-3_h3_6_21"  />
</g>
<g id="a3_0022"  >
<polygon points="652,85 657,80 664,80 664,90 657,90 652,85 " style="fill:white; stroke-width:1; stroke:black; " description="&lt;b&gt;VFPPC_06953&lt;/b&gt;&lt;br&gt;mitochondrial inheritance component MDM10&lt;br&gt;Location: 231315 - 230002" locus_tag="VFPPC_06953" class="clusterblast-orf" id="dummy-3_h3_6_22"  />
</g>
<g id="a3_0023"  >
<polygon points="673,85 678,80 680,80 680,90 678,90 673,85 " style="fill:white; stroke-width:1; stroke:black; " description="&lt;b&gt;VFPPC_16655&lt;/b&gt;&lt;br&gt;small nuclear ribonucleoprotein E&lt;br&gt;Location: 229018 - 228238" locus_tag="VFPPC_16655" class="clusterblast-orf" id="dummy-3_h3_6_23"  />
</g>
<g id="a3_0024"  >
<polygon points="683,85 688,80 698,80 698,90 688,90 683,85 " style="fill:white; stroke-width:1; stroke:black; " description="&lt;b&gt;VFPPC_06951&lt;/b&gt;&lt;br&gt;amidohydrolase family protein&lt;br&gt;Location: 227959 - 226301" locus_tag="VFPPC_06951" class="clusterblast-orf" id="dummy-3_h3_6_24"  />
</g>
<g id="a3_0025"  >
<polygon points="702,85 707,80 709,80 709,90 707,90 702,85 " style="fill:white; stroke-width:1; stroke:black; " description="&lt;b&gt;VFPPC_06950&lt;/b&gt;&lt;br&gt;FMN-binding domain-containing protein&lt;br&gt;Location: 225843 - 225076" locus_tag="VFPPC_06950" class="clusterblast-orf" id="dummy-3_h3_6_25"  />
</g>
<g id="a3_0026"  >
<polygon points="723,90 735,90 740,85 735,80 723,80 723,90 " style="fill:white; stroke-width:1; stroke:black; " description="&lt;b&gt;VFPPC_06949&lt;/b&gt;&lt;br&gt;C6 zinc finger domain-containing protein&lt;br&gt;Location: 223539 - 221745" locus_tag="VFPPC_06949" class="clusterblast-orf" id="dummy-3_h3_6_26"  />
</g>
<g id="a3_0027"  >
<polygon points="759,90 760,90 765,85 760,80 759,80 759,90 " style="fill:white; stroke-width:1; stroke:black; " description="&lt;b&gt;VFPPC_06947&lt;/b&gt;&lt;br&gt;thioesterase superfamily domain-containing protein&lt;br&gt;Location: 219607 - 219026" locus_tag="VFPPC_06947" class="clusterblast-orf" id="dummy-3_h3_6_27"  />
</g>
<g id="a3_0028"  >
<polygon points="773,85 778,80 780,80 780,90 778,90 773,85 " style="fill:white; stroke-width:1; stroke:black; " description="&lt;b&gt;VFPPC_06946&lt;/b&gt;&lt;br&gt;hypothetical protein&lt;br&gt;Location: 218139 - 217419" locus_tag="VFPPC_06946" class="clusterblast-orf" id="dummy-3_h3_6_28"  />
</g>
</svg>
