<svg xmlns="http://www.w3.org/2000/svg" xmlns:xlink="http://www.w3.org/1999/xlink" version="1.1" x="0" y="0" height="230" width="800" viewBox="0 0 800 230" preserveAspectRatio="none"  >
<g label="Query sequence" class="clusterblast-cluster"  >
<text x="5" y="20" class="clusterblast-acc"  >
Query sequence</text>
<line x1="10" y1="35" x2="778.0" y2="35" style="stroke-width:1; stroke:grey; "  />
<polygon points="199,40 224,40 229,35 224,30 199,30 199,40 " style="fill:#d81515; stroke-width:1; stroke:black; " description="&lt;b&gt;input.path1.gene608&lt;/b&gt;&lt;br&gt;input.path1.gene608&lt;br&gt;Location: 2247756 - 2251034" locus_tag="input.path1.gene608" class="clusterblast-orf" id="dummy-2_q0_0_all"  />
<polygon points="234,40 241,40 246,35 241,30 234,30 234,40 " style="fill:#43d815; stroke-width:1; stroke:black; " description="&lt;b&gt;input.path1.gene609&lt;/b&gt;&lt;br&gt;input.path1.gene609&lt;br&gt;Location: 2251576 - 2252878" locus_tag="input.path1.gene609" class="clusterblast-orf" id="dummy-2_q1_0_all"  />
<polygon points="259,35 264,30 279,30 279,40 264,40 259,35 " style="fill:#15b6d8; stroke-width:1; stroke:black; " description="&lt;b&gt;input.path1.gene610&lt;/b&gt;&lt;br&gt;input.path1.gene610&lt;br&gt;Location: 2254319 - 2256548" locus_tag="input.path1.gene610" class="clusterblast-orf" id="dummy-2_q2_0_all"  />
<polygon points="283,40 287,35 283,30 283,40 " style="fill:#8815d8; stroke-width:1; stroke:black; " description="&lt;b&gt;input.path1.gene611&lt;/b&gt;&lt;br&gt;input.path1.gene611&lt;br&gt;Location: 2256937 - 2257421" locus_tag="input.path1.gene611" class="clusterblast-orf" id="dummy-2_q3_0_all"  />
<polygon points="291,35 296,30 315,30 315,40 296,40 291,35 " style="fill:#d85a15; stroke-width:1; stroke:black; " description="&lt;b&gt;input.path1.gene612&lt;/b&gt;&lt;br&gt;input.path1.gene612&lt;br&gt;Location: 2257823 - 2260414" locus_tag="input.path1.gene612" class="clusterblast-orf" id="dummy-2_q4_0_all"  />
<polygon points="319,40 322,40 327,35 322,30 319,30 319,40 " style="fill:#15d82c; stroke-width:1; stroke:black; " description="&lt;b&gt;input.path1.gene613&lt;/b&gt;&lt;br&gt;input.path1.gene613&lt;br&gt;Location: 2260869 - 2261739" locus_tag="input.path1.gene613" class="clusterblast-orf" id="dummy-2_q5_0_all"  />
<polygon points="330,40 336,40 341,35 336,30 330,30 330,40 " style="fill:#1571d8; stroke-width:1; stroke:black; " description="&lt;b&gt;input.path1.gene614&lt;/b&gt;&lt;br&gt;input.path1.gene614&lt;br&gt;Location: 2262102 - 2263317" locus_tag="input.path1.gene614" class="clusterblast-orf" id="dummy-2_q6_0_all"  />
<polygon points="344,35 349,30 349,30 349,40 349,40 344,35 " style="fill:#cd15d8; stroke-width:1; stroke:black; " description="&lt;b&gt;input.path1.gene615&lt;/b&gt;&lt;br&gt;input.path1.gene615&lt;br&gt;Location: 2263616 - 2264122" locus_tag="input.path1.gene615" class="clusterblast-orf" id="dummy-2_q7_0_all"  />
<polygon points="354,40 368,40 373,35 368,30 354,30 354,40 " style="fill:#d89f15; stroke-width:1; stroke:black; " description="&lt;b&gt;input.path1.gene616&lt;/b&gt;&lt;br&gt;input.path1.gene616&lt;br&gt;Location: 2264698 - 2266764" locus_tag="input.path1.gene616" class="clusterblast-orf" id="dummy-2_q8_0_all"  />
<polygon points="373,35 378,30 413,30 413,40 378,40 373,35 " style="fill:#15d871; stroke-width:1; stroke:black; " description="&lt;b&gt;input.path1.gene617&lt;/b&gt;&lt;br&gt;input.path1.gene617&lt;br&gt;Location: 2266766 - 2271135" locus_tag="input.path1.gene617" class="clusterblast-orf" id="dummy-2_q9_0_all"  />
<polygon points="432,40 436,40 441,35 436,30 432,30 432,40 " style="fill:#152cd8; stroke-width:1; stroke:black; " description="&lt;b&gt;input.path1.gene618&lt;/b&gt;&lt;br&gt;input.path1.gene618&lt;br&gt;Location: 2273186 - 2274167" locus_tag="input.path1.gene618" class="clusterblast-orf" id="dummy-2_q10_0_all"  />
<polygon points="452,35 457,30 465,30 465,40 457,40 452,35 " style="fill:#d8159f; stroke-width:1; stroke:black; " description="&lt;b&gt;input.path1.gene619&lt;/b&gt;&lt;br&gt;input.path1.gene619&lt;br&gt;Location: 2275424 - 2276820" locus_tag="input.path1.gene619" class="clusterblast-orf" id="dummy-2_q11_0_all"  />
<polygon points="485,35 490,30 500,30 500,40 490,40 485,35 " style="fill:#cdd815; stroke-width:1; stroke:black; " description="&lt;b&gt;input.path1.gene620&lt;/b&gt;&lt;br&gt;input.path1.gene620&lt;br&gt;Location: 2279029 - 2280696" locus_tag="input.path1.gene620" class="clusterblast-orf" id="dummy-2_q12_0_all"  />
<polygon points="513,40 516,40 521,35 516,30 513,30 513,40 " style="fill:#15d8b6; stroke-width:1; stroke:black; " description="&lt;b&gt;input.path1.gene621&lt;/b&gt;&lt;br&gt;input.path1.gene621&lt;br&gt;Location: 2282098 - 2282994" locus_tag="input.path1.gene621" class="clusterblast-orf" id="dummy-2_q13_0_all"  />
<polygon points="522,35 527,30 536,30 536,40 527,40 522,35 " style="fill:#4315d8; stroke-width:1; stroke:black; " description="&lt;b&gt;input.path1.gene622&lt;/b&gt;&lt;br&gt;input.path1.gene622&lt;br&gt;Location: 2283059 - 2284616" locus_tag="input.path1.gene622" class="clusterblast-orf" id="dummy-2_q14_0_all"  />
<polygon points="538,40 539,40 544,35 539,30 538,30 538,40 " style="fill:#d8155a; stroke-width:1; stroke:black; " description="&lt;b&gt;input.path1.gene623&lt;/b&gt;&lt;br&gt;input.path1.gene623&lt;br&gt;Location: 2284815 - 2285463" locus_tag="input.path1.gene623" class="clusterblast-orf" id="dummy-2_q15_0_all"  />
<polygon points="566,40 576,40 581,35 576,30 566,30 566,40 " style="fill:#88d815; stroke-width:1; stroke:black; " description="&lt;b&gt;input.path1.gene624&lt;/b&gt;&lt;br&gt;input.path1.gene624&lt;br&gt;Location: 2287909 - 2289457" locus_tag="input.path1.gene624" class="clusterblast-orf" id="dummy-2_q16_0_all"  />
</g>
<g label="NZ_LT607413" description="NZ_LT607413 (4729322-4815787): Micromonospora echinospora strain DSM 43816 ch... (3% of genes show similarity), NRPS,NRPS-like" class="clusterblast-cluster"  >
<text x="5" y="70" class="clusterblast-acc"  >
<a xlink:href="https://antismash-db.secondarymetabolites.org/area?record=NZ_LT607413&amp;start=4729322&amp;end=4815787" target="_blank">NZ_LT607413 (4729322-4815787)</a>: Micromonospora echinospora strain DSM 43816 ch... (3% of genes show similarity), NRPS,NRPS-like</text>
<line x1="10" y1="85" x2="778.0" y2="85" style="stroke-width:1; stroke:grey; "  />
</g>
<g id="a2_000"  >
<polygon points="0,90 1,90 6,85 1,80 0,80 0,90 " style="fill:white; stroke-width:1; stroke:black; " description="&lt;b&gt;GA0070618_RS21230&lt;/b&gt;&lt;br&gt;response regulator transcription factor&lt;br&gt;Location: 4729992 - 4730653" locus_tag="GA0070618_RS21230" class="clusterblast-orf" id="dummy-2_h2_6_0"  />
</g>
<g id="a2_001"  >
<polygon points="8,85 13,80 17,80 17,90 13,90 8,85 " style="fill:white; stroke-width:1; stroke:black; " description="&lt;b&gt;GA0070618_RS21235&lt;/b&gt;&lt;br&gt;tetratricopeptide repeat protein&lt;br&gt;Location: 4730874 - 4731869" locus_tag="GA0070618_RS21235" class="clusterblast-orf" id="dummy-2_h2_6_1"  />
</g>
<g id="a2_002"  >
<polygon points="18,90 24,90 29,85 24,80 18,80 18,90 " style="fill:white; stroke-width:1; stroke:black; " description="&lt;b&gt;GA0070618_RS21240&lt;/b&gt;&lt;br&gt;IS256 family transposase&lt;br&gt;Location: 4732044 - 4733249" locus_tag="GA0070618_RS21240" class="clusterblast-orf" id="dummy-2_h2_6_2"  />
</g>
<g id="a2_003"  >
<polygon points="32,90 36,90 41,85 36,80 32,80 32,90 " style="fill:white; stroke-width:1; stroke:black; " description="&lt;b&gt;GA0070618_RS21245&lt;/b&gt;&lt;br&gt;hypothetical protein&lt;br&gt;Location: 4733519 - 4734478" locus_tag="GA0070618_RS21245" class="clusterblast-orf" id="dummy-2_h2_6_3"  />
</g>
<g id="a2_004"  >
<polygon points="41,90 45,85 41,80 41,90 " style="fill:white; stroke-width:1; stroke:black; " description="&lt;b&gt;GA0070618_RS34795&lt;/b&gt;&lt;br&gt;hypothetical protein&lt;br&gt;Location: 4734475 - 4735002" locus_tag="GA0070618_RS34795" class="clusterblast-orf" id="dummy-2_h2_6_4"  />
</g>
<g id="a2_005"  >
<polygon points="47,90 48,90 53,85 48,80 47,80 47,90 " style="fill:white; stroke-width:1; stroke:black; " description="&lt;b&gt;GA0070618_RS21255&lt;/b&gt;&lt;br&gt;hypothetical protein&lt;br&gt;Location: 4735202 - 4735825" locus_tag="GA0070618_RS21255" class="clusterblast-orf" id="dummy-2_h2_6_5"  />
</g>
<g id="a2_006"  >
<polygon points="57,85 59,80 59,90 57,85 " style="fill:white; stroke-width:1; stroke:black; " description="&lt;b&gt;GA0070618_RS21260&lt;/b&gt;&lt;br&gt;hypothetical protein&lt;br&gt;Location: 4736262 - 4736453" locus_tag="GA0070618_RS21260" class="clusterblast-orf" id="dummy-2_h2_6_6"  />
</g>
<g id="a2_007"  >
<polygon points="59,85 64,80 65,80 65,90 64,90 59,85 " style="fill:white; stroke-width:1; stroke:black; " description="&lt;b&gt;GA0070618_RS34800&lt;/b&gt;&lt;br&gt;IS630 family transposase&lt;br&gt;Location: 4736518 - 4737103" locus_tag="GA0070618_RS34800" class="clusterblast-orf" id="dummy-2_h2_6_7"  />
</g>
<g id="a2_008"  >
<polygon points="68,90 70,90 75,85 70,80 68,80 68,90 " style="fill:white; stroke-width:1; stroke:black; " description="&lt;b&gt;GA0070618_RS21270&lt;/b&gt;&lt;br&gt;transposase&lt;br&gt;Location: 4737450 - 4738193" locus_tag="GA0070618_RS21270" class="clusterblast-orf" id="dummy-2_h2_6_8"  />
</g>
<g id="a2_009"  >
<polygon points="75,85 78,80 78,90 75,85 " style="fill:white; stroke-width:1; stroke:black; " description="&lt;b&gt;GA0070618_RS21275&lt;/b&gt;&lt;br&gt;hypothetical protein&lt;br&gt;Location: 4738195 - 4738602" locus_tag="GA0070618_RS21275" class="clusterblast-orf" id="dummy-2_h2_6_9"  />
</g>
<g id="a2_0010"  >
<polygon points="78,85 83,80 86,80 86,90 83,90 78,85 " style="fill:white; stroke-width:1; stroke:black; " description="&lt;b&gt;GA0070618_RS21280&lt;/b&gt;&lt;br&gt;IS5 family transposase&lt;br&gt;Location: 4738599 - 4739429" locus_tag="GA0070618_RS21280" class="clusterblast-orf" id="dummy-2_h2_6_10"  />
</g>
<g id="a2_0011"  >
<polygon points="88,90 91,90 96,85 91,80 88,80 88,90 " style="fill:white; stroke-width:1; stroke:black; " description="&lt;b&gt;GA0070618_RS21285&lt;/b&gt;&lt;br&gt;transposase&lt;br&gt;Location: 4739666 - 4740487" locus_tag="GA0070618_RS21285" class="clusterblast-orf" id="dummy-2_h2_6_11"  />
</g>
<g id="a2_0012"  >
<polygon points="99,90 102,90 107,85 102,80 99,80 99,90 " style="fill:white; stroke-width:1; stroke:black; " description="&lt;b&gt;GA0070618_RS21290&lt;/b&gt;&lt;br&gt;IS5 family transposase&lt;br&gt;Location: 4740844 - 4741674" locus_tag="GA0070618_RS21290" class="clusterblast-orf" id="dummy-2_h2_6_12"  />
</g>
<g id="a2_0013"  >
<polygon points="106,90 110,85 106,80 106,90 " style="fill:white; stroke-width:1; stroke:black; " description="&lt;b&gt;GA0070618_RS21295&lt;/b&gt;&lt;br&gt;hypothetical protein&lt;br&gt;Location: 4741671 - 4742078" locus_tag="GA0070618_RS21295" class="clusterblast-orf" id="dummy-2_h2_6_13"  />
</g>
<g id="a2_0014"  >
<polygon points="111,90 114,85 111,80 111,90 " style="fill:white; stroke-width:1; stroke:black; " description="&lt;b&gt;GA0070618_RS21300&lt;/b&gt;&lt;br&gt;enoyl-CoA hydratase-related protein&lt;br&gt;Location: 4742150 - 4742497" locus_tag="GA0070618_RS21300" class="clusterblast-orf" id="dummy-2_h2_6_14"  />
</g>
<g id="a2_0015"  >
<polygon points="116,85 121,80 124,80 124,90 121,90 116,85 " style="fill:white; stroke-width:1; stroke:black; " description="&lt;b&gt;GA0070618_RS21305&lt;/b&gt;&lt;br&gt;NmrA family NAD(P)-binding protein&lt;br&gt;Location: 4742699 - 4743628" locus_tag="GA0070618_RS21305" class="clusterblast-orf" id="dummy-2_h2_6_15"  />
</g>
<g id="a2_0016"  >
<polygon points="125,90 126,90 131,85 126,80 125,80 125,90 " style="fill:white; stroke-width:1; stroke:black; " description="&lt;b&gt;GA0070618_RS21310&lt;/b&gt;&lt;br&gt;TetR/AcrR family transcriptional regulator&lt;br&gt;Location: 4743723 - 4744337" locus_tag="GA0070618_RS21310" class="clusterblast-orf" id="dummy-2_h2_6_16"  />
</g>
<g id="a2_0017"  >
<polygon points="138,85 143,80 147,80 147,90 143,90 138,85 " style="fill:white; stroke-width:1; stroke:black; " description="&lt;b&gt;GA0070618_RS21325&lt;/b&gt;&lt;br&gt;aldo/keto reductase&lt;br&gt;Location: 4745062 - 4746054" locus_tag="GA0070618_RS21325" class="clusterblast-orf" id="dummy-2_h2_6_17"  />
</g>
<g id="a2_0018"  >
<polygon points="148,90 148,90 153,85 148,80 148,80 148,90 " style="fill:white; stroke-width:1; stroke:black; " description="&lt;b&gt;GA0070618_RS21330&lt;/b&gt;&lt;br&gt;TetR family transcriptional regulator&lt;br&gt;Location: 4746178 - 4746798" locus_tag="GA0070618_RS21330" class="clusterblast-orf" id="dummy-2_h2_6_18"  />
</g>
<g id="a2_0019"  >
<polygon points="158,90 161,85 158,80 158,90 " style="fill:white; stroke-width:1; stroke:black; " description="&lt;b&gt;GA0070618_RS21335&lt;/b&gt;&lt;br&gt;VOC family protein&lt;br&gt;Location: 4747269 - 4747652" locus_tag="GA0070618_RS21335" class="clusterblast-orf" id="dummy-2_h2_6_19"  />
</g>
<g id="a2_0020"  >
<polygon points="162,90 166,85 162,80 162,90 " style="fill:white; stroke-width:1; stroke:black; " description="&lt;b&gt;GA0070618_RS21340&lt;/b&gt;&lt;br&gt;hypothetical protein&lt;br&gt;Location: 4747693 - 4748169" locus_tag="GA0070618_RS21340" class="clusterblast-orf" id="dummy-2_h2_6_20"  />
</g>
<g id="a2_0021"  >
<polygon points="167,85 172,80 173,80 173,90 172,90 167,85 " style="fill:white; stroke-width:1; stroke:black; " description="&lt;b&gt;GA0070618_RS21345&lt;/b&gt;&lt;br&gt;2OG-Fe(II) oxygenase&lt;br&gt;Location: 4748242 - 4748937" locus_tag="GA0070618_RS21345" class="clusterblast-orf" id="dummy-2_h2_6_21"  />
</g>
<g id="a2_0022"  >
<polygon points="177,90 233,90 238,85 233,80 177,80 177,90 " style="fill:white; stroke-width:1; stroke:black; " description="&lt;b&gt;GA0070618_RS21355&lt;/b&gt;&lt;br&gt;non-ribosomal peptide synthetase&lt;br&gt;Location: 4749323 - 4755976" locus_tag="GA0070618_RS21355" class="clusterblast-orf" id="dummy-2_h2_6_22"  />
</g>
<g id="a2_0023"  >
<polygon points="238,90 248,90 253,85 248,80 238,80 238,90 " style="fill:white; stroke-width:1; stroke:black; " description="&lt;b&gt;GA0070618_RS21360&lt;/b&gt;&lt;br&gt;hypothetical protein&lt;br&gt;Location: 4756026 - 4757711" locus_tag="GA0070618_RS21360" class="clusterblast-orf" id="dummy-2_h2_6_23"  />
</g>
<g id="a2_0024"  >
<polygon points="254,85 259,80 270,80 270,90 259,90 254,85 " style="fill:white; stroke-width:1; stroke:black; " description="&lt;b&gt;GA0070618_RS21365&lt;/b&gt;&lt;br&gt;gamma-glutamyltransferase family protein&lt;br&gt;Location: 4757752 - 4759551" locus_tag="GA0070618_RS21365" class="clusterblast-orf" id="dummy-2_h2_6_24"  />
</g>
<g id="a2_0025"  >
<polygon points="270,85 275,80 279,80 279,90 275,90 270,85 " style="fill:white; stroke-width:1; stroke:black; " description="&lt;b&gt;GA0070618_RS21370&lt;/b&gt;&lt;br&gt;hypothetical protein&lt;br&gt;Location: 4759558 - 4760538" locus_tag="GA0070618_RS21370" class="clusterblast-orf" id="dummy-2_h2_6_25"  />
</g>
<g id="a2_0026"  >
<polygon points="279,85 284,80 284,80 284,90 284,90 279,85 " style="fill:white; stroke-width:1; stroke:black; " description="&lt;b&gt;GA0070618_RS21375&lt;/b&gt;&lt;br&gt;VOC family protein&lt;br&gt;Location: 4760535 - 4761035" locus_tag="GA0070618_RS21375" class="clusterblast-orf" id="dummy-2_h2_6_26"  />
</g>
<g id="a2_0027"  >
<polygon points="286,90 292,90 297,85 292,80 286,80 286,90 " style="fill:white; stroke-width:1; stroke:black; " description="&lt;b&gt;GA0070618_RS21380&lt;/b&gt;&lt;br&gt;cytochrome P450&lt;br&gt;Location: 4761249 - 4762514" locus_tag="GA0070618_RS21380" class="clusterblast-orf" id="dummy-2_h2_6_27"  />
</g>
<g id="a2_0028"  >
<polygon points="298,85 303,80 306,80 306,90 303,90 298,85 " style="fill:white; stroke-width:1; stroke:black; " description="&lt;b&gt;GA0070618_RS21385&lt;/b&gt;&lt;br&gt;LysR family transcriptional regulator&lt;br&gt;Location: 4762564 - 4763493" locus_tag="GA0070618_RS21385" class="clusterblast-orf" id="dummy-2_h2_6_28"  />
</g>
<g id="a2_0029"  >
<polygon points="307,90 307,90 312,85 307,80 307,80 307,90 " style="fill:white; stroke-width:1; stroke:black; " description="&lt;b&gt;GA0070618_RS21390&lt;/b&gt;&lt;br&gt;sugar O-acetyltransferase&lt;br&gt;Location: 4763547 - 4764134" locus_tag="GA0070618_RS21390" class="clusterblast-orf" id="dummy-2_h2_6_29"  />
</g>
<g id="a2_0030"  >
<polygon points="313,90 315,85 313,80 313,90 " style="fill:white; stroke-width:1; stroke:black; " description="&lt;b&gt;GA0070618_RS34805&lt;/b&gt;&lt;br&gt;transposase&lt;br&gt;Location: 4764237 - 4764385" locus_tag="GA0070618_RS34805" class="clusterblast-orf" id="dummy-2_h2_6_30"  />
</g>
<g id="a2_0031"  >
<polygon points="316,85 321,80 323,80 323,90 321,90 316,85 " style="fill:white; stroke-width:1; stroke:black; " description="&lt;b&gt;GA0070618_RS21400&lt;/b&gt;&lt;br&gt;thioesterase domain-containing protein&lt;br&gt;Location: 4764585 - 4765313" locus_tag="GA0070618_RS21400" class="clusterblast-orf" id="dummy-2_h2_6_31"  />
</g>
<g id="a2_0032"  >
<polygon points="323,85 325,80 325,90 323,85 " style="fill:white; stroke-width:1; stroke:black; " description="&lt;b&gt;GA0070618_RS34080&lt;/b&gt;&lt;br&gt;MbtH family protein&lt;br&gt;Location: 4765313 - 4765504" locus_tag="GA0070618_RS34080" class="clusterblast-orf" id="dummy-2_h2_6_32"  />
</g>
<g id="a2_0033"  >
<polygon points="325,85 330,80 333,80 333,90 330,90 325,85 " style="fill:white; stroke-width:1; stroke:black; " description="&lt;b&gt;GA0070618_RS21410&lt;/b&gt;&lt;br&gt;aspartyl/asparaginyl beta-hydroxylase domain-containing protein&lt;br&gt;Location: 4765501 - 4766412" locus_tag="GA0070618_RS21410" class="clusterblast-orf" id="dummy-2_h2_6_33"  />
</g>
<g id="a2_0034"  >
<polygon points="334,85 339,80 342,80 342,90 339,90 334,85 " style="fill:white; stroke-width:1; stroke:black; " description="&lt;b&gt;GA0070618_RS21415&lt;/b&gt;&lt;br&gt;LLM class flavin-dependent oxidoreductase&lt;br&gt;Location: 4766516 - 4767361" locus_tag="GA0070618_RS21415" class="clusterblast-orf" id="dummy-2_h2_6_34"  />
</g>
<g id="a2_0035"  >
<polygon points="342,85 347,80 355,80 355,90 347,90 342,85 " style="fill:white; stroke-width:1; stroke:black; " description="&lt;b&gt;GA0070618_RS21420&lt;/b&gt;&lt;br&gt;FAD-binding protein&lt;br&gt;Location: 4767400 - 4768800" locus_tag="GA0070618_RS21420" class="clusterblast-orf" id="dummy-2_h2_6_35"  />
</g>
<g id="a2_0036"  >
<polygon points="355,85 360,80 377,80 377,90 360,90 355,85 " style="fill:white; stroke-width:1; stroke:black; " description="&lt;b&gt;GA0070618_RS21425&lt;/b&gt;&lt;br&gt;non-ribosomal peptide synthetase&lt;br&gt;Location: 4768834 - 4771224" locus_tag="GA0070618_RS21425" class="clusterblast-orf" id="dummy-2_h2_6_36"  />
</g>
<g id="a2_0037"  >
<polygon points="377,85 382,80 408,80 408,90 382,90 377,85 " style="fill:white; stroke-width:1; stroke:black; " description="&lt;b&gt;GA0070618_RS21430&lt;/b&gt;&lt;br&gt;condensation domain-containing protein&lt;br&gt;Location: 4771221 - 4774634" locus_tag="GA0070618_RS21430" class="clusterblast-orf" id="dummy-2_h2_6_37"  />
</g>
<g id="a2_0038"  >
<polygon points="410,85 415,80 417,80 417,90 415,90 410,85 " style="fill:white; stroke-width:1; stroke:black; " description="&lt;b&gt;GA0070618_RS21435&lt;/b&gt;&lt;br&gt;thioesterase domain-containing protein&lt;br&gt;Location: 4774756 - 4775616" locus_tag="GA0070618_RS21435" class="clusterblast-orf" id="dummy-2_h2_6_38"  />
</g>
<g id="a2_0039"  >
<polygon points="418,90 419,90 424,85 419,80 418,80 418,90 " style="fill:white; stroke-width:1; stroke:black; " description="&lt;b&gt;GA0070618_RS21440&lt;/b&gt;&lt;br&gt;GNAT family N-acetyltransferase&lt;br&gt;Location: 4775705 - 4776343" locus_tag="GA0070618_RS21440" class="clusterblast-orf" id="dummy-2_h2_6_39"  />
</g>
<g id="a2_0040"  >
<polygon points="425,90 433,90 438,85 433,80 425,80 425,90 " style="fill:#15d871; stroke-width:1; stroke:black; " description="&lt;b&gt;GA0070618_RS21445&lt;/b&gt;&lt;br&gt;amino acid adenylation domain-containing protein&lt;br&gt;Location: 4776418 - 4777866&lt;br&gt;&lt;br&gt;&lt;b&gt;BlastP hit with input.path1.gene617&lt;/b&gt;&lt;br&gt;Percentage identity: 32&lt;br&gt;Percentage coverage: 37&lt;br&gt;BLAST bit score: 160&lt;br&gt;E-value: 1.24e-39" locus_tag="GA0070618_RS21445" class="clusterblast-orf" id="dummy-2_h2_6_40"  />
</g>
<g id="a2_0041"  >
<polygon points="438,85 443,80 459,80 459,90 443,90 438,85 " style="fill:white; stroke-width:1; stroke:black; " description="&lt;b&gt;GA0070618_RS21450&lt;/b&gt;&lt;br&gt;lantibiotic dehydratase&lt;br&gt;Location: 4777857 - 4780184" locus_tag="GA0070618_RS21450" class="clusterblast-orf" id="dummy-2_h2_6_41"  />
</g>
<g id="a2_0042"  >
<polygon points="459,85 464,80 489,80 489,90 464,90 459,85 " style="fill:white; stroke-width:1; stroke:black; " description="&lt;b&gt;GA0070618_RS21455&lt;/b&gt;&lt;br&gt;condensation domain-containing protein&lt;br&gt;Location: 4780187 - 4783384" locus_tag="GA0070618_RS21455" class="clusterblast-orf" id="dummy-2_h2_6_42"  />
</g>
<g id="a2_0043"  >
<polygon points="489,90 489,90 494,85 489,80 489,80 489,90 " style="fill:white; stroke-width:1; stroke:black; " description="&lt;b&gt;GA0070618_RS21460&lt;/b&gt;&lt;br&gt;DinB family protein&lt;br&gt;Location: 4783483 - 4784022" locus_tag="GA0070618_RS21460" class="clusterblast-orf" id="dummy-2_h2_6_43"  />
</g>
<g id="a2_0044"  >
<polygon points="494,85 499,80 501,80 501,90 499,90 494,85 " style="fill:white; stroke-width:1; stroke:black; " description="&lt;b&gt;GA0070618_RS21465&lt;/b&gt;&lt;br&gt;thioesterase domain-containing protein&lt;br&gt;Location: 4784033 - 4784770" locus_tag="GA0070618_RS21465" class="clusterblast-orf" id="dummy-2_h2_6_44"  />
</g>
<g id="a2_0045"  >
<polygon points="502,85 507,80 513,80 513,90 507,90 502,85 " style="fill:white; stroke-width:1; stroke:black; " description="&lt;b&gt;GA0070618_RS21470&lt;/b&gt;&lt;br&gt;cytochrome P450&lt;br&gt;Location: 4784804 - 4786084" locus_tag="GA0070618_RS21470" class="clusterblast-orf" id="dummy-2_h2_6_45"  />
</g>
<g id="a2_0046"  >
<polygon points="513,85 518,80 530,80 530,90 518,90 513,85 " style="fill:white; stroke-width:1; stroke:black; " description="&lt;b&gt;GA0070618_RS21475&lt;/b&gt;&lt;br&gt;non-ribosomal peptide synthetase&lt;br&gt;Location: 4786068 - 4787891" locus_tag="GA0070618_RS21475" class="clusterblast-orf" id="dummy-2_h2_6_46"  />
</g>
<g id="a2_0047"  >
<polygon points="532,85 537,80 544,80 544,90 537,90 532,85 " style="fill:white; stroke-width:1; stroke:black; " description="&lt;b&gt;GA0070618_RS21480&lt;/b&gt;&lt;br&gt;MFS transporter&lt;br&gt;Location: 4788085 - 4789482" locus_tag="GA0070618_RS21480" class="clusterblast-orf" id="dummy-2_h2_6_47"  />
</g>
<g id="a2_0048"  >
<polygon points="544,85 546,80 546,90 544,85 " style="fill:white; stroke-width:1; stroke:black; " description="&lt;b&gt;GA0070618_RS21485&lt;/b&gt;&lt;br&gt;MbtH family protein&lt;br&gt;Location: 4789479 - 4789703" locus_tag="GA0070618_RS21485" class="clusterblast-orf" id="dummy-2_h2_6_48"  />
</g>
<g id="a2_0049"  >
<polygon points="549,90 554,90 559,85 554,80 549,80 549,90 " style="fill:white; stroke-width:1; stroke:black; " description="&lt;b&gt;GA0070618_RS21490&lt;/b&gt;&lt;br&gt;capreomycidine synthase&lt;br&gt;Location: 4789957 - 4791126" locus_tag="GA0070618_RS21490" class="clusterblast-orf" id="dummy-2_h2_6_49"  />
</g>
<g id="a2_0050"  >
<polygon points="559,90 597,90 602,85 597,80 559,80 559,90 " style="fill:white; stroke-width:1; stroke:black; " description="&lt;b&gt;GA0070618_RS21495&lt;/b&gt;&lt;br&gt;non-ribosomal peptide synthetase&lt;br&gt;Location: 4791123 - 4795787" locus_tag="GA0070618_RS21495" class="clusterblast-orf" id="dummy-2_h2_6_50"  />
</g>
<g id="a2_0051"  >
<polygon points="603,85 608,80 613,80 613,90 608,90 603,85 " style="fill:white; stroke-width:1; stroke:black; " description="&lt;b&gt;GA0070618_RS21500&lt;/b&gt;&lt;br&gt;branched-chain amino acid aminotransferase&lt;br&gt;Location: 4795859 - 4796959" locus_tag="GA0070618_RS21500" class="clusterblast-orf" id="dummy-2_h2_6_51"  />
</g>
<g id="a2_0052"  >
<polygon points="613,85 618,80 625,80 625,90 618,90 613,85 " style="fill:white; stroke-width:1; stroke:black; " description="&lt;b&gt;GA0070618_RS21505&lt;/b&gt;&lt;br&gt;cytochrome P450&lt;br&gt;Location: 4796988 - 4798238" locus_tag="GA0070618_RS21505" class="clusterblast-orf" id="dummy-2_h2_6_52"  />
</g>
<g id="a2_0053"  >
<polygon points="625,85 630,80 636,80 636,90 630,90 625,85 " style="fill:white; stroke-width:1; stroke:black; " description="&lt;b&gt;GA0070618_RS21510&lt;/b&gt;&lt;br&gt;aminotransferase class I/II-fold pyridoxal phosphate-dependent enzyme&lt;br&gt;Location: 4798303 - 4799448" locus_tag="GA0070618_RS21510" class="clusterblast-orf" id="dummy-2_h2_6_53"  />
</g>
<g id="a2_0054"  >
<polygon points="637,90 641,90 646,85 641,80 637,80 637,90 " style="fill:white; stroke-width:1; stroke:black; " description="&lt;b&gt;GA0070618_RS21515&lt;/b&gt;&lt;br&gt;arginine beta-hydroxylase, Fe(II)/alpha-ketoglutarate-dependent&lt;br&gt;Location: 4799582 - 4800610" locus_tag="GA0070618_RS21515" class="clusterblast-orf" id="dummy-2_h2_6_54"  />
</g>
<g id="a2_0055"  >
<polygon points="646,85 651,80 657,80 657,90 651,90 646,85 " style="fill:white; stroke-width:1; stroke:black; " description="&lt;b&gt;GA0070618_RS21520&lt;/b&gt;&lt;br&gt;aminotransferase&lt;br&gt;Location: 4800600 - 4801781" locus_tag="GA0070618_RS21520" class="clusterblast-orf" id="dummy-2_h2_6_55"  />
</g>
<g id="a2_0056"  >
<polygon points="658,85 663,80 663,80 663,90 663,90 658,85 " style="fill:white; stroke-width:1; stroke:black; " description="&lt;b&gt;GA0070618_RS21525&lt;/b&gt;&lt;br&gt;response regulator transcription factor&lt;br&gt;Location: 4801857 - 4802465" locus_tag="GA0070618_RS21525" class="clusterblast-orf" id="dummy-2_h2_6_56"  />
</g>
<g id="a2_0057"  >
<polygon points="676,90 694,90 699,85 694,80 676,80 676,90 " style="fill:white; stroke-width:1; stroke:black; " description="&lt;b&gt;GA0070618_RS21530&lt;/b&gt;&lt;br&gt;penicillin acylase family protein&lt;br&gt;Location: 4803806 - 4806409" locus_tag="GA0070618_RS21530" class="clusterblast-orf" id="dummy-2_h2_6_57"  />
</g>
<g id="a2_0058"  >
<polygon points="702,90 706,85 702,80 702,90 " style="fill:white; stroke-width:1; stroke:black; " description="&lt;b&gt;GA0070618_RS21535&lt;/b&gt;&lt;br&gt;SRPBCC family protein&lt;br&gt;Location: 4806671 - 4807081" locus_tag="GA0070618_RS21535" class="clusterblast-orf" id="dummy-2_h2_6_58"  />
</g>
<g id="a2_0059"  >
<polygon points="707,85 712,80 716,80 716,90 712,90 707,85 " style="fill:white; stroke-width:1; stroke:black; " description="&lt;b&gt;GA0070618_RS21540&lt;/b&gt;&lt;br&gt;DUF4862 family protein&lt;br&gt;Location: 4807260 - 4808213" locus_tag="GA0070618_RS21540" class="clusterblast-orf" id="dummy-2_h2_6_59"  />
</g>
<g id="a2_0060"  >
<polygon points="717,85 722,80 724,80 724,90 722,90 717,85 " style="fill:white; stroke-width:1; stroke:black; " description="&lt;b&gt;GA0070618_RS21545&lt;/b&gt;&lt;br&gt;integrase core domain-containing protein&lt;br&gt;Location: 4808367 - 4809089" locus_tag="GA0070618_RS21545" class="clusterblast-orf" id="dummy-2_h2_6_60"  />
</g>
<g id="a2_0061"  >
<polygon points="728,85 731,80 731,90 728,85 " style="fill:white; stroke-width:1; stroke:black; " description="&lt;b&gt;GA0070618_RS21550&lt;/b&gt;&lt;br&gt;ATP-binding cassette domain-containing protein&lt;br&gt;Location: 4809512 - 4809809" locus_tag="GA0070618_RS21550" class="clusterblast-orf" id="dummy-2_h2_6_61"  />
</g>
<g id="a2_0062"  >
<polygon points="731,85 736,80 742,80 742,90 736,90 731,85 " style="fill:#d85a15; stroke-width:1; stroke:black; " description="&lt;b&gt;GA0070618_RS21555&lt;/b&gt;&lt;br&gt;amidohydrolase&lt;br&gt;Location: 4809877 - 4811094&lt;br&gt;&lt;br&gt;&lt;b&gt;BlastP hit with input.path1.gene612&lt;/b&gt;&lt;br&gt;Percentage identity: 35&lt;br&gt;Percentage coverage: 56&lt;br&gt;BLAST bit score: 129&lt;br&gt;E-value: 7.43e-31" locus_tag="GA0070618_RS21555" class="clusterblast-orf" id="dummy-2_h2_6_62"  />
</g>
<g id="a2_0063"  >
<polygon points="742,85 747,80 755,80 755,90 747,90 742,85 " style="fill:white; stroke-width:1; stroke:black; " description="&lt;b&gt;GA0070618_RS21560&lt;/b&gt;&lt;br&gt;MFS transporter&lt;br&gt;Location: 4811091 - 4812515" locus_tag="GA0070618_RS21560" class="clusterblast-orf" id="dummy-2_h2_6_63"  />
</g>
<g id="a2_0064"  >
<polygon points="757,90 761,90 766,85 761,80 757,80 757,90 " style="fill:white; stroke-width:1; stroke:black; " description="&lt;b&gt;GA0070618_RS21565&lt;/b&gt;&lt;br&gt;Lrp/AsnC family transcriptional regulator&lt;br&gt;Location: 4812638 - 4813678" locus_tag="GA0070618_RS21565" class="clusterblast-orf" id="dummy-2_h2_6_64"  />
</g>
<g id="a2_0065"  >
<polygon points="767,90 775,90 780,85 775,80 767,80 767,90 " style="fill:white; stroke-width:1; stroke:black; " description="&lt;b&gt;GA0070618_RS21570&lt;/b&gt;&lt;br&gt;L-serine ammonia-lyase&lt;br&gt;Location: 4813746 - 4815149" locus_tag="GA0070618_RS21570" class="clusterblast-orf" id="dummy-2_h2_6_65"  />
</g>
</svg>
