<svg xmlns="http://www.w3.org/2000/svg" xmlns:xlink="http://www.w3.org/1999/xlink" version="1.1" x="0" y="0" height="230" width="800" viewBox="0 0 800 230" preserveAspectRatio="none"  >
<g label="Query sequence" class="clusterblast-cluster"  >
<text x="5" y="20" class="clusterblast-acc"  >
Query sequence</text>
<line x1="10" y1="35" x2="778.0" y2="35" style="stroke-width:1; stroke:grey; "  />
<polygon points="101,40 114,40 119,35 114,30 101,30 101,40 " style="fill:#d81515; stroke-width:1; stroke:black; " description="&lt;b&gt;input.path1.gene1176&lt;/b&gt;&lt;br&gt;input.path1.gene1176&lt;br&gt;Location: 3986133 - 3987882" locus_tag="input.path1.gene1176" class="clusterblast-orf" id="dummy-3_q0_0_all"  />
<polygon points="123,35 128,30 133,30 133,40 128,40 123,35 " style="fill:#63d815; stroke-width:1; stroke:black; " description="&lt;b&gt;input.path1.gene1177&lt;/b&gt;&lt;br&gt;input.path1.gene1177&lt;br&gt;Location: 3988183 - 3989183" locus_tag="input.path1.gene1177" class="clusterblast-orf" id="dummy-3_q1_0_all"  />
<polygon points="139,40 148,40 153,35 148,30 139,30 139,40 " style="fill:#15b1d8; stroke-width:1; stroke:black; " description="&lt;b&gt;input.path1.gene1178&lt;/b&gt;&lt;br&gt;input.path1.gene1178&lt;br&gt;Location: 3989722 - 3991081" locus_tag="input.path1.gene1178" class="clusterblast-orf" id="dummy-3_q2_0_all"  />
<polygon points="154,35 159,30 162,30 162,40 159,40 154,35 " style="fill:#b115d8; stroke-width:1; stroke:black; " description="&lt;b&gt;input.path1.gene1179&lt;/b&gt;&lt;br&gt;input.path1.gene1179&lt;br&gt;Location: 3991158 - 3991899" locus_tag="input.path1.gene1179" class="clusterblast-orf" id="dummy-3_q3_0_all"  />
<polygon points="168,40 191,40 196,35 191,30 168,30 168,40 " style="fill:#d86315; stroke-width:1; stroke:black; " description="&lt;b&gt;input.path1.gene1180&lt;/b&gt;&lt;br&gt;input.path1.gene1180&lt;br&gt;Location: 3992489 - 3995140" locus_tag="input.path1.gene1180" class="clusterblast-orf" id="dummy-3_q4_0_all"  />
<polygon points="208,40 212,40 217,35 212,30 208,30 208,40 " style="fill:#d86315; stroke-width:1; stroke:black; " description="&lt;b&gt;input.path1.gene1181&lt;/b&gt;&lt;br&gt;input.path1.gene1181&lt;br&gt;Location: 3996219 - 3997081" locus_tag="input.path1.gene1181" class="clusterblast-orf" id="dummy-3_q5_0_all"  />
<polygon points="221,40 225,40 230,35 225,30 221,30 221,40 " style="fill:#d86315; stroke-width:1; stroke:black; " description="&lt;b&gt;input.path1.gene1182&lt;/b&gt;&lt;br&gt;input.path1.gene1182&lt;br&gt;Location: 3997476 - 3998320" locus_tag="input.path1.gene1182" class="clusterblast-orf" id="dummy-3_q6_0_all"  />
<polygon points="250,35 255,30 258,30 258,40 255,40 250,35 " style="fill:#15d815; stroke-width:1; stroke:black; " description="&lt;b&gt;input.path1.gene1183&lt;/b&gt;&lt;br&gt;input.path1.gene1183&lt;br&gt;Location: 4000192 - 4001021" locus_tag="input.path1.gene1183" class="clusterblast-orf" id="dummy-3_q7_0_all"  />
<polygon points="289,35 294,30 299,30 299,40 294,40 289,35 " style="fill:#1563d8; stroke-width:1; stroke:black; " description="&lt;b&gt;input.path1.gene1184&lt;/b&gt;&lt;br&gt;input.path1.gene1184&lt;br&gt;Location: 4003953 - 4004838" locus_tag="input.path1.gene1184" class="clusterblast-orf" id="dummy-3_q8_0_all"  />
<polygon points="314,40 317,35 314,30 314,40 " style="fill:white; stroke-width:1; stroke:black; " description="&lt;b&gt;input.path1.gene1185&lt;/b&gt;&lt;br&gt;input.path1.gene1185&lt;br&gt;Location: 4006297 - 4006541" locus_tag="input.path1.gene1185" class="clusterblast-orf" id="dummy-3_q9_0_all"  />
<polygon points="366,40 370,40 375,35 370,30 366,30 366,40 " style="fill:white; stroke-width:1; stroke:black; " description="&lt;b&gt;input.path1.gene1186&lt;/b&gt;&lt;br&gt;input.path1.gene1186&lt;br&gt;Location: 4011182 - 4012029" locus_tag="input.path1.gene1186" class="clusterblast-orf" id="dummy-3_q10_0_all"  />
<polygon points="393,35 398,30 400,30 400,40 398,40 393,35 " style="fill:#d815b1; stroke-width:1; stroke:black; " description="&lt;b&gt;input.path1.gene1187&lt;/b&gt;&lt;br&gt;input.path1.gene1187&lt;br&gt;Location: 4013760 - 4014400" locus_tag="input.path1.gene1187" class="clusterblast-orf" id="dummy-3_q11_0_all"  />
<polygon points="408,40 412,35 408,30 408,40 " style="fill:#d8b115; stroke-width:1; stroke:black; " description="&lt;b&gt;input.path1.gene1188&lt;/b&gt;&lt;br&gt;input.path1.gene1188&lt;br&gt;Location: 4015152 - 4015552" locus_tag="input.path1.gene1188" class="clusterblast-orf" id="dummy-3_q12_0_all"  />
<polygon points="431,40 473,40 478,35 473,30 431,30 431,40 " style="fill:#15d863; stroke-width:1; stroke:black; " description="&lt;b&gt;input.path1.gene1189&lt;/b&gt;&lt;br&gt;input.path1.gene1189&lt;br&gt;Location: 4017343 - 4021776" locus_tag="input.path1.gene1189" class="clusterblast-orf" id="dummy-3_q13_0_all"  />
<polygon points="479,35 484,30 502,30 502,40 484,40 479,35 " style="fill:white; stroke-width:1; stroke:black; " description="&lt;b&gt;input.path1.gene1190&lt;/b&gt;&lt;br&gt;input.path1.gene1190&lt;br&gt;Location: 4021888 - 4024100" locus_tag="input.path1.gene1190" class="clusterblast-orf" id="dummy-3_q14_0_all"  />
<polygon points="515,35 520,30 543,30 543,40 520,40 515,35 " style="fill:#1515d8; stroke-width:1; stroke:black; " description="&lt;b&gt;input.path1.gene1191&lt;/b&gt;&lt;br&gt;input.path1.gene1191&lt;br&gt;Location: 4025260 - 4027917" locus_tag="input.path1.gene1191" class="clusterblast-orf" id="dummy-3_q15_0_all"  />
<polygon points="578,35 582,30 582,40 578,35 " style="fill:#d81563; stroke-width:1; stroke:black; " description="&lt;b&gt;input.path1.gene1192&lt;/b&gt;&lt;br&gt;input.path1.gene1192&lt;br&gt;Location: 4031217 - 4031620" locus_tag="input.path1.gene1192" class="clusterblast-orf" id="dummy-3_q16_0_all"  />
<polygon points="621,40 634,40 639,35 634,30 621,30 621,40 " style="fill:#b1d815; stroke-width:1; stroke:black; " description="&lt;b&gt;input.path1.gene1193&lt;/b&gt;&lt;br&gt;input.path1.gene1193&lt;br&gt;Location: 4035328 - 4037042" locus_tag="input.path1.gene1193" class="clusterblast-orf" id="dummy-3_q17_0_all"  />
<polygon points="641,35 646,30 662,30 662,40 646,40 641,35 " style="fill:#15d8b1; stroke-width:1; stroke:black; " description="&lt;b&gt;input.path1.gene1194&lt;/b&gt;&lt;br&gt;input.path1.gene1194&lt;br&gt;Location: 4037199 - 4039181" locus_tag="input.path1.gene1194" class="clusterblast-orf" id="dummy-3_q18_0_all"  />
<polygon points="667,40 673,40 678,35 673,30 667,30 667,40 " style="fill:#6315d8; stroke-width:1; stroke:black; " description="&lt;b&gt;input.path1.gene1195&lt;/b&gt;&lt;br&gt;input.path1.gene1195&lt;br&gt;Location: 4039688 - 4040723" locus_tag="input.path1.gene1195" class="clusterblast-orf" id="dummy-3_q19_0_all"  />
</g>
<g label="NC_054857" description="NC_054857 (566681-641954): Aspergillus puulaauensis MK2 DNA, chromosome 1, ne... (10% of genes show similarity), NRPS" class="clusterblast-cluster"  >
<text x="5" y="70" class="clusterblast-acc"  >
<a xlink:href="https://antismash-db.secondarymetabolites.org/area?record=NC_054857&amp;start=566681&amp;end=641954" target="_blank">NC_054857 (566681-641954)</a>: Aspergillus puulaauensis MK2 DNA, chromosome 1, ne... (10% of genes show similarity), NRPS</text>
<line x1="10" y1="85" x2="778.0" y2="85" style="stroke-width:1; stroke:grey; "  />
</g>
<g id="a3_000"  >
<polygon points="0,85 5,80 6,80 6,90 5,90 0,85 " style="fill:white; stroke-width:1; stroke:black; " description="&lt;b&gt;APUU_10296S&lt;/b&gt;&lt;br&gt;uncharacterized protein&lt;br&gt;Location: 641013 - 640353" locus_tag="APUU_10296S" class="clusterblast-orf" id="dummy-3_h3_10_0"  />
</g>
<g id="a3_001"  >
<polygon points="27,85 32,80 36,80 36,90 32,90 27,85 " style="fill:white; stroke-width:1; stroke:black; " description="&lt;b&gt;APUU_10295S&lt;/b&gt;&lt;br&gt;uncharacterized protein&lt;br&gt;Location: 638451 - 637562" locus_tag="APUU_10295S" class="clusterblast-orf" id="dummy-3_h3_10_1"  />
</g>
<g id="a3_002"  >
<polygon points="42,85 47,80 53,80 53,90 47,90 42,85 " style="fill:white; stroke-width:1; stroke:black; " description="&lt;b&gt;APUU_10294S&lt;/b&gt;&lt;br&gt;uncharacterized protein&lt;br&gt;Location: 636960 - 635909" locus_tag="APUU_10294S" class="clusterblast-orf" id="dummy-3_h3_10_2"  />
</g>
<g id="a3_003"  >
<polygon points="58,85 63,80 76,80 76,90 63,90 58,85 " style="fill:white; stroke-width:1; stroke:black; " description="&lt;b&gt;APUU_10293S&lt;/b&gt;&lt;br&gt;uncharacterized protein&lt;br&gt;Location: 635491 - 633766" locus_tag="APUU_10293S" class="clusterblast-orf" id="dummy-3_h3_10_3"  />
</g>
<g id="a3_004"  >
<polygon points="88,85 93,80 103,80 103,90 93,90 88,85 " style="fill:white; stroke-width:1; stroke:black; " description="&lt;b&gt;APUU_10292S&lt;/b&gt;&lt;br&gt;uncharacterized protein&lt;br&gt;Location: 632602 - 631236" locus_tag="APUU_10292S" class="clusterblast-orf" id="dummy-3_h3_10_4"  />
</g>
<g id="a3_005"  >
<polygon points="112,85 117,80 130,80 130,90 117,90 112,85 " style="fill:white; stroke-width:1; stroke:black; " description="&lt;b&gt;APUU_10291S&lt;/b&gt;&lt;br&gt;uncharacterized protein&lt;br&gt;Location: 630349 - 628662" locus_tag="APUU_10291S" class="clusterblast-orf" id="dummy-3_h3_10_5"  />
</g>
<g id="a3_006"  >
<polygon points="143,90 145,90 150,85 145,80 143,80 143,90 " style="fill:#d86315; stroke-width:1; stroke:black; " description="&lt;b&gt;APUU_10290A&lt;/b&gt;&lt;br&gt;multifunctional pyrimidine synthesis protein CAD&lt;br&gt;Location: 627467 - 626812&lt;br&gt;&lt;br&gt;&lt;b&gt;BlastP hit with input.path1.gene1180&lt;/b&gt;&lt;br&gt;Percentage identity: 53&lt;br&gt;Percentage coverage: 15&lt;br&gt;BLAST bit score: 93&lt;br&gt;E-value: 6.47e-20" locus_tag="APUU_10290A" class="clusterblast-orf" id="dummy-3_h3_10_6"  />
</g>
<g id="a3_007"  >
<polygon points="157,90 161,85 157,80 157,90 " style="fill:white; stroke-width:1; stroke:black; " description="&lt;b&gt;APUU_10289A&lt;/b&gt;&lt;br&gt;uncharacterized protein&lt;br&gt;Location: 626125 - 625712" locus_tag="APUU_10289A" class="clusterblast-orf" id="dummy-3_h3_10_7"  />
</g>
<g id="a3_008"  >
<polygon points="166,90 168,90 173,85 168,80 166,80 166,90 " style="fill:white; stroke-width:1; stroke:black; " description="&lt;b&gt;APUU_10288A&lt;/b&gt;&lt;br&gt;uncharacterized protein&lt;br&gt;Location: 625288 - 624572" locus_tag="APUU_10288A" class="clusterblast-orf" id="dummy-3_h3_10_8"  />
</g>
<g id="a3_009"  >
<polygon points="175,90 183,90 188,85 183,80 175,80 175,90 " style="fill:white; stroke-width:1; stroke:black; " description="&lt;b&gt;APUU_10287A&lt;/b&gt;&lt;br&gt;putative secondary metabolism biosynthetic enzyme&lt;br&gt;Location: 624394 - 623188" locus_tag="APUU_10287A" class="clusterblast-orf" id="dummy-3_h3_10_9"  />
</g>
<g id="a3_0010"  >
<polygon points="191,90 194,85 191,80 191,90 " style="fill:white; stroke-width:1; stroke:black; " description="&lt;b&gt;APUU_10286A&lt;/b&gt;&lt;br&gt;uncharacterized protein&lt;br&gt;Location: 622904 - 622590" locus_tag="APUU_10286A" class="clusterblast-orf" id="dummy-3_h3_10_10"  />
</g>
<g id="a3_0011"  >
<polygon points="200,90 207,90 212,85 207,80 200,80 200,90 " style="fill:white; stroke-width:1; stroke:black; " description="&lt;b&gt;APUU_10285A&lt;/b&gt;&lt;br&gt;uncharacterized protein&lt;br&gt;Location: 622069 - 620880" locus_tag="APUU_10285A" class="clusterblast-orf" id="dummy-3_h3_10_11"  />
</g>
<g id="a3_0012"  >
<polygon points="214,85 219,80 230,80 230,90 219,90 214,85 " style="fill:white; stroke-width:1; stroke:black; " description="&lt;b&gt;APUU_10284S&lt;/b&gt;&lt;br&gt;uncharacterized protein&lt;br&gt;Location: 620736 - 619212" locus_tag="APUU_10284S" class="clusterblast-orf" id="dummy-3_h3_10_12"  />
</g>
<g id="a3_0013"  >
<polygon points="240,85 245,80 250,80 250,90 245,90 240,85 " style="fill:white; stroke-width:1; stroke:black; " description="&lt;b&gt;APUU_10283S&lt;/b&gt;&lt;br&gt;uncharacterized protein&lt;br&gt;Location: 618227 - 617289" locus_tag="APUU_10283S" class="clusterblast-orf" id="dummy-3_h3_10_13"  />
</g>
<g id="a3_0014"  >
<polygon points="257,90 276,90 281,85 276,80 257,80 257,90 " style="fill:white; stroke-width:1; stroke:black; " description="&lt;b&gt;APUU_10282A&lt;/b&gt;&lt;br&gt;uncharacterized protein&lt;br&gt;Location: 616661 - 614374" locus_tag="APUU_10282A" class="clusterblast-orf" id="dummy-3_h3_10_14"  />
</g>
<g id="a3_0015"  >
<polygon points="286,90 296,90 301,85 296,80 286,80 286,90 " style="fill:white; stroke-width:1; stroke:black; " description="&lt;b&gt;APUU_10281A&lt;/b&gt;&lt;br&gt;uncharacterized protein&lt;br&gt;Location: 613901 - 612485" locus_tag="APUU_10281A" class="clusterblast-orf" id="dummy-3_h3_10_15"  />
</g>
<g id="a3_0016"  >
<polygon points="307,85 312,80 468,80 468,90 312,90 307,85 " style="fill:white; stroke-width:1; stroke:black; " description="&lt;b&gt;APUU_10280S&lt;/b&gt;&lt;br&gt;non-ribosomal peptide synthetase&lt;br&gt;Location: 611954 - 596682" locus_tag="APUU_10280S" class="clusterblast-orf" id="dummy-3_h3_10_16"  />
</g>
<g id="a3_0017"  >
<polygon points="492,90 524,90 529,85 524,80 492,80 492,90 " style="fill:#15d863; stroke-width:1; stroke:black; " description="&lt;b&gt;APUU_10279A&lt;/b&gt;&lt;br&gt;uncharacterized protein&lt;br&gt;Location: 594435 - 590984&lt;br&gt;&lt;br&gt;&lt;b&gt;BlastP hit with input.path1.gene1189&lt;/b&gt;&lt;br&gt;Percentage identity: 31&lt;br&gt;Percentage coverage: 80&lt;br&gt;BLAST bit score: 383&lt;br&gt;E-value: 3.49e-113" locus_tag="APUU_10279A" class="clusterblast-orf" id="dummy-3_h3_10_17"  />
</g>
<g id="a3_0018"  >
<polygon points="529,90 541,90 546,85 541,80 529,80 529,90 " style="fill:#15d863; stroke-width:1; stroke:black; " description="&lt;b&gt;APUU_10278A&lt;/b&gt;&lt;br&gt;uncharacterized protein&lt;br&gt;Location: 590964 - 589322&lt;br&gt;&lt;br&gt;&lt;b&gt;BlastP hit with input.path1.gene1189&lt;/b&gt;&lt;br&gt;Percentage identity: 39&lt;br&gt;Percentage coverage: 23&lt;br&gt;BLAST bit score: 182&lt;br&gt;E-value: 5.31e-47" locus_tag="APUU_10278A" class="clusterblast-orf" id="dummy-3_h3_10_18"  />
</g>
<g id="a3_0019"  >
<polygon points="553,85 558,80 565,80 565,90 558,90 553,85 " style="fill:white; stroke-width:1; stroke:black; " description="&lt;b&gt;APUU_10277S&lt;/b&gt;&lt;br&gt;uncharacterized protein&lt;br&gt;Location: 588724 - 587567" locus_tag="APUU_10277S" class="clusterblast-orf" id="dummy-3_h3_10_19"  />
</g>
<g id="a3_0020"  >
<polygon points="568,85 573,80 574,80 574,90 573,90 568,85 " style="fill:white; stroke-width:1; stroke:black; " description="&lt;b&gt;APUU_10276S&lt;/b&gt;&lt;br&gt;uncharacterized protein&lt;br&gt;Location: 587275 - 586685" locus_tag="APUU_10276S" class="clusterblast-orf" id="dummy-3_h3_10_20"  />
</g>
<g id="a3_0021"  >
<polygon points="577,90 588,90 593,85 588,80 577,80 577,90 " style="fill:white; stroke-width:1; stroke:black; " description="&lt;b&gt;APUU_10275A&lt;/b&gt;&lt;br&gt;uncharacterized protein&lt;br&gt;Location: 586446 - 584917" locus_tag="APUU_10275A" class="clusterblast-orf" id="dummy-3_h3_10_21"  />
</g>
<g id="a3_0022"  >
<polygon points="598,90 622,90 627,85 622,80 598,80 598,90 " style="fill:white; stroke-width:1; stroke:black; " description="&lt;b&gt;APUU_10274A&lt;/b&gt;&lt;br&gt;uncharacterized protein&lt;br&gt;Location: 584390 - 581727" locus_tag="APUU_10274A" class="clusterblast-orf" id="dummy-3_h3_10_22"  />
</g>
<g id="a3_0023"  >
<polygon points="629,85 634,80 639,80 639,90 634,90 629,85 " style="fill:white; stroke-width:1; stroke:black; " description="&lt;b&gt;APUU_10273S&lt;/b&gt;&lt;br&gt;uncharacterized protein&lt;br&gt;Location: 581520 - 580559" locus_tag="APUU_10273S" class="clusterblast-orf" id="dummy-3_h3_10_23"  />
</g>
<g id="a3_0024"  >
<polygon points="641,85 646,80 670,80 670,90 646,90 641,85 " style="fill:white; stroke-width:1; stroke:black; " description="&lt;b&gt;APUU_10272S&lt;/b&gt;&lt;br&gt;uncharacterized protein&lt;br&gt;Location: 580317 - 577659" locus_tag="APUU_10272S" class="clusterblast-orf" id="dummy-3_h3_10_24"  />
</g>
<g id="a3_0025"  >
<polygon points="675,85 680,80 685,80 685,90 680,90 675,85 " style="fill:white; stroke-width:1; stroke:black; " description="&lt;b&gt;APUU_10271S&lt;/b&gt;&lt;br&gt;uncharacterized protein&lt;br&gt;Location: 577106 - 576184" locus_tag="APUU_10271S" class="clusterblast-orf" id="dummy-3_h3_10_25"  />
</g>
<g id="a3_0026"  >
<polygon points="688,90 707,90 712,85 707,80 688,80 688,90 " style="fill:white; stroke-width:1; stroke:black; " description="&lt;b&gt;APUU_10270A&lt;/b&gt;&lt;br&gt;uncharacterized protein&lt;br&gt;Location: 575892 - 573616" locus_tag="APUU_10270A" class="clusterblast-orf" id="dummy-3_h3_10_26"  />
</g>
<g id="a3_0027"  >
<polygon points="727,85 732,80 739,80 739,90 732,90 727,85 " style="fill:white; stroke-width:1; stroke:black; " description="&lt;b&gt;APUU_10269S&lt;/b&gt;&lt;br&gt;uncharacterized protein&lt;br&gt;Location: 572265 - 571064" locus_tag="APUU_10269S" class="clusterblast-orf" id="dummy-3_h3_10_27"  />
</g>
<g id="a3_0028"  >
<polygon points="743,90 749,90 754,85 749,80 743,80 743,90 " style="fill:white; stroke-width:1; stroke:black; " description="&lt;b&gt;APUU_10268A&lt;/b&gt;&lt;br&gt;uncharacterized protein&lt;br&gt;Location: 570744 - 569650" locus_tag="APUU_10268A" class="clusterblast-orf" id="dummy-3_h3_10_28"  />
</g>
<g id="a3_0029"  >
<polygon points="757,90 775,90 780,85 775,80 757,80 757,90 " style="fill:white; stroke-width:1; stroke:black; " description="&lt;b&gt;APUU_10267A&lt;/b&gt;&lt;br&gt;uncharacterized protein&lt;br&gt;Location: 569363 - 567265" locus_tag="APUU_10267A" class="clusterblast-orf" id="dummy-3_h3_10_29"  />
</g>
</svg>
