<svg xmlns="http://www.w3.org/2000/svg" xmlns:xlink="http://www.w3.org/1999/xlink" version="1.1" x="0" y="0" height="230" width="800" viewBox="0 0 800 230" preserveAspectRatio="none"  >
<g label="Query sequence" class="clusterblast-cluster"  >
<text x="5" y="20" class="clusterblast-acc"  >
Query sequence</text>
<line x1="10" y1="35" x2="778.0" y2="35" style="stroke-width:1; stroke:grey; "  />
<polygon points="54,35 59,30 94,30 94,40 59,40 54,35 " style="fill:#d81515; stroke-width:1; stroke:black; " description="&lt;b&gt;input.path1.gene250&lt;/b&gt;&lt;br&gt;input.path1.gene250&lt;br&gt;Location: 857939 - 860574" locus_tag="input.path1.gene250" class="clusterblast-orf" id="dummy-2_q0_0_all"  />
<polygon points="111,40 115,35 111,30 111,40 " style="fill:white; stroke-width:1; stroke:black; " description="&lt;b&gt;input.path1.gene251&lt;/b&gt;&lt;br&gt;input.path1.gene251&lt;br&gt;Location: 861714 - 861938" locus_tag="input.path1.gene251" class="clusterblast-orf" id="dummy-2_q1_0_all"  />
<polygon points="121,40 133,40 138,35 133,30 121,30 121,40 " style="fill:white; stroke-width:1; stroke:black; " description="&lt;b&gt;input.path1.gene252&lt;/b&gt;&lt;br&gt;input.path1.gene252&lt;br&gt;Location: 862385 - 863501" locus_tag="input.path1.gene252" class="clusterblast-orf" id="dummy-2_q2_0_all"  />
<polygon points="156,40 164,40 169,35 164,30 156,30 156,40 " style="fill:#33d815; stroke-width:1; stroke:black; " description="&lt;b&gt;input.path1.gene253&lt;/b&gt;&lt;br&gt;input.path1.gene253&lt;br&gt;Location: 864697 - 865493" locus_tag="input.path1.gene253" class="clusterblast-orf" id="dummy-2_q3_0_all"  />
<polygon points="181,35 186,30 193,30 193,40 186,40 181,35 " style="fill:#15abd8; stroke-width:1; stroke:black; " description="&lt;b&gt;input.path1.gene254&lt;/b&gt;&lt;br&gt;input.path1.gene254&lt;br&gt;Location: 866338 - 867081" locus_tag="input.path1.gene254" class="clusterblast-orf" id="dummy-2_q4_0_all"  />
<polygon points="264,40 275,40 280,35 275,30 264,30 264,40 " style="fill:#8d15d8; stroke-width:1; stroke:black; " description="&lt;b&gt;input.path1.gene255&lt;/b&gt;&lt;br&gt;input.path1.gene255&lt;br&gt;Location: 871816 - 872878" locus_tag="input.path1.gene255" class="clusterblast-orf" id="dummy-2_q5_0_all"  />
<polygon points="284,35 289,30 302,30 302,40 289,40 284,35 " style="fill:#d86f15; stroke-width:1; stroke:black; " description="&lt;b&gt;input.path1.gene256&lt;/b&gt;&lt;br&gt;input.path1.gene256&lt;br&gt;Location: 873137 - 874281" locus_tag="input.path1.gene256" class="clusterblast-orf" id="dummy-2_q6_0_all"  />
<polygon points="341,40 419,40 424,35 419,30 341,30 341,40 " style="fill:#15d851; stroke-width:1; stroke:black; " description="&lt;b&gt;input.path1.gene257&lt;/b&gt;&lt;br&gt;input.path1.gene257&lt;br&gt;Location: 876909 - 882360" locus_tag="input.path1.gene257" class="clusterblast-orf" id="dummy-2_q7_0_all"  />
<polygon points="429,35 434,30 457,30 457,40 434,40 429,35 " style="fill:#1551d8; stroke-width:1; stroke:black; " description="&lt;b&gt;input.path1.gene258&lt;/b&gt;&lt;br&gt;input.path1.gene258&lt;br&gt;Location: 882708 - 884544" locus_tag="input.path1.gene258" class="clusterblast-orf" id="dummy-2_q8_0_all"  />
<polygon points="492,35 497,30 514,30 514,40 497,40 492,35 " style="fill:#d815c9; stroke-width:1; stroke:black; " description="&lt;b&gt;input.path1.gene259&lt;/b&gt;&lt;br&gt;input.path1.gene259&lt;br&gt;Location: 886881 - 888306" locus_tag="input.path1.gene259" class="clusterblast-orf" id="dummy-2_q9_0_all"  />
<polygon points="564,40 576,40 581,35 576,30 564,30 564,40 " style="fill:#d8c915; stroke-width:1; stroke:black; " description="&lt;b&gt;input.path1.gene260&lt;/b&gt;&lt;br&gt;input.path1.gene260&lt;br&gt;Location: 891626 - 892766" locus_tag="input.path1.gene260" class="clusterblast-orf" id="dummy-2_q10_0_all"  />
<polygon points="589,35 594,30 611,30 611,40 594,40 589,35 " style="fill:#15d8ab; stroke-width:1; stroke:black; " description="&lt;b&gt;input.path1.gene261&lt;/b&gt;&lt;br&gt;input.path1.gene261&lt;br&gt;Location: 893263 - 894749" locus_tag="input.path1.gene261" class="clusterblast-orf" id="dummy-2_q11_0_all"  />
<polygon points="624,35 629,30 644,30 644,40 629,40 624,35 " style="fill:#3315d8; stroke-width:1; stroke:black; " description="&lt;b&gt;input.path1.gene262&lt;/b&gt;&lt;br&gt;input.path1.gene262&lt;br&gt;Location: 895574 - 896888" locus_tag="input.path1.gene262" class="clusterblast-orf" id="dummy-2_q12_0_all"  />
<polygon points="683,40 692,40 697,35 692,30 683,30 683,40 " style="fill:#d8156f; stroke-width:1; stroke:black; " description="&lt;b&gt;input.path1.gene263&lt;/b&gt;&lt;br&gt;input.path1.gene263&lt;br&gt;Location: 899494 - 900409" locus_tag="input.path1.gene263" class="clusterblast-orf" id="dummy-2_q13_0_all"  />
<polygon points="708,35 713,30 725,30 725,40 713,40 708,35 " style="fill:#8dd815; stroke-width:1; stroke:black; " description="&lt;b&gt;input.path1.gene264&lt;/b&gt;&lt;br&gt;input.path1.gene264&lt;br&gt;Location: 901154 - 902257" locus_tag="input.path1.gene264" class="clusterblast-orf" id="dummy-2_q14_0_all"  />
</g>
<g label="NW_025408674" description="NW_025408674 (2031871-2095823): Hirsutella rhossiliensis strain HR02 chromoso... (43% of genes show similarity), NRPS" class="clusterblast-cluster"  >
<text x="5" y="70" class="clusterblast-acc"  >
<a xlink:href="https://antismash-db.secondarymetabolites.org/area?record=NW_025408674&amp;start=2031871&amp;end=2095823" target="_blank">NW_025408674 (2031871-2095823)</a>: Hirsutella rhossiliensis strain HR02 chromoso... (43% of genes show similarity), NRPS</text>
<line x1="10" y1="85" x2="778.0" y2="85" style="stroke-width:1; stroke:grey; "  />
</g>
<g id="a2_000"  >
<polygon points="0,90 7,90 12,85 7,80 0,80 0,90 " style="fill:white; stroke-width:1; stroke:black; " description="&lt;b&gt;HRG_07573&lt;/b&gt;&lt;br&gt;uncharacterized protein&lt;br&gt;Location: 2043155 - 2044000" locus_tag="HRG_07573" class="clusterblast-orf" id="dummy-2_h2_2_0"  />
</g>
<g id="a2_001"  >
<polygon points="31,85 36,80 52,80 52,90 36,90 31,85 " style="fill:white; stroke-width:1; stroke:black; " description="&lt;b&gt;HRG_07574&lt;/b&gt;&lt;br&gt;cytochrome p450 domain-containing protein&lt;br&gt;Location: 2045268 - 2046653" locus_tag="HRG_07574" class="clusterblast-orf" id="dummy-2_h2_2_1"  />
</g>
<g id="a2_002"  >
<polygon points="74,90 76,90 81,85 76,80 74,80 74,90 " style="fill:white; stroke-width:1; stroke:black; " description="&lt;b&gt;HRG_07575&lt;/b&gt;&lt;br&gt;dolichol-phosphate mannosyltransferase subunit 3 (DPM3) domain-containing protein&lt;br&gt;Location: 2048105 - 2048531" locus_tag="HRG_07575" class="clusterblast-orf" id="dummy-2_h2_2_2"  />
</g>
<g id="a2_003"  >
<polygon points="84,85 89,80 114,80 114,90 89,90 84,85 " style="fill:#d81515; stroke-width:1; stroke:black; " description="&lt;b&gt;HRG_07576&lt;/b&gt;&lt;br&gt;uncharacterized protein&lt;br&gt;Location: 2048718 - 2050734&lt;br&gt;&lt;br&gt;&lt;b&gt;BlastP hit with input.path1.gene250&lt;/b&gt;&lt;br&gt;Percentage identity: 36&lt;br&gt;Percentage coverage: 80&lt;br&gt;BLAST bit score: 219&lt;br&gt;E-value: 2.44e-61" locus_tag="HRG_07576" class="clusterblast-orf" id="dummy-2_h2_2_3"  />
</g>
<g id="a2_004"  >
<polygon points="123,90 131,90 136,85 131,80 123,80 123,90 " style="fill:#33d815; stroke-width:1; stroke:black; " description="&lt;b&gt;HRG_07577&lt;/b&gt;&lt;br&gt;Oxidoreductase-like protein&lt;br&gt;Location: 2051341 - 2052162&lt;br&gt;&lt;br&gt;&lt;b&gt;BlastP hit with input.path1.gene253&lt;/b&gt;&lt;br&gt;Percentage identity: 51&lt;br&gt;Percentage coverage: 93&lt;br&gt;BLAST bit score: 217&lt;br&gt;E-value: 7.49e-69" locus_tag="HRG_07577" class="clusterblast-orf" id="dummy-2_h2_2_4"  />
</g>
<g id="a2_005"  >
<polygon points="144,85 149,80 155,80 155,90 149,90 144,85 " style="fill:#15abd8; stroke-width:1; stroke:black; " description="&lt;b&gt;HRG_07578&lt;/b&gt;&lt;br&gt;phosphoribosyl transferase domain-containing protein&lt;br&gt;Location: 2052672 - 2053422&lt;br&gt;&lt;br&gt;&lt;b&gt;BlastP hit with input.path1.gene254&lt;/b&gt;&lt;br&gt;Percentage identity: 83&lt;br&gt;Percentage coverage: 97&lt;br&gt;BLAST bit score: 332&lt;br&gt;E-value: 2.73e-115" locus_tag="HRG_07578" class="clusterblast-orf" id="dummy-2_h2_2_5"  />
</g>
<g id="a2_006"  >
<polygon points="178,90 202,90 207,85 202,80 178,80 178,90 " style="fill:white; stroke-width:1; stroke:black; " description="&lt;b&gt;HRG_07579&lt;/b&gt;&lt;br&gt;pyridoxal-phosphate dependent enzyme domain-containing protein&lt;br&gt;Location: 2054962 - 2056841" locus_tag="HRG_07579" class="clusterblast-orf" id="dummy-2_h2_2_6"  />
</g>
<g id="a2_007"  >
<polygon points="215,85 220,80 242,80 242,90 220,90 215,85 " style="fill:#d86f15; stroke-width:1; stroke:black; " description="&lt;b&gt;HRG_07580&lt;/b&gt;&lt;br&gt;cytochrome p450 domain-containing protein&lt;br&gt;Location: 2057361 - 2059182&lt;br&gt;&lt;br&gt;&lt;b&gt;BlastP hit with input.path1.gene256&lt;/b&gt;&lt;br&gt;Percentage identity: 52&lt;br&gt;Percentage coverage: 103&lt;br&gt;BLAST bit score: 342&lt;br&gt;E-value: 1.2e-112" locus_tag="HRG_07580" class="clusterblast-orf" id="dummy-2_h2_2_7"  />
</g>
<g id="a2_008"  >
<polygon points="283,90 338,90 343,85 338,80 283,80 283,90 " style="fill:#15d851; stroke-width:1; stroke:black; " description="&lt;b&gt;HRG_07581&lt;/b&gt;&lt;br&gt;AMP-binding enzyme domain-containing protein&lt;br&gt;Location: 2061872 - 2065823&lt;br&gt;&lt;br&gt;&lt;b&gt;BlastP hit with input.path1.gene257&lt;/b&gt;&lt;br&gt;Percentage identity: 42&lt;br&gt;Percentage coverage: 76&lt;br&gt;BLAST bit score: 874&lt;br&gt;E-value: 3.5e-293" locus_tag="HRG_07581" class="clusterblast-orf" id="dummy-2_h2_2_8"  />
</g>
<g id="a2_009"  >
<polygon points="346,85 351,80 363,80 363,90 351,90 346,85 " style="fill:white; stroke-width:1; stroke:black; " description="&lt;b&gt;HRG_07582&lt;/b&gt;&lt;br&gt;uncharacterized protein&lt;br&gt;Location: 2066053 - 2067150" locus_tag="HRG_07582" class="clusterblast-orf" id="dummy-2_h2_2_9"  />
</g>
<g id="a2_0010"  >
<polygon points="374,85 379,80 411,80 411,90 379,90 374,85 " style="fill:#1551d8; stroke-width:1; stroke:black; " description="&lt;b&gt;HRG_07583&lt;/b&gt;&lt;br&gt;integral peroxisomal membrane peroxin domain-containing protein&lt;br&gt;Location: 2067909 - 2070311&lt;br&gt;&lt;br&gt;&lt;b&gt;BlastP hit with input.path1.gene258&lt;/b&gt;&lt;br&gt;Percentage identity: 62&lt;br&gt;Percentage coverage: 104&lt;br&gt;BLAST bit score: 717&lt;br&gt;E-value: 3.04e-254" locus_tag="HRG_07583" class="clusterblast-orf" id="dummy-2_h2_2_10"  />
</g>
<g id="a2_0011"  >
<polygon points="433,85 438,80 456,80 456,90 438,90 433,85 " style="fill:white; stroke-width:1; stroke:black; " description="&lt;b&gt;HRG_07584&lt;/b&gt;&lt;br&gt;methyltransferase domain-containing protein&lt;br&gt;Location: 2071771 - 2073290" locus_tag="HRG_07584" class="clusterblast-orf" id="dummy-2_h2_2_11"  />
</g>
<g id="a2_0012"  >
<polygon points="485,85 490,80 509,80 509,90 490,90 485,85 " style="fill:#15d8ab; stroke-width:1; stroke:black; " description="&lt;b&gt;HRG_07585&lt;/b&gt;&lt;br&gt;ribosomal subunit 39S domain-containing protein&lt;br&gt;Location: 2075246 - 2076791&lt;br&gt;&lt;br&gt;&lt;b&gt;BlastP hit with input.path1.gene261&lt;/b&gt;&lt;br&gt;Percentage identity: 42&lt;br&gt;Percentage coverage: 73&lt;br&gt;BLAST bit score: 239&lt;br&gt;E-value: 9.96e-72" locus_tag="HRG_07585" class="clusterblast-orf" id="dummy-2_h2_2_12"  />
</g>
<g id="a2_0013"  >
<polygon points="510,90 514,90 519,85 514,80 510,80 510,90 " style="fill:white; stroke-width:1; stroke:black; " description="&lt;b&gt;HRG_07586&lt;/b&gt;&lt;br&gt;MFS transporter&lt;br&gt;Location: 2076855 - 2077453" locus_tag="HRG_07586" class="clusterblast-orf" id="dummy-2_h2_2_13"  />
</g>
<g id="a2_0014"  >
<polygon points="523,85 528,80 544,80 544,90 528,90 523,85 " style="fill:#3315d8; stroke-width:1; stroke:black; " description="&lt;b&gt;HRG_07587&lt;/b&gt;&lt;br&gt;DAHP synthetase I family domain-containing protein&lt;br&gt;Location: 2077737 - 2079091&lt;br&gt;&lt;br&gt;&lt;b&gt;BlastP hit with input.path1.gene262&lt;/b&gt;&lt;br&gt;Percentage identity: 86&lt;br&gt;Percentage coverage: 99&lt;br&gt;BLAST bit score: 609&lt;br&gt;E-value: 6.24e-220" locus_tag="HRG_07587" class="clusterblast-orf" id="dummy-2_h2_2_14"  />
</g>
<g id="a2_0015"  >
<polygon points="574,90 584,90 589,85 584,80 574,80 574,90 " style="fill:#d8156f; stroke-width:1; stroke:black; " description="&lt;b&gt;HRG_07588&lt;/b&gt;&lt;br&gt;uncharacterized protein&lt;br&gt;Location: 2081076 - 2082103&lt;br&gt;&lt;br&gt;&lt;b&gt;BlastP hit with input.path1.gene263&lt;/b&gt;&lt;br&gt;Percentage identity: 45&lt;br&gt;Percentage coverage: 98&lt;br&gt;BLAST bit score: 190&lt;br&gt;E-value: 9.5e-58" locus_tag="HRG_07588" class="clusterblast-orf" id="dummy-2_h2_2_15"  />
</g>
<g id="a2_0016"  >
<polygon points="602,85 607,80 616,80 616,90 607,90 602,85 " style="fill:#8dd815; stroke-width:1; stroke:black; " description="&lt;b&gt;HRG_07589&lt;/b&gt;&lt;br&gt;cytochrome oxidase c assembly domain-containing protein&lt;br&gt;Location: 2082968 - 2083887&lt;br&gt;&lt;br&gt;&lt;b&gt;BlastP hit with input.path1.gene264&lt;/b&gt;&lt;br&gt;Percentage identity: 67&lt;br&gt;Percentage coverage: 102&lt;br&gt;BLAST bit score: 342&lt;br&gt;E-value: 5.54e-117" locus_tag="HRG_07589" class="clusterblast-orf" id="dummy-2_h2_2_16"  />
</g>
<g id="a2_0017"  >
<polygon points="635,90 644,90 649,85 644,80 635,80 635,90 " style="fill:white; stroke-width:1; stroke:black; " description="&lt;b&gt;HRG_07590&lt;/b&gt;&lt;br&gt;ribosomal protein l13e domain-containing protein&lt;br&gt;Location: 2085110 - 2086061" locus_tag="HRG_07590" class="clusterblast-orf" id="dummy-2_h2_2_17"  />
</g>
<g id="a2_0018"  >
<polygon points="655,85 660,80 689,80 689,90 660,90 655,85 " style="fill:white; stroke-width:1; stroke:black; " description="&lt;b&gt;HRG_07591&lt;/b&gt;&lt;br&gt;uncharacterized protein&lt;br&gt;Location: 2086423 - 2088678" locus_tag="HRG_07591" class="clusterblast-orf" id="dummy-2_h2_2_18"  />
</g>
<g id="a2_0019"  >
<polygon points="697,90 700,90 705,85 700,80 697,80 697,90 " style="fill:white; stroke-width:1; stroke:black; " description="&lt;b&gt;HRG_07592&lt;/b&gt;&lt;br&gt;pam16 domain-containing protein&lt;br&gt;Location: 2089209 - 2089765" locus_tag="HRG_07592" class="clusterblast-orf" id="dummy-2_h2_2_19"  />
</g>
<g id="a2_0020"  >
<polygon points="715,85 720,80 750,80 750,90 720,90 715,85 " style="fill:white; stroke-width:1; stroke:black; " description="&lt;b&gt;HRG_07593&lt;/b&gt;&lt;br&gt;biotin/lipoate a/B protein ligase family domain-containing protein&lt;br&gt;Location: 2090429 - 2092697" locus_tag="HRG_07593" class="clusterblast-orf" id="dummy-2_h2_2_20"  />
</g>
<g id="a2_0021"  >
<polygon points="752,90 754,90 759,85 754,80 752,80 752,90 " style="fill:white; stroke-width:1; stroke:black; " description="&lt;b&gt;HRG_07594&lt;/b&gt;&lt;br&gt;uncharacterized protein&lt;br&gt;Location: 2092852 - 2093319" locus_tag="HRG_07594" class="clusterblast-orf" id="dummy-2_h2_2_21"  />
</g>
<g id="a2_0022"  >
<polygon points="767,90 775,90 780,85 775,80 767,80 767,90 " style="fill:white; stroke-width:1; stroke:black; " description="&lt;b&gt;HRG_07595&lt;/b&gt;&lt;br&gt;mitochondrial genome maintenance domain-containing protein&lt;br&gt;Location: 2093856 - 2094673" locus_tag="HRG_07595" class="clusterblast-orf" id="dummy-2_h2_2_22"  />
</g>
</svg>
