<svg xmlns="http://www.w3.org/2000/svg" xmlns:xlink="http://www.w3.org/1999/xlink" version="1.1" x="0" y="0" height="230" width="800" viewBox="0 0 800 230" preserveAspectRatio="none"  >
<g label="Query sequence" class="clusterblast-cluster"  >
<text x="5" y="20" class="clusterblast-acc"  >
Query sequence</text>
<line x1="10" y1="35" x2="778.0" y2="35" style="stroke-width:1; stroke:grey; "  />
<polygon points="296,35 300,30 300,40 296,35 " style="fill:white; stroke-width:1; stroke:black; " description="&lt;b&gt;input.path1.gene1571&lt;/b&gt;&lt;br&gt;input.path1.gene1571&lt;br&gt;Location: 5567463 - 5567987" locus_tag="input.path1.gene1571" class="clusterblast-orf" id="dummy-7_q0_0_all"  />
<polygon points="341,40 394,40 399,35 394,30 341,30 341,40 " style="fill:#d81515; stroke-width:1; stroke:black; " description="&lt;b&gt;input.path1.gene1572&lt;/b&gt;&lt;br&gt;input.path1.gene1572&lt;br&gt;Location: 5573380 - 5580991" locus_tag="input.path1.gene1572" class="clusterblast-orf" id="dummy-7_q1_0_all"  />
<polygon points="403,40 419,40 424,35 419,30 403,30 403,40 " style="fill:#77d815; stroke-width:1; stroke:black; " description="&lt;b&gt;input.path1.gene1573&lt;/b&gt;&lt;br&gt;input.path1.gene1573&lt;br&gt;Location: 5581516 - 5584289" locus_tag="input.path1.gene1573" class="clusterblast-orf" id="dummy-7_q2_0_all"  />
<polygon points="441,35 446,30 457,30 457,40 446,40 441,35 " style="fill:#15d8d8; stroke-width:1; stroke:black; " description="&lt;b&gt;input.path1.gene1574&lt;/b&gt;&lt;br&gt;input.path1.gene1574&lt;br&gt;Location: 5586555 - 5588595" locus_tag="input.path1.gene1574" class="clusterblast-orf" id="dummy-7_q3_0_all"  />
<polygon points="470,40 479,40 484,35 479,30 470,30 470,40 " style="fill:#7715d8; stroke-width:1; stroke:black; " description="&lt;b&gt;input.path1.gene1575&lt;/b&gt;&lt;br&gt;input.path1.gene1575&lt;br&gt;Location: 5590335 - 5592141" locus_tag="input.path1.gene1575" class="clusterblast-orf" id="dummy-7_q4_0_all"  />
</g>
<g label="NC_054389" description="NC_054389 (8457870-8566158): Drechmeria coniospora strain ARSEF 6962 chromoso... (14% of genes show similarity), T1PKS,isocyanide" class="clusterblast-cluster"  >
<text x="5" y="70" class="clusterblast-acc"  >
<a xlink:href="https://antismash-db.secondarymetabolites.org/area?record=NC_054389&amp;start=8457870&amp;end=8566158" target="_blank">NC_054389 (8457870-8566158)</a>: Drechmeria coniospora strain ARSEF 6962 chromoso... (14% of genes show similarity), T1PKS,isocyanide</text>
<line x1="10" y1="85" x2="778.0" y2="85" style="stroke-width:1; stroke:grey; "  />
</g>
<g id="a7_000"  >
<polygon points="0,85 5,80 10,80 10,90 5,90 0,85 " style="fill:white; stroke-width:1; stroke:black; " description="&lt;b&gt;DCS_02257&lt;/b&gt;&lt;br&gt;hypothetical protein&lt;br&gt;Location: 8562649 - 8561292" locus_tag="DCS_02257" class="clusterblast-orf" id="dummy-7_h7_5_0"  />
</g>
<g id="a7_001"  >
<polygon points="23,85 25,80 25,90 23,85 " style="fill:white; stroke-width:1; stroke:black; " description="&lt;b&gt;DCS_02256&lt;/b&gt;&lt;br&gt;hypothetical protein&lt;br&gt;Location: 8559537 - 8559334" locus_tag="DCS_02256" class="clusterblast-orf" id="dummy-7_h7_5_1"  />
</g>
<g id="a7_002"  >
<polygon points="45,90 49,85 45,80 45,90 " style="fill:white; stroke-width:1; stroke:black; " description="&lt;b&gt;DCS_02255&lt;/b&gt;&lt;br&gt;hypothetical protein&lt;br&gt;Location: 8556640 - 8556131" locus_tag="DCS_02255" class="clusterblast-orf" id="dummy-7_h7_5_2"  />
</g>
<g id="a7_003"  >
<polygon points="88,90 91,90 96,85 91,80 88,80 88,90 " style="fill:white; stroke-width:1; stroke:black; " description="&lt;b&gt;DCS_02254&lt;/b&gt;&lt;br&gt;hypothetical protein&lt;br&gt;Location: 8550993 - 8550034" locus_tag="DCS_02254" class="clusterblast-orf" id="dummy-7_h7_5_3"  />
</g>
<g id="a7_004"  >
<polygon points="104,90 146,90 151,85 146,80 104,80 104,90 " style="fill:#d81515; stroke-width:1; stroke:black; " description="&lt;b&gt;DCS_02253&lt;/b&gt;&lt;br&gt;filament-forming protein&lt;br&gt;Location: 8548946 - 8542739&lt;br&gt;&lt;br&gt;&lt;b&gt;BlastP hit with input.path1.gene1572&lt;/b&gt;&lt;br&gt;Percentage identity: 63&lt;br&gt;Percentage coverage: 83&lt;br&gt;BLAST bit score: 1637&lt;br&gt;E-value: 0.0" locus_tag="DCS_02253" class="clusterblast-orf" id="dummy-7_h7_5_4"  />
</g>
<g id="a7_005"  >
<polygon points="159,90 173,90 178,85 173,80 159,80 159,90 " style="fill:#77d815; stroke-width:1; stroke:black; " description="&lt;b&gt;DCS_02252&lt;/b&gt;&lt;br&gt;hypothetical protein&lt;br&gt;Location: 8541739 - 8539270&lt;br&gt;&lt;br&gt;&lt;b&gt;BlastP hit with input.path1.gene1573&lt;/b&gt;&lt;br&gt;Percentage identity: 55&lt;br&gt;Percentage coverage: 104&lt;br&gt;BLAST bit score: 771&lt;br&gt;E-value: 4.62e-270" locus_tag="DCS_02252" class="clusterblast-orf" id="dummy-7_h7_5_5"  />
</g>
<g id="a7_006"  >
<polygon points="180,85 185,80 197,80 197,90 185,90 180,85 " style="fill:white; stroke-width:1; stroke:black; " description="&lt;b&gt;DCS_02251&lt;/b&gt;&lt;br&gt;artemis protein&lt;br&gt;Location: 8538937 - 8536723" locus_tag="DCS_02251" class="clusterblast-orf" id="dummy-7_h7_5_6"  />
</g>
<g id="a7_007"  >
<polygon points="201,85 206,80 217,80 217,90 206,90 201,85 " style="fill:#15d8d8; stroke-width:1; stroke:black; " description="&lt;b&gt;DCS_02250&lt;/b&gt;&lt;br&gt;pyoverdine/dityrosine biosynthesis protein&lt;br&gt;Location: 8536158 - 8534070&lt;br&gt;&lt;br&gt;&lt;b&gt;BlastP hit with input.path1.gene1574&lt;/b&gt;&lt;br&gt;Percentage identity: 68&lt;br&gt;Percentage coverage: 98&lt;br&gt;BLAST bit score: 914&lt;br&gt;E-value: 0.0" locus_tag="DCS_02250" class="clusterblast-orf" id="dummy-7_h7_5_7"  />
</g>
<g id="a7_008"  >
<polygon points="234,90 243,90 248,85 243,80 234,80 234,90 " style="fill:#7715d8; stroke-width:1; stroke:black; " description="&lt;b&gt;DCS_02249&lt;/b&gt;&lt;br&gt;FAD binding domain containing protein&lt;br&gt;Location: 8531925 - 8530050&lt;br&gt;&lt;br&gt;&lt;b&gt;BlastP hit with input.path1.gene1575&lt;/b&gt;&lt;br&gt;Percentage identity: 64&lt;br&gt;Percentage coverage: 101&lt;br&gt;BLAST bit score: 631&lt;br&gt;E-value: 1.01e-223" locus_tag="DCS_02249" class="clusterblast-orf" id="dummy-7_h7_5_8"  />
</g>
<g id="a7_009"  >
<polygon points="267,85 272,80 272,80 272,90 272,90 267,85 " style="fill:white; stroke-width:1; stroke:black; " description="&lt;b&gt;DCS_02248&lt;/b&gt;&lt;br&gt;hypothetical protein&lt;br&gt;Location: 8527508 - 8526870" locus_tag="DCS_02248" class="clusterblast-orf" id="dummy-7_h7_5_9"  />
</g>
<g id="a7_0010"  >
<polygon points="278,85 283,80 290,80 290,90 283,90 278,85 " style="fill:white; stroke-width:1; stroke:black; " description="&lt;b&gt;DCS_02247&lt;/b&gt;&lt;br&gt;extracelular serine carboxypeptidase&lt;br&gt;Location: 8526139 - 8524460" locus_tag="DCS_02247" class="clusterblast-orf" id="dummy-7_h7_5_10"  />
</g>
<g id="a7_0011"  >
<polygon points="341,90 349,90 354,85 349,80 341,80 341,90 " style="fill:white; stroke-width:1; stroke:black; " description="&lt;b&gt;DCS_02246&lt;/b&gt;&lt;br&gt;Cytochrome P450&lt;br&gt;Location: 8517762 - 8516155" locus_tag="DCS_02246" class="clusterblast-orf" id="dummy-7_h7_5_11"  />
</g>
<g id="a7_0012"  >
<polygon points="358,85 363,80 372,80 372,90 363,90 358,85 " style="fill:white; stroke-width:1; stroke:black; " description="&lt;b&gt;DCS_02245&lt;/b&gt;&lt;br&gt;calcium- spray protein&lt;br&gt;Location: 8515603 - 8513699" locus_tag="DCS_02245" class="clusterblast-orf" id="dummy-7_h7_5_12"  />
</g>
<g id="a7_0013"  >
<polygon points="404,90 435,90 440,85 435,80 404,80 404,90 " style="fill:white; stroke-width:1; stroke:black; " description="&lt;b&gt;DCS_02244&lt;/b&gt;&lt;br&gt;hypothetical protein&lt;br&gt;Location: 8509545 - 8504874" locus_tag="DCS_02244" class="clusterblast-orf" id="dummy-7_h7_5_13"  />
</g>
<g id="a7_0014"  >
<polygon points="445,90 482,90 487,85 482,80 445,80 445,90 " style="fill:white; stroke-width:1; stroke:black; " description="&lt;b&gt;DCS_02243&lt;/b&gt;&lt;br&gt;polyketide synthase&lt;br&gt;Location: 8504161 - 8498624" locus_tag="DCS_02243" class="clusterblast-orf" id="dummy-7_h7_5_14"  />
</g>
<g id="a7_0015"  >
<polygon points="496,90 497,90 502,85 497,80 496,80 496,90 " style="fill:white; stroke-width:1; stroke:black; " description="&lt;b&gt;DCS_02242&lt;/b&gt;&lt;br&gt;Orotate phosphoribosyltransferase&lt;br&gt;Location: 8497441 - 8496737" locus_tag="DCS_02242" class="clusterblast-orf" id="dummy-7_h7_5_15"  />
</g>
<g id="a7_0016"  >
<polygon points="511,85 516,80 569,80 569,90 516,90 511,85 " style="fill:white; stroke-width:1; stroke:black; " description="&lt;b&gt;DCS_02241&lt;/b&gt;&lt;br&gt;polyketide synthase&lt;br&gt;Location: 8495489 - 8487871" locus_tag="DCS_02241" class="clusterblast-orf" id="dummy-7_h7_5_16"  />
</g>
<g id="a7_0017"  >
<polygon points="575,90 579,90 584,85 579,80 575,80 575,90 " style="fill:white; stroke-width:1; stroke:black; " description="&lt;b&gt;DCS_02240&lt;/b&gt;&lt;br&gt;polyketide synthase&lt;br&gt;Location: 8487080 - 8485889" locus_tag="DCS_02240" class="clusterblast-orf" id="dummy-7_h7_5_17"  />
</g>
<g id="a7_0018"  >
<polygon points="588,85 593,80 596,80 596,90 593,90 588,85 " style="fill:white; stroke-width:1; stroke:black; " description="&lt;b&gt;DCS_02239&lt;/b&gt;&lt;br&gt;hypothetical protein&lt;br&gt;Location: 8485400 - 8484337" locus_tag="DCS_02239" class="clusterblast-orf" id="dummy-7_h7_5_18"  />
</g>
<g id="a7_0019"  >
<polygon points="608,90 631,90 636,85 631,80 608,80 608,90 " style="fill:white; stroke-width:1; stroke:black; " description="&lt;b&gt;DCS_02238&lt;/b&gt;&lt;br&gt;hypothetical protein&lt;br&gt;Location: 8482833 - 8479103" locus_tag="DCS_02238" class="clusterblast-orf" id="dummy-7_h7_5_19"  />
</g>
<g id="a7_0020"  >
<polygon points="640,85 645,80 648,80 648,90 645,90 640,85 " style="fill:white; stroke-width:1; stroke:black; " description="&lt;b&gt;DCS_02237&lt;/b&gt;&lt;br&gt;hypothetical protein&lt;br&gt;Location: 8478556 - 8477510" locus_tag="DCS_02237" class="clusterblast-orf" id="dummy-7_h7_5_20"  />
</g>
<g id="a7_0021"  >
<polygon points="680,90 681,90 686,85 681,80 680,80 680,90 " style="fill:white; stroke-width:1; stroke:black; " description="&lt;b&gt;DCS_02236&lt;/b&gt;&lt;br&gt;hypothetical protein&lt;br&gt;Location: 8473366 - 8472533" locus_tag="DCS_02236" class="clusterblast-orf" id="dummy-7_h7_5_21"  />
</g>
<g id="a7_0022"  >
<polygon points="687,90 696,90 701,85 696,80 687,80 687,90 " style="fill:white; stroke-width:1; stroke:black; " description="&lt;b&gt;DCS_02235&lt;/b&gt;&lt;br&gt;hypothetical protein&lt;br&gt;Location: 8472361 - 8470496" locus_tag="DCS_02235" class="clusterblast-orf" id="dummy-7_h7_5_22"  />
</g>
<g id="a7_0023"  >
<polygon points="704,85 709,80 726,80 726,90 709,90 704,85 " style="fill:white; stroke-width:1; stroke:black; " description="&lt;b&gt;DCS_02234&lt;/b&gt;&lt;br&gt;hypothetical protein&lt;br&gt;Location: 8470101 - 8467286" locus_tag="DCS_02234" class="clusterblast-orf" id="dummy-7_h7_5_23"  />
</g>
<g id="a7_0024"  >
<polygon points="732,90 735,90 740,85 735,80 732,80 732,90 " style="fill:white; stroke-width:1; stroke:black; " description="&lt;b&gt;DCS_02233&lt;/b&gt;&lt;br&gt;hypothetical protein&lt;br&gt;Location: 8466555 - 8465434" locus_tag="DCS_02233" class="clusterblast-orf" id="dummy-7_h7_5_24"  />
</g>
<g id="a7_0025"  >
<polygon points="744,90 747,90 752,85 747,80 744,80 744,90 " style="fill:white; stroke-width:1; stroke:black; " description="&lt;b&gt;DCS_02232&lt;/b&gt;&lt;br&gt;hypothetical protein&lt;br&gt;Location: 8464933 - 8463878" locus_tag="DCS_02232" class="clusterblast-orf" id="dummy-7_h7_5_25"  />
</g>
<g id="a7_0026"  >
<polygon points="757,85 762,80 771,80 771,90 762,90 757,85 " style="fill:white; stroke-width:1; stroke:black; " description="&lt;b&gt;DCS_02231&lt;/b&gt;&lt;br&gt;hypothetical protein&lt;br&gt;Location: 8463194 - 8461368" locus_tag="DCS_02231" class="clusterblast-orf" id="dummy-7_h7_5_26"  />
</g>
<g id="a7_0027"  >
<polygon points="777,85 780,80 780,90 777,85 " style="fill:white; stroke-width:1; stroke:black; " description="&lt;b&gt;DCS_02230&lt;/b&gt;&lt;br&gt;hypothetical protein&lt;br&gt;Location: 8460566 - 8460255" locus_tag="DCS_02230" class="clusterblast-orf" id="dummy-7_h7_5_27"  />
</g>
</svg>
