<svg xmlns="http://www.w3.org/2000/svg" xmlns:xlink="http://www.w3.org/1999/xlink" version="1.1" x="0" y="0" height="230" width="800" viewBox="0 0 800 230" preserveAspectRatio="none"  >
<g label="Query sequence" class="clusterblast-cluster"  >
<text x="5" y="20" class="clusterblast-acc"  >
Query sequence</text>
<line x1="10" y1="35" x2="778.0" y2="35" style="stroke-width:1; stroke:grey; "  />
<polygon points="132,35 137,30 137,30 137,40 137,40 132,35 " style="fill:white; stroke-width:1; stroke:black; " description="&lt;b&gt;input.path1.gene561&lt;/b&gt;&lt;br&gt;input.path1.gene561&lt;br&gt;Location: 2053410 - 2054000" locus_tag="input.path1.gene561" class="clusterblast-orf" id="dummy-3_q0_0_all"  />
<polygon points="146,40 157,40 162,35 157,30 146,30 146,40 " style="fill:#d81515; stroke-width:1; stroke:black; " description="&lt;b&gt;input.path1.gene562&lt;/b&gt;&lt;br&gt;input.path1.gene562&lt;br&gt;Location: 2054932 - 2056720" locus_tag="input.path1.gene562" class="clusterblast-orf" id="dummy-3_q1_0_all"  />
<polygon points="170,35 175,30 188,30 188,40 175,40 170,35 " style="fill:#5cd815; stroke-width:1; stroke:black; " description="&lt;b&gt;input.path1.gene563&lt;/b&gt;&lt;br&gt;input.path1.gene563&lt;br&gt;Location: 2057648 - 2059671" locus_tag="input.path1.gene563" class="clusterblast-orf" id="dummy-3_q2_0_all"  />
<polygon points="194,40 196,40 201,35 196,30 194,30 194,40 " style="fill:#15a3d8; stroke-width:1; stroke:black; " description="&lt;b&gt;input.path1.gene564&lt;/b&gt;&lt;br&gt;input.path1.gene564&lt;br&gt;Location: 2060370 - 2061188" locus_tag="input.path1.gene564" class="clusterblast-orf" id="dummy-3_q3_0_all"  />
<polygon points="213,40 280,40 285,35 280,30 213,30 213,40 " style="fill:#c715d8; stroke-width:1; stroke:black; " description="&lt;b&gt;input.path1.gene565&lt;/b&gt;&lt;br&gt;input.path1.gene565&lt;br&gt;Location: 2062513 - 2070621" locus_tag="input.path1.gene565" class="clusterblast-orf" id="dummy-3_q4_0_all"  />
<polygon points="286,35 291,30 301,30 301,40 291,40 286,35 " style="fill:#d88015; stroke-width:1; stroke:black; " description="&lt;b&gt;input.path1.gene566&lt;/b&gt;&lt;br&gt;input.path1.gene566&lt;br&gt;Location: 2070698 - 2072360" locus_tag="input.path1.gene566" class="clusterblast-orf" id="dummy-3_q5_0_all"  />
<polygon points="303,35 308,30 331,30 331,40 308,40 303,35 " style="fill:#15d839; stroke-width:1; stroke:black; " description="&lt;b&gt;input.path1.gene567&lt;/b&gt;&lt;br&gt;input.path1.gene567&lt;br&gt;Location: 2072607 - 2075732" locus_tag="input.path1.gene567" class="clusterblast-orf" id="dummy-3_q6_0_all"  />
<polygon points="335,35 340,30 368,30 368,40 340,40 335,35 " style="fill:#1539d8; stroke-width:1; stroke:black; " description="&lt;b&gt;input.path1.gene568&lt;/b&gt;&lt;br&gt;input.path1.gene568&lt;br&gt;Location: 2076211 - 2079867" locus_tag="input.path1.gene568" class="clusterblast-orf" id="dummy-3_q7_0_all"  />
<polygon points="372,40 377,40 382,35 377,30 372,30 372,40 " style="fill:#1539d8; stroke-width:1; stroke:black; " description="&lt;b&gt;input.path1.gene569&lt;/b&gt;&lt;br&gt;input.path1.gene569&lt;br&gt;Location: 2080338 - 2081455" locus_tag="input.path1.gene569" class="clusterblast-orf" id="dummy-3_q8_0_all"  />
<polygon points="385,35 390,30 405,30 405,40 390,40 385,35 " style="fill:#1539d8; stroke-width:1; stroke:black; " description="&lt;b&gt;input.path1.gene570&lt;/b&gt;&lt;br&gt;input.path1.gene570&lt;br&gt;Location: 2081797 - 2084075" locus_tag="input.path1.gene570" class="clusterblast-orf" id="dummy-3_q9_0_all"  />
<polygon points="409,40 429,40 434,35 429,30 409,30 409,40 " style="fill:#d81580; stroke-width:1; stroke:black; " description="&lt;b&gt;input.path1.gene571&lt;/b&gt;&lt;br&gt;input.path1.gene571&lt;br&gt;Location: 2084547 - 2087301" locus_tag="input.path1.gene571" class="clusterblast-orf" id="dummy-3_q10_0_all"  />
<polygon points="499,40 503,40 508,35 503,30 499,30 499,40 " style="fill:#c7d815; stroke-width:1; stroke:black; " description="&lt;b&gt;input.path1.gene572&lt;/b&gt;&lt;br&gt;input.path1.gene572&lt;br&gt;Location: 2094615 - 2095634" locus_tag="input.path1.gene572" class="clusterblast-orf" id="dummy-3_q11_0_all"  />
<polygon points="521,40 524,40 529,35 524,30 521,30 521,40 " style="fill:#15d8a3; stroke-width:1; stroke:black; " description="&lt;b&gt;input.path1.gene573&lt;/b&gt;&lt;br&gt;input.path1.gene573&lt;br&gt;Location: 2097099 - 2097973" locus_tag="input.path1.gene573" class="clusterblast-orf" id="dummy-3_q12_0_all"  />
<polygon points="625,40 642,40 647,35 642,30 625,30 625,40 " style="fill:#5c15d8; stroke-width:1; stroke:black; " description="&lt;b&gt;input.path1.gene574&lt;/b&gt;&lt;br&gt;input.path1.gene574&lt;br&gt;Location: 2108762 - 2111253" locus_tag="input.path1.gene574" class="clusterblast-orf" id="dummy-3_q13_0_all"  />
</g>
<g label="NC_030955" description="NC_030955 (1256320-1347518): Colletotrichum higginsianum IMI 349063 chromosom... (17% of genes show similarity), fungal-RiPP-like" class="clusterblast-cluster"  >
<text x="5" y="70" class="clusterblast-acc"  >
<a xlink:href="https://antismash-db.secondarymetabolites.org/area?record=NC_030955&amp;start=1256320&amp;end=1347518" target="_blank">NC_030955 (1256320-1347518)</a>: Colletotrichum higginsianum IMI 349063 chromosom... (17% of genes show similarity), fungal-RiPP-like</text>
<line x1="10" y1="85" x2="778.0" y2="85" style="stroke-width:1; stroke:grey; "  />
</g>
<g id="a3_000"  >
<polygon points="0,90 24,90 29,85 24,80 0,80 0,90 " style="fill:white; stroke-width:1; stroke:black; " description="&lt;b&gt;CH63R_02141&lt;/b&gt;&lt;br&gt;Elongation factor Tu GTP binding domain-containing protein&lt;br&gt;Location: 1256388 - 1259727" locus_tag="CH63R_02141" class="clusterblast-orf" id="dummy-3_h3_7_0"  />
</g>
<g id="a3_001"  >
<polygon points="42,85 47,80 62,80 62,90 47,90 42,85 " style="fill:#5cd815; stroke-width:1; stroke:black; " description="&lt;b&gt;CH63R_02142&lt;/b&gt;&lt;br&gt;RNA recognition domain-containing protein&lt;br&gt;Location: 1261131 - 1263359&lt;br&gt;&lt;br&gt;&lt;b&gt;BlastP hit with input.path1.gene563&lt;/b&gt;&lt;br&gt;Percentage identity: 56&lt;br&gt;Percentage coverage: 107&lt;br&gt;BLAST bit score: 317&lt;br&gt;E-value: 1e-98" locus_tag="CH63R_02142" class="clusterblast-orf" id="dummy-3_h3_7_1"  />
</g>
<g id="a3_002"  >
<polygon points="71,90 73,90 78,85 73,80 71,80 71,90 " style="fill:#15a3d8; stroke-width:1; stroke:black; " description="&lt;b&gt;CH63R_02143&lt;/b&gt;&lt;br&gt;hypothetical protein&lt;br&gt;Location: 1264378 - 1265252&lt;br&gt;&lt;br&gt;&lt;b&gt;BlastP hit with input.path1.gene564&lt;/b&gt;&lt;br&gt;Percentage identity: 44&lt;br&gt;Percentage coverage: 87&lt;br&gt;BLAST bit score: 166&lt;br&gt;E-value: 2.31e-49" locus_tag="CH63R_02143" class="clusterblast-orf" id="dummy-3_h3_7_2"  />
</g>
<g id="a3_003"  >
<polygon points="110,90 185,90 190,85 185,80 110,80 110,90 " style="fill:#c715d8; stroke-width:1; stroke:black; " description="&lt;b&gt;CH63R_02144&lt;/b&gt;&lt;br&gt;hypothetical protein&lt;br&gt;Location: 1268822 - 1277758&lt;br&gt;&lt;br&gt;&lt;b&gt;BlastP hit with input.path1.gene565&lt;/b&gt;&lt;br&gt;Percentage identity: 63&lt;br&gt;Percentage coverage: 101&lt;br&gt;BLAST bit score: 3372&lt;br&gt;E-value: 0.0" locus_tag="CH63R_02144" class="clusterblast-orf" id="dummy-3_h3_7_3"  />
</g>
<g id="a3_004"  >
<polygon points="262,90 272,90 277,85 272,80 262,80 262,90 " style="fill:white; stroke-width:1; stroke:black; " description="&lt;b&gt;CH63R_02145&lt;/b&gt;&lt;br&gt;hypothetical protein&lt;br&gt;Location: 1285863 - 1287569" locus_tag="CH63R_02145" class="clusterblast-orf" id="dummy-3_h3_7_4"  />
</g>
<g id="a3_005"  >
<polygon points="346,85 351,80 356,80 356,90 351,90 346,85 " style="fill:white; stroke-width:1; stroke:black; " description="&lt;b&gt;CH63R_02146&lt;/b&gt;&lt;br&gt;Mov34/MPN/PAD-1 family protein&lt;br&gt;Location: 1295323 - 1296429" locus_tag="CH63R_02146" class="clusterblast-orf" id="dummy-3_h3_7_5"  />
</g>
<g id="a3_006"  >
<polygon points="369,85 374,80 381,80 381,90 374,90 369,85 " style="fill:white; stroke-width:1; stroke:black; " description="&lt;b&gt;CH63R_02147&lt;/b&gt;&lt;br&gt;Alpha-galactosidase&lt;br&gt;Location: 1297882 - 1299199" locus_tag="CH63R_02147" class="clusterblast-orf" id="dummy-3_h3_7_6"  />
</g>
<g id="a3_007"  >
<polygon points="400,90 405,90 410,85 405,80 400,80 400,90 " style="fill:#1539d8; stroke-width:1; stroke:black; " description="&lt;b&gt;CH63R_02148&lt;/b&gt;&lt;br&gt;tat pathway signal sequence&lt;br&gt;Location: 1301321 - 1302518&lt;br&gt;&lt;br&gt;&lt;b&gt;BlastP hit with input.path1.gene569&lt;/b&gt;&lt;br&gt;Percentage identity: 31&lt;br&gt;Percentage coverage: 63&lt;br&gt;BLAST bit score: 77&lt;br&gt;E-value: 5.76e-14" locus_tag="CH63R_02148" class="clusterblast-orf" id="dummy-3_h3_7_7"  />
</g>
<g id="a3_008"  >
<polygon points="427,85 432,80 441,80 441,90 432,90 427,85 " style="fill:white; stroke-width:1; stroke:black; " description="&lt;b&gt;CH63R_02149&lt;/b&gt;&lt;br&gt;Major facilitator superfamily transporter&lt;br&gt;Location: 1304447 - 1305944" locus_tag="CH63R_02149" class="clusterblast-orf" id="dummy-3_h3_7_8"  />
</g>
<g id="a3_009"  >
<polygon points="478,90 497,90 502,85 497,80 478,80 478,90 " style="fill:white; stroke-width:1; stroke:black; " description="&lt;b&gt;CH63R_02150&lt;/b&gt;&lt;br&gt;Catalase&lt;br&gt;Location: 1310071 - 1312825" locus_tag="CH63R_02150" class="clusterblast-orf" id="dummy-3_h3_7_9"  />
</g>
<g id="a3_0010"  >
<polygon points="505,85 510,80 513,80 513,90 510,90 505,85 " style="fill:white; stroke-width:1; stroke:black; " description="&lt;b&gt;CH63R_02151&lt;/b&gt;&lt;br&gt;Fungal cellulose binding domain-containing protein&lt;br&gt;Location: 1313196 - 1314056" locus_tag="CH63R_02151" class="clusterblast-orf" id="dummy-3_h3_7_10"  />
</g>
<g id="a3_0011"  >
<polygon points="535,85 540,80 542,80 542,90 540,90 535,85 " style="fill:white; stroke-width:1; stroke:black; " description="&lt;b&gt;CH63R_02152&lt;/b&gt;&lt;br&gt;Nudix domain-containing protein&lt;br&gt;Location: 1316550 - 1317311" locus_tag="CH63R_02152" class="clusterblast-orf" id="dummy-3_h3_7_11"  />
</g>
<g id="a3_0012"  >
<polygon points="550,85 555,80 568,80 568,90 555,90 550,85 " style="fill:white; stroke-width:1; stroke:black; " description="&lt;b&gt;CH63R_02153&lt;/b&gt;&lt;br&gt;Carboxylic ester hydrolase&lt;br&gt;Location: 1318259 - 1320257" locus_tag="CH63R_02153" class="clusterblast-orf" id="dummy-3_h3_7_12"  />
</g>
<g id="a3_0013"  >
<polygon points="569,90 572,90 577,85 572,80 569,80 569,90 " style="fill:white; stroke-width:1; stroke:black; " description="&lt;b&gt;CH63R_02154&lt;/b&gt;&lt;br&gt;hypothetical protein&lt;br&gt;Location: 1320315 - 1321185" locus_tag="CH63R_02154" class="clusterblast-orf" id="dummy-3_h3_7_13"  />
</g>
<g id="a3_0014"  >
<polygon points="589,85 594,80 606,80 606,90 594,90 589,85 " style="fill:white; stroke-width:1; stroke:black; " description="&lt;b&gt;CH63R_02155&lt;/b&gt;&lt;br&gt;Subtilase&lt;br&gt;Location: 1322624 - 1324517" locus_tag="CH63R_02155" class="clusterblast-orf" id="dummy-3_h3_7_14"  />
</g>
<g id="a3_0015"  >
<polygon points="613,90 631,90 636,85 631,80 613,80 613,90 " style="fill:white; stroke-width:1; stroke:black; " description="&lt;b&gt;CH63R_02156&lt;/b&gt;&lt;br&gt;Transcriptional regulatory protein&lt;br&gt;Location: 1325316 - 1327821" locus_tag="CH63R_02156" class="clusterblast-orf" id="dummy-3_h3_7_15"  />
</g>
<g id="a3_0016"  >
<polygon points="637,85 642,80 647,80 647,90 642,90 637,85 " style="fill:white; stroke-width:1; stroke:black; " description="&lt;b&gt;CH63R_02157&lt;/b&gt;&lt;br&gt;2,3-dihydroxybenzoate decarboxylase&lt;br&gt;Location: 1327981 - 1329057" locus_tag="CH63R_02157" class="clusterblast-orf" id="dummy-3_h3_7_16"  />
</g>
<g id="a3_0017"  >
<polygon points="647,85 650,80 650,90 647,85 " style="fill:white; stroke-width:1; stroke:black; " description="&lt;b&gt;CH63R_02158&lt;/b&gt;&lt;br&gt;hypothetical protein&lt;br&gt;Location: 1329092 - 1329424" locus_tag="CH63R_02158" class="clusterblast-orf" id="dummy-3_h3_7_17"  />
</g>
<g id="a3_0018"  >
<polygon points="665,85 670,80 682,80 682,90 670,90 665,85 " style="fill:white; stroke-width:1; stroke:black; " description="&lt;b&gt;CH63R_02159&lt;/b&gt;&lt;br&gt;C-x8-C-x5-C-x3-H type zinc finger protein&lt;br&gt;Location: 1331091 - 1333084" locus_tag="CH63R_02159" class="clusterblast-orf" id="dummy-3_h3_7_18"  />
</g>
<g id="a3_0019"  >
<polygon points="709,85 712,80 712,90 709,85 " style="fill:white; stroke-width:1; stroke:black; " description="&lt;b&gt;CH63R_02160&lt;/b&gt;&lt;br&gt;hypothetical protein&lt;br&gt;Location: 1336020 - 1336454" locus_tag="CH63R_02160" class="clusterblast-orf" id="dummy-3_h3_7_19"  />
</g>
<g id="a3_0020"  >
<polygon points="722,85 727,80 731,80 731,90 727,90 722,85 " style="fill:white; stroke-width:1; stroke:black; " description="&lt;b&gt;CH63R_02161&lt;/b&gt;&lt;br&gt;Metalloprotease&lt;br&gt;Location: 1337500 - 1338504" locus_tag="CH63R_02161" class="clusterblast-orf" id="dummy-3_h3_7_20"  />
</g>
<g id="a3_0021"  >
<polygon points="736,85 741,80 759,80 759,90 741,90 736,85 " style="fill:white; stroke-width:1; stroke:black; " description="&lt;b&gt;CH63R_02162&lt;/b&gt;&lt;br&gt;FAD binding domain-containing protein&lt;br&gt;Location: 1339104 - 1341710" locus_tag="CH63R_02162" class="clusterblast-orf" id="dummy-3_h3_7_21"  />
</g>
<g id="a3_0022"  >
<polygon points="767,85 772,80 779,80 779,90 772,90 767,85 " style="fill:white; stroke-width:1; stroke:black; " description="&lt;b&gt;CH63R_02163&lt;/b&gt;&lt;br&gt;UMTA protein&lt;br&gt;Location: 1342537 - 1343979" locus_tag="CH63R_02163" class="clusterblast-orf" id="dummy-3_h3_7_22"  />
</g>
</svg>
