<svg xmlns="http://www.w3.org/2000/svg" xmlns:xlink="http://www.w3.org/1999/xlink" version="1.1" x="0" y="0" height="230" width="800" viewBox="0 0 800 230" preserveAspectRatio="none"  >
<g label="Query sequence" class="clusterblast-cluster"  >
<text x="5" y="20" class="clusterblast-acc"  >
Query sequence</text>
<line x1="10" y1="35" x2="778.0" y2="35" style="stroke-width:1; stroke:grey; "  />
<polygon points="132,40 152,40 157,35 152,30 132,30 132,40 " style="fill:#d81515; stroke-width:1; stroke:black; " description="&lt;b&gt;input.path1.gene1753&lt;/b&gt;&lt;br&gt;input.path1.gene1753&lt;br&gt;Location: 6193554 - 6195595" locus_tag="input.path1.gene1753" class="clusterblast-orf" id="dummy-8_q0_0_all"  />
<polygon points="178,40 217,40 222,35 217,30 178,30 178,40 " style="fill:#15d815; stroke-width:1; stroke:black; " description="&lt;b&gt;input.path1.gene1754&lt;/b&gt;&lt;br&gt;input.path1.gene1754&lt;br&gt;Location: 6197266 - 6200883" locus_tag="input.path1.gene1754" class="clusterblast-orf" id="dummy-8_q1_0_all"  />
<polygon points="225,40 228,40 233,35 228,30 225,30 225,40 " style="fill:#15d815; stroke-width:1; stroke:black; " description="&lt;b&gt;input.path1.gene1755&lt;/b&gt;&lt;br&gt;input.path1.gene1755&lt;br&gt;Location: 6201136 - 6201793" locus_tag="input.path1.gene1755" class="clusterblast-orf" id="dummy-8_q2_0_all"  />
<polygon points="252,40 260,40 265,35 260,30 252,30 252,40 " style="fill:#1597d8; stroke-width:1; stroke:black; " description="&lt;b&gt;input.path1.gene1756&lt;/b&gt;&lt;br&gt;input.path1.gene1756&lt;br&gt;Location: 6203351 - 6204443" locus_tag="input.path1.gene1756" class="clusterblast-orf" id="dummy-8_q3_0_all"  />
<polygon points="268,35 273,30 333,30 333,40 273,40 268,35 " style="fill:#9715d8; stroke-width:1; stroke:black; " description="&lt;b&gt;input.path1.gene1757&lt;/b&gt;&lt;br&gt;input.path1.gene1757&lt;br&gt;Location: 6204686 - 6210074" locus_tag="input.path1.gene1757" class="clusterblast-orf" id="dummy-8_q4_0_all"  />
<polygon points="352,35 357,30 434,30 434,40 357,40 352,35 " style="fill:#d89715; stroke-width:1; stroke:black; " description="&lt;b&gt;input.path1.gene1758&lt;/b&gt;&lt;br&gt;input.path1.gene1758&lt;br&gt;Location: 6211624 - 6218331" locus_tag="input.path1.gene1758" class="clusterblast-orf" id="dummy-8_q5_0_all"  />
<polygon points="481,35 486,30 497,30 497,40 486,40 481,35 " style="fill:#15d897; stroke-width:1; stroke:black; " description="&lt;b&gt;input.path1.gene1759&lt;/b&gt;&lt;br&gt;input.path1.gene1759&lt;br&gt;Location: 6222196 - 6223525" locus_tag="input.path1.gene1759" class="clusterblast-orf" id="dummy-8_q6_0_all"  />
<polygon points="502,40 564,40 569,35 564,30 502,30 502,40 " style="fill:#1515d8; stroke-width:1; stroke:black; " description="&lt;b&gt;input.path1.gene1760&lt;/b&gt;&lt;br&gt;input.path1.gene1760&lt;br&gt;Location: 6223999 - 6229487" locus_tag="input.path1.gene1760" class="clusterblast-orf" id="dummy-8_q7_0_all"  />
<polygon points="582,35 587,30 599,30 599,40 587,40 582,35 " style="fill:#d81597; stroke-width:1; stroke:black; " description="&lt;b&gt;input.path1.gene1761&lt;/b&gt;&lt;br&gt;input.path1.gene1761&lt;br&gt;Location: 6230578 - 6231920" locus_tag="input.path1.gene1761" class="clusterblast-orf" id="dummy-8_q8_0_all"  />
<polygon points="603,40 621,40 626,35 621,30 603,30 603,40 " style="fill:#97d815; stroke-width:1; stroke:black; " description="&lt;b&gt;input.path1.gene1762&lt;/b&gt;&lt;br&gt;input.path1.gene1762&lt;br&gt;Location: 6232247 - 6234158" locus_tag="input.path1.gene1762" class="clusterblast-orf" id="dummy-8_q9_0_all"  />
<polygon points="634,40 642,40 647,35 642,30 634,30 634,40 " style="fill:white; stroke-width:1; stroke:black; " description="&lt;b&gt;input.path1.gene1763&lt;/b&gt;&lt;br&gt;input.path1.gene1763&lt;br&gt;Location: 6234866 - 6235879" locus_tag="input.path1.gene1763" class="clusterblast-orf" id="dummy-8_q10_0_all"  />
</g>
<g label="NW_006271969" description="NW_006271969 (6181520-6248454): Cordyceps militaris CM01 unplaced genomic sca... (62% of genes show similarity), T1PKS" class="clusterblast-cluster"  >
<text x="5" y="70" class="clusterblast-acc"  >
<a xlink:href="https://antismash-db.secondarymetabolites.org/area?record=NW_006271969&amp;start=6181520&amp;end=6248454" target="_blank">NW_006271969 (6181520-6248454)</a>: Cordyceps militaris CM01 unplaced genomic sca... (62% of genes show similarity), T1PKS</text>
<line x1="10" y1="85" x2="778.0" y2="85" style="stroke-width:1; stroke:grey; "  />
</g>
<g id="a8_000"  >
<polygon points="0,90 13,90 18,85 13,80 0,80 0,90 " style="fill:white; stroke-width:1; stroke:black; " description="&lt;b&gt;CCM_01914&lt;/b&gt;&lt;br&gt;hypothetical protein&lt;br&gt;Location: 6182652 - 6184205" locus_tag="CCM_01914" class="clusterblast-orf" id="dummy-8_h8_1_0"  />
</g>
<g id="a8_001"  >
<polygon points="22,90 33,90 38,85 33,80 22,80 22,90 " style="fill:white; stroke-width:1; stroke:black; " description="&lt;b&gt;CCM_01915&lt;/b&gt;&lt;br&gt;hypothetical protein&lt;br&gt;Location: 6184533 - 6185801" locus_tag="CCM_01915" class="clusterblast-orf" id="dummy-8_h8_1_1"  />
</g>
<g id="a8_002"  >
<polygon points="42,90 51,90 56,85 51,80 42,80 42,90 " style="fill:white; stroke-width:1; stroke:black; " description="&lt;b&gt;CCM_01916&lt;/b&gt;&lt;br&gt;alpha-/gamma-adaptin-binding protein p34&lt;br&gt;Location: 6186139 - 6187264" locus_tag="CCM_01916" class="clusterblast-orf" id="dummy-8_h8_1_2"  />
</g>
<g id="a8_003"  >
<polygon points="132,90 151,90 156,85 151,80 132,80 132,90 " style="fill:#d81515; stroke-width:1; stroke:black; " description="&lt;b&gt;CCM_01917&lt;/b&gt;&lt;br&gt;homeoprotein&lt;br&gt;Location: 6193555 - 6195548&lt;br&gt;&lt;br&gt;&lt;b&gt;BlastP hit with input.path1.gene1753&lt;/b&gt;&lt;br&gt;Percentage identity: 100&lt;br&gt;Percentage coverage: 93&lt;br&gt;BLAST bit score: 1100&lt;br&gt;E-value: 0.0" locus_tag="CCM_01917" class="clusterblast-orf" id="dummy-8_h8_1_3"  />
</g>
<g id="a8_004"  >
<polygon points="176,90 227,90 232,85 227,80 176,80 176,90 " style="fill:#15d815; stroke-width:1; stroke:black; " description="&lt;b&gt;CCM_01918&lt;/b&gt;&lt;br&gt;haloacid dehalogenase-like hydrolase, putative&lt;br&gt;Location: 6197165 - 6201793&lt;br&gt;&lt;br&gt;&lt;b&gt;BlastP hit with input.path1.gene1754&lt;/b&gt;&lt;br&gt;Percentage identity: 98&lt;br&gt;Percentage coverage: 101&lt;br&gt;BLAST bit score: 2222&lt;br&gt;E-value: 0.0&lt;br&gt;&lt;br&gt;&lt;b&gt;BlastP hit with input.path1.gene1755&lt;/b&gt;&lt;br&gt;Percentage identity: 95&lt;br&gt;Percentage coverage: 105&lt;br&gt;BLAST bit score: 397&lt;br&gt;E-value: 3.1e-127" locus_tag="CCM_01918" class="clusterblast-orf" id="dummy-8_h8_1_4"  />
</g>
<g id="a8_005"  >
<polygon points="251,90 261,90 266,85 261,80 251,80 251,90 " style="fill:#1597d8; stroke-width:1; stroke:black; " description="&lt;b&gt;CCM_01919&lt;/b&gt;&lt;br&gt;CFEM domain-containing protein&lt;br&gt;Location: 6203352 - 6204618&lt;br&gt;&lt;br&gt;&lt;b&gt;BlastP hit with input.path1.gene1756&lt;/b&gt;&lt;br&gt;Percentage identity: 95&lt;br&gt;Percentage coverage: 90&lt;br&gt;BLAST bit score: 427&lt;br&gt;E-value: 5.04e-150" locus_tag="CCM_01919" class="clusterblast-orf" id="dummy-8_h8_1_5"  />
</g>
<g id="a8_006"  >
<polygon points="270,85 275,80 341,80 341,90 275,90 270,85 " style="fill:#9715d8; stroke-width:1; stroke:black; " description="&lt;b&gt;CCM_01920&lt;/b&gt;&lt;br&gt;ATP-dependent bile acid permease&lt;br&gt;Location: 6204942 - 6210764&lt;br&gt;&lt;br&gt;&lt;b&gt;BlastP hit with input.path1.gene1757&lt;/b&gt;&lt;br&gt;Percentage identity: 97&lt;br&gt;Percentage coverage: 102&lt;br&gt;BLAST bit score: 3133&lt;br&gt;E-value: 0.0" locus_tag="CCM_01920" class="clusterblast-orf" id="dummy-8_h8_1_6"  />
</g>
<g id="a8_007"  >
<polygon points="350,85 355,80 435,80 435,90 355,90 350,85 " style="fill:#d89715; stroke-width:1; stroke:black; " description="&lt;b&gt;CCM_01921&lt;/b&gt;&lt;br&gt;polyketide synthase, putative&lt;br&gt;Location: 6211521 - 6218454&lt;br&gt;&lt;br&gt;&lt;b&gt;BlastP hit with input.path1.gene1758&lt;/b&gt;&lt;br&gt;Percentage identity: 98&lt;br&gt;Percentage coverage: 100&lt;br&gt;BLAST bit score: 4222&lt;br&gt;E-value: 0.0" locus_tag="CCM_01921" class="clusterblast-orf" id="dummy-8_h8_1_7"  />
</g>
<g id="a8_008"  >
<polygon points="451,85 456,80 464,80 464,90 456,90 451,85 " style="fill:white; stroke-width:1; stroke:black; " description="&lt;b&gt;CCM_01922&lt;/b&gt;&lt;br&gt;Fungal transcriptional regulatory protein&lt;br&gt;Location: 6219787 - 6220898" locus_tag="CCM_01922" class="clusterblast-orf" id="dummy-8_h8_1_8"  />
</g>
<g id="a8_009"  >
<polygon points="480,85 485,80 496,80 496,90 485,90 480,85 " style="fill:#15d897; stroke-width:1; stroke:black; " description="&lt;b&gt;CCM_01923&lt;/b&gt;&lt;br&gt;hydroxyindole O-methyltransferase, putative&lt;br&gt;Location: 6222197 - 6223525&lt;br&gt;&lt;br&gt;&lt;b&gt;BlastP hit with input.path1.gene1759&lt;/b&gt;&lt;br&gt;Percentage identity: 100&lt;br&gt;Percentage coverage: 100&lt;br&gt;BLAST bit score: 822&lt;br&gt;E-value: 4.74e-302" locus_tag="CCM_01923" class="clusterblast-orf" id="dummy-8_h8_1_9"  />
</g>
<g id="a8_0010"  >
<polygon points="502,90 523,90 528,85 523,80 502,80 502,90 " style="fill:#1515d8; stroke-width:1; stroke:black; " description="&lt;b&gt;CCM_01924&lt;/b&gt;&lt;br&gt;conidial pigment biosynthesis oxidase&lt;br&gt;Location: 6224000 - 6226174&lt;br&gt;&lt;br&gt;&lt;b&gt;BlastP hit with input.path1.gene1760&lt;/b&gt;&lt;br&gt;Percentage identity: 100&lt;br&gt;Percentage coverage: 58&lt;br&gt;BLAST bit score: 1457&lt;br&gt;E-value: 0.0" locus_tag="CCM_01924" class="clusterblast-orf" id="dummy-8_h8_1_10"  />
</g>
<g id="a8_0011"  >
<polygon points="541,90 558,90 563,85 558,80 541,80 541,90 " style="fill:#1515d8; stroke-width:1; stroke:black; " description="&lt;b&gt;CCM_01925&lt;/b&gt;&lt;br&gt;carboxylesterase family protein&lt;br&gt;Location: 6227178 - 6228996&lt;br&gt;&lt;br&gt;&lt;b&gt;BlastP hit with input.path1.gene1760&lt;/b&gt;&lt;br&gt;Percentage identity: 99&lt;br&gt;Percentage coverage: 40&lt;br&gt;BLAST bit score: 966&lt;br&gt;E-value: 0.0" locus_tag="CCM_01925" class="clusterblast-orf" id="dummy-8_h8_1_11"  />
</g>
<g id="a8_0012"  >
<polygon points="582,85 587,80 595,80 595,90 587,90 582,85 " style="fill:#d81597; stroke-width:1; stroke:black; " description="&lt;b&gt;CCM_01926&lt;/b&gt;&lt;br&gt;short chain dehydrogenase/reductase&lt;br&gt;Location: 6230579 - 6231627&lt;br&gt;&lt;br&gt;&lt;b&gt;BlastP hit with input.path1.gene1761&lt;/b&gt;&lt;br&gt;Percentage identity: 100&lt;br&gt;Percentage coverage: 97&lt;br&gt;BLAST bit score: 618&lt;br&gt;E-value: 8.23e-225" locus_tag="CCM_01926" class="clusterblast-orf" id="dummy-8_h8_1_12"  />
</g>
<g id="a8_0013"  >
<polygon points="602,90 620,90 625,85 620,80 602,80 602,90 " style="fill:#97d815; stroke-width:1; stroke:black; " description="&lt;b&gt;CCM_01927&lt;/b&gt;&lt;br&gt;MFS transporter, putative&lt;br&gt;Location: 6232248 - 6234158&lt;br&gt;&lt;br&gt;&lt;b&gt;BlastP hit with input.path1.gene1762&lt;/b&gt;&lt;br&gt;Percentage identity: 100&lt;br&gt;Percentage coverage: 100&lt;br&gt;BLAST bit score: 1192&lt;br&gt;E-value: 0.0" locus_tag="CCM_01927" class="clusterblast-orf" id="dummy-8_h8_1_13"  />
</g>
<g id="a8_0014"  >
<polygon points="654,85 659,80 676,80 676,90 659,90 654,85 " style="fill:white; stroke-width:1; stroke:black; " description="&lt;b&gt;CCM_01928&lt;/b&gt;&lt;br&gt;hypothetical protein&lt;br&gt;Location: 6236515 - 6238290" locus_tag="CCM_01928" class="clusterblast-orf" id="dummy-8_h8_1_14"  />
</g>
<g id="a8_0015"  >
<polygon points="771,90 775,90 780,85 775,80 771,80 771,90 " style="fill:white; stroke-width:1; stroke:black; " description="&lt;b&gt;CCM_01929&lt;/b&gt;&lt;br&gt;hypothetical protein&lt;br&gt;Location: 6246175 - 6246837" locus_tag="CCM_01929" class="clusterblast-orf" id="dummy-8_h8_1_15"  />
</g>
</svg>
