<svg xmlns="http://www.w3.org/2000/svg" xmlns:xlink="http://www.w3.org/1999/xlink" version="1.1" x="0" y="0" height="230" width="800" viewBox="0 0 800 230" preserveAspectRatio="none"  >
<g label="Query sequence" class="clusterblast-cluster"  >
<text x="5" y="20" class="clusterblast-acc"  >
Query sequence</text>
<line x1="10" y1="35" x2="778.0" y2="35" style="stroke-width:1; stroke:grey; "  />
<polygon points="273,40 274,40 279,35 274,30 273,30 273,40 " style="fill:white; stroke-width:1; stroke:black; " description="&lt;b&gt;input.path1.gene883&lt;/b&gt;&lt;br&gt;input.path1.gene883&lt;br&gt;Location: 3126549 - 3127937" locus_tag="input.path1.gene883" class="clusterblast-orf" id="dummy-3_q0_0_all"  />
<polygon points="286,40 289,35 286,30 286,40 " style="fill:#d81515; stroke-width:1; stroke:black; " description="&lt;b&gt;input.path1.gene884&lt;/b&gt;&lt;br&gt;input.path1.gene884&lt;br&gt;Location: 3129493 - 3130216" locus_tag="input.path1.gene884" class="clusterblast-orf" id="dummy-3_q1_0_all"  />
<polygon points="303,40 306,35 303,30 303,40 " style="fill:#77d815; stroke-width:1; stroke:black; " description="&lt;b&gt;input.path1.gene885&lt;/b&gt;&lt;br&gt;input.path1.gene885&lt;br&gt;Location: 3133280 - 3133886" locus_tag="input.path1.gene885" class="clusterblast-orf" id="dummy-3_q2_0_all"  />
<polygon points="311,35 316,30 323,30 323,40 316,40 311,35 " style="fill:#15d8d8; stroke-width:1; stroke:black; " description="&lt;b&gt;input.path1.gene886&lt;/b&gt;&lt;br&gt;input.path1.gene886&lt;br&gt;Location: 3135095 - 3137881" locus_tag="input.path1.gene886" class="clusterblast-orf" id="dummy-3_q3_0_all"  />
<polygon points="329,40 343,40 348,35 343,30 329,30 329,40 " style="fill:#7715d8; stroke-width:1; stroke:black; " description="&lt;b&gt;input.path1.gene887&lt;/b&gt;&lt;br&gt;input.path1.gene887&lt;br&gt;Location: 3139243 - 3143598" locus_tag="input.path1.gene887" class="clusterblast-orf" id="dummy-3_q4_0_all"  />
<polygon points="349,35 354,30 362,30 362,40 354,40 349,35 " style="fill:#d85e15; stroke-width:1; stroke:black; " description="&lt;b&gt;input.path1.gene888&lt;/b&gt;&lt;br&gt;input.path1.gene888&lt;br&gt;Location: 3143703 - 3146734" locus_tag="input.path1.gene888" class="clusterblast-orf" id="dummy-3_q5_0_all"  />
<polygon points="367,35 372,30 375,30 375,40 372,40 367,35 " style="fill:#2ed815; stroke-width:1; stroke:black; " description="&lt;b&gt;input.path1.gene889&lt;/b&gt;&lt;br&gt;input.path1.gene889&lt;br&gt;Location: 3147921 - 3149789" locus_tag="input.path1.gene889" class="clusterblast-orf" id="dummy-3_q6_0_all"  />
<polygon points="376,35 381,30 382,30 382,40 381,40 376,35 " style="fill:white; stroke-width:1; stroke:black; " description="&lt;b&gt;input.path1.gene890&lt;/b&gt;&lt;br&gt;input.path1.gene890&lt;br&gt;Location: 3149951 - 3151430" locus_tag="input.path1.gene890" class="clusterblast-orf" id="dummy-3_q7_0_all"  />
<polygon points="384,35 386,30 386,40 384,35 " style="fill:#158fd8; stroke-width:1; stroke:black; " description="&lt;b&gt;input.path1.gene891&lt;/b&gt;&lt;br&gt;input.path1.gene891&lt;br&gt;Location: 3151702 - 3152356" locus_tag="input.path1.gene891" class="clusterblast-orf" id="dummy-3_q8_0_all"  />
<polygon points="387,35 390,30 390,40 387,35 " style="fill:white; stroke-width:1; stroke:black; " description="&lt;b&gt;input.path1.gene892&lt;/b&gt;&lt;br&gt;input.path1.gene892&lt;br&gt;Location: 3152372 - 3153179" locus_tag="input.path1.gene892" class="clusterblast-orf" id="dummy-3_q9_0_all"  />
<polygon points="398,40 402,35 398,30 398,40 " style="fill:#c015d8; stroke-width:1; stroke:black; " description="&lt;b&gt;input.path1.gene893&lt;/b&gt;&lt;br&gt;input.path1.gene893&lt;br&gt;Location: 3155015 - 3155931" locus_tag="input.path1.gene893" class="clusterblast-orf" id="dummy-3_q10_0_all"  />
<polygon points="405,35 410,30 418,30 418,40 410,40 405,35 " style="fill:#d8a715; stroke-width:1; stroke:black; " description="&lt;b&gt;input.path1.gene894&lt;/b&gt;&lt;br&gt;input.path1.gene894&lt;br&gt;Location: 3156592 - 3159554" locus_tag="input.path1.gene894" class="clusterblast-orf" id="dummy-3_q11_0_all"  />
<polygon points="431,40 434,35 431,30 431,40 " style="fill:#15d846; stroke-width:1; stroke:black; " description="&lt;b&gt;input.path1.gene895&lt;/b&gt;&lt;br&gt;input.path1.gene895&lt;br&gt;Location: 3162577 - 3163267" locus_tag="input.path1.gene895" class="clusterblast-orf" id="dummy-3_q12_0_all"  />
<polygon points="435,35 440,30 444,30 444,40 440,40 435,35 " style="fill:#1546d8; stroke-width:1; stroke:black; " description="&lt;b&gt;input.path1.gene896&lt;/b&gt;&lt;br&gt;input.path1.gene896&lt;br&gt;Location: 3163503 - 3165559" locus_tag="input.path1.gene896" class="clusterblast-orf" id="dummy-3_q13_0_all"  />
<polygon points="448,40 450,35 448,30 448,40 " style="fill:#d815a7; stroke-width:1; stroke:black; " description="&lt;b&gt;input.path1.gene897&lt;/b&gt;&lt;br&gt;input.path1.gene897&lt;br&gt;Location: 3166393 - 3166910" locus_tag="input.path1.gene897" class="clusterblast-orf" id="dummy-3_q14_0_all"  />
<polygon points="451,35 456,30 456,30 456,40 456,40 451,35 " style="fill:#c0d815; stroke-width:1; stroke:black; " description="&lt;b&gt;input.path1.gene898&lt;/b&gt;&lt;br&gt;input.path1.gene898&lt;br&gt;Location: 3166998 - 3168223" locus_tag="input.path1.gene898" class="clusterblast-orf" id="dummy-3_q15_0_all"  />
<polygon points="481,40 481,40 486,35 481,30 481,30 481,40 " style="fill:#15d88f; stroke-width:1; stroke:black; " description="&lt;b&gt;input.path1.gene899&lt;/b&gt;&lt;br&gt;input.path1.gene899&lt;br&gt;Location: 3173893 - 3174978" locus_tag="input.path1.gene899" class="clusterblast-orf" id="dummy-3_q16_0_all"  />
<polygon points="487,35 491,30 491,40 487,35 " style="fill:#2e15d8; stroke-width:1; stroke:black; " description="&lt;b&gt;input.path1.gene900&lt;/b&gt;&lt;br&gt;input.path1.gene900&lt;br&gt;Location: 3175180 - 3176203" locus_tag="input.path1.gene900" class="clusterblast-orf" id="dummy-3_q17_0_all"  />
<polygon points="495,40 501,40 506,35 501,30 495,30 495,40 " style="fill:#d8155e; stroke-width:1; stroke:black; " description="&lt;b&gt;input.path1.gene901&lt;/b&gt;&lt;br&gt;input.path1.gene901&lt;br&gt;Location: 3177186 - 3179553" locus_tag="input.path1.gene901" class="clusterblast-orf" id="dummy-3_q18_0_all"  />
</g>
<g label="NW_025953252" description="NW_025953252 (947231-1128644): Annulohypoxylon maeteangense strain CBS 123835... (4% of genes show similarity), fungal-RiPP-like" class="clusterblast-cluster"  >
<text x="5" y="70" class="clusterblast-acc"  >
<a xlink:href="https://antismash-db.secondarymetabolites.org/area?record=NW_025953252&amp;start=947231&amp;end=1128644" target="_blank">NW_025953252 (947231-1128644)</a>: Annulohypoxylon maeteangense strain CBS 123835... (4% of genes show similarity), fungal-RiPP-like</text>
<line x1="10" y1="85" x2="778.0" y2="85" style="stroke-width:1; stroke:grey; "  />
</g>
<g id="a3_000"  >
<polygon points="0,85 4,80 4,90 0,85 " style="fill:white; stroke-width:1; stroke:black; " description="&lt;b&gt;GGS22DRAFT_116842&lt;/b&gt;&lt;br&gt;putative alpha/beta hydrolase&lt;br&gt;Location: 950639 - 951768" locus_tag="GGS22DRAFT_116842" class="clusterblast-orf" id="dummy-3_h3_10_0"  />
</g>
<g id="a3_001"  >
<polygon points="8,85 13,80 19,80 19,90 13,90 8,85 " style="fill:white; stroke-width:1; stroke:black; " description="&lt;b&gt;GGS22DRAFT_116841&lt;/b&gt;&lt;br&gt;Sec34-like family protein&lt;br&gt;Location: 952478 - 955024" locus_tag="GGS22DRAFT_116841" class="clusterblast-orf" id="dummy-3_h3_10_1"  />
</g>
<g id="a3_002"  >
<polygon points="37,90 38,90 43,85 38,80 37,80 37,90 " style="fill:white; stroke-width:1; stroke:black; " description="&lt;b&gt;GGS22DRAFT_178804&lt;/b&gt;&lt;br&gt;phosphatases II&lt;br&gt;Location: 959105 - 960637" locus_tag="GGS22DRAFT_178804" class="clusterblast-orf" id="dummy-3_h3_10_2"  />
</g>
<g id="a3_003"  >
<polygon points="48,90 51,85 48,80 48,90 " style="fill:white; stroke-width:1; stroke:black; " description="&lt;b&gt;GGS22DRAFT_158537&lt;/b&gt;&lt;br&gt;DUF427-domain-containing protein&lt;br&gt;Location: 961591 - 962400" locus_tag="GGS22DRAFT_158537" class="clusterblast-orf" id="dummy-3_h3_10_3"  />
</g>
<g id="a3_004"  >
<polygon points="58,90 62,85 58,80 58,90 " style="fill:white; stroke-width:1; stroke:black; " description="&lt;b&gt;GGS22DRAFT_116935&lt;/b&gt;&lt;br&gt;polysaccharide lyase family 3 protein&lt;br&gt;Location: 963972 - 964922" locus_tag="GGS22DRAFT_116935" class="clusterblast-orf" id="dummy-3_h3_10_4"  />
</g>
<g id="a3_005"  >
<polygon points="94,90 100,90 105,85 100,80 94,80 94,90 " style="fill:white; stroke-width:1; stroke:black; " description="&lt;b&gt;GGS22DRAFT_178806&lt;/b&gt;&lt;br&gt;vesicle coat protein&lt;br&gt;Location: 972103 - 974687" locus_tag="GGS22DRAFT_178806" class="clusterblast-orf" id="dummy-3_h3_10_5"  />
</g>
<g id="a3_006"  >
<polygon points="111,85 116,80 117,80 117,90 116,90 111,85 " style="fill:white; stroke-width:1; stroke:black; " description="&lt;b&gt;GGS22DRAFT_158553&lt;/b&gt;&lt;br&gt;26S protease regulatory subunit 6B&lt;br&gt;Location: 976032 - 977483" locus_tag="GGS22DRAFT_158553" class="clusterblast-orf" id="dummy-3_h3_10_6"  />
</g>
<g id="a3_007"  >
<polygon points="126,90 128,85 126,80 126,90 " style="fill:white; stroke-width:1; stroke:black; " description="&lt;b&gt;GGS22DRAFT_117013&lt;/b&gt;&lt;br&gt;uncharacterized protein&lt;br&gt;Location: 979400 - 979995" locus_tag="GGS22DRAFT_117013" class="clusterblast-orf" id="dummy-3_h3_10_7"  />
</g>
<g id="a3_008"  >
<polygon points="141,90 141,90 146,85 141,80 141,80 141,90 " style="fill:white; stroke-width:1; stroke:black; " description="&lt;b&gt;GGS22DRAFT_158556&lt;/b&gt;&lt;br&gt;putative methyltransferase-domain-containing protein&lt;br&gt;Location: 982822 - 984024" locus_tag="GGS22DRAFT_158556" class="clusterblast-orf" id="dummy-3_h3_10_8"  />
</g>
<g id="a3_009"  >
<polygon points="151,90 151,90 156,85 151,80 151,80 151,90 " style="fill:white; stroke-width:1; stroke:black; " description="&lt;b&gt;GGS22DRAFT_158557&lt;/b&gt;&lt;br&gt;uncharacterized protein&lt;br&gt;Location: 985185 - 986360" locus_tag="GGS22DRAFT_158557" class="clusterblast-orf" id="dummy-3_h3_10_9"  />
</g>
<g id="a3_0010"  >
<polygon points="160,85 165,80 165,80 165,90 165,90 160,85 " style="fill:white; stroke-width:1; stroke:black; " description="&lt;b&gt;GGS22DRAFT_158561&lt;/b&gt;&lt;br&gt;CRAL-TRIO domain-containing protein&lt;br&gt;Location: 987160 - 988478" locus_tag="GGS22DRAFT_158561" class="clusterblast-orf" id="dummy-3_h3_10_10"  />
</g>
<g id="a3_0011"  >
<polygon points="170,85 175,80 175,80 175,90 175,90 170,85 " style="fill:white; stroke-width:1; stroke:black; " description="&lt;b&gt;GGS22DRAFT_158563&lt;/b&gt;&lt;br&gt;Prefoldin, subunit 3&lt;br&gt;Location: 989516 - 990570" locus_tag="GGS22DRAFT_158563" class="clusterblast-orf" id="dummy-3_h3_10_11"  />
</g>
<g id="a3_0012"  >
<polygon points="177,90 181,85 177,80 177,90 " style="fill:white; stroke-width:1; stroke:black; " description="&lt;b&gt;GGS22DRAFT_158566&lt;/b&gt;&lt;br&gt;uncharacterized protein&lt;br&gt;Location: 991185 - 992110" locus_tag="GGS22DRAFT_158566" class="clusterblast-orf" id="dummy-3_h3_10_12"  />
</g>
<g id="a3_0013"  >
<polygon points="182,85 187,80 187,80 187,90 187,90 182,85 " style="fill:white; stroke-width:1; stroke:black; " description="&lt;b&gt;GGS22DRAFT_199093&lt;/b&gt;&lt;br&gt;uncharacterized protein&lt;br&gt;Location: 992232 - 993391" locus_tag="GGS22DRAFT_199093" class="clusterblast-orf" id="dummy-3_h3_10_13"  />
</g>
<g id="a3_0014"  >
<polygon points="199,90 203,85 199,80 199,90 " style="fill:white; stroke-width:1; stroke:black; " description="&lt;b&gt;GGS22DRAFT_186804&lt;/b&gt;&lt;br&gt;uncharacterized protein&lt;br&gt;Location: 996160 - 997122" locus_tag="GGS22DRAFT_186804" class="clusterblast-orf" id="dummy-3_h3_10_14"  />
</g>
<g id="a3_0015"  >
<polygon points="206,85 211,80 214,80 214,90 211,90 206,85 " style="fill:white; stroke-width:1; stroke:black; " description="&lt;b&gt;GGS22DRAFT_158568&lt;/b&gt;&lt;br&gt;TAP-like protein-domain-containing protein&lt;br&gt;Location: 997775 - 999654" locus_tag="GGS22DRAFT_158568" class="clusterblast-orf" id="dummy-3_h3_10_15"  />
</g>
<g id="a3_0016"  >
<polygon points="220,85 225,80 233,80 233,90 225,90 220,85 " style="fill:#d8a715; stroke-width:1; stroke:black; " description="&lt;b&gt;GGS22DRAFT_158569&lt;/b&gt;&lt;br&gt;frequency clock protein&lt;br&gt;Location: 1000963 - 1003956&lt;br&gt;&lt;br&gt;&lt;b&gt;BlastP hit with input.path1.gene894&lt;/b&gt;&lt;br&gt;Percentage identity: 45&lt;br&gt;Percentage coverage: 90&lt;br&gt;BLAST bit score: 501&lt;br&gt;E-value: 1.42e-160" locus_tag="GGS22DRAFT_158569" class="clusterblast-orf" id="dummy-3_h3_10_16"  />
</g>
<g id="a3_0017"  >
<polygon points="255,85 257,80 257,90 255,85 " style="fill:white; stroke-width:1; stroke:black; " description="&lt;b&gt;GGS22DRAFT_186807&lt;/b&gt;&lt;br&gt;uncharacterized protein&lt;br&gt;Location: 1008882 - 1009337" locus_tag="GGS22DRAFT_186807" class="clusterblast-orf" id="dummy-3_h3_10_17"  />
</g>
<g id="a3_0018"  >
<polygon points="269,85 274,80 284,80 284,90 274,90 269,85 " style="fill:white; stroke-width:1; stroke:black; " description="&lt;b&gt;GGS22DRAFT_186808&lt;/b&gt;&lt;br&gt;glycoside hydrolase family 2 protein&lt;br&gt;Location: 1012207 - 1015599" locus_tag="GGS22DRAFT_186808" class="clusterblast-orf" id="dummy-3_h3_10_18"  />
</g>
<g id="a3_0019"  >
<polygon points="288,85 293,80 296,80 296,90 293,90 288,85 " style="fill:white; stroke-width:1; stroke:black; " description="&lt;b&gt;GGS22DRAFT_117105&lt;/b&gt;&lt;br&gt;RCC1/BLIP-II&lt;br&gt;Location: 1016409 - 1018199" locus_tag="GGS22DRAFT_117105" class="clusterblast-orf" id="dummy-3_h3_10_19"  />
</g>
<g id="a3_0020"  >
<polygon points="299,85 304,80 306,80 306,90 304,90 299,85 " style="fill:white; stroke-width:1; stroke:black; " description="&lt;b&gt;GGS22DRAFT_199099&lt;/b&gt;&lt;br&gt;voltage-dependent anion channel-domain-containing protein&lt;br&gt;Location: 1019067 - 1020565" locus_tag="GGS22DRAFT_199099" class="clusterblast-orf" id="dummy-3_h3_10_20"  />
</g>
<g id="a3_0021"  >
<polygon points="317,90 321,85 317,80 317,90 " style="fill:white; stroke-width:1; stroke:black; " description="&lt;b&gt;GGS22DRAFT_158577&lt;/b&gt;&lt;br&gt;uncharacterized protein&lt;br&gt;Location: 1023109 - 1023954" locus_tag="GGS22DRAFT_158577" class="clusterblast-orf" id="dummy-3_h3_10_21"  />
</g>
<g id="a3_0022"  >
<polygon points="323,85 326,80 326,90 323,85 " style="fill:white; stroke-width:1; stroke:black; " description="&lt;b&gt;GGS22DRAFT_117127&lt;/b&gt;&lt;br&gt;EF-hand&lt;br&gt;Location: 1024397 - 1025166" locus_tag="GGS22DRAFT_117127" class="clusterblast-orf" id="dummy-3_h3_10_22"  />
</g>
<g id="a3_0023"  >
<polygon points="331,90 332,90 337,85 332,80 331,80 331,90 " style="fill:white; stroke-width:1; stroke:black; " description="&lt;b&gt;GGS22DRAFT_158582&lt;/b&gt;&lt;br&gt;uncharacterized protein&lt;br&gt;Location: 1026376 - 1027560" locus_tag="GGS22DRAFT_158582" class="clusterblast-orf" id="dummy-3_h3_10_23"  />
</g>
<g id="a3_0024"  >
<polygon points="340,90 344,85 340,80 340,90 " style="fill:white; stroke-width:1; stroke:black; " description="&lt;b&gt;GGS22DRAFT_158583&lt;/b&gt;&lt;br&gt;carbohydrate esterase family 1 protein&lt;br&gt;Location: 1028257 - 1029253" locus_tag="GGS22DRAFT_158583" class="clusterblast-orf" id="dummy-3_h3_10_24"  />
</g>
<g id="a3_0025"  >
<polygon points="347,90 354,90 359,85 354,80 347,80 347,90 " style="fill:white; stroke-width:1; stroke:black; " description="&lt;b&gt;GGS22DRAFT_186815&lt;/b&gt;&lt;br&gt;ATP-dependent DNA ligase&lt;br&gt;Location: 1029884 - 1032654" locus_tag="GGS22DRAFT_186815" class="clusterblast-orf" id="dummy-3_h3_10_25"  />
</g>
<g id="a3_0026"  >
<polygon points="359,85 364,80 364,80 364,90 364,90 359,85 " style="fill:#2e15d8; stroke-width:1; stroke:black; " description="&lt;b&gt;GGS22DRAFT_117183&lt;/b&gt;&lt;br&gt;aldose 1-epimerase&lt;br&gt;Location: 1032768 - 1033855&lt;br&gt;&lt;br&gt;&lt;b&gt;BlastP hit with input.path1.gene900&lt;/b&gt;&lt;br&gt;Percentage identity: 63&lt;br&gt;Percentage coverage: 99&lt;br&gt;BLAST bit score: 436&lt;br&gt;E-value: 2.98e-152" locus_tag="GGS22DRAFT_117183" class="clusterblast-orf" id="dummy-3_h3_10_26"  />
</g>
<g id="a3_0027"  >
<polygon points="370,90 370,90 375,85 370,80 370,80 370,90 " style="fill:#d8155e; stroke-width:1; stroke:black; " description="&lt;b&gt;GGS22DRAFT_158588&lt;/b&gt;&lt;br&gt;uncharacterized protein&lt;br&gt;Location: 1035182 - 1036276&lt;br&gt;&lt;br&gt;&lt;b&gt;BlastP hit with input.path1.gene901&lt;/b&gt;&lt;br&gt;Percentage identity: 78&lt;br&gt;Percentage coverage: 17&lt;br&gt;BLAST bit score: 109&lt;br&gt;E-value: 6.75e-25" locus_tag="GGS22DRAFT_158588" class="clusterblast-orf" id="dummy-3_h3_10_27"  />
</g>
<g id="a3_0028"  >
<polygon points="377,85 379,80 379,90 377,85 " style="fill:white; stroke-width:1; stroke:black; " description="&lt;b&gt;GGS22DRAFT_117194&lt;/b&gt;&lt;br&gt;uncharacterized protein&lt;br&gt;Location: 1036687 - 1037299" locus_tag="GGS22DRAFT_117194" class="clusterblast-orf" id="dummy-3_h3_10_28"  />
</g>
<g id="a3_0029"  >
<polygon points="382,90 407,90 412,85 407,80 382,80 382,90 " style="fill:white; stroke-width:1; stroke:black; " description="&lt;b&gt;GGS22DRAFT_199107&lt;/b&gt;&lt;br&gt;DUF1744-domain-containing protein&lt;br&gt;Location: 1037817 - 1044665" locus_tag="GGS22DRAFT_199107" class="clusterblast-orf" id="dummy-3_h3_10_29"  />
</g>
<g id="a3_0030"  >
<polygon points="415,90 419,85 415,80 415,90 " style="fill:white; stroke-width:1; stroke:black; " description="&lt;b&gt;GGS22DRAFT_186820&lt;/b&gt;&lt;br&gt;uncharacterized protein&lt;br&gt;Location: 1045524 - 1046257" locus_tag="GGS22DRAFT_186820" class="clusterblast-orf" id="dummy-3_h3_10_30"  />
</g>
<g id="a3_0031"  >
<polygon points="422,85 427,80 430,80 430,90 427,90 422,85 " style="fill:white; stroke-width:1; stroke:black; " description="&lt;b&gt;GGS22DRAFT_158598&lt;/b&gt;&lt;br&gt;GMC oxidoreductase&lt;br&gt;Location: 1046977 - 1048884" locus_tag="GGS22DRAFT_158598" class="clusterblast-orf" id="dummy-3_h3_10_31"  />
</g>
<g id="a3_0032"  >
<polygon points="432,90 435,90 440,85 435,80 432,80 432,90 " style="fill:white; stroke-width:1; stroke:black; " description="&lt;b&gt;GGS22DRAFT_158600&lt;/b&gt;&lt;br&gt;HET-domain-containing protein&lt;br&gt;Location: 1049220 - 1051169" locus_tag="GGS22DRAFT_158600" class="clusterblast-orf" id="dummy-3_h3_10_32"  />
</g>
<g id="a3_0033"  >
<polygon points="442,90 443,90 448,85 443,80 442,80 442,90 " style="fill:white; stroke-width:1; stroke:black; " description="&lt;b&gt;GGS22DRAFT_199111&lt;/b&gt;&lt;br&gt;SET domain-containing protein&lt;br&gt;Location: 1051598 - 1052860" locus_tag="GGS22DRAFT_199111" class="clusterblast-orf" id="dummy-3_h3_10_33"  />
</g>
<g id="a3_0034"  >
<polygon points="454,90 454,90 459,85 454,80 454,80 454,90 " style="fill:white; stroke-width:1; stroke:black; " description="&lt;b&gt;GGS22DRAFT_199113&lt;/b&gt;&lt;br&gt;uncharacterized protein&lt;br&gt;Location: 1054308 - 1055546" locus_tag="GGS22DRAFT_199113" class="clusterblast-orf" id="dummy-3_h3_10_34"  />
</g>
<g id="a3_0035"  >
<polygon points="463,90 467,85 463,80 463,90 " style="fill:white; stroke-width:1; stroke:black; " description="&lt;b&gt;GGS22DRAFT_158602&lt;/b&gt;&lt;br&gt;DUF829-domain-containing protein&lt;br&gt;Location: 1056323 - 1057219" locus_tag="GGS22DRAFT_158602" class="clusterblast-orf" id="dummy-3_h3_10_35"  />
</g>
<g id="a3_0036"  >
<polygon points="470,85 474,80 474,90 470,85 " style="fill:white; stroke-width:1; stroke:black; " description="&lt;b&gt;GGS22DRAFT_199115&lt;/b&gt;&lt;br&gt;Cloroperoxidase&lt;br&gt;Location: 1057888 - 1058947" locus_tag="GGS22DRAFT_199115" class="clusterblast-orf" id="dummy-3_h3_10_36"  />
</g>
<g id="a3_0037"  >
<polygon points="482,90 482,90 487,85 482,80 482,80 482,90 " style="fill:white; stroke-width:1; stroke:black; " description="&lt;b&gt;GGS22DRAFT_178818&lt;/b&gt;&lt;br&gt;acyl-CoA dehydrogenase NM domain-like protein&lt;br&gt;Location: 1060667 - 1061869" locus_tag="GGS22DRAFT_178818" class="clusterblast-orf" id="dummy-3_h3_10_37"  />
</g>
<g id="a3_0038"  >
<polygon points="489,90 491,90 496,85 491,80 489,80 489,90 " style="fill:white; stroke-width:1; stroke:black; " description="&lt;b&gt;GGS22DRAFT_158603&lt;/b&gt;&lt;br&gt;phosphoglycerate mutase-like protein&lt;br&gt;Location: 1062386 - 1063819" locus_tag="GGS22DRAFT_158603" class="clusterblast-orf" id="dummy-3_h3_10_38"  />
</g>
<g id="a3_0039"  >
<polygon points="498,90 498,90 503,85 498,80 498,80 498,90 " style="fill:white; stroke-width:1; stroke:black; " description="&lt;b&gt;GGS22DRAFT_158605&lt;/b&gt;&lt;br&gt;NAD(P)-binding protein&lt;br&gt;Location: 1064313 - 1065437" locus_tag="GGS22DRAFT_158605" class="clusterblast-orf" id="dummy-3_h3_10_39"  />
</g>
<g id="a3_0040"  >
<polygon points="505,85 510,80 513,80 513,90 510,90 505,85 " style="fill:white; stroke-width:1; stroke:black; " description="&lt;b&gt;GGS22DRAFT_158606&lt;/b&gt;&lt;br&gt;proline-specific permease&lt;br&gt;Location: 1065883 - 1067800" locus_tag="GGS22DRAFT_158606" class="clusterblast-orf" id="dummy-3_h3_10_40"  />
</g>
<g id="a3_0041"  >
<polygon points="519,85 524,80 533,80 533,90 524,90 519,85 " style="fill:white; stroke-width:1; stroke:black; " description="&lt;b&gt;GGS22DRAFT_117249&lt;/b&gt;&lt;br&gt;glycoside hydrolase family 47 protein&lt;br&gt;Location: 1069211 - 1072331" locus_tag="GGS22DRAFT_117249" class="clusterblast-orf" id="dummy-3_h3_10_41"  />
</g>
<g id="a3_0042"  >
<polygon points="540,85 543,80 543,90 540,85 " style="fill:white; stroke-width:1; stroke:black; " description="&lt;b&gt;GGS22DRAFT_186832&lt;/b&gt;&lt;br&gt;uncharacterized protein&lt;br&gt;Location: 1073898 - 1074632" locus_tag="GGS22DRAFT_186832" class="clusterblast-orf" id="dummy-3_h3_10_42"  />
</g>
<g id="a3_0043"  >
<polygon points="553,85 556,80 556,90 553,85 " style="fill:white; stroke-width:1; stroke:black; " description="&lt;b&gt;GGS22DRAFT_117262&lt;/b&gt;&lt;br&gt;uncharacterized protein&lt;br&gt;Location: 1076812 - 1077567" locus_tag="GGS22DRAFT_117262" class="clusterblast-orf" id="dummy-3_h3_10_43"  />
</g>
<g id="a3_0044"  >
<polygon points="557,85 562,80 562,80 562,90 562,90 557,85 " style="fill:white; stroke-width:1; stroke:black; " description="&lt;b&gt;GGS22DRAFT_117261&lt;/b&gt;&lt;br&gt;uncharacterized protein&lt;br&gt;Location: 1077849 - 1078948" locus_tag="GGS22DRAFT_117261" class="clusterblast-orf" id="dummy-3_h3_10_44"  />
</g>
<g id="a3_0045"  >
<polygon points="570,90 571,90 576,85 571,80 570,80 570,90 " style="fill:white; stroke-width:1; stroke:black; " description="&lt;b&gt;GGS22DRAFT_158613&lt;/b&gt;&lt;br&gt;S-adenosyl-L-methionine-dependent methyltransferase&lt;br&gt;Location: 1080739 - 1082217" locus_tag="GGS22DRAFT_158613" class="clusterblast-orf" id="dummy-3_h3_10_45"  />
</g>
<g id="a3_0046"  >
<polygon points="578,85 582,80 582,90 578,85 " style="fill:white; stroke-width:1; stroke:black; " description="&lt;b&gt;GGS22DRAFT_186836&lt;/b&gt;&lt;br&gt;uncharacterized protein&lt;br&gt;Location: 1082671 - 1083644" locus_tag="GGS22DRAFT_186836" class="clusterblast-orf" id="dummy-3_h3_10_46"  />
</g>
<g id="a3_0047"  >
<polygon points="585,90 586,85 585,80 585,90 " style="fill:white; stroke-width:1; stroke:black; " description="&lt;b&gt;GGS22DRAFT_186837&lt;/b&gt;&lt;br&gt;uncharacterized protein&lt;br&gt;Location: 1084112 - 1084345" locus_tag="GGS22DRAFT_186837" class="clusterblast-orf" id="dummy-3_h3_10_47"  />
</g>
<g id="a3_0048"  >
<polygon points="589,85 593,80 593,90 589,85 " style="fill:white; stroke-width:1; stroke:black; " description="&lt;b&gt;GGS22DRAFT_117296&lt;/b&gt;&lt;br&gt;uncharacterized protein&lt;br&gt;Location: 1085184 - 1085981" locus_tag="GGS22DRAFT_117296" class="clusterblast-orf" id="dummy-3_h3_10_48"  />
</g>
<g id="a3_0049"  >
<polygon points="598,90 599,90 604,85 599,80 598,80 598,90 " style="fill:white; stroke-width:1; stroke:black; " description="&lt;b&gt;GGS22DRAFT_199121&lt;/b&gt;&lt;br&gt;uncharacterized protein&lt;br&gt;Location: 1087210 - 1088523" locus_tag="GGS22DRAFT_199121" class="clusterblast-orf" id="dummy-3_h3_10_49"  />
</g>
<g id="a3_0050"  >
<polygon points="608,90 612,90 617,85 612,80 608,80 608,90 " style="fill:white; stroke-width:1; stroke:black; " description="&lt;b&gt;GGS22DRAFT_158624&lt;/b&gt;&lt;br&gt;amino acid transporter&lt;br&gt;Location: 1089358 - 1091431" locus_tag="GGS22DRAFT_158624" class="clusterblast-orf" id="dummy-3_h3_10_50"  />
</g>
<g id="a3_0051"  >
<polygon points="620,85 625,80 625,80 625,90 625,90 620,85 " style="fill:white; stroke-width:1; stroke:black; " description="&lt;b&gt;GGS22DRAFT_158627&lt;/b&gt;&lt;br&gt;membrane fusion mating protein FIG1&lt;br&gt;Location: 1092279 - 1093236" locus_tag="GGS22DRAFT_158627" class="clusterblast-orf" id="dummy-3_h3_10_51"  />
</g>
<g id="a3_0052"  >
<polygon points="632,85 636,80 636,90 632,85 " style="fill:white; stroke-width:1; stroke:black; " description="&lt;b&gt;GGS22DRAFT_158628&lt;/b&gt;&lt;br&gt;alpha/beta-hydrolase&lt;br&gt;Location: 1094972 - 1095927" locus_tag="GGS22DRAFT_158628" class="clusterblast-orf" id="dummy-3_h3_10_52"  />
</g>
<g id="a3_0053"  >
<polygon points="640,85 641,80 641,90 640,85 " style="fill:white; stroke-width:1; stroke:black; " description="&lt;b&gt;GGS22DRAFT_158630&lt;/b&gt;&lt;br&gt;uncharacterized protein&lt;br&gt;Location: 1096705 - 1097022" locus_tag="GGS22DRAFT_158630" class="clusterblast-orf" id="dummy-3_h3_10_53"  />
</g>
<g id="a3_0054"  >
<polygon points="648,90 648,90 653,85 648,80 648,80 648,90 " style="fill:white; stroke-width:1; stroke:black; " description="&lt;b&gt;GGS22DRAFT_186844&lt;/b&gt;&lt;br&gt;uncharacterized protein&lt;br&gt;Location: 1098512 - 1099658" locus_tag="GGS22DRAFT_186844" class="clusterblast-orf" id="dummy-3_h3_10_54"  />
</g>
<g id="a3_0055"  >
<polygon points="655,90 659,85 655,80 655,90 " style="fill:white; stroke-width:1; stroke:black; " description="&lt;b&gt;GGS22DRAFT_199129&lt;/b&gt;&lt;br&gt;uncharacterized protein&lt;br&gt;Location: 1100083 - 1101054" locus_tag="GGS22DRAFT_199129" class="clusterblast-orf" id="dummy-3_h3_10_55"  />
</g>
<g id="a3_0056"  >
<polygon points="661,85 666,80 667,80 667,90 666,90 661,85 " style="fill:white; stroke-width:1; stroke:black; " description="&lt;b&gt;GGS22DRAFT_186846&lt;/b&gt;&lt;br&gt;uncharacterized protein&lt;br&gt;Location: 1101510 - 1102943" locus_tag="GGS22DRAFT_186846" class="clusterblast-orf" id="dummy-3_h3_10_56"  />
</g>
<g id="a3_0057"  >
<polygon points="682,85 687,80 687,80 687,90 687,90 682,85 " style="fill:white; stroke-width:1; stroke:black; " description="&lt;b&gt;GGS22DRAFT_199130&lt;/b&gt;&lt;br&gt;uncharacterized protein&lt;br&gt;Location: 1106292 - 1107452" locus_tag="GGS22DRAFT_199130" class="clusterblast-orf" id="dummy-3_h3_10_57"  />
</g>
<g id="a3_0058"  >
<polygon points="689,85 691,80 691,90 689,85 " style="fill:white; stroke-width:1; stroke:black; " description="&lt;b&gt;GGS22DRAFT_158635&lt;/b&gt;&lt;br&gt;uncharacterized protein&lt;br&gt;Location: 1107873 - 1108442" locus_tag="GGS22DRAFT_158635" class="clusterblast-orf" id="dummy-3_h3_10_58"  />
</g>
<g id="a3_0059"  >
<polygon points="700,85 705,80 708,80 708,90 705,90 700,85 " style="fill:white; stroke-width:1; stroke:black; " description="&lt;b&gt;GGS22DRAFT_158638&lt;/b&gt;&lt;br&gt;cytochrome P450 monooxygenase&lt;br&gt;Location: 1110482 - 1112330" locus_tag="GGS22DRAFT_158638" class="clusterblast-orf" id="dummy-3_h3_10_59"  />
</g>
<g id="a3_0060"  >
<polygon points="714,85 719,80 723,80 723,90 719,90 714,85 " style="fill:white; stroke-width:1; stroke:black; " description="&lt;b&gt;GGS22DRAFT_158644&lt;/b&gt;&lt;br&gt;putative vanilly-alcohol oxidase&lt;br&gt;Location: 1113633 - 1115797" locus_tag="GGS22DRAFT_158644" class="clusterblast-orf" id="dummy-3_h3_10_60"  />
</g>
<g id="a3_0061"  >
<polygon points="728,90 730,85 728,80 728,90 " style="fill:white; stroke-width:1; stroke:black; " description="&lt;b&gt;GGS22DRAFT_117420&lt;/b&gt;&lt;br&gt;uncharacterized protein&lt;br&gt;Location: 1116853 - 1117395" locus_tag="GGS22DRAFT_117420" class="clusterblast-orf" id="dummy-3_h3_10_61"  />
</g>
<g id="a3_0062"  >
<polygon points="740,85 745,80 749,80 749,90 745,90 740,85 " style="fill:white; stroke-width:1; stroke:black; " description="&lt;b&gt;GGS22DRAFT_158650&lt;/b&gt;&lt;br&gt;putative multicopper oxidase&lt;br&gt;Location: 1119582 - 1121740" locus_tag="GGS22DRAFT_158650" class="clusterblast-orf" id="dummy-3_h3_10_62"  />
</g>
<g id="a3_0063"  >
<polygon points="760,85 765,80 767,80 767,90 765,90 760,85 " style="fill:white; stroke-width:1; stroke:black; " description="&lt;b&gt;GGS22DRAFT_117486&lt;/b&gt;&lt;br&gt;sorbitol dehydrogenase&lt;br&gt;Location: 1124214 - 1125722" locus_tag="GGS22DRAFT_117486" class="clusterblast-orf" id="dummy-3_h3_10_63"  />
</g>
<g id="a3_0064"  >
<polygon points="777,90 780,85 777,80 777,90 " style="fill:white; stroke-width:1; stroke:black; " description="&lt;b&gt;GGS22DRAFT_158657&lt;/b&gt;&lt;br&gt;uncharacterized protein&lt;br&gt;Location: 1128056 - 1128589" locus_tag="GGS22DRAFT_158657" class="clusterblast-orf" id="dummy-3_h3_10_64"  />
</g>
</svg>
