<svg xmlns="http://www.w3.org/2000/svg" xmlns:xlink="http://www.w3.org/1999/xlink" version="1.1" x="0" y="0" height="50" width="800" viewBox="0 0 800 50" preserveAspectRatio="none"  >
<g label="Query sequence" class="clusterblast-cluster"  >
<text x="5" y="20" class="clusterblast-acc"  >
Query sequence</text>
<line x1="10" y1="35" x2="778.0" y2="35" style="stroke-width:1; stroke:grey; "  />
<polygon points="0,35 5,30 21,30 21,40 5,40 0,35 " style="fill:white; stroke-width:1; stroke:black; " description="&lt;b&gt;input.path1.gene71&lt;/b&gt;&lt;br&gt;input.path1.gene71&lt;br&gt;Location: 249701 - 250220" locus_tag="input.path1.gene71" class="clusterblast-orf" id="knownclusterblast-2_q0_0_all"  />
<polygon points="53,40 91,40 96,35 91,30 53,30 53,40 " style="fill:white; stroke-width:1; stroke:black; " description="&lt;b&gt;input.path1.gene72&lt;/b&gt;&lt;br&gt;input.path1.gene72&lt;br&gt;Location: 251020 - 252105" locus_tag="input.path1.gene72" class="clusterblast-orf" id="knownclusterblast-2_q1_0_all"  />
<polygon points="326,40 377,40 382,35 377,30 326,30 326,40 " style="fill:white; stroke-width:1; stroke:black; " description="&lt;b&gt;input.path1.gene73&lt;/b&gt;&lt;br&gt;input.path1.gene73&lt;br&gt;Location: 257847 - 259242" locus_tag="input.path1.gene73" class="clusterblast-orf" id="knownclusterblast-2_q2_0_all"  />
<polygon points="387,35 392,30 455,30 455,40 392,40 387,35 " style="fill:white; stroke-width:1; stroke:black; " description="&lt;b&gt;input.path1.gene74&lt;/b&gt;&lt;br&gt;input.path1.gene74&lt;br&gt;Location: 259386 - 261077" locus_tag="input.path1.gene74" class="clusterblast-orf" id="knownclusterblast-2_q3_0_all"  />
<polygon points="495,35 500,30 532,30 532,40 500,40 495,35 " style="fill:white; stroke-width:1; stroke:black; " description="&lt;b&gt;input.path1.gene75&lt;/b&gt;&lt;br&gt;input.path1.gene75&lt;br&gt;Location: 262074 - 263003" locus_tag="input.path1.gene75" class="clusterblast-orf" id="knownclusterblast-2_q4_0_all"  />
<polygon points="626,40 775,40 780,35 775,30 626,30 626,40 " style="fill:white; stroke-width:1; stroke:black; " description="&lt;b&gt;input.path1.gene76&lt;/b&gt;&lt;br&gt;input.path1.gene76&lt;br&gt;Location: 265345 - 269195" locus_tag="input.path1.gene76" class="clusterblast-orf" id="knownclusterblast-2_q5_0_all"  />
</g>
</svg>
