<svg xmlns="http://www.w3.org/2000/svg" xmlns:xlink="http://www.w3.org/1999/xlink" version="1.1" x="0" y="0" height="50" width="800" viewBox="0 0 800 50" preserveAspectRatio="none"  >
<g label="Query sequence" class="clusterblast-cluster"  >
<text x="5" y="20" class="clusterblast-acc"  >
Query sequence</text>
<line x1="10" y1="35" x2="778.0" y2="35" style="stroke-width:1; stroke:grey; "  />
<polygon points="0,40 20,40 25,35 20,30 0,30 0,40 " style="fill:white; stroke-width:1; stroke:black; " description="&lt;b&gt;input.path1.gene1176&lt;/b&gt;&lt;br&gt;input.path1.gene1176&lt;br&gt;Location: 3986133 - 3987882" locus_tag="input.path1.gene1176" class="clusterblast-orf" id="subclusterblast-3_q0_0_all"  />
<polygon points="29,35 34,30 43,30 43,40 34,40 29,35 " style="fill:white; stroke-width:1; stroke:black; " description="&lt;b&gt;input.path1.gene1177&lt;/b&gt;&lt;br&gt;input.path1.gene1177&lt;br&gt;Location: 3988183 - 3989183" locus_tag="input.path1.gene1177" class="clusterblast-orf" id="subclusterblast-3_q1_0_all"  />
<polygon points="51,40 65,40 70,35 65,30 51,30 51,40 " style="fill:white; stroke-width:1; stroke:black; " description="&lt;b&gt;input.path1.gene1178&lt;/b&gt;&lt;br&gt;input.path1.gene1178&lt;br&gt;Location: 3989722 - 3991081" locus_tag="input.path1.gene1178" class="clusterblast-orf" id="subclusterblast-3_q2_0_all"  />
<polygon points="71,35 76,30 82,30 82,40 76,40 71,35 " style="fill:white; stroke-width:1; stroke:black; " description="&lt;b&gt;input.path1.gene1179&lt;/b&gt;&lt;br&gt;input.path1.gene1179&lt;br&gt;Location: 3991158 - 3991899" locus_tag="input.path1.gene1179" class="clusterblast-orf" id="subclusterblast-3_q3_0_all"  />
<polygon points="90,40 123,40 128,35 123,30 90,30 90,40 " style="fill:white; stroke-width:1; stroke:black; " description="&lt;b&gt;input.path1.gene1180&lt;/b&gt;&lt;br&gt;input.path1.gene1180&lt;br&gt;Location: 3992489 - 3995140" locus_tag="input.path1.gene1180" class="clusterblast-orf" id="subclusterblast-3_q4_0_all"  />
<polygon points="144,40 151,40 156,35 151,30 144,30 144,40 " style="fill:white; stroke-width:1; stroke:black; " description="&lt;b&gt;input.path1.gene1181&lt;/b&gt;&lt;br&gt;input.path1.gene1181&lt;br&gt;Location: 3996219 - 3997081" locus_tag="input.path1.gene1181" class="clusterblast-orf" id="subclusterblast-3_q5_0_all"  />
<polygon points="162,40 169,40 174,35 169,30 162,30 162,40 " style="fill:white; stroke-width:1; stroke:black; " description="&lt;b&gt;input.path1.gene1182&lt;/b&gt;&lt;br&gt;input.path1.gene1182&lt;br&gt;Location: 3997476 - 3998320" locus_tag="input.path1.gene1182" class="clusterblast-orf" id="subclusterblast-3_q6_0_all"  />
<polygon points="201,35 206,30 212,30 212,40 206,40 201,35 " style="fill:white; stroke-width:1; stroke:black; " description="&lt;b&gt;input.path1.gene1183&lt;/b&gt;&lt;br&gt;input.path1.gene1183&lt;br&gt;Location: 4000192 - 4001021" locus_tag="input.path1.gene1183" class="clusterblast-orf" id="subclusterblast-3_q7_0_all"  />
<polygon points="254,35 259,30 267,30 267,40 259,40 254,35 " style="fill:white; stroke-width:1; stroke:black; " description="&lt;b&gt;input.path1.gene1184&lt;/b&gt;&lt;br&gt;input.path1.gene1184&lt;br&gt;Location: 4003953 - 4004838" locus_tag="input.path1.gene1184" class="clusterblast-orf" id="subclusterblast-3_q8_0_all"  />
<polygon points="288,40 291,35 288,30 288,40 " style="fill:white; stroke-width:1; stroke:black; " description="&lt;b&gt;input.path1.gene1185&lt;/b&gt;&lt;br&gt;input.path1.gene1185&lt;br&gt;Location: 4006297 - 4006541" locus_tag="input.path1.gene1185" class="clusterblast-orf" id="subclusterblast-3_q9_0_all"  />
<polygon points="358,40 365,40 370,35 365,30 358,30 358,40 " style="fill:white; stroke-width:1; stroke:black; " description="&lt;b&gt;input.path1.gene1186&lt;/b&gt;&lt;br&gt;input.path1.gene1186&lt;br&gt;Location: 4011182 - 4012029" locus_tag="input.path1.gene1186" class="clusterblast-orf" id="subclusterblast-3_q10_0_all"  />
<polygon points="394,35 399,30 404,30 404,40 399,40 394,35 " style="fill:white; stroke-width:1; stroke:black; " description="&lt;b&gt;input.path1.gene1187&lt;/b&gt;&lt;br&gt;input.path1.gene1187&lt;br&gt;Location: 4013760 - 4014400" locus_tag="input.path1.gene1187" class="clusterblast-orf" id="subclusterblast-3_q11_0_all"  />
<polygon points="414,40 415,40 420,35 415,30 414,30 414,40 " style="fill:white; stroke-width:1; stroke:black; " description="&lt;b&gt;input.path1.gene1188&lt;/b&gt;&lt;br&gt;input.path1.gene1188&lt;br&gt;Location: 4015152 - 4015552" locus_tag="input.path1.gene1188" class="clusterblast-orf" id="subclusterblast-3_q12_0_all"  />
<polygon points="446,40 504,40 509,35 504,30 446,30 446,40 " style="fill:white; stroke-width:1; stroke:black; " description="&lt;b&gt;input.path1.gene1189&lt;/b&gt;&lt;br&gt;input.path1.gene1189&lt;br&gt;Location: 4017343 - 4021776" locus_tag="input.path1.gene1189" class="clusterblast-orf" id="subclusterblast-3_q13_0_all"  />
<polygon points="511,35 516,30 542,30 542,40 516,40 511,35 " style="fill:white; stroke-width:1; stroke:black; " description="&lt;b&gt;input.path1.gene1190&lt;/b&gt;&lt;br&gt;input.path1.gene1190&lt;br&gt;Location: 4021888 - 4024100" locus_tag="input.path1.gene1190" class="clusterblast-orf" id="subclusterblast-3_q14_0_all"  />
<polygon points="559,35 564,30 597,30 597,40 564,40 559,35 " style="fill:white; stroke-width:1; stroke:black; " description="&lt;b&gt;input.path1.gene1191&lt;/b&gt;&lt;br&gt;input.path1.gene1191&lt;br&gt;Location: 4025260 - 4027917" locus_tag="input.path1.gene1191" class="clusterblast-orf" id="subclusterblast-3_q15_0_all"  />
<polygon points="644,35 649,30 650,30 650,40 649,40 644,35 " style="fill:white; stroke-width:1; stroke:black; " description="&lt;b&gt;input.path1.gene1192&lt;/b&gt;&lt;br&gt;input.path1.gene1192&lt;br&gt;Location: 4031217 - 4031620" locus_tag="input.path1.gene1192" class="clusterblast-orf" id="subclusterblast-3_q16_0_all"  />
<polygon points="703,40 722,40 727,35 722,30 703,30 703,40 " style="fill:white; stroke-width:1; stroke:black; " description="&lt;b&gt;input.path1.gene1193&lt;/b&gt;&lt;br&gt;input.path1.gene1193&lt;br&gt;Location: 4035328 - 4037042" locus_tag="input.path1.gene1193" class="clusterblast-orf" id="subclusterblast-3_q17_0_all"  />
<polygon points="729,35 734,30 758,30 758,40 734,40 729,35 " style="fill:white; stroke-width:1; stroke:black; " description="&lt;b&gt;input.path1.gene1194&lt;/b&gt;&lt;br&gt;input.path1.gene1194&lt;br&gt;Location: 4037199 - 4039181" locus_tag="input.path1.gene1194" class="clusterblast-orf" id="subclusterblast-3_q18_0_all"  />
<polygon points="765,40 775,40 780,35 775,30 765,30 765,40 " style="fill:white; stroke-width:1; stroke:black; " description="&lt;b&gt;input.path1.gene1195&lt;/b&gt;&lt;br&gt;input.path1.gene1195&lt;br&gt;Location: 4039688 - 4040723" locus_tag="input.path1.gene1195" class="clusterblast-orf" id="subclusterblast-3_q19_0_all"  />
</g>
</svg>
