<svg xmlns="http://www.w3.org/2000/svg" xmlns:xlink="http://www.w3.org/1999/xlink" version="1.1" x="0" y="0" height="230" width="800" viewBox="0 0 800 230" preserveAspectRatio="none"  >
<g label="Query sequence" class="clusterblast-cluster"  >
<text x="5" y="20" class="clusterblast-acc"  >
Query sequence</text>
<line x1="10" y1="35" x2="778.0" y2="35" style="stroke-width:1; stroke:grey; "  />
<polygon points="373,40 375,35 373,30 373,40 " style="fill:white; stroke-width:1; stroke:black; " description="&lt;b&gt;input.path1.gene26&lt;/b&gt;&lt;br&gt;input.path1.gene26&lt;br&gt;Location: 455657 - 455839" locus_tag="input.path1.gene26" class="clusterblast-orf" id="dummy-1_q0_0_all"  />
<polygon points="378,35 383,30 391,30 391,40 383,40 378,35 " style="fill:#d81515; stroke-width:1; stroke:black; " description="&lt;b&gt;input.path1.gene27&lt;/b&gt;&lt;br&gt;input.path1.gene27&lt;br&gt;Location: 456090 - 457420" locus_tag="input.path1.gene27" class="clusterblast-orf" id="dummy-1_q1_0_all"  />
<polygon points="395,35 400,30 406,30 406,40 400,40 395,35 " style="fill:#d81515; stroke-width:1; stroke:black; " description="&lt;b&gt;input.path1.gene28&lt;/b&gt;&lt;br&gt;input.path1.gene28&lt;br&gt;Location: 457850 - 458963" locus_tag="input.path1.gene28" class="clusterblast-orf" id="dummy-1_q2_0_all"  />
</g>
<g label="NZ_CP045803" description="NZ_CP045803 (1542748-1623252): Streptomyces rimosus R6-500 chromosome (7% of genes show similarity), NRPS" class="clusterblast-cluster"  >
<text x="5" y="70" class="clusterblast-acc"  >
<a xlink:href="https://antismash-db.secondarymetabolites.org/area?record=NZ_CP045803&amp;start=1542748&amp;end=1623252" target="_blank">NZ_CP045803 (1542748-1623252)</a>: Streptomyces rimosus R6-500 chromosome (7% of genes show similarity), NRPS</text>
<line x1="10" y1="85" x2="778.0" y2="85" style="stroke-width:1; stroke:grey; "  />
</g>
<g id="a1_000"  >
<polygon points="0,90 5,90 10,85 5,80 0,80 0,90 " style="fill:white; stroke-width:1; stroke:black; " description="&lt;b&gt;V519_RS07565&lt;/b&gt;&lt;br&gt;alpha/beta hydrolase&lt;br&gt;Location: 1622039 - 1620981" locus_tag="V519_RS07565" class="clusterblast-orf" id="dummy-1_h1_6_0"  />
</g>
<g id="a1_001"  >
<polygon points="10,85 15,80 16,80 16,90 15,90 10,85 " style="fill:white; stroke-width:1; stroke:black; " description="&lt;b&gt;V519_RS07560&lt;/b&gt;&lt;br&gt;TetR/AcrR family transcriptional regulator&lt;br&gt;Location: 1621015 - 1620416" locus_tag="V519_RS07560" class="clusterblast-orf" id="dummy-1_h1_6_1"  />
</g>
<g id="a1_002"  >
<polygon points="17,90 19,90 24,85 19,80 17,80 17,90 " style="fill:white; stroke-width:1; stroke:black; " description="&lt;b&gt;V519_RS07555&lt;/b&gt;&lt;br&gt;hypothetical protein&lt;br&gt;Location: 1620279 - 1619581" locus_tag="V519_RS07555" class="clusterblast-orf" id="dummy-1_h1_6_2"  />
</g>
<g id="a1_003"  >
<polygon points="26,90 29,90 34,85 29,80 26,80 26,90 " style="fill:white; stroke-width:1; stroke:black; " description="&lt;b&gt;V519_RS07550&lt;/b&gt;&lt;br&gt;DeoR/GlpR family DNA-binding transcription regulator&lt;br&gt;Location: 1619363 - 1618584" locus_tag="V519_RS07550" class="clusterblast-orf" id="dummy-1_h1_6_3"  />
</g>
<g id="a1_004"  >
<polygon points="34,90 38,85 34,80 34,90 " style="fill:white; stroke-width:1; stroke:black; " description="&lt;b&gt;V519_RS07545&lt;/b&gt;&lt;br&gt;RidA family protein&lt;br&gt;Location: 1618551 - 1618132" locus_tag="V519_RS07545" class="clusterblast-orf" id="dummy-1_h1_6_4"  />
</g>
<g id="a1_005"  >
<polygon points="39,85 44,80 47,80 47,90 44,90 39,85 " style="fill:white; stroke-width:1; stroke:black; " description="&lt;b&gt;V519_RS07540&lt;/b&gt;&lt;br&gt;arylamine N-acetyltransferase&lt;br&gt;Location: 1618068 - 1617202" locus_tag="V519_RS07540" class="clusterblast-orf" id="dummy-1_h1_6_5"  />
</g>
<g id="a1_006"  >
<polygon points="48,85 53,80 64,80 64,90 53,90 48,85 " style="fill:white; stroke-width:1; stroke:black; " description="&lt;b&gt;V519_RS07535&lt;/b&gt;&lt;br&gt;hypothetical protein&lt;br&gt;Location: 1617129 - 1615456" locus_tag="V519_RS07535" class="clusterblast-orf" id="dummy-1_h1_6_6"  />
</g>
<g id="a1_007"  >
<polygon points="64,85 69,80 73,80 73,90 69,90 64,85 " style="fill:white; stroke-width:1; stroke:black; " description="&lt;b&gt;V519_RS07530&lt;/b&gt;&lt;br&gt;ATP-binding cassette domain-containing protein&lt;br&gt;Location: 1615459 - 1614581" locus_tag="V519_RS07530" class="clusterblast-orf" id="dummy-1_h1_6_7"  />
</g>
<g id="a1_008"  >
<polygon points="73,85 78,80 78,80 78,90 78,90 73,85 " style="fill:white; stroke-width:1; stroke:black; " description="&lt;b&gt;V519_RS07525&lt;/b&gt;&lt;br&gt;hypothetical protein&lt;br&gt;Location: 1614584 - 1614135" locus_tag="V519_RS07525" class="clusterblast-orf" id="dummy-1_h1_6_8"  />
</g>
<g id="a1_009"  >
<polygon points="79,85 84,80 91,80 91,90 84,90 79,85 " style="fill:white; stroke-width:1; stroke:black; " description="&lt;b&gt;V519_RS07520&lt;/b&gt;&lt;br&gt;histidine kinase&lt;br&gt;Location: 1613973 - 1612750" locus_tag="V519_RS07520" class="clusterblast-orf" id="dummy-1_h1_6_9"  />
</g>
<g id="a1_0010"  >
<polygon points="91,85 96,80 98,80 98,90 96,90 91,85 " style="fill:white; stroke-width:1; stroke:black; " description="&lt;b&gt;V519_RS07515&lt;/b&gt;&lt;br&gt;response regulator transcription factor&lt;br&gt;Location: 1612756 - 1612058" locus_tag="V519_RS07515" class="clusterblast-orf" id="dummy-1_h1_6_10"  />
</g>
<g id="a1_0011"  >
<polygon points="99,85 104,80 108,80 108,90 104,90 99,85 " style="fill:white; stroke-width:1; stroke:black; " description="&lt;b&gt;V519_RS07510&lt;/b&gt;&lt;br&gt;glycerophosphodiester phosphodiesterase family protein&lt;br&gt;Location: 1611964 - 1611071" locus_tag="V519_RS07510" class="clusterblast-orf" id="dummy-1_h1_6_11"  />
</g>
<g id="a1_0012"  >
<polygon points="110,85 115,80 118,80 118,90 115,90 110,85 " style="fill:white; stroke-width:1; stroke:black; " description="&lt;b&gt;V519_RS07505&lt;/b&gt;&lt;br&gt;MBL fold metallo-hydrolase&lt;br&gt;Location: 1610891 - 1609992" locus_tag="V519_RS07505" class="clusterblast-orf" id="dummy-1_h1_6_12"  />
</g>
<g id="a1_0013"  >
<polygon points="120,90 123,85 120,80 120,90 " style="fill:white; stroke-width:1; stroke:black; " description="&lt;b&gt;V519_RS07500&lt;/b&gt;&lt;br&gt;hypothetical protein&lt;br&gt;Location: 1609807 - 1609574" locus_tag="V519_RS07500" class="clusterblast-orf" id="dummy-1_h1_6_13"  />
</g>
<g id="a1_0014"  >
<polygon points="123,90 132,90 137,85 132,80 123,80 123,90 " style="fill:white; stroke-width:1; stroke:black; " description="&lt;b&gt;V519_RS07495&lt;/b&gt;&lt;br&gt;Asp-tRNA(Asn)/Glu-tRNA(Gln) amidotransferase GatCAB subunit A&lt;br&gt;Location: 1609577 - 1608150" locus_tag="V519_RS07495" class="clusterblast-orf" id="dummy-1_h1_6_14"  />
</g>
<g id="a1_0015"  >
<polygon points="137,85 142,80 142,80 142,90 142,90 137,85 " style="fill:white; stroke-width:1; stroke:black; " description="&lt;b&gt;V519_RS07490&lt;/b&gt;&lt;br&gt;TetR/AcrR family transcriptional regulator&lt;br&gt;Location: 1608146 - 1607622" locus_tag="V519_RS07490" class="clusterblast-orf" id="dummy-1_h1_6_15"  />
</g>
<g id="a1_0016"  >
<polygon points="143,85 148,80 151,80 151,90 148,90 143,85 " style="fill:white; stroke-width:1; stroke:black; " description="&lt;b&gt;V519_RS07485&lt;/b&gt;&lt;br&gt;NAD(P)-binding domain-containing protein&lt;br&gt;Location: 1607491 - 1606667" locus_tag="V519_RS07485" class="clusterblast-orf" id="dummy-1_h1_6_16"  />
</g>
<g id="a1_0017"  >
<polygon points="152,85 154,80 154,90 152,85 " style="fill:white; stroke-width:1; stroke:black; " description="&lt;b&gt;V519_RS07480&lt;/b&gt;&lt;br&gt;hypothetical protein&lt;br&gt;Location: 1606555 - 1606388" locus_tag="V519_RS07480" class="clusterblast-orf" id="dummy-1_h1_6_17"  />
</g>
<g id="a1_0018"  >
<polygon points="155,85 160,80 165,80 165,90 160,90 155,85 " style="fill:white; stroke-width:1; stroke:black; " description="&lt;b&gt;V519_RS07475&lt;/b&gt;&lt;br&gt;ribosomal RNA methyltransferase RrmJ/FtsJ&lt;br&gt;Location: 1606305 - 1605283" locus_tag="V519_RS07475" class="clusterblast-orf" id="dummy-1_h1_6_18"  />
</g>
<g id="a1_0019"  >
<polygon points="166,85 171,80 173,80 173,90 171,90 166,85 " style="fill:white; stroke-width:1; stroke:black; " description="&lt;b&gt;V519_RS07470&lt;/b&gt;&lt;br&gt;alpha/beta fold hydrolase&lt;br&gt;Location: 1605205 - 1604438" locus_tag="V519_RS07470" class="clusterblast-orf" id="dummy-1_h1_6_19"  />
</g>
<g id="a1_0020"  >
<polygon points="174,85 176,80 176,90 174,85 " style="fill:white; stroke-width:1; stroke:black; " description="&lt;b&gt;V519_RS07465&lt;/b&gt;&lt;br&gt;MbtH family protein&lt;br&gt;Location: 1604351 - 1604133" locus_tag="V519_RS07465" class="clusterblast-orf" id="dummy-1_h1_6_20"  />
</g>
<g id="a1_0021"  >
<polygon points="177,85 182,80 184,80 184,90 182,90 177,85 " style="fill:white; stroke-width:1; stroke:black; " description="&lt;b&gt;V519_RS40230&lt;/b&gt;&lt;br&gt;alpha/beta fold hydrolase&lt;br&gt;Location: 1604074 - 1603346" locus_tag="V519_RS40230" class="clusterblast-orf" id="dummy-1_h1_6_21"  />
</g>
<g id="a1_0022"  >
<polygon points="185,85 190,80 215,80 215,90 190,90 185,85 " style="fill:white; stroke-width:1; stroke:black; " description="&lt;b&gt;V519_RS07460&lt;/b&gt;&lt;br&gt;amino acid adenylation domain-containing protein&lt;br&gt;Location: 1603252 - 1600196" locus_tag="V519_RS07460" class="clusterblast-orf" id="dummy-1_h1_6_22"  />
</g>
<g id="a1_0023"  >
<polygon points="215,85 220,80 338,80 338,90 220,90 215,85 " style="fill:#d81515; stroke-width:1; stroke:black; " description="&lt;b&gt;V519_RS07455&lt;/b&gt;&lt;br&gt;non-ribosomal peptide synthetase&lt;br&gt;Location: 1600174 - 1587752&lt;br&gt;&lt;br&gt;&lt;b&gt;BlastP hit with input.path1.gene28&lt;/b&gt;&lt;br&gt;Percentage identity: 34&lt;br&gt;Percentage coverage: 74&lt;br&gt;BLAST bit score: 116&lt;br&gt;E-value: 3.42e-26" locus_tag="V519_RS07455" class="clusterblast-orf" id="dummy-1_h1_6_23"  />
</g>
<g id="a1_0024"  >
<polygon points="338,85 343,80 390,80 390,90 343,90 338,85 " style="fill:#d81515; stroke-width:1; stroke:black; " description="&lt;b&gt;V519_RS07450&lt;/b&gt;&lt;br&gt;non-ribosomal peptide synthetase&lt;br&gt;Location: 1587755 - 1582467&lt;br&gt;&lt;br&gt;&lt;b&gt;BlastP hit with input.path1.gene27&lt;/b&gt;&lt;br&gt;Percentage identity: 31&lt;br&gt;Percentage coverage: 64&lt;br&gt;BLAST bit score: 99&lt;br&gt;E-value: 3.64e-20" locus_tag="V519_RS07450" class="clusterblast-orf" id="dummy-1_h1_6_24"  />
</g>
<g id="a1_0025"  >
<polygon points="390,85 395,80 585,80 585,90 395,90 390,85 " style="fill:#d81515; stroke-width:1; stroke:black; " description="&lt;b&gt;V519_RS39640&lt;/b&gt;&lt;br&gt;non-ribosomal peptide synthase/polyketide synthase&lt;br&gt;Location: 1582449 - 1562749&lt;br&gt;&lt;br&gt;&lt;b&gt;BlastP hit with input.path1.gene28&lt;/b&gt;&lt;br&gt;Percentage identity: 35&lt;br&gt;Percentage coverage: 70&lt;br&gt;BLAST bit score: 116&lt;br&gt;E-value: 3.51e-26" locus_tag="V519_RS39640" class="clusterblast-orf" id="dummy-1_h1_6_25"  />
</g>
<g id="a1_0026"  >
<polygon points="592,90 603,90 608,85 603,80 592,80 592,90 " style="fill:white; stroke-width:1; stroke:black; " description="&lt;b&gt;V519_RS07440&lt;/b&gt;&lt;br&gt;ABC transporter ATP-binding protein&lt;br&gt;Location: 1562074 - 1560392" locus_tag="V519_RS07440" class="clusterblast-orf" id="dummy-1_h1_6_26"  />
</g>
<g id="a1_0027"  >
<polygon points="608,90 628,90 633,85 628,80 608,80 608,90 " style="fill:white; stroke-width:1; stroke:black; " description="&lt;b&gt;V519_RS07435&lt;/b&gt;&lt;br&gt;penicillin acylase family protein&lt;br&gt;Location: 1560417 - 1557886" locus_tag="V519_RS07435" class="clusterblast-orf" id="dummy-1_h1_6_27"  />
</g>
<g id="a1_0028"  >
<polygon points="635,85 640,80 651,80 651,90 640,90 635,85 " style="fill:white; stroke-width:1; stroke:black; " description="&lt;b&gt;V519_RS07425&lt;/b&gt;&lt;br&gt;alpha/beta hydrolase&lt;br&gt;Location: 1557681 - 1556080" locus_tag="V519_RS07425" class="clusterblast-orf" id="dummy-1_h1_6_28"  />
</g>
<g id="a1_0029"  >
<polygon points="654,85 659,80 666,80 666,90 659,90 654,85 " style="fill:white; stroke-width:1; stroke:black; " description="&lt;b&gt;V519_RS07420&lt;/b&gt;&lt;br&gt;DNA polymerase III subunit delta'&lt;br&gt;Location: 1555735 - 1554506" locus_tag="V519_RS07420" class="clusterblast-orf" id="dummy-1_h1_6_29"  />
</g>
<g id="a1_0030"  >
<polygon points="669,85 674,80 701,80 701,90 674,90 669,85 " style="fill:white; stroke-width:1; stroke:black; " description="&lt;b&gt;V519_RS07415&lt;/b&gt;&lt;br&gt;dTMP kinase&lt;br&gt;Location: 1554230 - 1551003" locus_tag="V519_RS07415" class="clusterblast-orf" id="dummy-1_h1_6_30"  />
</g>
<g id="a1_0031"  >
<polygon points="702,85 704,80 704,90 702,85 " style="fill:white; stroke-width:1; stroke:black; " description="&lt;b&gt;V519_RS07410&lt;/b&gt;&lt;br&gt;hypothetical protein&lt;br&gt;Location: 1550881 - 1550657" locus_tag="V519_RS07410" class="clusterblast-orf" id="dummy-1_h1_6_31"  />
</g>
<g id="a1_0032"  >
<polygon points="705,85 710,80 733,80 733,90 710,90 705,85 " style="fill:white; stroke-width:1; stroke:black; " description="&lt;b&gt;V519_RS07405&lt;/b&gt;&lt;br&gt;type I DNA topoisomerase&lt;br&gt;Location: 1550606 - 1547748" locus_tag="V519_RS07405" class="clusterblast-orf" id="dummy-1_h1_6_32"  />
</g>
<g id="a1_0033"  >
<polygon points="738,90 738,90 743,85 738,80 738,80 738,90 " style="fill:white; stroke-width:1; stroke:black; " description="&lt;b&gt;V519_RS07400&lt;/b&gt;&lt;br&gt;DUF2752 domain-containing protein&lt;br&gt;Location: 1547218 - 1546784" locus_tag="V519_RS07400" class="clusterblast-orf" id="dummy-1_h1_6_33"  />
</g>
<g id="a1_0034"  >
<polygon points="744,85 748,80 748,90 744,85 " style="fill:white; stroke-width:1; stroke:black; " description="&lt;b&gt;V519_RS07395&lt;/b&gt;&lt;br&gt;hypothetical protein&lt;br&gt;Location: 1546664 - 1546263" locus_tag="V519_RS07395" class="clusterblast-orf" id="dummy-1_h1_6_34"  />
</g>
<g id="a1_0035"  >
<polygon points="750,85 752,80 752,90 750,85 " style="fill:white; stroke-width:1; stroke:black; " description="&lt;b&gt;V519_RS07390&lt;/b&gt;&lt;br&gt;hypothetical protein&lt;br&gt;Location: 1546034 - 1545843" locus_tag="V519_RS07390" class="clusterblast-orf" id="dummy-1_h1_6_35"  />
</g>
<g id="a1_0036"  >
<polygon points="753,85 758,80 768,80 768,90 758,90 753,85 " style="fill:white; stroke-width:1; stroke:black; " description="&lt;b&gt;V519_RS07385&lt;/b&gt;&lt;br&gt;class I SAM-dependent methyltransferase&lt;br&gt;Location: 1545720 - 1544176" locus_tag="V519_RS07385" class="clusterblast-orf" id="dummy-1_h1_6_36"  />
</g>
<g id="a1_0037"  >
<polygon points="774,85 779,80 780,80 780,90 779,90 774,85 " style="fill:white; stroke-width:1; stroke:black; " description="&lt;b&gt;V519_RS07380&lt;/b&gt;&lt;br&gt;hypothetical protein&lt;br&gt;Location: 1543623 - 1543042" locus_tag="V519_RS07380" class="clusterblast-orf" id="dummy-1_h1_6_37"  />
</g>
</svg>
