<svg xmlns="http://www.w3.org/2000/svg" xmlns:xlink="http://www.w3.org/1999/xlink" version="1.1" x="0" y="0" height="230" width="800" viewBox="0 0 800 230" preserveAspectRatio="none"  >
<g label="Query sequence" class="clusterblast-cluster"  >
<text x="5" y="20" class="clusterblast-acc"  >
Query sequence</text>
<line x1="10" y1="35" x2="778.0" y2="35" style="stroke-width:1; stroke:grey; "  />
<polygon points="0,40 76,40 81,35 76,30 0,30 0,40 " style="fill:white; stroke-width:1; stroke:black; " description="&lt;b&gt;input.path1.gene25&lt;/b&gt;&lt;br&gt;input.path1.gene25&lt;br&gt;Location: 183204 - 185217" locus_tag="input.path1.gene25" class="clusterblast-orf" id="dummy-1_q0_0_all"  />
<polygon points="126,35 131,30 138,30 138,40 131,40 126,35 " style="fill:white; stroke-width:1; stroke:black; " description="&lt;b&gt;input.path1.gene26&lt;/b&gt;&lt;br&gt;input.path1.gene26&lt;br&gt;Location: 186323 - 186621" locus_tag="input.path1.gene26" class="clusterblast-orf" id="dummy-1_q1_0_all"  />
<polygon points="311,40 322,40 327,35 322,30 311,30 311,40 " style="fill:white; stroke-width:1; stroke:black; " description="&lt;b&gt;input.path1.gene27&lt;/b&gt;&lt;br&gt;input.path1.gene27&lt;br&gt;Location: 190920 - 191324" locus_tag="input.path1.gene27" class="clusterblast-orf" id="dummy-1_q2_0_all"  />
<polygon points="369,40 437,40 442,35 437,30 369,30 369,40 " style="fill:#d81515; stroke-width:1; stroke:black; " description="&lt;b&gt;input.path1.gene28&lt;/b&gt;&lt;br&gt;input.path1.gene28&lt;br&gt;Location: 192364 - 194185" locus_tag="input.path1.gene28" class="clusterblast-orf" id="dummy-1_q3_0_all"  />
<polygon points="511,35 516,30 557,30 557,40 516,40 511,35 " style="fill:white; stroke-width:1; stroke:black; " description="&lt;b&gt;input.path1.gene29&lt;/b&gt;&lt;br&gt;input.path1.gene29&lt;br&gt;Location: 195903 - 197033" locus_tag="input.path1.gene29" class="clusterblast-orf" id="dummy-1_q4_0_all"  />
<polygon points="578,40 612,40 617,35 612,30 578,30 578,40 " style="fill:#15d8d8; stroke-width:1; stroke:black; " description="&lt;b&gt;input.path1.gene30&lt;/b&gt;&lt;br&gt;input.path1.gene30&lt;br&gt;Location: 197549 - 198532" locus_tag="input.path1.gene30" class="clusterblast-orf" id="dummy-1_q5_0_all"  />
<polygon points="701,35 706,30 780,30 780,40 706,40 701,35 " style="fill:white; stroke-width:1; stroke:black; " description="&lt;b&gt;input.path1.gene31&lt;/b&gt;&lt;br&gt;input.path1.gene31&lt;br&gt;Location: 200604 - 202573" locus_tag="input.path1.gene31" class="clusterblast-orf" id="dummy-1_q6_0_all"  />
</g>
<g label="NW_017253361" description="NW_017253361 (2832736-2864654): Paraphaeosphaeria sporulosa strain AP3s5-JAC2... (28% of genes show similarity), terpene" class="clusterblast-cluster"  >
<text x="5" y="70" class="clusterblast-acc"  >
<a xlink:href="https://antismash-db.secondarymetabolites.org/area?record=NW_017253361&amp;start=2832736&amp;end=2864654" target="_blank">NW_017253361 (2832736-2864654)</a>: Paraphaeosphaeria sporulosa strain AP3s5-JAC2... (28% of genes show similarity), terpene</text>
<line x1="10" y1="85" x2="778.0" y2="85" style="stroke-width:1; stroke:grey; "  />
</g>
<g id="a1_000"  >
<polygon points="36,90 95,90 100,85 95,80 36,80 36,90 " style="fill:white; stroke-width:1; stroke:black; " description="&lt;b&gt;CC84DRAFT_1161241&lt;/b&gt;&lt;br&gt;hypothetical protein&lt;br&gt;Location: 2863261 - 2861695" locus_tag="CC84DRAFT_1161241" class="clusterblast-orf" id="dummy-1_h1_1_0"  />
</g>
<g id="a1_001"  >
<polygon points="108,85 113,80 132,80 132,90 113,90 108,85 " style="fill:white; stroke-width:1; stroke:black; " description="&lt;b&gt;CC84DRAFT_1193781&lt;/b&gt;&lt;br&gt;Thioesterase/thiol ester dehydrase-isomerase&lt;br&gt;Location: 2861482 - 2860891" locus_tag="CC84DRAFT_1193781" class="clusterblast-orf" id="dummy-1_h1_1_1"  />
</g>
<g id="a1_002"  >
<polygon points="312,85 317,80 401,80 401,90 317,90 312,85 " style="fill:white; stroke-width:1; stroke:black; " description="&lt;b&gt;CC84DRAFT_475996&lt;/b&gt;&lt;br&gt;hypothetical protein&lt;br&gt;Location: 2856425 - 2854218" locus_tag="CC84DRAFT_475996" class="clusterblast-orf" id="dummy-1_h1_1_2"  />
</g>
<g id="a1_003"  >
<polygon points="436,85 441,80 446,80 446,90 441,90 436,85 " style="fill:white; stroke-width:1; stroke:black; " description="&lt;b&gt;CC84DRAFT_1236763&lt;/b&gt;&lt;br&gt;hypothetical protein&lt;br&gt;Location: 2853350 - 2853099" locus_tag="CC84DRAFT_1236763" class="clusterblast-orf" id="dummy-1_h1_1_3"  />
</g>
<g id="a1_004"  >
<polygon points="476,85 481,80 562,80 562,90 481,90 476,85 " style="fill:white; stroke-width:1; stroke:black; " description="&lt;b&gt;CC84DRAFT_1112407&lt;/b&gt;&lt;br&gt;carotenoid oxygenase&lt;br&gt;Location: 2852344 - 2850223" locus_tag="CC84DRAFT_1112407" class="clusterblast-orf" id="dummy-1_h1_1_4"  />
</g>
<g id="a1_005"  >
<polygon points="584,90 657,90 662,85 657,80 584,80 584,90 " style="fill:#d81515; stroke-width:1; stroke:black; " description="&lt;b&gt;CC84DRAFT_1112403&lt;/b&gt;&lt;br&gt;Lycopene beta-cyclase&lt;br&gt;Location: 2849654 - 2847737&lt;br&gt;&lt;br&gt;&lt;b&gt;BlastP hit with input.path1.gene28&lt;/b&gt;&lt;br&gt;Percentage identity: 52&lt;br&gt;Percentage coverage: 105&lt;br&gt;BLAST bit score: 542&lt;br&gt;E-value: 2.09e-186" locus_tag="CC84DRAFT_1112403" class="clusterblast-orf" id="dummy-1_h1_1_5"  />
</g>
<g id="a1_006"  >
<polygon points="700,90 737,90 742,85 737,80 700,80 700,90 " style="fill:#15d8d8; stroke-width:1; stroke:black; " description="&lt;b&gt;CC84DRAFT_1138657&lt;/b&gt;&lt;br&gt;family A G protein-coupled receptor-like protein&lt;br&gt;Location: 2846794 - 2845729&lt;br&gt;&lt;br&gt;&lt;b&gt;BlastP hit with input.path1.gene30&lt;/b&gt;&lt;br&gt;Percentage identity: 58&lt;br&gt;Percentage coverage: 97&lt;br&gt;BLAST bit score: 333&lt;br&gt;E-value: 2.06e-112" locus_tag="CC84DRAFT_1138657" class="clusterblast-orf" id="dummy-1_h1_1_6"  />
</g>
</svg>
