<svg xmlns="http://www.w3.org/2000/svg" xmlns:xlink="http://www.w3.org/1999/xlink" version="1.1" x="0" y="0" height="230" width="800" viewBox="0 0 800 230" preserveAspectRatio="none"  >
<g label="Query sequence" class="clusterblast-cluster"  >
<text x="5" y="20" class="clusterblast-acc"  >
Query sequence</text>
<line x1="10" y1="35" x2="778.0" y2="35" style="stroke-width:1; stroke:grey; "  />
<polygon points="234,40 236,35 234,30 234,40 " style="fill:white; stroke-width:1; stroke:black; " description="&lt;b&gt;input.path1.gene5&lt;/b&gt;&lt;br&gt;input.path1.gene5&lt;br&gt;Location: 74504 - 74731" locus_tag="input.path1.gene5" class="clusterblast-orf" id="dummy-1_q0_0_all"  />
<polygon points="236,35 241,30 241,30 241,40 241,40 236,35 " style="fill:#d81515; stroke-width:1; stroke:black; " description="&lt;b&gt;input.path1.gene6&lt;/b&gt;&lt;br&gt;input.path1.gene6&lt;br&gt;Location: 74727 - 75249" locus_tag="input.path1.gene6" class="clusterblast-orf" id="dummy-1_q1_0_all"  />
<polygon points="243,40 245,40 250,35 245,30 243,30 243,40 " style="fill:white; stroke-width:1; stroke:black; " description="&lt;b&gt;input.path1.gene7&lt;/b&gt;&lt;br&gt;input.path1.gene7&lt;br&gt;Location: 75446 - 76277" locus_tag="input.path1.gene7" class="clusterblast-orf" id="dummy-1_q2_0_all"  />
<polygon points="289,40 293,40 298,35 293,30 289,30 289,40 " style="fill:white; stroke-width:1; stroke:black; " description="&lt;b&gt;input.path1.gene8&lt;/b&gt;&lt;br&gt;input.path1.gene8&lt;br&gt;Location: 80857 - 81872" locus_tag="input.path1.gene8" class="clusterblast-orf" id="dummy-1_q3_0_all"  />
<polygon points="299,35 304,30 372,30 372,40 304,40 299,35 " style="fill:#15d8d8; stroke-width:1; stroke:black; " description="&lt;b&gt;input.path1.gene9&lt;/b&gt;&lt;br&gt;input.path1.gene9&lt;br&gt;Location: 82002 - 90414" locus_tag="input.path1.gene9" class="clusterblast-orf" id="dummy-1_q4_0_all"  />
<polygon points="515,35 520,30 523,30 523,40 520,40 515,35 " style="fill:white; stroke-width:1; stroke:black; " description="&lt;b&gt;input.path1.gene10&lt;/b&gt;&lt;br&gt;input.path1.gene10&lt;br&gt;Location: 106937 - 107758" locus_tag="input.path1.gene10" class="clusterblast-orf" id="dummy-1_q5_0_all"  />
<polygon points="528,35 533,30 545,30 545,40 533,40 528,35 " style="fill:white; stroke-width:1; stroke:black; " description="&lt;b&gt;input.path1.gene11&lt;/b&gt;&lt;br&gt;input.path1.gene11&lt;br&gt;Location: 108403 - 110330" locus_tag="input.path1.gene11" class="clusterblast-orf" id="dummy-1_q6_0_all"  />
</g>
<g label="NW_025091264" description="NW_025091264 (5340181-5432359): Aspergillus udagawae IFM 46973 DNA, scaffold ... (10% of genes show similarity), T1PKS" class="clusterblast-cluster"  >
<text x="5" y="70" class="clusterblast-acc"  >
<a xlink:href="https://antismash-db.secondarymetabolites.org/area?record=NW_025091264&amp;start=5340181&amp;end=5432359" target="_blank">NW_025091264 (5340181-5432359)</a>: Aspergillus udagawae IFM 46973 DNA, scaffold ... (10% of genes show similarity), T1PKS</text>
<line x1="10" y1="85" x2="778.0" y2="85" style="stroke-width:1; stroke:grey; "  />
</g>
<g id="a1_000"  >
<polygon points="0,90 10,90 15,85 10,80 0,80 0,90 " style="fill:white; stroke-width:1; stroke:black; " description="&lt;b&gt;Aud_001790&lt;/b&gt;&lt;br&gt;uncharacterized protein&lt;br&gt;Location: 5431577 - 5429796" locus_tag="Aud_001790" class="clusterblast-orf" id="dummy-1_h1_7_0"  />
</g>
<g id="a1_001"  >
<polygon points="55,85 60,80 64,80 64,90 60,90 55,85 " style="fill:white; stroke-width:1; stroke:black; " description="&lt;b&gt;Aud_001789&lt;/b&gt;&lt;br&gt;uncharacterized protein&lt;br&gt;Location: 5425142 - 5424167" locus_tag="Aud_001789" class="clusterblast-orf" id="dummy-1_h1_7_1"  />
</g>
<g id="a1_002"  >
<polygon points="73,85 78,80 81,80 81,90 78,90 73,85 " style="fill:white; stroke-width:1; stroke:black; " description="&lt;b&gt;Aud_001788&lt;/b&gt;&lt;br&gt;uncharacterized protein&lt;br&gt;Location: 5423140 - 5422172" locus_tag="Aud_001788" class="clusterblast-orf" id="dummy-1_h1_7_2"  />
</g>
<g id="a1_003"  >
<polygon points="88,90 92,90 97,85 92,80 88,80 88,90 " style="fill:white; stroke-width:1; stroke:black; " description="&lt;b&gt;Aud_001787&lt;/b&gt;&lt;br&gt;uncharacterized protein&lt;br&gt;Location: 5421308 - 5420277" locus_tag="Aud_001787" class="clusterblast-orf" id="dummy-1_h1_7_3"  />
</g>
<g id="a1_004"  >
<polygon points="111,85 116,80 118,80 118,90 116,90 111,85 " style="fill:white; stroke-width:1; stroke:black; " description="&lt;b&gt;Aud_001786&lt;/b&gt;&lt;br&gt;uncharacterized protein&lt;br&gt;Location: 5418707 - 5417868" locus_tag="Aud_001786" class="clusterblast-orf" id="dummy-1_h1_7_4"  />
</g>
<g id="a1_005"  >
<polygon points="123,85 128,80 129,80 129,90 128,90 123,85 " style="fill:white; stroke-width:1; stroke:black; " description="&lt;b&gt;Aud_001785&lt;/b&gt;&lt;br&gt;uncharacterized protein&lt;br&gt;Location: 5417296 - 5416601" locus_tag="Aud_001785" class="clusterblast-orf" id="dummy-1_h1_7_5"  />
</g>
<g id="a1_006"  >
<polygon points="143,90 146,90 151,85 146,80 143,80 143,90 " style="fill:white; stroke-width:1; stroke:black; " description="&lt;b&gt;Aud_001784&lt;/b&gt;&lt;br&gt;uncharacterized protein&lt;br&gt;Location: 5415020 - 5414112" locus_tag="Aud_001784" class="clusterblast-orf" id="dummy-1_h1_7_6"  />
</g>
<g id="a1_007"  >
<polygon points="174,90 194,90 199,85 194,80 174,80 174,90 " style="fill:white; stroke-width:1; stroke:black; " description="&lt;b&gt;Aud_001783&lt;/b&gt;&lt;br&gt;uncharacterized protein&lt;br&gt;Location: 5411407 - 5408567" locus_tag="Aud_001783" class="clusterblast-orf" id="dummy-1_h1_7_7"  />
</g>
<g id="a1_008"  >
<polygon points="212,90 244,90 249,85 244,80 212,80 212,90 " style="fill:white; stroke-width:1; stroke:black; " description="&lt;b&gt;Aud_001782&lt;/b&gt;&lt;br&gt;uncharacterized protein&lt;br&gt;Location: 5407050 - 5402832" locus_tag="Aud_001782" class="clusterblast-orf" id="dummy-1_h1_7_8"  />
</g>
<g id="a1_009"  >
<polygon points="253,85 258,80 316,80 316,90 258,90 253,85 " style="fill:#15d8d8; stroke-width:1; stroke:black; " description="&lt;b&gt;Aud_001781&lt;/b&gt;&lt;br&gt;type I iterative polyketide synthase&lt;br&gt;Location: 5402359 - 5395105&lt;br&gt;&lt;br&gt;&lt;b&gt;BlastP hit with input.path1.gene9&lt;/b&gt;&lt;br&gt;Percentage identity: 35&lt;br&gt;Percentage coverage: 48&lt;br&gt;BLAST bit score: 592&lt;br&gt;E-value: 1.98e-171" locus_tag="Aud_001781" class="clusterblast-orf" id="dummy-1_h1_7_9"  />
</g>
<g id="a1_0010"  >
<polygon points="325,85 330,80 335,80 335,90 330,90 325,85 " style="fill:white; stroke-width:1; stroke:black; " description="&lt;b&gt;Aud_001780&lt;/b&gt;&lt;br&gt;uncharacterized protein&lt;br&gt;Location: 5394044 - 5392905" locus_tag="Aud_001780" class="clusterblast-orf" id="dummy-1_h1_7_10"  />
</g>
<g id="a1_0011"  >
<polygon points="338,90 351,90 356,85 351,80 338,80 338,90 " style="fill:white; stroke-width:1; stroke:black; " description="&lt;b&gt;Aud_001779&lt;/b&gt;&lt;br&gt;uncharacterized protein&lt;br&gt;Location: 5392537 - 5390477" locus_tag="Aud_001779" class="clusterblast-orf" id="dummy-1_h1_7_11"  />
</g>
<g id="a1_0012"  >
<polygon points="358,85 363,80 373,80 373,90 363,90 358,85 " style="fill:white; stroke-width:1; stroke:black; " description="&lt;b&gt;Aud_001778&lt;/b&gt;&lt;br&gt;uncharacterized protein&lt;br&gt;Location: 5390170 - 5388500" locus_tag="Aud_001778" class="clusterblast-orf" id="dummy-1_h1_7_12"  />
</g>
<g id="a1_0013"  >
<polygon points="380,85 385,80 394,80 394,90 385,90 380,85 " style="fill:white; stroke-width:1; stroke:black; " description="&lt;b&gt;Aud_001777&lt;/b&gt;&lt;br&gt;uncharacterized protein&lt;br&gt;Location: 5387630 - 5386058" locus_tag="Aud_001777" class="clusterblast-orf" id="dummy-1_h1_7_13"  />
</g>
<g id="a1_0014"  >
<polygon points="400,90 403,90 408,85 403,80 400,80 400,90 " style="fill:white; stroke-width:1; stroke:black; " description="&lt;b&gt;Aud_001776&lt;/b&gt;&lt;br&gt;uncharacterized protein&lt;br&gt;Location: 5385378 - 5384434" locus_tag="Aud_001776" class="clusterblast-orf" id="dummy-1_h1_7_14"  />
</g>
<g id="a1_0015"  >
<polygon points="412,90 413,90 418,85 413,80 412,80 412,90 " style="fill:white; stroke-width:1; stroke:black; " description="&lt;b&gt;Aud_001775&lt;/b&gt;&lt;br&gt;uncharacterized protein&lt;br&gt;Location: 5383961 - 5383231" locus_tag="Aud_001775" class="clusterblast-orf" id="dummy-1_h1_7_15"  />
</g>
<g id="a1_0016"  >
<polygon points="423,85 428,80 433,80 433,90 428,90 423,85 " style="fill:#d81515; stroke-width:1; stroke:black; " description="&lt;b&gt;Aud_001774&lt;/b&gt;&lt;br&gt;uncharacterized protein&lt;br&gt;Location: 5382751 - 5381590&lt;br&gt;&lt;br&gt;&lt;b&gt;BlastP hit with input.path1.gene6&lt;/b&gt;&lt;br&gt;Percentage identity: 58&lt;br&gt;Percentage coverage: 100&lt;br&gt;BLAST bit score: 190&lt;br&gt;E-value: 2e-58" locus_tag="Aud_001774" class="clusterblast-orf" id="dummy-1_h1_7_16"  />
</g>
<g id="a1_0017"  >
<polygon points="436,90 449,90 454,85 449,80 436,80 436,90 " style="fill:white; stroke-width:1; stroke:black; " description="&lt;b&gt;Aud_001773&lt;/b&gt;&lt;br&gt;uncharacterized protein&lt;br&gt;Location: 5381179 - 5379066" locus_tag="Aud_001773" class="clusterblast-orf" id="dummy-1_h1_7_17"  />
</g>
<g id="a1_0018"  >
<polygon points="459,85 464,80 531,80 531,90 464,90 459,85 " style="fill:#15d8d8; stroke-width:1; stroke:black; " description="&lt;b&gt;Aud_001772&lt;/b&gt;&lt;br&gt;type I iterative polyketide synthase&lt;br&gt;Location: 5378588 - 5370182&lt;br&gt;&lt;br&gt;&lt;b&gt;BlastP hit with input.path1.gene9&lt;/b&gt;&lt;br&gt;Percentage identity: 32&lt;br&gt;Percentage coverage: 105&lt;br&gt;BLAST bit score: 1154&lt;br&gt;E-value: 0.0" locus_tag="Aud_001772" class="clusterblast-orf" id="dummy-1_h1_7_18"  />
</g>
<g id="a1_0019"  >
<polygon points="536,90 538,90 543,85 538,80 536,80 536,90 " style="fill:white; stroke-width:1; stroke:black; " description="&lt;b&gt;Aud_001771&lt;/b&gt;&lt;br&gt;uncharacterized protein&lt;br&gt;Location: 5369680 - 5368794" locus_tag="Aud_001771" class="clusterblast-orf" id="dummy-1_h1_7_19"  />
</g>
<g id="a1_0020"  >
<polygon points="547,90 558,90 563,85 558,80 547,80 547,90 " style="fill:white; stroke-width:1; stroke:black; " description="&lt;b&gt;Aud_001770&lt;/b&gt;&lt;br&gt;uncharacterized protein&lt;br&gt;Location: 5368341 - 5366521" locus_tag="Aud_001770" class="clusterblast-orf" id="dummy-1_h1_7_20"  />
</g>
<g id="a1_0021"  >
<polygon points="567,90 578,90 583,85 578,80 567,80 567,90 " style="fill:white; stroke-width:1; stroke:black; " description="&lt;b&gt;Aud_001769&lt;/b&gt;&lt;br&gt;uncharacterized protein&lt;br&gt;Location: 5366029 - 5364284" locus_tag="Aud_001769" class="clusterblast-orf" id="dummy-1_h1_7_21"  />
</g>
<g id="a1_0022"  >
<polygon points="585,85 590,80 599,80 599,90 590,90 585,85 " style="fill:white; stroke-width:1; stroke:black; " description="&lt;b&gt;Aud_001768&lt;/b&gt;&lt;br&gt;uncharacterized protein&lt;br&gt;Location: 5363963 - 5362350" locus_tag="Aud_001768" class="clusterblast-orf" id="dummy-1_h1_7_22"  />
</g>
<g id="a1_0023"  >
<polygon points="668,85 673,80 692,80 692,90 673,90 668,85 " style="fill:white; stroke-width:1; stroke:black; " description="&lt;b&gt;Aud_001767&lt;/b&gt;&lt;br&gt;uncharacterized protein&lt;br&gt;Location: 5354417 - 5351598" locus_tag="Aud_001767" class="clusterblast-orf" id="dummy-1_h1_7_23"  />
</g>
<g id="a1_0024"  >
<polygon points="697,85 702,80 710,80 710,90 702,90 697,85 " style="fill:white; stroke-width:1; stroke:black; " description="&lt;b&gt;Aud_001766&lt;/b&gt;&lt;br&gt;uncharacterized protein&lt;br&gt;Location: 5351065 - 5349530" locus_tag="Aud_001766" class="clusterblast-orf" id="dummy-1_h1_7_24"  />
</g>
<g id="a1_0025"  >
<polygon points="732,85 737,80 739,80 739,90 737,90 732,85 " style="fill:white; stroke-width:1; stroke:black; " description="&lt;b&gt;Aud_001765&lt;/b&gt;&lt;br&gt;uncharacterized protein&lt;br&gt;Location: 5347089 - 5346257" locus_tag="Aud_001765" class="clusterblast-orf" id="dummy-1_h1_7_25"  />
</g>
<g id="a1_0026"  >
<polygon points="745,90 759,90 764,85 759,80 745,80 745,90 " style="fill:white; stroke-width:1; stroke:black; " description="&lt;b&gt;Aud_001764&lt;/b&gt;&lt;br&gt;uncharacterized protein&lt;br&gt;Location: 5345514 - 5343389" locus_tag="Aud_001764" class="clusterblast-orf" id="dummy-1_h1_7_26"  />
</g>
<g id="a1_0027"  >
<polygon points="770,90 775,90 780,85 775,80 770,80 770,90 " style="fill:white; stroke-width:1; stroke:black; " description="&lt;b&gt;Aud_001763&lt;/b&gt;&lt;br&gt;uncharacterized protein&lt;br&gt;Location: 5342618 - 5341552" locus_tag="Aud_001763" class="clusterblast-orf" id="dummy-1_h1_7_27"  />
</g>
</svg>
