<svg xmlns="http://www.w3.org/2000/svg" xmlns:xlink="http://www.w3.org/1999/xlink" version="1.1" x="0" y="0" height="50" width="800" viewBox="0 0 800 50" preserveAspectRatio="none"  >
<g label="Query sequence" class="clusterblast-cluster"  >
<text x="5" y="20" class="clusterblast-acc"  >
Query sequence</text>
<line x1="10" y1="35" x2="778.0" y2="35" style="stroke-width:1; stroke:grey; "  />
<polygon points="0,40 76,40 81,35 76,30 0,30 0,40 " style="fill:white; stroke-width:1; stroke:black; " description="&lt;b&gt;input.path1.gene25&lt;/b&gt;&lt;br&gt;input.path1.gene25&lt;br&gt;Location: 183204 - 185217" locus_tag="input.path1.gene25" class="clusterblast-orf" id="knownclusterblast-1_q0_0_all"  />
<polygon points="126,35 131,30 138,30 138,40 131,40 126,35 " style="fill:white; stroke-width:1; stroke:black; " description="&lt;b&gt;input.path1.gene26&lt;/b&gt;&lt;br&gt;input.path1.gene26&lt;br&gt;Location: 186323 - 186621" locus_tag="input.path1.gene26" class="clusterblast-orf" id="knownclusterblast-1_q1_0_all"  />
<polygon points="311,40 322,40 327,35 322,30 311,30 311,40 " style="fill:white; stroke-width:1; stroke:black; " description="&lt;b&gt;input.path1.gene27&lt;/b&gt;&lt;br&gt;input.path1.gene27&lt;br&gt;Location: 190920 - 191324" locus_tag="input.path1.gene27" class="clusterblast-orf" id="knownclusterblast-1_q2_0_all"  />
<polygon points="369,40 437,40 442,35 437,30 369,30 369,40 " style="fill:white; stroke-width:1; stroke:black; " description="&lt;b&gt;input.path1.gene28&lt;/b&gt;&lt;br&gt;input.path1.gene28&lt;br&gt;Location: 192364 - 194185" locus_tag="input.path1.gene28" class="clusterblast-orf" id="knownclusterblast-1_q3_0_all"  />
<polygon points="511,35 516,30 557,30 557,40 516,40 511,35 " style="fill:white; stroke-width:1; stroke:black; " description="&lt;b&gt;input.path1.gene29&lt;/b&gt;&lt;br&gt;input.path1.gene29&lt;br&gt;Location: 195903 - 197033" locus_tag="input.path1.gene29" class="clusterblast-orf" id="knownclusterblast-1_q4_0_all"  />
<polygon points="578,40 612,40 617,35 612,30 578,30 578,40 " style="fill:white; stroke-width:1; stroke:black; " description="&lt;b&gt;input.path1.gene30&lt;/b&gt;&lt;br&gt;input.path1.gene30&lt;br&gt;Location: 197549 - 198532" locus_tag="input.path1.gene30" class="clusterblast-orf" id="knownclusterblast-1_q5_0_all"  />
<polygon points="701,35 706,30 780,30 780,40 706,40 701,35 " style="fill:white; stroke-width:1; stroke:black; " description="&lt;b&gt;input.path1.gene31&lt;/b&gt;&lt;br&gt;input.path1.gene31&lt;br&gt;Location: 200604 - 202573" locus_tag="input.path1.gene31" class="clusterblast-orf" id="knownclusterblast-1_q6_0_all"  />
</g>
</svg>
