<svg xmlns="http://www.w3.org/2000/svg" xmlns:xlink="http://www.w3.org/1999/xlink" version="1.1" x="0" y="0" height="230" width="800" viewBox="0 0 800 230" preserveAspectRatio="none"  >
<g label="Query sequence" class="clusterblast-cluster"  >
<text x="5" y="20" class="clusterblast-acc"  >
Query sequence</text>
<line x1="10" y1="35" x2="778.0" y2="35" style="stroke-width:1; stroke:grey; "  />
<polygon points="296,35 301,30 311,30 311,40 301,40 296,35 " style="fill:#d81515; stroke-width:1; stroke:black; " description="&lt;b&gt;input.path1.gene75&lt;/b&gt;&lt;br&gt;input.path1.gene75&lt;br&gt;Location: 254732 - 256237" locus_tag="input.path1.gene75" class="clusterblast-orf" id="dummy-1_q0_0_all"  />
<polygon points="357,40 359,35 357,30 357,40 " style="fill:white; stroke-width:1; stroke:black; " description="&lt;b&gt;input.path1.gene76&lt;/b&gt;&lt;br&gt;input.path1.gene76&lt;br&gt;Location: 260843 - 261042" locus_tag="input.path1.gene76" class="clusterblast-orf" id="dummy-1_q1_0_all"  />
<polygon points="368,35 373,30 374,30 374,40 373,40 368,35 " style="fill:#15d863; stroke-width:1; stroke:black; " description="&lt;b&gt;input.path1.gene77&lt;/b&gt;&lt;br&gt;input.path1.gene77&lt;br&gt;Location: 261956 - 262478" locus_tag="input.path1.gene77" class="clusterblast-orf" id="dummy-1_q2_0_all"  />
<polygon points="393,40 402,40 407,35 402,30 393,30 393,40 " style="fill:#1563d8; stroke-width:1; stroke:black; " description="&lt;b&gt;input.path1.gene78&lt;/b&gt;&lt;br&gt;input.path1.gene78&lt;br&gt;Location: 264368 - 265760" locus_tag="input.path1.gene78" class="clusterblast-orf" id="dummy-1_q3_0_all"  />
<polygon points="461,35 466,30 472,30 472,40 466,40 461,35 " style="fill:#b115d8; stroke-width:1; stroke:black; " description="&lt;b&gt;input.path1.gene79&lt;/b&gt;&lt;br&gt;input.path1.gene79&lt;br&gt;Location: 271233 - 272250" locus_tag="input.path1.gene79" class="clusterblast-orf" id="dummy-1_q4_0_all"  />
<polygon points="476,40 478,40 483,35 478,30 476,30 476,40 " style="fill:#b1d815; stroke-width:1; stroke:black; " description="&lt;b&gt;input.path1.gene80&lt;/b&gt;&lt;br&gt;input.path1.gene80&lt;br&gt;Location: 272664 - 273391" locus_tag="input.path1.gene80" class="clusterblast-orf" id="dummy-1_q5_0_all"  />
</g>
<g label="NW_026054554" description="NW_026054554 (18785-113744): Daldinia decipiens strain CBS 113046 unplaced ge... (11% of genes show similarity), NRPS,indole" class="clusterblast-cluster"  >
<text x="5" y="70" class="clusterblast-acc"  >
<a xlink:href="https://antismash-db.secondarymetabolites.org/area?record=NW_026054554&amp;start=18785&amp;end=113744" target="_blank">NW_026054554 (18785-113744)</a>: Daldinia decipiens strain CBS 113046 unplaced ge... (11% of genes show similarity), NRPS,indole</text>
<line x1="10" y1="85" x2="778.0" y2="85" style="stroke-width:1; stroke:grey; "  />
</g>
<g id="a1_000"  >
<polygon points="0,90 17,90 22,85 17,80 0,80 0,90 " style="fill:white; stroke-width:1; stroke:black; " description="&lt;b&gt;F4813DRAFT_30062&lt;/b&gt;&lt;br&gt;Retinoic acid induced 16-like protein-domain-containing protein&lt;br&gt;Location: 33731 - 36019" locus_tag="F4813DRAFT_30062" class="clusterblast-orf" id="dummy-1_h1_5_0"  />
</g>
<g id="a1_001"  >
<polygon points="33,85 38,80 53,80 53,90 38,90 33,85 " style="fill:white; stroke-width:1; stroke:black; " description="&lt;b&gt;F4813DRAFT_395230&lt;/b&gt;&lt;br&gt;ankyrin&lt;br&gt;Location: 37041 - 39101" locus_tag="F4813DRAFT_395230" class="clusterblast-orf" id="dummy-1_h1_5_1"  />
</g>
<g id="a1_002"  >
<polygon points="61,85 66,80 71,80 71,90 66,90 61,85 " style="fill:white; stroke-width:1; stroke:black; " description="&lt;b&gt;F4813DRAFT_354781&lt;/b&gt;&lt;br&gt;alpha/beta-hydrolase&lt;br&gt;Location: 39916 - 40887" locus_tag="F4813DRAFT_354781" class="clusterblast-orf" id="dummy-1_h1_5_2"  />
</g>
<g id="a1_003"  >
<polygon points="84,90 86,90 91,85 86,80 84,80 84,90 " style="fill:white; stroke-width:1; stroke:black; " description="&lt;b&gt;F4813DRAFT_30084&lt;/b&gt;&lt;br&gt;uncharacterized protein&lt;br&gt;Location: 42209 - 42823" locus_tag="F4813DRAFT_30084" class="clusterblast-orf" id="dummy-1_h1_5_3"  />
</g>
<g id="a1_004"  >
<polygon points="94,90 110,90 115,85 110,80 94,80 94,90 " style="fill:white; stroke-width:1; stroke:black; " description="&lt;b&gt;F4813DRAFT_388083&lt;/b&gt;&lt;br&gt;putative allantoate permease&lt;br&gt;Location: 43201 - 45285" locus_tag="F4813DRAFT_388083" class="clusterblast-orf" id="dummy-1_h1_5_4"  />
</g>
<g id="a1_005"  >
<polygon points="122,85 127,80 136,80 136,90 127,90 122,85 " style="fill:white; stroke-width:1; stroke:black; " description="&lt;b&gt;F4813DRAFT_30112&lt;/b&gt;&lt;br&gt;cytochrome P450&lt;br&gt;Location: 45928 - 47358" locus_tag="F4813DRAFT_30112" class="clusterblast-orf" id="dummy-1_h1_5_5"  />
</g>
<g id="a1_006"  >
<polygon points="150,85 155,80 191,80 191,90 155,90 150,85 " style="fill:white; stroke-width:1; stroke:black; " description="&lt;b&gt;F4813DRAFT_354791&lt;/b&gt;&lt;br&gt;acetyl-CoA synthetase-like protein&lt;br&gt;Location: 48786 - 52876" locus_tag="F4813DRAFT_354791" class="clusterblast-orf" id="dummy-1_h1_5_6"  />
</g>
<g id="a1_007"  >
<polygon points="198,90 204,90 209,85 204,80 198,80 198,90 " style="fill:white; stroke-width:1; stroke:black; " description="&lt;b&gt;F4813DRAFT_30240&lt;/b&gt;&lt;br&gt;putative oxidoreductase&lt;br&gt;Location: 53494 - 54621" locus_tag="F4813DRAFT_30240" class="clusterblast-orf" id="dummy-1_h1_5_7"  />
</g>
<g id="a1_008"  >
<polygon points="213,90 217,90 222,85 217,80 213,80 213,90 " style="fill:white; stroke-width:1; stroke:black; " description="&lt;b&gt;F4813DRAFT_388086&lt;/b&gt;&lt;br&gt;short chain dehydrogenase/oxidoreductase CpoX2&lt;br&gt;Location: 55079 - 55946" locus_tag="F4813DRAFT_388086" class="clusterblast-orf" id="dummy-1_h1_5_8"  />
</g>
<g id="a1_009"  >
<polygon points="228,85 233,80 244,80 244,90 233,90 228,85 " style="fill:#d81515; stroke-width:1; stroke:black; " description="&lt;b&gt;F4813DRAFT_354807&lt;/b&gt;&lt;br&gt;putative catalase Cat&lt;br&gt;Location: 56525 - 58130&lt;br&gt;&lt;br&gt;&lt;b&gt;BlastP hit with input.path1.gene75&lt;/b&gt;&lt;br&gt;Percentage identity: 63&lt;br&gt;Percentage coverage: 97&lt;br&gt;BLAST bit score: 617&lt;br&gt;E-value: 1.33e-218" locus_tag="F4813DRAFT_354807" class="clusterblast-orf" id="dummy-1_h1_5_9"  />
</g>
<g id="a1_0010"  >
<polygon points="253,85 258,80 264,80 264,90 258,90 253,85 " style="fill:white; stroke-width:1; stroke:black; " description="&lt;b&gt;F4813DRAFT_354809&lt;/b&gt;&lt;br&gt;uncharacterized protein&lt;br&gt;Location: 59044 - 60173" locus_tag="F4813DRAFT_354809" class="clusterblast-orf" id="dummy-1_h1_5_10"  />
</g>
<g id="a1_0011"  >
<polygon points="268,85 273,80 287,80 287,90 273,90 268,85 " style="fill:white; stroke-width:1; stroke:black; " description="&lt;b&gt;F4813DRAFT_354810&lt;/b&gt;&lt;br&gt;putative oxidoreductase&lt;br&gt;Location: 60473 - 62372" locus_tag="F4813DRAFT_354810" class="clusterblast-orf" id="dummy-1_h1_5_11"  />
</g>
<g id="a1_0012"  >
<polygon points="296,90 305,90 310,85 305,80 296,80 296,90 " style="fill:#1563d8; stroke-width:1; stroke:black; " description="&lt;b&gt;F4813DRAFT_354813&lt;/b&gt;&lt;br&gt;4-dimethylallyl tryptophan synthase&lt;br&gt;Location: 63293 - 64741&lt;br&gt;&lt;br&gt;&lt;b&gt;BlastP hit with input.path1.gene78&lt;/b&gt;&lt;br&gt;Percentage identity: 60&lt;br&gt;Percentage coverage: 97&lt;br&gt;BLAST bit score: 432&lt;br&gt;E-value: 9.07e-149" locus_tag="F4813DRAFT_354813" class="clusterblast-orf" id="dummy-1_h1_5_12"  />
</g>
<g id="a1_0013"  >
<polygon points="312,90 315,85 312,80 312,90 " style="fill:white; stroke-width:1; stroke:black; " description="&lt;b&gt;F4813DRAFT_354815&lt;/b&gt;&lt;br&gt;uncharacterized protein&lt;br&gt;Location: 64935 - 65177" locus_tag="F4813DRAFT_354815" class="clusterblast-orf" id="dummy-1_h1_5_13"  />
</g>
<g id="a1_0014"  >
<polygon points="326,90 331,90 336,85 331,80 326,80 326,90 " style="fill:#15d863; stroke-width:1; stroke:black; " description="&lt;b&gt;F4813DRAFT_354819&lt;/b&gt;&lt;br&gt;putative ergot alkaloid A&lt;br&gt;Location: 66310 - 67292&lt;br&gt;&lt;br&gt;&lt;b&gt;BlastP hit with input.path1.gene77&lt;/b&gt;&lt;br&gt;Percentage identity: 37&lt;br&gt;Percentage coverage: 106&lt;br&gt;BLAST bit score: 95&lt;br&gt;E-value: 3.78e-22" locus_tag="F4813DRAFT_354819" class="clusterblast-orf" id="dummy-1_h1_5_14"  />
</g>
<g id="a1_0015"  >
<polygon points="340,85 345,80 361,80 361,90 345,90 340,85 " style="fill:white; stroke-width:1; stroke:black; " description="&lt;b&gt;F4813DRAFT_354822&lt;/b&gt;&lt;br&gt;putative elymoclavine monooxygenase&lt;br&gt;Location: 67723 - 69845" locus_tag="F4813DRAFT_354822" class="clusterblast-orf" id="dummy-1_h1_5_15"  />
</g>
<g id="a1_0016"  >
<polygon points="371,90 376,90 381,85 376,80 371,80 371,90 " style="fill:white; stroke-width:1; stroke:black; " description="&lt;b&gt;F4813DRAFT_354823&lt;/b&gt;&lt;br&gt;putative oxygenase&lt;br&gt;Location: 70838 - 71797" locus_tag="F4813DRAFT_354823" class="clusterblast-orf" id="dummy-1_h1_5_16"  />
</g>
<g id="a1_0017"  >
<polygon points="390,90 496,90 501,85 496,80 390,80 390,90 " style="fill:white; stroke-width:1; stroke:black; " description="&lt;b&gt;F4813DRAFT_388094&lt;/b&gt;&lt;br&gt;lysergyl peptide synthetase subunit 1&lt;br&gt;Location: 72719 - 83744" locus_tag="F4813DRAFT_388094" class="clusterblast-orf" id="dummy-1_h1_5_17"  />
</g>
<g id="a1_0018"  >
<polygon points="530,90 545,90 550,85 545,80 530,80 530,90 " style="fill:white; stroke-width:1; stroke:black; " description="&lt;b&gt;F4813DRAFT_395260&lt;/b&gt;&lt;br&gt;HET-domain-containing protein&lt;br&gt;Location: 86650 - 88710" locus_tag="F4813DRAFT_395260" class="clusterblast-orf" id="dummy-1_h1_5_18"  />
</g>
<g id="a1_0019"  >
<polygon points="560,90 583,90 588,85 583,80 560,80 560,90 " style="fill:white; stroke-width:1; stroke:black; " description="&lt;b&gt;F4813DRAFT_30910&lt;/b&gt;&lt;br&gt;uncharacterized protein&lt;br&gt;Location: 89655 - 92450" locus_tag="F4813DRAFT_30910" class="clusterblast-orf" id="dummy-1_h1_5_19"  />
</g>
<g id="a1_0020"  >
<polygon points="590,85 595,80 597,80 597,90 595,90 590,85 " style="fill:white; stroke-width:1; stroke:black; " description="&lt;b&gt;F4813DRAFT_354853&lt;/b&gt;&lt;br&gt;dienelactone hydrolase family protein&lt;br&gt;Location: 92646 - 93395" locus_tag="F4813DRAFT_354853" class="clusterblast-orf" id="dummy-1_h1_5_20"  />
</g>
<g id="a1_0021"  >
<polygon points="613,85 618,80 637,80 637,90 618,90 613,85 " style="fill:white; stroke-width:1; stroke:black; " description="&lt;b&gt;F4813DRAFT_379995&lt;/b&gt;&lt;br&gt;uncharacterized protein&lt;br&gt;Location: 94963 - 97359" locus_tag="F4813DRAFT_379995" class="clusterblast-orf" id="dummy-1_h1_5_21"  />
</g>
<g id="a1_0022"  >
<polygon points="652,90 661,90 666,85 661,80 652,80 652,90 " style="fill:white; stroke-width:1; stroke:black; " description="&lt;b&gt;F4813DRAFT_30981&lt;/b&gt;&lt;br&gt;uncharacterized protein&lt;br&gt;Location: 98811 - 100217" locus_tag="F4813DRAFT_30981" class="clusterblast-orf" id="dummy-1_h1_5_22"  />
</g>
<g id="a1_0023"  >
<polygon points="688,90 694,90 699,85 694,80 688,80 688,90 " style="fill:white; stroke-width:1; stroke:black; " description="&lt;b&gt;F4813DRAFT_388100&lt;/b&gt;&lt;br&gt;trypsin-like cysteine/serine peptidase domain-containing protein&lt;br&gt;Location: 102422 - 103498" locus_tag="F4813DRAFT_388100" class="clusterblast-orf" id="dummy-1_h1_5_23"  />
</g>
<g id="a1_0024"  >
<polygon points="703,85 708,80 717,80 717,90 708,90 703,85 " style="fill:white; stroke-width:1; stroke:black; " description="&lt;b&gt;F4813DRAFT_354867&lt;/b&gt;&lt;br&gt;S-adenosyl-L-methionine-dependent methyltransferase&lt;br&gt;Location: 103969 - 105311" locus_tag="F4813DRAFT_354867" class="clusterblast-orf" id="dummy-1_h1_5_24"  />
</g>
<g id="a1_0025"  >
<polygon points="732,85 737,80 745,80 745,90 737,90 732,85 " style="fill:white; stroke-width:1; stroke:black; " description="&lt;b&gt;F4813DRAFT_354883&lt;/b&gt;&lt;br&gt;DUF1766-domain-containing protein&lt;br&gt;Location: 106851 - 108089" locus_tag="F4813DRAFT_354883" class="clusterblast-orf" id="dummy-1_h1_5_25"  />
</g>
<g id="a1_0026"  >
<polygon points="758,85 763,80 780,80 780,90 763,90 758,85 " style="fill:white; stroke-width:1; stroke:black; " description="&lt;b&gt;F4813DRAFT_31190&lt;/b&gt;&lt;br&gt;putative MFS multidrug transporter&lt;br&gt;Location: 109465 - 111562" locus_tag="F4813DRAFT_31190" class="clusterblast-orf" id="dummy-1_h1_5_26"  />
</g>
</svg>
