<svg xmlns="http://www.w3.org/2000/svg" xmlns:xlink="http://www.w3.org/1999/xlink" version="1.1" x="0" y="0" height="230" width="800" viewBox="0 0 800 230" preserveAspectRatio="none"  >
<g label="Query sequence" class="clusterblast-cluster"  >
<text x="5" y="20" class="clusterblast-acc"  >
Query sequence</text>
<line x1="10" y1="35" x2="778.0" y2="35" style="stroke-width:1; stroke:grey; "  />
<polygon points="148,40 159,40 164,35 159,30 148,30 148,40 " style="fill:#d81515; stroke-width:1; stroke:black; " description="&lt;b&gt;input.path1.gene16&lt;/b&gt;&lt;br&gt;input.path1.gene16&lt;br&gt;Location: 51005 - 52382" locus_tag="input.path1.gene16" class="clusterblast-orf" id="dummy-2_q0_0_all"  />
<polygon points="199,35 204,30 207,30 207,40 204,40 199,35 " style="fill:#77d815; stroke-width:1; stroke:black; " description="&lt;b&gt;input.path1.gene17&lt;/b&gt;&lt;br&gt;input.path1.gene17&lt;br&gt;Location: 55359 - 56047" locus_tag="input.path1.gene17" class="clusterblast-orf" id="dummy-2_q1_0_all"  />
<polygon points="236,40 243,40 248,35 243,30 236,30 236,40 " style="fill:#15d8d8; stroke-width:1; stroke:black; " description="&lt;b&gt;input.path1.gene18&lt;/b&gt;&lt;br&gt;input.path1.gene18&lt;br&gt;Location: 58476 - 59514" locus_tag="input.path1.gene18" class="clusterblast-orf" id="dummy-2_q2_0_all"  />
<polygon points="277,35 282,30 302,30 302,40 282,40 277,35 " style="fill:#7715d8; stroke-width:1; stroke:black; " description="&lt;b&gt;input.path1.gene19&lt;/b&gt;&lt;br&gt;input.path1.gene19&lt;br&gt;Location: 61961 - 64136" locus_tag="input.path1.gene19" class="clusterblast-orf" id="dummy-2_q3_0_all"  />
<polygon points="314,35 319,30 321,30 321,40 319,40 314,35 " style="fill:white; stroke-width:1; stroke:black; " description="&lt;b&gt;input.path1.gene20&lt;/b&gt;&lt;br&gt;input.path1.gene20&lt;br&gt;Location: 65124 - 65684" locus_tag="input.path1.gene20" class="clusterblast-orf" id="dummy-2_q4_0_all"  />
<polygon points="327,35 332,30 420,30 420,40 332,40 327,35 " style="fill:#d8a715; stroke-width:1; stroke:black; " description="&lt;b&gt;input.path1.gene21&lt;/b&gt;&lt;br&gt;input.path1.gene21&lt;br&gt;Location: 66276 - 74099" locus_tag="input.path1.gene21" class="clusterblast-orf" id="dummy-2_q5_0_all"  />
<polygon points="434,40 450,40 455,35 450,30 434,30 434,40 " style="fill:#15d846; stroke-width:1; stroke:black; " description="&lt;b&gt;input.path1.gene22&lt;/b&gt;&lt;br&gt;input.path1.gene22&lt;br&gt;Location: 75345 - 77137" locus_tag="input.path1.gene22" class="clusterblast-orf" id="dummy-2_q6_0_all"  />
<polygon points="576,40 580,35 576,30 576,40 " style="fill:white; stroke-width:1; stroke:black; " description="&lt;b&gt;input.path1.gene23&lt;/b&gt;&lt;br&gt;input.path1.gene23&lt;br&gt;Location: 87355 - 87704" locus_tag="input.path1.gene23" class="clusterblast-orf" id="dummy-2_q7_0_all"  />
<polygon points="592,40 594,40 599,35 594,30 592,30 592,40 " style="fill:#1546d8; stroke-width:1; stroke:black; " description="&lt;b&gt;input.path1.gene24&lt;/b&gt;&lt;br&gt;input.path1.gene24&lt;br&gt;Location: 88772 - 89383" locus_tag="input.path1.gene24" class="clusterblast-orf" id="dummy-2_q8_0_all"  />
<polygon points="604,35 609,30 631,30 631,40 609,40 604,35 " style="fill:#d815a7; stroke-width:1; stroke:black; " description="&lt;b&gt;input.path1.gene25&lt;/b&gt;&lt;br&gt;input.path1.gene25&lt;br&gt;Location: 89792 - 92105" locus_tag="input.path1.gene25" class="clusterblast-orf" id="dummy-2_q9_0_all"  />
</g>
<g label="NW_014574697" description="NW_014574697 (36276-104099): Metarhizium brunneum ARSEF 3297 chromosome Unkno... (33% of genes show similarity), T1PKS" class="clusterblast-cluster"  >
<text x="5" y="70" class="clusterblast-acc"  >
<a xlink:href="https://antismash-db.secondarymetabolites.org/area?record=NW_014574697&amp;start=36276&amp;end=104099" target="_blank">NW_014574697 (36276-104099)</a>: Metarhizium brunneum ARSEF 3297 chromosome Unkno... (33% of genes show similarity), T1PKS</text>
<line x1="10" y1="85" x2="778.0" y2="85" style="stroke-width:1; stroke:grey; "  />
</g>
<g id="a2_000"  >
<polygon points="0,85 5,80 10,80 10,90 5,90 0,85 " style="fill:white; stroke-width:1; stroke:black; " description="&lt;b&gt;MBR_09084&lt;/b&gt;&lt;br&gt;f420-dependent NADP reductase&lt;br&gt;Location: 36969 - 37883" locus_tag="MBR_09084" class="clusterblast-orf" id="dummy-2_h2_1_0"  />
</g>
<g id="a2_001"  >
<polygon points="23,90 29,90 34,85 29,80 23,80 23,90 " style="fill:white; stroke-width:1; stroke:black; " description="&lt;b&gt;MBR_09085&lt;/b&gt;&lt;br&gt;f420-dependent NADP reductase&lt;br&gt;Location: 38950 - 39873" locus_tag="MBR_09085" class="clusterblast-orf" id="dummy-2_h2_1_1"  />
</g>
<g id="a2_002"  >
<polygon points="39,90 48,90 53,85 48,80 39,80 39,90 " style="fill:white; stroke-width:1; stroke:black; " description="&lt;b&gt;MBR_09086&lt;/b&gt;&lt;br&gt;polyketide synthase&lt;br&gt;Location: 40363 - 41474" locus_tag="MBR_09086" class="clusterblast-orf" id="dummy-2_h2_1_2"  />
</g>
<g id="a2_003"  >
<polygon points="81,85 86,80 90,80 90,90 86,90 81,85 " style="fill:white; stroke-width:1; stroke:black; " description="&lt;b&gt;MBR_09087&lt;/b&gt;&lt;br&gt;F-box domain protein&lt;br&gt;Location: 43857 - 44630" locus_tag="MBR_09087" class="clusterblast-orf" id="dummy-2_h2_1_3"  />
</g>
<g id="a2_004"  >
<polygon points="101,85 106,80 121,80 121,90 106,90 101,85 " style="fill:white; stroke-width:1; stroke:black; " description="&lt;b&gt;MBR_09088&lt;/b&gt;&lt;br&gt;Cytochrome P450&lt;br&gt;Location: 45588 - 47316" locus_tag="MBR_09088" class="clusterblast-orf" id="dummy-2_h2_1_4"  />
</g>
<g id="a2_005"  >
<polygon points="165,90 168,90 173,85 168,80 165,80 165,90 " style="fill:#d81515; stroke-width:1; stroke:black; " description="&lt;b&gt;MBR_09089&lt;/b&gt;&lt;br&gt;hypothetical protein&lt;br&gt;Location: 51006 - 51693&lt;br&gt;&lt;br&gt;&lt;b&gt;BlastP hit with input.path1.gene16&lt;/b&gt;&lt;br&gt;Percentage identity: 100&lt;br&gt;Percentage coverage: 84&lt;br&gt;BLAST bit score: 412&lt;br&gt;E-value: 1.32e-146" locus_tag="MBR_09089" class="clusterblast-orf" id="dummy-2_h2_1_5"  />
</g>
<g id="a2_006"  >
<polygon points="206,85 211,80 212,80 212,90 211,90 206,85 " style="fill:white; stroke-width:1; stroke:black; " description="&lt;b&gt;MBR_09090&lt;/b&gt;&lt;br&gt;hypothetical protein&lt;br&gt;Location: 54494 - 55042" locus_tag="MBR_09090" class="clusterblast-orf" id="dummy-2_h2_1_6"  />
</g>
<g id="a2_007"  >
<polygon points="216,85 221,80 221,80 221,90 221,90 216,85 " style="fill:#77d815; stroke-width:1; stroke:black; " description="&lt;b&gt;MBR_09091&lt;/b&gt;&lt;br&gt;hypothetical protein&lt;br&gt;Location: 55360 - 55797&lt;br&gt;&lt;br&gt;&lt;b&gt;BlastP hit with input.path1.gene17&lt;/b&gt;&lt;br&gt;Percentage identity: 100&lt;br&gt;Percentage coverage: 84&lt;br&gt;BLAST bit score: 293&lt;br&gt;E-value: 1.96e-101" locus_tag="MBR_09091" class="clusterblast-orf" id="dummy-2_h2_1_7"  />
</g>
<g id="a2_008"  >
<polygon points="247,90 259,90 264,85 259,80 247,80 247,90 " style="fill:#15d8d8; stroke-width:1; stroke:black; " description="&lt;b&gt;MBR_09092&lt;/b&gt;&lt;br&gt;hypothetical protein&lt;br&gt;Location: 57982 - 59454&lt;br&gt;&lt;br&gt;&lt;b&gt;BlastP hit with input.path1.gene18&lt;/b&gt;&lt;br&gt;Percentage identity: 55&lt;br&gt;Percentage coverage: 168&lt;br&gt;BLAST bit score: 175&lt;br&gt;E-value: 9.87e-51" locus_tag="MBR_09092" class="clusterblast-orf" id="dummy-2_h2_1_8"  />
</g>
<g id="a2_009"  >
<polygon points="289,90 296,90 301,85 296,80 289,80 289,90 " style="fill:white; stroke-width:1; stroke:black; " description="&lt;b&gt;MBR_09093&lt;/b&gt;&lt;br&gt;60S ribosomal protein L36&lt;br&gt;Location: 61609 - 62568" locus_tag="MBR_09093" class="clusterblast-orf" id="dummy-2_h2_1_9"  />
</g>
<g id="a2_0010"  >
<polygon points="344,85 349,80 436,80 436,90 349,90 344,85 " style="fill:#d8a715; stroke-width:1; stroke:black; " description="&lt;b&gt;MBR_09094&lt;/b&gt;&lt;br&gt;KR domain-containing protein&lt;br&gt;Location: 66277 - 74099&lt;br&gt;&lt;br&gt;&lt;b&gt;BlastP hit with input.path1.gene21&lt;/b&gt;&lt;br&gt;Percentage identity: 97&lt;br&gt;Percentage coverage: 103&lt;br&gt;BLAST bit score: 4709&lt;br&gt;E-value: 0.0" locus_tag="MBR_09094" class="clusterblast-orf" id="dummy-2_h2_1_10"  />
</g>
<g id="a2_0011"  >
<polygon points="451,90 467,90 472,85 467,80 451,80 451,90 " style="fill:#15d846; stroke-width:1; stroke:black; " description="&lt;b&gt;MBR_09095&lt;/b&gt;&lt;br&gt;monooxygenase&lt;br&gt;Location: 75346 - 77150&lt;br&gt;&lt;br&gt;&lt;b&gt;BlastP hit with input.path1.gene22&lt;/b&gt;&lt;br&gt;Percentage identity: 73&lt;br&gt;Percentage coverage: 129&lt;br&gt;BLAST bit score: 744&lt;br&gt;E-value: 3.47e-270" locus_tag="MBR_09095" class="clusterblast-orf" id="dummy-2_h2_1_11"  />
</g>
<g id="a2_0012"  >
<polygon points="482,85 487,80 488,80 488,90 487,90 482,85 " style="fill:white; stroke-width:1; stroke:black; " description="&lt;b&gt;MBR_09096&lt;/b&gt;&lt;br&gt;glyoxalase/bleomycin resistance protein/dioxygenase&lt;br&gt;Location: 78009 - 78515" locus_tag="MBR_09096" class="clusterblast-orf" id="dummy-2_h2_1_12"  />
</g>
<g id="a2_0013"  >
<polygon points="508,85 513,80 522,80 522,90 513,90 508,85 " style="fill:white; stroke-width:1; stroke:black; " description="&lt;b&gt;MBR_09097&lt;/b&gt;&lt;br&gt;cytochrome P450 oxidoreductase OrdA-like protein&lt;br&gt;Location: 80223 - 81397" locus_tag="MBR_09097" class="clusterblast-orf" id="dummy-2_h2_1_13"  />
</g>
<g id="a2_0014"  >
<polygon points="558,85 563,80 569,80 569,90 563,90 558,85 " style="fill:white; stroke-width:1; stroke:black; " description="&lt;b&gt;MBR_09098&lt;/b&gt;&lt;br&gt;hypothetical protein&lt;br&gt;Location: 84414 - 85404" locus_tag="MBR_09098" class="clusterblast-orf" id="dummy-2_h2_1_14"  />
</g>
<g id="a2_0015"  >
<polygon points="609,90 611,90 616,85 611,80 609,80 609,90 " style="fill:#1546d8; stroke-width:1; stroke:black; " description="&lt;b&gt;MBR_09099&lt;/b&gt;&lt;br&gt;hypothetical protein&lt;br&gt;Location: 88773 - 89383&lt;br&gt;&lt;br&gt;&lt;b&gt;BlastP hit with input.path1.gene24&lt;/b&gt;&lt;br&gt;Percentage identity: 100&lt;br&gt;Percentage coverage: 100&lt;br&gt;BLAST bit score: 380&lt;br&gt;E-value: 2.32e-135" locus_tag="MBR_09099" class="clusterblast-orf" id="dummy-2_h2_1_15"  />
</g>
<g id="a2_0016"  >
<polygon points="628,85 633,80 642,80 642,90 633,90 628,85 " style="fill:#d815a7; stroke-width:1; stroke:black; " description="&lt;b&gt;MBR_09100&lt;/b&gt;&lt;br&gt;hypothetical protein&lt;br&gt;Location: 90347 - 91594&lt;br&gt;&lt;br&gt;&lt;b&gt;BlastP hit with input.path1.gene25&lt;/b&gt;&lt;br&gt;Percentage identity: 95&lt;br&gt;Percentage coverage: 81&lt;br&gt;BLAST bit score: 652&lt;br&gt;E-value: 1.3e-234" locus_tag="MBR_09100" class="clusterblast-orf" id="dummy-2_h2_1_16"  />
</g>
<g id="a2_0017"  >
<polygon points="658,85 663,80 664,80 664,90 663,90 658,85 " style="fill:white; stroke-width:1; stroke:black; " description="&lt;b&gt;MBR_09101&lt;/b&gt;&lt;br&gt;hypothetical protein&lt;br&gt;Location: 92896 - 93426" locus_tag="MBR_09101" class="clusterblast-orf" id="dummy-2_h2_1_17"  />
</g>
<g id="a2_0018"  >
<polygon points="709,90 717,90 722,85 717,80 709,80 709,90 " style="fill:white; stroke-width:1; stroke:black; " description="&lt;b&gt;MBR_09102&lt;/b&gt;&lt;br&gt;hypothetical protein&lt;br&gt;Location: 97237 - 98349" locus_tag="MBR_09102" class="clusterblast-orf" id="dummy-2_h2_1_18"  />
</g>
<g id="a2_0019"  >
<polygon points="750,90 751,90 756,85 751,80 750,80 750,90 " style="fill:white; stroke-width:1; stroke:black; " description="&lt;b&gt;MBR_09103&lt;/b&gt;&lt;br&gt;hypothetical protein&lt;br&gt;Location: 100736 - 101284" locus_tag="MBR_09103" class="clusterblast-orf" id="dummy-2_h2_1_19"  />
</g>
<g id="a2_0020"  >
<polygon points="763,85 768,80 780,80 780,90 768,90 763,85 " style="fill:white; stroke-width:1; stroke:black; " description="&lt;b&gt;MBR_09104&lt;/b&gt;&lt;br&gt;saccharopine dehydrogenase&lt;br&gt;Location: 101836 - 103255" locus_tag="MBR_09104" class="clusterblast-orf" id="dummy-2_h2_1_20"  />
</g>
</svg>
