<svg xmlns="http://www.w3.org/2000/svg" xmlns:xlink="http://www.w3.org/1999/xlink" version="1.1" x="0" y="0" height="230" width="800" viewBox="0 0 800 230" preserveAspectRatio="none"  >
<g label="Query sequence" class="clusterblast-cluster"  >
<text x="5" y="20" class="clusterblast-acc"  >
Query sequence</text>
<line x1="10" y1="35" x2="778.0" y2="35" style="stroke-width:1; stroke:grey; "  />
<polygon points="108,35 113,30 141,30 141,40 113,40 108,35 " style="fill:#d81515; stroke-width:1; stroke:black; " description="&lt;b&gt;input.path1.gene1516&lt;/b&gt;&lt;br&gt;input.path1.gene1516&lt;br&gt;Location: 5663086 - 5665438" locus_tag="input.path1.gene1516" class="clusterblast-orf" id="dummy-4_q0_0_all"  />
<polygon points="174,40 206,40 211,35 206,30 174,30 174,40 " style="fill:#15d863; stroke-width:1; stroke:black; " description="&lt;b&gt;input.path1.gene1517&lt;/b&gt;&lt;br&gt;input.path1.gene1517&lt;br&gt;Location: 5667774 - 5670408" locus_tag="input.path1.gene1517" class="clusterblast-orf" id="dummy-4_q1_0_all"  />
<polygon points="239,40 296,40 301,35 296,30 239,30 239,40 " style="fill:#1563d8; stroke-width:1; stroke:black; " description="&lt;b&gt;input.path1.gene1518&lt;/b&gt;&lt;br&gt;input.path1.gene1518&lt;br&gt;Location: 5672450 - 5676890" locus_tag="input.path1.gene1518" class="clusterblast-orf" id="dummy-4_q2_0_all"  />
<polygon points="339,40 460,40 465,35 460,30 339,30 339,40 " style="fill:#b115d8; stroke-width:1; stroke:black; " description="&lt;b&gt;input.path1.gene1519&lt;/b&gt;&lt;br&gt;input.path1.gene1519&lt;br&gt;Location: 5679629 - 5688644" locus_tag="input.path1.gene1519" class="clusterblast-orf" id="dummy-4_q3_0_all"  />
<polygon points="477,35 482,30 519,30 519,40 482,40 477,35 " style="fill:#b1d815; stroke-width:1; stroke:black; " description="&lt;b&gt;input.path1.gene1520&lt;/b&gt;&lt;br&gt;input.path1.gene1520&lt;br&gt;Location: 5689464 - 5692487" locus_tag="input.path1.gene1520" class="clusterblast-orf" id="dummy-4_q4_0_all"  />
<polygon points="561,40 564,40 569,35 564,30 561,30 561,40 " style="fill:white; stroke-width:1; stroke:black; " description="&lt;b&gt;input.path1.gene1521&lt;/b&gt;&lt;br&gt;input.path1.gene1521&lt;br&gt;Location: 5695516 - 5696057" locus_tag="input.path1.gene1521" class="clusterblast-orf" id="dummy-4_q5_0_all"  />
<polygon points="614,35 619,30 626,30 626,40 619,40 614,35 " style="fill:white; stroke-width:1; stroke:black; " description="&lt;b&gt;input.path1.gene1522&lt;/b&gt;&lt;br&gt;input.path1.gene1522&lt;br&gt;Location: 5699249 - 5700171" locus_tag="input.path1.gene1522" class="clusterblast-orf" id="dummy-4_q6_0_all"  />
<polygon points="667,35 671,30 671,40 667,35 " style="fill:white; stroke-width:1; stroke:black; " description="&lt;b&gt;input.path1.gene1523&lt;/b&gt;&lt;br&gt;input.path1.gene1523&lt;br&gt;Location: 5703059 - 5703353" locus_tag="input.path1.gene1523" class="clusterblast-orf" id="dummy-4_q7_0_all"  />
</g>
<g label="NC_070544" description="NC_070544 (6527575-6595486): Fusarium falciforme chromosome 1, complete sequence (45% of genes show similarity), NRPS" class="clusterblast-cluster"  >
<text x="5" y="70" class="clusterblast-acc"  >
<a xlink:href="https://antismash-db.secondarymetabolites.org/area?record=NC_070544&amp;start=6527575&amp;end=6595486" target="_blank">NC_070544 (6527575-6595486)</a>: Fusarium falciforme chromosome 1, complete sequence (45% of genes show similarity), NRPS</text>
<line x1="10" y1="85" x2="778.0" y2="85" style="stroke-width:1; stroke:grey; "  />
</g>
<g id="a4_000"  >
<polygon points="0,90 16,90 21,85 16,80 0,80 0,90 " style="fill:white; stroke-width:1; stroke:black; " description="&lt;b&gt;NCS54_00188900&lt;/b&gt;&lt;br&gt;Hypothetical protein&lt;br&gt;Location: 6537927 - 6539444" locus_tag="NCS54_00188900" class="clusterblast-orf" id="dummy-4_h4_5_0"  />
</g>
<g id="a4_001"  >
<polygon points="28,85 33,80 68,80 68,90 33,90 28,85 " style="fill:#d81515; stroke-width:1; stroke:black; " description="&lt;b&gt;NCS54_00189000&lt;/b&gt;&lt;br&gt;Hypothetical protein&lt;br&gt;Location: 6539967 - 6542841&lt;br&gt;&lt;br&gt;&lt;b&gt;BlastP hit with input.path1.gene1516&lt;/b&gt;&lt;br&gt;Percentage identity: 75&lt;br&gt;Percentage coverage: 100&lt;br&gt;BLAST bit score: 1038&lt;br&gt;E-value: 0.0" locus_tag="NCS54_00189000" class="clusterblast-orf" id="dummy-4_h4_5_1"  />
</g>
<g id="a4_002"  >
<polygon points="90,90 118,90 123,85 118,80 90,80 90,90 " style="fill:#15d863; stroke-width:1; stroke:black; " description="&lt;b&gt;NCS54_00189100&lt;/b&gt;&lt;br&gt;G-patch domain-containing protein&lt;br&gt;Location: 6544397 - 6546763&lt;br&gt;&lt;br&gt;&lt;b&gt;BlastP hit with input.path1.gene1517&lt;/b&gt;&lt;br&gt;Percentage identity: 63&lt;br&gt;Percentage coverage: 98&lt;br&gt;BLAST bit score: 882&lt;br&gt;E-value: 8.19e-314" locus_tag="NCS54_00189100" class="clusterblast-orf" id="dummy-4_h4_5_2"  />
</g>
<g id="a4_003"  >
<polygon points="137,90 151,90 156,85 151,80 137,80 137,90 " style="fill:white; stroke-width:1; stroke:black; " description="&lt;b&gt;NCS54_00189200&lt;/b&gt;&lt;br&gt;Hypothetical protein&lt;br&gt;Location: 6547789 - 6549103" locus_tag="NCS54_00189200" class="clusterblast-orf" id="dummy-4_h4_5_3"  />
</g>
<g id="a4_004"  >
<polygon points="185,90 239,90 244,85 239,80 185,80 185,90 " style="fill:#1563d8; stroke-width:1; stroke:black; " description="&lt;b&gt;NCS54_00189300&lt;/b&gt;&lt;br&gt;Hypothetical protein&lt;br&gt;Location: 6551198 - 6555459&lt;br&gt;&lt;br&gt;&lt;b&gt;BlastP hit with input.path1.gene1518&lt;/b&gt;&lt;br&gt;Percentage identity: 61&lt;br&gt;Percentage coverage: 112&lt;br&gt;BLAST bit score: 1274&lt;br&gt;E-value: 0.0" locus_tag="NCS54_00189300" class="clusterblast-orf" id="dummy-4_h4_5_4"  />
</g>
<g id="a4_005"  >
<polygon points="274,90 379,90 384,85 379,80 274,80 274,90 " style="fill:#b115d8; stroke-width:1; stroke:black; " description="&lt;b&gt;NCS54_00189400&lt;/b&gt;&lt;br&gt;Hypothetical protein&lt;br&gt;Location: 6557576 - 6565486&lt;br&gt;&lt;br&gt;&lt;b&gt;BlastP hit with input.path1.gene1519&lt;/b&gt;&lt;br&gt;Percentage identity: 41&lt;br&gt;Percentage coverage: 83&lt;br&gt;BLAST bit score: 1806&lt;br&gt;E-value: 0.0" locus_tag="NCS54_00189400" class="clusterblast-orf" id="dummy-4_h4_5_5"  />
</g>
<g id="a4_006"  >
<polygon points="391,85 396,80 430,80 430,90 396,90 391,85 " style="fill:#b1d815; stroke-width:1; stroke:black; " description="&lt;b&gt;NCS54_00189500&lt;/b&gt;&lt;br&gt;Hypothetical protein&lt;br&gt;Location: 6565923 - 6568728&lt;br&gt;&lt;br&gt;&lt;b&gt;BlastP hit with input.path1.gene1520&lt;/b&gt;&lt;br&gt;Percentage identity: 72&lt;br&gt;Percentage coverage: 98&lt;br&gt;BLAST bit score: 1300&lt;br&gt;E-value: 0.0" locus_tag="NCS54_00189500" class="clusterblast-orf" id="dummy-4_h4_5_6"  />
</g>
<g id="a4_007"  >
<polygon points="474,85 479,80 491,80 491,90 479,90 474,85 " style="fill:white; stroke-width:1; stroke:black; " description="&lt;b&gt;NCS54_00189600&lt;/b&gt;&lt;br&gt;Hypothetical protein&lt;br&gt;Location: 6571893 - 6573092" locus_tag="NCS54_00189600" class="clusterblast-orf" id="dummy-4_h4_5_7"  />
</g>
<g id="a4_008"  >
<polygon points="500,90 518,90 523,85 518,80 500,80 500,90 " style="fill:white; stroke-width:1; stroke:black; " description="&lt;b&gt;NCS54_00189700&lt;/b&gt;&lt;br&gt;Hypothetical protein&lt;br&gt;Location: 6573723 - 6575437" locus_tag="NCS54_00189700" class="clusterblast-orf" id="dummy-4_h4_5_8"  />
</g>
<g id="a4_009"  >
<polygon points="534,90 537,90 542,85 537,80 534,80 534,90 " style="fill:white; stroke-width:1; stroke:black; " description="&lt;b&gt;NCS54_00189800&lt;/b&gt;&lt;br&gt;Hypothetical protein&lt;br&gt;Location: 6576208 - 6576756" locus_tag="NCS54_00189800" class="clusterblast-orf" id="dummy-4_h4_5_9"  />
</g>
<g id="a4_0010"  >
<polygon points="751,90 775,90 780,85 775,80 751,80 751,90 " style="fill:white; stroke-width:1; stroke:black; " description="&lt;b&gt;NCS54_00189900&lt;/b&gt;&lt;br&gt;Hypothetical protein&lt;br&gt;Location: 6591704 - 6593763" locus_tag="NCS54_00189900" class="clusterblast-orf" id="dummy-4_h4_5_10"  />
</g>
</svg>
