<svg xmlns="http://www.w3.org/2000/svg" xmlns:xlink="http://www.w3.org/1999/xlink" version="1.1" x="0" y="0" height="230" width="800" viewBox="0 0 800 230" preserveAspectRatio="none"  >
<g label="Query sequence" class="clusterblast-cluster"  >
<text x="5" y="20" class="clusterblast-acc"  >
Query sequence</text>
<line x1="10" y1="35" x2="778.0" y2="35" style="stroke-width:1; stroke:grey; "  />
<polygon points="223,40 249,40 254,35 249,30 223,30 223,40 " style="fill:#d81515; stroke-width:1; stroke:black; " description="&lt;b&gt;input.path1.gene143&lt;/b&gt;&lt;br&gt;input.path1.gene143&lt;br&gt;Location: 542271 - 544047" locus_tag="input.path1.gene143" class="clusterblast-orf" id="dummy-3_q0_0_all"  />
<polygon points="271,40 275,40 280,35 275,30 271,30 271,40 " style="fill:#15d863; stroke-width:1; stroke:black; " description="&lt;b&gt;input.path1.gene144&lt;/b&gt;&lt;br&gt;input.path1.gene144&lt;br&gt;Location: 544996 - 545529" locus_tag="input.path1.gene144" class="clusterblast-orf" id="dummy-3_q1_0_all"  />
<polygon points="307,40 393,40 398,35 393,30 307,30 307,40 " style="fill:#1563d8; stroke-width:1; stroke:black; " description="&lt;b&gt;input.path1.gene145&lt;/b&gt;&lt;br&gt;input.path1.gene145&lt;br&gt;Location: 547087 - 552339" locus_tag="input.path1.gene145" class="clusterblast-orf" id="dummy-3_q2_0_all"  />
<polygon points="411,35 416,30 428,30 428,40 416,40 411,35 " style="fill:#b115d8; stroke-width:1; stroke:black; " description="&lt;b&gt;input.path1.gene146&lt;/b&gt;&lt;br&gt;input.path1.gene146&lt;br&gt;Location: 553078 - 554086" locus_tag="input.path1.gene146" class="clusterblast-orf" id="dummy-3_q3_0_all"  />
<polygon points="466,40 526,40 531,35 526,30 466,30 466,40 " style="fill:#b1d815; stroke-width:1; stroke:black; " description="&lt;b&gt;input.path1.gene147&lt;/b&gt;&lt;br&gt;input.path1.gene147&lt;br&gt;Location: 556226 - 560017" locus_tag="input.path1.gene147" class="clusterblast-orf" id="dummy-3_q4_0_all"  />
<polygon points="550,35 555,30 556,30 556,40 555,40 550,35 " style="fill:white; stroke-width:1; stroke:black; " description="&lt;b&gt;input.path1.gene148&lt;/b&gt;&lt;br&gt;input.path1.gene148&lt;br&gt;Location: 561105 - 561440" locus_tag="input.path1.gene148" class="clusterblast-orf" id="dummy-3_q5_0_all"  />
</g>
<g label="NW_006271975" description="NW_006271975 (1702597-1751671): Cordyceps militaris CM01 unplaced genomic sca... (15% of genes show similarity), NAPAA" class="clusterblast-cluster"  >
<text x="5" y="70" class="clusterblast-acc"  >
<a xlink:href="https://antismash-db.secondarymetabolites.org/area?record=NW_006271975&amp;start=1702597&amp;end=1751671" target="_blank">NW_006271975 (1702597-1751671)</a>: Cordyceps militaris CM01 unplaced genomic sca... (15% of genes show similarity), NAPAA</text>
<line x1="10" y1="85" x2="778.0" y2="85" style="stroke-width:1; stroke:grey; "  />
</g>
<g id="a3_000"  >
<polygon points="0,85 5,80 41,80 41,90 5,90 0,85 " style="fill:white; stroke-width:1; stroke:black; " description="&lt;b&gt;CCM_08765&lt;/b&gt;&lt;br&gt;M protein repeat protein&lt;br&gt;Location: 1706098 - 1708475" locus_tag="CCM_08765" class="clusterblast-orf" id="dummy-3_h3_5_0"  />
</g>
<g id="a3_001"  >
<polygon points="55,90 80,90 85,85 80,80 55,80 55,90 " style="fill:white; stroke-width:1; stroke:black; " description="&lt;b&gt;CCM_08766&lt;/b&gt;&lt;br&gt;Mannose-1-phosphate guanylyltransferase (GDP)&lt;br&gt;Location: 1709270 - 1711028" locus_tag="CCM_08766" class="clusterblast-orf" id="dummy-3_h3_5_1"  />
</g>
<g id="a3_002"  >
<polygon points="135,90 138,90 143,85 138,80 135,80 135,90 " style="fill:white; stroke-width:1; stroke:black; " description="&lt;b&gt;CCM_08767&lt;/b&gt;&lt;br&gt;hypothetical protein&lt;br&gt;Location: 1713876 - 1714353" locus_tag="CCM_08767" class="clusterblast-orf" id="dummy-3_h3_5_2"  />
</g>
<g id="a3_003"  >
<polygon points="153,90 174,90 179,85 174,80 153,80 153,90 " style="fill:white; stroke-width:1; stroke:black; " description="&lt;b&gt;CCM_08768&lt;/b&gt;&lt;br&gt;cyclin&lt;br&gt;Location: 1714946 - 1716460" locus_tag="CCM_08768" class="clusterblast-orf" id="dummy-3_h3_5_3"  />
</g>
<g id="a3_004"  >
<polygon points="182,85 187,80 210,80 210,90 187,90 182,85 " style="fill:white; stroke-width:1; stroke:black; " description="&lt;b&gt;CCM_08769&lt;/b&gt;&lt;br&gt;phosphatidylinositol-3,4,5-trisphosphate 3-phosphatase PTEN&lt;br&gt;Location: 1716586 - 1718236" locus_tag="CCM_08769" class="clusterblast-orf" id="dummy-3_h3_5_4"  />
</g>
<g id="a3_005"  >
<polygon points="224,85 229,80 268,80 268,90 229,90 224,85 " style="fill:#b115d8; stroke-width:1; stroke:black; " description="&lt;b&gt;CCM_08770&lt;/b&gt;&lt;br&gt;hypothetical protein&lt;br&gt;Location: 1719042 - 1721546&lt;br&gt;&lt;br&gt;&lt;b&gt;BlastP hit with input.path1.gene146&lt;/b&gt;&lt;br&gt;Percentage identity: 53&lt;br&gt;Percentage coverage: 75&lt;br&gt;BLAST bit score: 194&lt;br&gt;E-value: 2.62e-57" locus_tag="CCM_08770" class="clusterblast-orf" id="dummy-3_h3_5_5"  />
</g>
<g id="a3_006"  >
<polygon points="330,90 395,90 400,85 395,80 330,80 330,90 " style="fill:#b1d815; stroke-width:1; stroke:black; " description="&lt;b&gt;CCM_08771&lt;/b&gt;&lt;br&gt;non-ribosomal peptide synthetase&lt;br&gt;Location: 1725098 - 1729171&lt;br&gt;&lt;br&gt;&lt;b&gt;BlastP hit with input.path1.gene147&lt;/b&gt;&lt;br&gt;Percentage identity: 52&lt;br&gt;Percentage coverage: 107&lt;br&gt;BLAST bit score: 1245&lt;br&gt;E-value: 0.0" locus_tag="CCM_08771" class="clusterblast-orf" id="dummy-3_h3_5_6"  />
</g>
<g id="a3_007"  >
<polygon points="404,85 409,80 439,80 439,90 409,90 404,85 " style="fill:white; stroke-width:1; stroke:black; " description="&lt;b&gt;CCM_08772&lt;/b&gt;&lt;br&gt;FAD-binding, type 2&lt;br&gt;Location: 1729368 - 1731384" locus_tag="CCM_08772" class="clusterblast-orf" id="dummy-3_h3_5_7"  />
</g>
<g id="a3_008"  >
<polygon points="456,90 484,90 489,85 484,80 456,80 456,90 " style="fill:white; stroke-width:1; stroke:black; " description="&lt;b&gt;CCM_08773&lt;/b&gt;&lt;br&gt;asparaginyl-tRNA synthetase&lt;br&gt;Location: 1732367 - 1734258" locus_tag="CCM_08773" class="clusterblast-orf" id="dummy-3_h3_5_8"  />
</g>
<g id="a3_009"  >
<polygon points="620,85 625,80 649,80 649,90 625,90 620,85 " style="fill:white; stroke-width:1; stroke:black; " description="&lt;b&gt;CCM_08774&lt;/b&gt;&lt;br&gt;Forkhead-associated&lt;br&gt;Location: 1741839 - 1743467" locus_tag="CCM_08774" class="clusterblast-orf" id="dummy-3_h3_5_9"  />
</g>
<g id="a3_0010"  >
<polygon points="685,90 700,90 705,85 700,80 685,80 685,90 " style="fill:white; stroke-width:1; stroke:black; " description="&lt;b&gt;CCM_08775&lt;/b&gt;&lt;br&gt;ribosomal protein L1&lt;br&gt;Location: 1745540 - 1746739" locus_tag="CCM_08775" class="clusterblast-orf" id="dummy-3_h3_5_10"  />
</g>
<g id="a3_0011"  >
<polygon points="713,85 718,80 730,80 730,90 718,90 713,85 " style="fill:white; stroke-width:1; stroke:black; " description="&lt;b&gt;CCM_08776&lt;/b&gt;&lt;br&gt;palmitoyl-protein thioesterase precursor&lt;br&gt;Location: 1747180 - 1748172" locus_tag="CCM_08776" class="clusterblast-orf" id="dummy-3_h3_5_11"  />
</g>
<g id="a3_0012"  >
<polygon points="765,85 770,80 780,80 780,90 770,90 765,85 " style="fill:white; stroke-width:1; stroke:black; " description="&lt;b&gt;CCM_08777&lt;/b&gt;&lt;br&gt;hypothetical protein&lt;br&gt;Location: 1750159 - 1751007" locus_tag="CCM_08777" class="clusterblast-orf" id="dummy-3_h3_5_12"  />
</g>
</svg>
