<svg xmlns="http://www.w3.org/2000/svg" xmlns:xlink="http://www.w3.org/1999/xlink" version="1.1" x="0" y="0" height="230" width="800" viewBox="0 0 800 230" preserveAspectRatio="none"  >
<g label="Query sequence" class="clusterblast-cluster"  >
<text x="5" y="20" class="clusterblast-acc"  >
Query sequence</text>
<line x1="10" y1="35" x2="778.0" y2="35" style="stroke-width:1; stroke:grey; "  />
<polygon points="0,35 5,30 8,30 8,40 5,40 0,35 " style="fill:#d81515; stroke-width:1; stroke:black; " description="&lt;b&gt;input.path1.gene886&lt;/b&gt;&lt;br&gt;input.path1.gene886&lt;br&gt;Location: 3284144 - 3285415" locus_tag="input.path1.gene886" class="clusterblast-orf" id="dummy-2_q0_0_all"  />
<polygon points="9,35 14,30 15,30 15,40 14,40 9,35 " style="fill:#6ad815; stroke-width:1; stroke:black; " description="&lt;b&gt;input.path1.gene887&lt;/b&gt;&lt;br&gt;input.path1.gene887&lt;br&gt;Location: 3285527 - 3286473" locus_tag="input.path1.gene887" class="clusterblast-orf" id="dummy-2_q1_0_all"  />
<polygon points="22,40 24,40 29,35 24,30 22,30 22,40 " style="fill:#15bfd8; stroke-width:1; stroke:black; " description="&lt;b&gt;input.path1.gene888&lt;/b&gt;&lt;br&gt;input.path1.gene888&lt;br&gt;Location: 3287416 - 3288448" locus_tag="input.path1.gene888" class="clusterblast-orf" id="dummy-2_q2_0_all"  />
<polygon points="32,40 34,35 32,30 32,40 " style="fill:white; stroke-width:1; stroke:black; " description="&lt;b&gt;input.path1.gene889&lt;/b&gt;&lt;br&gt;input.path1.gene889&lt;br&gt;Location: 3288891 - 3289148" locus_tag="input.path1.gene889" class="clusterblast-orf" id="dummy-2_q3_0_all"  />
<polygon points="86,35 90,30 90,40 86,35 " style="fill:#9d15d8; stroke-width:1; stroke:black; " description="&lt;b&gt;input.path1.gene890&lt;/b&gt;&lt;br&gt;input.path1.gene890&lt;br&gt;Location: 3296871 - 3297438" locus_tag="input.path1.gene890" class="clusterblast-orf" id="dummy-2_q4_0_all"  />
<polygon points="132,40 188,40 193,35 188,30 132,30 132,40 " style="fill:#d84815; stroke-width:1; stroke:black; " description="&lt;b&gt;input.path1.gene891&lt;/b&gt;&lt;br&gt;input.path1.gene891&lt;br&gt;Location: 3303616 - 3312416" locus_tag="input.path1.gene891" class="clusterblast-orf" id="dummy-2_q5_0_all"  />
<polygon points="197,35 202,30 218,30 218,40 202,40 197,35 " style="fill:#37d815; stroke-width:1; stroke:black; " description="&lt;b&gt;input.path1.gene892&lt;/b&gt;&lt;br&gt;input.path1.gene892&lt;br&gt;Location: 3313024 - 3316083" locus_tag="input.path1.gene892" class="clusterblast-orf" id="dummy-2_q6_0_all"  />
<polygon points="231,40 234,40 239,35 234,30 231,30 231,40 " style="fill:#158cd8; stroke-width:1; stroke:black; " description="&lt;b&gt;input.path1.gene893&lt;/b&gt;&lt;br&gt;input.path1.gene893&lt;br&gt;Location: 3317980 - 3319190" locus_tag="input.path1.gene893" class="clusterblast-orf" id="dummy-2_q7_0_all"  />
<polygon points="254,40 258,40 263,35 258,30 254,30 254,40 " style="fill:#d015d8; stroke-width:1; stroke:black; " description="&lt;b&gt;input.path1.gene894&lt;/b&gt;&lt;br&gt;input.path1.gene894&lt;br&gt;Location: 3321425 - 3322673" locus_tag="input.path1.gene894" class="clusterblast-orf" id="dummy-2_q8_0_all"  />
<polygon points="265,35 270,30 283,30 283,40 270,40 265,35 " style="fill:#d87b15; stroke-width:1; stroke:black; " description="&lt;b&gt;input.path1.gene895&lt;/b&gt;&lt;br&gt;input.path1.gene895&lt;br&gt;Location: 3323079 - 3325738" locus_tag="input.path1.gene895" class="clusterblast-orf" id="dummy-2_q9_0_all"  />
<polygon points="299,35 304,30 313,30 313,40 304,40 299,35 " style="fill:#15d826; stroke-width:1; stroke:black; " description="&lt;b&gt;input.path1.gene896&lt;/b&gt;&lt;br&gt;input.path1.gene896&lt;br&gt;Location: 3327967 - 3330125" locus_tag="input.path1.gene896" class="clusterblast-orf" id="dummy-2_q10_0_all"  />
<polygon points="319,40 325,40 330,35 325,30 319,30 319,40 " style="fill:#1559d8; stroke-width:1; stroke:black; " description="&lt;b&gt;input.path1.gene897&lt;/b&gt;&lt;br&gt;input.path1.gene897&lt;br&gt;Location: 3331002 - 3332609" locus_tag="input.path1.gene897" class="clusterblast-orf" id="dummy-2_q11_0_all"  />
<polygon points="331,35 336,30 338,30 338,40 336,40 331,35 " style="fill:#d815ae; stroke-width:1; stroke:black; " description="&lt;b&gt;input.path1.gene898&lt;/b&gt;&lt;br&gt;input.path1.gene898&lt;br&gt;Location: 3332696 - 3333759" locus_tag="input.path1.gene898" class="clusterblast-orf" id="dummy-2_q12_0_all"  />
<polygon points="346,40 357,40 362,35 357,30 346,30 346,40 " style="fill:#d8ae15; stroke-width:1; stroke:black; " description="&lt;b&gt;input.path1.gene899&lt;/b&gt;&lt;br&gt;input.path1.gene899&lt;br&gt;Location: 3334892 - 3337243" locus_tag="input.path1.gene899" class="clusterblast-orf" id="dummy-2_q13_0_all"  />
<polygon points="365,35 370,30 373,30 373,40 370,40 365,35 " style="fill:#15d859; stroke-width:1; stroke:black; " description="&lt;b&gt;input.path1.gene900&lt;/b&gt;&lt;br&gt;input.path1.gene900&lt;br&gt;Location: 3337696 - 3338890" locus_tag="input.path1.gene900" class="clusterblast-orf" id="dummy-2_q14_0_all"  />
<polygon points="391,40 413,40 418,35 413,30 391,30 391,40 " style="fill:#1526d8; stroke-width:1; stroke:black; " description="&lt;b&gt;input.path1.gene901&lt;/b&gt;&lt;br&gt;input.path1.gene901&lt;br&gt;Location: 3341536 - 3345392" locus_tag="input.path1.gene901" class="clusterblast-orf" id="dummy-2_q15_0_all"  />
<polygon points="423,40 424,40 429,35 424,30 423,30 423,40 " style="fill:#d8157b; stroke-width:1; stroke:black; " description="&lt;b&gt;input.path1.gene902&lt;/b&gt;&lt;br&gt;input.path1.gene902&lt;br&gt;Location: 3346122 - 3347020" locus_tag="input.path1.gene902" class="clusterblast-orf" id="dummy-2_q16_0_all"  />
<polygon points="431,35 436,30 445,30 445,40 436,40 431,35 " style="fill:#d0d815; stroke-width:1; stroke:black; " description="&lt;b&gt;input.path1.gene903&lt;/b&gt;&lt;br&gt;input.path1.gene903&lt;br&gt;Location: 3347364 - 3349407" locus_tag="input.path1.gene903" class="clusterblast-orf" id="dummy-2_q17_0_all"  />
<polygon points="452,35 457,30 459,30 459,40 457,40 452,35 " style="fill:#15d88c; stroke-width:1; stroke:black; " description="&lt;b&gt;input.path1.gene904&lt;/b&gt;&lt;br&gt;input.path1.gene904&lt;br&gt;Location: 3350354 - 3351421" locus_tag="input.path1.gene904" class="clusterblast-orf" id="dummy-2_q18_0_all"  />
<polygon points="465,40 474,40 479,35 474,30 465,30 465,40 " style="fill:#3715d8; stroke-width:1; stroke:black; " description="&lt;b&gt;input.path1.gene905&lt;/b&gt;&lt;br&gt;input.path1.gene905&lt;br&gt;Location: 3352294 - 3354437" locus_tag="input.path1.gene905" class="clusterblast-orf" id="dummy-2_q19_0_all"  />
<polygon points="481,35 486,30 489,30 489,40 486,40 481,35 " style="fill:white; stroke-width:1; stroke:black; " description="&lt;b&gt;input.path1.gene906&lt;/b&gt;&lt;br&gt;input.path1.gene906&lt;br&gt;Location: 3354691 - 3355814" locus_tag="input.path1.gene906" class="clusterblast-orf" id="dummy-2_q20_0_all"  />
<polygon points="491,40 579,40 584,35 579,30 491,30 491,40 " style="fill:#3715d8; stroke-width:1; stroke:black; " description="&lt;b&gt;input.path1.gene907&lt;/b&gt;&lt;br&gt;input.path1.gene907&lt;br&gt;Location: 3356066 - 3369796" locus_tag="input.path1.gene907" class="clusterblast-orf" id="dummy-2_q21_0_all"  />
<polygon points="595,40 646,40 651,35 646,30 595,30 595,40 " style="fill:#3715d8; stroke-width:1; stroke:black; " description="&lt;b&gt;input.path1.gene908&lt;/b&gt;&lt;br&gt;input.path1.gene908&lt;br&gt;Location: 3371336 - 3379558" locus_tag="input.path1.gene908" class="clusterblast-orf" id="dummy-2_q22_0_all"  />
<polygon points="666,40 673,40 678,35 673,30 666,30 666,40 " style="fill:#d81548; stroke-width:1; stroke:black; " description="&lt;b&gt;input.path1.gene909&lt;/b&gt;&lt;br&gt;input.path1.gene909&lt;br&gt;Location: 3381787 - 3383482" locus_tag="input.path1.gene909" class="clusterblast-orf" id="dummy-2_q23_0_all"  />
<polygon points="680,40 695,40 700,35 695,30 680,30 680,40 " style="fill:#9dd815; stroke-width:1; stroke:black; " description="&lt;b&gt;input.path1.gene910&lt;/b&gt;&lt;br&gt;input.path1.gene910&lt;br&gt;Location: 3383874 - 3386754" locus_tag="input.path1.gene910" class="clusterblast-orf" id="dummy-2_q24_0_all"  />
<polygon points="712,40 713,40 718,35 713,30 712,30 712,40 " style="fill:#9dd815; stroke-width:1; stroke:black; " description="&lt;b&gt;input.path1.gene911&lt;/b&gt;&lt;br&gt;input.path1.gene911&lt;br&gt;Location: 3388567 - 3389447" locus_tag="input.path1.gene911" class="clusterblast-orf" id="dummy-2_q25_0_all"  />
<polygon points="744,40 750,40 755,35 750,30 744,30 744,40 " style="fill:#15d8bf; stroke-width:1; stroke:black; " description="&lt;b&gt;input.path1.gene912&lt;/b&gt;&lt;br&gt;input.path1.gene912&lt;br&gt;Location: 3393259 - 3394877" locus_tag="input.path1.gene912" class="clusterblast-orf" id="dummy-2_q26_0_all"  />
<polygon points="767,35 772,30 780,30 780,40 772,40 767,35 " style="fill:#6a15d8; stroke-width:1; stroke:black; " description="&lt;b&gt;input.path1.gene913&lt;/b&gt;&lt;br&gt;input.path1.gene913&lt;br&gt;Location: 3396640 - 3398413" locus_tag="input.path1.gene913" class="clusterblast-orf" id="dummy-2_q27_0_all"  />
</g>
<g label="NW_022986860" description="NW_022986860 (715007-796951): Westerdykella ornata strain CBS 379.55 unplaced... (11% of genes show similarity), NRPS" class="clusterblast-cluster"  >
<text x="5" y="70" class="clusterblast-acc"  >
<a xlink:href="https://antismash-db.secondarymetabolites.org/area?record=NW_022986860&amp;start=715007&amp;end=796951" target="_blank">NW_022986860 (715007-796951)</a>: Westerdykella ornata strain CBS 379.55 unplaced... (11% of genes show similarity), NRPS</text>
<line x1="10" y1="85" x2="778.0" y2="85" style="stroke-width:1; stroke:grey; "  />
</g>
<g id="a2_000"  >
<polygon points="130,90 133,90 138,85 133,80 130,80 130,90 " style="fill:white; stroke-width:1; stroke:black; " description="&lt;b&gt;EI97DRAFT_45390&lt;/b&gt;&lt;br&gt;uncharacterized protein&lt;br&gt;Location: 719852 - 721050" locus_tag="EI97DRAFT_45390" class="clusterblast-orf" id="dummy-2_h2_10_0"  />
</g>
<g id="a2_001"  >
<polygon points="145,85 150,80 161,80 161,90 150,90 145,85 " style="fill:white; stroke-width:1; stroke:black; " description="&lt;b&gt;EI97DRAFT_467262&lt;/b&gt;&lt;br&gt;neutral ceramidase precursor&lt;br&gt;Location: 722068 - 724390" locus_tag="EI97DRAFT_467262" class="clusterblast-orf" id="dummy-2_h2_10_1"  />
</g>
<g id="a2_002"  >
<polygon points="168,90 172,85 168,80 168,90 " style="fill:white; stroke-width:1; stroke:black; " description="&lt;b&gt;EI97DRAFT_377141&lt;/b&gt;&lt;br&gt;uncharacterized protein&lt;br&gt;Location: 725375 - 726007" locus_tag="EI97DRAFT_377141" class="clusterblast-orf" id="dummy-2_h2_10_2"  />
</g>
<g id="a2_003"  >
<polygon points="175,85 180,80 181,80 181,90 180,90 175,85 " style="fill:white; stroke-width:1; stroke:black; " description="&lt;b&gt;EI97DRAFT_433421&lt;/b&gt;&lt;br&gt;NAD(P)-binding protein&lt;br&gt;Location: 726423 - 727332" locus_tag="EI97DRAFT_433421" class="clusterblast-orf" id="dummy-2_h2_10_3"  />
</g>
<g id="a2_004"  >
<polygon points="187,90 187,90 192,85 187,80 187,80 187,90 " style="fill:white; stroke-width:1; stroke:black; " description="&lt;b&gt;EI97DRAFT_458518&lt;/b&gt;&lt;br&gt;class I glutamine amidotransferase-like protein&lt;br&gt;Location: 728186 - 728904" locus_tag="EI97DRAFT_458518" class="clusterblast-orf" id="dummy-2_h2_10_4"  />
</g>
<g id="a2_005"  >
<polygon points="202,90 202,90 207,85 202,80 202,80 202,90 " style="fill:white; stroke-width:1; stroke:black; " description="&lt;b&gt;EI97DRAFT_442519&lt;/b&gt;&lt;br&gt;uncharacterized protein&lt;br&gt;Location: 730382 - 731145" locus_tag="EI97DRAFT_442519" class="clusterblast-orf" id="dummy-2_h2_10_5"  />
</g>
<g id="a2_006"  >
<polygon points="216,85 221,80 252,80 252,90 221,90 216,85 " style="fill:white; stroke-width:1; stroke:black; " description="&lt;b&gt;EI97DRAFT_377023&lt;/b&gt;&lt;br&gt;uncharacterized protein&lt;br&gt;Location: 732427 - 737785" locus_tag="EI97DRAFT_377023" class="clusterblast-orf" id="dummy-2_h2_10_6"  />
</g>
<g id="a2_007"  >
<polygon points="271,85 276,80 276,80 276,90 276,90 271,85 " style="fill:white; stroke-width:1; stroke:black; " description="&lt;b&gt;EI97DRAFT_473825&lt;/b&gt;&lt;br&gt;uncharacterized protein&lt;br&gt;Location: 740574 - 741254" locus_tag="EI97DRAFT_473825" class="clusterblast-orf" id="dummy-2_h2_10_7"  />
</g>
<g id="a2_008"  >
<polygon points="287,90 294,90 299,85 294,80 287,80 287,90 " style="fill:#3715d8; stroke-width:1; stroke:black; " description="&lt;b&gt;EI97DRAFT_376826&lt;/b&gt;&lt;br&gt;acetyl-CoA synthetase-like protein&lt;br&gt;Location: 742917 - 744650&lt;br&gt;&lt;br&gt;&lt;b&gt;BlastP hit with input.path1.gene905&lt;/b&gt;&lt;br&gt;Percentage identity: 35&lt;br&gt;Percentage coverage: 62&lt;br&gt;BLAST bit score: 276&lt;br&gt;E-value: 7.73e-83&lt;br&gt;&lt;br&gt;&lt;b&gt;BlastP hit with input.path1.gene908&lt;/b&gt;&lt;br&gt;Percentage identity: 35&lt;br&gt;Percentage coverage: 20&lt;br&gt;BLAST bit score: 309&lt;br&gt;E-value: 4.29e-90" locus_tag="EI97DRAFT_376826" class="clusterblast-orf" id="dummy-2_h2_10_8"  />
</g>
<g id="a2_009"  >
<polygon points="302,90 446,90 451,85 446,80 302,80 302,90 " style="fill:#3715d8; stroke-width:1; stroke:black; " description="&lt;b&gt;EI97DRAFT_376971&lt;/b&gt;&lt;br&gt;nonribosomal peptide synthase&lt;br&gt;Location: 745008 - 766951&lt;br&gt;&lt;br&gt;&lt;b&gt;BlastP hit with input.path1.gene905&lt;/b&gt;&lt;br&gt;Percentage identity: 38&lt;br&gt;Percentage coverage: 90&lt;br&gt;BLAST bit score: 377&lt;br&gt;E-value: 2.26e-111&lt;br&gt;&lt;br&gt;&lt;b&gt;BlastP hit with input.path1.gene907&lt;/b&gt;&lt;br&gt;Percentage identity: 31&lt;br&gt;Percentage coverage: 91&lt;br&gt;BLAST bit score: 1600&lt;br&gt;E-value: 0.0&lt;br&gt;&lt;br&gt;&lt;b&gt;BlastP hit with input.path1.gene908&lt;/b&gt;&lt;br&gt;Percentage identity: 35&lt;br&gt;Percentage coverage: 67&lt;br&gt;BLAST bit score: 898&lt;br&gt;E-value: 5.52e-270" locus_tag="EI97DRAFT_376971" class="clusterblast-orf" id="dummy-2_h2_10_9"  />
</g>
<g id="a2_0010"  >
<polygon points="453,85 458,80 461,80 461,90 458,90 453,85 " style="fill:white; stroke-width:1; stroke:black; " description="&lt;b&gt;EI97DRAFT_377470&lt;/b&gt;&lt;br&gt;uncharacterized protein&lt;br&gt;Location: 767235 - 768422" locus_tag="EI97DRAFT_377470" class="clusterblast-orf" id="dummy-2_h2_10_10"  />
</g>
<g id="a2_0011"  >
<polygon points="465,85 470,80 478,80 478,90 470,90 465,85 " style="fill:white; stroke-width:1; stroke:black; " description="&lt;b&gt;EI97DRAFT_433426&lt;/b&gt;&lt;br&gt;IMP dehydrogenase&lt;br&gt;Location: 768916 - 770800" locus_tag="EI97DRAFT_433426" class="clusterblast-orf" id="dummy-2_h2_10_11"  />
</g>
<g id="a2_0012"  >
<polygon points="483,90 514,90 519,85 514,80 483,80 483,90 " style="fill:white; stroke-width:1; stroke:black; " description="&lt;b&gt;EI97DRAFT_376827&lt;/b&gt;&lt;br&gt;ras GTPase activating protein-like protein&lt;br&gt;Location: 771626 - 776849" locus_tag="EI97DRAFT_376827" class="clusterblast-orf" id="dummy-2_h2_10_12"  />
</g>
<g id="a2_0013"  >
<polygon points="525,90 529,90 534,85 529,80 525,80 525,90 " style="fill:white; stroke-width:1; stroke:black; " description="&lt;b&gt;EI97DRAFT_433429&lt;/b&gt;&lt;br&gt;phosphotransferase family protein&lt;br&gt;Location: 777716 - 779107" locus_tag="EI97DRAFT_433429" class="clusterblast-orf" id="dummy-2_h2_10_13"  />
</g>
<g id="a2_0014"  >
<polygon points="538,90 546,90 551,85 546,80 538,80 538,90 " style="fill:white; stroke-width:1; stroke:black; " description="&lt;b&gt;EI97DRAFT_45911&lt;/b&gt;&lt;br&gt;uncharacterized protein&lt;br&gt;Location: 779670 - 781590" locus_tag="EI97DRAFT_45911" class="clusterblast-orf" id="dummy-2_h2_10_14"  />
</g>
<g id="a2_0015"  >
<polygon points="556,90 618,90 623,85 618,80 556,80 556,90 " style="fill:white; stroke-width:1; stroke:black; " description="&lt;b&gt;EI97DRAFT_450390&lt;/b&gt;&lt;br&gt;uncharacterized protein&lt;br&gt;Location: 782251 - 792102" locus_tag="EI97DRAFT_450390" class="clusterblast-orf" id="dummy-2_h2_10_15"  />
</g>
<g id="a2_0016"  >
<polygon points="635,90 644,90 649,85 644,80 635,80 635,90 " style="fill:white; stroke-width:1; stroke:black; " description="&lt;b&gt;EI97DRAFT_467274&lt;/b&gt;&lt;br&gt;amino acid transporter-like protein&lt;br&gt;Location: 793915 - 795910" locus_tag="EI97DRAFT_467274" class="clusterblast-orf" id="dummy-2_h2_10_16"  />
</g>
</svg>
