<svg xmlns="http://www.w3.org/2000/svg" xmlns:xlink="http://www.w3.org/1999/xlink" version="1.1" x="0" y="0" height="230" width="800" viewBox="0 0 800 230" preserveAspectRatio="none"  >
<g label="Query sequence" class="clusterblast-cluster"  >
<text x="5" y="20" class="clusterblast-acc"  >
Query sequence</text>
<line x1="10" y1="35" x2="778.0" y2="35" style="stroke-width:1; stroke:grey; "  />
<polygon points="136,40 155,40 160,35 155,30 136,30 136,40 " style="fill:#d81515; stroke-width:1; stroke:black; " description="&lt;b&gt;input.path1.gene53&lt;/b&gt;&lt;br&gt;input.path1.gene53&lt;br&gt;Location: 225506 - 227563" locus_tag="input.path1.gene53" class="clusterblast-orf" id="dummy-1_q0_0_all"  />
<polygon points="174,40 186,40 191,35 186,30 174,30 174,40 " style="fill:#77d815; stroke-width:1; stroke:black; " description="&lt;b&gt;input.path1.gene54&lt;/b&gt;&lt;br&gt;input.path1.gene54&lt;br&gt;Location: 228788 - 230230" locus_tag="input.path1.gene54" class="clusterblast-orf" id="dummy-1_q1_0_all"  />
<polygon points="193,35 198,30 212,30 212,40 198,40 193,35 " style="fill:#15d8d8; stroke-width:1; stroke:black; " description="&lt;b&gt;input.path1.gene55&lt;/b&gt;&lt;br&gt;input.path1.gene55&lt;br&gt;Location: 230448 - 232041" locus_tag="input.path1.gene55" class="clusterblast-orf" id="dummy-1_q2_0_all"  />
<polygon points="225,35 229,30 229,40 225,35 " style="fill:white; stroke-width:1; stroke:black; " description="&lt;b&gt;input.path1.gene56&lt;/b&gt;&lt;br&gt;input.path1.gene56&lt;br&gt;Location: 233117 - 233477" locus_tag="input.path1.gene56" class="clusterblast-orf" id="dummy-1_q3_0_all"  />
<polygon points="304,40 307,40 312,35 307,30 304,30 304,40 " style="fill:#7715d8; stroke-width:1; stroke:black; " description="&lt;b&gt;input.path1.gene57&lt;/b&gt;&lt;br&gt;input.path1.gene57&lt;br&gt;Location: 239909 - 240596" locus_tag="input.path1.gene57" class="clusterblast-orf" id="dummy-1_q4_0_all"  />
<polygon points="321,40 323,40 328,35 323,30 321,30 321,40 " style="fill:#d87715; stroke-width:1; stroke:black; " description="&lt;b&gt;input.path1.gene58&lt;/b&gt;&lt;br&gt;input.path1.gene58&lt;br&gt;Location: 241309 - 241917" locus_tag="input.path1.gene58" class="clusterblast-orf" id="dummy-1_q5_0_all"  />
<polygon points="334,35 339,30 351,30 351,40 339,40 334,35 " style="fill:#15d815; stroke-width:1; stroke:black; " description="&lt;b&gt;input.path1.gene59&lt;/b&gt;&lt;br&gt;input.path1.gene59&lt;br&gt;Location: 242431 - 243925" locus_tag="input.path1.gene59" class="clusterblast-orf" id="dummy-1_q6_0_all"  />
<polygon points="359,40 424,40 429,35 424,30 359,30 359,40 " style="fill:#1577d8; stroke-width:1; stroke:black; " description="&lt;b&gt;input.path1.gene60&lt;/b&gt;&lt;br&gt;input.path1.gene60&lt;br&gt;Location: 244578 - 250613" locus_tag="input.path1.gene60" class="clusterblast-orf" id="dummy-1_q7_0_all"  />
<polygon points="430,35 435,30 449,30 449,40 435,40 430,35 " style="fill:#d815d8; stroke-width:1; stroke:black; " description="&lt;b&gt;input.path1.gene61&lt;/b&gt;&lt;br&gt;input.path1.gene61&lt;br&gt;Location: 250641 - 252291" locus_tag="input.path1.gene61" class="clusterblast-orf" id="dummy-1_q8_0_all"  />
<polygon points="501,40 505,35 501,30 501,40 " style="fill:#d8d815; stroke-width:1; stroke:black; " description="&lt;b&gt;input.path1.gene62&lt;/b&gt;&lt;br&gt;input.path1.gene62&lt;br&gt;Location: 256710 - 257118" locus_tag="input.path1.gene62" class="clusterblast-orf" id="dummy-1_q9_0_all"  />
<polygon points="514,35 519,30 524,30 524,40 519,40 514,35 " style="fill:white; stroke-width:1; stroke:black; " description="&lt;b&gt;input.path1.gene63&lt;/b&gt;&lt;br&gt;input.path1.gene63&lt;br&gt;Location: 257873 - 258744" locus_tag="input.path1.gene63" class="clusterblast-orf" id="dummy-1_q10_0_all"  />
<polygon points="541,40 548,40 553,35 548,30 541,30 541,40 " style="fill:#15d877; stroke-width:1; stroke:black; " description="&lt;b&gt;input.path1.gene64&lt;/b&gt;&lt;br&gt;input.path1.gene64&lt;br&gt;Location: 260173 - 261207" locus_tag="input.path1.gene64" class="clusterblast-orf" id="dummy-1_q11_0_all"  />
<polygon points="565,35 570,30 576,30 576,40 570,40 565,35 " style="fill:#1515d8; stroke-width:1; stroke:black; " description="&lt;b&gt;input.path1.gene65&lt;/b&gt;&lt;br&gt;input.path1.gene65&lt;br&gt;Location: 262167 - 263181" locus_tag="input.path1.gene65" class="clusterblast-orf" id="dummy-1_q12_0_all"  />
<polygon points="621,35 626,30 644,30 644,40 626,40 621,35 " style="fill:#d81577; stroke-width:1; stroke:black; " description="&lt;b&gt;input.path1.gene66&lt;/b&gt;&lt;br&gt;input.path1.gene66&lt;br&gt;Location: 266967 - 268927" locus_tag="input.path1.gene66" class="clusterblast-orf" id="dummy-1_q13_0_all"  />
</g>
<g label="NW_025764716" description="NW_025764716 (588555-656757): Emericellopsis atlantica unplaced genomic scaff... (16% of genes show similarity), T1PKS" class="clusterblast-cluster"  >
<text x="5" y="70" class="clusterblast-acc"  >
<a xlink:href="https://antismash-db.secondarymetabolites.org/area?record=NW_025764716&amp;start=588555&amp;end=656757" target="_blank">NW_025764716 (588555-656757)</a>: Emericellopsis atlantica unplaced genomic scaff... (16% of genes show similarity), T1PKS</text>
<line x1="10" y1="85" x2="778.0" y2="85" style="stroke-width:1; stroke:grey; "  />
</g>
<g id="a1_000"  >
<polygon points="0,85 5,80 22,80 22,90 5,90 0,85 " style="fill:white; stroke-width:1; stroke:black; " description="&lt;b&gt;F5Z01DRAFT_121280&lt;/b&gt;&lt;br&gt;peptidase S8/S53 domain-containing protein&lt;br&gt;Location: 655916 - 654022" locus_tag="F5Z01DRAFT_121280" class="clusterblast-orf" id="dummy-1_h1_3_0"  />
</g>
<g id="a1_001"  >
<polygon points="33,90 37,90 42,85 37,80 33,80 33,90 " style="fill:white; stroke-width:1; stroke:black; " description="&lt;b&gt;F5Z01DRAFT_121278&lt;/b&gt;&lt;br&gt;uncharacterized protein&lt;br&gt;Location: 653022 - 652321" locus_tag="F5Z01DRAFT_121278" class="clusterblast-orf" id="dummy-1_h1_3_1"  />
</g>
<g id="a1_002"  >
<polygon points="53,85 58,80 68,80 68,90 58,90 53,85 " style="fill:white; stroke-width:1; stroke:black; " description="&lt;b&gt;F5Z01DRAFT_674528&lt;/b&gt;&lt;br&gt;uncharacterized protein&lt;br&gt;Location: 651346 - 650082" locus_tag="F5Z01DRAFT_674528" class="clusterblast-orf" id="dummy-1_h1_3_2"  />
</g>
<g id="a1_003"  >
<polygon points="81,85 86,80 86,80 86,90 86,90 81,85 " style="fill:white; stroke-width:1; stroke:black; " description="&lt;b&gt;F5Z01DRAFT_121273&lt;/b&gt;&lt;br&gt;uncharacterized protein&lt;br&gt;Location: 648963 - 648562" locus_tag="F5Z01DRAFT_121273" class="clusterblast-orf" id="dummy-1_h1_3_3"  />
</g>
<g id="a1_004"  >
<polygon points="93,90 99,90 104,85 99,80 93,80 93,90 " style="fill:white; stroke-width:1; stroke:black; " description="&lt;b&gt;F5Z01DRAFT_121407&lt;/b&gt;&lt;br&gt;ubiquinone biosynthesis protein coq-4&lt;br&gt;Location: 647926 - 647005" locus_tag="F5Z01DRAFT_121407" class="clusterblast-orf" id="dummy-1_h1_3_4"  />
</g>
<g id="a1_005"  >
<polygon points="105,85 110,80 111,80 111,90 110,90 105,85 " style="fill:white; stroke-width:1; stroke:black; " description="&lt;b&gt;F5Z01DRAFT_636868&lt;/b&gt;&lt;br&gt;putative dsDNA-binding protein PDCD5&lt;br&gt;Location: 646892 - 646380" locus_tag="F5Z01DRAFT_636868" class="clusterblast-orf" id="dummy-1_h1_3_5"  />
</g>
<g id="a1_006"  >
<polygon points="115,85 120,80 132,80 132,90 120,90 115,85 " style="fill:white; stroke-width:1; stroke:black; " description="&lt;b&gt;F5Z01DRAFT_656265&lt;/b&gt;&lt;br&gt;uncharacterized protein&lt;br&gt;Location: 646044 - 644623" locus_tag="F5Z01DRAFT_656265" class="clusterblast-orf" id="dummy-1_h1_3_6"  />
</g>
<g id="a1_007"  >
<polygon points="138,90 141,90 146,85 141,80 138,80 138,90 " style="fill:#7715d8; stroke-width:1; stroke:black; " description="&lt;b&gt;F5Z01DRAFT_121222&lt;/b&gt;&lt;br&gt;Sas10/Utp3/C1D family protein&lt;br&gt;Location: 644062 - 643411&lt;br&gt;&lt;br&gt;&lt;b&gt;BlastP hit with input.path1.gene57&lt;/b&gt;&lt;br&gt;Percentage identity: 73&lt;br&gt;Percentage coverage: 89&lt;br&gt;BLAST bit score: 214&lt;br&gt;E-value: 1.96e-69" locus_tag="F5Z01DRAFT_121222" class="clusterblast-orf" id="dummy-1_h1_3_7"  />
</g>
<g id="a1_008"  >
<polygon points="156,90 157,90 162,85 157,80 156,80 156,90 " style="fill:#d87715; stroke-width:1; stroke:black; " description="&lt;b&gt;F5Z01DRAFT_656262&lt;/b&gt;&lt;br&gt;CHCH domain protein&lt;br&gt;Location: 642563 - 642044&lt;br&gt;&lt;br&gt;&lt;b&gt;BlastP hit with input.path1.gene58&lt;/b&gt;&lt;br&gt;Percentage identity: 55&lt;br&gt;Percentage coverage: 107&lt;br&gt;BLAST bit score: 108&lt;br&gt;E-value: 7.13e-29" locus_tag="F5Z01DRAFT_656262" class="clusterblast-orf" id="dummy-1_h1_3_8"  />
</g>
<g id="a1_009"  >
<polygon points="163,85 168,80 180,80 180,90 168,90 163,85 " style="fill:#15d815; stroke-width:1; stroke:black; " description="&lt;b&gt;F5Z01DRAFT_121217&lt;/b&gt;&lt;br&gt;uncharacterized protein&lt;br&gt;Location: 641931 - 640488&lt;br&gt;&lt;br&gt;&lt;b&gt;BlastP hit with input.path1.gene59&lt;/b&gt;&lt;br&gt;Percentage identity: 41&lt;br&gt;Percentage coverage: 117&lt;br&gt;BLAST bit score: 257&lt;br&gt;E-value: 2.61e-79" locus_tag="F5Z01DRAFT_121217" class="clusterblast-orf" id="dummy-1_h1_3_9"  />
</g>
<g id="a1_0010"  >
<polygon points="191,90 198,90 203,85 198,80 191,80 191,90 " style="fill:#1577d8; stroke-width:1; stroke:black; " description="&lt;b&gt;F5Z01DRAFT_121208&lt;/b&gt;&lt;br&gt;SURF1 family-domain-containing protein&lt;br&gt;Location: 639564 - 638525&lt;br&gt;&lt;br&gt;&lt;b&gt;BlastP hit with input.path1.gene60&lt;/b&gt;&lt;br&gt;Percentage identity: 69&lt;br&gt;Percentage coverage: 20&lt;br&gt;BLAST bit score: 410&lt;br&gt;E-value: 9.02e-130" locus_tag="F5Z01DRAFT_121208" class="clusterblast-orf" id="dummy-1_h1_3_10"  />
</g>
<g id="a1_0011"  >
<polygon points="206,85 211,80 222,80 222,90 211,90 206,85 " style="fill:#d815d8; stroke-width:1; stroke:black; " description="&lt;b&gt;F5Z01DRAFT_121230&lt;/b&gt;&lt;br&gt;centromere kinetochore component CENP-T-domain-containing protein&lt;br&gt;Location: 638276 - 636906&lt;br&gt;&lt;br&gt;&lt;b&gt;BlastP hit with input.path1.gene61&lt;/b&gt;&lt;br&gt;Percentage identity: 38&lt;br&gt;Percentage coverage: 110&lt;br&gt;BLAST bit score: 224&lt;br&gt;E-value: 1.87e-66" locus_tag="F5Z01DRAFT_121230" class="clusterblast-orf" id="dummy-1_h1_3_11"  />
</g>
<g id="a1_0012"  >
<polygon points="231,90 248,90 253,85 248,80 231,80 231,90 " style="fill:white; stroke-width:1; stroke:black; " description="&lt;b&gt;F5Z01DRAFT_687831&lt;/b&gt;&lt;br&gt;uncharacterized protein&lt;br&gt;Location: 636095 - 634248" locus_tag="F5Z01DRAFT_687831" class="clusterblast-orf" id="dummy-1_h1_3_12"  />
</g>
<g id="a1_0013"  >
<polygon points="255,85 260,80 270,80 270,90 260,90 255,85 " style="fill:white; stroke-width:1; stroke:black; " description="&lt;b&gt;F5Z01DRAFT_656255&lt;/b&gt;&lt;br&gt;ACC synthase&lt;br&gt;Location: 634117 - 632813" locus_tag="F5Z01DRAFT_656255" class="clusterblast-orf" id="dummy-1_h1_3_13"  />
</g>
<g id="a1_0014"  >
<polygon points="281,90 290,90 295,85 290,80 281,80 281,90 " style="fill:white; stroke-width:1; stroke:black; " description="&lt;b&gt;F5Z01DRAFT_656254&lt;/b&gt;&lt;br&gt;putative methyltransferase-domain-containing protein&lt;br&gt;Location: 631848 - 630676" locus_tag="F5Z01DRAFT_656254" class="clusterblast-orf" id="dummy-1_h1_3_14"  />
</g>
<g id="a1_0015"  >
<polygon points="313,85 318,80 327,80 327,90 318,90 313,85 " style="fill:white; stroke-width:1; stroke:black; " description="&lt;b&gt;F5Z01DRAFT_656252&lt;/b&gt;&lt;br&gt;beta-lactamase/transpeptidase-like protein&lt;br&gt;Location: 629088 - 627886" locus_tag="F5Z01DRAFT_656252" class="clusterblast-orf" id="dummy-1_h1_3_15"  />
</g>
<g id="a1_0016"  >
<polygon points="341,85 346,80 437,80 437,90 346,90 341,85 " style="fill:white; stroke-width:1; stroke:black; " description="&lt;b&gt;F5Z01DRAFT_622595&lt;/b&gt;&lt;br&gt;uncharacterized protein&lt;br&gt;Location: 626757 - 618556" locus_tag="F5Z01DRAFT_622595" class="clusterblast-orf" id="dummy-1_h1_3_16"  />
</g>
<g id="a1_0017"  >
<polygon points="443,85 448,80 450,80 450,90 448,90 443,85 " style="fill:white; stroke-width:1; stroke:black; " description="&lt;b&gt;F5Z01DRAFT_121166&lt;/b&gt;&lt;br&gt;cupin domain-containing protein&lt;br&gt;Location: 618000 - 617443" locus_tag="F5Z01DRAFT_121166" class="clusterblast-orf" id="dummy-1_h1_3_17"  />
</g>
<g id="a1_0018"  >
<polygon points="453,85 458,80 466,80 466,90 458,90 453,85 " style="fill:white; stroke-width:1; stroke:black; " description="&lt;b&gt;F5Z01DRAFT_121161&lt;/b&gt;&lt;br&gt;uncharacterized protein&lt;br&gt;Location: 617124 - 616060" locus_tag="F5Z01DRAFT_121161" class="clusterblast-orf" id="dummy-1_h1_3_18"  />
</g>
<g id="a1_0019"  >
<polygon points="484,90 488,90 493,85 488,80 484,80 484,90 " style="fill:white; stroke-width:1; stroke:black; " description="&lt;b&gt;F5Z01DRAFT_656248&lt;/b&gt;&lt;br&gt;Haloacid dehalogenase-like hydrolase-domain-containing protein&lt;br&gt;Location: 614528 - 613770" locus_tag="F5Z01DRAFT_656248" class="clusterblast-orf" id="dummy-1_h1_3_19"  />
</g>
<g id="a1_0020"  >
<polygon points="495,90 499,90 504,85 499,80 495,80 495,90 " style="fill:white; stroke-width:1; stroke:black; " description="&lt;b&gt;F5Z01DRAFT_656247&lt;/b&gt;&lt;br&gt;uncharacterized protein&lt;br&gt;Location: 613590 - 612778" locus_tag="F5Z01DRAFT_656247" class="clusterblast-orf" id="dummy-1_h1_3_20"  />
</g>
<g id="a1_0021"  >
<polygon points="510,85 515,80 522,80 522,90 515,90 510,85 " style="fill:white; stroke-width:1; stroke:black; " description="&lt;b&gt;F5Z01DRAFT_687814&lt;/b&gt;&lt;br&gt;uncharacterized protein&lt;br&gt;Location: 612247 - 611249" locus_tag="F5Z01DRAFT_687814" class="clusterblast-orf" id="dummy-1_h1_3_21"  />
</g>
<g id="a1_0022"  >
<polygon points="562,90 567,90 572,85 567,80 562,80 562,90 " style="fill:white; stroke-width:1; stroke:black; " description="&lt;b&gt;F5Z01DRAFT_674506&lt;/b&gt;&lt;br&gt;uncharacterized protein&lt;br&gt;Location: 607815 - 606946" locus_tag="F5Z01DRAFT_674506" class="clusterblast-orf" id="dummy-1_h1_3_22"  />
</g>
<g id="a1_0023"  >
<polygon points="574,85 579,80 579,80 579,90 579,90 574,85 " style="fill:white; stroke-width:1; stroke:black; " description="&lt;b&gt;F5Z01DRAFT_120766&lt;/b&gt;&lt;br&gt;uncharacterized protein&lt;br&gt;Location: 606794 - 606408" locus_tag="F5Z01DRAFT_120766" class="clusterblast-orf" id="dummy-1_h1_3_23"  />
</g>
<g id="a1_0024"  >
<polygon points="588,85 593,80 637,80 637,90 593,90 588,85 " style="fill:white; stroke-width:1; stroke:black; " description="&lt;b&gt;F5Z01DRAFT_622629&lt;/b&gt;&lt;br&gt;uncharacterized protein&lt;br&gt;Location: 605614 - 601463" locus_tag="F5Z01DRAFT_622629" class="clusterblast-orf" id="dummy-1_h1_3_24"  />
</g>
<g id="a1_0025"  >
<polygon points="648,90 652,90 657,85 652,80 648,80 648,90 " style="fill:white; stroke-width:1; stroke:black; " description="&lt;b&gt;F5Z01DRAFT_656243&lt;/b&gt;&lt;br&gt;uncharacterized protein&lt;br&gt;Location: 600454 - 599749" locus_tag="F5Z01DRAFT_656243" class="clusterblast-orf" id="dummy-1_h1_3_25"  />
</g>
<g id="a1_0026"  >
<polygon points="661,85 666,80 675,80 675,90 666,90 661,85 " style="fill:white; stroke-width:1; stroke:black; " description="&lt;b&gt;F5Z01DRAFT_622529&lt;/b&gt;&lt;br&gt;ER to Golgi transporter Yif1&lt;br&gt;Location: 599340 - 598209" locus_tag="F5Z01DRAFT_622529" class="clusterblast-orf" id="dummy-1_h1_3_26"  />
</g>
<g id="a1_0027"  >
<polygon points="680,90 690,90 695,85 690,80 680,80 680,90 " style="fill:white; stroke-width:1; stroke:black; " description="&lt;b&gt;F5Z01DRAFT_622642&lt;/b&gt;&lt;br&gt;uncharacterized protein&lt;br&gt;Location: 597714 - 596494" locus_tag="F5Z01DRAFT_622642" class="clusterblast-orf" id="dummy-1_h1_3_27"  />
</g>
<g id="a1_0028"  >
<polygon points="697,85 702,80 717,80 717,90 702,90 697,85 " style="fill:white; stroke-width:1; stroke:black; " description="&lt;b&gt;F5Z01DRAFT_636843&lt;/b&gt;&lt;br&gt;uncharacterized protein&lt;br&gt;Location: 596289 - 594607" locus_tag="F5Z01DRAFT_636843" class="clusterblast-orf" id="dummy-1_h1_3_28"  />
</g>
<g id="a1_0029"  >
<polygon points="755,90 775,90 780,85 775,80 755,80 755,90 " style="fill:white; stroke-width:1; stroke:black; " description="&lt;b&gt;F5Z01DRAFT_656221&lt;/b&gt;&lt;br&gt;signal recognition particle, alpha subunit, N-terminal-domain-containing protein&lt;br&gt;Location: 591370 - 589242" locus_tag="F5Z01DRAFT_656221" class="clusterblast-orf" id="dummy-1_h1_3_29"  />
</g>
</svg>
