<svg xmlns="http://www.w3.org/2000/svg" xmlns:xlink="http://www.w3.org/1999/xlink" version="1.1" x="0" y="0" height="230" width="800" viewBox="0 0 800 230" preserveAspectRatio="none"  >
<g label="Query sequence" class="clusterblast-cluster"  >
<text x="5" y="20" class="clusterblast-acc"  >
Query sequence</text>
<line x1="10" y1="35" x2="778.0" y2="35" style="stroke-width:1; stroke:grey; "  />
<polygon points="326,35 329,30 329,40 326,35 " style="fill:#d81515; stroke-width:1; stroke:black; " description="&lt;b&gt;input.path1.gene40&lt;/b&gt;&lt;br&gt;input.path1.gene40&lt;br&gt;Location: 162867 - 163665" locus_tag="input.path1.gene40" class="clusterblast-orf" id="dummy-1_q0_0_all"  />
<polygon points="340,40 344,35 340,30 340,40 " style="fill:#77d815; stroke-width:1; stroke:black; " description="&lt;b&gt;input.path1.gene41&lt;/b&gt;&lt;br&gt;input.path1.gene41&lt;br&gt;Location: 166846 - 167881" locus_tag="input.path1.gene41" class="clusterblast-orf" id="dummy-1_q1_0_all"  />
<polygon points="346,35 349,30 349,40 346,35 " style="fill:#15d8d8; stroke-width:1; stroke:black; " description="&lt;b&gt;input.path1.gene42&lt;/b&gt;&lt;br&gt;input.path1.gene42&lt;br&gt;Location: 168409 - 169379" locus_tag="input.path1.gene42" class="clusterblast-orf" id="dummy-1_q2_0_all"  />
<polygon points="358,40 361,35 358,30 358,40 " style="fill:#7715d8; stroke-width:1; stroke:black; " description="&lt;b&gt;input.path1.gene43&lt;/b&gt;&lt;br&gt;input.path1.gene43&lt;br&gt;Location: 171737 - 172773" locus_tag="input.path1.gene43" class="clusterblast-orf" id="dummy-1_q3_0_all"  />
<polygon points="364,35 368,30 368,40 364,35 " style="fill:#d8a715; stroke-width:1; stroke:black; " description="&lt;b&gt;input.path1.gene44&lt;/b&gt;&lt;br&gt;input.path1.gene44&lt;br&gt;Location: 173663 - 174650" locus_tag="input.path1.gene44" class="clusterblast-orf" id="dummy-1_q4_0_all"  />
<polygon points="377,40 379,40 384,35 379,30 377,30 377,40 " style="fill:#15d846; stroke-width:1; stroke:black; " description="&lt;b&gt;input.path1.gene45&lt;/b&gt;&lt;br&gt;input.path1.gene45&lt;br&gt;Location: 177296 - 179262" locus_tag="input.path1.gene45" class="clusterblast-orf" id="dummy-1_q5_0_all"  />
<polygon points="386,35 390,30 390,40 386,35 " style="fill:white; stroke-width:1; stroke:black; " description="&lt;b&gt;input.path1.gene46&lt;/b&gt;&lt;br&gt;input.path1.gene46&lt;br&gt;Location: 179606 - 180863" locus_tag="input.path1.gene46" class="clusterblast-orf" id="dummy-1_q6_0_all"  />
<polygon points="409,40 411,35 409,30 409,40 " style="fill:#1546d8; stroke-width:1; stroke:black; " description="&lt;b&gt;input.path1.gene47&lt;/b&gt;&lt;br&gt;input.path1.gene47&lt;br&gt;Location: 186259 - 186685" locus_tag="input.path1.gene47" class="clusterblast-orf" id="dummy-1_q7_0_all"  />
<polygon points="413,40 415,35 413,30 413,40 " style="fill:white; stroke-width:1; stroke:black; " description="&lt;b&gt;input.path1.gene48&lt;/b&gt;&lt;br&gt;input.path1.gene48&lt;br&gt;Location: 187390 - 187893" locus_tag="input.path1.gene48" class="clusterblast-orf" id="dummy-1_q8_0_all"  />
<polygon points="425,40 427,40 432,35 427,30 425,30 425,40 " style="fill:#d815a7; stroke-width:1; stroke:black; " description="&lt;b&gt;input.path1.gene49&lt;/b&gt;&lt;br&gt;input.path1.gene49&lt;br&gt;Location: 190737 - 192478" locus_tag="input.path1.gene49" class="clusterblast-orf" id="dummy-1_q9_0_all"  />
<polygon points="449,40 453,35 449,30 449,40 " style="fill:white; stroke-width:1; stroke:black; " description="&lt;b&gt;input.path1.gene50&lt;/b&gt;&lt;br&gt;input.path1.gene50&lt;br&gt;Location: 197426 - 198494" locus_tag="input.path1.gene50" class="clusterblast-orf" id="dummy-1_q10_0_all"  />
</g>
<g label="NW_014574694" description="NW_014574694 (19387-240297): Metarhizium brunneum ARSEF 3297 chromosome Unkno... (2% of genes show similarity), NRPS,NRPS-like,T1PKS,fungal-RiPP-like" class="clusterblast-cluster"  >
<text x="5" y="70" class="clusterblast-acc"  >
<a xlink:href="https://antismash-db.secondarymetabolites.org/area?record=NW_014574694&amp;start=19387&amp;end=240297" target="_blank">NW_014574694 (19387-240297)</a>: Metarhizium brunneum ARSEF 3297 chromosome Unkno... (2% of genes show similarity), NRPS,NRPS-like,T1PKS,fungal-RiPP-like</text>
<line x1="10" y1="85" x2="778.0" y2="85" style="stroke-width:1; stroke:grey; "  />
</g>
<g id="a1_000"  >
<polygon points="0,85 4,80 4,90 0,85 " style="fill:white; stroke-width:1; stroke:black; " description="&lt;b&gt;MBR_09528&lt;/b&gt;&lt;br&gt;hypothetical protein&lt;br&gt;Location: 238273 - 237038" locus_tag="MBR_09528" class="clusterblast-orf" id="dummy-1_h1_5_0"  />
</g>
<g id="a1_001"  >
<polygon points="5,90 8,85 5,80 5,90 " style="fill:white; stroke-width:1; stroke:black; " description="&lt;b&gt;MBR_09527&lt;/b&gt;&lt;br&gt;hypothetical protein&lt;br&gt;Location: 236756 - 235854" locus_tag="MBR_09527" class="clusterblast-orf" id="dummy-1_h1_5_1"  />
</g>
<g id="a1_002"  >
<polygon points="9,85 14,80 15,80 15,90 14,90 9,85 " style="fill:white; stroke-width:1; stroke:black; " description="&lt;b&gt;MBR_09526&lt;/b&gt;&lt;br&gt;Major facilitator superfamily domain, general substrate transporter&lt;br&gt;Location: 235527 - 233948" locus_tag="MBR_09526" class="clusterblast-orf" id="dummy-1_h1_5_2"  />
</g>
<g id="a1_003"  >
<polygon points="20,85 25,80 25,80 25,90 25,90 20,85 " style="fill:white; stroke-width:1; stroke:black; " description="&lt;b&gt;MBR_09525&lt;/b&gt;&lt;br&gt;hypothetical protein&lt;br&gt;Location: 232398 - 231223" locus_tag="MBR_09525" class="clusterblast-orf" id="dummy-1_h1_5_3"  />
</g>
<g id="a1_004"  >
<polygon points="26,90 29,85 26,80 26,90 " style="fill:white; stroke-width:1; stroke:black; " description="&lt;b&gt;MBR_09524&lt;/b&gt;&lt;br&gt;hypothetical protein&lt;br&gt;Location: 230912 - 229992" locus_tag="MBR_09524" class="clusterblast-orf" id="dummy-1_h1_5_4"  />
</g>
<g id="a1_005"  >
<polygon points="36,85 41,80 47,80 47,90 41,90 36,85 " style="fill:white; stroke-width:1; stroke:black; " description="&lt;b&gt;MBR_09523&lt;/b&gt;&lt;br&gt;subtilisin-like serine protease PR1C&lt;br&gt;Location: 227917 - 225061" locus_tag="MBR_09523" class="clusterblast-orf" id="dummy-1_h1_5_5"  />
</g>
<g id="a1_006"  >
<polygon points="63,90 66,85 63,80 63,90 " style="fill:white; stroke-width:1; stroke:black; " description="&lt;b&gt;MBR_09522&lt;/b&gt;&lt;br&gt;Protein kinase-like domain protein&lt;br&gt;Location: 220412 - 219612" locus_tag="MBR_09522" class="clusterblast-orf" id="dummy-1_h1_5_6"  />
</g>
<g id="a1_007"  >
<polygon points="78,85 82,80 82,90 78,85 " style="fill:white; stroke-width:1; stroke:black; " description="&lt;b&gt;MBR_09521&lt;/b&gt;&lt;br&gt;Amidohydrolase 1&lt;br&gt;Location: 216243 - 215173" locus_tag="MBR_09521" class="clusterblast-orf" id="dummy-1_h1_5_7"  />
</g>
<g id="a1_008"  >
<polygon points="88,90 90,85 88,80 88,90 " style="fill:white; stroke-width:1; stroke:black; " description="&lt;b&gt;MBR_09520&lt;/b&gt;&lt;br&gt;hypothetical protein&lt;br&gt;Location: 213580 - 213005" locus_tag="MBR_09520" class="clusterblast-orf" id="dummy-1_h1_5_8"  />
</g>
<g id="a1_009"  >
<polygon points="90,85 95,80 96,80 96,90 95,90 90,85 " style="fill:#d8a715; stroke-width:1; stroke:black; " description="&lt;b&gt;MBR_09519&lt;/b&gt;&lt;br&gt;sterigmatocystin 8-O-methyltransferase&lt;br&gt;Location: 212792 - 211277&lt;br&gt;&lt;br&gt;&lt;b&gt;BlastP hit with input.path1.gene44&lt;/b&gt;&lt;br&gt;Percentage identity: 48&lt;br&gt;Percentage coverage: 100&lt;br&gt;BLAST bit score: 245&lt;br&gt;E-value: 1.84e-77" locus_tag="MBR_09519" class="clusterblast-orf" id="dummy-1_h1_5_9"  />
</g>
<g id="a1_0010"  >
<polygon points="99,90 105,90 110,85 105,80 99,80 99,90 " style="fill:#15d846; stroke-width:1; stroke:black; " description="&lt;b&gt;MBR_09518&lt;/b&gt;&lt;br&gt;TdiA, AMP-binding &amp; Acyl-protein synthetase&lt;br&gt;Location: 210297 - 207295&lt;br&gt;&lt;br&gt;&lt;b&gt;BlastP hit with input.path1.gene45&lt;/b&gt;&lt;br&gt;Percentage identity: 51&lt;br&gt;Percentage coverage: 103&lt;br&gt;BLAST bit score: 628&lt;br&gt;E-value: 1.19e-213" locus_tag="MBR_09518" class="clusterblast-orf" id="dummy-1_h1_5_10"  />
</g>
<g id="a1_0011"  >
<polygon points="111,90 114,85 111,80 111,90 " style="fill:white; stroke-width:1; stroke:black; " description="&lt;b&gt;MBR_09517&lt;/b&gt;&lt;br&gt;O-methyl transferase B&lt;br&gt;Location: 207117 - 206093" locus_tag="MBR_09517" class="clusterblast-orf" id="dummy-1_h1_5_11"  />
</g>
<g id="a1_0012"  >
<polygon points="119,90 120,90 125,85 120,80 119,80 119,90 " style="fill:white; stroke-width:1; stroke:black; " description="&lt;b&gt;MBR_09516&lt;/b&gt;&lt;br&gt;cytochrome P450&lt;br&gt;Location: 204761 - 203072" locus_tag="MBR_09516" class="clusterblast-orf" id="dummy-1_h1_5_12"  />
</g>
<g id="a1_0013"  >
<polygon points="126,85 129,80 129,90 126,85 " style="fill:white; stroke-width:1; stroke:black; " description="&lt;b&gt;MBR_09515&lt;/b&gt;&lt;br&gt;NmrA family protein&lt;br&gt;Location: 202957 - 202028" locus_tag="MBR_09515" class="clusterblast-orf" id="dummy-1_h1_5_13"  />
</g>
<g id="a1_0014"  >
<polygon points="135,90 137,90 142,85 137,80 135,80 135,90 " style="fill:white; stroke-width:1; stroke:black; " description="&lt;b&gt;MBR_09514&lt;/b&gt;&lt;br&gt;efflux pump&lt;br&gt;Location: 200404 - 198242" locus_tag="MBR_09514" class="clusterblast-orf" id="dummy-1_h1_5_14"  />
</g>
<g id="a1_0015"  >
<polygon points="145,85 149,80 149,90 145,85 " style="fill:white; stroke-width:1; stroke:black; " description="&lt;b&gt;MBR_09513&lt;/b&gt;&lt;br&gt;integral membrane protein&lt;br&gt;Location: 197540 - 196255" locus_tag="MBR_09513" class="clusterblast-orf" id="dummy-1_h1_5_15"  />
</g>
<g id="a1_0016"  >
<polygon points="152,85 157,80 161,80 161,90 157,90 152,85 " style="fill:white; stroke-width:1; stroke:black; " description="&lt;b&gt;MBR_09512&lt;/b&gt;&lt;br&gt;trichodiene oxygenase&lt;br&gt;Location: 195617 - 193029" locus_tag="MBR_09512" class="clusterblast-orf" id="dummy-1_h1_5_16"  />
</g>
<g id="a1_0017"  >
<polygon points="174,90 176,85 174,80 174,90 " style="fill:white; stroke-width:1; stroke:black; " description="&lt;b&gt;MBR_09511&lt;/b&gt;&lt;br&gt;hypothetical protein&lt;br&gt;Location: 189388 - 188684" locus_tag="MBR_09511" class="clusterblast-orf" id="dummy-1_h1_5_17"  />
</g>
<g id="a1_0018"  >
<polygon points="184,90 189,90 194,85 189,80 184,80 184,90 " style="fill:white; stroke-width:1; stroke:black; " description="&lt;b&gt;MBR_09510&lt;/b&gt;&lt;br&gt;hypothetical protein&lt;br&gt;Location: 186450 - 183794" locus_tag="MBR_09510" class="clusterblast-orf" id="dummy-1_h1_5_18"  />
</g>
<g id="a1_0019"  >
<polygon points="197,85 202,80 204,80 204,90 202,90 197,85 " style="fill:white; stroke-width:1; stroke:black; " description="&lt;b&gt;MBR_09509&lt;/b&gt;&lt;br&gt;kinesin motor domain containing protein&lt;br&gt;Location: 182989 - 180953" locus_tag="MBR_09509" class="clusterblast-orf" id="dummy-1_h1_5_19"  />
</g>
<g id="a1_0020"  >
<polygon points="207,90 210,85 207,80 207,90 " style="fill:white; stroke-width:1; stroke:black; " description="&lt;b&gt;MBR_09508&lt;/b&gt;&lt;br&gt;hypothetical protein&lt;br&gt;Location: 180031 - 179218" locus_tag="MBR_09508" class="clusterblast-orf" id="dummy-1_h1_5_20"  />
</g>
<g id="a1_0021"  >
<polygon points="210,85 213,80 213,90 210,85 " style="fill:white; stroke-width:1; stroke:black; " description="&lt;b&gt;MBR_09507&lt;/b&gt;&lt;br&gt;hypothetical protein&lt;br&gt;Location: 179155 - 178425" locus_tag="MBR_09507" class="clusterblast-orf" id="dummy-1_h1_5_21"  />
</g>
<g id="a1_0022"  >
<polygon points="220,85 221,80 221,90 220,85 " style="fill:white; stroke-width:1; stroke:black; " description="&lt;b&gt;MBR_09506&lt;/b&gt;&lt;br&gt;hypothetical protein&lt;br&gt;Location: 176584 - 176173" locus_tag="MBR_09506" class="clusterblast-orf" id="dummy-1_h1_5_22"  />
</g>
<g id="a1_0023"  >
<polygon points="223,90 227,85 223,80 223,90 " style="fill:white; stroke-width:1; stroke:black; " description="&lt;b&gt;MBR_09505&lt;/b&gt;&lt;br&gt;hypothetical protein&lt;br&gt;Location: 175552 - 174647" locus_tag="MBR_09505" class="clusterblast-orf" id="dummy-1_h1_5_23"  />
</g>
<g id="a1_0024"  >
<polygon points="236,90 238,85 236,80 236,90 " style="fill:white; stroke-width:1; stroke:black; " description="&lt;b&gt;MBR_09504&lt;/b&gt;&lt;br&gt;2OG-Fe(II) oxygenase&lt;br&gt;Location: 172007 - 171327" locus_tag="MBR_09504" class="clusterblast-orf" id="dummy-1_h1_5_24"  />
</g>
<g id="a1_0025"  >
<polygon points="244,90 247,85 244,80 244,90 " style="fill:white; stroke-width:1; stroke:black; " description="&lt;b&gt;MBR_09503&lt;/b&gt;&lt;br&gt;hypothetical protein&lt;br&gt;Location: 169704 - 168979" locus_tag="MBR_09503" class="clusterblast-orf" id="dummy-1_h1_5_25"  />
</g>
<g id="a1_0026"  >
<polygon points="248,90 248,90 253,85 248,80 248,80 248,90 " style="fill:white; stroke-width:1; stroke:black; " description="&lt;b&gt;MBR_09502&lt;/b&gt;&lt;br&gt;Heat-labile enterotoxin, A chain&lt;br&gt;Location: 168678 - 167314" locus_tag="MBR_09502" class="clusterblast-orf" id="dummy-1_h1_5_26"  />
</g>
<g id="a1_0027"  >
<polygon points="258,90 262,85 258,80 258,90 " style="fill:white; stroke-width:1; stroke:black; " description="&lt;b&gt;MBR_09501&lt;/b&gt;&lt;br&gt;Pregnancy-associated plasma protein-A&lt;br&gt;Location: 165704 - 164676" locus_tag="MBR_09501" class="clusterblast-orf" id="dummy-1_h1_5_27"  />
</g>
<g id="a1_0028"  >
<polygon points="265,85 268,80 268,90 265,85 " style="fill:white; stroke-width:1; stroke:black; " description="&lt;b&gt;MBR_09500&lt;/b&gt;&lt;br&gt;Protein kinase-like domain protein&lt;br&gt;Location: 163751 - 162980" locus_tag="MBR_09500" class="clusterblast-orf" id="dummy-1_h1_5_28"  />
</g>
<g id="a1_0029"  >
<polygon points="275,85 280,80 281,80 281,90 280,90 275,85 " style="fill:white; stroke-width:1; stroke:black; " description="&lt;b&gt;MBR_09499&lt;/b&gt;&lt;br&gt;cyclohexanone monooxygenase&lt;br&gt;Location: 161002 - 159386" locus_tag="MBR_09499" class="clusterblast-orf" id="dummy-1_h1_5_29"  />
</g>
<g id="a1_0030"  >
<polygon points="296,90 297,90 302,85 297,80 296,80 296,90 " style="fill:white; stroke-width:1; stroke:black; " description="&lt;b&gt;MBR_09498&lt;/b&gt;&lt;br&gt;Cytochrome P450&lt;br&gt;Location: 155078 - 153447" locus_tag="MBR_09498" class="clusterblast-orf" id="dummy-1_h1_5_30"  />
</g>
<g id="a1_0031"  >
<polygon points="303,85 308,80 308,80 308,90 308,90 303,85 " style="fill:white; stroke-width:1; stroke:black; " description="&lt;b&gt;MBR_09497&lt;/b&gt;&lt;br&gt;transferase family protein&lt;br&gt;Location: 153235 - 151763" locus_tag="MBR_09497" class="clusterblast-orf" id="dummy-1_h1_5_31"  />
</g>
<g id="a1_0032"  >
<polygon points="311,90 312,90 317,85 312,80 311,80 311,90 " style="fill:white; stroke-width:1; stroke:black; " description="&lt;b&gt;MBR_09496&lt;/b&gt;&lt;br&gt;FAD binding domain-containing protein&lt;br&gt;Location: 150887 - 149148" locus_tag="MBR_09496" class="clusterblast-orf" id="dummy-1_h1_5_32"  />
</g>
<g id="a1_0033"  >
<polygon points="318,85 323,80 324,80 324,90 323,90 318,85 " style="fill:white; stroke-width:1; stroke:black; " description="&lt;b&gt;MBR_09495&lt;/b&gt;&lt;br&gt;transferase family protein&lt;br&gt;Location: 148887 - 147427" locus_tag="MBR_09495" class="clusterblast-orf" id="dummy-1_h1_5_33"  />
</g>
<g id="a1_0034"  >
<polygon points="327,90 327,90 332,85 327,80 327,80 327,90 " style="fill:white; stroke-width:1; stroke:black; " description="&lt;b&gt;MBR_09494&lt;/b&gt;&lt;br&gt;cytochrome P450&lt;br&gt;Location: 146557 - 144971" locus_tag="MBR_09494" class="clusterblast-orf" id="dummy-1_h1_5_34"  />
</g>
<g id="a1_0035"  >
<polygon points="333,85 336,80 336,90 333,85 " style="fill:white; stroke-width:1; stroke:black; " description="&lt;b&gt;MBR_09493&lt;/b&gt;&lt;br&gt;3-oxoacyl-reductase 1&lt;br&gt;Location: 144775 - 143978" locus_tag="MBR_09493" class="clusterblast-orf" id="dummy-1_h1_5_35"  />
</g>
<g id="a1_0036"  >
<polygon points="340,90 343,90 348,85 343,80 340,80 340,90 " style="fill:white; stroke-width:1; stroke:black; " description="&lt;b&gt;MBR_09492&lt;/b&gt;&lt;br&gt;squalene-hopene-cyclase&lt;br&gt;Location: 142972 - 140717" locus_tag="MBR_09492" class="clusterblast-orf" id="dummy-1_h1_5_36"  />
</g>
<g id="a1_0037"  >
<polygon points="352,90 353,90 358,85 353,80 352,80 352,90 " style="fill:white; stroke-width:1; stroke:black; " description="&lt;b&gt;MBR_09491&lt;/b&gt;&lt;br&gt;cytochrome P450&lt;br&gt;Location: 139473 - 137857" locus_tag="MBR_09491" class="clusterblast-orf" id="dummy-1_h1_5_37"  />
</g>
<g id="a1_0038"  >
<polygon points="361,90 362,90 367,85 362,80 361,80 361,90 " style="fill:white; stroke-width:1; stroke:black; " description="&lt;b&gt;MBR_09490&lt;/b&gt;&lt;br&gt;cytochrome P450 4F12&lt;br&gt;Location: 137012 - 135405" locus_tag="MBR_09490" class="clusterblast-orf" id="dummy-1_h1_5_38"  />
</g>
<g id="a1_0039"  >
<polygon points="372,85 377,80 379,80 379,90 377,90 372,85 " style="fill:white; stroke-width:1; stroke:black; " description="&lt;b&gt;MBR_09489&lt;/b&gt;&lt;br&gt;peptide synthetase&lt;br&gt;Location: 133989 - 132033" locus_tag="MBR_09489" class="clusterblast-orf" id="dummy-1_h1_5_39"  />
</g>
<g id="a1_0040"  >
<polygon points="379,85 383,80 383,90 379,85 " style="fill:white; stroke-width:1; stroke:black; " description="&lt;b&gt;MBR_09488&lt;/b&gt;&lt;br&gt;peptide synthetase&lt;br&gt;Location: 131903 - 130805" locus_tag="MBR_09488" class="clusterblast-orf" id="dummy-1_h1_5_40"  />
</g>
<g id="a1_0041"  >
<polygon points="383,85 385,80 385,90 383,85 " style="fill:white; stroke-width:1; stroke:black; " description="&lt;b&gt;MBR_09487&lt;/b&gt;&lt;br&gt;HC-toxin synthetase&lt;br&gt;Location: 130709 - 130254" locus_tag="MBR_09487" class="clusterblast-orf" id="dummy-1_h1_5_41"  />
</g>
<g id="a1_0042"  >
<polygon points="392,90 394,90 399,85 394,80 392,80 392,90 " style="fill:white; stroke-width:1; stroke:black; " description="&lt;b&gt;MBR_09486&lt;/b&gt;&lt;br&gt;Tannase/feruloyl esterase&lt;br&gt;Location: 128318 - 126438" locus_tag="MBR_09486" class="clusterblast-orf" id="dummy-1_h1_5_42"  />
</g>
<g id="a1_0043"  >
<polygon points="403,85 406,80 406,90 403,85 " style="fill:white; stroke-width:1; stroke:black; " description="&lt;b&gt;MBR_09485&lt;/b&gt;&lt;br&gt;hypothetical protein&lt;br&gt;Location: 125249 - 124388" locus_tag="MBR_09485" class="clusterblast-orf" id="dummy-1_h1_5_43"  />
</g>
<g id="a1_0044"  >
<polygon points="410,85 412,80 412,90 410,85 " style="fill:white; stroke-width:1; stroke:black; " description="&lt;b&gt;MBR_09484&lt;/b&gt;&lt;br&gt;hypothetical protein&lt;br&gt;Location: 123118 - 122674" locus_tag="MBR_09484" class="clusterblast-orf" id="dummy-1_h1_5_44"  />
</g>
<g id="a1_0045"  >
<polygon points="424,90 425,85 424,80 424,90 " style="fill:white; stroke-width:1; stroke:black; " description="&lt;b&gt;MBR_09483&lt;/b&gt;&lt;br&gt;hypothetical protein&lt;br&gt;Location: 119275 - 118994" locus_tag="MBR_09483" class="clusterblast-orf" id="dummy-1_h1_5_45"  />
</g>
<g id="a1_0046"  >
<polygon points="430,90 430,90 435,85 430,80 430,80 430,90 " style="fill:white; stroke-width:1; stroke:black; " description="&lt;b&gt;MBR_09482&lt;/b&gt;&lt;br&gt;phosphotransferase enzyme family protein&lt;br&gt;Location: 117621 - 116196" locus_tag="MBR_09482" class="clusterblast-orf" id="dummy-1_h1_5_46"  />
</g>
<g id="a1_0047"  >
<polygon points="438,90 441,85 438,80 438,90 " style="fill:white; stroke-width:1; stroke:black; " description="&lt;b&gt;MBR_09481&lt;/b&gt;&lt;br&gt;hypothetical protein&lt;br&gt;Location: 115366 - 114631" locus_tag="MBR_09481" class="clusterblast-orf" id="dummy-1_h1_5_47"  />
</g>
<g id="a1_0048"  >
<polygon points="443,85 446,80 446,90 443,85 " style="fill:white; stroke-width:1; stroke:black; " description="&lt;b&gt;MBR_09480&lt;/b&gt;&lt;br&gt;farnesyl-diphosphate farnesyltransferase&lt;br&gt;Location: 114034 - 113265" locus_tag="MBR_09480" class="clusterblast-orf" id="dummy-1_h1_5_48"  />
</g>
<g id="a1_0049"  >
<polygon points="451,85 456,80 471,80 471,90 456,90 451,85 " style="fill:white; stroke-width:1; stroke:black; " description="&lt;b&gt;MBR_09479&lt;/b&gt;&lt;br&gt;Beta-ketoacyl synthase&lt;br&gt;Location: 111688 - 106126" locus_tag="MBR_09479" class="clusterblast-orf" id="dummy-1_h1_5_49"  />
</g>
<g id="a1_0050"  >
<polygon points="475,90 479,85 475,80 475,90 " style="fill:white; stroke-width:1; stroke:black; " description="&lt;b&gt;MBR_09478&lt;/b&gt;&lt;br&gt;Beta-lactamase-like protein&lt;br&gt;Location: 105074 - 103998" locus_tag="MBR_09478" class="clusterblast-orf" id="dummy-1_h1_5_50"  />
</g>
<g id="a1_0051"  >
<polygon points="487,85 490,80 490,90 487,85 " style="fill:white; stroke-width:1; stroke:black; " description="&lt;b&gt;MBR_09477&lt;/b&gt;&lt;br&gt;NAD(P)-binding domain protein&lt;br&gt;Location: 101571 - 100777" locus_tag="MBR_09477" class="clusterblast-orf" id="dummy-1_h1_5_51"  />
</g>
<g id="a1_0052"  >
<polygon points="492,90 495,85 492,80 492,90 " style="fill:white; stroke-width:1; stroke:black; " description="&lt;b&gt;MBR_09476&lt;/b&gt;&lt;br&gt;NAD(P)-binding domain protein&lt;br&gt;Location: 100262 - 99288" locus_tag="MBR_09476" class="clusterblast-orf" id="dummy-1_h1_5_52"  />
</g>
<g id="a1_0053"  >
<polygon points="497,85 502,80 505,80 505,90 502,90 497,85 " style="fill:white; stroke-width:1; stroke:black; " description="&lt;b&gt;MBR_09475&lt;/b&gt;&lt;br&gt;HypA&lt;br&gt;Location: 98869 - 96491" locus_tag="MBR_09475" class="clusterblast-orf" id="dummy-1_h1_5_53"  />
</g>
<g id="a1_0054"  >
<polygon points="509,85 514,80 515,80 515,90 514,90 509,85 " style="fill:white; stroke-width:1; stroke:black; " description="&lt;b&gt;MBR_09474&lt;/b&gt;&lt;br&gt;AMP-dependent synthetase/ligase&lt;br&gt;Location: 95580 - 93702" locus_tag="MBR_09474" class="clusterblast-orf" id="dummy-1_h1_5_54"  />
</g>
<g id="a1_0055"  >
<polygon points="517,85 522,80 522,80 522,90 522,90 517,85 " style="fill:white; stroke-width:1; stroke:black; " description="&lt;b&gt;MBR_09473&lt;/b&gt;&lt;br&gt;hypothetical protein&lt;br&gt;Location: 93255 - 91748" locus_tag="MBR_09473" class="clusterblast-orf" id="dummy-1_h1_5_55"  />
</g>
<g id="a1_0056"  >
<polygon points="527,90 527,90 532,85 527,80 527,80 527,90 " style="fill:white; stroke-width:1; stroke:black; " description="&lt;b&gt;MBR_09472&lt;/b&gt;&lt;br&gt;Aflatoxin biosynthesis regulatory protein&lt;br&gt;Location: 90309 - 88939" locus_tag="MBR_09472" class="clusterblast-orf" id="dummy-1_h1_5_56"  />
</g>
<g id="a1_0057"  >
<polygon points="539,85 544,80 545,80 545,90 544,90 539,85 " style="fill:white; stroke-width:1; stroke:black; " description="&lt;b&gt;MBR_09471&lt;/b&gt;&lt;br&gt;Glucose-methanol-choline oxidoreductase&lt;br&gt;Location: 87088 - 85297" locus_tag="MBR_09471" class="clusterblast-orf" id="dummy-1_h1_5_57"  />
</g>
<g id="a1_0058"  >
<polygon points="550,90 553,90 558,85 553,80 550,80 550,90 " style="fill:white; stroke-width:1; stroke:black; " description="&lt;b&gt;MBR_09470&lt;/b&gt;&lt;br&gt;extracellular dihydrogeodin oxidase/laccase&lt;br&gt;Location: 84041 - 81747" locus_tag="MBR_09470" class="clusterblast-orf" id="dummy-1_h1_5_58"  />
</g>
<g id="a1_0059"  >
<polygon points="563,90 565,85 563,80 563,90 " style="fill:white; stroke-width:1; stroke:black; " description="&lt;b&gt;MBR_09469&lt;/b&gt;&lt;br&gt;Glutathione S-transferase&lt;br&gt;Location: 80316 - 79642" locus_tag="MBR_09469" class="clusterblast-orf" id="dummy-1_h1_5_59"  />
</g>
<g id="a1_0060"  >
<polygon points="566,85 568,80 568,90 566,85 " style="fill:white; stroke-width:1; stroke:black; " description="&lt;b&gt;MBR_09468&lt;/b&gt;&lt;br&gt;hypothetical protein&lt;br&gt;Location: 79377 - 78846" locus_tag="MBR_09468" class="clusterblast-orf" id="dummy-1_h1_5_60"  />
</g>
<g id="a1_0061"  >
<polygon points="575,90 576,85 575,80 575,90 " style="fill:white; stroke-width:1; stroke:black; " description="&lt;b&gt;MBR_09467&lt;/b&gt;&lt;br&gt;Kelch repeat protein&lt;br&gt;Location: 76902 - 76609" locus_tag="MBR_09467" class="clusterblast-orf" id="dummy-1_h1_5_61"  />
</g>
<g id="a1_0062"  >
<polygon points="583,85 588,80 589,80 589,90 588,90 583,85 " style="fill:white; stroke-width:1; stroke:black; " description="&lt;b&gt;MBR_09466&lt;/b&gt;&lt;br&gt;glutamyl-tRNA(Gln) amidotransferase, subunit A&lt;br&gt;Location: 74861 - 73076" locus_tag="MBR_09466" class="clusterblast-orf" id="dummy-1_h1_5_62"  />
</g>
<g id="a1_0063"  >
<polygon points="604,85 608,80 608,90 604,85 " style="fill:white; stroke-width:1; stroke:black; " description="&lt;b&gt;MBR_09465&lt;/b&gt;&lt;br&gt;cytochrome P450&lt;br&gt;Location: 68704 - 67665" locus_tag="MBR_09465" class="clusterblast-orf" id="dummy-1_h1_5_63"  />
</g>
<g id="a1_0064"  >
<polygon points="618,90 633,90 638,85 633,80 618,80 618,90 " style="fill:white; stroke-width:1; stroke:black; " description="&lt;b&gt;MBR_09464&lt;/b&gt;&lt;br&gt;HC-toxin synthetase&lt;br&gt;Location: 64842 - 59344" locus_tag="MBR_09464" class="clusterblast-orf" id="dummy-1_h1_5_64"  />
</g>
<g id="a1_0065"  >
<polygon points="644,90 668,90 673,85 668,80 644,80 644,90 " style="fill:white; stroke-width:1; stroke:black; " description="&lt;b&gt;MBR_09463&lt;/b&gt;&lt;br&gt;Beta-ketoacyl synthase&lt;br&gt;Location: 57619 - 49388" locus_tag="MBR_09463" class="clusterblast-orf" id="dummy-1_h1_5_65"  />
</g>
<g id="a1_0066"  >
<polygon points="675,85 680,80 681,80 681,90 680,90 675,85 " style="fill:white; stroke-width:1; stroke:black; " description="&lt;b&gt;MBR_09462&lt;/b&gt;&lt;br&gt;SirP&lt;br&gt;Location: 48859 - 47293" locus_tag="MBR_09462" class="clusterblast-orf" id="dummy-1_h1_5_66"  />
</g>
<g id="a1_0067"  >
<polygon points="682,85 687,80 689,80 689,90 687,90 682,85 " style="fill:white; stroke-width:1; stroke:black; " description="&lt;b&gt;MBR_09461&lt;/b&gt;&lt;br&gt;nonribosomal peptide synthase GliP&lt;br&gt;Location: 46943 - 45105" locus_tag="MBR_09461" class="clusterblast-orf" id="dummy-1_h1_5_67"  />
</g>
<g id="a1_0068"  >
<polygon points="692,85 697,80 697,80 697,90 697,90 692,85 " style="fill:white; stroke-width:1; stroke:black; " description="&lt;b&gt;MBR_09460&lt;/b&gt;&lt;br&gt;nonribosomal peptide synthetase 11&lt;br&gt;Location: 44178 - 42828" locus_tag="MBR_09460" class="clusterblast-orf" id="dummy-1_h1_5_68"  />
</g>
<g id="a1_0069"  >
<polygon points="715,85 718,80 718,90 715,85 " style="fill:white; stroke-width:1; stroke:black; " description="&lt;b&gt;MBR_09459&lt;/b&gt;&lt;br&gt;methyltransferase&lt;br&gt;Location: 37727 - 36876" locus_tag="MBR_09459" class="clusterblast-orf" id="dummy-1_h1_5_69"  />
</g>
<g id="a1_0070"  >
<polygon points="722,85 727,80 727,80 727,90 727,90 722,85 " style="fill:white; stroke-width:1; stroke:black; " description="&lt;b&gt;MBR_09458&lt;/b&gt;&lt;br&gt;delta-12 fatty acid desaturase&lt;br&gt;Location: 35865 - 34366" locus_tag="MBR_09458" class="clusterblast-orf" id="dummy-1_h1_5_70"  />
</g>
<g id="a1_0071"  >
<polygon points="733,90 734,85 733,80 733,90 " style="fill:white; stroke-width:1; stroke:black; " description="&lt;b&gt;MBR_09457&lt;/b&gt;&lt;br&gt;hypothetical protein&lt;br&gt;Location: 32781 - 32405" locus_tag="MBR_09457" class="clusterblast-orf" id="dummy-1_h1_5_71"  />
</g>
<g id="a1_0072"  >
<polygon points="735,85 740,80 741,80 741,90 740,90 735,85 " style="fill:white; stroke-width:1; stroke:black; " description="&lt;b&gt;MBR_09456&lt;/b&gt;&lt;br&gt;L-amino acid oxidase&lt;br&gt;Location: 32260 - 30446" locus_tag="MBR_09456" class="clusterblast-orf" id="dummy-1_h1_5_72"  />
</g>
<g id="a1_0073"  >
<polygon points="744,90 748,85 744,80 744,90 " style="fill:white; stroke-width:1; stroke:black; " description="&lt;b&gt;MBR_09455&lt;/b&gt;&lt;br&gt;macrophomate synthase&lt;br&gt;Location: 29621 - 28573" locus_tag="MBR_09455" class="clusterblast-orf" id="dummy-1_h1_5_73"  />
</g>
<g id="a1_0074"  >
<polygon points="750,90 751,90 756,85 751,80 750,80 750,90 " style="fill:white; stroke-width:1; stroke:black; " description="&lt;b&gt;MBR_09454&lt;/b&gt;&lt;br&gt;CAIB/BAIF family enzyme&lt;br&gt;Location: 28009 - 26198" locus_tag="MBR_09454" class="clusterblast-orf" id="dummy-1_h1_5_74"  />
</g>
<g id="a1_0075"  >
<polygon points="757,85 759,80 759,90 757,85 " style="fill:white; stroke-width:1; stroke:black; " description="&lt;b&gt;MBR_09453&lt;/b&gt;&lt;br&gt;Thioesterase superfamily&lt;br&gt;Location: 26063 - 25466" locus_tag="MBR_09453" class="clusterblast-orf" id="dummy-1_h1_5_75"  />
</g>
<g id="a1_0076"  >
<polygon points="761,90 762,90 767,85 762,80 761,80 761,90 " style="fill:white; stroke-width:1; stroke:black; " description="&lt;b&gt;MBR_09452&lt;/b&gt;&lt;br&gt;Cytochrome P450&lt;br&gt;Location: 24839 - 23066" locus_tag="MBR_09452" class="clusterblast-orf" id="dummy-1_h1_5_76"  />
</g>
<g id="a1_0077"  >
<polygon points="769,85 773,80 773,90 769,85 " style="fill:white; stroke-width:1; stroke:black; " description="&lt;b&gt;MBR_09451&lt;/b&gt;&lt;br&gt;2-nitropropane dioxygenase-like protein&lt;br&gt;Location: 22646 - 21555" locus_tag="MBR_09451" class="clusterblast-orf" id="dummy-1_h1_5_77"  />
</g>
<g id="a1_0078"  >
<polygon points="777,90 780,85 777,80 777,90 " style="fill:white; stroke-width:1; stroke:black; " description="&lt;b&gt;MBR_09450&lt;/b&gt;&lt;br&gt;Fatty acid hydroxylase&lt;br&gt;Location: 20412 - 19654" locus_tag="MBR_09450" class="clusterblast-orf" id="dummy-1_h1_5_78"  />
</g>
</svg>
