<svg xmlns="http://www.w3.org/2000/svg" xmlns:xlink="http://www.w3.org/1999/xlink" version="1.1" x="0" y="0" height="230" width="800" viewBox="0 0 800 230" preserveAspectRatio="none"  >
<g label="Query sequence" class="clusterblast-cluster"  >
<text x="5" y="20" class="clusterblast-acc"  >
Query sequence</text>
<line x1="10" y1="35" x2="778.0" y2="35" style="stroke-width:1; stroke:grey; "  />
<polygon points="0,35 5,30 15,30 15,40 5,40 0,35 " style="fill:#d81515; stroke-width:1; stroke:black; " description="&lt;b&gt;input.path1.gene69&lt;/b&gt;&lt;br&gt;input.path1.gene69&lt;br&gt;Location: 237831 - 239378" locus_tag="input.path1.gene69" class="clusterblast-orf" id="dummy-1_q0_0_all"  />
<polygon points="50,40 59,40 64,35 59,30 50,30 50,40 " style="fill:#77d815; stroke-width:1; stroke:black; " description="&lt;b&gt;input.path1.gene70&lt;/b&gt;&lt;br&gt;input.path1.gene70&lt;br&gt;Location: 242858 - 244254" locus_tag="input.path1.gene70" class="clusterblast-orf" id="dummy-1_q1_0_all"  />
<polygon points="70,35 75,30 83,30 83,40 75,40 70,35 " style="fill:#15d8d8; stroke-width:1; stroke:black; " description="&lt;b&gt;input.path1.gene71&lt;/b&gt;&lt;br&gt;input.path1.gene71&lt;br&gt;Location: 244796 - 246099" locus_tag="input.path1.gene71" class="clusterblast-orf" id="dummy-1_q2_0_all"  />
<polygon points="104,40 106,35 104,30 104,40 " style="fill:#7715d8; stroke-width:1; stroke:black; " description="&lt;b&gt;input.path1.gene72&lt;/b&gt;&lt;br&gt;input.path1.gene72&lt;br&gt;Location: 248217 - 248478" locus_tag="input.path1.gene72" class="clusterblast-orf" id="dummy-1_q3_0_all"  />
<polygon points="114,35 119,30 129,30 129,40 119,40 114,35 " style="fill:#d85e15; stroke-width:1; stroke:black; " description="&lt;b&gt;input.path1.gene73&lt;/b&gt;&lt;br&gt;input.path1.gene73&lt;br&gt;Location: 249252 - 250758" locus_tag="input.path1.gene73" class="clusterblast-orf" id="dummy-1_q4_0_all"  />
<polygon points="138,40 145,40 150,35 145,30 138,30 138,40 " style="fill:#2ed815; stroke-width:1; stroke:black; " description="&lt;b&gt;input.path1.gene74&lt;/b&gt;&lt;br&gt;input.path1.gene74&lt;br&gt;Location: 251646 - 252792" locus_tag="input.path1.gene74" class="clusterblast-orf" id="dummy-1_q5_0_all"  />
<polygon points="152,35 157,30 162,30 162,40 157,40 152,35 " style="fill:#158fd8; stroke-width:1; stroke:black; " description="&lt;b&gt;input.path1.gene75&lt;/b&gt;&lt;br&gt;input.path1.gene75&lt;br&gt;Location: 252982 - 254041" locus_tag="input.path1.gene75" class="clusterblast-orf" id="dummy-1_q6_0_all"  />
<polygon points="171,35 176,30 207,30 207,40 176,40 171,35 " style="fill:#c015d8; stroke-width:1; stroke:black; " description="&lt;b&gt;input.path1.gene76&lt;/b&gt;&lt;br&gt;input.path1.gene76&lt;br&gt;Location: 254909 - 258473" locus_tag="input.path1.gene76" class="clusterblast-orf" id="dummy-1_q7_0_all"  />
<polygon points="217,35 221,30 221,40 217,35 " style="fill:white; stroke-width:1; stroke:black; " description="&lt;b&gt;input.path1.gene77&lt;/b&gt;&lt;br&gt;input.path1.gene77&lt;br&gt;Location: 259462 - 259899" locus_tag="input.path1.gene77" class="clusterblast-orf" id="dummy-1_q8_0_all"  />
<polygon points="292,35 297,30 379,30 379,40 297,40 292,35 " style="fill:#d8a715; stroke-width:1; stroke:black; " description="&lt;b&gt;input.path1.gene78&lt;/b&gt;&lt;br&gt;input.path1.gene78&lt;br&gt;Location: 266947 - 275651" locus_tag="input.path1.gene78" class="clusterblast-orf" id="dummy-1_q9_0_all"  />
<polygon points="398,40 424,40 429,35 424,30 398,30 398,40 " style="fill:#15d846; stroke-width:1; stroke:black; " description="&lt;b&gt;input.path1.gene79&lt;/b&gt;&lt;br&gt;input.path1.gene79&lt;br&gt;Location: 277476 - 280637" locus_tag="input.path1.gene79" class="clusterblast-orf" id="dummy-1_q10_0_all"  />
<polygon points="495,40 502,40 507,35 502,30 495,30 495,40 " style="fill:#1546d8; stroke-width:1; stroke:black; " description="&lt;b&gt;input.path1.gene80&lt;/b&gt;&lt;br&gt;input.path1.gene80&lt;br&gt;Location: 287186 - 288367" locus_tag="input.path1.gene80" class="clusterblast-orf" id="dummy-1_q11_0_all"  />
<polygon points="514,35 519,30 525,30 525,40 519,40 514,35 " style="fill:#d815a7; stroke-width:1; stroke:black; " description="&lt;b&gt;input.path1.gene81&lt;/b&gt;&lt;br&gt;input.path1.gene81&lt;br&gt;Location: 289057 - 290191" locus_tag="input.path1.gene81" class="clusterblast-orf" id="dummy-1_q12_0_all"  />
<polygon points="537,35 542,30 629,30 629,40 542,40 537,35 " style="fill:#c0d815; stroke-width:1; stroke:black; " description="&lt;b&gt;input.path1.gene82&lt;/b&gt;&lt;br&gt;input.path1.gene82&lt;br&gt;Location: 291412 - 300560" locus_tag="input.path1.gene82" class="clusterblast-orf" id="dummy-1_q13_0_all"  />
<polygon points="680,40 696,40 701,35 696,30 680,30 680,40 " style="fill:#15d88f; stroke-width:1; stroke:black; " description="&lt;b&gt;input.path1.gene83&lt;/b&gt;&lt;br&gt;input.path1.gene83&lt;br&gt;Location: 305606 - 307740" locus_tag="input.path1.gene83" class="clusterblast-orf" id="dummy-1_q14_0_all"  />
<polygon points="731,40 740,40 745,35 740,30 731,30 731,40 " style="fill:#2e15d8; stroke-width:1; stroke:black; " description="&lt;b&gt;input.path1.gene84&lt;/b&gt;&lt;br&gt;input.path1.gene84&lt;br&gt;Location: 310745 - 312107" locus_tag="input.path1.gene84" class="clusterblast-orf" id="dummy-1_q15_0_all"  />
<polygon points="757,35 762,30 780,30 780,40 762,40 757,35 " style="fill:#d8155e; stroke-width:1; stroke:black; " description="&lt;b&gt;input.path1.gene85&lt;/b&gt;&lt;br&gt;input.path1.gene85&lt;br&gt;Location: 313288 - 315537" locus_tag="input.path1.gene85" class="clusterblast-orf" id="dummy-1_q16_0_all"  />
</g>
<g label="NW_011942182" description="NW_011942182 (835517-898625): Metarhizium robertsii ARSEF 23 MAA Scf 4, whole... (81% of genes show similarity), NRPS-like" class="clusterblast-cluster"  >
<text x="5" y="70" class="clusterblast-acc"  >
<a xlink:href="https://antismash-db.secondarymetabolites.org/area?record=NW_011942182&amp;start=835517&amp;end=898625" target="_blank">NW_011942182 (835517-898625)</a>: Metarhizium robertsii ARSEF 23 MAA Scf 4, whole... (81% of genes show similarity), NRPS-like</text>
<line x1="10" y1="85" x2="778.0" y2="85" style="stroke-width:1; stroke:grey; "  />
</g>
<g id="a1_000"  >
<polygon points="126,90 144,90 149,85 144,80 126,80 126,90 " style="fill:white; stroke-width:1; stroke:black; " description="&lt;b&gt;MAA_08264&lt;/b&gt;&lt;br&gt;pentafunctional AROM polypeptide&lt;br&gt;Location: 896491 - 894221" locus_tag="MAA_08264" class="clusterblast-orf" id="dummy-1_h1_2_0"  />
</g>
<g id="a1_001"  >
<polygon points="189,90 215,90 220,85 215,80 189,80 189,90 " style="fill:white; stroke-width:1; stroke:black; " description="&lt;b&gt;MAA_08265&lt;/b&gt;&lt;br&gt;N-terminal binuclear Zn cluster-containing/DNA binding domain-containing protein&lt;br&gt;Location: 890199 - 887175" locus_tag="MAA_08265" class="clusterblast-orf" id="dummy-1_h1_2_1"  />
</g>
<g id="a1_002"  >
<polygon points="230,85 235,80 247,80 247,90 235,90 230,85 " style="fill:#d81515; stroke-width:1; stroke:black; " description="&lt;b&gt;MAA_08266&lt;/b&gt;&lt;br&gt;DUF895 domain membrane protein&lt;br&gt;Location: 886155 - 884428&lt;br&gt;&lt;br&gt;&lt;b&gt;BlastP hit with input.path1.gene69&lt;/b&gt;&lt;br&gt;Percentage identity: 99&lt;br&gt;Percentage coverage: 98&lt;br&gt;BLAST bit score: 875&lt;br&gt;E-value: 0.0" locus_tag="MAA_08266" class="clusterblast-orf" id="dummy-1_h1_2_2"  />
</g>
<g id="a1_003"  >
<polygon points="280,90 285,90 290,85 285,80 280,80 280,90 " style="fill:#77d815; stroke-width:1; stroke:black; " description="&lt;b&gt;MAA_08267&lt;/b&gt;&lt;br&gt;Protein kinase, catalytic domain protein&lt;br&gt;Location: 881197 - 880158&lt;br&gt;&lt;br&gt;&lt;b&gt;BlastP hit with input.path1.gene70&lt;/b&gt;&lt;br&gt;Percentage identity: 66&lt;br&gt;Percentage coverage: 139&lt;br&gt;BLAST bit score: 321&lt;br&gt;E-value: 6.62e-110" locus_tag="MAA_08267" class="clusterblast-orf" id="dummy-1_h1_2_3"  />
</g>
<g id="a1_004"  >
<polygon points="306,85 311,80 313,80 313,90 311,90 306,85 " style="fill:#15d8d8; stroke-width:1; stroke:black; " description="&lt;b&gt;MAA_08268&lt;/b&gt;&lt;br&gt;protein bli-3&lt;br&gt;Location: 878519 - 877902&lt;br&gt;&lt;br&gt;&lt;b&gt;BlastP hit with input.path1.gene71&lt;/b&gt;&lt;br&gt;Percentage identity: 99&lt;br&gt;Percentage coverage: 99&lt;br&gt;BLAST bit score: 368&lt;br&gt;E-value: 6.95e-130" locus_tag="MAA_08268" class="clusterblast-orf" id="dummy-1_h1_2_4"  />
</g>
<g id="a1_005"  >
<polygon points="344,85 349,80 359,80 359,90 349,90 344,85 " style="fill:#d85e15; stroke-width:1; stroke:black; " description="&lt;b&gt;MAA_08269&lt;/b&gt;&lt;br&gt;phosphotransferase&lt;br&gt;Location: 874823 - 873318&lt;br&gt;&lt;br&gt;&lt;b&gt;BlastP hit with input.path1.gene73&lt;/b&gt;&lt;br&gt;Percentage identity: 94&lt;br&gt;Percentage coverage: 100&lt;br&gt;BLAST bit score: 983&lt;br&gt;E-value: 0.0" locus_tag="MAA_08269" class="clusterblast-orf" id="dummy-1_h1_2_5"  />
</g>
<g id="a1_006"  >
<polygon points="365,90 374,90 379,85 374,80 365,80 365,90 " style="fill:#2ed815; stroke-width:1; stroke:black; " description="&lt;b&gt;MAA_08270&lt;/b&gt;&lt;br&gt;Protein kinase-like protein&lt;br&gt;Location: 872685 - 871291&lt;br&gt;&lt;br&gt;&lt;b&gt;BlastP hit with input.path1.gene74&lt;/b&gt;&lt;br&gt;Percentage identity: 96&lt;br&gt;Percentage coverage: 100&lt;br&gt;BLAST bit score: 753&lt;br&gt;E-value: 9.73e-275" locus_tag="MAA_08270" class="clusterblast-orf" id="dummy-1_h1_2_6"  />
</g>
<g id="a1_007"  >
<polygon points="381,85 386,80 392,80 392,90 386,90 381,85 " style="fill:#158fd8; stroke-width:1; stroke:black; " description="&lt;b&gt;MAA_08271&lt;/b&gt;&lt;br&gt;Alcohol dehydrogenase superfamily, zinc-type&lt;br&gt;Location: 871101 - 870043&lt;br&gt;&lt;br&gt;&lt;b&gt;BlastP hit with input.path1.gene75&lt;/b&gt;&lt;br&gt;Percentage identity: 95&lt;br&gt;Percentage coverage: 100&lt;br&gt;BLAST bit score: 659&lt;br&gt;E-value: 4.91e-240" locus_tag="MAA_08271" class="clusterblast-orf" id="dummy-1_h1_2_7"  />
</g>
<g id="a1_008"  >
<polygon points="406,85 411,80 437,80 437,90 411,90 406,85 " style="fill:#c015d8; stroke-width:1; stroke:black; " description="&lt;b&gt;MAA_08272&lt;/b&gt;&lt;br&gt;non-ribosomal peptide synthetase&lt;br&gt;Location: 868625 - 865518&lt;br&gt;&lt;br&gt;&lt;b&gt;BlastP hit with input.path1.gene76&lt;/b&gt;&lt;br&gt;Percentage identity: 88&lt;br&gt;Percentage coverage: 106&lt;br&gt;BLAST bit score: 1384&lt;br&gt;E-value: 0.0" locus_tag="MAA_08272" class="clusterblast-orf" id="dummy-1_h1_2_8"  />
</g>
<g id="a1_009"  >
<polygon points="519,85 524,80 606,80 606,90 524,90 519,85 " style="fill:#d8a715; stroke-width:1; stroke:black; " description="&lt;b&gt;MAA_08273&lt;/b&gt;&lt;br&gt;PA14 domain protein&lt;br&gt;Location: 857377 - 848677&lt;br&gt;&lt;br&gt;&lt;b&gt;BlastP hit with input.path1.gene78&lt;/b&gt;&lt;br&gt;Percentage identity: 97&lt;br&gt;Percentage coverage: 100&lt;br&gt;BLAST bit score: 5419&lt;br&gt;E-value: 0.0" locus_tag="MAA_08273" class="clusterblast-orf" id="dummy-1_h1_2_9"  />
</g>
<g id="a1_0010"  >
<polygon points="625,90 648,90 653,85 648,80 625,80 625,90 " style="fill:#15d846; stroke-width:1; stroke:black; " description="&lt;b&gt;MAA_08274&lt;/b&gt;&lt;br&gt;hypothetical protein&lt;br&gt;Location: 846785 - 844004&lt;br&gt;&lt;br&gt;&lt;b&gt;BlastP hit with input.path1.gene79&lt;/b&gt;&lt;br&gt;Percentage identity: 98&lt;br&gt;Percentage coverage: 97&lt;br&gt;BLAST bit score: 1547&lt;br&gt;E-value: 0.0" locus_tag="MAA_08274" class="clusterblast-orf" id="dummy-1_h1_2_10"  />
</g>
</svg>
