<svg xmlns="http://www.w3.org/2000/svg" xmlns:xlink="http://www.w3.org/1999/xlink" version="1.1" x="0" y="0" height="230" width="800" viewBox="0 0 800 230" preserveAspectRatio="none"  >
<g label="Query sequence" class="clusterblast-cluster"  >
<text x="5" y="20" class="clusterblast-acc"  >
Query sequence</text>
<line x1="10" y1="35" x2="778.0" y2="35" style="stroke-width:1; stroke:grey; "  />
<polygon points="152,40 154,40 159,35 154,30 152,30 152,40 " style="fill:#d81515; stroke-width:1; stroke:black; " description="&lt;b&gt;input.path1.gene1&lt;/b&gt;&lt;br&gt;input.path1.gene1&lt;br&gt;Location: 912 - 2380" locus_tag="input.path1.gene1" class="clusterblast-orf" id="dummy-1_q0_0_all"  />
<polygon points="173,35 175,30 175,40 173,35 " style="fill:#6ad815; stroke-width:1; stroke:black; " description="&lt;b&gt;input.path1.gene2&lt;/b&gt;&lt;br&gt;input.path1.gene2&lt;br&gt;Location: 5270 - 5807" locus_tag="input.path1.gene2" class="clusterblast-orf" id="dummy-1_q1_0_all"  />
<polygon points="180,35 185,30 223,30 223,40 185,40 180,35 " style="fill:#15bfd8; stroke-width:1; stroke:black; " description="&lt;b&gt;input.path1.gene3&lt;/b&gt;&lt;br&gt;input.path1.gene3&lt;br&gt;Location: 6736 - 15854" locus_tag="input.path1.gene3" class="clusterblast-orf" id="dummy-1_q2_0_all"  />
<polygon points="227,40 229,40 234,35 229,30 227,30 227,40 " style="fill:#9d15d8; stroke-width:1; stroke:black; " description="&lt;b&gt;input.path1.gene4&lt;/b&gt;&lt;br&gt;input.path1.gene4&lt;br&gt;Location: 16828 - 18242" locus_tag="input.path1.gene4" class="clusterblast-orf" id="dummy-1_q3_0_all"  />
<polygon points="234,35 238,30 238,40 234,35 " style="fill:#d84815; stroke-width:1; stroke:black; " description="&lt;b&gt;input.path1.gene5&lt;/b&gt;&lt;br&gt;input.path1.gene5&lt;br&gt;Location: 18238 - 19199" locus_tag="input.path1.gene5" class="clusterblast-orf" id="dummy-1_q4_0_all"  />
<polygon points="244,40 277,40 282,35 277,30 244,30 244,40 " style="fill:#37d815; stroke-width:1; stroke:black; " description="&lt;b&gt;input.path1.gene6&lt;/b&gt;&lt;br&gt;input.path1.gene6&lt;br&gt;Location: 20504 - 28548" locus_tag="input.path1.gene6" class="clusterblast-orf" id="dummy-1_q5_0_all"  />
<polygon points="309,40 311,40 316,35 311,30 309,30 309,40 " style="fill:#158cd8; stroke-width:1; stroke:black; " description="&lt;b&gt;input.path1.gene7&lt;/b&gt;&lt;br&gt;input.path1.gene7&lt;br&gt;Location: 34241 - 35730" locus_tag="input.path1.gene7" class="clusterblast-orf" id="dummy-1_q6_0_all"  />
<polygon points="320,35 325,30 325,30 325,40 325,40 320,35 " style="fill:#d015d8; stroke-width:1; stroke:black; " description="&lt;b&gt;input.path1.gene8&lt;/b&gt;&lt;br&gt;input.path1.gene8&lt;br&gt;Location: 36645 - 37714" locus_tag="input.path1.gene8" class="clusterblast-orf" id="dummy-1_q7_0_all"  />
<polygon points="328,40 332,40 337,35 332,30 328,30 328,40 " style="fill:#d87b15; stroke-width:1; stroke:black; " description="&lt;b&gt;input.path1.gene9&lt;/b&gt;&lt;br&gt;input.path1.gene9&lt;br&gt;Location: 38171 - 40088" locus_tag="input.path1.gene9" class="clusterblast-orf" id="dummy-1_q8_0_all"  />
<polygon points="337,35 342,30 346,30 346,40 342,40 337,35 " style="fill:#15d826; stroke-width:1; stroke:black; " description="&lt;b&gt;input.path1.gene10&lt;/b&gt;&lt;br&gt;input.path1.gene10&lt;br&gt;Location: 40222 - 41995" locus_tag="input.path1.gene10" class="clusterblast-orf" id="dummy-1_q9_0_all"  />
<polygon points="352,35 356,30 356,40 352,35 " style="fill:#1559d8; stroke-width:1; stroke:black; " description="&lt;b&gt;input.path1.gene11&lt;/b&gt;&lt;br&gt;input.path1.gene11&lt;br&gt;Location: 43277 - 44150" locus_tag="input.path1.gene11" class="clusterblast-orf" id="dummy-1_q10_0_all"  />
<polygon points="375,35 380,30 385,30 385,40 380,40 375,35 " style="fill:#d815ae; stroke-width:1; stroke:black; " description="&lt;b&gt;input.path1.gene12&lt;/b&gt;&lt;br&gt;input.path1.gene12&lt;br&gt;Location: 48191 - 50403" locus_tag="input.path1.gene12" class="clusterblast-orf" id="dummy-1_q11_0_all"  />
<polygon points="394,40 398,35 394,30 394,40 " style="fill:#d8ae15; stroke-width:1; stroke:black; " description="&lt;b&gt;input.path1.gene13&lt;/b&gt;&lt;br&gt;input.path1.gene13&lt;br&gt;Location: 52189 - 53116" locus_tag="input.path1.gene13" class="clusterblast-orf" id="dummy-1_q12_0_all"  />
<polygon points="408,35 413,30 413,30 413,40 413,40 408,35 " style="fill:#15d859; stroke-width:1; stroke:black; " description="&lt;b&gt;input.path1.gene14&lt;/b&gt;&lt;br&gt;input.path1.gene14&lt;br&gt;Location: 55241 - 56354" locus_tag="input.path1.gene14" class="clusterblast-orf" id="dummy-1_q13_0_all"  />
<polygon points="414,40 420,40 425,35 420,30 414,30 414,40 " style="fill:#1526d8; stroke-width:1; stroke:black; " description="&lt;b&gt;input.path1.gene15&lt;/b&gt;&lt;br&gt;input.path1.gene15&lt;br&gt;Location: 56435 - 58841" locus_tag="input.path1.gene15" class="clusterblast-orf" id="dummy-1_q14_0_all"  />
<polygon points="428,35 433,30 465,30 465,40 433,40 428,35 " style="fill:#37d815; stroke-width:1; stroke:black; " description="&lt;b&gt;input.path1.gene16&lt;/b&gt;&lt;br&gt;input.path1.gene16&lt;br&gt;Location: 59566 - 67414" locus_tag="input.path1.gene16" class="clusterblast-orf" id="dummy-1_q15_0_all"  />
<polygon points="469,40 470,40 475,35 470,30 469,30 469,40 " style="fill:#d8157b; stroke-width:1; stroke:black; " description="&lt;b&gt;input.path1.gene17&lt;/b&gt;&lt;br&gt;input.path1.gene17&lt;br&gt;Location: 68169 - 69480" locus_tag="input.path1.gene17" class="clusterblast-orf" id="dummy-1_q16_0_all"  />
<polygon points="486,40 488,40 493,35 488,30 486,30 486,40 " style="fill:#d0d815; stroke-width:1; stroke:black; " description="&lt;b&gt;input.path1.gene18&lt;/b&gt;&lt;br&gt;input.path1.gene18&lt;br&gt;Location: 71884 - 73210" locus_tag="input.path1.gene18" class="clusterblast-orf" id="dummy-1_q17_0_all"  />
<polygon points="497,40 503,40 508,35 503,30 497,30 497,40 " style="fill:#d0d815; stroke-width:1; stroke:black; " description="&lt;b&gt;input.path1.gene19&lt;/b&gt;&lt;br&gt;input.path1.gene19&lt;br&gt;Location: 74187 - 76509" locus_tag="input.path1.gene19" class="clusterblast-orf" id="dummy-1_q18_0_all"  />
<polygon points="520,40 536,40 541,35 536,30 520,30 520,40 " style="fill:#d8157b; stroke-width:1; stroke:black; " description="&lt;b&gt;input.path1.gene20&lt;/b&gt;&lt;br&gt;input.path1.gene20&lt;br&gt;Location: 79061 - 83458" locus_tag="input.path1.gene20" class="clusterblast-orf" id="dummy-1_q19_0_all"  />
<polygon points="551,35 554,30 554,40 551,35 " style="fill:white; stroke-width:1; stroke:black; " description="&lt;b&gt;input.path1.gene21&lt;/b&gt;&lt;br&gt;input.path1.gene21&lt;br&gt;Location: 85550 - 86168" locus_tag="input.path1.gene21" class="clusterblast-orf" id="dummy-1_q20_0_all"  />
<polygon points="562,40 564,35 562,30 562,40 " style="fill:#15d88c; stroke-width:1; stroke:black; " description="&lt;b&gt;input.path1.gene22&lt;/b&gt;&lt;br&gt;input.path1.gene22&lt;br&gt;Location: 87897 - 88316" locus_tag="input.path1.gene22" class="clusterblast-orf" id="dummy-1_q21_0_all"  />
<polygon points="572,40 573,35 572,30 572,40 " style="fill:#3715d8; stroke-width:1; stroke:black; " description="&lt;b&gt;input.path1.gene23&lt;/b&gt;&lt;br&gt;input.path1.gene23&lt;br&gt;Location: 90104 - 90275" locus_tag="input.path1.gene23" class="clusterblast-orf" id="dummy-1_q22_0_all"  />
<polygon points="581,35 586,30 586,30 586,40 586,40 581,35 " style="fill:#d81548; stroke-width:1; stroke:black; " description="&lt;b&gt;input.path1.gene24&lt;/b&gt;&lt;br&gt;input.path1.gene24&lt;br&gt;Location: 91946 - 93146" locus_tag="input.path1.gene24" class="clusterblast-orf" id="dummy-1_q23_0_all"  />
<polygon points="596,35 598,30 598,40 596,35 " style="fill:#9dd815; stroke-width:1; stroke:black; " description="&lt;b&gt;input.path1.gene25&lt;/b&gt;&lt;br&gt;input.path1.gene25&lt;br&gt;Location: 95284 - 95619" locus_tag="input.path1.gene25" class="clusterblast-orf" id="dummy-1_q24_0_all"  />
<polygon points="605,40 608,35 605,30 605,40 " style="fill:white; stroke-width:1; stroke:black; " description="&lt;b&gt;input.path1.gene26&lt;/b&gt;&lt;br&gt;input.path1.gene26&lt;br&gt;Location: 97118 - 97673" locus_tag="input.path1.gene26" class="clusterblast-orf" id="dummy-1_q25_0_all"  />
<polygon points="610,40 613,40 618,35 613,30 610,30 610,40 " style="fill:#15d8bf; stroke-width:1; stroke:black; " description="&lt;b&gt;input.path1.gene27&lt;/b&gt;&lt;br&gt;input.path1.gene27&lt;br&gt;Location: 98267 - 99892" locus_tag="input.path1.gene27" class="clusterblast-orf" id="dummy-1_q26_0_all"  />
<polygon points="619,35 624,30 627,30 627,40 624,40 619,35 " style="fill:#6a15d8; stroke-width:1; stroke:black; " description="&lt;b&gt;input.path1.gene28&lt;/b&gt;&lt;br&gt;input.path1.gene28&lt;br&gt;Location: 100018 - 101750" locus_tag="input.path1.gene28" class="clusterblast-orf" id="dummy-1_q27_0_all"  />
</g>
<g label="NC_072353" description="NC_072353 (16172-184976): Talaromyces marneffei chromosome 6, complete sequence (9% of genes show similarity), T1PKS,fungal-RiPP-like" class="clusterblast-cluster"  >
<text x="5" y="70" class="clusterblast-acc"  >
<a xlink:href="https://antismash-db.secondarymetabolites.org/area?record=NC_072353&amp;start=16172&amp;end=184976" target="_blank">NC_072353 (16172-184976)</a>: Talaromyces marneffei chromosome 6, complete sequence (9% of genes show similarity), T1PKS,fungal-RiPP-like</text>
<line x1="10" y1="85" x2="778.0" y2="85" style="stroke-width:1; stroke:grey; "  />
</g>
<g id="a1_000"  >
<polygon points="0,85 5,80 5,80 5,90 5,90 0,85 " style="fill:white; stroke-width:1; stroke:black; " description="&lt;b&gt;EYB26_007572&lt;/b&gt;&lt;br&gt;uncharacterized protein&lt;br&gt;Location: 184244 - 183155" locus_tag="EYB26_007572" class="clusterblast-orf" id="dummy-1_h1_7_0"  />
</g>
<g id="a1_001"  >
<polygon points="7,90 11,90 16,85 11,80 7,80 7,90 " style="fill:white; stroke-width:1; stroke:black; " description="&lt;b&gt;EYB26_007571&lt;/b&gt;&lt;br&gt;uncharacterized protein&lt;br&gt;Location: 182693 - 180770" locus_tag="EYB26_007571" class="clusterblast-orf" id="dummy-1_h1_7_1"  />
</g>
<g id="a1_002"  >
<polygon points="18,90 22,85 18,80 18,90 " style="fill:white; stroke-width:1; stroke:black; " description="&lt;b&gt;EYB26_007570&lt;/b&gt;&lt;br&gt;uncharacterized protein&lt;br&gt;Location: 180237 - 179472" locus_tag="EYB26_007570" class="clusterblast-orf" id="dummy-1_h1_7_2"  />
</g>
<g id="a1_003"  >
<polygon points="23,85 28,80 32,80 32,90 28,90 23,85 " style="fill:white; stroke-width:1; stroke:black; " description="&lt;b&gt;EYB26_007569&lt;/b&gt;&lt;br&gt;uncharacterized protein&lt;br&gt;Location: 179281 - 177356" locus_tag="EYB26_007569" class="clusterblast-orf" id="dummy-1_h1_7_3"  />
</g>
<g id="a1_004"  >
<polygon points="37,85 42,80 42,80 42,90 42,90 37,85 " style="fill:white; stroke-width:1; stroke:black; " description="&lt;b&gt;EYB26_007568&lt;/b&gt;&lt;br&gt;uncharacterized protein&lt;br&gt;Location: 176356 - 175211" locus_tag="EYB26_007568" class="clusterblast-orf" id="dummy-1_h1_7_4"  />
</g>
<g id="a1_005"  >
<polygon points="51,90 54,85 51,80 51,90 " style="fill:white; stroke-width:1; stroke:black; " description="&lt;b&gt;EYB26_007567&lt;/b&gt;&lt;br&gt;uncharacterized protein&lt;br&gt;Location: 173362 - 172631" locus_tag="EYB26_007567" class="clusterblast-orf" id="dummy-1_h1_7_5"  />
</g>
<g id="a1_006"  >
<polygon points="64,90 64,90 69,85 64,80 64,80 64,90 " style="fill:white; stroke-width:1; stroke:black; " description="&lt;b&gt;EYB26_007566&lt;/b&gt;&lt;br&gt;uncharacterized protein&lt;br&gt;Location: 170578 - 169459" locus_tag="EYB26_007566" class="clusterblast-orf" id="dummy-1_h1_7_6"  />
</g>
<g id="a1_007"  >
<polygon points="73,85 78,80 82,80 82,90 78,90 73,85 " style="fill:white; stroke-width:1; stroke:black; " description="&lt;b&gt;EYB26_007565&lt;/b&gt;&lt;br&gt;uncharacterized protein&lt;br&gt;Location: 168641 - 166628" locus_tag="EYB26_007565" class="clusterblast-orf" id="dummy-1_h1_7_7"  />
</g>
<g id="a1_008"  >
<polygon points="98,90 101,90 106,85 101,80 98,80 98,90 " style="fill:white; stroke-width:1; stroke:black; " description="&lt;b&gt;EYB26_007564&lt;/b&gt;&lt;br&gt;uncharacterized protein&lt;br&gt;Location: 163363 - 161612" locus_tag="EYB26_007564" class="clusterblast-orf" id="dummy-1_h1_7_8"  />
</g>
<g id="a1_009"  >
<polygon points="108,85 113,80 118,80 118,90 113,90 108,85 " style="fill:white; stroke-width:1; stroke:black; " description="&lt;b&gt;EYB26_007563&lt;/b&gt;&lt;br&gt;uncharacterized protein&lt;br&gt;Location: 161220 - 159033" locus_tag="EYB26_007563" class="clusterblast-orf" id="dummy-1_h1_7_9"  />
</g>
<g id="a1_0010"  >
<polygon points="125,85 130,80 131,80 131,90 130,90 125,85 " style="fill:white; stroke-width:1; stroke:black; " description="&lt;b&gt;EYB26_007562&lt;/b&gt;&lt;br&gt;uncharacterized protein&lt;br&gt;Location: 157584 - 156394" locus_tag="EYB26_007562" class="clusterblast-orf" id="dummy-1_h1_7_10"  />
</g>
<g id="a1_0011"  >
<polygon points="153,90 153,90 158,85 153,80 153,80 153,90 " style="fill:white; stroke-width:1; stroke:black; " description="&lt;b&gt;EYB26_007561&lt;/b&gt;&lt;br&gt;uncharacterized protein&lt;br&gt;Location: 151603 - 150533" locus_tag="EYB26_007561" class="clusterblast-orf" id="dummy-1_h1_7_11"  />
</g>
<g id="a1_0012"  >
<polygon points="174,90 177,90 182,85 177,80 174,80 174,90 " style="fill:white; stroke-width:1; stroke:black; " description="&lt;b&gt;EYB26_007560&lt;/b&gt;&lt;br&gt;uncharacterized protein&lt;br&gt;Location: 147153 - 145451" locus_tag="EYB26_007560" class="clusterblast-orf" id="dummy-1_h1_7_12"  />
</g>
<g id="a1_0013"  >
<polygon points="193,90 195,85 193,80 193,90 " style="fill:white; stroke-width:1; stroke:black; " description="&lt;b&gt;EYB26_007559&lt;/b&gt;&lt;br&gt;uncharacterized protein&lt;br&gt;Location: 143169 - 142753" locus_tag="EYB26_007559" class="clusterblast-orf" id="dummy-1_h1_7_13"  />
</g>
<g id="a1_0014"  >
<polygon points="204,90 207,85 204,80 204,90 " style="fill:white; stroke-width:1; stroke:black; " description="&lt;b&gt;EYB26_007558&lt;/b&gt;&lt;br&gt;uncharacterized protein&lt;br&gt;Location: 140906 - 140061" locus_tag="EYB26_007558" class="clusterblast-orf" id="dummy-1_h1_7_14"  />
</g>
<g id="a1_0015"  >
<polygon points="208,85 213,80 213,80 213,90 213,90 208,85 " style="fill:white; stroke-width:1; stroke:black; " description="&lt;b&gt;EYB26_007557&lt;/b&gt;&lt;br&gt;uncharacterized protein&lt;br&gt;Location: 139976 - 138931" locus_tag="EYB26_007557" class="clusterblast-orf" id="dummy-1_h1_7_15"  />
</g>
<g id="a1_0016"  >
<polygon points="216,85 221,80 221,80 221,90 221,90 216,85 " style="fill:white; stroke-width:1; stroke:black; " description="&lt;b&gt;EYB26_007556&lt;/b&gt;&lt;br&gt;uncharacterized protein&lt;br&gt;Location: 138191 - 137219" locus_tag="EYB26_007556" class="clusterblast-orf" id="dummy-1_h1_7_16"  />
</g>
<g id="a1_0017"  >
<polygon points="226,90 229,90 234,85 229,80 226,80 226,90 " style="fill:white; stroke-width:1; stroke:black; " description="&lt;b&gt;EYB26_007555&lt;/b&gt;&lt;br&gt;uncharacterized protein&lt;br&gt;Location: 136189 - 134382" locus_tag="EYB26_007555" class="clusterblast-orf" id="dummy-1_h1_7_17"  />
</g>
<g id="a1_0018"  >
<polygon points="236,85 240,80 240,90 236,85 " style="fill:white; stroke-width:1; stroke:black; " description="&lt;b&gt;EYB26_007554&lt;/b&gt;&lt;br&gt;uncharacterized protein&lt;br&gt;Location: 133955 - 133167" locus_tag="EYB26_007554" class="clusterblast-orf" id="dummy-1_h1_7_18"  />
</g>
<g id="a1_0019"  >
<polygon points="245,85 250,80 252,80 252,90 250,90 245,85 " style="fill:white; stroke-width:1; stroke:black; " description="&lt;b&gt;EYB26_007553&lt;/b&gt;&lt;br&gt;uncharacterized protein&lt;br&gt;Location: 132056 - 130614" locus_tag="EYB26_007553" class="clusterblast-orf" id="dummy-1_h1_7_19"  />
</g>
<g id="a1_0020"  >
<polygon points="268,90 272,85 268,80 268,90 " style="fill:white; stroke-width:1; stroke:black; " description="&lt;b&gt;EYB26_007552&lt;/b&gt;&lt;br&gt;uncharacterized protein&lt;br&gt;Location: 127279 - 126386" locus_tag="EYB26_007552" class="clusterblast-orf" id="dummy-1_h1_7_20"  />
</g>
<g id="a1_0021"  >
<polygon points="283,90 292,90 297,85 292,80 283,80 283,90 " style="fill:white; stroke-width:1; stroke:black; " description="&lt;b&gt;EYB26_007551&lt;/b&gt;&lt;br&gt;uncharacterized protein&lt;br&gt;Location: 124036 - 121013" locus_tag="EYB26_007551" class="clusterblast-orf" id="dummy-1_h1_7_21"  />
</g>
<g id="a1_0022"  >
<polygon points="298,90 302,90 307,85 302,80 298,80 298,90 " style="fill:white; stroke-width:1; stroke:black; " description="&lt;b&gt;EYB26_007550&lt;/b&gt;&lt;br&gt;uncharacterized protein&lt;br&gt;Location: 120839 - 118866" locus_tag="EYB26_007550" class="clusterblast-orf" id="dummy-1_h1_7_22"  />
</g>
<g id="a1_0023"  >
<polygon points="324,85 329,80 333,80 333,90 329,90 324,85 " style="fill:white; stroke-width:1; stroke:black; " description="&lt;b&gt;EYB26_007549&lt;/b&gt;&lt;br&gt;uncharacterized protein&lt;br&gt;Location: 115202 - 113289" locus_tag="EYB26_007549" class="clusterblast-orf" id="dummy-1_h1_7_23"  />
</g>
<g id="a1_0024"  >
<polygon points="346,85 350,80 350,90 346,85 " style="fill:white; stroke-width:1; stroke:black; " description="&lt;b&gt;EYB26_007548&lt;/b&gt;&lt;br&gt;uncharacterized protein&lt;br&gt;Location: 110565 - 109711" locus_tag="EYB26_007548" class="clusterblast-orf" id="dummy-1_h1_7_24"  />
</g>
<g id="a1_0025"  >
<polygon points="356,90 356,90 361,85 356,80 356,80 356,90 " style="fill:white; stroke-width:1; stroke:black; " description="&lt;b&gt;EYB26_007547&lt;/b&gt;&lt;br&gt;uncharacterized protein&lt;br&gt;Location: 108605 - 107436" locus_tag="EYB26_007547" class="clusterblast-orf" id="dummy-1_h1_7_25"  />
</g>
<g id="a1_0026"  >
<polygon points="371,90 371,90 376,85 371,80 371,80 371,90 " style="fill:white; stroke-width:1; stroke:black; " description="&lt;b&gt;EYB26_007546&lt;/b&gt;&lt;br&gt;uncharacterized protein&lt;br&gt;Location: 105236 - 104175" locus_tag="EYB26_007546" class="clusterblast-orf" id="dummy-1_h1_7_26"  />
</g>
<g id="a1_0027"  >
<polygon points="377,85 382,80 393,80 393,90 382,90 377,85 " style="fill:#15bfd8; stroke-width:1; stroke:black; " description="&lt;b&gt;EYB26_007545&lt;/b&gt;&lt;br&gt;uncharacterized protein&lt;br&gt;Location: 103966 - 100737&lt;br&gt;&lt;br&gt;&lt;b&gt;BlastP hit with input.path1.gene3&lt;/b&gt;&lt;br&gt;Percentage identity: 45&lt;br&gt;Percentage coverage: 16&lt;br&gt;BLAST bit score: 314&lt;br&gt;E-value: 1.38e-87" locus_tag="EYB26_007545" class="clusterblast-orf" id="dummy-1_h1_7_27"  />
</g>
<g id="a1_0028"  >
<polygon points="395,85 400,80 404,80 404,90 400,90 395,85 " style="fill:white; stroke-width:1; stroke:black; " description="&lt;b&gt;EYB26_007544&lt;/b&gt;&lt;br&gt;uncharacterized protein&lt;br&gt;Location: 100126 - 98232" locus_tag="EYB26_007544" class="clusterblast-orf" id="dummy-1_h1_7_28"  />
</g>
<g id="a1_0029"  >
<polygon points="407,85 412,80 416,80 416,90 412,90 407,85 " style="fill:white; stroke-width:1; stroke:black; " description="&lt;b&gt;EYB26_007543&lt;/b&gt;&lt;br&gt;uncharacterized protein&lt;br&gt;Location: 97761 - 95773" locus_tag="EYB26_007543" class="clusterblast-orf" id="dummy-1_h1_7_29"  />
</g>
<g id="a1_0030"  >
<polygon points="420,90 421,90 426,85 421,80 420,80 420,90 " style="fill:white; stroke-width:1; stroke:black; " description="&lt;b&gt;EYB26_007542&lt;/b&gt;&lt;br&gt;uncharacterized protein&lt;br&gt;Location: 94918 - 93607" locus_tag="EYB26_007542" class="clusterblast-orf" id="dummy-1_h1_7_30"  />
</g>
<g id="a1_0031"  >
<polygon points="434,90 435,90 440,85 435,80 434,80 434,90 " style="fill:white; stroke-width:1; stroke:black; " description="&lt;b&gt;EYB26_007541&lt;/b&gt;&lt;br&gt;uncharacterized protein&lt;br&gt;Location: 91996 - 90659" locus_tag="EYB26_007541" class="clusterblast-orf" id="dummy-1_h1_7_31"  />
</g>
<g id="a1_0032"  >
<polygon points="442,85 447,80 451,80 451,90 447,90 442,85 " style="fill:white; stroke-width:1; stroke:black; " description="&lt;b&gt;EYB26_007540&lt;/b&gt;&lt;br&gt;uncharacterized protein&lt;br&gt;Location: 90300 - 88255" locus_tag="EYB26_007540" class="clusterblast-orf" id="dummy-1_h1_7_32"  />
</g>
<g id="a1_0033"  >
<polygon points="457,90 457,90 462,85 457,80 457,80 457,90 " style="fill:white; stroke-width:1; stroke:black; " description="&lt;b&gt;EYB26_007539&lt;/b&gt;&lt;br&gt;uncharacterized protein&lt;br&gt;Location: 86989 - 86006" locus_tag="EYB26_007539" class="clusterblast-orf" id="dummy-1_h1_7_33"  />
</g>
<g id="a1_0034"  >
<polygon points="465,85 468,80 468,90 465,85 " style="fill:white; stroke-width:1; stroke:black; " description="&lt;b&gt;EYB26_007538&lt;/b&gt;&lt;br&gt;uncharacterized protein&lt;br&gt;Location: 85417 - 84627" locus_tag="EYB26_007538" class="clusterblast-orf" id="dummy-1_h1_7_34"  />
</g>
<g id="a1_0035"  >
<polygon points="471,85 472,80 472,90 471,85 " style="fill:white; stroke-width:1; stroke:black; " description="&lt;b&gt;EYB26_007537&lt;/b&gt;&lt;br&gt;uncharacterized protein&lt;br&gt;Location: 84131 - 83790" locus_tag="EYB26_007537" class="clusterblast-orf" id="dummy-1_h1_7_35"  />
</g>
<g id="a1_0036"  >
<polygon points="478,85 480,80 480,90 478,85 " style="fill:white; stroke-width:1; stroke:black; " description="&lt;b&gt;EYB26_007536&lt;/b&gt;&lt;br&gt;uncharacterized protein&lt;br&gt;Location: 82610 - 82272" locus_tag="EYB26_007536" class="clusterblast-orf" id="dummy-1_h1_7_36"  />
</g>
<g id="a1_0037"  >
<polygon points="493,90 494,90 499,85 494,80 493,80 493,90 " style="fill:white; stroke-width:1; stroke:black; " description="&lt;b&gt;EYB26_007535&lt;/b&gt;&lt;br&gt;uncharacterized protein&lt;br&gt;Location: 79331 - 78147" locus_tag="EYB26_007535" class="clusterblast-orf" id="dummy-1_h1_7_37"  />
</g>
<g id="a1_0038"  >
<polygon points="519,90 521,85 519,80 519,90 " style="fill:white; stroke-width:1; stroke:black; " description="&lt;b&gt;EYB26_007534&lt;/b&gt;&lt;br&gt;uncharacterized protein&lt;br&gt;Location: 73930 - 73469" locus_tag="EYB26_007534" class="clusterblast-orf" id="dummy-1_h1_7_38"  />
</g>
<g id="a1_0039"  >
<polygon points="544,85 549,80 579,80 579,90 549,90 544,85 " style="fill:#37d815; stroke-width:1; stroke:black; " description="&lt;b&gt;EYB26_007533&lt;/b&gt;&lt;br&gt;uncharacterized protein&lt;br&gt;Location: 68600 - 61140&lt;br&gt;&lt;br&gt;&lt;b&gt;BlastP hit with input.path1.gene6&lt;/b&gt;&lt;br&gt;Percentage identity: 32&lt;br&gt;Percentage coverage: 101&lt;br&gt;BLAST bit score: 1152&lt;br&gt;E-value: 0.0&lt;br&gt;&lt;br&gt;&lt;b&gt;BlastP hit with input.path1.gene16&lt;/b&gt;&lt;br&gt;Percentage identity: 45&lt;br&gt;Percentage coverage: 102&lt;br&gt;BLAST bit score: 1888&lt;br&gt;E-value: 0.0" locus_tag="EYB26_007533" class="clusterblast-orf" id="dummy-1_h1_7_39"  />
</g>
<g id="a1_0040"  >
<polygon points="583,90 584,90 589,85 584,80 583,80 583,90 " style="fill:#d8157b; stroke-width:1; stroke:black; " description="&lt;b&gt;EYB26_007532&lt;/b&gt;&lt;br&gt;uncharacterized protein&lt;br&gt;Location: 60316 - 59006&lt;br&gt;&lt;br&gt;&lt;b&gt;BlastP hit with input.path1.gene17&lt;/b&gt;&lt;br&gt;Percentage identity: 43&lt;br&gt;Percentage coverage: 103&lt;br&gt;BLAST bit score: 287&lt;br&gt;E-value: 7.97e-93" locus_tag="EYB26_007532" class="clusterblast-orf" id="dummy-1_h1_7_40"  />
</g>
<g id="a1_0041"  >
<polygon points="591,85 596,80 598,80 598,90 596,90 591,85 " style="fill:white; stroke-width:1; stroke:black; " description="&lt;b&gt;EYB26_007531&lt;/b&gt;&lt;br&gt;uncharacterized protein&lt;br&gt;Location: 58582 - 57134" locus_tag="EYB26_007531" class="clusterblast-orf" id="dummy-1_h1_7_41"  />
</g>
<g id="a1_0042"  >
<polygon points="600,90 604,85 600,80 600,90 " style="fill:white; stroke-width:1; stroke:black; " description="&lt;b&gt;EYB26_007530&lt;/b&gt;&lt;br&gt;uncharacterized protein&lt;br&gt;Location: 56577 - 55897" locus_tag="EYB26_007530" class="clusterblast-orf" id="dummy-1_h1_7_42"  />
</g>
<g id="a1_0043"  >
<polygon points="606,85 611,80 615,80 615,90 611,90 606,85 " style="fill:#d0d815; stroke-width:1; stroke:black; " description="&lt;b&gt;EYB26_007529&lt;/b&gt;&lt;br&gt;uncharacterized protein&lt;br&gt;Location: 55301 - 53402&lt;br&gt;&lt;br&gt;&lt;b&gt;BlastP hit with input.path1.gene19&lt;/b&gt;&lt;br&gt;Percentage identity: 44&lt;br&gt;Percentage coverage: 92&lt;br&gt;BLAST bit score: 311&lt;br&gt;E-value: 3.17e-100" locus_tag="EYB26_007529" class="clusterblast-orf" id="dummy-1_h1_7_43"  />
</g>
<g id="a1_0044"  >
<polygon points="620,90 644,90 649,85 644,80 620,80 620,90 " style="fill:#d8157b; stroke-width:1; stroke:black; " description="&lt;b&gt;EYB26_007528&lt;/b&gt;&lt;br&gt;uncharacterized protein&lt;br&gt;Location: 52482 - 46173&lt;br&gt;&lt;br&gt;&lt;b&gt;BlastP hit with input.path1.gene20&lt;/b&gt;&lt;br&gt;Percentage identity: 42&lt;br&gt;Percentage coverage: 105&lt;br&gt;BLAST bit score: 991&lt;br&gt;E-value: 0.0" locus_tag="EYB26_007528" class="clusterblast-orf" id="dummy-1_h1_7_44"  />
</g>
<g id="a1_0045"  >
<polygon points="656,90 661,90 666,85 661,80 656,80 656,90 " style="fill:white; stroke-width:1; stroke:black; " description="&lt;b&gt;EYB26_007527&lt;/b&gt;&lt;br&gt;uncharacterized protein&lt;br&gt;Location: 44728 - 42686" locus_tag="EYB26_007527" class="clusterblast-orf" id="dummy-1_h1_7_45"  />
</g>
<g id="a1_0046"  >
<polygon points="668,85 673,80 678,80 678,90 673,90 668,85 " style="fill:white; stroke-width:1; stroke:black; " description="&lt;b&gt;EYB26_007526&lt;/b&gt;&lt;br&gt;uncharacterized protein&lt;br&gt;Location: 42328 - 40185" locus_tag="EYB26_007526" class="clusterblast-orf" id="dummy-1_h1_7_46"  />
</g>
<g id="a1_0047"  >
<polygon points="679,90 683,90 688,85 683,80 679,80 679,90 " style="fill:white; stroke-width:1; stroke:black; " description="&lt;b&gt;EYB26_007525&lt;/b&gt;&lt;br&gt;uncharacterized protein&lt;br&gt;Location: 39817 - 37947" locus_tag="EYB26_007525" class="clusterblast-orf" id="dummy-1_h1_7_47"  />
</g>
<g id="a1_0048"  >
<polygon points="692,85 697,80 698,80 698,90 697,90 692,85 " style="fill:white; stroke-width:1; stroke:black; " description="&lt;b&gt;EYB26_007524&lt;/b&gt;&lt;br&gt;uncharacterized protein&lt;br&gt;Location: 37113 - 35956" locus_tag="EYB26_007524" class="clusterblast-orf" id="dummy-1_h1_7_48"  />
</g>
<g id="a1_0049"  >
<polygon points="716,85 720,80 720,90 716,85 " style="fill:white; stroke-width:1; stroke:black; " description="&lt;b&gt;EYB26_007523&lt;/b&gt;&lt;br&gt;uncharacterized protein&lt;br&gt;Location: 31934 - 31077" locus_tag="EYB26_007523" class="clusterblast-orf" id="dummy-1_h1_7_49"  />
</g>
<g id="a1_0050"  >
<polygon points="724,85 729,80 734,80 734,90 729,90 724,85 " style="fill:white; stroke-width:1; stroke:black; " description="&lt;b&gt;EYB26_007522&lt;/b&gt;&lt;br&gt;uncharacterized protein&lt;br&gt;Location: 30344 - 28209" locus_tag="EYB26_007522" class="clusterblast-orf" id="dummy-1_h1_7_50"  />
</g>
<g id="a1_0051"  >
<polygon points="735,85 740,80 740,80 740,90 740,90 735,85 " style="fill:white; stroke-width:1; stroke:black; " description="&lt;b&gt;EYB26_007521&lt;/b&gt;&lt;br&gt;uncharacterized protein&lt;br&gt;Location: 27921 - 26992" locus_tag="EYB26_007521" class="clusterblast-orf" id="dummy-1_h1_7_51"  />
</g>
<g id="a1_0052"  >
<polygon points="741,90 741,90 746,85 741,80 741,80 741,90 " style="fill:white; stroke-width:1; stroke:black; " description="&lt;b&gt;EYB26_007520&lt;/b&gt;&lt;br&gt;uncharacterized protein&lt;br&gt;Location: 26626 - 25625" locus_tag="EYB26_007520" class="clusterblast-orf" id="dummy-1_h1_7_52"  />
</g>
<g id="a1_0053"  >
<polygon points="771,90 773,85 771,80 771,90 " style="fill:white; stroke-width:1; stroke:black; " description="&lt;b&gt;EYB26_007519&lt;/b&gt;&lt;br&gt;uncharacterized protein&lt;br&gt;Location: 20378 - 19872" locus_tag="EYB26_007519" class="clusterblast-orf" id="dummy-1_h1_7_53"  />
</g>
<g id="a1_0054"  >
<polygon points="775,90 779,85 775,80 775,90 " style="fill:white; stroke-width:1; stroke:black; " description="&lt;b&gt;EYB26_007518&lt;/b&gt;&lt;br&gt;uncharacterized protein&lt;br&gt;Location: 19399 - 18540" locus_tag="EYB26_007518" class="clusterblast-orf" id="dummy-1_h1_7_54"  />
</g>
</svg>
