<svg xmlns="http://www.w3.org/2000/svg" xmlns:xlink="http://www.w3.org/1999/xlink" version="1.1" x="0" y="0" height="230" width="800" viewBox="0 0 800 230" preserveAspectRatio="none"  >
<g label="Query sequence" class="clusterblast-cluster"  >
<text x="5" y="20" class="clusterblast-acc"  >
Query sequence</text>
<line x1="10" y1="35" x2="778.0" y2="35" style="stroke-width:1; stroke:grey; "  />
<polygon points="0,40 5,40 10,35 5,30 0,30 0,40 " style="fill:#d81515; stroke-width:1; stroke:black; " description="&lt;b&gt;input.path1.gene509&lt;/b&gt;&lt;br&gt;input.path1.gene509&lt;br&gt;Location: 1889245 - 1889725" locus_tag="input.path1.gene509" class="clusterblast-orf" id="dummy-3_q0_0_all"  />
<polygon points="35,40 101,40 106,35 101,30 35,30 35,40 " style="fill:#3cd815; stroke-width:1; stroke:black; " description="&lt;b&gt;input.path1.gene510&lt;/b&gt;&lt;br&gt;input.path1.gene510&lt;br&gt;Location: 1890855 - 1894073" locus_tag="input.path1.gene510" class="clusterblast-orf" id="dummy-3_q1_0_all"  />
<polygon points="151,35 156,30 161,30 161,40 156,40 151,35 " style="fill:#1563d8; stroke-width:1; stroke:black; " description="&lt;b&gt;input.path1.gene511&lt;/b&gt;&lt;br&gt;input.path1.gene511&lt;br&gt;Location: 1896149 - 1896591" locus_tag="input.path1.gene511" class="clusterblast-orf" id="dummy-3_q2_0_all"  />
<polygon points="225,35 230,30 281,30 281,40 230,40 225,35 " style="fill:#b115d8; stroke-width:1; stroke:black; " description="&lt;b&gt;input.path1.gene512&lt;/b&gt;&lt;br&gt;input.path1.gene512&lt;br&gt;Location: 1899504 - 1902068" locus_tag="input.path1.gene512" class="clusterblast-orf" id="dummy-3_q3_0_all"  />
<polygon points="299,40 310,40 315,35 310,30 299,30 299,40 " style="fill:#d88a15; stroke-width:1; stroke:black; " description="&lt;b&gt;input.path1.gene513&lt;/b&gt;&lt;br&gt;input.path1.gene513&lt;br&gt;Location: 1902863 - 1903594" locus_tag="input.path1.gene513" class="clusterblast-orf" id="dummy-3_q4_0_all"  />
<polygon points="365,40 434,40 439,35 434,30 365,30 365,40 " style="fill:#15d863; stroke-width:1; stroke:black; " description="&lt;b&gt;input.path1.gene514&lt;/b&gt;&lt;br&gt;input.path1.gene514&lt;br&gt;Location: 1905893 - 1909268" locus_tag="input.path1.gene514" class="clusterblast-orf" id="dummy-3_q5_0_all"  />
<polygon points="504,35 509,30 565,30 565,40 509,40 504,35 " style="fill:#3c15d8; stroke-width:1; stroke:black; " description="&lt;b&gt;input.path1.gene515&lt;/b&gt;&lt;br&gt;input.path1.gene515&lt;br&gt;Location: 1912210 - 1914999" locus_tag="input.path1.gene515" class="clusterblast-orf" id="dummy-3_q6_0_all"  />
<polygon points="602,40 636,40 641,35 636,30 602,30 602,40 " style="fill:#d8158a; stroke-width:1; stroke:black; " description="&lt;b&gt;input.path1.gene516&lt;/b&gt;&lt;br&gt;input.path1.gene516&lt;br&gt;Location: 1916655 - 1918458" locus_tag="input.path1.gene516" class="clusterblast-orf" id="dummy-3_q7_0_all"  />
<polygon points="665,40 674,40 679,35 674,30 665,30 665,40 " style="fill:#b1d815; stroke-width:1; stroke:black; " description="&lt;b&gt;input.path1.gene517&lt;/b&gt;&lt;br&gt;input.path1.gene517&lt;br&gt;Location: 1919532 - 1920175" locus_tag="input.path1.gene517" class="clusterblast-orf" id="dummy-3_q8_0_all"  />
<polygon points="690,35 695,30 718,30 718,40 695,40 690,35 " style="fill:#15d8d8; stroke-width:1; stroke:black; " description="&lt;b&gt;input.path1.gene518&lt;/b&gt;&lt;br&gt;input.path1.gene518&lt;br&gt;Location: 1920689 - 1921941" locus_tag="input.path1.gene518" class="clusterblast-orf" id="dummy-3_q9_0_all"  />
<polygon points="746,40 755,40 760,35 755,30 746,30 746,40 " style="fill:white; stroke-width:1; stroke:black; " description="&lt;b&gt;input.path1.gene519&lt;/b&gt;&lt;br&gt;input.path1.gene519&lt;br&gt;Location: 1923219 - 1923864" locus_tag="input.path1.gene519" class="clusterblast-orf" id="dummy-3_q10_0_all"  />
<polygon points="771,35 776,30 780,30 780,40 776,40 771,35 " style="fill:#15d8d8; stroke-width:1; stroke:black; " description="&lt;b&gt;input.path1.gene520&lt;/b&gt;&lt;br&gt;input.path1.gene520&lt;br&gt;Location: 1924359 - 1924760" locus_tag="input.path1.gene520" class="clusterblast-orf" id="dummy-3_q11_0_all"  />
</g>
<g label="NW_025408676" description="NW_025408676 (1426995-1492227): Hirsutella rhossiliensis strain HR02 chromoso... (66% of genes show similarity), NRPS-like" class="clusterblast-cluster"  >
<text x="5" y="70" class="clusterblast-acc"  >
<a xlink:href="https://antismash-db.secondarymetabolites.org/area?record=NW_025408676&amp;start=1426995&amp;end=1492227" target="_blank">NW_025408676 (1426995-1492227)</a>: Hirsutella rhossiliensis strain HR02 chromoso... (66% of genes show similarity), NRPS-like</text>
<line x1="10" y1="85" x2="778.0" y2="85" style="stroke-width:1; stroke:grey; "  />
</g>
<g id="a3_000"  >
<polygon points="133,90 318,90 323,85 318,80 133,80 133,90 " style="fill:#3cd815; stroke-width:1; stroke:black; " description="&lt;b&gt;HRG_08490&lt;/b&gt;&lt;br&gt;sec7 domain-containing protein&lt;br&gt;Location: 1446039 - 1454670&lt;br&gt;&lt;br&gt;&lt;b&gt;BlastP hit with input.path1.gene510&lt;/b&gt;&lt;br&gt;Percentage identity: 56&lt;br&gt;Percentage coverage: 131&lt;br&gt;BLAST bit score: 844&lt;br&gt;E-value: 4.84e-283" locus_tag="HRG_08490" class="clusterblast-orf" id="dummy-3_h3_7_0"  />
</g>
<g id="a3_001"  >
<polygon points="328,85 333,80 364,80 364,90 333,90 328,85 " style="fill:white; stroke-width:1; stroke:black; " description="&lt;b&gt;HRG_08491&lt;/b&gt;&lt;br&gt;tti2 family domain-containing protein&lt;br&gt;Location: 1454897 - 1456567" locus_tag="HRG_08491" class="clusterblast-orf" id="dummy-3_h3_7_1"  />
</g>
<g id="a3_002"  >
<polygon points="374,85 379,80 489,80 489,90 379,90 374,85 " style="fill:#15d863; stroke-width:1; stroke:black; " description="&lt;b&gt;HRG_08492&lt;/b&gt;&lt;br&gt;AMP-binding enzyme domain-containing protein&lt;br&gt;Location: 1456996 - 1462227&lt;br&gt;&lt;br&gt;&lt;b&gt;BlastP hit with input.path1.gene514&lt;/b&gt;&lt;br&gt;Percentage identity: 43&lt;br&gt;Percentage coverage: 117&lt;br&gt;BLAST bit score: 540&lt;br&gt;E-value: 4.01e-173" locus_tag="HRG_08492" class="clusterblast-orf" id="dummy-3_h3_7_2"  />
</g>
<g id="a3_003"  >
<polygon points="533,85 538,80 590,80 590,90 538,90 533,85 " style="fill:#b115d8; stroke-width:1; stroke:black; " description="&lt;b&gt;HRG_08493&lt;/b&gt;&lt;br&gt;pre-mRNA-splicing factor syf1&lt;br&gt;Location: 1464272 - 1466839&lt;br&gt;&lt;br&gt;&lt;b&gt;BlastP hit with input.path1.gene512&lt;/b&gt;&lt;br&gt;Percentage identity: 79&lt;br&gt;Percentage coverage: 98&lt;br&gt;BLAST bit score: 1142&lt;br&gt;E-value: 0.0" locus_tag="HRG_08493" class="clusterblast-orf" id="dummy-3_h3_7_3"  />
</g>
<g id="a3_004"  >
<polygon points="599,90 618,90 623,85 618,80 599,80 599,90 " style="fill:#d88a15; stroke-width:1; stroke:black; " description="&lt;b&gt;HRG_08494&lt;/b&gt;&lt;br&gt;ATP synthase subunit D domain-containing protein&lt;br&gt;Location: 1467274 - 1468365&lt;br&gt;&lt;br&gt;&lt;b&gt;BlastP hit with input.path1.gene513&lt;/b&gt;&lt;br&gt;Percentage identity: 87&lt;br&gt;Percentage coverage: 101&lt;br&gt;BLAST bit score: 318&lt;br&gt;E-value: 1.69e-109" locus_tag="HRG_08494" class="clusterblast-orf" id="dummy-3_h3_7_4"  />
</g>
<g id="a3_005"  >
<polygon points="627,85 632,80 646,80 646,90 632,90 627,85 " style="fill:white; stroke-width:1; stroke:black; " description="&lt;b&gt;HRG_08495&lt;/b&gt;&lt;br&gt;RNA recognition motif domain-containing protein&lt;br&gt;Location: 1468539 - 1469392" locus_tag="HRG_08495" class="clusterblast-orf" id="dummy-3_h3_7_5"  />
</g>
</svg>
