<svg xmlns="http://www.w3.org/2000/svg" xmlns:xlink="http://www.w3.org/1999/xlink" version="1.1" x="0" y="0" height="230" width="800" viewBox="0 0 800 230" preserveAspectRatio="none"  >
<g label="Query sequence" class="clusterblast-cluster"  >
<text x="5" y="20" class="clusterblast-acc"  >
Query sequence</text>
<line x1="10" y1="35" x2="778.0" y2="35" style="stroke-width:1; stroke:grey; "  />
<polygon points="200,35 205,30 220,30 220,40 205,40 200,35 " style="fill:white; stroke-width:1; stroke:black; " description="&lt;b&gt;input.path1.gene2&lt;/b&gt;&lt;br&gt;input.path1.gene2&lt;br&gt;Location: 13483 - 15122" locus_tag="input.path1.gene2" class="clusterblast-orf" id="dummy-1_q0_0_all"  />
<polygon points="221,40 254,40 259,35 254,30 221,30 221,40 " style="fill:white; stroke-width:1; stroke:black; " description="&lt;b&gt;input.path1.gene3&lt;/b&gt;&lt;br&gt;input.path1.gene3&lt;br&gt;Location: 15231 - 18400" locus_tag="input.path1.gene3" class="clusterblast-orf" id="dummy-1_q1_0_all"  />
<polygon points="264,40 268,40 273,35 268,30 264,30 264,40 " style="fill:white; stroke-width:1; stroke:black; " description="&lt;b&gt;input.path1.gene4&lt;/b&gt;&lt;br&gt;input.path1.gene4&lt;br&gt;Location: 18885 - 19608" locus_tag="input.path1.gene4" class="clusterblast-orf" id="dummy-1_q2_0_all"  />
<polygon points="274,35 279,30 296,30 296,40 279,40 274,35 " style="fill:white; stroke-width:1; stroke:black; " description="&lt;b&gt;input.path1.gene5&lt;/b&gt;&lt;br&gt;input.path1.gene5&lt;br&gt;Location: 19675 - 21550" locus_tag="input.path1.gene5" class="clusterblast-orf" id="dummy-1_q3_0_all"  />
<polygon points="309,40 326,40 331,35 326,30 309,30 309,40 " style="fill:white; stroke-width:1; stroke:black; " description="&lt;b&gt;input.path1.gene6&lt;/b&gt;&lt;br&gt;input.path1.gene6&lt;br&gt;Location: 22661 - 24460" locus_tag="input.path1.gene6" class="clusterblast-orf" id="dummy-1_q4_0_all"  />
<polygon points="336,35 341,30 371,30 371,40 341,40 336,35 " style="fill:#d81515; stroke-width:1; stroke:black; " description="&lt;b&gt;input.path1.gene7&lt;/b&gt;&lt;br&gt;input.path1.gene7&lt;br&gt;Location: 24876 - 27865" locus_tag="input.path1.gene7" class="clusterblast-orf" id="dummy-1_q5_0_all"  />
<polygon points="413,40 452,40 457,35 452,30 413,30 413,40 " style="fill:#15d815; stroke-width:1; stroke:black; " description="&lt;b&gt;input.path1.gene8&lt;/b&gt;&lt;br&gt;input.path1.gene8&lt;br&gt;Location: 31414 - 35042" locus_tag="input.path1.gene8" class="clusterblast-orf" id="dummy-1_q6_0_all"  />
<polygon points="466,40 495,40 500,35 495,30 466,30 466,40 " style="fill:#15d815; stroke-width:1; stroke:black; " description="&lt;b&gt;input.path1.gene9&lt;/b&gt;&lt;br&gt;input.path1.gene9&lt;br&gt;Location: 35875 - 38723" locus_tag="input.path1.gene9" class="clusterblast-orf" id="dummy-1_q7_0_all"  />
<polygon points="511,40 516,40 521,35 516,30 511,30 511,40 " style="fill:#15d815; stroke-width:1; stroke:black; " description="&lt;b&gt;input.path1.gene10&lt;/b&gt;&lt;br&gt;input.path1.gene10&lt;br&gt;Location: 39652 - 40461" locus_tag="input.path1.gene10" class="clusterblast-orf" id="dummy-1_q8_0_all"  />
<polygon points="523,35 528,30 572,30 572,40 528,40 523,35 " style="fill:#1515d8; stroke-width:1; stroke:black; " description="&lt;b&gt;input.path1.gene11&lt;/b&gt;&lt;br&gt;input.path1.gene11&lt;br&gt;Location: 40661 - 44716" locus_tag="input.path1.gene11" class="clusterblast-orf" id="dummy-1_q9_0_all"  />
<polygon points="572,40 574,40 579,35 574,30 572,30 572,40 " style="fill:white; stroke-width:1; stroke:black; " description="&lt;b&gt;input.path1.gene12&lt;/b&gt;&lt;br&gt;input.path1.gene12&lt;br&gt;Location: 44787 - 45352" locus_tag="input.path1.gene12" class="clusterblast-orf" id="dummy-1_q10_0_all"  />
</g>
<g label="NW_024468910" description="NW_024468910 (5414182-5490619): Cryphonectria parasitica EP155 unplaced genom... (11% of genes show similarity), NRPS-like,T1PKS" class="clusterblast-cluster"  >
<text x="5" y="70" class="clusterblast-acc"  >
<a xlink:href="https://antismash-db.secondarymetabolites.org/area?record=NW_024468910&amp;start=5414182&amp;end=5490619" target="_blank">NW_024468910 (5414182-5490619)</a>: Cryphonectria parasitica EP155 unplaced genom... (11% of genes show similarity), NRPS-like,T1PKS</text>
<line x1="10" y1="85" x2="778.0" y2="85" style="stroke-width:1; stroke:grey; "  />
</g>
<g id="a1_000"  >
<polygon points="0,85 5,80 13,80 13,90 5,90 0,85 " style="fill:white; stroke-width:1; stroke:black; " description="&lt;b&gt;M406DRAFT_65645&lt;/b&gt;&lt;br&gt;uncharacterized protein&lt;br&gt;Location: 5414317 - 5415432" locus_tag="M406DRAFT_65645" class="clusterblast-orf" id="dummy-1_h1_9_0"  />
</g>
<g id="a1_001"  >
<polygon points="18,85 23,80 31,80 31,90 23,90 18,85 " style="fill:white; stroke-width:1; stroke:black; " description="&lt;b&gt;M406DRAFT_52603&lt;/b&gt;&lt;br&gt;uncharacterized protein&lt;br&gt;Location: 5415889 - 5416995" locus_tag="M406DRAFT_52603" class="clusterblast-orf" id="dummy-1_h1_9_1"  />
</g>
<g id="a1_002"  >
<polygon points="45,90 56,90 61,85 56,80 45,80 45,90 " style="fill:white; stroke-width:1; stroke:black; " description="&lt;b&gt;M406DRAFT_337596&lt;/b&gt;&lt;br&gt;uncharacterized protein&lt;br&gt;Location: 5418168 - 5419517" locus_tag="M406DRAFT_337596" class="clusterblast-orf" id="dummy-1_h1_9_2"  />
</g>
<g id="a1_003"  >
<polygon points="64,85 69,80 84,80 84,90 69,90 64,85 " style="fill:white; stroke-width:1; stroke:black; " description="&lt;b&gt;M406DRAFT_52448&lt;/b&gt;&lt;br&gt;uncharacterized protein&lt;br&gt;Location: 5419728 - 5421431" locus_tag="M406DRAFT_52448" class="clusterblast-orf" id="dummy-1_h1_9_3"  />
</g>
<g id="a1_004"  >
<polygon points="133,90 174,90 179,85 174,80 133,80 133,90 " style="fill:white; stroke-width:1; stroke:black; " description="&lt;b&gt;M406DRAFT_52479&lt;/b&gt;&lt;br&gt;family 1 glycosyltransferase&lt;br&gt;Location: 5425521 - 5429414" locus_tag="M406DRAFT_52479" class="clusterblast-orf" id="dummy-1_h1_9_4"  />
</g>
<g id="a1_005"  >
<polygon points="197,85 202,80 210,80 210,90 202,90 197,85 " style="fill:white; stroke-width:1; stroke:black; " description="&lt;b&gt;M406DRAFT_75855&lt;/b&gt;&lt;br&gt;uncharacterized protein&lt;br&gt;Location: 5430913 - 5431992" locus_tag="M406DRAFT_75855" class="clusterblast-orf" id="dummy-1_h1_9_5"  />
</g>
<g id="a1_006"  >
<polygon points="223,85 228,80 241,80 241,90 228,90 223,85 " style="fill:white; stroke-width:1; stroke:black; " description="&lt;b&gt;M406DRAFT_337600&lt;/b&gt;&lt;br&gt;uncharacterized protein&lt;br&gt;Location: 5433083 - 5434645" locus_tag="M406DRAFT_337600" class="clusterblast-orf" id="dummy-1_h1_9_6"  />
</g>
<g id="a1_007"  >
<polygon points="274,90 303,90 308,85 303,80 274,80 274,90 " style="fill:white; stroke-width:1; stroke:black; " description="&lt;b&gt;M406DRAFT_75857&lt;/b&gt;&lt;br&gt;uncharacterized protein&lt;br&gt;Location: 5437363 - 5440256" locus_tag="M406DRAFT_75857" class="clusterblast-orf" id="dummy-1_h1_9_7"  />
</g>
<g id="a1_008"  >
<polygon points="315,85 320,80 330,80 330,90 320,90 315,85 " style="fill:white; stroke-width:1; stroke:black; " description="&lt;b&gt;M406DRAFT_220882&lt;/b&gt;&lt;br&gt;uncharacterized protein&lt;br&gt;Location: 5440848 - 5442085" locus_tag="M406DRAFT_220882" class="clusterblast-orf" id="dummy-1_h1_9_8"  />
</g>
<g id="a1_009"  >
<polygon points="355,85 360,80 396,80 396,90 360,90 355,85 " style="fill:#d81515; stroke-width:1; stroke:black; " description="&lt;b&gt;M406DRAFT_96027&lt;/b&gt;&lt;br&gt;uncharacterized protein&lt;br&gt;Location: 5444183 - 5447645&lt;br&gt;&lt;br&gt;&lt;b&gt;BlastP hit with input.path1.gene7&lt;/b&gt;&lt;br&gt;Percentage identity: 42&lt;br&gt;Percentage coverage: 112&lt;br&gt;BLAST bit score: 550&lt;br&gt;E-value: 2.02e-180" locus_tag="M406DRAFT_96027" class="clusterblast-orf" id="dummy-1_h1_9_9"  />
</g>
<g id="a1_0010"  >
<polygon points="409,85 414,80 424,80 424,90 414,90 409,85 " style="fill:white; stroke-width:1; stroke:black; " description="&lt;b&gt;M406DRAFT_75860&lt;/b&gt;&lt;br&gt;uncharacterized protein&lt;br&gt;Location: 5448744 - 5450025" locus_tag="M406DRAFT_75860" class="clusterblast-orf" id="dummy-1_h1_9_10"  />
</g>
<g id="a1_0011"  >
<polygon points="436,90 545,90 550,85 545,80 436,80 436,90 " style="fill:#15d815; stroke-width:1; stroke:black; " description="&lt;b&gt;M406DRAFT_85893&lt;/b&gt;&lt;br&gt;uncharacterized protein&lt;br&gt;Location: 5451021 - 5460619&lt;br&gt;&lt;br&gt;&lt;b&gt;BlastP hit with input.path1.gene8&lt;/b&gt;&lt;br&gt;Percentage identity: 56&lt;br&gt;Percentage coverage: 102&lt;br&gt;BLAST bit score: 1228&lt;br&gt;E-value: 0.0&lt;br&gt;&lt;br&gt;&lt;b&gt;BlastP hit with input.path1.gene9&lt;/b&gt;&lt;br&gt;Percentage identity: 39&lt;br&gt;Percentage coverage: 103&lt;br&gt;BLAST bit score: 506&lt;br&gt;E-value: 4.26e-154&lt;br&gt;&lt;br&gt;&lt;b&gt;BlastP hit with input.path1.gene10&lt;/b&gt;&lt;br&gt;Percentage identity: 49&lt;br&gt;Percentage coverage: 48&lt;br&gt;BLAST bit score: 99&lt;br&gt;E-value: 1.8e-21" locus_tag="M406DRAFT_85893" class="clusterblast-orf" id="dummy-1_h1_9_11"  />
</g>
<g id="a1_0012"  >
<polygon points="588,90 594,90 599,85 594,80 588,80 588,90 " style="fill:white; stroke-width:1; stroke:black; " description="&lt;b&gt;M406DRAFT_75862&lt;/b&gt;&lt;br&gt;uncharacterized protein&lt;br&gt;Location: 5463818 - 5464696" locus_tag="M406DRAFT_75862" class="clusterblast-orf" id="dummy-1_h1_9_12"  />
</g>
<g id="a1_0013"  >
<polygon points="601,85 606,80 639,80 639,90 606,90 601,85 " style="fill:white; stroke-width:1; stroke:black; " description="&lt;b&gt;M406DRAFT_75863&lt;/b&gt;&lt;br&gt;uncharacterized protein&lt;br&gt;Location: 5464904 - 5468043" locus_tag="M406DRAFT_75863" class="clusterblast-orf" id="dummy-1_h1_9_13"  />
</g>
<g id="a1_0014"  >
<polygon points="680,90 687,90 692,85 687,80 680,80 680,90 " style="fill:white; stroke-width:1; stroke:black; " description="&lt;b&gt;M406DRAFT_250667&lt;/b&gt;&lt;br&gt;kinase-like protein&lt;br&gt;Location: 5471537 - 5472547" locus_tag="M406DRAFT_250667" class="clusterblast-orf" id="dummy-1_h1_9_14"  />
</g>
<g id="a1_0015"  >
<polygon points="710,90 711,90 716,85 711,80 710,80 710,90 " style="fill:white; stroke-width:1; stroke:black; " description="&lt;b&gt;M406DRAFT_355267&lt;/b&gt;&lt;br&gt;uncharacterized protein&lt;br&gt;Location: 5474029 - 5474512" locus_tag="M406DRAFT_355267" class="clusterblast-orf" id="dummy-1_h1_9_15"  />
</g>
<g id="a1_0016"  >
<polygon points="759,85 764,80 780,80 780,90 764,90 759,85 " style="fill:white; stroke-width:1; stroke:black; " description="&lt;b&gt;M406DRAFT_327760&lt;/b&gt;&lt;br&gt;uncharacterized protein&lt;br&gt;Location: 5478120 - 5479878" locus_tag="M406DRAFT_327760" class="clusterblast-orf" id="dummy-1_h1_9_16"  />
</g>
</svg>
