<svg xmlns="http://www.w3.org/2000/svg" xmlns:xlink="http://www.w3.org/1999/xlink" version="1.1" x="0" y="0" height="230" width="800" viewBox="0 0 800 230" preserveAspectRatio="none"  >
<g label="Query sequence" class="clusterblast-cluster"  >
<text x="5" y="20" class="clusterblast-acc"  >
Query sequence</text>
<line x1="10" y1="35" x2="778.0" y2="35" style="stroke-width:1; stroke:grey; "  />
<polygon points="159,35 164,30 170,30 170,40 164,40 159,35 " style="fill:#d81515; stroke-width:1; stroke:black; " description="&lt;b&gt;input.path1.gene40&lt;/b&gt;&lt;br&gt;input.path1.gene40&lt;br&gt;Location: 162867 - 163665" locus_tag="input.path1.gene40" class="clusterblast-orf" id="dummy-1_q0_0_all"  />
<polygon points="211,40 219,40 224,35 219,30 211,30 211,40 " style="fill:#77d815; stroke-width:1; stroke:black; " description="&lt;b&gt;input.path1.gene41&lt;/b&gt;&lt;br&gt;input.path1.gene41&lt;br&gt;Location: 166846 - 167881" locus_tag="input.path1.gene41" class="clusterblast-orf" id="dummy-1_q1_0_all"  />
<polygon points="231,35 236,30 244,30 244,40 236,40 231,35 " style="fill:#15d8d8; stroke-width:1; stroke:black; " description="&lt;b&gt;input.path1.gene42&lt;/b&gt;&lt;br&gt;input.path1.gene42&lt;br&gt;Location: 168409 - 169379" locus_tag="input.path1.gene42" class="clusterblast-orf" id="dummy-1_q2_0_all"  />
<polygon points="274,40 282,40 287,35 282,30 274,30 274,40 " style="fill:#7715d8; stroke-width:1; stroke:black; " description="&lt;b&gt;input.path1.gene43&lt;/b&gt;&lt;br&gt;input.path1.gene43&lt;br&gt;Location: 171737 - 172773" locus_tag="input.path1.gene43" class="clusterblast-orf" id="dummy-1_q3_0_all"  />
<polygon points="299,35 304,30 312,30 312,40 304,40 299,35 " style="fill:#d8a715; stroke-width:1; stroke:black; " description="&lt;b&gt;input.path1.gene44&lt;/b&gt;&lt;br&gt;input.path1.gene44&lt;br&gt;Location: 173663 - 174650" locus_tag="input.path1.gene44" class="clusterblast-orf" id="dummy-1_q4_0_all"  />
<polygon points="346,40 366,40 371,35 366,30 346,30 346,40 " style="fill:#15d846; stroke-width:1; stroke:black; " description="&lt;b&gt;input.path1.gene45&lt;/b&gt;&lt;br&gt;input.path1.gene45&lt;br&gt;Location: 177296 - 179262" locus_tag="input.path1.gene45" class="clusterblast-orf" id="dummy-1_q5_0_all"  />
<polygon points="376,35 381,30 392,30 392,40 381,40 376,35 " style="fill:white; stroke-width:1; stroke:black; " description="&lt;b&gt;input.path1.gene46&lt;/b&gt;&lt;br&gt;input.path1.gene46&lt;br&gt;Location: 179606 - 180863" locus_tag="input.path1.gene46" class="clusterblast-orf" id="dummy-1_q6_0_all"  />
<polygon points="462,40 462,40 467,35 462,30 462,30 462,40 " style="fill:#1546d8; stroke-width:1; stroke:black; " description="&lt;b&gt;input.path1.gene47&lt;/b&gt;&lt;br&gt;input.path1.gene47&lt;br&gt;Location: 186259 - 186685" locus_tag="input.path1.gene47" class="clusterblast-orf" id="dummy-1_q7_0_all"  />
<polygon points="476,40 478,40 483,35 478,30 476,30 476,40 " style="fill:white; stroke-width:1; stroke:black; " description="&lt;b&gt;input.path1.gene48&lt;/b&gt;&lt;br&gt;input.path1.gene48&lt;br&gt;Location: 187390 - 187893" locus_tag="input.path1.gene48" class="clusterblast-orf" id="dummy-1_q8_0_all"  />
<polygon points="520,40 537,40 542,35 537,30 520,30 520,40 " style="fill:#d815a7; stroke-width:1; stroke:black; " description="&lt;b&gt;input.path1.gene49&lt;/b&gt;&lt;br&gt;input.path1.gene49&lt;br&gt;Location: 190737 - 192478" locus_tag="input.path1.gene49" class="clusterblast-orf" id="dummy-1_q9_0_all"  />
<polygon points="606,40 615,40 620,35 615,30 606,30 606,40 " style="fill:white; stroke-width:1; stroke:black; " description="&lt;b&gt;input.path1.gene50&lt;/b&gt;&lt;br&gt;input.path1.gene50&lt;br&gt;Location: 197426 - 198494" locus_tag="input.path1.gene50" class="clusterblast-orf" id="dummy-1_q10_0_all"  />
</g>
<g label="NW_025408669" description="NW_025408669 (1835836-1898581): Hirsutella rhossiliensis strain HR02 chromoso... (10% of genes show similarity), NRPS-like" class="clusterblast-cluster"  >
<text x="5" y="70" class="clusterblast-acc"  >
<a xlink:href="https://antismash-db.secondarymetabolites.org/area?record=NW_025408669&amp;start=1835836&amp;end=1898581" target="_blank">NW_025408669 (1835836-1898581)</a>: Hirsutella rhossiliensis strain HR02 chromoso... (10% of genes show similarity), NRPS-like</text>
<line x1="10" y1="85" x2="778.0" y2="85" style="stroke-width:1; stroke:grey; "  />
</g>
<g id="a1_000"  >
<polygon points="0,90 4,90 9,85 4,80 0,80 0,90 " style="fill:white; stroke-width:1; stroke:black; " description="&lt;b&gt;HRG_03096&lt;/b&gt;&lt;br&gt;GDP/GTP exchange factor sec2p domain-containing protein&lt;br&gt;Location: 1838198 - 1838944" locus_tag="HRG_03096" class="clusterblast-orf" id="dummy-1_h1_6_0"  />
</g>
<g id="a1_001"  >
<polygon points="19,85 24,80 39,80 39,90 24,90 19,85 " style="fill:white; stroke-width:1; stroke:black; " description="&lt;b&gt;HRG_03097&lt;/b&gt;&lt;br&gt;putative tRNA pseudouridine synthase 4&lt;br&gt;Location: 1839692 - 1841245" locus_tag="HRG_03097" class="clusterblast-orf" id="dummy-1_h1_6_1"  />
</g>
<g id="a1_002"  >
<polygon points="59,90 86,90 91,85 86,80 59,80 59,90 " style="fill:white; stroke-width:1; stroke:black; " description="&lt;b&gt;HRG_03098&lt;/b&gt;&lt;br&gt;defective in methylation-7 protein&lt;br&gt;Location: 1842832 - 1845304" locus_tag="HRG_03098" class="clusterblast-orf" id="dummy-1_h1_6_2"  />
</g>
<g id="a1_003"  >
<polygon points="101,85 106,80 134,80 134,90 106,90 101,85 " style="fill:white; stroke-width:1; stroke:black; " description="&lt;b&gt;HRG_03099&lt;/b&gt;&lt;br&gt;MIF4G like domain-containing protein&lt;br&gt;Location: 1846015 - 1848599" locus_tag="HRG_03099" class="clusterblast-orf" id="dummy-1_h1_6_3"  />
</g>
<g id="a1_004"  >
<polygon points="195,90 200,90 205,85 200,80 195,80 195,90 " style="fill:white; stroke-width:1; stroke:black; " description="&lt;b&gt;HRG_03100&lt;/b&gt;&lt;br&gt;integrase core domain-containing protein&lt;br&gt;Location: 1853299 - 1854078" locus_tag="HRG_03100" class="clusterblast-orf" id="dummy-1_h1_6_4"  />
</g>
<g id="a1_005"  >
<polygon points="213,85 218,80 234,80 234,90 218,90 213,85 " style="fill:white; stroke-width:1; stroke:black; " description="&lt;b&gt;HRG_03101&lt;/b&gt;&lt;br&gt;cytochrome p450 domain-containing protein&lt;br&gt;Location: 1854676 - 1856303" locus_tag="HRG_03101" class="clusterblast-orf" id="dummy-1_h1_6_5"  />
</g>
<g id="a1_006"  >
<polygon points="241,90 253,90 258,85 253,80 241,80 241,90 " style="fill:white; stroke-width:1; stroke:black; " description="&lt;b&gt;HRG_03102&lt;/b&gt;&lt;br&gt;uncharacterized protein&lt;br&gt;Location: 1856848 - 1858157" locus_tag="HRG_03102" class="clusterblast-orf" id="dummy-1_h1_6_6"  />
</g>
<g id="a1_007"  >
<polygon points="261,85 266,80 279,80 279,90 266,90 261,85 " style="fill:white; stroke-width:1; stroke:black; " description="&lt;b&gt;HRG_03103&lt;/b&gt;&lt;br&gt;o-methyltransferase domain-containing protein&lt;br&gt;Location: 1858412 - 1859818" locus_tag="HRG_03103" class="clusterblast-orf" id="dummy-1_h1_6_7"  />
</g>
<g id="a1_008"  >
<polygon points="297,90 315,90 320,85 315,80 297,80 297,90 " style="fill:white; stroke-width:1; stroke:black; " description="&lt;b&gt;HRG_03104&lt;/b&gt;&lt;br&gt;cytochrome p450 domain-containing protein&lt;br&gt;Location: 1861243 - 1863023" locus_tag="HRG_03104" class="clusterblast-orf" id="dummy-1_h1_6_8"  />
</g>
<g id="a1_009"  >
<polygon points="322,85 327,80 342,80 342,90 327,90 322,85 " style="fill:#d8a715; stroke-width:1; stroke:black; " description="&lt;b&gt;HRG_03105&lt;/b&gt;&lt;br&gt;o-methyltransferase domain-containing protein&lt;br&gt;Location: 1863141 - 1864674&lt;br&gt;&lt;br&gt;&lt;b&gt;BlastP hit with input.path1.gene44&lt;/b&gt;&lt;br&gt;Percentage identity: 48&lt;br&gt;Percentage coverage: 100&lt;br&gt;BLAST bit score: 251&lt;br&gt;E-value: 1.08e-79" locus_tag="HRG_03105" class="clusterblast-orf" id="dummy-1_h1_6_9"  />
</g>
<g id="a1_0010"  >
<polygon points="357,90 387,90 392,85 387,80 357,80 357,90 " style="fill:#15d846; stroke-width:1; stroke:black; " description="&lt;b&gt;HRG_03106&lt;/b&gt;&lt;br&gt;AMP-binding enzyme domain-containing protein&lt;br&gt;Location: 1865837 - 1868581&lt;br&gt;&lt;br&gt;&lt;b&gt;BlastP hit with input.path1.gene45&lt;/b&gt;&lt;br&gt;Percentage identity: 51&lt;br&gt;Percentage coverage: 101&lt;br&gt;BLAST bit score: 617&lt;br&gt;E-value: 8.43e-211" locus_tag="HRG_03106" class="clusterblast-orf" id="dummy-1_h1_6_10"  />
</g>
<g id="a1_0011"  >
<polygon points="420,85 425,80 439,80 439,90 425,90 420,85 " style="fill:white; stroke-width:1; stroke:black; " description="&lt;b&gt;HRG_03107&lt;/b&gt;&lt;br&gt;kinase&lt;br&gt;Location: 1870685 - 1872178" locus_tag="HRG_03107" class="clusterblast-orf" id="dummy-1_h1_6_11"  />
</g>
<g id="a1_0012"  >
<polygon points="553,85 558,80 579,80 579,90 558,90 553,85 " style="fill:white; stroke-width:1; stroke:black; " description="&lt;b&gt;HRG_03108&lt;/b&gt;&lt;br&gt;6-phosphofructo-2-kinase domain-containing protein&lt;br&gt;Location: 1881030 - 1883025" locus_tag="HRG_03108" class="clusterblast-orf" id="dummy-1_h1_6_12"  />
</g>
<g id="a1_0013"  >
<polygon points="590,90 600,90 605,85 600,80 590,80 590,90 " style="fill:white; stroke-width:1; stroke:black; " description="&lt;b&gt;HRG_03109&lt;/b&gt;&lt;br&gt;eukaryotic porin domain-containing protein&lt;br&gt;Location: 1883883 - 1885061" locus_tag="HRG_03109" class="clusterblast-orf" id="dummy-1_h1_6_13"  />
</g>
<g id="a1_0014"  >
<polygon points="621,85 626,80 658,80 658,90 626,90 621,85 " style="fill:white; stroke-width:1; stroke:black; " description="&lt;b&gt;HRG_03110&lt;/b&gt;&lt;br&gt;ubiquitin carboxyl-terminal hydrolase domain-containing protein&lt;br&gt;Location: 1886266 - 1889109" locus_tag="HRG_03110" class="clusterblast-orf" id="dummy-1_h1_6_14"  />
</g>
<g id="a1_0015"  >
<polygon points="682,90 692,90 697,85 692,80 682,80 682,90 " style="fill:white; stroke-width:1; stroke:black; " description="&lt;b&gt;HRG_03111&lt;/b&gt;&lt;br&gt;ribosomal protein l5 domain-containing protein&lt;br&gt;Location: 1891020 - 1892132" locus_tag="HRG_03111" class="clusterblast-orf" id="dummy-1_h1_6_15"  />
</g>
<g id="a1_0016"  >
<polygon points="700,85 705,80 709,80 709,90 705,90 700,85 " style="fill:white; stroke-width:1; stroke:black; " description="&lt;b&gt;HRG_03112&lt;/b&gt;&lt;br&gt;nucleotide exchange factor fes1 domain-containing protein&lt;br&gt;Location: 1892399 - 1893058" locus_tag="HRG_03112" class="clusterblast-orf" id="dummy-1_h1_6_16"  />
</g>
<g id="a1_0017"  >
<polygon points="742,90 758,90 763,85 758,80 742,80 742,90 " style="fill:white; stroke-width:1; stroke:black; " description="&lt;b&gt;HRG_03113&lt;/b&gt;&lt;br&gt;actin&lt;br&gt;Location: 1895630 - 1897288" locus_tag="HRG_03113" class="clusterblast-orf" id="dummy-1_h1_6_17"  />
</g>
<g id="a1_0018"  >
<polygon points="770,85 775,80 780,80 780,90 775,90 770,85 " style="fill:white; stroke-width:1; stroke:black; " description="&lt;b&gt;HRG_03114&lt;/b&gt;&lt;br&gt;RF-1 domain-containing protein&lt;br&gt;Location: 1897801 - 1898531" locus_tag="HRG_03114" class="clusterblast-orf" id="dummy-1_h1_6_18"  />
</g>
</svg>
