<svg xmlns="http://www.w3.org/2000/svg" xmlns:xlink="http://www.w3.org/1999/xlink" version="1.1" x="0" y="0" height="230" width="800" viewBox="0 0 800 230" preserveAspectRatio="none"  >
<g label="Query sequence" class="clusterblast-cluster"  >
<text x="5" y="20" class="clusterblast-acc"  >
Query sequence</text>
<line x1="10" y1="35" x2="778.0" y2="35" style="stroke-width:1; stroke:grey; "  />
<polygon points="156,40 167,40 172,35 167,30 156,30 156,40 " style="fill:#d81515; stroke-width:1; stroke:black; " description="&lt;b&gt;input.path1.gene59&lt;/b&gt;&lt;br&gt;input.path1.gene59&lt;br&gt;Location: 266002 - 268017" locus_tag="input.path1.gene59" class="clusterblast-orf" id="dummy-2_q0_0_all"  />
<polygon points="207,40 224,40 229,35 224,30 207,30 207,40 " style="fill:#77d815; stroke-width:1; stroke:black; " description="&lt;b&gt;input.path1.gene60&lt;/b&gt;&lt;br&gt;input.path1.gene60&lt;br&gt;Location: 272646 - 275405" locus_tag="input.path1.gene60" class="clusterblast-orf" id="dummy-2_q1_0_all"  />
<polygon points="235,35 240,30 240,30 240,40 240,40 235,35 " style="fill:#15d8d8; stroke-width:1; stroke:black; " description="&lt;b&gt;input.path1.gene61&lt;/b&gt;&lt;br&gt;input.path1.gene61&lt;br&gt;Location: 276179 - 276908" locus_tag="input.path1.gene61" class="clusterblast-orf" id="dummy-2_q2_0_all"  />
<polygon points="244,40 251,40 256,35 251,30 244,30 244,40 " style="fill:#7715d8; stroke-width:1; stroke:black; " description="&lt;b&gt;input.path1.gene62&lt;/b&gt;&lt;br&gt;input.path1.gene62&lt;br&gt;Location: 277372 - 278917" locus_tag="input.path1.gene62" class="clusterblast-orf" id="dummy-2_q3_0_all"  />
<polygon points="364,35 369,30 370,30 370,40 369,40 364,35 " style="fill:white; stroke-width:1; stroke:black; " description="&lt;b&gt;input.path1.gene63&lt;/b&gt;&lt;br&gt;input.path1.gene63&lt;br&gt;Location: 292889 - 293651" locus_tag="input.path1.gene63" class="clusterblast-orf" id="dummy-2_q4_0_all"  />
<polygon points="371,40 371,40 376,35 371,30 371,30 371,40 " style="fill:#d85e15; stroke-width:1; stroke:black; " description="&lt;b&gt;input.path1.gene64&lt;/b&gt;&lt;br&gt;input.path1.gene64&lt;br&gt;Location: 293738 - 294446" locus_tag="input.path1.gene64" class="clusterblast-orf" id="dummy-2_q5_0_all"  />
<polygon points="386,35 391,30 393,30 393,40 391,40 386,35 " style="fill:#2ed815; stroke-width:1; stroke:black; " description="&lt;b&gt;input.path1.gene65&lt;/b&gt;&lt;br&gt;input.path1.gene65&lt;br&gt;Location: 295723 - 296547" locus_tag="input.path1.gene65" class="clusterblast-orf" id="dummy-2_q6_0_all"  />
<polygon points="393,40 398,40 403,35 398,30 393,30 393,40 " style="fill:white; stroke-width:1; stroke:black; " description="&lt;b&gt;input.path1.gene66&lt;/b&gt;&lt;br&gt;input.path1.gene66&lt;br&gt;Location: 296633 - 297820" locus_tag="input.path1.gene66" class="clusterblast-orf" id="dummy-2_q7_0_all"  />
<polygon points="408,35 413,30 421,30 421,40 413,40 408,35 " style="fill:white; stroke-width:1; stroke:black; " description="&lt;b&gt;input.path1.gene67&lt;/b&gt;&lt;br&gt;input.path1.gene67&lt;br&gt;Location: 298509 - 300232" locus_tag="input.path1.gene67" class="clusterblast-orf" id="dummy-2_q8_0_all"  />
<polygon points="422,40 445,40 450,35 445,30 422,30 422,40 " style="fill:#158fd8; stroke-width:1; stroke:black; " description="&lt;b&gt;input.path1.gene68&lt;/b&gt;&lt;br&gt;input.path1.gene68&lt;br&gt;Location: 300320 - 303886" locus_tag="input.path1.gene68" class="clusterblast-orf" id="dummy-2_q9_0_all"  />
<polygon points="454,35 459,30 466,30 466,40 459,40 454,35 " style="fill:#c015d8; stroke-width:1; stroke:black; " description="&lt;b&gt;input.path1.gene69&lt;/b&gt;&lt;br&gt;input.path1.gene69&lt;br&gt;Location: 304479 - 305991" locus_tag="input.path1.gene69" class="clusterblast-orf" id="dummy-2_q10_0_all"  />
<polygon points="477,40 483,40 488,35 483,30 477,30 477,40 " style="fill:#d8a715; stroke-width:1; stroke:black; " description="&lt;b&gt;input.path1.gene70&lt;/b&gt;&lt;br&gt;input.path1.gene70&lt;br&gt;Location: 307379 - 308818" locus_tag="input.path1.gene70" class="clusterblast-orf" id="dummy-2_q11_0_all"  />
<polygon points="498,40 502,40 507,35 502,30 498,30 498,40 " style="fill:#15d846; stroke-width:1; stroke:black; " description="&lt;b&gt;input.path1.gene71&lt;/b&gt;&lt;br&gt;input.path1.gene71&lt;br&gt;Location: 310059 - 311281" locus_tag="input.path1.gene71" class="clusterblast-orf" id="dummy-2_q12_0_all"  />
<polygon points="507,35 512,30 532,30 532,40 512,40 507,35 " style="fill:#1546d8; stroke-width:1; stroke:black; " description="&lt;b&gt;input.path1.gene72&lt;/b&gt;&lt;br&gt;input.path1.gene72&lt;br&gt;Location: 311277 - 314549" locus_tag="input.path1.gene72" class="clusterblast-orf" id="dummy-2_q13_0_all"  />
<polygon points="536,40 539,40 544,35 539,30 536,30 536,40 " style="fill:#d815a7; stroke-width:1; stroke:black; " description="&lt;b&gt;input.path1.gene73&lt;/b&gt;&lt;br&gt;input.path1.gene73&lt;br&gt;Location: 315032 - 316007" locus_tag="input.path1.gene73" class="clusterblast-orf" id="dummy-2_q14_0_all"  />
<polygon points="544,35 549,30 580,30 580,40 549,40 544,35 " style="fill:#c0d815; stroke-width:1; stroke:black; " description="&lt;b&gt;input.path1.gene74&lt;/b&gt;&lt;br&gt;input.path1.gene74&lt;br&gt;Location: 316046 - 320704" locus_tag="input.path1.gene74" class="clusterblast-orf" id="dummy-2_q15_0_all"  />
<polygon points="581,40 606,40 611,35 606,30 581,30 581,40 " style="fill:#15d88f; stroke-width:1; stroke:black; " description="&lt;b&gt;input.path1.gene75&lt;/b&gt;&lt;br&gt;input.path1.gene75&lt;br&gt;Location: 320769 - 324667" locus_tag="input.path1.gene75" class="clusterblast-orf" id="dummy-2_q16_0_all"  />
<polygon points="614,35 616,30 616,40 614,35 " style="fill:#2e15d8; stroke-width:1; stroke:black; " description="&lt;b&gt;input.path1.gene76&lt;/b&gt;&lt;br&gt;input.path1.gene76&lt;br&gt;Location: 325059 - 325376" locus_tag="input.path1.gene76" class="clusterblast-orf" id="dummy-2_q17_0_all"  />
<polygon points="618,40 618,40 623,35 618,30 618,30 618,40 " style="fill:#d8155e; stroke-width:1; stroke:black; " description="&lt;b&gt;input.path1.gene77&lt;/b&gt;&lt;br&gt;input.path1.gene77&lt;br&gt;Location: 325651 - 326278" locus_tag="input.path1.gene77" class="clusterblast-orf" id="dummy-2_q18_0_all"  />
</g>
<g label="NW_020194479" description="NW_020194479 (1449493-1553698): Amorphotheca resinae ATCC 22711 unplaced geno... (5% of genes show similarity), fungal-RiPP-like" class="clusterblast-cluster"  >
<text x="5" y="70" class="clusterblast-acc"  >
<a xlink:href="https://antismash-db.secondarymetabolites.org/area?record=NW_020194479&amp;start=1449493&amp;end=1553698" target="_blank">NW_020194479 (1449493-1553698)</a>: Amorphotheca resinae ATCC 22711 unplaced geno... (5% of genes show similarity), fungal-RiPP-like</text>
<line x1="10" y1="85" x2="778.0" y2="85" style="stroke-width:1; stroke:grey; "  />
</g>
<g id="a2_000"  >
<polygon points="0,90 4,90 9,85 4,80 0,80 0,90 " style="fill:white; stroke-width:1; stroke:black; " description="&lt;b&gt;M430DRAFT_68360&lt;/b&gt;&lt;br&gt;hypothetical protein&lt;br&gt;Location: 1450963 - 1452179" locus_tag="M430DRAFT_68360" class="clusterblast-orf" id="dummy-2_h2_9_0"  />
</g>
<g id="a2_001"  >
<polygon points="13,85 18,80 24,80 24,90 18,90 13,85 " style="fill:white; stroke-width:1; stroke:black; " description="&lt;b&gt;M430DRAFT_29779&lt;/b&gt;&lt;br&gt;hypothetical protein&lt;br&gt;Location: 1452706 - 1454073" locus_tag="M430DRAFT_29779" class="clusterblast-orf" id="dummy-2_h2_9_1"  />
</g>
<g id="a2_002"  >
<polygon points="32,85 37,80 47,80 47,90 37,90 32,85 " style="fill:white; stroke-width:1; stroke:black; " description="&lt;b&gt;M430DRAFT_105712&lt;/b&gt;&lt;br&gt;hypothetical protein&lt;br&gt;Location: 1455134 - 1457038" locus_tag="M430DRAFT_105712" class="clusterblast-orf" id="dummy-2_h2_9_2"  />
</g>
<g id="a2_003"  >
<polygon points="55,85 60,80 67,80 67,90 60,90 55,85 " style="fill:white; stroke-width:1; stroke:black; " description="&lt;b&gt;M430DRAFT_36341&lt;/b&gt;&lt;br&gt;hypothetical protein&lt;br&gt;Location: 1458096 - 1459643" locus_tag="M430DRAFT_36341" class="clusterblast-orf" id="dummy-2_h2_9_3"  />
</g>
<g id="a2_004"  >
<polygon points="72,90 105,90 110,85 105,80 72,80 72,90 " style="fill:white; stroke-width:1; stroke:black; " description="&lt;b&gt;M430DRAFT_125308&lt;/b&gt;&lt;br&gt;hypothetical protein&lt;br&gt;Location: 1460295 - 1465211" locus_tag="M430DRAFT_125308" class="clusterblast-orf" id="dummy-2_h2_9_4"  />
</g>
<g id="a2_005"  >
<polygon points="113,90 119,90 124,85 119,80 113,80 113,90 " style="fill:white; stroke-width:1; stroke:black; " description="&lt;b&gt;M430DRAFT_68365&lt;/b&gt;&lt;br&gt;hypothetical protein&lt;br&gt;Location: 1465565 - 1467022" locus_tag="M430DRAFT_68365" class="clusterblast-orf" id="dummy-2_h2_9_5"  />
</g>
<g id="a2_006"  >
<polygon points="127,90 134,90 139,85 134,80 127,80 127,90 " style="fill:white; stroke-width:1; stroke:black; " description="&lt;b&gt;M430DRAFT_29784&lt;/b&gt;&lt;br&gt;hypothetical protein&lt;br&gt;Location: 1467468 - 1468980" locus_tag="M430DRAFT_29784" class="clusterblast-orf" id="dummy-2_h2_9_6"  />
</g>
<g id="a2_007"  >
<polygon points="151,85 156,80 160,80 160,90 156,90 151,85 " style="fill:white; stroke-width:1; stroke:black; " description="&lt;b&gt;M430DRAFT_266832&lt;/b&gt;&lt;br&gt;hypothetical protein&lt;br&gt;Location: 1470458 - 1471639" locus_tag="M430DRAFT_266832" class="clusterblast-orf" id="dummy-2_h2_9_7"  />
</g>
<g id="a2_008"  >
<polygon points="197,85 202,80 226,80 226,90 202,90 197,85 " style="fill:white; stroke-width:1; stroke:black; " description="&lt;b&gt;M430DRAFT_21152&lt;/b&gt;&lt;br&gt;hypothetical protein&lt;br&gt;Location: 1476424 - 1480215" locus_tag="M430DRAFT_21152" class="clusterblast-orf" id="dummy-2_h2_9_8"  />
</g>
<g id="a2_009"  >
<polygon points="236,85 239,80 239,90 236,85 " style="fill:white; stroke-width:1; stroke:black; " description="&lt;b&gt;M430DRAFT_36345&lt;/b&gt;&lt;br&gt;hypothetical protein&lt;br&gt;Location: 1481491 - 1481832" locus_tag="M430DRAFT_36345" class="clusterblast-orf" id="dummy-2_h2_9_9"  />
</g>
<g id="a2_0010"  >
<polygon points="240,90 243,90 248,85 243,80 240,80 240,90 " style="fill:white; stroke-width:1; stroke:black; " description="&lt;b&gt;M430DRAFT_36346&lt;/b&gt;&lt;br&gt;hypothetical protein&lt;br&gt;Location: 1482017 - 1482988" locus_tag="M430DRAFT_36346" class="clusterblast-orf" id="dummy-2_h2_9_10"  />
</g>
<g id="a2_0011"  >
<polygon points="255,90 264,90 269,85 264,80 255,80 255,90 " style="fill:white; stroke-width:1; stroke:black; " description="&lt;b&gt;M430DRAFT_266886&lt;/b&gt;&lt;br&gt;hypothetical protein&lt;br&gt;Location: 1483872 - 1485757" locus_tag="M430DRAFT_266886" class="clusterblast-orf" id="dummy-2_h2_9_11"  />
</g>
<g id="a2_0012"  >
<polygon points="273,85 278,80 279,80 279,90 278,90 273,85 " style="fill:white; stroke-width:1; stroke:black; " description="&lt;b&gt;M430DRAFT_29790&lt;/b&gt;&lt;br&gt;hypothetical protein&lt;br&gt;Location: 1486226 - 1487028" locus_tag="M430DRAFT_29790" class="clusterblast-orf" id="dummy-2_h2_9_12"  />
</g>
<g id="a2_0013"  >
<polygon points="285,90 330,90 335,85 330,80 285,80 285,90 " style="fill:white; stroke-width:1; stroke:black; " description="&lt;b&gt;M430DRAFT_144031&lt;/b&gt;&lt;br&gt;hypothetical protein&lt;br&gt;Location: 1487811 - 1494294" locus_tag="M430DRAFT_144031" class="clusterblast-orf" id="dummy-2_h2_9_13"  />
</g>
<g id="a2_0014"  >
<polygon points="337,85 342,80 351,80 351,90 342,90 337,85 " style="fill:white; stroke-width:1; stroke:black; " description="&lt;b&gt;M430DRAFT_21158&lt;/b&gt;&lt;br&gt;hypothetical protein&lt;br&gt;Location: 1494494 - 1496353" locus_tag="M430DRAFT_21158" class="clusterblast-orf" id="dummy-2_h2_9_14"  />
</g>
<g id="a2_0015"  >
<polygon points="357,85 362,80 364,80 364,90 362,90 357,85 " style="fill:white; stroke-width:1; stroke:black; " description="&lt;b&gt;M430DRAFT_21159&lt;/b&gt;&lt;br&gt;hypothetical protein&lt;br&gt;Location: 1497096 - 1497923" locus_tag="M430DRAFT_21159" class="clusterblast-orf" id="dummy-2_h2_9_15"  />
</g>
<g id="a2_0016"  >
<polygon points="373,85 378,80 381,80 381,90 378,90 373,85 " style="fill:white; stroke-width:1; stroke:black; " description="&lt;b&gt;M430DRAFT_106021&lt;/b&gt;&lt;br&gt;hypothetical protein&lt;br&gt;Location: 1499133 - 1500137" locus_tag="M430DRAFT_106021" class="clusterblast-orf" id="dummy-2_h2_9_16"  />
</g>
<g id="a2_0017"  >
<polygon points="387,85 391,80 391,90 387,85 " style="fill:white; stroke-width:1; stroke:black; " description="&lt;b&gt;M430DRAFT_29795&lt;/b&gt;&lt;br&gt;hypothetical protein&lt;br&gt;Location: 1500939 - 1501460" locus_tag="M430DRAFT_29795" class="clusterblast-orf" id="dummy-2_h2_9_17"  />
</g>
<g id="a2_0018"  >
<polygon points="402,90 402,90 407,85 402,80 402,80 402,90 " style="fill:white; stroke-width:1; stroke:black; " description="&lt;b&gt;M430DRAFT_21162&lt;/b&gt;&lt;br&gt;hypothetical protein&lt;br&gt;Location: 1502898 - 1503572" locus_tag="M430DRAFT_21162" class="clusterblast-orf" id="dummy-2_h2_9_18"  />
</g>
<g id="a2_0019"  >
<polygon points="410,85 414,80 414,90 410,85 " style="fill:white; stroke-width:1; stroke:black; " description="&lt;b&gt;M430DRAFT_29796&lt;/b&gt;&lt;br&gt;hypothetical protein&lt;br&gt;Location: 1503863 - 1504377" locus_tag="M430DRAFT_29796" class="clusterblast-orf" id="dummy-2_h2_9_19"  />
</g>
<g id="a2_0020"  >
<polygon points="424,85 429,80 432,80 432,90 429,90 424,85 " style="fill:#2ed815; stroke-width:1; stroke:black; " description="&lt;b&gt;M430DRAFT_21164&lt;/b&gt;&lt;br&gt;hypothetical protein&lt;br&gt;Location: 1505655 - 1506769&lt;br&gt;&lt;br&gt;&lt;b&gt;BlastP hit with input.path1.gene65&lt;/b&gt;&lt;br&gt;Percentage identity: 32&lt;br&gt;Percentage coverage: 88&lt;br&gt;BLAST bit score: 68&lt;br&gt;E-value: 7.27e-12" locus_tag="M430DRAFT_21164" class="clusterblast-orf" id="dummy-2_h2_9_20"  />
</g>
<g id="a2_0021"  >
<polygon points="439,90 442,90 447,85 442,80 439,80 439,90 " style="fill:white; stroke-width:1; stroke:black; " description="&lt;b&gt;M430DRAFT_44048&lt;/b&gt;&lt;br&gt;hypothetical protein&lt;br&gt;Location: 1507689 - 1508698" locus_tag="M430DRAFT_44048" class="clusterblast-orf" id="dummy-2_h2_9_21"  />
</g>
<g id="a2_0022"  >
<polygon points="450,90 484,90 489,85 484,80 450,80 450,90 " style="fill:#158fd8; stroke-width:1; stroke:black; " description="&lt;b&gt;M430DRAFT_68374&lt;/b&gt;&lt;br&gt;hypothetical protein&lt;br&gt;Location: 1509078 - 1514147&lt;br&gt;&lt;br&gt;&lt;b&gt;BlastP hit with input.path1.gene68&lt;/b&gt;&lt;br&gt;Percentage identity: 32&lt;br&gt;Percentage coverage: 113&lt;br&gt;BLAST bit score: 464&lt;br&gt;E-value: 1.08e-142" locus_tag="M430DRAFT_68374" class="clusterblast-orf" id="dummy-2_h2_9_22"  />
</g>
<g id="a2_0023"  >
<polygon points="499,90 509,90 514,85 509,80 499,80 499,90 " style="fill:white; stroke-width:1; stroke:black; " description="&lt;b&gt;M430DRAFT_36349&lt;/b&gt;&lt;br&gt;hypothetical protein&lt;br&gt;Location: 1515433 - 1517266" locus_tag="M430DRAFT_36349" class="clusterblast-orf" id="dummy-2_h2_9_23"  />
</g>
<g id="a2_0024"  >
<polygon points="519,85 523,80 523,90 519,85 " style="fill:white; stroke-width:1; stroke:black; " description="&lt;b&gt;M430DRAFT_36350&lt;/b&gt;&lt;br&gt;hypothetical protein&lt;br&gt;Location: 1517978 - 1518499" locus_tag="M430DRAFT_36350" class="clusterblast-orf" id="dummy-2_h2_9_24"  />
</g>
<g id="a2_0025"  >
<polygon points="532,90 551,90 556,85 551,80 532,80 532,90 " style="fill:white; stroke-width:1; stroke:black; " description="&lt;b&gt;M430DRAFT_267029&lt;/b&gt;&lt;br&gt;hypothetical protein&lt;br&gt;Location: 1519633 - 1522681" locus_tag="M430DRAFT_267029" class="clusterblast-orf" id="dummy-2_h2_9_25"  />
</g>
<g id="a2_0026"  >
<polygon points="559,90 562,90 567,85 562,80 559,80 559,90 " style="fill:white; stroke-width:1; stroke:black; " description="&lt;b&gt;M430DRAFT_75617&lt;/b&gt;&lt;br&gt;hypothetical protein&lt;br&gt;Location: 1523146 - 1524168" locus_tag="M430DRAFT_75617" class="clusterblast-orf" id="dummy-2_h2_9_26"  />
</g>
<g id="a2_0027"  >
<polygon points="569,85 574,80 579,80 579,90 574,90 569,85 " style="fill:white; stroke-width:1; stroke:black; " description="&lt;b&gt;M430DRAFT_29804&lt;/b&gt;&lt;br&gt;hypothetical protein&lt;br&gt;Location: 1524371 - 1525661" locus_tag="M430DRAFT_29804" class="clusterblast-orf" id="dummy-2_h2_9_27"  />
</g>
<g id="a2_0028"  >
<polygon points="582,90 591,90 596,85 591,80 582,80 582,90 " style="fill:white; stroke-width:1; stroke:black; " description="&lt;b&gt;M430DRAFT_21172&lt;/b&gt;&lt;br&gt;hypothetical protein&lt;br&gt;Location: 1526071 - 1527841" locus_tag="M430DRAFT_21172" class="clusterblast-orf" id="dummy-2_h2_9_28"  />
</g>
<g id="a2_0029"  >
<polygon points="597,85 602,80 605,80 605,90 602,90 597,85 " style="fill:white; stroke-width:1; stroke:black; " description="&lt;b&gt;M430DRAFT_68381&lt;/b&gt;&lt;br&gt;hypothetical protein&lt;br&gt;Location: 1527999 - 1529077" locus_tag="M430DRAFT_68381" class="clusterblast-orf" id="dummy-2_h2_9_29"  />
</g>
<g id="a2_0030"  >
<polygon points="609,90 613,90 618,85 613,80 609,80 609,90 " style="fill:white; stroke-width:1; stroke:black; " description="&lt;b&gt;M430DRAFT_106273&lt;/b&gt;&lt;br&gt;hypothetical protein&lt;br&gt;Location: 1529603 - 1530700" locus_tag="M430DRAFT_106273" class="clusterblast-orf" id="dummy-2_h2_9_30"  />
</g>
<g id="a2_0031"  >
<polygon points="619,85 624,80 624,80 624,90 624,90 619,85 " style="fill:white; stroke-width:1; stroke:black; " description="&lt;b&gt;M430DRAFT_60388&lt;/b&gt;&lt;br&gt;hypothetical protein&lt;br&gt;Location: 1530831 - 1531499" locus_tag="M430DRAFT_60388" class="clusterblast-orf" id="dummy-2_h2_9_31"  />
</g>
<g id="a2_0032"  >
<polygon points="630,85 635,80 660,80 660,90 635,90 630,85 " style="fill:white; stroke-width:1; stroke:black; " description="&lt;b&gt;M430DRAFT_267074&lt;/b&gt;&lt;br&gt;hypothetical protein&lt;br&gt;Location: 1532218 - 1536186" locus_tag="M430DRAFT_267074" class="clusterblast-orf" id="dummy-2_h2_9_32"  />
</g>
<g id="a2_0033"  >
<polygon points="682,90 686,85 682,80 682,90 " style="fill:white; stroke-width:1; stroke:black; " description="&lt;b&gt;M430DRAFT_125357&lt;/b&gt;&lt;br&gt;hypothetical protein&lt;br&gt;Location: 1538920 - 1539498" locus_tag="M430DRAFT_125357" class="clusterblast-orf" id="dummy-2_h2_9_33"  />
</g>
<g id="a2_0034"  >
<polygon points="690,90 699,90 704,85 699,80 690,80 690,90 " style="fill:white; stroke-width:1; stroke:black; " description="&lt;b&gt;M430DRAFT_21178&lt;/b&gt;&lt;br&gt;hypothetical protein&lt;br&gt;Location: 1539993 - 1541777" locus_tag="M430DRAFT_21178" class="clusterblast-orf" id="dummy-2_h2_9_34"  />
</g>
<g id="a2_0035"  >
<polygon points="707,85 712,80 727,80 727,90 712,90 707,85 " style="fill:white; stroke-width:1; stroke:black; " description="&lt;b&gt;M430DRAFT_44061&lt;/b&gt;&lt;br&gt;hypothetical protein&lt;br&gt;Location: 1542242 - 1544791" locus_tag="M430DRAFT_44061" class="clusterblast-orf" id="dummy-2_h2_9_35"  />
</g>
<g id="a2_0036"  >
<polygon points="733,85 738,80 756,80 756,90 738,90 733,85 " style="fill:white; stroke-width:1; stroke:black; " description="&lt;b&gt;M430DRAFT_267162&lt;/b&gt;&lt;br&gt;hypothetical protein&lt;br&gt;Location: 1545604 - 1548561" locus_tag="M430DRAFT_267162" class="clusterblast-orf" id="dummy-2_h2_9_36"  />
</g>
<g id="a2_0037"  >
<polygon points="771,90 775,90 780,85 775,80 771,80 771,90 " style="fill:white; stroke-width:1; stroke:black; " description="&lt;b&gt;M430DRAFT_21181&lt;/b&gt;&lt;br&gt;hypothetical protein&lt;br&gt;Location: 1550511 - 1551554" locus_tag="M430DRAFT_21181" class="clusterblast-orf" id="dummy-2_h2_9_37"  />
</g>
</svg>
