<svg xmlns="http://www.w3.org/2000/svg" xmlns:xlink="http://www.w3.org/1999/xlink" version="1.1" x="0" y="0" height="230" width="800" viewBox="0 0 800 230" preserveAspectRatio="none"  >
<g label="Query sequence" class="clusterblast-cluster"  >
<text x="5" y="20" class="clusterblast-acc"  >
Query sequence</text>
<line x1="10" y1="35" x2="778.0" y2="35" style="stroke-width:1; stroke:grey; "  />
<polygon points="168,40 169,40 174,35 169,30 168,30 168,40 " style="fill:#d81515; stroke-width:1; stroke:black; " description="&lt;b&gt;input.path1.gene509&lt;/b&gt;&lt;br&gt;input.path1.gene509&lt;br&gt;Location: 1889245 - 1889725" locus_tag="input.path1.gene509" class="clusterblast-orf" id="dummy-3_q0_0_all"  />
<polygon points="188,40 223,40 228,35 223,30 188,30 188,40 " style="fill:#3cd815; stroke-width:1; stroke:black; " description="&lt;b&gt;input.path1.gene510&lt;/b&gt;&lt;br&gt;input.path1.gene510&lt;br&gt;Location: 1890855 - 1894073" locus_tag="input.path1.gene510" class="clusterblast-orf" id="dummy-3_q1_0_all"  />
<polygon points="254,35 259,30 260,30 260,40 259,40 254,35 " style="fill:#1563d8; stroke-width:1; stroke:black; " description="&lt;b&gt;input.path1.gene511&lt;/b&gt;&lt;br&gt;input.path1.gene511&lt;br&gt;Location: 1896149 - 1896591" locus_tag="input.path1.gene511" class="clusterblast-orf" id="dummy-3_q2_0_all"  />
<polygon points="296,35 301,30 328,30 328,40 301,40 296,35 " style="fill:#b115d8; stroke-width:1; stroke:black; " description="&lt;b&gt;input.path1.gene512&lt;/b&gt;&lt;br&gt;input.path1.gene512&lt;br&gt;Location: 1899504 - 1902068" locus_tag="input.path1.gene512" class="clusterblast-orf" id="dummy-3_q3_0_all"  />
<polygon points="338,40 342,40 347,35 342,30 338,30 338,40 " style="fill:#d88a15; stroke-width:1; stroke:black; " description="&lt;b&gt;input.path1.gene513&lt;/b&gt;&lt;br&gt;input.path1.gene513&lt;br&gt;Location: 1902863 - 1903594" locus_tag="input.path1.gene513" class="clusterblast-orf" id="dummy-3_q4_0_all"  />
<polygon points="376,40 413,40 418,35 413,30 376,30 376,40 " style="fill:#15d863; stroke-width:1; stroke:black; " description="&lt;b&gt;input.path1.gene514&lt;/b&gt;&lt;br&gt;input.path1.gene514&lt;br&gt;Location: 1905893 - 1909268" locus_tag="input.path1.gene514" class="clusterblast-orf" id="dummy-3_q5_0_all"  />
<polygon points="455,35 460,30 489,30 489,40 460,40 455,35 " style="fill:#3c15d8; stroke-width:1; stroke:black; " description="&lt;b&gt;input.path1.gene515&lt;/b&gt;&lt;br&gt;input.path1.gene515&lt;br&gt;Location: 1912210 - 1914999" locus_tag="input.path1.gene515" class="clusterblast-orf" id="dummy-3_q6_0_all"  />
<polygon points="510,40 527,40 532,35 527,30 510,30 510,40 " style="fill:#d8158a; stroke-width:1; stroke:black; " description="&lt;b&gt;input.path1.gene516&lt;/b&gt;&lt;br&gt;input.path1.gene516&lt;br&gt;Location: 1916655 - 1918458" locus_tag="input.path1.gene516" class="clusterblast-orf" id="dummy-3_q7_0_all"  />
<polygon points="546,40 549,40 554,35 549,30 546,30 546,40 " style="fill:#b1d815; stroke-width:1; stroke:black; " description="&lt;b&gt;input.path1.gene517&lt;/b&gt;&lt;br&gt;input.path1.gene517&lt;br&gt;Location: 1919532 - 1920175" locus_tag="input.path1.gene517" class="clusterblast-orf" id="dummy-3_q8_0_all"  />
<polygon points="560,35 565,30 576,30 576,40 565,40 560,35 " style="fill:#15d8d8; stroke-width:1; stroke:black; " description="&lt;b&gt;input.path1.gene518&lt;/b&gt;&lt;br&gt;input.path1.gene518&lt;br&gt;Location: 1920689 - 1921941" locus_tag="input.path1.gene518" class="clusterblast-orf" id="dummy-3_q9_0_all"  />
<polygon points="592,40 595,40 600,35 595,30 592,30 592,40 " style="fill:white; stroke-width:1; stroke:black; " description="&lt;b&gt;input.path1.gene519&lt;/b&gt;&lt;br&gt;input.path1.gene519&lt;br&gt;Location: 1923219 - 1923864" locus_tag="input.path1.gene519" class="clusterblast-orf" id="dummy-3_q10_0_all"  />
<polygon points="606,35 611,30 611,30 611,40 611,40 606,35 " style="fill:#15d8d8; stroke-width:1; stroke:black; " description="&lt;b&gt;input.path1.gene520&lt;/b&gt;&lt;br&gt;input.path1.gene520&lt;br&gt;Location: 1924359 - 1924760" locus_tag="input.path1.gene520" class="clusterblast-orf" id="dummy-3_q11_0_all"  />
</g>
<g label="NW_006711149" description="NW_006711149 (1920510-1985741): Trichoderma reesei QM6a unplaced genomic scaf... (20% of genes show similarity), NRPS-like" class="clusterblast-cluster"  >
<text x="5" y="70" class="clusterblast-acc"  >
<a xlink:href="https://antismash-db.secondarymetabolites.org/area?record=NW_006711149&amp;start=1920510&amp;end=1985741" target="_blank">NW_006711149 (1920510-1985741)</a>: Trichoderma reesei QM6a unplaced genomic scaf... (20% of genes show similarity), NRPS-like</text>
<line x1="10" y1="85" x2="778.0" y2="85" style="stroke-width:1; stroke:grey; "  />
</g>
<g id="a3_000"  >
<polygon points="0,90 34,90 39,85 34,80 0,80 0,90 " style="fill:white; stroke-width:1; stroke:black; " description="&lt;b&gt;TRIREDRAFT_21553&lt;/b&gt;&lt;br&gt;uncharacterized protein&lt;br&gt;Location: 1985408 - 1982240" locus_tag="TRIREDRAFT_21553" class="clusterblast-orf" id="dummy-3_h3_6_0"  />
</g>
<g id="a3_001"  >
<polygon points="40,85 45,80 54,80 54,90 45,90 40,85 " style="fill:white; stroke-width:1; stroke:black; " description="&lt;b&gt;TRIREDRAFT_120300&lt;/b&gt;&lt;br&gt;uncharacterized protein&lt;br&gt;Location: 1982160 - 1981037" locus_tag="TRIREDRAFT_120300" class="clusterblast-orf" id="dummy-3_h3_6_1"  />
</g>
<g id="a3_002"  >
<polygon points="66,90 102,90 107,85 102,80 66,80 66,90 " style="fill:white; stroke-width:1; stroke:black; " description="&lt;b&gt;TRIREDRAFT_55321&lt;/b&gt;&lt;br&gt;uncharacterized protein&lt;br&gt;Location: 1980072 - 1976824" locus_tag="TRIREDRAFT_55321" class="clusterblast-orf" id="dummy-3_h3_6_2"  />
</g>
<g id="a3_003"  >
<polygon points="111,85 116,80 133,80 133,90 116,90 111,85 " style="fill:#1563d8; stroke-width:1; stroke:black; " description="&lt;b&gt;TRIREDRAFT_55099&lt;/b&gt;&lt;br&gt;uncharacterized protein&lt;br&gt;Location: 1976467 - 1974737&lt;br&gt;&lt;br&gt;&lt;b&gt;BlastP hit with input.path1.gene511&lt;/b&gt;&lt;br&gt;Percentage identity: 57&lt;br&gt;Percentage coverage: 98&lt;br&gt;BLAST bit score: 151&lt;br&gt;E-value: 1.55e-42" locus_tag="TRIREDRAFT_55099" class="clusterblast-orf" id="dummy-3_h3_6_3"  />
</g>
<g id="a3_004"  >
<polygon points="140,85 145,80 164,80 164,90 145,90 140,85 " style="fill:white; stroke-width:1; stroke:black; " description="&lt;b&gt;TRIREDRAFT_55123&lt;/b&gt;&lt;br&gt;uncharacterized protein&lt;br&gt;Location: 1974102 - 1972184" locus_tag="TRIREDRAFT_55123" class="clusterblast-orf" id="dummy-3_h3_6_4"  />
</g>
<g id="a3_005"  >
<polygon points="181,90 224,90 229,85 224,80 181,80 181,90 " style="fill:white; stroke-width:1; stroke:black; " description="&lt;b&gt;TRIREDRAFT_75105&lt;/b&gt;&lt;br&gt;uncharacterized protein&lt;br&gt;Location: 1970834 - 1967013" locus_tag="TRIREDRAFT_75105" class="clusterblast-orf" id="dummy-3_h3_6_5"  />
</g>
<g id="a3_006"  >
<polygon points="235,85 240,80 260,80 260,90 240,90 235,85 " style="fill:white; stroke-width:1; stroke:black; " description="&lt;b&gt;TRIREDRAFT_55570&lt;/b&gt;&lt;br&gt;exocyst complex subunit&lt;br&gt;Location: 1966505 - 1964534" locus_tag="TRIREDRAFT_55570" class="clusterblast-orf" id="dummy-3_h3_6_6"  />
</g>
<g id="a3_007"  >
<polygon points="272,90 275,85 272,80 272,90 " style="fill:white; stroke-width:1; stroke:black; " description="&lt;b&gt;TRIREDRAFT_43312&lt;/b&gt;&lt;br&gt;uncharacterized protein&lt;br&gt;Location: 1963515 - 1963287" locus_tag="TRIREDRAFT_43312" class="clusterblast-orf" id="dummy-3_h3_6_7"  />
</g>
<g id="a3_008"  >
<polygon points="277,85 282,80 309,80 309,90 282,90 277,85 " style="fill:#b115d8; stroke-width:1; stroke:black; " description="&lt;b&gt;TRIREDRAFT_75102&lt;/b&gt;&lt;br&gt;uncharacterized protein&lt;br&gt;Location: 1963116 - 1960549&lt;br&gt;&lt;br&gt;&lt;b&gt;BlastP hit with input.path1.gene512&lt;/b&gt;&lt;br&gt;Percentage identity: 81&lt;br&gt;Percentage coverage: 98&lt;br&gt;BLAST bit score: 1149&lt;br&gt;E-value: 0.0" locus_tag="TRIREDRAFT_75102" class="clusterblast-orf" id="dummy-3_h3_6_8"  />
</g>
<g id="a3_009"  >
<polygon points="315,90 324,90 329,85 324,80 315,80 315,90 " style="fill:#d88a15; stroke-width:1; stroke:black; " description="&lt;b&gt;TRIREDRAFT_2476&lt;/b&gt;&lt;br&gt;uncharacterized protein&lt;br&gt;Location: 1960087 - 1959001&lt;br&gt;&lt;br&gt;&lt;b&gt;BlastP hit with input.path1.gene513&lt;/b&gt;&lt;br&gt;Percentage identity: 90&lt;br&gt;Percentage coverage: 100&lt;br&gt;BLAST bit score: 337&lt;br&gt;E-value: 1.67e-116" locus_tag="TRIREDRAFT_2476" class="clusterblast-orf" id="dummy-3_h3_6_9"  />
</g>
<g id="a3_0010"  >
<polygon points="331,85 336,80 349,80 349,90 336,90 331,85 " style="fill:white; stroke-width:1; stroke:black; " description="&lt;b&gt;TRIREDRAFT_120294&lt;/b&gt;&lt;br&gt;uncharacterized protein&lt;br&gt;Location: 1958803 - 1957338" locus_tag="TRIREDRAFT_120294" class="clusterblast-orf" id="dummy-3_h3_6_10"  />
</g>
<g id="a3_0011"  >
<polygon points="369,90 430,90 435,85 430,80 369,80 369,90 " style="fill:#15d863; stroke-width:1; stroke:black; " description="&lt;b&gt;TRIREDRAFT_55306&lt;/b&gt;&lt;br&gt;uncharacterized protein&lt;br&gt;Location: 1955741 - 1950511&lt;br&gt;&lt;br&gt;&lt;b&gt;BlastP hit with input.path1.gene514&lt;/b&gt;&lt;br&gt;Percentage identity: 40&lt;br&gt;Percentage coverage: 126&lt;br&gt;BLAST bit score: 506&lt;br&gt;E-value: 4.22e-160" locus_tag="TRIREDRAFT_55306" class="clusterblast-orf" id="dummy-3_h3_6_11"  />
</g>
<g id="a3_0012"  >
<polygon points="438,85 443,80 450,80 450,90 443,90 438,85 " style="fill:white; stroke-width:1; stroke:black; " description="&lt;b&gt;TRIREDRAFT_55589&lt;/b&gt;&lt;br&gt;uncharacterized protein&lt;br&gt;Location: 1950219 - 1949294" locus_tag="TRIREDRAFT_55589" class="clusterblast-orf" id="dummy-3_h3_6_12"  />
</g>
<g id="a3_0013"  >
<polygon points="458,90 488,90 493,85 488,80 458,80 458,90 " style="fill:white; stroke-width:1; stroke:black; " description="&lt;b&gt;TRIREDRAFT_104021&lt;/b&gt;&lt;br&gt;uncharacterized protein&lt;br&gt;Location: 1948616 - 1945836" locus_tag="TRIREDRAFT_104021" class="clusterblast-orf" id="dummy-3_h3_6_13"  />
</g>
<g id="a3_0014"  >
<polygon points="497,85 502,80 532,80 532,90 502,90 497,85 " style="fill:#3cd815; stroke-width:1; stroke:black; " description="&lt;b&gt;TRIREDRAFT_2474&lt;/b&gt;&lt;br&gt;uncharacterized protein&lt;br&gt;Location: 1945502 - 1942676&lt;br&gt;&lt;br&gt;&lt;b&gt;BlastP hit with input.path1.gene510&lt;/b&gt;&lt;br&gt;Percentage identity: 53&lt;br&gt;Percentage coverage: 137&lt;br&gt;BLAST bit score: 803&lt;br&gt;E-value: 1.58e-283" locus_tag="TRIREDRAFT_2474" class="clusterblast-orf" id="dummy-3_h3_6_14"  />
</g>
<g id="a3_0015"  >
<polygon points="553,90 579,90 584,85 579,80 553,80 553,90 " style="fill:white; stroke-width:1; stroke:black; " description="&lt;b&gt;TRIREDRAFT_45191&lt;/b&gt;&lt;br&gt;uncharacterized protein&lt;br&gt;Location: 1941031 - 1938499" locus_tag="TRIREDRAFT_45191" class="clusterblast-orf" id="dummy-3_h3_6_15"  />
</g>
<g id="a3_0016"  >
<polygon points="594,85 599,80 605,80 605,90 599,90 594,85 " style="fill:white; stroke-width:1; stroke:black; " description="&lt;b&gt;TRIREDRAFT_21549&lt;/b&gt;&lt;br&gt;uncharacterized protein&lt;br&gt;Location: 1937747 - 1936866" locus_tag="TRIREDRAFT_21549" class="clusterblast-orf" id="dummy-3_h3_6_16"  />
</g>
<g id="a3_0017"  >
<polygon points="612,85 617,80 626,80 626,90 617,90 612,85 " style="fill:white; stroke-width:1; stroke:black; " description="&lt;b&gt;TRIREDRAFT_104016&lt;/b&gt;&lt;br&gt;uncharacterized protein&lt;br&gt;Location: 1936301 - 1935118" locus_tag="TRIREDRAFT_104016" class="clusterblast-orf" id="dummy-3_h3_6_17"  />
</g>
<g id="a3_0018"  >
<polygon points="633,90 635,90 640,85 635,80 633,80 633,90 " style="fill:white; stroke-width:1; stroke:black; " description="&lt;b&gt;TRIREDRAFT_104015&lt;/b&gt;&lt;br&gt;uncharacterized protein&lt;br&gt;Location: 1934574 - 1934040" locus_tag="TRIREDRAFT_104015" class="clusterblast-orf" id="dummy-3_h3_6_18"  />
</g>
<g id="a3_0019"  >
<polygon points="643,85 648,80 657,80 657,90 648,90 643,85 " style="fill:white; stroke-width:1; stroke:black; " description="&lt;b&gt;TRIREDRAFT_120290&lt;/b&gt;&lt;br&gt;uncharacterized protein&lt;br&gt;Location: 1933797 - 1932642" locus_tag="TRIREDRAFT_120290" class="clusterblast-orf" id="dummy-3_h3_6_19"  />
</g>
<g id="a3_0020"  >
<polygon points="670,90 673,90 678,85 673,80 670,80 670,90 " style="fill:white; stroke-width:1; stroke:black; " description="&lt;b&gt;TRIREDRAFT_55421&lt;/b&gt;&lt;br&gt;uncharacterized protein&lt;br&gt;Location: 1931644 - 1930982" locus_tag="TRIREDRAFT_55421" class="clusterblast-orf" id="dummy-3_h3_6_20"  />
</g>
<g id="a3_0021"  >
<polygon points="685,85 690,80 710,80 710,90 690,90 685,85 " style="fill:white; stroke-width:1; stroke:black; " description="&lt;b&gt;TRIREDRAFT_55114&lt;/b&gt;&lt;br&gt;nucleoside diphosphatase&lt;br&gt;Location: 1930443 - 1928425" locus_tag="TRIREDRAFT_55114" class="clusterblast-orf" id="dummy-3_h3_6_21"  />
</g>
<g id="a3_0022"  >
<polygon points="739,85 744,80 744,80 744,90 744,90 739,85 " style="fill:white; stroke-width:1; stroke:black; " description="&lt;b&gt;TRIREDRAFT_55126&lt;/b&gt;&lt;br&gt;uncharacterized protein&lt;br&gt;Location: 1926100 - 1925691" locus_tag="TRIREDRAFT_55126" class="clusterblast-orf" id="dummy-3_h3_6_22"  />
</g>
<g id="a3_0023"  >
<polygon points="757,85 762,80 780,80 780,90 762,90 757,85 " style="fill:white; stroke-width:1; stroke:black; " description="&lt;b&gt;TRIREDRAFT_55891&lt;/b&gt;&lt;br&gt;uncharacterized protein&lt;br&gt;Location: 1924636 - 1922838" locus_tag="TRIREDRAFT_55891" class="clusterblast-orf" id="dummy-3_h3_6_23"  />
</g>
</svg>
