<svg xmlns="http://www.w3.org/2000/svg" xmlns:xlink="http://www.w3.org/1999/xlink" version="1.1" x="0" y="0" height="230" width="800" viewBox="0 0 800 230" preserveAspectRatio="none"  >
<g label="Query sequence" class="clusterblast-cluster"  >
<text x="5" y="20" class="clusterblast-acc"  >
Query sequence</text>
<line x1="10" y1="35" x2="778.0" y2="35" style="stroke-width:1; stroke:grey; "  />
<polygon points="336,35 341,30 342,30 342,40 341,40 336,35 " style="fill:white; stroke-width:1; stroke:black; " description="&lt;b&gt;input.path1.gene2&lt;/b&gt;&lt;br&gt;input.path1.gene2&lt;br&gt;Location: 13483 - 15122" locus_tag="input.path1.gene2" class="clusterblast-orf" id="dummy-1_q0_0_all"  />
<polygon points="342,40 348,40 353,35 348,30 342,30 342,40 " style="fill:white; stroke-width:1; stroke:black; " description="&lt;b&gt;input.path1.gene3&lt;/b&gt;&lt;br&gt;input.path1.gene3&lt;br&gt;Location: 15231 - 18400" locus_tag="input.path1.gene3" class="clusterblast-orf" id="dummy-1_q1_0_all"  />
<polygon points="354,40 357,35 354,30 354,40 " style="fill:white; stroke-width:1; stroke:black; " description="&lt;b&gt;input.path1.gene4&lt;/b&gt;&lt;br&gt;input.path1.gene4&lt;br&gt;Location: 18885 - 19608" locus_tag="input.path1.gene4" class="clusterblast-orf" id="dummy-1_q2_0_all"  />
<polygon points="357,35 362,30 363,30 363,40 362,40 357,35 " style="fill:white; stroke-width:1; stroke:black; " description="&lt;b&gt;input.path1.gene5&lt;/b&gt;&lt;br&gt;input.path1.gene5&lt;br&gt;Location: 19675 - 21550" locus_tag="input.path1.gene5" class="clusterblast-orf" id="dummy-1_q3_0_all"  />
<polygon points="367,40 368,40 373,35 368,30 367,30 367,40 " style="fill:white; stroke-width:1; stroke:black; " description="&lt;b&gt;input.path1.gene6&lt;/b&gt;&lt;br&gt;input.path1.gene6&lt;br&gt;Location: 22661 - 24460" locus_tag="input.path1.gene6" class="clusterblast-orf" id="dummy-1_q4_0_all"  />
<polygon points="374,35 379,30 384,30 384,40 379,40 374,35 " style="fill:#d81515; stroke-width:1; stroke:black; " description="&lt;b&gt;input.path1.gene7&lt;/b&gt;&lt;br&gt;input.path1.gene7&lt;br&gt;Location: 24876 - 27865" locus_tag="input.path1.gene7" class="clusterblast-orf" id="dummy-1_q5_0_all"  />
<polygon points="396,40 403,40 408,35 403,30 396,30 396,40 " style="fill:#15d815; stroke-width:1; stroke:black; " description="&lt;b&gt;input.path1.gene8&lt;/b&gt;&lt;br&gt;input.path1.gene8&lt;br&gt;Location: 31414 - 35042" locus_tag="input.path1.gene8" class="clusterblast-orf" id="dummy-1_q6_0_all"  />
<polygon points="411,40 416,40 421,35 416,30 411,30 411,40 " style="fill:#15d815; stroke-width:1; stroke:black; " description="&lt;b&gt;input.path1.gene9&lt;/b&gt;&lt;br&gt;input.path1.gene9&lt;br&gt;Location: 35875 - 38723" locus_tag="input.path1.gene9" class="clusterblast-orf" id="dummy-1_q7_0_all"  />
<polygon points="424,40 427,35 424,30 424,40 " style="fill:#15d815; stroke-width:1; stroke:black; " description="&lt;b&gt;input.path1.gene10&lt;/b&gt;&lt;br&gt;input.path1.gene10&lt;br&gt;Location: 39652 - 40461" locus_tag="input.path1.gene10" class="clusterblast-orf" id="dummy-1_q8_0_all"  />
<polygon points="427,35 432,30 441,30 441,40 432,40 427,35 " style="fill:#1515d8; stroke-width:1; stroke:black; " description="&lt;b&gt;input.path1.gene11&lt;/b&gt;&lt;br&gt;input.path1.gene11&lt;br&gt;Location: 40661 - 44716" locus_tag="input.path1.gene11" class="clusterblast-orf" id="dummy-1_q9_0_all"  />
<polygon points="441,40 443,35 441,30 441,40 " style="fill:white; stroke-width:1; stroke:black; " description="&lt;b&gt;input.path1.gene12&lt;/b&gt;&lt;br&gt;input.path1.gene12&lt;br&gt;Location: 44787 - 45352" locus_tag="input.path1.gene12" class="clusterblast-orf" id="dummy-1_q10_0_all"  />
</g>
<g label="NZ_CP015726" description="NZ_CP015726 (10321283-10555662): Streptomyces sp. RTd22 chromosome, complete ... (10% of genes show similarity), T1PKS" class="clusterblast-cluster"  >
<text x="5" y="70" class="clusterblast-acc"  >
<a xlink:href="https://antismash-db.secondarymetabolites.org/area?record=NZ_CP015726&amp;start=10321283&amp;end=10555662" target="_blank">NZ_CP015726 (10321283-10555662)</a>: Streptomyces sp. RTd22 chromosome, complete ... (10% of genes show similarity), T1PKS</text>
<line x1="10" y1="85" x2="778.0" y2="85" style="stroke-width:1; stroke:grey; "  />
</g>
<g id="a1_000"  >
<polygon points="0,85 4,80 4,90 0,85 " style="fill:white; stroke-width:1; stroke:black; " description="&lt;b&gt;A7B19_RS43950&lt;/b&gt;&lt;br&gt;aldehyde dehydrogenase family protein&lt;br&gt;Location: 10322227 - 10323648" locus_tag="A7B19_RS43950" class="clusterblast-orf" id="dummy-1_h1_3_0"  />
</g>
<g id="a1_001"  >
<polygon points="4,85 7,80 7,90 4,85 " style="fill:white; stroke-width:1; stroke:black; " description="&lt;b&gt;A7B19_RS43955&lt;/b&gt;&lt;br&gt;SDR family oxidoreductase&lt;br&gt;Location: 10323645 - 10324520" locus_tag="A7B19_RS43955" class="clusterblast-orf" id="dummy-1_h1_3_1"  />
</g>
<g id="a1_002"  >
<polygon points="7,85 12,80 12,80 12,90 12,90 7,85 " style="fill:white; stroke-width:1; stroke:black; " description="&lt;b&gt;A7B19_RS43960&lt;/b&gt;&lt;br&gt;NAD(P)/FAD-dependent oxidoreductase&lt;br&gt;Location: 10324517 - 10325872" locus_tag="A7B19_RS43960" class="clusterblast-orf" id="dummy-1_h1_3_2"  />
</g>
<g id="a1_003"  >
<polygon points="12,90 14,85 12,80 12,90 " style="fill:white; stroke-width:1; stroke:black; " description="&lt;b&gt;A7B19_RS43965&lt;/b&gt;&lt;br&gt;TetR/AcrR family transcriptional regulator&lt;br&gt;Location: 10326062 - 10326679" locus_tag="A7B19_RS43965" class="clusterblast-orf" id="dummy-1_h1_3_3"  />
</g>
<g id="a1_004"  >
<polygon points="17,90 18,85 17,80 17,90 " style="fill:white; stroke-width:1; stroke:black; " description="&lt;b&gt;A7B19_RS54075&lt;/b&gt;&lt;br&gt;hypothetical protein&lt;br&gt;Location: 10327562 - 10327696" locus_tag="A7B19_RS54075" class="clusterblast-orf" id="dummy-1_h1_3_4"  />
</g>
<g id="a1_005"  >
<polygon points="20,90 24,90 29,85 24,80 20,80 20,90 " style="fill:white; stroke-width:1; stroke:black; " description="&lt;b&gt;A7B19_RS43975&lt;/b&gt;&lt;br&gt;LuxR family transcriptional regulator&lt;br&gt;Location: 10328312 - 10331146" locus_tag="A7B19_RS43975" class="clusterblast-orf" id="dummy-1_h1_3_5"  />
</g>
<g id="a1_006"  >
<polygon points="31,85 35,80 35,90 31,85 " style="fill:white; stroke-width:1; stroke:black; " description="&lt;b&gt;A7B19_RS53440&lt;/b&gt;&lt;br&gt;hypothetical protein&lt;br&gt;Location: 10331720 - 10332736" locus_tag="A7B19_RS53440" class="clusterblast-orf" id="dummy-1_h1_3_6"  />
</g>
<g id="a1_007"  >
<polygon points="36,90 39,85 36,80 36,90 " style="fill:white; stroke-width:1; stroke:black; " description="&lt;b&gt;A7B19_RS53445&lt;/b&gt;&lt;br&gt;helix-turn-helix transcriptional regulator&lt;br&gt;Location: 10333060 - 10334025" locus_tag="A7B19_RS53445" class="clusterblast-orf" id="dummy-1_h1_3_7"  />
</g>
<g id="a1_008"  >
<polygon points="39,90 43,90 48,85 43,80 39,80 39,90 " style="fill:white; stroke-width:1; stroke:black; " description="&lt;b&gt;A7B19_RS43985&lt;/b&gt;&lt;br&gt;LuxR family transcriptional regulator&lt;br&gt;Location: 10334029 - 10336830" locus_tag="A7B19_RS43985" class="clusterblast-orf" id="dummy-1_h1_3_8"  />
</g>
<g id="a1_009"  >
<polygon points="50,90 52,85 50,80 50,90 " style="fill:white; stroke-width:1; stroke:black; " description="&lt;b&gt;A7B19_RS43990&lt;/b&gt;&lt;br&gt;LuxR C-terminal-related transcriptional regulator&lt;br&gt;Location: 10337377 - 10338051" locus_tag="A7B19_RS43990" class="clusterblast-orf" id="dummy-1_h1_3_9"  />
</g>
<g id="a1_0010"  >
<polygon points="53,90 57,90 62,85 57,80 53,80 53,90 " style="fill:white; stroke-width:1; stroke:black; " description="&lt;b&gt;A7B19_RS43995&lt;/b&gt;&lt;br&gt;LuxR family transcriptional regulator&lt;br&gt;Location: 10338126 - 10340855" locus_tag="A7B19_RS43995" class="clusterblast-orf" id="dummy-1_h1_3_10"  />
</g>
<g id="a1_0011"  >
<polygon points="63,90 70,90 75,85 70,80 63,80 63,90 " style="fill:white; stroke-width:1; stroke:black; " description="&lt;b&gt;A7B19_RS54080&lt;/b&gt;&lt;br&gt;type I polyketide synthase&lt;br&gt;Location: 10341284 - 10344730" locus_tag="A7B19_RS54080" class="clusterblast-orf" id="dummy-1_h1_3_11"  />
</g>
<g id="a1_0012"  >
<polygon points="75,90 112,90 117,85 112,80 75,80 75,90 " style="fill:#15d815; stroke-width:1; stroke:black; " description="&lt;b&gt;A7B19_RS51660&lt;/b&gt;&lt;br&gt;SDR family NAD(P)-dependent oxidoreductase&lt;br&gt;Location: 10344811 - 10357323&lt;br&gt;&lt;br&gt;&lt;b&gt;BlastP hit with input.path1.gene8&lt;/b&gt;&lt;br&gt;Percentage identity: 31&lt;br&gt;Percentage coverage: 97&lt;br&gt;BLAST bit score: 414&lt;br&gt;E-value: 3.67e-119" locus_tag="A7B19_RS51660" class="clusterblast-orf" id="dummy-1_h1_3_12"  />
</g>
<g id="a1_0013"  >
<polygon points="117,90 188,90 193,85 188,80 117,80 117,90 " style="fill:#15d815; stroke-width:1; stroke:black; " description="&lt;b&gt;A7B19_RS54085&lt;/b&gt;&lt;br&gt;SDR family NAD(P)-dependent oxidoreductase&lt;br&gt;Location: 10357320 - 10380017&lt;br&gt;&lt;br&gt;&lt;b&gt;BlastP hit with input.path1.gene8&lt;/b&gt;&lt;br&gt;Percentage identity: 35&lt;br&gt;Percentage coverage: 80&lt;br&gt;BLAST bit score: 446&lt;br&gt;E-value: 9.7e-130&lt;br&gt;&lt;br&gt;&lt;b&gt;BlastP hit with input.path1.gene9&lt;/b&gt;&lt;br&gt;Percentage identity: 32&lt;br&gt;Percentage coverage: 22&lt;br&gt;BLAST bit score: 88&lt;br&gt;E-value: 2.23e-15" locus_tag="A7B19_RS54085" class="clusterblast-orf" id="dummy-1_h1_3_13"  />
</g>
<g id="a1_0014"  >
<polygon points="193,90 215,90 220,85 215,80 193,80 193,90 " style="fill:#15d815; stroke-width:1; stroke:black; " description="&lt;b&gt;A7B19_RS44015&lt;/b&gt;&lt;br&gt;type I polyketide synthase&lt;br&gt;Location: 10380014 - 10387984&lt;br&gt;&lt;br&gt;&lt;b&gt;BlastP hit with input.path1.gene8&lt;/b&gt;&lt;br&gt;Percentage identity: 31&lt;br&gt;Percentage coverage: 100&lt;br&gt;BLAST bit score: 422&lt;br&gt;E-value: 7.65e-122" locus_tag="A7B19_RS44015" class="clusterblast-orf" id="dummy-1_h1_3_14"  />
</g>
<g id="a1_0015"  >
<polygon points="219,90 226,90 231,85 226,80 219,80 219,90 " style="fill:white; stroke-width:1; stroke:black; " description="&lt;b&gt;A7B19_RS53465&lt;/b&gt;&lt;br&gt;SDR family NAD(P)-dependent oxidoreductase&lt;br&gt;Location: 10387894 - 10391484" locus_tag="A7B19_RS53465" class="clusterblast-orf" id="dummy-1_h1_3_15"  />
</g>
<g id="a1_0016"  >
<polygon points="231,90 242,90 247,85 242,80 231,80 231,90 " style="fill:white; stroke-width:1; stroke:black; " description="&lt;b&gt;A7B19_RS51675&lt;/b&gt;&lt;br&gt;type I polyketide synthase&lt;br&gt;Location: 10391515 - 10396173" locus_tag="A7B19_RS51675" class="clusterblast-orf" id="dummy-1_h1_3_16"  />
</g>
<g id="a1_0017"  >
<polygon points="247,90 278,90 283,85 278,80 247,80 247,90 " style="fill:white; stroke-width:1; stroke:black; " description="&lt;b&gt;A7B19_RS48695&lt;/b&gt;&lt;br&gt;type I polyketide synthase&lt;br&gt;Location: 10396224 - 10406849" locus_tag="A7B19_RS48695" class="clusterblast-orf" id="dummy-1_h1_3_17"  />
</g>
<g id="a1_0018"  >
<polygon points="283,90 291,90 296,85 291,80 283,80 283,90 " style="fill:white; stroke-width:1; stroke:black; " description="&lt;b&gt;A7B19_RS44030&lt;/b&gt;&lt;br&gt;beta-ketoacyl synthase N-terminal-like domain-containing protein&lt;br&gt;Location: 10406983 - 10410915" locus_tag="A7B19_RS44030" class="clusterblast-orf" id="dummy-1_h1_3_18"  />
</g>
<g id="a1_0019"  >
<polygon points="297,90 323,90 328,85 323,80 297,80 297,90 " style="fill:#15d815; stroke-width:1; stroke:black; " description="&lt;b&gt;A7B19_RS53470&lt;/b&gt;&lt;br&gt;SDR family NAD(P)-dependent oxidoreductase&lt;br&gt;Location: 10410952 - 10420209&lt;br&gt;&lt;br&gt;&lt;b&gt;BlastP hit with input.path1.gene8&lt;/b&gt;&lt;br&gt;Percentage identity: 34&lt;br&gt;Percentage coverage: 81&lt;br&gt;BLAST bit score: 416&lt;br&gt;E-value: 7.32e-120" locus_tag="A7B19_RS53470" class="clusterblast-orf" id="dummy-1_h1_3_19"  />
</g>
<g id="a1_0020"  >
<polygon points="329,90 338,90 343,85 338,80 329,80 329,90 " style="fill:#15d815; stroke-width:1; stroke:black; " description="&lt;b&gt;A7B19_RS53475&lt;/b&gt;&lt;br&gt;type I polyketide synthase&lt;br&gt;Location: 10420541 - 10424722&lt;br&gt;&lt;br&gt;&lt;b&gt;BlastP hit with input.path1.gene8&lt;/b&gt;&lt;br&gt;Percentage identity: 31&lt;br&gt;Percentage coverage: 98&lt;br&gt;BLAST bit score: 425&lt;br&gt;E-value: 9.56e-126" locus_tag="A7B19_RS53475" class="clusterblast-orf" id="dummy-1_h1_3_20"  />
</g>
<g id="a1_0021"  >
<polygon points="343,90 384,90 389,85 384,80 343,80 343,90 " style="fill:white; stroke-width:1; stroke:black; " description="&lt;b&gt;A7B19_RS44045&lt;/b&gt;&lt;br&gt;type I polyketide synthase&lt;br&gt;Location: 10424671 - 10438416" locus_tag="A7B19_RS44045" class="clusterblast-orf" id="dummy-1_h1_3_21"  />
</g>
<g id="a1_0022"  >
<polygon points="388,90 394,90 399,85 394,80 388,80 388,90 " style="fill:white; stroke-width:1; stroke:black; " description="&lt;b&gt;A7B19_RS48735&lt;/b&gt;&lt;br&gt;type I polyketide synthase&lt;br&gt;Location: 10438377 - 10441442" locus_tag="A7B19_RS48735" class="clusterblast-orf" id="dummy-1_h1_3_22"  />
</g>
<g id="a1_0023"  >
<polygon points="400,90 401,90 406,85 401,80 400,80 400,90 " style="fill:white; stroke-width:1; stroke:black; " description="&lt;b&gt;A7B19_RS44055&lt;/b&gt;&lt;br&gt;ABC transporter ATP-binding protein/permease&lt;br&gt;Location: 10441709 - 10443730" locus_tag="A7B19_RS44055" class="clusterblast-orf" id="dummy-1_h1_3_23"  />
</g>
<g id="a1_0024"  >
<polygon points="407,90 411,90 416,85 411,80 407,80 407,90 " style="fill:white; stroke-width:1; stroke:black; " description="&lt;b&gt;A7B19_RS44060&lt;/b&gt;&lt;br&gt;BTAD domain-containing putative transcriptional regulator&lt;br&gt;Location: 10443965 - 10446736" locus_tag="A7B19_RS44060" class="clusterblast-orf" id="dummy-1_h1_3_24"  />
</g>
<g id="a1_0025"  >
<polygon points="417,90 417,90 422,85 417,80 417,80 417,90 " style="fill:white; stroke-width:1; stroke:black; " description="&lt;b&gt;A7B19_RS44065&lt;/b&gt;&lt;br&gt;glycosyltransferase&lt;br&gt;Location: 10447009 - 10448283" locus_tag="A7B19_RS44065" class="clusterblast-orf" id="dummy-1_h1_3_25"  />
</g>
<g id="a1_0026"  >
<polygon points="422,90 424,85 422,80 422,90 " style="fill:white; stroke-width:1; stroke:black; " description="&lt;b&gt;A7B19_RS44070&lt;/b&gt;&lt;br&gt;class I SAM-dependent methyltransferase&lt;br&gt;Location: 10448332 - 10448997" locus_tag="A7B19_RS44070" class="clusterblast-orf" id="dummy-1_h1_3_26"  />
</g>
<g id="a1_0027"  >
<polygon points="424,90 428,85 424,80 424,90 " style="fill:white; stroke-width:1; stroke:black; " description="&lt;b&gt;A7B19_RS44075&lt;/b&gt;&lt;br&gt;DegT/DnrJ/EryC1/StrS family aminotransferase&lt;br&gt;Location: 10449046 - 10450236" locus_tag="A7B19_RS44075" class="clusterblast-orf" id="dummy-1_h1_3_27"  />
</g>
<g id="a1_0028"  >
<polygon points="428,90 428,90 433,85 428,80 428,80 428,90 " style="fill:white; stroke-width:1; stroke:black; " description="&lt;b&gt;A7B19_RS44080&lt;/b&gt;&lt;br&gt;FAD-dependent oxidoreductase&lt;br&gt;Location: 10450303 - 10451766" locus_tag="A7B19_RS44080" class="clusterblast-orf" id="dummy-1_h1_3_28"  />
</g>
<g id="a1_0029"  >
<polygon points="434,90 434,90 439,85 434,80 434,80 434,90 " style="fill:white; stroke-width:1; stroke:black; " description="&lt;b&gt;A7B19_RS44085&lt;/b&gt;&lt;br&gt;GMC oxidoreductase&lt;br&gt;Location: 10451873 - 10453408" locus_tag="A7B19_RS44085" class="clusterblast-orf" id="dummy-1_h1_3_29"  />
</g>
<g id="a1_0030"  >
<polygon points="439,90 443,85 439,80 439,90 " style="fill:white; stroke-width:1; stroke:black; " description="&lt;b&gt;A7B19_RS44090&lt;/b&gt;&lt;br&gt;UDP-glucose/GDP-mannose dehydrogenase family protein&lt;br&gt;Location: 10453447 - 10454799" locus_tag="A7B19_RS44090" class="clusterblast-orf" id="dummy-1_h1_3_30"  />
</g>
<g id="a1_0031"  >
<polygon points="444,90 448,85 444,80 444,90 " style="fill:white; stroke-width:1; stroke:black; " description="&lt;b&gt;A7B19_RS44095&lt;/b&gt;&lt;br&gt;glycosyltransferase&lt;br&gt;Location: 10454852 - 10456057" locus_tag="A7B19_RS44095" class="clusterblast-orf" id="dummy-1_h1_3_31"  />
</g>
<g id="a1_0032"  >
<polygon points="450,90 478,90 483,85 478,80 450,80 450,90 " style="fill:white; stroke-width:1; stroke:black; " description="&lt;b&gt;A7B19_RS53480&lt;/b&gt;&lt;br&gt;SDR family NAD(P)-dependent oxidoreductase&lt;br&gt;Location: 10456644 - 10466615" locus_tag="A7B19_RS53480" class="clusterblast-orf" id="dummy-1_h1_3_32"  />
</g>
<g id="a1_0033"  >
<polygon points="483,90 529,90 534,85 529,80 483,80 483,90 " style="fill:#15d815; stroke-width:1; stroke:black; " description="&lt;b&gt;A7B19_RS51715&lt;/b&gt;&lt;br&gt;type I polyketide synthase&lt;br&gt;Location: 10466699 - 10481908&lt;br&gt;&lt;br&gt;&lt;b&gt;BlastP hit with input.path1.gene8&lt;/b&gt;&lt;br&gt;Percentage identity: 31&lt;br&gt;Percentage coverage: 101&lt;br&gt;BLAST bit score: 432&lt;br&gt;E-value: 2.34e-125" locus_tag="A7B19_RS51715" class="clusterblast-orf" id="dummy-1_h1_3_33"  />
</g>
<g id="a1_0034"  >
<polygon points="534,90 576,90 581,85 576,80 534,80 534,90 " style="fill:white; stroke-width:1; stroke:black; " description="&lt;b&gt;A7B19_RS44105&lt;/b&gt;&lt;br&gt;SDR family NAD(P)-dependent oxidoreductase&lt;br&gt;Location: 10482012 - 10496005" locus_tag="A7B19_RS44105" class="clusterblast-orf" id="dummy-1_h1_3_34"  />
</g>
<g id="a1_0035"  >
<polygon points="582,90 608,90 613,85 608,80 582,80 582,90 " style="fill:white; stroke-width:1; stroke:black; " description="&lt;b&gt;A7B19_RS53490&lt;/b&gt;&lt;br&gt;SDR family NAD(P)-dependent oxidoreductase&lt;br&gt;Location: 10496294 - 10505332" locus_tag="A7B19_RS53490" class="clusterblast-orf" id="dummy-1_h1_3_35"  />
</g>
<g id="a1_0036"  >
<polygon points="613,90 617,90 622,85 617,80 613,80 613,90 " style="fill:white; stroke-width:1; stroke:black; " description="&lt;b&gt;A7B19_RS48805&lt;/b&gt;&lt;br&gt;type I polyketide synthase&lt;br&gt;Location: 10505381 - 10508157" locus_tag="A7B19_RS48805" class="clusterblast-orf" id="dummy-1_h1_3_36"  />
</g>
<g id="a1_0037"  >
<polygon points="622,90 631,90 636,85 631,80 622,80 622,90 " style="fill:white; stroke-width:1; stroke:black; " description="&lt;b&gt;A7B19_RS53495&lt;/b&gt;&lt;br&gt;SDR family NAD(P)-dependent oxidoreductase&lt;br&gt;Location: 10508218 - 10512449" locus_tag="A7B19_RS53495" class="clusterblast-orf" id="dummy-1_h1_3_37"  />
</g>
<g id="a1_0038"  >
<polygon points="637,90 647,90 652,85 647,80 637,80 637,90 " style="fill:white; stroke-width:1; stroke:black; " description="&lt;b&gt;A7B19_RS53500&lt;/b&gt;&lt;br&gt;type I polyketide synthase&lt;br&gt;Location: 10512486 - 10517240" locus_tag="A7B19_RS53500" class="clusterblast-orf" id="dummy-1_h1_3_38"  />
</g>
<g id="a1_0039"  >
<polygon points="653,90 668,90 673,85 668,80 653,80 653,90 " style="fill:#15d815; stroke-width:1; stroke:black; " description="&lt;b&gt;A7B19_RS50040&lt;/b&gt;&lt;br&gt;type I polyketide synthase&lt;br&gt;Location: 10517286 - 10523516&lt;br&gt;&lt;br&gt;&lt;b&gt;BlastP hit with input.path1.gene8&lt;/b&gt;&lt;br&gt;Percentage identity: 31&lt;br&gt;Percentage coverage: 101&lt;br&gt;BLAST bit score: 423&lt;br&gt;E-value: 1.23e-122" locus_tag="A7B19_RS50040" class="clusterblast-orf" id="dummy-1_h1_3_39"  />
</g>
<g id="a1_0040"  >
<polygon points="673,90 686,90 691,85 686,80 673,80 673,90 " style="fill:white; stroke-width:1; stroke:black; " description="&lt;b&gt;A7B19_RS44120&lt;/b&gt;&lt;br&gt;type I polyketide synthase&lt;br&gt;Location: 10523408 - 10528639" locus_tag="A7B19_RS44120" class="clusterblast-orf" id="dummy-1_h1_3_40"  />
</g>
<g id="a1_0041"  >
<polygon points="691,90 691,85 691,80 691,90 " style="fill:white; stroke-width:1; stroke:black; " description="&lt;b&gt;A7B19_RS53505&lt;/b&gt;&lt;br&gt;hypothetical protein&lt;br&gt;Location: 10528655 - 10528707" locus_tag="A7B19_RS53505" class="clusterblast-orf" id="dummy-1_h1_3_41"  />
</g>
<g id="a1_0042"  >
<polygon points="691,90 694,90 699,85 694,80 691,80 691,90 " style="fill:white; stroke-width:1; stroke:black; " description="&lt;b&gt;A7B19_RS53510&lt;/b&gt;&lt;br&gt;type I polyketide synthase&lt;br&gt;Location: 10528757 - 10531258" locus_tag="A7B19_RS53510" class="clusterblast-orf" id="dummy-1_h1_3_42"  />
</g>
<g id="a1_0043"  >
<polygon points="700,90 709,90 714,85 709,80 700,80 700,90 " style="fill:white; stroke-width:1; stroke:black; " description="&lt;b&gt;A7B19_RS53515&lt;/b&gt;&lt;br&gt;SDR family NAD(P)-dependent oxidoreductase&lt;br&gt;Location: 10531337 - 10535662" locus_tag="A7B19_RS53515" class="clusterblast-orf" id="dummy-1_h1_3_43"  />
</g>
<g id="a1_0044"  >
<polygon points="715,90 719,85 715,80 715,90 " style="fill:white; stroke-width:1; stroke:black; " description="&lt;b&gt;A7B19_RS53520&lt;/b&gt;&lt;br&gt;phosphopantetheine-binding protein&lt;br&gt;Location: 10535806 - 10537086" locus_tag="A7B19_RS53520" class="clusterblast-orf" id="dummy-1_h1_3_44"  />
</g>
<g id="a1_0045"  >
<polygon points="719,90 720,85 719,80 719,90 " style="fill:white; stroke-width:1; stroke:black; " description="&lt;b&gt;A7B19_RS44130&lt;/b&gt;&lt;br&gt;hypothetical protein&lt;br&gt;Location: 10536981 - 10537367" locus_tag="A7B19_RS44130" class="clusterblast-orf" id="dummy-1_h1_3_45"  />
</g>
<g id="a1_0046"  >
<polygon points="720,85 723,80 723,90 720,85 " style="fill:white; stroke-width:1; stroke:black; " description="&lt;b&gt;A7B19_RS44135&lt;/b&gt;&lt;br&gt;phytanoyl-CoA dioxygenase family protein&lt;br&gt;Location: 10537514 - 10538353" locus_tag="A7B19_RS44135" class="clusterblast-orf" id="dummy-1_h1_3_46"  />
</g>
<g id="a1_0047"  >
<polygon points="723,85 727,80 727,90 723,85 " style="fill:white; stroke-width:1; stroke:black; " description="&lt;b&gt;A7B19_RS44140&lt;/b&gt;&lt;br&gt;cytochrome P450&lt;br&gt;Location: 10538441 - 10539613" locus_tag="A7B19_RS44140" class="clusterblast-orf" id="dummy-1_h1_3_47"  />
</g>
<g id="a1_0048"  >
<polygon points="728,85 731,80 731,90 728,85 " style="fill:white; stroke-width:1; stroke:black; " description="&lt;b&gt;A7B19_RS44145&lt;/b&gt;&lt;br&gt;cytochrome P450&lt;br&gt;Location: 10539662 - 10540843" locus_tag="A7B19_RS44145" class="clusterblast-orf" id="dummy-1_h1_3_48"  />
</g>
<g id="a1_0049"  >
<polygon points="732,85 734,80 734,90 732,85 " style="fill:white; stroke-width:1; stroke:black; " description="&lt;b&gt;A7B19_RS44150&lt;/b&gt;&lt;br&gt;alpha/beta fold hydrolase&lt;br&gt;Location: 10540854 - 10541609" locus_tag="A7B19_RS44150" class="clusterblast-orf" id="dummy-1_h1_3_49"  />
</g>
<g id="a1_0050"  >
<polygon points="735,85 739,80 739,90 735,85 " style="fill:white; stroke-width:1; stroke:black; " description="&lt;b&gt;A7B19_RS44155&lt;/b&gt;&lt;br&gt;crotonyl-CoA carboxylase/reductase&lt;br&gt;Location: 10541766 - 10543109" locus_tag="A7B19_RS44155" class="clusterblast-orf" id="dummy-1_h1_3_50"  />
</g>
<g id="a1_0051"  >
<polygon points="743,90 743,90 748,85 743,80 743,80 743,90 " style="fill:white; stroke-width:1; stroke:black; " description="&lt;b&gt;A7B19_RS44160&lt;/b&gt;&lt;br&gt;NCS1 family nucleobase:cation symporter-1&lt;br&gt;Location: 10544232 - 10545773" locus_tag="A7B19_RS44160" class="clusterblast-orf" id="dummy-1_h1_3_51"  />
</g>
<g id="a1_0052"  >
<polygon points="749,90 750,85 749,80 749,90 " style="fill:white; stroke-width:1; stroke:black; " description="&lt;b&gt;A7B19_RS53525&lt;/b&gt;&lt;br&gt;helix-turn-helix domain-containing protein&lt;br&gt;Location: 10546032 - 10546502" locus_tag="A7B19_RS53525" class="clusterblast-orf" id="dummy-1_h1_3_52"  />
</g>
<g id="a1_0053"  >
<polygon points="751,90 754,85 751,80 751,90 " style="fill:white; stroke-width:1; stroke:black; " description="&lt;b&gt;A7B19_RS53530&lt;/b&gt;&lt;br&gt;hypothetical protein&lt;br&gt;Location: 10546653 - 10547498" locus_tag="A7B19_RS53530" class="clusterblast-orf" id="dummy-1_h1_3_53"  />
</g>
<g id="a1_0054"  >
<polygon points="754,85 754,80 754,90 754,85 " style="fill:white; stroke-width:1; stroke:black; " description="&lt;b&gt;A7B19_RS50905&lt;/b&gt;&lt;br&gt;hypothetical protein&lt;br&gt;Location: 10547519 - 10547677" locus_tag="A7B19_RS50905" class="clusterblast-orf" id="dummy-1_h1_3_54"  />
</g>
<g id="a1_0055"  >
<polygon points="755,90 759,85 755,80 755,90 " style="fill:white; stroke-width:1; stroke:black; " description="&lt;b&gt;A7B19_RS44165&lt;/b&gt;&lt;br&gt;glycosyltransferase&lt;br&gt;Location: 10547851 - 10549188" locus_tag="A7B19_RS44165" class="clusterblast-orf" id="dummy-1_h1_3_55"  />
</g>
<g id="a1_0056"  >
<polygon points="761,90 762,85 761,80 761,90 " style="fill:white; stroke-width:1; stroke:black; " description="&lt;b&gt;A7B19_RS44170&lt;/b&gt;&lt;br&gt;hypothetical protein&lt;br&gt;Location: 10549596 - 10549949" locus_tag="A7B19_RS44170" class="clusterblast-orf" id="dummy-1_h1_3_56"  />
</g>
<g id="a1_0057"  >
<polygon points="762,90 763,85 762,80 762,90 " style="fill:white; stroke-width:1; stroke:black; " description="&lt;b&gt;A7B19_RS44175&lt;/b&gt;&lt;br&gt;hypothetical protein&lt;br&gt;Location: 10550044 - 10550361" locus_tag="A7B19_RS44175" class="clusterblast-orf" id="dummy-1_h1_3_57"  />
</g>
<g id="a1_0058"  >
<polygon points="764,85 765,80 765,90 764,85 " style="fill:white; stroke-width:1; stroke:black; " description="&lt;b&gt;A7B19_RS44180&lt;/b&gt;&lt;br&gt;hypothetical protein&lt;br&gt;Location: 10550443 - 10550802" locus_tag="A7B19_RS44180" class="clusterblast-orf" id="dummy-1_h1_3_58"  />
</g>
<g id="a1_0059"  >
<polygon points="767,90 768,85 767,80 767,90 " style="fill:white; stroke-width:1; stroke:black; " description="&lt;b&gt;A7B19_RS51765&lt;/b&gt;&lt;br&gt;hypothetical protein&lt;br&gt;Location: 10551377 - 10551787" locus_tag="A7B19_RS51765" class="clusterblast-orf" id="dummy-1_h1_3_59"  />
</g>
<g id="a1_0060"  >
<polygon points="769,85 772,80 772,90 769,85 " style="fill:white; stroke-width:1; stroke:black; " description="&lt;b&gt;A7B19_RS44195&lt;/b&gt;&lt;br&gt;phosphatase PAP2 family protein&lt;br&gt;Location: 10552070 - 10552885" locus_tag="A7B19_RS44195" class="clusterblast-orf" id="dummy-1_h1_3_60"  />
</g>
<g id="a1_0061"  >
<polygon points="772,85 776,80 776,90 772,85 " style="fill:white; stroke-width:1; stroke:black; " description="&lt;b&gt;A7B19_RS44200&lt;/b&gt;&lt;br&gt;hypothetical protein&lt;br&gt;Location: 10553079 - 10554034" locus_tag="A7B19_RS44200" class="clusterblast-orf" id="dummy-1_h1_3_61"  />
</g>
<g id="a1_0062"  >
<polygon points="776,85 777,80 777,90 776,85 " style="fill:white; stroke-width:1; stroke:black; " description="&lt;b&gt;A7B19_RS44205&lt;/b&gt;&lt;br&gt;helix-turn-helix transcriptional regulator&lt;br&gt;Location: 10554031 - 10554372" locus_tag="A7B19_RS44205" class="clusterblast-orf" id="dummy-1_h1_3_62"  />
</g>
<g id="a1_0063"  >
<polygon points="777,90 780,85 777,80 777,90 " style="fill:white; stroke-width:1; stroke:black; " description="&lt;b&gt;A7B19_RS53535&lt;/b&gt;&lt;br&gt;hypothetical protein&lt;br&gt;Location: 10554566 - 10555189" locus_tag="A7B19_RS53535" class="clusterblast-orf" id="dummy-1_h1_3_63"  />
</g>
</svg>
