<svg xmlns="http://www.w3.org/2000/svg" xmlns:xlink="http://www.w3.org/1999/xlink" version="1.1" x="0" y="0" height="230" width="800" viewBox="0 0 800 230" preserveAspectRatio="none"  >
<g label="Query sequence" class="clusterblast-cluster"  >
<text x="5" y="20" class="clusterblast-acc"  >
Query sequence</text>
<line x1="10" y1="35" x2="778.0" y2="35" style="stroke-width:1; stroke:grey; "  />
<polygon points="0,35 5,30 19,30 19,40 5,40 0,35 " style="fill:white; stroke-width:1; stroke:black; " description="&lt;b&gt;input.path1.gene21&lt;/b&gt;&lt;br&gt;input.path1.gene21&lt;br&gt;Location: 80759 - 81973" locus_tag="input.path1.gene21" class="clusterblast-orf" id="dummy-1_q0_0_all"  />
<polygon points="31,40 50,40 55,35 50,30 31,30 31,40 " style="fill:white; stroke-width:1; stroke:black; " description="&lt;b&gt;input.path1.gene22&lt;/b&gt;&lt;br&gt;input.path1.gene22&lt;br&gt;Location: 82703 - 84215" locus_tag="input.path1.gene22" class="clusterblast-orf" id="dummy-1_q1_0_all"  />
<polygon points="81,40 130,40 135,35 130,30 81,30 81,40 " style="fill:white; stroke-width:1; stroke:black; " description="&lt;b&gt;input.path1.gene23&lt;/b&gt;&lt;br&gt;input.path1.gene23&lt;br&gt;Location: 85793 - 89164" locus_tag="input.path1.gene23" class="clusterblast-orf" id="dummy-1_q2_0_all"  />
<polygon points="136,35 141,30 173,30 173,40 141,40 136,35 " style="fill:white; stroke-width:1; stroke:black; " description="&lt;b&gt;input.path1.gene24&lt;/b&gt;&lt;br&gt;input.path1.gene24&lt;br&gt;Location: 89191 - 91515" locus_tag="input.path1.gene24" class="clusterblast-orf" id="dummy-1_q3_0_all"  />
<polygon points="205,35 210,30 211,30 211,40 210,40 205,35 " style="fill:white; stroke-width:1; stroke:black; " description="&lt;b&gt;input.path1.gene25&lt;/b&gt;&lt;br&gt;input.path1.gene25&lt;br&gt;Location: 93465 - 93877" locus_tag="input.path1.gene25" class="clusterblast-orf" id="dummy-1_q4_0_all"  />
<polygon points="218,40 234,40 239,35 234,30 218,30 218,40 " style="fill:white; stroke-width:1; stroke:black; " description="&lt;b&gt;input.path1.gene26&lt;/b&gt;&lt;br&gt;input.path1.gene26&lt;br&gt;Location: 94291 - 95614" locus_tag="input.path1.gene26" class="clusterblast-orf" id="dummy-1_q5_0_all"  />
<polygon points="276,40 298,40 303,35 298,30 276,30 276,40 " style="fill:white; stroke-width:1; stroke:black; " description="&lt;b&gt;input.path1.gene27&lt;/b&gt;&lt;br&gt;input.path1.gene27&lt;br&gt;Location: 97915 - 99532" locus_tag="input.path1.gene27" class="clusterblast-orf" id="dummy-1_q6_0_all"  />
<polygon points="305,35 310,30 461,30 461,40 310,40 305,35 " style="fill:#d81515; stroke-width:1; stroke:black; " description="&lt;b&gt;input.path1.gene28&lt;/b&gt;&lt;br&gt;input.path1.gene28&lt;br&gt;Location: 99687 - 109370" locus_tag="input.path1.gene28" class="clusterblast-orf" id="dummy-1_q7_0_all"  />
<polygon points="514,35 519,30 531,30 531,40 519,40 514,35 " style="fill:#15d863; stroke-width:1; stroke:black; " description="&lt;b&gt;input.path1.gene29&lt;/b&gt;&lt;br&gt;input.path1.gene29&lt;br&gt;Location: 112651 - 113671" locus_tag="input.path1.gene29" class="clusterblast-orf" id="dummy-1_q8_0_all"  />
<polygon points="554,35 559,30 571,30 571,40 559,40 554,35 " style="fill:#1563d8; stroke-width:1; stroke:black; " description="&lt;b&gt;input.path1.gene30&lt;/b&gt;&lt;br&gt;input.path1.gene30&lt;br&gt;Location: 115130 - 116185" locus_tag="input.path1.gene30" class="clusterblast-orf" id="dummy-1_q9_0_all"  />
<polygon points="586,40 609,40 614,35 609,30 586,30 586,40 " style="fill:#b115d8; stroke-width:1; stroke:black; " description="&lt;b&gt;input.path1.gene31&lt;/b&gt;&lt;br&gt;input.path1.gene31&lt;br&gt;Location: 117128 - 118831" locus_tag="input.path1.gene31" class="clusterblast-orf" id="dummy-1_q10_0_all"  />
<polygon points="616,35 621,30 649,30 649,40 621,40 616,35 " style="fill:#b1d815; stroke-width:1; stroke:black; " description="&lt;b&gt;input.path1.gene32&lt;/b&gt;&lt;br&gt;input.path1.gene32&lt;br&gt;Location: 118951 - 121019" locus_tag="input.path1.gene32" class="clusterblast-orf" id="dummy-1_q11_0_all"  />
<polygon points="653,40 669,40 674,35 669,30 653,30 653,40 " style="fill:white; stroke-width:1; stroke:black; " description="&lt;b&gt;input.path1.gene33&lt;/b&gt;&lt;br&gt;input.path1.gene33&lt;br&gt;Location: 121227 - 122556" locus_tag="input.path1.gene33" class="clusterblast-orf" id="dummy-1_q12_0_all"  />
<polygon points="675,35 680,30 688,30 688,40 680,40 675,35 " style="fill:white; stroke-width:1; stroke:black; " description="&lt;b&gt;input.path1.gene34&lt;/b&gt;&lt;br&gt;input.path1.gene34&lt;br&gt;Location: 122597 - 123420" locus_tag="input.path1.gene34" class="clusterblast-orf" id="dummy-1_q13_0_all"  />
<polygon points="756,35 761,30 771,30 771,40 761,40 756,35 " style="fill:white; stroke-width:1; stroke:black; " description="&lt;b&gt;input.path1.gene35&lt;/b&gt;&lt;br&gt;input.path1.gene35&lt;br&gt;Location: 127667 - 128555" locus_tag="input.path1.gene35" class="clusterblast-orf" id="dummy-1_q14_0_all"  />
<polygon points="771,40 775,40 780,35 775,30 771,30 771,40 " style="fill:white; stroke-width:1; stroke:black; " description="&lt;b&gt;input.path1.gene36&lt;/b&gt;&lt;br&gt;input.path1.gene36&lt;br&gt;Location: 128575 - 129107" locus_tag="input.path1.gene36" class="clusterblast-orf" id="dummy-1_q15_0_all"  />
</g>
<g label="BGC0002228" description="BGC0002228_c1: CIML B/CIML A/CIML D/CIML C (100% of genes show similarity), NRP" class="clusterblast-cluster"  >
<text x="5" y="70" class="clusterblast-acc"  >
<a xlink:href="https://mibig.secondarymetabolites.org/go/BGC0002228/1" target="_blank">BGC0002228</a>: CIML B/CIML A/CIML D/CIML C                                                      (100% of genes show similarity), NRP</text>
<line x1="10" y1="85" x2="778.0" y2="85" style="stroke-width:1; stroke:grey; "  />
</g>
<g id="a1_000"  >
<polygon points="247,85 252,80 367,80 367,90 252,90 247,85 " style="fill:#d81515; stroke-width:1; stroke:black; " description="&lt;b&gt;CI238_12752&lt;/b&gt;&lt;br&gt;polyketide synthase&lt;br&gt;Location: 17978 - 10546&lt;br&gt;&lt;br&gt;&lt;b&gt;BlastP hit with input.path1.gene28&lt;/b&gt;&lt;br&gt;Percentage identity: 63&lt;br&gt;Percentage coverage: 95&lt;br&gt;BLAST bit score: 2950&lt;br&gt;E-value: 0.0" locus_tag="CI238_12752" class="clusterblast-orf" id="dummy-1_h1_2_0"  />
</g>
<g id="a1_001"  >
<polygon points="382,90 393,90 398,85 393,80 382,80 382,90 " style="fill:#1563d8; stroke-width:1; stroke:black; " description="&lt;b&gt;CI238_12751&lt;/b&gt;&lt;br&gt;hypothetical protein&lt;br&gt;Location: 9619 - 8592&lt;br&gt;&lt;br&gt;&lt;b&gt;BlastP hit with input.path1.gene30&lt;/b&gt;&lt;br&gt;Percentage identity: 58&lt;br&gt;Percentage coverage: 104&lt;br&gt;BLAST bit score: 350&lt;br&gt;E-value: 3.46e-121" locus_tag="CI238_12751" class="clusterblast-orf" id="dummy-1_h1_2_1"  />
</g>
<g id="a1_002"  >
<polygon points="505,90 527,90 532,85 527,80 505,80 505,90 " style="fill:#b115d8; stroke-width:1; stroke:black; " description="&lt;b&gt;CI238_12749&lt;/b&gt;&lt;br&gt;cytochrome p450 family protein&lt;br&gt;Location: 1950 - 283&lt;br&gt;&lt;br&gt;&lt;b&gt;BlastP hit with input.path1.gene31&lt;/b&gt;&lt;br&gt;Percentage identity: 62&lt;br&gt;Percentage coverage: 94&lt;br&gt;BLAST bit score: 600&lt;br&gt;E-value: 4.11e-214" locus_tag="CI238_12749" class="clusterblast-orf" id="dummy-1_h1_2_2"  />
</g>
</svg>
