<svg xmlns="http://www.w3.org/2000/svg" xmlns:xlink="http://www.w3.org/1999/xlink" version="1.1" x="0" y="0" height="200" width="800" viewBox="0 0 800 200" preserveAspectRatio="none"  >
<g label="Query sequence" class="clusterblast-cluster"  >
<text x="5" y="20" class="clusterblast-acc"  >
Query sequence</text>
<line x1="10" y1="35" x2="778.0" y2="35" style="stroke-width:1; stroke:grey; "  />
<polygon points="0,35 5,30 34,30 34,40 5,40 0,35 " style="fill:#d81515; stroke-width:1; stroke:black; " description="&lt;b&gt;input.path1.gene104&lt;/b&gt;&lt;br&gt;input.path1.gene104&lt;br&gt;Location: 395972 - 396999" locus_tag="input.path1.gene104" class="clusterblast-orf" id="knownclusterblast-1_q0_0_all"  />
<polygon points="68,35 73,30 118,30 118,40 73,40 68,35 " style="fill:#15d863; stroke-width:1; stroke:black; " description="&lt;b&gt;input.path1.gene105&lt;/b&gt;&lt;br&gt;input.path1.gene105&lt;br&gt;Location: 398015 - 399488" locus_tag="input.path1.gene105" class="clusterblast-orf" id="knownclusterblast-1_q1_0_all"  />
<polygon points="150,40 199,40 204,35 199,30 150,30 150,40 " style="fill:white; stroke-width:1; stroke:black; " description="&lt;b&gt;input.path1.gene106&lt;/b&gt;&lt;br&gt;input.path1.gene106&lt;br&gt;Location: 400449 - 402062" locus_tag="input.path1.gene106" class="clusterblast-orf" id="knownclusterblast-1_q2_0_all"  />
<polygon points="221,35 226,30 258,30 258,40 226,40 221,35 " style="fill:#1563d8; stroke-width:1; stroke:black; " description="&lt;b&gt;input.path1.gene107&lt;/b&gt;&lt;br&gt;input.path1.gene107&lt;br&gt;Location: 402576 - 403662" locus_tag="input.path1.gene107" class="clusterblast-orf" id="knownclusterblast-1_q3_0_all"  />
<polygon points="399,35 404,30 440,30 440,40 404,40 399,35 " style="fill:white; stroke-width:1; stroke:black; " description="&lt;b&gt;input.path1.gene108&lt;/b&gt;&lt;br&gt;input.path1.gene108&lt;br&gt;Location: 407878 - 409089" locus_tag="input.path1.gene108" class="clusterblast-orf" id="knownclusterblast-1_q4_0_all"  />
<polygon points="479,35 484,30 518,30 518,40 484,40 479,35 " style="fill:#b115d8; stroke-width:1; stroke:black; " description="&lt;b&gt;input.path1.gene109&lt;/b&gt;&lt;br&gt;input.path1.gene109&lt;br&gt;Location: 410247 - 411417" locus_tag="input.path1.gene109" class="clusterblast-orf" id="knownclusterblast-1_q5_0_all"  />
<polygon points="659,40 711,40 716,35 711,30 659,30 659,40 " style="fill:#b1d815; stroke-width:1; stroke:black; " description="&lt;b&gt;input.path1.gene110&lt;/b&gt;&lt;br&gt;input.path1.gene110&lt;br&gt;Location: 415628 - 417316" locus_tag="input.path1.gene110" class="clusterblast-orf" id="knownclusterblast-1_q6_0_all"  />
<polygon points="773,35 778,30 780,30 780,40 778,40 773,35 " style="fill:white; stroke-width:1; stroke:black; " description="&lt;b&gt;input.path1.gene111&lt;/b&gt;&lt;br&gt;input.path1.gene111&lt;br&gt;Location: 419013 - 419229" locus_tag="input.path1.gene111" class="clusterblast-orf" id="knownclusterblast-1_q7_0_all"  />
</g>
<g label="BGC0001777" description="BGC0001777_c1: shearinine D (66% of genes show similarity), Terpene" class="clusterblast-cluster"  >
<text x="5" y="70" class="clusterblast-acc"  >
<a xlink:href="https://mibig.secondarymetabolites.org/go/BGC0001777/1" target="_blank">BGC0001777</a>: shearinine D                                                                     (66% of genes show similarity), Terpene</text>
<line x1="10" y1="85" x2="778.0" y2="85" style="stroke-width:1; stroke:grey; "  />
</g>
<g id="a1_000"  >
<polygon points="106,90 130,90 135,85 130,80 106,80 106,90 " style="fill:white; stroke-width:1; stroke:black; " description="&lt;b&gt;DAB41649.1&lt;/b&gt;&lt;br&gt;endoglucanase-1&lt;br&gt;Location: 19724 - 18854" locus_tag="DAB41649.1" class="clusterblast-orf" id="knownclusterblast-1_all_1_1_0"  />
</g>
<g id="a1_001"  >
<polygon points="151,85 156,80 198,80 198,90 156,90 151,85 " style="fill:#b115d8; stroke-width:1; stroke:black; " description="&lt;b&gt;DAB41648.1&lt;/b&gt;&lt;br&gt;aromatic prenyl transferase&lt;br&gt;Location: 18357 - 16963&lt;br&gt;&lt;br&gt;&lt;b&gt;BlastP hit with input.path1.gene109&lt;/b&gt;&lt;br&gt;Percentage identity: 47&lt;br&gt;Percentage coverage: 100&lt;br&gt;BLAST bit score: 311&lt;br&gt;E-value: 5.85e-104" locus_tag="DAB41648.1" class="clusterblast-orf" id="knownclusterblast-1_all_1_1_1"  />
</g>
<g id="a1_002"  >
<polygon points="218,85 223,80 276,80 276,90 223,90 218,85 " style="fill:white; stroke-width:1; stroke:black; " description="&lt;b&gt;DAB41647.1&lt;/b&gt;&lt;br&gt;cytochrome P450 monooxygenase&lt;br&gt;Location: 16377 - 14641" locus_tag="DAB41647.1" class="clusterblast-orf" id="knownclusterblast-1_all_1_1_2"  />
</g>
<g id="a1_003"  >
<polygon points="338,90 399,90 404,85 399,80 338,80 338,90 " style="fill:#b1d815; stroke-width:1; stroke:black; " description="&lt;b&gt;DAB41646.1&lt;/b&gt;&lt;br&gt;cytochrome P450 monooxygenase&lt;br&gt;Location: 12798 - 10820&lt;br&gt;&lt;br&gt;&lt;b&gt;BlastP hit with input.path1.gene110&lt;/b&gt;&lt;br&gt;Percentage identity: 54&lt;br&gt;Percentage coverage: 98&lt;br&gt;BLAST bit score: 522&lt;br&gt;E-value: 4.9e-183" locus_tag="DAB41646.1" class="clusterblast-orf" id="knownclusterblast-1_all_1_1_3"  />
</g>
<g id="a1_004"  >
<polygon points="491,85 496,80 524,80 524,90 496,90 491,85 " style="fill:#1563d8; stroke-width:1; stroke:black; " description="&lt;b&gt;DAB41645.1&lt;/b&gt;&lt;br&gt;prenyl transferase&lt;br&gt;Location: 8230 - 7240&lt;br&gt;&lt;br&gt;&lt;b&gt;BlastP hit with input.path1.gene107&lt;/b&gt;&lt;br&gt;Percentage identity: 65&lt;br&gt;Percentage coverage: 89&lt;br&gt;BLAST bit score: 403&lt;br&gt;E-value: 1.86e-141" locus_tag="DAB41645.1" class="clusterblast-orf" id="knownclusterblast-1_all_1_1_4"  />
</g>
<g id="a1_005"  >
<polygon points="613,90 668,90 673,85 668,80 613,80 613,90 " style="fill:#15d863; stroke-width:1; stroke:black; " description="&lt;b&gt;DAB41644.1&lt;/b&gt;&lt;br&gt;FAD-dependent monooxygenase&lt;br&gt;Location: 4596 - 2791&lt;br&gt;&lt;br&gt;&lt;b&gt;BlastP hit with input.path1.gene105&lt;/b&gt;&lt;br&gt;Percentage identity: 53&lt;br&gt;Percentage coverage: 70&lt;br&gt;BLAST bit score: 126&lt;br&gt;E-value: 3.39e-35" locus_tag="DAB41644.1" class="clusterblast-orf" id="knownclusterblast-1_all_1_1_5"  />
</g>
<g label="BGC0001260" description="BGC0001260_c1: terpendole E (71% of genes show similarity), Terpene" class="clusterblast-cluster"  >
<text x="5" y="120" class="clusterblast-acc"  >
<a xlink:href="https://mibig.secondarymetabolites.org/go/BGC0001260/1" target="_blank">BGC0001260</a>: terpendole E                                                                     (71% of genes show similarity), Terpene</text>
<line x1="10" y1="135" x2="778.0" y2="135" style="stroke-width:1; stroke:grey; "  />
</g>
<g id="a1_000"  >
<polygon points="133,135 138,130 199,130 199,140 138,140 133,135 " style="fill:#d81515; stroke-width:1; stroke:black; " description="&lt;b&gt;BAM84045.1&lt;/b&gt;&lt;br&gt;cytochrome P450 monooxygenase&lt;br&gt;Location: 1 - 1970&lt;br&gt;&lt;br&gt;&lt;b&gt;BlastP hit with input.path1.gene104&lt;/b&gt;&lt;br&gt;Percentage identity: 59&lt;br&gt;Percentage coverage: 99&lt;br&gt;BLAST bit score: 369&lt;br&gt;E-value: 1.73e-125" locus_tag="BAM84045.1" class="clusterblast-orf" id="knownclusterblast-1_all_1_2_0"  />
</g>
<g id="a1_001"  >
<polygon points="245,135 250,130 280,130 280,140 250,140 245,135 " style="fill:#1563d8; stroke-width:1; stroke:black; " description="&lt;b&gt;BAM84046.1&lt;/b&gt;&lt;br&gt;prenyl transferase&lt;br&gt;Location: 3317 - 4381&lt;br&gt;&lt;br&gt;&lt;b&gt;BlastP hit with input.path1.gene107&lt;/b&gt;&lt;br&gt;Percentage identity: 61&lt;br&gt;Percentage coverage: 99&lt;br&gt;BLAST bit score: 424&lt;br&gt;E-value: 2.52e-149" locus_tag="BAM84046.1" class="clusterblast-orf" id="knownclusterblast-1_all_1_2_1"  />
</g>
<g id="a1_002"  >
<polygon points="292,140 314,140 319,135 314,130 292,130 292,140 " style="fill:white; stroke-width:1; stroke:black; " description="&lt;b&gt;BAM84047.1&lt;/b&gt;&lt;br&gt;terpene cyclase&lt;br&gt;Location: 4731 - 5524" locus_tag="BAM84047.1" class="clusterblast-orf" id="knownclusterblast-1_all_1_2_2"  />
</g>
<g id="a1_003"  >
<polygon points="347,135 352,130 416,130 416,140 352,140 347,135 " style="fill:#b1d815; stroke-width:1; stroke:black; " description="&lt;b&gt;BAM84048.1&lt;/b&gt;&lt;br&gt;cytochrome P450 monooxygenase&lt;br&gt;Location: 6377 - 8419&lt;br&gt;&lt;br&gt;&lt;b&gt;BlastP hit with input.path1.gene110&lt;/b&gt;&lt;br&gt;Percentage identity: 70&lt;br&gt;Percentage coverage: 98&lt;br&gt;BLAST bit score: 665&lt;br&gt;E-value: 4.95e-239" locus_tag="BAM84048.1" class="clusterblast-orf" id="knownclusterblast-1_all_1_2_3"  />
</g>
<g id="a1_004"  >
<polygon points="425,135 430,130 478,130 478,140 430,140 425,135 " style="fill:#15d863; stroke-width:1; stroke:black; " description="&lt;b&gt;BAM84049.1&lt;/b&gt;&lt;br&gt;FAD-dependent monooxygenase&lt;br&gt;Location: 8699 - 10276&lt;br&gt;&lt;br&gt;&lt;b&gt;BlastP hit with input.path1.gene105&lt;/b&gt;&lt;br&gt;Percentage identity: 52&lt;br&gt;Percentage coverage: 69&lt;br&gt;BLAST bit score: 118&lt;br&gt;E-value: 7.38e-32" locus_tag="BAM84049.1" class="clusterblast-orf" id="knownclusterblast-1_all_1_2_4"  />
</g>
<g id="a1_005"  >
<polygon points="503,140 558,140 563,135 558,130 503,130 503,140 " style="fill:white; stroke-width:1; stroke:black; " description="&lt;b&gt;BAM84050.1&lt;/b&gt;&lt;br&gt;cytochrome P450 monooxygenase&lt;br&gt;Location: 11017 - 12798" locus_tag="BAM84050.1" class="clusterblast-orf" id="knownclusterblast-1_all_1_2_5"  />
</g>
<g id="a1_006"  >
<polygon points="598,140 641,140 646,135 641,130 598,130 598,140 " style="fill:#b115d8; stroke-width:1; stroke:black; " description="&lt;b&gt;BAM84051.1&lt;/b&gt;&lt;br&gt;aromatic prenyl transferase&lt;br&gt;Location: 13860 - 15275&lt;br&gt;&lt;br&gt;&lt;b&gt;BlastP hit with input.path1.gene109&lt;/b&gt;&lt;br&gt;Percentage identity: 58&lt;br&gt;Percentage coverage: 100&lt;br&gt;BLAST bit score: 416&lt;br&gt;E-value: 1.1e-144" locus_tag="BAM84051.1" class="clusterblast-orf" id="knownclusterblast-1_all_1_2_6"  />
</g>
<g label="BGC0001775" description="BGC0001775_c1: sespendole (33% of genes show similarity), Terpene" class="clusterblast-cluster"  >
<text x="5" y="170" class="clusterblast-acc"  >
<a xlink:href="https://mibig.secondarymetabolites.org/go/BGC0001775/1" target="_blank">BGC0001775</a>: sespendole                                                                       (33% of genes show similarity), Terpene</text>
<line x1="10" y1="185" x2="778.0" y2="185" style="stroke-width:1; stroke:grey; "  />
</g>
<g id="a1_000"  >
<polygon points="88,185 93,180 155,180 155,190 93,190 88,185 " style="fill:white; stroke-width:1; stroke:black; " description="&lt;b&gt;BBD84647.1&lt;/b&gt;&lt;br&gt;putative GMC oxidoreductase&lt;br&gt;Location: 20673 - 18681" locus_tag="BBD84647.1" class="clusterblast-orf" id="knownclusterblast-1_all_1_3_0"  />
</g>
<g id="a1_001"  >
<polygon points="323,185 328,180 389,180 389,190 328,190 323,185 " style="fill:white; stroke-width:1; stroke:black; " description="&lt;b&gt;BBD84646.1&lt;/b&gt;&lt;br&gt;putative cytochrome P450&lt;br&gt;Location: 13665 - 11720" locus_tag="BBD84646.1" class="clusterblast-orf" id="knownclusterblast-1_all_1_3_1"  />
</g>
<g id="a1_002"  >
<polygon points="420,185 425,180 507,180 507,190 425,190 420,185 " style="fill:#1563d8; stroke-width:1; stroke:black; " description="&lt;b&gt;BBD84645.1&lt;/b&gt;&lt;br&gt;putative prenyltransferase&lt;br&gt;Location: 10791 - 8178&lt;br&gt;&lt;br&gt;&lt;b&gt;BlastP hit with input.path1.gene107&lt;/b&gt;&lt;br&gt;Percentage identity: 60&lt;br&gt;Percentage coverage: 87&lt;br&gt;BLAST bit score: 365&lt;br&gt;E-value: 1.84e-120" locus_tag="BBD84645.1" class="clusterblast-orf" id="knownclusterblast-1_all_1_3_2"  />
</g>
<g id="a1_003"  >
<polygon points="517,190 538,190 543,185 538,180 517,180 517,190 " style="fill:white; stroke-width:1; stroke:black; " description="&lt;b&gt;BBD84644.1&lt;/b&gt;&lt;br&gt;putative membrane protein&lt;br&gt;Location: 7898 - 7108" locus_tag="BBD84644.1" class="clusterblast-orf" id="knownclusterblast-1_all_1_3_3"  />
</g>
<g id="a1_004"  >
<polygon points="566,190 613,190 618,185 613,180 566,180 566,190 " style="fill:white; stroke-width:1; stroke:black; " description="&lt;b&gt;BBD84643.1&lt;/b&gt;&lt;br&gt;putative monooxygenase&lt;br&gt;Location: 6431 - 4888" locus_tag="BBD84643.1" class="clusterblast-orf" id="knownclusterblast-1_all_1_3_4"  />
</g>
<g id="a1_005"  >
<polygon points="626,190 686,190 691,185 686,180 626,180 626,190 " style="fill:#b1d815; stroke-width:1; stroke:black; " description="&lt;b&gt;BBD84642.1&lt;/b&gt;&lt;br&gt;putative cytochrome P450&lt;br&gt;Location: 4638 - 2712&lt;br&gt;&lt;br&gt;&lt;b&gt;BlastP hit with input.path1.gene110&lt;/b&gt;&lt;br&gt;Percentage identity: 48&lt;br&gt;Percentage coverage: 99&lt;br&gt;BLAST bit score: 429&lt;br&gt;E-value: 1.41e-146" locus_tag="BBD84642.1" class="clusterblast-orf" id="knownclusterblast-1_all_1_3_5"  />
</g>
</svg>
