<svg xmlns="http://www.w3.org/2000/svg" xmlns:xlink="http://www.w3.org/1999/xlink" version="1.1" x="0" y="0" height="300" width="800" viewBox="0 0 800 300" preserveAspectRatio="none"  >
<g label="Query sequence" class="clusterblast-cluster"  >
<text x="5" y="20" class="clusterblast-acc"  >
Query sequence</text>
<line x1="10" y1="35" x2="778.0" y2="35" style="stroke-width:1; stroke:grey; "  />
<polygon points="0,35 3,30 3,40 0,35 " style="fill:#d81515; stroke-width:1; stroke:black; " description="&lt;b&gt;input.path1.gene2&lt;/b&gt;&lt;br&gt;input.path1.gene2&lt;br&gt;Location: 2746 - 3090" locus_tag="input.path1.gene2" class="clusterblast-orf" id="knownclusterblast-1_q0_0_all"  />
<polygon points="20,40 33,40 38,35 33,30 20,30 20,40 " style="fill:#43d815; stroke-width:1; stroke:black; " description="&lt;b&gt;input.path1.gene3&lt;/b&gt;&lt;br&gt;input.path1.gene3&lt;br&gt;Location: 5135 - 7299" locus_tag="input.path1.gene3" class="clusterblast-orf" id="knownclusterblast-1_q1_0_all"  />
<polygon points="57,40 59,40 64,35 59,30 57,30 57,40 " style="fill:#15b6d8; stroke-width:1; stroke:black; " description="&lt;b&gt;input.path1.gene4&lt;/b&gt;&lt;br&gt;input.path1.gene4&lt;br&gt;Location: 9547 - 10363" locus_tag="input.path1.gene4" class="clusterblast-orf" id="knownclusterblast-1_q2_0_all"  />
<polygon points="83,40 84,40 89,35 84,30 83,30 83,40 " style="fill:white; stroke-width:1; stroke:black; " description="&lt;b&gt;input.path1.gene5&lt;/b&gt;&lt;br&gt;input.path1.gene5&lt;br&gt;Location: 12554 - 13272" locus_tag="input.path1.gene5" class="clusterblast-orf" id="knownclusterblast-1_q3_0_all"  />
<polygon points="123,35 128,30 145,30 145,40 128,40 123,35 " style="fill:#8815d8; stroke-width:1; stroke:black; " description="&lt;b&gt;input.path1.gene6&lt;/b&gt;&lt;br&gt;input.path1.gene6&lt;br&gt;Location: 17323 - 19855" locus_tag="input.path1.gene6" class="clusterblast-orf" id="knownclusterblast-1_q4_0_all"  />
<polygon points="156,40 215,40 220,35 215,30 156,30 156,40 " style="fill:#d85a15; stroke-width:1; stroke:black; " description="&lt;b&gt;input.path1.gene7&lt;/b&gt;&lt;br&gt;input.path1.gene7&lt;br&gt;Location: 21103 - 28714" locus_tag="input.path1.gene7" class="clusterblast-orf" id="knownclusterblast-1_q5_0_all"  />
<polygon points="240,40 256,40 261,35 256,30 240,30 240,40 " style="fill:#d85a15; stroke-width:1; stroke:black; " description="&lt;b&gt;input.path1.gene8&lt;/b&gt;&lt;br&gt;input.path1.gene8&lt;br&gt;Location: 31007 - 33553" locus_tag="input.path1.gene8" class="clusterblast-orf" id="knownclusterblast-1_q6_0_all"  />
<polygon points="264,35 269,30 271,30 271,40 269,40 264,35 " style="fill:#15d82c; stroke-width:1; stroke:black; " description="&lt;b&gt;input.path1.gene9&lt;/b&gt;&lt;br&gt;input.path1.gene9&lt;br&gt;Location: 33874 - 34745" locus_tag="input.path1.gene9" class="clusterblast-orf" id="knownclusterblast-1_q7_0_all"  />
<polygon points="280,40 286,40 291,35 286,30 280,30 280,40 " style="fill:#1571d8; stroke-width:1; stroke:black; " description="&lt;b&gt;input.path1.gene10&lt;/b&gt;&lt;br&gt;input.path1.gene10&lt;br&gt;Location: 35710 - 37071" locus_tag="input.path1.gene10" class="clusterblast-orf" id="knownclusterblast-1_q8_0_all"  />
<polygon points="303,35 308,30 325,30 325,40 308,40 303,35 " style="fill:#cd15d8; stroke-width:1; stroke:black; " description="&lt;b&gt;input.path1.gene11&lt;/b&gt;&lt;br&gt;input.path1.gene11&lt;br&gt;Location: 38414 - 41060" locus_tag="input.path1.gene11" class="clusterblast-orf" id="knownclusterblast-1_q9_0_all"  />
<polygon points="328,40 335,40 340,35 335,30 328,30 328,40 " style="fill:#d89f15; stroke-width:1; stroke:black; " description="&lt;b&gt;input.path1.gene12&lt;/b&gt;&lt;br&gt;input.path1.gene12&lt;br&gt;Location: 41460 - 42863" locus_tag="input.path1.gene12" class="clusterblast-orf" id="knownclusterblast-1_q10_0_all"  />
<polygon points="366,40 366,40 371,35 366,30 366,30 366,40 " style="fill:#15d871; stroke-width:1; stroke:black; " description="&lt;b&gt;input.path1.gene13&lt;/b&gt;&lt;br&gt;input.path1.gene13&lt;br&gt;Location: 45935 - 46421" locus_tag="input.path1.gene13" class="clusterblast-orf" id="knownclusterblast-1_q11_0_all"  />
<polygon points="374,35 379,30 398,30 398,40 379,40 374,35 " style="fill:#152cd8; stroke-width:1; stroke:black; " description="&lt;b&gt;input.path1.gene14&lt;/b&gt;&lt;br&gt;input.path1.gene14&lt;br&gt;Location: 46805 - 49670" locus_tag="input.path1.gene14" class="clusterblast-orf" id="knownclusterblast-1_q12_0_all"  />
<polygon points="405,40 406,40 411,35 406,30 405,30 405,40 " style="fill:white; stroke-width:1; stroke:black; " description="&lt;b&gt;input.path1.gene15&lt;/b&gt;&lt;br&gt;input.path1.gene15&lt;br&gt;Location: 50497 - 51136" locus_tag="input.path1.gene15" class="clusterblast-orf" id="knownclusterblast-1_q13_0_all"  />
<polygon points="426,35 431,30 435,30 435,40 431,40 426,35 " style="fill:white; stroke-width:1; stroke:black; " description="&lt;b&gt;input.path1.gene16&lt;/b&gt;&lt;br&gt;input.path1.gene16&lt;br&gt;Location: 52972 - 53975" locus_tag="input.path1.gene16" class="clusterblast-orf" id="knownclusterblast-1_q14_0_all"  />
<polygon points="440,40 446,40 451,35 446,30 440,30 440,40 " style="fill:#d8159f; stroke-width:1; stroke:black; " description="&lt;b&gt;input.path1.gene17&lt;/b&gt;&lt;br&gt;input.path1.gene17&lt;br&gt;Location: 54639 - 55939" locus_tag="input.path1.gene17" class="clusterblast-orf" id="knownclusterblast-1_q15_0_all"  />
<polygon points="473,40 476,40 481,35 476,30 473,30 473,40 " style="fill:white; stroke-width:1; stroke:black; " description="&lt;b&gt;input.path1.gene18&lt;/b&gt;&lt;br&gt;input.path1.gene18&lt;br&gt;Location: 58536 - 59414" locus_tag="input.path1.gene18" class="clusterblast-orf" id="knownclusterblast-1_q16_0_all"  />
<polygon points="487,35 492,30 497,30 497,40 492,40 487,35 " style="fill:#cdd815; stroke-width:1; stroke:black; " description="&lt;b&gt;input.path1.gene19&lt;/b&gt;&lt;br&gt;input.path1.gene19&lt;br&gt;Location: 60163 - 61312" locus_tag="input.path1.gene19" class="clusterblast-orf" id="knownclusterblast-1_q17_0_all"  />
<polygon points="514,40 523,40 528,35 523,30 514,30 514,40 " style="fill:#15d8b6; stroke-width:1; stroke:black; " description="&lt;b&gt;input.path1.gene20&lt;/b&gt;&lt;br&gt;input.path1.gene20&lt;br&gt;Location: 63336 - 64928" locus_tag="input.path1.gene20" class="clusterblast-orf" id="knownclusterblast-1_q18_0_all"  />
<polygon points="528,35 533,30 538,30 538,40 533,40 528,35 " style="fill:#4315d8; stroke-width:1; stroke:black; " description="&lt;b&gt;input.path1.gene21&lt;/b&gt;&lt;br&gt;input.path1.gene21&lt;br&gt;Location: 64983 - 66163" locus_tag="input.path1.gene21" class="clusterblast-orf" id="knownclusterblast-1_q19_0_all"  />
<polygon points="548,40 559,40 564,35 559,30 548,30 548,40 " style="fill:#d8155a; stroke-width:1; stroke:black; " description="&lt;b&gt;input.path1.gene22&lt;/b&gt;&lt;br&gt;input.path1.gene22&lt;br&gt;Location: 67316 - 69180" locus_tag="input.path1.gene22" class="clusterblast-orf" id="knownclusterblast-1_q20_0_all"  />
<polygon points="593,40 637,40 642,35 637,30 593,30 593,40 " style="fill:#88d815; stroke-width:1; stroke:black; " description="&lt;b&gt;input.path1.gene23&lt;/b&gt;&lt;br&gt;input.path1.gene23&lt;br&gt;Location: 72622 - 78363" locus_tag="input.path1.gene23" class="clusterblast-orf" id="knownclusterblast-1_q21_0_all"  />
<polygon points="643,35 648,30 660,30 660,40 648,40 643,35 " style="fill:white; stroke-width:1; stroke:black; " description="&lt;b&gt;input.path1.gene24&lt;/b&gt;&lt;br&gt;input.path1.gene24&lt;br&gt;Location: 78485 - 80497" locus_tag="input.path1.gene24" class="clusterblast-orf" id="knownclusterblast-1_q22_0_all"  />
<polygon points="678,35 683,30 710,30 710,40 683,40 678,35 " style="fill:white; stroke-width:1; stroke:black; " description="&lt;b&gt;input.path1.gene25&lt;/b&gt;&lt;br&gt;input.path1.gene25&lt;br&gt;Location: 82613 - 86339" locus_tag="input.path1.gene25" class="clusterblast-orf" id="knownclusterblast-1_q23_0_all"  />
<polygon points="744,40 747,40 752,35 747,30 744,30 744,40 " style="fill:white; stroke-width:1; stroke:black; " description="&lt;b&gt;input.path1.gene26&lt;/b&gt;&lt;br&gt;input.path1.gene26&lt;br&gt;Location: 90333 - 91340" locus_tag="input.path1.gene26" class="clusterblast-orf" id="knownclusterblast-1_q24_0_all"  />
<polygon points="758,40 761,40 766,35 761,30 758,30 758,40 " style="fill:white; stroke-width:1; stroke:black; " description="&lt;b&gt;input.path1.gene27&lt;/b&gt;&lt;br&gt;input.path1.gene27&lt;br&gt;Location: 92022 - 92979" locus_tag="input.path1.gene27" class="clusterblast-orf" id="knownclusterblast-1_q25_0_all"  />
<polygon points="772,40 775,40 780,35 775,30 772,30 772,40 " style="fill:white; stroke-width:1; stroke:black; " description="&lt;b&gt;input.path1.gene28&lt;/b&gt;&lt;br&gt;input.path1.gene28&lt;br&gt;Location: 93683 - 94571" locus_tag="input.path1.gene28" class="clusterblast-orf" id="knownclusterblast-1_q26_0_all"  />
</g>
<g label="BGC0001037" description="BGC0001037_c1: pseurotin/azaspirene (80% of genes show similarity), NRP+Polyketide:Iterative type I polyketide" class="clusterblast-cluster"  >
<text x="5" y="70" class="clusterblast-acc"  >
<a xlink:href="https://mibig.secondarymetabolites.org/go/BGC0001037/1" target="_blank">BGC0001037</a>: pseurotin/azaspirene                                                             (80% of genes show similarity), NRP+Polyketide:Iterative type I polyketide</text>
<line x1="10" y1="85" x2="778.0" y2="85" style="stroke-width:1; stroke:grey; "  />
</g>
<g id="a1_000"  >
<polygon points="310,85 315,80 321,80 321,90 315,90 310,85 " style="fill:#8815d8; stroke-width:1; stroke:black; " description="&lt;b&gt;AFUA_8G00530&lt;/b&gt;&lt;br&gt;alpha/beta hydrolase&lt;br&gt;Location: 1 - 1338&lt;br&gt;&lt;br&gt;&lt;b&gt;BlastP hit with input.path1.gene6&lt;/b&gt;&lt;br&gt;Percentage identity: 82&lt;br&gt;Percentage coverage: 67&lt;br&gt;BLAST bit score: 377&lt;br&gt;E-value: 2.78e-129" locus_tag="AFUA_8G00530" class="clusterblast-orf" id="knownclusterblast-1_all_1_1_0"  />
</g>
<g id="a1_001"  >
<polygon points="325,90 424,90 429,85 424,80 325,80 325,90 " style="fill:#d85a15; stroke-width:1; stroke:black; " description="&lt;b&gt;AFUA_8G00540&lt;/b&gt;&lt;br&gt;hybrid PKS-NRPS enzyme&lt;br&gt;Location: 1801 - 14106&lt;br&gt;&lt;br&gt;&lt;b&gt;BlastP hit with input.path1.gene7&lt;/b&gt;&lt;br&gt;Percentage identity: 55&lt;br&gt;Percentage coverage: 115&lt;br&gt;BLAST bit score: 2506&lt;br&gt;E-value: 0.0&lt;br&gt;&lt;br&gt;&lt;b&gt;BlastP hit with input.path1.gene8&lt;/b&gt;&lt;br&gt;Percentage identity: 66&lt;br&gt;Percentage coverage: 100&lt;br&gt;BLAST bit score: 1028&lt;br&gt;E-value: 0.0" locus_tag="AFUA_8G00540" class="clusterblast-orf" id="knownclusterblast-1_all_1_1_1"  />
</g>
<g id="a1_002"  >
<polygon points="431,85 436,80 439,80 439,90 436,90 431,85 " style="fill:#15d82c; stroke-width:1; stroke:black; " description="&lt;b&gt;AFUA_8G00550&lt;/b&gt;&lt;br&gt;methyltransferase&lt;br&gt;Location: 14341 - 15210&lt;br&gt;&lt;br&gt;&lt;b&gt;BlastP hit with input.path1.gene9&lt;/b&gt;&lt;br&gt;Percentage identity: 65&lt;br&gt;Percentage coverage: 99&lt;br&gt;BLAST bit score: 370&lt;br&gt;E-value: 5.21e-130" locus_tag="AFUA_8G00550" class="clusterblast-orf" id="knownclusterblast-1_all_1_1_2"  />
</g>
<g id="a1_003"  >
<polygon points="443,90 453,90 458,85 453,80 443,80 443,90 " style="fill:#1571d8; stroke-width:1; stroke:black; " description="&lt;b&gt;AFUA_8G00560&lt;/b&gt;&lt;br&gt;cytochrome P450 oxidoreductase&lt;br&gt;Location: 15749 - 17497&lt;br&gt;&lt;br&gt;&lt;b&gt;BlastP hit with input.path1.gene10&lt;/b&gt;&lt;br&gt;Percentage identity: 66&lt;br&gt;Percentage coverage: 110&lt;br&gt;BLAST bit score: 436&lt;br&gt;E-value: 3.32e-152" locus_tag="AFUA_8G00560" class="clusterblast-orf" id="knownclusterblast-1_all_1_1_3"  />
</g>
<g id="a1_004"  >
<polygon points="459,85 464,80 469,80 469,90 464,90 459,85 " style="fill:white; stroke-width:1; stroke:black; " description="&lt;b&gt;AFUA_8G00570&lt;/b&gt;&lt;br&gt;alpha/beta hydrolase, putative&lt;br&gt;Location: 17586 - 18799" locus_tag="AFUA_8G00570" class="clusterblast-orf" id="knownclusterblast-1_all_1_1_4"  />
</g>
<g label="BGC0002177" description="BGC0002177_c1: ustilaginoidin N/ustilaginoidin O/ustilaginoidin M/ustilaginoi... (38% of genes show similarity), Polyketide" class="clusterblast-cluster"  >
<text x="5" y="120" class="clusterblast-acc"  >
<a xlink:href="https://mibig.secondarymetabolites.org/go/BGC0002177/1" target="_blank">BGC0002177</a>: ustilaginoidin N/ustilaginoidin O/ustilaginoidin M/ustilaginoidin A/ustilaginoidin F/ustilaginoidin E/ustilaginoidin D/ustilaginoidin G (38% of genes show similarity), Polyketide</text>
<line x1="10" y1="135" x2="778.0" y2="135" style="stroke-width:1; stroke:grey; "  />
</g>
<g id="a1_000"  >
<polygon points="171,135 176,130 192,130 192,140 176,140 171,135 " style="fill:#cdd815; stroke-width:1; stroke:black; " description="&lt;b&gt;UV8b_2091&lt;/b&gt;&lt;br&gt;laccase&lt;br&gt;Location: 51733 - 49339&lt;br&gt;&lt;br&gt;&lt;b&gt;BlastP hit with input.path1.gene19&lt;/b&gt;&lt;br&gt;Percentage identity: 78&lt;br&gt;Percentage coverage: 102&lt;br&gt;BLAST bit score: 642&lt;br&gt;E-value: 9.64e-231" locus_tag="UV8b_2091" class="clusterblast-orf" id="knownclusterblast-1_all_1_2_0"  />
</g>
<g id="a1_001"  >
<polygon points="208,140 217,140 222,135 217,130 208,130 208,140 " style="fill:#15d8b6; stroke-width:1; stroke:black; " description="&lt;b&gt;UV8b_2090&lt;/b&gt;&lt;br&gt;polyketide synthase&lt;br&gt;Location: 47441 - 45816&lt;br&gt;&lt;br&gt;&lt;b&gt;BlastP hit with input.path1.gene20&lt;/b&gt;&lt;br&gt;Percentage identity: 48&lt;br&gt;Percentage coverage: 105&lt;br&gt;BLAST bit score: 305&lt;br&gt;E-value: 8.31e-100" locus_tag="UV8b_2090" class="clusterblast-orf" id="knownclusterblast-1_all_1_2_1"  />
</g>
<g id="a1_002"  >
<polygon points="231,135 236,130 239,130 239,140 236,140 231,135 " style="fill:#4315d8; stroke-width:1; stroke:black; " description="&lt;b&gt;UV8b_2089&lt;/b&gt;&lt;br&gt;ERG4/ERG24 ergosterol biosynthesis-like protein&lt;br&gt;Location: 44681 - 43787&lt;br&gt;&lt;br&gt;&lt;b&gt;BlastP hit with input.path1.gene21&lt;/b&gt;&lt;br&gt;Percentage identity: 70&lt;br&gt;Percentage coverage: 87&lt;br&gt;BLAST bit score: 368&lt;br&gt;E-value: 4.2e-129" locus_tag="UV8b_2089" class="clusterblast-orf" id="knownclusterblast-1_all_1_2_2"  />
</g>
<g id="a1_003"  >
<polygon points="258,140 270,140 275,135 270,130 258,130 258,140 " style="fill:#d8155a; stroke-width:1; stroke:black; " description="&lt;b&gt;UV8b_2088&lt;/b&gt;&lt;br&gt;major facilitator superfamily transporter&lt;br&gt;Location: 41514 - 39590&lt;br&gt;&lt;br&gt;&lt;b&gt;BlastP hit with input.path1.gene22&lt;/b&gt;&lt;br&gt;Percentage identity: 80&lt;br&gt;Percentage coverage: 91&lt;br&gt;BLAST bit score: 856&lt;br&gt;E-value: 3.21e-312" locus_tag="UV8b_2088" class="clusterblast-orf" id="knownclusterblast-1_all_1_2_3"  />
</g>
<g id="a1_004"  >
<polygon points="280,135 284,130 284,140 280,135 " style="fill:white; stroke-width:1; stroke:black; " description="&lt;b&gt;UV8b_2087&lt;/b&gt;&lt;br&gt;hypothetical protein&lt;br&gt;Location: 38990 - 38435" locus_tag="UV8b_2087" class="clusterblast-orf" id="knownclusterblast-1_all_1_2_4"  />
</g>
<g id="a1_005"  >
<polygon points="300,140 365,140 370,135 365,130 300,130 300,140 " style="fill:#88d815; stroke-width:1; stroke:black; " description="&lt;b&gt;UV8b_2086&lt;/b&gt;&lt;br&gt;polyketide synthetase PksP&lt;br&gt;Location: 36566 - 28385&lt;br&gt;&lt;br&gt;&lt;b&gt;BlastP hit with input.path1.gene23&lt;/b&gt;&lt;br&gt;Percentage identity: 63&lt;br&gt;Percentage coverage: 103&lt;br&gt;BLAST bit score: 2370&lt;br&gt;E-value: 0.0" locus_tag="UV8b_2086" class="clusterblast-orf" id="knownclusterblast-1_all_1_2_5"  />
</g>
<g id="a1_006"  >
<polygon points="375,135 379,130 379,140 375,135 " style="fill:white; stroke-width:1; stroke:black; " description="&lt;b&gt;UV8b_2085&lt;/b&gt;&lt;br&gt;hypothetical protein&lt;br&gt;Location: 27749 - 27275" locus_tag="UV8b_2085" class="clusterblast-orf" id="knownclusterblast-1_all_1_2_6"  />
</g>
<g id="a1_007"  >
<polygon points="382,135 387,130 401,130 401,140 387,140 382,135 " style="fill:white; stroke-width:1; stroke:black; " description="&lt;b&gt;UV8b_2084&lt;/b&gt;&lt;br&gt;regulator of conidiation&lt;br&gt;Location: 26911 - 24664" locus_tag="UV8b_2084" class="clusterblast-orf" id="knownclusterblast-1_all_1_2_7"  />
</g>
<g id="a1_008"  >
<polygon points="428,135 433,130 448,130 448,140 433,140 428,135 " style="fill:white; stroke-width:1; stroke:black; " description="&lt;b&gt;UV8b_2083&lt;/b&gt;&lt;br&gt;putative fumarate reductase Osm1&lt;br&gt;Location: 21524 - 19192" locus_tag="UV8b_2083" class="clusterblast-orf" id="knownclusterblast-1_all_1_2_8"  />
</g>
<g id="a1_009"  >
<polygon points="450,140 451,140 456,135 451,130 450,130 450,140 " style="fill:white; stroke-width:1; stroke:black; " description="&lt;b&gt;UV8b_2082&lt;/b&gt;&lt;br&gt;hypothetical protein&lt;br&gt;Location: 18886 - 18212" locus_tag="UV8b_2082" class="clusterblast-orf" id="knownclusterblast-1_all_1_2_9"  />
</g>
<g id="a1_0010"  >
<polygon points="470,140 472,140 477,135 472,130 470,130 470,140 " style="fill:white; stroke-width:1; stroke:black; " description="&lt;b&gt;UV8b_2081&lt;/b&gt;&lt;br&gt;FAS1 domain-containing protein&lt;br&gt;Location: 16566 - 15726" locus_tag="UV8b_2081" class="clusterblast-orf" id="knownclusterblast-1_all_1_2_10"  />
</g>
<g id="a1_0011"  >
<polygon points="486,135 491,130 504,130 504,140 491,140 486,135 " style="fill:white; stroke-width:1; stroke:black; " description="&lt;b&gt;UV8b_2080&lt;/b&gt;&lt;br&gt;MADS-box MEF2 type transcription factor&lt;br&gt;Location: 14734 - 12558" locus_tag="UV8b_2080" class="clusterblast-orf" id="knownclusterblast-1_all_1_2_11"  />
</g>
<g id="a1_0012"  >
<polygon points="573,135 578,130 608,130 608,140 578,140 573,135 " style="fill:white; stroke-width:1; stroke:black; " description="&lt;b&gt;UV8b_2079&lt;/b&gt;&lt;br&gt;transcription factor TFIID complex subunit Taf111&lt;br&gt;Location: 4426 - 387" locus_tag="UV8b_2079" class="clusterblast-orf" id="knownclusterblast-1_all_1_2_12"  />
</g>
<g label="BGC0001067" description="BGC0001067_c1: fumagillin/β-trans-bergamotene/fumagillol (53% of genes show similarity), Terpene+Polyketide:Iterative type I polyketide" class="clusterblast-cluster"  >
<text x="5" y="170" class="clusterblast-acc"  >
<a xlink:href="https://mibig.secondarymetabolites.org/go/BGC0001067/1" target="_blank">BGC0001067</a>: fumagillin/β-trans-bergamotene/fumagillol                                        (53% of genes show similarity), Terpene+Polyketide:Iterative type I polyketide</text>
<line x1="10" y1="185" x2="778.0" y2="185" style="stroke-width:1; stroke:grey; "  />
</g>
<g id="a1_000"  >
<polygon points="240,185 245,180 246,180 246,190 245,190 240,185 " style="fill:#d81515; stroke-width:1; stroke:black; " description="&lt;b&gt;AFUA_8G00520&lt;/b&gt;&lt;br&gt;terpene cycase&lt;br&gt;Location: 35154 - 34460&lt;br&gt;&lt;br&gt;&lt;b&gt;BlastP hit with input.path1.gene2&lt;/b&gt;&lt;br&gt;Percentage identity: 84&lt;br&gt;Percentage coverage: 63&lt;br&gt;BLAST bit score: 80&lt;br&gt;E-value: 2.2e-20" locus_tag="AFUA_8G00520" class="clusterblast-orf" id="knownclusterblast-1_all_1_3_0"  />
</g>
<g id="a1_001"  >
<polygon points="256,190 265,190 270,185 265,180 256,180 256,190 " style="fill:#43d815; stroke-width:1; stroke:black; " description="&lt;b&gt;AFUA_8G00510&lt;/b&gt;&lt;br&gt;cytochrome P450 oxidoreductase&lt;br&gt;Location: 33312 - 31648&lt;br&gt;&lt;br&gt;&lt;b&gt;BlastP hit with input.path1.gene3&lt;/b&gt;&lt;br&gt;Percentage identity: 76&lt;br&gt;Percentage coverage: 85&lt;br&gt;BLAST bit score: 637&lt;br&gt;E-value: 2.46e-228" locus_tag="AFUA_8G00510" class="clusterblast-orf" id="knownclusterblast-1_all_1_3_1"  />
</g>
<g id="a1_002"  >
<polygon points="273,190 287,190 292,185 287,180 273,180 273,190 " style="fill:#15d871; stroke-width:1; stroke:black; " description="&lt;b&gt;AFUA_8G00500&lt;/b&gt;&lt;br&gt;acetate-CoA ligase, putative&lt;br&gt;Location: 31239 - 29013&lt;br&gt;&lt;br&gt;&lt;b&gt;BlastP hit with input.path1.gene13&lt;/b&gt;&lt;br&gt;Percentage identity: 67&lt;br&gt;Percentage coverage: 71&lt;br&gt;BLAST bit score: 94&lt;br&gt;E-value: 9.11e-24" locus_tag="AFUA_8G00500" class="clusterblast-orf" id="knownclusterblast-1_all_1_3_2"  />
</g>
<g id="a1_003"  >
<polygon points="293,185 298,180 320,180 320,190 298,190 293,185 " style="fill:white; stroke-width:1; stroke:black; " description="&lt;b&gt;AFUA_8G00490&lt;/b&gt;&lt;br&gt;PKS-like enzyme, ketoreductase&lt;br&gt;Location: 28965 - 25811" locus_tag="AFUA_8G00490" class="clusterblast-orf" id="knownclusterblast-1_all_1_3_3"  />
</g>
<g id="a1_004"  >
<polygon points="323,185 328,180 331,180 331,190 328,190 323,185 " style="fill:#15b6d8; stroke-width:1; stroke:black; " description="&lt;b&gt;AFUA_8G00480&lt;/b&gt;&lt;br&gt;hydroxylase&lt;br&gt;Location: 25410 - 24481&lt;br&gt;&lt;br&gt;&lt;b&gt;BlastP hit with input.path1.gene4&lt;/b&gt;&lt;br&gt;Percentage identity: 71&lt;br&gt;Percentage coverage: 105&lt;br&gt;BLAST bit score: 388&lt;br&gt;E-value: 3.84e-137" locus_tag="AFUA_8G00480" class="clusterblast-orf" id="knownclusterblast-1_all_1_3_4"  />
</g>
<g id="a1_005"  >
<polygon points="334,190 337,190 342,185 337,180 334,180 334,190 " style="fill:white; stroke-width:1; stroke:black; " description="&lt;b&gt;AFUA_8G00470&lt;/b&gt;&lt;br&gt;ABM superfamily monooxygenase&lt;br&gt;Location: 24084 - 23190" locus_tag="AFUA_8G00470" class="clusterblast-orf" id="knownclusterblast-1_all_1_3_5"  />
</g>
<g id="a1_006"  >
<polygon points="343,185 348,180 355,180 355,190 348,190 343,185 " style="fill:#d89f15; stroke-width:1; stroke:black; " description="&lt;b&gt;AFUA_8G00460&lt;/b&gt;&lt;br&gt;methionine aminopeptidase, type I, putative&lt;br&gt;Location: 23057 - 21633&lt;br&gt;&lt;br&gt;&lt;b&gt;BlastP hit with input.path1.gene12&lt;/b&gt;&lt;br&gt;Percentage identity: 73&lt;br&gt;Percentage coverage: 100&lt;br&gt;BLAST bit score: 603&lt;br&gt;E-value: 2.31e-218" locus_tag="AFUA_8G00460" class="clusterblast-orf" id="knownclusterblast-1_all_1_3_6"  />
</g>
<g id="a1_007"  >
<polygon points="372,190 390,190 395,185 390,180 372,180 372,190 " style="fill:#152cd8; stroke-width:1; stroke:black; " description="&lt;b&gt;AFUA_8G00440&lt;/b&gt;&lt;br&gt;steroid monooxygenase, putative&lt;br&gt;Location: 19685 - 16968&lt;br&gt;&lt;br&gt;&lt;b&gt;BlastP hit with input.path1.gene14&lt;/b&gt;&lt;br&gt;Percentage identity: 58&lt;br&gt;Percentage coverage: 106&lt;br&gt;BLAST bit score: 1069&lt;br&gt;E-value: 0.0" locus_tag="AFUA_8G00440" class="clusterblast-orf" id="knownclusterblast-1_all_1_3_7"  />
</g>
<g id="a1_008"  >
<polygon points="398,190 398,190 403,185 398,180 398,180 398,190 " style="fill:white; stroke-width:1; stroke:black; " description="&lt;b&gt;AFUA_8G00430&lt;/b&gt;&lt;br&gt;conserved hypothetical protein&lt;br&gt;Location: 16523 - 15993" locus_tag="AFUA_8G00430" class="clusterblast-orf" id="knownclusterblast-1_all_1_3_8"  />
</g>
<g id="a1_009"  >
<polygon points="404,185 409,180 421,180 421,190 409,190 404,185 " style="fill:white; stroke-width:1; stroke:black; " description="&lt;b&gt;AFUA_8G00420&lt;/b&gt;&lt;br&gt;C6 finger transcription factor&lt;br&gt;Location: 15817 - 13829" locus_tag="AFUA_8G00420" class="clusterblast-orf" id="knownclusterblast-1_all_1_3_9"  />
</g>
<g id="a1_0010"  >
<polygon points="429,190 440,190 445,185 440,180 429,180 429,190 " style="fill:#cd15d8; stroke-width:1; stroke:black; " description="&lt;b&gt;AFUA_8G00410&lt;/b&gt;&lt;br&gt;methionine aminopeptidase, type II, putative&lt;br&gt;Location: 12951 - 11015&lt;br&gt;&lt;br&gt;&lt;b&gt;BlastP hit with input.path1.gene11&lt;/b&gt;&lt;br&gt;Percentage identity: 65&lt;br&gt;Percentage coverage: 74&lt;br&gt;BLAST bit score: 448&lt;br&gt;E-value: 3.92e-153" locus_tag="AFUA_8G00410" class="clusterblast-orf" id="knownclusterblast-1_all_1_3_10"  />
</g>
<g id="a1_0011"  >
<polygon points="449,190 453,185 449,180 449,190 " style="fill:white; stroke-width:1; stroke:black; " description="&lt;b&gt;AFUA_8G00400&lt;/b&gt;&lt;br&gt;conserved hypothetical protein&lt;br&gt;Location: 10586 - 10099" locus_tag="AFUA_8G00400" class="clusterblast-orf" id="knownclusterblast-1_all_1_3_11"  />
</g>
<g id="a1_0012"  >
<polygon points="454,190 456,190 461,185 456,180 454,180 454,190 " style="fill:#d8159f; stroke-width:1; stroke:black; " description="&lt;b&gt;AFUA_8G00390&lt;/b&gt;&lt;br&gt;O-methyltransferase&lt;br&gt;Location: 10012 - 9208&lt;br&gt;&lt;br&gt;&lt;b&gt;BlastP hit with input.path1.gene17&lt;/b&gt;&lt;br&gt;Percentage identity: 64&lt;br&gt;Percentage coverage: 73&lt;br&gt;BLAST bit score: 336&lt;br&gt;E-value: 6.33e-116" locus_tag="AFUA_8G00390" class="clusterblast-orf" id="knownclusterblast-1_all_1_3_12"  />
</g>
<g id="a1_0013"  >
<polygon points="462,185 467,180 470,180 470,190 467,190 462,185 " style="fill:white; stroke-width:1; stroke:black; " description="&lt;b&gt;AFUA_8G00380&lt;/b&gt;&lt;br&gt;acyltransferase&lt;br&gt;Location: 9011 - 8086" locus_tag="AFUA_8G00380" class="clusterblast-orf" id="knownclusterblast-1_all_1_3_13"  />
</g>
<g id="a1_0014"  >
<polygon points="474,190 534,190 539,185 534,180 474,180 474,190 " style="fill:white; stroke-width:1; stroke:black; " description="&lt;b&gt;AFUA_8G00370&lt;/b&gt;&lt;br&gt;polyketide synthase&lt;br&gt;Location: 7603 - 1" locus_tag="AFUA_8G00370" class="clusterblast-orf" id="knownclusterblast-1_all_1_3_14"  />
</g>
<g label="BGC0002301" description="BGC0002301_c1: (P)-ustilaginoidin A (75% of genes show similarity), Polyketide" class="clusterblast-cluster"  >
<text x="5" y="220" class="clusterblast-acc"  >
<a xlink:href="https://mibig.secondarymetabolites.org/go/BGC0002301/1" target="_blank">BGC0002301</a>: (P)-ustilaginoidin A                                                             (75% of genes show similarity), Polyketide</text>
<line x1="10" y1="235" x2="778.0" y2="235" style="stroke-width:1; stroke:grey; "  />
</g>
<g id="a1_000"  >
<polygon points="318,235 323,230 337,230 337,240 323,240 318,235 " style="fill:#cdd815; stroke-width:1; stroke:black; " description="&lt;b&gt;QDK64758.1&lt;/b&gt;&lt;br&gt;AshL&lt;br&gt;Location: 2655 - 4915&lt;br&gt;&lt;br&gt;&lt;b&gt;BlastP hit with input.path1.gene19&lt;/b&gt;&lt;br&gt;Percentage identity: 76&lt;br&gt;Percentage coverage: 102&lt;br&gt;BLAST bit score: 632&lt;br&gt;E-value: 4.19e-226" locus_tag="QDK64758.1" class="clusterblast-orf" id="knownclusterblast-1_all_1_4_0"  />
</g>
<g id="a1_001"  >
<polygon points="362,240 373,240 378,235 373,230 362,230 362,240 " style="fill:#d8155a; stroke-width:1; stroke:black; " description="&lt;b&gt;QDK64761.1&lt;/b&gt;&lt;br&gt;AshT&lt;br&gt;Location: 7881 - 9670&lt;br&gt;&lt;br&gt;&lt;b&gt;BlastP hit with input.path1.gene22&lt;/b&gt;&lt;br&gt;Percentage identity: 74&lt;br&gt;Percentage coverage: 90&lt;br&gt;BLAST bit score: 789&lt;br&gt;E-value: 3.59e-286" locus_tag="QDK64761.1" class="clusterblast-orf" id="knownclusterblast-1_all_1_4_1"  />
</g>
<g id="a1_002"  >
<polygon points="380,235 385,230 385,230 385,240 385,240 380,235 " style="fill:white; stroke-width:1; stroke:black; " description="&lt;b&gt;QDK64759.1&lt;/b&gt;&lt;br&gt;AshZ&lt;br&gt;Location: 10003 - 10547" locus_tag="QDK64759.1" class="clusterblast-orf" id="knownclusterblast-1_all_1_4_2"  />
</g>
<g id="a1_003"  >
<polygon points="405,240 456,240 461,235 456,230 405,230 405,240 " style="fill:#88d815; stroke-width:1; stroke:black; " description="&lt;b&gt;QDK64760.1&lt;/b&gt;&lt;br&gt;AshP&lt;br&gt;Location: 12959 - 19498&lt;br&gt;&lt;br&gt;&lt;b&gt;BlastP hit with input.path1.gene23&lt;/b&gt;&lt;br&gt;Percentage identity: 62&lt;br&gt;Percentage coverage: 103&lt;br&gt;BLAST bit score: 2306&lt;br&gt;E-value: 0.0" locus_tag="QDK64760.1" class="clusterblast-orf" id="knownclusterblast-1_all_1_4_3"  />
</g>
<g label="BGC0001122" description="BGC0001122_c1: dihydroisoflavipucine/isoflavipucine (12% of genes show similarity), NRP+Polyketide:Iterative type I polyketide" class="clusterblast-cluster"  >
<text x="5" y="270" class="clusterblast-acc"  >
<a xlink:href="https://mibig.secondarymetabolites.org/go/BGC0001122/1" target="_blank">BGC0001122</a>: dihydroisoflavipucine/isoflavipucine                                             (12% of genes show similarity), NRP+Polyketide:Iterative type I polyketide</text>
<line x1="10" y1="285" x2="778.0" y2="285" style="stroke-width:1; stroke:grey; "  />
</g>
<g id="a1_000"  >
<polygon points="204,285 209,280 220,280 220,290 209,290 204,285 " style="fill:white; stroke-width:1; stroke:black; " description="&lt;b&gt;ATEG_00331&lt;/b&gt;&lt;br&gt;predicted protein&lt;br&gt;Location: 43663 - 41759" locus_tag="ATEG_00331" class="clusterblast-orf" id="knownclusterblast-1_all_1_5_0"  />
</g>
<g id="a1_001"  >
<polygon points="225,290 225,290 230,285 225,280 225,280 225,290 " style="fill:white; stroke-width:1; stroke:black; " description="&lt;b&gt;ATEG_00330&lt;/b&gt;&lt;br&gt;predicted protein&lt;br&gt;Location: 41196 - 40648" locus_tag="ATEG_00330" class="clusterblast-orf" id="knownclusterblast-1_all_1_5_1"  />
</g>
<g id="a1_002"  >
<polygon points="234,290 234,290 239,285 234,280 234,280 234,290 " style="fill:white; stroke-width:1; stroke:black; " description="&lt;b&gt;ATEG_00329&lt;/b&gt;&lt;br&gt;predicted protein&lt;br&gt;Location: 40124 - 39584" locus_tag="ATEG_00329" class="clusterblast-orf" id="knownclusterblast-1_all_1_5_2"  />
</g>
<g id="a1_003"  >
<polygon points="246,290 252,290 257,285 252,280 246,280 246,290 " style="fill:white; stroke-width:1; stroke:black; " description="&lt;b&gt;ATEG_00328&lt;/b&gt;&lt;br&gt;predicted protein&lt;br&gt;Location: 38736 - 37424" locus_tag="ATEG_00328" class="clusterblast-orf" id="knownclusterblast-1_all_1_5_3"  />
</g>
<g id="a1_004"  >
<polygon points="261,290 267,290 272,285 267,280 261,280 261,290 " style="fill:#8815d8; stroke-width:1; stroke:black; " description="&lt;b&gt;ATEG_00327&lt;/b&gt;&lt;br&gt;predicted protein&lt;br&gt;Location: 36963 - 35644&lt;br&gt;&lt;br&gt;&lt;b&gt;BlastP hit with input.path1.gene6&lt;/b&gt;&lt;br&gt;Percentage identity: 67&lt;br&gt;Percentage coverage: 67&lt;br&gt;BLAST bit score: 323&lt;br&gt;E-value: 4.66e-108" locus_tag="ATEG_00327" class="clusterblast-orf" id="knownclusterblast-1_all_1_5_4"  />
</g>
<g id="a1_005"  >
<polygon points="290,290 296,290 301,285 296,280 290,280 290,290 " style="fill:white; stroke-width:1; stroke:black; " description="&lt;b&gt;ATEG_00326&lt;/b&gt;&lt;br&gt;transcription factor&lt;br&gt;Location: 33524 - 32250" locus_tag="ATEG_00326" class="clusterblast-orf" id="knownclusterblast-1_all_1_5_5"  />
</g>
<g id="a1_006"  >
<polygon points="313,290 410,290 415,285 410,280 313,280 313,290 " style="fill:#d85a15; stroke-width:1; stroke:black; " description="&lt;b&gt;ATEG_00325&lt;/b&gt;&lt;br&gt;PKS-NRPS hybrid&lt;br&gt;Location: 30844 - 18831&lt;br&gt;&lt;br&gt;&lt;b&gt;BlastP hit with input.path1.gene8&lt;/b&gt;&lt;br&gt;Percentage identity: 48&lt;br&gt;Percentage coverage: 102&lt;br&gt;BLAST bit score: 724&lt;br&gt;E-value: 5.42e-232" locus_tag="ATEG_00325" class="clusterblast-orf" id="knownclusterblast-1_all_1_5_6"  />
</g>
<g id="a1_007"  >
<polygon points="420,290 425,290 430,285 425,280 420,280 420,290 " style="fill:white; stroke-width:1; stroke:black; " description="&lt;b&gt;ATEG_00324&lt;/b&gt;&lt;br&gt;ubiquitin-conjugating enzyme E2S&lt;br&gt;Location: 18202 - 17005" locus_tag="ATEG_00324" class="clusterblast-orf" id="knownclusterblast-1_all_1_5_7"  />
</g>
<g id="a1_008"  >
<polygon points="434,285 438,280 438,290 434,285 " style="fill:white; stroke-width:1; stroke:black; " description="&lt;b&gt;ATEG_00323&lt;/b&gt;&lt;br&gt;predicted protein&lt;br&gt;Location: 16643 - 16113" locus_tag="ATEG_00323" class="clusterblast-orf" id="knownclusterblast-1_all_1_5_8"  />
</g>
<g id="a1_009"  >
<polygon points="447,285 452,280 453,280 453,290 452,290 447,285 " style="fill:white; stroke-width:1; stroke:black; " description="&lt;b&gt;ATEG_00322&lt;/b&gt;&lt;br&gt;conserved hypothetical protein&lt;br&gt;Location: 15070 - 14348" locus_tag="ATEG_00322" class="clusterblast-orf" id="knownclusterblast-1_all_1_5_9"  />
</g>
<g id="a1_0010"  >
<polygon points="456,285 461,280 465,280 465,290 461,290 456,285 " style="fill:white; stroke-width:1; stroke:black; " description="&lt;b&gt;ATEG_00321&lt;/b&gt;&lt;br&gt;elongation factor 1-beta&lt;br&gt;Location: 13960 - 12918" locus_tag="ATEG_00321" class="clusterblast-orf" id="knownclusterblast-1_all_1_5_10"  />
</g>
<g id="a1_0011"  >
<polygon points="469,290 485,290 490,285 485,280 469,280 469,290 " style="fill:white; stroke-width:1; stroke:black; " description="&lt;b&gt;ATEG_00320&lt;/b&gt;&lt;br&gt;heat shock protein 78, mitochondrial precursor&lt;br&gt;Location: 12460 - 10040" locus_tag="ATEG_00320" class="clusterblast-orf" id="knownclusterblast-1_all_1_5_11"  />
</g>
<g id="a1_0012"  >
<polygon points="494,290 517,290 522,285 517,280 494,280 494,290 " style="fill:white; stroke-width:1; stroke:black; " description="&lt;b&gt;ATEG_00319&lt;/b&gt;&lt;br&gt;predicted protein&lt;br&gt;Location: 9519 - 6208" locus_tag="ATEG_00319" class="clusterblast-orf" id="knownclusterblast-1_all_1_5_12"  />
</g>
<g id="a1_0013"  >
<polygon points="529,285 534,280 542,280 542,290 534,290 529,285 " style="fill:white; stroke-width:1; stroke:black; " description="&lt;b&gt;ATEG_00318&lt;/b&gt;&lt;br&gt;conserved hypothetical protein&lt;br&gt;Location: 5380 - 3905" locus_tag="ATEG_00318" class="clusterblast-orf" id="knownclusterblast-1_all_1_5_13"  />
</g>
<g id="a1_0014"  >
<polygon points="545,285 550,280 562,280 562,290 550,290 545,285 " style="fill:white; stroke-width:1; stroke:black; " description="&lt;b&gt;ATEG_00317&lt;/b&gt;&lt;br&gt;conserved hypothetical protein&lt;br&gt;Location: 3500 - 1510" locus_tag="ATEG_00317" class="clusterblast-orf" id="knownclusterblast-1_all_1_5_14"  />
</g>
<g id="a1_0015"  >
<polygon points="565,290 570,290 575,285 570,280 565,280 565,290 " style="fill:white; stroke-width:1; stroke:black; " description="&lt;b&gt;ATEG_00316&lt;/b&gt;&lt;br&gt;conserved hypothetical protein&lt;br&gt;Location: 1214 - 1" locus_tag="ATEG_00316" class="clusterblast-orf" id="knownclusterblast-1_all_1_5_15"  />
</g>
</svg>
