<svg xmlns="http://www.w3.org/2000/svg" xmlns:xlink="http://www.w3.org/1999/xlink" version="1.1" x="0" y="0" height="230" width="800" viewBox="0 0 800 230" preserveAspectRatio="none"  >
<g label="Query sequence" class="clusterblast-cluster"  >
<text x="5" y="20" class="clusterblast-acc"  >
Query sequence</text>
<line x1="10" y1="35" x2="778.0" y2="35" style="stroke-width:1; stroke:grey; "  />
<polygon points="0,40 19,40 24,35 19,30 0,30 0,40 " style="fill:white; stroke-width:1; stroke:black; " description="&lt;b&gt;input.path1.gene106&lt;/b&gt;&lt;br&gt;input.path1.gene106&lt;br&gt;Location: 390433 - 391673" locus_tag="input.path1.gene106" class="clusterblast-orf" id="dummy-2_q0_0_all"  />
<polygon points="32,40 65,40 70,35 65,30 32,30 32,40 " style="fill:#d81515; stroke-width:1; stroke:black; " description="&lt;b&gt;input.path1.gene107&lt;/b&gt;&lt;br&gt;input.path1.gene107&lt;br&gt;Location: 392132 - 394094" locus_tag="input.path1.gene107" class="clusterblast-orf" id="dummy-2_q1_0_all"  />
<polygon points="92,40 93,40 98,35 93,30 92,30 92,40 " style="fill:white; stroke-width:1; stroke:black; " description="&lt;b&gt;input.path1.gene108&lt;/b&gt;&lt;br&gt;input.path1.gene108&lt;br&gt;Location: 395227 - 395527" locus_tag="input.path1.gene108" class="clusterblast-orf" id="dummy-2_q2_0_all"  />
<polygon points="174,35 179,30 199,30 199,40 179,40 174,35 " style="fill:white; stroke-width:1; stroke:black; " description="&lt;b&gt;input.path1.gene109&lt;/b&gt;&lt;br&gt;input.path1.gene109&lt;br&gt;Location: 399512 - 400808" locus_tag="input.path1.gene109" class="clusterblast-orf" id="dummy-2_q3_0_all"  />
<polygon points="266,40 271,40 276,35 271,30 266,30 266,40 " style="fill:#4dd815; stroke-width:1; stroke:black; " description="&lt;b&gt;input.path1.gene110&lt;/b&gt;&lt;br&gt;input.path1.gene110&lt;br&gt;Location: 404289 - 404816" locus_tag="input.path1.gene110" class="clusterblast-orf" id="dummy-2_q4_0_all"  />
<polygon points="295,35 300,30 316,30 316,40 300,40 295,35 " style="fill:#1585d8; stroke-width:1; stroke:black; " description="&lt;b&gt;input.path1.gene111&lt;/b&gt;&lt;br&gt;input.path1.gene111&lt;br&gt;Location: 405774 - 406874" locus_tag="input.path1.gene111" class="clusterblast-orf" id="dummy-2_q5_0_all"  />
<polygon points="331,40 432,40 437,35 432,30 331,30 331,40 " style="fill:#d815bc; stroke-width:1; stroke:black; " description="&lt;b&gt;input.path1.gene112&lt;/b&gt;&lt;br&gt;input.path1.gene112&lt;br&gt;Location: 407669 - 413160" locus_tag="input.path1.gene112" class="clusterblast-orf" id="dummy-2_q6_0_all"  />
<polygon points="471,40 496,40 501,35 496,30 471,30 471,40 " style="fill:white; stroke-width:1; stroke:black; " description="&lt;b&gt;input.path1.gene113&lt;/b&gt;&lt;br&gt;input.path1.gene113&lt;br&gt;Location: 414950 - 416501" locus_tag="input.path1.gene113" class="clusterblast-orf" id="dummy-2_q7_0_all"  />
<polygon points="523,35 528,30 559,30 559,40 528,40 523,35 " style="fill:#d8bc15; stroke-width:1; stroke:black; " description="&lt;b&gt;input.path1.gene114&lt;/b&gt;&lt;br&gt;input.path1.gene114&lt;br&gt;Location: 417668 - 419526" locus_tag="input.path1.gene114" class="clusterblast-orf" id="dummy-2_q8_0_all"  />
<polygon points="666,35 671,30 684,30 684,40 671,40 666,35 " style="fill:#15d885; stroke-width:1; stroke:black; " description="&lt;b&gt;input.path1.gene115&lt;/b&gt;&lt;br&gt;input.path1.gene115&lt;br&gt;Location: 425071 - 426046" locus_tag="input.path1.gene115" class="clusterblast-orf" id="dummy-2_q9_0_all"  />
<polygon points="695,40 703,40 708,35 703,30 695,30 695,40 " style="fill:#4d15d8; stroke-width:1; stroke:black; " description="&lt;b&gt;input.path1.gene116&lt;/b&gt;&lt;br&gt;input.path1.gene116&lt;br&gt;Location: 426596 - 427286" locus_tag="input.path1.gene116" class="clusterblast-orf" id="dummy-2_q10_0_all"  />
<polygon points="754,40 775,40 780,35 775,30 754,30 754,40 " style="fill:white; stroke-width:1; stroke:black; " description="&lt;b&gt;input.path1.gene117&lt;/b&gt;&lt;br&gt;input.path1.gene117&lt;br&gt;Location: 429664 - 431002" locus_tag="input.path1.gene117" class="clusterblast-orf" id="dummy-2_q11_0_all"  />
</g>
<g label="BGC0002062" description="BGC0002062_c1: agnestin A/agnestin B (14% of genes show similarity), Polyketide" class="clusterblast-cluster"  >
<text x="5" y="70" class="clusterblast-acc"  >
<a xlink:href="https://mibig.secondarymetabolites.org/go/BGC0002062/1" target="_blank">BGC0002062</a>: agnestin A/agnestin B                                                            (14% of genes show similarity), Polyketide</text>
<line x1="10" y1="85" x2="778.0" y2="85" style="stroke-width:1; stroke:grey; "  />
</g>
<g id="a2_000"  >
<polygon points="88,90 110,90 115,85 110,80 88,80 88,90 " style="fill:white; stroke-width:1; stroke:black; " description="&lt;b&gt;QBG38889.1&lt;/b&gt;&lt;br&gt;oxidoreductase&lt;br&gt;Location: 32928 - 31569" locus_tag="QBG38889.1" class="clusterblast-orf" id="dummy-2_h2_7_0"  />
</g>
<g id="a2_001"  >
<polygon points="143,90 247,90 252,85 247,80 143,80 143,90 " style="fill:#d815bc; stroke-width:1; stroke:black; " description="&lt;b&gt;QBG38888.1&lt;/b&gt;&lt;br&gt;nr-PKS&lt;br&gt;Location: 30087 - 24429&lt;br&gt;&lt;br&gt;&lt;b&gt;BlastP hit with input.path1.gene112&lt;/b&gt;&lt;br&gt;Percentage identity: 47&lt;br&gt;Percentage coverage: 101&lt;br&gt;BLAST bit score: 1603&lt;br&gt;E-value: 0.0" locus_tag="QBG38888.1" class="clusterblast-orf" id="dummy-2_h2_7_1"  />
</g>
<g id="a2_002"  >
<polygon points="267,90 273,90 278,85 273,80 267,80 267,90 " style="fill:white; stroke-width:1; stroke:black; " description="&lt;b&gt;QBG38887.1&lt;/b&gt;&lt;br&gt;decarboxylase&lt;br&gt;Location: 23663 - 23064" locus_tag="QBG38887.1" class="clusterblast-orf" id="dummy-2_h2_7_2"  />
</g>
<g id="a2_003"  >
<polygon points="286,85 291,80 297,80 297,90 291,90 286,85 " style="fill:white; stroke-width:1; stroke:black; " description="&lt;b&gt;QBG38886.1&lt;/b&gt;&lt;br&gt;anthrone oxidase&lt;br&gt;Location: 22646 - 22083" locus_tag="QBG38886.1" class="clusterblast-orf" id="dummy-2_h2_7_3"  />
</g>
<g id="a2_004"  >
<polygon points="312,85 317,80 339,80 339,90 317,90 312,85 " style="fill:white; stroke-width:1; stroke:black; " description="&lt;b&gt;QBG38885.1&lt;/b&gt;&lt;br&gt;Baeyer-Villiger monoxygenase&lt;br&gt;Location: 21279 - 19897" locus_tag="QBG38885.1" class="clusterblast-orf" id="dummy-2_h2_7_4"  />
</g>
<g id="a2_005"  >
<polygon points="359,85 364,80 374,80 374,90 364,90 359,85 " style="fill:white; stroke-width:1; stroke:black; " description="&lt;b&gt;QBG38884.1&lt;/b&gt;&lt;br&gt;oxidoreductase&lt;br&gt;Location: 18839 - 18051" locus_tag="QBG38884.1" class="clusterblast-orf" id="dummy-2_h2_7_5"  />
</g>
<g id="a2_006"  >
<polygon points="384,85 389,80 394,80 394,90 389,90 384,85 " style="fill:white; stroke-width:1; stroke:black; " description="&lt;b&gt;QBG38883.1&lt;/b&gt;&lt;br&gt;hypothetical protein&lt;br&gt;Location: 17577 - 17028" locus_tag="QBG38883.1" class="clusterblast-orf" id="dummy-2_h2_7_6"  />
</g>
<g id="a2_007"  >
<polygon points="402,90 414,90 419,85 414,80 402,80 402,90 " style="fill:white; stroke-width:1; stroke:black; " description="&lt;b&gt;QBG38882.1&lt;/b&gt;&lt;br&gt;reductase&lt;br&gt;Location: 16599 - 15716" locus_tag="QBG38882.1" class="clusterblast-orf" id="dummy-2_h2_7_7"  />
</g>
<g id="a2_008"  >
<polygon points="434,85 439,80 454,80 454,90 439,90 434,85 " style="fill:#15d885; stroke-width:1; stroke:black; " description="&lt;b&gt;QBG38881.1&lt;/b&gt;&lt;br&gt;hydrolase&lt;br&gt;Location: 14961 - 13937&lt;br&gt;&lt;br&gt;&lt;b&gt;BlastP hit with input.path1.gene115&lt;/b&gt;&lt;br&gt;Percentage identity: 51&lt;br&gt;Percentage coverage: 96&lt;br&gt;BLAST bit score: 291&lt;br&gt;E-value: 1.01e-97" locus_tag="QBG38881.1" class="clusterblast-orf" id="dummy-2_h2_7_8"  />
</g>
<g id="a2_009"  >
<polygon points="479,85 484,80 492,80 492,90 484,90 479,85 " style="fill:white; stroke-width:1; stroke:black; " description="&lt;b&gt;QBG38880.1&lt;/b&gt;&lt;br&gt;dehydratase&lt;br&gt;Location: 12627 - 11911" locus_tag="QBG38880.1" class="clusterblast-orf" id="dummy-2_h2_7_9"  />
</g>
<g id="a2_0010"  >
<polygon points="529,90 553,90 558,85 553,80 529,80 529,90 " style="fill:white; stroke-width:1; stroke:black; " description="&lt;b&gt;QBG38879.1&lt;/b&gt;&lt;br&gt;transcriptional coactivator&lt;br&gt;Location: 10020 - 8517" locus_tag="QBG38879.1" class="clusterblast-orf" id="dummy-2_h2_7_10"  />
</g>
<g id="a2_0011"  >
<polygon points="579,90 597,90 602,85 597,80 579,80 579,90 " style="fill:white; stroke-width:1; stroke:black; " description="&lt;b&gt;QBG38878.1&lt;/b&gt;&lt;br&gt;transcription factor&lt;br&gt;Location: 7408 - 6194" locus_tag="QBG38878.1" class="clusterblast-orf" id="dummy-2_h2_7_11"  />
</g>
<g id="a2_0012"  >
<polygon points="607,85 612,80 652,80 652,90 612,90 607,85 " style="fill:white; stroke-width:1; stroke:black; " description="&lt;b&gt;QBG38877.1&lt;/b&gt;&lt;br&gt;transcription factor&lt;br&gt;Location: 5939 - 3611" locus_tag="QBG38877.1" class="clusterblast-orf" id="dummy-2_h2_7_12"  />
</g>
<g id="a2_0013"  >
<polygon points="661,90 686,90 691,85 686,80 661,80 661,90 " style="fill:white; stroke-width:1; stroke:black; " description="&lt;b&gt;QBG38876.1&lt;/b&gt;&lt;br&gt;MFS transporter&lt;br&gt;Location: 3141 - 1608" locus_tag="QBG38876.1" class="clusterblast-orf" id="dummy-2_h2_7_13"  />
</g>
</svg>
