<svg xmlns="http://www.w3.org/2000/svg" xmlns:xlink="http://www.w3.org/1999/xlink" version="1.1" x="0" y="0" height="50" width="800" viewBox="0 0 800 50" preserveAspectRatio="none"  >
<g label="Query sequence" class="clusterblast-cluster"  >
<text x="5" y="20" class="clusterblast-acc"  >
Query sequence</text>
<line x1="10" y1="35" x2="778.0" y2="35" style="stroke-width:1; stroke:grey; "  />
<polygon points="0,40 0,40 5,35 0,30 0,30 0,40 " style="fill:white; stroke-width:1; stroke:black; " description="&lt;b&gt;input.path1.gene1&lt;/b&gt;&lt;br&gt;input.path1.gene1&lt;br&gt;Location: 1762 - 2329" locus_tag="input.path1.gene1" class="clusterblast-orf" id="subclusterblast-1_q0_0_all"  />
<polygon points="38,40 44,40 49,35 44,30 38,30 38,40 " style="fill:white; stroke-width:1; stroke:black; " description="&lt;b&gt;input.path1.gene2&lt;/b&gt;&lt;br&gt;input.path1.gene2&lt;br&gt;Location: 5662 - 6843" locus_tag="input.path1.gene2" class="clusterblast-orf" id="subclusterblast-1_q1_0_all"  />
<polygon points="57,35 62,30 67,30 67,40 62,40 57,35 " style="fill:white; stroke-width:1; stroke:black; " description="&lt;b&gt;input.path1.gene3&lt;/b&gt;&lt;br&gt;input.path1.gene3&lt;br&gt;Location: 7681 - 8706" locus_tag="input.path1.gene3" class="clusterblast-orf" id="subclusterblast-1_q2_0_all"  />
<polygon points="127,35 132,30 178,30 178,40 132,40 127,35 " style="fill:white; stroke-width:1; stroke:black; " description="&lt;b&gt;input.path1.gene4&lt;/b&gt;&lt;br&gt;input.path1.gene4&lt;br&gt;Location: 14900 - 20064" locus_tag="input.path1.gene4" class="clusterblast-orf" id="subclusterblast-1_q3_0_all"  />
<polygon points="185,40 193,40 198,35 193,30 185,30 185,40 " style="fill:white; stroke-width:1; stroke:black; " description="&lt;b&gt;input.path1.gene5&lt;/b&gt;&lt;br&gt;input.path1.gene5&lt;br&gt;Location: 20851 - 22166" locus_tag="input.path1.gene5" class="clusterblast-orf" id="subclusterblast-1_q4_0_all"  />
<polygon points="203,35 208,30 218,30 218,40 208,40 203,35 " style="fill:white; stroke-width:1; stroke:black; " description="&lt;b&gt;input.path1.gene6&lt;/b&gt;&lt;br&gt;input.path1.gene6&lt;br&gt;Location: 22659 - 24225" locus_tag="input.path1.gene6" class="clusterblast-orf" id="subclusterblast-1_q5_0_all"  />
<polygon points="304,40 310,40 315,35 310,30 304,30 304,40 " style="fill:white; stroke-width:1; stroke:black; " description="&lt;b&gt;input.path1.gene7&lt;/b&gt;&lt;br&gt;input.path1.gene7&lt;br&gt;Location: 33064 - 34176" locus_tag="input.path1.gene7" class="clusterblast-orf" id="subclusterblast-1_q6_0_all"  />
<polygon points="320,40 345,40 350,35 345,30 320,30 320,40 " style="fill:white; stroke-width:1; stroke:black; " description="&lt;b&gt;input.path1.gene8&lt;/b&gt;&lt;br&gt;input.path1.gene8&lt;br&gt;Location: 34718 - 37815" locus_tag="input.path1.gene8" class="clusterblast-orf" id="subclusterblast-1_q7_0_all"  />
<polygon points="352,35 357,30 368,30 368,40 357,40 352,35 " style="fill:white; stroke-width:1; stroke:black; " description="&lt;b&gt;input.path1.gene9&lt;/b&gt;&lt;br&gt;input.path1.gene9&lt;br&gt;Location: 38033 - 39593" locus_tag="input.path1.gene9" class="clusterblast-orf" id="subclusterblast-1_q8_0_all"  />
<polygon points="388,40 399,40 404,35 399,30 388,30 388,40 " style="fill:white; stroke-width:1; stroke:black; " description="&lt;b&gt;input.path1.gene10&lt;/b&gt;&lt;br&gt;input.path1.gene10&lt;br&gt;Location: 41716 - 43312" locus_tag="input.path1.gene10" class="clusterblast-orf" id="subclusterblast-1_q9_0_all"  />
<polygon points="407,35 412,30 590,30 590,40 412,40 407,35 " style="fill:white; stroke-width:1; stroke:black; " description="&lt;b&gt;input.path1.gene11&lt;/b&gt;&lt;br&gt;input.path1.gene11&lt;br&gt;Location: 43649 - 62471" locus_tag="input.path1.gene11" class="clusterblast-orf" id="subclusterblast-1_q10_0_all"  />
<polygon points="608,40 611,35 608,30 608,40 " style="fill:white; stroke-width:1; stroke:black; " description="&lt;b&gt;input.path1.gene12&lt;/b&gt;&lt;br&gt;input.path1.gene12&lt;br&gt;Location: 64323 - 64598" locus_tag="input.path1.gene12" class="clusterblast-orf" id="subclusterblast-1_q11_0_all"  />
<polygon points="612,35 617,30 706,30 706,40 617,40 612,35 " style="fill:white; stroke-width:1; stroke:black; " description="&lt;b&gt;input.path1.gene13&lt;/b&gt;&lt;br&gt;input.path1.gene13&lt;br&gt;Location: 64714 - 74382" locus_tag="input.path1.gene13" class="clusterblast-orf" id="subclusterblast-1_q12_0_all"  />
<polygon points="708,40 716,40 721,35 716,30 708,30 708,40 " style="fill:white; stroke-width:1; stroke:black; " description="&lt;b&gt;input.path1.gene14&lt;/b&gt;&lt;br&gt;input.path1.gene14&lt;br&gt;Location: 74637 - 75934" locus_tag="input.path1.gene14" class="clusterblast-orf" id="subclusterblast-1_q13_0_all"  />
<polygon points="760,40 763,35 760,30 760,40 " style="fill:white; stroke-width:1; stroke:black; " description="&lt;b&gt;input.path1.gene15&lt;/b&gt;&lt;br&gt;input.path1.gene15&lt;br&gt;Location: 79941 - 80258" locus_tag="input.path1.gene15" class="clusterblast-orf" id="subclusterblast-1_q14_0_all"  />
<polygon points="764,40 768,35 764,30 764,40 " style="fill:white; stroke-width:1; stroke:black; " description="&lt;b&gt;input.path1.gene16&lt;/b&gt;&lt;br&gt;input.path1.gene16&lt;br&gt;Location: 80395 - 80755" locus_tag="input.path1.gene16" class="clusterblast-orf" id="subclusterblast-1_q15_0_all"  />
<polygon points="775,35 780,30 780,30 780,40 780,40 775,35 " style="fill:white; stroke-width:1; stroke:black; " description="&lt;b&gt;input.path1.gene17&lt;/b&gt;&lt;br&gt;input.path1.gene17&lt;br&gt;Location: 81517 - 81966" locus_tag="input.path1.gene17" class="clusterblast-orf" id="subclusterblast-1_q16_0_all"  />
</g>
</svg>
