<svg xmlns="http://www.w3.org/2000/svg" xmlns:xlink="http://www.w3.org/1999/xlink" version="1.1" x="0" y="0" height="230" width="800" viewBox="0 0 800 230" preserveAspectRatio="none"  >
<g label="Query sequence" class="clusterblast-cluster"  >
<text x="5" y="20" class="clusterblast-acc"  >
Query sequence</text>
<line x1="10" y1="35" x2="778.0" y2="35" style="stroke-width:1; stroke:grey; "  />
<polygon points="106,35 111,30 125,30 125,40 111,40 106,35 " style="fill:#d81515; stroke-width:1; stroke:black; " description="&lt;b&gt;input.path1.gene782&lt;/b&gt;&lt;br&gt;input.path1.gene782&lt;br&gt;Location: 3044844 - 3046506" locus_tag="input.path1.gene782" class="clusterblast-orf" id="dummy-6_q0_0_all"  />
<polygon points="134,35 139,30 148,30 148,40 139,40 134,35 " style="fill:#15d815; stroke-width:1; stroke:black; " description="&lt;b&gt;input.path1.gene783&lt;/b&gt;&lt;br&gt;input.path1.gene783&lt;br&gt;Location: 3047280 - 3048539" locus_tag="input.path1.gene783" class="clusterblast-orf" id="dummy-6_q1_0_all"  />
<polygon points="157,35 162,30 175,30 175,40 162,40 157,35 " style="fill:#1597d8; stroke-width:1; stroke:black; " description="&lt;b&gt;input.path1.gene784&lt;/b&gt;&lt;br&gt;input.path1.gene784&lt;br&gt;Location: 3049337 - 3050844" locus_tag="input.path1.gene784" class="clusterblast-orf" id="dummy-6_q2_0_all"  />
<polygon points="209,40 228,40 233,35 228,30 209,30 209,40 " style="fill:#9715d8; stroke-width:1; stroke:black; " description="&lt;b&gt;input.path1.gene785&lt;/b&gt;&lt;br&gt;input.path1.gene785&lt;br&gt;Location: 3053881 - 3055981" locus_tag="input.path1.gene785" class="clusterblast-orf" id="dummy-6_q3_0_all"  />
<polygon points="244,35 249,30 275,30 275,40 249,40 244,35 " style="fill:#d89715; stroke-width:1; stroke:black; " description="&lt;b&gt;input.path1.gene786&lt;/b&gt;&lt;br&gt;input.path1.gene786&lt;br&gt;Location: 3056904 - 3059644" locus_tag="input.path1.gene786" class="clusterblast-orf" id="dummy-6_q4_0_all"  />
<polygon points="305,35 310,30 492,30 492,40 310,40 305,35 " style="fill:#15d897; stroke-width:1; stroke:black; " description="&lt;b&gt;input.path1.gene787&lt;/b&gt;&lt;br&gt;input.path1.gene787&lt;br&gt;Location: 3062284 - 3078625" locus_tag="input.path1.gene787" class="clusterblast-orf" id="dummy-6_q5_0_all"  />
<polygon points="516,40 533,40 538,35 533,30 516,30 516,40 " style="fill:#1515d8; stroke-width:1; stroke:black; " description="&lt;b&gt;input.path1.gene788&lt;/b&gt;&lt;br&gt;input.path1.gene788&lt;br&gt;Location: 3080774 - 3082635" locus_tag="input.path1.gene788" class="clusterblast-orf" id="dummy-6_q6_0_all"  />
<polygon points="580,40 605,40 610,35 605,30 580,30 580,40 " style="fill:#d81597; stroke-width:1; stroke:black; " description="&lt;b&gt;input.path1.gene789&lt;/b&gt;&lt;br&gt;input.path1.gene789&lt;br&gt;Location: 3086320 - 3088994" locus_tag="input.path1.gene789" class="clusterblast-orf" id="dummy-6_q7_0_all"  />
<polygon points="626,35 631,30 638,30 638,40 631,40 626,35 " style="fill:white; stroke-width:1; stroke:black; " description="&lt;b&gt;input.path1.gene790&lt;/b&gt;&lt;br&gt;input.path1.gene790&lt;br&gt;Location: 3090376 - 3091448" locus_tag="input.path1.gene790" class="clusterblast-orf" id="dummy-6_q8_0_all"  />
<polygon points="651,40 668,40 673,35 668,30 651,30 651,40 " style="fill:#97d815; stroke-width:1; stroke:black; " description="&lt;b&gt;input.path1.gene791&lt;/b&gt;&lt;br&gt;input.path1.gene791&lt;br&gt;Location: 3092594 - 3094487" locus_tag="input.path1.gene791" class="clusterblast-orf" id="dummy-6_q9_0_all"  />
</g>
<g label="NW_011942151" description="NW_011942151 (1102940-1173579): Metarhizium robertsii ARSEF 23 MAA Scf 11, wh... (8% of genes show similarity), NRPS" class="clusterblast-cluster"  >
<text x="5" y="70" class="clusterblast-acc"  >
<a xlink:href="https://antismash-db.secondarymetabolites.org/area?record=NW_011942151&amp;start=1102940&amp;end=1173579" target="_blank">NW_011942151 (1102940-1173579)</a>: Metarhizium robertsii ARSEF 23 MAA Scf 11, wh... (8% of genes show similarity), NRPS</text>
<line x1="10" y1="85" x2="778.0" y2="85" style="stroke-width:1; stroke:grey; "  />
</g>
<g id="a6_000"  >
<polygon points="0,90 26,90 31,85 26,80 0,80 0,90 " style="fill:white; stroke-width:1; stroke:black; " description="&lt;b&gt;MAA_09834&lt;/b&gt;&lt;br&gt;proteinrelated to OPT1-High-affinity glutathione transporter&lt;br&gt;Location: 1104072 - 1106799" locus_tag="MAA_09834" class="clusterblast-orf" id="dummy-6_h6_7_0"  />
</g>
<g id="a6_001"  >
<polygon points="62,85 67,80 86,80 86,90 67,90 62,85 " style="fill:white; stroke-width:1; stroke:black; " description="&lt;b&gt;MAA_09835&lt;/b&gt;&lt;br&gt;Hsp70 family protein&lt;br&gt;Location: 1109527 - 1111607" locus_tag="MAA_09835" class="clusterblast-orf" id="dummy-6_h6_7_1"  />
</g>
<g id="a6_002"  >
<polygon points="94,90 101,90 106,85 101,80 94,80 94,90 " style="fill:white; stroke-width:1; stroke:black; " description="&lt;b&gt;MAA_09836&lt;/b&gt;&lt;br&gt;hypothetical protein&lt;br&gt;Location: 1112348 - 1113401" locus_tag="MAA_09836" class="clusterblast-orf" id="dummy-6_h6_7_2"  />
</g>
<g id="a6_003"  >
<polygon points="111,85 116,80 125,80 125,90 116,90 111,85 " style="fill:white; stroke-width:1; stroke:black; " description="&lt;b&gt;MAA_09837&lt;/b&gt;&lt;br&gt;hypothetical protein&lt;br&gt;Location: 1113877 - 1115073" locus_tag="MAA_09837" class="clusterblast-orf" id="dummy-6_h6_7_3"  />
</g>
<g id="a6_004"  >
<polygon points="146,85 151,80 166,80 166,90 151,90 146,85 " style="fill:white; stroke-width:1; stroke:black; " description="&lt;b&gt;MAA_09838&lt;/b&gt;&lt;br&gt;thiamine pyrophosphate enzyme&lt;br&gt;Location: 1116911 - 1118635" locus_tag="MAA_09838" class="clusterblast-orf" id="dummy-6_h6_7_4"  />
</g>
<g id="a6_005"  >
<polygon points="177,85 182,80 190,80 190,90 182,90 177,85 " style="fill:white; stroke-width:1; stroke:black; " description="&lt;b&gt;MAA_09839&lt;/b&gt;&lt;br&gt;hypothetical protein&lt;br&gt;Location: 1119653 - 1120752" locus_tag="MAA_09839" class="clusterblast-orf" id="dummy-6_h6_7_5"  />
</g>
<g id="a6_006"  >
<polygon points="249,90 253,90 258,85 253,80 249,80 249,90 " style="fill:white; stroke-width:1; stroke:black; " description="&lt;b&gt;MAA_09840&lt;/b&gt;&lt;br&gt;hypothetical protein&lt;br&gt;Location: 1125920 - 1126702" locus_tag="MAA_09840" class="clusterblast-orf" id="dummy-6_h6_7_6"  />
</g>
<g id="a6_007"  >
<polygon points="265,85 270,80 273,80 273,90 270,90 265,85 " style="fill:white; stroke-width:1; stroke:black; " description="&lt;b&gt;MAA_09841&lt;/b&gt;&lt;br&gt;NlpC/P60-like cell-wall peptidase&lt;br&gt;Location: 1127303 - 1128028" locus_tag="MAA_09841" class="clusterblast-orf" id="dummy-6_h6_7_7"  />
</g>
<g id="a6_008"  >
<polygon points="284,85 289,80 290,80 290,90 289,90 284,85 " style="fill:white; stroke-width:1; stroke:black; " description="&lt;b&gt;MAA_09842&lt;/b&gt;&lt;br&gt;hypothetical protein&lt;br&gt;Location: 1128984 - 1129484" locus_tag="MAA_09842" class="clusterblast-orf" id="dummy-6_h6_7_8"  />
</g>
<g id="a6_009"  >
<polygon points="315,90 319,85 315,80 315,90 " style="fill:white; stroke-width:1; stroke:black; " description="&lt;b&gt;MAA_09843&lt;/b&gt;&lt;br&gt;hypothetical protein&lt;br&gt;Location: 1131695 - 1132045" locus_tag="MAA_09843" class="clusterblast-orf" id="dummy-6_h6_7_9"  />
</g>
<g id="a6_0010"  >
<polygon points="329,85 334,80 451,80 451,90 334,90 329,85 " style="fill:#15d897; stroke-width:1; stroke:black; " description="&lt;b&gt;MAA_09844&lt;/b&gt;&lt;br&gt;Amino acid adenylation&lt;br&gt;Location: 1132941 - 1143579&lt;br&gt;&lt;br&gt;&lt;b&gt;BlastP hit with input.path1.gene787&lt;/b&gt;&lt;br&gt;Percentage identity: 40&lt;br&gt;Percentage coverage: 34&lt;br&gt;BLAST bit score: 1208&lt;br&gt;E-value: 0.0" locus_tag="MAA_09844" class="clusterblast-orf" id="dummy-6_h6_7_10"  />
</g>
<g id="a6_0011"  >
<polygon points="472,90 485,90 490,85 485,80 472,80 472,90 " style="fill:#1515d8; stroke-width:1; stroke:black; " description="&lt;b&gt;MAA_09845&lt;/b&gt;&lt;br&gt;Cytochrome P450 CYP5262A4&lt;br&gt;Location: 1145449 - 1147017&lt;br&gt;&lt;br&gt;&lt;b&gt;BlastP hit with input.path1.gene788&lt;/b&gt;&lt;br&gt;Percentage identity: 33&lt;br&gt;Percentage coverage: 96&lt;br&gt;BLAST bit score: 235&lt;br&gt;E-value: 8.05e-70" locus_tag="MAA_09845" class="clusterblast-orf" id="dummy-6_h6_7_11"  />
</g>
<g id="a6_0012"  >
<polygon points="493,90 502,90 507,85 502,80 493,80 493,90 " style="fill:white; stroke-width:1; stroke:black; " description="&lt;b&gt;MAA_09846&lt;/b&gt;&lt;br&gt;Class-I Aminotransferase&lt;br&gt;Location: 1147273 - 1148472" locus_tag="MAA_09846" class="clusterblast-orf" id="dummy-6_h6_7_12"  />
</g>
<g id="a6_0013"  >
<polygon points="520,85 525,80 531,80 531,90 525,90 520,85 " style="fill:white; stroke-width:1; stroke:black; " description="&lt;b&gt;MAA_09847&lt;/b&gt;&lt;br&gt;7alpha-cephem-methoxylase P8 chain related protein&lt;br&gt;Location: 1149653 - 1150602" locus_tag="MAA_09847" class="clusterblast-orf" id="dummy-6_h6_7_13"  />
</g>
<g id="a6_0014"  >
<polygon points="545,85 550,80 559,80 559,90 550,90 545,85 " style="fill:white; stroke-width:1; stroke:black; " description="&lt;b&gt;MAA_09848&lt;/b&gt;&lt;br&gt;alpha-ketoglutarate-dependent sulfonate dioxygenase&lt;br&gt;Location: 1151866 - 1153099" locus_tag="MAA_09848" class="clusterblast-orf" id="dummy-6_h6_7_14"  />
</g>
<g id="a6_0015"  >
<polygon points="572,85 577,80 588,80 588,90 577,90 572,85 " style="fill:white; stroke-width:1; stroke:black; " description="&lt;b&gt;MAA_09849&lt;/b&gt;&lt;br&gt;Pyridoxal phosphate-dependent transferase, major domain protein&lt;br&gt;Location: 1154203 - 1155640" locus_tag="MAA_09849" class="clusterblast-orf" id="dummy-6_h6_7_15"  />
</g>
<g id="a6_0016"  >
<polygon points="600,90 614,90 619,85 614,80 600,80 600,90 " style="fill:white; stroke-width:1; stroke:black; " description="&lt;b&gt;MAA_09850&lt;/b&gt;&lt;br&gt;hypothetical protein&lt;br&gt;Location: 1156633 - 1158293" locus_tag="MAA_09850" class="clusterblast-orf" id="dummy-6_h6_7_16"  />
</g>
<g id="a6_0017"  >
<polygon points="624,85 629,80 637,80 637,90 629,90 624,85 " style="fill:white; stroke-width:1; stroke:black; " description="&lt;b&gt;MAA_09851&lt;/b&gt;&lt;br&gt;Oxoglutarate/iron-dependent oxygenase&lt;br&gt;Location: 1158738 - 1159909" locus_tag="MAA_09851" class="clusterblast-orf" id="dummy-6_h6_7_17"  />
</g>
<g id="a6_0018"  >
<polygon points="649,90 657,90 662,85 657,80 649,80 649,90 " style="fill:white; stroke-width:1; stroke:black; " description="&lt;b&gt;MAA_09852&lt;/b&gt;&lt;br&gt;HpcH/HpaI aldolase/citrate lyase family protein&lt;br&gt;Location: 1160940 - 1162057" locus_tag="MAA_09852" class="clusterblast-orf" id="dummy-6_h6_7_18"  />
</g>
<g id="a6_0019"  >
<polygon points="672,90 689,90 694,85 689,80 672,80 672,90 " style="fill:white; stroke-width:1; stroke:black; " description="&lt;b&gt;MAA_09853&lt;/b&gt;&lt;br&gt;AMP-dependent synthetase/ligase&lt;br&gt;Location: 1162984 - 1164923" locus_tag="MAA_09853" class="clusterblast-orf" id="dummy-6_h6_7_19"  />
</g>
<g id="a6_0020"  >
<polygon points="703,85 708,80 719,80 719,90 708,90 703,85 " style="fill:white; stroke-width:1; stroke:black; " description="&lt;b&gt;MAA_09854&lt;/b&gt;&lt;br&gt;Aminotransferase class-III&lt;br&gt;Location: 1165646 - 1167110" locus_tag="MAA_09854" class="clusterblast-orf" id="dummy-6_h6_7_20"  />
</g>
<g id="a6_0021"  >
<polygon points="741,90 748,90 753,85 748,80 741,80 741,90 " style="fill:white; stroke-width:1; stroke:black; " description="&lt;b&gt;MAA_09855&lt;/b&gt;&lt;br&gt;4-hydroxyphenylpyruvate dioxygenase&lt;br&gt;Location: 1168984 - 1170081" locus_tag="MAA_09855" class="clusterblast-orf" id="dummy-6_h6_7_21"  />
</g>
<g id="a6_0022"  >
<polygon points="755,85 760,80 762,80 762,90 760,90 755,85 " style="fill:white; stroke-width:1; stroke:black; " description="&lt;b&gt;MAA_09856&lt;/b&gt;&lt;br&gt;hypothetical protein&lt;br&gt;Location: 1170215 - 1170844" locus_tag="MAA_09856" class="clusterblast-orf" id="dummy-6_h6_7_22"  />
</g>
<g id="a6_0023"  >
<polygon points="771,85 776,80 780,80 780,90 776,90 771,85 " style="fill:white; stroke-width:1; stroke:black; " description="&lt;b&gt;MAA_11646&lt;/b&gt;&lt;br&gt;nonribosomal peptide synthase GliP2&lt;br&gt;Location: 1171615 - 1172376" locus_tag="MAA_11646" class="clusterblast-orf" id="dummy-6_h6_7_23"  />
</g>
</svg>
