<svg xmlns="http://www.w3.org/2000/svg" xmlns:xlink="http://www.w3.org/1999/xlink" version="1.1" x="0" y="0" height="230" width="800" viewBox="0 0 800 230" preserveAspectRatio="none"  >
<g label="Query sequence" class="clusterblast-cluster"  >
<text x="5" y="20" class="clusterblast-acc"  >
Query sequence</text>
<line x1="10" y1="35" x2="778.0" y2="35" style="stroke-width:1; stroke:grey; "  />
<polygon points="306,40 339,40 344,35 339,30 306,30 306,40 " style="fill:#d81515; stroke-width:1; stroke:black; " description="&lt;b&gt;input.path1.gene1434&lt;/b&gt;&lt;br&gt;input.path1.gene1434&lt;br&gt;Location: 5350008 - 5351491" locus_tag="input.path1.gene1434" class="clusterblast-orf" id="dummy-6_q0_0_all"  />
<polygon points="362,35 367,30 403,30 403,40 367,40 362,35 " style="fill:#15d815; stroke-width:1; stroke:black; " description="&lt;b&gt;input.path1.gene1435&lt;/b&gt;&lt;br&gt;input.path1.gene1435&lt;br&gt;Location: 5352183 - 5353737" locus_tag="input.path1.gene1435" class="clusterblast-orf" id="dummy-6_q1_0_all"  />
<polygon points="428,40 469,40 474,35 469,30 428,30 428,40 " style="fill:#1515d8; stroke-width:1; stroke:black; " description="&lt;b&gt;input.path1.gene1436&lt;/b&gt;&lt;br&gt;input.path1.gene1436&lt;br&gt;Location: 5354720 - 5356461" locus_tag="input.path1.gene1436" class="clusterblast-orf" id="dummy-6_q2_0_all"  />
</g>
<g label="NC_054390" description="NC_054390 (5438362-5469923): Drechmeria coniospora strain ARSEF 6962 chromoso... (30% of genes show similarity), terpene" class="clusterblast-cluster"  >
<text x="5" y="70" class="clusterblast-acc"  >
<a xlink:href="https://antismash-db.secondarymetabolites.org/area?record=NC_054390&amp;start=5438362&amp;end=5469923" target="_blank">NC_054390 (5438362-5469923)</a>: Drechmeria coniospora strain ARSEF 6962 chromoso... (30% of genes show similarity), terpene</text>
<line x1="10" y1="85" x2="778.0" y2="85" style="stroke-width:1; stroke:grey; "  />
</g>
<g id="a6_000"  >
<polygon points="0,85 5,80 24,80 24,90 5,90 0,85 " style="fill:white; stroke-width:1; stroke:black; " description="&lt;b&gt;DCS_04587&lt;/b&gt;&lt;br&gt;translin-associated protein X&lt;br&gt;Location: 5469871 - 5468922" locus_tag="DCS_04587" class="clusterblast-orf" id="dummy-6_h6_7_0"  />
</g>
<g id="a6_001"  >
<polygon points="57,90 89,90 94,85 89,80 57,80 57,90 " style="fill:white; stroke-width:1; stroke:black; " description="&lt;b&gt;DCS_04586&lt;/b&gt;&lt;br&gt;glycosyltransferase family 50&lt;br&gt;Location: 5467657 - 5466233" locus_tag="DCS_04586" class="clusterblast-orf" id="dummy-6_h6_7_1"  />
</g>
<g id="a6_002"  >
<polygon points="108,85 113,80 158,80 158,90 113,90 108,85 " style="fill:white; stroke-width:1; stroke:black; " description="&lt;b&gt;DCS_04585&lt;/b&gt;&lt;br&gt;hypothetical protein&lt;br&gt;Location: 5465700 - 5463798" locus_tag="DCS_04585" class="clusterblast-orf" id="dummy-6_h6_7_2"  />
</g>
<g id="a6_003"  >
<polygon points="222,85 227,80 233,80 233,90 227,90 222,85 " style="fill:white; stroke-width:1; stroke:black; " description="&lt;b&gt;DCS_04584&lt;/b&gt;&lt;br&gt;hypothetical protein&lt;br&gt;Location: 5461322 - 5460912" locus_tag="DCS_04584" class="clusterblast-orf" id="dummy-6_h6_7_3"  />
</g>
<g id="a6_004"  >
<polygon points="334,90 367,90 372,85 367,80 334,80 334,90 " style="fill:#d81515; stroke-width:1; stroke:black; " description="&lt;b&gt;DCS_04583&lt;/b&gt;&lt;br&gt;putative alkaline protease&lt;br&gt;Location: 5457036 - 5455591&lt;br&gt;&lt;br&gt;&lt;b&gt;BlastP hit with input.path1.gene1434&lt;/b&gt;&lt;br&gt;Percentage identity: 55&lt;br&gt;Percentage coverage: 90&lt;br&gt;BLAST bit score: 377&lt;br&gt;E-value: 3.89e-126" locus_tag="DCS_04583" class="clusterblast-orf" id="dummy-6_h6_7_4"  />
</g>
<g id="a6_005"  >
<polygon points="389,85 394,80 430,80 430,90 394,90 389,85 " style="fill:#15d815; stroke-width:1; stroke:black; " description="&lt;b&gt;DCS_04582&lt;/b&gt;&lt;br&gt;squalene synthase&lt;br&gt;Location: 5454923 - 5453363&lt;br&gt;&lt;br&gt;&lt;b&gt;BlastP hit with input.path1.gene1435&lt;/b&gt;&lt;br&gt;Percentage identity: 74&lt;br&gt;Percentage coverage: 100&lt;br&gt;BLAST bit score: 698&lt;br&gt;E-value: 1.57e-251" locus_tag="DCS_04582" class="clusterblast-orf" id="dummy-6_h6_7_5"  />
</g>
<g id="a6_006"  >
<polygon points="469,85 474,80 514,80 514,90 474,90 469,85 " style="fill:#1515d8; stroke-width:1; stroke:black; " description="&lt;b&gt;DCS_04581&lt;/b&gt;&lt;br&gt;DNAJ domain containing protein&lt;br&gt;Location: 5451849 - 5450113&lt;br&gt;&lt;br&gt;&lt;b&gt;BlastP hit with input.path1.gene1436&lt;/b&gt;&lt;br&gt;Percentage identity: 72&lt;br&gt;Percentage coverage: 101&lt;br&gt;BLAST bit score: 676&lt;br&gt;E-value: 7.24e-241" locus_tag="DCS_04581" class="clusterblast-orf" id="dummy-6_h6_7_6"  />
</g>
<g id="a6_007"  >
<polygon points="534,85 539,80 558,80 558,90 539,90 534,85 " style="fill:white; stroke-width:1; stroke:black; " description="&lt;b&gt;DCS_04580&lt;/b&gt;&lt;br&gt;heme/steroid binding protein&lt;br&gt;Location: 5449373 - 5448429" locus_tag="DCS_04580" class="clusterblast-orf" id="dummy-6_h6_7_7"  />
</g>
<g id="a6_008"  >
<polygon points="639,90 691,90 696,85 691,80 639,80 639,90 " style="fill:white; stroke-width:1; stroke:black; " description="&lt;b&gt;DCS_04579&lt;/b&gt;&lt;br&gt;hypothetical protein&lt;br&gt;Location: 5445345 - 5443126" locus_tag="DCS_04579" class="clusterblast-orf" id="dummy-6_h6_7_8"  />
</g>
<g id="a6_009"  >
<polygon points="712,85 717,80 780,80 780,90 717,90 712,85 " style="fill:white; stroke-width:1; stroke:black; " description="&lt;b&gt;DCS_04578&lt;/b&gt;&lt;br&gt;hypothetical protein&lt;br&gt;Location: 5442534 - 5439938" locus_tag="DCS_04578" class="clusterblast-orf" id="dummy-6_h6_7_9"  />
</g>
</svg>
