<svg xmlns="http://www.w3.org/2000/svg" xmlns:xlink="http://www.w3.org/1999/xlink" version="1.1" x="0" y="0" height="230" width="800" viewBox="0 0 800 230" preserveAspectRatio="none"  >
<g label="Query sequence" class="clusterblast-cluster"  >
<text x="5" y="20" class="clusterblast-acc"  >
Query sequence</text>
<line x1="10" y1="35" x2="778.0" y2="35" style="stroke-width:1; stroke:grey; "  />
<polygon points="260,40 275,40 280,35 275,30 260,30 260,40 " style="fill:white; stroke-width:1; stroke:black; " description="&lt;b&gt;input.path1.gene61&lt;/b&gt;&lt;br&gt;input.path1.gene61&lt;br&gt;Location: 222168 - 226096" locus_tag="input.path1.gene61" class="clusterblast-orf" id="dummy-1_q0_0_all"  />
<polygon points="284,40 289,40 294,35 289,30 284,30 284,40 " style="fill:white; stroke-width:1; stroke:black; " description="&lt;b&gt;input.path1.gene62&lt;/b&gt;&lt;br&gt;input.path1.gene62&lt;br&gt;Location: 226863 - 228953" locus_tag="input.path1.gene62" class="clusterblast-orf" id="dummy-1_q1_0_all"  />
<polygon points="297,35 299,30 299,40 297,35 " style="fill:white; stroke-width:1; stroke:black; " description="&lt;b&gt;input.path1.gene63&lt;/b&gt;&lt;br&gt;input.path1.gene63&lt;br&gt;Location: 229456 - 229836" locus_tag="input.path1.gene63" class="clusterblast-orf" id="dummy-1_q2_0_all"  />
<polygon points="313,40 318,40 323,35 318,30 313,30 313,40 " style="fill:white; stroke-width:1; stroke:black; " description="&lt;b&gt;input.path1.gene64&lt;/b&gt;&lt;br&gt;input.path1.gene64&lt;br&gt;Location: 232585 - 234672" locus_tag="input.path1.gene64" class="clusterblast-orf" id="dummy-1_q3_0_all"  />
<polygon points="324,35 329,30 335,30 335,40 329,40 324,35 " style="fill:white; stroke-width:1; stroke:black; " description="&lt;b&gt;input.path1.gene65&lt;/b&gt;&lt;br&gt;input.path1.gene65&lt;br&gt;Location: 234833 - 237002" locus_tag="input.path1.gene65" class="clusterblast-orf" id="dummy-1_q4_0_all"  />
<polygon points="339,40 343,40 348,35 343,30 339,30 339,40 " style="fill:white; stroke-width:1; stroke:black; " description="&lt;b&gt;input.path1.gene66&lt;/b&gt;&lt;br&gt;input.path1.gene66&lt;br&gt;Location: 237878 - 239567" locus_tag="input.path1.gene66" class="clusterblast-orf" id="dummy-1_q5_0_all"  />
<polygon points="360,35 364,30 364,40 360,35 " style="fill:#d81515; stroke-width:1; stroke:black; " description="&lt;b&gt;input.path1.gene67&lt;/b&gt;&lt;br&gt;input.path1.gene67&lt;br&gt;Location: 241925 - 242819" locus_tag="input.path1.gene67" class="clusterblast-orf" id="dummy-1_q6_0_all"  />
<polygon points="369,35 374,30 377,30 377,40 374,40 369,35 " style="fill:#15d815; stroke-width:1; stroke:black; " description="&lt;b&gt;input.path1.gene68&lt;/b&gt;&lt;br&gt;input.path1.gene68&lt;br&gt;Location: 243666 - 245418" locus_tag="input.path1.gene68" class="clusterblast-orf" id="dummy-1_q7_0_all"  />
<polygon points="381,35 386,30 406,30 406,40 386,40 381,35 " style="fill:#1515d8; stroke-width:1; stroke:black; " description="&lt;b&gt;input.path1.gene69&lt;/b&gt;&lt;br&gt;input.path1.gene69&lt;br&gt;Location: 246187 - 251076" locus_tag="input.path1.gene69" class="clusterblast-orf" id="dummy-1_q8_0_all"  />
<polygon points="438,35 443,30 454,30 454,40 443,40 438,35 " style="fill:white; stroke-width:1; stroke:black; " description="&lt;b&gt;input.path1.gene70&lt;/b&gt;&lt;br&gt;input.path1.gene70&lt;br&gt;Location: 257366 - 260649" locus_tag="input.path1.gene70" class="clusterblast-orf" id="dummy-1_q9_0_all"  />
<polygon points="479,35 484,30 487,30 487,40 484,40 479,35 " style="fill:white; stroke-width:1; stroke:black; " description="&lt;b&gt;input.path1.gene71&lt;/b&gt;&lt;br&gt;input.path1.gene71&lt;br&gt;Location: 265448 - 267098" locus_tag="input.path1.gene71" class="clusterblast-orf" id="dummy-1_q10_0_all"  />
<polygon points="491,40 494,40 499,35 494,30 491,30 491,40 " style="fill:white; stroke-width:1; stroke:black; " description="&lt;b&gt;input.path1.gene72&lt;/b&gt;&lt;br&gt;input.path1.gene72&lt;br&gt;Location: 267977 - 269536" locus_tag="input.path1.gene72" class="clusterblast-orf" id="dummy-1_q11_0_all"  />
<polygon points="500,35 505,30 510,30 510,40 505,40 500,35 " style="fill:white; stroke-width:1; stroke:black; " description="&lt;b&gt;input.path1.gene73&lt;/b&gt;&lt;br&gt;input.path1.gene73&lt;br&gt;Location: 269630 - 271596" locus_tag="input.path1.gene73" class="clusterblast-orf" id="dummy-1_q12_0_all"  />
<polygon points="516,40 519,35 516,30 516,40 " style="fill:white; stroke-width:1; stroke:black; " description="&lt;b&gt;input.path1.gene74&lt;/b&gt;&lt;br&gt;input.path1.gene74&lt;br&gt;Location: 272793 - 273468" locus_tag="input.path1.gene74" class="clusterblast-orf" id="dummy-1_q13_0_all"  />
</g>
<g label="NC_035791" description="NC_035791 (3928355-4086848): Pochonia chlamydosporia 170 chromosome 2, whole ... (6% of genes show similarity), fungal-RiPP-like,isocyanide-nrp" class="clusterblast-cluster"  >
<text x="5" y="70" class="clusterblast-acc"  >
<a xlink:href="https://antismash-db.secondarymetabolites.org/area?record=NC_035791&amp;start=3928355&amp;end=4086848" target="_blank">NC_035791 (3928355-4086848)</a>: Pochonia chlamydosporia 170 chromosome 2, whole ... (6% of genes show similarity), fungal-RiPP-like,isocyanide-nrp</text>
<line x1="10" y1="85" x2="778.0" y2="85" style="stroke-width:1; stroke:grey; "  />
</g>
<g id="a1_000"  >
<polygon points="0,90 3,90 8,85 3,80 0,80 0,90 " style="fill:white; stroke-width:1; stroke:black; " description="&lt;b&gt;VFPPC_03313&lt;/b&gt;&lt;br&gt;major facilitator superfamily domain, general substrate transporter&lt;br&gt;Location: 4085218 - 4083462" locus_tag="VFPPC_03313" class="clusterblast-orf" id="dummy-1_h1_7_0"  />
</g>
<g id="a1_001"  >
<polygon points="17,90 23,90 28,85 23,80 17,80 17,90 " style="fill:white; stroke-width:1; stroke:black; " description="&lt;b&gt;VFPPC_03312&lt;/b&gt;&lt;br&gt;sugar porter (SP) family MFS transporter&lt;br&gt;Location: 4081658 - 4079538" locus_tag="VFPPC_03312" class="clusterblast-orf" id="dummy-1_h1_7_1"  />
</g>
<g id="a1_002"  >
<polygon points="30,85 35,80 35,80 35,90 35,90 30,85 " style="fill:white; stroke-width:1; stroke:black; " description="&lt;b&gt;VFPPC_03311&lt;/b&gt;&lt;br&gt;hypothetical protein&lt;br&gt;Location: 4079127 - 4078255" locus_tag="VFPPC_03311" class="clusterblast-orf" id="dummy-1_h1_7_2"  />
</g>
<g id="a1_003"  >
<polygon points="38,90 46,90 51,85 46,80 38,80 38,90 " style="fill:white; stroke-width:1; stroke:black; " description="&lt;b&gt;VFPPC_03310&lt;/b&gt;&lt;br&gt;ankyrin repeat domain-containing protein&lt;br&gt;Location: 4077632 - 4075092" locus_tag="VFPPC_03310" class="clusterblast-orf" id="dummy-1_h1_7_3"  />
</g>
<g id="a1_004"  >
<polygon points="55,90 61,90 66,85 61,80 55,80 55,90 " style="fill:white; stroke-width:1; stroke:black; " description="&lt;b&gt;VFPPC_03309&lt;/b&gt;&lt;br&gt;vacuolar calcium ion transporter&lt;br&gt;Location: 4074267 - 4072063" locus_tag="VFPPC_03309" class="clusterblast-orf" id="dummy-1_h1_7_4"  />
</g>
<g id="a1_005"  >
<polygon points="70,85 75,80 77,80 77,90 75,90 70,85 " style="fill:white; stroke-width:1; stroke:black; " description="&lt;b&gt;VFPPC_03308&lt;/b&gt;&lt;br&gt;tam domain methyltransferase&lt;br&gt;Location: 4071239 - 4069855" locus_tag="VFPPC_03308" class="clusterblast-orf" id="dummy-1_h1_7_5"  />
</g>
<g id="a1_006"  >
<polygon points="88,90 93,90 98,85 93,80 88,80 88,90 " style="fill:white; stroke-width:1; stroke:black; " description="&lt;b&gt;VFPPC_03306&lt;/b&gt;&lt;br&gt;benzoate 4-monooxygenase cytochrome p450&lt;br&gt;Location: 4067696 - 4065702" locus_tag="VFPPC_03306" class="clusterblast-orf" id="dummy-1_h1_7_6"  />
</g>
<g id="a1_007"  >
<polygon points="100,90 104,85 100,80 100,90 " style="fill:white; stroke-width:1; stroke:black; " description="&lt;b&gt;VFPPC_03305&lt;/b&gt;&lt;br&gt;oxidoreductase&lt;br&gt;Location: 4065377 - 4064496" locus_tag="VFPPC_03305" class="clusterblast-orf" id="dummy-1_h1_7_7"  />
</g>
<g id="a1_008"  >
<polygon points="108,90 112,85 108,80 108,90 " style="fill:white; stroke-width:1; stroke:black; " description="&lt;b&gt;VFPPC_03304&lt;/b&gt;&lt;br&gt;hypothetical protein&lt;br&gt;Location: 4063805 - 4063038" locus_tag="VFPPC_03304" class="clusterblast-orf" id="dummy-1_h1_7_8"  />
</g>
<g id="a1_009"  >
<polygon points="127,85 132,80 137,80 137,90 132,90 127,85 " style="fill:white; stroke-width:1; stroke:black; " description="&lt;b&gt;VFPPC_03303&lt;/b&gt;&lt;br&gt;MFS quinate transporter&lt;br&gt;Location: 4060048 - 4058086" locus_tag="VFPPC_03303" class="clusterblast-orf" id="dummy-1_h1_7_9"  />
</g>
<g id="a1_0010"  >
<polygon points="143,90 145,85 143,80 143,90 " style="fill:white; stroke-width:1; stroke:black; " description="&lt;b&gt;VFPPC_17520&lt;/b&gt;&lt;br&gt;hypothetical protein&lt;br&gt;Location: 4056776 - 4056402" locus_tag="VFPPC_17520" class="clusterblast-orf" id="dummy-1_h1_7_10"  />
</g>
<g id="a1_0011"  >
<polygon points="151,85 156,80 158,80 158,90 156,90 151,85 " style="fill:white; stroke-width:1; stroke:black; " description="&lt;b&gt;VFPPC_03302&lt;/b&gt;&lt;br&gt;bifunctional polynucleotide phosphatase/kinase&lt;br&gt;Location: 4055327 - 4053812" locus_tag="VFPPC_03302" class="clusterblast-orf" id="dummy-1_h1_7_11"  />
</g>
<g id="a1_0012"  >
<polygon points="160,90 160,90 165,85 160,80 160,80 160,90 " style="fill:white; stroke-width:1; stroke:black; " description="&lt;b&gt;VFPPC_03301&lt;/b&gt;&lt;br&gt;mediator complex subunit Med18&lt;br&gt;Location: 4053372 - 4052477" locus_tag="VFPPC_03301" class="clusterblast-orf" id="dummy-1_h1_7_12"  />
</g>
<g id="a1_0013"  >
<polygon points="168,85 173,80 177,80 177,90 173,90 168,85 " style="fill:#15d815; stroke-width:1; stroke:black; " description="&lt;b&gt;VFPPC_03300&lt;/b&gt;&lt;br&gt;siderophore iron transporter&lt;br&gt;Location: 4051823 - 4050054&lt;br&gt;&lt;br&gt;&lt;b&gt;BlastP hit with input.path1.gene68&lt;/b&gt;&lt;br&gt;Percentage identity: 66&lt;br&gt;Percentage coverage: 94&lt;br&gt;BLAST bit score: 721&lt;br&gt;E-value: 1.52e-256" locus_tag="VFPPC_03300" class="clusterblast-orf" id="dummy-1_h1_7_13"  />
</g>
<g id="a1_0014"  >
<polygon points="181,85 186,80 207,80 207,90 186,90 181,85 " style="fill:#1515d8; stroke-width:1; stroke:black; " description="&lt;b&gt;VFPPC_03299&lt;/b&gt;&lt;br&gt;transferase family protein&lt;br&gt;Location: 4049348 - 4044127&lt;br&gt;&lt;br&gt;&lt;b&gt;BlastP hit with input.path1.gene69&lt;/b&gt;&lt;br&gt;Percentage identity: 58&lt;br&gt;Percentage coverage: 110&lt;br&gt;BLAST bit score: 1830&lt;br&gt;E-value: 0.0" locus_tag="VFPPC_03299" class="clusterblast-orf" id="dummy-1_h1_7_14"  />
</g>
<g id="a1_0015"  >
<polygon points="211,90 214,90 219,85 214,80 211,80 211,90 " style="fill:white; stroke-width:1; stroke:black; " description="&lt;b&gt;VFPPC_13442&lt;/b&gt;&lt;br&gt;alcohol acetyltransferase&lt;br&gt;Location: 4043269 - 4041751" locus_tag="VFPPC_13442" class="clusterblast-orf" id="dummy-1_h1_7_15"  />
</g>
<g id="a1_0016"  >
<polygon points="223,90 223,90 228,85 223,80 223,80 223,90 " style="fill:white; stroke-width:1; stroke:black; " description="&lt;b&gt;VFPPC_03298&lt;/b&gt;&lt;br&gt;lipase&lt;br&gt;Location: 4041017 - 4039986" locus_tag="VFPPC_03298" class="clusterblast-orf" id="dummy-1_h1_7_16"  />
</g>
<g id="a1_0017"  >
<polygon points="232,90 236,90 241,85 236,80 232,80 232,90 " style="fill:#15d815; stroke-width:1; stroke:black; " description="&lt;b&gt;VFPPC_03297&lt;/b&gt;&lt;br&gt;siderophore iron transporter&lt;br&gt;Location: 4039186 - 4037423&lt;br&gt;&lt;br&gt;&lt;b&gt;BlastP hit with input.path1.gene68&lt;/b&gt;&lt;br&gt;Percentage identity: 57&lt;br&gt;Percentage coverage: 93&lt;br&gt;BLAST bit score: 608&lt;br&gt;E-value: 3.94e-212" locus_tag="VFPPC_03297" class="clusterblast-orf" id="dummy-1_h1_7_17"  />
</g>
<g id="a1_0018"  >
<polygon points="246,90 249,85 246,80 246,90 " style="fill:white; stroke-width:1; stroke:black; " description="&lt;b&gt;VFPPC_03296&lt;/b&gt;&lt;br&gt;peptidoglycan-binding domain-containing protein&lt;br&gt;Location: 4036429 - 4035854" locus_tag="VFPPC_03296" class="clusterblast-orf" id="dummy-1_h1_7_18"  />
</g>
<g id="a1_0019"  >
<polygon points="252,85 255,80 255,90 252,85 " style="fill:white; stroke-width:1; stroke:black; " description="&lt;b&gt;VFPPC_03295&lt;/b&gt;&lt;br&gt;hypothetical protein&lt;br&gt;Location: 4035204 - 4034694" locus_tag="VFPPC_03295" class="clusterblast-orf" id="dummy-1_h1_7_19"  />
</g>
<g id="a1_0020"  >
<polygon points="272,90 274,90 279,85 274,80 272,80 272,90 " style="fill:white; stroke-width:1; stroke:black; " description="&lt;b&gt;VFPPC_03293&lt;/b&gt;&lt;br&gt;efflux pump antibiotic resistance protein&lt;br&gt;Location: 4031388 - 4029822" locus_tag="VFPPC_03293" class="clusterblast-orf" id="dummy-1_h1_7_20"  />
</g>
<g id="a1_0021"  >
<polygon points="281,90 283,90 288,85 283,80 281,80 281,90 " style="fill:white; stroke-width:1; stroke:black; " description="&lt;b&gt;VFPPC_03292&lt;/b&gt;&lt;br&gt;polysaccharide synthase&lt;br&gt;Location: 4029446 - 4028084" locus_tag="VFPPC_03292" class="clusterblast-orf" id="dummy-1_h1_7_21"  />
</g>
<g id="a1_0022"  >
<polygon points="300,85 305,80 309,80 309,90 305,90 300,85 " style="fill:white; stroke-width:1; stroke:black; " description="&lt;b&gt;VFPPC_03291&lt;/b&gt;&lt;br&gt;hypothetical protein&lt;br&gt;Location: 4025667 - 4023883" locus_tag="VFPPC_03291" class="clusterblast-orf" id="dummy-1_h1_7_22"  />
</g>
<g id="a1_0023"  >
<polygon points="362,90 366,85 362,80 362,90 " style="fill:white; stroke-width:1; stroke:black; " description="&lt;b&gt;VFPPC_03287&lt;/b&gt;&lt;br&gt;hypothetical protein&lt;br&gt;Location: 4013542 - 4012705" locus_tag="VFPPC_03287" class="clusterblast-orf" id="dummy-1_h1_7_23"  />
</g>
<g id="a1_0024"  >
<polygon points="369,85 373,80 373,90 369,85 " style="fill:white; stroke-width:1; stroke:black; " description="&lt;b&gt;VFPPC_03286&lt;/b&gt;&lt;br&gt;hypothetical protein&lt;br&gt;Location: 4012130 - 4011334" locus_tag="VFPPC_03286" class="clusterblast-orf" id="dummy-1_h1_7_24"  />
</g>
<g id="a1_0025"  >
<polygon points="394,90 398,85 394,80 394,90 " style="fill:white; stroke-width:1; stroke:black; " description="&lt;b&gt;VFPPC_03285&lt;/b&gt;&lt;br&gt;hypothetical protein&lt;br&gt;Location: 4007174 - 4006416" locus_tag="VFPPC_03285" class="clusterblast-orf" id="dummy-1_h1_7_25"  />
</g>
<g id="a1_0026"  >
<polygon points="401,90 402,90 407,85 402,80 401,80 401,90 " style="fill:white; stroke-width:1; stroke:black; " description="&lt;b&gt;VFPPC_03284&lt;/b&gt;&lt;br&gt;F-box domain-containing protein&lt;br&gt;Location: 4005803 - 4004594" locus_tag="VFPPC_03284" class="clusterblast-orf" id="dummy-1_h1_7_26"  />
</g>
<g id="a1_0027"  >
<polygon points="410,85 413,80 413,90 410,85 " style="fill:white; stroke-width:1; stroke:black; " description="&lt;b&gt;VFPPC_03283&lt;/b&gt;&lt;br&gt;hypothetical protein&lt;br&gt;Location: 4004006 - 4003314" locus_tag="VFPPC_03283" class="clusterblast-orf" id="dummy-1_h1_7_27"  />
</g>
<g id="a1_0028"  >
<polygon points="443,90 446,90 451,85 446,80 443,80 443,90 " style="fill:white; stroke-width:1; stroke:black; " description="&lt;b&gt;VFPPC_13441&lt;/b&gt;&lt;br&gt;hypothetical protein&lt;br&gt;Location: 3997403 - 3995847" locus_tag="VFPPC_13441" class="clusterblast-orf" id="dummy-1_h1_7_28"  />
</g>
<g id="a1_0029"  >
<polygon points="453,85 457,80 457,90 453,85 " style="fill:white; stroke-width:1; stroke:black; " description="&lt;b&gt;VFPPC_03281&lt;/b&gt;&lt;br&gt;acetyltransferase (GNAT) domain-containing protein&lt;br&gt;Location: 3995480 - 3994716" locus_tag="VFPPC_03281" class="clusterblast-orf" id="dummy-1_h1_7_29"  />
</g>
<g id="a1_0030"  >
<polygon points="461,85 466,80 468,80 468,90 466,90 461,85 " style="fill:white; stroke-width:1; stroke:black; " description="&lt;b&gt;VFPPC_03280&lt;/b&gt;&lt;br&gt;kinase domain-containing protein&lt;br&gt;Location: 3993808 - 3992474" locus_tag="VFPPC_03280" class="clusterblast-orf" id="dummy-1_h1_7_30"  />
</g>
<g id="a1_0031"  >
<polygon points="523,85 528,80 549,80 549,90 528,90 523,85 " style="fill:white; stroke-width:1; stroke:black; " description="&lt;b&gt;VFPPC_03277&lt;/b&gt;&lt;br&gt;ABC multidrug transporter&lt;br&gt;Location: 3981618 - 3976561" locus_tag="VFPPC_03277" class="clusterblast-orf" id="dummy-1_h1_7_31"  />
</g>
<g id="a1_0032"  >
<polygon points="560,85 565,80 565,80 565,90 565,90 560,85 " style="fill:white; stroke-width:1; stroke:black; " description="&lt;b&gt;VFPPC_03276&lt;/b&gt;&lt;br&gt;hypothetical protein&lt;br&gt;Location: 3974327 - 3973356" locus_tag="VFPPC_03276" class="clusterblast-orf" id="dummy-1_h1_7_32"  />
</g>
<g id="a1_0033"  >
<polygon points="568,90 569,85 568,80 568,90 " style="fill:white; stroke-width:1; stroke:black; " description="&lt;b&gt;VFPPC_13440&lt;/b&gt;&lt;br&gt;hypothetical protein&lt;br&gt;Location: 3972707 - 3972433" locus_tag="VFPPC_13440" class="clusterblast-orf" id="dummy-1_h1_7_33"  />
</g>
<g id="a1_0034"  >
<polygon points="574,85 579,80 580,80 580,90 579,90 574,85 " style="fill:white; stroke-width:1; stroke:black; " description="&lt;b&gt;VFPPC_03275&lt;/b&gt;&lt;br&gt;hypothetical protein&lt;br&gt;Location: 3971576 - 3970338" locus_tag="VFPPC_03275" class="clusterblast-orf" id="dummy-1_h1_7_34"  />
</g>
<g id="a1_0035"  >
<polygon points="586,90 587,85 586,80 586,90 " style="fill:white; stroke-width:1; stroke:black; " description="&lt;b&gt;VFPPC_03274&lt;/b&gt;&lt;br&gt;hypothetical protein&lt;br&gt;Location: 3969114 - 3968872" locus_tag="VFPPC_03274" class="clusterblast-orf" id="dummy-1_h1_7_35"  />
</g>
<g id="a1_0036"  >
<polygon points="589,90 591,90 596,85 591,80 589,80 589,90 " style="fill:white; stroke-width:1; stroke:black; " description="&lt;b&gt;VFPPC_03273&lt;/b&gt;&lt;br&gt;hypothetical protein&lt;br&gt;Location: 3968492 - 3967086" locus_tag="VFPPC_03273" class="clusterblast-orf" id="dummy-1_h1_7_36"  />
</g>
<g id="a1_0037"  >
<polygon points="605,90 613,90 618,85 613,80 605,80 605,90 " style="fill:white; stroke-width:1; stroke:black; " description="&lt;b&gt;VFPPC_03272&lt;/b&gt;&lt;br&gt;fungal specific transcription factor domain-containing protein&lt;br&gt;Location: 3965292 - 3962813" locus_tag="VFPPC_03272" class="clusterblast-orf" id="dummy-1_h1_7_37"  />
</g>
<g id="a1_0038"  >
<polygon points="628,85 632,80 632,90 628,85 " style="fill:white; stroke-width:1; stroke:black; " description="&lt;b&gt;VFPPC_03270&lt;/b&gt;&lt;br&gt;v-ATPase proteolipid subunit&lt;br&gt;Location: 3960930 - 3960130" locus_tag="VFPPC_03270" class="clusterblast-orf" id="dummy-1_h1_7_38"  />
</g>
<g id="a1_0039"  >
<polygon points="639,85 640,80 640,90 639,85 " style="fill:white; stroke-width:1; stroke:black; " description="&lt;b&gt;VFPPC_03269&lt;/b&gt;&lt;br&gt;hypothetical protein&lt;br&gt;Location: 3958731 - 3958393" locus_tag="VFPPC_03269" class="clusterblast-orf" id="dummy-1_h1_7_39"  />
</g>
<g id="a1_0040"  >
<polygon points="651,85 653,80 653,90 651,85 " style="fill:white; stroke-width:1; stroke:black; " description="&lt;b&gt;VFPPC_17521&lt;/b&gt;&lt;br&gt;hypothetical protein&lt;br&gt;Location: 3956255 - 3955983" locus_tag="VFPPC_17521" class="clusterblast-orf" id="dummy-1_h1_7_40"  />
</g>
<g id="a1_0041"  >
<polygon points="666,90 669,85 666,80 666,90 " style="fill:white; stroke-width:1; stroke:black; " description="&lt;b&gt;VFPPC_17522&lt;/b&gt;&lt;br&gt;hypothetical protein&lt;br&gt;Location: 3953287 - 3952806" locus_tag="VFPPC_17522" class="clusterblast-orf" id="dummy-1_h1_7_41"  />
</g>
<g id="a1_0042"  >
<polygon points="690,90 693,85 690,80 690,90 " style="fill:white; stroke-width:1; stroke:black; " description="&lt;b&gt;VFPPC_13439&lt;/b&gt;&lt;br&gt;hypothetical protein&lt;br&gt;Location: 3948469 - 3948038" locus_tag="VFPPC_13439" class="clusterblast-orf" id="dummy-1_h1_7_42"  />
</g>
<g id="a1_0043"  >
<polygon points="699,90 701,85 699,80 699,90 " style="fill:white; stroke-width:1; stroke:black; " description="&lt;b&gt;VFPPC_13438&lt;/b&gt;&lt;br&gt;transmembrane alpha-helix domain-containing protein&lt;br&gt;Location: 3946865 - 3946442" locus_tag="VFPPC_13438" class="clusterblast-orf" id="dummy-1_h1_7_43"  />
</g>
<g id="a1_0044"  >
<polygon points="704,90 705,85 704,80 704,90 " style="fill:white; stroke-width:1; stroke:black; " description="&lt;b&gt;VFPPC_13437&lt;/b&gt;&lt;br&gt;ribosomal protein MRP10, mitochondrial&lt;br&gt;Location: 3945893 - 3945556" locus_tag="VFPPC_13437" class="clusterblast-orf" id="dummy-1_h1_7_44"  />
</g>
<g id="a1_0045"  >
<polygon points="711,85 716,80 727,80 727,90 716,90 711,85 " style="fill:white; stroke-width:1; stroke:black; " description="&lt;b&gt;VFPPC_03265&lt;/b&gt;&lt;br&gt;Rho guanyl nucleotide exchange factor&lt;br&gt;Location: 3944401 - 3941247" locus_tag="VFPPC_03265" class="clusterblast-orf" id="dummy-1_h1_7_45"  />
</g>
<g id="a1_0046"  >
<polygon points="738,85 739,80 739,90 738,85 " style="fill:white; stroke-width:1; stroke:black; " description="&lt;b&gt;VFPPC_03263&lt;/b&gt;&lt;br&gt;hypothetical protein&lt;br&gt;Location: 3939049 - 3938867" locus_tag="VFPPC_03263" class="clusterblast-orf" id="dummy-1_h1_7_46"  />
</g>
<g id="a1_0047"  >
<polygon points="744,90 745,85 744,80 744,90 " style="fill:white; stroke-width:1; stroke:black; " description="&lt;b&gt;VFPPC_15628&lt;/b&gt;&lt;br&gt;hypothetical protein&lt;br&gt;Location: 3937843 - 3937664" locus_tag="VFPPC_15628" class="clusterblast-orf" id="dummy-1_h1_7_47"  />
</g>
<g id="a1_0048"  >
<polygon points="758,90 768,90 773,85 768,80 758,80 758,90 " style="fill:white; stroke-width:1; stroke:black; " description="&lt;b&gt;VFPPC_03262&lt;/b&gt;&lt;br&gt;F-box and WD domain-containing protein&lt;br&gt;Location: 3935157 - 3932056" locus_tag="VFPPC_03262" class="clusterblast-orf" id="dummy-1_h1_7_48"  />
</g>
<g id="a1_0049"  >
<polygon points="776,85 780,80 780,90 776,85 " style="fill:white; stroke-width:1; stroke:black; " description="&lt;b&gt;VFPPC_13436&lt;/b&gt;&lt;br&gt;Snf7 protein&lt;br&gt;Location: 3931493 - 3930855" locus_tag="VFPPC_13436" class="clusterblast-orf" id="dummy-1_h1_7_49"  />
</g>
</svg>
