<svg xmlns="http://www.w3.org/2000/svg" xmlns:xlink="http://www.w3.org/1999/xlink" version="1.1" x="0" y="0" height="230" width="800" viewBox="0 0 800 230" preserveAspectRatio="none"  >
<g label="Query sequence" class="clusterblast-cluster"  >
<text x="5" y="20" class="clusterblast-acc"  >
Query sequence</text>
<line x1="10" y1="35" x2="778.0" y2="35" style="stroke-width:1; stroke:grey; "  />
<polygon points="163,40 187,40 192,35 187,30 163,30 163,40 " style="fill:#d81515; stroke-width:1; stroke:black; " description="&lt;b&gt;input.path1.gene921&lt;/b&gt;&lt;br&gt;input.path1.gene921&lt;br&gt;Location: 3571906 - 3574187" locus_tag="input.path1.gene921" class="clusterblast-orf" id="dummy-7_q0_0_all"  />
<polygon points="193,35 198,30 198,30 198,40 198,40 193,35 " style="fill:white; stroke-width:1; stroke:black; " description="&lt;b&gt;input.path1.gene922&lt;/b&gt;&lt;br&gt;input.path1.gene922&lt;br&gt;Location: 3574222 - 3574668" locus_tag="input.path1.gene922" class="clusterblast-orf" id="dummy-7_q1_0_all"  />
<polygon points="256,40 268,40 273,35 268,30 256,30 256,40 " style="fill:#15d815; stroke-width:1; stroke:black; " description="&lt;b&gt;input.path1.gene923&lt;/b&gt;&lt;br&gt;input.path1.gene923&lt;br&gt;Location: 3579220 - 3580567" locus_tag="input.path1.gene923" class="clusterblast-orf" id="dummy-7_q2_0_all"  />
<polygon points="284,35 289,30 304,30 304,40 289,40 284,35 " style="fill:#1597d8; stroke-width:1; stroke:black; " description="&lt;b&gt;input.path1.gene924&lt;/b&gt;&lt;br&gt;input.path1.gene924&lt;br&gt;Location: 3581406 - 3582970" locus_tag="input.path1.gene924" class="clusterblast-orf" id="dummy-7_q3_0_all"  />
<polygon points="324,40 329,40 334,35 329,30 324,30 324,40 " style="fill:#9715d8; stroke-width:1; stroke:black; " description="&lt;b&gt;input.path1.gene925&lt;/b&gt;&lt;br&gt;input.path1.gene925&lt;br&gt;Location: 3584538 - 3585398" locus_tag="input.path1.gene925" class="clusterblast-orf" id="dummy-7_q4_0_all"  />
<polygon points="340,35 345,30 349,30 349,40 345,40 340,35 " style="fill:#d89715; stroke-width:1; stroke:black; " description="&lt;b&gt;input.path1.gene926&lt;/b&gt;&lt;br&gt;input.path1.gene926&lt;br&gt;Location: 3585800 - 3586571" locus_tag="input.path1.gene926" class="clusterblast-orf" id="dummy-7_q5_0_all"  />
<polygon points="356,35 361,30 401,30 401,40 361,40 356,35 " style="fill:#15d897; stroke-width:1; stroke:black; " description="&lt;b&gt;input.path1.gene927&lt;/b&gt;&lt;br&gt;input.path1.gene927&lt;br&gt;Location: 3587081 - 3590671" locus_tag="input.path1.gene927" class="clusterblast-orf" id="dummy-7_q6_0_all"  />
<polygon points="464,40 473,40 478,35 473,30 464,30 464,40 " style="fill:#1515d8; stroke-width:1; stroke:black; " description="&lt;b&gt;input.path1.gene928&lt;/b&gt;&lt;br&gt;input.path1.gene928&lt;br&gt;Location: 3595614 - 3596726" locus_tag="input.path1.gene928" class="clusterblast-orf" id="dummy-7_q7_0_all"  />
<polygon points="498,35 503,30 523,30 523,40 503,40 498,35 " style="fill:#d81597; stroke-width:1; stroke:black; " description="&lt;b&gt;input.path1.gene929&lt;/b&gt;&lt;br&gt;input.path1.gene929&lt;br&gt;Location: 3598280 - 3600318" locus_tag="input.path1.gene929" class="clusterblast-orf" id="dummy-7_q8_0_all"  />
<polygon points="568,40 587,40 592,35 587,30 568,30 568,40 " style="fill:#97d815; stroke-width:1; stroke:black; " description="&lt;b&gt;input.path1.gene930&lt;/b&gt;&lt;br&gt;input.path1.gene930&lt;br&gt;Location: 3603844 - 3605740" locus_tag="input.path1.gene930" class="clusterblast-orf" id="dummy-7_q9_0_all"  />
<polygon points="593,35 598,30 616,30 616,40 598,40 593,35 " style="fill:white; stroke-width:1; stroke:black; " description="&lt;b&gt;input.path1.gene931&lt;/b&gt;&lt;br&gt;input.path1.gene931&lt;br&gt;Location: 3605831 - 3607600" locus_tag="input.path1.gene931" class="clusterblast-orf" id="dummy-7_q10_0_all"  />
</g>
<g label="NC_035790" description="NC_035790 (3811097-3874723): Pochonia chlamydosporia 170 chromosome 1, whole ... (40% of genes show similarity), NRPS-like" class="clusterblast-cluster"  >
<text x="5" y="70" class="clusterblast-acc"  >
<a xlink:href="https://antismash-db.secondarymetabolites.org/area?record=NC_035790&amp;start=3811097&amp;end=3874723" target="_blank">NC_035790 (3811097-3874723)</a>: Pochonia chlamydosporia 170 chromosome 1, whole ... (40% of genes show similarity), NRPS-like</text>
<line x1="10" y1="85" x2="778.0" y2="85" style="stroke-width:1; stroke:grey; "  />
</g>
<g id="a7_000"  >
<polygon points="0,90 27,90 32,85 27,80 0,80 0,90 " style="fill:white; stroke-width:1; stroke:black; " description="&lt;b&gt;VFPPC_00993&lt;/b&gt;&lt;br&gt;pre-mRNA splicing factor ATP-dependent RNA helicase PRP43&lt;br&gt;Location: 3873557 - 3870996" locus_tag="VFPPC_00993" class="clusterblast-orf" id="dummy-7_h7_1_0"  />
</g>
<g id="a7_001"  >
<polygon points="83,90 85,90 90,85 85,80 83,80 83,90 " style="fill:white; stroke-width:1; stroke:black; " description="&lt;b&gt;VFPPC_00992&lt;/b&gt;&lt;br&gt;hypothetical protein&lt;br&gt;Location: 3866937 - 3866439" locus_tag="VFPPC_00992" class="clusterblast-orf" id="dummy-7_h7_1_1"  />
</g>
<g id="a7_002"  >
<polygon points="105,90 108,85 105,80 105,90 " style="fill:white; stroke-width:1; stroke:black; " description="&lt;b&gt;VFPPC_00991&lt;/b&gt;&lt;br&gt;hypothetical protein&lt;br&gt;Location: 3865227 - 3865000" locus_tag="VFPPC_00991" class="clusterblast-orf" id="dummy-7_h7_1_2"  />
</g>
<g id="a7_003"  >
<polygon points="123,85 128,80 144,80 144,90 128,90 123,85 " style="fill:white; stroke-width:1; stroke:black; " description="&lt;b&gt;VFPPC_00990&lt;/b&gt;&lt;br&gt;hypothetical protein&lt;br&gt;Location: 3863849 - 3862170" locus_tag="VFPPC_00990" class="clusterblast-orf" id="dummy-7_h7_1_3"  />
</g>
<g id="a7_004"  >
<polygon points="163,85 165,80 165,90 163,85 " style="fill:white; stroke-width:1; stroke:black; " description="&lt;b&gt;VFPPC_15270&lt;/b&gt;&lt;br&gt;hypothetical protein&lt;br&gt;Location: 3860669 - 3860475" locus_tag="VFPPC_15270" class="clusterblast-orf" id="dummy-7_h7_1_4"  />
</g>
<g id="a7_005"  >
<polygon points="176,90 207,90 212,85 207,80 176,80 176,90 " style="fill:#d81515; stroke-width:1; stroke:black; " description="&lt;b&gt;VFPPC_00989&lt;/b&gt;&lt;br&gt;protein required for cell viability&lt;br&gt;Location: 3859591 - 3856768&lt;br&gt;&lt;br&gt;&lt;b&gt;BlastP hit with input.path1.gene921&lt;/b&gt;&lt;br&gt;Percentage identity: 54&lt;br&gt;Percentage coverage: 100&lt;br&gt;BLAST bit score: 723&lt;br&gt;E-value: 3.82e-250" locus_tag="VFPPC_00989" class="clusterblast-orf" id="dummy-7_h7_1_5"  />
</g>
<g id="a7_006"  >
<polygon points="264,90 272,90 277,85 272,80 264,80 264,90 " style="fill:#15d815; stroke-width:1; stroke:black; " description="&lt;b&gt;VFPPC_12953&lt;/b&gt;&lt;br&gt;hypothetical protein&lt;br&gt;Location: 3852644 - 3851628&lt;br&gt;&lt;br&gt;&lt;b&gt;BlastP hit with input.path1.gene923&lt;/b&gt;&lt;br&gt;Percentage identity: 50&lt;br&gt;Percentage coverage: 30&lt;br&gt;BLAST bit score: 103&lt;br&gt;E-value: 1.75e-22" locus_tag="VFPPC_12953" class="clusterblast-orf" id="dummy-7_h7_1_6"  />
</g>
<g id="a7_007"  >
<polygon points="298,90 303,90 308,85 303,80 298,80 298,90 " style="fill:white; stroke-width:1; stroke:black; " description="&lt;b&gt;VFPPC_15269&lt;/b&gt;&lt;br&gt;Peptidyl-prolyl cis-trans isomerase, cyclophilin-type&lt;br&gt;Location: 3849976 - 3849204" locus_tag="VFPPC_15269" class="clusterblast-orf" id="dummy-7_h7_1_7"  />
</g>
<g id="a7_008"  >
<polygon points="313,85 318,80 329,80 329,90 318,90 313,85 " style="fill:#1597d8; stroke-width:1; stroke:black; " description="&lt;b&gt;VFPPC_00987&lt;/b&gt;&lt;br&gt;kinetochore protein fta7&lt;br&gt;Location: 3848792 - 3847548&lt;br&gt;&lt;br&gt;&lt;b&gt;BlastP hit with input.path1.gene924&lt;/b&gt;&lt;br&gt;Percentage identity: 46&lt;br&gt;Percentage coverage: 64&lt;br&gt;BLAST bit score: 207&lt;br&gt;E-value: 1.84e-60" locus_tag="VFPPC_00987" class="clusterblast-orf" id="dummy-7_h7_1_8"  />
</g>
<g id="a7_009"  >
<polygon points="340,90 346,90 351,85 346,80 340,80 340,90 " style="fill:#9715d8; stroke-width:1; stroke:black; " description="&lt;b&gt;VFPPC_00986&lt;/b&gt;&lt;br&gt;peptidyl-tRNA hydrolase&lt;br&gt;Location: 3846724 - 3845839&lt;br&gt;&lt;br&gt;&lt;b&gt;BlastP hit with input.path1.gene925&lt;/b&gt;&lt;br&gt;Percentage identity: 62&lt;br&gt;Percentage coverage: 97&lt;br&gt;BLAST bit score: 335&lt;br&gt;E-value: 1.22e-114" locus_tag="VFPPC_00986" class="clusterblast-orf" id="dummy-7_h7_1_9"  />
</g>
<g id="a7_0010"  >
<polygon points="354,85 359,80 362,80 362,90 359,90 354,85 " style="fill:#d89715; stroke-width:1; stroke:black; " description="&lt;b&gt;VFPPC_15268&lt;/b&gt;&lt;br&gt;Cnl2/NKP2 family protein&lt;br&gt;Location: 3845590 - 3844958&lt;br&gt;&lt;br&gt;&lt;b&gt;BlastP hit with input.path1.gene926&lt;/b&gt;&lt;br&gt;Percentage identity: 42&lt;br&gt;Percentage coverage: 103&lt;br&gt;BLAST bit score: 116&lt;br&gt;E-value: 4.17e-31" locus_tag="VFPPC_15268" class="clusterblast-orf" id="dummy-7_h7_1_10"  />
</g>
<g id="a7_0011"  >
<polygon points="365,85 370,80 411,80 411,90 370,90 365,85 " style="fill:#15d897; stroke-width:1; stroke:black; " description="&lt;b&gt;VFPPC_00985&lt;/b&gt;&lt;br&gt;L-aminoadipate-semialdehyde dehydrogenase large subunit&lt;br&gt;Location: 3844723 - 3841098&lt;br&gt;&lt;br&gt;&lt;b&gt;BlastP hit with input.path1.gene927&lt;/b&gt;&lt;br&gt;Percentage identity: 77&lt;br&gt;Percentage coverage: 100&lt;br&gt;BLAST bit score: 1861&lt;br&gt;E-value: 0.0" locus_tag="VFPPC_00985" class="clusterblast-orf" id="dummy-7_h7_1_11"  />
</g>
<g id="a7_0012"  >
<polygon points="426,90 427,90 432,85 427,80 426,80 426,90 " style="fill:#1515d8; stroke-width:1; stroke:black; " description="&lt;b&gt;VFPPC_12952&lt;/b&gt;&lt;br&gt;histone acetylase complex subunit MRG15-2&lt;br&gt;Location: 3839871 - 3839425&lt;br&gt;&lt;br&gt;&lt;b&gt;BlastP hit with input.path1.gene928&lt;/b&gt;&lt;br&gt;Percentage identity: 55&lt;br&gt;Percentage coverage: 50&lt;br&gt;BLAST bit score: 153&lt;br&gt;E-value: 3.96e-44" locus_tag="VFPPC_12952" class="clusterblast-orf" id="dummy-7_h7_1_12"  />
</g>
<g id="a7_0013"  >
<polygon points="440,90 454,90 459,85 454,80 440,80 440,90 " style="fill:#1515d8; stroke-width:1; stroke:black; " description="&lt;b&gt;VFPPC_00984&lt;/b&gt;&lt;br&gt;histone acetylase complex subunit&lt;br&gt;Location: 3838809 - 3837294&lt;br&gt;&lt;br&gt;&lt;b&gt;BlastP hit with input.path1.gene928&lt;/b&gt;&lt;br&gt;Percentage identity: 87&lt;br&gt;Percentage coverage: 58&lt;br&gt;BLAST bit score: 350&lt;br&gt;E-value: 1.04e-117" locus_tag="VFPPC_00984" class="clusterblast-orf" id="dummy-7_h7_1_13"  />
</g>
<g id="a7_0014"  >
<polygon points="460,85 465,80 498,80 498,90 465,90 460,85 " style="fill:#d81597; stroke-width:1; stroke:black; " description="&lt;b&gt;VFPPC_00982&lt;/b&gt;&lt;br&gt;ATP-citrate synthase subunit 1&lt;br&gt;Location: 3837217 - 3834207&lt;br&gt;&lt;br&gt;&lt;b&gt;BlastP hit with input.path1.gene929&lt;/b&gt;&lt;br&gt;Percentage identity: 95&lt;br&gt;Percentage coverage: 100&lt;br&gt;BLAST bit score: 1244&lt;br&gt;E-value: 0.0" locus_tag="VFPPC_00982" class="clusterblast-orf" id="dummy-7_h7_1_14"  />
</g>
<g id="a7_0015"  >
<polygon points="522,85 527,80 527,80 527,90 527,90 522,85 " style="fill:white; stroke-width:1; stroke:black; " description="&lt;b&gt;VFPPC_18770&lt;/b&gt;&lt;br&gt;hypothetical protein&lt;br&gt;Location: 3832283 - 3831942" locus_tag="VFPPC_18770" class="clusterblast-orf" id="dummy-7_h7_1_15"  />
</g>
<g id="a7_0016"  >
<polygon points="532,85 537,80 540,80 540,90 537,90 532,85 " style="fill:white; stroke-width:1; stroke:black; " description="&lt;b&gt;VFPPC_15267&lt;/b&gt;&lt;br&gt;hypothetical protein&lt;br&gt;Location: 3831527 - 3830895" locus_tag="VFPPC_15267" class="clusterblast-orf" id="dummy-7_h7_1_16"  />
</g>
<g id="a7_0017"  >
<polygon points="544,90 564,90 569,85 564,80 544,80 544,90 " style="fill:#97d815; stroke-width:1; stroke:black; " description="&lt;b&gt;VFPPC_12951&lt;/b&gt;&lt;br&gt;ATP-citrate-lyase&lt;br&gt;Location: 3830583 - 3828610&lt;br&gt;&lt;br&gt;&lt;b&gt;BlastP hit with input.path1.gene930&lt;/b&gt;&lt;br&gt;Percentage identity: 91&lt;br&gt;Percentage coverage: 100&lt;br&gt;BLAST bit score: 887&lt;br&gt;E-value: 0.0" locus_tag="VFPPC_12951" class="clusterblast-orf" id="dummy-7_h7_1_17"  />
</g>
<g id="a7_0018"  >
<polygon points="587,85 592,80 608,80 608,90 592,90 587,85 " style="fill:white; stroke-width:1; stroke:black; " description="&lt;b&gt;VFPPC_00981&lt;/b&gt;&lt;br&gt;glycoside hydrolase family 72 protein&lt;br&gt;Location: 3827192 - 3825564" locus_tag="VFPPC_00981" class="clusterblast-orf" id="dummy-7_h7_1_18"  />
</g>
<g id="a7_0019"  >
<polygon points="634,90 638,90 643,85 638,80 634,80 634,90 " style="fill:white; stroke-width:1; stroke:black; " description="&lt;b&gt;VFPPC_15266&lt;/b&gt;&lt;br&gt;guanylate kinase&lt;br&gt;Location: 3823466 - 3822768" locus_tag="VFPPC_15266" class="clusterblast-orf" id="dummy-7_h7_1_19"  />
</g>
<g id="a7_0020"  >
<polygon points="653,85 658,80 667,80 667,90 658,90 653,85 " style="fill:white; stroke-width:1; stroke:black; " description="&lt;b&gt;VFPPC_00979&lt;/b&gt;&lt;br&gt;septin&lt;br&gt;Location: 3821990 - 3820853" locus_tag="VFPPC_00979" class="clusterblast-orf" id="dummy-7_h7_1_20"  />
</g>
<g id="a7_0021"  >
<polygon points="688,90 698,90 703,85 698,80 688,80 688,90 " style="fill:white; stroke-width:1; stroke:black; " description="&lt;b&gt;VFPPC_00978&lt;/b&gt;&lt;br&gt;meiotic recombination protein Ski8/Rec14&lt;br&gt;Location: 3819219 - 3818056" locus_tag="VFPPC_00978" class="clusterblast-orf" id="dummy-7_h7_1_21"  />
</g>
<g id="a7_0022"  >
<polygon points="708,90 711,90 716,85 711,80 708,80 708,90 " style="fill:white; stroke-width:1; stroke:black; " description="&lt;b&gt;VFPPC_00977&lt;/b&gt;&lt;br&gt;DNA polymerase delta subunit 4&lt;br&gt;Location: 3817666 - 3817005" locus_tag="VFPPC_00977" class="clusterblast-orf" id="dummy-7_h7_1_22"  />
</g>
<g id="a7_0023"  >
<polygon points="718,85 723,80 734,80 734,90 723,90 718,85 " style="fill:white; stroke-width:1; stroke:black; " description="&lt;b&gt;VFPPC_00976&lt;/b&gt;&lt;br&gt;hypothetical protein&lt;br&gt;Location: 3816823 - 3815569" locus_tag="VFPPC_00976" class="clusterblast-orf" id="dummy-7_h7_1_23"  />
</g>
<g id="a7_0024"  >
<polygon points="745,90 775,90 780,85 775,80 745,80 745,90 " style="fill:white; stroke-width:1; stroke:black; " description="&lt;b&gt;VFPPC_00975&lt;/b&gt;&lt;br&gt;ubiquitin-activating enzyme E1-like protein&lt;br&gt;Location: 3814716 - 3812001" locus_tag="VFPPC_00975" class="clusterblast-orf" id="dummy-7_h7_1_24"  />
</g>
</svg>
