<svg xmlns="http://www.w3.org/2000/svg" xmlns:xlink="http://www.w3.org/1999/xlink" version="1.1" x="0" y="0" height="230" width="800" viewBox="0 0 800 230" preserveAspectRatio="none"  >
<g label="Query sequence" class="clusterblast-cluster"  >
<text x="5" y="20" class="clusterblast-acc"  >
Query sequence</text>
<line x1="10" y1="35" x2="778.0" y2="35" style="stroke-width:1; stroke:grey; "  />
<polygon points="141,40 147,40 152,35 147,30 141,30 141,40 " style="fill:white; stroke-width:1; stroke:black; " description="&lt;b&gt;input.path1.gene1010&lt;/b&gt;&lt;br&gt;input.path1.gene1010&lt;br&gt;Location: 3736413 - 3737674" locus_tag="input.path1.gene1010" class="clusterblast-orf" id="dummy-5_q0_0_all"  />
<polygon points="285,35 290,30 298,30 298,40 290,40 285,35 " style="fill:#d81515; stroke-width:1; stroke:black; " description="&lt;b&gt;input.path1.gene1011&lt;/b&gt;&lt;br&gt;input.path1.gene1011&lt;br&gt;Location: 3752665 - 3754144" locus_tag="input.path1.gene1011" class="clusterblast-orf" id="dummy-5_q1_0_all"  />
<polygon points="302,40 366,40 371,35 366,30 302,30 302,40 " style="fill:#15d815; stroke-width:1; stroke:black; " description="&lt;b&gt;input.path1.gene1012&lt;/b&gt;&lt;br&gt;input.path1.gene1012&lt;br&gt;Location: 3754563 - 3762369" locus_tag="input.path1.gene1012" class="clusterblast-orf" id="dummy-5_q2_0_all"  />
<polygon points="391,40 404,40 409,35 404,30 391,30 391,40 " style="fill:#1515d8; stroke-width:1; stroke:black; " description="&lt;b&gt;input.path1.gene1013&lt;/b&gt;&lt;br&gt;input.path1.gene1013&lt;br&gt;Location: 3764692 - 3766740" locus_tag="input.path1.gene1013" class="clusterblast-orf" id="dummy-5_q3_0_all"  />
<polygon points="430,35 435,30 438,30 438,40 435,40 430,35 " style="fill:white; stroke-width:1; stroke:black; " description="&lt;b&gt;input.path1.gene1014&lt;/b&gt;&lt;br&gt;input.path1.gene1014&lt;br&gt;Location: 3769107 - 3770062" locus_tag="input.path1.gene1014" class="clusterblast-orf" id="dummy-5_q4_0_all"  />
<polygon points="459,40 461,40 466,35 461,30 459,30 459,40 " style="fill:white; stroke-width:1; stroke:black; " description="&lt;b&gt;input.path1.gene1015&lt;/b&gt;&lt;br&gt;input.path1.gene1015&lt;br&gt;Location: 3772411 - 3773179" locus_tag="input.path1.gene1015" class="clusterblast-orf" id="dummy-5_q5_0_all"  />
<polygon points="506,35 511,30 531,30 531,40 511,40 506,35 " style="fill:white; stroke-width:1; stroke:black; " description="&lt;b&gt;input.path1.gene1016&lt;/b&gt;&lt;br&gt;input.path1.gene1016&lt;br&gt;Location: 3777665 - 3780592" locus_tag="input.path1.gene1016" class="clusterblast-orf" id="dummy-5_q6_0_all"  />
<polygon points="558,35 563,30 564,30 564,40 563,40 558,35 " style="fill:white; stroke-width:1; stroke:black; " description="&lt;b&gt;input.path1.gene1017&lt;/b&gt;&lt;br&gt;input.path1.gene1017&lt;br&gt;Location: 3783644 - 3784286" locus_tag="input.path1.gene1017" class="clusterblast-orf" id="dummy-5_q7_0_all"  />
<polygon points="579,40 583,35 579,30 579,40 " style="fill:white; stroke-width:1; stroke:black; " description="&lt;b&gt;input.path1.gene1018&lt;/b&gt;&lt;br&gt;input.path1.gene1018&lt;br&gt;Location: 3785938 - 3786423" locus_tag="input.path1.gene1018" class="clusterblast-orf" id="dummy-5_q8_0_all"  />
<polygon points="590,35 595,30 596,30 596,40 595,40 590,35 " style="fill:white; stroke-width:1; stroke:black; " description="&lt;b&gt;input.path1.gene1019&lt;/b&gt;&lt;br&gt;input.path1.gene1019&lt;br&gt;Location: 3787232 - 3787919" locus_tag="input.path1.gene1019" class="clusterblast-orf" id="dummy-5_q9_0_all"  />
<polygon points="602,40 607,40 612,35 607,30 602,30 602,40 " style="fill:white; stroke-width:1; stroke:black; " description="&lt;b&gt;input.path1.gene1020&lt;/b&gt;&lt;br&gt;input.path1.gene1020&lt;br&gt;Location: 3788587 - 3789667" locus_tag="input.path1.gene1020" class="clusterblast-orf" id="dummy-5_q10_0_all"  />
<polygon points="628,35 633,30 638,30 638,40 633,40 628,35 " style="fill:white; stroke-width:1; stroke:black; " description="&lt;b&gt;input.path1.gene1021&lt;/b&gt;&lt;br&gt;input.path1.gene1021&lt;br&gt;Location: 3791524 - 3792643" locus_tag="input.path1.gene1021" class="clusterblast-orf" id="dummy-5_q11_0_all"  />
</g>
<g label="NC_057369" description="NC_057369 (2300771-2391818): Aspergillus chevalieri M1 DNA, chromosome 8, nea... (5% of genes show similarity), fungal-RiPP-like" class="clusterblast-cluster"  >
<text x="5" y="70" class="clusterblast-acc"  >
<a xlink:href="https://antismash-db.secondarymetabolites.org/area?record=NC_057369&amp;start=2300771&amp;end=2391818" target="_blank">NC_057369 (2300771-2391818)</a>: Aspergillus chevalieri M1 DNA, chromosome 8, nea... (5% of genes show similarity), fungal-RiPP-like</text>
<line x1="10" y1="85" x2="778.0" y2="85" style="stroke-width:1; stroke:grey; "  />
</g>
<g id="a5_000"  >
<polygon points="0,85 5,80 6,80 6,90 5,90 0,85 " style="fill:white; stroke-width:1; stroke:black; " description="&lt;b&gt;ACHE_80829S&lt;/b&gt;&lt;br&gt;uncharacterized protein&lt;br&gt;Location: 2390243 - 2389527" locus_tag="ACHE_80829S" class="clusterblast-orf" id="dummy-5_h5_3_0"  />
</g>
<g id="a5_001"  >
<polygon points="8,85 13,80 14,80 14,90 13,90 8,85 " style="fill:white; stroke-width:1; stroke:black; " description="&lt;b&gt;ACHE_80828S&lt;/b&gt;&lt;br&gt;uncharacterized protein&lt;br&gt;Location: 2389264 - 2388656" locus_tag="ACHE_80828S" class="clusterblast-orf" id="dummy-5_h5_3_1"  />
</g>
<g id="a5_002"  >
<polygon points="19,85 24,80 43,80 43,90 24,90 19,85 " style="fill:white; stroke-width:1; stroke:black; " description="&lt;b&gt;ACHE_80827S&lt;/b&gt;&lt;br&gt;uncharacterized protein&lt;br&gt;Location: 2387992 - 2385341" locus_tag="ACHE_80827S" class="clusterblast-orf" id="dummy-5_h5_3_2"  />
</g>
<g id="a5_003"  >
<polygon points="53,90 56,90 61,85 56,80 53,80 53,90 " style="fill:white; stroke-width:1; stroke:black; " description="&lt;b&gt;ACHE_80826A&lt;/b&gt;&lt;br&gt;uncharacterized protein&lt;br&gt;Location: 2384177 - 2383326" locus_tag="ACHE_80826A" class="clusterblast-orf" id="dummy-5_h5_3_3"  />
</g>
<g id="a5_004"  >
<polygon points="63,90 67,90 72,85 67,80 63,80 63,90 " style="fill:white; stroke-width:1; stroke:black; " description="&lt;b&gt;ACHE_80825A&lt;/b&gt;&lt;br&gt;uncharacterized protein&lt;br&gt;Location: 2383011 - 2382000" locus_tag="ACHE_80825A" class="clusterblast-orf" id="dummy-5_h5_3_4"  />
</g>
<g id="a5_005"  >
<polygon points="91,85 96,80 116,80 116,90 96,90 91,85 " style="fill:white; stroke-width:1; stroke:black; " description="&lt;b&gt;ACHE_80824S&lt;/b&gt;&lt;br&gt;uncharacterized protein&lt;br&gt;Location: 2379892 - 2377085" locus_tag="ACHE_80824S" class="clusterblast-orf" id="dummy-5_h5_3_5"  />
</g>
<g id="a5_006"  >
<polygon points="120,85 125,80 130,80 130,90 125,90 120,85 " style="fill:white; stroke-width:1; stroke:black; " description="&lt;b&gt;ACHE_80823S&lt;/b&gt;&lt;br&gt;uncharacterized protein&lt;br&gt;Location: 2376568 - 2375474" locus_tag="ACHE_80823S" class="clusterblast-orf" id="dummy-5_h5_3_6"  />
</g>
<g id="a5_007"  >
<polygon points="134,90 144,90 149,85 144,80 134,80 134,90 " style="fill:white; stroke-width:1; stroke:black; " description="&lt;b&gt;ACHE_80822A&lt;/b&gt;&lt;br&gt;uncharacterized protein&lt;br&gt;Location: 2375039 - 2373343" locus_tag="ACHE_80822A" class="clusterblast-orf" id="dummy-5_h5_3_7"  />
</g>
<g id="a5_008"  >
<polygon points="161,85 166,80 171,80 171,90 166,90 161,85 " style="fill:white; stroke-width:1; stroke:black; " description="&lt;b&gt;ACHE_80821S&lt;/b&gt;&lt;br&gt;uncharacterized protein&lt;br&gt;Location: 2371983 - 2370769" locus_tag="ACHE_80821S" class="clusterblast-orf" id="dummy-5_h5_3_8"  />
</g>
<g id="a5_009"  >
<polygon points="184,90 195,90 200,85 195,80 184,80 184,90 " style="fill:white; stroke-width:1; stroke:black; " description="&lt;b&gt;ACHE_80820A&lt;/b&gt;&lt;br&gt;uncharacterized protein&lt;br&gt;Location: 2369313 - 2367525" locus_tag="ACHE_80820A" class="clusterblast-orf" id="dummy-5_h5_3_9"  />
</g>
<g id="a5_0010"  >
<polygon points="204,90 215,90 220,85 215,80 204,80 204,90 " style="fill:white; stroke-width:1; stroke:black; " description="&lt;b&gt;ACHE_80819A&lt;/b&gt;&lt;br&gt;uncharacterized protein&lt;br&gt;Location: 2367049 - 2365271" locus_tag="ACHE_80819A" class="clusterblast-orf" id="dummy-5_h5_3_10"  />
</g>
<g id="a5_0011"  >
<polygon points="239,85 244,80 263,80 263,90 244,90 239,85 " style="fill:white; stroke-width:1; stroke:black; " description="&lt;b&gt;ACHE_80818S&lt;/b&gt;&lt;br&gt;uncharacterized protein&lt;br&gt;Location: 2363127 - 2360442" locus_tag="ACHE_80818S" class="clusterblast-orf" id="dummy-5_h5_3_11"  />
</g>
<g id="a5_0012"  >
<polygon points="275,85 280,80 289,80 289,90 280,90 275,85 " style="fill:white; stroke-width:1; stroke:black; " description="&lt;b&gt;ACHE_80817S&lt;/b&gt;&lt;br&gt;uncharacterized protein&lt;br&gt;Location: 2359048 - 2357418" locus_tag="ACHE_80817S" class="clusterblast-orf" id="dummy-5_h5_3_12"  />
</g>
<g id="a5_0013"  >
<polygon points="293,85 298,80 307,80 307,90 298,90 293,85 " style="fill:white; stroke-width:1; stroke:black; " description="&lt;b&gt;ACHE_80816S&lt;/b&gt;&lt;br&gt;uncharacterized protein&lt;br&gt;Location: 2357005 - 2355421" locus_tag="ACHE_80816S" class="clusterblast-orf" id="dummy-5_h5_3_13"  />
</g>
<g id="a5_0014"  >
<polygon points="321,90 324,90 329,85 324,80 321,80 321,90 " style="fill:white; stroke-width:1; stroke:black; " description="&lt;b&gt;ACHE_80815A&lt;/b&gt;&lt;br&gt;uncharacterized protein&lt;br&gt;Location: 2353850 - 2352963" locus_tag="ACHE_80815A" class="clusterblast-orf" id="dummy-5_h5_3_14"  />
</g>
<g id="a5_0015"  >
<polygon points="329,85 334,80 334,80 334,90 334,90 329,85 " style="fill:white; stroke-width:1; stroke:black; " description="&lt;b&gt;ACHE_80814S&lt;/b&gt;&lt;br&gt;uncharacterized protein&lt;br&gt;Location: 2352928 - 2352381" locus_tag="ACHE_80814S" class="clusterblast-orf" id="dummy-5_h5_3_15"  />
</g>
<g id="a5_0016"  >
<polygon points="337,85 341,80 341,90 337,85 " style="fill:white; stroke-width:1; stroke:black; " description="&lt;b&gt;ACHE_80813S&lt;/b&gt;&lt;br&gt;uncharacterized protein&lt;br&gt;Location: 2352021 - 2351548" locus_tag="ACHE_80813S" class="clusterblast-orf" id="dummy-5_h5_3_16"  />
</g>
<g id="a5_0017"  >
<polygon points="364,90 367,85 364,80 364,90 " style="fill:white; stroke-width:1; stroke:black; " description="&lt;b&gt;ACHE_80812A&lt;/b&gt;&lt;br&gt;uncharacterized protein&lt;br&gt;Location: 2348933 - 2348640" locus_tag="ACHE_80812A" class="clusterblast-orf" id="dummy-5_h5_3_17"  />
</g>
<g id="a5_0018"  >
<polygon points="371,85 376,80 377,80 377,90 376,90 371,85 " style="fill:white; stroke-width:1; stroke:black; " description="&lt;b&gt;ACHE_80811S&lt;/b&gt;&lt;br&gt;uncharacterized protein&lt;br&gt;Location: 2348219 - 2347536" locus_tag="ACHE_80811S" class="clusterblast-orf" id="dummy-5_h5_3_18"  />
</g>
<g id="a5_0019"  >
<polygon points="383,90 387,90 392,85 387,80 383,80 383,90 " style="fill:white; stroke-width:1; stroke:black; " description="&lt;b&gt;ACHE_80810A&lt;/b&gt;&lt;br&gt;uncharacterized protein&lt;br&gt;Location: 2346818 - 2345772" locus_tag="ACHE_80810A" class="clusterblast-orf" id="dummy-5_h5_3_19"  />
</g>
<g id="a5_0020"  >
<polygon points="409,85 414,80 422,80 422,90 414,90 409,85 " style="fill:#d81515; stroke-width:1; stroke:black; " description="&lt;b&gt;ACHE_80809S&lt;/b&gt;&lt;br&gt;uncharacterized protein&lt;br&gt;Location: 2343881 - 2342382&lt;br&gt;&lt;br&gt;&lt;b&gt;BlastP hit with input.path1.gene1011&lt;/b&gt;&lt;br&gt;Percentage identity: 42&lt;br&gt;Percentage coverage: 91&lt;br&gt;BLAST bit score: 329&lt;br&gt;E-value: 4.49e-106" locus_tag="ACHE_80809S" class="clusterblast-orf" id="dummy-5_h5_3_20"  />
</g>
<g id="a5_0021"  >
<polygon points="426,90 485,90 490,85 485,80 426,80 426,90 " style="fill:#15d815; stroke-width:1; stroke:black; " description="&lt;b&gt;ACHE_80808A&lt;/b&gt;&lt;br&gt;uncharacterized protein&lt;br&gt;Location: 2341994 - 2334698&lt;br&gt;&lt;br&gt;&lt;b&gt;BlastP hit with input.path1.gene1012&lt;/b&gt;&lt;br&gt;Percentage identity: 48&lt;br&gt;Percentage coverage: 95&lt;br&gt;BLAST bit score: 1962&lt;br&gt;E-value: 0.0" locus_tag="ACHE_80808A" class="clusterblast-orf" id="dummy-5_h5_3_21"  />
</g>
<g id="a5_0022"  >
<polygon points="492,85 497,80 516,80 516,90 497,90 492,85 " style="fill:white; stroke-width:1; stroke:black; " description="&lt;b&gt;ACHE_80807S&lt;/b&gt;&lt;br&gt;uncharacterized protein&lt;br&gt;Location: 2334422 - 2331806" locus_tag="ACHE_80807S" class="clusterblast-orf" id="dummy-5_h5_3_22"  />
</g>
<g id="a5_0023"  >
<polygon points="534,90 538,90 543,85 538,80 534,80 534,90 " style="fill:white; stroke-width:1; stroke:black; " description="&lt;b&gt;ACHE_80806A&lt;/b&gt;&lt;br&gt;uncharacterized protein&lt;br&gt;Location: 2329675 - 2328664" locus_tag="ACHE_80806A" class="clusterblast-orf" id="dummy-5_h5_3_23"  />
</g>
<g id="a5_0024"  >
<polygon points="549,85 552,80 552,90 549,85 " style="fill:white; stroke-width:1; stroke:black; " description="&lt;b&gt;ACHE_80805S&lt;/b&gt;&lt;br&gt;uncharacterized protein&lt;br&gt;Location: 2328064 - 2327678" locus_tag="ACHE_80805S" class="clusterblast-orf" id="dummy-5_h5_3_24"  />
</g>
<g id="a5_0025"  >
<polygon points="553,90 556,90 561,85 556,80 553,80 553,90 " style="fill:white; stroke-width:1; stroke:black; " description="&lt;b&gt;ACHE_80804A&lt;/b&gt;&lt;br&gt;uncharacterized protein&lt;br&gt;Location: 2327547 - 2326663" locus_tag="ACHE_80804A" class="clusterblast-orf" id="dummy-5_h5_3_25"  />
</g>
<g id="a5_0026"  >
<polygon points="565,90 569,90 574,85 569,80 565,80 565,90 " style="fill:white; stroke-width:1; stroke:black; " description="&lt;b&gt;ACHE_80803A&lt;/b&gt;&lt;br&gt;uncharacterized protein&lt;br&gt;Location: 2326213 - 2325189" locus_tag="ACHE_80803A" class="clusterblast-orf" id="dummy-5_h5_3_26"  />
</g>
<g id="a5_0027"  >
<polygon points="575,85 580,80 592,80 592,90 580,90 575,85 " style="fill:white; stroke-width:1; stroke:black; " description="&lt;b&gt;ACHE_80801S&lt;/b&gt;&lt;br&gt;uncharacterized protein&lt;br&gt;Location: 2325101 - 2323109" locus_tag="ACHE_80801S" class="clusterblast-orf" id="dummy-5_h5_3_27"  />
</g>
<g id="a5_0028"  >
<polygon points="596,90 596,90 601,85 596,80 596,80 596,90 " style="fill:white; stroke-width:1; stroke:black; " description="&lt;b&gt;ACHE_80802A&lt;/b&gt;&lt;br&gt;uncharacterized protein&lt;br&gt;Location: 2322757 - 2322158" locus_tag="ACHE_80802A" class="clusterblast-orf" id="dummy-5_h5_3_28"  />
</g>
<g id="a5_0029"  >
<polygon points="605,90 612,90 617,85 612,80 605,80 605,90 " style="fill:white; stroke-width:1; stroke:black; " description="&lt;b&gt;ACHE_80800A&lt;/b&gt;&lt;br&gt;mitochondrial glycerol dehydrogenase Gld1&lt;br&gt;Location: 2321631 - 2320380" locus_tag="ACHE_80800A" class="clusterblast-orf" id="dummy-5_h5_3_29"  />
</g>
<g id="a5_0030"  >
<polygon points="619,90 624,90 629,85 624,80 619,80 619,90 " style="fill:white; stroke-width:1; stroke:black; " description="&lt;b&gt;ACHE_80799A&lt;/b&gt;&lt;br&gt;uncharacterized protein&lt;br&gt;Location: 2320145 - 2318965" locus_tag="ACHE_80799A" class="clusterblast-orf" id="dummy-5_h5_3_30"  />
</g>
<g id="a5_0031"  >
<polygon points="630,85 635,80 648,80 648,90 635,90 630,85 " style="fill:white; stroke-width:1; stroke:black; " description="&lt;b&gt;ACHE_80798S&lt;/b&gt;&lt;br&gt;tripeptidyl-peptidase Sed1&lt;br&gt;Location: 2318853 - 2316804" locus_tag="ACHE_80798S" class="clusterblast-orf" id="dummy-5_h5_3_31"  />
</g>
<g id="a5_0032"  >
<polygon points="667,85 672,80 686,80 686,90 672,90 667,85 " style="fill:white; stroke-width:1; stroke:black; " description="&lt;b&gt;ACHE_80797S&lt;/b&gt;&lt;br&gt;uncharacterized protein&lt;br&gt;Location: 2314678 - 2312549" locus_tag="ACHE_80797S" class="clusterblast-orf" id="dummy-5_h5_3_32"  />
</g>
<g id="a5_0033"  >
<polygon points="698,85 703,80 708,80 708,90 703,90 698,85 " style="fill:white; stroke-width:1; stroke:black; " description="&lt;b&gt;ACHE_80796S&lt;/b&gt;&lt;br&gt;uncharacterized protein&lt;br&gt;Location: 2311192 - 2310037" locus_tag="ACHE_80796S" class="clusterblast-orf" id="dummy-5_h5_3_33"  />
</g>
<g id="a5_0034"  >
<polygon points="714,90 731,90 736,85 731,80 714,80 714,90 " style="fill:white; stroke-width:1; stroke:black; " description="&lt;b&gt;ACHE_80794A&lt;/b&gt;&lt;br&gt;uncharacterized protein&lt;br&gt;Location: 2309355 - 2306839" locus_tag="ACHE_80794A" class="clusterblast-orf" id="dummy-5_h5_3_34"  />
</g>
<g id="a5_0035"  >
<polygon points="737,85 742,80 758,80 758,90 742,90 737,85 " style="fill:white; stroke-width:1; stroke:black; " description="&lt;b&gt;ACHE_80795S&lt;/b&gt;&lt;br&gt;uncharacterized protein&lt;br&gt;Location: 2306699 - 2304387" locus_tag="ACHE_80795S" class="clusterblast-orf" id="dummy-5_h5_3_35"  />
</g>
<g id="a5_0036"  >
<polygon points="771,85 776,80 780,80 780,90 776,90 771,85 " style="fill:white; stroke-width:1; stroke:black; " description="&lt;b&gt;ACHE_80793S&lt;/b&gt;&lt;br&gt;uncharacterized protein&lt;br&gt;Location: 2302871 - 2301925" locus_tag="ACHE_80793S" class="clusterblast-orf" id="dummy-5_h5_3_36"  />
</g>
</svg>
