<svg xmlns="http://www.w3.org/2000/svg" xmlns:xlink="http://www.w3.org/1999/xlink" version="1.1" x="0" y="0" height="230" width="800" viewBox="0 0 800 230" preserveAspectRatio="none"  >
<g label="Query sequence" class="clusterblast-cluster"  >
<text x="5" y="20" class="clusterblast-acc"  >
Query sequence</text>
<line x1="10" y1="35" x2="778.0" y2="35" style="stroke-width:1; stroke:grey; "  />
<polygon points="247,40 265,40 270,35 265,30 247,30 247,40 " style="fill:white; stroke-width:1; stroke:black; " description="&lt;b&gt;input.path1.gene1308&lt;/b&gt;&lt;br&gt;input.path1.gene1308&lt;br&gt;Location: 5123703 - 5125990" locus_tag="input.path1.gene1308" class="clusterblast-orf" id="dummy-7_q0_0_all"  />
<polygon points="272,35 275,30 275,40 272,35 " style="fill:white; stroke-width:1; stroke:black; " description="&lt;b&gt;input.path1.gene1309&lt;/b&gt;&lt;br&gt;input.path1.gene1309&lt;br&gt;Location: 5126181 - 5126488" locus_tag="input.path1.gene1309" class="clusterblast-orf" id="dummy-7_q1_0_all"  />
<polygon points="288,35 293,30 305,30 305,40 293,40 288,35 " style="fill:#d81515; stroke-width:1; stroke:black; " description="&lt;b&gt;input.path1.gene1310&lt;/b&gt;&lt;br&gt;input.path1.gene1310&lt;br&gt;Location: 5127761 - 5129490" locus_tag="input.path1.gene1310" class="clusterblast-orf" id="dummy-7_q2_0_all"  />
<polygon points="319,35 323,30 323,40 319,35 " style="fill:white; stroke-width:1; stroke:black; " description="&lt;b&gt;input.path1.gene1311&lt;/b&gt;&lt;br&gt;input.path1.gene1311&lt;br&gt;Location: 5130875 - 5131334" locus_tag="input.path1.gene1311" class="clusterblast-orf" id="dummy-7_q3_0_all"  />
<polygon points="342,40 380,40 385,35 380,30 342,30 342,40 " style="fill:#15d863; stroke-width:1; stroke:black; " description="&lt;b&gt;input.path1.gene1312&lt;/b&gt;&lt;br&gt;input.path1.gene1312&lt;br&gt;Location: 5133243 - 5137499" locus_tag="input.path1.gene1312" class="clusterblast-orf" id="dummy-7_q4_0_all"  />
<polygon points="385,35 390,30 407,30 407,40 390,40 385,35 " style="fill:#1563d8; stroke-width:1; stroke:black; " description="&lt;b&gt;input.path1.gene1313&lt;/b&gt;&lt;br&gt;input.path1.gene1313&lt;br&gt;Location: 5137545 - 5139716" locus_tag="input.path1.gene1313" class="clusterblast-orf" id="dummy-7_q5_0_all"  />
<polygon points="421,35 426,30 437,30 437,40 426,40 421,35 " style="fill:white; stroke-width:1; stroke:black; " description="&lt;b&gt;input.path1.gene1314&lt;/b&gt;&lt;br&gt;input.path1.gene1314&lt;br&gt;Location: 5141128 - 5142667" locus_tag="input.path1.gene1314" class="clusterblast-orf" id="dummy-7_q6_0_all"  />
<polygon points="483,35 488,30 499,30 499,40 488,40 483,35 " style="fill:#b115d8; stroke-width:1; stroke:black; " description="&lt;b&gt;input.path1.gene1315&lt;/b&gt;&lt;br&gt;input.path1.gene1315&lt;br&gt;Location: 5147295 - 5148933" locus_tag="input.path1.gene1315" class="clusterblast-orf" id="dummy-7_q7_0_all"  />
<polygon points="520,40 527,40 532,35 527,30 520,30 520,40 " style="fill:#b1d815; stroke-width:1; stroke:black; " description="&lt;b&gt;input.path1.gene1316&lt;/b&gt;&lt;br&gt;input.path1.gene1316&lt;br&gt;Location: 5150993 - 5152209" locus_tag="input.path1.gene1316" class="clusterblast-orf" id="dummy-7_q8_0_all"  />
</g>
<g label="NZ_NDXL01000001" description="NZ_NDXL01000001 (4615806-4695188): Streptomyces kasugaensis strain BCRC 12349... (6% of genes show similarity), NAPAA,NRPS" class="clusterblast-cluster"  >
<text x="5" y="70" class="clusterblast-acc"  >
<a xlink:href="https://antismash-db.secondarymetabolites.org/area?record=NZ_NDXL01000001&amp;start=4615806&amp;end=4695188" target="_blank">NZ_NDXL01000001 (4615806-4695188)</a>: Streptomyces kasugaensis strain BCRC 12349... (6% of genes show similarity), NAPAA,NRPS</text>
<line x1="10" y1="85" x2="778.0" y2="85" style="stroke-width:1; stroke:grey; "  />
</g>
<g id="a7_000"  >
<polygon points="0,90 13,90 18,85 13,80 0,80 0,90 " style="fill:white; stroke-width:1; stroke:black; " description="&lt;b&gt;B7024_RS19785&lt;/b&gt;&lt;br&gt;HAMP domain-containing histidine kinase&lt;br&gt;Location: 4616546 - 4618432" locus_tag="B7024_RS19785" class="clusterblast-orf" id="dummy-7_h7_6_0"  />
</g>
<g id="a7_001"  >
<polygon points="20,90 23,90 28,85 23,80 20,80 20,90 " style="fill:white; stroke-width:1; stroke:black; " description="&lt;b&gt;B7024_RS19790&lt;/b&gt;&lt;br&gt;Pr6Pr family membrane protein&lt;br&gt;Location: 4618627 - 4619418" locus_tag="B7024_RS19790" class="clusterblast-orf" id="dummy-7_h7_6_1"  />
</g>
<g id="a7_002"  >
<polygon points="32,90 34,90 39,85 34,80 32,80 32,90 " style="fill:white; stroke-width:1; stroke:black; " description="&lt;b&gt;B7024_RS19795&lt;/b&gt;&lt;br&gt;HdeD family acid-resistance protein&lt;br&gt;Location: 4619828 - 4620502" locus_tag="B7024_RS19795" class="clusterblast-orf" id="dummy-7_h7_6_2"  />
</g>
<g id="a7_003"  >
<polygon points="40,85 45,80 56,80 56,90 45,90 40,85 " style="fill:white; stroke-width:1; stroke:black; " description="&lt;b&gt;B7024_RS19800&lt;/b&gt;&lt;br&gt;ATP-binding cassette domain-containing protein&lt;br&gt;Location: 4620562 - 4622196" locus_tag="B7024_RS19800" class="clusterblast-orf" id="dummy-7_h7_6_3"  />
</g>
<g id="a7_004"  >
<polygon points="60,90 89,90 94,85 89,80 60,80 60,90 " style="fill:white; stroke-width:1; stroke:black; " description="&lt;b&gt;B7024_RS19805&lt;/b&gt;&lt;br&gt;AAA family ATPase&lt;br&gt;Location: 4622588 - 4625992" locus_tag="B7024_RS19805" class="clusterblast-orf" id="dummy-7_h7_6_4"  />
</g>
<g id="a7_005"  >
<polygon points="95,85 98,80 98,90 95,85 " style="fill:white; stroke-width:1; stroke:black; " description="&lt;b&gt;B7024_RS19810&lt;/b&gt;&lt;br&gt;cupin domain-containing protein&lt;br&gt;Location: 4626043 - 4626432" locus_tag="B7024_RS19810" class="clusterblast-orf" id="dummy-7_h7_6_5"  />
</g>
<g id="a7_006"  >
<polygon points="99,85 104,80 110,80 110,90 104,90 99,85 " style="fill:white; stroke-width:1; stroke:black; " description="&lt;b&gt;B7024_RS19815&lt;/b&gt;&lt;br&gt;2Fe-2S iron-sulfur cluster binding domain-containing protein&lt;br&gt;Location: 4626526 - 4627626" locus_tag="B7024_RS19815" class="clusterblast-orf" id="dummy-7_h7_6_6"  />
</g>
<g id="a7_007"  >
<polygon points="110,85 115,80 127,80 127,90 115,90 110,85 " style="fill:white; stroke-width:1; stroke:black; " description="&lt;b&gt;B7024_RS19820&lt;/b&gt;&lt;br&gt;hydroxylamine reductase&lt;br&gt;Location: 4627623 - 4629287" locus_tag="B7024_RS19820" class="clusterblast-orf" id="dummy-7_h7_6_7"  />
</g>
<g id="a7_008"  >
<polygon points="128,90 130,90 135,85 130,80 128,80 128,90 " style="fill:white; stroke-width:1; stroke:black; " description="&lt;b&gt;B7024_RS19825&lt;/b&gt;&lt;br&gt;Crp/Fnr family transcriptional regulator&lt;br&gt;Location: 4629434 - 4630129" locus_tag="B7024_RS19825" class="clusterblast-orf" id="dummy-7_h7_6_8"  />
</g>
<g id="a7_009"  >
<polygon points="137,85 142,80 145,80 145,90 142,90 137,85 " style="fill:white; stroke-width:1; stroke:black; " description="&lt;b&gt;B7024_RS19830&lt;/b&gt;&lt;br&gt;alpha/beta fold hydrolase&lt;br&gt;Location: 4630315 - 4631064" locus_tag="B7024_RS19830" class="clusterblast-orf" id="dummy-7_h7_6_9"  />
</g>
<g id="a7_0010"  >
<polygon points="148,90 151,90 156,85 151,80 148,80 148,90 " style="fill:white; stroke-width:1; stroke:black; " description="&lt;b&gt;B7024_RS19835&lt;/b&gt;&lt;br&gt;hypothetical protein&lt;br&gt;Location: 4631365 - 4632156" locus_tag="B7024_RS19835" class="clusterblast-orf" id="dummy-7_h7_6_10"  />
</g>
<g id="a7_0011"  >
<polygon points="157,85 162,80 166,80 166,90 162,90 157,85 " style="fill:white; stroke-width:1; stroke:black; " description="&lt;b&gt;B7024_RS19840&lt;/b&gt;&lt;br&gt;TauD/TfdA family dioxygenase&lt;br&gt;Location: 4632313 - 4633188" locus_tag="B7024_RS19840" class="clusterblast-orf" id="dummy-7_h7_6_11"  />
</g>
<g id="a7_0012"  >
<polygon points="167,85 172,80 174,80 174,90 172,90 167,85 " style="fill:white; stroke-width:1; stroke:black; " description="&lt;b&gt;B7024_RS19845&lt;/b&gt;&lt;br&gt;hypothetical protein&lt;br&gt;Location: 4633286 - 4633987" locus_tag="B7024_RS19845" class="clusterblast-orf" id="dummy-7_h7_6_12"  />
</g>
<g id="a7_0013"  >
<polygon points="174,85 179,80 184,80 184,90 179,90 174,85 " style="fill:white; stroke-width:1; stroke:black; " description="&lt;b&gt;B7024_RS19850&lt;/b&gt;&lt;br&gt;GSCFA domain-containing protein&lt;br&gt;Location: 4633950 - 4634993" locus_tag="B7024_RS19850" class="clusterblast-orf" id="dummy-7_h7_6_13"  />
</g>
<g id="a7_0014"  >
<polygon points="184,85 189,80 192,80 192,90 189,90 184,85 " style="fill:white; stroke-width:1; stroke:black; " description="&lt;b&gt;B7024_RS19855&lt;/b&gt;&lt;br&gt;alpha/beta fold hydrolase&lt;br&gt;Location: 4635012 - 4635779" locus_tag="B7024_RS19855" class="clusterblast-orf" id="dummy-7_h7_6_14"  />
</g>
<g id="a7_0015"  >
<polygon points="192,85 197,80 284,80 284,90 197,90 192,85 " style="fill:white; stroke-width:1; stroke:black; " description="&lt;b&gt;B7024_RS19860&lt;/b&gt;&lt;br&gt;non-ribosomal peptide synthetase&lt;br&gt;Location: 4635807 - 4645007" locus_tag="B7024_RS19860" class="clusterblast-orf" id="dummy-7_h7_6_15"  />
</g>
<g id="a7_0016"  >
<polygon points="284,85 289,80 325,80 325,90 289,90 284,85 " style="fill:white; stroke-width:1; stroke:black; " description="&lt;b&gt;B7024_RS19865&lt;/b&gt;&lt;br&gt;non-ribosomal peptide synthetase&lt;br&gt;Location: 4645004 - 4649122" locus_tag="B7024_RS19865" class="clusterblast-orf" id="dummy-7_h7_6_16"  />
</g>
<g id="a7_0017"  >
<polygon points="325,85 330,80 398,80 398,90 330,90 325,85 " style="fill:white; stroke-width:1; stroke:black; " description="&lt;b&gt;B7024_RS19870&lt;/b&gt;&lt;br&gt;non-ribosomal peptide synthetase&lt;br&gt;Location: 4649119 - 4656372" locus_tag="B7024_RS19870" class="clusterblast-orf" id="dummy-7_h7_6_17"  />
</g>
<g id="a7_0018"  >
<polygon points="409,90 434,90 439,85 434,80 409,80 409,90 " style="fill:#15d863; stroke-width:1; stroke:black; " description="&lt;b&gt;B7024_RS19875&lt;/b&gt;&lt;br&gt;non-ribosomal peptide synthetase&lt;br&gt;Location: 4657437 - 4660445&lt;br&gt;&lt;br&gt;&lt;b&gt;BlastP hit with input.path1.gene1312&lt;/b&gt;&lt;br&gt;Percentage identity: 36&lt;br&gt;Percentage coverage: 42&lt;br&gt;BLAST bit score: 271&lt;br&gt;E-value: 4.77e-73" locus_tag="B7024_RS19875" class="clusterblast-orf" id="dummy-7_h7_6_18"  />
</g>
<g id="a7_0019"  >
<polygon points="439,85 441,80 441,90 439,85 " style="fill:white; stroke-width:1; stroke:black; " description="&lt;b&gt;B7024_RS19880&lt;/b&gt;&lt;br&gt;MbtH family protein&lt;br&gt;Location: 4660479 - 4660691" locus_tag="B7024_RS19880" class="clusterblast-orf" id="dummy-7_h7_6_19"  />
</g>
<g id="a7_0020"  >
<polygon points="442,85 447,80 465,80 465,90 447,90 442,85 " style="fill:white; stroke-width:1; stroke:black; " description="&lt;b&gt;B7024_RS19885&lt;/b&gt;&lt;br&gt;murein biosynthesis integral membrane protein MurJ&lt;br&gt;Location: 4660800 - 4663070" locus_tag="B7024_RS19885" class="clusterblast-orf" id="dummy-7_h7_6_20"  />
</g>
<g id="a7_0021"  >
<polygon points="467,85 472,80 478,80 478,90 472,90 467,85 " style="fill:white; stroke-width:1; stroke:black; " description="&lt;b&gt;B7024_RS19890&lt;/b&gt;&lt;br&gt;chitinase&lt;br&gt;Location: 4663275 - 4664333" locus_tag="B7024_RS19890" class="clusterblast-orf" id="dummy-7_h7_6_21"  />
</g>
<g id="a7_0022"  >
<polygon points="484,85 489,80 505,80 505,90 489,90 484,85 " style="fill:white; stroke-width:1; stroke:black; " description="&lt;b&gt;B7024_RS19895&lt;/b&gt;&lt;br&gt;hypothetical protein&lt;br&gt;Location: 4664927 - 4667077" locus_tag="B7024_RS19895" class="clusterblast-orf" id="dummy-7_h7_6_22"  />
</g>
<g id="a7_0023"  >
<polygon points="513,90 517,85 513,80 513,90 " style="fill:white; stroke-width:1; stroke:black; " description="&lt;b&gt;B7024_RS19900&lt;/b&gt;&lt;br&gt;ASCH domain-containing protein&lt;br&gt;Location: 4667861 - 4668292" locus_tag="B7024_RS19900" class="clusterblast-orf" id="dummy-7_h7_6_23"  />
</g>
<g id="a7_0024"  >
<polygon points="519,85 524,80 526,80 526,90 524,90 519,85 " style="fill:white; stroke-width:1; stroke:black; " description="&lt;b&gt;B7024_RS19905&lt;/b&gt;&lt;br&gt;HAD family phosphatase&lt;br&gt;Location: 4668483 - 4669139" locus_tag="B7024_RS19905" class="clusterblast-orf" id="dummy-7_h7_6_24"  />
</g>
<g id="a7_0025"  >
<polygon points="527,85 531,80 531,90 527,85 " style="fill:white; stroke-width:1; stroke:black; " description="&lt;b&gt;B7024_RS19910&lt;/b&gt;&lt;br&gt;Lrp/AsnC family transcriptional regulator&lt;br&gt;Location: 4669231 - 4669710" locus_tag="B7024_RS19910" class="clusterblast-orf" id="dummy-7_h7_6_25"  />
</g>
<g id="a7_0026"  >
<polygon points="535,85 539,80 539,90 535,85 " style="fill:white; stroke-width:1; stroke:black; " description="&lt;b&gt;B7024_RS19915&lt;/b&gt;&lt;br&gt;CBS domain-containing protein&lt;br&gt;Location: 4670080 - 4670499" locus_tag="B7024_RS19915" class="clusterblast-orf" id="dummy-7_h7_6_26"  />
</g>
<g id="a7_0027"  >
<polygon points="543,90 548,90 553,85 548,80 543,80 543,90 " style="fill:white; stroke-width:1; stroke:black; " description="&lt;b&gt;B7024_RS19920&lt;/b&gt;&lt;br&gt;dihydroxyacetone kinase subunit DhaK&lt;br&gt;Location: 4670878 - 4671876" locus_tag="B7024_RS19920" class="clusterblast-orf" id="dummy-7_h7_6_27"  />
</g>
<g id="a7_0028"  >
<polygon points="553,90 555,90 560,85 555,80 553,80 553,90 " style="fill:white; stroke-width:1; stroke:black; " description="&lt;b&gt;B7024_RS19925&lt;/b&gt;&lt;br&gt;dihydroxyacetone kinase subunit DhaL&lt;br&gt;Location: 4671905 - 4672606" locus_tag="B7024_RS19925" class="clusterblast-orf" id="dummy-7_h7_6_28"  />
</g>
<g id="a7_0029"  >
<polygon points="562,90 568,90 573,85 568,80 562,80 562,90 " style="fill:white; stroke-width:1; stroke:black; " description="&lt;b&gt;B7024_RS19930&lt;/b&gt;&lt;br&gt;YbhN family protein&lt;br&gt;Location: 4672767 - 4673840" locus_tag="B7024_RS19930" class="clusterblast-orf" id="dummy-7_h7_6_29"  />
</g>
<g id="a7_0030"  >
<polygon points="575,90 580,90 585,85 580,80 575,80 575,90 " style="fill:white; stroke-width:1; stroke:black; " description="&lt;b&gt;B7024_RS19935&lt;/b&gt;&lt;br&gt;zinc-binding alcohol dehydrogenase family protein&lt;br&gt;Location: 4674073 - 4675101" locus_tag="B7024_RS19935" class="clusterblast-orf" id="dummy-7_h7_6_30"  />
</g>
<g id="a7_0031"  >
<polygon points="588,85 593,80 595,80 595,90 593,90 588,85 " style="fill:#d81515; stroke-width:1; stroke:black; " description="&lt;b&gt;B7024_RS19940&lt;/b&gt;&lt;br&gt;BPL-N domain-containing protein&lt;br&gt;Location: 4675324 - 4676055&lt;br&gt;&lt;br&gt;&lt;b&gt;BlastP hit with input.path1.gene1310&lt;/b&gt;&lt;br&gt;Percentage identity: 37&lt;br&gt;Percentage coverage: 94&lt;br&gt;BLAST bit score: 121&lt;br&gt;E-value: 1.34e-31" locus_tag="B7024_RS19940" class="clusterblast-orf" id="dummy-7_h7_6_31"  />
</g>
<g id="a7_0032"  >
<polygon points="596,85 601,80 636,80 636,90 601,90 596,85 " style="fill:#15d863; stroke-width:1; stroke:black; " description="&lt;b&gt;B7024_RS19945&lt;/b&gt;&lt;br&gt;amino acid adenylation domain-containing protein&lt;br&gt;Location: 4676202 - 4680188&lt;br&gt;&lt;br&gt;&lt;b&gt;BlastP hit with input.path1.gene1312&lt;/b&gt;&lt;br&gt;Percentage identity: 31&lt;br&gt;Percentage coverage: 101&lt;br&gt;BLAST bit score: 458&lt;br&gt;E-value: 1.04e-136" locus_tag="B7024_RS19945" class="clusterblast-orf" id="dummy-7_h7_6_32"  />
</g>
<g id="a7_0033"  >
<polygon points="640,90 644,85 640,80 640,90 " style="fill:white; stroke-width:1; stroke:black; " description="&lt;b&gt;B7024_RS19950&lt;/b&gt;&lt;br&gt;cold shock domain-containing protein&lt;br&gt;Location: 4680545 - 4680979" locus_tag="B7024_RS19950" class="clusterblast-orf" id="dummy-7_h7_6_33"  />
</g>
<g id="a7_0034"  >
<polygon points="648,85 653,80 661,80 661,90 653,90 648,85 " style="fill:white; stroke-width:1; stroke:black; " description="&lt;b&gt;B7024_RS19955&lt;/b&gt;&lt;br&gt;MFS transporter&lt;br&gt;Location: 4681398 - 4682624" locus_tag="B7024_RS19955" class="clusterblast-orf" id="dummy-7_h7_6_34"  />
</g>
<g id="a7_0035"  >
<polygon points="662,85 667,80 672,80 672,90 667,90 662,85 " style="fill:white; stroke-width:1; stroke:black; " description="&lt;b&gt;B7024_RS19960&lt;/b&gt;&lt;br&gt;hypothetical protein&lt;br&gt;Location: 4682721 - 4683794" locus_tag="B7024_RS19960" class="clusterblast-orf" id="dummy-7_h7_6_35"  />
</g>
<g id="a7_0036"  >
<polygon points="674,85 679,80 685,80 685,90 679,90 674,85 " style="fill:white; stroke-width:1; stroke:black; " description="&lt;b&gt;B7024_RS19965&lt;/b&gt;&lt;br&gt;cupin-like domain-containing protein&lt;br&gt;Location: 4683930 - 4685117" locus_tag="B7024_RS19965" class="clusterblast-orf" id="dummy-7_h7_6_36"  />
</g>
<g id="a7_0037"  >
<polygon points="686,85 688,80 688,90 686,85 " style="fill:white; stroke-width:1; stroke:black; " description="&lt;b&gt;B7024_RS41455&lt;/b&gt;&lt;br&gt;hypothetical protein&lt;br&gt;Location: 4685201 - 4685341" locus_tag="B7024_RS41455" class="clusterblast-orf" id="dummy-7_h7_6_37"  />
</g>
<g id="a7_0038"  >
<polygon points="689,85 691,80 691,90 689,85 " style="fill:white; stroke-width:1; stroke:black; " description="&lt;b&gt;B7024_RS42550&lt;/b&gt;&lt;br&gt;IS5/IS1182 family transposase&lt;br&gt;Location: 4685508 - 4685664" locus_tag="B7024_RS42550" class="clusterblast-orf" id="dummy-7_h7_6_38"  />
</g>
<g id="a7_0039"  >
<polygon points="695,85 700,80 723,80 723,90 700,90 695,85 " style="fill:white; stroke-width:1; stroke:black; " description="&lt;b&gt;B7024_RS19970&lt;/b&gt;&lt;br&gt;helix-turn-helix transcriptional regulator&lt;br&gt;Location: 4686051 - 4688834" locus_tag="B7024_RS19970" class="clusterblast-orf" id="dummy-7_h7_6_39"  />
</g>
<g id="a7_0040"  >
<polygon points="725,90 729,90 734,85 729,80 725,80 725,90 " style="fill:white; stroke-width:1; stroke:black; " description="&lt;b&gt;B7024_RS19975&lt;/b&gt;&lt;br&gt;MBL fold metallo-hydrolase&lt;br&gt;Location: 4689025 - 4689939" locus_tag="B7024_RS19975" class="clusterblast-orf" id="dummy-7_h7_6_40"  />
</g>
<g id="a7_0041"  >
<polygon points="734,90 744,90 749,85 744,80 734,80 734,90 " style="fill:white; stroke-width:1; stroke:black; " description="&lt;b&gt;B7024_RS19980&lt;/b&gt;&lt;br&gt;carboxylesterase family protein&lt;br&gt;Location: 4689961 - 4691451" locus_tag="B7024_RS19980" class="clusterblast-orf" id="dummy-7_h7_6_41"  />
</g>
<g id="a7_0042"  >
<polygon points="750,85 751,80 751,90 750,85 " style="fill:white; stroke-width:1; stroke:black; " description="&lt;b&gt;B7024_RS42555&lt;/b&gt;&lt;br&gt;precorrin-6A synthase (deacetylating)&lt;br&gt;Location: 4691519 - 4691620" locus_tag="B7024_RS42555" class="clusterblast-orf" id="dummy-7_h7_6_42"  />
</g>
<g id="a7_0043"  >
<polygon points="752,85 757,80 760,80 760,90 757,90 752,85 " style="fill:white; stroke-width:1; stroke:black; " description="&lt;b&gt;B7024_RS19990&lt;/b&gt;&lt;br&gt;enoyl-CoA hydratase&lt;br&gt;Location: 4691730 - 4692515" locus_tag="B7024_RS19990" class="clusterblast-orf" id="dummy-7_h7_6_43"  />
</g>
<g id="a7_0044"  >
<polygon points="759,85 764,80 768,80 768,90 764,90 759,85 " style="fill:white; stroke-width:1; stroke:black; " description="&lt;b&gt;B7024_RS19995&lt;/b&gt;&lt;br&gt;3-hydroxyisobutyrate dehydrogenase&lt;br&gt;Location: 4692512 - 4693387" locus_tag="B7024_RS19995" class="clusterblast-orf" id="dummy-7_h7_6_44"  />
</g>
<g id="a7_0045"  >
<polygon points="769,85 774,80 780,80 780,90 774,90 769,85 " style="fill:white; stroke-width:1; stroke:black; " description="&lt;b&gt;B7024_RS20000&lt;/b&gt;&lt;br&gt;enoyl-CoA hydratase/isomerase family protein&lt;br&gt;Location: 4693429 - 4694514" locus_tag="B7024_RS20000" class="clusterblast-orf" id="dummy-7_h7_6_45"  />
</g>
</svg>
