<svg xmlns="http://www.w3.org/2000/svg" xmlns:xlink="http://www.w3.org/1999/xlink" version="1.1" x="0" y="0" height="230" width="800" viewBox="0 0 800 230" preserveAspectRatio="none"  >
<g label="Query sequence" class="clusterblast-cluster"  >
<text x="5" y="20" class="clusterblast-acc"  >
Query sequence</text>
<line x1="10" y1="35" x2="778.0" y2="35" style="stroke-width:1; stroke:grey; "  />
<polygon points="247,35 252,30 255,30 255,40 252,40 247,35 " style="fill:#d81515; stroke-width:1; stroke:black; " description="&lt;b&gt;input.path1.gene15&lt;/b&gt;&lt;br&gt;input.path1.gene15&lt;br&gt;Location: 146441 - 147611" locus_tag="input.path1.gene15" class="clusterblast-orf" id="dummy-1_q0_0_all"  />
<polygon points="261,35 266,30 270,30 270,40 266,40 261,35 " style="fill:#15d815; stroke-width:1; stroke:black; " description="&lt;b&gt;input.path1.gene16&lt;/b&gt;&lt;br&gt;input.path1.gene16&lt;br&gt;Location: 148516 - 149699" locus_tag="input.path1.gene16" class="clusterblast-orf" id="dummy-1_q1_0_all"  />
<polygon points="273,40 275,40 280,35 275,30 273,30 273,40 " style="fill:#1597d8; stroke-width:1; stroke:black; " description="&lt;b&gt;input.path1.gene17&lt;/b&gt;&lt;br&gt;input.path1.gene17&lt;br&gt;Location: 150179 - 151160" locus_tag="input.path1.gene17" class="clusterblast-orf" id="dummy-1_q2_0_all"  />
<polygon points="288,40 291,35 288,30 288,40 " style="fill:white; stroke-width:1; stroke:black; " description="&lt;b&gt;input.path1.gene18&lt;/b&gt;&lt;br&gt;input.path1.gene18&lt;br&gt;Location: 152222 - 152710" locus_tag="input.path1.gene18" class="clusterblast-orf" id="dummy-1_q3_0_all"  />
<polygon points="299,40 299,40 304,35 299,30 299,30 299,40 " style="fill:white; stroke-width:1; stroke:black; " description="&lt;b&gt;input.path1.gene19&lt;/b&gt;&lt;br&gt;input.path1.gene19&lt;br&gt;Location: 153770 - 154436" locus_tag="input.path1.gene19" class="clusterblast-orf" id="dummy-1_q4_0_all"  />
<polygon points="324,35 329,30 336,30 336,40 329,40 324,35 " style="fill:#9715d8; stroke-width:1; stroke:black; " description="&lt;b&gt;input.path1.gene20&lt;/b&gt;&lt;br&gt;input.path1.gene20&lt;br&gt;Location: 157320 - 158999" locus_tag="input.path1.gene20" class="clusterblast-orf" id="dummy-1_q5_0_all"  />
<polygon points="344,40 407,40 412,35 407,30 344,30 344,40 " style="fill:#d89715; stroke-width:1; stroke:black; " description="&lt;b&gt;input.path1.gene21&lt;/b&gt;&lt;br&gt;input.path1.gene21&lt;br&gt;Location: 160127 - 169565" locus_tag="input.path1.gene21" class="clusterblast-orf" id="dummy-1_q6_0_all"  />
<polygon points="425,40 428,40 433,35 428,30 425,30 425,40 " style="fill:#15d897; stroke-width:1; stroke:black; " description="&lt;b&gt;input.path1.gene22&lt;/b&gt;&lt;br&gt;input.path1.gene22&lt;br&gt;Location: 171487 - 172633" locus_tag="input.path1.gene22" class="clusterblast-orf" id="dummy-1_q7_0_all"  />
<polygon points="435,35 440,30 451,30 451,40 440,40 435,35 " style="fill:#1515d8; stroke-width:1; stroke:black; " description="&lt;b&gt;input.path1.gene23&lt;/b&gt;&lt;br&gt;input.path1.gene23&lt;br&gt;Location: 172842 - 175033" locus_tag="input.path1.gene23" class="clusterblast-orf" id="dummy-1_q8_0_all"  />
<polygon points="458,35 459,30 459,40 458,35 " style="fill:white; stroke-width:1; stroke:black; " description="&lt;b&gt;input.path1.gene24&lt;/b&gt;&lt;br&gt;input.path1.gene24&lt;br&gt;Location: 176059 - 176164" locus_tag="input.path1.gene24" class="clusterblast-orf" id="dummy-1_q9_0_all"  />
<polygon points="477,40 481,40 486,35 481,30 477,30 477,40 " style="fill:#d81597; stroke-width:1; stroke:black; " description="&lt;b&gt;input.path1.gene25&lt;/b&gt;&lt;br&gt;input.path1.gene25&lt;br&gt;Location: 178767 - 179970" locus_tag="input.path1.gene25" class="clusterblast-orf" id="dummy-1_q10_0_all"  />
<polygon points="492,40 503,40 508,35 503,30 492,30 492,40 " style="fill:#97d815; stroke-width:1; stroke:black; " description="&lt;b&gt;input.path1.gene26&lt;/b&gt;&lt;br&gt;input.path1.gene26&lt;br&gt;Location: 180835 - 183092" locus_tag="input.path1.gene26" class="clusterblast-orf" id="dummy-1_q11_0_all"  />
<polygon points="523,40 528,40 533,35 528,30 523,30 523,40 " style="fill:#15d897; stroke-width:1; stroke:black; " description="&lt;b&gt;input.path1.gene27&lt;/b&gt;&lt;br&gt;input.path1.gene27&lt;br&gt;Location: 185215 - 186525" locus_tag="input.path1.gene27" class="clusterblast-orf" id="dummy-1_q12_0_all"  />
</g>
<g label="NW_024468919" description="NW_024468919 (637636-749466): Cryphonectria parasitica EP155 unplaced genomic... (10% of genes show similarity), NRPS-like,T1PKS,fungal-RiPP-like" class="clusterblast-cluster"  >
<text x="5" y="70" class="clusterblast-acc"  >
<a xlink:href="https://antismash-db.secondarymetabolites.org/area?record=NW_024468919&amp;start=637636&amp;end=749466" target="_blank">NW_024468919 (637636-749466)</a>: Cryphonectria parasitica EP155 unplaced genomic... (10% of genes show similarity), NRPS-like,T1PKS,fungal-RiPP-like</text>
<line x1="10" y1="85" x2="778.0" y2="85" style="stroke-width:1; stroke:grey; "  />
</g>
<g id="a1_000"  >
<polygon points="0,85 5,80 10,80 10,90 5,90 0,85 " style="fill:white; stroke-width:1; stroke:black; " description="&lt;b&gt;M406DRAFT_270117&lt;/b&gt;&lt;br&gt;mitochondrial carrier&lt;br&gt;Location: 747855 - 746448" locus_tag="M406DRAFT_270117" class="clusterblast-orf" id="dummy-1_h1_5_0"  />
</g>
<g id="a1_001"  >
<polygon points="35,90 35,90 40,85 35,80 35,80 35,90 " style="fill:white; stroke-width:1; stroke:black; " description="&lt;b&gt;M406DRAFT_335266&lt;/b&gt;&lt;br&gt;uncharacterized protein&lt;br&gt;Location: 742886 - 742196" locus_tag="M406DRAFT_335266" class="clusterblast-orf" id="dummy-1_h1_5_1"  />
</g>
<g id="a1_002"  >
<polygon points="56,85 61,80 69,80 69,90 61,90 56,85 " style="fill:white; stroke-width:1; stroke:black; " description="&lt;b&gt;M406DRAFT_270108&lt;/b&gt;&lt;br&gt;uncharacterized protein&lt;br&gt;Location: 739889 - 738104" locus_tag="M406DRAFT_270108" class="clusterblast-orf" id="dummy-1_h1_5_2"  />
</g>
<g id="a1_003"  >
<polygon points="95,85 100,80 100,80 100,90 100,90 95,85 " style="fill:white; stroke-width:1; stroke:black; " description="&lt;b&gt;M406DRAFT_109188&lt;/b&gt;&lt;br&gt;uncharacterized protein&lt;br&gt;Location: 734500 - 733738" locus_tag="M406DRAFT_109188" class="clusterblast-orf" id="dummy-1_h1_5_3"  />
</g>
<g id="a1_004"  >
<polygon points="104,90 112,90 117,85 112,80 104,80 104,90 " style="fill:white; stroke-width:1; stroke:black; " description="&lt;b&gt;M406DRAFT_297385&lt;/b&gt;&lt;br&gt;cysteine proteinase&lt;br&gt;Location: 733228 - 731364" locus_tag="M406DRAFT_297385" class="clusterblast-orf" id="dummy-1_h1_5_4"  />
</g>
<g id="a1_005"  >
<polygon points="130,90 139,90 144,85 139,80 130,80 130,90 " style="fill:white; stroke-width:1; stroke:black; " description="&lt;b&gt;M406DRAFT_51727&lt;/b&gt;&lt;br&gt;uncharacterized protein&lt;br&gt;Location: 729607 - 727576" locus_tag="M406DRAFT_51727" class="clusterblast-orf" id="dummy-1_h1_5_5"  />
</g>
<g id="a1_006"  >
<polygon points="160,90 161,90 166,85 161,80 160,80 160,90 " style="fill:white; stroke-width:1; stroke:black; " description="&lt;b&gt;M406DRAFT_240277&lt;/b&gt;&lt;br&gt;uncharacterized protein&lt;br&gt;Location: 725313 - 724465" locus_tag="M406DRAFT_240277" class="clusterblast-orf" id="dummy-1_h1_5_6"  />
</g>
<g id="a1_007"  >
<polygon points="181,90 185,90 190,85 185,80 181,80 181,90 " style="fill:white; stroke-width:1; stroke:black; " description="&lt;b&gt;M406DRAFT_100163&lt;/b&gt;&lt;br&gt;putative Atg3&lt;br&gt;Location: 722427 - 721176" locus_tag="M406DRAFT_100163" class="clusterblast-orf" id="dummy-1_h1_5_7"  />
</g>
<g id="a1_008"  >
<polygon points="202,85 207,80 253,80 253,90 207,90 202,85 " style="fill:white; stroke-width:1; stroke:black; " description="&lt;b&gt;M406DRAFT_109185&lt;/b&gt;&lt;br&gt;uncharacterized protein&lt;br&gt;Location: 719466 - 712325" locus_tag="M406DRAFT_109185" class="clusterblast-orf" id="dummy-1_h1_5_8"  />
</g>
<g id="a1_009"  >
<polygon points="276,90 324,90 329,85 324,80 276,80 276,90 " style="fill:#d89715; stroke-width:1; stroke:black; " description="&lt;b&gt;M406DRAFT_95656&lt;/b&gt;&lt;br&gt;uncharacterized protein&lt;br&gt;Location: 709122 - 701731&lt;br&gt;&lt;br&gt;&lt;b&gt;BlastP hit with input.path1.gene21&lt;/b&gt;&lt;br&gt;Percentage identity: 31&lt;br&gt;Percentage coverage: 99&lt;br&gt;BLAST bit score: 1136&lt;br&gt;E-value: 0.0" locus_tag="M406DRAFT_95656" class="clusterblast-orf" id="dummy-1_h1_5_9"  />
</g>
<g id="a1_0010"  >
<polygon points="336,90 338,85 336,80 336,90 " style="fill:white; stroke-width:1; stroke:black; " description="&lt;b&gt;M406DRAFT_51942&lt;/b&gt;&lt;br&gt;uncharacterized protein&lt;br&gt;Location: 700774 - 700367" locus_tag="M406DRAFT_51942" class="clusterblast-orf" id="dummy-1_h1_5_10"  />
</g>
<g id="a1_0011"  >
<polygon points="346,85 351,80 354,80 354,90 351,90 346,85 " style="fill:#15d815; stroke-width:1; stroke:black; " description="&lt;b&gt;M406DRAFT_269961&lt;/b&gt;&lt;br&gt;Aldo/keto reductase&lt;br&gt;Location: 699356 - 698205&lt;br&gt;&lt;br&gt;&lt;b&gt;BlastP hit with input.path1.gene16&lt;/b&gt;&lt;br&gt;Percentage identity: 37&lt;br&gt;Percentage coverage: 87&lt;br&gt;BLAST bit score: 186&lt;br&gt;E-value: 2.5e-54" locus_tag="M406DRAFT_269961" class="clusterblast-orf" id="dummy-1_h1_5_11"  />
</g>
<g id="a1_0012"  >
<polygon points="362,85 367,80 385,80 385,90 367,90 362,85 " style="fill:white; stroke-width:1; stroke:black; " description="&lt;b&gt;M406DRAFT_270014&lt;/b&gt;&lt;br&gt;uncharacterized protein&lt;br&gt;Location: 697090 - 693898" locus_tag="M406DRAFT_270014" class="clusterblast-orf" id="dummy-1_h1_5_12"  />
</g>
<g id="a1_0013"  >
<polygon points="395,85 400,80 419,80 419,90 400,90 395,85 " style="fill:white; stroke-width:1; stroke:black; " description="&lt;b&gt;M406DRAFT_95652&lt;/b&gt;&lt;br&gt;uncharacterized protein&lt;br&gt;Location: 692481 - 689130" locus_tag="M406DRAFT_95652" class="clusterblast-orf" id="dummy-1_h1_5_13"  />
</g>
<g id="a1_0014"  >
<polygon points="432,85 437,80 445,80 445,90 437,90 432,85 " style="fill:white; stroke-width:1; stroke:black; " description="&lt;b&gt;M406DRAFT_269773&lt;/b&gt;&lt;br&gt;FAD/NAD(P)-binding domain-containing protein&lt;br&gt;Location: 687261 - 685396" locus_tag="M406DRAFT_269773" class="clusterblast-orf" id="dummy-1_h1_5_14"  />
</g>
<g id="a1_0015"  >
<polygon points="460,90 460,90 465,85 460,80 460,80 460,90 " style="fill:white; stroke-width:1; stroke:black; " description="&lt;b&gt;M406DRAFT_243431&lt;/b&gt;&lt;br&gt;uncharacterized protein&lt;br&gt;Location: 683382 - 682637" locus_tag="M406DRAFT_243431" class="clusterblast-orf" id="dummy-1_h1_5_15"  />
</g>
<g id="a1_0016"  >
<polygon points="474,90 495,90 500,85 495,80 474,80 474,90 " style="fill:white; stroke-width:1; stroke:black; " description="&lt;b&gt;M406DRAFT_335251&lt;/b&gt;&lt;br&gt;uncharacterized protein&lt;br&gt;Location: 681357 - 677796" locus_tag="M406DRAFT_335251" class="clusterblast-orf" id="dummy-1_h1_5_16"  />
</g>
<g id="a1_0017"  >
<polygon points="500,85 505,80 512,80 512,90 505,90 500,85 " style="fill:white; stroke-width:1; stroke:black; " description="&lt;b&gt;M406DRAFT_335250&lt;/b&gt;&lt;br&gt;deoxyribodipyrimidine photo-lyase&lt;br&gt;Location: 677698 - 676082" locus_tag="M406DRAFT_335250" class="clusterblast-orf" id="dummy-1_h1_5_17"  />
</g>
<g id="a1_0018"  >
<polygon points="518,85 523,80 524,80 524,90 523,90 518,85 " style="fill:white; stroke-width:1; stroke:black; " description="&lt;b&gt;M406DRAFT_358688&lt;/b&gt;&lt;br&gt;uncharacterized protein&lt;br&gt;Location: 675217 - 674421" locus_tag="M406DRAFT_358688" class="clusterblast-orf" id="dummy-1_h1_5_18"  />
</g>
<g id="a1_0019"  >
<polygon points="545,90 545,90 550,85 545,80 545,80 545,90 " style="fill:white; stroke-width:1; stroke:black; " description="&lt;b&gt;M406DRAFT_335248&lt;/b&gt;&lt;br&gt;uncharacterized protein&lt;br&gt;Location: 671434 - 670753" locus_tag="M406DRAFT_335248" class="clusterblast-orf" id="dummy-1_h1_5_19"  />
</g>
<g id="a1_0020"  >
<polygon points="556,85 561,80 562,80 562,90 561,90 556,85 " style="fill:white; stroke-width:1; stroke:black; " description="&lt;b&gt;M406DRAFT_222847&lt;/b&gt;&lt;br&gt;uncharacterized protein&lt;br&gt;Location: 669814 - 669033" locus_tag="M406DRAFT_222847" class="clusterblast-orf" id="dummy-1_h1_5_20"  />
</g>
<g id="a1_0021"  >
<polygon points="570,85 572,80 572,90 570,85 " style="fill:white; stroke-width:1; stroke:black; " description="&lt;b&gt;M406DRAFT_243831&lt;/b&gt;&lt;br&gt;uncharacterized protein&lt;br&gt;Location: 667918 - 667655" locus_tag="M406DRAFT_243831" class="clusterblast-orf" id="dummy-1_h1_5_21"  />
</g>
<g id="a1_0022"  >
<polygon points="593,85 598,80 620,80 620,90 598,90 593,85 " style="fill:#9715d8; stroke-width:1; stroke:black; " description="&lt;b&gt;M406DRAFT_51944&lt;/b&gt;&lt;br&gt;family 65 glycoside hydrolase&lt;br&gt;Location: 664643 - 660947&lt;br&gt;&lt;br&gt;&lt;b&gt;BlastP hit with input.path1.gene20&lt;/b&gt;&lt;br&gt;Percentage identity: 36&lt;br&gt;Percentage coverage: 42&lt;br&gt;BLAST bit score: 90&lt;br&gt;E-value: 6.41e-17" locus_tag="M406DRAFT_51944" class="clusterblast-orf" id="dummy-1_h1_5_22"  />
</g>
<g id="a1_0023"  >
<polygon points="637,85 642,80 652,80 652,90 642,90 637,85 " style="fill:white; stroke-width:1; stroke:black; " description="&lt;b&gt;M406DRAFT_269973&lt;/b&gt;&lt;br&gt;amidase signature enzyme&lt;br&gt;Location: 658499 - 656376" locus_tag="M406DRAFT_269973" class="clusterblast-orf" id="dummy-1_h1_5_23"  />
</g>
<g id="a1_0024"  >
<polygon points="669,90 675,90 680,85 675,80 669,80 669,90 " style="fill:white; stroke-width:1; stroke:black; " description="&lt;b&gt;M406DRAFT_343645&lt;/b&gt;&lt;br&gt;NAD(P)-binding protein&lt;br&gt;Location: 654061 - 652459" locus_tag="M406DRAFT_343645" class="clusterblast-orf" id="dummy-1_h1_5_24"  />
</g>
<g id="a1_0025"  >
<polygon points="681,85 686,80 687,80 687,90 686,90 681,85 " style="fill:white; stroke-width:1; stroke:black; " description="&lt;b&gt;M406DRAFT_75399&lt;/b&gt;&lt;br&gt;uncharacterized protein&lt;br&gt;Location: 652324 - 651492" locus_tag="M406DRAFT_75399" class="clusterblast-orf" id="dummy-1_h1_5_25"  />
</g>
<g id="a1_0026"  >
<polygon points="696,90 705,90 710,85 705,80 696,80 696,90 " style="fill:white; stroke-width:1; stroke:black; " description="&lt;b&gt;M406DRAFT_343643&lt;/b&gt;&lt;br&gt;uncharacterized protein&lt;br&gt;Location: 650330 - 648273" locus_tag="M406DRAFT_343643" class="clusterblast-orf" id="dummy-1_h1_5_26"  />
</g>
<g id="a1_0027"  >
<polygon points="717,90 721,90 726,85 721,80 717,80 717,90 " style="fill:white; stroke-width:1; stroke:black; " description="&lt;b&gt;M406DRAFT_269754&lt;/b&gt;&lt;br&gt;uncharacterized protein&lt;br&gt;Location: 647390 - 646035" locus_tag="M406DRAFT_269754" class="clusterblast-orf" id="dummy-1_h1_5_27"  />
</g>
<g id="a1_0028"  >
<polygon points="727,85 732,80 734,80 734,90 732,90 727,85 " style="fill:white; stroke-width:1; stroke:black; " description="&lt;b&gt;M406DRAFT_269825&lt;/b&gt;&lt;br&gt;uncharacterized protein&lt;br&gt;Location: 645888 - 645006" locus_tag="M406DRAFT_269825" class="clusterblast-orf" id="dummy-1_h1_5_28"  />
</g>
<g id="a1_0029"  >
<polygon points="743,90 775,90 780,85 775,80 743,80 743,90 " style="fill:white; stroke-width:1; stroke:black; " description="&lt;b&gt;M406DRAFT_269832&lt;/b&gt;&lt;br&gt;P-loop containing nucleoside triphosphate hydrolase protein&lt;br&gt;Location: 643725 - 638563" locus_tag="M406DRAFT_269832" class="clusterblast-orf" id="dummy-1_h1_5_29"  />
</g>
</svg>
