<svg xmlns="http://www.w3.org/2000/svg" xmlns:xlink="http://www.w3.org/1999/xlink" version="1.1" x="0" y="0" height="230" width="800" viewBox="0 0 800 230" preserveAspectRatio="none"  >
<g label="Query sequence" class="clusterblast-cluster"  >
<text x="5" y="20" class="clusterblast-acc"  >
Query sequence</text>
<line x1="10" y1="35" x2="778.0" y2="35" style="stroke-width:1; stroke:grey; "  />
<polygon points="178,40 181,35 178,30 178,40 " style="fill:white; stroke-width:1; stroke:black; " description="&lt;b&gt;input.path1.gene1081&lt;/b&gt;&lt;br&gt;input.path1.gene1081&lt;br&gt;Location: 4183361 - 4183696" locus_tag="input.path1.gene1081" class="clusterblast-orf" id="dummy-3_q0_0_all"  />
<polygon points="225,40 233,40 238,35 233,30 225,30 225,40 " style="fill:white; stroke-width:1; stroke:black; " description="&lt;b&gt;input.path1.gene1082&lt;/b&gt;&lt;br&gt;input.path1.gene1082&lt;br&gt;Location: 4188881 - 4190332" locus_tag="input.path1.gene1082" class="clusterblast-orf" id="dummy-3_q1_0_all"  />
<polygon points="253,35 258,30 261,30 261,40 258,40 253,35 " style="fill:white; stroke-width:1; stroke:black; " description="&lt;b&gt;input.path1.gene1083&lt;/b&gt;&lt;br&gt;input.path1.gene1083&lt;br&gt;Location: 4192140 - 4193037" locus_tag="input.path1.gene1083" class="clusterblast-orf" id="dummy-3_q2_0_all"  />
<polygon points="290,35 295,30 307,30 307,40 295,40 290,35 " style="fill:#d81515; stroke-width:1; stroke:black; " description="&lt;b&gt;input.path1.gene1084&lt;/b&gt;&lt;br&gt;input.path1.gene1084&lt;br&gt;Location: 4196370 - 4198395" locus_tag="input.path1.gene1084" class="clusterblast-orf" id="dummy-3_q3_0_all"  />
<polygon points="327,35 332,30 334,30 334,40 332,40 327,35 " style="fill:#15d815; stroke-width:1; stroke:black; " description="&lt;b&gt;input.path1.gene1085&lt;/b&gt;&lt;br&gt;input.path1.gene1085&lt;br&gt;Location: 4200780 - 4201582" locus_tag="input.path1.gene1085" class="clusterblast-orf" id="dummy-3_q4_0_all"  />
<polygon points="338,40 345,40 350,35 345,30 338,30 338,40 " style="fill:#1515d8; stroke-width:1; stroke:black; " description="&lt;b&gt;input.path1.gene1086&lt;/b&gt;&lt;br&gt;input.path1.gene1086&lt;br&gt;Location: 4202081 - 4203393" locus_tag="input.path1.gene1086" class="clusterblast-orf" id="dummy-3_q5_0_all"  />
<polygon points="356,40 361,40 366,35 361,30 356,30 356,40 " style="fill:#d815d8; stroke-width:1; stroke:black; " description="&lt;b&gt;input.path1.gene1087&lt;/b&gt;&lt;br&gt;input.path1.gene1087&lt;br&gt;Location: 4204198 - 4205357" locus_tag="input.path1.gene1087" class="clusterblast-orf" id="dummy-3_q6_0_all"  />
<polygon points="369,35 374,30 386,30 386,40 374,40 369,35 " style="fill:#d8d815; stroke-width:1; stroke:black; " description="&lt;b&gt;input.path1.gene1088&lt;/b&gt;&lt;br&gt;input.path1.gene1088&lt;br&gt;Location: 4205682 - 4207625" locus_tag="input.path1.gene1088" class="clusterblast-orf" id="dummy-3_q7_0_all"  />
<polygon points="412,40 416,40 421,35 416,30 412,30 412,40 " style="fill:white; stroke-width:1; stroke:black; " description="&lt;b&gt;input.path1.gene1089&lt;/b&gt;&lt;br&gt;input.path1.gene1089&lt;br&gt;Location: 4210650 - 4211749" locus_tag="input.path1.gene1089" class="clusterblast-orf" id="dummy-3_q8_0_all"  />
<polygon points="426,35 431,30 433,30 433,40 431,40 426,35 " style="fill:white; stroke-width:1; stroke:black; " description="&lt;b&gt;input.path1.gene1090&lt;/b&gt;&lt;br&gt;input.path1.gene1090&lt;br&gt;Location: 4212374 - 4213186" locus_tag="input.path1.gene1090" class="clusterblast-orf" id="dummy-3_q9_0_all"  />
<polygon points="453,35 458,30 481,30 481,40 458,40 453,35 " style="fill:white; stroke-width:1; stroke:black; " description="&lt;b&gt;input.path1.gene1091&lt;/b&gt;&lt;br&gt;input.path1.gene1091&lt;br&gt;Location: 4215502 - 4218792" locus_tag="input.path1.gene1091" class="clusterblast-orf" id="dummy-3_q10_0_all"  />
<polygon points="517,40 524,40 529,35 524,30 517,30 517,40 " style="fill:white; stroke-width:1; stroke:black; " description="&lt;b&gt;input.path1.gene1092&lt;/b&gt;&lt;br&gt;input.path1.gene1092&lt;br&gt;Location: 4222929 - 4224349" locus_tag="input.path1.gene1092" class="clusterblast-orf" id="dummy-3_q11_0_all"  />
<polygon points="571,40 596,40 601,35 596,30 571,30 571,40 " style="fill:#15d8d8; stroke-width:1; stroke:black; " description="&lt;b&gt;input.path1.gene1093&lt;/b&gt;&lt;br&gt;input.path1.gene1093&lt;br&gt;Location: 4229254 - 4232789" locus_tag="input.path1.gene1093" class="clusterblast-orf" id="dummy-3_q12_0_all"  />
</g>
<g label="NW_015622513" description="NW_015622513 (4594674-4688646): Exophiala spinifera strain CBS 89968 unplaced... (7% of genes show similarity), fungal-RiPP-like" class="clusterblast-cluster"  >
<text x="5" y="70" class="clusterblast-acc"  >
<a xlink:href="https://antismash-db.secondarymetabolites.org/area?record=NW_015622513&amp;start=4594674&amp;end=4688646" target="_blank">NW_015622513 (4594674-4688646)</a>: Exophiala spinifera strain CBS 89968 unplaced... (7% of genes show similarity), fungal-RiPP-like</text>
<line x1="10" y1="85" x2="778.0" y2="85" style="stroke-width:1; stroke:grey; "  />
</g>
<g id="a3_000"  >
<polygon points="0,90 6,90 11,85 6,80 0,80 0,90 " style="fill:white; stroke-width:1; stroke:black; " description="&lt;b&gt;PV08_01732&lt;/b&gt;&lt;br&gt;hypothetical protein&lt;br&gt;Location: 4686335 - 4684980" locus_tag="PV08_01732" class="clusterblast-orf" id="dummy-3_h3_4_0"  />
</g>
<g id="a3_001"  >
<polygon points="22,90 35,90 40,85 35,80 22,80 22,90 " style="fill:white; stroke-width:1; stroke:black; " description="&lt;b&gt;PV08_01731&lt;/b&gt;&lt;br&gt;hypothetical protein&lt;br&gt;Location: 4683665 - 4681571" locus_tag="PV08_01731" class="clusterblast-orf" id="dummy-3_h3_4_1"  />
</g>
<g id="a3_002"  >
<polygon points="43,85 48,80 48,80 48,90 48,90 43,85 " style="fill:white; stroke-width:1; stroke:black; " description="&lt;b&gt;PV08_01730&lt;/b&gt;&lt;br&gt;hypothetical protein&lt;br&gt;Location: 4681262 - 4680711" locus_tag="PV08_01730" class="clusterblast-orf" id="dummy-3_h3_4_2"  />
</g>
<g id="a3_003"  >
<polygon points="56,85 61,80 61,80 61,90 61,90 56,85 " style="fill:white; stroke-width:1; stroke:black; " description="&lt;b&gt;PV08_01729&lt;/b&gt;&lt;br&gt;hypothetical protein&lt;br&gt;Location: 4679730 - 4679170" locus_tag="PV08_01729" class="clusterblast-orf" id="dummy-3_h3_4_3"  />
</g>
<g id="a3_004"  >
<polygon points="84,90 89,90 94,85 89,80 84,80 84,90 " style="fill:white; stroke-width:1; stroke:black; " description="&lt;b&gt;PV08_01728&lt;/b&gt;&lt;br&gt;hypothetical protein&lt;br&gt;Location: 4676504 - 4675245" locus_tag="PV08_01728" class="clusterblast-orf" id="dummy-3_h3_4_4"  />
</g>
<g id="a3_005"  >
<polygon points="101,90 107,90 112,85 107,80 101,80 101,90 " style="fill:white; stroke-width:1; stroke:black; " description="&lt;b&gt;PV08_01727&lt;/b&gt;&lt;br&gt;aspartate-semialdehyde dehydrogenase&lt;br&gt;Location: 4674488 - 4673220" locus_tag="PV08_01727" class="clusterblast-orf" id="dummy-3_h3_4_5"  />
</g>
<g id="a3_006"  >
<polygon points="118,90 129,90 134,85 129,80 118,80 118,90 " style="fill:white; stroke-width:1; stroke:black; " description="&lt;b&gt;PV08_01726&lt;/b&gt;&lt;br&gt;hypothetical protein&lt;br&gt;Location: 4672474 - 4670609" locus_tag="PV08_01726" class="clusterblast-orf" id="dummy-3_h3_4_6"  />
</g>
<g id="a3_007"  >
<polygon points="135,85 140,80 147,80 147,90 140,90 135,85 " style="fill:white; stroke-width:1; stroke:black; " description="&lt;b&gt;PV08_01725&lt;/b&gt;&lt;br&gt;hypothetical protein&lt;br&gt;Location: 4670528 - 4669087" locus_tag="PV08_01725" class="clusterblast-orf" id="dummy-3_h3_4_7"  />
</g>
<g id="a3_008"  >
<polygon points="160,90 169,90 174,85 169,80 160,80 160,90 " style="fill:white; stroke-width:1; stroke:black; " description="&lt;b&gt;PV08_01724&lt;/b&gt;&lt;br&gt;hypothetical protein&lt;br&gt;Location: 4667602 - 4665924" locus_tag="PV08_01724" class="clusterblast-orf" id="dummy-3_h3_4_8"  />
</g>
<g id="a3_009"  >
<polygon points="186,85 191,80 226,80 226,90 191,90 186,85 " style="fill:white; stroke-width:1; stroke:black; " description="&lt;b&gt;PV08_01723&lt;/b&gt;&lt;br&gt;hypothetical protein&lt;br&gt;Location: 4664531 - 4659831" locus_tag="PV08_01723" class="clusterblast-orf" id="dummy-3_h3_4_9"  />
</g>
<g id="a3_0010"  >
<polygon points="233,85 238,80 255,80 255,90 238,90 233,85 " style="fill:white; stroke-width:1; stroke:black; " description="&lt;b&gt;PV08_01722&lt;/b&gt;&lt;br&gt;hypothetical protein&lt;br&gt;Location: 4659048 - 4656456" locus_tag="PV08_01722" class="clusterblast-orf" id="dummy-3_h3_4_10"  />
</g>
<g id="a3_0011"  >
<polygon points="271,85 276,80 280,80 280,90 276,90 271,85 " style="fill:white; stroke-width:1; stroke:black; " description="&lt;b&gt;PV08_01721&lt;/b&gt;&lt;br&gt;hypothetical protein&lt;br&gt;Location: 4654576 - 4653567" locus_tag="PV08_01721" class="clusterblast-orf" id="dummy-3_h3_4_11"  />
</g>
<g id="a3_0012"  >
<polygon points="316,90 320,90 325,85 320,80 316,80 316,90 " style="fill:white; stroke-width:1; stroke:black; " description="&lt;b&gt;PV08_01720&lt;/b&gt;&lt;br&gt;ribokinase&lt;br&gt;Location: 4649316 - 4648222" locus_tag="PV08_01720" class="clusterblast-orf" id="dummy-3_h3_4_12"  />
</g>
<g id="a3_0013"  >
<polygon points="330,85 335,80 338,80 338,90 335,90 330,85 " style="fill:white; stroke-width:1; stroke:black; " description="&lt;b&gt;PV08_01719&lt;/b&gt;&lt;br&gt;hypothetical protein&lt;br&gt;Location: 4647715 - 4646738" locus_tag="PV08_01719" class="clusterblast-orf" id="dummy-3_h3_4_13"  />
</g>
<g id="a3_0014"  >
<polygon points="345,85 350,80 353,80 353,90 350,90 345,85 " style="fill:#15d815; stroke-width:1; stroke:black; " description="&lt;b&gt;PV08_01718&lt;/b&gt;&lt;br&gt;hypothetical protein&lt;br&gt;Location: 4645938 - 4645019&lt;br&gt;&lt;br&gt;&lt;b&gt;BlastP hit with input.path1.gene1085&lt;/b&gt;&lt;br&gt;Percentage identity: 55&lt;br&gt;Percentage coverage: 45&lt;br&gt;BLAST bit score: 105&lt;br&gt;E-value: 4.43e-25" locus_tag="PV08_01718" class="clusterblast-orf" id="dummy-3_h3_4_14"  />
</g>
<g id="a3_0015"  >
<polygon points="364,90 368,90 373,85 368,80 364,80 364,90 " style="fill:#1515d8; stroke-width:1; stroke:black; " description="&lt;b&gt;PV08_01717&lt;/b&gt;&lt;br&gt;hypothetical protein&lt;br&gt;Location: 4643646 - 4642612&lt;br&gt;&lt;br&gt;&lt;b&gt;BlastP hit with input.path1.gene1086&lt;/b&gt;&lt;br&gt;Percentage identity: 71&lt;br&gt;Percentage coverage: 70&lt;br&gt;BLAST bit score: 238&lt;br&gt;E-value: 6.23e-77" locus_tag="PV08_01717" class="clusterblast-orf" id="dummy-3_h3_4_15"  />
</g>
<g id="a3_0016"  >
<polygon points="386,90 393,90 398,85 393,80 386,80 386,90 " style="fill:#d815d8; stroke-width:1; stroke:black; " description="&lt;b&gt;PV08_01716&lt;/b&gt;&lt;br&gt;hypothetical protein&lt;br&gt;Location: 4641100 - 4639675&lt;br&gt;&lt;br&gt;&lt;b&gt;BlastP hit with input.path1.gene1087&lt;/b&gt;&lt;br&gt;Percentage identity: 86&lt;br&gt;Percentage coverage: 18&lt;br&gt;BLAST bit score: 84&lt;br&gt;E-value: 7.61e-17" locus_tag="PV08_01716" class="clusterblast-orf" id="dummy-3_h3_4_16"  />
</g>
<g id="a3_0017"  >
<polygon points="405,85 410,80 419,80 419,90 410,90 405,85 " style="fill:white; stroke-width:1; stroke:black; " description="&lt;b&gt;PV08_01715&lt;/b&gt;&lt;br&gt;hypothetical protein&lt;br&gt;Location: 4638905 - 4637327" locus_tag="PV08_01715" class="clusterblast-orf" id="dummy-3_h3_4_17"  />
</g>
<g id="a3_0018"  >
<polygon points="424,85 429,80 430,80 430,90 429,90 424,85 " style="fill:white; stroke-width:1; stroke:black; " description="&lt;b&gt;PV08_01714&lt;/b&gt;&lt;br&gt;hypothetical protein&lt;br&gt;Location: 4636657 - 4635957" locus_tag="PV08_01714" class="clusterblast-orf" id="dummy-3_h3_4_18"  />
</g>
<g id="a3_0019"  >
<polygon points="440,90 444,85 440,80 440,90 " style="fill:white; stroke-width:1; stroke:black; " description="&lt;b&gt;PV08_01713&lt;/b&gt;&lt;br&gt;hypothetical protein&lt;br&gt;Location: 4634764 - 4634389" locus_tag="PV08_01713" class="clusterblast-orf" id="dummy-3_h3_4_19"  />
</g>
<g id="a3_0020"  >
<polygon points="447,85 452,80 462,80 462,90 452,90 447,85 " style="fill:white; stroke-width:1; stroke:black; " description="&lt;b&gt;PV08_01712&lt;/b&gt;&lt;br&gt;hypothetical protein&lt;br&gt;Location: 4633967 - 4632183" locus_tag="PV08_01712" class="clusterblast-orf" id="dummy-3_h3_4_20"  />
</g>
<g id="a3_0021"  >
<polygon points="472,90 473,90 478,85 473,80 472,80 472,90 " style="fill:white; stroke-width:1; stroke:black; " description="&lt;b&gt;PV08_01711&lt;/b&gt;&lt;br&gt;hypothetical protein&lt;br&gt;Location: 4631029 - 4630393" locus_tag="PV08_01711" class="clusterblast-orf" id="dummy-3_h3_4_21"  />
</g>
<g id="a3_0022"  >
<polygon points="483,85 488,80 493,80 493,90 488,90 483,85 " style="fill:white; stroke-width:1; stroke:black; " description="&lt;b&gt;PV08_01710&lt;/b&gt;&lt;br&gt;thiamine thiazole synthase&lt;br&gt;Location: 4629835 - 4628625" locus_tag="PV08_01710" class="clusterblast-orf" id="dummy-3_h3_4_22"  />
</g>
<g id="a3_0023"  >
<polygon points="503,85 508,80 516,80 516,90 508,90 503,85 " style="fill:white; stroke-width:1; stroke:black; " description="&lt;b&gt;PV08_01709&lt;/b&gt;&lt;br&gt;hypothetical protein&lt;br&gt;Location: 4627452 - 4625962" locus_tag="PV08_01709" class="clusterblast-orf" id="dummy-3_h3_4_23"  />
</g>
<g id="a3_0024"  >
<polygon points="523,90 525,90 530,85 525,80 523,80 523,90 " style="fill:white; stroke-width:1; stroke:black; " description="&lt;b&gt;PV08_01708&lt;/b&gt;&lt;br&gt;hypothetical protein&lt;br&gt;Location: 4625072 - 4624290" locus_tag="PV08_01708" class="clusterblast-orf" id="dummy-3_h3_4_24"  />
</g>
<g id="a3_0025"  >
<polygon points="539,90 540,90 545,85 540,80 539,80 539,90 " style="fill:white; stroke-width:1; stroke:black; " description="&lt;b&gt;PV08_01707&lt;/b&gt;&lt;br&gt;hypothetical protein&lt;br&gt;Location: 4623187 - 4622512" locus_tag="PV08_01707" class="clusterblast-orf" id="dummy-3_h3_4_25"  />
</g>
<g id="a3_0026"  >
<polygon points="550,90 553,90 558,85 553,80 550,80 550,90 " style="fill:white; stroke-width:1; stroke:black; " description="&lt;b&gt;PV08_01706&lt;/b&gt;&lt;br&gt;hypothetical protein&lt;br&gt;Location: 4621998 - 4621048" locus_tag="PV08_01706" class="clusterblast-orf" id="dummy-3_h3_4_26"  />
</g>
<g id="a3_0027"  >
<polygon points="559,85 564,80 571,80 571,90 564,90 559,85 " style="fill:white; stroke-width:1; stroke:black; " description="&lt;b&gt;PV08_01705&lt;/b&gt;&lt;br&gt;hypothetical protein&lt;br&gt;Location: 4620853 - 4619526" locus_tag="PV08_01705" class="clusterblast-orf" id="dummy-3_h3_4_27"  />
</g>
<g id="a3_0028"  >
<polygon points="581,90 584,85 581,80 581,90 " style="fill:white; stroke-width:1; stroke:black; " description="&lt;b&gt;PV08_01704&lt;/b&gt;&lt;br&gt;hypothetical protein&lt;br&gt;Location: 4618363 - 4617941" locus_tag="PV08_01704" class="clusterblast-orf" id="dummy-3_h3_4_28"  />
</g>
<g id="a3_0029"  >
<polygon points="587,85 592,80 597,80 597,90 592,90 587,85 " style="fill:white; stroke-width:1; stroke:black; " description="&lt;b&gt;PV08_01703&lt;/b&gt;&lt;br&gt;hypothetical protein&lt;br&gt;Location: 4617562 - 4616447" locus_tag="PV08_01703" class="clusterblast-orf" id="dummy-3_h3_4_29"  />
</g>
<g id="a3_0030"  >
<polygon points="602,90 606,85 602,80 602,90 " style="fill:white; stroke-width:1; stroke:black; " description="&lt;b&gt;PV08_01702&lt;/b&gt;&lt;br&gt;hypothetical protein&lt;br&gt;Location: 4615810 - 4615385" locus_tag="PV08_01702" class="clusterblast-orf" id="dummy-3_h3_4_30"  />
</g>
<g id="a3_0031"  >
<polygon points="614,90 620,90 625,85 620,80 614,80 614,90 " style="fill:white; stroke-width:1; stroke:black; " description="&lt;b&gt;PV08_01701&lt;/b&gt;&lt;br&gt;hypothetical protein&lt;br&gt;Location: 4614425 - 4613154" locus_tag="PV08_01701" class="clusterblast-orf" id="dummy-3_h3_4_31"  />
</g>
<g id="a3_0032"  >
<polygon points="629,85 634,80 643,80 643,90 634,90 629,85 " style="fill:white; stroke-width:1; stroke:black; " description="&lt;b&gt;PV08_01700&lt;/b&gt;&lt;br&gt;hypothetical protein&lt;br&gt;Location: 4612715 - 4611071" locus_tag="PV08_01700" class="clusterblast-orf" id="dummy-3_h3_4_32"  />
</g>
<g id="a3_0033"  >
<polygon points="646,85 651,80 660,80 660,90 651,90 646,85 " style="fill:white; stroke-width:1; stroke:black; " description="&lt;b&gt;PV08_01699&lt;/b&gt;&lt;br&gt;hypothetical protein&lt;br&gt;Location: 4610736 - 4609124" locus_tag="PV08_01699" class="clusterblast-orf" id="dummy-3_h3_4_33"  />
</g>
<g id="a3_0034"  >
<polygon points="665,90 668,85 665,80 665,90 " style="fill:white; stroke-width:1; stroke:black; " description="&lt;b&gt;PV08_01698&lt;/b&gt;&lt;br&gt;hypothetical protein&lt;br&gt;Location: 4608524 - 4608120" locus_tag="PV08_01698" class="clusterblast-orf" id="dummy-3_h3_4_34"  />
</g>
<g id="a3_0035"  >
<polygon points="668,85 673,80 680,80 680,90 673,90 668,85 " style="fill:white; stroke-width:1; stroke:black; " description="&lt;b&gt;PV08_01697&lt;/b&gt;&lt;br&gt;hypothetical protein&lt;br&gt;Location: 4608092 - 4606782" locus_tag="PV08_01697" class="clusterblast-orf" id="dummy-3_h3_4_35"  />
</g>
<g id="a3_0036"  >
<polygon points="684,90 692,90 697,85 692,80 684,80 684,90 " style="fill:white; stroke-width:1; stroke:black; " description="&lt;b&gt;PV08_01696&lt;/b&gt;&lt;br&gt;hypothetical protein&lt;br&gt;Location: 4606235 - 4604772" locus_tag="PV08_01696" class="clusterblast-orf" id="dummy-3_h3_4_36"  />
</g>
<g id="a3_0037"  >
<polygon points="707,85 712,80 712,80 712,90 712,90 707,85 " style="fill:white; stroke-width:1; stroke:black; " description="&lt;b&gt;PV08_01695&lt;/b&gt;&lt;br&gt;cyanate hydratase&lt;br&gt;Location: 4603549 - 4602971" locus_tag="PV08_01695" class="clusterblast-orf" id="dummy-3_h3_4_37"  />
</g>
<g id="a3_0038"  >
<polygon points="720,90 749,90 754,85 749,80 720,80 720,90 " style="fill:white; stroke-width:1; stroke:black; " description="&lt;b&gt;PV08_01694&lt;/b&gt;&lt;br&gt;hypothetical protein&lt;br&gt;Location: 4602088 - 4598121" locus_tag="PV08_01694" class="clusterblast-orf" id="dummy-3_h3_4_38"  />
</g>
<g id="a3_0039"  >
<polygon points="760,90 767,90 772,85 767,80 760,80 760,90 " style="fill:white; stroke-width:1; stroke:black; " description="&lt;b&gt;PV08_01693&lt;/b&gt;&lt;br&gt;hypothetical protein&lt;br&gt;Location: 4597384 - 4595935" locus_tag="PV08_01693" class="clusterblast-orf" id="dummy-3_h3_4_39"  />
</g>
<g id="a3_0040"  >
<polygon points="774,90 775,90 780,85 775,80 774,80 774,90 " style="fill:white; stroke-width:1; stroke:black; " description="&lt;b&gt;PV08_01692&lt;/b&gt;&lt;br&gt;hypothetical protein&lt;br&gt;Location: 4595755 - 4595104" locus_tag="PV08_01692" class="clusterblast-orf" id="dummy-3_h3_4_40"  />
</g>
</svg>
