<svg xmlns="http://www.w3.org/2000/svg" xmlns:xlink="http://www.w3.org/1999/xlink" version="1.1" x="0" y="0" height="230" width="800" viewBox="0 0 800 230" preserveAspectRatio="none"  >
<g label="Query sequence" class="clusterblast-cluster"  >
<text x="5" y="20" class="clusterblast-acc"  >
Query sequence</text>
<line x1="10" y1="35" x2="778.0" y2="35" style="stroke-width:1; stroke:grey; "  />
<polygon points="121,40 153,40 158,35 153,30 121,30 121,40 " style="fill:#d81515; stroke-width:1; stroke:black; " description="&lt;b&gt;input.path1.gene5&lt;/b&gt;&lt;br&gt;input.path1.gene5&lt;br&gt;Location: 22694 - 24040" locus_tag="input.path1.gene5" class="clusterblast-orf" id="dummy-1_q0_0_all"  />
<polygon points="318,40 332,40 337,35 332,30 318,30 318,40 " style="fill:#15d863; stroke-width:1; stroke:black; " description="&lt;b&gt;input.path1.gene6&lt;/b&gt;&lt;br&gt;input.path1.gene6&lt;br&gt;Location: 29854 - 30529" locus_tag="input.path1.gene6" class="clusterblast-orf" id="dummy-1_q1_0_all"  />
<polygon points="354,35 359,30 401,30 401,40 359,40 354,35 " style="fill:#1563d8; stroke-width:1; stroke:black; " description="&lt;b&gt;input.path1.gene7&lt;/b&gt;&lt;br&gt;input.path1.gene7&lt;br&gt;Location: 31139 - 32880" locus_tag="input.path1.gene7" class="clusterblast-orf" id="dummy-1_q2_0_all"  />
<polygon points="439,35 444,30 474,30 474,40 444,40 439,35 " style="fill:#b115d8; stroke-width:1; stroke:black; " description="&lt;b&gt;input.path1.gene8&lt;/b&gt;&lt;br&gt;input.path1.gene8&lt;br&gt;Location: 34244 - 35495" locus_tag="input.path1.gene8" class="clusterblast-orf" id="dummy-1_q3_0_all"  />
<polygon points="525,40 605,40 610,35 605,30 525,30 525,40 " style="fill:#b1d815; stroke-width:1; stroke:black; " description="&lt;b&gt;input.path1.gene9&lt;/b&gt;&lt;br&gt;input.path1.gene9&lt;br&gt;Location: 37359 - 40431" locus_tag="input.path1.gene9" class="clusterblast-orf" id="dummy-1_q4_0_all"  />
<polygon points="649,35 654,30 659,30 659,40 654,40 649,35 " style="fill:white; stroke-width:1; stroke:black; " description="&lt;b&gt;input.path1.gene10&lt;/b&gt;&lt;br&gt;input.path1.gene10&lt;br&gt;Location: 41872 - 42216" locus_tag="input.path1.gene10" class="clusterblast-orf" id="dummy-1_q5_0_all"  />
</g>
<g label="NC_035794" description="NC_035794 (4220728-4252181): Pochonia chlamydosporia 170 chromosome 5, whole ... (30% of genes show similarity), terpene" class="clusterblast-cluster"  >
<text x="5" y="70" class="clusterblast-acc"  >
<a xlink:href="https://antismash-db.secondarymetabolites.org/area?record=NC_035794&amp;start=4220728&amp;end=4252181" target="_blank">NC_035794 (4220728-4252181)</a>: Pochonia chlamydosporia 170 chromosome 5, whole ... (30% of genes show similarity), terpene</text>
<line x1="10" y1="85" x2="778.0" y2="85" style="stroke-width:1; stroke:grey; "  />
</g>
<g id="a1_000"  >
<polygon points="0,85 5,80 53,80 53,90 5,90 0,85 " style="fill:white; stroke-width:1; stroke:black; " description="&lt;b&gt;VFPPC_10832&lt;/b&gt;&lt;br&gt;amino acid permease&lt;br&gt;Location: 4251678 - 4249732" locus_tag="VFPPC_10832" class="clusterblast-orf" id="dummy-1_h1_2_0"  />
</g>
<g id="a1_001"  >
<polygon points="128,90 180,90 185,85 180,80 128,80 128,90 " style="fill:white; stroke-width:1; stroke:black; " description="&lt;b&gt;VFPPC_10831&lt;/b&gt;&lt;br&gt;Zn(2)-C6 fungal-type DNA-binding domain-containing protein&lt;br&gt;Location: 4247031 - 4244944" locus_tag="VFPPC_10831" class="clusterblast-orf" id="dummy-1_h1_2_1"  />
</g>
<g id="a1_002"  >
<polygon points="232,85 237,80 242,80 242,90 237,90 232,85 " style="fill:white; stroke-width:1; stroke:black; " description="&lt;b&gt;VFPPC_10830&lt;/b&gt;&lt;br&gt;ethanolamine utilization protein&lt;br&gt;Location: 4243230 - 4242865" locus_tag="VFPPC_10830" class="clusterblast-orf" id="dummy-1_h1_2_2"  />
</g>
<g id="a1_003"  >
<polygon points="321,90 381,90 386,85 381,80 321,80 321,90 " style="fill:white; stroke-width:1; stroke:black; " description="&lt;b&gt;VFPPC_10828&lt;/b&gt;&lt;br&gt;peroxisomal copper amine oxidase&lt;br&gt;Location: 4240016 - 4237662" locus_tag="VFPPC_10828" class="clusterblast-orf" id="dummy-1_h1_2_3"  />
</g>
<g id="a1_004"  >
<polygon points="399,85 404,80 439,80 439,90 404,90 399,85 " style="fill:#1563d8; stroke-width:1; stroke:black; " description="&lt;b&gt;VFPPC_10827&lt;/b&gt;&lt;br&gt;terpene synthase&lt;br&gt;Location: 4237181 - 4235729&lt;br&gt;&lt;br&gt;&lt;b&gt;BlastP hit with input.path1.gene7&lt;/b&gt;&lt;br&gt;Percentage identity: 76&lt;br&gt;Percentage coverage: 97&lt;br&gt;BLAST bit score: 585&lt;br&gt;E-value: 7.76e-210" locus_tag="VFPPC_10827" class="clusterblast-orf" id="dummy-1_h1_2_4"  />
</g>
<g id="a1_005"  >
<polygon points="476,85 481,80 510,80 510,90 481,90 476,85 " style="fill:#b115d8; stroke-width:1; stroke:black; " description="&lt;b&gt;VFPPC_14832&lt;/b&gt;&lt;br&gt;glycosyltransferase&lt;br&gt;Location: 4234386 - 4233157&lt;br&gt;&lt;br&gt;&lt;b&gt;BlastP hit with input.path1.gene8&lt;/b&gt;&lt;br&gt;Percentage identity: 78&lt;br&gt;Percentage coverage: 96&lt;br&gt;BLAST bit score: 693&lt;br&gt;E-value: 2.08e-251" locus_tag="VFPPC_14832" class="clusterblast-orf" id="dummy-1_h1_2_5"  />
</g>
<g id="a1_006"  >
<polygon points="534,90 578,90 583,85 578,80 534,80 534,90 " style="fill:#b1d815; stroke-width:1; stroke:black; " description="&lt;b&gt;VFPPC_10826&lt;/b&gt;&lt;br&gt;cytochrome P450&lt;br&gt;Location: 4232279 - 4230525&lt;br&gt;&lt;br&gt;&lt;b&gt;BlastP hit with input.path1.gene9&lt;/b&gt;&lt;br&gt;Percentage identity: 72&lt;br&gt;Percentage coverage: 42&lt;br&gt;BLAST bit score: 369&lt;br&gt;E-value: 2.17e-119" locus_tag="VFPPC_10826" class="clusterblast-orf" id="dummy-1_h1_2_6"  />
</g>
<g id="a1_007"  >
<polygon points="586,85 591,80 616,80 616,90 591,90 586,85 " style="fill:white; stroke-width:1; stroke:black; " description="&lt;b&gt;VFPPC_10825&lt;/b&gt;&lt;br&gt;NAD(P)-binding domain&lt;br&gt;Location: 4230392 - 4229299" locus_tag="VFPPC_10825" class="clusterblast-orf" id="dummy-1_h1_2_7"  />
</g>
<g id="a1_008"  >
<polygon points="642,85 647,80 697,80 697,90 647,90 642,85 " style="fill:white; stroke-width:1; stroke:black; " description="&lt;b&gt;VFPPC_10824&lt;/b&gt;&lt;br&gt;fatty-acid amide hydrolase&lt;br&gt;Location: 4228374 - 4226377" locus_tag="VFPPC_10824" class="clusterblast-orf" id="dummy-1_h1_2_8"  />
</g>
<g id="a1_009"  >
<polygon points="740,85 745,80 780,80 780,90 745,90 740,85 " style="fill:white; stroke-width:1; stroke:black; " description="&lt;b&gt;VFPPC_10822&lt;/b&gt;&lt;br&gt;Zn(2)-C6 fungal-type DNA-binding domain-containing protein&lt;br&gt;Location: 4224828 - 4223380" locus_tag="VFPPC_10822" class="clusterblast-orf" id="dummy-1_h1_2_9"  />
</g>
</svg>
