<svg xmlns="http://www.w3.org/2000/svg" xmlns:xlink="http://www.w3.org/1999/xlink" version="1.1" x="0" y="0" height="230" width="800" viewBox="0 0 800 230" preserveAspectRatio="none"  >
<g label="Query sequence" class="clusterblast-cluster"  >
<text x="5" y="20" class="clusterblast-acc"  >
Query sequence</text>
<line x1="10" y1="35" x2="778.0" y2="35" style="stroke-width:1; stroke:grey; "  />
<polygon points="18,40 48,40 53,35 48,30 18,30 18,40 " style="fill:#d81515; stroke-width:1; stroke:black; " description="&lt;b&gt;input.path1.gene1199&lt;/b&gt;&lt;br&gt;input.path1.gene1199&lt;br&gt;Location: 4795226 - 4797229" locus_tag="input.path1.gene1199" class="clusterblast-orf" id="dummy-2_q0_0_all"  />
<polygon points="64,35 69,30 75,30 75,40 69,40 64,35 " style="fill:#15d815; stroke-width:1; stroke:black; " description="&lt;b&gt;input.path1.gene1200&lt;/b&gt;&lt;br&gt;input.path1.gene1200&lt;br&gt;Location: 4797881 - 4798530" locus_tag="input.path1.gene1200" class="clusterblast-orf" id="dummy-2_q1_0_all"  />
<polygon points="87,35 92,30 126,30 126,40 92,40 87,35 " style="fill:#1597d8; stroke-width:1; stroke:black; " description="&lt;b&gt;input.path1.gene1201&lt;/b&gt;&lt;br&gt;input.path1.gene1201&lt;br&gt;Location: 4799236 - 4801501" locus_tag="input.path1.gene1201" class="clusterblast-orf" id="dummy-2_q2_0_all"  />
<polygon points="178,40 223,40 228,35 223,30 178,30 178,40 " style="fill:#9715d8; stroke-width:1; stroke:black; " description="&lt;b&gt;input.path1.gene1202&lt;/b&gt;&lt;br&gt;input.path1.gene1202&lt;br&gt;Location: 4804525 - 4807438" locus_tag="input.path1.gene1202" class="clusterblast-orf" id="dummy-2_q3_0_all"  />
<polygon points="242,35 247,30 265,30 265,40 247,40 242,35 " style="fill:#d89715; stroke-width:1; stroke:black; " description="&lt;b&gt;input.path1.gene1203&lt;/b&gt;&lt;br&gt;input.path1.gene1203&lt;br&gt;Location: 4808244 - 4809624" locus_tag="input.path1.gene1203" class="clusterblast-orf" id="dummy-2_q4_0_all"  />
<polygon points="272,40 278,40 283,35 278,30 272,30 272,40 " style="fill:white; stroke-width:1; stroke:black; " description="&lt;b&gt;input.path1.gene1204&lt;/b&gt;&lt;br&gt;input.path1.gene1204&lt;br&gt;Location: 4810014 - 4810647" locus_tag="input.path1.gene1204" class="clusterblast-orf" id="dummy-2_q5_0_all"  />
<polygon points="352,35 357,30 473,30 473,40 357,40 352,35 " style="fill:#15d897; stroke-width:1; stroke:black; " description="&lt;b&gt;input.path1.gene1205&lt;/b&gt;&lt;br&gt;input.path1.gene1205&lt;br&gt;Location: 4814699 - 4821741" locus_tag="input.path1.gene1205" class="clusterblast-orf" id="dummy-2_q6_0_all"  />
<polygon points="506,40 517,40 522,35 517,30 506,30 506,40 " style="fill:#1515d8; stroke-width:1; stroke:black; " description="&lt;b&gt;input.path1.gene1206&lt;/b&gt;&lt;br&gt;input.path1.gene1206&lt;br&gt;Location: 4823683 - 4824612" locus_tag="input.path1.gene1206" class="clusterblast-orf" id="dummy-2_q7_0_all"  />
<polygon points="541,40 564,40 569,35 564,30 541,30 541,40 " style="fill:#d81597; stroke-width:1; stroke:black; " description="&lt;b&gt;input.path1.gene1207&lt;/b&gt;&lt;br&gt;input.path1.gene1207&lt;br&gt;Location: 4825710 - 4827326" locus_tag="input.path1.gene1207" class="clusterblast-orf" id="dummy-2_q8_0_all"  />
<polygon points="741,40 756,40 761,35 756,30 741,30 741,40 " style="fill:#97d815; stroke-width:1; stroke:black; " description="&lt;b&gt;input.path1.gene1208&lt;/b&gt;&lt;br&gt;input.path1.gene1208&lt;br&gt;Location: 4837381 - 4838545" locus_tag="input.path1.gene1208" class="clusterblast-orf" id="dummy-2_q9_0_all"  />
</g>
<g label="NW_025091220" description="NW_025091220 (124401-191227): Aspergillus viridinutans IFM 47045 DNA, scaffol... (13% of genes show similarity), T1PKS" class="clusterblast-cluster"  >
<text x="5" y="70" class="clusterblast-acc"  >
<a xlink:href="https://antismash-db.secondarymetabolites.org/area?record=NW_025091220&amp;start=124401&amp;end=191227" target="_blank">NW_025091220 (124401-191227)</a>: Aspergillus viridinutans IFM 47045 DNA, scaffol... (13% of genes show similarity), T1PKS</text>
<line x1="10" y1="85" x2="778.0" y2="85" style="stroke-width:1; stroke:grey; "  />
</g>
<g id="a2_000"  >
<polygon points="0,90 32,90 37,85 32,80 0,80 0,90 " style="fill:white; stroke-width:1; stroke:black; " description="&lt;b&gt;Aspvir_006064&lt;/b&gt;&lt;br&gt;uncharacterized protein&lt;br&gt;Location: 171623 - 169420" locus_tag="Aspvir_006064" class="clusterblast-orf" id="dummy-2_h2_6_0"  />
</g>
<g id="a2_001"  >
<polygon points="48,90 57,90 62,85 57,80 48,80 48,90 " style="fill:white; stroke-width:1; stroke:black; " description="&lt;b&gt;Aspvir_006063&lt;/b&gt;&lt;br&gt;uncharacterized protein&lt;br&gt;Location: 168786 - 167983" locus_tag="Aspvir_006063" class="clusterblast-orf" id="dummy-2_h2_6_1"  />
</g>
<g id="a2_002"  >
<polygon points="66,85 71,80 91,80 91,90 71,90 66,85 " style="fill:white; stroke-width:1; stroke:black; " description="&lt;b&gt;Aspvir_006062&lt;/b&gt;&lt;br&gt;uncharacterized protein&lt;br&gt;Location: 167715 - 166301" locus_tag="Aspvir_006062" class="clusterblast-orf" id="dummy-2_h2_6_2"  />
</g>
<g id="a2_003"  >
<polygon points="107,90 118,90 123,85 118,80 107,80 107,90 " style="fill:white; stroke-width:1; stroke:black; " description="&lt;b&gt;Aspvir_006061&lt;/b&gt;&lt;br&gt;uncharacterized protein&lt;br&gt;Location: 165335 - 164445" locus_tag="Aspvir_006061" class="clusterblast-orf" id="dummy-2_h2_6_3"  />
</g>
<g id="a2_004"  >
<polygon points="130,90 155,90 160,85 155,80 130,80 130,90 " style="fill:white; stroke-width:1; stroke:black; " description="&lt;b&gt;Aspvir_006060&lt;/b&gt;&lt;br&gt;putative NRPS-like protein biosynthetic cluster&lt;br&gt;Location: 164032 - 162254" locus_tag="Aspvir_006060" class="clusterblast-orf" id="dummy-2_h2_6_4"  />
</g>
<g id="a2_005"  >
<polygon points="162,85 167,80 168,80 168,90 167,90 162,85 " style="fill:white; stroke-width:1; stroke:black; " description="&lt;b&gt;Aspvir_006059&lt;/b&gt;&lt;br&gt;uncharacterized protein&lt;br&gt;Location: 162130 - 161798" locus_tag="Aspvir_006059" class="clusterblast-orf" id="dummy-2_h2_6_5"  />
</g>
<g id="a2_006"  >
<polygon points="178,85 183,80 295,80 295,90 183,90 178,85 " style="fill:#15d897; stroke-width:1; stroke:black; " description="&lt;b&gt;Aspvir_006058&lt;/b&gt;&lt;br&gt;type I iterative polyketide synthase&lt;br&gt;Location: 161227 - 154402&lt;br&gt;&lt;br&gt;&lt;b&gt;BlastP hit with input.path1.gene1205&lt;/b&gt;&lt;br&gt;Percentage identity: 42&lt;br&gt;Percentage coverage: 105&lt;br&gt;BLAST bit score: 1681&lt;br&gt;E-value: 0.0" locus_tag="Aspvir_006058" class="clusterblast-orf" id="dummy-2_h2_6_6"  />
</g>
<g id="a2_007"  >
<polygon points="305,90 317,90 322,85 317,80 305,80 305,90 " style="fill:#1515d8; stroke-width:1; stroke:black; " description="&lt;b&gt;Aspvir_006057&lt;/b&gt;&lt;br&gt;uncharacterized protein&lt;br&gt;Location: 153801 - 152835&lt;br&gt;&lt;br&gt;&lt;b&gt;BlastP hit with input.path1.gene1206&lt;/b&gt;&lt;br&gt;Percentage identity: 42&lt;br&gt;Percentage coverage: 88&lt;br&gt;BLAST bit score: 147&lt;br&gt;E-value: 7.87e-42" locus_tag="Aspvir_006057" class="clusterblast-orf" id="dummy-2_h2_6_7"  />
</g>
<g id="a2_008"  >
<polygon points="341,85 346,80 370,80 370,90 346,90 341,85 " style="fill:#d81597; stroke-width:1; stroke:black; " description="&lt;b&gt;Aspvir_006056&lt;/b&gt;&lt;br&gt;uncharacterized protein&lt;br&gt;Location: 151711 - 150000&lt;br&gt;&lt;br&gt;&lt;b&gt;BlastP hit with input.path1.gene1207&lt;/b&gt;&lt;br&gt;Percentage identity: 46&lt;br&gt;Percentage coverage: 101&lt;br&gt;BLAST bit score: 417&lt;br&gt;E-value: 4.17e-140" locus_tag="Aspvir_006056" class="clusterblast-orf" id="dummy-2_h2_6_8"  />
</g>
<g id="a2_009"  >
<polygon points="415,90 435,90 440,85 435,80 415,80 415,90 " style="fill:white; stroke-width:1; stroke:black; " description="&lt;b&gt;Aspvir_006055&lt;/b&gt;&lt;br&gt;uncharacterized protein&lt;br&gt;Location: 147401 - 145908" locus_tag="Aspvir_006055" class="clusterblast-orf" id="dummy-2_h2_6_9"  />
</g>
<g id="a2_0010"  >
<polygon points="447,85 452,80 452,80 452,90 452,90 447,85 " style="fill:white; stroke-width:1; stroke:black; " description="&lt;b&gt;Aspvir_006054&lt;/b&gt;&lt;br&gt;uncharacterized protein&lt;br&gt;Location: 145530 - 145210" locus_tag="Aspvir_006054" class="clusterblast-orf" id="dummy-2_h2_6_10"  />
</g>
<g id="a2_0011"  >
<polygon points="479,90 490,90 495,85 490,80 479,80 479,90 " style="fill:white; stroke-width:1; stroke:black; " description="&lt;b&gt;Aspvir_006053&lt;/b&gt;&lt;br&gt;uncharacterized protein&lt;br&gt;Location: 143626 - 142712" locus_tag="Aspvir_006053" class="clusterblast-orf" id="dummy-2_h2_6_11"  />
</g>
<g id="a2_0012"  >
<polygon points="499,90 506,90 511,85 506,80 499,80 499,90 " style="fill:white; stroke-width:1; stroke:black; " description="&lt;b&gt;Aspvir_006052&lt;/b&gt;&lt;br&gt;uncharacterized protein&lt;br&gt;Location: 142470 - 141755" locus_tag="Aspvir_006052" class="clusterblast-orf" id="dummy-2_h2_6_12"  />
</g>
<g id="a2_0013"  >
<polygon points="514,90 522,90 527,85 522,80 514,80 514,90 " style="fill:white; stroke-width:1; stroke:black; " description="&lt;b&gt;Aspvir_006051&lt;/b&gt;&lt;br&gt;uncharacterized protein&lt;br&gt;Location: 141595 - 140858" locus_tag="Aspvir_006051" class="clusterblast-orf" id="dummy-2_h2_6_13"  />
</g>
<g id="a2_0014"  >
<polygon points="532,85 537,80 542,80 542,90 537,90 532,85 " style="fill:white; stroke-width:1; stroke:black; " description="&lt;b&gt;Aspvir_006050&lt;/b&gt;&lt;br&gt;uncharacterized protein&lt;br&gt;Location: 140579 - 139959" locus_tag="Aspvir_006050" class="clusterblast-orf" id="dummy-2_h2_6_14"  />
</g>
<g id="a2_0015"  >
<polygon points="548,85 553,80 575,80 575,90 553,90 548,85 " style="fill:white; stroke-width:1; stroke:black; " description="&lt;b&gt;Aspvir_006049&lt;/b&gt;&lt;br&gt;uncharacterized protein&lt;br&gt;Location: 139613 - 138066" locus_tag="Aspvir_006049" class="clusterblast-orf" id="dummy-2_h2_6_15"  />
</g>
<g id="a2_0016"  >
<polygon points="581,90 592,90 597,85 592,80 581,80 581,90 " style="fill:white; stroke-width:1; stroke:black; " description="&lt;b&gt;Aspvir_006048&lt;/b&gt;&lt;br&gt;uncharacterized protein&lt;br&gt;Location: 137702 - 136788" locus_tag="Aspvir_006048" class="clusterblast-orf" id="dummy-2_h2_6_16"  />
</g>
<g id="a2_0017"  >
<polygon points="605,90 625,90 630,85 625,80 605,80 605,90 " style="fill:white; stroke-width:1; stroke:black; " description="&lt;b&gt;Aspvir_006047&lt;/b&gt;&lt;br&gt;uncharacterized protein&lt;br&gt;Location: 136321 - 134858" locus_tag="Aspvir_006047" class="clusterblast-orf" id="dummy-2_h2_6_17"  />
</g>
<g id="a2_0018"  >
<polygon points="634,90 658,90 663,85 658,80 634,80 634,90 " style="fill:white; stroke-width:1; stroke:black; " description="&lt;b&gt;Aspvir_006046&lt;/b&gt;&lt;br&gt;uncharacterized protein&lt;br&gt;Location: 134608 - 132917" locus_tag="Aspvir_006046" class="clusterblast-orf" id="dummy-2_h2_6_18"  />
</g>
<g id="a2_0019"  >
<polygon points="664,85 669,80 685,80 685,90 669,90 664,85 " style="fill:white; stroke-width:1; stroke:black; " description="&lt;b&gt;Aspvir_006045&lt;/b&gt;&lt;br&gt;uncharacterized protein&lt;br&gt;Location: 132881 - 131628" locus_tag="Aspvir_006045" class="clusterblast-orf" id="dummy-2_h2_6_19"  />
</g>
<g id="a2_0020"  >
<polygon points="715,90 739,90 744,85 739,80 715,80 715,90 " style="fill:white; stroke-width:1; stroke:black; " description="&lt;b&gt;Aspvir_006044&lt;/b&gt;&lt;br&gt;uncharacterized protein&lt;br&gt;Location: 129871 - 128219" locus_tag="Aspvir_006044" class="clusterblast-orf" id="dummy-2_h2_6_20"  />
</g>
<g id="a2_0021"  >
<polygon points="746,85 751,80 780,80 780,90 751,90 746,85 " style="fill:white; stroke-width:1; stroke:black; " description="&lt;b&gt;Aspvir_006043&lt;/b&gt;&lt;br&gt;uncharacterized protein&lt;br&gt;Location: 128096 - 126119" locus_tag="Aspvir_006043" class="clusterblast-orf" id="dummy-2_h2_6_21"  />
</g>
</svg>
