<svg xmlns="http://www.w3.org/2000/svg" xmlns:xlink="http://www.w3.org/1999/xlink" version="1.1" x="0" y="0" height="230" width="800" viewBox="0 0 800 230" preserveAspectRatio="none"  >
<g label="Query sequence" class="clusterblast-cluster"  >
<text x="5" y="20" class="clusterblast-acc"  >
Query sequence</text>
<line x1="10" y1="35" x2="778.0" y2="35" style="stroke-width:1; stroke:grey; "  />
<polygon points="141,35 146,30 205,30 205,40 146,40 141,35 " style="fill:#d81515; stroke-width:1; stroke:black; " description="&lt;b&gt;input.path1.gene1063&lt;/b&gt;&lt;br&gt;input.path1.gene1063&lt;br&gt;Location: 4006033 - 4013505" locus_tag="input.path1.gene1063" class="clusterblast-orf" id="dummy-3_q0_0_all"  />
<polygon points="216,40 244,40 249,35 244,30 216,30 216,40 " style="fill:#77d815; stroke-width:1; stroke:black; " description="&lt;b&gt;input.path1.gene1064&lt;/b&gt;&lt;br&gt;input.path1.gene1064&lt;br&gt;Location: 4014766 - 4018596" locus_tag="input.path1.gene1064" class="clusterblast-orf" id="dummy-3_q1_0_all"  />
<polygon points="253,40 283,40 288,35 283,30 253,30 253,40 " style="fill:#15d8d8; stroke-width:1; stroke:black; " description="&lt;b&gt;input.path1.gene1065&lt;/b&gt;&lt;br&gt;input.path1.gene1065&lt;br&gt;Location: 4018985 - 4023077" locus_tag="input.path1.gene1065" class="clusterblast-orf" id="dummy-3_q2_0_all"  />
<polygon points="291,35 296,30 327,30 327,40 296,40 291,35 " style="fill:#7715d8; stroke-width:1; stroke:black; " description="&lt;b&gt;input.path1.gene1066&lt;/b&gt;&lt;br&gt;input.path1.gene1066&lt;br&gt;Location: 4023445 - 4027579" locus_tag="input.path1.gene1066" class="clusterblast-orf" id="dummy-3_q3_0_all"  />
<polygon points="338,35 343,30 343,30 343,40 343,40 338,35 " style="fill:white; stroke-width:1; stroke:black; " description="&lt;b&gt;input.path1.gene1067&lt;/b&gt;&lt;br&gt;input.path1.gene1067&lt;br&gt;Location: 4028812 - 4029441" locus_tag="input.path1.gene1067" class="clusterblast-orf" id="dummy-3_q4_0_all"  />
<polygon points="348,40 354,40 359,35 354,30 348,30 348,40 " style="fill:white; stroke-width:1; stroke:black; " description="&lt;b&gt;input.path1.gene1068&lt;/b&gt;&lt;br&gt;input.path1.gene1068&lt;br&gt;Location: 4030036 - 4031235" locus_tag="input.path1.gene1068" class="clusterblast-orf" id="dummy-3_q5_0_all"  />
<polygon points="370,40 386,40 391,35 386,30 370,30 370,40 " style="fill:#d87715; stroke-width:1; stroke:black; " description="&lt;b&gt;input.path1.gene1069&lt;/b&gt;&lt;br&gt;input.path1.gene1069&lt;br&gt;Location: 4032568 - 4034914" locus_tag="input.path1.gene1069" class="clusterblast-orf" id="dummy-3_q6_0_all"  />
<polygon points="393,35 397,30 397,40 393,35 " style="fill:#15d815; stroke-width:1; stroke:black; " description="&lt;b&gt;input.path1.gene1070&lt;/b&gt;&lt;br&gt;input.path1.gene1070&lt;br&gt;Location: 4035212 - 4035654" locus_tag="input.path1.gene1070" class="clusterblast-orf" id="dummy-3_q7_0_all"  />
<polygon points="439,40 456,40 461,35 456,30 439,30 439,40 " style="fill:#1577d8; stroke-width:1; stroke:black; " description="&lt;b&gt;input.path1.gene1071&lt;/b&gt;&lt;br&gt;input.path1.gene1071&lt;br&gt;Location: 4040530 - 4043019" locus_tag="input.path1.gene1071" class="clusterblast-orf" id="dummy-3_q8_0_all"  />
<polygon points="461,35 466,30 494,30 494,40 466,40 461,35 " style="fill:#d815d8; stroke-width:1; stroke:black; " description="&lt;b&gt;input.path1.gene1072&lt;/b&gt;&lt;br&gt;input.path1.gene1072&lt;br&gt;Location: 4043111 - 4046833" locus_tag="input.path1.gene1072" class="clusterblast-orf" id="dummy-3_q9_0_all"  />
<polygon points="538,40 545,40 550,35 545,30 538,30 538,40 " style="fill:#d8d815; stroke-width:1; stroke:black; " description="&lt;b&gt;input.path1.gene1073&lt;/b&gt;&lt;br&gt;input.path1.gene1073&lt;br&gt;Location: 4052007 - 4053403" locus_tag="input.path1.gene1073" class="clusterblast-orf" id="dummy-3_q10_0_all"  />
<polygon points="572,40 588,40 593,35 588,30 572,30 572,40 " style="fill:#15d877; stroke-width:1; stroke:black; " description="&lt;b&gt;input.path1.gene1074&lt;/b&gt;&lt;br&gt;input.path1.gene1074&lt;br&gt;Location: 4055956 - 4058302" locus_tag="input.path1.gene1074" class="clusterblast-orf" id="dummy-3_q11_0_all"  />
<polygon points="596,35 601,30 605,30 605,40 601,40 596,35 " style="fill:#1515d8; stroke-width:1; stroke:black; " description="&lt;b&gt;input.path1.gene1075&lt;/b&gt;&lt;br&gt;input.path1.gene1075&lt;br&gt;Location: 4058694 - 4059726" locus_tag="input.path1.gene1075" class="clusterblast-orf" id="dummy-3_q12_0_all"  />
<polygon points="627,40 633,40 638,35 633,30 627,30 627,40 " style="fill:#d81577; stroke-width:1; stroke:black; " description="&lt;b&gt;input.path1.gene1076&lt;/b&gt;&lt;br&gt;input.path1.gene1076&lt;br&gt;Location: 4062227 - 4063578" locus_tag="input.path1.gene1076" class="clusterblast-orf" id="dummy-3_q13_0_all"  />
</g>
<g label="NC_063023" description="NC_063023 (1470545-1568656): Fulvia fulva chromosome 12, complete sequence (4% of genes show similarity), fungal-RiPP-like" class="clusterblast-cluster"  >
<text x="5" y="70" class="clusterblast-acc"  >
<a xlink:href="https://antismash-db.secondarymetabolites.org/area?record=NC_063023&amp;start=1470545&amp;end=1568656" target="_blank">NC_063023 (1470545-1568656)</a>: Fulvia fulva chromosome 12, complete sequence (4% of genes show similarity), fungal-RiPP-like</text>
<line x1="10" y1="85" x2="778.0" y2="85" style="stroke-width:1; stroke:grey; "  />
</g>
<g id="a3_000"  >
<polygon points="0,90 0,90 5,85 0,80 0,80 0,90 " style="fill:white; stroke-width:1; stroke:black; " description="&lt;b&gt;CLAFUR5_13770&lt;/b&gt;&lt;br&gt;uncharacterized protein&lt;br&gt;Location: 1564625 - 1563954" locus_tag="CLAFUR5_13770" class="clusterblast-orf" id="dummy-3_h3_2_0"  />
</g>
<g id="a3_001"  >
<polygon points="9,85 11,80 11,90 9,85 " style="fill:white; stroke-width:1; stroke:black; " description="&lt;b&gt;CLAFUR5_13769&lt;/b&gt;&lt;br&gt;uncharacterized protein&lt;br&gt;Location: 1563497 - 1563267" locus_tag="CLAFUR5_13769" class="clusterblast-orf" id="dummy-3_h3_2_1"  />
</g>
<g id="a3_002"  >
<polygon points="19,90 22,85 19,80 19,90 " style="fill:white; stroke-width:1; stroke:black; " description="&lt;b&gt;CLAFUR5_13768&lt;/b&gt;&lt;br&gt;Cytochrome c oxidase subunit 8, mitochondrial&lt;br&gt;Location: 1562387 - 1562038" locus_tag="CLAFUR5_13768" class="clusterblast-orf" id="dummy-3_h3_2_2"  />
</g>
<g id="a3_003"  >
<polygon points="26,90 55,90 60,85 55,80 26,80 26,90 " style="fill:white; stroke-width:1; stroke:black; " description="&lt;b&gt;CLAFUR5_13767&lt;/b&gt;&lt;br&gt;Elongator complex protein 1&lt;br&gt;Location: 1561539 - 1557634" locus_tag="CLAFUR5_13767" class="clusterblast-orf" id="dummy-3_h3_2_3"  />
</g>
<g id="a3_004"  >
<polygon points="65,85 70,80 76,80 76,90 70,90 65,85 " style="fill:white; stroke-width:1; stroke:black; " description="&lt;b&gt;CLAFUR5_13766&lt;/b&gt;&lt;br&gt;uncharacterized protein&lt;br&gt;Location: 1557090 - 1555830" locus_tag="CLAFUR5_13766" class="clusterblast-orf" id="dummy-3_h3_2_4"  />
</g>
<g id="a3_005"  >
<polygon points="86,90 88,90 93,85 88,80 86,80 86,90 " style="fill:white; stroke-width:1; stroke:black; " description="&lt;b&gt;CLAFUR5_13765&lt;/b&gt;&lt;br&gt;uncharacterized protein&lt;br&gt;Location: 1554586 - 1553809" locus_tag="CLAFUR5_13765" class="clusterblast-orf" id="dummy-3_h3_2_5"  />
</g>
<g id="a3_006"  >
<polygon points="107,90 112,90 117,85 112,80 107,80 107,90 " style="fill:white; stroke-width:1; stroke:black; " description="&lt;b&gt;CLAFUR5_13764&lt;/b&gt;&lt;br&gt;uncharacterized protein&lt;br&gt;Location: 1552139 - 1551015" locus_tag="CLAFUR5_13764" class="clusterblast-orf" id="dummy-3_h3_2_6"  />
</g>
<g id="a3_007"  >
<polygon points="131,85 136,80 136,80 136,90 136,90 131,85 " style="fill:white; stroke-width:1; stroke:black; " description="&lt;b&gt;CLAFUR5_13763&lt;/b&gt;&lt;br&gt;uncharacterized protein&lt;br&gt;Location: 1549462 - 1548794" locus_tag="CLAFUR5_13763" class="clusterblast-orf" id="dummy-3_h3_2_7"  />
</g>
<g id="a3_008"  >
<polygon points="142,85 147,80 147,80 147,90 147,90 142,85 " style="fill:white; stroke-width:1; stroke:black; " description="&lt;b&gt;CLAFUR5_13762&lt;/b&gt;&lt;br&gt;uncharacterized protein&lt;br&gt;Location: 1548128 - 1547595" locus_tag="CLAFUR5_13762" class="clusterblast-orf" id="dummy-3_h3_2_8"  />
</g>
<g id="a3_009"  >
<polygon points="155,85 160,80 168,80 168,90 160,90 155,85 " style="fill:white; stroke-width:1; stroke:black; " description="&lt;b&gt;CLAFUR5_13761&lt;/b&gt;&lt;br&gt;CUB1 family protein&lt;br&gt;Location: 1546619 - 1545082" locus_tag="CLAFUR5_13761" class="clusterblast-orf" id="dummy-3_h3_2_9"  />
</g>
<g id="a3_0010"  >
<polygon points="172,90 172,90 177,85 172,80 172,80 172,90 " style="fill:white; stroke-width:1; stroke:black; " description="&lt;b&gt;CLAFUR5_13760&lt;/b&gt;&lt;br&gt;60S acidic ribosomal protein P1&lt;br&gt;Location: 1544629 - 1544081" locus_tag="CLAFUR5_13760" class="clusterblast-orf" id="dummy-3_h3_2_10"  />
</g>
<g id="a3_0011"  >
<polygon points="184,85 189,80 209,80 209,90 189,90 184,85 " style="fill:white; stroke-width:1; stroke:black; " description="&lt;b&gt;CLAFUR5_13759&lt;/b&gt;&lt;br&gt;Leucine-rich repeat-containing protein sog2&lt;br&gt;Location: 1543269 - 1540381" locus_tag="CLAFUR5_13759" class="clusterblast-orf" id="dummy-3_h3_2_11"  />
</g>
<g id="a3_0012"  >
<polygon points="213,90 219,90 224,85 219,80 213,80 213,90 " style="fill:white; stroke-width:1; stroke:black; " description="&lt;b&gt;CLAFUR5_13758&lt;/b&gt;&lt;br&gt;Putative lipoate-protein ligase A&lt;br&gt;Location: 1539919 - 1538684" locus_tag="CLAFUR5_13758" class="clusterblast-orf" id="dummy-3_h3_2_12"  />
</g>
<g id="a3_0013"  >
<polygon points="225,90 229,85 225,80 225,90 " style="fill:white; stroke-width:1; stroke:black; " description="&lt;b&gt;CLAFUR5_13757&lt;/b&gt;&lt;br&gt;uncharacterized protein&lt;br&gt;Location: 1538519 - 1538094" locus_tag="CLAFUR5_13757" class="clusterblast-orf" id="dummy-3_h3_2_13"  />
</g>
<g id="a3_0014"  >
<polygon points="232,90 243,90 248,85 243,80 232,80 232,90 " style="fill:white; stroke-width:1; stroke:black; " description="&lt;b&gt;CLAFUR5_13756&lt;/b&gt;&lt;br&gt;Transcriptional activator protein DAL81&lt;br&gt;Location: 1537751 - 1535887" locus_tag="CLAFUR5_13756" class="clusterblast-orf" id="dummy-3_h3_2_14"  />
</g>
<g id="a3_0015"  >
<polygon points="263,90 268,90 273,85 268,80 263,80 263,90 " style="fill:white; stroke-width:1; stroke:black; " description="&lt;b&gt;CLAFUR5_13755&lt;/b&gt;&lt;br&gt;Putative reductase 1&lt;br&gt;Location: 1534158 - 1532980" locus_tag="CLAFUR5_13755" class="clusterblast-orf" id="dummy-3_h3_2_15"  />
</g>
<g id="a3_0016"  >
<polygon points="305,90 322,90 327,85 322,80 305,80 305,90 " style="fill:#15d877; stroke-width:1; stroke:black; " description="&lt;b&gt;CLAFUR5_13754&lt;/b&gt;&lt;br&gt;uncharacterized protein&lt;br&gt;Location: 1529273 - 1526733&lt;br&gt;&lt;br&gt;&lt;b&gt;BlastP hit with input.path1.gene1074&lt;/b&gt;&lt;br&gt;Percentage identity: 62&lt;br&gt;Percentage coverage: 104&lt;br&gt;BLAST bit score: 895&lt;br&gt;E-value: 0.0" locus_tag="CLAFUR5_13754" class="clusterblast-orf" id="dummy-3_h3_2_16"  />
</g>
<g id="a3_0017"  >
<polygon points="329,90 332,90 337,85 332,80 329,80 329,90 " style="fill:white; stroke-width:1; stroke:black; " description="&lt;b&gt;CLAFUR5_13753&lt;/b&gt;&lt;br&gt;25S rRNA (uridine-N(3))-methyltransferase&lt;br&gt;Location: 1526459 - 1525548" locus_tag="CLAFUR5_13753" class="clusterblast-orf" id="dummy-3_h3_2_17"  />
</g>
<g id="a3_0018"  >
<polygon points="340,90 347,90 352,85 347,80 340,80 340,90 " style="fill:white; stroke-width:1; stroke:black; " description="&lt;b&gt;CLAFUR5_13752&lt;/b&gt;&lt;br&gt;uncharacterized protein&lt;br&gt;Location: 1525231 - 1523865" locus_tag="CLAFUR5_13752" class="clusterblast-orf" id="dummy-3_h3_2_18"  />
</g>
<g id="a3_0019"  >
<polygon points="354,85 359,80 361,80 361,90 359,90 354,85 " style="fill:white; stroke-width:1; stroke:black; " description="&lt;b&gt;CLAFUR5_13751&lt;/b&gt;&lt;br&gt;uncharacterized protein&lt;br&gt;Location: 1523656 - 1522752" locus_tag="CLAFUR5_13751" class="clusterblast-orf" id="dummy-3_h3_2_19"  />
</g>
<g id="a3_0020"  >
<polygon points="368,90 374,90 379,85 374,80 368,80 368,90 " style="fill:white; stroke-width:1; stroke:black; " description="&lt;b&gt;CLAFUR5_13750&lt;/b&gt;&lt;br&gt;uncharacterized protein&lt;br&gt;Location: 1522001 - 1520747" locus_tag="CLAFUR5_13750" class="clusterblast-orf" id="dummy-3_h3_2_20"  />
</g>
<g id="a3_0021"  >
<polygon points="394,85 399,80 409,80 409,90 399,90 394,85 " style="fill:white; stroke-width:1; stroke:black; " description="&lt;b&gt;CLAFUR5_13749&lt;/b&gt;&lt;br&gt;uncharacterized protein&lt;br&gt;Location: 1518978 - 1517276" locus_tag="CLAFUR5_13749" class="clusterblast-orf" id="dummy-3_h3_2_21"  />
</g>
<g id="a3_0022"  >
<polygon points="415,90 419,90 424,85 419,80 415,80 415,90 " style="fill:#15d815; stroke-width:1; stroke:black; " description="&lt;b&gt;CLAFUR5_13748&lt;/b&gt;&lt;br&gt;uncharacterized protein&lt;br&gt;Location: 1516530 - 1515546&lt;br&gt;&lt;br&gt;&lt;b&gt;BlastP hit with input.path1.gene1070&lt;/b&gt;&lt;br&gt;Percentage identity: 69&lt;br&gt;Percentage coverage: 73&lt;br&gt;BLAST bit score: 86&lt;br&gt;E-value: 4.57e-20" locus_tag="CLAFUR5_13748" class="clusterblast-orf" id="dummy-3_h3_2_22"  />
</g>
<g id="a3_0023"  >
<polygon points="432,90 435,85 432,80 432,90 " style="fill:white; stroke-width:1; stroke:black; " description="&lt;b&gt;CLAFUR5_13747&lt;/b&gt;&lt;br&gt;uncharacterized protein&lt;br&gt;Location: 1514573 - 1514263" locus_tag="CLAFUR5_13747" class="clusterblast-orf" id="dummy-3_h3_2_23"  />
</g>
<g id="a3_0024"  >
<polygon points="440,85 445,80 448,80 448,90 445,90 440,85 " style="fill:white; stroke-width:1; stroke:black; " description="&lt;b&gt;CLAFUR5_13746&lt;/b&gt;&lt;br&gt;Vesicle-associated membrane protein-associated protein scs2&lt;br&gt;Location: 1513709 - 1512732" locus_tag="CLAFUR5_13746" class="clusterblast-orf" id="dummy-3_h3_2_24"  />
</g>
<g id="a3_0025"  >
<polygon points="454,90 457,90 462,85 457,80 454,80 454,90 " style="fill:white; stroke-width:1; stroke:black; " description="&lt;b&gt;CLAFUR5_13745&lt;/b&gt;&lt;br&gt;UBX domain-containing protein 1&lt;br&gt;Location: 1512082 - 1511085" locus_tag="CLAFUR5_13745" class="clusterblast-orf" id="dummy-3_h3_2_25"  />
</g>
<g id="a3_0026"  >
<polygon points="465,85 470,80 475,80 475,90 470,90 465,85 " style="fill:white; stroke-width:1; stroke:black; " description="&lt;b&gt;CLAFUR5_13744&lt;/b&gt;&lt;br&gt;uncharacterized protein&lt;br&gt;Location: 1510756 - 1509566" locus_tag="CLAFUR5_13744" class="clusterblast-orf" id="dummy-3_h3_2_26"  />
</g>
<g id="a3_0027"  >
<polygon points="476,90 477,90 482,85 477,80 476,80 476,90 " style="fill:white; stroke-width:1; stroke:black; " description="&lt;b&gt;CLAFUR5_13743&lt;/b&gt;&lt;br&gt;Survival motor neuron-like protein 1&lt;br&gt;Location: 1509453 - 1508844" locus_tag="CLAFUR5_13743" class="clusterblast-orf" id="dummy-3_h3_2_27"  />
</g>
<g id="a3_0028"  >
<polygon points="482,90 484,90 489,85 484,80 482,80 482,90 " style="fill:white; stroke-width:1; stroke:black; " description="&lt;b&gt;CLAFUR5_13742&lt;/b&gt;&lt;br&gt;Heterokaryon incompatibility protein 6, OR allele&lt;br&gt;Location: 1508763 - 1507936" locus_tag="CLAFUR5_13742" class="clusterblast-orf" id="dummy-3_h3_2_28"  />
</g>
<g id="a3_0029"  >
<polygon points="506,90 513,90 518,85 513,80 506,80 506,90 " style="fill:white; stroke-width:1; stroke:black; " description="&lt;b&gt;CLAFUR5_13741&lt;/b&gt;&lt;br&gt;Glycosyl hydrolase 5 family protein&lt;br&gt;Location: 1506030 - 1504618" locus_tag="CLAFUR5_13741" class="clusterblast-orf" id="dummy-3_h3_2_29"  />
</g>
<g id="a3_0030"  >
<polygon points="526,90 530,85 526,80 526,90 " style="fill:white; stroke-width:1; stroke:black; " description="&lt;b&gt;CLAFUR5_13740&lt;/b&gt;&lt;br&gt;uncharacterized protein&lt;br&gt;Location: 1503692 - 1503253" locus_tag="CLAFUR5_13740" class="clusterblast-orf" id="dummy-3_h3_2_30"  />
</g>
<g id="a3_0031"  >
<polygon points="531,90 534,85 531,80 531,90 " style="fill:white; stroke-width:1; stroke:black; " description="&lt;b&gt;CLAFUR5_13739&lt;/b&gt;&lt;br&gt;uncharacterized protein&lt;br&gt;Location: 1503105 - 1502734" locus_tag="CLAFUR5_13739" class="clusterblast-orf" id="dummy-3_h3_2_31"  />
</g>
<g id="a3_0032"  >
<polygon points="547,90 552,90 557,85 552,80 547,80 547,90 " style="fill:white; stroke-width:1; stroke:black; " description="&lt;b&gt;CLAFUR5_13738&lt;/b&gt;&lt;br&gt;Fumonisin B1 esterase&lt;br&gt;Location: 1501326 - 1500145" locus_tag="CLAFUR5_13738" class="clusterblast-orf" id="dummy-3_h3_2_32"  />
</g>
<g id="a3_0033"  >
<polygon points="558,90 561,85 558,80 558,90 " style="fill:white; stroke-width:1; stroke:black; " description="&lt;b&gt;CLAFUR5_13737&lt;/b&gt;&lt;br&gt;uncharacterized protein&lt;br&gt;Location: 1499965 - 1499672" locus_tag="CLAFUR5_13737" class="clusterblast-orf" id="dummy-3_h3_2_33"  />
</g>
<g id="a3_0034"  >
<polygon points="571,90 583,90 588,85 583,80 571,80 571,90 " style="fill:white; stroke-width:1; stroke:black; " description="&lt;b&gt;CLAFUR5_13736&lt;/b&gt;&lt;br&gt;Cationic amino acid transporter 1&lt;br&gt;Location: 1498451 - 1496478" locus_tag="CLAFUR5_13736" class="clusterblast-orf" id="dummy-3_h3_2_34"  />
</g>
<g id="a3_0035"  >
<polygon points="623,90 659,90 664,85 659,80 623,80 623,90 " style="fill:white; stroke-width:1; stroke:black; " description="&lt;b&gt;CLAFUR5_13735&lt;/b&gt;&lt;br&gt;ABC multidrug transporter atrG&lt;br&gt;Location: 1492501 - 1487768" locus_tag="CLAFUR5_13735" class="clusterblast-orf" id="dummy-3_h3_2_35"  />
</g>
<g id="a3_0036"  >
<polygon points="690,85 695,80 702,80 702,90 695,90 690,85 " style="fill:white; stroke-width:1; stroke:black; " description="&lt;b&gt;CLAFUR5_13734&lt;/b&gt;&lt;br&gt;uncharacterized protein&lt;br&gt;Location: 1484750 - 1483290" locus_tag="CLAFUR5_13734" class="clusterblast-orf" id="dummy-3_h3_2_36"  />
</g>
<g id="a3_0037"  >
<polygon points="707,90 732,90 737,85 732,80 707,80 707,90 " style="fill:white; stroke-width:1; stroke:black; " description="&lt;b&gt;CLAFUR5_13733&lt;/b&gt;&lt;br&gt;DNA mismatch repair protein MLH3&lt;br&gt;Location: 1482759 - 1479301" locus_tag="CLAFUR5_13733" class="clusterblast-orf" id="dummy-3_h3_2_37"  />
</g>
<g id="a3_0038"  >
<polygon points="742,85 747,80 756,80 756,90 747,90 742,85 " style="fill:white; stroke-width:1; stroke:black; " description="&lt;b&gt;CLAFUR5_13732&lt;/b&gt;&lt;br&gt;uncharacterized protein&lt;br&gt;Location: 1478694 - 1477095" locus_tag="CLAFUR5_13732" class="clusterblast-orf" id="dummy-3_h3_2_38"  />
</g>
<g id="a3_0039"  >
<polygon points="761,85 766,80 771,80 771,90 766,90 761,85 " style="fill:white; stroke-width:1; stroke:black; " description="&lt;b&gt;CLAFUR5_13731&lt;/b&gt;&lt;br&gt;Proline iminopeptidase&lt;br&gt;Location: 1476561 - 1475330" locus_tag="CLAFUR5_13731" class="clusterblast-orf" id="dummy-3_h3_2_39"  />
</g>
<g id="a3_0040"  >
<polygon points="773,90 775,90 780,85 775,80 773,80 773,90 " style="fill:white; stroke-width:1; stroke:black; " description="&lt;b&gt;CLAFUR5_13730&lt;/b&gt;&lt;br&gt;UDP-N-acetylglucosamine transferase subunit alg14&lt;br&gt;Location: 1475119 - 1474379" locus_tag="CLAFUR5_13730" class="clusterblast-orf" id="dummy-3_h3_2_40"  />
</g>
</svg>
