<svg xmlns="http://www.w3.org/2000/svg" xmlns:xlink="http://www.w3.org/1999/xlink" version="1.1" x="0" y="0" height="230" width="800" viewBox="0 0 800 230" preserveAspectRatio="none"  >
<g label="Query sequence" class="clusterblast-cluster"  >
<text x="5" y="20" class="clusterblast-acc"  >
Query sequence</text>
<line x1="10" y1="35" x2="778.0" y2="35" style="stroke-width:1; stroke:grey; "  />
<polygon points="320,35 324,30 324,40 320,35 " style="fill:#d81515; stroke-width:1; stroke:black; " description="&lt;b&gt;input.path1.gene13&lt;/b&gt;&lt;br&gt;input.path1.gene13&lt;br&gt;Location: 83476 - 84879" locus_tag="input.path1.gene13" class="clusterblast-orf" id="dummy-1_q0_0_all"  />
<polygon points="325,40 326,40 331,35 326,30 325,30 325,40 " style="fill:#63d815; stroke-width:1; stroke:black; " description="&lt;b&gt;input.path1.gene14&lt;/b&gt;&lt;br&gt;input.path1.gene14&lt;br&gt;Location: 85583 - 87941" locus_tag="input.path1.gene14" class="clusterblast-orf" id="dummy-1_q1_0_all"  />
<polygon points="344,40 345,35 344,30 344,40 " style="fill:white; stroke-width:1; stroke:black; " description="&lt;b&gt;input.path1.gene15&lt;/b&gt;&lt;br&gt;input.path1.gene15&lt;br&gt;Location: 93171 - 93959" locus_tag="input.path1.gene15" class="clusterblast-orf" id="dummy-1_q2_0_all"  />
<polygon points="374,35 379,30 379,30 379,40 379,40 374,35 " style="fill:#15b1d8; stroke-width:1; stroke:black; " description="&lt;b&gt;input.path1.gene16&lt;/b&gt;&lt;br&gt;input.path1.gene16&lt;br&gt;Location: 105819 - 108096" locus_tag="input.path1.gene16" class="clusterblast-orf" id="dummy-1_q3_0_all"  />
<polygon points="380,40 382,35 380,30 380,40 " style="fill:#b115d8; stroke-width:1; stroke:black; " description="&lt;b&gt;input.path1.gene17&lt;/b&gt;&lt;br&gt;input.path1.gene17&lt;br&gt;Location: 108563 - 109253" locus_tag="input.path1.gene17" class="clusterblast-orf" id="dummy-1_q4_0_all"  />
<polygon points="382,35 386,30 386,40 382,35 " style="fill:white; stroke-width:1; stroke:black; " description="&lt;b&gt;input.path1.gene18&lt;/b&gt;&lt;br&gt;input.path1.gene18&lt;br&gt;Location: 109395 - 110937" locus_tag="input.path1.gene18" class="clusterblast-orf" id="dummy-1_q5_0_all"  />
<polygon points="389,40 392,35 389,30 389,40 " style="fill:#d86315; stroke-width:1; stroke:black; " description="&lt;b&gt;input.path1.gene19&lt;/b&gt;&lt;br&gt;input.path1.gene19&lt;br&gt;Location: 112411 - 113558" locus_tag="input.path1.gene19" class="clusterblast-orf" id="dummy-1_q6_0_all"  />
<polygon points="394,35 396,30 396,40 394,35 " style="fill:#15d815; stroke-width:1; stroke:black; " description="&lt;b&gt;input.path1.gene20&lt;/b&gt;&lt;br&gt;input.path1.gene20&lt;br&gt;Location: 114435 - 115293" locus_tag="input.path1.gene20" class="clusterblast-orf" id="dummy-1_q7_0_all"  />
<polygon points="400,35 401,30 401,40 400,35 " style="fill:#1563d8; stroke-width:1; stroke:black; " description="&lt;b&gt;input.path1.gene21&lt;/b&gt;&lt;br&gt;input.path1.gene21&lt;br&gt;Location: 116765 - 117505" locus_tag="input.path1.gene21" class="clusterblast-orf" id="dummy-1_q8_0_all"  />
<polygon points="405,40 406,35 405,30 405,40 " style="fill:#d815b1; stroke-width:1; stroke:black; " description="&lt;b&gt;input.path1.gene22&lt;/b&gt;&lt;br&gt;input.path1.gene22&lt;br&gt;Location: 119055 - 119619" locus_tag="input.path1.gene22" class="clusterblast-orf" id="dummy-1_q9_0_all"  />
<polygon points="409,35 411,30 411,40 409,35 " style="fill:white; stroke-width:1; stroke:black; " description="&lt;b&gt;input.path1.gene23&lt;/b&gt;&lt;br&gt;input.path1.gene23&lt;br&gt;Location: 120841 - 121518" locus_tag="input.path1.gene23" class="clusterblast-orf" id="dummy-1_q10_0_all"  />
<polygon points="415,40 422,40 427,35 422,30 415,30 415,40 " style="fill:#d8b115; stroke-width:1; stroke:black; " description="&lt;b&gt;input.path1.gene24&lt;/b&gt;&lt;br&gt;input.path1.gene24&lt;br&gt;Location: 123239 - 128165" locus_tag="input.path1.gene24" class="clusterblast-orf" id="dummy-1_q11_0_all"  />
<polygon points="428,35 433,30 435,30 435,40 433,40 428,35 " style="fill:#15d863; stroke-width:1; stroke:black; " description="&lt;b&gt;input.path1.gene25&lt;/b&gt;&lt;br&gt;input.path1.gene25&lt;br&gt;Location: 128750 - 131631" locus_tag="input.path1.gene25" class="clusterblast-orf" id="dummy-1_q12_0_all"  />
<polygon points="437,40 440,35 437,30 437,40 " style="fill:#1515d8; stroke-width:1; stroke:black; " description="&lt;b&gt;input.path1.gene26&lt;/b&gt;&lt;br&gt;input.path1.gene26&lt;br&gt;Location: 132531 - 133527" locus_tag="input.path1.gene26" class="clusterblast-orf" id="dummy-1_q13_0_all"  />
<polygon points="442,35 446,30 446,40 442,35 " style="fill:#d81563; stroke-width:1; stroke:black; " description="&lt;b&gt;input.path1.gene27&lt;/b&gt;&lt;br&gt;input.path1.gene27&lt;br&gt;Location: 134405 - 136292" locus_tag="input.path1.gene27" class="clusterblast-orf" id="dummy-1_q14_0_all"  />
<polygon points="449,40 449,35 449,30 449,40 " style="fill:#b1d815; stroke-width:1; stroke:black; " description="&lt;b&gt;input.path1.gene28&lt;/b&gt;&lt;br&gt;input.path1.gene28&lt;br&gt;Location: 137339 - 137510" locus_tag="input.path1.gene28" class="clusterblast-orf" id="dummy-1_q15_0_all"  />
<polygon points="451,35 454,30 454,40 451,35 " style="fill:#15d8b1; stroke-width:1; stroke:black; " description="&lt;b&gt;input.path1.gene29&lt;/b&gt;&lt;br&gt;input.path1.gene29&lt;br&gt;Location: 138149 - 139664" locus_tag="input.path1.gene29" class="clusterblast-orf" id="dummy-1_q16_0_all"  />
<polygon points="456,35 459,30 459,40 456,35 " style="fill:#6315d8; stroke-width:1; stroke:black; " description="&lt;b&gt;input.path1.gene30&lt;/b&gt;&lt;br&gt;input.path1.gene30&lt;br&gt;Location: 140459 - 141523" locus_tag="input.path1.gene30" class="clusterblast-orf" id="dummy-1_q17_0_all"  />
</g>
<g label="NW_019154045" description="NW_019154045 (358401-688746): Pochonia chlamydosporia 170 chromosome Unknown ... (10% of genes show similarity), fungal-RiPP-like" class="clusterblast-cluster"  >
<text x="5" y="70" class="clusterblast-acc"  >
<a xlink:href="https://antismash-db.secondarymetabolites.org/area?record=NW_019154045&amp;start=358401&amp;end=688746" target="_blank">NW_019154045 (358401-688746)</a>: Pochonia chlamydosporia 170 chromosome Unknown ... (10% of genes show similarity), fungal-RiPP-like</text>
<line x1="10" y1="85" x2="778.0" y2="85" style="stroke-width:1; stroke:grey; "  />
</g>
<g id="a1_000"  >
<polygon points="0,90 3,85 0,80 0,90 " style="fill:white; stroke-width:1; stroke:black; " description="&lt;b&gt;VFPPC_10137&lt;/b&gt;&lt;br&gt;malic acid transport protein&lt;br&gt;Location: 687336 - 686008" locus_tag="VFPPC_10137" class="clusterblast-orf" id="dummy-1_h1_1_0"  />
</g>
<g id="a1_001"  >
<polygon points="8,85 10,80 10,90 8,85 " style="fill:white; stroke-width:1; stroke:black; " description="&lt;b&gt;VFPPC_16885&lt;/b&gt;&lt;br&gt;fungal zn(2)-Cys(6) binuclear cluster domain-containing protein&lt;br&gt;Location: 683665 - 682917" locus_tag="VFPPC_16885" class="clusterblast-orf" id="dummy-1_h1_1_1"  />
</g>
<g id="a1_002"  >
<polygon points="41,90 45,85 41,80 41,90 " style="fill:white; stroke-width:1; stroke:black; " description="&lt;b&gt;VFPPC_10140&lt;/b&gt;&lt;br&gt;fungal specific transcription factor domain-containing protein&lt;br&gt;Location: 669882 - 668006" locus_tag="VFPPC_10140" class="clusterblast-orf" id="dummy-1_h1_1_2"  />
</g>
<g id="a1_003"  >
<polygon points="46,85 51,80 52,80 52,90 51,90 46,85 " style="fill:white; stroke-width:1; stroke:black; " description="&lt;b&gt;VFPPC_10141&lt;/b&gt;&lt;br&gt;copper amine oxidase&lt;br&gt;Location: 667768 - 665444" locus_tag="VFPPC_10141" class="clusterblast-orf" id="dummy-1_h1_1_3"  />
</g>
<g id="a1_004"  >
<polygon points="53,85 55,80 55,90 53,85 " style="fill:white; stroke-width:1; stroke:black; " description="&lt;b&gt;VFPPC_10142&lt;/b&gt;&lt;br&gt;phytanoyl- dioxygenase protein&lt;br&gt;Location: 664796 - 663924" locus_tag="VFPPC_10142" class="clusterblast-orf" id="dummy-1_h1_1_4"  />
</g>
<g id="a1_005"  >
<polygon points="57,90 61,85 57,80 57,90 " style="fill:white; stroke-width:1; stroke:black; " description="&lt;b&gt;VFPPC_10143&lt;/b&gt;&lt;br&gt;amino acid transporter&lt;br&gt;Location: 663261 - 661617" locus_tag="VFPPC_10143" class="clusterblast-orf" id="dummy-1_h1_1_5"  />
</g>
<g id="a1_006"  >
<polygon points="62,85 64,80 64,90 62,85 " style="fill:white; stroke-width:1; stroke:black; " description="&lt;b&gt;VFPPC_10144&lt;/b&gt;&lt;br&gt;gluconate 5-dehydrogenase&lt;br&gt;Location: 661172 - 660405" locus_tag="VFPPC_10144" class="clusterblast-orf" id="dummy-1_h1_1_6"  />
</g>
<g id="a1_007"  >
<polygon points="65,90 68,85 65,80 65,90 " style="fill:white; stroke-width:1; stroke:black; " description="&lt;b&gt;VFPPC_10145&lt;/b&gt;&lt;br&gt;endoribonuclease l-PSP domain-containing protein&lt;br&gt;Location: 659666 - 658378" locus_tag="VFPPC_10145" class="clusterblast-orf" id="dummy-1_h1_1_7"  />
</g>
<g id="a1_008"  >
<polygon points="91,85 96,80 102,80 102,90 96,90 91,85 " style="fill:white; stroke-width:1; stroke:black; " description="&lt;b&gt;VFPPC_10146&lt;/b&gt;&lt;br&gt;ABC bile acid transporter&lt;br&gt;Location: 648784 - 644374" locus_tag="VFPPC_10146" class="clusterblast-orf" id="dummy-1_h1_1_8"  />
</g>
<g id="a1_009"  >
<polygon points="103,85 105,80 105,90 103,85 " style="fill:white; stroke-width:1; stroke:black; " description="&lt;b&gt;VFPPC_14723&lt;/b&gt;&lt;br&gt;hypothetical protein&lt;br&gt;Location: 643746 - 642792" locus_tag="VFPPC_14723" class="clusterblast-orf" id="dummy-1_h1_1_9"  />
</g>
<g id="a1_0010"  >
<polygon points="107,90 107,85 107,80 107,90 " style="fill:white; stroke-width:1; stroke:black; " description="&lt;b&gt;VFPPC_14724&lt;/b&gt;&lt;br&gt;hypothetical protein&lt;br&gt;Location: 642315 - 642056" locus_tag="VFPPC_14724" class="clusterblast-orf" id="dummy-1_h1_1_10"  />
</g>
<g id="a1_0011"  >
<polygon points="109,85 111,80 111,90 109,85 " style="fill:white; stroke-width:1; stroke:black; " description="&lt;b&gt;VFPPC_16886&lt;/b&gt;&lt;br&gt;hypothetical protein&lt;br&gt;Location: 641162 - 640366" locus_tag="VFPPC_16886" class="clusterblast-orf" id="dummy-1_h1_1_11"  />
</g>
<g id="a1_0012"  >
<polygon points="112,85 113,80 113,90 112,85 " style="fill:white; stroke-width:1; stroke:black; " description="&lt;b&gt;VFPPC_10147&lt;/b&gt;&lt;br&gt;ankyrin repeat domain-containing protein&lt;br&gt;Location: 640044 - 639568" locus_tag="VFPPC_10147" class="clusterblast-orf" id="dummy-1_h1_1_12"  />
</g>
<g id="a1_0013"  >
<polygon points="119,85 121,80 121,90 119,85 " style="fill:white; stroke-width:1; stroke:black; " description="&lt;b&gt;VFPPC_10148&lt;/b&gt;&lt;br&gt;histidine phosphatase superfamily (branch 1) domain-containing protein&lt;br&gt;Location: 637247 - 636417" locus_tag="VFPPC_10148" class="clusterblast-orf" id="dummy-1_h1_1_13"  />
</g>
<g id="a1_0014"  >
<polygon points="124,90 125,85 124,80 124,90 " style="fill:white; stroke-width:1; stroke:black; " description="&lt;b&gt;VFPPC_10150&lt;/b&gt;&lt;br&gt;vacuolar sorting protein&lt;br&gt;Location: 635197 - 634453" locus_tag="VFPPC_10150" class="clusterblast-orf" id="dummy-1_h1_1_14"  />
</g>
<g id="a1_0015"  >
<polygon points="134,90 135,85 134,80 134,90 " style="fill:white; stroke-width:1; stroke:black; " description="&lt;b&gt;VFPPC_14725&lt;/b&gt;&lt;br&gt;hypothetical protein&lt;br&gt;Location: 630725 - 630348" locus_tag="VFPPC_14725" class="clusterblast-orf" id="dummy-1_h1_1_15"  />
</g>
<g id="a1_0016"  >
<polygon points="141,90 141,90 146,85 141,80 141,80 141,90 " style="fill:white; stroke-width:1; stroke:black; " description="&lt;b&gt;VFPPC_10152&lt;/b&gt;&lt;br&gt;hypothetical protein&lt;br&gt;Location: 627827 - 625967" locus_tag="VFPPC_10152" class="clusterblast-orf" id="dummy-1_h1_1_16"  />
</g>
<g id="a1_0017"  >
<polygon points="149,90 149,85 149,80 149,90 " style="fill:white; stroke-width:1; stroke:black; " description="&lt;b&gt;VFPPC_16887&lt;/b&gt;&lt;br&gt;hypothetical protein&lt;br&gt;Location: 624627 - 624418" locus_tag="VFPPC_16887" class="clusterblast-orf" id="dummy-1_h1_1_17"  />
</g>
<g id="a1_0018"  >
<polygon points="157,85 161,80 161,90 157,85 " style="fill:white; stroke-width:1; stroke:black; " description="&lt;b&gt;VFPPC_10154&lt;/b&gt;&lt;br&gt;L-galactonate dehydratase&lt;br&gt;Location: 621238 - 619660" locus_tag="VFPPC_10154" class="clusterblast-orf" id="dummy-1_h1_1_18"  />
</g>
<g id="a1_0019"  >
<polygon points="162,90 166,85 162,80 162,90 " style="fill:white; stroke-width:1; stroke:black; " description="&lt;b&gt;VFPPC_10155&lt;/b&gt;&lt;br&gt;sugar transporter&lt;br&gt;Location: 619143 - 617318" locus_tag="VFPPC_10155" class="clusterblast-orf" id="dummy-1_h1_1_19"  />
</g>
<g id="a1_0020"  >
<polygon points="167,85 170,80 170,90 167,85 " style="fill:white; stroke-width:1; stroke:black; " description="&lt;b&gt;VFPPC_10157&lt;/b&gt;&lt;br&gt;aryl-alcohol dehydrogenase protein&lt;br&gt;Location: 616738 - 615701" locus_tag="VFPPC_10157" class="clusterblast-orf" id="dummy-1_h1_1_20"  />
</g>
<g id="a1_0021"  >
<polygon points="182,85 184,80 184,90 182,85 " style="fill:white; stroke-width:1; stroke:black; " description="&lt;b&gt;VFPPC_10158&lt;/b&gt;&lt;br&gt;cerato-platanin&lt;br&gt;Location: 610562 - 609753" locus_tag="VFPPC_10158" class="clusterblast-orf" id="dummy-1_h1_1_21"  />
</g>
<g id="a1_0022"  >
<polygon points="187,90 191,85 187,80 187,90 " style="fill:white; stroke-width:1; stroke:black; " description="&lt;b&gt;VFPPC_10159&lt;/b&gt;&lt;br&gt;feruloyl esterase&lt;br&gt;Location: 608407 - 606818" locus_tag="VFPPC_10159" class="clusterblast-orf" id="dummy-1_h1_1_22"  />
</g>
<g id="a1_0023"  >
<polygon points="201,90 203,85 201,80 201,90 " style="fill:white; stroke-width:1; stroke:black; " description="&lt;b&gt;VFPPC_10162&lt;/b&gt;&lt;br&gt;epoxide hydrolase&lt;br&gt;Location: 602660 - 601623" locus_tag="VFPPC_10162" class="clusterblast-orf" id="dummy-1_h1_1_23"  />
</g>
<g id="a1_0024"  >
<polygon points="204,85 206,80 206,90 204,85 " style="fill:white; stroke-width:1; stroke:black; " description="&lt;b&gt;VFPPC_10163&lt;/b&gt;&lt;br&gt;methyl transferase-like protein&lt;br&gt;Location: 601299 - 600531" locus_tag="VFPPC_10163" class="clusterblast-orf" id="dummy-1_h1_1_24"  />
</g>
<g id="a1_0025"  >
<polygon points="218,85 223,80 224,80 224,90 223,90 218,85 " style="fill:white; stroke-width:1; stroke:black; " description="&lt;b&gt;VFPPC_10166&lt;/b&gt;&lt;br&gt;uracil permease&lt;br&gt;Location: 595349 - 593018" locus_tag="VFPPC_10166" class="clusterblast-orf" id="dummy-1_h1_1_25"  />
</g>
<g id="a1_0026"  >
<polygon points="232,85 235,80 235,90 232,85 " style="fill:white; stroke-width:1; stroke:black; " description="&lt;b&gt;VFPPC_10167&lt;/b&gt;&lt;br&gt;AT DNA binding protein&lt;br&gt;Location: 589767 - 588293" locus_tag="VFPPC_10167" class="clusterblast-orf" id="dummy-1_h1_1_26"  />
</g>
<g id="a1_0027"  >
<polygon points="237,85 242,80 243,80 243,90 242,90 237,85 " style="fill:white; stroke-width:1; stroke:black; " description="&lt;b&gt;VFPPC_10168&lt;/b&gt;&lt;br&gt;ADAM 8 precursor&lt;br&gt;Location: 587553 - 585116" locus_tag="VFPPC_10168" class="clusterblast-orf" id="dummy-1_h1_1_27"  />
</g>
<g id="a1_0028"  >
<polygon points="249,85 251,80 251,90 249,85 " style="fill:white; stroke-width:1; stroke:black; " description="&lt;b&gt;VFPPC_14726&lt;/b&gt;&lt;br&gt;hypothetical protein&lt;br&gt;Location: 582518 - 581729" locus_tag="VFPPC_14726" class="clusterblast-orf" id="dummy-1_h1_1_28"  />
</g>
<g id="a1_0029"  >
<polygon points="253,85 255,80 255,90 253,85 " style="fill:white; stroke-width:1; stroke:black; " description="&lt;b&gt;VFPPC_10169&lt;/b&gt;&lt;br&gt;nitrilase/cyanide hydratase and apolipoprotein N-acyltransferase&lt;br&gt;Location: 580941 - 579997" locus_tag="VFPPC_10169" class="clusterblast-orf" id="dummy-1_h1_1_29"  />
</g>
<g id="a1_0030"  >
<polygon points="256,85 260,80 260,90 256,85 " style="fill:white; stroke-width:1; stroke:black; " description="&lt;b&gt;VFPPC_10170&lt;/b&gt;&lt;br&gt;transmembrane protein&lt;br&gt;Location: 579368 - 578047" locus_tag="VFPPC_10170" class="clusterblast-orf" id="dummy-1_h1_1_30"  />
</g>
<g id="a1_0031"  >
<polygon points="261,90 262,85 261,80 261,90 " style="fill:white; stroke-width:1; stroke:black; " description="&lt;b&gt;VFPPC_16888&lt;/b&gt;&lt;br&gt;hypothetical protein&lt;br&gt;Location: 577460 - 577185" locus_tag="VFPPC_16888" class="clusterblast-orf" id="dummy-1_h1_1_31"  />
</g>
<g id="a1_0032"  >
<polygon points="266,90 267,90 272,85 267,80 266,80 266,90 " style="fill:#d8b115; stroke-width:1; stroke:black; " description="&lt;b&gt;VFPPC_10172&lt;/b&gt;&lt;br&gt;dipeptidyl-peptidase IV&lt;br&gt;Location: 575199 - 572872&lt;br&gt;&lt;br&gt;&lt;b&gt;BlastP hit with input.path1.gene24&lt;/b&gt;&lt;br&gt;Percentage identity: 73&lt;br&gt;Percentage coverage: 51&lt;br&gt;BLAST bit score: 1180&lt;br&gt;E-value: 0.0" locus_tag="VFPPC_10172" class="clusterblast-orf" id="dummy-1_h1_1_32"  />
</g>
<g id="a1_0033"  >
<polygon points="272,85 276,80 276,90 272,85 " style="fill:white; stroke-width:1; stroke:black; " description="&lt;b&gt;VFPPC_10173&lt;/b&gt;&lt;br&gt;hypothetical protein&lt;br&gt;Location: 572658 - 571186" locus_tag="VFPPC_10173" class="clusterblast-orf" id="dummy-1_h1_1_33"  />
</g>
<g id="a1_0034"  >
<polygon points="277,85 282,80 290,80 290,90 282,90 277,85 " style="fill:white; stroke-width:1; stroke:black; " description="&lt;b&gt;VFPPC_10175&lt;/b&gt;&lt;br&gt;ABC multidrug transporter&lt;br&gt;Location: 570521 - 565332" locus_tag="VFPPC_10175" class="clusterblast-orf" id="dummy-1_h1_1_34"  />
</g>
<g id="a1_0035"  >
<polygon points="294,90 297,85 294,80 294,90 " style="fill:white; stroke-width:1; stroke:black; " description="&lt;b&gt;VFPPC_14727&lt;/b&gt;&lt;br&gt;hypothetical protein&lt;br&gt;Location: 563421 - 562340" locus_tag="VFPPC_14727" class="clusterblast-orf" id="dummy-1_h1_1_35"  />
</g>
<g id="a1_0036"  >
<polygon points="299,85 303,80 303,90 299,85 " style="fill:white; stroke-width:1; stroke:black; " description="&lt;b&gt;VFPPC_10176&lt;/b&gt;&lt;br&gt;MFS transporter&lt;br&gt;Location: 561509 - 559731" locus_tag="VFPPC_10176" class="clusterblast-orf" id="dummy-1_h1_1_36"  />
</g>
<g id="a1_0037"  >
<polygon points="306,85 310,80 310,90 306,85 " style="fill:white; stroke-width:1; stroke:black; " description="&lt;b&gt;VFPPC_16889&lt;/b&gt;&lt;br&gt;transcription factor Cys6&lt;br&gt;Location: 558370 - 556780" locus_tag="VFPPC_16889" class="clusterblast-orf" id="dummy-1_h1_1_37"  />
</g>
<g id="a1_0038"  >
<polygon points="313,85 315,80 315,90 313,85 " style="fill:white; stroke-width:1; stroke:black; " description="&lt;b&gt;VFPPC_10177&lt;/b&gt;&lt;br&gt;C6 transcription factor&lt;br&gt;Location: 555628 - 554879" locus_tag="VFPPC_10177" class="clusterblast-orf" id="dummy-1_h1_1_38"  />
</g>
<g id="a1_0039"  >
<polygon points="318,90 320,85 318,80 318,90 " style="fill:white; stroke-width:1; stroke:black; " description="&lt;b&gt;VFPPC_10178&lt;/b&gt;&lt;br&gt;NAD dependent epimerase/dehydratase family protein&lt;br&gt;Location: 553611 - 552520" locus_tag="VFPPC_10178" class="clusterblast-orf" id="dummy-1_h1_1_39"  />
</g>
<g id="a1_0040"  >
<polygon points="321,85 323,80 323,90 321,85 " style="fill:white; stroke-width:1; stroke:black; " description="&lt;b&gt;VFPPC_10179&lt;/b&gt;&lt;br&gt;endonuclease/exonuclease/phosphatase family protein&lt;br&gt;Location: 552374 - 551336" locus_tag="VFPPC_10179" class="clusterblast-orf" id="dummy-1_h1_1_40"  />
</g>
<g id="a1_0041"  >
<polygon points="334,90 334,90 339,85 334,80 334,80 334,90 " style="fill:white; stroke-width:1; stroke:black; " description="&lt;b&gt;VFPPC_10181&lt;/b&gt;&lt;br&gt;fungal specific transcription factor domain-containing protein&lt;br&gt;Location: 546765 - 544669" locus_tag="VFPPC_10181" class="clusterblast-orf" id="dummy-1_h1_1_41"  />
</g>
<g id="a1_0042"  >
<polygon points="339,85 342,80 342,90 339,85 " style="fill:white; stroke-width:1; stroke:black; " description="&lt;b&gt;VFPPC_10182&lt;/b&gt;&lt;br&gt;ketoreductase&lt;br&gt;Location: 544492 - 543423" locus_tag="VFPPC_10182" class="clusterblast-orf" id="dummy-1_h1_1_42"  />
</g>
<g id="a1_0043"  >
<polygon points="348,85 352,80 352,90 348,85 " style="fill:white; stroke-width:1; stroke:black; " description="&lt;b&gt;VFPPC_10184&lt;/b&gt;&lt;br&gt;major facilitator superfamily transporter&lt;br&gt;Location: 540765 - 539043" locus_tag="VFPPC_10184" class="clusterblast-orf" id="dummy-1_h1_1_43"  />
</g>
<g id="a1_0044"  >
<polygon points="354,90 356,85 354,80 354,90 " style="fill:white; stroke-width:1; stroke:black; " description="&lt;b&gt;VFPPC_10185&lt;/b&gt;&lt;br&gt;aldolase citrate lyase family protein&lt;br&gt;Location: 538481 - 537492" locus_tag="VFPPC_10185" class="clusterblast-orf" id="dummy-1_h1_1_44"  />
</g>
<g id="a1_0045"  >
<polygon points="357,85 358,80 358,90 357,85 " style="fill:white; stroke-width:1; stroke:black; " description="&lt;b&gt;VFPPC_14728&lt;/b&gt;&lt;br&gt;alginate lyase&lt;br&gt;Location: 537288 - 536560" locus_tag="VFPPC_14728" class="clusterblast-orf" id="dummy-1_h1_1_45"  />
</g>
<g id="a1_0046"  >
<polygon points="360,85 363,80 363,90 360,85 " style="fill:white; stroke-width:1; stroke:black; " description="&lt;b&gt;VFPPC_14729&lt;/b&gt;&lt;br&gt;hypothetical protein&lt;br&gt;Location: 535649 - 534375" locus_tag="VFPPC_14729" class="clusterblast-orf" id="dummy-1_h1_1_46"  />
</g>
<g id="a1_0047"  >
<polygon points="367,85 371,80 371,90 367,85 " style="fill:white; stroke-width:1; stroke:black; " description="&lt;b&gt;VFPPC_10186&lt;/b&gt;&lt;br&gt;lipase 1 precursor&lt;br&gt;Location: 532693 - 531215" locus_tag="VFPPC_10186" class="clusterblast-orf" id="dummy-1_h1_1_47"  />
</g>
<g id="a1_0048"  >
<polygon points="376,90 379,85 376,80 376,90 " style="fill:white; stroke-width:1; stroke:black; " description="&lt;b&gt;VFPPC_16890&lt;/b&gt;&lt;br&gt;globin-like-protein&lt;br&gt;Location: 529052 - 528054" locus_tag="VFPPC_16890" class="clusterblast-orf" id="dummy-1_h1_1_48"  />
</g>
<g id="a1_0049"  >
<polygon points="379,85 384,80 386,80 386,90 384,90 379,85 " style="fill:white; stroke-width:1; stroke:black; " description="&lt;b&gt;VFPPC_10188&lt;/b&gt;&lt;br&gt;60S ribosomal protein L19&lt;br&gt;Location: 527907 - 524875" locus_tag="VFPPC_10188" class="clusterblast-orf" id="dummy-1_h1_1_49"  />
</g>
<g id="a1_0050"  >
<polygon points="390,90 390,90 395,85 390,80 390,80 390,90 " style="fill:white; stroke-width:1; stroke:black; " description="&lt;b&gt;VFPPC_10189&lt;/b&gt;&lt;br&gt;glycoside hydrolase family 79&lt;br&gt;Location: 523179 - 521285" locus_tag="VFPPC_10189" class="clusterblast-orf" id="dummy-1_h1_1_50"  />
</g>
<g id="a1_0051"  >
<polygon points="398,85 401,80 401,90 398,85 " style="fill:white; stroke-width:1; stroke:black; " description="&lt;b&gt;VFPPC_10190&lt;/b&gt;&lt;br&gt;hypothetical protein&lt;br&gt;Location: 519971 - 518819" locus_tag="VFPPC_10190" class="clusterblast-orf" id="dummy-1_h1_1_51"  />
</g>
<g id="a1_0052"  >
<polygon points="408,90 411,85 408,80 408,90 " style="fill:white; stroke-width:1; stroke:black; " description="&lt;b&gt;VFPPC_10191&lt;/b&gt;&lt;br&gt;serum paraoxonase/arylesterase family protein&lt;br&gt;Location: 515738 - 514326" locus_tag="VFPPC_10191" class="clusterblast-orf" id="dummy-1_h1_1_52"  />
</g>
<g id="a1_0053"  >
<polygon points="412,85 414,80 414,90 412,85 " style="fill:white; stroke-width:1; stroke:black; " description="&lt;b&gt;VFPPC_10192&lt;/b&gt;&lt;br&gt;threonyl/alanyl tRNA synthetase&lt;br&gt;Location: 514163 - 513297" locus_tag="VFPPC_10192" class="clusterblast-orf" id="dummy-1_h1_1_53"  />
</g>
<g id="a1_0054"  >
<polygon points="418,90 418,90 423,85 418,80 418,80 418,90 " style="fill:white; stroke-width:1; stroke:black; " description="&lt;b&gt;VFPPC_10193&lt;/b&gt;&lt;br&gt;non-hemolytic phospholipase C precursor&lt;br&gt;Location: 511529 - 509524" locus_tag="VFPPC_10193" class="clusterblast-orf" id="dummy-1_h1_1_54"  />
</g>
<g id="a1_0055"  >
<polygon points="423,85 428,80 428,80 428,90 428,90 423,85 " style="fill:white; stroke-width:1; stroke:black; " description="&lt;b&gt;VFPPC_10194&lt;/b&gt;&lt;br&gt;sugar transporter&lt;br&gt;Location: 509321 - 507355" locus_tag="VFPPC_10194" class="clusterblast-orf" id="dummy-1_h1_1_55"  />
</g>
<g id="a1_0056"  >
<polygon points="431,85 433,80 433,90 431,85 " style="fill:white; stroke-width:1; stroke:black; " description="&lt;b&gt;VFPPC_10195&lt;/b&gt;&lt;br&gt;LPS glycosyltransferase&lt;br&gt;Location: 506117 - 505071" locus_tag="VFPPC_10195" class="clusterblast-orf" id="dummy-1_h1_1_56"  />
</g>
<g id="a1_0057"  >
<polygon points="435,85 438,80 438,90 435,85 " style="fill:white; stroke-width:1; stroke:black; " description="&lt;b&gt;VFPPC_10196&lt;/b&gt;&lt;br&gt;galactosyl transferase GMA12/MNN10 family protein&lt;br&gt;Location: 504167 - 503103" locus_tag="VFPPC_10196" class="clusterblast-orf" id="dummy-1_h1_1_57"  />
</g>
<g id="a1_0058"  >
<polygon points="441,85 445,80 445,90 441,85 " style="fill:white; stroke-width:1; stroke:black; " description="&lt;b&gt;VFPPC_10197&lt;/b&gt;&lt;br&gt;glycosyltransferase family 31 protein&lt;br&gt;Location: 501816 - 500205" locus_tag="VFPPC_10197" class="clusterblast-orf" id="dummy-1_h1_1_58"  />
</g>
<g id="a1_0059"  >
<polygon points="447,85 449,80 449,90 447,85 " style="fill:white; stroke-width:1; stroke:black; " description="&lt;b&gt;VFPPC_10198&lt;/b&gt;&lt;br&gt;FkbM family methyltransferase&lt;br&gt;Location: 499240 - 498414" locus_tag="VFPPC_10198" class="clusterblast-orf" id="dummy-1_h1_1_59"  />
</g>
<g id="a1_0060"  >
<polygon points="451,90 455,85 451,80 451,90 " style="fill:white; stroke-width:1; stroke:black; " description="&lt;b&gt;VFPPC_10199&lt;/b&gt;&lt;br&gt;major facilitator superfamily domain-containing protein 5 protein&lt;br&gt;Location: 497651 - 496114" locus_tag="VFPPC_10199" class="clusterblast-orf" id="dummy-1_h1_1_60"  />
</g>
<g id="a1_0061"  >
<polygon points="455,85 459,80 459,90 455,85 " style="fill:white; stroke-width:1; stroke:black; " description="&lt;b&gt;VFPPC_14730&lt;/b&gt;&lt;br&gt;triose-phosphate transporter&lt;br&gt;Location: 495750 - 494181" locus_tag="VFPPC_14730" class="clusterblast-orf" id="dummy-1_h1_1_61"  />
</g>
<g id="a1_0062"  >
<polygon points="464,85 469,80 470,80 470,90 469,90 464,85 " style="fill:white; stroke-width:1; stroke:black; " description="&lt;b&gt;VFPPC_10200&lt;/b&gt;&lt;br&gt;sulfatase domain-containing protein&lt;br&gt;Location: 492253 - 489677" locus_tag="VFPPC_10200" class="clusterblast-orf" id="dummy-1_h1_1_62"  />
</g>
<g id="a1_0063"  >
<polygon points="474,90 476,85 474,80 474,90 " style="fill:white; stroke-width:1; stroke:black; " description="&lt;b&gt;VFPPC_10201&lt;/b&gt;&lt;br&gt;acetyl transferase&lt;br&gt;Location: 488007 - 487009" locus_tag="VFPPC_10201" class="clusterblast-orf" id="dummy-1_h1_1_63"  />
</g>
<g id="a1_0064"  >
<polygon points="479,85 484,80 487,80 487,90 484,90 479,85 " style="fill:white; stroke-width:1; stroke:black; " description="&lt;b&gt;VFPPC_16891&lt;/b&gt;&lt;br&gt;FAD binding domain-containing protein&lt;br&gt;Location: 485668 - 482314" locus_tag="VFPPC_16891" class="clusterblast-orf" id="dummy-1_h1_1_64"  />
</g>
<g id="a1_0065"  >
<polygon points="490,85 491,80 491,90 490,85 " style="fill:white; stroke-width:1; stroke:black; " description="&lt;b&gt;VFPPC_14731&lt;/b&gt;&lt;br&gt;hypothetical protein&lt;br&gt;Location: 481104 - 480762" locus_tag="VFPPC_14731" class="clusterblast-orf" id="dummy-1_h1_1_65"  />
</g>
<g id="a1_0066"  >
<polygon points="493,90 495,85 493,80 493,90 " style="fill:white; stroke-width:1; stroke:black; " description="&lt;b&gt;VFPPC_10204&lt;/b&gt;&lt;br&gt;hypothetical protein&lt;br&gt;Location: 479757 - 478942" locus_tag="VFPPC_10204" class="clusterblast-orf" id="dummy-1_h1_1_66"  />
</g>
<g id="a1_0067"  >
<polygon points="496,85 498,80 498,90 496,85 " style="fill:white; stroke-width:1; stroke:black; " description="&lt;b&gt;VFPPC_16892&lt;/b&gt;&lt;br&gt;hypothetical protein&lt;br&gt;Location: 478853 - 477823" locus_tag="VFPPC_16892" class="clusterblast-orf" id="dummy-1_h1_1_67"  />
</g>
<g id="a1_0068"  >
<polygon points="501,85 503,80 503,90 501,85 " style="fill:white; stroke-width:1; stroke:black; " description="&lt;b&gt;VFPPC_14732&lt;/b&gt;&lt;br&gt;methyltransferase domain-containing protein&lt;br&gt;Location: 476791 - 475805" locus_tag="VFPPC_14732" class="clusterblast-orf" id="dummy-1_h1_1_68"  />
</g>
<g id="a1_0069"  >
<polygon points="505,90 509,85 505,80 505,90 " style="fill:white; stroke-width:1; stroke:black; " description="&lt;b&gt;VFPPC_10206&lt;/b&gt;&lt;br&gt;glucose dehydrogenase&lt;br&gt;Location: 475004 - 473382" locus_tag="VFPPC_10206" class="clusterblast-orf" id="dummy-1_h1_1_69"  />
</g>
<g id="a1_0070"  >
<polygon points="514,90 517,85 514,80 514,90 " style="fill:white; stroke-width:1; stroke:black; " description="&lt;b&gt;VFPPC_10208&lt;/b&gt;&lt;br&gt;exonuclease III&lt;br&gt;Location: 471308 - 469749" locus_tag="VFPPC_10208" class="clusterblast-orf" id="dummy-1_h1_1_70"  />
</g>
<g id="a1_0071"  >
<polygon points="520,90 520,90 525,85 520,80 520,80 520,90 " style="fill:#d8b115; stroke-width:1; stroke:black; " description="&lt;b&gt;VFPPC_10210&lt;/b&gt;&lt;br&gt;cell cycle control protein&lt;br&gt;Location: 468608 - 466566&lt;br&gt;&lt;br&gt;&lt;b&gt;BlastP hit with input.path1.gene24&lt;/b&gt;&lt;br&gt;Percentage identity: 67&lt;br&gt;Percentage coverage: 40&lt;br&gt;BLAST bit score: 757&lt;br&gt;E-value: 1.05e-256" locus_tag="VFPPC_10210" class="clusterblast-orf" id="dummy-1_h1_1_71"  />
</g>
<g id="a1_0072"  >
<polygon points="526,90 530,85 526,80 526,90 " style="fill:white; stroke-width:1; stroke:black; " description="&lt;b&gt;VFPPC_10211&lt;/b&gt;&lt;br&gt;hypothetical protein&lt;br&gt;Location: 465897 - 464260" locus_tag="VFPPC_10211" class="clusterblast-orf" id="dummy-1_h1_1_72"  />
</g>
<g id="a1_0073"  >
<polygon points="531,85 533,80 533,90 531,85 " style="fill:white; stroke-width:1; stroke:black; " description="&lt;b&gt;VFPPC_10212&lt;/b&gt;&lt;br&gt;hypothetical protein&lt;br&gt;Location: 463930 - 463223" locus_tag="VFPPC_10212" class="clusterblast-orf" id="dummy-1_h1_1_73"  />
</g>
<g id="a1_0074"  >
<polygon points="538,85 543,80 544,80 544,90 543,90 538,85 " style="fill:#15d863; stroke-width:1; stroke:black; " description="&lt;b&gt;VFPPC_10214&lt;/b&gt;&lt;br&gt;hydrolase, alpha/beta fold family protein&lt;br&gt;Location: 461157 - 458330&lt;br&gt;&lt;br&gt;&lt;b&gt;BlastP hit with input.path1.gene25&lt;/b&gt;&lt;br&gt;Percentage identity: 72&lt;br&gt;Percentage coverage: 104&lt;br&gt;BLAST bit score: 1195&lt;br&gt;E-value: 0.0" locus_tag="VFPPC_10214" class="clusterblast-orf" id="dummy-1_h1_1_74"  />
</g>
<g id="a1_0075"  >
<polygon points="547,90 548,85 547,80 547,90 " style="fill:white; stroke-width:1; stroke:black; " description="&lt;b&gt;VFPPC_16893&lt;/b&gt;&lt;br&gt;hypothetical protein&lt;br&gt;Location: 457194 - 457006" locus_tag="VFPPC_16893" class="clusterblast-orf" id="dummy-1_h1_1_75"  />
</g>
<g id="a1_0076"  >
<polygon points="553,90 555,85 553,80 553,90 " style="fill:#1515d8; stroke-width:1; stroke:black; " description="&lt;b&gt;VFPPC_10215&lt;/b&gt;&lt;br&gt;sterol desaturase family&lt;br&gt;Location: 454834 - 453848&lt;br&gt;&lt;br&gt;&lt;b&gt;BlastP hit with input.path1.gene26&lt;/b&gt;&lt;br&gt;Percentage identity: 71&lt;br&gt;Percentage coverage: 99&lt;br&gt;BLAST bit score: 462&lt;br&gt;E-value: 5.86e-163" locus_tag="VFPPC_10215" class="clusterblast-orf" id="dummy-1_h1_1_76"  />
</g>
<g id="a1_0077"  >
<polygon points="556,85 561,80 561,80 561,90 561,90 556,85 " style="fill:#d81563; stroke-width:1; stroke:black; " description="&lt;b&gt;VFPPC_10216&lt;/b&gt;&lt;br&gt;mitochondrial outer membrane protein IML2&lt;br&gt;Location: 453573 - 451427&lt;br&gt;&lt;br&gt;&lt;b&gt;BlastP hit with input.path1.gene27&lt;/b&gt;&lt;br&gt;Percentage identity: 58&lt;br&gt;Percentage coverage: 104&lt;br&gt;BLAST bit score: 698&lt;br&gt;E-value: 2.55e-245" locus_tag="VFPPC_10216" class="clusterblast-orf" id="dummy-1_h1_1_77"  />
</g>
<g id="a1_0078"  >
<polygon points="564,90 565,85 564,80 564,90 " style="fill:#b1d815; stroke-width:1; stroke:black; " description="&lt;b&gt;VFPPC_16894&lt;/b&gt;&lt;br&gt;DSS1/SEM1 family domain-containing protein&lt;br&gt;Location: 450140 - 449712&lt;br&gt;&lt;br&gt;&lt;b&gt;BlastP hit with input.path1.gene28&lt;/b&gt;&lt;br&gt;Percentage identity: 79&lt;br&gt;Percentage coverage: 71&lt;br&gt;BLAST bit score: 47&lt;br&gt;E-value: 3.04e-07" locus_tag="VFPPC_16894" class="clusterblast-orf" id="dummy-1_h1_1_78"  />
</g>
<g id="a1_0079"  >
<polygon points="566,85 569,80 569,90 566,85 " style="fill:#15d8b1; stroke-width:1; stroke:black; " description="&lt;b&gt;VFPPC_10217&lt;/b&gt;&lt;br&gt;phosphoglycerate kinase&lt;br&gt;Location: 449437 - 447854&lt;br&gt;&lt;br&gt;&lt;b&gt;BlastP hit with input.path1.gene29&lt;/b&gt;&lt;br&gt;Percentage identity: 93&lt;br&gt;Percentage coverage: 100&lt;br&gt;BLAST bit score: 767&lt;br&gt;E-value: 1.64e-280" locus_tag="VFPPC_10217" class="clusterblast-orf" id="dummy-1_h1_1_79"  />
</g>
<g id="a1_0080"  >
<polygon points="573,85 575,80 575,90 573,85 " style="fill:#6315d8; stroke-width:1; stroke:black; " description="&lt;b&gt;VFPPC_10219&lt;/b&gt;&lt;br&gt;hypothetical protein&lt;br&gt;Location: 446526 - 445668&lt;br&gt;&lt;br&gt;&lt;b&gt;BlastP hit with input.path1.gene30&lt;/b&gt;&lt;br&gt;Percentage identity: 88&lt;br&gt;Percentage coverage: 87&lt;br&gt;BLAST bit score: 384&lt;br&gt;E-value: 1.14e-134" locus_tag="VFPPC_10219" class="clusterblast-orf" id="dummy-1_h1_1_80"  />
</g>
<g id="a1_0081"  >
<polygon points="575,85 575,80 575,90 575,85 " style="fill:white; stroke-width:1; stroke:black; " description="&lt;b&gt;VFPPC_18271&lt;/b&gt;&lt;br&gt;hypothetical protein&lt;br&gt;Location: 445607 - 445368" locus_tag="VFPPC_18271" class="clusterblast-orf" id="dummy-1_h1_1_81"  />
</g>
<g id="a1_0082"  >
<polygon points="579,85 583,80 583,90 579,85 " style="fill:white; stroke-width:1; stroke:black; " description="&lt;b&gt;VFPPC_10220&lt;/b&gt;&lt;br&gt;alcohol oxidase&lt;br&gt;Location: 443939 - 442058" locus_tag="VFPPC_10220" class="clusterblast-orf" id="dummy-1_h1_1_82"  />
</g>
<g id="a1_0083"  >
<polygon points="591,90 593,85 591,80 591,90 " style="fill:white; stroke-width:1; stroke:black; " description="&lt;b&gt;VFPPC_10221&lt;/b&gt;&lt;br&gt;hypothetical protein&lt;br&gt;Location: 438862 - 437776" locus_tag="VFPPC_10221" class="clusterblast-orf" id="dummy-1_h1_1_83"  />
</g>
<g id="a1_0084"  >
<polygon points="594,85 596,80 596,90 594,85 " style="fill:white; stroke-width:1; stroke:black; " description="&lt;b&gt;VFPPC_14733&lt;/b&gt;&lt;br&gt;F-box domain-containing protein&lt;br&gt;Location: 437672 - 436623" locus_tag="VFPPC_14733" class="clusterblast-orf" id="dummy-1_h1_1_84"  />
</g>
<g id="a1_0085"  >
<polygon points="598,85 603,80 603,80 603,90 603,90 598,85 " style="fill:white; stroke-width:1; stroke:black; " description="&lt;b&gt;VFPPC_16895&lt;/b&gt;&lt;br&gt;cytochrome P450 alkane hydroxylase&lt;br&gt;Location: 435865 - 433890" locus_tag="VFPPC_16895" class="clusterblast-orf" id="dummy-1_h1_1_85"  />
</g>
<g id="a1_0086"  >
<polygon points="604,85 605,80 605,90 604,85 " style="fill:white; stroke-width:1; stroke:black; " description="&lt;b&gt;VFPPC_18270&lt;/b&gt;&lt;br&gt;hypothetical protein&lt;br&gt;Location: 433505 - 432839" locus_tag="VFPPC_18270" class="clusterblast-orf" id="dummy-1_h1_1_86"  />
</g>
<g id="a1_0087"  >
<polygon points="614,90 614,90 619,85 614,80 614,80 614,90 " style="fill:white; stroke-width:1; stroke:black; " description="&lt;b&gt;VFPPC_16896&lt;/b&gt;&lt;br&gt;hypothetical protein&lt;br&gt;Location: 429060 - 427012" locus_tag="VFPPC_16896" class="clusterblast-orf" id="dummy-1_h1_1_87"  />
</g>
<g id="a1_0088"  >
<polygon points="620,85 621,80 621,90 620,85 " style="fill:white; stroke-width:1; stroke:black; " description="&lt;b&gt;VFPPC_14734&lt;/b&gt;&lt;br&gt;hypothetical protein&lt;br&gt;Location: 426371 - 425981" locus_tag="VFPPC_14734" class="clusterblast-orf" id="dummy-1_h1_1_88"  />
</g>
<g id="a1_0089"  >
<polygon points="623,85 624,80 624,90 623,85 " style="fill:white; stroke-width:1; stroke:black; " description="&lt;b&gt;VFPPC_10229&lt;/b&gt;&lt;br&gt;antibiotic biosynthesis monooxygenase domain-containing protein&lt;br&gt;Location: 425360 - 424942" locus_tag="VFPPC_10229" class="clusterblast-orf" id="dummy-1_h1_1_89"  />
</g>
<g id="a1_0090"  >
<polygon points="628,90 629,85 628,80 628,90 " style="fill:white; stroke-width:1; stroke:black; " description="&lt;b&gt;VFPPC_10231&lt;/b&gt;&lt;br&gt;hypothetical protein&lt;br&gt;Location: 423295 - 422648" locus_tag="VFPPC_10231" class="clusterblast-orf" id="dummy-1_h1_1_90"  />
</g>
<g id="a1_0091"  >
<polygon points="633,85 636,80 636,90 633,85 " style="fill:white; stroke-width:1; stroke:black; " description="&lt;b&gt;VFPPC_10232&lt;/b&gt;&lt;br&gt;farnesyl pyrophosphate synthetase 1&lt;br&gt;Location: 421102 - 420019" locus_tag="VFPPC_10232" class="clusterblast-orf" id="dummy-1_h1_1_91"  />
</g>
<g id="a1_0092"  >
<polygon points="637,85 638,80 638,90 637,85 " style="fill:white; stroke-width:1; stroke:black; " description="&lt;b&gt;VFPPC_18269&lt;/b&gt;&lt;br&gt;hypothetical protein&lt;br&gt;Location: 419403 - 419101" locus_tag="VFPPC_18269" class="clusterblast-orf" id="dummy-1_h1_1_92"  />
</g>
<g id="a1_0093"  >
<polygon points="641,90 644,85 641,80 641,90 " style="fill:white; stroke-width:1; stroke:black; " description="&lt;b&gt;VFPPC_14735&lt;/b&gt;&lt;br&gt;hypothetical protein&lt;br&gt;Location: 417868 - 416666" locus_tag="VFPPC_14735" class="clusterblast-orf" id="dummy-1_h1_1_93"  />
</g>
<g id="a1_0094"  >
<polygon points="644,85 649,80 651,80 651,90 649,90 644,85 " style="fill:white; stroke-width:1; stroke:black; " description="&lt;b&gt;VFPPC_14736&lt;/b&gt;&lt;br&gt;kinesin family protein&lt;br&gt;Location: 416295 - 413628" locus_tag="VFPPC_14736" class="clusterblast-orf" id="dummy-1_h1_1_94"  />
</g>
<g id="a1_0095"  >
<polygon points="661,90 661,90 666,85 661,80 661,80 661,90 " style="fill:white; stroke-width:1; stroke:black; " description="&lt;b&gt;VFPPC_10237&lt;/b&gt;&lt;br&gt;amidase&lt;br&gt;Location: 409151 - 407361" locus_tag="VFPPC_10237" class="clusterblast-orf" id="dummy-1_h1_1_95"  />
</g>
<g id="a1_0096"  >
<polygon points="669,90 671,85 669,80 669,90 " style="fill:white; stroke-width:1; stroke:black; " description="&lt;b&gt;VFPPC_10238&lt;/b&gt;&lt;br&gt;cell wall beta-glucan synthesis&lt;br&gt;Location: 406086 - 405240" locus_tag="VFPPC_10238" class="clusterblast-orf" id="dummy-1_h1_1_96"  />
</g>
<g id="a1_0097"  >
<polygon points="673,90 675,85 673,80 673,90 " style="fill:#d86315; stroke-width:1; stroke:black; " description="&lt;b&gt;VFPPC_10239&lt;/b&gt;&lt;br&gt;hypothetical protein&lt;br&gt;Location: 404136 - 403402&lt;br&gt;&lt;br&gt;&lt;b&gt;BlastP hit with input.path1.gene19&lt;/b&gt;&lt;br&gt;Percentage identity: 49&lt;br&gt;Percentage coverage: 80&lt;br&gt;BLAST bit score: 155&lt;br&gt;E-value: 1.06e-44" locus_tag="VFPPC_10239" class="clusterblast-orf" id="dummy-1_h1_1_97"  />
</g>
<g id="a1_0098"  >
<polygon points="679,85 681,80 681,90 679,85 " style="fill:#15d815; stroke-width:1; stroke:black; " description="&lt;b&gt;VFPPC_10240&lt;/b&gt;&lt;br&gt;BTB/POZ-like protein&lt;br&gt;Location: 401908 - 401054&lt;br&gt;&lt;br&gt;&lt;b&gt;BlastP hit with input.path1.gene20&lt;/b&gt;&lt;br&gt;Percentage identity: 88&lt;br&gt;Percentage coverage: 104&lt;br&gt;BLAST bit score: 494&lt;br&gt;E-value: 4.12e-177" locus_tag="VFPPC_10240" class="clusterblast-orf" id="dummy-1_h1_1_98"  />
</g>
<g id="a1_0099"  >
<polygon points="684,85 687,80 687,90 684,85 " style="fill:#1563d8; stroke-width:1; stroke:black; " description="&lt;b&gt;VFPPC_14737&lt;/b&gt;&lt;br&gt;hypothetical protein&lt;br&gt;Location: 399582 - 398299&lt;br&gt;&lt;br&gt;&lt;b&gt;BlastP hit with input.path1.gene21&lt;/b&gt;&lt;br&gt;Percentage identity: 66&lt;br&gt;Percentage coverage: 98&lt;br&gt;BLAST bit score: 274&lt;br&gt;E-value: 9.08e-91" locus_tag="VFPPC_14737" class="clusterblast-orf" id="dummy-1_h1_1_99"  />
</g>
<g id="a1_00100"  >
<polygon points="689,85 690,80 690,90 689,85 " style="fill:white; stroke-width:1; stroke:black; " description="&lt;b&gt;VFPPC_10241&lt;/b&gt;&lt;br&gt;csbD-like domain-containing protein&lt;br&gt;Location: 397708 - 397341" locus_tag="VFPPC_10241" class="clusterblast-orf" id="dummy-1_h1_1_100"  />
</g>
<g id="a1_00101"  >
<polygon points="691,90 693,85 691,80 691,90 " style="fill:#d815b1; stroke-width:1; stroke:black; " description="&lt;b&gt;VFPPC_10242&lt;/b&gt;&lt;br&gt;microsomal signal peptidase&lt;br&gt;Location: 396755 - 396082&lt;br&gt;&lt;br&gt;&lt;b&gt;BlastP hit with input.path1.gene22&lt;/b&gt;&lt;br&gt;Percentage identity: 91&lt;br&gt;Percentage coverage: 96&lt;br&gt;BLAST bit score: 206&lt;br&gt;E-value: 1.1e-67" locus_tag="VFPPC_10242" class="clusterblast-orf" id="dummy-1_h1_1_101"  />
</g>
<g id="a1_00102"  >
<polygon points="694,85 697,80 697,90 694,85 " style="fill:white; stroke-width:1; stroke:black; " description="&lt;b&gt;VFPPC_10243&lt;/b&gt;&lt;br&gt;hypothetical protein&lt;br&gt;Location: 395547 - 394417" locus_tag="VFPPC_10243" class="clusterblast-orf" id="dummy-1_h1_1_102"  />
</g>
<g id="a1_00103"  >
<polygon points="703,85 706,80 706,90 703,85 " style="fill:white; stroke-width:1; stroke:black; " description="&lt;b&gt;VFPPC_10245&lt;/b&gt;&lt;br&gt;F-box domain and ankyrin repeat protein&lt;br&gt;Location: 391849 - 390230" locus_tag="VFPPC_10245" class="clusterblast-orf" id="dummy-1_h1_1_103"  />
</g>
<g id="a1_00104"  >
<polygon points="709,90 712,85 709,80 709,90 " style="fill:white; stroke-width:1; stroke:black; " description="&lt;b&gt;VFPPC_16897&lt;/b&gt;&lt;br&gt;hypothetical protein&lt;br&gt;Location: 389233 - 387990" locus_tag="VFPPC_16897" class="clusterblast-orf" id="dummy-1_h1_1_104"  />
</g>
<g id="a1_00105"  >
<polygon points="720,90 722,85 720,80 720,90 " style="fill:white; stroke-width:1; stroke:black; " description="&lt;b&gt;VFPPC_10248&lt;/b&gt;&lt;br&gt;short chain oxidoreductase/dehydrogenase&lt;br&gt;Location: 384571 - 383645" locus_tag="VFPPC_10248" class="clusterblast-orf" id="dummy-1_h1_1_105"  />
</g>
<g id="a1_00106"  >
<polygon points="723,85 725,80 725,90 723,85 " style="fill:white; stroke-width:1; stroke:black; " description="&lt;b&gt;VFPPC_10249&lt;/b&gt;&lt;br&gt;glycosyl hydrolases family 43 domain-containing protein&lt;br&gt;Location: 383495 - 382596" locus_tag="VFPPC_10249" class="clusterblast-orf" id="dummy-1_h1_1_106"  />
</g>
<g id="a1_00107"  >
<polygon points="730,90 731,85 730,80 730,90 " style="fill:white; stroke-width:1; stroke:black; " description="&lt;b&gt;VFPPC_10250&lt;/b&gt;&lt;br&gt;cysteine-rich secretory protein family domain-containing protein&lt;br&gt;Location: 380550 - 379882" locus_tag="VFPPC_10250" class="clusterblast-orf" id="dummy-1_h1_1_107"  />
</g>
<g id="a1_00108"  >
<polygon points="734,90 736,85 734,80 734,90 " style="fill:white; stroke-width:1; stroke:black; " description="&lt;b&gt;VFPPC_14738&lt;/b&gt;&lt;br&gt;double zinc ribbon domain-containing protein&lt;br&gt;Location: 378550 - 378023" locus_tag="VFPPC_14738" class="clusterblast-orf" id="dummy-1_h1_1_108"  />
</g>
<g id="a1_00109"  >
<polygon points="737,85 741,80 741,90 737,85 " style="fill:white; stroke-width:1; stroke:black; " description="&lt;b&gt;VFPPC_10251&lt;/b&gt;&lt;br&gt;ankyrin repeats (3 copies) domain-containing protein&lt;br&gt;Location: 377585 - 375720" locus_tag="VFPPC_10251" class="clusterblast-orf" id="dummy-1_h1_1_109"  />
</g>
<g id="a1_00110"  >
<polygon points="743,85 748,80 748,80 748,90 748,90 743,85 " style="fill:white; stroke-width:1; stroke:black; " description="&lt;b&gt;VFPPC_10252&lt;/b&gt;&lt;br&gt;amino acid permease&lt;br&gt;Location: 374779 - 372635" locus_tag="VFPPC_10252" class="clusterblast-orf" id="dummy-1_h1_1_110"  />
</g>
<g id="a1_00111"  >
<polygon points="751,90 754,85 751,80 751,90 " style="fill:white; stroke-width:1; stroke:black; " description="&lt;b&gt;VFPPC_14739&lt;/b&gt;&lt;br&gt;cytochrome P450&lt;br&gt;Location: 371530 - 370129" locus_tag="VFPPC_14739" class="clusterblast-orf" id="dummy-1_h1_1_111"  />
</g>
<g id="a1_00112"  >
<polygon points="755,90 757,85 755,80 755,90 " style="fill:white; stroke-width:1; stroke:black; " description="&lt;b&gt;VFPPC_10253&lt;/b&gt;&lt;br&gt;short-chain dehydrogenase reductase family&lt;br&gt;Location: 369664 - 368834" locus_tag="VFPPC_10253" class="clusterblast-orf" id="dummy-1_h1_1_112"  />
</g>
<g id="a1_00113"  >
<polygon points="763,90 764,90 769,85 764,80 763,80 763,90 " style="fill:white; stroke-width:1; stroke:black; " description="&lt;b&gt;VFPPC_10255&lt;/b&gt;&lt;br&gt;benzoate 4-monooxygenase cytochrome P450&lt;br&gt;Location: 366321 - 364107" locus_tag="VFPPC_10255" class="clusterblast-orf" id="dummy-1_h1_1_113"  />
</g>
<g id="a1_00114"  >
<polygon points="770,85 773,80 773,90 770,85 " style="fill:white; stroke-width:1; stroke:black; " description="&lt;b&gt;VFPPC_14740&lt;/b&gt;&lt;br&gt;epoxide hydrolase 1&lt;br&gt;Location: 363705 - 362224" locus_tag="VFPPC_14740" class="clusterblast-orf" id="dummy-1_h1_1_114"  />
</g>
<g id="a1_00115"  >
<polygon points="776,90 780,85 776,80 776,90 " style="fill:white; stroke-width:1; stroke:black; " description="&lt;b&gt;VFPPC_10256&lt;/b&gt;&lt;br&gt;fungal specific transcription factor domain-containing protein&lt;br&gt;Location: 361202 - 359549" locus_tag="VFPPC_10256" class="clusterblast-orf" id="dummy-1_h1_1_115"  />
</g>
</svg>
