<svg xmlns="http://www.w3.org/2000/svg" xmlns:xlink="http://www.w3.org/1999/xlink" version="1.1" x="0" y="0" height="230" width="800" viewBox="0 0 800 230" preserveAspectRatio="none"  >
<g label="Query sequence" class="clusterblast-cluster"  >
<text x="5" y="20" class="clusterblast-acc"  >
Query sequence</text>
<line x1="10" y1="35" x2="778.0" y2="35" style="stroke-width:1; stroke:grey; "  />
<polygon points="136,40 215,40 220,35 215,30 136,30 136,40 " style="fill:#d81515; stroke-width:1; stroke:black; " description="&lt;b&gt;input.path1.gene1561&lt;/b&gt;&lt;br&gt;input.path1.gene1561&lt;br&gt;Location: 7337532 - 7340786" locus_tag="input.path1.gene1561" class="clusterblast-orf" id="dummy-4_q0_0_all"  />
<polygon points="226,35 231,30 261,30 261,40 231,40 226,35 " style="fill:#77d815; stroke-width:1; stroke:black; " description="&lt;b&gt;input.path1.gene1562&lt;/b&gt;&lt;br&gt;input.path1.gene1562&lt;br&gt;Location: 7341018 - 7342408" locus_tag="input.path1.gene1562" class="clusterblast-orf" id="dummy-4_q1_0_all"  />
<polygon points="334,40 386,40 391,35 386,30 334,30 334,40 " style="fill:#15d8d8; stroke-width:1; stroke:black; " description="&lt;b&gt;input.path1.gene1563&lt;/b&gt;&lt;br&gt;input.path1.gene1563&lt;br&gt;Location: 7345227 - 7347441" locus_tag="input.path1.gene1563" class="clusterblast-orf" id="dummy-4_q2_0_all"  />
<polygon points="392,35 397,30 441,30 441,40 397,40 392,35 " style="fill:#7715d8; stroke-width:1; stroke:black; " description="&lt;b&gt;input.path1.gene1564&lt;/b&gt;&lt;br&gt;input.path1.gene1564&lt;br&gt;Location: 7347511 - 7349411" locus_tag="input.path1.gene1564" class="clusterblast-orf" id="dummy-4_q3_0_all"  />
<polygon points="636,40 638,40 643,35 638,30 636,30 636,40 " style="fill:white; stroke-width:1; stroke:black; " description="&lt;b&gt;input.path1.gene1565&lt;/b&gt;&lt;br&gt;input.path1.gene1565&lt;br&gt;Location: 7357021 - 7357287" locus_tag="input.path1.gene1565" class="clusterblast-orf" id="dummy-4_q4_0_all"  />
</g>
<g label="NC_072843" description="NC_072843 (3340945-3372495): Fusarium oxysporum Fo47 chromosome IV, complete ... (20% of genes show similarity), terpene" class="clusterblast-cluster"  >
<text x="5" y="70" class="clusterblast-acc"  >
<a xlink:href="https://antismash-db.secondarymetabolites.org/area?record=NC_072843&amp;start=3340945&amp;end=3372495" target="_blank">NC_072843 (3340945-3372495)</a>: Fusarium oxysporum Fo47 chromosome IV, complete ... (20% of genes show similarity), terpene</text>
<line x1="10" y1="85" x2="778.0" y2="85" style="stroke-width:1; stroke:grey; "  />
</g>
<g id="a4_000"  >
<polygon points="0,90 59,90 64,85 59,80 0,80 0,90 " style="fill:white; stroke-width:1; stroke:black; " description="&lt;b&gt;FOBC_07334&lt;/b&gt;&lt;br&gt;uncharacterized protein&lt;br&gt;Location: 3371487 - 3368961" locus_tag="FOBC_07334" class="clusterblast-orf" id="dummy-4_h4_7_0"  />
</g>
<g id="a4_001"  >
<polygon points="69,85 74,80 98,80 98,90 74,90 69,85 " style="fill:white; stroke-width:1; stroke:black; " description="&lt;b&gt;FOBC_07333&lt;/b&gt;&lt;br&gt;uncharacterized protein&lt;br&gt;Location: 3368790 - 3367636" locus_tag="FOBC_07333" class="clusterblast-orf" id="dummy-4_h4_7_1"  />
</g>
<g id="a4_002"  >
<polygon points="142,90 194,90 199,85 194,80 142,80 142,90 " style="fill:white; stroke-width:1; stroke:black; " description="&lt;b&gt;FOBC_07332&lt;/b&gt;&lt;br&gt;uncharacterized protein&lt;br&gt;Location: 3365930 - 3363702" locus_tag="FOBC_07332" class="clusterblast-orf" id="dummy-4_h4_7_2"  />
</g>
<g id="a4_003"  >
<polygon points="225,85 230,80 268,80 268,90 230,90 225,85 " style="fill:white; stroke-width:1; stroke:black; " description="&lt;b&gt;FOBC_07331&lt;/b&gt;&lt;br&gt;uncharacterized protein&lt;br&gt;Location: 3362699 - 3361009" locus_tag="FOBC_07331" class="clusterblast-orf" id="dummy-4_h4_7_3"  />
</g>
<g id="a4_004"  >
<polygon points="290,85 295,80 312,80 312,90 295,90 290,85 " style="fill:white; stroke-width:1; stroke:black; " description="&lt;b&gt;FOBC_07330&lt;/b&gt;&lt;br&gt;uncharacterized protein&lt;br&gt;Location: 3360164 - 3359303" locus_tag="FOBC_07330" class="clusterblast-orf" id="dummy-4_h4_7_4"  />
</g>
<g id="a4_005"  >
<polygon points="358,90 393,90 398,85 393,80 358,80 358,90 " style="fill:#15d8d8; stroke-width:1; stroke:black; " description="&lt;b&gt;FOBC_07329&lt;/b&gt;&lt;br&gt;squalene synthase&lt;br&gt;Location: 3357495 - 3355946&lt;br&gt;&lt;br&gt;&lt;b&gt;BlastP hit with input.path1.gene1563&lt;/b&gt;&lt;br&gt;Percentage identity: 75&lt;br&gt;Percentage coverage: 94&lt;br&gt;BLAST bit score: 679&lt;br&gt;E-value: 3.99e-244" locus_tag="FOBC_07329" class="clusterblast-orf" id="dummy-4_h4_7_5"  />
</g>
<g id="a4_006"  >
<polygon points="429,85 434,80 468,80 468,90 434,90 429,85 " style="fill:#7715d8; stroke-width:1; stroke:black; " description="&lt;b&gt;FOBC_07328&lt;/b&gt;&lt;br&gt;uncharacterized protein&lt;br&gt;Location: 3354736 - 3353240&lt;br&gt;&lt;br&gt;&lt;b&gt;BlastP hit with input.path1.gene1564&lt;/b&gt;&lt;br&gt;Percentage identity: 59&lt;br&gt;Percentage coverage: 74&lt;br&gt;BLAST bit score: 430&lt;br&gt;E-value: 2.16e-145" locus_tag="FOBC_07328" class="clusterblast-orf" id="dummy-4_h4_7_6"  />
</g>
<g id="a4_007"  >
<polygon points="598,90 612,90 617,85 612,80 598,80 598,90 " style="fill:white; stroke-width:1; stroke:black; " description="&lt;b&gt;FOBC_07327&lt;/b&gt;&lt;br&gt;uncharacterized protein&lt;br&gt;Location: 3348137 - 3347398" locus_tag="FOBC_07327" class="clusterblast-orf" id="dummy-4_h4_7_7"  />
</g>
<g id="a4_008"  >
<polygon points="682,90 727,90 732,85 727,80 682,80 682,90 " style="fill:white; stroke-width:1; stroke:black; " description="&lt;b&gt;FOBC_07326&lt;/b&gt;&lt;br&gt;uncharacterized protein&lt;br&gt;Location: 3344883 - 3342919" locus_tag="FOBC_07326" class="clusterblast-orf" id="dummy-4_h4_7_8"  />
</g>
<g id="a4_009"  >
<polygon points="744,85 749,80 780,80 780,90 749,90 744,85 " style="fill:white; stroke-width:1; stroke:black; " description="&lt;b&gt;FOBC_07325&lt;/b&gt;&lt;br&gt;GPI mannosyltransferase 1&lt;br&gt;Location: 3342446 - 3341077" locus_tag="FOBC_07325" class="clusterblast-orf" id="dummy-4_h4_7_9"  />
</g>
</svg>
