<svg xmlns="http://www.w3.org/2000/svg" xmlns:xlink="http://www.w3.org/1999/xlink" version="1.1" x="0" y="0" height="230" width="800" viewBox="0 0 800 230" preserveAspectRatio="none"  >
<g label="Query sequence" class="clusterblast-cluster"  >
<text x="5" y="20" class="clusterblast-acc"  >
Query sequence</text>
<line x1="10" y1="35" x2="778.0" y2="35" style="stroke-width:1; stroke:grey; "  />
<polygon points="220,35 225,30 234,30 234,40 225,40 220,35 " style="fill:white; stroke-width:1; stroke:black; " description="&lt;b&gt;input.path1.gene1263&lt;/b&gt;&lt;br&gt;input.path1.gene1263&lt;br&gt;Location: 5533830 - 5535039" locus_tag="input.path1.gene1263" class="clusterblast-orf" id="dummy-6_q0_0_all"  />
<polygon points="241,40 244,35 241,30 241,40 " style="fill:white; stroke-width:1; stroke:black; " description="&lt;b&gt;input.path1.gene1264&lt;/b&gt;&lt;br&gt;input.path1.gene1264&lt;br&gt;Location: 5535667 - 5535913" locus_tag="input.path1.gene1264" class="clusterblast-orf" id="dummy-6_q1_0_all"  />
<polygon points="263,40 269,40 274,35 269,30 263,30 263,40 " style="fill:white; stroke-width:1; stroke:black; " description="&lt;b&gt;input.path1.gene1265&lt;/b&gt;&lt;br&gt;input.path1.gene1265&lt;br&gt;Location: 5537508 - 5538456" locus_tag="input.path1.gene1265" class="clusterblast-orf" id="dummy-6_q2_0_all"  />
<polygon points="275,35 280,30 307,30 307,40 280,40 275,35 " style="fill:white; stroke-width:1; stroke:black; " description="&lt;b&gt;input.path1.gene1266&lt;/b&gt;&lt;br&gt;input.path1.gene1266&lt;br&gt;Location: 5538510 - 5541251" locus_tag="input.path1.gene1266" class="clusterblast-orf" id="dummy-6_q3_0_all"  />
<polygon points="318,35 323,30 331,30 331,40 323,40 318,35 " style="fill:white; stroke-width:1; stroke:black; " description="&lt;b&gt;input.path1.gene1267&lt;/b&gt;&lt;br&gt;input.path1.gene1267&lt;br&gt;Location: 5542140 - 5543202" locus_tag="input.path1.gene1267" class="clusterblast-orf" id="dummy-6_q4_0_all"  />
<polygon points="347,40 361,40 366,35 361,30 347,30 347,40 " style="fill:white; stroke-width:1; stroke:black; " description="&lt;b&gt;input.path1.gene1268&lt;/b&gt;&lt;br&gt;input.path1.gene1268&lt;br&gt;Location: 5544605 - 5546186" locus_tag="input.path1.gene1268" class="clusterblast-orf" id="dummy-6_q5_0_all"  />
<polygon points="376,40 391,40 396,35 391,30 376,30 376,40 " style="fill:#d81515; stroke-width:1; stroke:black; " description="&lt;b&gt;input.path1.gene1269&lt;/b&gt;&lt;br&gt;input.path1.gene1269&lt;br&gt;Location: 5547034 - 5548722" locus_tag="input.path1.gene1269" class="clusterblast-orf" id="dummy-6_q6_0_all"  />
<polygon points="401,35 406,30 430,30 430,40 406,40 401,35 " style="fill:white; stroke-width:1; stroke:black; " description="&lt;b&gt;input.path1.gene1270&lt;/b&gt;&lt;br&gt;input.path1.gene1270&lt;br&gt;Location: 5549164 - 5551614" locus_tag="input.path1.gene1270" class="clusterblast-orf" id="dummy-6_q7_0_all"  />
<polygon points="433,40 446,40 451,35 446,30 433,30 433,40 " style="fill:white; stroke-width:1; stroke:black; " description="&lt;b&gt;input.path1.gene1271&lt;/b&gt;&lt;br&gt;input.path1.gene1271&lt;br&gt;Location: 5551893 - 5553348" locus_tag="input.path1.gene1271" class="clusterblast-orf" id="dummy-6_q8_0_all"  />
<polygon points="451,35 456,30 535,30 535,40 456,40 451,35 " style="fill:#15d815; stroke-width:1; stroke:black; " description="&lt;b&gt;input.path1.gene1272&lt;/b&gt;&lt;br&gt;input.path1.gene1272&lt;br&gt;Location: 5553357 - 5560483" locus_tag="input.path1.gene1272" class="clusterblast-orf" id="dummy-6_q9_0_all"  />
<polygon points="552,40 555,40 560,35 555,30 552,30 552,40 " style="fill:#1515d8; stroke-width:1; stroke:black; " description="&lt;b&gt;input.path1.gene1273&lt;/b&gt;&lt;br&gt;input.path1.gene1273&lt;br&gt;Location: 5561943 - 5562550" locus_tag="input.path1.gene1273" class="clusterblast-orf" id="dummy-6_q10_0_all"  />
</g>
<g label="NC_070554" description="NC_070554 (1471044-1538049): Fusarium falciforme chromosome 11, complete sequ... (9% of genes show similarity), T1PKS" class="clusterblast-cluster"  >
<text x="5" y="70" class="clusterblast-acc"  >
<a xlink:href="https://antismash-db.secondarymetabolites.org/area?record=NC_070554&amp;start=1471044&amp;end=1538049" target="_blank">NC_070554 (1471044-1538049)</a>: Fusarium falciforme chromosome 11, complete sequ... (9% of genes show similarity), T1PKS</text>
<line x1="10" y1="85" x2="778.0" y2="85" style="stroke-width:1; stroke:grey; "  />
</g>
<g id="a6_000"  >
<polygon points="0,90 20,90 25,85 20,80 0,80 0,90 " style="fill:white; stroke-width:1; stroke:black; " description="&lt;b&gt;NCS54_01342200&lt;/b&gt;&lt;br&gt;Zn(2)-C6 fungal-type domain-containing protein&lt;br&gt;Location: 1537017 - 1534828" locus_tag="NCS54_01342200" class="clusterblast-orf" id="dummy-6_h6_10_0"  />
</g>
<g id="a6_001"  >
<polygon points="26,85 31,80 44,80 44,90 31,90 26,85 " style="fill:white; stroke-width:1; stroke:black; " description="&lt;b&gt;NCS54_01342100&lt;/b&gt;&lt;br&gt;Bac-luciferase domain-containing protein&lt;br&gt;Location: 1534738 - 1533287" locus_tag="NCS54_01342100" class="clusterblast-orf" id="dummy-6_h6_10_1"  />
</g>
<g id="a6_002"  >
<polygon points="52,85 57,80 69,80 69,90 57,90 52,85 " style="fill:white; stroke-width:1; stroke:black; " description="&lt;b&gt;NCS54_01342000&lt;/b&gt;&lt;br&gt;Hypothetical protein&lt;br&gt;Location: 1532572 - 1531172" locus_tag="NCS54_01342000" class="clusterblast-orf" id="dummy-6_h6_10_2"  />
</g>
<g id="a6_003"  >
<polygon points="75,90 98,90 103,85 98,80 75,80 75,90 " style="fill:white; stroke-width:1; stroke:black; " description="&lt;b&gt;NCS54_01341900&lt;/b&gt;&lt;br&gt;Hypothetical protein&lt;br&gt;Location: 1530627 - 1528314" locus_tag="NCS54_01341900" class="clusterblast-orf" id="dummy-6_h6_10_3"  />
</g>
<g id="a6_004"  >
<polygon points="125,90 132,90 137,85 132,80 125,80 125,90 " style="fill:white; stroke-width:1; stroke:black; " description="&lt;b&gt;NCS54_01341800&lt;/b&gt;&lt;br&gt;APH domain-containing protein&lt;br&gt;Location: 1526430 - 1525444" locus_tag="NCS54_01341800" class="clusterblast-orf" id="dummy-6_h6_10_4"  />
</g>
<g id="a6_005"  >
<polygon points="139,85 144,80 159,80 159,90 144,90 139,85 " style="fill:white; stroke-width:1; stroke:black; " description="&lt;b&gt;NCS54_01341700&lt;/b&gt;&lt;br&gt;Ammonium transporter&lt;br&gt;Location: 1525219 - 1523534" locus_tag="NCS54_01341700" class="clusterblast-orf" id="dummy-6_h6_10_5"  />
</g>
<g id="a6_006"  >
<polygon points="180,85 185,80 216,80 216,90 185,90 180,85 " style="fill:white; stroke-width:1; stroke:black; " description="&lt;b&gt;NCS54_01341600&lt;/b&gt;&lt;br&gt;Hypothetical protein&lt;br&gt;Location: 1521777 - 1518758" locus_tag="NCS54_01341600" class="clusterblast-orf" id="dummy-6_h6_10_6"  />
</g>
<g id="a6_007"  >
<polygon points="244,90 252,90 257,85 252,80 244,80 244,90 " style="fill:white; stroke-width:1; stroke:black; " description="&lt;b&gt;NCS54_01341500&lt;/b&gt;&lt;br&gt;Hypothetical protein&lt;br&gt;Location: 1516391 - 1515233" locus_tag="NCS54_01341500" class="clusterblast-orf" id="dummy-6_h6_10_7"  />
</g>
<g id="a6_008"  >
<polygon points="260,85 265,80 275,80 275,90 265,90 260,85 " style="fill:white; stroke-width:1; stroke:black; " description="&lt;b&gt;NCS54_01341400&lt;/b&gt;&lt;br&gt;Hypothetical protein&lt;br&gt;Location: 1515052 - 1513736" locus_tag="NCS54_01341400" class="clusterblast-orf" id="dummy-6_h6_10_8"  />
</g>
<g id="a6_009"  >
<polygon points="292,85 297,80 312,80 312,90 297,90 292,85 " style="fill:white; stroke-width:1; stroke:black; " description="&lt;b&gt;NCS54_01341300&lt;/b&gt;&lt;br&gt;Hypothetical protein&lt;br&gt;Location: 1512274 - 1510621" locus_tag="NCS54_01341300" class="clusterblast-orf" id="dummy-6_h6_10_9"  />
</g>
<g id="a6_0010"  >
<polygon points="317,90 323,90 328,85 323,80 317,80 317,90 " style="fill:#1515d8; stroke-width:1; stroke:black; " description="&lt;b&gt;NCS54_01341200&lt;/b&gt;&lt;br&gt;FSH1 domain-containing protein&lt;br&gt;Location: 1510236 - 1509301&lt;br&gt;&lt;br&gt;&lt;b&gt;BlastP hit with input.path1.gene1273&lt;/b&gt;&lt;br&gt;Percentage identity: 58&lt;br&gt;Percentage coverage: 111&lt;br&gt;BLAST bit score: 178&lt;br&gt;E-value: 5.55e-55" locus_tag="NCS54_01341200" class="clusterblast-orf" id="dummy-6_h6_10_10"  />
</g>
<g id="a6_0011"  >
<polygon points="342,90 420,90 425,85 420,80 342,80 342,90 " style="fill:#15d815; stroke-width:1; stroke:black; " description="&lt;b&gt;NCS54_01341100&lt;/b&gt;&lt;br&gt;Carrier domain-containing protein&lt;br&gt;Location: 1508049 - 1501045&lt;br&gt;&lt;br&gt;&lt;b&gt;BlastP hit with input.path1.gene1272&lt;/b&gt;&lt;br&gt;Percentage identity: 56&lt;br&gt;Percentage coverage: 104&lt;br&gt;BLAST bit score: 2383&lt;br&gt;E-value: 0.0" locus_tag="NCS54_01341100" class="clusterblast-orf" id="dummy-6_h6_10_11"  />
</g>
<g id="a6_0012"  >
<polygon points="428,85 433,80 441,80 441,90 433,90 428,85 " style="fill:white; stroke-width:1; stroke:black; " description="&lt;b&gt;NCS54_01341000&lt;/b&gt;&lt;br&gt;2EXR domain-containing protein&lt;br&gt;Location: 1500844 - 1499750" locus_tag="NCS54_01341000" class="clusterblast-orf" id="dummy-6_h6_10_12"  />
</g>
<g id="a6_0013"  >
<polygon points="454,85 459,80 463,80 463,90 459,90 454,85 " style="fill:white; stroke-width:1; stroke:black; " description="&lt;b&gt;NCS54_01340900&lt;/b&gt;&lt;br&gt;Hypothetical protein&lt;br&gt;Location: 1498591 - 1497908" locus_tag="NCS54_01340900" class="clusterblast-orf" id="dummy-6_h6_10_13"  />
</g>
<g id="a6_0014"  >
<polygon points="481,90 481,90 486,85 481,80 481,80 481,90 " style="fill:white; stroke-width:1; stroke:black; " description="&lt;b&gt;NCS54_01340800&lt;/b&gt;&lt;br&gt;HET domain-containing protein&lt;br&gt;Location: 1496337 - 1495909" locus_tag="NCS54_01340800" class="clusterblast-orf" id="dummy-6_h6_10_14"  />
</g>
<g id="a6_0015"  >
<polygon points="502,85 507,80 519,80 519,90 507,90 502,85 " style="fill:white; stroke-width:1; stroke:black; " description="&lt;b&gt;NCS54_01340700&lt;/b&gt;&lt;br&gt;ZnMc domain-containing protein&lt;br&gt;Location: 1494591 - 1493165" locus_tag="NCS54_01340700" class="clusterblast-orf" id="dummy-6_h6_10_15"  />
</g>
<g id="a6_0016"  >
<polygon points="539,85 544,80 553,80 553,90 544,90 539,85 " style="fill:white; stroke-width:1; stroke:black; " description="&lt;b&gt;NCS54_01340600&lt;/b&gt;&lt;br&gt;Hypothetical protein&lt;br&gt;Location: 1491415 - 1490276" locus_tag="NCS54_01340600" class="clusterblast-orf" id="dummy-6_h6_10_16"  />
</g>
<g id="a6_0017"  >
<polygon points="575,85 580,80 591,80 591,90 580,90 575,85 " style="fill:white; stroke-width:1; stroke:black; " description="&lt;b&gt;NCS54_01340500&lt;/b&gt;&lt;br&gt;Hypothetical protein&lt;br&gt;Location: 1488437 - 1487026" locus_tag="NCS54_01340500" class="clusterblast-orf" id="dummy-6_h6_10_17"  />
</g>
<g id="a6_0018"  >
<polygon points="652,90 662,90 667,85 662,80 652,80 652,90 " style="fill:white; stroke-width:1; stroke:black; " description="&lt;b&gt;NCS54_01340400&lt;/b&gt;&lt;br&gt;Hypothetical protein&lt;br&gt;Location: 1481936 - 1480641" locus_tag="NCS54_01340400" class="clusterblast-orf" id="dummy-6_h6_10_18"  />
</g>
<g id="a6_0019"  >
<polygon points="713,85 718,80 720,80 720,90 718,90 713,85 " style="fill:white; stroke-width:1; stroke:black; " description="&lt;b&gt;NCS54_01340300&lt;/b&gt;&lt;br&gt;Isochorismatase domain-containing protein&lt;br&gt;Location: 1476710 - 1476135" locus_tag="NCS54_01340300" class="clusterblast-orf" id="dummy-6_h6_10_19"  />
</g>
<g id="a6_0020"  >
<polygon points="732,85 737,80 756,80 756,90 737,90 732,85 " style="fill:white; stroke-width:1; stroke:black; " description="&lt;b&gt;NCS54_01340200&lt;/b&gt;&lt;br&gt;Hypothetical protein&lt;br&gt;Location: 1475142 - 1473107" locus_tag="NCS54_01340200" class="clusterblast-orf" id="dummy-6_h6_10_20"  />
</g>
<g id="a6_0021"  >
<polygon points="761,85 766,80 780,80 780,90 766,90 761,85 " style="fill:white; stroke-width:1; stroke:black; " description="&lt;b&gt;NCS54_01340100&lt;/b&gt;&lt;br&gt;Hypothetical protein&lt;br&gt;Location: 1472691 - 1471132" locus_tag="NCS54_01340100" class="clusterblast-orf" id="dummy-6_h6_10_21"  />
</g>
</svg>
