<svg xmlns="http://www.w3.org/2000/svg" xmlns:xlink="http://www.w3.org/1999/xlink" version="1.1" x="0" y="0" height="230" width="800" viewBox="0 0 800 230" preserveAspectRatio="none"  >
<g label="Query sequence" class="clusterblast-cluster"  >
<text x="5" y="20" class="clusterblast-acc"  >
Query sequence</text>
<line x1="10" y1="35" x2="778.0" y2="35" style="stroke-width:1; stroke:grey; "  />
<polygon points="111,35 116,30 194,30 194,40 116,40 111,35 " style="fill:white; stroke-width:1; stroke:black; " description="&lt;b&gt;input.path1.gene317&lt;/b&gt;&lt;br&gt;input.path1.gene317&lt;br&gt;Location: 967098 - 973646" locus_tag="input.path1.gene317" class="clusterblast-orf" id="dummy-4_q0_0_all"  />
<polygon points="206,40 216,40 221,35 216,30 206,30 206,40 " style="fill:#d81515; stroke-width:1; stroke:black; " description="&lt;b&gt;input.path1.gene318&lt;/b&gt;&lt;br&gt;input.path1.gene318&lt;br&gt;Location: 974578 - 975804" locus_tag="input.path1.gene318" class="clusterblast-orf" id="dummy-4_q1_0_all"  />
<polygon points="226,35 231,30 241,30 241,40 231,40 226,35 " style="fill:#15d863; stroke-width:1; stroke:black; " description="&lt;b&gt;input.path1.gene319&lt;/b&gt;&lt;br&gt;input.path1.gene319&lt;br&gt;Location: 976153 - 977404" locus_tag="input.path1.gene319" class="clusterblast-orf" id="dummy-4_q2_0_all"  />
<polygon points="247,40 256,40 261,35 256,30 247,30 247,40 " style="fill:#1563d8; stroke-width:1; stroke:black; " description="&lt;b&gt;input.path1.gene320&lt;/b&gt;&lt;br&gt;input.path1.gene320&lt;br&gt;Location: 977838 - 978910" locus_tag="input.path1.gene320" class="clusterblast-orf" id="dummy-4_q3_0_all"  />
<polygon points="267,40 281,40 286,35 281,30 267,30 267,40 " style="fill:white; stroke-width:1; stroke:black; " description="&lt;b&gt;input.path1.gene321&lt;/b&gt;&lt;br&gt;input.path1.gene321&lt;br&gt;Location: 979443 - 980870" locus_tag="input.path1.gene321" class="clusterblast-orf" id="dummy-4_q4_0_all"  />
<polygon points="328,35 333,30 370,30 370,40 333,40 328,35 " style="fill:#b115d8; stroke-width:1; stroke:black; " description="&lt;b&gt;input.path1.gene322&lt;/b&gt;&lt;br&gt;input.path1.gene322&lt;br&gt;Location: 984248 - 987548" locus_tag="input.path1.gene322" class="clusterblast-orf" id="dummy-4_q5_0_all"  />
<polygon points="375,35 380,30 418,30 418,40 380,40 375,35 " style="fill:#1563d8; stroke-width:1; stroke:black; " description="&lt;b&gt;input.path1.gene323&lt;/b&gt;&lt;br&gt;input.path1.gene323&lt;br&gt;Location: 987887 - 991305" locus_tag="input.path1.gene323" class="clusterblast-orf" id="dummy-4_q6_0_all"  />
<polygon points="465,35 470,30 474,30 474,40 470,40 465,35 " style="fill:#1563d8; stroke-width:1; stroke:black; " description="&lt;b&gt;input.path1.gene324&lt;/b&gt;&lt;br&gt;input.path1.gene324&lt;br&gt;Location: 995026 - 995698" locus_tag="input.path1.gene324" class="clusterblast-orf" id="dummy-4_q7_0_all"  />
<polygon points="479,40 498,40 503,35 498,30 479,30 479,40 " style="fill:#1563d8; stroke-width:1; stroke:black; " description="&lt;b&gt;input.path1.gene325&lt;/b&gt;&lt;br&gt;input.path1.gene325&lt;br&gt;Location: 996103 - 998008" locus_tag="input.path1.gene325" class="clusterblast-orf" id="dummy-4_q8_0_all"  />
<polygon points="505,35 510,30 525,30 525,40 510,40 505,35 " style="fill:white; stroke-width:1; stroke:black; " description="&lt;b&gt;input.path1.gene326&lt;/b&gt;&lt;br&gt;input.path1.gene326&lt;br&gt;Location: 998129 - 999698" locus_tag="input.path1.gene326" class="clusterblast-orf" id="dummy-4_q9_0_all"  />
<polygon points="532,40 532,40 537,35 532,30 532,30 532,40 " style="fill:white; stroke-width:1; stroke:black; " description="&lt;b&gt;input.path1.gene327&lt;/b&gt;&lt;br&gt;input.path1.gene327&lt;br&gt;Location: 1000265 - 1000662" locus_tag="input.path1.gene327" class="clusterblast-orf" id="dummy-4_q10_0_all"  />
<polygon points="542,35 547,30 571,30 571,40 547,40 542,35 " style="fill:#b1d815; stroke-width:1; stroke:black; " description="&lt;b&gt;input.path1.gene328&lt;/b&gt;&lt;br&gt;input.path1.gene328&lt;br&gt;Location: 1001026 - 1003369" locus_tag="input.path1.gene328" class="clusterblast-orf" id="dummy-4_q11_0_all"  />
<polygon points="584,40 599,40 604,35 599,30 584,30 584,40 " style="fill:white; stroke-width:1; stroke:black; " description="&lt;b&gt;input.path1.gene329&lt;/b&gt;&lt;br&gt;input.path1.gene329&lt;br&gt;Location: 1004357 - 1005930" locus_tag="input.path1.gene329" class="clusterblast-orf" id="dummy-4_q12_0_all"  />
<polygon points="604,35 609,30 619,30 619,40 609,40 604,35 " style="fill:white; stroke-width:1; stroke:black; " description="&lt;b&gt;input.path1.gene330&lt;/b&gt;&lt;br&gt;input.path1.gene330&lt;br&gt;Location: 1005941 - 1007115" locus_tag="input.path1.gene330" class="clusterblast-orf" id="dummy-4_q13_0_all"  />
<polygon points="637,40 664,40 669,35 664,30 637,30 637,40 " style="fill:white; stroke-width:1; stroke:black; " description="&lt;b&gt;input.path1.gene331&lt;/b&gt;&lt;br&gt;input.path1.gene331&lt;br&gt;Location: 1008506 - 1011023" locus_tag="input.path1.gene331" class="clusterblast-orf" id="dummy-4_q14_0_all"  />
</g>
<g label="NW_017971445" description="NW_017971445 (712163-779607): Talaromyces atroroseus strain IBT 11181 chromos... (28% of genes show similarity), NRPS,indole" class="clusterblast-cluster"  >
<text x="5" y="70" class="clusterblast-acc"  >
<a xlink:href="https://antismash-db.secondarymetabolites.org/area?record=NW_017971445&amp;start=712163&amp;end=779607" target="_blank">NW_017971445 (712163-779607)</a>: Talaromyces atroroseus strain IBT 11181 chromos... (28% of genes show similarity), NRPS,indole</text>
<line x1="10" y1="85" x2="778.0" y2="85" style="stroke-width:1; stroke:grey; "  />
</g>
<g id="a4_000"  >
<polygon points="0,90 25,90 30,85 25,80 0,80 0,90 " style="fill:white; stroke-width:1; stroke:black; " description="&lt;b&gt;UA08_08285&lt;/b&gt;&lt;br&gt;hypothetical protein&lt;br&gt;Location: 717164 - 719566" locus_tag="UA08_08285" class="clusterblast-orf" id="dummy-4_h4_1_0"  />
</g>
<g id="a4_001"  >
<polygon points="37,90 69,90 74,85 69,80 37,80 37,90 " style="fill:white; stroke-width:1; stroke:black; " description="&lt;b&gt;UA08_08286&lt;/b&gt;&lt;br&gt;hypothetical protein&lt;br&gt;Location: 720131 - 723026" locus_tag="UA08_08286" class="clusterblast-orf" id="dummy-4_h4_1_1"  />
</g>
<g id="a4_002"  >
<polygon points="98,90 133,90 138,85 133,80 98,80 98,90 " style="fill:white; stroke-width:1; stroke:black; " description="&lt;b&gt;UA08_08287&lt;/b&gt;&lt;br&gt;Serine/threonine-protein kinase atg1&lt;br&gt;Location: 724896 - 728030" locus_tag="UA08_08287" class="clusterblast-orf" id="dummy-4_h4_1_2"  />
</g>
<g id="a4_003"  >
<polygon points="157,90 193,90 198,85 193,80 157,80 157,90 " style="fill:white; stroke-width:1; stroke:black; " description="&lt;b&gt;UA08_08288&lt;/b&gt;&lt;br&gt;Aminopeptidase 2&lt;br&gt;Location: 729591 - 732774" locus_tag="UA08_08288" class="clusterblast-orf" id="dummy-4_h4_1_3"  />
</g>
<g id="a4_004"  >
<polygon points="216,90 231,90 236,85 231,80 216,80 216,90 " style="fill:white; stroke-width:1; stroke:black; " description="&lt;b&gt;UA08_08289&lt;/b&gt;&lt;br&gt;hypothetical protein&lt;br&gt;Location: 734205 - 735810" locus_tag="UA08_08289" class="clusterblast-orf" id="dummy-4_h4_1_4"  />
</g>
<g id="a4_005"  >
<polygon points="264,90 288,90 293,85 288,80 264,80 264,90 " style="fill:white; stroke-width:1; stroke:black; " description="&lt;b&gt;UA08_08290&lt;/b&gt;&lt;br&gt;hypothetical protein&lt;br&gt;Location: 737956 - 740244" locus_tag="UA08_08290" class="clusterblast-orf" id="dummy-4_h4_1_5"  />
</g>
<g id="a4_006"  >
<polygon points="300,90 308,90 313,85 308,80 300,80 300,90 " style="fill:white; stroke-width:1; stroke:black; " description="&lt;b&gt;UA08_08291&lt;/b&gt;&lt;br&gt;hypothetical protein&lt;br&gt;Location: 740783 - 741864" locus_tag="UA08_08291" class="clusterblast-orf" id="dummy-4_h4_1_6"  />
</g>
<g id="a4_007"  >
<polygon points="317,90 407,90 412,85 407,80 317,80 317,90 " style="fill:#1563d8; stroke-width:1; stroke:black; " description="&lt;b&gt;UA08_08292&lt;/b&gt;&lt;br&gt;hypothetical protein&lt;br&gt;Location: 742164 - 749607&lt;br&gt;&lt;br&gt;&lt;b&gt;BlastP hit with input.path1.gene320&lt;/b&gt;&lt;br&gt;Percentage identity: 37&lt;br&gt;Percentage coverage: 86&lt;br&gt;BLAST bit score: 206&lt;br&gt;E-value: 2.03e-57&lt;br&gt;&lt;br&gt;&lt;b&gt;BlastP hit with input.path1.gene324&lt;/b&gt;&lt;br&gt;Percentage identity: 32&lt;br&gt;Percentage coverage: 98&lt;br&gt;BLAST bit score: 109&lt;br&gt;E-value: 2.38e-25" locus_tag="UA08_08292" class="clusterblast-orf" id="dummy-4_h4_1_7"  />
</g>
<g id="a4_008"  >
<polygon points="415,85 420,80 432,80 432,90 420,90 415,85 " style="fill:#b1d815; stroke-width:1; stroke:black; " description="&lt;b&gt;UA08_08293&lt;/b&gt;&lt;br&gt;hypothetical protein&lt;br&gt;Location: 749830 - 751186&lt;br&gt;&lt;br&gt;&lt;b&gt;BlastP hit with input.path1.gene328&lt;/b&gt;&lt;br&gt;Percentage identity: 38&lt;br&gt;Percentage coverage: 24&lt;br&gt;BLAST bit score: 66&lt;br&gt;E-value: 1.5e-09" locus_tag="UA08_08293" class="clusterblast-orf" id="dummy-4_h4_1_8"  />
</g>
<g id="a4_009"  >
<polygon points="437,90 451,90 456,85 451,80 437,80 437,90 " style="fill:#15d863; stroke-width:1; stroke:black; " description="&lt;b&gt;UA08_08294&lt;/b&gt;&lt;br&gt;hypothetical protein&lt;br&gt;Location: 751568 - 753052&lt;br&gt;&lt;br&gt;&lt;b&gt;BlastP hit with input.path1.gene319&lt;/b&gt;&lt;br&gt;Percentage identity: 37&lt;br&gt;Percentage coverage: 36&lt;br&gt;BLAST bit score: 97&lt;br&gt;E-value: 3.46e-20" locus_tag="UA08_08294" class="clusterblast-orf" id="dummy-4_h4_1_9"  />
</g>
<g id="a4_0010"  >
<polygon points="461,90 476,90 481,85 476,80 461,80 461,90 " style="fill:#b115d8; stroke-width:1; stroke:black; " description="&lt;b&gt;UA08_08295&lt;/b&gt;&lt;br&gt;hypothetical protein&lt;br&gt;Location: 753508 - 755089&lt;br&gt;&lt;br&gt;&lt;b&gt;BlastP hit with input.path1.gene322&lt;/b&gt;&lt;br&gt;Percentage identity: 39&lt;br&gt;Percentage coverage: 35&lt;br&gt;BLAST bit score: 240&lt;br&gt;E-value: 1.55e-69" locus_tag="UA08_08295" class="clusterblast-orf" id="dummy-4_h4_1_10"  />
</g>
<g id="a4_0011"  >
<polygon points="483,85 488,80 494,80 494,90 488,90 483,85 " style="fill:#1563d8; stroke-width:1; stroke:black; " description="&lt;b&gt;UA08_08296&lt;/b&gt;&lt;br&gt;hypothetical protein&lt;br&gt;Location: 755228 - 756038&lt;br&gt;&lt;br&gt;&lt;b&gt;BlastP hit with input.path1.gene323&lt;/b&gt;&lt;br&gt;Percentage identity: 44&lt;br&gt;Percentage coverage: 19&lt;br&gt;BLAST bit score: 152&lt;br&gt;E-value: 2.26e-39" locus_tag="UA08_08296" class="clusterblast-orf" id="dummy-4_h4_1_11"  />
</g>
<g id="a4_0012"  >
<polygon points="497,90 509,90 514,85 509,80 497,80 497,90 " style="fill:white; stroke-width:1; stroke:black; " description="&lt;b&gt;UA08_08297&lt;/b&gt;&lt;br&gt;hypothetical protein&lt;br&gt;Location: 756341 - 757663" locus_tag="UA08_08297" class="clusterblast-orf" id="dummy-4_h4_1_12"  />
</g>
<g id="a4_0013"  >
<polygon points="530,90 549,90 554,85 549,80 530,80 530,90 " style="fill:#b1d815; stroke-width:1; stroke:black; " description="&lt;b&gt;UA08_08298&lt;/b&gt;&lt;br&gt;hypothetical protein&lt;br&gt;Location: 758909 - 760837&lt;br&gt;&lt;br&gt;&lt;b&gt;BlastP hit with input.path1.gene328&lt;/b&gt;&lt;br&gt;Percentage identity: 37&lt;br&gt;Percentage coverage: 84&lt;br&gt;BLAST bit score: 218&lt;br&gt;E-value: 5.64e-64" locus_tag="UA08_08298" class="clusterblast-orf" id="dummy-4_h4_1_13"  />
</g>
<g id="a4_0014"  >
<polygon points="555,85 560,80 565,80 565,90 560,90 555,85 " style="fill:white; stroke-width:1; stroke:black; " description="&lt;b&gt;UA08_08299&lt;/b&gt;&lt;br&gt;hypothetical protein&lt;br&gt;Location: 760882 - 761691" locus_tag="UA08_08299" class="clusterblast-orf" id="dummy-4_h4_1_14"  />
</g>
<g id="a4_0015"  >
<polygon points="573,90 586,90 591,85 586,80 573,80 573,90 " style="fill:white; stroke-width:1; stroke:black; " description="&lt;b&gt;UA08_08300&lt;/b&gt;&lt;br&gt;hypothetical protein&lt;br&gt;Location: 762319 - 763676" locus_tag="UA08_08300" class="clusterblast-orf" id="dummy-4_h4_1_15"  />
</g>
<g id="a4_0016"  >
<polygon points="599,85 604,80 631,80 631,90 604,90 599,85 " style="fill:white; stroke-width:1; stroke:black; " description="&lt;b&gt;UA08_08301&lt;/b&gt;&lt;br&gt;GPI mannosyltransferase 3&lt;br&gt;Location: 764374 - 766872" locus_tag="UA08_08301" class="clusterblast-orf" id="dummy-4_h4_1_16"  />
</g>
<g id="a4_0017"  >
<polygon points="641,90 656,90 661,85 656,80 641,80 641,90 " style="fill:white; stroke-width:1; stroke:black; " description="&lt;b&gt;UA08_08302&lt;/b&gt;&lt;br&gt;Ornithine aminotransferase&lt;br&gt;Location: 767649 - 769220" locus_tag="UA08_08302" class="clusterblast-orf" id="dummy-4_h4_1_17"  />
</g>
<g id="a4_0018"  >
<polygon points="697,90 703,90 708,85 703,80 697,80 697,90 " style="fill:white; stroke-width:1; stroke:black; " description="&lt;b&gt;UA08_08303&lt;/b&gt;&lt;br&gt;hypothetical protein&lt;br&gt;Location: 772065 - 772941" locus_tag="UA08_08303" class="clusterblast-orf" id="dummy-4_h4_1_18"  />
</g>
<g id="a4_0019"  >
<polygon points="721,90 740,90 745,85 740,80 721,80 721,90 " style="fill:white; stroke-width:1; stroke:black; " description="&lt;b&gt;UA08_08304&lt;/b&gt;&lt;br&gt;hypothetical protein&lt;br&gt;Location: 773956 - 775818" locus_tag="UA08_08304" class="clusterblast-orf" id="dummy-4_h4_1_19"  />
</g>
<g id="a4_0020"  >
<polygon points="771,90 775,90 780,85 775,80 771,80 771,90 " style="fill:white; stroke-width:1; stroke:black; " description="&lt;b&gt;UA08_08305&lt;/b&gt;&lt;br&gt;hypothetical protein&lt;br&gt;Location: 777911 - 778543" locus_tag="UA08_08305" class="clusterblast-orf" id="dummy-4_h4_1_20"  />
</g>
</svg>
