<svg xmlns="http://www.w3.org/2000/svg" xmlns:xlink="http://www.w3.org/1999/xlink" version="1.1" x="0" y="0" height="230" width="800" viewBox="0 0 800 230" preserveAspectRatio="none"  >
<g label="Query sequence" class="clusterblast-cluster"  >
<text x="5" y="20" class="clusterblast-acc"  >
Query sequence</text>
<line x1="10" y1="35" x2="778.0" y2="35" style="stroke-width:1; stroke:grey; "  />
<polygon points="122,40 135,40 140,35 135,30 122,30 122,40 " style="fill:white; stroke-width:1; stroke:black; " description="&lt;b&gt;input.path1.gene237&lt;/b&gt;&lt;br&gt;input.path1.gene237&lt;br&gt;Location: 756012 - 757432" locus_tag="input.path1.gene237" class="clusterblast-orf" id="dummy-2_q0_0_all"  />
<polygon points="152,40 163,40 168,35 163,30 152,30 152,40 " style="fill:white; stroke-width:1; stroke:black; " description="&lt;b&gt;input.path1.gene238&lt;/b&gt;&lt;br&gt;input.path1.gene238&lt;br&gt;Location: 758355 - 759649" locus_tag="input.path1.gene238" class="clusterblast-orf" id="dummy-2_q1_0_all"  />
<polygon points="170,35 175,30 183,30 183,40 175,40 170,35 " style="fill:white; stroke-width:1; stroke:black; " description="&lt;b&gt;input.path1.gene239&lt;/b&gt;&lt;br&gt;input.path1.gene239&lt;br&gt;Location: 759858 - 760841" locus_tag="input.path1.gene239" class="clusterblast-orf" id="dummy-2_q2_0_all"  />
<polygon points="187,35 192,30 243,30 243,40 192,40 187,35 " style="fill:#d81515; stroke-width:1; stroke:black; " description="&lt;b&gt;input.path1.gene240&lt;/b&gt;&lt;br&gt;input.path1.gene240&lt;br&gt;Location: 761170 - 765700" locus_tag="input.path1.gene240" class="clusterblast-orf" id="dummy-2_q3_0_all"  />
<polygon points="264,35 269,30 275,30 275,40 269,40 264,35 " style="fill:#15d815; stroke-width:1; stroke:black; " description="&lt;b&gt;input.path1.gene241&lt;/b&gt;&lt;br&gt;input.path1.gene241&lt;br&gt;Location: 767402 - 768232" locus_tag="input.path1.gene241" class="clusterblast-orf" id="dummy-2_q4_0_all"  />
<polygon points="310,40 425,40 430,35 425,30 310,30 310,40 " style="fill:#1515d8; stroke-width:1; stroke:black; " description="&lt;b&gt;input.path1.gene242&lt;/b&gt;&lt;br&gt;input.path1.gene242&lt;br&gt;Location: 771112 - 780710" locus_tag="input.path1.gene242" class="clusterblast-orf" id="dummy-2_q5_0_all"  />
<polygon points="454,40 460,40 465,35 460,30 454,30 454,40 " style="fill:white; stroke-width:1; stroke:black; " description="&lt;b&gt;input.path1.gene243&lt;/b&gt;&lt;br&gt;input.path1.gene243&lt;br&gt;Location: 782669 - 783502" locus_tag="input.path1.gene243" class="clusterblast-orf" id="dummy-2_q6_0_all"  />
<polygon points="485,40 504,40 509,35 504,30 485,30 485,40 " style="fill:white; stroke-width:1; stroke:black; " description="&lt;b&gt;input.path1.gene244&lt;/b&gt;&lt;br&gt;input.path1.gene244&lt;br&gt;Location: 785163 - 787056" locus_tag="input.path1.gene244" class="clusterblast-orf" id="dummy-2_q7_0_all"  />
<polygon points="522,40 551,40 556,35 551,30 522,30 522,40 " style="fill:#d815d8; stroke-width:1; stroke:black; " description="&lt;b&gt;input.path1.gene245&lt;/b&gt;&lt;br&gt;input.path1.gene245&lt;br&gt;Location: 788117 - 790879" locus_tag="input.path1.gene245" class="clusterblast-orf" id="dummy-2_q8_0_all"  />
<polygon points="576,35 581,30 612,30 612,40 581,40 576,35 " style="fill:#d8d815; stroke-width:1; stroke:black; " description="&lt;b&gt;input.path1.gene246&lt;/b&gt;&lt;br&gt;input.path1.gene246&lt;br&gt;Location: 792432 - 795319" locus_tag="input.path1.gene246" class="clusterblast-orf" id="dummy-2_q9_0_all"  />
<polygon points="634,35 639,30 657,30 657,40 639,40 634,35 " style="fill:#15d8d8; stroke-width:1; stroke:black; " description="&lt;b&gt;input.path1.gene247&lt;/b&gt;&lt;br&gt;input.path1.gene247&lt;br&gt;Location: 797122 - 798937" locus_tag="input.path1.gene247" class="clusterblast-orf" id="dummy-2_q10_0_all"  />
</g>
<g label="NZ_NNBK01000012" description="NZ_NNBK01000012 (159469-222554): Streptomyces sp. CB01373 scaffold12, whole g... (7% of genes show similarity), NRPS" class="clusterblast-cluster"  >
<text x="5" y="70" class="clusterblast-acc"  >
<a xlink:href="https://antismash-db.secondarymetabolites.org/area?record=NZ_NNBK01000012&amp;start=159469&amp;end=222554" target="_blank">NZ_NNBK01000012 (159469-222554)</a>: Streptomyces sp. CB01373 scaffold12, whole g... (7% of genes show similarity), NRPS</text>
<line x1="10" y1="85" x2="778.0" y2="85" style="stroke-width:1; stroke:grey; "  />
</g>
<g id="a2_000"  >
<polygon points="0,85 5,80 24,80 24,90 5,90 0,85 " style="fill:white; stroke-width:1; stroke:black; " description="&lt;b&gt;CG719_RS20540&lt;/b&gt;&lt;br&gt;heavy metal translocating P-type ATPase&lt;br&gt;Location: 222458 - 220476" locus_tag="CG719_RS20540" class="clusterblast-orf" id="dummy-2_h2_10_0"  />
</g>
<g id="a2_001"  >
<polygon points="26,90 30,85 26,80 26,90 " style="fill:white; stroke-width:1; stroke:black; " description="&lt;b&gt;CG719_RS20535&lt;/b&gt;&lt;br&gt;metalloregulator ArsR/SmtB family transcription factor&lt;br&gt;Location: 220364 - 219969" locus_tag="CG719_RS20535" class="clusterblast-orf" id="dummy-2_h2_10_1"  />
</g>
<g id="a2_002"  >
<polygon points="31,85 32,80 32,90 31,85 " style="fill:white; stroke-width:1; stroke:black; " description="&lt;b&gt;CG719_RS37160&lt;/b&gt;&lt;br&gt;hypothetical protein&lt;br&gt;Location: 219958 - 219833" locus_tag="CG719_RS37160" class="clusterblast-orf" id="dummy-2_h2_10_2"  />
</g>
<g id="a2_003"  >
<polygon points="35,85 37,80 37,90 35,85 " style="fill:white; stroke-width:1; stroke:black; " description="&lt;b&gt;CG719_RS35440&lt;/b&gt;&lt;br&gt;hypothetical protein&lt;br&gt;Location: 219574 - 219416" locus_tag="CG719_RS35440" class="clusterblast-orf" id="dummy-2_h2_10_3"  />
</g>
<g id="a2_004"  >
<polygon points="46,85 48,80 48,90 46,85 " style="fill:white; stroke-width:1; stroke:black; " description="&lt;b&gt;CG719_RS20525&lt;/b&gt;&lt;br&gt;DUF6243 family protein&lt;br&gt;Location: 218761 - 218552" locus_tag="CG719_RS20525" class="clusterblast-orf" id="dummy-2_h2_10_4"  />
</g>
<g id="a2_005"  >
<polygon points="52,85 57,80 58,80 58,90 57,90 52,85 " style="fill:white; stroke-width:1; stroke:black; " description="&lt;b&gt;CG719_RS20520&lt;/b&gt;&lt;br&gt;hypothetical protein&lt;br&gt;Location: 218231 - 217758" locus_tag="CG719_RS20520" class="clusterblast-orf" id="dummy-2_h2_10_5"  />
</g>
<g id="a2_006"  >
<polygon points="62,90 65,90 70,85 65,80 62,80 62,90 " style="fill:white; stroke-width:1; stroke:black; " description="&lt;b&gt;CG719_RS20515&lt;/b&gt;&lt;br&gt;hypothetical protein&lt;br&gt;Location: 217454 - 216780" locus_tag="CG719_RS20515" class="clusterblast-orf" id="dummy-2_h2_10_6"  />
</g>
<g id="a2_007"  >
<polygon points="72,85 77,80 77,80 77,90 77,90 72,85 " style="fill:white; stroke-width:1; stroke:black; " description="&lt;b&gt;CG719_RS20510&lt;/b&gt;&lt;br&gt;nitroreductase/quinone reductase family protein&lt;br&gt;Location: 216662 - 216222" locus_tag="CG719_RS20510" class="clusterblast-orf" id="dummy-2_h2_10_7"  />
</g>
<g id="a2_008"  >
<polygon points="78,85 79,80 79,90 78,85 " style="fill:white; stroke-width:1; stroke:black; " description="&lt;b&gt;CG719_RS35435&lt;/b&gt;&lt;br&gt;hypothetical protein&lt;br&gt;Location: 216186 - 216034" locus_tag="CG719_RS35435" class="clusterblast-orf" id="dummy-2_h2_10_8"  />
</g>
<g id="a2_009"  >
<polygon points="84,85 89,80 96,80 96,90 89,90 84,85 " style="fill:white; stroke-width:1; stroke:black; " description="&lt;b&gt;CG719_RS20500&lt;/b&gt;&lt;br&gt;pirin family protein&lt;br&gt;Location: 215662 - 214682" locus_tag="CG719_RS20500" class="clusterblast-orf" id="dummy-2_h2_10_9"  />
</g>
<g id="a2_0010"  >
<polygon points="97,85 102,80 114,80 114,90 102,90 97,85 " style="fill:white; stroke-width:1; stroke:black; " description="&lt;b&gt;CG719_RS20495&lt;/b&gt;&lt;br&gt;FAD-dependent oxidoreductase&lt;br&gt;Location: 214610 - 213249" locus_tag="CG719_RS20495" class="clusterblast-orf" id="dummy-2_h2_10_10"  />
</g>
<g id="a2_0011"  >
<polygon points="114,85 119,80 127,80 127,90 119,90 114,85 " style="fill:white; stroke-width:1; stroke:black; " description="&lt;b&gt;CG719_RS20490&lt;/b&gt;&lt;br&gt;ABC transporter ATP-binding protein&lt;br&gt;Location: 213252 - 212197" locus_tag="CG719_RS20490" class="clusterblast-orf" id="dummy-2_h2_10_11"  />
</g>
<g id="a2_0012"  >
<polygon points="127,85 132,80 150,80 150,90 132,90 127,85 " style="fill:white; stroke-width:1; stroke:black; " description="&lt;b&gt;CG719_RS20485&lt;/b&gt;&lt;br&gt;ATP-binding cassette domain-containing protein&lt;br&gt;Location: 212200 - 210341" locus_tag="CG719_RS20485" class="clusterblast-orf" id="dummy-2_h2_10_12"  />
</g>
<g id="a2_0013"  >
<polygon points="151,85 156,80 164,80 164,90 156,90 151,85 " style="fill:white; stroke-width:1; stroke:black; " description="&lt;b&gt;CG719_RS20480&lt;/b&gt;&lt;br&gt;ABC transporter permease&lt;br&gt;Location: 210252 - 209266" locus_tag="CG719_RS20480" class="clusterblast-orf" id="dummy-2_h2_10_13"  />
</g>
<g id="a2_0014"  >
<polygon points="164,85 169,80 183,80 183,90 169,90 164,85 " style="fill:white; stroke-width:1; stroke:black; " description="&lt;b&gt;CG719_RS20475&lt;/b&gt;&lt;br&gt;ABC transporter substrate-binding protein&lt;br&gt;Location: 209211 - 207751" locus_tag="CG719_RS20475" class="clusterblast-orf" id="dummy-2_h2_10_14"  />
</g>
<g id="a2_0015"  >
<polygon points="186,90 203,90 208,85 203,80 186,80 186,90 " style="fill:white; stroke-width:1; stroke:black; " description="&lt;b&gt;CG719_RS20470&lt;/b&gt;&lt;br&gt;DUF885 domain-containing protein&lt;br&gt;Location: 207453 - 205744" locus_tag="CG719_RS20470" class="clusterblast-orf" id="dummy-2_h2_10_15"  />
</g>
<g id="a2_0016"  >
<polygon points="208,90 211,90 216,85 211,80 208,80 208,90 " style="fill:white; stroke-width:1; stroke:black; " description="&lt;b&gt;CG719_RS36525&lt;/b&gt;&lt;br&gt;DUF5132 domain-containing protein&lt;br&gt;Location: 205675 - 205082" locus_tag="CG719_RS36525" class="clusterblast-orf" id="dummy-2_h2_10_16"  />
</g>
<g id="a2_0017"  >
<polygon points="219,90 241,90 246,85 241,80 219,80 219,90 " style="fill:#d81515; stroke-width:1; stroke:black; " description="&lt;b&gt;CG719_RS20460&lt;/b&gt;&lt;br&gt;ABC transporter ATP-binding protein&lt;br&gt;Location: 204836 - 202677&lt;br&gt;&lt;br&gt;&lt;b&gt;BlastP hit with input.path1.gene240&lt;/b&gt;&lt;br&gt;Percentage identity: 38&lt;br&gt;Percentage coverage: 24&lt;br&gt;BLAST bit score: 150&lt;br&gt;E-value: 4.56e-35" locus_tag="CG719_RS20460" class="clusterblast-orf" id="dummy-2_h2_10_17"  />
</g>
<g id="a2_0018"  >
<polygon points="247,90 478,90 483,85 478,80 247,80 247,90 " style="fill:#1515d8; stroke-width:1; stroke:black; " description="&lt;b&gt;CG719_RS20455&lt;/b&gt;&lt;br&gt;non-ribosomal peptide synthase/polyketide synthase&lt;br&gt;Location: 202554 - 183652&lt;br&gt;&lt;br&gt;&lt;b&gt;BlastP hit with input.path1.gene242&lt;/b&gt;&lt;br&gt;Percentage identity: 31&lt;br&gt;Percentage coverage: 57&lt;br&gt;BLAST bit score: 686&lt;br&gt;E-value: 8.24e-197" locus_tag="CG719_RS20455" class="clusterblast-orf" id="dummy-2_h2_10_18"  />
</g>
<g id="a2_0019"  >
<polygon points="490,90 530,90 535,85 530,80 490,80 490,90 " style="fill:white; stroke-width:1; stroke:black; " description="&lt;b&gt;CG719_RS36520&lt;/b&gt;&lt;br&gt;amino acid adenylation domain-containing protein&lt;br&gt;Location: 183084 - 179470" locus_tag="CG719_RS36520" class="clusterblast-orf" id="dummy-2_h2_10_19"  />
</g>
<g id="a2_0020"  >
<polygon points="535,90 540,90 545,85 540,80 535,80 535,90 " style="fill:white; stroke-width:1; stroke:black; " description="&lt;b&gt;CG719_RS36515&lt;/b&gt;&lt;br&gt;alpha/beta fold hydrolase&lt;br&gt;Location: 179427 - 178615" locus_tag="CG719_RS36515" class="clusterblast-orf" id="dummy-2_h2_10_20"  />
</g>
<g id="a2_0021"  >
<polygon points="545,90 548,85 545,80 545,90 " style="fill:white; stroke-width:1; stroke:black; " description="&lt;b&gt;CG719_RS20450&lt;/b&gt;&lt;br&gt;MbtH family protein&lt;br&gt;Location: 178612 - 178397" locus_tag="CG719_RS20450" class="clusterblast-orf" id="dummy-2_h2_10_21"  />
</g>
<g id="a2_0022"  >
<polygon points="548,90 559,90 564,85 559,80 548,80 548,90 " style="fill:white; stroke-width:1; stroke:black; " description="&lt;b&gt;CG719_RS20445&lt;/b&gt;&lt;br&gt;cytochrome P450&lt;br&gt;Location: 178388 - 177153" locus_tag="CG719_RS20445" class="clusterblast-orf" id="dummy-2_h2_10_22"  />
</g>
<g id="a2_0023"  >
<polygon points="564,90 568,90 573,85 568,80 564,80 564,90 " style="fill:white; stroke-width:1; stroke:black; " description="&lt;b&gt;CG719_RS20440&lt;/b&gt;&lt;br&gt;ATPase&lt;br&gt;Location: 177117 - 176374" locus_tag="CG719_RS20440" class="clusterblast-orf" id="dummy-2_h2_10_23"  />
</g>
<g id="a2_0024"  >
<polygon points="573,90 576,85 573,80 573,90 " style="fill:white; stroke-width:1; stroke:black; " description="&lt;b&gt;CG719_RS20435&lt;/b&gt;&lt;br&gt;hypothetical protein&lt;br&gt;Location: 176398 - 176171" locus_tag="CG719_RS20435" class="clusterblast-orf" id="dummy-2_h2_10_24"  />
</g>
<g id="a2_0025"  >
<polygon points="576,90 580,90 585,85 580,80 576,80 576,90 " style="fill:white; stroke-width:1; stroke:black; " description="&lt;b&gt;CG719_RS20430&lt;/b&gt;&lt;br&gt;alpha/beta fold hydrolase&lt;br&gt;Location: 176174 - 175422" locus_tag="CG719_RS20430" class="clusterblast-orf" id="dummy-2_h2_10_25"  />
</g>
<g id="a2_0026"  >
<polygon points="588,90 597,90 602,85 597,80 588,80 588,90 " style="fill:white; stroke-width:1; stroke:black; " description="&lt;b&gt;CG719_RS20425&lt;/b&gt;&lt;br&gt;alpha/beta hydrolase&lt;br&gt;Location: 175221 - 174082" locus_tag="CG719_RS20425" class="clusterblast-orf" id="dummy-2_h2_10_26"  />
</g>
<g id="a2_0027"  >
<polygon points="604,90 607,85 604,80 604,90 " style="fill:white; stroke-width:1; stroke:black; " description="&lt;b&gt;CG719_RS20420&lt;/b&gt;&lt;br&gt;DUF5132 domain-containing protein&lt;br&gt;Location: 173884 - 173654" locus_tag="CG719_RS20420" class="clusterblast-orf" id="dummy-2_h2_10_27"  />
</g>
<g id="a2_0028"  >
<polygon points="609,85 614,80 618,80 618,90 614,90 609,85 " style="fill:#15d8d8; stroke-width:1; stroke:black; " description="&lt;b&gt;CG719_RS20415&lt;/b&gt;&lt;br&gt;SDR family oxidoreductase&lt;br&gt;Location: 173495 - 172794&lt;br&gt;&lt;br&gt;&lt;b&gt;BlastP hit with input.path1.gene247&lt;/b&gt;&lt;br&gt;Percentage identity: 31&lt;br&gt;Percentage coverage: 64&lt;br&gt;BLAST bit score: 72&lt;br&gt;E-value: 1.75e-12" locus_tag="CG719_RS20415" class="clusterblast-orf" id="dummy-2_h2_10_28"  />
</g>
<g id="a2_0029"  >
<polygon points="621,85 626,80 628,80 628,90 626,90 621,85 " style="fill:white; stroke-width:1; stroke:black; " description="&lt;b&gt;CG719_RS20410&lt;/b&gt;&lt;br&gt;TetR/AcrR family transcriptional regulator&lt;br&gt;Location: 172558 - 171989" locus_tag="CG719_RS20410" class="clusterblast-orf" id="dummy-2_h2_10_29"  />
</g>
<g id="a2_0030"  >
<polygon points="630,85 635,80 653,80 653,90 635,90 630,85 " style="fill:white; stroke-width:1; stroke:black; " description="&lt;b&gt;CG719_RS20405&lt;/b&gt;&lt;br&gt;ABC transporter ATP-binding protein&lt;br&gt;Location: 171846 - 169927" locus_tag="CG719_RS20405" class="clusterblast-orf" id="dummy-2_h2_10_30"  />
</g>
<g id="a2_0031"  >
<polygon points="656,85 657,80 657,90 656,85 " style="fill:white; stroke-width:1; stroke:black; " description="&lt;b&gt;CG719_RS36510&lt;/b&gt;&lt;br&gt;SDR family oxidoreductase&lt;br&gt;Location: 169731 - 169633" locus_tag="CG719_RS36510" class="clusterblast-orf" id="dummy-2_h2_10_31"  />
</g>
<g id="a2_0032"  >
<polygon points="661,90 699,90 704,85 699,80 661,80 661,90 " style="fill:white; stroke-width:1; stroke:black; " description="&lt;b&gt;CG719_RS20395&lt;/b&gt;&lt;br&gt;WD40 repeat domain-containing protein&lt;br&gt;Location: 169310 - 165861" locus_tag="CG719_RS20395" class="clusterblast-orf" id="dummy-2_h2_10_32"  />
</g>
<g id="a2_0033"  >
<polygon points="704,90 720,90 725,85 720,80 704,80 704,90 " style="fill:white; stroke-width:1; stroke:black; " description="&lt;b&gt;CG719_RS20385&lt;/b&gt;&lt;br&gt;hypothetical protein&lt;br&gt;Location: 165852 - 164194" locus_tag="CG719_RS20385" class="clusterblast-orf" id="dummy-2_h2_10_33"  />
</g>
<g id="a2_0034"  >
<polygon points="725,90 734,90 739,85 734,80 725,80 725,90 " style="fill:white; stroke-width:1; stroke:black; " description="&lt;b&gt;CG719_RS20380&lt;/b&gt;&lt;br&gt;hypothetical protein&lt;br&gt;Location: 164218 - 163076" locus_tag="CG719_RS20380" class="clusterblast-orf" id="dummy-2_h2_10_34"  />
</g>
<g id="a2_0035"  >
<polygon points="739,90 751,90 756,85 751,80 739,80 739,90 " style="fill:white; stroke-width:1; stroke:black; " description="&lt;b&gt;CG719_RS20375&lt;/b&gt;&lt;br&gt;hypothetical protein&lt;br&gt;Location: 163049 - 161709" locus_tag="CG719_RS20375" class="clusterblast-orf" id="dummy-2_h2_10_35"  />
</g>
<g id="a2_0036"  >
<polygon points="757,90 758,90 763,85 758,80 757,80 757,90 " style="fill:white; stroke-width:1; stroke:black; " description="&lt;b&gt;CG719_RS36505&lt;/b&gt;&lt;br&gt;SLATT domain-containing protein&lt;br&gt;Location: 161641 - 161105" locus_tag="CG719_RS36505" class="clusterblast-orf" id="dummy-2_h2_10_36"  />
</g>
<g id="a2_0037"  >
<polygon points="764,90 765,90 770,85 765,80 764,80 764,90 " style="fill:white; stroke-width:1; stroke:black; " description="&lt;b&gt;CG719_RS36500&lt;/b&gt;&lt;br&gt;zinc-binding dehydrogenase&lt;br&gt;Location: 161054 - 160545" locus_tag="CG719_RS36500" class="clusterblast-orf" id="dummy-2_h2_10_37"  />
</g>
<g id="a2_0038"  >
<polygon points="772,85 777,80 780,80 780,90 777,90 772,85 " style="fill:white; stroke-width:1; stroke:black; " description="&lt;b&gt;CG719_RS20360&lt;/b&gt;&lt;br&gt;hypothetical protein&lt;br&gt;Location: 160414 - 159803" locus_tag="CG719_RS20360" class="clusterblast-orf" id="dummy-2_h2_10_38"  />
</g>
</svg>
