<svg xmlns="http://www.w3.org/2000/svg" xmlns:xlink="http://www.w3.org/1999/xlink" version="1.1" x="0" y="0" height="230" width="800" viewBox="0 0 800 230" preserveAspectRatio="none"  >
<g label="Query sequence" class="clusterblast-cluster"  >
<text x="5" y="20" class="clusterblast-acc"  >
Query sequence</text>
<line x1="10" y1="35" x2="778.0" y2="35" style="stroke-width:1; stroke:grey; "  />
<polygon points="148,35 153,30 167,30 167,40 153,40 148,35 " style="fill:white; stroke-width:1; stroke:black; " description="&lt;b&gt;input.path1.gene1437&lt;/b&gt;&lt;br&gt;input.path1.gene1437&lt;br&gt;Location: 4671743 - 4674081" locus_tag="input.path1.gene1437" class="clusterblast-orf" id="dummy-10_q0_0_all"  />
<polygon points="169,40 170,40 175,35 170,30 169,30 169,40 " style="fill:white; stroke-width:1; stroke:black; " description="&lt;b&gt;input.path1.gene1438&lt;/b&gt;&lt;br&gt;input.path1.gene1438&lt;br&gt;Location: 4674327 - 4675143" locus_tag="input.path1.gene1438" class="clusterblast-orf" id="dummy-10_q1_0_all"  />
<polygon points="195,40 206,40 211,35 206,30 195,30 195,40 " style="fill:white; stroke-width:1; stroke:black; " description="&lt;b&gt;input.path1.gene1439&lt;/b&gt;&lt;br&gt;input.path1.gene1439&lt;br&gt;Location: 4677549 - 4679494" locus_tag="input.path1.gene1439" class="clusterblast-orf" id="dummy-10_q2_0_all"  />
<polygon points="213,35 218,30 226,30 226,40 218,40 213,35 " style="fill:white; stroke-width:1; stroke:black; " description="&lt;b&gt;input.path1.gene1440&lt;/b&gt;&lt;br&gt;input.path1.gene1440&lt;br&gt;Location: 4679772 - 4681416" locus_tag="input.path1.gene1440" class="clusterblast-orf" id="dummy-10_q3_0_all"  />
<polygon points="240,40 249,40 254,35 249,30 240,30 240,40 " style="fill:white; stroke-width:1; stroke:black; " description="&lt;b&gt;input.path1.gene1441&lt;/b&gt;&lt;br&gt;input.path1.gene1441&lt;br&gt;Location: 4683044 - 4684733" locus_tag="input.path1.gene1441" class="clusterblast-orf" id="dummy-10_q4_0_all"  />
<polygon points="265,40 265,40 270,35 265,30 265,30 265,40 " style="fill:white; stroke-width:1; stroke:black; " description="&lt;b&gt;input.path1.gene1442&lt;/b&gt;&lt;br&gt;input.path1.gene1442&lt;br&gt;Location: 4686127 - 4686695" locus_tag="input.path1.gene1442" class="clusterblast-orf" id="dummy-10_q5_0_all"  />
<polygon points="289,35 294,30 351,30 351,40 294,40 289,35 " style="fill:#d81515; stroke-width:1; stroke:black; " description="&lt;b&gt;input.path1.gene1443&lt;/b&gt;&lt;br&gt;input.path1.gene1443&lt;br&gt;Location: 4689092 - 4696630" locus_tag="input.path1.gene1443" class="clusterblast-orf" id="dummy-10_q6_0_all"  />
<polygon points="359,35 364,30 368,30 368,40 364,40 359,35 " style="fill:#15d863; stroke-width:1; stroke:black; " description="&lt;b&gt;input.path1.gene1444&lt;/b&gt;&lt;br&gt;input.path1.gene1444&lt;br&gt;Location: 4697663 - 4698734" locus_tag="input.path1.gene1444" class="clusterblast-orf" id="dummy-10_q7_0_all"  />
<polygon points="374,40 382,40 387,35 382,30 374,30 374,40 " style="fill:#1563d8; stroke-width:1; stroke:black; " description="&lt;b&gt;input.path1.gene1445&lt;/b&gt;&lt;br&gt;input.path1.gene1445&lt;br&gt;Location: 4699473 - 4701055" locus_tag="input.path1.gene1445" class="clusterblast-orf" id="dummy-10_q8_0_all"  />
<polygon points="387,35 392,30 392,30 392,40 392,40 387,35 " style="fill:#b115d8; stroke-width:1; stroke:black; " description="&lt;b&gt;input.path1.gene1446&lt;/b&gt;&lt;br&gt;input.path1.gene1446&lt;br&gt;Location: 4701133 - 4701742" locus_tag="input.path1.gene1446" class="clusterblast-orf" id="dummy-10_q9_0_all"  />
<polygon points="396,40 464,40 469,35 464,30 396,30 396,40 " style="fill:#b1d815; stroke-width:1; stroke:black; " description="&lt;b&gt;input.path1.gene1447&lt;/b&gt;&lt;br&gt;input.path1.gene1447&lt;br&gt;Location: 4702240 - 4711138" locus_tag="input.path1.gene1447" class="clusterblast-orf" id="dummy-10_q10_0_all"  />
<polygon points="485,40 490,40 495,35 490,30 485,30 485,40 " style="fill:white; stroke-width:1; stroke:black; " description="&lt;b&gt;input.path1.gene1448&lt;/b&gt;&lt;br&gt;input.path1.gene1448&lt;br&gt;Location: 4713147 - 4714261" locus_tag="input.path1.gene1448" class="clusterblast-orf" id="dummy-10_q11_0_all"  />
<polygon points="525,40 529,40 534,35 529,30 525,30 525,40 " style="fill:#1563d8; stroke-width:1; stroke:black; " description="&lt;b&gt;input.path1.gene1449&lt;/b&gt;&lt;br&gt;input.path1.gene1449&lt;br&gt;Location: 4717964 - 4719038" locus_tag="input.path1.gene1449" class="clusterblast-orf" id="dummy-10_q12_0_all"  />
<polygon points="537,40 539,35 537,30 537,40 " style="fill:white; stroke-width:1; stroke:black; " description="&lt;b&gt;input.path1.gene1450&lt;/b&gt;&lt;br&gt;input.path1.gene1450&lt;br&gt;Location: 4719433 - 4719697" locus_tag="input.path1.gene1450" class="clusterblast-orf" id="dummy-10_q13_0_all"  />
<polygon points="541,40 545,40 550,35 545,30 541,30 541,40 " style="fill:white; stroke-width:1; stroke:black; " description="&lt;b&gt;input.path1.gene1451&lt;/b&gt;&lt;br&gt;input.path1.gene1451&lt;br&gt;Location: 4719947 - 4721074" locus_tag="input.path1.gene1451" class="clusterblast-orf" id="dummy-10_q14_0_all"  />
<polygon points="566,40 577,40 582,35 577,30 566,30 566,40 " style="fill:white; stroke-width:1; stroke:black; " description="&lt;b&gt;input.path1.gene1452&lt;/b&gt;&lt;br&gt;input.path1.gene1452&lt;br&gt;Location: 4722996 - 4724957" locus_tag="input.path1.gene1452" class="clusterblast-orf" id="dummy-10_q15_0_all"  />
<polygon points="583,35 587,30 587,40 583,35 " style="fill:white; stroke-width:1; stroke:black; " description="&lt;b&gt;input.path1.gene1453&lt;/b&gt;&lt;br&gt;input.path1.gene1453&lt;br&gt;Location: 4725106 - 4725637" locus_tag="input.path1.gene1453" class="clusterblast-orf" id="dummy-10_q16_0_all"  />
<polygon points="598,40 609,40 614,35 609,30 598,30 598,40 " style="fill:white; stroke-width:1; stroke:black; " description="&lt;b&gt;input.path1.gene1454&lt;/b&gt;&lt;br&gt;input.path1.gene1454&lt;br&gt;Location: 4726872 - 4728908" locus_tag="input.path1.gene1454" class="clusterblast-orf" id="dummy-10_q17_0_all"  />
<polygon points="620,40 622,40 627,35 622,30 620,30 620,40 " style="fill:white; stroke-width:1; stroke:black; " description="&lt;b&gt;input.path1.gene1455&lt;/b&gt;&lt;br&gt;input.path1.gene1455&lt;br&gt;Location: 4729687 - 4730546" locus_tag="input.path1.gene1455" class="clusterblast-orf" id="dummy-10_q18_0_all"  />
<polygon points="630,40 632,35 630,30 630,40 " style="fill:white; stroke-width:1; stroke:black; " description="&lt;b&gt;input.path1.gene1456&lt;/b&gt;&lt;br&gt;input.path1.gene1456&lt;br&gt;Location: 4730903 - 4731050" locus_tag="input.path1.gene1456" class="clusterblast-orf" id="dummy-10_q19_0_all"  />
</g>
<g label="NW_020291625" description="NW_020291625 (99659-196841): Aspergillus piperis CBS 112811 unplaced genomic ... (14% of genes show similarity), NRPS,T1PKS,terpene" class="clusterblast-cluster"  >
<text x="5" y="70" class="clusterblast-acc"  >
<a xlink:href="https://antismash-db.secondarymetabolites.org/area?record=NW_020291625&amp;start=99659&amp;end=196841" target="_blank">NW_020291625 (99659-196841)</a>: Aspergillus piperis CBS 112811 unplaced genomic ... (14% of genes show similarity), NRPS,T1PKS,terpene</text>
<line x1="10" y1="85" x2="778.0" y2="85" style="stroke-width:1; stroke:grey; "  />
</g>
<g id="a10_000"  >
<polygon points="0,85 5,80 5,80 5,90 5,90 0,85 " style="fill:white; stroke-width:1; stroke:black; " description="&lt;b&gt;BO85DRAFT_384775&lt;/b&gt;&lt;br&gt;hypothetical protein&lt;br&gt;Location: 100870 - 101555" locus_tag="BO85DRAFT_384775" class="clusterblast-orf" id="dummy-10_h10_3_0"  />
</g>
<g id="a10_001"  >
<polygon points="19,90 40,90 45,85 40,80 19,80 19,90 " style="fill:white; stroke-width:1; stroke:black; " description="&lt;b&gt;BO85DRAFT_408644&lt;/b&gt;&lt;br&gt;hypothetical protein&lt;br&gt;Location: 103270 - 106486" locus_tag="BO85DRAFT_408644" class="clusterblast-orf" id="dummy-10_h10_3_1"  />
</g>
<g id="a10_002"  >
<polygon points="49,85 54,80 54,80 54,90 54,90 49,85 " style="fill:white; stroke-width:1; stroke:black; " description="&lt;b&gt;BO85DRAFT_508080&lt;/b&gt;&lt;br&gt;UBC-like protein&lt;br&gt;Location: 106937 - 107515" locus_tag="BO85DRAFT_508080" class="clusterblast-orf" id="dummy-10_h10_3_2"  />
</g>
<g id="a10_003"  >
<polygon points="57,85 62,80 68,80 68,90 62,90 57,85 " style="fill:white; stroke-width:1; stroke:black; " description="&lt;b&gt;BO85DRAFT_508089&lt;/b&gt;&lt;br&gt;hypothetical protein&lt;br&gt;Location: 107895 - 109320" locus_tag="BO85DRAFT_508089" class="clusterblast-orf" id="dummy-10_h10_3_3"  />
</g>
<g id="a10_004"  >
<polygon points="78,90 78,90 83,85 78,80 78,80 78,90 " style="fill:white; stroke-width:1; stroke:black; " description="&lt;b&gt;BO85DRAFT_524648&lt;/b&gt;&lt;br&gt;isochorismatase family hydrolase&lt;br&gt;Location: 110544 - 111155" locus_tag="BO85DRAFT_524648" class="clusterblast-orf" id="dummy-10_h10_3_4"  />
</g>
<g id="a10_005"  >
<polygon points="87,90 94,90 99,85 94,80 87,80 87,90 " style="fill:white; stroke-width:1; stroke:black; " description="&lt;b&gt;BO85DRAFT_472943&lt;/b&gt;&lt;br&gt;oxidoreductase&lt;br&gt;Location: 111557 - 113093" locus_tag="BO85DRAFT_472943" class="clusterblast-orf" id="dummy-10_h10_3_5"  />
</g>
<g id="a10_006"  >
<polygon points="110,85 115,80 123,80 123,90 115,90 110,85 " style="fill:white; stroke-width:1; stroke:black; " description="&lt;b&gt;BO85DRAFT_508095&lt;/b&gt;&lt;br&gt;quinate permease&lt;br&gt;Location: 114374 - 116041" locus_tag="BO85DRAFT_508095" class="clusterblast-orf" id="dummy-10_h10_3_6"  />
</g>
<g id="a10_007"  >
<polygon points="163,90 185,90 190,85 185,80 163,80 163,90 " style="fill:white; stroke-width:1; stroke:black; " description="&lt;b&gt;BO85DRAFT_508111&lt;/b&gt;&lt;br&gt;pyridoxal-dependent decarboxylase domain protein&lt;br&gt;Location: 120907 - 124264" locus_tag="BO85DRAFT_508111" class="clusterblast-orf" id="dummy-10_h10_3_7"  />
</g>
<g id="a10_008"  >
<polygon points="197,85 202,80 208,80 208,90 202,90 197,85 " style="fill:white; stroke-width:1; stroke:black; " description="&lt;b&gt;BO85DRAFT_508115&lt;/b&gt;&lt;br&gt;hypothetical protein&lt;br&gt;Location: 125122 - 126399" locus_tag="BO85DRAFT_508115" class="clusterblast-orf" id="dummy-10_h10_3_8"  />
</g>
<g id="a10_009"  >
<polygon points="217,85 222,80 225,80 225,90 222,90 217,85 " style="fill:white; stroke-width:1; stroke:black; " description="&lt;b&gt;BO85DRAFT_454309&lt;/b&gt;&lt;br&gt;hypothetical protein&lt;br&gt;Location: 127468 - 128468" locus_tag="BO85DRAFT_454309" class="clusterblast-orf" id="dummy-10_h10_3_9"  />
</g>
<g id="a10_0010"  >
<polygon points="234,90 275,90 280,85 275,80 234,80 234,90 " style="fill:#b1d815; stroke-width:1; stroke:black; " description="&lt;b&gt;BO85DRAFT_482124&lt;/b&gt;&lt;br&gt;aureobasidin A1 biosynthesis complex&lt;br&gt;Location: 129660 - 135176&lt;br&gt;&lt;br&gt;&lt;b&gt;BlastP hit with input.path1.gene1447&lt;/b&gt;&lt;br&gt;Percentage identity: 34&lt;br&gt;Percentage coverage: 21&lt;br&gt;BLAST bit score: 253&lt;br&gt;E-value: 3.66e-65" locus_tag="BO85DRAFT_482124" class="clusterblast-orf" id="dummy-10_h10_3_10"  />
</g>
<g id="a10_0011"  >
<polygon points="285,85 290,80 303,80 303,90 290,90 285,85 " style="fill:white; stroke-width:1; stroke:black; " description="&lt;b&gt;BO85DRAFT_432270&lt;/b&gt;&lt;br&gt;hypothetical protein&lt;br&gt;Location: 135869 - 138103" locus_tag="BO85DRAFT_432270" class="clusterblast-orf" id="dummy-10_h10_3_11"  />
</g>
<g id="a10_0012"  >
<polygon points="344,90 352,90 357,85 352,80 344,80 344,90 " style="fill:#1563d8; stroke-width:1; stroke:black; " description="&lt;b&gt;BO85DRAFT_408661&lt;/b&gt;&lt;br&gt;cytochrome P450 monooxygenase CYP52G11&lt;br&gt;Location: 143056 - 144706&lt;br&gt;&lt;br&gt;&lt;b&gt;BlastP hit with input.path1.gene1445&lt;/b&gt;&lt;br&gt;Percentage identity: 32&lt;br&gt;Percentage coverage: 95&lt;br&gt;BLAST bit score: 253&lt;br&gt;E-value: 1.34e-75" locus_tag="BO85DRAFT_408661" class="clusterblast-orf" id="dummy-10_h10_3_12"  />
</g>
<g id="a10_0013"  >
<polygon points="362,85 367,80 376,80 376,90 367,90 362,85 " style="fill:white; stroke-width:1; stroke:black; " description="&lt;b&gt;BO85DRAFT_432276&lt;/b&gt;&lt;br&gt;hypothetical protein&lt;br&gt;Location: 145238 - 146953" locus_tag="BO85DRAFT_432276" class="clusterblast-orf" id="dummy-10_h10_3_13"  />
</g>
<g id="a10_0014"  >
<polygon points="384,90 384,90 389,85 384,80 384,80 384,90 " style="fill:white; stroke-width:1; stroke:black; " description="&lt;b&gt;BO85DRAFT_472949&lt;/b&gt;&lt;br&gt;hypothetical protein&lt;br&gt;Location: 147943 - 148556" locus_tag="BO85DRAFT_472949" class="clusterblast-orf" id="dummy-10_h10_3_14"  />
</g>
<g id="a10_0015"  >
<polygon points="398,85 403,80 495,80 495,90 403,90 398,85 " style="fill:#d81515; stroke-width:1; stroke:black; " description="&lt;b&gt;BO85DRAFT_508137&lt;/b&gt;&lt;br&gt;hybrid NRPS/PKS enzyme&lt;br&gt;Location: 149673 - 161612&lt;br&gt;&lt;br&gt;&lt;b&gt;BlastP hit with input.path1.gene1443&lt;/b&gt;&lt;br&gt;Percentage identity: 42&lt;br&gt;Percentage coverage: 100&lt;br&gt;BLAST bit score: 1634&lt;br&gt;E-value: 0.0" locus_tag="BO85DRAFT_508137" class="clusterblast-orf" id="dummy-10_h10_3_15"  />
</g>
<g id="a10_0016"  >
<polygon points="513,90 517,90 522,85 517,80 513,80 513,90 " style="fill:#15d863; stroke-width:1; stroke:black; " description="&lt;b&gt;BO85DRAFT_432284&lt;/b&gt;&lt;br&gt;alcohol dehydrogenase&lt;br&gt;Location: 163839 - 164921&lt;br&gt;&lt;br&gt;&lt;b&gt;BlastP hit with input.path1.gene1444&lt;/b&gt;&lt;br&gt;Percentage identity: 47&lt;br&gt;Percentage coverage: 99&lt;br&gt;BLAST bit score: 319&lt;br&gt;E-value: 1.25e-105" locus_tag="BO85DRAFT_432284" class="clusterblast-orf" id="dummy-10_h10_3_16"  />
</g>
<g id="a10_0017"  >
<polygon points="535,90 538,85 535,80 535,90 " style="fill:white; stroke-width:1; stroke:black; " description="&lt;b&gt;BO85DRAFT_454314&lt;/b&gt;&lt;br&gt;hypothetical protein&lt;br&gt;Location: 166515 - 166817" locus_tag="BO85DRAFT_454314" class="clusterblast-orf" id="dummy-10_h10_3_17"  />
</g>
<g id="a10_0018"  >
<polygon points="544,85 549,80 550,80 550,90 549,90 544,85 " style="fill:white; stroke-width:1; stroke:black; " description="&lt;b&gt;BO85DRAFT_408675&lt;/b&gt;&lt;br&gt;hypothetical protein&lt;br&gt;Location: 167574 - 168271" locus_tag="BO85DRAFT_408675" class="clusterblast-orf" id="dummy-10_h10_3_18"  />
</g>
<g id="a10_0019"  >
<polygon points="566,90 575,90 580,85 575,80 566,80 566,90 " style="fill:white; stroke-width:1; stroke:black; " description="&lt;b&gt;BO85DRAFT_432292&lt;/b&gt;&lt;br&gt;sugar transport protein&lt;br&gt;Location: 170257 - 172008" locus_tag="BO85DRAFT_432292" class="clusterblast-orf" id="dummy-10_h10_3_19"  />
</g>
<g id="a10_0020"  >
<polygon points="587,85 592,80 597,80 597,90 592,90 587,85 " style="fill:white; stroke-width:1; stroke:black; " description="&lt;b&gt;BO85DRAFT_454317&lt;/b&gt;&lt;br&gt;taurine dioxygenase family protein&lt;br&gt;Location: 172867 - 174096" locus_tag="BO85DRAFT_454317" class="clusterblast-orf" id="dummy-10_h10_3_20"  />
</g>
<g id="a10_0021"  >
<polygon points="609,85 614,80 616,80 616,90 614,90 609,85 " style="fill:white; stroke-width:1; stroke:black; " description="&lt;b&gt;BO85DRAFT_508149&lt;/b&gt;&lt;br&gt;hypothetical protein&lt;br&gt;Location: 175597 - 176360" locus_tag="BO85DRAFT_508149" class="clusterblast-orf" id="dummy-10_h10_3_21"  />
</g>
<g id="a10_0022"  >
<polygon points="621,85 626,80 637,80 637,90 626,90 621,85 " style="fill:white; stroke-width:1; stroke:black; " description="&lt;b&gt;BO85DRAFT_524662&lt;/b&gt;&lt;br&gt;hypothetical protein&lt;br&gt;Location: 177009 - 178949" locus_tag="BO85DRAFT_524662" class="clusterblast-orf" id="dummy-10_h10_3_22"  />
</g>
<g id="a10_0023"  >
<polygon points="653,90 655,90 660,85 655,80 653,80 653,90 " style="fill:white; stroke-width:1; stroke:black; " description="&lt;b&gt;BO85DRAFT_464221&lt;/b&gt;&lt;br&gt;terpenoid synthase&lt;br&gt;Location: 180909 - 181841" locus_tag="BO85DRAFT_464221" class="clusterblast-orf" id="dummy-10_h10_3_23"  />
</g>
<g id="a10_0024"  >
<polygon points="672,85 677,80 691,80 691,90 677,90 672,85 " style="fill:white; stroke-width:1; stroke:black; " description="&lt;b&gt;BO85DRAFT_508160&lt;/b&gt;&lt;br&gt;phenylalanine ammonia-lyase&lt;br&gt;Location: 183246 - 185540" locus_tag="BO85DRAFT_508160" class="clusterblast-orf" id="dummy-10_h10_3_24"  />
</g>
<g id="a10_0025"  >
<polygon points="729,90 732,90 737,85 732,80 729,80 729,90 " style="fill:white; stroke-width:1; stroke:black; " description="&lt;b&gt;BO85DRAFT_454319&lt;/b&gt;&lt;br&gt;hypothetical protein&lt;br&gt;Location: 190214 - 191269" locus_tag="BO85DRAFT_454319" class="clusterblast-orf" id="dummy-10_h10_3_25"  />
</g>
<g id="a10_0026"  >
<polygon points="743,85 748,80 779,80 779,90 748,90 743,85 " style="fill:white; stroke-width:1; stroke:black; " description="&lt;b&gt;BO85DRAFT_432299&lt;/b&gt;&lt;br&gt;pantothenate transporter&lt;br&gt;Location: 191979 - 196434" locus_tag="BO85DRAFT_432299" class="clusterblast-orf" id="dummy-10_h10_3_26"  />
</g>
</svg>
