<svg xmlns="http://www.w3.org/2000/svg" xmlns:xlink="http://www.w3.org/1999/xlink" version="1.1" x="0" y="0" height="230" width="800" viewBox="0 0 800 230" preserveAspectRatio="none"  >
<g label="Query sequence" class="clusterblast-cluster"  >
<text x="5" y="20" class="clusterblast-acc"  >
Query sequence</text>
<line x1="10" y1="35" x2="778.0" y2="35" style="stroke-width:1; stroke:grey; "  />
<polygon points="51,35 56,30 82,30 82,40 56,40 51,35 " style="fill:white; stroke-width:1; stroke:black; " description="&lt;b&gt;input.path1.gene1705&lt;/b&gt;&lt;br&gt;input.path1.gene1705&lt;br&gt;Location: 6117530 - 6119939" locus_tag="input.path1.gene1705" class="clusterblast-orf" id="dummy-9_q0_0_all"  />
<polygon points="108,40 110,40 115,35 110,30 108,30 108,40 " style="fill:white; stroke-width:1; stroke:black; " description="&lt;b&gt;input.path1.gene1706&lt;/b&gt;&lt;br&gt;input.path1.gene1706&lt;br&gt;Location: 6121979 - 6122517" locus_tag="input.path1.gene1706" class="clusterblast-orf" id="dummy-9_q1_0_all"  />
<polygon points="141,40 151,40 156,35 151,30 141,30 141,40 " style="fill:white; stroke-width:1; stroke:black; " description="&lt;b&gt;input.path1.gene1707&lt;/b&gt;&lt;br&gt;input.path1.gene1707&lt;br&gt;Location: 6124491 - 6125688" locus_tag="input.path1.gene1707" class="clusterblast-orf" id="dummy-9_q2_0_all"  />
<polygon points="167,35 172,30 182,30 182,40 172,40 167,35 " style="fill:white; stroke-width:1; stroke:black; " description="&lt;b&gt;input.path1.gene1708&lt;/b&gt;&lt;br&gt;input.path1.gene1708&lt;br&gt;Location: 6126472 - 6127669" locus_tag="input.path1.gene1708" class="clusterblast-orf" id="dummy-9_q3_0_all"  />
<polygon points="195,40 197,40 202,35 197,30 195,30 195,40 " style="fill:white; stroke-width:1; stroke:black; " description="&lt;b&gt;input.path1.gene1709&lt;/b&gt;&lt;br&gt;input.path1.gene1709&lt;br&gt;Location: 6128661 - 6129213" locus_tag="input.path1.gene1709" class="clusterblast-orf" id="dummy-9_q4_0_all"  />
<polygon points="251,40 265,40 270,35 265,30 251,30 251,40 " style="fill:white; stroke-width:1; stroke:black; " description="&lt;b&gt;input.path1.gene1710&lt;/b&gt;&lt;br&gt;input.path1.gene1710&lt;br&gt;Location: 6132964 - 6134487" locus_tag="input.path1.gene1710" class="clusterblast-orf" id="dummy-9_q5_0_all"  />
<polygon points="275,40 288,40 293,35 288,30 275,30 275,40 " style="fill:white; stroke-width:1; stroke:black; " description="&lt;b&gt;input.path1.gene1711&lt;/b&gt;&lt;br&gt;input.path1.gene1711&lt;br&gt;Location: 6134819 - 6136217" locus_tag="input.path1.gene1711" class="clusterblast-orf" id="dummy-9_q6_0_all"  />
<polygon points="320,40 363,40 368,35 363,30 320,30 320,40 " style="fill:#d81515; stroke-width:1; stroke:black; " description="&lt;b&gt;input.path1.gene1712&lt;/b&gt;&lt;br&gt;input.path1.gene1712&lt;br&gt;Location: 6138322 - 6142021" locus_tag="input.path1.gene1712" class="clusterblast-orf" id="dummy-9_q7_0_all"  />
<polygon points="370,35 375,30 393,30 393,40 375,40 370,35 " style="fill:#77d815; stroke-width:1; stroke:black; " description="&lt;b&gt;input.path1.gene1713&lt;/b&gt;&lt;br&gt;input.path1.gene1713&lt;br&gt;Location: 6142128 - 6143909" locus_tag="input.path1.gene1713" class="clusterblast-orf" id="dummy-9_q8_0_all"  />
<polygon points="396,35 401,30 406,30 406,40 401,40 396,35 " style="fill:#15d8d8; stroke-width:1; stroke:black; " description="&lt;b&gt;input.path1.gene1714&lt;/b&gt;&lt;br&gt;input.path1.gene1714&lt;br&gt;Location: 6144200 - 6144942" locus_tag="input.path1.gene1714" class="clusterblast-orf" id="dummy-9_q9_0_all"  />
<polygon points="479,40 482,40 487,35 482,30 479,30 479,40 " style="fill:white; stroke-width:1; stroke:black; " description="&lt;b&gt;input.path1.gene1715&lt;/b&gt;&lt;br&gt;input.path1.gene1715&lt;br&gt;Location: 6150585 - 6151218" locus_tag="input.path1.gene1715" class="clusterblast-orf" id="dummy-9_q10_0_all"  />
<polygon points="488,35 493,30 511,30 511,40 493,40 488,35 " style="fill:#7715d8; stroke-width:1; stroke:black; " description="&lt;b&gt;input.path1.gene1716&lt;/b&gt;&lt;br&gt;input.path1.gene1716&lt;br&gt;Location: 6151242 - 6153047" locus_tag="input.path1.gene1716" class="clusterblast-orf" id="dummy-9_q11_0_all"  />
<polygon points="524,40 602,40 607,35 602,30 524,30 524,40 " style="fill:#d8a715; stroke-width:1; stroke:black; " description="&lt;b&gt;input.path1.gene1717&lt;/b&gt;&lt;br&gt;input.path1.gene1717&lt;br&gt;Location: 6154054 - 6160415" locus_tag="input.path1.gene1717" class="clusterblast-orf" id="dummy-9_q12_0_all"  />
<polygon points="623,40 632,40 637,35 632,30 623,30 623,40 " style="fill:#15d846; stroke-width:1; stroke:black; " description="&lt;b&gt;input.path1.gene1718&lt;/b&gt;&lt;br&gt;input.path1.gene1718&lt;br&gt;Location: 6161697 - 6162733" locus_tag="input.path1.gene1718" class="clusterblast-orf" id="dummy-9_q13_0_all"  />
<polygon points="646,35 651,30 670,30 670,40 651,40 646,35 " style="fill:#1546d8; stroke-width:1; stroke:black; " description="&lt;b&gt;input.path1.gene1719&lt;/b&gt;&lt;br&gt;input.path1.gene1719&lt;br&gt;Location: 6163460 - 6165313" locus_tag="input.path1.gene1719" class="clusterblast-orf" id="dummy-9_q14_0_all"  />
<polygon points="685,40 703,40 708,35 703,30 685,30 685,40 " style="fill:#d815a7; stroke-width:1; stroke:black; " description="&lt;b&gt;input.path1.gene1720&lt;/b&gt;&lt;br&gt;input.path1.gene1720&lt;br&gt;Location: 6166484 - 6168235" locus_tag="input.path1.gene1720" class="clusterblast-orf" id="dummy-9_q15_0_all"  />
<polygon points="712,35 717,30 729,30 729,40 717,40 712,35 " style="fill:white; stroke-width:1; stroke:black; " description="&lt;b&gt;input.path1.gene1721&lt;/b&gt;&lt;br&gt;input.path1.gene1721&lt;br&gt;Location: 6168577 - 6169822" locus_tag="input.path1.gene1721" class="clusterblast-orf" id="dummy-9_q16_0_all"  />
</g>
<g label="NW_006917093" description="NW_006917093 (3054358-3117993): Pestalotiopsis fici W106-1 unplaced genomic s... (11% of genes show similarity), NRPS-like" class="clusterblast-cluster"  >
<text x="5" y="70" class="clusterblast-acc"  >
<a xlink:href="https://antismash-db.secondarymetabolites.org/area?record=NW_006917093&amp;start=3054358&amp;end=3117993" target="_blank">NW_006917093 (3054358-3117993)</a>: Pestalotiopsis fici W106-1 unplaced genomic s... (11% of genes show similarity), NRPS-like</text>
<line x1="10" y1="85" x2="778.0" y2="85" style="stroke-width:1; stroke:grey; "  />
</g>
<g id="a9_000"  >
<polygon points="0,85 5,80 23,80 23,90 5,90 0,85 " style="fill:#1546d8; stroke-width:1; stroke:black; " description="&lt;b&gt;PFICI_05081&lt;/b&gt;&lt;br&gt;T-complex protein 1 subunit alpha&lt;br&gt;Location: 3057300 - 3059119&lt;br&gt;&lt;br&gt;&lt;b&gt;BlastP hit with input.path1.gene1719&lt;/b&gt;&lt;br&gt;Percentage identity: 86&lt;br&gt;Percentage coverage: 100&lt;br&gt;BLAST bit score: 940&lt;br&gt;E-value: 0.0" locus_tag="PFICI_05081" class="clusterblast-orf" id="dummy-9_h9_2_0"  />
</g>
<g id="a9_001"  >
<polygon points="33,90 54,90 59,85 54,80 33,80 33,90 " style="fill:#d815a7; stroke-width:1; stroke:black; " description="&lt;b&gt;PFICI_05082&lt;/b&gt;&lt;br&gt;proline--tRNA ligase&lt;br&gt;Location: 3059873 - 3061897&lt;br&gt;&lt;br&gt;&lt;b&gt;BlastP hit with input.path1.gene1720&lt;/b&gt;&lt;br&gt;Percentage identity: 77&lt;br&gt;Percentage coverage: 93&lt;br&gt;BLAST bit score: 841&lt;br&gt;E-value: 1.44e-303" locus_tag="PFICI_05082" class="clusterblast-orf" id="dummy-9_h9_2_1"  />
</g>
<g id="a9_002"  >
<polygon points="73,85 78,80 91,80 91,90 78,90 73,85 " style="fill:white; stroke-width:1; stroke:black; " description="&lt;b&gt;PFICI_05083&lt;/b&gt;&lt;br&gt;hypothetical protein&lt;br&gt;Location: 3062973 - 3064354" locus_tag="PFICI_05083" class="clusterblast-orf" id="dummy-9_h9_2_2"  />
</g>
<g id="a9_003"  >
<polygon points="125,85 130,80 131,80 131,90 130,90 125,85 " style="fill:white; stroke-width:1; stroke:black; " description="&lt;b&gt;PFICI_05084&lt;/b&gt;&lt;br&gt;heat shock protein&lt;br&gt;Location: 3067001 - 3067448" locus_tag="PFICI_05084" class="clusterblast-orf" id="dummy-9_h9_2_3"  />
</g>
<g id="a9_004"  >
<polygon points="149,85 154,80 186,80 186,90 154,90 149,85 " style="fill:white; stroke-width:1; stroke:black; " description="&lt;b&gt;PFICI_05085&lt;/b&gt;&lt;br&gt;hypothetical protein&lt;br&gt;Location: 3068799 - 3071660" locus_tag="PFICI_05085" class="clusterblast-orf" id="dummy-9_h9_2_4"  />
</g>
<g id="a9_005"  >
<polygon points="350,85 355,80 397,80 397,90 355,90 350,85 " style="fill:white; stroke-width:1; stroke:black; " description="&lt;b&gt;PFICI_05086&lt;/b&gt;&lt;br&gt;hypothetical protein&lt;br&gt;Location: 3084359 - 3087993" locus_tag="PFICI_05086" class="clusterblast-orf" id="dummy-9_h9_2_5"  />
</g>
<g id="a9_006"  >
<polygon points="409,85 414,80 429,80 429,90 414,90 409,85 " style="fill:white; stroke-width:1; stroke:black; " description="&lt;b&gt;PFICI_05087&lt;/b&gt;&lt;br&gt;hypothetical protein&lt;br&gt;Location: 3088878 - 3090450" locus_tag="PFICI_05087" class="clusterblast-orf" id="dummy-9_h9_2_6"  />
</g>
<g id="a9_007"  >
<polygon points="438,90 447,90 452,85 447,80 438,80 438,90 " style="fill:white; stroke-width:1; stroke:black; " description="&lt;b&gt;PFICI_05088&lt;/b&gt;&lt;br&gt;hypothetical protein&lt;br&gt;Location: 3091131 - 3092206" locus_tag="PFICI_05088" class="clusterblast-orf" id="dummy-9_h9_2_7"  />
</g>
<g id="a9_008"  >
<polygon points="457,85 462,80 480,80 480,90 462,90 457,85 " style="fill:white; stroke-width:1; stroke:black; " description="&lt;b&gt;PFICI_05089&lt;/b&gt;&lt;br&gt;hypothetical protein&lt;br&gt;Location: 3092574 - 3094357" locus_tag="PFICI_05089" class="clusterblast-orf" id="dummy-9_h9_2_8"  />
</g>
<g id="a9_009"  >
<polygon points="489,90 490,90 495,85 490,80 489,80 489,90 " style="fill:white; stroke-width:1; stroke:black; " description="&lt;b&gt;PFICI_05090&lt;/b&gt;&lt;br&gt;hypothetical protein&lt;br&gt;Location: 3095026 - 3095502" locus_tag="PFICI_05090" class="clusterblast-orf" id="dummy-9_h9_2_9"  />
</g>
<g id="a9_0010"  >
<polygon points="504,85 509,80 529,80 529,90 509,90 504,85 " style="fill:white; stroke-width:1; stroke:black; " description="&lt;b&gt;PFICI_05091&lt;/b&gt;&lt;br&gt;hypothetical protein&lt;br&gt;Location: 3096235 - 3098131" locus_tag="PFICI_05091" class="clusterblast-orf" id="dummy-9_h9_2_10"  />
</g>
<g id="a9_0011"  >
<polygon points="539,85 544,80 565,80 565,90 544,90 539,85 " style="fill:white; stroke-width:1; stroke:black; " description="&lt;b&gt;PFICI_05092&lt;/b&gt;&lt;br&gt;hypothetical protein&lt;br&gt;Location: 3098916 - 3100934" locus_tag="PFICI_05092" class="clusterblast-orf" id="dummy-9_h9_2_11"  />
</g>
<g id="a9_0012"  >
<polygon points="573,90 595,90 600,85 595,80 573,80 573,90 " style="fill:white; stroke-width:1; stroke:black; " description="&lt;b&gt;PFICI_05093&lt;/b&gt;&lt;br&gt;hypothetical protein&lt;br&gt;Location: 3101508 - 3103592" locus_tag="PFICI_05093" class="clusterblast-orf" id="dummy-9_h9_2_12"  />
</g>
<g id="a9_0013"  >
<polygon points="614,90 630,90 635,85 630,80 614,80 614,90 " style="fill:white; stroke-width:1; stroke:black; " description="&lt;b&gt;PFICI_05094&lt;/b&gt;&lt;br&gt;hypothetical protein&lt;br&gt;Location: 3104728 - 3106307" locus_tag="PFICI_05094" class="clusterblast-orf" id="dummy-9_h9_2_13"  />
</g>
<g id="a9_0014"  >
<polygon points="658,85 663,80 680,80 680,90 663,90 658,85 " style="fill:white; stroke-width:1; stroke:black; " description="&lt;b&gt;PFICI_05095&lt;/b&gt;&lt;br&gt;hypothetical protein&lt;br&gt;Location: 3108101 - 3109821" locus_tag="PFICI_05095" class="clusterblast-orf" id="dummy-9_h9_2_14"  />
</g>
<g id="a9_0015"  >
<polygon points="702,90 718,90 723,85 718,80 702,80 702,90 " style="fill:white; stroke-width:1; stroke:black; " description="&lt;b&gt;PFICI_05096&lt;/b&gt;&lt;br&gt;hypothetical protein&lt;br&gt;Location: 3111449 - 3113124" locus_tag="PFICI_05096" class="clusterblast-orf" id="dummy-9_h9_2_15"  />
</g>
<g id="a9_0016"  >
<polygon points="726,85 731,80 749,80 749,90 731,90 726,85 " style="fill:white; stroke-width:1; stroke:black; " description="&lt;b&gt;PFICI_05097&lt;/b&gt;&lt;br&gt;hypothetical protein&lt;br&gt;Location: 3113336 - 3115099" locus_tag="PFICI_05097" class="clusterblast-orf" id="dummy-9_h9_2_16"  />
</g>
<g id="a9_0017"  >
<polygon points="759,90 775,90 780,85 775,80 759,80 759,90 " style="fill:white; stroke-width:1; stroke:black; " description="&lt;b&gt;PFICI_05098&lt;/b&gt;&lt;br&gt;hypothetical protein&lt;br&gt;Location: 3115900 - 3117462" locus_tag="PFICI_05098" class="clusterblast-orf" id="dummy-9_h9_2_17"  />
</g>
</svg>
