<svg xmlns="http://www.w3.org/2000/svg" xmlns:xlink="http://www.w3.org/1999/xlink" version="1.1" x="0" y="0" height="230" width="800" viewBox="0 0 800 230" preserveAspectRatio="none"  >
<g label="Query sequence" class="clusterblast-cluster"  >
<text x="5" y="20" class="clusterblast-acc"  >
Query sequence</text>
<line x1="10" y1="35" x2="778.0" y2="35" style="stroke-width:1; stroke:grey; "  />
<polygon points="174,40 176,35 174,30 174,40 " style="fill:white; stroke-width:1; stroke:black; " description="&lt;b&gt;input.path1.gene1&lt;/b&gt;&lt;br&gt;input.path1.gene1&lt;br&gt;Location: 0 - 98" locus_tag="input.path1.gene1" class="clusterblast-orf" id="dummy-1_q0_0_all"  />
<polygon points="178,35 183,30 217,30 217,40 183,40 178,35 " style="fill:#d81515; stroke-width:1; stroke:black; " description="&lt;b&gt;input.path1.gene2&lt;/b&gt;&lt;br&gt;input.path1.gene2&lt;br&gt;Location: 300 - 3386" locus_tag="input.path1.gene2" class="clusterblast-orf" id="dummy-1_q1_0_all"  />
<polygon points="270,40 369,40 374,35 369,30 270,30 270,40 " style="fill:#15d815; stroke-width:1; stroke:black; " description="&lt;b&gt;input.path1.gene3&lt;/b&gt;&lt;br&gt;input.path1.gene3&lt;br&gt;Location: 7637 - 15828" locus_tag="input.path1.gene3" class="clusterblast-orf" id="dummy-1_q2_0_all"  />
<polygon points="465,40 476,40 481,35 476,30 465,30 465,40 " style="fill:white; stroke-width:1; stroke:black; " description="&lt;b&gt;input.path1.gene4&lt;/b&gt;&lt;br&gt;input.path1.gene4&lt;br&gt;Location: 23061 - 24338" locus_tag="input.path1.gene4" class="clusterblast-orf" id="dummy-1_q3_0_all"  />
<polygon points="499,35 504,30 505,30 505,40 504,40 499,35 " style="fill:white; stroke-width:1; stroke:black; " description="&lt;b&gt;input.path1.gene5&lt;/b&gt;&lt;br&gt;input.path1.gene5&lt;br&gt;Location: 25766 - 26284" locus_tag="input.path1.gene5" class="clusterblast-orf" id="dummy-1_q4_0_all"  />
<polygon points="526,35 531,30 543,30 543,40 531,40 526,35 " style="fill:white; stroke-width:1; stroke:black; " description="&lt;b&gt;input.path1.gene6&lt;/b&gt;&lt;br&gt;input.path1.gene6&lt;br&gt;Location: 27942 - 29292" locus_tag="input.path1.gene6" class="clusterblast-orf" id="dummy-1_q5_0_all"  />
<polygon points="573,35 578,30 605,30 605,40 578,40 573,35 " style="fill:#1515d8; stroke-width:1; stroke:black; " description="&lt;b&gt;input.path1.gene7&lt;/b&gt;&lt;br&gt;input.path1.gene7&lt;br&gt;Location: 31671 - 34215" locus_tag="input.path1.gene7" class="clusterblast-orf" id="dummy-1_q6_0_all"  />
</g>
<g label="NW_020290659" description="NW_020290659 (1722-70409): Aspergillus saccharolyticus JOP 1030-1 unplaced ge... (13% of genes show similarity), T1PKS" class="clusterblast-cluster"  >
<text x="5" y="70" class="clusterblast-acc"  >
<a xlink:href="https://antismash-db.secondarymetabolites.org/area?record=NW_020290659&amp;start=1722&amp;end=70409" target="_blank">NW_020290659 (1722-70409)</a>: Aspergillus saccharolyticus JOP 1030-1 unplaced ge... (13% of genes show similarity), T1PKS</text>
<line x1="10" y1="85" x2="778.0" y2="85" style="stroke-width:1; stroke:grey; "  />
</g>
<g id="a1_000"  >
<polygon points="0,85 2,80 2,90 0,85 " style="fill:white; stroke-width:1; stroke:black; " description="&lt;b&gt;BP01DRAFT_266491&lt;/b&gt;&lt;br&gt;hypothetical protein&lt;br&gt;Location: 3460 - 3684" locus_tag="BP01DRAFT_266491" class="clusterblast-orf" id="dummy-1_h1_5_0"  />
</g>
<g id="a1_001"  >
<polygon points="211,90 225,90 230,85 225,80 211,80 211,90 " style="fill:white; stroke-width:1; stroke:black; " description="&lt;b&gt;BP01DRAFT_306144&lt;/b&gt;&lt;br&gt;FAD binding domain protein&lt;br&gt;Location: 20235 - 21788" locus_tag="BP01DRAFT_306144" class="clusterblast-orf" id="dummy-1_h1_5_1"  />
</g>
<g id="a1_002"  >
<polygon points="243,90 249,90 254,85 249,80 243,80 243,90 " style="fill:white; stroke-width:1; stroke:black; " description="&lt;b&gt;BP01DRAFT_377139&lt;/b&gt;&lt;br&gt;concanavalin A-like lectin/glucanase&lt;br&gt;Location: 22802 - 23653" locus_tag="BP01DRAFT_377139" class="clusterblast-orf" id="dummy-1_h1_5_2"  />
</g>
<g id="a1_003"  >
<polygon points="267,90 274,90 279,85 274,80 267,80 267,90 " style="fill:white; stroke-width:1; stroke:black; " description="&lt;b&gt;BP01DRAFT_407253&lt;/b&gt;&lt;br&gt;cytochrome b5&lt;br&gt;Location: 24725 - 25666" locus_tag="BP01DRAFT_407253" class="clusterblast-orf" id="dummy-1_h1_5_3"  />
</g>
<g id="a1_004"  >
<polygon points="292,90 297,90 302,85 297,80 292,80 292,90 " style="fill:white; stroke-width:1; stroke:black; " description="&lt;b&gt;BP01DRAFT_418817&lt;/b&gt;&lt;br&gt;putative EF-hand calcium-binding domain protein&lt;br&gt;Location: 26699 - 27546" locus_tag="BP01DRAFT_418817" class="clusterblast-orf" id="dummy-1_h1_5_4"  />
</g>
<g id="a1_005"  >
<polygon points="304,85 309,80 346,80 346,90 309,90 304,85 " style="fill:#d81515; stroke-width:1; stroke:black; " description="&lt;b&gt;BP01DRAFT_349420&lt;/b&gt;&lt;br&gt;major facilitator superfamily transporter&lt;br&gt;Location: 27705 - 31043&lt;br&gt;&lt;br&gt;&lt;b&gt;BlastP hit with input.path1.gene2&lt;/b&gt;&lt;br&gt;Percentage identity: 37&lt;br&gt;Percentage coverage: 26&lt;br&gt;BLAST bit score: 109&lt;br&gt;E-value: 6.34e-23" locus_tag="BP01DRAFT_349420" class="clusterblast-orf" id="dummy-1_h1_5_5"  />
</g>
<g id="a1_006"  >
<polygon points="355,90 459,90 464,85 459,80 355,80 355,90 " style="fill:#15d815; stroke-width:1; stroke:black; " description="&lt;b&gt;BP01DRAFT_418819&lt;/b&gt;&lt;br&gt;polyketide synthase&lt;br&gt;Location: 31723 - 40409&lt;br&gt;&lt;br&gt;&lt;b&gt;BlastP hit with input.path1.gene3&lt;/b&gt;&lt;br&gt;Percentage identity: 34&lt;br&gt;Percentage coverage: 113&lt;br&gt;BLAST bit score: 1203&lt;br&gt;E-value: 0.0" locus_tag="BP01DRAFT_418819" class="clusterblast-orf" id="dummy-1_h1_5_6"  />
</g>
<g id="a1_007"  >
<polygon points="481,85 486,80 523,80 523,90 486,90 481,85 " style="fill:white; stroke-width:1; stroke:black; " description="&lt;b&gt;BP01DRAFT_418820&lt;/b&gt;&lt;br&gt;alpha-1,6 mannosyltransferase subunit&lt;br&gt;Location: 41704 - 45056" locus_tag="BP01DRAFT_418820" class="clusterblast-orf" id="dummy-1_h1_5_7"  />
</g>
<g id="a1_008"  >
<polygon points="533,85 538,80 547,80 547,90 538,90 533,85 " style="fill:white; stroke-width:1; stroke:black; " description="&lt;b&gt;BP01DRAFT_360540&lt;/b&gt;&lt;br&gt;hypothetical protein&lt;br&gt;Location: 45848 - 47011" locus_tag="BP01DRAFT_360540" class="clusterblast-orf" id="dummy-1_h1_5_8"  />
</g>
<g id="a1_009"  >
<polygon points="612,85 617,80 643,80 643,90 617,90 612,85 " style="fill:white; stroke-width:1; stroke:black; " description="&lt;b&gt;BP01DRAFT_395205&lt;/b&gt;&lt;br&gt;hypothetical protein&lt;br&gt;Location: 52122 - 54639" locus_tag="BP01DRAFT_395205" class="clusterblast-orf" id="dummy-1_h1_5_9"  />
</g>
<g id="a1_0010"  >
<polygon points="657,85 662,80 665,80 665,90 662,90 657,85 " style="fill:white; stroke-width:1; stroke:black; " description="&lt;b&gt;BP01DRAFT_360543&lt;/b&gt;&lt;br&gt;hypothetical protein&lt;br&gt;Location: 55752 - 56330" locus_tag="BP01DRAFT_360543" class="clusterblast-orf" id="dummy-1_h1_5_10"  />
</g>
<g id="a1_0011"  >
<polygon points="691,90 706,90 711,85 706,80 691,80 691,90 " style="fill:white; stroke-width:1; stroke:black; " description="&lt;b&gt;BP01DRAFT_172083&lt;/b&gt;&lt;br&gt;Myo-inositol-1-phosphate synthase&lt;br&gt;Location: 58425 - 60023" locus_tag="BP01DRAFT_172083" class="clusterblast-orf" id="dummy-1_h1_5_11"  />
</g>
<g id="a1_0012"  >
<polygon points="713,85 718,80 728,80 728,90 718,90 713,85 " style="fill:white; stroke-width:1; stroke:black; " description="&lt;b&gt;BP01DRAFT_172093&lt;/b&gt;&lt;br&gt;1-aminocyclopropane-1-carboxylate&lt;br&gt;Location: 60170 - 61345" locus_tag="BP01DRAFT_172093" class="clusterblast-orf" id="dummy-1_h1_5_12"  />
</g>
<g id="a1_0013"  >
<polygon points="737,85 742,80 755,80 755,90 742,90 737,85 " style="fill:white; stroke-width:1; stroke:black; " description="&lt;b&gt;BP01DRAFT_328028&lt;/b&gt;&lt;br&gt;alcohol dehydrogenase&lt;br&gt;Location: 62064 - 63479" locus_tag="BP01DRAFT_328028" class="clusterblast-orf" id="dummy-1_h1_5_13"  />
</g>
<g id="a1_0014"  >
<polygon points="773,85 778,80 780,80 780,90 778,90 773,85 " style="fill:white; stroke-width:1; stroke:black; " description="&lt;b&gt;BP01DRAFT_386549&lt;/b&gt;&lt;br&gt;mitochondrial import inner membrane translocase subunit tim9&lt;br&gt;Location: 64984 - 65466" locus_tag="BP01DRAFT_386549" class="clusterblast-orf" id="dummy-1_h1_5_14"  />
</g>
</svg>
