<svg xmlns="http://www.w3.org/2000/svg" xmlns:xlink="http://www.w3.org/1999/xlink" version="1.1" x="0" y="0" height="230" width="800" viewBox="0 0 800 230" preserveAspectRatio="none"  >
<g label="Query sequence" class="clusterblast-cluster"  >
<text x="5" y="20" class="clusterblast-acc"  >
Query sequence</text>
<line x1="10" y1="35" x2="778.0" y2="35" style="stroke-width:1; stroke:grey; "  />
<polygon points="152,35 157,30 254,30 254,40 157,40 152,35 " style="fill:#d81515; stroke-width:1; stroke:black; " description="&lt;b&gt;input.path1.gene1091&lt;/b&gt;&lt;br&gt;input.path1.gene1091&lt;br&gt;Location: 3947785 - 3956035" locus_tag="input.path1.gene1091" class="clusterblast-orf" id="dummy-6_q0_0_all"  />
<polygon points="285,40 303,40 308,35 303,30 285,30 285,40 " style="fill:#77d815; stroke-width:1; stroke:black; " description="&lt;b&gt;input.path1.gene1092&lt;/b&gt;&lt;br&gt;input.path1.gene1092&lt;br&gt;Location: 3958484 - 3960354" locus_tag="input.path1.gene1092" class="clusterblast-orf" id="dummy-6_q1_0_all"  />
<polygon points="338,40 343,40 348,35 343,30 338,30 338,40 " style="fill:#15d8d8; stroke-width:1; stroke:black; " description="&lt;b&gt;input.path1.gene1093&lt;/b&gt;&lt;br&gt;input.path1.gene1093&lt;br&gt;Location: 3962799 - 3963590" locus_tag="input.path1.gene1093" class="clusterblast-orf" id="dummy-6_q2_0_all"  />
<polygon points="349,35 354,30 368,30 368,40 354,40 349,35 " style="fill:#7715d8; stroke-width:1; stroke:black; " description="&lt;b&gt;input.path1.gene1094&lt;/b&gt;&lt;br&gt;input.path1.gene1094&lt;br&gt;Location: 3963668 - 3965186" locus_tag="input.path1.gene1094" class="clusterblast-orf" id="dummy-6_q3_0_all"  />
<polygon points="400,40 462,40 467,35 462,30 400,30 400,40 " style="fill:#d8a715; stroke-width:1; stroke:black; " description="&lt;b&gt;input.path1.gene1095&lt;/b&gt;&lt;br&gt;input.path1.gene1095&lt;br&gt;Location: 3967760 - 3973208" locus_tag="input.path1.gene1095" class="clusterblast-orf" id="dummy-6_q4_0_all"  />
<polygon points="474,35 479,30 490,30 490,40 479,40 474,35 " style="fill:#15d846; stroke-width:1; stroke:black; " description="&lt;b&gt;input.path1.gene1096&lt;/b&gt;&lt;br&gt;input.path1.gene1096&lt;br&gt;Location: 3973701 - 3975045" locus_tag="input.path1.gene1096" class="clusterblast-orf" id="dummy-6_q5_0_all"  />
<polygon points="499,40 501,40 506,35 501,30 499,30 499,40 " style="fill:white; stroke-width:1; stroke:black; " description="&lt;b&gt;input.path1.gene1097&lt;/b&gt;&lt;br&gt;input.path1.gene1097&lt;br&gt;Location: 3975726 - 3976277" locus_tag="input.path1.gene1097" class="clusterblast-orf" id="dummy-6_q6_0_all"  />
<polygon points="578,35 583,30 607,30 607,40 583,40 578,35 " style="fill:#1546d8; stroke-width:1; stroke:black; " description="&lt;b&gt;input.path1.gene1098&lt;/b&gt;&lt;br&gt;input.path1.gene1098&lt;br&gt;Location: 3982116 - 3984477" locus_tag="input.path1.gene1098" class="clusterblast-orf" id="dummy-6_q7_0_all"  />
<polygon points="613,40 622,40 627,35 622,30 613,30 613,40 " style="fill:#d815a7; stroke-width:1; stroke:black; " description="&lt;b&gt;input.path1.gene1099&lt;/b&gt;&lt;br&gt;input.path1.gene1099&lt;br&gt;Location: 3984921 - 3986084" locus_tag="input.path1.gene1099" class="clusterblast-orf" id="dummy-6_q8_0_all"  />
</g>
<g label="NC_057319" description="NC_057319 (2334015-2399373): Ustilaginoidea virens chromosome 4, complete seq... (47% of genes show similarity), NRPS" class="clusterblast-cluster"  >
<text x="5" y="70" class="clusterblast-acc"  >
<a xlink:href="https://antismash-db.secondarymetabolites.org/area?record=NC_057319&amp;start=2334015&amp;end=2399373" target="_blank">NC_057319 (2334015-2399373)</a>: Ustilaginoidea virens chromosome 4, complete seq... (47% of genes show similarity), NRPS</text>
<line x1="10" y1="85" x2="778.0" y2="85" style="stroke-width:1; stroke:grey; "  />
</g>
<g id="a6_000"  >
<polygon points="0,85 5,80 33,80 33,90 5,90 0,85 " style="fill:white; stroke-width:1; stroke:black; " description="&lt;b&gt;UV8b_05085&lt;/b&gt;&lt;br&gt;uncharacterized protein&lt;br&gt;Location: 2396894 - 2394162" locus_tag="UV8b_05085" class="clusterblast-orf" id="dummy-6_h6_8_0"  />
</g>
<g id="a6_001"  >
<polygon points="41,90 44,85 41,80 41,90 " style="fill:white; stroke-width:1; stroke:black; " description="&lt;b&gt;UV8b_05084&lt;/b&gt;&lt;br&gt;uncharacterized protein&lt;br&gt;Location: 2393584 - 2393279" locus_tag="UV8b_05084" class="clusterblast-orf" id="dummy-6_h6_8_1"  />
</g>
<g id="a6_002"  >
<polygon points="47,85 52,80 91,80 91,90 52,90 47,85 " style="fill:white; stroke-width:1; stroke:black; " description="&lt;b&gt;UV8b_05083&lt;/b&gt;&lt;br&gt;uncharacterized protein&lt;br&gt;Location: 2393062 - 2389509" locus_tag="UV8b_05083" class="clusterblast-orf" id="dummy-6_h6_8_2"  />
</g>
<g id="a6_003"  >
<polygon points="99,85 104,80 133,80 133,90 104,90 99,85 " style="fill:#d81515; stroke-width:1; stroke:black; " description="&lt;b&gt;UV8b_05082&lt;/b&gt;&lt;br&gt;uncharacterized protein&lt;br&gt;Location: 2388913 - 2386100&lt;br&gt;&lt;br&gt;&lt;b&gt;BlastP hit with input.path1.gene1091&lt;/b&gt;&lt;br&gt;Percentage identity: 71&lt;br&gt;Percentage coverage: 38&lt;br&gt;BLAST bit score: 1105&lt;br&gt;E-value: 0.0" locus_tag="UV8b_05082" class="clusterblast-orf" id="dummy-6_h6_8_3"  />
</g>
<g id="a6_004"  >
<polygon points="155,85 160,80 207,80 207,90 160,90 155,85 " style="fill:#d81515; stroke-width:1; stroke:black; " description="&lt;b&gt;UV8b_05081&lt;/b&gt;&lt;br&gt;uncharacterized protein&lt;br&gt;Location: 2384378 - 2380191&lt;br&gt;&lt;br&gt;&lt;b&gt;BlastP hit with input.path1.gene1091&lt;/b&gt;&lt;br&gt;Percentage identity: 64&lt;br&gt;Percentage coverage: 58&lt;br&gt;BLAST bit score: 1587&lt;br&gt;E-value: 0.0" locus_tag="UV8b_05081" class="clusterblast-orf" id="dummy-6_h6_8_4"  />
</g>
<g id="a6_005"  >
<polygon points="229,90 244,90 249,85 244,80 229,80 229,90 " style="fill:#77d815; stroke-width:1; stroke:black; " description="&lt;b&gt;UV8b_05080&lt;/b&gt;&lt;br&gt;uncharacterized protein&lt;br&gt;Location: 2378420 - 2376807&lt;br&gt;&lt;br&gt;&lt;b&gt;BlastP hit with input.path1.gene1092&lt;/b&gt;&lt;br&gt;Percentage identity: 66&lt;br&gt;Percentage coverage: 91&lt;br&gt;BLAST bit score: 516&lt;br&gt;E-value: 1.25e-180" locus_tag="UV8b_05080" class="clusterblast-orf" id="dummy-6_h6_8_5"  />
</g>
<g id="a6_006"  >
<polygon points="269,90 284,90 289,85 284,80 269,80 269,90 " style="fill:#15d8d8; stroke-width:1; stroke:black; " description="&lt;b&gt;UV8b_05079&lt;/b&gt;&lt;br&gt;uncharacterized protein&lt;br&gt;Location: 2375183 - 2373581&lt;br&gt;&lt;br&gt;&lt;b&gt;BlastP hit with input.path1.gene1093&lt;/b&gt;&lt;br&gt;Percentage identity: 84&lt;br&gt;Percentage coverage: 95&lt;br&gt;BLAST bit score: 300&lt;br&gt;E-value: 7.25e-100" locus_tag="UV8b_05079" class="clusterblast-orf" id="dummy-6_h6_8_6"  />
</g>
<g id="a6_007"  >
<polygon points="294,85 299,80 317,80 317,90 299,90 294,85 " style="fill:#7715d8; stroke-width:1; stroke:black; " description="&lt;b&gt;UV8b_05078&lt;/b&gt;&lt;br&gt;uncharacterized protein&lt;br&gt;Location: 2373172 - 2371266&lt;br&gt;&lt;br&gt;&lt;b&gt;BlastP hit with input.path1.gene1094&lt;/b&gt;&lt;br&gt;Percentage identity: 58&lt;br&gt;Percentage coverage: 134&lt;br&gt;BLAST bit score: 545&lt;br&gt;E-value: 2.2e-191" locus_tag="UV8b_05078" class="clusterblast-orf" id="dummy-6_h6_8_7"  />
</g>
<g id="a6_008"  >
<polygon points="341,90 402,90 407,85 402,80 341,80 341,90 " style="fill:#d8a715; stroke-width:1; stroke:black; " description="&lt;b&gt;UV8b_05077&lt;/b&gt;&lt;br&gt;uncharacterized protein&lt;br&gt;Location: 2369373 - 2364016&lt;br&gt;&lt;br&gt;&lt;b&gt;BlastP hit with input.path1.gene1095&lt;/b&gt;&lt;br&gt;Percentage identity: 59&lt;br&gt;Percentage coverage: 100&lt;br&gt;BLAST bit score: 1903&lt;br&gt;E-value: 0.0" locus_tag="UV8b_05077" class="clusterblast-orf" id="dummy-6_h6_8_8"  />
</g>
<g id="a6_009"  >
<polygon points="416,85 421,80 437,80 437,90 421,90 416,85 " style="fill:#15d846; stroke-width:1; stroke:black; " description="&lt;b&gt;UV8b_05076&lt;/b&gt;&lt;br&gt;uncharacterized protein&lt;br&gt;Location: 2363352 - 2361651&lt;br&gt;&lt;br&gt;&lt;b&gt;BlastP hit with input.path1.gene1096&lt;/b&gt;&lt;br&gt;Percentage identity: 48&lt;br&gt;Percentage coverage: 107&lt;br&gt;BLAST bit score: 334&lt;br&gt;E-value: 3.77e-108" locus_tag="UV8b_05076" class="clusterblast-orf" id="dummy-6_h6_8_9"  />
</g>
<g id="a6_0010"  >
<polygon points="495,85 500,80 526,80 526,90 500,90 495,85 " style="fill:white; stroke-width:1; stroke:black; " description="&lt;b&gt;UV8b_05075&lt;/b&gt;&lt;br&gt;uncharacterized protein&lt;br&gt;Location: 2356954 - 2354487" locus_tag="UV8b_05075" class="clusterblast-orf" id="dummy-6_h6_8_10"  />
</g>
<g id="a6_0011"  >
<polygon points="542,85 547,80 560,80 560,90 547,90 542,85 " style="fill:#1546d8; stroke-width:1; stroke:black; " description="&lt;b&gt;UV8b_05074&lt;/b&gt;&lt;br&gt;uncharacterized protein&lt;br&gt;Location: 2353175 - 2351690&lt;br&gt;&lt;br&gt;&lt;b&gt;BlastP hit with input.path1.gene1098&lt;/b&gt;&lt;br&gt;Percentage identity: 55&lt;br&gt;Percentage coverage: 87&lt;br&gt;BLAST bit score: 197&lt;br&gt;E-value: 6.94e-56" locus_tag="UV8b_05074" class="clusterblast-orf" id="dummy-6_h6_8_11"  />
</g>
<g id="a6_0012"  >
<polygon points="581,90 590,90 595,85 590,80 581,80 581,90 " style="fill:#d815a7; stroke-width:1; stroke:black; " description="&lt;b&gt;UV8b_05073&lt;/b&gt;&lt;br&gt;uncharacterized protein&lt;br&gt;Location: 2350033 - 2348873&lt;br&gt;&lt;br&gt;&lt;b&gt;BlastP hit with input.path1.gene1099&lt;/b&gt;&lt;br&gt;Percentage identity: 38&lt;br&gt;Percentage coverage: 102&lt;br&gt;BLAST bit score: 194&lt;br&gt;E-value: 3.48e-57" locus_tag="UV8b_05073" class="clusterblast-orf" id="dummy-6_h6_8_12"  />
</g>
<g id="a6_0013"  >
<polygon points="599,85 604,80 647,80 647,90 604,90 599,85 " style="fill:white; stroke-width:1; stroke:black; " description="&lt;b&gt;UV8b_05072&lt;/b&gt;&lt;br&gt;uncharacterized protein&lt;br&gt;Location: 2348555 - 2344698" locus_tag="UV8b_05072" class="clusterblast-orf" id="dummy-6_h6_8_13"  />
</g>
<g id="a6_0014"  >
<polygon points="665,90 672,90 677,85 672,80 665,80 665,90 " style="fill:white; stroke-width:1; stroke:black; " description="&lt;b&gt;UV8b_05071&lt;/b&gt;&lt;br&gt;uncharacterized protein&lt;br&gt;Location: 2343277 - 2342315" locus_tag="UV8b_05071" class="clusterblast-orf" id="dummy-6_h6_8_14"  />
</g>
<g id="a6_0015"  >
<polygon points="687,90 695,90 700,85 695,80 687,80 687,90 " style="fill:white; stroke-width:1; stroke:black; " description="&lt;b&gt;UV8b_05070&lt;/b&gt;&lt;br&gt;uncharacterized protein&lt;br&gt;Location: 2341485 - 2340436" locus_tag="UV8b_05070" class="clusterblast-orf" id="dummy-6_h6_8_15"  />
</g>
<g id="a6_0016"  >
<polygon points="706,90 707,90 712,85 707,80 706,80 706,90 " style="fill:white; stroke-width:1; stroke:black; " description="&lt;b&gt;UV8b_05069&lt;/b&gt;&lt;br&gt;uncharacterized protein&lt;br&gt;Location: 2339952 - 2339502" locus_tag="UV8b_05069" class="clusterblast-orf" id="dummy-6_h6_8_16"  />
</g>
<g id="a6_0017"  >
<polygon points="714,90 726,90 731,85 726,80 714,80 714,90 " style="fill:white; stroke-width:1; stroke:black; " description="&lt;b&gt;UV8b_05068&lt;/b&gt;&lt;br&gt;uncharacterized protein&lt;br&gt;Location: 2339267 - 2337950" locus_tag="UV8b_05068" class="clusterblast-orf" id="dummy-6_h6_8_17"  />
</g>
<g id="a6_0018"  >
<polygon points="749,90 775,90 780,85 775,80 749,80 749,90 " style="fill:white; stroke-width:1; stroke:black; " description="&lt;b&gt;UV8b_05067&lt;/b&gt;&lt;br&gt;uncharacterized protein&lt;br&gt;Location: 2336490 - 2334026" locus_tag="UV8b_05067" class="clusterblast-orf" id="dummy-6_h6_8_18"  />
</g>
</svg>
