<svg xmlns="http://www.w3.org/2000/svg" xmlns:xlink="http://www.w3.org/1999/xlink" version="1.1" x="0" y="0" height="230" width="800" viewBox="0 0 800 230" preserveAspectRatio="none"  >
<g label="Query sequence" class="clusterblast-cluster"  >
<text x="5" y="20" class="clusterblast-acc"  >
Query sequence</text>
<line x1="10" y1="35" x2="778.0" y2="35" style="stroke-width:1; stroke:grey; "  />
<polygon points="150,35 155,30 177,30 177,40 155,40 150,35 " style="fill:#d81515; stroke-width:1; stroke:black; " description="&lt;b&gt;input.path1.gene635&lt;/b&gt;&lt;br&gt;input.path1.gene635&lt;br&gt;Location: 2299947 - 2301999" locus_tag="input.path1.gene635" class="clusterblast-orf" id="dummy-4_q0_0_all"  />
<polygon points="187,40 216,40 221,35 216,30 187,30 187,40 " style="fill:#77d815; stroke-width:1; stroke:black; " description="&lt;b&gt;input.path1.gene636&lt;/b&gt;&lt;br&gt;input.path1.gene636&lt;br&gt;Location: 2302710 - 2305287" locus_tag="input.path1.gene636" class="clusterblast-orf" id="dummy-4_q1_0_all"  />
<polygon points="251,40 252,40 257,35 252,30 251,30 251,40 " style="fill:#15d8d8; stroke-width:1; stroke:black; " description="&lt;b&gt;input.path1.gene637&lt;/b&gt;&lt;br&gt;input.path1.gene637&lt;br&gt;Location: 2307563 - 2307993" locus_tag="input.path1.gene637" class="clusterblast-orf" id="dummy-4_q2_0_all"  />
<polygon points="318,40 415,40 420,35 415,30 318,30 318,40 " style="fill:#7715d8; stroke-width:1; stroke:black; " description="&lt;b&gt;input.path1.gene638&lt;/b&gt;&lt;br&gt;input.path1.gene638&lt;br&gt;Location: 2312633 - 2320313" locus_tag="input.path1.gene638" class="clusterblast-orf" id="dummy-4_q3_0_all"  />
<polygon points="420,35 425,30 448,30 448,40 425,40 420,35 " style="fill:#d8a715; stroke-width:1; stroke:black; " description="&lt;b&gt;input.path1.gene639&lt;/b&gt;&lt;br&gt;input.path1.gene639&lt;br&gt;Location: 2320309 - 2322448" locus_tag="input.path1.gene639" class="clusterblast-orf" id="dummy-4_q4_0_all"  />
<polygon points="524,40 539,40 544,35 539,30 524,30 524,40 " style="fill:#15d846; stroke-width:1; stroke:black; " description="&lt;b&gt;input.path1.gene640&lt;/b&gt;&lt;br&gt;input.path1.gene640&lt;br&gt;Location: 2328162 - 2329679" locus_tag="input.path1.gene640" class="clusterblast-orf" id="dummy-4_q5_0_all"  />
<polygon points="552,40 579,40 584,35 579,30 552,30 552,40 " style="fill:#1546d8; stroke-width:1; stroke:black; " description="&lt;b&gt;input.path1.gene641&lt;/b&gt;&lt;br&gt;input.path1.gene641&lt;br&gt;Location: 2330265 - 2332639" locus_tag="input.path1.gene641" class="clusterblast-orf" id="dummy-4_q6_0_all"  />
<polygon points="585,35 590,30 629,30 629,40 590,40 585,35 " style="fill:#d815a7; stroke-width:1; stroke:black; " description="&lt;b&gt;input.path1.gene642&lt;/b&gt;&lt;br&gt;input.path1.gene642&lt;br&gt;Location: 2332761 - 2336079" locus_tag="input.path1.gene642" class="clusterblast-orf" id="dummy-4_q7_0_all"  />
</g>
<g label="NC_058392" description="NC_058392 (1189925-1257407): Fusarium musae strain F31 chromosome 6, whole ge... (46% of genes show similarity), T1PKS" class="clusterblast-cluster"  >
<text x="5" y="70" class="clusterblast-acc"  >
<a xlink:href="https://antismash-db.secondarymetabolites.org/area?record=NC_058392&amp;start=1189925&amp;end=1257407" target="_blank">NC_058392 (1189925-1257407)</a>: Fusarium musae strain F31 chromosome 6, whole ge... (46% of genes show similarity), T1PKS</text>
<line x1="10" y1="85" x2="778.0" y2="85" style="stroke-width:1; stroke:grey; "  />
</g>
<g id="a4_000"  >
<polygon points="0,90 33,90 38,85 33,80 0,80 0,90 " style="fill:white; stroke-width:1; stroke:black; " description="&lt;b&gt;J7337_008265&lt;/b&gt;&lt;br&gt;hypothetical protein&lt;br&gt;Location: 1195170 - 1198054" locus_tag="J7337_008265" class="clusterblast-orf" id="dummy-4_h4_9_0"  />
</g>
<g id="a4_001"  >
<polygon points="167,90 201,90 206,85 201,80 167,80 167,90 " style="fill:white; stroke-width:1; stroke:black; " description="&lt;b&gt;J7337_008266&lt;/b&gt;&lt;br&gt;hypothetical protein&lt;br&gt;Location: 1207818 - 1210716" locus_tag="J7337_008266" class="clusterblast-orf" id="dummy-4_h4_9_1"  />
</g>
<g id="a4_002"  >
<polygon points="226,90 226,90 231,85 226,80 226,80 226,90 " style="fill:#15d8d8; stroke-width:1; stroke:black; " description="&lt;b&gt;J7337_008267&lt;/b&gt;&lt;br&gt;hypothetical protein&lt;br&gt;Location: 1212229 - 1212634&lt;br&gt;&lt;br&gt;&lt;b&gt;BlastP hit with input.path1.gene637&lt;/b&gt;&lt;br&gt;Percentage identity: 55&lt;br&gt;Percentage coverage: 90&lt;br&gt;BLAST bit score: 125&lt;br&gt;E-value: 2.81e-36" locus_tag="J7337_008267" class="clusterblast-orf" id="dummy-4_h4_9_2"  />
</g>
<g id="a4_003"  >
<polygon points="267,85 272,80 275,80 275,90 272,90 267,85 " style="fill:white; stroke-width:1; stroke:black; " description="&lt;b&gt;J7337_008268&lt;/b&gt;&lt;br&gt;hypothetical protein&lt;br&gt;Location: 1215356 - 1215931" locus_tag="J7337_008268" class="clusterblast-orf" id="dummy-4_h4_9_3"  />
</g>
<g id="a4_004"  >
<polygon points="328,90 422,90 427,85 422,80 328,80 328,90 " style="fill:#7715d8; stroke-width:1; stroke:black; " description="&lt;b&gt;J7337_008269&lt;/b&gt;&lt;br&gt;Type I Iterative PKS&lt;br&gt;Location: 1219926 - 1227407&lt;br&gt;&lt;br&gt;&lt;b&gt;BlastP hit with input.path1.gene638&lt;/b&gt;&lt;br&gt;Percentage identity: 35&lt;br&gt;Percentage coverage: 137&lt;br&gt;BLAST bit score: 1262&lt;br&gt;E-value: 0.0" locus_tag="J7337_008269" class="clusterblast-orf" id="dummy-4_h4_9_4"  />
</g>
<g id="a4_005"  >
<polygon points="439,85 444,80 459,80 459,90 444,90 439,85 " style="fill:#d8a715; stroke-width:1; stroke:black; " description="&lt;b&gt;J7337_008271&lt;/b&gt;&lt;br&gt;Alpha-1,3-mannosyltransferase cmt1&lt;br&gt;Location: 1228302 - 1229789&lt;br&gt;&lt;br&gt;&lt;b&gt;BlastP hit with input.path1.gene639&lt;/b&gt;&lt;br&gt;Percentage identity: 35&lt;br&gt;Percentage coverage: 126&lt;br&gt;BLAST bit score: 191&lt;br&gt;E-value: 6.48e-56" locus_tag="J7337_008271" class="clusterblast-orf" id="dummy-4_h4_9_5"  />
</g>
<g id="a4_006"  >
<polygon points="481,85 486,80 494,80 494,90 486,90 481,85 " style="fill:white; stroke-width:1; stroke:black; " description="&lt;b&gt;J7337_008272&lt;/b&gt;&lt;br&gt;hypothetical protein&lt;br&gt;Location: 1231476 - 1232462" locus_tag="J7337_008272" class="clusterblast-orf" id="dummy-4_h4_9_6"  />
</g>
<g id="a4_007"  >
<polygon points="513,90 524,90 529,85 524,80 513,80 513,90 " style="fill:#15d846; stroke-width:1; stroke:black; " description="&lt;b&gt;J7337_008273&lt;/b&gt;&lt;br&gt;hypothetical protein&lt;br&gt;Location: 1233882 - 1235072&lt;br&gt;&lt;br&gt;&lt;b&gt;BlastP hit with input.path1.gene640&lt;/b&gt;&lt;br&gt;Percentage identity: 72&lt;br&gt;Percentage coverage: 52&lt;br&gt;BLAST bit score: 200&lt;br&gt;E-value: 1.79e-60" locus_tag="J7337_008273" class="clusterblast-orf" id="dummy-4_h4_9_7"  />
</g>
<g id="a4_008"  >
<polygon points="541,90 569,90 574,85 569,80 541,80 541,90 " style="fill:#1546d8; stroke-width:1; stroke:black; " description="&lt;b&gt;J7337_008274&lt;/b&gt;&lt;br&gt;hypothetical protein&lt;br&gt;Location: 1236017 - 1238463&lt;br&gt;&lt;br&gt;&lt;b&gt;BlastP hit with input.path1.gene641&lt;/b&gt;&lt;br&gt;Percentage identity: 50&lt;br&gt;Percentage coverage: 116&lt;br&gt;BLAST bit score: 622&lt;br&gt;E-value: 1.18e-212" locus_tag="J7337_008274" class="clusterblast-orf" id="dummy-4_h4_9_8"  />
</g>
<g id="a4_009"  >
<polygon points="576,85 581,80 620,80 620,90 581,90 576,85 " style="fill:#d815a7; stroke-width:1; stroke:black; " description="&lt;b&gt;J7337_008275&lt;/b&gt;&lt;br&gt;hypothetical protein&lt;br&gt;Location: 1238653 - 1241964&lt;br&gt;&lt;br&gt;&lt;b&gt;BlastP hit with input.path1.gene642&lt;/b&gt;&lt;br&gt;Percentage identity: 54&lt;br&gt;Percentage coverage: 97&lt;br&gt;BLAST bit score: 720&lt;br&gt;E-value: 5.75e-246" locus_tag="J7337_008275" class="clusterblast-orf" id="dummy-4_h4_9_9"  />
</g>
<g id="a4_0010"  >
<polygon points="673,90 687,90 692,85 687,80 673,80 673,90 " style="fill:white; stroke-width:1; stroke:black; " description="&lt;b&gt;J7337_008276&lt;/b&gt;&lt;br&gt;hypothetical protein&lt;br&gt;Location: 1245977 - 1247425" locus_tag="J7337_008276" class="clusterblast-orf" id="dummy-4_h4_9_10"  />
</g>
<g id="a4_0011"  >
<polygon points="704,90 720,90 725,85 720,80 704,80 704,90 " style="fill:white; stroke-width:1; stroke:black; " description="&lt;b&gt;J7337_008277&lt;/b&gt;&lt;br&gt;hypothetical protein&lt;br&gt;Location: 1248317 - 1249882" locus_tag="J7337_008277" class="clusterblast-orf" id="dummy-4_h4_9_11"  />
</g>
<g id="a4_0012"  >
<polygon points="746,90 775,90 780,85 775,80 746,80 746,90 " style="fill:white; stroke-width:1; stroke:black; " description="&lt;b&gt;J7337_008278&lt;/b&gt;&lt;br&gt;GMP synthase (glutamine-hydrolyzing)&lt;br&gt;Location: 1251487 - 1253995" locus_tag="J7337_008278" class="clusterblast-orf" id="dummy-4_h4_9_12"  />
</g>
</svg>
