<svg xmlns="http://www.w3.org/2000/svg" xmlns:xlink="http://www.w3.org/1999/xlink" version="1.1" x="0" y="0" height="230" width="800" viewBox="0 0 800 230" preserveAspectRatio="none"  >
<g label="Query sequence" class="clusterblast-cluster"  >
<text x="5" y="20" class="clusterblast-acc"  >
Query sequence</text>
<line x1="10" y1="35" x2="778.0" y2="35" style="stroke-width:1; stroke:grey; "  />
<polygon points="145,40 180,40 185,35 180,30 145,30 145,40 " style="fill:#d81515; stroke-width:1; stroke:black; " description="&lt;b&gt;input.path1.gene1143&lt;/b&gt;&lt;br&gt;input.path1.gene1143&lt;br&gt;Location: 4134706 - 4137909" locus_tag="input.path1.gene1143" class="clusterblast-orf" id="dummy-5_q0_0_all"  />
<polygon points="186,35 191,30 202,30 202,40 191,40 186,35 " style="fill:#77d815; stroke-width:1; stroke:black; " description="&lt;b&gt;input.path1.gene1144&lt;/b&gt;&lt;br&gt;input.path1.gene1144&lt;br&gt;Location: 4137962 - 4139204" locus_tag="input.path1.gene1144" class="clusterblast-orf" id="dummy-5_q1_0_all"  />
<polygon points="217,40 235,40 240,35 235,30 217,30 217,40 " style="fill:#15d8d8; stroke-width:1; stroke:black; " description="&lt;b&gt;input.path1.gene1145&lt;/b&gt;&lt;br&gt;input.path1.gene1145&lt;br&gt;Location: 4140428 - 4142196" locus_tag="input.path1.gene1145" class="clusterblast-orf" id="dummy-5_q2_0_all"  />
<polygon points="245,35 250,30 258,30 258,40 250,40 245,35 " style="fill:#7715d8; stroke-width:1; stroke:black; " description="&lt;b&gt;input.path1.gene1146&lt;/b&gt;&lt;br&gt;input.path1.gene1146&lt;br&gt;Location: 4142617 - 4143664" locus_tag="input.path1.gene1146" class="clusterblast-orf" id="dummy-5_q3_0_all"  />
<polygon points="316,35 321,30 339,30 339,40 321,40 316,35 " style="fill:#d8a715; stroke-width:1; stroke:black; " description="&lt;b&gt;input.path1.gene1147&lt;/b&gt;&lt;br&gt;input.path1.gene1147&lt;br&gt;Location: 4148236 - 4150016" locus_tag="input.path1.gene1147" class="clusterblast-orf" id="dummy-5_q4_0_all"  />
<polygon points="365,40 387,40 392,35 387,30 365,30 365,40 " style="fill:#15d846; stroke-width:1; stroke:black; " description="&lt;b&gt;input.path1.gene1148&lt;/b&gt;&lt;br&gt;input.path1.gene1148&lt;br&gt;Location: 4152052 - 4154181" locus_tag="input.path1.gene1148" class="clusterblast-orf" id="dummy-5_q5_0_all"  />
<polygon points="435,35 440,30 466,30 466,40 440,40 435,35 " style="fill:#1546d8; stroke-width:1; stroke:black; " description="&lt;b&gt;input.path1.gene1149&lt;/b&gt;&lt;br&gt;input.path1.gene1149&lt;br&gt;Location: 4157620 - 4160008" locus_tag="input.path1.gene1149" class="clusterblast-orf" id="dummy-5_q6_0_all"  />
<polygon points="474,35 479,30 552,30 552,40 479,40 474,35 " style="fill:#d815a7; stroke-width:1; stroke:black; " description="&lt;b&gt;input.path1.gene1150&lt;/b&gt;&lt;br&gt;input.path1.gene1150&lt;br&gt;Location: 4160651 - 4166784" locus_tag="input.path1.gene1150" class="clusterblast-orf" id="dummy-5_q7_0_all"  />
<polygon points="591,40 600,40 605,35 600,30 591,30 591,40 " style="fill:white; stroke-width:1; stroke:black; " description="&lt;b&gt;input.path1.gene1151&lt;/b&gt;&lt;br&gt;input.path1.gene1151&lt;br&gt;Location: 4169919 - 4170959" locus_tag="input.path1.gene1151" class="clusterblast-orf" id="dummy-5_q8_0_all"  />
<polygon points="606,35 611,30 614,30 614,40 611,40 606,35 " style="fill:white; stroke-width:1; stroke:black; " description="&lt;b&gt;input.path1.gene1152&lt;/b&gt;&lt;br&gt;input.path1.gene1152&lt;br&gt;Location: 4171043 - 4171730" locus_tag="input.path1.gene1152" class="clusterblast-orf" id="dummy-5_q9_0_all"  />
<polygon points="614,40 630,40 635,35 630,30 614,30 614,40 " style="fill:white; stroke-width:1; stroke:black; " description="&lt;b&gt;input.path1.gene1153&lt;/b&gt;&lt;br&gt;input.path1.gene1153&lt;br&gt;Location: 4171731 - 4173313" locus_tag="input.path1.gene1153" class="clusterblast-orf" id="dummy-5_q10_0_all"  />
</g>
<g label="NC_057319" description="NC_057319 (4219732-4281896): Ustilaginoidea virens chromosome 4, complete seq... (14% of genes show similarity), isocyanide" class="clusterblast-cluster"  >
<text x="5" y="70" class="clusterblast-acc"  >
<a xlink:href="https://antismash-db.secondarymetabolites.org/area?record=NC_057319&amp;start=4219732&amp;end=4281896" target="_blank">NC_057319 (4219732-4281896)</a>: Ustilaginoidea virens chromosome 4, complete seq... (14% of genes show similarity), isocyanide</text>
<line x1="10" y1="85" x2="778.0" y2="85" style="stroke-width:1; stroke:grey; "  />
</g>
<g id="a5_000"  >
<polygon points="0,85 5,80 19,80 19,90 5,90 0,85 " style="fill:white; stroke-width:1; stroke:black; " description="&lt;b&gt;UV8b_05623&lt;/b&gt;&lt;br&gt;uncharacterized protein&lt;br&gt;Location: 4281546 - 4280020" locus_tag="UV8b_05623" class="clusterblast-orf" id="dummy-5_h5_9_0"  />
</g>
<g id="a5_001"  >
<polygon points="70,90 97,90 102,85 97,80 70,80 70,90 " style="fill:white; stroke-width:1; stroke:black; " description="&lt;b&gt;UV8b_05622&lt;/b&gt;&lt;br&gt;uncharacterized protein&lt;br&gt;Location: 4275979 - 4273479" locus_tag="UV8b_05622" class="clusterblast-orf" id="dummy-5_h5_9_1"  />
</g>
<g id="a5_002"  >
<polygon points="110,85 115,80 125,80 125,90 115,90 110,85 " style="fill:white; stroke-width:1; stroke:black; " description="&lt;b&gt;UV8b_05621&lt;/b&gt;&lt;br&gt;uncharacterized protein&lt;br&gt;Location: 4272830 - 4271691" locus_tag="UV8b_05621" class="clusterblast-orf" id="dummy-5_h5_9_2"  />
</g>
<g id="a5_003"  >
<polygon points="135,85 140,80 165,80 165,90 140,90 135,85 " style="fill:white; stroke-width:1; stroke:black; " description="&lt;b&gt;UV8b_05620&lt;/b&gt;&lt;br&gt;uncharacterized protein&lt;br&gt;Location: 4270869 - 4268539" locus_tag="UV8b_05620" class="clusterblast-orf" id="dummy-5_h5_9_3"  />
</g>
<g id="a5_004"  >
<polygon points="182,85 187,80 217,80 217,90 187,90 182,85 " style="fill:white; stroke-width:1; stroke:black; " description="&lt;b&gt;UV8b_05619&lt;/b&gt;&lt;br&gt;uncharacterized protein&lt;br&gt;Location: 4267186 - 4264398" locus_tag="UV8b_05619" class="clusterblast-orf" id="dummy-5_h5_9_4"  />
</g>
<g id="a5_005"  >
<polygon points="223,90 243,90 248,85 243,80 223,80 223,90 " style="fill:white; stroke-width:1; stroke:black; " description="&lt;b&gt;UV8b_05618&lt;/b&gt;&lt;br&gt;uncharacterized protein&lt;br&gt;Location: 4263890 - 4261970" locus_tag="UV8b_05618" class="clusterblast-orf" id="dummy-5_h5_9_5"  />
</g>
<g id="a5_006"  >
<polygon points="257,90 267,90 272,85 267,80 257,80 257,90 " style="fill:white; stroke-width:1; stroke:black; " description="&lt;b&gt;UV8b_05617&lt;/b&gt;&lt;br&gt;uncharacterized protein&lt;br&gt;Location: 4261283 - 4260047" locus_tag="UV8b_05617" class="clusterblast-orf" id="dummy-5_h5_9_6"  />
</g>
<g id="a5_007"  >
<polygon points="290,90 297,90 302,85 297,80 290,80 290,90 " style="fill:white; stroke-width:1; stroke:black; " description="&lt;b&gt;UV8b_05616&lt;/b&gt;&lt;br&gt;uncharacterized protein&lt;br&gt;Location: 4258637 - 4257719" locus_tag="UV8b_05616" class="clusterblast-orf" id="dummy-5_h5_9_7"  />
</g>
<g id="a5_008"  >
<polygon points="312,85 317,80 340,80 340,90 317,90 312,85 " style="fill:#d8a715; stroke-width:1; stroke:black; " description="&lt;b&gt;UV8b_05615&lt;/b&gt;&lt;br&gt;uncharacterized protein&lt;br&gt;Location: 4256908 - 4254714&lt;br&gt;&lt;br&gt;&lt;b&gt;BlastP hit with input.path1.gene1147&lt;/b&gt;&lt;br&gt;Percentage identity: 64&lt;br&gt;Percentage coverage: 101&lt;br&gt;BLAST bit score: 612&lt;br&gt;E-value: 5.22e-216" locus_tag="UV8b_05615" class="clusterblast-orf" id="dummy-5_h5_9_8"  />
</g>
<g id="a5_009"  >
<polygon points="376,90 398,90 403,85 398,80 376,80 376,90 " style="fill:#15d846; stroke-width:1; stroke:black; " description="&lt;b&gt;UV8b_05614&lt;/b&gt;&lt;br&gt;uncharacterized protein&lt;br&gt;Location: 4251896 - 4249733&lt;br&gt;&lt;br&gt;&lt;b&gt;BlastP hit with input.path1.gene1148&lt;/b&gt;&lt;br&gt;Percentage identity: 64&lt;br&gt;Percentage coverage: 96&lt;br&gt;BLAST bit score: 828&lt;br&gt;E-value: 2.4e-297" locus_tag="UV8b_05614" class="clusterblast-orf" id="dummy-5_h5_9_9"  />
</g>
<g id="a5_0010"  >
<polygon points="415,90 442,90 447,85 442,80 415,80 415,90 " style="fill:white; stroke-width:1; stroke:black; " description="&lt;b&gt;UV8b_05613&lt;/b&gt;&lt;br&gt;uncharacterized protein&lt;br&gt;Location: 4248790 - 4246251" locus_tag="UV8b_05613" class="clusterblast-orf" id="dummy-5_h5_9_10"  />
</g>
<g id="a5_0011"  >
<polygon points="456,85 461,80 488,80 488,90 461,90 456,85 " style="fill:#1546d8; stroke-width:1; stroke:black; " description="&lt;b&gt;UV8b_05612&lt;/b&gt;&lt;br&gt;uncharacterized protein&lt;br&gt;Location: 4245540 - 4243008&lt;br&gt;&lt;br&gt;&lt;b&gt;BlastP hit with input.path1.gene1149&lt;/b&gt;&lt;br&gt;Percentage identity: 60&lt;br&gt;Percentage coverage: 101&lt;br&gt;BLAST bit score: 802&lt;br&gt;E-value: 2.51e-282" locus_tag="UV8b_05612" class="clusterblast-orf" id="dummy-5_h5_9_11"  />
</g>
<g id="a5_0012"  >
<polygon points="497,85 502,80 522,80 522,90 502,90 497,85 " style="fill:white; stroke-width:1; stroke:black; " description="&lt;b&gt;UV8b_05611&lt;/b&gt;&lt;br&gt;uncharacterized protein&lt;br&gt;Location: 4242347 - 4240368" locus_tag="UV8b_05611" class="clusterblast-orf" id="dummy-5_h5_9_12"  />
</g>
<g id="a5_0013"  >
<polygon points="526,85 531,80 538,80 538,90 531,90 526,85 " style="fill:white; stroke-width:1; stroke:black; " description="&lt;b&gt;UV8b_05610&lt;/b&gt;&lt;br&gt;uncharacterized protein&lt;br&gt;Location: 4240032 - 4239070" locus_tag="UV8b_05610" class="clusterblast-orf" id="dummy-5_h5_9_13"  />
</g>
<g id="a5_0014"  >
<polygon points="546,85 551,80 587,80 587,90 551,90 546,85 " style="fill:white; stroke-width:1; stroke:black; " description="&lt;b&gt;UV8b_05609&lt;/b&gt;&lt;br&gt;uncharacterized protein&lt;br&gt;Location: 4238497 - 4235218" locus_tag="UV8b_05609" class="clusterblast-orf" id="dummy-5_h5_9_14"  />
</g>
<g id="a5_0015"  >
<polygon points="596,85 601,80 612,80 612,90 601,90 596,85 " style="fill:white; stroke-width:1; stroke:black; " description="&lt;b&gt;UV8b_05608&lt;/b&gt;&lt;br&gt;uncharacterized protein&lt;br&gt;Location: 4234552 - 4233239" locus_tag="UV8b_05608" class="clusterblast-orf" id="dummy-5_h5_9_15"  />
</g>
<g id="a5_0016"  >
<polygon points="625,90 655,90 660,85 655,80 625,80 625,90 " style="fill:white; stroke-width:1; stroke:black; " description="&lt;b&gt;UV8b_05607&lt;/b&gt;&lt;br&gt;uncharacterized protein&lt;br&gt;Location: 4232204 - 4229447" locus_tag="UV8b_05607" class="clusterblast-orf" id="dummy-5_h5_9_16"  />
</g>
<g id="a5_0017"  >
<polygon points="671,85 676,80 705,80 705,90 676,90 671,85 " style="fill:white; stroke-width:1; stroke:black; " description="&lt;b&gt;UV8b_05606&lt;/b&gt;&lt;br&gt;uncharacterized protein&lt;br&gt;Location: 4228624 - 4225937" locus_tag="UV8b_05606" class="clusterblast-orf" id="dummy-5_h5_9_17"  />
</g>
<g id="a5_0018"  >
<polygon points="717,85 722,80 734,80 734,90 722,90 717,85 " style="fill:white; stroke-width:1; stroke:black; " description="&lt;b&gt;UV8b_05605&lt;/b&gt;&lt;br&gt;uncharacterized protein&lt;br&gt;Location: 4224994 - 4223627" locus_tag="UV8b_05605" class="clusterblast-orf" id="dummy-5_h5_9_18"  />
</g>
<g id="a5_0019"  >
<polygon points="744,85 749,80 755,80 755,90 749,90 744,85 " style="fill:white; stroke-width:1; stroke:black; " description="&lt;b&gt;UV8b_05604&lt;/b&gt;&lt;br&gt;uncharacterized protein&lt;br&gt;Location: 4222858 - 4221987" locus_tag="UV8b_05604" class="clusterblast-orf" id="dummy-5_h5_9_19"  />
</g>
<g id="a5_0020"  >
<polygon points="773,90 775,90 780,85 775,80 773,80 773,90 " style="fill:white; stroke-width:1; stroke:black; " description="&lt;b&gt;UV8b_05603&lt;/b&gt;&lt;br&gt;uncharacterized protein&lt;br&gt;Location: 4220578 - 4220060" locus_tag="UV8b_05603" class="clusterblast-orf" id="dummy-5_h5_9_20"  />
</g>
</svg>
