<svg xmlns="http://www.w3.org/2000/svg" xmlns:xlink="http://www.w3.org/1999/xlink" version="1.1" x="0" y="0" height="230" width="800" viewBox="0 0 800 230" preserveAspectRatio="none"  >
<g label="Query sequence" class="clusterblast-cluster"  >
<text x="5" y="20" class="clusterblast-acc"  >
Query sequence</text>
<line x1="10" y1="35" x2="778.0" y2="35" style="stroke-width:1; stroke:grey; "  />
<polygon points="214,40 216,40 221,35 216,30 214,30 214,40 " style="fill:#d81515; stroke-width:1; stroke:black; " description="&lt;b&gt;input.path1.gene15&lt;/b&gt;&lt;br&gt;input.path1.gene15&lt;br&gt;Location: 63345 - 64217" locus_tag="input.path1.gene15" class="clusterblast-orf" id="dummy-1_q0_0_all"  />
<polygon points="225,35 230,30 237,30 237,40 230,40 225,35 " style="fill:white; stroke-width:1; stroke:black; " description="&lt;b&gt;input.path1.gene16&lt;/b&gt;&lt;br&gt;input.path1.gene16&lt;br&gt;Location: 64574 - 65949" locus_tag="input.path1.gene16" class="clusterblast-orf" id="dummy-1_q1_0_all"  />
<polygon points="243,40 243,40 248,35 243,30 243,30 243,40 " style="fill:white; stroke-width:1; stroke:black; " description="&lt;b&gt;input.path1.gene17&lt;/b&gt;&lt;br&gt;input.path1.gene17&lt;br&gt;Location: 66601 - 67178" locus_tag="input.path1.gene17" class="clusterblast-orf" id="dummy-1_q2_0_all"  />
<polygon points="263,40 266,35 263,30 263,40 " style="fill:white; stroke-width:1; stroke:black; " description="&lt;b&gt;input.path1.gene18&lt;/b&gt;&lt;br&gt;input.path1.gene18&lt;br&gt;Location: 68891 - 69189" locus_tag="input.path1.gene18" class="clusterblast-orf" id="dummy-1_q3_0_all"  />
<polygon points="276,35 281,30 295,30 295,40 281,40 276,35 " style="fill:white; stroke-width:1; stroke:black; " description="&lt;b&gt;input.path1.gene19&lt;/b&gt;&lt;br&gt;input.path1.gene19&lt;br&gt;Location: 70304 - 72434" locus_tag="input.path1.gene19" class="clusterblast-orf" id="dummy-1_q4_0_all"  />
<polygon points="298,35 303,30 311,30 311,40 303,40 298,35 " style="fill:white; stroke-width:1; stroke:black; " description="&lt;b&gt;input.path1.gene20&lt;/b&gt;&lt;br&gt;input.path1.gene20&lt;br&gt;Location: 72820 - 74240" locus_tag="input.path1.gene20" class="clusterblast-orf" id="dummy-1_q5_0_all"  />
<polygon points="312,40 314,40 319,35 314,30 312,30 312,40 " style="fill:white; stroke-width:1; stroke:black; " description="&lt;b&gt;input.path1.gene21&lt;/b&gt;&lt;br&gt;input.path1.gene21&lt;br&gt;Location: 74331 - 75166" locus_tag="input.path1.gene21" class="clusterblast-orf" id="dummy-1_q6_0_all"  />
<polygon points="361,40 413,40 418,35 413,30 361,30 361,40 " style="fill:#77d815; stroke-width:1; stroke:black; " description="&lt;b&gt;input.path1.gene22&lt;/b&gt;&lt;br&gt;input.path1.gene22&lt;br&gt;Location: 79934 - 86303" locus_tag="input.path1.gene22" class="clusterblast-orf" id="dummy-1_q7_0_all"  />
<polygon points="431,35 436,30 438,30 438,40 436,40 431,35 " style="fill:white; stroke-width:1; stroke:black; " description="&lt;b&gt;input.path1.gene23&lt;/b&gt;&lt;br&gt;input.path1.gene23&lt;br&gt;Location: 87733 - 88534" locus_tag="input.path1.gene23" class="clusterblast-orf" id="dummy-1_q8_0_all"  />
<polygon points="453,40 457,40 462,35 457,30 453,30 453,40 " style="fill:#15d8d8; stroke-width:1; stroke:black; " description="&lt;b&gt;input.path1.gene24&lt;/b&gt;&lt;br&gt;input.path1.gene24&lt;br&gt;Location: 90176 - 91240" locus_tag="input.path1.gene24" class="clusterblast-orf" id="dummy-1_q9_0_all"  />
<polygon points="467,40 472,40 477,35 472,30 467,30 467,40 " style="fill:white; stroke-width:1; stroke:black; " description="&lt;b&gt;input.path1.gene25&lt;/b&gt;&lt;br&gt;input.path1.gene25&lt;br&gt;Location: 91769 - 92933" locus_tag="input.path1.gene25" class="clusterblast-orf" id="dummy-1_q10_0_all"  />
<polygon points="498,35 503,30 506,30 506,40 503,40 498,35 " style="fill:white; stroke-width:1; stroke:black; " description="&lt;b&gt;input.path1.gene26&lt;/b&gt;&lt;br&gt;input.path1.gene26&lt;br&gt;Location: 95314 - 96157" locus_tag="input.path1.gene26" class="clusterblast-orf" id="dummy-1_q11_0_all"  />
<polygon points="539,35 544,30 547,30 547,40 544,40 539,35 " style="fill:#7715d8; stroke-width:1; stroke:black; " description="&lt;b&gt;input.path1.gene27&lt;/b&gt;&lt;br&gt;input.path1.gene27&lt;br&gt;Location: 99887 - 100731" locus_tag="input.path1.gene27" class="clusterblast-orf" id="dummy-1_q12_0_all"  />
<polygon points="554,35 559,30 566,30 566,40 559,40 554,35 " style="fill:white; stroke-width:1; stroke:black; " description="&lt;b&gt;input.path1.gene28&lt;/b&gt;&lt;br&gt;input.path1.gene28&lt;br&gt;Location: 101560 - 102841" locus_tag="input.path1.gene28" class="clusterblast-orf" id="dummy-1_q13_0_all"  />
</g>
<g label="NZ_CP017708" description="NZ_CP017708 (6448824-6538425): Moorena producens JHB chromosome, complete genome (9% of genes show similarity), NRPS,PKS-like,T1PKS,T3PKS" class="clusterblast-cluster"  >
<text x="5" y="70" class="clusterblast-acc"  >
<a xlink:href="https://antismash-db.secondarymetabolites.org/area?record=NZ_CP017708&amp;start=6448824&amp;end=6538425" target="_blank">NZ_CP017708 (6448824-6538425)</a>: Moorena producens JHB chromosome, complete genome (9% of genes show similarity), NRPS,PKS-like,T1PKS,T3PKS</text>
<line x1="10" y1="85" x2="778.0" y2="85" style="stroke-width:1; stroke:grey; "  />
</g>
<g id="a1_000"  >
<polygon points="0,90 0,90 5,85 0,80 0,80 0,90 " style="fill:white; stroke-width:1; stroke:black; " description="&lt;b&gt;BJP36_RS27745&lt;/b&gt;&lt;br&gt;CPBP family intramembrane metalloprotease&lt;br&gt;Location: 6448879 - 6449472" locus_tag="BJP36_RS27745" class="clusterblast-orf" id="dummy-1_h1_4_0"  />
</g>
<g id="a1_001"  >
<polygon points="7,90 8,85 7,80 7,90 " style="fill:white; stroke-width:1; stroke:black; " description="&lt;b&gt;BJP36_RS27750&lt;/b&gt;&lt;br&gt;hypothetical protein&lt;br&gt;Location: 6449716 - 6449886" locus_tag="BJP36_RS27750" class="clusterblast-orf" id="dummy-1_h1_4_1"  />
</g>
<g id="a1_002"  >
<polygon points="9,85 14,80 15,80 15,90 14,90 9,85 " style="fill:#7715d8; stroke-width:1; stroke:black; " description="&lt;b&gt;BJP36_RS27755&lt;/b&gt;&lt;br&gt;phosphoribosylglycinamide formyltransferase&lt;br&gt;Location: 6449941 - 6450600&lt;br&gt;&lt;br&gt;&lt;b&gt;BlastP hit with input.path1.gene27&lt;/b&gt;&lt;br&gt;Percentage identity: 33&lt;br&gt;Percentage coverage: 96&lt;br&gt;BLAST bit score: 94&lt;br&gt;E-value: 1.58e-21" locus_tag="BJP36_RS27755" class="clusterblast-orf" id="dummy-1_h1_4_2"  />
</g>
<g id="a1_003"  >
<polygon points="18,90 27,90 32,85 27,80 18,80 18,90 " style="fill:white; stroke-width:1; stroke:black; " description="&lt;b&gt;BJP36_RS27760&lt;/b&gt;&lt;br&gt;2,3-bisphosphoglycerate-independent phosphoglycerate mutase&lt;br&gt;Location: 6450970 - 6452568" locus_tag="BJP36_RS27760" class="clusterblast-orf" id="dummy-1_h1_4_3"  />
</g>
<g id="a1_004"  >
<polygon points="33,90 35,85 33,80 33,90 " style="fill:white; stroke-width:1; stroke:black; " description="&lt;b&gt;BJP36_RS27765&lt;/b&gt;&lt;br&gt;preprotein translocase subunit SecG&lt;br&gt;Location: 6452646 - 6452876" locus_tag="BJP36_RS27765" class="clusterblast-orf" id="dummy-1_h1_4_4"  />
</g>
<g id="a1_005"  >
<polygon points="35,90 38,90 43,85 38,80 35,80 35,90 " style="fill:white; stroke-width:1; stroke:black; " description="&lt;b&gt;BJP36_RS27770&lt;/b&gt;&lt;br&gt;peptidase&lt;br&gt;Location: 6452902 - 6453753" locus_tag="BJP36_RS27770" class="clusterblast-orf" id="dummy-1_h1_4_5"  />
</g>
<g id="a1_006"  >
<polygon points="50,90 58,90 63,85 58,80 50,80 50,90 " style="fill:white; stroke-width:1; stroke:black; " description="&lt;b&gt;BJP36_RS27775&lt;/b&gt;&lt;br&gt;carboxypeptidase M32&lt;br&gt;Location: 6454536 - 6456059" locus_tag="BJP36_RS27775" class="clusterblast-orf" id="dummy-1_h1_4_6"  />
</g>
<g id="a1_007"  >
<polygon points="65,90 82,90 87,85 82,80 65,80 65,90 " style="fill:white; stroke-width:1; stroke:black; " description="&lt;b&gt;BJP36_RS27780&lt;/b&gt;&lt;br&gt;sucrose synthase&lt;br&gt;Location: 6456221 - 6458644" locus_tag="BJP36_RS27780" class="clusterblast-orf" id="dummy-1_h1_4_7"  />
</g>
<g id="a1_008"  >
<polygon points="87,85 92,80 93,80 93,90 92,90 87,85 " style="fill:white; stroke-width:1; stroke:black; " description="&lt;b&gt;BJP36_RS27785&lt;/b&gt;&lt;br&gt;IS200/IS605 family accessory protein TnpB-related protein&lt;br&gt;Location: 6458689 - 6459345" locus_tag="BJP36_RS27785" class="clusterblast-orf" id="dummy-1_h1_4_8"  />
</g>
<g id="a1_009"  >
<polygon points="93,85 98,80 98,80 98,90 98,90 93,85 " style="fill:white; stroke-width:1; stroke:black; " description="&lt;b&gt;BJP36_RS27790&lt;/b&gt;&lt;br&gt;hypothetical protein&lt;br&gt;Location: 6459355 - 6459966" locus_tag="BJP36_RS27790" class="clusterblast-orf" id="dummy-1_h1_4_9"  />
</g>
<g id="a1_0010"  >
<polygon points="99,90 103,85 99,80 99,90 " style="fill:white; stroke-width:1; stroke:black; " description="&lt;b&gt;BJP36_RS27795&lt;/b&gt;&lt;br&gt;IS200/IS605 family transposase&lt;br&gt;Location: 6460049 - 6460450" locus_tag="BJP36_RS27795" class="clusterblast-orf" id="dummy-1_h1_4_10"  />
</g>
<g id="a1_0011"  >
<polygon points="103,85 108,80 108,80 108,90 108,90 103,85 " style="fill:white; stroke-width:1; stroke:black; " description="&lt;b&gt;BJP36_RS27800&lt;/b&gt;&lt;br&gt;transposase&lt;br&gt;Location: 6460521 - 6461102" locus_tag="BJP36_RS27800" class="clusterblast-orf" id="dummy-1_h1_4_11"  />
</g>
<g id="a1_0012"  >
<polygon points="118,90 120,85 118,80 118,90 " style="fill:white; stroke-width:1; stroke:black; " description="&lt;b&gt;BJP36_RS27805&lt;/b&gt;&lt;br&gt;hypothetical protein&lt;br&gt;Location: 6462146 - 6462373" locus_tag="BJP36_RS27805" class="clusterblast-orf" id="dummy-1_h1_4_12"  />
</g>
<g id="a1_0013"  >
<polygon points="124,90 135,90 140,85 135,80 124,80 124,90 " style="fill:white; stroke-width:1; stroke:black; " description="&lt;b&gt;BJP36_RS27810&lt;/b&gt;&lt;br&gt;fatty acyl-AMP ligase&lt;br&gt;Location: 6462859 - 6464637" locus_tag="BJP36_RS27810" class="clusterblast-orf" id="dummy-1_h1_4_13"  />
</g>
<g id="a1_0014"  >
<polygon points="142,90 145,90 150,85 145,80 142,80 142,90 " style="fill:white; stroke-width:1; stroke:black; " description="&lt;b&gt;BJP36_RS27815&lt;/b&gt;&lt;br&gt;acyl-CoA desaturase&lt;br&gt;Location: 6464820 - 6465785" locus_tag="BJP36_RS27815" class="clusterblast-orf" id="dummy-1_h1_4_14"  />
</g>
<g id="a1_0015"  >
<polygon points="152,90 154,85 152,80 152,90 " style="fill:white; stroke-width:1; stroke:black; " description="&lt;b&gt;BJP36_RS27820&lt;/b&gt;&lt;br&gt;acyl carrier protein&lt;br&gt;Location: 6465947 - 6466249" locus_tag="BJP36_RS27820" class="clusterblast-orf" id="dummy-1_h1_4_15"  />
</g>
<g id="a1_0016"  >
<polygon points="158,90 172,90 177,85 172,80 158,80 158,90 " style="fill:white; stroke-width:1; stroke:black; " description="&lt;b&gt;BJP36_RS27825&lt;/b&gt;&lt;br&gt;thioredoxin reductase&lt;br&gt;Location: 6466677 - 6468743" locus_tag="BJP36_RS27825" class="clusterblast-orf" id="dummy-1_h1_4_16"  />
</g>
<g id="a1_0017"  >
<polygon points="177,90 219,90 224,85 219,80 177,80 177,90 " style="fill:#77d815; stroke-width:1; stroke:black; " description="&lt;b&gt;BJP36_RS27830&lt;/b&gt;&lt;br&gt;type I polyketide synthase&lt;br&gt;Location: 6468825 - 6474017&lt;br&gt;&lt;br&gt;&lt;b&gt;BlastP hit with input.path1.gene22&lt;/b&gt;&lt;br&gt;Percentage identity: 34&lt;br&gt;Percentage coverage: 52&lt;br&gt;BLAST bit score: 486&lt;br&gt;E-value: 5.06e-141" locus_tag="BJP36_RS27830" class="clusterblast-orf" id="dummy-1_h1_4_17"  />
</g>
<g id="a1_0018"  >
<polygon points="224,90 226,85 224,80 224,90 " style="fill:white; stroke-width:1; stroke:black; " description="&lt;b&gt;BJP36_RS27835&lt;/b&gt;&lt;br&gt;acyl carrier protein&lt;br&gt;Location: 6474040 - 6474279" locus_tag="BJP36_RS27835" class="clusterblast-orf" id="dummy-1_h1_4_18"  />
</g>
<g id="a1_0019"  >
<polygon points="227,90 233,90 238,85 233,80 227,80 227,90 " style="fill:white; stroke-width:1; stroke:black; " description="&lt;b&gt;BJP36_RS27840&lt;/b&gt;&lt;br&gt;beta-ketoacyl synthase N-terminal-like domain-containing protein&lt;br&gt;Location: 6474451 - 6475677" locus_tag="BJP36_RS27840" class="clusterblast-orf" id="dummy-1_h1_4_19"  />
</g>
<g id="a1_0020"  >
<polygon points="238,90 245,90 250,85 245,80 238,80 238,90 " style="fill:white; stroke-width:1; stroke:black; " description="&lt;b&gt;BJP36_RS27845&lt;/b&gt;&lt;br&gt;hydroxymethylglutaryl-CoA synthase family protein&lt;br&gt;Location: 6475682 - 6476941" locus_tag="BJP36_RS27845" class="clusterblast-orf" id="dummy-1_h1_4_20"  />
</g>
<g id="a1_0021"  >
<polygon points="252,90 254,90 259,85 254,80 252,80 252,90 " style="fill:white; stroke-width:1; stroke:black; " description="&lt;b&gt;BJP36_RS27850&lt;/b&gt;&lt;br&gt;enoyl-CoA hydratase/isomerase&lt;br&gt;Location: 6477211 - 6477975" locus_tag="BJP36_RS27850" class="clusterblast-orf" id="dummy-1_h1_4_21"  />
</g>
<g id="a1_0022"  >
<polygon points="259,90 342,90 347,85 342,80 259,80 259,90 " style="fill:white; stroke-width:1; stroke:black; " description="&lt;b&gt;BJP36_RS27855&lt;/b&gt;&lt;br&gt;type I polyketide synthase&lt;br&gt;Location: 6477963 - 6487871" locus_tag="BJP36_RS27855" class="clusterblast-orf" id="dummy-1_h1_4_22"  />
</g>
<g id="a1_0023"  >
<polygon points="347,90 388,90 393,85 388,80 347,80 347,90 " style="fill:#77d815; stroke-width:1; stroke:black; " description="&lt;b&gt;BJP36_RS27860&lt;/b&gt;&lt;br&gt;type I polyketide synthase&lt;br&gt;Location: 6487888 - 6492981&lt;br&gt;&lt;br&gt;&lt;b&gt;BlastP hit with input.path1.gene22&lt;/b&gt;&lt;br&gt;Percentage identity: 31&lt;br&gt;Percentage coverage: 55&lt;br&gt;BLAST bit score: 449&lt;br&gt;E-value: 1.83e-128" locus_tag="BJP36_RS27860" class="clusterblast-orf" id="dummy-1_h1_4_23"  />
</g>
<g id="a1_0024"  >
<polygon points="393,90 447,90 452,85 447,80 393,80 393,90 " style="fill:#77d815; stroke-width:1; stroke:black; " description="&lt;b&gt;BJP36_RS27865&lt;/b&gt;&lt;br&gt;type I polyketide synthase&lt;br&gt;Location: 6493049 - 6499693&lt;br&gt;&lt;br&gt;&lt;b&gt;BlastP hit with input.path1.gene22&lt;/b&gt;&lt;br&gt;Percentage identity: 34&lt;br&gt;Percentage coverage: 51&lt;br&gt;BLAST bit score: 498&lt;br&gt;E-value: 6.38e-143" locus_tag="BJP36_RS27865" class="clusterblast-orf" id="dummy-1_h1_4_24"  />
</g>
<g id="a1_0025"  >
<polygon points="452,90 493,90 498,85 493,80 452,80 452,90 " style="fill:white; stroke-width:1; stroke:black; " description="&lt;b&gt;BJP36_RS27870&lt;/b&gt;&lt;br&gt;aminotransferase class V-fold PLP-dependent enzyme&lt;br&gt;Location: 6499690 - 6504855" locus_tag="BJP36_RS27870" class="clusterblast-orf" id="dummy-1_h1_4_25"  />
</g>
<g id="a1_0026"  >
<polygon points="499,90 521,90 526,85 521,80 499,80 499,90 " style="fill:white; stroke-width:1; stroke:black; " description="&lt;b&gt;BJP36_RS27875&lt;/b&gt;&lt;br&gt;type I polyketide synthase&lt;br&gt;Location: 6504925 - 6507924" locus_tag="BJP36_RS27875" class="clusterblast-orf" id="dummy-1_h1_4_26"  />
</g>
<g id="a1_0027"  >
<polygon points="527,90 535,90 540,85 535,80 527,80 527,90 " style="fill:white; stroke-width:1; stroke:black; " description="&lt;b&gt;BJP36_RS27880&lt;/b&gt;&lt;br&gt;methyltransferase&lt;br&gt;Location: 6508039 - 6509505" locus_tag="BJP36_RS27880" class="clusterblast-orf" id="dummy-1_h1_4_27"  />
</g>
<g id="a1_0028"  >
<polygon points="540,90 566,90 571,85 566,80 540,80 540,90 " style="fill:white; stroke-width:1; stroke:black; " description="&lt;b&gt;BJP36_RS27885&lt;/b&gt;&lt;br&gt;non-ribosomal peptide synthetase&lt;br&gt;Location: 6509502 - 6512978" locus_tag="BJP36_RS27885" class="clusterblast-orf" id="dummy-1_h1_4_28"  />
</g>
<g id="a1_0029"  >
<polygon points="571,90 614,90 619,85 614,80 571,80 571,90 " style="fill:white; stroke-width:1; stroke:black; " description="&lt;b&gt;BJP36_RS27890&lt;/b&gt;&lt;br&gt;type I polyketide synthase&lt;br&gt;Location: 6512999 - 6518425" locus_tag="BJP36_RS27890" class="clusterblast-orf" id="dummy-1_h1_4_29"  />
</g>
<g id="a1_0030"  >
<polygon points="620,85 625,80 632,80 632,90 625,90 620,85 " style="fill:white; stroke-width:1; stroke:black; " description="&lt;b&gt;BJP36_RS27895&lt;/b&gt;&lt;br&gt;condensation domain-containing protein&lt;br&gt;Location: 6518546 - 6519856" locus_tag="BJP36_RS27895" class="clusterblast-orf" id="dummy-1_h1_4_30"  />
</g>
<g id="a1_0031"  >
<polygon points="636,85 641,80 643,80 643,90 641,90 636,85 " style="fill:white; stroke-width:1; stroke:black; " description="&lt;b&gt;BJP36_RS27900&lt;/b&gt;&lt;br&gt;IS5 family transposase&lt;br&gt;Location: 6520278 - 6521091" locus_tag="BJP36_RS27900" class="clusterblast-orf" id="dummy-1_h1_4_31"  />
</g>
<g id="a1_0032"  >
<polygon points="643,85 648,80 649,80 649,90 648,90 643,85 " style="fill:white; stroke-width:1; stroke:black; " description="&lt;b&gt;BJP36_RS27905&lt;/b&gt;&lt;br&gt;transposase&lt;br&gt;Location: 6521122 - 6521745" locus_tag="BJP36_RS27905" class="clusterblast-orf" id="dummy-1_h1_4_32"  />
</g>
<g id="a1_0033"  >
<polygon points="652,85 653,80 653,90 652,85 " style="fill:white; stroke-width:1; stroke:black; " description="&lt;b&gt;BJP36_RS27910&lt;/b&gt;&lt;br&gt;hypothetical protein&lt;br&gt;Location: 6522069 - 6522218" locus_tag="BJP36_RS27910" class="clusterblast-orf" id="dummy-1_h1_4_33"  />
</g>
<g id="a1_0034"  >
<polygon points="655,85 659,80 659,90 655,85 " style="fill:white; stroke-width:1; stroke:black; " description="&lt;b&gt;BJP36_RS27915&lt;/b&gt;&lt;br&gt;hypothetical protein&lt;br&gt;Location: 6522403 - 6522849" locus_tag="BJP36_RS27915" class="clusterblast-orf" id="dummy-1_h1_4_34"  />
</g>
<g id="a1_0035"  >
<polygon points="668,85 673,80 678,80 678,90 673,90 668,85 " style="fill:white; stroke-width:1; stroke:black; " description="&lt;b&gt;BJP36_RS27920&lt;/b&gt;&lt;br&gt;linear amide C-N hydrolase&lt;br&gt;Location: 6523916 - 6525061" locus_tag="BJP36_RS27920" class="clusterblast-orf" id="dummy-1_h1_4_35"  />
</g>
<g id="a1_0036"  >
<polygon points="679,85 683,80 683,90 679,85 " style="fill:white; stroke-width:1; stroke:black; " description="&lt;b&gt;BJP36_RS27925&lt;/b&gt;&lt;br&gt;hypothetical protein&lt;br&gt;Location: 6525149 - 6525565" locus_tag="BJP36_RS27925" class="clusterblast-orf" id="dummy-1_h1_4_36"  />
</g>
<g id="a1_0037"  >
<polygon points="690,90 695,90 700,85 695,80 690,80 690,90 " style="fill:white; stroke-width:1; stroke:black; " description="&lt;b&gt;BJP36_RS27930&lt;/b&gt;&lt;br&gt;tRNA 2-selenouridine(34) synthase MnmH&lt;br&gt;Location: 6526375 - 6527445" locus_tag="BJP36_RS27930" class="clusterblast-orf" id="dummy-1_h1_4_37"  />
</g>
<g id="a1_0038"  >
<polygon points="702,85 707,80 733,80 733,90 707,90 702,85 " style="fill:white; stroke-width:1; stroke:black; " description="&lt;b&gt;BJP36_RS27935&lt;/b&gt;&lt;br&gt;response regulator&lt;br&gt;Location: 6527711 - 6531181" locus_tag="BJP36_RS27935" class="clusterblast-orf" id="dummy-1_h1_4_38"  />
</g>
<g id="a1_0039"  >
<polygon points="735,90 736,90 741,85 736,80 735,80 735,90 " style="fill:white; stroke-width:1; stroke:black; " description="&lt;b&gt;BJP36_RS27940&lt;/b&gt;&lt;br&gt;PEP-CTERM sorting domain-containing protein&lt;br&gt;Location: 6531465 - 6532124" locus_tag="BJP36_RS27940" class="clusterblast-orf" id="dummy-1_h1_4_39"  />
</g>
<g id="a1_0040"  >
<polygon points="742,85 743,80 743,90 742,85 " style="fill:white; stroke-width:1; stroke:black; " description="&lt;b&gt;BJP36_RS27945&lt;/b&gt;&lt;br&gt;hypothetical protein&lt;br&gt;Location: 6532148 - 6532351" locus_tag="BJP36_RS27945" class="clusterblast-orf" id="dummy-1_h1_4_40"  />
</g>
<g id="a1_0041"  >
<polygon points="746,85 751,80 753,80 753,90 751,90 746,85 " style="fill:white; stroke-width:1; stroke:black; " description="&lt;b&gt;BJP36_RS27950&lt;/b&gt;&lt;br&gt;peptidoglycan-binding protein&lt;br&gt;Location: 6532651 - 6533460" locus_tag="BJP36_RS27950" class="clusterblast-orf" id="dummy-1_h1_4_41"  />
</g>
<g id="a1_0042"  >
<polygon points="754,85 759,80 766,80 766,90 759,90 754,85 " style="fill:white; stroke-width:1; stroke:black; " description="&lt;b&gt;BJP36_RS27955&lt;/b&gt;&lt;br&gt;pitrilysin family protein&lt;br&gt;Location: 6533591 - 6534865" locus_tag="BJP36_RS27955" class="clusterblast-orf" id="dummy-1_h1_4_42"  />
</g>
<g id="a1_0043"  >
<polygon points="768,85 773,80 780,80 780,90 773,90 768,85 " style="fill:white; stroke-width:1; stroke:black; " description="&lt;b&gt;BJP36_RS27960&lt;/b&gt;&lt;br&gt;pitrilysin family protein&lt;br&gt;Location: 6535121 - 6536407" locus_tag="BJP36_RS27960" class="clusterblast-orf" id="dummy-1_h1_4_43"  />
</g>
</svg>
