<svg xmlns="http://www.w3.org/2000/svg" xmlns:xlink="http://www.w3.org/1999/xlink" version="1.1" x="0" y="0" height="230" width="800" viewBox="0 0 800 230" preserveAspectRatio="none"  >
<g label="Query sequence" class="clusterblast-cluster"  >
<text x="5" y="20" class="clusterblast-acc"  >
Query sequence</text>
<line x1="10" y1="35" x2="778.0" y2="35" style="stroke-width:1; stroke:grey; "  />
<polygon points="207,35 212,30 214,30 214,40 212,40 207,35 " style="fill:#d81515; stroke-width:1; stroke:black; " description="&lt;b&gt;input.path1.gene17&lt;/b&gt;&lt;br&gt;input.path1.gene17&lt;br&gt;Location: 71519 - 72306" locus_tag="input.path1.gene17" class="clusterblast-orf" id="dummy-1_q0_0_all"  />
<polygon points="219,35 224,30 236,30 236,40 224,40 219,35 " style="fill:#15d863; stroke-width:1; stroke:black; " description="&lt;b&gt;input.path1.gene18&lt;/b&gt;&lt;br&gt;input.path1.gene18&lt;br&gt;Location: 72876 - 74631" locus_tag="input.path1.gene18" class="clusterblast-orf" id="dummy-1_q1_0_all"  />
<polygon points="275,40 295,40 300,35 295,30 275,30 275,40 " style="fill:white; stroke-width:1; stroke:black; " description="&lt;b&gt;input.path1.gene19&lt;/b&gt;&lt;br&gt;input.path1.gene19&lt;br&gt;Location: 78906 - 81544" locus_tag="input.path1.gene19" class="clusterblast-orf" id="dummy-1_q2_0_all"  />
<polygon points="330,40 336,40 341,35 336,30 330,30 330,40 " style="fill:white; stroke-width:1; stroke:black; " description="&lt;b&gt;input.path1.gene20&lt;/b&gt;&lt;br&gt;input.path1.gene20&lt;br&gt;Location: 84823 - 86023" locus_tag="input.path1.gene20" class="clusterblast-orf" id="dummy-1_q3_0_all"  />
<polygon points="346,35 351,30 358,30 358,40 351,40 346,35 " style="fill:white; stroke-width:1; stroke:black; " description="&lt;b&gt;input.path1.gene21&lt;/b&gt;&lt;br&gt;input.path1.gene21&lt;br&gt;Location: 86599 - 87876" locus_tag="input.path1.gene21" class="clusterblast-orf" id="dummy-1_q4_0_all"  />
<polygon points="379,40 443,40 448,35 443,30 379,30 379,40 " style="fill:#1563d8; stroke-width:1; stroke:black; " description="&lt;b&gt;input.path1.gene22&lt;/b&gt;&lt;br&gt;input.path1.gene22&lt;br&gt;Location: 90131 - 97548" locus_tag="input.path1.gene22" class="clusterblast-orf" id="dummy-1_q5_0_all"  />
<polygon points="500,40 510,40 515,35 510,30 500,30 500,40 " style="fill:#b115d8; stroke-width:1; stroke:black; " description="&lt;b&gt;input.path1.gene23&lt;/b&gt;&lt;br&gt;input.path1.gene23&lt;br&gt;Location: 103215 - 104796" locus_tag="input.path1.gene23" class="clusterblast-orf" id="dummy-1_q6_0_all"  />
<polygon points="515,35 520,30 537,30 537,40 520,40 515,35 " style="fill:white; stroke-width:1; stroke:black; " description="&lt;b&gt;input.path1.gene24&lt;/b&gt;&lt;br&gt;input.path1.gene24&lt;br&gt;Location: 104792 - 107159" locus_tag="input.path1.gene24" class="clusterblast-orf" id="dummy-1_q7_0_all"  />
<polygon points="560,40 567,40 572,35 567,30 560,30 560,40 " style="fill:#b1d815; stroke-width:1; stroke:black; " description="&lt;b&gt;input.path1.gene25&lt;/b&gt;&lt;br&gt;input.path1.gene25&lt;br&gt;Location: 109720 - 111025" locus_tag="input.path1.gene25" class="clusterblast-orf" id="dummy-1_q8_0_all"  />
</g>
<g label="NW_024467526" description="NW_024467526 (3357689-3444377): Aspergillus versicolor CBS 583.65 unplaced ge... (7% of genes show similarity), T1PKS,terpene" class="clusterblast-cluster"  >
<text x="5" y="70" class="clusterblast-acc"  >
<a xlink:href="https://antismash-db.secondarymetabolites.org/area?record=NW_024467526&amp;start=3357689&amp;end=3444377" target="_blank">NW_024467526 (3357689-3444377)</a>: Aspergillus versicolor CBS 583.65 unplaced ge... (7% of genes show similarity), T1PKS,terpene</text>
<line x1="10" y1="85" x2="778.0" y2="85" style="stroke-width:1; stroke:grey; "  />
</g>
<g id="a1_000"  >
<polygon points="0,85 5,80 16,80 16,90 5,90 0,85 " style="fill:white; stroke-width:1; stroke:black; " description="&lt;b&gt;ASPVEDRAFT_51958&lt;/b&gt;&lt;br&gt;uncharacterized protein&lt;br&gt;Location: 3444171 - 3442360" locus_tag="ASPVEDRAFT_51958" class="clusterblast-orf" id="dummy-1_h1_7_0"  />
</g>
<g id="a1_001"  >
<polygon points="26,85 31,80 47,80 47,90 31,90 26,85 " style="fill:white; stroke-width:1; stroke:black; " description="&lt;b&gt;ASPVEDRAFT_128846&lt;/b&gt;&lt;br&gt;uncharacterized protein&lt;br&gt;Location: 3441330 - 3439013" locus_tag="ASPVEDRAFT_128846" class="clusterblast-orf" id="dummy-1_h1_7_1"  />
</g>
<g id="a1_002"  >
<polygon points="49,90 62,90 67,85 62,80 49,80 49,90 " style="fill:white; stroke-width:1; stroke:black; " description="&lt;b&gt;ASPVEDRAFT_127276&lt;/b&gt;&lt;br&gt;uncharacterized protein&lt;br&gt;Location: 3438800 - 3436908" locus_tag="ASPVEDRAFT_127276" class="clusterblast-orf" id="dummy-1_h1_7_2"  />
</g>
<g id="a1_003"  >
<polygon points="76,90 88,90 93,85 88,80 76,80 76,90 " style="fill:white; stroke-width:1; stroke:black; " description="&lt;b&gt;ASPVEDRAFT_127125&lt;/b&gt;&lt;br&gt;uncharacterized protein&lt;br&gt;Location: 3435870 - 3434110" locus_tag="ASPVEDRAFT_127125" class="clusterblast-orf" id="dummy-1_h1_7_3"  />
</g>
<g id="a1_004"  >
<polygon points="98,85 103,80 106,80 106,90 103,90 98,85 " style="fill:white; stroke-width:1; stroke:black; " description="&lt;b&gt;ASPVEDRAFT_594352&lt;/b&gt;&lt;br&gt;uncharacterized protein&lt;br&gt;Location: 3433475 - 3432669" locus_tag="ASPVEDRAFT_594352" class="clusterblast-orf" id="dummy-1_h1_7_4"  />
</g>
<g id="a1_005"  >
<polygon points="114,85 119,80 129,80 129,90 119,90 114,85 " style="fill:white; stroke-width:1; stroke:black; " description="&lt;b&gt;ASPVEDRAFT_40409&lt;/b&gt;&lt;br&gt;uncharacterized protein&lt;br&gt;Location: 3431814 - 3430128" locus_tag="ASPVEDRAFT_40409" class="clusterblast-orf" id="dummy-1_h1_7_5"  />
</g>
<g id="a1_006"  >
<polygon points="136,90 146,90 151,85 146,80 136,80 136,90 " style="fill:white; stroke-width:1; stroke:black; " description="&lt;b&gt;ASPVEDRAFT_166084&lt;/b&gt;&lt;br&gt;uncharacterized protein&lt;br&gt;Location: 3429377 - 3427795" locus_tag="ASPVEDRAFT_166084" class="clusterblast-orf" id="dummy-1_h1_7_6"  />
</g>
<g id="a1_007"  >
<polygon points="157,90 158,90 163,85 158,80 157,80 157,90 " style="fill:white; stroke-width:1; stroke:black; " description="&lt;b&gt;ASPVEDRAFT_128644&lt;/b&gt;&lt;br&gt;uncharacterized protein&lt;br&gt;Location: 3427160 - 3426534" locus_tag="ASPVEDRAFT_128644" class="clusterblast-orf" id="dummy-1_h1_7_7"  />
</g>
<g id="a1_008"  >
<polygon points="174,90 180,90 185,85 180,80 174,80 174,90 " style="fill:white; stroke-width:1; stroke:black; " description="&lt;b&gt;ASPVEDRAFT_40406&lt;/b&gt;&lt;br&gt;uncharacterized protein&lt;br&gt;Location: 3425253 - 3424129" locus_tag="ASPVEDRAFT_40406" class="clusterblast-orf" id="dummy-1_h1_7_8"  />
</g>
<g id="a1_009"  >
<polygon points="197,90 203,90 208,85 203,80 197,80 197,90 " style="fill:white; stroke-width:1; stroke:black; " description="&lt;b&gt;ASPVEDRAFT_51951&lt;/b&gt;&lt;br&gt;uncharacterized protein&lt;br&gt;Location: 3422799 - 3421644" locus_tag="ASPVEDRAFT_51951" class="clusterblast-orf" id="dummy-1_h1_7_9"  />
</g>
<g id="a1_0010"  >
<polygon points="224,90 233,90 238,85 233,80 224,80 224,90 " style="fill:white; stroke-width:1; stroke:black; " description="&lt;b&gt;ASPVEDRAFT_126360&lt;/b&gt;&lt;br&gt;uncharacterized protein&lt;br&gt;Location: 3419885 - 3418432" locus_tag="ASPVEDRAFT_126360" class="clusterblast-orf" id="dummy-1_h1_7_10"  />
</g>
<g id="a1_0011"  >
<polygon points="239,85 244,80 290,80 290,90 244,90 239,85 " style="fill:white; stroke-width:1; stroke:black; " description="&lt;b&gt;ASPVEDRAFT_593098&lt;/b&gt;&lt;br&gt;uncharacterized protein&lt;br&gt;Location: 3418326 - 3412803" locus_tag="ASPVEDRAFT_593098" class="clusterblast-orf" id="dummy-1_h1_7_11"  />
</g>
<g id="a1_0012"  >
<polygon points="296,90 346,90 351,85 346,80 296,80 296,90 " style="fill:white; stroke-width:1; stroke:black; " description="&lt;b&gt;ASPVEDRAFT_593308&lt;/b&gt;&lt;br&gt;uncharacterized protein&lt;br&gt;Location: 3412149 - 3406159" locus_tag="ASPVEDRAFT_593308" class="clusterblast-orf" id="dummy-1_h1_7_12"  />
</g>
<g id="a1_0013"  >
<polygon points="352,90 355,85 352,80 352,90 " style="fill:white; stroke-width:1; stroke:black; " description="&lt;b&gt;ASPVEDRAFT_126990&lt;/b&gt;&lt;br&gt;uncharacterized protein&lt;br&gt;Location: 3406069 - 3405785" locus_tag="ASPVEDRAFT_126990" class="clusterblast-orf" id="dummy-1_h1_7_13"  />
</g>
<g id="a1_0014"  >
<polygon points="357,85 362,80 371,80 371,90 362,90 357,85 " style="fill:white; stroke-width:1; stroke:black; " description="&lt;b&gt;ASPVEDRAFT_126632&lt;/b&gt;&lt;br&gt;uncharacterized protein&lt;br&gt;Location: 3405504 - 3404063" locus_tag="ASPVEDRAFT_126632" class="clusterblast-orf" id="dummy-1_h1_7_14"  />
</g>
<g id="a1_0015"  >
<polygon points="376,90 386,90 391,85 386,80 376,80 376,90 " style="fill:white; stroke-width:1; stroke:black; " description="&lt;b&gt;ASPVEDRAFT_51946&lt;/b&gt;&lt;br&gt;uncharacterized protein&lt;br&gt;Location: 3403488 - 3401805" locus_tag="ASPVEDRAFT_51946" class="clusterblast-orf" id="dummy-1_h1_7_15"  />
</g>
<g id="a1_0016"  >
<polygon points="394,85 399,80 407,80 407,90 399,90 394,85 " style="fill:white; stroke-width:1; stroke:black; " description="&lt;b&gt;ASPVEDRAFT_127449&lt;/b&gt;&lt;br&gt;uncharacterized protein&lt;br&gt;Location: 3401537 - 3400167" locus_tag="ASPVEDRAFT_127449" class="clusterblast-orf" id="dummy-1_h1_7_16"  />
</g>
<g id="a1_0017"  >
<polygon points="426,90 436,90 441,85 436,80 426,80 426,90 " style="fill:white; stroke-width:1; stroke:black; " description="&lt;b&gt;ASPVEDRAFT_128228&lt;/b&gt;&lt;br&gt;uncharacterized protein&lt;br&gt;Location: 3398078 - 3396441" locus_tag="ASPVEDRAFT_128228" class="clusterblast-orf" id="dummy-1_h1_7_17"  />
</g>
<g id="a1_0018"  >
<polygon points="451,90 517,90 522,85 517,80 451,80 451,90 " style="fill:#1563d8; stroke-width:1; stroke:black; " description="&lt;b&gt;ASPVEDRAFT_126971&lt;/b&gt;&lt;br&gt;uncharacterized protein&lt;br&gt;Location: 3395338 - 3387690&lt;br&gt;&lt;br&gt;&lt;b&gt;BlastP hit with input.path1.gene22&lt;/b&gt;&lt;br&gt;Percentage identity: 38&lt;br&gt;Percentage coverage: 102&lt;br&gt;BLAST bit score: 1527&lt;br&gt;E-value: 0.0" locus_tag="ASPVEDRAFT_126971" class="clusterblast-orf" id="dummy-1_h1_7_18"  />
</g>
<g id="a1_0019"  >
<polygon points="527,90 538,90 543,85 538,80 527,80 527,90 " style="fill:white; stroke-width:1; stroke:black; " description="&lt;b&gt;ASPVEDRAFT_592672&lt;/b&gt;&lt;br&gt;uncharacterized protein&lt;br&gt;Location: 3387098 - 3385365" locus_tag="ASPVEDRAFT_592672" class="clusterblast-orf" id="dummy-1_h1_7_19"  />
</g>
<g id="a1_0020"  >
<polygon points="545,85 550,80 560,80 560,90 550,90 545,85 " style="fill:white; stroke-width:1; stroke:black; " description="&lt;b&gt;ASPVEDRAFT_592630&lt;/b&gt;&lt;br&gt;uncharacterized protein&lt;br&gt;Location: 3385219 - 3383564" locus_tag="ASPVEDRAFT_592630" class="clusterblast-orf" id="dummy-1_h1_7_20"  />
</g>
<g id="a1_0021"  >
<polygon points="564,85 569,80 576,80 576,90 569,90 564,85 " style="fill:white; stroke-width:1; stroke:black; " description="&lt;b&gt;ASPVEDRAFT_51938&lt;/b&gt;&lt;br&gt;uncharacterized protein&lt;br&gt;Location: 3383110 - 3381826" locus_tag="ASPVEDRAFT_51938" class="clusterblast-orf" id="dummy-1_h1_7_21"  />
</g>
<g id="a1_0022"  >
<polygon points="597,90 607,90 612,85 607,80 597,80 597,90 " style="fill:#15d863; stroke-width:1; stroke:black; " description="&lt;b&gt;ASPVEDRAFT_128807&lt;/b&gt;&lt;br&gt;uncharacterized protein&lt;br&gt;Location: 3379615 - 3377925&lt;br&gt;&lt;br&gt;&lt;b&gt;BlastP hit with input.path1.gene18&lt;/b&gt;&lt;br&gt;Percentage identity: 34&lt;br&gt;Percentage coverage: 91&lt;br&gt;BLAST bit score: 290&lt;br&gt;E-value: 5.54e-89" locus_tag="ASPVEDRAFT_128807" class="clusterblast-orf" id="dummy-1_h1_7_22"  />
</g>
<g id="a1_0023"  >
<polygon points="627,90 631,85 627,80 627,90 " style="fill:white; stroke-width:1; stroke:black; " description="&lt;b&gt;ASPVEDRAFT_40392&lt;/b&gt;&lt;br&gt;uncharacterized protein&lt;br&gt;Location: 3376365 - 3375925" locus_tag="ASPVEDRAFT_40392" class="clusterblast-orf" id="dummy-1_h1_7_23"  />
</g>
<g id="a1_0024"  >
<polygon points="658,85 663,80 672,80 672,90 663,90 658,85 " style="fill:white; stroke-width:1; stroke:black; " description="&lt;b&gt;ASPVEDRAFT_51944&lt;/b&gt;&lt;br&gt;uncharacterized protein&lt;br&gt;Location: 3373024 - 3371430" locus_tag="ASPVEDRAFT_51944" class="clusterblast-orf" id="dummy-1_h1_7_24"  />
</g>
<g id="a1_0025"  >
<polygon points="684,90 688,85 684,80 684,90 " style="fill:white; stroke-width:1; stroke:black; " description="&lt;b&gt;ASPVEDRAFT_592525&lt;/b&gt;&lt;br&gt;uncharacterized protein&lt;br&gt;Location: 3370139 - 3369795" locus_tag="ASPVEDRAFT_592525" class="clusterblast-orf" id="dummy-1_h1_7_25"  />
</g>
<g id="a1_0026"  >
<polygon points="775,90 775,90 780,85 775,80 775,80 775,90 " style="fill:white; stroke-width:1; stroke:black; " description="&lt;b&gt;ASPVEDRAFT_592559&lt;/b&gt;&lt;br&gt;uncharacterized protein&lt;br&gt;Location: 3360320 - 3359850" locus_tag="ASPVEDRAFT_592559" class="clusterblast-orf" id="dummy-1_h1_7_26"  />
</g>
</svg>
