<svg xmlns="http://www.w3.org/2000/svg" xmlns:xlink="http://www.w3.org/1999/xlink" version="1.1" x="0" y="0" height="230" width="800" viewBox="0 0 800 230" preserveAspectRatio="none"  >
<g label="Query sequence" class="clusterblast-cluster"  >
<text x="5" y="20" class="clusterblast-acc"  >
Query sequence</text>
<line x1="10" y1="35" x2="778.0" y2="35" style="stroke-width:1; stroke:grey; "  />
<polygon points="147,40 151,40 156,35 151,30 147,30 147,40 " style="fill:white; stroke-width:1; stroke:black; " description="&lt;b&gt;input.path1.gene2266&lt;/b&gt;&lt;br&gt;input.path1.gene2266&lt;br&gt;Location: 8120888 - 8121577" locus_tag="input.path1.gene2266" class="clusterblast-orf" id="dummy-12_q0_0_all"  />
<polygon points="156,35 161,30 196,30 196,40 161,40 156,35 " style="fill:#d81515; stroke-width:1; stroke:black; " description="&lt;b&gt;input.path1.gene2267&lt;/b&gt;&lt;br&gt;input.path1.gene2267&lt;br&gt;Location: 8121589 - 8124604" locus_tag="input.path1.gene2267" class="clusterblast-orf" id="dummy-12_q1_0_all"  />
<polygon points="215,40 224,40 229,35 224,30 215,30 215,40 " style="fill:white; stroke-width:1; stroke:black; " description="&lt;b&gt;input.path1.gene2268&lt;/b&gt;&lt;br&gt;input.path1.gene2268&lt;br&gt;Location: 8125994 - 8127039" locus_tag="input.path1.gene2268" class="clusterblast-orf" id="dummy-12_q2_0_all"  />
<polygon points="237,40 261,40 266,35 261,30 237,30 237,40 " style="fill:white; stroke-width:1; stroke:black; " description="&lt;b&gt;input.path1.gene2269&lt;/b&gt;&lt;br&gt;input.path1.gene2269&lt;br&gt;Location: 8127684 - 8129885" locus_tag="input.path1.gene2269" class="clusterblast-orf" id="dummy-12_q3_0_all"  />
<polygon points="309,40 337,40 342,35 337,30 309,30 309,40 " style="fill:white; stroke-width:1; stroke:black; " description="&lt;b&gt;input.path1.gene2270&lt;/b&gt;&lt;br&gt;input.path1.gene2270&lt;br&gt;Location: 8133084 - 8135579" locus_tag="input.path1.gene2270" class="clusterblast-orf" id="dummy-12_q4_0_all"  />
<polygon points="376,40 446,40 451,35 446,30 376,30 376,40 " style="fill:#15d863; stroke-width:1; stroke:black; " description="&lt;b&gt;input.path1.gene2271&lt;/b&gt;&lt;br&gt;input.path1.gene2271&lt;br&gt;Location: 8138140 - 8143807" locus_tag="input.path1.gene2271" class="clusterblast-orf" id="dummy-12_q5_0_all"  />
<polygon points="480,40 507,40 512,35 507,30 480,30 480,40 " style="fill:#1563d8; stroke-width:1; stroke:black; " description="&lt;b&gt;input.path1.gene2272&lt;/b&gt;&lt;br&gt;input.path1.gene2272&lt;br&gt;Location: 8145992 - 8148427" locus_tag="input.path1.gene2272" class="clusterblast-orf" id="dummy-12_q6_0_all"  />
<polygon points="517,35 522,30 542,30 542,40 522,40 517,35 " style="fill:#b115d8; stroke-width:1; stroke:black; " description="&lt;b&gt;input.path1.gene2273&lt;/b&gt;&lt;br&gt;input.path1.gene2273&lt;br&gt;Location: 8148805 - 8150630" locus_tag="input.path1.gene2273" class="clusterblast-orf" id="dummy-12_q7_0_all"  />
<polygon points="589,35 594,30 632,30 632,40 594,40 589,35 " style="fill:#b1d815; stroke-width:1; stroke:black; " description="&lt;b&gt;input.path1.gene2274&lt;/b&gt;&lt;br&gt;input.path1.gene2274&lt;br&gt;Location: 8154181 - 8157469" locus_tag="input.path1.gene2274" class="clusterblast-orf" id="dummy-12_q8_0_all"  />
</g>
<g label="NW_006271975" description="NW_006271975 (1558381-1621743): Cordyceps militaris CM01 unplaced genomic sca... (30% of genes show similarity), NRPS-like" class="clusterblast-cluster"  >
<text x="5" y="70" class="clusterblast-acc"  >
<a xlink:href="https://antismash-db.secondarymetabolites.org/area?record=NW_006271975&amp;start=1558381&amp;end=1621743" target="_blank">NW_006271975 (1558381-1621743)</a>: Cordyceps militaris CM01 unplaced genomic sca... (30% of genes show similarity), NRPS-like</text>
<line x1="10" y1="85" x2="778.0" y2="85" style="stroke-width:1; stroke:grey; "  />
</g>
<g id="a12_000"  >
<polygon points="0,85 5,80 73,80 73,90 5,90 0,85 " style="fill:white; stroke-width:1; stroke:black; " description="&lt;b&gt;CCM_08718&lt;/b&gt;&lt;br&gt;metal ion resistance protein/transporter (Zrc1), putative&lt;br&gt;Location: 1559898 - 1565473" locus_tag="CCM_08718" class="clusterblast-orf" id="dummy-12_h12_1_0"  />
</g>
<g id="a12_001"  >
<polygon points="91,90 99,90 104,85 99,80 91,80 91,90 " style="fill:white; stroke-width:1; stroke:black; " description="&lt;b&gt;CCM_08719&lt;/b&gt;&lt;br&gt;hypothetical protein&lt;br&gt;Location: 1566788 - 1567798" locus_tag="CCM_08719" class="clusterblast-orf" id="dummy-12_h12_1_1"  />
</g>
<g id="a12_002"  >
<polygon points="108,90 116,90 121,85 116,80 108,80 108,90 " style="fill:white; stroke-width:1; stroke:black; " description="&lt;b&gt;CCM_08720&lt;/b&gt;&lt;br&gt;epoxide hydrolase, putative&lt;br&gt;Location: 1568077 - 1569039" locus_tag="CCM_08720" class="clusterblast-orf" id="dummy-12_h12_1_2"  />
</g>
<g id="a12_003"  >
<polygon points="125,90 136,90 141,85 136,80 125,80 125,90 " style="fill:white; stroke-width:1; stroke:black; " description="&lt;b&gt;CCM_08721&lt;/b&gt;&lt;br&gt;alcohol dehydrogenase, putative&lt;br&gt;Location: 1569379 - 1570571" locus_tag="CCM_08721" class="clusterblast-orf" id="dummy-12_h12_1_3"  />
</g>
<g id="a12_004"  >
<polygon points="164,90 169,90 174,85 169,80 164,80 164,90 " style="fill:white; stroke-width:1; stroke:black; " description="&lt;b&gt;CCM_08722&lt;/b&gt;&lt;br&gt;LPS-induced tumor necrosis factor alpha factor&lt;br&gt;Location: 1572300 - 1573040" locus_tag="CCM_08722" class="clusterblast-orf" id="dummy-12_h12_1_4"  />
</g>
<g id="a12_005"  >
<polygon points="177,85 182,80 198,80 198,90 182,90 177,85 " style="fill:white; stroke-width:1; stroke:black; " description="&lt;b&gt;CCM_08723&lt;/b&gt;&lt;br&gt;oxalate decarboxylase oxdC, putative&lt;br&gt;Location: 1573264 - 1574844" locus_tag="CCM_08723" class="clusterblast-orf" id="dummy-12_h12_1_5"  />
</g>
<g id="a12_006"  >
<polygon points="218,90 237,90 242,85 237,80 218,80 218,90 " style="fill:white; stroke-width:1; stroke:black; " description="&lt;b&gt;CCM_08724&lt;/b&gt;&lt;br&gt;selenium-binding protein&lt;br&gt;Location: 1576325 - 1578175" locus_tag="CCM_08724" class="clusterblast-orf" id="dummy-12_h12_1_6"  />
</g>
<g id="a12_007"  >
<polygon points="244,85 249,80 255,80 255,90 249,90 244,85 " style="fill:white; stroke-width:1; stroke:black; " description="&lt;b&gt;CCM_08725&lt;/b&gt;&lt;br&gt;acyl-protein thioesterase 1&lt;br&gt;Location: 1578348 - 1579129" locus_tag="CCM_08725" class="clusterblast-orf" id="dummy-12_h12_1_7"  />
</g>
<g id="a12_008"  >
<polygon points="276,85 281,80 290,80 290,90 281,90 276,85 " style="fill:#d81515; stroke-width:1; stroke:black; " description="&lt;b&gt;CCM_08727&lt;/b&gt;&lt;br&gt;gibberellin 20-oxidase, putative&lt;br&gt;Location: 1580733 - 1581782&lt;br&gt;&lt;br&gt;&lt;b&gt;BlastP hit with input.path1.gene2267&lt;/b&gt;&lt;br&gt;Percentage identity: 76&lt;br&gt;Percentage coverage: 40&lt;br&gt;BLAST bit score: 426&lt;br&gt;E-value: 2.98e-143" locus_tag="CCM_08727" class="clusterblast-orf" id="dummy-12_h12_1_8"  />
</g>
<g id="a12_009"  >
<polygon points="296,85 301,80 312,80 312,90 301,90 296,85 " style="fill:#d81515; stroke-width:1; stroke:black; " description="&lt;b&gt;CCM_08728&lt;/b&gt;&lt;br&gt;Phosphoesterase family&lt;br&gt;Location: 1582225 - 1583437&lt;br&gt;&lt;br&gt;&lt;b&gt;BlastP hit with input.path1.gene2267&lt;/b&gt;&lt;br&gt;Percentage identity: 88&lt;br&gt;Percentage coverage: 50&lt;br&gt;BLAST bit score: 620&lt;br&gt;E-value: 1.97e-218" locus_tag="CCM_08728" class="clusterblast-orf" id="dummy-12_h12_1_9"  />
</g>
<g id="a12_0010"  >
<polygon points="341,90 371,90 376,85 371,80 341,80 341,90 " style="fill:#15d863; stroke-width:1; stroke:black; " description="&lt;b&gt;CCM_08729&lt;/b&gt;&lt;br&gt;C6 transcription factor, putative&lt;br&gt;Location: 1585651 - 1588251&lt;br&gt;&lt;br&gt;&lt;b&gt;BlastP hit with input.path1.gene2271&lt;/b&gt;&lt;br&gt;Percentage identity: 84&lt;br&gt;Percentage coverage: 29&lt;br&gt;BLAST bit score: 703&lt;br&gt;E-value: 1.59e-234" locus_tag="CCM_08729" class="clusterblast-orf" id="dummy-12_h12_1_10"  />
</g>
<g id="a12_0011"  >
<polygon points="378,90 417,90 422,85 417,80 378,80 378,90 " style="fill:#15d863; stroke-width:1; stroke:black; " description="&lt;b&gt;CCM_08730&lt;/b&gt;&lt;br&gt;NRPS-like enzyme, putative&lt;br&gt;Location: 1588382 - 1591743&lt;br&gt;&lt;br&gt;&lt;b&gt;BlastP hit with input.path1.gene2271&lt;/b&gt;&lt;br&gt;Percentage identity: 72&lt;br&gt;Percentage coverage: 73&lt;br&gt;BLAST bit score: 1499&lt;br&gt;E-value: 0.0" locus_tag="CCM_08730" class="clusterblast-orf" id="dummy-12_h12_1_11"  />
</g>
<g id="a12_0012"  >
<polygon points="449,90 463,90 468,85 463,80 449,80 449,90 " style="fill:white; stroke-width:1; stroke:black; " description="&lt;b&gt;CCM_08731&lt;/b&gt;&lt;br&gt;hypothetical protein&lt;br&gt;Location: 1593790 - 1595160" locus_tag="CCM_08731" class="clusterblast-orf" id="dummy-12_h12_1_12"  />
</g>
<g id="a12_0013"  >
<polygon points="490,90 521,90 526,85 521,80 490,80 490,90 " style="fill:#1563d8; stroke-width:1; stroke:black; " description="&lt;b&gt;CCM_08732&lt;/b&gt;&lt;br&gt;endo-1,3(4)-beta-glucanase, putative&lt;br&gt;Location: 1596828 - 1599555&lt;br&gt;&lt;br&gt;&lt;b&gt;BlastP hit with input.path1.gene2272&lt;/b&gt;&lt;br&gt;Percentage identity: 59&lt;br&gt;Percentage coverage: 117&lt;br&gt;BLAST bit score: 618&lt;br&gt;E-value: 8.56e-210" locus_tag="CCM_08732" class="clusterblast-orf" id="dummy-12_h12_1_13"  />
</g>
<g id="a12_0014"  >
<polygon points="529,85 534,80 552,80 552,90 534,90 529,85 " style="fill:#b115d8; stroke-width:1; stroke:black; " description="&lt;b&gt;CCM_08733&lt;/b&gt;&lt;br&gt;mannosidase MsdS&lt;br&gt;Location: 1599822 - 1601532&lt;br&gt;&lt;br&gt;&lt;b&gt;BlastP hit with input.path1.gene2273&lt;/b&gt;&lt;br&gt;Percentage identity: 89&lt;br&gt;Percentage coverage: 100&lt;br&gt;BLAST bit score: 910&lt;br&gt;E-value: 0.0" locus_tag="CCM_08733" class="clusterblast-orf" id="dummy-12_h12_1_14"  />
</g>
<g id="a12_0015"  >
<polygon points="571,90 575,90 580,85 575,80 571,80 571,90 " style="fill:white; stroke-width:1; stroke:black; " description="&lt;b&gt;CCM_08734&lt;/b&gt;&lt;br&gt;Extracellular membrane protein, 8-cysteine region, CFEM&lt;br&gt;Location: 1602989 - 1603633" locus_tag="CCM_08734" class="clusterblast-orf" id="dummy-12_h12_1_15"  />
</g>
<g id="a12_0016"  >
<polygon points="624,85 629,80 661,80 661,90 629,90 624,85 " style="fill:white; stroke-width:1; stroke:black; " description="&lt;b&gt;CCM_08735&lt;/b&gt;&lt;br&gt;von Willebrand domain containing protein&lt;br&gt;Location: 1606917 - 1609769" locus_tag="CCM_08735" class="clusterblast-orf" id="dummy-12_h12_1_16"  />
</g>
<g id="a12_0017"  >
<polygon points="671,85 676,80 691,80 691,90 676,90 671,85 " style="fill:white; stroke-width:1; stroke:black; " description="&lt;b&gt;CCM_08736&lt;/b&gt;&lt;br&gt;nitrate reductase&lt;br&gt;Location: 1610474 - 1611991" locus_tag="CCM_08736" class="clusterblast-orf" id="dummy-12_h12_1_17"  />
</g>
<g id="a12_0018"  >
<polygon points="714,90 732,90 737,85 732,80 714,80 714,90 " style="fill:white; stroke-width:1; stroke:black; " description="&lt;b&gt;CCM_08737&lt;/b&gt;&lt;br&gt;nitrate transporter CrnA&lt;br&gt;Location: 1613745 - 1615492" locus_tag="CCM_08737" class="clusterblast-orf" id="dummy-12_h12_1_18"  />
</g>
<g id="a12_0019"  >
<polygon points="746,85 751,80 780,80 780,90 751,90 746,85 " style="fill:white; stroke-width:1; stroke:black; " description="&lt;b&gt;CCM_08738&lt;/b&gt;&lt;br&gt;amidophosphoribosyltransferase&lt;br&gt;Location: 1616134 - 1618665" locus_tag="CCM_08738" class="clusterblast-orf" id="dummy-12_h12_1_19"  />
</g>
</svg>
