<svg xmlns="http://www.w3.org/2000/svg" xmlns:xlink="http://www.w3.org/1999/xlink" version="1.1" x="0" y="0" height="230" width="800" viewBox="0 0 800 230" preserveAspectRatio="none"  >
<g label="Query sequence" class="clusterblast-cluster"  >
<text x="5" y="20" class="clusterblast-acc"  >
Query sequence</text>
<line x1="10" y1="35" x2="778.0" y2="35" style="stroke-width:1; stroke:grey; "  />
<polygon points="108,35 113,30 124,30 124,40 113,40 108,35 " style="fill:#d81515; stroke-width:1; stroke:black; " description="&lt;b&gt;input.path1.gene1227&lt;/b&gt;&lt;br&gt;input.path1.gene1227&lt;br&gt;Location: 4473807 - 4475108" locus_tag="input.path1.gene1227" class="clusterblast-orf" id="dummy-6_q0_0_all"  />
<polygon points="167,35 172,30 197,30 197,40 172,40 167,35 " style="fill:#5cd815; stroke-width:1; stroke:black; " description="&lt;b&gt;input.path1.gene1228&lt;/b&gt;&lt;br&gt;input.path1.gene1228&lt;br&gt;Location: 4478566 - 4481008" locus_tag="input.path1.gene1228" class="clusterblast-orf" id="dummy-6_q1_0_all"  />
<polygon points="207,35 212,30 220,30 220,40 212,40 207,35 " style="fill:#15a3d8; stroke-width:1; stroke:black; " description="&lt;b&gt;input.path1.gene1229&lt;/b&gt;&lt;br&gt;input.path1.gene1229&lt;br&gt;Location: 4481836 - 4482898" locus_tag="input.path1.gene1229" class="clusterblast-orf" id="dummy-6_q2_0_all"  />
<polygon points="244,40 249,40 254,35 249,30 244,30 244,40 " style="fill:white; stroke-width:1; stroke:black; " description="&lt;b&gt;input.path1.gene1230&lt;/b&gt;&lt;br&gt;input.path1.gene1230&lt;br&gt;Location: 4484813 - 4485618" locus_tag="input.path1.gene1230" class="clusterblast-orf" id="dummy-6_q3_0_all"  />
<polygon points="303,40 317,40 322,35 317,30 303,30 303,40 " style="fill:#c715d8; stroke-width:1; stroke:black; " description="&lt;b&gt;input.path1.gene1231&lt;/b&gt;&lt;br&gt;input.path1.gene1231&lt;br&gt;Location: 4489549 - 4491139" locus_tag="input.path1.gene1231" class="clusterblast-orf" id="dummy-6_q4_0_all"  />
<polygon points="347,40 430,40 435,35 430,30 347,30 347,40 " style="fill:#d88015; stroke-width:1; stroke:black; " description="&lt;b&gt;input.path1.gene1232&lt;/b&gt;&lt;br&gt;input.path1.gene1232&lt;br&gt;Location: 4493100 - 4500263" locus_tag="input.path1.gene1232" class="clusterblast-orf" id="dummy-6_q5_0_all"  />
<polygon points="441,40 444,35 441,30 441,40 " style="fill:#15d839; stroke-width:1; stroke:black; " description="&lt;b&gt;input.path1.gene1233&lt;/b&gt;&lt;br&gt;input.path1.gene1233&lt;br&gt;Location: 4500730 - 4500971" locus_tag="input.path1.gene1233" class="clusterblast-orf" id="dummy-6_q6_0_all"  />
<polygon points="445,35 449,30 449,40 445,35 " style="fill:white; stroke-width:1; stroke:black; " description="&lt;b&gt;input.path1.gene1234&lt;/b&gt;&lt;br&gt;input.path1.gene1234&lt;br&gt;Location: 4501043 - 4501400" locus_tag="input.path1.gene1234" class="clusterblast-orf" id="dummy-6_q7_0_all"  />
<polygon points="451,40 458,40 463,35 458,30 451,30 451,40 " style="fill:#15d839; stroke-width:1; stroke:black; " description="&lt;b&gt;input.path1.gene1235&lt;/b&gt;&lt;br&gt;input.path1.gene1235&lt;br&gt;Location: 4501567 - 4502524" locus_tag="input.path1.gene1235" class="clusterblast-orf" id="dummy-6_q8_0_all"  />
<polygon points="465,40 469,40 474,35 469,30 465,30 465,40 " style="fill:#1539d8; stroke-width:1; stroke:black; " description="&lt;b&gt;input.path1.gene1236&lt;/b&gt;&lt;br&gt;input.path1.gene1236&lt;br&gt;Location: 4502693 - 4503425" locus_tag="input.path1.gene1236" class="clusterblast-orf" id="dummy-6_q9_0_all"  />
<polygon points="507,35 512,30 529,30 529,40 512,40 507,35 " style="fill:#d81580; stroke-width:1; stroke:black; " description="&lt;b&gt;input.path1.gene1237&lt;/b&gt;&lt;br&gt;input.path1.gene1237&lt;br&gt;Location: 4506069 - 4507794" locus_tag="input.path1.gene1237" class="clusterblast-orf" id="dummy-6_q10_0_all"  />
<polygon points="530,35 535,30 564,30 564,40 535,40 530,35 " style="fill:#c7d815; stroke-width:1; stroke:black; " description="&lt;b&gt;input.path1.gene1238&lt;/b&gt;&lt;br&gt;input.path1.gene1238&lt;br&gt;Location: 4507893 - 4510657" locus_tag="input.path1.gene1238" class="clusterblast-orf" id="dummy-6_q11_0_all"  />
<polygon points="565,35 570,30 576,30 576,40 570,40 565,35 " style="fill:white; stroke-width:1; stroke:black; " description="&lt;b&gt;input.path1.gene1239&lt;/b&gt;&lt;br&gt;input.path1.gene1239&lt;br&gt;Location: 4510710 - 4511601" locus_tag="input.path1.gene1239" class="clusterblast-orf" id="dummy-6_q12_0_all"  />
<polygon points="600,40 626,40 631,35 626,30 600,30 600,40 " style="fill:#15d8a3; stroke-width:1; stroke:black; " description="&lt;b&gt;input.path1.gene1240&lt;/b&gt;&lt;br&gt;input.path1.gene1240&lt;br&gt;Location: 4513566 - 4516079" locus_tag="input.path1.gene1240" class="clusterblast-orf" id="dummy-6_q13_0_all"  />
<polygon points="635,40 646,40 651,35 646,30 635,30 635,40 " style="fill:#5c15d8; stroke-width:1; stroke:black; " description="&lt;b&gt;input.path1.gene1241&lt;/b&gt;&lt;br&gt;input.path1.gene1241&lt;br&gt;Location: 4516428 - 4517685" locus_tag="input.path1.gene1241" class="clusterblast-orf" id="dummy-6_q14_0_all"  />
<polygon points="667,35 671,30 671,40 667,35 " style="fill:white; stroke-width:1; stroke:black; " description="&lt;b&gt;input.path1.gene1242&lt;/b&gt;&lt;br&gt;input.path1.gene1242&lt;br&gt;Location: 4518983 - 4519331" locus_tag="input.path1.gene1242" class="clusterblast-orf" id="dummy-6_q15_0_all"  />
</g>
<g label="NC_058388" description="NC_058388 (524455-588310): Fusarium musae strain F31 chromosome 2, whole geno... (33% of genes show similarity), NRPS-like" class="clusterblast-cluster"  >
<text x="5" y="70" class="clusterblast-acc"  >
<a xlink:href="https://antismash-db.secondarymetabolites.org/area?record=NC_058388&amp;start=524455&amp;end=588310" target="_blank">NC_058388 (524455-588310)</a>: Fusarium musae strain F31 chromosome 2, whole geno... (33% of genes show similarity), NRPS-like</text>
<line x1="10" y1="85" x2="778.0" y2="85" style="stroke-width:1; stroke:grey; "  />
</g>
<g id="a6_000"  >
<polygon points="0,85 5,80 12,80 12,90 5,90 0,85 " style="fill:#5cd815; stroke-width:1; stroke:black; " description="&lt;b&gt;J7337_002130&lt;/b&gt;&lt;br&gt;hypothetical protein&lt;br&gt;Location: 524948 - 525945&lt;br&gt;&lt;br&gt;&lt;b&gt;BlastP hit with input.path1.gene1228&lt;/b&gt;&lt;br&gt;Percentage identity: 55&lt;br&gt;Percentage coverage: 29&lt;br&gt;BLAST bit score: 203&lt;br&gt;E-value: 1.63e-57" locus_tag="J7337_002130" class="clusterblast-orf" id="dummy-6_h6_6_0"  />
</g>
<g id="a6_001"  >
<polygon points="24,85 29,80 37,80 37,90 29,90 24,85 " style="fill:#15a3d8; stroke-width:1; stroke:black; " description="&lt;b&gt;J7337_002131&lt;/b&gt;&lt;br&gt;hypothetical protein&lt;br&gt;Location: 526952 - 527995&lt;br&gt;&lt;br&gt;&lt;b&gt;BlastP hit with input.path1.gene1229&lt;/b&gt;&lt;br&gt;Percentage identity: 36&lt;br&gt;Percentage coverage: 96&lt;br&gt;BLAST bit score: 159&lt;br&gt;E-value: 1.33e-43" locus_tag="J7337_002131" class="clusterblast-orf" id="dummy-6_h6_6_1"  />
</g>
<g id="a6_002"  >
<polygon points="53,85 58,80 65,80 65,90 58,90 53,85 " style="fill:#5c15d8; stroke-width:1; stroke:black; " description="&lt;b&gt;J7337_002132&lt;/b&gt;&lt;br&gt;hypothetical protein&lt;br&gt;Location: 529261 - 530262&lt;br&gt;&lt;br&gt;&lt;b&gt;BlastP hit with input.path1.gene1241&lt;/b&gt;&lt;br&gt;Percentage identity: 63&lt;br&gt;Percentage coverage: 94&lt;br&gt;BLAST bit score: 334&lt;br&gt;E-value: 9.81e-113" locus_tag="J7337_002132" class="clusterblast-orf" id="dummy-6_h6_6_2"  />
</g>
<g id="a6_003"  >
<polygon points="73,85 78,80 95,80 95,90 78,90 73,85 " style="fill:#15d8a3; stroke-width:1; stroke:black; " description="&lt;b&gt;J7337_002133&lt;/b&gt;&lt;br&gt;hypothetical protein&lt;br&gt;Location: 530877 - 532652&lt;br&gt;&lt;br&gt;&lt;b&gt;BlastP hit with input.path1.gene1240&lt;/b&gt;&lt;br&gt;Percentage identity: 48&lt;br&gt;Percentage coverage: 87&lt;br&gt;BLAST bit score: 293&lt;br&gt;E-value: 3.71e-93" locus_tag="J7337_002133" class="clusterblast-orf" id="dummy-6_h6_6_3"  />
</g>
<g id="a6_004"  >
<polygon points="116,90 132,90 137,85 132,80 116,80 116,90 " style="fill:#d81580; stroke-width:1; stroke:black; " description="&lt;b&gt;J7337_002134&lt;/b&gt;&lt;br&gt;hypothetical protein&lt;br&gt;Location: 534391 - 536081&lt;br&gt;&lt;br&gt;&lt;b&gt;BlastP hit with input.path1.gene1237&lt;/b&gt;&lt;br&gt;Percentage identity: 71&lt;br&gt;Percentage coverage: 100&lt;br&gt;BLAST bit score: 728&lt;br&gt;E-value: 3.77e-260" locus_tag="J7337_002134" class="clusterblast-orf" id="dummy-6_h6_6_4"  />
</g>
<g id="a6_005"  >
<polygon points="146,85 151,80 161,80 161,90 151,90 146,85 " style="fill:white; stroke-width:1; stroke:black; " description="&lt;b&gt;J7337_002135&lt;/b&gt;&lt;br&gt;hypothetical protein&lt;br&gt;Location: 536784 - 537965" locus_tag="J7337_002135" class="clusterblast-orf" id="dummy-6_h6_6_5"  />
</g>
<g id="a6_006"  >
<polygon points="165,85 170,80 179,80 179,90 170,90 165,85 " style="fill:#1539d8; stroke-width:1; stroke:black; " description="&lt;b&gt;J7337_002136&lt;/b&gt;&lt;br&gt;hypothetical protein&lt;br&gt;Location: 538348 - 539417&lt;br&gt;&lt;br&gt;&lt;b&gt;BlastP hit with input.path1.gene1236&lt;/b&gt;&lt;br&gt;Percentage identity: 62&lt;br&gt;Percentage coverage: 87&lt;br&gt;BLAST bit score: 46&lt;br&gt;E-value: 5.11e-06" locus_tag="J7337_002136" class="clusterblast-orf" id="dummy-6_h6_6_6"  />
</g>
<g id="a6_007"  >
<polygon points="192,90 240,90 245,85 240,80 192,80 192,90 " style="fill:white; stroke-width:1; stroke:black; " description="&lt;b&gt;J7337_002137&lt;/b&gt;&lt;br&gt;hypothetical protein&lt;br&gt;Location: 540529 - 544757" locus_tag="J7337_002137" class="clusterblast-orf" id="dummy-6_h6_6_7"  />
</g>
<g id="a6_008"  >
<polygon points="259,90 275,90 280,85 275,80 259,80 259,90 " style="fill:white; stroke-width:1; stroke:black; " description="&lt;b&gt;J7337_002138&lt;/b&gt;&lt;br&gt;putative choline transporter, neither null mutation nor overexpression affects choline transport&lt;br&gt;Location: 545918 - 547578" locus_tag="J7337_002138" class="clusterblast-orf" id="dummy-6_h6_6_8"  />
</g>
<g id="a6_009"  >
<polygon points="309,90 323,90 328,85 323,80 309,80 309,90 " style="fill:#c715d8; stroke-width:1; stroke:black; " description="&lt;b&gt;J7337_002139&lt;/b&gt;&lt;br&gt;hypothetical protein&lt;br&gt;Location: 549953 - 551500&lt;br&gt;&lt;br&gt;&lt;b&gt;BlastP hit with input.path1.gene1231&lt;/b&gt;&lt;br&gt;Percentage identity: 53&lt;br&gt;Percentage coverage: 122&lt;br&gt;BLAST bit score: 522&lt;br&gt;E-value: 6.51e-182" locus_tag="J7337_002139" class="clusterblast-orf" id="dummy-6_h6_6_9"  />
</g>
<g id="a6_0010"  >
<polygon points="365,90 407,90 412,85 407,80 365,80 365,90 " style="fill:#d88015; stroke-width:1; stroke:black; " description="&lt;b&gt;J7337_002140&lt;/b&gt;&lt;br&gt;putative NRPS-like protein biosynthetic cluster&lt;br&gt;Location: 554456 - 558310&lt;br&gt;&lt;br&gt;&lt;b&gt;BlastP hit with input.path1.gene1232&lt;/b&gt;&lt;br&gt;Percentage identity: 75&lt;br&gt;Percentage coverage: 68&lt;br&gt;BLAST bit score: 1913&lt;br&gt;E-value: 0.0" locus_tag="J7337_002140" class="clusterblast-orf" id="dummy-6_h6_6_10"  />
</g>
<g id="a6_0011"  >
<polygon points="434,90 444,90 449,85 444,80 434,80 434,90 " style="fill:white; stroke-width:1; stroke:black; " description="&lt;b&gt;J7337_002141&lt;/b&gt;&lt;br&gt;hypothetical protein&lt;br&gt;Location: 560013 - 561257" locus_tag="J7337_002141" class="clusterblast-orf" id="dummy-6_h6_6_11"  />
</g>
<g id="a6_0012"  >
<polygon points="463,90 470,90 475,85 470,80 463,80 463,90 " style="fill:white; stroke-width:1; stroke:black; " description="&lt;b&gt;J7337_002142&lt;/b&gt;&lt;br&gt;hypothetical protein&lt;br&gt;Location: 562356 - 563342" locus_tag="J7337_002142" class="clusterblast-orf" id="dummy-6_h6_6_12"  />
</g>
<g id="a6_0013"  >
<polygon points="492,90 498,90 503,85 498,80 492,80 492,90 " style="fill:white; stroke-width:1; stroke:black; " description="&lt;b&gt;J7337_002143&lt;/b&gt;&lt;br&gt;hypothetical protein&lt;br&gt;Location: 564767 - 565589" locus_tag="J7337_002143" class="clusterblast-orf" id="dummy-6_h6_6_13"  />
</g>
<g id="a6_0014"  >
<polygon points="511,85 516,80 531,80 531,90 516,90 511,85 " style="fill:white; stroke-width:1; stroke:black; " description="&lt;b&gt;J7337_002144&lt;/b&gt;&lt;br&gt;autophagy protein 17&lt;br&gt;Location: 566266 - 567859" locus_tag="J7337_002144" class="clusterblast-orf" id="dummy-6_h6_6_14"  />
</g>
<g id="a6_0015"  >
<polygon points="540,85 545,80 577,80 577,90 545,90 540,85 " style="fill:white; stroke-width:1; stroke:black; " description="&lt;b&gt;J7337_002145&lt;/b&gt;&lt;br&gt;hypothetical protein&lt;br&gt;Location: 568638 - 571595" locus_tag="J7337_002145" class="clusterblast-orf" id="dummy-6_h6_6_15"  />
</g>
<g id="a6_0016"  >
<polygon points="606,85 611,80 617,80 617,90 611,90 606,85 " style="fill:white; stroke-width:1; stroke:black; " description="&lt;b&gt;J7337_002146&lt;/b&gt;&lt;br&gt;hypothetical protein&lt;br&gt;Location: 573952 - 574819" locus_tag="J7337_002146" class="clusterblast-orf" id="dummy-6_h6_6_16"  />
</g>
<g id="a6_0017"  >
<polygon points="657,85 662,80 666,80 666,90 662,90 657,85 " style="fill:white; stroke-width:1; stroke:black; " description="&lt;b&gt;J7337_002147&lt;/b&gt;&lt;br&gt;hypothetical protein&lt;br&gt;Location: 578031 - 578831" locus_tag="J7337_002147" class="clusterblast-orf" id="dummy-6_h6_6_17"  />
</g>
<g id="a6_0018"  >
<polygon points="670,90 690,90 695,85 690,80 670,80 670,90 " style="fill:white; stroke-width:1; stroke:black; " description="&lt;b&gt;J7337_002148&lt;/b&gt;&lt;br&gt;hypothetical protein&lt;br&gt;Location: 579137 - 581114" locus_tag="J7337_002148" class="clusterblast-orf" id="dummy-6_h6_6_18"  />
</g>
<g id="a6_0019"  >
<polygon points="695,85 700,80 713,80 713,90 700,90 695,85 " style="fill:white; stroke-width:1; stroke:black; " description="&lt;b&gt;J7337_002149&lt;/b&gt;&lt;br&gt;hypothetical protein&lt;br&gt;Location: 581124 - 582571" locus_tag="J7337_002149" class="clusterblast-orf" id="dummy-6_h6_6_19"  />
</g>
<g id="a6_0020"  >
<polygon points="727,90 735,90 740,85 735,80 727,80 727,90 " style="fill:white; stroke-width:1; stroke:black; " description="&lt;b&gt;J7337_002150&lt;/b&gt;&lt;br&gt;hypothetical protein&lt;br&gt;Location: 583695 - 584765" locus_tag="J7337_002150" class="clusterblast-orf" id="dummy-6_h6_6_20"  />
</g>
<g id="a6_0021"  >
<polygon points="741,85 746,80 749,80 749,90 746,90 741,85 " style="fill:white; stroke-width:1; stroke:black; " description="&lt;b&gt;J7337_002151&lt;/b&gt;&lt;br&gt;hypothetical protein&lt;br&gt;Location: 584878 - 585478" locus_tag="J7337_002151" class="clusterblast-orf" id="dummy-6_h6_6_21"  />
</g>
<g id="a6_0022"  >
<polygon points="751,85 756,80 758,80 758,90 756,90 751,85 " style="fill:white; stroke-width:1; stroke:black; " description="&lt;b&gt;J7337_002152&lt;/b&gt;&lt;br&gt;hypothetical protein&lt;br&gt;Location: 585639 - 586199" locus_tag="J7337_002152" class="clusterblast-orf" id="dummy-6_h6_6_22"  />
</g>
<g id="a6_0023"  >
<polygon points="769,90 775,90 780,85 775,80 769,80 769,90 " style="fill:white; stroke-width:1; stroke:black; " description="&lt;b&gt;J7337_002153&lt;/b&gt;&lt;br&gt;hypothetical protein&lt;br&gt;Location: 587131 - 587964" locus_tag="J7337_002153" class="clusterblast-orf" id="dummy-6_h6_6_23"  />
</g>
</svg>
