<svg xmlns="http://www.w3.org/2000/svg" xmlns:xlink="http://www.w3.org/1999/xlink" version="1.1" x="0" y="0" height="230" width="800" viewBox="0 0 800 230" preserveAspectRatio="none"  >
<g label="Query sequence" class="clusterblast-cluster"  >
<text x="5" y="20" class="clusterblast-acc"  >
Query sequence</text>
<line x1="10" y1="35" x2="778.0" y2="35" style="stroke-width:1; stroke:grey; "  />
<polygon points="132,40 166,40 171,35 166,30 132,30 132,40 " style="fill:#d81515; stroke-width:1; stroke:black; " description="&lt;b&gt;input.path1.gene974&lt;/b&gt;&lt;br&gt;input.path1.gene974&lt;br&gt;Location: 3576363 - 3580834" locus_tag="input.path1.gene974" class="clusterblast-orf" id="dummy-9_q0_0_all"  />
<polygon points="181,35 186,30 210,30 210,40 186,40 181,35 " style="fill:#33d815; stroke-width:1; stroke:black; " description="&lt;b&gt;input.path1.gene975&lt;/b&gt;&lt;br&gt;input.path1.gene975&lt;br&gt;Location: 3581902 - 3585176" locus_tag="input.path1.gene975" class="clusterblast-orf" id="dummy-9_q1_0_all"  />
<polygon points="234,40 261,40 266,35 261,30 234,30 234,40 " style="fill:#15abd8; stroke-width:1; stroke:black; " description="&lt;b&gt;input.path1.gene976&lt;/b&gt;&lt;br&gt;input.path1.gene976&lt;br&gt;Location: 3587897 - 3591563" locus_tag="input.path1.gene976" class="clusterblast-orf" id="dummy-9_q2_0_all"  />
<polygon points="305,40 321,40 326,35 321,30 305,30 305,40 " style="fill:#8d15d8; stroke-width:1; stroke:black; " description="&lt;b&gt;input.path1.gene977&lt;/b&gt;&lt;br&gt;input.path1.gene977&lt;br&gt;Location: 3595946 - 3598424" locus_tag="input.path1.gene977" class="clusterblast-orf" id="dummy-9_q3_0_all"  />
<polygon points="339,40 347,40 352,35 347,30 339,30 339,40 " style="fill:#d86f15; stroke-width:1; stroke:black; " description="&lt;b&gt;input.path1.gene978&lt;/b&gt;&lt;br&gt;input.path1.gene978&lt;br&gt;Location: 3599798 - 3601360" locus_tag="input.path1.gene978" class="clusterblast-orf" id="dummy-9_q4_0_all"  />
<polygon points="354,35 359,30 361,30 361,40 359,40 354,35 " style="fill:#15d851; stroke-width:1; stroke:black; " description="&lt;b&gt;input.path1.gene979&lt;/b&gt;&lt;br&gt;input.path1.gene979&lt;br&gt;Location: 3601525 - 3602379" locus_tag="input.path1.gene979" class="clusterblast-orf" id="dummy-9_q5_0_all"  />
<polygon points="373,40 378,40 383,35 378,30 373,30 373,40 " style="fill:#1551d8; stroke-width:1; stroke:black; " description="&lt;b&gt;input.path1.gene980&lt;/b&gt;&lt;br&gt;input.path1.gene980&lt;br&gt;Location: 3603752 - 3604823" locus_tag="input.path1.gene980" class="clusterblast-orf" id="dummy-9_q6_0_all"  />
<polygon points="419,40 432,40 437,35 432,30 419,30 419,40 " style="fill:#d815c9; stroke-width:1; stroke:black; " description="&lt;b&gt;input.path1.gene981&lt;/b&gt;&lt;br&gt;input.path1.gene981&lt;br&gt;Location: 3608963 - 3611019" locus_tag="input.path1.gene981" class="clusterblast-orf" id="dummy-9_q7_0_all"  />
<polygon points="453,40 464,40 469,35 464,30 453,30 453,40 " style="fill:#d8c915; stroke-width:1; stroke:black; " description="&lt;b&gt;input.path1.gene982&lt;/b&gt;&lt;br&gt;input.path1.gene982&lt;br&gt;Location: 3612728 - 3614603" locus_tag="input.path1.gene982" class="clusterblast-orf" id="dummy-9_q8_0_all"  />
<polygon points="481,40 490,40 495,35 490,30 481,30 481,40 " style="fill:#15d8ab; stroke-width:1; stroke:black; " description="&lt;b&gt;input.path1.gene983&lt;/b&gt;&lt;br&gt;input.path1.gene983&lt;br&gt;Location: 3615928 - 3617543" locus_tag="input.path1.gene983" class="clusterblast-orf" id="dummy-9_q9_0_all"  />
<polygon points="501,35 506,30 523,30 523,40 506,40 501,35 " style="fill:#3315d8; stroke-width:1; stroke:black; " description="&lt;b&gt;input.path1.gene984&lt;/b&gt;&lt;br&gt;input.path1.gene984&lt;br&gt;Location: 3618211 - 3620756" locus_tag="input.path1.gene984" class="clusterblast-orf" id="dummy-9_q10_0_all"  />
<polygon points="560,40 569,40 574,35 569,30 560,30 560,40 " style="fill:#d8156f; stroke-width:1; stroke:black; " description="&lt;b&gt;input.path1.gene985&lt;/b&gt;&lt;br&gt;input.path1.gene985&lt;br&gt;Location: 3624880 - 3626541" locus_tag="input.path1.gene985" class="clusterblast-orf" id="dummy-9_q11_0_all"  />
<polygon points="620,40 642,40 647,35 642,30 620,30 620,40 " style="fill:#8dd815; stroke-width:1; stroke:black; " description="&lt;b&gt;input.path1.gene986&lt;/b&gt;&lt;br&gt;input.path1.gene986&lt;br&gt;Location: 3631730 - 3634818" locus_tag="input.path1.gene986" class="clusterblast-orf" id="dummy-9_q12_0_all"  />
</g>
<g label="NC_018212" description="NC_018212 (827083-917413): Zymoseptoria tritici IPO323 chromosome 7, whole ge... (5% of genes show similarity), fungal-RiPP-like" class="clusterblast-cluster"  >
<text x="5" y="70" class="clusterblast-acc"  >
<a xlink:href="https://antismash-db.secondarymetabolites.org/area?record=NC_018212&amp;start=827083&amp;end=917413" target="_blank">NC_018212 (827083-917413)</a>: Zymoseptoria tritici IPO323 chromosome 7, whole ge... (5% of genes show similarity), fungal-RiPP-like</text>
<line x1="10" y1="85" x2="778.0" y2="85" style="stroke-width:1; stroke:grey; "  />
</g>
<g id="a9_000"  >
<polygon points="0,85 2,80 2,90 0,85 " style="fill:white; stroke-width:1; stroke:black; " description="&lt;b&gt;MYCGRDRAFT_81517&lt;/b&gt;&lt;br&gt;uncharacterized protein&lt;br&gt;Location: 828511 - 828799" locus_tag="MYCGRDRAFT_81517" class="clusterblast-orf" id="dummy-9_h9_4_0"  />
</g>
<g id="a9_001"  >
<polygon points="21,90 30,90 35,85 30,80 21,80 21,90 " style="fill:white; stroke-width:1; stroke:black; " description="&lt;b&gt;MYCGRDRAFT_44640&lt;/b&gt;&lt;br&gt;putative P450 monooxygenase&lt;br&gt;Location: 830922 - 832545" locus_tag="MYCGRDRAFT_44640" class="clusterblast-orf" id="dummy-9_h9_4_1"  />
</g>
<g id="a9_002"  >
<polygon points="41,85 46,80 56,80 56,90 46,90 41,85 " style="fill:white; stroke-width:1; stroke:black; " description="&lt;b&gt;MYCGRDRAFT_94391&lt;/b&gt;&lt;br&gt;uncharacterized protein&lt;br&gt;Location: 833214 - 834929" locus_tag="MYCGRDRAFT_94391" class="clusterblast-orf" id="dummy-9_h9_4_2"  />
</g>
<g id="a9_003"  >
<polygon points="65,85 70,80 79,80 79,90 70,90 65,85 " style="fill:white; stroke-width:1; stroke:black; " description="&lt;b&gt;MYCGRDRAFT_94392&lt;/b&gt;&lt;br&gt;uncharacterized protein&lt;br&gt;Location: 835972 - 837495" locus_tag="MYCGRDRAFT_94392" class="clusterblast-orf" id="dummy-9_h9_4_3"  />
</g>
<g id="a9_004"  >
<polygon points="87,90 91,90 96,85 91,80 87,80 87,90 " style="fill:white; stroke-width:1; stroke:black; " description="&lt;b&gt;MYCGRDRAFT_110144&lt;/b&gt;&lt;br&gt;uncharacterized protein&lt;br&gt;Location: 838484 - 839450" locus_tag="MYCGRDRAFT_110144" class="clusterblast-orf" id="dummy-9_h9_4_4"  />
</g>
<g id="a9_005"  >
<polygon points="100,85 105,80 113,80 113,90 105,90 100,85 " style="fill:white; stroke-width:1; stroke:black; " description="&lt;b&gt;MYCGRDRAFT_94394&lt;/b&gt;&lt;br&gt;uncharacterized protein&lt;br&gt;Location: 839929 - 841329" locus_tag="MYCGRDRAFT_94394" class="clusterblast-orf" id="dummy-9_h9_4_5"  />
</g>
<g id="a9_006"  >
<polygon points="121,90 121,90 126,85 121,80 121,80 121,90 " style="fill:white; stroke-width:1; stroke:black; " description="&lt;b&gt;MYCGRDRAFT_28858&lt;/b&gt;&lt;br&gt;uncharacterized protein&lt;br&gt;Location: 842263 - 842872" locus_tag="MYCGRDRAFT_28858" class="clusterblast-orf" id="dummy-9_h9_4_6"  />
</g>
<g id="a9_007"  >
<polygon points="139,90 141,90 146,85 141,80 139,80 139,90 " style="fill:white; stroke-width:1; stroke:black; " description="&lt;b&gt;MYCGRDRAFT_94396&lt;/b&gt;&lt;br&gt;uncharacterized protein&lt;br&gt;Location: 844310 - 845156" locus_tag="MYCGRDRAFT_94396" class="clusterblast-orf" id="dummy-9_h9_4_7"  />
</g>
<g id="a9_008"  >
<polygon points="153,85 156,80 156,90 153,85 " style="fill:white; stroke-width:1; stroke:black; " description="&lt;b&gt;MYCGRDRAFT_94397&lt;/b&gt;&lt;br&gt;uncharacterized protein&lt;br&gt;Location: 845909 - 846259" locus_tag="MYCGRDRAFT_94397" class="clusterblast-orf" id="dummy-9_h9_4_8"  />
</g>
<g id="a9_009"  >
<polygon points="175,85 180,80 190,80 190,90 180,90 175,85 " style="fill:white; stroke-width:1; stroke:black; " description="&lt;b&gt;MYCGRDRAFT_110145&lt;/b&gt;&lt;br&gt;uncharacterized protein&lt;br&gt;Location: 848438 - 850078" locus_tag="MYCGRDRAFT_110145" class="clusterblast-orf" id="dummy-9_h9_4_9"  />
</g>
<g id="a9_0010"  >
<polygon points="198,85 203,80 216,80 216,90 203,90 198,85 " style="fill:white; stroke-width:1; stroke:black; " description="&lt;b&gt;MYCGRDRAFT_94399&lt;/b&gt;&lt;br&gt;uncharacterized protein&lt;br&gt;Location: 851063 - 853112" locus_tag="MYCGRDRAFT_94399" class="clusterblast-orf" id="dummy-9_h9_4_10"  />
</g>
<g id="a9_0011"  >
<polygon points="231,85 236,80 262,80 262,90 236,90 231,85 " style="fill:white; stroke-width:1; stroke:black; " description="&lt;b&gt;MYCGRDRAFT_110147&lt;/b&gt;&lt;br&gt;uncharacterized protein&lt;br&gt;Location: 854779 - 858337" locus_tag="MYCGRDRAFT_110147" class="clusterblast-orf" id="dummy-9_h9_4_11"  />
</g>
<g id="a9_0012"  >
<polygon points="269,85 274,80 276,80 276,90 274,90 269,85 " style="fill:white; stroke-width:1; stroke:black; " description="&lt;b&gt;MYCGRDRAFT_94401&lt;/b&gt;&lt;br&gt;uncharacterized protein&lt;br&gt;Location: 859105 - 859833" locus_tag="MYCGRDRAFT_94401" class="clusterblast-orf" id="dummy-9_h9_4_12"  />
</g>
<g id="a9_0013"  >
<polygon points="296,85 299,80 299,90 296,85 " style="fill:white; stroke-width:1; stroke:black; " description="&lt;b&gt;MYCGRDRAFT_30914&lt;/b&gt;&lt;br&gt;uncharacterized protein&lt;br&gt;Location: 862083 - 862473" locus_tag="MYCGRDRAFT_30914" class="clusterblast-orf" id="dummy-9_h9_4_13"  />
</g>
<g id="a9_0014"  >
<polygon points="301,90 306,90 311,85 306,80 301,80 301,90 " style="fill:white; stroke-width:1; stroke:black; " description="&lt;b&gt;MYCGRDRAFT_110148&lt;/b&gt;&lt;br&gt;uncharacterized protein&lt;br&gt;Location: 862745 - 863851" locus_tag="MYCGRDRAFT_110148" class="clusterblast-orf" id="dummy-9_h9_4_14"  />
</g>
<g id="a9_0015"  >
<polygon points="314,85 319,80 326,80 326,90 319,90 314,85 " style="fill:white; stroke-width:1; stroke:black; " description="&lt;b&gt;MYCGRDRAFT_45149&lt;/b&gt;&lt;br&gt;uncharacterized protein&lt;br&gt;Location: 864141 - 865541" locus_tag="MYCGRDRAFT_45149" class="clusterblast-orf" id="dummy-9_h9_4_15"  />
</g>
<g id="a9_0016"  >
<polygon points="331,85 336,80 347,80 347,90 336,90 331,85 " style="fill:white; stroke-width:1; stroke:black; " description="&lt;b&gt;MYCGRDRAFT_44587&lt;/b&gt;&lt;br&gt;uncharacterized protein&lt;br&gt;Location: 866062 - 867960" locus_tag="MYCGRDRAFT_44587" class="clusterblast-orf" id="dummy-9_h9_4_16"  />
</g>
<g id="a9_0017"  >
<polygon points="357,90 369,90 374,85 369,80 357,80 357,90 " style="fill:white; stroke-width:1; stroke:black; " description="&lt;b&gt;MYCGRDRAFT_45358&lt;/b&gt;&lt;br&gt;putative P450 monooxygenase&lt;br&gt;Location: 869031 - 870993" locus_tag="MYCGRDRAFT_45358" class="clusterblast-orf" id="dummy-9_h9_4_17"  />
</g>
<g id="a9_0018"  >
<polygon points="384,85 387,80 387,90 384,85 " style="fill:#1551d8; stroke-width:1; stroke:black; " description="&lt;b&gt;MYCGRDRAFT_28893&lt;/b&gt;&lt;br&gt;uncharacterized protein&lt;br&gt;Location: 872084 - 872413&lt;br&gt;&lt;br&gt;&lt;b&gt;BlastP hit with input.path1.gene980&lt;/b&gt;&lt;br&gt;Percentage identity: 31&lt;br&gt;Percentage coverage: 39&lt;br&gt;BLAST bit score: 57&lt;br&gt;E-value: 2.14e-08" locus_tag="MYCGRDRAFT_28893" class="clusterblast-orf" id="dummy-9_h9_4_18"  />
</g>
<g id="a9_0019"  >
<polygon points="408,90 410,85 408,80 408,90 " style="fill:white; stroke-width:1; stroke:black; " description="&lt;b&gt;MYCGRDRAFT_105151&lt;/b&gt;&lt;br&gt;uncharacterized protein&lt;br&gt;Location: 874874 - 875116" locus_tag="MYCGRDRAFT_105151" class="clusterblast-orf" id="dummy-9_h9_4_19"  />
</g>
<g id="a9_0020"  >
<polygon points="411,90 422,90 427,85 422,80 411,80 411,90 " style="fill:white; stroke-width:1; stroke:black; " description="&lt;b&gt;MYCGRDRAFT_73897&lt;/b&gt;&lt;br&gt;uncharacterized protein&lt;br&gt;Location: 875202 - 876962" locus_tag="MYCGRDRAFT_73897" class="clusterblast-orf" id="dummy-9_h9_4_20"  />
</g>
<g id="a9_0021"  >
<polygon points="433,85 437,80 437,90 433,85 " style="fill:white; stroke-width:1; stroke:black; " description="&lt;b&gt;MYCGRDRAFT_94408&lt;/b&gt;&lt;br&gt;uncharacterized protein&lt;br&gt;Location: 877727 - 878089" locus_tag="MYCGRDRAFT_94408" class="clusterblast-orf" id="dummy-9_h9_4_21"  />
</g>
<g id="a9_0022"  >
<polygon points="454,90 457,85 454,80 454,90 " style="fill:white; stroke-width:1; stroke:black; " description="&lt;b&gt;MYCGRDRAFT_29244&lt;/b&gt;&lt;br&gt;uncharacterized protein&lt;br&gt;Location: 880088 - 880433" locus_tag="MYCGRDRAFT_29244" class="clusterblast-orf" id="dummy-9_h9_4_22"  />
</g>
<g id="a9_0023"  >
<polygon points="462,85 467,80 467,80 467,90 467,90 462,85 " style="fill:white; stroke-width:1; stroke:black; " description="&lt;b&gt;MYCGRDRAFT_28493&lt;/b&gt;&lt;br&gt;uncharacterized protein&lt;br&gt;Location: 881019 - 881493" locus_tag="MYCGRDRAFT_28493" class="clusterblast-orf" id="dummy-9_h9_4_23"  />
</g>
<g id="a9_0024"  >
<polygon points="473,90 473,90 478,85 473,80 473,80 473,90 " style="fill:white; stroke-width:1; stroke:black; " description="&lt;b&gt;MYCGRDRAFT_105154&lt;/b&gt;&lt;br&gt;uncharacterized protein&lt;br&gt;Location: 882263 - 882784" locus_tag="MYCGRDRAFT_105154" class="clusterblast-orf" id="dummy-9_h9_4_24"  />
</g>
<g id="a9_0025"  >
<polygon points="500,90 505,90 510,85 505,80 500,80 500,90 " style="fill:white; stroke-width:1; stroke:black; " description="&lt;b&gt;MYCGRDRAFT_60749&lt;/b&gt;&lt;br&gt;uncharacterized protein&lt;br&gt;Location: 885248 - 886463" locus_tag="MYCGRDRAFT_60749" class="clusterblast-orf" id="dummy-9_h9_4_25"  />
</g>
<g id="a9_0026"  >
<polygon points="513,85 518,80 520,80 520,90 518,90 513,85 " style="fill:white; stroke-width:1; stroke:black; " description="&lt;b&gt;MYCGRDRAFT_73903&lt;/b&gt;&lt;br&gt;uncharacterized protein&lt;br&gt;Location: 886746 - 887555" locus_tag="MYCGRDRAFT_73903" class="clusterblast-orf" id="dummy-9_h9_4_26"  />
</g>
<g id="a9_0027"  >
<polygon points="543,90 552,90 557,85 552,80 543,80 543,90 " style="fill:#d815c9; stroke-width:1; stroke:black; " description="&lt;b&gt;MYCGRDRAFT_100728&lt;/b&gt;&lt;br&gt;uncharacterized protein&lt;br&gt;Location: 890127 - 891758&lt;br&gt;&lt;br&gt;&lt;b&gt;BlastP hit with input.path1.gene981&lt;/b&gt;&lt;br&gt;Percentage identity: 86&lt;br&gt;Percentage coverage: 58&lt;br&gt;BLAST bit score: 667&lt;br&gt;E-value: 6.44e-236" locus_tag="MYCGRDRAFT_100728" class="clusterblast-orf" id="dummy-9_h9_4_27"  />
</g>
<g id="a9_0028"  >
<polygon points="569,90 585,90 590,85 585,80 569,80 569,90 " style="fill:white; stroke-width:1; stroke:black; " description="&lt;b&gt;MYCGRDRAFT_44713&lt;/b&gt;&lt;br&gt;uncharacterized protein&lt;br&gt;Location: 893044 - 895494" locus_tag="MYCGRDRAFT_44713" class="clusterblast-orf" id="dummy-9_h9_4_28"  />
</g>
<g id="a9_0029"  >
<polygon points="595,90 598,90 603,85 598,80 595,80 595,90 " style="fill:white; stroke-width:1; stroke:black; " description="&lt;b&gt;MYCGRDRAFT_94413&lt;/b&gt;&lt;br&gt;uncharacterized protein&lt;br&gt;Location: 896017 - 897013" locus_tag="MYCGRDRAFT_94413" class="clusterblast-orf" id="dummy-9_h9_4_29"  />
</g>
<g id="a9_0030"  >
<polygon points="619,85 624,80 643,80 643,90 624,90 619,85 " style="fill:white; stroke-width:1; stroke:black; " description="&lt;b&gt;MYCGRDRAFT_110152&lt;/b&gt;&lt;br&gt;uncharacterized protein&lt;br&gt;Location: 898780 - 901493" locus_tag="MYCGRDRAFT_110152" class="clusterblast-orf" id="dummy-9_h9_4_30"  />
</g>
<g id="a9_0031"  >
<polygon points="677,85 682,80 705,80 705,90 682,90 677,85 " style="fill:white; stroke-width:1; stroke:black; " description="&lt;b&gt;MYCGRDRAFT_44761&lt;/b&gt;&lt;br&gt;uncharacterized protein&lt;br&gt;Location: 905343 - 908492" locus_tag="MYCGRDRAFT_44761" class="clusterblast-orf" id="dummy-9_h9_4_31"  />
</g>
<g id="a9_0032"  >
<polygon points="713,90 724,90 729,85 724,80 713,80 713,90 " style="fill:white; stroke-width:1; stroke:black; " description="&lt;b&gt;MYCGRDRAFT_73913&lt;/b&gt;&lt;br&gt;uncharacterized protein&lt;br&gt;Location: 909443 - 911197" locus_tag="MYCGRDRAFT_73913" class="clusterblast-orf" id="dummy-9_h9_4_32"  />
</g>
<g id="a9_0033"  >
<polygon points="761,85 766,80 780,80 780,90 766,90 761,85 " style="fill:white; stroke-width:1; stroke:black; " description="&lt;b&gt;MYCGRDRAFT_73914&lt;/b&gt;&lt;br&gt;putative P450 monooxygenase&lt;br&gt;Location: 914855 - 916974" locus_tag="MYCGRDRAFT_73914" class="clusterblast-orf" id="dummy-9_h9_4_33"  />
</g>
</svg>
