<svg xmlns="http://www.w3.org/2000/svg" xmlns:xlink="http://www.w3.org/1999/xlink" version="1.1" x="0" y="0" height="230" width="800" viewBox="0 0 800 230" preserveAspectRatio="none"  >
<g label="Query sequence" class="clusterblast-cluster"  >
<text x="5" y="20" class="clusterblast-acc"  >
Query sequence</text>
<line x1="10" y1="35" x2="778.0" y2="35" style="stroke-width:1; stroke:grey; "  />
<polygon points="83,35 88,30 94,30 94,40 88,40 83,35 " style="fill:white; stroke-width:1; stroke:black; " description="&lt;b&gt;input.path1.gene1254&lt;/b&gt;&lt;br&gt;input.path1.gene1254&lt;br&gt;Location: 4532892 - 4533701" locus_tag="input.path1.gene1254" class="clusterblast-orf" id="dummy-7_q0_0_all"  />
<polygon points="130,40 145,40 150,35 145,30 130,30 130,40 " style="fill:white; stroke-width:1; stroke:black; " description="&lt;b&gt;input.path1.gene1255&lt;/b&gt;&lt;br&gt;input.path1.gene1255&lt;br&gt;Location: 4536223 - 4537645" locus_tag="input.path1.gene1255" class="clusterblast-orf" id="dummy-7_q1_0_all"  />
<polygon points="154,35 159,30 163,30 163,40 159,40 154,35 " style="fill:white; stroke-width:1; stroke:black; " description="&lt;b&gt;input.path1.gene1256&lt;/b&gt;&lt;br&gt;input.path1.gene1256&lt;br&gt;Location: 4537902 - 4538576" locus_tag="input.path1.gene1256" class="clusterblast-orf" id="dummy-7_q2_0_all"  />
<polygon points="168,40 173,40 178,35 173,30 168,30 168,40 " style="fill:white; stroke-width:1; stroke:black; " description="&lt;b&gt;input.path1.gene1257&lt;/b&gt;&lt;br&gt;input.path1.gene1257&lt;br&gt;Location: 4538903 - 4539639" locus_tag="input.path1.gene1257" class="clusterblast-orf" id="dummy-7_q3_0_all"  />
<polygon points="180,35 185,30 197,30 197,40 185,40 180,35 " style="fill:white; stroke-width:1; stroke:black; " description="&lt;b&gt;input.path1.gene1258&lt;/b&gt;&lt;br&gt;input.path1.gene1258&lt;br&gt;Location: 4539769 - 4540943" locus_tag="input.path1.gene1258" class="clusterblast-orf" id="dummy-7_q4_0_all"  />
<polygon points="202,40 210,40 215,35 210,30 202,30 202,40 " style="fill:white; stroke-width:1; stroke:black; " description="&lt;b&gt;input.path1.gene1259&lt;/b&gt;&lt;br&gt;input.path1.gene1259&lt;br&gt;Location: 4541281 - 4542204" locus_tag="input.path1.gene1259" class="clusterblast-orf" id="dummy-7_q5_0_all"  />
<polygon points="221,40 248,40 253,35 248,30 221,30 221,40 " style="fill:white; stroke-width:1; stroke:black; " description="&lt;b&gt;input.path1.gene1260&lt;/b&gt;&lt;br&gt;input.path1.gene1260&lt;br&gt;Location: 4542643 - 4544933" locus_tag="input.path1.gene1260" class="clusterblast-orf" id="dummy-7_q6_0_all"  />
<polygon points="271,35 276,30 286,30 286,40 276,40 271,35 " style="fill:white; stroke-width:1; stroke:black; " description="&lt;b&gt;input.path1.gene1261&lt;/b&gt;&lt;br&gt;input.path1.gene1261&lt;br&gt;Location: 4546184 - 4547245" locus_tag="input.path1.gene1261" class="clusterblast-orf" id="dummy-7_q7_0_all"  />
<polygon points="302,40 309,40 314,35 309,30 302,30 302,40 " style="fill:white; stroke-width:1; stroke:black; " description="&lt;b&gt;input.path1.gene1262&lt;/b&gt;&lt;br&gt;input.path1.gene1262&lt;br&gt;Location: 4548347 - 4549240" locus_tag="input.path1.gene1262" class="clusterblast-orf" id="dummy-7_q8_0_all"  />
<polygon points="335,35 340,30 415,30 415,40 340,40 335,35 " style="fill:#d81515; stroke-width:1; stroke:black; " description="&lt;b&gt;input.path1.gene1263&lt;/b&gt;&lt;br&gt;input.path1.gene1263&lt;br&gt;Location: 4550688 - 4556376" locus_tag="input.path1.gene1263" class="clusterblast-orf" id="dummy-7_q9_0_all"  />
<polygon points="417,40 423,40 428,35 423,30 417,30 417,40 " style="fill:white; stroke-width:1; stroke:black; " description="&lt;b&gt;input.path1.gene1264&lt;/b&gt;&lt;br&gt;input.path1.gene1264&lt;br&gt;Location: 4556461 - 4557235" locus_tag="input.path1.gene1264" class="clusterblast-orf" id="dummy-7_q10_0_all"  />
<polygon points="444,40 449,40 454,35 449,30 444,30 444,40 " style="fill:#77d815; stroke-width:1; stroke:black; " description="&lt;b&gt;input.path1.gene1265&lt;/b&gt;&lt;br&gt;input.path1.gene1265&lt;br&gt;Location: 4558367 - 4559084" locus_tag="input.path1.gene1265" class="clusterblast-orf" id="dummy-7_q11_0_all"  />
<polygon points="477,40 499,40 504,35 499,30 477,30 477,40 " style="fill:#15d8d8; stroke-width:1; stroke:black; " description="&lt;b&gt;input.path1.gene1266&lt;/b&gt;&lt;br&gt;input.path1.gene1266&lt;br&gt;Location: 4560739 - 4562662" locus_tag="input.path1.gene1266" class="clusterblast-orf" id="dummy-7_q12_0_all"  />
<polygon points="523,35 528,30 541,30 541,40 528,40 523,35 " style="fill:white; stroke-width:1; stroke:black; " description="&lt;b&gt;input.path1.gene1267&lt;/b&gt;&lt;br&gt;input.path1.gene1267&lt;br&gt;Location: 4563970 - 4565229" locus_tag="input.path1.gene1267" class="clusterblast-orf" id="dummy-7_q13_0_all"  />
<polygon points="547,40 600,40 605,35 600,30 547,30 547,40 " style="fill:#7715d8; stroke-width:1; stroke:black; " description="&lt;b&gt;input.path1.gene1268&lt;/b&gt;&lt;br&gt;input.path1.gene1268&lt;br&gt;Location: 4565684 - 4569746" locus_tag="input.path1.gene1268" class="clusterblast-orf" id="dummy-7_q14_0_all"  />
<polygon points="637,40 666,40 671,35 666,30 637,30 637,40 " style="fill:white; stroke-width:1; stroke:black; " description="&lt;b&gt;input.path1.gene1269&lt;/b&gt;&lt;br&gt;input.path1.gene1269&lt;br&gt;Location: 4572055 - 4574445" locus_tag="input.path1.gene1269" class="clusterblast-orf" id="dummy-7_q15_0_all"  />
<polygon points="679,35 684,30 696,30 696,40 684,40 679,35 " style="fill:white; stroke-width:1; stroke:black; " description="&lt;b&gt;input.path1.gene1270&lt;/b&gt;&lt;br&gt;input.path1.gene1270&lt;br&gt;Location: 4574991 - 4576225" locus_tag="input.path1.gene1270" class="clusterblast-orf" id="dummy-7_q16_0_all"  />
</g>
<g label="NC_054853" description="NC_054853 (2254582-2320833): Aspergillus luchuensis IFO 4308 DNA, chromosome ... (20% of genes show similarity), NRPS" class="clusterblast-cluster"  >
<text x="5" y="70" class="clusterblast-acc"  >
<a xlink:href="https://antismash-db.secondarymetabolites.org/area?record=NC_054853&amp;start=2254582&amp;end=2320833" target="_blank">NC_054853 (2254582-2320833)</a>: Aspergillus luchuensis IFO 4308 DNA, chromosome ... (20% of genes show similarity), NRPS</text>
<line x1="10" y1="85" x2="778.0" y2="85" style="stroke-width:1; stroke:grey; "  />
</g>
<g id="a7_000"  >
<polygon points="0,85 5,80 35,80 35,90 5,90 0,85 " style="fill:white; stroke-width:1; stroke:black; " description="&lt;b&gt;AKAW2_50741A&lt;/b&gt;&lt;br&gt;uncharacterized protein&lt;br&gt;Location: 2262829 - 2265314" locus_tag="AKAW2_50741A" class="clusterblast-orf" id="dummy-7_h7_6_0"  />
</g>
<g id="a7_001"  >
<polygon points="58,90 70,90 75,85 70,80 58,80 58,90 " style="fill:white; stroke-width:1; stroke:black; " description="&lt;b&gt;AKAW2_50742S&lt;/b&gt;&lt;br&gt;carnitine transporter&lt;br&gt;Location: 2266978 - 2268191" locus_tag="AKAW2_50742S" class="clusterblast-orf" id="dummy-7_h7_6_1"  />
</g>
<g id="a7_002"  >
<polygon points="82,85 87,80 107,80 107,90 87,90 82,85 " style="fill:white; stroke-width:1; stroke:black; " description="&lt;b&gt;AKAW2_50743A&lt;/b&gt;&lt;br&gt;D-arabinono-1,4-lactone oxidase&lt;br&gt;Location: 2268685 - 2270421" locus_tag="AKAW2_50743A" class="clusterblast-orf" id="dummy-7_h7_6_2"  />
</g>
<g id="a7_003"  >
<polygon points="118,85 123,80 149,80 149,90 123,90 118,85 " style="fill:white; stroke-width:1; stroke:black; " description="&lt;b&gt;AKAW2_50744A&lt;/b&gt;&lt;br&gt;uncharacterized protein&lt;br&gt;Location: 2271218 - 2273413" locus_tag="AKAW2_50744A" class="clusterblast-orf" id="dummy-7_h7_6_3"  />
</g>
<g id="a7_004"  >
<polygon points="169,90 189,90 194,85 189,80 169,80 169,90 " style="fill:white; stroke-width:1; stroke:black; " description="&lt;b&gt;AKAW2_50745S&lt;/b&gt;&lt;br&gt;uncharacterized protein&lt;br&gt;Location: 2274770 - 2276548" locus_tag="AKAW2_50745S" class="clusterblast-orf" id="dummy-7_h7_6_4"  />
</g>
<g id="a7_005"  >
<polygon points="204,90 211,90 216,85 211,80 204,80 204,90 " style="fill:white; stroke-width:1; stroke:black; " description="&lt;b&gt;AKAW2_50746S&lt;/b&gt;&lt;br&gt;uncharacterized protein&lt;br&gt;Location: 2277260 - 2278148" locus_tag="AKAW2_50746S" class="clusterblast-orf" id="dummy-7_h7_6_5"  />
</g>
<g id="a7_006"  >
<polygon points="230,85 235,80 245,80 245,90 235,90 230,85 " style="fill:white; stroke-width:1; stroke:black; " description="&lt;b&gt;AKAW2_50747A&lt;/b&gt;&lt;br&gt;uncharacterized protein&lt;br&gt;Location: 2279088 - 2280191" locus_tag="AKAW2_50747A" class="clusterblast-orf" id="dummy-7_h7_6_6"  />
</g>
<g id="a7_007"  >
<polygon points="251,90 267,90 272,85 267,80 251,80 251,90 " style="fill:white; stroke-width:1; stroke:black; " description="&lt;b&gt;AKAW2_50748S&lt;/b&gt;&lt;br&gt;uncharacterized protein&lt;br&gt;Location: 2280601 - 2282067" locus_tag="AKAW2_50748S" class="clusterblast-orf" id="dummy-7_h7_6_7"  />
</g>
<g id="a7_008"  >
<polygon points="282,90 297,90 302,85 297,80 282,80 282,90 " style="fill:white; stroke-width:1; stroke:black; " description="&lt;b&gt;AKAW2_50749S&lt;/b&gt;&lt;br&gt;uncharacterized protein&lt;br&gt;Location: 2282813 - 2284192" locus_tag="AKAW2_50749S" class="clusterblast-orf" id="dummy-7_h7_6_8"  />
</g>
<g id="a7_009"  >
<polygon points="307,85 312,80 396,80 396,90 312,90 307,85 " style="fill:#d81515; stroke-width:1; stroke:black; " description="&lt;b&gt;AKAW2_50750A&lt;/b&gt;&lt;br&gt;non-ribosomal peptide synthetase&lt;br&gt;Location: 2284583 - 2290833&lt;br&gt;&lt;br&gt;&lt;b&gt;BlastP hit with input.path1.gene1263&lt;/b&gt;&lt;br&gt;Percentage identity: 50&lt;br&gt;Percentage coverage: 107&lt;br&gt;BLAST bit score: 1711&lt;br&gt;E-value: 0.0" locus_tag="AKAW2_50750A" class="clusterblast-orf" id="dummy-7_h7_6_9"  />
</g>
<g id="a7_0010"  >
<polygon points="428,90 443,90 448,85 443,80 428,80 428,90 " style="fill:#77d815; stroke-width:1; stroke:black; " description="&lt;b&gt;AKAW2_50751S&lt;/b&gt;&lt;br&gt;uncharacterized protein&lt;br&gt;Location: 2293087 - 2294526&lt;br&gt;&lt;br&gt;&lt;b&gt;BlastP hit with input.path1.gene1265&lt;/b&gt;&lt;br&gt;Percentage identity: 55&lt;br&gt;Percentage coverage: 100&lt;br&gt;BLAST bit score: 255&lt;br&gt;E-value: 1.78e-81" locus_tag="AKAW2_50751S" class="clusterblast-orf" id="dummy-7_h7_6_10"  />
</g>
<g id="a7_0011"  >
<polygon points="457,85 462,80 476,80 476,90 462,90 457,85 " style="fill:white; stroke-width:1; stroke:black; " description="&lt;b&gt;AKAW2_50752A&lt;/b&gt;&lt;br&gt;uncharacterized protein&lt;br&gt;Location: 2295118 - 2296521" locus_tag="AKAW2_50752A" class="clusterblast-orf" id="dummy-7_h7_6_11"  />
</g>
<g id="a7_0012"  >
<polygon points="482,90 489,90 494,85 489,80 482,80 482,90 " style="fill:white; stroke-width:1; stroke:black; " description="&lt;b&gt;AKAW2_50753S&lt;/b&gt;&lt;br&gt;putative secondary metabolism biosynthetic enzyme&lt;br&gt;Location: 2296898 - 2297787" locus_tag="AKAW2_50753S" class="clusterblast-orf" id="dummy-7_h7_6_12"  />
</g>
<g id="a7_0013"  >
<polygon points="512,90 536,90 541,85 536,80 512,80 512,90 " style="fill:#15d8d8; stroke-width:1; stroke:black; " description="&lt;b&gt;AKAW2_50754S&lt;/b&gt;&lt;br&gt;uncharacterized protein&lt;br&gt;Location: 2299059 - 2301053&lt;br&gt;&lt;br&gt;&lt;b&gt;BlastP hit with input.path1.gene1266&lt;/b&gt;&lt;br&gt;Percentage identity: 50&lt;br&gt;Percentage coverage: 102&lt;br&gt;BLAST bit score: 551&lt;br&gt;E-value: 9.86e-190" locus_tag="AKAW2_50754S" class="clusterblast-orf" id="dummy-7_h7_6_13"  />
</g>
<g id="a7_0014"  >
<polygon points="558,85 563,80 569,80 569,90 563,90 558,85 " style="fill:white; stroke-width:1; stroke:black; " description="&lt;b&gt;AKAW2_50755A&lt;/b&gt;&lt;br&gt;uncharacterized protein&lt;br&gt;Location: 2302310 - 2303076" locus_tag="AKAW2_50755A" class="clusterblast-orf" id="dummy-7_h7_6_14"  />
</g>
<g id="a7_0015"  >
<polygon points="573,85 578,80 584,80 584,90 578,90 573,85 " style="fill:white; stroke-width:1; stroke:black; " description="&lt;b&gt;AKAW2_50756A&lt;/b&gt;&lt;br&gt;uncharacterized protein&lt;br&gt;Location: 2303361 - 2304104" locus_tag="AKAW2_50756A" class="clusterblast-orf" id="dummy-7_h7_6_15"  />
</g>
<g id="a7_0016"  >
<polygon points="591,90 595,90 600,85 595,80 591,80 591,90 " style="fill:white; stroke-width:1; stroke:black; " description="&lt;b&gt;AKAW2_50757S&lt;/b&gt;&lt;br&gt;uncharacterized protein&lt;br&gt;Location: 2304639 - 2305214" locus_tag="AKAW2_50757S" class="clusterblast-orf" id="dummy-7_h7_6_16"  />
</g>
<g id="a7_0017"  >
<polygon points="613,85 618,80 637,80 637,90 618,90 613,85 " style="fill:white; stroke-width:1; stroke:black; " description="&lt;b&gt;AKAW2_50758A&lt;/b&gt;&lt;br&gt;uncharacterized protein&lt;br&gt;Location: 2306174 - 2307894" locus_tag="AKAW2_50758A" class="clusterblast-orf" id="dummy-7_h7_6_17"  />
</g>
<g id="a7_0018"  >
<polygon points="650,90 674,90 679,85 674,80 650,80 650,90 " style="fill:white; stroke-width:1; stroke:black; " description="&lt;b&gt;AKAW2_50759S&lt;/b&gt;&lt;br&gt;uncharacterized protein&lt;br&gt;Location: 2308796 - 2310832" locus_tag="AKAW2_50759S" class="clusterblast-orf" id="dummy-7_h7_6_18"  />
</g>
<g id="a7_0019"  >
<polygon points="723,85 728,80 780,80 780,90 728,90 723,85 " style="fill:#7715d8; stroke-width:1; stroke:black; " description="&lt;b&gt;AKAW2_50760A&lt;/b&gt;&lt;br&gt;uncharacterized protein&lt;br&gt;Location: 2313926 - 2317925&lt;br&gt;&lt;br&gt;&lt;b&gt;BlastP hit with input.path1.gene1268&lt;/b&gt;&lt;br&gt;Percentage identity: 51&lt;br&gt;Percentage coverage: 103&lt;br&gt;BLAST bit score: 1174&lt;br&gt;E-value: 0.0" locus_tag="AKAW2_50760A" class="clusterblast-orf" id="dummy-7_h7_6_19"  />
</g>
</svg>
