<svg xmlns="http://www.w3.org/2000/svg" xmlns:xlink="http://www.w3.org/1999/xlink" version="1.1" x="0" y="0" height="230" width="800" viewBox="0 0 800 230" preserveAspectRatio="none"  >
<g label="Query sequence" class="clusterblast-cluster"  >
<text x="5" y="20" class="clusterblast-acc"  >
Query sequence</text>
<line x1="10" y1="35" x2="778.0" y2="35" style="stroke-width:1; stroke:grey; "  />
<polygon points="0,40 5,40 10,35 5,30 0,30 0,40 " style="fill:white; stroke-width:1; stroke:black; " description="&lt;b&gt;input.path1.gene41&lt;/b&gt;&lt;br&gt;input.path1.gene41&lt;br&gt;Location: 148128 - 149293" locus_tag="input.path1.gene41" class="clusterblast-orf" id="dummy-1_q0_0_all"  />
<polygon points="10,35 15,30 20,30 20,40 15,40 10,35 " style="fill:white; stroke-width:1; stroke:black; " description="&lt;b&gt;input.path1.gene42&lt;/b&gt;&lt;br&gt;input.path1.gene42&lt;br&gt;Location: 149296 - 150524" locus_tag="input.path1.gene42" class="clusterblast-orf" id="dummy-1_q1_0_all"  />
<polygon points="68,40 81,40 86,35 81,30 68,30 68,40 " style="fill:white; stroke-width:1; stroke:black; " description="&lt;b&gt;input.path1.gene43&lt;/b&gt;&lt;br&gt;input.path1.gene43&lt;br&gt;Location: 155915 - 158005" locus_tag="input.path1.gene43" class="clusterblast-orf" id="dummy-1_q2_0_all"  />
<polygon points="89,35 94,30 107,30 107,40 94,40 89,35 " style="fill:white; stroke-width:1; stroke:black; " description="&lt;b&gt;input.path1.gene44&lt;/b&gt;&lt;br&gt;input.path1.gene44&lt;br&gt;Location: 158363 - 160461" locus_tag="input.path1.gene44" class="clusterblast-orf" id="dummy-1_q3_0_all"  />
<polygon points="115,40 124,40 129,35 124,30 115,30 115,40 " style="fill:white; stroke-width:1; stroke:black; " description="&lt;b&gt;input.path1.gene45&lt;/b&gt;&lt;br&gt;input.path1.gene45&lt;br&gt;Location: 161335 - 162919" locus_tag="input.path1.gene45" class="clusterblast-orf" id="dummy-1_q4_0_all"  />
<polygon points="130,35 135,30 138,30 138,40 135,40 130,35 " style="fill:white; stroke-width:1; stroke:black; " description="&lt;b&gt;input.path1.gene46&lt;/b&gt;&lt;br&gt;input.path1.gene46&lt;br&gt;Location: 163062 - 163976" locus_tag="input.path1.gene46" class="clusterblast-orf" id="dummy-1_q5_0_all"  />
<polygon points="146,35 151,30 158,30 158,40 151,40 146,35 " style="fill:white; stroke-width:1; stroke:black; " description="&lt;b&gt;input.path1.gene47&lt;/b&gt;&lt;br&gt;input.path1.gene47&lt;br&gt;Location: 164867 - 166334" locus_tag="input.path1.gene47" class="clusterblast-orf" id="dummy-1_q6_0_all"  />
<polygon points="162,40 224,40 229,35 224,30 162,30 162,40 " style="fill:white; stroke-width:1; stroke:black; " description="&lt;b&gt;input.path1.gene48&lt;/b&gt;&lt;br&gt;input.path1.gene48&lt;br&gt;Location: 166692 - 174370" locus_tag="input.path1.gene48" class="clusterblast-orf" id="dummy-1_q7_0_all"  />
<polygon points="254,35 259,30 309,30 309,40 259,40 254,35 " style="fill:white; stroke-width:1; stroke:black; " description="&lt;b&gt;input.path1.gene49&lt;/b&gt;&lt;br&gt;input.path1.gene49&lt;br&gt;Location: 177273 - 183569" locus_tag="input.path1.gene49" class="clusterblast-orf" id="dummy-1_q8_0_all"  />
<polygon points="381,40 383,40 388,35 383,30 381,30 381,40 " style="fill:white; stroke-width:1; stroke:black; " description="&lt;b&gt;input.path1.gene50&lt;/b&gt;&lt;br&gt;input.path1.gene50&lt;br&gt;Location: 191882 - 192609" locus_tag="input.path1.gene50" class="clusterblast-orf" id="dummy-1_q9_0_all"  />
<polygon points="389,35 394,30 450,30 450,40 394,40 389,35 " style="fill:white; stroke-width:1; stroke:black; " description="&lt;b&gt;input.path1.gene51&lt;/b&gt;&lt;br&gt;input.path1.gene51&lt;br&gt;Location: 192693 - 199744" locus_tag="input.path1.gene51" class="clusterblast-orf" id="dummy-1_q10_0_all"  />
<polygon points="454,40 475,40 480,35 475,30 454,30 454,40 " style="fill:white; stroke-width:1; stroke:black; " description="&lt;b&gt;input.path1.gene52&lt;/b&gt;&lt;br&gt;input.path1.gene52&lt;br&gt;Location: 200140 - 203166" locus_tag="input.path1.gene52" class="clusterblast-orf" id="dummy-1_q11_0_all"  />
<polygon points="499,40 502,40 507,35 502,30 499,30 499,40 " style="fill:white; stroke-width:1; stroke:black; " description="&lt;b&gt;input.path1.gene53&lt;/b&gt;&lt;br&gt;input.path1.gene53&lt;br&gt;Location: 205346 - 206294" locus_tag="input.path1.gene53" class="clusterblast-orf" id="dummy-1_q12_0_all"  />
<polygon points="534,40 538,35 534,30 534,40 " style="fill:#d81515; stroke-width:1; stroke:black; " description="&lt;b&gt;input.path1.gene54&lt;/b&gt;&lt;br&gt;input.path1.gene54&lt;br&gt;Location: 209308 - 209783" locus_tag="input.path1.gene54" class="clusterblast-orf" id="dummy-1_q13_0_all"  />
<polygon points="541,40 634,40 639,35 634,30 541,30 541,40 " style="fill:white; stroke-width:1; stroke:black; " description="&lt;b&gt;input.path1.gene55&lt;/b&gt;&lt;br&gt;input.path1.gene55&lt;br&gt;Location: 210106 - 221447" locus_tag="input.path1.gene55" class="clusterblast-orf" id="dummy-1_q14_0_all"  />
<polygon points="646,40 649,40 654,35 649,30 646,30 646,40 " style="fill:white; stroke-width:1; stroke:black; " description="&lt;b&gt;input.path1.gene56&lt;/b&gt;&lt;br&gt;input.path1.gene56&lt;br&gt;Location: 222150 - 223063" locus_tag="input.path1.gene56" class="clusterblast-orf" id="dummy-1_q15_0_all"  />
<polygon points="657,35 662,30 666,30 666,40 662,40 657,35 " style="fill:white; stroke-width:1; stroke:black; " description="&lt;b&gt;input.path1.gene57&lt;/b&gt;&lt;br&gt;input.path1.gene57&lt;br&gt;Location: 223510 - 224461" locus_tag="input.path1.gene57" class="clusterblast-orf" id="dummy-1_q16_0_all"  />
<polygon points="685,35 690,30 726,30 726,40 690,40 685,35 " style="fill:#15d815; stroke-width:1; stroke:black; " description="&lt;b&gt;input.path1.gene58&lt;/b&gt;&lt;br&gt;input.path1.gene58&lt;br&gt;Location: 226695 - 231304" locus_tag="input.path1.gene58" class="clusterblast-orf" id="dummy-1_q17_0_all"  />
<polygon points="768,35 773,30 780,30 780,40 773,40 768,35 " style="fill:#1515d8; stroke-width:1; stroke:black; " description="&lt;b&gt;input.path1.gene59&lt;/b&gt;&lt;br&gt;input.path1.gene59&lt;br&gt;Location: 236154 - 237500" locus_tag="input.path1.gene59" class="clusterblast-orf" id="dummy-1_q18_0_all"  />
</g>
<g label="BGC0000064" description="BGC0000064_c1: fusarin (100% of genes show similarity), NRP+Polyketide" class="clusterblast-cluster"  >
<text x="5" y="70" class="clusterblast-acc"  >
<a xlink:href="https://mibig.secondarymetabolites.org/go/BGC0000064/1" target="_blank">BGC0000064</a>: fusarin                                                                          (100% of genes show similarity), NRP+Polyketide</text>
<line x1="10" y1="85" x2="778.0" y2="85" style="stroke-width:1; stroke:grey; "  />
</g>
<g id="a1_000"  >
<polygon points="338,90 436,90 441,85 436,80 338,80 338,90 " style="fill:#d81515; stroke-width:1; stroke:black; " description="&lt;b&gt;AAT28740.1&lt;/b&gt;&lt;br&gt;FUSS&lt;br&gt;Location: 1 - 11857&lt;br&gt;&lt;br&gt;&lt;b&gt;BlastP hit with input.path1.gene54&lt;/b&gt;&lt;br&gt;Percentage identity: 52&lt;br&gt;Percentage coverage: 83&lt;br&gt;BLAST bit score: 115&lt;br&gt;E-value: 1.55e-30" locus_tag="AAT28740.1" class="clusterblast-orf" id="dummy-1_h1_2_0"  />
</g>
</svg>
