<svg xmlns="http://www.w3.org/2000/svg" xmlns:xlink="http://www.w3.org/1999/xlink" version="1.1" x="0" y="0" height="100" width="800" viewBox="0 0 800 100" preserveAspectRatio="none"  >
<g label="Query sequence" class="clusterblast-cluster"  >
<text x="5" y="20" class="clusterblast-acc"  >
Query sequence</text>
<line x1="10" y1="35" x2="778.0" y2="35" style="stroke-width:1; stroke:grey; "  />
<polygon points="0,40 64,40 69,35 64,30 0,30 0,40 " style="fill:white; stroke-width:1; stroke:black; " description="&lt;b&gt;input.path1.gene625&lt;/b&gt;&lt;br&gt;input.path1.gene625&lt;br&gt;Location: 2423416 - 2426071" locus_tag="input.path1.gene625" class="clusterblast-orf" id="knownclusterblast-4_q0_0_all"  />
<polygon points="191,40 193,40 198,35 193,30 191,30 191,40 " style="fill:white; stroke-width:1; stroke:black; " description="&lt;b&gt;input.path1.gene626&lt;/b&gt;&lt;br&gt;input.path1.gene626&lt;br&gt;Location: 2430773 - 2431031" locus_tag="input.path1.gene626" class="clusterblast-orf" id="knownclusterblast-4_q1_0_all"  />
<polygon points="210,35 215,30 222,30 222,40 215,40 210,35 " style="fill:white; stroke-width:1; stroke:black; " description="&lt;b&gt;input.path1.gene627&lt;/b&gt;&lt;br&gt;input.path1.gene627&lt;br&gt;Location: 2431499 - 2431953" locus_tag="input.path1.gene627" class="clusterblast-orf" id="knownclusterblast-4_q2_0_all"  />
<polygon points="321,40 421,40 426,35 421,30 321,30 321,40 " style="fill:#d81515; stroke-width:1; stroke:black; " description="&lt;b&gt;input.path1.gene628&lt;/b&gt;&lt;br&gt;input.path1.gene628&lt;br&gt;Location: 2435790 - 2439831" locus_tag="input.path1.gene628" class="clusterblast-orf" id="knownclusterblast-4_q3_0_all"  />
<polygon points="433,35 438,30 486,30 486,40 438,40 433,35 " style="fill:white; stroke-width:1; stroke:black; " description="&lt;b&gt;input.path1.gene629&lt;/b&gt;&lt;br&gt;input.path1.gene629&lt;br&gt;Location: 2440094 - 2442117" locus_tag="input.path1.gene629" class="clusterblast-orf" id="knownclusterblast-4_q4_0_all"  />
<polygon points="525,35 530,30 568,30 568,40 530,40 525,35 " style="fill:white; stroke-width:1; stroke:black; " description="&lt;b&gt;input.path1.gene630&lt;/b&gt;&lt;br&gt;input.path1.gene630&lt;br&gt;Location: 2443642 - 2445291" locus_tag="input.path1.gene630" class="clusterblast-orf" id="knownclusterblast-4_q5_0_all"  />
<polygon points="618,35 623,30 691,30 691,40 623,40 618,35 " style="fill:white; stroke-width:1; stroke:black; " description="&lt;b&gt;input.path1.gene631&lt;/b&gt;&lt;br&gt;input.path1.gene631&lt;br&gt;Location: 2447205 - 2450031" locus_tag="input.path1.gene631" class="clusterblast-orf" id="knownclusterblast-4_q6_0_all"  />
<polygon points="734,35 739,30 780,30 780,40 739,40 734,35 " style="fill:white; stroke-width:1; stroke:black; " description="&lt;b&gt;input.path1.gene632&lt;/b&gt;&lt;br&gt;input.path1.gene632&lt;br&gt;Location: 2451662 - 2453438" locus_tag="input.path1.gene632" class="clusterblast-orf" id="knownclusterblast-4_q7_0_all"  />
</g>
<g label="BGC0002174" description="BGC0002174_c1: ε-Poly-L-lysine (100% of genes show similarity), NRP" class="clusterblast-cluster"  >
<text x="5" y="70" class="clusterblast-acc"  >
<a xlink:href="https://mibig.secondarymetabolites.org/go/BGC0002174/1" target="_blank">BGC0002174</a>: ε-Poly-L-lysine                                                                  (100% of genes show similarity), NRP</text>
<line x1="10" y1="85" x2="778.0" y2="85" style="stroke-width:1; stroke:grey; "  />
</g>
<g id="a4_000"  >
<polygon points="339,90 435,90 440,85 435,80 339,80 339,90 " style="fill:#d81515; stroke-width:1; stroke:black; " description="&lt;b&gt;BBU42014.1&lt;/b&gt;&lt;br&gt;e-poly-L-lysine synthetase&lt;br&gt;Location: 1 - 3894&lt;br&gt;&lt;br&gt;&lt;b&gt;BlastP hit with input.path1.gene628&lt;/b&gt;&lt;br&gt;Percentage identity: 60&lt;br&gt;Percentage coverage: 98&lt;br&gt;BLAST bit score: 1517&lt;br&gt;E-value: 0.0" locus_tag="BBU42014.1" class="clusterblast-orf" id="knownclusterblast-4_all_4_1_0"  />
</g>
</svg>
