<svg xmlns="http://www.w3.org/2000/svg" xmlns:xlink="http://www.w3.org/1999/xlink" version="1.1" x="0" y="0" height="50" width="800" viewBox="0 0 800 50" preserveAspectRatio="none"  >
<g label="Query sequence" class="clusterblast-cluster"  >
<text x="5" y="20" class="clusterblast-acc"  >
Query sequence</text>
<line x1="10" y1="35" x2="778.0" y2="35" style="stroke-width:1; stroke:grey; "  />
<polygon points="0,35 5,30 16,30 16,40 5,40 0,35 " style="fill:white; stroke-width:1; stroke:black; " description="&lt;b&gt;input.path1.gene779&lt;/b&gt;&lt;br&gt;input.path1.gene779&lt;br&gt;Location: 2823703 - 2824749" locus_tag="input.path1.gene779" class="clusterblast-orf" id="subclusterblast-4_q0_0_all"  />
<polygon points="76,35 81,30 96,30 96,40 81,40 76,35 " style="fill:white; stroke-width:1; stroke:black; " description="&lt;b&gt;input.path1.gene780&lt;/b&gt;&lt;br&gt;input.path1.gene780&lt;br&gt;Location: 2828547 - 2829849" locus_tag="input.path1.gene780" class="clusterblast-orf" id="subclusterblast-4_q1_0_all"  />
<polygon points="106,40 121,40 126,35 121,30 106,30 106,40 " style="fill:white; stroke-width:1; stroke:black; " description="&lt;b&gt;input.path1.gene781&lt;/b&gt;&lt;br&gt;input.path1.gene781&lt;br&gt;Location: 2830449 - 2831757" locus_tag="input.path1.gene781" class="clusterblast-orf" id="subclusterblast-4_q2_0_all"  />
<polygon points="134,35 139,30 187,30 187,40 139,40 134,35 " style="fill:white; stroke-width:1; stroke:black; " description="&lt;b&gt;input.path1.gene782&lt;/b&gt;&lt;br&gt;input.path1.gene782&lt;br&gt;Location: 2832258 - 2835594" locus_tag="input.path1.gene782" class="clusterblast-orf" id="subclusterblast-4_q3_0_all"  />
<polygon points="197,40 224,40 229,35 224,30 197,30 197,40 " style="fill:white; stroke-width:1; stroke:black; " description="&lt;b&gt;input.path1.gene783&lt;/b&gt;&lt;br&gt;input.path1.gene783&lt;br&gt;Location: 2836253 - 2838283" locus_tag="input.path1.gene783" class="clusterblast-orf" id="subclusterblast-4_q4_0_all"  />
<polygon points="235,35 240,30 269,30 269,40 240,40 235,35 " style="fill:white; stroke-width:1; stroke:black; " description="&lt;b&gt;input.path1.gene784&lt;/b&gt;&lt;br&gt;input.path1.gene784&lt;br&gt;Location: 2838644 - 2840838" locus_tag="input.path1.gene784" class="clusterblast-orf" id="subclusterblast-4_q5_0_all"  />
<polygon points="294,35 299,30 486,30 486,40 299,40 294,35 " style="fill:white; stroke-width:1; stroke:black; " description="&lt;b&gt;input.path1.gene785&lt;/b&gt;&lt;br&gt;input.path1.gene785&lt;br&gt;Location: 2842436 - 2854607" locus_tag="input.path1.gene785" class="clusterblast-orf" id="subclusterblast-4_q6_0_all"  />
<polygon points="494,40 529,40 534,35 529,30 494,30 494,40 " style="fill:white; stroke-width:1; stroke:black; " description="&lt;b&gt;input.path1.gene786&lt;/b&gt;&lt;br&gt;input.path1.gene786&lt;br&gt;Location: 2855159 - 2857722" locus_tag="input.path1.gene786" class="clusterblast-orf" id="subclusterblast-4_q7_0_all"  />
<polygon points="537,40 543,40 548,35 543,30 537,30 537,40 " style="fill:white; stroke-width:1; stroke:black; " description="&lt;b&gt;input.path1.gene787&lt;/b&gt;&lt;br&gt;input.path1.gene787&lt;br&gt;Location: 2857908 - 2858593" locus_tag="input.path1.gene787" class="clusterblast-orf" id="subclusterblast-4_q8_0_all"  />
<polygon points="567,35 572,30 598,30 598,40 572,40 567,35 " style="fill:white; stroke-width:1; stroke:black; " description="&lt;b&gt;input.path1.gene788&lt;/b&gt;&lt;br&gt;input.path1.gene788&lt;br&gt;Location: 2859787 - 2861769" locus_tag="input.path1.gene788" class="clusterblast-orf" id="subclusterblast-4_q9_0_all"  />
<polygon points="611,40 625,40 630,35 625,30 611,30 611,40 " style="fill:white; stroke-width:1; stroke:black; " description="&lt;b&gt;input.path1.gene789&lt;/b&gt;&lt;br&gt;input.path1.gene789&lt;br&gt;Location: 2862614 - 2863793" locus_tag="input.path1.gene789" class="clusterblast-orf" id="subclusterblast-4_q10_0_all"  />
<polygon points="664,40 683,40 688,35 683,30 664,30 664,40 " style="fill:white; stroke-width:1; stroke:black; " description="&lt;b&gt;input.path1.gene790&lt;/b&gt;&lt;br&gt;input.path1.gene790&lt;br&gt;Location: 2865930 - 2867502" locus_tag="input.path1.gene790" class="clusterblast-orf" id="subclusterblast-4_q11_0_all"  />
<polygon points="698,40 716,40 721,35 716,30 698,30 698,40 " style="fill:white; stroke-width:1; stroke:black; " description="&lt;b&gt;input.path1.gene791&lt;/b&gt;&lt;br&gt;input.path1.gene791&lt;br&gt;Location: 2868107 - 2869607" locus_tag="input.path1.gene791" class="clusterblast-orf" id="subclusterblast-4_q12_0_all"  />
<polygon points="723,35 728,30 742,30 742,40 728,40 723,35 " style="fill:white; stroke-width:1; stroke:black; " description="&lt;b&gt;input.path1.gene792&lt;/b&gt;&lt;br&gt;input.path1.gene792&lt;br&gt;Location: 2869712 - 2870893" locus_tag="input.path1.gene792" class="clusterblast-orf" id="subclusterblast-4_q13_0_all"  />
<polygon points="742,40 746,35 742,30 742,40 " style="fill:white; stroke-width:1; stroke:black; " description="&lt;b&gt;input.path1.gene793&lt;/b&gt;&lt;br&gt;input.path1.gene793&lt;br&gt;Location: 2870947 - 2871193" locus_tag="input.path1.gene793" class="clusterblast-orf" id="subclusterblast-4_q14_0_all"  />
<polygon points="758,40 775,40 780,35 775,30 758,30 758,40 " style="fill:white; stroke-width:1; stroke:black; " description="&lt;b&gt;input.path1.gene794&lt;/b&gt;&lt;br&gt;input.path1.gene794&lt;br&gt;Location: 2871916 - 2873316" locus_tag="input.path1.gene794" class="clusterblast-orf" id="subclusterblast-4_q15_0_all"  />
</g>
</svg>
