<svg xmlns="http://www.w3.org/2000/svg" xmlns:xlink="http://www.w3.org/1999/xlink" version="1.1" x="0" y="0" height="230" width="800" viewBox="0 0 800 230" preserveAspectRatio="none"  >
<g label="Query sequence" class="clusterblast-cluster"  >
<text x="5" y="20" class="clusterblast-acc"  >
Query sequence</text>
<line x1="10" y1="35" x2="778.0" y2="35" style="stroke-width:1; stroke:grey; "  />
<polygon points="89,35 94,30 150,30 150,40 94,40 89,35 " style="fill:#d81515; stroke-width:1; stroke:black; " description="&lt;b&gt;input.path1.gene214&lt;/b&gt;&lt;br&gt;input.path1.gene214&lt;br&gt;Location: 760721 - 768642" locus_tag="input.path1.gene214" class="clusterblast-orf" id="dummy-2_q0_0_all"  />
<polygon points="173,40 182,40 187,35 182,30 173,30 173,40 " style="fill:#77d815; stroke-width:1; stroke:black; " description="&lt;b&gt;input.path1.gene215&lt;/b&gt;&lt;br&gt;input.path1.gene215&lt;br&gt;Location: 771609 - 773340" locus_tag="input.path1.gene215" class="clusterblast-orf" id="dummy-2_q1_0_all"  />
<polygon points="189,35 194,30 209,30 209,40 194,40 189,35 " style="fill:#15d8d8; stroke-width:1; stroke:black; " description="&lt;b&gt;input.path1.gene216&lt;/b&gt;&lt;br&gt;input.path1.gene216&lt;br&gt;Location: 773622 - 776178" locus_tag="input.path1.gene216" class="clusterblast-orf" id="dummy-2_q2_0_all"  />
<polygon points="215,40 294,40 299,35 294,30 215,30 215,40 " style="fill:#7715d8; stroke-width:1; stroke:black; " description="&lt;b&gt;input.path1.gene217&lt;/b&gt;&lt;br&gt;input.path1.gene217&lt;br&gt;Location: 777044 - 787880" locus_tag="input.path1.gene217" class="clusterblast-orf" id="dummy-2_q3_0_all"  />
<polygon points="303,35 308,30 308,30 308,40 308,40 303,35 " style="fill:#d85e15; stroke-width:1; stroke:black; " description="&lt;b&gt;input.path1.gene218&lt;/b&gt;&lt;br&gt;input.path1.gene218&lt;br&gt;Location: 788349 - 788943" locus_tag="input.path1.gene218" class="clusterblast-orf" id="dummy-2_q4_0_all"  />
<polygon points="316,35 321,30 349,30 349,40 321,40 316,35 " style="fill:#2ed815; stroke-width:1; stroke:black; " description="&lt;b&gt;input.path1.gene219&lt;/b&gt;&lt;br&gt;input.path1.gene219&lt;br&gt;Location: 790052 - 794300" locus_tag="input.path1.gene219" class="clusterblast-orf" id="dummy-2_q5_0_all"  />
<polygon points="353,35 358,30 370,30 370,40 358,40 353,35 " style="fill:#158fd8; stroke-width:1; stroke:black; " description="&lt;b&gt;input.path1.gene220&lt;/b&gt;&lt;br&gt;input.path1.gene220&lt;br&gt;Location: 794791 - 796934" locus_tag="input.path1.gene220" class="clusterblast-orf" id="dummy-2_q6_0_all"  />
<polygon points="374,40 378,40 383,35 378,30 374,30 374,40 " style="fill:#2ed815; stroke-width:1; stroke:black; " description="&lt;b&gt;input.path1.gene221&lt;/b&gt;&lt;br&gt;input.path1.gene221&lt;br&gt;Location: 797461 - 798629" locus_tag="input.path1.gene221" class="clusterblast-orf" id="dummy-2_q7_0_all"  />
<polygon points="385,35 390,30 432,30 432,40 390,40 385,35 " style="fill:#158fd8; stroke-width:1; stroke:black; " description="&lt;b&gt;input.path1.gene222&lt;/b&gt;&lt;br&gt;input.path1.gene222&lt;br&gt;Location: 798940 - 805032" locus_tag="input.path1.gene222" class="clusterblast-orf" id="dummy-2_q8_0_all"  />
<polygon points="451,35 456,30 460,30 460,40 456,40 451,35 " style="fill:#2ed815; stroke-width:1; stroke:black; " description="&lt;b&gt;input.path1.gene223&lt;/b&gt;&lt;br&gt;input.path1.gene223&lt;br&gt;Location: 807368 - 808633" locus_tag="input.path1.gene223" class="clusterblast-orf" id="dummy-2_q9_0_all"  />
<polygon points="468,40 493,40 498,35 493,30 468,30 468,40 " style="fill:#c015d8; stroke-width:1; stroke:black; " description="&lt;b&gt;input.path1.gene224&lt;/b&gt;&lt;br&gt;input.path1.gene224&lt;br&gt;Location: 809654 - 813457" locus_tag="input.path1.gene224" class="clusterblast-orf" id="dummy-2_q10_0_all"  />
<polygon points="502,40 510,40 515,35 510,30 502,30 502,40 " style="fill:#d8a715; stroke-width:1; stroke:black; " description="&lt;b&gt;input.path1.gene225&lt;/b&gt;&lt;br&gt;input.path1.gene225&lt;br&gt;Location: 814045 - 815621" locus_tag="input.path1.gene225" class="clusterblast-orf" id="dummy-2_q11_0_all"  />
<polygon points="515,35 519,30 519,40 515,35 " style="fill:white; stroke-width:1; stroke:black; " description="&lt;b&gt;input.path1.gene226&lt;/b&gt;&lt;br&gt;input.path1.gene226&lt;br&gt;Location: 815734 - 816179" locus_tag="input.path1.gene226" class="clusterblast-orf" id="dummy-2_q12_0_all"  />
<polygon points="525,40 535,40 540,35 535,30 525,30 525,40 " style="fill:#158fd8; stroke-width:1; stroke:black; " description="&lt;b&gt;input.path1.gene227&lt;/b&gt;&lt;br&gt;input.path1.gene227&lt;br&gt;Location: 816996 - 818963" locus_tag="input.path1.gene227" class="clusterblast-orf" id="dummy-2_q13_0_all"  />
<polygon points="550,40 553,40 558,35 553,30 550,30 550,40 " style="fill:#15d846; stroke-width:1; stroke:black; " description="&lt;b&gt;input.path1.gene228&lt;/b&gt;&lt;br&gt;input.path1.gene228&lt;br&gt;Location: 820201 - 821271" locus_tag="input.path1.gene228" class="clusterblast-orf" id="dummy-2_q14_0_all"  />
<polygon points="560,35 565,30 566,30 566,40 565,40 560,35 " style="fill:#1546d8; stroke-width:1; stroke:black; " description="&lt;b&gt;input.path1.gene229&lt;/b&gt;&lt;br&gt;input.path1.gene229&lt;br&gt;Location: 821421 - 822254" locus_tag="input.path1.gene229" class="clusterblast-orf" id="dummy-2_q15_0_all"  />
<polygon points="575,35 580,30 583,30 583,40 580,40 575,35 " style="fill:#d815a7; stroke-width:1; stroke:black; " description="&lt;b&gt;input.path1.gene230&lt;/b&gt;&lt;br&gt;input.path1.gene230&lt;br&gt;Location: 823353 - 824427" locus_tag="input.path1.gene230" class="clusterblast-orf" id="dummy-2_q16_0_all"  />
<polygon points="591,40 597,40 602,35 597,30 591,30 591,40 " style="fill:#c0d815; stroke-width:1; stroke:black; " description="&lt;b&gt;input.path1.gene231&lt;/b&gt;&lt;br&gt;input.path1.gene231&lt;br&gt;Location: 825433 - 826847" locus_tag="input.path1.gene231" class="clusterblast-orf" id="dummy-2_q17_0_all"  />
<polygon points="604,35 609,30 618,30 618,40 609,40 604,35 " style="fill:#15d88f; stroke-width:1; stroke:black; " description="&lt;b&gt;input.path1.gene232&lt;/b&gt;&lt;br&gt;input.path1.gene232&lt;br&gt;Location: 827157 - 828980" locus_tag="input.path1.gene232" class="clusterblast-orf" id="dummy-2_q18_0_all"  />
<polygon points="620,40 622,35 620,30 620,40 " style="fill:white; stroke-width:1; stroke:black; " description="&lt;b&gt;input.path1.gene233&lt;/b&gt;&lt;br&gt;input.path1.gene233&lt;br&gt;Location: 829210 - 829452" locus_tag="input.path1.gene233" class="clusterblast-orf" id="dummy-2_q19_0_all"  />
<polygon points="630,40 637,40 642,35 637,30 630,30 630,40 " style="fill:#2e15d8; stroke-width:1; stroke:black; " description="&lt;b&gt;input.path1.gene234&lt;/b&gt;&lt;br&gt;input.path1.gene234&lt;br&gt;Location: 830452 - 832058" locus_tag="input.path1.gene234" class="clusterblast-orf" id="dummy-2_q20_0_all"  />
<polygon points="677,40 686,40 691,35 686,30 677,30 677,40 " style="fill:#d8155e; stroke-width:1; stroke:black; " description="&lt;b&gt;input.path1.gene235&lt;/b&gt;&lt;br&gt;input.path1.gene235&lt;br&gt;Location: 836584 - 838300" locus_tag="input.path1.gene235" class="clusterblast-orf" id="dummy-2_q21_0_all"  />
</g>
<g label="NW_006271970" description="NW_006271970 (2031211-2136459): Cordyceps militaris CM01 unplaced genomic sca... (52% of genes show similarity), fungal-RiPP-like" class="clusterblast-cluster"  >
<text x="5" y="70" class="clusterblast-acc"  >
<a xlink:href="https://antismash-db.secondarymetabolites.org/area?record=NW_006271970&amp;start=2031211&amp;end=2136459" target="_blank">NW_006271970 (2031211-2136459)</a>: Cordyceps militaris CM01 unplaced genomic sca... (52% of genes show similarity), fungal-RiPP-like</text>
<line x1="10" y1="85" x2="778.0" y2="85" style="stroke-width:1; stroke:grey; "  />
</g>
<g id="a2_000"  >
<polygon points="0,90 3,90 8,85 3,80 0,80 0,90 " style="fill:white; stroke-width:1; stroke:black; " description="&lt;b&gt;CCM_02547&lt;/b&gt;&lt;br&gt;hypothetical protein&lt;br&gt;Location: 2033037 - 2034176" locus_tag="CCM_02547" class="clusterblast-orf" id="dummy-2_h2_1_0"  />
</g>
<g id="a2_001"  >
<polygon points="20,85 25,80 50,80 50,90 25,90 20,85 " style="fill:white; stroke-width:1; stroke:black; " description="&lt;b&gt;CCM_02548&lt;/b&gt;&lt;br&gt;ATP-dependent protease La&lt;br&gt;Location: 2035682 - 2039520" locus_tag="CCM_02548" class="clusterblast-orf" id="dummy-2_h2_1_1"  />
</g>
<g id="a2_002"  >
<polygon points="56,85 61,80 63,80 63,90 61,90 56,85 " style="fill:white; stroke-width:1; stroke:black; " description="&lt;b&gt;CCM_02549&lt;/b&gt;&lt;br&gt;Glutathione S-transferase&lt;br&gt;Location: 2040300 - 2041198" locus_tag="CCM_02549" class="clusterblast-orf" id="dummy-2_h2_1_2"  />
</g>
<g id="a2_003"  >
<polygon points="80,90 84,85 80,80 80,90 " style="fill:white; stroke-width:1; stroke:black; " description="&lt;b&gt;CCM_02550&lt;/b&gt;&lt;br&gt;mitosis protein dim1&lt;br&gt;Location: 2043411 - 2043908" locus_tag="CCM_02550" class="clusterblast-orf" id="dummy-2_h2_1_3"  />
</g>
<g id="a2_004"  >
<polygon points="87,85 92,80 148,80 148,90 92,90 87,85 " style="fill:#d81515; stroke-width:1; stroke:black; " description="&lt;b&gt;CCM_02551&lt;/b&gt;&lt;br&gt;cell morphogenesis protein (PAG1), putative&lt;br&gt;Location: 2044351 - 2052232&lt;br&gt;&lt;br&gt;&lt;b&gt;BlastP hit with input.path1.gene214&lt;/b&gt;&lt;br&gt;Percentage identity: 90&lt;br&gt;Percentage coverage: 100&lt;br&gt;BLAST bit score: 4513&lt;br&gt;E-value: 0.0" locus_tag="CCM_02551" class="clusterblast-orf" id="dummy-2_h2_1_4"  />
</g>
<g id="a2_005"  >
<polygon points="157,90 157,90 162,85 157,80 157,80 157,90 " style="fill:white; stroke-width:1; stroke:black; " description="&lt;b&gt;CCM_02552&lt;/b&gt;&lt;br&gt;hypothetical protein&lt;br&gt;Location: 2053321 - 2053971" locus_tag="CCM_02552" class="clusterblast-orf" id="dummy-2_h2_1_5"  />
</g>
<g id="a2_006"  >
<polygon points="169,90 178,90 183,85 178,80 169,80 169,90 " style="fill:#77d815; stroke-width:1; stroke:black; " description="&lt;b&gt;CCM_02553&lt;/b&gt;&lt;br&gt;cytochrome P450 phenylacetate 2-hydroxylase&lt;br&gt;Location: 2054933 - 2056720&lt;br&gt;&lt;br&gt;&lt;b&gt;BlastP hit with input.path1.gene215&lt;/b&gt;&lt;br&gt;Percentage identity: 91&lt;br&gt;Percentage coverage: 100&lt;br&gt;BLAST bit score: 961&lt;br&gt;E-value: 0.0" locus_tag="CCM_02553" class="clusterblast-orf" id="dummy-2_h2_1_6"  />
</g>
<g id="a2_007"  >
<polygon points="190,85 195,80 205,80 205,90 195,90 190,85 " style="fill:#15d8d8; stroke-width:1; stroke:black; " description="&lt;b&gt;CCM_02554&lt;/b&gt;&lt;br&gt;translation initiation factor eIF4B&lt;br&gt;Location: 2057649 - 2059577&lt;br&gt;&lt;br&gt;&lt;b&gt;BlastP hit with input.path1.gene216&lt;/b&gt;&lt;br&gt;Percentage identity: 70&lt;br&gt;Percentage coverage: 109&lt;br&gt;BLAST bit score: 560&lt;br&gt;E-value: 6.08e-195" locus_tag="CCM_02554" class="clusterblast-orf" id="dummy-2_h2_1_7"  />
</g>
<g id="a2_008"  >
<polygon points="212,90 213,90 218,85 213,80 212,80 212,90 " style="fill:white; stroke-width:1; stroke:black; " description="&lt;b&gt;CCM_02555&lt;/b&gt;&lt;br&gt;hypothetical protein&lt;br&gt;Location: 2060371 - 2061188" locus_tag="CCM_02555" class="clusterblast-orf" id="dummy-2_h2_1_8"  />
</g>
<g id="a2_009"  >
<polygon points="228,90 292,90 297,85 292,80 228,80 228,90 " style="fill:#7715d8; stroke-width:1; stroke:black; " description="&lt;b&gt;CCM_02556&lt;/b&gt;&lt;br&gt;hypothetical protein&lt;br&gt;Location: 2062514 - 2071411&lt;br&gt;&lt;br&gt;&lt;b&gt;BlastP hit with input.path1.gene217&lt;/b&gt;&lt;br&gt;Percentage identity: 91&lt;br&gt;Percentage coverage: 92&lt;br&gt;BLAST bit score: 5256&lt;br&gt;E-value: 0.0" locus_tag="CCM_02556" class="clusterblast-orf" id="dummy-2_h2_1_9"  />
</g>
<g id="a2_0010"  >
<polygon points="300,85 305,80 305,80 305,90 305,90 300,85 " style="fill:#d85e15; stroke-width:1; stroke:black; " description="&lt;b&gt;CCM_02557&lt;/b&gt;&lt;br&gt;methylated-DNA--protein-cysteine methyltransferase, putative&lt;br&gt;Location: 2071800 - 2072360&lt;br&gt;&lt;br&gt;&lt;b&gt;BlastP hit with input.path1.gene218&lt;/b&gt;&lt;br&gt;Percentage identity: 69&lt;br&gt;Percentage coverage: 100&lt;br&gt;BLAST bit score: 234&lt;br&gt;E-value: 5.36e-77" locus_tag="CCM_02557" class="clusterblast-orf" id="dummy-2_h2_1_10"  />
</g>
<g id="a2_0011"  >
<polygon points="308,85 313,80 331,80 331,90 313,90 308,85 " style="fill:#2ed815; stroke-width:1; stroke:black; " description="&lt;b&gt;CCM_02558&lt;/b&gt;&lt;br&gt;oligopeptide transporter&lt;br&gt;Location: 2072776 - 2075732&lt;br&gt;&lt;br&gt;&lt;b&gt;BlastP hit with input.path1.gene219&lt;/b&gt;&lt;br&gt;Percentage identity: 81&lt;br&gt;Percentage coverage: 80&lt;br&gt;BLAST bit score: 1056&lt;br&gt;E-value: 0.0" locus_tag="CCM_02558" class="clusterblast-orf" id="dummy-2_h2_1_11"  />
</g>
<g id="a2_0012"  >
<polygon points="334,85 339,80 343,80 343,90 339,90 334,85 " style="fill:#2ed815; stroke-width:1; stroke:black; " description="&lt;b&gt;CCM_02559&lt;/b&gt;&lt;br&gt;hypothetical protein&lt;br&gt;Location: 2076212 - 2077361&lt;br&gt;&lt;br&gt;&lt;b&gt;BlastP hit with input.path1.gene219&lt;/b&gt;&lt;br&gt;Percentage identity: 55&lt;br&gt;Percentage coverage: 25&lt;br&gt;BLAST bit score: 198&lt;br&gt;E-value: 5.15e-55&lt;br&gt;&lt;br&gt;&lt;b&gt;BlastP hit with input.path1.gene221&lt;/b&gt;&lt;br&gt;Percentage identity: 44&lt;br&gt;Percentage coverage: 79&lt;br&gt;BLAST bit score: 206&lt;br&gt;E-value: 2.86e-63&lt;br&gt;&lt;br&gt;&lt;b&gt;BlastP hit with input.path1.gene223&lt;/b&gt;&lt;br&gt;Percentage identity: 48&lt;br&gt;Percentage coverage: 31&lt;br&gt;BLAST bit score: 88&lt;br&gt;E-value: 1.19e-18" locus_tag="CCM_02559" class="clusterblast-orf" id="dummy-2_h2_1_12"  />
</g>
<g id="a2_0013"  >
<polygon points="347,85 352,80 363,80 363,90 352,90 347,85 " style="fill:#158fd8; stroke-width:1; stroke:black; " description="&lt;b&gt;CCM_02560&lt;/b&gt;&lt;br&gt;tripeptidyl peptidase&lt;br&gt;Location: 2077833 - 2079867&lt;br&gt;&lt;br&gt;&lt;b&gt;BlastP hit with input.path1.gene220&lt;/b&gt;&lt;br&gt;Percentage identity: 67&lt;br&gt;Percentage coverage: 70&lt;br&gt;BLAST bit score: 588&lt;br&gt;E-value: 2.37e-202&lt;br&gt;&lt;br&gt;&lt;b&gt;BlastP hit with input.path1.gene222&lt;/b&gt;&lt;br&gt;Percentage identity: 43&lt;br&gt;Percentage coverage: 38&lt;br&gt;BLAST bit score: 374&lt;br&gt;E-value: 6.73e-112&lt;br&gt;&lt;br&gt;&lt;b&gt;BlastP hit with input.path1.gene227&lt;/b&gt;&lt;br&gt;Percentage identity: 32&lt;br&gt;Percentage coverage: 103&lt;br&gt;BLAST bit score: 231&lt;br&gt;E-value: 4.53e-65" locus_tag="CCM_02560" class="clusterblast-orf" id="dummy-2_h2_1_13"  />
</g>
<g id="a2_0014"  >
<polygon points="366,90 370,90 375,85 370,80 366,80 366,90 " style="fill:#2ed815; stroke-width:1; stroke:black; " description="&lt;b&gt;CCM_02561&lt;/b&gt;&lt;br&gt;hypothetical protein&lt;br&gt;Location: 2080339 - 2081455&lt;br&gt;&lt;br&gt;&lt;b&gt;BlastP hit with input.path1.gene221&lt;/b&gt;&lt;br&gt;Percentage identity: 83&lt;br&gt;Percentage coverage: 102&lt;br&gt;BLAST bit score: 494&lt;br&gt;E-value: 8e-177" locus_tag="CCM_02561" class="clusterblast-orf" id="dummy-2_h2_1_14"  />
</g>
<g id="a2_0015"  >
<polygon points="378,85 383,80 394,80 394,90 383,90 378,85 " style="fill:#158fd8; stroke-width:1; stroke:black; " description="&lt;b&gt;CCM_02562&lt;/b&gt;&lt;br&gt;tripeptidyl peptidase&lt;br&gt;Location: 2081798 - 2083883&lt;br&gt;&lt;br&gt;&lt;b&gt;BlastP hit with input.path1.gene220&lt;/b&gt;&lt;br&gt;Percentage identity: 44&lt;br&gt;Percentage coverage: 68&lt;br&gt;BLAST bit score: 316&lt;br&gt;E-value: 1.26e-96&lt;br&gt;&lt;br&gt;&lt;b&gt;BlastP hit with input.path1.gene222&lt;/b&gt;&lt;br&gt;Percentage identity: 76&lt;br&gt;Percentage coverage: 38&lt;br&gt;BLAST bit score: 861&lt;br&gt;E-value: 3.7e-298" locus_tag="CCM_02562" class="clusterblast-orf" id="dummy-2_h2_1_15"  />
</g>
<g id="a2_0016"  >
<polygon points="395,90 398,85 395,80 395,90 " style="fill:white; stroke-width:1; stroke:black; " description="&lt;b&gt;CCM_02563&lt;/b&gt;&lt;br&gt;hypothetical protein&lt;br&gt;Location: 2083961 - 2084363" locus_tag="CCM_02563" class="clusterblast-orf" id="dummy-2_h2_1_16"  />
</g>
<g id="a2_0017"  >
<polygon points="399,90 405,90 410,85 405,80 399,80 399,90 " style="fill:white; stroke-width:1; stroke:black; " description="&lt;b&gt;CCM_02564&lt;/b&gt;&lt;br&gt;integral membrane protein&lt;br&gt;Location: 2084548 - 2085945" locus_tag="CCM_02564" class="clusterblast-orf" id="dummy-2_h2_1_17"  />
</g>
<g id="a2_0018"  >
<polygon points="411,85 416,80 423,80 423,90 416,90 411,85 " style="fill:#158fd8; stroke-width:1; stroke:black; " description="&lt;b&gt;CCM_02565&lt;/b&gt;&lt;br&gt;hypothetical protein&lt;br&gt;Location: 2086085 - 2087628&lt;br&gt;&lt;br&gt;&lt;b&gt;BlastP hit with input.path1.gene222&lt;/b&gt;&lt;br&gt;Percentage identity: 54&lt;br&gt;Percentage coverage: 32&lt;br&gt;BLAST bit score: 400&lt;br&gt;E-value: 2.71e-124" locus_tag="CCM_02565" class="clusterblast-orf" id="dummy-2_h2_1_18"  />
</g>
<g id="a2_0019"  >
<polygon points="444,85 449,80 453,80 453,90 449,90 444,85 " style="fill:#2ed815; stroke-width:1; stroke:black; " description="&lt;b&gt;CCM_02566&lt;/b&gt;&lt;br&gt;hypothetical protein&lt;br&gt;Location: 2090291 - 2091459&lt;br&gt;&lt;br&gt;&lt;b&gt;BlastP hit with input.path1.gene221&lt;/b&gt;&lt;br&gt;Percentage identity: 38&lt;br&gt;Percentage coverage: 77&lt;br&gt;BLAST bit score: 173&lt;br&gt;E-value: 1.82e-50&lt;br&gt;&lt;br&gt;&lt;b&gt;BlastP hit with input.path1.gene223&lt;/b&gt;&lt;br&gt;Percentage identity: 48&lt;br&gt;Percentage coverage: 113&lt;br&gt;BLAST bit score: 208&lt;br&gt;E-value: 4.27e-65" locus_tag="CCM_02566" class="clusterblast-orf" id="dummy-2_h2_1_19"  />
</g>
<g id="a2_0020"  >
<polygon points="460,90 464,85 460,80 460,90 " style="fill:white; stroke-width:1; stroke:black; " description="&lt;b&gt;CCM_02567&lt;/b&gt;&lt;br&gt;hypothetical protein&lt;br&gt;Location: 2092445 - 2092945" locus_tag="CCM_02567" class="clusterblast-orf" id="dummy-2_h2_1_20"  />
</g>
<g id="a2_0021"  >
<polygon points="468,90 480,90 485,85 480,80 468,80 468,90 " style="fill:#c015d8; stroke-width:1; stroke:black; " description="&lt;b&gt;CCM_02568&lt;/b&gt;&lt;br&gt;Fungal transcriptional regulatory protein&lt;br&gt;Location: 2093453 - 2095634&lt;br&gt;&lt;br&gt;&lt;b&gt;BlastP hit with input.path1.gene224&lt;/b&gt;&lt;br&gt;Percentage identity: 59&lt;br&gt;Percentage coverage: 81&lt;br&gt;BLAST bit score: 795&lt;br&gt;E-value: 1.61e-279" locus_tag="CCM_02568" class="clusterblast-orf" id="dummy-2_h2_1_21"  />
</g>
<g id="a2_0022"  >
<polygon points="489,90 496,90 501,85 496,80 489,80 489,90 " style="fill:#d8a715; stroke-width:1; stroke:black; " description="&lt;b&gt;CCM_02569&lt;/b&gt;&lt;br&gt;MFS multidrug transporter&lt;br&gt;Location: 2096183 - 2097717&lt;br&gt;&lt;br&gt;&lt;b&gt;BlastP hit with input.path1.gene225&lt;/b&gt;&lt;br&gt;Percentage identity: 87&lt;br&gt;Percentage coverage: 100&lt;br&gt;BLAST bit score: 874&lt;br&gt;E-value: 0.0" locus_tag="CCM_02569" class="clusterblast-orf" id="dummy-2_h2_1_22"  />
</g>
<g id="a2_0023"  >
<polygon points="583,85 585,80 585,90 583,85 " style="fill:white; stroke-width:1; stroke:black; " description="&lt;b&gt;CCM_02570&lt;/b&gt;&lt;br&gt;hypothetical protein&lt;br&gt;Location: 2108193 - 2108548" locus_tag="CCM_02570" class="clusterblast-orf" id="dummy-2_h2_1_23"  />
</g>
<g id="a2_0024"  >
<polygon points="587,90 590,90 595,85 590,80 587,80 587,90 " style="fill:#15d846; stroke-width:1; stroke:black; " description="&lt;b&gt;CCM_02571&lt;/b&gt;&lt;br&gt;nuclease PA3, putative&lt;br&gt;Location: 2108763 - 2109834&lt;br&gt;&lt;br&gt;&lt;b&gt;BlastP hit with input.path1.gene228&lt;/b&gt;&lt;br&gt;Percentage identity: 84&lt;br&gt;Percentage coverage: 100&lt;br&gt;BLAST bit score: 595&lt;br&gt;E-value: 4.98e-215" locus_tag="CCM_02571" class="clusterblast-orf" id="dummy-2_h2_1_24"  />
</g>
<g id="a2_0025"  >
<polygon points="598,90 601,90 606,85 601,80 598,80 598,90 " style="fill:#1546d8; stroke-width:1; stroke:black; " description="&lt;b&gt;CCM_02572&lt;/b&gt;&lt;br&gt;BTB/POZ fold domain containing protein&lt;br&gt;Location: 2110166 - 2111152&lt;br&gt;&lt;br&gt;&lt;b&gt;BlastP hit with input.path1.gene229&lt;/b&gt;&lt;br&gt;Percentage identity: 43&lt;br&gt;Percentage coverage: 65&lt;br&gt;BLAST bit score: 120&lt;br&gt;E-value: 4.59e-30" locus_tag="CCM_02572" class="clusterblast-orf" id="dummy-2_h2_1_25"  />
</g>
<g id="a2_0026"  >
<polygon points="626,90 633,90 638,85 633,80 626,80 626,90 " style="fill:#c0d815; stroke-width:1; stroke:black; " description="&lt;b&gt;CCM_02573&lt;/b&gt;&lt;br&gt;methoxy mycolic acid synthase 1&lt;br&gt;Location: 2113855 - 2115280&lt;br&gt;&lt;br&gt;&lt;b&gt;BlastP hit with input.path1.gene231&lt;/b&gt;&lt;br&gt;Percentage identity: 86&lt;br&gt;Percentage coverage: 99&lt;br&gt;BLAST bit score: 794&lt;br&gt;E-value: 6.74e-290" locus_tag="CCM_02573" class="clusterblast-orf" id="dummy-2_h2_1_26"  />
</g>
<g id="a2_0027"  >
<polygon points="647,85 652,80 660,80 660,90 652,90 647,85 " style="fill:#2e15d8; stroke-width:1; stroke:black; " description="&lt;b&gt;CCM_02574&lt;/b&gt;&lt;br&gt;hypothetical protein&lt;br&gt;Location: 2116544 - 2118176&lt;br&gt;&lt;br&gt;&lt;b&gt;BlastP hit with input.path1.gene234&lt;/b&gt;&lt;br&gt;Percentage identity: 43&lt;br&gt;Percentage coverage: 100&lt;br&gt;BLAST bit score: 234&lt;br&gt;E-value: 1.38e-70" locus_tag="CCM_02574" class="clusterblast-orf" id="dummy-2_h2_1_27"  />
</g>
<g id="a2_0028"  >
<polygon points="668,90 671,90 676,85 671,80 668,80 668,90 " style="fill:#15d88f; stroke-width:1; stroke:black; " description="&lt;b&gt;CCM_02575&lt;/b&gt;&lt;br&gt;hypothetical protein&lt;br&gt;Location: 2119206 - 2120239&lt;br&gt;&lt;br&gt;&lt;b&gt;BlastP hit with input.path1.gene232&lt;/b&gt;&lt;br&gt;Percentage identity: 45&lt;br&gt;Percentage coverage: 67&lt;br&gt;BLAST bit score: 175&lt;br&gt;E-value: 7.87e-51" locus_tag="CCM_02575" class="clusterblast-orf" id="dummy-2_h2_1_28"  />
</g>
<g id="a2_0029"  >
<polygon points="681,85 686,80 689,80 689,90 686,90 681,85 " style="fill:white; stroke-width:1; stroke:black; " description="&lt;b&gt;CCM_02576&lt;/b&gt;&lt;br&gt;hypothetical protein&lt;br&gt;Location: 2120905 - 2121927" locus_tag="CCM_02576" class="clusterblast-orf" id="dummy-2_h2_1_29"  />
</g>
<g id="a2_0030"  >
<polygon points="711,90 719,90 724,85 719,80 711,80 711,90 " style="fill:#d8155e; stroke-width:1; stroke:black; " description="&lt;b&gt;CCM_02577&lt;/b&gt;&lt;br&gt;hypothetical protein&lt;br&gt;Location: 2124744 - 2126462&lt;br&gt;&lt;br&gt;&lt;b&gt;BlastP hit with input.path1.gene235&lt;/b&gt;&lt;br&gt;Percentage identity: 77&lt;br&gt;Percentage coverage: 102&lt;br&gt;BLAST bit score: 706&lt;br&gt;E-value: 4.38e-251" locus_tag="CCM_02577" class="clusterblast-orf" id="dummy-2_h2_1_30"  />
</g>
<g id="a2_0031"  >
<polygon points="725,90 727,85 725,80 725,90 " style="fill:white; stroke-width:1; stroke:black; " description="&lt;b&gt;CCM_02578&lt;/b&gt;&lt;br&gt;hypothetical protein&lt;br&gt;Location: 2126608 - 2126820" locus_tag="CCM_02578" class="clusterblast-orf" id="dummy-2_h2_1_31"  />
</g>
<g id="a2_0032"  >
<polygon points="728,85 731,80 731,90 728,85 " style="fill:white; stroke-width:1; stroke:black; " description="&lt;b&gt;CCM_02579&lt;/b&gt;&lt;br&gt;hypothetical protein&lt;br&gt;Location: 2126986 - 2127365" locus_tag="CCM_02579" class="clusterblast-orf" id="dummy-2_h2_1_32"  />
</g>
<g id="a2_0033"  >
<polygon points="736,85 738,80 738,90 736,85 " style="fill:white; stroke-width:1; stroke:black; " description="&lt;b&gt;CCM_02580&lt;/b&gt;&lt;br&gt;hypothetical protein&lt;br&gt;Location: 2128006 - 2128264" locus_tag="CCM_02580" class="clusterblast-orf" id="dummy-2_h2_1_33"  />
</g>
<g id="a2_0034"  >
<polygon points="744,90 753,90 758,85 753,80 744,80 744,90 " style="fill:white; stroke-width:1; stroke:black; " description="&lt;b&gt;CCM_02581&lt;/b&gt;&lt;br&gt;amidase, putative&lt;br&gt;Location: 2129038 - 2130847" locus_tag="CCM_02581" class="clusterblast-orf" id="dummy-2_h2_1_34"  />
</g>
<g id="a2_0035"  >
<polygon points="760,90 764,90 769,85 764,80 760,80 760,90 " style="fill:white; stroke-width:1; stroke:black; " description="&lt;b&gt;CCM_02582&lt;/b&gt;&lt;br&gt;COP9 signalosome complex subunit 5&lt;br&gt;Location: 2131126 - 2132191" locus_tag="CCM_02582" class="clusterblast-orf" id="dummy-2_h2_1_35"  />
</g>
<g id="a2_0036"  >
<polygon points="774,85 777,80 777,90 774,85 " style="fill:white; stroke-width:1; stroke:black; " description="&lt;b&gt;CCM_02583&lt;/b&gt;&lt;br&gt;hypothetical protein&lt;br&gt;Location: 2132837 - 2133254" locus_tag="CCM_02583" class="clusterblast-orf" id="dummy-2_h2_1_36"  />
</g>
<g id="a2_0037"  >
<polygon points="778,90 780,85 778,80 778,90 " style="fill:white; stroke-width:1; stroke:black; " description="&lt;b&gt;CCM_02584&lt;/b&gt;&lt;br&gt;hypothetical protein&lt;br&gt;Location: 2133335 - 2133580" locus_tag="CCM_02584" class="clusterblast-orf" id="dummy-2_h2_1_37"  />
</g>
</svg>
