<svg xmlns="http://www.w3.org/2000/svg" xmlns:xlink="http://www.w3.org/1999/xlink" version="1.1" x="0" y="0" height="230" width="800" viewBox="0 0 800 230" preserveAspectRatio="none"  >
<g label="Query sequence" class="clusterblast-cluster"  >
<text x="5" y="20" class="clusterblast-acc"  >
Query sequence</text>
<line x1="10" y1="35" x2="778.0" y2="35" style="stroke-width:1; stroke:grey; "  />
<polygon points="228,35 233,30 265,30 265,40 233,40 228,35 " style="fill:#d81515; stroke-width:1; stroke:black; " description="&lt;b&gt;input.path1.gene484&lt;/b&gt;&lt;br&gt;input.path1.gene484&lt;br&gt;Location: 1777135 - 1778523" locus_tag="input.path1.gene484" class="clusterblast-orf" id="dummy-1_q0_0_all"  />
<polygon points="285,40 321,40 326,35 321,30 285,30 285,40 " style="fill:#77d815; stroke-width:1; stroke:black; " description="&lt;b&gt;input.path1.gene485&lt;/b&gt;&lt;br&gt;input.path1.gene485&lt;br&gt;Location: 1779273 - 1780831" locus_tag="input.path1.gene485" class="clusterblast-orf" id="dummy-1_q1_0_all"  />
<polygon points="330,35 335,30 363,30 363,40 335,40 330,35 " style="fill:#15d8d8; stroke-width:1; stroke:black; " description="&lt;b&gt;input.path1.gene486&lt;/b&gt;&lt;br&gt;input.path1.gene486&lt;br&gt;Location: 1780960 - 1782223" locus_tag="input.path1.gene486" class="clusterblast-orf" id="dummy-1_q2_0_all"  />
<polygon points="494,40 546,40 551,35 546,30 494,30 494,40 " style="fill:#7715d8; stroke-width:1; stroke:black; " description="&lt;b&gt;input.path1.gene487&lt;/b&gt;&lt;br&gt;input.path1.gene487&lt;br&gt;Location: 1787171 - 1789324" locus_tag="input.path1.gene487" class="clusterblast-orf" id="dummy-1_q3_0_all"  />
</g>
<g label="NW_006917094" description="NW_006917094 (1335307-1366507): Pestalotiopsis fici W106-1 unplaced genomic s... (18% of genes show similarity), terpene" class="clusterblast-cluster"  >
<text x="5" y="70" class="clusterblast-acc"  >
<a xlink:href="https://antismash-db.secondarymetabolites.org/area?record=NW_006917094&amp;start=1335307&amp;end=1366507" target="_blank">NW_006917094 (1335307-1366507)</a>: Pestalotiopsis fici W106-1 unplaced genomic s... (18% of genes show similarity), terpene</text>
<line x1="10" y1="85" x2="778.0" y2="85" style="stroke-width:1; stroke:grey; "  />
</g>
<g id="a1_000"  >
<polygon points="0,90 8,90 13,85 8,80 0,80 0,90 " style="fill:white; stroke-width:1; stroke:black; " description="&lt;b&gt;PFICI_06383&lt;/b&gt;&lt;br&gt;hypothetical protein&lt;br&gt;Location: 1335940 - 1336458" locus_tag="PFICI_06383" class="clusterblast-orf" id="dummy-1_h1_10_0"  />
</g>
<g id="a1_001"  >
<polygon points="35,90 58,90 63,85 58,80 35,80 35,90 " style="fill:white; stroke-width:1; stroke:black; " description="&lt;b&gt;PFICI_06384&lt;/b&gt;&lt;br&gt;hypothetical protein&lt;br&gt;Location: 1337290 - 1338343" locus_tag="PFICI_06384" class="clusterblast-orf" id="dummy-1_h1_10_1"  />
</g>
<g id="a1_002"  >
<polygon points="78,85 83,80 95,80 95,90 83,90 78,85 " style="fill:white; stroke-width:1; stroke:black; " description="&lt;b&gt;PFICI_06385&lt;/b&gt;&lt;br&gt;60S ribosomal protein L22&lt;br&gt;Location: 1338914 - 1339551" locus_tag="PFICI_06385" class="clusterblast-orf" id="dummy-1_h1_10_2"  />
</g>
<g id="a1_003"  >
<polygon points="142,90 182,90 187,85 182,80 142,80 142,90 " style="fill:white; stroke-width:1; stroke:black; " description="&lt;b&gt;PFICI_06386&lt;/b&gt;&lt;br&gt;hypothetical protein&lt;br&gt;Location: 1341316 - 1343006" locus_tag="PFICI_06386" class="clusterblast-orf" id="dummy-1_h1_10_3"  />
</g>
<g id="a1_004"  >
<polygon points="204,90 231,90 236,85 231,80 204,80 204,90 " style="fill:white; stroke-width:1; stroke:black; " description="&lt;b&gt;PFICI_06387&lt;/b&gt;&lt;br&gt;hypothetical protein&lt;br&gt;Location: 1343639 - 1344847" locus_tag="PFICI_06387" class="clusterblast-orf" id="dummy-1_h1_10_4"  />
</g>
<g id="a1_005"  >
<polygon points="240,85 245,80 265,80 265,90 245,90 240,85 " style="fill:white; stroke-width:1; stroke:black; " description="&lt;b&gt;PFICI_06388&lt;/b&gt;&lt;br&gt;hypothetical protein&lt;br&gt;Location: 1345003 - 1345947" locus_tag="PFICI_06388" class="clusterblast-orf" id="dummy-1_h1_10_5"  />
</g>
<g id="a1_006"  >
<polygon points="283,85 288,80 313,80 313,90 288,90 283,85 " style="fill:white; stroke-width:1; stroke:black; " description="&lt;b&gt;PFICI_06389&lt;/b&gt;&lt;br&gt;hypothetical protein&lt;br&gt;Location: 1346619 - 1347762" locus_tag="PFICI_06389" class="clusterblast-orf" id="dummy-1_h1_10_6"  />
</g>
<g id="a1_007"  >
<polygon points="325,90 360,90 365,85 360,80 325,80 325,90 " style="fill:#77d815; stroke-width:1; stroke:black; " description="&lt;b&gt;PFICI_06390&lt;/b&gt;&lt;br&gt;hypothetical protein&lt;br&gt;Location: 1348224 - 1349741&lt;br&gt;&lt;br&gt;&lt;b&gt;BlastP hit with input.path1.gene485&lt;/b&gt;&lt;br&gt;Percentage identity: 53&lt;br&gt;Percentage coverage: 100&lt;br&gt;BLAST bit score: 447&lt;br&gt;E-value: 5.08e-152" locus_tag="PFICI_06390" class="clusterblast-orf" id="dummy-1_h1_10_7"  />
</g>
<g id="a1_008"  >
<polygon points="380,85 385,80 412,80 412,90 385,90 380,85 " style="fill:#15d8d8; stroke-width:1; stroke:black; " description="&lt;b&gt;PFICI_06391&lt;/b&gt;&lt;br&gt;Geranylgeranyl pyrophosphate synthase&lt;br&gt;Location: 1350308 - 1351507&lt;br&gt;&lt;br&gt;&lt;b&gt;BlastP hit with input.path1.gene486&lt;/b&gt;&lt;br&gt;Percentage identity: 59&lt;br&gt;Percentage coverage: 95&lt;br&gt;BLAST bit score: 440&lt;br&gt;E-value: 1.86e-151" locus_tag="PFICI_06391" class="clusterblast-orf" id="dummy-1_h1_10_8"  />
</g>
<g id="a1_009"  >
<polygon points="476,90 496,90 501,85 496,80 476,80 476,90 " style="fill:#7715d8; stroke-width:1; stroke:black; " description="&lt;b&gt;PFICI_06392&lt;/b&gt;&lt;br&gt;hypothetical protein&lt;br&gt;Location: 1353906 - 1354844&lt;br&gt;&lt;br&gt;&lt;b&gt;BlastP hit with input.path1.gene487&lt;/b&gt;&lt;br&gt;Percentage identity: 64&lt;br&gt;Percentage coverage: 53&lt;br&gt;BLAST bit score: 336&lt;br&gt;E-value: 2.33e-110" locus_tag="PFICI_06392" class="clusterblast-orf" id="dummy-1_h1_10_9"  />
</g>
<g id="a1_0010"  >
<polygon points="512,85 517,80 549,80 549,90 517,90 512,85 " style="fill:white; stroke-width:1; stroke:black; " description="&lt;b&gt;PFICI_06393&lt;/b&gt;&lt;br&gt;hypothetical protein&lt;br&gt;Location: 1355291 - 1356679" locus_tag="PFICI_06393" class="clusterblast-orf" id="dummy-1_h1_10_10"  />
</g>
<g id="a1_0011"  >
<polygon points="578,85 583,80 595,80 595,90 583,90 578,85 " style="fill:white; stroke-width:1; stroke:black; " description="&lt;b&gt;PFICI_06394&lt;/b&gt;&lt;br&gt;hypothetical protein&lt;br&gt;Location: 1357753 - 1358406" locus_tag="PFICI_06394" class="clusterblast-orf" id="dummy-1_h1_10_11"  />
</g>
<g id="a1_0012"  >
<polygon points="669,90 687,90 692,85 687,80 669,80 669,90 " style="fill:white; stroke-width:1; stroke:black; " description="&lt;b&gt;PFICI_06395&lt;/b&gt;&lt;br&gt;hypothetical protein&lt;br&gt;Location: 1361188 - 1362063" locus_tag="PFICI_06395" class="clusterblast-orf" id="dummy-1_h1_10_12"  />
</g>
<g id="a1_0013"  >
<polygon points="712,85 717,80 737,80 737,90 717,90 712,85 " style="fill:white; stroke-width:1; stroke:black; " description="&lt;b&gt;PFICI_06396&lt;/b&gt;&lt;br&gt;hypothetical protein&lt;br&gt;Location: 1362839 - 1363771" locus_tag="PFICI_06396" class="clusterblast-orf" id="dummy-1_h1_10_13"  />
</g>
<g id="a1_0014"  >
<polygon points="750,90 759,90 764,85 759,80 750,80 750,90 " style="fill:white; stroke-width:1; stroke:black; " description="&lt;b&gt;PFICI_06397&lt;/b&gt;&lt;br&gt;hypothetical protein&lt;br&gt;Location: 1364248 - 1364793" locus_tag="PFICI_06397" class="clusterblast-orf" id="dummy-1_h1_10_14"  />
</g>
<g id="a1_0015"  >
<polygon points="771,90 775,90 780,85 775,80 771,80 771,90 " style="fill:white; stroke-width:1; stroke:black; " description="&lt;b&gt;PFICI_06398&lt;/b&gt;&lt;br&gt;hypothetical protein&lt;br&gt;Location: 1365039 - 1365370" locus_tag="PFICI_06398" class="clusterblast-orf" id="dummy-1_h1_10_15"  />
</g>
</svg>
