<svg xmlns="http://www.w3.org/2000/svg" xmlns:xlink="http://www.w3.org/1999/xlink" version="1.1" x="0" y="0" height="230" width="800" viewBox="0 0 800 230" preserveAspectRatio="none"  >
<g label="Query sequence" class="clusterblast-cluster"  >
<text x="5" y="20" class="clusterblast-acc"  >
Query sequence</text>
<line x1="10" y1="35" x2="778.0" y2="35" style="stroke-width:1; stroke:grey; "  />
<polygon points="212,35 217,30 272,30 272,40 217,40 212,35 " style="fill:#d81515; stroke-width:1; stroke:black; " description="&lt;b&gt;input.path1.gene1091&lt;/b&gt;&lt;br&gt;input.path1.gene1091&lt;br&gt;Location: 3830585 - 3834861" locus_tag="input.path1.gene1091" class="clusterblast-orf" id="dummy-5_q0_0_all"  />
<polygon points="307,40 320,40 325,35 320,30 307,30 307,40 " style="fill:#4dd815; stroke-width:1; stroke:black; " description="&lt;b&gt;input.path1.gene1092&lt;/b&gt;&lt;br&gt;input.path1.gene1092&lt;br&gt;Location: 3837311 - 3838560" locus_tag="input.path1.gene1092" class="clusterblast-orf" id="dummy-5_q1_0_all"  />
<polygon points="328,35 333,30 354,30 354,40 333,40 328,35 " style="fill:#1585d8; stroke-width:1; stroke:black; " description="&lt;b&gt;input.path1.gene1093&lt;/b&gt;&lt;br&gt;input.path1.gene1093&lt;br&gt;Location: 3838838 - 3840619" locus_tag="input.path1.gene1093" class="clusterblast-orf" id="dummy-5_q2_0_all"  />
<polygon points="382,40 397,40 402,35 397,30 382,30 382,40 " style="fill:#d815bc; stroke-width:1; stroke:black; " description="&lt;b&gt;input.path1.gene1094&lt;/b&gt;&lt;br&gt;input.path1.gene1094&lt;br&gt;Location: 3842631 - 3844050" locus_tag="input.path1.gene1094" class="clusterblast-orf" id="dummy-5_q3_0_all"  />
<polygon points="406,35 411,30 431,30 431,40 411,40 406,35 " style="fill:#d8bc15; stroke-width:1; stroke:black; " description="&lt;b&gt;input.path1.gene1095&lt;/b&gt;&lt;br&gt;input.path1.gene1095&lt;br&gt;Location: 3844328 - 3846119" locus_tag="input.path1.gene1095" class="clusterblast-orf" id="dummy-5_q4_0_all"  />
<polygon points="470,40 535,40 540,35 535,30 470,30 470,40 " style="fill:#15d885; stroke-width:1; stroke:black; " description="&lt;b&gt;input.path1.gene1096&lt;/b&gt;&lt;br&gt;input.path1.gene1096&lt;br&gt;Location: 3848858 - 3853856" locus_tag="input.path1.gene1096" class="clusterblast-orf" id="dummy-5_q5_0_all"  />
<polygon points="546,35 551,30 567,30 567,40 551,40 546,35 " style="fill:#4d15d8; stroke-width:1; stroke:black; " description="&lt;b&gt;input.path1.gene1097&lt;/b&gt;&lt;br&gt;input.path1.gene1097&lt;br&gt;Location: 3854285 - 3855777" locus_tag="input.path1.gene1097" class="clusterblast-orf" id="dummy-5_q6_0_all"  />
</g>
<g label="NW_006711167" description="NW_006711167 (506611-572053): Trichoderma reesei QM6a unplaced genomic scaffo... (42% of genes show similarity), NRPS" class="clusterblast-cluster"  >
<text x="5" y="70" class="clusterblast-acc"  >
<a xlink:href="https://antismash-db.secondarymetabolites.org/area?record=NW_006711167&amp;start=506611&amp;end=572053" target="_blank">NW_006711167 (506611-572053)</a>: Trichoderma reesei QM6a unplaced genomic scaffo... (42% of genes show similarity), NRPS</text>
<line x1="10" y1="85" x2="778.0" y2="85" style="stroke-width:1; stroke:grey; "  />
</g>
<g id="a5_000"  >
<polygon points="0,90 4,85 0,80 0,90 " style="fill:white; stroke-width:1; stroke:black; " description="&lt;b&gt;TRIREDRAFT_110496&lt;/b&gt;&lt;br&gt;uncharacterized protein&lt;br&gt;Location: 509385 - 509681" locus_tag="TRIREDRAFT_110496" class="clusterblast-orf" id="dummy-5_h5_3_0"  />
</g>
<g id="a5_001"  >
<polygon points="8,85 13,80 102,80 102,90 13,90 8,85 " style="fill:white; stroke-width:1; stroke:black; " description="&lt;b&gt;TRIREDRAFT_80784&lt;/b&gt;&lt;br&gt;uncharacterized protein&lt;br&gt;Location: 509958 - 516684" locus_tag="TRIREDRAFT_80784" class="clusterblast-orf" id="dummy-5_h5_3_1"  />
</g>
<g id="a5_002"  >
<polygon points="121,85 126,80 181,80 181,90 126,90 121,85 " style="fill:#d81515; stroke-width:1; stroke:black; " description="&lt;b&gt;TRIREDRAFT_110499&lt;/b&gt;&lt;br&gt;uncharacterized protein&lt;br&gt;Location: 518013 - 522275&lt;br&gt;&lt;br&gt;&lt;b&gt;BlastP hit with input.path1.gene1091&lt;/b&gt;&lt;br&gt;Percentage identity: 70&lt;br&gt;Percentage coverage: 95&lt;br&gt;BLAST bit score: 1747&lt;br&gt;E-value: 0.0" locus_tag="TRIREDRAFT_110499" class="clusterblast-orf" id="dummy-5_h5_3_2"  />
</g>
<g id="a5_003"  >
<polygon points="203,90 219,90 224,85 219,80 203,80 203,90 " style="fill:#4dd815; stroke-width:1; stroke:black; " description="&lt;b&gt;TRIREDRAFT_5206&lt;/b&gt;&lt;br&gt;uncharacterized protein&lt;br&gt;Location: 523796 - 525332&lt;br&gt;&lt;br&gt;&lt;b&gt;BlastP hit with input.path1.gene1092&lt;/b&gt;&lt;br&gt;Percentage identity: 62&lt;br&gt;Percentage coverage: 98&lt;br&gt;BLAST bit score: 459&lt;br&gt;E-value: 2.21e-159" locus_tag="TRIREDRAFT_5206" class="clusterblast-orf" id="dummy-5_h5_3_3"  />
</g>
<g id="a5_004"  >
<polygon points="231,85 236,80 260,80 260,90 236,90 231,85 " style="fill:#1585d8; stroke-width:1; stroke:black; " description="&lt;b&gt;TRIREDRAFT_67026&lt;/b&gt;&lt;br&gt;uncharacterized protein&lt;br&gt;Location: 525837 - 527838&lt;br&gt;&lt;br&gt;&lt;b&gt;BlastP hit with input.path1.gene1093&lt;/b&gt;&lt;br&gt;Percentage identity: 38&lt;br&gt;Percentage coverage: 128&lt;br&gt;BLAST bit score: 299&lt;br&gt;E-value: 3.86e-94" locus_tag="TRIREDRAFT_67026" class="clusterblast-orf" id="dummy-5_h5_3_4"  />
</g>
<g id="a5_005"  >
<polygon points="304,90 319,90 324,85 319,80 304,80 304,90 " style="fill:#d815bc; stroke-width:1; stroke:black; " description="&lt;b&gt;TRIREDRAFT_67109&lt;/b&gt;&lt;br&gt;uncharacterized protein&lt;br&gt;Location: 530969 - 532408&lt;br&gt;&lt;br&gt;&lt;b&gt;BlastP hit with input.path1.gene1094&lt;/b&gt;&lt;br&gt;Percentage identity: 67&lt;br&gt;Percentage coverage: 109&lt;br&gt;BLAST bit score: 606&lt;br&gt;E-value: 3.98e-216" locus_tag="TRIREDRAFT_67109" class="clusterblast-orf" id="dummy-5_h5_3_5"  />
</g>
<g id="a5_006"  >
<polygon points="328,85 333,80 355,80 355,90 333,90 328,85 " style="fill:#d8bc15; stroke-width:1; stroke:black; " description="&lt;b&gt;TRIREDRAFT_66999&lt;/b&gt;&lt;br&gt;uncharacterized protein&lt;br&gt;Location: 532659 - 534585&lt;br&gt;&lt;br&gt;&lt;b&gt;BlastP hit with input.path1.gene1095&lt;/b&gt;&lt;br&gt;Percentage identity: 80&lt;br&gt;Percentage coverage: 101&lt;br&gt;BLAST bit score: 943&lt;br&gt;E-value: 0.0" locus_tag="TRIREDRAFT_66999" class="clusterblast-orf" id="dummy-5_h5_3_6"  />
</g>
<g id="a5_007"  >
<polygon points="383,90 455,90 460,85 455,80 383,80 383,90 " style="fill:#15d885; stroke-width:1; stroke:black; " description="&lt;b&gt;TRIREDRAFT_67189&lt;/b&gt;&lt;br&gt;non-ribosomal peptide synthetase&lt;br&gt;Location: 536612 - 542053&lt;br&gt;&lt;br&gt;&lt;b&gt;BlastP hit with input.path1.gene1096&lt;/b&gt;&lt;br&gt;Percentage identity: 61&lt;br&gt;Percentage coverage: 102&lt;br&gt;BLAST bit score: 1919&lt;br&gt;E-value: 0.0" locus_tag="TRIREDRAFT_67189" class="clusterblast-orf" id="dummy-5_h5_3_7"  />
</g>
<g id="a5_008"  >
<polygon points="468,85 473,80 511,80 511,90 473,90 468,85 " style="fill:white; stroke-width:1; stroke:black; " description="&lt;b&gt;TRIREDRAFT_123354&lt;/b&gt;&lt;br&gt;uncharacterized protein&lt;br&gt;Location: 542649 - 545703" locus_tag="TRIREDRAFT_123354" class="clusterblast-orf" id="dummy-5_h5_3_8"  />
</g>
<g id="a5_009"  >
<polygon points="584,85 589,80 605,80 605,90 589,90 584,85 " style="fill:white; stroke-width:1; stroke:black; " description="&lt;b&gt;TRIREDRAFT_110507&lt;/b&gt;&lt;br&gt;uncharacterized protein&lt;br&gt;Location: 550836 - 552346" locus_tag="TRIREDRAFT_110507" class="clusterblast-orf" id="dummy-5_h5_3_9"  />
</g>
<g id="a5_0010"  >
<polygon points="634,90 646,90 651,85 646,80 634,80 634,90 " style="fill:white; stroke-width:1; stroke:black; " description="&lt;b&gt;TRIREDRAFT_80788&lt;/b&gt;&lt;br&gt;uncharacterized protein&lt;br&gt;Location: 554431 - 555644" locus_tag="TRIREDRAFT_80788" class="clusterblast-orf" id="dummy-5_h5_3_10"  />
</g>
<g id="a5_0011"  >
<polygon points="658,85 663,80 719,80 719,90 663,90 658,85 " style="fill:white; stroke-width:1; stroke:black; " description="&lt;b&gt;TRIREDRAFT_110509&lt;/b&gt;&lt;br&gt;uncharacterized protein&lt;br&gt;Location: 556123 - 560454" locus_tag="TRIREDRAFT_110509" class="clusterblast-orf" id="dummy-5_h5_3_11"  />
</g>
<g id="a5_0012"  >
<polygon points="741,90 750,90 755,85 750,80 741,80 741,90 " style="fill:white; stroke-width:1; stroke:black; " description="&lt;b&gt;TRIREDRAFT_5209&lt;/b&gt;&lt;br&gt;Ras-GTPase&lt;br&gt;Location: 562019 - 563016" locus_tag="TRIREDRAFT_5209" class="clusterblast-orf" id="dummy-5_h5_3_12"  />
</g>
<g id="a5_0013"  >
<polygon points="765,90 775,90 780,85 775,80 765,80 765,90 " style="fill:white; stroke-width:1; stroke:black; " description="&lt;b&gt;TRIREDRAFT_80792&lt;/b&gt;&lt;br&gt;uncharacterized protein&lt;br&gt;Location: 563667 - 564729" locus_tag="TRIREDRAFT_80792" class="clusterblast-orf" id="dummy-5_h5_3_13"  />
</g>
</svg>
