<svg xmlns="http://www.w3.org/2000/svg" xmlns:xlink="http://www.w3.org/1999/xlink" version="1.1" x="0" y="0" height="230" width="800" viewBox="0 0 800 230" preserveAspectRatio="none"  >
<g label="Query sequence" class="clusterblast-cluster"  >
<text x="5" y="20" class="clusterblast-acc"  >
Query sequence</text>
<line x1="10" y1="35" x2="778.0" y2="35" style="stroke-width:1; stroke:grey; "  />
<polygon points="150,40 158,40 163,35 158,30 150,30 150,40 " style="fill:#d81515; stroke-width:1; stroke:black; " description="&lt;b&gt;input.path1.gene572&lt;/b&gt;&lt;br&gt;input.path1.gene572&lt;br&gt;Location: 1895213 - 1896810" locus_tag="input.path1.gene572" class="clusterblast-orf" id="dummy-7_q0_0_all"  />
<polygon points="165,35 170,30 179,30 179,40 170,40 165,35 " style="fill:white; stroke-width:1; stroke:black; " description="&lt;b&gt;input.path1.gene573&lt;/b&gt;&lt;br&gt;input.path1.gene573&lt;br&gt;Location: 1897101 - 1898847" locus_tag="input.path1.gene573" class="clusterblast-orf" id="dummy-7_q1_0_all"  />
<polygon points="184,40 202,40 207,35 202,30 184,30 184,40 " style="fill:white; stroke-width:1; stroke:black; " description="&lt;b&gt;input.path1.gene574&lt;/b&gt;&lt;br&gt;input.path1.gene574&lt;br&gt;Location: 1899480 - 1902357" locus_tag="input.path1.gene574" class="clusterblast-orf" id="dummy-7_q2_0_all"  />
<polygon points="225,35 230,30 231,30 231,40 230,40 225,35 " style="fill:white; stroke-width:1; stroke:black; " description="&lt;b&gt;input.path1.gene575&lt;/b&gt;&lt;br&gt;input.path1.gene575&lt;br&gt;Location: 1904621 - 1905338" locus_tag="input.path1.gene575" class="clusterblast-orf" id="dummy-7_q3_0_all"  />
<polygon points="232,40 246,40 251,35 246,30 232,30 232,40 " style="fill:white; stroke-width:1; stroke:black; " description="&lt;b&gt;input.path1.gene576&lt;/b&gt;&lt;br&gt;input.path1.gene576&lt;br&gt;Location: 1905467 - 1907881" locus_tag="input.path1.gene576" class="clusterblast-orf" id="dummy-7_q4_0_all"  />
<polygon points="251,35 256,30 302,30 302,40 256,40 251,35 " style="fill:#15d815; stroke-width:1; stroke:black; " description="&lt;b&gt;input.path1.gene577&lt;/b&gt;&lt;br&gt;input.path1.gene577&lt;br&gt;Location: 1907968 - 1914295" locus_tag="input.path1.gene577" class="clusterblast-orf" id="dummy-7_q5_0_all"  />
<polygon points="316,40 317,40 322,35 317,30 316,30 316,40 " style="fill:white; stroke-width:1; stroke:black; " description="&lt;b&gt;input.path1.gene578&lt;/b&gt;&lt;br&gt;input.path1.gene578&lt;br&gt;Location: 1916137 - 1916822" locus_tag="input.path1.gene578" class="clusterblast-orf" id="dummy-7_q6_0_all"  />
<polygon points="331,40 332,40 337,35 332,30 331,30 331,40 " style="fill:white; stroke-width:1; stroke:black; " description="&lt;b&gt;input.path1.gene579&lt;/b&gt;&lt;br&gt;input.path1.gene579&lt;br&gt;Location: 1918015 - 1918744" locus_tag="input.path1.gene579" class="clusterblast-orf" id="dummy-7_q7_0_all"  />
<polygon points="337,35 342,30 351,30 351,40 342,40 337,35 " style="fill:#1515d8; stroke-width:1; stroke:black; " description="&lt;b&gt;input.path1.gene580&lt;/b&gt;&lt;br&gt;input.path1.gene580&lt;br&gt;Location: 1918801 - 1920499" locus_tag="input.path1.gene580" class="clusterblast-orf" id="dummy-7_q8_0_all"  />
<polygon points="355,40 363,40 368,35 363,30 355,30 355,40 " style="fill:#d815d8; stroke-width:1; stroke:black; " description="&lt;b&gt;input.path1.gene581&lt;/b&gt;&lt;br&gt;input.path1.gene581&lt;br&gt;Location: 1921070 - 1922615" locus_tag="input.path1.gene581" class="clusterblast-orf" id="dummy-7_q9_0_all"  />
<polygon points="369,35 373,30 373,40 369,35 " style="fill:white; stroke-width:1; stroke:black; " description="&lt;b&gt;input.path1.gene582&lt;/b&gt;&lt;br&gt;input.path1.gene582&lt;br&gt;Location: 1922794 - 1923299" locus_tag="input.path1.gene582" class="clusterblast-orf" id="dummy-7_q10_0_all"  />
<polygon points="385,40 407,40 412,35 407,30 385,30 385,40 " style="fill:#d8d815; stroke-width:1; stroke:black; " description="&lt;b&gt;input.path1.gene583&lt;/b&gt;&lt;br&gt;input.path1.gene583&lt;br&gt;Location: 1924817 - 1928231" locus_tag="input.path1.gene583" class="clusterblast-orf" id="dummy-7_q11_0_all"  />
<polygon points="414,35 419,30 426,30 426,40 419,40 414,35 " style="fill:white; stroke-width:1; stroke:black; " description="&lt;b&gt;input.path1.gene584&lt;/b&gt;&lt;br&gt;input.path1.gene584&lt;br&gt;Location: 1928470 - 1930000" locus_tag="input.path1.gene584" class="clusterblast-orf" id="dummy-7_q12_0_all"  />
<polygon points="437,40 469,40 474,35 469,30 437,30 437,40 " style="fill:white; stroke-width:1; stroke:black; " description="&lt;b&gt;input.path1.gene585&lt;/b&gt;&lt;br&gt;input.path1.gene585&lt;br&gt;Location: 1931379 - 1936059" locus_tag="input.path1.gene585" class="clusterblast-orf" id="dummy-7_q13_0_all"  />
<polygon points="526,40 536,40 541,35 536,30 526,30 526,40 " style="fill:#15d8d8; stroke-width:1; stroke:black; " description="&lt;b&gt;input.path1.gene586&lt;/b&gt;&lt;br&gt;input.path1.gene586&lt;br&gt;Location: 1942539 - 1944541" locus_tag="input.path1.gene586" class="clusterblast-orf" id="dummy-7_q14_0_all"  />
<polygon points="606,40 624,40 629,35 624,30 606,30 606,40 " style="fill:white; stroke-width:1; stroke:black; " description="&lt;b&gt;input.path1.gene587&lt;/b&gt;&lt;br&gt;input.path1.gene587&lt;br&gt;Location: 1952743 - 1955563" locus_tag="input.path1.gene587" class="clusterblast-orf" id="dummy-7_q15_0_all"  />
</g>
<g label="NC_054696" description="NC_054696 (447919-551926): Aspergillus flavus NRRL3357 chromosome 6, complete... (6% of genes show similarity), fungal-RiPP-like,indole" class="clusterblast-cluster"  >
<text x="5" y="70" class="clusterblast-acc"  >
<a xlink:href="https://antismash-db.secondarymetabolites.org/area?record=NC_054696&amp;start=447919&amp;end=551926" target="_blank">NC_054696 (447919-551926)</a>: Aspergillus flavus NRRL3357 chromosome 6, complete... (6% of genes show similarity), fungal-RiPP-like,indole</text>
<line x1="10" y1="85" x2="778.0" y2="85" style="stroke-width:1; stroke:grey; "  />
</g>
<g id="a7_000"  >
<polygon points="0,90 8,90 13,85 8,80 0,80 0,90 " style="fill:white; stroke-width:1; stroke:black; " description="&lt;b&gt;G4B84_009119&lt;/b&gt;&lt;br&gt;uncharacterized protein&lt;br&gt;Location: 450189 - 451835" locus_tag="G4B84_009119" class="clusterblast-orf" id="dummy-7_h7_1_0"  />
</g>
<g id="a7_001"  >
<polygon points="18,85 23,80 25,80 25,90 23,90 18,85 " style="fill:white; stroke-width:1; stroke:black; " description="&lt;b&gt;G4B84_009120&lt;/b&gt;&lt;br&gt;uncharacterized protein&lt;br&gt;Location: 452472 - 453377" locus_tag="G4B84_009120" class="clusterblast-orf" id="dummy-7_h7_1_1"  />
</g>
<g id="a7_002"  >
<polygon points="31,90 38,90 43,85 38,80 31,80 31,90 " style="fill:white; stroke-width:1; stroke:black; " description="&lt;b&gt;G4B84_009121&lt;/b&gt;&lt;br&gt;uncharacterized protein&lt;br&gt;Location: 454134 - 455625" locus_tag="G4B84_009121" class="clusterblast-orf" id="dummy-7_h7_1_2"  />
</g>
<g id="a7_003"  >
<polygon points="46,90 64,90 69,85 64,80 46,80 46,90 " style="fill:white; stroke-width:1; stroke:black; " description="&lt;b&gt;G4B84_009122&lt;/b&gt;&lt;br&gt;uncharacterized protein&lt;br&gt;Location: 455994 - 458929" locus_tag="G4B84_009122" class="clusterblast-orf" id="dummy-7_h7_1_3"  />
</g>
<g id="a7_004"  >
<polygon points="74,90 84,90 89,85 84,80 74,80 74,90 " style="fill:white; stroke-width:1; stroke:black; " description="&lt;b&gt;G4B84_009123&lt;/b&gt;&lt;br&gt;uncharacterized protein&lt;br&gt;Location: 459541 - 461417" locus_tag="G4B84_009123" class="clusterblast-orf" id="dummy-7_h7_1_4"  />
</g>
<g id="a7_005"  >
<polygon points="100,90 104,90 109,85 104,80 100,80 100,90 " style="fill:white; stroke-width:1; stroke:black; " description="&lt;b&gt;G4B84_009124&lt;/b&gt;&lt;br&gt;uncharacterized protein&lt;br&gt;Location: 462920 - 464047" locus_tag="G4B84_009124" class="clusterblast-orf" id="dummy-7_h7_1_5"  />
</g>
<g id="a7_006"  >
<polygon points="118,85 122,80 122,90 118,85 " style="fill:white; stroke-width:1; stroke:black; " description="&lt;b&gt;G4B84_009125&lt;/b&gt;&lt;br&gt;uncharacterized protein&lt;br&gt;Location: 465097 - 465669" locus_tag="G4B84_009125" class="clusterblast-orf" id="dummy-7_h7_1_6"  />
</g>
<g id="a7_007"  >
<polygon points="129,90 138,90 143,85 138,80 129,80 129,90 " style="fill:white; stroke-width:1; stroke:black; " description="&lt;b&gt;G4B84_009126&lt;/b&gt;&lt;br&gt;uncharacterized protein&lt;br&gt;Location: 466537 - 468270" locus_tag="G4B84_009126" class="clusterblast-orf" id="dummy-7_h7_1_7"  />
</g>
<g id="a7_008"  >
<polygon points="147,85 152,80 158,80 158,90 152,90 147,85 " style="fill:white; stroke-width:1; stroke:black; " description="&lt;b&gt;G4B84_009127&lt;/b&gt;&lt;br&gt;uncharacterized protein&lt;br&gt;Location: 468757 - 470192" locus_tag="G4B84_009127" class="clusterblast-orf" id="dummy-7_h7_1_8"  />
</g>
<g id="a7_009"  >
<polygon points="163,85 168,80 186,80 186,90 168,90 163,85 " style="fill:white; stroke-width:1; stroke:black; " description="&lt;b&gt;G4B84_009128&lt;/b&gt;&lt;br&gt;uncharacterized protein&lt;br&gt;Location: 470787 - 473657" locus_tag="G4B84_009128" class="clusterblast-orf" id="dummy-7_h7_1_9"  />
</g>
<g id="a7_0010"  >
<polygon points="190,85 195,80 199,80 199,90 195,90 190,85 " style="fill:white; stroke-width:1; stroke:black; " description="&lt;b&gt;G4B84_009129&lt;/b&gt;&lt;br&gt;uncharacterized protein&lt;br&gt;Location: 474262 - 475351" locus_tag="G4B84_009129" class="clusterblast-orf" id="dummy-7_h7_1_10"  />
</g>
<g id="a7_0011"  >
<polygon points="208,85 213,80 218,80 218,90 213,90 208,85 " style="fill:white; stroke-width:1; stroke:black; " description="&lt;b&gt;G4B84_009130&lt;/b&gt;&lt;br&gt;uncharacterized protein&lt;br&gt;Location: 476450 - 477809" locus_tag="G4B84_009130" class="clusterblast-orf" id="dummy-7_h7_1_11"  />
</g>
<g id="a7_0012"  >
<polygon points="233,85 238,80 296,80 296,90 238,90 233,85 " style="fill:white; stroke-width:1; stroke:black; " description="&lt;b&gt;G4B84_009131&lt;/b&gt;&lt;br&gt;uncharacterized protein&lt;br&gt;Location: 479610 - 487588" locus_tag="G4B84_009131" class="clusterblast-orf" id="dummy-7_h7_1_12"  />
</g>
<g id="a7_0013"  >
<polygon points="309,90 316,90 321,85 316,80 309,80 309,90 " style="fill:white; stroke-width:1; stroke:black; " description="&lt;b&gt;G4B84_009132&lt;/b&gt;&lt;br&gt;uncharacterized protein&lt;br&gt;Location: 489185 - 490794" locus_tag="G4B84_009132" class="clusterblast-orf" id="dummy-7_h7_1_13"  />
</g>
<g id="a7_0014"  >
<polygon points="334,85 339,80 340,80 340,90 339,90 334,85 " style="fill:white; stroke-width:1; stroke:black; " description="&lt;b&gt;G4B84_009133&lt;/b&gt;&lt;br&gt;uncharacterized protein&lt;br&gt;Location: 492355 - 493168" locus_tag="G4B84_009133" class="clusterblast-orf" id="dummy-7_h7_1_14"  />
</g>
<g id="a7_0015"  >
<polygon points="356,90 391,90 396,85 391,80 356,80 356,90 " style="fill:#15d815; stroke-width:1; stroke:black; " description="&lt;b&gt;G4B84_009134&lt;/b&gt;&lt;br&gt;uncharacterized protein&lt;br&gt;Location: 495144 - 500195&lt;br&gt;&lt;br&gt;&lt;b&gt;BlastP hit with input.path1.gene577&lt;/b&gt;&lt;br&gt;Percentage identity: 31&lt;br&gt;Percentage coverage: 86&lt;br&gt;BLAST bit score: 600&lt;br&gt;E-value: 9.26e-183" locus_tag="G4B84_009134" class="clusterblast-orf" id="dummy-7_h7_1_15"  />
</g>
<g id="a7_0016"  >
<polygon points="406,90 407,90 412,85 407,80 406,80 406,90 " style="fill:white; stroke-width:1; stroke:black; " description="&lt;b&gt;G4B84_009135&lt;/b&gt;&lt;br&gt;uncharacterized protein&lt;br&gt;Location: 501462 - 502250" locus_tag="G4B84_009135" class="clusterblast-orf" id="dummy-7_h7_1_16"  />
</g>
<g id="a7_0017"  >
<polygon points="420,90 421,90 426,85 421,80 420,80 420,90 " style="fill:white; stroke-width:1; stroke:black; " description="&lt;b&gt;G4B84_009136&lt;/b&gt;&lt;br&gt;uncharacterized protein&lt;br&gt;Location: 503258 - 504022" locus_tag="G4B84_009136" class="clusterblast-orf" id="dummy-7_h7_1_17"  />
</g>
<g id="a7_0018"  >
<polygon points="429,85 433,80 433,90 429,85 " style="fill:white; stroke-width:1; stroke:black; " description="&lt;b&gt;G4B84_009137&lt;/b&gt;&lt;br&gt;uncharacterized protein&lt;br&gt;Location: 504342 - 504837" locus_tag="G4B84_009137" class="clusterblast-orf" id="dummy-7_h7_1_18"  />
</g>
<g id="a7_0019"  >
<polygon points="441,90 444,90 449,85 444,80 441,80 441,90 " style="fill:#d8d815; stroke-width:1; stroke:black; " description="&lt;b&gt;G4B84_009138&lt;/b&gt;&lt;br&gt;uncharacterized protein&lt;br&gt;Location: 505894 - 506926&lt;br&gt;&lt;br&gt;&lt;b&gt;BlastP hit with input.path1.gene583&lt;/b&gt;&lt;br&gt;Percentage identity: 36&lt;br&gt;Percentage coverage: 25&lt;br&gt;BLAST bit score: 107&lt;br&gt;E-value: 1.67e-23" locus_tag="G4B84_009138" class="clusterblast-orf" id="dummy-7_h7_1_19"  />
</g>
<g id="a7_0020"  >
<polygon points="470,85 475,80 480,80 480,90 475,90 470,85 " style="fill:white; stroke-width:1; stroke:black; " description="&lt;b&gt;G4B84_009139&lt;/b&gt;&lt;br&gt;uncharacterized protein&lt;br&gt;Location: 509504 - 510778" locus_tag="G4B84_009139" class="clusterblast-orf" id="dummy-7_h7_1_20"  />
</g>
<g id="a7_0021"  >
<polygon points="495,85 500,80 503,80 503,90 500,90 495,85 " style="fill:white; stroke-width:1; stroke:black; " description="&lt;b&gt;G4B84_009140&lt;/b&gt;&lt;br&gt;uncharacterized protein&lt;br&gt;Location: 512754 - 513698" locus_tag="G4B84_009140" class="clusterblast-orf" id="dummy-7_h7_1_21"  />
</g>
<g id="a7_0022"  >
<polygon points="511,90 514,90 519,85 514,80 511,80 511,90 " style="fill:white; stroke-width:1; stroke:black; " description="&lt;b&gt;G4B84_009141&lt;/b&gt;&lt;br&gt;uncharacterized protein&lt;br&gt;Location: 514727 - 515728" locus_tag="G4B84_009141" class="clusterblast-orf" id="dummy-7_h7_1_22"  />
</g>
<g id="a7_0023"  >
<polygon points="564,90 594,90 599,85 594,80 564,80 564,90 " style="fill:white; stroke-width:1; stroke:black; " description="&lt;b&gt;G4B84_009142&lt;/b&gt;&lt;br&gt;uncharacterized protein&lt;br&gt;Location: 521432 - 525844" locus_tag="G4B84_009142" class="clusterblast-orf" id="dummy-7_h7_1_23"  />
</g>
<g id="a7_0024"  >
<polygon points="604,85 609,80 613,80 613,90 609,90 604,85 " style="fill:white; stroke-width:1; stroke:black; " description="&lt;b&gt;G4B84_009143&lt;/b&gt;&lt;br&gt;uncharacterized protein&lt;br&gt;Location: 526506 - 527560" locus_tag="G4B84_009143" class="clusterblast-orf" id="dummy-7_h7_1_24"  />
</g>
<g id="a7_0025"  >
<polygon points="636,85 641,80 648,80 648,90 641,90 636,85 " style="fill:white; stroke-width:1; stroke:black; " description="&lt;b&gt;G4B84_009144&lt;/b&gt;&lt;br&gt;uncharacterized protein&lt;br&gt;Location: 530518 - 532056" locus_tag="G4B84_009144" class="clusterblast-orf" id="dummy-7_h7_1_25"  />
</g>
<g id="a7_0026"  >
<polygon points="653,90 656,90 661,85 656,80 653,80 653,90 " style="fill:white; stroke-width:1; stroke:black; " description="&lt;b&gt;G4B84_009145&lt;/b&gt;&lt;br&gt;uncharacterized protein&lt;br&gt;Location: 532645 - 533650" locus_tag="G4B84_009145" class="clusterblast-orf" id="dummy-7_h7_1_26"  />
</g>
<g id="a7_0027"  >
<polygon points="674,90 680,90 685,85 680,80 674,80 674,90 " style="fill:white; stroke-width:1; stroke:black; " description="&lt;b&gt;G4B84_009146&lt;/b&gt;&lt;br&gt;uncharacterized protein&lt;br&gt;Location: 535239 - 536719" locus_tag="G4B84_009146" class="clusterblast-orf" id="dummy-7_h7_1_27"  />
</g>
<g id="a7_0028"  >
<polygon points="687,85 692,80 708,80 708,90 692,90 687,85 " style="fill:white; stroke-width:1; stroke:black; " description="&lt;b&gt;G4B84_009147&lt;/b&gt;&lt;br&gt;uncharacterized protein&lt;br&gt;Location: 536889 - 539604" locus_tag="G4B84_009147" class="clusterblast-orf" id="dummy-7_h7_1_28"  />
</g>
<g id="a7_0029"  >
<polygon points="710,90 722,90 727,85 722,80 710,80 710,90 " style="fill:white; stroke-width:1; stroke:black; " description="&lt;b&gt;G4B84_009148&lt;/b&gt;&lt;br&gt;uncharacterized protein&lt;br&gt;Location: 539806 - 542013" locus_tag="G4B84_009148" class="clusterblast-orf" id="dummy-7_h7_1_29"  />
</g>
<g id="a7_0030"  >
<polygon points="733,90 752,90 757,85 752,80 733,80 733,90 " style="fill:white; stroke-width:1; stroke:black; " description="&lt;b&gt;G4B84_009149&lt;/b&gt;&lt;br&gt;uncharacterized protein&lt;br&gt;Location: 542770 - 545804" locus_tag="G4B84_009149" class="clusterblast-orf" id="dummy-7_h7_1_30"  />
</g>
<g id="a7_0031"  >
<polygon points="769,85 774,80 780,80 780,90 774,90 769,85 " style="fill:white; stroke-width:1; stroke:black; " description="&lt;b&gt;G4B84_009150&lt;/b&gt;&lt;br&gt;uncharacterized protein&lt;br&gt;Location: 547275 - 548584" locus_tag="G4B84_009150" class="clusterblast-orf" id="dummy-7_h7_1_31"  />
</g>
</svg>
