<svg xmlns="http://www.w3.org/2000/svg" xmlns:xlink="http://www.w3.org/1999/xlink" version="1.1" x="0" y="0" height="230" width="800" viewBox="0 0 800 230" preserveAspectRatio="none"  >
<g label="Query sequence" class="clusterblast-cluster"  >
<text x="5" y="20" class="clusterblast-acc"  >
Query sequence</text>
<line x1="10" y1="35" x2="778.0" y2="35" style="stroke-width:1; stroke:grey; "  />
<polygon points="91,35 96,30 109,30 109,40 96,40 91,35 " style="fill:white; stroke-width:1; stroke:black; " description="&lt;b&gt;input.path1.gene664&lt;/b&gt;&lt;br&gt;input.path1.gene664&lt;br&gt;Location: 2200642 - 2201447" locus_tag="input.path1.gene664" class="clusterblast-orf" id="dummy-2_q0_0_all"  />
<polygon points="140,40 168,40 173,35 168,30 140,30 140,40 " style="fill:#d81515; stroke-width:1; stroke:black; " description="&lt;b&gt;input.path1.gene665&lt;/b&gt;&lt;br&gt;input.path1.gene665&lt;br&gt;Location: 2202762 - 2204155" locus_tag="input.path1.gene665" class="clusterblast-orf" id="dummy-2_q1_0_all"  />
<polygon points="183,35 188,30 206,30 206,40 188,40 183,35 " style="fill:white; stroke-width:1; stroke:black; " description="&lt;b&gt;input.path1.gene666&lt;/b&gt;&lt;br&gt;input.path1.gene666&lt;br&gt;Location: 2204574 - 2205558" locus_tag="input.path1.gene666" class="clusterblast-orf" id="dummy-2_q2_0_all"  />
<polygon points="315,40 358,40 363,35 358,30 315,30 315,40 " style="fill:#77d815; stroke-width:1; stroke:black; " description="&lt;b&gt;input.path1.gene667&lt;/b&gt;&lt;br&gt;input.path1.gene667&lt;br&gt;Location: 2210238 - 2212263" locus_tag="input.path1.gene667" class="clusterblast-orf" id="dummy-2_q3_0_all"  />
<polygon points="369,35 374,30 464,30 464,40 374,40 369,35 " style="fill:#15d8d8; stroke-width:1; stroke:black; " description="&lt;b&gt;input.path1.gene668&lt;/b&gt;&lt;br&gt;input.path1.gene668&lt;br&gt;Location: 2212520 - 2216576" locus_tag="input.path1.gene668" class="clusterblast-orf" id="dummy-2_q4_0_all"  />
<polygon points="557,40 567,40 572,35 567,30 557,30 557,40 " style="fill:#7715d8; stroke-width:1; stroke:black; " description="&lt;b&gt;input.path1.gene669&lt;/b&gt;&lt;br&gt;input.path1.gene669&lt;br&gt;Location: 2220578 - 2221203" locus_tag="input.path1.gene669" class="clusterblast-orf" id="dummy-2_q5_0_all"  />
<polygon points="574,35 579,30 600,30 600,40 579,40 574,35 " style="fill:white; stroke-width:1; stroke:black; " description="&lt;b&gt;input.path1.gene670&lt;/b&gt;&lt;br&gt;input.path1.gene670&lt;br&gt;Location: 2221281 - 2222381" locus_tag="input.path1.gene670" class="clusterblast-orf" id="dummy-2_q6_0_all"  />
<polygon points="639,35 644,30 689,30 689,40 644,40 639,35 " style="fill:white; stroke-width:1; stroke:black; " description="&lt;b&gt;input.path1.gene671&lt;/b&gt;&lt;br&gt;input.path1.gene671&lt;br&gt;Location: 2224076 - 2226196" locus_tag="input.path1.gene671" class="clusterblast-orf" id="dummy-2_q7_0_all"  />
</g>
<g label="NZ_CP116355" description="NZ_CP116355 (1431563-1465472): Streptomyces xanthophaeus strain KPP03845 chro... (8% of genes show similarity), NAPAA" class="clusterblast-cluster"  >
<text x="5" y="70" class="clusterblast-acc"  >
<a xlink:href="https://antismash-db.secondarymetabolites.org/area?record=NZ_CP116355&amp;start=1431563&amp;end=1465472" target="_blank">NZ_CP116355 (1431563-1465472)</a>: Streptomyces xanthophaeus strain KPP03845 chro... (8% of genes show similarity), NAPAA</text>
<line x1="10" y1="85" x2="778.0" y2="85" style="stroke-width:1; stroke:grey; "  />
</g>
<g id="a2_000"  >
<polygon points="0,90 9,90 14,85 9,80 0,80 0,90 " style="fill:white; stroke-width:1; stroke:black; " description="&lt;b&gt;KPP03845_RS06755&lt;/b&gt;&lt;br&gt;amino acid ABC transporter ATP-binding protein&lt;br&gt;Location: 1431575 - 1432174" locus_tag="KPP03845_RS06755" class="clusterblast-orf" id="dummy-2_h2_4_0"  />
</g>
<g id="a2_001"  >
<polygon points="15,85 20,80 58,80 58,90 20,90 15,85 " style="fill:white; stroke-width:1; stroke:black; " description="&lt;b&gt;KPP03845_RS06760&lt;/b&gt;&lt;br&gt;ABC transporter ATP-binding protein&lt;br&gt;Location: 1432253 - 1434064" locus_tag="KPP03845_RS06760" class="clusterblast-orf" id="dummy-2_h2_4_1"  />
</g>
<g id="a2_002"  >
<polygon points="60,85 65,80 108,80 108,90 65,90 60,85 " style="fill:white; stroke-width:1; stroke:black; " description="&lt;b&gt;KPP03845_RS06765&lt;/b&gt;&lt;br&gt;DNA helicase RecQ&lt;br&gt;Location: 1434179 - 1436200" locus_tag="KPP03845_RS06765" class="clusterblast-orf" id="dummy-2_h2_4_2"  />
</g>
<g id="a2_003"  >
<polygon points="112,90 130,90 135,85 130,80 112,80 112,90 " style="fill:white; stroke-width:1; stroke:black; " description="&lt;b&gt;KPP03845_RS06770&lt;/b&gt;&lt;br&gt;COX15/CtaA family protein&lt;br&gt;Location: 1436376 - 1437362" locus_tag="KPP03845_RS06770" class="clusterblast-orf" id="dummy-2_h2_4_3"  />
</g>
<g id="a2_004"  >
<polygon points="142,90 160,90 165,85 160,80 142,80 142,90 " style="fill:white; stroke-width:1; stroke:black; " description="&lt;b&gt;KPP03845_RS06775&lt;/b&gt;&lt;br&gt;ABC transporter substrate-binding protein&lt;br&gt;Location: 1437680 - 1438636" locus_tag="KPP03845_RS06775" class="clusterblast-orf" id="dummy-2_h2_4_4"  />
</g>
<g id="a2_005"  >
<polygon points="166,90 186,90 191,85 186,80 166,80 166,90 " style="fill:white; stroke-width:1; stroke:black; " description="&lt;b&gt;KPP03845_RS06780&lt;/b&gt;&lt;br&gt;iron ABC transporter permease&lt;br&gt;Location: 1438693 - 1439772" locus_tag="KPP03845_RS06780" class="clusterblast-orf" id="dummy-2_h2_4_5"  />
</g>
<g id="a2_006"  >
<polygon points="191,90 206,90 211,85 206,80 191,80 191,90 " style="fill:white; stroke-width:1; stroke:black; " description="&lt;b&gt;KPP03845_RS06785&lt;/b&gt;&lt;br&gt;ABC transporter ATP-binding protein&lt;br&gt;Location: 1439769 - 1440602" locus_tag="KPP03845_RS06785" class="clusterblast-orf" id="dummy-2_h2_4_6"  />
</g>
<g id="a2_007"  >
<polygon points="212,90 241,90 246,85 241,80 212,80 212,90 " style="fill:white; stroke-width:1; stroke:black; " description="&lt;b&gt;KPP03845_RS06790&lt;/b&gt;&lt;br&gt;hypothetical protein&lt;br&gt;Location: 1440670 - 1442121" locus_tag="KPP03845_RS06790" class="clusterblast-orf" id="dummy-2_h2_4_7"  />
</g>
<g id="a2_008"  >
<polygon points="248,90 273,90 278,85 273,80 248,80 248,90 " style="fill:white; stroke-width:1; stroke:black; " description="&lt;b&gt;KPP03845_RS06795&lt;/b&gt;&lt;br&gt;AAA family ATPase&lt;br&gt;Location: 1442204 - 1443454" locus_tag="KPP03845_RS06795" class="clusterblast-orf" id="dummy-2_h2_4_8"  />
</g>
<g id="a2_009"  >
<polygon points="278,90 302,90 307,85 302,80 278,80 278,90 " style="fill:white; stroke-width:1; stroke:black; " description="&lt;b&gt;KPP03845_RS06800&lt;/b&gt;&lt;br&gt;VWA-like domain-containing protein&lt;br&gt;Location: 1443451 - 1444692" locus_tag="KPP03845_RS06800" class="clusterblast-orf" id="dummy-2_h2_4_9"  />
</g>
<g id="a2_0010"  >
<polygon points="307,85 312,80 315,80 315,90 312,90 307,85 " style="fill:white; stroke-width:1; stroke:black; " description="&lt;b&gt;KPP03845_RS06805&lt;/b&gt;&lt;br&gt;hypothetical protein&lt;br&gt;Location: 1444718 - 1445050" locus_tag="KPP03845_RS06805" class="clusterblast-orf" id="dummy-2_h2_4_10"  />
</g>
<g id="a2_0011"  >
<polygon points="316,85 321,80 349,80 349,90 321,90 316,85 " style="fill:white; stroke-width:1; stroke:black; " description="&lt;b&gt;KPP03845_RS06810&lt;/b&gt;&lt;br&gt;M1 family metallopeptidase&lt;br&gt;Location: 1445099 - 1446490" locus_tag="KPP03845_RS06810" class="clusterblast-orf" id="dummy-2_h2_4_11"  />
</g>
<g id="a2_0012"  >
<polygon points="351,85 356,80 442,80 442,90 356,90 351,85 " style="fill:#15d8d8; stroke-width:1; stroke:black; " description="&lt;b&gt;KPP03845_RS06815&lt;/b&gt;&lt;br&gt;amino acid adenylation domain-containing protein&lt;br&gt;Location: 1446564 - 1450472&lt;br&gt;&lt;br&gt;&lt;b&gt;BlastP hit with input.path1.gene668&lt;/b&gt;&lt;br&gt;Percentage identity: 49&lt;br&gt;Percentage coverage: 96&lt;br&gt;BLAST bit score: 1095&lt;br&gt;E-value: 0.0" locus_tag="KPP03845_RS06815" class="clusterblast-orf" id="dummy-2_h2_4_12"  />
</g>
<g id="a2_0013"  >
<polygon points="446,85 451,80 466,80 466,90 451,90 446,85 " style="fill:white; stroke-width:1; stroke:black; " description="&lt;b&gt;KPP03845_RS06820&lt;/b&gt;&lt;br&gt;alpha/beta hydrolase&lt;br&gt;Location: 1450654 - 1451481" locus_tag="KPP03845_RS06820" class="clusterblast-orf" id="dummy-2_h2_4_13"  />
</g>
<g id="a2_0014"  >
<polygon points="468,90 478,90 483,85 478,80 468,80 468,90 " style="fill:white; stroke-width:1; stroke:black; " description="&lt;b&gt;KPP03845_RS06825&lt;/b&gt;&lt;br&gt;sigma-70 family RNA polymerase sigma factor&lt;br&gt;Location: 1451571 - 1452218" locus_tag="KPP03845_RS06825" class="clusterblast-orf" id="dummy-2_h2_4_14"  />
</g>
<g id="a2_0015"  >
<polygon points="484,85 489,80 549,80 549,90 489,90 484,85 " style="fill:white; stroke-width:1; stroke:black; " description="&lt;b&gt;KPP03845_RS06830&lt;/b&gt;&lt;br&gt;SpoIIE family protein phosphatase&lt;br&gt;Location: 1452246 - 1455023" locus_tag="KPP03845_RS06830" class="clusterblast-orf" id="dummy-2_h2_4_15"  />
</g>
<g id="a2_0016"  >
<polygon points="550,85 555,80 594,80 594,90 555,90 550,85 " style="fill:white; stroke-width:1; stroke:black; " description="&lt;b&gt;KPP03845_RS06835&lt;/b&gt;&lt;br&gt;VanW family protein&lt;br&gt;Location: 1455077 - 1456969" locus_tag="KPP03845_RS06835" class="clusterblast-orf" id="dummy-2_h2_4_16"  />
</g>
<g id="a2_0017"  >
<polygon points="600,85 605,80 634,80 634,90 605,90 600,85 " style="fill:white; stroke-width:1; stroke:black; " description="&lt;b&gt;KPP03845_RS06840&lt;/b&gt;&lt;br&gt;glyceraldehyde-3-phosphate dehydrogenase&lt;br&gt;Location: 1457202 - 1458647" locus_tag="KPP03845_RS06840" class="clusterblast-orf" id="dummy-2_h2_4_17"  />
</g>
<g id="a2_0018"  >
<polygon points="636,85 641,80 659,80 659,90 641,90 636,85 " style="fill:white; stroke-width:1; stroke:black; " description="&lt;b&gt;KPP03845_RS06845&lt;/b&gt;&lt;br&gt;SMP-30/gluconolactonase/LRE family protein&lt;br&gt;Location: 1458742 - 1459749" locus_tag="KPP03845_RS06845" class="clusterblast-orf" id="dummy-2_h2_4_18"  />
</g>
<g id="a2_0019"  >
<polygon points="663,85 668,80 674,80 674,90 668,90 663,85 " style="fill:white; stroke-width:1; stroke:black; " description="&lt;b&gt;KPP03845_RS06850&lt;/b&gt;&lt;br&gt;MarR family transcriptional regulator&lt;br&gt;Location: 1459914 - 1460381" locus_tag="KPP03845_RS06850" class="clusterblast-orf" id="dummy-2_h2_4_19"  />
</g>
<g id="a2_0020"  >
<polygon points="677,90 680,90 685,85 680,80 677,80 677,90 " style="fill:white; stroke-width:1; stroke:black; " description="&lt;b&gt;KPP03845_RS06855&lt;/b&gt;&lt;br&gt;hypothetical protein&lt;br&gt;Location: 1460485 - 1460847" locus_tag="KPP03845_RS06855" class="clusterblast-orf" id="dummy-2_h2_4_20"  />
</g>
<g id="a2_0021"  >
<polygon points="688,90 693,90 698,85 693,80 688,80 688,90 " style="fill:white; stroke-width:1; stroke:black; " description="&lt;b&gt;KPP03845_RS06860&lt;/b&gt;&lt;br&gt;CBS domain-containing protein&lt;br&gt;Location: 1460969 - 1461403" locus_tag="KPP03845_RS06860" class="clusterblast-orf" id="dummy-2_h2_4_21"  />
</g>
<g id="a2_0022"  >
<polygon points="699,90 726,90 731,85 726,80 699,80 699,90 " style="fill:#77d815; stroke-width:1; stroke:black; " description="&lt;b&gt;KPP03845_RS06865&lt;/b&gt;&lt;br&gt;FAD-binding oxidoreductase&lt;br&gt;Location: 1461423 - 1462793&lt;br&gt;&lt;br&gt;&lt;b&gt;BlastP hit with input.path1.gene667&lt;/b&gt;&lt;br&gt;Percentage identity: 32&lt;br&gt;Percentage coverage: 35&lt;br&gt;BLAST bit score: 92&lt;br&gt;E-value: 1.14e-17" locus_tag="KPP03845_RS06865" class="clusterblast-orf" id="dummy-2_h2_4_22"  />
</g>
<g id="a2_0023"  >
<polygon points="732,85 737,80 742,80 742,90 737,90 732,85 " style="fill:white; stroke-width:1; stroke:black; " description="&lt;b&gt;KPP03845_RS06870&lt;/b&gt;&lt;br&gt;VOC family protein&lt;br&gt;Location: 1462869 - 1463300" locus_tag="KPP03845_RS06870" class="clusterblast-orf" id="dummy-2_h2_4_23"  />
</g>
<g id="a2_0024"  >
<polygon points="750,90 775,90 780,85 775,80 750,80 750,90 " style="fill:white; stroke-width:1; stroke:black; " description="&lt;b&gt;KPP03845_RS06875&lt;/b&gt;&lt;br&gt;serine hydrolase&lt;br&gt;Location: 1463610 - 1464881" locus_tag="KPP03845_RS06875" class="clusterblast-orf" id="dummy-2_h2_4_24"  />
</g>
</svg>
