<svg xmlns="http://www.w3.org/2000/svg" xmlns:xlink="http://www.w3.org/1999/xlink" version="1.1" x="0" y="0" height="230" width="800" viewBox="0 0 800 230" preserveAspectRatio="none"  >
<g label="Query sequence" class="clusterblast-cluster"  >
<text x="5" y="20" class="clusterblast-acc"  >
Query sequence</text>
<line x1="10" y1="35" x2="778.0" y2="35" style="stroke-width:1; stroke:grey; "  />
<polygon points="121,40 125,40 130,35 125,30 121,30 121,40 " style="fill:white; stroke-width:1; stroke:black; " description="&lt;b&gt;input.path1.gene50&lt;/b&gt;&lt;br&gt;input.path1.gene50&lt;br&gt;Location: 173979 - 174623" locus_tag="input.path1.gene50" class="clusterblast-orf" id="dummy-1_q0_0_all"  />
<polygon points="145,40 163,40 168,35 163,30 145,30 145,40 " style="fill:white; stroke-width:1; stroke:black; " description="&lt;b&gt;input.path1.gene51&lt;/b&gt;&lt;br&gt;input.path1.gene51&lt;br&gt;Location: 175710 - 177315" locus_tag="input.path1.gene51" class="clusterblast-orf" id="dummy-1_q1_0_all"  />
<polygon points="232,40 255,40 260,35 255,30 232,30 232,40 " style="fill:white; stroke-width:1; stroke:black; " description="&lt;b&gt;input.path1.gene52&lt;/b&gt;&lt;br&gt;input.path1.gene52&lt;br&gt;Location: 181788 - 183693" locus_tag="input.path1.gene52" class="clusterblast-orf" id="dummy-1_q2_0_all"  />
<polygon points="268,35 273,30 300,30 300,40 273,40 268,35 " style="fill:white; stroke-width:1; stroke:black; " description="&lt;b&gt;input.path1.gene53&lt;/b&gt;&lt;br&gt;input.path1.gene53&lt;br&gt;Location: 184287 - 186494" locus_tag="input.path1.gene53" class="clusterblast-orf" id="dummy-1_q3_0_all"  />
<polygon points="311,35 316,30 334,30 334,40 316,40 311,35 " style="fill:white; stroke-width:1; stroke:black; " description="&lt;b&gt;input.path1.gene54&lt;/b&gt;&lt;br&gt;input.path1.gene54&lt;br&gt;Location: 187290 - 188903" locus_tag="input.path1.gene54" class="clusterblast-orf" id="dummy-1_q4_0_all"  />
<polygon points="345,35 350,30 395,30 395,40 350,40 345,35 " style="fill:#d81515; stroke-width:1; stroke:black; " description="&lt;b&gt;input.path1.gene55&lt;/b&gt;&lt;br&gt;input.path1.gene55&lt;br&gt;Location: 189679 - 193138" locus_tag="input.path1.gene55" class="clusterblast-orf" id="dummy-1_q5_0_all"  />
<polygon points="403,40 422,40 427,35 422,30 403,30 403,40 " style="fill:#15d863; stroke-width:1; stroke:black; " description="&lt;b&gt;input.path1.gene56&lt;/b&gt;&lt;br&gt;input.path1.gene56&lt;br&gt;Location: 193747 - 195378" locus_tag="input.path1.gene56" class="clusterblast-orf" id="dummy-1_q6_0_all"  />
<polygon points="430,35 435,30 452,30 452,40 435,40 430,35 " style="fill:white; stroke-width:1; stroke:black; " description="&lt;b&gt;input.path1.gene57&lt;/b&gt;&lt;br&gt;input.path1.gene57&lt;br&gt;Location: 195603 - 197151" locus_tag="input.path1.gene57" class="clusterblast-orf" id="dummy-1_q7_0_all"  />
<polygon points="456,40 472,40 477,35 472,30 456,30 456,40 " style="fill:white; stroke-width:1; stroke:black; " description="&lt;b&gt;input.path1.gene58&lt;/b&gt;&lt;br&gt;input.path1.gene58&lt;br&gt;Location: 197473 - 198918" locus_tag="input.path1.gene58" class="clusterblast-orf" id="dummy-1_q8_0_all"  />
<polygon points="482,35 487,30 537,30 537,40 487,40 482,35 " style="fill:#1563d8; stroke-width:1; stroke:black; " description="&lt;b&gt;input.path1.gene59&lt;/b&gt;&lt;br&gt;input.path1.gene59&lt;br&gt;Location: 199226 - 203100" locus_tag="input.path1.gene59" class="clusterblast-orf" id="dummy-1_q9_0_all"  />
<polygon points="581,35 586,30 602,30 602,40 586,40 581,35 " style="fill:#b115d8; stroke-width:1; stroke:black; " description="&lt;b&gt;input.path1.gene60&lt;/b&gt;&lt;br&gt;input.path1.gene60&lt;br&gt;Location: 206154 - 207675" locus_tag="input.path1.gene60" class="clusterblast-orf" id="dummy-1_q10_0_all"  />
<polygon points="607,40 613,40 618,35 613,30 607,30 607,40 " style="fill:#b1d815; stroke-width:1; stroke:black; " description="&lt;b&gt;input.path1.gene61&lt;/b&gt;&lt;br&gt;input.path1.gene61&lt;br&gt;Location: 208021 - 208777" locus_tag="input.path1.gene61" class="clusterblast-orf" id="dummy-1_q11_0_all"  />
<polygon points="622,35 625,30 625,40 622,35 " style="fill:white; stroke-width:1; stroke:black; " description="&lt;b&gt;input.path1.gene62&lt;/b&gt;&lt;br&gt;input.path1.gene62&lt;br&gt;Location: 209038 - 209276" locus_tag="input.path1.gene62" class="clusterblast-orf" id="dummy-1_q12_0_all"  />
<polygon points="640,35 645,30 659,30 659,40 645,40 640,35 " style="fill:white; stroke-width:1; stroke:black; " description="&lt;b&gt;input.path1.gene63&lt;/b&gt;&lt;br&gt;input.path1.gene63&lt;br&gt;Location: 210289 - 211612" locus_tag="input.path1.gene63" class="clusterblast-orf" id="dummy-1_q13_0_all"  />
</g>
<g label="NW_025091284" description="NW_025091284 (178968-242976): Aspergillus pseudoviridinutans IFM 55266 DNA, s... (7% of genes show similarity), NRPS" class="clusterblast-cluster"  >
<text x="5" y="70" class="clusterblast-acc"  >
<a xlink:href="https://antismash-db.secondarymetabolites.org/area?record=NW_025091284&amp;start=178968&amp;end=242976" target="_blank">NW_025091284 (178968-242976)</a>: Aspergillus pseudoviridinutans IFM 55266 DNA, s... (7% of genes show similarity), NRPS</text>
<line x1="10" y1="85" x2="778.0" y2="85" style="stroke-width:1; stroke:grey; "  />
</g>
<g id="a1_000"  >
<polygon points="0,90 9,90 14,85 9,80 0,80 0,90 " style="fill:white; stroke-width:1; stroke:black; " description="&lt;b&gt;Asppvi_005479&lt;/b&gt;&lt;br&gt;uncharacterized protein&lt;br&gt;Location: 187958 - 188941" locus_tag="Asppvi_005479" class="clusterblast-orf" id="dummy-1_h1_7_0"  />
</g>
<g id="a1_001"  >
<polygon points="34,85 39,80 39,80 39,90 39,90 34,85 " style="fill:white; stroke-width:1; stroke:black; " description="&lt;b&gt;Asppvi_005480&lt;/b&gt;&lt;br&gt;uncharacterized protein&lt;br&gt;Location: 190373 - 190751" locus_tag="Asppvi_005480" class="clusterblast-orf" id="dummy-1_h1_7_1"  />
</g>
<g id="a1_002"  >
<polygon points="91,90 91,90 96,85 91,80 91,80 91,90 " style="fill:white; stroke-width:1; stroke:black; " description="&lt;b&gt;Asppvi_005481&lt;/b&gt;&lt;br&gt;uncharacterized protein&lt;br&gt;Location: 194333 - 194728" locus_tag="Asppvi_005481" class="clusterblast-orf" id="dummy-1_h1_7_2"  />
</g>
<g id="a1_003"  >
<polygon points="124,90 124,90 129,85 124,80 124,80 124,90 " style="fill:white; stroke-width:1; stroke:black; " description="&lt;b&gt;Asppvi_005482&lt;/b&gt;&lt;br&gt;uncharacterized protein&lt;br&gt;Location: 196681 - 197001" locus_tag="Asppvi_005482" class="clusterblast-orf" id="dummy-1_h1_7_3"  />
</g>
<g id="a1_004"  >
<polygon points="138,85 143,80 153,80 153,90 143,90 138,85 " style="fill:white; stroke-width:1; stroke:black; " description="&lt;b&gt;Asppvi_005483&lt;/b&gt;&lt;br&gt;uncharacterized protein&lt;br&gt;Location: 197628 - 198700" locus_tag="Asppvi_005483" class="clusterblast-orf" id="dummy-1_h1_7_4"  />
</g>
<g id="a1_005"  >
<polygon points="174,90 185,90 190,85 185,80 174,80 174,90 " style="fill:white; stroke-width:1; stroke:black; " description="&lt;b&gt;Asppvi_005484&lt;/b&gt;&lt;br&gt;uncharacterized protein&lt;br&gt;Location: 200166 - 201313" locus_tag="Asppvi_005484" class="clusterblast-orf" id="dummy-1_h1_7_5"  />
</g>
<g id="a1_006"  >
<polygon points="192,85 197,80 217,80 217,90 197,90 192,85 " style="fill:white; stroke-width:1; stroke:black; " description="&lt;b&gt;Asppvi_005485&lt;/b&gt;&lt;br&gt;uncharacterized protein&lt;br&gt;Location: 201406 - 203188" locus_tag="Asppvi_005485" class="clusterblast-orf" id="dummy-1_h1_7_6"  />
</g>
<g id="a1_007"  >
<polygon points="226,85 231,80 234,80 234,90 231,90 226,85 " style="fill:white; stroke-width:1; stroke:black; " description="&lt;b&gt;Asppvi_005486&lt;/b&gt;&lt;br&gt;uncharacterized protein&lt;br&gt;Location: 203823 - 204337" locus_tag="Asppvi_005486" class="clusterblast-orf" id="dummy-1_h1_7_7"  />
</g>
<g id="a1_008"  >
<polygon points="260,90 263,90 268,85 263,80 260,80 260,90 " style="fill:white; stroke-width:1; stroke:black; " description="&lt;b&gt;Asppvi_005487&lt;/b&gt;&lt;br&gt;uncharacterized protein&lt;br&gt;Location: 206178 - 206780" locus_tag="Asppvi_005487" class="clusterblast-orf" id="dummy-1_h1_7_8"  />
</g>
<g id="a1_009"  >
<polygon points="283,90 291,90 296,85 291,80 283,80 283,90 " style="fill:white; stroke-width:1; stroke:black; " description="&lt;b&gt;Asppvi_005488&lt;/b&gt;&lt;br&gt;uncharacterized protein&lt;br&gt;Location: 207795 - 208687" locus_tag="Asppvi_005488" class="clusterblast-orf" id="dummy-1_h1_7_9"  />
</g>
<g id="a1_0010"  >
<polygon points="300,90 352,90 357,85 352,80 300,80 300,90 " style="fill:#d81515; stroke-width:1; stroke:black; " description="&lt;b&gt;Asppvi_005489&lt;/b&gt;&lt;br&gt;nonribosomal peptide synthase&lt;br&gt;Location: 208969 - 212976&lt;br&gt;&lt;br&gt;&lt;b&gt;BlastP hit with input.path1.gene55&lt;/b&gt;&lt;br&gt;Percentage identity: 31&lt;br&gt;Percentage coverage: 56&lt;br&gt;BLAST bit score: 245&lt;br&gt;E-value: 3.97e-64" locus_tag="Asppvi_005489" class="clusterblast-orf" id="dummy-1_h1_7_10"  />
</g>
<g id="a1_0011"  >
<polygon points="362,90 384,90 389,85 384,80 362,80 362,90 " style="fill:white; stroke-width:1; stroke:black; " description="&lt;b&gt;Asppvi_005490&lt;/b&gt;&lt;br&gt;uncharacterized protein&lt;br&gt;Location: 213320 - 215210" locus_tag="Asppvi_005490" class="clusterblast-orf" id="dummy-1_h1_7_11"  />
</g>
<g id="a1_0012"  >
<polygon points="393,85 398,80 406,80 406,90 398,90 393,85 " style="fill:white; stroke-width:1; stroke:black; " description="&lt;b&gt;Asppvi_005491&lt;/b&gt;&lt;br&gt;GTP cyclohydrolase 1&lt;br&gt;Location: 215477 - 216382" locus_tag="Asppvi_005491" class="clusterblast-orf" id="dummy-1_h1_7_12"  />
</g>
<g id="a1_0013"  >
<polygon points="410,90 417,90 422,85 417,80 410,80 410,90 " style="fill:white; stroke-width:1; stroke:black; " description="&lt;b&gt;Asppvi_005492&lt;/b&gt;&lt;br&gt;uncharacterized protein&lt;br&gt;Location: 216700 - 217555" locus_tag="Asppvi_005492" class="clusterblast-orf" id="dummy-1_h1_7_13"  />
</g>
<g id="a1_0014"  >
<polygon points="426,90 444,90 449,85 444,80 426,80 426,90 " style="fill:white; stroke-width:1; stroke:black; " description="&lt;b&gt;Asppvi_005493&lt;/b&gt;&lt;br&gt;uncharacterized protein&lt;br&gt;Location: 217817 - 219404" locus_tag="Asppvi_005493" class="clusterblast-orf" id="dummy-1_h1_7_14"  />
</g>
<g id="a1_0015"  >
<polygon points="451,85 456,80 471,80 471,90 456,90 451,85 " style="fill:white; stroke-width:1; stroke:black; " description="&lt;b&gt;Asppvi_005494&lt;/b&gt;&lt;br&gt;uncharacterized protein&lt;br&gt;Location: 219559 - 220965" locus_tag="Asppvi_005494" class="clusterblast-orf" id="dummy-1_h1_7_15"  />
</g>
<g id="a1_0016"  >
<polygon points="478,90 488,90 493,85 488,80 478,80 478,90 " style="fill:white; stroke-width:1; stroke:black; " description="&lt;b&gt;Asppvi_005495&lt;/b&gt;&lt;br&gt;uncharacterized protein&lt;br&gt;Location: 221436 - 222505" locus_tag="Asppvi_005495" class="clusterblast-orf" id="dummy-1_h1_7_16"  />
</g>
<g id="a1_0017"  >
<polygon points="505,90 511,90 516,85 511,80 505,80 505,90 " style="fill:white; stroke-width:1; stroke:black; " description="&lt;b&gt;Asppvi_005496&lt;/b&gt;&lt;br&gt;uncharacterized protein&lt;br&gt;Location: 223309 - 224106" locus_tag="Asppvi_005496" class="clusterblast-orf" id="dummy-1_h1_7_17"  />
</g>
<g id="a1_0018"  >
<polygon points="535,90 548,90 553,85 548,80 535,80 535,90 " style="fill:white; stroke-width:1; stroke:black; " description="&lt;b&gt;Asppvi_005497&lt;/b&gt;&lt;br&gt;uncharacterized protein&lt;br&gt;Location: 225420 - 226670" locus_tag="Asppvi_005497" class="clusterblast-orf" id="dummy-1_h1_7_18"  />
</g>
<g id="a1_0019"  >
<polygon points="566,90 589,90 594,85 589,80 566,80 566,90 " style="fill:white; stroke-width:1; stroke:black; " description="&lt;b&gt;Asppvi_005498&lt;/b&gt;&lt;br&gt;uncharacterized protein&lt;br&gt;Location: 227591 - 229571" locus_tag="Asppvi_005498" class="clusterblast-orf" id="dummy-1_h1_7_19"  />
</g>
<g id="a1_0020"  >
<polygon points="602,90 613,90 618,85 613,80 602,80 602,90 " style="fill:white; stroke-width:1; stroke:black; " description="&lt;b&gt;Asppvi_005499&lt;/b&gt;&lt;br&gt;uncharacterized protein&lt;br&gt;Location: 230086 - 231254" locus_tag="Asppvi_005499" class="clusterblast-orf" id="dummy-1_h1_7_20"  />
</g>
<g id="a1_0021"  >
<polygon points="620,85 625,80 630,80 630,90 625,90 620,85 " style="fill:white; stroke-width:1; stroke:black; " description="&lt;b&gt;Asppvi_005500&lt;/b&gt;&lt;br&gt;uncharacterized protein&lt;br&gt;Location: 231356 - 232087" locus_tag="Asppvi_005500" class="clusterblast-orf" id="dummy-1_h1_7_21"  />
</g>
<g id="a1_0022"  >
<polygon points="635,85 640,80 654,80 654,90 640,90 635,85 " style="fill:white; stroke-width:1; stroke:black; " description="&lt;b&gt;Asppvi_005501&lt;/b&gt;&lt;br&gt;uncharacterized protein&lt;br&gt;Location: 232438 - 233752" locus_tag="Asppvi_005501" class="clusterblast-orf" id="dummy-1_h1_7_22"  />
</g>
<g id="a1_0023"  >
<polygon points="673,90 676,90 681,85 676,80 673,80 673,90 " style="fill:white; stroke-width:1; stroke:black; " description="&lt;b&gt;Asppvi_005502&lt;/b&gt;&lt;br&gt;uncharacterized protein&lt;br&gt;Location: 235086 - 235667" locus_tag="Asppvi_005502" class="clusterblast-orf" id="dummy-1_h1_7_23"  />
</g>
<g id="a1_0024"  >
<polygon points="709,90 726,90 731,85 726,80 709,80 709,90 " style="fill:white; stroke-width:1; stroke:black; " description="&lt;b&gt;Asppvi_005503&lt;/b&gt;&lt;br&gt;leucyl aminopeptidase yscIV&lt;br&gt;Location: 237577 - 239124" locus_tag="Asppvi_005503" class="clusterblast-orf" id="dummy-1_h1_7_24"  />
</g>
<g id="a1_0025"  >
<polygon points="733,85 736,80 736,90 733,85 " style="fill:white; stroke-width:1; stroke:black; " description="&lt;b&gt;Asppvi_005504&lt;/b&gt;&lt;br&gt;uncharacterized protein&lt;br&gt;Location: 239265 - 239482" locus_tag="Asppvi_005504" class="clusterblast-orf" id="dummy-1_h1_7_25"  />
</g>
<g id="a1_0026"  >
<polygon points="749,85 754,80 780,80 780,90 754,90 749,85 " style="fill:#b115d8; stroke-width:1; stroke:black; " description="&lt;b&gt;Asppvi_005505&lt;/b&gt;&lt;br&gt;uncharacterized protein&lt;br&gt;Location: 240392 - 242541&lt;br&gt;&lt;br&gt;&lt;b&gt;BlastP hit with input.path1.gene60&lt;/b&gt;&lt;br&gt;Percentage identity: 50&lt;br&gt;Percentage coverage: 52&lt;br&gt;BLAST bit score: 199&lt;br&gt;E-value: 1.76e-55" locus_tag="Asppvi_005505" class="clusterblast-orf" id="dummy-1_h1_7_26"  />
</g>
</svg>
