<svg xmlns="http://www.w3.org/2000/svg" xmlns:xlink="http://www.w3.org/1999/xlink" version="1.1" x="0" y="0" height="230" width="800" viewBox="0 0 800 230" preserveAspectRatio="none"  >
<g label="Query sequence" class="clusterblast-cluster"  >
<text x="5" y="20" class="clusterblast-acc"  >
Query sequence</text>
<line x1="10" y1="35" x2="778.0" y2="35" style="stroke-width:1; stroke:grey; "  />
<polygon points="93,40 107,40 112,35 107,30 93,30 93,40 " style="fill:#d81515; stroke-width:1; stroke:black; " description="&lt;b&gt;input.path1.gene653&lt;/b&gt;&lt;br&gt;input.path1.gene653&lt;br&gt;Location: 2368990 - 2370420" locus_tag="input.path1.gene653" class="clusterblast-orf" id="dummy-4_q0_0_all"  />
<polygon points="122,35 127,30 133,30 133,40 127,40 122,35 " style="fill:#63d815; stroke-width:1; stroke:black; " description="&lt;b&gt;input.path1.gene654&lt;/b&gt;&lt;br&gt;input.path1.gene654&lt;br&gt;Location: 2371238 - 2372104" locus_tag="input.path1.gene654" class="clusterblast-orf" id="dummy-4_q1_0_all"  />
<polygon points="164,40 176,40 181,35 176,30 164,30 164,40 " style="fill:#15b1d8; stroke-width:1; stroke:black; " description="&lt;b&gt;input.path1.gene655&lt;/b&gt;&lt;br&gt;input.path1.gene655&lt;br&gt;Location: 2374423 - 2375768" locus_tag="input.path1.gene655" class="clusterblast-orf" id="dummy-4_q2_0_all"  />
<polygon points="195,40 206,40 211,35 206,30 195,30 195,40 " style="fill:#b115d8; stroke-width:1; stroke:black; " description="&lt;b&gt;input.path1.gene656&lt;/b&gt;&lt;br&gt;input.path1.gene656&lt;br&gt;Location: 2376816 - 2378080" locus_tag="input.path1.gene656" class="clusterblast-orf" id="dummy-4_q3_0_all"  />
<polygon points="217,35 222,30 234,30 234,40 222,40 217,35 " style="fill:#d86315; stroke-width:1; stroke:black; " description="&lt;b&gt;input.path1.gene657&lt;/b&gt;&lt;br&gt;input.path1.gene657&lt;br&gt;Location: 2378533 - 2379833" locus_tag="input.path1.gene657" class="clusterblast-orf" id="dummy-4_q4_0_all"  />
<polygon points="276,40 291,40 296,35 291,30 276,30 276,40 " style="fill:#15d815; stroke-width:1; stroke:black; " description="&lt;b&gt;input.path1.gene658&lt;/b&gt;&lt;br&gt;input.path1.gene658&lt;br&gt;Location: 2383095 - 2384567" locus_tag="input.path1.gene658" class="clusterblast-orf" id="dummy-4_q5_0_all"  />
<polygon points="326,40 345,40 350,35 345,30 326,30 326,40 " style="fill:#1563d8; stroke-width:1; stroke:black; " description="&lt;b&gt;input.path1.gene659&lt;/b&gt;&lt;br&gt;input.path1.gene659&lt;br&gt;Location: 2386883 - 2388718" locus_tag="input.path1.gene659" class="clusterblast-orf" id="dummy-4_q6_0_all"  />
<polygon points="352,35 357,30 427,30 427,40 357,40 352,35 " style="fill:#d815b1; stroke-width:1; stroke:black; " description="&lt;b&gt;input.path1.gene660&lt;/b&gt;&lt;br&gt;input.path1.gene660&lt;br&gt;Location: 2388938 - 2394696" locus_tag="input.path1.gene660" class="clusterblast-orf" id="dummy-4_q7_0_all"  />
<polygon points="451,40 487,40 492,35 487,30 451,30 451,40 " style="fill:#d8b115; stroke-width:1; stroke:black; " description="&lt;b&gt;input.path1.gene661&lt;/b&gt;&lt;br&gt;input.path1.gene661&lt;br&gt;Location: 2396488 - 2399668" locus_tag="input.path1.gene661" class="clusterblast-orf" id="dummy-4_q8_0_all"  />
<polygon points="500,35 505,30 514,30 514,40 505,40 500,35 " style="fill:white; stroke-width:1; stroke:black; " description="&lt;b&gt;input.path1.gene662&lt;/b&gt;&lt;br&gt;input.path1.gene662&lt;br&gt;Location: 2400281 - 2401337" locus_tag="input.path1.gene662" class="clusterblast-orf" id="dummy-4_q9_0_all"  />
<polygon points="544,40 556,40 561,35 556,30 544,30 544,40 " style="fill:#15d863; stroke-width:1; stroke:black; " description="&lt;b&gt;input.path1.gene663&lt;/b&gt;&lt;br&gt;input.path1.gene663&lt;br&gt;Location: 2403671 - 2404967" locus_tag="input.path1.gene663" class="clusterblast-orf" id="dummy-4_q10_0_all"  />
<polygon points="563,40 567,40 572,35 567,30 563,30 563,40 " style="fill:#1515d8; stroke-width:1; stroke:black; " description="&lt;b&gt;input.path1.gene664&lt;/b&gt;&lt;br&gt;input.path1.gene664&lt;br&gt;Location: 2405094 - 2405851" locus_tag="input.path1.gene664" class="clusterblast-orf" id="dummy-4_q11_0_all"  />
<polygon points="585,35 590,30 603,30 603,40 590,40 585,35 " style="fill:#d81563; stroke-width:1; stroke:black; " description="&lt;b&gt;input.path1.gene665&lt;/b&gt;&lt;br&gt;input.path1.gene665&lt;br&gt;Location: 2406839 - 2408218" locus_tag="input.path1.gene665" class="clusterblast-orf" id="dummy-4_q12_0_all"  />
<polygon points="620,40 639,40 644,35 639,30 620,30 620,40 " style="fill:#b1d815; stroke-width:1; stroke:black; " description="&lt;b&gt;input.path1.gene666&lt;/b&gt;&lt;br&gt;input.path1.gene666&lt;br&gt;Location: 2409532 - 2411377" locus_tag="input.path1.gene666" class="clusterblast-orf" id="dummy-4_q13_0_all"  />
<polygon points="650,35 655,30 657,30 657,40 655,40 650,35 " style="fill:#15d8b1; stroke-width:1; stroke:black; " description="&lt;b&gt;input.path1.gene667&lt;/b&gt;&lt;br&gt;input.path1.gene667&lt;br&gt;Location: 2411832 - 2412318" locus_tag="input.path1.gene667" class="clusterblast-orf" id="dummy-4_q14_0_all"  />
<polygon points="676,35 681,30 686,30 686,40 681,40 676,35 " style="fill:#6315d8; stroke-width:1; stroke:black; " description="&lt;b&gt;input.path1.gene668&lt;/b&gt;&lt;br&gt;input.path1.gene668&lt;br&gt;Location: 2413807 - 2414605" locus_tag="input.path1.gene668" class="clusterblast-orf" id="dummy-4_q15_0_all"  />
</g>
<g label="NC_070531" description="NC_070531 (1081663-1145343): Fusarium keratoplasticum isolate Fu6.1 chromosom... (11% of genes show similarity), NRPS" class="clusterblast-cluster"  >
<text x="5" y="70" class="clusterblast-acc"  >
<a xlink:href="https://antismash-db.secondarymetabolites.org/area?record=NC_070531&amp;start=1081663&amp;end=1145343" target="_blank">NC_070531 (1081663-1145343)</a>: Fusarium keratoplasticum isolate Fu6.1 chromosom... (11% of genes show similarity), NRPS</text>
<line x1="10" y1="85" x2="778.0" y2="85" style="stroke-width:1; stroke:grey; "  />
</g>
<g id="a4_000"  >
<polygon points="0,90 17,90 22,85 17,80 0,80 0,90 " style="fill:white; stroke-width:1; stroke:black; " description="&lt;b&gt;NCS57_00373100&lt;/b&gt;&lt;br&gt;HET domain-containing protein&lt;br&gt;Location: 1082622 - 1084371" locus_tag="NCS57_00373100" class="clusterblast-orf" id="dummy-4_h4_4_0"  />
</g>
<g id="a4_001"  >
<polygon points="76,85 81,80 98,80 98,90 81,90 76,85 " style="fill:white; stroke-width:1; stroke:black; " description="&lt;b&gt;NCS57_00373200&lt;/b&gt;&lt;br&gt;hypothetical protein&lt;br&gt;Location: 1088473 - 1090203" locus_tag="NCS57_00373200" class="clusterblast-orf" id="dummy-4_h4_4_1"  />
</g>
<g id="a4_002"  >
<polygon points="105,90 112,90 117,85 112,80 105,80 105,90 " style="fill:white; stroke-width:1; stroke:black; " description="&lt;b&gt;NCS57_00373300&lt;/b&gt;&lt;br&gt;UBC core domain-containing protein&lt;br&gt;Location: 1090755 - 1091657" locus_tag="NCS57_00373300" class="clusterblast-orf" id="dummy-4_h4_4_2"  />
</g>
<g id="a4_003"  >
<polygon points="133,90 162,90 167,85 162,80 133,80 133,90 " style="fill:white; stroke-width:1; stroke:black; " description="&lt;b&gt;NCS57_00373400&lt;/b&gt;&lt;br&gt;hypothetical protein&lt;br&gt;Location: 1092853 - 1095498" locus_tag="NCS57_00373400" class="clusterblast-orf" id="dummy-4_h4_4_3"  />
</g>
<g id="a4_004"  >
<polygon points="190,90 208,90 213,85 208,80 190,80 190,90 " style="fill:white; stroke-width:1; stroke:black; " description="&lt;b&gt;NCS57_00373500&lt;/b&gt;&lt;br&gt;hypothetical protein&lt;br&gt;Location: 1097257 - 1099063" locus_tag="NCS57_00373500" class="clusterblast-orf" id="dummy-4_h4_4_4"  />
</g>
<g id="a4_005"  >
<polygon points="241,90 250,90 255,85 250,80 241,80 241,90 " style="fill:white; stroke-width:1; stroke:black; " description="&lt;b&gt;NCS57_00373600&lt;/b&gt;&lt;br&gt;hypothetical protein&lt;br&gt;Location: 1101173 - 1102279" locus_tag="NCS57_00373600" class="clusterblast-orf" id="dummy-4_h4_4_5"  />
</g>
<g id="a4_006"  >
<polygon points="258,85 263,80 270,80 270,90 263,90 258,85 " style="fill:white; stroke-width:1; stroke:black; " description="&lt;b&gt;NCS57_00373700&lt;/b&gt;&lt;br&gt;NmrA domain-containing protein&lt;br&gt;Location: 1102528 - 1103442" locus_tag="NCS57_00373700" class="clusterblast-orf" id="dummy-4_h4_4_6"  />
</g>
<g id="a4_007"  >
<polygon points="280,85 285,80 314,80 314,90 285,90 280,85 " style="fill:white; stroke-width:1; stroke:black; " description="&lt;b&gt;NCS57_00373800&lt;/b&gt;&lt;br&gt;Zn(2)-C6 fungal-type domain-containing protein&lt;br&gt;Location: 1104200 - 1106801" locus_tag="NCS57_00373800" class="clusterblast-orf" id="dummy-4_h4_4_7"  />
</g>
<g id="a4_008"  >
<polygon points="319,90 370,90 375,85 370,80 319,80 319,90 " style="fill:white; stroke-width:1; stroke:black; " description="&lt;b&gt;NCS57_00373900&lt;/b&gt;&lt;br&gt;hypothetical protein&lt;br&gt;Location: 1107193 - 1111494" locus_tag="NCS57_00373900" class="clusterblast-orf" id="dummy-4_h4_4_8"  />
</g>
<g id="a4_009"  >
<polygon points="377,85 382,80 425,80 425,90 382,90 377,85 " style="fill:#d815b1; stroke-width:1; stroke:black; " description="&lt;b&gt;NCS57_00374000&lt;/b&gt;&lt;br&gt;AMP-binding domain-containing protein&lt;br&gt;Location: 1111664 - 1115343&lt;br&gt;&lt;br&gt;&lt;b&gt;BlastP hit with input.path1.gene660&lt;/b&gt;&lt;br&gt;Percentage identity: 42&lt;br&gt;Percentage coverage: 75&lt;br&gt;BLAST bit score: 860&lt;br&gt;E-value: 7.68e-288" locus_tag="NCS57_00374000" class="clusterblast-orf" id="dummy-4_h4_4_9"  />
</g>
<g id="a4_0010"  >
<polygon points="457,90 473,90 478,85 473,80 457,80 457,90 " style="fill:#d8b115; stroke-width:1; stroke:black; " description="&lt;b&gt;NCS57_00374100&lt;/b&gt;&lt;br&gt;hypothetical protein&lt;br&gt;Location: 1117810 - 1119422&lt;br&gt;&lt;br&gt;&lt;b&gt;BlastP hit with input.path1.gene661&lt;/b&gt;&lt;br&gt;Percentage identity: 50&lt;br&gt;Percentage coverage: 67&lt;br&gt;BLAST bit score: 440&lt;br&gt;E-value: 3.14e-146" locus_tag="NCS57_00374100" class="clusterblast-orf" id="dummy-4_h4_4_10"  />
</g>
<g id="a4_0011"  >
<polygon points="491,90 530,90 535,85 530,80 491,80 491,90 " style="fill:white; stroke-width:1; stroke:black; " description="&lt;b&gt;NCS57_00374200&lt;/b&gt;&lt;br&gt;Cation-ATPase-N domain-containing protein&lt;br&gt;Location: 1120391 - 1123773" locus_tag="NCS57_00374200" class="clusterblast-orf" id="dummy-4_h4_4_11"  />
</g>
<g id="a4_0012"  >
<polygon points="540,85 545,80 565,80 565,90 545,90 540,85 " style="fill:white; stroke-width:1; stroke:black; " description="&lt;b&gt;NCS57_00374300&lt;/b&gt;&lt;br&gt;Zn(2)-C6 fungal-type domain-containing protein&lt;br&gt;Location: 1124163 - 1126077" locus_tag="NCS57_00374300" class="clusterblast-orf" id="dummy-4_h4_4_12"  />
</g>
<g id="a4_0013"  >
<polygon points="579,85 584,80 620,80 620,90 584,90 579,85 " style="fill:white; stroke-width:1; stroke:black; " description="&lt;b&gt;NCS57_00374400&lt;/b&gt;&lt;br&gt;hypothetical protein&lt;br&gt;Location: 1127140 - 1130316" locus_tag="NCS57_00374400" class="clusterblast-orf" id="dummy-4_h4_4_13"  />
</g>
<g id="a4_0014"  >
<polygon points="638,85 643,80 645,80 645,90 643,90 638,85 " style="fill:white; stroke-width:1; stroke:black; " description="&lt;b&gt;NCS57_00374500&lt;/b&gt;&lt;br&gt;hypothetical protein&lt;br&gt;Location: 1131716 - 1132264" locus_tag="NCS57_00374500" class="clusterblast-orf" id="dummy-4_h4_4_14"  />
</g>
<g id="a4_0015"  >
<polygon points="662,90 671,90 676,85 671,80 662,80 662,90 " style="fill:white; stroke-width:1; stroke:black; " description="&lt;b&gt;NCS57_00374600&lt;/b&gt;&lt;br&gt;hypothetical protein&lt;br&gt;Location: 1133548 - 1134648" locus_tag="NCS57_00374600" class="clusterblast-orf" id="dummy-4_h4_4_15"  />
</g>
<g id="a4_0016"  >
<polygon points="734,85 739,80 743,80 743,90 739,90 734,85 " style="fill:white; stroke-width:1; stroke:black; " description="&lt;b&gt;NCS57_00374700&lt;/b&gt;&lt;br&gt;N-acetyltransferase domain-containing protein&lt;br&gt;Location: 1139045 - 1139750" locus_tag="NCS57_00374700" class="clusterblast-orf" id="dummy-4_h4_4_16"  />
</g>
<g id="a4_0017"  >
<polygon points="747,85 752,80 780,80 780,90 752,90 747,85 " style="fill:white; stroke-width:1; stroke:black; " description="&lt;b&gt;NCS57_00374800&lt;/b&gt;&lt;br&gt;Glutamine-dependent NAD(+) synthetase&lt;br&gt;Location: 1140094 - 1142578" locus_tag="NCS57_00374800" class="clusterblast-orf" id="dummy-4_h4_4_17"  />
</g>
</svg>
