<svg xmlns="http://www.w3.org/2000/svg" xmlns:xlink="http://www.w3.org/1999/xlink" version="1.1" x="0" y="0" height="230" width="800" viewBox="0 0 800 230" preserveAspectRatio="none"  >
<g label="Query sequence" class="clusterblast-cluster"  >
<text x="5" y="20" class="clusterblast-acc"  >
Query sequence</text>
<line x1="10" y1="35" x2="778.0" y2="35" style="stroke-width:1; stroke:grey; "  />
<polygon points="140,40 146,40 151,35 146,30 140,30 140,40 " style="fill:#d81515; stroke-width:1; stroke:black; " description="&lt;b&gt;input.path1.gene671&lt;/b&gt;&lt;br&gt;input.path1.gene671&lt;br&gt;Location: 2251350 - 2252110" locus_tag="input.path1.gene671" class="clusterblast-orf" id="dummy-8_q0_0_all"  />
<polygon points="152,35 157,30 173,30 173,40 157,40 152,35 " style="fill:#5cd815; stroke-width:1; stroke:black; " description="&lt;b&gt;input.path1.gene672&lt;/b&gt;&lt;br&gt;input.path1.gene672&lt;br&gt;Location: 2252235 - 2253681" locus_tag="input.path1.gene672" class="clusterblast-orf" id="dummy-8_q1_0_all"  />
<polygon points="176,40 195,40 200,35 195,30 176,30 176,40 " style="fill:#15a3d8; stroke-width:1; stroke:black; " description="&lt;b&gt;input.path1.gene673&lt;/b&gt;&lt;br&gt;input.path1.gene673&lt;br&gt;Location: 2253918 - 2255581" locus_tag="input.path1.gene673" class="clusterblast-orf" id="dummy-8_q2_0_all"  />
<polygon points="203,40 223,40 228,35 223,30 203,30 203,40 " style="fill:#15a3d8; stroke-width:1; stroke:black; " description="&lt;b&gt;input.path1.gene674&lt;/b&gt;&lt;br&gt;input.path1.gene674&lt;br&gt;Location: 2255805 - 2257572" locus_tag="input.path1.gene674" class="clusterblast-orf" id="dummy-8_q3_0_all"  />
<polygon points="229,35 234,30 249,30 249,40 234,40 229,35 " style="fill:#c715d8; stroke-width:1; stroke:black; " description="&lt;b&gt;input.path1.gene675&lt;/b&gt;&lt;br&gt;input.path1.gene675&lt;br&gt;Location: 2257669 - 2259019" locus_tag="input.path1.gene675" class="clusterblast-orf" id="dummy-8_q4_0_all"  />
<polygon points="264,40 268,40 273,35 268,30 264,30 264,40 " style="fill:#d88015; stroke-width:1; stroke:black; " description="&lt;b&gt;input.path1.gene676&lt;/b&gt;&lt;br&gt;input.path1.gene676&lt;br&gt;Location: 2260140 - 2260768" locus_tag="input.path1.gene676" class="clusterblast-orf" id="dummy-8_q5_0_all"  />
<polygon points="293,40 298,40 303,35 298,30 293,30 293,40 " style="fill:#d88015; stroke-width:1; stroke:black; " description="&lt;b&gt;input.path1.gene677&lt;/b&gt;&lt;br&gt;input.path1.gene677&lt;br&gt;Location: 2262181 - 2262870" locus_tag="input.path1.gene677" class="clusterblast-orf" id="dummy-8_q6_0_all"  />
<polygon points="310,35 315,30 320,30 320,40 315,40 310,35 " style="fill:white; stroke-width:1; stroke:black; " description="&lt;b&gt;input.path1.gene678&lt;/b&gt;&lt;br&gt;input.path1.gene678&lt;br&gt;Location: 2263366 - 2264059" locus_tag="input.path1.gene678" class="clusterblast-orf" id="dummy-8_q7_0_all"  />
<polygon points="330,35 335,30 353,30 353,40 335,40 330,35 " style="fill:#15d839; stroke-width:1; stroke:black; " description="&lt;b&gt;input.path1.gene679&lt;/b&gt;&lt;br&gt;input.path1.gene679&lt;br&gt;Location: 2264756 - 2266362" locus_tag="input.path1.gene679" class="clusterblast-orf" id="dummy-8_q8_0_all"  />
<polygon points="371,40 399,40 404,35 399,30 371,30 371,40 " style="fill:#1539d8; stroke-width:1; stroke:black; " description="&lt;b&gt;input.path1.gene680&lt;/b&gt;&lt;br&gt;input.path1.gene680&lt;br&gt;Location: 2267675 - 2269951" locus_tag="input.path1.gene680" class="clusterblast-orf" id="dummy-8_q9_0_all"  />
<polygon points="406,35 411,30 419,30 419,40 411,40 406,35 " style="fill:#d81580; stroke-width:1; stroke:black; " description="&lt;b&gt;input.path1.gene681&lt;/b&gt;&lt;br&gt;input.path1.gene681&lt;br&gt;Location: 2270098 - 2271064" locus_tag="input.path1.gene681" class="clusterblast-orf" id="dummy-8_q10_0_all"  />
<polygon points="425,40 432,40 437,35 432,30 425,30 425,40 " style="fill:#c7d815; stroke-width:1; stroke:black; " description="&lt;b&gt;input.path1.gene682&lt;/b&gt;&lt;br&gt;input.path1.gene682&lt;br&gt;Location: 2271432 - 2272322" locus_tag="input.path1.gene682" class="clusterblast-orf" id="dummy-8_q11_0_all"  />
<polygon points="453,40 473,40 478,35 473,30 453,30 453,40 " style="fill:#15d8a3; stroke-width:1; stroke:black; " description="&lt;b&gt;input.path1.gene683&lt;/b&gt;&lt;br&gt;input.path1.gene683&lt;br&gt;Location: 2273431 - 2275203" locus_tag="input.path1.gene683" class="clusterblast-orf" id="dummy-8_q12_0_all"  />
<polygon points="495,40 510,40 515,35 510,30 495,30 495,40 " style="fill:#5c15d8; stroke-width:1; stroke:black; " description="&lt;b&gt;input.path1.gene684&lt;/b&gt;&lt;br&gt;input.path1.gene684&lt;br&gt;Location: 2276415 - 2277806" locus_tag="input.path1.gene684" class="clusterblast-orf" id="dummy-8_q13_0_all"  />
<polygon points="532,40 534,40 539,35 534,30 532,30 532,40 " style="fill:white; stroke-width:1; stroke:black; " description="&lt;b&gt;input.path1.gene685&lt;/b&gt;&lt;br&gt;input.path1.gene685&lt;br&gt;Location: 2278995 - 2279459" locus_tag="input.path1.gene685" class="clusterblast-orf" id="dummy-8_q14_0_all"  />
<polygon points="552,40 585,40 590,35 585,30 552,30 552,40 " style="fill:white; stroke-width:1; stroke:black; " description="&lt;b&gt;input.path1.gene686&lt;/b&gt;&lt;br&gt;input.path1.gene686&lt;br&gt;Location: 2280427 - 2283101" locus_tag="input.path1.gene686" class="clusterblast-orf" id="dummy-8_q15_0_all"  />
<polygon points="591,35 596,30 640,30 640,40 596,40 591,35 " style="fill:white; stroke-width:1; stroke:black; " description="&lt;b&gt;input.path1.gene687&lt;/b&gt;&lt;br&gt;input.path1.gene687&lt;br&gt;Location: 2283177 - 2286576" locus_tag="input.path1.gene687" class="clusterblast-orf" id="dummy-8_q16_0_all"  />
</g>
<g label="NW_006271970" description="NW_006271970 (340089-399189): Cordyceps militaris CM01 unplaced genomic scaff... (54% of genes show similarity), fungal-RiPP" class="clusterblast-cluster"  >
<text x="5" y="70" class="clusterblast-acc"  >
<a xlink:href="https://antismash-db.secondarymetabolites.org/area?record=NW_006271970&amp;start=340089&amp;end=399189" target="_blank">NW_006271970 (340089-399189)</a>: Cordyceps militaris CM01 unplaced genomic scaff... (54% of genes show similarity), fungal-RiPP</text>
<line x1="10" y1="85" x2="778.0" y2="85" style="stroke-width:1; stroke:grey; "  />
</g>
<g id="a8_000"  >
<polygon points="0,85 5,80 15,80 15,90 5,90 0,85 " style="fill:white; stroke-width:1; stroke:black; " description="&lt;b&gt;CCM_02047&lt;/b&gt;&lt;br&gt;anamorsin family protein&lt;br&gt;Location: 341129 - 342214" locus_tag="CCM_02047" class="clusterblast-orf" id="dummy-8_h8_1_0"  />
</g>
<g id="a8_001"  >
<polygon points="29,85 34,80 48,80 48,90 34,90 29,85 " style="fill:white; stroke-width:1; stroke:black; " description="&lt;b&gt;CCM_02048&lt;/b&gt;&lt;br&gt;hypothetical protein&lt;br&gt;Location: 343208 - 344550" locus_tag="CCM_02048" class="clusterblast-orf" id="dummy-8_h8_1_1"  />
</g>
<g id="a8_002"  >
<polygon points="60,90 60,90 65,85 60,80 60,80 60,90 " style="fill:white; stroke-width:1; stroke:black; " description="&lt;b&gt;CCM_02049&lt;/b&gt;&lt;br&gt;hypothetical protein&lt;br&gt;Location: 345372 - 345734" locus_tag="CCM_02049" class="clusterblast-orf" id="dummy-8_h8_1_2"  />
</g>
<g id="a8_003"  >
<polygon points="69,85 74,80 79,80 79,90 74,90 69,85 " style="fill:white; stroke-width:1; stroke:black; " description="&lt;b&gt;CCM_02050&lt;/b&gt;&lt;br&gt;GTP cyclohydrolase I, putative&lt;br&gt;Location: 346053 - 346765" locus_tag="CCM_02050" class="clusterblast-orf" id="dummy-8_h8_1_3"  />
</g>
<g id="a8_004"  >
<polygon points="87,90 130,90 135,85 130,80 87,80 87,90 " style="fill:white; stroke-width:1; stroke:black; " description="&lt;b&gt;CCM_02051&lt;/b&gt;&lt;br&gt;phosphoribosyl transferase&lt;br&gt;Location: 347266 - 350671" locus_tag="CCM_02051" class="clusterblast-orf" id="dummy-8_h8_1_4"  />
</g>
<g id="a8_005"  >
<polygon points="140,85 145,80 152,80 152,90 145,90 140,85 " style="fill:white; stroke-width:1; stroke:black; " description="&lt;b&gt;CCM_02052&lt;/b&gt;&lt;br&gt;alpha/beta hydrolase fold-1&lt;br&gt;Location: 351006 - 351863" locus_tag="CCM_02052" class="clusterblast-orf" id="dummy-8_h8_1_5"  />
</g>
<g id="a8_006"  >
<polygon points="163,90 169,90 174,85 169,80 163,80 163,90 " style="fill:white; stroke-width:1; stroke:black; " description="&lt;b&gt;CCM_02053&lt;/b&gt;&lt;br&gt;hypothetical protein&lt;br&gt;Location: 352632 - 353401" locus_tag="CCM_02053" class="clusterblast-orf" id="dummy-8_h8_1_6"  />
</g>
<g id="a8_007"  >
<polygon points="181,90 186,90 191,85 186,80 181,80 181,90 " style="fill:#d81515; stroke-width:1; stroke:black; " description="&lt;b&gt;CCM_02054&lt;/b&gt;&lt;br&gt;pyridoxamine phosphate oxidase family protein&lt;br&gt;Location: 353946 - 354611&lt;br&gt;&lt;br&gt;&lt;b&gt;BlastP hit with input.path1.gene671&lt;/b&gt;&lt;br&gt;Percentage identity: 77&lt;br&gt;Percentage coverage: 61&lt;br&gt;BLAST bit score: 206&lt;br&gt;E-value: 2.36e-65" locus_tag="CCM_02054" class="clusterblast-orf" id="dummy-8_h8_1_7"  />
</g>
<g id="a8_008"  >
<polygon points="197,85 202,80 217,80 217,90 202,90 197,85 " style="fill:#5cd815; stroke-width:1; stroke:black; " description="&lt;b&gt;CCM_02055&lt;/b&gt;&lt;br&gt;NRPS-like enzyme, putative&lt;br&gt;Location: 355014 - 356476&lt;br&gt;&lt;br&gt;&lt;b&gt;BlastP hit with input.path1.gene672&lt;/b&gt;&lt;br&gt;Percentage identity: 66&lt;br&gt;Percentage coverage: 123&lt;br&gt;BLAST bit score: 543&lt;br&gt;E-value: 1.04e-192" locus_tag="CCM_02055" class="clusterblast-orf" id="dummy-8_h8_1_8"  />
</g>
<g id="a8_009"  >
<polygon points="221,90 239,90 244,85 239,80 221,80 221,90 " style="fill:#15a3d8; stroke-width:1; stroke:black; " description="&lt;b&gt;CCM_02056&lt;/b&gt;&lt;br&gt;dimethylaniline monooxygenase, putative&lt;br&gt;Location: 356715 - 358363&lt;br&gt;&lt;br&gt;&lt;b&gt;BlastP hit with input.path1.gene673&lt;/b&gt;&lt;br&gt;Percentage identity: 72&lt;br&gt;Percentage coverage: 101&lt;br&gt;BLAST bit score: 712&lt;br&gt;E-value: 1.29e-256&lt;br&gt;&lt;br&gt;&lt;b&gt;BlastP hit with input.path1.gene674&lt;/b&gt;&lt;br&gt;Percentage identity: 42&lt;br&gt;Percentage coverage: 97&lt;br&gt;BLAST bit score: 365&lt;br&gt;E-value: 2.86e-120" locus_tag="CCM_02056" class="clusterblast-orf" id="dummy-8_h8_1_9"  />
</g>
<g id="a8_0010"  >
<polygon points="258,90 272,90 277,85 272,80 258,80 258,90 " style="fill:#15a3d8; stroke-width:1; stroke:black; " description="&lt;b&gt;CCM_02057&lt;/b&gt;&lt;br&gt;FAD dependent oxidoreductase&lt;br&gt;Location: 359341 - 360667&lt;br&gt;&lt;br&gt;&lt;b&gt;BlastP hit with input.path1.gene673&lt;/b&gt;&lt;br&gt;Percentage identity: 43&lt;br&gt;Percentage coverage: 79&lt;br&gt;BLAST bit score: 311&lt;br&gt;E-value: 6.36e-100&lt;br&gt;&lt;br&gt;&lt;b&gt;BlastP hit with input.path1.gene674&lt;/b&gt;&lt;br&gt;Percentage identity: 62&lt;br&gt;Percentage coverage: 84&lt;br&gt;BLAST bit score: 459&lt;br&gt;E-value: 6.3e-158" locus_tag="CCM_02057" class="clusterblast-orf" id="dummy-8_h8_1_10"  />
</g>
<g id="a8_0011"  >
<polygon points="278,85 283,80 297,80 297,90 283,90 278,85 " style="fill:#c715d8; stroke-width:1; stroke:black; " description="&lt;b&gt;CCM_02058&lt;/b&gt;&lt;br&gt;tyrosinase, putative&lt;br&gt;Location: 360785 - 362095&lt;br&gt;&lt;br&gt;&lt;b&gt;BlastP hit with input.path1.gene675&lt;/b&gt;&lt;br&gt;Percentage identity: 73&lt;br&gt;Percentage coverage: 104&lt;br&gt;BLAST bit score: 538&lt;br&gt;E-value: 3.14e-192" locus_tag="CCM_02058" class="clusterblast-orf" id="dummy-8_h8_1_11"  />
</g>
<g id="a8_0012"  >
<polygon points="304,90 312,90 317,85 312,80 304,80 304,90 " style="fill:#d88015; stroke-width:1; stroke:black; " description="&lt;b&gt;CCM_02059&lt;/b&gt;&lt;br&gt;hypothetical protein&lt;br&gt;Location: 362590 - 363523&lt;br&gt;&lt;br&gt;&lt;b&gt;BlastP hit with input.path1.gene676&lt;/b&gt;&lt;br&gt;Percentage identity: 74&lt;br&gt;Percentage coverage: 76&lt;br&gt;BLAST bit score: 112&lt;br&gt;E-value: 5.07e-30&lt;br&gt;&lt;br&gt;&lt;b&gt;BlastP hit with input.path1.gene677&lt;/b&gt;&lt;br&gt;Percentage identity: 33&lt;br&gt;Percentage coverage: 100&lt;br&gt;BLAST bit score: 85&lt;br&gt;E-value: 4.45e-18" locus_tag="CCM_02059" class="clusterblast-orf" id="dummy-8_h8_1_12"  />
</g>
<g id="a8_0013"  >
<polygon points="326,90 332,90 337,85 332,80 326,80 326,90 " style="fill:#d88015; stroke-width:1; stroke:black; " description="&lt;b&gt;CCM_02060&lt;/b&gt;&lt;br&gt;hypothetical protein&lt;br&gt;Location: 364171 - 364900&lt;br&gt;&lt;br&gt;&lt;b&gt;BlastP hit with input.path1.gene677&lt;/b&gt;&lt;br&gt;Percentage identity: 79&lt;br&gt;Percentage coverage: 95&lt;br&gt;BLAST bit score: 295&lt;br&gt;E-value: 6.41e-101" locus_tag="CCM_02060" class="clusterblast-orf" id="dummy-8_h8_1_13"  />
</g>
<g id="a8_0014"  >
<polygon points="352,85 357,80 384,80 384,90 357,90 352,85 " style="fill:#15d839; stroke-width:1; stroke:black; " description="&lt;b&gt;CCM_02061&lt;/b&gt;&lt;br&gt;Cytochrome P450&lt;br&gt;Location: 365954 - 368259&lt;br&gt;&lt;br&gt;&lt;b&gt;BlastP hit with input.path1.gene679&lt;/b&gt;&lt;br&gt;Percentage identity: 71&lt;br&gt;Percentage coverage: 105&lt;br&gt;BLAST bit score: 630&lt;br&gt;E-value: 1.34e-223" locus_tag="CCM_02061" class="clusterblast-orf" id="dummy-8_h8_1_14"  />
</g>
<g id="a8_0015"  >
<polygon points="404,90 427,90 432,85 427,80 404,80 404,90 " style="fill:#1539d8; stroke-width:1; stroke:black; " description="&lt;b&gt;CCM_02062&lt;/b&gt;&lt;br&gt;C6 transcription factor, putative&lt;br&gt;Location: 369669 - 371644&lt;br&gt;&lt;br&gt;&lt;b&gt;BlastP hit with input.path1.gene680&lt;/b&gt;&lt;br&gt;Percentage identity: 39&lt;br&gt;Percentage coverage: 98&lt;br&gt;BLAST bit score: 261&lt;br&gt;E-value: 1.43e-77" locus_tag="CCM_02062" class="clusterblast-orf" id="dummy-8_h8_1_15"  />
</g>
<g id="a8_0016"  >
<polygon points="434,85 439,80 447,80 447,90 439,90 434,85 " style="fill:#d81580; stroke-width:1; stroke:black; " description="&lt;b&gt;CCM_02063&lt;/b&gt;&lt;br&gt;hypothetical protein&lt;br&gt;Location: 371724 - 372671&lt;br&gt;&lt;br&gt;&lt;b&gt;BlastP hit with input.path1.gene681&lt;/b&gt;&lt;br&gt;Percentage identity: 67&lt;br&gt;Percentage coverage: 95&lt;br&gt;BLAST bit score: 412&lt;br&gt;E-value: 2.98e-143" locus_tag="CCM_02063" class="clusterblast-orf" id="dummy-8_h8_1_16"  />
</g>
<g id="a8_0017"  >
<polygon points="452,90 459,90 464,85 459,80 452,80 452,90 " style="fill:#c7d815; stroke-width:1; stroke:black; " description="&lt;b&gt;CCM_02064&lt;/b&gt;&lt;br&gt;glutathione S-transferase, putative&lt;br&gt;Location: 373004 - 373874&lt;br&gt;&lt;br&gt;&lt;b&gt;BlastP hit with input.path1.gene682&lt;/b&gt;&lt;br&gt;Percentage identity: 81&lt;br&gt;Percentage coverage: 100&lt;br&gt;BLAST bit score: 446&lt;br&gt;E-value: 2.63e-158" locus_tag="CCM_02064" class="clusterblast-orf" id="dummy-8_h8_1_17"  />
</g>
<g id="a8_0018"  >
<polygon points="476,90 499,90 504,85 499,80 476,80 476,90 " style="fill:#15d8a3; stroke-width:1; stroke:black; " description="&lt;b&gt;CCM_02065&lt;/b&gt;&lt;br&gt;gamma-glutamyltranspeptidase&lt;br&gt;Location: 374715 - 376689&lt;br&gt;&lt;br&gt;&lt;b&gt;BlastP hit with input.path1.gene683&lt;/b&gt;&lt;br&gt;Percentage identity: 68&lt;br&gt;Percentage coverage: 113&lt;br&gt;BLAST bit score: 673&lt;br&gt;E-value: 1.4e-240" locus_tag="CCM_02065" class="clusterblast-orf" id="dummy-8_h8_1_18"  />
</g>
<g id="a8_0019"  >
<polygon points="519,90 542,90 547,85 542,80 519,80 519,90 " style="fill:#5c15d8; stroke-width:1; stroke:black; " description="&lt;b&gt;CCM_02066&lt;/b&gt;&lt;br&gt;MFS multidrug transporter, putative&lt;br&gt;Location: 377774 - 379684&lt;br&gt;&lt;br&gt;&lt;b&gt;BlastP hit with input.path1.gene684&lt;/b&gt;&lt;br&gt;Percentage identity: 57&lt;br&gt;Percentage coverage: 101&lt;br&gt;BLAST bit score: 365&lt;br&gt;E-value: 7.07e-122" locus_tag="CCM_02066" class="clusterblast-orf" id="dummy-8_h8_1_19"  />
</g>
<g id="a8_0020"  >
<polygon points="583,90 602,90 607,85 602,80 583,80 583,90 " style="fill:white; stroke-width:1; stroke:black; " description="&lt;b&gt;CCM_02067&lt;/b&gt;&lt;br&gt;mannosyltransferase&lt;br&gt;Location: 382261 - 383963" locus_tag="CCM_02067" class="clusterblast-orf" id="dummy-8_h8_1_20"  />
</g>
<g id="a8_0021"  >
<polygon points="620,85 625,80 696,80 696,90 625,90 620,85 " style="fill:white; stroke-width:1; stroke:black; " description="&lt;b&gt;CCM_02068&lt;/b&gt;&lt;br&gt;serine/threonine protein kinase, putative&lt;br&gt;Location: 384871 - 390200" locus_tag="CCM_02068" class="clusterblast-orf" id="dummy-8_h8_1_21"  />
</g>
<g id="a8_0022"  >
<polygon points="707,85 712,80 712,80 712,90 712,90 707,85 " style="fill:white; stroke-width:1; stroke:black; " description="&lt;b&gt;CCM_02069&lt;/b&gt;&lt;br&gt;hypothetical protein&lt;br&gt;Location: 390983 - 391319" locus_tag="CCM_02069" class="clusterblast-orf" id="dummy-8_h8_1_22"  />
</g>
<g id="a8_0023"  >
<polygon points="766,85 771,80 780,80 780,90 771,90 766,85 " style="fill:white; stroke-width:1; stroke:black; " description="&lt;b&gt;CCM_02070&lt;/b&gt;&lt;br&gt;hypothetical protein&lt;br&gt;Location: 395166 - 396103" locus_tag="CCM_02070" class="clusterblast-orf" id="dummy-8_h8_1_23"  />
</g>
</svg>
