<svg xmlns="http://www.w3.org/2000/svg" xmlns:xlink="http://www.w3.org/1999/xlink" version="1.1" x="0" y="0" height="230" width="800" viewBox="0 0 800 230" preserveAspectRatio="none"  >
<g label="Query sequence" class="clusterblast-cluster"  >
<text x="5" y="20" class="clusterblast-acc"  >
Query sequence</text>
<line x1="10" y1="35" x2="778.0" y2="35" style="stroke-width:1; stroke:grey; "  />
<polygon points="86,35 91,30 102,30 102,40 91,40 86,35 " style="fill:#d81515; stroke-width:1; stroke:black; " description="&lt;b&gt;input.path1.gene2057&lt;/b&gt;&lt;br&gt;input.path1.gene2057&lt;br&gt;Location: 6939507 - 6940758" locus_tag="input.path1.gene2057" class="clusterblast-orf" id="dummy-8_q0_0_all"  />
<polygon points="107,40 118,40 123,35 118,30 107,30 107,40 " style="fill:#15d815; stroke-width:1; stroke:black; " description="&lt;b&gt;input.path1.gene2058&lt;/b&gt;&lt;br&gt;input.path1.gene2058&lt;br&gt;Location: 6941151 - 6942453" locus_tag="input.path1.gene2058" class="clusterblast-orf" id="dummy-8_q1_0_all"  />
<polygon points="125,35 130,30 131,30 131,40 130,40 125,35 " style="fill:#1597d8; stroke-width:1; stroke:black; " description="&lt;b&gt;input.path1.gene2059&lt;/b&gt;&lt;br&gt;input.path1.gene2059&lt;br&gt;Location: 6942627 - 6943160" locus_tag="input.path1.gene2059" class="clusterblast-orf" id="dummy-8_q2_0_all"  />
<polygon points="145,40 176,40 181,35 176,30 145,30 145,40 " style="fill:white; stroke-width:1; stroke:black; " description="&lt;b&gt;input.path1.gene2060&lt;/b&gt;&lt;br&gt;input.path1.gene2060&lt;br&gt;Location: 6944257 - 6947179" locus_tag="input.path1.gene2060" class="clusterblast-orf" id="dummy-8_q3_0_all"  />
<polygon points="191,40 194,40 199,35 194,30 191,30 191,40 " style="fill:#9715d8; stroke-width:1; stroke:black; " description="&lt;b&gt;input.path1.gene2061&lt;/b&gt;&lt;br&gt;input.path1.gene2061&lt;br&gt;Location: 6948039 - 6948687" locus_tag="input.path1.gene2061" class="clusterblast-orf" id="dummy-8_q4_0_all"  />
<polygon points="232,40 235,40 240,35 235,30 232,30 232,40 " style="fill:#d89715; stroke-width:1; stroke:black; " description="&lt;b&gt;input.path1.gene2062&lt;/b&gt;&lt;br&gt;input.path1.gene2062&lt;br&gt;Location: 6951368 - 6951950" locus_tag="input.path1.gene2062" class="clusterblast-orf" id="dummy-8_q5_0_all"  />
<polygon points="244,35 249,30 263,30 263,40 249,40 244,35 " style="fill:#15d897; stroke-width:1; stroke:black; " description="&lt;b&gt;input.path1.gene2063&lt;/b&gt;&lt;br&gt;input.path1.gene2063&lt;br&gt;Location: 6952280 - 6953851" locus_tag="input.path1.gene2063" class="clusterblast-orf" id="dummy-8_q6_0_all"  />
<polygon points="301,35 305,30 305,40 301,35 " style="fill:white; stroke-width:1; stroke:black; " description="&lt;b&gt;input.path1.gene2064&lt;/b&gt;&lt;br&gt;input.path1.gene2064&lt;br&gt;Location: 6956909 - 6957228" locus_tag="input.path1.gene2064" class="clusterblast-orf" id="dummy-8_q7_0_all"  />
<polygon points="328,40 473,40 478,35 473,30 328,30 328,40 " style="fill:#1515d8; stroke-width:1; stroke:black; " description="&lt;b&gt;input.path1.gene2065&lt;/b&gt;&lt;br&gt;input.path1.gene2065&lt;br&gt;Location: 6959089 - 6971283" locus_tag="input.path1.gene2065" class="clusterblast-orf" id="dummy-8_q8_0_all"  />
<polygon points="500,35 505,30 522,30 522,40 505,40 500,35 " style="fill:white; stroke-width:1; stroke:black; " description="&lt;b&gt;input.path1.gene2066&lt;/b&gt;&lt;br&gt;input.path1.gene2066&lt;br&gt;Location: 6973086 - 6974886" locus_tag="input.path1.gene2066" class="clusterblast-orf" id="dummy-8_q9_0_all"  />
<polygon points="531,35 536,30 542,30 542,40 536,40 531,35 " style="fill:white; stroke-width:1; stroke:black; " description="&lt;b&gt;input.path1.gene2067&lt;/b&gt;&lt;br&gt;input.path1.gene2067&lt;br&gt;Location: 6975608 - 6976477" locus_tag="input.path1.gene2067" class="clusterblast-orf" id="dummy-8_q10_0_all"  />
<polygon points="546,35 551,30 566,30 566,40 551,40 546,35 " style="fill:#d81597; stroke-width:1; stroke:black; " description="&lt;b&gt;input.path1.gene2068&lt;/b&gt;&lt;br&gt;input.path1.gene2068&lt;br&gt;Location: 6976793 - 6978404" locus_tag="input.path1.gene2068" class="clusterblast-orf" id="dummy-8_q11_0_all"  />
<polygon points="579,40 598,40 603,35 598,30 579,30 579,40 " style="fill:#97d815; stroke-width:1; stroke:black; " description="&lt;b&gt;input.path1.gene2069&lt;/b&gt;&lt;br&gt;input.path1.gene2069&lt;br&gt;Location: 6979509 - 6981443" locus_tag="input.path1.gene2069" class="clusterblast-orf" id="dummy-8_q12_0_all"  />
<polygon points="608,40 625,40 630,35 625,30 608,30 608,40 " style="fill:white; stroke-width:1; stroke:black; " description="&lt;b&gt;input.path1.gene2070&lt;/b&gt;&lt;br&gt;input.path1.gene2070&lt;br&gt;Location: 6981890 - 6983650" locus_tag="input.path1.gene2070" class="clusterblast-orf" id="dummy-8_q13_0_all"  />
<polygon points="641,40 655,40 660,35 655,30 641,30 641,40 " style="fill:white; stroke-width:1; stroke:black; " description="&lt;b&gt;input.path1.gene2071&lt;/b&gt;&lt;br&gt;input.path1.gene2071&lt;br&gt;Location: 6984509 - 6986076" locus_tag="input.path1.gene2071" class="clusterblast-orf" id="dummy-8_q14_0_all"  />
<polygon points="674,35 679,30 693,30 693,40 679,40 674,35 " style="fill:white; stroke-width:1; stroke:black; " description="&lt;b&gt;input.path1.gene2072&lt;/b&gt;&lt;br&gt;input.path1.gene2072&lt;br&gt;Location: 6987246 - 6988742" locus_tag="input.path1.gene2072" class="clusterblast-orf" id="dummy-8_q15_0_all"  />
</g>
<g label="NW_026054662" description="NW_026054662 (87874-155539): Ophidiomyces ophidiicola strain CBS 122913 chrom... (9% of genes show similarity), T1PKS" class="clusterblast-cluster"  >
<text x="5" y="70" class="clusterblast-acc"  >
<a xlink:href="https://antismash-db.secondarymetabolites.org/area?record=NW_026054662&amp;start=87874&amp;end=155539" target="_blank">NW_026054662 (87874-155539)</a>: Ophidiomyces ophidiicola strain CBS 122913 chrom... (9% of genes show similarity), T1PKS</text>
<line x1="10" y1="85" x2="778.0" y2="85" style="stroke-width:1; stroke:grey; "  />
</g>
<g id="a8_000"  >
<polygon points="0,90 12,90 17,85 12,80 0,80 0,90 " style="fill:white; stroke-width:1; stroke:black; " description="&lt;b&gt;LOZ57_004909&lt;/b&gt;&lt;br&gt;Zn finger-containing GTPase- Activating Protein for ARF&lt;br&gt;Location: 89567 - 90959" locus_tag="LOZ57_004909" class="clusterblast-orf" id="dummy-8_h8_10_0"  />
</g>
<g id="a8_001"  >
<polygon points="23,90 29,90 34,85 29,80 23,80 23,90 " style="fill:white; stroke-width:1; stroke:black; " description="&lt;b&gt;LOZ57_004910&lt;/b&gt;&lt;br&gt;uncharacterized protein&lt;br&gt;Location: 91481 - 92389" locus_tag="LOZ57_004910" class="clusterblast-orf" id="dummy-8_h8_10_1"  />
</g>
<g id="a8_002"  >
<polygon points="35,85 40,80 42,80 42,90 40,90 35,85 " style="fill:white; stroke-width:1; stroke:black; " description="&lt;b&gt;LOZ57_004911&lt;/b&gt;&lt;br&gt;uncharacterized protein&lt;br&gt;Location: 92436 - 93032" locus_tag="LOZ57_004911" class="clusterblast-orf" id="dummy-8_h8_10_2"  />
</g>
<g id="a8_003"  >
<polygon points="64,85 69,80 98,80 98,90 69,90 64,85 " style="fill:white; stroke-width:1; stroke:black; " description="&lt;b&gt;LOZ57_004912&lt;/b&gt;&lt;br&gt;Ribosome-releasing factor 2, mitochondrial&lt;br&gt;Location: 94818 - 97562" locus_tag="LOZ57_004912" class="clusterblast-orf" id="dummy-8_h8_10_3"  />
</g>
<g id="a8_004"  >
<polygon points="103,90 121,90 126,85 121,80 103,80 103,90 " style="fill:white; stroke-width:1; stroke:black; " description="&lt;b&gt;LOZ57_004913&lt;/b&gt;&lt;br&gt;Vacuolar protein sorting-associated protein 17&lt;br&gt;Location: 97999 - 99861" locus_tag="LOZ57_004913" class="clusterblast-orf" id="dummy-8_h8_10_4"  />
</g>
<g id="a8_005"  >
<polygon points="130,85 135,80 135,80 135,90 135,90 130,85 " style="fill:white; stroke-width:1; stroke:black; " description="&lt;b&gt;LOZ57_004914&lt;/b&gt;&lt;br&gt;uncharacterized protein&lt;br&gt;Location: 100122 - 100595" locus_tag="LOZ57_004914" class="clusterblast-orf" id="dummy-8_h8_10_5"  />
</g>
<g id="a8_006"  >
<polygon points="142,90 150,90 155,85 150,80 142,80 142,90 " style="fill:white; stroke-width:1; stroke:black; " description="&lt;b&gt;LOZ57_004915&lt;/b&gt;&lt;br&gt;uncharacterized protein&lt;br&gt;Location: 101167 - 102204" locus_tag="LOZ57_004915" class="clusterblast-orf" id="dummy-8_h8_10_6"  />
</g>
<g id="a8_007"  >
<polygon points="171,90 260,90 265,85 260,80 171,80 171,90 " style="fill:white; stroke-width:1; stroke:black; " description="&lt;b&gt;LOZ57_004916&lt;/b&gt;&lt;br&gt;THO2 plays a role in transcriptional elongation&lt;br&gt;Location: 103465 - 111146" locus_tag="LOZ57_004916" class="clusterblast-orf" id="dummy-8_h8_10_7"  />
</g>
<g id="a8_008"  >
<polygon points="310,85 315,80 329,80 329,90 315,90 310,85 " style="fill:white; stroke-width:1; stroke:black; " description="&lt;b&gt;LOZ57_004917&lt;/b&gt;&lt;br&gt;uncharacterized protein&lt;br&gt;Location: 114783 - 116336" locus_tag="LOZ57_004917" class="clusterblast-orf" id="dummy-8_h8_10_8"  />
</g>
<g id="a8_009"  >
<polygon points="348,90 438,90 443,85 438,80 348,80 348,90 " style="fill:#1515d8; stroke-width:1; stroke:black; " description="&lt;b&gt;LOZ57_004918&lt;/b&gt;&lt;br&gt;uncharacterized protein&lt;br&gt;Location: 117875 - 125539&lt;br&gt;&lt;br&gt;&lt;b&gt;BlastP hit with input.path1.gene2065&lt;/b&gt;&lt;br&gt;Percentage identity: 36&lt;br&gt;Percentage coverage: 66&lt;br&gt;BLAST bit score: 1387&lt;br&gt;E-value: 0.0" locus_tag="LOZ57_004918" class="clusterblast-orf" id="dummy-8_h8_10_9"  />
</g>
<g id="a8_0010"  >
<polygon points="454,85 459,80 467,80 467,90 459,90 454,85 " style="fill:white; stroke-width:1; stroke:black; " description="&lt;b&gt;LOZ57_004919&lt;/b&gt;&lt;br&gt;uncharacterized protein&lt;br&gt;Location: 126461 - 127504" locus_tag="LOZ57_004919" class="clusterblast-orf" id="dummy-8_h8_10_10"  />
</g>
<g id="a8_0011"  >
<polygon points="481,85 486,80 505,80 505,90 486,90 481,85 " style="fill:#d81597; stroke-width:1; stroke:black; " description="&lt;b&gt;LOZ57_004920&lt;/b&gt;&lt;br&gt;uncharacterized protein&lt;br&gt;Location: 128638 - 130628&lt;br&gt;&lt;br&gt;&lt;b&gt;BlastP hit with input.path1.gene2068&lt;/b&gt;&lt;br&gt;Percentage identity: 36&lt;br&gt;Percentage coverage: 91&lt;br&gt;BLAST bit score: 268&lt;br&gt;E-value: 4.06e-82" locus_tag="LOZ57_004920" class="clusterblast-orf" id="dummy-8_h8_10_11"  />
</g>
<g id="a8_0012"  >
<polygon points="527,85 532,80 546,80 546,90 532,90 527,85 " style="fill:white; stroke-width:1; stroke:black; " description="&lt;b&gt;LOZ57_004921&lt;/b&gt;&lt;br&gt;uncharacterized protein&lt;br&gt;Location: 132378 - 133910" locus_tag="LOZ57_004921" class="clusterblast-orf" id="dummy-8_h8_10_12"  />
</g>
<g id="a8_0013"  >
<polygon points="554,90 573,90 578,85 573,80 554,80 554,90 " style="fill:white; stroke-width:1; stroke:black; " description="&lt;b&gt;LOZ57_004922&lt;/b&gt;&lt;br&gt;uncharacterized protein&lt;br&gt;Location: 134589 - 136520" locus_tag="LOZ57_004922" class="clusterblast-orf" id="dummy-8_h8_10_13"  />
</g>
<g id="a8_0014"  >
<polygon points="599,90 604,90 609,85 604,80 599,80 599,90 " style="fill:white; stroke-width:1; stroke:black; " description="&lt;b&gt;LOZ57_004923&lt;/b&gt;&lt;br&gt;uncharacterized protein&lt;br&gt;Location: 138219 - 139052" locus_tag="LOZ57_004923" class="clusterblast-orf" id="dummy-8_h8_10_14"  />
</g>
<g id="a8_0015"  >
<polygon points="613,85 618,80 629,80 629,90 618,90 613,85 " style="fill:white; stroke-width:1; stroke:black; " description="&lt;b&gt;LOZ57_004924&lt;/b&gt;&lt;br&gt;uncharacterized protein&lt;br&gt;Location: 139357 - 140646" locus_tag="LOZ57_004924" class="clusterblast-orf" id="dummy-8_h8_10_15"  />
</g>
<g id="a8_0016"  >
<polygon points="632,90 651,90 656,85 651,80 632,80 632,90 " style="fill:white; stroke-width:1; stroke:black; " description="&lt;b&gt;LOZ57_004925&lt;/b&gt;&lt;br&gt;uncharacterized protein&lt;br&gt;Location: 140913 - 142859" locus_tag="LOZ57_004925" class="clusterblast-orf" id="dummy-8_h8_10_16"  />
</g>
<g id="a8_0017"  >
<polygon points="665,90 672,90 677,85 672,80 665,80 665,90 " style="fill:white; stroke-width:1; stroke:black; " description="&lt;b&gt;LOZ57_004926&lt;/b&gt;&lt;br&gt;uncharacterized protein&lt;br&gt;Location: 143625 - 144593" locus_tag="LOZ57_004926" class="clusterblast-orf" id="dummy-8_h8_10_17"  />
</g>
<g id="a8_0018"  >
<polygon points="684,90 720,90 725,85 720,80 684,80 684,90 " style="fill:white; stroke-width:1; stroke:black; " description="&lt;b&gt;LOZ57_004927&lt;/b&gt;&lt;br&gt;NAPDH-dependent diflavin reductase&lt;br&gt;Location: 145125 - 148453" locus_tag="LOZ57_004927" class="clusterblast-orf" id="dummy-8_h8_10_18"  />
</g>
<g id="a8_0019"  >
<polygon points="730,90 738,90 743,85 738,80 730,80 730,90 " style="fill:white; stroke-width:1; stroke:black; " description="&lt;b&gt;LOZ57_004928&lt;/b&gt;&lt;br&gt;putative electron transfer flavoprotein subunit&lt;br&gt;Location: 148877 - 149880" locus_tag="LOZ57_004928" class="clusterblast-orf" id="dummy-8_h8_10_19"  />
</g>
<g id="a8_0020"  >
<polygon points="767,90 775,90 780,85 775,80 767,80 767,90 " style="fill:white; stroke-width:1; stroke:black; " description="&lt;b&gt;LOZ57_004929&lt;/b&gt;&lt;br&gt;uncharacterized protein&lt;br&gt;Location: 151836 - 152879" locus_tag="LOZ57_004929" class="clusterblast-orf" id="dummy-8_h8_10_20"  />
</g>
</svg>
