<svg xmlns="http://www.w3.org/2000/svg" xmlns:xlink="http://www.w3.org/1999/xlink" version="1.1" x="0" y="0" height="230" width="800" viewBox="0 0 800 230" preserveAspectRatio="none"  >
<g label="Query sequence" class="clusterblast-cluster"  >
<text x="5" y="20" class="clusterblast-acc"  >
Query sequence</text>
<line x1="10" y1="35" x2="778.0" y2="35" style="stroke-width:1; stroke:grey; "  />
<polygon points="113,35 118,30 123,30 123,40 118,40 113,35 " style="fill:white; stroke-width:1; stroke:black; " description="&lt;b&gt;input.path1.gene286&lt;/b&gt;&lt;br&gt;input.path1.gene286&lt;br&gt;Location: 920440 - 921285" locus_tag="input.path1.gene286" class="clusterblast-orf" id="dummy-1_q0_0_all"  />
<polygon points="141,40 146,40 151,35 146,30 141,30 141,40 " style="fill:white; stroke-width:1; stroke:black; " description="&lt;b&gt;input.path1.gene287&lt;/b&gt;&lt;br&gt;input.path1.gene287&lt;br&gt;Location: 922730 - 923515" locus_tag="input.path1.gene287" class="clusterblast-orf" id="dummy-1_q1_0_all"  />
<polygon points="159,35 164,30 167,30 167,40 164,40 159,35 " style="fill:#d81515; stroke-width:1; stroke:black; " description="&lt;b&gt;input.path1.gene288&lt;/b&gt;&lt;br&gt;input.path1.gene288&lt;br&gt;Location: 924100 - 924796" locus_tag="input.path1.gene288" class="clusterblast-orf" id="dummy-1_q2_0_all"  />
<polygon points="176,40 221,40 226,35 221,30 176,30 176,40 " style="fill:#15d863; stroke-width:1; stroke:black; " description="&lt;b&gt;input.path1.gene289&lt;/b&gt;&lt;br&gt;input.path1.gene289&lt;br&gt;Location: 925518 - 929505" locus_tag="input.path1.gene289" class="clusterblast-orf" id="dummy-1_q3_0_all"  />
<polygon points="239,35 244,30 254,30 254,40 244,40 239,35 " style="fill:white; stroke-width:1; stroke:black; " description="&lt;b&gt;input.path1.gene290&lt;/b&gt;&lt;br&gt;input.path1.gene290&lt;br&gt;Location: 930506 - 931725" locus_tag="input.path1.gene290" class="clusterblast-orf" id="dummy-1_q4_0_all"  />
<polygon points="262,40 269,40 274,35 269,30 262,30 262,40 " style="fill:white; stroke-width:1; stroke:black; " description="&lt;b&gt;input.path1.gene291&lt;/b&gt;&lt;br&gt;input.path1.gene291&lt;br&gt;Location: 932352 - 933351" locus_tag="input.path1.gene291" class="clusterblast-orf" id="dummy-1_q5_0_all"  />
<polygon points="274,35 279,30 294,30 294,40 279,40 274,35 " style="fill:#1563d8; stroke-width:1; stroke:black; " description="&lt;b&gt;input.path1.gene292&lt;/b&gt;&lt;br&gt;input.path1.gene292&lt;br&gt;Location: 933347 - 934913" locus_tag="input.path1.gene292" class="clusterblast-orf" id="dummy-1_q6_0_all"  />
<polygon points="302,40 328,40 333,35 328,30 302,30 302,40 " style="fill:#b115d8; stroke-width:1; stroke:black; " description="&lt;b&gt;input.path1.gene293&lt;/b&gt;&lt;br&gt;input.path1.gene293&lt;br&gt;Location: 935584 - 938066" locus_tag="input.path1.gene293" class="clusterblast-orf" id="dummy-1_q7_0_all"  />
<polygon points="334,35 339,30 346,30 346,40 339,40 334,35 " style="fill:white; stroke-width:1; stroke:black; " description="&lt;b&gt;input.path1.gene294&lt;/b&gt;&lt;br&gt;input.path1.gene294&lt;br&gt;Location: 938114 - 939072" locus_tag="input.path1.gene294" class="clusterblast-orf" id="dummy-1_q8_0_all"  />
<polygon points="353,40 416,40 421,35 416,30 353,30 353,40 " style="fill:#b1d815; stroke-width:1; stroke:black; " description="&lt;b&gt;input.path1.gene295&lt;/b&gt;&lt;br&gt;input.path1.gene295&lt;br&gt;Location: 939612 - 945101" locus_tag="input.path1.gene295" class="clusterblast-orf" id="dummy-1_q9_0_all"  />
<polygon points="449,40 488,40 493,35 488,30 449,30 449,40 " style="fill:white; stroke-width:1; stroke:black; " description="&lt;b&gt;input.path1.gene296&lt;/b&gt;&lt;br&gt;input.path1.gene296&lt;br&gt;Location: 947328 - 950819" locus_tag="input.path1.gene296" class="clusterblast-orf" id="dummy-1_q10_0_all"  />
<polygon points="514,40 515,40 520,35 515,30 514,30 514,40 " style="fill:white; stroke-width:1; stroke:black; " description="&lt;b&gt;input.path1.gene297&lt;/b&gt;&lt;br&gt;input.path1.gene297&lt;br&gt;Location: 952474 - 952979" locus_tag="input.path1.gene297" class="clusterblast-orf" id="dummy-1_q11_0_all"  />
<polygon points="524,35 529,30 529,30 529,40 529,40 524,35 " style="fill:white; stroke-width:1; stroke:black; " description="&lt;b&gt;input.path1.gene298&lt;/b&gt;&lt;br&gt;input.path1.gene298&lt;br&gt;Location: 953304 - 953678" locus_tag="input.path1.gene298" class="clusterblast-orf" id="dummy-1_q12_0_all"  />
<polygon points="551,40 565,40 570,35 565,30 551,30 551,40 " style="fill:white; stroke-width:1; stroke:black; " description="&lt;b&gt;input.path1.gene299&lt;/b&gt;&lt;br&gt;input.path1.gene299&lt;br&gt;Location: 955469 - 956999" locus_tag="input.path1.gene299" class="clusterblast-orf" id="dummy-1_q13_0_all"  />
<polygon points="585,35 590,30 619,30 619,40 590,40 585,35 " style="fill:white; stroke-width:1; stroke:black; " description="&lt;b&gt;input.path1.gene300&lt;/b&gt;&lt;br&gt;input.path1.gene300&lt;br&gt;Location: 958155 - 960924" locus_tag="input.path1.gene300" class="clusterblast-orf" id="dummy-1_q14_0_all"  />
<polygon points="647,40 661,40 666,35 661,30 647,30 647,40 " style="fill:white; stroke-width:1; stroke:black; " description="&lt;b&gt;input.path1.gene301&lt;/b&gt;&lt;br&gt;input.path1.gene301&lt;br&gt;Location: 963159 - 964690" locus_tag="input.path1.gene301" class="clusterblast-orf" id="dummy-1_q15_0_all"  />
</g>
<g label="NW_019170454" description="NW_019170454 (685594-749291): Aspergillus glaucus CBS 516.65 unplaced genomic... (7% of genes show similarity), NRPS" class="clusterblast-cluster"  >
<text x="5" y="70" class="clusterblast-acc"  >
<a xlink:href="https://antismash-db.secondarymetabolites.org/area?record=NW_019170454&amp;start=685594&amp;end=749291" target="_blank">NW_019170454 (685594-749291)</a>: Aspergillus glaucus CBS 516.65 unplaced genomic... (7% of genes show similarity), NRPS</text>
<line x1="10" y1="85" x2="778.0" y2="85" style="stroke-width:1; stroke:grey; "  />
</g>
<g id="a1_000"  >
<polygon points="0,90 1,90 6,85 1,80 0,80 0,90 " style="fill:white; stroke-width:1; stroke:black; " description="&lt;b&gt;ASPGLDRAFT_63380&lt;/b&gt;&lt;br&gt;hypothetical protein&lt;br&gt;Location: 748409 - 747912" locus_tag="ASPGLDRAFT_63380" class="clusterblast-orf" id="dummy-1_h1_5_0"  />
</g>
<g id="a1_001"  >
<polygon points="10,85 15,80 17,80 17,90 15,90 10,85 " style="fill:white; stroke-width:1; stroke:black; " description="&lt;b&gt;ASPGLDRAFT_117536&lt;/b&gt;&lt;br&gt;hypothetical protein&lt;br&gt;Location: 747541 - 746974" locus_tag="ASPGLDRAFT_117536" class="clusterblast-orf" id="dummy-1_h1_5_1"  />
</g>
<g id="a1_002"  >
<polygon points="22,90 37,90 42,85 37,80 22,80 22,90 " style="fill:white; stroke-width:1; stroke:black; " description="&lt;b&gt;ASPGLDRAFT_22027&lt;/b&gt;&lt;br&gt;hypothetical protein&lt;br&gt;Location: 746648 - 745016" locus_tag="ASPGLDRAFT_22027" class="clusterblast-orf" id="dummy-1_h1_5_2"  />
</g>
<g id="a1_003"  >
<polygon points="50,90 54,85 50,80 50,90 " style="fill:white; stroke-width:1; stroke:black; " description="&lt;b&gt;ASPGLDRAFT_116376&lt;/b&gt;&lt;br&gt;hypothetical protein&lt;br&gt;Location: 744400 - 744089" locus_tag="ASPGLDRAFT_116376" class="clusterblast-orf" id="dummy-1_h1_5_3"  />
</g>
<g id="a1_004"  >
<polygon points="61,85 66,80 70,80 70,90 66,90 61,85 " style="fill:white; stroke-width:1; stroke:black; " description="&lt;b&gt;ASPGLDRAFT_117358&lt;/b&gt;&lt;br&gt;hypothetical protein&lt;br&gt;Location: 743529 - 742762" locus_tag="ASPGLDRAFT_117358" class="clusterblast-orf" id="dummy-1_h1_5_4"  />
</g>
<g id="a1_005"  >
<polygon points="74,85 79,80 91,80 91,90 79,90 74,85 " style="fill:white; stroke-width:1; stroke:black; " description="&lt;b&gt;ASPGLDRAFT_42080&lt;/b&gt;&lt;br&gt;hypothetical protein&lt;br&gt;Location: 742444 - 741127" locus_tag="ASPGLDRAFT_42080" class="clusterblast-orf" id="dummy-1_h1_5_5"  />
</g>
<g id="a1_006"  >
<polygon points="97,85 102,80 108,80 108,90 102,90 97,85 " style="fill:white; stroke-width:1; stroke:black; " description="&lt;b&gt;ASPGLDRAFT_71524&lt;/b&gt;&lt;br&gt;hypothetical protein&lt;br&gt;Location: 740594 - 739743" locus_tag="ASPGLDRAFT_71524" class="clusterblast-orf" id="dummy-1_h1_5_6"  />
</g>
<g id="a1_007"  >
<polygon points="119,85 124,80 141,80 141,90 124,90 119,85 " style="fill:white; stroke-width:1; stroke:black; " description="&lt;b&gt;ASPGLDRAFT_141053&lt;/b&gt;&lt;br&gt;hypothetical protein&lt;br&gt;Location: 738868 - 737128" locus_tag="ASPGLDRAFT_141053" class="clusterblast-orf" id="dummy-1_h1_5_7"  />
</g>
<g id="a1_008"  >
<polygon points="147,85 151,80 151,90 147,85 " style="fill:white; stroke-width:1; stroke:black; " description="&lt;b&gt;ASPGLDRAFT_712791&lt;/b&gt;&lt;br&gt;hypothetical protein&lt;br&gt;Location: 736660 - 736291" locus_tag="ASPGLDRAFT_712791" class="clusterblast-orf" id="dummy-1_h1_5_8"  />
</g>
<g id="a1_009"  >
<polygon points="154,85 159,80 178,80 178,90 159,90 154,85 " style="fill:white; stroke-width:1; stroke:black; " description="&lt;b&gt;ASPGLDRAFT_712796&lt;/b&gt;&lt;br&gt;hypothetical protein&lt;br&gt;Location: 736040 - 734143" locus_tag="ASPGLDRAFT_712796" class="clusterblast-orf" id="dummy-1_h1_5_9"  />
</g>
<g id="a1_0010"  >
<polygon points="189,90 194,90 199,85 194,80 189,80 189,90 " style="fill:white; stroke-width:1; stroke:black; " description="&lt;b&gt;ASPGLDRAFT_42075&lt;/b&gt;&lt;br&gt;hypothetical protein&lt;br&gt;Location: 733247 - 732450" locus_tag="ASPGLDRAFT_42075" class="clusterblast-orf" id="dummy-1_h1_5_10"  />
</g>
<g id="a1_0011"  >
<polygon points="202,85 207,80 230,80 230,90 207,90 202,85 " style="fill:white; stroke-width:1; stroke:black; " description="&lt;b&gt;ASPGLDRAFT_79021&lt;/b&gt;&lt;br&gt;hypothetical protein&lt;br&gt;Location: 732243 - 730001" locus_tag="ASPGLDRAFT_79021" class="clusterblast-orf" id="dummy-1_h1_5_11"  />
</g>
<g id="a1_0012"  >
<polygon points="236,90 243,90 248,85 243,80 236,80 236,90 " style="fill:white; stroke-width:1; stroke:black; " description="&lt;b&gt;ASPGLDRAFT_162904&lt;/b&gt;&lt;br&gt;hypothetical protein&lt;br&gt;Location: 729514 - 728541" locus_tag="ASPGLDRAFT_162904" class="clusterblast-orf" id="dummy-1_h1_5_12"  />
</g>
<g id="a1_0013"  >
<polygon points="251,90 265,90 270,85 265,80 251,80 251,90 " style="fill:white; stroke-width:1; stroke:black; " description="&lt;b&gt;ASPGLDRAFT_63369&lt;/b&gt;&lt;br&gt;hypothetical protein&lt;br&gt;Location: 728319 - 726815" locus_tag="ASPGLDRAFT_63369" class="clusterblast-orf" id="dummy-1_h1_5_13"  />
</g>
<g id="a1_0014"  >
<polygon points="279,85 284,80 299,80 299,90 284,90 279,85 " style="fill:white; stroke-width:1; stroke:black; " description="&lt;b&gt;ASPGLDRAFT_141043&lt;/b&gt;&lt;br&gt;hypothetical protein&lt;br&gt;Location: 726103 - 724495" locus_tag="ASPGLDRAFT_141043" class="clusterblast-orf" id="dummy-1_h1_5_14"  />
</g>
<g id="a1_0015"  >
<polygon points="305,90 316,90 321,85 316,80 305,80 305,90 " style="fill:white; stroke-width:1; stroke:black; " description="&lt;b&gt;ASPGLDRAFT_54543&lt;/b&gt;&lt;br&gt;hypothetical protein&lt;br&gt;Location: 724032 - 722727" locus_tag="ASPGLDRAFT_54543" class="clusterblast-orf" id="dummy-1_h1_5_15"  />
</g>
<g id="a1_0016"  >
<polygon points="323,90 324,90 329,85 324,80 323,80 323,90 " style="fill:white; stroke-width:1; stroke:black; " description="&lt;b&gt;ASPGLDRAFT_42071&lt;/b&gt;&lt;br&gt;hypothetical protein&lt;br&gt;Location: 722560 - 722083" locus_tag="ASPGLDRAFT_42071" class="clusterblast-orf" id="dummy-1_h1_5_16"  />
</g>
<g id="a1_0017"  >
<polygon points="331,90 334,85 331,80 331,90 " style="fill:white; stroke-width:1; stroke:black; " description="&lt;b&gt;ASPGLDRAFT_117306&lt;/b&gt;&lt;br&gt;hypothetical protein&lt;br&gt;Location: 721895 - 721716" locus_tag="ASPGLDRAFT_117306" class="clusterblast-orf" id="dummy-1_h1_5_17"  />
</g>
<g id="a1_0018"  >
<polygon points="342,90 352,90 357,85 352,80 342,80 342,90 " style="fill:#1563d8; stroke-width:1; stroke:black; " description="&lt;b&gt;ASPGLDRAFT_31639&lt;/b&gt;&lt;br&gt;hypothetical protein&lt;br&gt;Location: 721001 - 719880&lt;br&gt;&lt;br&gt;&lt;b&gt;BlastP hit with input.path1.gene292&lt;/b&gt;&lt;br&gt;Percentage identity: 43&lt;br&gt;Percentage coverage: 80&lt;br&gt;BLAST bit score: 228&lt;br&gt;E-value: 1.22e-69" locus_tag="ASPGLDRAFT_31639" class="clusterblast-orf" id="dummy-1_h1_5_18"  />
</g>
<g id="a1_0019"  >
<polygon points="364,90 405,90 410,85 405,80 364,80 364,90 " style="fill:#b1d815; stroke-width:1; stroke:black; " description="&lt;b&gt;ASPGLDRAFT_712366&lt;/b&gt;&lt;br&gt;hypothetical protein&lt;br&gt;Location: 719291 - 715595&lt;br&gt;&lt;br&gt;&lt;b&gt;BlastP hit with input.path1.gene295&lt;/b&gt;&lt;br&gt;Percentage identity: 34&lt;br&gt;Percentage coverage: 82&lt;br&gt;BLAST bit score: 541&lt;br&gt;E-value: 1.78e-169" locus_tag="ASPGLDRAFT_712366" class="clusterblast-orf" id="dummy-1_h1_5_19"  />
</g>
<g id="a1_0020"  >
<polygon points="422,90 528,90 533,85 528,80 422,80 422,90 " style="fill:white; stroke-width:1; stroke:black; " description="&lt;b&gt;ASPGLDRAFT_141033&lt;/b&gt;&lt;br&gt;hypothetical protein&lt;br&gt;Location: 714625 - 705765" locus_tag="ASPGLDRAFT_141033" class="clusterblast-orf" id="dummy-1_h1_5_20"  />
</g>
<g id="a1_0021"  >
<polygon points="556,90 559,85 556,80 556,90 " style="fill:white; stroke-width:1; stroke:black; " description="&lt;b&gt;ASPGLDRAFT_712100&lt;/b&gt;&lt;br&gt;hypothetical protein&lt;br&gt;Location: 703974 - 703699" locus_tag="ASPGLDRAFT_712100" class="clusterblast-orf" id="dummy-1_h1_5_21"  />
</g>
<g id="a1_0022"  >
<polygon points="563,90 578,90 583,85 578,80 563,80 563,90 " style="fill:white; stroke-width:1; stroke:black; " description="&lt;b&gt;ASPGLDRAFT_117436&lt;/b&gt;&lt;br&gt;hypothetical protein&lt;br&gt;Location: 703350 - 701799" locus_tag="ASPGLDRAFT_117436" class="clusterblast-orf" id="dummy-1_h1_5_22"  />
</g>
<g id="a1_0023"  >
<polygon points="587,90 597,90 602,85 597,80 587,80 587,90 " style="fill:white; stroke-width:1; stroke:black; " description="&lt;b&gt;ASPGLDRAFT_22012&lt;/b&gt;&lt;br&gt;hypothetical protein&lt;br&gt;Location: 701502 - 700287" locus_tag="ASPGLDRAFT_22012" class="clusterblast-orf" id="dummy-1_h1_5_23"  />
</g>
<g id="a1_0024"  >
<polygon points="677,85 682,80 693,80 693,90 682,90 677,85 " style="fill:white; stroke-width:1; stroke:black; " description="&lt;b&gt;ASPGLDRAFT_63359&lt;/b&gt;&lt;br&gt;hypothetical protein&lt;br&gt;Location: 694279 - 692978" locus_tag="ASPGLDRAFT_63359" class="clusterblast-orf" id="dummy-1_h1_5_24"  />
</g>
<g id="a1_0025"  >
<polygon points="706,90 775,90 780,85 775,80 706,80 706,90 " style="fill:white; stroke-width:1; stroke:black; " description="&lt;b&gt;ASPGLDRAFT_22010&lt;/b&gt;&lt;br&gt;hypothetical protein&lt;br&gt;Location: 691925 - 686080" locus_tag="ASPGLDRAFT_22010" class="clusterblast-orf" id="dummy-1_h1_5_25"  />
</g>
</svg>
