<svg xmlns="http://www.w3.org/2000/svg" xmlns:xlink="http://www.w3.org/1999/xlink" version="1.1" x="0" y="0" height="230" width="800" viewBox="0 0 800 230" preserveAspectRatio="none"  >
<g label="Query sequence" class="clusterblast-cluster"  >
<text x="5" y="20" class="clusterblast-acc"  >
Query sequence</text>
<line x1="10" y1="35" x2="778.0" y2="35" style="stroke-width:1; stroke:grey; "  />
<polygon points="90,40 113,40 118,35 113,30 90,30 90,40 " style="fill:white; stroke-width:1; stroke:black; " description="&lt;b&gt;input.path1.gene2279&lt;/b&gt;&lt;br&gt;input.path1.gene2279&lt;br&gt;Location: 7689913 - 7693094" locus_tag="input.path1.gene2279" class="clusterblast-orf" id="dummy-9_q0_0_all"  />
<polygon points="126,35 131,30 143,30 143,40 131,40 126,35 " style="fill:#d81515; stroke-width:1; stroke:black; " description="&lt;b&gt;input.path1.gene2280&lt;/b&gt;&lt;br&gt;input.path1.gene2280&lt;br&gt;Location: 7694063 - 7695973" locus_tag="input.path1.gene2280" class="clusterblast-orf" id="dummy-9_q1_0_all"  />
<polygon points="150,35 155,30 159,30 159,40 155,40 150,35 " style="fill:#15d815; stroke-width:1; stroke:black; " description="&lt;b&gt;input.path1.gene2281&lt;/b&gt;&lt;br&gt;input.path1.gene2281&lt;br&gt;Location: 7696760 - 7697845" locus_tag="input.path1.gene2281" class="clusterblast-orf" id="dummy-9_q2_0_all"  />
<polygon points="165,35 168,30 168,40 165,35 " style="fill:white; stroke-width:1; stroke:black; " description="&lt;b&gt;input.path1.gene2282&lt;/b&gt;&lt;br&gt;input.path1.gene2282&lt;br&gt;Location: 7698429 - 7698765" locus_tag="input.path1.gene2282" class="clusterblast-orf" id="dummy-9_q3_0_all"  />
<polygon points="189,35 194,30 205,30 205,40 194,40 189,35 " style="fill:white; stroke-width:1; stroke:black; " description="&lt;b&gt;input.path1.gene2283&lt;/b&gt;&lt;br&gt;input.path1.gene2283&lt;br&gt;Location: 7701246 - 7703046" locus_tag="input.path1.gene2283" class="clusterblast-orf" id="dummy-9_q4_0_all"  />
<polygon points="213,35 215,30 215,40 213,35 " style="fill:white; stroke-width:1; stroke:black; " description="&lt;b&gt;input.path1.gene2284&lt;/b&gt;&lt;br&gt;input.path1.gene2284&lt;br&gt;Location: 7703973 - 7704173" locus_tag="input.path1.gene2284" class="clusterblast-orf" id="dummy-9_q5_0_all"  />
<polygon points="246,40 258,40 263,35 258,30 246,30 246,40 " style="fill:#1597d8; stroke-width:1; stroke:black; " description="&lt;b&gt;input.path1.gene2285&lt;/b&gt;&lt;br&gt;input.path1.gene2285&lt;br&gt;Location: 7707696 - 7709604" locus_tag="input.path1.gene2285" class="clusterblast-orf" id="dummy-9_q6_0_all"  />
<polygon points="303,40 308,40 313,35 308,30 303,30 303,40 " style="fill:#9715d8; stroke-width:1; stroke:black; " description="&lt;b&gt;input.path1.gene2286&lt;/b&gt;&lt;br&gt;input.path1.gene2286&lt;br&gt;Location: 7714091 - 7715328" locus_tag="input.path1.gene2286" class="clusterblast-orf" id="dummy-9_q7_0_all"  />
<polygon points="316,35 321,30 345,30 345,40 321,40 316,35 " style="fill:#d89715; stroke-width:1; stroke:black; " description="&lt;b&gt;input.path1.gene2287&lt;/b&gt;&lt;br&gt;input.path1.gene2287&lt;br&gt;Location: 7715566 - 7718953" locus_tag="input.path1.gene2287" class="clusterblast-orf" id="dummy-9_q8_0_all"  />
<polygon points="352,40 355,40 360,35 355,30 352,30 352,40 " style="fill:#15d897; stroke-width:1; stroke:black; " description="&lt;b&gt;input.path1.gene2288&lt;/b&gt;&lt;br&gt;input.path1.gene2288&lt;br&gt;Location: 7719648 - 7720615" locus_tag="input.path1.gene2288" class="clusterblast-orf" id="dummy-9_q9_0_all"  />
<polygon points="364,35 369,30 370,30 370,40 369,40 364,35 " style="fill:white; stroke-width:1; stroke:black; " description="&lt;b&gt;input.path1.gene2289&lt;/b&gt;&lt;br&gt;input.path1.gene2289&lt;br&gt;Location: 7721013 - 7721718" locus_tag="input.path1.gene2289" class="clusterblast-orf" id="dummy-9_q10_0_all"  />
<polygon points="399,40 420,40 425,35 420,30 399,30 399,40 " style="fill:#1515d8; stroke-width:1; stroke:black; " description="&lt;b&gt;input.path1.gene2290&lt;/b&gt;&lt;br&gt;input.path1.gene2290&lt;br&gt;Location: 7725024 - 7728041" locus_tag="input.path1.gene2290" class="clusterblast-orf" id="dummy-9_q11_0_all"  />
<polygon points="441,40 453,40 458,35 453,30 441,30 441,40 " style="fill:white; stroke-width:1; stroke:black; " description="&lt;b&gt;input.path1.gene2291&lt;/b&gt;&lt;br&gt;input.path1.gene2291&lt;br&gt;Location: 7729780 - 7731697" locus_tag="input.path1.gene2291" class="clusterblast-orf" id="dummy-9_q12_0_all"  />
<polygon points="461,35 466,30 520,30 520,40 466,40 461,35 " style="fill:#d81597; stroke-width:1; stroke:black; " description="&lt;b&gt;input.path1.gene2292&lt;/b&gt;&lt;br&gt;input.path1.gene2292&lt;br&gt;Location: 7732028 - 7738725" locus_tag="input.path1.gene2292" class="clusterblast-orf" id="dummy-9_q13_0_all"  />
<polygon points="527,35 532,30 542,30 542,40 532,40 527,35 " style="fill:white; stroke-width:1; stroke:black; " description="&lt;b&gt;input.path1.gene2293&lt;/b&gt;&lt;br&gt;input.path1.gene2293&lt;br&gt;Location: 7739540 - 7741250" locus_tag="input.path1.gene2293" class="clusterblast-orf" id="dummy-9_q14_0_all"  />
<polygon points="545,40 557,40 562,35 557,30 545,30 545,40 " style="fill:white; stroke-width:1; stroke:black; " description="&lt;b&gt;input.path1.gene2294&lt;/b&gt;&lt;br&gt;input.path1.gene2294&lt;br&gt;Location: 7741597 - 7743533" locus_tag="input.path1.gene2294" class="clusterblast-orf" id="dummy-9_q15_0_all"  />
<polygon points="567,35 572,30 580,30 580,40 572,40 567,35 " style="fill:white; stroke-width:1; stroke:black; " description="&lt;b&gt;input.path1.gene2295&lt;/b&gt;&lt;br&gt;input.path1.gene2295&lt;br&gt;Location: 7744128 - 7745552" locus_tag="input.path1.gene2295" class="clusterblast-orf" id="dummy-9_q16_0_all"  />
<polygon points="609,40 638,40 643,35 638,30 609,30 609,40 " style="fill:white; stroke-width:1; stroke:black; " description="&lt;b&gt;input.path1.gene2296&lt;/b&gt;&lt;br&gt;input.path1.gene2296&lt;br&gt;Location: 7748910 - 7752768" locus_tag="input.path1.gene2296" class="clusterblast-orf" id="dummy-9_q17_0_all"  />
<polygon points="643,35 648,30 690,30 690,40 648,40 643,35 " style="fill:#97d815; stroke-width:1; stroke:black; " description="&lt;b&gt;input.path1.gene2297&lt;/b&gt;&lt;br&gt;input.path1.gene2297&lt;br&gt;Location: 7752779 - 7758019" locus_tag="input.path1.gene2297" class="clusterblast-orf" id="dummy-9_q18_0_all"  />
</g>
<g label="NW_022985018" description="NW_022985018 (595640-686314): Dothidotthia symphoricarpi CBS 119687 unplaced ... (5% of genes show similarity), fungal-RiPP-like" class="clusterblast-cluster"  >
<text x="5" y="70" class="clusterblast-acc"  >
<a xlink:href="https://antismash-db.secondarymetabolites.org/area?record=NW_022985018&amp;start=595640&amp;end=686314" target="_blank">NW_022985018 (595640-686314)</a>: Dothidotthia symphoricarpi CBS 119687 unplaced ... (5% of genes show similarity), fungal-RiPP-like</text>
<line x1="10" y1="85" x2="778.0" y2="85" style="stroke-width:1; stroke:grey; "  />
</g>
<g id="a9_000"  >
<polygon points="0,90 2,90 7,85 2,80 0,80 0,90 " style="fill:white; stroke-width:1; stroke:black; " description="&lt;b&gt;P153DRAFT_291967&lt;/b&gt;&lt;br&gt;ras-domain-containing protein&lt;br&gt;Location: 685992 - 685152" locus_tag="P153DRAFT_291967" class="clusterblast-orf" id="dummy-9_h9_6_0"  />
</g>
<g id="a9_001"  >
<polygon points="15,85 20,80 44,80 44,90 20,90 15,85 " style="fill:white; stroke-width:1; stroke:black; " description="&lt;b&gt;P153DRAFT_317430&lt;/b&gt;&lt;br&gt;glycoside hydrolase family 31 protein&lt;br&gt;Location: 684283 - 680926" locus_tag="P153DRAFT_317430" class="clusterblast-orf" id="dummy-9_h9_6_1"  />
</g>
<g id="a9_002"  >
<polygon points="50,90 50,90 55,85 50,80 50,80 50,90 " style="fill:white; stroke-width:1; stroke:black; " description="&lt;b&gt;P153DRAFT_397158&lt;/b&gt;&lt;br&gt;uncharacterized protein&lt;br&gt;Location: 680212 - 679724" locus_tag="P153DRAFT_397158" class="clusterblast-orf" id="dummy-9_h9_6_2"  />
</g>
<g id="a9_003"  >
<polygon points="60,85 65,80 73,80 73,90 65,90 60,85 " style="fill:white; stroke-width:1; stroke:black; " description="&lt;b&gt;P153DRAFT_403851&lt;/b&gt;&lt;br&gt;uncharacterized protein&lt;br&gt;Location: 679169 - 677686" locus_tag="P153DRAFT_403851" class="clusterblast-orf" id="dummy-9_h9_6_3"  />
</g>
<g id="a9_004"  >
<polygon points="79,85 84,80 98,80 98,90 84,90 79,85 " style="fill:white; stroke-width:1; stroke:black; " description="&lt;b&gt;P153DRAFT_367248&lt;/b&gt;&lt;br&gt;uncharacterized protein&lt;br&gt;Location: 677015 - 674775" locus_tag="P153DRAFT_367248" class="clusterblast-orf" id="dummy-9_h9_6_4"  />
</g>
<g id="a9_005"  >
<polygon points="105,90 120,90 125,85 120,80 105,80 105,90 " style="fill:white; stroke-width:1; stroke:black; " description="&lt;b&gt;P153DRAFT_292353&lt;/b&gt;&lt;br&gt;uncharacterized protein&lt;br&gt;Location: 674031 - 671789" locus_tag="P153DRAFT_292353" class="clusterblast-orf" id="dummy-9_h9_6_5"  />
</g>
<g id="a9_006"  >
<polygon points="142,85 147,80 152,80 152,90 147,90 142,85 " style="fill:white; stroke-width:1; stroke:black; " description="&lt;b&gt;P153DRAFT_28871&lt;/b&gt;&lt;br&gt;uncharacterized protein&lt;br&gt;Location: 669786 - 668694" locus_tag="P153DRAFT_28871" class="clusterblast-orf" id="dummy-9_h9_6_6"  />
</g>
<g id="a9_007"  >
<polygon points="165,90 169,85 165,80 165,90 " style="fill:white; stroke-width:1; stroke:black; " description="&lt;b&gt;P153DRAFT_28726&lt;/b&gt;&lt;br&gt;uncharacterized protein&lt;br&gt;Location: 667182 - 666754" locus_tag="P153DRAFT_28726" class="clusterblast-orf" id="dummy-9_h9_6_7"  />
</g>
<g id="a9_008"  >
<polygon points="172,85 177,80 177,80 177,90 177,90 172,85 " style="fill:white; stroke-width:1; stroke:black; " description="&lt;b&gt;P153DRAFT_28725&lt;/b&gt;&lt;br&gt;uncharacterized protein&lt;br&gt;Location: 666381 - 665836" locus_tag="P153DRAFT_28725" class="clusterblast-orf" id="dummy-9_h9_6_8"  />
</g>
<g id="a9_009"  >
<polygon points="179,85 184,80 191,80 191,90 184,90 179,85 " style="fill:white; stroke-width:1; stroke:black; " description="&lt;b&gt;P153DRAFT_28728&lt;/b&gt;&lt;br&gt;serine/threonine-protein phosphatase PP2A catalytic subunit&lt;br&gt;Location: 665627 - 664278" locus_tag="P153DRAFT_28728" class="clusterblast-orf" id="dummy-9_h9_6_9"  />
</g>
<g id="a9_0010"  >
<polygon points="201,90 204,85 201,80 201,90 " style="fill:white; stroke-width:1; stroke:black; " description="&lt;b&gt;P153DRAFT_291682&lt;/b&gt;&lt;br&gt;transcription elongation factor spt4&lt;br&gt;Location: 663147 - 662770" locus_tag="P153DRAFT_291682" class="clusterblast-orf" id="dummy-9_h9_6_10"  />
</g>
<g id="a9_0011"  >
<polygon points="206,90 207,90 212,85 207,80 206,80 206,90 " style="fill:white; stroke-width:1; stroke:black; " description="&lt;b&gt;P153DRAFT_28714&lt;/b&gt;&lt;br&gt;uncharacterized protein&lt;br&gt;Location: 662557 - 661828" locus_tag="P153DRAFT_28714" class="clusterblast-orf" id="dummy-9_h9_6_11"  />
</g>
<g id="a9_0012"  >
<polygon points="213,90 216,90 221,85 216,80 213,80 213,90 " style="fill:white; stroke-width:1; stroke:black; " description="&lt;b&gt;P153DRAFT_397151&lt;/b&gt;&lt;br&gt;uncharacterized protein&lt;br&gt;Location: 661751 - 660897" locus_tag="P153DRAFT_397151" class="clusterblast-orf" id="dummy-9_h9_6_12"  />
</g>
<g id="a9_0013"  >
<polygon points="237,85 242,80 249,80 249,90 242,90 237,85 " style="fill:white; stroke-width:1; stroke:black; " description="&lt;b&gt;P153DRAFT_367241&lt;/b&gt;&lt;br&gt;non-specific serine/threonine protein kinase&lt;br&gt;Location: 659051 - 657674" locus_tag="P153DRAFT_367241" class="clusterblast-orf" id="dummy-9_h9_6_13"  />
</g>
<g id="a9_0014"  >
<polygon points="259,85 261,80 261,90 259,85 " style="fill:white; stroke-width:1; stroke:black; " description="&lt;b&gt;P153DRAFT_386137&lt;/b&gt;&lt;br&gt;uncharacterized protein&lt;br&gt;Location: 656594 - 656296" locus_tag="P153DRAFT_386137" class="clusterblast-orf" id="dummy-9_h9_6_14"  />
</g>
<g id="a9_0015"  >
<polygon points="279,85 284,80 290,80 290,90 284,90 279,85 " style="fill:white; stroke-width:1; stroke:black; " description="&lt;b&gt;P153DRAFT_265343&lt;/b&gt;&lt;br&gt;uncharacterized protein&lt;br&gt;Location: 654291 - 652972" locus_tag="P153DRAFT_265343" class="clusterblast-orf" id="dummy-9_h9_6_15"  />
</g>
<g id="a9_0016"  >
<polygon points="291,85 296,80 304,80 304,90 296,90 291,85 " style="fill:white; stroke-width:1; stroke:black; " description="&lt;b&gt;P153DRAFT_252351&lt;/b&gt;&lt;br&gt;uncharacterized protein&lt;br&gt;Location: 652905 - 651439" locus_tag="P153DRAFT_252351" class="clusterblast-orf" id="dummy-9_h9_6_16"  />
</g>
<g id="a9_0017"  >
<polygon points="307,90 318,90 323,85 318,80 307,80 307,90 " style="fill:white; stroke-width:1; stroke:black; " description="&lt;b&gt;P153DRAFT_357424&lt;/b&gt;&lt;br&gt;uncharacterized protein&lt;br&gt;Location: 651120 - 649330" locus_tag="P153DRAFT_357424" class="clusterblast-orf" id="dummy-9_h9_6_17"  />
</g>
<g id="a9_0018"  >
<polygon points="328,85 333,80 337,80 337,90 333,90 328,85 " style="fill:white; stroke-width:1; stroke:black; " description="&lt;b&gt;P153DRAFT_367239&lt;/b&gt;&lt;br&gt;uncharacterized protein&lt;br&gt;Location: 648692 - 647719" locus_tag="P153DRAFT_367239" class="clusterblast-orf" id="dummy-9_h9_6_18"  />
</g>
<g id="a9_0019"  >
<polygon points="340,85 345,80 348,80 348,90 345,90 340,85 " style="fill:white; stroke-width:1; stroke:black; " description="&lt;b&gt;P153DRAFT_367237&lt;/b&gt;&lt;br&gt;uncharacterized protein&lt;br&gt;Location: 647320 - 646408" locus_tag="P153DRAFT_367237" class="clusterblast-orf" id="dummy-9_h9_6_19"  />
</g>
<g id="a9_0020"  >
<polygon points="353,90 353,90 358,85 353,80 353,80 353,90 " style="fill:white; stroke-width:1; stroke:black; " description="&lt;b&gt;P153DRAFT_376274&lt;/b&gt;&lt;br&gt;uncharacterized protein&lt;br&gt;Location: 645899 - 645253" locus_tag="P153DRAFT_376274" class="clusterblast-orf" id="dummy-9_h9_6_20"  />
</g>
<g id="a9_0021"  >
<polygon points="365,85 369,80 369,90 365,85 " style="fill:white; stroke-width:1; stroke:black; " description="&lt;b&gt;P153DRAFT_386131&lt;/b&gt;&lt;br&gt;uncharacterized protein&lt;br&gt;Location: 644455 - 644069" locus_tag="P153DRAFT_386131" class="clusterblast-orf" id="dummy-9_h9_6_21"  />
</g>
<g id="a9_0022"  >
<polygon points="393,90 394,90 399,85 394,80 393,80 393,90 " style="fill:#15d897; stroke-width:1; stroke:black; " description="&lt;b&gt;P153DRAFT_423375&lt;/b&gt;&lt;br&gt;uncharacterized protein&lt;br&gt;Location: 641314 - 640641&lt;br&gt;&lt;br&gt;&lt;b&gt;BlastP hit with input.path1.gene2288&lt;/b&gt;&lt;br&gt;Percentage identity: 33&lt;br&gt;Percentage coverage: 51&lt;br&gt;BLAST bit score: 64&lt;br&gt;E-value: 5.01e-10" locus_tag="P153DRAFT_423375" class="clusterblast-orf" id="dummy-9_h9_6_22"  />
</g>
<g id="a9_0023"  >
<polygon points="403,85 408,80 415,80 415,90 408,90 403,85 " style="fill:#d89715; stroke-width:1; stroke:black; " description="&lt;b&gt;P153DRAFT_291969&lt;/b&gt;&lt;br&gt;Di-copper centre-containing protein&lt;br&gt;Location: 640172 - 638882&lt;br&gt;&lt;br&gt;&lt;b&gt;BlastP hit with input.path1.gene2287&lt;/b&gt;&lt;br&gt;Percentage identity: 34&lt;br&gt;Percentage coverage: 25&lt;br&gt;BLAST bit score: 86&lt;br&gt;E-value: 9.45e-16" locus_tag="P153DRAFT_291969" class="clusterblast-orf" id="dummy-9_h9_6_23"  />
</g>
<g id="a9_0024"  >
<polygon points="417,90 431,90 436,85 431,80 417,80 417,90 " style="fill:white; stroke-width:1; stroke:black; " description="&lt;b&gt;P153DRAFT_431765&lt;/b&gt;&lt;br&gt;methyltransferase-like protein&lt;br&gt;Location: 638562 - 636420" locus_tag="P153DRAFT_431765" class="clusterblast-orf" id="dummy-9_h9_6_24"  />
</g>
<g id="a9_0025"  >
<polygon points="440,90 450,90 455,85 450,80 440,80 440,90 " style="fill:white; stroke-width:1; stroke:black; " description="&lt;b&gt;P153DRAFT_28521&lt;/b&gt;&lt;br&gt;uncharacterized protein&lt;br&gt;Location: 636002 - 634314" locus_tag="P153DRAFT_28521" class="clusterblast-orf" id="dummy-9_h9_6_25"  />
</g>
<g id="a9_0026"  >
<polygon points="467,90 476,90 481,85 476,80 467,80 467,90 " style="fill:white; stroke-width:1; stroke:black; " description="&lt;b&gt;P153DRAFT_367231&lt;/b&gt;&lt;br&gt;amino acid transporter&lt;br&gt;Location: 632914 - 631294" locus_tag="P153DRAFT_367231" class="clusterblast-orf" id="dummy-9_h9_6_26"  />
</g>
<g id="a9_0027"  >
<polygon points="486,85 491,80 508,80 508,90 491,90 486,85 " style="fill:white; stroke-width:1; stroke:black; " description="&lt;b&gt;P153DRAFT_386125&lt;/b&gt;&lt;br&gt;kinase-like protein&lt;br&gt;Location: 630773 - 628287" locus_tag="P153DRAFT_386125" class="clusterblast-orf" id="dummy-9_h9_6_27"  />
</g>
<g id="a9_0028"  >
<polygon points="510,85 515,80 554,80 554,90 515,90 510,85 " style="fill:white; stroke-width:1; stroke:black; " description="&lt;b&gt;P153DRAFT_317387&lt;/b&gt;&lt;br&gt;uncharacterized protein&lt;br&gt;Location: 628025 - 623017" locus_tag="P153DRAFT_317387" class="clusterblast-orf" id="dummy-9_h9_6_28"  />
</g>
<g id="a9_0029"  >
<polygon points="562,90 568,90 573,85 568,80 562,80 562,90 " style="fill:white; stroke-width:1; stroke:black; " description="&lt;b&gt;P153DRAFT_291953&lt;/b&gt;&lt;br&gt;uncharacterized protein&lt;br&gt;Location: 622097 - 620876" locus_tag="P153DRAFT_291953" class="clusterblast-orf" id="dummy-9_h9_6_29"  />
</g>
<g id="a9_0030"  >
<polygon points="575,90 579,85 575,80 575,90 " style="fill:white; stroke-width:1; stroke:black; " description="&lt;b&gt;P153DRAFT_386122&lt;/b&gt;&lt;br&gt;uncharacterized protein&lt;br&gt;Location: 620647 - 620195" locus_tag="P153DRAFT_386122" class="clusterblast-orf" id="dummy-9_h9_6_30"  />
</g>
<g id="a9_0031"  >
<polygon points="582,85 587,80 592,80 592,90 587,90 582,85 " style="fill:white; stroke-width:1; stroke:black; " description="&lt;b&gt;P153DRAFT_28247&lt;/b&gt;&lt;br&gt;P-loop containing nucleoside triphosphate hydrolase protein&lt;br&gt;Location: 619929 - 618762" locus_tag="P153DRAFT_28247" class="clusterblast-orf" id="dummy-9_h9_6_31"  />
</g>
<g id="a9_0032"  >
<polygon points="602,90 610,90 615,85 610,80 602,80 602,90 " style="fill:white; stroke-width:1; stroke:black; " description="&lt;b&gt;P153DRAFT_291838&lt;/b&gt;&lt;br&gt;acid protease&lt;br&gt;Location: 617601 - 616115" locus_tag="P153DRAFT_291838" class="clusterblast-orf" id="dummy-9_h9_6_32"  />
</g>
<g id="a9_0033"  >
<polygon points="621,85 626,80 635,80 635,90 626,90 621,85 " style="fill:white; stroke-width:1; stroke:black; " description="&lt;b&gt;P153DRAFT_397135&lt;/b&gt;&lt;br&gt;uncharacterized protein&lt;br&gt;Location: 615410 - 613887" locus_tag="P153DRAFT_397135" class="clusterblast-orf" id="dummy-9_h9_6_33"  />
</g>
<g id="a9_0034"  >
<polygon points="637,85 642,80 657,80 657,90 642,90 637,85 " style="fill:white; stroke-width:1; stroke:black; " description="&lt;b&gt;P153DRAFT_367227&lt;/b&gt;&lt;br&gt;acetyl-CoA synthetase-like protein&lt;br&gt;Location: 613687 - 611354" locus_tag="P153DRAFT_367227" class="clusterblast-orf" id="dummy-9_h9_6_34"  />
</g>
<g id="a9_0035"  >
<polygon points="666,85 671,80 681,80 681,90 671,90 666,85 " style="fill:white; stroke-width:1; stroke:black; " description="&lt;b&gt;P153DRAFT_367225&lt;/b&gt;&lt;br&gt;O-acetylhomoserine ami&lt;br&gt;Location: 610372 - 608619" locus_tag="P153DRAFT_367225" class="clusterblast-orf" id="dummy-9_h9_6_35"  />
</g>
<g id="a9_0036"  >
<polygon points="699,90 700,90 705,85 700,80 699,80 699,90 " style="fill:white; stroke-width:1; stroke:black; " description="&lt;b&gt;P153DRAFT_431757&lt;/b&gt;&lt;br&gt;uncharacterized protein&lt;br&gt;Location: 606573 - 605920" locus_tag="P153DRAFT_431757" class="clusterblast-orf" id="dummy-9_h9_6_36"  />
</g>
<g id="a9_0037"  >
<polygon points="712,85 717,80 727,80 727,90 717,90 712,85 " style="fill:white; stroke-width:1; stroke:black; " description="&lt;b&gt;P153DRAFT_28118&lt;/b&gt;&lt;br&gt;uncharacterized protein&lt;br&gt;Location: 605158 - 603407" locus_tag="P153DRAFT_28118" class="clusterblast-orf" id="dummy-9_h9_6_37"  />
</g>
<g id="a9_0038"  >
<polygon points="736,90 740,85 736,80 736,90 " style="fill:white; stroke-width:1; stroke:black; " description="&lt;b&gt;P153DRAFT_28108&lt;/b&gt;&lt;br&gt;uncharacterized protein&lt;br&gt;Location: 602401 - 601913" locus_tag="P153DRAFT_28108" class="clusterblast-orf" id="dummy-9_h9_6_38"  />
</g>
<g id="a9_0039"  >
<polygon points="775,90 775,90 780,85 775,80 775,80 775,90 " style="fill:white; stroke-width:1; stroke:black; " description="&lt;b&gt;P153DRAFT_397129&lt;/b&gt;&lt;br&gt;uncharacterized protein&lt;br&gt;Location: 597956 - 597459" locus_tag="P153DRAFT_397129" class="clusterblast-orf" id="dummy-9_h9_6_39"  />
</g>
</svg>
