<svg xmlns="http://www.w3.org/2000/svg" xmlns:xlink="http://www.w3.org/1999/xlink" version="1.1" x="0" y="0" height="50" width="800" viewBox="0 0 800 50" preserveAspectRatio="none"  >
<g label="Query sequence" class="clusterblast-cluster"  >
<text x="5" y="20" class="clusterblast-acc"  >
Query sequence</text>
<line x1="10" y1="35" x2="778.0" y2="35" style="stroke-width:1; stroke:grey; "  />
<polygon points="0,35 5,30 28,30 28,40 5,40 0,35 " style="fill:white; stroke-width:1; stroke:black; " description="&lt;b&gt;input.path1.gene541&lt;/b&gt;&lt;br&gt;input.path1.gene541&lt;br&gt;Location: 2001475 - 2003167" locus_tag="input.path1.gene541" class="clusterblast-orf" id="knownclusterblast-3_q0_0_all"  />
<polygon points="44,40 54,40 59,35 54,30 44,30 44,40 " style="fill:white; stroke-width:1; stroke:black; " description="&lt;b&gt;input.path1.gene542&lt;/b&gt;&lt;br&gt;input.path1.gene542&lt;br&gt;Location: 2004079 - 2005008" locus_tag="input.path1.gene542" class="clusterblast-orf" id="knownclusterblast-3_q1_0_all"  />
<polygon points="64,35 69,30 84,30 84,40 69,40 64,35 " style="fill:white; stroke-width:1; stroke:black; " description="&lt;b&gt;input.path1.gene543&lt;/b&gt;&lt;br&gt;input.path1.gene543&lt;br&gt;Location: 2005304 - 2006452" locus_tag="input.path1.gene543" class="clusterblast-orf" id="knownclusterblast-3_q2_0_all"  />
<polygon points="87,40 137,40 142,35 137,30 87,30 87,40 " style="fill:white; stroke-width:1; stroke:black; " description="&lt;b&gt;input.path1.gene544&lt;/b&gt;&lt;br&gt;input.path1.gene544&lt;br&gt;Location: 2006652 - 2009893" locus_tag="input.path1.gene544" class="clusterblast-orf" id="knownclusterblast-3_q3_0_all"  />
<polygon points="173,35 178,30 187,30 187,40 178,40 173,35 " style="fill:white; stroke-width:1; stroke:black; " description="&lt;b&gt;input.path1.gene545&lt;/b&gt;&lt;br&gt;input.path1.gene545&lt;br&gt;Location: 2011742 - 2012553" locus_tag="input.path1.gene545" class="clusterblast-orf" id="knownclusterblast-3_q4_0_all"  />
<polygon points="229,40 239,40 244,35 239,30 229,30 229,40 " style="fill:white; stroke-width:1; stroke:black; " description="&lt;b&gt;input.path1.gene546&lt;/b&gt;&lt;br&gt;input.path1.gene546&lt;br&gt;Location: 2015010 - 2015927" locus_tag="input.path1.gene546" class="clusterblast-orf" id="knownclusterblast-3_q5_0_all"  />
<polygon points="295,35 300,30 317,30 317,40 300,40 295,35 " style="fill:white; stroke-width:1; stroke:black; " description="&lt;b&gt;input.path1.gene547&lt;/b&gt;&lt;br&gt;input.path1.gene547&lt;br&gt;Location: 2018933 - 2020227" locus_tag="input.path1.gene547" class="clusterblast-orf" id="knownclusterblast-3_q6_0_all"  />
<polygon points="336,35 341,30 467,30 467,40 341,40 336,35 " style="fill:white; stroke-width:1; stroke:black; " description="&lt;b&gt;input.path1.gene548&lt;/b&gt;&lt;br&gt;input.path1.gene548&lt;br&gt;Location: 2021325 - 2029094" locus_tag="input.path1.gene548" class="clusterblast-orf" id="knownclusterblast-3_q7_0_all"  />
<polygon points="471,40 548,40 553,35 548,30 471,30 471,40 " style="fill:white; stroke-width:1; stroke:black; " description="&lt;b&gt;input.path1.gene549&lt;/b&gt;&lt;br&gt;input.path1.gene549&lt;br&gt;Location: 2029320 - 2034192" locus_tag="input.path1.gene549" class="clusterblast-orf" id="knownclusterblast-3_q8_0_all"  />
<polygon points="559,40 594,40 599,35 594,30 559,30 559,40 " style="fill:white; stroke-width:1; stroke:black; " description="&lt;b&gt;input.path1.gene550&lt;/b&gt;&lt;br&gt;input.path1.gene550&lt;br&gt;Location: 2034513 - 2036862" locus_tag="input.path1.gene550" class="clusterblast-orf" id="knownclusterblast-3_q9_0_all"  />
<polygon points="617,40 637,40 642,35 637,30 617,30 617,40 " style="fill:white; stroke-width:1; stroke:black; " description="&lt;b&gt;input.path1.gene551&lt;/b&gt;&lt;br&gt;input.path1.gene551&lt;br&gt;Location: 2037950 - 2039429" locus_tag="input.path1.gene551" class="clusterblast-orf" id="knownclusterblast-3_q10_0_all"  />
<polygon points="666,40 696,40 701,35 696,30 666,30 666,40 " style="fill:white; stroke-width:1; stroke:black; " description="&lt;b&gt;input.path1.gene552&lt;/b&gt;&lt;br&gt;input.path1.gene552&lt;br&gt;Location: 2040833 - 2042914" locus_tag="input.path1.gene552" class="clusterblast-orf" id="knownclusterblast-3_q11_0_all"  />
<polygon points="714,35 719,30 733,30 733,40 719,40 714,35 " style="fill:white; stroke-width:1; stroke:black; " description="&lt;b&gt;input.path1.gene553&lt;/b&gt;&lt;br&gt;input.path1.gene553&lt;br&gt;Location: 2043673 - 2044821" locus_tag="input.path1.gene553" class="clusterblast-orf" id="knownclusterblast-3_q12_0_all"  />
<polygon points="769,40 775,40 780,35 775,30 769,30 769,40 " style="fill:white; stroke-width:1; stroke:black; " description="&lt;b&gt;input.path1.gene554&lt;/b&gt;&lt;br&gt;input.path1.gene554&lt;br&gt;Location: 2046926 - 2047564" locus_tag="input.path1.gene554" class="clusterblast-orf" id="knownclusterblast-3_q13_0_all"  />
</g>
</svg>
