<svg xmlns="http://www.w3.org/2000/svg" xmlns:xlink="http://www.w3.org/1999/xlink" version="1.1" x="0" y="0" height="100" width="800" viewBox="0 0 800 100" preserveAspectRatio="none"  >
<g label="Query sequence" class="clusterblast-cluster"  >
<text x="5" y="20" class="clusterblast-acc"  >
Query sequence</text>
<line x1="10" y1="35" x2="778.0" y2="35" style="stroke-width:1; stroke:grey; "  />
<polygon points="0,35 5,30 24,30 24,40 5,40 0,35 " style="fill:white; stroke-width:1; stroke:black; " description="&lt;b&gt;input.path1.gene664&lt;/b&gt;&lt;br&gt;input.path1.gene664&lt;br&gt;Location: 2200642 - 2201447" locus_tag="input.path1.gene664" class="clusterblast-orf" id="knownclusterblast-2_q0_0_all"  />
<polygon points="65,40 102,40 107,35 102,30 65,30 65,40 " style="fill:white; stroke-width:1; stroke:black; " description="&lt;b&gt;input.path1.gene665&lt;/b&gt;&lt;br&gt;input.path1.gene665&lt;br&gt;Location: 2202762 - 2204155" locus_tag="input.path1.gene665" class="clusterblast-orf" id="knownclusterblast-2_q1_0_all"  />
<polygon points="120,35 125,30 150,30 150,40 125,40 120,35 " style="fill:white; stroke-width:1; stroke:black; " description="&lt;b&gt;input.path1.gene666&lt;/b&gt;&lt;br&gt;input.path1.gene666&lt;br&gt;Location: 2204574 - 2205558" locus_tag="input.path1.gene666" class="clusterblast-orf" id="knownclusterblast-2_q2_0_all"  />
<polygon points="293,40 350,40 355,35 350,30 293,30 293,40 " style="fill:white; stroke-width:1; stroke:black; " description="&lt;b&gt;input.path1.gene667&lt;/b&gt;&lt;br&gt;input.path1.gene667&lt;br&gt;Location: 2210238 - 2212263" locus_tag="input.path1.gene667" class="clusterblast-orf" id="knownclusterblast-2_q3_0_all"  />
<polygon points="362,35 367,30 486,30 486,40 367,40 362,35 " style="fill:#d81515; stroke-width:1; stroke:black; " description="&lt;b&gt;input.path1.gene668&lt;/b&gt;&lt;br&gt;input.path1.gene668&lt;br&gt;Location: 2212520 - 2216576" locus_tag="input.path1.gene668" class="clusterblast-orf" id="knownclusterblast-2_q4_0_all"  />
<polygon points="608,40 622,40 627,35 622,30 608,30 608,40 " style="fill:white; stroke-width:1; stroke:black; " description="&lt;b&gt;input.path1.gene669&lt;/b&gt;&lt;br&gt;input.path1.gene669&lt;br&gt;Location: 2220578 - 2221203" locus_tag="input.path1.gene669" class="clusterblast-orf" id="knownclusterblast-2_q5_0_all"  />
<polygon points="630,35 635,30 663,30 663,40 635,40 630,35 " style="fill:white; stroke-width:1; stroke:black; " description="&lt;b&gt;input.path1.gene670&lt;/b&gt;&lt;br&gt;input.path1.gene670&lt;br&gt;Location: 2221281 - 2222381" locus_tag="input.path1.gene670" class="clusterblast-orf" id="knownclusterblast-2_q6_0_all"  />
<polygon points="715,35 720,30 780,30 780,40 720,40 715,35 " style="fill:white; stroke-width:1; stroke:black; " description="&lt;b&gt;input.path1.gene671&lt;/b&gt;&lt;br&gt;input.path1.gene671&lt;br&gt;Location: 2224076 - 2226196" locus_tag="input.path1.gene671" class="clusterblast-orf" id="knownclusterblast-2_q7_0_all"  />
</g>
<g label="BGC0002174" description="BGC0002174_c1: ε-Poly-L-lysine (100% of genes show similarity), NRP" class="clusterblast-cluster"  >
<text x="5" y="70" class="clusterblast-acc"  >
<a xlink:href="https://mibig.secondarymetabolites.org/go/BGC0002174/1" target="_blank">BGC0002174</a>: ε-Poly-L-lysine                                                                  (100% of genes show similarity), NRP</text>
<line x1="10" y1="85" x2="778.0" y2="85" style="stroke-width:1; stroke:grey; "  />
</g>
<g id="a2_000"  >
<polygon points="330,85 335,80 449,80 449,90 335,90 330,85 " style="fill:#d81515; stroke-width:1; stroke:black; " description="&lt;b&gt;BBU42014.1&lt;/b&gt;&lt;br&gt;e-poly-L-lysine synthetase&lt;br&gt;Location: 3894 - 1&lt;br&gt;&lt;br&gt;&lt;b&gt;BlastP hit with input.path1.gene668&lt;/b&gt;&lt;br&gt;Percentage identity: 61&lt;br&gt;Percentage coverage: 98&lt;br&gt;BLAST bit score: 1530&lt;br&gt;E-value: 0.0" locus_tag="BBU42014.1" class="clusterblast-orf" id="knownclusterblast-2_all_2_1_0"  />
</g>
</svg>
