<svg xmlns="http://www.w3.org/2000/svg" xmlns:xlink="http://www.w3.org/1999/xlink" version="1.1" x="0" y="0" height="50" width="800" viewBox="0 0 800 50" preserveAspectRatio="none"  >
<g label="Query sequence" class="clusterblast-cluster"  >
<text x="5" y="20" class="clusterblast-acc"  >
Query sequence</text>
<line x1="10" y1="35" x2="778.0" y2="35" style="stroke-width:1; stroke:grey; "  />
<polygon points="0,35 5,30 38,30 38,40 5,40 0,35 " style="fill:white; stroke-width:1; stroke:black; " description="&lt;b&gt;input.path1.gene229&lt;/b&gt;&lt;br&gt;input.path1.gene229&lt;br&gt;Location: 1130301 - 1132967" locus_tag="input.path1.gene229" class="clusterblast-orf" id="knownclusterblast-2_q0_0_all"  />
<polygon points="53,40 62,40 67,35 62,30 53,30 53,40 " style="fill:white; stroke-width:1; stroke:black; " description="&lt;b&gt;input.path1.gene230&lt;/b&gt;&lt;br&gt;input.path1.gene230&lt;br&gt;Location: 1133987 - 1134933" locus_tag="input.path1.gene230" class="clusterblast-orf" id="knownclusterblast-2_q1_0_all"  />
<polygon points="70,40 74,40 79,35 74,30 70,30 70,40 " style="fill:white; stroke-width:1; stroke:black; " description="&lt;b&gt;input.path1.gene231&lt;/b&gt;&lt;br&gt;input.path1.gene231&lt;br&gt;Location: 1135153 - 1135763" locus_tag="input.path1.gene231" class="clusterblast-orf" id="knownclusterblast-2_q2_0_all"  />
<polygon points="79,35 84,30 116,30 116,40 84,40 79,35 " style="fill:white; stroke-width:1; stroke:black; " description="&lt;b&gt;input.path1.gene232&lt;/b&gt;&lt;br&gt;input.path1.gene232&lt;br&gt;Location: 1135815 - 1138311" locus_tag="input.path1.gene232" class="clusterblast-orf" id="knownclusterblast-2_q3_0_all"  />
<polygon points="125,40 142,40 147,35 142,30 125,30 125,40 " style="fill:white; stroke-width:1; stroke:black; " description="&lt;b&gt;input.path1.gene233&lt;/b&gt;&lt;br&gt;input.path1.gene233&lt;br&gt;Location: 1138940 - 1140496" locus_tag="input.path1.gene233" class="clusterblast-orf" id="knownclusterblast-2_q4_0_all"  />
<polygon points="164,35 169,30 212,30 212,40 169,40 164,35 " style="fill:white; stroke-width:1; stroke:black; " description="&lt;b&gt;input.path1.gene234&lt;/b&gt;&lt;br&gt;input.path1.gene234&lt;br&gt;Location: 1141636 - 1144964" locus_tag="input.path1.gene234" class="clusterblast-orf" id="knownclusterblast-2_q5_0_all"  />
<polygon points="260,35 265,30 283,30 283,40 265,40 260,35 " style="fill:white; stroke-width:1; stroke:black; " description="&lt;b&gt;input.path1.gene235&lt;/b&gt;&lt;br&gt;input.path1.gene235&lt;br&gt;Location: 1148284 - 1149915" locus_tag="input.path1.gene235" class="clusterblast-orf" id="knownclusterblast-2_q6_0_all"  />
<polygon points="356,40 549,40 554,35 549,30 356,30 356,40 " style="fill:white; stroke-width:1; stroke:black; " description="&lt;b&gt;input.path1.gene236&lt;/b&gt;&lt;br&gt;input.path1.gene236&lt;br&gt;Location: 1154953 - 1168610" locus_tag="input.path1.gene236" class="clusterblast-orf" id="knownclusterblast-2_q7_0_all"  />
<polygon points="563,35 568,30 587,30 587,40 568,40 563,35 " style="fill:white; stroke-width:1; stroke:black; " description="&lt;b&gt;input.path1.gene237&lt;/b&gt;&lt;br&gt;input.path1.gene237&lt;br&gt;Location: 1169257 - 1170895" locus_tag="input.path1.gene237" class="clusterblast-orf" id="knownclusterblast-2_q8_0_all"  />
<polygon points="626,40 652,40 657,35 652,30 626,30 626,40 " style="fill:white; stroke-width:1; stroke:black; " description="&lt;b&gt;input.path1.gene238&lt;/b&gt;&lt;br&gt;input.path1.gene238&lt;br&gt;Location: 1173628 - 1175773" locus_tag="input.path1.gene238" class="clusterblast-orf" id="knownclusterblast-2_q9_0_all"  />
<polygon points="666,35 671,30 694,30 694,40 671,40 666,35 " style="fill:white; stroke-width:1; stroke:black; " description="&lt;b&gt;input.path1.gene239&lt;/b&gt;&lt;br&gt;input.path1.gene239&lt;br&gt;Location: 1176387 - 1178295" locus_tag="input.path1.gene239" class="clusterblast-orf" id="knownclusterblast-2_q10_0_all"  />
<polygon points="704,35 709,30 731,30 731,40 709,40 704,35 " style="fill:white; stroke-width:1; stroke:black; " description="&lt;b&gt;input.path1.gene240&lt;/b&gt;&lt;br&gt;input.path1.gene240&lt;br&gt;Location: 1179005 - 1180846" locus_tag="input.path1.gene240" class="clusterblast-orf" id="knownclusterblast-2_q11_0_all"  />
<polygon points="746,35 751,30 780,30 780,40 751,40 746,35 " style="fill:white; stroke-width:1; stroke:black; " description="&lt;b&gt;input.path1.gene241&lt;/b&gt;&lt;br&gt;input.path1.gene241&lt;br&gt;Location: 1181909 - 1184226" locus_tag="input.path1.gene241" class="clusterblast-orf" id="knownclusterblast-2_q12_0_all"  />
</g>
</svg>
