<svg xmlns="http://www.w3.org/2000/svg" xmlns:xlink="http://www.w3.org/1999/xlink" version="1.1" x="0" y="0" height="50" width="800" viewBox="0 0 800 50" preserveAspectRatio="none"  >
<g label="Query sequence" class="clusterblast-cluster"  >
<text x="5" y="20" class="clusterblast-acc"  >
Query sequence</text>
<line x1="10" y1="35" x2="778.0" y2="35" style="stroke-width:1; stroke:grey; "  />
<polygon points="0,35 5,30 79,30 79,40 5,40 0,35 " style="fill:white; stroke-width:1; stroke:black; " description="&lt;b&gt;input.path1.gene214&lt;/b&gt;&lt;br&gt;input.path1.gene214&lt;br&gt;Location: 760721 - 768642" locus_tag="input.path1.gene214" class="clusterblast-orf" id="knownclusterblast-2_q0_0_all"  />
<polygon points="109,40 121,40 126,35 121,30 109,30 109,40 " style="fill:white; stroke-width:1; stroke:black; " description="&lt;b&gt;input.path1.gene215&lt;/b&gt;&lt;br&gt;input.path1.gene215&lt;br&gt;Location: 771609 - 773340" locus_tag="input.path1.gene215" class="clusterblast-orf" id="knownclusterblast-2_q1_0_all"  />
<polygon points="129,35 134,30 155,30 155,40 134,40 129,35 " style="fill:white; stroke-width:1; stroke:black; " description="&lt;b&gt;input.path1.gene216&lt;/b&gt;&lt;br&gt;input.path1.gene216&lt;br&gt;Location: 773622 - 776178" locus_tag="input.path1.gene216" class="clusterblast-orf" id="knownclusterblast-2_q2_0_all"  />
<polygon points="164,40 268,40 273,35 268,30 164,30 164,40 " style="fill:white; stroke-width:1; stroke:black; " description="&lt;b&gt;input.path1.gene217&lt;/b&gt;&lt;br&gt;input.path1.gene217&lt;br&gt;Location: 777044 - 787880" locus_tag="input.path1.gene217" class="clusterblast-orf" id="knownclusterblast-2_q3_0_all"  />
<polygon points="277,35 282,30 283,30 283,40 282,40 277,35 " style="fill:white; stroke-width:1; stroke:black; " description="&lt;b&gt;input.path1.gene218&lt;/b&gt;&lt;br&gt;input.path1.gene218&lt;br&gt;Location: 788349 - 788943" locus_tag="input.path1.gene218" class="clusterblast-orf" id="knownclusterblast-2_q4_0_all"  />
<polygon points="295,35 300,30 337,30 337,40 300,40 295,35 " style="fill:white; stroke-width:1; stroke:black; " description="&lt;b&gt;input.path1.gene219&lt;/b&gt;&lt;br&gt;input.path1.gene219&lt;br&gt;Location: 790052 - 794300" locus_tag="input.path1.gene219" class="clusterblast-orf" id="knownclusterblast-2_q5_0_all"  />
<polygon points="342,35 347,30 364,30 364,40 347,40 342,35 " style="fill:white; stroke-width:1; stroke:black; " description="&lt;b&gt;input.path1.gene220&lt;/b&gt;&lt;br&gt;input.path1.gene220&lt;br&gt;Location: 794791 - 796934" locus_tag="input.path1.gene220" class="clusterblast-orf" id="knownclusterblast-2_q6_0_all"  />
<polygon points="369,40 376,40 381,35 376,30 369,30 369,40 " style="fill:white; stroke-width:1; stroke:black; " description="&lt;b&gt;input.path1.gene221&lt;/b&gt;&lt;br&gt;input.path1.gene221&lt;br&gt;Location: 797461 - 798629" locus_tag="input.path1.gene221" class="clusterblast-orf" id="knownclusterblast-2_q7_0_all"  />
<polygon points="384,35 389,30 445,30 445,40 389,40 384,35 " style="fill:white; stroke-width:1; stroke:black; " description="&lt;b&gt;input.path1.gene222&lt;/b&gt;&lt;br&gt;input.path1.gene222&lt;br&gt;Location: 798940 - 805032" locus_tag="input.path1.gene222" class="clusterblast-orf" id="knownclusterblast-2_q8_0_all"  />
<polygon points="469,35 474,30 481,30 481,40 474,40 469,35 " style="fill:white; stroke-width:1; stroke:black; " description="&lt;b&gt;input.path1.gene223&lt;/b&gt;&lt;br&gt;input.path1.gene223&lt;br&gt;Location: 807368 - 808633" locus_tag="input.path1.gene223" class="clusterblast-orf" id="knownclusterblast-2_q9_0_all"  />
<polygon points="492,40 525,40 530,35 525,30 492,30 492,40 " style="fill:white; stroke-width:1; stroke:black; " description="&lt;b&gt;input.path1.gene224&lt;/b&gt;&lt;br&gt;input.path1.gene224&lt;br&gt;Location: 809654 - 813457" locus_tag="input.path1.gene224" class="clusterblast-orf" id="knownclusterblast-2_q10_0_all"  />
<polygon points="536,40 547,40 552,35 547,30 536,30 536,40 " style="fill:white; stroke-width:1; stroke:black; " description="&lt;b&gt;input.path1.gene225&lt;/b&gt;&lt;br&gt;input.path1.gene225&lt;br&gt;Location: 814045 - 815621" locus_tag="input.path1.gene225" class="clusterblast-orf" id="knownclusterblast-2_q11_0_all"  />
<polygon points="553,35 557,30 557,40 553,35 " style="fill:white; stroke-width:1; stroke:black; " description="&lt;b&gt;input.path1.gene226&lt;/b&gt;&lt;br&gt;input.path1.gene226&lt;br&gt;Location: 815734 - 816179" locus_tag="input.path1.gene226" class="clusterblast-orf" id="knownclusterblast-2_q12_0_all"  />
<polygon points="565,40 580,40 585,35 580,30 565,30 565,40 " style="fill:white; stroke-width:1; stroke:black; " description="&lt;b&gt;input.path1.gene227&lt;/b&gt;&lt;br&gt;input.path1.gene227&lt;br&gt;Location: 816996 - 818963" locus_tag="input.path1.gene227" class="clusterblast-orf" id="knownclusterblast-2_q13_0_all"  />
<polygon points="598,40 603,40 608,35 603,30 598,30 598,40 " style="fill:white; stroke-width:1; stroke:black; " description="&lt;b&gt;input.path1.gene228&lt;/b&gt;&lt;br&gt;input.path1.gene228&lt;br&gt;Location: 820201 - 821271" locus_tag="input.path1.gene228" class="clusterblast-orf" id="knownclusterblast-2_q14_0_all"  />
<polygon points="610,35 615,30 618,30 618,40 615,40 610,35 " style="fill:white; stroke-width:1; stroke:black; " description="&lt;b&gt;input.path1.gene229&lt;/b&gt;&lt;br&gt;input.path1.gene229&lt;br&gt;Location: 821421 - 822254" locus_tag="input.path1.gene229" class="clusterblast-orf" id="knownclusterblast-2_q15_0_all"  />
<polygon points="629,35 634,30 640,30 640,40 634,40 629,35 " style="fill:white; stroke-width:1; stroke:black; " description="&lt;b&gt;input.path1.gene230&lt;/b&gt;&lt;br&gt;input.path1.gene230&lt;br&gt;Location: 823353 - 824427" locus_tag="input.path1.gene230" class="clusterblast-orf" id="knownclusterblast-2_q16_0_all"  />
<polygon points="650,40 659,40 664,35 659,30 650,30 650,40 " style="fill:white; stroke-width:1; stroke:black; " description="&lt;b&gt;input.path1.gene231&lt;/b&gt;&lt;br&gt;input.path1.gene231&lt;br&gt;Location: 825433 - 826847" locus_tag="input.path1.gene231" class="clusterblast-orf" id="knownclusterblast-2_q17_0_all"  />
<polygon points="668,35 673,30 686,30 686,40 673,40 668,35 " style="fill:white; stroke-width:1; stroke:black; " description="&lt;b&gt;input.path1.gene232&lt;/b&gt;&lt;br&gt;input.path1.gene232&lt;br&gt;Location: 827157 - 828980" locus_tag="input.path1.gene232" class="clusterblast-orf" id="knownclusterblast-2_q18_0_all"  />
<polygon points="688,40 691,35 688,30 688,40 " style="fill:white; stroke-width:1; stroke:black; " description="&lt;b&gt;input.path1.gene233&lt;/b&gt;&lt;br&gt;input.path1.gene233&lt;br&gt;Location: 829210 - 829452" locus_tag="input.path1.gene233" class="clusterblast-orf" id="knownclusterblast-2_q19_0_all"  />
<polygon points="701,40 712,40 717,35 712,30 701,30 701,40 " style="fill:white; stroke-width:1; stroke:black; " description="&lt;b&gt;input.path1.gene234&lt;/b&gt;&lt;br&gt;input.path1.gene234&lt;br&gt;Location: 830452 - 832058" locus_tag="input.path1.gene234" class="clusterblast-orf" id="knownclusterblast-2_q20_0_all"  />
<polygon points="762,40 775,40 780,35 775,30 762,30 762,40 " style="fill:white; stroke-width:1; stroke:black; " description="&lt;b&gt;input.path1.gene235&lt;/b&gt;&lt;br&gt;input.path1.gene235&lt;br&gt;Location: 836584 - 838300" locus_tag="input.path1.gene235" class="clusterblast-orf" id="knownclusterblast-2_q21_0_all"  />
</g>
</svg>
