<svg xmlns="http://www.w3.org/2000/svg" xmlns:xlink="http://www.w3.org/1999/xlink" version="1.1" x="0" y="0" height="230" width="800" viewBox="0 0 800 230" preserveAspectRatio="none"  >
<g label="Query sequence" class="clusterblast-cluster"  >
<text x="5" y="20" class="clusterblast-acc"  >
Query sequence</text>
<line x1="10" y1="35" x2="778.0" y2="35" style="stroke-width:1; stroke:grey; "  />
<polygon points="162,35 165,30 165,40 162,35 " style="fill:white; stroke-width:1; stroke:black; " description="&lt;b&gt;input.path1.gene932&lt;/b&gt;&lt;br&gt;input.path1.gene932&lt;br&gt;Location: 3374049 - 3374255" locus_tag="input.path1.gene932" class="clusterblast-orf" id="dummy-4_q0_0_all"  />
<polygon points="219,35 224,30 234,30 234,40 224,40 219,35 " style="fill:#d81515; stroke-width:1; stroke:black; " description="&lt;b&gt;input.path1.gene933&lt;/b&gt;&lt;br&gt;input.path1.gene933&lt;br&gt;Location: 3378980 - 3380282" locus_tag="input.path1.gene933" class="clusterblast-orf" id="dummy-4_q1_0_all"  />
<polygon points="245,40 248,40 253,35 248,30 245,30 245,40 " style="fill:white; stroke-width:1; stroke:black; " description="&lt;b&gt;input.path1.gene934&lt;/b&gt;&lt;br&gt;input.path1.gene934&lt;br&gt;Location: 3381202 - 3381880" locus_tag="input.path1.gene934" class="clusterblast-orf" id="dummy-4_q2_0_all"  />
<polygon points="266,40 290,40 295,35 290,30 266,30 266,40 " style="fill:white; stroke-width:1; stroke:black; " description="&lt;b&gt;input.path1.gene935&lt;/b&gt;&lt;br&gt;input.path1.gene935&lt;br&gt;Location: 3383051 - 3385561" locus_tag="input.path1.gene935" class="clusterblast-orf" id="dummy-4_q3_0_all"  />
<polygon points="301,35 306,30 316,30 316,40 306,40 301,35 " style="fill:white; stroke-width:1; stroke:black; " description="&lt;b&gt;input.path1.gene936&lt;/b&gt;&lt;br&gt;input.path1.gene936&lt;br&gt;Location: 3386003 - 3387313" locus_tag="input.path1.gene936" class="clusterblast-orf" id="dummy-4_q4_0_all"  />
<polygon points="316,40 321,40 326,35 321,30 316,30 316,40 " style="fill:white; stroke-width:1; stroke:black; " description="&lt;b&gt;input.path1.gene937&lt;/b&gt;&lt;br&gt;input.path1.gene937&lt;br&gt;Location: 3387321 - 3388219" locus_tag="input.path1.gene937" class="clusterblast-orf" id="dummy-4_q5_0_all"  />
<polygon points="338,35 343,30 400,30 400,40 343,40 338,35 " style="fill:#77d815; stroke-width:1; stroke:black; " description="&lt;b&gt;input.path1.gene938&lt;/b&gt;&lt;br&gt;input.path1.gene938&lt;br&gt;Location: 3389247 - 3394608" locus_tag="input.path1.gene938" class="clusterblast-orf" id="dummy-4_q6_0_all"  />
<polygon points="414,40 426,40 431,35 426,30 414,30 414,40 " style="fill:#15d8d8; stroke-width:1; stroke:black; " description="&lt;b&gt;input.path1.gene939&lt;/b&gt;&lt;br&gt;input.path1.gene939&lt;br&gt;Location: 3395847 - 3397321" locus_tag="input.path1.gene939" class="clusterblast-orf" id="dummy-4_q7_0_all"  />
<polygon points="441,35 446,30 454,30 454,40 446,40 441,35 " style="fill:#77d815; stroke-width:1; stroke:black; " description="&lt;b&gt;input.path1.gene940&lt;/b&gt;&lt;br&gt;input.path1.gene940&lt;br&gt;Location: 3398193 - 3399315" locus_tag="input.path1.gene940" class="clusterblast-orf" id="dummy-4_q8_0_all"  />
<polygon points="473,40 478,40 483,35 478,30 473,30 473,40 " style="fill:white; stroke-width:1; stroke:black; " description="&lt;b&gt;input.path1.gene941&lt;/b&gt;&lt;br&gt;input.path1.gene941&lt;br&gt;Location: 3400953 - 3401814" locus_tag="input.path1.gene941" class="clusterblast-orf" id="dummy-4_q9_0_all"  />
<polygon points="501,40 507,40 512,35 507,30 501,30 501,40 " style="fill:white; stroke-width:1; stroke:black; " description="&lt;b&gt;input.path1.gene942&lt;/b&gt;&lt;br&gt;input.path1.gene942&lt;br&gt;Location: 3403386 - 3404299" locus_tag="input.path1.gene942" class="clusterblast-orf" id="dummy-4_q10_0_all"  />
<polygon points="542,40 569,40 574,35 569,30 542,30 542,40 " style="fill:white; stroke-width:1; stroke:black; " description="&lt;b&gt;input.path1.gene943&lt;/b&gt;&lt;br&gt;input.path1.gene943&lt;br&gt;Location: 3406910 - 3409721" locus_tag="input.path1.gene943" class="clusterblast-orf" id="dummy-4_q11_0_all"  />
<polygon points="595,40 612,40 617,35 612,30 595,30 595,40 " style="fill:#7715d8; stroke-width:1; stroke:black; " description="&lt;b&gt;input.path1.gene944&lt;/b&gt;&lt;br&gt;input.path1.gene944&lt;br&gt;Location: 3411520 - 3413379" locus_tag="input.path1.gene944" class="clusterblast-orf" id="dummy-4_q12_0_all"  />
</g>
<g label="NW_025091266" description="NW_025091266 (1102530-1174184): Aspergillus udagawae IFM 46973 DNA, scaffold ... (11% of genes show similarity), NRPS" class="clusterblast-cluster"  >
<text x="5" y="70" class="clusterblast-acc"  >
<a xlink:href="https://antismash-db.secondarymetabolites.org/area?record=NW_025091266&amp;start=1102530&amp;end=1174184" target="_blank">NW_025091266 (1102530-1174184)</a>: Aspergillus udagawae IFM 46973 DNA, scaffold ... (11% of genes show similarity), NRPS</text>
<line x1="10" y1="85" x2="778.0" y2="85" style="stroke-width:1; stroke:grey; "  />
</g>
<g id="a4_000"  >
<polygon points="0,90 2,90 7,85 2,80 0,80 0,90 " style="fill:white; stroke-width:1; stroke:black; " description="&lt;b&gt;Aud_004271&lt;/b&gt;&lt;br&gt;uncharacterized protein&lt;br&gt;Location: 1172379 - 1171723" locus_tag="Aud_004271" class="clusterblast-orf" id="dummy-4_h4_1_0"  />
</g>
<g id="a4_001"  >
<polygon points="9,85 14,80 26,80 26,90 14,90 9,85 " style="fill:white; stroke-width:1; stroke:black; " description="&lt;b&gt;Aud_004270&lt;/b&gt;&lt;br&gt;uncharacterized protein&lt;br&gt;Location: 1171531 - 1170064" locus_tag="Aud_004270" class="clusterblast-orf" id="dummy-4_h4_1_1"  />
</g>
<g id="a4_002"  >
<polygon points="37,90 59,90 64,85 59,80 37,80 37,90 " style="fill:white; stroke-width:1; stroke:black; " description="&lt;b&gt;Aud_004269&lt;/b&gt;&lt;br&gt;uncharacterized protein&lt;br&gt;Location: 1169113 - 1166807" locus_tag="Aud_004269" class="clusterblast-orf" id="dummy-4_h4_1_2"  />
</g>
<g id="a4_003"  >
<polygon points="108,90 121,90 126,85 121,80 108,80 108,90 " style="fill:white; stroke-width:1; stroke:black; " description="&lt;b&gt;Aud_004268&lt;/b&gt;&lt;br&gt;uncharacterized protein&lt;br&gt;Location: 1163023 - 1161425" locus_tag="Aud_004268" class="clusterblast-orf" id="dummy-4_h4_1_3"  />
</g>
<g id="a4_004"  >
<polygon points="145,85 150,80 152,80 152,90 150,90 145,85 " style="fill:white; stroke-width:1; stroke:black; " description="&lt;b&gt;Aud_004267&lt;/b&gt;&lt;br&gt;uncharacterized protein&lt;br&gt;Location: 1159813 - 1159133" locus_tag="Aud_004267" class="clusterblast-orf" id="dummy-4_h4_1_4"  />
</g>
<g id="a4_005"  >
<polygon points="170,90 179,90 184,85 179,80 170,80 170,90 " style="fill:white; stroke-width:1; stroke:black; " description="&lt;b&gt;Aud_004266&lt;/b&gt;&lt;br&gt;uncharacterized protein&lt;br&gt;Location: 1157601 - 1156405" locus_tag="Aud_004266" class="clusterblast-orf" id="dummy-4_h4_1_5"  />
</g>
<g id="a4_006"  >
<polygon points="197,85 202,80 206,80 206,90 202,90 197,85 " style="fill:white; stroke-width:1; stroke:black; " description="&lt;b&gt;Aud_004265&lt;/b&gt;&lt;br&gt;uncharacterized protein&lt;br&gt;Location: 1155266 - 1154461" locus_tag="Aud_004265" class="clusterblast-orf" id="dummy-4_h4_1_6"  />
</g>
<g id="a4_007"  >
<polygon points="210,90 225,90 230,85 225,80 210,80 210,90 " style="fill:white; stroke-width:1; stroke:black; " description="&lt;b&gt;Aud_004264&lt;/b&gt;&lt;br&gt;uncharacterized protein&lt;br&gt;Location: 1154111 - 1152426" locus_tag="Aud_004264" class="clusterblast-orf" id="dummy-4_h4_1_7"  />
</g>
<g id="a4_008"  >
<polygon points="239,90 250,90 255,85 250,80 239,80 239,90 " style="fill:white; stroke-width:1; stroke:black; " description="&lt;b&gt;Aud_004263&lt;/b&gt;&lt;br&gt;uncharacterized protein&lt;br&gt;Location: 1151632 - 1150294" locus_tag="Aud_004263" class="clusterblast-orf" id="dummy-4_h4_1_8"  />
</g>
<g id="a4_009"  >
<polygon points="271,90 310,90 315,85 310,80 271,80 271,90 " style="fill:white; stroke-width:1; stroke:black; " description="&lt;b&gt;Aud_004262&lt;/b&gt;&lt;br&gt;uncharacterized protein&lt;br&gt;Location: 1148903 - 1145053" locus_tag="Aud_004262" class="clusterblast-orf" id="dummy-4_h4_1_9"  />
</g>
<g id="a4_0010"  >
<polygon points="325,85 330,80 460,80 460,90 330,90 325,85 " style="fill:#77d815; stroke-width:1; stroke:black; " description="&lt;b&gt;Aud_004261&lt;/b&gt;&lt;br&gt;nonribosomal peptide synthase&lt;br&gt;Location: 1144184 - 1132531&lt;br&gt;&lt;br&gt;&lt;b&gt;BlastP hit with input.path1.gene938&lt;/b&gt;&lt;br&gt;Percentage identity: 46&lt;br&gt;Percentage coverage: 65&lt;br&gt;BLAST bit score: 1013&lt;br&gt;E-value: 0.0" locus_tag="Aud_004261" class="clusterblast-orf" id="dummy-4_h4_1_10"  />
</g>
<g id="a4_0011"  >
<polygon points="469,90 483,90 488,85 483,80 469,80 469,90 " style="fill:#15d8d8; stroke-width:1; stroke:black; " description="&lt;b&gt;Aud_004260&lt;/b&gt;&lt;br&gt;uncharacterized protein&lt;br&gt;Location: 1131691 - 1130126&lt;br&gt;&lt;br&gt;&lt;b&gt;BlastP hit with input.path1.gene939&lt;/b&gt;&lt;br&gt;Percentage identity: 60&lt;br&gt;Percentage coverage: 93&lt;br&gt;BLAST bit score: 518&lt;br&gt;E-value: 2.22e-179" locus_tag="Aud_004260" class="clusterblast-orf" id="dummy-4_h4_1_11"  />
</g>
<g id="a4_0012"  >
<polygon points="491,85 496,80 504,80 504,90 496,90 491,85 " style="fill:#77d815; stroke-width:1; stroke:black; " description="&lt;b&gt;Aud_004259&lt;/b&gt;&lt;br&gt;putative PKS/NRPS-like protein biosynthetic cluster&lt;br&gt;Location: 1129866 - 1128733&lt;br&gt;&lt;br&gt;&lt;b&gt;BlastP hit with input.path1.gene940&lt;/b&gt;&lt;br&gt;Percentage identity: 69&lt;br&gt;Percentage coverage: 100&lt;br&gt;BLAST bit score: 528&lt;br&gt;E-value: 2.39e-187" locus_tag="Aud_004259" class="clusterblast-orf" id="dummy-4_h4_1_12"  />
</g>
<g id="a4_0013"  >
<polygon points="509,90 521,90 526,85 521,80 509,80 509,90 " style="fill:white; stroke-width:1; stroke:black; " description="&lt;b&gt;Aud_004258&lt;/b&gt;&lt;br&gt;uncharacterized protein&lt;br&gt;Location: 1128270 - 1126803" locus_tag="Aud_004258" class="clusterblast-orf" id="dummy-4_h4_1_13"  />
</g>
<g id="a4_0014"  >
<polygon points="529,85 534,80 552,80 552,90 534,90 529,85 " style="fill:white; stroke-width:1; stroke:black; " description="&lt;b&gt;Aud_004257&lt;/b&gt;&lt;br&gt;putative NRPS-like protein biosynthetic cluster&lt;br&gt;Location: 1126505 - 1124509" locus_tag="Aud_004257" class="clusterblast-orf" id="dummy-4_h4_1_14"  />
</g>
<g id="a4_0015"  >
<polygon points="556,85 561,80 561,80 561,90 561,90 556,85 " style="fill:white; stroke-width:1; stroke:black; " description="&lt;b&gt;Aud_004256&lt;/b&gt;&lt;br&gt;uncharacterized protein&lt;br&gt;Location: 1124212 - 1123787" locus_tag="Aud_004256" class="clusterblast-orf" id="dummy-4_h4_1_15"  />
</g>
<g id="a4_0016"  >
<polygon points="564,85 569,80 576,80 576,90 569,90 564,85 " style="fill:white; stroke-width:1; stroke:black; " description="&lt;b&gt;Aud_004255&lt;/b&gt;&lt;br&gt;uncharacterized protein&lt;br&gt;Location: 1123506 - 1122496" locus_tag="Aud_004255" class="clusterblast-orf" id="dummy-4_h4_1_16"  />
</g>
<g id="a4_0017"  >
<polygon points="580,90 588,90 593,85 588,80 580,80 580,90 " style="fill:white; stroke-width:1; stroke:black; " description="&lt;b&gt;Aud_004254&lt;/b&gt;&lt;br&gt;uncharacterized protein&lt;br&gt;Location: 1122152 - 1121028" locus_tag="Aud_004254" class="clusterblast-orf" id="dummy-4_h4_1_17"  />
</g>
<g id="a4_0018"  >
<polygon points="595,85 600,80 615,80 615,90 600,90 595,85 " style="fill:white; stroke-width:1; stroke:black; " description="&lt;b&gt;Aud_004253&lt;/b&gt;&lt;br&gt;uncharacterized protein&lt;br&gt;Location: 1120859 - 1119053" locus_tag="Aud_004253" class="clusterblast-orf" id="dummy-4_h4_1_18"  />
</g>
<g id="a4_0019"  >
<polygon points="620,90 632,90 637,85 632,80 620,80 620,90 " style="fill:white; stroke-width:1; stroke:black; " description="&lt;b&gt;Aud_004252&lt;/b&gt;&lt;br&gt;uncharacterized protein&lt;br&gt;Location: 1118625 - 1117206" locus_tag="Aud_004252" class="clusterblast-orf" id="dummy-4_h4_1_19"  />
</g>
<g id="a4_0020"  >
<polygon points="645,90 655,90 660,85 655,80 645,80 645,90 " style="fill:white; stroke-width:1; stroke:black; " description="&lt;b&gt;Aud_004251&lt;/b&gt;&lt;br&gt;uncharacterized protein&lt;br&gt;Location: 1116471 - 1115186" locus_tag="Aud_004251" class="clusterblast-orf" id="dummy-4_h4_1_20"  />
</g>
<g id="a4_0021"  >
<polygon points="664,85 669,80 676,80 676,90 669,90 664,85 " style="fill:white; stroke-width:1; stroke:black; " description="&lt;b&gt;Aud_004250&lt;/b&gt;&lt;br&gt;uncharacterized protein&lt;br&gt;Location: 1114831 - 1113840" locus_tag="Aud_004250" class="clusterblast-orf" id="dummy-4_h4_1_21"  />
</g>
<g id="a4_0022"  >
<polygon points="705,85 710,80 713,80 713,90 710,90 705,85 " style="fill:white; stroke-width:1; stroke:black; " description="&lt;b&gt;Aud_004249&lt;/b&gt;&lt;br&gt;uncharacterized protein&lt;br&gt;Location: 1111289 - 1110579" locus_tag="Aud_004249" class="clusterblast-orf" id="dummy-4_h4_1_22"  />
</g>
<g id="a4_0023"  >
<polygon points="742,85 747,80 749,80 749,90 747,90 742,85 " style="fill:white; stroke-width:1; stroke:black; " description="&lt;b&gt;Aud_004248&lt;/b&gt;&lt;br&gt;uncharacterized protein&lt;br&gt;Location: 1108061 - 1107474" locus_tag="Aud_004248" class="clusterblast-orf" id="dummy-4_h4_1_23"  />
</g>
<g id="a4_0024"  >
<polygon points="768,90 768,90 773,85 768,80 768,80 768,90 " style="fill:white; stroke-width:1; stroke:black; " description="&lt;b&gt;Aud_004247&lt;/b&gt;&lt;br&gt;uncharacterized protein&lt;br&gt;Location: 1105861 - 1105375" locus_tag="Aud_004247" class="clusterblast-orf" id="dummy-4_h4_1_24"  />
</g>
<g id="a4_0025"  >
<polygon points="774,85 779,80 780,80 780,90 779,90 774,85 " style="fill:white; stroke-width:1; stroke:black; " description="&lt;b&gt;Aud_004246&lt;/b&gt;&lt;br&gt;uncharacterized protein&lt;br&gt;Location: 1105314 - 1104848" locus_tag="Aud_004246" class="clusterblast-orf" id="dummy-4_h4_1_25"  />
</g>
</svg>
