<svg xmlns="http://www.w3.org/2000/svg" xmlns:xlink="http://www.w3.org/1999/xlink" version="1.1" x="0" y="0" height="230" width="800" viewBox="0 0 800 230" preserveAspectRatio="none"  >
<g label="Query sequence" class="clusterblast-cluster"  >
<text x="5" y="20" class="clusterblast-acc"  >
Query sequence</text>
<line x1="10" y1="35" x2="778.0" y2="35" style="stroke-width:1; stroke:grey; "  />
<polygon points="101,40 104,40 109,35 104,30 101,30 101,40 " style="fill:white; stroke-width:1; stroke:black; " description="&lt;b&gt;input.path1.gene231&lt;/b&gt;&lt;br&gt;input.path1.gene231&lt;br&gt;Location: 952091 - 952667" locus_tag="input.path1.gene231" class="clusterblast-orf" id="dummy-1_q0_0_all"  />
<polygon points="113,35 118,30 138,30 138,40 118,40 113,35 " style="fill:#d81515; stroke-width:1; stroke:black; " description="&lt;b&gt;input.path1.gene232&lt;/b&gt;&lt;br&gt;input.path1.gene232&lt;br&gt;Location: 952940 - 954792" locus_tag="input.path1.gene232" class="clusterblast-orf" id="dummy-1_q1_0_all"  />
<polygon points="164,35 169,30 178,30 178,40 169,40 164,35 " style="fill:white; stroke-width:1; stroke:black; " description="&lt;b&gt;input.path1.gene233&lt;/b&gt;&lt;br&gt;input.path1.gene233&lt;br&gt;Location: 956738 - 957706" locus_tag="input.path1.gene233" class="clusterblast-orf" id="dummy-1_q2_0_all"  />
<polygon points="196,40 197,40 202,35 197,30 196,30 196,40 " style="fill:white; stroke-width:1; stroke:black; " description="&lt;b&gt;input.path1.gene234&lt;/b&gt;&lt;br&gt;input.path1.gene234&lt;br&gt;Location: 959066 - 959489" locus_tag="input.path1.gene234" class="clusterblast-orf" id="dummy-1_q3_0_all"  />
<polygon points="212,40 219,40 224,35 219,30 212,30 212,40 " style="fill:#3cd815; stroke-width:1; stroke:black; " description="&lt;b&gt;input.path1.gene235&lt;/b&gt;&lt;br&gt;input.path1.gene235&lt;br&gt;Location: 960215 - 961118" locus_tag="input.path1.gene235" class="clusterblast-orf" id="dummy-1_q4_0_all"  />
<polygon points="238,35 243,30 248,30 248,40 243,40 238,35 " style="fill:#1563d8; stroke-width:1; stroke:black; " description="&lt;b&gt;input.path1.gene236&lt;/b&gt;&lt;br&gt;input.path1.gene236&lt;br&gt;Location: 962126 - 962871" locus_tag="input.path1.gene236" class="clusterblast-orf" id="dummy-1_q5_0_all"  />
<polygon points="300,40 316,40 321,35 316,30 300,30 300,40 " style="fill:#b115d8; stroke-width:1; stroke:black; " description="&lt;b&gt;input.path1.gene237&lt;/b&gt;&lt;br&gt;input.path1.gene237&lt;br&gt;Location: 966744 - 968258" locus_tag="input.path1.gene237" class="clusterblast-orf" id="dummy-1_q6_0_all"  />
<polygon points="327,35 332,30 342,30 342,40 332,40 327,35 " style="fill:#d88a15; stroke-width:1; stroke:black; " description="&lt;b&gt;input.path1.gene238&lt;/b&gt;&lt;br&gt;input.path1.gene238&lt;br&gt;Location: 968727 - 969818" locus_tag="input.path1.gene238" class="clusterblast-orf" id="dummy-1_q7_0_all"  />
<polygon points="373,40 417,40 422,35 417,30 373,30 373,40 " style="fill:#15d863; stroke-width:1; stroke:black; " description="&lt;b&gt;input.path1.gene239&lt;/b&gt;&lt;br&gt;input.path1.gene239&lt;br&gt;Location: 972071 - 975742" locus_tag="input.path1.gene239" class="clusterblast-orf" id="dummy-1_q8_0_all"  />
<polygon points="429,35 434,30 479,30 479,40 434,40 429,35 " style="fill:#3c15d8; stroke-width:1; stroke:black; " description="&lt;b&gt;input.path1.gene240&lt;/b&gt;&lt;br&gt;input.path1.gene240&lt;br&gt;Location: 976261 - 979929" locus_tag="input.path1.gene240" class="clusterblast-orf" id="dummy-1_q9_0_all"  />
<polygon points="578,40 589,40 594,35 589,30 578,30 578,40 " style="fill:#d8158a; stroke-width:1; stroke:black; " description="&lt;b&gt;input.path1.gene241&lt;/b&gt;&lt;br&gt;input.path1.gene241&lt;br&gt;Location: 987229 - 988371" locus_tag="input.path1.gene241" class="clusterblast-orf" id="dummy-1_q10_0_all"  />
<polygon points="597,35 602,30 626,30 626,40 602,40 597,35 " style="fill:#b1d815; stroke-width:1; stroke:black; " description="&lt;b&gt;input.path1.gene242&lt;/b&gt;&lt;br&gt;input.path1.gene242&lt;br&gt;Location: 988608 - 990712" locus_tag="input.path1.gene242" class="clusterblast-orf" id="dummy-1_q11_0_all"  />
<polygon points="632,35 637,30 650,30 650,40 637,40 632,35 " style="fill:#15d8d8; stroke-width:1; stroke:black; " description="&lt;b&gt;input.path1.gene243&lt;/b&gt;&lt;br&gt;input.path1.gene243&lt;br&gt;Location: 991200 - 992512" locus_tag="input.path1.gene243" class="clusterblast-orf" id="dummy-1_q12_0_all"  />
<polygon points="671,40 673,40 678,35 673,30 671,30 671,40 " style="fill:white; stroke-width:1; stroke:black; " description="&lt;b&gt;input.path1.gene244&lt;/b&gt;&lt;br&gt;input.path1.gene244&lt;br&gt;Location: 994087 - 994565" locus_tag="input.path1.gene244" class="clusterblast-orf" id="dummy-1_q13_0_all"  />
</g>
<g label="NC_072845" description="NC_072845 (1566921-1630612): Fusarium oxysporum Fo47 chromosome VI, complete ... (9% of genes show similarity), NRPS" class="clusterblast-cluster"  >
<text x="5" y="70" class="clusterblast-acc"  >
<a xlink:href="https://antismash-db.secondarymetabolites.org/area?record=NC_072845&amp;start=1566921&amp;end=1630612" target="_blank">NC_072845 (1566921-1630612)</a>: Fusarium oxysporum Fo47 chromosome VI, complete ... (9% of genes show similarity), NRPS</text>
<line x1="10" y1="85" x2="778.0" y2="85" style="stroke-width:1; stroke:grey; "  />
</g>
<g id="a1_000"  >
<polygon points="0,90 42,90 47,85 42,80 0,80 0,90 " style="fill:white; stroke-width:1; stroke:black; " description="&lt;b&gt;FOBC_09931&lt;/b&gt;&lt;br&gt;uncharacterized protein&lt;br&gt;Location: 1625128 - 1621664" locus_tag="FOBC_09931" class="clusterblast-orf" id="dummy-1_h1_6_0"  />
</g>
<g id="a1_001"  >
<polygon points="72,85 73,80 73,90 72,85 " style="fill:white; stroke-width:1; stroke:black; " description="&lt;b&gt;FOBC_00224&lt;/b&gt;&lt;br&gt;uncharacterized protein&lt;br&gt;Location: 1619810 - 1619706" locus_tag="FOBC_00224" class="clusterblast-orf" id="dummy-1_h1_6_1"  />
</g>
<g id="a1_002"  >
<polygon points="94,90 103,90 108,85 103,80 94,80 94,90 " style="fill:white; stroke-width:1; stroke:black; " description="&lt;b&gt;FOBC_09930&lt;/b&gt;&lt;br&gt;uncharacterized protein&lt;br&gt;Location: 1618191 - 1617148" locus_tag="FOBC_09930" class="clusterblast-orf" id="dummy-1_h1_6_2"  />
</g>
<g id="a1_003"  >
<polygon points="128,85 133,80 143,80 143,90 133,90 128,85 " style="fill:white; stroke-width:1; stroke:black; " description="&lt;b&gt;FOBC_09929&lt;/b&gt;&lt;br&gt;uncharacterized protein&lt;br&gt;Location: 1615654 - 1614560" locus_tag="FOBC_09929" class="clusterblast-orf" id="dummy-1_h1_6_3"  />
</g>
<g id="a1_004"  >
<polygon points="158,90 167,90 172,85 167,80 158,80 158,90 " style="fill:white; stroke-width:1; stroke:black; " description="&lt;b&gt;FOBC_09928&lt;/b&gt;&lt;br&gt;uncharacterized protein&lt;br&gt;Location: 1613420 - 1612445" locus_tag="FOBC_09928" class="clusterblast-orf" id="dummy-1_h1_6_4"  />
</g>
<g id="a1_005"  >
<polygon points="192,90 195,85 192,80 192,90 " style="fill:white; stroke-width:1; stroke:black; " description="&lt;b&gt;FOBC_09927&lt;/b&gt;&lt;br&gt;uncharacterized protein&lt;br&gt;Location: 1610958 - 1610713" locus_tag="FOBC_09927" class="clusterblast-orf" id="dummy-1_h1_6_5"  />
</g>
<g id="a1_006"  >
<polygon points="208,90 212,85 208,80 208,90 " style="fill:white; stroke-width:1; stroke:black; " description="&lt;b&gt;FOBC_00223&lt;/b&gt;&lt;br&gt;uncharacterized protein&lt;br&gt;Location: 1609771 - 1609496" locus_tag="FOBC_00223" class="clusterblast-orf" id="dummy-1_h1_6_6"  />
</g>
<g id="a1_007"  >
<polygon points="233,90 255,90 260,85 255,80 233,80 233,90 " style="fill:white; stroke-width:1; stroke:black; " description="&lt;b&gt;FOBC_09926&lt;/b&gt;&lt;br&gt;uncharacterized protein&lt;br&gt;Location: 1607887 - 1605970" locus_tag="FOBC_09926" class="clusterblast-orf" id="dummy-1_h1_6_7"  />
</g>
<g id="a1_008"  >
<polygon points="278,85 283,80 299,80 299,90 283,90 278,85 " style="fill:#d88a15; stroke-width:1; stroke:black; " description="&lt;b&gt;FOBC_09925&lt;/b&gt;&lt;br&gt;uncharacterized protein&lt;br&gt;Location: 1604636 - 1603026&lt;br&gt;&lt;br&gt;&lt;b&gt;BlastP hit with input.path1.gene238&lt;/b&gt;&lt;br&gt;Percentage identity: 49&lt;br&gt;Percentage coverage: 99&lt;br&gt;BLAST bit score: 302&lt;br&gt;E-value: 4.76e-98" locus_tag="FOBC_09925" class="clusterblast-orf" id="dummy-1_h1_6_8"  />
</g>
<g id="a1_009"  >
<polygon points="332,90 377,90 382,85 377,80 332,80 332,90 " style="fill:#15d863; stroke-width:1; stroke:black; " description="&lt;b&gt;FOBC_09924&lt;/b&gt;&lt;br&gt;uncharacterized protein&lt;br&gt;Location: 1600612 - 1596922&lt;br&gt;&lt;br&gt;&lt;b&gt;BlastP hit with input.path1.gene239&lt;/b&gt;&lt;br&gt;Percentage identity: 41&lt;br&gt;Percentage coverage: 100&lt;br&gt;BLAST bit score: 877&lt;br&gt;E-value: 1.07e-299" locus_tag="FOBC_09924" class="clusterblast-orf" id="dummy-1_h1_6_9"  />
</g>
<g id="a1_0010"  >
<polygon points="387,85 392,80 392,80 392,90 392,90 387,85 " style="fill:white; stroke-width:1; stroke:black; " description="&lt;b&gt;FOBC_09923&lt;/b&gt;&lt;br&gt;uncharacterized protein&lt;br&gt;Location: 1596592 - 1596224" locus_tag="FOBC_09923" class="clusterblast-orf" id="dummy-1_h1_6_10"  />
</g>
<g id="a1_0011"  >
<polygon points="393,85 398,80 404,80 404,90 398,90 393,85 " style="fill:white; stroke-width:1; stroke:black; " description="&lt;b&gt;FOBC_09922&lt;/b&gt;&lt;br&gt;uncharacterized protein&lt;br&gt;Location: 1596153 - 1595353" locus_tag="FOBC_09922" class="clusterblast-orf" id="dummy-1_h1_6_11"  />
</g>
<g id="a1_0012"  >
<polygon points="417,90 424,90 429,85 424,80 417,80 417,90 " style="fill:white; stroke-width:1; stroke:black; " description="&lt;b&gt;FOBC_09921&lt;/b&gt;&lt;br&gt;uncharacterized protein&lt;br&gt;Location: 1594341 - 1593454" locus_tag="FOBC_09921" class="clusterblast-orf" id="dummy-1_h1_6_12"  />
</g>
<g id="a1_0013"  >
<polygon points="434,85 439,80 458,80 458,90 439,90 434,85 " style="fill:white; stroke-width:1; stroke:black; " description="&lt;b&gt;FOBC_09920&lt;/b&gt;&lt;br&gt;uncharacterized protein&lt;br&gt;Location: 1593106 - 1591316" locus_tag="FOBC_09920" class="clusterblast-orf" id="dummy-1_h1_6_13"  />
</g>
<g id="a1_0014"  >
<polygon points="476,90 482,90 487,85 482,80 476,80 476,90 " style="fill:white; stroke-width:1; stroke:black; " description="&lt;b&gt;FOBC_09919&lt;/b&gt;&lt;br&gt;uncharacterized protein&lt;br&gt;Location: 1589999 - 1589190" locus_tag="FOBC_09919" class="clusterblast-orf" id="dummy-1_h1_6_14"  />
</g>
<g id="a1_0015"  >
<polygon points="501,85 506,80 511,80 511,90 506,90 501,85 " style="fill:white; stroke-width:1; stroke:black; " description="&lt;b&gt;FOBC_09918&lt;/b&gt;&lt;br&gt;uncharacterized protein&lt;br&gt;Location: 1588147 - 1587455" locus_tag="FOBC_09918" class="clusterblast-orf" id="dummy-1_h1_6_15"  />
</g>
<g id="a1_0016"  >
<polygon points="517,85 522,80 538,80 538,90 522,90 517,85 " style="fill:white; stroke-width:1; stroke:black; " description="&lt;b&gt;FOBC_09917&lt;/b&gt;&lt;br&gt;uncharacterized protein&lt;br&gt;Location: 1587034 - 1585445" locus_tag="FOBC_09917" class="clusterblast-orf" id="dummy-1_h1_6_16"  />
</g>
<g id="a1_0017"  >
<polygon points="643,90 662,90 667,85 662,80 643,80 643,90 " style="fill:white; stroke-width:1; stroke:black; " description="&lt;b&gt;FOBC_09916&lt;/b&gt;&lt;br&gt;uncharacterized protein&lt;br&gt;Location: 1577706 - 1575920" locus_tag="FOBC_09916" class="clusterblast-orf" id="dummy-1_h1_6_17"  />
</g>
<g id="a1_0018"  >
<polygon points="682,90 697,90 702,85 697,80 682,80 682,90 " style="fill:white; stroke-width:1; stroke:black; " description="&lt;b&gt;FOBC_09915&lt;/b&gt;&lt;br&gt;uncharacterized protein&lt;br&gt;Location: 1574805 - 1573342" locus_tag="FOBC_09915" class="clusterblast-orf" id="dummy-1_h1_6_18"  />
</g>
<g id="a1_0019"  >
<polygon points="720,90 720,90 725,85 720,80 720,80 720,90 " style="fill:white; stroke-width:1; stroke:black; " description="&lt;b&gt;FOBC_09913&lt;/b&gt;&lt;br&gt;uncharacterized protein&lt;br&gt;Location: 1572051 - 1571635" locus_tag="FOBC_09913" class="clusterblast-orf" id="dummy-1_h1_6_19"  />
</g>
<g id="a1_0020"  >
<polygon points="755,90 775,90 780,85 775,80 755,80 755,90 " style="fill:white; stroke-width:1; stroke:black; " description="&lt;b&gt;FOBC_09912&lt;/b&gt;&lt;br&gt;elongation factor 1-alpha&lt;br&gt;Location: 1569426 - 1567656" locus_tag="FOBC_09912" class="clusterblast-orf" id="dummy-1_h1_6_20"  />
</g>
</svg>
