<svg xmlns="http://www.w3.org/2000/svg" xmlns:xlink="http://www.w3.org/1999/xlink" version="1.1" x="0" y="0" height="230" width="800" viewBox="0 0 800 230" preserveAspectRatio="none"  >
<g label="Query sequence" class="clusterblast-cluster"  >
<text x="5" y="20" class="clusterblast-acc"  >
Query sequence</text>
<line x1="10" y1="35" x2="778.0" y2="35" style="stroke-width:1; stroke:grey; "  />
<polygon points="128,35 133,30 141,30 141,40 133,40 128,35 " style="fill:white; stroke-width:1; stroke:black; " description="&lt;b&gt;input.path1.gene322&lt;/b&gt;&lt;br&gt;input.path1.gene322&lt;br&gt;Location: 1293869 - 1294950" locus_tag="input.path1.gene322" class="clusterblast-orf" id="dummy-3_q0_0_all"  />
<polygon points="157,40 158,40 163,35 158,30 157,30 157,40 " style="fill:white; stroke-width:1; stroke:black; " description="&lt;b&gt;input.path1.gene323&lt;/b&gt;&lt;br&gt;input.path1.gene323&lt;br&gt;Location: 1296322 - 1296824" locus_tag="input.path1.gene323" class="clusterblast-orf" id="dummy-3_q1_0_all"  />
<polygon points="183,35 188,30 194,30 194,40 188,40 183,35 " style="fill:white; stroke-width:1; stroke:black; " description="&lt;b&gt;input.path1.gene324&lt;/b&gt;&lt;br&gt;input.path1.gene324&lt;br&gt;Location: 1298523 - 1299439" locus_tag="input.path1.gene324" class="clusterblast-orf" id="dummy-3_q2_0_all"  />
<polygon points="253,40 253,40 258,35 253,30 253,30 253,40 " style="fill:white; stroke-width:1; stroke:black; " description="&lt;b&gt;input.path1.gene325&lt;/b&gt;&lt;br&gt;input.path1.gene325&lt;br&gt;Location: 1304402 - 1304833" locus_tag="input.path1.gene325" class="clusterblast-orf" id="dummy-3_q3_0_all"  />
<polygon points="304,35 309,30 312,30 312,40 309,40 304,35 " style="fill:#d81515; stroke-width:1; stroke:black; " description="&lt;b&gt;input.path1.gene326&lt;/b&gt;&lt;br&gt;input.path1.gene326&lt;br&gt;Location: 1308711 - 1309350" locus_tag="input.path1.gene326" class="clusterblast-orf" id="dummy-3_q4_0_all"  />
<polygon points="330,40 443,40 448,35 443,30 330,30 330,40 " style="fill:#15d815; stroke-width:1; stroke:black; " description="&lt;b&gt;input.path1.gene327&lt;/b&gt;&lt;br&gt;input.path1.gene327&lt;br&gt;Location: 1310928 - 1320884" locus_tag="input.path1.gene327" class="clusterblast-orf" id="dummy-3_q5_0_all"  />
<polygon points="452,35 457,30 467,30 467,40 457,40 452,35 " style="fill:white; stroke-width:1; stroke:black; " description="&lt;b&gt;input.path1.gene328&lt;/b&gt;&lt;br&gt;input.path1.gene328&lt;br&gt;Location: 1321164 - 1322484" locus_tag="input.path1.gene328" class="clusterblast-orf" id="dummy-3_q6_0_all"  />
<polygon points="506,35 511,30 517,30 517,40 511,40 506,35 " style="fill:#1515d8; stroke-width:1; stroke:black; " description="&lt;b&gt;input.path1.gene329&lt;/b&gt;&lt;br&gt;input.path1.gene329&lt;br&gt;Location: 1325759 - 1326682" locus_tag="input.path1.gene329" class="clusterblast-orf" id="dummy-3_q7_0_all"  />
<polygon points="565,40 605,40 610,35 605,30 565,30 565,40 " style="fill:white; stroke-width:1; stroke:black; " description="&lt;b&gt;input.path1.gene330&lt;/b&gt;&lt;br&gt;input.path1.gene330&lt;br&gt;Location: 1330752 - 1334492" locus_tag="input.path1.gene330" class="clusterblast-orf" id="dummy-3_q8_0_all"  />
<polygon points="621,40 646,40 651,35 646,30 621,30 621,40 " style="fill:white; stroke-width:1; stroke:black; " description="&lt;b&gt;input.path1.gene331&lt;/b&gt;&lt;br&gt;input.path1.gene331&lt;br&gt;Location: 1335443 - 1337974" locus_tag="input.path1.gene331" class="clusterblast-orf" id="dummy-3_q9_0_all"  />
</g>
<g label="NW_020291804" description="NW_020291804 (923841-990927): Aspergillus costaricaensis CBS 115574 unplaced ... (15% of genes show similarity), NRPS" class="clusterblast-cluster"  >
<text x="5" y="70" class="clusterblast-acc"  >
<a xlink:href="https://antismash-db.secondarymetabolites.org/area?record=NW_020291804&amp;start=923841&amp;end=990927" target="_blank">NW_020291804 (923841-990927)</a>: Aspergillus costaricaensis CBS 115574 unplaced ... (15% of genes show similarity), NRPS</text>
<line x1="10" y1="85" x2="778.0" y2="85" style="stroke-width:1; stroke:grey; "  />
</g>
<g id="a3_000"  >
<polygon points="0,90 14,90 19,85 14,80 0,80 0,90 " style="fill:white; stroke-width:1; stroke:black; " description="&lt;b&gt;BO79DRAFT_56625&lt;/b&gt;&lt;br&gt;Bromodomain-containing protein&lt;br&gt;Location: 990279 - 988612" locus_tag="BO79DRAFT_56625" class="clusterblast-orf" id="dummy-3_h3_10_0"  />
</g>
<g id="a3_001"  >
<polygon points="31,90 48,90 53,85 48,80 31,80 31,90 " style="fill:white; stroke-width:1; stroke:black; " description="&lt;b&gt;BO79DRAFT_275275&lt;/b&gt;&lt;br&gt;zf-CSL-domain-containing protein&lt;br&gt;Location: 987646 - 985731" locus_tag="BO79DRAFT_275275" class="clusterblast-orf" id="dummy-3_h3_10_1"  />
</g>
<g id="a3_002"  >
<polygon points="61,85 66,80 70,80 70,90 66,90 61,85 " style="fill:white; stroke-width:1; stroke:black; " description="&lt;b&gt;BO79DRAFT_188427&lt;/b&gt;&lt;br&gt;Frataxin&lt;br&gt;Location: 985102 - 984350" locus_tag="BO79DRAFT_188427" class="clusterblast-orf" id="dummy-3_h3_10_2"  />
</g>
<g id="a3_003"  >
<polygon points="75,90 84,90 89,85 84,80 75,80 75,90 " style="fill:white; stroke-width:1; stroke:black; " description="&lt;b&gt;BO79DRAFT_275269&lt;/b&gt;&lt;br&gt;hypothetical protein&lt;br&gt;Location: 983909 - 982755" locus_tag="BO79DRAFT_275269" class="clusterblast-orf" id="dummy-3_h3_10_3"  />
</g>
<g id="a3_004"  >
<polygon points="91,85 96,80 118,80 118,90 96,90 91,85 " style="fill:white; stroke-width:1; stroke:black; " description="&lt;b&gt;BO79DRAFT_285025&lt;/b&gt;&lt;br&gt;exocyst complex component Sec6&lt;br&gt;Location: 982592 - 980319" locus_tag="BO79DRAFT_285025" class="clusterblast-orf" id="dummy-3_h3_10_4"  />
</g>
<g id="a3_005"  >
<polygon points="125,90 129,85 125,80 125,90 " style="fill:white; stroke-width:1; stroke:black; " description="&lt;b&gt;BO79DRAFT_207213&lt;/b&gt;&lt;br&gt;mitochondrial 54S ribosomal protein YmL33&lt;br&gt;Location: 979682 - 979395" locus_tag="BO79DRAFT_207213" class="clusterblast-orf" id="dummy-3_h3_10_5"  />
</g>
<g id="a3_006"  >
<polygon points="135,85 140,80 158,80 158,90 140,90 135,85 " style="fill:white; stroke-width:1; stroke:black; " description="&lt;b&gt;BO79DRAFT_188420&lt;/b&gt;&lt;br&gt;sphinganine-1-phosphate aldolase Bst1&lt;br&gt;Location: 978882 - 976951" locus_tag="BO79DRAFT_188420" class="clusterblast-orf" id="dummy-3_h3_10_6"  />
</g>
<g id="a3_007"  >
<polygon points="166,85 171,80 185,80 185,90 171,90 166,85 " style="fill:white; stroke-width:1; stroke:black; " description="&lt;b&gt;BO79DRAFT_243064&lt;/b&gt;&lt;br&gt;homocitrate synthase&lt;br&gt;Location: 976261 - 974635" locus_tag="BO79DRAFT_243064" class="clusterblast-orf" id="dummy-3_h3_10_7"  />
</g>
<g id="a3_008"  >
<polygon points="284,90 304,90 309,85 304,80 284,80 284,90 " style="fill:white; stroke-width:1; stroke:black; " description="&lt;b&gt;BO79DRAFT_275260&lt;/b&gt;&lt;br&gt;hypothetical protein&lt;br&gt;Location: 966294 - 964161" locus_tag="BO79DRAFT_275260" class="clusterblast-orf" id="dummy-3_h3_10_8"  />
</g>
<g id="a3_009"  >
<polygon points="319,90 334,90 339,85 334,80 319,80 319,90 " style="fill:#15d815; stroke-width:1; stroke:black; " description="&lt;b&gt;BO79DRAFT_275258&lt;/b&gt;&lt;br&gt;MFS drug efflux transporter&lt;br&gt;Location: 963336 - 961657&lt;br&gt;&lt;br&gt;&lt;b&gt;BlastP hit with input.path1.gene327&lt;/b&gt;&lt;br&gt;Percentage identity: 67&lt;br&gt;Percentage coverage: 17&lt;br&gt;BLAST bit score: 665&lt;br&gt;E-value: 2.25e-213" locus_tag="BO79DRAFT_275258" class="clusterblast-orf" id="dummy-3_h3_10_9"  />
</g>
<g id="a3_0010"  >
<polygon points="348,90 427,90 432,85 427,80 348,80 348,90 " style="fill:#15d815; stroke-width:1; stroke:black; " description="&lt;b&gt;BO79DRAFT_275253&lt;/b&gt;&lt;br&gt;nonribosomal peptide synthase&lt;br&gt;Location: 960927 - 953842&lt;br&gt;&lt;br&gt;&lt;b&gt;BlastP hit with input.path1.gene327&lt;/b&gt;&lt;br&gt;Percentage identity: 54&lt;br&gt;Percentage coverage: 81&lt;br&gt;BLAST bit score: 2436&lt;br&gt;E-value: 0.0" locus_tag="BO79DRAFT_275253" class="clusterblast-orf" id="dummy-3_h3_10_10"  />
</g>
<g id="a3_0011"  >
<polygon points="438,85 443,80 451,80 451,90 443,90 438,85 " style="fill:white; stroke-width:1; stroke:black; " description="&lt;b&gt;BO79DRAFT_137968&lt;/b&gt;&lt;br&gt;S-adenosyl-L-methionine-dependent methyltransferase&lt;br&gt;Location: 953259 - 952215" locus_tag="BO79DRAFT_137968" class="clusterblast-orf" id="dummy-3_h3_10_11"  />
</g>
<g id="a3_0012"  >
<polygon points="458,90 461,90 466,85 461,80 458,80 458,90 " style="fill:#d81515; stroke-width:1; stroke:black; " description="&lt;b&gt;BO79DRAFT_138714&lt;/b&gt;&lt;br&gt;hypothetical protein&lt;br&gt;Location: 951587 - 950961&lt;br&gt;&lt;br&gt;&lt;b&gt;BlastP hit with input.path1.gene326&lt;/b&gt;&lt;br&gt;Percentage identity: 61&lt;br&gt;Percentage coverage: 93&lt;br&gt;BLAST bit score: 250&lt;br&gt;E-value: 8.15e-83" locus_tag="BO79DRAFT_138714" class="clusterblast-orf" id="dummy-3_h3_10_12"  />
</g>
<g id="a3_0013"  >
<polygon points="468,85 473,80 483,80 483,90 473,90 468,85 " style="fill:white; stroke-width:1; stroke:black; " description="&lt;b&gt;BO79DRAFT_285021&lt;/b&gt;&lt;br&gt;C2H2 type zinc finger domain protein&lt;br&gt;Location: 950800 - 949511" locus_tag="BO79DRAFT_285021" class="clusterblast-orf" id="dummy-3_h3_10_13"  />
</g>
<g id="a3_0014"  >
<polygon points="488,85 493,80 499,80 499,90 493,90 488,85 " style="fill:white; stroke-width:1; stroke:black; " description="&lt;b&gt;BO79DRAFT_275249&lt;/b&gt;&lt;br&gt;hypothetical protein&lt;br&gt;Location: 949107 - 948154" locus_tag="BO79DRAFT_275249" class="clusterblast-orf" id="dummy-3_h3_10_14"  />
</g>
<g id="a3_0015"  >
<polygon points="510,90 529,90 534,85 529,80 510,80 510,90 " style="fill:white; stroke-width:1; stroke:black; " description="&lt;b&gt;BO79DRAFT_225091&lt;/b&gt;&lt;br&gt;PTH2-domain-containing protein&lt;br&gt;Location: 947251 - 945219" locus_tag="BO79DRAFT_225091" class="clusterblast-orf" id="dummy-3_h3_10_15"  />
</g>
<g id="a3_0016"  >
<polygon points="545,90 564,90 569,85 564,80 545,80 545,90 " style="fill:white; stroke-width:1; stroke:black; " description="&lt;b&gt;BO79DRAFT_56543&lt;/b&gt;&lt;br&gt;DNA binding protein SART-1&lt;br&gt;Location: 944241 - 942220" locus_tag="BO79DRAFT_56543" class="clusterblast-orf" id="dummy-3_h3_10_16"  />
</g>
<g id="a3_0017"  >
<polygon points="584,90 598,90 603,85 598,80 584,80 584,90 " style="fill:white; stroke-width:1; stroke:black; " description="&lt;b&gt;BO79DRAFT_166653&lt;/b&gt;&lt;br&gt;aspartate aminotransferase&lt;br&gt;Location: 940953 - 939345" locus_tag="BO79DRAFT_166653" class="clusterblast-orf" id="dummy-3_h3_10_17"  />
</g>
<g id="a3_0018"  >
<polygon points="699,90 720,90 725,85 720,80 699,80 699,90 " style="fill:white; stroke-width:1; stroke:black; " description="&lt;b&gt;BO79DRAFT_207205&lt;/b&gt;&lt;br&gt;hypothetical protein&lt;br&gt;Location: 931268 - 929088" locus_tag="BO79DRAFT_207205" class="clusterblast-orf" id="dummy-3_h3_10_18"  />
</g>
<g id="a3_0019"  >
<polygon points="754,90 775,90 780,85 775,80 754,80 754,90 " style="fill:white; stroke-width:1; stroke:black; " description="&lt;b&gt;BO79DRAFT_188400&lt;/b&gt;&lt;br&gt;YagE family protein&lt;br&gt;Location: 926667 - 924495" locus_tag="BO79DRAFT_188400" class="clusterblast-orf" id="dummy-3_h3_10_19"  />
</g>
</svg>
