<svg xmlns="http://www.w3.org/2000/svg" xmlns:xlink="http://www.w3.org/1999/xlink" version="1.1" x="0" y="0" height="350" width="800" viewBox="0 0 800 350" preserveAspectRatio="none"  >
<g label="Query sequence" class="clusterblast-cluster"  >
<text x="5" y="20" class="clusterblast-acc"  >
Query sequence</text>
<line x1="10" y1="35" x2="778.0" y2="35" style="stroke-width:1; stroke:grey; "  />
<polygon points="0,35 5,30 16,30 16,40 5,40 0,35 " style="fill:white; stroke-width:1; stroke:black; " description="&lt;b&gt;input.path1.gene933&lt;/b&gt;&lt;br&gt;input.path1.gene933&lt;br&gt;Location: 3562623 - 3563657" locus_tag="input.path1.gene933" class="clusterblast-orf" id="knownclusterblast-4_q0_0_all"  />
<polygon points="28,35 33,30 43,30 43,40 33,40 28,35 " style="fill:white; stroke-width:1; stroke:black; " description="&lt;b&gt;input.path1.gene934&lt;/b&gt;&lt;br&gt;input.path1.gene934&lt;br&gt;Location: 3564425 - 3565324" locus_tag="input.path1.gene934" class="clusterblast-orf" id="knownclusterblast-4_q1_0_all"  />
<polygon points="87,40 105,40 110,35 105,30 87,30 87,40 " style="fill:white; stroke-width:1; stroke:black; " description="&lt;b&gt;input.path1.gene935&lt;/b&gt;&lt;br&gt;input.path1.gene935&lt;br&gt;Location: 3568095 - 3569578" locus_tag="input.path1.gene935" class="clusterblast-orf" id="knownclusterblast-4_q2_0_all"  />
<polygon points="136,35 141,30 165,30 165,40 141,40 136,35 " style="fill:white; stroke-width:1; stroke:black; " description="&lt;b&gt;input.path1.gene936&lt;/b&gt;&lt;br&gt;input.path1.gene936&lt;br&gt;Location: 3571230 - 3573033" locus_tag="input.path1.gene936" class="clusterblast-orf" id="knownclusterblast-4_q3_0_all"  />
<polygon points="166,40 166,40 171,35 166,30 166,30 166,40 " style="fill:white; stroke-width:1; stroke:black; " description="&lt;b&gt;input.path1.gene937&lt;/b&gt;&lt;br&gt;input.path1.gene937&lt;br&gt;Location: 3573088 - 3573435" locus_tag="input.path1.gene937" class="clusterblast-orf" id="knownclusterblast-4_q4_0_all"  />
<polygon points="212,40 229,40 234,35 229,30 212,30 212,40 " style="fill:#d81515; stroke-width:1; stroke:black; " description="&lt;b&gt;input.path1.gene938&lt;/b&gt;&lt;br&gt;input.path1.gene938&lt;br&gt;Location: 3575981 - 3577388" locus_tag="input.path1.gene938" class="clusterblast-orf" id="knownclusterblast-4_q5_0_all"  />
<polygon points="241,35 246,30 267,30 267,40 246,40 241,35 " style="fill:#77d815; stroke-width:1; stroke:black; " description="&lt;b&gt;input.path1.gene939&lt;/b&gt;&lt;br&gt;input.path1.gene939&lt;br&gt;Location: 3577795 - 3579468" locus_tag="input.path1.gene939" class="clusterblast-orf" id="knownclusterblast-4_q6_0_all"  />
<polygon points="277,35 282,30 296,30 296,40 282,40 277,35 " style="fill:#15d8d8; stroke-width:1; stroke:black; " description="&lt;b&gt;input.path1.gene940&lt;/b&gt;&lt;br&gt;input.path1.gene940&lt;br&gt;Location: 3580087 - 3581254" locus_tag="input.path1.gene940" class="clusterblast-orf" id="knownclusterblast-4_q7_0_all"  />
<polygon points="307,40 501,40 506,35 501,30 307,30 307,40 " style="fill:#7715d8; stroke-width:1; stroke:black; " description="&lt;b&gt;input.path1.gene941&lt;/b&gt;&lt;br&gt;input.path1.gene941&lt;br&gt;Location: 3581937 - 3594488" locus_tag="input.path1.gene941" class="clusterblast-orf" id="knownclusterblast-4_q8_0_all"  />
<polygon points="507,35 512,30 546,30 546,40 512,40 507,35 " style="fill:white; stroke-width:1; stroke:black; " description="&lt;b&gt;input.path1.gene942&lt;/b&gt;&lt;br&gt;input.path1.gene942&lt;br&gt;Location: 3594548 - 3597026" locus_tag="input.path1.gene942" class="clusterblast-orf" id="knownclusterblast-4_q9_0_all"  />
<polygon points="574,40 591,40 596,35 591,30 574,30 574,40 " style="fill:white; stroke-width:1; stroke:black; " description="&lt;b&gt;input.path1.gene943&lt;/b&gt;&lt;br&gt;input.path1.gene943&lt;br&gt;Location: 3598770 - 3600161" locus_tag="input.path1.gene943" class="clusterblast-orf" id="knownclusterblast-4_q10_0_all"  />
<polygon points="642,40 644,40 649,35 644,30 642,30 642,40 " style="fill:white; stroke-width:1; stroke:black; " description="&lt;b&gt;input.path1.gene944&lt;/b&gt;&lt;br&gt;input.path1.gene944&lt;br&gt;Location: 3603061 - 3603511" locus_tag="input.path1.gene944" class="clusterblast-orf" id="knownclusterblast-4_q11_0_all"  />
<polygon points="650,40 664,40 669,35 664,30 650,30 650,40 " style="fill:white; stroke-width:1; stroke:black; " description="&lt;b&gt;input.path1.gene945&lt;/b&gt;&lt;br&gt;input.path1.gene945&lt;br&gt;Location: 3603559 - 3604723" locus_tag="input.path1.gene945" class="clusterblast-orf" id="knownclusterblast-4_q12_0_all"  />
<polygon points="763,40 765,40 770,35 765,30 763,30 763,40 " style="fill:white; stroke-width:1; stroke:black; " description="&lt;b&gt;input.path1.gene946&lt;/b&gt;&lt;br&gt;input.path1.gene946&lt;br&gt;Location: 3610673 - 3611091" locus_tag="input.path1.gene946" class="clusterblast-orf" id="knownclusterblast-4_q13_0_all"  />
<polygon points="774,35 779,30 780,30 780,40 779,40 774,35 " style="fill:white; stroke-width:1; stroke:black; " description="&lt;b&gt;input.path1.gene947&lt;/b&gt;&lt;br&gt;input.path1.gene947&lt;br&gt;Location: 3611333 - 3611704" locus_tag="input.path1.gene947" class="clusterblast-orf" id="knownclusterblast-4_q14_0_all"  />
</g>
<g label="BGC0001049" description="BGC0001049_c1: tenellin (100% of genes show similarity), NRP+Polyketide:Iterative type I polyketide" class="clusterblast-cluster"  >
<text x="5" y="70" class="clusterblast-acc"  >
<a xlink:href="https://mibig.secondarymetabolites.org/go/BGC0001049/1" target="_blank">BGC0001049</a>: tenellin                                                                         (100% of genes show similarity), NRP+Polyketide:Iterative type I polyketide</text>
<line x1="10" y1="85" x2="778.0" y2="85" style="stroke-width:1; stroke:grey; "  />
</g>
<g id="a4_000"  >
<polygon points="237,90 258,90 263,85 258,80 237,80 237,90 " style="fill:#d81515; stroke-width:1; stroke:black; " description="&lt;b&gt;CAL69594.1&lt;/b&gt;&lt;br&gt;hypothetical protein&lt;br&gt;Location: 1 - 1653&lt;br&gt;&lt;br&gt;&lt;b&gt;BlastP hit with input.path1.gene938&lt;/b&gt;&lt;br&gt;Percentage identity: 99&lt;br&gt;Percentage coverage: 100&lt;br&gt;BLAST bit score: 890&lt;br&gt;E-value: 0.0" locus_tag="CAL69594.1" class="clusterblast-orf" id="knownclusterblast-4_all_4_1_0"  />
</g>
<g id="a4_001"  >
<polygon points="270,85 275,80 297,80 297,90 275,90 270,85 " style="fill:#77d815; stroke-width:1; stroke:black; " description="&lt;b&gt;CAL69595.1&lt;/b&gt;&lt;br&gt;hypothetical protein&lt;br&gt;Location: 2061 - 3737&lt;br&gt;&lt;br&gt;&lt;b&gt;BlastP hit with input.path1.gene939&lt;/b&gt;&lt;br&gt;Percentage identity: 85&lt;br&gt;Percentage coverage: 112&lt;br&gt;BLAST bit score: 895&lt;br&gt;E-value: 0.0" locus_tag="CAL69595.1" class="clusterblast-orf" id="knownclusterblast-4_all_4_1_1"  />
</g>
<g id="a4_002"  >
<polygon points="307,85 312,80 325,80 325,90 312,90 307,85 " style="fill:#15d8d8; stroke-width:1; stroke:black; " description="&lt;b&gt;CAL69596.1&lt;/b&gt;&lt;br&gt;hypothetical protein&lt;br&gt;Location: 4377 - 5543&lt;br&gt;&lt;br&gt;&lt;b&gt;BlastP hit with input.path1.gene940&lt;/b&gt;&lt;br&gt;Percentage identity: 99&lt;br&gt;Percentage coverage: 100&lt;br&gt;BLAST bit score: 763&lt;br&gt;E-value: 1.59e-281" locus_tag="CAL69596.1" class="clusterblast-orf" id="knownclusterblast-4_all_4_1_2"  />
</g>
<g id="a4_003"  >
<polygon points="336,90 537,90 542,85 537,80 336,80 336,90 " style="fill:#7715d8; stroke-width:1; stroke:black; " description="&lt;b&gt;CAL69597.1&lt;/b&gt;&lt;br&gt;PKS-NRPS&lt;br&gt;Location: 6225 - 19176&lt;br&gt;&lt;br&gt;&lt;b&gt;BlastP hit with input.path1.gene941&lt;/b&gt;&lt;br&gt;Percentage identity: 93&lt;br&gt;Percentage coverage: 100&lt;br&gt;BLAST bit score: 7169&lt;br&gt;E-value: 0.0" locus_tag="CAL69597.1" class="clusterblast-orf" id="knownclusterblast-4_all_4_1_3"  />
</g>
<g label="BGC0001136" description="BGC0001136_c1: desmethylbassianin (80% of genes show similarity), NRP+Polyketide:Iterative type I polyketide" class="clusterblast-cluster"  >
<text x="5" y="120" class="clusterblast-acc"  >
<a xlink:href="https://mibig.secondarymetabolites.org/go/BGC0001136/1" target="_blank">BGC0001136</a>: desmethylbassianin                                                               (80% of genes show similarity), NRP+Polyketide:Iterative type I polyketide</text>
<line x1="10" y1="135" x2="778.0" y2="135" style="stroke-width:1; stroke:grey; "  />
</g>
<g id="a4_000"  >
<polygon points="229,135 231,130 231,140 229,135 " style="fill:white; stroke-width:1; stroke:black; " description="&lt;b&gt;ADN43681.1&lt;/b&gt;&lt;br&gt;hypothetical protein&lt;br&gt;Location: 1 - 88" locus_tag="ADN43681.1" class="clusterblast-orf" id="knownclusterblast-4_all_4_2_0"  />
</g>
<g id="a4_001"  >
<polygon points="251,140 272,140 277,135 272,130 251,130 251,140 " style="fill:#d81515; stroke-width:1; stroke:black; " description="&lt;b&gt;ADN43682.1&lt;/b&gt;&lt;br&gt;P450&lt;br&gt;Location: 1334 - 2986&lt;br&gt;&lt;br&gt;&lt;b&gt;BlastP hit with input.path1.gene938&lt;/b&gt;&lt;br&gt;Percentage identity: 99&lt;br&gt;Percentage coverage: 100&lt;br&gt;BLAST bit score: 893&lt;br&gt;E-value: 0.0" locus_tag="ADN43682.1" class="clusterblast-orf" id="knownclusterblast-4_all_4_2_1"  />
</g>
<g id="a4_002"  >
<polygon points="283,135 288,130 310,130 310,140 288,140 283,135 " style="fill:#77d815; stroke-width:1; stroke:black; " description="&lt;b&gt;ADN43683.1&lt;/b&gt;&lt;br&gt;P450&lt;br&gt;Location: 3394 - 5070&lt;br&gt;&lt;br&gt;&lt;b&gt;BlastP hit with input.path1.gene939&lt;/b&gt;&lt;br&gt;Percentage identity: 85&lt;br&gt;Percentage coverage: 112&lt;br&gt;BLAST bit score: 895&lt;br&gt;E-value: 0.0" locus_tag="ADN43683.1" class="clusterblast-orf" id="knownclusterblast-4_all_4_2_2"  />
</g>
<g id="a4_003"  >
<polygon points="319,135 324,130 338,130 338,140 324,140 319,135 " style="fill:#15d8d8; stroke-width:1; stroke:black; " description="&lt;b&gt;ADN43684.1&lt;/b&gt;&lt;br&gt;ER&lt;br&gt;Location: 5654 - 6823&lt;br&gt;&lt;br&gt;&lt;b&gt;BlastP hit with input.path1.gene940&lt;/b&gt;&lt;br&gt;Percentage identity: 91&lt;br&gt;Percentage coverage: 100&lt;br&gt;BLAST bit score: 705&lt;br&gt;E-value: 1.2e-258" locus_tag="ADN43684.1" class="clusterblast-orf" id="knownclusterblast-4_all_4_2_3"  />
</g>
<g id="a4_004"  >
<polygon points="349,140 545,140 550,135 545,130 349,130 349,140 " style="fill:#7715d8; stroke-width:1; stroke:black; " description="&lt;b&gt;ADN43685.1&lt;/b&gt;&lt;br&gt;PKS-NRPS&lt;br&gt;Location: 7496 - 20147&lt;br&gt;&lt;br&gt;&lt;b&gt;BlastP hit with input.path1.gene941&lt;/b&gt;&lt;br&gt;Percentage identity: 84&lt;br&gt;Percentage coverage: 100&lt;br&gt;BLAST bit score: 6502&lt;br&gt;E-value: 0.0" locus_tag="ADN43685.1" class="clusterblast-orf" id="knownclusterblast-4_all_4_2_4"  />
</g>
<g label="BGC0001218" description="BGC0001218_c1: fumosorinone (66% of genes show similarity), NRP+Polyketide" class="clusterblast-cluster"  >
<text x="5" y="170" class="clusterblast-acc"  >
<a xlink:href="https://mibig.secondarymetabolites.org/go/BGC0001218/1" target="_blank">BGC0001218</a>: fumosorinone                                                                     (66% of genes show similarity), NRP+Polyketide</text>
<line x1="10" y1="185" x2="778.0" y2="185" style="stroke-width:1; stroke:grey; "  />
</g>
<g id="a4_000"  >
<polygon points="190,190 200,190 205,185 200,180 190,180 190,190 " style="fill:white; stroke-width:1; stroke:black; " description="&lt;b&gt;AKC54417.1&lt;/b&gt;&lt;br&gt;kinesin motor domain-containing protein&lt;br&gt;Location: 1350 - 2246" locus_tag="AKC54417.1" class="clusterblast-orf" id="knownclusterblast-4_all_4_3_0"  />
</g>
<g id="a4_001"  >
<polygon points="227,185 232,180 272,180 272,190 232,190 227,185 " style="fill:white; stroke-width:1; stroke:black; " description="&lt;b&gt;AKC54418.1&lt;/b&gt;&lt;br&gt;C6-zinc finger domain-containing protein&lt;br&gt;Location: 3671 - 6460" locus_tag="AKC54418.1" class="clusterblast-orf" id="knownclusterblast-4_all_4_3_1"  />
</g>
<g id="a4_002"  >
<polygon points="297,190 318,190 323,185 318,180 297,180 297,190 " style="fill:#d81515; stroke-width:1; stroke:black; " description="&lt;b&gt;AKC54420.1&lt;/b&gt;&lt;br&gt;cytochrome P450 monooxygenase&lt;br&gt;Location: 8023 - 9716&lt;br&gt;&lt;br&gt;&lt;b&gt;BlastP hit with input.path1.gene938&lt;/b&gt;&lt;br&gt;Percentage identity: 85&lt;br&gt;Percentage coverage: 100&lt;br&gt;BLAST bit score: 792&lt;br&gt;E-value: 1.27e-290" locus_tag="AKC54420.1" class="clusterblast-orf" id="knownclusterblast-4_all_4_3_2"  />
</g>
<g id="a4_003"  >
<polygon points="328,185 333,180 354,180 354,190 333,190 328,185 " style="fill:#77d815; stroke-width:1; stroke:black; " description="&lt;b&gt;AKC54421.1&lt;/b&gt;&lt;br&gt;cytochrome P450 monooxygenase&lt;br&gt;Location: 9990 - 11630&lt;br&gt;&lt;br&gt;&lt;b&gt;BlastP hit with input.path1.gene939&lt;/b&gt;&lt;br&gt;Percentage identity: 63&lt;br&gt;Percentage coverage: 95&lt;br&gt;BLAST bit score: 600&lt;br&gt;E-value: 2.63e-213" locus_tag="AKC54421.1" class="clusterblast-orf" id="knownclusterblast-4_all_4_3_3"  />
</g>
<g id="a4_004"  >
<polygon points="363,185 368,180 382,180 382,190 368,190 363,185 " style="fill:#15d8d8; stroke-width:1; stroke:black; " description="&lt;b&gt;AKC54419.1&lt;/b&gt;&lt;br&gt;trans enoyl-reductase&lt;br&gt;Location: 12207 - 13391&lt;br&gt;&lt;br&gt;&lt;b&gt;BlastP hit with input.path1.gene940&lt;/b&gt;&lt;br&gt;Percentage identity: 68&lt;br&gt;Percentage coverage: 99&lt;br&gt;BLAST bit score: 531&lt;br&gt;E-value: 4.63e-190" locus_tag="AKC54419.1" class="clusterblast-orf" id="knownclusterblast-4_all_4_3_4"  />
</g>
<g id="a4_005"  >
<polygon points="391,190 584,190 589,185 584,180 391,180 391,190 " style="fill:#7715d8; stroke-width:1; stroke:black; " description="&lt;b&gt;AKC54422.1&lt;/b&gt;&lt;br&gt;fumosorinone biosynthesis polyketide synthase&lt;br&gt;Location: 13982 - 26398&lt;br&gt;&lt;br&gt;&lt;b&gt;BlastP hit with input.path1.gene941&lt;/b&gt;&lt;br&gt;Percentage identity: 65&lt;br&gt;Percentage coverage: 101&lt;br&gt;BLAST bit score: 4810&lt;br&gt;E-value: 0.0" locus_tag="AKC54422.1" class="clusterblast-orf" id="knownclusterblast-4_all_4_3_5"  />
</g>
<g label="BGC0002093" description="BGC0002093_c1: ilicicolin H (50% of genes show similarity), Polyketide+NRP" class="clusterblast-cluster"  >
<text x="5" y="220" class="clusterblast-acc"  >
<a xlink:href="https://mibig.secondarymetabolites.org/go/BGC0002093/1" target="_blank">BGC0002093</a>: ilicicolin H                                                                     (50% of genes show similarity), Polyketide+NRP</text>
<line x1="10" y1="235" x2="778.0" y2="235" style="stroke-width:1; stroke:grey; "  />
</g>
<g id="a4_000"  >
<polygon points="140,235 145,230 162,230 162,240 145,240 140,235 " style="fill:white; stroke-width:1; stroke:black; " description="&lt;b&gt;QBQ83711.1&lt;/b&gt;&lt;br&gt;NADH-dependent flavin oxidoreductase&lt;br&gt;Location: 39745 - 38367" locus_tag="QBQ83711.1" class="clusterblast-orf" id="knownclusterblast-4_all_4_4_0"  />
</g>
<g id="a4_001"  >
<polygon points="180,240 193,240 198,235 193,230 180,230 180,240 " style="fill:#15d8d8; stroke-width:1; stroke:black; " description="&lt;b&gt;QBQ83710.1&lt;/b&gt;&lt;br&gt;trans-enoyl reductase&lt;br&gt;Location: 37259 - 36132&lt;br&gt;&lt;br&gt;&lt;b&gt;BlastP hit with input.path1.gene940&lt;/b&gt;&lt;br&gt;Percentage identity: 51&lt;br&gt;Percentage coverage: 99&lt;br&gt;BLAST bit score: 379&lt;br&gt;E-value: 2.2e-130" locus_tag="QBQ83710.1" class="clusterblast-orf" id="knownclusterblast-4_all_4_4_1"  />
</g>
<g id="a4_002"  >
<polygon points="207,235 212,230 233,230 233,240 212,240 207,235 " style="fill:#77d815; stroke-width:1; stroke:black; " description="&lt;b&gt;QBQ83709.1&lt;/b&gt;&lt;br&gt;cytochrome P450&lt;br&gt;Location: 35550 - 33889&lt;br&gt;&lt;br&gt;&lt;b&gt;BlastP hit with input.path1.gene939&lt;/b&gt;&lt;br&gt;Percentage identity: 50&lt;br&gt;Percentage coverage: 95&lt;br&gt;BLAST bit score: 454&lt;br&gt;E-value: 4.73e-156" locus_tag="QBQ83709.1" class="clusterblast-orf" id="knownclusterblast-4_all_4_4_2"  />
</g>
<g id="a4_003"  >
<polygon points="241,240 251,240 256,235 251,230 241,230 241,240 " style="fill:white; stroke-width:1; stroke:black; " description="&lt;b&gt;QBQ83708.1&lt;/b&gt;&lt;br&gt;Diels-Alderase&lt;br&gt;Location: 33408 - 32464" locus_tag="QBQ83708.1" class="clusterblast-orf" id="knownclusterblast-4_all_4_4_3"  />
</g>
<g id="a4_004"  >
<polygon points="260,235 265,230 285,230 285,240 265,240 260,235 " style="fill:white; stroke-width:1; stroke:black; " description="&lt;b&gt;QBQ83707.1&lt;/b&gt;&lt;br&gt;epimerase&lt;br&gt;Location: 32208 - 30654" locus_tag="QBQ83707.1" class="clusterblast-orf" id="knownclusterblast-4_all_4_4_4"  />
</g>
<g id="a4_005"  >
<polygon points="293,240 307,240 312,235 307,230 293,230 293,240 " style="fill:white; stroke-width:1; stroke:black; " description="&lt;b&gt;QBQ83706.1&lt;/b&gt;&lt;br&gt;short-chain dehydrogenase TIC 32&lt;br&gt;Location: 30159 - 28927" locus_tag="QBQ83706.1" class="clusterblast-orf" id="knownclusterblast-4_all_4_4_5"  />
</g>
<g id="a4_006"  >
<polygon points="401,235 406,230 427,230 427,240 406,240 401,235 " style="fill:#d81515; stroke-width:1; stroke:black; " description="&lt;b&gt;QBQ83705.1&lt;/b&gt;&lt;br&gt;ring expansion P450&lt;br&gt;Location: 23336 - 21712&lt;br&gt;&lt;br&gt;&lt;b&gt;BlastP hit with input.path1.gene938&lt;/b&gt;&lt;br&gt;Percentage identity: 71&lt;br&gt;Percentage coverage: 99&lt;br&gt;BLAST bit score: 643&lt;br&gt;E-value: 1.19e-231" locus_tag="QBQ83705.1" class="clusterblast-orf" id="knownclusterblast-4_all_4_4_6"  />
</g>
<g id="a4_007"  >
<polygon points="447,240 634,240 639,235 634,230 447,230 447,240 " style="fill:#7715d8; stroke-width:1; stroke:black; " description="&lt;b&gt;QBQ83704.1&lt;/b&gt;&lt;br&gt;polyketide synthase-nonribosomal peptide synthetase&lt;br&gt;Location: 20470 - 8376&lt;br&gt;&lt;br&gt;&lt;b&gt;BlastP hit with input.path1.gene941&lt;/b&gt;&lt;br&gt;Percentage identity: 51&lt;br&gt;Percentage coverage: 100&lt;br&gt;BLAST bit score: 3776&lt;br&gt;E-value: 0.0" locus_tag="QBQ83704.1" class="clusterblast-orf" id="knownclusterblast-4_all_4_4_7"  />
</g>
<g label="BGC0002035" description="BGC0002035_c1: ilicicolin H/ilicicolin J/8-epi-ilicicolin H (60% of genes show similarity), NRP+Polyketide" class="clusterblast-cluster"  >
<text x="5" y="270" class="clusterblast-acc"  >
<a xlink:href="https://mibig.secondarymetabolites.org/go/BGC0002035/1" target="_blank">BGC0002035</a>: ilicicolin H/ilicicolin J/8-epi-ilicicolin H                                     (60% of genes show similarity), NRP+Polyketide</text>
<line x1="10" y1="285" x2="778.0" y2="285" style="stroke-width:1; stroke:grey; "  />
</g>
<g id="a4_000"  >
<polygon points="229,285 234,280 253,280 253,290 234,290 229,285 " style="fill:#d81515; stroke-width:1; stroke:black; " description="&lt;b&gt;iliC&lt;/b&gt;&lt;br&gt;&lt;br&gt;Location: 21596 - 20060&lt;br&gt;&lt;br&gt;&lt;b&gt;BlastP hit with input.path1.gene938&lt;/b&gt;&lt;br&gt;Percentage identity: 63&lt;br&gt;Percentage coverage: 86&lt;br&gt;BLAST bit score: 513&lt;br&gt;E-value: 2.05e-181" locus_tag="iliC" class="clusterblast-orf" id="knownclusterblast-4_all_4_5_0"  />
</g>
<g id="a4_001"  >
<polygon points="265,290 285,290 290,285 285,280 265,280 265,290 " style="fill:white; stroke-width:1; stroke:black; " description="&lt;b&gt;iliD&lt;/b&gt;&lt;br&gt;&lt;br&gt;Location: 19345 - 17760" locus_tag="iliD" class="clusterblast-orf" id="knownclusterblast-4_all_4_5_1"  />
</g>
<g id="a4_002"  >
<polygon points="292,285 297,280 310,280 310,290 297,290 292,285 " style="fill:#15d8d8; stroke-width:1; stroke:black; " description="&lt;b&gt;iliB&lt;/b&gt;&lt;br&gt;&lt;br&gt;Location: 17614 - 16469&lt;br&gt;&lt;br&gt;&lt;b&gt;BlastP hit with input.path1.gene940&lt;/b&gt;&lt;br&gt;Percentage identity: 52&lt;br&gt;Percentage coverage: 101&lt;br&gt;BLAST bit score: 382&lt;br&gt;E-value: 3.32e-131" locus_tag="iliB" class="clusterblast-orf" id="knownclusterblast-4_all_4_5_2"  />
</g>
<g id="a4_003"  >
<polygon points="324,290 513,290 518,285 513,280 324,280 324,290 " style="fill:#7715d8; stroke-width:1; stroke:black; " description="&lt;b&gt;iliA&lt;/b&gt;&lt;br&gt;&lt;br&gt;Location: 15590 - 3426&lt;br&gt;&lt;br&gt;&lt;b&gt;BlastP hit with input.path1.gene941&lt;/b&gt;&lt;br&gt;Percentage identity: 52&lt;br&gt;Percentage coverage: 100&lt;br&gt;BLAST bit score: 3864&lt;br&gt;E-value: 0.0" locus_tag="iliA" class="clusterblast-orf" id="knownclusterblast-4_all_4_5_3"  />
</g>
<g id="a4_004"  >
<polygon points="522,290 545,290 550,285 545,280 522,280 522,290 " style="fill:white; stroke-width:1; stroke:black; " description="&lt;b&gt;iliE&lt;/b&gt;&lt;br&gt;&lt;br&gt;Location: 3141 - 1396" locus_tag="iliE" class="clusterblast-orf" id="knownclusterblast-4_all_4_5_4"  />
</g>
<g label="BGC0000968" description="BGC0000968_c1: chaetoglobosin A/chaetoglobosin C (28% of genes show similarity), NRP+Polyketide:Iterative type I polyketide" class="clusterblast-cluster"  >
<text x="5" y="320" class="clusterblast-acc"  >
<a xlink:href="https://mibig.secondarymetabolites.org/go/BGC0000968/1" target="_blank">BGC0000968</a>: chaetoglobosin A/chaetoglobosin C                                                (28% of genes show similarity), NRP+Polyketide:Iterative type I polyketide</text>
<line x1="10" y1="335" x2="778.0" y2="335" style="stroke-width:1; stroke:grey; "  />
</g>
<g id="a4_000"  >
<polygon points="183,340 204,340 209,335 204,330 183,330 183,340 " style="fill:#d81515; stroke-width:1; stroke:black; " description="&lt;b&gt;CAO91865.1&lt;/b&gt;&lt;br&gt;putative monooxygenase&lt;br&gt;Location: 25930 - 24298&lt;br&gt;&lt;br&gt;&lt;b&gt;BlastP hit with input.path1.gene938&lt;/b&gt;&lt;br&gt;Percentage identity: 54&lt;br&gt;Percentage coverage: 101&lt;br&gt;BLAST bit score: 477&lt;br&gt;E-value: 4.31e-166" locus_tag="CAO91865.1" class="clusterblast-orf" id="knownclusterblast-4_all_4_6_0"  />
</g>
<g id="a4_001"  >
<polygon points="218,340 252,340 257,335 252,330 218,330 218,340 " style="fill:white; stroke-width:1; stroke:black; " description="&lt;b&gt;CAO91864.1&lt;/b&gt;&lt;br&gt;putative transcription factor&lt;br&gt;Location: 23755 - 21322" locus_tag="CAO91864.1" class="clusterblast-orf" id="knownclusterblast-4_all_4_6_1"  />
</g>
<g id="a4_002"  >
<polygon points="258,335 263,330 290,330 290,340 263,340 258,335 " style="fill:white; stroke-width:1; stroke:black; " description="&lt;b&gt;CAO91863.1&lt;/b&gt;&lt;br&gt;putative monooxygenase&lt;br&gt;Location: 21209 - 19231" locus_tag="CAO91863.1" class="clusterblast-orf" id="knownclusterblast-4_all_4_6_2"  />
</g>
<g id="a4_003"  >
<polygon points="297,340 323,340 328,335 323,330 297,330 297,340 " style="fill:white; stroke-width:1; stroke:black; " description="&lt;b&gt;CAO91862.1&lt;/b&gt;&lt;br&gt;putative monooxygenase&lt;br&gt;Location: 18776 - 16833" locus_tag="CAO91862.1" class="clusterblast-orf" id="knownclusterblast-4_all_4_6_3"  />
</g>
<g id="a4_004"  >
<polygon points="337,335 342,330 529,330 529,340 342,340 337,335 " style="fill:white; stroke-width:1; stroke:black; " description="&lt;b&gt;CAO91861.1&lt;/b&gt;&lt;br&gt;PKS-NRPS hybrid&lt;br&gt;Location: 16239 - 4198" locus_tag="CAO91861.1" class="clusterblast-orf" id="knownclusterblast-4_all_4_6_4"  />
</g>
<g id="a4_005"  >
<polygon points="537,340 551,340 556,335 551,330 537,330 537,340 " style="fill:#15d8d8; stroke-width:1; stroke:black; " description="&lt;b&gt;CAO91860.1&lt;/b&gt;&lt;br&gt;putative enoyl reductase&lt;br&gt;Location: 3661 - 2478&lt;br&gt;&lt;br&gt;&lt;b&gt;BlastP hit with input.path1.gene940&lt;/b&gt;&lt;br&gt;Percentage identity: 49&lt;br&gt;Percentage coverage: 98&lt;br&gt;BLAST bit score: 314&lt;br&gt;E-value: 4.23e-105" locus_tag="CAO91860.1" class="clusterblast-orf" id="knownclusterblast-4_all_4_6_5"  />
</g>
<g id="a4_006"  >
<polygon points="561,335 566,330 596,330 596,340 566,340 561,335 " style="fill:white; stroke-width:1; stroke:black; " description="&lt;b&gt;CAO91859.1&lt;/b&gt;&lt;br&gt;putative transcription factor&lt;br&gt;Location: 2204 - 1" locus_tag="CAO91859.1" class="clusterblast-orf" id="knownclusterblast-4_all_4_6_6"  />
</g>
</svg>
