<svg xmlns="http://www.w3.org/2000/svg" xmlns:xlink="http://www.w3.org/1999/xlink" version="1.1" x="0" y="0" height="50" width="800" viewBox="0 0 800 50" preserveAspectRatio="none"  >
<g label="Query sequence" class="clusterblast-cluster"  >
<text x="5" y="20" class="clusterblast-acc"  >
Query sequence</text>
<line x1="10" y1="35" x2="778.0" y2="35" style="stroke-width:1; stroke:grey; "  />
<polygon points="0,35 5,30 32,30 32,40 5,40 0,35 " style="fill:white; stroke-width:1; stroke:black; " description="&lt;b&gt;input.path1.gene173&lt;/b&gt;&lt;br&gt;input.path1.gene173&lt;br&gt;Location: 601327 - 603346" locus_tag="input.path1.gene173" class="clusterblast-orf" id="subclusterblast-3_q0_0_all"  />
<polygon points="110,40 120,40 125,35 120,30 110,30 110,40 " style="fill:white; stroke-width:1; stroke:black; " description="&lt;b&gt;input.path1.gene174&lt;/b&gt;&lt;br&gt;input.path1.gene174&lt;br&gt;Location: 608331 - 609234" locus_tag="input.path1.gene174" class="clusterblast-orf" id="subclusterblast-3_q1_0_all"  />
<polygon points="226,40 241,40 246,35 241,30 226,30 226,40 " style="fill:white; stroke-width:1; stroke:black; " description="&lt;b&gt;input.path1.gene175&lt;/b&gt;&lt;br&gt;input.path1.gene175&lt;br&gt;Location: 615635 - 616872" locus_tag="input.path1.gene175" class="clusterblast-orf" id="subclusterblast-3_q2_0_all"  />
<polygon points="280,35 285,30 287,30 287,40 285,40 280,35 " style="fill:white; stroke-width:1; stroke:black; " description="&lt;b&gt;input.path1.gene176&lt;/b&gt;&lt;br&gt;input.path1.gene176&lt;br&gt;Location: 619050 - 619503" locus_tag="input.path1.gene176" class="clusterblast-orf" id="subclusterblast-3_q3_0_all"  />
<polygon points="290,40 295,40 300,35 295,30 290,30 290,40 " style="fill:white; stroke-width:1; stroke:black; " description="&lt;b&gt;input.path1.gene177&lt;/b&gt;&lt;br&gt;input.path1.gene177&lt;br&gt;Location: 619676 - 620300" locus_tag="input.path1.gene177" class="clusterblast-orf" id="subclusterblast-3_q4_0_all"  />
<polygon points="318,40 386,40 391,35 386,30 318,30 318,40 " style="fill:white; stroke-width:1; stroke:black; " description="&lt;b&gt;input.path1.gene178&lt;/b&gt;&lt;br&gt;input.path1.gene178&lt;br&gt;Location: 621452 - 626033" locus_tag="input.path1.gene178" class="clusterblast-orf" id="subclusterblast-3_q5_0_all"  />
<polygon points="417,35 422,30 447,30 447,40 422,40 417,35 " style="fill:white; stroke-width:1; stroke:black; " description="&lt;b&gt;input.path1.gene179&lt;/b&gt;&lt;br&gt;input.path1.gene179&lt;br&gt;Location: 627675 - 629605" locus_tag="input.path1.gene179" class="clusterblast-orf" id="subclusterblast-3_q6_0_all"  />
<polygon points="459,40 467,40 472,35 467,30 459,30 459,40 " style="fill:white; stroke-width:1; stroke:black; " description="&lt;b&gt;input.path1.gene180&lt;/b&gt;&lt;br&gt;input.path1.gene180&lt;br&gt;Location: 630340 - 631185" locus_tag="input.path1.gene180" class="clusterblast-orf" id="subclusterblast-3_q7_0_all"  />
<polygon points="515,35 520,30 543,30 543,40 520,40 515,35 " style="fill:white; stroke-width:1; stroke:black; " description="&lt;b&gt;input.path1.gene181&lt;/b&gt;&lt;br&gt;input.path1.gene181&lt;br&gt;Location: 633910 - 635666" locus_tag="input.path1.gene181" class="clusterblast-orf" id="subclusterblast-3_q8_0_all"  />
<polygon points="559,35 564,30 597,30 597,40 564,40 559,35 " style="fill:white; stroke-width:1; stroke:black; " description="&lt;b&gt;input.path1.gene182&lt;/b&gt;&lt;br&gt;input.path1.gene182&lt;br&gt;Location: 636656 - 639052" locus_tag="input.path1.gene182" class="clusterblast-orf" id="subclusterblast-3_q9_0_all"  />
<polygon points="599,40 617,40 622,35 617,30 599,30 599,40 " style="fill:white; stroke-width:1; stroke:black; " description="&lt;b&gt;input.path1.gene183&lt;/b&gt;&lt;br&gt;input.path1.gene183&lt;br&gt;Location: 639204 - 640636" locus_tag="input.path1.gene183" class="clusterblast-orf" id="subclusterblast-3_q10_0_all"  />
<polygon points="682,40 694,40 699,35 694,30 682,30 682,40 " style="fill:white; stroke-width:1; stroke:black; " description="&lt;b&gt;input.path1.gene184&lt;/b&gt;&lt;br&gt;input.path1.gene184&lt;br&gt;Location: 644478 - 645516" locus_tag="input.path1.gene184" class="clusterblast-orf" id="subclusterblast-3_q11_0_all"  />
<polygon points="705,35 710,30 719,30 719,40 710,40 705,35 " style="fill:white; stroke-width:1; stroke:black; " description="&lt;b&gt;input.path1.gene185&lt;/b&gt;&lt;br&gt;input.path1.gene185&lt;br&gt;Location: 645902 - 646765" locus_tag="input.path1.gene185" class="clusterblast-orf" id="subclusterblast-3_q12_0_all"  />
<polygon points="737,35 742,30 780,30 780,40 742,40 737,35 " style="fill:white; stroke-width:1; stroke:black; " description="&lt;b&gt;input.path1.gene186&lt;/b&gt;&lt;br&gt;input.path1.gene186&lt;br&gt;Location: 647904 - 650621" locus_tag="input.path1.gene186" class="clusterblast-orf" id="subclusterblast-3_q13_0_all"  />
</g>
</svg>
