<svg xmlns="http://www.w3.org/2000/svg" xmlns:xlink="http://www.w3.org/1999/xlink" version="1.1" x="0" y="0" height="230" width="800" viewBox="0 0 800 230" preserveAspectRatio="none"  >
<g label="Query sequence" class="clusterblast-cluster"  >
<text x="5" y="20" class="clusterblast-acc"  >
Query sequence</text>
<line x1="10" y1="35" x2="778.0" y2="35" style="stroke-width:1; stroke:grey; "  />
<polygon points="209,35 214,30 217,30 217,40 214,40 209,35 " style="fill:white; stroke-width:1; stroke:black; " description="&lt;b&gt;input.path1.gene1&lt;/b&gt;&lt;br&gt;input.path1.gene1&lt;br&gt;Location: 1310 - 2185" locus_tag="input.path1.gene1" class="clusterblast-orf" id="dummy-1_q0_0_all"  />
<polygon points="240,35 245,30 302,30 302,40 245,40 240,35 " style="fill:#d81515; stroke-width:1; stroke:black; " description="&lt;b&gt;input.path1.gene2&lt;/b&gt;&lt;br&gt;input.path1.gene2&lt;br&gt;Location: 4787 - 11724" locus_tag="input.path1.gene2" class="clusterblast-orf" id="dummy-1_q1_0_all"  />
<polygon points="309,35 314,30 322,30 322,40 314,40 309,35 " style="fill:#15d863; stroke-width:1; stroke:black; " description="&lt;b&gt;input.path1.gene3&lt;/b&gt;&lt;br&gt;input.path1.gene3&lt;br&gt;Location: 12519 - 13948" locus_tag="input.path1.gene3" class="clusterblast-orf" id="dummy-1_q2_0_all"  />
<polygon points="325,40 328,40 333,35 328,30 325,30 325,40 " style="fill:white; stroke-width:1; stroke:black; " description="&lt;b&gt;input.path1.gene4&lt;/b&gt;&lt;br&gt;input.path1.gene4&lt;br&gt;Location: 14357 - 15263" locus_tag="input.path1.gene4" class="clusterblast-orf" id="dummy-1_q3_0_all"  />
<polygon points="346,35 351,30 352,30 352,40 351,40 346,35 " style="fill:white; stroke-width:1; stroke:black; " description="&lt;b&gt;input.path1.gene5&lt;/b&gt;&lt;br&gt;input.path1.gene5&lt;br&gt;Location: 16722 - 17340" locus_tag="input.path1.gene5" class="clusterblast-orf" id="dummy-1_q4_0_all"  />
<polygon points="356,40 395,40 400,35 395,30 356,30 356,40 " style="fill:#1563d8; stroke-width:1; stroke:black; " description="&lt;b&gt;input.path1.gene6&lt;/b&gt;&lt;br&gt;input.path1.gene6&lt;br&gt;Location: 17799 - 22791" locus_tag="input.path1.gene6" class="clusterblast-orf" id="dummy-1_q5_0_all"  />
<polygon points="406,40 410,40 415,35 410,30 406,30 406,40 " style="fill:white; stroke-width:1; stroke:black; " description="&lt;b&gt;input.path1.gene7&lt;/b&gt;&lt;br&gt;input.path1.gene7&lt;br&gt;Location: 23449 - 24477" locus_tag="input.path1.gene7" class="clusterblast-orf" id="dummy-1_q6_0_all"  />
<polygon points="440,40 445,40 450,35 445,30 440,30 440,40 " style="fill:#b115d8; stroke-width:1; stroke:black; " description="&lt;b&gt;input.path1.gene8&lt;/b&gt;&lt;br&gt;input.path1.gene8&lt;br&gt;Location: 27311 - 28407" locus_tag="input.path1.gene8" class="clusterblast-orf" id="dummy-1_q7_0_all"  />
<polygon points="451,35 456,30 482,30 482,40 456,40 451,35 " style="fill:#b1d815; stroke-width:1; stroke:black; " description="&lt;b&gt;input.path1.gene9&lt;/b&gt;&lt;br&gt;input.path1.gene9&lt;br&gt;Location: 28527 - 32001" locus_tag="input.path1.gene9" class="clusterblast-orf" id="dummy-1_q8_0_all"  />
<polygon points="534,40 551,40 556,35 551,30 534,30 534,40 " style="fill:white; stroke-width:1; stroke:black; " description="&lt;b&gt;input.path1.gene10&lt;/b&gt;&lt;br&gt;input.path1.gene10&lt;br&gt;Location: 37824 - 40338" locus_tag="input.path1.gene10" class="clusterblast-orf" id="dummy-1_q9_0_all"  />
<polygon points="560,35 565,30 570,30 570,40 565,40 560,35 " style="fill:white; stroke-width:1; stroke:black; " description="&lt;b&gt;input.path1.gene11&lt;/b&gt;&lt;br&gt;input.path1.gene11&lt;br&gt;Location: 40814 - 41909" locus_tag="input.path1.gene11" class="clusterblast-orf" id="dummy-1_q10_0_all"  />
</g>
<g label="NW_020291816" description="NW_020291816 (340965-433020): Aspergillus costaricaensis CBS 115574 unplaced ... (14% of genes show similarity), NRPS,T1PKS" class="clusterblast-cluster"  >
<text x="5" y="70" class="clusterblast-acc"  >
<a xlink:href="https://antismash-db.secondarymetabolites.org/area?record=NW_020291816&amp;start=340965&amp;end=433020" target="_blank">NW_020291816 (340965-433020)</a>: Aspergillus costaricaensis CBS 115574 unplaced ... (14% of genes show similarity), NRPS,T1PKS</text>
<line x1="10" y1="85" x2="778.0" y2="85" style="stroke-width:1; stroke:grey; "  />
</g>
<g id="a1_000"  >
<polygon points="0,90 12,90 17,85 12,80 0,80 0,90 " style="fill:white; stroke-width:1; stroke:black; " description="&lt;b&gt;BO79DRAFT_228637&lt;/b&gt;&lt;br&gt;hypothetical protein&lt;br&gt;Location: 430281 - 428358" locus_tag="BO79DRAFT_228637" class="clusterblast-orf" id="dummy-1_h1_3_0"  />
</g>
<g id="a1_001"  >
<polygon points="19,90 28,90 33,85 28,80 19,80 19,90 " style="fill:white; stroke-width:1; stroke:black; " description="&lt;b&gt;BO79DRAFT_265936&lt;/b&gt;&lt;br&gt;acetylglutamate kinase&lt;br&gt;Location: 428041 - 426536" locus_tag="BO79DRAFT_265936" class="clusterblast-orf" id="dummy-1_h1_3_1"  />
</g>
<g id="a1_002"  >
<polygon points="40,85 45,80 45,80 45,90 45,90 40,85 " style="fill:white; stroke-width:1; stroke:black; " description="&lt;b&gt;BO79DRAFT_265935&lt;/b&gt;&lt;br&gt;UBC-like protein&lt;br&gt;Location: 425764 - 425186" locus_tag="BO79DRAFT_265935" class="clusterblast-orf" id="dummy-1_h1_3_2"  />
</g>
<g id="a1_003"  >
<polygon points="48,85 53,80 59,80 59,90 53,90 48,85 " style="fill:white; stroke-width:1; stroke:black; " description="&lt;b&gt;BO79DRAFT_287633&lt;/b&gt;&lt;br&gt;hypothetical protein&lt;br&gt;Location: 424795 - 423614" locus_tag="BO79DRAFT_287633" class="clusterblast-orf" id="dummy-1_h1_3_3"  />
</g>
<g id="a1_004"  >
<polygon points="72,90 72,90 77,85 72,80 72,80 72,90 " style="fill:white; stroke-width:1; stroke:black; " description="&lt;b&gt;BO79DRAFT_209150&lt;/b&gt;&lt;br&gt;isochorismatase family hydrolase&lt;br&gt;Location: 422148 - 421537" locus_tag="BO79DRAFT_209150" class="clusterblast-orf" id="dummy-1_h1_3_4"  />
</g>
<g id="a1_005"  >
<polygon points="85,90 89,90 94,85 89,80 85,80 85,90 " style="fill:white; stroke-width:1; stroke:black; " description="&lt;b&gt;BO79DRAFT_209149&lt;/b&gt;&lt;br&gt;oxidoreductase&lt;br&gt;Location: 420643 - 419588" locus_tag="BO79DRAFT_209149" class="clusterblast-orf" id="dummy-1_h1_3_5"  />
</g>
<g id="a1_006"  >
<polygon points="103,90 104,90 109,85 104,80 103,80 103,90 " style="fill:white; stroke-width:1; stroke:black; " description="&lt;b&gt;BO79DRAFT_147972&lt;/b&gt;&lt;br&gt;hypothetical protein&lt;br&gt;Location: 418621 - 417922" locus_tag="BO79DRAFT_147972" class="clusterblast-orf" id="dummy-1_h1_3_6"  />
</g>
<g id="a1_007"  >
<polygon points="126,85 131,80 135,80 135,90 131,90 126,85 " style="fill:white; stroke-width:1; stroke:black; " description="&lt;b&gt;BO79DRAFT_217911&lt;/b&gt;&lt;br&gt;hypothetical protein&lt;br&gt;Location: 416027 - 415034" locus_tag="BO79DRAFT_217911" class="clusterblast-orf" id="dummy-1_h1_3_7"  />
</g>
<g id="a1_008"  >
<polygon points="144,85 149,80 159,80 159,90 149,90 144,85 " style="fill:white; stroke-width:1; stroke:black; " description="&lt;b&gt;BO79DRAFT_265922&lt;/b&gt;&lt;br&gt;quinate permease&lt;br&gt;Location: 413966 - 412298" locus_tag="BO79DRAFT_265922" class="clusterblast-orf" id="dummy-1_h1_3_8"  />
</g>
<g id="a1_009"  >
<polygon points="167,90 167,90 172,85 167,80 167,80 167,90 " style="fill:white; stroke-width:1; stroke:black; " description="&lt;b&gt;BO79DRAFT_255258&lt;/b&gt;&lt;br&gt;hypothetical protein&lt;br&gt;Location: 411385 - 410861" locus_tag="BO79DRAFT_255258" class="clusterblast-orf" id="dummy-1_h1_3_9"  />
</g>
<g id="a1_0010"  >
<polygon points="201,85 206,80 212,80 212,90 206,90 201,85 " style="fill:white; stroke-width:1; stroke:black; " description="&lt;b&gt;BO79DRAFT_228629&lt;/b&gt;&lt;br&gt;hypothetical protein&lt;br&gt;Location: 407571 - 406295" locus_tag="BO79DRAFT_228629" class="clusterblast-orf" id="dummy-1_h1_3_10"  />
</g>
<g id="a1_0011"  >
<polygon points="222,85 227,80 231,80 231,90 227,90 222,85 " style="fill:white; stroke-width:1; stroke:black; " description="&lt;b&gt;BO79DRAFT_217907&lt;/b&gt;&lt;br&gt;hypothetical protein&lt;br&gt;Location: 405201 - 404204" locus_tag="BO79DRAFT_217907" class="clusterblast-orf" id="dummy-1_h1_3_11"  />
</g>
<g id="a1_0012"  >
<polygon points="242,90 286,90 291,85 286,80 242,80 242,90 " style="fill:#1563d8; stroke-width:1; stroke:black; " description="&lt;b&gt;BO79DRAFT_265916&lt;/b&gt;&lt;br&gt;aureobasidin A1 biosynthesis complex&lt;br&gt;Location: 403020 - 397507&lt;br&gt;&lt;br&gt;&lt;b&gt;BlastP hit with input.path1.gene6&lt;/b&gt;&lt;br&gt;Percentage identity: 33&lt;br&gt;Percentage coverage: 43&lt;br&gt;BLAST bit score: 286&lt;br&gt;E-value: 1.41e-76" locus_tag="BO79DRAFT_265916" class="clusterblast-orf" id="dummy-1_h1_3_12"  />
</g>
<g id="a1_0013"  >
<polygon points="296,85 301,80 316,80 316,90 301,90 296,85 " style="fill:white; stroke-width:1; stroke:black; " description="&lt;b&gt;BO79DRAFT_173383&lt;/b&gt;&lt;br&gt;hypothetical protein&lt;br&gt;Location: 396834 - 394588" locus_tag="BO79DRAFT_173383" class="clusterblast-orf" id="dummy-1_h1_3_13"  />
</g>
<g id="a1_0014"  >
<polygon points="361,90 371,90 376,85 371,80 361,80 361,90 " style="fill:#b115d8; stroke-width:1; stroke:black; " description="&lt;b&gt;BO79DRAFT_265908&lt;/b&gt;&lt;br&gt;cytochrome P450 monooxygenase CYP52G11&lt;br&gt;Location: 389578 - 387929&lt;br&gt;&lt;br&gt;&lt;b&gt;BlastP hit with input.path1.gene8&lt;/b&gt;&lt;br&gt;Percentage identity: 31&lt;br&gt;Percentage coverage: 58&lt;br&gt;BLAST bit score: 78&lt;br&gt;E-value: 1.49e-13" locus_tag="BO79DRAFT_265908" class="clusterblast-orf" id="dummy-1_h1_3_14"  />
</g>
<g id="a1_0015"  >
<polygon points="381,85 386,80 396,80 396,90 386,90 381,85 " style="fill:white; stroke-width:1; stroke:black; " description="&lt;b&gt;BO79DRAFT_255252&lt;/b&gt;&lt;br&gt;hypothetical protein&lt;br&gt;Location: 387333 - 385619" locus_tag="BO79DRAFT_255252" class="clusterblast-orf" id="dummy-1_h1_3_15"  />
</g>
<g id="a1_0016"  >
<polygon points="405,90 405,90 410,85 405,80 405,80 405,90 " style="fill:white; stroke-width:1; stroke:black; " description="&lt;b&gt;BO79DRAFT_255251&lt;/b&gt;&lt;br&gt;hypothetical protein&lt;br&gt;Location: 384633 - 384020" locus_tag="BO79DRAFT_255251" class="clusterblast-orf" id="dummy-1_h1_3_16"  />
</g>
<g id="a1_0017"  >
<polygon points="420,85 425,80 526,80 526,90 425,90 420,85 " style="fill:#d81515; stroke-width:1; stroke:black; " description="&lt;b&gt;BO79DRAFT_255250&lt;/b&gt;&lt;br&gt;hybrid NRPS/PKS enzyme&lt;br&gt;Location: 382905 - 370966&lt;br&gt;&lt;br&gt;&lt;b&gt;BlastP hit with input.path1.gene2&lt;/b&gt;&lt;br&gt;Percentage identity: 55&lt;br&gt;Percentage coverage: 58&lt;br&gt;BLAST bit score: 1167&lt;br&gt;E-value: 0.0" locus_tag="BO79DRAFT_255250" class="clusterblast-orf" id="dummy-1_h1_3_17"  />
</g>
<g id="a1_0018"  >
<polygon points="546,90 551,90 556,85 551,80 546,80 546,90 " style="fill:#15d863; stroke-width:1; stroke:black; " description="&lt;b&gt;BO79DRAFT_255249&lt;/b&gt;&lt;br&gt;alcohol dehydrogenase&lt;br&gt;Location: 368738 - 367656&lt;br&gt;&lt;br&gt;&lt;b&gt;BlastP hit with input.path1.gene3&lt;/b&gt;&lt;br&gt;Percentage identity: 43&lt;br&gt;Percentage coverage: 101&lt;br&gt;BLAST bit score: 294&lt;br&gt;E-value: 1.01e-95" locus_tag="BO79DRAFT_255249" class="clusterblast-orf" id="dummy-1_h1_3_18"  />
</g>
<g id="a1_0019"  >
<polygon points="569,90 572,85 569,80 569,90 " style="fill:white; stroke-width:1; stroke:black; " description="&lt;b&gt;BO79DRAFT_209148&lt;/b&gt;&lt;br&gt;hypothetical protein&lt;br&gt;Location: 366103 - 365801" locus_tag="BO79DRAFT_209148" class="clusterblast-orf" id="dummy-1_h1_3_19"  />
</g>
<g id="a1_0020"  >
<polygon points="579,85 584,80 585,80 585,90 584,90 579,85 " style="fill:white; stroke-width:1; stroke:black; " description="&lt;b&gt;BO79DRAFT_287628&lt;/b&gt;&lt;br&gt;hypothetical protein&lt;br&gt;Location: 365027 - 364325" locus_tag="BO79DRAFT_287628" class="clusterblast-orf" id="dummy-1_h1_3_20"  />
</g>
<g id="a1_0021"  >
<polygon points="602,90 613,90 618,85 613,80 602,80 602,90 " style="fill:white; stroke-width:1; stroke:black; " description="&lt;b&gt;BO79DRAFT_245492&lt;/b&gt;&lt;br&gt;sugar transport protein&lt;br&gt;Location: 362388 - 360651" locus_tag="BO79DRAFT_245492" class="clusterblast-orf" id="dummy-1_h1_3_21"  />
</g>
<g id="a1_0022"  >
<polygon points="625,85 630,80 636,80 636,90 630,90 625,85 " style="fill:white; stroke-width:1; stroke:black; " description="&lt;b&gt;BO79DRAFT_265903&lt;/b&gt;&lt;br&gt;taurine dioxygenase family protein&lt;br&gt;Location: 359824 - 358601" locus_tag="BO79DRAFT_265903" class="clusterblast-orf" id="dummy-1_h1_3_22"  />
</g>
<g id="a1_0023"  >
<polygon points="646,85 651,80 656,80 656,90 651,90 646,85 " style="fill:white; stroke-width:1; stroke:black; " description="&lt;b&gt;BO79DRAFT_195119&lt;/b&gt;&lt;br&gt;hypothetical protein&lt;br&gt;Location: 357439 - 356290" locus_tag="BO79DRAFT_195119" class="clusterblast-orf" id="dummy-1_h1_3_23"  />
</g>
<g id="a1_0024"  >
<polygon points="663,85 668,80 680,80 680,90 668,90 663,85 " style="fill:white; stroke-width:1; stroke:black; " description="&lt;b&gt;BO79DRAFT_195115&lt;/b&gt;&lt;br&gt;hypothetical protein&lt;br&gt;Location: 355564 - 353625" locus_tag="BO79DRAFT_195115" class="clusterblast-orf" id="dummy-1_h1_3_24"  />
</g>
<g id="a1_0025"  >
<polygon points="707,85 712,80 727,80 727,90 712,90 707,85 " style="fill:white; stroke-width:1; stroke:black; " description="&lt;b&gt;BO79DRAFT_265892&lt;/b&gt;&lt;br&gt;phenylalanine ammonia-lyase&lt;br&gt;Location: 350594 - 348297" locus_tag="BO79DRAFT_265892" class="clusterblast-orf" id="dummy-1_h1_3_25"  />
</g>
<g id="a1_0026"  >
<polygon points="768,85 773,80 780,80 780,90 773,90 768,85 " style="fill:white; stroke-width:1; stroke:black; " description="&lt;b&gt;BO79DRAFT_16992&lt;/b&gt;&lt;br&gt;hypothetical protein&lt;br&gt;Location: 343724 - 342435" locus_tag="BO79DRAFT_16992" class="clusterblast-orf" id="dummy-1_h1_3_26"  />
</g>
</svg>
