<svg xmlns="http://www.w3.org/2000/svg" xmlns:xlink="http://www.w3.org/1999/xlink" version="1.1" x="0" y="0" height="230" width="800" viewBox="0 0 800 230" preserveAspectRatio="none"  >
<g label="Query sequence" class="clusterblast-cluster"  >
<text x="5" y="20" class="clusterblast-acc"  >
Query sequence</text>
<line x1="10" y1="35" x2="778.0" y2="35" style="stroke-width:1; stroke:grey; "  />
<polygon points="177,35 182,30 188,30 188,40 182,40 177,35 " style="fill:#d81515; stroke-width:1; stroke:black; " description="&lt;b&gt;input.path1.gene293&lt;/b&gt;&lt;br&gt;input.path1.gene293&lt;br&gt;Location: 1097473 - 1098883" locus_tag="input.path1.gene293" class="clusterblast-orf" id="dummy-2_q0_0_all"  />
<polygon points="195,40 201,40 206,35 201,30 195,30 195,40 " style="fill:#15d815; stroke-width:1; stroke:black; " description="&lt;b&gt;input.path1.gene294&lt;/b&gt;&lt;br&gt;input.path1.gene294&lt;br&gt;Location: 1099723 - 1101091" locus_tag="input.path1.gene294" class="clusterblast-orf" id="dummy-2_q1_0_all"  />
<polygon points="206,35 211,30 218,30 218,40 211,40 206,35 " style="fill:#1515d8; stroke-width:1; stroke:black; " description="&lt;b&gt;input.path1.gene295&lt;/b&gt;&lt;br&gt;input.path1.gene295&lt;br&gt;Location: 1101196 - 1102696" locus_tag="input.path1.gene295" class="clusterblast-orf" id="dummy-2_q2_0_all"  />
<polygon points="223,35 228,30 235,30 235,40 228,40 223,35 " style="fill:#1515d8; stroke-width:1; stroke:black; " description="&lt;b&gt;input.path1.gene296&lt;/b&gt;&lt;br&gt;input.path1.gene296&lt;br&gt;Location: 1103301 - 1104873" locus_tag="input.path1.gene296" class="clusterblast-orf" id="dummy-2_q3_0_all"  />
<polygon points="252,35 257,30 261,30 261,40 257,40 252,35 " style="fill:#d81515; stroke-width:1; stroke:black; " description="&lt;b&gt;input.path1.gene297&lt;/b&gt;&lt;br&gt;input.path1.gene297&lt;br&gt;Location: 1107011 - 1108185" locus_tag="input.path1.gene297" class="clusterblast-orf" id="dummy-2_q4_0_all"  />
<polygon points="268,40 278,40 283,35 278,30 268,30 268,40 " style="fill:#d815d8; stroke-width:1; stroke:black; " description="&lt;b&gt;input.path1.gene298&lt;/b&gt;&lt;br&gt;input.path1.gene298&lt;br&gt;Location: 1109044 - 1111006" locus_tag="input.path1.gene298" class="clusterblast-orf" id="dummy-2_q5_0_all"  />
<polygon points="295,35 300,30 319,30 319,40 300,40 295,35 " style="fill:#d8d815; stroke-width:1; stroke:black; " description="&lt;b&gt;input.path1.gene299&lt;/b&gt;&lt;br&gt;input.path1.gene299&lt;br&gt;Location: 1112496 - 1115636" locus_tag="input.path1.gene299" class="clusterblast-orf" id="dummy-2_q6_0_all"  />
<polygon points="323,40 443,40 448,35 443,30 323,30 323,40 " style="fill:#15d8d8; stroke-width:1; stroke:black; " description="&lt;b&gt;input.path1.gene300&lt;/b&gt;&lt;br&gt;input.path1.gene300&lt;br&gt;Location: 1116188 - 1132152" locus_tag="input.path1.gene300" class="clusterblast-orf" id="dummy-2_q7_0_all"  />
<polygon points="451,35 456,30 467,30 467,40 456,40 451,35 " style="fill:white; stroke-width:1; stroke:black; " description="&lt;b&gt;input.path1.gene301&lt;/b&gt;&lt;br&gt;input.path1.gene301&lt;br&gt;Location: 1132513 - 1134543" locus_tag="input.path1.gene301" class="clusterblast-orf" id="dummy-2_q8_0_all"  />
<polygon points="472,40 493,40 498,35 493,30 472,30 472,40 " style="fill:white; stroke-width:1; stroke:black; " description="&lt;b&gt;input.path1.gene302&lt;/b&gt;&lt;br&gt;input.path1.gene302&lt;br&gt;Location: 1135202 - 1138538" locus_tag="input.path1.gene302" class="clusterblast-orf" id="dummy-2_q9_0_all"  />
<polygon points="502,35 507,30 512,30 512,40 507,40 502,35 " style="fill:white; stroke-width:1; stroke:black; " description="&lt;b&gt;input.path1.gene303&lt;/b&gt;&lt;br&gt;input.path1.gene303&lt;br&gt;Location: 1139039 - 1140347" locus_tag="input.path1.gene303" class="clusterblast-orf" id="dummy-2_q10_0_all"  />
<polygon points="516,40 521,40 526,35 521,30 516,30 516,40 " style="fill:white; stroke-width:1; stroke:black; " description="&lt;b&gt;input.path1.gene304&lt;/b&gt;&lt;br&gt;input.path1.gene304&lt;br&gt;Location: 1140922 - 1142225" locus_tag="input.path1.gene304" class="clusterblast-orf" id="dummy-2_q11_0_all"  />
<polygon points="567,35 572,30 586,30 586,40 572,40 567,35 " style="fill:white; stroke-width:1; stroke:black; " description="&lt;b&gt;input.path1.gene305&lt;/b&gt;&lt;br&gt;input.path1.gene305&lt;br&gt;Location: 1147369 - 1149906" locus_tag="input.path1.gene305" class="clusterblast-orf" id="dummy-2_q12_0_all"  />
<polygon points="592,35 597,30 602,30 602,40 597,40 592,35 " style="fill:white; stroke-width:1; stroke:black; " description="&lt;b&gt;input.path1.gene306&lt;/b&gt;&lt;br&gt;input.path1.gene306&lt;br&gt;Location: 1150579 - 1151881" locus_tag="input.path1.gene306" class="clusterblast-orf" id="dummy-2_q13_0_all"  />
</g>
<g label="NW_024067566" description="NW_024067566 (1440324-1543594): Penicillium roqueforti strain LCP96 04111 chr... (10% of genes show similarity), NRPS,T1PKS" class="clusterblast-cluster"  >
<text x="5" y="70" class="clusterblast-acc"  >
<a xlink:href="https://antismash-db.secondarymetabolites.org/area?record=NW_024067566&amp;start=1440324&amp;end=1543594" target="_blank">NW_024067566 (1440324-1543594)</a>: Penicillium roqueforti strain LCP96 04111 chr... (10% of genes show similarity), NRPS,T1PKS</text>
<line x1="10" y1="85" x2="778.0" y2="85" style="stroke-width:1; stroke:grey; "  />
</g>
<g id="a2_000"  >
<polygon points="0,85 5,80 10,80 10,90 5,90 0,85 " style="fill:white; stroke-width:1; stroke:black; " description="&lt;b&gt;LCP9604111_2050&lt;/b&gt;&lt;br&gt;uncharacterized protein&lt;br&gt;Location: 1543471 - 1542099" locus_tag="LCP9604111_2050" class="clusterblast-orf" id="dummy-2_h2_9_0"  />
</g>
<g id="a2_001"  >
<polygon points="16,85 21,80 25,80 25,90 21,90 16,85 " style="fill:white; stroke-width:1; stroke:black; " description="&lt;b&gt;LCP9604111_2049&lt;/b&gt;&lt;br&gt;uncharacterized protein&lt;br&gt;Location: 1541333 - 1540156" locus_tag="LCP9604111_2049" class="clusterblast-orf" id="dummy-2_h2_9_1"  />
</g>
<g id="a2_002"  >
<polygon points="30,90 37,90 42,85 37,80 30,80 30,90 " style="fill:white; stroke-width:1; stroke:black; " description="&lt;b&gt;LCP9604111_2048&lt;/b&gt;&lt;br&gt;uncharacterized protein&lt;br&gt;Location: 1539563 - 1537965" locus_tag="LCP9604111_2048" class="clusterblast-orf" id="dummy-2_h2_9_2"  />
</g>
<g id="a2_003"  >
<polygon points="61,90 77,90 82,85 77,80 61,80 61,90 " style="fill:white; stroke-width:1; stroke:black; " description="&lt;b&gt;LCP9604111_2047&lt;/b&gt;&lt;br&gt;uncharacterized protein&lt;br&gt;Location: 1535627 - 1532952" locus_tag="LCP9604111_2047" class="clusterblast-orf" id="dummy-2_h2_9_3"  />
</g>
<g id="a2_004"  >
<polygon points="90,85 95,80 103,80 103,90 95,90 90,85 " style="fill:white; stroke-width:1; stroke:black; " description="&lt;b&gt;LCP9604111_2046&lt;/b&gt;&lt;br&gt;uncharacterized protein&lt;br&gt;Location: 1531908 - 1530172" locus_tag="LCP9604111_2046" class="clusterblast-orf" id="dummy-2_h2_9_4"  />
</g>
<g id="a2_005"  >
<polygon points="128,90 132,90 137,85 132,80 128,80 128,90 " style="fill:white; stroke-width:1; stroke:black; " description="&lt;b&gt;LCP9604111_2045&lt;/b&gt;&lt;br&gt;CAZyme family CE10&lt;br&gt;Location: 1527051 - 1525776" locus_tag="LCP9604111_2045" class="clusterblast-orf" id="dummy-2_h2_9_5"  />
</g>
<g id="a2_006"  >
<polygon points="139,85 144,80 148,80 148,90 144,90 139,85 " style="fill:white; stroke-width:1; stroke:black; " description="&lt;b&gt;LCP9604111_2044&lt;/b&gt;&lt;br&gt;uncharacterized protein&lt;br&gt;Location: 1525604 - 1524453" locus_tag="LCP9604111_2044" class="clusterblast-orf" id="dummy-2_h2_9_6"  />
</g>
<g id="a2_007"  >
<polygon points="151,85 156,80 156,80 156,90 156,90 151,85 " style="fill:white; stroke-width:1; stroke:black; " description="&lt;b&gt;LCP9604111_2043&lt;/b&gt;&lt;br&gt;uncharacterized protein&lt;br&gt;Location: 1524065 - 1523418" locus_tag="LCP9604111_2043" class="clusterblast-orf" id="dummy-2_h2_9_7"  />
</g>
<g id="a2_008"  >
<polygon points="162,85 167,80 183,80 183,90 167,90 162,85 " style="fill:white; stroke-width:1; stroke:black; " description="&lt;b&gt;LCP9604111_2042&lt;/b&gt;&lt;br&gt;uncharacterized protein&lt;br&gt;Location: 1522655 - 1519938" locus_tag="LCP9604111_2042" class="clusterblast-orf" id="dummy-2_h2_9_8"  />
</g>
<g id="a2_009"  >
<polygon points="187,85 192,80 196,80 196,90 192,90 187,85 " style="fill:white; stroke-width:1; stroke:black; " description="&lt;b&gt;LCP9604111_2041&lt;/b&gt;&lt;br&gt;uncharacterized protein&lt;br&gt;Location: 1519450 - 1518216" locus_tag="LCP9604111_2041" class="clusterblast-orf" id="dummy-2_h2_9_9"  />
</g>
<g id="a2_0010"  >
<polygon points="206,90 226,90 231,85 226,80 206,80 206,90 " style="fill:white; stroke-width:1; stroke:black; " description="&lt;b&gt;LCP9604111_2040&lt;/b&gt;&lt;br&gt;uncharacterized protein&lt;br&gt;Location: 1516962 - 1513749" locus_tag="LCP9604111_2040" class="clusterblast-orf" id="dummy-2_h2_9_10"  />
</g>
<g id="a2_0011"  >
<polygon points="232,90 258,90 263,85 258,80 232,80 232,90 " style="fill:white; stroke-width:1; stroke:black; " description="&lt;b&gt;LCP9604111_2039&lt;/b&gt;&lt;br&gt;uncharacterized protein&lt;br&gt;Location: 1513594 - 1509703" locus_tag="LCP9604111_2039" class="clusterblast-orf" id="dummy-2_h2_9_11"  />
</g>
<g id="a2_0012"  >
<polygon points="287,90 303,90 308,85 303,80 287,80 287,90 " style="fill:white; stroke-width:1; stroke:black; " description="&lt;b&gt;LCP9604111_2038&lt;/b&gt;&lt;br&gt;uncharacterized protein&lt;br&gt;Location: 1506559 - 1503959" locus_tag="LCP9604111_2038" class="clusterblast-orf" id="dummy-2_h2_9_12"  />
</g>
<g id="a2_0013"  >
<polygon points="308,85 313,80 318,80 318,90 313,90 308,85 " style="fill:#d81515; stroke-width:1; stroke:black; " description="&lt;b&gt;LCP9604111_2037&lt;/b&gt;&lt;br&gt;uncharacterized protein&lt;br&gt;Location: 1503879 - 1502675&lt;br&gt;&lt;br&gt;&lt;b&gt;BlastP hit with input.path1.gene297&lt;/b&gt;&lt;br&gt;Percentage identity: 43&lt;br&gt;Percentage coverage: 96&lt;br&gt;BLAST bit score: 261&lt;br&gt;E-value: 1.58e-82" locus_tag="LCP9604111_2037" class="clusterblast-orf" id="dummy-2_h2_9_13"  />
</g>
<g id="a2_0014"  >
<polygon points="320,90 325,90 330,85 325,80 320,80 320,90 " style="fill:white; stroke-width:1; stroke:black; " description="&lt;b&gt;LCP9604111_2036&lt;/b&gt;&lt;br&gt;uncharacterized protein&lt;br&gt;Location: 1502386 - 1501088" locus_tag="LCP9604111_2036" class="clusterblast-orf" id="dummy-2_h2_9_14"  />
</g>
<g id="a2_0015"  >
<polygon points="332,85 337,80 347,80 347,90 337,90 332,85 " style="fill:#d8d815; stroke-width:1; stroke:black; " description="&lt;b&gt;LCP9604111_2035&lt;/b&gt;&lt;br&gt;uncharacterized protein&lt;br&gt;Location: 1500879 - 1498960&lt;br&gt;&lt;br&gt;&lt;b&gt;BlastP hit with input.path1.gene299&lt;/b&gt;&lt;br&gt;Percentage identity: 35&lt;br&gt;Percentage coverage: 74&lt;br&gt;BLAST bit score: 303&lt;br&gt;E-value: 1.8e-93" locus_tag="LCP9604111_2035" class="clusterblast-orf" id="dummy-2_h2_9_15"  />
</g>
<g id="a2_0016"  >
<polygon points="349,90 356,90 361,85 356,80 349,80 349,90 " style="fill:white; stroke-width:1; stroke:black; " description="&lt;b&gt;LCP9604111_2034&lt;/b&gt;&lt;br&gt;uncharacterized protein&lt;br&gt;Location: 1498717 - 1497143" locus_tag="LCP9604111_2034" class="clusterblast-orf" id="dummy-2_h2_9_16"  />
</g>
<g id="a2_0017"  >
<polygon points="364,90 366,90 371,85 366,80 364,80 364,90 " style="fill:white; stroke-width:1; stroke:black; " description="&lt;b&gt;LCP9604111_2033&lt;/b&gt;&lt;br&gt;uncharacterized protein&lt;br&gt;Location: 1496741 - 1495848" locus_tag="LCP9604111_2033" class="clusterblast-orf" id="dummy-2_h2_9_17"  />
</g>
<g id="a2_0018"  >
<polygon points="380,90 473,90 478,85 473,80 380,80 380,90 " style="fill:#15d8d8; stroke-width:1; stroke:black; " description="&lt;b&gt;LCP9604111_2032&lt;/b&gt;&lt;br&gt;uncharacterized protein&lt;br&gt;Location: 1494685 - 1482124&lt;br&gt;&lt;br&gt;&lt;b&gt;BlastP hit with input.path1.gene300&lt;/b&gt;&lt;br&gt;Percentage identity: 39&lt;br&gt;Percentage coverage: 93&lt;br&gt;BLAST bit score: 2587&lt;br&gt;E-value: 0.0" locus_tag="LCP9604111_2032" class="clusterblast-orf" id="dummy-2_h2_9_18"  />
</g>
<g id="a2_0019"  >
<polygon points="494,85 499,80 503,80 503,90 499,90 494,85 " style="fill:white; stroke-width:1; stroke:black; " description="&lt;b&gt;LCP9604111_2031&lt;/b&gt;&lt;br&gt;uncharacterized protein&lt;br&gt;Location: 1480033 - 1478869" locus_tag="LCP9604111_2031" class="clusterblast-orf" id="dummy-2_h2_9_19"  />
</g>
<g id="a2_0020"  >
<polygon points="507,90 565,90 570,85 565,80 507,80 507,90 " style="fill:white; stroke-width:1; stroke:black; " description="&lt;b&gt;LCP9604111_2030&lt;/b&gt;&lt;br&gt;uncharacterized protein&lt;br&gt;Location: 1478424 - 1470325" locus_tag="LCP9604111_2030" class="clusterblast-orf" id="dummy-2_h2_9_20"  />
</g>
<g id="a2_0021"  >
<polygon points="577,90 587,90 592,85 587,80 577,80 577,90 " style="fill:white; stroke-width:1; stroke:black; " description="&lt;b&gt;LCP9604111_2029&lt;/b&gt;&lt;br&gt;uncharacterized protein&lt;br&gt;Location: 1469463 - 1467490" locus_tag="LCP9604111_2029" class="clusterblast-orf" id="dummy-2_h2_9_21"  />
</g>
<g id="a2_0022"  >
<polygon points="599,85 604,80 606,80 606,90 604,90 599,85 " style="fill:white; stroke-width:1; stroke:black; " description="&lt;b&gt;LCP9604111_2028&lt;/b&gt;&lt;br&gt;uncharacterized protein&lt;br&gt;Location: 1466640 - 1465663" locus_tag="LCP9604111_2028" class="clusterblast-orf" id="dummy-2_h2_9_22"  />
</g>
<g id="a2_0023"  >
<polygon points="610,90 625,90 630,85 625,80 610,80 610,90 " style="fill:white; stroke-width:1; stroke:black; " description="&lt;b&gt;LCP9604111_2027&lt;/b&gt;&lt;br&gt;uncharacterized protein&lt;br&gt;Location: 1465227 - 1462660" locus_tag="LCP9604111_2027" class="clusterblast-orf" id="dummy-2_h2_9_23"  />
</g>
<g id="a2_0024"  >
<polygon points="640,85 645,80 651,80 651,90 645,90 640,85 " style="fill:white; stroke-width:1; stroke:black; " description="&lt;b&gt;LCP9604111_2026&lt;/b&gt;&lt;br&gt;uncharacterized protein&lt;br&gt;Location: 1461335 - 1459986" locus_tag="LCP9604111_2026" class="clusterblast-orf" id="dummy-2_h2_9_24"  />
</g>
<g id="a2_0025"  >
<polygon points="656,90 662,90 667,85 662,80 656,80 656,90 " style="fill:white; stroke-width:1; stroke:black; " description="&lt;b&gt;LCP9604111_2025&lt;/b&gt;&lt;br&gt;uncharacterized protein&lt;br&gt;Location: 1459347 - 1457862" locus_tag="LCP9604111_2025" class="clusterblast-orf" id="dummy-2_h2_9_25"  />
</g>
<g id="a2_0026"  >
<polygon points="670,85 674,80 674,90 670,85 " style="fill:white; stroke-width:1; stroke:black; " description="&lt;b&gt;LCP9604111_2024&lt;/b&gt;&lt;br&gt;uncharacterized protein&lt;br&gt;Location: 1457509 - 1456921" locus_tag="LCP9604111_2024" class="clusterblast-orf" id="dummy-2_h2_9_26"  />
</g>
<g id="a2_0027"  >
<polygon points="676,90 682,90 687,85 682,80 676,80 676,90 " style="fill:white; stroke-width:1; stroke:black; " description="&lt;b&gt;LCP9604111_2023&lt;/b&gt;&lt;br&gt;uncharacterized protein&lt;br&gt;Location: 1456682 - 1455351" locus_tag="LCP9604111_2023" class="clusterblast-orf" id="dummy-2_h2_9_27"  />
</g>
<g id="a2_0028"  >
<polygon points="753,90 775,90 780,85 775,80 753,80 753,90 " style="fill:white; stroke-width:1; stroke:black; " description="&lt;b&gt;LCP9604111_2022&lt;/b&gt;&lt;br&gt;uncharacterized protein&lt;br&gt;Location: 1446879 - 1443451" locus_tag="LCP9604111_2022" class="clusterblast-orf" id="dummy-2_h2_9_28"  />
</g>
</svg>
