<svg xmlns="http://www.w3.org/2000/svg" xmlns:xlink="http://www.w3.org/1999/xlink" version="1.1" x="0" y="0" height="230" width="800" viewBox="0 0 800 230" preserveAspectRatio="none"  >
<g label="Query sequence" class="clusterblast-cluster"  >
<text x="5" y="20" class="clusterblast-acc"  >
Query sequence</text>
<line x1="10" y1="35" x2="778.0" y2="35" style="stroke-width:1; stroke:grey; "  />
<polygon points="213,35 218,30 221,30 221,40 218,40 213,35 " style="fill:white; stroke-width:1; stroke:black; " description="&lt;b&gt;input.path1.gene1&lt;/b&gt;&lt;br&gt;input.path1.gene1&lt;br&gt;Location: 1310 - 2185" locus_tag="input.path1.gene1" class="clusterblast-orf" id="dummy-1_q0_0_all"  />
<polygon points="243,35 248,30 304,30 304,40 248,40 243,35 " style="fill:#d81515; stroke-width:1; stroke:black; " description="&lt;b&gt;input.path1.gene2&lt;/b&gt;&lt;br&gt;input.path1.gene2&lt;br&gt;Location: 4787 - 11724" locus_tag="input.path1.gene2" class="clusterblast-orf" id="dummy-1_q1_0_all"  />
<polygon points="311,35 316,30 323,30 323,40 316,40 311,35 " style="fill:#15d863; stroke-width:1; stroke:black; " description="&lt;b&gt;input.path1.gene3&lt;/b&gt;&lt;br&gt;input.path1.gene3&lt;br&gt;Location: 12519 - 13948" locus_tag="input.path1.gene3" class="clusterblast-orf" id="dummy-1_q2_0_all"  />
<polygon points="327,40 329,40 334,35 329,30 327,30 327,40 " style="fill:white; stroke-width:1; stroke:black; " description="&lt;b&gt;input.path1.gene4&lt;/b&gt;&lt;br&gt;input.path1.gene4&lt;br&gt;Location: 14357 - 15263" locus_tag="input.path1.gene4" class="clusterblast-orf" id="dummy-1_q3_0_all"  />
<polygon points="347,35 352,30 353,30 353,40 352,40 347,35 " style="fill:white; stroke-width:1; stroke:black; " description="&lt;b&gt;input.path1.gene5&lt;/b&gt;&lt;br&gt;input.path1.gene5&lt;br&gt;Location: 16722 - 17340" locus_tag="input.path1.gene5" class="clusterblast-orf" id="dummy-1_q4_0_all"  />
<polygon points="356,40 395,40 400,35 395,30 356,30 356,40 " style="fill:#1563d8; stroke-width:1; stroke:black; " description="&lt;b&gt;input.path1.gene6&lt;/b&gt;&lt;br&gt;input.path1.gene6&lt;br&gt;Location: 17799 - 22791" locus_tag="input.path1.gene6" class="clusterblast-orf" id="dummy-1_q5_0_all"  />
<polygon points="406,40 409,40 414,35 409,30 406,30 406,40 " style="fill:white; stroke-width:1; stroke:black; " description="&lt;b&gt;input.path1.gene7&lt;/b&gt;&lt;br&gt;input.path1.gene7&lt;br&gt;Location: 23449 - 24477" locus_tag="input.path1.gene7" class="clusterblast-orf" id="dummy-1_q6_0_all"  />
<polygon points="439,40 444,40 449,35 444,30 439,30 439,40 " style="fill:#b115d8; stroke-width:1; stroke:black; " description="&lt;b&gt;input.path1.gene8&lt;/b&gt;&lt;br&gt;input.path1.gene8&lt;br&gt;Location: 27311 - 28407" locus_tag="input.path1.gene8" class="clusterblast-orf" id="dummy-1_q7_0_all"  />
<polygon points="450,35 455,30 480,30 480,40 455,40 450,35 " style="fill:#b1d815; stroke-width:1; stroke:black; " description="&lt;b&gt;input.path1.gene9&lt;/b&gt;&lt;br&gt;input.path1.gene9&lt;br&gt;Location: 28527 - 32001" locus_tag="input.path1.gene9" class="clusterblast-orf" id="dummy-1_q8_0_all"  />
<polygon points="530,40 547,40 552,35 547,30 530,30 530,40 " style="fill:white; stroke-width:1; stroke:black; " description="&lt;b&gt;input.path1.gene10&lt;/b&gt;&lt;br&gt;input.path1.gene10&lt;br&gt;Location: 37824 - 40338" locus_tag="input.path1.gene10" class="clusterblast-orf" id="dummy-1_q9_0_all"  />
<polygon points="556,35 561,30 566,30 566,40 561,40 556,35 " style="fill:white; stroke-width:1; stroke:black; " description="&lt;b&gt;input.path1.gene11&lt;/b&gt;&lt;br&gt;input.path1.gene11&lt;br&gt;Location: 40814 - 41909" locus_tag="input.path1.gene11" class="clusterblast-orf" id="dummy-1_q10_0_all"  />
</g>
<g label="NW_020292069" description="NW_020292069 (316400-408453): Aspergillus vadensis CBS 113365 unplaced genomi... (15% of genes show similarity), NRPS,T1PKS" class="clusterblast-cluster"  >
<text x="5" y="70" class="clusterblast-acc"  >
<a xlink:href="https://antismash-db.secondarymetabolites.org/area?record=NW_020292069&amp;start=316400&amp;end=408453" target="_blank">NW_020292069 (316400-408453)</a>: Aspergillus vadensis CBS 113365 unplaced genomi... (15% of genes show similarity), NRPS,T1PKS</text>
<line x1="10" y1="85" x2="778.0" y2="85" style="stroke-width:1; stroke:grey; "  />
</g>
<g id="a1_000"  >
<polygon points="0,85 5,80 10,80 10,90 5,90 0,85 " style="fill:white; stroke-width:1; stroke:black; " description="&lt;b&gt;BO88DRAFT_429748&lt;/b&gt;&lt;br&gt;hypothetical protein&lt;br&gt;Location: 407539 - 406287" locus_tag="BO88DRAFT_429748" class="clusterblast-orf" id="dummy-1_h1_4_0"  />
</g>
<g id="a1_001"  >
<polygon points="22,90 23,90 28,85 23,80 22,80 22,90 " style="fill:white; stroke-width:1; stroke:black; " description="&lt;b&gt;BO88DRAFT_408556&lt;/b&gt;&lt;br&gt;isochorismatase family hydrolase&lt;br&gt;Location: 404915 - 404304" locus_tag="BO88DRAFT_408556" class="clusterblast-orf" id="dummy-1_h1_4_1"  />
</g>
<g id="a1_002"  >
<polygon points="35,90 39,90 44,85 39,80 35,80 35,90 " style="fill:white; stroke-width:1; stroke:black; " description="&lt;b&gt;BO88DRAFT_351237&lt;/b&gt;&lt;br&gt;oxidoreductase&lt;br&gt;Location: 403427 - 402372" locus_tag="BO88DRAFT_351237" class="clusterblast-orf" id="dummy-1_h1_4_2"  />
</g>
<g id="a1_003"  >
<polygon points="52,90 53,90 58,85 53,80 52,80 52,90 " style="fill:white; stroke-width:1; stroke:black; " description="&lt;b&gt;BO88DRAFT_458232&lt;/b&gt;&lt;br&gt;hypothetical protein&lt;br&gt;Location: 401453 - 400754" locus_tag="BO88DRAFT_458232" class="clusterblast-orf" id="dummy-1_h1_4_3"  />
</g>
<g id="a1_004"  >
<polygon points="70,85 75,80 93,80 93,90 75,90 70,85 " style="fill:white; stroke-width:1; stroke:black; " description="&lt;b&gt;BO88DRAFT_374745&lt;/b&gt;&lt;br&gt;P-loop containing nucleoside triphosphate hydrolase protein&lt;br&gt;Location: 399387 - 396750" locus_tag="BO88DRAFT_374745" class="clusterblast-orf" id="dummy-1_h1_4_4"  />
</g>
<g id="a1_005"  >
<polygon points="110,90 126,90 131,85 126,80 110,80 110,90 " style="fill:white; stroke-width:1; stroke:black; " description="&lt;b&gt;BO88DRAFT_408554&lt;/b&gt;&lt;br&gt;hypothetical protein&lt;br&gt;Location: 394770 - 392450" locus_tag="BO88DRAFT_408554" class="clusterblast-orf" id="dummy-1_h1_4_5"  />
</g>
<g id="a1_006"  >
<polygon points="174,90 200,90 205,85 200,80 174,80 174,90 " style="fill:white; stroke-width:1; stroke:black; " description="&lt;b&gt;BO88DRAFT_419603&lt;/b&gt;&lt;br&gt;pyridoxal-dependent decarboxylase domain protein&lt;br&gt;Location: 387410 - 383904" locus_tag="BO88DRAFT_419603" class="clusterblast-orf" id="dummy-1_h1_4_6"  />
</g>
<g id="a1_007"  >
<polygon points="213,85 218,80 224,80 224,90 218,90 213,85 " style="fill:white; stroke-width:1; stroke:black; " description="&lt;b&gt;BO88DRAFT_474705&lt;/b&gt;&lt;br&gt;hypothetical protein&lt;br&gt;Location: 383016 - 381733" locus_tag="BO88DRAFT_474705" class="clusterblast-orf" id="dummy-1_h1_4_7"  />
</g>
<g id="a1_008"  >
<polygon points="233,85 238,80 242,80 242,90 238,90 233,85 " style="fill:white; stroke-width:1; stroke:black; " description="&lt;b&gt;BO88DRAFT_474703&lt;/b&gt;&lt;br&gt;hypothetical protein&lt;br&gt;Location: 380642 - 379642" locus_tag="BO88DRAFT_474703" class="clusterblast-orf" id="dummy-1_h1_4_8"  />
</g>
<g id="a1_009"  >
<polygon points="252,90 295,90 300,85 295,80 252,80 252,90 " style="fill:#1563d8; stroke-width:1; stroke:black; " description="&lt;b&gt;BO88DRAFT_438839&lt;/b&gt;&lt;br&gt;aureobasidin A1 biosynthesis complex&lt;br&gt;Location: 378453 - 372937&lt;br&gt;&lt;br&gt;&lt;b&gt;BlastP hit with input.path1.gene6&lt;/b&gt;&lt;br&gt;Percentage identity: 33&lt;br&gt;Percentage coverage: 41&lt;br&gt;BLAST bit score: 280&lt;br&gt;E-value: 1.74e-74" locus_tag="BO88DRAFT_438839" class="clusterblast-orf" id="dummy-1_h1_4_9"  />
</g>
<g id="a1_0010"  >
<polygon points="306,85 311,80 325,80 325,90 311,90 306,85 " style="fill:white; stroke-width:1; stroke:black; " description="&lt;b&gt;BO88DRAFT_438838&lt;/b&gt;&lt;br&gt;hypothetical protein&lt;br&gt;Location: 372302 - 370078" locus_tag="BO88DRAFT_438838" class="clusterblast-orf" id="dummy-1_h1_4_10"  />
</g>
<g id="a1_0011"  >
<polygon points="369,90 378,90 383,85 378,80 369,80 369,90 " style="fill:#b115d8; stroke-width:1; stroke:black; " description="&lt;b&gt;BO88DRAFT_447109&lt;/b&gt;&lt;br&gt;cytochrome P450 monooxygenase CYP52G11&lt;br&gt;Location: 365051 - 363402&lt;br&gt;&lt;br&gt;&lt;b&gt;BlastP hit with input.path1.gene8&lt;/b&gt;&lt;br&gt;Percentage identity: 31&lt;br&gt;Percentage coverage: 58&lt;br&gt;BLAST bit score: 78&lt;br&gt;E-value: 1.49e-13" locus_tag="BO88DRAFT_447109" class="clusterblast-orf" id="dummy-1_h1_4_11"  />
</g>
<g id="a1_0012"  >
<polygon points="388,85 393,80 403,80 403,90 393,90 388,85 " style="fill:white; stroke-width:1; stroke:black; " description="&lt;b&gt;BO88DRAFT_474685&lt;/b&gt;&lt;br&gt;hypothetical protein&lt;br&gt;Location: 362781 - 361069" locus_tag="BO88DRAFT_474685" class="clusterblast-orf" id="dummy-1_h1_4_12"  />
</g>
<g id="a1_0013"  >
<polygon points="412,90 412,90 417,85 412,80 412,80 412,90 " style="fill:white; stroke-width:1; stroke:black; " description="&lt;b&gt;BO88DRAFT_474683&lt;/b&gt;&lt;br&gt;hypothetical protein&lt;br&gt;Location: 360083 - 359469" locus_tag="BO88DRAFT_474683" class="clusterblast-orf" id="dummy-1_h1_4_13"  />
</g>
<g id="a1_0014"  >
<polygon points="427,85 432,80 531,80 531,90 432,90 427,85 " style="fill:#d81515; stroke-width:1; stroke:black; " description="&lt;b&gt;BO88DRAFT_474678&lt;/b&gt;&lt;br&gt;hybrid NRPS/PKS enzyme&lt;br&gt;Location: 358340 - 346401&lt;br&gt;&lt;br&gt;&lt;b&gt;BlastP hit with input.path1.gene2&lt;/b&gt;&lt;br&gt;Percentage identity: 55&lt;br&gt;Percentage coverage: 58&lt;br&gt;BLAST bit score: 1165&lt;br&gt;E-value: 0.0" locus_tag="BO88DRAFT_474678" class="clusterblast-orf" id="dummy-1_h1_4_14"  />
</g>
<g id="a1_0015"  >
<polygon points="550,90 554,90 559,85 554,80 550,80 550,90 " style="fill:#15d863; stroke-width:1; stroke:black; " description="&lt;b&gt;BO88DRAFT_474675&lt;/b&gt;&lt;br&gt;alcohol dehydrogenase&lt;br&gt;Location: 344158 - 343076&lt;br&gt;&lt;br&gt;&lt;b&gt;BlastP hit with input.path1.gene3&lt;/b&gt;&lt;br&gt;Percentage identity: 43&lt;br&gt;Percentage coverage: 101&lt;br&gt;BLAST bit score: 296&lt;br&gt;E-value: 1.25e-96" locus_tag="BO88DRAFT_474675" class="clusterblast-orf" id="dummy-1_h1_4_15"  />
</g>
<g id="a1_0016"  >
<polygon points="573,90 576,85 573,80 573,90 " style="fill:white; stroke-width:1; stroke:black; " description="&lt;b&gt;BO88DRAFT_408553&lt;/b&gt;&lt;br&gt;hypothetical protein&lt;br&gt;Location: 341487 - 341187" locus_tag="BO88DRAFT_408553" class="clusterblast-orf" id="dummy-1_h1_4_16"  />
</g>
<g id="a1_0017"  >
<polygon points="582,85 587,80 588,80 588,90 587,90 582,85 " style="fill:white; stroke-width:1; stroke:black; " description="&lt;b&gt;BO88DRAFT_474673&lt;/b&gt;&lt;br&gt;hypothetical protein&lt;br&gt;Location: 340435 - 339740" locus_tag="BO88DRAFT_474673" class="clusterblast-orf" id="dummy-1_h1_4_17"  />
</g>
<g id="a1_0018"  >
<polygon points="605,90 616,90 621,85 616,80 605,80 605,90 " style="fill:white; stroke-width:1; stroke:black; " description="&lt;b&gt;BO88DRAFT_408549&lt;/b&gt;&lt;br&gt;sugar transport protein&lt;br&gt;Location: 337777 - 336037" locus_tag="BO88DRAFT_408549" class="clusterblast-orf" id="dummy-1_h1_4_18"  />
</g>
<g id="a1_0019"  >
<polygon points="628,85 633,80 638,80 638,90 633,90 628,85 " style="fill:white; stroke-width:1; stroke:black; " description="&lt;b&gt;BO88DRAFT_491565&lt;/b&gt;&lt;br&gt;taurine dioxygenase family protein&lt;br&gt;Location: 335217 - 333993" locus_tag="BO88DRAFT_491565" class="clusterblast-orf" id="dummy-1_h1_4_19"  />
</g>
<g id="a1_0020"  >
<polygon points="647,85 652,80 657,80 657,90 652,90 647,85 " style="fill:white; stroke-width:1; stroke:black; " description="&lt;b&gt;BO88DRAFT_397612&lt;/b&gt;&lt;br&gt;hypothetical protein&lt;br&gt;Location: 332965 - 331813" locus_tag="BO88DRAFT_397612" class="clusterblast-orf" id="dummy-1_h1_4_20"  />
</g>
<g id="a1_0021"  >
<polygon points="664,85 669,80 680,80 680,90 669,90 664,85 " style="fill:white; stroke-width:1; stroke:black; " description="&lt;b&gt;BO88DRAFT_397608&lt;/b&gt;&lt;br&gt;hypothetical protein&lt;br&gt;Location: 331084 - 329146" locus_tag="BO88DRAFT_397608" class="clusterblast-orf" id="dummy-1_h1_4_21"  />
</g>
<g id="a1_0022"  >
<polygon points="708,85 713,80 728,80 728,90 713,90 708,85 " style="fill:white; stroke-width:1; stroke:black; " description="&lt;b&gt;BO88DRAFT_397605&lt;/b&gt;&lt;br&gt;phenylalanine ammonia-lyase&lt;br&gt;Location: 325978 - 323681" locus_tag="BO88DRAFT_397605" class="clusterblast-orf" id="dummy-1_h1_4_22"  />
</g>
<g id="a1_0023"  >
<polygon points="734,90 740,90 745,85 740,80 734,80 734,90 " style="fill:white; stroke-width:1; stroke:black; " description="&lt;b&gt;BO88DRAFT_419587&lt;/b&gt;&lt;br&gt;hypothetical protein&lt;br&gt;Location: 323025 - 321670" locus_tag="BO88DRAFT_419587" class="clusterblast-orf" id="dummy-1_h1_4_23"  />
</g>
<g id="a1_0024"  >
<polygon points="763,90 766,85 763,80 763,90 " style="fill:white; stroke-width:1; stroke:black; " description="&lt;b&gt;BO88DRAFT_182158&lt;/b&gt;&lt;br&gt;hypothetical protein&lt;br&gt;Location: 319625 - 319262" locus_tag="BO88DRAFT_182158" class="clusterblast-orf" id="dummy-1_h1_4_24"  />
</g>
<g id="a1_0025"  >
<polygon points="768,85 773,80 780,80 780,90 773,90 768,85 " style="fill:white; stroke-width:1; stroke:black; " description="&lt;b&gt;BO88DRAFT_182155&lt;/b&gt;&lt;br&gt;hypothetical protein&lt;br&gt;Location: 319015 - 317738" locus_tag="BO88DRAFT_182155" class="clusterblast-orf" id="dummy-1_h1_4_25"  />
</g>
</svg>
