<svg xmlns="http://www.w3.org/2000/svg" xmlns:xlink="http://www.w3.org/1999/xlink" version="1.1" x="0" y="0" height="230" width="800" viewBox="0 0 800 230" preserveAspectRatio="none"  >
<g label="Query sequence" class="clusterblast-cluster"  >
<text x="5" y="20" class="clusterblast-acc"  >
Query sequence</text>
<line x1="10" y1="35" x2="778.0" y2="35" style="stroke-width:1; stroke:grey; "  />
<polygon points="249,40 259,40 264,35 259,30 249,30 249,40 " style="fill:white; stroke-width:1; stroke:black; " description="&lt;b&gt;input.path1.gene423&lt;/b&gt;&lt;br&gt;input.path1.gene423&lt;br&gt;Location: 1458040 - 1460233" locus_tag="input.path1.gene423" class="clusterblast-orf" id="dummy-1_q0_0_all"  />
<polygon points="288,40 289,40 294,35 289,30 288,30 288,40 " style="fill:white; stroke-width:1; stroke:black; " description="&lt;b&gt;input.path1.gene424&lt;/b&gt;&lt;br&gt;input.path1.gene424&lt;br&gt;Location: 1463742 - 1464604" locus_tag="input.path1.gene424" class="clusterblast-orf" id="dummy-1_q1_0_all"  />
<polygon points="297,35 298,30 298,40 297,35 " style="fill:white; stroke-width:1; stroke:black; " description="&lt;b&gt;input.path1.gene425&lt;/b&gt;&lt;br&gt;input.path1.gene425&lt;br&gt;Location: 1464968 - 1465235" locus_tag="input.path1.gene425" class="clusterblast-orf" id="dummy-1_q2_0_all"  />
<polygon points="313,35 318,30 321,30 321,40 318,40 313,35 " style="fill:#d81515; stroke-width:1; stroke:black; " description="&lt;b&gt;input.path1.gene426&lt;/b&gt;&lt;br&gt;input.path1.gene426&lt;br&gt;Location: 1467313 - 1468598" locus_tag="input.path1.gene426" class="clusterblast-orf" id="dummy-1_q3_0_all"  />
<polygon points="372,40 407,40 412,35 407,30 372,30 372,40 " style="fill:#4dd815; stroke-width:1; stroke:black; " description="&lt;b&gt;input.path1.gene427&lt;/b&gt;&lt;br&gt;input.path1.gene427&lt;br&gt;Location: 1476008 - 1481930" locus_tag="input.path1.gene427" class="clusterblast-orf" id="dummy-1_q4_0_all"  />
<polygon points="419,35 424,30 424,30 424,40 424,40 419,35 " style="fill:#1585d8; stroke-width:1; stroke:black; " description="&lt;b&gt;input.path1.gene428&lt;/b&gt;&lt;br&gt;input.path1.gene428&lt;br&gt;Location: 1482876 - 1483619" locus_tag="input.path1.gene428" class="clusterblast-orf" id="dummy-1_q5_0_all"  />
<polygon points="428,35 433,30 434,30 434,40 433,40 428,35 " style="fill:#d81515; stroke-width:1; stroke:black; " description="&lt;b&gt;input.path1.gene429&lt;/b&gt;&lt;br&gt;input.path1.gene429&lt;br&gt;Location: 1484150 - 1485103" locus_tag="input.path1.gene429" class="clusterblast-orf" id="dummy-1_q6_0_all"  />
<polygon points="436,40 440,40 445,35 440,30 436,30 436,40 " style="fill:white; stroke-width:1; stroke:black; " description="&lt;b&gt;input.path1.gene430&lt;/b&gt;&lt;br&gt;input.path1.gene430&lt;br&gt;Location: 1485449 - 1486742" locus_tag="input.path1.gene430" class="clusterblast-orf" id="dummy-1_q7_0_all"  />
<polygon points="445,35 450,30 459,30 459,40 450,40 445,35 " style="fill:white; stroke-width:1; stroke:black; " description="&lt;b&gt;input.path1.gene431&lt;/b&gt;&lt;br&gt;input.path1.gene431&lt;br&gt;Location: 1486738 - 1488696" locus_tag="input.path1.gene431" class="clusterblast-orf" id="dummy-1_q8_0_all"  />
<polygon points="463,35 468,30 472,30 472,40 468,40 463,35 " style="fill:white; stroke-width:1; stroke:black; " description="&lt;b&gt;input.path1.gene432&lt;/b&gt;&lt;br&gt;input.path1.gene432&lt;br&gt;Location: 1489354 - 1490638" locus_tag="input.path1.gene432" class="clusterblast-orf" id="dummy-1_q9_0_all"  />
<polygon points="478,40 486,40 491,35 486,30 478,30 478,40 " style="fill:#d815bc; stroke-width:1; stroke:black; " description="&lt;b&gt;input.path1.gene433&lt;/b&gt;&lt;br&gt;input.path1.gene433&lt;br&gt;Location: 1491573 - 1493463" locus_tag="input.path1.gene433" class="clusterblast-orf" id="dummy-1_q10_0_all"  />
<polygon points="495,35 500,30 500,30 500,40 500,40 495,35 " style="fill:#d8bc15; stroke-width:1; stroke:black; " description="&lt;b&gt;input.path1.gene434&lt;/b&gt;&lt;br&gt;input.path1.gene434&lt;br&gt;Location: 1493993 - 1494826" locus_tag="input.path1.gene434" class="clusterblast-orf" id="dummy-1_q11_0_all"  />
<polygon points="506,40 509,35 506,30 506,40 " style="fill:#15d885; stroke-width:1; stroke:black; " description="&lt;b&gt;input.path1.gene435&lt;/b&gt;&lt;br&gt;input.path1.gene435&lt;br&gt;Location: 1495611 - 1496067" locus_tag="input.path1.gene435" class="clusterblast-orf" id="dummy-1_q12_0_all"  />
<polygon points="510,35 515,30 517,30 517,40 515,40 510,35 " style="fill:#4d15d8; stroke-width:1; stroke:black; " description="&lt;b&gt;input.path1.gene436&lt;/b&gt;&lt;br&gt;input.path1.gene436&lt;br&gt;Location: 1496264 - 1497269" locus_tag="input.path1.gene436" class="clusterblast-orf" id="dummy-1_q13_0_all"  />
<polygon points="519,40 525,40 530,35 525,30 519,30 519,40 " style="fill:white; stroke-width:1; stroke:black; " description="&lt;b&gt;input.path1.gene437&lt;/b&gt;&lt;br&gt;input.path1.gene437&lt;br&gt;Location: 1497593 - 1499136" locus_tag="input.path1.gene437" class="clusterblast-orf" id="dummy-1_q14_0_all"  />
</g>
<g label="NW_024467540" description="NW_024467540 (77139-192266): Aspergillus versicolor CBS 583.65 unplaced genom... (10% of genes show similarity), NRPS,betalactone" class="clusterblast-cluster"  >
<text x="5" y="70" class="clusterblast-acc"  >
<a xlink:href="https://antismash-db.secondarymetabolites.org/area?record=NW_024467540&amp;start=77139&amp;end=192266" target="_blank">NW_024467540 (77139-192266)</a>: Aspergillus versicolor CBS 583.65 unplaced genom... (10% of genes show similarity), NRPS,betalactone</text>
<line x1="10" y1="85" x2="778.0" y2="85" style="stroke-width:1; stroke:grey; "  />
</g>
<g id="a1_000"  >
<polygon points="0,90 5,90 10,85 5,80 0,80 0,90 " style="fill:white; stroke-width:1; stroke:black; " description="&lt;b&gt;ASPVEDRAFT_89975&lt;/b&gt;&lt;br&gt;uncharacterized protein&lt;br&gt;Location: 77972 - 79568" locus_tag="ASPVEDRAFT_89975" class="clusterblast-orf" id="dummy-1_h1_2_0"  />
</g>
<g id="a1_001"  >
<polygon points="12,85 17,80 23,80 23,90 17,90 12,85 " style="fill:white; stroke-width:1; stroke:black; " description="&lt;b&gt;ASPVEDRAFT_57770&lt;/b&gt;&lt;br&gt;uncharacterized protein&lt;br&gt;Location: 79767 - 81353" locus_tag="ASPVEDRAFT_57770" class="clusterblast-orf" id="dummy-1_h1_2_1"  />
</g>
<g id="a1_002"  >
<polygon points="25,90 31,90 36,85 31,80 25,80 25,90 " style="fill:white; stroke-width:1; stroke:black; " description="&lt;b&gt;ASPVEDRAFT_57771&lt;/b&gt;&lt;br&gt;uncharacterized protein&lt;br&gt;Location: 81694 - 83328" locus_tag="ASPVEDRAFT_57771" class="clusterblast-orf" id="dummy-1_h1_2_2"  />
</g>
<g id="a1_003"  >
<polygon points="38,90 42,90 47,85 42,80 38,80 38,90 " style="fill:white; stroke-width:1; stroke:black; " description="&lt;b&gt;ASPVEDRAFT_144899&lt;/b&gt;&lt;br&gt;uncharacterized protein&lt;br&gt;Location: 83625 - 84965" locus_tag="ASPVEDRAFT_144899" class="clusterblast-orf" id="dummy-1_h1_2_3"  />
</g>
<g id="a1_004"  >
<polygon points="48,85 53,80 61,80 61,90 53,90 48,85 " style="fill:white; stroke-width:1; stroke:black; " description="&lt;b&gt;ASPVEDRAFT_156380&lt;/b&gt;&lt;br&gt;uncharacterized protein&lt;br&gt;Location: 85083 - 87023" locus_tag="ASPVEDRAFT_156380" class="clusterblast-orf" id="dummy-1_h1_2_4"  />
</g>
<g id="a1_005"  >
<polygon points="63,85 68,80 74,80 74,90 68,90 63,85 " style="fill:white; stroke-width:1; stroke:black; " description="&lt;b&gt;ASPVEDRAFT_156381&lt;/b&gt;&lt;br&gt;uncharacterized protein&lt;br&gt;Location: 87211 - 88910" locus_tag="ASPVEDRAFT_156381" class="clusterblast-orf" id="dummy-1_h1_2_5"  />
</g>
<g id="a1_006"  >
<polygon points="77,85 82,80 88,80 88,90 82,90 77,85 " style="fill:white; stroke-width:1; stroke:black; " description="&lt;b&gt;ASPVEDRAFT_89981&lt;/b&gt;&lt;br&gt;uncharacterized protein&lt;br&gt;Location: 89380 - 90898" locus_tag="ASPVEDRAFT_89981" class="clusterblast-orf" id="dummy-1_h1_2_6"  />
</g>
<g id="a1_007"  >
<polygon points="91,85 96,80 99,80 99,90 96,90 91,85 " style="fill:white; stroke-width:1; stroke:black; " description="&lt;b&gt;ASPVEDRAFT_879636&lt;/b&gt;&lt;br&gt;uncharacterized protein&lt;br&gt;Location: 91333 - 92584" locus_tag="ASPVEDRAFT_879636" class="clusterblast-orf" id="dummy-1_h1_2_7"  />
</g>
<g id="a1_008"  >
<polygon points="106,85 111,80 120,80 120,90 111,90 106,85 " style="fill:white; stroke-width:1; stroke:black; " description="&lt;b&gt;ASPVEDRAFT_66631&lt;/b&gt;&lt;br&gt;uncharacterized protein&lt;br&gt;Location: 93584 - 95610" locus_tag="ASPVEDRAFT_66631" class="clusterblast-orf" id="dummy-1_h1_2_8"  />
</g>
<g id="a1_009"  >
<polygon points="127,90 134,90 139,85 134,80 127,80 127,90 " style="fill:white; stroke-width:1; stroke:black; " description="&lt;b&gt;ASPVEDRAFT_77385&lt;/b&gt;&lt;br&gt;uncharacterized protein&lt;br&gt;Location: 96627 - 98358" locus_tag="ASPVEDRAFT_77385" class="clusterblast-orf" id="dummy-1_h1_2_9"  />
</g>
<g id="a1_0010"  >
<polygon points="147,90 152,90 157,85 152,80 147,80 147,90 " style="fill:white; stroke-width:1; stroke:black; " description="&lt;b&gt;ASPVEDRAFT_89986&lt;/b&gt;&lt;br&gt;uncharacterized protein&lt;br&gt;Location: 99586 - 100978" locus_tag="ASPVEDRAFT_89986" class="clusterblast-orf" id="dummy-1_h1_2_10"  />
</g>
<g id="a1_0011"  >
<polygon points="159,85 164,80 165,80 165,90 164,90 159,85 " style="fill:white; stroke-width:1; stroke:black; " description="&lt;b&gt;ASPVEDRAFT_57776&lt;/b&gt;&lt;br&gt;uncharacterized protein&lt;br&gt;Location: 101308 - 102279" locus_tag="ASPVEDRAFT_57776" class="clusterblast-orf" id="dummy-1_h1_2_11"  />
</g>
<g id="a1_0012"  >
<polygon points="170,85 175,80 181,80 181,90 175,90 170,85 " style="fill:white; stroke-width:1; stroke:black; " description="&lt;b&gt;ASPVEDRAFT_34909&lt;/b&gt;&lt;br&gt;uncharacterized protein&lt;br&gt;Location: 102960 - 104586" locus_tag="ASPVEDRAFT_34909" class="clusterblast-orf" id="dummy-1_h1_2_12"  />
</g>
<g id="a1_0013"  >
<polygon points="183,90 186,85 183,80 183,90 " style="fill:white; stroke-width:1; stroke:black; " description="&lt;b&gt;ASPVEDRAFT_89989&lt;/b&gt;&lt;br&gt;uncharacterized protein&lt;br&gt;Location: 104789 - 105301" locus_tag="ASPVEDRAFT_89989" class="clusterblast-orf" id="dummy-1_h1_2_13"  />
</g>
<g id="a1_0014"  >
<polygon points="187,90 192,90 197,85 192,80 187,80 187,90 " style="fill:white; stroke-width:1; stroke:black; " description="&lt;b&gt;ASPVEDRAFT_57779&lt;/b&gt;&lt;br&gt;uncharacterized protein&lt;br&gt;Location: 105467 - 106924" locus_tag="ASPVEDRAFT_57779" class="clusterblast-orf" id="dummy-1_h1_2_14"  />
</g>
<g id="a1_0015"  >
<polygon points="199,85 204,80 248,80 248,90 204,90 199,85 " style="fill:#4dd815; stroke-width:1; stroke:black; " description="&lt;b&gt;ASPVEDRAFT_145028&lt;/b&gt;&lt;br&gt;uncharacterized protein&lt;br&gt;Location: 107140 - 114359&lt;br&gt;&lt;br&gt;&lt;b&gt;BlastP hit with input.path1.gene427&lt;/b&gt;&lt;br&gt;Percentage identity: 31&lt;br&gt;Percentage coverage: 88&lt;br&gt;BLAST bit score: 665&lt;br&gt;E-value: 9.56e-202" locus_tag="ASPVEDRAFT_145028" class="clusterblast-orf" id="dummy-1_h1_2_15"  />
</g>
<g id="a1_0016"  >
<polygon points="258,90 265,90 270,85 265,80 258,80 258,90 " style="fill:white; stroke-width:1; stroke:black; " description="&lt;b&gt;ASPVEDRAFT_89992&lt;/b&gt;&lt;br&gt;uncharacterized protein&lt;br&gt;Location: 115767 - 117604" locus_tag="ASPVEDRAFT_89992" class="clusterblast-orf" id="dummy-1_h1_2_16"  />
</g>
<g id="a1_0017"  >
<polygon points="271,85 274,80 274,90 271,85 " style="fill:white; stroke-width:1; stroke:black; " description="&lt;b&gt;ASPVEDRAFT_77389&lt;/b&gt;&lt;br&gt;uncharacterized protein&lt;br&gt;Location: 117693 - 118227" locus_tag="ASPVEDRAFT_77389" class="clusterblast-orf" id="dummy-1_h1_2_17"  />
</g>
<g id="a1_0018"  >
<polygon points="284,90 290,90 295,85 290,80 284,80 284,90 " style="fill:white; stroke-width:1; stroke:black; " description="&lt;b&gt;ASPVEDRAFT_47946&lt;/b&gt;&lt;br&gt;uncharacterized protein&lt;br&gt;Location: 119603 - 121265" locus_tag="ASPVEDRAFT_47946" class="clusterblast-orf" id="dummy-1_h1_2_18"  />
</g>
<g id="a1_0019"  >
<polygon points="306,85 311,80 324,80 324,90 311,90 306,85 " style="fill:white; stroke-width:1; stroke:black; " description="&lt;b&gt;ASPVEDRAFT_144912&lt;/b&gt;&lt;br&gt;uncharacterized protein&lt;br&gt;Location: 122850 - 125495" locus_tag="ASPVEDRAFT_144912" class="clusterblast-orf" id="dummy-1_h1_2_19"  />
</g>
<g id="a1_0020"  >
<polygon points="334,90 338,90 343,85 338,80 334,80 334,90 " style="fill:white; stroke-width:1; stroke:black; " description="&lt;b&gt;ASPVEDRAFT_879650&lt;/b&gt;&lt;br&gt;uncharacterized protein&lt;br&gt;Location: 126907 - 128292" locus_tag="ASPVEDRAFT_879650" class="clusterblast-orf" id="dummy-1_h1_2_20"  />
</g>
<g id="a1_0021"  >
<polygon points="346,90 351,90 356,85 351,80 346,80 346,90 " style="fill:white; stroke-width:1; stroke:black; " description="&lt;b&gt;ASPVEDRAFT_34917&lt;/b&gt;&lt;br&gt;uncharacterized protein&lt;br&gt;Location: 128691 - 130240" locus_tag="ASPVEDRAFT_34917" class="clusterblast-orf" id="dummy-1_h1_2_21"  />
</g>
<g id="a1_0022"  >
<polygon points="358,85 362,80 362,90 358,85 " style="fill:white; stroke-width:1; stroke:black; " description="&lt;b&gt;ASPVEDRAFT_47947&lt;/b&gt;&lt;br&gt;uncharacterized protein&lt;br&gt;Location: 130409 - 131029" locus_tag="ASPVEDRAFT_47947" class="clusterblast-orf" id="dummy-1_h1_2_22"  />
</g>
<g id="a1_0023"  >
<polygon points="365,85 370,80 373,80 373,90 370,90 365,85 " style="fill:white; stroke-width:1; stroke:black; " description="&lt;b&gt;ASPVEDRAFT_77395&lt;/b&gt;&lt;br&gt;uncharacterized protein&lt;br&gt;Location: 131480 - 132671" locus_tag="ASPVEDRAFT_77395" class="clusterblast-orf" id="dummy-1_h1_2_23"  />
</g>
<g id="a1_0024"  >
<polygon points="375,90 383,90 388,85 383,80 375,80 375,90 " style="fill:white; stroke-width:1; stroke:black; " description="&lt;b&gt;ASPVEDRAFT_417849&lt;/b&gt;&lt;br&gt;uncharacterized protein&lt;br&gt;Location: 132894 - 134864" locus_tag="ASPVEDRAFT_417849" class="clusterblast-orf" id="dummy-1_h1_2_24"  />
</g>
<g id="a1_0025"  >
<polygon points="389,85 394,80 395,80 395,90 394,90 389,85 " style="fill:white; stroke-width:1; stroke:black; " description="&lt;b&gt;ASPVEDRAFT_417850&lt;/b&gt;&lt;br&gt;uncharacterized protein&lt;br&gt;Location: 135080 - 135832" locus_tag="ASPVEDRAFT_417850" class="clusterblast-orf" id="dummy-1_h1_2_25"  />
</g>
<g id="a1_0026"  >
<polygon points="403,85 408,80 414,80 414,90 408,90 403,85 " style="fill:white; stroke-width:1; stroke:black; " description="&lt;b&gt;ASPVEDRAFT_34922&lt;/b&gt;&lt;br&gt;uncharacterized protein&lt;br&gt;Location: 137022 - 138620" locus_tag="ASPVEDRAFT_34922" class="clusterblast-orf" id="dummy-1_h1_2_26"  />
</g>
<g id="a1_0027"  >
<polygon points="416,90 416,90 421,85 416,80 416,80 416,90 " style="fill:white; stroke-width:1; stroke:black; " description="&lt;b&gt;ASPVEDRAFT_145297&lt;/b&gt;&lt;br&gt;uncharacterized protein&lt;br&gt;Location: 138971 - 139759" locus_tag="ASPVEDRAFT_145297" class="clusterblast-orf" id="dummy-1_h1_2_27"  />
</g>
<g id="a1_0028"  >
<polygon points="422,85 427,80 434,80 434,90 427,90 422,85 " style="fill:white; stroke-width:1; stroke:black; " description="&lt;b&gt;ASPVEDRAFT_145106&lt;/b&gt;&lt;br&gt;uncharacterized protein&lt;br&gt;Location: 139825 - 141623" locus_tag="ASPVEDRAFT_145106" class="clusterblast-orf" id="dummy-1_h1_2_28"  />
</g>
<g id="a1_0029"  >
<polygon points="436,85 441,80 443,80 443,90 441,90 436,85 " style="fill:white; stroke-width:1; stroke:black; " description="&lt;b&gt;ASPVEDRAFT_57789&lt;/b&gt;&lt;br&gt;uncharacterized protein&lt;br&gt;Location: 141922 - 142963" locus_tag="ASPVEDRAFT_57789" class="clusterblast-orf" id="dummy-1_h1_2_29"  />
</g>
<g id="a1_0030"  >
<polygon points="448,85 453,80 459,80 459,90 453,90 448,85 " style="fill:white; stroke-width:1; stroke:black; " description="&lt;b&gt;ASPVEDRAFT_90006&lt;/b&gt;&lt;br&gt;uncharacterized protein&lt;br&gt;Location: 143590 - 145300" locus_tag="ASPVEDRAFT_90006" class="clusterblast-orf" id="dummy-1_h1_2_30"  />
</g>
<g id="a1_0031"  >
<polygon points="461,85 466,80 491,80 491,90 466,90 461,85 " style="fill:#d81515; stroke-width:1; stroke:black; " description="&lt;b&gt;ASPVEDRAFT_90007&lt;/b&gt;&lt;br&gt;uncharacterized protein&lt;br&gt;Location: 145593 - 150023&lt;br&gt;&lt;br&gt;&lt;b&gt;BlastP hit with input.path1.gene426&lt;/b&gt;&lt;br&gt;Percentage identity: 35&lt;br&gt;Percentage coverage: 103&lt;br&gt;BLAST bit score: 176&lt;br&gt;E-value: 4.2e-46" locus_tag="ASPVEDRAFT_90007" class="clusterblast-orf" id="dummy-1_h1_2_31"  />
</g>
<g id="a1_0032"  >
<polygon points="498,85 503,80 506,80 506,90 503,90 498,85 " style="fill:#1585d8; stroke-width:1; stroke:black; " description="&lt;b&gt;ASPVEDRAFT_417909&lt;/b&gt;&lt;br&gt;uncharacterized protein&lt;br&gt;Location: 151024 - 152193&lt;br&gt;&lt;br&gt;&lt;b&gt;BlastP hit with input.path1.gene428&lt;/b&gt;&lt;br&gt;Percentage identity: 58&lt;br&gt;Percentage coverage: 84&lt;br&gt;BLAST bit score: 194&lt;br&gt;E-value: 1.8e-59" locus_tag="ASPVEDRAFT_417909" class="clusterblast-orf" id="dummy-1_h1_2_32"  />
</g>
<g id="a1_0033"  >
<polygon points="507,85 512,80 514,80 514,90 512,90 507,85 " style="fill:#d81515; stroke-width:1; stroke:black; " description="&lt;b&gt;ASPVEDRAFT_144863&lt;/b&gt;&lt;br&gt;uncharacterized protein&lt;br&gt;Location: 152337 - 153253&lt;br&gt;&lt;br&gt;&lt;b&gt;BlastP hit with input.path1.gene429&lt;/b&gt;&lt;br&gt;Percentage identity: 57&lt;br&gt;Percentage coverage: 98&lt;br&gt;BLAST bit score: 353&lt;br&gt;E-value: 4.14e-121" locus_tag="ASPVEDRAFT_144863" class="clusterblast-orf" id="dummy-1_h1_2_33"  />
</g>
<g id="a1_0034"  >
<polygon points="516,90 517,90 522,85 517,80 516,80 516,90 " style="fill:white; stroke-width:1; stroke:black; " description="&lt;b&gt;ASPVEDRAFT_34930&lt;/b&gt;&lt;br&gt;uncharacterized protein&lt;br&gt;Location: 153553 - 154482" locus_tag="ASPVEDRAFT_34930" class="clusterblast-orf" id="dummy-1_h1_2_34"  />
</g>
<g id="a1_0035"  >
<polygon points="526,90 532,90 537,85 532,80 526,80 526,90 " style="fill:white; stroke-width:1; stroke:black; " description="&lt;b&gt;ASPVEDRAFT_156404&lt;/b&gt;&lt;br&gt;uncharacterized protein&lt;br&gt;Location: 155051 - 156724" locus_tag="ASPVEDRAFT_156404" class="clusterblast-orf" id="dummy-1_h1_2_35"  />
</g>
<g id="a1_0036"  >
<polygon points="540,85 545,80 575,80 575,90 545,90 540,85 " style="fill:#4dd815; stroke-width:1; stroke:black; " description="&lt;b&gt;ASPVEDRAFT_180459&lt;/b&gt;&lt;br&gt;uncharacterized protein&lt;br&gt;Location: 157142 - 162266&lt;br&gt;&lt;br&gt;&lt;b&gt;BlastP hit with input.path1.gene427&lt;/b&gt;&lt;br&gt;Percentage identity: 41&lt;br&gt;Percentage coverage: 102&lt;br&gt;BLAST bit score: 1185&lt;br&gt;E-value: 0.0" locus_tag="ASPVEDRAFT_180459" class="clusterblast-orf" id="dummy-1_h1_2_36"  />
</g>
<g id="a1_0037"  >
<polygon points="578,90 587,90 592,85 587,80 578,80 578,90 " style="fill:white; stroke-width:1; stroke:black; " description="&lt;b&gt;ASPVEDRAFT_47956&lt;/b&gt;&lt;br&gt;uncharacterized protein&lt;br&gt;Location: 162647 - 164710" locus_tag="ASPVEDRAFT_47956" class="clusterblast-orf" id="dummy-1_h1_2_37"  />
</g>
<g id="a1_0038"  >
<polygon points="592,85 597,80 605,80 605,90 597,90 592,85 " style="fill:white; stroke-width:1; stroke:black; " description="&lt;b&gt;ASPVEDRAFT_57796&lt;/b&gt;&lt;br&gt;uncharacterized protein&lt;br&gt;Location: 164794 - 166599" locus_tag="ASPVEDRAFT_57796" class="clusterblast-orf" id="dummy-1_h1_2_38"  />
</g>
<g id="a1_0039"  >
<polygon points="607,85 612,80 616,80 616,90 612,90 607,85 " style="fill:white; stroke-width:1; stroke:black; " description="&lt;b&gt;ASPVEDRAFT_204645&lt;/b&gt;&lt;br&gt;uncharacterized protein&lt;br&gt;Location: 166972 - 168278" locus_tag="ASPVEDRAFT_204645" class="clusterblast-orf" id="dummy-1_h1_2_39"  />
</g>
<g id="a1_0040"  >
<polygon points="625,90 627,90 632,85 627,80 625,80 625,90 " style="fill:white; stroke-width:1; stroke:black; " description="&lt;b&gt;ASPVEDRAFT_90015&lt;/b&gt;&lt;br&gt;uncharacterized protein&lt;br&gt;Location: 169549 - 170583" locus_tag="ASPVEDRAFT_90015" class="clusterblast-orf" id="dummy-1_h1_2_40"  />
</g>
<g id="a1_0041"  >
<polygon points="633,85 638,80 640,80 640,90 638,90 633,85 " style="fill:white; stroke-width:1; stroke:black; " description="&lt;b&gt;ASPVEDRAFT_34937&lt;/b&gt;&lt;br&gt;uncharacterized protein&lt;br&gt;Location: 170788 - 171810" locus_tag="ASPVEDRAFT_34937" class="clusterblast-orf" id="dummy-1_h1_2_41"  />
</g>
<g id="a1_0042"  >
<polygon points="650,85 655,80 660,80 660,90 655,90 650,85 " style="fill:white; stroke-width:1; stroke:black; " description="&lt;b&gt;ASPVEDRAFT_145117&lt;/b&gt;&lt;br&gt;uncharacterized protein&lt;br&gt;Location: 173204 - 174726" locus_tag="ASPVEDRAFT_145117" class="clusterblast-orf" id="dummy-1_h1_2_42"  />
</g>
<g id="a1_0043"  >
<polygon points="664,85 669,80 669,80 669,90 669,90 664,85 " style="fill:white; stroke-width:1; stroke:black; " description="&lt;b&gt;ASPVEDRAFT_47964&lt;/b&gt;&lt;br&gt;uncharacterized protein&lt;br&gt;Location: 175326 - 176034" locus_tag="ASPVEDRAFT_47964" class="clusterblast-orf" id="dummy-1_h1_2_43"  />
</g>
<g id="a1_0044"  >
<polygon points="674,90 674,90 679,85 674,80 674,80 674,90 " style="fill:white; stroke-width:1; stroke:black; " description="&lt;b&gt;ASPVEDRAFT_66653&lt;/b&gt;&lt;br&gt;uncharacterized protein&lt;br&gt;Location: 176724 - 177535" locus_tag="ASPVEDRAFT_66653" class="clusterblast-orf" id="dummy-1_h1_2_44"  />
</g>
<g id="a1_0045"  >
<polygon points="686,85 691,80 697,80 697,90 691,90 686,85 " style="fill:white; stroke-width:1; stroke:black; " description="&lt;b&gt;ASPVEDRAFT_156414&lt;/b&gt;&lt;br&gt;uncharacterized protein&lt;br&gt;Location: 178478 - 180095" locus_tag="ASPVEDRAFT_156414" class="clusterblast-orf" id="dummy-1_h1_2_45"  />
</g>
<g id="a1_0046"  >
<polygon points="709,90 712,85 709,80 709,90 " style="fill:white; stroke-width:1; stroke:black; " description="&lt;b&gt;ASPVEDRAFT_418314&lt;/b&gt;&lt;br&gt;uncharacterized protein&lt;br&gt;Location: 181820 - 182385" locus_tag="ASPVEDRAFT_418314" class="clusterblast-orf" id="dummy-1_h1_2_46"  />
</g>
<g id="a1_0047"  >
<polygon points="715,85 720,80 721,80 721,90 720,90 715,85 " style="fill:white; stroke-width:1; stroke:black; " description="&lt;b&gt;ASPVEDRAFT_47969&lt;/b&gt;&lt;br&gt;uncharacterized protein&lt;br&gt;Location: 182701 - 183633" locus_tag="ASPVEDRAFT_47969" class="clusterblast-orf" id="dummy-1_h1_2_47"  />
</g>
<g id="a1_0048"  >
<polygon points="723,90 750,90 755,85 750,80 723,80 723,90 " style="fill:white; stroke-width:1; stroke:black; " description="&lt;b&gt;ASPVEDRAFT_34944&lt;/b&gt;&lt;br&gt;uncharacterized protein&lt;br&gt;Location: 183975 - 188639" locus_tag="ASPVEDRAFT_34944" class="clusterblast-orf" id="dummy-1_h1_2_48"  />
</g>
<g id="a1_0049"  >
<polygon points="769,85 774,80 780,80 780,90 774,90 769,85 " style="fill:white; stroke-width:1; stroke:black; " description="&lt;b&gt;ASPVEDRAFT_145300&lt;/b&gt;&lt;br&gt;uncharacterized protein&lt;br&gt;Location: 190683 - 192203" locus_tag="ASPVEDRAFT_145300" class="clusterblast-orf" id="dummy-1_h1_2_49"  />
</g>
</svg>
