<svg xmlns="http://www.w3.org/2000/svg" xmlns:xlink="http://www.w3.org/1999/xlink" version="1.1" x="0" y="0" height="230" width="800" viewBox="0 0 800 230" preserveAspectRatio="none"  >
<g label="Query sequence" class="clusterblast-cluster"  >
<text x="5" y="20" class="clusterblast-acc"  >
Query sequence</text>
<line x1="10" y1="35" x2="778.0" y2="35" style="stroke-width:1; stroke:grey; "  />
<polygon points="196,35 201,30 211,30 211,40 201,40 196,35 " style="fill:#d81515; stroke-width:1; stroke:black; " description="&lt;b&gt;input.path1.gene74&lt;/b&gt;&lt;br&gt;input.path1.gene74&lt;br&gt;Location: 255654 - 257421" locus_tag="input.path1.gene74" class="clusterblast-orf" id="dummy-1_q0_0_all"  />
<polygon points="232,40 235,35 232,30 232,40 " style="fill:white; stroke-width:1; stroke:black; " description="&lt;b&gt;input.path1.gene75&lt;/b&gt;&lt;br&gt;input.path1.gene75&lt;br&gt;Location: 260008 - 260427" locus_tag="input.path1.gene75" class="clusterblast-orf" id="dummy-1_q1_0_all"  />
<polygon points="247,35 252,30 283,30 283,40 252,40 247,35 " style="fill:#15d863; stroke-width:1; stroke:black; " description="&lt;b&gt;input.path1.gene76&lt;/b&gt;&lt;br&gt;input.path1.gene76&lt;br&gt;Location: 261828 - 266259" locus_tag="input.path1.gene76" class="clusterblast-orf" id="dummy-1_q2_0_all"  />
<polygon points="310,40 313,35 310,30 310,40 " style="fill:white; stroke-width:1; stroke:black; " description="&lt;b&gt;input.path1.gene77&lt;/b&gt;&lt;br&gt;input.path1.gene77&lt;br&gt;Location: 269581 - 269884" locus_tag="input.path1.gene77" class="clusterblast-orf" id="dummy-1_q3_0_all"  />
<polygon points="335,40 440,40 445,35 440,30 335,30 335,40 " style="fill:#1563d8; stroke-width:1; stroke:black; " description="&lt;b&gt;input.path1.gene78&lt;/b&gt;&lt;br&gt;input.path1.gene78&lt;br&gt;Location: 272603 - 286125" locus_tag="input.path1.gene78" class="clusterblast-orf" id="dummy-1_q4_0_all"  />
<polygon points="452,35 457,30 466,30 466,40 457,40 452,35 " style="fill:white; stroke-width:1; stroke:black; " description="&lt;b&gt;input.path1.gene79&lt;/b&gt;&lt;br&gt;input.path1.gene79&lt;br&gt;Location: 286916 - 288687" locus_tag="input.path1.gene79" class="clusterblast-orf" id="dummy-1_q5_0_all"  />
<polygon points="490,40 491,35 490,30 490,40 " style="fill:white; stroke-width:1; stroke:black; " description="&lt;b&gt;input.path1.gene80&lt;/b&gt;&lt;br&gt;input.path1.gene80&lt;br&gt;Location: 291541 - 291706" locus_tag="input.path1.gene80" class="clusterblast-orf" id="dummy-1_q6_0_all"  />
<polygon points="514,40 521,40 526,35 521,30 514,30 514,40 " style="fill:#b115d8; stroke-width:1; stroke:black; " description="&lt;b&gt;input.path1.gene81&lt;/b&gt;&lt;br&gt;input.path1.gene81&lt;br&gt;Location: 294507 - 295983" locus_tag="input.path1.gene81" class="clusterblast-orf" id="dummy-1_q7_0_all"  />
<polygon points="527,40 531,35 527,30 527,40 " style="fill:#b115d8; stroke-width:1; stroke:black; " description="&lt;b&gt;input.path1.gene82&lt;/b&gt;&lt;br&gt;input.path1.gene82&lt;br&gt;Location: 296070 - 296538" locus_tag="input.path1.gene82" class="clusterblast-orf" id="dummy-1_q8_0_all"  />
<polygon points="558,40 559,40 564,35 559,30 558,30 558,40 " style="fill:white; stroke-width:1; stroke:black; " description="&lt;b&gt;input.path1.gene83&lt;/b&gt;&lt;br&gt;input.path1.gene83&lt;br&gt;Location: 299937 - 300572" locus_tag="input.path1.gene83" class="clusterblast-orf" id="dummy-1_q9_0_all"  />
<polygon points="569,40 578,40 583,35 578,30 569,30 569,40 " style="fill:#b1d815; stroke-width:1; stroke:black; " description="&lt;b&gt;input.path1.gene84&lt;/b&gt;&lt;br&gt;input.path1.gene84&lt;br&gt;Location: 301233 - 302952" locus_tag="input.path1.gene84" class="clusterblast-orf" id="dummy-1_q10_0_all"  />
</g>
<g label="NW_007360987" description="NW_007360987 (190861-288838): Glarea lozoyensis ATCC 20868 chromosome Unknown... (8% of genes show similarity), NRPS,T1PKS,betalactone" class="clusterblast-cluster"  >
<text x="5" y="70" class="clusterblast-acc"  >
<a xlink:href="https://antismash-db.secondarymetabolites.org/area?record=NW_007360987&amp;start=190861&amp;end=288838" target="_blank">NW_007360987 (190861-288838)</a>: Glarea lozoyensis ATCC 20868 chromosome Unknown... (8% of genes show similarity), NRPS,T1PKS,betalactone</text>
<line x1="10" y1="85" x2="778.0" y2="85" style="stroke-width:1; stroke:grey; "  />
</g>
<g id="a1_000"  >
<polygon points="0,90 23,90 28,85 23,80 0,80 0,90 " style="fill:white; stroke-width:1; stroke:black; " description="&lt;b&gt;GLAREA_10024&lt;/b&gt;&lt;br&gt;vWA-like protein&lt;br&gt;Location: 192814 - 196319" locus_tag="GLAREA_10024" class="clusterblast-orf" id="dummy-1_h1_4_0"  />
</g>
<g id="a1_001"  >
<polygon points="39,90 40,90 45,85 40,80 39,80 39,90 " style="fill:white; stroke-width:1; stroke:black; " description="&lt;b&gt;GLAREA_10025&lt;/b&gt;&lt;br&gt;hypothetical protein&lt;br&gt;Location: 197590 - 198369" locus_tag="GLAREA_10025" class="clusterblast-orf" id="dummy-1_h1_4_1"  />
</g>
<g id="a1_002"  >
<polygon points="53,85 58,80 69,80 69,90 58,90 53,85 " style="fill:white; stroke-width:1; stroke:black; " description="&lt;b&gt;GLAREA_10026&lt;/b&gt;&lt;br&gt;hypothetical protein&lt;br&gt;Location: 199366 - 201280" locus_tag="GLAREA_10026" class="clusterblast-orf" id="dummy-1_h1_4_2"  />
</g>
<g id="a1_003"  >
<polygon points="84,85 89,80 98,80 98,90 89,90 84,85 " style="fill:white; stroke-width:1; stroke:black; " description="&lt;b&gt;GLAREA_10027&lt;/b&gt;&lt;br&gt;hypothetical protein&lt;br&gt;Location: 203148 - 204811" locus_tag="GLAREA_10027" class="clusterblast-orf" id="dummy-1_h1_4_3"  />
</g>
<g id="a1_004"  >
<polygon points="103,90 109,90 114,85 109,80 103,80 103,90 " style="fill:white; stroke-width:1; stroke:black; " description="&lt;b&gt;GLAREA_10028&lt;/b&gt;&lt;br&gt;hypothetical protein&lt;br&gt;Location: 205415 - 206770" locus_tag="GLAREA_10028" class="clusterblast-orf" id="dummy-1_h1_4_4"  />
</g>
<g id="a1_005"  >
<polygon points="128,85 133,80 145,80 145,90 133,90 128,85 " style="fill:white; stroke-width:1; stroke:black; " description="&lt;b&gt;GLAREA_10029&lt;/b&gt;&lt;br&gt;Winged helix DNA-binding protein&lt;br&gt;Location: 208475 - 210659" locus_tag="GLAREA_10029" class="clusterblast-orf" id="dummy-1_h1_4_5"  />
</g>
<g id="a1_006"  >
<polygon points="170,85 175,80 185,80 185,90 175,90 170,85 " style="fill:white; stroke-width:1; stroke:black; " description="&lt;b&gt;GLAREA_10030&lt;/b&gt;&lt;br&gt;Cytochrome P450&lt;br&gt;Location: 213690 - 215442" locus_tag="GLAREA_10030" class="clusterblast-orf" id="dummy-1_h1_4_6"  />
</g>
<g id="a1_007"  >
<polygon points="188,90 197,90 202,85 197,80 188,80 188,90 " style="fill:white; stroke-width:1; stroke:black; " description="&lt;b&gt;GLAREA_10031&lt;/b&gt;&lt;br&gt;Cytochrome P450&lt;br&gt;Location: 215868 - 217547" locus_tag="GLAREA_10031" class="clusterblast-orf" id="dummy-1_h1_4_7"  />
</g>
<g id="a1_008"  >
<polygon points="205,90 208,90 213,85 208,80 205,80 205,90 " style="fill:white; stroke-width:1; stroke:black; " description="&lt;b&gt;GLAREA_10032&lt;/b&gt;&lt;br&gt;alpha/beta-Hydrolase&lt;br&gt;Location: 217962 - 218919" locus_tag="GLAREA_10032" class="clusterblast-orf" id="dummy-1_h1_4_8"  />
</g>
<g id="a1_009"  >
<polygon points="217,85 222,80 226,80 226,90 222,90 217,85 " style="fill:white; stroke-width:1; stroke:black; " description="&lt;b&gt;GLAREA_10033&lt;/b&gt;&lt;br&gt;Clavaminate synthase-like protein&lt;br&gt;Location: 219395 - 220466" locus_tag="GLAREA_10033" class="clusterblast-orf" id="dummy-1_h1_4_9"  />
</g>
<g id="a1_0010"  >
<polygon points="229,85 234,80 295,80 295,90 234,90 229,85 " style="fill:white; stroke-width:1; stroke:black; " description="&lt;b&gt;GLAREA_10034&lt;/b&gt;&lt;br&gt;Thiolase-like protein&lt;br&gt;Location: 220862 - 228891" locus_tag="GLAREA_10034" class="clusterblast-orf" id="dummy-1_h1_4_10"  />
</g>
<g id="a1_0011"  >
<polygon points="308,90 481,90 486,85 481,80 308,80 308,90 " style="fill:#1563d8; stroke-width:1; stroke:black; " description="&lt;b&gt;GLAREA_10035&lt;/b&gt;&lt;br&gt;Acetyl-CoA synthetase-like protein&lt;br&gt;Location: 230546 - 252235&lt;br&gt;&lt;br&gt;&lt;b&gt;BlastP hit with input.path1.gene78&lt;/b&gt;&lt;br&gt;Percentage identity: 33&lt;br&gt;Percentage coverage: 100&lt;br&gt;BLAST bit score: 2271&lt;br&gt;E-value: 0.0" locus_tag="GLAREA_10035" class="clusterblast-orf" id="dummy-1_h1_4_11"  />
</g>
<g id="a1_0012"  >
<polygon points="499,90 532,90 537,85 532,80 499,80 499,90 " style="fill:#15d863; stroke-width:1; stroke:black; " description="&lt;b&gt;GLAREA_10036&lt;/b&gt;&lt;br&gt;P-loop containing nucleoside triphosphate hydrolase&lt;br&gt;Location: 253841 - 258579&lt;br&gt;&lt;br&gt;&lt;b&gt;BlastP hit with input.path1.gene76&lt;/b&gt;&lt;br&gt;Percentage identity: 39&lt;br&gt;Percentage coverage: 97&lt;br&gt;BLAST bit score: 809&lt;br&gt;E-value: 1.7e-271" locus_tag="GLAREA_10036" class="clusterblast-orf" id="dummy-1_h1_4_12"  />
</g>
<g id="a1_0013"  >
<polygon points="540,85 545,80 565,80 565,90 545,90 540,85 " style="fill:white; stroke-width:1; stroke:black; " description="&lt;b&gt;GLAREA_10037&lt;/b&gt;&lt;br&gt;Aconitase iron-sulfur&lt;br&gt;Location: 258935 - 261970" locus_tag="GLAREA_10037" class="clusterblast-orf" id="dummy-1_h1_4_13"  />
</g>
<g id="a1_0014"  >
<polygon points="569,90 576,90 581,85 576,80 569,80 569,90 " style="fill:white; stroke-width:1; stroke:black; " description="&lt;b&gt;GLAREA_10038&lt;/b&gt;&lt;br&gt;Isocitrate/Isopropylmalate dehydrogenase-like protein&lt;br&gt;Location: 262418 - 263855" locus_tag="GLAREA_10038" class="clusterblast-orf" id="dummy-1_h1_4_14"  />
</g>
<g id="a1_0015"  >
<polygon points="584,85 589,80 601,80 601,90 589,90 584,85 " style="fill:white; stroke-width:1; stroke:black; " description="&lt;b&gt;GLAREA_10039&lt;/b&gt;&lt;br&gt;Aldolase&lt;br&gt;Location: 264293 - 266317" locus_tag="GLAREA_10039" class="clusterblast-orf" id="dummy-1_h1_4_15"  />
</g>
<g id="a1_0016"  >
<polygon points="607,85 612,80 617,80 617,90 612,90 607,85 " style="fill:white; stroke-width:1; stroke:black; " description="&lt;b&gt;GLAREA_10040&lt;/b&gt;&lt;br&gt;D-aminoacid aminotransferase-like PLP-dependent enzyme&lt;br&gt;Location: 267099 - 268369" locus_tag="GLAREA_10040" class="clusterblast-orf" id="dummy-1_h1_4_16"  />
</g>
<g id="a1_0017"  >
<polygon points="619,85 624,80 628,80 628,90 624,90 619,85 " style="fill:white; stroke-width:1; stroke:black; " description="&lt;b&gt;GLAREA_10041&lt;/b&gt;&lt;br&gt;Clavaminate synthase-like protein&lt;br&gt;Location: 268608 - 269705" locus_tag="GLAREA_10041" class="clusterblast-orf" id="dummy-1_h1_4_17"  />
</g>
<g id="a1_0018"  >
<polygon points="632,90 636,90 641,85 636,80 632,80 632,90 " style="fill:white; stroke-width:1; stroke:black; " description="&lt;b&gt;GLAREA_10042&lt;/b&gt;&lt;br&gt;Clavaminate synthase-like protein&lt;br&gt;Location: 270159 - 271199" locus_tag="GLAREA_10042" class="clusterblast-orf" id="dummy-1_h1_4_18"  />
</g>
<g id="a1_0019"  >
<polygon points="645,85 650,80 662,80 662,90 650,90 645,85 " style="fill:white; stroke-width:1; stroke:black; " description="&lt;b&gt;GLAREA_10043&lt;/b&gt;&lt;br&gt;Acetyl-CoA synthetase-like protein&lt;br&gt;Location: 271791 - 273838" locus_tag="GLAREA_10043" class="clusterblast-orf" id="dummy-1_h1_4_19"  />
</g>
<g id="a1_0020"  >
<polygon points="676,90 680,90 685,85 680,80 676,80 676,90 " style="fill:white; stroke-width:1; stroke:black; " description="&lt;b&gt;GLAREA_10044&lt;/b&gt;&lt;br&gt;Clavaminate synthase-like protein&lt;br&gt;Location: 275478 - 276584" locus_tag="GLAREA_10044" class="clusterblast-orf" id="dummy-1_h1_4_20"  />
</g>
<g id="a1_0021"  >
<polygon points="690,85 695,80 708,80 708,90 695,90 690,85 " style="fill:white; stroke-width:1; stroke:black; " description="&lt;b&gt;GLAREA_10045&lt;/b&gt;&lt;br&gt;hypothetical protein&lt;br&gt;Location: 277253 - 279400" locus_tag="GLAREA_10045" class="clusterblast-orf" id="dummy-1_h1_4_21"  />
</g>
<g id="a1_0022"  >
<polygon points="752,90 753,90 758,85 753,80 752,80 752,90 " style="fill:white; stroke-width:1; stroke:black; " description="&lt;b&gt;GLAREA_10046&lt;/b&gt;&lt;br&gt;hypothetical protein&lt;br&gt;Location: 284860 - 285558" locus_tag="GLAREA_10046" class="clusterblast-orf" id="dummy-1_h1_4_22"  />
</g>
<g id="a1_0023"  >
<polygon points="769,90 775,90 780,85 775,80 769,80 769,90 " style="fill:white; stroke-width:1; stroke:black; " description="&lt;b&gt;GLAREA_10047&lt;/b&gt;&lt;br&gt;hypothetical protein&lt;br&gt;Location: 286919 - 288178" locus_tag="GLAREA_10047" class="clusterblast-orf" id="dummy-1_h1_4_23"  />
</g>
</svg>
