<svg xmlns="http://www.w3.org/2000/svg" xmlns:xlink="http://www.w3.org/1999/xlink" version="1.1" x="0" y="0" height="230" width="800" viewBox="0 0 800 230" preserveAspectRatio="none"  >
<g label="Query sequence" class="clusterblast-cluster"  >
<text x="5" y="20" class="clusterblast-acc"  >
Query sequence</text>
<line x1="10" y1="35" x2="778.0" y2="35" style="stroke-width:1; stroke:grey; "  />
<polygon points="1,40 5,40 10,35 5,30 1,30 1,40 " style="fill:white; stroke-width:1; stroke:black; " description="&lt;b&gt;input.path1.gene905&lt;/b&gt;&lt;br&gt;input.path1.gene905&lt;br&gt;Location: 3197000 - 3197823" locus_tag="input.path1.gene905" class="clusterblast-orf" id="dummy-5_q0_0_all"  />
<polygon points="18,40 42,40 47,35 42,30 18,30 18,40 " style="fill:white; stroke-width:1; stroke:black; " description="&lt;b&gt;input.path1.gene906&lt;/b&gt;&lt;br&gt;input.path1.gene906&lt;br&gt;Location: 3198463 - 3201035" locus_tag="input.path1.gene906" class="clusterblast-orf" id="dummy-5_q1_0_all"  />
<polygon points="66,40 73,40 78,35 73,30 66,30 66,40 " style="fill:white; stroke-width:1; stroke:black; " description="&lt;b&gt;input.path1.gene907&lt;/b&gt;&lt;br&gt;input.path1.gene907&lt;br&gt;Location: 3202610 - 3203705" locus_tag="input.path1.gene907" class="clusterblast-orf" id="dummy-5_q2_0_all"  />
<polygon points="82,35 87,30 149,30 149,40 87,40 82,35 " style="fill:white; stroke-width:1; stroke:black; " description="&lt;b&gt;input.path1.gene908&lt;/b&gt;&lt;br&gt;input.path1.gene908&lt;br&gt;Location: 3204043 - 3209847" locus_tag="input.path1.gene908" class="clusterblast-orf" id="dummy-5_q3_0_all"  />
<polygon points="184,40 195,40 200,35 195,30 184,30 184,40 " style="fill:white; stroke-width:1; stroke:black; " description="&lt;b&gt;input.path1.gene909&lt;/b&gt;&lt;br&gt;input.path1.gene909&lt;br&gt;Location: 3212850 - 3214220" locus_tag="input.path1.gene909" class="clusterblast-orf" id="dummy-5_q4_0_all"  />
<polygon points="211,35 216,30 328,30 328,40 216,40 211,35 " style="fill:#d81515; stroke-width:1; stroke:black; " description="&lt;b&gt;input.path1.gene910&lt;/b&gt;&lt;br&gt;input.path1.gene910&lt;br&gt;Location: 3215237 - 3225356" locus_tag="input.path1.gene910" class="clusterblast-orf" id="dummy-5_q5_0_all"  />
<polygon points="339,40 355,40 360,35 355,30 339,30 339,40 " style="fill:#77d815; stroke-width:1; stroke:black; " description="&lt;b&gt;input.path1.gene911&lt;/b&gt;&lt;br&gt;input.path1.gene911&lt;br&gt;Location: 3226308 - 3228129" locus_tag="input.path1.gene911" class="clusterblast-orf" id="dummy-5_q6_0_all"  />
<polygon points="365,35 370,30 388,30 388,40 370,40 365,35 " style="fill:#15d8d8; stroke-width:1; stroke:black; " description="&lt;b&gt;input.path1.gene912&lt;/b&gt;&lt;br&gt;input.path1.gene912&lt;br&gt;Location: 3228561 - 3230505" locus_tag="input.path1.gene912" class="clusterblast-orf" id="dummy-5_q7_0_all"  />
<polygon points="400,40 436,40 441,35 436,30 400,30 400,40 " style="fill:#7715d8; stroke-width:1; stroke:black; " description="&lt;b&gt;input.path1.gene913&lt;/b&gt;&lt;br&gt;input.path1.gene913&lt;br&gt;Location: 3231557 - 3235160" locus_tag="input.path1.gene913" class="clusterblast-orf" id="dummy-5_q8_0_all"  />
<polygon points="482,40 565,40 570,35 565,30 482,30 482,40 " style="fill:#7715d8; stroke-width:1; stroke:black; " description="&lt;b&gt;input.path1.gene914&lt;/b&gt;&lt;br&gt;input.path1.gene914&lt;br&gt;Location: 3238731 - 3246287" locus_tag="input.path1.gene914" class="clusterblast-orf" id="dummy-5_q9_0_all"  />
<polygon points="605,35 610,30 617,30 617,40 610,40 605,35 " style="fill:white; stroke-width:1; stroke:black; " description="&lt;b&gt;input.path1.gene915&lt;/b&gt;&lt;br&gt;input.path1.gene915&lt;br&gt;Location: 3249375 - 3250356" locus_tag="input.path1.gene915" class="clusterblast-orf" id="dummy-5_q10_0_all"  />
<polygon points="681,40 718,40 723,35 718,30 681,30 681,40 " style="fill:white; stroke-width:1; stroke:black; " description="&lt;b&gt;input.path1.gene916&lt;/b&gt;&lt;br&gt;input.path1.gene916&lt;br&gt;Location: 3255928 - 3259561" locus_tag="input.path1.gene916" class="clusterblast-orf" id="dummy-5_q11_0_all"  />
<polygon points="750,40 773,40 778,35 773,30 750,30 750,40 " style="fill:white; stroke-width:1; stroke:black; " description="&lt;b&gt;input.path1.gene917&lt;/b&gt;&lt;br&gt;input.path1.gene917&lt;br&gt;Location: 3261934 - 3264374" locus_tag="input.path1.gene917" class="clusterblast-orf" id="dummy-5_q12_0_all"  />
</g>
<g label="NC_066258" description="NC_066258 (3894480-3966952): Aspergillus nidulans FGSC A4 chromosome II (14% of genes show similarity), NRPS" class="clusterblast-cluster"  >
<text x="5" y="70" class="clusterblast-acc"  >
<a xlink:href="https://antismash-db.secondarymetabolites.org/area?record=NC_066258&amp;start=3894480&amp;end=3966952" target="_blank">NC_066258 (3894480-3966952)</a>: Aspergillus nidulans FGSC A4 chromosome II (14% of genes show similarity), NRPS</text>
<line x1="10" y1="85" x2="778.0" y2="85" style="stroke-width:1; stroke:grey; "  />
</g>
<g id="a5_000"  >
<polygon points="0,90 8,90 13,85 8,80 0,80 0,90 " style="fill:white; stroke-width:1; stroke:black; " description="&lt;b&gt;ANIA_03485&lt;/b&gt;&lt;br&gt;hypothetical protein&lt;br&gt;Location: 3965616 - 3964420" locus_tag="ANIA_03485" class="clusterblast-orf" id="dummy-5_h5_8_0"  />
</g>
<g id="a5_001"  >
<polygon points="46,85 51,80 63,80 63,90 51,90 46,85 " style="fill:white; stroke-width:1; stroke:black; " description="&lt;b&gt;ANIA_03486&lt;/b&gt;&lt;br&gt;hypothetical protein&lt;br&gt;Location: 3961549 - 3960124" locus_tag="ANIA_03486" class="clusterblast-orf" id="dummy-5_h5_8_1"  />
</g>
<g id="a5_002"  >
<polygon points="88,85 93,80 100,80 100,90 93,90 88,85 " style="fill:white; stroke-width:1; stroke:black; " description="&lt;b&gt;ANIA_03487&lt;/b&gt;&lt;br&gt;hypothetical protein&lt;br&gt;Location: 3957951 - 3956870" locus_tag="ANIA_03487" class="clusterblast-orf" id="dummy-5_h5_8_2"  />
</g>
<g id="a5_003"  >
<polygon points="134,90 150,90 155,85 150,80 134,80 134,90 " style="fill:white; stroke-width:1; stroke:black; " description="&lt;b&gt;ANIA_03488&lt;/b&gt;&lt;br&gt;hypothetical protein&lt;br&gt;Location: 3953945 - 3952114" locus_tag="ANIA_03488" class="clusterblast-orf" id="dummy-5_h5_8_3"  />
</g>
<g id="a5_004"  >
<polygon points="177,90 209,90 214,85 209,80 177,80 177,90 " style="fill:white; stroke-width:1; stroke:black; " description="&lt;b&gt;ANIA_03489&lt;/b&gt;&lt;br&gt;hypothetical protein&lt;br&gt;Location: 3950217 - 3947062" locus_tag="ANIA_03489" class="clusterblast-orf" id="dummy-5_h5_8_4"  />
</g>
<g id="a5_005"  >
<polygon points="215,85 220,80 240,80 240,90 220,90 215,85 " style="fill:#15d8d8; stroke-width:1; stroke:black; " description="&lt;b&gt;ANIA_03490&lt;/b&gt;&lt;br&gt;hypothetical protein&lt;br&gt;Location: 3946984 - 3944773&lt;br&gt;&lt;br&gt;&lt;b&gt;BlastP hit with input.path1.gene912&lt;/b&gt;&lt;br&gt;Percentage identity: 33&lt;br&gt;Percentage coverage: 143&lt;br&gt;BLAST bit score: 270&lt;br&gt;E-value: 1.66e-83" locus_tag="ANIA_03490" class="clusterblast-orf" id="dummy-5_h5_8_5"  />
</g>
<g id="a5_006"  >
<polygon points="247,90 263,90 268,85 263,80 247,80 247,90 " style="fill:white; stroke-width:1; stroke:black; " description="&lt;b&gt;ANIA_03491&lt;/b&gt;&lt;br&gt;hypothetical protein&lt;br&gt;Location: 3944133 - 3942367" locus_tag="ANIA_03491" class="clusterblast-orf" id="dummy-5_h5_8_6"  />
</g>
<g id="a5_007"  >
<polygon points="273,90 277,90 282,85 277,80 273,80 273,90 " style="fill:white; stroke-width:1; stroke:black; " description="&lt;b&gt;ANIA_03492&lt;/b&gt;&lt;br&gt;protein scpR&lt;br&gt;Location: 3941964 - 3941131" locus_tag="ANIA_03492" class="clusterblast-orf" id="dummy-5_h5_8_7"  />
</g>
<g id="a5_008"  >
<polygon points="289,90 292,90 297,85 292,80 289,80 289,90 " style="fill:white; stroke-width:1; stroke:black; " description="&lt;b&gt;ANIA_03493&lt;/b&gt;&lt;br&gt;proteasome core particle subunit beta-6-like protein&lt;br&gt;Location: 3940513 - 3939805" locus_tag="ANIA_03493" class="clusterblast-orf" id="dummy-5_h5_8_8"  />
</g>
<g id="a5_009"  >
<polygon points="313,90 323,90 328,85 323,80 313,80 313,90 " style="fill:white; stroke-width:1; stroke:black; " description="&lt;b&gt;ANIA_03494&lt;/b&gt;&lt;br&gt;hypothetical protein&lt;br&gt;Location: 3938498 - 3937185" locus_tag="ANIA_03494" class="clusterblast-orf" id="dummy-5_h5_8_9"  />
</g>
<g id="a5_0010"  >
<polygon points="330,85 335,80 384,80 384,90 335,90 330,85 " style="fill:#7715d8; stroke-width:1; stroke:black; " description="&lt;b&gt;ANIA_03495&lt;/b&gt;&lt;br&gt;protein inpA&lt;br&gt;Location: 3936952 - 3932343&lt;br&gt;&lt;br&gt;&lt;b&gt;BlastP hit with input.path1.gene913&lt;/b&gt;&lt;br&gt;Percentage identity: 31&lt;br&gt;Percentage coverage: 85&lt;br&gt;BLAST bit score: 359&lt;br&gt;E-value: 8.09e-103" locus_tag="ANIA_03495" class="clusterblast-orf" id="dummy-5_h5_8_10"  />
</g>
<g id="a5_0011"  >
<polygon points="393,90 469,90 474,85 469,80 393,80 393,90 " style="fill:#7715d8; stroke-width:1; stroke:black; " description="&lt;b&gt;ANIA_03496&lt;/b&gt;&lt;br&gt;protein inpB&lt;br&gt;Location: 3931509 - 3924481&lt;br&gt;&lt;br&gt;&lt;b&gt;BlastP hit with input.path1.gene913&lt;/b&gt;&lt;br&gt;Percentage identity: 35&lt;br&gt;Percentage coverage: 101&lt;br&gt;BLAST bit score: 551&lt;br&gt;E-value: 4e-168&lt;br&gt;&lt;br&gt;&lt;b&gt;BlastP hit with input.path1.gene914&lt;/b&gt;&lt;br&gt;Percentage identity: 32&lt;br&gt;Percentage coverage: 71&lt;br&gt;BLAST bit score: 778&lt;br&gt;E-value: 3.79e-238" locus_tag="ANIA_03496" class="clusterblast-orf" id="dummy-5_h5_8_11"  />
</g>
<g id="a5_0012"  >
<polygon points="476,85 481,80 495,80 495,90 481,90 476,85 " style="fill:white; stroke-width:1; stroke:black; " description="&lt;b&gt;ANIA_03497&lt;/b&gt;&lt;br&gt;protein CYP623B2&lt;br&gt;Location: 3924356 - 3922732" locus_tag="ANIA_03497" class="clusterblast-orf" id="dummy-5_h5_8_12"  />
</g>
<g id="a5_0013"  >
<polygon points="514,85 519,80 549,80 549,90 519,90 514,85 " style="fill:white; stroke-width:1; stroke:black; " description="&lt;b&gt;ANIA_03498&lt;/b&gt;&lt;br&gt;hypothetical protein&lt;br&gt;Location: 3921038 - 3918046" locus_tag="ANIA_03498" class="clusterblast-orf" id="dummy-5_h5_8_13"  />
</g>
<g id="a5_0014"  >
<polygon points="554,90 565,90 570,85 565,80 554,80 554,90 " style="fill:white; stroke-width:1; stroke:black; " description="&lt;b&gt;ANIA_03499&lt;/b&gt;&lt;br&gt;hypothetical protein&lt;br&gt;Location: 3917614 - 3916197" locus_tag="ANIA_03499" class="clusterblast-orf" id="dummy-5_h5_8_14"  />
</g>
<g id="a5_0015"  >
<polygon points="575,90 596,90 601,85 596,80 575,80 575,90 " style="fill:white; stroke-width:1; stroke:black; " description="&lt;b&gt;ANIA_03500&lt;/b&gt;&lt;br&gt;hypothetical protein&lt;br&gt;Location: 3915724 - 3913468" locus_tag="ANIA_03500" class="clusterblast-orf" id="dummy-5_h5_8_15"  />
</g>
<g id="a5_0016"  >
<polygon points="639,90 658,90 663,85 658,80 639,80 639,90 " style="fill:white; stroke-width:1; stroke:black; " description="&lt;b&gt;ANIA_03501&lt;/b&gt;&lt;br&gt;hypothetical protein&lt;br&gt;Location: 3910239 - 3908131" locus_tag="ANIA_03501" class="clusterblast-orf" id="dummy-5_h5_8_16"  />
</g>
<g id="a5_0017"  >
<polygon points="665,85 670,80 694,80 694,90 670,90 665,85 " style="fill:white; stroke-width:1; stroke:black; " description="&lt;b&gt;ANIA_03502&lt;/b&gt;&lt;br&gt;hypothetical protein&lt;br&gt;Location: 3907982 - 3905449" locus_tag="ANIA_03502" class="clusterblast-orf" id="dummy-5_h5_8_17"  />
</g>
<g id="a5_0018"  >
<polygon points="698,85 703,80 723,80 723,90 703,90 698,85 " style="fill:white; stroke-width:1; stroke:black; " description="&lt;b&gt;ANIA_03503&lt;/b&gt;&lt;br&gt;hypothetical protein&lt;br&gt;Location: 3905100 - 3902978" locus_tag="ANIA_03503" class="clusterblast-orf" id="dummy-5_h5_8_18"  />
</g>
<g id="a5_0019"  >
<polygon points="732,90 757,90 762,85 757,80 732,80 732,90 " style="fill:white; stroke-width:1; stroke:black; " description="&lt;b&gt;ANIA_03504&lt;/b&gt;&lt;br&gt;hypothetical protein&lt;br&gt;Location: 3902192 - 3899590" locus_tag="ANIA_03504" class="clusterblast-orf" id="dummy-5_h5_8_19"  />
</g>
<g id="a5_0020"  >
<polygon points="765,85 770,80 780,80 780,90 770,90 765,85 " style="fill:white; stroke-width:1; stroke:black; " description="&lt;b&gt;ANIA_03505&lt;/b&gt;&lt;br&gt;hypothetical protein&lt;br&gt;Location: 3899284 - 3898044" locus_tag="ANIA_03505" class="clusterblast-orf" id="dummy-5_h5_8_20"  />
</g>
</svg>
