<svg xmlns="http://www.w3.org/2000/svg" xmlns:xlink="http://www.w3.org/1999/xlink" version="1.1" x="0" y="0" height="230" width="800" viewBox="0 0 800 230" preserveAspectRatio="none"  >
<g label="Query sequence" class="clusterblast-cluster"  >
<text x="5" y="20" class="clusterblast-acc"  >
Query sequence</text>
<line x1="10" y1="35" x2="778.0" y2="35" style="stroke-width:1; stroke:grey; "  />
<polygon points="140,35 145,30 148,30 148,40 145,40 140,35 " style="fill:white; stroke-width:1; stroke:black; " description="&lt;b&gt;input.path1.gene133&lt;/b&gt;&lt;br&gt;input.path1.gene133&lt;br&gt;Location: 523371 - 524073" locus_tag="input.path1.gene133" class="clusterblast-orf" id="dummy-2_q0_0_all"  />
<polygon points="160,40 162,35 160,30 160,40 " style="fill:white; stroke-width:1; stroke:black; " description="&lt;b&gt;input.path1.gene134&lt;/b&gt;&lt;br&gt;input.path1.gene134&lt;br&gt;Location: 525193 - 525422" locus_tag="input.path1.gene134" class="clusterblast-orf" id="dummy-2_q1_0_all"  />
<polygon points="191,35 196,30 208,30 208,40 196,40 191,35 " style="fill:#d81515; stroke-width:1; stroke:black; " description="&lt;b&gt;input.path1.gene135&lt;/b&gt;&lt;br&gt;input.path1.gene135&lt;br&gt;Location: 528020 - 529566" locus_tag="input.path1.gene135" class="clusterblast-orf" id="dummy-2_q2_0_all"  />
<polygon points="210,40 220,40 225,35 220,30 210,30 210,40 " style="fill:white; stroke-width:1; stroke:black; " description="&lt;b&gt;input.path1.gene136&lt;/b&gt;&lt;br&gt;input.path1.gene136&lt;br&gt;Location: 529746 - 531093" locus_tag="input.path1.gene136" class="clusterblast-orf" id="dummy-2_q3_0_all"  />
<polygon points="236,40 253,40 258,35 253,30 236,30 236,40 " style="fill:white; stroke-width:1; stroke:black; " description="&lt;b&gt;input.path1.gene137&lt;/b&gt;&lt;br&gt;input.path1.gene137&lt;br&gt;Location: 532078 - 533997" locus_tag="input.path1.gene137" class="clusterblast-orf" id="dummy-2_q4_0_all"  />
<polygon points="276,35 281,30 330,30 330,40 281,40 276,35 " style="fill:#15d815; stroke-width:1; stroke:black; " description="&lt;b&gt;input.path1.gene138&lt;/b&gt;&lt;br&gt;input.path1.gene138&lt;br&gt;Location: 535653 - 540530" locus_tag="input.path1.gene138" class="clusterblast-orf" id="dummy-2_q5_0_all"  />
<polygon points="341,40 491,40 496,35 491,30 341,30 341,40 " style="fill:#1515d8; stroke-width:1; stroke:black; " description="&lt;b&gt;input.path1.gene139&lt;/b&gt;&lt;br&gt;input.path1.gene139&lt;br&gt;Location: 541489 - 555529" locus_tag="input.path1.gene139" class="clusterblast-orf" id="dummy-2_q6_0_all"  />
<polygon points="551,40 563,40 568,35 563,30 551,30 551,40 " style="fill:white; stroke-width:1; stroke:black; " description="&lt;b&gt;input.path1.gene140&lt;/b&gt;&lt;br&gt;input.path1.gene140&lt;br&gt;Location: 560425 - 562005" locus_tag="input.path1.gene140" class="clusterblast-orf" id="dummy-2_q7_0_all"  />
<polygon points="575,35 580,30 589,30 589,40 580,40 575,35 " style="fill:white; stroke-width:1; stroke:black; " description="&lt;b&gt;input.path1.gene141&lt;/b&gt;&lt;br&gt;input.path1.gene141&lt;br&gt;Location: 562612 - 563897" locus_tag="input.path1.gene141" class="clusterblast-orf" id="dummy-2_q8_0_all"  />
<polygon points="589,35 594,30 639,30 639,40 594,40 589,35 " style="fill:white; stroke-width:1; stroke:black; " description="&lt;b&gt;input.path1.gene142&lt;/b&gt;&lt;br&gt;input.path1.gene142&lt;br&gt;Location: 563911 - 568446" locus_tag="input.path1.gene142" class="clusterblast-orf" id="dummy-2_q9_0_all"  />
</g>
<g label="NW_001820829" description="NW_001820829 (1536004-1610195): Sclerotinia sclerotiorum 1980 UF-70 scaffold ... (11% of genes show similarity), NRPS" class="clusterblast-cluster"  >
<text x="5" y="70" class="clusterblast-acc"  >
<a xlink:href="https://antismash-db.secondarymetabolites.org/area?record=NW_001820829&amp;start=1536004&amp;end=1610195" target="_blank">NW_001820829 (1536004-1610195)</a>: Sclerotinia sclerotiorum 1980 UF-70 scaffold ... (11% of genes show similarity), NRPS</text>
<line x1="10" y1="85" x2="778.0" y2="85" style="stroke-width:1; stroke:grey; "  />
</g>
<g id="a2_000"  >
<polygon points="0,85 5,80 20,80 20,90 5,90 0,85 " style="fill:white; stroke-width:1; stroke:black; " description="&lt;b&gt;SS1G_06179&lt;/b&gt;&lt;br&gt;hypothetical protein&lt;br&gt;Location: 1537756 - 1539595" locus_tag="SS1G_06179" class="clusterblast-orf" id="dummy-2_h2_1_0"  />
</g>
<g id="a2_001"  >
<polygon points="33,90 45,90 50,85 45,80 33,80 33,90 " style="fill:white; stroke-width:1; stroke:black; " description="&lt;b&gt;SS1G_06180&lt;/b&gt;&lt;br&gt;hypothetical protein&lt;br&gt;Location: 1540787 - 1542284" locus_tag="SS1G_06180" class="clusterblast-orf" id="dummy-2_h2_1_1"  />
</g>
<g id="a2_002"  >
<polygon points="60,85 65,80 107,80 107,90 65,90 60,85 " style="fill:white; stroke-width:1; stroke:black; " description="&lt;b&gt;SS1G_06181&lt;/b&gt;&lt;br&gt;hypothetical protein&lt;br&gt;Location: 1543197 - 1547433" locus_tag="SS1G_06181" class="clusterblast-orf" id="dummy-2_h2_1_2"  />
</g>
<g id="a2_003"  >
<polygon points="140,90 159,90 164,85 159,80 140,80 140,90 " style="fill:white; stroke-width:1; stroke:black; " description="&lt;b&gt;SS1G_06182&lt;/b&gt;&lt;br&gt;hypothetical protein&lt;br&gt;Location: 1550392 - 1552596" locus_tag="SS1G_06182" class="clusterblast-orf" id="dummy-2_h2_1_3"  />
</g>
<g id="a2_004"  >
<polygon points="179,90 215,90 220,85 215,80 179,80 179,90 " style="fill:white; stroke-width:1; stroke:black; " description="&lt;b&gt;SS1G_06183&lt;/b&gt;&lt;br&gt;hypothetical protein&lt;br&gt;Location: 1553963 - 1557657" locus_tag="SS1G_06183" class="clusterblast-orf" id="dummy-2_h2_1_4"  />
</g>
<g id="a2_005"  >
<polygon points="243,85 248,80 288,80 288,90 248,90 243,85 " style="fill:#15d815; stroke-width:1; stroke:black; " description="&lt;b&gt;SS1G_06184&lt;/b&gt;&lt;br&gt;hypothetical protein&lt;br&gt;Location: 1559683 - 1563774&lt;br&gt;&lt;br&gt;&lt;b&gt;BlastP hit with input.path1.gene138&lt;/b&gt;&lt;br&gt;Percentage identity: 47&lt;br&gt;Percentage coverage: 96&lt;br&gt;BLAST bit score: 1097&lt;br&gt;E-value: 0.0" locus_tag="SS1G_06184" class="clusterblast-orf" id="dummy-2_h2_1_5"  />
</g>
<g id="a2_006"  >
<polygon points="313,90 465,90 470,85 465,80 313,80 313,90 " style="fill:#1515d8; stroke-width:1; stroke:black; " description="&lt;b&gt;SS1G_06185&lt;/b&gt;&lt;br&gt;hypothetical protein&lt;br&gt;Location: 1566005 - 1580195&lt;br&gt;&lt;br&gt;&lt;b&gt;BlastP hit with input.path1.gene139&lt;/b&gt;&lt;br&gt;Percentage identity: 33&lt;br&gt;Percentage coverage: 101&lt;br&gt;BLAST bit score: 2213&lt;br&gt;E-value: 0.0" locus_tag="SS1G_06185" class="clusterblast-orf" id="dummy-2_h2_1_6"  />
</g>
<g id="a2_007"  >
<polygon points="478,90 499,90 504,85 499,80 478,80 478,90 " style="fill:white; stroke-width:1; stroke:black; " description="&lt;b&gt;SS1G_06186&lt;/b&gt;&lt;br&gt;hypothetical protein&lt;br&gt;Location: 1580918 - 1583224" locus_tag="SS1G_06186" class="clusterblast-orf" id="dummy-2_h2_1_7"  />
</g>
<g id="a2_008"  >
<polygon points="510,90 521,90 526,85 521,80 510,80 510,90 " style="fill:white; stroke-width:1; stroke:black; " description="&lt;b&gt;SS1G_06187&lt;/b&gt;&lt;br&gt;predicted protein&lt;br&gt;Location: 1583808 - 1585275" locus_tag="SS1G_06187" class="clusterblast-orf" id="dummy-2_h2_1_8"  />
</g>
<g id="a2_009"  >
<polygon points="530,85 535,80 545,80 545,90 535,90 530,85 " style="fill:white; stroke-width:1; stroke:black; " description="&lt;b&gt;SS1G_06188&lt;/b&gt;&lt;br&gt;hypothetical protein&lt;br&gt;Location: 1585607 - 1586930" locus_tag="SS1G_06188" class="clusterblast-orf" id="dummy-2_h2_1_9"  />
</g>
<g id="a2_0010"  >
<polygon points="550,90 561,90 566,85 561,80 550,80 550,90 " style="fill:white; stroke-width:1; stroke:black; " description="&lt;b&gt;SS1G_06189&lt;/b&gt;&lt;br&gt;hypothetical protein&lt;br&gt;Location: 1587437 - 1588845" locus_tag="SS1G_06189" class="clusterblast-orf" id="dummy-2_h2_1_10"  />
</g>
<g id="a2_0011"  >
<polygon points="578,85 583,80 587,80 587,90 583,90 578,85 " style="fill:white; stroke-width:1; stroke:black; " description="&lt;b&gt;SS1G_06190&lt;/b&gt;&lt;br&gt;hypothetical protein&lt;br&gt;Location: 1589902 - 1590777" locus_tag="SS1G_06190" class="clusterblast-orf" id="dummy-2_h2_1_11"  />
</g>
<g id="a2_0012"  >
<polygon points="606,85 611,80 611,80 611,90 611,90 606,85 " style="fill:white; stroke-width:1; stroke:black; " description="&lt;b&gt;SS1G_06191&lt;/b&gt;&lt;br&gt;predicted protein&lt;br&gt;Location: 1592423 - 1592936" locus_tag="SS1G_06191" class="clusterblast-orf" id="dummy-2_h2_1_12"  />
</g>
<g id="a2_0013"  >
<polygon points="629,85 634,80 657,80 657,90 634,90 629,85 " style="fill:white; stroke-width:1; stroke:black; " description="&lt;b&gt;SS1G_06192&lt;/b&gt;&lt;br&gt;hypothetical protein&lt;br&gt;Location: 1594525 - 1597097" locus_tag="SS1G_06192" class="clusterblast-orf" id="dummy-2_h2_1_13"  />
</g>
<g id="a2_0014"  >
<polygon points="670,85 675,80 701,80 701,90 675,90 670,85 " style="fill:white; stroke-width:1; stroke:black; " description="&lt;b&gt;SS1G_06193&lt;/b&gt;&lt;br&gt;hypothetical protein&lt;br&gt;Location: 1598216 - 1601025" locus_tag="SS1G_06193" class="clusterblast-orf" id="dummy-2_h2_1_14"  />
</g>
<g id="a2_0015"  >
<polygon points="709,90 711,90 716,85 711,80 709,80 709,90 " style="fill:white; stroke-width:1; stroke:black; " description="&lt;b&gt;SS1G_06194&lt;/b&gt;&lt;br&gt;dynein light chain, cytoplasmic&lt;br&gt;Location: 1601712 - 1602417" locus_tag="SS1G_06194" class="clusterblast-orf" id="dummy-2_h2_1_15"  />
</g>
<g id="a2_0016"  >
<polygon points="733,85 737,80 737,90 733,85 " style="fill:white; stroke-width:1; stroke:black; " description="&lt;b&gt;SS1G_06195&lt;/b&gt;&lt;br&gt;predicted protein&lt;br&gt;Location: 1603934 - 1604239" locus_tag="SS1G_06195" class="clusterblast-orf" id="dummy-2_h2_1_16"  />
</g>
<g id="a2_0017"  >
<polygon points="756,85 761,80 780,80 780,90 761,90 756,85 " style="fill:white; stroke-width:1; stroke:black; " description="&lt;b&gt;SS1G_06196&lt;/b&gt;&lt;br&gt;hypothetical protein&lt;br&gt;Location: 1605950 - 1608106" locus_tag="SS1G_06196" class="clusterblast-orf" id="dummy-2_h2_1_17"  />
</g>
</svg>
