<svg xmlns="http://www.w3.org/2000/svg" xmlns:xlink="http://www.w3.org/1999/xlink" version="1.1" x="0" y="0" height="230" width="800" viewBox="0 0 800 230" preserveAspectRatio="none"  >
<g label="Query sequence" class="clusterblast-cluster"  >
<text x="5" y="20" class="clusterblast-acc"  >
Query sequence</text>
<line x1="10" y1="35" x2="778.0" y2="35" style="stroke-width:1; stroke:grey; "  />
<polygon points="150,40 159,40 164,35 159,30 150,30 150,40 " style="fill:#d81515; stroke-width:1; stroke:black; " description="&lt;b&gt;input.path1.gene363&lt;/b&gt;&lt;br&gt;input.path1.gene363&lt;br&gt;Location: 1342699 - 1343881" locus_tag="input.path1.gene363" class="clusterblast-orf" id="dummy-3_q0_0_all"  />
<polygon points="174,35 179,30 203,30 203,40 179,40 174,35 " style="fill:#15d815; stroke-width:1; stroke:black; " description="&lt;b&gt;input.path1.gene364&lt;/b&gt;&lt;br&gt;input.path1.gene364&lt;br&gt;Location: 1344755 - 1347151" locus_tag="input.path1.gene364" class="clusterblast-orf" id="dummy-3_q1_0_all"  />
<polygon points="217,40 223,40 228,35 223,30 217,30 217,40 " style="fill:white; stroke-width:1; stroke:black; " description="&lt;b&gt;input.path1.gene365&lt;/b&gt;&lt;br&gt;input.path1.gene365&lt;br&gt;Location: 1348314 - 1349298" locus_tag="input.path1.gene365" class="clusterblast-orf" id="dummy-3_q2_0_all"  />
<polygon points="254,40 297,40 302,35 297,30 254,30 254,40 " style="fill:#1515d8; stroke-width:1; stroke:black; " description="&lt;b&gt;input.path1.gene366&lt;/b&gt;&lt;br&gt;input.path1.gene366&lt;br&gt;Location: 1351504 - 1355567" locus_tag="input.path1.gene366" class="clusterblast-orf" id="dummy-3_q3_0_all"  />
<polygon points="305,35 310,30 327,30 327,40 310,40 305,35 " style="fill:#d815d8; stroke-width:1; stroke:black; " description="&lt;b&gt;input.path1.gene367&lt;/b&gt;&lt;br&gt;input.path1.gene367&lt;br&gt;Location: 1355808 - 1357620" locus_tag="input.path1.gene367" class="clusterblast-orf" id="dummy-3_q4_0_all"  />
<polygon points="339,35 344,30 426,30 426,40 344,40 339,35 " style="fill:#d8d815; stroke-width:1; stroke:black; " description="&lt;b&gt;input.path1.gene368&lt;/b&gt;&lt;br&gt;input.path1.gene368&lt;br&gt;Location: 1358664 - 1366019" locus_tag="input.path1.gene368" class="clusterblast-orf" id="dummy-3_q5_0_all"  />
<polygon points="540,40 555,40 560,35 555,30 540,30 540,40 " style="fill:#15d8d8; stroke-width:1; stroke:black; " description="&lt;b&gt;input.path1.gene369&lt;/b&gt;&lt;br&gt;input.path1.gene369&lt;br&gt;Location: 1375673 - 1377359" locus_tag="input.path1.gene369" class="clusterblast-orf" id="dummy-3_q6_0_all"  />
<polygon points="562,35 567,30 588,30 588,40 567,40 562,35 " style="fill:white; stroke-width:1; stroke:black; " description="&lt;b&gt;input.path1.gene370&lt;/b&gt;&lt;br&gt;input.path1.gene370&lt;br&gt;Location: 1377523 - 1379668" locus_tag="input.path1.gene370" class="clusterblast-orf" id="dummy-3_q7_0_all"  />
<polygon points="608,40 624,40 629,35 624,30 608,30 608,40 " style="fill:white; stroke-width:1; stroke:black; " description="&lt;b&gt;input.path1.gene371&lt;/b&gt;&lt;br&gt;input.path1.gene371&lt;br&gt;Location: 1381380 - 1383159" locus_tag="input.path1.gene371" class="clusterblast-orf" id="dummy-3_q8_0_all"  />
</g>
<g label="NC_070554" description="NC_070554 (1471044-1538049): Fusarium falciforme chromosome 11, complete sequ... (9% of genes show similarity), T1PKS" class="clusterblast-cluster"  >
<text x="5" y="70" class="clusterblast-acc"  >
<a xlink:href="https://antismash-db.secondarymetabolites.org/area?record=NC_070554&amp;start=1471044&amp;end=1538049" target="_blank">NC_070554 (1471044-1538049)</a>: Fusarium falciforme chromosome 11, complete sequ... (9% of genes show similarity), T1PKS</text>
<line x1="10" y1="85" x2="778.0" y2="85" style="stroke-width:1; stroke:grey; "  />
</g>
<g id="a3_000"  >
<polygon points="0,90 13,90 18,85 13,80 0,80 0,90 " style="fill:white; stroke-width:1; stroke:black; " description="&lt;b&gt;NCS54_01340100&lt;/b&gt;&lt;br&gt;Hypothetical protein&lt;br&gt;Location: 1471132 - 1472691" locus_tag="NCS54_01340100" class="clusterblast-orf" id="dummy-3_h3_8_0"  />
</g>
<g id="a3_001"  >
<polygon points="23,90 42,90 47,85 42,80 23,80 23,90 " style="fill:white; stroke-width:1; stroke:black; " description="&lt;b&gt;NCS54_01340200&lt;/b&gt;&lt;br&gt;Hypothetical protein&lt;br&gt;Location: 1473107 - 1475142" locus_tag="NCS54_01340200" class="clusterblast-orf" id="dummy-3_h3_8_1"  />
</g>
<g id="a3_002"  >
<polygon points="59,90 61,90 66,85 61,80 59,80 59,90 " style="fill:white; stroke-width:1; stroke:black; " description="&lt;b&gt;NCS54_01340300&lt;/b&gt;&lt;br&gt;Isochorismatase domain-containing protein&lt;br&gt;Location: 1476135 - 1476710" locus_tag="NCS54_01340300" class="clusterblast-orf" id="dummy-3_h3_8_2"  />
</g>
<g id="a3_003"  >
<polygon points="112,85 117,80 127,80 127,90 117,90 112,85 " style="fill:white; stroke-width:1; stroke:black; " description="&lt;b&gt;NCS54_01340400&lt;/b&gt;&lt;br&gt;Hypothetical protein&lt;br&gt;Location: 1480641 - 1481936" locus_tag="NCS54_01340400" class="clusterblast-orf" id="dummy-3_h3_8_3"  />
</g>
<g id="a3_004"  >
<polygon points="188,90 199,90 204,85 199,80 188,80 188,90 " style="fill:white; stroke-width:1; stroke:black; " description="&lt;b&gt;NCS54_01340500&lt;/b&gt;&lt;br&gt;Hypothetical protein&lt;br&gt;Location: 1487026 - 1488437" locus_tag="NCS54_01340500" class="clusterblast-orf" id="dummy-3_h3_8_4"  />
</g>
<g id="a3_005"  >
<polygon points="226,90 235,90 240,85 235,80 226,80 226,90 " style="fill:white; stroke-width:1; stroke:black; " description="&lt;b&gt;NCS54_01340600&lt;/b&gt;&lt;br&gt;Hypothetical protein&lt;br&gt;Location: 1490276 - 1491415" locus_tag="NCS54_01340600" class="clusterblast-orf" id="dummy-3_h3_8_5"  />
</g>
<g id="a3_006"  >
<polygon points="260,90 272,90 277,85 272,80 260,80 260,90 " style="fill:white; stroke-width:1; stroke:black; " description="&lt;b&gt;NCS54_01340700&lt;/b&gt;&lt;br&gt;ZnMc domain-containing protein&lt;br&gt;Location: 1493165 - 1494591" locus_tag="NCS54_01340700" class="clusterblast-orf" id="dummy-3_h3_8_6"  />
</g>
<g id="a3_007"  >
<polygon points="293,85 298,80 298,80 298,90 298,90 293,85 " style="fill:white; stroke-width:1; stroke:black; " description="&lt;b&gt;NCS54_01340800&lt;/b&gt;&lt;br&gt;HET domain-containing protein&lt;br&gt;Location: 1495909 - 1496337" locus_tag="NCS54_01340800" class="clusterblast-orf" id="dummy-3_h3_8_7"  />
</g>
<g id="a3_008"  >
<polygon points="316,90 320,90 325,85 320,80 316,80 316,90 " style="fill:white; stroke-width:1; stroke:black; " description="&lt;b&gt;NCS54_01340900&lt;/b&gt;&lt;br&gt;Hypothetical protein&lt;br&gt;Location: 1497908 - 1498591" locus_tag="NCS54_01340900" class="clusterblast-orf" id="dummy-3_h3_8_8"  />
</g>
<g id="a3_009"  >
<polygon points="338,90 346,90 351,85 346,80 338,80 338,90 " style="fill:white; stroke-width:1; stroke:black; " description="&lt;b&gt;NCS54_01341000&lt;/b&gt;&lt;br&gt;2EXR domain-containing protein&lt;br&gt;Location: 1499750 - 1500844" locus_tag="NCS54_01341000" class="clusterblast-orf" id="dummy-3_h3_8_9"  />
</g>
<g id="a3_0010"  >
<polygon points="354,85 359,80 437,80 437,90 359,90 354,85 " style="fill:#d8d815; stroke-width:1; stroke:black; " description="&lt;b&gt;NCS54_01341100&lt;/b&gt;&lt;br&gt;Carrier domain-containing protein&lt;br&gt;Location: 1501045 - 1508049&lt;br&gt;&lt;br&gt;&lt;b&gt;BlastP hit with input.path1.gene368&lt;/b&gt;&lt;br&gt;Percentage identity: 54&lt;br&gt;Percentage coverage: 100&lt;br&gt;BLAST bit score: 2528&lt;br&gt;E-value: 0.0" locus_tag="NCS54_01341100" class="clusterblast-orf" id="dummy-3_h3_8_10"  />
</g>
<g id="a3_0011"  >
<polygon points="451,85 456,80 462,80 462,90 456,90 451,85 " style="fill:white; stroke-width:1; stroke:black; " description="&lt;b&gt;NCS54_01341200&lt;/b&gt;&lt;br&gt;FSH1 domain-containing protein&lt;br&gt;Location: 1509301 - 1510236" locus_tag="NCS54_01341200" class="clusterblast-orf" id="dummy-3_h3_8_11"  />
</g>
<g id="a3_0012"  >
<polygon points="467,90 482,90 487,85 482,80 467,80 467,90 " style="fill:#15d8d8; stroke-width:1; stroke:black; " description="&lt;b&gt;NCS54_01341300&lt;/b&gt;&lt;br&gt;Hypothetical protein&lt;br&gt;Location: 1510621 - 1512274&lt;br&gt;&lt;br&gt;&lt;b&gt;BlastP hit with input.path1.gene369&lt;/b&gt;&lt;br&gt;Percentage identity: 41&lt;br&gt;Percentage coverage: 98&lt;br&gt;BLAST bit score: 399&lt;br&gt;E-value: 3.22e-132" locus_tag="NCS54_01341300" class="clusterblast-orf" id="dummy-3_h3_8_12"  />
</g>
<g id="a3_0013"  >
<polygon points="504,90 514,90 519,85 514,80 504,80 504,90 " style="fill:white; stroke-width:1; stroke:black; " description="&lt;b&gt;NCS54_01341400&lt;/b&gt;&lt;br&gt;Hypothetical protein&lt;br&gt;Location: 1513736 - 1515052" locus_tag="NCS54_01341400" class="clusterblast-orf" id="dummy-3_h3_8_13"  />
</g>
<g id="a3_0014"  >
<polygon points="522,85 527,80 535,80 535,90 527,90 522,85 " style="fill:white; stroke-width:1; stroke:black; " description="&lt;b&gt;NCS54_01341500&lt;/b&gt;&lt;br&gt;Hypothetical protein&lt;br&gt;Location: 1515233 - 1516391" locus_tag="NCS54_01341500" class="clusterblast-orf" id="dummy-3_h3_8_14"  />
</g>
<g id="a3_0015"  >
<polygon points="563,90 594,90 599,85 594,80 563,80 563,90 " style="fill:white; stroke-width:1; stroke:black; " description="&lt;b&gt;NCS54_01341600&lt;/b&gt;&lt;br&gt;Hypothetical protein&lt;br&gt;Location: 1518758 - 1521777" locus_tag="NCS54_01341600" class="clusterblast-orf" id="dummy-3_h3_8_15"  />
</g>
<g id="a3_0016"  >
<polygon points="620,90 635,90 640,85 635,80 620,80 620,90 " style="fill:white; stroke-width:1; stroke:black; " description="&lt;b&gt;NCS54_01341700&lt;/b&gt;&lt;br&gt;Ammonium transporter&lt;br&gt;Location: 1523534 - 1525219" locus_tag="NCS54_01341700" class="clusterblast-orf" id="dummy-3_h3_8_16"  />
</g>
<g id="a3_0017"  >
<polygon points="642,85 647,80 654,80 654,90 647,90 642,85 " style="fill:white; stroke-width:1; stroke:black; " description="&lt;b&gt;NCS54_01341800&lt;/b&gt;&lt;br&gt;APH domain-containing protein&lt;br&gt;Location: 1525444 - 1526430" locus_tag="NCS54_01341800" class="clusterblast-orf" id="dummy-3_h3_8_17"  />
</g>
<g id="a3_0018"  >
<polygon points="676,85 681,80 704,80 704,90 681,90 676,85 " style="fill:white; stroke-width:1; stroke:black; " description="&lt;b&gt;NCS54_01341900&lt;/b&gt;&lt;br&gt;Hypothetical protein&lt;br&gt;Location: 1528314 - 1530627" locus_tag="NCS54_01341900" class="clusterblast-orf" id="dummy-3_h3_8_18"  />
</g>
<g id="a3_0019"  >
<polygon points="710,90 722,90 727,85 722,80 710,80 710,90 " style="fill:white; stroke-width:1; stroke:black; " description="&lt;b&gt;NCS54_01342000&lt;/b&gt;&lt;br&gt;Hypothetical protein&lt;br&gt;Location: 1531172 - 1532572" locus_tag="NCS54_01342000" class="clusterblast-orf" id="dummy-3_h3_8_19"  />
</g>
<g id="a3_0020"  >
<polygon points="735,90 748,90 753,85 748,80 735,80 735,90 " style="fill:white; stroke-width:1; stroke:black; " description="&lt;b&gt;NCS54_01342100&lt;/b&gt;&lt;br&gt;Bac-luciferase domain-containing protein&lt;br&gt;Location: 1533287 - 1534738" locus_tag="NCS54_01342100" class="clusterblast-orf" id="dummy-3_h3_8_20"  />
</g>
<g id="a3_0021"  >
<polygon points="754,85 759,80 780,80 780,90 759,90 754,85 " style="fill:white; stroke-width:1; stroke:black; " description="&lt;b&gt;NCS54_01342200&lt;/b&gt;&lt;br&gt;Zn(2)-C6 fungal-type domain-containing protein&lt;br&gt;Location: 1534828 - 1537017" locus_tag="NCS54_01342200" class="clusterblast-orf" id="dummy-3_h3_8_21"  />
</g>
</svg>
