<svg xmlns="http://www.w3.org/2000/svg" xmlns:xlink="http://www.w3.org/1999/xlink" version="1.1" x="0" y="0" height="50" width="800" viewBox="0 0 800 50" preserveAspectRatio="none"  >
<g label="Query sequence" class="clusterblast-cluster"  >
<text x="5" y="20" class="clusterblast-acc"  >
Query sequence</text>
<line x1="10" y1="35" x2="778.0" y2="35" style="stroke-width:1; stroke:grey; "  />
<polygon points="0,40 6,40 11,35 6,30 0,30 0,40 " style="fill:white; stroke-width:1; stroke:black; " description="&lt;b&gt;input.path1.gene81&lt;/b&gt;&lt;br&gt;input.path1.gene81&lt;br&gt;Location: 295998 - 296867" locus_tag="input.path1.gene81" class="clusterblast-orf" id="subclusterblast-1_q0_0_all"  />
<polygon points="21,35 26,30 87,30 87,40 26,40 21,35 " style="fill:white; stroke-width:1; stroke:black; " description="&lt;b&gt;input.path1.gene82&lt;/b&gt;&lt;br&gt;input.path1.gene82&lt;br&gt;Location: 297602 - 302499" locus_tag="input.path1.gene82" class="clusterblast-orf" id="subclusterblast-1_q1_0_all"  />
<polygon points="103,40 110,40 115,35 110,30 103,30 103,40 " style="fill:white; stroke-width:1; stroke:black; " description="&lt;b&gt;input.path1.gene83&lt;/b&gt;&lt;br&gt;input.path1.gene83&lt;br&gt;Location: 303666 - 304607" locus_tag="input.path1.gene83" class="clusterblast-orf" id="subclusterblast-1_q2_0_all"  />
<polygon points="116,40 157,40 162,35 157,30 116,30 116,40 " style="fill:white; stroke-width:1; stroke:black; " description="&lt;b&gt;input.path1.gene84&lt;/b&gt;&lt;br&gt;input.path1.gene84&lt;br&gt;Location: 304697 - 308114" locus_tag="input.path1.gene84" class="clusterblast-orf" id="subclusterblast-1_q3_0_all"  />
<polygon points="175,35 180,30 221,30 221,40 180,40 175,35 " style="fill:white; stroke-width:1; stroke:black; " description="&lt;b&gt;input.path1.gene85&lt;/b&gt;&lt;br&gt;input.path1.gene85&lt;br&gt;Location: 309028 - 312475" locus_tag="input.path1.gene85" class="clusterblast-orf" id="subclusterblast-1_q4_0_all"  />
<polygon points="264,35 269,30 286,30 286,40 269,40 264,35 " style="fill:white; stroke-width:1; stroke:black; " description="&lt;b&gt;input.path1.gene86&lt;/b&gt;&lt;br&gt;input.path1.gene86&lt;br&gt;Location: 315655 - 317318" locus_tag="input.path1.gene86" class="clusterblast-orf" id="subclusterblast-1_q5_0_all"  />
<polygon points="346,40 539,40 544,35 539,30 346,30 346,40 " style="fill:white; stroke-width:1; stroke:black; " description="&lt;b&gt;input.path1.gene87&lt;/b&gt;&lt;br&gt;input.path1.gene87&lt;br&gt;Location: 321784 - 336547" locus_tag="input.path1.gene87" class="clusterblast-orf" id="subclusterblast-1_q6_0_all"  />
<polygon points="552,35 557,30 574,30 574,40 557,40 552,35 " style="fill:white; stroke-width:1; stroke:black; " description="&lt;b&gt;input.path1.gene88&lt;/b&gt;&lt;br&gt;input.path1.gene88&lt;br&gt;Location: 337115 - 338753" locus_tag="input.path1.gene88" class="clusterblast-orf" id="subclusterblast-1_q7_0_all"  />
<polygon points="617,40 633,40 638,35 633,30 617,30 617,40 " style="fill:white; stroke-width:1; stroke:black; " description="&lt;b&gt;input.path1.gene89&lt;/b&gt;&lt;br&gt;input.path1.gene89&lt;br&gt;Location: 342013 - 343543" locus_tag="input.path1.gene89" class="clusterblast-orf" id="subclusterblast-1_q8_0_all"  />
<polygon points="642,40 644,40 649,35 644,30 642,30 642,40 " style="fill:white; stroke-width:1; stroke:black; " description="&lt;b&gt;input.path1.gene90&lt;/b&gt;&lt;br&gt;input.path1.gene90&lt;br&gt;Location: 343843 - 344357" locus_tag="input.path1.gene90" class="clusterblast-orf" id="subclusterblast-1_q9_0_all"  />
<polygon points="658,35 663,30 689,30 689,40 663,40 658,35 " style="fill:white; stroke-width:1; stroke:black; " description="&lt;b&gt;input.path1.gene91&lt;/b&gt;&lt;br&gt;input.path1.gene91&lt;br&gt;Location: 345054 - 347316" locus_tag="input.path1.gene91" class="clusterblast-orf" id="subclusterblast-1_q10_0_all"  />
<polygon points="714,40 714,40 719,35 714,30 714,30 714,40 " style="fill:white; stroke-width:1; stroke:black; " description="&lt;b&gt;input.path1.gene92&lt;/b&gt;&lt;br&gt;input.path1.gene92&lt;br&gt;Location: 349182 - 349611" locus_tag="input.path1.gene92" class="clusterblast-orf" id="subclusterblast-1_q11_0_all"  />
<polygon points="725,35 730,30 749,30 749,40 730,40 725,35 " style="fill:white; stroke-width:1; stroke:black; " description="&lt;b&gt;input.path1.gene93&lt;/b&gt;&lt;br&gt;input.path1.gene93&lt;br&gt;Location: 350025 - 351786" locus_tag="input.path1.gene93" class="clusterblast-orf" id="subclusterblast-1_q12_0_all"  />
<polygon points="761,35 766,30 780,30 780,40 766,40 761,35 " style="fill:white; stroke-width:1; stroke:black; " description="&lt;b&gt;input.path1.gene94&lt;/b&gt;&lt;br&gt;input.path1.gene94&lt;br&gt;Location: 352694 - 354102" locus_tag="input.path1.gene94" class="clusterblast-orf" id="subclusterblast-1_q13_0_all"  />
</g>
</svg>
