<svg xmlns="http://www.w3.org/2000/svg" xmlns:xlink="http://www.w3.org/1999/xlink" version="1.1" x="0" y="0" height="230" width="800" viewBox="0 0 800 230" preserveAspectRatio="none"  >
<g label="Query sequence" class="clusterblast-cluster"  >
<text x="5" y="20" class="clusterblast-acc"  >
Query sequence</text>
<line x1="10" y1="35" x2="778.0" y2="35" style="stroke-width:1; stroke:grey; "  />
<polygon points="147,35 152,30 153,30 153,40 152,40 147,35 " style="fill:white; stroke-width:1; stroke:black; " description="&lt;b&gt;input.path1.gene817&lt;/b&gt;&lt;br&gt;input.path1.gene817&lt;br&gt;Location: 3053386 - 3054202" locus_tag="input.path1.gene817" class="clusterblast-orf" id="dummy-2_q0_0_all"  />
<polygon points="162,35 167,30 167,30 167,40 167,40 162,35 " style="fill:white; stroke-width:1; stroke:black; " description="&lt;b&gt;input.path1.gene818&lt;/b&gt;&lt;br&gt;input.path1.gene818&lt;br&gt;Location: 3055488 - 3056183" locus_tag="input.path1.gene818" class="clusterblast-orf" id="dummy-2_q1_0_all"  />
<polygon points="182,40 210,40 215,35 210,30 182,30 182,40 " style="fill:#d81515; stroke-width:1; stroke:black; " description="&lt;b&gt;input.path1.gene819&lt;/b&gt;&lt;br&gt;input.path1.gene819&lt;br&gt;Location: 3058156 - 3062683" locus_tag="input.path1.gene819" class="clusterblast-orf" id="dummy-2_q2_0_all"  />
<polygon points="219,40 225,40 230,35 225,30 219,30 219,40 " style="fill:white; stroke-width:1; stroke:black; " description="&lt;b&gt;input.path1.gene820&lt;/b&gt;&lt;br&gt;input.path1.gene820&lt;br&gt;Location: 3063261 - 3064846" locus_tag="input.path1.gene820" class="clusterblast-orf" id="dummy-2_q3_0_all"  />
<polygon points="233,35 238,30 241,30 241,40 238,40 233,35 " style="fill:white; stroke-width:1; stroke:black; " description="&lt;b&gt;input.path1.gene821&lt;/b&gt;&lt;br&gt;input.path1.gene821&lt;br&gt;Location: 3065253 - 3066330" locus_tag="input.path1.gene821" class="clusterblast-orf" id="dummy-2_q4_0_all"  />
<polygon points="250,35 255,30 265,30 265,40 255,40 250,35 " style="fill:white; stroke-width:1; stroke:black; " description="&lt;b&gt;input.path1.gene822&lt;/b&gt;&lt;br&gt;input.path1.gene822&lt;br&gt;Location: 3067574 - 3069606" locus_tag="input.path1.gene822" class="clusterblast-orf" id="dummy-2_q5_0_all"  />
<polygon points="272,35 277,30 280,30 280,40 277,40 272,35 " style="fill:white; stroke-width:1; stroke:black; " description="&lt;b&gt;input.path1.gene823&lt;/b&gt;&lt;br&gt;input.path1.gene823&lt;br&gt;Location: 3070518 - 3071601" locus_tag="input.path1.gene823" class="clusterblast-orf" id="dummy-2_q6_0_all"  />
<polygon points="283,40 286,40 291,35 286,30 283,30 283,40 " style="fill:white; stroke-width:1; stroke:black; " description="&lt;b&gt;input.path1.gene824&lt;/b&gt;&lt;br&gt;input.path1.gene824&lt;br&gt;Location: 3072063 - 3073123" locus_tag="input.path1.gene824" class="clusterblast-orf" id="dummy-2_q7_0_all"  />
<polygon points="293,35 298,30 299,30 299,40 298,40 293,35 " style="fill:#77d815; stroke-width:1; stroke:black; " description="&lt;b&gt;input.path1.gene825&lt;/b&gt;&lt;br&gt;input.path1.gene825&lt;br&gt;Location: 3073484 - 3074259" locus_tag="input.path1.gene825" class="clusterblast-orf" id="dummy-2_q8_0_all"  />
<polygon points="318,35 323,30 332,30 332,40 323,40 318,35 " style="fill:#15d8d8; stroke-width:1; stroke:black; " description="&lt;b&gt;input.path1.gene826&lt;/b&gt;&lt;br&gt;input.path1.gene826&lt;br&gt;Location: 3076849 - 3078830" locus_tag="input.path1.gene826" class="clusterblast-orf" id="dummy-2_q9_0_all"  />
<polygon points="351,35 356,30 359,30 359,40 356,40 351,35 " style="fill:white; stroke-width:1; stroke:black; " description="&lt;b&gt;input.path1.gene827&lt;/b&gt;&lt;br&gt;input.path1.gene827&lt;br&gt;Location: 3081409 - 3082435" locus_tag="input.path1.gene827" class="clusterblast-orf" id="dummy-2_q10_0_all"  />
<polygon points="363,40 368,40 373,35 368,30 363,30 363,40 " style="fill:#7715d8; stroke-width:1; stroke:black; " description="&lt;b&gt;input.path1.gene828&lt;/b&gt;&lt;br&gt;input.path1.gene828&lt;br&gt;Location: 3083083 - 3084388" locus_tag="input.path1.gene828" class="clusterblast-orf" id="dummy-2_q11_0_all"  />
<polygon points="374,35 379,30 429,30 429,40 379,40 374,35 " style="fill:#7715d8; stroke-width:1; stroke:black; " description="&lt;b&gt;input.path1.gene829&lt;/b&gt;&lt;br&gt;input.path1.gene829&lt;br&gt;Location: 3084625 - 3092111" locus_tag="input.path1.gene829" class="clusterblast-orf" id="dummy-2_q12_0_all"  />
<polygon points="437,40 441,35 437,30 437,40 " style="fill:white; stroke-width:1; stroke:black; " description="&lt;b&gt;input.path1.gene830&lt;/b&gt;&lt;br&gt;input.path1.gene830&lt;br&gt;Location: 3093268 - 3093760" locus_tag="input.path1.gene830" class="clusterblast-orf" id="dummy-2_q13_0_all"  />
<polygon points="485,35 490,30 491,30 491,40 490,40 485,35 " style="fill:white; stroke-width:1; stroke:black; " description="&lt;b&gt;input.path1.gene831&lt;/b&gt;&lt;br&gt;input.path1.gene831&lt;br&gt;Location: 3099820 - 3100550" locus_tag="input.path1.gene831" class="clusterblast-orf" id="dummy-2_q14_0_all"  />
<polygon points="497,35 502,30 516,30 516,40 502,40 497,35 " style="fill:white; stroke-width:1; stroke:black; " description="&lt;b&gt;input.path1.gene832&lt;/b&gt;&lt;br&gt;input.path1.gene832&lt;br&gt;Location: 3101435 - 3103980" locus_tag="input.path1.gene832" class="clusterblast-orf" id="dummy-2_q15_0_all"  />
<polygon points="525,40 534,40 539,35 534,30 525,30 525,40 " style="fill:white; stroke-width:1; stroke:black; " description="&lt;b&gt;input.path1.gene833&lt;/b&gt;&lt;br&gt;input.path1.gene833&lt;br&gt;Location: 3105212 - 3107233" locus_tag="input.path1.gene833" class="clusterblast-orf" id="dummy-2_q16_0_all"  />
<polygon points="540,35 545,30 548,30 548,40 545,40 540,35 " style="fill:white; stroke-width:1; stroke:black; " description="&lt;b&gt;input.path1.gene834&lt;/b&gt;&lt;br&gt;input.path1.gene834&lt;br&gt;Location: 3107361 - 3108484" locus_tag="input.path1.gene834" class="clusterblast-orf" id="dummy-2_q17_0_all"  />
<polygon points="567,35 569,30 569,40 567,35 " style="fill:white; stroke-width:1; stroke:black; " description="&lt;b&gt;input.path1.gene835&lt;/b&gt;&lt;br&gt;input.path1.gene835&lt;br&gt;Location: 3111035 - 3111307" locus_tag="input.path1.gene835" class="clusterblast-orf" id="dummy-2_q18_0_all"  />
<polygon points="572,40 583,40 588,35 583,30 572,30 572,40 " style="fill:white; stroke-width:1; stroke:black; " description="&lt;b&gt;input.path1.gene836&lt;/b&gt;&lt;br&gt;input.path1.gene836&lt;br&gt;Location: 3111732 - 3113887" locus_tag="input.path1.gene836" class="clusterblast-orf" id="dummy-2_q19_0_all"  />
<polygon points="592,40 603,40 608,35 603,30 592,30 592,40 " style="fill:white; stroke-width:1; stroke:black; " description="&lt;b&gt;input.path1.gene837&lt;/b&gt;&lt;br&gt;input.path1.gene837&lt;br&gt;Location: 3114457 - 3116688" locus_tag="input.path1.gene837" class="clusterblast-orf" id="dummy-2_q20_0_all"  />
<polygon points="616,35 621,30 632,30 632,40 621,40 616,35 " style="fill:white; stroke-width:1; stroke:black; " description="&lt;b&gt;input.path1.gene838&lt;/b&gt;&lt;br&gt;input.path1.gene838&lt;br&gt;Location: 3117817 - 3120006" locus_tag="input.path1.gene838" class="clusterblast-orf" id="dummy-2_q21_0_all"  />
</g>
<g label="NC_030959" description="NC_030959 (4385741-4495530): Colletotrichum higginsianum IMI 349063 chromosom... (14% of genes show similarity), T1PKS,fungal-RiPP-like" class="clusterblast-cluster"  >
<text x="5" y="70" class="clusterblast-acc"  >
<a xlink:href="https://antismash-db.secondarymetabolites.org/area?record=NC_030959&amp;start=4385741&amp;end=4495530" target="_blank">NC_030959 (4385741-4495530)</a>: Colletotrichum higginsianum IMI 349063 chromosom... (14% of genes show similarity), T1PKS,fungal-RiPP-like</text>
<line x1="10" y1="85" x2="778.0" y2="85" style="stroke-width:1; stroke:grey; "  />
</g>
<g id="a2_000"  >
<polygon points="0,90 15,90 20,85 15,80 0,80 0,90 " style="fill:white; stroke-width:1; stroke:black; " description="&lt;b&gt;CH63R_09663&lt;/b&gt;&lt;br&gt;FAD binding domain-containing protein&lt;br&gt;Location: 4387627 - 4390463" locus_tag="CH63R_09663" class="clusterblast-orf" id="dummy-2_h2_2_0"  />
</g>
<g id="a2_001"  >
<polygon points="23,90 25,90 30,85 25,80 23,80 23,90 " style="fill:white; stroke-width:1; stroke:black; " description="&lt;b&gt;CH63R_09664&lt;/b&gt;&lt;br&gt;Thiol-disulfide exchange intermediate&lt;br&gt;Location: 4390847 - 4391743" locus_tag="CH63R_09664" class="clusterblast-orf" id="dummy-2_h2_2_1"  />
</g>
<g id="a2_002"  >
<polygon points="38,90 43,90 48,85 43,80 38,80 38,90 " style="fill:white; stroke-width:1; stroke:black; " description="&lt;b&gt;CH63R_09665&lt;/b&gt;&lt;br&gt;Alternative oxidase&lt;br&gt;Location: 4392880 - 4394283" locus_tag="CH63R_09665" class="clusterblast-orf" id="dummy-2_h2_2_2"  />
</g>
<g id="a2_003"  >
<polygon points="60,85 65,80 69,80 69,90 65,90 60,85 " style="fill:white; stroke-width:1; stroke:black; " description="&lt;b&gt;CH63R_09666&lt;/b&gt;&lt;br&gt;ankyrin repeat domain-containing protein&lt;br&gt;Location: 4395928 - 4397186" locus_tag="CH63R_09666" class="clusterblast-orf" id="dummy-2_h2_2_3"  />
</g>
<g id="a2_004"  >
<polygon points="98,85 103,80 103,80 103,90 103,90 98,85 " style="fill:white; stroke-width:1; stroke:black; " description="&lt;b&gt;CH63R_09667&lt;/b&gt;&lt;br&gt;hypothetical protein&lt;br&gt;Location: 4401114 - 4401763" locus_tag="CH63R_09667" class="clusterblast-orf" id="dummy-2_h2_2_4"  />
</g>
<g id="a2_005"  >
<polygon points="139,85 144,80 157,80 157,90 144,90 139,85 " style="fill:white; stroke-width:1; stroke:black; " description="&lt;b&gt;CH63R_09668&lt;/b&gt;&lt;br&gt;amine oxidase&lt;br&gt;Location: 4406710 - 4409225" locus_tag="CH63R_09668" class="clusterblast-orf" id="dummy-2_h2_2_5"  />
</g>
<g id="a2_006"  >
<polygon points="170,90 179,90 184,85 179,80 170,80 170,90 " style="fill:white; stroke-width:1; stroke:black; " description="&lt;b&gt;CH63R_09669&lt;/b&gt;&lt;br&gt;Thiamine pyrophosphate enzyme&lt;br&gt;Location: 4411073 - 4412992" locus_tag="CH63R_09669" class="clusterblast-orf" id="dummy-2_h2_2_6"  />
</g>
<g id="a2_007"  >
<polygon points="189,90 208,90 213,85 208,80 189,80 189,90 " style="fill:white; stroke-width:1; stroke:black; " description="&lt;b&gt;CH63R_09670&lt;/b&gt;&lt;br&gt;Heterokaryon incompatibility protein&lt;br&gt;Location: 4413640 - 4416938" locus_tag="CH63R_09670" class="clusterblast-orf" id="dummy-2_h2_2_7"  />
</g>
<g id="a2_008"  >
<polygon points="229,85 234,80 238,80 238,90 234,90 229,85 " style="fill:white; stroke-width:1; stroke:black; " description="&lt;b&gt;CH63R_09671&lt;/b&gt;&lt;br&gt;hypothetical protein&lt;br&gt;Location: 4419062 - 4420288" locus_tag="CH63R_09671" class="clusterblast-orf" id="dummy-2_h2_2_8"  />
</g>
<g id="a2_009"  >
<polygon points="238,85 241,80 241,90 238,85 " style="fill:white; stroke-width:1; stroke:black; " description="&lt;b&gt;CH63R_09672&lt;/b&gt;&lt;br&gt;hypothetical protein&lt;br&gt;Location: 4420367 - 4420789" locus_tag="CH63R_09672" class="clusterblast-orf" id="dummy-2_h2_2_9"  />
</g>
<g id="a2_0010"  >
<polygon points="245,85 250,80 262,80 262,90 250,90 245,85 " style="fill:white; stroke-width:1; stroke:black; " description="&lt;b&gt;CH63R_09673&lt;/b&gt;&lt;br&gt;HET domain-containing protein&lt;br&gt;Location: 4421339 - 4423620" locus_tag="CH63R_09673" class="clusterblast-orf" id="dummy-2_h2_2_10"  />
</g>
<g id="a2_0011"  >
<polygon points="280,90 288,90 293,85 288,80 280,80 280,90 " style="fill:white; stroke-width:1; stroke:black; " description="&lt;b&gt;CH63R_09674&lt;/b&gt;&lt;br&gt;hypothetical protein&lt;br&gt;Location: 4426061 - 4427869" locus_tag="CH63R_09674" class="clusterblast-orf" id="dummy-2_h2_2_11"  />
</g>
<g id="a2_0012"  >
<polygon points="304,90 305,90 310,85 305,80 304,80 304,90 " style="fill:white; stroke-width:1; stroke:black; " description="&lt;b&gt;CH63R_09675&lt;/b&gt;&lt;br&gt;Pro-kumamolisin&lt;br&gt;Location: 4429446 - 4430250" locus_tag="CH63R_09675" class="clusterblast-orf" id="dummy-2_h2_2_12"  />
</g>
<g id="a2_0013"  >
<polygon points="314,85 319,80 323,80 323,90 319,90 314,85 " style="fill:#7715d8; stroke-width:1; stroke:black; " description="&lt;b&gt;CH63R_09676&lt;/b&gt;&lt;br&gt;Tat pathway signal sequence&lt;br&gt;Location: 4430742 - 4431983&lt;br&gt;&lt;br&gt;&lt;b&gt;BlastP hit with input.path1.gene829&lt;/b&gt;&lt;br&gt;Percentage identity: 64&lt;br&gt;Percentage coverage: 12&lt;br&gt;BLAST bit score: 231&lt;br&gt;E-value: 1.91e-65" locus_tag="CH63R_09676" class="clusterblast-orf" id="dummy-2_h2_2_13"  />
</g>
<g id="a2_0014"  >
<polygon points="327,90 344,90 349,85 344,80 327,80 327,90 " style="fill:#77d815; stroke-width:1; stroke:black; " description="&lt;b&gt;CH63R_09677&lt;/b&gt;&lt;br&gt;Oligopeptide transporter&lt;br&gt;Location: 4432576 - 4435536&lt;br&gt;&lt;br&gt;&lt;b&gt;BlastP hit with input.path1.gene825&lt;/b&gt;&lt;br&gt;Percentage identity: 46&lt;br&gt;Percentage coverage: 108&lt;br&gt;BLAST bit score: 168&lt;br&gt;E-value: 3.15e-46" locus_tag="CH63R_09677" class="clusterblast-orf" id="dummy-2_h2_2_14"  />
</g>
<g id="a2_0015"  >
<polygon points="352,85 357,80 366,80 366,90 357,90 352,85 " style="fill:#15d8d8; stroke-width:1; stroke:black; " description="&lt;b&gt;CH63R_09678&lt;/b&gt;&lt;br&gt;Pro-kumamolisin&lt;br&gt;Location: 4436026 - 4437912&lt;br&gt;&lt;br&gt;&lt;b&gt;BlastP hit with input.path1.gene826&lt;/b&gt;&lt;br&gt;Percentage identity: 43&lt;br&gt;Percentage coverage: 100&lt;br&gt;BLAST bit score: 484&lt;br&gt;E-value: 2.55e-162" locus_tag="CH63R_09678" class="clusterblast-orf" id="dummy-2_h2_2_15"  />
</g>
<g id="a2_0016"  >
<polygon points="372,90 376,90 381,85 376,80 372,80 372,90 " style="fill:#7715d8; stroke-width:1; stroke:black; " description="&lt;b&gt;CH63R_09679&lt;/b&gt;&lt;br&gt;Tat pathway signal sequence&lt;br&gt;Location: 4438709 - 4439992&lt;br&gt;&lt;br&gt;&lt;b&gt;BlastP hit with input.path1.gene829&lt;/b&gt;&lt;br&gt;Percentage identity: 62&lt;br&gt;Percentage coverage: 11&lt;br&gt;BLAST bit score: 193&lt;br&gt;E-value: 4.98e-53" locus_tag="CH63R_09679" class="clusterblast-orf" id="dummy-2_h2_2_16"  />
</g>
<g id="a2_0017"  >
<polygon points="389,85 394,80 398,80 398,90 394,90 389,85 " style="fill:#15d8d8; stroke-width:1; stroke:black; " description="&lt;b&gt;CH63R_09680&lt;/b&gt;&lt;br&gt;Pro-kumamolisin&lt;br&gt;Location: 4441009 - 4442224&lt;br&gt;&lt;br&gt;&lt;b&gt;BlastP hit with input.path1.gene826&lt;/b&gt;&lt;br&gt;Percentage identity: 55&lt;br&gt;Percentage coverage: 50&lt;br&gt;BLAST bit score: 358&lt;br&gt;E-value: 3.7e-117" locus_tag="CH63R_09680" class="clusterblast-orf" id="dummy-2_h2_2_17"  />
</g>
<g id="a2_0018"  >
<polygon points="428,85 433,80 437,80 437,90 433,90 428,85 " style="fill:white; stroke-width:1; stroke:black; " description="&lt;b&gt;CH63R_09681&lt;/b&gt;&lt;br&gt;Zinc-binding dehydrogenase family&lt;br&gt;Location: 4446415 - 4447594" locus_tag="CH63R_09681" class="clusterblast-orf" id="dummy-2_h2_2_18"  />
</g>
<g id="a2_0019"  >
<polygon points="441,90 445,85 441,80 441,90 " style="fill:white; stroke-width:1; stroke:black; " description="&lt;b&gt;CH63R_09682&lt;/b&gt;&lt;br&gt;Hemoglobin&lt;br&gt;Location: 4448176 - 4448706" locus_tag="CH63R_09682" class="clusterblast-orf" id="dummy-2_h2_2_19"  />
</g>
<g id="a2_0020"  >
<polygon points="447,90 453,90 458,85 453,80 447,80 447,90 " style="fill:white; stroke-width:1; stroke:black; " description="&lt;b&gt;CH63R_09683&lt;/b&gt;&lt;br&gt;Integral membrane protein&lt;br&gt;Location: 4449059 - 4450480" locus_tag="CH63R_09683" class="clusterblast-orf" id="dummy-2_h2_2_20"  />
</g>
<g id="a2_0021"  >
<polygon points="459,85 464,80 465,80 465,90 464,90 459,85 " style="fill:white; stroke-width:1; stroke:black; " description="&lt;b&gt;CH63R_09684&lt;/b&gt;&lt;br&gt;Citrinin biosynthesis oxydoreductase CtnB&lt;br&gt;Location: 4450673 - 4451450" locus_tag="CH63R_09684" class="clusterblast-orf" id="dummy-2_h2_2_21"  />
</g>
<g id="a2_0022"  >
<polygon points="469,90 472,90 477,85 472,80 469,80 469,90 " style="fill:white; stroke-width:1; stroke:black; " description="&lt;b&gt;CH63R_09685&lt;/b&gt;&lt;br&gt;Alpha-ketoglutarate-dependent- dichlorophenoxyacetate&lt;br&gt;Location: 4451987 - 4453187" locus_tag="CH63R_09685" class="clusterblast-orf" id="dummy-2_h2_2_22"  />
</g>
<g id="a2_0023"  >
<polygon points="481,85 486,80 497,80 497,90 486,90 481,85 " style="fill:white; stroke-width:1; stroke:black; " description="&lt;b&gt;CH63R_09686&lt;/b&gt;&lt;br&gt;Efflux pump&lt;br&gt;Location: 4453634 - 4455822" locus_tag="CH63R_09686" class="clusterblast-orf" id="dummy-2_h2_2_23"  />
</g>
<g id="a2_0024"  >
<polygon points="507,90 562,90 567,85 562,80 507,80 507,90 " style="fill:white; stroke-width:1; stroke:black; " description="&lt;b&gt;CH63R_09687&lt;/b&gt;&lt;br&gt;Polyketide synthase/peptide synthetase&lt;br&gt;Location: 4457196 - 4465530" locus_tag="CH63R_09687" class="clusterblast-orf" id="dummy-2_h2_2_24"  />
</g>
<g id="a2_0025"  >
<polygon points="583,90 596,90 601,85 596,80 583,80 583,90 " style="fill:white; stroke-width:1; stroke:black; " description="&lt;b&gt;CH63R_09688&lt;/b&gt;&lt;br&gt;Glycosyl transferase&lt;br&gt;Location: 4467718 - 4470100" locus_tag="CH63R_09688" class="clusterblast-orf" id="dummy-2_h2_2_25"  />
</g>
<g id="a2_0026"  >
<polygon points="614,90 617,90 622,85 617,80 614,80 614,90 " style="fill:white; stroke-width:1; stroke:black; " description="&lt;b&gt;CH63R_09689&lt;/b&gt;&lt;br&gt;Aurora kinase 2 splicing&lt;br&gt;Location: 4471933 - 4472991" locus_tag="CH63R_09689" class="clusterblast-orf" id="dummy-2_h2_2_26"  />
</g>
<g id="a2_0027"  >
<polygon points="654,85 656,80 656,90 654,85 " style="fill:white; stroke-width:1; stroke:black; " description="&lt;b&gt;CH63R_09690&lt;/b&gt;&lt;br&gt;hypothetical protein&lt;br&gt;Location: 4477422 - 4477631" locus_tag="CH63R_09690" class="clusterblast-orf" id="dummy-2_h2_2_27"  />
</g>
<g id="a2_0028"  >
<polygon points="657,90 659,90 664,85 659,80 657,80 657,90 " style="fill:white; stroke-width:1; stroke:black; " description="&lt;b&gt;CH63R_09691&lt;/b&gt;&lt;br&gt;hypothetical protein&lt;br&gt;Location: 4477837 - 4478823" locus_tag="CH63R_09691" class="clusterblast-orf" id="dummy-2_h2_2_28"  />
</g>
<g id="a2_0029"  >
<polygon points="671,85 676,80 679,80 679,90 676,90 671,85 " style="fill:white; stroke-width:1; stroke:black; " description="&lt;b&gt;CH63R_09692&lt;/b&gt;&lt;br&gt;Extracellular metalloprotease&lt;br&gt;Location: 4479718 - 4480813" locus_tag="CH63R_09692" class="clusterblast-orf" id="dummy-2_h2_2_29"  />
</g>
<g id="a2_0030"  >
<polygon points="693,85 698,80 708,80 708,90 698,90 693,85 " style="fill:white; stroke-width:1; stroke:black; " description="&lt;b&gt;CH63R_09693&lt;/b&gt;&lt;br&gt;Major facilitator superfamily transporter&lt;br&gt;Location: 4482766 - 4484841" locus_tag="CH63R_09693" class="clusterblast-orf" id="dummy-2_h2_2_30"  />
</g>
<g id="a2_0031"  >
<polygon points="715,90 725,90 730,85 725,80 715,80 715,90 " style="fill:white; stroke-width:1; stroke:black; " description="&lt;b&gt;CH63R_09694&lt;/b&gt;&lt;br&gt;Amidase&lt;br&gt;Location: 4485764 - 4487787" locus_tag="CH63R_09694" class="clusterblast-orf" id="dummy-2_h2_2_31"  />
</g>
<g id="a2_0032"  >
<polygon points="737,90 746,90 751,85 746,80 737,80 737,90 " style="fill:white; stroke-width:1; stroke:black; " description="&lt;b&gt;CH63R_09695&lt;/b&gt;&lt;br&gt;Flavin containing amine oxidoreductase&lt;br&gt;Location: 4488750 - 4490681" locus_tag="CH63R_09695" class="clusterblast-orf" id="dummy-2_h2_2_32"  />
</g>
<g id="a2_0033"  >
<polygon points="752,85 757,80 768,80 768,90 757,90 752,85 " style="fill:white; stroke-width:1; stroke:black; " description="&lt;b&gt;CH63R_09696&lt;/b&gt;&lt;br&gt;Component of the argr regulatory complex&lt;br&gt;Location: 4490852 - 4493075" locus_tag="CH63R_09696" class="clusterblast-orf" id="dummy-2_h2_2_33"  />
</g>
<g id="a2_0034"  >
<polygon points="772,90 775,90 780,85 775,80 772,80 772,90 " style="fill:white; stroke-width:1; stroke:black; " description="&lt;b&gt;CH63R_09697&lt;/b&gt;&lt;br&gt;Class II Aldolase and Adducin domain-containing protein&lt;br&gt;Location: 4493644 - 4494619" locus_tag="CH63R_09697" class="clusterblast-orf" id="dummy-2_h2_2_34"  />
</g>
</svg>
