<svg xmlns="http://www.w3.org/2000/svg" xmlns:xlink="http://www.w3.org/1999/xlink" version="1.1" x="0" y="0" height="230" width="800" viewBox="0 0 800 230" preserveAspectRatio="none"  >
<g label="Query sequence" class="clusterblast-cluster"  >
<text x="5" y="20" class="clusterblast-acc"  >
Query sequence</text>
<line x1="10" y1="35" x2="778.0" y2="35" style="stroke-width:1; stroke:grey; "  />
<polygon points="123,35 128,30 135,30 135,40 128,40 123,35 " style="fill:white; stroke-width:1; stroke:black; " description="&lt;b&gt;input.path1.gene53&lt;/b&gt;&lt;br&gt;input.path1.gene53&lt;br&gt;Location: 191428 - 192775" locus_tag="input.path1.gene53" class="clusterblast-orf" id="dummy-1_q0_0_all"  />
<polygon points="136,35 141,30 141,30 141,40 141,40 136,35 " style="fill:white; stroke-width:1; stroke:black; " description="&lt;b&gt;input.path1.gene54&lt;/b&gt;&lt;br&gt;input.path1.gene54&lt;br&gt;Location: 192891 - 193431" locus_tag="input.path1.gene54" class="clusterblast-orf" id="dummy-1_q1_0_all"  />
<polygon points="150,40 162,40 167,35 162,30 150,30 150,40 " style="fill:white; stroke-width:1; stroke:black; " description="&lt;b&gt;input.path1.gene55&lt;/b&gt;&lt;br&gt;input.path1.gene55&lt;br&gt;Location: 194442 - 196276" locus_tag="input.path1.gene55" class="clusterblast-orf" id="dummy-1_q2_0_all"  />
<polygon points="228,35 233,30 236,30 236,40 233,40 228,35 " style="fill:white; stroke-width:1; stroke:black; " description="&lt;b&gt;input.path1.gene56&lt;/b&gt;&lt;br&gt;input.path1.gene56&lt;br&gt;Location: 202983 - 203889" locus_tag="input.path1.gene56" class="clusterblast-orf" id="dummy-1_q3_0_all"  />
<polygon points="252,40 276,40 281,35 276,30 252,30 252,40 " style="fill:white; stroke-width:1; stroke:black; " description="&lt;b&gt;input.path1.gene57&lt;/b&gt;&lt;br&gt;input.path1.gene57&lt;br&gt;Location: 205696 - 208850" locus_tag="input.path1.gene57" class="clusterblast-orf" id="dummy-1_q4_0_all"  />
<polygon points="322,40 328,40 333,35 328,30 322,30 322,40 " style="fill:white; stroke-width:1; stroke:black; " description="&lt;b&gt;input.path1.gene58&lt;/b&gt;&lt;br&gt;input.path1.gene58&lt;br&gt;Location: 213367 - 214549" locus_tag="input.path1.gene58" class="clusterblast-orf" id="dummy-1_q5_0_all"  />
<polygon points="359,35 362,30 362,40 359,35 " style="fill:white; stroke-width:1; stroke:black; " description="&lt;b&gt;input.path1.gene59&lt;/b&gt;&lt;br&gt;input.path1.gene59&lt;br&gt;Location: 217457 - 217768" locus_tag="input.path1.gene59" class="clusterblast-orf" id="dummy-1_q6_0_all"  />
<polygon points="384,35 389,30 390,30 390,40 389,40 384,35 " style="fill:#d81515; stroke-width:1; stroke:black; " description="&lt;b&gt;input.path1.gene60&lt;/b&gt;&lt;br&gt;input.path1.gene60&lt;br&gt;Location: 220201 - 220798" locus_tag="input.path1.gene60" class="clusterblast-orf" id="dummy-1_q7_0_all"  />
<polygon points="396,40 398,35 396,30 396,40 " style="fill:white; stroke-width:1; stroke:black; " description="&lt;b&gt;input.path1.gene61&lt;/b&gt;&lt;br&gt;input.path1.gene61&lt;br&gt;Location: 221460 - 221699" locus_tag="input.path1.gene61" class="clusterblast-orf" id="dummy-1_q8_0_all"  />
<polygon points="405,40 406,40 411,35 406,30 405,30 405,40 " style="fill:white; stroke-width:1; stroke:black; " description="&lt;b&gt;input.path1.gene62&lt;/b&gt;&lt;br&gt;input.path1.gene62&lt;br&gt;Location: 222504 - 223173" locus_tag="input.path1.gene62" class="clusterblast-orf" id="dummy-1_q9_0_all"  />
<polygon points="424,35 429,30 439,30 439,40 429,40 424,35 " style="fill:white; stroke-width:1; stroke:black; " description="&lt;b&gt;input.path1.gene63&lt;/b&gt;&lt;br&gt;input.path1.gene63&lt;br&gt;Location: 224513 - 226196" locus_tag="input.path1.gene63" class="clusterblast-orf" id="dummy-1_q10_0_all"  />
<polygon points="442,40 448,40 453,35 448,30 442,30 442,40 " style="fill:white; stroke-width:1; stroke:black; " description="&lt;b&gt;input.path1.gene64&lt;/b&gt;&lt;br&gt;input.path1.gene64&lt;br&gt;Location: 226572 - 227701" locus_tag="input.path1.gene64" class="clusterblast-orf" id="dummy-1_q11_0_all"  />
<polygon points="454,35 459,30 499,30 499,40 459,40 454,35 " style="fill:#15d8d8; stroke-width:1; stroke:black; " description="&lt;b&gt;input.path1.gene65&lt;/b&gt;&lt;br&gt;input.path1.gene65&lt;br&gt;Location: 227824 - 232837" locus_tag="input.path1.gene65" class="clusterblast-orf" id="dummy-1_q12_0_all"  />
<polygon points="513,40 514,40 519,35 514,30 513,30 513,40 " style="fill:white; stroke-width:1; stroke:black; " description="&lt;b&gt;input.path1.gene66&lt;/b&gt;&lt;br&gt;input.path1.gene66&lt;br&gt;Location: 234386 - 235031" locus_tag="input.path1.gene66" class="clusterblast-orf" id="dummy-1_q13_0_all"  />
<polygon points="538,35 543,30 545,30 545,40 543,40 538,35 " style="fill:white; stroke-width:1; stroke:black; " description="&lt;b&gt;input.path1.gene67&lt;/b&gt;&lt;br&gt;input.path1.gene67&lt;br&gt;Location: 237103 - 237850" locus_tag="input.path1.gene67" class="clusterblast-orf" id="dummy-1_q14_0_all"  />
<polygon points="563,40 565,40 570,35 565,30 563,30 563,40 " style="fill:white; stroke-width:1; stroke:black; " description="&lt;b&gt;input.path1.gene68&lt;/b&gt;&lt;br&gt;input.path1.gene68&lt;br&gt;Location: 239825 - 240600" locus_tag="input.path1.gene68" class="clusterblast-orf" id="dummy-1_q15_0_all"  />
<polygon points="620,40 628,40 633,35 628,30 620,30 620,40 " style="fill:white; stroke-width:1; stroke:black; " description="&lt;b&gt;input.path1.gene69&lt;/b&gt;&lt;br&gt;input.path1.gene69&lt;br&gt;Location: 246079 - 247569" locus_tag="input.path1.gene69" class="clusterblast-orf" id="dummy-1_q16_0_all"  />
<polygon points="644,35 649,30 657,30 657,40 649,40 644,35 " style="fill:white; stroke-width:1; stroke:black; " description="&lt;b&gt;input.path1.gene70&lt;/b&gt;&lt;br&gt;input.path1.gene70&lt;br&gt;Location: 248707 - 250105" locus_tag="input.path1.gene70" class="clusterblast-orf" id="dummy-1_q17_0_all"  />
</g>
<g label="NW_024468978" description="NW_024468978 (129841-221990): Aspergillus fijiensis CBS 313.89 unplaced genom... (4% of genes show similarity), fungal-RiPP-like" class="clusterblast-cluster"  >
<text x="5" y="70" class="clusterblast-acc"  >
<a xlink:href="https://antismash-db.secondarymetabolites.org/area?record=NW_024468978&amp;start=129841&amp;end=221990" target="_blank">NW_024468978 (129841-221990)</a>: Aspergillus fijiensis CBS 313.89 unplaced genom... (4% of genes show similarity), fungal-RiPP-like</text>
<line x1="10" y1="85" x2="778.0" y2="85" style="stroke-width:1; stroke:grey; "  />
</g>
<g id="a1_000"  >
<polygon points="0,90 0,90 5,85 0,80 0,80 0,90 " style="fill:white; stroke-width:1; stroke:black; " description="&lt;b&gt;BO72DRAFT_394343&lt;/b&gt;&lt;br&gt;uncharacterized protein&lt;br&gt;Location: 130907 - 131539" locus_tag="BO72DRAFT_394343" class="clusterblast-orf" id="dummy-1_h1_5_0"  />
</g>
<g id="a1_001"  >
<polygon points="8,85 13,80 32,80 32,90 13,90 8,85 " style="fill:white; stroke-width:1; stroke:black; " description="&lt;b&gt;BO72DRAFT_474009&lt;/b&gt;&lt;br&gt;uncharacterized protein&lt;br&gt;Location: 131884 - 134448" locus_tag="BO72DRAFT_474009" class="clusterblast-orf" id="dummy-1_h1_5_1"  />
</g>
<g id="a1_002"  >
<polygon points="38,85 43,80 50,80 50,90 43,90 38,85 " style="fill:white; stroke-width:1; stroke:black; " description="&lt;b&gt;BO72DRAFT_491344&lt;/b&gt;&lt;br&gt;putative alcohol dehydrogenase&lt;br&gt;Location: 135167 - 136417" locus_tag="BO72DRAFT_491344" class="clusterblast-orf" id="dummy-1_h1_5_2"  />
</g>
<g id="a1_003"  >
<polygon points="54,85 59,80 69,80 69,90 59,90 54,85 " style="fill:white; stroke-width:1; stroke:black; " description="&lt;b&gt;BO72DRAFT_86299&lt;/b&gt;&lt;br&gt;MFS general substrate transporter&lt;br&gt;Location: 136878 - 138496" locus_tag="BO72DRAFT_86299" class="clusterblast-orf" id="dummy-1_h1_5_3"  />
</g>
<g id="a1_004"  >
<polygon points="75,85 80,80 90,80 90,90 80,90 75,85 " style="fill:white; stroke-width:1; stroke:black; " description="&lt;b&gt;BO72DRAFT_443727&lt;/b&gt;&lt;br&gt;putative glutathione synthetase&lt;br&gt;Location: 139202 - 140871" locus_tag="BO72DRAFT_443727" class="clusterblast-orf" id="dummy-1_h1_5_4"  />
</g>
<g id="a1_005"  >
<polygon points="97,90 102,90 107,85 102,80 97,80 97,90 " style="fill:white; stroke-width:1; stroke:black; " description="&lt;b&gt;BO72DRAFT_474013&lt;/b&gt;&lt;br&gt;putative mitochondrial cation transporter&lt;br&gt;Location: 141587 - 142777" locus_tag="BO72DRAFT_474013" class="clusterblast-orf" id="dummy-1_h1_5_5"  />
</g>
<g id="a1_006"  >
<polygon points="114,90 131,90 136,85 131,80 114,80 114,90 " style="fill:white; stroke-width:1; stroke:black; " description="&lt;b&gt;BO72DRAFT_86346&lt;/b&gt;&lt;br&gt;spindle pole body interacting protein&lt;br&gt;Location: 143455 - 145915" locus_tag="BO72DRAFT_86346" class="clusterblast-orf" id="dummy-1_h1_5_6"  />
</g>
<g id="a1_007"  >
<polygon points="139,85 144,80 154,80 154,90 144,90 139,85 " style="fill:white; stroke-width:1; stroke:black; " description="&lt;b&gt;BO72DRAFT_86334&lt;/b&gt;&lt;br&gt;alpha/beta-hydrolase&lt;br&gt;Location: 146245 - 147898" locus_tag="BO72DRAFT_86334" class="clusterblast-orf" id="dummy-1_h1_5_7"  />
</g>
<g id="a1_008"  >
<polygon points="161,85 165,80 165,90 161,85 " style="fill:white; stroke-width:1; stroke:black; " description="&lt;b&gt;BO72DRAFT_86327&lt;/b&gt;&lt;br&gt;uncharacterized protein&lt;br&gt;Location: 148614 - 149072" locus_tag="BO72DRAFT_86327" class="clusterblast-orf" id="dummy-1_h1_5_8"  />
</g>
<g id="a1_009"  >
<polygon points="166,85 171,80 179,80 179,90 171,90 166,85 " style="fill:white; stroke-width:1; stroke:black; " description="&lt;b&gt;BO72DRAFT_419294&lt;/b&gt;&lt;br&gt;uncharacterized protein&lt;br&gt;Location: 149252 - 150626" locus_tag="BO72DRAFT_419294" class="clusterblast-orf" id="dummy-1_h1_5_9"  />
</g>
<g id="a1_0010"  >
<polygon points="185,85 190,80 208,80 208,90 190,90 185,85 " style="fill:white; stroke-width:1; stroke:black; " description="&lt;b&gt;BO72DRAFT_419295&lt;/b&gt;&lt;br&gt;C6 finger domain protein&lt;br&gt;Location: 151302 - 153785" locus_tag="BO72DRAFT_419295" class="clusterblast-orf" id="dummy-1_h1_5_10"  />
</g>
<g id="a1_0011"  >
<polygon points="212,90 214,85 212,80 212,90 " style="fill:white; stroke-width:1; stroke:black; " description="&lt;b&gt;BO72DRAFT_443733&lt;/b&gt;&lt;br&gt;uncharacterized protein&lt;br&gt;Location: 154300 - 154470" locus_tag="BO72DRAFT_443733" class="clusterblast-orf" id="dummy-1_h1_5_11"  />
</g>
<g id="a1_0012"  >
<polygon points="215,90 223,90 228,85 223,80 215,80 215,90 " style="fill:white; stroke-width:1; stroke:black; " description="&lt;b&gt;BO72DRAFT_394372&lt;/b&gt;&lt;br&gt;Fumarylacetoacetase&lt;br&gt;Location: 154571 - 155986" locus_tag="BO72DRAFT_394372" class="clusterblast-orf" id="dummy-1_h1_5_12"  />
</g>
<g id="a1_0013"  >
<polygon points="231,85 236,80 239,80 239,90 236,90 231,85 " style="fill:white; stroke-width:1; stroke:black; " description="&lt;b&gt;BO72DRAFT_86485&lt;/b&gt;&lt;br&gt;bacterial bifunctional deaminase-reductase&lt;br&gt;Location: 156346 - 157248" locus_tag="BO72DRAFT_86485" class="clusterblast-orf" id="dummy-1_h1_5_13"  />
</g>
<g id="a1_0014"  >
<polygon points="244,85 249,80 255,80 255,90 249,90 244,85 " style="fill:white; stroke-width:1; stroke:black; " description="&lt;b&gt;BO72DRAFT_86448&lt;/b&gt;&lt;br&gt;bacterial hemoglobin&lt;br&gt;Location: 157767 - 159023" locus_tag="BO72DRAFT_86448" class="clusterblast-orf" id="dummy-1_h1_5_14"  />
</g>
<g id="a1_0015"  >
<polygon points="270,90 278,90 283,85 278,80 270,80 270,90 " style="fill:white; stroke-width:1; stroke:black; " description="&lt;b&gt;BO72DRAFT_367363&lt;/b&gt;&lt;br&gt;N-acetyl-glucosamine-6-phosphate deacetylase&lt;br&gt;Location: 160678 - 162043" locus_tag="BO72DRAFT_367363" class="clusterblast-orf" id="dummy-1_h1_5_15"  />
</g>
<g id="a1_0016"  >
<polygon points="288,90 300,90 305,85 300,80 288,80 288,90 " style="fill:white; stroke-width:1; stroke:black; " description="&lt;b&gt;BO72DRAFT_443736&lt;/b&gt;&lt;br&gt;uncharacterized protein&lt;br&gt;Location: 162650 - 164466" locus_tag="BO72DRAFT_443736" class="clusterblast-orf" id="dummy-1_h1_5_16"  />
</g>
<g id="a1_0017"  >
<polygon points="307,85 312,80 312,80 312,90 312,90 307,85 " style="fill:white; stroke-width:1; stroke:black; " description="&lt;b&gt;BO72DRAFT_491357&lt;/b&gt;&lt;br&gt;uncharacterized protein&lt;br&gt;Location: 164746 - 165261" locus_tag="BO72DRAFT_491357" class="clusterblast-orf" id="dummy-1_h1_5_17"  />
</g>
<g id="a1_0018"  >
<polygon points="326,85 331,80 335,80 335,90 331,90 326,85 " style="fill:white; stroke-width:1; stroke:black; " description="&lt;b&gt;BO72DRAFT_443737&lt;/b&gt;&lt;br&gt;uncharacterized protein&lt;br&gt;Location: 166794 - 167735" locus_tag="BO72DRAFT_443737" class="clusterblast-orf" id="dummy-1_h1_5_18"  />
</g>
<g id="a1_0019"  >
<polygon points="340,90 341,90 346,85 341,80 340,80 340,90 " style="fill:white; stroke-width:1; stroke:black; " description="&lt;b&gt;BO72DRAFT_86997&lt;/b&gt;&lt;br&gt;uncharacterized protein&lt;br&gt;Location: 168318 - 168943" locus_tag="BO72DRAFT_86997" class="clusterblast-orf" id="dummy-1_h1_5_19"  />
</g>
<g id="a1_0020"  >
<polygon points="351,85 356,80 396,80 396,90 356,90 351,85 " style="fill:#15d8d8; stroke-width:1; stroke:black; " description="&lt;b&gt;BO72DRAFT_491360&lt;/b&gt;&lt;br&gt;P-loop containing nucleoside triphosphate hydrolase protein&lt;br&gt;Location: 169574 - 174514&lt;br&gt;&lt;br&gt;&lt;b&gt;BlastP hit with input.path1.gene65&lt;/b&gt;&lt;br&gt;Percentage identity: 31&lt;br&gt;Percentage coverage: 114&lt;br&gt;BLAST bit score: 560&lt;br&gt;E-value: 2.86e-174" locus_tag="BO72DRAFT_491360" class="clusterblast-orf" id="dummy-1_h1_5_20"  />
</g>
<g id="a1_0021"  >
<polygon points="399,85 404,80 406,80 406,90 404,90 399,85 " style="fill:white; stroke-width:1; stroke:black; " description="&lt;b&gt;BO72DRAFT_419315&lt;/b&gt;&lt;br&gt;uncharacterized protein&lt;br&gt;Location: 174842 - 175555" locus_tag="BO72DRAFT_419315" class="clusterblast-orf" id="dummy-1_h1_5_21"  />
</g>
<g id="a1_0022"  >
<polygon points="410,85 415,80 419,80 419,90 415,90 410,85 " style="fill:#d81515; stroke-width:1; stroke:black; " description="&lt;b&gt;BO72DRAFT_366982&lt;/b&gt;&lt;br&gt;uncharacterized protein&lt;br&gt;Location: 175991 - 176990&lt;br&gt;&lt;br&gt;&lt;b&gt;BlastP hit with input.path1.gene60&lt;/b&gt;&lt;br&gt;Percentage identity: 47&lt;br&gt;Percentage coverage: 98&lt;br&gt;BLAST bit score: 180&lt;br&gt;E-value: 2.89e-54" locus_tag="BO72DRAFT_366982" class="clusterblast-orf" id="dummy-1_h1_5_22"  />
</g>
<g id="a1_0023"  >
<polygon points="429,90 432,85 429,80 429,90 " style="fill:white; stroke-width:1; stroke:black; " description="&lt;b&gt;BO72DRAFT_86922&lt;/b&gt;&lt;br&gt;uncharacterized protein&lt;br&gt;Location: 178091 - 178481" locus_tag="BO72DRAFT_86922" class="clusterblast-orf" id="dummy-1_h1_5_23"  />
</g>
<g id="a1_0024"  >
<polygon points="446,90 454,90 459,85 454,80 446,80 446,90 " style="fill:white; stroke-width:1; stroke:black; " description="&lt;b&gt;BO72DRAFT_482481&lt;/b&gt;&lt;br&gt;NAD(P)-binding protein&lt;br&gt;Location: 179930 - 181441" locus_tag="BO72DRAFT_482481" class="clusterblast-orf" id="dummy-1_h1_5_24"  />
</g>
<g id="a1_0025"  >
<polygon points="468,85 473,80 487,80 487,90 473,90 468,85 " style="fill:white; stroke-width:1; stroke:black; " description="&lt;b&gt;BO72DRAFT_474026&lt;/b&gt;&lt;br&gt;cell cycle control protein&lt;br&gt;Location: 182397 - 184478" locus_tag="BO72DRAFT_474026" class="clusterblast-orf" id="dummy-1_h1_5_25"  />
</g>
<g id="a1_0026"  >
<polygon points="491,90 501,90 506,85 501,80 491,80 491,90 " style="fill:white; stroke-width:1; stroke:black; " description="&lt;b&gt;BO72DRAFT_443741&lt;/b&gt;&lt;br&gt;putative pre-mRNA splicing factor&lt;br&gt;Location: 184935 - 186539" locus_tag="BO72DRAFT_443741" class="clusterblast-orf" id="dummy-1_h1_5_26"  />
</g>
<g id="a1_0027"  >
<polygon points="515,90 519,90 524,85 519,80 515,80 515,90 " style="fill:white; stroke-width:1; stroke:black; " description="&lt;b&gt;BO72DRAFT_419327&lt;/b&gt;&lt;br&gt;uncharacterized protein&lt;br&gt;Location: 187621 - 188528" locus_tag="BO72DRAFT_419327" class="clusterblast-orf" id="dummy-1_h1_5_27"  />
</g>
<g id="a1_0028"  >
<polygon points="531,90 536,90 541,85 536,80 531,80 531,90 " style="fill:white; stroke-width:1; stroke:black; " description="&lt;b&gt;BO72DRAFT_482485&lt;/b&gt;&lt;br&gt;uncharacterized protein&lt;br&gt;Location: 189287 - 190439" locus_tag="BO72DRAFT_482485" class="clusterblast-orf" id="dummy-1_h1_5_28"  />
</g>
<g id="a1_0029"  >
<polygon points="544,85 547,80 547,90 544,85 " style="fill:white; stroke-width:1; stroke:black; " description="&lt;b&gt;BO72DRAFT_491369&lt;/b&gt;&lt;br&gt;uncharacterized protein&lt;br&gt;Location: 190757 - 191040" locus_tag="BO72DRAFT_491369" class="clusterblast-orf" id="dummy-1_h1_5_29"  />
</g>
<g id="a1_0030"  >
<polygon points="557,90 566,90 571,85 566,80 557,80 557,90 " style="fill:white; stroke-width:1; stroke:black; " description="&lt;b&gt;BO72DRAFT_464664&lt;/b&gt;&lt;br&gt;S-adenosyl-L-homocysteine hydrolase&lt;br&gt;Location: 192180 - 193735" locus_tag="BO72DRAFT_464664" class="clusterblast-orf" id="dummy-1_h1_5_30"  />
</g>
<g id="a1_0031"  >
<polygon points="586,85 591,80 594,80 594,90 591,90 586,85 " style="fill:white; stroke-width:1; stroke:black; " description="&lt;b&gt;BO72DRAFT_443747&lt;/b&gt;&lt;br&gt;NAD(P)-binding protein&lt;br&gt;Location: 195393 - 196292" locus_tag="BO72DRAFT_443747" class="clusterblast-orf" id="dummy-1_h1_5_31"  />
</g>
<g id="a1_0032"  >
<polygon points="603,85 608,80 615,80 615,90 608,90 603,85 " style="fill:white; stroke-width:1; stroke:black; " description="&lt;b&gt;BO72DRAFT_491372&lt;/b&gt;&lt;br&gt;uncharacterized protein&lt;br&gt;Location: 197289 - 198581" locus_tag="BO72DRAFT_491372" class="clusterblast-orf" id="dummy-1_h1_5_32"  />
</g>
<g id="a1_0033"  >
<polygon points="628,85 633,80 652,80 652,90 633,90 628,85 " style="fill:white; stroke-width:1; stroke:black; " description="&lt;b&gt;BO72DRAFT_523662&lt;/b&gt;&lt;br&gt;UPF0261-domain-containing protein&lt;br&gt;Location: 200042 - 202679" locus_tag="BO72DRAFT_523662" class="clusterblast-orf" id="dummy-1_h1_5_33"  />
</g>
<g id="a1_0034"  >
<polygon points="655,90 659,90 664,85 659,80 655,80 655,90 " style="fill:white; stroke-width:1; stroke:black; " description="&lt;b&gt;BO72DRAFT_367306&lt;/b&gt;&lt;br&gt;uncharacterized protein&lt;br&gt;Location: 202958 - 203911" locus_tag="BO72DRAFT_367306" class="clusterblast-orf" id="dummy-1_h1_5_34"  />
</g>
<g id="a1_0035"  >
<polygon points="667,90 670,90 675,85 670,80 667,80 667,90 " style="fill:white; stroke-width:1; stroke:black; " description="&lt;b&gt;BO72DRAFT_454581&lt;/b&gt;&lt;br&gt;3-oxoacyl-reductase&lt;br&gt;Location: 204223 - 205174" locus_tag="BO72DRAFT_454581" class="clusterblast-orf" id="dummy-1_h1_5_35"  />
</g>
<g id="a1_0036"  >
<polygon points="678,90 679,90 684,85 679,80 678,80 678,90 " style="fill:white; stroke-width:1; stroke:black; " description="&lt;b&gt;BO72DRAFT_443750&lt;/b&gt;&lt;br&gt;uncharacterized protein&lt;br&gt;Location: 205479 - 206174" locus_tag="BO72DRAFT_443750" class="clusterblast-orf" id="dummy-1_h1_5_36"  />
</g>
<g id="a1_0037"  >
<polygon points="686,85 691,80 705,80 705,90 691,90 686,85 " style="fill:white; stroke-width:1; stroke:black; " description="&lt;b&gt;BO72DRAFT_367145&lt;/b&gt;&lt;br&gt;uncharacterized protein&lt;br&gt;Location: 206378 - 208455" locus_tag="BO72DRAFT_367145" class="clusterblast-orf" id="dummy-1_h1_5_37"  />
</g>
<g id="a1_0038"  >
<polygon points="721,90 721,90 726,85 721,80 721,80 721,90 " style="fill:white; stroke-width:1; stroke:black; " description="&lt;b&gt;BO72DRAFT_87180&lt;/b&gt;&lt;br&gt;uncharacterized protein&lt;br&gt;Location: 210194 - 210761" locus_tag="BO72DRAFT_87180" class="clusterblast-orf" id="dummy-1_h1_5_38"  />
</g>
<g id="a1_0039"  >
<polygon points="728,85 733,80 763,80 763,90 733,90 728,85 " style="fill:white; stroke-width:1; stroke:black; " description="&lt;b&gt;BO72DRAFT_443755&lt;/b&gt;&lt;br&gt;P-loop containing nucleoside triphosphate hydrolase protein&lt;br&gt;Location: 211008 - 214821" locus_tag="BO72DRAFT_443755" class="clusterblast-orf" id="dummy-1_h1_5_39"  />
</g>
<g id="a1_0040"  >
<polygon points="769,90 775,90 780,85 775,80 769,80 769,90 " style="fill:white; stroke-width:1; stroke:black; " description="&lt;b&gt;BO72DRAFT_443756&lt;/b&gt;&lt;br&gt;uncharacterized protein&lt;br&gt;Location: 215479 - 216642" locus_tag="BO72DRAFT_443756" class="clusterblast-orf" id="dummy-1_h1_5_40"  />
</g>
</svg>
