<svg xmlns="http://www.w3.org/2000/svg" xmlns:xlink="http://www.w3.org/1999/xlink" version="1.1" x="0" y="0" height="230" width="800" viewBox="0 0 800 230" preserveAspectRatio="none"  >
<g label="Query sequence" class="clusterblast-cluster"  >
<text x="5" y="20" class="clusterblast-acc"  >
Query sequence</text>
<line x1="10" y1="35" x2="778.0" y2="35" style="stroke-width:1; stroke:grey; "  />
<polygon points="187,35 192,30 198,30 198,40 192,40 187,35 " style="fill:#d81515; stroke-width:1; stroke:black; " description="&lt;b&gt;input.path1.gene1227&lt;/b&gt;&lt;br&gt;input.path1.gene1227&lt;br&gt;Location: 4473807 - 4475108" locus_tag="input.path1.gene1227" class="clusterblast-orf" id="dummy-6_q0_0_all"  />
<polygon points="229,35 234,30 251,30 251,40 234,40 229,35 " style="fill:#5cd815; stroke-width:1; stroke:black; " description="&lt;b&gt;input.path1.gene1228&lt;/b&gt;&lt;br&gt;input.path1.gene1228&lt;br&gt;Location: 4478566 - 4481008" locus_tag="input.path1.gene1228" class="clusterblast-orf" id="dummy-6_q1_0_all"  />
<polygon points="258,35 263,30 268,30 268,40 263,40 258,35 " style="fill:#15a3d8; stroke-width:1; stroke:black; " description="&lt;b&gt;input.path1.gene1229&lt;/b&gt;&lt;br&gt;input.path1.gene1229&lt;br&gt;Location: 4481836 - 4482898" locus_tag="input.path1.gene1229" class="clusterblast-orf" id="dummy-6_q2_0_all"  />
<polygon points="285,40 287,40 292,35 287,30 285,30 285,40 " style="fill:white; stroke-width:1; stroke:black; " description="&lt;b&gt;input.path1.gene1230&lt;/b&gt;&lt;br&gt;input.path1.gene1230&lt;br&gt;Location: 4484813 - 4485618" locus_tag="input.path1.gene1230" class="clusterblast-orf" id="dummy-6_q3_0_all"  />
<polygon points="327,40 336,40 341,35 336,30 327,30 327,40 " style="fill:#c715d8; stroke-width:1; stroke:black; " description="&lt;b&gt;input.path1.gene1231&lt;/b&gt;&lt;br&gt;input.path1.gene1231&lt;br&gt;Location: 4489549 - 4491139" locus_tag="input.path1.gene1231" class="clusterblast-orf" id="dummy-6_q4_0_all"  />
<polygon points="359,40 418,40 423,35 418,30 359,30 359,40 " style="fill:#d88015; stroke-width:1; stroke:black; " description="&lt;b&gt;input.path1.gene1232&lt;/b&gt;&lt;br&gt;input.path1.gene1232&lt;br&gt;Location: 4493100 - 4500263" locus_tag="input.path1.gene1232" class="clusterblast-orf" id="dummy-6_q5_0_all"  />
<polygon points="427,40 429,35 427,30 427,40 " style="fill:#15d839; stroke-width:1; stroke:black; " description="&lt;b&gt;input.path1.gene1233&lt;/b&gt;&lt;br&gt;input.path1.gene1233&lt;br&gt;Location: 4500730 - 4500971" locus_tag="input.path1.gene1233" class="clusterblast-orf" id="dummy-6_q6_0_all"  />
<polygon points="429,35 433,30 433,40 429,35 " style="fill:white; stroke-width:1; stroke:black; " description="&lt;b&gt;input.path1.gene1234&lt;/b&gt;&lt;br&gt;input.path1.gene1234&lt;br&gt;Location: 4501043 - 4501400" locus_tag="input.path1.gene1234" class="clusterblast-orf" id="dummy-6_q7_0_all"  />
<polygon points="434,40 438,40 443,35 438,30 434,30 434,40 " style="fill:#15d839; stroke-width:1; stroke:black; " description="&lt;b&gt;input.path1.gene1235&lt;/b&gt;&lt;br&gt;input.path1.gene1235&lt;br&gt;Location: 4501567 - 4502524" locus_tag="input.path1.gene1235" class="clusterblast-orf" id="dummy-6_q8_0_all"  />
<polygon points="444,40 446,40 451,35 446,30 444,30 444,40 " style="fill:#1539d8; stroke-width:1; stroke:black; " description="&lt;b&gt;input.path1.gene1236&lt;/b&gt;&lt;br&gt;input.path1.gene1236&lt;br&gt;Location: 4502693 - 4503425" locus_tag="input.path1.gene1236" class="clusterblast-orf" id="dummy-6_q9_0_all"  />
<polygon points="474,35 479,30 490,30 490,40 479,40 474,35 " style="fill:#d81580; stroke-width:1; stroke:black; " description="&lt;b&gt;input.path1.gene1237&lt;/b&gt;&lt;br&gt;input.path1.gene1237&lt;br&gt;Location: 4506069 - 4507794" locus_tag="input.path1.gene1237" class="clusterblast-orf" id="dummy-6_q10_0_all"  />
<polygon points="491,35 496,30 515,30 515,40 496,40 491,35 " style="fill:#c7d815; stroke-width:1; stroke:black; " description="&lt;b&gt;input.path1.gene1238&lt;/b&gt;&lt;br&gt;input.path1.gene1238&lt;br&gt;Location: 4507893 - 4510657" locus_tag="input.path1.gene1238" class="clusterblast-orf" id="dummy-6_q11_0_all"  />
<polygon points="516,35 521,30 524,30 524,40 521,40 516,35 " style="fill:white; stroke-width:1; stroke:black; " description="&lt;b&gt;input.path1.gene1239&lt;/b&gt;&lt;br&gt;input.path1.gene1239&lt;br&gt;Location: 4510710 - 4511601" locus_tag="input.path1.gene1239" class="clusterblast-orf" id="dummy-6_q12_0_all"  />
<polygon points="541,40 559,40 564,35 559,30 541,30 541,40 " style="fill:#15d8a3; stroke-width:1; stroke:black; " description="&lt;b&gt;input.path1.gene1240&lt;/b&gt;&lt;br&gt;input.path1.gene1240&lt;br&gt;Location: 4513566 - 4516079" locus_tag="input.path1.gene1240" class="clusterblast-orf" id="dummy-6_q13_0_all"  />
<polygon points="567,40 573,40 578,35 573,30 567,30 567,40 " style="fill:#5c15d8; stroke-width:1; stroke:black; " description="&lt;b&gt;input.path1.gene1241&lt;/b&gt;&lt;br&gt;input.path1.gene1241&lt;br&gt;Location: 4516428 - 4517685" locus_tag="input.path1.gene1241" class="clusterblast-orf" id="dummy-6_q14_0_all"  />
<polygon points="590,35 593,30 593,40 590,35 " style="fill:white; stroke-width:1; stroke:black; " description="&lt;b&gt;input.path1.gene1242&lt;/b&gt;&lt;br&gt;input.path1.gene1242&lt;br&gt;Location: 4518983 - 4519331" locus_tag="input.path1.gene1242" class="clusterblast-orf" id="dummy-6_q15_0_all"  />
</g>
<g label="NC_035791" description="NC_035791 (1143313-1234197): Pochonia chlamydosporia 170 chromosome 2, whole ... (22% of genes show similarity), NRPS-like,fungal-RiPP-like" class="clusterblast-cluster"  >
<text x="5" y="70" class="clusterblast-acc"  >
<a xlink:href="https://antismash-db.secondarymetabolites.org/area?record=NC_035791&amp;start=1143313&amp;end=1234197" target="_blank">NC_035791 (1143313-1234197)</a>: Pochonia chlamydosporia 170 chromosome 2, whole ... (22% of genes show similarity), NRPS-like,fungal-RiPP-like</text>
<line x1="10" y1="85" x2="778.0" y2="85" style="stroke-width:1; stroke:grey; "  />
</g>
<g id="a6_000"  >
<polygon points="0,90 8,90 13,85 8,80 0,80 0,90 " style="fill:white; stroke-width:1; stroke:black; " description="&lt;b&gt;VFPPC_02514&lt;/b&gt;&lt;br&gt;hypothetical protein&lt;br&gt;Location: 1231497 - 1229932" locus_tag="VFPPC_02514" class="clusterblast-orf" id="dummy-6_h6_10_0"  />
</g>
<g id="a6_001"  >
<polygon points="31,90 37,90 42,85 37,80 31,80 31,90 " style="fill:white; stroke-width:1; stroke:black; " description="&lt;b&gt;VFPPC_02513&lt;/b&gt;&lt;br&gt;hypothetical protein&lt;br&gt;Location: 1227946 - 1226708" locus_tag="VFPPC_02513" class="clusterblast-orf" id="dummy-6_h6_10_1"  />
</g>
<g id="a6_002"  >
<polygon points="46,85 51,80 59,80 59,90 51,90 46,85 " style="fill:white; stroke-width:1; stroke:black; " description="&lt;b&gt;VFPPC_13286&lt;/b&gt;&lt;br&gt;histone-fold protein&lt;br&gt;Location: 1226229 - 1224772" locus_tag="VFPPC_13286" class="clusterblast-orf" id="dummy-6_h6_10_2"  />
</g>
<g id="a6_003"  >
<polygon points="73,85 78,80 84,80 84,90 78,90 73,85 " style="fill:white; stroke-width:1; stroke:black; " description="&lt;b&gt;VFPPC_02511&lt;/b&gt;&lt;br&gt;aminoglycoside phosphotransferase&lt;br&gt;Location: 1223288 - 1222059" locus_tag="VFPPC_02511" class="clusterblast-orf" id="dummy-6_h6_10_3"  />
</g>
<g id="a6_004"  >
<polygon points="118,90 127,90 132,85 127,80 118,80 118,90 " style="fill:white; stroke-width:1; stroke:black; " description="&lt;b&gt;VFPPC_15513&lt;/b&gt;&lt;br&gt;vacuolar H+\/Ca2+ exchanger&lt;br&gt;Location: 1218263 - 1216662" locus_tag="VFPPC_15513" class="clusterblast-orf" id="dummy-6_h6_10_4"  />
</g>
<g id="a6_005"  >
<polygon points="138,85 143,80 145,80 145,90 143,90 138,85 " style="fill:white; stroke-width:1; stroke:black; " description="&lt;b&gt;VFPPC_02508&lt;/b&gt;&lt;br&gt;hypothetical protein&lt;br&gt;Location: 1215934 - 1215176" locus_tag="VFPPC_02508" class="clusterblast-orf" id="dummy-6_h6_10_5"  />
</g>
<g id="a6_006"  >
<polygon points="155,90 155,90 160,85 155,80 155,80 155,90 " style="fill:white; stroke-width:1; stroke:black; " description="&lt;b&gt;VFPPC_02507&lt;/b&gt;&lt;br&gt;protein incorporated later into tight junctions domain-containing protein&lt;br&gt;Location: 1214061 - 1213552" locus_tag="VFPPC_02507" class="clusterblast-orf" id="dummy-6_h6_10_6"  />
</g>
<g id="a6_007"  >
<polygon points="168,85 173,80 173,80 173,90 173,90 168,85 " style="fill:white; stroke-width:1; stroke:black; " description="&lt;b&gt;VFPPC_02505&lt;/b&gt;&lt;br&gt;hydrophobic surface binding protein A domain-containing protein&lt;br&gt;Location: 1212578 - 1212045" locus_tag="VFPPC_02505" class="clusterblast-orf" id="dummy-6_h6_10_7"  />
</g>
<g id="a6_008"  >
<polygon points="186,90 186,90 191,85 186,80 186,80 186,90 " style="fill:white; stroke-width:1; stroke:black; " description="&lt;b&gt;VFPPC_15512&lt;/b&gt;&lt;br&gt;hydrophobic surface binding protein A domain-containing protein&lt;br&gt;Location: 1210552 - 1210016" locus_tag="VFPPC_15512" class="clusterblast-orf" id="dummy-6_h6_10_8"  />
</g>
<g id="a6_009"  >
<polygon points="208,85 213,80 222,80 222,90 213,90 208,85 " style="fill:white; stroke-width:1; stroke:black; " description="&lt;b&gt;VFPPC_02502&lt;/b&gt;&lt;br&gt;bleomycin hydrolase&lt;br&gt;Location: 1208168 - 1206574" locus_tag="VFPPC_02502" class="clusterblast-orf" id="dummy-6_h6_10_9"  />
</g>
<g id="a6_0010"  >
<polygon points="228,85 233,80 274,80 274,90 233,90 228,85 " style="fill:white; stroke-width:1; stroke:black; " description="&lt;b&gt;VFPPC_02501&lt;/b&gt;&lt;br&gt;NACHT and WD domain-containing protein&lt;br&gt;Location: 1205863 - 1200714" locus_tag="VFPPC_02501" class="clusterblast-orf" id="dummy-6_h6_10_10"  />
</g>
<g id="a6_0011"  >
<polygon points="339,85 344,80 349,80 349,90 344,90 339,85 " style="fill:white; stroke-width:1; stroke:black; " description="&lt;b&gt;VFPPC_13285&lt;/b&gt;&lt;br&gt;beta-lactamase&lt;br&gt;Location: 1193483 - 1192326" locus_tag="VFPPC_13285" class="clusterblast-orf" id="dummy-6_h6_10_11"  />
</g>
<g id="a6_0012"  >
<polygon points="361,85 366,80 366,80 366,90 366,90 361,85 " style="fill:white; stroke-width:1; stroke:black; " description="&lt;b&gt;VFPPC_13284&lt;/b&gt;&lt;br&gt;hypothetical protein&lt;br&gt;Location: 1191014 - 1190435" locus_tag="VFPPC_13284" class="clusterblast-orf" id="dummy-6_h6_10_12"  />
</g>
<g id="a6_0013"  >
<polygon points="377,90 380,90 385,85 380,80 377,80 377,90 " style="fill:white; stroke-width:1; stroke:black; " description="&lt;b&gt;VFPPC_02496&lt;/b&gt;&lt;br&gt;hypothetical protein&lt;br&gt;Location: 1189197 - 1188314" locus_tag="VFPPC_02496" class="clusterblast-orf" id="dummy-6_h6_10_13"  />
</g>
<g id="a6_0014"  >
<polygon points="386,85 391,80 403,80 403,90 391,90 386,85 " style="fill:white; stroke-width:1; stroke:black; " description="&lt;b&gt;VFPPC_02495&lt;/b&gt;&lt;br&gt;protein PNS1&lt;br&gt;Location: 1188122 - 1186303" locus_tag="VFPPC_02495" class="clusterblast-orf" id="dummy-6_h6_10_14"  />
</g>
<g id="a6_0015"  >
<polygon points="445,90 454,90 459,85 454,80 445,80 445,90 " style="fill:#c715d8; stroke-width:1; stroke:black; " description="&lt;b&gt;VFPPC_02493&lt;/b&gt;&lt;br&gt;arginine permease&lt;br&gt;Location: 1181550 - 1180018&lt;br&gt;&lt;br&gt;&lt;b&gt;BlastP hit with input.path1.gene1231&lt;/b&gt;&lt;br&gt;Percentage identity: 55&lt;br&gt;Percentage coverage: 121&lt;br&gt;BLAST bit score: 545&lt;br&gt;E-value: 6.13e-191" locus_tag="VFPPC_02493" class="clusterblast-orf" id="dummy-6_h6_10_15"  />
</g>
<g id="a6_0016"  >
<polygon points="476,90 505,90 510,85 505,80 476,80 476,90 " style="fill:#d88015; stroke-width:1; stroke:black; " description="&lt;b&gt;VFPPC_02492&lt;/b&gt;&lt;br&gt;hybrid NRPS/PKS enzyme&lt;br&gt;Location: 1178123 - 1174281&lt;br&gt;&lt;br&gt;&lt;b&gt;BlastP hit with input.path1.gene1232&lt;/b&gt;&lt;br&gt;Percentage identity: 76&lt;br&gt;Percentage coverage: 68&lt;br&gt;BLAST bit score: 1932&lt;br&gt;E-value: 0.0" locus_tag="VFPPC_02492" class="clusterblast-orf" id="dummy-6_h6_10_16"  />
</g>
<g id="a6_0017"  >
<polygon points="515,85 520,80 546,80 546,90 520,90 515,85 " style="fill:white; stroke-width:1; stroke:black; " description="&lt;b&gt;VFPPC_02491&lt;/b&gt;&lt;br&gt;RNA-dependent RNA polymerase&lt;br&gt;Location: 1173670 - 1170277" locus_tag="VFPPC_02491" class="clusterblast-orf" id="dummy-6_h6_10_17"  />
</g>
<g id="a6_0018"  >
<polygon points="551,90 569,90 574,85 569,80 551,80 551,90 " style="fill:white; stroke-width:1; stroke:black; " description="&lt;b&gt;VFPPC_02490&lt;/b&gt;&lt;br&gt;fungal specific transcription factor domain-containing protein&lt;br&gt;Location: 1169686 - 1167049" locus_tag="VFPPC_02490" class="clusterblast-orf" id="dummy-6_h6_10_18"  />
</g>
<g id="a6_0019"  >
<polygon points="578,85 583,80 593,80 593,90 583,90 578,85 " style="fill:#d81580; stroke-width:1; stroke:black; " description="&lt;b&gt;VFPPC_02489&lt;/b&gt;&lt;br&gt;serine/threonine-protein kinase RIO1&lt;br&gt;Location: 1166677 - 1164958&lt;br&gt;&lt;br&gt;&lt;b&gt;BlastP hit with input.path1.gene1237&lt;/b&gt;&lt;br&gt;Percentage identity: 76&lt;br&gt;Percentage coverage: 84&lt;br&gt;BLAST bit score: 698&lt;br&gt;E-value: 2.9e-248" locus_tag="VFPPC_02489" class="clusterblast-orf" id="dummy-6_h6_10_19"  />
</g>
<g id="a6_0020"  >
<polygon points="606,90 613,90 618,85 613,80 606,80 606,90 " style="fill:#15d8a3; stroke-width:1; stroke:black; " description="&lt;b&gt;VFPPC_02488&lt;/b&gt;&lt;br&gt;aspartic proteinase&lt;br&gt;Location: 1163484 - 1162103&lt;br&gt;&lt;br&gt;&lt;b&gt;BlastP hit with input.path1.gene1240&lt;/b&gt;&lt;br&gt;Percentage identity: 53&lt;br&gt;Percentage coverage: 86&lt;br&gt;BLAST bit score: 318&lt;br&gt;E-value: 1.5e-104" locus_tag="VFPPC_02488" class="clusterblast-orf" id="dummy-6_h6_10_20"  />
</g>
<g id="a6_0021"  >
<polygon points="626,90 630,90 635,85 630,80 626,80 626,90 " style="fill:#5c15d8; stroke-width:1; stroke:black; " description="&lt;b&gt;VFPPC_02487&lt;/b&gt;&lt;br&gt;NmrA family protein&lt;br&gt;Location: 1161264 - 1160284&lt;br&gt;&lt;br&gt;&lt;b&gt;BlastP hit with input.path1.gene1241&lt;/b&gt;&lt;br&gt;Percentage identity: 64&lt;br&gt;Percentage coverage: 95&lt;br&gt;BLAST bit score: 342&lt;br&gt;E-value: 3.57e-116" locus_tag="VFPPC_02487" class="clusterblast-orf" id="dummy-6_h6_10_21"  />
</g>
<g id="a6_0022"  >
<polygon points="638,85 643,80 653,80 653,90 643,90 638,85 " style="fill:white; stroke-width:1; stroke:black; " description="&lt;b&gt;VFPPC_02486&lt;/b&gt;&lt;br&gt;HET domain-containing protein&lt;br&gt;Location: 1159948 - 1158218" locus_tag="VFPPC_02486" class="clusterblast-orf" id="dummy-6_h6_10_22"  />
</g>
<g id="a6_0023"  >
<polygon points="657,90 658,90 663,85 658,80 657,80 657,90 " style="fill:white; stroke-width:1; stroke:black; " description="&lt;b&gt;VFPPC_15511&lt;/b&gt;&lt;br&gt;hypothetical protein&lt;br&gt;Location: 1157764 - 1157158" locus_tag="VFPPC_15511" class="clusterblast-orf" id="dummy-6_h6_10_23"  />
</g>
<g id="a6_0024"  >
<polygon points="672,90 676,90 681,85 676,80 672,80 672,90 " style="fill:#15a3d8; stroke-width:1; stroke:black; " description="&lt;b&gt;VFPPC_13283&lt;/b&gt;&lt;br&gt;hypothetical protein&lt;br&gt;Location: 1156056 - 1155055&lt;br&gt;&lt;br&gt;&lt;b&gt;BlastP hit with input.path1.gene1229&lt;/b&gt;&lt;br&gt;Percentage identity: 50&lt;br&gt;Percentage coverage: 65&lt;br&gt;BLAST bit score: 186&lt;br&gt;E-value: 6.2e-54" locus_tag="VFPPC_13283" class="clusterblast-orf" id="dummy-6_h6_10_24"  />
</g>
<g id="a6_0025"  >
<polygon points="688,85 693,80 693,80 693,90 693,90 688,85 " style="fill:white; stroke-width:1; stroke:black; " description="&lt;b&gt;VFPPC_13282&lt;/b&gt;&lt;br&gt;hypothetical protein&lt;br&gt;Location: 1154309 - 1153789" locus_tag="VFPPC_13282" class="clusterblast-orf" id="dummy-6_h6_10_25"  />
</g>
<g id="a6_0026"  >
<polygon points="695,85 697,80 697,90 695,85 " style="fill:white; stroke-width:1; stroke:black; " description="&lt;b&gt;VFPPC_15510&lt;/b&gt;&lt;br&gt;hypothetical protein&lt;br&gt;Location: 1153545 - 1153264" locus_tag="VFPPC_15510" class="clusterblast-orf" id="dummy-6_h6_10_26"  />
</g>
<g id="a6_0027"  >
<polygon points="703,90 705,90 710,85 705,80 703,80 703,90 " style="fill:white; stroke-width:1; stroke:black; " description="&lt;b&gt;VFPPC_02485&lt;/b&gt;&lt;br&gt;phosphoglycerate mutase family protein&lt;br&gt;Location: 1152643 - 1151860" locus_tag="VFPPC_02485" class="clusterblast-orf" id="dummy-6_h6_10_27"  />
</g>
<g id="a6_0028"  >
<polygon points="716,85 721,80 727,80 727,90 721,90 716,85 " style="fill:#d81515; stroke-width:1; stroke:black; " description="&lt;b&gt;VFPPC_02484&lt;/b&gt;&lt;br&gt;catalytic protein&lt;br&gt;Location: 1151219 - 1149969&lt;br&gt;&lt;br&gt;&lt;b&gt;BlastP hit with input.path1.gene1227&lt;/b&gt;&lt;br&gt;Percentage identity: 55&lt;br&gt;Percentage coverage: 93&lt;br&gt;BLAST bit score: 380&lt;br&gt;E-value: 8.26e-129" locus_tag="VFPPC_02484" class="clusterblast-orf" id="dummy-6_h6_10_28"  />
</g>
<g id="a6_0029"  >
<polygon points="755,90 760,90 765,85 760,80 755,80 755,90 " style="fill:white; stroke-width:1; stroke:black; " description="&lt;b&gt;VFPPC_13281&lt;/b&gt;&lt;br&gt;major facilitator superfamily protein&lt;br&gt;Location: 1146837 - 1145650" locus_tag="VFPPC_13281" class="clusterblast-orf" id="dummy-6_h6_10_29"  />
</g>
<g id="a6_0030"  >
<polygon points="767,85 772,80 780,80 780,90 772,90 767,85 " style="fill:white; stroke-width:1; stroke:black; " description="&lt;b&gt;VFPPC_02481&lt;/b&gt;&lt;br&gt;hypothetical protein&lt;br&gt;Location: 1145435 - 1144046" locus_tag="VFPPC_02481" class="clusterblast-orf" id="dummy-6_h6_10_30"  />
</g>
</svg>
