<svg xmlns="http://www.w3.org/2000/svg" xmlns:xlink="http://www.w3.org/1999/xlink" version="1.1" x="0" y="0" height="230" width="800" viewBox="0 0 800 230" preserveAspectRatio="none"  >
<g label="Query sequence" class="clusterblast-cluster"  >
<text x="5" y="20" class="clusterblast-acc"  >
Query sequence</text>
<line x1="10" y1="35" x2="778.0" y2="35" style="stroke-width:1; stroke:grey; "  />
<polygon points="228,40 229,35 228,30 228,40 " style="fill:white; stroke-width:1; stroke:black; " description="&lt;b&gt;input.path1.gene1&lt;/b&gt;&lt;br&gt;input.path1.gene1&lt;br&gt;Location: 0 - 98" locus_tag="input.path1.gene1" class="clusterblast-orf" id="dummy-1_q0_0_all"  />
<polygon points="231,35 236,30 260,30 260,40 236,40 231,35 " style="fill:#d81515; stroke-width:1; stroke:black; " description="&lt;b&gt;input.path1.gene2&lt;/b&gt;&lt;br&gt;input.path1.gene2&lt;br&gt;Location: 300 - 3386" locus_tag="input.path1.gene2" class="clusterblast-orf" id="dummy-1_q1_0_all"  />
<polygon points="300,40 373,40 378,35 373,30 300,30 300,40 " style="fill:#15d815; stroke-width:1; stroke:black; " description="&lt;b&gt;input.path1.gene3&lt;/b&gt;&lt;br&gt;input.path1.gene3&lt;br&gt;Location: 7637 - 15828" locus_tag="input.path1.gene3" class="clusterblast-orf" id="dummy-1_q2_0_all"  />
<polygon points="446,40 453,40 458,35 453,30 446,30 446,40 " style="fill:white; stroke-width:1; stroke:black; " description="&lt;b&gt;input.path1.gene4&lt;/b&gt;&lt;br&gt;input.path1.gene4&lt;br&gt;Location: 23061 - 24338" locus_tag="input.path1.gene4" class="clusterblast-orf" id="dummy-1_q3_0_all"  />
<polygon points="471,35 476,30 476,30 476,40 476,40 471,35 " style="fill:white; stroke-width:1; stroke:black; " description="&lt;b&gt;input.path1.gene5&lt;/b&gt;&lt;br&gt;input.path1.gene5&lt;br&gt;Location: 25766 - 26284" locus_tag="input.path1.gene5" class="clusterblast-orf" id="dummy-1_q4_0_all"  />
<polygon points="492,35 497,30 505,30 505,40 497,40 492,35 " style="fill:white; stroke-width:1; stroke:black; " description="&lt;b&gt;input.path1.gene6&lt;/b&gt;&lt;br&gt;input.path1.gene6&lt;br&gt;Location: 27942 - 29292" locus_tag="input.path1.gene6" class="clusterblast-orf" id="dummy-1_q5_0_all"  />
<polygon points="527,35 532,30 551,30 551,40 532,40 527,35 " style="fill:#1515d8; stroke-width:1; stroke:black; " description="&lt;b&gt;input.path1.gene7&lt;/b&gt;&lt;br&gt;input.path1.gene7&lt;br&gt;Location: 31671 - 34215" locus_tag="input.path1.gene7" class="clusterblast-orf" id="dummy-1_q6_0_all"  />
</g>
<g label="NW_013566976" description="NW_013566976 (286405-371170): Aureobasidium subglaciale EXF-2481 unplaced gen... (6% of genes show similarity), NRPS,T1PKS" class="clusterblast-cluster"  >
<text x="5" y="70" class="clusterblast-acc"  >
<a xlink:href="https://antismash-db.secondarymetabolites.org/area?record=NW_013566976&amp;start=286405&amp;end=371170" target="_blank">NW_013566976 (286405-371170)</a>: Aureobasidium subglaciale EXF-2481 unplaced gen... (6% of genes show similarity), NRPS,T1PKS</text>
<line x1="10" y1="85" x2="778.0" y2="85" style="stroke-width:1; stroke:grey; "  />
</g>
<g id="a1_000"  >
<polygon points="0,90 1,90 6,85 1,80 0,80 0,90 " style="fill:white; stroke-width:1; stroke:black; " description="&lt;b&gt;AUEXF2481DRAFT_42633&lt;/b&gt;&lt;br&gt;hypothetical protein&lt;br&gt;Location: 369119 - 368478" locus_tag="AUEXF2481DRAFT_42633" class="clusterblast-orf" id="dummy-1_h1_2_0"  />
</g>
<g id="a1_001"  >
<polygon points="11,90 30,90 35,85 30,80 11,80 11,90 " style="fill:white; stroke-width:1; stroke:black; " description="&lt;b&gt;AUEXF2481DRAFT_7294&lt;/b&gt;&lt;br&gt;hypothetical protein&lt;br&gt;Location: 367874 - 365411" locus_tag="AUEXF2481DRAFT_7294" class="clusterblast-orf" id="dummy-1_h1_2_1"  />
</g>
<g id="a1_002"  >
<polygon points="41,90 54,90 59,85 54,80 41,80 41,90 " style="fill:white; stroke-width:1; stroke:black; " description="&lt;b&gt;AUEXF2481DRAFT_42630&lt;/b&gt;&lt;br&gt;hypothetical protein&lt;br&gt;Location: 364686 - 362863" locus_tag="AUEXF2481DRAFT_42630" class="clusterblast-orf" id="dummy-1_h1_2_2"  />
</g>
<g id="a1_003"  >
<polygon points="78,90 86,90 91,85 86,80 78,80 78,90 " style="fill:white; stroke-width:1; stroke:black; " description="&lt;b&gt;AUEXF2481DRAFT_366072&lt;/b&gt;&lt;br&gt;hypothetical protein&lt;br&gt;Location: 360820 - 359387" locus_tag="AUEXF2481DRAFT_366072" class="clusterblast-orf" id="dummy-1_h1_2_3"  />
</g>
<g id="a1_004"  >
<polygon points="98,85 103,80 106,80 106,90 103,90 98,85 " style="fill:white; stroke-width:1; stroke:black; " description="&lt;b&gt;AUEXF2481DRAFT_110589&lt;/b&gt;&lt;br&gt;hypothetical protein&lt;br&gt;Location: 358714 - 357812" locus_tag="AUEXF2481DRAFT_110589" class="clusterblast-orf" id="dummy-1_h1_2_4"  />
</g>
<g id="a1_005"  >
<polygon points="114,85 119,80 121,80 121,90 119,90 114,85 " style="fill:white; stroke-width:1; stroke:black; " description="&lt;b&gt;AUEXF2481DRAFT_42627&lt;/b&gt;&lt;br&gt;hypothetical protein&lt;br&gt;Location: 357048 - 356287" locus_tag="AUEXF2481DRAFT_42627" class="clusterblast-orf" id="dummy-1_h1_2_5"  />
</g>
<g id="a1_006"  >
<polygon points="124,85 129,80 132,80 132,90 129,90 124,85 " style="fill:white; stroke-width:1; stroke:black; " description="&lt;b&gt;AUEXF2481DRAFT_42626&lt;/b&gt;&lt;br&gt;hypothetical protein&lt;br&gt;Location: 355911 - 355090" locus_tag="AUEXF2481DRAFT_42626" class="clusterblast-orf" id="dummy-1_h1_2_6"  />
</g>
<g id="a1_007"  >
<polygon points="138,90 140,90 145,85 140,80 138,80 138,90 " style="fill:white; stroke-width:1; stroke:black; " description="&lt;b&gt;AUEXF2481DRAFT_7289&lt;/b&gt;&lt;br&gt;hypothetical protein&lt;br&gt;Location: 354474 - 353670" locus_tag="AUEXF2481DRAFT_7289" class="clusterblast-orf" id="dummy-1_h1_2_7"  />
</g>
<g id="a1_008"  >
<polygon points="148,85 153,80 172,80 172,90 153,90 148,85 " style="fill:white; stroke-width:1; stroke:black; " description="&lt;b&gt;AUEXF2481DRAFT_68011&lt;/b&gt;&lt;br&gt;hypothetical protein&lt;br&gt;Location: 353385 - 350846" locus_tag="AUEXF2481DRAFT_68011" class="clusterblast-orf" id="dummy-1_h1_2_8"  />
</g>
<g id="a1_009"  >
<polygon points="193,90 196,90 201,85 196,80 193,80 193,90 " style="fill:white; stroke-width:1; stroke:black; " description="&lt;b&gt;AUEXF2481DRAFT_81948&lt;/b&gt;&lt;br&gt;hypothetical protein&lt;br&gt;Location: 348660 - 347841" locus_tag="AUEXF2481DRAFT_81948" class="clusterblast-orf" id="dummy-1_h1_2_9"  />
</g>
<g id="a1_0010"  >
<polygon points="209,85 214,80 225,80 225,90 214,90 209,85 " style="fill:white; stroke-width:1; stroke:black; " description="&lt;b&gt;AUEXF2481DRAFT_31788&lt;/b&gt;&lt;br&gt;hypothetical protein&lt;br&gt;Location: 346931 - 345231" locus_tag="AUEXF2481DRAFT_31788" class="clusterblast-orf" id="dummy-1_h1_2_10"  />
</g>
<g id="a1_0011"  >
<polygon points="243,85 248,80 254,80 254,90 248,90 243,85 " style="fill:white; stroke-width:1; stroke:black; " description="&lt;b&gt;AUEXF2481DRAFT_81946&lt;/b&gt;&lt;br&gt;hypothetical protein&lt;br&gt;Location: 343308 - 342228" locus_tag="AUEXF2481DRAFT_81946" class="clusterblast-orf" id="dummy-1_h1_2_11"  />
</g>
<g id="a1_0012"  >
<polygon points="264,90 291,90 296,85 291,80 264,80 264,90 " style="fill:white; stroke-width:1; stroke:black; " description="&lt;b&gt;AUEXF2481DRAFT_365836&lt;/b&gt;&lt;br&gt;hypothetical protein&lt;br&gt;Location: 341170 - 337757" locus_tag="AUEXF2481DRAFT_365836" class="clusterblast-orf" id="dummy-1_h1_2_12"  />
</g>
<g id="a1_0013"  >
<polygon points="300,85 305,80 312,80 312,90 305,90 300,85 " style="fill:white; stroke-width:1; stroke:black; " description="&lt;b&gt;AUEXF2481DRAFT_365803&lt;/b&gt;&lt;br&gt;hypothetical protein&lt;br&gt;Location: 337325 - 336084" locus_tag="AUEXF2481DRAFT_365803" class="clusterblast-orf" id="dummy-1_h1_2_13"  />
</g>
<g id="a1_0014"  >
<polygon points="317,90 322,90 327,85 322,80 317,80 317,90 " style="fill:white; stroke-width:1; stroke:black; " description="&lt;b&gt;AUEXF2481DRAFT_7281&lt;/b&gt;&lt;br&gt;hypothetical protein&lt;br&gt;Location: 335523 - 334441" locus_tag="AUEXF2481DRAFT_7281" class="clusterblast-orf" id="dummy-1_h1_2_14"  />
</g>
<g id="a1_0015"  >
<polygon points="331,85 336,80 344,80 344,90 336,90 331,85 " style="fill:white; stroke-width:1; stroke:black; " description="&lt;b&gt;AUEXF2481DRAFT_81942&lt;/b&gt;&lt;br&gt;hypothetical protein&lt;br&gt;Location: 334017 - 332633" locus_tag="AUEXF2481DRAFT_81942" class="clusterblast-orf" id="dummy-1_h1_2_15"  />
</g>
<g id="a1_0016"  >
<polygon points="348,90 354,90 359,85 354,80 348,80 348,90 " style="fill:white; stroke-width:1; stroke:black; " description="&lt;b&gt;AUEXF2481DRAFT_42613&lt;/b&gt;&lt;br&gt;hypothetical protein&lt;br&gt;Location: 332256 - 331087" locus_tag="AUEXF2481DRAFT_42613" class="clusterblast-orf" id="dummy-1_h1_2_16"  />
</g>
<g id="a1_0017"  >
<polygon points="366,85 371,80 381,80 381,90 371,90 366,85 " style="fill:white; stroke-width:1; stroke:black; " description="&lt;b&gt;AUEXF2481DRAFT_42612&lt;/b&gt;&lt;br&gt;hypothetical protein&lt;br&gt;Location: 330323 - 328787" locus_tag="AUEXF2481DRAFT_42612" class="clusterblast-orf" id="dummy-1_h1_2_17"  />
</g>
<g id="a1_0018"  >
<polygon points="391,90 406,90 411,85 406,80 391,80 391,90 " style="fill:#d81515; stroke-width:1; stroke:black; " description="&lt;b&gt;AUEXF2481DRAFT_31780&lt;/b&gt;&lt;br&gt;hypothetical protein&lt;br&gt;Location: 327643 - 325543&lt;br&gt;&lt;br&gt;&lt;b&gt;BlastP hit with input.path1.gene2&lt;/b&gt;&lt;br&gt;Percentage identity: 51&lt;br&gt;Percentage coverage: 17&lt;br&gt;BLAST bit score: 96&lt;br&gt;E-value: 1.9e-18" locus_tag="AUEXF2481DRAFT_31780" class="clusterblast-orf" id="dummy-1_h1_2_18"  />
</g>
<g id="a1_0019"  >
<polygon points="419,90 493,90 498,85 493,80 419,80 419,90 " style="fill:#15d815; stroke-width:1; stroke:black; " description="&lt;b&gt;AUEXF2481DRAFT_7276&lt;/b&gt;&lt;br&gt;hypothetical protein&lt;br&gt;Location: 324699 - 316406&lt;br&gt;&lt;br&gt;&lt;b&gt;BlastP hit with input.path1.gene3&lt;/b&gt;&lt;br&gt;Percentage identity: 43&lt;br&gt;Percentage coverage: 110&lt;br&gt;BLAST bit score: 2033&lt;br&gt;E-value: 0.0" locus_tag="AUEXF2481DRAFT_7276" class="clusterblast-orf" id="dummy-1_h1_2_19"  />
</g>
<g id="a1_0020"  >
<polygon points="505,85 510,80 520,80 520,90 510,90 505,85 " style="fill:white; stroke-width:1; stroke:black; " description="&lt;b&gt;AUEXF2481DRAFT_7275&lt;/b&gt;&lt;br&gt;hypothetical protein&lt;br&gt;Location: 315649 - 313993" locus_tag="AUEXF2481DRAFT_7275" class="clusterblast-orf" id="dummy-1_h1_2_20"  />
</g>
<g id="a1_0021"  >
<polygon points="522,90 531,90 536,85 531,80 522,80 522,90 " style="fill:white; stroke-width:1; stroke:black; " description="&lt;b&gt;AUEXF2481DRAFT_42609&lt;/b&gt;&lt;br&gt;hypothetical protein&lt;br&gt;Location: 313769 - 312318" locus_tag="AUEXF2481DRAFT_42609" class="clusterblast-orf" id="dummy-1_h1_2_21"  />
</g>
<g id="a1_0022"  >
<polygon points="541,90 543,90 548,85 543,80 541,80 541,90 " style="fill:white; stroke-width:1; stroke:black; " description="&lt;b&gt;AUEXF2481DRAFT_31776&lt;/b&gt;&lt;br&gt;hypothetical protein&lt;br&gt;Location: 311751 - 311073" locus_tag="AUEXF2481DRAFT_31776" class="clusterblast-orf" id="dummy-1_h1_2_22"  />
</g>
<g id="a1_0023"  >
<polygon points="560,90 574,90 579,85 574,80 560,80 560,90 " style="fill:white; stroke-width:1; stroke:black; " description="&lt;b&gt;AUEXF2481DRAFT_31775&lt;/b&gt;&lt;br&gt;hypothetical protein&lt;br&gt;Location: 309803 - 307741" locus_tag="AUEXF2481DRAFT_31775" class="clusterblast-orf" id="dummy-1_h1_2_23"  />
</g>
<g id="a1_0024"  >
<polygon points="582,85 587,80 590,80 590,90 587,90 582,85 " style="fill:white; stroke-width:1; stroke:black; " description="&lt;b&gt;AUEXF2481DRAFT_81934&lt;/b&gt;&lt;br&gt;hypothetical protein&lt;br&gt;Location: 307468 - 306617" locus_tag="AUEXF2481DRAFT_81934" class="clusterblast-orf" id="dummy-1_h1_2_24"  />
</g>
<g id="a1_0025"  >
<polygon points="601,90 609,90 614,85 609,80 601,80 601,90 " style="fill:white; stroke-width:1; stroke:black; " description="&lt;b&gt;AUEXF2481DRAFT_68061&lt;/b&gt;&lt;br&gt;hypothetical protein&lt;br&gt;Location: 305479 - 304033" locus_tag="AUEXF2481DRAFT_68061" class="clusterblast-orf" id="dummy-1_h1_2_25"  />
</g>
<g id="a1_0026"  >
<polygon points="617,85 622,80 635,80 635,90 622,90 617,85 " style="fill:white; stroke-width:1; stroke:black; " description="&lt;b&gt;AUEXF2481DRAFT_42601&lt;/b&gt;&lt;br&gt;hypothetical protein&lt;br&gt;Location: 303711 - 301858" locus_tag="AUEXF2481DRAFT_42601" class="clusterblast-orf" id="dummy-1_h1_2_26"  />
</g>
<g id="a1_0027"  >
<polygon points="648,85 653,80 671,80 671,90 653,90 648,85 " style="fill:white; stroke-width:1; stroke:black; " description="&lt;b&gt;AUEXF2481DRAFT_42600&lt;/b&gt;&lt;br&gt;hypothetical protein&lt;br&gt;Location: 300469 - 298023" locus_tag="AUEXF2481DRAFT_42600" class="clusterblast-orf" id="dummy-1_h1_2_27"  />
</g>
<g id="a1_0028"  >
<polygon points="688,90 715,90 720,85 715,80 688,80 688,90 " style="fill:white; stroke-width:1; stroke:black; " description="&lt;b&gt;AUEXF2481DRAFT_31770&lt;/b&gt;&lt;br&gt;hypothetical protein&lt;br&gt;Location: 296209 - 292907" locus_tag="AUEXF2481DRAFT_31770" class="clusterblast-orf" id="dummy-1_h1_2_28"  />
</g>
<g id="a1_0029"  >
<polygon points="729,90 747,90 752,85 747,80 729,80 729,90 " style="fill:white; stroke-width:1; stroke:black; " description="&lt;b&gt;AUEXF2481DRAFT_31769&lt;/b&gt;&lt;br&gt;hypothetical protein&lt;br&gt;Location: 291853 - 289487" locus_tag="AUEXF2481DRAFT_31769" class="clusterblast-orf" id="dummy-1_h1_2_29"  />
</g>
<g id="a1_0030"  >
<polygon points="764,90 767,90 772,85 767,80 764,80 764,90 " style="fill:white; stroke-width:1; stroke:black; " description="&lt;b&gt;AUEXF2481DRAFT_31768&lt;/b&gt;&lt;br&gt;hypothetical protein&lt;br&gt;Location: 288219 - 287384" locus_tag="AUEXF2481DRAFT_31768" class="clusterblast-orf" id="dummy-1_h1_2_30"  />
</g>
<g id="a1_0031"  >
<polygon points="775,90 775,90 780,85 775,80 775,80 775,90 " style="fill:white; stroke-width:1; stroke:black; " description="&lt;b&gt;AUEXF2481DRAFT_365120&lt;/b&gt;&lt;br&gt;hypothetical protein&lt;br&gt;Location: 287054 - 286557" locus_tag="AUEXF2481DRAFT_365120" class="clusterblast-orf" id="dummy-1_h1_2_31"  />
</g>
</svg>
