<svg xmlns="http://www.w3.org/2000/svg" xmlns:xlink="http://www.w3.org/1999/xlink" version="1.1" x="0" y="0" height="230" width="800" viewBox="0 0 800 230" preserveAspectRatio="none"  >
<g label="Query sequence" class="clusterblast-cluster"  >
<text x="5" y="20" class="clusterblast-acc"  >
Query sequence</text>
<line x1="10" y1="35" x2="778.0" y2="35" style="stroke-width:1; stroke:grey; "  />
<polygon points="158,40 201,40 206,35 201,30 158,30 158,40 " style="fill:#d81515; stroke-width:1; stroke:black; " description="&lt;b&gt;input.path1.gene1211&lt;/b&gt;&lt;br&gt;input.path1.gene1211&lt;br&gt;Location: 4497622 - 4502854" locus_tag="input.path1.gene1211" class="clusterblast-orf" id="dummy-10_q0_0_all"  />
<polygon points="210,35 215,30 220,30 220,40 215,40 210,35 " style="fill:#33d815; stroke-width:1; stroke:black; " description="&lt;b&gt;input.path1.gene1212&lt;/b&gt;&lt;br&gt;input.path1.gene1212&lt;br&gt;Location: 4503290 - 4504399" locus_tag="input.path1.gene1212" class="clusterblast-orf" id="dummy-10_q1_0_all"  />
<polygon points="221,40 234,40 239,35 234,30 221,30 221,40 " style="fill:#15abd8; stroke-width:1; stroke:black; " description="&lt;b&gt;input.path1.gene1213&lt;/b&gt;&lt;br&gt;input.path1.gene1213&lt;br&gt;Location: 4504602 - 4506558" locus_tag="input.path1.gene1213" class="clusterblast-orf" id="dummy-10_q2_0_all"  />
<polygon points="248,35 253,30 262,30 262,40 253,40 248,35 " style="fill:#8d15d8; stroke-width:1; stroke:black; " description="&lt;b&gt;input.path1.gene1214&lt;/b&gt;&lt;br&gt;input.path1.gene1214&lt;br&gt;Location: 4507597 - 4509096" locus_tag="input.path1.gene1214" class="clusterblast-orf" id="dummy-10_q3_0_all"  />
<polygon points="276,35 281,30 295,30 295,40 281,40 276,35 " style="fill:#d86f15; stroke-width:1; stroke:black; " description="&lt;b&gt;input.path1.gene1215&lt;/b&gt;&lt;br&gt;input.path1.gene1215&lt;br&gt;Location: 4510637 - 4512772" locus_tag="input.path1.gene1215" class="clusterblast-orf" id="dummy-10_q4_0_all"  />
<polygon points="319,35 324,30 401,30 401,40 324,40 319,35 " style="fill:#15d851; stroke-width:1; stroke:black; " description="&lt;b&gt;input.path1.gene1216&lt;/b&gt;&lt;br&gt;input.path1.gene1216&lt;br&gt;Location: 4515414 - 4524504" locus_tag="input.path1.gene1216" class="clusterblast-orf" id="dummy-10_q5_0_all"  />
<polygon points="410,40 421,40 426,35 421,30 410,30 410,40 " style="fill:#1551d8; stroke-width:1; stroke:black; " description="&lt;b&gt;input.path1.gene1217&lt;/b&gt;&lt;br&gt;input.path1.gene1217&lt;br&gt;Location: 4525505 - 4527267" locus_tag="input.path1.gene1217" class="clusterblast-orf" id="dummy-10_q6_0_all"  />
<polygon points="429,40 452,40 457,35 452,30 429,30 429,40 " style="fill:#d815c9; stroke-width:1; stroke:black; " description="&lt;b&gt;input.path1.gene1218&lt;/b&gt;&lt;br&gt;input.path1.gene1218&lt;br&gt;Location: 4527640 - 4530701" locus_tag="input.path1.gene1218" class="clusterblast-orf" id="dummy-10_q7_0_all"  />
<polygon points="470,40 495,40 500,35 495,30 470,30 470,40 " style="fill:#d815c9; stroke-width:1; stroke:black; " description="&lt;b&gt;input.path1.gene1219&lt;/b&gt;&lt;br&gt;input.path1.gene1219&lt;br&gt;Location: 4532139 - 4535460" locus_tag="input.path1.gene1219" class="clusterblast-orf" id="dummy-10_q8_0_all"  />
<polygon points="504,35 509,30 520,30 520,40 509,40 504,35 " style="fill:#d8c915; stroke-width:1; stroke:black; " description="&lt;b&gt;input.path1.gene1220&lt;/b&gt;&lt;br&gt;input.path1.gene1220&lt;br&gt;Location: 4535936 - 4537681" locus_tag="input.path1.gene1220" class="clusterblast-orf" id="dummy-10_q9_0_all"  />
<polygon points="524,40 532,40 537,35 532,30 524,30 524,40 " style="fill:#15d8ab; stroke-width:1; stroke:black; " description="&lt;b&gt;input.path1.gene1221&lt;/b&gt;&lt;br&gt;input.path1.gene1221&lt;br&gt;Location: 4538103 - 4539598" locus_tag="input.path1.gene1221" class="clusterblast-orf" id="dummy-10_q10_0_all"  />
<polygon points="540,35 545,30 571,30 571,40 545,40 540,35 " style="fill:#3315d8; stroke-width:1; stroke:black; " description="&lt;b&gt;input.path1.gene1222&lt;/b&gt;&lt;br&gt;input.path1.gene1222&lt;br&gt;Location: 4539903 - 4543332" locus_tag="input.path1.gene1222" class="clusterblast-orf" id="dummy-10_q11_0_all"  />
<polygon points="579,40 594,40 599,35 594,30 579,30 579,40 " style="fill:#d8156f; stroke-width:1; stroke:black; " description="&lt;b&gt;input.path1.gene1223&lt;/b&gt;&lt;br&gt;input.path1.gene1223&lt;br&gt;Location: 4544197 - 4546463" locus_tag="input.path1.gene1223" class="clusterblast-orf" id="dummy-10_q12_0_all"  />
<polygon points="609,35 614,30 621,30 621,40 614,40 609,35 " style="fill:#8dd815; stroke-width:1; stroke:black; " description="&lt;b&gt;input.path1.gene1224&lt;/b&gt;&lt;br&gt;input.path1.gene1224&lt;br&gt;Location: 4547585 - 4548847" locus_tag="input.path1.gene1224" class="clusterblast-orf" id="dummy-10_q13_0_all"  />
</g>
<g label="NC_064678" description="NC_064678 (3752676-3843730): Colletotrichum lupini chromosome 5, complete seq... (25% of genes show similarity), T1PKS,fungal-RiPP-like" class="clusterblast-cluster"  >
<text x="5" y="70" class="clusterblast-acc"  >
<a xlink:href="https://antismash-db.secondarymetabolites.org/area?record=NC_064678&amp;start=3752676&amp;end=3843730" target="_blank">NC_064678 (3752676-3843730)</a>: Colletotrichum lupini chromosome 5, complete seq... (25% of genes show similarity), T1PKS,fungal-RiPP-like</text>
<line x1="10" y1="85" x2="778.0" y2="85" style="stroke-width:1; stroke:grey; "  />
</g>
<g id="a10_000"  >
<polygon points="0,85 2,80 2,90 0,85 " style="fill:white; stroke-width:1; stroke:black; " description="&lt;b&gt;CLUP02_10497&lt;/b&gt;&lt;br&gt;uncharacterized protein&lt;br&gt;Location: 3756782 - 3757051" locus_tag="CLUP02_10497" class="clusterblast-orf" id="dummy-10_h10_1_0"  />
</g>
<g id="a10_001"  >
<polygon points="4,85 9,80 9,80 9,90 9,90 4,85 " style="fill:white; stroke-width:1; stroke:black; " description="&lt;b&gt;CLUP02_10498&lt;/b&gt;&lt;br&gt;uncharacterized protein&lt;br&gt;Location: 3757307 - 3757802" locus_tag="CLUP02_10498" class="clusterblast-orf" id="dummy-10_h10_1_1"  />
</g>
<g id="a10_002"  >
<polygon points="9,85 14,80 25,80 25,90 14,90 9,85 " style="fill:white; stroke-width:1; stroke:black; " description="&lt;b&gt;CLUP02_10499&lt;/b&gt;&lt;br&gt;tubulin/FtsZ family protein&lt;br&gt;Location: 3757889 - 3759602" locus_tag="CLUP02_10499" class="clusterblast-orf" id="dummy-10_h10_1_2"  />
</g>
<g id="a10_003"  >
<polygon points="29,90 37,90 42,85 37,80 29,80 29,90 " style="fill:white; stroke-width:1; stroke:black; " description="&lt;b&gt;CLUP02_10500&lt;/b&gt;&lt;br&gt;uncharacterized protein&lt;br&gt;Location: 3760009 - 3761504" locus_tag="CLUP02_10500" class="clusterblast-orf" id="dummy-10_h10_1_3"  />
</g>
<g id="a10_004"  >
<polygon points="43,90 87,90 92,85 87,80 43,80 43,90 " style="fill:#d81515; stroke-width:1; stroke:black; " description="&lt;b&gt;CLUP02_10501&lt;/b&gt;&lt;br&gt;uncharacterized protein&lt;br&gt;Location: 3761566 - 3766995&lt;br&gt;&lt;br&gt;&lt;b&gt;BlastP hit with input.path1.gene1211&lt;/b&gt;&lt;br&gt;Percentage identity: 57&lt;br&gt;Percentage coverage: 106&lt;br&gt;BLAST bit score: 1843&lt;br&gt;E-value: 0.0" locus_tag="CLUP02_10501" class="clusterblast-orf" id="dummy-10_h10_1_4"  />
</g>
<g id="a10_005"  >
<polygon points="94,85 99,80 101,80 101,90 99,90 94,85 " style="fill:#33d815; stroke-width:1; stroke:black; " description="&lt;b&gt;CLUP02_10502&lt;/b&gt;&lt;br&gt;ubiquinone biosynthesis protein COQ7&lt;br&gt;Location: 3767204 - 3768054&lt;br&gt;&lt;br&gt;&lt;b&gt;BlastP hit with input.path1.gene1212&lt;/b&gt;&lt;br&gt;Percentage identity: 84&lt;br&gt;Percentage coverage: 48&lt;br&gt;BLAST bit score: 239&lt;br&gt;E-value: 5.27e-77" locus_tag="CLUP02_10502" class="clusterblast-orf" id="dummy-10_h10_1_5"  />
</g>
<g id="a10_006"  >
<polygon points="106,90 120,90 125,85 120,80 106,80 106,90 " style="fill:#15abd8; stroke-width:1; stroke:black; " description="&lt;b&gt;CLUP02_10503&lt;/b&gt;&lt;br&gt;plus-3 domain-containing protein&lt;br&gt;Location: 3768578 - 3770688&lt;br&gt;&lt;br&gt;&lt;b&gt;BlastP hit with input.path1.gene1213&lt;/b&gt;&lt;br&gt;Percentage identity: 45&lt;br&gt;Percentage coverage: 87&lt;br&gt;BLAST bit score: 360&lt;br&gt;E-value: 1.99e-114" locus_tag="CLUP02_10503" class="clusterblast-orf" id="dummy-10_h10_1_6"  />
</g>
<g id="a10_007"  >
<polygon points="135,90 144,90 149,85 144,80 135,80 135,90 " style="fill:#8d15d8; stroke-width:1; stroke:black; " description="&lt;b&gt;CLUP02_10504&lt;/b&gt;&lt;br&gt;glycerophosphoryl diester phosphodiesterase&lt;br&gt;Location: 3771835 - 3773376&lt;br&gt;&lt;br&gt;&lt;b&gt;BlastP hit with input.path1.gene1214&lt;/b&gt;&lt;br&gt;Percentage identity: 44&lt;br&gt;Percentage coverage: 79&lt;br&gt;BLAST bit score: 229&lt;br&gt;E-value: 4.76e-70" locus_tag="CLUP02_10504" class="clusterblast-orf" id="dummy-10_h10_1_7"  />
</g>
<g id="a10_008"  >
<polygon points="156,85 161,80 182,80 182,90 161,90 156,85 " style="fill:#d86f15; stroke-width:1; stroke:black; " description="&lt;b&gt;CLUP02_10505&lt;/b&gt;&lt;br&gt;fungal specific transcription factor domain-containing protein&lt;br&gt;Location: 3774159 - 3777048&lt;br&gt;&lt;br&gt;&lt;b&gt;BlastP hit with input.path1.gene1215&lt;/b&gt;&lt;br&gt;Percentage identity: 74&lt;br&gt;Percentage coverage: 95&lt;br&gt;BLAST bit score: 880&lt;br&gt;E-value: 8.57e-314" locus_tag="CLUP02_10505" class="clusterblast-orf" id="dummy-10_h10_1_8"  />
</g>
<g id="a10_009"  >
<polygon points="186,90 207,90 212,85 207,80 186,80 186,90 " style="fill:white; stroke-width:1; stroke:black; " description="&lt;b&gt;CLUP02_10506&lt;/b&gt;&lt;br&gt;uncharacterized protein&lt;br&gt;Location: 3777406 - 3780293" locus_tag="CLUP02_10506" class="clusterblast-orf" id="dummy-10_h10_1_9"  />
</g>
<g id="a10_0010"  >
<polygon points="212,85 217,80 221,80 221,90 217,90 212,85 " style="fill:white; stroke-width:1; stroke:black; " description="&lt;b&gt;CLUP02_10507&lt;/b&gt;&lt;br&gt;uncharacterized protein&lt;br&gt;Location: 3780369 - 3781360" locus_tag="CLUP02_10507" class="clusterblast-orf" id="dummy-10_h10_1_10"  />
</g>
<g id="a10_0011"  >
<polygon points="224,85 229,80 242,80 242,90 229,90 224,85 " style="fill:#d8c915; stroke-width:1; stroke:black; " description="&lt;b&gt;CLUP02_10508&lt;/b&gt;&lt;br&gt;SET domain-containing protein&lt;br&gt;Location: 3781662 - 3783674&lt;br&gt;&lt;br&gt;&lt;b&gt;BlastP hit with input.path1.gene1220&lt;/b&gt;&lt;br&gt;Percentage identity: 48&lt;br&gt;Percentage coverage: 66&lt;br&gt;BLAST bit score: 215&lt;br&gt;E-value: 3.16e-63" locus_tag="CLUP02_10508" class="clusterblast-orf" id="dummy-10_h10_1_11"  />
</g>
<g id="a10_0012"  >
<polygon points="251,85 256,80 263,80 263,90 256,90 251,85 " style="fill:white; stroke-width:1; stroke:black; " description="&lt;b&gt;CLUP02_10509&lt;/b&gt;&lt;br&gt;uncharacterized protein&lt;br&gt;Location: 3784615 - 3785937" locus_tag="CLUP02_10509" class="clusterblast-orf" id="dummy-10_h10_1_12"  />
</g>
<g id="a10_0013"  >
<polygon points="275,85 280,80 281,80 281,90 280,90 275,85 " style="fill:white; stroke-width:1; stroke:black; " description="&lt;b&gt;CLUP02_10510&lt;/b&gt;&lt;br&gt;uncharacterized protein&lt;br&gt;Location: 3787313 - 3787927" locus_tag="CLUP02_10510" class="clusterblast-orf" id="dummy-10_h10_1_13"  />
</g>
<g id="a10_0014"  >
<polygon points="281,90 303,90 308,85 303,80 281,80 281,90 " style="fill:white; stroke-width:1; stroke:black; " description="&lt;b&gt;CLUP02_10511&lt;/b&gt;&lt;br&gt;uncharacterized protein&lt;br&gt;Location: 3787998 - 3790998" locus_tag="CLUP02_10511" class="clusterblast-orf" id="dummy-10_h10_1_14"  />
</g>
<g id="a10_0015"  >
<polygon points="309,85 314,80 361,80 361,90 314,90 309,85 " style="fill:white; stroke-width:1; stroke:black; " description="&lt;b&gt;CLUP02_10512&lt;/b&gt;&lt;br&gt;rapamycin complex subunit LST8 target&lt;br&gt;Location: 3791077 - 3796847" locus_tag="CLUP02_10512" class="clusterblast-orf" id="dummy-10_h10_1_15"  />
</g>
<g id="a10_0016"  >
<polygon points="369,85 374,80 378,80 378,90 374,90 369,85 " style="fill:white; stroke-width:1; stroke:black; " description="&lt;b&gt;CLUP02_10513&lt;/b&gt;&lt;br&gt;uncharacterized protein&lt;br&gt;Location: 3797677 - 3798730" locus_tag="CLUP02_10513" class="clusterblast-orf" id="dummy-10_h10_1_16"  />
</g>
<g id="a10_0017"  >
<polygon points="387,90 453,90 458,85 453,80 387,80 387,90 " style="fill:#15d851; stroke-width:1; stroke:black; " description="&lt;b&gt;CLUP02_10514&lt;/b&gt;&lt;br&gt;uncharacterized protein&lt;br&gt;Location: 3799678 - 3807622&lt;br&gt;&lt;br&gt;&lt;b&gt;BlastP hit with input.path1.gene1216&lt;/b&gt;&lt;br&gt;Percentage identity: 34&lt;br&gt;Percentage coverage: 17&lt;br&gt;BLAST bit score: 231&lt;br&gt;E-value: 2.27e-58" locus_tag="CLUP02_10514" class="clusterblast-orf" id="dummy-10_h10_1_17"  />
</g>
<g id="a10_0018"  >
<polygon points="471,85 474,80 474,90 471,85 " style="fill:white; stroke-width:1; stroke:black; " description="&lt;b&gt;CLUP02_10515&lt;/b&gt;&lt;br&gt;uncharacterized protein&lt;br&gt;Location: 3809061 - 3809339" locus_tag="CLUP02_10515" class="clusterblast-orf" id="dummy-10_h10_1_18"  />
</g>
<g id="a10_0019"  >
<polygon points="492,90 496,85 492,80 492,90 " style="fill:white; stroke-width:1; stroke:black; " description="&lt;b&gt;CLUP02_10516&lt;/b&gt;&lt;br&gt;uncharacterized protein&lt;br&gt;Location: 3811389 - 3811763" locus_tag="CLUP02_10516" class="clusterblast-orf" id="dummy-10_h10_1_19"  />
</g>
<g id="a10_0020"  >
<polygon points="512,85 517,80 532,80 532,90 517,90 512,85 " style="fill:white; stroke-width:1; stroke:black; " description="&lt;b&gt;CLUP02_10517&lt;/b&gt;&lt;br&gt;FHA domain-containing protein&lt;br&gt;Location: 3813552 - 3815811" locus_tag="CLUP02_10517" class="clusterblast-orf" id="dummy-10_h10_1_20"  />
</g>
<g id="a10_0021"  >
<polygon points="555,90 557,85 555,80 555,90 " style="fill:white; stroke-width:1; stroke:black; " description="&lt;b&gt;CLUP02_10518&lt;/b&gt;&lt;br&gt;uncharacterized protein&lt;br&gt;Location: 3818297 - 3818506" locus_tag="CLUP02_10518" class="clusterblast-orf" id="dummy-10_h10_1_21"  />
</g>
<g id="a10_0022"  >
<polygon points="562,90 570,90 575,85 570,80 562,80 562,90 " style="fill:white; stroke-width:1; stroke:black; " description="&lt;b&gt;CLUP02_10519&lt;/b&gt;&lt;br&gt;IFRD domain-containing protein&lt;br&gt;Location: 3819100 - 3820518" locus_tag="CLUP02_10519" class="clusterblast-orf" id="dummy-10_h10_1_22"  />
</g>
<g id="a10_0023"  >
<polygon points="608,90 610,85 608,80 608,90 " style="fill:white; stroke-width:1; stroke:black; " description="&lt;b&gt;CLUP02_10520&lt;/b&gt;&lt;br&gt;uncharacterized protein&lt;br&gt;Location: 3824152 - 3824415" locus_tag="CLUP02_10520" class="clusterblast-orf" id="dummy-10_h10_1_23"  />
</g>
<g id="a10_0024"  >
<polygon points="617,90 661,90 666,85 661,80 617,80 617,90 " style="fill:white; stroke-width:1; stroke:black; " description="&lt;b&gt;CLUP02_10521&lt;/b&gt;&lt;br&gt;uncharacterized protein&lt;br&gt;Location: 3825212 - 3830683" locus_tag="CLUP02_10521" class="clusterblast-orf" id="dummy-10_h10_1_24"  />
</g>
<g id="a10_0025"  >
<polygon points="670,90 675,90 680,85 675,80 670,80 670,90 " style="fill:white; stroke-width:1; stroke:black; " description="&lt;b&gt;CLUP02_10522&lt;/b&gt;&lt;br&gt;uncharacterized protein&lt;br&gt;Location: 3831025 - 3832165" locus_tag="CLUP02_10522" class="clusterblast-orf" id="dummy-10_h10_1_25"  />
</g>
<g id="a10_0026"  >
<polygon points="682,90 700,90 705,85 700,80 682,80 682,90 " style="fill:#15d8ab; stroke-width:1; stroke:black; " description="&lt;b&gt;CLUP02_10523&lt;/b&gt;&lt;br&gt;uncharacterized protein&lt;br&gt;Location: 3832409 - 3834921&lt;br&gt;&lt;br&gt;&lt;b&gt;BlastP hit with input.path1.gene1221&lt;/b&gt;&lt;br&gt;Percentage identity: 76&lt;br&gt;Percentage coverage: 110&lt;br&gt;BLAST bit score: 665&lt;br&gt;E-value: 7.05e-238" locus_tag="CLUP02_10523" class="clusterblast-orf" id="dummy-10_h10_1_26"  />
</g>
<g id="a10_0027"  >
<polygon points="701,85 706,80 714,80 714,90 706,90 701,85 " style="fill:white; stroke-width:1; stroke:black; " description="&lt;b&gt;CLUP02_10524&lt;/b&gt;&lt;br&gt;plasma membrane proteolipid 3&lt;br&gt;Location: 3834490 - 3835924" locus_tag="CLUP02_10524" class="clusterblast-orf" id="dummy-10_h10_1_27"  />
</g>
<g id="a10_0028"  >
<polygon points="722,90 724,85 722,80 722,90 " style="fill:white; stroke-width:1; stroke:black; " description="&lt;b&gt;CLUP02_10525&lt;/b&gt;&lt;br&gt;uncharacterized protein&lt;br&gt;Location: 3836815 - 3837078" locus_tag="CLUP02_10525" class="clusterblast-orf" id="dummy-10_h10_1_28"  />
</g>
<g id="a10_0029"  >
<polygon points="728,90 728,90 733,85 728,80 728,80 728,90 " style="fill:white; stroke-width:1; stroke:black; " description="&lt;b&gt;CLUP02_10526&lt;/b&gt;&lt;br&gt;uncharacterized protein&lt;br&gt;Location: 3837464 - 3838045" locus_tag="CLUP02_10526" class="clusterblast-orf" id="dummy-10_h10_1_29"  />
</g>
<g id="a10_0030"  >
<polygon points="738,85 743,80 745,80 745,90 743,90 738,85 " style="fill:white; stroke-width:1; stroke:black; " description="&lt;b&gt;CLUP02_10527&lt;/b&gt;&lt;br&gt;GPI biosynthesis protein family Pig-F&lt;br&gt;Location: 3838569 - 3839407" locus_tag="CLUP02_10527" class="clusterblast-orf" id="dummy-10_h10_1_30"  />
</g>
<g id="a10_0031"  >
<polygon points="757,90 774,90 779,85 774,80 757,80 757,90 " style="fill:white; stroke-width:1; stroke:black; " description="&lt;b&gt;CLUP02_10528&lt;/b&gt;&lt;br&gt;actin&lt;br&gt;Location: 3840740 - 3843203" locus_tag="CLUP02_10528" class="clusterblast-orf" id="dummy-10_h10_1_31"  />
</g>
</svg>
