<svg xmlns="http://www.w3.org/2000/svg" xmlns:xlink="http://www.w3.org/1999/xlink" version="1.1" x="0" y="0" height="230" width="800" viewBox="0 0 800 230" preserveAspectRatio="none"  >
<g label="Query sequence" class="clusterblast-cluster"  >
<text x="5" y="20" class="clusterblast-acc"  >
Query sequence</text>
<line x1="10" y1="35" x2="778.0" y2="35" style="stroke-width:1; stroke:grey; "  />
<polygon points="182,40 183,35 182,30 182,40 " style="fill:white; stroke-width:1; stroke:black; " description="&lt;b&gt;input.path1.gene1&lt;/b&gt;&lt;br&gt;input.path1.gene1&lt;br&gt;Location: 0 - 98" locus_tag="input.path1.gene1" class="clusterblast-orf" id="dummy-1_q0_0_all"  />
<polygon points="186,35 191,30 223,30 223,40 191,40 186,35 " style="fill:#d81515; stroke-width:1; stroke:black; " description="&lt;b&gt;input.path1.gene2&lt;/b&gt;&lt;br&gt;input.path1.gene2&lt;br&gt;Location: 300 - 3386" locus_tag="input.path1.gene2" class="clusterblast-orf" id="dummy-1_q1_0_all"  />
<polygon points="275,40 369,40 374,35 369,30 275,30 275,40 " style="fill:#15d815; stroke-width:1; stroke:black; " description="&lt;b&gt;input.path1.gene3&lt;/b&gt;&lt;br&gt;input.path1.gene3&lt;br&gt;Location: 7637 - 15828" locus_tag="input.path1.gene3" class="clusterblast-orf" id="dummy-1_q2_0_all"  />
<polygon points="462,40 472,40 477,35 472,30 462,30 462,40 " style="fill:white; stroke-width:1; stroke:black; " description="&lt;b&gt;input.path1.gene4&lt;/b&gt;&lt;br&gt;input.path1.gene4&lt;br&gt;Location: 23061 - 24338" locus_tag="input.path1.gene4" class="clusterblast-orf" id="dummy-1_q3_0_all"  />
<polygon points="495,35 500,30 501,30 501,40 500,40 495,35 " style="fill:white; stroke-width:1; stroke:black; " description="&lt;b&gt;input.path1.gene5&lt;/b&gt;&lt;br&gt;input.path1.gene5&lt;br&gt;Location: 25766 - 26284" locus_tag="input.path1.gene5" class="clusterblast-orf" id="dummy-1_q4_0_all"  />
<polygon points="521,35 526,30 537,30 537,40 526,40 521,35 " style="fill:white; stroke-width:1; stroke:black; " description="&lt;b&gt;input.path1.gene6&lt;/b&gt;&lt;br&gt;input.path1.gene6&lt;br&gt;Location: 27942 - 29292" locus_tag="input.path1.gene6" class="clusterblast-orf" id="dummy-1_q5_0_all"  />
<polygon points="566,35 571,30 597,30 597,40 571,40 566,35 " style="fill:#1515d8; stroke-width:1; stroke:black; " description="&lt;b&gt;input.path1.gene7&lt;/b&gt;&lt;br&gt;input.path1.gene7&lt;br&gt;Location: 31671 - 34215" locus_tag="input.path1.gene7" class="clusterblast-orf" id="dummy-1_q6_0_all"  />
</g>
<g label="NW_019154050" description="NW_019154050 (438681-506939): Pochonia chlamydosporia 170 chromosome Unknown ... (8% of genes show similarity), T1PKS" class="clusterblast-cluster"  >
<text x="5" y="70" class="clusterblast-acc"  >
<a xlink:href="https://antismash-db.secondarymetabolites.org/area?record=NW_019154050&amp;start=438681&amp;end=506939" target="_blank">NW_019154050 (438681-506939)</a>: Pochonia chlamydosporia 170 chromosome Unknown ... (8% of genes show similarity), T1PKS</text>
<line x1="10" y1="85" x2="778.0" y2="85" style="stroke-width:1; stroke:grey; "  />
</g>
<g id="a1_000"  >
<polygon points="0,90 4,85 0,80 0,90 " style="fill:white; stroke-width:1; stroke:black; " description="&lt;b&gt;VFPPC_18399&lt;/b&gt;&lt;br&gt;hypothetical protein&lt;br&gt;Location: 505956 - 505565" locus_tag="VFPPC_18399" class="clusterblast-orf" id="dummy-1_h1_1_0"  />
</g>
<g id="a1_001"  >
<polygon points="6,85 11,80 14,80 14,90 11,90 6,85 " style="fill:white; stroke-width:1; stroke:black; " description="&lt;b&gt;VFPPC_11307&lt;/b&gt;&lt;br&gt;hypothetical protein&lt;br&gt;Location: 505384 - 504794" locus_tag="VFPPC_11307" class="clusterblast-orf" id="dummy-1_h1_1_1"  />
</g>
<g id="a1_002"  >
<polygon points="18,85 23,80 32,80 32,90 23,90 18,85 " style="fill:white; stroke-width:1; stroke:black; " description="&lt;b&gt;VFPPC_11306&lt;/b&gt;&lt;br&gt;Nuf2 family protein&lt;br&gt;Location: 504392 - 503277" locus_tag="VFPPC_11306" class="clusterblast-orf" id="dummy-1_h1_1_2"  />
</g>
<g id="a1_003"  >
<polygon points="51,85 56,80 57,80 57,90 56,90 51,85 " style="fill:white; stroke-width:1; stroke:black; " description="&lt;b&gt;VFPPC_17033&lt;/b&gt;&lt;br&gt;hypothetical protein&lt;br&gt;Location: 501678 - 501212" locus_tag="VFPPC_17033" class="clusterblast-orf" id="dummy-1_h1_1_3"  />
</g>
<g id="a1_004"  >
<polygon points="60,85 65,80 85,80 85,90 65,90 60,85 " style="fill:white; stroke-width:1; stroke:black; " description="&lt;b&gt;VFPPC_18400&lt;/b&gt;&lt;br&gt;transposase&lt;br&gt;Location: 500985 - 498922" locus_tag="VFPPC_18400" class="clusterblast-orf" id="dummy-1_h1_1_4"  />
</g>
<g id="a1_005"  >
<polygon points="128,90 140,90 145,85 140,80 128,80 128,90 " style="fill:white; stroke-width:1; stroke:black; " description="&lt;b&gt;VFPPC_11302&lt;/b&gt;&lt;br&gt;fungal zn(2)-Cys(6) binuclear cluster domain-containing protein&lt;br&gt;Location: 495371 - 493956" locus_tag="VFPPC_11302" class="clusterblast-orf" id="dummy-1_h1_1_5"  />
</g>
<g id="a1_006"  >
<polygon points="154,90 157,90 162,85 157,80 154,80 154,90 " style="fill:white; stroke-width:1; stroke:black; " description="&lt;b&gt;VFPPC_18401&lt;/b&gt;&lt;br&gt;hypothetical protein&lt;br&gt;Location: 493225 - 492532" locus_tag="VFPPC_18401" class="clusterblast-orf" id="dummy-1_h1_1_6"  />
</g>
<g id="a1_007"  >
<polygon points="165,90 174,90 179,85 174,80 165,80 165,90 " style="fill:white; stroke-width:1; stroke:black; " description="&lt;b&gt;VFPPC_12329&lt;/b&gt;&lt;br&gt;glutathione-dependent formaldehyde-activating&lt;br&gt;Location: 492315 - 491158" locus_tag="VFPPC_12329" class="clusterblast-orf" id="dummy-1_h1_1_7"  />
</g>
<g id="a1_008"  >
<polygon points="181,90 227,90 232,85 227,80 181,80 181,90 " style="fill:white; stroke-width:1; stroke:black; " description="&lt;b&gt;VFPPC_12328&lt;/b&gt;&lt;br&gt;replicase/helicase/endonuclease&lt;br&gt;Location: 490983 - 486750" locus_tag="VFPPC_12328" class="clusterblast-orf" id="dummy-1_h1_1_8"  />
</g>
<g id="a1_009"  >
<polygon points="259,90 283,90 288,85 283,80 259,80 259,90 " style="fill:white; stroke-width:1; stroke:black; " description="&lt;b&gt;VFPPC_17132&lt;/b&gt;&lt;br&gt;ribonuclease H-like protein&lt;br&gt;Location: 484532 - 482160" locus_tag="VFPPC_17132" class="clusterblast-orf" id="dummy-1_h1_1_9"  />
</g>
<g id="a1_0010"  >
<polygon points="293,85 298,80 315,80 315,90 298,90 293,85 " style="fill:white; stroke-width:1; stroke:black; " description="&lt;b&gt;VFPPC_12325&lt;/b&gt;&lt;br&gt;oxoglutarate/iron-dependent oxygenase&lt;br&gt;Location: 481722 - 479915" locus_tag="VFPPC_12325" class="clusterblast-orf" id="dummy-1_h1_1_10"  />
</g>
<g id="a1_0011"  >
<polygon points="320,85 325,80 342,80 342,90 325,90 320,85 " style="fill:white; stroke-width:1; stroke:black; " description="&lt;b&gt;VFPPC_12324&lt;/b&gt;&lt;br&gt;UDP-glucosyl transferase family protein&lt;br&gt;Location: 479515 - 477720" locus_tag="VFPPC_12324" class="clusterblast-orf" id="dummy-1_h1_1_11"  />
</g>
<g id="a1_0012"  >
<polygon points="351,90 446,90 451,85 446,80 351,80 351,90 " style="fill:#15d815; stroke-width:1; stroke:black; " description="&lt;b&gt;VFPPC_12322&lt;/b&gt;&lt;br&gt;polyketide synthase&lt;br&gt;Location: 476939 - 468682&lt;br&gt;&lt;br&gt;&lt;b&gt;BlastP hit with input.path1.gene3&lt;/b&gt;&lt;br&gt;Percentage identity: 62&lt;br&gt;Percentage coverage: 110&lt;br&gt;BLAST bit score: 3102&lt;br&gt;E-value: 0.0" locus_tag="VFPPC_12322" class="clusterblast-orf" id="dummy-1_h1_1_12"  />
</g>
<g id="a1_0013"  >
<polygon points="456,85 461,80 474,80 474,90 461,90 456,85 " style="fill:#d81515; stroke-width:1; stroke:black; " description="&lt;b&gt;VFPPC_12321&lt;/b&gt;&lt;br&gt;major facilitator superfamily transporter&lt;br&gt;Location: 468338 - 466779&lt;br&gt;&lt;br&gt;&lt;b&gt;BlastP hit with input.path1.gene2&lt;/b&gt;&lt;br&gt;Percentage identity: 45&lt;br&gt;Percentage coverage: 70&lt;br&gt;BLAST bit score: 307&lt;br&gt;E-value: 8.76e-97" locus_tag="VFPPC_12321" class="clusterblast-orf" id="dummy-1_h1_1_13"  />
</g>
<g id="a1_0014"  >
<polygon points="480,85 483,80 483,90 480,85 " style="fill:white; stroke-width:1; stroke:black; " description="&lt;b&gt;VFPPC_18402&lt;/b&gt;&lt;br&gt;hypothetical protein&lt;br&gt;Location: 466326 - 466060" locus_tag="VFPPC_18402" class="clusterblast-orf" id="dummy-1_h1_1_14"  />
</g>
<g id="a1_0015"  >
<polygon points="494,90 502,90 507,85 502,80 494,80 494,90 " style="fill:white; stroke-width:1; stroke:black; " description="&lt;b&gt;VFPPC_12318&lt;/b&gt;&lt;br&gt;parasitic phase-specific protein PSP-1&lt;br&gt;Location: 465144 - 464054" locus_tag="VFPPC_12318" class="clusterblast-orf" id="dummy-1_h1_1_15"  />
</g>
<g id="a1_0016"  >
<polygon points="526,85 531,80 558,80 558,90 531,90 526,85 " style="fill:white; stroke-width:1; stroke:black; " description="&lt;b&gt;VFPPC_12317&lt;/b&gt;&lt;br&gt;reverse transcriptase&lt;br&gt;Location: 462501 - 459913" locus_tag="VFPPC_12317" class="clusterblast-orf" id="dummy-1_h1_1_16"  />
</g>
<g id="a1_0017"  >
<polygon points="676,90 688,90 693,85 688,80 676,80 676,90 " style="fill:white; stroke-width:1; stroke:black; " description="&lt;b&gt;VFPPC_18453&lt;/b&gt;&lt;br&gt;DDE superfamily endonuclease domain-containing protein&lt;br&gt;Location: 450113 - 448747" locus_tag="VFPPC_18453" class="clusterblast-orf" id="dummy-1_h1_1_17"  />
</g>
<g id="a1_0018"  >
<polygon points="710,90 712,85 710,80 710,90 " style="fill:white; stroke-width:1; stroke:black; " description="&lt;b&gt;VFPPC_18452&lt;/b&gt;&lt;br&gt;hypothetical protein&lt;br&gt;Location: 447335 - 447165" locus_tag="VFPPC_18452" class="clusterblast-orf" id="dummy-1_h1_1_18"  />
</g>
<g id="a1_0019"  >
<polygon points="737,90 738,90 743,85 738,80 737,80 737,90 " style="fill:white; stroke-width:1; stroke:black; " description="&lt;b&gt;VFPPC_11415&lt;/b&gt;&lt;br&gt;ribonuclease H1&lt;br&gt;Location: 445085 - 444603" locus_tag="VFPPC_11415" class="clusterblast-orf" id="dummy-1_h1_1_19"  />
</g>
<g id="a1_0020"  >
<polygon points="748,85 753,80 757,80 757,90 753,90 748,85 " style="fill:white; stroke-width:1; stroke:black; " description="&lt;b&gt;VFPPC_14918&lt;/b&gt;&lt;br&gt;hypothetical protein&lt;br&gt;Location: 444203 - 443443" locus_tag="VFPPC_14918" class="clusterblast-orf" id="dummy-1_h1_1_20"  />
</g>
<g id="a1_0021"  >
<polygon points="758,85 763,80 763,80 763,90 763,90 758,85 " style="fill:white; stroke-width:1; stroke:black; " description="&lt;b&gt;VFPPC_14919&lt;/b&gt;&lt;br&gt;hypothetical protein&lt;br&gt;Location: 443401 - 442982" locus_tag="VFPPC_14919" class="clusterblast-orf" id="dummy-1_h1_1_21"  />
</g>
<g id="a1_0022"  >
<polygon points="767,85 772,80 780,80 780,90 772,90 767,85 " style="fill:white; stroke-width:1; stroke:black; " description="&lt;b&gt;VFPPC_18451&lt;/b&gt;&lt;br&gt;hypothetical protein&lt;br&gt;Location: 442651 - 441616" locus_tag="VFPPC_18451" class="clusterblast-orf" id="dummy-1_h1_1_22"  />
</g>
</svg>
