<svg xmlns="http://www.w3.org/2000/svg" xmlns:xlink="http://www.w3.org/1999/xlink" version="1.1" x="0" y="0" height="150" width="800" viewBox="0 0 800 150" preserveAspectRatio="none"  >
<g label="Query sequence" class="clusterblast-cluster"  >
<text x="5" y="20" class="clusterblast-acc"  >
Query sequence</text>
<line x1="10" y1="35" x2="778.0" y2="35" style="stroke-width:1; stroke:grey; "  />
<polygon points="0,40 74,40 79,35 74,30 0,30 0,40 " style="fill:white; stroke-width:1; stroke:black; " description="&lt;b&gt;input.path1.gene1211&lt;/b&gt;&lt;br&gt;input.path1.gene1211&lt;br&gt;Location: 4497622 - 4502854" locus_tag="input.path1.gene1211" class="clusterblast-orf" id="knownclusterblast-10_q0_0_all"  />
<polygon points="86,35 91,30 103,30 103,40 91,40 86,35 " style="fill:white; stroke-width:1; stroke:black; " description="&lt;b&gt;input.path1.gene1212&lt;/b&gt;&lt;br&gt;input.path1.gene1212&lt;br&gt;Location: 4503290 - 4504399" locus_tag="input.path1.gene1212" class="clusterblast-orf" id="knownclusterblast-10_q1_0_all"  />
<polygon points="106,40 131,40 136,35 131,30 106,30 106,40 " style="fill:white; stroke-width:1; stroke:black; " description="&lt;b&gt;input.path1.gene1213&lt;/b&gt;&lt;br&gt;input.path1.gene1213&lt;br&gt;Location: 4504602 - 4506558" locus_tag="input.path1.gene1213" class="clusterblast-orf" id="knownclusterblast-10_q2_0_all"  />
<polygon points="152,35 157,30 174,30 174,40 157,40 152,35 " style="fill:white; stroke-width:1; stroke:black; " description="&lt;b&gt;input.path1.gene1214&lt;/b&gt;&lt;br&gt;input.path1.gene1214&lt;br&gt;Location: 4507597 - 4509096" locus_tag="input.path1.gene1214" class="clusterblast-orf" id="knownclusterblast-10_q3_0_all"  />
<polygon points="198,35 203,30 230,30 230,40 203,40 198,35 " style="fill:white; stroke-width:1; stroke:black; " description="&lt;b&gt;input.path1.gene1215&lt;/b&gt;&lt;br&gt;input.path1.gene1215&lt;br&gt;Location: 4510637 - 4512772" locus_tag="input.path1.gene1215" class="clusterblast-orf" id="knownclusterblast-10_q4_0_all"  />
<polygon points="271,35 276,30 409,30 409,40 276,40 271,35 " style="fill:white; stroke-width:1; stroke:black; " description="&lt;b&gt;input.path1.gene1216&lt;/b&gt;&lt;br&gt;input.path1.gene1216&lt;br&gt;Location: 4515414 - 4524504" locus_tag="input.path1.gene1216" class="clusterblast-orf" id="knownclusterblast-10_q5_0_all"  />
<polygon points="424,40 446,40 451,35 446,30 424,30 424,40 " style="fill:#d81515; stroke-width:1; stroke:black; " description="&lt;b&gt;input.path1.gene1217&lt;/b&gt;&lt;br&gt;input.path1.gene1217&lt;br&gt;Location: 4525505 - 4527267" locus_tag="input.path1.gene1217" class="clusterblast-orf" id="knownclusterblast-10_q6_0_all"  />
<polygon points="457,40 498,40 503,35 498,30 457,30 457,40 " style="fill:#15d8d8; stroke-width:1; stroke:black; " description="&lt;b&gt;input.path1.gene1218&lt;/b&gt;&lt;br&gt;input.path1.gene1218&lt;br&gt;Location: 4527640 - 4530701" locus_tag="input.path1.gene1218" class="clusterblast-orf" id="knownclusterblast-10_q7_0_all"  />
<polygon points="525,40 571,40 576,35 571,30 525,30 525,40 " style="fill:white; stroke-width:1; stroke:black; " description="&lt;b&gt;input.path1.gene1219&lt;/b&gt;&lt;br&gt;input.path1.gene1219&lt;br&gt;Location: 4532139 - 4535460" locus_tag="input.path1.gene1219" class="clusterblast-orf" id="knownclusterblast-10_q8_0_all"  />
<polygon points="583,35 588,30 610,30 610,40 588,40 583,35 " style="fill:white; stroke-width:1; stroke:black; " description="&lt;b&gt;input.path1.gene1220&lt;/b&gt;&lt;br&gt;input.path1.gene1220&lt;br&gt;Location: 4535936 - 4537681" locus_tag="input.path1.gene1220" class="clusterblast-orf" id="knownclusterblast-10_q9_0_all"  />
<polygon points="616,40 634,40 639,35 634,30 616,30 616,40 " style="fill:white; stroke-width:1; stroke:black; " description="&lt;b&gt;input.path1.gene1221&lt;/b&gt;&lt;br&gt;input.path1.gene1221&lt;br&gt;Location: 4538103 - 4539598" locus_tag="input.path1.gene1221" class="clusterblast-orf" id="knownclusterblast-10_q10_0_all"  />
<polygon points="643,35 648,30 696,30 696,40 648,40 643,35 " style="fill:white; stroke-width:1; stroke:black; " description="&lt;b&gt;input.path1.gene1222&lt;/b&gt;&lt;br&gt;input.path1.gene1222&lt;br&gt;Location: 4539903 - 4543332" locus_tag="input.path1.gene1222" class="clusterblast-orf" id="knownclusterblast-10_q11_0_all"  />
<polygon points="709,40 738,40 743,35 738,30 709,30 709,40 " style="fill:white; stroke-width:1; stroke:black; " description="&lt;b&gt;input.path1.gene1223&lt;/b&gt;&lt;br&gt;input.path1.gene1223&lt;br&gt;Location: 4544197 - 4546463" locus_tag="input.path1.gene1223" class="clusterblast-orf" id="knownclusterblast-10_q12_0_all"  />
<polygon points="760,35 765,30 780,30 780,40 765,40 760,35 " style="fill:white; stroke-width:1; stroke:black; " description="&lt;b&gt;input.path1.gene1224&lt;/b&gt;&lt;br&gt;input.path1.gene1224&lt;br&gt;Location: 4547585 - 4548847" locus_tag="input.path1.gene1224" class="clusterblast-orf" id="knownclusterblast-10_q13_0_all"  />
</g>
<g label="BGC0002255" description="BGC0002255_c1: lijiquinone (25% of genes show similarity), Polyketide" class="clusterblast-cluster"  >
<text x="5" y="70" class="clusterblast-acc"  >
<a xlink:href="https://mibig.secondarymetabolites.org/go/BGC0002255/1" target="_blank">BGC0002255</a>: lijiquinone                                                                      (25% of genes show similarity), Polyketide</text>
<line x1="10" y1="85" x2="778.0" y2="85" style="stroke-width:1; stroke:grey; "  />
</g>
<g id="a10_000"  >
<polygon points="134,85 139,80 153,80 153,90 139,90 134,85 " style="fill:white; stroke-width:1; stroke:black; " description="&lt;b&gt;AMJ52087.1&lt;/b&gt;&lt;br&gt;lijH&lt;br&gt;Location: 34333 - 33087" locus_tag="AMJ52087.1" class="clusterblast-orf" id="knownclusterblast-10_all_10_1_0"  />
</g>
<g id="a10_001"  >
<polygon points="176,90 204,90 209,85 204,80 176,80 176,90 " style="fill:white; stroke-width:1; stroke:black; " description="&lt;b&gt;AMJ52086.1&lt;/b&gt;&lt;br&gt;lijG&lt;br&gt;Location: 31602 - 29447" locus_tag="AMJ52086.1" class="clusterblast-orf" id="knownclusterblast-10_all_10_1_1"  />
</g>
<g id="a10_002"  >
<polygon points="214,85 219,80 247,80 247,90 219,90 214,85 " style="fill:white; stroke-width:1; stroke:black; " description="&lt;b&gt;AMJ52085.1&lt;/b&gt;&lt;br&gt;lijF&lt;br&gt;Location: 29084 - 26906" locus_tag="AMJ52085.1" class="clusterblast-orf" id="knownclusterblast-10_all_10_1_2"  />
</g>
<g id="a10_003"  >
<polygon points="302,85 307,80 428,80 428,90 307,90 302,85 " style="fill:white; stroke-width:1; stroke:black; " description="&lt;b&gt;AMJ52084.1&lt;/b&gt;&lt;br&gt;lijE&lt;br&gt;Location: 23309 - 15051" locus_tag="AMJ52084.1" class="clusterblast-orf" id="knownclusterblast-10_all_10_1_3"  />
</g>
<g id="a10_004"  >
<polygon points="442,85 447,80 465,80 465,90 447,90 442,85 " style="fill:#d81515; stroke-width:1; stroke:black; " description="&lt;b&gt;AMJ52083.1&lt;/b&gt;&lt;br&gt;lijD&lt;br&gt;Location: 14142 - 12639&lt;br&gt;&lt;br&gt;&lt;b&gt;BlastP hit with input.path1.gene1217&lt;/b&gt;&lt;br&gt;Percentage identity: 46&lt;br&gt;Percentage coverage: 92&lt;br&gt;BLAST bit score: 305&lt;br&gt;E-value: 2.32e-100" locus_tag="AMJ52083.1" class="clusterblast-orf" id="knownclusterblast-10_all_10_1_4"  />
</g>
<g id="a10_005"  >
<polygon points="471,90 480,90 485,85 480,80 471,80 471,90 " style="fill:white; stroke-width:1; stroke:black; " description="&lt;b&gt;AMJ52082.1&lt;/b&gt;&lt;br&gt;lijC&lt;br&gt;Location: 12192 - 11288" locus_tag="AMJ52082.1" class="clusterblast-orf" id="knownclusterblast-10_all_10_1_5"  />
</g>
<g id="a10_006"  >
<polygon points="490,85 495,80 503,80 503,90 495,90 490,85 " style="fill:white; stroke-width:1; stroke:black; " description="&lt;b&gt;AMJ52081.1&lt;/b&gt;&lt;br&gt;lijB&lt;br&gt;Location: 10995 - 10141" locus_tag="AMJ52081.1" class="clusterblast-orf" id="knownclusterblast-10_all_10_1_6"  />
</g>
<g id="a10_007"  >
<polygon points="515,90 640,90 645,85 640,80 515,80 515,90 " style="fill:#15d8d8; stroke-width:1; stroke:black; " description="&lt;b&gt;AMJ52080.1&lt;/b&gt;&lt;br&gt;lijA&lt;br&gt;Location: 9353 - 804&lt;br&gt;&lt;br&gt;&lt;b&gt;BlastP hit with input.path1.gene1218&lt;/b&gt;&lt;br&gt;Percentage identity: 50&lt;br&gt;Percentage coverage: 105&lt;br&gt;BLAST bit score: 667&lt;br&gt;E-value: 3.26e-215" locus_tag="AMJ52080.1" class="clusterblast-orf" id="knownclusterblast-10_all_10_1_7"  />
</g>
<g label="BGC0002206" description="BGC0002206_c1: harziphilone/t22azaphilone/isoharziphilone-1/isoharziphilone-2... (20% of genes show similarity), Polyketide" class="clusterblast-cluster"  >
<text x="5" y="120" class="clusterblast-acc"  >
<a xlink:href="https://mibig.secondarymetabolites.org/go/BGC0002206/1" target="_blank">BGC0002206</a>: harziphilone/t22azaphilone/isoharziphilone-1/isoharziphilone-2/compound 4/compound 1 (20% of genes show similarity), Polyketide</text>
<line x1="10" y1="135" x2="778.0" y2="135" style="stroke-width:1; stroke:grey; "  />
</g>
<g id="a10_000"  >
<polygon points="95,135 100,130 120,130 120,140 100,140 95,135 " style="fill:white; stroke-width:1; stroke:black; " description="&lt;b&gt;A0O28_0102260&lt;/b&gt;&lt;br&gt;hypothetical protein&lt;br&gt;Location: 174 - 1871" locus_tag="A0O28_0102260" class="clusterblast-orf" id="knownclusterblast-10_all_10_2_0"  />
</g>
<g id="a10_001"  >
<polygon points="136,135 141,130 143,130 143,140 141,140 136,135 " style="fill:white; stroke-width:1; stroke:black; " description="&lt;b&gt;A0O28_0102270&lt;/b&gt;&lt;br&gt;hypothetical protein&lt;br&gt;Location: 2897 - 3364" locus_tag="A0O28_0102270" class="clusterblast-orf" id="knownclusterblast-10_all_10_2_1"  />
</g>
<g id="a10_002"  >
<polygon points="162,140 281,140 286,135 281,130 162,130 162,140 " style="fill:#15d8d8; stroke-width:1; stroke:black; " description="&lt;b&gt;A0O28_0102280&lt;/b&gt;&lt;br&gt;putative polyketide synthase&lt;br&gt;Location: 4588 - 12720&lt;br&gt;&lt;br&gt;&lt;b&gt;BlastP hit with input.path1.gene1218&lt;/b&gt;&lt;br&gt;Percentage identity: 46&lt;br&gt;Percentage coverage: 115&lt;br&gt;BLAST bit score: 626&lt;br&gt;E-value: 3.6e-200" locus_tag="A0O28_0102280" class="clusterblast-orf" id="knownclusterblast-10_all_10_2_2"  />
</g>
<g id="a10_003"  >
<polygon points="289,135 294,130 326,130 326,140 294,140 289,135 " style="fill:white; stroke-width:1; stroke:black; " description="&lt;b&gt;A0O28_0102290&lt;/b&gt;&lt;br&gt;hypothetical protein&lt;br&gt;Location: 12956 - 15367" locus_tag="A0O28_0102290" class="clusterblast-orf" id="knownclusterblast-10_all_10_2_3"  />
</g>
<g id="a10_004"  >
<polygon points="365,140 376,140 381,135 376,130 365,130 365,140 " style="fill:white; stroke-width:1; stroke:black; " description="&lt;b&gt;A0O28_0102300&lt;/b&gt;&lt;br&gt;hypothetical protein&lt;br&gt;Location: 17904 - 18962" locus_tag="A0O28_0102300" class="clusterblast-orf" id="knownclusterblast-10_all_10_2_4"  />
</g>
<g id="a10_005"  >
<polygon points="398,135 403,130 430,130 430,140 403,140 398,135 " style="fill:white; stroke-width:1; stroke:black; " description="&lt;b&gt;A0O28_0102310&lt;/b&gt;&lt;br&gt;MFS efflux pump&lt;br&gt;Location: 20098 - 22175" locus_tag="A0O28_0102310" class="clusterblast-orf" id="knownclusterblast-10_all_10_2_5"  />
</g>
<g id="a10_006"  >
<polygon points="444,135 449,130 481,130 481,140 449,140 444,135 " style="fill:white; stroke-width:1; stroke:black; " description="&lt;b&gt;A0O28_0102320&lt;/b&gt;&lt;br&gt;Zn2Cys6 transcription factor&lt;br&gt;Location: 23119 - 25543" locus_tag="A0O28_0102320" class="clusterblast-orf" id="knownclusterblast-10_all_10_2_6"  />
</g>
<g id="a10_007"  >
<polygon points="495,135 500,130 516,130 516,140 500,140 495,135 " style="fill:#d81515; stroke-width:1; stroke:black; " description="&lt;b&gt;A0O28_0102330&lt;/b&gt;&lt;br&gt;salicylate hydroxylase&lt;br&gt;Location: 26451 - 27860&lt;br&gt;&lt;br&gt;&lt;b&gt;BlastP hit with input.path1.gene1217&lt;/b&gt;&lt;br&gt;Percentage identity: 46&lt;br&gt;Percentage coverage: 89&lt;br&gt;BLAST bit score: 300&lt;br&gt;E-value: 1.37e-98" locus_tag="A0O28_0102330" class="clusterblast-orf" id="knownclusterblast-10_all_10_2_7"  />
</g>
<g id="a10_008"  >
<polygon points="526,140 645,140 650,135 645,130 526,130 526,140 " style="fill:white; stroke-width:1; stroke:black; " description="&lt;b&gt;A0O28_0102340&lt;/b&gt;&lt;br&gt;hypothetical protein&lt;br&gt;Location: 28526 - 36676" locus_tag="A0O28_0102340" class="clusterblast-orf" id="knownclusterblast-10_all_10_2_8"  />
</g>
<g id="a10_009"  >
<polygon points="663,135 668,130 684,130 684,140 668,140 663,135 " style="fill:white; stroke-width:1; stroke:black; " description="&lt;b&gt;A0O28_0102350&lt;/b&gt;&lt;br&gt;hypothetical protein&lt;br&gt;Location: 37522 - 38907" locus_tag="A0O28_0102350" class="clusterblast-orf" id="knownclusterblast-10_all_10_2_9"  />
</g>
</svg>
