<svg xmlns="http://www.w3.org/2000/svg" xmlns:xlink="http://www.w3.org/1999/xlink" version="1.1" x="0" y="0" height="50" width="800" viewBox="0 0 800 50" preserveAspectRatio="none"  >
<g label="Query sequence" class="clusterblast-cluster"  >
<text x="5" y="20" class="clusterblast-acc"  >
Query sequence</text>
<line x1="10" y1="35" x2="778.0" y2="35" style="stroke-width:1; stroke:grey; "  />
<polygon points="0,40 8,40 13,35 8,30 0,30 0,40 " style="fill:white; stroke-width:1; stroke:black; " description="&lt;b&gt;input.path1.gene1274&lt;/b&gt;&lt;br&gt;input.path1.gene1274&lt;br&gt;Location: 4379383 - 4380292" locus_tag="input.path1.gene1274" class="clusterblast-orf" id="subclusterblast-7_q0_0_all"  />
<polygon points="27,35 32,30 46,30 46,40 32,40 27,35 " style="fill:white; stroke-width:1; stroke:black; " description="&lt;b&gt;input.path1.gene1275&lt;/b&gt;&lt;br&gt;input.path1.gene1275&lt;br&gt;Location: 4381196 - 4382419" locus_tag="input.path1.gene1275" class="clusterblast-orf" id="subclusterblast-7_q1_0_all"  />
<polygon points="94,40 109,40 114,35 109,30 94,30 94,40 " style="fill:white; stroke-width:1; stroke:black; " description="&lt;b&gt;input.path1.gene1276&lt;/b&gt;&lt;br&gt;input.path1.gene1276&lt;br&gt;Location: 4385594 - 4386916" locus_tag="input.path1.gene1276" class="clusterblast-orf" id="subclusterblast-7_q2_0_all"  />
<polygon points="196,40 206,40 211,35 206,30 196,30 196,40 " style="fill:white; stroke-width:1; stroke:black; " description="&lt;b&gt;input.path1.gene1277&lt;/b&gt;&lt;br&gt;input.path1.gene1277&lt;br&gt;Location: 4392259 - 4393269" locus_tag="input.path1.gene1277" class="clusterblast-orf" id="subclusterblast-7_q3_0_all"  />
<polygon points="258,35 263,30 458,30 458,40 263,40 258,35 " style="fill:white; stroke-width:1; stroke:black; " description="&lt;b&gt;input.path1.gene1278&lt;/b&gt;&lt;br&gt;input.path1.gene1278&lt;br&gt;Location: 4396381 - 4409490" locus_tag="input.path1.gene1278" class="clusterblast-orf" id="subclusterblast-7_q4_0_all"  />
<polygon points="485,35 490,30 490,30 490,40 490,40 485,35 " style="fill:white; stroke-width:1; stroke:black; " description="&lt;b&gt;input.path1.gene1279&lt;/b&gt;&lt;br&gt;input.path1.gene1279&lt;br&gt;Location: 4411253 - 4411637" locus_tag="input.path1.gene1279" class="clusterblast-orf" id="subclusterblast-7_q5_0_all"  />
<polygon points="548,35 553,30 577,30 577,40 553,40 548,35 " style="fill:white; stroke-width:1; stroke:black; " description="&lt;b&gt;input.path1.gene1280&lt;/b&gt;&lt;br&gt;input.path1.gene1280&lt;br&gt;Location: 4415439 - 4417305" locus_tag="input.path1.gene1280" class="clusterblast-orf" id="subclusterblast-7_q6_0_all"  />
<polygon points="603,35 608,30 627,30 627,40 608,40 603,35 " style="fill:white; stroke-width:1; stroke:black; " description="&lt;b&gt;input.path1.gene1281&lt;/b&gt;&lt;br&gt;input.path1.gene1281&lt;br&gt;Location: 4419053 - 4420627" locus_tag="input.path1.gene1281" class="clusterblast-orf" id="subclusterblast-7_q7_0_all"  />
<polygon points="640,40 646,40 651,35 646,30 640,30 640,40 " style="fill:white; stroke-width:1; stroke:black; " description="&lt;b&gt;input.path1.gene1282&lt;/b&gt;&lt;br&gt;input.path1.gene1282&lt;br&gt;Location: 4421504 - 4422197" locus_tag="input.path1.gene1282" class="clusterblast-orf" id="subclusterblast-7_q8_0_all"  />
<polygon points="676,40 690,40 695,35 690,30 676,30 676,40 " style="fill:white; stroke-width:1; stroke:black; " description="&lt;b&gt;input.path1.gene1283&lt;/b&gt;&lt;br&gt;input.path1.gene1283&lt;br&gt;Location: 4423818 - 4425108" locus_tag="input.path1.gene1283" class="clusterblast-orf" id="subclusterblast-7_q9_0_all"  />
<polygon points="758,40 759,40 764,35 759,30 758,30 758,40 " style="fill:white; stroke-width:1; stroke:black; " description="&lt;b&gt;input.path1.gene1284&lt;/b&gt;&lt;br&gt;input.path1.gene1284&lt;br&gt;Location: 4429213 - 4429625" locus_tag="input.path1.gene1284" class="clusterblast-orf" id="subclusterblast-7_q10_0_all"  />
<polygon points="765,35 770,30 780,30 780,40 770,40 765,35 " style="fill:white; stroke-width:1; stroke:black; " description="&lt;b&gt;input.path1.gene1285&lt;/b&gt;&lt;br&gt;input.path1.gene1285&lt;br&gt;Location: 4429682 - 4430652" locus_tag="input.path1.gene1285" class="clusterblast-orf" id="subclusterblast-7_q11_0_all"  />
</g>
</svg>
