<svg xmlns="http://www.w3.org/2000/svg" xmlns:xlink="http://www.w3.org/1999/xlink" version="1.1" x="0" y="0" height="230" width="800" viewBox="0 0 800 230" preserveAspectRatio="none"  >
<g label="Query sequence" class="clusterblast-cluster"  >
<text x="5" y="20" class="clusterblast-acc"  >
Query sequence</text>
<line x1="10" y1="35" x2="778.0" y2="35" style="stroke-width:1; stroke:grey; "  />
<polygon points="201,40 224,40 229,35 224,30 201,30 201,40 " style="fill:#d81515; stroke-width:1; stroke:black; " description="&lt;b&gt;input.path1.gene549&lt;/b&gt;&lt;br&gt;input.path1.gene549&lt;br&gt;Location: 2253220 - 2256333" locus_tag="input.path1.gene549" class="clusterblast-orf" id="dummy-3_q0_0_all"  />
<polygon points="238,35 243,30 246,30 246,40 243,40 238,35 " style="fill:#77d815; stroke-width:1; stroke:black; " description="&lt;b&gt;input.path1.gene550&lt;/b&gt;&lt;br&gt;input.path1.gene550&lt;br&gt;Location: 2257335 - 2258322" locus_tag="input.path1.gene550" class="clusterblast-orf" id="dummy-3_q1_0_all"  />
<polygon points="259,35 264,30 271,30 271,40 264,40 259,35 " style="fill:#15d8d8; stroke-width:1; stroke:black; " description="&lt;b&gt;input.path1.gene551&lt;/b&gt;&lt;br&gt;input.path1.gene551&lt;br&gt;Location: 2259711 - 2261138" locus_tag="input.path1.gene551" class="clusterblast-orf" id="dummy-3_q2_0_all"  />
<polygon points="280,40 291,40 296,35 291,30 280,30 280,40 " style="fill:#7715d8; stroke-width:1; stroke:black; " description="&lt;b&gt;input.path1.gene552&lt;/b&gt;&lt;br&gt;input.path1.gene552&lt;br&gt;Location: 2262130 - 2263886" locus_tag="input.path1.gene552" class="clusterblast-orf" id="dummy-3_q3_0_all"  />
<polygon points="300,35 305,30 312,30 312,40 305,40 300,35 " style="fill:#d87715; stroke-width:1; stroke:black; " description="&lt;b&gt;input.path1.gene553&lt;/b&gt;&lt;br&gt;input.path1.gene553&lt;br&gt;Location: 2264326 - 2265669" locus_tag="input.path1.gene553" class="clusterblast-orf" id="dummy-3_q4_0_all"  />
<polygon points="351,40 357,40 362,35 357,30 351,30 351,40 " style="fill:#15d815; stroke-width:1; stroke:black; " description="&lt;b&gt;input.path1.gene554&lt;/b&gt;&lt;br&gt;input.path1.gene554&lt;br&gt;Location: 2270007 - 2271243" locus_tag="input.path1.gene554" class="clusterblast-orf" id="dummy-3_q5_0_all"  />
<polygon points="367,35 372,30 404,30 404,40 372,40 367,35 " style="fill:#1577d8; stroke-width:1; stroke:black; " description="&lt;b&gt;input.path1.gene555&lt;/b&gt;&lt;br&gt;input.path1.gene555&lt;br&gt;Location: 2271844 - 2276006" locus_tag="input.path1.gene555" class="clusterblast-orf" id="dummy-3_q6_0_all"  />
<polygon points="413,35 418,30 424,30 424,40 418,40 413,35 " style="fill:#d815d8; stroke-width:1; stroke:black; " description="&lt;b&gt;input.path1.gene556&lt;/b&gt;&lt;br&gt;input.path1.gene556&lt;br&gt;Location: 2277014 - 2278283" locus_tag="input.path1.gene556" class="clusterblast-orf" id="dummy-3_q7_0_all"  />
<polygon points="452,40 465,40 470,35 465,30 452,30 452,40 " style="fill:#d8d815; stroke-width:1; stroke:black; " description="&lt;b&gt;input.path1.gene557&lt;/b&gt;&lt;br&gt;input.path1.gene557&lt;br&gt;Location: 2281417 - 2283417" locus_tag="input.path1.gene557" class="clusterblast-orf" id="dummy-3_q8_0_all"  />
<polygon points="474,35 479,30 486,30 486,40 479,40 474,35 " style="fill:white; stroke-width:1; stroke:black; " description="&lt;b&gt;input.path1.gene558&lt;/b&gt;&lt;br&gt;input.path1.gene558&lt;br&gt;Location: 2283827 - 2285215" locus_tag="input.path1.gene558" class="clusterblast-orf" id="dummy-3_q9_0_all"  />
<polygon points="493,35 498,30 505,30 505,40 498,40 493,35 " style="fill:white; stroke-width:1; stroke:black; " description="&lt;b&gt;input.path1.gene559&lt;/b&gt;&lt;br&gt;input.path1.gene559&lt;br&gt;Location: 2285997 - 2287315" locus_tag="input.path1.gene559" class="clusterblast-orf" id="dummy-3_q10_0_all"  />
<polygon points="517,40 521,40 526,35 521,30 517,30 517,40 " style="fill:#15d877; stroke-width:1; stroke:black; " description="&lt;b&gt;input.path1.gene560&lt;/b&gt;&lt;br&gt;input.path1.gene560&lt;br&gt;Location: 2288684 - 2289718" locus_tag="input.path1.gene560" class="clusterblast-orf" id="dummy-3_q11_0_all"  />
<polygon points="527,35 532,30 549,30 549,40 532,40 527,35 " style="fill:#1515d8; stroke-width:1; stroke:black; " description="&lt;b&gt;input.path1.gene561&lt;/b&gt;&lt;br&gt;input.path1.gene561&lt;br&gt;Location: 2289786 - 2292282" locus_tag="input.path1.gene561" class="clusterblast-orf" id="dummy-3_q12_0_all"  />
<polygon points="556,35 561,30 578,30 578,40 561,40 556,35 " style="fill:#d81577; stroke-width:1; stroke:black; " description="&lt;b&gt;input.path1.gene562&lt;/b&gt;&lt;br&gt;input.path1.gene562&lt;br&gt;Location: 2293051 - 2295541" locus_tag="input.path1.gene562" class="clusterblast-orf" id="dummy-3_q13_0_all"  />
</g>
<g label="NC_035791" description="NC_035791 (1143313-1234197): Pochonia chlamydosporia 170 chromosome 2, whole ... (25% of genes show similarity), NRPS-like,fungal-RiPP-like" class="clusterblast-cluster"  >
<text x="5" y="70" class="clusterblast-acc"  >
<a xlink:href="https://antismash-db.secondarymetabolites.org/area?record=NC_035791&amp;start=1143313&amp;end=1234197" target="_blank">NC_035791 (1143313-1234197)</a>: Pochonia chlamydosporia 170 chromosome 2, whole ... (25% of genes show similarity), NRPS-like,fungal-RiPP-like</text>
<line x1="10" y1="85" x2="778.0" y2="85" style="stroke-width:1; stroke:grey; "  />
</g>
<g id="a3_000"  >
<polygon points="0,90 7,90 12,85 7,80 0,80 0,90 " style="fill:white; stroke-width:1; stroke:black; " description="&lt;b&gt;VFPPC_02481&lt;/b&gt;&lt;br&gt;hypothetical protein&lt;br&gt;Location: 1144046 - 1145435" locus_tag="VFPPC_02481" class="clusterblast-orf" id="dummy-3_h3_2_0"  />
</g>
<g id="a3_001"  >
<polygon points="14,85 19,80 24,80 24,90 19,90 14,85 " style="fill:white; stroke-width:1; stroke:black; " description="&lt;b&gt;VFPPC_13281&lt;/b&gt;&lt;br&gt;major facilitator superfamily protein&lt;br&gt;Location: 1145650 - 1146837" locus_tag="VFPPC_13281" class="clusterblast-orf" id="dummy-3_h3_2_1"  />
</g>
<g id="a3_002"  >
<polygon points="52,90 58,90 63,85 58,80 52,80 52,90 " style="fill:white; stroke-width:1; stroke:black; " description="&lt;b&gt;VFPPC_02484&lt;/b&gt;&lt;br&gt;catalytic protein&lt;br&gt;Location: 1149969 - 1151219" locus_tag="VFPPC_02484" class="clusterblast-orf" id="dummy-3_h3_2_2"  />
</g>
<g id="a3_003"  >
<polygon points="69,85 74,80 76,80 76,90 74,90 69,85 " style="fill:white; stroke-width:1; stroke:black; " description="&lt;b&gt;VFPPC_02485&lt;/b&gt;&lt;br&gt;phosphoglycerate mutase family protein&lt;br&gt;Location: 1151860 - 1152643" locus_tag="VFPPC_02485" class="clusterblast-orf" id="dummy-3_h3_2_3"  />
</g>
<g id="a3_004"  >
<polygon points="82,90 84,85 82,80 82,90 " style="fill:white; stroke-width:1; stroke:black; " description="&lt;b&gt;VFPPC_15510&lt;/b&gt;&lt;br&gt;hypothetical protein&lt;br&gt;Location: 1153264 - 1153545" locus_tag="VFPPC_15510" class="clusterblast-orf" id="dummy-3_h3_2_4"  />
</g>
<g id="a3_005"  >
<polygon points="86,90 86,90 91,85 86,80 86,80 86,90 " style="fill:white; stroke-width:1; stroke:black; " description="&lt;b&gt;VFPPC_13282&lt;/b&gt;&lt;br&gt;hypothetical protein&lt;br&gt;Location: 1153789 - 1154309" locus_tag="VFPPC_13282" class="clusterblast-orf" id="dummy-3_h3_2_5"  />
</g>
<g id="a3_006"  >
<polygon points="98,85 103,80 107,80 107,90 103,90 98,85 " style="fill:#77d815; stroke-width:1; stroke:black; " description="&lt;b&gt;VFPPC_13283&lt;/b&gt;&lt;br&gt;hypothetical protein&lt;br&gt;Location: 1155055 - 1156056&lt;br&gt;&lt;br&gt;&lt;b&gt;BlastP hit with input.path1.gene550&lt;/b&gt;&lt;br&gt;Percentage identity: 71&lt;br&gt;Percentage coverage: 96&lt;br&gt;BLAST bit score: 330&lt;br&gt;E-value: 1.08e-111" locus_tag="VFPPC_13283" class="clusterblast-orf" id="dummy-3_h3_2_6"  />
</g>
<g id="a3_007"  >
<polygon points="116,85 121,80 122,80 122,90 121,90 116,85 " style="fill:white; stroke-width:1; stroke:black; " description="&lt;b&gt;VFPPC_15511&lt;/b&gt;&lt;br&gt;hypothetical protein&lt;br&gt;Location: 1157158 - 1157764" locus_tag="VFPPC_15511" class="clusterblast-orf" id="dummy-3_h3_2_7"  />
</g>
<g id="a3_008"  >
<polygon points="126,90 136,90 141,85 136,80 126,80 126,90 " style="fill:white; stroke-width:1; stroke:black; " description="&lt;b&gt;VFPPC_02486&lt;/b&gt;&lt;br&gt;HET domain-containing protein&lt;br&gt;Location: 1158218 - 1159948" locus_tag="VFPPC_02486" class="clusterblast-orf" id="dummy-3_h3_2_8"  />
</g>
<g id="a3_009"  >
<polygon points="144,85 149,80 153,80 153,90 149,90 144,85 " style="fill:white; stroke-width:1; stroke:black; " description="&lt;b&gt;VFPPC_02487&lt;/b&gt;&lt;br&gt;NmrA family protein&lt;br&gt;Location: 1160284 - 1161264" locus_tag="VFPPC_02487" class="clusterblast-orf" id="dummy-3_h3_2_9"  />
</g>
<g id="a3_0010"  >
<polygon points="161,85 166,80 173,80 173,90 166,90 161,85 " style="fill:#15d8d8; stroke-width:1; stroke:black; " description="&lt;b&gt;VFPPC_02488&lt;/b&gt;&lt;br&gt;aspartic proteinase&lt;br&gt;Location: 1162103 - 1163484&lt;br&gt;&lt;br&gt;&lt;b&gt;BlastP hit with input.path1.gene551&lt;/b&gt;&lt;br&gt;Percentage identity: 52&lt;br&gt;Percentage coverage: 130&lt;br&gt;BLAST bit score: 405&lt;br&gt;E-value: 7.02e-139" locus_tag="VFPPC_02488" class="clusterblast-orf" id="dummy-3_h3_2_10"  />
</g>
<g id="a3_0011"  >
<polygon points="186,90 196,90 201,85 196,80 186,80 186,90 " style="fill:#7715d8; stroke-width:1; stroke:black; " description="&lt;b&gt;VFPPC_02489&lt;/b&gt;&lt;br&gt;serine/threonine-protein kinase RIO1&lt;br&gt;Location: 1164958 - 1166677&lt;br&gt;&lt;br&gt;&lt;b&gt;BlastP hit with input.path1.gene552&lt;/b&gt;&lt;br&gt;Percentage identity: 81&lt;br&gt;Percentage coverage: 100&lt;br&gt;BLAST bit score: 806&lt;br&gt;E-value: 2.32e-291" locus_tag="VFPPC_02489" class="clusterblast-orf" id="dummy-3_h3_2_11"  />
</g>
<g id="a3_0012"  >
<polygon points="205,85 210,80 228,80 228,90 210,90 205,85 " style="fill:#d87715; stroke-width:1; stroke:black; " description="&lt;b&gt;VFPPC_02490&lt;/b&gt;&lt;br&gt;fungal specific transcription factor domain-containing protein&lt;br&gt;Location: 1167049 - 1169686&lt;br&gt;&lt;br&gt;&lt;b&gt;BlastP hit with input.path1.gene553&lt;/b&gt;&lt;br&gt;Percentage identity: 59&lt;br&gt;Percentage coverage: 113&lt;br&gt;BLAST bit score: 332&lt;br&gt;E-value: 3.96e-107" locus_tag="VFPPC_02490" class="clusterblast-orf" id="dummy-3_h3_2_12"  />
</g>
<g id="a3_0013"  >
<polygon points="233,90 259,90 264,85 259,80 233,80 233,90 " style="fill:#15d815; stroke-width:1; stroke:black; " description="&lt;b&gt;VFPPC_02491&lt;/b&gt;&lt;br&gt;RNA-dependent RNA polymerase&lt;br&gt;Location: 1170277 - 1173670&lt;br&gt;&lt;br&gt;&lt;b&gt;BlastP hit with input.path1.gene554&lt;/b&gt;&lt;br&gt;Percentage identity: 45&lt;br&gt;Percentage coverage: 98&lt;br&gt;BLAST bit score: 328&lt;br&gt;E-value: 1.51e-100" locus_tag="VFPPC_02491" class="clusterblast-orf" id="dummy-3_h3_2_13"  />
</g>
<g id="a3_0014"  >
<polygon points="269,85 274,80 303,80 303,90 274,90 269,85 " style="fill:#1577d8; stroke-width:1; stroke:black; " description="&lt;b&gt;VFPPC_02492&lt;/b&gt;&lt;br&gt;hybrid NRPS/PKS enzyme&lt;br&gt;Location: 1174281 - 1178123&lt;br&gt;&lt;br&gt;&lt;b&gt;BlastP hit with input.path1.gene555&lt;/b&gt;&lt;br&gt;Percentage identity: 90&lt;br&gt;Percentage coverage: 99&lt;br&gt;BLAST bit score: 2254&lt;br&gt;E-value: 0.0" locus_tag="VFPPC_02492" class="clusterblast-orf" id="dummy-3_h3_2_14"  />
</g>
<g id="a3_0015"  >
<polygon points="320,85 325,80 334,80 334,90 325,90 320,85 " style="fill:#d815d8; stroke-width:1; stroke:black; " description="&lt;b&gt;VFPPC_02493&lt;/b&gt;&lt;br&gt;arginine permease&lt;br&gt;Location: 1180018 - 1181550&lt;br&gt;&lt;br&gt;&lt;b&gt;BlastP hit with input.path1.gene556&lt;/b&gt;&lt;br&gt;Percentage identity: 86&lt;br&gt;Percentage coverage: 100&lt;br&gt;BLAST bit score: 730&lt;br&gt;E-value: 3.78e-264" locus_tag="VFPPC_02493" class="clusterblast-orf" id="dummy-3_h3_2_15"  />
</g>
<g id="a3_0016"  >
<polygon points="376,90 388,90 393,85 388,80 376,80 376,90 " style="fill:#d8d815; stroke-width:1; stroke:black; " description="&lt;b&gt;VFPPC_02495&lt;/b&gt;&lt;br&gt;protein PNS1&lt;br&gt;Location: 1186303 - 1188122&lt;br&gt;&lt;br&gt;&lt;b&gt;BlastP hit with input.path1.gene557&lt;/b&gt;&lt;br&gt;Percentage identity: 65&lt;br&gt;Percentage coverage: 98&lt;br&gt;BLAST bit score: 573&lt;br&gt;E-value: 1.21e-200" locus_tag="VFPPC_02495" class="clusterblast-orf" id="dummy-3_h3_2_16"  />
</g>
<g id="a3_0017"  >
<polygon points="394,85 399,80 402,80 402,90 399,90 394,85 " style="fill:white; stroke-width:1; stroke:black; " description="&lt;b&gt;VFPPC_02496&lt;/b&gt;&lt;br&gt;hypothetical protein&lt;br&gt;Location: 1188314 - 1189197" locus_tag="VFPPC_02496" class="clusterblast-orf" id="dummy-3_h3_2_17"  />
</g>
<g id="a3_0018"  >
<polygon points="413,90 413,90 418,85 413,80 413,80 413,90 " style="fill:white; stroke-width:1; stroke:black; " description="&lt;b&gt;VFPPC_13284&lt;/b&gt;&lt;br&gt;hypothetical protein&lt;br&gt;Location: 1190435 - 1191014" locus_tag="VFPPC_13284" class="clusterblast-orf" id="dummy-3_h3_2_18"  />
</g>
<g id="a3_0019"  >
<polygon points="430,90 435,90 440,85 435,80 430,80 430,90 " style="fill:white; stroke-width:1; stroke:black; " description="&lt;b&gt;VFPPC_13285&lt;/b&gt;&lt;br&gt;beta-lactamase&lt;br&gt;Location: 1192326 - 1193483" locus_tag="VFPPC_13285" class="clusterblast-orf" id="dummy-3_h3_2_19"  />
</g>
<g id="a3_0020"  >
<polygon points="505,90 546,90 551,85 546,80 505,80 505,90 " style="fill:white; stroke-width:1; stroke:black; " description="&lt;b&gt;VFPPC_02501&lt;/b&gt;&lt;br&gt;NACHT and WD domain-containing protein&lt;br&gt;Location: 1200714 - 1205863" locus_tag="VFPPC_02501" class="clusterblast-orf" id="dummy-3_h3_2_20"  />
</g>
<g id="a3_0021"  >
<polygon points="557,90 566,90 571,85 566,80 557,80 557,90 " style="fill:white; stroke-width:1; stroke:black; " description="&lt;b&gt;VFPPC_02502&lt;/b&gt;&lt;br&gt;bleomycin hydrolase&lt;br&gt;Location: 1206574 - 1208168" locus_tag="VFPPC_02502" class="clusterblast-orf" id="dummy-3_h3_2_21"  />
</g>
<g id="a3_0022"  >
<polygon points="588,85 593,80 593,80 593,90 593,90 588,85 " style="fill:white; stroke-width:1; stroke:black; " description="&lt;b&gt;VFPPC_15512&lt;/b&gt;&lt;br&gt;hydrophobic surface binding protein A domain-containing protein&lt;br&gt;Location: 1210016 - 1210552" locus_tag="VFPPC_15512" class="clusterblast-orf" id="dummy-3_h3_2_22"  />
</g>
<g id="a3_0023"  >
<polygon points="606,90 606,90 611,85 606,80 606,80 606,90 " style="fill:white; stroke-width:1; stroke:black; " description="&lt;b&gt;VFPPC_02505&lt;/b&gt;&lt;br&gt;hydrophobic surface binding protein A domain-containing protein&lt;br&gt;Location: 1212045 - 1212578" locus_tag="VFPPC_02505" class="clusterblast-orf" id="dummy-3_h3_2_23"  />
</g>
<g id="a3_0024"  >
<polygon points="619,85 624,80 624,80 624,90 624,90 619,85 " style="fill:white; stroke-width:1; stroke:black; " description="&lt;b&gt;VFPPC_02507&lt;/b&gt;&lt;br&gt;protein incorporated later into tight junctions domain-containing protein&lt;br&gt;Location: 1213552 - 1214061" locus_tag="VFPPC_02507" class="clusterblast-orf" id="dummy-3_h3_2_24"  />
</g>
<g id="a3_0025"  >
<polygon points="634,90 636,90 641,85 636,80 634,80 634,90 " style="fill:white; stroke-width:1; stroke:black; " description="&lt;b&gt;VFPPC_02508&lt;/b&gt;&lt;br&gt;hypothetical protein&lt;br&gt;Location: 1215176 - 1215934" locus_tag="VFPPC_02508" class="clusterblast-orf" id="dummy-3_h3_2_25"  />
</g>
<g id="a3_0026"  >
<polygon points="647,85 652,80 661,80 661,90 652,90 647,85 " style="fill:white; stroke-width:1; stroke:black; " description="&lt;b&gt;VFPPC_15513&lt;/b&gt;&lt;br&gt;vacuolar H+\/Ca2+ exchanger&lt;br&gt;Location: 1216662 - 1218263" locus_tag="VFPPC_15513" class="clusterblast-orf" id="dummy-3_h3_2_26"  />
</g>
<g id="a3_0027"  >
<polygon points="695,90 701,90 706,85 701,80 695,80 695,90 " style="fill:white; stroke-width:1; stroke:black; " description="&lt;b&gt;VFPPC_02511&lt;/b&gt;&lt;br&gt;aminoglycoside phosphotransferase&lt;br&gt;Location: 1222059 - 1223288" locus_tag="VFPPC_02511" class="clusterblast-orf" id="dummy-3_h3_2_27"  />
</g>
<g id="a3_0028"  >
<polygon points="720,90 728,90 733,85 728,80 720,80 720,90 " style="fill:white; stroke-width:1; stroke:black; " description="&lt;b&gt;VFPPC_13286&lt;/b&gt;&lt;br&gt;histone-fold protein&lt;br&gt;Location: 1224772 - 1226229" locus_tag="VFPPC_13286" class="clusterblast-orf" id="dummy-3_h3_2_28"  />
</g>
<g id="a3_0029"  >
<polygon points="737,85 742,80 748,80 748,90 742,90 737,85 " style="fill:white; stroke-width:1; stroke:black; " description="&lt;b&gt;VFPPC_02513&lt;/b&gt;&lt;br&gt;hypothetical protein&lt;br&gt;Location: 1226708 - 1227946" locus_tag="VFPPC_02513" class="clusterblast-orf" id="dummy-3_h3_2_29"  />
</g>
<g id="a3_0030"  >
<polygon points="766,85 771,80 780,80 780,90 771,90 766,85 " style="fill:white; stroke-width:1; stroke:black; " description="&lt;b&gt;VFPPC_02514&lt;/b&gt;&lt;br&gt;hypothetical protein&lt;br&gt;Location: 1229932 - 1231497" locus_tag="VFPPC_02514" class="clusterblast-orf" id="dummy-3_h3_2_30"  />
</g>
</svg>
