<svg xmlns="http://www.w3.org/2000/svg" xmlns:xlink="http://www.w3.org/1999/xlink" version="1.1" x="0" y="0" height="230" width="800" viewBox="0 0 800 230" preserveAspectRatio="none"  >
<g label="Query sequence" class="clusterblast-cluster"  >
<text x="5" y="20" class="clusterblast-acc"  >
Query sequence</text>
<line x1="10" y1="35" x2="778.0" y2="35" style="stroke-width:1; stroke:grey; "  />
<polygon points="90,40 95,40 100,35 95,30 90,30 90,40 " style="fill:white; stroke-width:1; stroke:black; " description="&lt;b&gt;input.path1.gene743&lt;/b&gt;&lt;br&gt;input.path1.gene743&lt;br&gt;Location: 3374578 - 3375277" locus_tag="input.path1.gene743" class="clusterblast-orf" id="dummy-2_q0_0_all"  />
<polygon points="115,40 134,40 139,35 134,30 115,30 115,40 " style="fill:white; stroke-width:1; stroke:black; " description="&lt;b&gt;input.path1.gene744&lt;/b&gt;&lt;br&gt;input.path1.gene744&lt;br&gt;Location: 3376363 - 3378071" locus_tag="input.path1.gene744" class="clusterblast-orf" id="dummy-2_q1_0_all"  />
<polygon points="143,35 148,30 172,30 172,40 148,40 143,35 " style="fill:#d81515; stroke-width:1; stroke:black; " description="&lt;b&gt;input.path1.gene745&lt;/b&gt;&lt;br&gt;input.path1.gene745&lt;br&gt;Location: 3378333 - 3380438" locus_tag="input.path1.gene745" class="clusterblast-orf" id="dummy-2_q2_0_all"  />
<polygon points="176,40 220,40 225,35 220,30 176,30 176,40 " style="fill:white; stroke-width:1; stroke:black; " description="&lt;b&gt;input.path1.gene746&lt;/b&gt;&lt;br&gt;input.path1.gene746&lt;br&gt;Location: 3380728 - 3384255" locus_tag="input.path1.gene746" class="clusterblast-orf" id="dummy-2_q3_0_all"  />
<polygon points="242,40 310,40 315,35 310,30 242,30 242,40 " style="fill:white; stroke-width:1; stroke:black; " description="&lt;b&gt;input.path1.gene747&lt;/b&gt;&lt;br&gt;input.path1.gene747&lt;br&gt;Location: 3385444 - 3390687" locus_tag="input.path1.gene747" class="clusterblast-orf" id="dummy-2_q4_0_all"  />
<polygon points="320,35 325,30 421,30 421,40 325,40 320,35 " style="fill:#5cd815; stroke-width:1; stroke:black; " description="&lt;b&gt;input.path1.gene748&lt;/b&gt;&lt;br&gt;input.path1.gene748&lt;br&gt;Location: 3391099 - 3398363" locus_tag="input.path1.gene748" class="clusterblast-orf" id="dummy-2_q5_0_all"  />
<polygon points="452,40 464,40 469,35 464,30 452,30 452,40 " style="fill:#15a3d8; stroke-width:1; stroke:black; " description="&lt;b&gt;input.path1.gene749&lt;/b&gt;&lt;br&gt;input.path1.gene749&lt;br&gt;Location: 3400552 - 3401770" locus_tag="input.path1.gene749" class="clusterblast-orf" id="dummy-2_q6_0_all"  />
<polygon points="477,35 482,30 502,30 502,40 482,40 477,35 " style="fill:#c715d8; stroke-width:1; stroke:black; " description="&lt;b&gt;input.path1.gene750&lt;/b&gt;&lt;br&gt;input.path1.gene750&lt;br&gt;Location: 3402377 - 3404132" locus_tag="input.path1.gene750" class="clusterblast-orf" id="dummy-2_q7_0_all"  />
<polygon points="504,40 508,40 513,35 508,30 504,30 504,40 " style="fill:white; stroke-width:1; stroke:black; " description="&lt;b&gt;input.path1.gene751&lt;/b&gt;&lt;br&gt;input.path1.gene751&lt;br&gt;Location: 3404267 - 3404923" locus_tag="input.path1.gene751" class="clusterblast-orf" id="dummy-2_q8_0_all"  />
<polygon points="515,40 525,40 530,35 525,30 515,30 515,40 " style="fill:#d88015; stroke-width:1; stroke:black; " description="&lt;b&gt;input.path1.gene752&lt;/b&gt;&lt;br&gt;input.path1.gene752&lt;br&gt;Location: 3405096 - 3406134" locus_tag="input.path1.gene752" class="clusterblast-orf" id="dummy-2_q9_0_all"  />
<polygon points="532,35 537,30 545,30 545,40 537,40 532,35 " style="fill:white; stroke-width:1; stroke:black; " description="&lt;b&gt;input.path1.gene753&lt;/b&gt;&lt;br&gt;input.path1.gene753&lt;br&gt;Location: 3406284 - 3407251" locus_tag="input.path1.gene753" class="clusterblast-orf" id="dummy-2_q10_0_all"  />
<polygon points="557,40 561,40 566,35 561,30 557,30 557,40 " style="fill:#15d839; stroke-width:1; stroke:black; " description="&lt;b&gt;input.path1.gene754&lt;/b&gt;&lt;br&gt;input.path1.gene754&lt;br&gt;Location: 3408086 - 3408726" locus_tag="input.path1.gene754" class="clusterblast-orf" id="dummy-2_q11_0_all"  />
<polygon points="573,40 578,40 583,35 578,30 573,30 573,40 " style="fill:#1539d8; stroke-width:1; stroke:black; " description="&lt;b&gt;input.path1.gene755&lt;/b&gt;&lt;br&gt;input.path1.gene755&lt;br&gt;Location: 3409222 - 3410000" locus_tag="input.path1.gene755" class="clusterblast-orf" id="dummy-2_q12_0_all"  />
<polygon points="586,35 591,30 613,30 613,40 591,40 586,35 " style="fill:#d81580; stroke-width:1; stroke:black; " description="&lt;b&gt;input.path1.gene756&lt;/b&gt;&lt;br&gt;input.path1.gene756&lt;br&gt;Location: 3410190 - 3412106" locus_tag="input.path1.gene756" class="clusterblast-orf" id="dummy-2_q13_0_all"  />
<polygon points="614,40 626,40 631,35 626,30 614,30 614,40 " style="fill:#c7d815; stroke-width:1; stroke:black; " description="&lt;b&gt;input.path1.gene757&lt;/b&gt;&lt;br&gt;input.path1.gene757&lt;br&gt;Location: 3412215 - 3413416" locus_tag="input.path1.gene757" class="clusterblast-orf" id="dummy-2_q14_0_all"  />
<polygon points="641,35 646,30 662,30 662,40 646,40 641,35 " style="fill:#15d8a3; stroke-width:1; stroke:black; " description="&lt;b&gt;input.path1.gene758&lt;/b&gt;&lt;br&gt;input.path1.gene758&lt;br&gt;Location: 3414143 - 3415664" locus_tag="input.path1.gene758" class="clusterblast-orf" id="dummy-2_q15_0_all"  />
<polygon points="676,40 684,40 689,35 684,30 676,30 676,40 " style="fill:#5c15d8; stroke-width:1; stroke:black; " description="&lt;b&gt;input.path1.gene759&lt;/b&gt;&lt;br&gt;input.path1.gene759&lt;br&gt;Location: 3416622 - 3417588" locus_tag="input.path1.gene759" class="clusterblast-orf" id="dummy-2_q16_0_all"  />
</g>
<g label="NW_025408670" description="NW_025408670 (3613020-3679633): Hirsutella rhossiliensis strain HR02 chromoso... (46% of genes show similarity), T1PKS,indole" class="clusterblast-cluster"  >
<text x="5" y="70" class="clusterblast-acc"  >
<a xlink:href="https://antismash-db.secondarymetabolites.org/area?record=NW_025408670&amp;start=3613020&amp;end=3679633" target="_blank">NW_025408670 (3613020-3679633)</a>: Hirsutella rhossiliensis strain HR02 chromoso... (46% of genes show similarity), T1PKS,indole</text>
<line x1="10" y1="85" x2="778.0" y2="85" style="stroke-width:1; stroke:grey; "  />
</g>
<g id="a2_000"  >
<polygon points="0,85 5,80 8,80 8,90 5,90 0,85 " style="fill:white; stroke-width:1; stroke:black; " description="&lt;b&gt;HRG_04637&lt;/b&gt;&lt;br&gt;LURP-one-related domain-containing protein&lt;br&gt;Location: 3622272 - 3622889" locus_tag="HRG_04637" class="clusterblast-orf" id="dummy-2_h2_1_0"  />
</g>
<g id="a2_001"  >
<polygon points="32,85 37,80 62,80 62,90 37,90 32,85 " style="fill:white; stroke-width:1; stroke:black; " description="&lt;b&gt;HRG_04638&lt;/b&gt;&lt;br&gt;hydroxymethylglutaryl-coenzyme A reductase domain-containing protein&lt;br&gt;Location: 3624618 - 3626758" locus_tag="HRG_04638" class="clusterblast-orf" id="dummy-2_h2_1_1"  />
</g>
<g id="a2_002"  >
<polygon points="97,90 105,90 110,85 105,80 97,80 97,90 " style="fill:#d88015; stroke-width:1; stroke:black; " description="&lt;b&gt;HRG_04639&lt;/b&gt;&lt;br&gt;enoyl-(Acyl carrier protein) reductase domain-containing protein&lt;br&gt;Location: 3629290 - 3630207&lt;br&gt;&lt;br&gt;&lt;b&gt;BlastP hit with input.path1.gene752&lt;/b&gt;&lt;br&gt;Percentage identity: 78&lt;br&gt;Percentage coverage: 98&lt;br&gt;BLAST bit score: 413&lt;br&gt;E-value: 2.07e-145" locus_tag="HRG_04639" class="clusterblast-orf" id="dummy-2_h2_1_2"  />
</g>
<g id="a2_003"  >
<polygon points="135,85 140,80 150,80 150,90 140,90 135,85 " style="fill:#c715d8; stroke-width:1; stroke:black; " description="&lt;b&gt;HRG_04640&lt;/b&gt;&lt;br&gt;tryptophan dimethylallyltransferase domain-containing protein&lt;br&gt;Location: 3631975 - 3633108&lt;br&gt;&lt;br&gt;&lt;b&gt;BlastP hit with input.path1.gene750&lt;/b&gt;&lt;br&gt;Percentage identity: 46&lt;br&gt;Percentage coverage: 85&lt;br&gt;BLAST bit score: 281&lt;br&gt;E-value: 6.09e-91" locus_tag="HRG_04640" class="clusterblast-orf" id="dummy-2_h2_1_3"  />
</g>
<g id="a2_004"  >
<polygon points="218,85 223,80 227,80 227,90 223,90 218,85 " style="fill:#15d839; stroke-width:1; stroke:black; " description="&lt;b&gt;HRG_04641&lt;/b&gt;&lt;br&gt;scytalone dehydratase domain-containing protein&lt;br&gt;Location: 3637999 - 3638606&lt;br&gt;&lt;br&gt;&lt;b&gt;BlastP hit with input.path1.gene754&lt;/b&gt;&lt;br&gt;Percentage identity: 78&lt;br&gt;Percentage coverage: 98&lt;br&gt;BLAST bit score: 273&lt;br&gt;E-value: 2.91e-93" locus_tag="HRG_04641" class="clusterblast-orf" id="dummy-2_h2_1_4"  />
</g>
<g id="a2_005"  >
<polygon points="246,85 251,80 267,80 267,90 251,90 246,85 " style="fill:#c715d8; stroke-width:1; stroke:black; " description="&lt;b&gt;HRG_04642&lt;/b&gt;&lt;br&gt;tryptophan dimethylallyltransferase domain-containing protein&lt;br&gt;Location: 3639978 - 3641475&lt;br&gt;&lt;br&gt;&lt;b&gt;BlastP hit with input.path1.gene750&lt;/b&gt;&lt;br&gt;Percentage identity: 55&lt;br&gt;Percentage coverage: 84&lt;br&gt;BLAST bit score: 371&lt;br&gt;E-value: 6.34e-125" locus_tag="HRG_04642" class="clusterblast-orf" id="dummy-2_h2_1_5"  />
</g>
<g id="a2_006"  >
<polygon points="288,85 293,80 380,80 380,90 293,90 288,85 " style="fill:#5cd815; stroke-width:1; stroke:black; " description="&lt;b&gt;HRG_04643&lt;/b&gt;&lt;br&gt;starter unit:ACP transacylase in aflatoxin biosynthesis domain-containing protein&lt;br&gt;Location: 3643021 - 3649633&lt;br&gt;&lt;br&gt;&lt;b&gt;BlastP hit with input.path1.gene748&lt;/b&gt;&lt;br&gt;Percentage identity: 63&lt;br&gt;Percentage coverage: 101&lt;br&gt;BLAST bit score: 2672&lt;br&gt;E-value: 0.0" locus_tag="HRG_04643" class="clusterblast-orf" id="dummy-2_h2_1_6"  />
</g>
<g id="a2_007"  >
<polygon points="411,90 431,90 436,85 431,80 411,80 411,90 " style="fill:#15a3d8; stroke-width:1; stroke:black; " description="&lt;b&gt;HRG_04644&lt;/b&gt;&lt;br&gt;uncharacterized protein&lt;br&gt;Location: 3651862 - 3653601&lt;br&gt;&lt;br&gt;&lt;b&gt;BlastP hit with input.path1.gene749&lt;/b&gt;&lt;br&gt;Percentage identity: 65&lt;br&gt;Percentage coverage: 91&lt;br&gt;BLAST bit score: 406&lt;br&gt;E-value: 9.16e-137" locus_tag="HRG_04644" class="clusterblast-orf" id="dummy-2_h2_1_7"  />
</g>
<g id="a2_008"  >
<polygon points="533,85 538,80 546,80 546,90 538,90 533,85 " style="fill:white; stroke-width:1; stroke:black; " description="&lt;b&gt;HRG_04645&lt;/b&gt;&lt;br&gt;cell wall biogenesis protein Mhp1&lt;br&gt;Location: 3660618 - 3661496" locus_tag="HRG_04645" class="clusterblast-orf" id="dummy-2_h2_1_8"  />
</g>
<g id="a2_009"  >
<polygon points="652,90 654,90 659,85 654,80 652,80 652,90 " style="fill:white; stroke-width:1; stroke:black; " description="&lt;b&gt;HRG_04646&lt;/b&gt;&lt;br&gt;DDE superfamily endonuclease domain-containing protein&lt;br&gt;Location: 3669165 - 3669667" locus_tag="HRG_04646" class="clusterblast-orf" id="dummy-2_h2_1_9"  />
</g>
<g id="a2_0010"  >
<polygon points="697,85 702,80 704,80 704,90 702,90 697,85 " style="fill:white; stroke-width:1; stroke:black; " description="&lt;b&gt;HRG_04647&lt;/b&gt;&lt;br&gt;uncharacterized protein&lt;br&gt;Location: 3672343 - 3672852" locus_tag="HRG_04647" class="clusterblast-orf" id="dummy-2_h2_1_10"  />
</g>
<g id="a2_0011"  >
<polygon points="747,85 752,80 760,80 760,90 752,90 747,85 " style="fill:white; stroke-width:1; stroke:black; " description="&lt;b&gt;HRG_04648&lt;/b&gt;&lt;br&gt;kinase&lt;br&gt;Location: 3675963 - 3676882" locus_tag="HRG_04648" class="clusterblast-orf" id="dummy-2_h2_1_11"  />
</g>
<g id="a2_0012"  >
<polygon points="770,90 775,90 780,85 775,80 770,80 770,90 " style="fill:white; stroke-width:1; stroke:black; " description="&lt;b&gt;HRG_04649&lt;/b&gt;&lt;br&gt;CHCH domain-containing protein&lt;br&gt;Location: 3677642 - 3678296" locus_tag="HRG_04649" class="clusterblast-orf" id="dummy-2_h2_1_12"  />
</g>
</svg>
