<svg xmlns="http://www.w3.org/2000/svg" xmlns:xlink="http://www.w3.org/1999/xlink" version="1.1" x="0" y="0" height="230" width="800" viewBox="0 0 800 230" preserveAspectRatio="none"  >
<g label="Query sequence" class="clusterblast-cluster"  >
<text x="5" y="20" class="clusterblast-acc"  >
Query sequence</text>
<line x1="10" y1="35" x2="778.0" y2="35" style="stroke-width:1; stroke:grey; "  />
<polygon points="313,40 316,40 321,35 316,30 313,30 313,40 " style="fill:white; stroke-width:1; stroke:black; " description="&lt;b&gt;input.path1.gene42&lt;/b&gt;&lt;br&gt;input.path1.gene42&lt;br&gt;Location: 385342 - 386020" locus_tag="input.path1.gene42" class="clusterblast-orf" id="dummy-1_q0_0_all"  />
<polygon points="344,40 435,40 440,35 435,30 344,30 344,40 " style="fill:#d81515; stroke-width:1; stroke:black; " description="&lt;b&gt;input.path1.gene43&lt;/b&gt;&lt;br&gt;input.path1.gene43&lt;br&gt;Location: 388055 - 396223" locus_tag="input.path1.gene43" class="clusterblast-orf" id="dummy-1_q1_0_all"  />
<polygon points="448,40 462,40 467,35 462,30 448,30 448,40 " style="fill:#15d8d8; stroke-width:1; stroke:black; " description="&lt;b&gt;input.path1.gene44&lt;/b&gt;&lt;br&gt;input.path1.gene44&lt;br&gt;Location: 396897 - 398450" locus_tag="input.path1.gene44" class="clusterblast-orf" id="dummy-1_q2_0_all"  />
</g>
<g label="NC_066263" description="NC_066263 (122385-190547): Aspergillus nidulans FGSC A4 chromosome VII (9% of genes show similarity), T1PKS" class="clusterblast-cluster"  >
<text x="5" y="70" class="clusterblast-acc"  >
<a xlink:href="https://antismash-db.secondarymetabolites.org/area?record=NC_066263&amp;start=122385&amp;end=190547" target="_blank">NC_066263 (122385-190547)</a>: Aspergillus nidulans FGSC A4 chromosome VII (9% of genes show similarity), T1PKS</text>
<line x1="10" y1="85" x2="778.0" y2="85" style="stroke-width:1; stroke:grey; "  />
</g>
<g id="a1_000"  >
<polygon points="0,90 4,90 9,85 4,80 0,80 0,90 " style="fill:white; stroke-width:1; stroke:black; " description="&lt;b&gt;ANIA_11158&lt;/b&gt;&lt;br&gt;hypothetical protein&lt;br&gt;Location: 123129 - 123914" locus_tag="ANIA_11158" class="clusterblast-orf" id="dummy-1_h1_8_0"  />
</g>
<g id="a1_001"  >
<polygon points="19,90 24,90 29,85 24,80 19,80 19,90 " style="fill:white; stroke-width:1; stroke:black; " description="&lt;b&gt;ANIA_11160&lt;/b&gt;&lt;br&gt;hypothetical protein&lt;br&gt;Location: 124831 - 125619" locus_tag="ANIA_11160" class="clusterblast-orf" id="dummy-1_h1_8_1"  />
</g>
<g id="a1_002"  >
<polygon points="37,85 42,80 63,80 63,90 42,90 37,85 " style="fill:white; stroke-width:1; stroke:black; " description="&lt;b&gt;ANIA_09015&lt;/b&gt;&lt;br&gt;hypothetical protein&lt;br&gt;Location: 126351 - 128554" locus_tag="ANIA_09015" class="clusterblast-orf" id="dummy-1_h1_8_2"  />
</g>
<g id="a1_003"  >
<polygon points="70,85 75,80 87,80 87,90 75,90 70,85 " style="fill:#15d8d8; stroke-width:1; stroke:black; " description="&lt;b&gt;ANIA_09014&lt;/b&gt;&lt;br&gt;hypothetical protein&lt;br&gt;Location: 129134 - 130561&lt;br&gt;&lt;br&gt;&lt;b&gt;BlastP hit with input.path1.gene44&lt;/b&gt;&lt;br&gt;Percentage identity: 31&lt;br&gt;Percentage coverage: 68&lt;br&gt;BLAST bit score: 132&lt;br&gt;E-value: 1.22e-32" locus_tag="ANIA_09014" class="clusterblast-orf" id="dummy-1_h1_8_3"  />
</g>
<g id="a1_004"  >
<polygon points="94,90 115,90 120,85 115,80 94,80 94,90 " style="fill:white; stroke-width:1; stroke:black; " description="&lt;b&gt;ANIA_09013&lt;/b&gt;&lt;br&gt;hypothetical protein&lt;br&gt;Location: 131163 - 133385" locus_tag="ANIA_09013" class="clusterblast-orf" id="dummy-1_h1_8_4"  />
</g>
<g id="a1_005"  >
<polygon points="122,85 127,80 133,80 133,90 127,90 122,85 " style="fill:white; stroke-width:1; stroke:black; " description="&lt;b&gt;ANIA_09012&lt;/b&gt;&lt;br&gt;hypothetical protein&lt;br&gt;Location: 133560 - 134456" locus_tag="ANIA_09012" class="clusterblast-orf" id="dummy-1_h1_8_5"  />
</g>
<g id="a1_006"  >
<polygon points="148,90 166,90 171,85 166,80 148,80 148,90 " style="fill:white; stroke-width:1; stroke:black; " description="&lt;b&gt;ANIA_09011&lt;/b&gt;&lt;br&gt;hypothetical protein&lt;br&gt;Location: 135753 - 137748" locus_tag="ANIA_09011" class="clusterblast-orf" id="dummy-1_h1_8_6"  />
</g>
<g id="a1_007"  >
<polygon points="173,85 178,80 196,80 196,90 178,90 173,85 " style="fill:white; stroke-width:1; stroke:black; " description="&lt;b&gt;ANIA_09010&lt;/b&gt;&lt;br&gt;hypothetical protein&lt;br&gt;Location: 137873 - 139824" locus_tag="ANIA_09010" class="clusterblast-orf" id="dummy-1_h1_8_7"  />
</g>
<g id="a1_008"  >
<polygon points="203,90 206,90 211,85 206,80 203,80 203,90 " style="fill:white; stroke-width:1; stroke:black; " description="&lt;b&gt;ANIA_09009&lt;/b&gt;&lt;br&gt;hypothetical protein&lt;br&gt;Location: 140489 - 141154" locus_tag="ANIA_09009" class="clusterblast-orf" id="dummy-1_h1_8_8"  />
</g>
<g id="a1_009"  >
<polygon points="214,85 219,80 260,80 260,90 219,90 214,85 " style="fill:white; stroke-width:1; stroke:black; " description="&lt;b&gt;ANIA_09008&lt;/b&gt;&lt;br&gt;protein fphA&lt;br&gt;Location: 141411 - 145309" locus_tag="ANIA_09008" class="clusterblast-orf" id="dummy-1_h1_8_9"  />
</g>
<g id="a1_0010"  >
<polygon points="291,90 308,90 313,85 308,80 291,80 291,90 " style="fill:white; stroke-width:1; stroke:black; " description="&lt;b&gt;ANIA_09007&lt;/b&gt;&lt;br&gt;protein CYP548D1&lt;br&gt;Location: 147900 - 149790" locus_tag="ANIA_09007" class="clusterblast-orf" id="dummy-1_h1_8_10"  />
</g>
<g id="a1_0011"  >
<polygon points="328,85 333,80 335,80 335,90 333,90 328,85 " style="fill:white; stroke-width:1; stroke:black; " description="&lt;b&gt;ANIA_09006&lt;/b&gt;&lt;br&gt;hypothetical protein&lt;br&gt;Location: 151066 - 151647" locus_tag="ANIA_09006" class="clusterblast-orf" id="dummy-1_h1_8_11"  />
</g>
<g id="a1_0012"  >
<polygon points="343,90 434,90 439,85 434,80 343,80 343,90 " style="fill:#d81515; stroke-width:1; stroke:black; " description="&lt;b&gt;ANIA_09005&lt;/b&gt;&lt;br&gt;hypothetical protein&lt;br&gt;Location: 152386 - 160547&lt;br&gt;&lt;br&gt;&lt;b&gt;BlastP hit with input.path1.gene43&lt;/b&gt;&lt;br&gt;Percentage identity: 32&lt;br&gt;Percentage coverage: 109&lt;br&gt;BLAST bit score: 1014&lt;br&gt;E-value: 0.0" locus_tag="ANIA_09005" class="clusterblast-orf" id="dummy-1_h1_8_12"  />
</g>
<g id="a1_0013"  >
<polygon points="453,90 471,90 476,85 471,80 453,80 453,90 " style="fill:white; stroke-width:1; stroke:black; " description="&lt;b&gt;ANIA_09004&lt;/b&gt;&lt;br&gt;hypothetical protein&lt;br&gt;Location: 161720 - 163663" locus_tag="ANIA_09004" class="clusterblast-orf" id="dummy-1_h1_8_13"  />
</g>
<g id="a1_0014"  >
<polygon points="484,90 529,90 534,85 529,80 484,80 484,90 " style="fill:white; stroke-width:1; stroke:black; " description="&lt;b&gt;ANIA_09003&lt;/b&gt;&lt;br&gt;hypothetical protein&lt;br&gt;Location: 164400 - 168604" locus_tag="ANIA_09003" class="clusterblast-orf" id="dummy-1_h1_8_14"  />
</g>
<g id="a1_0015"  >
<polygon points="535,85 540,80 549,80 549,90 540,90 535,85 " style="fill:white; stroke-width:1; stroke:black; " description="&lt;b&gt;ANIA_09002&lt;/b&gt;&lt;br&gt;hypothetical protein&lt;br&gt;Location: 168728 - 169902" locus_tag="ANIA_09002" class="clusterblast-orf" id="dummy-1_h1_8_15"  />
</g>
<g id="a1_0016"  >
<polygon points="598,90 607,90 612,85 607,80 598,80 598,90 " style="fill:white; stroke-width:1; stroke:black; " description="&lt;b&gt;ANIA_09001&lt;/b&gt;&lt;br&gt;hypothetical protein&lt;br&gt;Location: 174071 - 175267" locus_tag="ANIA_09001" class="clusterblast-orf" id="dummy-1_h1_8_16"  />
</g>
<g id="a1_0017"  >
<polygon points="622,90 638,90 643,85 638,80 622,80 622,90 " style="fill:white; stroke-width:1; stroke:black; " description="&lt;b&gt;ANIA_09000&lt;/b&gt;&lt;br&gt;hypothetical protein&lt;br&gt;Location: 176150 - 177858" locus_tag="ANIA_09000" class="clusterblast-orf" id="dummy-1_h1_8_17"  />
</g>
<g id="a1_0018"  >
<polygon points="662,90 665,85 662,80 662,90 " style="fill:white; stroke-width:1; stroke:black; " description="&lt;b&gt;ANIA_11639&lt;/b&gt;&lt;br&gt;hypothetical protein&lt;br&gt;Location: 179522 - 179771" locus_tag="ANIA_11639" class="clusterblast-orf" id="dummy-1_h1_8_18"  />
</g>
<g id="a1_0019"  >
<polygon points="679,90 710,90 715,85 710,80 679,80 679,90 " style="fill:white; stroke-width:1; stroke:black; " description="&lt;b&gt;ANIA_08999&lt;/b&gt;&lt;br&gt;hypothetical protein&lt;br&gt;Location: 180933 - 184047" locus_tag="ANIA_08999" class="clusterblast-orf" id="dummy-1_h1_8_19"  />
</g>
<g id="a1_0020"  >
<polygon points="730,85 735,80 743,80 743,90 735,90 730,85 " style="fill:white; stroke-width:1; stroke:black; " description="&lt;b&gt;ANIA_08998&lt;/b&gt;&lt;br&gt;hypothetical protein&lt;br&gt;Location: 185324 - 186388" locus_tag="ANIA_08998" class="clusterblast-orf" id="dummy-1_h1_8_20"  />
</g>
<g id="a1_0021"  >
<polygon points="764,85 769,80 780,80 780,90 769,90 764,85 " style="fill:white; stroke-width:1; stroke:black; " description="&lt;b&gt;ANIA_08997&lt;/b&gt;&lt;br&gt;hypothetical protein&lt;br&gt;Location: 188192 - 189516" locus_tag="ANIA_08997" class="clusterblast-orf" id="dummy-1_h1_8_21"  />
</g>
</svg>
