<svg xmlns="http://www.w3.org/2000/svg" xmlns:xlink="http://www.w3.org/1999/xlink" version="1.1" x="0" y="0" height="230" width="800" viewBox="0 0 800 230" preserveAspectRatio="none"  >
<g label="Query sequence" class="clusterblast-cluster"  >
<text x="5" y="20" class="clusterblast-acc"  >
Query sequence</text>
<line x1="10" y1="35" x2="778.0" y2="35" style="stroke-width:1; stroke:grey; "  />
<polygon points="332,40 334,35 332,30 332,40 " style="fill:#d81515; stroke-width:1; stroke:black; " description="&lt;b&gt;input.path1.gene511&lt;/b&gt;&lt;br&gt;input.path1.gene511&lt;br&gt;Location: 2589810 - 2590614" locus_tag="input.path1.gene511" class="clusterblast-orf" id="dummy-2_q0_0_all"  />
<polygon points="336,40 340,35 336,30 336,40 " style="fill:#77d815; stroke-width:1; stroke:black; " description="&lt;b&gt;input.path1.gene512&lt;/b&gt;&lt;br&gt;input.path1.gene512&lt;br&gt;Location: 2591409 - 2593041" locus_tag="input.path1.gene512" class="clusterblast-orf" id="dummy-2_q1_0_all"  />
<polygon points="340,35 342,30 342,40 340,35 " style="fill:#15d8d8; stroke-width:1; stroke:black; " description="&lt;b&gt;input.path1.gene513&lt;/b&gt;&lt;br&gt;input.path1.gene513&lt;br&gt;Location: 2593187 - 2593732" locus_tag="input.path1.gene513" class="clusterblast-orf" id="dummy-2_q2_0_all"  />
<polygon points="344,40 348,40 353,35 348,30 344,30 344,40 " style="fill:#7715d8; stroke-width:1; stroke:black; " description="&lt;b&gt;input.path1.gene514&lt;/b&gt;&lt;br&gt;input.path1.gene514&lt;br&gt;Location: 2594689 - 2598596" locus_tag="input.path1.gene514" class="clusterblast-orf" id="dummy-2_q3_0_all"  />
<polygon points="355,40 357,40 362,35 357,30 355,30 355,40 " style="fill:#d87715; stroke-width:1; stroke:black; " description="&lt;b&gt;input.path1.gene515&lt;/b&gt;&lt;br&gt;input.path1.gene515&lt;br&gt;Location: 2599463 - 2602355" locus_tag="input.path1.gene515" class="clusterblast-orf" id="dummy-2_q4_0_all"  />
<polygon points="363,35 368,30 376,30 376,40 368,40 363,35 " style="fill:#15d815; stroke-width:1; stroke:black; " description="&lt;b&gt;input.path1.gene516&lt;/b&gt;&lt;br&gt;input.path1.gene516&lt;br&gt;Location: 2602677 - 2608016" locus_tag="input.path1.gene516" class="clusterblast-orf" id="dummy-2_q5_0_all"  />
<polygon points="385,35 385,30 385,40 385,35 " style="fill:#1577d8; stroke-width:1; stroke:black; " description="&lt;b&gt;input.path1.gene517&lt;/b&gt;&lt;br&gt;input.path1.gene517&lt;br&gt;Location: 2611852 - 2612165" locus_tag="input.path1.gene517" class="clusterblast-orf" id="dummy-2_q6_0_all"  />
<polygon points="389,40 392,35 389,30 389,40 " style="fill:#d815d8; stroke-width:1; stroke:black; " description="&lt;b&gt;input.path1.gene518&lt;/b&gt;&lt;br&gt;input.path1.gene518&lt;br&gt;Location: 2613694 - 2614804" locus_tag="input.path1.gene518" class="clusterblast-orf" id="dummy-2_q7_0_all"  />
<polygon points="394,40 396,35 394,30 394,40 " style="fill:#d8d815; stroke-width:1; stroke:black; " description="&lt;b&gt;input.path1.gene519&lt;/b&gt;&lt;br&gt;input.path1.gene519&lt;br&gt;Location: 2615906 - 2616764" locus_tag="input.path1.gene519" class="clusterblast-orf" id="dummy-2_q8_0_all"  />
<polygon points="398,35 401,30 401,40 398,35 " style="fill:#15d877; stroke-width:1; stroke:black; " description="&lt;b&gt;input.path1.gene520&lt;/b&gt;&lt;br&gt;input.path1.gene520&lt;br&gt;Location: 2617640 - 2618763" locus_tag="input.path1.gene520" class="clusterblast-orf" id="dummy-2_q9_0_all"  />
<polygon points="405,40 408,35 405,30 405,40 " style="fill:white; stroke-width:1; stroke:black; " description="&lt;b&gt;input.path1.gene521&lt;/b&gt;&lt;br&gt;input.path1.gene521&lt;br&gt;Location: 2620241 - 2621783" locus_tag="input.path1.gene521" class="clusterblast-orf" id="dummy-2_q10_0_all"  />
<polygon points="409,35 410,30 410,40 409,35 " style="fill:#1515d8; stroke-width:1; stroke:black; " description="&lt;b&gt;input.path1.gene522&lt;/b&gt;&lt;br&gt;input.path1.gene522&lt;br&gt;Location: 2621916 - 2622606" locus_tag="input.path1.gene522" class="clusterblast-orf" id="dummy-2_q11_0_all"  />
<polygon points="411,40 412,40 417,35 412,30 411,30 411,40 " style="fill:#d81577; stroke-width:1; stroke:black; " description="&lt;b&gt;input.path1.gene523&lt;/b&gt;&lt;br&gt;input.path1.gene523&lt;br&gt;Location: 2623072 - 2625349" locus_tag="input.path1.gene523" class="clusterblast-orf" id="dummy-2_q12_0_all"  />
<polygon points="445,35 447,30 447,40 445,35 " style="fill:white; stroke-width:1; stroke:black; " description="&lt;b&gt;input.path1.gene524&lt;/b&gt;&lt;br&gt;input.path1.gene524&lt;br&gt;Location: 2637203 - 2637991" locus_tag="input.path1.gene524" class="clusterblast-orf" id="dummy-2_q13_0_all"  />
</g>
<g label="NW_019154045" description="NW_019154045 (358401-688746): Pochonia chlamydosporia 170 chromosome Unknown ... (9% of genes show similarity), fungal-RiPP-like" class="clusterblast-cluster"  >
<text x="5" y="70" class="clusterblast-acc"  >
<a xlink:href="https://antismash-db.secondarymetabolites.org/area?record=NW_019154045&amp;start=358401&amp;end=688746" target="_blank">NW_019154045 (358401-688746)</a>: Pochonia chlamydosporia 170 chromosome Unknown ... (9% of genes show similarity), fungal-RiPP-like</text>
<line x1="10" y1="85" x2="778.0" y2="85" style="stroke-width:1; stroke:grey; "  />
</g>
<g id="a2_000"  >
<polygon points="0,85 3,80 3,90 0,85 " style="fill:white; stroke-width:1; stroke:black; " description="&lt;b&gt;VFPPC_10256&lt;/b&gt;&lt;br&gt;fungal specific transcription factor domain-containing protein&lt;br&gt;Location: 359549 - 361202" locus_tag="VFPPC_10256" class="clusterblast-orf" id="dummy-2_h2_1_0"  />
</g>
<g id="a2_001"  >
<polygon points="6,90 9,85 6,80 6,90 " style="fill:white; stroke-width:1; stroke:black; " description="&lt;b&gt;VFPPC_14740&lt;/b&gt;&lt;br&gt;epoxide hydrolase 1&lt;br&gt;Location: 362224 - 363705" locus_tag="VFPPC_14740" class="clusterblast-orf" id="dummy-2_h2_1_1"  />
</g>
<g id="a2_002"  >
<polygon points="10,85 15,80 16,80 16,90 15,90 10,85 " style="fill:white; stroke-width:1; stroke:black; " description="&lt;b&gt;VFPPC_10255&lt;/b&gt;&lt;br&gt;benzoate 4-monooxygenase cytochrome P450&lt;br&gt;Location: 364107 - 366321" locus_tag="VFPPC_10255" class="clusterblast-orf" id="dummy-2_h2_1_2"  />
</g>
<g id="a2_003"  >
<polygon points="22,85 24,80 24,90 22,85 " style="fill:white; stroke-width:1; stroke:black; " description="&lt;b&gt;VFPPC_10253&lt;/b&gt;&lt;br&gt;short-chain dehydrogenase reductase family&lt;br&gt;Location: 368834 - 369664" locus_tag="VFPPC_10253" class="clusterblast-orf" id="dummy-2_h2_1_3"  />
</g>
<g id="a2_004"  >
<polygon points="25,85 28,80 28,90 25,85 " style="fill:white; stroke-width:1; stroke:black; " description="&lt;b&gt;VFPPC_14739&lt;/b&gt;&lt;br&gt;cytochrome P450&lt;br&gt;Location: 370129 - 371530" locus_tag="VFPPC_14739" class="clusterblast-orf" id="dummy-2_h2_1_4"  />
</g>
<g id="a2_005"  >
<polygon points="31,90 31,90 36,85 31,80 31,80 31,90 " style="fill:white; stroke-width:1; stroke:black; " description="&lt;b&gt;VFPPC_10252&lt;/b&gt;&lt;br&gt;amino acid permease&lt;br&gt;Location: 372635 - 374779" locus_tag="VFPPC_10252" class="clusterblast-orf" id="dummy-2_h2_1_5"  />
</g>
<g id="a2_006"  >
<polygon points="38,90 42,85 38,80 38,90 " style="fill:white; stroke-width:1; stroke:black; " description="&lt;b&gt;VFPPC_10251&lt;/b&gt;&lt;br&gt;ankyrin repeats (3 copies) domain-containing protein&lt;br&gt;Location: 375720 - 377585" locus_tag="VFPPC_10251" class="clusterblast-orf" id="dummy-2_h2_1_6"  />
</g>
<g id="a2_007"  >
<polygon points="43,85 45,80 45,90 43,85 " style="fill:white; stroke-width:1; stroke:black; " description="&lt;b&gt;VFPPC_14738&lt;/b&gt;&lt;br&gt;double zinc ribbon domain-containing protein&lt;br&gt;Location: 378023 - 378550" locus_tag="VFPPC_14738" class="clusterblast-orf" id="dummy-2_h2_1_7"  />
</g>
<g id="a2_008"  >
<polygon points="48,85 49,80 49,90 48,85 " style="fill:white; stroke-width:1; stroke:black; " description="&lt;b&gt;VFPPC_10250&lt;/b&gt;&lt;br&gt;cysteine-rich secretory protein family domain-containing protein&lt;br&gt;Location: 379882 - 380550" locus_tag="VFPPC_10250" class="clusterblast-orf" id="dummy-2_h2_1_8"  />
</g>
<g id="a2_009"  >
<polygon points="54,90 56,85 54,80 54,90 " style="fill:white; stroke-width:1; stroke:black; " description="&lt;b&gt;VFPPC_10249&lt;/b&gt;&lt;br&gt;glycosyl hydrolases family 43 domain-containing protein&lt;br&gt;Location: 382596 - 383495" locus_tag="VFPPC_10249" class="clusterblast-orf" id="dummy-2_h2_1_9"  />
</g>
<g id="a2_0010"  >
<polygon points="57,85 59,80 59,90 57,85 " style="fill:white; stroke-width:1; stroke:black; " description="&lt;b&gt;VFPPC_10248&lt;/b&gt;&lt;br&gt;short chain oxidoreductase/dehydrogenase&lt;br&gt;Location: 383645 - 384571" locus_tag="VFPPC_10248" class="clusterblast-orf" id="dummy-2_h2_1_10"  />
</g>
<g id="a2_0011"  >
<polygon points="67,85 70,80 70,90 67,85 " style="fill:white; stroke-width:1; stroke:black; " description="&lt;b&gt;VFPPC_16897&lt;/b&gt;&lt;br&gt;hypothetical protein&lt;br&gt;Location: 387990 - 389233" locus_tag="VFPPC_16897" class="clusterblast-orf" id="dummy-2_h2_1_11"  />
</g>
<g id="a2_0012"  >
<polygon points="73,90 76,85 73,80 73,90 " style="fill:white; stroke-width:1; stroke:black; " description="&lt;b&gt;VFPPC_10245&lt;/b&gt;&lt;br&gt;F-box domain and ankyrin repeat protein&lt;br&gt;Location: 390230 - 391849" locus_tag="VFPPC_10245" class="clusterblast-orf" id="dummy-2_h2_1_12"  />
</g>
<g id="a2_0013"  >
<polygon points="82,90 85,85 82,80 82,90 " style="fill:white; stroke-width:1; stroke:black; " description="&lt;b&gt;VFPPC_10243&lt;/b&gt;&lt;br&gt;hypothetical protein&lt;br&gt;Location: 394417 - 395547" locus_tag="VFPPC_10243" class="clusterblast-orf" id="dummy-2_h2_1_13"  />
</g>
<g id="a2_0014"  >
<polygon points="86,85 88,80 88,90 86,85 " style="fill:#1577d8; stroke-width:1; stroke:black; " description="&lt;b&gt;VFPPC_10242&lt;/b&gt;&lt;br&gt;microsomal signal peptidase&lt;br&gt;Location: 396082 - 396755&lt;br&gt;&lt;br&gt;&lt;b&gt;BlastP hit with input.path1.gene517&lt;/b&gt;&lt;br&gt;Percentage identity: 90&lt;br&gt;Percentage coverage: 100&lt;br&gt;BLAST bit score: 138&lt;br&gt;E-value: 1.25e-41" locus_tag="VFPPC_10242" class="clusterblast-orf" id="dummy-2_h2_1_14"  />
</g>
<g id="a2_0015"  >
<polygon points="89,90 90,85 89,80 89,90 " style="fill:white; stroke-width:1; stroke:black; " description="&lt;b&gt;VFPPC_10241&lt;/b&gt;&lt;br&gt;csbD-like domain-containing protein&lt;br&gt;Location: 397341 - 397708" locus_tag="VFPPC_10241" class="clusterblast-orf" id="dummy-2_h2_1_15"  />
</g>
<g id="a2_0016"  >
<polygon points="92,90 95,85 92,80 92,90 " style="fill:#d815d8; stroke-width:1; stroke:black; " description="&lt;b&gt;VFPPC_14737&lt;/b&gt;&lt;br&gt;hypothetical protein&lt;br&gt;Location: 398299 - 399582&lt;br&gt;&lt;br&gt;&lt;b&gt;BlastP hit with input.path1.gene518&lt;/b&gt;&lt;br&gt;Percentage identity: 66&lt;br&gt;Percentage coverage: 104&lt;br&gt;BLAST bit score: 395&lt;br&gt;E-value: 3.37e-137" locus_tag="VFPPC_14737" class="clusterblast-orf" id="dummy-2_h2_1_16"  />
</g>
<g id="a2_0017"  >
<polygon points="98,90 100,85 98,80 98,90 " style="fill:#d8d815; stroke-width:1; stroke:black; " description="&lt;b&gt;VFPPC_10240&lt;/b&gt;&lt;br&gt;BTB/POZ-like protein&lt;br&gt;Location: 401054 - 401908&lt;br&gt;&lt;br&gt;&lt;b&gt;BlastP hit with input.path1.gene519&lt;/b&gt;&lt;br&gt;Percentage identity: 88&lt;br&gt;Percentage coverage: 104&lt;br&gt;BLAST bit score: 496&lt;br&gt;E-value: 1.01e-177" locus_tag="VFPPC_10240" class="clusterblast-orf" id="dummy-2_h2_1_17"  />
</g>
<g id="a2_0018"  >
<polygon points="104,85 106,80 106,90 104,85 " style="fill:#15d877; stroke-width:1; stroke:black; " description="&lt;b&gt;VFPPC_10239&lt;/b&gt;&lt;br&gt;hypothetical protein&lt;br&gt;Location: 403402 - 404136&lt;br&gt;&lt;br&gt;&lt;b&gt;BlastP hit with input.path1.gene520&lt;/b&gt;&lt;br&gt;Percentage identity: 50&lt;br&gt;Percentage coverage: 78&lt;br&gt;BLAST bit score: 157&lt;br&gt;E-value: 1.46e-45" locus_tag="VFPPC_10239" class="clusterblast-orf" id="dummy-2_h2_1_18"  />
</g>
<g id="a2_0019"  >
<polygon points="108,85 110,80 110,90 108,85 " style="fill:white; stroke-width:1; stroke:black; " description="&lt;b&gt;VFPPC_10238&lt;/b&gt;&lt;br&gt;cell wall beta-glucan synthesis&lt;br&gt;Location: 405240 - 406086" locus_tag="VFPPC_10238" class="clusterblast-orf" id="dummy-2_h2_1_19"  />
</g>
<g id="a2_0020"  >
<polygon points="113,85 118,80 118,80 118,90 118,90 113,85 " style="fill:white; stroke-width:1; stroke:black; " description="&lt;b&gt;VFPPC_10237&lt;/b&gt;&lt;br&gt;amidase&lt;br&gt;Location: 407361 - 409151" locus_tag="VFPPC_10237" class="clusterblast-orf" id="dummy-2_h2_1_20"  />
</g>
<g id="a2_0021"  >
<polygon points="128,90 130,90 135,85 130,80 128,80 128,90 " style="fill:white; stroke-width:1; stroke:black; " description="&lt;b&gt;VFPPC_14736&lt;/b&gt;&lt;br&gt;kinesin family protein&lt;br&gt;Location: 413628 - 416295" locus_tag="VFPPC_14736" class="clusterblast-orf" id="dummy-2_h2_1_21"  />
</g>
<g id="a2_0022"  >
<polygon points="135,85 138,80 138,90 135,85 " style="fill:white; stroke-width:1; stroke:black; " description="&lt;b&gt;VFPPC_14735&lt;/b&gt;&lt;br&gt;hypothetical protein&lt;br&gt;Location: 416666 - 417868" locus_tag="VFPPC_14735" class="clusterblast-orf" id="dummy-2_h2_1_22"  />
</g>
<g id="a2_0023"  >
<polygon points="141,90 142,85 141,80 141,90 " style="fill:white; stroke-width:1; stroke:black; " description="&lt;b&gt;VFPPC_18269&lt;/b&gt;&lt;br&gt;hypothetical protein&lt;br&gt;Location: 419101 - 419403" locus_tag="VFPPC_18269" class="clusterblast-orf" id="dummy-2_h2_1_23"  />
</g>
<g id="a2_0024"  >
<polygon points="143,90 146,85 143,80 143,90 " style="fill:white; stroke-width:1; stroke:black; " description="&lt;b&gt;VFPPC_10232&lt;/b&gt;&lt;br&gt;farnesyl pyrophosphate synthetase 1&lt;br&gt;Location: 420019 - 421102" locus_tag="VFPPC_10232" class="clusterblast-orf" id="dummy-2_h2_1_24"  />
</g>
<g id="a2_0025"  >
<polygon points="150,85 151,80 151,90 150,85 " style="fill:white; stroke-width:1; stroke:black; " description="&lt;b&gt;VFPPC_10231&lt;/b&gt;&lt;br&gt;hypothetical protein&lt;br&gt;Location: 422648 - 423295" locus_tag="VFPPC_10231" class="clusterblast-orf" id="dummy-2_h2_1_25"  />
</g>
<g id="a2_0026"  >
<polygon points="155,90 156,85 155,80 155,90 " style="fill:white; stroke-width:1; stroke:black; " description="&lt;b&gt;VFPPC_10229&lt;/b&gt;&lt;br&gt;antibiotic biosynthesis monooxygenase domain-containing protein&lt;br&gt;Location: 424942 - 425360" locus_tag="VFPPC_10229" class="clusterblast-orf" id="dummy-2_h2_1_26"  />
</g>
<g id="a2_0027"  >
<polygon points="158,90 159,85 158,80 158,90 " style="fill:white; stroke-width:1; stroke:black; " description="&lt;b&gt;VFPPC_14734&lt;/b&gt;&lt;br&gt;hypothetical protein&lt;br&gt;Location: 425981 - 426371" locus_tag="VFPPC_14734" class="clusterblast-orf" id="dummy-2_h2_1_27"  />
</g>
<g id="a2_0028"  >
<polygon points="160,85 165,80 165,80 165,90 165,90 160,85 " style="fill:white; stroke-width:1; stroke:black; " description="&lt;b&gt;VFPPC_16896&lt;/b&gt;&lt;br&gt;hypothetical protein&lt;br&gt;Location: 427012 - 429060" locus_tag="VFPPC_16896" class="clusterblast-orf" id="dummy-2_h2_1_28"  />
</g>
<g id="a2_0029"  >
<polygon points="174,90 175,85 174,80 174,90 " style="fill:white; stroke-width:1; stroke:black; " description="&lt;b&gt;VFPPC_18270&lt;/b&gt;&lt;br&gt;hypothetical protein&lt;br&gt;Location: 432839 - 433505" locus_tag="VFPPC_18270" class="clusterblast-orf" id="dummy-2_h2_1_29"  />
</g>
<g id="a2_0030"  >
<polygon points="176,90 176,90 181,85 176,80 176,80 176,90 " style="fill:white; stroke-width:1; stroke:black; " description="&lt;b&gt;VFPPC_16895&lt;/b&gt;&lt;br&gt;cytochrome P450 alkane hydroxylase&lt;br&gt;Location: 433890 - 435865" locus_tag="VFPPC_16895" class="clusterblast-orf" id="dummy-2_h2_1_30"  />
</g>
<g id="a2_0031"  >
<polygon points="183,90 185,85 183,80 183,90 " style="fill:white; stroke-width:1; stroke:black; " description="&lt;b&gt;VFPPC_14733&lt;/b&gt;&lt;br&gt;F-box domain-containing protein&lt;br&gt;Location: 436623 - 437672" locus_tag="VFPPC_14733" class="clusterblast-orf" id="dummy-2_h2_1_31"  />
</g>
<g id="a2_0032"  >
<polygon points="186,85 188,80 188,90 186,85 " style="fill:white; stroke-width:1; stroke:black; " description="&lt;b&gt;VFPPC_10221&lt;/b&gt;&lt;br&gt;hypothetical protein&lt;br&gt;Location: 437776 - 438862" locus_tag="VFPPC_10221" class="clusterblast-orf" id="dummy-2_h2_1_32"  />
</g>
<g id="a2_0033"  >
<polygon points="196,90 200,85 196,80 196,90 " style="fill:white; stroke-width:1; stroke:black; " description="&lt;b&gt;VFPPC_10220&lt;/b&gt;&lt;br&gt;alcohol oxidase&lt;br&gt;Location: 442058 - 443939" locus_tag="VFPPC_10220" class="clusterblast-orf" id="dummy-2_h2_1_33"  />
</g>
<g id="a2_0034"  >
<polygon points="204,90 204,85 204,80 204,90 " style="fill:white; stroke-width:1; stroke:black; " description="&lt;b&gt;VFPPC_18271&lt;/b&gt;&lt;br&gt;hypothetical protein&lt;br&gt;Location: 445368 - 445607" locus_tag="VFPPC_18271" class="clusterblast-orf" id="dummy-2_h2_1_34"  />
</g>
<g id="a2_0035"  >
<polygon points="204,90 206,85 204,80 204,90 " style="fill:#d81515; stroke-width:1; stroke:black; " description="&lt;b&gt;VFPPC_10219&lt;/b&gt;&lt;br&gt;hypothetical protein&lt;br&gt;Location: 445668 - 446526&lt;br&gt;&lt;br&gt;&lt;b&gt;BlastP hit with input.path1.gene511&lt;/b&gt;&lt;br&gt;Percentage identity: 88&lt;br&gt;Percentage coverage: 100&lt;br&gt;BLAST bit score: 384&lt;br&gt;E-value: 2.96e-135" locus_tag="VFPPC_10219" class="clusterblast-orf" id="dummy-2_h2_1_35"  />
</g>
<g id="a2_0036"  >
<polygon points="210,90 213,85 210,80 210,90 " style="fill:#77d815; stroke-width:1; stroke:black; " description="&lt;b&gt;VFPPC_10217&lt;/b&gt;&lt;br&gt;phosphoglycerate kinase&lt;br&gt;Location: 447854 - 449437&lt;br&gt;&lt;br&gt;&lt;b&gt;BlastP hit with input.path1.gene512&lt;/b&gt;&lt;br&gt;Percentage identity: 93&lt;br&gt;Percentage coverage: 100&lt;br&gt;BLAST bit score: 766&lt;br&gt;E-value: 4.52e-280" locus_tag="VFPPC_10217" class="clusterblast-orf" id="dummy-2_h2_1_36"  />
</g>
<g id="a2_0037"  >
<polygon points="214,85 215,80 215,90 214,85 " style="fill:#15d8d8; stroke-width:1; stroke:black; " description="&lt;b&gt;VFPPC_16894&lt;/b&gt;&lt;br&gt;DSS1/SEM1 family domain-containing protein&lt;br&gt;Location: 449712 - 450140&lt;br&gt;&lt;br&gt;&lt;b&gt;BlastP hit with input.path1.gene513&lt;/b&gt;&lt;br&gt;Percentage identity: 75&lt;br&gt;Percentage coverage: 89&lt;br&gt;BLAST bit score: 54&lt;br&gt;E-value: 9.56e-10" locus_tag="VFPPC_16894" class="clusterblast-orf" id="dummy-2_h2_1_37"  />
</g>
<g id="a2_0038"  >
<polygon points="218,90 218,90 223,85 218,80 218,80 218,90 " style="fill:#7715d8; stroke-width:1; stroke:black; " description="&lt;b&gt;VFPPC_10216&lt;/b&gt;&lt;br&gt;mitochondrial outer membrane protein IML2&lt;br&gt;Location: 451427 - 453573&lt;br&gt;&lt;br&gt;&lt;b&gt;BlastP hit with input.path1.gene514&lt;/b&gt;&lt;br&gt;Percentage identity: 59&lt;br&gt;Percentage coverage: 71&lt;br&gt;BLAST bit score: 813&lt;br&gt;E-value: 1.62e-284" locus_tag="VFPPC_10216" class="clusterblast-orf" id="dummy-2_h2_1_38"  />
</g>
<g id="a2_0039"  >
<polygon points="224,85 226,80 226,90 224,85 " style="fill:white; stroke-width:1; stroke:black; " description="&lt;b&gt;VFPPC_10215&lt;/b&gt;&lt;br&gt;sterol desaturase family&lt;br&gt;Location: 453848 - 454834" locus_tag="VFPPC_10215" class="clusterblast-orf" id="dummy-2_h2_1_39"  />
</g>
<g id="a2_0040"  >
<polygon points="231,85 232,80 232,90 231,85 " style="fill:white; stroke-width:1; stroke:black; " description="&lt;b&gt;VFPPC_16893&lt;/b&gt;&lt;br&gt;hypothetical protein&lt;br&gt;Location: 457006 - 457194" locus_tag="VFPPC_16893" class="clusterblast-orf" id="dummy-2_h2_1_40"  />
</g>
<g id="a2_0041"  >
<polygon points="235,90 236,90 241,85 236,80 235,80 235,90 " style="fill:#d87715; stroke-width:1; stroke:black; " description="&lt;b&gt;VFPPC_10214&lt;/b&gt;&lt;br&gt;hydrolase, alpha/beta fold family protein&lt;br&gt;Location: 458330 - 461157&lt;br&gt;&lt;br&gt;&lt;b&gt;BlastP hit with input.path1.gene515&lt;/b&gt;&lt;br&gt;Percentage identity: 72&lt;br&gt;Percentage coverage: 104&lt;br&gt;BLAST bit score: 1192&lt;br&gt;E-value: 0.0" locus_tag="VFPPC_10214" class="clusterblast-orf" id="dummy-2_h2_1_41"  />
</g>
<g id="a2_0042"  >
<polygon points="246,90 248,85 246,80 246,90 " style="fill:white; stroke-width:1; stroke:black; " description="&lt;b&gt;VFPPC_10212&lt;/b&gt;&lt;br&gt;hypothetical protein&lt;br&gt;Location: 463223 - 463930" locus_tag="VFPPC_10212" class="clusterblast-orf" id="dummy-2_h2_1_42"  />
</g>
<g id="a2_0043"  >
<polygon points="249,85 253,80 253,90 249,85 " style="fill:white; stroke-width:1; stroke:black; " description="&lt;b&gt;VFPPC_10211&lt;/b&gt;&lt;br&gt;hypothetical protein&lt;br&gt;Location: 464260 - 465897" locus_tag="VFPPC_10211" class="clusterblast-orf" id="dummy-2_h2_1_43"  />
</g>
<g id="a2_0044"  >
<polygon points="254,85 259,80 259,80 259,90 259,90 254,85 " style="fill:#15d815; stroke-width:1; stroke:black; " description="&lt;b&gt;VFPPC_10210&lt;/b&gt;&lt;br&gt;cell cycle control protein&lt;br&gt;Location: 466566 - 468608&lt;br&gt;&lt;br&gt;&lt;b&gt;BlastP hit with input.path1.gene516&lt;/b&gt;&lt;br&gt;Percentage identity: 66&lt;br&gt;Percentage coverage: 40&lt;br&gt;BLAST bit score: 767&lt;br&gt;E-value: 2.8e-260" locus_tag="VFPPC_10210" class="clusterblast-orf" id="dummy-2_h2_1_44"  />
</g>
<g id="a2_0045"  >
<polygon points="262,85 265,80 265,90 262,85 " style="fill:white; stroke-width:1; stroke:black; " description="&lt;b&gt;VFPPC_10208&lt;/b&gt;&lt;br&gt;exonuclease III&lt;br&gt;Location: 469749 - 471308" locus_tag="VFPPC_10208" class="clusterblast-orf" id="dummy-2_h2_1_45"  />
</g>
<g id="a2_0046"  >
<polygon points="270,85 274,80 274,90 270,85 " style="fill:white; stroke-width:1; stroke:black; " description="&lt;b&gt;VFPPC_10206&lt;/b&gt;&lt;br&gt;glucose dehydrogenase&lt;br&gt;Location: 473382 - 475004" locus_tag="VFPPC_10206" class="clusterblast-orf" id="dummy-2_h2_1_46"  />
</g>
<g id="a2_0047"  >
<polygon points="276,90 278,85 276,80 276,90 " style="fill:white; stroke-width:1; stroke:black; " description="&lt;b&gt;VFPPC_14732&lt;/b&gt;&lt;br&gt;methyltransferase domain-containing protein&lt;br&gt;Location: 475805 - 476791" locus_tag="VFPPC_14732" class="clusterblast-orf" id="dummy-2_h2_1_47"  />
</g>
<g id="a2_0048"  >
<polygon points="281,90 283,85 281,80 281,90 " style="fill:white; stroke-width:1; stroke:black; " description="&lt;b&gt;VFPPC_16892&lt;/b&gt;&lt;br&gt;hypothetical protein&lt;br&gt;Location: 477823 - 478853" locus_tag="VFPPC_16892" class="clusterblast-orf" id="dummy-2_h2_1_48"  />
</g>
<g id="a2_0049"  >
<polygon points="284,85 286,80 286,90 284,85 " style="fill:white; stroke-width:1; stroke:black; " description="&lt;b&gt;VFPPC_10204&lt;/b&gt;&lt;br&gt;hypothetical protein&lt;br&gt;Location: 478942 - 479757" locus_tag="VFPPC_10204" class="clusterblast-orf" id="dummy-2_h2_1_49"  />
</g>
<g id="a2_0050"  >
<polygon points="288,90 289,85 288,80 288,90 " style="fill:white; stroke-width:1; stroke:black; " description="&lt;b&gt;VFPPC_14731&lt;/b&gt;&lt;br&gt;hypothetical protein&lt;br&gt;Location: 480762 - 481104" locus_tag="VFPPC_14731" class="clusterblast-orf" id="dummy-2_h2_1_50"  />
</g>
<g id="a2_0051"  >
<polygon points="292,90 295,90 300,85 295,80 292,80 292,90 " style="fill:white; stroke-width:1; stroke:black; " description="&lt;b&gt;VFPPC_16891&lt;/b&gt;&lt;br&gt;FAD binding domain-containing protein&lt;br&gt;Location: 482314 - 485668" locus_tag="VFPPC_16891" class="clusterblast-orf" id="dummy-2_h2_1_51"  />
</g>
<g id="a2_0052"  >
<polygon points="303,85 305,80 305,90 303,85 " style="fill:white; stroke-width:1; stroke:black; " description="&lt;b&gt;VFPPC_10201&lt;/b&gt;&lt;br&gt;acetyl transferase&lt;br&gt;Location: 487009 - 488007" locus_tag="VFPPC_10201" class="clusterblast-orf" id="dummy-2_h2_1_52"  />
</g>
<g id="a2_0053"  >
<polygon points="309,90 310,90 315,85 310,80 309,80 309,90 " style="fill:white; stroke-width:1; stroke:black; " description="&lt;b&gt;VFPPC_10200&lt;/b&gt;&lt;br&gt;sulfatase domain-containing protein&lt;br&gt;Location: 489677 - 492253" locus_tag="VFPPC_10200" class="clusterblast-orf" id="dummy-2_h2_1_53"  />
</g>
<g id="a2_0054"  >
<polygon points="320,90 324,85 320,80 320,90 " style="fill:white; stroke-width:1; stroke:black; " description="&lt;b&gt;VFPPC_14730&lt;/b&gt;&lt;br&gt;triose-phosphate transporter&lt;br&gt;Location: 494181 - 495750" locus_tag="VFPPC_14730" class="clusterblast-orf" id="dummy-2_h2_1_54"  />
</g>
<g id="a2_0055"  >
<polygon points="324,85 328,80 328,90 324,85 " style="fill:white; stroke-width:1; stroke:black; " description="&lt;b&gt;VFPPC_10199&lt;/b&gt;&lt;br&gt;major facilitator superfamily domain-containing protein 5 protein&lt;br&gt;Location: 496114 - 497651" locus_tag="VFPPC_10199" class="clusterblast-orf" id="dummy-2_h2_1_55"  />
</g>
<g id="a2_0056"  >
<polygon points="330,90 332,85 330,80 330,90 " style="fill:white; stroke-width:1; stroke:black; " description="&lt;b&gt;VFPPC_10198&lt;/b&gt;&lt;br&gt;FkbM family methyltransferase&lt;br&gt;Location: 498414 - 499240" locus_tag="VFPPC_10198" class="clusterblast-orf" id="dummy-2_h2_1_56"  />
</g>
<g id="a2_0057"  >
<polygon points="334,90 338,85 334,80 334,90 " style="fill:white; stroke-width:1; stroke:black; " description="&lt;b&gt;VFPPC_10197&lt;/b&gt;&lt;br&gt;glycosyltransferase family 31 protein&lt;br&gt;Location: 500205 - 501816" locus_tag="VFPPC_10197" class="clusterblast-orf" id="dummy-2_h2_1_57"  />
</g>
<g id="a2_0058"  >
<polygon points="341,90 344,85 341,80 341,90 " style="fill:white; stroke-width:1; stroke:black; " description="&lt;b&gt;VFPPC_10196&lt;/b&gt;&lt;br&gt;galactosyl transferase GMA12/MNN10 family protein&lt;br&gt;Location: 503103 - 504167" locus_tag="VFPPC_10196" class="clusterblast-orf" id="dummy-2_h2_1_58"  />
</g>
<g id="a2_0059"  >
<polygon points="346,90 348,85 346,80 346,90 " style="fill:white; stroke-width:1; stroke:black; " description="&lt;b&gt;VFPPC_10195&lt;/b&gt;&lt;br&gt;LPS glycosyltransferase&lt;br&gt;Location: 505071 - 506117" locus_tag="VFPPC_10195" class="clusterblast-orf" id="dummy-2_h2_1_59"  />
</g>
<g id="a2_0060"  >
<polygon points="351,90 351,90 356,85 351,80 351,80 351,90 " style="fill:white; stroke-width:1; stroke:black; " description="&lt;b&gt;VFPPC_10194&lt;/b&gt;&lt;br&gt;sugar transporter&lt;br&gt;Location: 507355 - 509321" locus_tag="VFPPC_10194" class="clusterblast-orf" id="dummy-2_h2_1_60"  />
</g>
<g id="a2_0061"  >
<polygon points="356,85 361,80 361,80 361,90 361,90 356,85 " style="fill:white; stroke-width:1; stroke:black; " description="&lt;b&gt;VFPPC_10193&lt;/b&gt;&lt;br&gt;non-hemolytic phospholipase C precursor&lt;br&gt;Location: 509524 - 511529" locus_tag="VFPPC_10193" class="clusterblast-orf" id="dummy-2_h2_1_61"  />
</g>
<g id="a2_0062"  >
<polygon points="365,90 367,85 365,80 365,90 " style="fill:white; stroke-width:1; stroke:black; " description="&lt;b&gt;VFPPC_10192&lt;/b&gt;&lt;br&gt;threonyl/alanyl tRNA synthetase&lt;br&gt;Location: 513297 - 514163" locus_tag="VFPPC_10192" class="clusterblast-orf" id="dummy-2_h2_1_62"  />
</g>
<g id="a2_0063"  >
<polygon points="368,85 371,80 371,90 368,85 " style="fill:white; stroke-width:1; stroke:black; " description="&lt;b&gt;VFPPC_10191&lt;/b&gt;&lt;br&gt;serum paraoxonase/arylesterase family protein&lt;br&gt;Location: 514326 - 515738" locus_tag="VFPPC_10191" class="clusterblast-orf" id="dummy-2_h2_1_63"  />
</g>
<g id="a2_0064"  >
<polygon points="378,90 381,85 378,80 378,90 " style="fill:white; stroke-width:1; stroke:black; " description="&lt;b&gt;VFPPC_10190&lt;/b&gt;&lt;br&gt;hypothetical protein&lt;br&gt;Location: 518819 - 519971" locus_tag="VFPPC_10190" class="clusterblast-orf" id="dummy-2_h2_1_64"  />
</g>
<g id="a2_0065"  >
<polygon points="384,85 389,80 389,80 389,90 389,90 384,85 " style="fill:white; stroke-width:1; stroke:black; " description="&lt;b&gt;VFPPC_10189&lt;/b&gt;&lt;br&gt;glycoside hydrolase family 79&lt;br&gt;Location: 521285 - 523179" locus_tag="VFPPC_10189" class="clusterblast-orf" id="dummy-2_h2_1_65"  />
</g>
<g id="a2_0066"  >
<polygon points="393,90 395,90 400,85 395,80 393,80 393,90 " style="fill:white; stroke-width:1; stroke:black; " description="&lt;b&gt;VFPPC_10188&lt;/b&gt;&lt;br&gt;60S ribosomal protein L19&lt;br&gt;Location: 524875 - 527907" locus_tag="VFPPC_10188" class="clusterblast-orf" id="dummy-2_h2_1_66"  />
</g>
<g id="a2_0067"  >
<polygon points="400,85 403,80 403,90 400,85 " style="fill:white; stroke-width:1; stroke:black; " description="&lt;b&gt;VFPPC_16890&lt;/b&gt;&lt;br&gt;globin-like-protein&lt;br&gt;Location: 528054 - 529052" locus_tag="VFPPC_16890" class="clusterblast-orf" id="dummy-2_h2_1_67"  />
</g>
<g id="a2_0068"  >
<polygon points="408,90 412,85 408,80 408,90 " style="fill:white; stroke-width:1; stroke:black; " description="&lt;b&gt;VFPPC_10186&lt;/b&gt;&lt;br&gt;lipase 1 precursor&lt;br&gt;Location: 531215 - 532693" locus_tag="VFPPC_10186" class="clusterblast-orf" id="dummy-2_h2_1_68"  />
</g>
<g id="a2_0069"  >
<polygon points="416,90 419,85 416,80 416,90 " style="fill:white; stroke-width:1; stroke:black; " description="&lt;b&gt;VFPPC_14729&lt;/b&gt;&lt;br&gt;hypothetical protein&lt;br&gt;Location: 534375 - 535649" locus_tag="VFPPC_14729" class="clusterblast-orf" id="dummy-2_h2_1_69"  />
</g>
<g id="a2_0070"  >
<polygon points="421,90 422,85 421,80 421,90 " style="fill:white; stroke-width:1; stroke:black; " description="&lt;b&gt;VFPPC_14728&lt;/b&gt;&lt;br&gt;alginate lyase&lt;br&gt;Location: 536560 - 537288" locus_tag="VFPPC_14728" class="clusterblast-orf" id="dummy-2_h2_1_70"  />
</g>
<g id="a2_0071"  >
<polygon points="423,85 425,80 425,90 423,85 " style="fill:white; stroke-width:1; stroke:black; " description="&lt;b&gt;VFPPC_10185&lt;/b&gt;&lt;br&gt;aldolase citrate lyase family protein&lt;br&gt;Location: 537492 - 538481" locus_tag="VFPPC_10185" class="clusterblast-orf" id="dummy-2_h2_1_71"  />
</g>
<g id="a2_0072"  >
<polygon points="427,90 431,85 427,80 427,90 " style="fill:white; stroke-width:1; stroke:black; " description="&lt;b&gt;VFPPC_10184&lt;/b&gt;&lt;br&gt;major facilitator superfamily transporter&lt;br&gt;Location: 539043 - 540765" locus_tag="VFPPC_10184" class="clusterblast-orf" id="dummy-2_h2_1_72"  />
</g>
<g id="a2_0073"  >
<polygon points="437,90 440,85 437,80 437,90 " style="fill:white; stroke-width:1; stroke:black; " description="&lt;b&gt;VFPPC_10182&lt;/b&gt;&lt;br&gt;ketoreductase&lt;br&gt;Location: 543423 - 544492" locus_tag="VFPPC_10182" class="clusterblast-orf" id="dummy-2_h2_1_73"  />
</g>
<g id="a2_0074"  >
<polygon points="440,85 445,80 445,80 445,90 445,90 440,85 " style="fill:white; stroke-width:1; stroke:black; " description="&lt;b&gt;VFPPC_10181&lt;/b&gt;&lt;br&gt;fungal specific transcription factor domain-containing protein&lt;br&gt;Location: 544669 - 546765" locus_tag="VFPPC_10181" class="clusterblast-orf" id="dummy-2_h2_1_74"  />
</g>
<g id="a2_0075"  >
<polygon points="456,90 458,85 456,80 456,90 " style="fill:white; stroke-width:1; stroke:black; " description="&lt;b&gt;VFPPC_10179&lt;/b&gt;&lt;br&gt;endonuclease/exonuclease/phosphatase family protein&lt;br&gt;Location: 551336 - 552374" locus_tag="VFPPC_10179" class="clusterblast-orf" id="dummy-2_h2_1_75"  />
</g>
<g id="a2_0076"  >
<polygon points="459,85 461,80 461,90 459,85 " style="fill:white; stroke-width:1; stroke:black; " description="&lt;b&gt;VFPPC_10178&lt;/b&gt;&lt;br&gt;NAD dependent epimerase/dehydratase family protein&lt;br&gt;Location: 552520 - 553611" locus_tag="VFPPC_10178" class="clusterblast-orf" id="dummy-2_h2_1_76"  />
</g>
<g id="a2_0077"  >
<polygon points="464,90 466,85 464,80 464,90 " style="fill:white; stroke-width:1; stroke:black; " description="&lt;b&gt;VFPPC_10177&lt;/b&gt;&lt;br&gt;C6 transcription factor&lt;br&gt;Location: 554879 - 555628" locus_tag="VFPPC_10177" class="clusterblast-orf" id="dummy-2_h2_1_77"  />
</g>
<g id="a2_0078"  >
<polygon points="469,90 473,85 469,80 469,90 " style="fill:white; stroke-width:1; stroke:black; " description="&lt;b&gt;VFPPC_16889&lt;/b&gt;&lt;br&gt;transcription factor Cys6&lt;br&gt;Location: 556780 - 558370" locus_tag="VFPPC_16889" class="clusterblast-orf" id="dummy-2_h2_1_78"  />
</g>
<g id="a2_0079"  >
<polygon points="476,90 480,85 476,80 476,90 " style="fill:white; stroke-width:1; stroke:black; " description="&lt;b&gt;VFPPC_10176&lt;/b&gt;&lt;br&gt;MFS transporter&lt;br&gt;Location: 559731 - 561509" locus_tag="VFPPC_10176" class="clusterblast-orf" id="dummy-2_h2_1_79"  />
</g>
<g id="a2_0080"  >
<polygon points="482,85 485,80 485,90 482,85 " style="fill:white; stroke-width:1; stroke:black; " description="&lt;b&gt;VFPPC_14727&lt;/b&gt;&lt;br&gt;hypothetical protein&lt;br&gt;Location: 562340 - 563421" locus_tag="VFPPC_14727" class="clusterblast-orf" id="dummy-2_h2_1_80"  />
</g>
<g id="a2_0081"  >
<polygon points="489,90 497,90 502,85 497,80 489,80 489,90 " style="fill:white; stroke-width:1; stroke:black; " description="&lt;b&gt;VFPPC_10175&lt;/b&gt;&lt;br&gt;ABC multidrug transporter&lt;br&gt;Location: 565332 - 570521" locus_tag="VFPPC_10175" class="clusterblast-orf" id="dummy-2_h2_1_81"  />
</g>
<g id="a2_0082"  >
<polygon points="503,90 507,85 503,80 503,90 " style="fill:white; stroke-width:1; stroke:black; " description="&lt;b&gt;VFPPC_10173&lt;/b&gt;&lt;br&gt;hypothetical protein&lt;br&gt;Location: 571186 - 572658" locus_tag="VFPPC_10173" class="clusterblast-orf" id="dummy-2_h2_1_82"  />
</g>
<g id="a2_0083"  >
<polygon points="507,85 512,80 513,80 513,90 512,90 507,85 " style="fill:#15d815; stroke-width:1; stroke:black; " description="&lt;b&gt;VFPPC_10172&lt;/b&gt;&lt;br&gt;dipeptidyl-peptidase IV&lt;br&gt;Location: 572872 - 575199&lt;br&gt;&lt;br&gt;&lt;b&gt;BlastP hit with input.path1.gene516&lt;/b&gt;&lt;br&gt;Percentage identity: 73&lt;br&gt;Percentage coverage: 49&lt;br&gt;BLAST bit score: 1177&lt;br&gt;E-value: 0.0" locus_tag="VFPPC_10172" class="clusterblast-orf" id="dummy-2_h2_1_83"  />
</g>
<g id="a2_0084"  >
<polygon points="517,85 518,80 518,90 517,85 " style="fill:white; stroke-width:1; stroke:black; " description="&lt;b&gt;VFPPC_16888&lt;/b&gt;&lt;br&gt;hypothetical protein&lt;br&gt;Location: 577185 - 577460" locus_tag="VFPPC_16888" class="clusterblast-orf" id="dummy-2_h2_1_84"  />
</g>
<g id="a2_0085"  >
<polygon points="519,90 523,85 519,80 519,90 " style="fill:white; stroke-width:1; stroke:black; " description="&lt;b&gt;VFPPC_10170&lt;/b&gt;&lt;br&gt;transmembrane protein&lt;br&gt;Location: 578047 - 579368" locus_tag="VFPPC_10170" class="clusterblast-orf" id="dummy-2_h2_1_85"  />
</g>
<g id="a2_0086"  >
<polygon points="524,90 526,85 524,80 524,90 " style="fill:white; stroke-width:1; stroke:black; " description="&lt;b&gt;VFPPC_10169&lt;/b&gt;&lt;br&gt;nitrilase/cyanide hydratase and apolipoprotein N-acyltransferase&lt;br&gt;Location: 579997 - 580941" locus_tag="VFPPC_10169" class="clusterblast-orf" id="dummy-2_h2_1_86"  />
</g>
<g id="a2_0087"  >
<polygon points="528,90 530,85 528,80 528,90 " style="fill:white; stroke-width:1; stroke:black; " description="&lt;b&gt;VFPPC_14726&lt;/b&gt;&lt;br&gt;hypothetical protein&lt;br&gt;Location: 581729 - 582518" locus_tag="VFPPC_14726" class="clusterblast-orf" id="dummy-2_h2_1_87"  />
</g>
<g id="a2_0088"  >
<polygon points="536,90 537,90 542,85 537,80 536,80 536,90 " style="fill:white; stroke-width:1; stroke:black; " description="&lt;b&gt;VFPPC_10168&lt;/b&gt;&lt;br&gt;ADAM 8 precursor&lt;br&gt;Location: 585116 - 587553" locus_tag="VFPPC_10168" class="clusterblast-orf" id="dummy-2_h2_1_88"  />
</g>
<g id="a2_0089"  >
<polygon points="544,90 547,85 544,80 544,90 " style="fill:white; stroke-width:1; stroke:black; " description="&lt;b&gt;VFPPC_10167&lt;/b&gt;&lt;br&gt;AT DNA binding protein&lt;br&gt;Location: 588293 - 589767" locus_tag="VFPPC_10167" class="clusterblast-orf" id="dummy-2_h2_1_89"  />
</g>
<g id="a2_0090"  >
<polygon points="555,90 556,90 561,85 556,80 555,80 555,90 " style="fill:white; stroke-width:1; stroke:black; " description="&lt;b&gt;VFPPC_10166&lt;/b&gt;&lt;br&gt;uracil permease&lt;br&gt;Location: 593018 - 595349" locus_tag="VFPPC_10166" class="clusterblast-orf" id="dummy-2_h2_1_90"  />
</g>
<g id="a2_0091"  >
<polygon points="573,90 575,85 573,80 573,90 " style="fill:white; stroke-width:1; stroke:black; " description="&lt;b&gt;VFPPC_10163&lt;/b&gt;&lt;br&gt;methyl transferase-like protein&lt;br&gt;Location: 600531 - 601299" locus_tag="VFPPC_10163" class="clusterblast-orf" id="dummy-2_h2_1_91"  />
</g>
<g id="a2_0092"  >
<polygon points="576,85 578,80 578,90 576,85 " style="fill:white; stroke-width:1; stroke:black; " description="&lt;b&gt;VFPPC_10162&lt;/b&gt;&lt;br&gt;epoxide hydrolase&lt;br&gt;Location: 601623 - 602660" locus_tag="VFPPC_10162" class="clusterblast-orf" id="dummy-2_h2_1_92"  />
</g>
<g id="a2_0093"  >
<polygon points="588,85 592,80 592,90 588,85 " style="fill:white; stroke-width:1; stroke:black; " description="&lt;b&gt;VFPPC_10159&lt;/b&gt;&lt;br&gt;feruloyl esterase&lt;br&gt;Location: 606818 - 608407" locus_tag="VFPPC_10159" class="clusterblast-orf" id="dummy-2_h2_1_93"  />
</g>
<g id="a2_0094"  >
<polygon points="595,90 597,85 595,80 595,90 " style="fill:white; stroke-width:1; stroke:black; " description="&lt;b&gt;VFPPC_10158&lt;/b&gt;&lt;br&gt;cerato-platanin&lt;br&gt;Location: 609753 - 610562" locus_tag="VFPPC_10158" class="clusterblast-orf" id="dummy-2_h2_1_94"  />
</g>
<g id="a2_0095"  >
<polygon points="609,90 612,85 609,80 609,90 " style="fill:white; stroke-width:1; stroke:black; " description="&lt;b&gt;VFPPC_10157&lt;/b&gt;&lt;br&gt;aryl-alcohol dehydrogenase protein&lt;br&gt;Location: 615701 - 616738" locus_tag="VFPPC_10157" class="clusterblast-orf" id="dummy-2_h2_1_95"  />
</g>
<g id="a2_0096"  >
<polygon points="613,85 617,80 617,90 613,85 " style="fill:white; stroke-width:1; stroke:black; " description="&lt;b&gt;VFPPC_10155&lt;/b&gt;&lt;br&gt;sugar transporter&lt;br&gt;Location: 617318 - 619143" locus_tag="VFPPC_10155" class="clusterblast-orf" id="dummy-2_h2_1_96"  />
</g>
<g id="a2_0097"  >
<polygon points="618,90 622,85 618,80 618,90 " style="fill:white; stroke-width:1; stroke:black; " description="&lt;b&gt;VFPPC_10154&lt;/b&gt;&lt;br&gt;L-galactonate dehydratase&lt;br&gt;Location: 619660 - 621238" locus_tag="VFPPC_10154" class="clusterblast-orf" id="dummy-2_h2_1_97"  />
</g>
<g id="a2_0098"  >
<polygon points="630,85 630,80 630,90 630,85 " style="fill:white; stroke-width:1; stroke:black; " description="&lt;b&gt;VFPPC_16887&lt;/b&gt;&lt;br&gt;hypothetical protein&lt;br&gt;Location: 624418 - 624627" locus_tag="VFPPC_16887" class="clusterblast-orf" id="dummy-2_h2_1_98"  />
</g>
<g id="a2_0099"  >
<polygon points="633,85 638,80 638,80 638,90 638,90 633,85 " style="fill:white; stroke-width:1; stroke:black; " description="&lt;b&gt;VFPPC_10152&lt;/b&gt;&lt;br&gt;hypothetical protein&lt;br&gt;Location: 625967 - 627827" locus_tag="VFPPC_10152" class="clusterblast-orf" id="dummy-2_h2_1_99"  />
</g>
<g id="a2_00100"  >
<polygon points="644,85 645,80 645,90 644,85 " style="fill:white; stroke-width:1; stroke:black; " description="&lt;b&gt;VFPPC_14725&lt;/b&gt;&lt;br&gt;hypothetical protein&lt;br&gt;Location: 630348 - 630725" locus_tag="VFPPC_14725" class="clusterblast-orf" id="dummy-2_h2_1_100"  />
</g>
<g id="a2_00101"  >
<polygon points="654,85 655,80 655,90 654,85 " style="fill:white; stroke-width:1; stroke:black; " description="&lt;b&gt;VFPPC_10150&lt;/b&gt;&lt;br&gt;vacuolar sorting protein&lt;br&gt;Location: 634453 - 635197" locus_tag="VFPPC_10150" class="clusterblast-orf" id="dummy-2_h2_1_101"  />
</g>
<g id="a2_00102"  >
<polygon points="658,90 660,85 658,80 658,90 " style="fill:white; stroke-width:1; stroke:black; " description="&lt;b&gt;VFPPC_10148&lt;/b&gt;&lt;br&gt;histidine phosphatase superfamily (branch 1) domain-containing protein&lt;br&gt;Location: 636417 - 637247" locus_tag="VFPPC_10148" class="clusterblast-orf" id="dummy-2_h2_1_102"  />
</g>
<g id="a2_00103"  >
<polygon points="666,90 667,85 666,80 666,90 " style="fill:white; stroke-width:1; stroke:black; " description="&lt;b&gt;VFPPC_10147&lt;/b&gt;&lt;br&gt;ankyrin repeat domain-containing protein&lt;br&gt;Location: 639568 - 640044" locus_tag="VFPPC_10147" class="clusterblast-orf" id="dummy-2_h2_1_103"  />
</g>
<g id="a2_00104"  >
<polygon points="668,90 670,85 668,80 668,90 " style="fill:white; stroke-width:1; stroke:black; " description="&lt;b&gt;VFPPC_16886&lt;/b&gt;&lt;br&gt;hypothetical protein&lt;br&gt;Location: 640366 - 641162" locus_tag="VFPPC_16886" class="clusterblast-orf" id="dummy-2_h2_1_104"  />
</g>
<g id="a2_00105"  >
<polygon points="672,85 672,80 672,90 672,85 " style="fill:white; stroke-width:1; stroke:black; " description="&lt;b&gt;VFPPC_14724&lt;/b&gt;&lt;br&gt;hypothetical protein&lt;br&gt;Location: 642056 - 642315" locus_tag="VFPPC_14724" class="clusterblast-orf" id="dummy-2_h2_1_105"  />
</g>
<g id="a2_00106"  >
<polygon points="674,90 676,85 674,80 674,90 " style="fill:white; stroke-width:1; stroke:black; " description="&lt;b&gt;VFPPC_14723&lt;/b&gt;&lt;br&gt;hypothetical protein&lt;br&gt;Location: 642792 - 643746" locus_tag="VFPPC_14723" class="clusterblast-orf" id="dummy-2_h2_1_106"  />
</g>
<g id="a2_00107"  >
<polygon points="677,90 683,90 688,85 683,80 677,80 677,90 " style="fill:white; stroke-width:1; stroke:black; " description="&lt;b&gt;VFPPC_10146&lt;/b&gt;&lt;br&gt;ABC bile acid transporter&lt;br&gt;Location: 644374 - 648784" locus_tag="VFPPC_10146" class="clusterblast-orf" id="dummy-2_h2_1_107"  />
</g>
<g id="a2_00108"  >
<polygon points="711,85 714,80 714,90 711,85 " style="fill:white; stroke-width:1; stroke:black; " description="&lt;b&gt;VFPPC_10145&lt;/b&gt;&lt;br&gt;endoribonuclease l-PSP domain-containing protein&lt;br&gt;Location: 658378 - 659666" locus_tag="VFPPC_10145" class="clusterblast-orf" id="dummy-2_h2_1_108"  />
</g>
<g id="a2_00109"  >
<polygon points="715,90 717,85 715,80 715,90 " style="fill:white; stroke-width:1; stroke:black; " description="&lt;b&gt;VFPPC_10144&lt;/b&gt;&lt;br&gt;gluconate 5-dehydrogenase&lt;br&gt;Location: 660405 - 661172" locus_tag="VFPPC_10144" class="clusterblast-orf" id="dummy-2_h2_1_109"  />
</g>
<g id="a2_00110"  >
<polygon points="718,85 722,80 722,90 718,85 " style="fill:white; stroke-width:1; stroke:black; " description="&lt;b&gt;VFPPC_10143&lt;/b&gt;&lt;br&gt;amino acid transporter&lt;br&gt;Location: 661617 - 663261" locus_tag="VFPPC_10143" class="clusterblast-orf" id="dummy-2_h2_1_110"  />
</g>
<g id="a2_00111"  >
<polygon points="724,90 726,85 724,80 724,90 " style="fill:white; stroke-width:1; stroke:black; " description="&lt;b&gt;VFPPC_10142&lt;/b&gt;&lt;br&gt;phytanoyl- dioxygenase protein&lt;br&gt;Location: 663924 - 664796" locus_tag="VFPPC_10142" class="clusterblast-orf" id="dummy-2_h2_1_111"  />
</g>
<g id="a2_00112"  >
<polygon points="727,90 728,90 733,85 728,80 727,80 727,90 " style="fill:white; stroke-width:1; stroke:black; " description="&lt;b&gt;VFPPC_10141&lt;/b&gt;&lt;br&gt;copper amine oxidase&lt;br&gt;Location: 665444 - 667768" locus_tag="VFPPC_10141" class="clusterblast-orf" id="dummy-2_h2_1_112"  />
</g>
<g id="a2_00113"  >
<polygon points="734,85 738,80 738,90 734,85 " style="fill:white; stroke-width:1; stroke:black; " description="&lt;b&gt;VFPPC_10140&lt;/b&gt;&lt;br&gt;fungal specific transcription factor domain-containing protein&lt;br&gt;Location: 668006 - 669882" locus_tag="VFPPC_10140" class="clusterblast-orf" id="dummy-2_h2_1_113"  />
</g>
<g id="a2_00114"  >
<polygon points="769,90 771,85 769,80 769,90 " style="fill:white; stroke-width:1; stroke:black; " description="&lt;b&gt;VFPPC_16885&lt;/b&gt;&lt;br&gt;fungal zn(2)-Cys(6) binuclear cluster domain-containing protein&lt;br&gt;Location: 682917 - 683665" locus_tag="VFPPC_16885" class="clusterblast-orf" id="dummy-2_h2_1_114"  />
</g>
<g id="a2_00115"  >
<polygon points="776,85 780,80 780,90 776,85 " style="fill:white; stroke-width:1; stroke:black; " description="&lt;b&gt;VFPPC_10137&lt;/b&gt;&lt;br&gt;malic acid transport protein&lt;br&gt;Location: 686008 - 687336" locus_tag="VFPPC_10137" class="clusterblast-orf" id="dummy-2_h2_1_115"  />
</g>
</svg>
