<svg xmlns="http://www.w3.org/2000/svg" xmlns:xlink="http://www.w3.org/1999/xlink" version="1.1" x="0" y="0" height="230" width="800" viewBox="0 0 800 230" preserveAspectRatio="none"  >
<g label="Query sequence" class="clusterblast-cluster"  >
<text x="5" y="20" class="clusterblast-acc"  >
Query sequence</text>
<line x1="10" y1="35" x2="778.0" y2="35" style="stroke-width:1; stroke:grey; "  />
<polygon points="121,40 172,40 177,35 172,30 121,30 121,40 " style="fill:white; stroke-width:1; stroke:black; " description="&lt;b&gt;input.path1.gene25&lt;/b&gt;&lt;br&gt;input.path1.gene25&lt;br&gt;Location: 183204 - 185217" locus_tag="input.path1.gene25" class="clusterblast-orf" id="dummy-1_q0_0_all"  />
<polygon points="208,35 213,30 216,30 216,40 213,40 208,35 " style="fill:white; stroke-width:1; stroke:black; " description="&lt;b&gt;input.path1.gene26&lt;/b&gt;&lt;br&gt;input.path1.gene26&lt;br&gt;Location: 186323 - 186621" locus_tag="input.path1.gene26" class="clusterblast-orf" id="dummy-1_q1_0_all"  />
<polygon points="335,40 341,40 346,35 341,30 335,30 335,40 " style="fill:white; stroke-width:1; stroke:black; " description="&lt;b&gt;input.path1.gene27&lt;/b&gt;&lt;br&gt;input.path1.gene27&lt;br&gt;Location: 190920 - 191324" locus_tag="input.path1.gene27" class="clusterblast-orf" id="dummy-1_q2_0_all"  />
<polygon points="375,40 421,40 426,35 421,30 375,30 375,40 " style="fill:#d81515; stroke-width:1; stroke:black; " description="&lt;b&gt;input.path1.gene28&lt;/b&gt;&lt;br&gt;input.path1.gene28&lt;br&gt;Location: 192364 - 194185" locus_tag="input.path1.gene28" class="clusterblast-orf" id="dummy-1_q3_0_all"  />
<polygon points="473,35 478,30 505,30 505,40 478,40 473,35 " style="fill:white; stroke-width:1; stroke:black; " description="&lt;b&gt;input.path1.gene29&lt;/b&gt;&lt;br&gt;input.path1.gene29&lt;br&gt;Location: 195903 - 197033" locus_tag="input.path1.gene29" class="clusterblast-orf" id="dummy-1_q4_0_all"  />
<polygon points="519,40 541,40 546,35 541,30 519,30 519,40 " style="fill:#15d8d8; stroke-width:1; stroke:black; " description="&lt;b&gt;input.path1.gene30&lt;/b&gt;&lt;br&gt;input.path1.gene30&lt;br&gt;Location: 197549 - 198532" locus_tag="input.path1.gene30" class="clusterblast-orf" id="dummy-1_q5_0_all"  />
<polygon points="604,35 609,30 658,30 658,40 609,40 604,35 " style="fill:white; stroke-width:1; stroke:black; " description="&lt;b&gt;input.path1.gene31&lt;/b&gt;&lt;br&gt;input.path1.gene31&lt;br&gt;Location: 200604 - 202573" locus_tag="input.path1.gene31" class="clusterblast-orf" id="dummy-1_q6_0_all"  />
</g>
<g label="NW_007361004" description="NW_007361004 (295273-327154): Glarea lozoyensis ATCC 20868 chromosome Unknown... (28% of genes show similarity), terpene" class="clusterblast-cluster"  >
<text x="5" y="70" class="clusterblast-acc"  >
<a xlink:href="https://antismash-db.secondarymetabolites.org/area?record=NW_007361004&amp;start=295273&amp;end=327154" target="_blank">NW_007361004 (295273-327154)</a>: Glarea lozoyensis ATCC 20868 chromosome Unknown... (28% of genes show similarity), terpene</text>
<line x1="10" y1="85" x2="778.0" y2="85" style="stroke-width:1; stroke:grey; "  />
</g>
<g id="a1_000"  >
<polygon points="0,90 86,90 91,85 86,80 0,80 0,90 " style="fill:white; stroke-width:1; stroke:black; " description="&lt;b&gt;GLAREA_08041&lt;/b&gt;&lt;br&gt;(Trans)glycosidase&lt;br&gt;Location: 295731 - 299039" locus_tag="GLAREA_08041" class="clusterblast-orf" id="dummy-1_h1_4_0"  />
</g>
<g id="a1_001"  >
<polygon points="212,85 217,80 241,80 241,90 217,90 212,85 " style="fill:#15d8d8; stroke-width:1; stroke:black; " description="&lt;b&gt;GLAREA_08042&lt;/b&gt;&lt;br&gt;Family A G protein-coupled receptor-like protein&lt;br&gt;Location: 303399 - 304447&lt;br&gt;&lt;br&gt;&lt;b&gt;BlastP hit with input.path1.gene30&lt;/b&gt;&lt;br&gt;Percentage identity: 63&lt;br&gt;Percentage coverage: 100&lt;br&gt;BLAST bit score: 375&lt;br&gt;E-value: 4.39e-129" locus_tag="GLAREA_08042" class="clusterblast-orf" id="dummy-1_h1_4_1"  />
</g>
<g id="a1_002"  >
<polygon points="326,85 331,80 380,80 380,90 331,90 326,85 " style="fill:white; stroke-width:1; stroke:black; " description="&lt;b&gt;GLAREA_08043&lt;/b&gt;&lt;br&gt;hypothetical protein&lt;br&gt;Location: 307493 - 309463" locus_tag="GLAREA_08043" class="clusterblast-orf" id="dummy-1_h1_4_2"  />
</g>
<g id="a1_003"  >
<polygon points="403,90 450,90 455,85 450,80 403,80 403,90 " style="fill:#d81515; stroke-width:1; stroke:black; " description="&lt;b&gt;GLAREA_08044&lt;/b&gt;&lt;br&gt;Terpenoid synthase&lt;br&gt;Location: 310274 - 312154&lt;br&gt;&lt;br&gt;&lt;b&gt;BlastP hit with input.path1.gene28&lt;/b&gt;&lt;br&gt;Percentage identity: 53&lt;br&gt;Percentage coverage: 105&lt;br&gt;BLAST bit score: 567&lt;br&gt;E-value: 2.48e-196" locus_tag="GLAREA_08044" class="clusterblast-orf" id="dummy-1_h1_4_3"  />
</g>
<g id="a1_004"  >
<polygon points="510,90 532,90 537,85 532,80 510,80 510,90 " style="fill:white; stroke-width:1; stroke:black; " description="&lt;b&gt;GLAREA_08045&lt;/b&gt;&lt;br&gt;Cysteine proteinase&lt;br&gt;Location: 314130 - 315101" locus_tag="GLAREA_08045" class="clusterblast-orf" id="dummy-1_h1_4_4"  />
</g>
<g id="a1_005"  >
<polygon points="601,90 647,90 652,85 647,80 601,80 601,90 " style="fill:white; stroke-width:1; stroke:black; " description="&lt;b&gt;GLAREA_08046&lt;/b&gt;&lt;br&gt;FAD/NAD(P)-binding protein&lt;br&gt;Location: 317431 - 319258" locus_tag="GLAREA_08046" class="clusterblast-orf" id="dummy-1_h1_4_5"  />
</g>
<g id="a1_006"  >
<polygon points="713,85 718,80 780,80 780,90 718,90 713,85 " style="fill:white; stroke-width:1; stroke:black; " description="&lt;b&gt;GLAREA_08047&lt;/b&gt;&lt;br&gt;P-loop containing nucleoside triphosphate hydrolase&lt;br&gt;Location: 321452 - 323857" locus_tag="GLAREA_08047" class="clusterblast-orf" id="dummy-1_h1_4_6"  />
</g>
</svg>
