<svg xmlns="http://www.w3.org/2000/svg" xmlns:xlink="http://www.w3.org/1999/xlink" version="1.1" x="0" y="0" height="230" width="800" viewBox="0 0 800 230" preserveAspectRatio="none"  >
<g label="Query sequence" class="clusterblast-cluster"  >
<text x="5" y="20" class="clusterblast-acc"  >
Query sequence</text>
<line x1="10" y1="35" x2="778.0" y2="35" style="stroke-width:1; stroke:grey; "  />
<polygon points="288,40 289,35 288,30 288,40 " style="fill:white; stroke-width:1; stroke:black; " description="&lt;b&gt;input.path1.gene5&lt;/b&gt;&lt;br&gt;input.path1.gene5&lt;br&gt;Location: 74504 - 74731" locus_tag="input.path1.gene5" class="clusterblast-orf" id="dummy-1_q0_0_all"  />
<polygon points="289,35 292,30 292,40 289,35 " style="fill:#d81515; stroke-width:1; stroke:black; " description="&lt;b&gt;input.path1.gene6&lt;/b&gt;&lt;br&gt;input.path1.gene6&lt;br&gt;Location: 74727 - 75249" locus_tag="input.path1.gene6" class="clusterblast-orf" id="dummy-1_q1_0_all"  />
<polygon points="293,40 293,40 298,35 293,30 293,30 293,40 " style="fill:white; stroke-width:1; stroke:black; " description="&lt;b&gt;input.path1.gene7&lt;/b&gt;&lt;br&gt;input.path1.gene7&lt;br&gt;Location: 75446 - 76277" locus_tag="input.path1.gene7" class="clusterblast-orf" id="dummy-1_q2_0_all"  />
<polygon points="324,40 324,40 329,35 324,30 324,30 324,40 " style="fill:white; stroke-width:1; stroke:black; " description="&lt;b&gt;input.path1.gene8&lt;/b&gt;&lt;br&gt;input.path1.gene8&lt;br&gt;Location: 80857 - 81872" locus_tag="input.path1.gene8" class="clusterblast-orf" id="dummy-1_q3_0_all"  />
<polygon points="330,35 335,30 378,30 378,40 335,40 330,35 " style="fill:#15d8d8; stroke-width:1; stroke:black; " description="&lt;b&gt;input.path1.gene9&lt;/b&gt;&lt;br&gt;input.path1.gene9&lt;br&gt;Location: 82002 - 90414" locus_tag="input.path1.gene9" class="clusterblast-orf" id="dummy-1_q4_0_all"  />
<polygon points="472,35 477,30 477,30 477,40 477,40 472,35 " style="fill:white; stroke-width:1; stroke:black; " description="&lt;b&gt;input.path1.gene10&lt;/b&gt;&lt;br&gt;input.path1.gene10&lt;br&gt;Location: 106937 - 107758" locus_tag="input.path1.gene10" class="clusterblast-orf" id="dummy-1_q5_0_all"  />
<polygon points="481,35 486,30 492,30 492,40 486,40 481,35 " style="fill:white; stroke-width:1; stroke:black; " description="&lt;b&gt;input.path1.gene11&lt;/b&gt;&lt;br&gt;input.path1.gene11&lt;br&gt;Location: 108403 - 110330" locus_tag="input.path1.gene11" class="clusterblast-orf" id="dummy-1_q6_0_all"  />
</g>
<g label="NZ_LJIW01000002" description="NZ_LJIW01000002 (1435568-1573992): Streptomyces malaysiensis strain F913 SMF9... (12% of genes show similarity), T1PKS" class="clusterblast-cluster"  >
<text x="5" y="70" class="clusterblast-acc"  >
<a xlink:href="https://antismash-db.secondarymetabolites.org/area?record=NZ_LJIW01000002&amp;start=1435568&amp;end=1573992" target="_blank">NZ_LJIW01000002 (1435568-1573992)</a>: Streptomyces malaysiensis strain F913 SMF9... (12% of genes show similarity), T1PKS</text>
<line x1="10" y1="85" x2="778.0" y2="85" style="stroke-width:1; stroke:grey; "  />
</g>
<g id="a1_000"  >
<polygon points="0,90 3,85 0,80 0,90 " style="fill:white; stroke-width:1; stroke:black; " description="&lt;b&gt;SMF913_RS31335&lt;/b&gt;&lt;br&gt;2Fe-2S iron-sulfur cluster-binding protein&lt;br&gt;Location: 1436057 - 1436614" locus_tag="SMF913_RS31335" class="clusterblast-orf" id="dummy-1_h1_8_0"  />
</g>
<g id="a1_001"  >
<polygon points="3,90 3,90 8,85 3,80 3,80 3,90 " style="fill:white; stroke-width:1; stroke:black; " description="&lt;b&gt;SMF913_RS31340&lt;/b&gt;&lt;br&gt;xanthine dehydrogenase family protein subunit M&lt;br&gt;Location: 1436611 - 1437603" locus_tag="SMF913_RS31340" class="clusterblast-orf" id="dummy-1_h1_8_1"  />
</g>
<g id="a1_002"  >
<polygon points="8,90 16,90 21,85 16,80 8,80 8,90 " style="fill:white; stroke-width:1; stroke:black; " description="&lt;b&gt;SMF913_RS31345&lt;/b&gt;&lt;br&gt;xanthine dehydrogenase family protein molybdopterin-binding subunit&lt;br&gt;Location: 1437600 - 1439750" locus_tag="SMF913_RS31345" class="clusterblast-orf" id="dummy-1_h1_8_2"  />
</g>
<g id="a1_003"  >
<polygon points="22,90 25,85 22,80 22,90 " style="fill:white; stroke-width:1; stroke:black; " description="&lt;b&gt;SMF913_RS31350&lt;/b&gt;&lt;br&gt;DUF892 family protein&lt;br&gt;Location: 1439998 - 1440531" locus_tag="SMF913_RS31350" class="clusterblast-orf" id="dummy-1_h1_8_3"  />
</g>
<g id="a1_004"  >
<polygon points="25,90 29,85 25,80 25,90 " style="fill:white; stroke-width:1; stroke:black; " description="&lt;b&gt;SMF913_RS31355&lt;/b&gt;&lt;br&gt;pentapeptide repeat-containing protein&lt;br&gt;Location: 1440552 - 1441259" locus_tag="SMF913_RS31355" class="clusterblast-orf" id="dummy-1_h1_8_4"  />
</g>
<g id="a1_005"  >
<polygon points="29,85 31,80 31,90 29,85 " style="fill:white; stroke-width:1; stroke:black; " description="&lt;b&gt;SMF913_RS31360&lt;/b&gt;&lt;br&gt;hypothetical protein&lt;br&gt;Location: 1441217 - 1441561" locus_tag="SMF913_RS31360" class="clusterblast-orf" id="dummy-1_h1_8_5"  />
</g>
<g id="a1_006"  >
<polygon points="32,90 32,90 37,85 32,80 32,80 32,90 " style="fill:white; stroke-width:1; stroke:black; " description="&lt;b&gt;SMF913_RS31365&lt;/b&gt;&lt;br&gt;AraC family transcriptional regulator&lt;br&gt;Location: 1441813 - 1442679" locus_tag="SMF913_RS31365" class="clusterblast-orf" id="dummy-1_h1_8_6"  />
</g>
<g id="a1_007"  >
<polygon points="37,85 42,80 46,80 46,90 42,90 37,85 " style="fill:white; stroke-width:1; stroke:black; " description="&lt;b&gt;SMF913_RS31370&lt;/b&gt;&lt;br&gt;APC family permease&lt;br&gt;Location: 1442722 - 1444158" locus_tag="SMF913_RS31370" class="clusterblast-orf" id="dummy-1_h1_8_7"  />
</g>
<g id="a1_008"  >
<polygon points="46,85 50,80 50,90 46,85 " style="fill:white; stroke-width:1; stroke:black; " description="&lt;b&gt;SMF913_RS31375&lt;/b&gt;&lt;br&gt;carbon-nitrogen hydrolase family protein&lt;br&gt;Location: 1444152 - 1444997" locus_tag="SMF913_RS31375" class="clusterblast-orf" id="dummy-1_h1_8_8"  />
</g>
<g id="a1_009"  >
<polygon points="51,90 51,90 56,85 51,80 51,80 51,90 " style="fill:white; stroke-width:1; stroke:black; " description="&lt;b&gt;SMF913_RS31380&lt;/b&gt;&lt;br&gt;FCD domain-containing protein&lt;br&gt;Location: 1445125 - 1445898" locus_tag="SMF913_RS31380" class="clusterblast-orf" id="dummy-1_h1_8_9"  />
</g>
<g id="a1_0010"  >
<polygon points="56,85 61,80 61,80 61,90 61,90 56,85 " style="fill:#d81515; stroke-width:1; stroke:black; " description="&lt;b&gt;SMF913_RS31385&lt;/b&gt;&lt;br&gt;oxidoreductase&lt;br&gt;Location: 1445932 - 1446828&lt;br&gt;&lt;br&gt;&lt;b&gt;BlastP hit with input.path1.gene6&lt;/b&gt;&lt;br&gt;Percentage identity: 35&lt;br&gt;Percentage coverage: 84&lt;br&gt;BLAST bit score: 71&lt;br&gt;E-value: 5.04e-13" locus_tag="SMF913_RS31385" class="clusterblast-orf" id="dummy-1_h1_8_10"  />
</g>
<g id="a1_0011"  >
<polygon points="61,90 65,85 61,80 61,90 " style="fill:white; stroke-width:1; stroke:black; " description="&lt;b&gt;SMF913_RS31390&lt;/b&gt;&lt;br&gt;TetR/AcrR family transcriptional regulator&lt;br&gt;Location: 1446891 - 1447484" locus_tag="SMF913_RS31390" class="clusterblast-orf" id="dummy-1_h1_8_11"  />
</g>
<g id="a1_0012"  >
<polygon points="66,90 69,90 74,85 69,80 66,80 66,90 " style="fill:white; stroke-width:1; stroke:black; " description="&lt;b&gt;SMF913_RS31395&lt;/b&gt;&lt;br&gt;YeeE/YedE family protein&lt;br&gt;Location: 1447790 - 1449070" locus_tag="SMF913_RS31395" class="clusterblast-orf" id="dummy-1_h1_8_12"  />
</g>
<g id="a1_0013"  >
<polygon points="74,90 78,90 83,85 78,80 74,80 74,90 " style="fill:white; stroke-width:1; stroke:black; " description="&lt;b&gt;SMF913_RS31400&lt;/b&gt;&lt;br&gt;DUF3616 domain-containing protein&lt;br&gt;Location: 1449203 - 1450630" locus_tag="SMF913_RS31400" class="clusterblast-orf" id="dummy-1_h1_8_13"  />
</g>
<g id="a1_0014"  >
<polygon points="83,85 86,80 86,90 83,85 " style="fill:white; stroke-width:1; stroke:black; " description="&lt;b&gt;SMF913_RS31405&lt;/b&gt;&lt;br&gt;hydrolase&lt;br&gt;Location: 1450653 - 1451321" locus_tag="SMF913_RS31405" class="clusterblast-orf" id="dummy-1_h1_8_14"  />
</g>
<g id="a1_0015"  >
<polygon points="89,90 91,85 89,80 89,90 " style="fill:white; stroke-width:1; stroke:black; " description="&lt;b&gt;SMF913_RS31410&lt;/b&gt;&lt;br&gt;RidA family protein&lt;br&gt;Location: 1451722 - 1452129" locus_tag="SMF913_RS31410" class="clusterblast-orf" id="dummy-1_h1_8_15"  />
</g>
<g id="a1_0016"  >
<polygon points="91,85 94,80 94,90 91,85 " style="fill:white; stroke-width:1; stroke:black; " description="&lt;b&gt;SMF913_RS31415&lt;/b&gt;&lt;br&gt;helix-turn-helix transcriptional regulator&lt;br&gt;Location: 1452191 - 1452571" locus_tag="SMF913_RS31415" class="clusterblast-orf" id="dummy-1_h1_8_16"  />
</g>
<g id="a1_0017"  >
<polygon points="94,85 95,80 95,90 94,85 " style="fill:white; stroke-width:1; stroke:black; " description="&lt;b&gt;SMF913_RS31420&lt;/b&gt;&lt;br&gt;alpha/beta hydrolase&lt;br&gt;Location: 1452649 - 1452861" locus_tag="SMF913_RS31420" class="clusterblast-orf" id="dummy-1_h1_8_17"  />
</g>
<g id="a1_0018"  >
<polygon points="96,85 101,80 102,80 102,90 101,90 96,85 " style="fill:white; stroke-width:1; stroke:black; " description="&lt;b&gt;SMF913_RS31425&lt;/b&gt;&lt;br&gt;ACP S-malonyltransferase&lt;br&gt;Location: 1452972 - 1453991" locus_tag="SMF913_RS31425" class="clusterblast-orf" id="dummy-1_h1_8_18"  />
</g>
<g id="a1_0019"  >
<polygon points="102,85 107,80 110,80 110,90 107,90 102,85 " style="fill:white; stroke-width:1; stroke:black; " description="&lt;b&gt;SMF913_RS31430&lt;/b&gt;&lt;br&gt;acyl--CoA ligase&lt;br&gt;Location: 1453988 - 1455424" locus_tag="SMF913_RS31430" class="clusterblast-orf" id="dummy-1_h1_8_19"  />
</g>
<g id="a1_0020"  >
<polygon points="111,85 116,80 150,80 150,90 116,90 111,85 " style="fill:white; stroke-width:1; stroke:black; " description="&lt;b&gt;SMF913_RS31435&lt;/b&gt;&lt;br&gt;type I polyketide synthase&lt;br&gt;Location: 1455569 - 1462486" locus_tag="SMF913_RS31435" class="clusterblast-orf" id="dummy-1_h1_8_20"  />
</g>
<g id="a1_0021"  >
<polygon points="151,85 156,80 187,80 187,90 156,90 151,85 " style="fill:#15d8d8; stroke-width:1; stroke:black; " description="&lt;b&gt;SMF913_RS31440&lt;/b&gt;&lt;br&gt;type I polyketide synthase&lt;br&gt;Location: 1462608 - 1468937&lt;br&gt;&lt;br&gt;&lt;b&gt;BlastP hit with input.path1.gene9&lt;/b&gt;&lt;br&gt;Percentage identity: 31&lt;br&gt;Percentage coverage: 43&lt;br&gt;BLAST bit score: 402&lt;br&gt;E-value: 8.03e-111" locus_tag="SMF913_RS31440" class="clusterblast-orf" id="dummy-1_h1_8_21"  />
</g>
<g id="a1_0022"  >
<polygon points="187,85 192,80 246,80 246,90 192,90 187,85 " style="fill:#15d8d8; stroke-width:1; stroke:black; " description="&lt;b&gt;SMF913_RS31445&lt;/b&gt;&lt;br&gt;type I polyketide synthase&lt;br&gt;Location: 1468990 - 1479351&lt;br&gt;&lt;br&gt;&lt;b&gt;BlastP hit with input.path1.gene9&lt;/b&gt;&lt;br&gt;Percentage identity: 31&lt;br&gt;Percentage coverage: 44&lt;br&gt;BLAST bit score: 421&lt;br&gt;E-value: 6.36e-116" locus_tag="SMF913_RS31445" class="clusterblast-orf" id="dummy-1_h1_8_22"  />
</g>
<g id="a1_0023"  >
<polygon points="246,85 251,80 301,80 301,90 251,90 246,85 " style="fill:#15d8d8; stroke-width:1; stroke:black; " description="&lt;b&gt;SMF913_RS31450&lt;/b&gt;&lt;br&gt;type I polyketide synthase&lt;br&gt;Location: 1479409 - 1489023&lt;br&gt;&lt;br&gt;&lt;b&gt;BlastP hit with input.path1.gene9&lt;/b&gt;&lt;br&gt;Percentage identity: 32&lt;br&gt;Percentage coverage: 37&lt;br&gt;BLAST bit score: 381&lt;br&gt;E-value: 8.25e-104" locus_tag="SMF913_RS31450" class="clusterblast-orf" id="dummy-1_h1_8_23"  />
</g>
<g id="a1_0024"  >
<polygon points="302,85 307,80 443,80 443,90 307,90 302,85 " style="fill:white; stroke-width:1; stroke:black; " description="&lt;b&gt;SMF913_RS31455&lt;/b&gt;&lt;br&gt;type I polyketide synthase&lt;br&gt;Location: 1489069 - 1513860" locus_tag="SMF913_RS31455" class="clusterblast-orf" id="dummy-1_h1_8_24"  />
</g>
<g id="a1_0025"  >
<polygon points="443,85 448,80 525,80 525,90 448,90 443,85 " style="fill:#15d8d8; stroke-width:1; stroke:black; " description="&lt;b&gt;SMF913_RS31460&lt;/b&gt;&lt;br&gt;type I polyketide synthase&lt;br&gt;Location: 1513938 - 1528214&lt;br&gt;&lt;br&gt;&lt;b&gt;BlastP hit with input.path1.gene9&lt;/b&gt;&lt;br&gt;Percentage identity: 33&lt;br&gt;Percentage coverage: 37&lt;br&gt;BLAST bit score: 398&lt;br&gt;E-value: 7.72e-109" locus_tag="SMF913_RS31460" class="clusterblast-orf" id="dummy-1_h1_8_25"  />
</g>
<g id="a1_0026"  >
<polygon points="525,85 530,80 582,80 582,90 530,90 525,85 " style="fill:white; stroke-width:1; stroke:black; " description="&lt;b&gt;SMF913_RS31465&lt;/b&gt;&lt;br&gt;type I polyketide synthase&lt;br&gt;Location: 1528240 - 1538367" locus_tag="SMF913_RS31465" class="clusterblast-orf" id="dummy-1_h1_8_26"  />
</g>
<g id="a1_0027"  >
<polygon points="583,85 588,80 671,80 671,90 588,90 583,85 " style="fill:white; stroke-width:1; stroke:black; " description="&lt;b&gt;SMF913_RS31470&lt;/b&gt;&lt;br&gt;type I polyketide synthase&lt;br&gt;Location: 1538450 - 1553992" locus_tag="SMF913_RS31470" class="clusterblast-orf" id="dummy-1_h1_8_27"  />
</g>
<g id="a1_0028"  >
<polygon points="673,85 674,80 674,90 673,85 " style="fill:white; stroke-width:1; stroke:black; " description="&lt;b&gt;SMF913_RS31475&lt;/b&gt;&lt;br&gt;ferredoxin&lt;br&gt;Location: 1554249 - 1554455" locus_tag="SMF913_RS31475" class="clusterblast-orf" id="dummy-1_h1_8_28"  />
</g>
<g id="a1_0029"  >
<polygon points="675,85 680,80 680,80 680,90 680,90 675,85 " style="fill:white; stroke-width:1; stroke:black; " description="&lt;b&gt;SMF913_RS31480&lt;/b&gt;&lt;br&gt;cytochrome P450&lt;br&gt;Location: 1554632 - 1555477" locus_tag="SMF913_RS31480" class="clusterblast-orf" id="dummy-1_h1_8_29"  />
</g>
<g id="a1_0030"  >
<polygon points="685,90 707,90 712,85 707,80 685,80 685,90 " style="fill:white; stroke-width:1; stroke:black; " description="&lt;b&gt;SMF913_RS31485&lt;/b&gt;&lt;br&gt;hypothetical protein&lt;br&gt;Location: 1556468 - 1561042" locus_tag="SMF913_RS31485" class="clusterblast-orf" id="dummy-1_h1_8_30"  />
</g>
<g id="a1_0031"  >
<polygon points="712,90 715,85 712,80 712,90 " style="fill:white; stroke-width:1; stroke:black; " description="&lt;b&gt;SMF913_RS31490&lt;/b&gt;&lt;br&gt;hypothetical protein&lt;br&gt;Location: 1561039 - 1561704" locus_tag="SMF913_RS31490" class="clusterblast-orf" id="dummy-1_h1_8_31"  />
</g>
<g id="a1_0032"  >
<polygon points="715,85 717,80 717,90 715,85 " style="fill:white; stroke-width:1; stroke:black; " description="&lt;b&gt;SMF913_RS31495&lt;/b&gt;&lt;br&gt;hypothetical protein&lt;br&gt;Location: 1561683 - 1561970" locus_tag="SMF913_RS31495" class="clusterblast-orf" id="dummy-1_h1_8_32"  />
</g>
<g id="a1_0033"  >
<polygon points="717,85 722,80 729,80 729,90 722,90 717,85 " style="fill:white; stroke-width:1; stroke:black; " description="&lt;b&gt;SMF913_RS31500&lt;/b&gt;&lt;br&gt;ATP-binding protein&lt;br&gt;Location: 1561976 - 1564078" locus_tag="SMF913_RS31500" class="clusterblast-orf" id="dummy-1_h1_8_33"  />
</g>
<g id="a1_0034"  >
<polygon points="729,85 734,80 740,80 740,90 734,90 729,85 " style="fill:white; stroke-width:1; stroke:black; " description="&lt;b&gt;SMF913_RS31505&lt;/b&gt;&lt;br&gt;hypothetical protein&lt;br&gt;Location: 1564084 - 1565991" locus_tag="SMF913_RS31505" class="clusterblast-orf" id="dummy-1_h1_8_34"  />
</g>
<g id="a1_0035"  >
<polygon points="740,85 743,80 743,90 740,85 " style="fill:white; stroke-width:1; stroke:black; " description="&lt;b&gt;SMF913_RS31510&lt;/b&gt;&lt;br&gt;hypothetical protein&lt;br&gt;Location: 1565988 - 1566518" locus_tag="SMF913_RS31510" class="clusterblast-orf" id="dummy-1_h1_8_35"  />
</g>
<g id="a1_0036"  >
<polygon points="743,85 748,80 749,80 749,90 748,90 743,85 " style="fill:white; stroke-width:1; stroke:black; " description="&lt;b&gt;SMF913_RS31515&lt;/b&gt;&lt;br&gt;hypothetical protein&lt;br&gt;Location: 1566521 - 1567657" locus_tag="SMF913_RS31515" class="clusterblast-orf" id="dummy-1_h1_8_36"  />
</g>
<g id="a1_0037"  >
<polygon points="749,85 754,80 761,80 761,90 754,90 749,85 " style="fill:white; stroke-width:1; stroke:black; " description="&lt;b&gt;SMF913_RS31520&lt;/b&gt;&lt;br&gt;hypothetical protein&lt;br&gt;Location: 1567654 - 1569759" locus_tag="SMF913_RS31520" class="clusterblast-orf" id="dummy-1_h1_8_37"  />
</g>
<g id="a1_0038"  >
<polygon points="761,85 766,80 768,80 768,90 766,90 761,85 " style="fill:white; stroke-width:1; stroke:black; " description="&lt;b&gt;SMF913_RS31525&lt;/b&gt;&lt;br&gt;hypothetical protein&lt;br&gt;Location: 1569762 - 1571018" locus_tag="SMF913_RS31525" class="clusterblast-orf" id="dummy-1_h1_8_38"  />
</g>
<g id="a1_0039"  >
<polygon points="768,85 773,80 780,80 780,90 773,90 768,85 " style="fill:white; stroke-width:1; stroke:black; " description="&lt;b&gt;SMF913_RS31530&lt;/b&gt;&lt;br&gt;phage tail protein I&lt;br&gt;Location: 1571031 - 1572974" locus_tag="SMF913_RS31530" class="clusterblast-orf" id="dummy-1_h1_8_39"  />
</g>
</svg>
