<svg xmlns="http://www.w3.org/2000/svg" xmlns:xlink="http://www.w3.org/1999/xlink" version="1.1" x="0" y="0" height="230" width="800" viewBox="0 0 800 230" preserveAspectRatio="none"  >
<g label="Query sequence" class="clusterblast-cluster"  >
<text x="5" y="20" class="clusterblast-acc"  >
Query sequence</text>
<line x1="10" y1="35" x2="778.0" y2="35" style="stroke-width:1; stroke:grey; "  />
<polygon points="200,40 202,35 200,30 200,40 " style="fill:white; stroke-width:1; stroke:black; " description="&lt;b&gt;input.path1.gene5&lt;/b&gt;&lt;br&gt;input.path1.gene5&lt;br&gt;Location: 74504 - 74731" locus_tag="input.path1.gene5" class="clusterblast-orf" id="dummy-1_q0_0_all"  />
<polygon points="202,35 207,30 208,30 208,40 207,40 202,35 " style="fill:#d81515; stroke-width:1; stroke:black; " description="&lt;b&gt;input.path1.gene6&lt;/b&gt;&lt;br&gt;input.path1.gene6&lt;br&gt;Location: 74727 - 75249" locus_tag="input.path1.gene6" class="clusterblast-orf" id="dummy-1_q1_0_all"  />
<polygon points="210,40 214,40 219,35 214,30 210,30 210,40 " style="fill:white; stroke-width:1; stroke:black; " description="&lt;b&gt;input.path1.gene7&lt;/b&gt;&lt;br&gt;input.path1.gene7&lt;br&gt;Location: 75446 - 76277" locus_tag="input.path1.gene7" class="clusterblast-orf" id="dummy-1_q2_0_all"  />
<polygon points="267,40 273,40 278,35 273,30 267,30 267,40 " style="fill:white; stroke-width:1; stroke:black; " description="&lt;b&gt;input.path1.gene8&lt;/b&gt;&lt;br&gt;input.path1.gene8&lt;br&gt;Location: 80857 - 81872" locus_tag="input.path1.gene8" class="clusterblast-orf" id="dummy-1_q3_0_all"  />
<polygon points="279,35 284,30 368,30 368,40 284,40 279,35 " style="fill:#15d8d8; stroke-width:1; stroke:black; " description="&lt;b&gt;input.path1.gene9&lt;/b&gt;&lt;br&gt;input.path1.gene9&lt;br&gt;Location: 82002 - 90414" locus_tag="input.path1.gene9" class="clusterblast-orf" id="dummy-1_q4_0_all"  />
<polygon points="543,35 548,30 552,30 552,40 548,40 543,35 " style="fill:white; stroke-width:1; stroke:black; " description="&lt;b&gt;input.path1.gene10&lt;/b&gt;&lt;br&gt;input.path1.gene10&lt;br&gt;Location: 106937 - 107758" locus_tag="input.path1.gene10" class="clusterblast-orf" id="dummy-1_q5_0_all"  />
<polygon points="559,35 564,30 579,30 579,40 564,40 559,35 " style="fill:white; stroke-width:1; stroke:black; " description="&lt;b&gt;input.path1.gene11&lt;/b&gt;&lt;br&gt;input.path1.gene11&lt;br&gt;Location: 108403 - 110330" locus_tag="input.path1.gene11" class="clusterblast-orf" id="dummy-1_q6_0_all"  />
</g>
<g label="NZ_CP050504" description="NZ_CP050504 (6938970-7013546): Streptomyces sp. DSM 40868 chromosome, complet... (17% of genes show similarity), T1PKS" class="clusterblast-cluster"  >
<text x="5" y="70" class="clusterblast-acc"  >
<a xlink:href="https://antismash-db.secondarymetabolites.org/area?record=NZ_CP050504&amp;start=6938970&amp;end=7013546" target="_blank">NZ_CP050504 (6938970-7013546)</a>: Streptomyces sp. DSM 40868 chromosome, complet... (17% of genes show similarity), T1PKS</text>
<line x1="10" y1="85" x2="778.0" y2="85" style="stroke-width:1; stroke:grey; "  />
</g>
<g id="a1_000"  >
<polygon points="0,90 2,85 0,80 0,90 " style="fill:white; stroke-width:1; stroke:black; " description="&lt;b&gt;HB370_RS31750&lt;/b&gt;&lt;br&gt;hypothetical protein&lt;br&gt;Location: 7013022 - 7012816" locus_tag="HB370_RS31750" class="clusterblast-orf" id="dummy-1_h1_1_0"  />
</g>
<g id="a1_001"  >
<polygon points="2,85 7,80 12,80 12,90 7,90 2,85 " style="fill:#d81515; stroke-width:1; stroke:black; " description="&lt;b&gt;HB370_RS31745&lt;/b&gt;&lt;br&gt;SDR family NAD(P)-dependent oxidoreductase&lt;br&gt;Location: 7012802 - 7011873&lt;br&gt;&lt;br&gt;&lt;b&gt;BlastP hit with input.path1.gene6&lt;/b&gt;&lt;br&gt;Percentage identity: 36&lt;br&gt;Percentage coverage: 86&lt;br&gt;BLAST bit score: 69&lt;br&gt;E-value: 2.71e-12" locus_tag="HB370_RS31745" class="clusterblast-orf" id="dummy-1_h1_1_1"  />
</g>
<g id="a1_002"  >
<polygon points="12,85 17,80 22,80 22,90 17,90 12,85 " style="fill:white; stroke-width:1; stroke:black; " description="&lt;b&gt;HB370_RS31740&lt;/b&gt;&lt;br&gt;SDR family NAD(P)-dependent oxidoreductase&lt;br&gt;Location: 7011797 - 7010910" locus_tag="HB370_RS31740" class="clusterblast-orf" id="dummy-1_h1_1_2"  />
</g>
<g id="a1_003"  >
<polygon points="23,90 27,90 32,85 27,80 23,80 23,90 " style="fill:white; stroke-width:1; stroke:black; " description="&lt;b&gt;HB370_RS31735&lt;/b&gt;&lt;br&gt;LysR family transcriptional regulator&lt;br&gt;Location: 7010839 - 7009907" locus_tag="HB370_RS31735" class="clusterblast-orf" id="dummy-1_h1_1_3"  />
</g>
<g id="a1_004"  >
<polygon points="33,85 35,80 35,90 33,85 " style="fill:white; stroke-width:1; stroke:black; " description="&lt;b&gt;HB370_RS31730&lt;/b&gt;&lt;br&gt;hypothetical protein&lt;br&gt;Location: 7009871 - 7009623" locus_tag="HB370_RS31730" class="clusterblast-orf" id="dummy-1_h1_1_4"  />
</g>
<g id="a1_005"  >
<polygon points="36,90 37,90 42,85 37,80 36,80 36,90 " style="fill:white; stroke-width:1; stroke:black; " description="&lt;b&gt;HB370_RS31725&lt;/b&gt;&lt;br&gt;TetR/AcrR family transcriptional regulator&lt;br&gt;Location: 7009586 - 7008975" locus_tag="HB370_RS31725" class="clusterblast-orf" id="dummy-1_h1_1_5"  />
</g>
<g id="a1_006"  >
<polygon points="44,85 49,80 49,80 49,90 49,90 44,85 " style="fill:white; stroke-width:1; stroke:black; " description="&lt;b&gt;HB370_RS31720&lt;/b&gt;&lt;br&gt;DUF6278 family protein&lt;br&gt;Location: 7008796 - 7008377" locus_tag="HB370_RS31720" class="clusterblast-orf" id="dummy-1_h1_1_6"  />
</g>
<g id="a1_007"  >
<polygon points="49,85 54,80 57,80 57,90 54,90 49,85 " style="fill:white; stroke-width:1; stroke:black; " description="&lt;b&gt;HB370_RS31715&lt;/b&gt;&lt;br&gt;exodeoxyribonuclease III&lt;br&gt;Location: 7008361 - 7007582" locus_tag="HB370_RS31715" class="clusterblast-orf" id="dummy-1_h1_1_7"  />
</g>
<g id="a1_008"  >
<polygon points="57,85 62,80 64,80 64,90 62,90 57,85 " style="fill:white; stroke-width:1; stroke:black; " description="&lt;b&gt;HB370_RS31710&lt;/b&gt;&lt;br&gt;MBL fold metallo-hydrolase&lt;br&gt;Location: 7007546 - 7006911" locus_tag="HB370_RS31710" class="clusterblast-orf" id="dummy-1_h1_1_8"  />
</g>
<g id="a1_009"  >
<polygon points="65,85 70,80 78,80 78,90 70,90 65,85 " style="fill:white; stroke-width:1; stroke:black; " description="&lt;b&gt;HB370_RS31705&lt;/b&gt;&lt;br&gt;4-carboxymuconolactone decarboxylase&lt;br&gt;Location: 7006872 - 7005571" locus_tag="HB370_RS31705" class="clusterblast-orf" id="dummy-1_h1_1_9"  />
</g>
<g id="a1_0010"  >
<polygon points="81,85 86,80 95,80 95,90 86,90 81,85 " style="fill:white; stroke-width:1; stroke:black; " description="&lt;b&gt;HB370_RS31700&lt;/b&gt;&lt;br&gt;MFS transporter&lt;br&gt;Location: 7005278 - 7004001" locus_tag="HB370_RS31700" class="clusterblast-orf" id="dummy-1_h1_1_10"  />
</g>
<g id="a1_0011"  >
<polygon points="102,85 104,80 104,90 102,85 " style="fill:white; stroke-width:1; stroke:black; " description="&lt;b&gt;HB370_RS31695&lt;/b&gt;&lt;br&gt;DUF5302 domain-containing protein&lt;br&gt;Location: 7003340 - 7003140" locus_tag="HB370_RS31695" class="clusterblast-orf" id="dummy-1_h1_1_11"  />
</g>
<g id="a1_0012"  >
<polygon points="109,90 122,90 127,85 122,80 109,80 109,90 " style="fill:white; stroke-width:1; stroke:black; " description="&lt;b&gt;HB370_RS31690&lt;/b&gt;&lt;br&gt;ABC-F type ribosomal protection protein Ole(B)&lt;br&gt;Location: 7002703 - 7000994" locus_tag="HB370_RS31690" class="clusterblast-orf" id="dummy-1_h1_1_12"  />
</g>
<g id="a1_0013"  >
<polygon points="128,85 133,80 141,80 141,90 133,90 128,85 " style="fill:white; stroke-width:1; stroke:black; " description="&lt;b&gt;HB370_RS31685&lt;/b&gt;&lt;br&gt;cytochrome P450&lt;br&gt;Location: 7000900 - 6999677" locus_tag="HB370_RS31685" class="clusterblast-orf" id="dummy-1_h1_1_13"  />
</g>
<g id="a1_0014"  >
<polygon points="142,85 147,80 154,80 154,90 147,90 142,85 " style="fill:white; stroke-width:1; stroke:black; " description="&lt;b&gt;HB370_RS31680&lt;/b&gt;&lt;br&gt;hypothetical protein&lt;br&gt;Location: 6999597 - 6998446" locus_tag="HB370_RS31680" class="clusterblast-orf" id="dummy-1_h1_1_14"  />
</g>
<g id="a1_0015"  >
<polygon points="155,85 160,80 162,80 162,90 160,90 155,85 " style="fill:white; stroke-width:1; stroke:black; " description="&lt;b&gt;HB370_RS31675&lt;/b&gt;&lt;br&gt;class I SAM-dependent methyltransferase&lt;br&gt;Location: 6998369 - 6997629" locus_tag="HB370_RS31675" class="clusterblast-orf" id="dummy-1_h1_1_15"  />
</g>
<g id="a1_0016"  >
<polygon points="162,85 167,80 176,80 176,90 167,90 162,85 " style="fill:white; stroke-width:1; stroke:black; " description="&lt;b&gt;HB370_RS31670&lt;/b&gt;&lt;br&gt;oleandolide olivosyltransferase OleG2&lt;br&gt;Location: 6997639 - 6996359" locus_tag="HB370_RS31670" class="clusterblast-orf" id="dummy-1_h1_1_16"  />
</g>
<g id="a1_0017"  >
<polygon points="176,85 181,80 189,80 189,90 181,90 176,85 " style="fill:white; stroke-width:1; stroke:black; " description="&lt;b&gt;HB370_RS31665&lt;/b&gt;&lt;br&gt;L-oleandrosyl-oleandolide desosaminyltransferase OleG1&lt;br&gt;Location: 6996354 - 6995068" locus_tag="HB370_RS31665" class="clusterblast-orf" id="dummy-1_h1_1_17"  />
</g>
<g id="a1_0018"  >
<polygon points="190,85 195,80 204,80 204,90 195,90 190,85 " style="fill:white; stroke-width:1; stroke:black; " description="&lt;b&gt;HB370_RS31660&lt;/b&gt;&lt;br&gt;P450-derived glycosyltransferase activator&lt;br&gt;Location: 6995026 - 6993725" locus_tag="HB370_RS31660" class="clusterblast-orf" id="dummy-1_h1_1_18"  />
</g>
<g id="a1_0019"  >
<polygon points="206,85 211,80 265,80 265,90 211,90 206,85 " style="fill:#15d8d8; stroke-width:1; stroke:black; " description="&lt;b&gt;HB370_RS31655&lt;/b&gt;&lt;br&gt;SDR family NAD(P)-dependent oxidoreductase&lt;br&gt;Location: 6993546 - 6987943&lt;br&gt;&lt;br&gt;&lt;b&gt;BlastP hit with input.path1.gene9&lt;/b&gt;&lt;br&gt;Percentage identity: 32&lt;br&gt;Percentage coverage: 37&lt;br&gt;BLAST bit score: 371&lt;br&gt;E-value: 1.86e-101" locus_tag="HB370_RS31655" class="clusterblast-orf" id="dummy-1_h1_1_19"  />
</g>
<g id="a1_0020"  >
<polygon points="265,85 270,80 317,80 317,90 270,90 265,85 " style="fill:#15d8d8; stroke-width:1; stroke:black; " description="&lt;b&gt;HB370_RS31650&lt;/b&gt;&lt;br&gt;type I polyketide synthase&lt;br&gt;Location: 6987920 - 6982986&lt;br&gt;&lt;br&gt;&lt;b&gt;BlastP hit with input.path1.gene9&lt;/b&gt;&lt;br&gt;Percentage identity: 32&lt;br&gt;Percentage coverage: 37&lt;br&gt;BLAST bit score: 375&lt;br&gt;E-value: 1.83e-103" locus_tag="HB370_RS31650" class="clusterblast-orf" id="dummy-1_h1_1_20"  />
</g>
<g id="a1_0021"  >
<polygon points="318,85 323,80 439,80 439,90 323,90 318,85 " style="fill:#15d8d8; stroke-width:1; stroke:black; " description="&lt;b&gt;HB370_RS42110&lt;/b&gt;&lt;br&gt;SDR family NAD(P)-dependent oxidoreductase&lt;br&gt;Location: 6982916 - 6971466&lt;br&gt;&lt;br&gt;&lt;b&gt;BlastP hit with input.path1.gene9&lt;/b&gt;&lt;br&gt;Percentage identity: 33&lt;br&gt;Percentage coverage: 37&lt;br&gt;BLAST bit score: 381&lt;br&gt;E-value: 9.88e-104" locus_tag="HB370_RS42110" class="clusterblast-orf" id="dummy-1_h1_1_21"  />
</g>
<g id="a1_0022"  >
<polygon points="440,85 445,80 503,80 503,90 445,90 440,85 " style="fill:#15d8d8; stroke-width:1; stroke:black; " description="&lt;b&gt;HB370_RS42105&lt;/b&gt;&lt;br&gt;SDR family NAD(P)-dependent oxidoreductase&lt;br&gt;Location: 6971423 - 6965424&lt;br&gt;&lt;br&gt;&lt;b&gt;BlastP hit with input.path1.gene9&lt;/b&gt;&lt;br&gt;Percentage identity: 32&lt;br&gt;Percentage coverage: 38&lt;br&gt;BLAST bit score: 377&lt;br&gt;E-value: 4.67e-103" locus_tag="HB370_RS42105" class="clusterblast-orf" id="dummy-1_h1_1_22"  />
</g>
<g id="a1_0023"  >
<polygon points="510,85 515,80 541,80 541,90 515,90 510,85 " style="fill:#15d8d8; stroke-width:1; stroke:black; " description="&lt;b&gt;HB370_RS42100&lt;/b&gt;&lt;br&gt;acyltransferase domain-containing protein&lt;br&gt;Location: 6964751 - 6961863&lt;br&gt;&lt;br&gt;&lt;b&gt;BlastP hit with input.path1.gene9&lt;/b&gt;&lt;br&gt;Percentage identity: 33&lt;br&gt;Percentage coverage: 37&lt;br&gt;BLAST bit score: 379&lt;br&gt;E-value: 1.08e-108" locus_tag="HB370_RS42100" class="clusterblast-orf" id="dummy-1_h1_1_23"  />
</g>
<g id="a1_0024"  >
<polygon points="543,85 548,80 571,80 571,90 548,90 543,85 " style="fill:#15d8d8; stroke-width:1; stroke:black; " description="&lt;b&gt;HB370_RS42095&lt;/b&gt;&lt;br&gt;type I polyketide synthase&lt;br&gt;Location: 6961628 - 6958971&lt;br&gt;&lt;br&gt;&lt;b&gt;BlastP hit with input.path1.gene9&lt;/b&gt;&lt;br&gt;Percentage identity: 33&lt;br&gt;Percentage coverage: 35&lt;br&gt;BLAST bit score: 359&lt;br&gt;E-value: 6.68e-103" locus_tag="HB370_RS42095" class="clusterblast-orf" id="dummy-1_h1_1_24"  />
</g>
<g id="a1_0025"  >
<polygon points="580,90 599,90 604,85 599,80 580,80 580,90 " style="fill:white; stroke-width:1; stroke:black; " description="&lt;b&gt;HB370_RS31605&lt;/b&gt;&lt;br&gt;beta-glucosidase&lt;br&gt;Location: 6958166 - 6955863" locus_tag="HB370_RS31605" class="clusterblast-orf" id="dummy-1_h1_1_25"  />
</g>
<g id="a1_0026"  >
<polygon points="604,90 611,90 616,85 611,80 604,80 604,90 " style="fill:white; stroke-width:1; stroke:black; " description="&lt;b&gt;HB370_RS31600&lt;/b&gt;&lt;br&gt;DegT/DnrJ/EryC1/StrS family aminotransferase&lt;br&gt;Location: 6955842 - 6954736" locus_tag="HB370_RS31600" class="clusterblast-orf" id="dummy-1_h1_1_26"  />
</g>
<g id="a1_0027"  >
<polygon points="617,85 622,80 631,80 631,90 622,90 617,85 " style="fill:white; stroke-width:1; stroke:black; " description="&lt;b&gt;HB370_RS31595&lt;/b&gt;&lt;br&gt;OleI family self-immunity macrolide glycosyltransferase&lt;br&gt;Location: 6954633 - 6953359" locus_tag="HB370_RS31595" class="clusterblast-orf" id="dummy-1_h1_1_27"  />
</g>
<g id="a1_0028"  >
<polygon points="634,85 639,80 649,80 649,90 639,90 634,85 " style="fill:white; stroke-width:1; stroke:black; " description="&lt;b&gt;HB370_RS31590&lt;/b&gt;&lt;br&gt;dTDP-4-amino-4,6-dideoxy-D-glucose ammonia-lyase&lt;br&gt;Location: 6953083 - 6951626" locus_tag="HB370_RS31590" class="clusterblast-orf" id="dummy-1_h1_1_28"  />
</g>
<g id="a1_0029"  >
<polygon points="650,85 655,80 663,80 663,90 655,90 650,85 " style="fill:white; stroke-width:1; stroke:black; " description="&lt;b&gt;HB370_RS31585&lt;/b&gt;&lt;br&gt;dTDP-4-dehydro-6-deoxyglucose aminotransferase&lt;br&gt;Location: 6951504 - 6950323" locus_tag="HB370_RS31585" class="clusterblast-orf" id="dummy-1_h1_1_29"  />
</g>
<g id="a1_0030"  >
<polygon points="663,85 668,80 672,80 672,90 668,90 663,85 " style="fill:white; stroke-width:1; stroke:black; " description="&lt;b&gt;HB370_RS31580&lt;/b&gt;&lt;br&gt;dTDP-4-dehydrorhamnose reductase&lt;br&gt;Location: 6950326 - 6949442" locus_tag="HB370_RS31580" class="clusterblast-orf" id="dummy-1_h1_1_30"  />
</g>
<g id="a1_0031"  >
<polygon points="672,85 677,80 683,80 683,90 677,90 672,85 " style="fill:white; stroke-width:1; stroke:black; " description="&lt;b&gt;HB370_RS31575&lt;/b&gt;&lt;br&gt;dTDP-glucose 4,6-dehydratase&lt;br&gt;Location: 6949445 - 6948438" locus_tag="HB370_RS31575" class="clusterblast-orf" id="dummy-1_h1_1_31"  />
</g>
<g id="a1_0032"  >
<polygon points="683,85 688,80 694,80 694,90 688,90 683,85 " style="fill:white; stroke-width:1; stroke:black; " description="&lt;b&gt;HB370_RS31570&lt;/b&gt;&lt;br&gt;glucose-1-phosphate thymidylyltransferase&lt;br&gt;Location: 6948441 - 6947371" locus_tag="HB370_RS31570" class="clusterblast-orf" id="dummy-1_h1_1_32"  />
</g>
<g id="a1_0033"  >
<polygon points="694,85 699,80 700,80 700,90 699,90 694,85 " style="fill:white; stroke-width:1; stroke:black; " description="&lt;b&gt;HB370_RS31565&lt;/b&gt;&lt;br&gt;dTDP-4-dehydrorhamnose 3,5-epimerase&lt;br&gt;Location: 6947374 - 6946766" locus_tag="HB370_RS31565" class="clusterblast-orf" id="dummy-1_h1_1_33"  />
</g>
<g id="a1_0034"  >
<polygon points="704,90 714,90 719,85 714,80 704,80 704,90 " style="fill:white; stroke-width:1; stroke:black; " description="&lt;b&gt;HB370_RS31560&lt;/b&gt;&lt;br&gt;NDP-hexose 2,3-dehydratase family protein&lt;br&gt;Location: 6946397 - 6945006" locus_tag="HB370_RS31560" class="clusterblast-orf" id="dummy-1_h1_1_34"  />
</g>
<g id="a1_0035"  >
<polygon points="719,90 725,90 730,85 725,80 719,80 719,90 " style="fill:white; stroke-width:1; stroke:black; " description="&lt;b&gt;HB370_RS31555&lt;/b&gt;&lt;br&gt;Gfo/Idh/MocA family oxidoreductase&lt;br&gt;Location: 6944986 - 6944000" locus_tag="HB370_RS31555" class="clusterblast-orf" id="dummy-1_h1_1_35"  />
</g>
<g id="a1_0036"  >
<polygon points="737,90 749,90 754,85 749,80 737,80 737,90 " style="fill:white; stroke-width:1; stroke:black; " description="&lt;b&gt;HB370_RS31550&lt;/b&gt;&lt;br&gt;glycoside hydrolase 43 family protein&lt;br&gt;Location: 6943317 - 6941692" locus_tag="HB370_RS31550" class="clusterblast-orf" id="dummy-1_h1_1_36"  />
</g>
<g id="a1_0037"  >
<polygon points="754,85 759,80 765,80 765,90 759,90 754,85 " style="fill:white; stroke-width:1; stroke:black; " description="&lt;b&gt;HB370_RS31545&lt;/b&gt;&lt;br&gt;LacI family transcriptional regulator&lt;br&gt;Location: 6941664 - 6940651" locus_tag="HB370_RS31545" class="clusterblast-orf" id="dummy-1_h1_1_37"  />
</g>
<g id="a1_0038"  >
<polygon points="769,90 774,90 779,85 774,80 769,80 769,90 " style="fill:white; stroke-width:1; stroke:black; " description="&lt;b&gt;HB370_RS31540&lt;/b&gt;&lt;br&gt;glycoside hydrolase family 6 protein&lt;br&gt;Location: 6940261 - 6939296" locus_tag="HB370_RS31540" class="clusterblast-orf" id="dummy-1_h1_1_38"  />
</g>
</svg>
