<svg xmlns="http://www.w3.org/2000/svg" xmlns:xlink="http://www.w3.org/1999/xlink" version="1.1" x="0" y="0" height="230" width="800" viewBox="0 0 800 230" preserveAspectRatio="none"  >
<g label="Query sequence" class="clusterblast-cluster"  >
<text x="5" y="20" class="clusterblast-acc"  >
Query sequence</text>
<line x1="10" y1="35" x2="778.0" y2="35" style="stroke-width:1; stroke:grey; "  />
<polygon points="152,40 159,40 164,35 159,30 152,30 152,40 " style="fill:white; stroke-width:1; stroke:black; " description="&lt;b&gt;input.path1.gene478&lt;/b&gt;&lt;br&gt;input.path1.gene478&lt;br&gt;Location: 1917576 - 1918529" locus_tag="input.path1.gene478" class="clusterblast-orf" id="dummy-2_q0_0_all"  />
<polygon points="175,35 180,30 180,30 180,40 180,40 175,35 " style="fill:white; stroke-width:1; stroke:black; " description="&lt;b&gt;input.path1.gene479&lt;/b&gt;&lt;br&gt;input.path1.gene479&lt;br&gt;Location: 1919371 - 1919776" locus_tag="input.path1.gene479" class="clusterblast-orf" id="dummy-2_q1_0_all"  />
<polygon points="200,40 208,40 213,35 208,30 200,30 200,40 " style="fill:#d81515; stroke-width:1; stroke:black; " description="&lt;b&gt;input.path1.gene480&lt;/b&gt;&lt;br&gt;input.path1.gene480&lt;br&gt;Location: 1921444 - 1922420" locus_tag="input.path1.gene480" class="clusterblast-orf" id="dummy-2_q2_0_all"  />
<polygon points="221,40 237,40 242,35 237,30 221,30 221,40 " style="fill:white; stroke-width:1; stroke:black; " description="&lt;b&gt;input.path1.gene481&lt;/b&gt;&lt;br&gt;input.path1.gene481&lt;br&gt;Location: 1923129 - 1924767" locus_tag="input.path1.gene481" class="clusterblast-orf" id="dummy-2_q3_0_all"  />
<polygon points="300,35 305,30 308,30 308,40 305,40 300,35 " style="fill:#15d815; stroke-width:1; stroke:black; " description="&lt;b&gt;input.path1.gene482&lt;/b&gt;&lt;br&gt;input.path1.gene482&lt;br&gt;Location: 1929436 - 1930066" locus_tag="input.path1.gene482" class="clusterblast-orf" id="dummy-2_q4_0_all"  />
<polygon points="322,40 401,40 406,35 401,30 322,30 322,40 " style="fill:#1515d8; stroke-width:1; stroke:black; " description="&lt;b&gt;input.path1.gene483&lt;/b&gt;&lt;br&gt;input.path1.gene483&lt;br&gt;Location: 1931178 - 1937961" locus_tag="input.path1.gene483" class="clusterblast-orf" id="dummy-2_q5_0_all"  />
<polygon points="411,35 416,30 430,30 430,40 416,40 411,35 " style="fill:white; stroke-width:1; stroke:black; " description="&lt;b&gt;input.path1.gene484&lt;/b&gt;&lt;br&gt;input.path1.gene484&lt;br&gt;Location: 1938396 - 1939897" locus_tag="input.path1.gene484" class="clusterblast-orf" id="dummy-2_q6_0_all"  />
<polygon points="440,35 445,30 467,30 467,40 445,40 440,35 " style="fill:white; stroke-width:1; stroke:black; " description="&lt;b&gt;input.path1.gene485&lt;/b&gt;&lt;br&gt;input.path1.gene485&lt;br&gt;Location: 1940737 - 1942870" locus_tag="input.path1.gene485" class="clusterblast-orf" id="dummy-2_q7_0_all"  />
<polygon points="490,40 510,40 515,35 510,30 490,30 490,40 " style="fill:white; stroke-width:1; stroke:black; " description="&lt;b&gt;input.path1.gene486&lt;/b&gt;&lt;br&gt;input.path1.gene486&lt;br&gt;Location: 1944707 - 1946727" locus_tag="input.path1.gene486" class="clusterblast-orf" id="dummy-2_q8_0_all"  />
<polygon points="517,35 522,30 529,30 529,40 522,40 517,35 " style="fill:white; stroke-width:1; stroke:black; " description="&lt;b&gt;input.path1.gene487&lt;/b&gt;&lt;br&gt;input.path1.gene487&lt;br&gt;Location: 1946912 - 1947867" locus_tag="input.path1.gene487" class="clusterblast-orf" id="dummy-2_q9_0_all"  />
<polygon points="554,40 591,40 596,35 591,30 554,30 554,40 " style="fill:white; stroke-width:1; stroke:black; " description="&lt;b&gt;input.path1.gene488&lt;/b&gt;&lt;br&gt;input.path1.gene488&lt;br&gt;Location: 1949831 - 1953244" locus_tag="input.path1.gene488" class="clusterblast-orf" id="dummy-2_q10_0_all"  />
<polygon points="612,40 622,40 627,35 622,30 612,30 612,40 " style="fill:white; stroke-width:1; stroke:black; " description="&lt;b&gt;input.path1.gene489&lt;/b&gt;&lt;br&gt;input.path1.gene489&lt;br&gt;Location: 1954511 - 1955722" locus_tag="input.path1.gene489" class="clusterblast-orf" id="dummy-2_q11_0_all"  />
</g>
<g label="NW_006917094" description="NW_006917094 (310294-377398): Pestalotiopsis fici W106-1 unplaced genomic sca... (9% of genes show similarity), T1PKS" class="clusterblast-cluster"  >
<text x="5" y="70" class="clusterblast-acc"  >
<a xlink:href="https://antismash-db.secondarymetabolites.org/area?record=NW_006917094&amp;start=310294&amp;end=377398" target="_blank">NW_006917094 (310294-377398)</a>: Pestalotiopsis fici W106-1 unplaced genomic sca... (9% of genes show similarity), T1PKS</text>
<line x1="10" y1="85" x2="778.0" y2="85" style="stroke-width:1; stroke:grey; "  />
</g>
<g id="a2_000"  >
<polygon points="0,85 5,80 19,80 19,90 5,90 0,85 " style="fill:white; stroke-width:1; stroke:black; " description="&lt;b&gt;PFICI_06057&lt;/b&gt;&lt;br&gt;hypothetical protein&lt;br&gt;Location: 311009 - 312552" locus_tag="PFICI_06057" class="clusterblast-orf" id="dummy-2_h2_4_0"  />
</g>
<g id="a2_001"  >
<polygon points="71,90 73,90 78,85 73,80 71,80 71,90 " style="fill:white; stroke-width:1; stroke:black; " description="&lt;b&gt;PFICI_06058&lt;/b&gt;&lt;br&gt;hypothetical protein&lt;br&gt;Location: 316766 - 317320" locus_tag="PFICI_06058" class="clusterblast-orf" id="dummy-2_h2_4_1"  />
</g>
<g id="a2_002"  >
<polygon points="104,90 118,90 123,85 118,80 104,80 104,90 " style="fill:white; stroke-width:1; stroke:black; " description="&lt;b&gt;PFICI_06059&lt;/b&gt;&lt;br&gt;hypothetical protein&lt;br&gt;Location: 319375 - 320924" locus_tag="PFICI_06059" class="clusterblast-orf" id="dummy-2_h2_4_2"  />
</g>
<g id="a2_003"  >
<polygon points="129,90 130,90 135,85 130,80 129,80 129,90 " style="fill:white; stroke-width:1; stroke:black; " description="&lt;b&gt;PFICI_06060&lt;/b&gt;&lt;br&gt;hypothetical protein&lt;br&gt;Location: 321417 - 321872" locus_tag="PFICI_06060" class="clusterblast-orf" id="dummy-2_h2_4_3"  />
</g>
<g id="a2_004"  >
<polygon points="155,85 160,80 177,80 177,90 160,90 155,85 " style="fill:white; stroke-width:1; stroke:black; " description="&lt;b&gt;PFICI_06061&lt;/b&gt;&lt;br&gt;hypothetical protein&lt;br&gt;Location: 323529 - 325286" locus_tag="PFICI_06061" class="clusterblast-orf" id="dummy-2_h2_4_4"  />
</g>
<g id="a2_005"  >
<polygon points="190,85 195,80 210,80 210,90 195,90 190,85 " style="fill:white; stroke-width:1; stroke:black; " description="&lt;b&gt;PFICI_06062&lt;/b&gt;&lt;br&gt;hypothetical protein&lt;br&gt;Location: 326351 - 327931" locus_tag="PFICI_06062" class="clusterblast-orf" id="dummy-2_h2_4_5"  />
</g>
<g id="a2_006"  >
<polygon points="212,85 217,80 219,80 219,90 217,90 212,85 " style="fill:white; stroke-width:1; stroke:black; " description="&lt;b&gt;PFICI_06063&lt;/b&gt;&lt;br&gt;hypothetical protein&lt;br&gt;Location: 328074 - 328675" locus_tag="PFICI_06063" class="clusterblast-orf" id="dummy-2_h2_4_6"  />
</g>
<g id="a2_007"  >
<polygon points="235,85 240,80 246,80 246,90 240,90 235,85 " style="fill:white; stroke-width:1; stroke:black; " description="&lt;b&gt;PFICI_06064&lt;/b&gt;&lt;br&gt;hypothetical protein&lt;br&gt;Location: 329949 - 330835" locus_tag="PFICI_06064" class="clusterblast-orf" id="dummy-2_h2_4_7"  />
</g>
<g id="a2_008"  >
<polygon points="261,90 280,90 285,85 280,80 261,80 261,90 " style="fill:white; stroke-width:1; stroke:black; " description="&lt;b&gt;PFICI_06065&lt;/b&gt;&lt;br&gt;hypothetical protein&lt;br&gt;Location: 332039 - 333965" locus_tag="PFICI_06065" class="clusterblast-orf" id="dummy-2_h2_4_8"  />
</g>
<g id="a2_009"  >
<polygon points="298,90 302,90 307,85 302,80 298,80 298,90 " style="fill:white; stroke-width:1; stroke:black; " description="&lt;b&gt;PFICI_06066&lt;/b&gt;&lt;br&gt;hypothetical protein&lt;br&gt;Location: 334978 - 335697" locus_tag="PFICI_06066" class="clusterblast-orf" id="dummy-2_h2_4_9"  />
</g>
<g id="a2_0010"  >
<polygon points="308,85 313,80 320,80 320,90 313,90 308,85 " style="fill:#15d815; stroke-width:1; stroke:black; " description="&lt;b&gt;PFICI_06067&lt;/b&gt;&lt;br&gt;hypothetical protein&lt;br&gt;Location: 335824 - 336803&lt;br&gt;&lt;br&gt;&lt;b&gt;BlastP hit with input.path1.gene482&lt;/b&gt;&lt;br&gt;Percentage identity: 47&lt;br&gt;Percentage coverage: 95&lt;br&gt;BLAST bit score: 147&lt;br&gt;E-value: 1.57e-42" locus_tag="PFICI_06067" class="clusterblast-orf" id="dummy-2_h2_4_10"  />
</g>
<g id="a2_0011"  >
<polygon points="364,90 447,90 452,85 447,80 364,80 364,90 " style="fill:#1515d8; stroke-width:1; stroke:black; " description="&lt;b&gt;PFICI_06068&lt;/b&gt;&lt;br&gt;hypothetical protein&lt;br&gt;Location: 340295 - 347398&lt;br&gt;&lt;br&gt;&lt;b&gt;BlastP hit with input.path1.gene483&lt;/b&gt;&lt;br&gt;Percentage identity: 53&lt;br&gt;Percentage coverage: 102&lt;br&gt;BLAST bit score: 2296&lt;br&gt;E-value: 0.0" locus_tag="PFICI_06068" class="clusterblast-orf" id="dummy-2_h2_4_11"  />
</g>
<g id="a2_0012"  >
<polygon points="455,85 460,80 472,80 472,90 460,90 455,85 " style="fill:white; stroke-width:1; stroke:black; " description="&lt;b&gt;PFICI_06069&lt;/b&gt;&lt;br&gt;hypothetical protein&lt;br&gt;Location: 347634 - 348992" locus_tag="PFICI_06069" class="clusterblast-orf" id="dummy-2_h2_4_12"  />
</g>
<g id="a2_0013"  >
<polygon points="475,85 480,80 487,80 487,90 480,90 475,85 " style="fill:white; stroke-width:1; stroke:black; " description="&lt;b&gt;PFICI_06070&lt;/b&gt;&lt;br&gt;hypothetical protein&lt;br&gt;Location: 349257 - 350197" locus_tag="PFICI_06070" class="clusterblast-orf" id="dummy-2_h2_4_13"  />
</g>
<g id="a2_0014"  >
<polygon points="494,90 499,90 504,85 499,80 494,80 494,90 " style="fill:white; stroke-width:1; stroke:black; " description="&lt;b&gt;PFICI_06071&lt;/b&gt;&lt;br&gt;hypothetical protein&lt;br&gt;Location: 350748 - 351537" locus_tag="PFICI_06071" class="clusterblast-orf" id="dummy-2_h2_4_14"  />
</g>
<g id="a2_0015"  >
<polygon points="512,85 517,80 556,80 556,90 517,90 512,85 " style="fill:white; stroke-width:1; stroke:black; " description="&lt;b&gt;PFICI_06072&lt;/b&gt;&lt;br&gt;ISWI chromatin-remodeling complex ATPase ISW2&lt;br&gt;Location: 352238 - 355754" locus_tag="PFICI_06072" class="clusterblast-orf" id="dummy-2_h2_4_15"  />
</g>
<g id="a2_0016"  >
<polygon points="585,90 590,90 595,85 590,80 585,80 585,90 " style="fill:white; stroke-width:1; stroke:black; " description="&lt;b&gt;PFICI_06073&lt;/b&gt;&lt;br&gt;hypothetical protein&lt;br&gt;Location: 358052 - 358876" locus_tag="PFICI_06073" class="clusterblast-orf" id="dummy-2_h2_4_16"  />
</g>
<g id="a2_0017"  >
<polygon points="604,85 609,80 614,80 614,90 609,90 604,85 " style="fill:white; stroke-width:1; stroke:black; " description="&lt;b&gt;PFICI_06074&lt;/b&gt;&lt;br&gt;hypothetical protein&lt;br&gt;Location: 359580 - 360422" locus_tag="PFICI_06074" class="clusterblast-orf" id="dummy-2_h2_4_17"  />
</g>
<g id="a2_0018"  >
<polygon points="636,85 641,80 673,80 673,90 641,90 636,85 " style="fill:white; stroke-width:1; stroke:black; " description="&lt;b&gt;PFICI_06075&lt;/b&gt;&lt;br&gt;hypothetical protein&lt;br&gt;Location: 362156 - 365133" locus_tag="PFICI_06075" class="clusterblast-orf" id="dummy-2_h2_4_18"  />
</g>
<g id="a2_0019"  >
<polygon points="678,90 687,90 692,85 687,80 678,80 678,90 " style="fill:white; stroke-width:1; stroke:black; " description="&lt;b&gt;PFICI_06076&lt;/b&gt;&lt;br&gt;hypothetical protein&lt;br&gt;Location: 365563 - 366681" locus_tag="PFICI_06076" class="clusterblast-orf" id="dummy-2_h2_4_19"  />
</g>
<g id="a2_0020"  >
<polygon points="719,85 724,80 739,80 739,90 724,90 719,85 " style="fill:white; stroke-width:1; stroke:black; " description="&lt;b&gt;PFICI_06077&lt;/b&gt;&lt;br&gt;hypothetical protein&lt;br&gt;Location: 368850 - 370424" locus_tag="PFICI_06077" class="clusterblast-orf" id="dummy-2_h2_4_20"  />
</g>
<g id="a2_0021"  >
<polygon points="764,85 769,80 780,80 780,90 769,90 764,85 " style="fill:white; stroke-width:1; stroke:black; " description="&lt;b&gt;PFICI_06078&lt;/b&gt;&lt;br&gt;hypothetical protein&lt;br&gt;Location: 372420 - 373706" locus_tag="PFICI_06078" class="clusterblast-orf" id="dummy-2_h2_4_21"  />
</g>
</svg>
