<svg xmlns="http://www.w3.org/2000/svg" xmlns:xlink="http://www.w3.org/1999/xlink" version="1.1" x="0" y="0" height="230" width="800" viewBox="0 0 800 230" preserveAspectRatio="none"  >
<g label="Query sequence" class="clusterblast-cluster"  >
<text x="5" y="20" class="clusterblast-acc"  >
Query sequence</text>
<line x1="10" y1="35" x2="778.0" y2="35" style="stroke-width:1; stroke:grey; "  />
<polygon points="256,40 335,40 340,35 335,30 256,30 256,40 " style="fill:#d81515; stroke-width:1; stroke:black; " description="&lt;b&gt;input.path1.gene764&lt;/b&gt;&lt;br&gt;input.path1.gene764&lt;br&gt;Location: 4057237 - 4064536" locus_tag="input.path1.gene764" class="clusterblast-orf" id="dummy-6_q0_0_all"  />
<polygon points="354,35 359,30 365,30 365,40 359,40 354,35 " style="fill:white; stroke-width:1; stroke:black; " description="&lt;b&gt;input.path1.gene765&lt;/b&gt;&lt;br&gt;input.path1.gene765&lt;br&gt;Location: 4065809 - 4066729" locus_tag="input.path1.gene765" class="clusterblast-orf" id="dummy-6_q1_0_all"  />
<polygon points="403,40 407,40 412,35 407,30 403,30 403,40 " style="fill:white; stroke-width:1; stroke:black; " description="&lt;b&gt;input.path1.gene766&lt;/b&gt;&lt;br&gt;input.path1.gene766&lt;br&gt;Location: 4070129 - 4070922" locus_tag="input.path1.gene766" class="clusterblast-orf" id="dummy-6_q2_0_all"  />
<polygon points="421,35 426,30 448,30 448,40 426,40 421,35 " style="fill:white; stroke-width:1; stroke:black; " description="&lt;b&gt;input.path1.gene767&lt;/b&gt;&lt;br&gt;input.path1.gene767&lt;br&gt;Location: 4071694 - 4074037" locus_tag="input.path1.gene767" class="clusterblast-orf" id="dummy-6_q3_0_all"  />
<polygon points="458,35 463,30 470,30 470,40 463,40 458,35 " style="fill:#15d815; stroke-width:1; stroke:black; " description="&lt;b&gt;input.path1.gene768&lt;/b&gt;&lt;br&gt;input.path1.gene768&lt;br&gt;Location: 4074904 - 4076000" locus_tag="input.path1.gene768" class="clusterblast-orf" id="dummy-6_q4_0_all"  />
<polygon points="480,40 489,40 494,35 489,30 480,30 480,40 " style="fill:#1515d8; stroke-width:1; stroke:black; " description="&lt;b&gt;input.path1.gene769&lt;/b&gt;&lt;br&gt;input.path1.gene769&lt;br&gt;Location: 4076867 - 4078118" locus_tag="input.path1.gene769" class="clusterblast-orf" id="dummy-6_q5_0_all"  />
<polygon points="500,35 505,30 523,30 523,40 505,40 500,35 " style="fill:white; stroke-width:1; stroke:black; " description="&lt;b&gt;input.path1.gene770&lt;/b&gt;&lt;br&gt;input.path1.gene770&lt;br&gt;Location: 4078630 - 4080613" locus_tag="input.path1.gene770" class="clusterblast-orf" id="dummy-6_q6_0_all"  />
</g>
<g label="NW_024467878" description="NW_024467878 (18679-90994): Aspergillus sydowii CBS 593.65 unplaced genomic s... (7% of genes show similarity), NRPS" class="clusterblast-cluster"  >
<text x="5" y="70" class="clusterblast-acc"  >
<a xlink:href="https://antismash-db.secondarymetabolites.org/area?record=NW_024467878&amp;start=18679&amp;end=90994" target="_blank">NW_024467878 (18679-90994)</a>: Aspergillus sydowii CBS 593.65 unplaced genomic s... (7% of genes show similarity), NRPS</text>
<line x1="10" y1="85" x2="778.0" y2="85" style="stroke-width:1; stroke:grey; "  />
</g>
<g id="a6_000"  >
<polygon points="0,85 5,80 11,80 11,90 5,90 0,85 " style="fill:white; stroke-width:1; stroke:black; " description="&lt;b&gt;ASPSYDRAFT_51893&lt;/b&gt;&lt;br&gt;uncharacterized protein&lt;br&gt;Location: 88815 - 87835" locus_tag="ASPSYDRAFT_51893" class="clusterblast-orf" id="dummy-6_h6_2_0"  />
</g>
<g id="a6_001"  >
<polygon points="29,85 34,80 39,80 39,90 34,90 29,85 " style="fill:white; stroke-width:1; stroke:black; " description="&lt;b&gt;ASPSYDRAFT_51892&lt;/b&gt;&lt;br&gt;uncharacterized protein&lt;br&gt;Location: 86245 - 85377" locus_tag="ASPSYDRAFT_51892" class="clusterblast-orf" id="dummy-6_h6_2_1"  />
</g>
<g id="a6_002"  >
<polygon points="41,90 49,90 54,85 49,80 41,80 41,90 " style="fill:white; stroke-width:1; stroke:black; " description="&lt;b&gt;ASPSYDRAFT_51891&lt;/b&gt;&lt;br&gt;uncharacterized protein&lt;br&gt;Location: 85148 - 84075" locus_tag="ASPSYDRAFT_51891" class="clusterblast-orf" id="dummy-6_h6_2_2"  />
</g>
<g id="a6_003"  >
<polygon points="61,90 73,90 78,85 73,80 61,80 61,90 " style="fill:white; stroke-width:1; stroke:black; " description="&lt;b&gt;ASPSYDRAFT_214222&lt;/b&gt;&lt;br&gt;uncharacterized protein&lt;br&gt;Location: 83449 - 81926" locus_tag="ASPSYDRAFT_214222" class="clusterblast-orf" id="dummy-6_h6_2_3"  />
</g>
<g id="a6_004"  >
<polygon points="84,90 97,90 102,85 97,80 84,80 84,90 " style="fill:white; stroke-width:1; stroke:black; " description="&lt;b&gt;ASPSYDRAFT_62796&lt;/b&gt;&lt;br&gt;uncharacterized protein&lt;br&gt;Location: 81409 - 79816" locus_tag="ASPSYDRAFT_62796" class="clusterblast-orf" id="dummy-6_h6_2_4"  />
</g>
<g id="a6_005"  >
<polygon points="111,90 122,90 127,85 122,80 111,80 111,90 " style="fill:white; stroke-width:1; stroke:black; " description="&lt;b&gt;ASPSYDRAFT_95562&lt;/b&gt;&lt;br&gt;uncharacterized protein&lt;br&gt;Location: 79033 - 77623" locus_tag="ASPSYDRAFT_95562" class="clusterblast-orf" id="dummy-6_h6_2_5"  />
</g>
<g id="a6_006"  >
<polygon points="153,85 158,80 175,80 175,90 158,90 153,85 " style="fill:white; stroke-width:1; stroke:black; " description="&lt;b&gt;ASPSYDRAFT_214216&lt;/b&gt;&lt;br&gt;uncharacterized protein&lt;br&gt;Location: 75380 - 73431" locus_tag="ASPSYDRAFT_214216" class="clusterblast-orf" id="dummy-6_h6_2_6"  />
</g>
<g id="a6_007"  >
<polygon points="184,90 200,90 205,85 200,80 184,80 184,90 " style="fill:white; stroke-width:1; stroke:black; " description="&lt;b&gt;ASPSYDRAFT_62793&lt;/b&gt;&lt;br&gt;uncharacterized protein&lt;br&gt;Location: 72660 - 70785" locus_tag="ASPSYDRAFT_62793" class="clusterblast-orf" id="dummy-6_h6_2_7"  />
</g>
<g id="a6_008"  >
<polygon points="211,90 215,90 220,85 215,80 211,80 211,90 " style="fill:white; stroke-width:1; stroke:black; " description="&lt;b&gt;ASPSYDRAFT_51883&lt;/b&gt;&lt;br&gt;uncharacterized protein&lt;br&gt;Location: 70264 - 69455" locus_tag="ASPSYDRAFT_51883" class="clusterblast-orf" id="dummy-6_h6_2_8"  />
</g>
<g id="a6_009"  >
<polygon points="226,90 230,90 235,85 230,80 226,80 226,90 " style="fill:white; stroke-width:1; stroke:black; " description="&lt;b&gt;ASPSYDRAFT_214207&lt;/b&gt;&lt;br&gt;uncharacterized protein&lt;br&gt;Location: 68925 - 68207" locus_tag="ASPSYDRAFT_214207" class="clusterblast-orf" id="dummy-6_h6_2_9"  />
</g>
<g id="a6_0010"  >
<polygon points="249,90 259,90 264,85 259,80 249,80 249,90 " style="fill:white; stroke-width:1; stroke:black; " description="&lt;b&gt;ASPSYDRAFT_164500&lt;/b&gt;&lt;br&gt;uncharacterized protein&lt;br&gt;Location: 66921 - 65626" locus_tag="ASPSYDRAFT_164500" class="clusterblast-orf" id="dummy-6_h6_2_10"  />
</g>
<g id="a6_0011"  >
<polygon points="270,85 275,80 286,80 286,90 275,90 270,85 " style="fill:white; stroke-width:1; stroke:black; " description="&lt;b&gt;ASPSYDRAFT_95556&lt;/b&gt;&lt;br&gt;uncharacterized protein&lt;br&gt;Location: 65101 - 63663" locus_tag="ASPSYDRAFT_95556" class="clusterblast-orf" id="dummy-6_h6_2_11"  />
</g>
<g id="a6_0012"  >
<polygon points="293,90 303,90 308,85 303,80 293,80 293,90 " style="fill:#1515d8; stroke-width:1; stroke:black; " description="&lt;b&gt;ASPSYDRAFT_95555&lt;/b&gt;&lt;br&gt;uncharacterized protein&lt;br&gt;Location: 63068 - 61807&lt;br&gt;&lt;br&gt;&lt;b&gt;BlastP hit with input.path1.gene769&lt;/b&gt;&lt;br&gt;Percentage identity: 31&lt;br&gt;Percentage coverage: 91&lt;br&gt;BLAST bit score: 96&lt;br&gt;E-value: 2.46e-21" locus_tag="ASPSYDRAFT_95555" class="clusterblast-orf" id="dummy-6_h6_2_12"  />
</g>
<g id="a6_0013"  >
<polygon points="317,85 322,80 368,80 368,90 322,90 317,85 " style="fill:white; stroke-width:1; stroke:black; " description="&lt;b&gt;ASPSYDRAFT_51880&lt;/b&gt;&lt;br&gt;uncharacterized protein&lt;br&gt;Location: 60994 - 56513" locus_tag="ASPSYDRAFT_51880" class="clusterblast-orf" id="dummy-6_h6_2_13"  />
</g>
<g id="a6_0014"  >
<polygon points="378,90 452,90 457,85 452,80 378,80 378,90 " style="fill:#d81515; stroke-width:1; stroke:black; " description="&lt;b&gt;ASPSYDRAFT_95553&lt;/b&gt;&lt;br&gt;uncharacterized protein&lt;br&gt;Location: 55670 - 48680&lt;br&gt;&lt;br&gt;&lt;b&gt;BlastP hit with input.path1.gene764&lt;/b&gt;&lt;br&gt;Percentage identity: 35&lt;br&gt;Percentage coverage: 66&lt;br&gt;BLAST bit score: 912&lt;br&gt;E-value: 1.04e-285" locus_tag="ASPSYDRAFT_95553" class="clusterblast-orf" id="dummy-6_h6_2_14"  />
</g>
<g id="a6_0015"  >
<polygon points="459,85 464,80 477,80 477,90 464,90 459,85 " style="fill:white; stroke-width:1; stroke:black; " description="&lt;b&gt;ASPSYDRAFT_164569&lt;/b&gt;&lt;br&gt;uncharacterized protein&lt;br&gt;Location: 48573 - 46954" locus_tag="ASPSYDRAFT_164569" class="clusterblast-orf" id="dummy-6_h6_2_15"  />
</g>
<g id="a6_0016"  >
<polygon points="481,85 486,80 495,80 495,90 486,90 481,85 " style="fill:white; stroke-width:1; stroke:black; " description="&lt;b&gt;ASPSYDRAFT_164708&lt;/b&gt;&lt;br&gt;uncharacterized protein&lt;br&gt;Location: 46640 - 45339" locus_tag="ASPSYDRAFT_164708" class="clusterblast-orf" id="dummy-6_h6_2_16"  />
</g>
<g id="a6_0017"  >
<polygon points="515,85 520,80 536,80 536,90 520,90 515,85 " style="fill:white; stroke-width:1; stroke:black; " description="&lt;b&gt;ASPSYDRAFT_51875&lt;/b&gt;&lt;br&gt;uncharacterized protein&lt;br&gt;Location: 43579 - 41769" locus_tag="ASPSYDRAFT_51875" class="clusterblast-orf" id="dummy-6_h6_2_17"  />
</g>
<g id="a6_0018"  >
<polygon points="543,90 554,90 559,85 554,80 543,80 543,90 " style="fill:white; stroke-width:1; stroke:black; " description="&lt;b&gt;ASPSYDRAFT_73704&lt;/b&gt;&lt;br&gt;uncharacterized protein&lt;br&gt;Location: 41206 - 39794" locus_tag="ASPSYDRAFT_73704" class="clusterblast-orf" id="dummy-6_h6_2_18"  />
</g>
<g id="a6_0019"  >
<polygon points="564,90 584,90 589,85 584,80 564,80 564,90 " style="fill:white; stroke-width:1; stroke:black; " description="&lt;b&gt;ASPSYDRAFT_164553&lt;/b&gt;&lt;br&gt;uncharacterized protein&lt;br&gt;Location: 39284 - 37163" locus_tag="ASPSYDRAFT_164553" class="clusterblast-orf" id="dummy-6_h6_2_19"  />
</g>
<g id="a6_0020"  >
<polygon points="590,85 595,80 618,80 618,90 595,90 590,85 " style="fill:white; stroke-width:1; stroke:black; " description="&lt;b&gt;ASPSYDRAFT_62782&lt;/b&gt;&lt;br&gt;uncharacterized protein&lt;br&gt;Location: 37065 - 34562" locus_tag="ASPSYDRAFT_62782" class="clusterblast-orf" id="dummy-6_h6_2_20"  />
</g>
<g id="a6_0021"  >
<polygon points="622,85 627,80 647,80 647,90 627,90 622,85 " style="fill:white; stroke-width:1; stroke:black; " description="&lt;b&gt;ASPSYDRAFT_189436&lt;/b&gt;&lt;br&gt;uncharacterized protein&lt;br&gt;Location: 34237 - 32090" locus_tag="ASPSYDRAFT_189436" class="clusterblast-orf" id="dummy-6_h6_2_21"  />
</g>
<g id="a6_0022"  >
<polygon points="655,90 680,90 685,85 680,80 655,80 655,90 " style="fill:white; stroke-width:1; stroke:black; " description="&lt;b&gt;ASPSYDRAFT_95545&lt;/b&gt;&lt;br&gt;uncharacterized protein&lt;br&gt;Location: 31323 - 28676" locus_tag="ASPSYDRAFT_95545" class="clusterblast-orf" id="dummy-6_h6_2_22"  />
</g>
<g id="a6_0023"  >
<polygon points="689,90 697,90 702,85 697,80 689,80 689,90 " style="fill:white; stroke-width:1; stroke:black; " description="&lt;b&gt;ASPSYDRAFT_137747&lt;/b&gt;&lt;br&gt;uncharacterized protein&lt;br&gt;Location: 28328 - 27240" locus_tag="ASPSYDRAFT_137747" class="clusterblast-orf" id="dummy-6_h6_2_23"  />
</g>
<g id="a6_0024"  >
<polygon points="704,85 709,80 718,80 718,90 709,90 704,85 " style="fill:white; stroke-width:1; stroke:black; " description="&lt;b&gt;ASPSYDRAFT_164547&lt;/b&gt;&lt;br&gt;uncharacterized protein&lt;br&gt;Location: 27078 - 25835" locus_tag="ASPSYDRAFT_164547" class="clusterblast-orf" id="dummy-6_h6_2_24"  />
</g>
<g id="a6_0025"  >
<polygon points="720,85 723,80 723,90 720,85 " style="fill:white; stroke-width:1; stroke:black; " description="&lt;b&gt;ASPSYDRAFT_51869&lt;/b&gt;&lt;br&gt;uncharacterized protein&lt;br&gt;Location: 25669 - 25373" locus_tag="ASPSYDRAFT_51869" class="clusterblast-orf" id="dummy-6_h6_2_25"  />
</g>
<g id="a6_0026"  >
<polygon points="735,90 735,90 740,85 735,80 735,80 735,90 " style="fill:white; stroke-width:1; stroke:black; " description="&lt;b&gt;ASPSYDRAFT_51867&lt;/b&gt;&lt;br&gt;uncharacterized protein&lt;br&gt;Location: 24325 - 23888" locus_tag="ASPSYDRAFT_51867" class="clusterblast-orf" id="dummy-6_h6_2_26"  />
</g>
<g id="a6_0027"  >
<polygon points="751,90 775,90 780,85 775,80 751,80 751,90 " style="fill:white; stroke-width:1; stroke:black; " description="&lt;b&gt;ASPSYDRAFT_95541&lt;/b&gt;&lt;br&gt;uncharacterized protein&lt;br&gt;Location: 22906 - 20430" locus_tag="ASPSYDRAFT_95541" class="clusterblast-orf" id="dummy-6_h6_2_27"  />
</g>
</svg>
