<svg xmlns="http://www.w3.org/2000/svg" xmlns:xlink="http://www.w3.org/1999/xlink" version="1.1" x="0" y="0" height="230" width="800" viewBox="0 0 800 230" preserveAspectRatio="none"  >
<g label="Query sequence" class="clusterblast-cluster"  >
<text x="5" y="20" class="clusterblast-acc"  >
Query sequence</text>
<line x1="10" y1="35" x2="778.0" y2="35" style="stroke-width:1; stroke:grey; "  />
<polygon points="99,35 104,30 163,30 163,40 104,40 99,35 " style="fill:white; stroke-width:1; stroke:black; " description="&lt;b&gt;input.path1.gene405&lt;/b&gt;&lt;br&gt;input.path1.gene405&lt;br&gt;Location: 2013225 - 2018600" locus_tag="input.path1.gene405" class="clusterblast-orf" id="dummy-4_q0_0_all"  />
<polygon points="188,40 201,40 206,35 201,30 188,30 188,40 " style="fill:white; stroke-width:1; stroke:black; " description="&lt;b&gt;input.path1.gene406&lt;/b&gt;&lt;br&gt;input.path1.gene406&lt;br&gt;Location: 2020633 - 2022195" locus_tag="input.path1.gene406" class="clusterblast-orf" id="dummy-4_q1_0_all"  />
<polygon points="225,35 230,30 239,30 239,40 230,40 225,35 " style="fill:white; stroke-width:1; stroke:black; " description="&lt;b&gt;input.path1.gene407&lt;/b&gt;&lt;br&gt;input.path1.gene407&lt;br&gt;Location: 2023779 - 2024924" locus_tag="input.path1.gene407" class="clusterblast-orf" id="dummy-4_q2_0_all"  />
<polygon points="260,35 265,30 269,30 269,40 265,40 260,35 " style="fill:white; stroke-width:1; stroke:black; " description="&lt;b&gt;input.path1.gene408&lt;/b&gt;&lt;br&gt;input.path1.gene408&lt;br&gt;Location: 2026705 - 2027445" locus_tag="input.path1.gene408" class="clusterblast-orf" id="dummy-4_q3_0_all"  />
<polygon points="290,35 295,30 310,30 310,40 295,40 290,35 " style="fill:#d81515; stroke-width:1; stroke:black; " description="&lt;b&gt;input.path1.gene409&lt;/b&gt;&lt;br&gt;input.path1.gene409&lt;br&gt;Location: 2029192 - 2030871" locus_tag="input.path1.gene409" class="clusterblast-orf" id="dummy-4_q4_0_all"  />
<polygon points="320,40 363,40 368,35 363,30 320,30 320,40 " style="fill:#15d815; stroke-width:1; stroke:black; " description="&lt;b&gt;input.path1.gene410&lt;/b&gt;&lt;br&gt;input.path1.gene410&lt;br&gt;Location: 2031688 - 2035686" locus_tag="input.path1.gene410" class="clusterblast-orf" id="dummy-4_q5_0_all"  />
<polygon points="381,40 381,40 386,35 381,30 381,30 381,40 " style="fill:#15d815; stroke-width:1; stroke:black; " description="&lt;b&gt;input.path1.gene411&lt;/b&gt;&lt;br&gt;input.path1.gene411&lt;br&gt;Location: 2036788 - 2037248" locus_tag="input.path1.gene411" class="clusterblast-orf" id="dummy-4_q6_0_all"  />
<polygon points="400,40 466,40 471,35 466,30 400,30 400,40 " style="fill:#15d815; stroke-width:1; stroke:black; " description="&lt;b&gt;input.path1.gene412&lt;/b&gt;&lt;br&gt;input.path1.gene412&lt;br&gt;Location: 2038411 - 2044297" locus_tag="input.path1.gene412" class="clusterblast-orf" id="dummy-4_q7_0_all"  />
<polygon points="485,40 549,40 554,35 549,30 485,30 485,40 " style="fill:white; stroke-width:1; stroke:black; " description="&lt;b&gt;input.path1.gene413&lt;/b&gt;&lt;br&gt;input.path1.gene413&lt;br&gt;Location: 2045465 - 2051301" locus_tag="input.path1.gene413" class="clusterblast-orf" id="dummy-4_q8_0_all"  />
<polygon points="576,35 581,30 584,30 584,40 581,40 576,35 " style="fill:white; stroke-width:1; stroke:black; " description="&lt;b&gt;input.path1.gene414&lt;/b&gt;&lt;br&gt;input.path1.gene414&lt;br&gt;Location: 2053110 - 2053801" locus_tag="input.path1.gene414" class="clusterblast-orf" id="dummy-4_q9_0_all"  />
<polygon points="586,40 605,40 610,35 605,30 586,30 586,40 " style="fill:white; stroke-width:1; stroke:black; " description="&lt;b&gt;input.path1.gene415&lt;/b&gt;&lt;br&gt;input.path1.gene415&lt;br&gt;Location: 2053951 - 2055998" locus_tag="input.path1.gene415" class="clusterblast-orf" id="dummy-4_q10_0_all"  />
<polygon points="620,40 628,40 633,35 628,30 620,30 620,40 " style="fill:#1515d8; stroke-width:1; stroke:black; " description="&lt;b&gt;input.path1.gene416&lt;/b&gt;&lt;br&gt;input.path1.gene416&lt;br&gt;Location: 2056755 - 2057875" locus_tag="input.path1.gene416" class="clusterblast-orf" id="dummy-4_q11_0_all"  />
<polygon points="641,35 646,30 680,30 680,40 646,40 641,35 " style="fill:white; stroke-width:1; stroke:black; " description="&lt;b&gt;input.path1.gene417&lt;/b&gt;&lt;br&gt;input.path1.gene417&lt;br&gt;Location: 2058553 - 2061817" locus_tag="input.path1.gene417" class="clusterblast-orf" id="dummy-4_q12_0_all"  />
</g>
<g label="NW_026054577" description="NW_026054577 (104123-176559): Daldinia decipiens strain CBS 113046 unplaced g... (9% of genes show similarity), NRPS,betalactone" class="clusterblast-cluster"  >
<text x="5" y="70" class="clusterblast-acc"  >
<a xlink:href="https://antismash-db.secondarymetabolites.org/area?record=NW_026054577&amp;start=104123&amp;end=176559" target="_blank">NW_026054577 (104123-176559)</a>: Daldinia decipiens strain CBS 113046 unplaced g... (9% of genes show similarity), NRPS,betalactone</text>
<line x1="10" y1="85" x2="778.0" y2="85" style="stroke-width:1; stroke:grey; "  />
</g>
<g id="a4_000"  >
<polygon points="0,90 4,85 0,80 0,90 " style="fill:white; stroke-width:1; stroke:black; " description="&lt;b&gt;F4813DRAFT_195659&lt;/b&gt;&lt;br&gt;uncharacterized protein&lt;br&gt;Location: 110521 - 110865" locus_tag="F4813DRAFT_195659" class="clusterblast-orf" id="dummy-4_h4_2_0"  />
</g>
<g id="a4_001"  >
<polygon points="5,85 10,80 21,80 21,90 10,90 5,85 " style="fill:white; stroke-width:1; stroke:black; " description="&lt;b&gt;F4813DRAFT_195658&lt;/b&gt;&lt;br&gt;uncharacterized protein&lt;br&gt;Location: 110992 - 112323" locus_tag="F4813DRAFT_195658" class="clusterblast-orf" id="dummy-4_h4_2_1"  />
</g>
<g id="a4_002"  >
<polygon points="53,90 60,90 65,85 60,80 53,80 53,90 " style="fill:white; stroke-width:1; stroke:black; " description="&lt;b&gt;F4813DRAFT_369333&lt;/b&gt;&lt;br&gt;uncharacterized protein&lt;br&gt;Location: 114984 - 116026" locus_tag="F4813DRAFT_369333" class="clusterblast-orf" id="dummy-4_h4_2_2"  />
</g>
<g id="a4_003"  >
<polygon points="71,85 76,80 91,80 91,90 76,90 71,85 " style="fill:white; stroke-width:1; stroke:black; " description="&lt;b&gt;F4813DRAFT_195671&lt;/b&gt;&lt;br&gt;putative monooxygenase&lt;br&gt;Location: 116521 - 118145" locus_tag="F4813DRAFT_195671" class="clusterblast-orf" id="dummy-4_h4_2_3"  />
</g>
<g id="a4_004"  >
<polygon points="135,90 144,90 149,85 144,80 135,80 135,90 " style="fill:white; stroke-width:1; stroke:black; " description="&lt;b&gt;F4813DRAFT_382427&lt;/b&gt;&lt;br&gt;taurine catabolism dioxygenase&lt;br&gt;Location: 121847 - 122997" locus_tag="F4813DRAFT_382427" class="clusterblast-orf" id="dummy-4_h4_2_4"  />
</g>
<g id="a4_005"  >
<polygon points="157,85 162,80 212,80 212,90 162,90 157,85 " style="fill:white; stroke-width:1; stroke:black; " description="&lt;b&gt;F4813DRAFT_398738&lt;/b&gt;&lt;br&gt;pyruvate carboxylase&lt;br&gt;Location: 123674 - 128305" locus_tag="F4813DRAFT_398738" class="clusterblast-orf" id="dummy-4_h4_2_5"  />
</g>
<g id="a4_006"  >
<polygon points="249,85 254,80 268,80 268,90 254,90 249,85 " style="fill:#d81515; stroke-width:1; stroke:black; " description="&lt;b&gt;F4813DRAFT_382429&lt;/b&gt;&lt;br&gt;MFS general substrate transporter&lt;br&gt;Location: 131382 - 133002&lt;br&gt;&lt;br&gt;&lt;b&gt;BlastP hit with input.path1.gene409&lt;/b&gt;&lt;br&gt;Percentage identity: 60&lt;br&gt;Percentage coverage: 94&lt;br&gt;BLAST bit score: 533&lt;br&gt;E-value: 4.95e-185" locus_tag="F4813DRAFT_382429" class="clusterblast-orf" id="dummy-4_h4_2_6"  />
</g>
<g id="a4_007"  >
<polygon points="282,90 425,90 430,85 425,80 282,80 282,90 " style="fill:#15d815; stroke-width:1; stroke:black; " description="&lt;b&gt;F4813DRAFT_398744&lt;/b&gt;&lt;br&gt;acetyl-CoA synthetase-like protein&lt;br&gt;Location: 134124 - 146559&lt;br&gt;&lt;br&gt;&lt;b&gt;BlastP hit with input.path1.gene410&lt;/b&gt;&lt;br&gt;Percentage identity: 64&lt;br&gt;Percentage coverage: 98&lt;br&gt;BLAST bit score: 1453&lt;br&gt;E-value: 0.0&lt;br&gt;&lt;br&gt;&lt;b&gt;BlastP hit with input.path1.gene411&lt;/b&gt;&lt;br&gt;Percentage identity: 58&lt;br&gt;Percentage coverage: 78&lt;br&gt;BLAST bit score: 88&lt;br&gt;E-value: 1.75e-19&lt;br&gt;&lt;br&gt;&lt;b&gt;BlastP hit with input.path1.gene412&lt;/b&gt;&lt;br&gt;Percentage identity: 47&lt;br&gt;Percentage coverage: 122&lt;br&gt;BLAST bit score: 1696&lt;br&gt;E-value: 0.0" locus_tag="F4813DRAFT_398744" class="clusterblast-orf" id="dummy-4_h4_2_7"  />
</g>
<g id="a4_008"  >
<polygon points="441,90 444,90 449,85 444,80 441,80 441,90 " style="fill:white; stroke-width:1; stroke:black; " description="&lt;b&gt;F4813DRAFT_195759&lt;/b&gt;&lt;br&gt;putative glutathione S-transferase&lt;br&gt;Location: 147451 - 148140" locus_tag="F4813DRAFT_195759" class="clusterblast-orf" id="dummy-4_h4_2_8"  />
</g>
<g id="a4_009"  >
<polygon points="466,85 471,80 485,80 485,90 471,90 466,85 " style="fill:white; stroke-width:1; stroke:black; " description="&lt;b&gt;F4813DRAFT_369348&lt;/b&gt;&lt;br&gt;MFS general substrate transporter&lt;br&gt;Location: 149545 - 151122" locus_tag="F4813DRAFT_369348" class="clusterblast-orf" id="dummy-4_h4_2_9"  />
</g>
<g id="a4_0010"  >
<polygon points="490,85 495,80 516,80 516,90 495,90 490,85 " style="fill:white; stroke-width:1; stroke:black; " description="&lt;b&gt;F4813DRAFT_369351&lt;/b&gt;&lt;br&gt;HET-domain-containing protein&lt;br&gt;Location: 151546 - 153746" locus_tag="F4813DRAFT_369351" class="clusterblast-orf" id="dummy-4_h4_2_10"  />
</g>
<g id="a4_0011"  >
<polygon points="536,90 550,90 555,85 550,80 536,80 536,90 " style="fill:white; stroke-width:1; stroke:black; " description="&lt;b&gt;F4813DRAFT_369352&lt;/b&gt;&lt;br&gt;putative O-methyltransferase&lt;br&gt;Location: 155423 - 156976" locus_tag="F4813DRAFT_369352" class="clusterblast-orf" id="dummy-4_h4_2_11"  />
</g>
<g id="a4_0012"  >
<polygon points="564,85 569,80 584,80 584,90 569,90 564,85 " style="fill:white; stroke-width:1; stroke:black; " description="&lt;b&gt;F4813DRAFT_398747&lt;/b&gt;&lt;br&gt;P-loop containing nucleoside triphosphate hydrolase protein&lt;br&gt;Location: 157726 - 159416" locus_tag="F4813DRAFT_398747" class="clusterblast-orf" id="dummy-4_h4_2_12"  />
</g>
<g id="a4_0013"  >
<polygon points="601,85 606,80 624,80 624,90 606,90 601,85 " style="fill:white; stroke-width:1; stroke:black; " description="&lt;b&gt;F4813DRAFT_369354&lt;/b&gt;&lt;br&gt;uncharacterized protein&lt;br&gt;Location: 160828 - 162792" locus_tag="F4813DRAFT_369354" class="clusterblast-orf" id="dummy-4_h4_2_13"  />
</g>
<g id="a4_0014"  >
<polygon points="629,85 634,80 636,80 636,90 634,90 629,85 " style="fill:white; stroke-width:1; stroke:black; " description="&lt;b&gt;F4813DRAFT_195850&lt;/b&gt;&lt;br&gt;uncharacterized protein&lt;br&gt;Location: 163145 - 163741" locus_tag="F4813DRAFT_195850" class="clusterblast-orf" id="dummy-4_h4_2_14"  />
</g>
<g id="a4_0015"  >
<polygon points="647,85 652,80 658,80 658,90 652,90 647,85 " style="fill:white; stroke-width:1; stroke:black; " description="&lt;b&gt;F4813DRAFT_195839&lt;/b&gt;&lt;br&gt;uncharacterized protein&lt;br&gt;Location: 164679 - 165599" locus_tag="F4813DRAFT_195839" class="clusterblast-orf" id="dummy-4_h4_2_15"  />
</g>
<g id="a4_0016"  >
<polygon points="661,85 666,80 673,80 673,90 666,90 661,85 " style="fill:white; stroke-width:1; stroke:black; " description="&lt;b&gt;F4813DRAFT_195846&lt;/b&gt;&lt;br&gt;carbon-nitrogen hydrolase&lt;br&gt;Location: 165901 - 166881" locus_tag="F4813DRAFT_195846" class="clusterblast-orf" id="dummy-4_h4_2_16"  />
</g>
<g id="a4_0017"  >
<polygon points="692,90 695,90 700,85 695,80 692,80 692,90 " style="fill:white; stroke-width:1; stroke:black; " description="&lt;b&gt;F4813DRAFT_398749&lt;/b&gt;&lt;br&gt;uncharacterized protein&lt;br&gt;Location: 168436 - 169131" locus_tag="F4813DRAFT_398749" class="clusterblast-orf" id="dummy-4_h4_2_17"  />
</g>
<g id="a4_0018"  >
<polygon points="710,90 713,90 718,85 713,80 710,80 710,90 " style="fill:white; stroke-width:1; stroke:black; " description="&lt;b&gt;F4813DRAFT_398750&lt;/b&gt;&lt;br&gt;uncharacterized protein&lt;br&gt;Location: 169923 - 170642" locus_tag="F4813DRAFT_398750" class="clusterblast-orf" id="dummy-4_h4_2_18"  />
</g>
<g id="a4_0019"  >
<polygon points="729,90 734,90 739,85 734,80 729,80 729,90 " style="fill:white; stroke-width:1; stroke:black; " description="&lt;b&gt;F4813DRAFT_369361&lt;/b&gt;&lt;br&gt;uncharacterized protein&lt;br&gt;Location: 171561 - 172409" locus_tag="F4813DRAFT_369361" class="clusterblast-orf" id="dummy-4_h4_2_19"  />
</g>
<g id="a4_0020"  >
<polygon points="746,90 758,90 763,85 758,80 746,80 746,90 " style="fill:white; stroke-width:1; stroke:black; " description="&lt;b&gt;F4813DRAFT_369362&lt;/b&gt;&lt;br&gt;FAD dependent oxidoreductase&lt;br&gt;Location: 172936 - 174432" locus_tag="F4813DRAFT_369362" class="clusterblast-orf" id="dummy-4_h4_2_20"  />
</g>
<g id="a4_0021"  >
<polygon points="776,90 780,85 776,80 776,90 " style="fill:white; stroke-width:1; stroke:black; " description="&lt;b&gt;F4813DRAFT_195905&lt;/b&gt;&lt;br&gt;uncharacterized protein&lt;br&gt;Location: 175492 - 175773" locus_tag="F4813DRAFT_195905" class="clusterblast-orf" id="dummy-4_h4_2_21"  />
</g>
</svg>
