<svg xmlns="http://www.w3.org/2000/svg" xmlns:xlink="http://www.w3.org/1999/xlink" version="1.1" x="0" y="0" height="230" width="800" viewBox="0 0 800 230" preserveAspectRatio="none"  >
<g label="Query sequence" class="clusterblast-cluster"  >
<text x="5" y="20" class="clusterblast-acc"  >
Query sequence</text>
<line x1="10" y1="35" x2="778.0" y2="35" style="stroke-width:1; stroke:grey; "  />
<polygon points="115,40 119,40 124,35 119,30 115,30 115,40 " style="fill:white; stroke-width:1; stroke:black; " description="&lt;b&gt;input.path1.gene743&lt;/b&gt;&lt;br&gt;input.path1.gene743&lt;br&gt;Location: 3374578 - 3375277" locus_tag="input.path1.gene743" class="clusterblast-orf" id="dummy-2_q0_0_all"  />
<polygon points="138,40 154,40 159,35 154,30 138,30 138,40 " style="fill:white; stroke-width:1; stroke:black; " description="&lt;b&gt;input.path1.gene744&lt;/b&gt;&lt;br&gt;input.path1.gene744&lt;br&gt;Location: 3376363 - 3378071" locus_tag="input.path1.gene744" class="clusterblast-orf" id="dummy-2_q1_0_all"  />
<polygon points="163,35 168,30 190,30 190,40 168,40 163,35 " style="fill:#d81515; stroke-width:1; stroke:black; " description="&lt;b&gt;input.path1.gene745&lt;/b&gt;&lt;br&gt;input.path1.gene745&lt;br&gt;Location: 3378333 - 3380438" locus_tag="input.path1.gene745" class="clusterblast-orf" id="dummy-2_q2_0_all"  />
<polygon points="193,40 233,40 238,35 233,30 193,30 193,40 " style="fill:white; stroke-width:1; stroke:black; " description="&lt;b&gt;input.path1.gene746&lt;/b&gt;&lt;br&gt;input.path1.gene746&lt;br&gt;Location: 3380728 - 3384255" locus_tag="input.path1.gene746" class="clusterblast-orf" id="dummy-2_q3_0_all"  />
<polygon points="254,40 316,40 321,35 316,30 254,30 254,40 " style="fill:white; stroke-width:1; stroke:black; " description="&lt;b&gt;input.path1.gene747&lt;/b&gt;&lt;br&gt;input.path1.gene747&lt;br&gt;Location: 3385444 - 3390687" locus_tag="input.path1.gene747" class="clusterblast-orf" id="dummy-2_q4_0_all"  />
<polygon points="326,35 331,30 419,30 419,40 331,40 326,35 " style="fill:#5cd815; stroke-width:1; stroke:black; " description="&lt;b&gt;input.path1.gene748&lt;/b&gt;&lt;br&gt;input.path1.gene748&lt;br&gt;Location: 3391099 - 3398363" locus_tag="input.path1.gene748" class="clusterblast-orf" id="dummy-2_q5_0_all"  />
<polygon points="447,40 457,40 462,35 457,30 447,30 447,40 " style="fill:#15a3d8; stroke-width:1; stroke:black; " description="&lt;b&gt;input.path1.gene749&lt;/b&gt;&lt;br&gt;input.path1.gene749&lt;br&gt;Location: 3400552 - 3401770" locus_tag="input.path1.gene749" class="clusterblast-orf" id="dummy-2_q6_0_all"  />
<polygon points="470,35 475,30 492,30 492,40 475,40 470,35 " style="fill:#c715d8; stroke-width:1; stroke:black; " description="&lt;b&gt;input.path1.gene750&lt;/b&gt;&lt;br&gt;input.path1.gene750&lt;br&gt;Location: 3402377 - 3404132" locus_tag="input.path1.gene750" class="clusterblast-orf" id="dummy-2_q7_0_all"  />
<polygon points="494,40 498,40 503,35 498,30 494,30 494,40 " style="fill:white; stroke-width:1; stroke:black; " description="&lt;b&gt;input.path1.gene751&lt;/b&gt;&lt;br&gt;input.path1.gene751&lt;br&gt;Location: 3404267 - 3404923" locus_tag="input.path1.gene751" class="clusterblast-orf" id="dummy-2_q8_0_all"  />
<polygon points="505,40 513,40 518,35 513,30 505,30 505,40 " style="fill:#d88015; stroke-width:1; stroke:black; " description="&lt;b&gt;input.path1.gene752&lt;/b&gt;&lt;br&gt;input.path1.gene752&lt;br&gt;Location: 3405096 - 3406134" locus_tag="input.path1.gene752" class="clusterblast-orf" id="dummy-2_q9_0_all"  />
<polygon points="520,35 525,30 532,30 532,40 525,40 520,35 " style="fill:white; stroke-width:1; stroke:black; " description="&lt;b&gt;input.path1.gene753&lt;/b&gt;&lt;br&gt;input.path1.gene753&lt;br&gt;Location: 3406284 - 3407251" locus_tag="input.path1.gene753" class="clusterblast-orf" id="dummy-2_q10_0_all"  />
<polygon points="543,40 546,40 551,35 546,30 543,30 543,40 " style="fill:#15d839; stroke-width:1; stroke:black; " description="&lt;b&gt;input.path1.gene754&lt;/b&gt;&lt;br&gt;input.path1.gene754&lt;br&gt;Location: 3408086 - 3408726" locus_tag="input.path1.gene754" class="clusterblast-orf" id="dummy-2_q11_0_all"  />
<polygon points="558,40 562,40 567,35 562,30 558,30 558,40 " style="fill:#1539d8; stroke-width:1; stroke:black; " description="&lt;b&gt;input.path1.gene755&lt;/b&gt;&lt;br&gt;input.path1.gene755&lt;br&gt;Location: 3409222 - 3410000" locus_tag="input.path1.gene755" class="clusterblast-orf" id="dummy-2_q12_0_all"  />
<polygon points="570,35 575,30 594,30 594,40 575,40 570,35 " style="fill:#d81580; stroke-width:1; stroke:black; " description="&lt;b&gt;input.path1.gene756&lt;/b&gt;&lt;br&gt;input.path1.gene756&lt;br&gt;Location: 3410190 - 3412106" locus_tag="input.path1.gene756" class="clusterblast-orf" id="dummy-2_q13_0_all"  />
<polygon points="596,40 606,40 611,35 606,30 596,30 596,40 " style="fill:#c7d815; stroke-width:1; stroke:black; " description="&lt;b&gt;input.path1.gene757&lt;/b&gt;&lt;br&gt;input.path1.gene757&lt;br&gt;Location: 3412215 - 3413416" locus_tag="input.path1.gene757" class="clusterblast-orf" id="dummy-2_q14_0_all"  />
<polygon points="620,35 625,30 640,30 640,40 625,40 620,35 " style="fill:#15d8a3; stroke-width:1; stroke:black; " description="&lt;b&gt;input.path1.gene758&lt;/b&gt;&lt;br&gt;input.path1.gene758&lt;br&gt;Location: 3414143 - 3415664" locus_tag="input.path1.gene758" class="clusterblast-orf" id="dummy-2_q15_0_all"  />
<polygon points="652,40 659,40 664,35 659,30 652,30 652,40 " style="fill:#5c15d8; stroke-width:1; stroke:black; " description="&lt;b&gt;input.path1.gene759&lt;/b&gt;&lt;br&gt;input.path1.gene759&lt;br&gt;Location: 3416622 - 3417588" locus_tag="input.path1.gene759" class="clusterblast-orf" id="dummy-2_q16_0_all"  />
</g>
<g label="NW_013550607" description="NW_013550607 (212843-279664): Fonsecaea pedrosoi CBS 271.37 unplaced genomic ... (20% of genes show similarity), T1PKS" class="clusterblast-cluster"  >
<text x="5" y="70" class="clusterblast-acc"  >
<a xlink:href="https://antismash-db.secondarymetabolites.org/area?record=NW_013550607&amp;start=212843&amp;end=279664" target="_blank">NW_013550607 (212843-279664)</a>: Fonsecaea pedrosoi CBS 271.37 unplaced genomic ... (20% of genes show similarity), T1PKS</text>
<line x1="10" y1="85" x2="778.0" y2="85" style="stroke-width:1; stroke:grey; "  />
</g>
<g id="a2_000"  >
<polygon points="0,85 5,80 20,80 20,90 5,90 0,85 " style="fill:white; stroke-width:1; stroke:black; " description="&lt;b&gt;Z517_12202&lt;/b&gt;&lt;br&gt;hypothetical protein&lt;br&gt;Location: 277396 - 275797" locus_tag="Z517_12202" class="clusterblast-orf" id="dummy-2_h2_7_0"  />
</g>
<g id="a2_001"  >
<polygon points="31,85 36,80 43,80 43,90 36,90 31,85 " style="fill:white; stroke-width:1; stroke:black; " description="&lt;b&gt;Z517_12201&lt;/b&gt;&lt;br&gt;hypothetical protein&lt;br&gt;Location: 274930 - 273977" locus_tag="Z517_12201" class="clusterblast-orf" id="dummy-2_h2_7_1"  />
</g>
<g id="a2_002"  >
<polygon points="51,90 70,90 75,85 70,80 51,80 51,90 " style="fill:white; stroke-width:1; stroke:black; " description="&lt;b&gt;Z517_12200&lt;/b&gt;&lt;br&gt;hypothetical protein&lt;br&gt;Location: 273401 - 271504" locus_tag="Z517_12200" class="clusterblast-orf" id="dummy-2_h2_7_2"  />
</g>
<g id="a2_003"  >
<polygon points="102,90 110,90 115,85 110,80 102,80 102,90 " style="fill:white; stroke-width:1; stroke:black; " description="&lt;b&gt;Z517_12199&lt;/b&gt;&lt;br&gt;hypothetical protein&lt;br&gt;Location: 269374 - 268356" locus_tag="Z517_12199" class="clusterblast-orf" id="dummy-2_h2_7_3"  />
</g>
<g id="a2_004"  >
<polygon points="131,90 142,90 147,85 142,80 131,80 131,90 " style="fill:white; stroke-width:1; stroke:black; " description="&lt;b&gt;Z517_12198&lt;/b&gt;&lt;br&gt;hypothetical protein&lt;br&gt;Location: 267079 - 265883" locus_tag="Z517_12198" class="clusterblast-orf" id="dummy-2_h2_7_4"  />
</g>
<g id="a2_005"  >
<polygon points="166,90 214,90 219,85 214,80 166,80 166,90 " style="fill:white; stroke-width:1; stroke:black; " description="&lt;b&gt;Z517_12197&lt;/b&gt;&lt;br&gt;hypothetical protein&lt;br&gt;Location: 264377 - 260219" locus_tag="Z517_12197" class="clusterblast-orf" id="dummy-2_h2_7_5"  />
</g>
<g id="a2_006"  >
<polygon points="221,85 226,80 237,80 237,90 226,90 221,85 " style="fill:white; stroke-width:1; stroke:black; " description="&lt;b&gt;Z517_12196&lt;/b&gt;&lt;br&gt;hypothetical protein&lt;br&gt;Location: 260085 - 258823" locus_tag="Z517_12196" class="clusterblast-orf" id="dummy-2_h2_7_6"  />
</g>
<g id="a2_007"  >
<polygon points="245,90 250,90 255,85 250,80 245,80 245,90 " style="fill:#d88015; stroke-width:1; stroke:black; " description="&lt;b&gt;Z517_12195&lt;/b&gt;&lt;br&gt;hypothetical protein&lt;br&gt;Location: 258207 - 257366&lt;br&gt;&lt;br&gt;&lt;b&gt;BlastP hit with input.path1.gene752&lt;/b&gt;&lt;br&gt;Percentage identity: 57&lt;br&gt;Percentage coverage: 93&lt;br&gt;BLAST bit score: 269&lt;br&gt;E-value: 1.22e-88" locus_tag="Z517_12195" class="clusterblast-orf" id="dummy-2_h2_7_7"  />
</g>
<g id="a2_008"  >
<polygon points="265,90 271,90 276,85 271,80 265,80 265,90 " style="fill:#15d839; stroke-width:1; stroke:black; " description="&lt;b&gt;Z517_12194&lt;/b&gt;&lt;br&gt;hypothetical protein&lt;br&gt;Location: 256605 - 255789&lt;br&gt;&lt;br&gt;&lt;b&gt;BlastP hit with input.path1.gene754&lt;/b&gt;&lt;br&gt;Percentage identity: 48&lt;br&gt;Percentage coverage: 95&lt;br&gt;BLAST bit score: 165&lt;br&gt;E-value: 1.06e-50" locus_tag="Z517_12194" class="clusterblast-orf" id="dummy-2_h2_7_8"  />
</g>
<g id="a2_009"  >
<polygon points="290,90 308,90 313,85 308,80 290,80 290,90 " style="fill:white; stroke-width:1; stroke:black; " description="&lt;b&gt;Z517_12193&lt;/b&gt;&lt;br&gt;hypothetical protein&lt;br&gt;Location: 254676 - 252891" locus_tag="Z517_12193" class="clusterblast-orf" id="dummy-2_h2_7_9"  />
</g>
<g id="a2_0010"  >
<polygon points="322,90 336,90 341,85 336,80 322,80 322,90 " style="fill:white; stroke-width:1; stroke:black; " description="&lt;b&gt;Z517_12192&lt;/b&gt;&lt;br&gt;hypothetical protein&lt;br&gt;Location: 252163 - 250704" locus_tag="Z517_12192" class="clusterblast-orf" id="dummy-2_h2_7_10"  />
</g>
<g id="a2_0011"  >
<polygon points="354,90 436,90 441,85 436,80 354,80 354,90 " style="fill:#5cd815; stroke-width:1; stroke:black; " description="&lt;b&gt;Z517_12191&lt;/b&gt;&lt;br&gt;hypothetical protein&lt;br&gt;Location: 249664 - 242844&lt;br&gt;&lt;br&gt;&lt;b&gt;BlastP hit with input.path1.gene748&lt;/b&gt;&lt;br&gt;Percentage identity: 39&lt;br&gt;Percentage coverage: 102&lt;br&gt;BLAST bit score: 1426&lt;br&gt;E-value: 0.0" locus_tag="Z517_12191" class="clusterblast-orf" id="dummy-2_h2_7_11"  />
</g>
<g id="a2_0012"  >
<polygon points="517,90 532,90 537,85 532,80 517,80 517,90 " style="fill:white; stroke-width:1; stroke:black; " description="&lt;b&gt;Z517_12190&lt;/b&gt;&lt;br&gt;hypothetical protein&lt;br&gt;Location: 236873 - 235348" locus_tag="Z517_12190" class="clusterblast-orf" id="dummy-2_h2_7_12"  />
</g>
<g id="a2_0013"  >
<polygon points="568,85 573,80 578,80 578,90 573,90 568,85 " style="fill:white; stroke-width:1; stroke:black; " description="&lt;b&gt;Z517_12189&lt;/b&gt;&lt;br&gt;hypothetical protein&lt;br&gt;Location: 232923 - 232132" locus_tag="Z517_12189" class="clusterblast-orf" id="dummy-2_h2_7_13"  />
</g>
<g id="a2_0014"  >
<polygon points="588,85 593,80 607,80 607,90 593,90 588,85 " style="fill:#d81515; stroke-width:1; stroke:black; " description="&lt;b&gt;Z517_12188&lt;/b&gt;&lt;br&gt;hypothetical protein&lt;br&gt;Location: 231362 - 229830&lt;br&gt;&lt;br&gt;&lt;b&gt;BlastP hit with input.path1.gene745&lt;/b&gt;&lt;br&gt;Percentage identity: 33&lt;br&gt;Percentage coverage: 96&lt;br&gt;BLAST bit score: 173&lt;br&gt;E-value: 1.58e-47" locus_tag="Z517_12188" class="clusterblast-orf" id="dummy-2_h2_7_14"  />
</g>
<g id="a2_0015"  >
<polygon points="622,85 627,80 653,80 653,90 627,90 622,85 " style="fill:white; stroke-width:1; stroke:black; " description="&lt;b&gt;Z517_12187&lt;/b&gt;&lt;br&gt;hypothetical protein&lt;br&gt;Location: 228670 - 226292" locus_tag="Z517_12187" class="clusterblast-orf" id="dummy-2_h2_7_15"  />
</g>
<g id="a2_0016"  >
<polygon points="665,85 670,80 692,80 692,90 670,90 665,85 " style="fill:white; stroke-width:1; stroke:black; " description="&lt;b&gt;Z517_12186&lt;/b&gt;&lt;br&gt;hypothetical protein&lt;br&gt;Location: 225326 - 223206" locus_tag="Z517_12186" class="clusterblast-orf" id="dummy-2_h2_7_16"  />
</g>
<g id="a2_0017"  >
<polygon points="708,85 713,80 721,80 721,90 713,90 708,85 " style="fill:white; stroke-width:1; stroke:black; " description="&lt;b&gt;Z517_12185&lt;/b&gt;&lt;br&gt;hypothetical protein&lt;br&gt;Location: 221983 - 220934" locus_tag="Z517_12185" class="clusterblast-orf" id="dummy-2_h2_7_17"  />
</g>
<g id="a2_0018"  >
<polygon points="729,90 742,90 747,85 742,80 729,80 729,90 " style="fill:white; stroke-width:1; stroke:black; " description="&lt;b&gt;Z517_12184&lt;/b&gt;&lt;br&gt;hypothetical protein&lt;br&gt;Location: 220308 - 218892" locus_tag="Z517_12184" class="clusterblast-orf" id="dummy-2_h2_7_18"  />
</g>
<g id="a2_0019"  >
<polygon points="757,85 762,80 780,80 780,90 762,90 757,85 " style="fill:white; stroke-width:1; stroke:black; " description="&lt;b&gt;Z517_12183&lt;/b&gt;&lt;br&gt;hypothetical protein&lt;br&gt;Location: 218119 - 216353" locus_tag="Z517_12183" class="clusterblast-orf" id="dummy-2_h2_7_19"  />
</g>
</svg>
