<svg xmlns="http://www.w3.org/2000/svg" xmlns:xlink="http://www.w3.org/1999/xlink" version="1.1" x="0" y="0" height="230" width="800" viewBox="0 0 800 230" preserveAspectRatio="none"  >
<g label="Query sequence" class="clusterblast-cluster"  >
<text x="5" y="20" class="clusterblast-acc"  >
Query sequence</text>
<line x1="10" y1="35" x2="778.0" y2="35" style="stroke-width:1; stroke:grey; "  />
<polygon points="179,35 183,30 183,40 179,35 " style="fill:white; stroke-width:1; stroke:black; " description="&lt;b&gt;input.path1.gene19&lt;/b&gt;&lt;br&gt;input.path1.gene19&lt;br&gt;Location: 145283 - 145667" locus_tag="input.path1.gene19" class="clusterblast-orf" id="dummy-1_q0_0_all"  />
<polygon points="192,40 201,40 206,35 201,30 192,30 192,40 " style="fill:#d81515; stroke-width:1; stroke:black; " description="&lt;b&gt;input.path1.gene20&lt;/b&gt;&lt;br&gt;input.path1.gene20&lt;br&gt;Location: 146580 - 147909" locus_tag="input.path1.gene20" class="clusterblast-orf" id="dummy-1_q1_0_all"  />
<polygon points="217,40 233,40 238,35 233,30 217,30 217,40 " style="fill:#15d815; stroke-width:1; stroke:black; " description="&lt;b&gt;input.path1.gene21&lt;/b&gt;&lt;br&gt;input.path1.gene21&lt;br&gt;Location: 148991 - 151103" locus_tag="input.path1.gene21" class="clusterblast-orf" id="dummy-1_q2_0_all"  />
<polygon points="239,35 244,30 244,30 244,40 244,40 239,35 " style="fill:white; stroke-width:1; stroke:black; " description="&lt;b&gt;input.path1.gene22&lt;/b&gt;&lt;br&gt;input.path1.gene22&lt;br&gt;Location: 151227 - 151649" locus_tag="input.path1.gene22" class="clusterblast-orf" id="dummy-1_q3_0_all"  />
<polygon points="262,40 313,40 318,35 313,30 262,30 262,40 " style="fill:#1515d8; stroke-width:1; stroke:black; " description="&lt;b&gt;input.path1.gene23&lt;/b&gt;&lt;br&gt;input.path1.gene23&lt;br&gt;Location: 153464 - 158950" locus_tag="input.path1.gene23" class="clusterblast-orf" id="dummy-1_q4_0_all"  />
<polygon points="329,35 334,30 352,30 352,40 334,40 329,35 " style="fill:white; stroke-width:1; stroke:black; " description="&lt;b&gt;input.path1.gene24&lt;/b&gt;&lt;br&gt;input.path1.gene24&lt;br&gt;Location: 160097 - 162388" locus_tag="input.path1.gene24" class="clusterblast-orf" id="dummy-1_q5_0_all"  />
<polygon points="360,40 395,40 400,35 395,30 360,30 360,40 " style="fill:#d815d8; stroke-width:1; stroke:black; " description="&lt;b&gt;input.path1.gene25&lt;/b&gt;&lt;br&gt;input.path1.gene25&lt;br&gt;Location: 163108 - 167130" locus_tag="input.path1.gene25" class="clusterblast-orf" id="dummy-1_q6_0_all"  />
<polygon points="417,35 422,30 444,30 444,40 422,40 417,35 " style="fill:white; stroke-width:1; stroke:black; " description="&lt;b&gt;input.path1.gene26&lt;/b&gt;&lt;br&gt;input.path1.gene26&lt;br&gt;Location: 168750 - 171411" locus_tag="input.path1.gene26" class="clusterblast-orf" id="dummy-1_q7_0_all"  />
<polygon points="477,35 482,30 503,30 503,40 482,40 477,35 " style="fill:#d8d815; stroke-width:1; stroke:black; " description="&lt;b&gt;input.path1.gene27&lt;/b&gt;&lt;br&gt;input.path1.gene27&lt;br&gt;Location: 174714 - 177293" locus_tag="input.path1.gene27" class="clusterblast-orf" id="dummy-1_q8_0_all"  />
<polygon points="508,35 513,30 542,30 542,40 513,40 508,35 " style="fill:white; stroke-width:1; stroke:black; " description="&lt;b&gt;input.path1.gene28&lt;/b&gt;&lt;br&gt;input.path1.gene28&lt;br&gt;Location: 177749 - 181114" locus_tag="input.path1.gene28" class="clusterblast-orf" id="dummy-1_q9_0_all"  />
<polygon points="551,40 561,40 566,35 561,30 551,30 551,40 " style="fill:#15d8d8; stroke-width:1; stroke:black; " description="&lt;b&gt;input.path1.gene29&lt;/b&gt;&lt;br&gt;input.path1.gene29&lt;br&gt;Location: 181960 - 183452" locus_tag="input.path1.gene29" class="clusterblast-orf" id="dummy-1_q10_0_all"  />
<polygon points="578,40 584,40 589,35 584,30 578,30 578,40 " style="fill:white; stroke-width:1; stroke:black; " description="&lt;b&gt;input.path1.gene30&lt;/b&gt;&lt;br&gt;input.path1.gene30&lt;br&gt;Location: 184714 - 185786" locus_tag="input.path1.gene30" class="clusterblast-orf" id="dummy-1_q11_0_all"  />
<polygon points="597,35 600,30 600,40 597,35 " style="fill:white; stroke-width:1; stroke:black; " description="&lt;b&gt;input.path1.gene31&lt;/b&gt;&lt;br&gt;input.path1.gene31&lt;br&gt;Location: 186544 - 186846" locus_tag="input.path1.gene31" class="clusterblast-orf" id="dummy-1_q12_0_all"  />
</g>
<g label="NW_006271975" description="NW_006271975 (307084-386893): Cordyceps militaris CM01 unplaced genomic scaff... (7% of genes show similarity), isocyanide-nrp" class="clusterblast-cluster"  >
<text x="5" y="70" class="clusterblast-acc"  >
<a xlink:href="https://antismash-db.secondarymetabolites.org/area?record=NW_006271975&amp;start=307084&amp;end=386893" target="_blank">NW_006271975 (307084-386893)</a>: Cordyceps militaris CM01 unplaced genomic scaff... (7% of genes show similarity), isocyanide-nrp</text>
<line x1="10" y1="85" x2="778.0" y2="85" style="stroke-width:1; stroke:grey; "  />
</g>
<g id="a1_000"  >
<polygon points="0,85 5,80 10,80 10,90 5,90 0,85 " style="fill:white; stroke-width:1; stroke:black; " description="&lt;b&gt;CCM_08343&lt;/b&gt;&lt;br&gt;hypothetical protein&lt;br&gt;Location: 384654 - 383608" locus_tag="CCM_08343" class="clusterblast-orf" id="dummy-1_h1_10_0"  />
</g>
<g id="a1_001"  >
<polygon points="23,90 55,90 60,85 55,80 23,80 23,90 " style="fill:white; stroke-width:1; stroke:black; " description="&lt;b&gt;CCM_08342&lt;/b&gt;&lt;br&gt;MFS transporter, putative&lt;br&gt;Location: 382330 - 378673" locus_tag="CCM_08342" class="clusterblast-orf" id="dummy-1_h1_10_1"  />
</g>
<g id="a1_002"  >
<polygon points="67,85 72,80 78,80 78,90 72,90 67,85 " style="fill:white; stroke-width:1; stroke:black; " description="&lt;b&gt;CCM_08341&lt;/b&gt;&lt;br&gt;hypothetical protein&lt;br&gt;Location: 377962 - 376918" locus_tag="CCM_08341" class="clusterblast-orf" id="dummy-1_h1_10_2"  />
</g>
<g id="a1_003"  >
<polygon points="84,90 86,90 91,85 86,80 84,80 84,90 " style="fill:white; stroke-width:1; stroke:black; " description="&lt;b&gt;CCM_08340&lt;/b&gt;&lt;br&gt;microsomal signal peptidase 18 kDa subunit&lt;br&gt;Location: 376265 - 375633" locus_tag="CCM_08340" class="clusterblast-orf" id="dummy-1_h1_10_3"  />
</g>
<g id="a1_004"  >
<polygon points="94,85 99,80 99,80 99,90 99,90 94,85 " style="fill:white; stroke-width:1; stroke:black; " description="&lt;b&gt;CCM_08339&lt;/b&gt;&lt;br&gt;hypothetical protein&lt;br&gt;Location: 375367 - 374819" locus_tag="CCM_08339" class="clusterblast-orf" id="dummy-1_h1_10_4"  />
</g>
<g id="a1_005"  >
<polygon points="105,85 110,80 115,80 115,90 110,90 105,85 " style="fill:white; stroke-width:1; stroke:black; " description="&lt;b&gt;CCM_08338&lt;/b&gt;&lt;br&gt;hypothetical protein&lt;br&gt;Location: 374223 - 373266" locus_tag="CCM_08338" class="clusterblast-orf" id="dummy-1_h1_10_5"  />
</g>
<g id="a1_006"  >
<polygon points="120,90 125,90 130,85 125,80 120,80 120,90 " style="fill:white; stroke-width:1; stroke:black; " description="&lt;b&gt;CCM_08337&lt;/b&gt;&lt;br&gt;hypothetical protein&lt;br&gt;Location: 372734 - 371721" locus_tag="CCM_08337" class="clusterblast-orf" id="dummy-1_h1_10_6"  />
</g>
<g id="a1_007"  >
<polygon points="156,90 169,90 174,85 169,80 156,80 156,90 " style="fill:white; stroke-width:1; stroke:black; " description="&lt;b&gt;CCM_08336&lt;/b&gt;&lt;br&gt;Amidase&lt;br&gt;Location: 369230 - 367456" locus_tag="CCM_08336" class="clusterblast-orf" id="dummy-1_h1_10_7"  />
</g>
<g id="a1_008"  >
<polygon points="210,90 221,90 226,85 221,80 210,80 210,90 " style="fill:white; stroke-width:1; stroke:black; " description="&lt;b&gt;CCM_08335&lt;/b&gt;&lt;br&gt;hypothetical protein&lt;br&gt;Location: 363838 - 362333" locus_tag="CCM_08335" class="clusterblast-orf" id="dummy-1_h1_10_8"  />
</g>
<g id="a1_009"  >
<polygon points="230,90 251,90 256,85 251,80 230,80 230,90 " style="fill:#1515d8; stroke-width:1; stroke:black; " description="&lt;b&gt;CCM_08334&lt;/b&gt;&lt;br&gt;kinesin family protein&lt;br&gt;Location: 361898 - 359373&lt;br&gt;&lt;br&gt;&lt;b&gt;BlastP hit with input.path1.gene23&lt;/b&gt;&lt;br&gt;Percentage identity: 34&lt;br&gt;Percentage coverage: 11&lt;br&gt;BLAST bit score: 81&lt;br&gt;E-value: 4.7e-13" locus_tag="CCM_08334" class="clusterblast-orf" id="dummy-1_h1_10_9"  />
</g>
<g id="a1_0010"  >
<polygon points="264,90 265,90 270,85 265,80 264,80 264,90 " style="fill:white; stroke-width:1; stroke:black; " description="&lt;b&gt;CCM_08333&lt;/b&gt;&lt;br&gt;hypothetical protein&lt;br&gt;Location: 358531 - 357962" locus_tag="CCM_08333" class="clusterblast-orf" id="dummy-1_h1_10_10"  />
</g>
<g id="a1_0011"  >
<polygon points="305,85 310,80 323,80 323,90 310,90 305,85 " style="fill:white; stroke-width:1; stroke:black; " description="&lt;b&gt;CCM_08332&lt;/b&gt;&lt;br&gt;hypothetical protein&lt;br&gt;Location: 354524 - 352707" locus_tag="CCM_08332" class="clusterblast-orf" id="dummy-1_h1_10_11"  />
</g>
<g id="a1_0012"  >
<polygon points="357,90 400,90 405,85 400,80 357,80 357,90 " style="fill:white; stroke-width:1; stroke:black; " description="&lt;b&gt;CCM_08331&lt;/b&gt;&lt;br&gt;transferase family protein&lt;br&gt;Location: 349393 - 344585" locus_tag="CCM_08331" class="clusterblast-orf" id="dummy-1_h1_10_12"  />
</g>
<g id="a1_0013"  >
<polygon points="411,90 424,90 429,85 424,80 411,80 411,90 " style="fill:white; stroke-width:1; stroke:black; " description="&lt;b&gt;CCM_08330&lt;/b&gt;&lt;br&gt;siderophore iron transporter mirB&lt;br&gt;Location: 343996 - 342275" locus_tag="CCM_08330" class="clusterblast-orf" id="dummy-1_h1_10_13"  />
</g>
<g id="a1_0014"  >
<polygon points="438,90 441,90 446,85 441,80 438,80 438,90 " style="fill:white; stroke-width:1; stroke:black; " description="&lt;b&gt;CCM_08329&lt;/b&gt;&lt;br&gt;BTB/POZ fold domain containing protein&lt;br&gt;Location: 341397 - 340516" locus_tag="CCM_08329" class="clusterblast-orf" id="dummy-1_h1_10_14"  />
</g>
<g id="a1_0015"  >
<polygon points="458,85 463,80 464,80 464,90 463,90 458,85 " style="fill:white; stroke-width:1; stroke:black; " description="&lt;b&gt;CCM_08328&lt;/b&gt;&lt;br&gt;hypothetical protein&lt;br&gt;Location: 339417 - 338771" locus_tag="CCM_08328" class="clusterblast-orf" id="dummy-1_h1_10_15"  />
</g>
<g id="a1_0016"  >
<polygon points="480,90 487,90 492,85 487,80 480,80 480,90 " style="fill:white; stroke-width:1; stroke:black; " description="&lt;b&gt;CCM_08327&lt;/b&gt;&lt;br&gt;Fatty acid hydroxylase&lt;br&gt;Location: 337191 - 336055" locus_tag="CCM_08327" class="clusterblast-orf" id="dummy-1_h1_10_16"  />
</g>
<g id="a1_0017"  >
<polygon points="537,85 542,80 547,80 547,90 542,90 537,85 " style="fill:white; stroke-width:1; stroke:black; " description="&lt;b&gt;CCM_08326&lt;/b&gt;&lt;br&gt;prenyltransferase, UbiA family protein&lt;br&gt;Location: 331587 - 330583" locus_tag="CCM_08326" class="clusterblast-orf" id="dummy-1_h1_10_17"  />
</g>
<g id="a1_0018"  >
<polygon points="553,90 554,90 559,85 554,80 553,80 553,90 " style="fill:white; stroke-width:1; stroke:black; " description="&lt;b&gt;CCM_08325&lt;/b&gt;&lt;br&gt;GCN5-related N-acetyltransferase&lt;br&gt;Location: 329990 - 329427" locus_tag="CCM_08325" class="clusterblast-orf" id="dummy-1_h1_10_18"  />
</g>
<g id="a1_0019"  >
<polygon points="567,90 572,90 577,85 572,80 567,80 567,90 " style="fill:#d81515; stroke-width:1; stroke:black; " description="&lt;b&gt;CCM_08324&lt;/b&gt;&lt;br&gt;Aminoglycoside phosphotransferase&lt;br&gt;Location: 328662 - 327655&lt;br&gt;&lt;br&gt;&lt;b&gt;BlastP hit with input.path1.gene20&lt;/b&gt;&lt;br&gt;Percentage identity: 32&lt;br&gt;Percentage coverage: 82&lt;br&gt;BLAST bit score: 177&lt;br&gt;E-value: 6.72e-50" locus_tag="CCM_08324" class="clusterblast-orf" id="dummy-1_h1_10_19"  />
</g>
<g id="a1_0020"  >
<polygon points="582,85 587,80 604,80 604,90 587,90 582,85 " style="fill:white; stroke-width:1; stroke:black; " description="&lt;b&gt;CCM_08323&lt;/b&gt;&lt;br&gt;non-hemolytic phospholipase C precursor, putative&lt;br&gt;Location: 327133 - 324993" locus_tag="CCM_08323" class="clusterblast-orf" id="dummy-1_h1_10_20"  />
</g>
<g id="a1_0021"  >
<polygon points="635,90 638,90 643,85 638,80 635,80 635,90 " style="fill:white; stroke-width:1; stroke:black; " description="&lt;b&gt;CCM_08322&lt;/b&gt;&lt;br&gt;hypothetical protein&lt;br&gt;Location: 321893 - 321109" locus_tag="CCM_08322" class="clusterblast-orf" id="dummy-1_h1_10_21"  />
</g>
<g id="a1_0022"  >
<polygon points="651,90 668,90 673,85 668,80 651,80 651,90 " style="fill:white; stroke-width:1; stroke:black; " description="&lt;b&gt;CCM_08321&lt;/b&gt;&lt;br&gt;ferro-O2-oxidoreductase&lt;br&gt;Location: 320354 - 318137" locus_tag="CCM_08321" class="clusterblast-orf" id="dummy-1_h1_10_22"  />
</g>
<g id="a1_0023"  >
<polygon points="680,90 692,90 697,85 692,80 680,80 680,90 " style="fill:white; stroke-width:1; stroke:black; " description="&lt;b&gt;CCM_08320&lt;/b&gt;&lt;br&gt;C6 zinc finger domain protein&lt;br&gt;Location: 317464 - 315745" locus_tag="CCM_08320" class="clusterblast-orf" id="dummy-1_h1_10_23"  />
</g>
<g id="a1_0024"  >
<polygon points="701,85 706,80 715,80 715,90 706,90 701,85 " style="fill:white; stroke-width:1; stroke:black; " description="&lt;b&gt;CCM_08319&lt;/b&gt;&lt;br&gt;oxidoreductase, zinc-binding dehydrogenase family, putative&lt;br&gt;Location: 315335 - 313975" locus_tag="CCM_08319" class="clusterblast-orf" id="dummy-1_h1_10_24"  />
</g>
<g id="a1_0025"  >
<polygon points="721,85 726,80 737,80 737,90 726,90 721,85 " style="fill:white; stroke-width:1; stroke:black; " description="&lt;b&gt;CCM_08318&lt;/b&gt;&lt;br&gt;xenobiotic compound monooxygenase, DszA family, putative&lt;br&gt;Location: 313371 - 311853" locus_tag="CCM_08318" class="clusterblast-orf" id="dummy-1_h1_10_25"  />
</g>
<g id="a1_0026"  >
<polygon points="742,90 775,90 780,85 775,80 742,80 742,90 " style="fill:white; stroke-width:1; stroke:black; " description="&lt;b&gt;CCM_08317&lt;/b&gt;&lt;br&gt;urea active transporter, putative&lt;br&gt;Location: 311374 - 307632" locus_tag="CCM_08317" class="clusterblast-orf" id="dummy-1_h1_10_26"  />
</g>
</svg>
