<svg xmlns="http://www.w3.org/2000/svg" xmlns:xlink="http://www.w3.org/1999/xlink" version="1.1" x="0" y="0" height="230" width="800" viewBox="0 0 800 230" preserveAspectRatio="none"  >
<g label="Query sequence" class="clusterblast-cluster"  >
<text x="5" y="20" class="clusterblast-acc"  >
Query sequence</text>
<line x1="10" y1="35" x2="778.0" y2="35" style="stroke-width:1; stroke:grey; "  />
<polygon points="0,35 5,30 36,30 36,40 5,40 0,35 " style="fill:#d81515; stroke-width:1; stroke:black; " description="&lt;b&gt;input.path1.gene787&lt;/b&gt;&lt;br&gt;input.path1.gene787&lt;br&gt;Location: 3856982 - 3858734" locus_tag="input.path1.gene787" class="clusterblast-orf" id="dummy-3_q0_0_all"  />
<polygon points="63,40 63,40 68,35 63,30 63,30 63,40 " style="fill:white; stroke-width:1; stroke:black; " description="&lt;b&gt;input.path1.gene788&lt;/b&gt;&lt;br&gt;input.path1.gene788&lt;br&gt;Location: 3860045 - 3860285" locus_tag="input.path1.gene788" class="clusterblast-orf" id="dummy-3_q1_0_all"  />
<polygon points="71,35 76,30 162,30 162,40 76,40 71,35 " style="fill:#d81515; stroke-width:1; stroke:black; " description="&lt;b&gt;input.path1.gene789&lt;/b&gt;&lt;br&gt;input.path1.gene789&lt;br&gt;Location: 3860401 - 3864789" locus_tag="input.path1.gene789" class="clusterblast-orf" id="dummy-3_q2_0_all"  />
<polygon points="199,35 204,30 227,30 227,40 204,40 199,35 " style="fill:white; stroke-width:1; stroke:black; " description="&lt;b&gt;input.path1.gene790&lt;/b&gt;&lt;br&gt;input.path1.gene790&lt;br&gt;Location: 3866553 - 3867901" locus_tag="input.path1.gene790" class="clusterblast-orf" id="dummy-3_q3_0_all"  />
<polygon points="637,40 656,40 661,35 656,30 637,30 637,40 " style="fill:#77d815; stroke-width:1; stroke:black; " description="&lt;b&gt;input.path1.gene791&lt;/b&gt;&lt;br&gt;input.path1.gene791&lt;br&gt;Location: 3887595 - 3888751" locus_tag="input.path1.gene791" class="clusterblast-orf" id="dummy-3_q4_0_all"  />
<polygon points="708,40 727,40 732,35 727,30 708,30 708,40 " style="fill:#15d8d8; stroke-width:1; stroke:black; " description="&lt;b&gt;input.path1.gene792&lt;/b&gt;&lt;br&gt;input.path1.gene792&lt;br&gt;Location: 3891010 - 3892164" locus_tag="input.path1.gene792" class="clusterblast-orf" id="dummy-3_q5_0_all"  />
<polygon points="737,35 742,30 780,30 780,40 742,40 737,35 " style="fill:#7715d8; stroke-width:1; stroke:black; " description="&lt;b&gt;input.path1.gene793&lt;/b&gt;&lt;br&gt;input.path1.gene793&lt;br&gt;Location: 3892414 - 3894445" locus_tag="input.path1.gene793" class="clusterblast-orf" id="dummy-3_q6_0_all"  />
</g>
<g label="BGC0001573" description="BGC0001573_c1: dihydrolysergic acid (50% of genes show similarity), Alkaloid" class="clusterblast-cluster"  >
<text x="5" y="70" class="clusterblast-acc"  >
<a xlink:href="https://mibig.secondarymetabolites.org/go/BGC0001573/1" target="_blank">BGC0001573</a>: dihydrolysergic acid                                                             (50% of genes show similarity), Alkaloid</text>
<line x1="10" y1="85" x2="778.0" y2="85" style="stroke-width:1; stroke:grey; "  />
</g>
<g id="a3_000"  >
<polygon points="136,90 163,90 168,85 163,80 136,80 136,90 " style="fill:#77d815; stroke-width:1; stroke:black; " description="&lt;b&gt;ARB50203.1&lt;/b&gt;&lt;br&gt;chanoclavine synthase catalase protein&lt;br&gt;Location: 1078 - 2609&lt;br&gt;&lt;br&gt;&lt;b&gt;BlastP hit with input.path1.gene791&lt;/b&gt;&lt;br&gt;Percentage identity: 70&lt;br&gt;Percentage coverage: 107&lt;br&gt;BLAST bit score: 377&lt;br&gt;E-value: 1.05e-130" locus_tag="ARB50203.1" class="clusterblast-orf" id="dummy-3_h3_3_0"  />
</g>
<g id="a3_001"  >
<polygon points="185,90 227,90 232,85 227,80 185,80 185,90 " style="fill:#15d8d8; stroke-width:1; stroke:black; " description="&lt;b&gt;ARB50204.1&lt;/b&gt;&lt;br&gt;clavine oxidase&lt;br&gt;Location: 3435 - 5669&lt;br&gt;&lt;br&gt;&lt;b&gt;BlastP hit with input.path1.gene792&lt;/b&gt;&lt;br&gt;Percentage identity: 56&lt;br&gt;Percentage coverage: 111&lt;br&gt;BLAST bit score: 316&lt;br&gt;E-value: 6.64e-106" locus_tag="ARB50204.1" class="clusterblast-orf" id="dummy-3_h3_3_1"  />
</g>
<g id="a3_002"  >
<polygon points="242,85 247,80 266,80 266,90 247,90 242,85 " style="fill:white; stroke-width:1; stroke:black; " description="&lt;b&gt;ARB50205.1&lt;/b&gt;&lt;br&gt;chanoclavine cyclase oxidoreducatase&lt;br&gt;Location: 6154 - 7308" locus_tag="ARB50205.1" class="clusterblast-orf" id="dummy-3_h3_3_2"  />
</g>
<g id="a3_003"  >
<polygon points="275,90 356,90 361,85 356,80 275,80 275,90 " style="fill:white; stroke-width:1; stroke:black; " description="&lt;b&gt;ARB50206.1&lt;/b&gt;&lt;br&gt;lysergyl peptide synthetase 2&lt;br&gt;Location: 7780 - 11900" locus_tag="ARB50206.1" class="clusterblast-orf" id="dummy-3_h3_3_3"  />
</g>
<g id="a3_004"  >
<polygon points="374,85 379,80 603,80 603,90 379,90 374,85 " style="fill:#d81515; stroke-width:1; stroke:black; " description="&lt;b&gt;ARB50207.1&lt;/b&gt;&lt;br&gt;lysergyl peptide synthetase 21&lt;br&gt;Location: 12510 - 23494&lt;br&gt;&lt;br&gt;&lt;b&gt;BlastP hit with input.path1.gene787&lt;/b&gt;&lt;br&gt;Percentage identity: 49&lt;br&gt;Percentage coverage: 100&lt;br&gt;BLAST bit score: 547&lt;br&gt;E-value: 7.11e-174&lt;br&gt;&lt;br&gt;&lt;b&gt;BlastP hit with input.path1.gene789&lt;/b&gt;&lt;br&gt;Percentage identity: 48&lt;br&gt;Percentage coverage: 106&lt;br&gt;BLAST bit score: 1271&lt;br&gt;E-value: 0.0" locus_tag="ARB50207.1" class="clusterblast-orf" id="dummy-3_h3_3_4"  />
</g>
<g id="a3_005"  >
<polygon points="624,90 638,90 643,85 638,80 624,80 624,90 " style="fill:white; stroke-width:1; stroke:black; " description="&lt;b&gt;ARB50208.1&lt;/b&gt;&lt;br&gt;putative dioxygenase&lt;br&gt;Location: 24518 - 25432" locus_tag="ARB50208.1" class="clusterblast-orf" id="dummy-3_h3_3_5"  />
</g>
</svg>
