<svg xmlns="http://www.w3.org/2000/svg" xmlns:xlink="http://www.w3.org/1999/xlink" version="1.1" x="0" y="0" height="230" width="800" viewBox="0 0 800 230" preserveAspectRatio="none"  >
<g label="Query sequence" class="clusterblast-cluster"  >
<text x="5" y="20" class="clusterblast-acc"  >
Query sequence</text>
<line x1="10" y1="35" x2="778.0" y2="35" style="stroke-width:1; stroke:grey; "  />
<polygon points="325,40 328,35 325,30 325,40 " style="fill:white; stroke-width:1; stroke:black; " description="&lt;b&gt;input.path1.gene26&lt;/b&gt;&lt;br&gt;input.path1.gene26&lt;br&gt;Location: 92879 - 93578" locus_tag="input.path1.gene26" class="clusterblast-orf" id="dummy-2_q0_0_all"  />
<polygon points="331,35 335,30 335,40 331,35 " style="fill:#d81515; stroke-width:1; stroke:black; " description="&lt;b&gt;input.path1.gene27&lt;/b&gt;&lt;br&gt;input.path1.gene27&lt;br&gt;Location: 94203 - 95318" locus_tag="input.path1.gene27" class="clusterblast-orf" id="dummy-2_q1_0_all"  />
<polygon points="336,35 341,30 352,30 352,40 341,40 336,35 " style="fill:#d81515; stroke-width:1; stroke:black; " description="&lt;b&gt;input.path1.gene28&lt;/b&gt;&lt;br&gt;input.path1.gene28&lt;br&gt;Location: 95447 - 99355" locus_tag="input.path1.gene28" class="clusterblast-orf" id="dummy-2_q2_0_all"  />
<polygon points="357,40 360,35 357,30 357,40 " style="fill:#15d8d8; stroke-width:1; stroke:black; " description="&lt;b&gt;input.path1.gene29&lt;/b&gt;&lt;br&gt;input.path1.gene29&lt;br&gt;Location: 100627 - 101221" locus_tag="input.path1.gene29" class="clusterblast-orf" id="dummy-2_q3_0_all"  />
<polygon points="366,40 378,40 383,35 378,30 366,30 366,40 " style="fill:#d81515; stroke-width:1; stroke:black; " description="&lt;b&gt;input.path1.gene30&lt;/b&gt;&lt;br&gt;input.path1.gene30&lt;br&gt;Location: 102765 - 106958" locus_tag="input.path1.gene30" class="clusterblast-orf" id="dummy-2_q4_0_all"  />
<polygon points="383,40 383,40 388,35 383,30 383,30 383,40 " style="fill:white; stroke-width:1; stroke:black; " description="&lt;b&gt;input.path1.gene31&lt;/b&gt;&lt;br&gt;input.path1.gene31&lt;br&gt;Location: 106985 - 107995" locus_tag="input.path1.gene31" class="clusterblast-orf" id="dummy-2_q5_0_all"  />
<polygon points="400,40 404,40 409,35 404,30 400,30 400,40 " style="fill:white; stroke-width:1; stroke:black; " description="&lt;b&gt;input.path1.gene32&lt;/b&gt;&lt;br&gt;input.path1.gene32&lt;br&gt;Location: 110985 - 113104" locus_tag="input.path1.gene32" class="clusterblast-orf" id="dummy-2_q6_0_all"  />
<polygon points="418,35 421,30 421,40 418,35 " style="fill:white; stroke-width:1; stroke:black; " description="&lt;b&gt;input.path1.gene33&lt;/b&gt;&lt;br&gt;input.path1.gene33&lt;br&gt;Location: 115279 - 116036" locus_tag="input.path1.gene33" class="clusterblast-orf" id="dummy-2_q7_0_all"  />
<polygon points="428,35 433,30 436,30 436,40 433,40 428,35 " style="fill:white; stroke-width:1; stroke:black; " description="&lt;b&gt;input.path1.gene34&lt;/b&gt;&lt;br&gt;input.path1.gene34&lt;br&gt;Location: 117782 - 119660" locus_tag="input.path1.gene34" class="clusterblast-orf" id="dummy-2_q8_0_all"  />
<polygon points="450,40 454,35 450,30 450,40 " style="fill:white; stroke-width:1; stroke:black; " description="&lt;b&gt;input.path1.gene35&lt;/b&gt;&lt;br&gt;input.path1.gene35&lt;br&gt;Location: 123102 - 124043" locus_tag="input.path1.gene35" class="clusterblast-orf" id="dummy-2_q9_0_all"  />
</g>
<g label="NZ_CP050976" description="NZ_CP050976 (8328115-8518842): Streptomyces sp. RPA4-5 chromosome (16% of genes show similarity), RiPP-like,T1PKS" class="clusterblast-cluster"  >
<text x="5" y="70" class="clusterblast-acc"  >
<a xlink:href="https://antismash-db.secondarymetabolites.org/area?record=NZ_CP050976&amp;start=8328115&amp;end=8518842" target="_blank">NZ_CP050976 (8328115-8518842)</a>: Streptomyces sp. RPA4-5 chromosome (16% of genes show similarity), RiPP-like,T1PKS</text>
<line x1="10" y1="85" x2="778.0" y2="85" style="stroke-width:1; stroke:grey; "  />
</g>
<g id="a2_000"  >
<polygon points="0,85 5,80 5,80 5,90 5,90 0,85 " style="fill:white; stroke-width:1; stroke:black; " description="&lt;b&gt;HEP86_RS36885&lt;/b&gt;&lt;br&gt;ATP-binding protein&lt;br&gt;Location: 8328169 - 8329611" locus_tag="HEP86_RS36885" class="clusterblast-orf" id="dummy-2_h2_6_0"  />
</g>
<g id="a2_001"  >
<polygon points="6,85 7,80 7,90 6,85 " style="fill:white; stroke-width:1; stroke:black; " description="&lt;b&gt;HEP86_RS36890&lt;/b&gt;&lt;br&gt;hypothetical protein&lt;br&gt;Location: 8329723 - 8329917" locus_tag="HEP86_RS36890" class="clusterblast-orf" id="dummy-2_h2_6_1"  />
</g>
<g id="a2_002"  >
<polygon points="11,85 12,80 12,90 11,85 " style="fill:white; stroke-width:1; stroke:black; " description="&lt;b&gt;HEP86_RS36895&lt;/b&gt;&lt;br&gt;ATP-binding protein&lt;br&gt;Location: 8330845 - 8331243" locus_tag="HEP86_RS36895" class="clusterblast-orf" id="dummy-2_h2_6_2"  />
</g>
<g id="a2_003"  >
<polygon points="14,90 15,90 20,85 15,80 14,80 14,90 " style="fill:white; stroke-width:1; stroke:black; " description="&lt;b&gt;HEP86_RS36900&lt;/b&gt;&lt;br&gt;hypothetical protein&lt;br&gt;Location: 8331633 - 8333069" locus_tag="HEP86_RS36900" class="clusterblast-orf" id="dummy-2_h2_6_3"  />
</g>
<g id="a2_004"  >
<polygon points="20,90 22,85 20,80 20,90 " style="fill:white; stroke-width:1; stroke:black; " description="&lt;b&gt;HEP86_RS36905&lt;/b&gt;&lt;br&gt;GNAT family N-acetyltransferase&lt;br&gt;Location: 8333066 - 8333581" locus_tag="HEP86_RS36905" class="clusterblast-orf" id="dummy-2_h2_6_4"  />
</g>
<g id="a2_005"  >
<polygon points="22,90 23,85 22,80 22,90 " style="fill:white; stroke-width:1; stroke:black; " description="&lt;b&gt;HEP86_RS41245&lt;/b&gt;&lt;br&gt;transposase&lt;br&gt;Location: 8333569 - 8333756" locus_tag="HEP86_RS41245" class="clusterblast-orf" id="dummy-2_h2_6_5"  />
</g>
<g id="a2_006"  >
<polygon points="23,85 26,80 26,90 23,85 " style="fill:white; stroke-width:1; stroke:black; " description="&lt;b&gt;HEP86_RS36910&lt;/b&gt;&lt;br&gt;IS982 family transposase&lt;br&gt;Location: 8333787 - 8334680" locus_tag="HEP86_RS36910" class="clusterblast-orf" id="dummy-2_h2_6_6"  />
</g>
<g id="a2_007"  >
<polygon points="26,85 31,80 39,80 39,90 31,90 26,85 " style="fill:white; stroke-width:1; stroke:black; " description="&lt;b&gt;HEP86_RS36915&lt;/b&gt;&lt;br&gt;LuxR family transcriptional regulator&lt;br&gt;Location: 8334625 - 8337651" locus_tag="HEP86_RS36915" class="clusterblast-orf" id="dummy-2_h2_6_7"  />
</g>
<g id="a2_008"  >
<polygon points="41,90 44,85 41,80 41,90 " style="fill:white; stroke-width:1; stroke:black; " description="&lt;b&gt;HEP86_RS36920&lt;/b&gt;&lt;br&gt;alpha/beta fold hydrolase&lt;br&gt;Location: 8338179 - 8338916" locus_tag="HEP86_RS36920" class="clusterblast-orf" id="dummy-2_h2_6_8"  />
</g>
<g id="a2_009"  >
<polygon points="44,90 45,90 50,85 45,80 44,80 44,90 " style="fill:white; stroke-width:1; stroke:black; " description="&lt;b&gt;HEP86_RS36925&lt;/b&gt;&lt;br&gt;crotonyl-CoA carboxylase/reductase&lt;br&gt;Location: 8339025 - 8340278" locus_tag="HEP86_RS36925" class="clusterblast-orf" id="dummy-2_h2_6_9"  />
</g>
<g id="a2_0010"  >
<polygon points="50,90 75,90 80,85 75,80 50,80 50,90 " style="fill:#d81515; stroke-width:1; stroke:black; " description="&lt;b&gt;HEP86_RS36935&lt;/b&gt;&lt;br&gt;SDR family NAD(P)-dependent oxidoreductase&lt;br&gt;Location: 8340408 - 8347690&lt;br&gt;&lt;br&gt;&lt;b&gt;BlastP hit with input.path1.gene30&lt;/b&gt;&lt;br&gt;Percentage identity: 44&lt;br&gt;Percentage coverage: 19&lt;br&gt;BLAST bit score: 149&lt;br&gt;E-value: 4.78e-35" locus_tag="HEP86_RS36935" class="clusterblast-orf" id="dummy-2_h2_6_10"  />
</g>
<g id="a2_0011"  >
<polygon points="82,90 147,90 152,85 147,80 82,80 82,90 " style="fill:#d81515; stroke-width:1; stroke:black; " description="&lt;b&gt;HEP86_RS41250&lt;/b&gt;&lt;br&gt;SDR family NAD(P)-dependent oxidoreductase&lt;br&gt;Location: 8348116 - 8365140&lt;br&gt;&lt;br&gt;&lt;b&gt;BlastP hit with input.path1.gene30&lt;/b&gt;&lt;br&gt;Percentage identity: 44&lt;br&gt;Percentage coverage: 19&lt;br&gt;BLAST bit score: 146&lt;br&gt;E-value: 3.2e-33" locus_tag="HEP86_RS41250" class="clusterblast-orf" id="dummy-2_h2_6_11"  />
</g>
<g id="a2_0012"  >
<polygon points="152,90 162,90 167,85 162,80 152,80 152,90 " style="fill:white; stroke-width:1; stroke:black; " description="&lt;b&gt;HEP86_RS36975&lt;/b&gt;&lt;br&gt;type I polyketide synthase&lt;br&gt;Location: 8365183 - 8368752" locus_tag="HEP86_RS36975" class="clusterblast-orf" id="dummy-2_h2_6_12"  />
</g>
<g id="a2_0013"  >
<polygon points="167,90 168,90 173,85 168,80 167,80 167,90 " style="fill:white; stroke-width:1; stroke:black; " description="&lt;b&gt;HEP86_RS41255&lt;/b&gt;&lt;br&gt;SDR family NAD(P)-dependent oxidoreductase&lt;br&gt;Location: 8368749 - 8370062" locus_tag="HEP86_RS41255" class="clusterblast-orf" id="dummy-2_h2_6_13"  />
</g>
<g id="a2_0014"  >
<polygon points="173,90 179,90 184,85 179,80 173,80 173,90 " style="fill:white; stroke-width:1; stroke:black; " description="&lt;b&gt;HEP86_RS41260&lt;/b&gt;&lt;br&gt;type I polyketide synthase&lt;br&gt;Location: 8370171 - 8372876" locus_tag="HEP86_RS41260" class="clusterblast-orf" id="dummy-2_h2_6_14"  />
</g>
<g id="a2_0015"  >
<polygon points="184,90 216,90 221,85 216,80 184,80 184,90 " style="fill:white; stroke-width:1; stroke:black; " description="&lt;b&gt;HEP86_RS41265&lt;/b&gt;&lt;br&gt;SDR family NAD(P)-dependent oxidoreductase&lt;br&gt;Location: 8372880 - 8381708" locus_tag="HEP86_RS41265" class="clusterblast-orf" id="dummy-2_h2_6_15"  />
</g>
<g id="a2_0016"  >
<polygon points="222,90 228,90 233,85 228,80 222,80 222,90 " style="fill:white; stroke-width:1; stroke:black; " description="&lt;b&gt;HEP86_RS41270&lt;/b&gt;&lt;br&gt;type I polyketide synthase&lt;br&gt;Location: 8382039 - 8384678" locus_tag="HEP86_RS41270" class="clusterblast-orf" id="dummy-2_h2_6_16"  />
</g>
<g id="a2_0017"  >
<polygon points="233,85 238,80 238,80 238,90 238,90 233,85 " style="fill:white; stroke-width:1; stroke:black; " description="&lt;b&gt;HEP86_RS37010&lt;/b&gt;&lt;br&gt;cytochrome P450&lt;br&gt;Location: 8384768 - 8385991" locus_tag="HEP86_RS37010" class="clusterblast-orf" id="dummy-2_h2_6_17"  />
</g>
<g id="a2_0018"  >
<polygon points="240,90 250,90 255,85 250,80 240,80 240,90 " style="fill:white; stroke-width:1; stroke:black; " description="&lt;b&gt;HEP86_RS37015&lt;/b&gt;&lt;br&gt;type I polyketide synthase&lt;br&gt;Location: 8386280 - 8389972" locus_tag="HEP86_RS37015" class="clusterblast-orf" id="dummy-2_h2_6_18"  />
</g>
<g id="a2_0019"  >
<polygon points="255,90 257,85 255,80 255,90 " style="fill:white; stroke-width:1; stroke:black; " description="&lt;b&gt;HEP86_RS37020&lt;/b&gt;&lt;br&gt;hypothetical protein&lt;br&gt;Location: 8389954 - 8390577" locus_tag="HEP86_RS37020" class="clusterblast-orf" id="dummy-2_h2_6_19"  />
</g>
<g id="a2_0020"  >
<polygon points="257,90 302,90 307,85 302,80 257,80 257,90 " style="fill:white; stroke-width:1; stroke:black; " description="&lt;b&gt;HEP86_RS41275&lt;/b&gt;&lt;br&gt;SDR family NAD(P)-dependent oxidoreductase&lt;br&gt;Location: 8390559 - 8402639" locus_tag="HEP86_RS41275" class="clusterblast-orf" id="dummy-2_h2_6_20"  />
</g>
<g id="a2_0021"  >
<polygon points="307,90 313,90 318,85 313,80 307,80 307,90 " style="fill:#d81515; stroke-width:1; stroke:black; " description="&lt;b&gt;HEP86_RS37060&lt;/b&gt;&lt;br&gt;type I polyketide synthase&lt;br&gt;Location: 8402657 - 8405335&lt;br&gt;&lt;br&gt;&lt;b&gt;BlastP hit with input.path1.gene30&lt;/b&gt;&lt;br&gt;Percentage identity: 43&lt;br&gt;Percentage coverage: 21&lt;br&gt;BLAST bit score: 147&lt;br&gt;E-value: 6.22e-34" locus_tag="HEP86_RS37060" class="clusterblast-orf" id="dummy-2_h2_6_21"  />
</g>
<g id="a2_0022"  >
<polygon points="320,90 323,85 320,80 320,90 " style="fill:white; stroke-width:1; stroke:black; " description="&lt;b&gt;HEP86_RS41280&lt;/b&gt;&lt;br&gt;SDR family NAD(P)-dependent oxidoreductase&lt;br&gt;Location: 8405861 - 8406470" locus_tag="HEP86_RS41280" class="clusterblast-orf" id="dummy-2_h2_6_22"  />
</g>
<g id="a2_0023"  >
<polygon points="324,90 326,85 324,80 324,90 " style="fill:white; stroke-width:1; stroke:black; " description="&lt;b&gt;HEP86_RS41285&lt;/b&gt;&lt;br&gt;beta-ketoacyl reductase&lt;br&gt;Location: 8406621 - 8407298" locus_tag="HEP86_RS41285" class="clusterblast-orf" id="dummy-2_h2_6_23"  />
</g>
<g id="a2_0024"  >
<polygon points="327,90 336,90 341,85 336,80 327,80 327,90 " style="fill:#d81515; stroke-width:1; stroke:black; " description="&lt;b&gt;HEP86_RS41290&lt;/b&gt;&lt;br&gt;acyltransferase domain-containing protein&lt;br&gt;Location: 8407318 - 8410908&lt;br&gt;&lt;br&gt;&lt;b&gt;BlastP hit with input.path1.gene30&lt;/b&gt;&lt;br&gt;Percentage identity: 42&lt;br&gt;Percentage coverage: 21&lt;br&gt;BLAST bit score: 144&lt;br&gt;E-value: 1.19e-32" locus_tag="HEP86_RS41290" class="clusterblast-orf" id="dummy-2_h2_6_24"  />
</g>
<g id="a2_0025"  >
<polygon points="341,90 355,90 360,85 355,80 341,80 341,90 " style="fill:#d81515; stroke-width:1; stroke:black; " description="&lt;b&gt;HEP86_RS41295&lt;/b&gt;&lt;br&gt;type I polyketide synthase&lt;br&gt;Location: 8410902 - 8415413&lt;br&gt;&lt;br&gt;&lt;b&gt;BlastP hit with input.path1.gene30&lt;/b&gt;&lt;br&gt;Percentage identity: 34&lt;br&gt;Percentage coverage: 33&lt;br&gt;BLAST bit score: 142&lt;br&gt;E-value: 5.7e-32" locus_tag="HEP86_RS41295" class="clusterblast-orf" id="dummy-2_h2_6_25"  />
</g>
<g id="a2_0026"  >
<polygon points="360,90 363,90 368,85 363,80 360,80 360,90 " style="fill:white; stroke-width:1; stroke:black; " description="&lt;b&gt;HEP86_RS39985&lt;/b&gt;&lt;br&gt;SDR family NAD(P)-dependent oxidoreductase&lt;br&gt;Location: 8415361 - 8417427" locus_tag="HEP86_RS39985" class="clusterblast-orf" id="dummy-2_h2_6_26"  />
</g>
<g id="a2_0027"  >
<polygon points="370,90 372,85 370,80 370,90 " style="fill:white; stroke-width:1; stroke:black; " description="&lt;b&gt;HEP86_RS41300&lt;/b&gt;&lt;br&gt;acyl carrier protein&lt;br&gt;Location: 8417767 - 8418246" locus_tag="HEP86_RS41300" class="clusterblast-orf" id="dummy-2_h2_6_27"  />
</g>
<g id="a2_0028"  >
<polygon points="373,85 375,80 375,90 373,85 " style="fill:white; stroke-width:1; stroke:black; " description="&lt;b&gt;HEP86_RS37085&lt;/b&gt;&lt;br&gt;response regulator transcription factor&lt;br&gt;Location: 8418464 - 8419102" locus_tag="HEP86_RS37085" class="clusterblast-orf" id="dummy-2_h2_6_28"  />
</g>
<g id="a2_0029"  >
<polygon points="375,85 380,80 380,80 380,90 380,90 375,85 " style="fill:white; stroke-width:1; stroke:black; " description="&lt;b&gt;HEP86_RS37090&lt;/b&gt;&lt;br&gt;sensor histidine kinase&lt;br&gt;Location: 8419099 - 8420334" locus_tag="HEP86_RS37090" class="clusterblast-orf" id="dummy-2_h2_6_29"  />
</g>
<g id="a2_0030"  >
<polygon points="381,85 384,80 384,90 381,85 " style="fill:white; stroke-width:1; stroke:black; " description="&lt;b&gt;HEP86_RS37095&lt;/b&gt;&lt;br&gt;ABC transporter permease&lt;br&gt;Location: 8420411 - 8421139" locus_tag="HEP86_RS37095" class="clusterblast-orf" id="dummy-2_h2_6_30"  />
</g>
<g id="a2_0031"  >
<polygon points="384,85 388,80 388,90 384,85 " style="fill:white; stroke-width:1; stroke:black; " description="&lt;b&gt;HEP86_RS37100&lt;/b&gt;&lt;br&gt;ABC transporter ATP-binding protein&lt;br&gt;Location: 8421199 - 8422116" locus_tag="HEP86_RS37100" class="clusterblast-orf" id="dummy-2_h2_6_31"  />
</g>
<g id="a2_0032"  >
<polygon points="389,90 389,90 394,85 389,80 389,80 389,90 " style="fill:white; stroke-width:1; stroke:black; " description="&lt;b&gt;HEP86_RS37105&lt;/b&gt;&lt;br&gt;cytochrome P450&lt;br&gt;Location: 8422379 - 8423617" locus_tag="HEP86_RS37105" class="clusterblast-orf" id="dummy-2_h2_6_32"  />
</g>
<g id="a2_0033"  >
<polygon points="394,90 398,85 394,80 394,90 " style="fill:white; stroke-width:1; stroke:black; " description="&lt;b&gt;HEP86_RS37110&lt;/b&gt;&lt;br&gt;ATP-binding cassette domain-containing protein&lt;br&gt;Location: 8423718 - 8424719" locus_tag="HEP86_RS37110" class="clusterblast-orf" id="dummy-2_h2_6_33"  />
</g>
<g id="a2_0034"  >
<polygon points="398,90 402,85 398,80 398,90 " style="fill:white; stroke-width:1; stroke:black; " description="&lt;b&gt;HEP86_RS37115&lt;/b&gt;&lt;br&gt;ABC transporter permease&lt;br&gt;Location: 8424719 - 8425555" locus_tag="HEP86_RS37115" class="clusterblast-orf" id="dummy-2_h2_6_34"  />
</g>
<g id="a2_0035"  >
<polygon points="403,90 483,90 488,85 483,80 403,80 403,90 " style="fill:#d81515; stroke-width:1; stroke:black; " description="&lt;b&gt;HEP86_RS41305&lt;/b&gt;&lt;br&gt;SDR family NAD(P)-dependent oxidoreductase&lt;br&gt;Location: 8425852 - 8446392&lt;br&gt;&lt;br&gt;&lt;b&gt;BlastP hit with input.path1.gene27&lt;/b&gt;&lt;br&gt;Percentage identity: 37&lt;br&gt;Percentage coverage: 35&lt;br&gt;BLAST bit score: 66&lt;br&gt;E-value: 1.98e-09&lt;br&gt;&lt;br&gt;&lt;b&gt;BlastP hit with input.path1.gene30&lt;/b&gt;&lt;br&gt;Percentage identity: 31&lt;br&gt;Percentage coverage: 40&lt;br&gt;BLAST bit score: 149&lt;br&gt;E-value: 3.65e-34" locus_tag="HEP86_RS41305" class="clusterblast-orf" id="dummy-2_h2_6_35"  />
</g>
<g id="a2_0036"  >
<polygon points="488,90 491,90 496,85 491,80 488,80 488,90 " style="fill:white; stroke-width:1; stroke:black; " description="&lt;b&gt;HEP86_RS41310&lt;/b&gt;&lt;br&gt;acyltransferase domain-containing protein&lt;br&gt;Location: 8446299 - 8448296" locus_tag="HEP86_RS41310" class="clusterblast-orf" id="dummy-2_h2_6_36"  />
</g>
<g id="a2_0037"  >
<polygon points="495,90 554,90 559,85 554,80 495,80 495,90 " style="fill:white; stroke-width:1; stroke:black; " description="&lt;b&gt;HEP86_RS41315&lt;/b&gt;&lt;br&gt;SDR family NAD(P)-dependent oxidoreductase&lt;br&gt;Location: 8448185 - 8463556" locus_tag="HEP86_RS41315" class="clusterblast-orf" id="dummy-2_h2_6_37"  />
</g>
<g id="a2_0038"  >
<polygon points="559,90 559,85 559,80 559,90 " style="fill:white; stroke-width:1; stroke:black; " description="&lt;b&gt;HEP86_RS41320&lt;/b&gt;&lt;br&gt;hypothetical protein&lt;br&gt;Location: 8463593 - 8463640" locus_tag="HEP86_RS41320" class="clusterblast-orf" id="dummy-2_h2_6_38"  />
</g>
<g id="a2_0039"  >
<polygon points="559,90 569,90 574,85 569,80 559,80 559,90 " style="fill:#d81515; stroke-width:1; stroke:black; " description="&lt;b&gt;HEP86_RS37210&lt;/b&gt;&lt;br&gt;type I polyketide synthase&lt;br&gt;Location: 8463692 - 8467102&lt;br&gt;&lt;br&gt;&lt;b&gt;BlastP hit with input.path1.gene30&lt;/b&gt;&lt;br&gt;Percentage identity: 38&lt;br&gt;Percentage coverage: 23&lt;br&gt;BLAST bit score: 144&lt;br&gt;E-value: 8.52e-33" locus_tag="HEP86_RS37210" class="clusterblast-orf" id="dummy-2_h2_6_39"  />
</g>
<g id="a2_0040"  >
<polygon points="575,90 600,90 605,85 600,80 575,80 575,90 " style="fill:#d81515; stroke-width:1; stroke:black; " description="&lt;b&gt;HEP86_RS37215&lt;/b&gt;&lt;br&gt;SDR family NAD(P)-dependent oxidoreductase&lt;br&gt;Location: 8467485 - 8474669&lt;br&gt;&lt;br&gt;&lt;b&gt;BlastP hit with input.path1.gene28&lt;/b&gt;&lt;br&gt;Percentage identity: 32&lt;br&gt;Percentage coverage: 13&lt;br&gt;BLAST bit score: 68&lt;br&gt;E-value: 3.63e-09&lt;br&gt;&lt;br&gt;&lt;b&gt;BlastP hit with input.path1.gene30&lt;/b&gt;&lt;br&gt;Percentage identity: 42&lt;br&gt;Percentage coverage: 19&lt;br&gt;BLAST bit score: 142&lt;br&gt;E-value: 5.42e-32" locus_tag="HEP86_RS37215" class="clusterblast-orf" id="dummy-2_h2_6_40"  />
</g>
<g id="a2_0041"  >
<polygon points="605,90 662,90 667,85 662,80 605,80 605,90 " style="fill:#d81515; stroke-width:1; stroke:black; " description="&lt;b&gt;HEP86_RS41325&lt;/b&gt;&lt;br&gt;SDR family NAD(P)-dependent oxidoreductase&lt;br&gt;Location: 8474685 - 8489840&lt;br&gt;&lt;br&gt;&lt;b&gt;BlastP hit with input.path1.gene30&lt;/b&gt;&lt;br&gt;Percentage identity: 31&lt;br&gt;Percentage coverage: 40&lt;br&gt;BLAST bit score: 147&lt;br&gt;E-value: 2.39e-33" locus_tag="HEP86_RS41325" class="clusterblast-orf" id="dummy-2_h2_6_41"  />
</g>
<g id="a2_0042"  >
<polygon points="667,90 700,90 705,85 700,80 667,80 667,90 " style="fill:#d81515; stroke-width:1; stroke:black; " description="&lt;b&gt;HEP86_RS37255&lt;/b&gt;&lt;br&gt;SDR family NAD(P)-dependent oxidoreductase&lt;br&gt;Location: 8489837 - 8498842&lt;br&gt;&lt;br&gt;&lt;b&gt;BlastP hit with input.path1.gene30&lt;/b&gt;&lt;br&gt;Percentage identity: 45&lt;br&gt;Percentage coverage: 19&lt;br&gt;BLAST bit score: 148&lt;br&gt;E-value: 9.51e-34" locus_tag="HEP86_RS37255" class="clusterblast-orf" id="dummy-2_h2_6_42"  />
</g>
<g id="a2_0043"  >
<polygon points="705,85 708,80 708,90 705,85 " style="fill:white; stroke-width:1; stroke:black; " description="&lt;b&gt;HEP86_RS41330&lt;/b&gt;&lt;br&gt;magnesium and cobalt transport protein CorA&lt;br&gt;Location: 8498915 - 8499620" locus_tag="HEP86_RS41330" class="clusterblast-orf" id="dummy-2_h2_6_43"  />
</g>
<g id="a2_0044"  >
<polygon points="708,85 709,80 709,90 708,85 " style="fill:white; stroke-width:1; stroke:black; " description="&lt;b&gt;HEP86_RS41335&lt;/b&gt;&lt;br&gt;glycoside hydrolase family 15 protein&lt;br&gt;Location: 8499625 - 8499894" locus_tag="HEP86_RS41335" class="clusterblast-orf" id="dummy-2_h2_6_44"  />
</g>
<g id="a2_0045"  >
<polygon points="710,85 711,80 711,90 710,85 " style="fill:white; stroke-width:1; stroke:black; " description="&lt;b&gt;HEP86_RS37270&lt;/b&gt;&lt;br&gt;hypothetical protein&lt;br&gt;Location: 8500081 - 8500266" locus_tag="HEP86_RS37270" class="clusterblast-orf" id="dummy-2_h2_6_45"  />
</g>
<g id="a2_0046"  >
<polygon points="713,90 716,85 713,80 713,90 " style="fill:white; stroke-width:1; stroke:black; " description="&lt;b&gt;HEP86_RS37275&lt;/b&gt;&lt;br&gt;IS5 family transposase&lt;br&gt;Location: 8500783 - 8501574" locus_tag="HEP86_RS37275" class="clusterblast-orf" id="dummy-2_h2_6_46"  />
</g>
<g id="a2_0047"  >
<polygon points="716,85 718,80 718,90 716,85 " style="fill:white; stroke-width:1; stroke:black; " description="&lt;b&gt;HEP86_RS37280&lt;/b&gt;&lt;br&gt;hypothetical protein&lt;br&gt;Location: 8501531 - 8502067" locus_tag="HEP86_RS37280" class="clusterblast-orf" id="dummy-2_h2_6_47"  />
</g>
<g id="a2_0048"  >
<polygon points="719,90 719,90 724,85 719,80 719,80 719,90 " style="fill:white; stroke-width:1; stroke:black; " description="&lt;b&gt;HEP86_RS37285&lt;/b&gt;&lt;br&gt;IS4 family transposase&lt;br&gt;Location: 8502246 - 8503430" locus_tag="HEP86_RS37285" class="clusterblast-orf" id="dummy-2_h2_6_48"  />
</g>
<g id="a2_0049"  >
<polygon points="725,90 725,90 730,85 725,80 725,80 725,90 " style="fill:white; stroke-width:1; stroke:black; " description="&lt;b&gt;HEP86_RS37290&lt;/b&gt;&lt;br&gt;competence protein CoiA&lt;br&gt;Location: 8503680 - 8504990" locus_tag="HEP86_RS37290" class="clusterblast-orf" id="dummy-2_h2_6_49"  />
</g>
<g id="a2_0050"  >
<polygon points="730,85 732,80 732,90 730,85 " style="fill:white; stroke-width:1; stroke:black; " description="&lt;b&gt;HEP86_RS37295&lt;/b&gt;&lt;br&gt;hypothetical protein&lt;br&gt;Location: 8505092 - 8505376" locus_tag="HEP86_RS37295" class="clusterblast-orf" id="dummy-2_h2_6_50"  />
</g>
<g id="a2_0051"  >
<polygon points="733,90 734,90 739,85 734,80 733,80 733,90 " style="fill:white; stroke-width:1; stroke:black; " description="&lt;b&gt;HEP86_RS37300&lt;/b&gt;&lt;br&gt;ISL3 family transposase&lt;br&gt;Location: 8505740 - 8507125" locus_tag="HEP86_RS37300" class="clusterblast-orf" id="dummy-2_h2_6_51"  />
</g>
<g id="a2_0052"  >
<polygon points="740,85 744,80 744,90 740,85 " style="fill:white; stroke-width:1; stroke:black; " description="&lt;b&gt;HEP86_RS37305&lt;/b&gt;&lt;br&gt;IS982 family transposase&lt;br&gt;Location: 8507407 - 8508289" locus_tag="HEP86_RS37305" class="clusterblast-orf" id="dummy-2_h2_6_52"  />
</g>
<g id="a2_0053"  >
<polygon points="745,85 747,80 747,90 745,85 " style="fill:white; stroke-width:1; stroke:black; " description="&lt;b&gt;HEP86_RS37310&lt;/b&gt;&lt;br&gt;ATP-binding cassette domain-containing protein&lt;br&gt;Location: 8508523 - 8509179" locus_tag="HEP86_RS37310" class="clusterblast-orf" id="dummy-2_h2_6_53"  />
</g>
<g id="a2_0054"  >
<polygon points="748,85 753,80 756,80 756,90 753,90 748,85 " style="fill:white; stroke-width:1; stroke:black; " description="&lt;b&gt;HEP86_RS37315&lt;/b&gt;&lt;br&gt;hypothetical protein&lt;br&gt;Location: 8509233 - 8511335" locus_tag="HEP86_RS37315" class="clusterblast-orf" id="dummy-2_h2_6_54"  />
</g>
<g id="a2_0055"  >
<polygon points="757,85 758,80 758,90 757,85 " style="fill:white; stroke-width:1; stroke:black; " description="&lt;b&gt;HEP86_RS37320&lt;/b&gt;&lt;br&gt;lactococcin 972 family bacteriocin&lt;br&gt;Location: 8511489 - 8511776" locus_tag="HEP86_RS37320" class="clusterblast-orf" id="dummy-2_h2_6_55"  />
</g>
<g id="a2_0056"  >
<polygon points="760,85 765,80 768,80 768,90 765,90 760,85 " style="fill:white; stroke-width:1; stroke:black; " description="&lt;b&gt;HEP86_RS37325&lt;/b&gt;&lt;br&gt;ATP-binding protein&lt;br&gt;Location: 8512342 - 8514069" locus_tag="HEP86_RS37325" class="clusterblast-orf" id="dummy-2_h2_6_56"  />
</g>
<g id="a2_0057"  >
<polygon points="768,85 769,80 769,90 768,85 " style="fill:white; stroke-width:1; stroke:black; " description="&lt;b&gt;HEP86_RS37330&lt;/b&gt;&lt;br&gt;hypothetical protein&lt;br&gt;Location: 8514132 - 8514383" locus_tag="HEP86_RS37330" class="clusterblast-orf" id="dummy-2_h2_6_57"  />
</g>
<g id="a2_0058"  >
<polygon points="769,85 770,80 770,90 769,85 " style="fill:white; stroke-width:1; stroke:black; " description="&lt;b&gt;HEP86_RS37335&lt;/b&gt;&lt;br&gt;hypothetical protein&lt;br&gt;Location: 8514380 - 8514577" locus_tag="HEP86_RS37335" class="clusterblast-orf" id="dummy-2_h2_6_58"  />
</g>
<g id="a2_0059"  >
<polygon points="776,90 778,85 776,80 776,90 " style="fill:white; stroke-width:1; stroke:black; " description="&lt;b&gt;HEP86_RS41340&lt;/b&gt;&lt;br&gt;hypothetical protein&lt;br&gt;Location: 8516200 - 8516493" locus_tag="HEP86_RS41340" class="clusterblast-orf" id="dummy-2_h2_6_59"  />
</g>
<g id="a2_0060"  >
<polygon points="779,90 780,85 779,80 779,90 " style="fill:white; stroke-width:1; stroke:black; " description="&lt;b&gt;HEP86_RS41345&lt;/b&gt;&lt;br&gt;HNH endonuclease&lt;br&gt;Location: 8516837 - 8516958" locus_tag="HEP86_RS41345" class="clusterblast-orf" id="dummy-2_h2_6_60"  />
</g>
</svg>
