<svg xmlns="http://www.w3.org/2000/svg" xmlns:xlink="http://www.w3.org/1999/xlink" version="1.1" x="0" y="0" height="230" width="800" viewBox="0 0 800 230" preserveAspectRatio="none"  >
<g label="Query sequence" class="clusterblast-cluster"  >
<text x="5" y="20" class="clusterblast-acc"  >
Query sequence</text>
<line x1="10" y1="35" x2="778.0" y2="35" style="stroke-width:1; stroke:grey; "  />
<polygon points="120,40 140,40 145,35 140,30 120,30 120,40 " style="fill:#d81515; stroke-width:1; stroke:black; " description="&lt;b&gt;input.path1.gene446&lt;/b&gt;&lt;br&gt;input.path1.gene446&lt;br&gt;Location: 1627761 - 1629797" locus_tag="input.path1.gene446" class="clusterblast-orf" id="dummy-5_q0_0_all"  />
<polygon points="154,35 159,30 174,30 174,40 159,40 154,35 " style="fill:#3cd815; stroke-width:1; stroke:black; " description="&lt;b&gt;input.path1.gene447&lt;/b&gt;&lt;br&gt;input.path1.gene447&lt;br&gt;Location: 1630509 - 1632136" locus_tag="input.path1.gene447" class="clusterblast-orf" id="dummy-5_q1_0_all"  />
<polygon points="178,40 181,35 178,30 178,40 " style="fill:white; stroke-width:1; stroke:black; " description="&lt;b&gt;input.path1.gene448&lt;/b&gt;&lt;br&gt;input.path1.gene448&lt;br&gt;Location: 1632478 - 1632662" locus_tag="input.path1.gene448" class="clusterblast-orf" id="dummy-5_q2_0_all"  />
<polygon points="188,40 191,35 188,30 188,40 " style="fill:white; stroke-width:1; stroke:black; " description="&lt;b&gt;input.path1.gene449&lt;/b&gt;&lt;br&gt;input.path1.gene449&lt;br&gt;Location: 1633276 - 1633538" locus_tag="input.path1.gene449" class="clusterblast-orf" id="dummy-5_q3_0_all"  />
<polygon points="200,35 205,30 206,30 206,40 205,40 200,35 " style="fill:white; stroke-width:1; stroke:black; " description="&lt;b&gt;input.path1.gene450&lt;/b&gt;&lt;br&gt;input.path1.gene450&lt;br&gt;Location: 1634204 - 1634700" locus_tag="input.path1.gene450" class="clusterblast-orf" id="dummy-5_q4_0_all"  />
<polygon points="229,35 234,30 235,30 235,40 234,40 229,35 " style="fill:white; stroke-width:1; stroke:black; " description="&lt;b&gt;input.path1.gene451&lt;/b&gt;&lt;br&gt;input.path1.gene451&lt;br&gt;Location: 1636541 - 1637079" locus_tag="input.path1.gene451" class="clusterblast-orf" id="dummy-5_q5_0_all"  />
<polygon points="259,40 269,40 274,35 269,30 259,30 259,40 " style="fill:#1563d8; stroke-width:1; stroke:black; " description="&lt;b&gt;input.path1.gene452&lt;/b&gt;&lt;br&gt;input.path1.gene452&lt;br&gt;Location: 1639019 - 1640190" locus_tag="input.path1.gene452" class="clusterblast-orf" id="dummy-5_q6_0_all"  />
<polygon points="300,35 305,30 320,30 320,40 305,40 300,35 " style="fill:#b115d8; stroke-width:1; stroke:black; " description="&lt;b&gt;input.path1.gene453&lt;/b&gt;&lt;br&gt;input.path1.gene453&lt;br&gt;Location: 1642311 - 1643936" locus_tag="input.path1.gene453" class="clusterblast-orf" id="dummy-5_q7_0_all"  />
<polygon points="343,40 431,40 436,35 431,30 343,30 343,40 " style="fill:#d88a15; stroke-width:1; stroke:black; " description="&lt;b&gt;input.path1.gene454&lt;/b&gt;&lt;br&gt;input.path1.gene454&lt;br&gt;Location: 1645759 - 1653321" locus_tag="input.path1.gene454" class="clusterblast-orf" id="dummy-5_q8_0_all"  />
<polygon points="439,35 444,30 452,30 452,40 444,40 439,35 " style="fill:white; stroke-width:1; stroke:black; " description="&lt;b&gt;input.path1.gene455&lt;/b&gt;&lt;br&gt;input.path1.gene455&lt;br&gt;Location: 1653534 - 1654581" locus_tag="input.path1.gene455" class="clusterblast-orf" id="dummy-5_q9_0_all"  />
<polygon points="468,40 469,40 474,35 469,30 468,30 468,40 " style="fill:#15d863; stroke-width:1; stroke:black; " description="&lt;b&gt;input.path1.gene456&lt;/b&gt;&lt;br&gt;input.path1.gene456&lt;br&gt;Location: 1655855 - 1656404" locus_tag="input.path1.gene456" class="clusterblast-orf" id="dummy-5_q10_0_all"  />
<polygon points="487,40 503,40 508,35 503,30 487,30 487,40 " style="fill:#3c15d8; stroke-width:1; stroke:black; " description="&lt;b&gt;input.path1.gene457&lt;/b&gt;&lt;br&gt;input.path1.gene457&lt;br&gt;Location: 1657447 - 1659115" locus_tag="input.path1.gene457" class="clusterblast-orf" id="dummy-5_q11_0_all"  />
<polygon points="523,40 539,40 544,35 539,30 523,30 523,40 " style="fill:#d8158a; stroke-width:1; stroke:black; " description="&lt;b&gt;input.path1.gene458&lt;/b&gt;&lt;br&gt;input.path1.gene458&lt;br&gt;Location: 1660357 - 1662027" locus_tag="input.path1.gene458" class="clusterblast-orf" id="dummy-5_q12_0_all"  />
<polygon points="558,40 573,40 578,35 573,30 558,30 558,40 " style="fill:#b1d815; stroke-width:1; stroke:black; " description="&lt;b&gt;input.path1.gene459&lt;/b&gt;&lt;br&gt;input.path1.gene459&lt;br&gt;Location: 1663177 - 1664782" locus_tag="input.path1.gene459" class="clusterblast-orf" id="dummy-5_q13_0_all"  />
<polygon points="624,40 654,40 659,35 654,30 624,30 624,40 " style="fill:#15d8d8; stroke-width:1; stroke:black; " description="&lt;b&gt;input.path1.gene460&lt;/b&gt;&lt;br&gt;input.path1.gene460&lt;br&gt;Location: 1668481 - 1671336" locus_tag="input.path1.gene460" class="clusterblast-orf" id="dummy-5_q14_0_all"  />
</g>
<g label="NW_011942160" description="NW_011942160 (5112978-5180935): Metarhizium robertsii ARSEF 23 MAA Scf 2, who... (52% of genes show similarity), T1PKS" class="clusterblast-cluster"  >
<text x="5" y="70" class="clusterblast-acc"  >
<a xlink:href="https://antismash-db.secondarymetabolites.org/area?record=NW_011942160&amp;start=5112978&amp;end=5180935" target="_blank">NW_011942160 (5112978-5180935)</a>: Metarhizium robertsii ARSEF 23 MAA Scf 2, who... (52% of genes show similarity), T1PKS</text>
<line x1="10" y1="85" x2="778.0" y2="85" style="stroke-width:1; stroke:grey; "  />
</g>
<g id="a5_000"  >
<polygon points="0,85 5,80 30,80 30,90 5,90 0,85 " style="fill:white; stroke-width:1; stroke:black; " description="&lt;b&gt;MAA_07918&lt;/b&gt;&lt;br&gt;Major facilitator superfamily domain, general substrate transporter&lt;br&gt;Location: 5178321 - 5175890" locus_tag="MAA_07918" class="clusterblast-orf" id="dummy-5_h5_2_0"  />
</g>
<g id="a5_001"  >
<polygon points="97,85 102,80 109,80 109,90 102,90 97,85 " style="fill:white; stroke-width:1; stroke:black; " description="&lt;b&gt;MAA_07919&lt;/b&gt;&lt;br&gt;NmrA family protein&lt;br&gt;Location: 5170461 - 5169451" locus_tag="MAA_07919" class="clusterblast-orf" id="dummy-5_h5_2_1"  />
</g>
<g id="a5_002"  >
<polygon points="126,90 146,90 151,85 146,80 126,80 126,90 " style="fill:#d81515; stroke-width:1; stroke:black; " description="&lt;b&gt;MAA_07920&lt;/b&gt;&lt;br&gt;siderophore iron transporter&lt;br&gt;Location: 5168086 - 5166051&lt;br&gt;&lt;br&gt;&lt;b&gt;BlastP hit with input.path1.gene446&lt;/b&gt;&lt;br&gt;Percentage identity: 88&lt;br&gt;Percentage coverage: 111&lt;br&gt;BLAST bit score: 1058&lt;br&gt;E-value: 0.0" locus_tag="MAA_07920" class="clusterblast-orf" id="dummy-5_h5_2_2"  />
</g>
<g id="a5_003"  >
<polygon points="160,85 165,80 183,80 183,90 165,90 160,85 " style="fill:#3cd815; stroke-width:1; stroke:black; " description="&lt;b&gt;MAA_07921&lt;/b&gt;&lt;br&gt;Cytochrome P450 CYP631C1&lt;br&gt;Location: 5165333 - 5163466&lt;br&gt;&lt;br&gt;&lt;b&gt;BlastP hit with input.path1.gene447&lt;/b&gt;&lt;br&gt;Percentage identity: 98&lt;br&gt;Percentage coverage: 79&lt;br&gt;BLAST bit score: 365&lt;br&gt;E-value: 1.29e-123" locus_tag="MAA_07921" class="clusterblast-orf" id="dummy-5_h5_2_3"  />
</g>
<g id="a5_004"  >
<polygon points="227,90 247,90 252,85 247,80 227,80 227,90 " style="fill:white; stroke-width:1; stroke:black; " description="&lt;b&gt;MAA_07922&lt;/b&gt;&lt;br&gt;Zn(2)-C6 fungal-type DNA-binding domain protein&lt;br&gt;Location: 5159979 - 5157913" locus_tag="MAA_07922" class="clusterblast-orf" id="dummy-5_h5_2_4"  />
</g>
<g id="a5_005"  >
<polygon points="265,90 275,90 280,85 275,80 265,80 265,90 " style="fill:#1563d8; stroke-width:1; stroke:black; " description="&lt;b&gt;MAA_07923&lt;/b&gt;&lt;br&gt;Oxoglutarate/iron-dependent oxygenase&lt;br&gt;Location: 5156847 - 5155676&lt;br&gt;&lt;br&gt;&lt;b&gt;BlastP hit with input.path1.gene452&lt;/b&gt;&lt;br&gt;Percentage identity: 99&lt;br&gt;Percentage coverage: 100&lt;br&gt;BLAST bit score: 667&lt;br&gt;E-value: 8.91e-244" locus_tag="MAA_07923" class="clusterblast-orf" id="dummy-5_h5_2_5"  />
</g>
<g id="a5_006"  >
<polygon points="306,85 311,80 326,80 326,90 311,90 306,85 " style="fill:#b115d8; stroke-width:1; stroke:black; " description="&lt;b&gt;MAA_07924&lt;/b&gt;&lt;br&gt;Aromatic-ring hydroxylase-like protein&lt;br&gt;Location: 5153572 - 5151948&lt;br&gt;&lt;br&gt;&lt;b&gt;BlastP hit with input.path1.gene453&lt;/b&gt;&lt;br&gt;Percentage identity: 92&lt;br&gt;Percentage coverage: 103&lt;br&gt;BLAST bit score: 944&lt;br&gt;E-value: 0.0" locus_tag="MAA_07924" class="clusterblast-orf" id="dummy-5_h5_2_6"  />
</g>
<g id="a5_007"  >
<polygon points="338,90 432,90 437,85 432,80 338,80 338,90 " style="fill:#d88a15; stroke-width:1; stroke:black; " description="&lt;b&gt;MAA_07925&lt;/b&gt;&lt;br&gt;polyketide synthase&lt;br&gt;Location: 5150935 - 5142979&lt;br&gt;&lt;br&gt;&lt;b&gt;BlastP hit with input.path1.gene454&lt;/b&gt;&lt;br&gt;Percentage identity: 97&lt;br&gt;Percentage coverage: 99&lt;br&gt;BLAST bit score: 4423&lt;br&gt;E-value: 0.0" locus_tag="MAA_07925" class="clusterblast-orf" id="dummy-5_h5_2_7"  />
</g>
<g id="a5_008"  >
<polygon points="447,90 459,90 464,85 459,80 447,80 447,90 " style="fill:white; stroke-width:1; stroke:black; " description="&lt;b&gt;MAA_07926&lt;/b&gt;&lt;br&gt;Major facilitator superfamily domain protein&lt;br&gt;Location: 5142181 - 5140826" locus_tag="MAA_07926" class="clusterblast-orf" id="dummy-5_h5_2_8"  />
</g>
<g id="a5_009"  >
<polygon points="473,90 473,90 478,85 473,80 473,80 473,90 " style="fill:#15d863; stroke-width:1; stroke:black; " description="&lt;b&gt;MAA_07927&lt;/b&gt;&lt;br&gt;Dimeric alpha-beta barrel&lt;br&gt;Location: 5140061 - 5139684&lt;br&gt;&lt;br&gt;&lt;b&gt;BlastP hit with input.path1.gene456&lt;/b&gt;&lt;br&gt;Percentage identity: 99&lt;br&gt;Percentage coverage: 88&lt;br&gt;BLAST bit score: 219&lt;br&gt;E-value: 1.39e-73" locus_tag="MAA_07927" class="clusterblast-orf" id="dummy-5_h5_2_9"  />
</g>
<g id="a5_0010"  >
<polygon points="493,90 509,90 514,85 509,80 493,80 493,90 " style="fill:#3c15d8; stroke-width:1; stroke:black; " description="&lt;b&gt;MAA_10868&lt;/b&gt;&lt;br&gt;Cupredoxin&lt;br&gt;Location: 5138459 - 5136790&lt;br&gt;&lt;br&gt;&lt;b&gt;BlastP hit with input.path1.gene457&lt;/b&gt;&lt;br&gt;Percentage identity: 87&lt;br&gt;Percentage coverage: 114&lt;br&gt;BLAST bit score: 814&lt;br&gt;E-value: 1.58e-297" locus_tag="MAA_10868" class="clusterblast-orf" id="dummy-5_h5_2_10"  />
</g>
<g id="a5_0011"  >
<polygon points="522,90 543,90 548,85 543,80 522,80 522,90 " style="fill:#d8158a; stroke-width:1; stroke:black; " description="&lt;b&gt;MAA_07928&lt;/b&gt;&lt;br&gt;heterokaryon incompatibility protein&lt;br&gt;Location: 5136125 - 5134030&lt;br&gt;&lt;br&gt;&lt;b&gt;BlastP hit with input.path1.gene458&lt;/b&gt;&lt;br&gt;Percentage identity: 45&lt;br&gt;Percentage coverage: 200&lt;br&gt;BLAST bit score: 323&lt;br&gt;E-value: 2.31e-105" locus_tag="MAA_07928" class="clusterblast-orf" id="dummy-5_h5_2_11"  />
</g>
<g id="a5_0012"  >
<polygon points="564,90 579,90 584,85 579,80 564,80 564,90 " style="fill:#b1d815; stroke-width:1; stroke:black; " description="&lt;b&gt;MAA_07929&lt;/b&gt;&lt;br&gt;major facilitator superfamily transporter&lt;br&gt;Location: 5132739 - 5131132&lt;br&gt;&lt;br&gt;&lt;b&gt;BlastP hit with input.path1.gene459&lt;/b&gt;&lt;br&gt;Percentage identity: 99&lt;br&gt;Percentage coverage: 100&lt;br&gt;BLAST bit score: 1058&lt;br&gt;E-value: 0.0" locus_tag="MAA_07929" class="clusterblast-orf" id="dummy-5_h5_2_12"  />
</g>
<g id="a5_0013"  >
<polygon points="590,85 595,80 598,80 598,90 595,90 590,85 " style="fill:white; stroke-width:1; stroke:black; " description="&lt;b&gt;MAA_07930&lt;/b&gt;&lt;br&gt;LysM domain-containing protein&lt;br&gt;Location: 5130577 - 5129969" locus_tag="MAA_07930" class="clusterblast-orf" id="dummy-5_h5_2_13"  />
</g>
<g id="a5_0014"  >
<polygon points="612,90 615,90 620,85 615,80 612,80 612,90 " style="fill:white; stroke-width:1; stroke:black; " description="&lt;b&gt;MAA_07931&lt;/b&gt;&lt;br&gt;hypothetical protein&lt;br&gt;Location: 5128822 - 5128202" locus_tag="MAA_07931" class="clusterblast-orf" id="dummy-5_h5_2_14"  />
</g>
<g id="a5_0015"  >
<polygon points="627,90 641,90 646,85 641,80 627,80 627,90 " style="fill:#15d8d8; stroke-width:1; stroke:black; " description="&lt;b&gt;MAA_07932&lt;/b&gt;&lt;br&gt;Pyruvate/2-oxoglutarate dehydrogenase&lt;br&gt;Location: 5127633 - 5126095&lt;br&gt;&lt;br&gt;&lt;b&gt;BlastP hit with input.path1.gene460&lt;/b&gt;&lt;br&gt;Percentage identity: 98&lt;br&gt;Percentage coverage: 74&lt;br&gt;BLAST bit score: 903&lt;br&gt;E-value: 0.0" locus_tag="MAA_07932" class="clusterblast-orf" id="dummy-5_h5_2_15"  />
</g>
<g id="a5_0016"  >
<polygon points="705,90 734,90 739,85 734,80 705,80 705,90 " style="fill:white; stroke-width:1; stroke:black; " description="&lt;b&gt;MAA_07933&lt;/b&gt;&lt;br&gt;glycosyltransferase family 20 protein&lt;br&gt;Location: 5121362 - 5118567" locus_tag="MAA_07933" class="clusterblast-orf" id="dummy-5_h5_2_16"  />
</g>
<g id="a5_0017"  >
<polygon points="750,90 762,90 767,85 762,80 750,80 750,90 " style="fill:white; stroke-width:1; stroke:black; " description="&lt;b&gt;MAA_07934&lt;/b&gt;&lt;br&gt;Branched-chain amino acid aminotransferase II&lt;br&gt;Location: 5117680 - 5116348" locus_tag="MAA_07934" class="clusterblast-orf" id="dummy-5_h5_2_17"  />
</g>
<g id="a5_0018"  >
<polygon points="773,85 778,80 780,80 780,90 778,90 773,85 " style="fill:white; stroke-width:1; stroke:black; " description="&lt;b&gt;MAA_07935&lt;/b&gt;&lt;br&gt;antigenic cell wall galactomannoprotein&lt;br&gt;Location: 5115826 - 5115308" locus_tag="MAA_07935" class="clusterblast-orf" id="dummy-5_h5_2_18"  />
</g>
</svg>
