<svg xmlns="http://www.w3.org/2000/svg" xmlns:xlink="http://www.w3.org/1999/xlink" version="1.1" x="0" y="0" height="230" width="800" viewBox="0 0 800 230" preserveAspectRatio="none"  >
<g label="Query sequence" class="clusterblast-cluster"  >
<text x="5" y="20" class="clusterblast-acc"  >
Query sequence</text>
<line x1="10" y1="35" x2="778.0" y2="35" style="stroke-width:1; stroke:grey; "  />
<polygon points="297,35 302,30 302,30 302,40 302,40 297,35 " style="fill:#d81515; stroke-width:1; stroke:black; " description="&lt;b&gt;input.path1.gene189&lt;/b&gt;&lt;br&gt;input.path1.gene189&lt;br&gt;Location: 993901 - 994854" locus_tag="input.path1.gene189" class="clusterblast-orf" id="dummy-2_q0_0_all"  />
<polygon points="328,40 332,35 328,30 328,40 " style="fill:#77d815; stroke-width:1; stroke:black; " description="&lt;b&gt;input.path1.gene190&lt;/b&gt;&lt;br&gt;input.path1.gene190&lt;br&gt;Location: 1000082 - 1000827" locus_tag="input.path1.gene190" class="clusterblast-orf" id="dummy-2_q1_0_all"  />
<polygon points="339,40 340,40 345,35 340,30 339,30 339,40 " style="fill:#15d8d8; stroke-width:1; stroke:black; " description="&lt;b&gt;input.path1.gene191&lt;/b&gt;&lt;br&gt;input.path1.gene191&lt;br&gt;Location: 1002278 - 1003514" locus_tag="input.path1.gene191" class="clusterblast-orf" id="dummy-2_q2_0_all"  />
<polygon points="369,40 372,40 377,35 372,30 369,30 369,40 " style="fill:#7715d8; stroke-width:1; stroke:black; " description="&lt;b&gt;input.path1.gene192&lt;/b&gt;&lt;br&gt;input.path1.gene192&lt;br&gt;Location: 1008369 - 1009917" locus_tag="input.path1.gene192" class="clusterblast-orf" id="dummy-2_q3_0_all"  />
<polygon points="383,40 408,40 413,35 408,30 383,30 383,40 " style="fill:#d8a715; stroke-width:1; stroke:black; " description="&lt;b&gt;input.path1.gene193&lt;/b&gt;&lt;br&gt;input.path1.gene193&lt;br&gt;Location: 1011158 - 1017226" locus_tag="input.path1.gene193" class="clusterblast-orf" id="dummy-2_q4_0_all"  />
<polygon points="421,35 425,30 425,40 421,35 " style="fill:#15d846; stroke-width:1; stroke:black; " description="&lt;b&gt;input.path1.gene194&lt;/b&gt;&lt;br&gt;input.path1.gene194&lt;br&gt;Location: 1018864 - 1019642" locus_tag="input.path1.gene194" class="clusterblast-orf" id="dummy-2_q5_0_all"  />
<polygon points="441,35 446,30 448,30 448,40 446,40 441,35 " style="fill:#1546d8; stroke-width:1; stroke:black; " description="&lt;b&gt;input.path1.gene195&lt;/b&gt;&lt;br&gt;input.path1.gene195&lt;br&gt;Location: 1022830 - 1024411" locus_tag="input.path1.gene195" class="clusterblast-orf" id="dummy-2_q6_0_all"  />
<polygon points="465,35 470,30 482,30 482,40 470,40 465,35 " style="fill:#d815a7; stroke-width:1; stroke:black; " description="&lt;b&gt;input.path1.gene196&lt;/b&gt;&lt;br&gt;input.path1.gene196&lt;br&gt;Location: 1027704 - 1031141" locus_tag="input.path1.gene196" class="clusterblast-orf" id="dummy-2_q7_0_all"  />
</g>
<g label="NW_014574696" description="NW_014574696 (225420-389931): Metarhizium brunneum ARSEF 3297 chromosome Unkn... (23% of genes show similarity), NRPS,NRPS-like,T1PKS" class="clusterblast-cluster"  >
<text x="5" y="70" class="clusterblast-acc"  >
<a xlink:href="https://antismash-db.secondarymetabolites.org/area?record=NW_014574696&amp;start=225420&amp;end=389931" target="_blank">NW_014574696 (225420-389931)</a>: Metarhizium brunneum ARSEF 3297 chromosome Unkn... (23% of genes show similarity), NRPS,NRPS-like,T1PKS</text>
<line x1="10" y1="85" x2="778.0" y2="85" style="stroke-width:1; stroke:grey; "  />
</g>
<g id="a2_000"  >
<polygon points="0,85 4,80 4,90 0,85 " style="fill:white; stroke-width:1; stroke:black; " description="&lt;b&gt;MBR_09315&lt;/b&gt;&lt;br&gt;QDE-2-interacting protein&lt;br&gt;Location: 384906 - 383974" locus_tag="MBR_09315" class="clusterblast-orf" id="dummy-2_h2_1_0"  />
</g>
<g id="a2_001"  >
<polygon points="19,90 23,90 28,85 23,80 19,80 19,90 " style="fill:white; stroke-width:1; stroke:black; " description="&lt;b&gt;MBR_09314&lt;/b&gt;&lt;br&gt;MFS phospholipid transporter Git1&lt;br&gt;Location: 380888 - 379164" locus_tag="MBR_09314" class="clusterblast-orf" id="dummy-2_h2_1_1"  />
</g>
<g id="a2_002"  >
<polygon points="35,85 39,80 39,90 35,85 " style="fill:#d81515; stroke-width:1; stroke:black; " description="&lt;b&gt;MBR_09313&lt;/b&gt;&lt;br&gt;hypothetical protein&lt;br&gt;Location: 377803 - 376851&lt;br&gt;&lt;br&gt;&lt;b&gt;BlastP hit with input.path1.gene189&lt;/b&gt;&lt;br&gt;Percentage identity: 100&lt;br&gt;Percentage coverage: 100&lt;br&gt;BLAST bit score: 625&lt;br&gt;E-value: 4.49e-228" locus_tag="MBR_09313" class="clusterblast-orf" id="dummy-2_h2_1_2"  />
</g>
<g id="a2_003"  >
<polygon points="65,90 65,90 70,85 65,80 65,80 65,90 " style="fill:#77d815; stroke-width:1; stroke:black; " description="&lt;b&gt;MBR_09312&lt;/b&gt;&lt;br&gt;Major facilitator superfamily domain, general substrate transporter&lt;br&gt;Location: 371622 - 370733&lt;br&gt;&lt;br&gt;&lt;b&gt;BlastP hit with input.path1.gene190&lt;/b&gt;&lt;br&gt;Percentage identity: 100&lt;br&gt;Percentage coverage: 88&lt;br&gt;BLAST bit score: 304&lt;br&gt;E-value: 5.88e-104" locus_tag="MBR_09312" class="clusterblast-orf" id="dummy-2_h2_1_3"  />
</g>
<g id="a2_004"  >
<polygon points="76,90 77,90 82,85 77,80 76,80 76,90 " style="fill:#15d8d8; stroke-width:1; stroke:black; " description="&lt;b&gt;MBR_09311&lt;/b&gt;&lt;br&gt;hypothetical protein&lt;br&gt;Location: 369426 - 368191&lt;br&gt;&lt;br&gt;&lt;b&gt;BlastP hit with input.path1.gene191&lt;/b&gt;&lt;br&gt;Percentage identity: 93&lt;br&gt;Percentage coverage: 107&lt;br&gt;BLAST bit score: 706&lt;br&gt;E-value: 8.02e-257" locus_tag="MBR_09311" class="clusterblast-orf" id="dummy-2_h2_1_4"  />
</g>
<g id="a2_005"  >
<polygon points="92,90 96,85 92,80 92,90 " style="fill:white; stroke-width:1; stroke:black; " description="&lt;b&gt;MBR_09310&lt;/b&gt;&lt;br&gt;hypothetical protein&lt;br&gt;Location: 366307 - 365512" locus_tag="MBR_09310" class="clusterblast-orf" id="dummy-2_h2_1_5"  />
</g>
<g id="a2_006"  >
<polygon points="106,90 109,90 114,85 109,80 106,80 106,90 " style="fill:#7715d8; stroke-width:1; stroke:black; " description="&lt;b&gt;MBR_09309&lt;/b&gt;&lt;br&gt;Low affinity iron permease, Fet4&lt;br&gt;Location: 363335 - 361788&lt;br&gt;&lt;br&gt;&lt;b&gt;BlastP hit with input.path1.gene192&lt;/b&gt;&lt;br&gt;Percentage identity: 100&lt;br&gt;Percentage coverage: 100&lt;br&gt;BLAST bit score: 1008&lt;br&gt;E-value: 0.0" locus_tag="MBR_09309" class="clusterblast-orf" id="dummy-2_h2_1_6"  />
</g>
<g id="a2_007"  >
<polygon points="123,90 152,90 157,85 152,80 123,80 123,90 " style="fill:#d8a715; stroke-width:1; stroke:black; " description="&lt;b&gt;MBR_09308&lt;/b&gt;&lt;br&gt;polyketide synthase&lt;br&gt;Location: 359931 - 353097&lt;br&gt;&lt;br&gt;&lt;b&gt;BlastP hit with input.path1.gene193&lt;/b&gt;&lt;br&gt;Percentage identity: 97&lt;br&gt;Percentage coverage: 99&lt;br&gt;BLAST bit score: 3051&lt;br&gt;E-value: 0.0" locus_tag="MBR_09308" class="clusterblast-orf" id="dummy-2_h2_1_7"  />
</g>
<g id="a2_008"  >
<polygon points="160,85 162,80 162,90 160,85 " style="fill:#15d846; stroke-width:1; stroke:black; " description="&lt;b&gt;MBR_09307&lt;/b&gt;&lt;br&gt;hypothetical protein&lt;br&gt;Location: 352488 - 352063&lt;br&gt;&lt;br&gt;&lt;b&gt;BlastP hit with input.path1.gene194&lt;/b&gt;&lt;br&gt;Percentage identity: 97&lt;br&gt;Percentage coverage: 78&lt;br&gt;BLAST bit score: 197&lt;br&gt;E-value: 5.85e-65" locus_tag="MBR_09307" class="clusterblast-orf" id="dummy-2_h2_1_8"  />
</g>
<g id="a2_009"  >
<polygon points="175,90 177,85 175,80 175,90 " style="fill:white; stroke-width:1; stroke:black; " description="&lt;b&gt;MBR_09306&lt;/b&gt;&lt;br&gt;Acyl-CoA N-acyltransferase&lt;br&gt;Location: 349569 - 349135" locus_tag="MBR_09306" class="clusterblast-orf" id="dummy-2_h2_1_9"  />
</g>
<g id="a2_0010"  >
<polygon points="178,85 183,80 186,80 186,90 183,90 178,85 " style="fill:#1546d8; stroke-width:1; stroke:black; " description="&lt;b&gt;MBR_09305&lt;/b&gt;&lt;br&gt;Purple acid phosphatase-like protein&lt;br&gt;Location: 348874 - 347294&lt;br&gt;&lt;br&gt;&lt;b&gt;BlastP hit with input.path1.gene195&lt;/b&gt;&lt;br&gt;Percentage identity: 94&lt;br&gt;Percentage coverage: 106&lt;br&gt;BLAST bit score: 949&lt;br&gt;E-value: 0.0" locus_tag="MBR_09305" class="clusterblast-orf" id="dummy-2_h2_1_10"  />
</g>
<g id="a2_0011"  >
<polygon points="203,85 208,80 208,80 208,90 208,90 203,85 " style="fill:#d815a7; stroke-width:1; stroke:black; " description="&lt;b&gt;MBR_09304&lt;/b&gt;&lt;br&gt;mitochondrial carrier protein (Pet8)&lt;br&gt;Location: 343837 - 342896&lt;br&gt;&lt;br&gt;&lt;b&gt;BlastP hit with input.path1.gene196&lt;/b&gt;&lt;br&gt;Percentage identity: 99&lt;br&gt;Percentage coverage: 45&lt;br&gt;BLAST bit score: 539&lt;br&gt;E-value: 1.38e-188" locus_tag="MBR_09304" class="clusterblast-orf" id="dummy-2_h2_1_11"  />
</g>
<g id="a2_0012"  >
<polygon points="210,85 215,80 218,80 218,90 215,90 210,85 " style="fill:#d815a7; stroke-width:1; stroke:black; " description="&lt;b&gt;MBR_09303&lt;/b&gt;&lt;br&gt;cytochrome P450 monooxygenase&lt;br&gt;Location: 342500 - 340818&lt;br&gt;&lt;br&gt;&lt;b&gt;BlastP hit with input.path1.gene196&lt;/b&gt;&lt;br&gt;Percentage identity: 64&lt;br&gt;Percentage coverage: 76&lt;br&gt;BLAST bit score: 556&lt;br&gt;E-value: 4.14e-192" locus_tag="MBR_09303" class="clusterblast-orf" id="dummy-2_h2_1_12"  />
</g>
<g id="a2_0013"  >
<polygon points="233,90 237,85 233,80 233,90 " style="fill:white; stroke-width:1; stroke:black; " description="&lt;b&gt;MBR_09302&lt;/b&gt;&lt;br&gt;Protein kinase-like domain protein&lt;br&gt;Location: 337810 - 337100" locus_tag="MBR_09302" class="clusterblast-orf" id="dummy-2_h2_1_13"  />
</g>
<g id="a2_0014"  >
<polygon points="268,90 271,90 276,85 271,80 268,80 268,90 " style="fill:white; stroke-width:1; stroke:black; " description="&lt;b&gt;MBR_09301&lt;/b&gt;&lt;br&gt;Peptidase S8, subtilisin-related protein&lt;br&gt;Location: 330763 - 329106" locus_tag="MBR_09301" class="clusterblast-orf" id="dummy-2_h2_1_14"  />
</g>
<g id="a2_0015"  >
<polygon points="280,90 285,90 290,85 285,80 280,80 280,90 " style="fill:white; stroke-width:1; stroke:black; " description="&lt;b&gt;MBR_09300&lt;/b&gt;&lt;br&gt;ankyrin repeat protein&lt;br&gt;Location: 328382 - 326307" locus_tag="MBR_09300" class="clusterblast-orf" id="dummy-2_h2_1_15"  />
</g>
<g id="a2_0016"  >
<polygon points="293,85 298,80 323,80 323,90 298,90 293,85 " style="fill:white; stroke-width:1; stroke:black; " description="&lt;b&gt;MBR_09299&lt;/b&gt;&lt;br&gt;Ankyrin repeat-containing domain protein&lt;br&gt;Location: 325672 - 319735" locus_tag="MBR_09299" class="clusterblast-orf" id="dummy-2_h2_1_16"  />
</g>
<g id="a2_0017"  >
<polygon points="330,85 332,80 332,90 330,85 " style="fill:white; stroke-width:1; stroke:black; " description="&lt;b&gt;MBR_09298&lt;/b&gt;&lt;br&gt;disulfide oxidoreductase&lt;br&gt;Location: 318325 - 317918" locus_tag="MBR_09298" class="clusterblast-orf" id="dummy-2_h2_1_17"  />
</g>
<g id="a2_0018"  >
<polygon points="336,90 339,85 336,80 336,90 " style="fill:white; stroke-width:1; stroke:black; " description="&lt;b&gt;MBR_09297&lt;/b&gt;&lt;br&gt;glutathione-dependent formaldehyde-activating enzyme&lt;br&gt;Location: 317068 - 316493" locus_tag="MBR_09297" class="clusterblast-orf" id="dummy-2_h2_1_18"  />
</g>
<g id="a2_0019"  >
<polygon points="352,90 355,85 352,80 352,90 " style="fill:white; stroke-width:1; stroke:black; " description="&lt;b&gt;MBR_09296&lt;/b&gt;&lt;br&gt;ketoreductase&lt;br&gt;Location: 313827 - 313289" locus_tag="MBR_09296" class="clusterblast-orf" id="dummy-2_h2_1_19"  />
</g>
<g id="a2_0020"  >
<polygon points="355,90 357,85 355,80 355,90 " style="fill:white; stroke-width:1; stroke:black; " description="&lt;b&gt;MBR_09295&lt;/b&gt;&lt;br&gt;ketoreductase&lt;br&gt;Location: 313163 - 312864" locus_tag="MBR_09295" class="clusterblast-orf" id="dummy-2_h2_1_20"  />
</g>
<g id="a2_0021"  >
<polygon points="360,85 365,80 369,80 369,90 365,90 360,85 " style="fill:white; stroke-width:1; stroke:black; " description="&lt;b&gt;MBR_09294&lt;/b&gt;&lt;br&gt;Aldehyde dehydrogenase domain protein&lt;br&gt;Location: 312107 - 310421" locus_tag="MBR_09294" class="clusterblast-orf" id="dummy-2_h2_1_21"  />
</g>
<g id="a2_0022"  >
<polygon points="373,85 378,80 398,80 398,90 378,90 373,85 " style="fill:white; stroke-width:1; stroke:black; " description="&lt;b&gt;MBR_09293&lt;/b&gt;&lt;br&gt;ABC transporter&lt;br&gt;Location: 309571 - 304505" locus_tag="MBR_09293" class="clusterblast-orf" id="dummy-2_h2_1_22"  />
</g>
<g id="a2_0023"  >
<polygon points="412,90 458,90 463,85 458,80 412,80 412,90 " style="fill:white; stroke-width:1; stroke:black; " description="&lt;b&gt;MBR_09292&lt;/b&gt;&lt;br&gt;non-ribosomal peptide synthetase&lt;br&gt;Location: 301805 - 291413" locus_tag="MBR_09292" class="clusterblast-orf" id="dummy-2_h2_1_23"  />
</g>
<g id="a2_0024"  >
<polygon points="469,90 469,90 474,85 469,80 469,80 469,90 " style="fill:white; stroke-width:1; stroke:black; " description="&lt;b&gt;MBR_09291&lt;/b&gt;&lt;br&gt;hypothetical protein&lt;br&gt;Location: 290191 - 289144" locus_tag="MBR_09291" class="clusterblast-orf" id="dummy-2_h2_1_24"  />
</g>
<g id="a2_0025"  >
<polygon points="478,85 483,80 488,80 488,90 483,90 478,85 " style="fill:white; stroke-width:1; stroke:black; " description="&lt;b&gt;MBR_09290&lt;/b&gt;&lt;br&gt;UDP-galactopyranose mutase&lt;br&gt;Location: 288367 - 286423" locus_tag="MBR_09290" class="clusterblast-orf" id="dummy-2_h2_1_25"  />
</g>
<g id="a2_0026"  >
<polygon points="495,85 497,80 497,90 495,85 " style="fill:white; stroke-width:1; stroke:black; " description="&lt;b&gt;MBR_09289&lt;/b&gt;&lt;br&gt;hypothetical protein&lt;br&gt;Location: 284899 - 284560" locus_tag="MBR_09289" class="clusterblast-orf" id="dummy-2_h2_1_26"  />
</g>
<g id="a2_0027"  >
<polygon points="518,85 523,80 532,80 532,90 523,90 518,85 " style="fill:white; stroke-width:1; stroke:black; " description="&lt;b&gt;MBR_09288&lt;/b&gt;&lt;br&gt;hypothetical protein&lt;br&gt;Location: 280245 - 277477" locus_tag="MBR_09288" class="clusterblast-orf" id="dummy-2_h2_1_27"  />
</g>
<g id="a2_0028"  >
<polygon points="541,90 579,90 584,85 579,80 541,80 541,90 " style="fill:white; stroke-width:1; stroke:black; " description="&lt;b&gt;MBR_09287&lt;/b&gt;&lt;br&gt;hypothetical protein&lt;br&gt;Location: 275651 - 266948" locus_tag="MBR_09287" class="clusterblast-orf" id="dummy-2_h2_1_28"  />
</g>
<g id="a2_0029"  >
<polygon points="626,90 636,90 641,85 636,80 626,80 626,90 " style="fill:white; stroke-width:1; stroke:black; " description="&lt;b&gt;MBR_09286&lt;/b&gt;&lt;br&gt;antibiotic synthetase&lt;br&gt;Location: 258528 - 255421" locus_tag="MBR_09286" class="clusterblast-orf" id="dummy-2_h2_1_29"  />
</g>
<g id="a2_0030"  >
<polygon points="648,90 649,90 654,85 649,80 648,80 648,90 " style="fill:white; stroke-width:1; stroke:black; " description="&lt;b&gt;MBR_09285&lt;/b&gt;&lt;br&gt;Alcohol dehydrogenase superfamily, zinc-type&lt;br&gt;Location: 254041 - 252983" locus_tag="MBR_09285" class="clusterblast-orf" id="dummy-2_h2_1_30"  />
</g>
<g id="a2_0031"  >
<polygon points="654,85 659,80 661,80 661,90 659,90 654,85 " style="fill:white; stroke-width:1; stroke:black; " description="&lt;b&gt;MBR_09284&lt;/b&gt;&lt;br&gt;Protein kinase-like domain protein&lt;br&gt;Location: 252792 - 251398" locus_tag="MBR_09284" class="clusterblast-orf" id="dummy-2_h2_1_31"  />
</g>
<g id="a2_0032"  >
<polygon points="665,90 667,90 672,85 667,80 665,80 665,90 " style="fill:white; stroke-width:1; stroke:black; " description="&lt;b&gt;MBR_09283&lt;/b&gt;&lt;br&gt;phosphotransferase&lt;br&gt;Location: 250758 - 249253" locus_tag="MBR_09283" class="clusterblast-orf" id="dummy-2_h2_1_32"  />
</g>
<g id="a2_0033"  >
<polygon points="676,85 677,80 677,90 676,85 " style="fill:white; stroke-width:1; stroke:black; " description="&lt;b&gt;MBR_09282&lt;/b&gt;&lt;br&gt;hypothetical protein&lt;br&gt;Location: 248478 - 248218" locus_tag="MBR_09282" class="clusterblast-orf" id="dummy-2_h2_1_33"  />
</g>
<g id="a2_0034"  >
<polygon points="688,90 691,85 688,80 688,90 " style="fill:white; stroke-width:1; stroke:black; " description="&lt;b&gt;MBR_09281&lt;/b&gt;&lt;br&gt;protein bli-3&lt;br&gt;Location: 246099 - 245482" locus_tag="MBR_09281" class="clusterblast-orf" id="dummy-2_h2_1_34"  />
</g>
<g id="a2_0035"  >
<polygon points="699,85 704,80 704,80 704,90 704,90 699,85 " style="fill:white; stroke-width:1; stroke:black; " description="&lt;b&gt;MBR_09280&lt;/b&gt;&lt;br&gt;protein kinase-like protein&lt;br&gt;Location: 243853 - 242814" locus_tag="MBR_09280" class="clusterblast-orf" id="dummy-2_h2_1_35"  />
</g>
<g id="a2_0036"  >
<polygon points="720,90 724,90 729,85 724,80 720,80 720,90 " style="fill:white; stroke-width:1; stroke:black; " description="&lt;b&gt;MBR_09279&lt;/b&gt;&lt;br&gt;DUF895 domain protein&lt;br&gt;Location: 239558 - 237832" locus_tag="MBR_09279" class="clusterblast-orf" id="dummy-2_h2_1_36"  />
</g>
<g id="a2_0037"  >
<polygon points="734,85 739,80 749,80 749,90 739,90 734,85 " style="fill:white; stroke-width:1; stroke:black; " description="&lt;b&gt;MBR_09278&lt;/b&gt;&lt;br&gt;N-terminal binuclear Zn cluster-containing/DNA binding domain-containing protein&lt;br&gt;Location: 236822 - 233823" locus_tag="MBR_09278" class="clusterblast-orf" id="dummy-2_h2_1_37"  />
</g>
<g id="a2_0038"  >
<polygon points="768,85 773,80 780,80 780,90 773,90 768,85 " style="fill:white; stroke-width:1; stroke:black; " description="&lt;b&gt;MBR_09277&lt;/b&gt;&lt;br&gt;Aldolase-type TIM barrel&lt;br&gt;Location: 229849 - 227579" locus_tag="MBR_09277" class="clusterblast-orf" id="dummy-2_h2_1_38"  />
</g>
</svg>
