<svg xmlns="http://www.w3.org/2000/svg" xmlns:xlink="http://www.w3.org/1999/xlink" version="1.1" x="0" y="0" height="230" width="800" viewBox="0 0 800 230" preserveAspectRatio="none"  >
<g label="Query sequence" class="clusterblast-cluster"  >
<text x="5" y="20" class="clusterblast-acc"  >
Query sequence</text>
<line x1="10" y1="35" x2="778.0" y2="35" style="stroke-width:1; stroke:grey; "  />
<polygon points="161,35 166,30 171,30 171,40 166,40 161,35 " style="fill:#d81515; stroke-width:1; stroke:black; " description="&lt;b&gt;input.path1.gene89&lt;/b&gt;&lt;br&gt;input.path1.gene89&lt;br&gt;Location: 397728 - 398526" locus_tag="input.path1.gene89" class="clusterblast-orf" id="dummy-2_q0_0_all"  />
<polygon points="212,40 220,40 225,35 220,30 212,30 212,40 " style="fill:#77d815; stroke-width:1; stroke:black; " description="&lt;b&gt;input.path1.gene90&lt;/b&gt;&lt;br&gt;input.path1.gene90&lt;br&gt;Location: 401707 - 402742" locus_tag="input.path1.gene90" class="clusterblast-orf" id="dummy-2_q1_0_all"  />
<polygon points="232,35 237,30 244,30 244,40 237,40 232,35 " style="fill:#15d8d8; stroke-width:1; stroke:black; " description="&lt;b&gt;input.path1.gene91&lt;/b&gt;&lt;br&gt;input.path1.gene91&lt;br&gt;Location: 403270 - 404240" locus_tag="input.path1.gene91" class="clusterblast-orf" id="dummy-2_q2_0_all"  />
<polygon points="275,40 283,40 288,35 283,30 275,30 275,40 " style="fill:#7715d8; stroke-width:1; stroke:black; " description="&lt;b&gt;input.path1.gene92&lt;/b&gt;&lt;br&gt;input.path1.gene92&lt;br&gt;Location: 406598 - 407634" locus_tag="input.path1.gene92" class="clusterblast-orf" id="dummy-2_q3_0_all"  />
<polygon points="299,35 304,30 312,30 312,40 304,40 299,35 " style="fill:#d8a715; stroke-width:1; stroke:black; " description="&lt;b&gt;input.path1.gene93&lt;/b&gt;&lt;br&gt;input.path1.gene93&lt;br&gt;Location: 408524 - 409511" locus_tag="input.path1.gene93" class="clusterblast-orf" id="dummy-2_q4_0_all"  />
<polygon points="346,40 366,40 371,35 366,30 346,30 346,40 " style="fill:#15d846; stroke-width:1; stroke:black; " description="&lt;b&gt;input.path1.gene94&lt;/b&gt;&lt;br&gt;input.path1.gene94&lt;br&gt;Location: 412157 - 414123" locus_tag="input.path1.gene94" class="clusterblast-orf" id="dummy-2_q5_0_all"  />
<polygon points="376,35 381,30 392,30 392,40 381,40 376,35 " style="fill:white; stroke-width:1; stroke:black; " description="&lt;b&gt;input.path1.gene95&lt;/b&gt;&lt;br&gt;input.path1.gene95&lt;br&gt;Location: 414467 - 415724" locus_tag="input.path1.gene95" class="clusterblast-orf" id="dummy-2_q6_0_all"  />
<polygon points="461,40 462,40 467,35 462,30 461,30 461,40 " style="fill:#1546d8; stroke-width:1; stroke:black; " description="&lt;b&gt;input.path1.gene96&lt;/b&gt;&lt;br&gt;input.path1.gene96&lt;br&gt;Location: 421120 - 421546" locus_tag="input.path1.gene96" class="clusterblast-orf" id="dummy-2_q7_0_all"  />
<polygon points="476,40 477,40 482,35 477,30 476,30 476,40 " style="fill:white; stroke-width:1; stroke:black; " description="&lt;b&gt;input.path1.gene97&lt;/b&gt;&lt;br&gt;input.path1.gene97&lt;br&gt;Location: 422251 - 422754" locus_tag="input.path1.gene97" class="clusterblast-orf" id="dummy-2_q8_0_all"  />
<polygon points="519,40 536,40 541,35 536,30 519,30 519,40 " style="fill:#d815a7; stroke-width:1; stroke:black; " description="&lt;b&gt;input.path1.gene98&lt;/b&gt;&lt;br&gt;input.path1.gene98&lt;br&gt;Location: 425598 - 427339" locus_tag="input.path1.gene98" class="clusterblast-orf" id="dummy-2_q9_0_all"  />
<polygon points="605,40 613,40 618,35 613,30 605,30 605,40 " style="fill:white; stroke-width:1; stroke:black; " description="&lt;b&gt;input.path1.gene99&lt;/b&gt;&lt;br&gt;input.path1.gene99&lt;br&gt;Location: 432287 - 433355" locus_tag="input.path1.gene99" class="clusterblast-orf" id="dummy-2_q10_0_all"  />
</g>
<g label="NW_021167081" description="NW_021167081 (357009-420018): Sodiomyces alkalinus F11 unplaced genomic scaff... (8% of genes show similarity), NRPS-like" class="clusterblast-cluster"  >
<text x="5" y="70" class="clusterblast-acc"  >
<a xlink:href="https://antismash-db.secondarymetabolites.org/area?record=NW_021167081&amp;start=357009&amp;end=420018" target="_blank">NW_021167081 (357009-420018)</a>: Sodiomyces alkalinus F11 unplaced genomic scaff... (8% of genes show similarity), NRPS-like</text>
<line x1="10" y1="85" x2="778.0" y2="85" style="stroke-width:1; stroke:grey; "  />
</g>
<g id="a2_000"  >
<polygon points="0,90 9,90 14,85 9,80 0,80 0,90 " style="fill:white; stroke-width:1; stroke:black; " description="&lt;b&gt;SODALDRAFT_309000&lt;/b&gt;&lt;br&gt;putative alcohol dehydrogenase&lt;br&gt;Location: 358378 - 359532" locus_tag="SODALDRAFT_309000" class="clusterblast-orf" id="dummy-2_h2_8_0"  />
</g>
<g id="a2_001"  >
<polygon points="17,85 22,80 25,80 25,90 22,90 17,85 " style="fill:white; stroke-width:1; stroke:black; " description="&lt;b&gt;SODALDRAFT_322958&lt;/b&gt;&lt;br&gt;hypothetical protein&lt;br&gt;Location: 359757 - 360377" locus_tag="SODALDRAFT_322958" class="clusterblast-orf" id="dummy-2_h2_8_1"  />
</g>
<g id="a2_002"  >
<polygon points="34,90 35,90 40,85 35,80 34,80 34,90 " style="fill:white; stroke-width:1; stroke:black; " description="&lt;b&gt;SODALDRAFT_331697&lt;/b&gt;&lt;br&gt;hypothetical protein&lt;br&gt;Location: 361099 - 361562" locus_tag="SODALDRAFT_331697" class="clusterblast-orf" id="dummy-2_h2_8_2"  />
</g>
<g id="a2_003"  >
<polygon points="44,85 48,80 48,90 44,85 " style="fill:white; stroke-width:1; stroke:black; " description="&lt;b&gt;SODALDRAFT_133476&lt;/b&gt;&lt;br&gt;hypothetical protein&lt;br&gt;Location: 361814 - 362191" locus_tag="SODALDRAFT_133476" class="clusterblast-orf" id="dummy-2_h2_8_3"  />
</g>
<g id="a2_004"  >
<polygon points="57,90 67,90 72,85 67,80 57,80 57,90 " style="fill:white; stroke-width:1; stroke:black; " description="&lt;b&gt;SODALDRAFT_377529&lt;/b&gt;&lt;br&gt;hypothetical protein&lt;br&gt;Location: 362837 - 364032" locus_tag="SODALDRAFT_377529" class="clusterblast-orf" id="dummy-2_h2_8_4"  />
</g>
<g id="a2_005"  >
<polygon points="88,85 93,80 104,80 104,90 93,90 88,85 " style="fill:white; stroke-width:1; stroke:black; " description="&lt;b&gt;SODALDRAFT_322961&lt;/b&gt;&lt;br&gt;hypothetical protein&lt;br&gt;Location: 365277 - 366545" locus_tag="SODALDRAFT_322961" class="clusterblast-orf" id="dummy-2_h2_8_5"  />
</g>
<g id="a2_006"  >
<polygon points="139,90 159,90 164,85 159,80 139,80 139,90 " style="fill:white; stroke-width:1; stroke:black; " description="&lt;b&gt;SODALDRAFT_273570&lt;/b&gt;&lt;br&gt;kinase-like protein&lt;br&gt;Location: 369234 - 371183" locus_tag="SODALDRAFT_273570" class="clusterblast-orf" id="dummy-2_h2_8_6"  />
</g>
<g id="a2_007"  >
<polygon points="171,85 176,80 185,80 185,90 176,90 171,85 " style="fill:white; stroke-width:1; stroke:black; " description="&lt;b&gt;SODALDRAFT_133882&lt;/b&gt;&lt;br&gt;hypothetical protein&lt;br&gt;Location: 371730 - 372786" locus_tag="SODALDRAFT_133882" class="clusterblast-orf" id="dummy-2_h2_8_7"  />
</g>
<g id="a2_008"  >
<polygon points="197,85 202,80 208,80 208,90 202,90 197,85 " style="fill:white; stroke-width:1; stroke:black; " description="&lt;b&gt;SODALDRAFT_331702&lt;/b&gt;&lt;br&gt;hypothetical protein&lt;br&gt;Location: 373730 - 374620" locus_tag="SODALDRAFT_331702" class="clusterblast-orf" id="dummy-2_h2_8_8"  />
</g>
<g id="a2_009"  >
<polygon points="248,85 253,80 259,80 259,90 253,90 248,85 " style="fill:white; stroke-width:1; stroke:black; " description="&lt;b&gt;SODALDRAFT_133994&lt;/b&gt;&lt;br&gt;hemerythrin HHE cation binding domain-containing protein&lt;br&gt;Location: 377749 - 378564" locus_tag="SODALDRAFT_133994" class="clusterblast-orf" id="dummy-2_h2_8_9"  />
</g>
<g id="a2_0010"  >
<polygon points="282,90 296,90 301,85 296,80 282,80 282,90 " style="fill:white; stroke-width:1; stroke:black; " description="&lt;b&gt;SODALDRAFT_331707&lt;/b&gt;&lt;br&gt;hypothetical protein&lt;br&gt;Location: 380353 - 381818" locus_tag="SODALDRAFT_331707" class="clusterblast-orf" id="dummy-2_h2_8_10"  />
</g>
<g id="a2_0011"  >
<polygon points="329,85 334,80 349,80 349,90 334,90 329,85 " style="fill:#d8a715; stroke-width:1; stroke:black; " description="&lt;b&gt;SODALDRAFT_331709&lt;/b&gt;&lt;br&gt;sterigmatocystin 8-O-methyltransferase&lt;br&gt;Location: 383999 - 385607&lt;br&gt;&lt;br&gt;&lt;b&gt;BlastP hit with input.path1.gene93&lt;/b&gt;&lt;br&gt;Percentage identity: 48&lt;br&gt;Percentage coverage: 71&lt;br&gt;BLAST bit score: 176&lt;br&gt;E-value: 2.22e-50" locus_tag="SODALDRAFT_331709" class="clusterblast-orf" id="dummy-2_h2_8_11"  />
</g>
<g id="a2_0012"  >
<polygon points="367,90 401,90 406,85 401,80 367,80 367,90 " style="fill:#15d846; stroke-width:1; stroke:black; " description="&lt;b&gt;SODALDRAFT_331711&lt;/b&gt;&lt;br&gt;acetyl-CoA synthetase-like protein&lt;br&gt;Location: 387010 - 390018&lt;br&gt;&lt;br&gt;&lt;b&gt;BlastP hit with input.path1.gene94&lt;/b&gt;&lt;br&gt;Percentage identity: 53&lt;br&gt;Percentage coverage: 103&lt;br&gt;BLAST bit score: 658&lt;br&gt;E-value: 2.36e-225" locus_tag="SODALDRAFT_331711" class="clusterblast-orf" id="dummy-2_h2_8_12"  />
</g>
<g id="a2_0013"  >
<polygon points="420,90 434,90 439,85 434,80 420,80 420,90 " style="fill:white; stroke-width:1; stroke:black; " description="&lt;b&gt;SODALDRAFT_292996&lt;/b&gt;&lt;br&gt;S-adenosyl-L-methionine-dependent methyltransferase&lt;br&gt;Location: 391134 - 392564" locus_tag="SODALDRAFT_292996" class="clusterblast-orf" id="dummy-2_h2_8_13"  />
</g>
<g id="a2_0014"  >
<polygon points="446,85 451,80 481,80 481,90 451,90 446,85 " style="fill:white; stroke-width:1; stroke:black; " description="&lt;b&gt;SODALDRAFT_349782&lt;/b&gt;&lt;br&gt;hypothetical protein&lt;br&gt;Location: 393159 - 395852" locus_tag="SODALDRAFT_349782" class="clusterblast-orf" id="dummy-2_h2_8_14"  />
</g>
<g id="a2_0015"  >
<polygon points="506,90 512,90 517,85 512,80 506,80 506,90 " style="fill:white; stroke-width:1; stroke:black; " description="&lt;b&gt;SODALDRAFT_339088&lt;/b&gt;&lt;br&gt;Arabinanase/levansucrase/invertase&lt;br&gt;Location: 397778 - 398693" locus_tag="SODALDRAFT_339088" class="clusterblast-orf" id="dummy-2_h2_8_15"  />
</g>
<g id="a2_0016"  >
<polygon points="533,85 538,80 542,80 542,90 538,90 533,85 " style="fill:white; stroke-width:1; stroke:black; " description="&lt;b&gt;SODALDRAFT_343671&lt;/b&gt;&lt;br&gt;glycoside hydrolase&lt;br&gt;Location: 399882 - 400607" locus_tag="SODALDRAFT_343671" class="clusterblast-orf" id="dummy-2_h2_8_16"  />
</g>
<g id="a2_0017"  >
<polygon points="572,90 576,90 581,85 576,80 572,80 572,90 " style="fill:white; stroke-width:1; stroke:black; " description="&lt;b&gt;SODALDRAFT_322973&lt;/b&gt;&lt;br&gt;hypothetical protein&lt;br&gt;Location: 402949 - 403679" locus_tag="SODALDRAFT_322973" class="clusterblast-orf" id="dummy-2_h2_8_17"  />
</g>
<g id="a2_0018"  >
<polygon points="596,90 605,90 610,85 605,80 596,80 596,90 " style="fill:white; stroke-width:1; stroke:black; " description="&lt;b&gt;SODALDRAFT_331713&lt;/b&gt;&lt;br&gt;ricin B lectin:Parallel beta-helix&lt;br&gt;Location: 404832 - 405896" locus_tag="SODALDRAFT_331713" class="clusterblast-orf" id="dummy-2_h2_8_18"  />
</g>
<g id="a2_0019"  >
<polygon points="616,85 621,80 634,80 634,90 621,90 616,85 " style="fill:white; stroke-width:1; stroke:black; " description="&lt;b&gt;SODALDRAFT_134131&lt;/b&gt;&lt;br&gt;exo-rhamnogalacturonase B&lt;br&gt;Location: 406352 - 407773" locus_tag="SODALDRAFT_134131" class="clusterblast-orf" id="dummy-2_h2_8_19"  />
</g>
<g id="a2_0020"  >
<polygon points="635,85 640,80 660,80 660,90 640,90 635,85 " style="fill:white; stroke-width:1; stroke:black; " description="&lt;b&gt;SODALDRAFT_358009&lt;/b&gt;&lt;br&gt;hypothetical protein&lt;br&gt;Location: 407823 - 409827" locus_tag="SODALDRAFT_358009" class="clusterblast-orf" id="dummy-2_h2_8_20"  />
</g>
<g id="a2_0021"  >
<polygon points="678,90 705,90 710,85 705,80 678,80 678,90 " style="fill:white; stroke-width:1; stroke:black; " description="&lt;b&gt;SODALDRAFT_273461&lt;/b&gt;&lt;br&gt;alcohol dehydrogenase&lt;br&gt;Location: 411229 - 413694" locus_tag="SODALDRAFT_273461" class="clusterblast-orf" id="dummy-2_h2_8_21"  />
</g>
<g id="a2_0022"  >
<polygon points="728,90 749,90 754,85 749,80 728,80 728,90 " style="fill:white; stroke-width:1; stroke:black; " description="&lt;b&gt;SODALDRAFT_274412&lt;/b&gt;&lt;br&gt;MFS general substrate transporter&lt;br&gt;Location: 415064 - 417130" locus_tag="SODALDRAFT_274412" class="clusterblast-orf" id="dummy-2_h2_8_22"  />
</g>
<g id="a2_0023"  >
<polygon points="762,85 767,80 780,80 780,90 767,90 762,85 " style="fill:white; stroke-width:1; stroke:black; " description="&lt;b&gt;SODALDRAFT_274784&lt;/b&gt;&lt;br&gt;hypothetical protein&lt;br&gt;Location: 417710 - 419091" locus_tag="SODALDRAFT_274784" class="clusterblast-orf" id="dummy-2_h2_8_23"  />
</g>
</svg>
