<svg xmlns="http://www.w3.org/2000/svg" xmlns:xlink="http://www.w3.org/1999/xlink" version="1.1" x="0" y="0" height="230" width="800" viewBox="0 0 800 230" preserveAspectRatio="none"  >
<g label="Query sequence" class="clusterblast-cluster"  >
<text x="5" y="20" class="clusterblast-acc"  >
Query sequence</text>
<line x1="10" y1="35" x2="778.0" y2="35" style="stroke-width:1; stroke:grey; "  />
<polygon points="162,40 190,40 195,35 190,30 162,30 162,40 " style="fill:#d81515; stroke-width:1; stroke:black; " description="&lt;b&gt;input.path1.gene2458&lt;/b&gt;&lt;br&gt;input.path1.gene2458&lt;br&gt;Location: 9181928 - 9183134" locus_tag="input.path1.gene2458" class="clusterblast-orf" id="dummy-12_q0_0_all"  />
<polygon points="211,35 216,30 280,30 280,40 216,40 211,35 " style="fill:#15d863; stroke-width:1; stroke:black; " description="&lt;b&gt;input.path1.gene2459&lt;/b&gt;&lt;br&gt;input.path1.gene2459&lt;br&gt;Location: 9183728 - 9186278" locus_tag="input.path1.gene2459" class="clusterblast-orf" id="dummy-12_q1_0_all"  />
<polygon points="344,40 393,40 398,35 393,30 344,30 344,40 " style="fill:#1563d8; stroke-width:1; stroke:black; " description="&lt;b&gt;input.path1.gene2460&lt;/b&gt;&lt;br&gt;input.path1.gene2460&lt;br&gt;Location: 9188660 - 9190627" locus_tag="input.path1.gene2460" class="clusterblast-orf" id="dummy-12_q2_0_all"  />
<polygon points="418,35 423,30 464,30 464,40 423,40 418,35 " style="fill:#b115d8; stroke-width:1; stroke:black; " description="&lt;b&gt;input.path1.gene2461&lt;/b&gt;&lt;br&gt;input.path1.gene2461&lt;br&gt;Location: 9191399 - 9193085" locus_tag="input.path1.gene2461" class="clusterblast-orf" id="dummy-12_q3_0_all"  />
<polygon points="582,40 612,40 617,35 612,30 582,30 582,40 " style="fill:#b1d815; stroke-width:1; stroke:black; " description="&lt;b&gt;input.path1.gene2462&lt;/b&gt;&lt;br&gt;input.path1.gene2462&lt;br&gt;Location: 9197443 - 9198746" locus_tag="input.path1.gene2462" class="clusterblast-orf" id="dummy-12_q4_0_all"  />
</g>
<g label="NC_038015" description="NC_038015 (6636088-6667634): Fusarium venenatum strain A3/5 genome assembly, ... (22% of genes show similarity), terpene" class="clusterblast-cluster"  >
<text x="5" y="70" class="clusterblast-acc"  >
<a xlink:href="https://antismash-db.secondarymetabolites.org/area?record=NC_038015&amp;start=6636088&amp;end=6667634" target="_blank">NC_038015 (6636088-6667634)</a>: Fusarium venenatum strain A3/5 genome assembly, ... (22% of genes show similarity), terpene</text>
<line x1="10" y1="85" x2="778.0" y2="85" style="stroke-width:1; stroke:grey; "  />
</g>
<g id="a12_000"  >
<polygon points="0,90 70,90 75,85 70,80 0,80 0,90 " style="fill:white; stroke-width:1; stroke:black; " description="&lt;b&gt;FVRRES_13382&lt;/b&gt;&lt;br&gt;uncharacterized protein&lt;br&gt;Location: 6665767 - 6662959" locus_tag="FVRRES_13382" class="clusterblast-orf" id="dummy-12_h12_7_0"  />
</g>
<g id="a12_001"  >
<polygon points="80,85 85,80 111,80 111,90 85,90 80,85 " style="fill:white; stroke-width:1; stroke:black; " description="&lt;b&gt;FVRRES_13381&lt;/b&gt;&lt;br&gt;uncharacterized protein&lt;br&gt;Location: 6662789 - 6661641" locus_tag="FVRRES_13381" class="clusterblast-orf" id="dummy-12_h12_7_1"  />
</g>
<g id="a12_002"  >
<polygon points="164,90 218,90 223,85 218,80 164,80 164,90 " style="fill:white; stroke-width:1; stroke:black; " description="&lt;b&gt;FVRRES_13380&lt;/b&gt;&lt;br&gt;uncharacterized protein&lt;br&gt;Location: 6659674 - 6657497" locus_tag="FVRRES_13380" class="clusterblast-orf" id="dummy-12_h12_7_2"  />
</g>
<g id="a12_003"  >
<polygon points="252,85 257,80 299,80 299,90 257,90 252,85 " style="fill:white; stroke-width:1; stroke:black; " description="&lt;b&gt;FVRRES_13379&lt;/b&gt;&lt;br&gt;uncharacterized protein&lt;br&gt;Location: 6656411 - 6654694" locus_tag="FVRRES_13379" class="clusterblast-orf" id="dummy-12_h12_7_3"  />
</g>
<g id="a12_004"  >
<polygon points="354,90 391,90 396,85 391,80 354,80 354,90 " style="fill:#1563d8; stroke-width:1; stroke:black; " description="&lt;b&gt;FVRRES_13378&lt;/b&gt;&lt;br&gt;uncharacterized protein&lt;br&gt;Location: 6652634 - 6651089&lt;br&gt;&lt;br&gt;&lt;b&gt;BlastP hit with input.path1.gene2460&lt;/b&gt;&lt;br&gt;Percentage identity: 79&lt;br&gt;Percentage coverage: 90&lt;br&gt;BLAST bit score: 717&lt;br&gt;E-value: 3.31e-259" locus_tag="FVRRES_13378" class="clusterblast-orf" id="dummy-12_h12_7_4"  />
</g>
<g id="a12_005"  >
<polygon points="430,85 435,80 470,80 470,90 435,90 430,85 " style="fill:#b115d8; stroke-width:1; stroke:black; " description="&lt;b&gt;FVRRES_13377&lt;/b&gt;&lt;br&gt;uncharacterized protein&lt;br&gt;Location: 6649857 - 6648357&lt;br&gt;&lt;br&gt;&lt;b&gt;BlastP hit with input.path1.gene2461&lt;/b&gt;&lt;br&gt;Percentage identity: 49&lt;br&gt;Percentage coverage: 83&lt;br&gt;BLAST bit score: 333&lt;br&gt;E-value: 3.63e-108" locus_tag="FVRRES_13377" class="clusterblast-orf" id="dummy-12_h12_7_5"  />
</g>
<g id="a12_006"  >
<polygon points="597,90 612,90 617,85 612,80 597,80 597,90 " style="fill:white; stroke-width:1; stroke:black; " description="&lt;b&gt;FVRRES_13376&lt;/b&gt;&lt;br&gt;uncharacterized protein&lt;br&gt;Location: 6643672 - 6642933" locus_tag="FVRRES_13376" class="clusterblast-orf" id="dummy-12_h12_7_6"  />
</g>
<g id="a12_007"  >
<polygon points="678,90 726,90 731,85 726,80 678,80 678,90 " style="fill:white; stroke-width:1; stroke:black; " description="&lt;b&gt;FVRRES_13375&lt;/b&gt;&lt;br&gt;uncharacterized protein&lt;br&gt;Location: 6640666 - 6638708" locus_tag="FVRRES_13375" class="clusterblast-orf" id="dummy-12_h12_7_7"  />
</g>
<g id="a12_008"  >
<polygon points="742,85 747,80 780,80 780,90 747,90 742,85 " style="fill:white; stroke-width:1; stroke:black; " description="&lt;b&gt;FVRRES_13374&lt;/b&gt;&lt;br&gt;uncharacterized protein&lt;br&gt;Location: 6638280 - 6636909" locus_tag="FVRRES_13374" class="clusterblast-orf" id="dummy-12_h12_7_8"  />
</g>
</svg>
