<svg xmlns="http://www.w3.org/2000/svg" xmlns:xlink="http://www.w3.org/1999/xlink" version="1.1" x="0" y="0" height="230" width="800" viewBox="0 0 800 230" preserveAspectRatio="none"  >
<g label="Query sequence" class="clusterblast-cluster"  >
<text x="5" y="20" class="clusterblast-acc"  >
Query sequence</text>
<line x1="10" y1="35" x2="778.0" y2="35" style="stroke-width:1; stroke:grey; "  />
<polygon points="138,40 148,40 153,35 148,30 138,30 138,40 " style="fill:white; stroke-width:1; stroke:black; " description="&lt;b&gt;input.path1.gene351&lt;/b&gt;&lt;br&gt;input.path1.gene351&lt;br&gt;Location: 1320367 - 1321607" locus_tag="input.path1.gene351" class="clusterblast-orf" id="dummy-4_q0_0_all"  />
<polygon points="159,40 179,40 184,35 179,30 159,30 159,40 " style="fill:#d81515; stroke-width:1; stroke:black; " description="&lt;b&gt;input.path1.gene352&lt;/b&gt;&lt;br&gt;input.path1.gene352&lt;br&gt;Location: 1322066 - 1324028" locus_tag="input.path1.gene352" class="clusterblast-orf" id="dummy-4_q1_0_all"  />
<polygon points="198,40 201,35 198,30 198,40 " style="fill:white; stroke-width:1; stroke:black; " description="&lt;b&gt;input.path1.gene353&lt;/b&gt;&lt;br&gt;input.path1.gene353&lt;br&gt;Location: 1325161 - 1325461" locus_tag="input.path1.gene353" class="clusterblast-orf" id="dummy-4_q2_0_all"  />
<polygon points="251,35 256,30 267,30 267,40 256,40 251,35 " style="fill:white; stroke-width:1; stroke:black; " description="&lt;b&gt;input.path1.gene354&lt;/b&gt;&lt;br&gt;input.path1.gene354&lt;br&gt;Location: 1329446 - 1330742" locus_tag="input.path1.gene354" class="clusterblast-orf" id="dummy-4_q3_0_all"  />
<polygon points="310,40 311,40 316,35 311,30 310,30 310,40 " style="fill:white; stroke-width:1; stroke:black; " description="&lt;b&gt;input.path1.gene355&lt;/b&gt;&lt;br&gt;input.path1.gene355&lt;br&gt;Location: 1334223 - 1334750" locus_tag="input.path1.gene355" class="clusterblast-orf" id="dummy-4_q4_0_all"  />
<polygon points="328,35 333,30 342,30 342,40 333,40 328,35 " style="fill:#4dd815; stroke-width:1; stroke:black; " description="&lt;b&gt;input.path1.gene356&lt;/b&gt;&lt;br&gt;input.path1.gene356&lt;br&gt;Location: 1335708 - 1336808" locus_tag="input.path1.gene356" class="clusterblast-orf" id="dummy-4_q5_0_all"  />
<polygon points="352,40 415,40 420,35 415,30 352,30 352,40 " style="fill:#1585d8; stroke-width:1; stroke:black; " description="&lt;b&gt;input.path1.gene357&lt;/b&gt;&lt;br&gt;input.path1.gene357&lt;br&gt;Location: 1337603 - 1343094" locus_tag="input.path1.gene357" class="clusterblast-orf" id="dummy-4_q6_0_all"  />
<polygon points="442,40 456,40 461,35 456,30 442,30 442,40 " style="fill:#d815bc; stroke-width:1; stroke:black; " description="&lt;b&gt;input.path1.gene358&lt;/b&gt;&lt;br&gt;input.path1.gene358&lt;br&gt;Location: 1344884 - 1346435" locus_tag="input.path1.gene358" class="clusterblast-orf" id="dummy-4_q7_0_all"  />
<polygon points="476,35 481,30 499,30 499,40 481,40 476,35 " style="fill:#d8bc15; stroke-width:1; stroke:black; " description="&lt;b&gt;input.path1.gene359&lt;/b&gt;&lt;br&gt;input.path1.gene359&lt;br&gt;Location: 1347602 - 1349460" locus_tag="input.path1.gene359" class="clusterblast-orf" id="dummy-4_q8_0_all"  />
<polygon points="568,35 573,30 580,30 580,40 573,40 568,35 " style="fill:#15d885; stroke-width:1; stroke:black; " description="&lt;b&gt;input.path1.gene360&lt;/b&gt;&lt;br&gt;input.path1.gene360&lt;br&gt;Location: 1355005 - 1355980" locus_tag="input.path1.gene360" class="clusterblast-orf" id="dummy-4_q9_0_all"  />
<polygon points="586,40 590,40 595,35 590,30 586,30 586,40 " style="fill:#4d15d8; stroke-width:1; stroke:black; " description="&lt;b&gt;input.path1.gene361&lt;/b&gt;&lt;br&gt;input.path1.gene361&lt;br&gt;Location: 1356530 - 1357220" locus_tag="input.path1.gene361" class="clusterblast-orf" id="dummy-4_q10_0_all"  />
<polygon points="625,40 636,40 641,35 636,30 625,30 625,40 " style="fill:white; stroke-width:1; stroke:black; " description="&lt;b&gt;input.path1.gene362&lt;/b&gt;&lt;br&gt;input.path1.gene362&lt;br&gt;Location: 1359598 - 1360936" locus_tag="input.path1.gene362" class="clusterblast-orf" id="dummy-4_q11_0_all"  />
</g>
<g label="NW_017264194" description="NW_017264194 (1641447-1706985): Xylona heveae TC161 unplaced genomic scaffold... (20% of genes show similarity), T1PKS" class="clusterblast-cluster"  >
<text x="5" y="70" class="clusterblast-acc"  >
<a xlink:href="https://antismash-db.secondarymetabolites.org/area?record=NW_017264194&amp;start=1641447&amp;end=1706985" target="_blank">NW_017264194 (1641447-1706985)</a>: Xylona heveae TC161 unplaced genomic scaffold... (20% of genes show similarity), T1PKS</text>
<line x1="10" y1="85" x2="778.0" y2="85" style="stroke-width:1; stroke:grey; "  />
</g>
<g id="a4_000"  >
<polygon points="0,90 10,90 15,85 10,80 0,80 0,90 " style="fill:white; stroke-width:1; stroke:black; " description="&lt;b&gt;L228DRAFT_67033&lt;/b&gt;&lt;br&gt;amidohydrolase 2&lt;br&gt;Location: 1641512 - 1642743" locus_tag="L228DRAFT_67033" class="clusterblast-orf" id="dummy-4_h4_2_0"  />
</g>
<g id="a4_001"  >
<polygon points="24,85 29,80 41,80 41,90 29,90 24,85 " style="fill:white; stroke-width:1; stroke:black; " description="&lt;b&gt;L228DRAFT_66969&lt;/b&gt;&lt;br&gt;hypothetical protein&lt;br&gt;Location: 1643511 - 1644861" locus_tag="L228DRAFT_66969" class="clusterblast-orf" id="dummy-4_h4_2_1"  />
</g>
<g id="a4_002"  >
<polygon points="135,90 155,90 160,85 155,80 135,80 135,90 " style="fill:white; stroke-width:1; stroke:black; " description="&lt;b&gt;L228DRAFT_217682&lt;/b&gt;&lt;br&gt;Piwi-domain-containing protein&lt;br&gt;Location: 1652445 - 1654471" locus_tag="L228DRAFT_217682" class="clusterblast-orf" id="dummy-4_h4_2_2"  />
</g>
<g id="a4_003"  >
<polygon points="170,85 175,80 187,80 187,90 175,90 170,85 " style="fill:white; stroke-width:1; stroke:black; " description="&lt;b&gt;L228DRAFT_236444&lt;/b&gt;&lt;br&gt;hypothetical protein&lt;br&gt;Location: 1655249 - 1656655" locus_tag="L228DRAFT_236444" class="clusterblast-orf" id="dummy-4_h4_2_3"  />
</g>
<g id="a4_004"  >
<polygon points="274,90 285,90 290,85 285,80 274,80 274,90 " style="fill:white; stroke-width:1; stroke:black; " description="&lt;b&gt;L228DRAFT_236445&lt;/b&gt;&lt;br&gt;hypothetical protein&lt;br&gt;Location: 1663614 - 1664912" locus_tag="L228DRAFT_236445" class="clusterblast-orf" id="dummy-4_h4_2_4"  />
</g>
<g id="a4_005"  >
<polygon points="314,90 314,90 319,85 314,80 314,80 314,90 " style="fill:white; stroke-width:1; stroke:black; " description="&lt;b&gt;L228DRAFT_67156&lt;/b&gt;&lt;br&gt;hypothetical protein&lt;br&gt;Location: 1666837 - 1667259" locus_tag="L228DRAFT_67156" class="clusterblast-orf" id="dummy-4_h4_2_5"  />
</g>
<g id="a4_006"  >
<polygon points="328,90 331,85 328,80 328,90 " style="fill:white; stroke-width:1; stroke:black; " description="&lt;b&gt;L228DRAFT_244152&lt;/b&gt;&lt;br&gt;hypothetical protein&lt;br&gt;Location: 1667975 - 1668214" locus_tag="L228DRAFT_244152" class="clusterblast-orf" id="dummy-4_h4_2_6"  />
</g>
<g id="a4_007"  >
<polygon points="371,85 376,80 439,80 439,90 376,90 371,85 " style="fill:#1585d8; stroke-width:1; stroke:black; " description="&lt;b&gt;L228DRAFT_217688&lt;/b&gt;&lt;br&gt;beta-ketoacyl synthase domain-containing protein&lt;br&gt;Location: 1671448 - 1676985&lt;br&gt;&lt;br&gt;&lt;b&gt;BlastP hit with input.path1.gene357&lt;/b&gt;&lt;br&gt;Percentage identity: 54&lt;br&gt;Percentage coverage: 101&lt;br&gt;BLAST bit score: 1956&lt;br&gt;E-value: 0.0" locus_tag="L228DRAFT_217688" class="clusterblast-orf" id="dummy-4_h4_2_7"  />
</g>
<g id="a4_008"  >
<polygon points="452,85 457,80 467,80 467,90 457,90 452,85 " style="fill:white; stroke-width:1; stroke:black; " description="&lt;b&gt;L228DRAFT_280587&lt;/b&gt;&lt;br&gt;NAD(P)-binding protein&lt;br&gt;Location: 1678017 - 1679225" locus_tag="L228DRAFT_280587" class="clusterblast-orf" id="dummy-4_h4_2_8"  />
</g>
<g id="a4_009"  >
<polygon points="471,85 476,80 484,80 484,90 476,90 471,85 " style="fill:#15d885; stroke-width:1; stroke:black; " description="&lt;b&gt;L228DRAFT_252348&lt;/b&gt;&lt;br&gt;metallo-beta-lactamase domain protein&lt;br&gt;Location: 1679542 - 1680558&lt;br&gt;&lt;br&gt;&lt;b&gt;BlastP hit with input.path1.gene360&lt;/b&gt;&lt;br&gt;Percentage identity: 53&lt;br&gt;Percentage coverage: 99&lt;br&gt;BLAST bit score: 320&lt;br&gt;E-value: 1.9e-107" locus_tag="L228DRAFT_252348" class="clusterblast-orf" id="dummy-4_h4_2_9"  />
</g>
<g id="a4_0010"  >
<polygon points="489,90 493,90 498,85 493,80 489,80 489,90 " style="fill:#4d15d8; stroke-width:1; stroke:black; " description="&lt;b&gt;L228DRAFT_244159&lt;/b&gt;&lt;br&gt;S-adenosyl-L-methionine dependent methyltransferase&lt;br&gt;Location: 1681004 - 1681702&lt;br&gt;&lt;br&gt;&lt;b&gt;BlastP hit with input.path1.gene361&lt;/b&gt;&lt;br&gt;Percentage identity: 41&lt;br&gt;Percentage coverage: 97&lt;br&gt;BLAST bit score: 202&lt;br&gt;E-value: 1.5e-63" locus_tag="L228DRAFT_244159" class="clusterblast-orf" id="dummy-4_h4_2_10"  />
</g>
<g id="a4_0011"  >
<polygon points="504,85 509,80 528,80 528,90 509,90 504,85 " style="fill:white; stroke-width:1; stroke:black; " description="&lt;b&gt;L228DRAFT_244160&lt;/b&gt;&lt;br&gt;putative MFS multidrug transporter&lt;br&gt;Location: 1682224 - 1684100" locus_tag="L228DRAFT_244160" class="clusterblast-orf" id="dummy-4_h4_2_11"  />
</g>
<g id="a4_0012"  >
<polygon points="536,90 555,90 560,85 555,80 536,80 536,90 " style="fill:white; stroke-width:1; stroke:black; " description="&lt;b&gt;L228DRAFT_67442&lt;/b&gt;&lt;br&gt;FAD/NAD(P)-binding domain-containing protein&lt;br&gt;Location: 1684786 - 1686753" locus_tag="L228DRAFT_67442" class="clusterblast-orf" id="dummy-4_h4_2_12"  />
</g>
<g id="a4_0013"  >
<polygon points="570,85 575,80 582,80 582,90 575,90 570,85 " style="fill:white; stroke-width:1; stroke:black; " description="&lt;b&gt;L228DRAFT_208152&lt;/b&gt;&lt;br&gt;oxidoreductase NAD-binding domain-containing protein&lt;br&gt;Location: 1687562 - 1688488" locus_tag="L228DRAFT_208152" class="clusterblast-orf" id="dummy-4_h4_2_13"  />
</g>
<g id="a4_0014"  >
<polygon points="591,90 599,90 604,85 599,80 591,80 591,90 " style="fill:white; stroke-width:1; stroke:black; " description="&lt;b&gt;L228DRAFT_236453&lt;/b&gt;&lt;br&gt;NAD(P)-binding protein&lt;br&gt;Location: 1689198 - 1690265" locus_tag="L228DRAFT_236453" class="clusterblast-orf" id="dummy-4_h4_2_14"  />
</g>
<g id="a4_0015"  >
<polygon points="624,85 629,80 642,80 642,90 629,90 624,85 " style="fill:white; stroke-width:1; stroke:black; " description="&lt;b&gt;L228DRAFT_244165&lt;/b&gt;&lt;br&gt;hypothetical protein&lt;br&gt;Location: 1691867 - 1693320" locus_tag="L228DRAFT_244165" class="clusterblast-orf" id="dummy-4_h4_2_15"  />
</g>
<g id="a4_0016"  >
<polygon points="650,85 655,80 661,80 661,90 655,90 650,85 " style="fill:white; stroke-width:1; stroke:black; " description="&lt;b&gt;L228DRAFT_244167&lt;/b&gt;&lt;br&gt;hypothetical protein&lt;br&gt;Location: 1694000 - 1694879" locus_tag="L228DRAFT_244167" class="clusterblast-orf" id="dummy-4_h4_2_16"  />
</g>
<g id="a4_0017"  >
<polygon points="676,90 694,90 699,85 694,80 676,80 676,90 " style="fill:white; stroke-width:1; stroke:black; " description="&lt;b&gt;L228DRAFT_244169&lt;/b&gt;&lt;br&gt;hypothetical protein&lt;br&gt;Location: 1696071 - 1697918" locus_tag="L228DRAFT_244169" class="clusterblast-orf" id="dummy-4_h4_2_17"  />
</g>
<g id="a4_0018"  >
<polygon points="720,90 742,90 747,85 742,80 720,80 720,90 " style="fill:#d81515; stroke-width:1; stroke:black; " description="&lt;b&gt;L228DRAFT_265822&lt;/b&gt;&lt;br&gt;MFS general substrate transporter&lt;br&gt;Location: 1699619 - 1701823&lt;br&gt;&lt;br&gt;&lt;b&gt;BlastP hit with input.path1.gene352&lt;/b&gt;&lt;br&gt;Percentage identity: 44&lt;br&gt;Percentage coverage: 110&lt;br&gt;BLAST bit score: 396&lt;br&gt;E-value: 1.25e-130" locus_tag="L228DRAFT_265822" class="clusterblast-orf" id="dummy-4_h4_2_18"  />
</g>
<g id="a4_0019"  >
<polygon points="748,85 753,80 780,80 780,90 753,90 748,85 " style="fill:white; stroke-width:1; stroke:black; " description="&lt;b&gt;L228DRAFT_236458&lt;/b&gt;&lt;br&gt;hypothetical protein&lt;br&gt;Location: 1701868 - 1704421" locus_tag="L228DRAFT_236458" class="clusterblast-orf" id="dummy-4_h4_2_19"  />
</g>
</svg>
