<svg xmlns="http://www.w3.org/2000/svg" xmlns:xlink="http://www.w3.org/1999/xlink" version="1.1" x="0" y="0" height="230" width="800" viewBox="0 0 800 230" preserveAspectRatio="none"  >
<g label="Query sequence" class="clusterblast-cluster"  >
<text x="5" y="20" class="clusterblast-acc"  >
Query sequence</text>
<line x1="10" y1="35" x2="778.0" y2="35" style="stroke-width:1; stroke:grey; "  />
<polygon points="290,35 295,30 303,30 303,40 295,40 290,35 " style="fill:#d81515; stroke-width:1; stroke:black; " description="&lt;b&gt;input.path1.gene12&lt;/b&gt;&lt;br&gt;input.path1.gene12&lt;br&gt;Location: 37929 - 40552" locus_tag="input.path1.gene12" class="clusterblast-orf" id="dummy-1_q0_0_all"  />
<polygon points="307,40 311,35 307,30 307,40 " style="fill:white; stroke-width:1; stroke:black; " description="&lt;b&gt;input.path1.gene13&lt;/b&gt;&lt;br&gt;input.path1.gene13&lt;br&gt;Location: 41410 - 42231" locus_tag="input.path1.gene13" class="clusterblast-orf" id="dummy-1_q1_0_all"  />
<polygon points="324,40 324,40 329,35 324,30 324,30 324,40 " style="fill:#4dd815; stroke-width:1; stroke:black; " description="&lt;b&gt;input.path1.gene14&lt;/b&gt;&lt;br&gt;input.path1.gene14&lt;br&gt;Location: 44940 - 46014" locus_tag="input.path1.gene14" class="clusterblast-orf" id="dummy-1_q2_0_all"  />
<polygon points="329,35 332,30 332,40 329,35 " style="fill:white; stroke-width:1; stroke:black; " description="&lt;b&gt;input.path1.gene15&lt;/b&gt;&lt;br&gt;input.path1.gene15&lt;br&gt;Location: 46024 - 46621" locus_tag="input.path1.gene15" class="clusterblast-orf" id="dummy-1_q3_0_all"  />
<polygon points="356,35 361,30 396,30 396,40 361,40 356,35 " style="fill:#1585d8; stroke-width:1; stroke:black; " description="&lt;b&gt;input.path1.gene16&lt;/b&gt;&lt;br&gt;input.path1.gene16&lt;br&gt;Location: 51646 - 59952" locus_tag="input.path1.gene16" class="clusterblast-orf" id="dummy-1_q4_0_all"  />
<polygon points="412,35 417,30 417,30 417,40 417,40 412,35 " style="fill:white; stroke-width:1; stroke:black; " description="&lt;b&gt;input.path1.gene17&lt;/b&gt;&lt;br&gt;input.path1.gene17&lt;br&gt;Location: 63106 - 64259" locus_tag="input.path1.gene17" class="clusterblast-orf" id="dummy-1_q5_0_all"  />
<polygon points="427,40 427,40 432,35 427,30 427,30 427,40 " style="fill:#d815bc; stroke-width:1; stroke:black; " description="&lt;b&gt;input.path1.gene18&lt;/b&gt;&lt;br&gt;input.path1.gene18&lt;br&gt;Location: 66390 - 67307" locus_tag="input.path1.gene18" class="clusterblast-orf" id="dummy-1_q6_0_all"  />
<polygon points="433,35 438,30 443,30 443,40 438,40 433,35 " style="fill:#d8bc15; stroke-width:1; stroke:black; " description="&lt;b&gt;input.path1.gene19&lt;/b&gt;&lt;br&gt;input.path1.gene19&lt;br&gt;Location: 67639 - 69615" locus_tag="input.path1.gene19" class="clusterblast-orf" id="dummy-1_q7_0_all"  />
<polygon points="476,35 481,30 482,30 482,40 481,40 476,35 " style="fill:#15d885; stroke-width:1; stroke:black; " description="&lt;b&gt;input.path1.gene20&lt;/b&gt;&lt;br&gt;input.path1.gene20&lt;br&gt;Location: 76457 - 77805" locus_tag="input.path1.gene20" class="clusterblast-orf" id="dummy-1_q8_0_all"  />
<polygon points="485,40 489,35 485,30 485,40 " style="fill:#4d15d8; stroke-width:1; stroke:black; " description="&lt;b&gt;input.path1.gene21&lt;/b&gt;&lt;br&gt;input.path1.gene21&lt;br&gt;Location: 78432 - 79163" locus_tag="input.path1.gene21" class="clusterblast-orf" id="dummy-1_q9_0_all"  />
</g>
<g label="NW_024468995" description="NW_024468995 (361260-526376): Aspergillus fijiensis CBS 313.89 unplaced genom... (3% of genes show similarity), NRPS,T1PKS,fungal-RiPP-like" class="clusterblast-cluster"  >
<text x="5" y="70" class="clusterblast-acc"  >
<a xlink:href="https://antismash-db.secondarymetabolites.org/area?record=NW_024468995&amp;start=361260&amp;end=526376" target="_blank">NW_024468995 (361260-526376)</a>: Aspergillus fijiensis CBS 313.89 unplaced genom... (3% of genes show similarity), NRPS,T1PKS,fungal-RiPP-like</text>
<line x1="10" y1="85" x2="778.0" y2="85" style="stroke-width:1; stroke:grey; "  />
</g>
<g id="a1_000"  >
<polygon points="0,90 4,90 9,85 4,80 0,80 0,90 " style="fill:white; stroke-width:1; stroke:black; " description="&lt;b&gt;BO72DRAFT_447507&lt;/b&gt;&lt;br&gt;efflux pump protein&lt;br&gt;Location: 524050 - 521994" locus_tag="BO72DRAFT_447507" class="clusterblast-orf" id="dummy-1_h1_8_0"  />
</g>
<g id="a1_001"  >
<polygon points="11,85 16,80 20,80 20,90 16,90 11,85 " style="fill:white; stroke-width:1; stroke:black; " description="&lt;b&gt;BO72DRAFT_507962&lt;/b&gt;&lt;br&gt;MFS general substrate transporter&lt;br&gt;Location: 521666 - 519801" locus_tag="BO72DRAFT_507962" class="clusterblast-orf" id="dummy-1_h1_8_1"  />
</g>
<g id="a1_002"  >
<polygon points="26,85 28,80 28,90 26,85 " style="fill:white; stroke-width:1; stroke:black; " description="&lt;b&gt;BO72DRAFT_495626&lt;/b&gt;&lt;br&gt;uncharacterized protein&lt;br&gt;Location: 518613 - 518098" locus_tag="BO72DRAFT_495626" class="clusterblast-orf" id="dummy-1_h1_8_2"  />
</g>
<g id="a1_003"  >
<polygon points="33,85 38,80 40,80 40,90 38,90 33,85 " style="fill:white; stroke-width:1; stroke:black; " description="&lt;b&gt;BO72DRAFT_447506&lt;/b&gt;&lt;br&gt;uncharacterized protein&lt;br&gt;Location: 517005 - 515578" locus_tag="BO72DRAFT_447506" class="clusterblast-orf" id="dummy-1_h1_8_3"  />
</g>
<g id="a1_004"  >
<polygon points="43,90 49,90 54,85 49,80 43,80 43,90 " style="fill:white; stroke-width:1; stroke:black; " description="&lt;b&gt;BO72DRAFT_495624&lt;/b&gt;&lt;br&gt;uncharacterized protein&lt;br&gt;Location: 515110 - 512684" locus_tag="BO72DRAFT_495624" class="clusterblast-orf" id="dummy-1_h1_8_4"  />
</g>
<g id="a1_005"  >
<polygon points="58,90 59,90 64,85 59,80 58,80 58,90 " style="fill:white; stroke-width:1; stroke:black; " description="&lt;b&gt;BO72DRAFT_84308&lt;/b&gt;&lt;br&gt;uncharacterized protein&lt;br&gt;Location: 511978 - 510635" locus_tag="BO72DRAFT_84308" class="clusterblast-orf" id="dummy-1_h1_8_5"  />
</g>
<g id="a1_006"  >
<polygon points="68,85 73,80 76,80 76,90 73,90 68,85 " style="fill:white; stroke-width:1; stroke:black; " description="&lt;b&gt;BO72DRAFT_447504&lt;/b&gt;&lt;br&gt;cytochrome P450&lt;br&gt;Location: 509782 - 508095" locus_tag="BO72DRAFT_447504" class="clusterblast-orf" id="dummy-1_h1_8_6"  />
</g>
<g id="a1_007"  >
<polygon points="78,90 79,90 84,85 79,80 78,80 78,90 " style="fill:white; stroke-width:1; stroke:black; " description="&lt;b&gt;BO72DRAFT_447503&lt;/b&gt;&lt;br&gt;GroES-like protein&lt;br&gt;Location: 507734 - 506560" locus_tag="BO72DRAFT_447503" class="clusterblast-orf" id="dummy-1_h1_8_7"  />
</g>
<g id="a1_008"  >
<polygon points="84,85 89,80 91,80 91,90 89,90 84,85 " style="fill:white; stroke-width:1; stroke:black; " description="&lt;b&gt;BO72DRAFT_84300&lt;/b&gt;&lt;br&gt;beta-lactamase class C and other penicillin binding protein&lt;br&gt;Location: 506445 - 505146" locus_tag="BO72DRAFT_84300" class="clusterblast-orf" id="dummy-1_h1_8_8"  />
</g>
<g id="a1_009"  >
<polygon points="93,90 93,90 98,85 93,80 93,80 93,90 " style="fill:white; stroke-width:1; stroke:black; " description="&lt;b&gt;BO72DRAFT_447501&lt;/b&gt;&lt;br&gt;NAD(P)-binding protein&lt;br&gt;Location: 504595 - 503534" locus_tag="BO72DRAFT_447501" class="clusterblast-orf" id="dummy-1_h1_8_9"  />
</g>
<g id="a1_0010"  >
<polygon points="100,85 105,80 106,80 106,90 105,90 100,85 " style="fill:white; stroke-width:1; stroke:black; " description="&lt;b&gt;BO72DRAFT_427745&lt;/b&gt;&lt;br&gt;S-adenosyl-L-methionine-dependent methyltransferase&lt;br&gt;Location: 503185 - 501939" locus_tag="BO72DRAFT_427745" class="clusterblast-orf" id="dummy-1_h1_8_10"  />
</g>
<g id="a1_0011"  >
<polygon points="108,85 113,80 124,80 124,90 113,90 108,85 " style="fill:white; stroke-width:1; stroke:black; " description="&lt;b&gt;BO72DRAFT_427743&lt;/b&gt;&lt;br&gt;cytochrome P450&lt;br&gt;Location: 501495 - 498096" locus_tag="BO72DRAFT_427743" class="clusterblast-orf" id="dummy-1_h1_8_11"  />
</g>
<g id="a1_0012"  >
<polygon points="126,90 130,90 135,85 130,80 126,80 126,90 " style="fill:white; stroke-width:1; stroke:black; " description="&lt;b&gt;BO72DRAFT_427739&lt;/b&gt;&lt;br&gt;FAD-binding domain-containing protein&lt;br&gt;Location: 497714 - 495881" locus_tag="BO72DRAFT_427739" class="clusterblast-orf" id="dummy-1_h1_8_12"  />
</g>
<g id="a1_0013"  >
<polygon points="138,90 142,85 138,80 138,90 " style="fill:white; stroke-width:1; stroke:black; " description="&lt;b&gt;BO72DRAFT_376283&lt;/b&gt;&lt;br&gt;uncharacterized protein&lt;br&gt;Location: 495287 - 494462" locus_tag="BO72DRAFT_376283" class="clusterblast-orf" id="dummy-1_h1_8_13"  />
</g>
<g id="a1_0014"  >
<polygon points="145,85 150,80 154,80 154,90 150,90 145,85 " style="fill:white; stroke-width:1; stroke:black; " description="&lt;b&gt;BO72DRAFT_402819&lt;/b&gt;&lt;br&gt;cytochrome P450&lt;br&gt;Location: 493909 - 492004" locus_tag="BO72DRAFT_402819" class="clusterblast-orf" id="dummy-1_h1_8_14"  />
</g>
<g id="a1_0015"  >
<polygon points="157,90 159,90 164,85 159,80 157,80 157,90 " style="fill:#4d15d8; stroke-width:1; stroke:black; " description="&lt;b&gt;BO72DRAFT_527193&lt;/b&gt;&lt;br&gt;uncharacterized protein&lt;br&gt;Location: 491447 - 489906&lt;br&gt;&lt;br&gt;&lt;b&gt;BlastP hit with input.path1.gene21&lt;/b&gt;&lt;br&gt;Percentage identity: 42&lt;br&gt;Percentage coverage: 87&lt;br&gt;BLAST bit score: 126&lt;br&gt;E-value: 7.07e-32" locus_tag="BO72DRAFT_527193" class="clusterblast-orf" id="dummy-1_h1_8_15"  />
</g>
<g id="a1_0016"  >
<polygon points="165,85 170,80 170,80 170,90 170,90 165,85 " style="fill:white; stroke-width:1; stroke:black; " description="&lt;b&gt;BO72DRAFT_376178&lt;/b&gt;&lt;br&gt;toxin biosynthesis ketoreductase&lt;br&gt;Location: 489585 - 488657" locus_tag="BO72DRAFT_376178" class="clusterblast-orf" id="dummy-1_h1_8_16"  />
</g>
<g id="a1_0017"  >
<polygon points="174,85 179,80 180,80 180,90 179,90 174,85 " style="fill:white; stroke-width:1; stroke:black; " description="&lt;b&gt;BO72DRAFT_507944&lt;/b&gt;&lt;br&gt;NmrA-like family protein&lt;br&gt;Location: 487841 - 486557" locus_tag="BO72DRAFT_507944" class="clusterblast-orf" id="dummy-1_h1_8_17"  />
</g>
<g id="a1_0018"  >
<polygon points="184,85 185,80 185,90 184,85 " style="fill:white; stroke-width:1; stroke:black; " description="&lt;b&gt;BO72DRAFT_527192&lt;/b&gt;&lt;br&gt;uncharacterized protein&lt;br&gt;Location: 485663 - 485435" locus_tag="BO72DRAFT_527192" class="clusterblast-orf" id="dummy-1_h1_8_18"  />
</g>
<g id="a1_0019"  >
<polygon points="188,85 193,80 195,80 195,90 193,90 188,85 " style="fill:white; stroke-width:1; stroke:black; " description="&lt;b&gt;BO72DRAFT_495609&lt;/b&gt;&lt;br&gt;uncharacterized protein&lt;br&gt;Location: 484828 - 483503" locus_tag="BO72DRAFT_495609" class="clusterblast-orf" id="dummy-1_h1_8_19"  />
</g>
<g id="a1_0020"  >
<polygon points="205,90 205,90 210,85 205,80 205,80 205,90 " style="fill:white; stroke-width:1; stroke:black; " description="&lt;b&gt;BO72DRAFT_495607&lt;/b&gt;&lt;br&gt;uncharacterized protein&lt;br&gt;Location: 481376 - 480375" locus_tag="BO72DRAFT_495607" class="clusterblast-orf" id="dummy-1_h1_8_20"  />
</g>
<g id="a1_0021"  >
<polygon points="210,85 213,80 213,90 210,85 " style="fill:white; stroke-width:1; stroke:black; " description="&lt;b&gt;BO72DRAFT_507936&lt;/b&gt;&lt;br&gt;uncharacterized protein&lt;br&gt;Location: 480255 - 479717" locus_tag="BO72DRAFT_507936" class="clusterblast-orf" id="dummy-1_h1_8_21"  />
</g>
<g id="a1_0022"  >
<polygon points="216,90 218,90 223,85 218,80 216,80 216,90 " style="fill:white; stroke-width:1; stroke:black; " description="&lt;b&gt;BO72DRAFT_427727&lt;/b&gt;&lt;br&gt;uncharacterized protein&lt;br&gt;Location: 479057 - 477619" locus_tag="BO72DRAFT_427727" class="clusterblast-orf" id="dummy-1_h1_8_22"  />
</g>
<g id="a1_0023"  >
<polygon points="225,90 226,90 231,85 226,80 225,80 225,90 " style="fill:white; stroke-width:1; stroke:black; " description="&lt;b&gt;BO72DRAFT_402811&lt;/b&gt;&lt;br&gt;S-adenosyl-L-methionine-dependent methyltransferase&lt;br&gt;Location: 477248 - 476061" locus_tag="BO72DRAFT_402811" class="clusterblast-orf" id="dummy-1_h1_8_23"  />
</g>
<g id="a1_0024"  >
<polygon points="232,85 237,80 275,80 275,90 237,90 232,85 " style="fill:#1585d8; stroke-width:1; stroke:black; " description="&lt;b&gt;BO72DRAFT_427723&lt;/b&gt;&lt;br&gt;putative polyketide synthase&lt;br&gt;Location: 475813 - 466946&lt;br&gt;&lt;br&gt;&lt;b&gt;BlastP hit with input.path1.gene16&lt;/b&gt;&lt;br&gt;Percentage identity: 33&lt;br&gt;Percentage coverage: 112&lt;br&gt;BLAST bit score: 1261&lt;br&gt;E-value: 0.0" locus_tag="BO72DRAFT_427723" class="clusterblast-orf" id="dummy-1_h1_8_24"  />
</g>
<g id="a1_0025"  >
<polygon points="279,85 284,80 287,80 287,90 284,90 279,85 " style="fill:white; stroke-width:1; stroke:black; " description="&lt;b&gt;BO72DRAFT_402806&lt;/b&gt;&lt;br&gt;pantothenate transporter&lt;br&gt;Location: 466078 - 464322" locus_tag="BO72DRAFT_402806" class="clusterblast-orf" id="dummy-1_h1_8_25"  />
</g>
<g id="a1_0026"  >
<polygon points="289,85 294,80 297,80 297,90 294,90 289,85 " style="fill:white; stroke-width:1; stroke:black; " description="&lt;b&gt;BO72DRAFT_447488&lt;/b&gt;&lt;br&gt;oxidoreductase&lt;br&gt;Location: 463835 - 462367" locus_tag="BO72DRAFT_447488" class="clusterblast-orf" id="dummy-1_h1_8_26"  />
</g>
<g id="a1_0027"  >
<polygon points="305,90 306,90 311,85 306,80 305,80 305,90 " style="fill:white; stroke-width:1; stroke:black; " description="&lt;b&gt;BO72DRAFT_495600&lt;/b&gt;&lt;br&gt;tyrosinase&lt;br&gt;Location: 460711 - 459305" locus_tag="BO72DRAFT_495600" class="clusterblast-orf" id="dummy-1_h1_8_27"  />
</g>
<g id="a1_0028"  >
<polygon points="314,85 319,80 320,80 320,90 319,90 314,85 " style="fill:white; stroke-width:1; stroke:black; " description="&lt;b&gt;BO72DRAFT_447486&lt;/b&gt;&lt;br&gt;putative tartrate dehydrogenase&lt;br&gt;Location: 458790 - 457586" locus_tag="BO72DRAFT_447486" class="clusterblast-orf" id="dummy-1_h1_8_28"  />
</g>
<g id="a1_0029"  >
<polygon points="323,85 327,80 327,90 323,85 " style="fill:white; stroke-width:1; stroke:black; " description="&lt;b&gt;BO72DRAFT_527183&lt;/b&gt;&lt;br&gt;uncharacterized protein&lt;br&gt;Location: 456800 - 455986" locus_tag="BO72DRAFT_527183" class="clusterblast-orf" id="dummy-1_h1_8_29"  />
</g>
<g id="a1_0030"  >
<polygon points="334,90 376,90 381,85 376,80 334,80 334,90 " style="fill:white; stroke-width:1; stroke:black; " description="&lt;b&gt;BO72DRAFT_477000&lt;/b&gt;&lt;br&gt;uncharacterized protein&lt;br&gt;Location: 454522 - 444894" locus_tag="BO72DRAFT_477000" class="clusterblast-orf" id="dummy-1_h1_8_30"  />
</g>
<g id="a1_0031"  >
<polygon points="389,85 393,80 393,90 389,85 " style="fill:white; stroke-width:1; stroke:black; " description="&lt;b&gt;BO72DRAFT_507920&lt;/b&gt;&lt;br&gt;uncharacterized protein&lt;br&gt;Location: 443171 - 442283" locus_tag="BO72DRAFT_507920" class="clusterblast-orf" id="dummy-1_h1_8_31"  />
</g>
<g id="a1_0032"  >
<polygon points="413,85 417,80 417,90 413,85 " style="fill:white; stroke-width:1; stroke:black; " description="&lt;b&gt;BO72DRAFT_507918&lt;/b&gt;&lt;br&gt;putative carbonic anhydrase&lt;br&gt;Location: 438288 - 437414" locus_tag="BO72DRAFT_507918" class="clusterblast-orf" id="dummy-1_h1_8_32"  />
</g>
<g id="a1_0033"  >
<polygon points="422,90 424,85 422,80 422,90 " style="fill:white; stroke-width:1; stroke:black; " description="&lt;b&gt;BO72DRAFT_507916&lt;/b&gt;&lt;br&gt;uncharacterized protein&lt;br&gt;Location: 436376 - 435842" locus_tag="BO72DRAFT_507916" class="clusterblast-orf" id="dummy-1_h1_8_33"  />
</g>
<g id="a1_0034"  >
<polygon points="427,85 430,80 430,90 427,85 " style="fill:white; stroke-width:1; stroke:black; " description="&lt;b&gt;BO72DRAFT_507914&lt;/b&gt;&lt;br&gt;uncharacterized protein&lt;br&gt;Location: 435185 - 434701" locus_tag="BO72DRAFT_507914" class="clusterblast-orf" id="dummy-1_h1_8_34"  />
</g>
<g id="a1_0035"  >
<polygon points="433,85 435,80 435,90 433,85 " style="fill:white; stroke-width:1; stroke:black; " description="&lt;b&gt;BO72DRAFT_495592&lt;/b&gt;&lt;br&gt;uncharacterized protein&lt;br&gt;Location: 434077 - 433523" locus_tag="BO72DRAFT_495592" class="clusterblast-orf" id="dummy-1_h1_8_35"  />
</g>
<g id="a1_0036"  >
<polygon points="437,90 444,90 449,85 444,80 437,80 437,90 " style="fill:white; stroke-width:1; stroke:black; " description="&lt;b&gt;BO72DRAFT_458244&lt;/b&gt;&lt;br&gt;WSC-domain-containing protein&lt;br&gt;Location: 433105 - 430687" locus_tag="BO72DRAFT_458244" class="clusterblast-orf" id="dummy-1_h1_8_36"  />
</g>
<g id="a1_0037"  >
<polygon points="458,85 463,80 484,80 484,90 463,90 458,85 " style="fill:white; stroke-width:1; stroke:black; " description="&lt;b&gt;BO72DRAFT_507908&lt;/b&gt;&lt;br&gt;putative ABC multidrug transporter&lt;br&gt;Location: 428831 - 423519" locus_tag="BO72DRAFT_507908" class="clusterblast-orf" id="dummy-1_h1_8_37"  />
</g>
<g id="a1_0038"  >
<polygon points="486,90 487,90 492,85 487,80 486,80 486,90 " style="fill:white; stroke-width:1; stroke:black; " description="&lt;b&gt;BO72DRAFT_527181&lt;/b&gt;&lt;br&gt;putative gibberellin 20-oxidase&lt;br&gt;Location: 423042 - 421873" locus_tag="BO72DRAFT_527181" class="clusterblast-orf" id="dummy-1_h1_8_38"  />
</g>
<g id="a1_0039"  >
<polygon points="495,85 500,80 506,80 506,90 500,90 495,85 " style="fill:white; stroke-width:1; stroke:black; " description="&lt;b&gt;BO72DRAFT_507902&lt;/b&gt;&lt;br&gt;uncharacterized protein&lt;br&gt;Location: 421247 - 418939" locus_tag="BO72DRAFT_507902" class="clusterblast-orf" id="dummy-1_h1_8_39"  />
</g>
<g id="a1_0040"  >
<polygon points="517,90 521,90 526,85 521,80 517,80 517,90 " style="fill:white; stroke-width:1; stroke:black; " description="&lt;b&gt;BO72DRAFT_340398&lt;/b&gt;&lt;br&gt;acetyl-CoA synthetase-like protein&lt;br&gt;Location: 416543 - 414701" locus_tag="BO72DRAFT_340398" class="clusterblast-orf" id="dummy-1_h1_8_40"  />
</g>
<g id="a1_0041"  >
<polygon points="529,85 534,80 538,80 538,90 534,90 529,85 " style="fill:white; stroke-width:1; stroke:black; " description="&lt;b&gt;BO72DRAFT_495586&lt;/b&gt;&lt;br&gt;cytochrome P450&lt;br&gt;Location: 414020 - 412274" locus_tag="BO72DRAFT_495586" class="clusterblast-orf" id="dummy-1_h1_8_41"  />
</g>
<g id="a1_0042"  >
<polygon points="540,85 545,80 546,80 546,90 545,90 540,85 " style="fill:white; stroke-width:1; stroke:black; " description="&lt;b&gt;BO72DRAFT_485581&lt;/b&gt;&lt;br&gt;Clavaminate synthase-like protein&lt;br&gt;Location: 411756 - 410577" locus_tag="BO72DRAFT_485581" class="clusterblast-orf" id="dummy-1_h1_8_42"  />
</g>
<g id="a1_0043"  >
<polygon points="548,85 553,80 601,80 601,90 553,90 548,85 " style="fill:white; stroke-width:1; stroke:black; " description="&lt;b&gt;BO72DRAFT_507887&lt;/b&gt;&lt;br&gt;acetyl-CoA synthetase-like protein&lt;br&gt;Location: 410187 - 399097" locus_tag="BO72DRAFT_507887" class="clusterblast-orf" id="dummy-1_h1_8_43"  />
</g>
<g id="a1_0044"  >
<polygon points="607,85 612,80 639,80 639,90 612,90 607,85 " style="fill:white; stroke-width:1; stroke:black; " description="&lt;b&gt;BO72DRAFT_343478&lt;/b&gt;&lt;br&gt;acetyl-CoA synthetase-like protein&lt;br&gt;Location: 397974 - 391261" locus_tag="BO72DRAFT_343478" class="clusterblast-orf" id="dummy-1_h1_8_44"  />
</g>
<g id="a1_0045"  >
<polygon points="660,90 664,90 669,85 664,80 660,80 660,90 " style="fill:white; stroke-width:1; stroke:black; " description="&lt;b&gt;BO72DRAFT_476998&lt;/b&gt;&lt;br&gt;putative Ent-kaurene oxidase&lt;br&gt;Location: 386799 - 385021" locus_tag="BO72DRAFT_476998" class="clusterblast-orf" id="dummy-1_h1_8_45"  />
</g>
<g id="a1_0046"  >
<polygon points="670,85 675,80 675,80 675,90 675,90 670,85 " style="fill:white; stroke-width:1; stroke:black; " description="&lt;b&gt;BO72DRAFT_495582&lt;/b&gt;&lt;br&gt;putative RTA1 domain protein&lt;br&gt;Location: 384861 - 383845" locus_tag="BO72DRAFT_495582" class="clusterblast-orf" id="dummy-1_h1_8_46"  />
</g>
<g id="a1_0047"  >
<polygon points="681,90 683,85 681,80 681,90 " style="fill:white; stroke-width:1; stroke:black; " description="&lt;b&gt;BO72DRAFT_447482&lt;/b&gt;&lt;br&gt;uncharacterized protein&lt;br&gt;Location: 382460 - 382209" locus_tag="BO72DRAFT_447482" class="clusterblast-orf" id="dummy-1_h1_8_47"  />
</g>
<g id="a1_0048"  >
<polygon points="685,85 690,80 700,80 700,90 690,90 685,85 " style="fill:white; stroke-width:1; stroke:black; " description="&lt;b&gt;BO72DRAFT_476995&lt;/b&gt;&lt;br&gt;aconitase iron-sulfur domain-containing protein&lt;br&gt;Location: 381743 - 378661" locus_tag="BO72DRAFT_476995" class="clusterblast-orf" id="dummy-1_h1_8_48"  />
</g>
<g id="a1_0049"  >
<polygon points="701,85 706,80 708,80 708,90 706,90 701,85 " style="fill:white; stroke-width:1; stroke:black; " description="&lt;b&gt;BO72DRAFT_507855&lt;/b&gt;&lt;br&gt;3-isopropylmalate dehydrogenase-like protein&lt;br&gt;Location: 378292 - 376881" locus_tag="BO72DRAFT_507855" class="clusterblast-orf" id="dummy-1_h1_8_49"  />
</g>
<g id="a1_0050"  >
<polygon points="712,90 714,90 719,85 714,80 712,80 712,90 " style="fill:white; stroke-width:1; stroke:black; " description="&lt;b&gt;BO72DRAFT_507852&lt;/b&gt;&lt;br&gt;aldolase&lt;br&gt;Location: 376206 - 374750" locus_tag="BO72DRAFT_507852" class="clusterblast-orf" id="dummy-1_h1_8_50"  />
</g>
<g id="a1_0051"  >
<polygon points="722,85 727,80 728,80 728,90 727,90 722,85 " style="fill:white; stroke-width:1; stroke:black; " description="&lt;b&gt;BO72DRAFT_495577&lt;/b&gt;&lt;br&gt;Clavaminate synthase-like protein&lt;br&gt;Location: 373927 - 372787" locus_tag="BO72DRAFT_495577" class="clusterblast-orf" id="dummy-1_h1_8_51"  />
</g>
<g id="a1_0052"  >
<polygon points="733,85 738,80 741,80 741,90 738,90 733,85 " style="fill:white; stroke-width:1; stroke:black; " description="&lt;b&gt;BO72DRAFT_376558&lt;/b&gt;&lt;br&gt;kinase-like protein&lt;br&gt;Location: 371727 - 370040" locus_tag="BO72DRAFT_376558" class="clusterblast-orf" id="dummy-1_h1_8_52"  />
</g>
<g id="a1_0053"  >
<polygon points="750,85 755,80 759,80 759,90 755,90 750,85 " style="fill:white; stroke-width:1; stroke:black; " description="&lt;b&gt;BO72DRAFT_495575&lt;/b&gt;&lt;br&gt;alcohol oxidase&lt;br&gt;Location: 368195 - 366267" locus_tag="BO72DRAFT_495575" class="clusterblast-orf" id="dummy-1_h1_8_53"  />
</g>
<g id="a1_0054"  >
<polygon points="764,90 768,90 773,85 768,80 764,80 764,90 " style="fill:white; stroke-width:1; stroke:black; " description="&lt;b&gt;BO72DRAFT_376163&lt;/b&gt;&lt;br&gt;putative catalase&lt;br&gt;Location: 365320 - 363456" locus_tag="BO72DRAFT_376163" class="clusterblast-orf" id="dummy-1_h1_8_54"  />
</g>
<g id="a1_0055"  >
<polygon points="776,90 780,85 776,80 776,90 " style="fill:white; stroke-width:1; stroke:black; " description="&lt;b&gt;BO72DRAFT_83874&lt;/b&gt;&lt;br&gt;uncharacterized protein&lt;br&gt;Location: 362753 - 362087" locus_tag="BO72DRAFT_83874" class="clusterblast-orf" id="dummy-1_h1_8_55"  />
</g>
</svg>
