<svg xmlns="http://www.w3.org/2000/svg" xmlns:xlink="http://www.w3.org/1999/xlink" version="1.1" x="0" y="0" height="230" width="800" viewBox="0 0 800 230" preserveAspectRatio="none"  >
<g label="Query sequence" class="clusterblast-cluster"  >
<text x="5" y="20" class="clusterblast-acc"  >
Query sequence</text>
<line x1="10" y1="35" x2="778.0" y2="35" style="stroke-width:1; stroke:grey; "  />
<polygon points="150,40 154,35 150,30 150,40 " style="fill:white; stroke-width:1; stroke:black; " description="&lt;b&gt;input.path1.gene891&lt;/b&gt;&lt;br&gt;input.path1.gene891&lt;br&gt;Location: 3302418 - 3302702" locus_tag="input.path1.gene891" class="clusterblast-orf" id="dummy-8_q0_0_all"  />
<polygon points="278,40 308,40 313,35 308,30 278,30 278,40 " style="fill:#d81515; stroke-width:1; stroke:black; " description="&lt;b&gt;input.path1.gene892&lt;/b&gt;&lt;br&gt;input.path1.gene892&lt;br&gt;Location: 3313274 - 3316297" locus_tag="input.path1.gene892" class="clusterblast-orf" id="dummy-8_q1_0_all"  />
<polygon points="321,35 326,30 429,30 429,40 326,40 321,35 " style="fill:#15d863; stroke-width:1; stroke:black; " description="&lt;b&gt;input.path1.gene893&lt;/b&gt;&lt;br&gt;input.path1.gene893&lt;br&gt;Location: 3316980 - 3326132" locus_tag="input.path1.gene893" class="clusterblast-orf" id="dummy-8_q2_0_all"  />
<polygon points="461,35 466,30 513,30 513,40 466,40 461,35 " style="fill:#1563d8; stroke-width:1; stroke:black; " description="&lt;b&gt;input.path1.gene894&lt;/b&gt;&lt;br&gt;input.path1.gene894&lt;br&gt;Location: 3328871 - 3333311" locus_tag="input.path1.gene894" class="clusterblast-orf" id="dummy-8_q3_0_all"  />
<polygon points="540,35 545,30 568,30 568,40 545,40 540,35 " style="fill:#b115d8; stroke-width:1; stroke:black; " description="&lt;b&gt;input.path1.gene895&lt;/b&gt;&lt;br&gt;input.path1.gene895&lt;br&gt;Location: 3335572 - 3337987" locus_tag="input.path1.gene895" class="clusterblast-orf" id="dummy-8_q4_0_all"  />
<polygon points="599,40 624,40 629,35 624,30 599,30 599,40 " style="fill:#b1d815; stroke-width:1; stroke:black; " description="&lt;b&gt;input.path1.gene896&lt;/b&gt;&lt;br&gt;input.path1.gene896&lt;br&gt;Location: 3340677 - 3343174" locus_tag="input.path1.gene896" class="clusterblast-orf" id="dummy-8_q5_0_all"  />
</g>
<g label="NW_011942160" description="NW_011942160 (3156518-3224837): Metarhizium robertsii ARSEF 23 MAA Scf 2, who... (75% of genes show similarity), NRPS" class="clusterblast-cluster"  >
<text x="5" y="70" class="clusterblast-acc"  >
<a xlink:href="https://antismash-db.secondarymetabolites.org/area?record=NW_011942160&amp;start=3156518&amp;end=3224837" target="_blank">NW_011942160 (3156518-3224837)</a>: Metarhizium robertsii ARSEF 23 MAA Scf 2, who... (75% of genes show similarity), NRPS</text>
<line x1="10" y1="85" x2="778.0" y2="85" style="stroke-width:1; stroke:grey; "  />
</g>
<g id="a8_000"  >
<polygon points="0,85 5,80 23,80 23,90 5,90 0,85 " style="fill:white; stroke-width:1; stroke:black; " description="&lt;b&gt;MAA_05493&lt;/b&gt;&lt;br&gt;hypothetical protein&lt;br&gt;Location: 3224759 - 3222798" locus_tag="MAA_05493" class="clusterblast-orf" id="dummy-8_h8_7_0"  />
</g>
<g id="a8_001"  >
<polygon points="297,90 328,90 333,85 328,80 297,80 297,90 " style="fill:#d81515; stroke-width:1; stroke:black; " description="&lt;b&gt;MAA_05494&lt;/b&gt;&lt;br&gt;oligopeptide transporter&lt;br&gt;Location: 3199388 - 3196367&lt;br&gt;&lt;br&gt;&lt;b&gt;BlastP hit with input.path1.gene892&lt;/b&gt;&lt;br&gt;Percentage identity: 93&lt;br&gt;Percentage coverage: 104&lt;br&gt;BLAST bit score: 1711&lt;br&gt;E-value: 0.0" locus_tag="MAA_05494" class="clusterblast-orf" id="dummy-8_h8_7_1"  />
</g>
<g id="a8_002"  >
<polygon points="351,85 356,80 448,80 448,90 356,90 351,85 " style="fill:#15d863; stroke-width:1; stroke:black; " description="&lt;b&gt;MAA_05495&lt;/b&gt;&lt;br&gt;nonribosomal peptide synthase SidD&lt;br&gt;Location: 3194837 - 3186519&lt;br&gt;&lt;br&gt;&lt;b&gt;BlastP hit with input.path1.gene893&lt;/b&gt;&lt;br&gt;Percentage identity: 97&lt;br&gt;Percentage coverage: 100&lt;br&gt;BLAST bit score: 5106&lt;br&gt;E-value: 0.0" locus_tag="MAA_05495" class="clusterblast-orf" id="dummy-8_h8_7_2"  />
</g>
<g id="a8_003"  >
<polygon points="481,85 486,80 487,80 487,90 486,90 481,85 " style="fill:#1563d8; stroke-width:1; stroke:black; " description="&lt;b&gt;MAA_05496&lt;/b&gt;&lt;br&gt;SIT4 phosphatase-associated protein&lt;br&gt;Location: 3183755 - 3183240&lt;br&gt;&lt;br&gt;&lt;b&gt;BlastP hit with input.path1.gene894&lt;/b&gt;&lt;br&gt;Percentage identity: 98&lt;br&gt;Percentage coverage: 15&lt;br&gt;BLAST bit score: 311&lt;br&gt;E-value: 1.7e-97" locus_tag="MAA_05496" class="clusterblast-orf" id="dummy-8_h8_7_3"  />
</g>
<g id="a8_004"  >
<polygon points="495,85 500,80 533,80 533,90 500,90 495,85 " style="fill:#1563d8; stroke-width:1; stroke:black; " description="&lt;b&gt;MAA_05497&lt;/b&gt;&lt;br&gt;Sit4-associated protein&lt;br&gt;Location: 3182525 - 3179317&lt;br&gt;&lt;br&gt;&lt;b&gt;BlastP hit with input.path1.gene894&lt;/b&gt;&lt;br&gt;Percentage identity: 94&lt;br&gt;Percentage coverage: 84&lt;br&gt;BLAST bit score: 1647&lt;br&gt;E-value: 0.0" locus_tag="MAA_05497" class="clusterblast-orf" id="dummy-8_h8_7_4"  />
</g>
<g id="a8_005"  >
<polygon points="559,85 564,80 587,80 587,90 564,90 559,85 " style="fill:#b115d8; stroke-width:1; stroke:black; " description="&lt;b&gt;MAA_05498&lt;/b&gt;&lt;br&gt;G-patch domain-containing protein&lt;br&gt;Location: 3177071 - 3174657&lt;br&gt;&lt;br&gt;&lt;b&gt;BlastP hit with input.path1.gene895&lt;/b&gt;&lt;br&gt;Percentage identity: 98&lt;br&gt;Percentage coverage: 100&lt;br&gt;BLAST bit score: 1452&lt;br&gt;E-value: 0.0" locus_tag="MAA_05498" class="clusterblast-orf" id="dummy-8_h8_7_5"  />
</g>
<g id="a8_006"  >
<polygon points="615,90 643,90 648,85 643,80 615,80 615,90 " style="fill:#b1d815; stroke-width:1; stroke:black; " description="&lt;b&gt;MAA_05499&lt;/b&gt;&lt;br&gt;spindle pole body component alp14&lt;br&gt;Location: 3172332 - 3169484&lt;br&gt;&lt;br&gt;&lt;b&gt;BlastP hit with input.path1.gene896&lt;/b&gt;&lt;br&gt;Percentage identity: 98&lt;br&gt;Percentage coverage: 100&lt;br&gt;BLAST bit score: 1315&lt;br&gt;E-value: 0.0" locus_tag="MAA_05499" class="clusterblast-orf" id="dummy-8_h8_7_6"  />
</g>
<g id="a8_007"  >
<polygon points="666,90 775,90 780,85 775,80 666,80 666,90 " style="fill:white; stroke-width:1; stroke:black; " description="&lt;b&gt;MAA_05500&lt;/b&gt;&lt;br&gt;vacuolar protein sorting-associated protein vps13&lt;br&gt;Location: 3167971 - 3158294" locus_tag="MAA_05500" class="clusterblast-orf" id="dummy-8_h8_7_7"  />
</g>
</svg>
