<svg xmlns="http://www.w3.org/2000/svg" xmlns:xlink="http://www.w3.org/1999/xlink" version="1.1" x="0" y="0" height="230" width="800" viewBox="0 0 800 230" preserveAspectRatio="none"  >
<g label="Query sequence" class="clusterblast-cluster"  >
<text x="5" y="20" class="clusterblast-acc"  >
Query sequence</text>
<line x1="10" y1="35" x2="778.0" y2="35" style="stroke-width:1; stroke:grey; "  />
<polygon points="144,40 168,40 173,35 168,30 144,30 144,40 " style="fill:white; stroke-width:1; stroke:black; " description="&lt;b&gt;input.path1.gene1041&lt;/b&gt;&lt;br&gt;input.path1.gene1041&lt;br&gt;Location: 4101306 - 4103537" locus_tag="input.path1.gene1041" class="clusterblast-orf" id="dummy-6_q0_0_all"  />
<polygon points="174,35 179,30 183,30 183,40 179,40 174,35 " style="fill:#d81515; stroke-width:1; stroke:black; " description="&lt;b&gt;input.path1.gene1042&lt;/b&gt;&lt;br&gt;input.path1.gene1042&lt;br&gt;Location: 4103597 - 4104295" locus_tag="input.path1.gene1042" class="clusterblast-orf" id="dummy-6_q1_0_all"  />
<polygon points="192,40 203,40 208,35 203,30 192,30 192,40 " style="fill:#77d815; stroke-width:1; stroke:black; " description="&lt;b&gt;input.path1.gene1043&lt;/b&gt;&lt;br&gt;input.path1.gene1043&lt;br&gt;Location: 4104958 - 4106208" locus_tag="input.path1.gene1043" class="clusterblast-orf" id="dummy-6_q2_0_all"  />
<polygon points="213,35 218,30 241,30 241,40 218,40 213,35 " style="fill:#15d8d8; stroke-width:1; stroke:black; " description="&lt;b&gt;input.path1.gene1044&lt;/b&gt;&lt;br&gt;input.path1.gene1044&lt;br&gt;Location: 4106555 - 4108698" locus_tag="input.path1.gene1044" class="clusterblast-orf" id="dummy-6_q3_0_all"  />
<polygon points="258,40 280,40 285,35 280,30 258,30 258,40 " style="fill:#7715d8; stroke-width:1; stroke:black; " description="&lt;b&gt;input.path1.gene1045&lt;/b&gt;&lt;br&gt;input.path1.gene1045&lt;br&gt;Location: 4110012 - 4112015" locus_tag="input.path1.gene1045" class="clusterblast-orf" id="dummy-6_q4_0_all"  />
<polygon points="286,35 291,30 310,30 310,40 291,40 286,35 " style="fill:#d8a715; stroke-width:1; stroke:black; " description="&lt;b&gt;input.path1.gene1046&lt;/b&gt;&lt;br&gt;input.path1.gene1046&lt;br&gt;Location: 4112131 - 4113920" locus_tag="input.path1.gene1046" class="clusterblast-orf" id="dummy-6_q5_0_all"  />
<polygon points="312,40 331,40 336,35 331,30 312,30 312,40 " style="fill:#15d846; stroke-width:1; stroke:black; " description="&lt;b&gt;input.path1.gene1047&lt;/b&gt;&lt;br&gt;input.path1.gene1047&lt;br&gt;Location: 4114134 - 4115906" locus_tag="input.path1.gene1047" class="clusterblast-orf" id="dummy-6_q6_0_all"  />
<polygon points="379,35 384,30 391,30 391,40 384,40 379,35 " style="fill:#1546d8; stroke-width:1; stroke:black; " description="&lt;b&gt;input.path1.gene1048&lt;/b&gt;&lt;br&gt;input.path1.gene1048&lt;br&gt;Location: 4119217 - 4120140" locus_tag="input.path1.gene1048" class="clusterblast-orf" id="dummy-6_q7_0_all"  />
<polygon points="397,40 413,40 418,35 413,30 397,30 397,40 " style="fill:#d815a7; stroke-width:1; stroke:black; " description="&lt;b&gt;input.path1.gene1049&lt;/b&gt;&lt;br&gt;input.path1.gene1049&lt;br&gt;Location: 4120531 - 4122154" locus_tag="input.path1.gene1049" class="clusterblast-orf" id="dummy-6_q8_0_all"  />
<polygon points="426,40 505,40 510,35 505,30 426,30 426,40 " style="fill:#d815a7; stroke-width:1; stroke:black; " description="&lt;b&gt;input.path1.gene1050&lt;/b&gt;&lt;br&gt;input.path1.gene1050&lt;br&gt;Location: 4122759 - 4129136" locus_tag="input.path1.gene1050" class="clusterblast-orf" id="dummy-6_q9_0_all"  />
<polygon points="545,40 549,35 545,30 545,40 " style="fill:white; stroke-width:1; stroke:black; " description="&lt;b&gt;input.path1.gene1051&lt;/b&gt;&lt;br&gt;input.path1.gene1051&lt;br&gt;Location: 4131799 - 4132099" locus_tag="input.path1.gene1051" class="clusterblast-orf" id="dummy-6_q10_0_all"  />
<polygon points="579,35 581,30 581,40 579,35 " style="fill:white; stroke-width:1; stroke:black; " description="&lt;b&gt;input.path1.gene1052&lt;/b&gt;&lt;br&gt;input.path1.gene1052&lt;br&gt;Location: 4134422 - 4134530" locus_tag="input.path1.gene1052" class="clusterblast-orf" id="dummy-6_q11_0_all"  />
<polygon points="584,35 589,30 600,30 600,40 589,40 584,35 " style="fill:white; stroke-width:1; stroke:black; " description="&lt;b&gt;input.path1.gene1053&lt;/b&gt;&lt;br&gt;input.path1.gene1053&lt;br&gt;Location: 4134747 - 4135990" locus_tag="input.path1.gene1053" class="clusterblast-orf" id="dummy-6_q12_0_all"  />
<polygon points="602,40 606,40 611,35 606,30 602,30 602,40 " style="fill:white; stroke-width:1; stroke:black; " description="&lt;b&gt;input.path1.gene1054&lt;/b&gt;&lt;br&gt;input.path1.gene1054&lt;br&gt;Location: 4136130 - 4136835" locus_tag="input.path1.gene1054" class="clusterblast-orf" id="dummy-6_q13_0_all"  />
<polygon points="611,35 616,30 636,30 636,40 616,40 611,35 " style="fill:white; stroke-width:1; stroke:black; " description="&lt;b&gt;input.path1.gene1055&lt;/b&gt;&lt;br&gt;input.path1.gene1055&lt;br&gt;Location: 4136862 - 4138689" locus_tag="input.path1.gene1055" class="clusterblast-orf" id="dummy-6_q14_0_all"  />
</g>
<g label="NW_006917094" description="NW_006917094 (2678871-2742279): Pestalotiopsis fici W106-1 unplaced genomic s... (19% of genes show similarity), NRPS-like" class="clusterblast-cluster"  >
<text x="5" y="70" class="clusterblast-acc"  >
<a xlink:href="https://antismash-db.secondarymetabolites.org/area?record=NW_006917094&amp;start=2678871&amp;end=2742279" target="_blank">NW_006917094 (2678871-2742279)</a>: Pestalotiopsis fici W106-1 unplaced genomic s... (19% of genes show similarity), NRPS-like</text>
<line x1="10" y1="85" x2="778.0" y2="85" style="stroke-width:1; stroke:grey; "  />
</g>
<g id="a6_000"  >
<polygon points="0,90 8,90 13,85 8,80 0,80 0,90 " style="fill:white; stroke-width:1; stroke:black; " description="&lt;b&gt;PFICI_06825&lt;/b&gt;&lt;br&gt;40S ribosomal protein S2&lt;br&gt;Location: 2680620 - 2681652" locus_tag="PFICI_06825" class="clusterblast-orf" id="dummy-6_h6_2_0"  />
</g>
<g id="a6_001"  >
<polygon points="24,90 79,90 84,85 79,80 24,80 24,90 " style="fill:white; stroke-width:1; stroke:black; " description="&lt;b&gt;PFICI_06826&lt;/b&gt;&lt;br&gt;hypothetical protein&lt;br&gt;Location: 2682510 - 2687014" locus_tag="PFICI_06826" class="clusterblast-orf" id="dummy-6_h6_2_1"  />
</g>
<g id="a6_002"  >
<polygon points="109,90 120,90 125,85 120,80 109,80 109,90 " style="fill:white; stroke-width:1; stroke:black; " description="&lt;b&gt;PFICI_06827&lt;/b&gt;&lt;br&gt;pectin lyase A&lt;br&gt;Location: 2688958 - 2690170" locus_tag="PFICI_06827" class="clusterblast-orf" id="dummy-6_h6_2_2"  />
</g>
<g id="a6_003"  >
<polygon points="142,90 155,90 160,85 155,80 142,80 142,90 " style="fill:white; stroke-width:1; stroke:black; " description="&lt;b&gt;PFICI_06828&lt;/b&gt;&lt;br&gt;hypothetical protein&lt;br&gt;Location: 2691421 - 2692800" locus_tag="PFICI_06828" class="clusterblast-orf" id="dummy-6_h6_2_3"  />
</g>
<g id="a6_004"  >
<polygon points="176,85 179,80 179,90 176,85 " style="fill:white; stroke-width:1; stroke:black; " description="&lt;b&gt;PFICI_06829&lt;/b&gt;&lt;br&gt;hypothetical protein&lt;br&gt;Location: 2694022 - 2694264" locus_tag="PFICI_06829" class="clusterblast-orf" id="dummy-6_h6_2_4"  />
</g>
<g id="a6_005"  >
<polygon points="219,90 224,90 229,85 224,80 219,80 219,90 " style="fill:white; stroke-width:1; stroke:black; " description="&lt;b&gt;PFICI_06830&lt;/b&gt;&lt;br&gt;FK506-binding protein 2&lt;br&gt;Location: 2697328 - 2698098" locus_tag="PFICI_06830" class="clusterblast-orf" id="dummy-6_h6_2_5"  />
</g>
<g id="a6_006"  >
<polygon points="242,90 267,90 272,85 267,80 242,80 242,90 " style="fill:white; stroke-width:1; stroke:black; " description="&lt;b&gt;PFICI_06831&lt;/b&gt;&lt;br&gt;hypothetical protein&lt;br&gt;Location: 2699050 - 2701347" locus_tag="PFICI_06831" class="clusterblast-orf" id="dummy-6_h6_2_6"  />
</g>
<g id="a6_007"  >
<polygon points="275,85 280,80 301,80 301,90 280,90 275,85 " style="fill:white; stroke-width:1; stroke:black; " description="&lt;b&gt;PFICI_06832&lt;/b&gt;&lt;br&gt;hypothetical protein&lt;br&gt;Location: 2701544 - 2703526" locus_tag="PFICI_06832" class="clusterblast-orf" id="dummy-6_h6_2_7"  />
</g>
<g id="a6_008"  >
<polygon points="327,90 339,90 344,85 339,80 327,80 327,90 " style="fill:white; stroke-width:1; stroke:black; " description="&lt;b&gt;PFICI_06833&lt;/b&gt;&lt;br&gt;hypothetical protein&lt;br&gt;Location: 2705487 - 2706793" locus_tag="PFICI_06833" class="clusterblast-orf" id="dummy-6_h6_2_8"  />
</g>
<g id="a6_009"  >
<polygon points="371,90 411,90 416,85 411,80 371,80 371,90 " style="fill:white; stroke-width:1; stroke:black; " description="&lt;b&gt;PFICI_06834&lt;/b&gt;&lt;br&gt;hypothetical protein&lt;br&gt;Location: 2708872 - 2712279" locus_tag="PFICI_06834" class="clusterblast-orf" id="dummy-6_h6_2_9"  />
</g>
<g id="a6_0010"  >
<polygon points="432,90 443,90 448,85 443,80 432,80 432,90 " style="fill:white; stroke-width:1; stroke:black; " description="&lt;b&gt;PFICI_06835&lt;/b&gt;&lt;br&gt;hypothetical protein&lt;br&gt;Location: 2713525 - 2714688" locus_tag="PFICI_06835" class="clusterblast-orf" id="dummy-6_h6_2_10"  />
</g>
<g id="a6_0011"  >
<polygon points="459,90 475,90 480,85 475,80 459,80 459,90 " style="fill:white; stroke-width:1; stroke:black; " description="&lt;b&gt;PFICI_06836&lt;/b&gt;&lt;br&gt;hypothetical protein&lt;br&gt;Location: 2715526 - 2717133" locus_tag="PFICI_06836" class="clusterblast-orf" id="dummy-6_h6_2_11"  />
</g>
<g id="a6_0012"  >
<polygon points="496,85 501,80 509,80 509,90 501,90 496,85 " style="fill:white; stroke-width:1; stroke:black; " description="&lt;b&gt;PFICI_06837&lt;/b&gt;&lt;br&gt;hypothetical protein&lt;br&gt;Location: 2718352 - 2719368" locus_tag="PFICI_06837" class="clusterblast-orf" id="dummy-6_h6_2_12"  />
</g>
<g id="a6_0013"  >
<polygon points="531,85 536,80 545,80 545,90 536,90 531,85 " style="fill:white; stroke-width:1; stroke:black; " description="&lt;b&gt;PFICI_06838&lt;/b&gt;&lt;br&gt;hypothetical protein&lt;br&gt;Location: 2721024 - 2722080" locus_tag="PFICI_06838" class="clusterblast-orf" id="dummy-6_h6_2_13"  />
</g>
<g id="a6_0014"  >
<polygon points="559,90 579,90 584,85 579,80 559,80 559,90 " style="fill:white; stroke-width:1; stroke:black; " description="&lt;b&gt;PFICI_06839&lt;/b&gt;&lt;br&gt;hypothetical protein&lt;br&gt;Location: 2723139 - 2725028" locus_tag="PFICI_06839" class="clusterblast-orf" id="dummy-6_h6_2_14"  />
</g>
<g id="a6_0015"  >
<polygon points="591,85 596,80 601,80 601,90 596,90 591,85 " style="fill:#d81515; stroke-width:1; stroke:black; " description="&lt;b&gt;PFICI_06840&lt;/b&gt;&lt;br&gt;Nuclear movement protein nudC&lt;br&gt;Location: 2725597 - 2726371&lt;br&gt;&lt;br&gt;&lt;b&gt;BlastP hit with input.path1.gene1042&lt;/b&gt;&lt;br&gt;Percentage identity: 73&lt;br&gt;Percentage coverage: 98&lt;br&gt;BLAST bit score: 278&lt;br&gt;E-value: 1.69e-94" locus_tag="PFICI_06840" class="clusterblast-orf" id="dummy-6_h6_2_15"  />
</g>
<g id="a6_0016"  >
<polygon points="610,90 620,90 625,85 620,80 610,80 610,90 " style="fill:#77d815; stroke-width:1; stroke:black; " description="&lt;b&gt;PFICI_06841&lt;/b&gt;&lt;br&gt;hypothetical protein&lt;br&gt;Location: 2727044 - 2728177&lt;br&gt;&lt;br&gt;&lt;b&gt;BlastP hit with input.path1.gene1043&lt;/b&gt;&lt;br&gt;Percentage identity: 48&lt;br&gt;Percentage coverage: 91&lt;br&gt;BLAST bit score: 270&lt;br&gt;E-value: 2.92e-86" locus_tag="PFICI_06841" class="clusterblast-orf" id="dummy-6_h6_2_16"  />
</g>
<g id="a6_0017"  >
<polygon points="630,85 635,80 646,80 646,90 635,90 630,85 " style="fill:white; stroke-width:1; stroke:black; " description="&lt;b&gt;PFICI_06842&lt;/b&gt;&lt;br&gt;hypothetical protein&lt;br&gt;Location: 2728559 - 2729786" locus_tag="PFICI_06842" class="clusterblast-orf" id="dummy-6_h6_2_17"  />
</g>
<g id="a6_0018"  >
<polygon points="670,90 680,90 685,85 680,80 670,80 670,90 " style="fill:white; stroke-width:1; stroke:black; " description="&lt;b&gt;PFICI_06843&lt;/b&gt;&lt;br&gt;hypothetical protein&lt;br&gt;Location: 2731563 - 2732696" locus_tag="PFICI_06843" class="clusterblast-orf" id="dummy-6_h6_2_18"  />
</g>
<g id="a6_0019"  >
<polygon points="692,85 697,80 719,80 719,90 697,90 692,85 " style="fill:#15d8d8; stroke-width:1; stroke:black; " description="&lt;b&gt;PFICI_06844&lt;/b&gt;&lt;br&gt;hypothetical protein&lt;br&gt;Location: 2733241 - 2735341&lt;br&gt;&lt;br&gt;&lt;b&gt;BlastP hit with input.path1.gene1044&lt;/b&gt;&lt;br&gt;Percentage identity: 56&lt;br&gt;Percentage coverage: 107&lt;br&gt;BLAST bit score: 634&lt;br&gt;E-value: 8.87e-221" locus_tag="PFICI_06844" class="clusterblast-orf" id="dummy-6_h6_2_19"  />
</g>
<g id="a6_0020"  >
<polygon points="748,90 775,90 780,85 775,80 748,80 748,90 " style="fill:#7715d8; stroke-width:1; stroke:black; " description="&lt;b&gt;PFICI_06845&lt;/b&gt;&lt;br&gt;hypothetical protein&lt;br&gt;Location: 2737514 - 2739914&lt;br&gt;&lt;br&gt;&lt;b&gt;BlastP hit with input.path1.gene1045&lt;/b&gt;&lt;br&gt;Percentage identity: 42&lt;br&gt;Percentage coverage: 100&lt;br&gt;BLAST bit score: 442&lt;br&gt;E-value: 8.15e-144" locus_tag="PFICI_06845" class="clusterblast-orf" id="dummy-6_h6_2_20"  />
</g>
</svg>
