<svg xmlns="http://www.w3.org/2000/svg" xmlns:xlink="http://www.w3.org/1999/xlink" version="1.1" x="0" y="0" height="230" width="800" viewBox="0 0 800 230" preserveAspectRatio="none"  >
<g label="Query sequence" class="clusterblast-cluster"  >
<text x="5" y="20" class="clusterblast-acc"  >
Query sequence</text>
<line x1="10" y1="35" x2="778.0" y2="35" style="stroke-width:1; stroke:grey; "  />
<polygon points="18,40 22,35 18,30 18,40 " style="fill:white; stroke-width:1; stroke:black; " description="&lt;b&gt;input.path1.gene162&lt;/b&gt;&lt;br&gt;input.path1.gene162&lt;br&gt;Location: 578900 - 579217" locus_tag="input.path1.gene162" class="clusterblast-orf" id="dummy-1_q0_0_all"  />
<polygon points="38,35 43,30 56,30 56,40 43,40 38,35 " style="fill:white; stroke-width:1; stroke:black; " description="&lt;b&gt;input.path1.gene163&lt;/b&gt;&lt;br&gt;input.path1.gene163&lt;br&gt;Location: 580425 - 581881" locus_tag="input.path1.gene163" class="clusterblast-orf" id="dummy-1_q1_0_all"  />
<polygon points="61,40 69,40 74,35 69,30 61,30 61,40 " style="fill:white; stroke-width:1; stroke:black; " description="&lt;b&gt;input.path1.gene164&lt;/b&gt;&lt;br&gt;input.path1.gene164&lt;br&gt;Location: 582254 - 583307" locus_tag="input.path1.gene164" class="clusterblast-orf" id="dummy-1_q2_0_all"  />
<polygon points="87,40 97,40 102,35 97,30 87,30 87,40 " style="fill:white; stroke-width:1; stroke:black; " description="&lt;b&gt;input.path1.gene165&lt;/b&gt;&lt;br&gt;input.path1.gene165&lt;br&gt;Location: 584297 - 585542" locus_tag="input.path1.gene165" class="clusterblast-orf" id="dummy-1_q3_0_all"  />
<polygon points="107,35 112,30 129,30 129,40 112,40 107,35 " style="fill:#d81515; stroke-width:1; stroke:black; " description="&lt;b&gt;input.path1.gene166&lt;/b&gt;&lt;br&gt;input.path1.gene166&lt;br&gt;Location: 585908 - 587647" locus_tag="input.path1.gene166" class="clusterblast-orf" id="dummy-1_q4_0_all"  />
<polygon points="140,40 158,40 163,35 158,30 140,30 140,40 " style="fill:#3cd815; stroke-width:1; stroke:black; " description="&lt;b&gt;input.path1.gene167&lt;/b&gt;&lt;br&gt;input.path1.gene167&lt;br&gt;Location: 588509 - 590350" locus_tag="input.path1.gene167" class="clusterblast-orf" id="dummy-1_q5_0_all"  />
<polygon points="173,35 178,30 186,30 186,40 178,40 173,35 " style="fill:#1563d8; stroke-width:1; stroke:black; " description="&lt;b&gt;input.path1.gene168&lt;/b&gt;&lt;br&gt;input.path1.gene168&lt;br&gt;Location: 591115 - 592126" locus_tag="input.path1.gene168" class="clusterblast-orf" id="dummy-1_q6_0_all"  />
<polygon points="199,35 204,30 280,30 280,40 204,40 199,35 " style="fill:#b115d8; stroke-width:1; stroke:black; " description="&lt;b&gt;input.path1.gene169&lt;/b&gt;&lt;br&gt;input.path1.gene169&lt;br&gt;Location: 593173 - 599566" locus_tag="input.path1.gene169" class="clusterblast-orf" id="dummy-1_q7_0_all"  />
<polygon points="288,40 314,40 319,35 314,30 288,30 288,40 " style="fill:#d88a15; stroke-width:1; stroke:black; " description="&lt;b&gt;input.path1.gene170&lt;/b&gt;&lt;br&gt;input.path1.gene170&lt;br&gt;Location: 600155 - 602664" locus_tag="input.path1.gene170" class="clusterblast-orf" id="dummy-1_q8_0_all"  />
<polygon points="319,35 324,30 328,30 328,40 324,40 319,35 " style="fill:white; stroke-width:1; stroke:black; " description="&lt;b&gt;input.path1.gene171&lt;/b&gt;&lt;br&gt;input.path1.gene171&lt;br&gt;Location: 602660 - 603390" locus_tag="input.path1.gene171" class="clusterblast-orf" id="dummy-1_q9_0_all"  />
<polygon points="375,40 377,40 382,35 377,30 375,30 375,40 " style="fill:#15d863; stroke-width:1; stroke:black; " description="&lt;b&gt;input.path1.gene172&lt;/b&gt;&lt;br&gt;input.path1.gene172&lt;br&gt;Location: 607061 - 607596" locus_tag="input.path1.gene172" class="clusterblast-orf" id="dummy-1_q10_0_all"  />
<polygon points="393,40 409,40 414,35 409,30 393,30 393,40 " style="fill:#3c15d8; stroke-width:1; stroke:black; " description="&lt;b&gt;input.path1.gene173&lt;/b&gt;&lt;br&gt;input.path1.gene173&lt;br&gt;Location: 608449 - 610155" locus_tag="input.path1.gene173" class="clusterblast-orf" id="dummy-1_q11_0_all"  />
<polygon points="417,35 422,30 458,30 458,40 422,40 417,35 " style="fill:#d8158a; stroke-width:1; stroke:black; " description="&lt;b&gt;input.path1.gene174&lt;/b&gt;&lt;br&gt;input.path1.gene174&lt;br&gt;Location: 610343 - 613626" locus_tag="input.path1.gene174" class="clusterblast-orf" id="dummy-1_q12_0_all"  />
<polygon points="484,35 489,30 506,30 506,40 489,40 484,35 " style="fill:white; stroke-width:1; stroke:black; " description="&lt;b&gt;input.path1.gene175&lt;/b&gt;&lt;br&gt;input.path1.gene175&lt;br&gt;Location: 615660 - 617399" locus_tag="input.path1.gene175" class="clusterblast-orf" id="dummy-1_q13_0_all"  />
<polygon points="514,35 519,30 525,30 525,40 519,40 514,35 " style="fill:white; stroke-width:1; stroke:black; " description="&lt;b&gt;input.path1.gene176&lt;/b&gt;&lt;br&gt;input.path1.gene176&lt;br&gt;Location: 618027 - 618903" locus_tag="input.path1.gene176" class="clusterblast-orf" id="dummy-1_q14_0_all"  />
<polygon points="541,40 553,40 558,35 553,30 541,30 541,40 " style="fill:white; stroke-width:1; stroke:black; " description="&lt;b&gt;input.path1.gene177&lt;/b&gt;&lt;br&gt;input.path1.gene177&lt;br&gt;Location: 620210 - 621510" locus_tag="input.path1.gene177" class="clusterblast-orf" id="dummy-1_q15_0_all"  />
<polygon points="569,35 574,30 577,30 577,40 574,40 569,35 " style="fill:white; stroke-width:1; stroke:black; " description="&lt;b&gt;input.path1.gene178&lt;/b&gt;&lt;br&gt;input.path1.gene178&lt;br&gt;Location: 622366 - 623044" locus_tag="input.path1.gene178" class="clusterblast-orf" id="dummy-1_q16_0_all"  />
<polygon points="599,35 604,30 605,30 605,40 604,40 599,35 " style="fill:white; stroke-width:1; stroke:black; " description="&lt;b&gt;input.path1.gene179&lt;/b&gt;&lt;br&gt;input.path1.gene179&lt;br&gt;Location: 624757 - 625256" locus_tag="input.path1.gene179" class="clusterblast-orf" id="dummy-1_q17_0_all"  />
<polygon points="631,40 636,40 641,35 636,30 631,30 631,40 " style="fill:white; stroke-width:1; stroke:black; " description="&lt;b&gt;input.path1.gene180&lt;/b&gt;&lt;br&gt;input.path1.gene180&lt;br&gt;Location: 627261 - 628059" locus_tag="input.path1.gene180" class="clusterblast-orf" id="dummy-1_q18_0_all"  />
<polygon points="641,35 646,30 677,30 677,40 646,40 641,35 " style="fill:white; stroke-width:1; stroke:black; " description="&lt;b&gt;input.path1.gene181&lt;/b&gt;&lt;br&gt;input.path1.gene181&lt;br&gt;Location: 628055 - 630908" locus_tag="input.path1.gene181" class="clusterblast-orf" id="dummy-1_q19_0_all"  />
<polygon points="698,40 708,40 713,35 708,30 698,30 698,40 " style="fill:#b1d815; stroke-width:1; stroke:black; " description="&lt;b&gt;input.path1.gene182&lt;/b&gt;&lt;br&gt;input.path1.gene182&lt;br&gt;Location: 632595 - 633731" locus_tag="input.path1.gene182" class="clusterblast-orf" id="dummy-1_q20_0_all"  />
<polygon points="724,35 729,30 761,30 761,40 729,40 724,35 " style="fill:#15d8d8; stroke-width:1; stroke:black; " description="&lt;b&gt;input.path1.gene183&lt;/b&gt;&lt;br&gt;input.path1.gene183&lt;br&gt;Location: 634659 - 637538" locus_tag="input.path1.gene183" class="clusterblast-orf" id="dummy-1_q21_0_all"  />
</g>
<g label="NW_024467839" description="NW_024467839 (148457-211490): Aspergillus wentii DTO 134E9 unplaced genomic s... (6% of genes show similarity), NRPS-like" class="clusterblast-cluster"  >
<text x="5" y="70" class="clusterblast-acc"  >
<a xlink:href="https://antismash-db.secondarymetabolites.org/area?record=NW_024467839&amp;start=148457&amp;end=211490" target="_blank">NW_024467839 (148457-211490)</a>: Aspergillus wentii DTO 134E9 unplaced genomic s... (6% of genes show similarity), NRPS-like</text>
<line x1="10" y1="85" x2="778.0" y2="85" style="stroke-width:1; stroke:grey; "  />
</g>
<g id="a1_000"  >
<polygon points="0,90 0,90 5,85 0,80 0,80 0,90 " style="fill:white; stroke-width:1; stroke:black; " description="&lt;b&gt;ASPWEDRAFT_175932&lt;/b&gt;&lt;br&gt;uncharacterized protein&lt;br&gt;Location: 211154 - 210733" locus_tag="ASPWEDRAFT_175932" class="clusterblast-orf" id="dummy-1_h1_5_0"  />
</g>
<g id="a1_001"  >
<polygon points="11,90 13,90 18,85 13,80 11,80 11,90 " style="fill:white; stroke-width:1; stroke:black; " description="&lt;b&gt;ASPWEDRAFT_175931&lt;/b&gt;&lt;br&gt;uncharacterized protein&lt;br&gt;Location: 210250 - 209669" locus_tag="ASPWEDRAFT_175931" class="clusterblast-orf" id="dummy-1_h1_5_1"  />
</g>
<g id="a1_002"  >
<polygon points="23,85 28,80 45,80 45,90 28,90 23,85 " style="fill:white; stroke-width:1; stroke:black; " description="&lt;b&gt;ASPWEDRAFT_44805&lt;/b&gt;&lt;br&gt;uncharacterized protein&lt;br&gt;Location: 209329 - 207569" locus_tag="ASPWEDRAFT_44805" class="clusterblast-orf" id="dummy-1_h1_5_2"  />
</g>
<g id="a1_003"  >
<polygon points="58,90 66,90 71,85 66,80 58,80 58,90 " style="fill:white; stroke-width:1; stroke:black; " description="&lt;b&gt;ASPWEDRAFT_44804&lt;/b&gt;&lt;br&gt;uncharacterized protein&lt;br&gt;Location: 206520 - 205502" locus_tag="ASPWEDRAFT_44804" class="clusterblast-orf" id="dummy-1_h1_5_3"  />
</g>
<g id="a1_004"  >
<polygon points="75,90 87,90 92,85 87,80 75,80 75,90 " style="fill:white; stroke-width:1; stroke:black; " description="&lt;b&gt;ASPWEDRAFT_54195&lt;/b&gt;&lt;br&gt;uncharacterized protein&lt;br&gt;Location: 205227 - 203868" locus_tag="ASPWEDRAFT_54195" class="clusterblast-orf" id="dummy-1_h1_5_4"  />
</g>
<g id="a1_005"  >
<polygon points="93,85 97,80 97,90 93,85 " style="fill:white; stroke-width:1; stroke:black; " description="&lt;b&gt;ASPWEDRAFT_175927&lt;/b&gt;&lt;br&gt;uncharacterized protein&lt;br&gt;Location: 203764 - 203465" locus_tag="ASPWEDRAFT_175927" class="clusterblast-orf" id="dummy-1_h1_5_5"  />
</g>
<g id="a1_006"  >
<polygon points="104,85 109,80 123,80 123,90 109,90 104,85 " style="fill:white; stroke-width:1; stroke:black; " description="&lt;b&gt;ASPWEDRAFT_120051&lt;/b&gt;&lt;br&gt;uncharacterized protein&lt;br&gt;Location: 202887 - 201439" locus_tag="ASPWEDRAFT_120051" class="clusterblast-orf" id="dummy-1_h1_5_6"  />
</g>
<g id="a1_007"  >
<polygon points="155,90 160,90 165,85 160,80 155,80 155,90 " style="fill:white; stroke-width:1; stroke:black; " description="&lt;b&gt;ASPWEDRAFT_44800&lt;/b&gt;&lt;br&gt;uncharacterized protein&lt;br&gt;Location: 198868 - 198120" locus_tag="ASPWEDRAFT_44800" class="clusterblast-orf" id="dummy-1_h1_5_7"  />
</g>
<g id="a1_008"  >
<polygon points="172,90 182,90 187,85 182,80 172,80 172,90 " style="fill:white; stroke-width:1; stroke:black; " description="&lt;b&gt;ASPWEDRAFT_175924&lt;/b&gt;&lt;br&gt;uncharacterized protein&lt;br&gt;Location: 197500 - 196344" locus_tag="ASPWEDRAFT_175924" class="clusterblast-orf" id="dummy-1_h1_5_8"  />
</g>
<g id="a1_009"  >
<polygon points="196,90 200,85 196,80 196,90 " style="fill:white; stroke-width:1; stroke:black; " description="&lt;b&gt;ASPWEDRAFT_44799&lt;/b&gt;&lt;br&gt;uncharacterized protein&lt;br&gt;Location: 195611 - 195309" locus_tag="ASPWEDRAFT_44799" class="clusterblast-orf" id="dummy-1_h1_5_9"  />
</g>
<g id="a1_0010"  >
<polygon points="209,85 214,80 219,80 219,90 214,90 209,85 " style="fill:white; stroke-width:1; stroke:black; " description="&lt;b&gt;ASPWEDRAFT_186797&lt;/b&gt;&lt;br&gt;uncharacterized protein&lt;br&gt;Location: 194601 - 193789" locus_tag="ASPWEDRAFT_186797" class="clusterblast-orf" id="dummy-1_h1_5_10"  />
</g>
<g id="a1_0011"  >
<polygon points="244,90 247,90 252,85 247,80 244,80 244,90 " style="fill:white; stroke-width:1; stroke:black; " description="&lt;b&gt;ASPWEDRAFT_672561&lt;/b&gt;&lt;br&gt;uncharacterized protein&lt;br&gt;Location: 191812 - 191191" locus_tag="ASPWEDRAFT_672561" class="clusterblast-orf" id="dummy-1_h1_5_11"  />
</g>
<g id="a1_0012"  >
<polygon points="271,90 277,90 282,85 277,80 271,80 271,90 " style="fill:white; stroke-width:1; stroke:black; " description="&lt;b&gt;ASPWEDRAFT_175921&lt;/b&gt;&lt;br&gt;uncharacterized protein&lt;br&gt;Location: 189731 - 188821" locus_tag="ASPWEDRAFT_175921" class="clusterblast-orf" id="dummy-1_h1_5_12"  />
</g>
<g id="a1_0013"  >
<polygon points="293,85 298,80 312,80 312,90 298,90 293,85 " style="fill:white; stroke-width:1; stroke:black; " description="&lt;b&gt;ASPWEDRAFT_31523&lt;/b&gt;&lt;br&gt;uncharacterized protein&lt;br&gt;Location: 187992 - 186477" locus_tag="ASPWEDRAFT_31523" class="clusterblast-orf" id="dummy-1_h1_5_13"  />
</g>
<g id="a1_0014"  >
<polygon points="319,85 324,80 341,80 341,90 324,90 319,85 " style="fill:white; stroke-width:1; stroke:black; " description="&lt;b&gt;ASPWEDRAFT_44798&lt;/b&gt;&lt;br&gt;uncharacterized protein&lt;br&gt;Location: 185904 - 184189" locus_tag="ASPWEDRAFT_44798" class="clusterblast-orf" id="dummy-1_h1_5_14"  />
</g>
<g id="a1_0015"  >
<polygon points="375,90 409,90 414,85 409,80 375,80 375,90 " style="fill:white; stroke-width:1; stroke:black; " description="&lt;b&gt;ASPWEDRAFT_118398&lt;/b&gt;&lt;br&gt;uncharacterized protein&lt;br&gt;Location: 181490 - 178458" locus_tag="ASPWEDRAFT_118398" class="clusterblast-orf" id="dummy-1_h1_5_15"  />
</g>
<g id="a1_0016"  >
<polygon points="426,85 431,80 442,80 442,90 431,90 426,85 " style="fill:white; stroke-width:1; stroke:black; " description="&lt;b&gt;ASPWEDRAFT_44797&lt;/b&gt;&lt;br&gt;uncharacterized protein&lt;br&gt;Location: 177504 - 176179" locus_tag="ASPWEDRAFT_44797" class="clusterblast-orf" id="dummy-1_h1_5_16"  />
</g>
<g id="a1_0017"  >
<polygon points="458,90 488,90 493,85 488,80 458,80 458,90 " style="fill:white; stroke-width:1; stroke:black; " description="&lt;b&gt;ASPWEDRAFT_44796&lt;/b&gt;&lt;br&gt;uncharacterized protein&lt;br&gt;Location: 174915 - 172188" locus_tag="ASPWEDRAFT_44796" class="clusterblast-orf" id="dummy-1_h1_5_17"  />
</g>
<g id="a1_0018"  >
<polygon points="503,85 508,80 516,80 516,90 508,90 503,85 " style="fill:white; stroke-width:1; stroke:black; " description="&lt;b&gt;ASPWEDRAFT_44795&lt;/b&gt;&lt;br&gt;uncharacterized protein&lt;br&gt;Location: 171366 - 170368" locus_tag="ASPWEDRAFT_44795" class="clusterblast-orf" id="dummy-1_h1_5_18"  />
</g>
<g id="a1_0019"  >
<polygon points="527,85 532,80 540,80 540,90 532,90 527,85 " style="fill:white; stroke-width:1; stroke:black; " description="&lt;b&gt;ASPWEDRAFT_118459&lt;/b&gt;&lt;br&gt;uncharacterized protein&lt;br&gt;Location: 169463 - 168495" locus_tag="ASPWEDRAFT_118459" class="clusterblast-orf" id="dummy-1_h1_5_19"  />
</g>
<g id="a1_0020"  >
<polygon points="543,85 548,80 617,80 617,90 548,90 543,85 " style="fill:#b115d8; stroke-width:1; stroke:black; " description="&lt;b&gt;ASPWEDRAFT_71875&lt;/b&gt;&lt;br&gt;uncharacterized protein&lt;br&gt;Location: 168250 - 162404&lt;br&gt;&lt;br&gt;&lt;b&gt;BlastP hit with input.path1.gene169&lt;/b&gt;&lt;br&gt;Percentage identity: 37&lt;br&gt;Percentage coverage: 90&lt;br&gt;BLAST bit score: 1008&lt;br&gt;E-value: 0.0" locus_tag="ASPWEDRAFT_71875" class="clusterblast-orf" id="dummy-1_h1_5_20"  />
</g>
<g id="a1_0021"  >
<polygon points="630,90 652,90 657,85 652,80 630,80 630,90 " style="fill:#d88a15; stroke-width:1; stroke:black; " description="&lt;b&gt;ASPWEDRAFT_140622&lt;/b&gt;&lt;br&gt;uncharacterized protein&lt;br&gt;Location: 161323 - 159238&lt;br&gt;&lt;br&gt;&lt;b&gt;BlastP hit with input.path1.gene170&lt;/b&gt;&lt;br&gt;Percentage identity: 33&lt;br&gt;Percentage coverage: 49&lt;br&gt;BLAST bit score: 66&lt;br&gt;E-value: 1.84e-09" locus_tag="ASPWEDRAFT_140622" class="clusterblast-orf" id="dummy-1_h1_5_21"  />
</g>
<g id="a1_0022"  >
<polygon points="662,85 665,80 665,90 662,85 " style="fill:white; stroke-width:1; stroke:black; " description="&lt;b&gt;ASPWEDRAFT_175911&lt;/b&gt;&lt;br&gt;uncharacterized protein&lt;br&gt;Location: 158811 - 158580" locus_tag="ASPWEDRAFT_175911" class="clusterblast-orf" id="dummy-1_h1_5_22"  />
</g>
<g id="a1_0023"  >
<polygon points="679,90 682,85 679,80 679,90 " style="fill:white; stroke-width:1; stroke:black; " description="&lt;b&gt;ASPWEDRAFT_44791&lt;/b&gt;&lt;br&gt;uncharacterized protein&lt;br&gt;Location: 157490 - 157242" locus_tag="ASPWEDRAFT_44791" class="clusterblast-orf" id="dummy-1_h1_5_23"  />
</g>
<g id="a1_0024"  >
<polygon points="685,90 688,85 685,80 685,90 " style="fill:white; stroke-width:1; stroke:black; " description="&lt;b&gt;ASPWEDRAFT_672421&lt;/b&gt;&lt;br&gt;uncharacterized protein&lt;br&gt;Location: 157036 - 156773" locus_tag="ASPWEDRAFT_672421" class="clusterblast-orf" id="dummy-1_h1_5_24"  />
</g>
<g id="a1_0025"  >
<polygon points="691,90 693,90 698,85 693,80 691,80 691,90 " style="fill:white; stroke-width:1; stroke:black; " description="&lt;b&gt;ASPWEDRAFT_31512&lt;/b&gt;&lt;br&gt;uncharacterized protein&lt;br&gt;Location: 156565 - 156030" locus_tag="ASPWEDRAFT_31512" class="clusterblast-orf" id="dummy-1_h1_5_25"  />
</g>
<g id="a1_0026"  >
<polygon points="711,90 734,90 739,85 734,80 711,80 711,90 " style="fill:white; stroke-width:1; stroke:black; " description="&lt;b&gt;ASPWEDRAFT_54185&lt;/b&gt;&lt;br&gt;uncharacterized protein&lt;br&gt;Location: 154937 - 152718" locus_tag="ASPWEDRAFT_54185" class="clusterblast-orf" id="dummy-1_h1_5_26"  />
</g>
<g id="a1_0027"  >
<polygon points="743,90 760,90 765,85 760,80 743,80 743,90 " style="fill:white; stroke-width:1; stroke:black; " description="&lt;b&gt;ASPWEDRAFT_54184&lt;/b&gt;&lt;br&gt;uncharacterized protein&lt;br&gt;Location: 152410 - 150691" locus_tag="ASPWEDRAFT_54184" class="clusterblast-orf" id="dummy-1_h1_5_27"  />
</g>
<g id="a1_0028"  >
<polygon points="766,85 771,80 780,80 780,90 771,90 766,85 " style="fill:white; stroke-width:1; stroke:black; " description="&lt;b&gt;ASPWEDRAFT_119548&lt;/b&gt;&lt;br&gt;uncharacterized protein&lt;br&gt;Location: 150584 - 149556" locus_tag="ASPWEDRAFT_119548" class="clusterblast-orf" id="dummy-1_h1_5_28"  />
</g>
</svg>
