<svg xmlns="http://www.w3.org/2000/svg" xmlns:xlink="http://www.w3.org/1999/xlink" version="1.1" x="0" y="0" height="230" width="800" viewBox="0 0 800 230" preserveAspectRatio="none"  >
<g label="Query sequence" class="clusterblast-cluster"  >
<text x="5" y="20" class="clusterblast-acc"  >
Query sequence</text>
<line x1="10" y1="35" x2="778.0" y2="35" style="stroke-width:1; stroke:grey; "  />
<polygon points="165,40 189,40 194,35 189,30 165,30 165,40 " style="fill:#d81515; stroke-width:1; stroke:black; " description="&lt;b&gt;input.path1.gene913&lt;/b&gt;&lt;br&gt;input.path1.gene913&lt;br&gt;Location: 3552971 - 3555252" locus_tag="input.path1.gene913" class="clusterblast-orf" id="dummy-7_q0_0_all"  />
<polygon points="194,35 199,30 200,30 200,40 199,40 194,35 " style="fill:white; stroke-width:1; stroke:black; " description="&lt;b&gt;input.path1.gene914&lt;/b&gt;&lt;br&gt;input.path1.gene914&lt;br&gt;Location: 3555287 - 3555733" locus_tag="input.path1.gene914" class="clusterblast-orf" id="dummy-7_q1_0_all"  />
<polygon points="245,40 269,40 274,35 269,30 245,30 245,40 " style="fill:#77d815; stroke-width:1; stroke:black; " description="&lt;b&gt;input.path1.gene915&lt;/b&gt;&lt;br&gt;input.path1.gene915&lt;br&gt;Location: 3559295 - 3561631" locus_tag="input.path1.gene915" class="clusterblast-orf" id="dummy-7_q2_0_all"  />
<polygon points="285,35 290,30 304,30 304,40 290,40 285,35 " style="fill:#15d8d8; stroke-width:1; stroke:black; " description="&lt;b&gt;input.path1.gene916&lt;/b&gt;&lt;br&gt;input.path1.gene916&lt;br&gt;Location: 3562470 - 3564034" locus_tag="input.path1.gene916" class="clusterblast-orf" id="dummy-7_q3_0_all"  />
<polygon points="324,40 330,40 335,35 330,30 324,30 324,40 " style="fill:#7715d8; stroke-width:1; stroke:black; " description="&lt;b&gt;input.path1.gene917&lt;/b&gt;&lt;br&gt;input.path1.gene917&lt;br&gt;Location: 3565601 - 3566461" locus_tag="input.path1.gene917" class="clusterblast-orf" id="dummy-7_q4_0_all"  />
<polygon points="340,35 345,30 401,30 401,40 345,40 340,35 " style="fill:#d8a715; stroke-width:1; stroke:black; " description="&lt;b&gt;input.path1.gene918&lt;/b&gt;&lt;br&gt;input.path1.gene918&lt;br&gt;Location: 3566863 - 3571735" locus_tag="input.path1.gene918" class="clusterblast-orf" id="dummy-7_q5_0_all"  />
<polygon points="463,40 472,40 477,35 472,30 463,30 463,40 " style="fill:#15d846; stroke-width:1; stroke:black; " description="&lt;b&gt;input.path1.gene919&lt;/b&gt;&lt;br&gt;input.path1.gene919&lt;br&gt;Location: 3576678 - 3577790" locus_tag="input.path1.gene919" class="clusterblast-orf" id="dummy-7_q6_0_all"  />
<polygon points="497,35 502,30 523,30 523,40 502,40 497,35 " style="fill:#1546d8; stroke-width:1; stroke:black; " description="&lt;b&gt;input.path1.gene920&lt;/b&gt;&lt;br&gt;input.path1.gene920&lt;br&gt;Location: 3579343 - 3581381" locus_tag="input.path1.gene920" class="clusterblast-orf" id="dummy-7_q7_0_all"  />
<polygon points="567,40 586,40 591,35 586,30 567,30 567,40 " style="fill:#d815a7; stroke-width:1; stroke:black; " description="&lt;b&gt;input.path1.gene921&lt;/b&gt;&lt;br&gt;input.path1.gene921&lt;br&gt;Location: 3584907 - 3586803" locus_tag="input.path1.gene921" class="clusterblast-orf" id="dummy-7_q8_0_all"  />
<polygon points="592,35 597,30 614,30 614,40 597,40 592,35 " style="fill:white; stroke-width:1; stroke:black; " description="&lt;b&gt;input.path1.gene922&lt;/b&gt;&lt;br&gt;input.path1.gene922&lt;br&gt;Location: 3586894 - 3588663" locus_tag="input.path1.gene922" class="clusterblast-orf" id="dummy-7_q9_0_all"  />
</g>
<g label="NC_058401" description="NC_058401 (4731897-4795714): Fusarium poae strain DAOMC 252244 chromosome 3, ... (25% of genes show similarity), NRPS-like" class="clusterblast-cluster"  >
<text x="5" y="70" class="clusterblast-acc"  >
<a xlink:href="https://antismash-db.secondarymetabolites.org/area?record=NC_058401&amp;start=4731897&amp;end=4795714" target="_blank">NC_058401 (4731897-4795714)</a>: Fusarium poae strain DAOMC 252244 chromosome 3, ... (25% of genes show similarity), NRPS-like</text>
<line x1="10" y1="85" x2="778.0" y2="85" style="stroke-width:1; stroke:grey; "  />
</g>
<g id="a7_000"  >
<polygon points="0,85 5,80 20,80 20,90 5,90 0,85 " style="fill:white; stroke-width:1; stroke:black; " description="&lt;b&gt;FPOAC1_009019&lt;/b&gt;&lt;br&gt;hypothetical protein&lt;br&gt;Location: 4794085 - 4792424" locus_tag="FPOAC1_009019" class="clusterblast-orf" id="dummy-7_h7_4_0"  />
</g>
<g id="a7_001"  >
<polygon points="49,90 77,90 82,85 77,80 49,80 49,90 " style="fill:white; stroke-width:1; stroke:black; " description="&lt;b&gt;FPOAC1_009018&lt;/b&gt;&lt;br&gt;hypothetical protein&lt;br&gt;Location: 4790119 - 4787527" locus_tag="FPOAC1_009018" class="clusterblast-orf" id="dummy-7_h7_4_1"  />
</g>
<g id="a7_002"  >
<polygon points="127,85 131,80 131,90 127,85 " style="fill:white; stroke-width:1; stroke:black; " description="&lt;b&gt;FPOAC1_009017&lt;/b&gt;&lt;br&gt;hypothetical protein&lt;br&gt;Location: 4783989 - 4783620" locus_tag="FPOAC1_009017" class="clusterblast-orf" id="dummy-7_h7_4_2"  />
</g>
<g id="a7_003"  >
<polygon points="132,85 134,80 134,90 132,85 " style="fill:white; stroke-width:1; stroke:black; " description="&lt;b&gt;FPOAC1_009016&lt;/b&gt;&lt;br&gt;hypothetical protein&lt;br&gt;Location: 4783598 - 4783371" locus_tag="FPOAC1_009016" class="clusterblast-orf" id="dummy-7_h7_4_3"  />
</g>
<g id="a7_004"  >
<polygon points="169,85 174,80 229,80 229,90 174,90 169,85 " style="fill:white; stroke-width:1; stroke:black; " description="&lt;b&gt;FPOAC1_009015&lt;/b&gt;&lt;br&gt;hypothetical protein&lt;br&gt;Location: 4780598 - 4775883" locus_tag="FPOAC1_009015" class="clusterblast-orf" id="dummy-7_h7_4_4"  />
</g>
<g id="a7_005"  >
<polygon points="253,85 258,80 276,80 276,90 258,90 253,85 " style="fill:white; stroke-width:1; stroke:black; " description="&lt;b&gt;FPOAC1_009012&lt;/b&gt;&lt;br&gt;hypothetical protein&lt;br&gt;Location: 4773959 - 4772098" locus_tag="FPOAC1_009012" class="clusterblast-orf" id="dummy-7_h7_4_5"  />
</g>
<g id="a7_006"  >
<polygon points="289,85 294,80 316,80 316,90 294,90 289,85 " style="fill:white; stroke-width:1; stroke:black; " description="&lt;b&gt;FPOAC1_009011&lt;/b&gt;&lt;br&gt;hypothetical protein&lt;br&gt;Location: 4771080 - 4768939" locus_tag="FPOAC1_009011" class="clusterblast-orf" id="dummy-7_h7_4_6"  />
</g>
<g id="a7_007"  >
<polygon points="329,90 336,90 341,85 336,80 329,80 329,90 " style="fill:#7715d8; stroke-width:1; stroke:black; " description="&lt;b&gt;FPOAC1_009010&lt;/b&gt;&lt;br&gt;hypothetical protein&lt;br&gt;Location: 4767904 - 4766986&lt;br&gt;&lt;br&gt;&lt;b&gt;BlastP hit with input.path1.gene917&lt;/b&gt;&lt;br&gt;Percentage identity: 55&lt;br&gt;Percentage coverage: 94&lt;br&gt;BLAST bit score: 290&lt;br&gt;E-value: 3.28e-97" locus_tag="FPOAC1_009010" class="clusterblast-orf" id="dummy-7_h7_4_7"  />
</g>
<g id="a7_008"  >
<polygon points="343,85 348,80 351,80 351,90 348,90 343,85 " style="fill:white; stroke-width:1; stroke:black; " description="&lt;b&gt;FPOAC1_009009&lt;/b&gt;&lt;br&gt;hypothetical protein&lt;br&gt;Location: 4766818 - 4766203" locus_tag="FPOAC1_009009" class="clusterblast-orf" id="dummy-7_h7_4_8"  />
</g>
<g id="a7_009"  >
<polygon points="357,85 362,80 405,80 405,90 362,90 357,85 " style="fill:#d8a715; stroke-width:1; stroke:black; " description="&lt;b&gt;FPOAC1_009008&lt;/b&gt;&lt;br&gt;hypothetical protein&lt;br&gt;Location: 4765714 - 4761898&lt;br&gt;&lt;br&gt;&lt;b&gt;BlastP hit with input.path1.gene918&lt;/b&gt;&lt;br&gt;Percentage identity: 75&lt;br&gt;Percentage coverage: 86&lt;br&gt;BLAST bit score: 1806&lt;br&gt;E-value: 0.0" locus_tag="FPOAC1_009008" class="clusterblast-orf" id="dummy-7_h7_4_9"  />
</g>
<g id="a7_0010"  >
<polygon points="417,90 419,90 424,85 419,80 417,80 417,90 " style="fill:#15d846; stroke-width:1; stroke:black; " description="&lt;b&gt;FPOAC1_009007&lt;/b&gt;&lt;br&gt;hypothetical protein&lt;br&gt;Location: 4760940 - 4760410&lt;br&gt;&lt;br&gt;&lt;b&gt;BlastP hit with input.path1.gene919&lt;/b&gt;&lt;br&gt;Percentage identity: 56&lt;br&gt;Percentage coverage: 42&lt;br&gt;BLAST bit score: 137&lt;br&gt;E-value: 6.54e-38" locus_tag="FPOAC1_009007" class="clusterblast-orf" id="dummy-7_h7_4_10"  />
</g>
<g id="a7_0011"  >
<polygon points="429,90 438,90 443,85 438,80 429,80 429,90 " style="fill:#15d846; stroke-width:1; stroke:black; " description="&lt;b&gt;FPOAC1_009006&lt;/b&gt;&lt;br&gt;hypothetical protein&lt;br&gt;Location: 4759961 - 4758860&lt;br&gt;&lt;br&gt;&lt;b&gt;BlastP hit with input.path1.gene919&lt;/b&gt;&lt;br&gt;Percentage identity: 85&lt;br&gt;Percentage coverage: 59&lt;br&gt;BLAST bit score: 350&lt;br&gt;E-value: 2.71e-119" locus_tag="FPOAC1_009006" class="clusterblast-orf" id="dummy-7_h7_4_11"  />
</g>
<g id="a7_0012"  >
<polygon points="449,85 454,80 455,80 455,90 454,90 449,85 " style="fill:white; stroke-width:1; stroke:black; " description="&lt;b&gt;FPOAC1_009005&lt;/b&gt;&lt;br&gt;hypothetical protein&lt;br&gt;Location: 4758414 - 4757871" locus_tag="FPOAC1_009005" class="clusterblast-orf" id="dummy-7_h7_4_12"  />
</g>
<g id="a7_0013"  >
<polygon points="462,85 467,80 487,80 487,90 467,90 462,85 " style="fill:#1546d8; stroke-width:1; stroke:black; " description="&lt;b&gt;FPOAC1_009004&lt;/b&gt;&lt;br&gt;hypothetical protein&lt;br&gt;Location: 4757378 - 4755353&lt;br&gt;&lt;br&gt;&lt;b&gt;BlastP hit with input.path1.gene920&lt;/b&gt;&lt;br&gt;Percentage identity: 90&lt;br&gt;Percentage coverage: 100&lt;br&gt;BLAST bit score: 1179&lt;br&gt;E-value: 0.0" locus_tag="FPOAC1_009004" class="clusterblast-orf" id="dummy-7_h7_4_13"  />
</g>
<g id="a7_0014"  >
<polygon points="531,90 549,90 554,85 549,80 531,80 531,90 " style="fill:#d815a7; stroke-width:1; stroke:black; " description="&lt;b&gt;FPOAC1_009003&lt;/b&gt;&lt;br&gt;hypothetical protein&lt;br&gt;Location: 4751859 - 4750041&lt;br&gt;&lt;br&gt;&lt;b&gt;BlastP hit with input.path1.gene921&lt;/b&gt;&lt;br&gt;Percentage identity: 90&lt;br&gt;Percentage coverage: 100&lt;br&gt;BLAST bit score: 879&lt;br&gt;E-value: 0.0" locus_tag="FPOAC1_009003" class="clusterblast-orf" id="dummy-7_h7_4_14"  />
</g>
<g id="a7_0015"  >
<polygon points="572,90 572,90 577,85 572,80 572,80 572,90 " style="fill:white; stroke-width:1; stroke:black; " description="&lt;b&gt;FPOAC1_009002&lt;/b&gt;&lt;br&gt;hypothetical protein&lt;br&gt;Location: 4748634 - 4748251" locus_tag="FPOAC1_009002" class="clusterblast-orf" id="dummy-7_h7_4_15"  />
</g>
<g id="a7_0016"  >
<polygon points="581,85 586,80 602,80 602,90 586,90 581,85 " style="fill:white; stroke-width:1; stroke:black; " description="&lt;b&gt;FPOAC1_009001&lt;/b&gt;&lt;br&gt;hypothetical protein&lt;br&gt;Location: 4747868 - 4746250" locus_tag="FPOAC1_009001" class="clusterblast-orf" id="dummy-7_h7_4_16"  />
</g>
<g id="a7_0017"  >
<polygon points="642,85 647,80 657,80 657,90 647,90 642,85 " style="fill:white; stroke-width:1; stroke:black; " description="&lt;b&gt;FPOAC1_009000&lt;/b&gt;&lt;br&gt;Septin Spn2&lt;br&gt;Location: 4743091 - 4741893" locus_tag="FPOAC1_009000" class="clusterblast-orf" id="dummy-7_h7_4_17"  />
</g>
<g id="a7_0018"  >
<polygon points="665,90 665,90 670,85 665,80 665,80 665,90 " style="fill:white; stroke-width:1; stroke:black; " description="&lt;b&gt;FPOAC1_008999&lt;/b&gt;&lt;br&gt;hypothetical protein&lt;br&gt;Location: 4741213 - 4740796" locus_tag="FPOAC1_008999" class="clusterblast-orf" id="dummy-7_h7_4_18"  />
</g>
<g id="a7_0019"  >
<polygon points="676,90 685,90 690,85 685,80 676,80 676,90 " style="fill:white; stroke-width:1; stroke:black; " description="&lt;b&gt;FPOAC1_008998&lt;/b&gt;&lt;br&gt;hypothetical protein&lt;br&gt;Location: 4740357 - 4739216" locus_tag="FPOAC1_008998" class="clusterblast-orf" id="dummy-7_h7_4_19"  />
</g>
<g id="a7_0020"  >
<polygon points="699,90 702,90 707,85 702,80 699,80 699,90 " style="fill:white; stroke-width:1; stroke:black; " description="&lt;b&gt;FPOAC1_008997&lt;/b&gt;&lt;br&gt;hypothetical protein&lt;br&gt;Location: 4738560 - 4737899" locus_tag="FPOAC1_008997" class="clusterblast-orf" id="dummy-7_h7_4_20"  />
</g>
<g id="a7_0021"  >
<polygon points="710,85 715,80 726,80 726,90 715,90 710,85 " style="fill:white; stroke-width:1; stroke:black; " description="&lt;b&gt;FPOAC1_008996&lt;/b&gt;&lt;br&gt;hypothetical protein&lt;br&gt;Location: 4737693 - 4736422" locus_tag="FPOAC1_008996" class="clusterblast-orf" id="dummy-7_h7_4_21"  />
</g>
<g id="a7_0022"  >
<polygon points="735,90 761,90 766,85 761,80 735,80 735,90 " style="fill:white; stroke-width:1; stroke:black; " description="&lt;b&gt;FPOAC1_008995&lt;/b&gt;&lt;br&gt;hypothetical protein&lt;br&gt;Location: 4735644 - 4733196" locus_tag="FPOAC1_008995" class="clusterblast-orf" id="dummy-7_h7_4_22"  />
</g>
<g id="a7_0023"  >
<polygon points="767,85 772,80 780,80 780,90 772,90 767,85 " style="fill:white; stroke-width:1; stroke:black; " description="&lt;b&gt;FPOAC1_008994&lt;/b&gt;&lt;br&gt;hypothetical protein&lt;br&gt;Location: 4733147 - 4732136" locus_tag="FPOAC1_008994" class="clusterblast-orf" id="dummy-7_h7_4_23"  />
</g>
</svg>
