<svg xmlns="http://www.w3.org/2000/svg" xmlns:xlink="http://www.w3.org/1999/xlink" version="1.1" x="0" y="0" height="230" width="800" viewBox="0 0 800 230" preserveAspectRatio="none"  >
<g label="Query sequence" class="clusterblast-cluster"  >
<text x="5" y="20" class="clusterblast-acc"  >
Query sequence</text>
<line x1="10" y1="35" x2="778.0" y2="35" style="stroke-width:1; stroke:grey; "  />
<polygon points="81,35 86,30 87,30 87,40 86,40 81,35 " style="fill:#d81515; stroke-width:1; stroke:black; " description="&lt;b&gt;input.path1.gene371&lt;/b&gt;&lt;br&gt;input.path1.gene371&lt;br&gt;Location: 1417496 - 1418178" locus_tag="input.path1.gene371" class="clusterblast-orf" id="dummy-3_q0_0_all"  />
<polygon points="91,40 96,40 101,35 96,30 91,30 91,40 " style="fill:#15d815; stroke-width:1; stroke:black; " description="&lt;b&gt;input.path1.gene372&lt;/b&gt;&lt;br&gt;input.path1.gene372&lt;br&gt;Location: 1418576 - 1419569" locus_tag="input.path1.gene372" class="clusterblast-orf" id="dummy-3_q1_0_all"  />
<polygon points="101,35 106,30 120,30 120,40 106,40 101,35 " style="fill:white; stroke-width:1; stroke:black; " description="&lt;b&gt;input.path1.gene373&lt;/b&gt;&lt;br&gt;input.path1.gene373&lt;br&gt;Location: 1419580 - 1421609" locus_tag="input.path1.gene373" class="clusterblast-orf" id="dummy-3_q2_0_all"  />
<polygon points="143,40 149,40 154,35 149,30 143,30 143,40 " style="fill:white; stroke-width:1; stroke:black; " description="&lt;b&gt;input.path1.gene374&lt;/b&gt;&lt;br&gt;input.path1.gene374&lt;br&gt;Location: 1424002 - 1425107" locus_tag="input.path1.gene374" class="clusterblast-orf" id="dummy-3_q3_0_all"  />
<polygon points="162,40 169,40 174,35 169,30 162,30 162,40 " style="fill:white; stroke-width:1; stroke:black; " description="&lt;b&gt;input.path1.gene375&lt;/b&gt;&lt;br&gt;input.path1.gene375&lt;br&gt;Location: 1426004 - 1427252" locus_tag="input.path1.gene375" class="clusterblast-orf" id="dummy-3_q4_0_all"  />
<polygon points="176,35 179,30 179,40 176,35 " style="fill:white; stroke-width:1; stroke:black; " description="&lt;b&gt;input.path1.gene376&lt;/b&gt;&lt;br&gt;input.path1.gene376&lt;br&gt;Location: 1427397 - 1427768" locus_tag="input.path1.gene376" class="clusterblast-orf" id="dummy-3_q5_0_all"  />
<polygon points="184,35 189,30 192,30 192,40 189,40 184,35 " style="fill:white; stroke-width:1; stroke:black; " description="&lt;b&gt;input.path1.gene377&lt;/b&gt;&lt;br&gt;input.path1.gene377&lt;br&gt;Location: 1428264 - 1429095" locus_tag="input.path1.gene377" class="clusterblast-orf" id="dummy-3_q6_0_all"  />
<polygon points="225,35 230,30 232,30 232,40 230,40 225,35 " style="fill:white; stroke-width:1; stroke:black; " description="&lt;b&gt;input.path1.gene378&lt;/b&gt;&lt;br&gt;input.path1.gene378&lt;br&gt;Location: 1432520 - 1433258" locus_tag="input.path1.gene378" class="clusterblast-orf" id="dummy-3_q7_0_all"  />
<polygon points="262,35 267,30 326,30 326,40 267,40 262,35 " style="fill:#1515d8; stroke-width:1; stroke:black; " description="&lt;b&gt;input.path1.gene379&lt;/b&gt;&lt;br&gt;input.path1.gene379&lt;br&gt;Location: 1436404 - 1443152" locus_tag="input.path1.gene379" class="clusterblast-orf" id="dummy-3_q8_0_all"  />
<polygon points="343,40 352,40 357,35 352,30 343,30 343,40 " style="fill:#d815d8; stroke-width:1; stroke:black; " description="&lt;b&gt;input.path1.gene380&lt;/b&gt;&lt;br&gt;input.path1.gene380&lt;br&gt;Location: 1444902 - 1446365" locus_tag="input.path1.gene380" class="clusterblast-orf" id="dummy-3_q9_0_all"  />
<polygon points="362,35 367,30 382,30 382,40 367,40 362,35 " style="fill:#d8d815; stroke-width:1; stroke:black; " description="&lt;b&gt;input.path1.gene381&lt;/b&gt;&lt;br&gt;input.path1.gene381&lt;br&gt;Location: 1446899 - 1449006" locus_tag="input.path1.gene381" class="clusterblast-orf" id="dummy-3_q10_0_all"  />
<polygon points="397,40 529,40 534,35 529,30 397,30 397,40 " style="fill:#15d8d8; stroke-width:1; stroke:black; " description="&lt;b&gt;input.path1.gene382&lt;/b&gt;&lt;br&gt;input.path1.gene382&lt;br&gt;Location: 1450565 - 1464805" locus_tag="input.path1.gene382" class="clusterblast-orf" id="dummy-3_q11_0_all"  />
<polygon points="538,35 543,30 571,30 571,40 543,40 538,35 " style="fill:white; stroke-width:1; stroke:black; " description="&lt;b&gt;input.path1.gene383&lt;/b&gt;&lt;br&gt;input.path1.gene383&lt;br&gt;Location: 1465211 - 1468732" locus_tag="input.path1.gene383" class="clusterblast-orf" id="dummy-3_q12_0_all"  />
<polygon points="666,40 671,40 676,35 671,30 666,30 666,40 " style="fill:white; stroke-width:1; stroke:black; " description="&lt;b&gt;input.path1.gene384&lt;/b&gt;&lt;br&gt;input.path1.gene384&lt;br&gt;Location: 1478621 - 1479659" locus_tag="input.path1.gene384" class="clusterblast-orf" id="dummy-3_q13_0_all"  />
<polygon points="676,35 681,30 698,30 698,40 681,40 676,35 " style="fill:white; stroke-width:1; stroke:black; " description="&lt;b&gt;input.path1.gene385&lt;/b&gt;&lt;br&gt;input.path1.gene385&lt;br&gt;Location: 1479667 - 1482004" locus_tag="input.path1.gene385" class="clusterblast-orf" id="dummy-3_q14_0_all"  />
</g>
<g label="NW_006271969" description="NW_006271969 (4087046-4175862): Cordyceps militaris CM01 unplaced genomic sca... (23% of genes show similarity), NRPS,T1PKS" class="clusterblast-cluster"  >
<text x="5" y="70" class="clusterblast-acc"  >
<a xlink:href="https://antismash-db.secondarymetabolites.org/area?record=NW_006271969&amp;start=4087046&amp;end=4175862" target="_blank">NW_006271969 (4087046-4175862)</a>: Cordyceps militaris CM01 unplaced genomic sca... (23% of genes show similarity), NRPS,T1PKS</text>
<line x1="10" y1="85" x2="778.0" y2="85" style="stroke-width:1; stroke:grey; "  />
</g>
<g id="a3_000"  >
<polygon points="0,85 5,80 21,80 21,90 5,90 0,85 " style="fill:white; stroke-width:1; stroke:black; " description="&lt;b&gt;CCM_01279&lt;/b&gt;&lt;br&gt;glycosyl hydrolase, putative&lt;br&gt;Location: 4091976 - 4094234" locus_tag="CCM_01279" class="clusterblast-orf" id="dummy-3_h3_1_0"  />
</g>
<g id="a3_001"  >
<polygon points="31,90 80,90 85,85 80,80 31,80 31,90 " style="fill:white; stroke-width:1; stroke:black; " description="&lt;b&gt;CCM_01280&lt;/b&gt;&lt;br&gt;antiviral protein (Ski3), putative&lt;br&gt;Location: 4095295 - 4100907" locus_tag="CCM_01280" class="clusterblast-orf" id="dummy-3_h3_1_1"  />
</g>
<g id="a3_002"  >
<polygon points="202,85 207,80 226,80 226,90 207,90 202,85 " style="fill:white; stroke-width:1; stroke:black; " description="&lt;b&gt;CCM_01281&lt;/b&gt;&lt;br&gt;oligopeptide transporter&lt;br&gt;Location: 4113131 - 4115591" locus_tag="CCM_01281" class="clusterblast-orf" id="dummy-3_h3_1_2"  />
</g>
<g id="a3_003"  >
<polygon points="240,85 245,80 320,80 320,90 245,90 240,85 " style="fill:#1515d8; stroke-width:1; stroke:black; " description="&lt;b&gt;CCM_01282&lt;/b&gt;&lt;br&gt;polyketide synthase, putative&lt;br&gt;Location: 4117047 - 4125452&lt;br&gt;&lt;br&gt;&lt;b&gt;BlastP hit with input.path1.gene379&lt;/b&gt;&lt;br&gt;Percentage identity: 78&lt;br&gt;Percentage coverage: 105&lt;br&gt;BLAST bit score: 3100&lt;br&gt;E-value: 0.0" locus_tag="CCM_01282" class="clusterblast-orf" id="dummy-3_h3_1_3"  />
</g>
<g id="a3_004"  >
<polygon points="331,90 340,90 345,85 340,80 331,80 331,90 " style="fill:#d815d8; stroke-width:1; stroke:black; " description="&lt;b&gt;CCM_01283&lt;/b&gt;&lt;br&gt;Transferase&lt;br&gt;Location: 4126586 - 4128043&lt;br&gt;&lt;br&gt;&lt;b&gt;BlastP hit with input.path1.gene380&lt;/b&gt;&lt;br&gt;Percentage identity: 72&lt;br&gt;Percentage coverage: 99&lt;br&gt;BLAST bit score: 669&lt;br&gt;E-value: 7.71e-240" locus_tag="CCM_01283" class="clusterblast-orf" id="dummy-3_h3_1_4"  />
</g>
<g id="a3_005"  >
<polygon points="349,85 354,80 375,80 375,90 354,90 349,85 " style="fill:#d8d815; stroke-width:1; stroke:black; " description="&lt;b&gt;CCM_01284&lt;/b&gt;&lt;br&gt;AMP dependent CoA ligase, putative&lt;br&gt;Location: 4128455 - 4131193&lt;br&gt;&lt;br&gt;&lt;b&gt;BlastP hit with input.path1.gene381&lt;/b&gt;&lt;br&gt;Percentage identity: 87&lt;br&gt;Percentage coverage: 69&lt;br&gt;BLAST bit score: 267&lt;br&gt;E-value: 4.17e-84" locus_tag="CCM_01284" class="clusterblast-orf" id="dummy-3_h3_1_5"  />
</g>
<g id="a3_006"  >
<polygon points="378,90 511,90 516,85 511,80 378,80 378,90 " style="fill:#15d8d8; stroke-width:1; stroke:black; " description="&lt;b&gt;CCM_01285&lt;/b&gt;&lt;br&gt;non-ribosomal peptide synthase, putative&lt;br&gt;Location: 4131512 - 4145862&lt;br&gt;&lt;br&gt;&lt;b&gt;BlastP hit with input.path1.gene382&lt;/b&gt;&lt;br&gt;Percentage identity: 63&lt;br&gt;Percentage coverage: 117&lt;br&gt;BLAST bit score: 5636&lt;br&gt;E-value: 0.0" locus_tag="CCM_01285" class="clusterblast-orf" id="dummy-3_h3_1_6"  />
</g>
<g id="a3_007"  >
<polygon points="570,90 575,90 580,85 575,80 570,80 570,90 " style="fill:white; stroke-width:1; stroke:black; " description="&lt;b&gt;CCM_01286&lt;/b&gt;&lt;br&gt;Vps51/Vps67&lt;br&gt;Location: 4151594 - 4152580" locus_tag="CCM_01286" class="clusterblast-orf" id="dummy-3_h3_1_7"  />
</g>
<g id="a3_008"  >
<polygon points="582,85 587,80 592,80 592,90 587,90 582,85 " style="fill:white; stroke-width:1; stroke:black; " description="&lt;b&gt;CCM_01287&lt;/b&gt;&lt;br&gt;UPF0135 protein&lt;br&gt;Location: 4152771 - 4153817" locus_tag="CCM_01287" class="clusterblast-orf" id="dummy-3_h3_1_8"  />
</g>
<g id="a3_009"  >
<polygon points="597,90 601,85 597,80 597,90 " style="fill:white; stroke-width:1; stroke:black; " description="&lt;b&gt;CCM_01288&lt;/b&gt;&lt;br&gt;BolA domain protein&lt;br&gt;Location: 4154413 - 4154783" locus_tag="CCM_01288" class="clusterblast-orf" id="dummy-3_h3_1_9"  />
</g>
<g id="a3_0010"  >
<polygon points="604,85 609,80 627,80 627,90 609,90 604,85 " style="fill:white; stroke-width:1; stroke:black; " description="&lt;b&gt;CCM_01289&lt;/b&gt;&lt;br&gt;AP-1 complex subunit beta-1&lt;br&gt;Location: 4155095 - 4157538" locus_tag="CCM_01289" class="clusterblast-orf" id="dummy-3_h3_1_10"  />
</g>
<g id="a3_0011"  >
<polygon points="635,85 640,80 660,80 660,90 640,90 635,85 " style="fill:white; stroke-width:1; stroke:black; " description="&lt;b&gt;CCM_01290&lt;/b&gt;&lt;br&gt;DNA ligase I, putative&lt;br&gt;Location: 4158328 - 4160974" locus_tag="CCM_01290" class="clusterblast-orf" id="dummy-3_h3_1_11"  />
</g>
<g id="a3_0012"  >
<polygon points="664,90 668,90 673,85 668,80 664,80 664,90 " style="fill:white; stroke-width:1; stroke:black; " description="&lt;b&gt;CCM_01291&lt;/b&gt;&lt;br&gt;eukaryotic translation initiation factor 3 subunit EifCk, putative&lt;br&gt;Location: 4161341 - 4162275" locus_tag="CCM_01291" class="clusterblast-orf" id="dummy-3_h3_1_12"  />
</g>
<g id="a3_0013"  >
<polygon points="676,85 681,80 689,80 689,90 681,90 676,85 " style="fill:white; stroke-width:1; stroke:black; " description="&lt;b&gt;CCM_01292&lt;/b&gt;&lt;br&gt;PDCD2 domain protein&lt;br&gt;Location: 4162655 - 4163983" locus_tag="CCM_01292" class="clusterblast-orf" id="dummy-3_h3_1_13"  />
</g>
<g id="a3_0014"  >
<polygon points="691,85 696,80 710,80 710,90 696,90 691,85 " style="fill:white; stroke-width:1; stroke:black; " description="&lt;b&gt;CCM_01293&lt;/b&gt;&lt;br&gt;T-complex protein 1 subunit zeta&lt;br&gt;Location: 4164212 - 4166171" locus_tag="CCM_01293" class="clusterblast-orf" id="dummy-3_h3_1_14"  />
</g>
<g id="a3_0015"  >
<polygon points="721,85 726,80 744,80 744,90 726,90 721,85 " style="fill:white; stroke-width:1; stroke:black; " description="&lt;b&gt;CCM_01294&lt;/b&gt;&lt;br&gt;C2H2 transcription factor Swi5&lt;br&gt;Location: 4167321 - 4169720" locus_tag="CCM_01294" class="clusterblast-orf" id="dummy-3_h3_1_15"  />
</g>
<g id="a3_0016"  >
<polygon points="765,90 775,90 780,85 775,80 765,80 765,90 " style="fill:white; stroke-width:1; stroke:black; " description="&lt;b&gt;CCM_01295&lt;/b&gt;&lt;br&gt;37S ribosomal protein MRP4&lt;br&gt;Location: 4171934 - 4173428" locus_tag="CCM_01295" class="clusterblast-orf" id="dummy-3_h3_1_16"  />
</g>
</svg>
