<svg xmlns="http://www.w3.org/2000/svg" xmlns:xlink="http://www.w3.org/1999/xlink" version="1.1" x="0" y="0" height="230" width="800" viewBox="0 0 800 230" preserveAspectRatio="none"  >
<g label="Query sequence" class="clusterblast-cluster"  >
<text x="5" y="20" class="clusterblast-acc"  >
Query sequence</text>
<line x1="10" y1="35" x2="778.0" y2="35" style="stroke-width:1; stroke:grey; "  />
<polygon points="47,35 52,30 76,30 76,40 52,40 47,35 " style="fill:#d81515; stroke-width:1; stroke:black; " description="&lt;b&gt;input.path1.gene303&lt;/b&gt;&lt;br&gt;input.path1.gene303&lt;br&gt;Location: 1226937 - 1228153" locus_tag="input.path1.gene303" class="clusterblast-orf" id="dummy-2_q0_0_all"  />
<polygon points="125,40 171,40 176,35 171,30 125,30 125,40 " style="fill:#15d863; stroke-width:1; stroke:black; " description="&lt;b&gt;input.path1.gene304&lt;/b&gt;&lt;br&gt;input.path1.gene304&lt;br&gt;Location: 1230213 - 1232316" locus_tag="input.path1.gene304" class="clusterblast-orf" id="dummy-2_q1_0_all"  />
<polygon points="284,40 313,40 318,35 313,30 284,30 284,40 " style="fill:white; stroke-width:1; stroke:black; " description="&lt;b&gt;input.path1.gene305&lt;/b&gt;&lt;br&gt;input.path1.gene305&lt;br&gt;Location: 1236805 - 1238212" locus_tag="input.path1.gene305" class="clusterblast-orf" id="dummy-2_q2_0_all"  />
<polygon points="347,40 395,40 400,35 395,30 347,30 347,40 " style="fill:#1563d8; stroke-width:1; stroke:black; " description="&lt;b&gt;input.path1.gene306&lt;/b&gt;&lt;br&gt;input.path1.gene306&lt;br&gt;Location: 1239428 - 1241599" locus_tag="input.path1.gene306" class="clusterblast-orf" id="dummy-2_q3_0_all"  />
<polygon points="401,35 406,30 510,30 510,40 406,40 401,35 " style="fill:#b115d8; stroke-width:1; stroke:black; " description="&lt;b&gt;input.path1.gene307&lt;/b&gt;&lt;br&gt;input.path1.gene307&lt;br&gt;Location: 1241645 - 1246190" locus_tag="input.path1.gene307" class="clusterblast-orf" id="dummy-2_q4_0_all"  />
<polygon points="549,40 555,40 560,35 555,30 549,30 549,40 " style="fill:white; stroke-width:1; stroke:black; " description="&lt;b&gt;input.path1.gene308&lt;/b&gt;&lt;br&gt;input.path1.gene308&lt;br&gt;Location: 1247810 - 1248269" locus_tag="input.path1.gene308" class="clusterblast-orf" id="dummy-2_q5_0_all"  />
<polygon points="594,40 630,40 635,35 630,30 594,30 594,40 " style="fill:#b1d815; stroke-width:1; stroke:black; " description="&lt;b&gt;input.path1.gene309&lt;/b&gt;&lt;br&gt;input.path1.gene309&lt;br&gt;Location: 1249653 - 1251382" locus_tag="input.path1.gene309" class="clusterblast-orf" id="dummy-2_q6_0_all"  />
<polygon points="678,35 683,30 733,30 733,40 683,40 678,35 " style="fill:white; stroke-width:1; stroke:black; " description="&lt;b&gt;input.path1.gene310&lt;/b&gt;&lt;br&gt;input.path1.gene310&lt;br&gt;Location: 1253153 - 1255440" locus_tag="input.path1.gene310" class="clusterblast-orf" id="dummy-2_q7_0_all"  />
</g>
<g label="NZ_CP073318" description="NZ_CP073318 (1841655-1875627): Kutzneria sp. CA-103260 chromosome, complete g... (10% of genes show similarity), NAPAA" class="clusterblast-cluster"  >
<text x="5" y="70" class="clusterblast-acc"  >
<a xlink:href="https://antismash-db.secondarymetabolites.org/area?record=NZ_CP073318&amp;start=1841655&amp;end=1875627" target="_blank">NZ_CP073318 (1841655-1875627)</a>: Kutzneria sp. CA-103260 chromosome, complete g... (10% of genes show similarity), NAPAA</text>
<line x1="10" y1="85" x2="778.0" y2="85" style="stroke-width:1; stroke:grey; "  />
</g>
<g id="a2_000"  >
<polygon points="0,90 28,90 33,85 28,80 0,80 0,90 " style="fill:white; stroke-width:1; stroke:black; " description="&lt;b&gt;JJ691_RS08100&lt;/b&gt;&lt;br&gt;cytochrome P450&lt;br&gt;Location: 1843177 - 1844568" locus_tag="JJ691_RS08100" class="clusterblast-orf" id="dummy-2_h2_9_0"  />
</g>
<g id="a2_001"  >
<polygon points="33,90 83,90 88,85 83,80 33,80 33,90 " style="fill:white; stroke-width:1; stroke:black; " description="&lt;b&gt;JJ691_RS08105&lt;/b&gt;&lt;br&gt;SDR family NAD(P)-dependent oxidoreductase&lt;br&gt;Location: 1844565 - 1846868" locus_tag="JJ691_RS08105" class="clusterblast-orf" id="dummy-2_h2_9_1"  />
</g>
<g id="a2_002"  >
<polygon points="87,90 118,90 123,85 118,80 87,80 87,90 " style="fill:white; stroke-width:1; stroke:black; " description="&lt;b&gt;JJ691_RS08110&lt;/b&gt;&lt;br&gt;glycosyltransferase family 39 protein&lt;br&gt;Location: 1846817 - 1848289" locus_tag="JJ691_RS08110" class="clusterblast-orf" id="dummy-2_h2_9_2"  />
</g>
<g id="a2_003"  >
<polygon points="123,85 128,80 132,80 132,90 128,90 123,85 " style="fill:white; stroke-width:1; stroke:black; " description="&lt;b&gt;JJ691_RS08115&lt;/b&gt;&lt;br&gt;RidA family protein&lt;br&gt;Location: 1848301 - 1848687" locus_tag="JJ691_RS08115" class="clusterblast-orf" id="dummy-2_h2_9_3"  />
</g>
<g id="a2_004"  >
<polygon points="135,90 138,90 143,85 138,80 135,80 135,90 " style="fill:white; stroke-width:1; stroke:black; " description="&lt;b&gt;JJ691_RS08120&lt;/b&gt;&lt;br&gt;helix-turn-helix transcriptional regulator&lt;br&gt;Location: 1848787 - 1849149" locus_tag="JJ691_RS08120" class="clusterblast-orf" id="dummy-2_h2_9_4"  />
</g>
<g id="a2_005"  >
<polygon points="144,85 149,80 154,80 154,90 149,90 144,85 " style="fill:white; stroke-width:1; stroke:black; " description="&lt;b&gt;JJ691_RS08125&lt;/b&gt;&lt;br&gt;SRPBCC family protein&lt;br&gt;Location: 1849159 - 1849605" locus_tag="JJ691_RS08125" class="clusterblast-orf" id="dummy-2_h2_9_5"  />
</g>
<g id="a2_006"  >
<polygon points="155,85 160,80 168,80 168,90 160,90 155,85 " style="fill:white; stroke-width:1; stroke:black; " description="&lt;b&gt;JJ691_RS08130&lt;/b&gt;&lt;br&gt;TetR/AcrR family transcriptional regulator&lt;br&gt;Location: 1849630 - 1850193" locus_tag="JJ691_RS08130" class="clusterblast-orf" id="dummy-2_h2_9_6"  />
</g>
<g id="a2_007"  >
<polygon points="172,85 177,80 190,80 190,90 177,90 172,85 " style="fill:white; stroke-width:1; stroke:black; " description="&lt;b&gt;JJ691_RS08135&lt;/b&gt;&lt;br&gt;class I SAM-dependent methyltransferase&lt;br&gt;Location: 1850339 - 1851091" locus_tag="JJ691_RS08135" class="clusterblast-orf" id="dummy-2_h2_9_7"  />
</g>
<g id="a2_008"  >
<polygon points="193,85 198,80 200,80 200,90 198,90 193,85 " style="fill:white; stroke-width:1; stroke:black; " description="&lt;b&gt;JJ691_RS52105&lt;/b&gt;&lt;br&gt;hypothetical protein&lt;br&gt;Location: 1851210 - 1851503" locus_tag="JJ691_RS52105" class="clusterblast-orf" id="dummy-2_h2_9_8"  />
</g>
<g id="a2_009"  >
<polygon points="205,90 216,90 221,85 216,80 205,80 205,90 " style="fill:white; stroke-width:1; stroke:black; " description="&lt;b&gt;JJ691_RS52110&lt;/b&gt;&lt;br&gt;hypothetical protein&lt;br&gt;Location: 1851691 - 1852386" locus_tag="JJ691_RS52110" class="clusterblast-orf" id="dummy-2_h2_9_9"  />
</g>
<g id="a2_0010"  >
<polygon points="222,85 227,80 249,80 249,90 227,90 222,85 " style="fill:white; stroke-width:1; stroke:black; " description="&lt;b&gt;JJ691_RS08145&lt;/b&gt;&lt;br&gt;HNH endonuclease&lt;br&gt;Location: 1852408 - 1853544" locus_tag="JJ691_RS08145" class="clusterblast-orf" id="dummy-2_h2_9_10"  />
</g>
<g id="a2_0011"  >
<polygon points="264,85 269,80 283,80 283,90 269,90 264,85 " style="fill:white; stroke-width:1; stroke:black; " description="&lt;b&gt;JJ691_RS08150&lt;/b&gt;&lt;br&gt;MBL fold metallo-hydrolase&lt;br&gt;Location: 1854161 - 1854958" locus_tag="JJ691_RS08150" class="clusterblast-orf" id="dummy-2_h2_9_11"  />
</g>
<g id="a2_0012"  >
<polygon points="283,85 288,80 295,80 295,90 288,90 283,85 " style="fill:white; stroke-width:1; stroke:black; " description="&lt;b&gt;JJ691_RS08155&lt;/b&gt;&lt;br&gt;ester cyclase&lt;br&gt;Location: 1854961 - 1855467" locus_tag="JJ691_RS08155" class="clusterblast-orf" id="dummy-2_h2_9_12"  />
</g>
<g id="a2_0013"  >
<polygon points="295,90 310,90 315,85 310,80 295,80 295,90 " style="fill:white; stroke-width:1; stroke:black; " description="&lt;b&gt;JJ691_RS08160&lt;/b&gt;&lt;br&gt;TetR/AcrR family transcriptional regulator C-terminal domain-containing protein&lt;br&gt;Location: 1855450 - 1856286" locus_tag="JJ691_RS08160" class="clusterblast-orf" id="dummy-2_h2_9_13"  />
</g>
<g id="a2_0014"  >
<polygon points="324,90 415,90 420,85 415,80 324,80 324,90 " style="fill:#b115d8; stroke-width:1; stroke:black; " description="&lt;b&gt;JJ691_RS08165&lt;/b&gt;&lt;br&gt;amino acid adenylation domain-containing protein&lt;br&gt;Location: 1856656 - 1860627&lt;br&gt;&lt;br&gt;&lt;b&gt;BlastP hit with input.path1.gene307&lt;/b&gt;&lt;br&gt;Percentage identity: 33&lt;br&gt;Percentage coverage: 98&lt;br&gt;BLAST bit score: 511&lt;br&gt;E-value: 4.75e-156" locus_tag="JJ691_RS08165" class="clusterblast-orf" id="dummy-2_h2_9_14"  />
</g>
<g id="a2_0015"  >
<polygon points="420,90 431,90 436,85 431,80 420,80 420,90 " style="fill:#b1d815; stroke-width:1; stroke:black; " description="&lt;b&gt;JJ691_RS08170&lt;/b&gt;&lt;br&gt;BPL-N domain-containing protein&lt;br&gt;Location: 1860624 - 1861286&lt;br&gt;&lt;br&gt;&lt;b&gt;BlastP hit with input.path1.gene309&lt;/b&gt;&lt;br&gt;Percentage identity: 38&lt;br&gt;Percentage coverage: 82&lt;br&gt;BLAST bit score: 145&lt;br&gt;E-value: 1.04e-40" locus_tag="JJ691_RS08170" class="clusterblast-orf" id="dummy-2_h2_9_15"  />
</g>
<g id="a2_0016"  >
<polygon points="436,90 461,90 466,85 461,80 436,80 436,90 " style="fill:white; stroke-width:1; stroke:black; " description="&lt;b&gt;JJ691_RS08175&lt;/b&gt;&lt;br&gt;heparan-alpha-glucosaminide N-acetyltransferase domain-containing protein&lt;br&gt;Location: 1861283 - 1862557" locus_tag="JJ691_RS08175" class="clusterblast-orf" id="dummy-2_h2_9_16"  />
</g>
<g id="a2_0017"  >
<polygon points="466,90 480,90 485,85 480,80 466,80 466,90 " style="fill:#b1d815; stroke-width:1; stroke:black; " description="&lt;b&gt;JJ691_RS08180&lt;/b&gt;&lt;br&gt;twin-arginine translocation signal domain-containing protein&lt;br&gt;Location: 1862554 - 1863348&lt;br&gt;&lt;br&gt;&lt;b&gt;BlastP hit with input.path1.gene309&lt;/b&gt;&lt;br&gt;Percentage identity: 36&lt;br&gt;Percentage coverage: 88&lt;br&gt;BLAST bit score: 146&lt;br&gt;E-value: 2.44e-40" locus_tag="JJ691_RS08180" class="clusterblast-orf" id="dummy-2_h2_9_17"  />
</g>
<g id="a2_0018"  >
<polygon points="485,85 490,80 505,80 505,90 490,90 485,85 " style="fill:white; stroke-width:1; stroke:black; " description="&lt;b&gt;JJ691_RS08185&lt;/b&gt;&lt;br&gt;helix-turn-helix transcriptional regulator&lt;br&gt;Location: 1863324 - 1864172" locus_tag="JJ691_RS08185" class="clusterblast-orf" id="dummy-2_h2_9_18"  />
</g>
<g id="a2_0019"  >
<polygon points="508,90 517,90 522,85 517,80 508,80 508,90 " style="fill:white; stroke-width:1; stroke:black; " description="&lt;b&gt;JJ691_RS08190&lt;/b&gt;&lt;br&gt;hypothetical protein&lt;br&gt;Location: 1864304 - 1864855" locus_tag="JJ691_RS08190" class="clusterblast-orf" id="dummy-2_h2_9_19"  />
</g>
<g id="a2_0020"  >
<polygon points="524,90 586,90 591,85 586,80 524,80 524,90 " style="fill:white; stroke-width:1; stroke:black; " description="&lt;b&gt;JJ691_RS08195&lt;/b&gt;&lt;br&gt;winged helix-turn-helix domain-containing protein&lt;br&gt;Location: 1864962 - 1867721" locus_tag="JJ691_RS08195" class="clusterblast-orf" id="dummy-2_h2_9_20"  />
</g>
<g id="a2_0021"  >
<polygon points="595,90 609,90 614,85 609,80 595,80 595,90 " style="fill:white; stroke-width:1; stroke:black; " description="&lt;b&gt;JJ691_RS08200&lt;/b&gt;&lt;br&gt;hypothetical protein&lt;br&gt;Location: 1867901 - 1868686" locus_tag="JJ691_RS08200" class="clusterblast-orf" id="dummy-2_h2_9_21"  />
</g>
<g id="a2_0022"  >
<polygon points="614,90 637,90 642,85 637,80 614,80 614,90 " style="fill:white; stroke-width:1; stroke:black; " description="&lt;b&gt;JJ691_RS08205&lt;/b&gt;&lt;br&gt;acyl-CoA dehydrogenase family protein&lt;br&gt;Location: 1868686 - 1869843" locus_tag="JJ691_RS08205" class="clusterblast-orf" id="dummy-2_h2_9_22"  />
</g>
<g id="a2_0023"  >
<polygon points="642,90 656,90 661,85 656,80 642,80 642,90 " style="fill:white; stroke-width:1; stroke:black; " description="&lt;b&gt;JJ691_RS08210&lt;/b&gt;&lt;br&gt;MaoC family dehydratase N-terminal domain-containing protein&lt;br&gt;Location: 1869858 - 1870646" locus_tag="JJ691_RS08210" class="clusterblast-orf" id="dummy-2_h2_9_23"  />
</g>
<g id="a2_0024"  >
<polygon points="661,85 666,80 681,80 681,90 666,90 661,85 " style="fill:white; stroke-width:1; stroke:black; " description="&lt;b&gt;JJ691_RS08215&lt;/b&gt;&lt;br&gt;helix-turn-helix domain-containing protein&lt;br&gt;Location: 1870657 - 1871466" locus_tag="JJ691_RS08215" class="clusterblast-orf" id="dummy-2_h2_9_24"  />
</g>
<g id="a2_0025"  >
<polygon points="681,85 686,80 691,80 691,90 686,90 681,85 " style="fill:white; stroke-width:1; stroke:black; " description="&lt;b&gt;JJ691_RS08220&lt;/b&gt;&lt;br&gt;PPOX class F420-dependent oxidoreductase&lt;br&gt;Location: 1871486 - 1871884" locus_tag="JJ691_RS08220" class="clusterblast-orf" id="dummy-2_h2_9_25"  />
</g>
<g id="a2_0026"  >
<polygon points="698,90 702,90 707,85 702,80 698,80 698,90 " style="fill:white; stroke-width:1; stroke:black; " description="&lt;b&gt;JJ691_RS08225&lt;/b&gt;&lt;br&gt;NAD(P)/FAD-dependent oxidoreductase&lt;br&gt;Location: 1872201 - 1872563" locus_tag="JJ691_RS08225" class="clusterblast-orf" id="dummy-2_h2_9_26"  />
</g>
<g id="a2_0027"  >
<polygon points="707,90 713,90 718,85 713,80 707,80 707,90 " style="fill:white; stroke-width:1; stroke:black; " description="&lt;b&gt;JJ691_RS08230&lt;/b&gt;&lt;br&gt;hypothetical protein&lt;br&gt;Location: 1872565 - 1872993" locus_tag="JJ691_RS08230" class="clusterblast-orf" id="dummy-2_h2_9_27"  />
</g>
<g id="a2_0028"  >
<polygon points="720,85 725,80 745,80 745,90 725,90 720,85 " style="fill:white; stroke-width:1; stroke:black; " description="&lt;b&gt;JJ691_RS08235&lt;/b&gt;&lt;br&gt;MASE1 domain-containing protein&lt;br&gt;Location: 1873114 - 1874148" locus_tag="JJ691_RS08235" class="clusterblast-orf" id="dummy-2_h2_9_28"  />
</g>
<g id="a2_0029"  >
<polygon points="757,90 775,90 780,85 775,80 757,80 757,90 " style="fill:white; stroke-width:1; stroke:black; " description="&lt;b&gt;JJ691_RS08240&lt;/b&gt;&lt;br&gt;alpha/beta hydrolase&lt;br&gt;Location: 1874648 - 1875565" locus_tag="JJ691_RS08240" class="clusterblast-orf" id="dummy-2_h2_9_29"  />
</g>
</svg>
