<svg xmlns="http://www.w3.org/2000/svg" xmlns:xlink="http://www.w3.org/1999/xlink" version="1.1" x="0" y="0" height="230" width="800" viewBox="0 0 800 230" preserveAspectRatio="none"  >
<g label="Query sequence" class="clusterblast-cluster"  >
<text x="5" y="20" class="clusterblast-acc"  >
Query sequence</text>
<line x1="10" y1="35" x2="778.0" y2="35" style="stroke-width:1; stroke:grey; "  />
<polygon points="144,40 178,40 183,35 178,30 144,30 144,40 " style="fill:white; stroke-width:1; stroke:black; " description="&lt;b&gt;input.path1.gene338&lt;/b&gt;&lt;br&gt;input.path1.gene338&lt;br&gt;Location: 1298278 - 1301532" locus_tag="input.path1.gene338" class="clusterblast-orf" id="dummy-2_q0_0_all"  />
<polygon points="188,35 193,30 196,30 196,40 193,40 188,35 " style="fill:white; stroke-width:1; stroke:black; " description="&lt;b&gt;input.path1.gene339&lt;/b&gt;&lt;br&gt;input.path1.gene339&lt;br&gt;Location: 1301923 - 1302575" locus_tag="input.path1.gene339" class="clusterblast-orf" id="dummy-2_q1_0_all"  />
<polygon points="216,40 223,40 228,35 223,30 216,30 216,40 " style="fill:white; stroke-width:1; stroke:black; " description="&lt;b&gt;input.path1.gene340&lt;/b&gt;&lt;br&gt;input.path1.gene340&lt;br&gt;Location: 1304235 - 1305229" locus_tag="input.path1.gene340" class="clusterblast-orf" id="dummy-2_q2_0_all"  />
<polygon points="236,40 246,40 251,35 246,30 236,30 236,40 " style="fill:white; stroke-width:1; stroke:black; " description="&lt;b&gt;input.path1.gene341&lt;/b&gt;&lt;br&gt;input.path1.gene341&lt;br&gt;Location: 1305853 - 1307098" locus_tag="input.path1.gene341" class="clusterblast-orf" id="dummy-2_q3_0_all"  />
<polygon points="284,35 289,30 334,30 334,40 289,40 284,35 " style="fill:#d81515; stroke-width:1; stroke:black; " description="&lt;b&gt;input.path1.gene342&lt;/b&gt;&lt;br&gt;input.path1.gene342&lt;br&gt;Location: 1309806 - 1313913" locus_tag="input.path1.gene342" class="clusterblast-orf" id="dummy-2_q4_0_all"  />
<polygon points="346,35 351,30 432,30 432,40 351,40 346,35 " style="fill:#15d815; stroke-width:1; stroke:black; " description="&lt;b&gt;input.path1.gene343&lt;/b&gt;&lt;br&gt;input.path1.gene343&lt;br&gt;Location: 1314953 - 1322054" locus_tag="input.path1.gene343" class="clusterblast-orf" id="dummy-2_q5_0_all"  />
<polygon points="446,35 451,30 451,30 451,40 451,40 446,35 " style="fill:white; stroke-width:1; stroke:black; " description="&lt;b&gt;input.path1.gene344&lt;/b&gt;&lt;br&gt;input.path1.gene344&lt;br&gt;Location: 1323189 - 1323608" locus_tag="input.path1.gene344" class="clusterblast-orf" id="dummy-2_q6_0_all"  />
<polygon points="497,40 510,40 515,35 510,30 497,30 497,40 " style="fill:white; stroke-width:1; stroke:black; " description="&lt;b&gt;input.path1.gene345&lt;/b&gt;&lt;br&gt;input.path1.gene345&lt;br&gt;Location: 1327425 - 1328913" locus_tag="input.path1.gene345" class="clusterblast-orf" id="dummy-2_q7_0_all"  />
<polygon points="522,35 527,30 540,30 540,40 527,40 522,35 " style="fill:#1515d8; stroke-width:1; stroke:black; " description="&lt;b&gt;input.path1.gene346&lt;/b&gt;&lt;br&gt;input.path1.gene346&lt;br&gt;Location: 1329426 - 1330918" locus_tag="input.path1.gene346" class="clusterblast-orf" id="dummy-2_q8_0_all"  />
<polygon points="544,35 546,30 546,40 544,35 " style="fill:white; stroke-width:1; stroke:black; " description="&lt;b&gt;input.path1.gene347&lt;/b&gt;&lt;br&gt;input.path1.gene347&lt;br&gt;Location: 1331288 - 1331437" locus_tag="input.path1.gene347" class="clusterblast-orf" id="dummy-2_q9_0_all"  />
<polygon points="552,40 574,40 579,35 574,30 552,30 552,40 " style="fill:#d815d8; stroke-width:1; stroke:black; " description="&lt;b&gt;input.path1.gene348&lt;/b&gt;&lt;br&gt;input.path1.gene348&lt;br&gt;Location: 1331900 - 1334112" locus_tag="input.path1.gene348" class="clusterblast-orf" id="dummy-2_q10_0_all"  />
<polygon points="583,35 588,30 591,30 591,40 588,40 583,35 " style="fill:#d8d815; stroke-width:1; stroke:black; " description="&lt;b&gt;input.path1.gene349&lt;/b&gt;&lt;br&gt;input.path1.gene349&lt;br&gt;Location: 1334443 - 1335161" locus_tag="input.path1.gene349" class="clusterblast-orf" id="dummy-2_q11_0_all"  />
<polygon points="598,40 606,40 611,35 606,30 598,30 598,40 " style="fill:#15d8d8; stroke-width:1; stroke:black; " description="&lt;b&gt;input.path1.gene350&lt;/b&gt;&lt;br&gt;input.path1.gene350&lt;br&gt;Location: 1335725 - 1336782" locus_tag="input.path1.gene350" class="clusterblast-orf" id="dummy-2_q12_0_all"  />
<polygon points="628,40 630,40 635,35 630,30 628,30 628,40 " style="fill:white; stroke-width:1; stroke:black; " description="&lt;b&gt;input.path1.gene351&lt;/b&gt;&lt;br&gt;input.path1.gene351&lt;br&gt;Location: 1338220 - 1338789" locus_tag="input.path1.gene351" class="clusterblast-orf" id="dummy-2_q13_0_all"  />
</g>
<g label="NW_025091287" description="NW_025091287 (1795699-1862693): Aspergillus pseudoviridinutans IFM 55266 DNA,... (14% of genes show similarity), T1PKS" class="clusterblast-cluster"  >
<text x="5" y="70" class="clusterblast-acc"  >
<a xlink:href="https://antismash-db.secondarymetabolites.org/area?record=NW_025091287&amp;start=1795699&amp;end=1862693" target="_blank">NW_025091287 (1795699-1862693)</a>: Aspergillus pseudoviridinutans IFM 55266 DNA,... (14% of genes show similarity), T1PKS</text>
<line x1="10" y1="85" x2="778.0" y2="85" style="stroke-width:1; stroke:grey; "  />
</g>
<g id="a2_000"  >
<polygon points="0,90 3,85 0,80 0,90 " style="fill:white; stroke-width:1; stroke:black; " description="&lt;b&gt;Asppvi_009937&lt;/b&gt;&lt;br&gt;uncharacterized protein&lt;br&gt;Location: 1797417 - 1797680" locus_tag="Asppvi_009937" class="clusterblast-orf" id="dummy-2_h2_3_0"  />
</g>
<g id="a2_001"  >
<polygon points="7,85 12,80 26,80 26,90 12,90 7,85 " style="fill:white; stroke-width:1; stroke:black; " description="&lt;b&gt;Asppvi_009938&lt;/b&gt;&lt;br&gt;uncharacterized protein&lt;br&gt;Location: 1798048 - 1799573" locus_tag="Asppvi_009938" class="clusterblast-orf" id="dummy-2_h2_3_1"  />
</g>
<g id="a2_002"  >
<polygon points="52,85 57,80 65,80 65,90 57,90 52,85 " style="fill:white; stroke-width:1; stroke:black; " description="&lt;b&gt;Asppvi_009939&lt;/b&gt;&lt;br&gt;uncharacterized protein&lt;br&gt;Location: 1801767 - 1802858" locus_tag="Asppvi_009939" class="clusterblast-orf" id="dummy-2_h2_3_2"  />
</g>
<g id="a2_003"  >
<polygon points="82,90 87,90 92,85 87,80 82,80 82,90 " style="fill:white; stroke-width:1; stroke:black; " description="&lt;b&gt;Asppvi_009940&lt;/b&gt;&lt;br&gt;uncharacterized protein&lt;br&gt;Location: 1804195 - 1805055" locus_tag="Asppvi_009940" class="clusterblast-orf" id="dummy-2_h2_3_3"  />
</g>
<g id="a2_004"  >
<polygon points="114,85 119,80 126,80 126,90 119,90 114,85 " style="fill:white; stroke-width:1; stroke:black; " description="&lt;b&gt;Asppvi_009941&lt;/b&gt;&lt;br&gt;uncharacterized protein&lt;br&gt;Location: 1806862 - 1807854" locus_tag="Asppvi_009941" class="clusterblast-orf" id="dummy-2_h2_3_4"  />
</g>
<g id="a2_005"  >
<polygon points="154,90 164,90 169,85 164,80 154,80 154,90 " style="fill:white; stroke-width:1; stroke:black; " description="&lt;b&gt;Asppvi_009942&lt;/b&gt;&lt;br&gt;uncharacterized protein&lt;br&gt;Location: 1810116 - 1811414" locus_tag="Asppvi_009942" class="clusterblast-orf" id="dummy-2_h2_3_5"  />
</g>
<g id="a2_006"  >
<polygon points="174,85 179,80 196,80 196,90 179,90 174,85 " style="fill:#1515d8; stroke-width:1; stroke:black; " description="&lt;b&gt;Asppvi_009943&lt;/b&gt;&lt;br&gt;uncharacterized protein&lt;br&gt;Location: 1811818 - 1813584&lt;br&gt;&lt;br&gt;&lt;b&gt;BlastP hit with input.path1.gene346&lt;/b&gt;&lt;br&gt;Percentage identity: 47&lt;br&gt;Percentage coverage: 100&lt;br&gt;BLAST bit score: 372&lt;br&gt;E-value: 3.51e-124" locus_tag="Asppvi_009943" class="clusterblast-orf" id="dummy-2_h2_3_6"  />
</g>
<g id="a2_007"  >
<polygon points="203,90 211,90 216,85 211,80 203,80 203,90 " style="fill:#15d8d8; stroke-width:1; stroke:black; " description="&lt;b&gt;Asppvi_009944&lt;/b&gt;&lt;br&gt;uncharacterized protein&lt;br&gt;Location: 1814159 - 1815286&lt;br&gt;&lt;br&gt;&lt;b&gt;BlastP hit with input.path1.gene350&lt;/b&gt;&lt;br&gt;Percentage identity: 40&lt;br&gt;Percentage coverage: 89&lt;br&gt;BLAST bit score: 189&lt;br&gt;E-value: 4.99e-56" locus_tag="Asppvi_009944" class="clusterblast-orf" id="dummy-2_h2_3_7"  />
</g>
<g id="a2_008"  >
<polygon points="226,85 231,80 244,80 244,90 231,90 226,85 " style="fill:white; stroke-width:1; stroke:black; " description="&lt;b&gt;Asppvi_009945&lt;/b&gt;&lt;br&gt;uncharacterized protein&lt;br&gt;Location: 1816070 - 1817576" locus_tag="Asppvi_009945" class="clusterblast-orf" id="dummy-2_h2_3_8"  />
</g>
<g id="a2_009"  >
<polygon points="267,90 278,90 283,85 278,80 267,80 267,90 " style="fill:white; stroke-width:1; stroke:black; " description="&lt;b&gt;Asppvi_009946&lt;/b&gt;&lt;br&gt;uncharacterized protein&lt;br&gt;Location: 1819464 - 1820823" locus_tag="Asppvi_009946" class="clusterblast-orf" id="dummy-2_h2_3_9"  />
</g>
<g id="a2_0010"  >
<polygon points="316,90 328,90 333,85 328,80 316,80 316,90 " style="fill:white; stroke-width:1; stroke:black; " description="&lt;b&gt;Asppvi_009947&lt;/b&gt;&lt;br&gt;uncharacterized protein&lt;br&gt;Location: 1823492 - 1824886" locus_tag="Asppvi_009947" class="clusterblast-orf" id="dummy-2_h2_3_10"  />
</g>
<g id="a2_0011"  >
<polygon points="342,85 347,80 427,80 427,90 347,90 342,85 " style="fill:#15d815; stroke-width:1; stroke:black; " description="&lt;b&gt;Asppvi_009948&lt;/b&gt;&lt;br&gt;type I iterative polyketide synthase&lt;br&gt;Location: 1825700 - 1832693&lt;br&gt;&lt;br&gt;&lt;b&gt;BlastP hit with input.path1.gene343&lt;/b&gt;&lt;br&gt;Percentage identity: 45&lt;br&gt;Percentage coverage: 98&lt;br&gt;BLAST bit score: 1362&lt;br&gt;E-value: 0.0" locus_tag="Asppvi_009948" class="clusterblast-orf" id="dummy-2_h2_3_11"  />
</g>
<g id="a2_0012"  >
<polygon points="454,85 459,80 482,80 482,90 459,90 454,85 " style="fill:white; stroke-width:1; stroke:black; " description="&lt;b&gt;Asppvi_009949&lt;/b&gt;&lt;br&gt;uncharacterized protein&lt;br&gt;Location: 1834894 - 1837163" locus_tag="Asppvi_009949" class="clusterblast-orf" id="dummy-2_h2_3_12"  />
</g>
<g id="a2_0013"  >
<polygon points="529,90 542,90 547,85 542,80 529,80 529,90 " style="fill:white; stroke-width:1; stroke:black; " description="&lt;b&gt;Asppvi_009950&lt;/b&gt;&lt;br&gt;uncharacterized protein&lt;br&gt;Location: 1841093 - 1842536" locus_tag="Asppvi_009950" class="clusterblast-orf" id="dummy-2_h2_3_13"  />
</g>
<g id="a2_0014"  >
<polygon points="574,90 581,90 586,85 581,80 574,80 574,90 " style="fill:white; stroke-width:1; stroke:black; " description="&lt;b&gt;Asppvi_009951&lt;/b&gt;&lt;br&gt;uncharacterized protein&lt;br&gt;Location: 1844824 - 1845738" locus_tag="Asppvi_009951" class="clusterblast-orf" id="dummy-2_h2_3_14"  />
</g>
<g id="a2_0015"  >
<polygon points="637,90 647,90 652,85 647,80 637,80 637,90 " style="fill:white; stroke-width:1; stroke:black; " description="&lt;b&gt;Asppvi_009952&lt;/b&gt;&lt;br&gt;uncharacterized protein&lt;br&gt;Location: 1849984 - 1851231" locus_tag="Asppvi_009952" class="clusterblast-orf" id="dummy-2_h2_3_15"  />
</g>
<g id="a2_0016"  >
<polygon points="670,90 674,90 679,85 674,80 670,80 670,90 " style="fill:white; stroke-width:1; stroke:black; " description="&lt;b&gt;Asppvi_009953&lt;/b&gt;&lt;br&gt;uncharacterized protein&lt;br&gt;Location: 1852717 - 1853460" locus_tag="Asppvi_009953" class="clusterblast-orf" id="dummy-2_h2_3_16"  />
</g>
<g id="a2_0017"  >
<polygon points="682,85 687,80 691,80 691,90 687,90 682,85 " style="fill:white; stroke-width:1; stroke:black; " description="&lt;b&gt;Asppvi_009954&lt;/b&gt;&lt;br&gt;uncharacterized protein&lt;br&gt;Location: 1853655 - 1854399" locus_tag="Asppvi_009954" class="clusterblast-orf" id="dummy-2_h2_3_17"  />
</g>
<g id="a2_0018"  >
<polygon points="717,85 722,80 728,80 728,90 722,90 717,85 " style="fill:white; stroke-width:1; stroke:black; " description="&lt;b&gt;Asppvi_009955&lt;/b&gt;&lt;br&gt;uncharacterized protein&lt;br&gt;Location: 1856541 - 1857521" locus_tag="Asppvi_009955" class="clusterblast-orf" id="dummy-2_h2_3_18"  />
</g>
<g id="a2_0019"  >
<polygon points="749,90 754,90 759,85 754,80 749,80 749,90 " style="fill:white; stroke-width:1; stroke:black; " description="&lt;b&gt;Asppvi_009956&lt;/b&gt;&lt;br&gt;uncharacterized protein&lt;br&gt;Location: 1859233 - 1860083" locus_tag="Asppvi_009956" class="clusterblast-orf" id="dummy-2_h2_3_19"  />
</g>
<g id="a2_0020"  >
<polygon points="763,85 768,80 780,80 780,90 768,90 763,85 " style="fill:white; stroke-width:1; stroke:black; " description="&lt;b&gt;Asppvi_009957&lt;/b&gt;&lt;br&gt;uncharacterized protein&lt;br&gt;Location: 1860398 - 1861735" locus_tag="Asppvi_009957" class="clusterblast-orf" id="dummy-2_h2_3_20"  />
</g>
</svg>
