<svg xmlns="http://www.w3.org/2000/svg" xmlns:xlink="http://www.w3.org/1999/xlink" version="1.1" x="0" y="0" height="230" width="800" viewBox="0 0 800 230" preserveAspectRatio="none"  >
<g label="Query sequence" class="clusterblast-cluster"  >
<text x="5" y="20" class="clusterblast-acc"  >
Query sequence</text>
<line x1="10" y1="35" x2="778.0" y2="35" style="stroke-width:1; stroke:grey; "  />
<polygon points="120,40 122,40 127,35 122,30 120,30 120,40 " style="fill:white; stroke-width:1; stroke:black; " description="&lt;b&gt;input.path1.gene1614&lt;/b&gt;&lt;br&gt;input.path1.gene1614&lt;br&gt;Location: 6141157 - 6142032" locus_tag="input.path1.gene1614" class="clusterblast-orf" id="dummy-7_q0_0_all"  />
<polygon points="167,35 172,30 174,30 174,40 172,40 167,35 " style="fill:white; stroke-width:1; stroke:black; " description="&lt;b&gt;input.path1.gene1615&lt;/b&gt;&lt;br&gt;input.path1.gene1615&lt;br&gt;Location: 6146549 - 6147380" locus_tag="input.path1.gene1615" class="clusterblast-orf" id="dummy-7_q1_0_all"  />
<polygon points="193,40 221,40 226,35 221,30 193,30 193,40 " style="fill:#d81515; stroke-width:1; stroke:black; " description="&lt;b&gt;input.path1.gene1616&lt;/b&gt;&lt;br&gt;input.path1.gene1616&lt;br&gt;Location: 6149473 - 6153296" locus_tag="input.path1.gene1616" class="clusterblast-orf" id="dummy-7_q2_0_all"  />
<polygon points="226,35 231,30 241,30 241,40 231,40 226,35 " style="fill:white; stroke-width:1; stroke:black; " description="&lt;b&gt;input.path1.gene1617&lt;/b&gt;&lt;br&gt;input.path1.gene1617&lt;br&gt;Location: 6153362 - 6155021" locus_tag="input.path1.gene1617" class="clusterblast-orf" id="dummy-7_q3_0_all"  />
<polygon points="243,40 253,40 258,35 253,30 243,30 243,40 " style="fill:#15d863; stroke-width:1; stroke:black; " description="&lt;b&gt;input.path1.gene1618&lt;/b&gt;&lt;br&gt;input.path1.gene1618&lt;br&gt;Location: 6155252 - 6156993" locus_tag="input.path1.gene1618" class="clusterblast-orf" id="dummy-7_q4_0_all"  />
<polygon points="343,35 348,30 349,30 349,40 348,40 343,35 " style="fill:white; stroke-width:1; stroke:black; " description="&lt;b&gt;input.path1.gene1619&lt;/b&gt;&lt;br&gt;input.path1.gene1619&lt;br&gt;Location: 6166659 - 6167391" locus_tag="input.path1.gene1619" class="clusterblast-orf" id="dummy-7_q5_0_all"  />
<polygon points="351,40 354,35 351,30 351,40 " style="fill:white; stroke-width:1; stroke:black; " description="&lt;b&gt;input.path1.gene1620&lt;/b&gt;&lt;br&gt;input.path1.gene1620&lt;br&gt;Location: 6167591 - 6167910" locus_tag="input.path1.gene1620" class="clusterblast-orf" id="dummy-7_q6_0_all"  />
<polygon points="364,40 404,40 409,35 404,30 364,30 364,40 " style="fill:#1563d8; stroke-width:1; stroke:black; " description="&lt;b&gt;input.path1.gene1621&lt;/b&gt;&lt;br&gt;input.path1.gene1621&lt;br&gt;Location: 6169050 - 6174235" locus_tag="input.path1.gene1621" class="clusterblast-orf" id="dummy-7_q7_0_all"  />
<polygon points="441,40 456,40 461,35 456,30 441,30 441,40 " style="fill:#b115d8; stroke-width:1; stroke:black; " description="&lt;b&gt;input.path1.gene1622&lt;/b&gt;&lt;br&gt;input.path1.gene1622&lt;br&gt;Location: 6177897 - 6180145" locus_tag="input.path1.gene1622" class="clusterblast-orf" id="dummy-7_q8_0_all"  />
<polygon points="490,40 490,40 495,35 490,30 490,30 490,40 " style="fill:white; stroke-width:1; stroke:black; " description="&lt;b&gt;input.path1.gene1623&lt;/b&gt;&lt;br&gt;input.path1.gene1623&lt;br&gt;Location: 6183551 - 6184088" locus_tag="input.path1.gene1623" class="clusterblast-orf" id="dummy-7_q9_0_all"  />
<polygon points="501,35 504,30 504,40 501,35 " style="fill:white; stroke-width:1; stroke:black; " description="&lt;b&gt;input.path1.gene1624&lt;/b&gt;&lt;br&gt;input.path1.gene1624&lt;br&gt;Location: 6184782 - 6185124" locus_tag="input.path1.gene1624" class="clusterblast-orf" id="dummy-7_q10_0_all"  />
<polygon points="522,40 531,40 536,35 531,30 522,30 522,40 " style="fill:white; stroke-width:1; stroke:black; " description="&lt;b&gt;input.path1.gene1625&lt;/b&gt;&lt;br&gt;input.path1.gene1625&lt;br&gt;Location: 6187146 - 6188787" locus_tag="input.path1.gene1625" class="clusterblast-orf" id="dummy-7_q11_0_all"  />
<polygon points="562,40 580,40 585,35 580,30 562,30 562,40 " style="fill:white; stroke-width:1; stroke:black; " description="&lt;b&gt;input.path1.gene1626&lt;/b&gt;&lt;br&gt;input.path1.gene1626&lt;br&gt;Location: 6191783 - 6194368" locus_tag="input.path1.gene1626" class="clusterblast-orf" id="dummy-7_q12_0_all"  />
<polygon points="602,40 611,40 616,35 611,30 602,30 602,40 " style="fill:#b1d815; stroke-width:1; stroke:black; " description="&lt;b&gt;input.path1.gene1627&lt;/b&gt;&lt;br&gt;input.path1.gene1627&lt;br&gt;Location: 6196365 - 6197941" locus_tag="input.path1.gene1627" class="clusterblast-orf" id="dummy-7_q13_0_all"  />
<polygon points="630,40 632,40 637,35 632,30 630,30 630,40 " style="fill:#b1d815; stroke-width:1; stroke:black; " description="&lt;b&gt;input.path1.gene1628&lt;/b&gt;&lt;br&gt;input.path1.gene1628&lt;br&gt;Location: 6199528 - 6200313" locus_tag="input.path1.gene1628" class="clusterblast-orf" id="dummy-7_q14_0_all"  />
<polygon points="646,40 654,40 659,35 654,30 646,30 646,40 " style="fill:white; stroke-width:1; stroke:black; " description="&lt;b&gt;input.path1.gene1629&lt;/b&gt;&lt;br&gt;input.path1.gene1629&lt;br&gt;Location: 6201320 - 6202897" locus_tag="input.path1.gene1629" class="clusterblast-orf" id="dummy-7_q15_0_all"  />
</g>
<g label="NW_020291483" description="NW_020291483 (499510-590382): Aspergillus aculeatinus CBS 121060 unplaced gen... (5% of genes show similarity), fungal-RiPP-like" class="clusterblast-cluster"  >
<text x="5" y="70" class="clusterblast-acc"  >
<a xlink:href="https://antismash-db.secondarymetabolites.org/area?record=NW_020291483&amp;start=499510&amp;end=590382" target="_blank">NW_020291483 (499510-590382)</a>: Aspergillus aculeatinus CBS 121060 unplaced gen... (5% of genes show similarity), fungal-RiPP-like</text>
<line x1="10" y1="85" x2="778.0" y2="85" style="stroke-width:1; stroke:grey; "  />
</g>
<g id="a7_000"  >
<polygon points="0,90 1,90 6,85 1,80 0,80 0,90 " style="fill:white; stroke-width:1; stroke:black; " description="&lt;b&gt;BO66DRAFT_390479&lt;/b&gt;&lt;br&gt;L-PSP endoribonuclease family protein Brt1&lt;br&gt;Location: 500601 - 501296" locus_tag="BO66DRAFT_390479" class="clusterblast-orf" id="dummy-7_h7_1_0"  />
</g>
<g id="a7_001"  >
<polygon points="10,85 12,80 12,90 10,85 " style="fill:white; stroke-width:1; stroke:black; " description="&lt;b&gt;BO66DRAFT_390480&lt;/b&gt;&lt;br&gt;hypothetical protein&lt;br&gt;Location: 501826 - 502035" locus_tag="BO66DRAFT_390480" class="clusterblast-orf" id="dummy-7_h7_1_1"  />
</g>
<g id="a7_002"  >
<polygon points="13,85 16,80 16,90 13,85 " style="fill:white; stroke-width:1; stroke:black; " description="&lt;b&gt;BO66DRAFT_44737&lt;/b&gt;&lt;br&gt;hypothetical protein&lt;br&gt;Location: 502159 - 502539" locus_tag="BO66DRAFT_44737" class="clusterblast-orf" id="dummy-7_h7_1_2"  />
</g>
<g id="a7_003"  >
<polygon points="18,90 20,85 18,80 18,90 " style="fill:white; stroke-width:1; stroke:black; " description="&lt;b&gt;BO66DRAFT_390481&lt;/b&gt;&lt;br&gt;hypothetical protein&lt;br&gt;Location: 502740 - 502952" locus_tag="BO66DRAFT_390481" class="clusterblast-orf" id="dummy-7_h7_1_3"  />
</g>
<g id="a7_004"  >
<polygon points="47,90 49,90 54,85 49,80 47,80 47,90 " style="fill:white; stroke-width:1; stroke:black; " description="&lt;b&gt;BO66DRAFT_419272&lt;/b&gt;&lt;br&gt;hypothetical protein&lt;br&gt;Location: 506000 - 506863" locus_tag="BO66DRAFT_419272" class="clusterblast-orf" id="dummy-7_h7_1_4"  />
</g>
<g id="a7_005"  >
<polygon points="57,90 86,90 91,85 86,80 57,80 57,90 " style="fill:white; stroke-width:1; stroke:black; " description="&lt;b&gt;BO66DRAFT_410085&lt;/b&gt;&lt;br&gt;hypothetical protein&lt;br&gt;Location: 507168 - 511055" locus_tag="BO66DRAFT_410085" class="clusterblast-orf" id="dummy-7_h7_1_5"  />
</g>
<g id="a7_006"  >
<polygon points="93,90 95,85 93,80 93,90 " style="fill:white; stroke-width:1; stroke:black; " description="&lt;b&gt;BO66DRAFT_44764&lt;/b&gt;&lt;br&gt;hypothetical protein&lt;br&gt;Location: 511255 - 511491" locus_tag="BO66DRAFT_44764" class="clusterblast-orf" id="dummy-7_h7_1_6"  />
</g>
<g id="a7_007"  >
<polygon points="101,90 117,90 122,85 117,80 101,80 101,90 " style="fill:white; stroke-width:1; stroke:black; " description="&lt;b&gt;BO66DRAFT_470071&lt;/b&gt;&lt;br&gt;alpha/beta-hydrolase&lt;br&gt;Location: 512230 - 514650" locus_tag="BO66DRAFT_470071" class="clusterblast-orf" id="dummy-7_h7_1_7"  />
</g>
<g id="a7_008"  >
<polygon points="126,85 131,80 134,80 134,90 131,90 126,85 " style="fill:white; stroke-width:1; stroke:black; " description="&lt;b&gt;BO66DRAFT_390485&lt;/b&gt;&lt;br&gt;peptidyl-prolyl cis-trans isomerase&lt;br&gt;Location: 515064 - 515978" locus_tag="BO66DRAFT_390485" class="clusterblast-orf" id="dummy-7_h7_1_8"  />
</g>
<g id="a7_009"  >
<polygon points="142,85 147,80 152,80 152,90 147,90 142,85 " style="fill:white; stroke-width:1; stroke:black; " description="&lt;b&gt;BO66DRAFT_318594&lt;/b&gt;&lt;br&gt;histidinol-phosphatase&lt;br&gt;Location: 516927 - 518062" locus_tag="BO66DRAFT_318594" class="clusterblast-orf" id="dummy-7_h7_1_9"  />
</g>
<g id="a7_0010"  >
<polygon points="159,85 164,80 164,80 164,90 164,90 159,85 " style="fill:white; stroke-width:1; stroke:black; " description="&lt;b&gt;BO66DRAFT_447750&lt;/b&gt;&lt;br&gt;hypothetical protein&lt;br&gt;Location: 518838 - 519383" locus_tag="BO66DRAFT_447750" class="clusterblast-orf" id="dummy-7_h7_1_10"  />
</g>
<g id="a7_0011"  >
<polygon points="169,85 174,80 175,80 175,90 174,90 169,85 " style="fill:white; stroke-width:1; stroke:black; " description="&lt;b&gt;BO66DRAFT_470075&lt;/b&gt;&lt;br&gt;hypothetical protein&lt;br&gt;Location: 519996 - 520629" locus_tag="BO66DRAFT_470075" class="clusterblast-orf" id="dummy-7_h7_1_11"  />
</g>
<g id="a7_0012"  >
<polygon points="183,90 190,90 195,85 190,80 183,80 183,90 " style="fill:white; stroke-width:1; stroke:black; " description="&lt;b&gt;BO66DRAFT_318683&lt;/b&gt;&lt;br&gt;hypothetical protein&lt;br&gt;Location: 521605 - 522925" locus_tag="BO66DRAFT_318683" class="clusterblast-orf" id="dummy-7_h7_1_12"  />
</g>
<g id="a7_0013"  >
<polygon points="203,85 208,80 221,80 221,90 208,90 203,85 " style="fill:white; stroke-width:1; stroke:black; " description="&lt;b&gt;BO66DRAFT_436868&lt;/b&gt;&lt;br&gt;hypothetical protein&lt;br&gt;Location: 523940 - 525911" locus_tag="BO66DRAFT_436868" class="clusterblast-orf" id="dummy-7_h7_1_13"  />
</g>
<g id="a7_0014"  >
<polygon points="227,90 230,85 227,80 227,90 " style="fill:white; stroke-width:1; stroke:black; " description="&lt;b&gt;BO66DRAFT_44949&lt;/b&gt;&lt;br&gt;hypothetical protein&lt;br&gt;Location: 526596 - 526961" locus_tag="BO66DRAFT_44949" class="clusterblast-orf" id="dummy-7_h7_1_14"  />
</g>
<g id="a7_0015"  >
<polygon points="230,85 235,80 242,80 242,90 235,90 230,85 " style="fill:white; stroke-width:1; stroke:black; " description="&lt;b&gt;BO66DRAFT_470078&lt;/b&gt;&lt;br&gt;AAA-domain-containing protein&lt;br&gt;Location: 527024 - 528320" locus_tag="BO66DRAFT_470078" class="clusterblast-orf" id="dummy-7_h7_1_15"  />
</g>
<g id="a7_0016"  >
<polygon points="247,90 270,90 275,85 270,80 247,80 247,90 " style="fill:#1563d8; stroke-width:1; stroke:black; " description="&lt;b&gt;BO66DRAFT_346193&lt;/b&gt;&lt;br&gt;GPI ethanolamine phosphate transferase 1&lt;br&gt;Location: 528926 - 532147&lt;br&gt;&lt;br&gt;&lt;b&gt;BlastP hit with input.path1.gene1621&lt;/b&gt;&lt;br&gt;Percentage identity: 60&lt;br&gt;Percentage coverage: 80&lt;br&gt;BLAST bit score: 1060&lt;br&gt;E-value: 0.0" locus_tag="BO66DRAFT_346193" class="clusterblast-orf" id="dummy-7_h7_1_16"  />
</g>
<g id="a7_0017"  >
<polygon points="305,90 327,90 332,85 327,80 305,80 305,90 " style="fill:#b115d8; stroke-width:1; stroke:black; " description="&lt;b&gt;BO66DRAFT_390492&lt;/b&gt;&lt;br&gt;fungal-specific transcription factor domain protein&lt;br&gt;Location: 535616 - 538640&lt;br&gt;&lt;br&gt;&lt;b&gt;BlastP hit with input.path1.gene1622&lt;/b&gt;&lt;br&gt;Percentage identity: 71&lt;br&gt;Percentage coverage: 89&lt;br&gt;BLAST bit score: 564&lt;br&gt;E-value: 8.36e-193" locus_tag="BO66DRAFT_390492" class="clusterblast-orf" id="dummy-7_h7_1_17"  />
</g>
<g id="a7_0018"  >
<polygon points="338,90 346,90 351,85 346,80 338,80 338,90 " style="fill:white; stroke-width:1; stroke:black; " description="&lt;b&gt;BO66DRAFT_390493&lt;/b&gt;&lt;br&gt;cystathionine beta-lyase MetG&lt;br&gt;Location: 539376 - 540836" locus_tag="BO66DRAFT_390493" class="clusterblast-orf" id="dummy-7_h7_1_18"  />
</g>
<g id="a7_0019"  >
<polygon points="353,90 366,90 371,85 366,80 353,80 353,90 " style="fill:white; stroke-width:1; stroke:black; " description="&lt;b&gt;BO66DRAFT_419282&lt;/b&gt;&lt;br&gt;hypothetical protein&lt;br&gt;Location: 541046 - 543092" locus_tag="BO66DRAFT_419282" class="clusterblast-orf" id="dummy-7_h7_1_19"  />
</g>
<g id="a7_0020"  >
<polygon points="379,90 382,85 379,80 379,90 " style="fill:white; stroke-width:1; stroke:black; " description="&lt;b&gt;BO66DRAFT_390495&lt;/b&gt;&lt;br&gt;hypothetical protein&lt;br&gt;Location: 544077 - 544333" locus_tag="BO66DRAFT_390495" class="clusterblast-orf" id="dummy-7_h7_1_20"  />
</g>
<g id="a7_0021"  >
<polygon points="383,85 388,80 391,80 391,90 388,90 383,85 " style="fill:white; stroke-width:1; stroke:black; " description="&lt;b&gt;BO66DRAFT_45067&lt;/b&gt;&lt;br&gt;hypothetical protein&lt;br&gt;Location: 544511 - 545382" locus_tag="BO66DRAFT_45067" class="clusterblast-orf" id="dummy-7_h7_1_21"  />
</g>
<g id="a7_0022"  >
<polygon points="396,85 401,80 408,80 408,90 401,90 396,85 " style="fill:white; stroke-width:1; stroke:black; " description="&lt;b&gt;BO66DRAFT_447785&lt;/b&gt;&lt;br&gt;hypothetical protein&lt;br&gt;Location: 546008 - 547302" locus_tag="BO66DRAFT_447785" class="clusterblast-orf" id="dummy-7_h7_1_22"  />
</g>
<g id="a7_0023"  >
<polygon points="411,90 421,90 426,85 421,80 411,80 411,90 " style="fill:white; stroke-width:1; stroke:black; " description="&lt;b&gt;BO66DRAFT_318693&lt;/b&gt;&lt;br&gt;cytochrome P450&lt;br&gt;Location: 547669 - 549421" locus_tag="BO66DRAFT_318693" class="clusterblast-orf" id="dummy-7_h7_1_23"  />
</g>
<g id="a7_0024"  >
<polygon points="434,85 439,80 443,80 443,90 439,90 434,85 " style="fill:white; stroke-width:1; stroke:black; " description="&lt;b&gt;BO66DRAFT_390496&lt;/b&gt;&lt;br&gt;hypothetical protein&lt;br&gt;Location: 550342 - 551338" locus_tag="BO66DRAFT_390496" class="clusterblast-orf" id="dummy-7_h7_1_24"  />
</g>
<g id="a7_0025"  >
<polygon points="449,85 454,80 470,80 470,90 454,90 449,85 " style="fill:white; stroke-width:1; stroke:black; " description="&lt;b&gt;BO66DRAFT_45096&lt;/b&gt;&lt;br&gt;hypothetical protein&lt;br&gt;Location: 552095 - 554447" locus_tag="BO66DRAFT_45096" class="clusterblast-orf" id="dummy-7_h7_1_25"  />
</g>
<g id="a7_0026"  >
<polygon points="477,85 482,80 491,80 491,90 482,90 477,85 " style="fill:white; stroke-width:1; stroke:black; " description="&lt;b&gt;BO66DRAFT_436878&lt;/b&gt;&lt;br&gt;tryptophan synthase beta subunit-like PLP-dependent enzyme&lt;br&gt;Location: 555212 - 556878" locus_tag="BO66DRAFT_436878" class="clusterblast-orf" id="dummy-7_h7_1_26"  />
</g>
<g id="a7_0027"  >
<polygon points="497,90 511,90 516,85 511,80 497,80 497,90 " style="fill:white; stroke-width:1; stroke:black; " description="&lt;b&gt;BO66DRAFT_346208&lt;/b&gt;&lt;br&gt;cephamycin export protein cmcT&lt;br&gt;Location: 557542 - 559710" locus_tag="BO66DRAFT_346208" class="clusterblast-orf" id="dummy-7_h7_1_27"  />
</g>
<g id="a7_0028"  >
<polygon points="523,85 528,80 543,80 543,90 528,90 523,85 " style="fill:white; stroke-width:1; stroke:black; " description="&lt;b&gt;BO66DRAFT_390498&lt;/b&gt;&lt;br&gt;hypothetical protein&lt;br&gt;Location: 560517 - 562844" locus_tag="BO66DRAFT_390498" class="clusterblast-orf" id="dummy-7_h7_1_28"  />
</g>
<g id="a7_0029"  >
<polygon points="546,85 551,80 574,80 574,90 551,90 546,85 " style="fill:white; stroke-width:1; stroke:black; " description="&lt;b&gt;BO66DRAFT_436882&lt;/b&gt;&lt;br&gt;peroxisomal hydratase-dehydrogenase-epimerase&lt;br&gt;Location: 563177 - 566302" locus_tag="BO66DRAFT_436882" class="clusterblast-orf" id="dummy-7_h7_1_29"  />
</g>
<g id="a7_0030"  >
<polygon points="589,85 594,80 598,80 598,90 594,90 589,85 " style="fill:white; stroke-width:1; stroke:black; " description="&lt;b&gt;BO66DRAFT_436883&lt;/b&gt;&lt;br&gt;60S ribosomal protein L7&lt;br&gt;Location: 568009 - 569135" locus_tag="BO66DRAFT_436883" class="clusterblast-orf" id="dummy-7_h7_1_30"  />
</g>
<g id="a7_0031"  >
<polygon points="607,90 610,90 615,85 610,80 607,80 607,90 " style="fill:white; stroke-width:1; stroke:black; " description="&lt;b&gt;BO66DRAFT_410104&lt;/b&gt;&lt;br&gt;RNA polymerase II transcription factor complex subunit&lt;br&gt;Location: 570118 - 570994" locus_tag="BO66DRAFT_410104" class="clusterblast-orf" id="dummy-7_h7_1_31"  />
</g>
<g id="a7_0032"  >
<polygon points="622,85 627,80 646,80 646,90 627,90 622,85 " style="fill:white; stroke-width:1; stroke:black; " description="&lt;b&gt;BO66DRAFT_390502&lt;/b&gt;&lt;br&gt;eukaryotic translation initiation factor 3 subunit EifCc&lt;br&gt;Location: 571820 - 574536" locus_tag="BO66DRAFT_390502" class="clusterblast-orf" id="dummy-7_h7_1_32"  />
</g>
<g id="a7_0033"  >
<polygon points="656,85 661,80 683,80 683,90 661,90 656,85 " style="fill:white; stroke-width:1; stroke:black; " description="&lt;b&gt;BO66DRAFT_45252&lt;/b&gt;&lt;br&gt;kinase-like protein&lt;br&gt;Location: 575755 - 578869" locus_tag="BO66DRAFT_45252" class="clusterblast-orf" id="dummy-7_h7_1_33"  />
</g>
<g id="a7_0034"  >
<polygon points="703,90 708,90 713,85 708,80 703,80 703,90 " style="fill:white; stroke-width:1; stroke:black; " description="&lt;b&gt;BO66DRAFT_45282&lt;/b&gt;&lt;br&gt;hypothetical protein&lt;br&gt;Location: 581106 - 582305" locus_tag="BO66DRAFT_45282" class="clusterblast-orf" id="dummy-7_h7_1_34"  />
</g>
<g id="a7_0035"  >
<polygon points="723,85 728,80 732,80 732,90 728,90 723,85 " style="fill:white; stroke-width:1; stroke:black; " description="&lt;b&gt;BO66DRAFT_390505&lt;/b&gt;&lt;br&gt;hypothetical protein&lt;br&gt;Location: 583427 - 584461" locus_tag="BO66DRAFT_390505" class="clusterblast-orf" id="dummy-7_h7_1_35"  />
</g>
<g id="a7_0036"  >
<polygon points="742,85 747,80 748,80 748,90 747,90 742,85 " style="fill:white; stroke-width:1; stroke:black; " description="&lt;b&gt;BO66DRAFT_390506&lt;/b&gt;&lt;br&gt;hypothetical protein&lt;br&gt;Location: 585626 - 586271" locus_tag="BO66DRAFT_390506" class="clusterblast-orf" id="dummy-7_h7_1_36"  />
</g>
<g id="a7_0037"  >
<polygon points="764,85 769,80 780,80 780,90 769,90 764,85 " style="fill:white; stroke-width:1; stroke:black; " description="&lt;b&gt;BO66DRAFT_45404&lt;/b&gt;&lt;br&gt;cytochrome P450&lt;br&gt;Location: 588138 - 589863" locus_tag="BO66DRAFT_45404" class="clusterblast-orf" id="dummy-7_h7_1_37"  />
</g>
</svg>
