<svg xmlns="http://www.w3.org/2000/svg" xmlns:xlink="http://www.w3.org/1999/xlink" version="1.1" x="0" y="0" height="230" width="800" viewBox="0 0 800 230" preserveAspectRatio="none"  >
<g label="Query sequence" class="clusterblast-cluster"  >
<text x="5" y="20" class="clusterblast-acc"  >
Query sequence</text>
<line x1="10" y1="35" x2="778.0" y2="35" style="stroke-width:1; stroke:grey; "  />
<polygon points="0,40 26,40 31,35 26,30 0,30 0,40 " style="fill:#d81515; stroke-width:1; stroke:black; " description="&lt;b&gt;input.path1.gene1311&lt;/b&gt;&lt;br&gt;input.path1.gene1311&lt;br&gt;Location: 4899292 - 4901879" locus_tag="input.path1.gene1311" class="clusterblast-orf" id="dummy-5_q0_0_all"  />
<polygon points="102,35 107,30 129,30 129,40 107,40 102,35 " style="fill:#33d815; stroke-width:1; stroke:black; " description="&lt;b&gt;input.path1.gene1312&lt;/b&gt;&lt;br&gt;input.path1.gene1312&lt;br&gt;Location: 4907753 - 4909965" locus_tag="input.path1.gene1312" class="clusterblast-orf" id="dummy-5_q1_0_all"  />
<polygon points="142,40 157,40 162,35 157,30 142,30 142,40 " style="fill:#15abd8; stroke-width:1; stroke:black; " description="&lt;b&gt;input.path1.gene1313&lt;/b&gt;&lt;br&gt;input.path1.gene1313&lt;br&gt;Location: 4911081 - 4912729" locus_tag="input.path1.gene1313" class="clusterblast-orf" id="dummy-5_q2_0_all"  />
<polygon points="183,35 188,30 202,30 202,40 188,40 183,35 " style="fill:#8d15d8; stroke-width:1; stroke:black; " description="&lt;b&gt;input.path1.gene1314&lt;/b&gt;&lt;br&gt;input.path1.gene1314&lt;br&gt;Location: 4914478 - 4915993" locus_tag="input.path1.gene1314" class="clusterblast-orf" id="dummy-5_q3_0_all"  />
<polygon points="214,40 217,40 222,35 217,30 214,30 214,40 " style="fill:#d86f15; stroke-width:1; stroke:black; " description="&lt;b&gt;input.path1.gene1315&lt;/b&gt;&lt;br&gt;input.path1.gene1315&lt;br&gt;Location: 4916971 - 4917637" locus_tag="input.path1.gene1315" class="clusterblast-orf" id="dummy-5_q4_0_all"  />
<polygon points="236,35 241,30 379,30 379,40 241,40 236,35 " style="fill:#15d851; stroke-width:1; stroke:black; " description="&lt;b&gt;input.path1.gene1316&lt;/b&gt;&lt;br&gt;input.path1.gene1316&lt;br&gt;Location: 4918822 - 4930660" locus_tag="input.path1.gene1316" class="clusterblast-orf" id="dummy-5_q5_0_all"  />
<polygon points="424,35 429,30 437,30 437,40 429,40 424,35 " style="fill:#1551d8; stroke-width:1; stroke:black; " description="&lt;b&gt;input.path1.gene1317&lt;/b&gt;&lt;br&gt;input.path1.gene1317&lt;br&gt;Location: 4934325 - 4935411" locus_tag="input.path1.gene1317" class="clusterblast-orf" id="dummy-5_q6_0_all"  />
<polygon points="481,40 498,40 503,35 498,30 481,30 481,40 " style="fill:#d815c9; stroke-width:1; stroke:black; " description="&lt;b&gt;input.path1.gene1318&lt;/b&gt;&lt;br&gt;input.path1.gene1318&lt;br&gt;Location: 4939088 - 4940861" locus_tag="input.path1.gene1318" class="clusterblast-orf" id="dummy-5_q7_0_all"  />
<polygon points="510,35 515,30 563,30 563,40 515,40 510,35 " style="fill:#d8c915; stroke-width:1; stroke:black; " description="&lt;b&gt;input.path1.gene1319&lt;/b&gt;&lt;br&gt;input.path1.gene1319&lt;br&gt;Location: 4941461 - 4945821" locus_tag="input.path1.gene1319" class="clusterblast-orf" id="dummy-5_q8_0_all"  />
<polygon points="584,40 600,40 605,35 600,30 584,30 584,40 " style="fill:#15d8ab; stroke-width:1; stroke:black; " description="&lt;b&gt;input.path1.gene1320&lt;/b&gt;&lt;br&gt;input.path1.gene1320&lt;br&gt;Location: 4947597 - 4949351" locus_tag="input.path1.gene1320" class="clusterblast-orf" id="dummy-5_q9_0_all"  />
<polygon points="613,40 619,40 624,35 619,30 613,30 613,40 " style="fill:#3315d8; stroke-width:1; stroke:black; " description="&lt;b&gt;input.path1.gene1321&lt;/b&gt;&lt;br&gt;input.path1.gene1321&lt;br&gt;Location: 4949946 - 4950893" locus_tag="input.path1.gene1321" class="clusterblast-orf" id="dummy-5_q10_0_all"  />
<polygon points="629,40 643,40 648,35 643,30 629,30 629,40 " style="fill:#d8156f; stroke-width:1; stroke:black; " description="&lt;b&gt;input.path1.gene1322&lt;/b&gt;&lt;br&gt;input.path1.gene1322&lt;br&gt;Location: 4951329 - 4952890" locus_tag="input.path1.gene1322" class="clusterblast-orf" id="dummy-5_q11_0_all"  />
<polygon points="650,35 655,30 679,30 679,40 655,40 650,35 " style="fill:#8dd815; stroke-width:1; stroke:black; " description="&lt;b&gt;input.path1.gene1323&lt;/b&gt;&lt;br&gt;input.path1.gene1323&lt;br&gt;Location: 4953009 - 4955422" locus_tag="input.path1.gene1323" class="clusterblast-orf" id="dummy-5_q12_0_all"  />
<polygon points="725,40 726,40 731,35 726,30 725,30 725,40 " style="fill:white; stroke-width:1; stroke:black; " description="&lt;b&gt;input.path1.gene1324&lt;/b&gt;&lt;br&gt;input.path1.gene1324&lt;br&gt;Location: 4959225 - 4959744" locus_tag="input.path1.gene1324" class="clusterblast-orf" id="dummy-5_q13_0_all"  />
<polygon points="766,40 775,40 780,35 775,30 766,30 766,40 " style="fill:white; stroke-width:1; stroke:black; " description="&lt;b&gt;input.path1.gene1325&lt;/b&gt;&lt;br&gt;input.path1.gene1325&lt;br&gt;Location: 4962596 - 4963742" locus_tag="input.path1.gene1325" class="clusterblast-orf" id="dummy-5_q14_0_all"  />
</g>
<g label="NW_013581207" description="NW_013581207 (483365-550922): Aureobasidium namibiae CBS 147.97 unplaced geno... (16% of genes show similarity), T1PKS" class="clusterblast-cluster"  >
<text x="5" y="70" class="clusterblast-acc"  >
<a xlink:href="https://antismash-db.secondarymetabolites.org/area?record=NW_013581207&amp;start=483365&amp;end=550922" target="_blank">NW_013581207 (483365-550922)</a>: Aureobasidium namibiae CBS 147.97 unplaced geno... (16% of genes show similarity), T1PKS</text>
<line x1="10" y1="85" x2="778.0" y2="85" style="stroke-width:1; stroke:grey; "  />
</g>
<g id="a5_000"  >
<polygon points="6,85 11,80 17,80 17,90 11,90 6,85 " style="fill:white; stroke-width:1; stroke:black; " description="&lt;b&gt;M436DRAFT_60388&lt;/b&gt;&lt;br&gt;cysteine proteinase&lt;br&gt;Location: 548178 - 547246" locus_tag="M436DRAFT_60388" class="clusterblast-orf" id="dummy-5_h5_9_0"  />
</g>
<g id="a5_001"  >
<polygon points="19,90 45,90 50,85 45,80 19,80 19,90 " style="fill:white; stroke-width:1; stroke:black; " description="&lt;b&gt;M436DRAFT_69534&lt;/b&gt;&lt;br&gt;neutral/alkaline nonlysosomal ceramidase-like protein&lt;br&gt;Location: 547088 - 544536" locus_tag="M436DRAFT_69534" class="clusterblast-orf" id="dummy-5_h5_9_1"  />
</g>
<g id="a5_002"  >
<polygon points="68,85 73,80 84,80 84,90 73,90 68,85 " style="fill:white; stroke-width:1; stroke:black; " description="&lt;b&gt;M436DRAFT_69533&lt;/b&gt;&lt;br&gt;WD40 repeat-like protein&lt;br&gt;Location: 543018 - 541741" locus_tag="M436DRAFT_69533" class="clusterblast-orf" id="dummy-5_h5_9_2"  />
</g>
<g id="a5_003"  >
<polygon points="86,90 92,90 97,85 92,80 86,80 86,90 " style="fill:white; stroke-width:1; stroke:black; " description="&lt;b&gt;M436DRAFT_60385&lt;/b&gt;&lt;br&gt;hypothetical protein&lt;br&gt;Location: 541526 - 540673" locus_tag="M436DRAFT_60385" class="clusterblast-orf" id="dummy-5_h5_9_3"  />
</g>
<g id="a5_004"  >
<polygon points="101,85 106,80 111,80 111,90 106,90 101,85 " style="fill:white; stroke-width:1; stroke:black; " description="&lt;b&gt;M436DRAFT_30682&lt;/b&gt;&lt;br&gt;hypothetical protein&lt;br&gt;Location: 540338 - 539522" locus_tag="M436DRAFT_30682" class="clusterblast-orf" id="dummy-5_h5_9_4"  />
</g>
<g id="a5_005"  >
<polygon points="119,85 124,80 128,80 128,90 124,90 119,85 " style="fill:white; stroke-width:1; stroke:black; " description="&lt;b&gt;M436DRAFT_78307&lt;/b&gt;&lt;br&gt;hypothetical protein&lt;br&gt;Location: 538790 - 538059" locus_tag="M436DRAFT_78307" class="clusterblast-orf" id="dummy-5_h5_9_5"  />
</g>
<g id="a5_006"  >
<polygon points="135,90 136,90 141,85 136,80 135,80 135,90 " style="fill:white; stroke-width:1; stroke:black; " description="&lt;b&gt;M436DRAFT_78306&lt;/b&gt;&lt;br&gt;hypothetical protein&lt;br&gt;Location: 537541 - 537007" locus_tag="M436DRAFT_78306" class="clusterblast-orf" id="dummy-5_h5_9_6"  />
</g>
<g id="a5_007"  >
<polygon points="148,85 153,80 167,80 167,90 153,90 148,85 " style="fill:white; stroke-width:1; stroke:black; " description="&lt;b&gt;M436DRAFT_38192&lt;/b&gt;&lt;br&gt;UDP-glucoronosyl and UDP-glucosyl transferase family protein&lt;br&gt;Location: 536392 - 534850" locus_tag="M436DRAFT_38192" class="clusterblast-orf" id="dummy-5_h5_9_7"  />
</g>
<g id="a5_008"  >
<polygon points="174,90 194,90 199,85 194,80 174,80 174,90 " style="fill:white; stroke-width:1; stroke:black; " description="&lt;b&gt;M436DRAFT_78304&lt;/b&gt;&lt;br&gt;MFS general substrate transporter&lt;br&gt;Location: 534302 - 532222" locus_tag="M436DRAFT_78304" class="clusterblast-orf" id="dummy-5_h5_9_8"  />
</g>
<g id="a5_009"  >
<polygon points="206,90 219,90 224,85 219,80 206,80 206,90 " style="fill:white; stroke-width:1; stroke:black; " description="&lt;b&gt;M436DRAFT_60380&lt;/b&gt;&lt;br&gt;DUF1479-domain-containing protein&lt;br&gt;Location: 531657 - 530160" locus_tag="M436DRAFT_60380" class="clusterblast-orf" id="dummy-5_h5_9_9"  />
</g>
<g id="a5_0010"  >
<polygon points="263,85 268,80 278,80 278,90 268,90 263,85 " style="fill:#8d15d8; stroke-width:1; stroke:black; " description="&lt;b&gt;M436DRAFT_17505&lt;/b&gt;&lt;br&gt;hypothetical protein&lt;br&gt;Location: 526914 - 525725&lt;br&gt;&lt;br&gt;&lt;b&gt;BlastP hit with input.path1.gene1314&lt;/b&gt;&lt;br&gt;Percentage identity: 34&lt;br&gt;Percentage coverage: 58&lt;br&gt;BLAST bit score: 133&lt;br&gt;E-value: 2e-32" locus_tag="M436DRAFT_17505" class="clusterblast-orf" id="dummy-5_h5_9_10"  />
</g>
<g id="a5_0011"  >
<polygon points="284,90 298,90 303,85 298,80 284,80 284,90 " style="fill:#15abd8; stroke-width:1; stroke:black; " description="&lt;b&gt;M436DRAFT_60377&lt;/b&gt;&lt;br&gt;cytochrome P450&lt;br&gt;Location: 525196 - 523627&lt;br&gt;&lt;br&gt;&lt;b&gt;BlastP hit with input.path1.gene1313&lt;/b&gt;&lt;br&gt;Percentage identity: 40&lt;br&gt;Percentage coverage: 96&lt;br&gt;BLAST bit score: 324&lt;br&gt;E-value: 5.03e-103" locus_tag="M436DRAFT_60377" class="clusterblast-orf" id="dummy-5_h5_9_11"  />
</g>
<g id="a5_0012"  >
<polygon points="312,85 317,80 326,80 326,90 317,90 312,85 " style="fill:#1551d8; stroke-width:1; stroke:black; " description="&lt;b&gt;M436DRAFT_38740&lt;/b&gt;&lt;br&gt;putative alcohol dehydrogenase&lt;br&gt;Location: 522877 - 521735&lt;br&gt;&lt;br&gt;&lt;b&gt;BlastP hit with input.path1.gene1317&lt;/b&gt;&lt;br&gt;Percentage identity: 52&lt;br&gt;Percentage coverage: 99&lt;br&gt;BLAST bit score: 355&lt;br&gt;E-value: 1.4e-119" locus_tag="M436DRAFT_38740" class="clusterblast-orf" id="dummy-5_h5_9_12"  />
</g>
<g id="a5_0013"  >
<polygon points="336,90 422,90 427,85 422,80 336,80 336,90 " style="fill:#15d851; stroke-width:1; stroke:black; " description="&lt;b&gt;M436DRAFT_38474&lt;/b&gt;&lt;br&gt;hypothetical protein&lt;br&gt;Location: 520922 - 513366&lt;br&gt;&lt;br&gt;&lt;b&gt;BlastP hit with input.path1.gene1316&lt;/b&gt;&lt;br&gt;Percentage identity: 43&lt;br&gt;Percentage coverage: 63&lt;br&gt;BLAST bit score: 1899&lt;br&gt;E-value: 0.0" locus_tag="M436DRAFT_38474" class="clusterblast-orf" id="dummy-5_h5_9_13"  />
</g>
<g id="a5_0014"  >
<polygon points="434,90 454,90 459,85 454,80 434,80 434,90 " style="fill:white; stroke-width:1; stroke:black; " description="&lt;b&gt;M436DRAFT_69522&lt;/b&gt;&lt;br&gt;glucoamylase precursor&lt;br&gt;Location: 512757 - 510726" locus_tag="M436DRAFT_69522" class="clusterblast-orf" id="dummy-5_h5_9_14"  />
</g>
<g id="a5_0015"  >
<polygon points="460,85 465,80 475,80 475,90 465,90 460,85 " style="fill:white; stroke-width:1; stroke:black; " description="&lt;b&gt;M436DRAFT_69521&lt;/b&gt;&lt;br&gt;glycosyl hydrolase&lt;br&gt;Location: 510617 - 509426" locus_tag="M436DRAFT_69521" class="clusterblast-orf" id="dummy-5_h5_9_15"  />
</g>
<g id="a5_0016"  >
<polygon points="483,90 498,90 503,85 498,80 483,80 483,90 " style="fill:white; stroke-width:1; stroke:black; " description="&lt;b&gt;M436DRAFT_69520&lt;/b&gt;&lt;br&gt;MFS general substrate transporter&lt;br&gt;Location: 508734 - 507085" locus_tag="M436DRAFT_69520" class="clusterblast-orf" id="dummy-5_h5_9_16"  />
</g>
<g id="a5_0017"  >
<polygon points="510,90 533,90 538,85 533,80 510,80 510,90 " style="fill:white; stroke-width:1; stroke:black; " description="&lt;b&gt;M436DRAFT_38553&lt;/b&gt;&lt;br&gt;rhamnogalacturonate lyase&lt;br&gt;Location: 506536 - 504237" locus_tag="M436DRAFT_38553" class="clusterblast-orf" id="dummy-5_h5_9_17"  />
</g>
<g id="a5_0018"  >
<polygon points="563,90 604,90 609,85 604,80 563,80 563,90 " style="fill:white; stroke-width:1; stroke:black; " description="&lt;b&gt;M436DRAFT_38603&lt;/b&gt;&lt;br&gt;hypothetical protein&lt;br&gt;Location: 502098 - 498334" locus_tag="M436DRAFT_38603" class="clusterblast-orf" id="dummy-5_h5_9_18"  />
</g>
<g id="a5_0019"  >
<polygon points="619,85 624,80 636,80 636,90 624,90 619,85 " style="fill:white; stroke-width:1; stroke:black; " description="&lt;b&gt;M436DRAFT_39027&lt;/b&gt;&lt;br&gt;inorganic phosphate transporter&lt;br&gt;Location: 497553 - 496094" locus_tag="M436DRAFT_39027" class="clusterblast-orf" id="dummy-5_h5_9_19"  />
</g>
<g id="a5_0020"  >
<polygon points="647,90 659,90 664,85 659,80 647,80 647,90 " style="fill:white; stroke-width:1; stroke:black; " description="&lt;b&gt;M436DRAFT_37270&lt;/b&gt;&lt;br&gt;Creatinase/aminopeptidase&lt;br&gt;Location: 495191 - 493786" locus_tag="M436DRAFT_37270" class="clusterblast-orf" id="dummy-5_h5_9_20"  />
</g>
<g id="a5_0021"  >
<polygon points="669,85 674,80 716,80 716,90 674,90 669,85 " style="fill:white; stroke-width:1; stroke:black; " description="&lt;b&gt;M436DRAFT_38598&lt;/b&gt;&lt;br&gt;hypothetical protein&lt;br&gt;Location: 493409 - 489483" locus_tag="M436DRAFT_38598" class="clusterblast-orf" id="dummy-5_h5_9_21"  />
</g>
<g id="a5_0022"  >
<polygon points="729,90 735,90 740,85 735,80 729,80 729,90 " style="fill:white; stroke-width:1; stroke:black; " description="&lt;b&gt;M436DRAFT_38878&lt;/b&gt;&lt;br&gt;ER lumen protein retaining receptor&lt;br&gt;Location: 488415 - 487476" locus_tag="M436DRAFT_38878" class="clusterblast-orf" id="dummy-5_h5_9_22"  />
</g>
<g id="a5_0023"  >
<polygon points="748,90 750,90 755,85 750,80 748,80 748,90 " style="fill:white; stroke-width:1; stroke:black; " description="&lt;b&gt;M436DRAFT_39110&lt;/b&gt;&lt;br&gt;hypothetical protein&lt;br&gt;Location: 486849 - 486268" locus_tag="M436DRAFT_39110" class="clusterblast-orf" id="dummy-5_h5_9_23"  />
</g>
<g id="a5_0024"  >
<polygon points="759,85 764,80 773,80 773,90 764,90 759,85 " style="fill:white; stroke-width:1; stroke:black; " description="&lt;b&gt;M436DRAFT_38974&lt;/b&gt;&lt;br&gt;tryptophan synthase beta subunit-like PLP-dependent enzyme&lt;br&gt;Location: 485938 - 484772" locus_tag="M436DRAFT_38974" class="clusterblast-orf" id="dummy-5_h5_9_24"  />
</g>
</svg>
