<svg xmlns="http://www.w3.org/2000/svg" xmlns:xlink="http://www.w3.org/1999/xlink" version="1.1" x="0" y="0" height="230" width="800" viewBox="0 0 800 230" preserveAspectRatio="none"  >
<g label="Query sequence" class="clusterblast-cluster"  >
<text x="5" y="20" class="clusterblast-acc"  >
Query sequence</text>
<line x1="10" y1="35" x2="778.0" y2="35" style="stroke-width:1; stroke:grey; "  />
<polygon points="204,35 209,30 221,30 221,40 209,40 204,35 " style="fill:#d81515; stroke-width:1; stroke:black; " description="&lt;b&gt;input.path1.gene210&lt;/b&gt;&lt;br&gt;input.path1.gene210&lt;br&gt;Location: 845947 - 847967" locus_tag="input.path1.gene210" class="clusterblast-orf" id="dummy-2_q0_0_all"  />
<polygon points="235,40 236,40 241,35 236,30 235,30 235,40 " style="fill:white; stroke-width:1; stroke:black; " description="&lt;b&gt;input.path1.gene211&lt;/b&gt;&lt;br&gt;input.path1.gene211&lt;br&gt;Location: 849596 - 850356" locus_tag="input.path1.gene211" class="clusterblast-orf" id="dummy-2_q1_0_all"  />
<polygon points="245,35 250,30 263,30 263,40 250,40 245,35 " style="fill:white; stroke-width:1; stroke:black; " description="&lt;b&gt;input.path1.gene212&lt;/b&gt;&lt;br&gt;input.path1.gene212&lt;br&gt;Location: 850772 - 852928" locus_tag="input.path1.gene212" class="clusterblast-orf" id="dummy-2_q2_0_all"  />
<polygon points="264,35 269,30 279,30 279,40 269,40 264,35 " style="fill:#d81515; stroke-width:1; stroke:black; " description="&lt;b&gt;input.path1.gene213&lt;/b&gt;&lt;br&gt;input.path1.gene213&lt;br&gt;Location: 853001 - 854756" locus_tag="input.path1.gene213" class="clusterblast-orf" id="dummy-2_q3_0_all"  />
<polygon points="282,40 294,40 299,35 294,30 282,30 282,40 " style="fill:white; stroke-width:1; stroke:black; " description="&lt;b&gt;input.path1.gene214&lt;/b&gt;&lt;br&gt;input.path1.gene214&lt;br&gt;Location: 855151 - 857097" locus_tag="input.path1.gene214" class="clusterblast-orf" id="dummy-2_q4_0_all"  />
<polygon points="329,35 334,30 345,30 345,40 334,40 329,35 " style="fill:#d81515; stroke-width:1; stroke:black; " description="&lt;b&gt;input.path1.gene215&lt;/b&gt;&lt;br&gt;input.path1.gene215&lt;br&gt;Location: 860609 - 862528" locus_tag="input.path1.gene215" class="clusterblast-orf" id="dummy-2_q5_0_all"  />
<polygon points="356,35 361,30 417,30 417,40 361,40 356,35 " style="fill:#77d815; stroke-width:1; stroke:black; " description="&lt;b&gt;input.path1.gene216&lt;/b&gt;&lt;br&gt;input.path1.gene216&lt;br&gt;Location: 863777 - 870987" locus_tag="input.path1.gene216" class="clusterblast-orf" id="dummy-2_q6_0_all"  />
<polygon points="431,40 437,40 442,35 437,30 431,30 431,40 " style="fill:#15d8d8; stroke-width:1; stroke:black; " description="&lt;b&gt;input.path1.gene217&lt;/b&gt;&lt;br&gt;input.path1.gene217&lt;br&gt;Location: 872561 - 873887" locus_tag="input.path1.gene217" class="clusterblast-orf" id="dummy-2_q7_0_all"  />
<polygon points="447,35 452,30 462,30 462,40 452,40 447,35 " style="fill:white; stroke-width:1; stroke:black; " description="&lt;b&gt;input.path1.gene218&lt;/b&gt;&lt;br&gt;input.path1.gene218&lt;br&gt;Location: 874436 - 876169" locus_tag="input.path1.gene218" class="clusterblast-orf" id="dummy-2_q8_0_all"  />
<polygon points="470,40 477,40 482,35 477,30 470,30 470,40 " style="fill:#7715d8; stroke-width:1; stroke:black; " description="&lt;b&gt;input.path1.gene219&lt;/b&gt;&lt;br&gt;input.path1.gene219&lt;br&gt;Location: 877163 - 878604" locus_tag="input.path1.gene219" class="clusterblast-orf" id="dummy-2_q9_0_all"  />
<polygon points="489,35 494,30 494,30 494,40 494,40 489,35 " style="fill:white; stroke-width:1; stroke:black; " description="&lt;b&gt;input.path1.gene220&lt;/b&gt;&lt;br&gt;input.path1.gene220&lt;br&gt;Location: 879439 - 880006" locus_tag="input.path1.gene220" class="clusterblast-orf" id="dummy-2_q10_0_all"  />
<polygon points="498,40 500,35 498,30 498,40 " style="fill:white; stroke-width:1; stroke:black; " description="&lt;b&gt;input.path1.gene221&lt;/b&gt;&lt;br&gt;input.path1.gene221&lt;br&gt;Location: 880495 - 880664" locus_tag="input.path1.gene221" class="clusterblast-orf" id="dummy-2_q11_0_all"  />
<polygon points="507,40 514,40 519,35 514,30 507,30 507,40 " style="fill:white; stroke-width:1; stroke:black; " description="&lt;b&gt;input.path1.gene222&lt;/b&gt;&lt;br&gt;input.path1.gene222&lt;br&gt;Location: 881468 - 882955" locus_tag="input.path1.gene222" class="clusterblast-orf" id="dummy-2_q12_0_all"  />
<polygon points="530,40 551,40 556,35 551,30 530,30 530,40 " style="fill:white; stroke-width:1; stroke:black; " description="&lt;b&gt;input.path1.gene223&lt;/b&gt;&lt;br&gt;input.path1.gene223&lt;br&gt;Location: 884134 - 887182" locus_tag="input.path1.gene223" class="clusterblast-orf" id="dummy-2_q13_0_all"  />
<polygon points="567,40 571,40 576,35 571,30 567,30 567,40 " style="fill:white; stroke-width:1; stroke:black; " description="&lt;b&gt;input.path1.gene224&lt;/b&gt;&lt;br&gt;input.path1.gene224&lt;br&gt;Location: 888483 - 889531" locus_tag="input.path1.gene224" class="clusterblast-orf" id="dummy-2_q14_0_all"  />
</g>
<g label="NW_020292048" description="NW_020292048 (78288-172374): Aspergillus vadensis CBS 113365 unplaced genomic... (8% of genes show similarity), T1PKS,terpene" class="clusterblast-cluster"  >
<text x="5" y="70" class="clusterblast-acc"  >
<a xlink:href="https://antismash-db.secondarymetabolites.org/area?record=NW_020292048&amp;start=78288&amp;end=172374" target="_blank">NW_020292048 (78288-172374)</a>: Aspergillus vadensis CBS 113365 unplaced genomic... (8% of genes show similarity), T1PKS,terpene</text>
<line x1="10" y1="85" x2="778.0" y2="85" style="stroke-width:1; stroke:grey; "  />
</g>
<g id="a2_000"  >
<polygon points="0,90 2,90 7,85 2,80 0,80 0,90 " style="fill:white; stroke-width:1; stroke:black; " description="&lt;b&gt;BO88DRAFT_404486&lt;/b&gt;&lt;br&gt;fungal-specific transcription factor&lt;br&gt;Location: 169704 - 168865" locus_tag="BO88DRAFT_404486" class="clusterblast-orf" id="dummy-2_h2_6_0"  />
</g>
<g id="a2_001"  >
<polygon points="24,85 29,80 32,80 32,90 29,90 24,85 " style="fill:white; stroke-width:1; stroke:black; " description="&lt;b&gt;BO88DRAFT_461756&lt;/b&gt;&lt;br&gt;arabinoxylan arabinofuranohydrolase axhA&lt;br&gt;Location: 166863 - 165865" locus_tag="BO88DRAFT_461756" class="clusterblast-orf" id="dummy-2_h2_6_1"  />
</g>
<g id="a2_002"  >
<polygon points="44,90 52,90 57,85 52,80 44,80 44,90 " style="fill:white; stroke-width:1; stroke:black; " description="&lt;b&gt;BO88DRAFT_339323&lt;/b&gt;&lt;br&gt;endo-1,4-beta-xylanase A&lt;br&gt;Location: 164454 - 162962" locus_tag="BO88DRAFT_339323" class="clusterblast-orf" id="dummy-2_h2_6_2"  />
</g>
<g id="a2_003"  >
<polygon points="71,90 77,90 82,85 77,80 71,80 71,90 " style="fill:white; stroke-width:1; stroke:black; " description="&lt;b&gt;BO88DRAFT_461753&lt;/b&gt;&lt;br&gt;NAD dependent epimerase/dehydratase&lt;br&gt;Location: 161329 - 160094" locus_tag="BO88DRAFT_461753" class="clusterblast-orf" id="dummy-2_h2_6_3"  />
</g>
<g id="a2_004"  >
<polygon points="84,90 88,90 93,85 88,80 84,80 84,90 " style="fill:white; stroke-width:1; stroke:black; " description="&lt;b&gt;BO88DRAFT_461740&lt;/b&gt;&lt;br&gt;hypothetical protein&lt;br&gt;Location: 159846 - 158730" locus_tag="BO88DRAFT_461740" class="clusterblast-orf" id="dummy-2_h2_6_4"  />
</g>
<g id="a2_005"  >
<polygon points="105,85 110,80 131,80 131,90 110,90 105,85 " style="fill:white; stroke-width:1; stroke:black; " description="&lt;b&gt;BO88DRAFT_425112&lt;/b&gt;&lt;br&gt;terpenoid synthase&lt;br&gt;Location: 157374 - 154243" locus_tag="BO88DRAFT_425112" class="clusterblast-orf" id="dummy-2_h2_6_5"  />
</g>
<g id="a2_006"  >
<polygon points="146,90 155,90 160,85 155,80 146,80 146,90 " style="fill:white; stroke-width:1; stroke:black; " description="&lt;b&gt;BO88DRAFT_453177&lt;/b&gt;&lt;br&gt;FAD binding monooxygenase&lt;br&gt;Location: 152506 - 150942" locus_tag="BO88DRAFT_453177" class="clusterblast-orf" id="dummy-2_h2_6_6"  />
</g>
<g id="a2_007"  >
<polygon points="162,85 167,80 179,80 179,90 167,90 162,85 " style="fill:white; stroke-width:1; stroke:black; " description="&lt;b&gt;BO88DRAFT_461734&lt;/b&gt;&lt;br&gt;hypothetical protein&lt;br&gt;Location: 150693 - 148660" locus_tag="BO88DRAFT_461734" class="clusterblast-orf" id="dummy-2_h2_6_7"  />
</g>
<g id="a2_008"  >
<polygon points="183,90 188,90 193,85 188,80 183,80 183,90 " style="fill:white; stroke-width:1; stroke:black; " description="&lt;b&gt;BO88DRAFT_461727&lt;/b&gt;&lt;br&gt;hypothetical protein&lt;br&gt;Location: 148178 - 147003" locus_tag="BO88DRAFT_461727" class="clusterblast-orf" id="dummy-2_h2_6_8"  />
</g>
<g id="a2_009"  >
<polygon points="211,90 213,85 211,80 211,90 " style="fill:white; stroke-width:1; stroke:black; " description="&lt;b&gt;BO88DRAFT_404485&lt;/b&gt;&lt;br&gt;hypothetical protein&lt;br&gt;Location: 144938 - 144693" locus_tag="BO88DRAFT_404485" class="clusterblast-orf" id="dummy-2_h2_6_9"  />
</g>
<g id="a2_0010"  >
<polygon points="226,90 226,90 231,85 226,80 226,80 226,90 " style="fill:white; stroke-width:1; stroke:black; " description="&lt;b&gt;BO88DRAFT_443473&lt;/b&gt;&lt;br&gt;ribonuclease III&lt;br&gt;Location: 143108 - 142599" locus_tag="BO88DRAFT_443473" class="clusterblast-orf" id="dummy-2_h2_6_10"  />
</g>
<g id="a2_0011"  >
<polygon points="245,85 250,80 255,80 255,90 250,90 245,85 " style="fill:white; stroke-width:1; stroke:black; " description="&lt;b&gt;BO88DRAFT_339295&lt;/b&gt;&lt;br&gt;hypothetical protein&lt;br&gt;Location: 140939 - 139797" locus_tag="BO88DRAFT_339295" class="clusterblast-orf" id="dummy-2_h2_6_11"  />
</g>
<g id="a2_0012"  >
<polygon points="280,85 285,80 302,80 302,90 285,90 280,85 " style="fill:white; stroke-width:1; stroke:black; " description="&lt;b&gt;BO88DRAFT_339492&lt;/b&gt;&lt;br&gt;C6 transcription factor&lt;br&gt;Location: 136821 - 134295" locus_tag="BO88DRAFT_339492" class="clusterblast-orf" id="dummy-2_h2_6_12"  />
</g>
<g id="a2_0013"  >
<polygon points="319,90 329,90 334,85 329,80 319,80 319,90 " style="fill:white; stroke-width:1; stroke:black; " description="&lt;b&gt;BO88DRAFT_461699&lt;/b&gt;&lt;br&gt;multidrug resistance protein fnx1&lt;br&gt;Location: 132327 - 130495" locus_tag="BO88DRAFT_461699" class="clusterblast-orf" id="dummy-2_h2_6_13"  />
</g>
<g id="a2_0014"  >
<polygon points="344,85 346,80 346,90 344,85 " style="fill:white; stroke-width:1; stroke:black; " description="&lt;b&gt;BO88DRAFT_404482&lt;/b&gt;&lt;br&gt;hypothetical protein&lt;br&gt;Location: 129312 - 129079" locus_tag="BO88DRAFT_404482" class="clusterblast-orf" id="dummy-2_h2_6_14"  />
</g>
<g id="a2_0015"  >
<polygon points="350,85 355,80 369,80 369,90 355,90 350,85 " style="fill:white; stroke-width:1; stroke:black; " description="&lt;b&gt;BO88DRAFT_404481&lt;/b&gt;&lt;br&gt;copper amine oxidase&lt;br&gt;Location: 128599 - 126398" locus_tag="BO88DRAFT_404481" class="clusterblast-orf" id="dummy-2_h2_6_15"  />
</g>
<g id="a2_0016"  >
<polygon points="373,85 378,80 386,80 386,90 378,90 373,85 " style="fill:white; stroke-width:1; stroke:black; " description="&lt;b&gt;BO88DRAFT_387459&lt;/b&gt;&lt;br&gt;glycosyl hydrolase&lt;br&gt;Location: 125990 - 124476" locus_tag="BO88DRAFT_387459" class="clusterblast-orf" id="dummy-2_h2_6_16"  />
</g>
<g id="a2_0017"  >
<polygon points="392,85 397,80 410,80 410,90 397,90 392,85 " style="fill:white; stroke-width:1; stroke:black; " description="&lt;b&gt;BO88DRAFT_425103&lt;/b&gt;&lt;br&gt;transmembrane amino acid transporter family protein&lt;br&gt;Location: 123748 - 121658" locus_tag="BO88DRAFT_425103" class="clusterblast-orf" id="dummy-2_h2_6_17"  />
</g>
<g id="a2_0018"  >
<polygon points="413,85 416,80 416,90 413,85 " style="fill:white; stroke-width:1; stroke:black; " description="&lt;b&gt;BO88DRAFT_34289&lt;/b&gt;&lt;br&gt;hypothetical protein&lt;br&gt;Location: 121227 - 120898" locus_tag="BO88DRAFT_34289" class="clusterblast-orf" id="dummy-2_h2_6_18"  />
</g>
<g id="a2_0019"  >
<polygon points="444,85 449,80 451,80 451,90 449,90 444,85 " style="fill:white; stroke-width:1; stroke:black; " description="&lt;b&gt;BO88DRAFT_461677&lt;/b&gt;&lt;br&gt;hypothetical protein&lt;br&gt;Location: 117579 - 116801" locus_tag="BO88DRAFT_461677" class="clusterblast-orf" id="dummy-2_h2_6_19"  />
</g>
<g id="a2_0020"  >
<polygon points="458,85 463,80 524,80 524,90 463,90 458,85 " style="fill:#77d815; stroke-width:1; stroke:black; " description="&lt;b&gt;BO88DRAFT_461675&lt;/b&gt;&lt;br&gt;polyketide synthase&lt;br&gt;Location: 115996 - 108289&lt;br&gt;&lt;br&gt;&lt;b&gt;BlastP hit with input.path1.gene216&lt;/b&gt;&lt;br&gt;Percentage identity: 37&lt;br&gt;Percentage coverage: 110&lt;br&gt;BLAST bit score: 1400&lt;br&gt;E-value: 0.0" locus_tag="BO88DRAFT_461675" class="clusterblast-orf" id="dummy-2_h2_6_20"  />
</g>
<g id="a2_0021"  >
<polygon points="534,90 542,90 547,85 542,80 534,80 534,90 " style="fill:#15d8d8; stroke-width:1; stroke:black; " description="&lt;b&gt;BO88DRAFT_425100&lt;/b&gt;&lt;br&gt;class II aminotransferase/8-amino-7-oxononanoate synthase&lt;br&gt;Location: 107113 - 105602&lt;br&gt;&lt;br&gt;&lt;b&gt;BlastP hit with input.path1.gene217&lt;/b&gt;&lt;br&gt;Percentage identity: 53&lt;br&gt;Percentage coverage: 97&lt;br&gt;BLAST bit score: 374&lt;br&gt;E-value: 6.06e-126" locus_tag="BO88DRAFT_425100" class="clusterblast-orf" id="dummy-2_h2_6_21"  />
</g>
<g id="a2_0022"  >
<polygon points="550,90 583,90 588,85 583,80 550,80 550,90 " style="fill:#7715d8; stroke-width:1; stroke:black; " description="&lt;b&gt;BO88DRAFT_443468&lt;/b&gt;&lt;br&gt;efflux pump antibiotic resistance protein&lt;br&gt;Location: 105222 - 100735&lt;br&gt;&lt;br&gt;&lt;b&gt;BlastP hit with input.path1.gene219&lt;/b&gt;&lt;br&gt;Percentage identity: 52&lt;br&gt;Percentage coverage: 97&lt;br&gt;BLAST bit score: 444&lt;br&gt;E-value: 2.79e-142" locus_tag="BO88DRAFT_443468" class="clusterblast-orf" id="dummy-2_h2_6_22"  />
</g>
<g id="a2_0023"  >
<polygon points="593,90 597,90 602,85 597,80 593,80 593,90 " style="fill:white; stroke-width:1; stroke:black; " description="&lt;b&gt;BO88DRAFT_425098&lt;/b&gt;&lt;br&gt;hypothetical protein&lt;br&gt;Location: 100203 - 99154" locus_tag="BO88DRAFT_425098" class="clusterblast-orf" id="dummy-2_h2_6_23"  />
</g>
<g id="a2_0024"  >
<polygon points="603,85 608,80 608,80 608,90 608,90 603,85 " style="fill:white; stroke-width:1; stroke:black; " description="&lt;b&gt;BO88DRAFT_414638&lt;/b&gt;&lt;br&gt;hypothetical protein&lt;br&gt;Location: 98965 - 98425" locus_tag="BO88DRAFT_414638" class="clusterblast-orf" id="dummy-2_h2_6_24"  />
</g>
<g id="a2_0025"  >
<polygon points="618,90 627,90 632,85 627,80 618,80 618,90 " style="fill:white; stroke-width:1; stroke:black; " description="&lt;b&gt;BO88DRAFT_339286&lt;/b&gt;&lt;br&gt;cytochrome P450&lt;br&gt;Location: 97212 - 95620" locus_tag="BO88DRAFT_339286" class="clusterblast-orf" id="dummy-2_h2_6_25"  />
</g>
<g id="a2_0026"  >
<polygon points="638,85 643,80 644,80 644,90 643,90 638,85 " style="fill:white; stroke-width:1; stroke:black; " description="&lt;b&gt;BO88DRAFT_414636&lt;/b&gt;&lt;br&gt;transcription factor Rba50&lt;br&gt;Location: 94843 - 94196" locus_tag="BO88DRAFT_414636" class="clusterblast-orf" id="dummy-2_h2_6_26"  />
</g>
<g id="a2_0027"  >
<polygon points="650,85 655,80 655,80 655,90 655,90 650,85 " style="fill:white; stroke-width:1; stroke:black; " description="&lt;b&gt;BO88DRAFT_425095&lt;/b&gt;&lt;br&gt;hypothetical protein&lt;br&gt;Location: 93521 - 92895" locus_tag="BO88DRAFT_425095" class="clusterblast-orf" id="dummy-2_h2_6_27"  />
</g>
<g id="a2_0028"  >
<polygon points="666,90 674,90 679,85 674,80 666,80 666,90 " style="fill:white; stroke-width:1; stroke:black; " description="&lt;b&gt;BO88DRAFT_404480&lt;/b&gt;&lt;br&gt;FAD/NAD(P)-binding domain-containing protein&lt;br&gt;Location: 91667 - 90091" locus_tag="BO88DRAFT_404480" class="clusterblast-orf" id="dummy-2_h2_6_28"  />
</g>
<g id="a2_0029"  >
<polygon points="685,85 690,80 702,80 702,90 690,90 685,85 " style="fill:white; stroke-width:1; stroke:black; " description="&lt;b&gt;BO88DRAFT_387452&lt;/b&gt;&lt;br&gt;hypothetical protein&lt;br&gt;Location: 89367 - 87446" locus_tag="BO88DRAFT_387452" class="clusterblast-orf" id="dummy-2_h2_6_29"  />
</g>
<g id="a2_0030"  >
<polygon points="712,90 720,90 725,85 720,80 712,80 712,90 " style="fill:white; stroke-width:1; stroke:black; " description="&lt;b&gt;BO88DRAFT_487577&lt;/b&gt;&lt;br&gt;beta-1,6-glucanase&lt;br&gt;Location: 86221 - 84667" locus_tag="BO88DRAFT_487577" class="clusterblast-orf" id="dummy-2_h2_6_30"  />
</g>
<g id="a2_0031"  >
<polygon points="729,85 734,80 735,80 735,90 734,90 729,85 " style="fill:white; stroke-width:1; stroke:black; " description="&lt;b&gt;BO88DRAFT_339487&lt;/b&gt;&lt;br&gt;alpha-acetolactate decarboxylase&lt;br&gt;Location: 84229 - 83504" locus_tag="BO88DRAFT_339487" class="clusterblast-orf" id="dummy-2_h2_6_31"  />
</g>
<g id="a2_0032"  >
<polygon points="745,90 756,90 761,85 756,80 745,80 745,90 " style="fill:white; stroke-width:1; stroke:black; " description="&lt;b&gt;BO88DRAFT_461663&lt;/b&gt;&lt;br&gt;acetolactate synthase&lt;br&gt;Location: 82314 - 80501" locus_tag="BO88DRAFT_461663" class="clusterblast-orf" id="dummy-2_h2_6_32"  />
</g>
<g id="a2_0033"  >
<polygon points="767,85 772,80 780,80 780,90 772,90 767,85 " style="fill:white; stroke-width:1; stroke:black; " description="&lt;b&gt;BO88DRAFT_387446&lt;/b&gt;&lt;br&gt;hypothetical protein&lt;br&gt;Location: 79798 - 78313" locus_tag="BO88DRAFT_387446" class="clusterblast-orf" id="dummy-2_h2_6_33"  />
</g>
</svg>
