<svg xmlns="http://www.w3.org/2000/svg" xmlns:xlink="http://www.w3.org/1999/xlink" version="1.1" x="0" y="0" height="230" width="800" viewBox="0 0 800 230" preserveAspectRatio="none"  >
<g label="Query sequence" class="clusterblast-cluster"  >
<text x="5" y="20" class="clusterblast-acc"  >
Query sequence</text>
<line x1="10" y1="35" x2="778.0" y2="35" style="stroke-width:1; stroke:grey; "  />
<polygon points="126,40 146,40 151,35 146,30 126,30 126,40 " style="fill:white; stroke-width:1; stroke:black; " description="&lt;b&gt;input.path1.gene1633&lt;/b&gt;&lt;br&gt;input.path1.gene1633&lt;br&gt;Location: 6214188 - 6215147" locus_tag="input.path1.gene1633" class="clusterblast-orf" id="dummy-8_q0_0_all"  />
<polygon points="171,35 176,30 185,30 185,40 176,40 171,35 " style="fill:white; stroke-width:1; stroke:black; " description="&lt;b&gt;input.path1.gene1634&lt;/b&gt;&lt;br&gt;input.path1.gene1634&lt;br&gt;Location: 6215907 - 6216471" locus_tag="input.path1.gene1634" class="clusterblast-orf" id="dummy-8_q1_0_all"  />
<polygon points="187,40 274,40 279,35 274,30 187,30 187,40 " style="fill:#d81515; stroke-width:1; stroke:black; " description="&lt;b&gt;input.path1.gene1635&lt;/b&gt;&lt;br&gt;input.path1.gene1635&lt;br&gt;Location: 6216555 - 6220067" locus_tag="input.path1.gene1635" class="clusterblast-orf" id="dummy-8_q2_0_all"  />
<polygon points="278,35 283,30 323,30 323,40 283,40 278,35 " style="fill:white; stroke-width:1; stroke:black; " description="&lt;b&gt;input.path1.gene1636&lt;/b&gt;&lt;br&gt;input.path1.gene1636&lt;br&gt;Location: 6220063 - 6221799" locus_tag="input.path1.gene1636" class="clusterblast-orf" id="dummy-8_q3_0_all"  />
<polygon points="355,40 439,40 444,35 439,30 355,30 355,40 " style="fill:#15d815; stroke-width:1; stroke:black; " description="&lt;b&gt;input.path1.gene1637&lt;/b&gt;&lt;br&gt;input.path1.gene1637&lt;br&gt;Location: 6223027 - 6226441" locus_tag="input.path1.gene1637" class="clusterblast-orf" id="dummy-8_q4_0_all"  />
<polygon points="451,35 456,30 534,30 534,40 456,40 451,35 " style="fill:#1515d8; stroke-width:1; stroke:black; " description="&lt;b&gt;input.path1.gene1638&lt;/b&gt;&lt;br&gt;input.path1.gene1638&lt;br&gt;Location: 6226708 - 6229914" locus_tag="input.path1.gene1638" class="clusterblast-orf" id="dummy-8_q5_0_all"  />
<polygon points="569,35 574,30 621,30 621,40 574,40 569,35 " style="fill:white; stroke-width:1; stroke:black; " description="&lt;b&gt;input.path1.gene1639&lt;/b&gt;&lt;br&gt;input.path1.gene1639&lt;br&gt;Location: 6231258 - 6233262" locus_tag="input.path1.gene1639" class="clusterblast-orf" id="dummy-8_q6_0_all"  />
<polygon points="642,40 648,40 653,35 648,30 642,30 642,40 " style="fill:white; stroke-width:1; stroke:black; " description="&lt;b&gt;input.path1.gene1640&lt;/b&gt;&lt;br&gt;input.path1.gene1640&lt;br&gt;Location: 6234070 - 6234524" locus_tag="input.path1.gene1640" class="clusterblast-orf" id="dummy-8_q7_0_all"  />
</g>
<g label="NW_006912905" description="NW_006912905 (2600367-2631558): Capronia epimyces CBS 606.96 aczIQ-supercont1... (14% of genes show similarity), terpene" class="clusterblast-cluster"  >
<text x="5" y="70" class="clusterblast-acc"  >
<a xlink:href="https://antismash-db.secondarymetabolites.org/area?record=NW_006912905&amp;start=2600367&amp;end=2631558" target="_blank">NW_006912905 (2600367-2631558)</a>: Capronia epimyces CBS 606.96 aczIQ-supercont1... (14% of genes show similarity), terpene</text>
<line x1="10" y1="85" x2="778.0" y2="85" style="stroke-width:1; stroke:grey; "  />
</g>
<g id="a8_000"  >
<polygon points="0,85 5,80 58,80 58,90 5,90 0,85 " style="fill:white; stroke-width:1; stroke:black; " description="&lt;b&gt;A1O3_02744&lt;/b&gt;&lt;br&gt;tryptophan synthase&lt;br&gt;Location: 2600748 - 2603021" locus_tag="A1O3_02744" class="clusterblast-orf" id="dummy-8_h8_10_0"  />
</g>
<g id="a8_001"  >
<polygon points="71,85 76,80 85,80 85,90 76,90 71,85 " style="fill:white; stroke-width:1; stroke:black; " description="&lt;b&gt;A1O3_02745&lt;/b&gt;&lt;br&gt;hypothetical protein&lt;br&gt;Location: 2603486 - 2604064" locus_tag="A1O3_02745" class="clusterblast-orf" id="dummy-8_h8_10_1"  />
</g>
<g id="a8_002"  >
<polygon points="94,85 99,80 120,80 120,90 99,90 94,85 " style="fill:white; stroke-width:1; stroke:black; " description="&lt;b&gt;A1O3_02746&lt;/b&gt;&lt;br&gt;hypothetical protein&lt;br&gt;Location: 2604374 - 2605396" locus_tag="A1O3_02746" class="clusterblast-orf" id="dummy-8_h8_10_2"  />
</g>
<g id="a8_003"  >
<polygon points="146,85 151,80 197,80 197,90 151,90 146,85 " style="fill:white; stroke-width:1; stroke:black; " description="&lt;b&gt;A1O3_02747&lt;/b&gt;&lt;br&gt;dihydroxy-acid dehydratase&lt;br&gt;Location: 2606379 - 2608375" locus_tag="A1O3_02747" class="clusterblast-orf" id="dummy-8_h8_10_3"  />
</g>
<g id="a8_004"  >
<polygon points="212,90 268,90 273,85 268,80 212,80 212,90 " style="fill:white; stroke-width:1; stroke:black; " description="&lt;b&gt;A1O3_02748&lt;/b&gt;&lt;br&gt;hypothetical protein&lt;br&gt;Location: 2608953 - 2611282" locus_tag="A1O3_02748" class="clusterblast-orf" id="dummy-8_h8_10_4"  />
</g>
<g id="a8_005"  >
<polygon points="277,85 282,80 331,80 331,90 282,90 277,85 " style="fill:white; stroke-width:1; stroke:black; " description="&lt;b&gt;A1O3_02749&lt;/b&gt;&lt;br&gt;hypothetical protein&lt;br&gt;Location: 2611450 - 2613520" locus_tag="A1O3_02749" class="clusterblast-orf" id="dummy-8_h8_10_5"  />
</g>
<g id="a8_006"  >
<polygon points="379,85 384,80 410,80 410,90 384,90 379,85 " style="fill:#15d815; stroke-width:1; stroke:black; " description="&lt;b&gt;A1O3_02750&lt;/b&gt;&lt;br&gt;trichodiene synthase (TRI5)&lt;br&gt;Location: 2615368 - 2616558&lt;br&gt;&lt;br&gt;&lt;b&gt;BlastP hit with input.path1.gene1637&lt;/b&gt;&lt;br&gt;Percentage identity: 42&lt;br&gt;Percentage coverage: 47&lt;br&gt;BLAST bit score: 268&lt;br&gt;E-value: 9.4e-81" locus_tag="A1O3_02750" class="clusterblast-orf" id="dummy-8_h8_10_6"  />
</g>
<g id="a8_007"  >
<polygon points="434,90 483,90 488,85 483,80 434,80 434,90 " style="fill:#d81515; stroke-width:1; stroke:black; " description="&lt;b&gt;A1O3_02751&lt;/b&gt;&lt;br&gt;hypothetical protein&lt;br&gt;Location: 2617517 - 2619578&lt;br&gt;&lt;br&gt;&lt;b&gt;BlastP hit with input.path1.gene1635&lt;/b&gt;&lt;br&gt;Percentage identity: 42&lt;br&gt;Percentage coverage: 80&lt;br&gt;BLAST bit score: 358&lt;br&gt;E-value: 1.6e-115" locus_tag="A1O3_02751" class="clusterblast-orf" id="dummy-8_h8_10_7"  />
</g>
<g id="a8_008"  >
<polygon points="505,85 510,80 545,80 545,90 510,90 505,85 " style="fill:white; stroke-width:1; stroke:black; " description="&lt;b&gt;A1O3_02752&lt;/b&gt;&lt;br&gt;hypothetical protein&lt;br&gt;Location: 2620232 - 2621786" locus_tag="A1O3_02752" class="clusterblast-orf" id="dummy-8_h8_10_8"  />
</g>
<g id="a8_009"  >
<polygon points="616,90 619,90 624,85 619,80 616,80 616,90 " style="fill:white; stroke-width:1; stroke:black; " description="&lt;b&gt;A1O3_02753&lt;/b&gt;&lt;br&gt;hypothetical protein&lt;br&gt;Location: 2624508 - 2624836" locus_tag="A1O3_02753" class="clusterblast-orf" id="dummy-8_h8_10_9"  />
</g>
<g id="a8_0010"  >
<polygon points="632,85 637,80 648,80 648,90 637,90 632,85 " style="fill:white; stroke-width:1; stroke:black; " description="&lt;b&gt;A1O3_02754&lt;/b&gt;&lt;br&gt;hypothetical protein&lt;br&gt;Location: 2625145 - 2625768" locus_tag="A1O3_02754" class="clusterblast-orf" id="dummy-8_h8_10_10"  />
</g>
<g id="a8_0011"  >
<polygon points="660,85 665,80 682,80 682,90 665,90 660,85 " style="fill:white; stroke-width:1; stroke:black; " description="&lt;b&gt;A1O3_02755&lt;/b&gt;&lt;br&gt;hypothetical protein&lt;br&gt;Location: 2626231 - 2627047" locus_tag="A1O3_02755" class="clusterblast-orf" id="dummy-8_h8_10_11"  />
</g>
<g id="a8_0012"  >
<polygon points="710,90 743,90 748,85 743,80 710,80 710,90 " style="fill:white; stroke-width:1; stroke:black; " description="&lt;b&gt;A1O3_02756&lt;/b&gt;&lt;br&gt;acetylornithine aminotransferase&lt;br&gt;Location: 2628136 - 2629620" locus_tag="A1O3_02756" class="clusterblast-orf" id="dummy-8_h8_10_12"  />
</g>
<g id="a8_0013"  >
<polygon points="750,85 755,80 780,80 780,90 755,90 750,85 " style="fill:white; stroke-width:1; stroke:black; " description="&lt;b&gt;A1O3_02757&lt;/b&gt;&lt;br&gt;hypothetical protein&lt;br&gt;Location: 2629693 - 2630824" locus_tag="A1O3_02757" class="clusterblast-orf" id="dummy-8_h8_10_13"  />
</g>
</svg>
