<svg xmlns="http://www.w3.org/2000/svg" xmlns:xlink="http://www.w3.org/1999/xlink" version="1.1" x="0" y="0" height="230" width="800" viewBox="0 0 800 230" preserveAspectRatio="none"  >
<g label="Query sequence" class="clusterblast-cluster"  >
<text x="5" y="20" class="clusterblast-acc"  >
Query sequence</text>
<line x1="10" y1="35" x2="778.0" y2="35" style="stroke-width:1; stroke:grey; "  />
<polygon points="193,40 208,40 213,35 208,30 193,30 193,40 " style="fill:white; stroke-width:1; stroke:black; " description="&lt;b&gt;input.path1.gene9&lt;/b&gt;&lt;br&gt;input.path1.gene9&lt;br&gt;Location: 24441 - 25099" locus_tag="input.path1.gene9" class="clusterblast-orf" id="dummy-1_q0_0_all"  />
<polygon points="428,40 456,40 461,35 456,30 428,30 428,40 " style="fill:#d81515; stroke-width:1; stroke:black; " description="&lt;b&gt;input.path1.gene10&lt;/b&gt;&lt;br&gt;input.path1.gene10&lt;br&gt;Location: 32330 - 33461" locus_tag="input.path1.gene10" class="clusterblast-orf" id="dummy-1_q1_0_all"  />
<polygon points="469,35 474,30 515,30 515,40 474,40 469,35 " style="fill:#15d815; stroke-width:1; stroke:black; " description="&lt;b&gt;input.path1.gene11&lt;/b&gt;&lt;br&gt;input.path1.gene11&lt;br&gt;Location: 33729 - 35273" locus_tag="input.path1.gene11" class="clusterblast-orf" id="dummy-1_q2_0_all"  />
<polygon points="540,40 581,40 586,35 581,30 540,30 540,40 " style="fill:#1515d8; stroke-width:1; stroke:black; " description="&lt;b&gt;input.path1.gene12&lt;/b&gt;&lt;br&gt;input.path1.gene12&lt;br&gt;Location: 36106 - 37670" locus_tag="input.path1.gene12" class="clusterblast-orf" id="dummy-1_q3_0_all"  />
</g>
<g label="NW_006711170" description="NW_006711170 (271878-302853): Trichoderma reesei QM6a unplaced genomic scaffo... (28% of genes show similarity), terpene" class="clusterblast-cluster"  >
<text x="5" y="70" class="clusterblast-acc"  >
<a xlink:href="https://antismash-db.secondarymetabolites.org/area?record=NW_006711170&amp;start=271878&amp;end=302853" target="_blank">NW_006711170 (271878-302853)</a>: Trichoderma reesei QM6a unplaced genomic scaffo... (28% of genes show similarity), terpene</text>
<line x1="10" y1="85" x2="778.0" y2="85" style="stroke-width:1; stroke:grey; "  />
</g>
<g id="a1_000"  >
<polygon points="0,85 5,80 27,80 27,90 5,90 0,85 " style="fill:white; stroke-width:1; stroke:black; " description="&lt;b&gt;TRIREDRAFT_123551&lt;/b&gt;&lt;br&gt;uncharacterized protein&lt;br&gt;Location: 302617 - 301683" locus_tag="TRIREDRAFT_123551" class="clusterblast-orf" id="dummy-1_h1_7_0"  />
</g>
<g id="a1_001"  >
<polygon points="181,90 222,90 227,85 222,80 181,80 181,90 " style="fill:white; stroke-width:1; stroke:black; " description="&lt;b&gt;TRIREDRAFT_123550&lt;/b&gt;&lt;br&gt;uncharacterized protein&lt;br&gt;Location: 296525 - 294975" locus_tag="TRIREDRAFT_123550" class="clusterblast-orf" id="dummy-1_h1_7_1"  />
</g>
<g id="a1_002"  >
<polygon points="258,90 296,90 301,85 296,80 258,80 258,90 " style="fill:white; stroke-width:1; stroke:black; " description="&lt;b&gt;TRIREDRAFT_110949&lt;/b&gt;&lt;br&gt;uncharacterized protein&lt;br&gt;Location: 293922 - 292489" locus_tag="TRIREDRAFT_110949" class="clusterblast-orf" id="dummy-1_h1_7_2"  />
</g>
<g id="a1_003"  >
<polygon points="316,85 321,80 346,80 346,90 321,90 316,85 " style="fill:white; stroke-width:1; stroke:black; " description="&lt;b&gt;TRIREDRAFT_110948&lt;/b&gt;&lt;br&gt;uncharacterized protein&lt;br&gt;Location: 291960 - 290974" locus_tag="TRIREDRAFT_110948" class="clusterblast-orf" id="dummy-1_h1_7_3"  />
</g>
<g id="a1_004"  >
<polygon points="439,90 462,90 467,85 462,80 439,80 439,90 " style="fill:#d81515; stroke-width:1; stroke:black; " description="&lt;b&gt;TRIREDRAFT_68022&lt;/b&gt;&lt;br&gt;geranylgeranyl diphosphate synthase&lt;br&gt;Location: 287853 - 286879&lt;br&gt;&lt;br&gt;&lt;b&gt;BlastP hit with input.path1.gene10&lt;/b&gt;&lt;br&gt;Percentage identity: 74&lt;br&gt;Percentage coverage: 86&lt;br&gt;BLAST bit score: 494&lt;br&gt;E-value: 9.63e-175" locus_tag="TRIREDRAFT_68022" class="clusterblast-orf" id="dummy-1_h1_7_4"  />
</g>
<g id="a1_005"  >
<polygon points="482,85 487,80 530,80 530,90 487,90 482,85 " style="fill:#15d815; stroke-width:1; stroke:black; " description="&lt;b&gt;TRIREDRAFT_68026&lt;/b&gt;&lt;br&gt;uncharacterized protein&lt;br&gt;Location: 286407 - 284786&lt;br&gt;&lt;br&gt;&lt;b&gt;BlastP hit with input.path1.gene11&lt;/b&gt;&lt;br&gt;Percentage identity: 58&lt;br&gt;Percentage coverage: 96&lt;br&gt;BLAST bit score: 483&lt;br&gt;E-value: 9.35e-167" locus_tag="TRIREDRAFT_68026" class="clusterblast-orf" id="dummy-1_h1_7_5"  />
</g>
<g id="a1_006"  >
<polygon points="740,90 775,90 780,85 775,80 740,80 740,90 " style="fill:white; stroke-width:1; stroke:black; " description="&lt;b&gt;TRIREDRAFT_81219&lt;/b&gt;&lt;br&gt;uncharacterized protein&lt;br&gt;Location: 277716 - 276386" locus_tag="TRIREDRAFT_81219" class="clusterblast-orf" id="dummy-1_h1_7_6"  />
</g>
</svg>
