<svg xmlns="http://www.w3.org/2000/svg" xmlns:xlink="http://www.w3.org/1999/xlink" version="1.1" x="0" y="0" height="230" width="800" viewBox="0 0 800 230" preserveAspectRatio="none"  >
<g label="Query sequence" class="clusterblast-cluster"  >
<text x="5" y="20" class="clusterblast-acc"  >
Query sequence</text>
<line x1="10" y1="35" x2="778.0" y2="35" style="stroke-width:1; stroke:grey; "  />
<polygon points="0,40 6,40 11,35 6,30 0,30 0,40 " style="fill:white; stroke-width:1; stroke:black; " description="&lt;b&gt;input.path1.gene1614&lt;/b&gt;&lt;br&gt;input.path1.gene1614&lt;br&gt;Location: 6141157 - 6142032" locus_tag="input.path1.gene1614" class="clusterblast-orf" id="dummy-7_q0_0_all"  />
<polygon points="68,35 73,30 78,30 78,40 73,40 68,35 " style="fill:white; stroke-width:1; stroke:black; " description="&lt;b&gt;input.path1.gene1615&lt;/b&gt;&lt;br&gt;input.path1.gene1615&lt;br&gt;Location: 6146549 - 6147380" locus_tag="input.path1.gene1615" class="clusterblast-orf" id="dummy-7_q1_0_all"  />
<polygon points="105,40 148,40 153,35 148,30 105,30 105,40 " style="fill:white; stroke-width:1; stroke:black; " description="&lt;b&gt;input.path1.gene1616&lt;/b&gt;&lt;br&gt;input.path1.gene1616&lt;br&gt;Location: 6149473 - 6153296" locus_tag="input.path1.gene1616" class="clusterblast-orf" id="dummy-7_q2_0_all"  />
<polygon points="154,35 159,30 175,30 175,40 159,40 154,35 " style="fill:white; stroke-width:1; stroke:black; " description="&lt;b&gt;input.path1.gene1617&lt;/b&gt;&lt;br&gt;input.path1.gene1617&lt;br&gt;Location: 6153362 - 6155021" locus_tag="input.path1.gene1617" class="clusterblast-orf" id="dummy-7_q3_0_all"  />
<polygon points="178,40 195,40 200,35 195,30 178,30 178,40 " style="fill:white; stroke-width:1; stroke:black; " description="&lt;b&gt;input.path1.gene1618&lt;/b&gt;&lt;br&gt;input.path1.gene1618&lt;br&gt;Location: 6155252 - 6156993" locus_tag="input.path1.gene1618" class="clusterblast-orf" id="dummy-7_q4_0_all"  />
<polygon points="322,35 327,30 331,30 331,40 327,40 322,35 " style="fill:white; stroke-width:1; stroke:black; " description="&lt;b&gt;input.path1.gene1619&lt;/b&gt;&lt;br&gt;input.path1.gene1619&lt;br&gt;Location: 6166659 - 6167391" locus_tag="input.path1.gene1619" class="clusterblast-orf" id="dummy-7_q5_0_all"  />
<polygon points="334,40 338,35 334,30 334,40 " style="fill:white; stroke-width:1; stroke:black; " description="&lt;b&gt;input.path1.gene1620&lt;/b&gt;&lt;br&gt;input.path1.gene1620&lt;br&gt;Location: 6167591 - 6167910" locus_tag="input.path1.gene1620" class="clusterblast-orf" id="dummy-7_q6_0_all"  />
<polygon points="352,40 413,40 418,35 413,30 352,30 352,40 " style="fill:white; stroke-width:1; stroke:black; " description="&lt;b&gt;input.path1.gene1621&lt;/b&gt;&lt;br&gt;input.path1.gene1621&lt;br&gt;Location: 6169050 - 6174235" locus_tag="input.path1.gene1621" class="clusterblast-orf" id="dummy-7_q7_0_all"  />
<polygon points="464,40 487,40 492,35 487,30 464,30 464,40 " style="fill:white; stroke-width:1; stroke:black; " description="&lt;b&gt;input.path1.gene1622&lt;/b&gt;&lt;br&gt;input.path1.gene1622&lt;br&gt;Location: 6177897 - 6180145" locus_tag="input.path1.gene1622" class="clusterblast-orf" id="dummy-7_q8_0_all"  />
<polygon points="535,40 537,40 542,35 537,30 535,30 535,40 " style="fill:white; stroke-width:1; stroke:black; " description="&lt;b&gt;input.path1.gene1623&lt;/b&gt;&lt;br&gt;input.path1.gene1623&lt;br&gt;Location: 6183551 - 6184088" locus_tag="input.path1.gene1623" class="clusterblast-orf" id="dummy-7_q9_0_all"  />
<polygon points="551,35 555,30 555,40 551,35 " style="fill:white; stroke-width:1; stroke:black; " description="&lt;b&gt;input.path1.gene1624&lt;/b&gt;&lt;br&gt;input.path1.gene1624&lt;br&gt;Location: 6184782 - 6185124" locus_tag="input.path1.gene1624" class="clusterblast-orf" id="dummy-7_q10_0_all"  />
<polygon points="581,40 596,40 601,35 596,30 581,30 581,40 " style="fill:white; stroke-width:1; stroke:black; " description="&lt;b&gt;input.path1.gene1625&lt;/b&gt;&lt;br&gt;input.path1.gene1625&lt;br&gt;Location: 6187146 - 6188787" locus_tag="input.path1.gene1625" class="clusterblast-orf" id="dummy-7_q11_0_all"  />
<polygon points="639,40 667,40 672,35 667,30 639,30 639,40 " style="fill:white; stroke-width:1; stroke:black; " description="&lt;b&gt;input.path1.gene1626&lt;/b&gt;&lt;br&gt;input.path1.gene1626&lt;br&gt;Location: 6191783 - 6194368" locus_tag="input.path1.gene1626" class="clusterblast-orf" id="dummy-7_q12_0_all"  />
<polygon points="697,40 712,40 717,35 712,30 697,30 697,40 " style="fill:white; stroke-width:1; stroke:black; " description="&lt;b&gt;input.path1.gene1627&lt;/b&gt;&lt;br&gt;input.path1.gene1627&lt;br&gt;Location: 6196365 - 6197941" locus_tag="input.path1.gene1627" class="clusterblast-orf" id="dummy-7_q13_0_all"  />
<polygon points="737,40 742,40 747,35 742,30 737,30 737,40 " style="fill:#d81515; stroke-width:1; stroke:black; " description="&lt;b&gt;input.path1.gene1628&lt;/b&gt;&lt;br&gt;input.path1.gene1628&lt;br&gt;Location: 6199528 - 6200313" locus_tag="input.path1.gene1628" class="clusterblast-orf" id="dummy-7_q14_0_all"  />
<polygon points="760,40 775,40 780,35 775,30 760,30 760,40 " style="fill:#15d8d8; stroke-width:1; stroke:black; " description="&lt;b&gt;input.path1.gene1629&lt;/b&gt;&lt;br&gt;input.path1.gene1629&lt;br&gt;Location: 6201320 - 6202897" locus_tag="input.path1.gene1629" class="clusterblast-orf" id="dummy-7_q15_0_all"  />
</g>
<g label="BGC0000930" description="BGC0000930_c1: deoxynivalenol (22% of genes show similarity), Terpene" class="clusterblast-cluster"  >
<text x="5" y="70" class="clusterblast-acc"  >
<a xlink:href="https://mibig.secondarymetabolites.org/go/BGC0000930/1" target="_blank">BGC0000930</a>: deoxynivalenol                                                                   (22% of genes show similarity), Terpene</text>
<line x1="10" y1="85" x2="778.0" y2="85" style="stroke-width:1; stroke:grey; "  />
</g>
<g id="a7_000"  >
<polygon points="227,85 232,80 244,80 244,90 232,90 227,85 " style="fill:white; stroke-width:1; stroke:black; " description="&lt;b&gt;AAK53574.1&lt;/b&gt;&lt;br&gt;TRI8&lt;br&gt;Location: 2574 - 3908" locus_tag="AAK53574.1" class="clusterblast-orf" id="dummy-7_h7_3_0"  />
</g>
<g id="a7_001"  >
<polygon points="253,90 266,90 271,85 266,80 253,80 253,90 " style="fill:white; stroke-width:1; stroke:black; " description="&lt;b&gt;AAK53575.1&lt;/b&gt;&lt;br&gt;TRI7&lt;br&gt;Location: 4610 - 5986" locus_tag="AAK53575.1" class="clusterblast-orf" id="dummy-7_h7_3_1"  />
</g>
<g id="a7_002"  >
<polygon points="281,90 298,90 303,85 298,80 281,80 281,90 " style="fill:#15d8d8; stroke-width:1; stroke:black; " description="&lt;b&gt;AAK53576.1&lt;/b&gt;&lt;br&gt;15-decalonectrin 15-O-acetyltransferase&lt;br&gt;Location: 6786 - 8548&lt;br&gt;&lt;br&gt;&lt;b&gt;BlastP hit with input.path1.gene1629&lt;/b&gt;&lt;br&gt;Percentage identity: 53&lt;br&gt;Percentage coverage: 107&lt;br&gt;BLAST bit score: 484&lt;br&gt;E-value: 4.95e-169" locus_tag="AAK53576.1" class="clusterblast-orf" id="dummy-7_h7_3_2"  />
</g>
<g id="a7_003"  >
<polygon points="318,85 323,80 340,80 340,90 323,90 318,85 " style="fill:white; stroke-width:1; stroke:black; " description="&lt;b&gt;AAK53577.1&lt;/b&gt;&lt;br&gt;trichodiene oxygenase&lt;br&gt;Location: 9714 - 11455" locus_tag="AAK53577.1" class="clusterblast-orf" id="dummy-7_h7_3_3"  />
</g>
<g id="a7_004"  >
<polygon points="354,90 358,90 363,85 358,80 354,80 354,90 " style="fill:white; stroke-width:1; stroke:black; " description="&lt;b&gt;AAK53578.1&lt;/b&gt;&lt;br&gt;transcription factor&lt;br&gt;Location: 12627 - 13283" locus_tag="AAK53578.1" class="clusterblast-orf" id="dummy-7_h7_3_4"  />
</g>
<g id="a7_005"  >
<polygon points="400,90 410,90 415,85 410,80 400,80 400,90 " style="fill:white; stroke-width:1; stroke:black; " description="&lt;b&gt;AAK53579.1&lt;/b&gt;&lt;br&gt;trichodiene synthase&lt;br&gt;Location: 16219 - 17398" locus_tag="AAK53579.1" class="clusterblast-orf" id="dummy-7_h7_3_5"  />
</g>
<g id="a7_006"  >
<polygon points="465,85 470,80 487,80 487,90 470,90 465,85 " style="fill:#d81515; stroke-width:1; stroke:black; " description="&lt;b&gt;AAK53580.1&lt;/b&gt;&lt;br&gt;isotrichodermin C-15 hydroxylase&lt;br&gt;Location: 21400 - 23140&lt;br&gt;&lt;br&gt;&lt;b&gt;BlastP hit with input.path1.gene1628&lt;/b&gt;&lt;br&gt;Percentage identity: 65&lt;br&gt;Percentage coverage: 109&lt;br&gt;BLAST bit score: 211&lt;br&gt;E-value: 8.16e-67" locus_tag="AAK53580.1" class="clusterblast-orf" id="dummy-7_h7_3_6"  />
</g>
<g id="a7_007"  >
<polygon points="495,85 500,80 520,80 520,90 500,90 495,85 " style="fill:white; stroke-width:1; stroke:black; " description="&lt;b&gt;AAK53581.1&lt;/b&gt;&lt;br&gt;trichothecene efflux pump&lt;br&gt;Location: 23790 - 25694" locus_tag="AAK53581.1" class="clusterblast-orf" id="dummy-7_h7_3_7"  />
</g>
<g id="a7_008"  >
<polygon points="529,85 534,80 552,80 552,90 534,90 529,85 " style="fill:white; stroke-width:1; stroke:black; " description="&lt;b&gt;AAM22490.1&lt;/b&gt;&lt;br&gt;putative cytochrome p450 monooxygenase&lt;br&gt;Location: 26429 - 28230" locus_tag="AAM22490.1" class="clusterblast-orf" id="dummy-7_h7_3_8"  />
</g>
</svg>
