<svg xmlns="http://www.w3.org/2000/svg" xmlns:xlink="http://www.w3.org/1999/xlink" version="1.1" x="0" y="0" height="230" width="800" viewBox="0 0 800 230" preserveAspectRatio="none"  >
<g label="Query sequence" class="clusterblast-cluster"  >
<text x="5" y="20" class="clusterblast-acc"  >
Query sequence</text>
<line x1="10" y1="35" x2="778.0" y2="35" style="stroke-width:1; stroke:grey; "  />
<polygon points="0,40 22,40 27,35 22,30 0,30 0,40 " style="fill:white; stroke-width:1; stroke:black; " description="&lt;b&gt;input.path1.gene131&lt;/b&gt;&lt;br&gt;input.path1.gene131&lt;br&gt;Location: 514893 - 515597" locus_tag="input.path1.gene131" class="clusterblast-orf" id="dummy-2_q0_0_all"  />
<polygon points="29,35 34,30 56,30 56,40 34,40 29,35 " style="fill:white; stroke-width:1; stroke:black; " description="&lt;b&gt;input.path1.gene132&lt;/b&gt;&lt;br&gt;input.path1.gene132&lt;br&gt;Location: 515649 - 516357" locus_tag="input.path1.gene132" class="clusterblast-orf" id="dummy-2_q1_0_all"  />
<polygon points="58,35 63,30 136,30 136,40 63,40 58,35 " style="fill:white; stroke-width:1; stroke:black; " description="&lt;b&gt;input.path1.gene133&lt;/b&gt;&lt;br&gt;input.path1.gene133&lt;br&gt;Location: 516405 - 518467" locus_tag="input.path1.gene133" class="clusterblast-orf" id="dummy-2_q2_0_all"  />
<polygon points="217,35 222,30 242,30 242,40 222,40 217,35 " style="fill:white; stroke-width:1; stroke:black; " description="&lt;b&gt;input.path1.gene134&lt;/b&gt;&lt;br&gt;input.path1.gene134&lt;br&gt;Location: 520576 - 521217" locus_tag="input.path1.gene134" class="clusterblast-orf" id="dummy-2_q3_0_all"  />
<polygon points="283,40 403,40 408,35 403,30 283,30 283,40 " style="fill:#d81515; stroke-width:1; stroke:black; " description="&lt;b&gt;input.path1.gene135&lt;/b&gt;&lt;br&gt;input.path1.gene135&lt;br&gt;Location: 522302 - 525566" locus_tag="input.path1.gene135" class="clusterblast-orf" id="dummy-2_q4_0_all"  />
<polygon points="413,35 418,30 451,30 451,40 418,40 413,35 " style="fill:white; stroke-width:1; stroke:black; " description="&lt;b&gt;input.path1.gene136&lt;/b&gt;&lt;br&gt;input.path1.gene136&lt;br&gt;Location: 525713 - 526688" locus_tag="input.path1.gene136" class="clusterblast-orf" id="dummy-2_q5_0_all"  />
<polygon points="474,40 528,40 533,35 528,30 474,30 474,40 " style="fill:white; stroke-width:1; stroke:black; " description="&lt;b&gt;input.path1.gene137&lt;/b&gt;&lt;br&gt;input.path1.gene137&lt;br&gt;Location: 527313 - 528850" locus_tag="input.path1.gene137" class="clusterblast-orf" id="dummy-2_q6_0_all"  />
<polygon points="537,35 542,30 672,30 672,40 542,40 537,35 " style="fill:white; stroke-width:1; stroke:black; " description="&lt;b&gt;input.path1.gene138&lt;/b&gt;&lt;br&gt;input.path1.gene138&lt;br&gt;Location: 528953 - 532485" locus_tag="input.path1.gene138" class="clusterblast-orf" id="dummy-2_q7_0_all"  />
<polygon points="716,40 775,40 780,35 775,30 716,30 716,40 " style="fill:white; stroke-width:1; stroke:black; " description="&lt;b&gt;input.path1.gene139&lt;/b&gt;&lt;br&gt;input.path1.gene139&lt;br&gt;Location: 533645 - 535307" locus_tag="input.path1.gene139" class="clusterblast-orf" id="dummy-2_q8_0_all"  />
</g>
<g label="BGC0001248" description="BGC0001248_c1: clavaric acid (100% of genes show similarity), Terpene" class="clusterblast-cluster"  >
<text x="5" y="70" class="clusterblast-acc"  >
<a xlink:href="https://mibig.secondarymetabolites.org/go/BGC0001248/1" target="_blank">BGC0001248</a>: clavaric acid                                                                    (100% of genes show similarity), Terpene</text>
<line x1="10" y1="85" x2="778.0" y2="85" style="stroke-width:1; stroke:grey; "  />
</g>
<g id="a2_000"  >
<polygon points="335,90 439,90 444,85 439,80 335,80 335,90 " style="fill:#d81515; stroke-width:1; stroke:black; " description="&lt;b&gt;ACF70484.1&lt;/b&gt;&lt;br&gt;oxidosqualene clavarinone cyclase&lt;br&gt;Location: 1353 - 4192&lt;br&gt;&lt;br&gt;&lt;b&gt;BlastP hit with input.path1.gene135&lt;/b&gt;&lt;br&gt;Percentage identity: 50&lt;br&gt;Percentage coverage: 92&lt;br&gt;BLAST bit score: 677&lt;br&gt;E-value: 2.85e-237" locus_tag="ACF70484.1" class="clusterblast-orf" id="dummy-2_h2_1_0"  />
</g>
</svg>
