<svg xmlns="http://www.w3.org/2000/svg" xmlns:xlink="http://www.w3.org/1999/xlink" version="1.1" x="0" y="0" height="50" width="800" viewBox="0 0 800 50" preserveAspectRatio="none"  >
<g label="Query sequence" class="clusterblast-cluster"  >
<text x="5" y="20" class="clusterblast-acc"  >
Query sequence</text>
<line x1="10" y1="35" x2="778.0" y2="35" style="stroke-width:1; stroke:grey; "  />
<polygon points="0,40 20,40 25,35 20,30 0,30 0,40 " style="fill:white; stroke-width:1; stroke:black; " description="&lt;b&gt;input.path1.gene523&lt;/b&gt;&lt;br&gt;input.path1.gene523&lt;br&gt;Location: 2355745 - 2358088" locus_tag="input.path1.gene523" class="clusterblast-orf" id="subclusterblast-3_q0_0_all"  />
<polygon points="27,35 32,30 39,30 39,40 32,40 27,35 " style="fill:white; stroke-width:1; stroke:black; " description="&lt;b&gt;input.path1.gene524&lt;/b&gt;&lt;br&gt;input.path1.gene524&lt;br&gt;Location: 2358274 - 2359378" locus_tag="input.path1.gene524" class="clusterblast-orf" id="subclusterblast-3_q1_0_all"  />
<polygon points="63,40 75,40 80,35 75,30 63,30 63,40 " style="fill:white; stroke-width:1; stroke:black; " description="&lt;b&gt;input.path1.gene525&lt;/b&gt;&lt;br&gt;input.path1.gene525&lt;br&gt;Location: 2361486 - 2363110" locus_tag="input.path1.gene525" class="clusterblast-orf" id="subclusterblast-3_q2_0_all"  />
<polygon points="81,35 86,30 92,30 92,40 86,40 81,35 " style="fill:white; stroke-width:1; stroke:black; " description="&lt;b&gt;input.path1.gene526&lt;/b&gt;&lt;br&gt;input.path1.gene526&lt;br&gt;Location: 2363158 - 2364194" locus_tag="input.path1.gene526" class="clusterblast-orf" id="subclusterblast-3_q3_0_all"  />
<polygon points="98,40 120,40 125,35 120,30 98,30 98,40 " style="fill:white; stroke-width:1; stroke:black; " description="&lt;b&gt;input.path1.gene527&lt;/b&gt;&lt;br&gt;input.path1.gene527&lt;br&gt;Location: 2364740 - 2367154" locus_tag="input.path1.gene527" class="clusterblast-orf" id="subclusterblast-3_q4_0_all"  />
<polygon points="128,35 133,30 208,30 208,40 133,40 128,35 " style="fill:white; stroke-width:1; stroke:black; " description="&lt;b&gt;input.path1.gene528&lt;/b&gt;&lt;br&gt;input.path1.gene528&lt;br&gt;Location: 2367410 - 2374737" locus_tag="input.path1.gene528" class="clusterblast-orf" id="subclusterblast-3_q5_0_all"  />
<polygon points="360,40 362,40 367,35 362,30 360,30 360,40 " style="fill:white; stroke-width:1; stroke:black; " description="&lt;b&gt;input.path1.gene529&lt;/b&gt;&lt;br&gt;input.path1.gene529&lt;br&gt;Location: 2388571 - 2389226" locus_tag="input.path1.gene529" class="clusterblast-orf" id="subclusterblast-3_q6_0_all"  />
<polygon points="377,35 382,30 393,30 393,40 382,40 377,35 " style="fill:white; stroke-width:1; stroke:black; " description="&lt;b&gt;input.path1.gene530&lt;/b&gt;&lt;br&gt;input.path1.gene530&lt;br&gt;Location: 2390127 - 2391580" locus_tag="input.path1.gene530" class="clusterblast-orf" id="subclusterblast-3_q7_0_all"  />
<polygon points="397,40 430,40 435,35 430,30 397,30 397,40 " style="fill:white; stroke-width:1; stroke:black; " description="&lt;b&gt;input.path1.gene531&lt;/b&gt;&lt;br&gt;input.path1.gene531&lt;br&gt;Location: 2391995 - 2395469" locus_tag="input.path1.gene531" class="clusterblast-orf" id="subclusterblast-3_q8_0_all"  />
<polygon points="525,40 533,40 538,35 533,30 525,30 525,40 " style="fill:white; stroke-width:1; stroke:black; " description="&lt;b&gt;input.path1.gene532&lt;/b&gt;&lt;br&gt;input.path1.gene532&lt;br&gt;Location: 2403693 - 2404881" locus_tag="input.path1.gene532" class="clusterblast-orf" id="subclusterblast-3_q9_0_all"  />
<polygon points="542,35 547,30 578,30 578,40 547,40 542,35 " style="fill:white; stroke-width:1; stroke:black; " description="&lt;b&gt;input.path1.gene533&lt;/b&gt;&lt;br&gt;input.path1.gene533&lt;br&gt;Location: 2405216 - 2408448" locus_tag="input.path1.gene533" class="clusterblast-orf" id="subclusterblast-3_q10_0_all"  />
<polygon points="585,35 590,30 723,30 723,40 590,40 585,35 " style="fill:white; stroke-width:1; stroke:black; " description="&lt;b&gt;input.path1.gene534&lt;/b&gt;&lt;br&gt;input.path1.gene534&lt;br&gt;Location: 2409116 - 2421685" locus_tag="input.path1.gene534" class="clusterblast-orf" id="subclusterblast-3_q11_0_all"  />
<polygon points="740,40 753,40 758,35 753,30 740,30 740,40 " style="fill:white; stroke-width:1; stroke:black; " description="&lt;b&gt;input.path1.gene535&lt;/b&gt;&lt;br&gt;input.path1.gene535&lt;br&gt;Location: 2423250 - 2424939" locus_tag="input.path1.gene535" class="clusterblast-orf" id="subclusterblast-3_q12_0_all"  />
<polygon points="760,35 763,30 763,40 760,35 " style="fill:white; stroke-width:1; stroke:black; " description="&lt;b&gt;input.path1.gene536&lt;/b&gt;&lt;br&gt;input.path1.gene536&lt;br&gt;Location: 2425052 - 2425369" locus_tag="input.path1.gene536" class="clusterblast-orf" id="subclusterblast-3_q13_0_all"  />
<polygon points="769,35 774,30 780,30 780,40 774,40 769,35 " style="fill:white; stroke-width:1; stroke:black; " description="&lt;b&gt;input.path1.gene537&lt;/b&gt;&lt;br&gt;input.path1.gene537&lt;br&gt;Location: 2425897 - 2426872" locus_tag="input.path1.gene537" class="clusterblast-orf" id="subclusterblast-3_q14_0_all"  />
</g>
</svg>
