<svg xmlns="http://www.w3.org/2000/svg" xmlns:xlink="http://www.w3.org/1999/xlink" version="1.1" x="0" y="0" height="230" width="800" viewBox="0 0 800 230" preserveAspectRatio="none"  >
<g label="Query sequence" class="clusterblast-cluster"  >
<text x="5" y="20" class="clusterblast-acc"  >
Query sequence</text>
<line x1="10" y1="35" x2="778.0" y2="35" style="stroke-width:1; stroke:grey; "  />
<polygon points="107,35 112,30 121,30 121,40 112,40 107,35 " style="fill:#d81515; stroke-width:1; stroke:black; " description="&lt;b&gt;input.path1.gene2057&lt;/b&gt;&lt;br&gt;input.path1.gene2057&lt;br&gt;Location: 6939507 - 6940758" locus_tag="input.path1.gene2057" class="clusterblast-orf" id="dummy-8_q0_0_all"  />
<polygon points="126,40 136,40 141,35 136,30 126,30 126,40 " style="fill:#15d815; stroke-width:1; stroke:black; " description="&lt;b&gt;input.path1.gene2058&lt;/b&gt;&lt;br&gt;input.path1.gene2058&lt;br&gt;Location: 6941151 - 6942453" locus_tag="input.path1.gene2058" class="clusterblast-orf" id="dummy-8_q1_0_all"  />
<polygon points="143,35 148,30 149,30 149,40 148,40 143,35 " style="fill:#1597d8; stroke-width:1; stroke:black; " description="&lt;b&gt;input.path1.gene2059&lt;/b&gt;&lt;br&gt;input.path1.gene2059&lt;br&gt;Location: 6942627 - 6943160" locus_tag="input.path1.gene2059" class="clusterblast-orf" id="dummy-8_q2_0_all"  />
<polygon points="162,40 190,40 195,35 190,30 162,30 162,40 " style="fill:white; stroke-width:1; stroke:black; " description="&lt;b&gt;input.path1.gene2060&lt;/b&gt;&lt;br&gt;input.path1.gene2060&lt;br&gt;Location: 6944257 - 6947179" locus_tag="input.path1.gene2060" class="clusterblast-orf" id="dummy-8_q3_0_all"  />
<polygon points="205,40 207,40 212,35 207,30 205,30 205,40 " style="fill:#9715d8; stroke-width:1; stroke:black; " description="&lt;b&gt;input.path1.gene2061&lt;/b&gt;&lt;br&gt;input.path1.gene2061&lt;br&gt;Location: 6948039 - 6948687" locus_tag="input.path1.gene2061" class="clusterblast-orf" id="dummy-8_q4_0_all"  />
<polygon points="243,40 245,40 250,35 245,30 243,30 243,40 " style="fill:#d89715; stroke-width:1; stroke:black; " description="&lt;b&gt;input.path1.gene2062&lt;/b&gt;&lt;br&gt;input.path1.gene2062&lt;br&gt;Location: 6951368 - 6951950" locus_tag="input.path1.gene2062" class="clusterblast-orf" id="dummy-8_q5_0_all"  />
<polygon points="254,35 259,30 272,30 272,40 259,40 254,35 " style="fill:#15d897; stroke-width:1; stroke:black; " description="&lt;b&gt;input.path1.gene2063&lt;/b&gt;&lt;br&gt;input.path1.gene2063&lt;br&gt;Location: 6952280 - 6953851" locus_tag="input.path1.gene2063" class="clusterblast-orf" id="dummy-8_q6_0_all"  />
<polygon points="307,35 310,30 310,40 307,35 " style="fill:white; stroke-width:1; stroke:black; " description="&lt;b&gt;input.path1.gene2064&lt;/b&gt;&lt;br&gt;input.path1.gene2064&lt;br&gt;Location: 6956909 - 6957228" locus_tag="input.path1.gene2064" class="clusterblast-orf" id="dummy-8_q7_0_all"  />
<polygon points="332,40 467,40 472,35 467,30 332,30 332,40 " style="fill:#1515d8; stroke-width:1; stroke:black; " description="&lt;b&gt;input.path1.gene2065&lt;/b&gt;&lt;br&gt;input.path1.gene2065&lt;br&gt;Location: 6959089 - 6971283" locus_tag="input.path1.gene2065" class="clusterblast-orf" id="dummy-8_q8_0_all"  />
<polygon points="492,35 497,30 513,30 513,40 497,40 492,35 " style="fill:white; stroke-width:1; stroke:black; " description="&lt;b&gt;input.path1.gene2066&lt;/b&gt;&lt;br&gt;input.path1.gene2066&lt;br&gt;Location: 6973086 - 6974886" locus_tag="input.path1.gene2066" class="clusterblast-orf" id="dummy-8_q9_0_all"  />
<polygon points="521,35 526,30 531,30 531,40 526,40 521,35 " style="fill:white; stroke-width:1; stroke:black; " description="&lt;b&gt;input.path1.gene2067&lt;/b&gt;&lt;br&gt;input.path1.gene2067&lt;br&gt;Location: 6975608 - 6976477" locus_tag="input.path1.gene2067" class="clusterblast-orf" id="dummy-8_q10_0_all"  />
<polygon points="535,35 540,30 554,30 554,40 540,40 535,35 " style="fill:#d81597; stroke-width:1; stroke:black; " description="&lt;b&gt;input.path1.gene2068&lt;/b&gt;&lt;br&gt;input.path1.gene2068&lt;br&gt;Location: 6976793 - 6978404" locus_tag="input.path1.gene2068" class="clusterblast-orf" id="dummy-8_q11_0_all"  />
<polygon points="566,40 583,40 588,35 583,30 566,30 566,40 " style="fill:#97d815; stroke-width:1; stroke:black; " description="&lt;b&gt;input.path1.gene2069&lt;/b&gt;&lt;br&gt;input.path1.gene2069&lt;br&gt;Location: 6979509 - 6981443" locus_tag="input.path1.gene2069" class="clusterblast-orf" id="dummy-8_q12_0_all"  />
<polygon points="594,40 609,40 614,35 609,30 594,30 594,40 " style="fill:white; stroke-width:1; stroke:black; " description="&lt;b&gt;input.path1.gene2070&lt;/b&gt;&lt;br&gt;input.path1.gene2070&lt;br&gt;Location: 6981890 - 6983650" locus_tag="input.path1.gene2070" class="clusterblast-orf" id="dummy-8_q13_0_all"  />
<polygon points="624,40 637,40 642,35 637,30 624,30 624,40 " style="fill:white; stroke-width:1; stroke:black; " description="&lt;b&gt;input.path1.gene2071&lt;/b&gt;&lt;br&gt;input.path1.gene2071&lt;br&gt;Location: 6984509 - 6986076" locus_tag="input.path1.gene2071" class="clusterblast-orf" id="dummy-8_q14_0_all"  />
<polygon points="655,35 660,30 672,30 672,40 660,40 655,35 " style="fill:white; stroke-width:1; stroke:black; " description="&lt;b&gt;input.path1.gene2072&lt;/b&gt;&lt;br&gt;input.path1.gene2072&lt;br&gt;Location: 6987246 - 6988742" locus_tag="input.path1.gene2072" class="clusterblast-orf" id="dummy-8_q15_0_all"  />
</g>
<g label="NW_024067574" description="NW_024067574 (235773-308013): Penicillium roqueforti strain LCP96 04111 chrom... (8% of genes show similarity), NRPS,T1PKS" class="clusterblast-cluster"  >
<text x="5" y="70" class="clusterblast-acc"  >
<a xlink:href="https://antismash-db.secondarymetabolites.org/area?record=NW_024067574&amp;start=235773&amp;end=308013" target="_blank">NW_024067574 (235773-308013)</a>: Penicillium roqueforti strain LCP96 04111 chrom... (8% of genes show similarity), NRPS,T1PKS</text>
<line x1="10" y1="85" x2="778.0" y2="85" style="stroke-width:1; stroke:grey; "  />
</g>
<g id="a8_000"  >
<polygon points="0,90 15,90 20,85 15,80 0,80 0,90 " style="fill:white; stroke-width:1; stroke:black; " description="&lt;b&gt;LCP9604111_4728&lt;/b&gt;&lt;br&gt;uncharacterized protein&lt;br&gt;Location: 236518 - 238269" locus_tag="LCP9604111_4728" class="clusterblast-orf" id="dummy-8_h8_5_0"  />
</g>
<g id="a8_001"  >
<polygon points="35,85 40,80 53,80 53,90 40,90 35,85 " style="fill:white; stroke-width:1; stroke:black; " description="&lt;b&gt;LCP9604111_4729&lt;/b&gt;&lt;br&gt;uncharacterized protein&lt;br&gt;Location: 239652 - 241196" locus_tag="LCP9604111_4729" class="clusterblast-orf" id="dummy-8_h8_5_1"  />
</g>
<g id="a8_002"  >
<polygon points="58,85 63,80 71,80 71,90 63,90 58,85 " style="fill:white; stroke-width:1; stroke:black; " description="&lt;b&gt;LCP9604111_4730&lt;/b&gt;&lt;br&gt;uncharacterized protein&lt;br&gt;Location: 241589 - 242716" locus_tag="LCP9604111_4730" class="clusterblast-orf" id="dummy-8_h8_5_2"  />
</g>
<g id="a8_003"  >
<polygon points="79,90 84,90 89,85 84,80 79,80 79,90 " style="fill:white; stroke-width:1; stroke:black; " description="&lt;b&gt;LCP9604111_4731&lt;/b&gt;&lt;br&gt;uncharacterized protein&lt;br&gt;Location: 243421 - 244281" locus_tag="LCP9604111_4731" class="clusterblast-orf" id="dummy-8_h8_5_3"  />
</g>
<g id="a8_004"  >
<polygon points="92,85 97,80 106,80 106,90 97,90 92,85 " style="fill:white; stroke-width:1; stroke:black; " description="&lt;b&gt;LCP9604111_4732&lt;/b&gt;&lt;br&gt;uncharacterized protein&lt;br&gt;Location: 244603 - 245775" locus_tag="LCP9604111_4732" class="clusterblast-orf" id="dummy-8_h8_5_4"  />
</g>
<g id="a8_005"  >
<polygon points="121,85 126,80 133,80 133,90 126,90 121,85 " style="fill:white; stroke-width:1; stroke:black; " description="&lt;b&gt;LCP9604111_4733&lt;/b&gt;&lt;br&gt;uncharacterized protein&lt;br&gt;Location: 247136 - 248131" locus_tag="LCP9604111_4733" class="clusterblast-orf" id="dummy-8_h8_5_5"  />
</g>
<g id="a8_006"  >
<polygon points="140,85 145,80 161,80 161,90 145,90 140,85 " style="fill:white; stroke-width:1; stroke:black; " description="&lt;b&gt;LCP9604111_4734&lt;/b&gt;&lt;br&gt;uncharacterized protein&lt;br&gt;Location: 248737 - 250547" locus_tag="LCP9604111_4734" class="clusterblast-orf" id="dummy-8_h8_5_6"  />
</g>
<g id="a8_007"  >
<polygon points="193,90 207,90 212,85 207,80 193,80 193,90 " style="fill:white; stroke-width:1; stroke:black; " description="&lt;b&gt;LCP9604111_4735&lt;/b&gt;&lt;br&gt;uncharacterized protein&lt;br&gt;Location: 253385 - 255000" locus_tag="LCP9604111_4735" class="clusterblast-orf" id="dummy-8_h8_5_7"  />
</g>
<g id="a8_008"  >
<polygon points="221,85 226,80 244,80 244,90 226,90 221,85 " style="fill:white; stroke-width:1; stroke:black; " description="&lt;b&gt;LCP9604111_4736&lt;/b&gt;&lt;br&gt;uncharacterized protein&lt;br&gt;Location: 255780 - 257831" locus_tag="LCP9604111_4736" class="clusterblast-orf" id="dummy-8_h8_5_8"  />
</g>
<g id="a8_009"  >
<polygon points="250,85 255,80 265,80 265,90 255,90 250,85 " style="fill:white; stroke-width:1; stroke:black; " description="&lt;b&gt;LCP9604111_4737&lt;/b&gt;&lt;br&gt;transcriptional regulator family: Fungal Specific TF&lt;br&gt;Location: 258327 - 259623" locus_tag="LCP9604111_4737" class="clusterblast-orf" id="dummy-8_h8_5_9"  />
</g>
<g id="a8_0010"  >
<polygon points="276,85 281,80 295,80 295,90 281,90 276,85 " style="fill:white; stroke-width:1; stroke:black; " description="&lt;b&gt;LCP9604111_4738&lt;/b&gt;&lt;br&gt;uncharacterized protein&lt;br&gt;Location: 260644 - 262295" locus_tag="LCP9604111_4738" class="clusterblast-orf" id="dummy-8_h8_5_10"  />
</g>
<g id="a8_0011"  >
<polygon points="305,90 327,90 332,85 327,80 305,80 305,90 " style="fill:white; stroke-width:1; stroke:black; " description="&lt;b&gt;LCP9604111_4739&lt;/b&gt;&lt;br&gt;transcriptional regulator family: Fungal Specific TF&lt;br&gt;Location: 263128 - 265525" locus_tag="LCP9604111_4739" class="clusterblast-orf" id="dummy-8_h8_5_11"  />
</g>
<g id="a8_0012"  >
<polygon points="335,90 471,90 476,85 471,80 335,80 335,90 " style="fill:#1515d8; stroke-width:1; stroke:black; " description="&lt;b&gt;LCP9604111_4740&lt;/b&gt;&lt;br&gt;uncharacterized protein&lt;br&gt;Location: 265774 - 278013&lt;br&gt;&lt;br&gt;&lt;b&gt;BlastP hit with input.path1.gene2065&lt;/b&gt;&lt;br&gt;Percentage identity: 36&lt;br&gt;Percentage coverage: 101&lt;br&gt;BLAST bit score: 2255&lt;br&gt;E-value: 0.0" locus_tag="LCP9604111_4740" class="clusterblast-orf" id="dummy-8_h8_5_12"  />
</g>
<g id="a8_0013"  >
<polygon points="491,85 496,80 509,80 509,90 496,90 491,85 " style="fill:white; stroke-width:1; stroke:black; " description="&lt;b&gt;LCP9604111_4741&lt;/b&gt;&lt;br&gt;transcriptional regulator family: Fungal Specific TF&lt;br&gt;Location: 279322 - 280889" locus_tag="LCP9604111_4741" class="clusterblast-orf" id="dummy-8_h8_5_13"  />
</g>
<g id="a8_0014"  >
<polygon points="517,85 522,80 527,80 527,90 522,90 517,85 " style="fill:white; stroke-width:1; stroke:black; " description="&lt;b&gt;LCP9604111_4742&lt;/b&gt;&lt;br&gt;uncharacterized protein&lt;br&gt;Location: 281609 - 282453" locus_tag="LCP9604111_4742" class="clusterblast-orf" id="dummy-8_h8_5_14"  />
</g>
<g id="a8_0015"  >
<polygon points="547,85 552,80 568,80 568,90 552,90 547,85 " style="fill:white; stroke-width:1; stroke:black; " description="&lt;b&gt;LCP9604111_4743&lt;/b&gt;&lt;br&gt;CAZyme family AA7&lt;br&gt;Location: 284198 - 286055" locus_tag="LCP9604111_4743" class="clusterblast-orf" id="dummy-8_h8_5_15"  />
</g>
<g id="a8_0016"  >
<polygon points="581,85 586,80 590,80 590,90 586,90 581,85 " style="fill:white; stroke-width:1; stroke:black; " description="&lt;b&gt;LCP9604111_4744&lt;/b&gt;&lt;br&gt;uncharacterized protein&lt;br&gt;Location: 287145 - 288003" locus_tag="LCP9604111_4744" class="clusterblast-orf" id="dummy-8_h8_5_16"  />
</g>
<g id="a8_0017"  >
<polygon points="605,90 619,90 624,85 619,80 605,80 605,90 " style="fill:white; stroke-width:1; stroke:black; " description="&lt;b&gt;LCP9604111_4745&lt;/b&gt;&lt;br&gt;uncharacterized protein&lt;br&gt;Location: 289284 - 290900" locus_tag="LCP9604111_4745" class="clusterblast-orf" id="dummy-8_h8_5_17"  />
</g>
<g id="a8_0018"  >
<polygon points="638,90 643,90 648,85 643,80 638,80 638,90 " style="fill:white; stroke-width:1; stroke:black; " description="&lt;b&gt;LCP9604111_4746&lt;/b&gt;&lt;br&gt;uncharacterized protein&lt;br&gt;Location: 292149 - 292991" locus_tag="LCP9604111_4746" class="clusterblast-orf" id="dummy-8_h8_5_18"  />
</g>
<g id="a8_0019"  >
<polygon points="659,85 664,80 706,80 706,90 664,90 659,85 " style="fill:white; stroke-width:1; stroke:black; " description="&lt;b&gt;LCP9604111_4747&lt;/b&gt;&lt;br&gt;uncharacterized protein&lt;br&gt;Location: 293955 - 298048" locus_tag="LCP9604111_4747" class="clusterblast-orf" id="dummy-8_h8_5_19"  />
</g>
<g id="a8_0020"  >
<polygon points="712,90 727,90 732,85 727,80 712,80 712,90 " style="fill:#d81597; stroke-width:1; stroke:black; " description="&lt;b&gt;LCP9604111_4748&lt;/b&gt;&lt;br&gt;uncharacterized protein&lt;br&gt;Location: 298554 - 300290&lt;br&gt;&lt;br&gt;&lt;b&gt;BlastP hit with input.path1.gene2068&lt;/b&gt;&lt;br&gt;Percentage identity: 46&lt;br&gt;Percentage coverage: 95&lt;br&gt;BLAST bit score: 400&lt;br&gt;E-value: 2.2e-133" locus_tag="LCP9604111_4748" class="clusterblast-orf" id="dummy-8_h8_5_20"  />
</g>
<g id="a8_0021"  >
<polygon points="739,90 761,90 766,85 761,80 739,80 739,90 " style="fill:white; stroke-width:1; stroke:black; " description="&lt;b&gt;LCP9604111_4749&lt;/b&gt;&lt;br&gt;transcriptional regulator family: Fungal Specific TF&lt;br&gt;Location: 300983 - 303319" locus_tag="LCP9604111_4749" class="clusterblast-orf" id="dummy-8_h8_5_21"  />
</g>
<g id="a8_0022"  >
<polygon points="769,85 774,80 780,80 780,90 774,90 769,85 " style="fill:white; stroke-width:1; stroke:black; " description="&lt;b&gt;LCP9604111_4750&lt;/b&gt;&lt;br&gt;uncharacterized protein&lt;br&gt;Location: 303553 - 304469" locus_tag="LCP9604111_4750" class="clusterblast-orf" id="dummy-8_h8_5_22"  />
</g>
</svg>
