<svg xmlns="http://www.w3.org/2000/svg" xmlns:xlink="http://www.w3.org/1999/xlink" version="1.1" x="0" y="0" height="230" width="800" viewBox="0 0 800 230" preserveAspectRatio="none"  >
<g label="Query sequence" class="clusterblast-cluster"  >
<text x="5" y="20" class="clusterblast-acc"  >
Query sequence</text>
<line x1="10" y1="35" x2="778.0" y2="35" style="stroke-width:1; stroke:grey; "  />
<polygon points="212,40 216,40 221,35 216,30 212,30 212,40 " style="fill:#d81515; stroke-width:1; stroke:black; " description="&lt;b&gt;input.path1.gene572&lt;/b&gt;&lt;br&gt;input.path1.gene572&lt;br&gt;Location: 1895213 - 1896810" locus_tag="input.path1.gene572" class="clusterblast-orf" id="dummy-7_q0_0_all"  />
<polygon points="223,35 228,30 233,30 233,40 228,40 223,35 " style="fill:white; stroke-width:1; stroke:black; " description="&lt;b&gt;input.path1.gene573&lt;/b&gt;&lt;br&gt;input.path1.gene573&lt;br&gt;Location: 1897101 - 1898847" locus_tag="input.path1.gene573" class="clusterblast-orf" id="dummy-7_q1_0_all"  />
<polygon points="237,40 249,40 254,35 249,30 237,30 237,40 " style="fill:white; stroke-width:1; stroke:black; " description="&lt;b&gt;input.path1.gene574&lt;/b&gt;&lt;br&gt;input.path1.gene574&lt;br&gt;Location: 1899480 - 1902357" locus_tag="input.path1.gene574" class="clusterblast-orf" id="dummy-7_q2_0_all"  />
<polygon points="267,35 271,30 271,40 267,35 " style="fill:white; stroke-width:1; stroke:black; " description="&lt;b&gt;input.path1.gene575&lt;/b&gt;&lt;br&gt;input.path1.gene575&lt;br&gt;Location: 1904621 - 1905338" locus_tag="input.path1.gene575" class="clusterblast-orf" id="dummy-7_q3_0_all"  />
<polygon points="272,40 281,40 286,35 281,30 272,30 272,40 " style="fill:white; stroke-width:1; stroke:black; " description="&lt;b&gt;input.path1.gene576&lt;/b&gt;&lt;br&gt;input.path1.gene576&lt;br&gt;Location: 1905467 - 1907881" locus_tag="input.path1.gene576" class="clusterblast-orf" id="dummy-7_q4_0_all"  />
<polygon points="287,35 292,30 324,30 324,40 292,40 287,35 " style="fill:#15d815; stroke-width:1; stroke:black; " description="&lt;b&gt;input.path1.gene577&lt;/b&gt;&lt;br&gt;input.path1.gene577&lt;br&gt;Location: 1907968 - 1914295" locus_tag="input.path1.gene577" class="clusterblast-orf" id="dummy-7_q5_0_all"  />
<polygon points="335,40 339,35 335,30 335,40 " style="fill:white; stroke-width:1; stroke:black; " description="&lt;b&gt;input.path1.gene578&lt;/b&gt;&lt;br&gt;input.path1.gene578&lt;br&gt;Location: 1916137 - 1916822" locus_tag="input.path1.gene578" class="clusterblast-orf" id="dummy-7_q6_0_all"  />
<polygon points="346,40 350,35 346,30 346,40 " style="fill:white; stroke-width:1; stroke:black; " description="&lt;b&gt;input.path1.gene579&lt;/b&gt;&lt;br&gt;input.path1.gene579&lt;br&gt;Location: 1918015 - 1918744" locus_tag="input.path1.gene579" class="clusterblast-orf" id="dummy-7_q7_0_all"  />
<polygon points="351,35 356,30 361,30 361,40 356,40 351,35 " style="fill:#1515d8; stroke-width:1; stroke:black; " description="&lt;b&gt;input.path1.gene580&lt;/b&gt;&lt;br&gt;input.path1.gene580&lt;br&gt;Location: 1918801 - 1920499" locus_tag="input.path1.gene580" class="clusterblast-orf" id="dummy-7_q8_0_all"  />
<polygon points="364,40 368,40 373,35 368,30 364,30 364,40 " style="fill:#d815d8; stroke-width:1; stroke:black; " description="&lt;b&gt;input.path1.gene581&lt;/b&gt;&lt;br&gt;input.path1.gene581&lt;br&gt;Location: 1921070 - 1922615" locus_tag="input.path1.gene581" class="clusterblast-orf" id="dummy-7_q9_0_all"  />
<polygon points="374,35 377,30 377,40 374,35 " style="fill:white; stroke-width:1; stroke:black; " description="&lt;b&gt;input.path1.gene582&lt;/b&gt;&lt;br&gt;input.path1.gene582&lt;br&gt;Location: 1922794 - 1923299" locus_tag="input.path1.gene582" class="clusterblast-orf" id="dummy-7_q10_0_all"  />
<polygon points="386,40 401,40 406,35 401,30 386,30 386,40 " style="fill:#d8d815; stroke-width:1; stroke:black; " description="&lt;b&gt;input.path1.gene583&lt;/b&gt;&lt;br&gt;input.path1.gene583&lt;br&gt;Location: 1924817 - 1928231" locus_tag="input.path1.gene583" class="clusterblast-orf" id="dummy-7_q11_0_all"  />
<polygon points="408,35 413,30 417,30 417,40 413,40 408,35 " style="fill:white; stroke-width:1; stroke:black; " description="&lt;b&gt;input.path1.gene584&lt;/b&gt;&lt;br&gt;input.path1.gene584&lt;br&gt;Location: 1928470 - 1930000" locus_tag="input.path1.gene584" class="clusterblast-orf" id="dummy-7_q12_0_all"  />
<polygon points="425,40 447,40 452,35 447,30 425,30 425,40 " style="fill:white; stroke-width:1; stroke:black; " description="&lt;b&gt;input.path1.gene585&lt;/b&gt;&lt;br&gt;input.path1.gene585&lt;br&gt;Location: 1931379 - 1936059" locus_tag="input.path1.gene585" class="clusterblast-orf" id="dummy-7_q13_0_all"  />
<polygon points="491,40 497,40 502,35 497,30 491,30 491,40 " style="fill:#15d8d8; stroke-width:1; stroke:black; " description="&lt;b&gt;input.path1.gene586&lt;/b&gt;&lt;br&gt;input.path1.gene586&lt;br&gt;Location: 1942539 - 1944541" locus_tag="input.path1.gene586" class="clusterblast-orf" id="dummy-7_q14_0_all"  />
<polygon points="551,40 562,40 567,35 562,30 551,30 551,40 " style="fill:white; stroke-width:1; stroke:black; " description="&lt;b&gt;input.path1.gene587&lt;/b&gt;&lt;br&gt;input.path1.gene587&lt;br&gt;Location: 1952743 - 1955563" locus_tag="input.path1.gene587" class="clusterblast-orf" id="dummy-7_q15_0_all"  />
</g>
<g label="NW_020291591" description="NW_020291591 (2848664-2981566): Aspergillus piperis CBS 112811 unplaced genom... (4% of genes show similarity), T1PKS,fungal-RiPP-like" class="clusterblast-cluster"  >
<text x="5" y="70" class="clusterblast-acc"  >
<a xlink:href="https://antismash-db.secondarymetabolites.org/area?record=NW_020291591&amp;start=2848664&amp;end=2981566" target="_blank">NW_020291591 (2848664-2981566)</a>: Aspergillus piperis CBS 112811 unplaced genom... (4% of genes show similarity), T1PKS,fungal-RiPP-like</text>
<line x1="10" y1="85" x2="778.0" y2="85" style="stroke-width:1; stroke:grey; "  />
</g>
<g id="a7_000"  >
<polygon points="0,85 5,80 9,80 9,90 5,90 0,85 " style="fill:white; stroke-width:1; stroke:black; " description="&lt;b&gt;BO85DRAFT_360787&lt;/b&gt;&lt;br&gt;hypothetical protein&lt;br&gt;Location: 2849152 - 2850739" locus_tag="BO85DRAFT_360787" class="clusterblast-orf" id="dummy-7_h7_7_0"  />
</g>
<g id="a7_001"  >
<polygon points="18,85 23,80 25,80 25,90 23,90 18,85 " style="fill:white; stroke-width:1; stroke:black; " description="&lt;b&gt;BO85DRAFT_483353&lt;/b&gt;&lt;br&gt;alcohol dehydrogenase&lt;br&gt;Location: 2852225 - 2853430" locus_tag="BO85DRAFT_483353" class="clusterblast-orf" id="dummy-7_h7_7_1"  />
</g>
<g id="a7_002"  >
<polygon points="28,90 32,85 28,80 28,90 " style="fill:white; stroke-width:1; stroke:black; " description="&lt;b&gt;BO85DRAFT_495414&lt;/b&gt;&lt;br&gt;NAD(P)-binding protein&lt;br&gt;Location: 2853914 - 2854711" locus_tag="BO85DRAFT_495414" class="clusterblast-orf" id="dummy-7_h7_7_2"  />
</g>
<g id="a7_003"  >
<polygon points="38,85 43,80 52,80 52,90 43,90 38,85 " style="fill:white; stroke-width:1; stroke:black; " description="&lt;b&gt;BO85DRAFT_387894&lt;/b&gt;&lt;br&gt;hypothetical protein&lt;br&gt;Location: 2855695 - 2857989" locus_tag="BO85DRAFT_387894" class="clusterblast-orf" id="dummy-7_h7_7_3"  />
</g>
<g id="a7_004"  >
<polygon points="54,90 54,90 59,85 54,80 54,80 54,90 " style="fill:white; stroke-width:1; stroke:black; " description="&lt;b&gt;BO85DRAFT_495415&lt;/b&gt;&lt;br&gt;oxidoreductase&lt;br&gt;Location: 2858352 - 2859275" locus_tag="BO85DRAFT_495415" class="clusterblast-orf" id="dummy-7_h7_7_4"  />
</g>
<g id="a7_005"  >
<polygon points="62,90 69,90 74,85 69,80 62,80 62,90 " style="fill:white; stroke-width:1; stroke:black; " description="&lt;b&gt;BO85DRAFT_495417&lt;/b&gt;&lt;br&gt;general substrate transporter&lt;br&gt;Location: 2859825 - 2861844" locus_tag="BO85DRAFT_495417" class="clusterblast-orf" id="dummy-7_h7_7_5"  />
</g>
<g id="a7_006"  >
<polygon points="107,85 112,80 117,80 117,90 112,90 107,85 " style="fill:white; stroke-width:1; stroke:black; " description="&lt;b&gt;BO85DRAFT_495419&lt;/b&gt;&lt;br&gt;FAD-binding domain-containing protein&lt;br&gt;Location: 2867306 - 2869008" locus_tag="BO85DRAFT_495419" class="clusterblast-orf" id="dummy-7_h7_7_6"  />
</g>
<g id="a7_007"  >
<polygon points="126,90 129,90 134,85 129,80 126,80 126,90 " style="fill:white; stroke-width:1; stroke:black; " description="&lt;b&gt;BO85DRAFT_495424&lt;/b&gt;&lt;br&gt;GroES-like protein&lt;br&gt;Location: 2870665 - 2871912" locus_tag="BO85DRAFT_495424" class="clusterblast-orf" id="dummy-7_h7_7_7"  />
</g>
<g id="a7_008"  >
<polygon points="139,90 146,90 151,85 146,80 139,80 139,90 " style="fill:white; stroke-width:1; stroke:black; " description="&lt;b&gt;BO85DRAFT_495426&lt;/b&gt;&lt;br&gt;hypothetical protein&lt;br&gt;Location: 2872889 - 2874764" locus_tag="BO85DRAFT_495426" class="clusterblast-orf" id="dummy-7_h7_7_8"  />
</g>
<g id="a7_009"  >
<polygon points="152,90 154,85 152,80 152,90 " style="fill:white; stroke-width:1; stroke:black; " description="&lt;b&gt;BO85DRAFT_25559&lt;/b&gt;&lt;br&gt;hypothetical protein&lt;br&gt;Location: 2874967 - 2875403" locus_tag="BO85DRAFT_25559" class="clusterblast-orf" id="dummy-7_h7_7_9"  />
</g>
<g id="a7_0010"  >
<polygon points="171,85 176,80 180,80 180,90 176,90 171,85 " style="fill:white; stroke-width:1; stroke:black; " description="&lt;b&gt;BO85DRAFT_360409&lt;/b&gt;&lt;br&gt;hypothetical protein&lt;br&gt;Location: 2878184 - 2879798" locus_tag="BO85DRAFT_360409" class="clusterblast-orf" id="dummy-7_h7_7_10"  />
</g>
<g id="a7_0011"  >
<polygon points="185,90 186,90 191,85 186,80 185,80 185,90 " style="fill:#1515d8; stroke-width:1; stroke:black; " description="&lt;b&gt;BO85DRAFT_360058&lt;/b&gt;&lt;br&gt;GroES-like protein&lt;br&gt;Location: 2880550 - 2881684&lt;br&gt;&lt;br&gt;&lt;b&gt;BlastP hit with input.path1.gene580&lt;/b&gt;&lt;br&gt;Percentage identity: 31&lt;br&gt;Percentage coverage: 93&lt;br&gt;BLAST bit score: 115&lt;br&gt;E-value: 2.8e-27" locus_tag="BO85DRAFT_360058" class="clusterblast-orf" id="dummy-7_h7_7_11"  />
</g>
<g id="a7_0012"  >
<polygon points="192,85 197,80 199,80 199,90 197,90 192,85 " style="fill:white; stroke-width:1; stroke:black; " description="&lt;b&gt;BO85DRAFT_495434&lt;/b&gt;&lt;br&gt;hypothetical protein&lt;br&gt;Location: 2881855 - 2883069" locus_tag="BO85DRAFT_495434" class="clusterblast-orf" id="dummy-7_h7_7_12"  />
</g>
<g id="a7_0013"  >
<polygon points="205,85 210,80 212,80 212,90 210,90 205,85 " style="fill:white; stroke-width:1; stroke:black; " description="&lt;b&gt;BO85DRAFT_495440&lt;/b&gt;&lt;br&gt;NADPH dehydrogenase&lt;br&gt;Location: 2884011 - 2885123" locus_tag="BO85DRAFT_495440" class="clusterblast-orf" id="dummy-7_h7_7_13"  />
</g>
<g id="a7_0014"  >
<polygon points="216,85 219,80 219,90 216,85 " style="fill:white; stroke-width:1; stroke:black; " description="&lt;b&gt;BO85DRAFT_483364&lt;/b&gt;&lt;br&gt;hypothetical protein&lt;br&gt;Location: 2885921 - 2886451" locus_tag="BO85DRAFT_483364" class="clusterblast-orf" id="dummy-7_h7_7_14"  />
</g>
<g id="a7_0015"  >
<polygon points="228,85 233,80 236,80 236,90 233,90 228,85 " style="fill:white; stroke-width:1; stroke:black; " description="&lt;b&gt;BO85DRAFT_495447&lt;/b&gt;&lt;br&gt;S-adenosyl-L-methionine-dependent methyltransferase&lt;br&gt;Location: 2887893 - 2889316" locus_tag="BO85DRAFT_495447" class="clusterblast-orf" id="dummy-7_h7_7_15"  />
</g>
<g id="a7_0016"  >
<polygon points="251,85 254,80 254,90 251,85 " style="fill:white; stroke-width:1; stroke:black; " description="&lt;b&gt;BO85DRAFT_515992&lt;/b&gt;&lt;br&gt;hypothetical protein&lt;br&gt;Location: 2891798 - 2892230" locus_tag="BO85DRAFT_515992" class="clusterblast-orf" id="dummy-7_h7_7_16"  />
</g>
<g id="a7_0017"  >
<polygon points="262,90 263,90 268,85 263,80 262,80 262,90 " style="fill:#d8d815; stroke-width:1; stroke:black; " description="&lt;b&gt;BO85DRAFT_495449&lt;/b&gt;&lt;br&gt;hypothetical protein&lt;br&gt;Location: 2893665 - 2894759&lt;br&gt;&lt;br&gt;&lt;b&gt;BlastP hit with input.path1.gene583&lt;/b&gt;&lt;br&gt;Percentage identity: 32&lt;br&gt;Percentage coverage: 27&lt;br&gt;BLAST bit score: 95&lt;br&gt;E-value: 2.37e-19" locus_tag="BO85DRAFT_495449" class="clusterblast-orf" id="dummy-7_h7_7_17"  />
</g>
<g id="a7_0018"  >
<polygon points="277,85 282,80 283,80 283,90 282,90 277,85 " style="fill:white; stroke-width:1; stroke:black; " description="&lt;b&gt;BO85DRAFT_515993&lt;/b&gt;&lt;br&gt;NAD(P)-binding protein&lt;br&gt;Location: 2896198 - 2897249" locus_tag="BO85DRAFT_515993" class="clusterblast-orf" id="dummy-7_h7_7_18"  />
</g>
<g id="a7_0019"  >
<polygon points="287,90 289,85 287,80 287,90 " style="fill:white; stroke-width:1; stroke:black; " description="&lt;b&gt;BO85DRAFT_495453&lt;/b&gt;&lt;br&gt;hypothetical protein&lt;br&gt;Location: 2897863 - 2898327" locus_tag="BO85DRAFT_495453" class="clusterblast-orf" id="dummy-7_h7_7_19"  />
</g>
<g id="a7_0020"  >
<polygon points="321,90 321,90 326,85 321,80 321,80 321,90 " style="fill:white; stroke-width:1; stroke:black; " description="&lt;b&gt;BO85DRAFT_25644&lt;/b&gt;&lt;br&gt;hypothetical protein&lt;br&gt;Location: 2903662 - 2904492" locus_tag="BO85DRAFT_25644" class="clusterblast-orf" id="dummy-7_h7_7_20"  />
</g>
<g id="a7_0021"  >
<polygon points="333,90 345,90 350,85 345,80 333,80 333,90 " style="fill:white; stroke-width:1; stroke:black; " description="&lt;b&gt;BO85DRAFT_359953&lt;/b&gt;&lt;br&gt;C6 transcription factor&lt;br&gt;Location: 2905694 - 2908652" locus_tag="BO85DRAFT_359953" class="clusterblast-orf" id="dummy-7_h7_7_21"  />
</g>
<g id="a7_0022"  >
<polygon points="360,85 365,80 381,80 381,90 365,90 360,85 " style="fill:white; stroke-width:1; stroke:black; " description="&lt;b&gt;BO85DRAFT_495454&lt;/b&gt;&lt;br&gt;P-loop containing nucleoside triphosphate hydrolase protein&lt;br&gt;Location: 2910282 - 2913834" locus_tag="BO85DRAFT_495454" class="clusterblast-orf" id="dummy-7_h7_7_22"  />
</g>
<g id="a7_0023"  >
<polygon points="396,85 400,80 400,90 396,85 " style="fill:white; stroke-width:1; stroke:black; " description="&lt;b&gt;BO85DRAFT_483372&lt;/b&gt;&lt;br&gt;hypothetical protein&lt;br&gt;Location: 2916380 - 2917013" locus_tag="BO85DRAFT_483372" class="clusterblast-orf" id="dummy-7_h7_7_23"  />
</g>
<g id="a7_0024"  >
<polygon points="407,90 410,85 407,80 407,90 " style="fill:white; stroke-width:1; stroke:black; " description="&lt;b&gt;BO85DRAFT_25658&lt;/b&gt;&lt;br&gt;hypothetical protein&lt;br&gt;Location: 2918297 - 2918809" locus_tag="BO85DRAFT_25658" class="clusterblast-orf" id="dummy-7_h7_7_24"  />
</g>
<g id="a7_0025"  >
<polygon points="412,90 416,90 421,85 416,80 412,80 412,90 " style="fill:white; stroke-width:1; stroke:black; " description="&lt;b&gt;BO85DRAFT_411547&lt;/b&gt;&lt;br&gt;cytochrome P450 ClCP1&lt;br&gt;Location: 2919179 - 2920720" locus_tag="BO85DRAFT_411547" class="clusterblast-orf" id="dummy-7_h7_7_25"  />
</g>
<g id="a7_0026"  >
<polygon points="423,85 428,80 432,80 432,90 428,90 423,85 " style="fill:white; stroke-width:1; stroke:black; " description="&lt;b&gt;BO85DRAFT_495463&lt;/b&gt;&lt;br&gt;rhamnogalacturonase E&lt;br&gt;Location: 2920905 - 2922429" locus_tag="BO85DRAFT_495463" class="clusterblast-orf" id="dummy-7_h7_7_26"  />
</g>
<g id="a7_0027"  >
<polygon points="443,90 445,90 450,85 445,80 443,80 443,90 " style="fill:white; stroke-width:1; stroke:black; " description="&lt;b&gt;BO85DRAFT_360946&lt;/b&gt;&lt;br&gt;hypothetical protein&lt;br&gt;Location: 2924447 - 2925630" locus_tag="BO85DRAFT_360946" class="clusterblast-orf" id="dummy-7_h7_7_27"  />
</g>
<g id="a7_0028"  >
<polygon points="458,85 461,80 461,90 458,85 " style="fill:white; stroke-width:1; stroke:black; " description="&lt;b&gt;BO85DRAFT_411550&lt;/b&gt;&lt;br&gt;RmlC-like cupin&lt;br&gt;Location: 2926844 - 2927347" locus_tag="BO85DRAFT_411550" class="clusterblast-orf" id="dummy-7_h7_7_28"  />
</g>
<g id="a7_0029"  >
<polygon points="463,85 468,80 471,80 471,90 468,90 463,85 " style="fill:white; stroke-width:1; stroke:black; " description="&lt;b&gt;BO85DRAFT_483376&lt;/b&gt;&lt;br&gt;hypothetical protein&lt;br&gt;Location: 2927687 - 2929099" locus_tag="BO85DRAFT_483376" class="clusterblast-orf" id="dummy-7_h7_7_29"  />
</g>
<g id="a7_0030"  >
<polygon points="480,85 485,80 485,80 485,90 485,90 480,85 " style="fill:white; stroke-width:1; stroke:black; " description="&lt;b&gt;BO85DRAFT_515996&lt;/b&gt;&lt;br&gt;fibronectin type III domain protein&lt;br&gt;Location: 2930606 - 2931427" locus_tag="BO85DRAFT_515996" class="clusterblast-orf" id="dummy-7_h7_7_30"  />
</g>
<g id="a7_0031"  >
<polygon points="492,90 496,85 492,80 492,90 " style="fill:white; stroke-width:1; stroke:black; " description="&lt;b&gt;BO85DRAFT_444792&lt;/b&gt;&lt;br&gt;hypothetical protein&lt;br&gt;Location: 2932616 - 2933350" locus_tag="BO85DRAFT_444792" class="clusterblast-orf" id="dummy-7_h7_7_31"  />
</g>
<g id="a7_0032"  >
<polygon points="505,90 511,90 516,85 511,80 505,80 505,90 " style="fill:white; stroke-width:1; stroke:black; " description="&lt;b&gt;BO85DRAFT_455525&lt;/b&gt;&lt;br&gt;cytochrome P450&lt;br&gt;Location: 2934917 - 2936749" locus_tag="BO85DRAFT_455525" class="clusterblast-orf" id="dummy-7_h7_7_32"  />
</g>
<g id="a7_0033"  >
<polygon points="520,90 526,90 531,85 526,80 520,80 520,90 " style="fill:white; stroke-width:1; stroke:black; " description="&lt;b&gt;BO85DRAFT_361525&lt;/b&gt;&lt;br&gt;methionine permease&lt;br&gt;Location: 2937495 - 2939345" locus_tag="BO85DRAFT_361525" class="clusterblast-orf" id="dummy-7_h7_7_33"  />
</g>
<g id="a7_0034"  >
<polygon points="535,85 540,80 541,80 541,90 540,90 535,85 " style="fill:white; stroke-width:1; stroke:black; " description="&lt;b&gt;BO85DRAFT_359855&lt;/b&gt;&lt;br&gt;oxidoreductase&lt;br&gt;Location: 2939972 - 2940909" locus_tag="BO85DRAFT_359855" class="clusterblast-orf" id="dummy-7_h7_7_34"  />
</g>
<g id="a7_0035"  >
<polygon points="543,85 548,80 548,80 548,90 548,90 543,85 " style="fill:white; stroke-width:1; stroke:black; " description="&lt;b&gt;BO85DRAFT_360636&lt;/b&gt;&lt;br&gt;putative EF-hand calcium-binding domain protein&lt;br&gt;Location: 2941324 - 2942164" locus_tag="BO85DRAFT_360636" class="clusterblast-orf" id="dummy-7_h7_7_35"  />
</g>
<g id="a7_0036"  >
<polygon points="551,90 598,90 603,85 598,80 551,80 551,90 " style="fill:white; stroke-width:1; stroke:black; " description="&lt;b&gt;BO85DRAFT_495488&lt;/b&gt;&lt;br&gt;lovastatin nonaketide synthase&lt;br&gt;Location: 2942714 - 2951566" locus_tag="BO85DRAFT_495488" class="clusterblast-orf" id="dummy-7_h7_7_36"  />
</g>
<g id="a7_0037"  >
<polygon points="624,85 629,80 636,80 636,90 629,90 624,85 " style="fill:white; stroke-width:1; stroke:black; " description="&lt;b&gt;BO85DRAFT_465360&lt;/b&gt;&lt;br&gt;hypothetical protein&lt;br&gt;Location: 2955091 - 2957113" locus_tag="BO85DRAFT_465360" class="clusterblast-orf" id="dummy-7_h7_7_37"  />
</g>
<g id="a7_0038"  >
<polygon points="639,90 639,90 644,85 639,80 639,80 639,90 " style="fill:white; stroke-width:1; stroke:black; " description="&lt;b&gt;BO85DRAFT_495495&lt;/b&gt;&lt;br&gt;NADH-quinone oxidoreductase&lt;br&gt;Location: 2957631 - 2958427" locus_tag="BO85DRAFT_495495" class="clusterblast-orf" id="dummy-7_h7_7_38"  />
</g>
<g id="a7_0039"  >
<polygon points="649,90 652,90 657,85 652,80 649,80 649,90 " style="fill:white; stroke-width:1; stroke:black; " description="&lt;b&gt;BO85DRAFT_444798&lt;/b&gt;&lt;br&gt;Fasciclin-domain-containing protein&lt;br&gt;Location: 2959342 - 2960587" locus_tag="BO85DRAFT_444798" class="clusterblast-orf" id="dummy-7_h7_7_39"  />
</g>
<g id="a7_0040"  >
<polygon points="660,85 663,80 663,90 660,85 " style="fill:white; stroke-width:1; stroke:black; " description="&lt;b&gt;BO85DRAFT_387925&lt;/b&gt;&lt;br&gt;hypothetical protein&lt;br&gt;Location: 2961138 - 2961751" locus_tag="BO85DRAFT_387925" class="clusterblast-orf" id="dummy-7_h7_7_40"  />
</g>
<g id="a7_0041"  >
<polygon points="671,85 675,80 675,90 671,85 " style="fill:white; stroke-width:1; stroke:black; " description="&lt;b&gt;BO85DRAFT_387927&lt;/b&gt;&lt;br&gt;hypothetical protein&lt;br&gt;Location: 2963021 - 2963755" locus_tag="BO85DRAFT_387927" class="clusterblast-orf" id="dummy-7_h7_7_41"  />
</g>
<g id="a7_0042"  >
<polygon points="693,90 696,85 693,80 693,90 " style="fill:white; stroke-width:1; stroke:black; " description="&lt;b&gt;BO85DRAFT_25919&lt;/b&gt;&lt;br&gt;hypothetical protein&lt;br&gt;Location: 2966829 - 2967317" locus_tag="BO85DRAFT_25919" class="clusterblast-orf" id="dummy-7_h7_7_42"  />
</g>
<g id="a7_0043"  >
<polygon points="705,90 712,90 717,85 712,80 705,80 705,90 " style="fill:white; stroke-width:1; stroke:black; " description="&lt;b&gt;BO85DRAFT_444801&lt;/b&gt;&lt;br&gt;hypothetical protein&lt;br&gt;Location: 2968800 - 2970908" locus_tag="BO85DRAFT_444801" class="clusterblast-orf" id="dummy-7_h7_7_43"  />
</g>
<g id="a7_0044"  >
<polygon points="720,85 725,80 731,80 731,90 725,90 720,85 " style="fill:white; stroke-width:1; stroke:black; " description="&lt;b&gt;BO85DRAFT_495506&lt;/b&gt;&lt;br&gt;vitamin H transporter&lt;br&gt;Location: 2971310 - 2973141" locus_tag="BO85DRAFT_495506" class="clusterblast-orf" id="dummy-7_h7_7_44"  />
</g>
<g id="a7_0045"  >
<polygon points="737,85 742,80 748,80 748,90 742,90 737,85 " style="fill:white; stroke-width:1; stroke:black; " description="&lt;b&gt;BO85DRAFT_495515&lt;/b&gt;&lt;br&gt;sugar transporter&lt;br&gt;Location: 2974299 - 2976041" locus_tag="BO85DRAFT_495515" class="clusterblast-orf" id="dummy-7_h7_7_45"  />
</g>
<g id="a7_0046"  >
<polygon points="760,90 764,85 760,80 760,90 " style="fill:white; stroke-width:1; stroke:black; " description="&lt;b&gt;BO85DRAFT_25937&lt;/b&gt;&lt;br&gt;glutathione S-transferase domain-containing protein&lt;br&gt;Location: 2978205 - 2978864" locus_tag="BO85DRAFT_25937" class="clusterblast-orf" id="dummy-7_h7_7_46"  />
</g>
<g id="a7_0047"  >
<polygon points="777,90 780,85 777,80 777,90 " style="fill:white; stroke-width:1; stroke:black; " description="&lt;b&gt;BO85DRAFT_25938&lt;/b&gt;&lt;br&gt;hypothetical protein&lt;br&gt;Location: 2980997 - 2981437" locus_tag="BO85DRAFT_25938" class="clusterblast-orf" id="dummy-7_h7_7_47"  />
</g>
</svg>
