<svg xmlns="http://www.w3.org/2000/svg" xmlns:xlink="http://www.w3.org/1999/xlink" version="1.1" x="0" y="0" height="230" width="800" viewBox="0 0 800 230" preserveAspectRatio="none"  >
<g label="Query sequence" class="clusterblast-cluster"  >
<text x="5" y="20" class="clusterblast-acc"  >
Query sequence</text>
<line x1="10" y1="35" x2="778.0" y2="35" style="stroke-width:1; stroke:grey; "  />
<polygon points="2,40 13,40 18,35 13,30 2,30 2,40 " style="fill:#d81515; stroke-width:1; stroke:black; " description="&lt;b&gt;input.path1.gene459&lt;/b&gt;&lt;br&gt;input.path1.gene459&lt;br&gt;Location: 1562182 - 1562942" locus_tag="input.path1.gene459" class="clusterblast-orf" id="dummy-7_q0_0_all"  />
<polygon points="21,35 26,30 53,30 53,40 26,40 21,35 " style="fill:#5cd815; stroke-width:1; stroke:black; " description="&lt;b&gt;input.path1.gene460&lt;/b&gt;&lt;br&gt;input.path1.gene460&lt;br&gt;Location: 1563067 - 1564513" locus_tag="input.path1.gene460" class="clusterblast-orf" id="dummy-7_q1_0_all"  />
<polygon points="59,40 90,40 95,35 90,30 59,30 59,40 " style="fill:#15a3d8; stroke-width:1; stroke:black; " description="&lt;b&gt;input.path1.gene461&lt;/b&gt;&lt;br&gt;input.path1.gene461&lt;br&gt;Location: 1564750 - 1566413" locus_tag="input.path1.gene461" class="clusterblast-orf" id="dummy-7_q2_0_all"  />
<polygon points="100,40 134,40 139,35 134,30 100,30 100,40 " style="fill:#15a3d8; stroke-width:1; stroke:black; " description="&lt;b&gt;input.path1.gene462&lt;/b&gt;&lt;br&gt;input.path1.gene462&lt;br&gt;Location: 1566637 - 1568404" locus_tag="input.path1.gene462" class="clusterblast-orf" id="dummy-7_q3_0_all"  />
<polygon points="142,35 147,30 171,30 171,40 147,40 142,35 " style="fill:#c715d8; stroke-width:1; stroke:black; " description="&lt;b&gt;input.path1.gene463&lt;/b&gt;&lt;br&gt;input.path1.gene463&lt;br&gt;Location: 1568501 - 1569851" locus_tag="input.path1.gene463" class="clusterblast-orf" id="dummy-7_q4_0_all"  />
<polygon points="196,40 205,40 210,35 205,30 196,30 196,40 " style="fill:#d88015; stroke-width:1; stroke:black; " description="&lt;b&gt;input.path1.gene464&lt;/b&gt;&lt;br&gt;input.path1.gene464&lt;br&gt;Location: 1570971 - 1571599" locus_tag="input.path1.gene464" class="clusterblast-orf" id="dummy-7_q5_0_all"  />
<polygon points="242,40 252,40 257,35 252,30 242,30 242,40 " style="fill:#d88015; stroke-width:1; stroke:black; " description="&lt;b&gt;input.path1.gene465&lt;/b&gt;&lt;br&gt;input.path1.gene465&lt;br&gt;Location: 1573015 - 1573704" locus_tag="input.path1.gene465" class="clusterblast-orf" id="dummy-7_q6_0_all"  />
<polygon points="268,35 273,30 283,30 283,40 273,40 268,35 " style="fill:white; stroke-width:1; stroke:black; " description="&lt;b&gt;input.path1.gene466&lt;/b&gt;&lt;br&gt;input.path1.gene466&lt;br&gt;Location: 1574200 - 1574893" locus_tag="input.path1.gene466" class="clusterblast-orf" id="dummy-7_q7_0_all"  />
<polygon points="299,35 304,30 334,30 334,40 304,40 299,35 " style="fill:#15d839; stroke-width:1; stroke:black; " description="&lt;b&gt;input.path1.gene467&lt;/b&gt;&lt;br&gt;input.path1.gene467&lt;br&gt;Location: 1575590 - 1577196" locus_tag="input.path1.gene467" class="clusterblast-orf" id="dummy-7_q8_0_all"  />
<polygon points="363,40 409,40 414,35 409,30 363,30 363,40 " style="fill:#1539d8; stroke-width:1; stroke:black; " description="&lt;b&gt;input.path1.gene468&lt;/b&gt;&lt;br&gt;input.path1.gene468&lt;br&gt;Location: 1578509 - 1580785" locus_tag="input.path1.gene468" class="clusterblast-orf" id="dummy-7_q9_0_all"  />
<polygon points="417,35 422,30 438,30 438,40 422,40 417,35 " style="fill:#d81580; stroke-width:1; stroke:black; " description="&lt;b&gt;input.path1.gene469&lt;/b&gt;&lt;br&gt;input.path1.gene469&lt;br&gt;Location: 1580932 - 1581898" locus_tag="input.path1.gene469" class="clusterblast-orf" id="dummy-7_q10_0_all"  />
<polygon points="446,40 461,40 466,35 461,30 446,30 446,40 " style="fill:#c7d815; stroke-width:1; stroke:black; " description="&lt;b&gt;input.path1.gene470&lt;/b&gt;&lt;br&gt;input.path1.gene470&lt;br&gt;Location: 1582266 - 1583156" locus_tag="input.path1.gene470" class="clusterblast-orf" id="dummy-7_q11_0_all"  />
<polygon points="491,40 525,40 530,35 525,30 491,30 491,40 " style="fill:#15d8a3; stroke-width:1; stroke:black; " description="&lt;b&gt;input.path1.gene471&lt;/b&gt;&lt;br&gt;input.path1.gene471&lt;br&gt;Location: 1584265 - 1586037" locus_tag="input.path1.gene471" class="clusterblast-orf" id="dummy-7_q12_0_all"  />
<polygon points="557,40 582,40 587,35 582,30 557,30 557,40 " style="fill:#5c15d8; stroke-width:1; stroke:black; " description="&lt;b&gt;input.path1.gene472&lt;/b&gt;&lt;br&gt;input.path1.gene472&lt;br&gt;Location: 1587249 - 1588640" locus_tag="input.path1.gene472" class="clusterblast-orf" id="dummy-7_q13_0_all"  />
<polygon points="614,40 619,40 624,35 619,30 614,30 614,40 " style="fill:white; stroke-width:1; stroke:black; " description="&lt;b&gt;input.path1.gene473&lt;/b&gt;&lt;br&gt;input.path1.gene473&lt;br&gt;Location: 1589829 - 1590293" locus_tag="input.path1.gene473" class="clusterblast-orf" id="dummy-7_q14_0_all"  />
<polygon points="646,40 700,40 705,35 700,30 646,30 646,40 " style="fill:white; stroke-width:1; stroke:black; " description="&lt;b&gt;input.path1.gene474&lt;/b&gt;&lt;br&gt;input.path1.gene474&lt;br&gt;Location: 1591261 - 1593935" locus_tag="input.path1.gene474" class="clusterblast-orf" id="dummy-7_q15_0_all"  />
<polygon points="706,35 711,30 778,30 778,40 711,40 706,35 " style="fill:white; stroke-width:1; stroke:black; " description="&lt;b&gt;input.path1.gene475&lt;/b&gt;&lt;br&gt;input.path1.gene475&lt;br&gt;Location: 1594011 - 1597234" locus_tag="input.path1.gene475" class="clusterblast-orf" id="dummy-7_q16_0_all"  />
</g>
<g label="NW_006921536" description="NW_006921536 (1019168-1074511): Pseudocercospora fijiensis CIRAD86 unplaced g... (23% of genes show similarity), fungal-RiPP" class="clusterblast-cluster"  >
<text x="5" y="70" class="clusterblast-acc"  >
<a xlink:href="https://antismash-db.secondarymetabolites.org/area?record=NW_006921536&amp;start=1019168&amp;end=1074511" target="_blank">NW_006921536 (1019168-1074511)</a>: Pseudocercospora fijiensis CIRAD86 unplaced g... (23% of genes show similarity), fungal-RiPP</text>
<line x1="10" y1="85" x2="778.0" y2="85" style="stroke-width:1; stroke:grey; "  />
</g>
<g id="a7_000"  >
<polygon points="0,90 43,90 48,85 43,80 0,80 0,90 " style="fill:white; stroke-width:1; stroke:black; " description="&lt;b&gt;MYCFIDRAFT_32735&lt;/b&gt;&lt;br&gt;uncharacterized protein&lt;br&gt;Location: 1020191 - 1022368" locus_tag="MYCFIDRAFT_32735" class="clusterblast-orf" id="dummy-7_h7_8_0"  />
</g>
<g id="a7_001"  >
<polygon points="96,85 101,80 121,80 121,90 101,90 96,85 " style="fill:white; stroke-width:1; stroke:black; " description="&lt;b&gt;MYCFIDRAFT_78781&lt;/b&gt;&lt;br&gt;uncharacterized protein&lt;br&gt;Location: 1024548 - 1025697" locus_tag="MYCFIDRAFT_78781" class="clusterblast-orf" id="dummy-7_h7_8_1"  />
</g>
<g id="a7_002"  >
<polygon points="130,90 176,90 181,85 176,80 130,80 130,90 " style="fill:white; stroke-width:1; stroke:black; " description="&lt;b&gt;MYCFIDRAFT_138994&lt;/b&gt;&lt;br&gt;uncharacterized protein&lt;br&gt;Location: 1026086 - 1028394" locus_tag="MYCFIDRAFT_138994" class="clusterblast-orf" id="dummy-7_h7_8_2"  />
</g>
<g id="a7_003"  >
<polygon points="194,85 199,80 211,80 211,90 199,90 194,85 " style="fill:white; stroke-width:1; stroke:black; " description="&lt;b&gt;MYCFIDRAFT_78779&lt;/b&gt;&lt;br&gt;uncharacterized protein&lt;br&gt;Location: 1028981 - 1029753" locus_tag="MYCFIDRAFT_78779" class="clusterblast-orf" id="dummy-7_h7_8_3"  />
</g>
<g id="a7_004"  >
<polygon points="230,90 250,90 255,85 250,80 230,80 230,90 " style="fill:white; stroke-width:1; stroke:black; " description="&lt;b&gt;MYCFIDRAFT_32930&lt;/b&gt;&lt;br&gt;uncharacterized protein&lt;br&gt;Location: 1030585 - 1031741" locus_tag="MYCFIDRAFT_32930" class="clusterblast-orf" id="dummy-7_h7_8_4"  />
</g>
<g id="a7_005"  >
<polygon points="266,85 271,80 273,80 273,90 271,90 266,85 " style="fill:white; stroke-width:1; stroke:black; " description="&lt;b&gt;MYCFIDRAFT_211454&lt;/b&gt;&lt;br&gt;uncharacterized protein&lt;br&gt;Location: 1032206 - 1032536" locus_tag="MYCFIDRAFT_211454" class="clusterblast-orf" id="dummy-7_h7_8_5"  />
</g>
<g id="a7_006"  >
<polygon points="286,85 291,80 330,80 330,90 291,90 286,85 " style="fill:#1539d8; stroke-width:1; stroke:black; " description="&lt;b&gt;MYCFIDRAFT_116413&lt;/b&gt;&lt;br&gt;uncharacterized protein&lt;br&gt;Location: 1033141 - 1035119&lt;br&gt;&lt;br&gt;&lt;b&gt;BlastP hit with input.path1.gene468&lt;/b&gt;&lt;br&gt;Percentage identity: 64&lt;br&gt;Percentage coverage: 13&lt;br&gt;BLAST bit score: 94&lt;br&gt;E-value: 5.87e-18" locus_tag="MYCFIDRAFT_116413" class="clusterblast-orf" id="dummy-7_h7_8_6"  />
</g>
<g id="a7_007"  >
<polygon points="341,90 441,90 446,85 441,80 341,80 341,90 " style="fill:white; stroke-width:1; stroke:black; " description="&lt;b&gt;MYCFIDRAFT_203802&lt;/b&gt;&lt;br&gt;putative ABC transporter&lt;br&gt;Location: 1035593 - 1040346" locus_tag="MYCFIDRAFT_203802" class="clusterblast-orf" id="dummy-7_h7_8_7"  />
</g>
<g id="a7_008"  >
<polygon points="446,85 451,80 469,80 469,90 451,90 446,85 " style="fill:#d81580; stroke-width:1; stroke:black; " description="&lt;b&gt;MYCFIDRAFT_57166&lt;/b&gt;&lt;br&gt;uncharacterized protein&lt;br&gt;Location: 1040361 - 1041389&lt;br&gt;&lt;br&gt;&lt;b&gt;BlastP hit with input.path1.gene469&lt;/b&gt;&lt;br&gt;Percentage identity: 40&lt;br&gt;Percentage coverage: 92&lt;br&gt;BLAST bit score: 186&lt;br&gt;E-value: 1.55e-54" locus_tag="MYCFIDRAFT_57166" class="clusterblast-orf" id="dummy-7_h7_8_8"  />
</g>
<g id="a7_009"  >
<polygon points="475,85 480,80 497,80 497,90 480,90 475,85 " style="fill:white; stroke-width:1; stroke:black; " description="&lt;b&gt;MYCFIDRAFT_215482&lt;/b&gt;&lt;br&gt;uncharacterized protein&lt;br&gt;Location: 1041669 - 1042653" locus_tag="MYCFIDRAFT_215482" class="clusterblast-orf" id="dummy-7_h7_8_9"  />
</g>
<g id="a7_0010"  >
<polygon points="502,90 521,90 526,85 521,80 502,80 502,90 " style="fill:white; stroke-width:1; stroke:black; " description="&lt;b&gt;MYCFIDRAFT_215483&lt;/b&gt;&lt;br&gt;uncharacterized protein&lt;br&gt;Location: 1042886 - 1043959" locus_tag="MYCFIDRAFT_215483" class="clusterblast-orf" id="dummy-7_h7_8_10"  />
</g>
<g id="a7_0011"  >
<polygon points="540,85 545,80 565,80 565,90 545,90 540,85 " style="fill:#c715d8; stroke-width:1; stroke:black; " description="&lt;b&gt;MYCFIDRAFT_137987&lt;/b&gt;&lt;br&gt;uncharacterized protein&lt;br&gt;Location: 1044597 - 1045734&lt;br&gt;&lt;br&gt;&lt;b&gt;BlastP hit with input.path1.gene463&lt;/b&gt;&lt;br&gt;Percentage identity: 56&lt;br&gt;Percentage coverage: 83&lt;br&gt;BLAST bit score: 336&lt;br&gt;E-value: 1.61e-113" locus_tag="MYCFIDRAFT_137987" class="clusterblast-orf" id="dummy-7_h7_8_11"  />
</g>
<g id="a7_0012"  >
<polygon points="587,85 592,80 596,80 596,90 592,90 587,85 " style="fill:white; stroke-width:1; stroke:black; " description="&lt;b&gt;MYCFIDRAFT_138519&lt;/b&gt;&lt;br&gt;uncharacterized protein&lt;br&gt;Location: 1046727 - 1047115" locus_tag="MYCFIDRAFT_138519" class="clusterblast-orf" id="dummy-7_h7_8_12"  />
</g>
<g id="a7_0013"  >
<polygon points="629,85 634,80 663,80 663,90 634,90 629,85 " style="fill:white; stroke-width:1; stroke:black; " description="&lt;b&gt;MYCFIDRAFT_188727&lt;/b&gt;&lt;br&gt;uncharacterized protein&lt;br&gt;Location: 1048638 - 1050149" locus_tag="MYCFIDRAFT_188727" class="clusterblast-orf" id="dummy-7_h7_8_13"  />
</g>
<g id="a7_0014"  >
<polygon points="686,90 699,90 704,85 699,80 686,80 686,90 " style="fill:#d88015; stroke-width:1; stroke:black; " description="&lt;b&gt;MYCFIDRAFT_50335&lt;/b&gt;&lt;br&gt;uncharacterized protein&lt;br&gt;Location: 1051175 - 1052011&lt;br&gt;&lt;br&gt;&lt;b&gt;BlastP hit with input.path1.gene465&lt;/b&gt;&lt;br&gt;Percentage identity: 51&lt;br&gt;Percentage coverage: 99&lt;br&gt;BLAST bit score: 191&lt;br&gt;E-value: 5.28e-60" locus_tag="MYCFIDRAFT_50335" class="clusterblast-orf" id="dummy-7_h7_8_14"  />
</g>
<g id="a7_0015"  >
<polygon points="740,90 748,90 753,85 748,80 740,80 740,90 " style="fill:white; stroke-width:1; stroke:black; " description="&lt;b&gt;MYCFIDRAFT_215487&lt;/b&gt;&lt;br&gt;uncharacterized protein&lt;br&gt;Location: 1053650 - 1054216" locus_tag="MYCFIDRAFT_215487" class="clusterblast-orf" id="dummy-7_h7_8_15"  />
</g>
<g id="a7_0016"  >
<polygon points="768,90 775,90 780,85 775,80 768,80 768,90 " style="fill:white; stroke-width:1; stroke:black; " description="&lt;b&gt;MYCFIDRAFT_211460&lt;/b&gt;&lt;br&gt;uncharacterized protein&lt;br&gt;Location: 1054887 - 1055420" locus_tag="MYCFIDRAFT_211460" class="clusterblast-orf" id="dummy-7_h7_8_16"  />
</g>
</svg>
