<svg xmlns="http://www.w3.org/2000/svg" xmlns:xlink="http://www.w3.org/1999/xlink" version="1.1" x="0" y="0" height="230" width="800" viewBox="0 0 800 230" preserveAspectRatio="none"  >
<g label="Query sequence" class="clusterblast-cluster"  >
<text x="5" y="20" class="clusterblast-acc"  >
Query sequence</text>
<line x1="10" y1="35" x2="778.0" y2="35" style="stroke-width:1; stroke:grey; "  />
<polygon points="267,35 272,30 287,30 287,40 272,40 267,35 " style="fill:#d81515; stroke-width:1; stroke:black; " description="&lt;b&gt;input.path1.gene289&lt;/b&gt;&lt;br&gt;input.path1.gene289&lt;br&gt;Location: 976458 - 978113" locus_tag="input.path1.gene289" class="clusterblast-orf" id="dummy-4_q0_0_all"  />
<polygon points="301,40 308,40 313,35 308,30 301,30 301,40 " style="fill:#15d815; stroke-width:1; stroke:black; " description="&lt;b&gt;input.path1.gene290&lt;/b&gt;&lt;br&gt;input.path1.gene290&lt;br&gt;Location: 979318 - 980301" locus_tag="input.path1.gene290" class="clusterblast-orf" id="dummy-4_q1_0_all"  />
<polygon points="318,35 323,30 359,30 359,40 323,40 318,35 " style="fill:#1515d8; stroke-width:1; stroke:black; " description="&lt;b&gt;input.path1.gene291&lt;/b&gt;&lt;br&gt;input.path1.gene291&lt;br&gt;Location: 980663 - 984097" locus_tag="input.path1.gene291" class="clusterblast-orf" id="dummy-4_q2_0_all"  />
<polygon points="367,40 374,40 379,35 374,30 367,30 367,40 " style="fill:#d815d8; stroke-width:1; stroke:black; " description="&lt;b&gt;input.path1.gene292&lt;/b&gt;&lt;br&gt;input.path1.gene292&lt;br&gt;Location: 984776 - 985746" locus_tag="input.path1.gene292" class="clusterblast-orf" id="dummy-4_q3_0_all"  />
<polygon points="381,35 386,30 408,30 408,40 386,40 381,35 " style="fill:#1515d8; stroke-width:1; stroke:black; " description="&lt;b&gt;input.path1.gene293&lt;/b&gt;&lt;br&gt;input.path1.gene293&lt;br&gt;Location: 985885 - 988185" locus_tag="input.path1.gene293" class="clusterblast-orf" id="dummy-4_q4_0_all"  />
<polygon points="432,40 435,40 440,35 435,30 432,30 432,40 " style="fill:#d8d815; stroke-width:1; stroke:black; " description="&lt;b&gt;input.path1.gene294&lt;/b&gt;&lt;br&gt;input.path1.gene294&lt;br&gt;Location: 990177 - 990818" locus_tag="input.path1.gene294" class="clusterblast-orf" id="dummy-4_q5_0_all"  />
<polygon points="442,40 478,40 483,35 478,30 442,30 442,40 " style="fill:#15d8d8; stroke-width:1; stroke:black; " description="&lt;b&gt;input.path1.gene295&lt;/b&gt;&lt;br&gt;input.path1.gene295&lt;br&gt;Location: 990940 - 994353" locus_tag="input.path1.gene295" class="clusterblast-orf" id="dummy-4_q6_0_all"  />
<polygon points="484,35 489,30 512,30 512,40 489,40 484,35 " style="fill:white; stroke-width:1; stroke:black; " description="&lt;b&gt;input.path1.gene296&lt;/b&gt;&lt;br&gt;input.path1.gene296&lt;br&gt;Location: 994420 - 996791" locus_tag="input.path1.gene296" class="clusterblast-orf" id="dummy-4_q7_0_all"  />
</g>
<g label="NW_014013668" description="NW_014013668 (153970-222143): Trichoderma virens Gv29-8 chromosome Unknown TR... (27% of genes show similarity), T1PKS" class="clusterblast-cluster"  >
<text x="5" y="70" class="clusterblast-acc"  >
<a xlink:href="https://antismash-db.secondarymetabolites.org/area?record=NW_014013668&amp;start=153970&amp;end=222143" target="_blank">NW_014013668 (153970-222143)</a>: Trichoderma virens Gv29-8 chromosome Unknown TR... (27% of genes show similarity), T1PKS</text>
<line x1="10" y1="85" x2="778.0" y2="85" style="stroke-width:1; stroke:grey; "  />
</g>
<g id="a4_000"  >
<polygon points="0,85 5,80 19,80 19,90 5,90 0,85 " style="fill:white; stroke-width:1; stroke:black; " description="&lt;b&gt;TRIVIDRAFT_171537&lt;/b&gt;&lt;br&gt;hypothetical protein&lt;br&gt;Location: 156468 - 158086" locus_tag="TRIVIDRAFT_171537" class="clusterblast-orf" id="dummy-4_h4_4_0"  />
</g>
<g id="a4_001"  >
<polygon points="25,85 30,80 31,80 31,90 30,90 25,85 " style="fill:white; stroke-width:1; stroke:black; " description="&lt;b&gt;TRIVIDRAFT_48060&lt;/b&gt;&lt;br&gt;hypothetical protein&lt;br&gt;Location: 158578 - 159100" locus_tag="TRIVIDRAFT_48060" class="clusterblast-orf" id="dummy-4_h4_4_1"  />
</g>
<g id="a4_002"  >
<polygon points="37,90 48,90 53,85 48,80 37,80 37,90 " style="fill:white; stroke-width:1; stroke:black; " description="&lt;b&gt;TRIVIDRAFT_127684&lt;/b&gt;&lt;br&gt;hypothetical protein&lt;br&gt;Location: 159588 - 160933" locus_tag="TRIVIDRAFT_127684" class="clusterblast-orf" id="dummy-4_h4_4_2"  />
</g>
<g id="a4_003"  >
<polygon points="59,85 64,80 73,80 73,90 64,90 59,85 " style="fill:white; stroke-width:1; stroke:black; " description="&lt;b&gt;TRIVIDRAFT_89877&lt;/b&gt;&lt;br&gt;hypothetical protein&lt;br&gt;Location: 161386 - 162520" locus_tag="TRIVIDRAFT_89877" class="clusterblast-orf" id="dummy-4_h4_4_3"  />
</g>
<g id="a4_004"  >
<polygon points="80,90 86,90 91,85 86,80 80,80 80,90 " style="fill:white; stroke-width:1; stroke:black; " description="&lt;b&gt;TRIVIDRAFT_48036&lt;/b&gt;&lt;br&gt;hypothetical protein&lt;br&gt;Location: 163155 - 164020" locus_tag="TRIVIDRAFT_48036" class="clusterblast-orf" id="dummy-4_h4_4_4"  />
</g>
<g id="a4_005"  >
<polygon points="101,85 106,80 110,80 110,90 106,90 101,85 " style="fill:white; stroke-width:1; stroke:black; " description="&lt;b&gt;TRIVIDRAFT_48085&lt;/b&gt;&lt;br&gt;hypothetical protein&lt;br&gt;Location: 164873 - 165595" locus_tag="TRIVIDRAFT_48085" class="clusterblast-orf" id="dummy-4_h4_4_5"  />
</g>
<g id="a4_006"  >
<polygon points="121,85 126,80 142,80 142,90 126,90 121,85 " style="fill:white; stroke-width:1; stroke:black; " description="&lt;b&gt;TRIVIDRAFT_89880&lt;/b&gt;&lt;br&gt;hypothetical protein&lt;br&gt;Location: 166548 - 168263" locus_tag="TRIVIDRAFT_89880" class="clusterblast-orf" id="dummy-4_h4_4_6"  />
</g>
<g id="a4_007"  >
<polygon points="187,85 192,80 204,80 204,90 192,90 187,85 " style="fill:white; stroke-width:1; stroke:black; " description="&lt;b&gt;TRIVIDRAFT_224197&lt;/b&gt;&lt;br&gt;hypothetical protein&lt;br&gt;Location: 171998 - 173438" locus_tag="TRIVIDRAFT_224197" class="clusterblast-orf" id="dummy-4_h4_4_7"  />
</g>
<g id="a4_008"  >
<polygon points="224,85 229,80 229,80 229,90 229,90 224,85 " style="fill:white; stroke-width:1; stroke:black; " description="&lt;b&gt;TRIVIDRAFT_19757&lt;/b&gt;&lt;br&gt;hydrophobin&lt;br&gt;Location: 175106 - 175522" locus_tag="TRIVIDRAFT_19757" class="clusterblast-orf" id="dummy-4_h4_4_8"  />
</g>
<g id="a4_009"  >
<polygon points="308,85 313,80 325,80 325,90 313,90 308,85 " style="fill:white; stroke-width:1; stroke:black; " description="&lt;b&gt;TRIVIDRAFT_47880&lt;/b&gt;&lt;br&gt;hypothetical protein&lt;br&gt;Location: 182034 - 183452" locus_tag="TRIVIDRAFT_47880" class="clusterblast-orf" id="dummy-4_h4_4_9"  />
</g>
<g id="a4_0010"  >
<polygon points="331,90 425,90 430,85 425,80 331,80 331,90 " style="fill:white; stroke-width:1; stroke:black; " description="&lt;b&gt;TRIVIDRAFT_47828&lt;/b&gt;&lt;br&gt;putative polyketide synthase&lt;br&gt;Location: 183971 - 192143" locus_tag="TRIVIDRAFT_47828" class="clusterblast-orf" id="dummy-4_h4_4_10"  />
</g>
<g id="a4_0011"  >
<polygon points="435,85 440,80 455,80 455,90 440,90 435,85 " style="fill:#d81515; stroke-width:1; stroke:black; " description="&lt;b&gt;TRIVIDRAFT_77227&lt;/b&gt;&lt;br&gt;glycosyltransferase family 21 protein&lt;br&gt;Location: 192512 - 194179&lt;br&gt;&lt;br&gt;&lt;b&gt;BlastP hit with input.path1.gene289&lt;/b&gt;&lt;br&gt;Percentage identity: 62&lt;br&gt;Percentage coverage: 108&lt;br&gt;BLAST bit score: 662&lt;br&gt;E-value: 1.01e-235" locus_tag="TRIVIDRAFT_77227" class="clusterblast-orf" id="dummy-4_h4_4_11"  />
</g>
<g id="a4_0012"  >
<polygon points="475,90 492,90 497,85 492,80 475,80 475,90 " style="fill:#15d815; stroke-width:1; stroke:black; " description="&lt;b&gt;TRIVIDRAFT_181313&lt;/b&gt;&lt;br&gt;hypothetical protein&lt;br&gt;Location: 195861 - 197657&lt;br&gt;&lt;br&gt;&lt;b&gt;BlastP hit with input.path1.gene290&lt;/b&gt;&lt;br&gt;Percentage identity: 40&lt;br&gt;Percentage coverage: 126&lt;br&gt;BLAST bit score: 168&lt;br&gt;E-value: 3.4e-46" locus_tag="TRIVIDRAFT_181313" class="clusterblast-orf" id="dummy-4_h4_4_12"  />
</g>
<g id="a4_0013"  >
<polygon points="506,90 521,90 526,85 521,80 506,80 506,90 " style="fill:white; stroke-width:1; stroke:black; " description="&lt;b&gt;TRIVIDRAFT_231199&lt;/b&gt;&lt;br&gt;hypothetical protein&lt;br&gt;Location: 198447 - 200060" locus_tag="TRIVIDRAFT_231199" class="clusterblast-orf" id="dummy-4_h4_4_13"  />
</g>
<g id="a4_0014"  >
<polygon points="530,85 535,80 547,80 547,90 535,90 530,85 " style="fill:#1515d8; stroke-width:1; stroke:black; " description="&lt;b&gt;TRIVIDRAFT_155379&lt;/b&gt;&lt;br&gt;hypothetical protein&lt;br&gt;Location: 200383 - 201838&lt;br&gt;&lt;br&gt;&lt;b&gt;BlastP hit with input.path1.gene291&lt;/b&gt;&lt;br&gt;Percentage identity: 56&lt;br&gt;Percentage coverage: 58&lt;br&gt;BLAST bit score: 433&lt;br&gt;E-value: 4.46e-143" locus_tag="TRIVIDRAFT_155379" class="clusterblast-orf" id="dummy-4_h4_4_14"  />
</g>
<g id="a4_0015"  >
<polygon points="555,85 560,80 584,80 584,90 560,90 555,85 " style="fill:#1515d8; stroke-width:1; stroke:black; " description="&lt;b&gt;TRIVIDRAFT_89890&lt;/b&gt;&lt;br&gt;hypothetical protein&lt;br&gt;Location: 202496 - 204878&lt;br&gt;&lt;br&gt;&lt;b&gt;BlastP hit with input.path1.gene293&lt;/b&gt;&lt;br&gt;Percentage identity: 78&lt;br&gt;Percentage coverage: 100&lt;br&gt;BLAST bit score: 1274&lt;br&gt;E-value: 0.0" locus_tag="TRIVIDRAFT_89890" class="clusterblast-orf" id="dummy-4_h4_4_15"  />
</g>
<g id="a4_0016"  >
<polygon points="589,90 603,90 608,85 603,80 589,80 589,90 " style="fill:white; stroke-width:1; stroke:black; " description="&lt;b&gt;TRIVIDRAFT_48006&lt;/b&gt;&lt;br&gt;hypothetical protein&lt;br&gt;Location: 205303 - 206863" locus_tag="TRIVIDRAFT_48006" class="clusterblast-orf" id="dummy-4_h4_4_16"  />
</g>
<g id="a4_0017"  >
<polygon points="613,90 616,90 621,85 616,80 613,80 613,90 " style="fill:#d8d815; stroke-width:1; stroke:black; " description="&lt;b&gt;TRIVIDRAFT_81057&lt;/b&gt;&lt;br&gt;hypothetical protein&lt;br&gt;Location: 207302 - 207975&lt;br&gt;&lt;br&gt;&lt;b&gt;BlastP hit with input.path1.gene294&lt;/b&gt;&lt;br&gt;Percentage identity: 67&lt;br&gt;Percentage coverage: 94&lt;br&gt;BLAST bit score: 200&lt;br&gt;E-value: 5.44e-64" locus_tag="TRIVIDRAFT_81057" class="clusterblast-orf" id="dummy-4_h4_4_17"  />
</g>
<g id="a4_0018"  >
<polygon points="640,90 668,90 673,85 668,80 640,80 640,90 " style="fill:#15d8d8; stroke-width:1; stroke:black; " description="&lt;b&gt;TRIVIDRAFT_203114&lt;/b&gt;&lt;br&gt;hypothetical protein&lt;br&gt;Location: 209547 - 212267&lt;br&gt;&lt;br&gt;&lt;b&gt;BlastP hit with input.path1.gene295&lt;/b&gt;&lt;br&gt;Percentage identity: 71&lt;br&gt;Percentage coverage: 92&lt;br&gt;BLAST bit score: 970&lt;br&gt;E-value: 0.0" locus_tag="TRIVIDRAFT_203114" class="clusterblast-orf" id="dummy-4_h4_4_18"  />
</g>
<g id="a4_0019"  >
<polygon points="681,90 689,90 694,85 689,80 681,80 681,90 " style="fill:white; stroke-width:1; stroke:black; " description="&lt;b&gt;TRIVIDRAFT_224209&lt;/b&gt;&lt;br&gt;hypothetical protein&lt;br&gt;Location: 212953 - 214026" locus_tag="TRIVIDRAFT_224209" class="clusterblast-orf" id="dummy-4_h4_4_19"  />
</g>
<g id="a4_0020"  >
<polygon points="701,85 706,80 722,80 722,90 706,90 701,85 " style="fill:white; stroke-width:1; stroke:black; " description="&lt;b&gt;TRIVIDRAFT_47993&lt;/b&gt;&lt;br&gt;hypothetical protein&lt;br&gt;Location: 214560 - 216357" locus_tag="TRIVIDRAFT_47993" class="clusterblast-orf" id="dummy-4_h4_4_20"  />
</g>
<g id="a4_0021"  >
<polygon points="769,90 775,90 780,85 775,80 769,80 769,90 " style="fill:white; stroke-width:1; stroke:black; " description="&lt;b&gt;TRIVIDRAFT_216419&lt;/b&gt;&lt;br&gt;hypothetical protein&lt;br&gt;Location: 220256 - 221092" locus_tag="TRIVIDRAFT_216419" class="clusterblast-orf" id="dummy-4_h4_4_21"  />
</g>
</svg>
