<svg xmlns="http://www.w3.org/2000/svg" xmlns:xlink="http://www.w3.org/1999/xlink" version="1.1" x="0" y="0" height="230" width="800" viewBox="0 0 800 230" preserveAspectRatio="none"  >
<g label="Query sequence" class="clusterblast-cluster"  >
<text x="5" y="20" class="clusterblast-acc"  >
Query sequence</text>
<line x1="10" y1="35" x2="778.0" y2="35" style="stroke-width:1; stroke:grey; "  />
<polygon points="285,35 290,30 334,30 334,40 290,40 285,35 " style="fill:#d81515; stroke-width:1; stroke:black; " description="&lt;b&gt;input.path1.gene1&lt;/b&gt;&lt;br&gt;input.path1.gene1&lt;br&gt;Location: 2567 - 7977" locus_tag="input.path1.gene1" class="clusterblast-orf" id="dummy-1_q0_0_all"  />
<polygon points="339,40 343,40 348,35 343,30 339,30 339,40 " style="fill:white; stroke-width:1; stroke:black; " description="&lt;b&gt;input.path1.gene2&lt;/b&gt;&lt;br&gt;input.path1.gene2&lt;br&gt;Location: 8453 - 9535" locus_tag="input.path1.gene2" class="clusterblast-orf" id="dummy-1_q1_0_all"  />
<polygon points="383,35 386,30 386,40 383,35 " style="fill:#15d815; stroke-width:1; stroke:black; " description="&lt;b&gt;input.path1.gene3&lt;/b&gt;&lt;br&gt;input.path1.gene3&lt;br&gt;Location: 13365 - 13722" locus_tag="input.path1.gene3" class="clusterblast-orf" id="dummy-1_q2_0_all"  />
<polygon points="397,40 426,40 431,35 426,30 397,30 397,40 " style="fill:#1515d8; stroke-width:1; stroke:black; " description="&lt;b&gt;input.path1.gene4&lt;/b&gt;&lt;br&gt;input.path1.gene4&lt;br&gt;Location: 14945 - 18682" locus_tag="input.path1.gene4" class="clusterblast-orf" id="dummy-1_q3_0_all"  />
<polygon points="468,35 473,30 494,30 494,40 473,40 468,35 " style="fill:white; stroke-width:1; stroke:black; " description="&lt;b&gt;input.path1.gene5&lt;/b&gt;&lt;br&gt;input.path1.gene5&lt;br&gt;Location: 22734 - 25580" locus_tag="input.path1.gene5" class="clusterblast-orf" id="dummy-1_q4_0_all"  />
</g>
<g label="NC_049563" description="NC_049563 (5444401-5531779): Talaromyces rugulosus chromosome III, complete s... (8% of genes show similarity), NRPS" class="clusterblast-cluster"  >
<text x="5" y="70" class="clusterblast-acc"  >
<a xlink:href="https://antismash-db.secondarymetabolites.org/area?record=NC_049563&amp;start=5444401&amp;end=5531779" target="_blank">NC_049563 (5444401-5531779)</a>: Talaromyces rugulosus chromosome III, complete s... (8% of genes show similarity), NRPS</text>
<line x1="10" y1="85" x2="778.0" y2="85" style="stroke-width:1; stroke:grey; "  />
</g>
<g id="a1_000"  >
<polygon points="0,90 4,90 9,85 4,80 0,80 0,90 " style="fill:white; stroke-width:1; stroke:black; " description="&lt;b&gt;TRUGW13939_06673&lt;/b&gt;&lt;br&gt;uncharacterized protein&lt;br&gt;Location: 5444707 - 5445792" locus_tag="TRUGW13939_06673" class="clusterblast-orf" id="dummy-1_h1_2_0"  />
</g>
<g id="a1_001"  >
<polygon points="22,90 26,85 22,80 22,90 " style="fill:white; stroke-width:1; stroke:black; " description="&lt;b&gt;TRUGW13939_06674&lt;/b&gt;&lt;br&gt;uncharacterized protein&lt;br&gt;Location: 5447149 - 5447673" locus_tag="TRUGW13939_06674" class="clusterblast-orf" id="dummy-1_h1_2_1"  />
</g>
<g id="a1_002"  >
<polygon points="33,90 60,90 65,85 60,80 33,80 33,90 " style="fill:white; stroke-width:1; stroke:black; " description="&lt;b&gt;TRUGW13939_06675&lt;/b&gt;&lt;br&gt;uncharacterized protein&lt;br&gt;Location: 5448350 - 5451892" locus_tag="TRUGW13939_06675" class="clusterblast-orf" id="dummy-1_h1_2_2"  />
</g>
<g id="a1_003"  >
<polygon points="76,90 116,90 121,85 116,80 76,80 76,90 " style="fill:#1515d8; stroke-width:1; stroke:black; " description="&lt;b&gt;TRUGW13939_06676&lt;/b&gt;&lt;br&gt;uncharacterized protein&lt;br&gt;Location: 5453171 - 5458105&lt;br&gt;&lt;br&gt;&lt;b&gt;BlastP hit with input.path1.gene4&lt;/b&gt;&lt;br&gt;Percentage identity: 38&lt;br&gt;Percentage coverage: 88&lt;br&gt;BLAST bit score: 668&lt;br&gt;E-value: 6.45e-217" locus_tag="TRUGW13939_06676" class="clusterblast-orf" id="dummy-1_h1_2_3"  />
</g>
<g id="a1_004"  >
<polygon points="126,85 131,80 158,80 158,90 131,90 126,85 " style="fill:white; stroke-width:1; stroke:black; " description="&lt;b&gt;TRUGW13939_06677&lt;/b&gt;&lt;br&gt;uncharacterized protein&lt;br&gt;Location: 5458611 - 5462181" locus_tag="TRUGW13939_06677" class="clusterblast-orf" id="dummy-1_h1_2_4"  />
</g>
<g id="a1_005"  >
<polygon points="164,85 169,80 200,80 200,90 169,90 164,85 " style="fill:white; stroke-width:1; stroke:black; " description="&lt;b&gt;TRUGW13939_06678&lt;/b&gt;&lt;br&gt;uncharacterized protein&lt;br&gt;Location: 5462834 - 5466788" locus_tag="TRUGW13939_06678" class="clusterblast-orf" id="dummy-1_h1_2_5"  />
</g>
<g id="a1_006"  >
<polygon points="208,85 213,80 220,80 220,90 213,90 208,85 " style="fill:white; stroke-width:1; stroke:black; " description="&lt;b&gt;TRUGW13939_06679&lt;/b&gt;&lt;br&gt;uncharacterized protein&lt;br&gt;Location: 5467660 - 5469060" locus_tag="TRUGW13939_06679" class="clusterblast-orf" id="dummy-1_h1_2_6"  />
</g>
<g id="a1_007"  >
<polygon points="232,85 237,80 242,80 242,90 237,90 232,85 " style="fill:white; stroke-width:1; stroke:black; " description="&lt;b&gt;TRUGW13939_06680&lt;/b&gt;&lt;br&gt;uncharacterized protein&lt;br&gt;Location: 5470387 - 5471448" locus_tag="TRUGW13939_06680" class="clusterblast-orf" id="dummy-1_h1_2_7"  />
</g>
<g id="a1_008"  >
<polygon points="269,90 512,90 517,85 512,80 269,80 269,90 " style="fill:#d81515; stroke-width:1; stroke:black; " description="&lt;b&gt;TRUGW13939_06681&lt;/b&gt;&lt;br&gt;uncharacterized protein&lt;br&gt;Location: 5474402 - 5501779&lt;br&gt;&lt;br&gt;&lt;b&gt;BlastP hit with input.path1.gene1&lt;/b&gt;&lt;br&gt;Percentage identity: 31&lt;br&gt;Percentage coverage: 112&lt;br&gt;BLAST bit score: 644&lt;br&gt;E-value: 4.06e-195" locus_tag="TRUGW13939_06681" class="clusterblast-orf" id="dummy-1_h1_2_8"  />
</g>
<g id="a1_009"  >
<polygon points="518,85 523,80 529,80 529,90 523,90 518,85 " style="fill:white; stroke-width:1; stroke:black; " description="&lt;b&gt;TRUGW13939_06682&lt;/b&gt;&lt;br&gt;uncharacterized protein&lt;br&gt;Location: 5501927 - 5503165" locus_tag="TRUGW13939_06682" class="clusterblast-orf" id="dummy-1_h1_2_9"  />
</g>
<g id="a1_0010"  >
<polygon points="534,85 539,80 539,80 539,90 539,90 534,85 " style="fill:white; stroke-width:1; stroke:black; " description="&lt;b&gt;TRUGW13939_06683&lt;/b&gt;&lt;br&gt;uncharacterized protein&lt;br&gt;Location: 5503692 - 5504207" locus_tag="TRUGW13939_06683" class="clusterblast-orf" id="dummy-1_h1_2_10"  />
</g>
<g id="a1_0011"  >
<polygon points="544,85 549,80 549,80 549,90 549,90 544,85 " style="fill:white; stroke-width:1; stroke:black; " description="&lt;b&gt;TRUGW13939_06684&lt;/b&gt;&lt;br&gt;uncharacterized protein&lt;br&gt;Location: 5504805 - 5505347" locus_tag="TRUGW13939_06684" class="clusterblast-orf" id="dummy-1_h1_2_11"  />
</g>
<g id="a1_0012"  >
<polygon points="558,90 561,85 558,80 558,90 " style="fill:white; stroke-width:1; stroke:black; " description="&lt;b&gt;TRUGW13939_06685&lt;/b&gt;&lt;br&gt;uncharacterized protein&lt;br&gt;Location: 5506301 - 5506684" locus_tag="TRUGW13939_06685" class="clusterblast-orf" id="dummy-1_h1_2_12"  />
</g>
<g id="a1_0013"  >
<polygon points="572,85 574,80 574,90 572,85 " style="fill:white; stroke-width:1; stroke:black; " description="&lt;b&gt;TRUGW13939_06686&lt;/b&gt;&lt;br&gt;uncharacterized protein&lt;br&gt;Location: 5507825 - 5508091" locus_tag="TRUGW13939_06686" class="clusterblast-orf" id="dummy-1_h1_2_13"  />
</g>
<g id="a1_0014"  >
<polygon points="574,85 579,80 582,80 582,90 579,90 574,85 " style="fill:white; stroke-width:1; stroke:black; " description="&lt;b&gt;TRUGW13939_06687&lt;/b&gt;&lt;br&gt;uncharacterized protein&lt;br&gt;Location: 5508135 - 5508973" locus_tag="TRUGW13939_06687" class="clusterblast-orf" id="dummy-1_h1_2_14"  />
</g>
<g id="a1_0015"  >
<polygon points="598,85 603,80 606,80 606,90 603,90 598,85 " style="fill:white; stroke-width:1; stroke:black; " description="&lt;b&gt;TRUGW13939_06689&lt;/b&gt;&lt;br&gt;uncharacterized protein&lt;br&gt;Location: 5510706 - 5511623" locus_tag="TRUGW13939_06689" class="clusterblast-orf" id="dummy-1_h1_2_15"  />
</g>
<g id="a1_0016"  >
<polygon points="632,85 637,80 641,80 641,90 637,90 632,85 " style="fill:white; stroke-width:1; stroke:black; " description="&lt;b&gt;TRUGW13939_06691&lt;/b&gt;&lt;br&gt;uncharacterized protein&lt;br&gt;Location: 5514536 - 5515501" locus_tag="TRUGW13939_06691" class="clusterblast-orf" id="dummy-1_h1_2_16"  />
</g>
<g id="a1_0017"  >
<polygon points="653,90 653,90 658,85 653,80 653,80 653,90 " style="fill:white; stroke-width:1; stroke:black; " description="&lt;b&gt;TRUGW13939_06692&lt;/b&gt;&lt;br&gt;uncharacterized protein&lt;br&gt;Location: 5516782 - 5517348" locus_tag="TRUGW13939_06692" class="clusterblast-orf" id="dummy-1_h1_2_17"  />
</g>
<g id="a1_0018"  >
<polygon points="662,90 665,85 662,80 662,90 " style="fill:white; stroke-width:1; stroke:black; " description="&lt;b&gt;TRUGW13939_06693&lt;/b&gt;&lt;br&gt;uncharacterized protein&lt;br&gt;Location: 5517821 - 5518186" locus_tag="TRUGW13939_06693" class="clusterblast-orf" id="dummy-1_h1_2_18"  />
</g>
<g id="a1_0019"  >
<polygon points="672,90 690,90 695,85 690,80 672,80 672,90 " style="fill:white; stroke-width:1; stroke:black; " description="&lt;b&gt;TRUGW13939_06694&lt;/b&gt;&lt;br&gt;uncharacterized protein&lt;br&gt;Location: 5518940 - 5521448" locus_tag="TRUGW13939_06694" class="clusterblast-orf" id="dummy-1_h1_2_19"  />
</g>
<g id="a1_0020"  >
<polygon points="701,85 706,80 710,80 710,90 706,90 701,85 " style="fill:white; stroke-width:1; stroke:black; " description="&lt;b&gt;TRUGW13939_06695&lt;/b&gt;&lt;br&gt;uncharacterized protein&lt;br&gt;Location: 5522089 - 5523064" locus_tag="TRUGW13939_06695" class="clusterblast-orf" id="dummy-1_h1_2_20"  />
</g>
<g id="a1_0021"  >
<polygon points="726,90 739,90 744,85 739,80 726,80 726,90 " style="fill:white; stroke-width:1; stroke:black; " description="&lt;b&gt;TRUGW13939_06696&lt;/b&gt;&lt;br&gt;uncharacterized protein&lt;br&gt;Location: 5524923 - 5526891" locus_tag="TRUGW13939_06696" class="clusterblast-orf" id="dummy-1_h1_2_21"  />
</g>
<g id="a1_0022"  >
<polygon points="759,85 764,80 780,80 780,90 764,90 759,85 " style="fill:white; stroke-width:1; stroke:black; " description="&lt;b&gt;TRUGW13939_06697&lt;/b&gt;&lt;br&gt;uncharacterized protein&lt;br&gt;Location: 5528523 - 5530771" locus_tag="TRUGW13939_06697" class="clusterblast-orf" id="dummy-1_h1_2_22"  />
</g>
</svg>
