<svg xmlns="http://www.w3.org/2000/svg" xmlns:xlink="http://www.w3.org/1999/xlink" version="1.1" x="0" y="0" height="230" width="800" viewBox="0 0 800 230" preserveAspectRatio="none"  >
<g label="Query sequence" class="clusterblast-cluster"  >
<text x="5" y="20" class="clusterblast-acc"  >
Query sequence</text>
<line x1="10" y1="35" x2="778.0" y2="35" style="stroke-width:1; stroke:grey; "  />
<polygon points="0,35 5,30 6,30 6,40 5,40 0,35 " style="fill:#d81515; stroke-width:1; stroke:black; " description="&lt;b&gt;input.path1.gene1&lt;/b&gt;&lt;br&gt;input.path1.gene1&lt;br&gt;Location: 1912 - 2894" locus_tag="input.path1.gene1" class="clusterblast-orf" id="dummy-1_q0_0_all"  />
<polygon points="11,40 25,40 30,35 25,30 11,30 11,40 " style="fill:#56d815; stroke-width:1; stroke:black; " description="&lt;b&gt;input.path1.gene2&lt;/b&gt;&lt;br&gt;input.path1.gene2&lt;br&gt;Location: 3538 - 6188" locus_tag="input.path1.gene2" class="clusterblast-orf" id="dummy-1_q1_0_all"  />
<polygon points="52,35 57,30 62,30 62,40 57,40 52,35 " style="fill:#1597d8; stroke-width:1; stroke:black; " description="&lt;b&gt;input.path1.gene3&lt;/b&gt;&lt;br&gt;input.path1.gene3&lt;br&gt;Location: 9357 - 10738" locus_tag="input.path1.gene3" class="clusterblast-orf" id="dummy-1_q2_0_all"  />
<polygon points="67,35 72,30 74,30 74,40 72,40 67,35 " style="fill:white; stroke-width:1; stroke:black; " description="&lt;b&gt;input.path1.gene4&lt;/b&gt;&lt;br&gt;input.path1.gene4&lt;br&gt;Location: 11561 - 12477" locus_tag="input.path1.gene4" class="clusterblast-orf" id="dummy-1_q3_0_all"  />
<polygon points="79,35 84,30 112,30 112,40 84,40 79,35 " style="fill:#9715d8; stroke-width:1; stroke:black; " description="&lt;b&gt;input.path1.gene5&lt;/b&gt;&lt;br&gt;input.path1.gene5&lt;br&gt;Location: 13143 - 17945" locus_tag="input.path1.gene5" class="clusterblast-orf" id="dummy-1_q4_0_all"  />
<polygon points="129,40 133,35 129,30 129,40 " style="fill:white; stroke-width:1; stroke:black; " description="&lt;b&gt;input.path1.gene6&lt;/b&gt;&lt;br&gt;input.path1.gene6&lt;br&gt;Location: 20376 - 20887" locus_tag="input.path1.gene6" class="clusterblast-orf" id="dummy-1_q5_0_all"  />
<polygon points="164,35 169,30 173,30 173,40 169,40 164,35 " style="fill:#d85615; stroke-width:1; stroke:black; " description="&lt;b&gt;input.path1.gene7&lt;/b&gt;&lt;br&gt;input.path1.gene7&lt;br&gt;Location: 25266 - 26492" locus_tag="input.path1.gene7" class="clusterblast-orf" id="dummy-1_q6_0_all"  />
<polygon points="179,40 183,35 179,30 179,40 " style="fill:white; stroke-width:1; stroke:black; " description="&lt;b&gt;input.path1.gene8&lt;/b&gt;&lt;br&gt;input.path1.gene8&lt;br&gt;Location: 27403 - 28037" locus_tag="input.path1.gene8" class="clusterblast-orf" id="dummy-1_q7_0_all"  />
<polygon points="191,35 196,30 286,30 286,40 196,40 191,35 " style="fill:#15d815; stroke-width:1; stroke:black; " description="&lt;b&gt;input.path1.gene9&lt;/b&gt;&lt;br&gt;input.path1.gene9&lt;br&gt;Location: 29101 - 42579" locus_tag="input.path1.gene9" class="clusterblast-orf" id="dummy-1_q8_0_all"  />
<polygon points="290,40 294,40 299,35 294,30 290,30 290,40 " style="fill:#1556d8; stroke-width:1; stroke:black; " description="&lt;b&gt;input.path1.gene10&lt;/b&gt;&lt;br&gt;input.path1.gene10&lt;br&gt;Location: 43202 - 44402" locus_tag="input.path1.gene10" class="clusterblast-orf" id="dummy-1_q9_0_all"  />
<polygon points="302,40 312,40 317,35 312,30 302,30 302,40 " style="fill:#1556d8; stroke-width:1; stroke:black; " description="&lt;b&gt;input.path1.gene11&lt;/b&gt;&lt;br&gt;input.path1.gene11&lt;br&gt;Location: 44930 - 46974" locus_tag="input.path1.gene11" class="clusterblast-orf" id="dummy-1_q10_0_all"  />
<polygon points="319,35 324,30 332,30 332,40 324,40 319,35 " style="fill:#d815d8; stroke-width:1; stroke:black; " description="&lt;b&gt;input.path1.gene12&lt;/b&gt;&lt;br&gt;input.path1.gene12&lt;br&gt;Location: 47300 - 49145" locus_tag="input.path1.gene12" class="clusterblast-orf" id="dummy-1_q11_0_all"  />
<polygon points="339,40 356,40 361,35 356,30 339,30 339,40 " style="fill:#d89715; stroke-width:1; stroke:black; " description="&lt;b&gt;input.path1.gene13&lt;/b&gt;&lt;br&gt;input.path1.gene13&lt;br&gt;Location: 50100 - 53309" locus_tag="input.path1.gene13" class="clusterblast-orf" id="dummy-1_q12_0_all"  />
<polygon points="362,35 367,30 386,30 386,40 367,40 362,35 " style="fill:#15d856; stroke-width:1; stroke:black; " description="&lt;b&gt;input.path1.gene14&lt;/b&gt;&lt;br&gt;input.path1.gene14&lt;br&gt;Location: 53485 - 56850" locus_tag="input.path1.gene14" class="clusterblast-orf" id="dummy-1_q13_0_all"  />
<polygon points="394,35 399,30 406,30 406,40 399,40 394,35 " style="fill:#1515d8; stroke-width:1; stroke:black; " description="&lt;b&gt;input.path1.gene15&lt;/b&gt;&lt;br&gt;input.path1.gene15&lt;br&gt;Location: 57983 - 59721" locus_tag="input.path1.gene15" class="clusterblast-orf" id="dummy-1_q14_0_all"  />
<polygon points="423,40 427,35 423,30 423,40 " style="fill:#d81597; stroke-width:1; stroke:black; " description="&lt;b&gt;input.path1.gene16&lt;/b&gt;&lt;br&gt;input.path1.gene16&lt;br&gt;Location: 62148 - 62696" locus_tag="input.path1.gene16" class="clusterblast-orf" id="dummy-1_q15_0_all"  />
<polygon points="430,35 434,30 434,40 430,35 " style="fill:#d8d815; stroke-width:1; stroke:black; " description="&lt;b&gt;input.path1.gene17&lt;/b&gt;&lt;br&gt;input.path1.gene17&lt;br&gt;Location: 63108 - 63678" locus_tag="input.path1.gene17" class="clusterblast-orf" id="dummy-1_q16_0_all"  />
<polygon points="439,35 443,30 443,40 439,35 " style="fill:white; stroke-width:1; stroke:black; " description="&lt;b&gt;input.path1.gene18&lt;/b&gt;&lt;br&gt;input.path1.gene18&lt;br&gt;Location: 64363 - 64934" locus_tag="input.path1.gene18" class="clusterblast-orf" id="dummy-1_q17_0_all"  />
<polygon points="443,40 447,35 443,30 443,40 " style="fill:#15d897; stroke-width:1; stroke:black; " description="&lt;b&gt;input.path1.gene19&lt;/b&gt;&lt;br&gt;input.path1.gene19&lt;br&gt;Location: 64969 - 65529" locus_tag="input.path1.gene19" class="clusterblast-orf" id="dummy-1_q18_0_all"  />
<polygon points="469,40 479,40 484,35 479,30 469,30 469,40 " style="fill:white; stroke-width:1; stroke:black; " description="&lt;b&gt;input.path1.gene20&lt;/b&gt;&lt;br&gt;input.path1.gene20&lt;br&gt;Location: 68676 - 70800" locus_tag="input.path1.gene20" class="clusterblast-orf" id="dummy-1_q19_0_all"  />
<polygon points="491,35 496,30 507,30 507,40 496,40 491,35 " style="fill:white; stroke-width:1; stroke:black; " description="&lt;b&gt;input.path1.gene21&lt;/b&gt;&lt;br&gt;input.path1.gene21&lt;br&gt;Location: 71715 - 73967" locus_tag="input.path1.gene21" class="clusterblast-orf" id="dummy-1_q20_0_all"  />
<polygon points="513,35 518,30 521,30 521,40 518,40 513,35 " style="fill:white; stroke-width:1; stroke:black; " description="&lt;b&gt;input.path1.gene22&lt;/b&gt;&lt;br&gt;input.path1.gene22&lt;br&gt;Location: 74817 - 75954" locus_tag="input.path1.gene22" class="clusterblast-orf" id="dummy-1_q21_0_all"  />
<polygon points="572,40 601,40 606,35 601,30 572,30 572,40 " style="fill:#5615d8; stroke-width:1; stroke:black; " description="&lt;b&gt;input.path1.gene23&lt;/b&gt;&lt;br&gt;input.path1.gene23&lt;br&gt;Location: 83203 - 88155" locus_tag="input.path1.gene23" class="clusterblast-orf" id="dummy-1_q22_0_all"  />
<polygon points="611,40 621,40 626,35 621,30 611,30 611,40 " style="fill:#d81556; stroke-width:1; stroke:black; " description="&lt;b&gt;input.path1.gene24&lt;/b&gt;&lt;br&gt;input.path1.gene24&lt;br&gt;Location: 88877 - 90978" locus_tag="input.path1.gene24" class="clusterblast-orf" id="dummy-1_q23_0_all"  />
<polygon points="630,40 631,40 636,35 631,30 630,30 630,40 " style="fill:#97d815; stroke-width:1; stroke:black; " description="&lt;b&gt;input.path1.gene25&lt;/b&gt;&lt;br&gt;input.path1.gene25&lt;br&gt;Location: 91450 - 92320" locus_tag="input.path1.gene25" class="clusterblast-orf" id="dummy-1_q24_0_all"  />
<polygon points="643,35 648,30 648,30 648,40 648,40 643,35 " style="fill:#15d8d8; stroke-width:1; stroke:black; " description="&lt;b&gt;input.path1.gene26&lt;/b&gt;&lt;br&gt;input.path1.gene26&lt;br&gt;Location: 93418 - 94072" locus_tag="input.path1.gene26" class="clusterblast-orf" id="dummy-1_q25_0_all"  />
<polygon points="652,35 657,30 671,30 671,40 657,40 652,35 " style="fill:white; stroke-width:1; stroke:black; " description="&lt;b&gt;input.path1.gene27&lt;/b&gt;&lt;br&gt;input.path1.gene27&lt;br&gt;Location: 94627 - 97374" locus_tag="input.path1.gene27" class="clusterblast-orf" id="dummy-1_q26_0_all"  />
<polygon points="676,40 686,40 691,35 686,30 676,30 676,40 " style="fill:white; stroke-width:1; stroke:black; " description="&lt;b&gt;input.path1.gene28&lt;/b&gt;&lt;br&gt;input.path1.gene28&lt;br&gt;Location: 98071 - 100240" locus_tag="input.path1.gene28" class="clusterblast-orf" id="dummy-1_q27_0_all"  />
<polygon points="692,35 697,30 706,30 706,40 697,40 692,35 " style="fill:white; stroke-width:1; stroke:black; " description="&lt;b&gt;input.path1.gene29&lt;/b&gt;&lt;br&gt;input.path1.gene29&lt;br&gt;Location: 100278 - 102275" locus_tag="input.path1.gene29" class="clusterblast-orf" id="dummy-1_q28_0_all"  />
<polygon points="723,40 727,35 723,30 723,40 " style="fill:white; stroke-width:1; stroke:black; " description="&lt;b&gt;input.path1.gene30&lt;/b&gt;&lt;br&gt;input.path1.gene30&lt;br&gt;Location: 104737 - 105314" locus_tag="input.path1.gene30" class="clusterblast-orf" id="dummy-1_q29_0_all"  />
<polygon points="727,35 732,30 744,30 744,40 732,40 727,35 " style="fill:white; stroke-width:1; stroke:black; " description="&lt;b&gt;input.path1.gene31&lt;/b&gt;&lt;br&gt;input.path1.gene31&lt;br&gt;Location: 105357 - 107712" locus_tag="input.path1.gene31" class="clusterblast-orf" id="dummy-1_q30_0_all"  />
<polygon points="754,40 759,40 764,35 759,30 754,30 754,40 " style="fill:white; stroke-width:1; stroke:black; " description="&lt;b&gt;input.path1.gene32&lt;/b&gt;&lt;br&gt;input.path1.gene32&lt;br&gt;Location: 109110 - 110547" locus_tag="input.path1.gene32" class="clusterblast-orf" id="dummy-1_q31_0_all"  />
<polygon points="766,35 771,30 780,30 780,40 771,40 766,35 " style="fill:white; stroke-width:1; stroke:black; " description="&lt;b&gt;input.path1.gene33&lt;/b&gt;&lt;br&gt;input.path1.gene33&lt;br&gt;Location: 110791 - 112763" locus_tag="input.path1.gene33" class="clusterblast-orf" id="dummy-1_q32_0_all"  />
</g>
<g label="NC_066261" description="NC_066261 (362715-434651): Aspergillus nidulans FGSC A4 chromosome V (15% of genes show similarity), NRPS,T1PKS" class="clusterblast-cluster"  >
<text x="5" y="70" class="clusterblast-acc"  >
<a xlink:href="https://antismash-db.secondarymetabolites.org/area?record=NC_066261&amp;start=362715&amp;end=434651" target="_blank">NC_066261 (362715-434651)</a>: Aspergillus nidulans FGSC A4 chromosome V (15% of genes show similarity), NRPS,T1PKS</text>
<line x1="10" y1="85" x2="778.0" y2="85" style="stroke-width:1; stroke:grey; "  />
</g>
<g id="a1_000"  >
<polygon points="147,85 152,80 163,80 163,90 152,90 147,85 " style="fill:white; stroke-width:1; stroke:black; " description="&lt;b&gt;ANIA_08401&lt;/b&gt;&lt;br&gt;protein bxlB&lt;br&gt;Location: 365197 - 367488" locus_tag="ANIA_08401" class="clusterblast-orf" id="dummy-1_h1_9_0"  />
</g>
<g id="a1_001"  >
<polygon points="181,85 185,80 185,90 181,85 " style="fill:white; stroke-width:1; stroke:black; " description="&lt;b&gt;ANIA_08402&lt;/b&gt;&lt;br&gt;hypothetical protein&lt;br&gt;Location: 369916 - 370542" locus_tag="ANIA_08402" class="clusterblast-orf" id="dummy-1_h1_9_1"  />
</g>
<g id="a1_002"  >
<polygon points="188,90 190,90 195,85 190,80 188,80 188,90 " style="fill:white; stroke-width:1; stroke:black; " description="&lt;b&gt;ANIA_08403&lt;/b&gt;&lt;br&gt;hypothetical protein&lt;br&gt;Location: 370956 - 371956" locus_tag="ANIA_08403" class="clusterblast-orf" id="dummy-1_h1_9_2"  />
</g>
<g id="a1_003"  >
<polygon points="198,90 201,90 206,85 201,80 198,80 198,90 " style="fill:white; stroke-width:1; stroke:black; " description="&lt;b&gt;ANIA_08404&lt;/b&gt;&lt;br&gt;hypothetical protein&lt;br&gt;Location: 372397 - 373484" locus_tag="ANIA_08404" class="clusterblast-orf" id="dummy-1_h1_9_3"  />
</g>
<g id="a1_004"  >
<polygon points="209,85 214,80 222,80 222,90 214,90 209,85 " style="fill:white; stroke-width:1; stroke:black; " description="&lt;b&gt;ANIA_08405&lt;/b&gt;&lt;br&gt;hypothetical protein&lt;br&gt;Location: 373950 - 375883" locus_tag="ANIA_08405" class="clusterblast-orf" id="dummy-1_h1_9_4"  />
</g>
<g id="a1_005"  >
<polygon points="235,85 240,80 244,80 244,90 240,90 235,85 " style="fill:white; stroke-width:1; stroke:black; " description="&lt;b&gt;ANIA_08406&lt;/b&gt;&lt;br&gt;hypothetical protein&lt;br&gt;Location: 377688 - 378889" locus_tag="ANIA_08406" class="clusterblast-orf" id="dummy-1_h1_9_5"  />
</g>
<g id="a1_006"  >
<polygon points="250,90 254,90 259,85 254,80 250,80 250,90 " style="fill:white; stroke-width:1; stroke:black; " description="&lt;b&gt;ANIA_08407&lt;/b&gt;&lt;br&gt;hypothetical protein&lt;br&gt;Location: 379786 - 381046" locus_tag="ANIA_08407" class="clusterblast-orf" id="dummy-1_h1_9_6"  />
</g>
<g id="a1_007"  >
<polygon points="272,90 274,85 272,80 272,90 " style="fill:white; stroke-width:1; stroke:black; " description="&lt;b&gt;ANIA_11607&lt;/b&gt;&lt;br&gt;hypothetical protein&lt;br&gt;Location: 382954 - 383223" locus_tag="ANIA_11607" class="clusterblast-orf" id="dummy-1_h1_9_7"  />
</g>
<g id="a1_008"  >
<polygon points="277,85 282,80 291,80 291,90 282,90 277,85 " style="fill:white; stroke-width:1; stroke:black; " description="&lt;b&gt;ANIA_08408&lt;/b&gt;&lt;br&gt;protein apdB&lt;br&gt;Location: 383588 - 385551" locus_tag="ANIA_08408" class="clusterblast-orf" id="dummy-1_h1_9_8"  />
</g>
<g id="a1_009"  >
<polygon points="293,90 296,90 301,85 296,80 293,80 293,90 " style="fill:#1556d8; stroke-width:1; stroke:black; " description="&lt;b&gt;ANIA_08409&lt;/b&gt;&lt;br&gt;enoyl reductase apdC&lt;br&gt;Location: 385918 - 387078&lt;br&gt;&lt;br&gt;&lt;b&gt;BlastP hit with input.path1.gene10&lt;/b&gt;&lt;br&gt;Percentage identity: 42&lt;br&gt;Percentage coverage: 90&lt;br&gt;BLAST bit score: 177&lt;br&gt;E-value: 2.78e-51" locus_tag="ANIA_08409" class="clusterblast-orf" id="dummy-1_h1_9_9"  />
</g>
<g id="a1_0010"  >
<polygon points="303,90 313,90 318,85 313,80 303,80 303,90 " style="fill:white; stroke-width:1; stroke:black; " description="&lt;b&gt;ANIA_08410&lt;/b&gt;&lt;br&gt;protein apdD&lt;br&gt;Location: 387281 - 389445" locus_tag="ANIA_08410" class="clusterblast-orf" id="dummy-1_h1_9_10"  />
</g>
<g id="a1_0011"  >
<polygon points="326,85 331,80 338,80 338,90 331,90 326,85 " style="fill:#d815d8; stroke-width:1; stroke:black; " description="&lt;b&gt;ANIA_08411&lt;/b&gt;&lt;br&gt;protein apdE&lt;br&gt;Location: 390561 - 392240&lt;br&gt;&lt;br&gt;&lt;b&gt;BlastP hit with input.path1.gene12&lt;/b&gt;&lt;br&gt;Percentage identity: 52&lt;br&gt;Percentage coverage: 85&lt;br&gt;BLAST bit score: 355&lt;br&gt;E-value: 8.27e-117" locus_tag="ANIA_08411" class="clusterblast-orf" id="dummy-1_h1_9_11"  />
</g>
<g id="a1_0012"  >
<polygon points="341,90 420,90 425,85 420,80 341,80 341,90 " style="fill:#15d815; stroke-width:1; stroke:black; " description="&lt;b&gt;ANIA_08412&lt;/b&gt;&lt;br&gt;protein apdA&lt;br&gt;Location: 392716 - 404651&lt;br&gt;&lt;br&gt;&lt;b&gt;BlastP hit with input.path1.gene9&lt;/b&gt;&lt;br&gt;Percentage identity: 41&lt;br&gt;Percentage coverage: 97&lt;br&gt;BLAST bit score: 2769&lt;br&gt;E-value: 0.0" locus_tag="ANIA_08412" class="clusterblast-orf" id="dummy-1_h1_9_12"  />
</g>
<g id="a1_0013"  >
<polygon points="427,85 432,80 442,80 442,90 432,90 427,85 " style="fill:#d85615; stroke-width:1; stroke:black; " description="&lt;b&gt;ANIA_08413&lt;/b&gt;&lt;br&gt;protein apdF&lt;br&gt;Location: 404935 - 407139&lt;br&gt;&lt;br&gt;&lt;b&gt;BlastP hit with input.path1.gene7&lt;/b&gt;&lt;br&gt;Percentage identity: 44&lt;br&gt;Percentage coverage: 86&lt;br&gt;BLAST bit score: 259&lt;br&gt;E-value: 1.86e-80" locus_tag="ANIA_08413" class="clusterblast-orf" id="dummy-1_h1_9_13"  />
</g>
<g id="a1_0014"  >
<polygon points="448,90 459,90 464,85 459,80 448,80 448,90 " style="fill:white; stroke-width:1; stroke:black; " description="&lt;b&gt;ANIA_08414&lt;/b&gt;&lt;br&gt;protein apdR&lt;br&gt;Location: 407965 - 410253" locus_tag="ANIA_08414" class="clusterblast-orf" id="dummy-1_h1_9_14"  />
</g>
<g id="a1_0015"  >
<polygon points="479,85 481,80 481,90 479,85 " style="fill:white; stroke-width:1; stroke:black; " description="&lt;b&gt;ANIA_11608&lt;/b&gt;&lt;br&gt;hypothetical protein&lt;br&gt;Location: 412393 - 412551" locus_tag="ANIA_11608" class="clusterblast-orf" id="dummy-1_h1_9_15"  />
</g>
<g id="a1_0016"  >
<polygon points="504,90 509,90 514,85 509,80 504,80 504,90 " style="fill:white; stroke-width:1; stroke:black; " description="&lt;b&gt;ANIA_08415&lt;/b&gt;&lt;br&gt;protein apdG&lt;br&gt;Location: 415926 - 417319" locus_tag="ANIA_08415" class="clusterblast-orf" id="dummy-1_h1_9_16"  />
</g>
<g id="a1_0017"  >
<polygon points="517,90 525,90 530,85 525,80 517,80 517,90 " style="fill:white; stroke-width:1; stroke:black; " description="&lt;b&gt;ANIA_08416&lt;/b&gt;&lt;br&gt;uracil-allantoin-uric acid/H+ furE&lt;br&gt;Location: 417718 - 419514" locus_tag="ANIA_08416" class="clusterblast-orf" id="dummy-1_h1_9_17"  />
</g>
<g id="a1_0018"  >
<polygon points="531,85 536,80 544,80 544,90 536,90 531,85 " style="fill:white; stroke-width:1; stroke:black; " description="&lt;b&gt;ANIA_08417&lt;/b&gt;&lt;br&gt;hypothetical protein&lt;br&gt;Location: 419755 - 421638" locus_tag="ANIA_08417" class="clusterblast-orf" id="dummy-1_h1_9_18"  />
</g>
<g id="a1_0019"  >
<polygon points="547,90 553,90 558,85 553,80 547,80 547,90 " style="fill:white; stroke-width:1; stroke:black; " description="&lt;b&gt;ANIA_08418&lt;/b&gt;&lt;br&gt;hypothetical protein&lt;br&gt;Location: 421957 - 423609" locus_tag="ANIA_08418" class="clusterblast-orf" id="dummy-1_h1_9_19"  />
</g>
<g id="a1_0020"  >
<polygon points="559,85 562,80 562,90 559,85 " style="fill:white; stroke-width:1; stroke:black; " description="&lt;b&gt;ANIA_11609&lt;/b&gt;&lt;br&gt;hypothetical protein&lt;br&gt;Location: 423742 - 424136" locus_tag="ANIA_11609" class="clusterblast-orf" id="dummy-1_h1_9_20"  />
</g>
<g id="a1_0021"  >
<polygon points="578,90 580,90 585,85 580,80 578,80 578,90 " style="fill:white; stroke-width:1; stroke:black; " description="&lt;b&gt;ANIA_08419&lt;/b&gt;&lt;br&gt;hypothetical protein&lt;br&gt;Location: 426472 - 427418" locus_tag="ANIA_08419" class="clusterblast-orf" id="dummy-1_h1_9_21"  />
</g>
<g id="a1_0022"  >
<polygon points="594,85 598,80 598,90 594,85 " style="fill:white; stroke-width:1; stroke:black; " description="&lt;b&gt;ANIA_08420&lt;/b&gt;&lt;br&gt;hypothetical protein&lt;br&gt;Location: 428728 - 429192" locus_tag="ANIA_08420" class="clusterblast-orf" id="dummy-1_h1_9_22"  />
</g>
<g id="a1_0023"  >
<polygon points="600,85 603,80 603,90 600,85 " style="fill:white; stroke-width:1; stroke:black; " description="&lt;b&gt;ANIA_11610&lt;/b&gt;&lt;br&gt;hypothetical protein&lt;br&gt;Location: 429577 - 430016" locus_tag="ANIA_11610" class="clusterblast-orf" id="dummy-1_h1_9_23"  />
</g>
<g id="a1_0024"  >
<polygon points="607,90 610,85 607,80 607,90 " style="fill:white; stroke-width:1; stroke:black; " description="&lt;b&gt;ANIA_11611&lt;/b&gt;&lt;br&gt;hypothetical protein&lt;br&gt;Location: 430519 - 430993" locus_tag="ANIA_11611" class="clusterblast-orf" id="dummy-1_h1_9_24"  />
</g>
<g id="a1_0025"  >
<polygon points="621,90 627,90 632,85 627,80 621,80 621,90 " style="fill:white; stroke-width:1; stroke:black; " description="&lt;b&gt;ANIA_08421&lt;/b&gt;&lt;br&gt;putative mannan endo-1,6-alpha-mannosidase dfgB&lt;br&gt;Location: 432511 - 434035" locus_tag="ANIA_08421" class="clusterblast-orf" id="dummy-1_h1_9_25"  />
</g>
</svg>
