<svg xmlns="http://www.w3.org/2000/svg" xmlns:xlink="http://www.w3.org/1999/xlink" version="1.1" x="0" y="0" height="230" width="800" viewBox="0 0 800 230" preserveAspectRatio="none"  >
<g label="Query sequence" class="clusterblast-cluster"  >
<text x="5" y="20" class="clusterblast-acc"  >
Query sequence</text>
<line x1="10" y1="35" x2="778.0" y2="35" style="stroke-width:1; stroke:grey; "  />
<polygon points="292,35 297,30 336,30 336,40 297,40 292,35 " style="fill:#d81515; stroke-width:1; stroke:black; " description="&lt;b&gt;input.path1.gene1&lt;/b&gt;&lt;br&gt;input.path1.gene1&lt;br&gt;Location: 28 - 5614" locus_tag="input.path1.gene1" class="clusterblast-orf" id="dummy-1_q0_0_all"  />
<polygon points="347,35 348,30 348,40 347,35 " style="fill:white; stroke-width:1; stroke:black; " description="&lt;b&gt;input.path1.gene2&lt;/b&gt;&lt;br&gt;input.path1.gene2&lt;br&gt;Location: 7046 - 7228" locus_tag="input.path1.gene2" class="clusterblast-orf" id="dummy-1_q1_0_all"  />
<polygon points="350,40 358,40 363,35 358,30 350,30 350,40 " style="fill:#15d815; stroke-width:1; stroke:black; " description="&lt;b&gt;input.path1.gene3&lt;/b&gt;&lt;br&gt;input.path1.gene3&lt;br&gt;Location: 7434 - 9087" locus_tag="input.path1.gene3" class="clusterblast-orf" id="dummy-1_q2_0_all"  />
<polygon points="368,35 373,30 378,30 378,40 373,40 368,35 " style="fill:#1515d8; stroke-width:1; stroke:black; " description="&lt;b&gt;input.path1.gene4&lt;/b&gt;&lt;br&gt;input.path1.gene4&lt;br&gt;Location: 9853 - 11030" locus_tag="input.path1.gene4" class="clusterblast-orf" id="dummy-1_q3_0_all"  />
<polygon points="387,40 391,40 396,35 391,30 387,30 387,40 " style="fill:#d815d8; stroke-width:1; stroke:black; " description="&lt;b&gt;input.path1.gene5&lt;/b&gt;&lt;br&gt;input.path1.gene5&lt;br&gt;Location: 12281 - 13371" locus_tag="input.path1.gene5" class="clusterblast-orf" id="dummy-1_q4_0_all"  />
<polygon points="434,40 435,40 440,35 435,30 434,30 434,40 " style="fill:#d8d815; stroke-width:1; stroke:black; " description="&lt;b&gt;input.path1.gene6&lt;/b&gt;&lt;br&gt;input.path1.gene6&lt;br&gt;Location: 18291 - 19098" locus_tag="input.path1.gene6" class="clusterblast-orf" id="dummy-1_q5_0_all"  />
<polygon points="440,35 445,30 449,30 449,40 445,40 440,35 " style="fill:white; stroke-width:1; stroke:black; " description="&lt;b&gt;input.path1.gene7&lt;/b&gt;&lt;br&gt;input.path1.gene7&lt;br&gt;Location: 19159 - 20247" locus_tag="input.path1.gene7" class="clusterblast-orf" id="dummy-1_q6_0_all"  />
<polygon points="463,40 466,35 463,30 463,40 " style="fill:#15d8d8; stroke-width:1; stroke:black; " description="&lt;b&gt;input.path1.gene8&lt;/b&gt;&lt;br&gt;input.path1.gene8&lt;br&gt;Location: 22014 - 22408" locus_tag="input.path1.gene8" class="clusterblast-orf" id="dummy-1_q7_0_all"  />
<polygon points="474,35 479,30 487,30 487,40 479,40 474,35 " style="fill:white; stroke-width:1; stroke:black; " description="&lt;b&gt;input.path1.gene9&lt;/b&gt;&lt;br&gt;input.path1.gene9&lt;br&gt;Location: 23425 - 25138" locus_tag="input.path1.gene9" class="clusterblast-orf" id="dummy-1_q8_0_all"  />
</g>
<g label="NC_016472" description="NC_016472 (10589241-10691973): Thermothelomyces thermophilus ATCC 42464 chrom... (6% of genes show similarity), NRPS" class="clusterblast-cluster"  >
<text x="5" y="70" class="clusterblast-acc"  >
<a xlink:href="https://antismash-db.secondarymetabolites.org/area?record=NC_016472&amp;start=10589241&amp;end=10691973" target="_blank">NC_016472 (10589241-10691973)</a>: Thermothelomyces thermophilus ATCC 42464 chrom... (6% of genes show similarity), NRPS</text>
<line x1="10" y1="85" x2="778.0" y2="85" style="stroke-width:1; stroke:grey; "  />
</g>
<g id="a1_000"  >
<polygon points="0,85 5,80 6,80 6,90 5,90 0,85 " style="fill:white; stroke-width:1; stroke:black; " description="&lt;b&gt;MYCTH_2299842&lt;/b&gt;&lt;br&gt;uncharacterized protein&lt;br&gt;Location: 10691924 - 10691127" locus_tag="MYCTH_2299842" class="clusterblast-orf" id="dummy-1_h1_8_0"  />
</g>
<g id="a1_001"  >
<polygon points="8,85 12,80 12,90 8,85 " style="fill:white; stroke-width:1; stroke:black; " description="&lt;b&gt;MYCTH_2052590&lt;/b&gt;&lt;br&gt;uncharacterized protein&lt;br&gt;Location: 10690880 - 10690275" locus_tag="MYCTH_2052590" class="clusterblast-orf" id="dummy-1_h1_8_1"  />
</g>
<g id="a1_002"  >
<polygon points="25,90 31,90 36,85 31,80 25,80 25,90 " style="fill:white; stroke-width:1; stroke:black; " description="&lt;b&gt;MYCTH_2299841&lt;/b&gt;&lt;br&gt;uncharacterized protein&lt;br&gt;Location: 10688617 - 10687192" locus_tag="MYCTH_2299841" class="clusterblast-orf" id="dummy-1_h1_8_2"  />
</g>
<g id="a1_003"  >
<polygon points="47,90 48,90 53,85 48,80 47,80 47,90 " style="fill:white; stroke-width:1; stroke:black; " description="&lt;b&gt;MYCTH_2299840&lt;/b&gt;&lt;br&gt;uncharacterized protein&lt;br&gt;Location: 10685732 - 10685034" locus_tag="MYCTH_2299840" class="clusterblast-orf" id="dummy-1_h1_8_3"  />
</g>
<g id="a1_004"  >
<polygon points="56,85 58,80 58,90 56,85 " style="fill:white; stroke-width:1; stroke:black; " description="&lt;b&gt;MYCTH_2299838&lt;/b&gt;&lt;br&gt;uncharacterized protein&lt;br&gt;Location: 10684650 - 10684336" locus_tag="MYCTH_2299838" class="clusterblast-orf" id="dummy-1_h1_8_4"  />
</g>
<g id="a1_005"  >
<polygon points="68,85 73,80 77,80 77,90 73,90 68,85 " style="fill:white; stroke-width:1; stroke:black; " description="&lt;b&gt;MYCTH_2299837&lt;/b&gt;&lt;br&gt;uncharacterized protein&lt;br&gt;Location: 10683081 - 10681951" locus_tag="MYCTH_2299837" class="clusterblast-orf" id="dummy-1_h1_8_5"  />
</g>
<g id="a1_006"  >
<polygon points="86,90 102,90 107,85 102,80 86,80 86,90 " style="fill:#15d815; stroke-width:1; stroke:black; " description="&lt;b&gt;MYCTH_59106&lt;/b&gt;&lt;br&gt;Aminoacyl-tRNA synthetase&lt;br&gt;Location: 10680788 - 10678038&lt;br&gt;&lt;br&gt;&lt;b&gt;BlastP hit with input.path1.gene3&lt;/b&gt;&lt;br&gt;Percentage identity: 34&lt;br&gt;Percentage coverage: 63&lt;br&gt;BLAST bit score: 165&lt;br&gt;E-value: 4.36e-42" locus_tag="MYCTH_59106" class="clusterblast-orf" id="dummy-1_h1_8_6"  />
</g>
<g id="a1_007"  >
<polygon points="117,90 118,90 123,85 118,80 117,80 117,90 " style="fill:white; stroke-width:1; stroke:black; " description="&lt;b&gt;MYCTH_2124673&lt;/b&gt;&lt;br&gt;uncharacterized protein&lt;br&gt;Location: 10676733 - 10675939" locus_tag="MYCTH_2124673" class="clusterblast-orf" id="dummy-1_h1_8_7"  />
</g>
<g id="a1_008"  >
<polygon points="134,85 139,80 148,80 148,90 139,90 134,85 " style="fill:white; stroke-width:1; stroke:black; " description="&lt;b&gt;MYCTH_2299830&lt;/b&gt;&lt;br&gt;uncharacterized protein&lt;br&gt;Location: 10674554 - 10672756" locus_tag="MYCTH_2299830" class="clusterblast-orf" id="dummy-1_h1_8_8"  />
</g>
<g id="a1_009"  >
<polygon points="172,90 180,90 185,85 180,80 172,80 172,90 " style="fill:white; stroke-width:1; stroke:black; " description="&lt;b&gt;MYCTH_2137894&lt;/b&gt;&lt;br&gt;uncharacterized protein&lt;br&gt;Location: 10669688 - 10667978" locus_tag="MYCTH_2137894" class="clusterblast-orf" id="dummy-1_h1_8_9"  />
</g>
<g id="a1_0010"  >
<polygon points="195,90 200,90 205,85 200,80 195,80 195,90 " style="fill:white; stroke-width:1; stroke:black; " description="&lt;b&gt;MYCTH_2299820&lt;/b&gt;&lt;br&gt;uncharacterized protein&lt;br&gt;Location: 10666661 - 10665410" locus_tag="MYCTH_2299820" class="clusterblast-orf" id="dummy-1_h1_8_10"  />
</g>
<g id="a1_0011"  >
<polygon points="213,85 218,80 220,80 220,90 218,90 213,85 " style="fill:white; stroke-width:1; stroke:black; " description="&lt;b&gt;MYCTH_2299819&lt;/b&gt;&lt;br&gt;uncharacterized protein&lt;br&gt;Location: 10664361 - 10663411" locus_tag="MYCTH_2299819" class="clusterblast-orf" id="dummy-1_h1_8_11"  />
</g>
<g id="a1_0012"  >
<polygon points="231,85 236,80 274,80 274,90 236,90 231,85 " style="fill:white; stroke-width:1; stroke:black; " description="&lt;b&gt;MYCTH_73236&lt;/b&gt;&lt;br&gt;non-ribosomal peptide synthetase&lt;br&gt;Location: 10661973 - 10656484" locus_tag="MYCTH_73236" class="clusterblast-orf" id="dummy-1_h1_8_12"  />
</g>
<g id="a1_0013"  >
<polygon points="283,85 288,80 290,80 290,90 288,90 283,85 " style="fill:white; stroke-width:1; stroke:black; " description="&lt;b&gt;MYCTH_2299806&lt;/b&gt;&lt;br&gt;uncharacterized protein&lt;br&gt;Location: 10655332 - 10654388" locus_tag="MYCTH_2299806" class="clusterblast-orf" id="dummy-1_h1_8_13"  />
</g>
<g id="a1_0014"  >
<polygon points="305,90 314,90 319,85 314,80 305,80 305,90 " style="fill:white; stroke-width:1; stroke:black; " description="&lt;b&gt;MYCTH_2299804&lt;/b&gt;&lt;br&gt;uncharacterized protein&lt;br&gt;Location: 10652444 - 10650627" locus_tag="MYCTH_2299804" class="clusterblast-orf" id="dummy-1_h1_8_14"  />
</g>
<g id="a1_0015"  >
<polygon points="327,90 336,90 341,85 336,80 327,80 327,90 " style="fill:white; stroke-width:1; stroke:black; " description="&lt;b&gt;MYCTH_2087100&lt;/b&gt;&lt;br&gt;uncharacterized protein&lt;br&gt;Location: 10649623 - 10647874" locus_tag="MYCTH_2087100" class="clusterblast-orf" id="dummy-1_h1_8_15"  />
</g>
<g id="a1_0016"  >
<polygon points="347,90 351,90 356,85 351,80 347,80 347,90 " style="fill:white; stroke-width:1; stroke:black; " description="&lt;b&gt;MYCTH_97342&lt;/b&gt;&lt;br&gt;RTA1 like protein&lt;br&gt;Location: 10647041 - 10645839" locus_tag="MYCTH_97342" class="clusterblast-orf" id="dummy-1_h1_8_16"  />
</g>
<g id="a1_0017"  >
<polygon points="370,85 375,80 398,80 398,90 375,90 370,85 " style="fill:white; stroke-width:1; stroke:black; " description="&lt;b&gt;MYCTH_2299794&lt;/b&gt;&lt;br&gt;uncharacterized protein&lt;br&gt;Location: 10644102 - 10640414" locus_tag="MYCTH_2299794" class="clusterblast-orf" id="dummy-1_h1_8_17"  />
</g>
<g id="a1_0018"  >
<polygon points="414,85 419,80 429,80 429,90 419,90 414,85 " style="fill:white; stroke-width:1; stroke:black; " description="&lt;b&gt;MYCTH_109499&lt;/b&gt;&lt;br&gt;general substrate transporter&lt;br&gt;Location: 10638428 - 10636416" locus_tag="MYCTH_109499" class="clusterblast-orf" id="dummy-1_h1_8_18"  />
</g>
<g id="a1_0019"  >
<polygon points="437,85 442,80 445,80 445,90 442,90 437,85 " style="fill:white; stroke-width:1; stroke:black; " description="&lt;b&gt;MYCTH_112802&lt;/b&gt;&lt;br&gt;Crotonase-like protein&lt;br&gt;Location: 10635390 - 10634403" locus_tag="MYCTH_112802" class="clusterblast-orf" id="dummy-1_h1_8_19"  />
</g>
<g id="a1_0020"  >
<polygon points="448,90 455,90 460,85 455,80 448,80 448,90 " style="fill:white; stroke-width:1; stroke:black; " description="&lt;b&gt;MYCTH_59137&lt;/b&gt;&lt;br&gt;siderophore biosynthesis protein&lt;br&gt;Location: 10633979 - 10632494" locus_tag="MYCTH_59137" class="clusterblast-orf" id="dummy-1_h1_8_20"  />
</g>
<g id="a1_0021"  >
<polygon points="465,90 493,90 498,85 493,80 465,80 465,90 " style="fill:white; stroke-width:1; stroke:black; " description="&lt;b&gt;MYCTH_104717&lt;/b&gt;&lt;br&gt;ABC transporter-like protein&lt;br&gt;Location: 10631807 - 10627496" locus_tag="MYCTH_104717" class="clusterblast-orf" id="dummy-1_h1_8_21"  />
</g>
<g id="a1_0022"  >
<polygon points="503,85 508,80 562,80 562,90 508,90 503,85 " style="fill:#d81515; stroke-width:1; stroke:black; " description="&lt;b&gt;MYCTH_112805&lt;/b&gt;&lt;br&gt;non-ribosomal peptide synthetase&lt;br&gt;Location: 10626902 - 10619242&lt;br&gt;&lt;br&gt;&lt;b&gt;BlastP hit with input.path1.gene1&lt;/b&gt;&lt;br&gt;Percentage identity: 36&lt;br&gt;Percentage coverage: 46&lt;br&gt;BLAST bit score: 415&lt;br&gt;E-value: 5e-116" locus_tag="MYCTH_112805" class="clusterblast-orf" id="dummy-1_h1_8_22"  />
</g>
<g id="a1_0023"  >
<polygon points="576,90 581,90 586,85 581,80 576,80 576,90 " style="fill:white; stroke-width:1; stroke:black; " description="&lt;b&gt;MYCTH_40734&lt;/b&gt;&lt;br&gt;uncharacterized protein&lt;br&gt;Location: 10617467 - 10616173" locus_tag="MYCTH_40734" class="clusterblast-orf" id="dummy-1_h1_8_23"  />
</g>
<g id="a1_0024"  >
<polygon points="589,85 594,80 602,80 602,90 594,90 589,85 " style="fill:white; stroke-width:1; stroke:black; " description="&lt;b&gt;MYCTH_2116408&lt;/b&gt;&lt;br&gt;uncharacterized protein&lt;br&gt;Location: 10615774 - 10614079" locus_tag="MYCTH_2116408" class="clusterblast-orf" id="dummy-1_h1_8_24"  />
</g>
<g id="a1_0025"  >
<polygon points="608,90 615,90 620,85 615,80 608,80 608,90 " style="fill:white; stroke-width:1; stroke:black; " description="&lt;b&gt;MYCTH_2052727&lt;/b&gt;&lt;br&gt;uncharacterized protein&lt;br&gt;Location: 10613311 - 10611841" locus_tag="MYCTH_2052727" class="clusterblast-orf" id="dummy-1_h1_8_25"  />
</g>
<g id="a1_0026"  >
<polygon points="623,85 627,80 627,90 623,85 " style="fill:white; stroke-width:1; stroke:black; " description="&lt;b&gt;MYCTH_2051955&lt;/b&gt;&lt;br&gt;uncharacterized protein&lt;br&gt;Location: 10611378 - 10610936" locus_tag="MYCTH_2051955" class="clusterblast-orf" id="dummy-1_h1_8_26"  />
</g>
<g id="a1_0027"  >
<polygon points="646,85 651,80 655,80 655,90 651,90 646,85 " style="fill:white; stroke-width:1; stroke:black; " description="&lt;b&gt;MYCTH_2299783&lt;/b&gt;&lt;br&gt;uncharacterized protein&lt;br&gt;Location: 10608385 - 10607240" locus_tag="MYCTH_2299783" class="clusterblast-orf" id="dummy-1_h1_8_27"  />
</g>
<g id="a1_0028"  >
<polygon points="661,85 666,80 668,80 668,90 666,90 661,85 " style="fill:white; stroke-width:1; stroke:black; " description="&lt;b&gt;MYCTH_2124653&lt;/b&gt;&lt;br&gt;uncharacterized protein&lt;br&gt;Location: 10606500 - 10605556" locus_tag="MYCTH_2124653" class="clusterblast-orf" id="dummy-1_h1_8_28"  />
</g>
<g id="a1_0029"  >
<polygon points="692,90 700,90 705,85 700,80 692,80 692,90 " style="fill:white; stroke-width:1; stroke:black; " description="&lt;b&gt;MYCTH_89319&lt;/b&gt;&lt;br&gt;uncharacterized protein&lt;br&gt;Location: 10602493 - 10600810" locus_tag="MYCTH_89319" class="clusterblast-orf" id="dummy-1_h1_8_29"  />
</g>
<g id="a1_0030"  >
<polygon points="708,85 713,80 729,80 729,90 713,90 708,85 " style="fill:white; stroke-width:1; stroke:black; " description="&lt;b&gt;MYCTH_2299780&lt;/b&gt;&lt;br&gt;glycoside hydrolase family 55 protein&lt;br&gt;Location: 10600431 - 10597705" locus_tag="MYCTH_2299780" class="clusterblast-orf" id="dummy-1_h1_8_30"  />
</g>
<g id="a1_0031"  >
<polygon points="759,85 764,80 780,80 780,90 764,90 759,85 " style="fill:white; stroke-width:1; stroke:black; " description="&lt;b&gt;MYCTH_2299779&lt;/b&gt;&lt;br&gt;uncharacterized protein&lt;br&gt;Location: 10593838 - 10591196" locus_tag="MYCTH_2299779" class="clusterblast-orf" id="dummy-1_h1_8_31"  />
</g>
</svg>
