<svg xmlns="http://www.w3.org/2000/svg" xmlns:xlink="http://www.w3.org/1999/xlink" version="1.1" x="0" y="0" height="230" width="800" viewBox="0 0 800 230" preserveAspectRatio="none"  >
<g label="Query sequence" class="clusterblast-cluster"  >
<text x="5" y="20" class="clusterblast-acc"  >
Query sequence</text>
<line x1="10" y1="35" x2="778.0" y2="35" style="stroke-width:1; stroke:grey; "  />
<polygon points="0,35 5,30 7,30 7,40 5,40 0,35 " style="fill:white; stroke-width:1; stroke:black; " description="&lt;b&gt;input.path1.gene165&lt;/b&gt;&lt;br&gt;input.path1.gene165&lt;br&gt;Location: 490966 - 491796" locus_tag="input.path1.gene165" class="clusterblast-orf" id="dummy-2_q0_0_all"  />
<polygon points="15,40 20,40 25,35 20,30 15,30 15,40 " style="fill:white; stroke-width:1; stroke:black; " description="&lt;b&gt;input.path1.gene166&lt;/b&gt;&lt;br&gt;input.path1.gene166&lt;br&gt;Location: 492624 - 493746" locus_tag="input.path1.gene166" class="clusterblast-orf" id="dummy-2_q1_0_all"  />
<polygon points="26,35 31,30 31,30 31,40 31,40 26,35 " style="fill:#d81515; stroke-width:1; stroke:black; " description="&lt;b&gt;input.path1.gene167&lt;/b&gt;&lt;br&gt;input.path1.gene167&lt;br&gt;Location: 493871 - 494377" locus_tag="input.path1.gene167" class="clusterblast-orf" id="dummy-2_q2_0_all"  />
<polygon points="60,40 68,40 73,35 68,30 60,30 60,40 " style="fill:#77d815; stroke-width:1; stroke:black; " description="&lt;b&gt;input.path1.gene168&lt;/b&gt;&lt;br&gt;input.path1.gene168&lt;br&gt;Location: 497555 - 498967" locus_tag="input.path1.gene168" class="clusterblast-orf" id="dummy-2_q3_0_all"  />
<polygon points="81,35 86,30 93,30 93,40 86,40 81,35 " style="fill:white; stroke-width:1; stroke:black; " description="&lt;b&gt;input.path1.gene169&lt;/b&gt;&lt;br&gt;input.path1.gene169&lt;br&gt;Location: 499861 - 501177" locus_tag="input.path1.gene169" class="clusterblast-orf" id="dummy-2_q4_0_all"  />
<polygon points="94,40 98,40 103,35 98,30 94,30 94,40 " style="fill:#15d8d8; stroke-width:1; stroke:black; " description="&lt;b&gt;input.path1.gene170&lt;/b&gt;&lt;br&gt;input.path1.gene170&lt;br&gt;Location: 501231 - 502279" locus_tag="input.path1.gene170" class="clusterblast-orf" id="dummy-2_q5_0_all"  />
<polygon points="104,35 109,30 123,30 123,40 109,40 104,35 " style="fill:#7715d8; stroke-width:1; stroke:black; " description="&lt;b&gt;input.path1.gene171&lt;/b&gt;&lt;br&gt;input.path1.gene171&lt;br&gt;Location: 502362 - 504403" locus_tag="input.path1.gene171" class="clusterblast-orf" id="dummy-2_q6_0_all"  />
<polygon points="128,40 142,40 147,35 142,30 128,30 128,40 " style="fill:#d87715; stroke-width:1; stroke:black; " description="&lt;b&gt;input.path1.gene172&lt;/b&gt;&lt;br&gt;input.path1.gene172&lt;br&gt;Location: 505037 - 507112" locus_tag="input.path1.gene172" class="clusterblast-orf" id="dummy-2_q7_0_all"  />
<polygon points="148,35 153,30 156,30 156,40 153,40 148,35 " style="fill:#15d815; stroke-width:1; stroke:black; " description="&lt;b&gt;input.path1.gene173&lt;/b&gt;&lt;br&gt;input.path1.gene173&lt;br&gt;Location: 507137 - 508062" locus_tag="input.path1.gene173" class="clusterblast-orf" id="dummy-2_q8_0_all"  />
<polygon points="164,35 169,30 176,30 176,40 169,40 164,35 " style="fill:#1577d8; stroke-width:1; stroke:black; " description="&lt;b&gt;input.path1.gene174&lt;/b&gt;&lt;br&gt;input.path1.gene174&lt;br&gt;Location: 508981 - 510221" locus_tag="input.path1.gene174" class="clusterblast-orf" id="dummy-2_q9_0_all"  />
<polygon points="182,40 247,40 252,35 247,30 182,30 182,40 " style="fill:#d815d8; stroke-width:1; stroke:black; " description="&lt;b&gt;input.path1.gene175&lt;/b&gt;&lt;br&gt;input.path1.gene175&lt;br&gt;Location: 510911 - 518569" locus_tag="input.path1.gene175" class="clusterblast-orf" id="dummy-2_q10_0_all"  />
<polygon points="256,35 261,30 262,30 262,40 261,40 256,35 " style="fill:white; stroke-width:1; stroke:black; " description="&lt;b&gt;input.path1.gene176&lt;/b&gt;&lt;br&gt;input.path1.gene176&lt;br&gt;Location: 519011 - 519627" locus_tag="input.path1.gene176" class="clusterblast-orf" id="dummy-2_q11_0_all"  />
<polygon points="278,40 289,40 294,35 289,30 278,30 278,40 " style="fill:white; stroke-width:1; stroke:black; " description="&lt;b&gt;input.path1.gene177&lt;/b&gt;&lt;br&gt;input.path1.gene177&lt;br&gt;Location: 521451 - 523171" locus_tag="input.path1.gene177" class="clusterblast-orf" id="dummy-2_q12_0_all"  />
<polygon points="354,40 361,40 366,35 361,30 354,30 354,40 " style="fill:white; stroke-width:1; stroke:black; " description="&lt;b&gt;input.path1.gene178&lt;/b&gt;&lt;br&gt;input.path1.gene178&lt;br&gt;Location: 529679 - 531023" locus_tag="input.path1.gene178" class="clusterblast-orf" id="dummy-2_q13_0_all"  />
<polygon points="390,40 401,40 406,35 401,30 390,30 390,40 " style="fill:white; stroke-width:1; stroke:black; " description="&lt;b&gt;input.path1.gene179&lt;/b&gt;&lt;br&gt;input.path1.gene179&lt;br&gt;Location: 533626 - 535396" locus_tag="input.path1.gene179" class="clusterblast-orf" id="dummy-2_q14_0_all"  />
<polygon points="409,35 414,30 416,30 416,40 414,40 409,35 " style="fill:white; stroke-width:1; stroke:black; " description="&lt;b&gt;input.path1.gene180&lt;/b&gt;&lt;br&gt;input.path1.gene180&lt;br&gt;Location: 535741 - 536477" locus_tag="input.path1.gene180" class="clusterblast-orf" id="dummy-2_q15_0_all"  />
<polygon points="416,40 454,40 459,35 454,30 416,30 416,40 " style="fill:#d8d815; stroke-width:1; stroke:black; " description="&lt;b&gt;input.path1.gene181&lt;/b&gt;&lt;br&gt;input.path1.gene181&lt;br&gt;Location: 536498 - 541150" locus_tag="input.path1.gene181" class="clusterblast-orf" id="dummy-2_q16_0_all"  />
<polygon points="477,40 481,40 486,35 481,30 477,30 477,40 " style="fill:#15d877; stroke-width:1; stroke:black; " description="&lt;b&gt;input.path1.gene182&lt;/b&gt;&lt;br&gt;input.path1.gene182&lt;br&gt;Location: 543133 - 544084" locus_tag="input.path1.gene182" class="clusterblast-orf" id="dummy-2_q17_0_all"  />
<polygon points="490,35 495,30 498,30 498,40 495,40 490,35 " style="fill:white; stroke-width:1; stroke:black; " description="&lt;b&gt;input.path1.gene183&lt;/b&gt;&lt;br&gt;input.path1.gene183&lt;br&gt;Location: 544530 - 545420" locus_tag="input.path1.gene183" class="clusterblast-orf" id="dummy-2_q18_0_all"  />
<polygon points="504,35 509,30 614,30 614,40 509,40 504,35 " style="fill:#d815d8; stroke-width:1; stroke:black; " description="&lt;b&gt;input.path1.gene184&lt;/b&gt;&lt;br&gt;input.path1.gene184&lt;br&gt;Location: 546074 - 558137" locus_tag="input.path1.gene184" class="clusterblast-orf" id="dummy-2_q19_0_all"  />
<polygon points="626,40 627,40 632,35 627,30 626,30 626,40 " style="fill:#1515d8; stroke-width:1; stroke:black; " description="&lt;b&gt;input.path1.gene185&lt;/b&gt;&lt;br&gt;input.path1.gene185&lt;br&gt;Location: 559430 - 560129" locus_tag="input.path1.gene185" class="clusterblast-orf" id="dummy-2_q20_0_all"  />
<polygon points="633,35 638,30 664,30 664,40 638,40 633,35 " style="fill:#d81577; stroke-width:1; stroke:black; " description="&lt;b&gt;input.path1.gene186&lt;/b&gt;&lt;br&gt;input.path1.gene186&lt;br&gt;Location: 560231 - 563613" locus_tag="input.path1.gene186" class="clusterblast-orf" id="dummy-2_q21_0_all"  />
<polygon points="669,35 674,30 676,30 676,40 674,40 669,35 " style="fill:white; stroke-width:1; stroke:black; " description="&lt;b&gt;input.path1.gene187&lt;/b&gt;&lt;br&gt;input.path1.gene187&lt;br&gt;Location: 564114 - 564880" locus_tag="input.path1.gene187" class="clusterblast-orf" id="dummy-2_q22_0_all"  />
<polygon points="718,40 724,40 729,35 724,30 718,30 718,40 " style="fill:white; stroke-width:1; stroke:black; " description="&lt;b&gt;input.path1.gene188&lt;/b&gt;&lt;br&gt;input.path1.gene188&lt;br&gt;Location: 569448 - 570645" locus_tag="input.path1.gene188" class="clusterblast-orf" id="dummy-2_q23_0_all"  />
<polygon points="734,35 739,30 750,30 750,40 739,40 734,35 " style="fill:white; stroke-width:1; stroke:black; " description="&lt;b&gt;input.path1.gene189&lt;/b&gt;&lt;br&gt;input.path1.gene189&lt;br&gt;Location: 571185 - 572948" locus_tag="input.path1.gene189" class="clusterblast-orf" id="dummy-2_q24_0_all"  />
<polygon points="756,40 767,40 772,35 767,30 756,30 756,40 " style="fill:white; stroke-width:1; stroke:black; " description="&lt;b&gt;input.path1.gene190&lt;/b&gt;&lt;br&gt;input.path1.gene190&lt;br&gt;Location: 573685 - 575347" locus_tag="input.path1.gene190" class="clusterblast-orf" id="dummy-2_q25_0_all"  />
<polygon points="775,35 780,30 780,30 780,40 780,40 775,35 " style="fill:white; stroke-width:1; stroke:black; " description="&lt;b&gt;input.path1.gene191&lt;/b&gt;&lt;br&gt;input.path1.gene191&lt;br&gt;Location: 575703 - 576221" locus_tag="input.path1.gene191" class="clusterblast-orf" id="dummy-2_q26_0_all"  />
</g>
<g label="NW_020194484" description="NW_020194484 (7340-83776): Amorphotheca resinae ATCC 22711 unplaced genomic s... (41% of genes show similarity), T1PKS,terpene" class="clusterblast-cluster"  >
<text x="5" y="70" class="clusterblast-acc"  >
<a xlink:href="https://antismash-db.secondarymetabolites.org/area?record=NW_020194484&amp;start=7340&amp;end=83776" target="_blank">NW_020194484 (7340-83776)</a>: Amorphotheca resinae ATCC 22711 unplaced genomic s... (41% of genes show similarity), T1PKS,terpene</text>
<line x1="10" y1="85" x2="778.0" y2="85" style="stroke-width:1; stroke:grey; "  />
</g>
<g id="a2_000"  >
<polygon points="54,90 68,90 73,85 68,80 54,80 54,90 " style="fill:white; stroke-width:1; stroke:black; " description="&lt;b&gt;M430DRAFT_110719&lt;/b&gt;&lt;br&gt;glycosyltransferase family 90 protein&lt;br&gt;Location: 81285 - 79215" locus_tag="M430DRAFT_110719" class="clusterblast-orf" id="dummy-2_h2_3_0"  />
</g>
<g id="a2_001"  >
<polygon points="94,85 99,80 107,80 107,90 99,90 94,85 " style="fill:white; stroke-width:1; stroke:black; " description="&lt;b&gt;M430DRAFT_23067&lt;/b&gt;&lt;br&gt;glycoside hydrolase family 5 protein&lt;br&gt;Location: 76830 - 75413" locus_tag="M430DRAFT_23067" class="clusterblast-orf" id="dummy-2_h2_3_1"  />
</g>
<g id="a2_002"  >
<polygon points="126,90 132,90 137,85 132,80 126,80 126,90 " style="fill:white; stroke-width:1; stroke:black; " description="&lt;b&gt;M430DRAFT_70073&lt;/b&gt;&lt;br&gt;hypothetical protein&lt;br&gt;Location: 73418 - 72117" locus_tag="M430DRAFT_70073" class="clusterblast-orf" id="dummy-2_h2_3_2"  />
</g>
<g id="a2_003"  >
<polygon points="151,85 156,80 169,80 169,90 156,90 151,85 " style="fill:white; stroke-width:1; stroke:black; " description="&lt;b&gt;M430DRAFT_23065&lt;/b&gt;&lt;br&gt;hypothetical protein&lt;br&gt;Location: 70680 - 68672" locus_tag="M430DRAFT_23065" class="clusterblast-orf" id="dummy-2_h2_3_3"  />
</g>
<g id="a2_004"  >
<polygon points="195,85 200,80 211,80 211,90 200,90 195,85 " style="fill:#7715d8; stroke-width:1; stroke:black; " description="&lt;b&gt;M430DRAFT_23063&lt;/b&gt;&lt;br&gt;hypothetical protein&lt;br&gt;Location: 65786 - 64067&lt;br&gt;&lt;br&gt;&lt;b&gt;BlastP hit with input.path1.gene171&lt;/b&gt;&lt;br&gt;Percentage identity: 33&lt;br&gt;Percentage coverage: 93&lt;br&gt;BLAST bit score: 259&lt;br&gt;E-value: 9.39e-78" locus_tag="M430DRAFT_23063" class="clusterblast-orf" id="dummy-2_h2_3_4"  />
</g>
<g id="a2_005"  >
<polygon points="219,90 221,90 226,85 221,80 219,80 219,90 " style="fill:#15d815; stroke-width:1; stroke:black; " description="&lt;b&gt;M430DRAFT_110425&lt;/b&gt;&lt;br&gt;hypothetical protein&lt;br&gt;Location: 63255 - 62399&lt;br&gt;&lt;br&gt;&lt;b&gt;BlastP hit with input.path1.gene173&lt;/b&gt;&lt;br&gt;Percentage identity: 36&lt;br&gt;Percentage coverage: 99&lt;br&gt;BLAST bit score: 171&lt;br&gt;E-value: 2.76e-50" locus_tag="M430DRAFT_110425" class="clusterblast-orf" id="dummy-2_h2_3_5"  />
</g>
<g id="a2_006"  >
<polygon points="232,85 237,80 251,80 251,90 237,90 232,85 " style="fill:#d87715; stroke-width:1; stroke:black; " description="&lt;b&gt;M430DRAFT_70069&lt;/b&gt;&lt;br&gt;hypothetical protein&lt;br&gt;Location: 61792 - 59751&lt;br&gt;&lt;br&gt;&lt;b&gt;BlastP hit with input.path1.gene172&lt;/b&gt;&lt;br&gt;Percentage identity: 44&lt;br&gt;Percentage coverage: 84&lt;br&gt;BLAST bit score: 348&lt;br&gt;E-value: 4.95e-112" locus_tag="M430DRAFT_70069" class="clusterblast-orf" id="dummy-2_h2_3_6"  />
</g>
<g id="a2_007"  >
<polygon points="255,90 268,90 273,85 268,80 255,80 255,90 " style="fill:#15d8d8; stroke-width:1; stroke:black; " description="&lt;b&gt;M430DRAFT_23060&lt;/b&gt;&lt;br&gt;hypothetical protein&lt;br&gt;Location: 59264 - 57284&lt;br&gt;&lt;br&gt;&lt;b&gt;BlastP hit with input.path1.gene170&lt;/b&gt;&lt;br&gt;Percentage identity: 47&lt;br&gt;Percentage coverage: 87&lt;br&gt;BLAST bit score: 146&lt;br&gt;E-value: 2.8e-39" locus_tag="M430DRAFT_23060" class="clusterblast-orf" id="dummy-2_h2_3_7"  />
</g>
<g id="a2_008"  >
<polygon points="274,85 279,80 283,80 283,90 279,90 274,85 " style="fill:#1515d8; stroke-width:1; stroke:black; " description="&lt;b&gt;M430DRAFT_23059&lt;/b&gt;&lt;br&gt;hypothetical protein&lt;br&gt;Location: 57148 - 56224&lt;br&gt;&lt;br&gt;&lt;b&gt;BlastP hit with input.path1.gene185&lt;/b&gt;&lt;br&gt;Percentage identity: 35&lt;br&gt;Percentage coverage: 50&lt;br&gt;BLAST bit score: 67&lt;br&gt;E-value: 7.05e-11" locus_tag="M430DRAFT_23059" class="clusterblast-orf" id="dummy-2_h2_3_8"  />
</g>
<g id="a2_009"  >
<polygon points="289,85 294,80 298,80 298,90 294,90 289,85 " style="fill:#1577d8; stroke-width:1; stroke:black; " description="&lt;b&gt;M430DRAFT_110432&lt;/b&gt;&lt;br&gt;hypothetical protein&lt;br&gt;Location: 55504 - 54575&lt;br&gt;&lt;br&gt;&lt;b&gt;BlastP hit with input.path1.gene174&lt;/b&gt;&lt;br&gt;Percentage identity: 41&lt;br&gt;Percentage coverage: 97&lt;br&gt;BLAST bit score: 226&lt;br&gt;E-value: 4.95e-71" locus_tag="M430DRAFT_110432" class="clusterblast-orf" id="dummy-2_h2_3_9"  />
</g>
<g id="a2_0010"  >
<polygon points="305,90 372,90 377,85 372,80 305,80 305,90 " style="fill:#d815d8; stroke-width:1; stroke:black; " description="&lt;b&gt;M430DRAFT_110834&lt;/b&gt;&lt;br&gt;hypothetical protein&lt;br&gt;Location: 53776 - 45921&lt;br&gt;&lt;br&gt;&lt;b&gt;BlastP hit with input.path1.gene175&lt;/b&gt;&lt;br&gt;Percentage identity: 50&lt;br&gt;Percentage coverage: 103&lt;br&gt;BLAST bit score: 2233&lt;br&gt;E-value: 0.0&lt;br&gt;&lt;br&gt;&lt;b&gt;BlastP hit with input.path1.gene184&lt;/b&gt;&lt;br&gt;Percentage identity: 34&lt;br&gt;Percentage coverage: 36&lt;br&gt;BLAST bit score: 636&lt;br&gt;E-value: 8.23e-184" locus_tag="M430DRAFT_110834" class="clusterblast-orf" id="dummy-2_h2_3_10"  />
</g>
<g id="a2_0011"  >
<polygon points="386,85 391,80 397,80 397,90 391,90 386,85 " style="fill:white; stroke-width:1; stroke:black; " description="&lt;b&gt;M430DRAFT_129154&lt;/b&gt;&lt;br&gt;hypothetical protein&lt;br&gt;Location: 44973 - 43702" locus_tag="M430DRAFT_129154" class="clusterblast-orf" id="dummy-2_h2_3_11"  />
</g>
<g id="a2_0012"  >
<polygon points="415,90 422,90 427,85 422,80 415,80 415,90 " style="fill:white; stroke-width:1; stroke:black; " description="&lt;b&gt;M430DRAFT_54198&lt;/b&gt;&lt;br&gt;hypothetical protein&lt;br&gt;Location: 41812 - 40421" locus_tag="M430DRAFT_54198" class="clusterblast-orf" id="dummy-2_h2_3_12"  />
</g>
<g id="a2_0013"  >
<polygon points="579,85 584,80 593,80 593,90 584,90 579,85 " style="fill:white; stroke-width:1; stroke:black; " description="&lt;b&gt;M430DRAFT_271666&lt;/b&gt;&lt;br&gt;hypothetical protein&lt;br&gt;Location: 23817 - 22341" locus_tag="M430DRAFT_271666" class="clusterblast-orf" id="dummy-2_h2_3_13"  />
</g>
<g id="a2_0014"  >
<polygon points="700,90 703,85 700,80 700,90 " style="fill:white; stroke-width:1; stroke:black; " description="&lt;b&gt;M430DRAFT_70064&lt;/b&gt;&lt;br&gt;hypothetical protein&lt;br&gt;Location: 10672 - 10301" locus_tag="M430DRAFT_70064" class="clusterblast-orf" id="dummy-2_h2_3_14"  />
</g>
<g id="a2_0015"  >
<polygon points="709,90 712,90 717,85 712,80 709,80 709,90 " style="fill:white; stroke-width:1; stroke:black; " description="&lt;b&gt;M430DRAFT_23053&lt;/b&gt;&lt;br&gt;hypothetical protein&lt;br&gt;Location: 9690 - 8758" locus_tag="M430DRAFT_23053" class="clusterblast-orf" id="dummy-2_h2_3_15"  />
</g>
<g id="a2_0016"  >
<polygon points="721,90 725,85 721,80 721,90 " style="fill:white; stroke-width:1; stroke:black; " description="&lt;b&gt;M430DRAFT_190065&lt;/b&gt;&lt;br&gt;hypothetical protein&lt;br&gt;Location: 8318 - 7848" locus_tag="M430DRAFT_190065" class="clusterblast-orf" id="dummy-2_h2_3_16"  />
</g>
</svg>
