<svg xmlns="http://www.w3.org/2000/svg" xmlns:xlink="http://www.w3.org/1999/xlink" version="1.1" x="0" y="0" height="230" width="800" viewBox="0 0 800 230" preserveAspectRatio="none"  >
<g label="Query sequence" class="clusterblast-cluster"  >
<text x="5" y="20" class="clusterblast-acc"  >
Query sequence</text>
<line x1="10" y1="35" x2="778.0" y2="35" style="stroke-width:1; stroke:grey; "  />
<polygon points="207,35 212,30 236,30 236,40 212,40 207,35 " style="fill:white; stroke-width:1; stroke:black; " description="&lt;b&gt;input.path1.gene192&lt;/b&gt;&lt;br&gt;input.path1.gene192&lt;br&gt;Location: 640688 - 643987" locus_tag="input.path1.gene192" class="clusterblast-orf" id="dummy-1_q0_0_all"  />
<polygon points="247,40 251,40 256,35 251,30 247,30 247,40 " style="fill:#d81515; stroke-width:1; stroke:black; " description="&lt;b&gt;input.path1.gene193&lt;/b&gt;&lt;br&gt;input.path1.gene193&lt;br&gt;Location: 645282 - 646236" locus_tag="input.path1.gene193" class="clusterblast-orf" id="dummy-1_q1_0_all"  />
<polygon points="257,35 262,30 269,30 269,40 262,40 257,35 " style="fill:#15d815; stroke-width:1; stroke:black; " description="&lt;b&gt;input.path1.gene194&lt;/b&gt;&lt;br&gt;input.path1.gene194&lt;br&gt;Location: 646376 - 647727" locus_tag="input.path1.gene194" class="clusterblast-orf" id="dummy-1_q2_0_all"  />
<polygon points="277,40 288,40 293,35 288,30 277,30 277,40 " style="fill:#1597d8; stroke-width:1; stroke:black; " description="&lt;b&gt;input.path1.gene195&lt;/b&gt;&lt;br&gt;input.path1.gene195&lt;br&gt;Location: 648686 - 650450" locus_tag="input.path1.gene195" class="clusterblast-orf" id="dummy-1_q3_0_all"  />
<polygon points="321,40 329,40 334,35 329,30 321,30 321,40 " style="fill:#9715d8; stroke-width:1; stroke:black; " description="&lt;b&gt;input.path1.gene196&lt;/b&gt;&lt;br&gt;input.path1.gene196&lt;br&gt;Location: 653696 - 655202" locus_tag="input.path1.gene196" class="clusterblast-orf" id="dummy-1_q4_0_all"  />
<polygon points="336,35 341,30 351,30 351,40 341,40 336,35 " style="fill:#d89715; stroke-width:1; stroke:black; " description="&lt;b&gt;input.path1.gene197&lt;/b&gt;&lt;br&gt;input.path1.gene197&lt;br&gt;Location: 655377 - 657106" locus_tag="input.path1.gene197" class="clusterblast-orf" id="dummy-1_q5_0_all"  />
<polygon points="373,40 399,40 404,35 399,30 373,30 373,40 " style="fill:#15d897; stroke-width:1; stroke:black; " description="&lt;b&gt;input.path1.gene198&lt;/b&gt;&lt;br&gt;input.path1.gene198&lt;br&gt;Location: 659671 - 663188" locus_tag="input.path1.gene198" class="clusterblast-orf" id="dummy-1_q6_0_all"  />
<polygon points="416,35 421,30 437,30 437,40 421,40 416,35 " style="fill:#1515d8; stroke-width:1; stroke:black; " description="&lt;b&gt;input.path1.gene199&lt;/b&gt;&lt;br&gt;input.path1.gene199&lt;br&gt;Location: 664561 - 666959" locus_tag="input.path1.gene199" class="clusterblast-orf" id="dummy-1_q7_0_all"  />
<polygon points="442,35 447,30 499,30 499,40 447,40 442,35 " style="fill:#d81597; stroke-width:1; stroke:black; " description="&lt;b&gt;input.path1.gene200&lt;/b&gt;&lt;br&gt;input.path1.gene200&lt;br&gt;Location: 667548 - 674100" locus_tag="input.path1.gene200" class="clusterblast-orf" id="dummy-1_q8_0_all"  />
<polygon points="505,35 510,30 512,30 512,40 510,40 505,35 " style="fill:#97d815; stroke-width:1; stroke:black; " description="&lt;b&gt;input.path1.gene201&lt;/b&gt;&lt;br&gt;input.path1.gene201&lt;br&gt;Location: 674786 - 675527" locus_tag="input.path1.gene201" class="clusterblast-orf" id="dummy-1_q9_0_all"  />
<polygon points="560,40 567,40 572,35 567,30 560,30 560,40 " style="fill:white; stroke-width:1; stroke:black; " description="&lt;b&gt;input.path1.gene202&lt;/b&gt;&lt;br&gt;input.path1.gene202&lt;br&gt;Location: 681042 - 682413" locus_tag="input.path1.gene202" class="clusterblast-orf" id="dummy-1_q10_0_all"  />
</g>
<g label="NW_006711178" description="NW_006711178 (114520-207586): Trichoderma reesei QM6a unplaced genomic scaffo... (23% of genes show similarity), isocyanide,terpene" class="clusterblast-cluster"  >
<text x="5" y="70" class="clusterblast-acc"  >
<a xlink:href="https://antismash-db.secondarymetabolites.org/area?record=NW_006711178&amp;start=114520&amp;end=207586" target="_blank">NW_006711178 (114520-207586)</a>: Trichoderma reesei QM6a unplaced genomic scaffo... (23% of genes show similarity), isocyanide,terpene</text>
<line x1="10" y1="85" x2="778.0" y2="85" style="stroke-width:1; stroke:grey; "  />
</g>
<g id="a1_000"  >
<polygon points="0,90 6,90 11,85 6,80 0,80 0,90 " style="fill:white; stroke-width:1; stroke:black; " description="&lt;b&gt;TRIREDRAFT_27219&lt;/b&gt;&lt;br&gt;glycoside hydrolase family 27&lt;br&gt;Location: 205804 - 204531" locus_tag="TRIREDRAFT_27219" class="clusterblast-orf" id="dummy-1_h1_6_0"  />
</g>
<g id="a1_001"  >
<polygon points="20,85 25,80 33,80 33,90 25,90 20,85 " style="fill:white; stroke-width:1; stroke:black; " description="&lt;b&gt;TRIREDRAFT_82146&lt;/b&gt;&lt;br&gt;uncharacterized protein&lt;br&gt;Location: 203461 - 202019" locus_tag="TRIREDRAFT_82146" class="clusterblast-orf" id="dummy-1_h1_6_1"  />
</g>
<g id="a1_002"  >
<polygon points="39,90 54,90 59,85 54,80 39,80 39,90 " style="fill:white; stroke-width:1; stroke:black; " description="&lt;b&gt;TRIREDRAFT_112031&lt;/b&gt;&lt;br&gt;uncharacterized protein&lt;br&gt;Location: 201291 - 198986" locus_tag="TRIREDRAFT_112031" class="clusterblast-orf" id="dummy-1_h1_6_2"  />
</g>
<g id="a1_003"  >
<polygon points="77,85 82,80 94,80 94,90 82,90 77,85 " style="fill:white; stroke-width:1; stroke:black; " description="&lt;b&gt;TRIREDRAFT_112030&lt;/b&gt;&lt;br&gt;uncharacterized protein&lt;br&gt;Location: 196878 - 194975" locus_tag="TRIREDRAFT_112030" class="clusterblast-orf" id="dummy-1_h1_6_3"  />
</g>
<g id="a1_004"  >
<polygon points="97,90 102,90 107,85 102,80 97,80 97,90 " style="fill:white; stroke-width:1; stroke:black; " description="&lt;b&gt;TRIREDRAFT_82145&lt;/b&gt;&lt;br&gt;uncharacterized protein&lt;br&gt;Location: 194626 - 193466" locus_tag="TRIREDRAFT_82145" class="clusterblast-orf" id="dummy-1_h1_6_4"  />
</g>
<g id="a1_005"  >
<polygon points="115,85 120,80 128,80 128,90 120,90 115,85 " style="fill:white; stroke-width:1; stroke:black; " description="&lt;b&gt;TRIREDRAFT_112028&lt;/b&gt;&lt;br&gt;terpene synthase&lt;br&gt;Location: 192586 - 191115" locus_tag="TRIREDRAFT_112028" class="clusterblast-orf" id="dummy-1_h1_6_5"  />
</g>
<g id="a1_006"  >
<polygon points="140,85 145,80 151,80 151,90 145,90 140,85 " style="fill:white; stroke-width:1; stroke:black; " description="&lt;b&gt;TRIREDRAFT_69926&lt;/b&gt;&lt;br&gt;glycosyltransferase&lt;br&gt;Location: 189750 - 188500" locus_tag="TRIREDRAFT_69926" class="clusterblast-orf" id="dummy-1_h1_6_6"  />
</g>
<g id="a1_007"  >
<polygon points="163,90 169,90 174,85 169,80 163,80 163,90 " style="fill:white; stroke-width:1; stroke:black; " description="&lt;b&gt;TRIREDRAFT_69883&lt;/b&gt;&lt;br&gt;uncharacterized protein&lt;br&gt;Location: 187049 - 185800" locus_tag="TRIREDRAFT_69883" class="clusterblast-orf" id="dummy-1_h1_6_7"  />
</g>
<g id="a1_008"  >
<polygon points="178,85 183,80 199,80 199,90 183,90 178,85 " style="fill:white; stroke-width:1; stroke:black; " description="&lt;b&gt;TRIREDRAFT_69944&lt;/b&gt;&lt;br&gt;glycoside hydrolase family 31&lt;br&gt;Location: 185420 - 182991" locus_tag="TRIREDRAFT_69944" class="clusterblast-orf" id="dummy-1_h1_6_8"  />
</g>
<g id="a1_009"  >
<polygon points="216,90 226,90 231,85 226,80 216,80 216,90 " style="fill:white; stroke-width:1; stroke:black; " description="&lt;b&gt;TRIREDRAFT_69957&lt;/b&gt;&lt;br&gt;maltose permease&lt;br&gt;Location: 181052 - 179270" locus_tag="TRIREDRAFT_69957" class="clusterblast-orf" id="dummy-1_h1_6_9"  />
</g>
<g id="a1_0010"  >
<polygon points="237,85 242,80 248,80 248,90 242,90 237,85 " style="fill:white; stroke-width:1; stroke:black; " description="&lt;b&gt;TRIREDRAFT_112022&lt;/b&gt;&lt;br&gt;uncharacterized protein&lt;br&gt;Location: 178644 - 177387" locus_tag="TRIREDRAFT_112022" class="clusterblast-orf" id="dummy-1_h1_6_10"  />
</g>
<g id="a1_0011"  >
<polygon points="262,85 267,80 271,80 271,90 267,90 262,85 " style="fill:white; stroke-width:1; stroke:black; " description="&lt;b&gt;TRIREDRAFT_69896&lt;/b&gt;&lt;br&gt;uncharacterized protein&lt;br&gt;Location: 175813 - 174726" locus_tag="TRIREDRAFT_69896" class="clusterblast-orf" id="dummy-1_h1_6_11"  />
</g>
<g id="a1_0012"  >
<polygon points="278,85 283,80 292,80 292,90 283,90 278,85 " style="fill:white; stroke-width:1; stroke:black; " description="&lt;b&gt;TRIREDRAFT_124043&lt;/b&gt;&lt;br&gt;glycoside hydrolase family 18, chitinase&lt;br&gt;Location: 173903 - 172323" locus_tag="TRIREDRAFT_124043" class="clusterblast-orf" id="dummy-1_h1_6_12"  />
</g>
<g id="a1_0013"  >
<polygon points="326,90 331,90 336,85 331,80 326,80 326,90 " style="fill:white; stroke-width:1; stroke:black; " description="&lt;b&gt;TRIREDRAFT_112019&lt;/b&gt;&lt;br&gt;uncharacterized protein&lt;br&gt;Location: 168420 - 167280" locus_tag="TRIREDRAFT_112019" class="clusterblast-orf" id="dummy-1_h1_6_13"  />
</g>
<g id="a1_0014"  >
<polygon points="339,85 344,80 345,80 345,90 344,90 339,85 " style="fill:white; stroke-width:1; stroke:black; " description="&lt;b&gt;TRIREDRAFT_112018&lt;/b&gt;&lt;br&gt;uncharacterized protein&lt;br&gt;Location: 166955 - 166272" locus_tag="TRIREDRAFT_112018" class="clusterblast-orf" id="dummy-1_h1_6_14"  />
</g>
<g id="a1_0015"  >
<polygon points="353,85 358,80 363,80 363,90 358,90 353,85 " style="fill:white; stroke-width:1; stroke:black; " description="&lt;b&gt;TRIREDRAFT_5855&lt;/b&gt;&lt;br&gt;uncharacterized protein&lt;br&gt;Location: 165336 - 164182" locus_tag="TRIREDRAFT_5855" class="clusterblast-orf" id="dummy-1_h1_6_15"  />
</g>
<g id="a1_0016"  >
<polygon points="372,85 377,80 387,80 387,90 377,90 372,85 " style="fill:#1597d8; stroke-width:1; stroke:black; " description="&lt;b&gt;TRIREDRAFT_82141&lt;/b&gt;&lt;br&gt;uncharacterized protein&lt;br&gt;Location: 163112 - 161420&lt;br&gt;&lt;br&gt;&lt;b&gt;BlastP hit with input.path1.gene195&lt;/b&gt;&lt;br&gt;Percentage identity: 57&lt;br&gt;Percentage coverage: 93&lt;br&gt;BLAST bit score: 622&lt;br&gt;E-value: 6.98e-219" locus_tag="TRIREDRAFT_82141" class="clusterblast-orf" id="dummy-1_h1_6_16"  />
</g>
<g id="a1_0017"  >
<polygon points="422,90 439,90 444,85 439,80 422,80 422,90 " style="fill:white; stroke-width:1; stroke:black; " description="&lt;b&gt;TRIREDRAFT_82137&lt;/b&gt;&lt;br&gt;uncharacterized protein&lt;br&gt;Location: 157410 - 154930" locus_tag="TRIREDRAFT_82137" class="clusterblast-orf" id="dummy-1_h1_6_17"  />
</g>
<g id="a1_0018"  >
<polygon points="446,85 451,80 453,80 453,90 451,90 446,85 " style="fill:white; stroke-width:1; stroke:black; " description="&lt;b&gt;TRIREDRAFT_112014&lt;/b&gt;&lt;br&gt;uncharacterized protein&lt;br&gt;Location: 154740 - 153922" locus_tag="TRIREDRAFT_112014" class="clusterblast-orf" id="dummy-1_h1_6_18"  />
</g>
<g id="a1_0019"  >
<polygon points="467,90 473,90 478,85 473,80 467,80 467,90 " style="fill:#9715d8; stroke-width:1; stroke:black; " description="&lt;b&gt;TRIREDRAFT_124040&lt;/b&gt;&lt;br&gt;uncharacterized protein&lt;br&gt;Location: 152293 - 151079&lt;br&gt;&lt;br&gt;&lt;b&gt;BlastP hit with input.path1.gene196&lt;/b&gt;&lt;br&gt;Percentage identity: 35&lt;br&gt;Percentage coverage: 74&lt;br&gt;BLAST bit score: 125&lt;br&gt;E-value: 8.56e-31" locus_tag="TRIREDRAFT_124040" class="clusterblast-orf" id="dummy-1_h1_6_19"  />
</g>
<g id="a1_0020"  >
<polygon points="492,85 497,80 510,80 510,90 497,90 492,85 " style="fill:#d89715; stroke-width:1; stroke:black; " description="&lt;b&gt;TRIREDRAFT_69870&lt;/b&gt;&lt;br&gt;uncharacterized protein&lt;br&gt;Location: 149381 - 147338&lt;br&gt;&lt;br&gt;&lt;b&gt;BlastP hit with input.path1.gene197&lt;/b&gt;&lt;br&gt;Percentage identity: 66&lt;br&gt;Percentage coverage: 97&lt;br&gt;BLAST bit score: 649&lt;br&gt;E-value: 6.4e-231" locus_tag="TRIREDRAFT_69870" class="clusterblast-orf" id="dummy-1_h1_6_20"  />
</g>
<g id="a1_0021"  >
<polygon points="516,90 530,90 535,85 530,80 516,80 516,90 " style="fill:#15d897; stroke-width:1; stroke:black; " description="&lt;b&gt;TRIREDRAFT_69881&lt;/b&gt;&lt;br&gt;uncharacterized protein&lt;br&gt;Location: 146683 - 144521&lt;br&gt;&lt;br&gt;&lt;b&gt;BlastP hit with input.path1.gene198&lt;/b&gt;&lt;br&gt;Percentage identity: 59&lt;br&gt;Percentage coverage: 72&lt;br&gt;BLAST bit score: 757&lt;br&gt;E-value: 1.59e-266" locus_tag="TRIREDRAFT_69881" class="clusterblast-orf" id="dummy-1_h1_6_21"  />
</g>
<g id="a1_0022"  >
<polygon points="540,90 550,90 555,85 550,80 540,80 540,90 " style="fill:#15d897; stroke-width:1; stroke:black; " description="&lt;b&gt;TRIREDRAFT_69933&lt;/b&gt;&lt;br&gt;uncharacterized protein&lt;br&gt;Location: 143943 - 142192&lt;br&gt;&lt;br&gt;&lt;b&gt;BlastP hit with input.path1.gene198&lt;/b&gt;&lt;br&gt;Percentage identity: 49&lt;br&gt;Percentage coverage: 24&lt;br&gt;BLAST bit score: 174&lt;br&gt;E-value: 7.43e-45" locus_tag="TRIREDRAFT_69933" class="clusterblast-orf" id="dummy-1_h1_6_22"  />
</g>
<g id="a1_0023"  >
<polygon points="569,90 580,90 585,85 580,80 569,80 569,90 " style="fill:white; stroke-width:1; stroke:black; " description="&lt;b&gt;TRIREDRAFT_82133&lt;/b&gt;&lt;br&gt;uncharacterized protein&lt;br&gt;Location: 140596 - 138833" locus_tag="TRIREDRAFT_82133" class="clusterblast-orf" id="dummy-1_h1_6_23"  />
</g>
<g id="a1_0024"  >
<polygon points="587,85 592,80 607,80 607,90 592,90 587,85 " style="fill:#1515d8; stroke-width:1; stroke:black; " description="&lt;b&gt;TRIREDRAFT_26029&lt;/b&gt;&lt;br&gt;uncharacterized protein&lt;br&gt;Location: 138597 - 136235&lt;br&gt;&lt;br&gt;&lt;b&gt;BlastP hit with input.path1.gene199&lt;/b&gt;&lt;br&gt;Percentage identity: 60&lt;br&gt;Percentage coverage: 101&lt;br&gt;BLAST bit score: 790&lt;br&gt;E-value: 4.42e-279" locus_tag="TRIREDRAFT_26029" class="clusterblast-orf" id="dummy-1_h1_6_24"  />
</g>
<g id="a1_0025"  >
<polygon points="614,85 619,80 669,80 669,90 619,90 614,85 " style="fill:#d81597; stroke-width:1; stroke:black; " description="&lt;b&gt;TRIREDRAFT_69853&lt;/b&gt;&lt;br&gt;Hypothetical protein&lt;br&gt;Location: 135499 - 129179&lt;br&gt;&lt;br&gt;&lt;b&gt;BlastP hit with input.path1.gene200&lt;/b&gt;&lt;br&gt;Percentage identity: 61&lt;br&gt;Percentage coverage: 101&lt;br&gt;BLAST bit score: 1553&lt;br&gt;E-value: 0.0" locus_tag="TRIREDRAFT_69853" class="clusterblast-orf" id="dummy-1_h1_6_25"  />
</g>
<g id="a1_0026"  >
<polygon points="684,85 689,80 689,80 689,90 689,90 684,85 " style="fill:white; stroke-width:1; stroke:black; " description="&lt;b&gt;TRIREDRAFT_112002&lt;/b&gt;&lt;br&gt;uncharacterized protein&lt;br&gt;Location: 127411 - 126935" locus_tag="TRIREDRAFT_112002" class="clusterblast-orf" id="dummy-1_h1_6_26"  />
</g>
<g id="a1_0027"  >
<polygon points="710,90 715,90 720,85 715,80 710,80 710,90 " style="fill:white; stroke-width:1; stroke:black; " description="&lt;b&gt;TRIREDRAFT_112001&lt;/b&gt;&lt;br&gt;uncharacterized protein&lt;br&gt;Location: 124453 - 123355" locus_tag="TRIREDRAFT_112001" class="clusterblast-orf" id="dummy-1_h1_6_27"  />
</g>
<g id="a1_0028"  >
<polygon points="727,90 750,90 755,85 750,80 727,80 727,90 " style="fill:white; stroke-width:1; stroke:black; " description="&lt;b&gt;TRIREDRAFT_69960&lt;/b&gt;&lt;br&gt;uncharacterized protein&lt;br&gt;Location: 122504 - 119269" locus_tag="TRIREDRAFT_69960" class="clusterblast-orf" id="dummy-1_h1_6_28"  />
</g>
<g id="a1_0029"  >
<polygon points="766,90 774,90 779,85 774,80 766,80 766,90 " style="fill:white; stroke-width:1; stroke:black; " description="&lt;b&gt;TRIREDRAFT_69868&lt;/b&gt;&lt;br&gt;glycosyltransferase family 15&lt;br&gt;Location: 118024 - 116521" locus_tag="TRIREDRAFT_69868" class="clusterblast-orf" id="dummy-1_h1_6_29"  />
</g>
</svg>
