<svg xmlns="http://www.w3.org/2000/svg" xmlns:xlink="http://www.w3.org/1999/xlink" version="1.1" x="0" y="0" height="230" width="800" viewBox="0 0 800 230" preserveAspectRatio="none"  >
<g label="Query sequence" class="clusterblast-cluster"  >
<text x="5" y="20" class="clusterblast-acc"  >
Query sequence</text>
<line x1="10" y1="35" x2="778.0" y2="35" style="stroke-width:1; stroke:grey; "  />
<polygon points="174,35 179,30 182,30 182,40 179,40 174,35 " style="fill:white; stroke-width:1; stroke:black; " description="&lt;b&gt;input.path1.gene282&lt;/b&gt;&lt;br&gt;input.path1.gene282&lt;br&gt;Location: 901718 - 902562" locus_tag="input.path1.gene282" class="clusterblast-orf" id="dummy-2_q0_0_all"  />
<polygon points="196,40 199,40 204,35 199,30 196,30 196,40 " style="fill:white; stroke-width:1; stroke:black; " description="&lt;b&gt;input.path1.gene283&lt;/b&gt;&lt;br&gt;input.path1.gene283&lt;br&gt;Location: 904013 - 904798" locus_tag="input.path1.gene283" class="clusterblast-orf" id="dummy-2_q1_0_all"  />
<polygon points="210,35 215,30 217,30 217,40 215,40 210,35 " style="fill:#d81515; stroke-width:1; stroke:black; " description="&lt;b&gt;input.path1.gene284&lt;/b&gt;&lt;br&gt;input.path1.gene284&lt;br&gt;Location: 905383 - 906079" locus_tag="input.path1.gene284" class="clusterblast-orf" id="dummy-2_q2_0_all"  />
<polygon points="224,40 257,40 262,35 257,30 224,30 224,40 " style="fill:#15d863; stroke-width:1; stroke:black; " description="&lt;b&gt;input.path1.gene285&lt;/b&gt;&lt;br&gt;input.path1.gene285&lt;br&gt;Location: 906801 - 910788" locus_tag="input.path1.gene285" class="clusterblast-orf" id="dummy-2_q3_0_all"  />
<polygon points="272,35 277,30 284,30 284,40 277,40 272,35 " style="fill:white; stroke-width:1; stroke:black; " description="&lt;b&gt;input.path1.gene286&lt;/b&gt;&lt;br&gt;input.path1.gene286&lt;br&gt;Location: 911789 - 913018" locus_tag="input.path1.gene286" class="clusterblast-orf" id="dummy-2_q4_0_all"  />
<polygon points="293,40 298,40 303,35 298,30 293,30 293,40 " style="fill:white; stroke-width:1; stroke:black; " description="&lt;b&gt;input.path1.gene287&lt;/b&gt;&lt;br&gt;input.path1.gene287&lt;br&gt;Location: 913962 - 914985" locus_tag="input.path1.gene287" class="clusterblast-orf" id="dummy-2_q5_0_all"  />
<polygon points="304,35 309,30 315,30 315,40 309,40 304,35 " style="fill:#1563d8; stroke-width:1; stroke:black; " description="&lt;b&gt;input.path1.gene288&lt;/b&gt;&lt;br&gt;input.path1.gene288&lt;br&gt;Location: 915075 - 916220" locus_tag="input.path1.gene288" class="clusterblast-orf" id="dummy-2_q6_0_all"  />
<polygon points="322,40 348,40 353,35 348,30 322,30 322,40 " style="fill:white; stroke-width:1; stroke:black; " description="&lt;b&gt;input.path1.gene289&lt;/b&gt;&lt;br&gt;input.path1.gene289&lt;br&gt;Location: 916896 - 920083" locus_tag="input.path1.gene289" class="clusterblast-orf" id="dummy-2_q7_0_all"  />
<polygon points="361,40 409,40 414,35 409,30 361,30 361,40 " style="fill:#b115d8; stroke-width:1; stroke:black; " description="&lt;b&gt;input.path1.gene290&lt;/b&gt;&lt;br&gt;input.path1.gene290&lt;br&gt;Location: 920921 - 926408" locus_tag="input.path1.gene290" class="clusterblast-orf" id="dummy-2_q8_0_all"  />
<polygon points="436,40 465,40 470,35 465,30 436,30 436,40 " style="fill:#b1d815; stroke-width:1; stroke:black; " description="&lt;b&gt;input.path1.gene291&lt;/b&gt;&lt;br&gt;input.path1.gene291&lt;br&gt;Location: 928634 - 932125" locus_tag="input.path1.gene291" class="clusterblast-orf" id="dummy-2_q9_0_all"  />
<polygon points="486,40 486,40 491,35 486,30 486,30 486,40 " style="fill:white; stroke-width:1; stroke:black; " description="&lt;b&gt;input.path1.gene292&lt;/b&gt;&lt;br&gt;input.path1.gene292&lt;br&gt;Location: 933782 - 934287" locus_tag="input.path1.gene292" class="clusterblast-orf" id="dummy-2_q10_0_all"  />
<polygon points="494,35 498,30 498,40 494,35 " style="fill:white; stroke-width:1; stroke:black; " description="&lt;b&gt;input.path1.gene293&lt;/b&gt;&lt;br&gt;input.path1.gene293&lt;br&gt;Location: 934612 - 934986" locus_tag="input.path1.gene293" class="clusterblast-orf" id="dummy-2_q11_0_all"  />
<polygon points="515,40 525,40 530,35 525,30 515,30 515,40 " style="fill:white; stroke-width:1; stroke:black; " description="&lt;b&gt;input.path1.gene294&lt;/b&gt;&lt;br&gt;input.path1.gene294&lt;br&gt;Location: 936777 - 938316" locus_tag="input.path1.gene294" class="clusterblast-orf" id="dummy-2_q12_0_all"  />
<polygon points="543,35 548,30 568,30 568,40 548,40 543,35 " style="fill:white; stroke-width:1; stroke:black; " description="&lt;b&gt;input.path1.gene295&lt;/b&gt;&lt;br&gt;input.path1.gene295&lt;br&gt;Location: 939619 - 942238" locus_tag="input.path1.gene295" class="clusterblast-orf" id="dummy-2_q13_0_all"  />
<polygon points="586,40 600,40 605,35 600,30 586,30 586,40 " style="fill:white; stroke-width:1; stroke:black; " description="&lt;b&gt;input.path1.gene296&lt;/b&gt;&lt;br&gt;input.path1.gene296&lt;br&gt;Location: 944021 - 946004" locus_tag="input.path1.gene296" class="clusterblast-orf" id="dummy-2_q14_0_all"  />
</g>
<g label="NZ_JZID01000001" description="NZ_JZID01000001 (1681189-1761706): Xanthomonas albilineans strain HVO005 Xal-... (3% of genes show similarity), NRPS,NRPS-like,transAT-PKS-like" class="clusterblast-cluster"  >
<text x="5" y="70" class="clusterblast-acc"  >
<a xlink:href="https://antismash-db.secondarymetabolites.org/area?record=NZ_JZID01000001&amp;start=1681189&amp;end=1761706" target="_blank">NZ_JZID01000001 (1681189-1761706)</a>: Xanthomonas albilineans strain HVO005 Xal-... (3% of genes show similarity), NRPS,NRPS-like,transAT-PKS-like</text>
<line x1="10" y1="85" x2="778.0" y2="85" style="stroke-width:1; stroke:grey; "  />
</g>
<g id="a2_000"  >
<polygon points="0,90 6,90 11,85 6,80 0,80 0,90 " style="fill:white; stroke-width:1; stroke:black; " description="&lt;b&gt;XALHVO005_RS07475&lt;/b&gt;&lt;br&gt;molybdopterin molybdotransferase MoeA&lt;br&gt;Location: 1761618 - 1760401" locus_tag="XALHVO005_RS07475" class="clusterblast-orf" id="dummy-2_h2_10_0"  />
</g>
<g id="a2_001"  >
<polygon points="12,90 18,90 23,85 18,80 12,80 12,90 " style="fill:white; stroke-width:1; stroke:black; " description="&lt;b&gt;XALHVO005_RS07470&lt;/b&gt;&lt;br&gt;molybdopterin-synthase adenylyltransferase MoeB&lt;br&gt;Location: 1760350 - 1759214" locus_tag="XALHVO005_RS07470" class="clusterblast-orf" id="dummy-2_h2_10_1"  />
</g>
<g id="a2_002"  >
<polygon points="23,85 26,80 26,90 23,85 " style="fill:white; stroke-width:1; stroke:black; " description="&lt;b&gt;XALHVO005_RS07465&lt;/b&gt;&lt;br&gt;DUF1244 domain-containing protein&lt;br&gt;Location: 1759174 - 1758878" locus_tag="XALHVO005_RS07465" class="clusterblast-orf" id="dummy-2_h2_10_2"  />
</g>
<g id="a2_003"  >
<polygon points="27,90 30,90 35,85 30,80 27,80 27,90 " style="fill:#b1d815; stroke-width:1; stroke:black; " description="&lt;b&gt;XALHVO005_RS07460&lt;/b&gt;&lt;br&gt;bifunctional methylenetetrahydrofolate dehydrogenase/methenyltetrahydrofolate cyclohydrolase FolD&lt;br&gt;Location: 1758826 - 1757936&lt;br&gt;&lt;br&gt;&lt;b&gt;BlastP hit with input.path1.gene291&lt;/b&gt;&lt;br&gt;Percentage identity: 43&lt;br&gt;Percentage coverage: 26&lt;br&gt;BLAST bit score: 218&lt;br&gt;E-value: 1.19e-61" locus_tag="XALHVO005_RS07460" class="clusterblast-orf" id="dummy-2_h2_10_3"  />
</g>
<g id="a2_004"  >
<polygon points="37,90 46,90 51,85 46,80 37,80 37,90 " style="fill:white; stroke-width:1; stroke:black; " description="&lt;b&gt;XALHVO005_RS07455&lt;/b&gt;&lt;br&gt;IMP dehydrogenase&lt;br&gt;Location: 1757805 - 1756348" locus_tag="XALHVO005_RS07455" class="clusterblast-orf" id="dummy-2_h2_10_4"  />
</g>
<g id="a2_005"  >
<polygon points="52,90 62,90 67,85 62,80 52,80 52,90 " style="fill:white; stroke-width:1; stroke:black; " description="&lt;b&gt;XALHVO005_RS07450&lt;/b&gt;&lt;br&gt;glutamine-hydrolyzing GMP synthase&lt;br&gt;Location: 1756200 - 1754635" locus_tag="XALHVO005_RS07450" class="clusterblast-orf" id="dummy-2_h2_10_5"  />
</g>
<g id="a2_006"  >
<polygon points="77,85 82,80 107,80 107,90 82,90 77,85 " style="fill:white; stroke-width:1; stroke:black; " description="&lt;b&gt;XALHVO005_RS07425&lt;/b&gt;&lt;br&gt;efflux RND transporter permease subunit&lt;br&gt;Location: 1753644 - 1750558" locus_tag="XALHVO005_RS07425" class="clusterblast-orf" id="dummy-2_h2_10_6"  />
</g>
<g id="a2_007"  >
<polygon points="107,85 112,80 118,80 118,90 112,90 107,85 " style="fill:white; stroke-width:1; stroke:black; " description="&lt;b&gt;XALHVO005_RS07420&lt;/b&gt;&lt;br&gt;efflux RND transporter periplasmic adaptor subunit&lt;br&gt;Location: 1750561 - 1749443" locus_tag="XALHVO005_RS07420" class="clusterblast-orf" id="dummy-2_h2_10_7"  />
</g>
<g id="a2_008"  >
<polygon points="118,85 123,80 126,80 126,90 123,90 118,85 " style="fill:white; stroke-width:1; stroke:black; " description="&lt;b&gt;XALHVO005_RS07415&lt;/b&gt;&lt;br&gt;MipA/OmpV family protein&lt;br&gt;Location: 1749419 - 1748592" locus_tag="XALHVO005_RS07415" class="clusterblast-orf" id="dummy-2_h2_10_8"  />
</g>
<g id="a2_009"  >
<polygon points="127,85 132,80 140,80 140,90 132,90 127,85 " style="fill:white; stroke-width:1; stroke:black; " description="&lt;b&gt;XALHVO005_RS07410&lt;/b&gt;&lt;br&gt;efflux transporter outer membrane subunit&lt;br&gt;Location: 1748560 - 1747145" locus_tag="XALHVO005_RS07410" class="clusterblast-orf" id="dummy-2_h2_10_9"  />
</g>
<g id="a2_0010"  >
<polygon points="142,90 144,90 149,85 144,80 142,80 142,90 " style="fill:white; stroke-width:1; stroke:black; " description="&lt;b&gt;XALHVO005_RS07405&lt;/b&gt;&lt;br&gt;response regulator&lt;br&gt;Location: 1746992 - 1746303" locus_tag="XALHVO005_RS07405" class="clusterblast-orf" id="dummy-2_h2_10_10"  />
</g>
<g id="a2_0011"  >
<polygon points="149,90 155,90 160,85 155,80 149,80 149,90 " style="fill:white; stroke-width:1; stroke:black; " description="&lt;b&gt;XALHVO005_RS07400&lt;/b&gt;&lt;br&gt;ATP-binding protein&lt;br&gt;Location: 1746306 - 1745119" locus_tag="XALHVO005_RS07400" class="clusterblast-orf" id="dummy-2_h2_10_11"  />
</g>
<g id="a2_0012"  >
<polygon points="166,90 169,90 174,85 169,80 166,80 166,90 " style="fill:white; stroke-width:1; stroke:black; " description="&lt;b&gt;XALHVO005_RS07395&lt;/b&gt;&lt;br&gt;IS5/IS1182 family transposase&lt;br&gt;Location: 1744496 - 1743699" locus_tag="XALHVO005_RS07395" class="clusterblast-orf" id="dummy-2_h2_10_12"  />
</g>
<g id="a2_0013"  >
<polygon points="177,90 187,90 192,85 187,80 177,80 177,90 " style="fill:white; stroke-width:1; stroke:black; " description="&lt;b&gt;XALHVO005_RS15935&lt;/b&gt;&lt;br&gt;condensation domain-containing protein&lt;br&gt;Location: 1743384 - 1741807" locus_tag="XALHVO005_RS15935" class="clusterblast-orf" id="dummy-2_h2_10_13"  />
</g>
<g id="a2_0014"  >
<polygon points="193,90 201,90 206,85 201,80 193,80 193,90 " style="fill:white; stroke-width:1; stroke:black; " description="&lt;b&gt;XALHVO005_RS15930&lt;/b&gt;&lt;br&gt;non-ribosomal peptide synthetase&lt;br&gt;Location: 1741706 - 1740366" locus_tag="XALHVO005_RS15930" class="clusterblast-orf" id="dummy-2_h2_10_14"  />
</g>
<g id="a2_0015"  >
<polygon points="206,90 219,90 224,85 219,80 206,80 206,90 " style="fill:white; stroke-width:1; stroke:black; " description="&lt;b&gt;XALHVO005_RS07375&lt;/b&gt;&lt;br&gt;condensation domain-containing protein&lt;br&gt;Location: 1740369 - 1738585" locus_tag="XALHVO005_RS07375" class="clusterblast-orf" id="dummy-2_h2_10_15"  />
</g>
<g id="a2_0016"  >
<polygon points="223,90 227,85 223,80 223,90 " style="fill:white; stroke-width:1; stroke:black; " description="&lt;b&gt;XALHVO005_RS15520&lt;/b&gt;&lt;br&gt;AMP-binding protein&lt;br&gt;Location: 1738612 - 1738235" locus_tag="XALHVO005_RS15520" class="clusterblast-orf" id="dummy-2_h2_10_16"  />
</g>
<g id="a2_0017"  >
<polygon points="228,90 247,90 252,85 247,80 228,80 228,90 " style="fill:white; stroke-width:1; stroke:black; " description="&lt;b&gt;XALHVO005_RS07370&lt;/b&gt;&lt;br&gt;amino acid adenylation domain-containing protein&lt;br&gt;Location: 1738130 - 1735665" locus_tag="XALHVO005_RS07370" class="clusterblast-orf" id="dummy-2_h2_10_17"  />
</g>
<g id="a2_0018"  >
<polygon points="253,90 262,90 267,85 262,80 253,80 253,90 " style="fill:white; stroke-width:1; stroke:black; " description="&lt;b&gt;XALHVO005_RS17525&lt;/b&gt;&lt;br&gt;condensation domain-containing protein&lt;br&gt;Location: 1735563 - 1734088" locus_tag="XALHVO005_RS17525" class="clusterblast-orf" id="dummy-2_h2_10_18"  />
</g>
<g id="a2_0019"  >
<polygon points="267,90 287,90 292,85 287,80 267,80 267,90 " style="fill:#b115d8; stroke-width:1; stroke:black; " description="&lt;b&gt;XALHVO005_RS15510&lt;/b&gt;&lt;br&gt;amino acid adenylation domain-containing protein&lt;br&gt;Location: 1734173 - 1731576&lt;br&gt;&lt;br&gt;&lt;b&gt;BlastP hit with input.path1.gene290&lt;/b&gt;&lt;br&gt;Percentage identity: 32&lt;br&gt;Percentage coverage: 31&lt;br&gt;BLAST bit score: 141&lt;br&gt;E-value: 8.99e-32" locus_tag="XALHVO005_RS15510" class="clusterblast-orf" id="dummy-2_h2_10_19"  />
</g>
<g id="a2_0020"  >
<polygon points="302,90 302,90 307,85 302,80 302,80 302,90 " style="fill:white; stroke-width:1; stroke:black; " description="&lt;b&gt;XALHVO005_RS15925&lt;/b&gt;&lt;br&gt;DUF2726 domain-containing protein&lt;br&gt;Location: 1730517 - 1730047" locus_tag="XALHVO005_RS15925" class="clusterblast-orf" id="dummy-2_h2_10_20"  />
</g>
<g id="a2_0021"  >
<polygon points="311,85 314,80 314,90 311,85 " style="fill:white; stroke-width:1; stroke:black; " description="&lt;b&gt;XALHVO005_RS15920&lt;/b&gt;&lt;br&gt;DUF3693 domain-containing protein&lt;br&gt;Location: 1729579 - 1729259" locus_tag="XALHVO005_RS15920" class="clusterblast-orf" id="dummy-2_h2_10_21"  />
</g>
<g id="a2_0022"  >
<polygon points="317,90 319,85 317,80 317,90 " style="fill:white; stroke-width:1; stroke:black; " description="&lt;b&gt;XALHVO005_RS07350&lt;/b&gt;&lt;br&gt;hypothetical protein&lt;br&gt;Location: 1729029 - 1728838" locus_tag="XALHVO005_RS07350" class="clusterblast-orf" id="dummy-2_h2_10_22"  />
</g>
<g id="a2_0023"  >
<polygon points="319,90 321,85 319,80 319,90 " style="fill:white; stroke-width:1; stroke:black; " description="&lt;b&gt;XALHVO005_RS07345&lt;/b&gt;&lt;br&gt;hypothetical protein&lt;br&gt;Location: 1728841 - 1728623" locus_tag="XALHVO005_RS07345" class="clusterblast-orf" id="dummy-2_h2_10_23"  />
</g>
<g id="a2_0024"  >
<polygon points="321,90 323,85 321,80 321,90 " style="fill:white; stroke-width:1; stroke:black; " description="&lt;b&gt;XALHVO005_RS16710&lt;/b&gt;&lt;br&gt;hypothetical protein&lt;br&gt;Location: 1728606 - 1728382" locus_tag="XALHVO005_RS16710" class="clusterblast-orf" id="dummy-2_h2_10_24"  />
</g>
<g id="a2_0025"  >
<polygon points="328,90 334,90 339,85 334,80 328,80 328,90 " style="fill:white; stroke-width:1; stroke:black; " description="&lt;b&gt;XALHVO005_RS07340&lt;/b&gt;&lt;br&gt;replication initiation factor domain-containing protein&lt;br&gt;Location: 1727863 - 1726784" locus_tag="XALHVO005_RS07340" class="clusterblast-orf" id="dummy-2_h2_10_25"  />
</g>
<g id="a2_0026"  >
<polygon points="338,90 341,85 338,80 338,90 " style="fill:white; stroke-width:1; stroke:black; " description="&lt;b&gt;XALHVO005_RS07335&lt;/b&gt;&lt;br&gt;single-stranded DNA-binding protein&lt;br&gt;Location: 1726796 - 1726497" locus_tag="XALHVO005_RS07335" class="clusterblast-orf" id="dummy-2_h2_10_26"  />
</g>
<g id="a2_0027"  >
<polygon points="341,90 344,85 341,80 341,90 " style="fill:white; stroke-width:1; stroke:black; " description="&lt;b&gt;XALHVO005_RS07330&lt;/b&gt;&lt;br&gt;hypothetical protein&lt;br&gt;Location: 1726493 - 1726236" locus_tag="XALHVO005_RS07330" class="clusterblast-orf" id="dummy-2_h2_10_27"  />
</g>
<g id="a2_0028"  >
<polygon points="346,90 347,85 346,80 346,90 " style="fill:white; stroke-width:1; stroke:black; " description="&lt;b&gt;XALHVO005_RS17160&lt;/b&gt;&lt;br&gt;hypothetical protein&lt;br&gt;Location: 1726009 - 1725866" locus_tag="XALHVO005_RS17160" class="clusterblast-orf" id="dummy-2_h2_10_28"  />
</g>
<g id="a2_0029"  >
<polygon points="348,90 350,85 348,80 348,90 " style="fill:white; stroke-width:1; stroke:black; " description="&lt;b&gt;XALHVO005_RS16705&lt;/b&gt;&lt;br&gt;hypothetical protein&lt;br&gt;Location: 1725854 - 1725618" locus_tag="XALHVO005_RS16705" class="clusterblast-orf" id="dummy-2_h2_10_29"  />
</g>
<g id="a2_0030"  >
<polygon points="351,90 357,90 362,85 357,80 351,80 351,90 " style="fill:white; stroke-width:1; stroke:black; " description="&lt;b&gt;XALHVO005_RS16700&lt;/b&gt;&lt;br&gt;hypothetical protein&lt;br&gt;Location: 1725534 - 1724374" locus_tag="XALHVO005_RS16700" class="clusterblast-orf" id="dummy-2_h2_10_30"  />
</g>
<g id="a2_0031"  >
<polygon points="362,90 366,85 362,80 362,90 " style="fill:white; stroke-width:1; stroke:black; " description="&lt;b&gt;XALHVO005_RS07325&lt;/b&gt;&lt;br&gt;hypothetical protein&lt;br&gt;Location: 1724377 - 1723991" locus_tag="XALHVO005_RS07325" class="clusterblast-orf" id="dummy-2_h2_10_31"  />
</g>
<g id="a2_0032"  >
<polygon points="366,90 374,90 379,85 374,80 366,80 366,90 " style="fill:white; stroke-width:1; stroke:black; " description="&lt;b&gt;XALHVO005_RS07320&lt;/b&gt;&lt;br&gt;Zona occludens toxin&lt;br&gt;Location: 1723986 - 1722661" locus_tag="XALHVO005_RS07320" class="clusterblast-orf" id="dummy-2_h2_10_32"  />
</g>
<g id="a2_0033"  >
<polygon points="381,85 384,80 384,90 381,85 " style="fill:white; stroke-width:1; stroke:black; " description="&lt;b&gt;XALHVO005_RS17520&lt;/b&gt;&lt;br&gt;hypothetical protein&lt;br&gt;Location: 1722400 - 1722087" locus_tag="XALHVO005_RS17520" class="clusterblast-orf" id="dummy-2_h2_10_33"  />
</g>
<g id="a2_0034"  >
<polygon points="388,85 393,80 395,80 395,90 393,90 388,85 " style="fill:white; stroke-width:1; stroke:black; " description="&lt;b&gt;XALHVO005_RS07315&lt;/b&gt;&lt;br&gt;integrase&lt;br&gt;Location: 1721742 - 1720984" locus_tag="XALHVO005_RS07315" class="clusterblast-orf" id="dummy-2_h2_10_34"  />
</g>
<g id="a2_0035"  >
<polygon points="395,85 396,80 396,90 395,85 " style="fill:white; stroke-width:1; stroke:black; " description="&lt;b&gt;XALHVO005_RS17515&lt;/b&gt;&lt;br&gt;DNA-binding protein&lt;br&gt;Location: 1720983 - 1720873" locus_tag="XALHVO005_RS17515" class="clusterblast-orf" id="dummy-2_h2_10_35"  />
</g>
<g id="a2_0036"  >
<polygon points="398,85 403,80 425,80 425,90 403,90 398,85 " style="fill:white; stroke-width:1; stroke:black; " description="&lt;b&gt;XALHVO005_RS07310&lt;/b&gt;&lt;br&gt;amino acid adenylation domain-containing protein&lt;br&gt;Location: 1720682 - 1717950" locus_tag="XALHVO005_RS07310" class="clusterblast-orf" id="dummy-2_h2_10_36"  />
</g>
<g id="a2_0037"  >
<polygon points="425,85 430,80 430,80 430,90 430,90 425,85 " style="fill:white; stroke-width:1; stroke:black; " description="&lt;b&gt;XALHVO005_RS07305&lt;/b&gt;&lt;br&gt;hotdog fold thioesterase&lt;br&gt;Location: 1717860 - 1717357" locus_tag="XALHVO005_RS07305" class="clusterblast-orf" id="dummy-2_h2_10_37"  />
</g>
<g id="a2_0038"  >
<polygon points="430,85 435,80 440,80 440,90 435,90 430,85 " style="fill:white; stroke-width:1; stroke:black; " description="&lt;b&gt;XALHVO005_RS07300&lt;/b&gt;&lt;br&gt;class I SAM-dependent methyltransferase&lt;br&gt;Location: 1717357 - 1716326" locus_tag="XALHVO005_RS07300" class="clusterblast-orf" id="dummy-2_h2_10_38"  />
</g>
<g id="a2_0039"  >
<polygon points="441,85 446,80 454,80 454,90 446,90 441,85 " style="fill:white; stroke-width:1; stroke:black; " description="&lt;b&gt;XALHVO005_RS07295&lt;/b&gt;&lt;br&gt;condensation domain-containing protein&lt;br&gt;Location: 1716280 - 1714949" locus_tag="XALHVO005_RS07295" class="clusterblast-orf" id="dummy-2_h2_10_39"  />
</g>
<g id="a2_0040"  >
<polygon points="456,85 461,80 490,80 490,90 461,90 456,85 " style="fill:white; stroke-width:1; stroke:black; " description="&lt;b&gt;XALHVO005_RS07290&lt;/b&gt;&lt;br&gt;condensation domain-containing protein&lt;br&gt;Location: 1714691 - 1711218" locus_tag="XALHVO005_RS07290" class="clusterblast-orf" id="dummy-2_h2_10_40"  />
</g>
<g id="a2_0041"  >
<polygon points="491,85 496,80 588,80 588,90 496,90 491,85 " style="fill:white; stroke-width:1; stroke:black; " description="&lt;b&gt;XALHVO005_RS07285&lt;/b&gt;&lt;br&gt;beta-ketoacyl synthase N-terminal-like domain-containing protein&lt;br&gt;Location: 1711116 - 1701190" locus_tag="XALHVO005_RS07285" class="clusterblast-orf" id="dummy-2_h2_10_41"  />
</g>
<g id="a2_0042"  >
<polygon points="591,90 592,85 591,80 591,90 " style="fill:white; stroke-width:1; stroke:black; " description="&lt;b&gt;XALHVO005_RS16695&lt;/b&gt;&lt;br&gt;IS21 family transposase&lt;br&gt;Location: 1700883 - 1700722" locus_tag="XALHVO005_RS16695" class="clusterblast-orf" id="dummy-2_h2_10_42"  />
</g>
<g id="a2_0043"  >
<polygon points="592,90 592,90 597,85 592,80 592,80 592,90 " style="fill:white; stroke-width:1; stroke:black; " description="&lt;b&gt;XALHVO005_RS07280&lt;/b&gt;&lt;br&gt;ATP-binding protein&lt;br&gt;Location: 1700722 - 1700189" locus_tag="XALHVO005_RS07280" class="clusterblast-orf" id="dummy-2_h2_10_43"  />
</g>
<g id="a2_0044"  >
<polygon points="599,90 603,90 608,85 603,80 599,80 599,90 " style="fill:white; stroke-width:1; stroke:black; " description="&lt;b&gt;XALHVO005_RS07275&lt;/b&gt;&lt;br&gt;SAM-dependent methyltransferase&lt;br&gt;Location: 1699972 - 1699058" locus_tag="XALHVO005_RS07275" class="clusterblast-orf" id="dummy-2_h2_10_44"  />
</g>
<g id="a2_0045"  >
<polygon points="617,90 626,90 631,85 626,80 617,80 617,90 " style="fill:white; stroke-width:1; stroke:black; " description="&lt;b&gt;XALHVO005_RS17155&lt;/b&gt;&lt;br&gt;AMP-binding protein&lt;br&gt;Location: 1698159 - 1696699" locus_tag="XALHVO005_RS17155" class="clusterblast-orf" id="dummy-2_h2_10_45"  />
</g>
<g id="a2_0046"  >
<polygon points="631,90 636,90 641,85 636,80 631,80 631,90 " style="fill:white; stroke-width:1; stroke:black; " description="&lt;b&gt;XALHVO005_RS07265&lt;/b&gt;&lt;br&gt;TauD/TfdA family dioxygenase&lt;br&gt;Location: 1696691 - 1695699" locus_tag="XALHVO005_RS07265" class="clusterblast-orf" id="dummy-2_h2_10_46"  />
</g>
<g id="a2_0047"  >
<polygon points="644,90 653,90 658,85 653,80 644,80 644,90 " style="fill:white; stroke-width:1; stroke:black; " description="&lt;b&gt;XALHVO005_RS07260&lt;/b&gt;&lt;br&gt;condensation domain-containing protein&lt;br&gt;Location: 1695433 - 1693910" locus_tag="XALHVO005_RS07260" class="clusterblast-orf" id="dummy-2_h2_10_47"  />
</g>
<g id="a2_0048"  >
<polygon points="659,90 664,90 669,85 664,80 659,80 659,90 " style="fill:white; stroke-width:1; stroke:black; " description="&lt;b&gt;XALHVO005_RS07255&lt;/b&gt;&lt;br&gt;alpha/beta fold hydrolase&lt;br&gt;Location: 1693808 - 1692855" locus_tag="XALHVO005_RS07255" class="clusterblast-orf" id="dummy-2_h2_10_48"  />
</g>
<g id="a2_0049"  >
<polygon points="669,85 674,80 674,80 674,90 674,90 669,85 " style="fill:white; stroke-width:1; stroke:black; " description="&lt;b&gt;XALHVO005_RS07250&lt;/b&gt;&lt;br&gt;chorismate lyase&lt;br&gt;Location: 1692832 - 1692278" locus_tag="XALHVO005_RS07250" class="clusterblast-orf" id="dummy-2_h2_10_49"  />
</g>
<g id="a2_0050"  >
<polygon points="675,85 680,80 681,80 681,90 680,90 675,85 " style="fill:white; stroke-width:1; stroke:black; " description="&lt;b&gt;XALHVO005_RS07245&lt;/b&gt;&lt;br&gt;pentapeptide repeat-containing protein&lt;br&gt;Location: 1692236 - 1691634" locus_tag="XALHVO005_RS07245" class="clusterblast-orf" id="dummy-2_h2_10_50"  />
</g>
<g id="a2_0051"  >
<polygon points="680,85 684,80 684,90 680,85 " style="fill:white; stroke-width:1; stroke:black; " description="&lt;b&gt;XALHVO005_RS07240&lt;/b&gt;&lt;br&gt;aminotransferase class IV&lt;br&gt;Location: 1691653 - 1691243" locus_tag="XALHVO005_RS07240" class="clusterblast-orf" id="dummy-2_h2_10_51"  />
</g>
<g id="a2_0052"  >
<polygon points="685,85 687,80 687,90 685,85 " style="fill:white; stroke-width:1; stroke:black; " description="&lt;b&gt;XALHVO005_RS07235&lt;/b&gt;&lt;br&gt;hypothetical protein&lt;br&gt;Location: 1691164 - 1690985" locus_tag="XALHVO005_RS07235" class="clusterblast-orf" id="dummy-2_h2_10_52"  />
</g>
<g id="a2_0053"  >
<polygon points="687,85 692,80 708,80 708,90 692,90 687,85 " style="fill:white; stroke-width:1; stroke:black; " description="&lt;b&gt;XALHVO005_RS07230&lt;/b&gt;&lt;br&gt;aminodeoxychorismate synthase component I&lt;br&gt;Location: 1690965 - 1688815" locus_tag="XALHVO005_RS07230" class="clusterblast-orf" id="dummy-2_h2_10_53"  />
</g>
<g id="a2_0054"  >
<polygon points="712,90 715,85 712,80 712,90 " style="fill:white; stroke-width:1; stroke:black; " description="&lt;b&gt;XALHVO005_RS07225&lt;/b&gt;&lt;br&gt;MbtH family NRPS accessory protein&lt;br&gt;Location: 1688403 - 1688152" locus_tag="XALHVO005_RS07225" class="clusterblast-orf" id="dummy-2_h2_10_54"  />
</g>
<g id="a2_0055"  >
<polygon points="715,90 720,90 725,85 720,80 715,80 715,90 " style="fill:white; stroke-width:1; stroke:black; " description="&lt;b&gt;XALHVO005_RS07220&lt;/b&gt;&lt;br&gt;alpha/beta hydrolase&lt;br&gt;Location: 1688070 - 1687123" locus_tag="XALHVO005_RS07220" class="clusterblast-orf" id="dummy-2_h2_10_55"  />
</g>
<g id="a2_0056"  >
<polygon points="727,90 733,90 738,85 733,80 727,80 727,90 " style="fill:white; stroke-width:1; stroke:black; " description="&lt;b&gt;XALHVO005_RS07215&lt;/b&gt;&lt;br&gt;benzoyl-CoA 2,3-epoxidase subunit BoxB&lt;br&gt;Location: 1686871 - 1685762" locus_tag="XALHVO005_RS07215" class="clusterblast-orf" id="dummy-2_h2_10_56"  />
</g>
<g id="a2_0057"  >
<polygon points="738,90 742,90 747,85 742,80 738,80 738,90 " style="fill:white; stroke-width:1; stroke:black; " description="&lt;b&gt;XALHVO005_RS07210&lt;/b&gt;&lt;br&gt;alpha/beta fold hydrolase&lt;br&gt;Location: 1685725 - 1684772" locus_tag="XALHVO005_RS07210" class="clusterblast-orf" id="dummy-2_h2_10_57"  />
</g>
<g id="a2_0058"  >
<polygon points="748,90 757,90 762,85 757,80 748,80 748,90 " style="fill:white; stroke-width:1; stroke:black; " description="&lt;b&gt;XALHVO005_RS07205&lt;/b&gt;&lt;br&gt;MFS transporter&lt;br&gt;Location: 1684759 - 1683269" locus_tag="XALHVO005_RS07205" class="clusterblast-orf" id="dummy-2_h2_10_58"  />
</g>
<g id="a2_0059"  >
<polygon points="762,90 775,90 780,85 775,80 762,80 762,90 " style="fill:white; stroke-width:1; stroke:black; " description="&lt;b&gt;XALHVO005_RS07200&lt;/b&gt;&lt;br&gt;hypothetical protein&lt;br&gt;Location: 1683231 - 1681477" locus_tag="XALHVO005_RS07200" class="clusterblast-orf" id="dummy-2_h2_10_59"  />
</g>
</svg>
