<svg xmlns="http://www.w3.org/2000/svg" xmlns:xlink="http://www.w3.org/1999/xlink" version="1.1" x="0" y="0" height="230" width="800" viewBox="0 0 800 230" preserveAspectRatio="none"  >
<g label="Query sequence" class="clusterblast-cluster"  >
<text x="5" y="20" class="clusterblast-acc"  >
Query sequence</text>
<line x1="10" y1="35" x2="778.0" y2="35" style="stroke-width:1; stroke:grey; "  />
<polygon points="21,35 26,30 81,30 81,40 26,40 21,35 " style="fill:#d81515; stroke-width:1; stroke:black; " description="&lt;b&gt;input.path1.gene289&lt;/b&gt;&lt;br&gt;input.path1.gene289&lt;br&gt;Location: 976458 - 978113" locus_tag="input.path1.gene289" class="clusterblast-orf" id="dummy-4_q0_0_all"  />
<polygon points="125,40 155,40 160,35 155,30 125,30 125,40 " style="fill:#15d815; stroke-width:1; stroke:black; " description="&lt;b&gt;input.path1.gene290&lt;/b&gt;&lt;br&gt;input.path1.gene290&lt;br&gt;Location: 979318 - 980301" locus_tag="input.path1.gene290" class="clusterblast-orf" id="dummy-4_q1_0_all"  />
<polygon points="174,35 179,30 298,30 298,40 179,40 174,35 " style="fill:#1515d8; stroke-width:1; stroke:black; " description="&lt;b&gt;input.path1.gene291&lt;/b&gt;&lt;br&gt;input.path1.gene291&lt;br&gt;Location: 980663 - 984097" locus_tag="input.path1.gene291" class="clusterblast-orf" id="dummy-4_q2_0_all"  />
<polygon points="323,40 353,40 358,35 353,30 323,30 323,40 " style="fill:#d815d8; stroke-width:1; stroke:black; " description="&lt;b&gt;input.path1.gene292&lt;/b&gt;&lt;br&gt;input.path1.gene292&lt;br&gt;Location: 984776 - 985746" locus_tag="input.path1.gene292" class="clusterblast-orf" id="dummy-4_q3_0_all"  />
<polygon points="363,35 368,30 446,30 446,40 368,40 363,35 " style="fill:#1515d8; stroke-width:1; stroke:black; " description="&lt;b&gt;input.path1.gene293&lt;/b&gt;&lt;br&gt;input.path1.gene293&lt;br&gt;Location: 985885 - 988185" locus_tag="input.path1.gene293" class="clusterblast-orf" id="dummy-4_q4_0_all"  />
<polygon points="519,40 537,40 542,35 537,30 519,30 519,40 " style="fill:#d8d815; stroke-width:1; stroke:black; " description="&lt;b&gt;input.path1.gene294&lt;/b&gt;&lt;br&gt;input.path1.gene294&lt;br&gt;Location: 990177 - 990818" locus_tag="input.path1.gene294" class="clusterblast-orf" id="dummy-4_q5_0_all"  />
<polygon points="546,40 665,40 670,35 665,30 546,30 546,40 " style="fill:#15d8d8; stroke-width:1; stroke:black; " description="&lt;b&gt;input.path1.gene295&lt;/b&gt;&lt;br&gt;input.path1.gene295&lt;br&gt;Location: 990940 - 994353" locus_tag="input.path1.gene295" class="clusterblast-orf" id="dummy-4_q6_0_all"  />
<polygon points="673,35 678,30 759,30 759,40 678,40 673,35 " style="fill:white; stroke-width:1; stroke:black; " description="&lt;b&gt;input.path1.gene296&lt;/b&gt;&lt;br&gt;input.path1.gene296&lt;br&gt;Location: 994420 - 996791" locus_tag="input.path1.gene296" class="clusterblast-orf" id="dummy-4_q7_0_all"  />
</g>
<g label="NW_025408667" description="NW_025408667 (5243071-5275419): Hirsutella rhossiliensis strain HR02 chromoso... (66% of genes show similarity), terpene" class="clusterblast-cluster"  >
<text x="5" y="70" class="clusterblast-acc"  >
<a xlink:href="https://antismash-db.secondarymetabolites.org/area?record=NW_025408667&amp;start=5243071&amp;end=5275419" target="_blank">NW_025408667 (5243071-5275419)</a>: Hirsutella rhossiliensis strain HR02 chromoso... (66% of genes show similarity), terpene</text>
<line x1="10" y1="85" x2="778.0" y2="85" style="stroke-width:1; stroke:grey; "  />
</g>
<g id="a4_000"  >
<polygon points="0,85 5,80 97,80 97,90 5,90 0,85 " style="fill:white; stroke-width:1; stroke:black; " description="&lt;b&gt;HRG_00656&lt;/b&gt;&lt;br&gt;OPT oligopeptide transporter protein&lt;br&gt;Location: 5245240 - 5247930" locus_tag="HRG_00656" class="clusterblast-orf" id="dummy-4_h4_5_0"  />
</g>
<g id="a4_001"  >
<polygon points="130,85 135,80 190,80 190,90 135,90 130,85 " style="fill:#d81515; stroke-width:1; stroke:black; " description="&lt;b&gt;HRG_00657&lt;/b&gt;&lt;br&gt;glycosyl transferase family 21 domain-containing protein&lt;br&gt;Location: 5248837 - 5250494&lt;br&gt;&lt;br&gt;&lt;b&gt;BlastP hit with input.path1.gene289&lt;/b&gt;&lt;br&gt;Percentage identity: 60&lt;br&gt;Percentage coverage: 105&lt;br&gt;BLAST bit score: 627&lt;br&gt;E-value: 3.67e-222" locus_tag="HRG_00657" class="clusterblast-orf" id="dummy-4_h4_5_1"  />
</g>
<g id="a4_002"  >
<polygon points="244,90 300,90 305,85 300,80 244,80 244,90 " style="fill:#15d815; stroke-width:1; stroke:black; " description="&lt;b&gt;HRG_00658&lt;/b&gt;&lt;br&gt;putative tRNA-splicing endonuclease subunit tsp-2&lt;br&gt;Location: 5251967 - 5253673&lt;br&gt;&lt;br&gt;&lt;b&gt;BlastP hit with input.path1.gene290&lt;/b&gt;&lt;br&gt;Percentage identity: 38&lt;br&gt;Percentage coverage: 119&lt;br&gt;BLAST bit score: 124&lt;br&gt;E-value: 2.12e-30" locus_tag="HRG_00658" class="clusterblast-orf" id="dummy-4_h4_5_2"  />
</g>
<g id="a4_003"  >
<polygon points="325,90 379,90 384,85 379,80 325,80 325,90 " style="fill:white; stroke-width:1; stroke:black; " description="&lt;b&gt;HRG_00659&lt;/b&gt;&lt;br&gt;taurine catabolism dioxygenase tauD, tfdA family domain-containing protein&lt;br&gt;Location: 5254215 - 5255834" locus_tag="HRG_00659" class="clusterblast-orf" id="dummy-4_h4_5_3"  />
</g>
<g id="a4_004"  >
<polygon points="394,85 399,80 449,80 449,90 399,90 394,85 " style="fill:#1515d8; stroke-width:1; stroke:black; " description="&lt;b&gt;HRG_00660&lt;/b&gt;&lt;br&gt;SGS domain-containing protein&lt;br&gt;Location: 5256119 - 5257619&lt;br&gt;&lt;br&gt;&lt;b&gt;BlastP hit with input.path1.gene291&lt;/b&gt;&lt;br&gt;Percentage identity: 50&lt;br&gt;Percentage coverage: 60&lt;br&gt;BLAST bit score: 408&lt;br&gt;E-value: 1.05e-132" locus_tag="HRG_00660" class="clusterblast-orf" id="dummy-4_h4_5_4"  />
</g>
<g id="a4_005"  >
<polygon points="465,85 470,80 550,80 550,90 470,90 465,85 " style="fill:#1515d8; stroke-width:1; stroke:black; " description="&lt;b&gt;HRG_00661&lt;/b&gt;&lt;br&gt;prenyltransferase and squalene oxidase repeat domain-containing protein&lt;br&gt;Location: 5258072 - 5260419&lt;br&gt;&lt;br&gt;&lt;b&gt;BlastP hit with input.path1.gene293&lt;/b&gt;&lt;br&gt;Percentage identity: 81&lt;br&gt;Percentage coverage: 98&lt;br&gt;BLAST bit score: 1283&lt;br&gt;E-value: 0.0" locus_tag="HRG_00661" class="clusterblast-orf" id="dummy-4_h4_5_5"  />
</g>
<g id="a4_006"  >
<polygon points="565,90 616,90 621,85 616,80 565,80 565,90 " style="fill:white; stroke-width:1; stroke:black; " description="&lt;b&gt;HRG_00662&lt;/b&gt;&lt;br&gt;type IIB DNA topoisomerase domain-containing protein&lt;br&gt;Location: 5260844 - 5262387" locus_tag="HRG_00662" class="clusterblast-orf" id="dummy-4_h4_5_6"  />
</g>
<g id="a4_007"  >
<polygon points="631,90 650,90 655,85 650,80 631,80 631,90 " style="fill:#d8d815; stroke-width:1; stroke:black; " description="&lt;b&gt;HRG_00663&lt;/b&gt;&lt;br&gt;ankyrin repeats (many copies) domain-containing protein&lt;br&gt;Location: 5262654 - 5263321&lt;br&gt;&lt;br&gt;&lt;b&gt;BlastP hit with input.path1.gene294&lt;/b&gt;&lt;br&gt;Percentage identity: 70&lt;br&gt;Percentage coverage: 97&lt;br&gt;BLAST bit score: 214&lt;br&gt;E-value: 2.89e-69" locus_tag="HRG_00663" class="clusterblast-orf" id="dummy-4_h4_5_7"  />
</g>
<g id="a4_008"  >
<polygon points="685,90 775,90 780,85 775,80 685,80 685,90 " style="fill:#15d8d8; stroke-width:1; stroke:black; " description="&lt;b&gt;HRG_00664&lt;/b&gt;&lt;br&gt;fungal specific transcription factor domain-containing protein&lt;br&gt;Location: 5264127 - 5266744&lt;br&gt;&lt;br&gt;&lt;b&gt;BlastP hit with input.path1.gene295&lt;/b&gt;&lt;br&gt;Percentage identity: 67&lt;br&gt;Percentage coverage: 92&lt;br&gt;BLAST bit score: 883&lt;br&gt;E-value: 5.07e-316" locus_tag="HRG_00664" class="clusterblast-orf" id="dummy-4_h4_5_8"  />
</g>
</svg>
