<svg xmlns="http://www.w3.org/2000/svg" xmlns:xlink="http://www.w3.org/1999/xlink" version="1.1" x="0" y="0" height="230" width="800" viewBox="0 0 800 230" preserveAspectRatio="none"  >
<g label="Query sequence" class="clusterblast-cluster"  >
<text x="5" y="20" class="clusterblast-acc"  >
Query sequence</text>
<line x1="10" y1="35" x2="778.0" y2="35" style="stroke-width:1; stroke:grey; "  />
<polygon points="195,40 202,40 207,35 202,30 195,30 195,40 " style="fill:white; stroke-width:1; stroke:black; " description="&lt;b&gt;input.path1.gene14&lt;/b&gt;&lt;br&gt;input.path1.gene14&lt;br&gt;Location: 51576 - 53025" locus_tag="input.path1.gene14" class="clusterblast-orf" id="dummy-1_q0_0_all"  />
<polygon points="215,40 220,40 225,35 220,30 215,30 215,40 " style="fill:white; stroke-width:1; stroke:black; " description="&lt;b&gt;input.path1.gene15&lt;/b&gt;&lt;br&gt;input.path1.gene15&lt;br&gt;Location: 53868 - 54997" locus_tag="input.path1.gene15" class="clusterblast-orf" id="dummy-1_q1_0_all"  />
<polygon points="225,35 226,30 226,40 225,35 " style="fill:white; stroke-width:1; stroke:black; " description="&lt;b&gt;input.path1.gene16&lt;/b&gt;&lt;br&gt;input.path1.gene16&lt;br&gt;Location: 55064 - 55198" locus_tag="input.path1.gene16" class="clusterblast-orf" id="dummy-1_q2_0_all"  />
<polygon points="232,35 237,30 239,30 239,40 237,40 232,35 " style="fill:white; stroke-width:1; stroke:black; " description="&lt;b&gt;input.path1.gene17&lt;/b&gt;&lt;br&gt;input.path1.gene17&lt;br&gt;Location: 55859 - 56661" locus_tag="input.path1.gene17" class="clusterblast-orf" id="dummy-1_q3_0_all"  />
<polygon points="277,40 286,40 291,35 286,30 277,30 277,40 " style="fill:white; stroke-width:1; stroke:black; " description="&lt;b&gt;input.path1.gene18&lt;/b&gt;&lt;br&gt;input.path1.gene18&lt;br&gt;Location: 60987 - 62586" locus_tag="input.path1.gene18" class="clusterblast-orf" id="dummy-1_q4_0_all"  />
<polygon points="291,35 296,30 313,30 313,40 296,40 291,35 " style="fill:white; stroke-width:1; stroke:black; " description="&lt;b&gt;input.path1.gene19&lt;/b&gt;&lt;br&gt;input.path1.gene19&lt;br&gt;Location: 62662 - 65177" locus_tag="input.path1.gene19" class="clusterblast-orf" id="dummy-1_q5_0_all"  />
<polygon points="322,35 327,30 363,30 363,40 327,40 322,35 " style="fill:#d81515; stroke-width:1; stroke:black; " description="&lt;b&gt;input.path1.gene20&lt;/b&gt;&lt;br&gt;input.path1.gene20&lt;br&gt;Location: 66251 - 70877" locus_tag="input.path1.gene20" class="clusterblast-orf" id="dummy-1_q6_0_all"  />
<polygon points="372,40 373,40 378,35 373,30 372,30 372,40 " style="fill:#15d863; stroke-width:1; stroke:black; " description="&lt;b&gt;input.path1.gene21&lt;/b&gt;&lt;br&gt;input.path1.gene21&lt;br&gt;Location: 72020 - 72624" locus_tag="input.path1.gene21" class="clusterblast-orf" id="dummy-1_q7_0_all"  />
<polygon points="381,35 386,30 395,30 395,40 386,40 381,35 " style="fill:#1563d8; stroke-width:1; stroke:black; " description="&lt;b&gt;input.path1.gene22&lt;/b&gt;&lt;br&gt;input.path1.gene22&lt;br&gt;Location: 72958 - 74634" locus_tag="input.path1.gene22" class="clusterblast-orf" id="dummy-1_q8_0_all"  />
<polygon points="397,40 407,40 412,35 407,30 397,30 397,40 " style="fill:#b115d8; stroke-width:1; stroke:black; " description="&lt;b&gt;input.path1.gene23&lt;/b&gt;&lt;br&gt;input.path1.gene23&lt;br&gt;Location: 74861 - 76611" locus_tag="input.path1.gene23" class="clusterblast-orf" id="dummy-1_q9_0_all"  />
<polygon points="421,40 483,40 488,35 483,30 421,30 421,40 " style="fill:#b1d815; stroke-width:1; stroke:black; " description="&lt;b&gt;input.path1.gene24&lt;/b&gt;&lt;br&gt;input.path1.gene24&lt;br&gt;Location: 77589 - 85291" locus_tag="input.path1.gene24" class="clusterblast-orf" id="dummy-1_q10_0_all"  />
<polygon points="488,35 493,30 504,30 504,40 493,40 488,35 " style="fill:white; stroke-width:1; stroke:black; " description="&lt;b&gt;input.path1.gene25&lt;/b&gt;&lt;br&gt;input.path1.gene25&lt;br&gt;Location: 85357 - 87144" locus_tag="input.path1.gene25" class="clusterblast-orf" id="dummy-1_q11_0_all"  />
<polygon points="509,40 509,40 514,35 509,30 509,30 509,40 " style="fill:white; stroke-width:1; stroke:black; " description="&lt;b&gt;input.path1.gene26&lt;/b&gt;&lt;br&gt;input.path1.gene26&lt;br&gt;Location: 87764 - 88275" locus_tag="input.path1.gene26" class="clusterblast-orf" id="dummy-1_q12_0_all"  />
<polygon points="540,40 552,40 557,35 552,30 540,30 540,40 " style="fill:white; stroke-width:1; stroke:black; " description="&lt;b&gt;input.path1.gene27&lt;/b&gt;&lt;br&gt;input.path1.gene27&lt;br&gt;Location: 91302 - 93229" locus_tag="input.path1.gene27" class="clusterblast-orf" id="dummy-1_q13_0_all"  />
<polygon points="559,35 564,30 574,30 574,40 564,40 559,35 " style="fill:white; stroke-width:1; stroke:black; " description="&lt;b&gt;input.path1.gene28&lt;/b&gt;&lt;br&gt;input.path1.gene28&lt;br&gt;Location: 93494 - 95228" locus_tag="input.path1.gene28" class="clusterblast-orf" id="dummy-1_q14_0_all"  />
<polygon points="578,40 579,40 584,35 579,30 578,30 578,40 " style="fill:white; stroke-width:1; stroke:black; " description="&lt;b&gt;input.path1.gene29&lt;/b&gt;&lt;br&gt;input.path1.gene29&lt;br&gt;Location: 95724 - 96411" locus_tag="input.path1.gene29" class="clusterblast-orf" id="dummy-1_q15_0_all"  />
</g>
<g label="NW_020292069" description="NW_020292069 (316400-408453): Aspergillus vadensis CBS 113365 unplaced genomi... (19% of genes show similarity), NRPS,T1PKS" class="clusterblast-cluster"  >
<text x="5" y="70" class="clusterblast-acc"  >
<a xlink:href="https://antismash-db.secondarymetabolites.org/area?record=NW_020292069&amp;start=316400&amp;end=408453" target="_blank">NW_020292069 (316400-408453)</a>: Aspergillus vadensis CBS 113365 unplaced genomi... (19% of genes show similarity), NRPS,T1PKS</text>
<line x1="10" y1="85" x2="778.0" y2="85" style="stroke-width:1; stroke:grey; "  />
</g>
<g id="a1_000"  >
<polygon points="0,90 6,90 11,85 6,80 0,80 0,90 " style="fill:white; stroke-width:1; stroke:black; " description="&lt;b&gt;BO88DRAFT_182155&lt;/b&gt;&lt;br&gt;hypothetical protein&lt;br&gt;Location: 317738 - 319015" locus_tag="BO88DRAFT_182155" class="clusterblast-orf" id="dummy-1_h1_3_0"  />
</g>
<g id="a1_001"  >
<polygon points="13,85 16,80 16,90 13,85 " style="fill:white; stroke-width:1; stroke:black; " description="&lt;b&gt;BO88DRAFT_182158&lt;/b&gt;&lt;br&gt;hypothetical protein&lt;br&gt;Location: 319262 - 319625" locus_tag="BO88DRAFT_182158" class="clusterblast-orf" id="dummy-1_h1_3_1"  />
</g>
<g id="a1_002"  >
<polygon points="34,85 39,80 45,80 45,90 39,90 34,85 " style="fill:white; stroke-width:1; stroke:black; " description="&lt;b&gt;BO88DRAFT_419587&lt;/b&gt;&lt;br&gt;hypothetical protein&lt;br&gt;Location: 321670 - 323025" locus_tag="BO88DRAFT_419587" class="clusterblast-orf" id="dummy-1_h1_3_2"  />
</g>
<g id="a1_003"  >
<polygon points="51,90 66,90 71,85 66,80 51,80 51,90 " style="fill:white; stroke-width:1; stroke:black; " description="&lt;b&gt;BO88DRAFT_397605&lt;/b&gt;&lt;br&gt;phenylalanine ammonia-lyase&lt;br&gt;Location: 323681 - 325978" locus_tag="BO88DRAFT_397605" class="clusterblast-orf" id="dummy-1_h1_3_3"  />
</g>
<g id="a1_004"  >
<polygon points="99,90 110,90 115,85 110,80 99,80 99,90 " style="fill:white; stroke-width:1; stroke:black; " description="&lt;b&gt;BO88DRAFT_397608&lt;/b&gt;&lt;br&gt;hypothetical protein&lt;br&gt;Location: 329146 - 331084" locus_tag="BO88DRAFT_397608" class="clusterblast-orf" id="dummy-1_h1_3_4"  />
</g>
<g id="a1_005"  >
<polygon points="122,90 127,90 132,85 127,80 122,80 122,90 " style="fill:white; stroke-width:1; stroke:black; " description="&lt;b&gt;BO88DRAFT_397612&lt;/b&gt;&lt;br&gt;hypothetical protein&lt;br&gt;Location: 331813 - 332965" locus_tag="BO88DRAFT_397612" class="clusterblast-orf" id="dummy-1_h1_3_5"  />
</g>
<g id="a1_006"  >
<polygon points="141,90 146,90 151,85 146,80 141,80 141,90 " style="fill:white; stroke-width:1; stroke:black; " description="&lt;b&gt;BO88DRAFT_491565&lt;/b&gt;&lt;br&gt;taurine dioxygenase family protein&lt;br&gt;Location: 333993 - 335217" locus_tag="BO88DRAFT_491565" class="clusterblast-orf" id="dummy-1_h1_3_6"  />
</g>
<g id="a1_007"  >
<polygon points="158,85 163,80 174,80 174,90 163,90 158,85 " style="fill:white; stroke-width:1; stroke:black; " description="&lt;b&gt;BO88DRAFT_408549&lt;/b&gt;&lt;br&gt;sugar transport protein&lt;br&gt;Location: 336037 - 337777" locus_tag="BO88DRAFT_408549" class="clusterblast-orf" id="dummy-1_h1_3_7"  />
</g>
<g id="a1_008"  >
<polygon points="191,90 192,90 197,85 192,80 191,80 191,90 " style="fill:white; stroke-width:1; stroke:black; " description="&lt;b&gt;BO88DRAFT_474673&lt;/b&gt;&lt;br&gt;hypothetical protein&lt;br&gt;Location: 339740 - 340435" locus_tag="BO88DRAFT_474673" class="clusterblast-orf" id="dummy-1_h1_3_8"  />
</g>
<g id="a1_009"  >
<polygon points="203,85 206,80 206,90 203,85 " style="fill:white; stroke-width:1; stroke:black; " description="&lt;b&gt;BO88DRAFT_408553&lt;/b&gt;&lt;br&gt;hypothetical protein&lt;br&gt;Location: 341187 - 341487" locus_tag="BO88DRAFT_408553" class="clusterblast-orf" id="dummy-1_h1_3_9"  />
</g>
<g id="a1_0010"  >
<polygon points="220,85 225,80 229,80 229,90 225,90 220,85 " style="fill:#b115d8; stroke-width:1; stroke:black; " description="&lt;b&gt;BO88DRAFT_474675&lt;/b&gt;&lt;br&gt;alcohol dehydrogenase&lt;br&gt;Location: 343076 - 344158&lt;br&gt;&lt;br&gt;&lt;b&gt;BlastP hit with input.path1.gene23&lt;/b&gt;&lt;br&gt;Percentage identity: 49&lt;br&gt;Percentage coverage: 89&lt;br&gt;BLAST bit score: 316&lt;br&gt;E-value: 4.06e-104" locus_tag="BO88DRAFT_474675" class="clusterblast-orf" id="dummy-1_h1_3_10"  />
</g>
<g id="a1_0011"  >
<polygon points="248,90 347,90 352,85 347,80 248,80 248,90 " style="fill:#b1d815; stroke-width:1; stroke:black; " description="&lt;b&gt;BO88DRAFT_474678&lt;/b&gt;&lt;br&gt;hybrid NRPS/PKS enzyme&lt;br&gt;Location: 346401 - 358340&lt;br&gt;&lt;br&gt;&lt;b&gt;BlastP hit with input.path1.gene24&lt;/b&gt;&lt;br&gt;Percentage identity: 42&lt;br&gt;Percentage coverage: 98&lt;br&gt;BLAST bit score: 1768&lt;br&gt;E-value: 0.0" locus_tag="BO88DRAFT_474678" class="clusterblast-orf" id="dummy-1_h1_3_11"  />
</g>
<g id="a1_0012"  >
<polygon points="362,85 367,80 367,80 367,90 367,90 362,85 " style="fill:#15d863; stroke-width:1; stroke:black; " description="&lt;b&gt;BO88DRAFT_474683&lt;/b&gt;&lt;br&gt;hypothetical protein&lt;br&gt;Location: 359469 - 360083&lt;br&gt;&lt;br&gt;&lt;b&gt;BlastP hit with input.path1.gene21&lt;/b&gt;&lt;br&gt;Percentage identity: 38&lt;br&gt;Percentage coverage: 99&lt;br&gt;BLAST bit score: 114&lt;br&gt;E-value: 2.13e-30" locus_tag="BO88DRAFT_474683" class="clusterblast-orf" id="dummy-1_h1_3_12"  />
</g>
<g id="a1_0013"  >
<polygon points="376,90 386,90 391,85 386,80 376,80 376,90 " style="fill:white; stroke-width:1; stroke:black; " description="&lt;b&gt;BO88DRAFT_474685&lt;/b&gt;&lt;br&gt;hypothetical protein&lt;br&gt;Location: 361069 - 362781" locus_tag="BO88DRAFT_474685" class="clusterblast-orf" id="dummy-1_h1_3_13"  />
</g>
<g id="a1_0014"  >
<polygon points="396,85 401,80 410,80 410,90 401,90 396,85 " style="fill:#1563d8; stroke-width:1; stroke:black; " description="&lt;b&gt;BO88DRAFT_447109&lt;/b&gt;&lt;br&gt;cytochrome P450 monooxygenase CYP52G11&lt;br&gt;Location: 363402 - 365051&lt;br&gt;&lt;br&gt;&lt;b&gt;BlastP hit with input.path1.gene22&lt;/b&gt;&lt;br&gt;Percentage identity: 31&lt;br&gt;Percentage coverage: 97&lt;br&gt;BLAST bit score: 243&lt;br&gt;E-value: 3.07e-72" locus_tag="BO88DRAFT_447109" class="clusterblast-orf" id="dummy-1_h1_3_14"  />
</g>
<g id="a1_0015"  >
<polygon points="454,90 468,90 473,85 468,80 454,80 454,90 " style="fill:white; stroke-width:1; stroke:black; " description="&lt;b&gt;BO88DRAFT_438838&lt;/b&gt;&lt;br&gt;hypothetical protein&lt;br&gt;Location: 370078 - 372302" locus_tag="BO88DRAFT_438838" class="clusterblast-orf" id="dummy-1_h1_3_15"  />
</g>
<g id="a1_0016"  >
<polygon points="479,85 484,80 527,80 527,90 484,90 479,85 " style="fill:#d81515; stroke-width:1; stroke:black; " description="&lt;b&gt;BO88DRAFT_438839&lt;/b&gt;&lt;br&gt;aureobasidin A1 biosynthesis complex&lt;br&gt;Location: 372937 - 378453&lt;br&gt;&lt;br&gt;&lt;b&gt;BlastP hit with input.path1.gene20&lt;/b&gt;&lt;br&gt;Percentage identity: 32&lt;br&gt;Percentage coverage: 34&lt;br&gt;BLAST bit score: 285&lt;br&gt;E-value: 1.92e-75" locus_tag="BO88DRAFT_438839" class="clusterblast-orf" id="dummy-1_h1_3_16"  />
</g>
<g id="a1_0017"  >
<polygon points="537,90 541,90 546,85 541,80 537,80 537,90 " style="fill:white; stroke-width:1; stroke:black; " description="&lt;b&gt;BO88DRAFT_474703&lt;/b&gt;&lt;br&gt;hypothetical protein&lt;br&gt;Location: 379642 - 380642" locus_tag="BO88DRAFT_474703" class="clusterblast-orf" id="dummy-1_h1_3_17"  />
</g>
<g id="a1_0018"  >
<polygon points="555,90 561,90 566,85 561,80 555,80 555,90 " style="fill:white; stroke-width:1; stroke:black; " description="&lt;b&gt;BO88DRAFT_474705&lt;/b&gt;&lt;br&gt;hypothetical protein&lt;br&gt;Location: 381733 - 383016" locus_tag="BO88DRAFT_474705" class="clusterblast-orf" id="dummy-1_h1_3_18"  />
</g>
<g id="a1_0019"  >
<polygon points="574,85 579,80 605,80 605,90 579,90 574,85 " style="fill:white; stroke-width:1; stroke:black; " description="&lt;b&gt;BO88DRAFT_419603&lt;/b&gt;&lt;br&gt;pyridoxal-dependent decarboxylase domain protein&lt;br&gt;Location: 383904 - 387410" locus_tag="BO88DRAFT_419603" class="clusterblast-orf" id="dummy-1_h1_3_19"  />
</g>
<g id="a1_0020"  >
<polygon points="648,85 653,80 669,80 669,90 653,90 648,85 " style="fill:white; stroke-width:1; stroke:black; " description="&lt;b&gt;BO88DRAFT_408554&lt;/b&gt;&lt;br&gt;hypothetical protein&lt;br&gt;Location: 392450 - 394770" locus_tag="BO88DRAFT_408554" class="clusterblast-orf" id="dummy-1_h1_3_20"  />
</g>
<g id="a1_0021"  >
<polygon points="686,90 704,90 709,85 704,80 686,80 686,90 " style="fill:white; stroke-width:1; stroke:black; " description="&lt;b&gt;BO88DRAFT_374745&lt;/b&gt;&lt;br&gt;P-loop containing nucleoside triphosphate hydrolase protein&lt;br&gt;Location: 396750 - 399387" locus_tag="BO88DRAFT_374745" class="clusterblast-orf" id="dummy-1_h1_3_21"  />
</g>
<g id="a1_0022"  >
<polygon points="721,85 726,80 727,80 727,90 726,90 721,85 " style="fill:white; stroke-width:1; stroke:black; " description="&lt;b&gt;BO88DRAFT_458232&lt;/b&gt;&lt;br&gt;hypothetical protein&lt;br&gt;Location: 400754 - 401453" locus_tag="BO88DRAFT_458232" class="clusterblast-orf" id="dummy-1_h1_3_22"  />
</g>
<g id="a1_0023"  >
<polygon points="735,85 740,80 744,80 744,90 740,90 735,85 " style="fill:white; stroke-width:1; stroke:black; " description="&lt;b&gt;BO88DRAFT_351237&lt;/b&gt;&lt;br&gt;oxidoreductase&lt;br&gt;Location: 402372 - 403427" locus_tag="BO88DRAFT_351237" class="clusterblast-orf" id="dummy-1_h1_3_23"  />
</g>
<g id="a1_0024"  >
<polygon points="751,85 756,80 757,80 757,90 756,90 751,85 " style="fill:white; stroke-width:1; stroke:black; " description="&lt;b&gt;BO88DRAFT_408556&lt;/b&gt;&lt;br&gt;isochorismatase family hydrolase&lt;br&gt;Location: 404304 - 404915" locus_tag="BO88DRAFT_408556" class="clusterblast-orf" id="dummy-1_h1_3_24"  />
</g>
<g id="a1_0025"  >
<polygon points="769,90 775,90 780,85 775,80 769,80 769,90 " style="fill:white; stroke-width:1; stroke:black; " description="&lt;b&gt;BO88DRAFT_429748&lt;/b&gt;&lt;br&gt;hypothetical protein&lt;br&gt;Location: 406287 - 407539" locus_tag="BO88DRAFT_429748" class="clusterblast-orf" id="dummy-1_h1_3_25"  />
</g>
</svg>
