<svg xmlns="http://www.w3.org/2000/svg" xmlns:xlink="http://www.w3.org/1999/xlink" version="1.1" x="0" y="0" height="230" width="800" viewBox="0 0 800 230" preserveAspectRatio="none"  >
<g label="Query sequence" class="clusterblast-cluster"  >
<text x="5" y="20" class="clusterblast-acc"  >
Query sequence</text>
<line x1="10" y1="35" x2="778.0" y2="35" style="stroke-width:1; stroke:grey; "  />
<polygon points="113,35 118,30 124,30 124,40 118,40 113,35 " style="fill:#d81515; stroke-width:1; stroke:black; " description="&lt;b&gt;input.path1.gene424&lt;/b&gt;&lt;br&gt;input.path1.gene424&lt;br&gt;Location: 1453387 - 1454253" locus_tag="input.path1.gene424" class="clusterblast-orf" id="dummy-2_q0_0_all"  />
<polygon points="154,40 166,40 171,35 166,30 154,30 154,40 " style="fill:#4dd815; stroke-width:1; stroke:black; " description="&lt;b&gt;input.path1.gene425&lt;/b&gt;&lt;br&gt;input.path1.gene425&lt;br&gt;Location: 1456573 - 1457918" locus_tag="input.path1.gene425" class="clusterblast-orf" id="dummy-2_q1_0_all"  />
<polygon points="184,40 196,40 201,35 196,30 184,30 184,40 " style="fill:#1585d8; stroke-width:1; stroke:black; " description="&lt;b&gt;input.path1.gene426&lt;/b&gt;&lt;br&gt;input.path1.gene426&lt;br&gt;Location: 1458965 - 1460229" locus_tag="input.path1.gene426" class="clusterblast-orf" id="dummy-2_q2_0_all"  />
<polygon points="206,35 211,30 223,30 223,40 211,40 206,35 " style="fill:#a115d8; stroke-width:1; stroke:black; " description="&lt;b&gt;input.path1.gene427&lt;/b&gt;&lt;br&gt;input.path1.gene427&lt;br&gt;Location: 1460683 - 1461983" locus_tag="input.path1.gene427" class="clusterblast-orf" id="dummy-2_q3_0_all"  />
<polygon points="264,40 274,40 279,35 274,30 264,30 264,40 " style="fill:#d86915; stroke-width:1; stroke:black; " description="&lt;b&gt;input.path1.gene428&lt;/b&gt;&lt;br&gt;input.path1.gene428&lt;br&gt;Location: 1465244 - 1466416" locus_tag="input.path1.gene428" class="clusterblast-orf" id="dummy-2_q4_0_all"  />
<polygon points="313,40 331,40 336,35 331,30 313,30 313,40 " style="fill:#15d831; stroke-width:1; stroke:black; " description="&lt;b&gt;input.path1.gene429&lt;/b&gt;&lt;br&gt;input.path1.gene429&lt;br&gt;Location: 1469029 - 1470864" locus_tag="input.path1.gene429" class="clusterblast-orf" id="dummy-2_q5_0_all"  />
<polygon points="365,35 370,30 412,30 412,40 370,40 365,35 " style="fill:#1531d8; stroke-width:1; stroke:black; " description="&lt;b&gt;input.path1.gene430&lt;/b&gt;&lt;br&gt;input.path1.gene430&lt;br&gt;Location: 1473090 - 1476773" locus_tag="input.path1.gene430" class="clusterblast-orf" id="dummy-2_q6_0_all"  />
<polygon points="434,40 448,40 453,35 448,30 434,30 434,40 " style="fill:#d815bc; stroke-width:1; stroke:black; " description="&lt;b&gt;input.path1.gene431&lt;/b&gt;&lt;br&gt;input.path1.gene431&lt;br&gt;Location: 1478571 - 1480037" locus_tag="input.path1.gene431" class="clusterblast-orf" id="dummy-2_q7_0_all"  />
<polygon points="460,40 470,40 475,35 470,30 460,30 460,40 " style="fill:white; stroke-width:1; stroke:black; " description="&lt;b&gt;input.path1.gene432&lt;/b&gt;&lt;br&gt;input.path1.gene432&lt;br&gt;Location: 1480536 - 1481739" locus_tag="input.path1.gene432" class="clusterblast-orf" id="dummy-2_q8_0_all"  />
<polygon points="483,35 488,30 496,30 496,40 488,40 483,35 " style="fill:white; stroke-width:1; stroke:black; " description="&lt;b&gt;input.path1.gene433&lt;/b&gt;&lt;br&gt;input.path1.gene433&lt;br&gt;Location: 1482357 - 1483413" locus_tag="input.path1.gene433" class="clusterblast-orf" id="dummy-2_q9_0_all"  />
<polygon points="526,40 531,40 536,35 531,30 526,30 526,40 " style="fill:#d8bc15; stroke-width:1; stroke:black; " description="&lt;b&gt;input.path1.gene434&lt;/b&gt;&lt;br&gt;input.path1.gene434&lt;br&gt;Location: 1485778 - 1486549" locus_tag="input.path1.gene434" class="clusterblast-orf" id="dummy-2_q10_0_all"  />
<polygon points="545,40 549,40 554,35 549,30 545,30 545,40 " style="fill:#15d885; stroke-width:1; stroke:black; " description="&lt;b&gt;input.path1.gene435&lt;/b&gt;&lt;br&gt;input.path1.gene435&lt;br&gt;Location: 1487199 - 1487956" locus_tag="input.path1.gene435" class="clusterblast-orf" id="dummy-2_q11_0_all"  />
<polygon points="567,35 572,30 584,30 584,40 572,40 567,35 " style="fill:#4d15d8; stroke-width:1; stroke:black; " description="&lt;b&gt;input.path1.gene436&lt;/b&gt;&lt;br&gt;input.path1.gene436&lt;br&gt;Location: 1488943 - 1490322" locus_tag="input.path1.gene436" class="clusterblast-orf" id="dummy-2_q12_0_all"  />
<polygon points="602,40 620,40 625,35 620,30 602,30 602,40 " style="fill:#d81569; stroke-width:1; stroke:black; " description="&lt;b&gt;input.path1.gene437&lt;/b&gt;&lt;br&gt;input.path1.gene437&lt;br&gt;Location: 1491717 - 1493491" locus_tag="input.path1.gene437" class="clusterblast-orf" id="dummy-2_q13_0_all"  />
<polygon points="631,35 636,30 637,30 637,40 636,40 631,35 " style="fill:#a1d815; stroke-width:1; stroke:black; " description="&lt;b&gt;input.path1.gene438&lt;/b&gt;&lt;br&gt;input.path1.gene438&lt;br&gt;Location: 1493946 - 1494433" locus_tag="input.path1.gene438" class="clusterblast-orf" id="dummy-2_q14_0_all"  />
<polygon points="656,35 661,30 666,30 666,40 661,40 656,35 " style="fill:#15d8d8; stroke-width:1; stroke:black; " description="&lt;b&gt;input.path1.gene439&lt;/b&gt;&lt;br&gt;input.path1.gene439&lt;br&gt;Location: 1495923 - 1496721" locus_tag="input.path1.gene439" class="clusterblast-orf" id="dummy-2_q15_0_all"  />
</g>
<g label="NC_058400" description="NC_058400 (1372797-1436602): Fusarium poae strain DAOMC 252244 chromosome 2, ... (10% of genes show similarity), NRPS" class="clusterblast-cluster"  >
<text x="5" y="70" class="clusterblast-acc"  >
<a xlink:href="https://antismash-db.secondarymetabolites.org/area?record=NC_058400&amp;start=1372797&amp;end=1436602" target="_blank">NC_058400 (1372797-1436602)</a>: Fusarium poae strain DAOMC 252244 chromosome 2, ... (10% of genes show similarity), NRPS</text>
<line x1="10" y1="85" x2="778.0" y2="85" style="stroke-width:1; stroke:grey; "  />
</g>
<g id="a2_000"  >
<polygon points="0,90 12,90 17,85 12,80 0,80 0,90 " style="fill:white; stroke-width:1; stroke:black; " description="&lt;b&gt;FPOAC1_004379&lt;/b&gt;&lt;br&gt;hypothetical protein&lt;br&gt;Location: 1374995 - 1376341" locus_tag="FPOAC1_004379" class="clusterblast-orf" id="dummy-2_h2_7_0"  />
</g>
<g id="a2_001"  >
<polygon points="25,85 30,80 86,80 86,90 30,90 25,85 " style="fill:white; stroke-width:1; stroke:black; " description="&lt;b&gt;FPOAC1_004380&lt;/b&gt;&lt;br&gt;ZEB2-regulated ABC transporter 1&lt;br&gt;Location: 1376981 - 1381756" locus_tag="FPOAC1_004380" class="clusterblast-orf" id="dummy-2_h2_7_1"  />
</g>
<g id="a2_002"  >
<polygon points="150,85 155,80 172,80 172,90 155,90 150,85 " style="fill:white; stroke-width:1; stroke:black; " description="&lt;b&gt;FPOAC1_004381&lt;/b&gt;&lt;br&gt;hypothetical protein&lt;br&gt;Location: 1386805 - 1388531" locus_tag="FPOAC1_004381" class="clusterblast-orf" id="dummy-2_h2_7_2"  />
</g>
<g id="a2_003"  >
<polygon points="181,90 187,90 192,85 187,80 181,80 181,90 " style="fill:white; stroke-width:1; stroke:black; " description="&lt;b&gt;FPOAC1_004382&lt;/b&gt;&lt;br&gt;hypothetical protein&lt;br&gt;Location: 1389200 - 1390102" locus_tag="FPOAC1_004382" class="clusterblast-orf" id="dummy-2_h2_7_3"  />
</g>
<g id="a2_004"  >
<polygon points="207,90 235,90 240,85 235,80 207,80 207,90 " style="fill:white; stroke-width:1; stroke:black; " description="&lt;b&gt;FPOAC1_004383&lt;/b&gt;&lt;br&gt;hypothetical protein&lt;br&gt;Location: 1391287 - 1393821" locus_tag="FPOAC1_004383" class="clusterblast-orf" id="dummy-2_h2_7_4"  />
</g>
<g id="a2_005"  >
<polygon points="255,90 272,90 277,85 272,80 255,80 255,90 " style="fill:white; stroke-width:1; stroke:black; " description="&lt;b&gt;FPOAC1_004384&lt;/b&gt;&lt;br&gt;hypothetical protein&lt;br&gt;Location: 1395007 - 1396757" locus_tag="FPOAC1_004384" class="clusterblast-orf" id="dummy-2_h2_7_5"  />
</g>
<g id="a2_006"  >
<polygon points="295,90 298,90 303,85 298,80 295,80 295,90 " style="fill:white; stroke-width:1; stroke:black; " description="&lt;b&gt;FPOAC1_004385&lt;/b&gt;&lt;br&gt;hypothetical protein&lt;br&gt;Location: 1398148 - 1398750" locus_tag="FPOAC1_004385" class="clusterblast-orf" id="dummy-2_h2_7_6"  />
</g>
<g id="a2_007"  >
<polygon points="315,85 320,80 329,80 329,90 320,90 315,85 " style="fill:white; stroke-width:1; stroke:black; " description="&lt;b&gt;FPOAC1_004386&lt;/b&gt;&lt;br&gt;hypothetical protein&lt;br&gt;Location: 1399742 - 1400791" locus_tag="FPOAC1_004386" class="clusterblast-orf" id="dummy-2_h2_7_7"  />
</g>
<g id="a2_008"  >
<polygon points="337,90 346,90 351,85 346,80 337,80 337,90 " style="fill:white; stroke-width:1; stroke:black; " description="&lt;b&gt;FPOAC1_004387&lt;/b&gt;&lt;br&gt;hypothetical protein&lt;br&gt;Location: 1401461 - 1402564" locus_tag="FPOAC1_004387" class="clusterblast-orf" id="dummy-2_h2_7_8"  />
</g>
<g id="a2_009"  >
<polygon points="354,85 359,80 403,80 403,90 359,90 354,85 " style="fill:#1531d8; stroke-width:1; stroke:black; " description="&lt;b&gt;FPOAC1_004388&lt;/b&gt;&lt;br&gt;hypothetical protein&lt;br&gt;Location: 1402798 - 1406602&lt;br&gt;&lt;br&gt;&lt;b&gt;BlastP hit with input.path1.gene430&lt;/b&gt;&lt;br&gt;Percentage identity: 39&lt;br&gt;Percentage coverage: 104&lt;br&gt;BLAST bit score: 808&lt;br&gt;E-value: 1.39e-272" locus_tag="FPOAC1_004388" class="clusterblast-orf" id="dummy-2_h2_7_9"  />
</g>
<g id="a2_0010"  >
<polygon points="435,90 451,90 456,85 451,80 435,80 435,90 " style="fill:#d815bc; stroke-width:1; stroke:black; " description="&lt;b&gt;FPOAC1_004389&lt;/b&gt;&lt;br&gt;hypothetical protein&lt;br&gt;Location: 1409176 - 1410800&lt;br&gt;&lt;br&gt;&lt;b&gt;BlastP hit with input.path1.gene431&lt;/b&gt;&lt;br&gt;Percentage identity: 48&lt;br&gt;Percentage coverage: 98&lt;br&gt;BLAST bit score: 435&lt;br&gt;E-value: 2.19e-147" locus_tag="FPOAC1_004389" class="clusterblast-orf" id="dummy-2_h2_7_10"  />
</g>
<g id="a2_0011"  >
<polygon points="475,85 480,80 500,80 500,90 480,90 475,85 " style="fill:white; stroke-width:1; stroke:black; " description="&lt;b&gt;FPOAC1_004390&lt;/b&gt;&lt;br&gt;hypothetical protein&lt;br&gt;Location: 1412297 - 1414200" locus_tag="FPOAC1_004390" class="clusterblast-orf" id="dummy-2_h2_7_11"  />
</g>
<g id="a2_0012"  >
<polygon points="544,90 546,90 551,85 546,80 544,80 544,90 " style="fill:white; stroke-width:1; stroke:black; " description="&lt;b&gt;FPOAC1_004391&lt;/b&gt;&lt;br&gt;hypothetical protein&lt;br&gt;Location: 1417655 - 1418194" locus_tag="FPOAC1_004391" class="clusterblast-orf" id="dummy-2_h2_7_12"  />
</g>
<g id="a2_0013"  >
<polygon points="568,90 576,90 581,85 576,80 568,80 568,90 " style="fill:white; stroke-width:1; stroke:black; " description="&lt;b&gt;FPOAC1_004392&lt;/b&gt;&lt;br&gt;hypothetical protein&lt;br&gt;Location: 1419569 - 1420580" locus_tag="FPOAC1_004392" class="clusterblast-orf" id="dummy-2_h2_7_13"  />
</g>
<g id="a2_0014"  >
<polygon points="611,90 611,90 616,85 611,80 611,80 611,90 " style="fill:white; stroke-width:1; stroke:black; " description="&lt;b&gt;FPOAC1_004393&lt;/b&gt;&lt;br&gt;hypothetical protein&lt;br&gt;Location: 1422975 - 1423340" locus_tag="FPOAC1_004393" class="clusterblast-orf" id="dummy-2_h2_7_14"  />
</g>
<g id="a2_0015"  >
<polygon points="636,85 641,80 680,80 680,90 641,90 636,85 " style="fill:white; stroke-width:1; stroke:black; " description="&lt;b&gt;FPOAC1_004394&lt;/b&gt;&lt;br&gt;hypothetical protein&lt;br&gt;Location: 1424934 - 1428314" locus_tag="FPOAC1_004394" class="clusterblast-orf" id="dummy-2_h2_7_15"  />
</g>
<g id="a2_0016"  >
<polygon points="724,90 728,90 733,85 728,80 724,80 724,90 " style="fill:white; stroke-width:1; stroke:black; " description="&lt;b&gt;FPOAC1_004395&lt;/b&gt;&lt;br&gt;hypothetical protein&lt;br&gt;Location: 1431820 - 1432530" locus_tag="FPOAC1_004395" class="clusterblast-orf" id="dummy-2_h2_7_16"  />
</g>
<g id="a2_0017"  >
<polygon points="734,90 738,85 734,80 734,90 " style="fill:white; stroke-width:1; stroke:black; " description="&lt;b&gt;FPOAC1_004396&lt;/b&gt;&lt;br&gt;hypothetical protein&lt;br&gt;Location: 1432553 - 1432859" locus_tag="FPOAC1_004396" class="clusterblast-orf" id="dummy-2_h2_7_17"  />
</g>
<g id="a2_0018"  >
<polygon points="744,90 745,90 750,85 745,80 744,80 744,90 " style="fill:white; stroke-width:1; stroke:black; " description="&lt;b&gt;FPOAC1_004397&lt;/b&gt;&lt;br&gt;hypothetical protein&lt;br&gt;Location: 1433386 - 1433818" locus_tag="FPOAC1_004397" class="clusterblast-orf" id="dummy-2_h2_7_18"  />
</g>
<g id="a2_0019"  >
<polygon points="766,85 771,80 780,80 780,90 771,90 766,85 " style="fill:white; stroke-width:1; stroke:black; " description="&lt;b&gt;FPOAC1_004398&lt;/b&gt;&lt;br&gt;hypothetical protein&lt;br&gt;Location: 1435087 - 1436146" locus_tag="FPOAC1_004398" class="clusterblast-orf" id="dummy-2_h2_7_19"  />
</g>
</svg>
