<svg xmlns="http://www.w3.org/2000/svg" xmlns:xlink="http://www.w3.org/1999/xlink" version="1.1" x="0" y="0" height="230" width="800" viewBox="0 0 800 230" preserveAspectRatio="none"  >
<g label="Query sequence" class="clusterblast-cluster"  >
<text x="5" y="20" class="clusterblast-acc"  >
Query sequence</text>
<line x1="10" y1="35" x2="778.0" y2="35" style="stroke-width:1; stroke:grey; "  />
<polygon points="237,40 242,40 247,35 242,30 237,30 237,40 " style="fill:white; stroke-width:1; stroke:black; " description="&lt;b&gt;input.path1.gene208&lt;/b&gt;&lt;br&gt;input.path1.gene208&lt;br&gt;Location: 706994 - 708314" locus_tag="input.path1.gene208" class="clusterblast-orf" id="dummy-3_q0_0_all"  />
<polygon points="256,35 261,30 267,30 267,40 261,40 256,35 " style="fill:white; stroke-width:1; stroke:black; " description="&lt;b&gt;input.path1.gene209&lt;/b&gt;&lt;br&gt;input.path1.gene209&lt;br&gt;Location: 709577 - 711023" locus_tag="input.path1.gene209" class="clusterblast-orf" id="dummy-3_q1_0_all"  />
<polygon points="274,40 287,40 292,35 287,30 274,30 274,40 " style="fill:#d81515; stroke-width:1; stroke:black; " description="&lt;b&gt;input.path1.gene210&lt;/b&gt;&lt;br&gt;input.path1.gene210&lt;br&gt;Location: 711960 - 714349" locus_tag="input.path1.gene210" class="clusterblast-orf" id="dummy-3_q2_0_all"  />
<polygon points="293,35 298,30 300,30 300,40 298,40 293,35 " style="fill:#5cd815; stroke-width:1; stroke:black; " description="&lt;b&gt;input.path1.gene211&lt;/b&gt;&lt;br&gt;input.path1.gene211&lt;br&gt;Location: 714433 - 715420" locus_tag="input.path1.gene211" class="clusterblast-orf" id="dummy-3_q3_0_all"  />
<polygon points="326,40 329,40 334,35 329,30 326,30 326,40 " style="fill:#15a3d8; stroke-width:1; stroke:black; " description="&lt;b&gt;input.path1.gene212&lt;/b&gt;&lt;br&gt;input.path1.gene212&lt;br&gt;Location: 718829 - 719852" locus_tag="input.path1.gene212" class="clusterblast-orf" id="dummy-3_q4_0_all"  />
<polygon points="335,35 340,30 347,30 347,40 340,40 335,35 " style="fill:#c715d8; stroke-width:1; stroke:black; " description="&lt;b&gt;input.path1.gene213&lt;/b&gt;&lt;br&gt;input.path1.gene213&lt;br&gt;Location: 719971 - 721634" locus_tag="input.path1.gene213" class="clusterblast-orf" id="dummy-3_q5_0_all"  />
<polygon points="351,35 356,30 365,30 365,40 356,40 351,35 " style="fill:#d88015; stroke-width:1; stroke:black; " description="&lt;b&gt;input.path1.gene214&lt;/b&gt;&lt;br&gt;input.path1.gene214&lt;br&gt;Location: 722093 - 724005" locus_tag="input.path1.gene214" class="clusterblast-orf" id="dummy-3_q6_0_all"  />
<polygon points="374,35 379,30 403,30 403,40 379,40 374,35 " style="fill:#15d839; stroke-width:1; stroke:black; " description="&lt;b&gt;input.path1.gene215&lt;/b&gt;&lt;br&gt;input.path1.gene215&lt;br&gt;Location: 725195 - 729062" locus_tag="input.path1.gene215" class="clusterblast-orf" id="dummy-3_q7_0_all"  />
<polygon points="417,35 422,30 429,30 429,40 422,40 417,35 " style="fill:#1539d8; stroke-width:1; stroke:black; " description="&lt;b&gt;input.path1.gene216&lt;/b&gt;&lt;br&gt;input.path1.gene216&lt;br&gt;Location: 730856 - 732446" locus_tag="input.path1.gene216" class="clusterblast-orf" id="dummy-3_q8_0_all"  />
<polygon points="471,40 472,40 477,35 472,30 471,30 471,40 " style="fill:#d81580; stroke-width:1; stroke:black; " description="&lt;b&gt;input.path1.gene217&lt;/b&gt;&lt;br&gt;input.path1.gene217&lt;br&gt;Location: 738021 - 738825" locus_tag="input.path1.gene217" class="clusterblast-orf" id="dummy-3_q9_0_all"  />
<polygon points="482,40 486,35 482,30 482,40 " style="fill:#c7d815; stroke-width:1; stroke:black; " description="&lt;b&gt;input.path1.gene218&lt;/b&gt;&lt;br&gt;input.path1.gene218&lt;br&gt;Location: 739583 - 740034" locus_tag="input.path1.gene218" class="clusterblast-orf" id="dummy-3_q10_0_all"  />
<polygon points="487,35 492,30 499,30 499,40 492,40 487,35 " style="fill:#15d8a3; stroke-width:1; stroke:black; " description="&lt;b&gt;input.path1.gene219&lt;/b&gt;&lt;br&gt;input.path1.gene219&lt;br&gt;Location: 740196 - 741796" locus_tag="input.path1.gene219" class="clusterblast-orf" id="dummy-3_q11_0_all"  />
<polygon points="515,40 520,40 525,35 520,30 515,30 515,40 " style="fill:#5c15d8; stroke-width:1; stroke:black; " description="&lt;b&gt;input.path1.gene220&lt;/b&gt;&lt;br&gt;input.path1.gene220&lt;br&gt;Location: 743923 - 745194" locus_tag="input.path1.gene220" class="clusterblast-orf" id="dummy-3_q12_0_all"  />
<polygon points="528,35 533,30 542,30 542,40 533,40 528,35 " style="fill:white; stroke-width:1; stroke:black; " description="&lt;b&gt;input.path1.gene221&lt;/b&gt;&lt;br&gt;input.path1.gene221&lt;br&gt;Location: 745668 - 747522" locus_tag="input.path1.gene221" class="clusterblast-orf" id="dummy-3_q13_0_all"  />
</g>
<g label="NW_014013657" description="NW_014013657 (238627-342899): Trichoderma virens Gv29-8 chromosome Unknown TR... (20% of genes show similarity), NRPS-like,fungal-RiPP-like" class="clusterblast-cluster"  >
<text x="5" y="70" class="clusterblast-acc"  >
<a xlink:href="https://antismash-db.secondarymetabolites.org/area?record=NW_014013657&amp;start=238627&amp;end=342899" target="_blank">NW_014013657 (238627-342899)</a>: Trichoderma virens Gv29-8 chromosome Unknown TR... (20% of genes show similarity), NRPS-like,fungal-RiPP-like</text>
<line x1="10" y1="85" x2="778.0" y2="85" style="stroke-width:1; stroke:grey; "  />
</g>
<g id="a3_000"  >
<polygon points="0,90 9,90 14,85 9,80 0,80 0,90 " style="fill:white; stroke-width:1; stroke:black; " description="&lt;b&gt;TRIVIDRAFT_228367&lt;/b&gt;&lt;br&gt;hypothetical protein&lt;br&gt;Location: 342438 - 340524" locus_tag="TRIVIDRAFT_228367" class="clusterblast-orf" id="dummy-3_h3_5_0"  />
</g>
<g id="a3_001"  >
<polygon points="18,85 23,80 26,80 26,90 23,90 18,85 " style="fill:white; stroke-width:1; stroke:black; " description="&lt;b&gt;TRIVIDRAFT_174968&lt;/b&gt;&lt;br&gt;hypothetical protein&lt;br&gt;Location: 340019 - 338903" locus_tag="TRIVIDRAFT_174968" class="clusterblast-orf" id="dummy-3_h3_5_1"  />
</g>
<g id="a3_002"  >
<polygon points="29,85 34,80 36,80 36,90 34,90 29,85 " style="fill:white; stroke-width:1; stroke:black; " description="&lt;b&gt;TRIVIDRAFT_187604&lt;/b&gt;&lt;br&gt;hypothetical protein&lt;br&gt;Location: 338548 - 337534" locus_tag="TRIVIDRAFT_187604" class="clusterblast-orf" id="dummy-3_h3_5_2"  />
</g>
<g id="a3_003"  >
<polygon points="44,90 52,90 57,85 52,80 44,80 44,90 " style="fill:white; stroke-width:1; stroke:black; " description="&lt;b&gt;TRIVIDRAFT_13584&lt;/b&gt;&lt;br&gt;hypothetical protein&lt;br&gt;Location: 336558 - 334800" locus_tag="TRIVIDRAFT_13584" class="clusterblast-orf" id="dummy-3_h3_5_3"  />
</g>
<g id="a3_004"  >
<polygon points="60,85 65,80 66,80 66,90 65,90 60,85 " style="fill:white; stroke-width:1; stroke:black; " description="&lt;b&gt;TRIVIDRAFT_131641&lt;/b&gt;&lt;br&gt;hypothetical protein&lt;br&gt;Location: 334365 - 333658" locus_tag="TRIVIDRAFT_131641" class="clusterblast-orf" id="dummy-3_h3_5_4"  />
</g>
<g id="a3_005"  >
<polygon points="80,90 84,85 80,80 80,90 " style="fill:white; stroke-width:1; stroke:black; " description="&lt;b&gt;TRIVIDRAFT_26449&lt;/b&gt;&lt;br&gt;hypothetical protein&lt;br&gt;Location: 331805 - 331173" locus_tag="TRIVIDRAFT_26449" class="clusterblast-orf" id="dummy-3_h3_5_5"  />
</g>
<g id="a3_006"  >
<polygon points="100,85 105,80 110,80 110,90 105,90 100,85 " style="fill:white; stroke-width:1; stroke:black; " description="&lt;b&gt;TRIVIDRAFT_38104&lt;/b&gt;&lt;br&gt;hypothetical protein&lt;br&gt;Location: 329033 - 327818" locus_tag="TRIVIDRAFT_38104" class="clusterblast-orf" id="dummy-3_h3_5_6"  />
</g>
<g id="a3_007"  >
<polygon points="153,90 157,90 162,85 157,80 153,80 153,90 " style="fill:white; stroke-width:1; stroke:black; " description="&lt;b&gt;TRIVIDRAFT_184715&lt;/b&gt;&lt;br&gt;hypothetical protein&lt;br&gt;Location: 322109 - 320820" locus_tag="TRIVIDRAFT_184715" class="clusterblast-orf" id="dummy-3_h3_5_7"  />
</g>
<g id="a3_008"  >
<polygon points="168,85 173,80 180,80 180,90 173,90 168,85 " style="fill:white; stroke-width:1; stroke:black; " description="&lt;b&gt;TRIVIDRAFT_211025&lt;/b&gt;&lt;br&gt;hypothetical protein&lt;br&gt;Location: 320013 - 318514" locus_tag="TRIVIDRAFT_211025" class="clusterblast-orf" id="dummy-3_h3_5_8"  />
</g>
<g id="a3_009"  >
<polygon points="189,85 194,80 196,80 196,90 194,90 189,85 " style="fill:white; stroke-width:1; stroke:black; " description="&lt;b&gt;TRIVIDRAFT_38264&lt;/b&gt;&lt;br&gt;hypothetical protein&lt;br&gt;Location: 317325 - 316306" locus_tag="TRIVIDRAFT_38264" class="clusterblast-orf" id="dummy-3_h3_5_9"  />
</g>
<g id="a3_0010"  >
<polygon points="236,90 251,90 256,85 251,80 236,80 236,90 " style="fill:white; stroke-width:1; stroke:black; " description="&lt;b&gt;TRIVIDRAFT_123716&lt;/b&gt;&lt;br&gt;hypothetical protein&lt;br&gt;Location: 311011 - 308356" locus_tag="TRIVIDRAFT_123716" class="clusterblast-orf" id="dummy-3_h3_5_10"  />
</g>
<g id="a3_0011"  >
<polygon points="263,85 268,80 273,80 273,90 268,90 263,85 " style="fill:white; stroke-width:1; stroke:black; " description="&lt;b&gt;TRIVIDRAFT_64765&lt;/b&gt;&lt;br&gt;hypothetical protein&lt;br&gt;Location: 307483 - 306074" locus_tag="TRIVIDRAFT_64765" class="clusterblast-orf" id="dummy-3_h3_5_11"  />
</g>
<g id="a3_0012"  >
<polygon points="279,90 282,90 287,85 282,80 279,80 279,90 " style="fill:white; stroke-width:1; stroke:black; " description="&lt;b&gt;TRIVIDRAFT_38294&lt;/b&gt;&lt;br&gt;hypothetical protein&lt;br&gt;Location: 305275 - 304223" locus_tag="TRIVIDRAFT_38294" class="clusterblast-orf" id="dummy-3_h3_5_12"  />
</g>
<g id="a3_0013"  >
<polygon points="291,85 296,80 300,80 300,90 296,90 291,85 " style="fill:#5c15d8; stroke-width:1; stroke:black; " description="&lt;b&gt;TRIVIDRAFT_38049&lt;/b&gt;&lt;br&gt;hypothetical protein&lt;br&gt;Location: 303751 - 302509&lt;br&gt;&lt;br&gt;&lt;b&gt;BlastP hit with input.path1.gene220&lt;/b&gt;&lt;br&gt;Percentage identity: 47&lt;br&gt;Percentage coverage: 99&lt;br&gt;BLAST bit score: 334&lt;br&gt;E-value: 8.26e-111" locus_tag="TRIVIDRAFT_38049" class="clusterblast-orf" id="dummy-3_h3_5_13"  />
</g>
<g id="a3_0014"  >
<polygon points="325,85 330,80 331,80 331,90 330,90 325,85 " style="fill:white; stroke-width:1; stroke:black; " description="&lt;b&gt;TRIVIDRAFT_64767&lt;/b&gt;&lt;br&gt;hypothetical protein&lt;br&gt;Location: 299212 - 298425" locus_tag="TRIVIDRAFT_64767" class="clusterblast-orf" id="dummy-3_h3_5_14"  />
</g>
<g id="a3_0015"  >
<polygon points="335,90 337,90 342,85 337,80 335,80 335,90 " style="fill:white; stroke-width:1; stroke:black; " description="&lt;b&gt;TRIVIDRAFT_228354&lt;/b&gt;&lt;br&gt;hypothetical protein&lt;br&gt;Location: 297899 - 296874" locus_tag="TRIVIDRAFT_228354" class="clusterblast-orf" id="dummy-3_h3_5_15"  />
</g>
<g id="a3_0016"  >
<polygon points="349,85 354,80 357,80 357,90 354,90 349,85 " style="fill:#d81580; stroke-width:1; stroke:black; " description="&lt;b&gt;TRIVIDRAFT_74704&lt;/b&gt;&lt;br&gt;hypothetical protein&lt;br&gt;Location: 295962 - 294976&lt;br&gt;&lt;br&gt;&lt;b&gt;BlastP hit with input.path1.gene217&lt;/b&gt;&lt;br&gt;Percentage identity: 37&lt;br&gt;Percentage coverage: 101&lt;br&gt;BLAST bit score: 129&lt;br&gt;E-value: 1.83e-33" locus_tag="TRIVIDRAFT_74704" class="clusterblast-orf" id="dummy-3_h3_5_16"  />
</g>
<g id="a3_0017"  >
<polygon points="376,85 381,80 383,80 383,90 381,90 376,85 " style="fill:white; stroke-width:1; stroke:black; " description="&lt;b&gt;TRIVIDRAFT_38893&lt;/b&gt;&lt;br&gt;hypothetical protein&lt;br&gt;Location: 292447 - 291521" locus_tag="TRIVIDRAFT_38893" class="clusterblast-orf" id="dummy-3_h3_5_17"  />
</g>
<g id="a3_0018"  >
<polygon points="389,85 394,80 400,80 400,90 394,90 389,85 " style="fill:white; stroke-width:1; stroke:black; " description="&lt;b&gt;TRIVIDRAFT_196192&lt;/b&gt;&lt;br&gt;hypothetical protein&lt;br&gt;Location: 290697 - 289279" locus_tag="TRIVIDRAFT_196192" class="clusterblast-orf" id="dummy-3_h3_5_18"  />
</g>
<g id="a3_0019"  >
<polygon points="409,90 417,90 422,85 417,80 409,80 409,90 " style="fill:#d81515; stroke-width:1; stroke:black; " description="&lt;b&gt;TRIVIDRAFT_214757&lt;/b&gt;&lt;br&gt;hypothetical protein&lt;br&gt;Location: 288004 - 286257&lt;br&gt;&lt;br&gt;&lt;b&gt;BlastP hit with input.path1.gene210&lt;/b&gt;&lt;br&gt;Percentage identity: 65&lt;br&gt;Percentage coverage: 74&lt;br&gt;BLAST bit score: 577&lt;br&gt;E-value: 1.77e-199" locus_tag="TRIVIDRAFT_214757" class="clusterblast-orf" id="dummy-3_h3_5_19"  />
</g>
<g id="a3_0020"  >
<polygon points="427,85 432,80 448,80 448,90 432,90 427,85 " style="fill:#5cd815; stroke-width:1; stroke:black; " description="&lt;b&gt;TRIVIDRAFT_38517&lt;/b&gt;&lt;br&gt;hypothetical protein&lt;br&gt;Location: 285655 - 282901&lt;br&gt;&lt;br&gt;&lt;b&gt;BlastP hit with input.path1.gene211&lt;/b&gt;&lt;br&gt;Percentage identity: 54&lt;br&gt;Percentage coverage: 104&lt;br&gt;BLAST bit score: 239&lt;br&gt;E-value: 3.55e-72" locus_tag="TRIVIDRAFT_38517" class="clusterblast-orf" id="dummy-3_h3_5_20"  />
</g>
<g id="a3_0021"  >
<polygon points="451,90 476,90 481,85 476,80 451,80 451,90 " style="fill:white; stroke-width:1; stroke:black; " description="&lt;b&gt;TRIVIDRAFT_122493&lt;/b&gt;&lt;br&gt;hypothetical protein&lt;br&gt;Location: 282408 - 278437" locus_tag="TRIVIDRAFT_122493" class="clusterblast-orf" id="dummy-3_h3_5_21"  />
</g>
<g id="a3_0022"  >
<polygon points="486,90 494,90 499,85 494,80 486,80 486,90 " style="fill:white; stroke-width:1; stroke:black; " description="&lt;b&gt;TRIVIDRAFT_232541&lt;/b&gt;&lt;br&gt;hypothetical protein&lt;br&gt;Location: 277775 - 276048" locus_tag="TRIVIDRAFT_232541" class="clusterblast-orf" id="dummy-3_h3_5_22"  />
</g>
<g id="a3_0023"  >
<polygon points="501,85 506,80 515,80 515,90 506,90 501,85 " style="fill:#d88015; stroke-width:1; stroke:black; " description="&lt;b&gt;TRIVIDRAFT_39090&lt;/b&gt;&lt;br&gt;hypothetical protein&lt;br&gt;Location: 275859 - 273906&lt;br&gt;&lt;br&gt;&lt;b&gt;BlastP hit with input.path1.gene214&lt;/b&gt;&lt;br&gt;Percentage identity: 42&lt;br&gt;Percentage coverage: 95&lt;br&gt;BLAST bit score: 401&lt;br&gt;E-value: 2.3e-131" locus_tag="TRIVIDRAFT_39090" class="clusterblast-orf" id="dummy-3_h3_5_23"  />
</g>
<g id="a3_0024"  >
<polygon points="526,85 531,80 555,80 555,90 531,90 526,85 " style="fill:#15d839; stroke-width:1; stroke:black; " description="&lt;b&gt;TRIVIDRAFT_39004&lt;/b&gt;&lt;br&gt;non-ribosomal peptide synthetase&lt;br&gt;Location: 272479 - 268628&lt;br&gt;&lt;br&gt;&lt;b&gt;BlastP hit with input.path1.gene215&lt;/b&gt;&lt;br&gt;Percentage identity: 76&lt;br&gt;Percentage coverage: 100&lt;br&gt;BLAST bit score: 1942&lt;br&gt;E-value: 0.0" locus_tag="TRIVIDRAFT_39004" class="clusterblast-orf" id="dummy-3_h3_5_24"  />
</g>
<g id="a3_0025"  >
<polygon points="565,85 570,80 577,80 577,90 570,90 565,85 " style="fill:#1539d8; stroke-width:1; stroke:black; " description="&lt;b&gt;TRIVIDRAFT_214756&lt;/b&gt;&lt;br&gt;hypothetical protein&lt;br&gt;Location: 267276 - 265690&lt;br&gt;&lt;br&gt;&lt;b&gt;BlastP hit with input.path1.gene216&lt;/b&gt;&lt;br&gt;Percentage identity: 64&lt;br&gt;Percentage coverage: 101&lt;br&gt;BLAST bit score: 627&lt;br&gt;E-value: 5.12e-222" locus_tag="TRIVIDRAFT_214756" class="clusterblast-orf" id="dummy-3_h3_5_25"  />
</g>
<g id="a3_0026"  >
<polygon points="613,90 618,90 623,85 618,80 613,80 613,90 " style="fill:white; stroke-width:1; stroke:black; " description="&lt;b&gt;TRIVIDRAFT_214755&lt;/b&gt;&lt;br&gt;hypothetical protein&lt;br&gt;Location: 260884 - 259548" locus_tag="TRIVIDRAFT_214755" class="clusterblast-orf" id="dummy-3_h3_5_26"  />
</g>
<g id="a3_0027"  >
<polygon points="626,85 631,80 635,80 635,90 631,90 626,85 " style="fill:white; stroke-width:1; stroke:black; " description="&lt;b&gt;TRIVIDRAFT_38621&lt;/b&gt;&lt;br&gt;hypothetical protein&lt;br&gt;Location: 259229 - 258006" locus_tag="TRIVIDRAFT_38621" class="clusterblast-orf" id="dummy-3_h3_5_27"  />
</g>
<g id="a3_0028"  >
<polygon points="647,85 652,80 658,80 658,90 652,90 647,85 " style="fill:white; stroke-width:1; stroke:black; " description="&lt;b&gt;TRIVIDRAFT_38064&lt;/b&gt;&lt;br&gt;hypothetical protein&lt;br&gt;Location: 256454 - 254901" locus_tag="TRIVIDRAFT_38064" class="clusterblast-orf" id="dummy-3_h3_5_28"  />
</g>
<g id="a3_0029"  >
<polygon points="669,90 679,90 684,85 679,80 669,80 669,90 " style="fill:white; stroke-width:1; stroke:black; " description="&lt;b&gt;TRIVIDRAFT_87376&lt;/b&gt;&lt;br&gt;hypothetical protein&lt;br&gt;Location: 253515 - 251516" locus_tag="TRIVIDRAFT_87376" class="clusterblast-orf" id="dummy-3_h3_5_29"  />
</g>
<g id="a3_0030"  >
<polygon points="691,90 697,90 702,85 697,80 691,80 691,90 " style="fill:white; stroke-width:1; stroke:black; " description="&lt;b&gt;TRIVIDRAFT_228339&lt;/b&gt;&lt;br&gt;hypothetical protein&lt;br&gt;Location: 250593 - 249055" locus_tag="TRIVIDRAFT_228339" class="clusterblast-orf" id="dummy-3_h3_5_30"  />
</g>
<g id="a3_0031"  >
<polygon points="703,85 708,80 715,80 715,90 708,90 703,85 " style="fill:white; stroke-width:1; stroke:black; " description="&lt;b&gt;TRIVIDRAFT_196183&lt;/b&gt;&lt;br&gt;hypothetical protein&lt;br&gt;Location: 249007 - 247385" locus_tag="TRIVIDRAFT_196183" class="clusterblast-orf" id="dummy-3_h3_5_31"  />
</g>
<g id="a3_0032"  >
<polygon points="726,90 737,90 742,85 737,80 726,80 726,90 " style="fill:white; stroke-width:1; stroke:black; " description="&lt;b&gt;TRIVIDRAFT_56535&lt;/b&gt;&lt;br&gt;hypothetical protein&lt;br&gt;Location: 245854 - 243728" locus_tag="TRIVIDRAFT_56535" class="clusterblast-orf" id="dummy-3_h3_5_32"  />
</g>
<g id="a3_0033"  >
<polygon points="748,90 753,90 758,85 753,80 748,80 748,90 " style="fill:white; stroke-width:1; stroke:black; " description="&lt;b&gt;TRIVIDRAFT_38685&lt;/b&gt;&lt;br&gt;hypothetical protein&lt;br&gt;Location: 242983 - 241635" locus_tag="TRIVIDRAFT_38685" class="clusterblast-orf" id="dummy-3_h3_5_33"  />
</g>
<g id="a3_0034"  >
<polygon points="766,90 775,90 780,85 775,80 766,80 766,90 " style="fill:white; stroke-width:1; stroke:black; " description="&lt;b&gt;TRIVIDRAFT_56537&lt;/b&gt;&lt;br&gt;hypothetical protein&lt;br&gt;Location: 240583 - 238804" locus_tag="TRIVIDRAFT_56537" class="clusterblast-orf" id="dummy-3_h3_5_34"  />
</g>
</svg>
