<svg xmlns="http://www.w3.org/2000/svg" xmlns:xlink="http://www.w3.org/1999/xlink" version="1.1" x="0" y="0" height="230" width="800" viewBox="0 0 800 230" preserveAspectRatio="none"  >
<g label="Query sequence" class="clusterblast-cluster"  >
<text x="5" y="20" class="clusterblast-acc"  >
Query sequence</text>
<line x1="10" y1="35" x2="778.0" y2="35" style="stroke-width:1; stroke:grey; "  />
<polygon points="117,35 122,30 161,30 161,40 122,40 117,35 " style="fill:white; stroke-width:1; stroke:black; " description="&lt;b&gt;input.path1.gene192&lt;/b&gt;&lt;br&gt;input.path1.gene192&lt;br&gt;Location: 640688 - 643987" locus_tag="input.path1.gene192" class="clusterblast-orf" id="dummy-1_q0_0_all"  />
<polygon points="177,40 185,40 190,35 185,30 177,30 177,40 " style="fill:#d81515; stroke-width:1; stroke:black; " description="&lt;b&gt;input.path1.gene193&lt;/b&gt;&lt;br&gt;input.path1.gene193&lt;br&gt;Location: 645282 - 646236" locus_tag="input.path1.gene193" class="clusterblast-orf" id="dummy-1_q1_0_all"  />
<polygon points="192,35 197,30 209,30 209,40 197,40 192,35 " style="fill:#15d815; stroke-width:1; stroke:black; " description="&lt;b&gt;input.path1.gene194&lt;/b&gt;&lt;br&gt;input.path1.gene194&lt;br&gt;Location: 646376 - 647727" locus_tag="input.path1.gene194" class="clusterblast-orf" id="dummy-1_q2_0_all"  />
<polygon points="222,40 240,40 245,35 240,30 222,30 222,40 " style="fill:#1597d8; stroke-width:1; stroke:black; " description="&lt;b&gt;input.path1.gene195&lt;/b&gt;&lt;br&gt;input.path1.gene195&lt;br&gt;Location: 648686 - 650450" locus_tag="input.path1.gene195" class="clusterblast-orf" id="dummy-1_q3_0_all"  />
<polygon points="287,40 302,40 307,35 302,30 287,30 287,40 " style="fill:#9715d8; stroke-width:1; stroke:black; " description="&lt;b&gt;input.path1.gene196&lt;/b&gt;&lt;br&gt;input.path1.gene196&lt;br&gt;Location: 653696 - 655202" locus_tag="input.path1.gene196" class="clusterblast-orf" id="dummy-1_q4_0_all"  />
<polygon points="309,35 314,30 332,30 332,40 314,40 309,35 " style="fill:#d89715; stroke-width:1; stroke:black; " description="&lt;b&gt;input.path1.gene197&lt;/b&gt;&lt;br&gt;input.path1.gene197&lt;br&gt;Location: 655377 - 657106" locus_tag="input.path1.gene197" class="clusterblast-orf" id="dummy-1_q5_0_all"  />
<polygon points="365,40 406,40 411,35 406,30 365,30 365,40 " style="fill:#15d897; stroke-width:1; stroke:black; " description="&lt;b&gt;input.path1.gene198&lt;/b&gt;&lt;br&gt;input.path1.gene198&lt;br&gt;Location: 659671 - 663188" locus_tag="input.path1.gene198" class="clusterblast-orf" id="dummy-1_q6_0_all"  />
<polygon points="429,35 434,30 460,30 460,40 434,40 429,35 " style="fill:#1515d8; stroke-width:1; stroke:black; " description="&lt;b&gt;input.path1.gene199&lt;/b&gt;&lt;br&gt;input.path1.gene199&lt;br&gt;Location: 664561 - 666959" locus_tag="input.path1.gene199" class="clusterblast-orf" id="dummy-1_q7_0_all"  />
<polygon points="468,35 473,30 553,30 553,40 473,40 468,35 " style="fill:#d81597; stroke-width:1; stroke:black; " description="&lt;b&gt;input.path1.gene200&lt;/b&gt;&lt;br&gt;input.path1.gene200&lt;br&gt;Location: 667548 - 674100" locus_tag="input.path1.gene200" class="clusterblast-orf" id="dummy-1_q8_0_all"  />
<polygon points="562,35 567,30 572,30 572,40 567,40 562,35 " style="fill:#97d815; stroke-width:1; stroke:black; " description="&lt;b&gt;input.path1.gene201&lt;/b&gt;&lt;br&gt;input.path1.gene201&lt;br&gt;Location: 674786 - 675527" locus_tag="input.path1.gene201" class="clusterblast-orf" id="dummy-1_q9_0_all"  />
<polygon points="644,40 657,40 662,35 657,30 644,30 644,40 " style="fill:white; stroke-width:1; stroke:black; " description="&lt;b&gt;input.path1.gene202&lt;/b&gt;&lt;br&gt;input.path1.gene202&lt;br&gt;Location: 681042 - 682413" locus_tag="input.path1.gene202" class="clusterblast-orf" id="dummy-1_q10_0_all"  />
</g>
<g label="NW_014574715" description="NW_014574715 (467040-529181): Metarhizium brunneum ARSEF 3297 chromosome Unkn... (50% of genes show similarity), isocyanide" class="clusterblast-cluster"  >
<text x="5" y="70" class="clusterblast-acc"  >
<a xlink:href="https://antismash-db.secondarymetabolites.org/area?record=NW_014574715&amp;start=467040&amp;end=529181" target="_blank">NW_014574715 (467040-529181)</a>: Metarhizium brunneum ARSEF 3297 chromosome Unkn... (50% of genes show similarity), isocyanide</text>
<line x1="10" y1="85" x2="778.0" y2="85" style="stroke-width:1; stroke:grey; "  />
</g>
<g id="a1_000"  >
<polygon points="0,85 5,80 16,80 16,90 5,90 0,85 " style="fill:#15d815; stroke-width:1; stroke:black; " description="&lt;b&gt;MBR_02250&lt;/b&gt;&lt;br&gt;NAD(P)-binding domain protein&lt;br&gt;Location: 527689 - 526415&lt;br&gt;&lt;br&gt;&lt;b&gt;BlastP hit with input.path1.gene194&lt;/b&gt;&lt;br&gt;Percentage identity: 67&lt;br&gt;Percentage coverage: 35&lt;br&gt;BLAST bit score: 147&lt;br&gt;E-value: 2.85e-40" locus_tag="MBR_02250" class="clusterblast-orf" id="dummy-1_h1_1_0"  />
</g>
<g id="a1_001"  >
<polygon points="30,90 57,90 62,85 57,80 30,80 30,90 " style="fill:white; stroke-width:1; stroke:black; " description="&lt;b&gt;MBR_02249&lt;/b&gt;&lt;br&gt;Glycoside hydrolase, family 31&lt;br&gt;Location: 525358 - 522893" locus_tag="MBR_02249" class="clusterblast-orf" id="dummy-1_h1_1_1"  />
</g>
<g id="a1_002"  >
<polygon points="72,90 90,90 95,85 90,80 72,80 72,90 " style="fill:#1597d8; stroke-width:1; stroke:black; " description="&lt;b&gt;MBR_02248&lt;/b&gt;&lt;br&gt;extracelular serine carboxypeptidase&lt;br&gt;Location: 522109 - 520367&lt;br&gt;&lt;br&gt;&lt;b&gt;BlastP hit with input.path1.gene195&lt;/b&gt;&lt;br&gt;Percentage identity: 53&lt;br&gt;Percentage coverage: 92&lt;br&gt;BLAST bit score: 537&lt;br&gt;E-value: 3.99e-185" locus_tag="MBR_02248" class="clusterblast-orf" id="dummy-1_h1_1_2"  />
</g>
<g id="a1_003"  >
<polygon points="132,90 141,90 146,85 141,80 132,80 132,90 " style="fill:white; stroke-width:1; stroke:black; " description="&lt;b&gt;MBR_02247&lt;/b&gt;&lt;br&gt;GPI anchored cell wall protein&lt;br&gt;Location: 517506 - 516482" locus_tag="MBR_02247" class="clusterblast-orf" id="dummy-1_h1_1_3"  />
</g>
<g id="a1_004"  >
<polygon points="168,90 176,90 181,85 176,80 168,80 168,90 " style="fill:white; stroke-width:1; stroke:black; " description="&lt;b&gt;MBR_02246&lt;/b&gt;&lt;br&gt;hypothetical protein&lt;br&gt;Location: 514785 - 513763" locus_tag="MBR_02246" class="clusterblast-orf" id="dummy-1_h1_1_4"  />
</g>
<g id="a1_005"  >
<polygon points="192,90 215,90 220,85 215,80 192,80 192,90 " style="fill:white; stroke-width:1; stroke:black; " description="&lt;b&gt;MBR_02245&lt;/b&gt;&lt;br&gt;Heterokaryon incompatibility&lt;br&gt;Location: 512965 - 510782" locus_tag="MBR_02245" class="clusterblast-orf" id="dummy-1_h1_1_5"  />
</g>
<g id="a1_006"  >
<polygon points="233,90 240,90 245,85 240,80 233,80 233,90 " style="fill:white; stroke-width:1; stroke:black; " description="&lt;b&gt;MBR_02244&lt;/b&gt;&lt;br&gt;hypothetical protein&lt;br&gt;Location: 509788 - 508853" locus_tag="MBR_02244" class="clusterblast-orf" id="dummy-1_h1_1_6"  />
</g>
<g id="a1_007"  >
<polygon points="257,90 260,90 265,85 260,80 257,80 257,90 " style="fill:#9715d8; stroke-width:1; stroke:black; " description="&lt;b&gt;MBR_02243&lt;/b&gt;&lt;br&gt;hypothetical protein&lt;br&gt;Location: 507934 - 507320&lt;br&gt;&lt;br&gt;&lt;b&gt;BlastP hit with input.path1.gene196&lt;/b&gt;&lt;br&gt;Percentage identity: 35&lt;br&gt;Percentage coverage: 58&lt;br&gt;BLAST bit score: 107&lt;br&gt;E-value: 3.51e-25" locus_tag="MBR_02243" class="clusterblast-orf" id="dummy-1_h1_1_7"  />
</g>
<g id="a1_008"  >
<polygon points="319,85 324,80 344,80 344,90 324,90 319,85 " style="fill:#d89715; stroke-width:1; stroke:black; " description="&lt;b&gt;MBR_02242&lt;/b&gt;&lt;br&gt;FAD binding domain containing protein&lt;br&gt;Location: 503186 - 501284&lt;br&gt;&lt;br&gt;&lt;b&gt;BlastP hit with input.path1.gene197&lt;/b&gt;&lt;br&gt;Percentage identity: 68&lt;br&gt;Percentage coverage: 99&lt;br&gt;BLAST bit score: 691&lt;br&gt;E-value: 4.85e-247" locus_tag="MBR_02242" class="clusterblast-orf" id="dummy-1_h1_1_8"  />
</g>
<g id="a1_009"  >
<polygon points="371,90 394,90 399,85 394,80 371,80 371,90 " style="fill:#15d897; stroke-width:1; stroke:black; " description="&lt;b&gt;MBR_02241&lt;/b&gt;&lt;br&gt;Pyoverdine biosynthesis&lt;br&gt;Location: 499181 - 497041&lt;br&gt;&lt;br&gt;&lt;b&gt;BlastP hit with input.path1.gene198&lt;/b&gt;&lt;br&gt;Percentage identity: 68&lt;br&gt;Percentage coverage: 69&lt;br&gt;BLAST bit score: 901&lt;br&gt;E-value: 0.0" locus_tag="MBR_02241" class="clusterblast-orf" id="dummy-1_h1_1_9"  />
</g>
<g id="a1_0010"  >
<polygon points="414,90 433,90 438,85 433,80 414,80 414,90 " style="fill:#15d897; stroke-width:1; stroke:black; " description="&lt;b&gt;MBR_02240&lt;/b&gt;&lt;br&gt;hypothetical protein&lt;br&gt;Location: 495939 - 494069&lt;br&gt;&lt;br&gt;&lt;b&gt;BlastP hit with input.path1.gene198&lt;/b&gt;&lt;br&gt;Percentage identity: 65&lt;br&gt;Percentage coverage: 12&lt;br&gt;BLAST bit score: 155&lt;br&gt;E-value: 1.12e-37" locus_tag="MBR_02240" class="clusterblast-orf" id="dummy-1_h1_1_10"  />
</g>
<g id="a1_0011"  >
<polygon points="440,85 445,80 472,80 472,90 445,90 440,85 " style="fill:#1515d8; stroke-width:1; stroke:black; " description="&lt;b&gt;MBR_02239&lt;/b&gt;&lt;br&gt;DNA/RNA helicase, DEAD/DEAH box type&lt;br&gt;Location: 493893 - 491452&lt;br&gt;&lt;br&gt;&lt;b&gt;BlastP hit with input.path1.gene199&lt;/b&gt;&lt;br&gt;Percentage identity: 57&lt;br&gt;Percentage coverage: 107&lt;br&gt;BLAST bit score: 767&lt;br&gt;E-value: 4.34e-269" locus_tag="MBR_02239" class="clusterblast-orf" id="dummy-1_h1_1_11"  />
</g>
<g id="a1_0012"  >
<polygon points="480,85 485,80 561,80 561,90 485,90 480,85 " style="fill:#d81597; stroke-width:1; stroke:black; " description="&lt;b&gt;MBR_02238&lt;/b&gt;&lt;br&gt;filament-forming protein&lt;br&gt;Location: 490833 - 484619&lt;br&gt;&lt;br&gt;&lt;b&gt;BlastP hit with input.path1.gene200&lt;/b&gt;&lt;br&gt;Percentage identity: 58&lt;br&gt;Percentage coverage: 102&lt;br&gt;BLAST bit score: 1664&lt;br&gt;E-value: 0.0" locus_tag="MBR_02238" class="clusterblast-orf" id="dummy-1_h1_1_12"  />
</g>
<g id="a1_0013"  >
<polygon points="581,85 586,80 589,80 589,90 586,90 581,85 " style="fill:#97d815; stroke-width:1; stroke:black; " description="&lt;b&gt;MBR_02237&lt;/b&gt;&lt;br&gt;hypothetical protein&lt;br&gt;Location: 483135 - 482521&lt;br&gt;&lt;br&gt;&lt;b&gt;BlastP hit with input.path1.gene201&lt;/b&gt;&lt;br&gt;Percentage identity: 51&lt;br&gt;Percentage coverage: 42&lt;br&gt;BLAST bit score: 89&lt;br&gt;E-value: 1.38e-19" locus_tag="MBR_02237" class="clusterblast-orf" id="dummy-1_h1_1_13"  />
</g>
<g id="a1_0014"  >
<polygon points="687,90 697,90 702,85 697,80 687,80 687,90 " style="fill:white; stroke-width:1; stroke:black; " description="&lt;b&gt;MBR_02236&lt;/b&gt;&lt;br&gt;hypothetical protein&lt;br&gt;Location: 475002 - 473863" locus_tag="MBR_02236" class="clusterblast-orf" id="dummy-1_h1_1_14"  />
</g>
<g id="a1_0015"  >
<polygon points="712,85 717,80 717,80 717,90 717,90 712,85 " style="fill:white; stroke-width:1; stroke:black; " description="&lt;b&gt;MBR_02235&lt;/b&gt;&lt;br&gt;hypothetical protein&lt;br&gt;Location: 473092 - 472688" locus_tag="MBR_02235" class="clusterblast-orf" id="dummy-1_h1_1_15"  />
</g>
<g id="a1_0016"  >
<polygon points="750,90 758,90 763,85 758,80 750,80 750,90 " style="fill:white; stroke-width:1; stroke:black; " description="&lt;b&gt;MBR_02234&lt;/b&gt;&lt;br&gt;hypothetical protein&lt;br&gt;Location: 470188 - 469143" locus_tag="MBR_02234" class="clusterblast-orf" id="dummy-1_h1_1_16"  />
</g>
<g id="a1_0017"  >
<polygon points="772,90 775,90 780,85 775,80 772,80 772,90 " style="fill:white; stroke-width:1; stroke:black; " description="&lt;b&gt;MBR_02233&lt;/b&gt;&lt;br&gt;hypothetical protein&lt;br&gt;Location: 468499 - 467893" locus_tag="MBR_02233" class="clusterblast-orf" id="dummy-1_h1_1_17"  />
</g>
</svg>
