<svg xmlns="http://www.w3.org/2000/svg" xmlns:xlink="http://www.w3.org/1999/xlink" version="1.1" x="0" y="0" height="230" width="800" viewBox="0 0 800 230" preserveAspectRatio="none"  >
<g label="Query sequence" class="clusterblast-cluster"  >
<text x="5" y="20" class="clusterblast-acc"  >
Query sequence</text>
<line x1="10" y1="35" x2="778.0" y2="35" style="stroke-width:1; stroke:grey; "  />
<polygon points="149,40 181,40 186,35 181,30 149,30 149,40 " style="fill:#d81515; stroke-width:1; stroke:black; " description="&lt;b&gt;input.path1.gene1834&lt;/b&gt;&lt;br&gt;input.path1.gene1834&lt;br&gt;Location: 6764162 - 6767213" locus_tag="input.path1.gene1834" class="clusterblast-orf" id="dummy-5_q0_0_all"  />
<polygon points="209,35 214,30 230,30 230,40 214,40 209,35 " style="fill:#77d815; stroke-width:1; stroke:black; " description="&lt;b&gt;input.path1.gene1835&lt;/b&gt;&lt;br&gt;input.path1.gene1835&lt;br&gt;Location: 6769037 - 6770734" locus_tag="input.path1.gene1835" class="clusterblast-orf" id="dummy-5_q1_0_all"  />
<polygon points="242,40 246,40 251,35 246,30 242,30 242,40 " style="fill:#15d8d8; stroke-width:1; stroke:black; " description="&lt;b&gt;input.path1.gene1836&lt;/b&gt;&lt;br&gt;input.path1.gene1836&lt;br&gt;Location: 6771689 - 6772421" locus_tag="input.path1.gene1836" class="clusterblast-orf" id="dummy-5_q2_0_all"  />
<polygon points="256,35 261,30 262,30 262,40 261,40 256,35 " style="fill:white; stroke-width:1; stroke:black; " description="&lt;b&gt;input.path1.gene1837&lt;/b&gt;&lt;br&gt;input.path1.gene1837&lt;br&gt;Location: 6772836 - 6773361" locus_tag="input.path1.gene1837" class="clusterblast-orf" id="dummy-5_q3_0_all"  />
<polygon points="291,35 296,30 305,30 305,40 296,40 291,35 " style="fill:#d81515; stroke-width:1; stroke:black; " description="&lt;b&gt;input.path1.gene1838&lt;/b&gt;&lt;br&gt;input.path1.gene1838&lt;br&gt;Location: 6775703 - 6776846" locus_tag="input.path1.gene1838" class="clusterblast-orf" id="dummy-5_q4_0_all"  />
<polygon points="328,40 473,40 478,35 473,30 328,30 328,40 " style="fill:#7715d8; stroke-width:1; stroke:black; " description="&lt;b&gt;input.path1.gene1839&lt;/b&gt;&lt;br&gt;input.path1.gene1839&lt;br&gt;Location: 6778691 - 6790847" locus_tag="input.path1.gene1839" class="clusterblast-orf" id="dummy-5_q5_0_all"  />
<polygon points="621,35 626,30 630,30 630,40 626,40 621,35 " style="fill:white; stroke-width:1; stroke:black; " description="&lt;b&gt;input.path1.gene1840&lt;/b&gt;&lt;br&gt;input.path1.gene1840&lt;br&gt;Location: 6802445 - 6803207" locus_tag="input.path1.gene1840" class="clusterblast-orf" id="dummy-5_q6_0_all"  />
</g>
<g label="NC_058401" description="NC_058401 (6944571-7016506): Fusarium poae strain DAOMC 252244 chromosome 3, ... (15% of genes show similarity), NRPS,T1PKS" class="clusterblast-cluster"  >
<text x="5" y="70" class="clusterblast-acc"  >
<a xlink:href="https://antismash-db.secondarymetabolites.org/area?record=NC_058401&amp;start=6944571&amp;end=7016506" target="_blank">NC_058401 (6944571-7016506)</a>: Fusarium poae strain DAOMC 252244 chromosome 3, ... (15% of genes show similarity), NRPS,T1PKS</text>
<line x1="10" y1="85" x2="778.0" y2="85" style="stroke-width:1; stroke:grey; "  />
</g>
<g id="a5_000"  >
<polygon points="0,90 36,90 41,85 36,80 0,80 0,90 " style="fill:white; stroke-width:1; stroke:black; " description="&lt;b&gt;FPOAC1_009740&lt;/b&gt;&lt;br&gt;hypothetical protein&lt;br&gt;Location: 7009066 - 7005706" locus_tag="FPOAC1_009740" class="clusterblast-orf" id="dummy-5_h5_7_0"  />
</g>
<g id="a5_001"  >
<polygon points="54,90 54,90 59,85 54,80 54,80 54,90 " style="fill:white; stroke-width:1; stroke:black; " description="&lt;b&gt;FPOAC1_009739&lt;/b&gt;&lt;br&gt;hypothetical protein&lt;br&gt;Location: 7004641 - 7004210" locus_tag="FPOAC1_009739" class="clusterblast-orf" id="dummy-5_h5_7_1"  />
</g>
<g id="a5_002"  >
<polygon points="65,85 70,80 73,80 73,90 70,90 65,85 " style="fill:white; stroke-width:1; stroke:black; " description="&lt;b&gt;FPOAC1_009738&lt;/b&gt;&lt;br&gt;hypothetical protein&lt;br&gt;Location: 7003753 - 7003142" locus_tag="FPOAC1_009738" class="clusterblast-orf" id="dummy-5_h5_7_2"  />
</g>
<g id="a5_003"  >
<polygon points="81,85 86,80 91,80 91,90 86,90 81,85 " style="fill:white; stroke-width:1; stroke:black; " description="&lt;b&gt;FPOAC1_009737&lt;/b&gt;&lt;br&gt;hypothetical protein&lt;br&gt;Location: 7002443 - 7001641" locus_tag="FPOAC1_009737" class="clusterblast-orf" id="dummy-5_h5_7_3"  />
</g>
<g id="a5_004"  >
<polygon points="113,85 118,80 133,80 133,90 118,90 113,85 " style="fill:white; stroke-width:1; stroke:black; " description="&lt;b&gt;FPOAC1_009736&lt;/b&gt;&lt;br&gt;hypothetical protein&lt;br&gt;Location: 6999835 - 6998252" locus_tag="FPOAC1_009736" class="clusterblast-orf" id="dummy-5_h5_7_4"  />
</g>
<g id="a5_005"  >
<polygon points="154,90 173,90 178,85 173,80 154,80 154,90 " style="fill:white; stroke-width:1; stroke:black; " description="&lt;b&gt;FPOAC1_009735&lt;/b&gt;&lt;br&gt;hypothetical protein&lt;br&gt;Location: 6996540 - 6994562" locus_tag="FPOAC1_009735" class="clusterblast-orf" id="dummy-5_h5_7_5"  />
</g>
<g id="a5_006"  >
<polygon points="180,85 185,80 194,80 194,90 185,90 180,85 " style="fill:#d81515; stroke-width:1; stroke:black; " description="&lt;b&gt;FPOAC1_009734&lt;/b&gt;&lt;br&gt;hypothetical protein&lt;br&gt;Location: 6994435 - 6993323&lt;br&gt;&lt;br&gt;&lt;b&gt;BlastP hit with input.path1.gene1834&lt;/b&gt;&lt;br&gt;Percentage identity: 39&lt;br&gt;Percentage coverage: 58&lt;br&gt;BLAST bit score: 213&lt;br&gt;E-value: 2.24e-61" locus_tag="FPOAC1_009734" class="clusterblast-orf" id="dummy-5_h5_7_6"  />
</g>
<g id="a5_007"  >
<polygon points="249,85 254,80 262,80 262,90 254,90 249,85 " style="fill:#d81515; stroke-width:1; stroke:black; " description="&lt;b&gt;FPOAC1_009733&lt;/b&gt;&lt;br&gt;hypothetical protein&lt;br&gt;Location: 6988868 - 6987753&lt;br&gt;&lt;br&gt;&lt;b&gt;BlastP hit with input.path1.gene1838&lt;/b&gt;&lt;br&gt;Percentage identity: 31&lt;br&gt;Percentage coverage: 204&lt;br&gt;BLAST bit score: 145&lt;br&gt;E-value: 2.3e-40" locus_tag="FPOAC1_009733" class="clusterblast-orf" id="dummy-5_h5_7_7"  />
</g>
<g id="a5_008"  >
<polygon points="278,90 420,90 425,85 420,80 278,80 278,90 " style="fill:#7715d8; stroke-width:1; stroke:black; " description="&lt;b&gt;FPOAC1_009732&lt;/b&gt;&lt;br&gt;hypothetical protein&lt;br&gt;Location: 6986506 - 6974572&lt;br&gt;&lt;br&gt;&lt;b&gt;BlastP hit with input.path1.gene1839&lt;/b&gt;&lt;br&gt;Percentage identity: 59&lt;br&gt;Percentage coverage: 100&lt;br&gt;BLAST bit score: 4694&lt;br&gt;E-value: 0.0" locus_tag="FPOAC1_009732" class="clusterblast-orf" id="dummy-5_h5_7_8"  />
</g>
<g id="a5_009"  >
<polygon points="521,90 523,90 528,85 523,80 521,80 521,90 " style="fill:white; stroke-width:1; stroke:black; " description="&lt;b&gt;FPOAC1_009731&lt;/b&gt;&lt;br&gt;hypothetical protein&lt;br&gt;Location: 6966757 - 6966242" locus_tag="FPOAC1_009731" class="clusterblast-orf" id="dummy-5_h5_7_9"  />
</g>
<g id="a5_0010"  >
<polygon points="531,90 532,90 537,85 532,80 531,80 531,90 " style="fill:white; stroke-width:1; stroke:black; " description="&lt;b&gt;FPOAC1_009730&lt;/b&gt;&lt;br&gt;hypothetical protein&lt;br&gt;Location: 6965983 - 6965523" locus_tag="FPOAC1_009730" class="clusterblast-orf" id="dummy-5_h5_7_10"  />
</g>
<g id="a5_0011"  >
<polygon points="554,85 559,80 582,80 582,90 559,90 554,85 " style="fill:white; stroke-width:1; stroke:black; " description="&lt;b&gt;FPOAC1_009729&lt;/b&gt;&lt;br&gt;hypothetical protein&lt;br&gt;Location: 6964113 - 6961884" locus_tag="FPOAC1_009729" class="clusterblast-orf" id="dummy-5_h5_7_11"  />
</g>
<g id="a5_0012"  >
<polygon points="596,90 617,90 622,85 617,80 596,80 596,90 " style="fill:white; stroke-width:1; stroke:black; " description="&lt;b&gt;FPOAC1_009728&lt;/b&gt;&lt;br&gt;hypothetical protein&lt;br&gt;Location: 6960727 - 6958586" locus_tag="FPOAC1_009728" class="clusterblast-orf" id="dummy-5_h5_7_12"  />
</g>
<g id="a5_0013"  >
<polygon points="627,90 632,90 637,85 632,80 627,80 627,90 " style="fill:white; stroke-width:1; stroke:black; " description="&lt;b&gt;FPOAC1_009727&lt;/b&gt;&lt;br&gt;hypothetical protein&lt;br&gt;Location: 6958236 - 6957432" locus_tag="FPOAC1_009727" class="clusterblast-orf" id="dummy-5_h5_7_13"  />
</g>
<g id="a5_0014"  >
<polygon points="642,90 663,90 668,85 663,80 642,80 642,90 " style="fill:white; stroke-width:1; stroke:black; " description="&lt;b&gt;FPOAC1_009726&lt;/b&gt;&lt;br&gt;hypothetical protein&lt;br&gt;Location: 6957001 - 6954914" locus_tag="FPOAC1_009726" class="clusterblast-orf" id="dummy-5_h5_7_14"  />
</g>
<g id="a5_0015"  >
<polygon points="671,90 686,90 691,85 686,80 671,80 671,90 " style="fill:white; stroke-width:1; stroke:black; " description="&lt;b&gt;FPOAC1_009725&lt;/b&gt;&lt;br&gt;hypothetical protein&lt;br&gt;Location: 6954654 - 6953041" locus_tag="FPOAC1_009725" class="clusterblast-orf" id="dummy-5_h5_7_15"  />
</g>
<g id="a5_0016"  >
<polygon points="694,90 700,90 705,85 700,80 694,80 694,90 " style="fill:white; stroke-width:1; stroke:black; " description="&lt;b&gt;FPOAC1_009724&lt;/b&gt;&lt;br&gt;hypothetical protein&lt;br&gt;Location: 6952801 - 6951842" locus_tag="FPOAC1_009724" class="clusterblast-orf" id="dummy-5_h5_7_16"  />
</g>
<g id="a5_0017"  >
<polygon points="711,90 735,90 740,85 735,80 711,80 711,90 " style="fill:white; stroke-width:1; stroke:black; " description="&lt;b&gt;FPOAC1_009723&lt;/b&gt;&lt;br&gt;hypothetical protein&lt;br&gt;Location: 6951411 - 6949072" locus_tag="FPOAC1_009723" class="clusterblast-orf" id="dummy-5_h5_7_17"  />
</g>
<g id="a5_0018"  >
<polygon points="762,90 775,90 780,85 775,80 762,80 762,90 " style="fill:white; stroke-width:1; stroke:black; " description="&lt;b&gt;FPOAC1_009722&lt;/b&gt;&lt;br&gt;hypothetical protein&lt;br&gt;Location: 6947287 - 6945843" locus_tag="FPOAC1_009722" class="clusterblast-orf" id="dummy-5_h5_7_18"  />
</g>
</svg>
