<svg xmlns="http://www.w3.org/2000/svg" xmlns:xlink="http://www.w3.org/1999/xlink" version="1.1" x="0" y="0" height="230" width="800" viewBox="0 0 800 230" preserveAspectRatio="none"  >
<g label="Query sequence" class="clusterblast-cluster"  >
<text x="5" y="20" class="clusterblast-acc"  >
Query sequence</text>
<line x1="10" y1="35" x2="778.0" y2="35" style="stroke-width:1; stroke:grey; "  />
<polygon points="332,35 336,30 336,40 332,35 " style="fill:#d81515; stroke-width:1; stroke:black; " description="&lt;b&gt;input.path1.gene737&lt;/b&gt;&lt;br&gt;input.path1.gene737&lt;br&gt;Location: 2576170 - 2576947" locus_tag="input.path1.gene737" class="clusterblast-orf" id="dummy-5_q0_0_all"  />
<polygon points="346,35 351,30 356,30 356,40 351,40 346,35 " style="fill:#4dd815; stroke-width:1; stroke:black; " description="&lt;b&gt;input.path1.gene738&lt;/b&gt;&lt;br&gt;input.path1.gene738&lt;br&gt;Location: 2579294 - 2581254" locus_tag="input.path1.gene738" class="clusterblast-orf" id="dummy-5_q1_0_all"  />
<polygon points="358,40 359,40 364,35 359,30 358,30 358,40 " style="fill:#1585d8; stroke-width:1; stroke:black; " description="&lt;b&gt;input.path1.gene739&lt;/b&gt;&lt;br&gt;input.path1.gene739&lt;br&gt;Location: 2581716 - 2582967" locus_tag="input.path1.gene739" class="clusterblast-orf" id="dummy-5_q2_0_all"  />
<polygon points="366,35 371,30 378,30 378,40 371,40 366,35 " style="fill:#d815bc; stroke-width:1; stroke:black; " description="&lt;b&gt;input.path1.gene740&lt;/b&gt;&lt;br&gt;input.path1.gene740&lt;br&gt;Location: 2583437 - 2586034" locus_tag="input.path1.gene740" class="clusterblast-orf" id="dummy-5_q3_0_all"  />
<polygon points="385,35 390,30 401,30 401,40 390,40 385,35 " style="fill:#d8bc15; stroke-width:1; stroke:black; " description="&lt;b&gt;input.path1.gene741&lt;/b&gt;&lt;br&gt;input.path1.gene741&lt;br&gt;Location: 2587473 - 2590945" locus_tag="input.path1.gene741" class="clusterblast-orf" id="dummy-5_q4_0_all"  />
<polygon points="407,40 411,40 416,35 411,30 407,30 407,40 " style="fill:#15d885; stroke-width:1; stroke:black; " description="&lt;b&gt;input.path1.gene742&lt;/b&gt;&lt;br&gt;input.path1.gene742&lt;br&gt;Location: 2592241 - 2594176" locus_tag="input.path1.gene742" class="clusterblast-orf" id="dummy-5_q5_0_all"  />
<polygon points="423,35 428,30 447,30 447,40 428,40 423,35 " style="fill:#4d15d8; stroke-width:1; stroke:black; " description="&lt;b&gt;input.path1.gene743&lt;/b&gt;&lt;br&gt;input.path1.gene743&lt;br&gt;Location: 2595664 - 2600804" locus_tag="input.path1.gene743" class="clusterblast-orf" id="dummy-5_q6_0_all"  />
</g>
<g label="NW_022983475" description="NW_022983475 (3242860-3411070): Aaosphaeria arxii CBS 175.79 unplaced genomic... (4% of genes show similarity), NRP-metallophore,NRPS,fungal-RiPP-like" class="clusterblast-cluster"  >
<text x="5" y="70" class="clusterblast-acc"  >
<a xlink:href="https://antismash-db.secondarymetabolites.org/area?record=NW_022983475&amp;start=3242860&amp;end=3411070" target="_blank">NW_022983475 (3242860-3411070)</a>: Aaosphaeria arxii CBS 175.79 unplaced genomic... (4% of genes show similarity), NRP-metallophore,NRPS,fungal-RiPP-like</text>
<line x1="10" y1="85" x2="778.0" y2="85" style="stroke-width:1; stroke:grey; "  />
</g>
<g id="a5_000"  >
<polygon points="0,90 3,85 0,80 0,90 " style="fill:white; stroke-width:1; stroke:black; " description="&lt;b&gt;BU24DRAFT_125719&lt;/b&gt;&lt;br&gt;DNA binding methylated-DNA--cysteine S-methyltransferase&lt;br&gt;Location: 3410832 - 3410155" locus_tag="BU24DRAFT_125719" class="clusterblast-orf" id="dummy-5_h5_8_0"  />
</g>
<g id="a5_001"  >
<polygon points="12,90 15,85 12,80 12,90 " style="fill:white; stroke-width:1; stroke:black; " description="&lt;b&gt;BU24DRAFT_125784&lt;/b&gt;&lt;br&gt;uncharacterized protein&lt;br&gt;Location: 3408098 - 3407526" locus_tag="BU24DRAFT_125784" class="clusterblast-orf" id="dummy-5_h5_8_1"  />
</g>
<g id="a5_002"  >
<polygon points="20,90 21,90 26,85 21,80 20,80 20,90 " style="fill:white; stroke-width:1; stroke:black; " description="&lt;b&gt;BU24DRAFT_419336&lt;/b&gt;&lt;br&gt;alpha/beta-hydrolase&lt;br&gt;Location: 3406521 - 3405244" locus_tag="BU24DRAFT_419336" class="clusterblast-orf" id="dummy-5_h5_8_2"  />
</g>
<g id="a5_003"  >
<polygon points="29,85 34,80 37,80 37,90 34,90 29,85 " style="fill:white; stroke-width:1; stroke:black; " description="&lt;b&gt;BU24DRAFT_489614&lt;/b&gt;&lt;br&gt;uncharacterized protein&lt;br&gt;Location: 3404512 - 3402775" locus_tag="BU24DRAFT_489614" class="clusterblast-orf" id="dummy-5_h5_8_3"  />
</g>
<g id="a5_004"  >
<polygon points="38,85 43,80 45,80 45,90 43,90 38,85 " style="fill:#4d15d8; stroke-width:1; stroke:black; " description="&lt;b&gt;BU24DRAFT_386775&lt;/b&gt;&lt;br&gt;Actin/actin-like protein&lt;br&gt;Location: 3402538 - 3401104&lt;br&gt;&lt;br&gt;&lt;b&gt;BlastP hit with input.path1.gene743&lt;/b&gt;&lt;br&gt;Percentage identity: 46&lt;br&gt;Percentage coverage: 30&lt;br&gt;BLAST bit score: 399&lt;br&gt;E-value: 2.08e-123" locus_tag="BU24DRAFT_386775" class="clusterblast-orf" id="dummy-5_h5_8_4"  />
</g>
<g id="a5_005"  >
<polygon points="54,90 59,90 64,85 59,80 54,80 54,90 " style="fill:white; stroke-width:1; stroke:black; " description="&lt;b&gt;BU24DRAFT_439729&lt;/b&gt;&lt;br&gt;fungal trichothecene efflux pump&lt;br&gt;Location: 3399141 - 3397023" locus_tag="BU24DRAFT_439729" class="clusterblast-orf" id="dummy-5_h5_8_5"  />
</g>
<g id="a5_006"  >
<polygon points="67,85 72,80 92,80 92,90 72,90 67,85 " style="fill:white; stroke-width:1; stroke:black; " description="&lt;b&gt;BU24DRAFT_489611&lt;/b&gt;&lt;br&gt;uncharacterized protein&lt;br&gt;Location: 3396347 - 3391110" locus_tag="BU24DRAFT_489611" class="clusterblast-orf" id="dummy-5_h5_8_6"  />
</g>
<g id="a5_007"  >
<polygon points="97,90 101,90 106,85 101,80 97,80 97,90 " style="fill:#4dd815; stroke-width:1; stroke:black; " description="&lt;b&gt;BU24DRAFT_439728&lt;/b&gt;&lt;br&gt;glucosidase 2 subunit beta precursor&lt;br&gt;Location: 3389976 - 3388122&lt;br&gt;&lt;br&gt;&lt;b&gt;BlastP hit with input.path1.gene738&lt;/b&gt;&lt;br&gt;Percentage identity: 48&lt;br&gt;Percentage coverage: 96&lt;br&gt;BLAST bit score: 490&lt;br&gt;E-value: 1.54e-166" locus_tag="BU24DRAFT_439728" class="clusterblast-orf" id="dummy-5_h5_8_7"  />
</g>
<g id="a5_008"  >
<polygon points="133,90 146,90 151,85 146,80 133,80 133,90 " style="fill:white; stroke-width:1; stroke:black; " description="&lt;b&gt;BU24DRAFT_342923&lt;/b&gt;&lt;br&gt;uncharacterized protein&lt;br&gt;Location: 3382362 - 3378457" locus_tag="BU24DRAFT_342923" class="clusterblast-orf" id="dummy-5_h5_8_8"  />
</g>
<g id="a5_009"  >
<polygon points="168,90 171,85 168,80 168,90 " style="fill:white; stroke-width:1; stroke:black; " description="&lt;b&gt;BU24DRAFT_419326&lt;/b&gt;&lt;br&gt;uncharacterized protein&lt;br&gt;Location: 3374782 - 3374221" locus_tag="BU24DRAFT_419326" class="clusterblast-orf" id="dummy-5_h5_8_9"  />
</g>
<g id="a5_0010"  >
<polygon points="173,85 178,80 178,80 178,90 178,90 173,85 " style="fill:white; stroke-width:1; stroke:black; " description="&lt;b&gt;BU24DRAFT_365350&lt;/b&gt;&lt;br&gt;uncharacterized protein&lt;br&gt;Location: 3373811 - 3372681" locus_tag="BU24DRAFT_365350" class="clusterblast-orf" id="dummy-5_h5_8_10"  />
</g>
<g id="a5_0011"  >
<polygon points="181,90 187,90 192,85 187,80 181,80 181,90 " style="fill:white; stroke-width:1; stroke:black; " description="&lt;b&gt;BU24DRAFT_448137&lt;/b&gt;&lt;br&gt;HET-domain-containing protein&lt;br&gt;Location: 3371984 - 3369782" locus_tag="BU24DRAFT_448137" class="clusterblast-orf" id="dummy-5_h5_8_11"  />
</g>
<g id="a5_0012"  >
<polygon points="193,85 198,80 201,80 201,90 198,90 193,85 " style="fill:white; stroke-width:1; stroke:black; " description="&lt;b&gt;BU24DRAFT_125513&lt;/b&gt;&lt;br&gt;cytochrome P450&lt;br&gt;Location: 3369438 - 3367802" locus_tag="BU24DRAFT_125513" class="clusterblast-orf" id="dummy-5_h5_8_12"  />
</g>
<g id="a5_0013"  >
<polygon points="209,85 211,80 211,90 209,85 " style="fill:white; stroke-width:1; stroke:black; " description="&lt;b&gt;BU24DRAFT_419322&lt;/b&gt;&lt;br&gt;uncharacterized protein&lt;br&gt;Location: 3366070 - 3365765" locus_tag="BU24DRAFT_419322" class="clusterblast-orf" id="dummy-5_h5_8_13"  />
</g>
<g id="a5_0014"  >
<polygon points="211,85 214,80 214,90 211,85 " style="fill:white; stroke-width:1; stroke:black; " description="&lt;b&gt;BU24DRAFT_419321&lt;/b&gt;&lt;br&gt;uncharacterized protein&lt;br&gt;Location: 3365623 - 3365026" locus_tag="BU24DRAFT_419321" class="clusterblast-orf" id="dummy-5_h5_8_14"  />
</g>
<g id="a5_0015"  >
<polygon points="219,85 224,80 228,80 228,90 224,90 219,85 " style="fill:white; stroke-width:1; stroke:black; " description="&lt;b&gt;BU24DRAFT_489603&lt;/b&gt;&lt;br&gt;uncharacterized protein&lt;br&gt;Location: 3363888 - 3361945" locus_tag="BU24DRAFT_489603" class="clusterblast-orf" id="dummy-5_h5_8_15"  />
</g>
<g id="a5_0016"  >
<polygon points="232,85 237,80 241,80 241,90 237,90 232,85 " style="fill:white; stroke-width:1; stroke:black; " description="&lt;b&gt;BU24DRAFT_448133&lt;/b&gt;&lt;br&gt;uncharacterized protein&lt;br&gt;Location: 3361222 - 3359346" locus_tag="BU24DRAFT_448133" class="clusterblast-orf" id="dummy-5_h5_8_16"  />
</g>
<g id="a5_0017"  >
<polygon points="246,90 249,85 246,80 246,90 " style="fill:white; stroke-width:1; stroke:black; " description="&lt;b&gt;BU24DRAFT_419319&lt;/b&gt;&lt;br&gt;uncharacterized protein&lt;br&gt;Location: 3358104 - 3357586" locus_tag="BU24DRAFT_419319" class="clusterblast-orf" id="dummy-5_h5_8_17"  />
</g>
<g id="a5_0018"  >
<polygon points="254,85 259,80 281,80 281,90 259,90 254,85 " style="fill:white; stroke-width:1; stroke:black; " description="&lt;b&gt;BU24DRAFT_125444&lt;/b&gt;&lt;br&gt;uncharacterized protein&lt;br&gt;Location: 3356413 - 3350709" locus_tag="BU24DRAFT_125444" class="clusterblast-orf" id="dummy-5_h5_8_18"  />
</g>
<g id="a5_0019"  >
<polygon points="298,90 323,90 328,85 323,80 298,80 298,90 " style="fill:white; stroke-width:1; stroke:black; " description="&lt;b&gt;BU24DRAFT_341903&lt;/b&gt;&lt;br&gt;beta subunit of fatty acid synthase&lt;br&gt;Location: 3347078 - 3340769" locus_tag="BU24DRAFT_341903" class="clusterblast-orf" id="dummy-5_h5_8_19"  />
</g>
<g id="a5_0020"  >
<polygon points="330,90 332,90 337,85 332,80 330,80 330,90 " style="fill:white; stroke-width:1; stroke:black; " description="&lt;b&gt;BU24DRAFT_125381&lt;/b&gt;&lt;br&gt;uncharacterized protein&lt;br&gt;Location: 3340168 - 3338786" locus_tag="BU24DRAFT_125381" class="clusterblast-orf" id="dummy-5_h5_8_20"  />
</g>
<g id="a5_0021"  >
<polygon points="346,90 346,90 351,85 346,80 346,80 346,90 " style="fill:white; stroke-width:1; stroke:black; " description="&lt;b&gt;BU24DRAFT_419315&lt;/b&gt;&lt;br&gt;uncharacterized protein&lt;br&gt;Location: 3336906 - 3335845" locus_tag="BU24DRAFT_419315" class="clusterblast-orf" id="dummy-5_h5_8_21"  />
</g>
<g id="a5_0022"  >
<polygon points="374,85 379,80 386,80 386,90 379,90 374,85 " style="fill:white; stroke-width:1; stroke:black; " description="&lt;b&gt;BU24DRAFT_341205&lt;/b&gt;&lt;br&gt;uncharacterized protein&lt;br&gt;Location: 3330828 - 3328322" locus_tag="BU24DRAFT_341205" class="clusterblast-orf" id="dummy-5_h5_8_22"  />
</g>
<g id="a5_0023"  >
<polygon points="410,85 415,80 421,80 421,90 415,90 410,85 " style="fill:white; stroke-width:1; stroke:black; " description="&lt;b&gt;BU24DRAFT_406321&lt;/b&gt;&lt;br&gt;actin-like ATPase domain-containing protein&lt;br&gt;Location: 3323174 - 3320771" locus_tag="BU24DRAFT_406321" class="clusterblast-orf" id="dummy-5_h5_8_23"  />
</g>
<g id="a5_0024"  >
<polygon points="423,85 424,80 424,90 423,85 " style="fill:white; stroke-width:1; stroke:black; " description="&lt;b&gt;BU24DRAFT_419310&lt;/b&gt;&lt;br&gt;uncharacterized protein&lt;br&gt;Location: 3320345 - 3320163" locus_tag="BU24DRAFT_419310" class="clusterblast-orf" id="dummy-5_h5_8_24"  />
</g>
<g id="a5_0025"  >
<polygon points="425,90 429,85 425,80 425,90 " style="fill:white; stroke-width:1; stroke:black; " description="&lt;b&gt;BU24DRAFT_448126&lt;/b&gt;&lt;br&gt;uncharacterized protein&lt;br&gt;Location: 3319977 - 3319134" locus_tag="BU24DRAFT_448126" class="clusterblast-orf" id="dummy-5_h5_8_25"  />
</g>
<g id="a5_0026"  >
<polygon points="433,90 436,85 433,80 433,90 " style="fill:white; stroke-width:1; stroke:black; " description="&lt;b&gt;BU24DRAFT_459328&lt;/b&gt;&lt;br&gt;Got1-domain-containing protein&lt;br&gt;Location: 3318292 - 3317599" locus_tag="BU24DRAFT_459328" class="clusterblast-orf" id="dummy-5_h5_8_26"  />
</g>
<g id="a5_0027"  >
<polygon points="438,85 441,80 441,90 438,85 " style="fill:white; stroke-width:1; stroke:black; " description="&lt;b&gt;BU24DRAFT_419307&lt;/b&gt;&lt;br&gt;cytidine deaminase-like protein&lt;br&gt;Location: 3317187 - 3316534" locus_tag="BU24DRAFT_419307" class="clusterblast-orf" id="dummy-5_h5_8_27"  />
</g>
<g id="a5_0028"  >
<polygon points="445,90 449,85 445,80 445,90 " style="fill:white; stroke-width:1; stroke:black; " description="&lt;b&gt;BU24DRAFT_125136&lt;/b&gt;&lt;br&gt;uncharacterized protein&lt;br&gt;Location: 3315716 - 3314944" locus_tag="BU24DRAFT_125136" class="clusterblast-orf" id="dummy-5_h5_8_28"  />
</g>
<g id="a5_0029"  >
<polygon points="460,90 470,90 475,85 470,80 460,80 460,90 " style="fill:white; stroke-width:1; stroke:black; " description="&lt;b&gt;BU24DRAFT_419303&lt;/b&gt;&lt;br&gt;uncharacterized protein&lt;br&gt;Location: 3312511 - 3309256" locus_tag="BU24DRAFT_419303" class="clusterblast-orf" id="dummy-5_h5_8_29"  />
</g>
<g id="a5_0030"  >
<polygon points="484,85 489,80 489,80 489,90 489,90 484,85 " style="fill:white; stroke-width:1; stroke:black; " description="&lt;b&gt;BU24DRAFT_125127&lt;/b&gt;&lt;br&gt;uncharacterized protein&lt;br&gt;Location: 3307389 - 3306382" locus_tag="BU24DRAFT_125127" class="clusterblast-orf" id="dummy-5_h5_8_30"  />
</g>
<g id="a5_0031"  >
<polygon points="497,90 498,90 503,85 498,80 497,80 497,90 " style="fill:white; stroke-width:1; stroke:black; " description="&lt;b&gt;BU24DRAFT_431392&lt;/b&gt;&lt;br&gt;phospho-2-dehydro-3-deoxyheptonate aldolase-like protein&lt;br&gt;Location: 3304615 - 3303395" locus_tag="BU24DRAFT_431392" class="clusterblast-orf" id="dummy-5_h5_8_31"  />
</g>
<g id="a5_0032"  >
<polygon points="507,90 511,85 507,80 507,90 " style="fill:white; stroke-width:1; stroke:black; " description="&lt;b&gt;BU24DRAFT_419299&lt;/b&gt;&lt;br&gt;uncharacterized protein&lt;br&gt;Location: 3302362 - 3301667" locus_tag="BU24DRAFT_419299" class="clusterblast-orf" id="dummy-5_h5_8_32"  />
</g>
<g id="a5_0033"  >
<polygon points="513,90 514,90 519,85 514,80 513,80 513,90 " style="fill:white; stroke-width:1; stroke:black; " description="&lt;b&gt;BU24DRAFT_419298&lt;/b&gt;&lt;br&gt;Mn2+ homeostasis protein-like protein Per1&lt;br&gt;Location: 3301140 - 3299799" locus_tag="BU24DRAFT_419298" class="clusterblast-orf" id="dummy-5_h5_8_33"  />
</g>
<g id="a5_0034"  >
<polygon points="522,85 527,80 598,80 598,90 527,90 522,85 " style="fill:white; stroke-width:1; stroke:black; " description="&lt;b&gt;BU24DRAFT_125073&lt;/b&gt;&lt;br&gt;nonribosomal peptide synthetase-like protein 2&lt;br&gt;Location: 3299284 - 3283040" locus_tag="BU24DRAFT_125073" class="clusterblast-orf" id="dummy-5_h5_8_34"  />
</g>
<g id="a5_0035"  >
<polygon points="607,90 621,90 626,85 621,80 607,80 607,90 " style="fill:white; stroke-width:1; stroke:black; " description="&lt;b&gt;BU24DRAFT_124994&lt;/b&gt;&lt;br&gt;P-loop containing nucleoside triphosphate hydrolase protein&lt;br&gt;Location: 3281178 - 3277054" locus_tag="BU24DRAFT_124994" class="clusterblast-orf" id="dummy-5_h5_8_35"  />
</g>
<g id="a5_0036"  >
<polygon points="638,90 641,90 646,85 641,80 638,80 638,90 " style="fill:white; stroke-width:1; stroke:black; " description="&lt;b&gt;BU24DRAFT_431388&lt;/b&gt;&lt;br&gt;uncharacterized protein&lt;br&gt;Location: 3274556 - 3272861" locus_tag="BU24DRAFT_431388" class="clusterblast-orf" id="dummy-5_h5_8_36"  />
</g>
<g id="a5_0037"  >
<polygon points="654,90 663,90 668,85 663,80 654,80 654,90 " style="fill:white; stroke-width:1; stroke:black; " description="&lt;b&gt;BU24DRAFT_124869&lt;/b&gt;&lt;br&gt;kinase-like protein&lt;br&gt;Location: 3271095 - 3268091" locus_tag="BU24DRAFT_124869" class="clusterblast-orf" id="dummy-5_h5_8_37"  />
</g>
<g id="a5_0038"  >
<polygon points="673,90 681,90 686,85 681,80 673,80 673,90 " style="fill:white; stroke-width:1; stroke:black; " description="&lt;b&gt;BU24DRAFT_419286&lt;/b&gt;&lt;br&gt;uncharacterized protein&lt;br&gt;Location: 3266923 - 3264182" locus_tag="BU24DRAFT_419286" class="clusterblast-orf" id="dummy-5_h5_8_38"  />
</g>
<g id="a5_0039"  >
<polygon points="687,85 689,80 689,90 687,85 " style="fill:white; stroke-width:1; stroke:black; " description="&lt;b&gt;BU24DRAFT_124873&lt;/b&gt;&lt;br&gt;uncharacterized protein&lt;br&gt;Location: 3263962 - 3263546" locus_tag="BU24DRAFT_124873" class="clusterblast-orf" id="dummy-5_h5_8_39"  />
</g>
<g id="a5_0040"  >
<polygon points="693,85 698,80 700,80 700,90 698,90 693,85 " style="fill:white; stroke-width:1; stroke:black; " description="&lt;b&gt;BU24DRAFT_124781&lt;/b&gt;&lt;br&gt;acid phosphatase/Vanadium-dependent haloperoxidase&lt;br&gt;Location: 3262686 - 3261282" locus_tag="BU24DRAFT_124781" class="clusterblast-orf" id="dummy-5_h5_8_40"  />
</g>
<g id="a5_0041"  >
<polygon points="705,85 709,80 709,90 705,85 " style="fill:white; stroke-width:1; stroke:black; " description="&lt;b&gt;BU24DRAFT_341686&lt;/b&gt;&lt;br&gt;vacuolar-sorting protein SNF8&lt;br&gt;Location: 3260171 - 3259377" locus_tag="BU24DRAFT_341686" class="clusterblast-orf" id="dummy-5_h5_8_41"  />
</g>
<g id="a5_0042"  >
<polygon points="716,90 717,90 722,85 717,80 716,80 716,90 " style="fill:white; stroke-width:1; stroke:black; " description="&lt;b&gt;BU24DRAFT_419284&lt;/b&gt;&lt;br&gt;uncharacterized protein&lt;br&gt;Location: 3257809 - 3256502" locus_tag="BU24DRAFT_419284" class="clusterblast-orf" id="dummy-5_h5_8_42"  />
</g>
<g id="a5_0043"  >
<polygon points="730,90 734,85 730,80 730,90 " style="fill:white; stroke-width:1; stroke:black; " description="&lt;b&gt;BU24DRAFT_459312&lt;/b&gt;&lt;br&gt;uncharacterized protein&lt;br&gt;Location: 3254885 - 3253968" locus_tag="BU24DRAFT_459312" class="clusterblast-orf" id="dummy-5_h5_8_43"  />
</g>
<g id="a5_0044"  >
<polygon points="739,85 744,80 751,80 751,90 744,90 739,85 " style="fill:white; stroke-width:1; stroke:black; " description="&lt;b&gt;BU24DRAFT_365291&lt;/b&gt;&lt;br&gt;uncharacterized protein&lt;br&gt;Location: 3252840 - 3250242" locus_tag="BU24DRAFT_365291" class="clusterblast-orf" id="dummy-5_h5_8_44"  />
</g>
<g id="a5_0045"  >
<polygon points="753,90 758,90 763,85 758,80 753,80 753,90 " style="fill:white; stroke-width:1; stroke:black; " description="&lt;b&gt;BU24DRAFT_124680&lt;/b&gt;&lt;br&gt;cell division cycle protein 48&lt;br&gt;Location: 3250018 - 3247675" locus_tag="BU24DRAFT_124680" class="clusterblast-orf" id="dummy-5_h5_8_45"  />
</g>
<g id="a5_0046"  >
<polygon points="767,85 769,80 769,90 767,85 " style="fill:white; stroke-width:1; stroke:black; " description="&lt;b&gt;BU24DRAFT_124735&lt;/b&gt;&lt;br&gt;uncharacterized protein&lt;br&gt;Location: 3246974 - 3246525" locus_tag="BU24DRAFT_124735" class="clusterblast-orf" id="dummy-5_h5_8_46"  />
</g>
<g id="a5_0047"  >
<polygon points="769,90 775,90 780,85 775,80 769,80 769,90 " style="fill:white; stroke-width:1; stroke:black; " description="&lt;b&gt;BU24DRAFT_459309&lt;/b&gt;&lt;br&gt;uncharacterized protein&lt;br&gt;Location: 3246431 - 3244258" locus_tag="BU24DRAFT_459309" class="clusterblast-orf" id="dummy-5_h5_8_47"  />
</g>
</svg>
