<svg xmlns="http://www.w3.org/2000/svg" xmlns:xlink="http://www.w3.org/1999/xlink" version="1.1" x="0" y="0" height="230" width="800" viewBox="0 0 800 230" preserveAspectRatio="none"  >
<g label="Query sequence" class="clusterblast-cluster"  >
<text x="5" y="20" class="clusterblast-acc"  >
Query sequence</text>
<line x1="10" y1="35" x2="778.0" y2="35" style="stroke-width:1; stroke:grey; "  />
<polygon points="159,40 210,40 215,35 210,30 159,30 159,40 " style="fill:#d81515; stroke-width:1; stroke:black; " description="&lt;b&gt;input.path1.gene448&lt;/b&gt;&lt;br&gt;input.path1.gene448&lt;br&gt;Location: 1681471 - 1685892" locus_tag="input.path1.gene448" class="clusterblast-orf" id="dummy-2_q0_0_all"  />
<polygon points="219,35 224,30 232,30 232,40 224,40 219,35 " style="fill:#15d815; stroke-width:1; stroke:black; " description="&lt;b&gt;input.path1.gene449&lt;/b&gt;&lt;br&gt;input.path1.gene449&lt;br&gt;Location: 1686148 - 1687203" locus_tag="input.path1.gene449" class="clusterblast-orf" id="dummy-2_q1_0_all"  />
<polygon points="262,40 276,40 281,35 276,30 262,30 262,40 " style="fill:#1597d8; stroke-width:1; stroke:black; " description="&lt;b&gt;input.path1.gene450&lt;/b&gt;&lt;br&gt;input.path1.gene450&lt;br&gt;Location: 1689564 - 1691080" locus_tag="input.path1.gene450" class="clusterblast-orf" id="dummy-2_q2_0_all"  />
<polygon points="281,35 286,30 297,30 297,40 286,40 281,35 " style="fill:white; stroke-width:1; stroke:black; " description="&lt;b&gt;input.path1.gene451&lt;/b&gt;&lt;br&gt;input.path1.gene451&lt;br&gt;Location: 1691081 - 1692281" locus_tag="input.path1.gene451" class="clusterblast-orf" id="dummy-2_q3_0_all"  />
<polygon points="329,40 380,40 385,35 380,30 329,30 329,40 " style="fill:#9715d8; stroke-width:1; stroke:black; " description="&lt;b&gt;input.path1.gene452&lt;/b&gt;&lt;br&gt;input.path1.gene452&lt;br&gt;Location: 1694830 - 1699276" locus_tag="input.path1.gene452" class="clusterblast-orf" id="dummy-2_q4_0_all"  />
<polygon points="393,35 398,30 462,30 462,40 398,40 393,35 " style="fill:#d89715; stroke-width:1; stroke:black; " description="&lt;b&gt;input.path1.gene453&lt;/b&gt;&lt;br&gt;input.path1.gene453&lt;br&gt;Location: 1699903 - 1705345" locus_tag="input.path1.gene453" class="clusterblast-orf" id="dummy-2_q5_0_all"  />
<polygon points="488,40 508,40 513,35 508,30 488,30 488,40 " style="fill:#15d897; stroke-width:1; stroke:black; " description="&lt;b&gt;input.path1.gene454&lt;/b&gt;&lt;br&gt;input.path1.gene454&lt;br&gt;Location: 1707378 - 1709334" locus_tag="input.path1.gene454" class="clusterblast-orf" id="dummy-2_q6_0_all"  />
<polygon points="516,35 521,30 534,30 534,40 521,40 516,35 " style="fill:#1515d8; stroke-width:1; stroke:black; " description="&lt;b&gt;input.path1.gene455&lt;/b&gt;&lt;br&gt;input.path1.gene455&lt;br&gt;Location: 1709577 - 1711017" locus_tag="input.path1.gene455" class="clusterblast-orf" id="dummy-2_q7_0_all"  />
<polygon points="569,40 591,40 596,35 591,30 569,30 569,40 " style="fill:#d81597; stroke-width:1; stroke:black; " description="&lt;b&gt;input.path1.gene456&lt;/b&gt;&lt;br&gt;input.path1.gene456&lt;br&gt;Location: 1713724 - 1715896" locus_tag="input.path1.gene456" class="clusterblast-orf" id="dummy-2_q8_0_all"  />
<polygon points="601,35 606,30 620,30 620,40 606,40 601,35 " style="fill:#97d815; stroke-width:1; stroke:black; " description="&lt;b&gt;input.path1.gene457&lt;/b&gt;&lt;br&gt;input.path1.gene457&lt;br&gt;Location: 1716235 - 1717760" locus_tag="input.path1.gene457" class="clusterblast-orf" id="dummy-2_q9_0_all"  />
</g>
<g label="NC_070551" description="NC_070551 (2536076-2601948): Fusarium falciforme chromosome 8, complete sequence (47% of genes show similarity), NRPS" class="clusterblast-cluster"  >
<text x="5" y="70" class="clusterblast-acc"  >
<a xlink:href="https://antismash-db.secondarymetabolites.org/area?record=NC_070551&amp;start=2536076&amp;end=2601948" target="_blank">NC_070551 (2536076-2601948)</a>: Fusarium falciforme chromosome 8, complete sequence (47% of genes show similarity), NRPS</text>
<line x1="10" y1="85" x2="778.0" y2="85" style="stroke-width:1; stroke:grey; "  />
</g>
<g id="a2_000"  >
<polygon points="0,85 5,80 17,80 17,90 5,90 0,85 " style="fill:white; stroke-width:1; stroke:black; " description="&lt;b&gt;NCS54_01058600&lt;/b&gt;&lt;br&gt;F-box domain-containing protein&lt;br&gt;Location: 2538772 - 2540124" locus_tag="NCS54_01058600" class="clusterblast-orf" id="dummy-2_h2_3_0"  />
</g>
<g id="a2_001"  >
<polygon points="30,85 35,80 43,80 43,90 35,90 30,85 " style="fill:white; stroke-width:1; stroke:black; " description="&lt;b&gt;NCS54_01058700&lt;/b&gt;&lt;br&gt;Ribosome biogenesis protein BRX1&lt;br&gt;Location: 2541141 - 2542184" locus_tag="NCS54_01058700" class="clusterblast-orf" id="dummy-2_h2_3_1"  />
</g>
<g id="a2_002"  >
<polygon points="53,85 58,80 65,80 65,90 58,90 53,85 " style="fill:white; stroke-width:1; stroke:black; " description="&lt;b&gt;NCS54_01058800&lt;/b&gt;&lt;br&gt;Hypothetical protein&lt;br&gt;Location: 2542978 - 2543898" locus_tag="NCS54_01058800" class="clusterblast-orf" id="dummy-2_h2_3_2"  />
</g>
<g id="a2_003"  >
<polygon points="86,90 131,90 136,85 131,80 86,80 86,90 " style="fill:white; stroke-width:1; stroke:black; " description="&lt;b&gt;NCS54_01058900&lt;/b&gt;&lt;br&gt;Chromo domain-containing protein&lt;br&gt;Location: 2545574 - 2549503" locus_tag="NCS54_01058900" class="clusterblast-orf" id="dummy-2_h2_3_3"  />
</g>
<g id="a2_004"  >
<polygon points="138,85 143,80 154,80 154,90 143,90 138,85 " style="fill:#15d815; stroke-width:1; stroke:black; " description="&lt;b&gt;NCS54_01059000&lt;/b&gt;&lt;br&gt;Peroxisomal membrane protein PEX14&lt;br&gt;Location: 2549716 - 2550907&lt;br&gt;&lt;br&gt;&lt;b&gt;BlastP hit with input.path1.gene449&lt;/b&gt;&lt;br&gt;Percentage identity: 47&lt;br&gt;Percentage coverage: 84&lt;br&gt;BLAST bit score: 177&lt;br&gt;E-value: 4.5e-51" locus_tag="NCS54_01059000" class="clusterblast-orf" id="dummy-2_h2_3_4"  />
</g>
<g id="a2_005"  >
<polygon points="179,90 191,90 196,85 191,80 179,80 179,90 " style="fill:#1597d8; stroke-width:1; stroke:black; " description="&lt;b&gt;NCS54_01059100&lt;/b&gt;&lt;br&gt;PAPA-1 domain-containing protein&lt;br&gt;Location: 2552941 - 2554231&lt;br&gt;&lt;br&gt;&lt;b&gt;BlastP hit with input.path1.gene450&lt;/b&gt;&lt;br&gt;Percentage identity: 61&lt;br&gt;Percentage coverage: 100&lt;br&gt;BLAST bit score: 290&lt;br&gt;E-value: 2.44e-92" locus_tag="NCS54_01059100" class="clusterblast-orf" id="dummy-2_h2_3_5"  />
</g>
<g id="a2_006"  >
<polygon points="218,90 262,90 267,85 262,80 218,80 218,90 " style="fill:white; stroke-width:1; stroke:black; " description="&lt;b&gt;NCS54_01059200&lt;/b&gt;&lt;br&gt;Hypothetical protein&lt;br&gt;Location: 2555992 - 2559821" locus_tag="NCS54_01059200" class="clusterblast-orf" id="dummy-2_h2_3_6"  />
</g>
<g id="a2_007"  >
<polygon points="314,90 327,90 332,85 327,80 314,80 314,90 " style="fill:#9715d8; stroke-width:1; stroke:black; " description="&lt;b&gt;NCS54_01059300&lt;/b&gt;&lt;br&gt;DUF4050 domain-containing protein&lt;br&gt;Location: 2563548 - 2564924&lt;br&gt;&lt;br&gt;&lt;b&gt;BlastP hit with input.path1.gene452&lt;/b&gt;&lt;br&gt;Percentage identity: 49&lt;br&gt;Percentage coverage: 60&lt;br&gt;BLAST bit score: 380&lt;br&gt;E-value: 1.89e-122" locus_tag="NCS54_01059300" class="clusterblast-orf" id="dummy-2_h2_3_7"  />
</g>
<g id="a2_008"  >
<polygon points="346,85 351,80 421,80 421,90 351,90 346,85 " style="fill:#d89715; stroke-width:1; stroke:black; " description="&lt;b&gt;NCS54_01059400&lt;/b&gt;&lt;br&gt;Hypothetical protein&lt;br&gt;Location: 2566077 - 2571948&lt;br&gt;&lt;br&gt;&lt;b&gt;BlastP hit with input.path1.gene453&lt;/b&gt;&lt;br&gt;Percentage identity: 65&lt;br&gt;Percentage coverage: 98&lt;br&gt;BLAST bit score: 2204&lt;br&gt;E-value: 0.0" locus_tag="NCS54_01059400" class="clusterblast-orf" id="dummy-2_h2_3_8"  />
</g>
<g id="a2_009"  >
<polygon points="458,90 476,90 481,85 476,80 458,80 458,90 " style="fill:#15d897; stroke-width:1; stroke:black; " description="&lt;b&gt;NCS54_01059500&lt;/b&gt;&lt;br&gt;Hypothetical protein&lt;br&gt;Location: 2574855 - 2576731&lt;br&gt;&lt;br&gt;&lt;b&gt;BlastP hit with input.path1.gene454&lt;/b&gt;&lt;br&gt;Percentage identity: 80&lt;br&gt;Percentage coverage: 100&lt;br&gt;BLAST bit score: 929&lt;br&gt;E-value: 0.0" locus_tag="NCS54_01059500" class="clusterblast-orf" id="dummy-2_h2_3_9"  />
</g>
<g id="a2_0010"  >
<polygon points="486,85 491,80 505,80 505,90 491,90 486,85 " style="fill:#1515d8; stroke-width:1; stroke:black; " description="&lt;b&gt;NCS54_01059600&lt;/b&gt;&lt;br&gt;AlcB domain-containing protein&lt;br&gt;Location: 2577123 - 2578552&lt;br&gt;&lt;br&gt;&lt;b&gt;BlastP hit with input.path1.gene455&lt;/b&gt;&lt;br&gt;Percentage identity: 75&lt;br&gt;Percentage coverage: 99&lt;br&gt;BLAST bit score: 720&lt;br&gt;E-value: 1.79e-260" locus_tag="NCS54_01059600" class="clusterblast-orf" id="dummy-2_h2_3_10"  />
</g>
<g id="a2_0011"  >
<polygon points="509,90 539,90 544,85 539,80 509,80 509,90 " style="fill:#d81597; stroke-width:1; stroke:black; " description="&lt;b&gt;NCS54_01059700&lt;/b&gt;&lt;br&gt;Siderophore transporter&lt;br&gt;Location: 2578908 - 2581634&lt;br&gt;&lt;br&gt;&lt;b&gt;BlastP hit with input.path1.gene456&lt;/b&gt;&lt;br&gt;Percentage identity: 67&lt;br&gt;Percentage coverage: 33&lt;br&gt;BLAST bit score: 268&lt;br&gt;E-value: 2.82e-83" locus_tag="NCS54_01059700" class="clusterblast-orf" id="dummy-2_h2_3_11"  />
</g>
<g id="a2_0012"  >
<polygon points="556,85 561,80 578,80 578,90 561,90 556,85 " style="fill:#97d815; stroke-width:1; stroke:black; " description="&lt;b&gt;NCS54_01059800&lt;/b&gt;&lt;br&gt;Pyr-redox-2 domain-containing protein&lt;br&gt;Location: 2582607 - 2584312&lt;br&gt;&lt;br&gt;&lt;b&gt;BlastP hit with input.path1.gene457&lt;/b&gt;&lt;br&gt;Percentage identity: 64&lt;br&gt;Percentage coverage: 100&lt;br&gt;BLAST bit score: 529&lt;br&gt;E-value: 7.15e-185" locus_tag="NCS54_01059800" class="clusterblast-orf" id="dummy-2_h2_3_12"  />
</g>
<g id="a2_0013"  >
<polygon points="609,90 660,90 665,85 660,80 609,80 609,90 " style="fill:white; stroke-width:1; stroke:black; " description="&lt;b&gt;NCS54_01059900&lt;/b&gt;&lt;br&gt;Hypothetical protein&lt;br&gt;Location: 2586782 - 2591160" locus_tag="NCS54_01059900" class="clusterblast-orf" id="dummy-2_h2_3_13"  />
</g>
<g id="a2_0014"  >
<polygon points="680,90 714,90 719,85 714,80 680,80 680,90 " style="fill:white; stroke-width:1; stroke:black; " description="&lt;b&gt;NCS54_01060000&lt;/b&gt;&lt;br&gt;Hypothetical protein&lt;br&gt;Location: 2592369 - 2595476" locus_tag="NCS54_01060000" class="clusterblast-orf" id="dummy-2_h2_3_14"  />
</g>
<g id="a2_0015"  >
<polygon points="726,90 764,90 769,85 764,80 726,80 726,90 " style="fill:white; stroke-width:1; stroke:black; " description="&lt;b&gt;NCS54_01060100&lt;/b&gt;&lt;br&gt;Hypothetical protein&lt;br&gt;Location: 2595964 - 2599376" locus_tag="NCS54_01060100" class="clusterblast-orf" id="dummy-2_h2_3_15"  />
</g>
<g id="a2_0016"  >
<polygon points="772,85 777,80 780,80 780,90 777,90 772,85 " style="fill:white; stroke-width:1; stroke:black; " description="&lt;b&gt;NCS54_01060200&lt;/b&gt;&lt;br&gt;EKC/KEOPS complex subunit GON7&lt;br&gt;Location: 2599586 - 2600212" locus_tag="NCS54_01060200" class="clusterblast-orf" id="dummy-2_h2_3_16"  />
</g>
</svg>
