<svg xmlns="http://www.w3.org/2000/svg" xmlns:xlink="http://www.w3.org/1999/xlink" version="1.1" x="0" y="0" height="230" width="800" viewBox="0 0 800 230" preserveAspectRatio="none"  >
<g label="Query sequence" class="clusterblast-cluster"  >
<text x="5" y="20" class="clusterblast-acc"  >
Query sequence</text>
<line x1="10" y1="35" x2="778.0" y2="35" style="stroke-width:1; stroke:grey; "  />
<polygon points="248,35 253,30 272,30 272,40 253,40 248,35 " style="fill:white; stroke-width:1; stroke:black; " description="&lt;b&gt;input.path1.gene1171&lt;/b&gt;&lt;br&gt;input.path1.gene1171&lt;br&gt;Location: 4345754 - 4347688" locus_tag="input.path1.gene1171" class="clusterblast-orf" id="dummy-4_q0_0_all"  />
<polygon points="381,35 386,30 409,30 409,40 386,40 381,35 " style="fill:#d81515; stroke-width:1; stroke:black; " description="&lt;b&gt;input.path1.gene1172&lt;/b&gt;&lt;br&gt;input.path1.gene1172&lt;br&gt;Location: 4356427 - 4358620" locus_tag="input.path1.gene1172" class="clusterblast-orf" id="dummy-4_q1_0_all"  />
<polygon points="420,40 422,40 427,35 422,30 420,30 420,40 " style="fill:#15d815; stroke-width:1; stroke:black; " description="&lt;b&gt;input.path1.gene1173&lt;/b&gt;&lt;br&gt;input.path1.gene1173&lt;br&gt;Location: 4359517 - 4360077" locus_tag="input.path1.gene1173" class="clusterblast-orf" id="dummy-4_q2_0_all"  />
<polygon points="460,40 526,40 531,35 526,30 460,30 460,40 " style="fill:#1515d8; stroke-width:1; stroke:black; " description="&lt;b&gt;input.path1.gene1174&lt;/b&gt;&lt;br&gt;input.path1.gene1174&lt;br&gt;Location: 4362680 - 4368417" locus_tag="input.path1.gene1174" class="clusterblast-orf" id="dummy-4_q3_0_all"  />
</g>
<g label="NW_014013671" description="NW_014013671 (343067-409901): Trichoderma virens Gv29-8 chromosome Unknown TR... (14% of genes show similarity), T1PKS" class="clusterblast-cluster"  >
<text x="5" y="70" class="clusterblast-acc"  >
<a xlink:href="https://antismash-db.secondarymetabolites.org/area?record=NW_014013671&amp;start=343067&amp;end=409901" target="_blank">NW_014013671 (343067-409901)</a>: Trichoderma virens Gv29-8 chromosome Unknown TR... (14% of genes show similarity), T1PKS</text>
<line x1="10" y1="85" x2="778.0" y2="85" style="stroke-width:1; stroke:grey; "  />
</g>
<g id="a4_000"  >
<polygon points="0,85 5,80 12,80 12,90 5,90 0,85 " style="fill:white; stroke-width:1; stroke:black; " description="&lt;b&gt;TRIVIDRAFT_49717&lt;/b&gt;&lt;br&gt;hypothetical protein&lt;br&gt;Location: 345407 - 346422" locus_tag="TRIVIDRAFT_49717" class="clusterblast-orf" id="dummy-4_h4_1_0"  />
</g>
<g id="a4_001"  >
<polygon points="18,85 23,80 24,80 24,90 23,90 18,85 " style="fill:white; stroke-width:1; stroke:black; " description="&lt;b&gt;TRIVIDRAFT_154207&lt;/b&gt;&lt;br&gt;hypothetical protein&lt;br&gt;Location: 346922 - 347332" locus_tag="TRIVIDRAFT_154207" class="clusterblast-orf" id="dummy-4_h4_1_1"  />
</g>
<g id="a4_002"  >
<polygon points="32,90 35,90 40,85 35,80 32,80 32,90 " style="fill:white; stroke-width:1; stroke:black; " description="&lt;b&gt;TRIVIDRAFT_137784&lt;/b&gt;&lt;br&gt;hypothetical protein&lt;br&gt;Location: 347972 - 348643" locus_tag="TRIVIDRAFT_137784" class="clusterblast-orf" id="dummy-4_h4_1_2"  />
</g>
<g id="a4_003"  >
<polygon points="66,85 71,80 93,80 93,90 71,90 66,85 " style="fill:white; stroke-width:1; stroke:black; " description="&lt;b&gt;TRIVIDRAFT_49852&lt;/b&gt;&lt;br&gt;hypothetical protein&lt;br&gt;Location: 350713 - 352878" locus_tag="TRIVIDRAFT_49852" class="clusterblast-orf" id="dummy-4_h4_1_3"  />
</g>
<g id="a4_004"  >
<polygon points="104,85 109,80 124,80 124,90 109,90 104,85 " style="fill:white; stroke-width:1; stroke:black; " description="&lt;b&gt;TRIVIDRAFT_49798&lt;/b&gt;&lt;br&gt;carbohydrate esterase family 4 protein&lt;br&gt;Location: 353763 - 355384" locus_tag="TRIVIDRAFT_49798" class="clusterblast-orf" id="dummy-4_h4_1_4"  />
</g>
<g id="a4_005"  >
<polygon points="162,90 179,90 184,85 179,80 162,80 162,90 " style="fill:white; stroke-width:1; stroke:black; " description="&lt;b&gt;TRIVIDRAFT_49743&lt;/b&gt;&lt;br&gt;hypothetical protein&lt;br&gt;Location: 358426 - 360156" locus_tag="TRIVIDRAFT_49743" class="clusterblast-orf" id="dummy-4_h4_1_5"  />
</g>
<g id="a4_006"  >
<polygon points="205,90 226,90 231,85 226,80 205,80 205,90 " style="fill:white; stroke-width:1; stroke:black; " description="&lt;b&gt;TRIVIDRAFT_90482&lt;/b&gt;&lt;br&gt;hypothetical protein&lt;br&gt;Location: 361841 - 363882" locus_tag="TRIVIDRAFT_90482" class="clusterblast-orf" id="dummy-4_h4_1_6"  />
</g>
<g id="a4_007"  >
<polygon points="233,85 238,80 243,80 243,90 238,90 233,85 " style="fill:white; stroke-width:1; stroke:black; " description="&lt;b&gt;TRIVIDRAFT_59043&lt;/b&gt;&lt;br&gt;glycoside hydrolase family 75 protein&lt;br&gt;Location: 364031 - 364868" locus_tag="TRIVIDRAFT_59043" class="clusterblast-orf" id="dummy-4_h4_1_7"  />
</g>
<g id="a4_008"  >
<polygon points="273,85 278,80 300,80 300,90 278,90 273,85 " style="fill:#d81515; stroke-width:1; stroke:black; " description="&lt;b&gt;TRIVIDRAFT_69442&lt;/b&gt;&lt;br&gt;hypothetical protein&lt;br&gt;Location: 367247 - 369413&lt;br&gt;&lt;br&gt;&lt;b&gt;BlastP hit with input.path1.gene1172&lt;/b&gt;&lt;br&gt;Percentage identity: 65&lt;br&gt;Percentage coverage: 128&lt;br&gt;BLAST bit score: 810&lt;br&gt;E-value: 2.88e-293" locus_tag="TRIVIDRAFT_69442" class="clusterblast-orf" id="dummy-4_h4_1_8"  />
</g>
<g id="a4_009"  >
<polygon points="320,90 322,90 327,85 322,80 320,80 320,90 " style="fill:#15d815; stroke-width:1; stroke:black; " description="&lt;b&gt;TRIVIDRAFT_153900&lt;/b&gt;&lt;br&gt;hypothetical protein&lt;br&gt;Location: 371022 - 371604&lt;br&gt;&lt;br&gt;&lt;b&gt;BlastP hit with input.path1.gene1173&lt;/b&gt;&lt;br&gt;Percentage identity: 86&lt;br&gt;Percentage coverage: 100&lt;br&gt;BLAST bit score: 256&lt;br&gt;E-value: 2.91e-87" locus_tag="TRIVIDRAFT_153900" class="clusterblast-orf" id="dummy-4_h4_1_9"  />
</g>
<g id="a4_0010"  >
<polygon points="346,90 426,90 431,85 426,80 346,80 346,90 " style="fill:#1515d8; stroke-width:1; stroke:black; " description="&lt;b&gt;TRIVIDRAFT_209609&lt;/b&gt;&lt;br&gt;putative conidial pigment polyketide synthase PksP/Alb1&lt;br&gt;Location: 373068 - 379901&lt;br&gt;&lt;br&gt;&lt;b&gt;BlastP hit with input.path1.gene1174&lt;/b&gt;&lt;br&gt;Percentage identity: 78&lt;br&gt;Percentage coverage: 102&lt;br&gt;BLAST bit score: 2784&lt;br&gt;E-value: 0.0" locus_tag="TRIVIDRAFT_209609" class="clusterblast-orf" id="dummy-4_h4_1_10"  />
</g>
<g id="a4_0011"  >
<polygon points="465,90 472,90 477,85 472,80 465,80 465,90 " style="fill:white; stroke-width:1; stroke:black; " description="&lt;b&gt;TRIVIDRAFT_49720&lt;/b&gt;&lt;br&gt;hypothetical protein&lt;br&gt;Location: 382605 - 383555" locus_tag="TRIVIDRAFT_49720" class="clusterblast-orf" id="dummy-4_h4_1_11"  />
</g>
<g id="a4_0012"  >
<polygon points="478,85 483,80 492,80 492,90 483,90 478,85 " style="fill:white; stroke-width:1; stroke:black; " description="&lt;b&gt;TRIVIDRAFT_192659&lt;/b&gt;&lt;br&gt;hypothetical protein&lt;br&gt;Location: 383664 - 384751" locus_tag="TRIVIDRAFT_192659" class="clusterblast-orf" id="dummy-4_h4_1_12"  />
</g>
<g id="a4_0013"  >
<polygon points="538,90 549,90 554,85 549,80 538,80 538,90 " style="fill:white; stroke-width:1; stroke:black; " description="&lt;b&gt;TRIVIDRAFT_77829&lt;/b&gt;&lt;br&gt;hypothetical protein&lt;br&gt;Location: 388451 - 389710" locus_tag="TRIVIDRAFT_77829" class="clusterblast-orf" id="dummy-4_h4_1_13"  />
</g>
<g id="a4_0014"  >
<polygon points="561,90 576,90 581,85 576,80 561,80 561,90 " style="fill:white; stroke-width:1; stroke:black; " description="&lt;b&gt;TRIVIDRAFT_49690&lt;/b&gt;&lt;br&gt;hypothetical protein&lt;br&gt;Location: 390297 - 391856" locus_tag="TRIVIDRAFT_49690" class="clusterblast-orf" id="dummy-4_h4_1_14"  />
</g>
<g id="a4_0015"  >
<polygon points="582,85 587,80 592,80 592,90 587,90 582,85 " style="fill:white; stroke-width:1; stroke:black; " description="&lt;b&gt;TRIVIDRAFT_186718&lt;/b&gt;&lt;br&gt;hypothetical protein&lt;br&gt;Location: 391934 - 392752" locus_tag="TRIVIDRAFT_186718" class="clusterblast-orf" id="dummy-4_h4_1_15"  />
</g>
<g id="a4_0016"  >
<polygon points="631,90 647,90 652,85 647,80 631,80 631,90 " style="fill:white; stroke-width:1; stroke:black; " description="&lt;b&gt;TRIVIDRAFT_223723&lt;/b&gt;&lt;br&gt;glycoside hydrolase family 3 protein&lt;br&gt;Location: 395874 - 397534" locus_tag="TRIVIDRAFT_223723" class="clusterblast-orf" id="dummy-4_h4_1_16"  />
</g>
<g id="a4_0017"  >
<polygon points="654,85 659,80 669,80 669,90 659,90 654,85 " style="fill:white; stroke-width:1; stroke:black; " description="&lt;b&gt;TRIVIDRAFT_15627&lt;/b&gt;&lt;br&gt;hypothetical protein&lt;br&gt;Location: 397692 - 398906" locus_tag="TRIVIDRAFT_15627" class="clusterblast-orf" id="dummy-4_h4_1_17"  />
</g>
<g id="a4_0018"  >
<polygon points="680,85 685,80 703,80 703,90 685,90 680,85 " style="fill:white; stroke-width:1; stroke:black; " description="&lt;b&gt;TRIVIDRAFT_49762&lt;/b&gt;&lt;br&gt;glycoside hydrolase family 20 protein&lt;br&gt;Location: 399733 - 401622" locus_tag="TRIVIDRAFT_49762" class="clusterblast-orf" id="dummy-4_h4_1_18"  />
</g>
<g id="a4_0019"  >
<polygon points="725,90 733,90 738,85 733,80 725,80 725,90 " style="fill:white; stroke-width:1; stroke:black; " description="&lt;b&gt;TRIVIDRAFT_216328&lt;/b&gt;&lt;br&gt;hypothetical protein&lt;br&gt;Location: 403402 - 404368" locus_tag="TRIVIDRAFT_216328" class="clusterblast-orf" id="dummy-4_h4_1_19"  />
</g>
<g id="a4_0020"  >
<polygon points="741,85 746,80 780,80 780,90 746,90 741,85 " style="fill:white; stroke-width:1; stroke:black; " description="&lt;b&gt;TRIVIDRAFT_49724&lt;/b&gt;&lt;br&gt;hypothetical protein&lt;br&gt;Location: 404665 - 407718" locus_tag="TRIVIDRAFT_49724" class="clusterblast-orf" id="dummy-4_h4_1_20"  />
</g>
</svg>
