<svg xmlns="http://www.w3.org/2000/svg" xmlns:xlink="http://www.w3.org/1999/xlink" version="1.1" x="0" y="0" height="230" width="800" viewBox="0 0 800 230" preserveAspectRatio="none"  >
<g label="Query sequence" class="clusterblast-cluster"  >
<text x="5" y="20" class="clusterblast-acc"  >
Query sequence</text>
<line x1="10" y1="35" x2="778.0" y2="35" style="stroke-width:1; stroke:grey; "  />
<polygon points="239,35 244,30 244,30 244,40 244,40 239,35 " style="fill:#d81515; stroke-width:1; stroke:black; " description="&lt;b&gt;input.path1.gene368&lt;/b&gt;&lt;br&gt;input.path1.gene368&lt;br&gt;Location: 1153078 - 1153869" locus_tag="input.path1.gene368" class="clusterblast-orf" id="dummy-4_q0_0_all"  />
<polygon points="245,40 247,35 245,30 245,40 " style="fill:white; stroke-width:1; stroke:black; " description="&lt;b&gt;input.path1.gene369&lt;/b&gt;&lt;br&gt;input.path1.gene369&lt;br&gt;Location: 1154089 - 1154407" locus_tag="input.path1.gene369" class="clusterblast-orf" id="dummy-4_q1_0_all"  />
<polygon points="257,35 262,30 272,30 272,40 262,40 257,35 " style="fill:#43d815; stroke-width:1; stroke:black; " description="&lt;b&gt;input.path1.gene370&lt;/b&gt;&lt;br&gt;input.path1.gene370&lt;br&gt;Location: 1156176 - 1158661" locus_tag="input.path1.gene370" class="clusterblast-orf" id="dummy-4_q2_0_all"  />
<polygon points="277,40 278,35 277,30 277,40 " style="fill:white; stroke-width:1; stroke:black; " description="&lt;b&gt;input.path1.gene371&lt;/b&gt;&lt;br&gt;input.path1.gene371&lt;br&gt;Location: 1159478 - 1159695" locus_tag="input.path1.gene371" class="clusterblast-orf" id="dummy-4_q3_0_all"  />
<polygon points="282,40 285,35 282,30 282,40 " style="fill:white; stroke-width:1; stroke:black; " description="&lt;b&gt;input.path1.gene372&lt;/b&gt;&lt;br&gt;input.path1.gene372&lt;br&gt;Location: 1160444 - 1160951" locus_tag="input.path1.gene372" class="clusterblast-orf" id="dummy-4_q4_0_all"  />
<polygon points="286,35 291,30 293,30 293,40 291,40 286,35 " style="fill:#15b6d8; stroke-width:1; stroke:black; " description="&lt;b&gt;input.path1.gene373&lt;/b&gt;&lt;br&gt;input.path1.gene373&lt;br&gt;Location: 1161041 - 1162255" locus_tag="input.path1.gene373" class="clusterblast-orf" id="dummy-4_q5_0_all"  />
<polygon points="298,40 307,40 312,35 307,30 298,30 298,40 " style="fill:#8815d8; stroke-width:1; stroke:black; " description="&lt;b&gt;input.path1.gene374&lt;/b&gt;&lt;br&gt;input.path1.gene374&lt;br&gt;Location: 1163128 - 1165451" locus_tag="input.path1.gene374" class="clusterblast-orf" id="dummy-4_q6_0_all"  />
<polygon points="314,40 316,40 321,35 316,30 314,30 314,40 " style="fill:#d85a15; stroke-width:1; stroke:black; " description="&lt;b&gt;input.path1.gene375&lt;/b&gt;&lt;br&gt;input.path1.gene375&lt;br&gt;Location: 1165924 - 1167059" locus_tag="input.path1.gene375" class="clusterblast-orf" id="dummy-4_q7_0_all"  />
<polygon points="324,35 329,30 333,30 333,40 329,40 324,35 " style="fill:#15d82c; stroke-width:1; stroke:black; " description="&lt;b&gt;input.path1.gene376&lt;/b&gt;&lt;br&gt;input.path1.gene376&lt;br&gt;Location: 1167543 - 1169104" locus_tag="input.path1.gene376" class="clusterblast-orf" id="dummy-4_q8_0_all"  />
<polygon points="344,40 346,40 351,35 346,30 344,30 344,40 " style="fill:#1571d8; stroke-width:1; stroke:black; " description="&lt;b&gt;input.path1.gene377&lt;/b&gt;&lt;br&gt;input.path1.gene377&lt;br&gt;Location: 1171027 - 1172182" locus_tag="input.path1.gene377" class="clusterblast-orf" id="dummy-4_q9_0_all"  />
<polygon points="354,35 359,30 359,30 359,40 359,40 354,35 " style="fill:#cd15d8; stroke-width:1; stroke:black; " description="&lt;b&gt;input.path1.gene378&lt;/b&gt;&lt;br&gt;input.path1.gene378&lt;br&gt;Location: 1172756 - 1173589" locus_tag="input.path1.gene378" class="clusterblast-orf" id="dummy-4_q10_0_all"  />
<polygon points="383,35 388,30 388,30 388,40 388,40 383,35 " style="fill:#d89f15; stroke-width:1; stroke:black; " description="&lt;b&gt;input.path1.gene379&lt;/b&gt;&lt;br&gt;input.path1.gene379&lt;br&gt;Location: 1177655 - 1178547" locus_tag="input.path1.gene379" class="clusterblast-orf" id="dummy-4_q11_0_all"  />
<polygon points="392,40 395,35 392,30 392,40 " style="fill:#15d871; stroke-width:1; stroke:black; " description="&lt;b&gt;input.path1.gene380&lt;/b&gt;&lt;br&gt;input.path1.gene380&lt;br&gt;Location: 1179188 - 1179639" locus_tag="input.path1.gene380" class="clusterblast-orf" id="dummy-4_q12_0_all"  />
<polygon points="404,40 406,35 404,30 404,40 " style="fill:#152cd8; stroke-width:1; stroke:black; " description="&lt;b&gt;input.path1.gene381&lt;/b&gt;&lt;br&gt;input.path1.gene381&lt;br&gt;Location: 1181246 - 1181578" locus_tag="input.path1.gene381" class="clusterblast-orf" id="dummy-4_q13_0_all"  />
<polygon points="418,35 423,30 440,30 440,40 423,40 418,35 " style="fill:#d8159f; stroke-width:1; stroke:black; " description="&lt;b&gt;input.path1.gene382&lt;/b&gt;&lt;br&gt;input.path1.gene382&lt;br&gt;Location: 1183559 - 1187333" locus_tag="input.path1.gene382" class="clusterblast-orf" id="dummy-4_q14_0_all"  />
<polygon points="448,40 481,40 486,35 481,30 448,30 448,40 " style="fill:#cdd815; stroke-width:1; stroke:black; " description="&lt;b&gt;input.path1.gene383&lt;/b&gt;&lt;br&gt;input.path1.gene383&lt;br&gt;Location: 1188806 - 1195263" locus_tag="input.path1.gene383" class="clusterblast-orf" id="dummy-4_q15_0_all"  />
<polygon points="488,35 493,30 497,30 497,40 493,40 488,35 " style="fill:#15d8b6; stroke-width:1; stroke:black; " description="&lt;b&gt;input.path1.gene384&lt;/b&gt;&lt;br&gt;input.path1.gene384&lt;br&gt;Location: 1195569 - 1197136" locus_tag="input.path1.gene384" class="clusterblast-orf" id="dummy-4_q16_0_all"  />
<polygon points="504,35 509,30 515,30 515,40 509,40 504,35 " style="fill:#4315d8; stroke-width:1; stroke:black; " description="&lt;b&gt;input.path1.gene385&lt;/b&gt;&lt;br&gt;input.path1.gene385&lt;br&gt;Location: 1198316 - 1200200" locus_tag="input.path1.gene385" class="clusterblast-orf" id="dummy-4_q17_0_all"  />
<polygon points="520,40 527,40 532,35 527,30 520,30 520,40 " style="fill:#d8155a; stroke-width:1; stroke:black; " description="&lt;b&gt;input.path1.gene386&lt;/b&gt;&lt;br&gt;input.path1.gene386&lt;br&gt;Location: 1200968 - 1203017" locus_tag="input.path1.gene386" class="clusterblast-orf" id="dummy-4_q18_0_all"  />
<polygon points="535,35 540,30 540,30 540,40 540,40 535,35 " style="fill:#88d815; stroke-width:1; stroke:black; " description="&lt;b&gt;input.path1.gene387&lt;/b&gt;&lt;br&gt;input.path1.gene387&lt;br&gt;Location: 1203647 - 1204447" locus_tag="input.path1.gene387" class="clusterblast-orf" id="dummy-4_q19_0_all"  />
</g>
<g label="NC_070547" description="NC_070547 (4757164-4894085): Fusarium falciforme chromosome 4, complete sequence (7% of genes show similarity), NRPS-like,fungal-RiPP-like" class="clusterblast-cluster"  >
<text x="5" y="70" class="clusterblast-acc"  >
<a xlink:href="https://antismash-db.secondarymetabolites.org/area?record=NC_070547&amp;start=4757164&amp;end=4894085" target="_blank">NC_070547 (4757164-4894085)</a>: Fusarium falciforme chromosome 4, complete sequence (7% of genes show similarity), NRPS-like,fungal-RiPP-like</text>
<line x1="10" y1="85" x2="778.0" y2="85" style="stroke-width:1; stroke:grey; "  />
</g>
<g id="a4_000"  >
<polygon points="0,85 5,80 5,80 5,90 5,90 0,85 " style="fill:white; stroke-width:1; stroke:black; " description="&lt;b&gt;NCS54_00621300&lt;/b&gt;&lt;br&gt;Zn(2)-C6 fungal-type domain-containing protein&lt;br&gt;Location: 4893958 - 4893092" locus_tag="NCS54_00621300" class="clusterblast-orf" id="dummy-4_h4_6_0"  />
</g>
<g id="a4_001"  >
<polygon points="12,90 13,90 18,85 13,80 12,80 12,90 " style="fill:white; stroke-width:1; stroke:black; " description="&lt;b&gt;NCS54_00621200&lt;/b&gt;&lt;br&gt;Hypothetical protein&lt;br&gt;Location: 4891765 - 4890807" locus_tag="NCS54_00621200" class="clusterblast-orf" id="dummy-4_h4_6_1"  />
</g>
<g id="a4_002"  >
<polygon points="20,85 25,80 30,80 30,90 25,90 20,85 " style="fill:white; stroke-width:1; stroke:black; " description="&lt;b&gt;NCS54_00621100&lt;/b&gt;&lt;br&gt;Hypothetical protein&lt;br&gt;Location: 4890473 - 4888798" locus_tag="NCS54_00621100" class="clusterblast-orf" id="dummy-4_h4_6_2"  />
</g>
<g id="a4_003"  >
<polygon points="47,90 49,85 47,80 47,90 " style="fill:white; stroke-width:1; stroke:black; " description="&lt;b&gt;NCS54_00621000&lt;/b&gt;&lt;br&gt;Hypothetical protein&lt;br&gt;Location: 4885907 - 4885467" locus_tag="NCS54_00621000" class="clusterblast-orf" id="dummy-4_h4_6_3"  />
</g>
<g id="a4_004"  >
<polygon points="59,90 65,90 70,85 65,80 59,80 59,90 " style="fill:white; stroke-width:1; stroke:black; " description="&lt;b&gt;NCS54_00620900&lt;/b&gt;&lt;br&gt;Hypothetical protein&lt;br&gt;Location: 4883749 - 4881869" locus_tag="NCS54_00620900" class="clusterblast-orf" id="dummy-4_h4_6_4"  />
</g>
<g id="a4_005"  >
<polygon points="159,90 168,90 173,85 168,80 159,80 159,90 " style="fill:white; stroke-width:1; stroke:black; " description="&lt;b&gt;NCS54_00620800&lt;/b&gt;&lt;br&gt;CBM21 domain-containing protein&lt;br&gt;Location: 4866714 - 4864282" locus_tag="NCS54_00620800" class="clusterblast-orf" id="dummy-4_h4_6_5"  />
</g>
<g id="a4_006"  >
<polygon points="187,90 190,90 195,85 190,80 187,80 187,90 " style="fill:white; stroke-width:1; stroke:black; " description="&lt;b&gt;NCS54_00620700&lt;/b&gt;&lt;br&gt;Hypothetical protein&lt;br&gt;Location: 4861935 - 4860602" locus_tag="NCS54_00620700" class="clusterblast-orf" id="dummy-4_h4_6_6"  />
</g>
<g id="a4_007"  >
<polygon points="196,85 201,80 203,80 203,90 201,90 196,85 " style="fill:white; stroke-width:1; stroke:black; " description="&lt;b&gt;NCS54_00620600&lt;/b&gt;&lt;br&gt;PKS-ER domain-containing protein&lt;br&gt;Location: 4860335 - 4859183" locus_tag="NCS54_00620600" class="clusterblast-orf" id="dummy-4_h4_6_7"  />
</g>
<g id="a4_008"  >
<polygon points="209,90 218,90 223,85 218,80 209,80 209,90 " style="fill:white; stroke-width:1; stroke:black; " description="&lt;b&gt;NCS54_00620500&lt;/b&gt;&lt;br&gt;Vanillyl-alcohol oxidase&lt;br&gt;Location: 4858111 - 4855832" locus_tag="NCS54_00620500" class="clusterblast-orf" id="dummy-4_h4_6_8"  />
</g>
<g id="a4_009"  >
<polygon points="227,90 235,90 240,85 235,80 227,80 227,90 " style="fill:white; stroke-width:1; stroke:black; " description="&lt;b&gt;NCS54_00620400&lt;/b&gt;&lt;br&gt;Hypothetical protein&lt;br&gt;Location: 4855089 - 4852906" locus_tag="NCS54_00620400" class="clusterblast-orf" id="dummy-4_h4_6_9"  />
</g>
<g id="a4_0010"  >
<polygon points="248,90 256,90 261,85 256,80 248,80 248,90 " style="fill:white; stroke-width:1; stroke:black; " description="&lt;b&gt;NCS54_00620300&lt;/b&gt;&lt;br&gt;Hypothetical protein&lt;br&gt;Location: 4851507 - 4849221" locus_tag="NCS54_00620300" class="clusterblast-orf" id="dummy-4_h4_6_10"  />
</g>
<g id="a4_0011"  >
<polygon points="262,85 267,80 268,80 268,90 267,90 262,85 " style="fill:#d89f15; stroke-width:1; stroke:black; " description="&lt;b&gt;NCS54_00620200&lt;/b&gt;&lt;br&gt;Hypothetical protein&lt;br&gt;Location: 4849085 - 4848180&lt;br&gt;&lt;br&gt;&lt;b&gt;BlastP hit with input.path1.gene379&lt;/b&gt;&lt;br&gt;Percentage identity: 31&lt;br&gt;Percentage coverage: 75&lt;br&gt;BLAST bit score: 82&lt;br&gt;E-value: 2.77e-16" locus_tag="NCS54_00620200" class="clusterblast-orf" id="dummy-4_h4_6_11"  />
</g>
<g id="a4_0012"  >
<polygon points="274,90 274,90 279,85 274,80 274,80 274,90 " style="fill:white; stroke-width:1; stroke:black; " description="&lt;b&gt;NCS54_00620100&lt;/b&gt;&lt;br&gt;Hypothetical protein&lt;br&gt;Location: 4847026 - 4846203" locus_tag="NCS54_00620100" class="clusterblast-orf" id="dummy-4_h4_6_12"  />
</g>
<g id="a4_0013"  >
<polygon points="292,90 299,90 304,85 299,80 292,80 292,90 " style="fill:white; stroke-width:1; stroke:black; " description="&lt;b&gt;NCS54_00620000&lt;/b&gt;&lt;br&gt;Hypothetical protein&lt;br&gt;Location: 4844057 - 4841923" locus_tag="NCS54_00620000" class="clusterblast-orf" id="dummy-4_h4_6_13"  />
</g>
<g id="a4_0014"  >
<polygon points="306,90 319,90 324,85 319,80 306,80 306,90 " style="fill:#cdd815; stroke-width:1; stroke:black; " description="&lt;b&gt;NCS54_00619900&lt;/b&gt;&lt;br&gt;Hypothetical protein&lt;br&gt;Location: 4841564 - 4838471&lt;br&gt;&lt;br&gt;&lt;b&gt;BlastP hit with input.path1.gene383&lt;/b&gt;&lt;br&gt;Percentage identity: 47&lt;br&gt;Percentage coverage: 20&lt;br&gt;BLAST bit score: 316&lt;br&gt;E-value: 4.31e-89" locus_tag="NCS54_00619900" class="clusterblast-orf" id="dummy-4_h4_6_14"  />
</g>
<g id="a4_0015"  >
<polygon points="331,90 331,90 336,85 331,80 331,80 331,90 " style="fill:white; stroke-width:1; stroke:black; " description="&lt;b&gt;NCS54_00619800&lt;/b&gt;&lt;br&gt;Hypothetical protein&lt;br&gt;Location: 4837391 - 4836424" locus_tag="NCS54_00619800" class="clusterblast-orf" id="dummy-4_h4_6_15"  />
</g>
<g id="a4_0016"  >
<polygon points="341,90 342,90 347,85 342,80 341,80 341,90 " style="fill:white; stroke-width:1; stroke:black; " description="&lt;b&gt;NCS54_00619700&lt;/b&gt;&lt;br&gt;Hypothetical protein&lt;br&gt;Location: 4835589 - 4834693" locus_tag="NCS54_00619700" class="clusterblast-orf" id="dummy-4_h4_6_16"  />
</g>
<g id="a4_0017"  >
<polygon points="347,85 352,80 354,80 354,90 352,90 347,85 " style="fill:white; stroke-width:1; stroke:black; " description="&lt;b&gt;NCS54_00619600&lt;/b&gt;&lt;br&gt;MaoC-like domain-containing protein&lt;br&gt;Location: 4834542 - 4833463" locus_tag="NCS54_00619600" class="clusterblast-orf" id="dummy-4_h4_6_17"  />
</g>
<g id="a4_0018"  >
<polygon points="360,85 365,80 372,80 372,90 365,90 360,85 " style="fill:white; stroke-width:1; stroke:black; " description="&lt;b&gt;NCS54_00619500&lt;/b&gt;&lt;br&gt;Riboflavin kinase&lt;br&gt;Location: 4832378 - 4830320" locus_tag="NCS54_00619500" class="clusterblast-orf" id="dummy-4_h4_6_18"  />
</g>
<g id="a4_0019"  >
<polygon points="373,85 378,80 384,80 384,90 378,90 373,85 " style="fill:white; stroke-width:1; stroke:black; " description="&lt;b&gt;NCS54_00619400&lt;/b&gt;&lt;br&gt;Putative Xaa-Pro aminopeptidase&lt;br&gt;Location: 4830195 - 4828315" locus_tag="NCS54_00619400" class="clusterblast-orf" id="dummy-4_h4_6_19"  />
</g>
<g id="a4_0020"  >
<polygon points="387,85 392,80 395,80 395,90 392,90 387,85 " style="fill:white; stroke-width:1; stroke:black; " description="&lt;b&gt;NCS54_00619300&lt;/b&gt;&lt;br&gt;AB hydrolase-1 domain-containing protein&lt;br&gt;Location: 4827716 - 4826474" locus_tag="NCS54_00619300" class="clusterblast-orf" id="dummy-4_h4_6_20"  />
</g>
<g id="a4_0021"  >
<polygon points="404,85 409,80 409,80 409,90 409,90 404,85 " style="fill:white; stroke-width:1; stroke:black; " description="&lt;b&gt;NCS54_00619200&lt;/b&gt;&lt;br&gt;Pyr-redox-2 domain-containing protein&lt;br&gt;Location: 4824945 - 4823944" locus_tag="NCS54_00619200" class="clusterblast-orf" id="dummy-4_h4_6_21"  />
</g>
<g id="a4_0022"  >
<polygon points="418,85 423,80 426,80 426,90 423,90 418,85 " style="fill:white; stroke-width:1; stroke:black; " description="&lt;b&gt;NCS54_00619100&lt;/b&gt;&lt;br&gt;Hypothetical protein&lt;br&gt;Location: 4822405 - 4821197" locus_tag="NCS54_00619100" class="clusterblast-orf" id="dummy-4_h4_6_22"  />
</g>
<g id="a4_0023"  >
<polygon points="433,85 438,80 439,80 439,90 438,90 433,85 " style="fill:white; stroke-width:1; stroke:black; " description="&lt;b&gt;NCS54_00619000&lt;/b&gt;&lt;br&gt;NmrA domain-containing protein&lt;br&gt;Location: 4819856 - 4818840" locus_tag="NCS54_00619000" class="clusterblast-orf" id="dummy-4_h4_6_23"  />
</g>
<g id="a4_0024"  >
<polygon points="443,85 448,80 451,80 451,90 448,90 443,85 " style="fill:white; stroke-width:1; stroke:black; " description="&lt;b&gt;NCS54_00618900&lt;/b&gt;&lt;br&gt;Peptidase A1 domain-containing protein&lt;br&gt;Location: 4818203 - 4816779" locus_tag="NCS54_00618900" class="clusterblast-orf" id="dummy-4_h4_6_24"  />
</g>
<g id="a4_0025"  >
<polygon points="459,90 464,90 469,85 464,80 459,80 459,90 " style="fill:white; stroke-width:1; stroke:black; " description="&lt;b&gt;NCS54_00618800&lt;/b&gt;&lt;br&gt;Serine/threonine-protein kinase RIO1&lt;br&gt;Location: 4815519 - 4813793" locus_tag="NCS54_00618800" class="clusterblast-orf" id="dummy-4_h4_6_25"  />
</g>
<g id="a4_0026"  >
<polygon points="473,85 478,80 489,80 489,90 478,90 473,85 " style="fill:white; stroke-width:1; stroke:black; " description="&lt;b&gt;NCS54_00618700&lt;/b&gt;&lt;br&gt;Hypothetical protein&lt;br&gt;Location: 4813113 - 4810413" locus_tag="NCS54_00618700" class="clusterblast-orf" id="dummy-4_h4_6_26"  />
</g>
<g id="a4_0027"  >
<polygon points="495,90 515,90 520,85 515,80 495,80 495,90 " style="fill:white; stroke-width:1; stroke:black; " description="&lt;b&gt;NCS54_00618600&lt;/b&gt;&lt;br&gt;RNA-dependent RNA polymerase&lt;br&gt;Location: 4809250 - 4805017" locus_tag="NCS54_00618600" class="clusterblast-orf" id="dummy-4_h4_6_27"  />
</g>
<g id="a4_0028"  >
<polygon points="524,85 529,80 530,80 530,90 529,90 524,85 " style="fill:white; stroke-width:1; stroke:black; " description="&lt;b&gt;NCS54_00618500&lt;/b&gt;&lt;br&gt;Hypothetical protein&lt;br&gt;Location: 4804373 - 4803362" locus_tag="NCS54_00618500" class="clusterblast-orf" id="dummy-4_h4_6_28"  />
</g>
<g id="a4_0029"  >
<polygon points="554,85 559,80 560,80 560,90 559,90 554,85 " style="fill:#15d8b6; stroke-width:1; stroke:black; " description="&lt;b&gt;NCS54_00618400&lt;/b&gt;&lt;br&gt;Hypothetical protein&lt;br&gt;Location: 4799253 - 4798152&lt;br&gt;&lt;br&gt;&lt;b&gt;BlastP hit with input.path1.gene384&lt;/b&gt;&lt;br&gt;Percentage identity: 31&lt;br&gt;Percentage coverage: 91&lt;br&gt;BLAST bit score: 149&lt;br&gt;E-value: 1.79e-40" locus_tag="NCS54_00618400" class="clusterblast-orf" id="dummy-4_h4_6_29"  />
</g>
<g id="a4_0030"  >
<polygon points="565,85 570,80 576,80 576,90 570,90 565,85 " style="fill:white; stroke-width:1; stroke:black; " description="&lt;b&gt;NCS54_00618300&lt;/b&gt;&lt;br&gt;Hypothetical protein&lt;br&gt;Location: 4797305 - 4795465" locus_tag="NCS54_00618300" class="clusterblast-orf" id="dummy-4_h4_6_30"  />
</g>
<g id="a4_0031"  >
<polygon points="587,85 592,80 593,80 593,90 592,90 587,85 " style="fill:white; stroke-width:1; stroke:black; " description="&lt;b&gt;NCS54_00618200&lt;/b&gt;&lt;br&gt;Chitin-binding type-4 domain-containing protein&lt;br&gt;Location: 4793553 - 4792663" locus_tag="NCS54_00618200" class="clusterblast-orf" id="dummy-4_h4_6_31"  />
</g>
<g id="a4_0032"  >
<polygon points="602,85 607,80 625,80 625,90 607,90 602,85 " style="fill:white; stroke-width:1; stroke:black; " description="&lt;b&gt;NCS54_00618100&lt;/b&gt;&lt;br&gt;Carrier domain-containing protein&lt;br&gt;Location: 4791013 - 4787165" locus_tag="NCS54_00618100" class="clusterblast-orf" id="dummy-4_h4_6_32"  />
</g>
<g id="a4_0033"  >
<polygon points="640,85 645,80 649,80 649,90 645,90 640,85 " style="fill:white; stroke-width:1; stroke:black; " description="&lt;b&gt;NCS54_00618000&lt;/b&gt;&lt;br&gt;Hypothetical protein&lt;br&gt;Location: 4784507 - 4782960" locus_tag="NCS54_00618000" class="clusterblast-orf" id="dummy-4_h4_6_33"  />
</g>
<g id="a4_0034"  >
<polygon points="671,90 676,90 681,85 676,80 671,80 671,90 " style="fill:white; stroke-width:1; stroke:black; " description="&lt;b&gt;NCS54_00617900&lt;/b&gt;&lt;br&gt;Protein PNS1&lt;br&gt;Location: 4779339 - 4777636" locus_tag="NCS54_00617900" class="clusterblast-orf" id="dummy-4_h4_6_34"  />
</g>
<g id="a4_0035"  >
<polygon points="687,85 692,80 696,80 696,90 692,90 687,85 " style="fill:white; stroke-width:1; stroke:black; " description="&lt;b&gt;NCS54_00617800&lt;/b&gt;&lt;br&gt;Autophagy-related protein 17&lt;br&gt;Location: 4776572 - 4774927" locus_tag="NCS54_00617800" class="clusterblast-orf" id="dummy-4_h4_6_35"  />
</g>
<g id="a4_0036"  >
<polygon points="701,85 706,80 719,80 719,90 706,90 701,85 " style="fill:white; stroke-width:1; stroke:black; " description="&lt;b&gt;NCS54_00617700&lt;/b&gt;&lt;br&gt;Hypothetical protein&lt;br&gt;Location: 4774116 - 4771028" locus_tag="NCS54_00617700" class="clusterblast-orf" id="dummy-4_h4_6_36"  />
</g>
<g id="a4_0037"  >
<polygon points="753,90 756,85 753,80 753,90 " style="fill:white; stroke-width:1; stroke:black; " description="&lt;b&gt;NCS54_00617600&lt;/b&gt;&lt;br&gt;EKC/KEOPS complex subunit BUD32&lt;br&gt;Location: 4765188 - 4764767" locus_tag="NCS54_00617600" class="clusterblast-orf" id="dummy-4_h4_6_37"  />
</g>
<g id="a4_0038"  >
<polygon points="757,90 761,85 757,80 757,90 " style="fill:white; stroke-width:1; stroke:black; " description="&lt;b&gt;NCS54_00617500&lt;/b&gt;&lt;br&gt;EKC/KEOPS complex subunit BUD32&lt;br&gt;Location: 4764661 - 4763854" locus_tag="NCS54_00617500" class="clusterblast-orf" id="dummy-4_h4_6_38"  />
</g>
<g id="a4_0039"  >
<polygon points="766,85 770,80 770,90 766,85 " style="fill:white; stroke-width:1; stroke:black; " description="&lt;b&gt;NCS54_00617400&lt;/b&gt;&lt;br&gt;Hypothetical protein&lt;br&gt;Location: 4763095 - 4762307" locus_tag="NCS54_00617400" class="clusterblast-orf" id="dummy-4_h4_6_39"  />
</g>
<g id="a4_0040"  >
<polygon points="772,85 777,80 780,80 780,90 777,90 772,85 " style="fill:white; stroke-width:1; stroke:black; " description="&lt;b&gt;NCS54_00617300&lt;/b&gt;&lt;br&gt;Nickel/cobalt efflux system&lt;br&gt;Location: 4761972 - 4760743" locus_tag="NCS54_00617300" class="clusterblast-orf" id="dummy-4_h4_6_40"  />
</g>
</svg>
