<svg xmlns="http://www.w3.org/2000/svg" xmlns:xlink="http://www.w3.org/1999/xlink" version="1.1" x="0" y="0" height="230" width="800" viewBox="0 0 800 230" preserveAspectRatio="none"  >
<g label="Query sequence" class="clusterblast-cluster"  >
<text x="5" y="20" class="clusterblast-acc"  >
Query sequence</text>
<line x1="10" y1="35" x2="778.0" y2="35" style="stroke-width:1; stroke:grey; "  />
<polygon points="113,40 120,40 125,35 120,30 113,30 113,40 " style="fill:#d81515; stroke-width:1; stroke:black; " description="&lt;b&gt;input.path1.gene373&lt;/b&gt;&lt;br&gt;input.path1.gene373&lt;br&gt;Location: 1477914 - 1478787" locus_tag="input.path1.gene373" class="clusterblast-orf" id="dummy-5_q0_0_all"  />
<polygon points="155,35 160,30 195,30 195,40 160,40 155,35 " style="fill:white; stroke-width:1; stroke:black; " description="&lt;b&gt;input.path1.gene374&lt;/b&gt;&lt;br&gt;input.path1.gene374&lt;br&gt;Location: 1480826 - 1483578" locus_tag="input.path1.gene374" class="clusterblast-orf" id="dummy-5_q1_0_all"  />
<polygon points="208,40 252,40 257,35 252,30 208,30 208,40 " style="fill:#5cd815; stroke-width:1; stroke:black; " description="&lt;b&gt;input.path1.gene375&lt;/b&gt;&lt;br&gt;input.path1.gene375&lt;br&gt;Location: 1484500 - 1487848" locus_tag="input.path1.gene375" class="clusterblast-orf" id="dummy-5_q2_0_all"  />
<polygon points="260,35 265,30 267,30 267,40 265,40 260,35 " style="fill:#15a3d8; stroke-width:1; stroke:black; " description="&lt;b&gt;input.path1.gene376&lt;/b&gt;&lt;br&gt;input.path1.gene376&lt;br&gt;Location: 1488092 - 1488517" locus_tag="input.path1.gene376" class="clusterblast-orf" id="dummy-5_q3_0_all"  />
<polygon points="302,35 307,30 326,30 326,40 307,40 302,35 " style="fill:#c715d8; stroke-width:1; stroke:black; " description="&lt;b&gt;input.path1.gene377&lt;/b&gt;&lt;br&gt;input.path1.gene377&lt;br&gt;Location: 1490973 - 1492636" locus_tag="input.path1.gene377" class="clusterblast-orf" id="dummy-5_q4_0_all"  />
<polygon points="342,40 386,40 391,35 386,30 342,30 342,40 " style="fill:#d88015; stroke-width:1; stroke:black; " description="&lt;b&gt;input.path1.gene378&lt;/b&gt;&lt;br&gt;input.path1.gene378&lt;br&gt;Location: 1493718 - 1497057" locus_tag="input.path1.gene378" class="clusterblast-orf" id="dummy-5_q5_0_all"  />
<polygon points="392,35 397,30 405,30 405,40 397,40 392,35 " style="fill:#15d839; stroke-width:1; stroke:black; " description="&lt;b&gt;input.path1.gene379&lt;/b&gt;&lt;br&gt;input.path1.gene379&lt;br&gt;Location: 1497156 - 1498021" locus_tag="input.path1.gene379" class="clusterblast-orf" id="dummy-5_q6_0_all"  />
<polygon points="440,40 485,40 490,35 485,30 440,30 440,40 " style="fill:#1539d8; stroke-width:1; stroke:black; " description="&lt;b&gt;input.path1.gene380&lt;/b&gt;&lt;br&gt;input.path1.gene380&lt;br&gt;Location: 1500486 - 1503926" locus_tag="input.path1.gene380" class="clusterblast-orf" id="dummy-5_q7_0_all"  />
<polygon points="515,40 536,40 541,35 536,30 515,30 515,40 " style="fill:#d81580; stroke-width:1; stroke:black; " description="&lt;b&gt;input.path1.gene381&lt;/b&gt;&lt;br&gt;input.path1.gene381&lt;br&gt;Location: 1505652 - 1507410" locus_tag="input.path1.gene381" class="clusterblast-orf" id="dummy-5_q8_0_all"  />
<polygon points="566,40 602,40 607,35 602,30 566,30 566,40 " style="fill:#c7d815; stroke-width:1; stroke:black; " description="&lt;b&gt;input.path1.gene382&lt;/b&gt;&lt;br&gt;input.path1.gene382&lt;br&gt;Location: 1509171 - 1511981" locus_tag="input.path1.gene382" class="clusterblast-orf" id="dummy-5_q9_0_all"  />
<polygon points="611,35 616,30 619,30 619,40 616,40 611,35 " style="fill:#15d8a3; stroke-width:1; stroke:black; " description="&lt;b&gt;input.path1.gene383&lt;/b&gt;&lt;br&gt;input.path1.gene383&lt;br&gt;Location: 1512204 - 1512772" locus_tag="input.path1.gene383" class="clusterblast-orf" id="dummy-5_q10_0_all"  />
<polygon points="619,40 622,35 619,30 619,40 " style="fill:white; stroke-width:1; stroke:black; " description="&lt;b&gt;input.path1.gene384&lt;/b&gt;&lt;br&gt;input.path1.gene384&lt;br&gt;Location: 1512777 - 1513015" locus_tag="input.path1.gene384" class="clusterblast-orf" id="dummy-5_q11_0_all"  />
<polygon points="629,35 634,30 667,30 667,40 634,40 629,35 " style="fill:#5c15d8; stroke-width:1; stroke:black; " description="&lt;b&gt;input.path1.gene385&lt;/b&gt;&lt;br&gt;input.path1.gene385&lt;br&gt;Location: 1513500 - 1516070" locus_tag="input.path1.gene385" class="clusterblast-orf" id="dummy-5_q12_0_all"  />
</g>
<g label="NC_072850" description="NC_072850 (2763613-2827398): Fusarium oxysporum Fo47 chromosome XI, complete ... (21% of genes show similarity), NRPS-like" class="clusterblast-cluster"  >
<text x="5" y="70" class="clusterblast-acc"  >
<a xlink:href="https://antismash-db.secondarymetabolites.org/area?record=NC_072850&amp;start=2763613&amp;end=2827398" target="_blank">NC_072850 (2763613-2827398)</a>: Fusarium oxysporum Fo47 chromosome XI, complete ... (21% of genes show similarity), NRPS-like</text>
<line x1="10" y1="85" x2="778.0" y2="85" style="stroke-width:1; stroke:grey; "  />
</g>
<g id="a5_000"  >
<polygon points="0,90 7,90 12,85 7,80 0,80 0,90 " style="fill:white; stroke-width:1; stroke:black; " description="&lt;b&gt;FOBC_16529&lt;/b&gt;&lt;br&gt;uncharacterized protein&lt;br&gt;Location: 2818412 - 2817564" locus_tag="FOBC_16529" class="clusterblast-orf" id="dummy-5_h5_6_0"  />
</g>
<g id="a5_001"  >
<polygon points="129,90 129,90 134,85 129,80 129,80 129,90 " style="fill:white; stroke-width:1; stroke:black; " description="&lt;b&gt;FOBC_16528&lt;/b&gt;&lt;br&gt;uncharacterized protein&lt;br&gt;Location: 2809478 - 2809155" locus_tag="FOBC_16528" class="clusterblast-orf" id="dummy-5_h5_6_1"  />
</g>
<g id="a5_002"  >
<polygon points="188,85 193,80 227,80 227,90 193,90 188,85 " style="fill:white; stroke-width:1; stroke:black; " description="&lt;b&gt;FOBC_16527&lt;/b&gt;&lt;br&gt;uncharacterized protein&lt;br&gt;Location: 2805444 - 2802716" locus_tag="FOBC_16527" class="clusterblast-orf" id="dummy-5_h5_6_2"  />
</g>
<g id="a5_003"  >
<polygon points="241,85 246,80 256,80 256,90 246,90 241,85 " style="fill:white; stroke-width:1; stroke:black; " description="&lt;b&gt;FOBC_16526&lt;/b&gt;&lt;br&gt;alcohol dehydrogenase&lt;br&gt;Location: 2801766 - 2800770" locus_tag="FOBC_16526" class="clusterblast-orf" id="dummy-5_h5_6_3"  />
</g>
<g id="a5_004"  >
<polygon points="270,85 275,80 294,80 294,90 275,90 270,85 " style="fill:#c715d8; stroke-width:1; stroke:black; " description="&lt;b&gt;FOBC_16525&lt;/b&gt;&lt;br&gt;uncharacterized protein&lt;br&gt;Location: 2799799 - 2798156&lt;br&gt;&lt;br&gt;&lt;b&gt;BlastP hit with input.path1.gene377&lt;/b&gt;&lt;br&gt;Percentage identity: 71&lt;br&gt;Percentage coverage: 106&lt;br&gt;BLAST bit score: 747&lt;br&gt;E-value: 2.62e-269" locus_tag="FOBC_16525" class="clusterblast-orf" id="dummy-5_h5_6_4"  />
</g>
<g id="a5_005"  >
<polygon points="305,90 355,90 360,85 355,80 305,80 305,90 " style="fill:#d88015; stroke-width:1; stroke:black; " description="&lt;b&gt;FOBC_16524&lt;/b&gt;&lt;br&gt;uncharacterized protein&lt;br&gt;Location: 2797398 - 2793614&lt;br&gt;&lt;br&gt;&lt;b&gt;BlastP hit with input.path1.gene378&lt;/b&gt;&lt;br&gt;Percentage identity: 56&lt;br&gt;Percentage coverage: 115&lt;br&gt;BLAST bit score: 1107&lt;br&gt;E-value: 0.0" locus_tag="FOBC_16524" class="clusterblast-orf" id="dummy-5_h5_6_5"  />
</g>
<g id="a5_006"  >
<polygon points="364,85 369,80 398,80 398,90 369,90 364,85 " style="fill:#15a3d8; stroke-width:1; stroke:black; " description="&lt;b&gt;FOBC_16523&lt;/b&gt;&lt;br&gt;uncharacterized protein&lt;br&gt;Location: 2793331 - 2790977&lt;br&gt;&lt;br&gt;&lt;b&gt;BlastP hit with input.path1.gene376&lt;/b&gt;&lt;br&gt;Percentage identity: 65&lt;br&gt;Percentage coverage: 60&lt;br&gt;BLAST bit score: 51&lt;br&gt;E-value: 2.98e-07" locus_tag="FOBC_16523" class="clusterblast-orf" id="dummy-5_h5_6_6"  />
</g>
<g id="a5_007"  >
<polygon points="428,85 433,80 449,80 449,90 433,90 428,85 " style="fill:white; stroke-width:1; stroke:black; " description="&lt;b&gt;FOBC_16522&lt;/b&gt;&lt;br&gt;uncharacterized protein&lt;br&gt;Location: 2788926 - 2787472" locus_tag="FOBC_16522" class="clusterblast-orf" id="dummy-5_h5_6_7"  />
</g>
<g id="a5_008"  >
<polygon points="453,90 464,90 469,85 464,80 453,80 453,90 " style="fill:white; stroke-width:1; stroke:black; " description="&lt;b&gt;FOBC_16521&lt;/b&gt;&lt;br&gt;uncharacterized protein&lt;br&gt;Location: 2787148 - 2786077" locus_tag="FOBC_16521" class="clusterblast-orf" id="dummy-5_h5_6_8"  />
</g>
<g id="a5_009"  >
<polygon points="507,85 512,80 516,80 516,90 512,90 507,85 " style="fill:white; stroke-width:1; stroke:black; " description="&lt;b&gt;FOBC_16520&lt;/b&gt;&lt;br&gt;uncharacterized protein&lt;br&gt;Location: 2783443 - 2782850" locus_tag="FOBC_16520" class="clusterblast-orf" id="dummy-5_h5_6_9"  />
</g>
<g id="a5_0010"  >
<polygon points="524,90 541,90 546,85 541,80 524,80 524,90 " style="fill:white; stroke-width:1; stroke:black; " description="&lt;b&gt;FOBC_16519&lt;/b&gt;&lt;br&gt;uncharacterized protein&lt;br&gt;Location: 2782283 - 2780804" locus_tag="FOBC_16519" class="clusterblast-orf" id="dummy-5_h5_6_10"  />
</g>
<g id="a5_0011"  >
<polygon points="629,90 647,90 652,85 647,80 629,80 629,90 " style="fill:white; stroke-width:1; stroke:black; " description="&lt;b&gt;FOBC_16518&lt;/b&gt;&lt;br&gt;uncharacterized protein&lt;br&gt;Location: 2775094 - 2773501" locus_tag="FOBC_16518" class="clusterblast-orf" id="dummy-5_h5_6_11"  />
</g>
<g id="a5_0012"  >
<polygon points="693,90 699,90 704,85 699,80 693,80 693,90 " style="fill:white; stroke-width:1; stroke:black; " description="&lt;b&gt;FOBC_16517&lt;/b&gt;&lt;br&gt;uncharacterized protein&lt;br&gt;Location: 2770624 - 2769890" locus_tag="FOBC_16517" class="clusterblast-orf" id="dummy-5_h5_6_12"  />
</g>
<g id="a5_0013"  >
<polygon points="770,90 775,90 780,85 775,80 770,80 770,90 " style="fill:white; stroke-width:1; stroke:black; " description="&lt;b&gt;FOBC_16516&lt;/b&gt;&lt;br&gt;uncharacterized protein&lt;br&gt;Location: 2765373 - 2764697" locus_tag="FOBC_16516" class="clusterblast-orf" id="dummy-5_h5_6_13"  />
</g>
</svg>
