<svg xmlns="http://www.w3.org/2000/svg" xmlns:xlink="http://www.w3.org/1999/xlink" version="1.1" x="0" y="0" height="230" width="800" viewBox="0 0 800 230" preserveAspectRatio="none"  >
<g label="Query sequence" class="clusterblast-cluster"  >
<text x="5" y="20" class="clusterblast-acc"  >
Query sequence</text>
<line x1="10" y1="35" x2="778.0" y2="35" style="stroke-width:1; stroke:grey; "  />
<polygon points="95,40 187,40 192,35 187,30 95,30 95,40 " style="fill:#d81515; stroke-width:1; stroke:black; " description="&lt;b&gt;input.path1.gene1295&lt;/b&gt;&lt;br&gt;input.path1.gene1295&lt;br&gt;Location: 5072276 - 5075652" locus_tag="input.path1.gene1295" class="clusterblast-orf" id="dummy-3_q0_0_all"  />
<polygon points="192,35 197,30 277,30 277,40 197,40 192,35 " style="fill:#15d815; stroke-width:1; stroke:black; " description="&lt;b&gt;input.path1.gene1296&lt;/b&gt;&lt;br&gt;input.path1.gene1296&lt;br&gt;Location: 5075655 - 5078621" locus_tag="input.path1.gene1296" class="clusterblast-orf" id="dummy-3_q1_0_all"  />
<polygon points="364,35 369,30 403,30 403,40 369,40 364,35 " style="fill:#1515d8; stroke-width:1; stroke:black; " description="&lt;b&gt;input.path1.gene1297&lt;/b&gt;&lt;br&gt;input.path1.gene1297&lt;br&gt;Location: 5081660 - 5083023" locus_tag="input.path1.gene1297" class="clusterblast-orf" id="dummy-3_q2_0_all"  />
<polygon points="433,40 463,40 468,35 463,30 433,30 433,40 " style="fill:#d815d8; stroke-width:1; stroke:black; " description="&lt;b&gt;input.path1.gene1298&lt;/b&gt;&lt;br&gt;input.path1.gene1298&lt;br&gt;Location: 5084047 - 5085286" locus_tag="input.path1.gene1298" class="clusterblast-orf" id="dummy-3_q3_0_all"  />
<polygon points="595,40 609,40 614,35 609,30 595,30 595,40 " style="fill:#d8d815; stroke-width:1; stroke:black; " description="&lt;b&gt;input.path1.gene1299&lt;/b&gt;&lt;br&gt;input.path1.gene1299&lt;br&gt;Location: 5089705 - 5090355" locus_tag="input.path1.gene1299" class="clusterblast-orf" id="dummy-3_q4_0_all"  />
<polygon points="634,35 639,30 685,30 685,40 639,40 634,35 " style="fill:#15d8d8; stroke-width:1; stroke:black; " description="&lt;b&gt;input.path1.gene1300&lt;/b&gt;&lt;br&gt;input.path1.gene1300&lt;br&gt;Location: 5091063 - 5092831" locus_tag="input.path1.gene1300" class="clusterblast-orf" id="dummy-3_q5_0_all"  />
</g>
<g label="NC_054695" description="NC_054695 (310035-341675): Aspergillus flavus NRRL3357 chromosome 5, complete... (18% of genes show similarity), terpene" class="clusterblast-cluster"  >
<text x="5" y="70" class="clusterblast-acc"  >
<a xlink:href="https://antismash-db.secondarymetabolites.org/area?record=NC_054695&amp;start=310035&amp;end=341675" target="_blank">NC_054695 (310035-341675)</a>: Aspergillus flavus NRRL3357 chromosome 5, complete... (18% of genes show similarity), terpene</text>
<line x1="10" y1="85" x2="778.0" y2="85" style="stroke-width:1; stroke:grey; "  />
</g>
<g id="a3_000"  >
<polygon points="0,90 17,90 22,85 17,80 0,80 0,90 " style="fill:white; stroke-width:1; stroke:black; " description="&lt;b&gt;G4B84_007556&lt;/b&gt;&lt;br&gt;uncharacterized protein&lt;br&gt;Location: 341236 - 340436" locus_tag="G4B84_007556" class="clusterblast-orf" id="dummy-3_h3_2_0"  />
</g>
<g id="a3_001"  >
<polygon points="47,90 66,90 71,85 66,80 47,80 47,90 " style="fill:white; stroke-width:1; stroke:black; " description="&lt;b&gt;G4B84_007555&lt;/b&gt;&lt;br&gt;uncharacterized protein&lt;br&gt;Location: 339563 - 338748" locus_tag="G4B84_007555" class="clusterblast-orf" id="dummy-3_h3_2_1"  />
</g>
<g id="a3_002"  >
<polygon points="166,90 186,90 191,85 186,80 166,80 166,90 " style="fill:white; stroke-width:1; stroke:black; " description="&lt;b&gt;G4B84_007554&lt;/b&gt;&lt;br&gt;uncharacterized protein&lt;br&gt;Location: 335434 - 334546" locus_tag="G4B84_007554" class="clusterblast-orf" id="dummy-3_h3_2_2"  />
</g>
<g id="a3_003"  >
<polygon points="211,85 216,80 225,80 225,90 216,90 211,85 " style="fill:white; stroke-width:1; stroke:black; " description="&lt;b&gt;G4B84_007553&lt;/b&gt;&lt;br&gt;uncharacterized protein&lt;br&gt;Location: 333875 - 333357" locus_tag="G4B84_007553" class="clusterblast-orf" id="dummy-3_h3_2_3"  />
</g>
<g id="a3_004"  >
<polygon points="271,90 330,90 335,85 330,80 271,80 271,90 " style="fill:white; stroke-width:1; stroke:black; " description="&lt;b&gt;G4B84_007552&lt;/b&gt;&lt;br&gt;uncharacterized protein&lt;br&gt;Location: 331770 - 329537" locus_tag="G4B84_007552" class="clusterblast-orf" id="dummy-3_h3_2_4"  />
</g>
<g id="a3_005"  >
<polygon points="375,90 390,90 395,85 390,80 375,80 375,90 " style="fill:white; stroke-width:1; stroke:black; " description="&lt;b&gt;G4B84_007551&lt;/b&gt;&lt;br&gt;uncharacterized protein&lt;br&gt;Location: 328149 - 327430" locus_tag="G4B84_007551" class="clusterblast-orf" id="dummy-3_h3_2_5"  />
</g>
<g id="a3_006"  >
<polygon points="417,85 422,80 464,80 464,90 422,90 417,85 " style="fill:#1515d8; stroke-width:1; stroke:black; " description="&lt;b&gt;G4B84_007550&lt;/b&gt;&lt;br&gt;uncharacterized protein&lt;br&gt;Location: 326675 - 325036&lt;br&gt;&lt;br&gt;&lt;b&gt;BlastP hit with input.path1.gene1297&lt;/b&gt;&lt;br&gt;Percentage identity: 43&lt;br&gt;Percentage coverage: 118&lt;br&gt;BLAST bit score: 254&lt;br&gt;E-value: 2.19e-81" locus_tag="G4B84_007550" class="clusterblast-orf" id="dummy-3_h3_2_6"  />
</g>
<g id="a3_007"  >
<polygon points="496,90 536,90 541,85 536,80 496,80 496,90 " style="fill:#d815d8; stroke-width:1; stroke:black; " description="&lt;b&gt;G4B84_007549&lt;/b&gt;&lt;br&gt;uncharacterized protein&lt;br&gt;Location: 323914 - 322372&lt;br&gt;&lt;br&gt;&lt;b&gt;BlastP hit with input.path1.gene1298&lt;/b&gt;&lt;br&gt;Percentage identity: 54&lt;br&gt;Percentage coverage: 32&lt;br&gt;BLAST bit score: 110&lt;br&gt;E-value: 3.98e-25" locus_tag="G4B84_007549" class="clusterblast-orf" id="dummy-3_h3_2_7"  />
</g>
<g id="a3_008"  >
<polygon points="571,90 595,90 600,85 595,80 571,80 571,90 " style="fill:white; stroke-width:1; stroke:black; " description="&lt;b&gt;G4B84_007548&lt;/b&gt;&lt;br&gt;uncharacterized protein&lt;br&gt;Location: 321322 - 320313" locus_tag="G4B84_007548" class="clusterblast-orf" id="dummy-3_h3_2_8"  />
</g>
<g id="a3_009"  >
<polygon points="670,90 726,90 731,85 726,80 670,80 670,90 " style="fill:white; stroke-width:1; stroke:black; " description="&lt;b&gt;G4B84_007547&lt;/b&gt;&lt;br&gt;uncharacterized protein&lt;br&gt;Location: 317873 - 315736" locus_tag="G4B84_007547" class="clusterblast-orf" id="dummy-3_h3_2_9"  />
</g>
<g id="a3_0010"  >
<polygon points="740,85 745,80 780,80 780,90 745,90 740,85 " style="fill:white; stroke-width:1; stroke:black; " description="&lt;b&gt;G4B84_007546&lt;/b&gt;&lt;br&gt;uncharacterized protein&lt;br&gt;Location: 315408 - 314042" locus_tag="G4B84_007546" class="clusterblast-orf" id="dummy-3_h3_2_10"  />
</g>
</svg>
