<svg xmlns="http://www.w3.org/2000/svg" xmlns:xlink="http://www.w3.org/1999/xlink" version="1.1" x="0" y="0" height="230" width="800" viewBox="0 0 800 230" preserveAspectRatio="none"  >
<g label="Query sequence" class="clusterblast-cluster"  >
<text x="5" y="20" class="clusterblast-acc"  >
Query sequence</text>
<line x1="10" y1="35" x2="778.0" y2="35" style="stroke-width:1; stroke:grey; "  />
<polygon points="141,35 146,30 161,30 161,40 146,40 141,35 " style="fill:#d81515; stroke-width:1; stroke:black; " description="&lt;b&gt;input.path1.gene376&lt;/b&gt;&lt;br&gt;input.path1.gene376&lt;br&gt;Location: 1282589 - 1284192" locus_tag="input.path1.gene376" class="clusterblast-orf" id="dummy-4_q0_0_all"  />
<polygon points="189,40 202,40 207,35 202,30 189,30 189,40 " style="fill:#3cd815; stroke-width:1; stroke:black; " description="&lt;b&gt;input.path1.gene377&lt;/b&gt;&lt;br&gt;input.path1.gene377&lt;br&gt;Location: 1286487 - 1287957" locus_tag="input.path1.gene377" class="clusterblast-orf" id="dummy-4_q1_0_all"  />
<polygon points="216,35 221,30 235,30 235,40 221,40 216,35 " style="fill:#1563d8; stroke-width:1; stroke:black; " description="&lt;b&gt;input.path1.gene378&lt;/b&gt;&lt;br&gt;input.path1.gene378&lt;br&gt;Location: 1288684 - 1290158" locus_tag="input.path1.gene378" class="clusterblast-orf" id="dummy-4_q2_0_all"  />
<polygon points="244,40 247,40 252,35 247,30 244,30 244,40 " style="fill:#b115d8; stroke-width:1; stroke:black; " description="&lt;b&gt;input.path1.gene379&lt;/b&gt;&lt;br&gt;input.path1.gene379&lt;br&gt;Location: 1290925 - 1291571" locus_tag="input.path1.gene379" class="clusterblast-orf" id="dummy-4_q3_0_all"  />
<polygon points="254,35 259,30 260,30 260,40 259,40 254,35 " style="fill:white; stroke-width:1; stroke:black; " description="&lt;b&gt;input.path1.gene380&lt;/b&gt;&lt;br&gt;input.path1.gene380&lt;br&gt;Location: 1291723 - 1292199" locus_tag="input.path1.gene380" class="clusterblast-orf" id="dummy-4_q4_0_all"  />
<polygon points="298,40 405,40 410,35 405,30 298,30 298,40 " style="fill:#d88a15; stroke-width:1; stroke:black; " description="&lt;b&gt;input.path1.gene381&lt;/b&gt;&lt;br&gt;input.path1.gene381&lt;br&gt;Location: 1295269 - 1304269" locus_tag="input.path1.gene381" class="clusterblast-orf" id="dummy-4_q5_0_all"  />
<polygon points="412,35 417,30 424,30 424,40 417,40 412,35 " style="fill:#15d863; stroke-width:1; stroke:black; " description="&lt;b&gt;input.path1.gene382&lt;/b&gt;&lt;br&gt;input.path1.gene382&lt;br&gt;Location: 1304407 - 1305355" locus_tag="input.path1.gene382" class="clusterblast-orf" id="dummy-4_q6_0_all"  />
<polygon points="526,40 545,40 550,35 545,30 526,30 526,40 " style="fill:#3c15d8; stroke-width:1; stroke:black; " description="&lt;b&gt;input.path1.gene383&lt;/b&gt;&lt;br&gt;input.path1.gene383&lt;br&gt;Location: 1313601 - 1315507" locus_tag="input.path1.gene383" class="clusterblast-orf" id="dummy-4_q7_0_all"  />
<polygon points="569,40 577,40 582,35 577,30 569,30 569,40 " style="fill:#d8158a; stroke-width:1; stroke:black; " description="&lt;b&gt;input.path1.gene384&lt;/b&gt;&lt;br&gt;input.path1.gene384&lt;br&gt;Location: 1317030 - 1318062" locus_tag="input.path1.gene384" class="clusterblast-orf" id="dummy-4_q8_0_all"  />
<polygon points="588,35 593,30 598,30 598,40 593,40 588,35 " style="fill:#b1d815; stroke-width:1; stroke:black; " description="&lt;b&gt;input.path1.gene385&lt;/b&gt;&lt;br&gt;input.path1.gene385&lt;br&gt;Location: 1318596 - 1319370" locus_tag="input.path1.gene385" class="clusterblast-orf" id="dummy-4_q9_0_all"  />
<polygon points="603,35 605,30 605,40 603,35 " style="fill:white; stroke-width:1; stroke:black; " description="&lt;b&gt;input.path1.gene386&lt;/b&gt;&lt;br&gt;input.path1.gene386&lt;br&gt;Location: 1319757 - 1319937" locus_tag="input.path1.gene386" class="clusterblast-orf" id="dummy-4_q10_0_all"  />
<polygon points="608,40 623,40 628,35 623,30 608,30 608,40 " style="fill:#15d8d8; stroke-width:1; stroke:black; " description="&lt;b&gt;input.path1.gene387&lt;/b&gt;&lt;br&gt;input.path1.gene387&lt;br&gt;Location: 1320152 - 1321786" locus_tag="input.path1.gene387" class="clusterblast-orf" id="dummy-4_q11_0_all"  />
<polygon points="629,40 634,40 639,35 634,30 629,30 629,40 " style="fill:white; stroke-width:1; stroke:black; " description="&lt;b&gt;input.path1.gene388&lt;/b&gt;&lt;br&gt;input.path1.gene388&lt;br&gt;Location: 1321868 - 1322644" locus_tag="input.path1.gene388" class="clusterblast-orf" id="dummy-4_q12_0_all"  />
</g>
<g label="NC_070531" description="NC_070531 (422337-490636): Fusarium keratoplasticum isolate Fu6.1 chromosome ... (18% of genes show similarity), T1PKS" class="clusterblast-cluster"  >
<text x="5" y="70" class="clusterblast-acc"  >
<a xlink:href="https://antismash-db.secondarymetabolites.org/area?record=NC_070531&amp;start=422337&amp;end=490636" target="_blank">NC_070531 (422337-490636)</a>: Fusarium keratoplasticum isolate Fu6.1 chromosome ... (18% of genes show similarity), T1PKS</text>
<line x1="10" y1="85" x2="778.0" y2="85" style="stroke-width:1; stroke:grey; "  />
</g>
<g id="a4_000"  >
<polygon points="0,90 0,90 5,85 0,80 0,80 0,90 " style="fill:white; stroke-width:1; stroke:black; " description="&lt;b&gt;NCS57_00352400&lt;/b&gt;&lt;br&gt;hypothetical protein&lt;br&gt;Location: 485853 - 485418" locus_tag="NCS57_00352400" class="clusterblast-orf" id="dummy-4_h4_5_0"  />
</g>
<g id="a4_001"  >
<polygon points="14,90 21,90 26,85 21,80 14,80 14,90 " style="fill:white; stroke-width:1; stroke:black; " description="&lt;b&gt;NCS57_00352300&lt;/b&gt;&lt;br&gt;Protein YIP&lt;br&gt;Location: 484714 - 483701" locus_tag="NCS57_00352300" class="clusterblast-orf" id="dummy-4_h4_5_1"  />
</g>
<g id="a4_002"  >
<polygon points="35,85 40,80 59,80 59,90 40,90 35,85 " style="fill:white; stroke-width:1; stroke:black; " description="&lt;b&gt;NCS57_00352200&lt;/b&gt;&lt;br&gt;hypothetical protein&lt;br&gt;Location: 483013 - 481089" locus_tag="NCS57_00352200" class="clusterblast-orf" id="dummy-4_h4_5_2"  />
</g>
<g id="a4_003"  >
<polygon points="69,85 74,80 75,80 75,90 74,90 69,85 " style="fill:white; stroke-width:1; stroke:black; " description="&lt;b&gt;NCS57_00352100&lt;/b&gt;&lt;br&gt;hypothetical protein&lt;br&gt;Location: 480268 - 479816" locus_tag="NCS57_00352100" class="clusterblast-orf" id="dummy-4_h4_5_3"  />
</g>
<g id="a4_004"  >
<polygon points="89,90 100,90 105,85 100,80 89,80 89,90 " style="fill:white; stroke-width:1; stroke:black; " description="&lt;b&gt;NCS57_00352000&lt;/b&gt;&lt;br&gt;DAO domain-containing protein&lt;br&gt;Location: 478626 - 477388" locus_tag="NCS57_00352000" class="clusterblast-orf" id="dummy-4_h4_5_4"  />
</g>
<g id="a4_005"  >
<polygon points="108,85 113,80 119,80 119,90 113,90 108,85 " style="fill:white; stroke-width:1; stroke:black; " description="&lt;b&gt;NCS57_00351900&lt;/b&gt;&lt;br&gt;hypothetical protein&lt;br&gt;Location: 477104 - 476220" locus_tag="NCS57_00351900" class="clusterblast-orf" id="dummy-4_h4_5_5"  />
</g>
<g id="a4_006"  >
<polygon points="138,85 143,80 153,80 153,90 143,90 138,85 " style="fill:white; stroke-width:1; stroke:black; " description="&lt;b&gt;NCS57_00351800&lt;/b&gt;&lt;br&gt;FAD-binding-3 domain-containing protein&lt;br&gt;Location: 474690 - 473479" locus_tag="NCS57_00351800" class="clusterblast-orf" id="dummy-4_h4_5_6"  />
</g>
<g id="a4_007"  >
<polygon points="162,90 166,90 171,85 166,80 162,80 162,90 " style="fill:white; stroke-width:1; stroke:black; " description="&lt;b&gt;NCS57_00351700&lt;/b&gt;&lt;br&gt;NAD(P)-bd-dom domain-containing protein&lt;br&gt;Location: 472756 - 472073" locus_tag="NCS57_00351700" class="clusterblast-orf" id="dummy-4_h4_5_7"  />
</g>
<g id="a4_008"  >
<polygon points="172,85 177,80 220,80 220,90 177,90 172,85 " style="fill:white; stroke-width:1; stroke:black; " description="&lt;b&gt;NCS57_00351600&lt;/b&gt;&lt;br&gt;Phosphoinositide phospholipase C&lt;br&gt;Location: 471944 - 468096" locus_tag="NCS57_00351600" class="clusterblast-orf" id="dummy-4_h4_5_8"  />
</g>
<g id="a4_009"  >
<polygon points="223,90 254,90 259,85 254,80 223,80 223,90 " style="fill:white; stroke-width:1; stroke:black; " description="&lt;b&gt;NCS57_00351500&lt;/b&gt;&lt;br&gt;Peptidase-S8 domain-containing protein&lt;br&gt;Location: 467857 - 464943" locus_tag="NCS57_00351500" class="clusterblast-orf" id="dummy-4_h4_5_9"  />
</g>
<g id="a4_0010"  >
<polygon points="264,90 269,90 274,85 269,80 264,80 264,90 " style="fill:white; stroke-width:1; stroke:black; " description="&lt;b&gt;NCS57_00351400&lt;/b&gt;&lt;br&gt;hypothetical protein&lt;br&gt;Location: 464598 - 463780" locus_tag="NCS57_00351400" class="clusterblast-orf" id="dummy-4_h4_5_10"  />
</g>
<g id="a4_0011"  >
<polygon points="285,85 289,80 289,90 285,85 " style="fill:white; stroke-width:1; stroke:black; " description="&lt;b&gt;NCS57_00351300&lt;/b&gt;&lt;br&gt;hypothetical protein&lt;br&gt;Location: 462884 - 462537" locus_tag="NCS57_00351300" class="clusterblast-orf" id="dummy-4_h4_5_11"  />
</g>
<g id="a4_0012"  >
<polygon points="313,85 318,80 416,80 416,90 318,90 313,85 " style="fill:#d88a15; stroke-width:1; stroke:black; " description="&lt;b&gt;NCS57_00351200&lt;/b&gt;&lt;br&gt;Carrier domain-containing protein&lt;br&gt;Location: 460636 - 452338&lt;br&gt;&lt;br&gt;&lt;b&gt;BlastP hit with input.path1.gene381&lt;/b&gt;&lt;br&gt;Percentage identity: 52&lt;br&gt;Percentage coverage: 104&lt;br&gt;BLAST bit score: 2543&lt;br&gt;E-value: 0.0" locus_tag="NCS57_00351200" class="clusterblast-orf" id="dummy-4_h4_5_12"  />
</g>
<g id="a4_0013"  >
<polygon points="435,85 440,80 453,80 453,90 440,90 435,85 " style="fill:#d81515; stroke-width:1; stroke:black; " description="&lt;b&gt;NCS57_00351100&lt;/b&gt;&lt;br&gt;hypothetical protein&lt;br&gt;Location: 450821 - 449392&lt;br&gt;&lt;br&gt;&lt;b&gt;BlastP hit with input.path1.gene376&lt;/b&gt;&lt;br&gt;Percentage identity: 44&lt;br&gt;Percentage coverage: 95&lt;br&gt;BLAST bit score: 189&lt;br&gt;E-value: 7.89e-56" locus_tag="NCS57_00351100" class="clusterblast-orf" id="dummy-4_h4_5_13"  />
</g>
<g id="a4_0014"  >
<polygon points="465,90 478,90 483,85 478,80 465,80 465,90 " style="fill:#3cd815; stroke-width:1; stroke:black; " description="&lt;b&gt;NCS57_00351000&lt;/b&gt;&lt;br&gt;hypothetical protein&lt;br&gt;Location: 448434 - 446917&lt;br&gt;&lt;br&gt;&lt;b&gt;BlastP hit with input.path1.gene377&lt;/b&gt;&lt;br&gt;Percentage identity: 65&lt;br&gt;Percentage coverage: 104&lt;br&gt;BLAST bit score: 643&lt;br&gt;E-value: 4.39e-229" locus_tag="NCS57_00351000" class="clusterblast-orf" id="dummy-4_h4_5_14"  />
</g>
<g id="a4_0015"  >
<polygon points="486,85 491,80 491,80 491,90 491,90 486,85 " style="fill:#1563d8; stroke-width:1; stroke:black; " description="&lt;b&gt;NCS57_00350900&lt;/b&gt;&lt;br&gt;SnoaL-like domain-containing protein&lt;br&gt;Location: 446724 - 446284&lt;br&gt;&lt;br&gt;&lt;b&gt;BlastP hit with input.path1.gene378&lt;/b&gt;&lt;br&gt;Percentage identity: 45&lt;br&gt;Percentage coverage: 77&lt;br&gt;BLAST bit score: 129&lt;br&gt;E-value: 1.29e-36" locus_tag="NCS57_00350900" class="clusterblast-orf" id="dummy-4_h4_5_15"  />
</g>
<g id="a4_0016"  >
<polygon points="506,90 517,90 522,85 517,80 506,80 506,90 " style="fill:white; stroke-width:1; stroke:black; " description="&lt;b&gt;NCS57_00350800&lt;/b&gt;&lt;br&gt;hypothetical protein&lt;br&gt;Location: 445063 - 443823" locus_tag="NCS57_00350800" class="clusterblast-orf" id="dummy-4_h4_5_16"  />
</g>
<g id="a4_0017"  >
<polygon points="529,85 534,80 568,80 568,90 534,90 529,85 " style="fill:white; stroke-width:1; stroke:black; " description="&lt;b&gt;NCS57_00350700&lt;/b&gt;&lt;br&gt;Ricin B-type lectin domain-containing protein&lt;br&gt;Location: 443253 - 440085" locus_tag="NCS57_00350700" class="clusterblast-orf" id="dummy-4_h4_5_17"  />
</g>
<g id="a4_0018"  >
<polygon points="576,90 603,90 608,85 603,80 576,80 576,90 " style="fill:white; stroke-width:1; stroke:black; " description="&lt;b&gt;NCS57_00350600&lt;/b&gt;&lt;br&gt;hypothetical protein&lt;br&gt;Location: 439457 - 436863" locus_tag="NCS57_00350600" class="clusterblast-orf" id="dummy-4_h4_5_18"  />
</g>
<g id="a4_0019"  >
<polygon points="622,85 627,80 630,80 630,90 627,90 622,85 " style="fill:white; stroke-width:1; stroke:black; " description="&lt;b&gt;NCS57_00350500&lt;/b&gt;&lt;br&gt;hypothetical protein&lt;br&gt;Location: 435795 - 435120" locus_tag="NCS57_00350500" class="clusterblast-orf" id="dummy-4_h4_5_19"  />
</g>
<g id="a4_0020"  >
<polygon points="641,90 658,90 663,85 658,80 641,80 641,90 " style="fill:white; stroke-width:1; stroke:black; " description="&lt;b&gt;NCS57_00350400&lt;/b&gt;&lt;br&gt;Laccase-2&lt;br&gt;Location: 434237 - 432465" locus_tag="NCS57_00350400" class="clusterblast-orf" id="dummy-4_h4_5_20"  />
</g>
<g id="a4_0021"  >
<polygon points="768,90 775,90 780,85 775,80 768,80 768,90 " style="fill:white; stroke-width:1; stroke:black; " description="&lt;b&gt;NCS57_00350300&lt;/b&gt;&lt;br&gt;hypothetical protein&lt;br&gt;Location: 423990 - 423094" locus_tag="NCS57_00350300" class="clusterblast-orf" id="dummy-4_h4_5_21"  />
</g>
</svg>
