<svg xmlns="http://www.w3.org/2000/svg" xmlns:xlink="http://www.w3.org/1999/xlink" version="1.1" x="0" y="0" height="230" width="800" viewBox="0 0 800 230" preserveAspectRatio="none"  >
<g label="Query sequence" class="clusterblast-cluster"  >
<text x="5" y="20" class="clusterblast-acc"  >
Query sequence</text>
<line x1="10" y1="35" x2="778.0" y2="35" style="stroke-width:1; stroke:grey; "  />
<polygon points="258,35 263,30 350,30 350,40 263,40 258,35 " style="fill:#d81515; stroke-width:1; stroke:black; " description="&lt;b&gt;input.path1.gene142&lt;/b&gt;&lt;br&gt;input.path1.gene142&lt;br&gt;Location: 603997 - 611608" locus_tag="input.path1.gene142" class="clusterblast-orf" id="dummy-2_q0_0_all"  />
<polygon points="369,40 390,40 395,35 390,30 369,30 369,40 " style="fill:#4dd815; stroke-width:1; stroke:black; " description="&lt;b&gt;input.path1.gene143&lt;/b&gt;&lt;br&gt;input.path1.gene143&lt;br&gt;Location: 613203 - 615371" locus_tag="input.path1.gene143" class="clusterblast-orf" id="dummy-2_q1_0_all"  />
<polygon points="401,35 406,30 414,30 414,40 406,40 401,35 " style="fill:#1585d8; stroke-width:1; stroke:black; " description="&lt;b&gt;input.path1.gene144&lt;/b&gt;&lt;br&gt;input.path1.gene144&lt;br&gt;Location: 615846 - 616932" locus_tag="input.path1.gene144" class="clusterblast-orf" id="dummy-2_q2_0_all"  />
<polygon points="422,40 425,40 430,35 425,30 422,30 422,40 " style="fill:white; stroke-width:1; stroke:black; " description="&lt;b&gt;input.path1.gene145&lt;/b&gt;&lt;br&gt;input.path1.gene145&lt;br&gt;Location: 617602 - 618247" locus_tag="input.path1.gene145" class="clusterblast-orf" id="dummy-2_q3_0_all"  />
<polygon points="440,40 447,40 452,35 447,30 440,30 440,40 " style="fill:#d815bc; stroke-width:1; stroke:black; " description="&lt;b&gt;input.path1.gene146&lt;/b&gt;&lt;br&gt;input.path1.gene146&lt;br&gt;Location: 619104 - 620139" locus_tag="input.path1.gene146" class="clusterblast-orf" id="dummy-2_q4_0_all"  />
<polygon points="456,35 461,30 479,30 479,40 461,40 456,35 " style="fill:#d8bc15; stroke-width:1; stroke:black; " description="&lt;b&gt;input.path1.gene147&lt;/b&gt;&lt;br&gt;input.path1.gene147&lt;br&gt;Location: 620447 - 622317" locus_tag="input.path1.gene147" class="clusterblast-orf" id="dummy-2_q5_0_all"  />
<polygon points="490,40 504,40 509,35 504,30 490,30 490,40 " style="fill:#15d885; stroke-width:1; stroke:black; " description="&lt;b&gt;input.path1.gene148&lt;/b&gt;&lt;br&gt;input.path1.gene148&lt;br&gt;Location: 623246 - 624817" locus_tag="input.path1.gene148" class="clusterblast-orf" id="dummy-2_q6_0_all"  />
<polygon points="509,35 514,30 521,30 521,40 514,40 509,35 " style="fill:#4d15d8; stroke-width:1; stroke:black; " description="&lt;b&gt;input.path1.gene149&lt;/b&gt;&lt;br&gt;input.path1.gene149&lt;br&gt;Location: 624852 - 625839" locus_tag="input.path1.gene149" class="clusterblast-orf" id="dummy-2_q7_0_all"  />
</g>
<g label="NC_057364" description="NC_057364 (496585-564367): Aspergillus chevalieri M1 DNA, chromosome 3, nearl... (33% of genes show similarity), T1PKS,indole" class="clusterblast-cluster"  >
<text x="5" y="70" class="clusterblast-acc"  >
<a xlink:href="https://antismash-db.secondarymetabolites.org/area?record=NC_057364&amp;start=496585&amp;end=564367" target="_blank">NC_057364 (496585-564367)</a>: Aspergillus chevalieri M1 DNA, chromosome 3, nearl... (33% of genes show similarity), T1PKS,indole</text>
<line x1="10" y1="85" x2="778.0" y2="85" style="stroke-width:1; stroke:grey; "  />
</g>
<g id="a2_000"  >
<polygon points="0,85 5,80 49,80 49,90 5,90 0,85 " style="fill:white; stroke-width:1; stroke:black; " description="&lt;b&gt;ACHE_30179A&lt;/b&gt;&lt;br&gt;suppressor of sensor kinase (SLN1)&lt;br&gt;Location: 497866 - 501990" locus_tag="ACHE_30179A" class="clusterblast-orf" id="dummy-2_h2_7_0"  />
</g>
<g id="a2_001"  >
<polygon points="178,90 184,90 189,85 184,80 178,80 178,90 " style="fill:white; stroke-width:1; stroke:black; " description="&lt;b&gt;ACHE_30180S&lt;/b&gt;&lt;br&gt;uncharacterized protein&lt;br&gt;Location: 512736 - 513647" locus_tag="ACHE_30180S" class="clusterblast-orf" id="dummy-2_h2_7_1"  />
</g>
<g id="a2_002"  >
<polygon points="241,90 255,90 260,85 255,80 241,80 241,90 " style="fill:white; stroke-width:1; stroke:black; " description="&lt;b&gt;ACHE_30181S&lt;/b&gt;&lt;br&gt;uncharacterized protein&lt;br&gt;Location: 517931 - 519538" locus_tag="ACHE_30181S" class="clusterblast-orf" id="dummy-2_h2_7_2"  />
</g>
<g id="a2_003"  >
<polygon points="278,90 281,90 286,85 281,80 278,80 278,90 " style="fill:white; stroke-width:1; stroke:black; " description="&lt;b&gt;ACHE_30182S&lt;/b&gt;&lt;br&gt;uncharacterized protein&lt;br&gt;Location: 521041 - 521666" locus_tag="ACHE_30182S" class="clusterblast-orf" id="dummy-2_h2_7_3"  />
</g>
<g id="a2_004"  >
<polygon points="302,90 317,90 322,85 317,80 302,80 302,90 " style="fill:white; stroke-width:1; stroke:black; " description="&lt;b&gt;ACHE_30183S&lt;/b&gt;&lt;br&gt;ammonium transporter Amt1&lt;br&gt;Location: 522985 - 524669" locus_tag="ACHE_30183S" class="clusterblast-orf" id="dummy-2_h2_7_4"  />
</g>
<g id="a2_005"  >
<polygon points="325,90 337,90 342,85 337,80 325,80 325,90 " style="fill:white; stroke-width:1; stroke:black; " description="&lt;b&gt;ACHE_30184S&lt;/b&gt;&lt;br&gt;uncharacterized protein&lt;br&gt;Location: 524969 - 526307" locus_tag="ACHE_30184S" class="clusterblast-orf" id="dummy-2_h2_7_5"  />
</g>
<g id="a2_006"  >
<polygon points="345,85 350,80 438,80 438,90 350,90 345,85 " style="fill:#d81515; stroke-width:1; stroke:black; " description="&lt;b&gt;ACHE_30185A&lt;/b&gt;&lt;br&gt;type I iterative PKS&lt;br&gt;Location: 526586 - 534367&lt;br&gt;&lt;br&gt;&lt;b&gt;BlastP hit with input.path1.gene142&lt;/b&gt;&lt;br&gt;Percentage identity: 55&lt;br&gt;Percentage coverage: 105&lt;br&gt;BLAST bit score: 2481&lt;br&gt;E-value: 0.0" locus_tag="ACHE_30185A" class="clusterblast-orf" id="dummy-2_h2_7_6"  />
</g>
<g id="a2_007"  >
<polygon points="445,90 451,90 456,85 451,80 445,80 445,90 " style="fill:#4dd815; stroke-width:1; stroke:black; " description="&lt;b&gt;ACHE_30186S&lt;/b&gt;&lt;br&gt;putative secondary metabolism biosynthetic enzyme&lt;br&gt;Location: 534910 - 535848&lt;br&gt;&lt;br&gt;&lt;b&gt;BlastP hit with input.path1.gene143&lt;/b&gt;&lt;br&gt;Percentage identity: 50&lt;br&gt;Percentage coverage: 46&lt;br&gt;BLAST bit score: 172&lt;br&gt;E-value: 8.26e-49" locus_tag="ACHE_30186S" class="clusterblast-orf" id="dummy-2_h2_7_7"  />
</g>
<g id="a2_008"  >
<polygon points="460,90 463,90 468,85 463,80 460,80 460,90 " style="fill:#4dd815; stroke-width:1; stroke:black; " description="&lt;b&gt;ACHE_30187S&lt;/b&gt;&lt;br&gt;uncharacterized protein&lt;br&gt;Location: 536124 - 536785&lt;br&gt;&lt;br&gt;&lt;b&gt;BlastP hit with input.path1.gene143&lt;/b&gt;&lt;br&gt;Percentage identity: 67&lt;br&gt;Percentage coverage: 44&lt;br&gt;BLAST bit score: 259&lt;br&gt;E-value: 1.51e-83" locus_tag="ACHE_30187S" class="clusterblast-orf" id="dummy-2_h2_7_8"  />
</g>
<g id="a2_009"  >
<polygon points="473,85 478,80 489,80 489,90 478,90 473,85 " style="fill:#1585d8; stroke-width:1; stroke:black; " description="&lt;b&gt;ACHE_30188A&lt;/b&gt;&lt;br&gt;uncharacterized protein&lt;br&gt;Location: 537259 - 538573&lt;br&gt;&lt;br&gt;&lt;b&gt;BlastP hit with input.path1.gene144&lt;/b&gt;&lt;br&gt;Percentage identity: 61&lt;br&gt;Percentage coverage: 112&lt;br&gt;BLAST bit score: 230&lt;br&gt;E-value: 1.9e-74" locus_tag="ACHE_30188A" class="clusterblast-orf" id="dummy-2_h2_7_9"  />
</g>
<g id="a2_0010"  >
<polygon points="493,90 510,90 515,85 510,80 493,80 493,90 " style="fill:#d815bc; stroke-width:1; stroke:black; " description="&lt;b&gt;ACHE_30189S&lt;/b&gt;&lt;br&gt;uncharacterized protein&lt;br&gt;Location: 538865 - 540762&lt;br&gt;&lt;br&gt;&lt;b&gt;BlastP hit with input.path1.gene146&lt;/b&gt;&lt;br&gt;Percentage identity: 60&lt;br&gt;Percentage coverage: 90&lt;br&gt;BLAST bit score: 360&lt;br&gt;E-value: 1.46e-120" locus_tag="ACHE_30189S" class="clusterblast-orf" id="dummy-2_h2_7_10"  />
</g>
<g id="a2_0011"  >
<polygon points="518,85 523,80 539,80 539,90 523,90 518,85 " style="fill:#d8bc15; stroke-width:1; stroke:black; " description="&lt;b&gt;ACHE_30190A&lt;/b&gt;&lt;br&gt;uncharacterized protein&lt;br&gt;Location: 540980 - 542702&lt;br&gt;&lt;br&gt;&lt;b&gt;BlastP hit with input.path1.gene147&lt;/b&gt;&lt;br&gt;Percentage identity: 42&lt;br&gt;Percentage coverage: 64&lt;br&gt;BLAST bit score: 202&lt;br&gt;E-value: 5.33e-58" locus_tag="ACHE_30190A" class="clusterblast-orf" id="dummy-2_h2_7_11"  />
</g>
<g id="a2_0012"  >
<polygon points="544,90 553,90 558,85 553,80 544,80 544,90 " style="fill:#15d885; stroke-width:1; stroke:black; " description="&lt;b&gt;ACHE_30191S&lt;/b&gt;&lt;br&gt;putative secondary metabolism biosynthetic enzyme&lt;br&gt;Location: 543170 - 544276&lt;br&gt;&lt;br&gt;&lt;b&gt;BlastP hit with input.path1.gene148&lt;/b&gt;&lt;br&gt;Percentage identity: 56&lt;br&gt;Percentage coverage: 77&lt;br&gt;BLAST bit score: 336&lt;br&gt;E-value: 1.58e-111" locus_tag="ACHE_30191S" class="clusterblast-orf" id="dummy-2_h2_7_12"  />
</g>
<g id="a2_0013"  >
<polygon points="565,90 577,90 582,85 577,80 565,80 565,90 " style="fill:white; stroke-width:1; stroke:black; " description="&lt;b&gt;ACHE_30192S&lt;/b&gt;&lt;br&gt;uncharacterized protein&lt;br&gt;Location: 544899 - 546289" locus_tag="ACHE_30192S" class="clusterblast-orf" id="dummy-2_h2_7_13"  />
</g>
<g id="a2_0014"  >
<polygon points="583,85 588,80 598,80 598,90 588,90 583,85 " style="fill:white; stroke-width:1; stroke:black; " description="&lt;b&gt;ACHE_30193A&lt;/b&gt;&lt;br&gt;uncharacterized protein&lt;br&gt;Location: 546422 - 547666" locus_tag="ACHE_30193A" class="clusterblast-orf" id="dummy-2_h2_7_14"  />
</g>
<g id="a2_0015"  >
<polygon points="617,90 634,90 639,85 634,80 617,80 617,90 " style="fill:white; stroke-width:1; stroke:black; " description="&lt;b&gt;ACHE_30194S&lt;/b&gt;&lt;br&gt;beta-tubulin&lt;br&gt;Location: 549205 - 551026" locus_tag="ACHE_30194S" class="clusterblast-orf" id="dummy-2_h2_7_15"  />
</g>
<g id="a2_0016"  >
<polygon points="642,85 647,80 659,80 659,90 647,90 642,85 " style="fill:white; stroke-width:1; stroke:black; " description="&lt;b&gt;ACHE_30195A&lt;/b&gt;&lt;br&gt;uncharacterized protein&lt;br&gt;Location: 551269 - 552700" locus_tag="ACHE_30195A" class="clusterblast-orf" id="dummy-2_h2_7_16"  />
</g>
<g id="a2_0017"  >
<polygon points="694,85 699,80 706,80 706,90 699,90 694,85 " style="fill:white; stroke-width:1; stroke:black; " description="&lt;b&gt;ACHE_30196A&lt;/b&gt;&lt;br&gt;uncharacterized protein&lt;br&gt;Location: 555610 - 556599" locus_tag="ACHE_30196A" class="clusterblast-orf" id="dummy-2_h2_7_17"  />
</g>
<g id="a2_0018"  >
<polygon points="710,90 725,90 730,85 725,80 710,80 710,90 " style="fill:white; stroke-width:1; stroke:black; " description="&lt;b&gt;ACHE_30197S&lt;/b&gt;&lt;br&gt;uncharacterized protein&lt;br&gt;Location: 556982 - 558597" locus_tag="ACHE_30197S" class="clusterblast-orf" id="dummy-2_h2_7_18"  />
</g>
<g id="a2_0019"  >
<polygon points="737,90 747,90 752,85 747,80 737,80 737,90 " style="fill:white; stroke-width:1; stroke:black; " description="&lt;b&gt;ACHE_30198S&lt;/b&gt;&lt;br&gt;uncharacterized protein&lt;br&gt;Location: 559192 - 560427" locus_tag="ACHE_30198S" class="clusterblast-orf" id="dummy-2_h2_7_19"  />
</g>
<g id="a2_0020"  >
<polygon points="763,90 775,90 780,85 775,80 763,80 763,90 " style="fill:white; stroke-width:1; stroke:black; " description="&lt;b&gt;ACHE_30199S&lt;/b&gt;&lt;br&gt;uncharacterized protein&lt;br&gt;Location: 561374 - 562726" locus_tag="ACHE_30199S" class="clusterblast-orf" id="dummy-2_h2_7_20"  />
</g>
</svg>
