<svg xmlns="http://www.w3.org/2000/svg" xmlns:xlink="http://www.w3.org/1999/xlink" version="1.1" x="0" y="0" height="230" width="800" viewBox="0 0 800 230" preserveAspectRatio="none"  >
<g label="Query sequence" class="clusterblast-cluster"  >
<text x="5" y="20" class="clusterblast-acc"  >
Query sequence</text>
<line x1="10" y1="35" x2="778.0" y2="35" style="stroke-width:1; stroke:grey; "  />
<polygon points="0,40 56,40 61,35 56,30 0,30 0,40 " style="fill:white; stroke-width:1; stroke:black; " description="&lt;b&gt;input.path1.gene1834&lt;/b&gt;&lt;br&gt;input.path1.gene1834&lt;br&gt;Location: 6764162 - 6767213" locus_tag="input.path1.gene1834" class="clusterblast-orf" id="dummy-5_q0_0_all"  />
<polygon points="97,35 102,30 131,30 131,40 102,40 97,35 " style="fill:#d81515; stroke-width:1; stroke:black; " description="&lt;b&gt;input.path1.gene1835&lt;/b&gt;&lt;br&gt;input.path1.gene1835&lt;br&gt;Location: 6769037 - 6770734" locus_tag="input.path1.gene1835" class="clusterblast-orf" id="dummy-5_q1_0_all"  />
<polygon points="150,40 160,40 165,35 160,30 150,30 150,40 " style="fill:#77d815; stroke-width:1; stroke:black; " description="&lt;b&gt;input.path1.gene1836&lt;/b&gt;&lt;br&gt;input.path1.gene1836&lt;br&gt;Location: 6771689 - 6772421" locus_tag="input.path1.gene1836" class="clusterblast-orf" id="dummy-5_q2_0_all"  />
<polygon points="173,35 178,30 183,30 183,40 178,40 173,35 " style="fill:white; stroke-width:1; stroke:black; " description="&lt;b&gt;input.path1.gene1837&lt;/b&gt;&lt;br&gt;input.path1.gene1837&lt;br&gt;Location: 6772836 - 6773361" locus_tag="input.path1.gene1837" class="clusterblast-orf" id="dummy-5_q3_0_all"  />
<polygon points="230,35 235,30 253,30 253,40 235,40 230,35 " style="fill:#15d8d8; stroke-width:1; stroke:black; " description="&lt;b&gt;input.path1.gene1838&lt;/b&gt;&lt;br&gt;input.path1.gene1838&lt;br&gt;Location: 6775703 - 6776846" locus_tag="input.path1.gene1838" class="clusterblast-orf" id="dummy-5_q4_0_all"  />
<polygon points="290,40 528,40 533,35 528,30 290,30 290,40 " style="fill:#7715d8; stroke-width:1; stroke:black; " description="&lt;b&gt;input.path1.gene1839&lt;/b&gt;&lt;br&gt;input.path1.gene1839&lt;br&gt;Location: 6778691 - 6790847" locus_tag="input.path1.gene1839" class="clusterblast-orf" id="dummy-5_q5_0_all"  />
<polygon points="764,35 769,30 780,30 780,40 769,40 764,35 " style="fill:white; stroke-width:1; stroke:black; " description="&lt;b&gt;input.path1.gene1840&lt;/b&gt;&lt;br&gt;input.path1.gene1840&lt;br&gt;Location: 6802445 - 6803207" locus_tag="input.path1.gene1840" class="clusterblast-orf" id="dummy-5_q6_0_all"  />
</g>
<g label="BGC0001218" description="BGC0001218_c1: fumosorinone (50% of genes show similarity), NRP+Polyketide" class="clusterblast-cluster"  >
<text x="5" y="70" class="clusterblast-acc"  >
<a xlink:href="https://mibig.secondarymetabolites.org/go/BGC0001218/1" target="_blank">BGC0001218</a>: fumosorinone                                                                     (50% of genes show similarity), NRP+Polyketide</text>
<line x1="10" y1="85" x2="778.0" y2="85" style="stroke-width:1; stroke:grey; "  />
</g>
<g id="a5_000"  >
<polygon points="139,90 152,90 157,85 152,80 139,80 139,90 " style="fill:white; stroke-width:1; stroke:black; " description="&lt;b&gt;AKC54417.1&lt;/b&gt;&lt;br&gt;kinesin motor domain-containing protein&lt;br&gt;Location: 1350 - 2246" locus_tag="AKC54417.1" class="clusterblast-orf" id="dummy-5_h5_2_0"  />
</g>
<g id="a5_001"  >
<polygon points="186,85 191,80 241,80 241,90 191,90 186,85 " style="fill:white; stroke-width:1; stroke:black; " description="&lt;b&gt;AKC54418.1&lt;/b&gt;&lt;br&gt;C6-zinc finger domain-containing protein&lt;br&gt;Location: 3671 - 6460" locus_tag="AKC54418.1" class="clusterblast-orf" id="dummy-5_h5_2_1"  />
</g>
<g id="a5_002"  >
<polygon points="273,90 301,90 306,85 301,80 273,80 273,90 " style="fill:#d81515; stroke-width:1; stroke:black; " description="&lt;b&gt;AKC54420.1&lt;/b&gt;&lt;br&gt;cytochrome P450 monooxygenase&lt;br&gt;Location: 8023 - 9716&lt;br&gt;&lt;br&gt;&lt;b&gt;BlastP hit with input.path1.gene1835&lt;/b&gt;&lt;br&gt;Percentage identity: 52&lt;br&gt;Percentage coverage: 114&lt;br&gt;BLAST bit score: 502&lt;br&gt;E-value: 7.29e-176" locus_tag="AKC54420.1" class="clusterblast-orf" id="dummy-5_h5_2_2"  />
</g>
<g id="a5_003"  >
<polygon points="312,85 317,80 345,80 345,90 317,90 312,85 " style="fill:white; stroke-width:1; stroke:black; " description="&lt;b&gt;AKC54421.1&lt;/b&gt;&lt;br&gt;cytochrome P450 monooxygenase&lt;br&gt;Location: 9990 - 11630" locus_tag="AKC54421.1" class="clusterblast-orf" id="dummy-5_h5_2_3"  />
</g>
<g id="a5_004"  >
<polygon points="356,85 361,80 380,80 380,90 361,90 356,85 " style="fill:#15d8d8; stroke-width:1; stroke:black; " description="&lt;b&gt;AKC54419.1&lt;/b&gt;&lt;br&gt;trans enoyl-reductase&lt;br&gt;Location: 12207 - 13391&lt;br&gt;&lt;br&gt;&lt;b&gt;BlastP hit with input.path1.gene1838&lt;/b&gt;&lt;br&gt;Percentage identity: 55&lt;br&gt;Percentage coverage: 56&lt;br&gt;BLAST bit score: 97&lt;br&gt;E-value: 7.92e-24" locus_tag="AKC54419.1" class="clusterblast-orf" id="dummy-5_h5_2_4"  />
</g>
<g id="a5_005"  >
<polygon points="392,90 635,90 640,85 635,80 392,80 392,90 " style="fill:#7715d8; stroke-width:1; stroke:black; " description="&lt;b&gt;AKC54422.1&lt;/b&gt;&lt;br&gt;fumosorinone biosynthesis polyketide synthase&lt;br&gt;Location: 13982 - 26398&lt;br&gt;&lt;br&gt;&lt;b&gt;BlastP hit with input.path1.gene1839&lt;/b&gt;&lt;br&gt;Percentage identity: 50&lt;br&gt;Percentage coverage: 104&lt;br&gt;BLAST bit score: 3725&lt;br&gt;E-value: 0.0" locus_tag="AKC54422.1" class="clusterblast-orf" id="dummy-5_h5_2_5"  />
</g>
</svg>
