<svg xmlns="http://www.w3.org/2000/svg" xmlns:xlink="http://www.w3.org/1999/xlink" version="1.1" x="0" y="0" height="230" width="800" viewBox="0 0 800 230" preserveAspectRatio="none"  >
<g label="Query sequence" class="clusterblast-cluster"  >
<text x="5" y="20" class="clusterblast-acc"  >
Query sequence</text>
<line x1="10" y1="35" x2="778.0" y2="35" style="stroke-width:1; stroke:grey; "  />
<polygon points="0,35 5,30 23,30 23,40 5,40 0,35 " style="fill:white; stroke-width:1; stroke:black; " description="&lt;b&gt;input.path1.gene94&lt;/b&gt;&lt;br&gt;input.path1.gene94&lt;br&gt;Location: 356687 - 357911" locus_tag="input.path1.gene94" class="clusterblast-orf" id="dummy-1_q0_0_all"  />
<polygon points="94,40 128,40 133,35 128,30 94,30 94,40 " style="fill:white; stroke-width:1; stroke:black; " description="&lt;b&gt;input.path1.gene95&lt;/b&gt;&lt;br&gt;input.path1.gene95&lt;br&gt;Location: 361670 - 363754" locus_tag="input.path1.gene95" class="clusterblast-orf" id="dummy-1_q1_0_all"  />
<polygon points="153,40 170,40 175,35 170,30 153,30 153,40 " style="fill:white; stroke-width:1; stroke:black; " description="&lt;b&gt;input.path1.gene96&lt;/b&gt;&lt;br&gt;input.path1.gene96&lt;br&gt;Location: 364798 - 365985" locus_tag="input.path1.gene96" class="clusterblast-orf" id="dummy-1_q2_0_all"  />
<polygon points="238,40 249,40 254,35 249,30 238,30 238,40 " style="fill:white; stroke-width:1; stroke:black; " description="&lt;b&gt;input.path1.gene97&lt;/b&gt;&lt;br&gt;input.path1.gene97&lt;br&gt;Location: 369352 - 370198" locus_tag="input.path1.gene97" class="clusterblast-orf" id="dummy-1_q3_0_all"  />
<polygon points="259,35 264,30 334,30 334,40 264,40 259,35 " style="fill:#d81515; stroke-width:1; stroke:black; " description="&lt;b&gt;input.path1.gene98&lt;/b&gt;&lt;br&gt;input.path1.gene98&lt;br&gt;Location: 370418 - 374403" locus_tag="input.path1.gene98" class="clusterblast-orf" id="dummy-1_q4_0_all"  />
<polygon points="338,40 339,40 344,35 339,30 338,30 338,40 " style="fill:#77d815; stroke-width:1; stroke:black; " description="&lt;b&gt;input.path1.gene99&lt;/b&gt;&lt;br&gt;input.path1.gene99&lt;br&gt;Location: 374638 - 374965" locus_tag="input.path1.gene99" class="clusterblast-orf" id="dummy-1_q5_0_all"  />
<polygon points="372,40 479,40 484,35 479,30 372,30 372,40 " style="fill:#15d8d8; stroke-width:1; stroke:black; " description="&lt;b&gt;input.path1.gene100&lt;/b&gt;&lt;br&gt;input.path1.gene100&lt;br&gt;Location: 376454 - 382366" locus_tag="input.path1.gene100" class="clusterblast-orf" id="dummy-1_q6_0_all"  />
<polygon points="561,35 566,30 579,30 579,40 566,40 561,35 " style="fill:#7715d8; stroke-width:1; stroke:black; " description="&lt;b&gt;input.path1.gene101&lt;/b&gt;&lt;br&gt;input.path1.gene101&lt;br&gt;Location: 386451 - 387418" locus_tag="input.path1.gene101" class="clusterblast-orf" id="dummy-1_q7_0_all"  />
<polygon points="596,40 603,40 608,35 603,30 596,30 596,40 " style="fill:white; stroke-width:1; stroke:black; " description="&lt;b&gt;input.path1.gene102&lt;/b&gt;&lt;br&gt;input.path1.gene102&lt;br&gt;Location: 388312 - 388971" locus_tag="input.path1.gene102" class="clusterblast-orf" id="dummy-1_q8_0_all"  />
<polygon points="633,40 747,40 752,35 747,30 633,30 633,40 " style="fill:white; stroke-width:1; stroke:black; " description="&lt;b&gt;input.path1.gene103&lt;/b&gt;&lt;br&gt;input.path1.gene103&lt;br&gt;Location: 390291 - 396577" locus_tag="input.path1.gene103" class="clusterblast-orf" id="dummy-1_q9_0_all"  />
<polygon points="768,35 773,30 780,30 780,40 773,40 768,35 " style="fill:white; stroke-width:1; stroke:black; " description="&lt;b&gt;input.path1.gene104&lt;/b&gt;&lt;br&gt;input.path1.gene104&lt;br&gt;Location: 397417 - 398061" locus_tag="input.path1.gene104" class="clusterblast-orf" id="dummy-1_q10_0_all"  />
</g>
<g label="BGC0000156" description="BGC0000156_c1: TAN-1612/1-(2,3,5,10-tetrahydroxy-7-methoxy-4-oxo-1,2,3,4-tetr... (40% of genes show similarity), Polyketide:Iterative type I polyketide" class="clusterblast-cluster"  >
<text x="5" y="70" class="clusterblast-acc"  >
<a xlink:href="https://mibig.secondarymetabolites.org/go/BGC0000156/1" target="_blank">BGC0000156</a>: TAN-1612/1-(2,3,5,10-tetrahydroxy-7-methoxy-4-oxo-1,2,3,4-tetrahydroanthracen-2-yl)pentane-2,4-dione/desmethyl TAN-1612 (40% of genes show similarity), Polyketide:Iterative type I polyketide</text>
<line x1="10" y1="85" x2="778.0" y2="85" style="stroke-width:1; stroke:grey; "  />
</g>
<g id="a1_000"  >
<polygon points="269,90 311,90 316,85 311,80 269,80 269,90 " style="fill:white; stroke-width:1; stroke:black; " description="&lt;b&gt;AEN83885.1&lt;/b&gt;&lt;br&gt;AdaR&lt;br&gt;Location: 501 - 3004" locus_tag="AEN83885.1" class="clusterblast-orf" id="dummy-1_h1_4_0"  />
</g>
<g id="a1_001"  >
<polygon points="324,85 329,80 338,80 338,90 329,90 324,85 " style="fill:white; stroke-width:1; stroke:black; " description="&lt;b&gt;AEN83886.1&lt;/b&gt;&lt;br&gt;O-methyltransferase&lt;br&gt;Location: 3412 - 4161" locus_tag="AEN83886.1" class="clusterblast-orf" id="dummy-1_h1_4_1"  />
</g>
<g id="a1_002"  >
<polygon points="347,90 366,90 371,85 366,80 347,80 347,90 " style="fill:white; stroke-width:1; stroke:black; " description="&lt;b&gt;AEN83887.1&lt;/b&gt;&lt;br&gt;AdaC&lt;br&gt;Location: 4637 - 5881" locus_tag="AEN83887.1" class="clusterblast-orf" id="dummy-1_h1_4_2"  />
</g>
<g id="a1_003"  >
<polygon points="378,85 383,80 397,80 397,90 383,90 378,85 " style="fill:#77d815; stroke-width:1; stroke:black; " description="&lt;b&gt;AEN83888.1&lt;/b&gt;&lt;br&gt;metallo-beta-lactamase-like thioesterase/Claisen cyclase&lt;br&gt;Location: 6256 - 7260&lt;br&gt;&lt;br&gt;&lt;b&gt;BlastP hit with input.path1.gene99&lt;/b&gt;&lt;br&gt;Percentage identity: 59&lt;br&gt;Percentage coverage: 72&lt;br&gt;BLAST bit score: 84&lt;br&gt;E-value: 1.12e-20" locus_tag="AEN83888.1" class="clusterblast-orf" id="dummy-1_h1_4_3"  />
</g>
<g id="a1_004"  >
<polygon points="408,90 505,90 510,85 505,80 408,80 408,90 " style="fill:#15d8d8; stroke-width:1; stroke:black; " description="&lt;b&gt;AEN83889.1&lt;/b&gt;&lt;br&gt;AdaA&lt;br&gt;Location: 7894 - 13275&lt;br&gt;&lt;br&gt;&lt;b&gt;BlastP hit with input.path1.gene100&lt;/b&gt;&lt;br&gt;Percentage identity: 47&lt;br&gt;Percentage coverage: 100&lt;br&gt;BLAST bit score: 1535&lt;br&gt;E-value: 0.0" locus_tag="AEN83889.1" class="clusterblast-orf" id="dummy-1_h1_4_4"  />
</g>
</svg>
