<svg xmlns="http://www.w3.org/2000/svg" xmlns:xlink="http://www.w3.org/1999/xlink" version="1.1" x="0" y="0" height="50" width="800" viewBox="0 0 800 50" preserveAspectRatio="none"  >
<g label="Query sequence" class="clusterblast-cluster"  >
<text x="5" y="20" class="clusterblast-acc"  >
Query sequence</text>
<line x1="10" y1="35" x2="778.0" y2="35" style="stroke-width:1; stroke:grey; "  />
<polygon points="0,40 13,40 18,35 13,30 0,30 0,40 " style="fill:white; stroke-width:1; stroke:black; " description="&lt;b&gt;input.path1.gene373&lt;/b&gt;&lt;br&gt;input.path1.gene373&lt;br&gt;Location: 1477914 - 1478787" locus_tag="input.path1.gene373" class="clusterblast-orf" id="knownclusterblast-5_q0_0_all"  />
<polygon points="59,35 64,30 115,30 115,40 64,40 59,35 " style="fill:white; stroke-width:1; stroke:black; " description="&lt;b&gt;input.path1.gene374&lt;/b&gt;&lt;br&gt;input.path1.gene374&lt;br&gt;Location: 1480826 - 1483578" locus_tag="input.path1.gene374" class="clusterblast-orf" id="knownclusterblast-5_q1_0_all"  />
<polygon points="134,40 198,40 203,35 198,30 134,30 134,40 " style="fill:white; stroke-width:1; stroke:black; " description="&lt;b&gt;input.path1.gene375&lt;/b&gt;&lt;br&gt;input.path1.gene375&lt;br&gt;Location: 1484500 - 1487848" locus_tag="input.path1.gene375" class="clusterblast-orf" id="knownclusterblast-5_q2_0_all"  />
<polygon points="208,35 213,30 216,30 216,40 213,40 208,35 " style="fill:white; stroke-width:1; stroke:black; " description="&lt;b&gt;input.path1.gene376&lt;/b&gt;&lt;br&gt;input.path1.gene376&lt;br&gt;Location: 1488092 - 1488517" locus_tag="input.path1.gene376" class="clusterblast-orf" id="knownclusterblast-5_q3_0_all"  />
<polygon points="267,35 272,30 301,30 301,40 272,40 267,35 " style="fill:white; stroke-width:1; stroke:black; " description="&lt;b&gt;input.path1.gene377&lt;/b&gt;&lt;br&gt;input.path1.gene377&lt;br&gt;Location: 1490973 - 1492636" locus_tag="input.path1.gene377" class="clusterblast-orf" id="knownclusterblast-5_q4_0_all"  />
<polygon points="323,40 386,40 391,35 386,30 323,30 323,40 " style="fill:white; stroke-width:1; stroke:black; " description="&lt;b&gt;input.path1.gene378&lt;/b&gt;&lt;br&gt;input.path1.gene378&lt;br&gt;Location: 1493718 - 1497057" locus_tag="input.path1.gene378" class="clusterblast-orf" id="knownclusterblast-5_q5_0_all"  />
<polygon points="393,35 398,30 411,30 411,40 398,40 393,35 " style="fill:white; stroke-width:1; stroke:black; " description="&lt;b&gt;input.path1.gene379&lt;/b&gt;&lt;br&gt;input.path1.gene379&lt;br&gt;Location: 1497156 - 1498021" locus_tag="input.path1.gene379" class="clusterblast-orf" id="knownclusterblast-5_q6_0_all"  />
<polygon points="461,40 526,40 531,35 526,30 461,30 461,40 " style="fill:white; stroke-width:1; stroke:black; " description="&lt;b&gt;input.path1.gene380&lt;/b&gt;&lt;br&gt;input.path1.gene380&lt;br&gt;Location: 1500486 - 1503926" locus_tag="input.path1.gene380" class="clusterblast-orf" id="knownclusterblast-5_q7_0_all"  />
<polygon points="567,40 598,40 603,35 598,30 567,30 567,40 " style="fill:white; stroke-width:1; stroke:black; " description="&lt;b&gt;input.path1.gene381&lt;/b&gt;&lt;br&gt;input.path1.gene381&lt;br&gt;Location: 1505652 - 1507410" locus_tag="input.path1.gene381" class="clusterblast-orf" id="knownclusterblast-5_q8_0_all"  />
<polygon points="639,40 691,40 696,35 691,30 639,30 639,40 " style="fill:white; stroke-width:1; stroke:black; " description="&lt;b&gt;input.path1.gene382&lt;/b&gt;&lt;br&gt;input.path1.gene382&lt;br&gt;Location: 1509171 - 1511981" locus_tag="input.path1.gene382" class="clusterblast-orf" id="knownclusterblast-5_q9_0_all"  />
<polygon points="701,35 706,30 712,30 712,40 706,40 701,35 " style="fill:white; stroke-width:1; stroke:black; " description="&lt;b&gt;input.path1.gene383&lt;/b&gt;&lt;br&gt;input.path1.gene383&lt;br&gt;Location: 1512204 - 1512772" locus_tag="input.path1.gene383" class="clusterblast-orf" id="knownclusterblast-5_q10_0_all"  />
<polygon points="712,40 712,40 717,35 712,30 712,30 712,40 " style="fill:white; stroke-width:1; stroke:black; " description="&lt;b&gt;input.path1.gene384&lt;/b&gt;&lt;br&gt;input.path1.gene384&lt;br&gt;Location: 1512777 - 1513015" locus_tag="input.path1.gene384" class="clusterblast-orf" id="knownclusterblast-5_q11_0_all"  />
<polygon points="727,35 732,30 780,30 780,40 732,40 727,35 " style="fill:white; stroke-width:1; stroke:black; " description="&lt;b&gt;input.path1.gene385&lt;/b&gt;&lt;br&gt;input.path1.gene385&lt;br&gt;Location: 1513500 - 1516070" locus_tag="input.path1.gene385" class="clusterblast-orf" id="knownclusterblast-5_q12_0_all"  />
</g>
</svg>
