<svg xmlns="http://www.w3.org/2000/svg" xmlns:xlink="http://www.w3.org/1999/xlink" version="1.1" x="0" y="0" height="50" width="800" viewBox="0 0 800 50" preserveAspectRatio="none"  >
<g label="Query sequence" class="clusterblast-cluster"  >
<text x="5" y="20" class="clusterblast-acc"  >
Query sequence</text>
<line x1="10" y1="35" x2="778.0" y2="35" style="stroke-width:1; stroke:grey; "  />
<polygon points="0,35 5,30 62,30 62,40 5,40 0,35 " style="fill:white; stroke-width:1; stroke:black; " description="&lt;b&gt;input.path1.gene146&lt;/b&gt;&lt;br&gt;input.path1.gene146&lt;br&gt;Location: 471610 - 475203" locus_tag="input.path1.gene146" class="clusterblast-orf" id="knownclusterblast-2_q0_0_all"  />
<polygon points="70,40 107,40 112,35 107,30 70,30 70,40 " style="fill:white; stroke-width:1; stroke:black; " description="&lt;b&gt;input.path1.gene147&lt;/b&gt;&lt;br&gt;input.path1.gene147&lt;br&gt;Location: 475695 - 478101" locus_tag="input.path1.gene147" class="clusterblast-orf" id="knownclusterblast-2_q1_0_all"  />
<polygon points="122,40 141,40 146,35 141,30 122,30 122,40 " style="fill:white; stroke-width:1; stroke:black; " description="&lt;b&gt;input.path1.gene148&lt;/b&gt;&lt;br&gt;input.path1.gene148&lt;br&gt;Location: 478682 - 480103" locus_tag="input.path1.gene148" class="clusterblast-orf" id="knownclusterblast-2_q2_0_all"  />
<polygon points="152,35 157,30 184,30 184,40 157,40 152,35 " style="fill:white; stroke-width:1; stroke:black; " description="&lt;b&gt;input.path1.gene149&lt;/b&gt;&lt;br&gt;input.path1.gene149&lt;br&gt;Location: 480446 - 482252" locus_tag="input.path1.gene149" class="clusterblast-orf" id="knownclusterblast-2_q3_0_all"  />
<polygon points="197,35 202,30 228,30 228,40 202,40 197,35 " style="fill:white; stroke-width:1; stroke:black; " description="&lt;b&gt;input.path1.gene150&lt;/b&gt;&lt;br&gt;input.path1.gene150&lt;br&gt;Location: 483009 - 484791" locus_tag="input.path1.gene150" class="clusterblast-orf" id="knownclusterblast-2_q4_0_all"  />
<polygon points="245,40 294,40 299,35 294,30 245,30 245,40 " style="fill:white; stroke-width:1; stroke:black; " description="&lt;b&gt;input.path1.gene151&lt;/b&gt;&lt;br&gt;input.path1.gene151&lt;br&gt;Location: 485824 - 488948" locus_tag="input.path1.gene151" class="clusterblast-orf" id="knownclusterblast-2_q5_0_all"  />
<polygon points="302,35 307,30 439,30 439,40 307,40 302,35 " style="fill:white; stroke-width:1; stroke:black; " description="&lt;b&gt;input.path1.gene152&lt;/b&gt;&lt;br&gt;input.path1.gene152&lt;br&gt;Location: 489119 - 497008" locus_tag="input.path1.gene152" class="clusterblast-orf" id="knownclusterblast-2_q6_0_all"  />
<polygon points="449,40 477,40 482,35 477,30 449,30 449,40 " style="fill:white; stroke-width:1; stroke:black; " description="&lt;b&gt;input.path1.gene153&lt;/b&gt;&lt;br&gt;input.path1.gene153&lt;br&gt;Location: 497618 - 499506" locus_tag="input.path1.gene153" class="clusterblast-orf" id="knownclusterblast-2_q7_0_all"  />
<polygon points="598,40 606,40 611,35 606,30 598,30 598,40 " style="fill:white; stroke-width:1; stroke:black; " description="&lt;b&gt;input.path1.gene154&lt;/b&gt;&lt;br&gt;input.path1.gene154&lt;br&gt;Location: 506252 - 506987" locus_tag="input.path1.gene154" class="clusterblast-orf" id="knownclusterblast-2_q8_0_all"  />
<polygon points="698,40 707,40 712,35 707,30 698,30 698,40 " style="fill:white; stroke-width:1; stroke:black; " description="&lt;b&gt;input.path1.gene155&lt;/b&gt;&lt;br&gt;input.path1.gene155&lt;br&gt;Location: 512034 - 512798" locus_tag="input.path1.gene155" class="clusterblast-orf" id="knownclusterblast-2_q9_0_all"  />
<polygon points="716,40 741,40 746,35 741,30 716,30 716,40 " style="fill:white; stroke-width:1; stroke:black; " description="&lt;b&gt;input.path1.gene156&lt;/b&gt;&lt;br&gt;input.path1.gene156&lt;br&gt;Location: 513058 - 514792" locus_tag="input.path1.gene156" class="clusterblast-orf" id="knownclusterblast-2_q10_0_all"  />
<polygon points="767,40 775,40 780,35 775,30 767,30 767,40 " style="fill:white; stroke-width:1; stroke:black; " description="&lt;b&gt;input.path1.gene157&lt;/b&gt;&lt;br&gt;input.path1.gene157&lt;br&gt;Location: 516028 - 516733" locus_tag="input.path1.gene157" class="clusterblast-orf" id="knownclusterblast-2_q11_0_all"  />
</g>
</svg>
