<svg xmlns="http://www.w3.org/2000/svg" xmlns:xlink="http://www.w3.org/1999/xlink" version="1.1" x="0" y="0" height="230" width="800" viewBox="0 0 800 230" preserveAspectRatio="none"  >
<g label="Query sequence" class="clusterblast-cluster"  >
<text x="5" y="20" class="clusterblast-acc"  >
Query sequence</text>
<line x1="10" y1="35" x2="778.0" y2="35" style="stroke-width:1; stroke:grey; "  />
<polygon points="0,40 2,40 7,35 2,30 0,30 0,40 " style="fill:white; stroke-width:1; stroke:black; " description="&lt;b&gt;input.path1.gene1322&lt;/b&gt;&lt;br&gt;input.path1.gene1322&lt;br&gt;Location: 5176697 - 5177387" locus_tag="input.path1.gene1322" class="clusterblast-orf" id="dummy-4_q0_0_all"  />
<polygon points="34,40 41,40 46,35 41,30 34,30 34,40 " style="fill:white; stroke-width:1; stroke:black; " description="&lt;b&gt;input.path1.gene1323&lt;/b&gt;&lt;br&gt;input.path1.gene1323&lt;br&gt;Location: 5179903 - 5181010" locus_tag="input.path1.gene1323" class="clusterblast-orf" id="dummy-4_q1_0_all"  />
<polygon points="94,35 99,30 115,30 115,40 99,40 94,35 " style="fill:white; stroke-width:1; stroke:black; " description="&lt;b&gt;input.path1.gene1324&lt;/b&gt;&lt;br&gt;input.path1.gene1324&lt;br&gt;Location: 5185553 - 5187511" locus_tag="input.path1.gene1324" class="clusterblast-orf" id="dummy-4_q2_0_all"  />
<polygon points="136,40 139,35 136,30 136,40 " style="fill:white; stroke-width:1; stroke:black; " description="&lt;b&gt;input.path1.gene1325&lt;/b&gt;&lt;br&gt;input.path1.gene1325&lt;br&gt;Location: 5189455 - 5189823" locus_tag="input.path1.gene1325" class="clusterblast-orf" id="dummy-4_q3_0_all"  />
<polygon points="152,35 157,30 159,30 159,40 157,40 152,35 " style="fill:white; stroke-width:1; stroke:black; " description="&lt;b&gt;input.path1.gene1326&lt;/b&gt;&lt;br&gt;input.path1.gene1326&lt;br&gt;Location: 5190969 - 5191628" locus_tag="input.path1.gene1326" class="clusterblast-orf" id="dummy-4_q4_0_all"  />
<polygon points="168,40 174,40 179,35 174,30 168,30 168,40 " style="fill:white; stroke-width:1; stroke:black; " description="&lt;b&gt;input.path1.gene1327&lt;/b&gt;&lt;br&gt;input.path1.gene1327&lt;br&gt;Location: 5192543 - 5193521" locus_tag="input.path1.gene1327" class="clusterblast-orf" id="dummy-4_q5_0_all"  />
<polygon points="199,40 236,40 241,35 236,30 199,30 199,40 " style="fill:#d81515; stroke-width:1; stroke:black; " description="&lt;b&gt;input.path1.gene1328&lt;/b&gt;&lt;br&gt;input.path1.gene1328&lt;br&gt;Location: 5195399 - 5199397" locus_tag="input.path1.gene1328" class="clusterblast-orf" id="dummy-4_q6_0_all"  />
<polygon points="243,35 248,30 248,30 248,40 248,40 243,35 " style="fill:white; stroke-width:1; stroke:black; " description="&lt;b&gt;input.path1.gene1329&lt;/b&gt;&lt;br&gt;input.path1.gene1329&lt;br&gt;Location: 5199549 - 5200007" locus_tag="input.path1.gene1329" class="clusterblast-orf" id="dummy-4_q7_0_all"  />
<polygon points="248,40 253,40 258,35 253,30 248,30 248,40 " style="fill:#4dd815; stroke-width:1; stroke:black; " description="&lt;b&gt;input.path1.gene1330&lt;/b&gt;&lt;br&gt;input.path1.gene1330&lt;br&gt;Location: 5200039 - 5200927" locus_tag="input.path1.gene1330" class="clusterblast-orf" id="dummy-4_q8_0_all"  />
<polygon points="263,35 268,30 323,30 323,40 268,40 263,35 " style="fill:#1585d8; stroke-width:1; stroke:black; " description="&lt;b&gt;input.path1.gene1331&lt;/b&gt;&lt;br&gt;input.path1.gene1331&lt;br&gt;Location: 5201380 - 5207066" locus_tag="input.path1.gene1331" class="clusterblast-orf" id="dummy-4_q9_0_all"  />
<polygon points="356,40 369,40 374,35 369,30 356,30 356,40 " style="fill:#d815bc; stroke-width:1; stroke:black; " description="&lt;b&gt;input.path1.gene1332&lt;/b&gt;&lt;br&gt;input.path1.gene1332&lt;br&gt;Location: 5210189 - 5211869" locus_tag="input.path1.gene1332" class="clusterblast-orf" id="dummy-4_q10_0_all"  />
<polygon points="381,35 386,30 401,30 401,40 386,40 381,35 " style="fill:white; stroke-width:1; stroke:black; " description="&lt;b&gt;input.path1.gene1333&lt;/b&gt;&lt;br&gt;input.path1.gene1333&lt;br&gt;Location: 5212486 - 5214356" locus_tag="input.path1.gene1333" class="clusterblast-orf" id="dummy-4_q11_0_all"  />
<polygon points="401,35 406,30 427,30 427,40 406,40 401,35 " style="fill:#d8bc15; stroke-width:1; stroke:black; " description="&lt;b&gt;input.path1.gene1334&lt;/b&gt;&lt;br&gt;input.path1.gene1334&lt;br&gt;Location: 5214382 - 5216830" locus_tag="input.path1.gene1334" class="clusterblast-orf" id="dummy-4_q12_0_all"  />
<polygon points="439,40 441,35 439,30 439,40 " style="fill:#4dd815; stroke-width:1; stroke:black; " description="&lt;b&gt;input.path1.gene1335&lt;/b&gt;&lt;br&gt;input.path1.gene1335&lt;br&gt;Location: 5217908 - 5218124" locus_tag="input.path1.gene1335" class="clusterblast-orf" id="dummy-4_q13_0_all"  />
<polygon points="443,40 572,40 577,35 572,30 443,30 443,40 " style="fill:#4dd815; stroke-width:1; stroke:black; " description="&lt;b&gt;input.path1.gene1336&lt;/b&gt;&lt;br&gt;input.path1.gene1336&lt;br&gt;Location: 5218348 - 5230857" locus_tag="input.path1.gene1336" class="clusterblast-orf" id="dummy-4_q14_0_all"  />
<polygon points="583,35 588,30 603,30 603,40 588,40 583,35 " style="fill:#15d885; stroke-width:1; stroke:black; " description="&lt;b&gt;input.path1.gene1337&lt;/b&gt;&lt;br&gt;input.path1.gene1337&lt;br&gt;Location: 5231429 - 5233282" locus_tag="input.path1.gene1337" class="clusterblast-orf" id="dummy-4_q15_0_all"  />
<polygon points="613,40 622,40 627,35 622,30 613,30 613,40 " style="fill:#4d15d8; stroke-width:1; stroke:black; " description="&lt;b&gt;input.path1.gene1338&lt;/b&gt;&lt;br&gt;input.path1.gene1338&lt;br&gt;Location: 5234229 - 5235558" locus_tag="input.path1.gene1338" class="clusterblast-orf" id="dummy-4_q16_0_all"  />
<polygon points="655,35 660,30 661,30 661,40 660,40 655,35 " style="fill:white; stroke-width:1; stroke:black; " description="&lt;b&gt;input.path1.gene1339&lt;/b&gt;&lt;br&gt;input.path1.gene1339&lt;br&gt;Location: 5238212 - 5238778" locus_tag="input.path1.gene1339" class="clusterblast-orf" id="dummy-4_q17_0_all"  />
<polygon points="671,35 676,30 676,30 676,40 676,40 671,35 " style="fill:white; stroke-width:1; stroke:black; " description="&lt;b&gt;input.path1.gene1340&lt;/b&gt;&lt;br&gt;input.path1.gene1340&lt;br&gt;Location: 5239707 - 5240185" locus_tag="input.path1.gene1340" class="clusterblast-orf" id="dummy-4_q18_0_all"  />
<polygon points="676,40 680,40 685,35 680,30 676,30 676,40 " style="fill:white; stroke-width:1; stroke:black; " description="&lt;b&gt;input.path1.gene1341&lt;/b&gt;&lt;br&gt;input.path1.gene1341&lt;br&gt;Location: 5240194 - 5241001" locus_tag="input.path1.gene1341" class="clusterblast-orf" id="dummy-4_q19_0_all"  />
<polygon points="685,35 690,30 690,30 690,40 690,40 685,35 " style="fill:white; stroke-width:1; stroke:black; " description="&lt;b&gt;input.path1.gene1342&lt;/b&gt;&lt;br&gt;input.path1.gene1342&lt;br&gt;Location: 5241015 - 5241519" locus_tag="input.path1.gene1342" class="clusterblast-orf" id="dummy-4_q20_0_all"  />
<polygon points="718,35 723,30 737,30 737,40 723,40 718,35 " style="fill:white; stroke-width:1; stroke:black; " description="&lt;b&gt;input.path1.gene1343&lt;/b&gt;&lt;br&gt;input.path1.gene1343&lt;br&gt;Location: 5244108 - 5245917" locus_tag="input.path1.gene1343" class="clusterblast-orf" id="dummy-4_q21_0_all"  />
<polygon points="747,40 771,40 776,35 771,30 747,30 747,40 " style="fill:white; stroke-width:1; stroke:black; " description="&lt;b&gt;input.path1.gene1344&lt;/b&gt;&lt;br&gt;input.path1.gene1344&lt;br&gt;Location: 5246860 - 5249531" locus_tag="input.path1.gene1344" class="clusterblast-orf" id="dummy-4_q22_0_all"  />
<polygon points="778,35 780,30 780,40 778,35 " style="fill:white; stroke-width:1; stroke:black; " description="&lt;b&gt;input.path1.gene1345&lt;/b&gt;&lt;br&gt;input.path1.gene1345&lt;br&gt;Location: 5249733 - 5249897" locus_tag="input.path1.gene1345" class="clusterblast-orf" id="dummy-4_q23_0_all"  />
</g>
<g label="BGC0001037" description="BGC0001037_c1: pseurotin/azaspirene (40% of genes show similarity), NRP+Polyketide:Iterative type I polyketide" class="clusterblast-cluster"  >
<text x="5" y="70" class="clusterblast-acc"  >
<a xlink:href="https://mibig.secondarymetabolites.org/go/BGC0001037/1" target="_blank">BGC0001037</a>: pseurotin/azaspirene                                                             (40% of genes show similarity), NRP+Polyketide:Iterative type I polyketide</text>
<line x1="10" y1="85" x2="778.0" y2="85" style="stroke-width:1; stroke:grey; "  />
</g>
<g id="a4_000"  >
<polygon points="289,85 294,80 304,80 304,90 294,90 289,85 " style="fill:#d8bc15; stroke-width:1; stroke:black; " description="&lt;b&gt;AFUA_8G00530&lt;/b&gt;&lt;br&gt;alpha/beta hydrolase&lt;br&gt;Location: 1 - 1338&lt;br&gt;&lt;br&gt;&lt;b&gt;BlastP hit with input.path1.gene1334&lt;/b&gt;&lt;br&gt;Percentage identity: 48&lt;br&gt;Percentage coverage: 66&lt;br&gt;BLAST bit score: 352&lt;br&gt;E-value: 1.29e-115" locus_tag="AFUA_8G00530" class="clusterblast-orf" id="dummy-4_h4_8_0"  />
</g>
<g id="a4_001"  >
<polygon points="309,90 435,90 440,85 435,80 309,80 309,90 " style="fill:#4dd815; stroke-width:1; stroke:black; " description="&lt;b&gt;AFUA_8G00540&lt;/b&gt;&lt;br&gt;hybrid PKS-NRPS enzyme&lt;br&gt;Location: 1801 - 14106&lt;br&gt;&lt;br&gt;&lt;b&gt;BlastP hit with input.path1.gene1335&lt;/b&gt;&lt;br&gt;Percentage identity: 66&lt;br&gt;Percentage coverage: 100&lt;br&gt;BLAST bit score: 79&lt;br&gt;E-value: 4.38e-19" locus_tag="AFUA_8G00540" class="clusterblast-orf" id="dummy-4_h4_8_1"  />
</g>
<g id="a4_002"  >
<polygon points="442,85 447,80 451,80 451,90 447,90 442,85 " style="fill:white; stroke-width:1; stroke:black; " description="&lt;b&gt;AFUA_8G00550&lt;/b&gt;&lt;br&gt;methyltransferase&lt;br&gt;Location: 14341 - 15210" locus_tag="AFUA_8G00550" class="clusterblast-orf" id="dummy-4_h4_8_2"  />
</g>
<g id="a4_003"  >
<polygon points="457,90 471,90 476,85 471,80 457,80 457,90 " style="fill:white; stroke-width:1; stroke:black; " description="&lt;b&gt;AFUA_8G00560&lt;/b&gt;&lt;br&gt;cytochrome P450 oxidoreductase&lt;br&gt;Location: 15749 - 17497" locus_tag="AFUA_8G00560" class="clusterblast-orf" id="dummy-4_h4_8_3"  />
</g>
<g id="a4_004"  >
<polygon points="477,85 482,80 490,80 490,90 482,90 477,85 " style="fill:white; stroke-width:1; stroke:black; " description="&lt;b&gt;AFUA_8G00570&lt;/b&gt;&lt;br&gt;alpha/beta hydrolase, putative&lt;br&gt;Location: 17586 - 18799" locus_tag="AFUA_8G00570" class="clusterblast-orf" id="dummy-4_h4_8_4"  />
</g>
</svg>
