<svg xmlns="http://www.w3.org/2000/svg" xmlns:xlink="http://www.w3.org/1999/xlink" version="1.1" x="0" y="0" height="50" width="800" viewBox="0 0 800 50" preserveAspectRatio="none"  >
<g label="Query sequence" class="clusterblast-cluster"  >
<text x="5" y="20" class="clusterblast-acc"  >
Query sequence</text>
<line x1="10" y1="35" x2="778.0" y2="35" style="stroke-width:1; stroke:grey; "  />
<polygon points="0,35 2,30 2,40 0,35 " style="fill:white; stroke-width:1; stroke:black; " description="&lt;b&gt;input.path1.gene196&lt;/b&gt;&lt;br&gt;input.path1.gene196&lt;br&gt;Location: 788992 - 789352" locus_tag="input.path1.gene196" class="clusterblast-orf" id="knownclusterblast-3_q0_0_all"  />
<polygon points="130,40 140,40 145,35 140,30 130,30 130,40 " style="fill:white; stroke-width:1; stroke:black; " description="&lt;b&gt;input.path1.gene197&lt;/b&gt;&lt;br&gt;input.path1.gene197&lt;br&gt;Location: 806513 - 808467" locus_tag="input.path1.gene197" class="clusterblast-orf" id="knownclusterblast-3_q1_0_all"  />
<polygon points="148,35 153,30 667,30 667,40 153,40 148,35 " style="fill:white; stroke-width:1; stroke:black; " description="&lt;b&gt;input.path1.gene198&lt;/b&gt;&lt;br&gt;input.path1.gene198&lt;br&gt;Location: 808834 - 878358" locus_tag="input.path1.gene198" class="clusterblast-orf" id="knownclusterblast-3_q2_0_all"  />
<polygon points="718,40 720,40 725,35 720,30 718,30 718,40 " style="fill:white; stroke-width:1; stroke:black; " description="&lt;b&gt;input.path1.gene199&lt;/b&gt;&lt;br&gt;input.path1.gene199&lt;br&gt;Location: 885225 - 886181" locus_tag="input.path1.gene199" class="clusterblast-orf" id="knownclusterblast-3_q3_0_all"  />
<polygon points="747,35 752,30 760,30 760,40 752,40 747,35 " style="fill:white; stroke-width:1; stroke:black; " description="&lt;b&gt;input.path1.gene200&lt;/b&gt;&lt;br&gt;input.path1.gene200&lt;br&gt;Location: 889120 - 890786" locus_tag="input.path1.gene200" class="clusterblast-orf" id="knownclusterblast-3_q4_0_all"  />
<polygon points="772,40 775,40 780,35 775,30 772,30 772,40 " style="fill:white; stroke-width:1; stroke:black; " description="&lt;b&gt;input.path1.gene201&lt;/b&gt;&lt;br&gt;input.path1.gene201&lt;br&gt;Location: 892387 - 893454" locus_tag="input.path1.gene201" class="clusterblast-orf" id="knownclusterblast-3_q5_0_all"  />
</g>
</svg>
