<svg xmlns="http://www.w3.org/2000/svg" xmlns:xlink="http://www.w3.org/1999/xlink" version="1.1" x="0" y="0" height="230" width="800" viewBox="0 0 800 230" preserveAspectRatio="none"  >
<g label="Query sequence" class="clusterblast-cluster"  >
<text x="5" y="20" class="clusterblast-acc"  >
Query sequence</text>
<line x1="10" y1="35" x2="778.0" y2="35" style="stroke-width:1; stroke:grey; "  />
<polygon points="0,40 56,40 61,35 56,30 0,30 0,40 " style="fill:white; stroke-width:1; stroke:black; " description="&lt;b&gt;input.path1.gene1834&lt;/b&gt;&lt;br&gt;input.path1.gene1834&lt;br&gt;Location: 6764162 - 6767213" locus_tag="input.path1.gene1834" class="clusterblast-orf" id="dummy-5_q0_0_all"  />
<polygon points="97,35 102,30 131,30 131,40 102,40 97,35 " style="fill:#d81515; stroke-width:1; stroke:black; " description="&lt;b&gt;input.path1.gene1835&lt;/b&gt;&lt;br&gt;input.path1.gene1835&lt;br&gt;Location: 6769037 - 6770734" locus_tag="input.path1.gene1835" class="clusterblast-orf" id="dummy-5_q1_0_all"  />
<polygon points="150,40 160,40 165,35 160,30 150,30 150,40 " style="fill:#77d815; stroke-width:1; stroke:black; " description="&lt;b&gt;input.path1.gene1836&lt;/b&gt;&lt;br&gt;input.path1.gene1836&lt;br&gt;Location: 6771689 - 6772421" locus_tag="input.path1.gene1836" class="clusterblast-orf" id="dummy-5_q2_0_all"  />
<polygon points="173,35 178,30 183,30 183,40 178,40 173,35 " style="fill:white; stroke-width:1; stroke:black; " description="&lt;b&gt;input.path1.gene1837&lt;/b&gt;&lt;br&gt;input.path1.gene1837&lt;br&gt;Location: 6772836 - 6773361" locus_tag="input.path1.gene1837" class="clusterblast-orf" id="dummy-5_q3_0_all"  />
<polygon points="230,35 235,30 253,30 253,40 235,40 230,35 " style="fill:#15d8d8; stroke-width:1; stroke:black; " description="&lt;b&gt;input.path1.gene1838&lt;/b&gt;&lt;br&gt;input.path1.gene1838&lt;br&gt;Location: 6775703 - 6776846" locus_tag="input.path1.gene1838" class="clusterblast-orf" id="dummy-5_q4_0_all"  />
<polygon points="290,40 528,40 533,35 528,30 290,30 290,40 " style="fill:#7715d8; stroke-width:1; stroke:black; " description="&lt;b&gt;input.path1.gene1839&lt;/b&gt;&lt;br&gt;input.path1.gene1839&lt;br&gt;Location: 6778691 - 6790847" locus_tag="input.path1.gene1839" class="clusterblast-orf" id="dummy-5_q5_0_all"  />
<polygon points="764,35 769,30 780,30 780,40 769,40 764,35 " style="fill:white; stroke-width:1; stroke:black; " description="&lt;b&gt;input.path1.gene1840&lt;/b&gt;&lt;br&gt;input.path1.gene1840&lt;br&gt;Location: 6802445 - 6803207" locus_tag="input.path1.gene1840" class="clusterblast-orf" id="dummy-5_q6_0_all"  />
</g>
<g label="BGC0001049" description="BGC0001049_c1: tenellin (75% of genes show similarity), NRP+Polyketide:Iterative type I polyketide" class="clusterblast-cluster"  >
<text x="5" y="70" class="clusterblast-acc"  >
<a xlink:href="https://mibig.secondarymetabolites.org/go/BGC0001049/1" target="_blank">BGC0001049</a>: tenellin                                                                         (75% of genes show similarity), NRP+Polyketide:Iterative type I polyketide</text>
<line x1="10" y1="85" x2="778.0" y2="85" style="stroke-width:1; stroke:grey; "  />
</g>
<g id="a5_000"  >
<polygon points="198,90 226,90 231,85 226,80 198,80 198,90 " style="fill:#d81515; stroke-width:1; stroke:black; " description="&lt;b&gt;CAL69594.1&lt;/b&gt;&lt;br&gt;hypothetical protein&lt;br&gt;Location: 1 - 1653&lt;br&gt;&lt;br&gt;&lt;b&gt;BlastP hit with input.path1.gene1835&lt;/b&gt;&lt;br&gt;Percentage identity: 52&lt;br&gt;Percentage coverage: 113&lt;br&gt;BLAST bit score: 491&lt;br&gt;E-value: 1.75e-171" locus_tag="CAL69594.1" class="clusterblast-orf" id="dummy-5_h5_3_0"  />
</g>
<g id="a5_001"  >
<polygon points="239,85 244,80 273,80 273,90 244,90 239,85 " style="fill:white; stroke-width:1; stroke:black; " description="&lt;b&gt;CAL69595.1&lt;/b&gt;&lt;br&gt;hypothetical protein&lt;br&gt;Location: 2061 - 3737" locus_tag="CAL69595.1" class="clusterblast-orf" id="dummy-5_h5_3_1"  />
</g>
<g id="a5_002"  >
<polygon points="285,85 290,80 309,80 309,90 290,90 285,85 " style="fill:#15d8d8; stroke-width:1; stroke:black; " description="&lt;b&gt;CAL69596.1&lt;/b&gt;&lt;br&gt;hypothetical protein&lt;br&gt;Location: 4377 - 5543&lt;br&gt;&lt;br&gt;&lt;b&gt;BlastP hit with input.path1.gene1838&lt;/b&gt;&lt;br&gt;Percentage identity: 49&lt;br&gt;Percentage coverage: 56&lt;br&gt;BLAST bit score: 90&lt;br&gt;E-value: 3.46e-21" locus_tag="CAL69596.1" class="clusterblast-orf" id="dummy-5_h5_3_2"  />
</g>
<g id="a5_003"  >
<polygon points="322,90 576,90 581,85 576,80 322,80 322,90 " style="fill:#7715d8; stroke-width:1; stroke:black; " description="&lt;b&gt;CAL69597.1&lt;/b&gt;&lt;br&gt;PKS-NRPS&lt;br&gt;Location: 6225 - 19176&lt;br&gt;&lt;br&gt;&lt;b&gt;BlastP hit with input.path1.gene1839&lt;/b&gt;&lt;br&gt;Percentage identity: 48&lt;br&gt;Percentage coverage: 105&lt;br&gt;BLAST bit score: 3712&lt;br&gt;E-value: 0.0" locus_tag="CAL69597.1" class="clusterblast-orf" id="dummy-5_h5_3_3"  />
</g>
</svg>
