<svg xmlns="http://www.w3.org/2000/svg" xmlns:xlink="http://www.w3.org/1999/xlink" version="1.1" x="0" y="0" height="50" width="800" viewBox="0 0 800 50" preserveAspectRatio="none"  >
<g label="Query sequence" class="clusterblast-cluster"  >
<text x="5" y="20" class="clusterblast-acc"  >
Query sequence</text>
<line x1="10" y1="35" x2="778.0" y2="35" style="stroke-width:1; stroke:grey; "  />
<polygon points="0,40 33,40 38,35 33,30 0,30 0,40 " style="fill:white; stroke-width:1; stroke:black; " description="&lt;b&gt;input.path1.gene1211&lt;/b&gt;&lt;br&gt;input.path1.gene1211&lt;br&gt;Location: 4749311 - 4751317" locus_tag="input.path1.gene1211" class="clusterblast-orf" id="subclusterblast-2_q0_0_all"  />
<polygon points="53,35 58,30 65,30 65,40 58,40 53,35 " style="fill:white; stroke-width:1; stroke:black; " description="&lt;b&gt;input.path1.gene1212&lt;/b&gt;&lt;br&gt;input.path1.gene1212&lt;br&gt;Location: 4752057 - 4752707" locus_tag="input.path1.gene1212" class="clusterblast-orf" id="subclusterblast-2_q1_0_all"  />
<polygon points="79,35 84,30 123,30 123,40 84,40 79,35 " style="fill:white; stroke-width:1; stroke:black; " description="&lt;b&gt;input.path1.gene1213&lt;/b&gt;&lt;br&gt;input.path1.gene1213&lt;br&gt;Location: 4753410 - 4755675" locus_tag="input.path1.gene1213" class="clusterblast-orf" id="subclusterblast-2_q2_0_all"  />
<polygon points="180,40 232,40 237,35 232,30 180,30 180,40 " style="fill:white; stroke-width:1; stroke:black; " description="&lt;b&gt;input.path1.gene1214&lt;/b&gt;&lt;br&gt;input.path1.gene1214&lt;br&gt;Location: 4758654 - 4761567" locus_tag="input.path1.gene1214" class="clusterblast-orf" id="subclusterblast-2_q3_0_all"  />
<polygon points="252,35 257,30 274,30 274,40 257,40 252,35 " style="fill:white; stroke-width:1; stroke:black; " description="&lt;b&gt;input.path1.gene1215&lt;/b&gt;&lt;br&gt;input.path1.gene1215&lt;br&gt;Location: 4762375 - 4763482" locus_tag="input.path1.gene1215" class="clusterblast-orf" id="subclusterblast-2_q4_0_all"  />
<polygon points="290,35 295,30 301,30 301,40 295,40 290,35 " style="fill:white; stroke-width:1; stroke:black; " description="&lt;b&gt;input.path1.gene1216&lt;/b&gt;&lt;br&gt;input.path1.gene1216&lt;br&gt;Location: 4764304 - 4764907" locus_tag="input.path1.gene1216" class="clusterblast-orf" id="subclusterblast-2_q5_0_all"  />
<polygon points="319,35 324,30 455,30 455,40 324,40 319,35 " style="fill:white; stroke-width:1; stroke:black; " description="&lt;b&gt;input.path1.gene1217&lt;/b&gt;&lt;br&gt;input.path1.gene1217&lt;br&gt;Location: 4765823 - 4772873" locus_tag="input.path1.gene1217" class="clusterblast-orf" id="subclusterblast-2_q6_0_all"  />
<polygon points="494,40 507,40 512,35 507,30 494,30 494,40 " style="fill:white; stroke-width:1; stroke:black; " description="&lt;b&gt;input.path1.gene1218&lt;/b&gt;&lt;br&gt;input.path1.gene1218&lt;br&gt;Location: 4774860 - 4775820" locus_tag="input.path1.gene1218" class="clusterblast-orf" id="subclusterblast-2_q7_0_all"  />
<polygon points="513,35 518,30 526,30 526,40 518,40 513,35 " style="fill:white; stroke-width:1; stroke:black; " description="&lt;b&gt;input.path1.gene1219&lt;/b&gt;&lt;br&gt;input.path1.gene1219&lt;br&gt;Location: 4775860 - 4776522" locus_tag="input.path1.gene1219" class="clusterblast-orf" id="subclusterblast-2_q8_0_all"  />
<polygon points="533,40 559,40 564,35 559,30 533,30 533,40 " style="fill:white; stroke-width:1; stroke:black; " description="&lt;b&gt;input.path1.gene1220&lt;/b&gt;&lt;br&gt;input.path1.gene1220&lt;br&gt;Location: 4776877 - 4778503" locus_tag="input.path1.gene1220" class="clusterblast-orf" id="subclusterblast-2_q9_0_all"  />
<polygon points="570,35 575,30 583,30 583,40 575,40 570,35 " style="fill:white; stroke-width:1; stroke:black; " description="&lt;b&gt;input.path1.gene1221&lt;/b&gt;&lt;br&gt;input.path1.gene1221&lt;br&gt;Location: 4778800 - 4779461" locus_tag="input.path1.gene1221" class="clusterblast-orf" id="subclusterblast-2_q10_0_all"  />
<polygon points="757,40 775,40 780,35 775,30 757,30 757,40 " style="fill:white; stroke-width:1; stroke:black; " description="&lt;b&gt;input.path1.gene1222&lt;/b&gt;&lt;br&gt;input.path1.gene1222&lt;br&gt;Location: 4788481 - 4789645" locus_tag="input.path1.gene1222" class="clusterblast-orf" id="subclusterblast-2_q11_0_all"  />
</g>
</svg>
