<svg xmlns="http://www.w3.org/2000/svg" xmlns:xlink="http://www.w3.org/1999/xlink" version="1.1" x="0" y="0" height="230" width="800" viewBox="0 0 800 230" preserveAspectRatio="none"  >
<g label="Query sequence" class="clusterblast-cluster"  >
<text x="5" y="20" class="clusterblast-acc"  >
Query sequence</text>
<line x1="10" y1="35" x2="778.0" y2="35" style="stroke-width:1; stroke:grey; "  />
<polygon points="122,35 127,30 181,30 181,40 127,40 122,35 " style="fill:white; stroke-width:1; stroke:black; " description="&lt;b&gt;input.path1.gene421&lt;/b&gt;&lt;br&gt;input.path1.gene421&lt;br&gt;Location: 2352103 - 2357478" locus_tag="input.path1.gene421" class="clusterblast-orf" id="dummy-4_q0_0_all"  />
<polygon points="204,40 216,40 221,35 216,30 204,30 204,40 " style="fill:white; stroke-width:1; stroke:black; " description="&lt;b&gt;input.path1.gene422&lt;/b&gt;&lt;br&gt;input.path1.gene422&lt;br&gt;Location: 2359512 - 2361074" locus_tag="input.path1.gene422" class="clusterblast-orf" id="dummy-4_q1_0_all"  />
<polygon points="238,35 243,30 251,30 251,40 243,40 238,35 " style="fill:white; stroke-width:1; stroke:black; " description="&lt;b&gt;input.path1.gene423&lt;/b&gt;&lt;br&gt;input.path1.gene423&lt;br&gt;Location: 2362660 - 2363806" locus_tag="input.path1.gene423" class="clusterblast-orf" id="dummy-4_q2_0_all"  />
<polygon points="271,35 276,30 279,30 279,40 276,40 271,35 " style="fill:white; stroke-width:1; stroke:black; " description="&lt;b&gt;input.path1.gene424&lt;/b&gt;&lt;br&gt;input.path1.gene424&lt;br&gt;Location: 2365586 - 2366326" locus_tag="input.path1.gene424" class="clusterblast-orf" id="dummy-4_q3_0_all"  />
<polygon points="291,40 295,35 291,30 291,40 " style="fill:white; stroke-width:1; stroke:black; " description="&lt;b&gt;input.path1.gene425&lt;/b&gt;&lt;br&gt;input.path1.gene425&lt;br&gt;Location: 2367405 - 2367740" locus_tag="input.path1.gene425" class="clusterblast-orf" id="dummy-4_q4_0_all"  />
<polygon points="298,35 303,30 317,30 317,40 303,40 298,35 " style="fill:#d81515; stroke-width:1; stroke:black; " description="&lt;b&gt;input.path1.gene426&lt;/b&gt;&lt;br&gt;input.path1.gene426&lt;br&gt;Location: 2368074 - 2369753" locus_tag="input.path1.gene426" class="clusterblast-orf" id="dummy-4_q5_0_all"  />
<polygon points="330,40 365,40 370,35 365,30 330,30 330,40 " style="fill:#15d8d8; stroke-width:1; stroke:black; " description="&lt;b&gt;input.path1.gene427&lt;/b&gt;&lt;br&gt;input.path1.gene427&lt;br&gt;Location: 2370884 - 2374503" locus_tag="input.path1.gene427" class="clusterblast-orf" id="dummy-4_q6_0_all"  />
<polygon points="382,40 382,40 387,35 382,30 382,30 382,40 " style="fill:#15d8d8; stroke-width:1; stroke:black; " description="&lt;b&gt;input.path1.gene428&lt;/b&gt;&lt;br&gt;input.path1.gene428&lt;br&gt;Location: 2375605 - 2376065" locus_tag="input.path1.gene428" class="clusterblast-orf" id="dummy-4_q7_0_all"  />
<polygon points="400,40 460,40 465,35 460,30 400,30 400,40 " style="fill:#15d8d8; stroke-width:1; stroke:black; " description="&lt;b&gt;input.path1.gene429&lt;/b&gt;&lt;br&gt;input.path1.gene429&lt;br&gt;Location: 2377228 - 2383114" locus_tag="input.path1.gene429" class="clusterblast-orf" id="dummy-4_q8_0_all"  />
<polygon points="478,40 538,40 543,35 538,30 478,30 478,40 " style="fill:white; stroke-width:1; stroke:black; " description="&lt;b&gt;input.path1.gene430&lt;/b&gt;&lt;br&gt;input.path1.gene430&lt;br&gt;Location: 2384288 - 2390127" locus_tag="input.path1.gene430" class="clusterblast-orf" id="dummy-4_q9_0_all"  />
<polygon points="563,35 568,30 571,30 571,40 568,40 563,35 " style="fill:white; stroke-width:1; stroke:black; " description="&lt;b&gt;input.path1.gene431&lt;/b&gt;&lt;br&gt;input.path1.gene431&lt;br&gt;Location: 2391957 - 2392648" locus_tag="input.path1.gene431" class="clusterblast-orf" id="dummy-4_q10_0_all"  />
<polygon points="572,40 590,40 595,35 590,30 572,30 572,40 " style="fill:white; stroke-width:1; stroke:black; " description="&lt;b&gt;input.path1.gene432&lt;/b&gt;&lt;br&gt;input.path1.gene432&lt;br&gt;Location: 2392805 - 2394845" locus_tag="input.path1.gene432" class="clusterblast-orf" id="dummy-4_q11_0_all"  />
<polygon points="603,40 606,40 611,35 606,30 603,30 603,40 " style="fill:white; stroke-width:1; stroke:black; " description="&lt;b&gt;input.path1.gene433&lt;/b&gt;&lt;br&gt;input.path1.gene433&lt;br&gt;Location: 2395619 - 2396339" locus_tag="input.path1.gene433" class="clusterblast-orf" id="dummy-4_q12_0_all"  />
<polygon points="612,40 616,35 612,30 612,40 " style="fill:white; stroke-width:1; stroke:black; " description="&lt;b&gt;input.path1.gene434&lt;/b&gt;&lt;br&gt;input.path1.gene434&lt;br&gt;Location: 2396346 - 2396740" locus_tag="input.path1.gene434" class="clusterblast-orf" id="dummy-4_q13_0_all"  />
<polygon points="623,35 628,30 658,30 658,40 628,40 623,35 " style="fill:white; stroke-width:1; stroke:black; " description="&lt;b&gt;input.path1.gene435&lt;/b&gt;&lt;br&gt;input.path1.gene435&lt;br&gt;Location: 2397418 - 2400514" locus_tag="input.path1.gene435" class="clusterblast-orf" id="dummy-4_q14_0_all"  />
</g>
<g label="NC_064651" description="NC_064651 (4348010-4420287): Penicillium oxalicum strain HP7-1 chromosome II,... (8% of genes show similarity), NRPS" class="clusterblast-cluster"  >
<text x="5" y="70" class="clusterblast-acc"  >
<a xlink:href="https://antismash-db.secondarymetabolites.org/area?record=NC_064651&amp;start=4348010&amp;end=4420287" target="_blank">NC_064651 (4348010-4420287)</a>: Penicillium oxalicum strain HP7-1 chromosome II,... (8% of genes show similarity), NRPS</text>
<line x1="10" y1="85" x2="778.0" y2="85" style="stroke-width:1; stroke:grey; "  />
</g>
<g id="a4_000"  >
<polygon points="0,85 5,80 7,80 7,90 5,90 0,85 " style="fill:white; stroke-width:1; stroke:black; " description="&lt;b&gt;POX_b03370&lt;/b&gt;&lt;br&gt;hypothetical protein&lt;br&gt;Location: 4348211 - 4348918" locus_tag="POX_b03370" class="clusterblast-orf" id="dummy-4_h4_3_0"  />
</g>
<g id="a4_001"  >
<polygon points="19,85 24,80 38,80 38,90 24,90 19,85 " style="fill:white; stroke-width:1; stroke:black; " description="&lt;b&gt;POX_b03371&lt;/b&gt;&lt;br&gt;hypothetical protein&lt;br&gt;Location: 4349947 - 4351695" locus_tag="POX_b03371" class="clusterblast-orf" id="dummy-4_h4_3_1"  />
</g>
<g id="a4_002"  >
<polygon points="43,85 48,80 67,80 67,90 48,90 43,85 " style="fill:white; stroke-width:1; stroke:black; " description="&lt;b&gt;POX_b03372&lt;/b&gt;&lt;br&gt;hypothetical protein&lt;br&gt;Location: 4352158 - 4354272" locus_tag="POX_b03372" class="clusterblast-orf" id="dummy-4_h4_3_2"  />
</g>
<g id="a4_003"  >
<polygon points="73,90 95,90 100,85 95,80 73,80 73,90 " style="fill:white; stroke-width:1; stroke:black; " description="&lt;b&gt;POX_b03373&lt;/b&gt;&lt;br&gt;hypothetical protein&lt;br&gt;Location: 4354863 - 4357260" locus_tag="POX_b03373" class="clusterblast-orf" id="dummy-4_h4_3_3"  />
</g>
<g id="a4_004"  >
<polygon points="106,85 111,80 112,80 112,90 111,90 106,85 " style="fill:white; stroke-width:1; stroke:black; " description="&lt;b&gt;POX_b03374&lt;/b&gt;&lt;br&gt;hypothetical protein&lt;br&gt;Location: 4357822 - 4358394" locus_tag="POX_b03374" class="clusterblast-orf" id="dummy-4_h4_3_4"  />
</g>
<g id="a4_005"  >
<polygon points="137,85 142,80 145,80 145,90 142,90 137,85 " style="fill:white; stroke-width:1; stroke:black; " description="&lt;b&gt;POX_b03375&lt;/b&gt;&lt;br&gt;hypothetical protein&lt;br&gt;Location: 4360629 - 4361307" locus_tag="POX_b03375" class="clusterblast-orf" id="dummy-4_h4_3_5"  />
</g>
<g id="a4_006"  >
<polygon points="153,85 158,80 163,80 163,90 158,90 153,85 " style="fill:white; stroke-width:1; stroke:black; " description="&lt;b&gt;POX_b03376&lt;/b&gt;&lt;br&gt;hypothetical protein&lt;br&gt;Location: 4362038 - 4362966" locus_tag="POX_b03376" class="clusterblast-orf" id="dummy-4_h4_3_6"  />
</g>
<g id="a4_007"  >
<polygon points="176,90 184,90 189,85 184,80 176,80 176,90 " style="fill:white; stroke-width:1; stroke:black; " description="&lt;b&gt;POX_b03377&lt;/b&gt;&lt;br&gt;hypothetical protein&lt;br&gt;Location: 4364121 - 4365321" locus_tag="POX_b03377" class="clusterblast-orf" id="dummy-4_h4_3_7"  />
</g>
<g id="a4_008"  >
<polygon points="193,90 200,90 205,85 200,80 193,80 193,90 " style="fill:white; stroke-width:1; stroke:black; " description="&lt;b&gt;POX_b03378&lt;/b&gt;&lt;br&gt;Ribosome biogenesis protein BRX1&lt;br&gt;Location: 4365650 - 4366796" locus_tag="POX_b03378" class="clusterblast-orf" id="dummy-4_h4_3_8"  />
</g>
<g id="a4_009"  >
<polygon points="217,85 222,80 227,80 227,90 222,90 217,85 " style="fill:white; stroke-width:1; stroke:black; " description="&lt;b&gt;POX_b03379&lt;/b&gt;&lt;br&gt;Ras-related protein Rab-11B&lt;br&gt;Location: 4367820 - 4368787" locus_tag="POX_b03379" class="clusterblast-orf" id="dummy-4_h4_3_9"  />
</g>
<g id="a4_0010"  >
<polygon points="240,85 245,80 257,80 257,90 245,90 240,85 " style="fill:white; stroke-width:1; stroke:black; " description="&lt;b&gt;POX_b03380&lt;/b&gt;&lt;br&gt;hypothetical protein&lt;br&gt;Location: 4369883 - 4371418" locus_tag="POX_b03380" class="clusterblast-orf" id="dummy-4_h4_3_10"  />
</g>
<g id="a4_0011"  >
<polygon points="276,85 281,80 294,80 294,90 281,90 276,85 " style="fill:#d81515; stroke-width:1; stroke:black; " description="&lt;b&gt;POX_b03381&lt;/b&gt;&lt;br&gt;hypothetical protein&lt;br&gt;Location: 4373140 - 4374763&lt;br&gt;&lt;br&gt;&lt;b&gt;BlastP hit with input.path1.gene426&lt;/b&gt;&lt;br&gt;Percentage identity: 59&lt;br&gt;Percentage coverage: 92&lt;br&gt;BLAST bit score: 515&lt;br&gt;E-value: 2.41e-178" locus_tag="POX_b03381" class="clusterblast-orf" id="dummy-4_h4_3_11"  />
</g>
<g id="a4_0012"  >
<polygon points="330,90 460,90 465,85 460,80 330,80 330,90 " style="fill:#15d8d8; stroke-width:1; stroke:black; " description="&lt;b&gt;POX_b03382&lt;/b&gt;&lt;br&gt;hypothetical protein&lt;br&gt;Location: 4378011 - 4390287&lt;br&gt;&lt;br&gt;&lt;b&gt;BlastP hit with input.path1.gene427&lt;/b&gt;&lt;br&gt;Percentage identity: 48&lt;br&gt;Percentage coverage: 123&lt;br&gt;BLAST bit score: 943&lt;br&gt;E-value: 6.59e-306&lt;br&gt;&lt;br&gt;&lt;b&gt;BlastP hit with input.path1.gene428&lt;/b&gt;&lt;br&gt;Percentage identity: 48&lt;br&gt;Percentage coverage: 89&lt;br&gt;BLAST bit score: 84&lt;br&gt;E-value: 3.92e-18&lt;br&gt;&lt;br&gt;&lt;b&gt;BlastP hit with input.path1.gene429&lt;/b&gt;&lt;br&gt;Percentage identity: 46&lt;br&gt;Percentage coverage: 120&lt;br&gt;BLAST bit score: 1648&lt;br&gt;E-value: 0.0" locus_tag="POX_b03382" class="clusterblast-orf" id="dummy-4_h4_3_12"  />
</g>
<g id="a4_0013"  >
<polygon points="472,90 513,90 518,85 513,80 472,80 472,90 " style="fill:white; stroke-width:1; stroke:black; " description="&lt;b&gt;POX_b03383&lt;/b&gt;&lt;br&gt;hypothetical protein&lt;br&gt;Location: 4390878 - 4395037" locus_tag="POX_b03383" class="clusterblast-orf" id="dummy-4_h4_3_13"  />
</g>
<g id="a4_0014"  >
<polygon points="527,85 532,80 551,80 551,90 532,90 527,85 " style="fill:white; stroke-width:1; stroke:black; " description="&lt;b&gt;POX_b03384&lt;/b&gt;&lt;br&gt;ATP-dependent Clp protease ATP-binding subunit clpX-like&lt;br&gt;Location: 4395878 - 4397997" locus_tag="POX_b03384" class="clusterblast-orf" id="dummy-4_h4_3_14"  />
</g>
<g id="a4_0015"  >
<polygon points="563,90 578,90 583,85 578,80 563,80 563,90 " style="fill:white; stroke-width:1; stroke:black; " description="&lt;b&gt;POX_b03385&lt;/b&gt;&lt;br&gt;putative FAD-linked oxidoreductase&lt;br&gt;Location: 4399051 - 4400894" locus_tag="POX_b03385" class="clusterblast-orf" id="dummy-4_h4_3_15"  />
</g>
<g id="a4_0016"  >
<polygon points="585,85 590,80 595,80 595,90 590,90 585,85 " style="fill:white; stroke-width:1; stroke:black; " description="&lt;b&gt;POX_b03386&lt;/b&gt;&lt;br&gt;Botcinic acid biosynthesis cluster B protein 16&lt;br&gt;Location: 4401109 - 4401974" locus_tag="POX_b03386" class="clusterblast-orf" id="dummy-4_h4_3_16"  />
</g>
<g id="a4_0017"  >
<polygon points="606,85 611,80 612,80 612,90 611,90 606,85 " style="fill:white; stroke-width:1; stroke:black; " description="&lt;b&gt;POX_b03387&lt;/b&gt;&lt;br&gt;hypothetical protein&lt;br&gt;Location: 4403010 - 4403486" locus_tag="POX_b03387" class="clusterblast-orf" id="dummy-4_h4_3_17"  />
</g>
<g id="a4_0018"  >
<polygon points="625,90 635,90 640,85 635,80 625,80 625,90 " style="fill:white; stroke-width:1; stroke:black; " description="&lt;b&gt;POX_b03388&lt;/b&gt;&lt;br&gt;Glycerol-3-phosphate dehydrogenase&lt;br&gt;Location: 4404651 - 4406079" locus_tag="POX_b03388" class="clusterblast-orf" id="dummy-4_h4_3_18"  />
</g>
<g id="a4_0019"  >
<polygon points="645,85 649,80 649,90 645,85 " style="fill:white; stroke-width:1; stroke:black; " description="&lt;b&gt;POX_b03389&lt;/b&gt;&lt;br&gt;hypothetical protein&lt;br&gt;Location: 4406481 - 4406842" locus_tag="POX_b03389" class="clusterblast-orf" id="dummy-4_h4_3_19"  />
</g>
<g id="a4_0020"  >
<polygon points="650,90 697,90 702,85 697,80 650,80 650,90 " style="fill:white; stroke-width:1; stroke:black; " description="&lt;b&gt;POX_b03390&lt;/b&gt;&lt;br&gt;Glycogen debranching enzyme&lt;br&gt;Location: 4406944 - 4411681" locus_tag="POX_b03390" class="clusterblast-orf" id="dummy-4_h4_3_20"  />
</g>
<g id="a4_0021"  >
<polygon points="735,90 755,90 760,85 755,80 735,80 735,90 " style="fill:white; stroke-width:1; stroke:black; " description="&lt;b&gt;POX_b03391&lt;/b&gt;&lt;br&gt;hypothetical protein&lt;br&gt;Location: 4414612 - 4416897" locus_tag="POX_b03391" class="clusterblast-orf" id="dummy-4_h4_3_21"  />
</g>
<g id="a4_0022"  >
<polygon points="765,85 770,80 779,80 779,90 770,90 765,85 " style="fill:white; stroke-width:1; stroke:black; " description="&lt;b&gt;POX_b03392&lt;/b&gt;&lt;br&gt;Phospho-2-dehydro-3-deoxyheptonate aldolase AMT16&lt;br&gt;Location: 4417318 - 4418643" locus_tag="POX_b03392" class="clusterblast-orf" id="dummy-4_h4_3_22"  />
</g>
</svg>
