<svg xmlns="http://www.w3.org/2000/svg" xmlns:xlink="http://www.w3.org/1999/xlink" version="1.1" x="0" y="0" height="230" width="800" viewBox="0 0 800 230" preserveAspectRatio="none"  >
<g label="Query sequence" class="clusterblast-cluster"  >
<text x="5" y="20" class="clusterblast-acc"  >
Query sequence</text>
<line x1="10" y1="35" x2="778.0" y2="35" style="stroke-width:1; stroke:grey; "  />
<polygon points="108,40 196,40 201,35 196,30 108,30 108,40 " style="fill:#d81515; stroke-width:1; stroke:black; " description="&lt;b&gt;input.path1.gene1561&lt;/b&gt;&lt;br&gt;input.path1.gene1561&lt;br&gt;Location: 7337532 - 7340786" locus_tag="input.path1.gene1561" class="clusterblast-orf" id="dummy-4_q0_0_all"  />
<polygon points="207,35 212,30 247,30 247,40 212,40 207,35 " style="fill:#77d815; stroke-width:1; stroke:black; " description="&lt;b&gt;input.path1.gene1562&lt;/b&gt;&lt;br&gt;input.path1.gene1562&lt;br&gt;Location: 7341018 - 7342408" locus_tag="input.path1.gene1562" class="clusterblast-orf" id="dummy-4_q1_0_all"  />
<polygon points="327,40 386,40 391,35 386,30 327,30 327,40 " style="fill:#15d8d8; stroke-width:1; stroke:black; " description="&lt;b&gt;input.path1.gene1563&lt;/b&gt;&lt;br&gt;input.path1.gene1563&lt;br&gt;Location: 7345227 - 7347441" locus_tag="input.path1.gene1563" class="clusterblast-orf" id="dummy-4_q2_0_all"  />
<polygon points="393,35 398,30 447,30 447,40 398,40 393,35 " style="fill:#7715d8; stroke-width:1; stroke:black; " description="&lt;b&gt;input.path1.gene1564&lt;/b&gt;&lt;br&gt;input.path1.gene1564&lt;br&gt;Location: 7347511 - 7349411" locus_tag="input.path1.gene1564" class="clusterblast-orf" id="dummy-4_q3_0_all"  />
<polygon points="664,40 667,40 672,35 667,30 664,30 664,40 " style="fill:white; stroke-width:1; stroke:black; " description="&lt;b&gt;input.path1.gene1565&lt;/b&gt;&lt;br&gt;input.path1.gene1565&lt;br&gt;Location: 7357021 - 7357287" locus_tag="input.path1.gene1565" class="clusterblast-orf" id="dummy-4_q4_0_all"  />
</g>
<g label="NC_070529" description="NC_070529 (5465471-5497016): Fusarium keratoplasticum isolate Fu6.1 chromosom... (20% of genes show similarity), terpene" class="clusterblast-cluster"  >
<text x="5" y="70" class="clusterblast-acc"  >
<a xlink:href="https://antismash-db.secondarymetabolites.org/area?record=NC_070529&amp;start=5465471&amp;end=5497016" target="_blank">NC_070529 (5465471-5497016)</a>: Fusarium keratoplasticum isolate Fu6.1 chromosom... (20% of genes show similarity), terpene</text>
<line x1="10" y1="85" x2="778.0" y2="85" style="stroke-width:1; stroke:grey; "  />
</g>
<g id="a4_000"  >
<polygon points="0,90 67,90 72,85 67,80 0,80 0,90 " style="fill:white; stroke-width:1; stroke:black; " description="&lt;b&gt;NCS57_00163000&lt;/b&gt;&lt;br&gt;FHA domain-containing protein&lt;br&gt;Location: 5466697 - 5469237" locus_tag="NCS57_00163000" class="clusterblast-orf" id="dummy-4_h4_3_0"  />
</g>
<g id="a4_001"  >
<polygon points="78,85 83,80 113,80 113,90 83,90 78,85 " style="fill:white; stroke-width:1; stroke:black; " description="&lt;b&gt;NCS57_00163100&lt;/b&gt;&lt;br&gt;Cytochrome b5 heme-binding domain-containing protein&lt;br&gt;Location: 5469431 - 5470675" locus_tag="NCS57_00163100" class="clusterblast-orf" id="dummy-4_h4_3_1"  />
</g>
<g id="a4_002"  >
<polygon points="169,90 229,90 234,85 229,80 169,80 169,90 " style="fill:white; stroke-width:1; stroke:black; " description="&lt;b&gt;NCS57_00163200&lt;/b&gt;&lt;br&gt;hypothetical protein&lt;br&gt;Location: 5472643 - 5474910" locus_tag="NCS57_00163200" class="clusterblast-orf" id="dummy-4_h4_3_2"  />
</g>
<g id="a4_003"  >
<polygon points="267,85 272,80 314,80 314,90 272,90 267,85 " style="fill:white; stroke-width:1; stroke:black; " description="&lt;b&gt;NCS57_00163300&lt;/b&gt;&lt;br&gt;J domain-containing protein&lt;br&gt;Location: 5476049 - 5477712" locus_tag="NCS57_00163300" class="clusterblast-orf" id="dummy-4_h4_3_3"  />
</g>
<g id="a4_004"  >
<polygon points="393,90 432,90 437,85 432,80 393,80 393,90 " style="fill:#15d8d8; stroke-width:1; stroke:black; " description="&lt;b&gt;NCS57_00163400&lt;/b&gt;&lt;br&gt;Squalene synthase&lt;br&gt;Location: 5480472 - 5482016&lt;br&gt;&lt;br&gt;&lt;b&gt;BlastP hit with input.path1.gene1563&lt;/b&gt;&lt;br&gt;Percentage identity: 77&lt;br&gt;Percentage coverage: 94&lt;br&gt;BLAST bit score: 693&lt;br&gt;E-value: 6.59e-250" locus_tag="NCS57_00163400" class="clusterblast-orf" id="dummy-4_h4_3_4"  />
</g>
<g id="a4_005"  >
<polygon points="469,85 474,80 512,80 512,90 474,90 469,85 " style="fill:#7715d8; stroke-width:1; stroke:black; " description="&lt;b&gt;NCS57_00163500&lt;/b&gt;&lt;br&gt;hypothetical protein&lt;br&gt;Location: 5483138 - 5484631&lt;br&gt;&lt;br&gt;&lt;b&gt;BlastP hit with input.path1.gene1564&lt;/b&gt;&lt;br&gt;Percentage identity: 62&lt;br&gt;Percentage coverage: 75&lt;br&gt;BLAST bit score: 441&lt;br&gt;E-value: 1.8e-149" locus_tag="NCS57_00163500" class="clusterblast-orf" id="dummy-4_h4_3_5"  />
</g>
<g id="a4_006"  >
<polygon points="617,85 622,80 644,80 644,90 622,90 617,85 " style="fill:white; stroke-width:1; stroke:black; " description="&lt;b&gt;NCS57_00163600&lt;/b&gt;&lt;br&gt;Hypothetical protein&lt;br&gt;Location: 5488327 - 5489272" locus_tag="NCS57_00163600" class="clusterblast-orf" id="dummy-4_h4_3_6"  />
</g>
<g id="a4_007"  >
<polygon points="657,90 675,90 680,85 675,80 657,80 657,90 " style="fill:white; stroke-width:1; stroke:black; " description="&lt;b&gt;NCS57_00163700&lt;/b&gt;&lt;br&gt;hypothetical protein&lt;br&gt;Location: 5489709 - 5490500" locus_tag="NCS57_00163700" class="clusterblast-orf" id="dummy-4_h4_3_7"  />
</g>
<g id="a4_008"  >
<polygon points="691,85 696,80 735,80 735,90 696,90 691,85 " style="fill:white; stroke-width:1; stroke:black; " description="&lt;b&gt;NCS57_00163800&lt;/b&gt;&lt;br&gt;Choline transport protein&lt;br&gt;Location: 5490906 - 5492429" locus_tag="NCS57_00163800" class="clusterblast-orf" id="dummy-4_h4_3_8"  />
</g>
<g id="a4_009"  >
<polygon points="755,90 775,90 780,85 775,80 755,80 755,90 " style="fill:white; stroke-width:1; stroke:black; " description="&lt;b&gt;NCS57_00163900&lt;/b&gt;&lt;br&gt;Acetoacetate decarboxylase&lt;br&gt;Location: 5493144 - 5493998" locus_tag="NCS57_00163900" class="clusterblast-orf" id="dummy-4_h4_3_9"  />
</g>
</svg>
