<svg xmlns="http://www.w3.org/2000/svg" xmlns:xlink="http://www.w3.org/1999/xlink" version="1.1" x="0" y="0" height="230" width="800" viewBox="0 0 800 230" preserveAspectRatio="none"  >
<g label="Query sequence" class="clusterblast-cluster"  >
<text x="5" y="20" class="clusterblast-acc"  >
Query sequence</text>
<line x1="10" y1="35" x2="778.0" y2="35" style="stroke-width:1; stroke:grey; "  />
<polygon points="274,40 276,40 281,35 276,30 274,30 274,40 " style="fill:white; stroke-width:1; stroke:black; " description="&lt;b&gt;input.path1.gene142&lt;/b&gt;&lt;br&gt;input.path1.gene142&lt;br&gt;Location: 956360 - 957285" locus_tag="input.path1.gene142" class="clusterblast-orf" id="dummy-2_q0_0_all"  />
<polygon points="293,35 295,30 295,40 293,35 " style="fill:white; stroke-width:1; stroke:black; " description="&lt;b&gt;input.path1.gene143&lt;/b&gt;&lt;br&gt;input.path1.gene143&lt;br&gt;Location: 959106 - 959462" locus_tag="input.path1.gene143" class="clusterblast-orf" id="dummy-2_q1_0_all"  />
<polygon points="303,40 303,40 308,35 303,30 303,30 303,40 " style="fill:white; stroke-width:1; stroke:black; " description="&lt;b&gt;input.path1.gene144&lt;/b&gt;&lt;br&gt;input.path1.gene144&lt;br&gt;Location: 960543 - 961270" locus_tag="input.path1.gene144" class="clusterblast-orf" id="dummy-2_q2_0_all"  />
<polygon points="320,40 323,35 320,30 320,40 " style="fill:white; stroke-width:1; stroke:black; " description="&lt;b&gt;input.path1.gene145&lt;/b&gt;&lt;br&gt;input.path1.gene145&lt;br&gt;Location: 963046 - 963572" locus_tag="input.path1.gene145" class="clusterblast-orf" id="dummy-2_q3_0_all"  />
<polygon points="329,35 334,30 342,30 342,40 334,40 329,35 " style="fill:#d81515; stroke-width:1; stroke:black; " description="&lt;b&gt;input.path1.gene146&lt;/b&gt;&lt;br&gt;input.path1.gene146&lt;br&gt;Location: 964442 - 966237" locus_tag="input.path1.gene146" class="clusterblast-orf" id="dummy-2_q4_0_all"  />
<polygon points="350,40 373,40 378,35 373,30 350,30 350,40 " style="fill:#15d863; stroke-width:1; stroke:black; " description="&lt;b&gt;input.path1.gene147&lt;/b&gt;&lt;br&gt;input.path1.gene147&lt;br&gt;Location: 967444 - 971542" locus_tag="input.path1.gene147" class="clusterblast-orf" id="dummy-2_q5_0_all"  />
<polygon points="383,40 385,40 390,35 385,30 383,30 383,40 " style="fill:#1563d8; stroke-width:1; stroke:black; " description="&lt;b&gt;input.path1.gene148&lt;/b&gt;&lt;br&gt;input.path1.gene148&lt;br&gt;Location: 972293 - 973253" locus_tag="input.path1.gene148" class="clusterblast-orf" id="dummy-2_q6_0_all"  />
<polygon points="392,35 397,30 402,30 402,40 397,40 392,35 " style="fill:#b115d8; stroke-width:1; stroke:black; " description="&lt;b&gt;input.path1.gene149&lt;/b&gt;&lt;br&gt;input.path1.gene149&lt;br&gt;Location: 973682 - 975011" locus_tag="input.path1.gene149" class="clusterblast-orf" id="dummy-2_q7_0_all"  />
<polygon points="406,40 416,40 421,35 416,30 406,30 406,40 " style="fill:#b1d815; stroke-width:1; stroke:black; " description="&lt;b&gt;input.path1.gene150&lt;/b&gt;&lt;br&gt;input.path1.gene150&lt;br&gt;Location: 975680 - 977797" locus_tag="input.path1.gene150" class="clusterblast-orf" id="dummy-2_q8_0_all"  />
<polygon points="425,35 430,30 433,30 433,40 430,40 425,35 " style="fill:white; stroke-width:1; stroke:black; " description="&lt;b&gt;input.path1.gene151&lt;/b&gt;&lt;br&gt;input.path1.gene151&lt;br&gt;Location: 978376 - 979552" locus_tag="input.path1.gene151" class="clusterblast-orf" id="dummy-2_q9_0_all"  />
<polygon points="461,40 463,40 468,35 463,30 461,30 461,40 " style="fill:white; stroke-width:1; stroke:black; " description="&lt;b&gt;input.path1.gene152&lt;/b&gt;&lt;br&gt;input.path1.gene152&lt;br&gt;Location: 983752 - 984691" locus_tag="input.path1.gene152" class="clusterblast-orf" id="dummy-2_q10_0_all"  />
<polygon points="475,40 479,40 484,35 479,30 475,30 475,40 " style="fill:white; stroke-width:1; stroke:black; " description="&lt;b&gt;input.path1.gene153&lt;/b&gt;&lt;br&gt;input.path1.gene153&lt;br&gt;Location: 985735 - 987029" locus_tag="input.path1.gene153" class="clusterblast-orf" id="dummy-2_q11_0_all"  />
<polygon points="490,35 495,30 505,30 505,40 495,40 490,35 " style="fill:white; stroke-width:1; stroke:black; " description="&lt;b&gt;input.path1.gene154&lt;/b&gt;&lt;br&gt;input.path1.gene154&lt;br&gt;Location: 987969 - 990150" locus_tag="input.path1.gene154" class="clusterblast-orf" id="dummy-2_q12_0_all"  />
</g>
<g label="NW_024467540" description="NW_024467540 (77139-192266): Aspergillus versicolor CBS 583.65 unplaced genom... (6% of genes show similarity), NRPS,betalactone" class="clusterblast-cluster"  >
<text x="5" y="70" class="clusterblast-acc"  >
<a xlink:href="https://antismash-db.secondarymetabolites.org/area?record=NW_024467540&amp;start=77139&amp;end=192266" target="_blank">NW_024467540 (77139-192266)</a>: Aspergillus versicolor CBS 583.65 unplaced genom... (6% of genes show similarity), NRPS,betalactone</text>
<line x1="10" y1="85" x2="778.0" y2="85" style="stroke-width:1; stroke:grey; "  />
</g>
<g id="a2_000"  >
<polygon points="0,90 5,90 10,85 5,80 0,80 0,90 " style="fill:white; stroke-width:1; stroke:black; " description="&lt;b&gt;ASPVEDRAFT_145300&lt;/b&gt;&lt;br&gt;uncharacterized protein&lt;br&gt;Location: 192203 - 190683" locus_tag="ASPVEDRAFT_145300" class="clusterblast-orf" id="dummy-2_h2_4_0"  />
</g>
<g id="a2_001"  >
<polygon points="24,85 29,80 56,80 56,90 29,90 24,85 " style="fill:white; stroke-width:1; stroke:black; " description="&lt;b&gt;ASPVEDRAFT_34944&lt;/b&gt;&lt;br&gt;uncharacterized protein&lt;br&gt;Location: 188639 - 183975" locus_tag="ASPVEDRAFT_34944" class="clusterblast-orf" id="dummy-2_h2_4_1"  />
</g>
<g id="a2_002"  >
<polygon points="58,90 59,90 64,85 59,80 58,80 58,90 " style="fill:white; stroke-width:1; stroke:black; " description="&lt;b&gt;ASPVEDRAFT_47969&lt;/b&gt;&lt;br&gt;uncharacterized protein&lt;br&gt;Location: 183633 - 182701" locus_tag="ASPVEDRAFT_47969" class="clusterblast-orf" id="dummy-2_h2_4_2"  />
</g>
<g id="a2_003"  >
<polygon points="67,85 70,80 70,90 67,85 " style="fill:white; stroke-width:1; stroke:black; " description="&lt;b&gt;ASPVEDRAFT_418314&lt;/b&gt;&lt;br&gt;uncharacterized protein&lt;br&gt;Location: 182385 - 181820" locus_tag="ASPVEDRAFT_418314" class="clusterblast-orf" id="dummy-2_h2_4_3"  />
</g>
<g id="a2_004"  >
<polygon points="82,90 88,90 93,85 88,80 82,80 82,90 " style="fill:white; stroke-width:1; stroke:black; " description="&lt;b&gt;ASPVEDRAFT_156414&lt;/b&gt;&lt;br&gt;uncharacterized protein&lt;br&gt;Location: 180095 - 178478" locus_tag="ASPVEDRAFT_156414" class="clusterblast-orf" id="dummy-2_h2_4_4"  />
</g>
<g id="a2_005"  >
<polygon points="100,85 105,80 105,80 105,90 105,90 100,85 " style="fill:white; stroke-width:1; stroke:black; " description="&lt;b&gt;ASPVEDRAFT_66653&lt;/b&gt;&lt;br&gt;uncharacterized protein&lt;br&gt;Location: 177535 - 176724" locus_tag="ASPVEDRAFT_66653" class="clusterblast-orf" id="dummy-2_h2_4_5"  />
</g>
<g id="a2_006"  >
<polygon points="110,90 110,90 115,85 110,80 110,80 110,90 " style="fill:white; stroke-width:1; stroke:black; " description="&lt;b&gt;ASPVEDRAFT_47964&lt;/b&gt;&lt;br&gt;uncharacterized protein&lt;br&gt;Location: 176034 - 175326" locus_tag="ASPVEDRAFT_47964" class="clusterblast-orf" id="dummy-2_h2_4_6"  />
</g>
<g id="a2_007"  >
<polygon points="119,90 124,90 129,85 124,80 119,80 119,90 " style="fill:#b1d815; stroke-width:1; stroke:black; " description="&lt;b&gt;ASPVEDRAFT_145117&lt;/b&gt;&lt;br&gt;uncharacterized protein&lt;br&gt;Location: 174726 - 173204&lt;br&gt;&lt;br&gt;&lt;b&gt;BlastP hit with input.path1.gene150&lt;/b&gt;&lt;br&gt;Percentage identity: 36&lt;br&gt;Percentage coverage: 42&lt;br&gt;BLAST bit score: 103&lt;br&gt;E-value: 9e-22" locus_tag="ASPVEDRAFT_145117" class="clusterblast-orf" id="dummy-2_h2_4_7"  />
</g>
<g id="a2_008"  >
<polygon points="139,90 141,90 146,85 141,80 139,80 139,90 " style="fill:white; stroke-width:1; stroke:black; " description="&lt;b&gt;ASPVEDRAFT_34937&lt;/b&gt;&lt;br&gt;uncharacterized protein&lt;br&gt;Location: 171810 - 170788" locus_tag="ASPVEDRAFT_34937" class="clusterblast-orf" id="dummy-2_h2_4_8"  />
</g>
<g id="a2_009"  >
<polygon points="147,85 152,80 154,80 154,90 152,90 147,85 " style="fill:white; stroke-width:1; stroke:black; " description="&lt;b&gt;ASPVEDRAFT_90015&lt;/b&gt;&lt;br&gt;uncharacterized protein&lt;br&gt;Location: 170583 - 169549" locus_tag="ASPVEDRAFT_90015" class="clusterblast-orf" id="dummy-2_h2_4_9"  />
</g>
<g id="a2_0010"  >
<polygon points="163,90 167,90 172,85 167,80 163,80 163,90 " style="fill:white; stroke-width:1; stroke:black; " description="&lt;b&gt;ASPVEDRAFT_204645&lt;/b&gt;&lt;br&gt;uncharacterized protein&lt;br&gt;Location: 168278 - 166972" locus_tag="ASPVEDRAFT_204645" class="clusterblast-orf" id="dummy-2_h2_4_10"  />
</g>
<g id="a2_0011"  >
<polygon points="174,90 182,90 187,85 182,80 174,80 174,90 " style="fill:white; stroke-width:1; stroke:black; " description="&lt;b&gt;ASPVEDRAFT_57796&lt;/b&gt;&lt;br&gt;uncharacterized protein&lt;br&gt;Location: 166599 - 164794" locus_tag="ASPVEDRAFT_57796" class="clusterblast-orf" id="dummy-2_h2_4_11"  />
</g>
<g id="a2_0012"  >
<polygon points="187,85 192,80 201,80 201,90 192,90 187,85 " style="fill:white; stroke-width:1; stroke:black; " description="&lt;b&gt;ASPVEDRAFT_47956&lt;/b&gt;&lt;br&gt;uncharacterized protein&lt;br&gt;Location: 164710 - 162647" locus_tag="ASPVEDRAFT_47956" class="clusterblast-orf" id="dummy-2_h2_4_12"  />
</g>
<g id="a2_0013"  >
<polygon points="204,90 234,90 239,85 234,80 204,80 204,90 " style="fill:#15d863; stroke-width:1; stroke:black; " description="&lt;b&gt;ASPVEDRAFT_180459&lt;/b&gt;&lt;br&gt;uncharacterized protein&lt;br&gt;Location: 162266 - 157142&lt;br&gt;&lt;br&gt;&lt;b&gt;BlastP hit with input.path1.gene147&lt;/b&gt;&lt;br&gt;Percentage identity: 32&lt;br&gt;Percentage coverage: 60&lt;br&gt;BLAST bit score: 365&lt;br&gt;E-value: 1.32e-102" locus_tag="ASPVEDRAFT_180459" class="clusterblast-orf" id="dummy-2_h2_4_13"  />
</g>
<g id="a2_0014"  >
<polygon points="242,85 247,80 253,80 253,90 247,90 242,85 " style="fill:white; stroke-width:1; stroke:black; " description="&lt;b&gt;ASPVEDRAFT_156404&lt;/b&gt;&lt;br&gt;uncharacterized protein&lt;br&gt;Location: 156724 - 155051" locus_tag="ASPVEDRAFT_156404" class="clusterblast-orf" id="dummy-2_h2_4_14"  />
</g>
<g id="a2_0015"  >
<polygon points="257,85 262,80 263,80 263,90 262,90 257,85 " style="fill:white; stroke-width:1; stroke:black; " description="&lt;b&gt;ASPVEDRAFT_34930&lt;/b&gt;&lt;br&gt;uncharacterized protein&lt;br&gt;Location: 154482 - 153553" locus_tag="ASPVEDRAFT_34930" class="clusterblast-orf" id="dummy-2_h2_4_15"  />
</g>
<g id="a2_0016"  >
<polygon points="265,90 267,90 272,85 267,80 265,80 265,90 " style="fill:white; stroke-width:1; stroke:black; " description="&lt;b&gt;ASPVEDRAFT_144863&lt;/b&gt;&lt;br&gt;uncharacterized protein&lt;br&gt;Location: 153253 - 152337" locus_tag="ASPVEDRAFT_144863" class="clusterblast-orf" id="dummy-2_h2_4_16"  />
</g>
<g id="a2_0017"  >
<polygon points="273,90 276,90 281,85 276,80 273,80 273,90 " style="fill:white; stroke-width:1; stroke:black; " description="&lt;b&gt;ASPVEDRAFT_417909&lt;/b&gt;&lt;br&gt;uncharacterized protein&lt;br&gt;Location: 152193 - 151024" locus_tag="ASPVEDRAFT_417909" class="clusterblast-orf" id="dummy-2_h2_4_17"  />
</g>
<g id="a2_0018"  >
<polygon points="288,90 313,90 318,85 313,80 288,80 288,90 " style="fill:white; stroke-width:1; stroke:black; " description="&lt;b&gt;ASPVEDRAFT_90007&lt;/b&gt;&lt;br&gt;uncharacterized protein&lt;br&gt;Location: 150023 - 145593" locus_tag="ASPVEDRAFT_90007" class="clusterblast-orf" id="dummy-2_h2_4_18"  />
</g>
<g id="a2_0019"  >
<polygon points="320,90 326,90 331,85 326,80 320,80 320,90 " style="fill:white; stroke-width:1; stroke:black; " description="&lt;b&gt;ASPVEDRAFT_90006&lt;/b&gt;&lt;br&gt;uncharacterized protein&lt;br&gt;Location: 145300 - 143590" locus_tag="ASPVEDRAFT_90006" class="clusterblast-orf" id="dummy-2_h2_4_19"  />
</g>
<g id="a2_0020"  >
<polygon points="336,90 338,90 343,85 338,80 336,80 336,90 " style="fill:white; stroke-width:1; stroke:black; " description="&lt;b&gt;ASPVEDRAFT_57789&lt;/b&gt;&lt;br&gt;uncharacterized protein&lt;br&gt;Location: 142963 - 141922" locus_tag="ASPVEDRAFT_57789" class="clusterblast-orf" id="dummy-2_h2_4_20"  />
</g>
<g id="a2_0021"  >
<polygon points="345,90 352,90 357,85 352,80 345,80 345,90 " style="fill:white; stroke-width:1; stroke:black; " description="&lt;b&gt;ASPVEDRAFT_145106&lt;/b&gt;&lt;br&gt;uncharacterized protein&lt;br&gt;Location: 141623 - 139825" locus_tag="ASPVEDRAFT_145106" class="clusterblast-orf" id="dummy-2_h2_4_21"  />
</g>
<g id="a2_0022"  >
<polygon points="358,85 363,80 363,80 363,90 363,90 358,85 " style="fill:white; stroke-width:1; stroke:black; " description="&lt;b&gt;ASPVEDRAFT_145297&lt;/b&gt;&lt;br&gt;uncharacterized protein&lt;br&gt;Location: 139759 - 138971" locus_tag="ASPVEDRAFT_145297" class="clusterblast-orf" id="dummy-2_h2_4_22"  />
</g>
<g id="a2_0023"  >
<polygon points="365,90 371,90 376,85 371,80 365,80 365,90 " style="fill:white; stroke-width:1; stroke:black; " description="&lt;b&gt;ASPVEDRAFT_34922&lt;/b&gt;&lt;br&gt;uncharacterized protein&lt;br&gt;Location: 138620 - 137022" locus_tag="ASPVEDRAFT_34922" class="clusterblast-orf" id="dummy-2_h2_4_23"  />
</g>
<g id="a2_0024"  >
<polygon points="384,90 385,90 390,85 385,80 384,80 384,90 " style="fill:white; stroke-width:1; stroke:black; " description="&lt;b&gt;ASPVEDRAFT_417850&lt;/b&gt;&lt;br&gt;uncharacterized protein&lt;br&gt;Location: 135832 - 135080" locus_tag="ASPVEDRAFT_417850" class="clusterblast-orf" id="dummy-2_h2_4_24"  />
</g>
<g id="a2_0025"  >
<polygon points="391,85 396,80 404,80 404,90 396,90 391,85 " style="fill:white; stroke-width:1; stroke:black; " description="&lt;b&gt;ASPVEDRAFT_417849&lt;/b&gt;&lt;br&gt;uncharacterized protein&lt;br&gt;Location: 134864 - 132894" locus_tag="ASPVEDRAFT_417849" class="clusterblast-orf" id="dummy-2_h2_4_25"  />
</g>
<g id="a2_0026"  >
<polygon points="406,90 409,90 414,85 409,80 406,80 406,90 " style="fill:white; stroke-width:1; stroke:black; " description="&lt;b&gt;ASPVEDRAFT_77395&lt;/b&gt;&lt;br&gt;uncharacterized protein&lt;br&gt;Location: 132671 - 131480" locus_tag="ASPVEDRAFT_77395" class="clusterblast-orf" id="dummy-2_h2_4_26"  />
</g>
<g id="a2_0027"  >
<polygon points="417,90 421,85 417,80 417,90 " style="fill:white; stroke-width:1; stroke:black; " description="&lt;b&gt;ASPVEDRAFT_47947&lt;/b&gt;&lt;br&gt;uncharacterized protein&lt;br&gt;Location: 131029 - 130409" locus_tag="ASPVEDRAFT_47947" class="clusterblast-orf" id="dummy-2_h2_4_27"  />
</g>
<g id="a2_0028"  >
<polygon points="423,85 428,80 433,80 433,90 428,90 423,85 " style="fill:white; stroke-width:1; stroke:black; " description="&lt;b&gt;ASPVEDRAFT_34917&lt;/b&gt;&lt;br&gt;uncharacterized protein&lt;br&gt;Location: 130240 - 128691" locus_tag="ASPVEDRAFT_34917" class="clusterblast-orf" id="dummy-2_h2_4_28"  />
</g>
<g id="a2_0029"  >
<polygon points="436,85 441,80 445,80 445,90 441,90 436,85 " style="fill:white; stroke-width:1; stroke:black; " description="&lt;b&gt;ASPVEDRAFT_879650&lt;/b&gt;&lt;br&gt;uncharacterized protein&lt;br&gt;Location: 128292 - 126907" locus_tag="ASPVEDRAFT_879650" class="clusterblast-orf" id="dummy-2_h2_4_29"  />
</g>
<g id="a2_0030"  >
<polygon points="455,90 468,90 473,85 468,80 455,80 455,90 " style="fill:white; stroke-width:1; stroke:black; " description="&lt;b&gt;ASPVEDRAFT_144912&lt;/b&gt;&lt;br&gt;uncharacterized protein&lt;br&gt;Location: 125495 - 122850" locus_tag="ASPVEDRAFT_144912" class="clusterblast-orf" id="dummy-2_h2_4_30"  />
</g>
<g id="a2_0031"  >
<polygon points="484,85 489,80 495,80 495,90 489,90 484,85 " style="fill:white; stroke-width:1; stroke:black; " description="&lt;b&gt;ASPVEDRAFT_47946&lt;/b&gt;&lt;br&gt;uncharacterized protein&lt;br&gt;Location: 121265 - 119603" locus_tag="ASPVEDRAFT_47946" class="clusterblast-orf" id="dummy-2_h2_4_31"  />
</g>
<g id="a2_0032"  >
<polygon points="505,90 508,85 505,80 505,90 " style="fill:white; stroke-width:1; stroke:black; " description="&lt;b&gt;ASPVEDRAFT_77389&lt;/b&gt;&lt;br&gt;uncharacterized protein&lt;br&gt;Location: 118227 - 117693" locus_tag="ASPVEDRAFT_77389" class="clusterblast-orf" id="dummy-2_h2_4_32"  />
</g>
<g id="a2_0033"  >
<polygon points="509,85 514,80 521,80 521,90 514,90 509,85 " style="fill:white; stroke-width:1; stroke:black; " description="&lt;b&gt;ASPVEDRAFT_89992&lt;/b&gt;&lt;br&gt;uncharacterized protein&lt;br&gt;Location: 117604 - 115767" locus_tag="ASPVEDRAFT_89992" class="clusterblast-orf" id="dummy-2_h2_4_33"  />
</g>
<g id="a2_0034"  >
<polygon points="531,90 575,90 580,85 575,80 531,80 531,90 " style="fill:#15d863; stroke-width:1; stroke:black; " description="&lt;b&gt;ASPVEDRAFT_145028&lt;/b&gt;&lt;br&gt;uncharacterized protein&lt;br&gt;Location: 114359 - 107140&lt;br&gt;&lt;br&gt;&lt;b&gt;BlastP hit with input.path1.gene147&lt;/b&gt;&lt;br&gt;Percentage identity: 36&lt;br&gt;Percentage coverage: 57&lt;br&gt;BLAST bit score: 409&lt;br&gt;E-value: 2.58e-116" locus_tag="ASPVEDRAFT_145028" class="clusterblast-orf" id="dummy-2_h2_4_34"  />
</g>
<g id="a2_0035"  >
<polygon points="582,85 587,80 592,80 592,90 587,90 582,85 " style="fill:white; stroke-width:1; stroke:black; " description="&lt;b&gt;ASPVEDRAFT_57779&lt;/b&gt;&lt;br&gt;uncharacterized protein&lt;br&gt;Location: 106924 - 105467" locus_tag="ASPVEDRAFT_57779" class="clusterblast-orf" id="dummy-2_h2_4_35"  />
</g>
<g id="a2_0036"  >
<polygon points="593,85 596,80 596,90 593,85 " style="fill:white; stroke-width:1; stroke:black; " description="&lt;b&gt;ASPVEDRAFT_89989&lt;/b&gt;&lt;br&gt;uncharacterized protein&lt;br&gt;Location: 105301 - 104789" locus_tag="ASPVEDRAFT_89989" class="clusterblast-orf" id="dummy-2_h2_4_36"  />
</g>
<g id="a2_0037"  >
<polygon points="598,90 604,90 609,85 604,80 598,80 598,90 " style="fill:white; stroke-width:1; stroke:black; " description="&lt;b&gt;ASPVEDRAFT_34909&lt;/b&gt;&lt;br&gt;uncharacterized protein&lt;br&gt;Location: 104586 - 102960" locus_tag="ASPVEDRAFT_34909" class="clusterblast-orf" id="dummy-2_h2_4_37"  />
</g>
<g id="a2_0038"  >
<polygon points="614,90 615,90 620,85 615,80 614,80 614,90 " style="fill:white; stroke-width:1; stroke:black; " description="&lt;b&gt;ASPVEDRAFT_57776&lt;/b&gt;&lt;br&gt;uncharacterized protein&lt;br&gt;Location: 102279 - 101308" locus_tag="ASPVEDRAFT_57776" class="clusterblast-orf" id="dummy-2_h2_4_38"  />
</g>
<g id="a2_0039"  >
<polygon points="622,85 627,80 632,80 632,90 627,90 622,85 " style="fill:white; stroke-width:1; stroke:black; " description="&lt;b&gt;ASPVEDRAFT_89986&lt;/b&gt;&lt;br&gt;uncharacterized protein&lt;br&gt;Location: 100978 - 99586" locus_tag="ASPVEDRAFT_89986" class="clusterblast-orf" id="dummy-2_h2_4_39"  />
</g>
<g id="a2_0040"  >
<polygon points="640,85 645,80 652,80 652,90 645,90 640,85 " style="fill:white; stroke-width:1; stroke:black; " description="&lt;b&gt;ASPVEDRAFT_77385&lt;/b&gt;&lt;br&gt;uncharacterized protein&lt;br&gt;Location: 98358 - 96627" locus_tag="ASPVEDRAFT_77385" class="clusterblast-orf" id="dummy-2_h2_4_40"  />
</g>
<g id="a2_0041"  >
<polygon points="659,90 668,90 673,85 668,80 659,80 659,90 " style="fill:white; stroke-width:1; stroke:black; " description="&lt;b&gt;ASPVEDRAFT_66631&lt;/b&gt;&lt;br&gt;uncharacterized protein&lt;br&gt;Location: 95610 - 93584" locus_tag="ASPVEDRAFT_66631" class="clusterblast-orf" id="dummy-2_h2_4_41"  />
</g>
<g id="a2_0042"  >
<polygon points="680,90 683,90 688,85 683,80 680,80 680,90 " style="fill:white; stroke-width:1; stroke:black; " description="&lt;b&gt;ASPVEDRAFT_879636&lt;/b&gt;&lt;br&gt;uncharacterized protein&lt;br&gt;Location: 92584 - 91333" locus_tag="ASPVEDRAFT_879636" class="clusterblast-orf" id="dummy-2_h2_4_42"  />
</g>
<g id="a2_0043"  >
<polygon points="691,90 697,90 702,85 697,80 691,80 691,90 " style="fill:white; stroke-width:1; stroke:black; " description="&lt;b&gt;ASPVEDRAFT_89981&lt;/b&gt;&lt;br&gt;uncharacterized protein&lt;br&gt;Location: 90898 - 89380" locus_tag="ASPVEDRAFT_89981" class="clusterblast-orf" id="dummy-2_h2_4_43"  />
</g>
<g id="a2_0044"  >
<polygon points="705,90 711,90 716,85 711,80 705,80 705,90 " style="fill:white; stroke-width:1; stroke:black; " description="&lt;b&gt;ASPVEDRAFT_156381&lt;/b&gt;&lt;br&gt;uncharacterized protein&lt;br&gt;Location: 88910 - 87211" locus_tag="ASPVEDRAFT_156381" class="clusterblast-orf" id="dummy-2_h2_4_44"  />
</g>
<g id="a2_0045"  >
<polygon points="718,90 726,90 731,85 726,80 718,80 718,90 " style="fill:white; stroke-width:1; stroke:black; " description="&lt;b&gt;ASPVEDRAFT_156380&lt;/b&gt;&lt;br&gt;uncharacterized protein&lt;br&gt;Location: 87023 - 85083" locus_tag="ASPVEDRAFT_156380" class="clusterblast-orf" id="dummy-2_h2_4_45"  />
</g>
<g id="a2_0046"  >
<polygon points="732,85 737,80 741,80 741,90 737,90 732,85 " style="fill:white; stroke-width:1; stroke:black; " description="&lt;b&gt;ASPVEDRAFT_144899&lt;/b&gt;&lt;br&gt;uncharacterized protein&lt;br&gt;Location: 84965 - 83625" locus_tag="ASPVEDRAFT_144899" class="clusterblast-orf" id="dummy-2_h2_4_46"  />
</g>
<g id="a2_0047"  >
<polygon points="743,85 748,80 754,80 754,90 748,90 743,85 " style="fill:white; stroke-width:1; stroke:black; " description="&lt;b&gt;ASPVEDRAFT_57771&lt;/b&gt;&lt;br&gt;uncharacterized protein&lt;br&gt;Location: 83328 - 81694" locus_tag="ASPVEDRAFT_57771" class="clusterblast-orf" id="dummy-2_h2_4_47"  />
</g>
<g id="a2_0048"  >
<polygon points="756,90 762,90 767,85 762,80 756,80 756,90 " style="fill:white; stroke-width:1; stroke:black; " description="&lt;b&gt;ASPVEDRAFT_57770&lt;/b&gt;&lt;br&gt;uncharacterized protein&lt;br&gt;Location: 81353 - 79767" locus_tag="ASPVEDRAFT_57770" class="clusterblast-orf" id="dummy-2_h2_4_48"  />
</g>
<g id="a2_0049"  >
<polygon points="769,85 774,80 780,80 780,90 774,90 769,85 " style="fill:white; stroke-width:1; stroke:black; " description="&lt;b&gt;ASPVEDRAFT_89975&lt;/b&gt;&lt;br&gt;uncharacterized protein&lt;br&gt;Location: 79568 - 77972" locus_tag="ASPVEDRAFT_89975" class="clusterblast-orf" id="dummy-2_h2_4_49"  />
</g>
</svg>
