<svg xmlns="http://www.w3.org/2000/svg" xmlns:xlink="http://www.w3.org/1999/xlink" version="1.1" x="0" y="0" height="230" width="800" viewBox="0 0 800 230" preserveAspectRatio="none"  >
<g label="Query sequence" class="clusterblast-cluster"  >
<text x="5" y="20" class="clusterblast-acc"  >
Query sequence</text>
<line x1="10" y1="35" x2="778.0" y2="35" style="stroke-width:1; stroke:grey; "  />
<polygon points="61,35 66,30 77,30 77,40 66,40 61,35 " style="fill:#d81515; stroke-width:1; stroke:black; " description="&lt;b&gt;input.path1.gene13&lt;/b&gt;&lt;br&gt;input.path1.gene13&lt;br&gt;Location: 83476 - 84879" locus_tag="input.path1.gene13" class="clusterblast-orf" id="dummy-1_q0_0_all"  />
<polygon points="85,40 106,40 111,35 106,30 85,30 85,40 " style="fill:#63d815; stroke-width:1; stroke:black; " description="&lt;b&gt;input.path1.gene14&lt;/b&gt;&lt;br&gt;input.path1.gene14&lt;br&gt;Location: 85583 - 87941" locus_tag="input.path1.gene14" class="clusterblast-orf" id="dummy-1_q1_0_all"  />
<polygon points="171,40 175,40 180,35 175,30 171,30 171,40 " style="fill:white; stroke-width:1; stroke:black; " description="&lt;b&gt;input.path1.gene15&lt;/b&gt;&lt;br&gt;input.path1.gene15&lt;br&gt;Location: 93171 - 93959" locus_tag="input.path1.gene15" class="clusterblast-orf" id="dummy-1_q2_0_all"  />
<polygon points="314,35 319,30 340,30 340,40 319,40 314,35 " style="fill:#15b1d8; stroke-width:1; stroke:black; " description="&lt;b&gt;input.path1.gene16&lt;/b&gt;&lt;br&gt;input.path1.gene16&lt;br&gt;Location: 105819 - 108096" locus_tag="input.path1.gene16" class="clusterblast-orf" id="dummy-1_q3_0_all"  />
<polygon points="345,40 348,40 353,35 348,30 345,30 345,40 " style="fill:#b115d8; stroke-width:1; stroke:black; " description="&lt;b&gt;input.path1.gene17&lt;/b&gt;&lt;br&gt;input.path1.gene17&lt;br&gt;Location: 108563 - 109253" locus_tag="input.path1.gene17" class="clusterblast-orf" id="dummy-1_q4_0_all"  />
<polygon points="354,35 359,30 372,30 372,40 359,40 354,35 " style="fill:white; stroke-width:1; stroke:black; " description="&lt;b&gt;input.path1.gene18&lt;/b&gt;&lt;br&gt;input.path1.gene18&lt;br&gt;Location: 109395 - 110937" locus_tag="input.path1.gene18" class="clusterblast-orf" id="dummy-1_q5_0_all"  />
<polygon points="389,40 397,40 402,35 397,30 389,30 389,40 " style="fill:#d86315; stroke-width:1; stroke:black; " description="&lt;b&gt;input.path1.gene19&lt;/b&gt;&lt;br&gt;input.path1.gene19&lt;br&gt;Location: 112411 - 113558" locus_tag="input.path1.gene19" class="clusterblast-orf" id="dummy-1_q6_0_all"  />
<polygon points="412,35 417,30 421,30 421,40 417,40 412,35 " style="fill:#15d815; stroke-width:1; stroke:black; " description="&lt;b&gt;input.path1.gene20&lt;/b&gt;&lt;br&gt;input.path1.gene20&lt;br&gt;Location: 114435 - 115293" locus_tag="input.path1.gene20" class="clusterblast-orf" id="dummy-1_q7_0_all"  />
<polygon points="438,35 443,30 446,30 446,40 443,40 438,35 " style="fill:#1563d8; stroke-width:1; stroke:black; " description="&lt;b&gt;input.path1.gene21&lt;/b&gt;&lt;br&gt;input.path1.gene21&lt;br&gt;Location: 116765 - 117505" locus_tag="input.path1.gene21" class="clusterblast-orf" id="dummy-1_q8_0_all"  />
<polygon points="464,40 465,40 470,35 465,30 464,30 464,40 " style="fill:#d815b1; stroke-width:1; stroke:black; " description="&lt;b&gt;input.path1.gene22&lt;/b&gt;&lt;br&gt;input.path1.gene22&lt;br&gt;Location: 119055 - 119619" locus_tag="input.path1.gene22" class="clusterblast-orf" id="dummy-1_q9_0_all"  />
<polygon points="484,35 489,30 492,30 492,40 489,40 484,35 " style="fill:white; stroke-width:1; stroke:black; " description="&lt;b&gt;input.path1.gene23&lt;/b&gt;&lt;br&gt;input.path1.gene23&lt;br&gt;Location: 120841 - 121518" locus_tag="input.path1.gene23" class="clusterblast-orf" id="dummy-1_q10_0_all"  />
<polygon points="511,40 562,40 567,35 562,30 511,30 511,40 " style="fill:#d8b115; stroke-width:1; stroke:black; " description="&lt;b&gt;input.path1.gene24&lt;/b&gt;&lt;br&gt;input.path1.gene24&lt;br&gt;Location: 123239 - 128165" locus_tag="input.path1.gene24" class="clusterblast-orf" id="dummy-1_q11_0_all"  />
<polygon points="574,35 579,30 606,30 606,40 579,40 574,35 " style="fill:#15d863; stroke-width:1; stroke:black; " description="&lt;b&gt;input.path1.gene25&lt;/b&gt;&lt;br&gt;input.path1.gene25&lt;br&gt;Location: 128750 - 131631" locus_tag="input.path1.gene25" class="clusterblast-orf" id="dummy-1_q12_0_all"  />
<polygon points="617,40 623,40 628,35 623,30 617,30 617,40 " style="fill:#1515d8; stroke-width:1; stroke:black; " description="&lt;b&gt;input.path1.gene26&lt;/b&gt;&lt;br&gt;input.path1.gene26&lt;br&gt;Location: 132531 - 133527" locus_tag="input.path1.gene26" class="clusterblast-orf" id="dummy-1_q13_0_all"  />
<polygon points="638,35 643,30 659,30 659,40 643,40 638,35 " style="fill:#d81563; stroke-width:1; stroke:black; " description="&lt;b&gt;input.path1.gene27&lt;/b&gt;&lt;br&gt;input.path1.gene27&lt;br&gt;Location: 134405 - 136292" locus_tag="input.path1.gene27" class="clusterblast-orf" id="dummy-1_q14_0_all"  />
<polygon points="671,40 673,35 671,30 671,40 " style="fill:#b1d815; stroke-width:1; stroke:black; " description="&lt;b&gt;input.path1.gene28&lt;/b&gt;&lt;br&gt;input.path1.gene28&lt;br&gt;Location: 137339 - 137510" locus_tag="input.path1.gene28" class="clusterblast-orf" id="dummy-1_q15_0_all"  />
<polygon points="680,35 685,30 697,30 697,40 685,40 680,35 " style="fill:#15d8b1; stroke-width:1; stroke:black; " description="&lt;b&gt;input.path1.gene29&lt;/b&gt;&lt;br&gt;input.path1.gene29&lt;br&gt;Location: 138149 - 139664" locus_tag="input.path1.gene29" class="clusterblast-orf" id="dummy-1_q16_0_all"  />
<polygon points="706,35 711,30 718,30 718,40 711,40 706,35 " style="fill:#6315d8; stroke-width:1; stroke:black; " description="&lt;b&gt;input.path1.gene30&lt;/b&gt;&lt;br&gt;input.path1.gene30&lt;br&gt;Location: 140459 - 141523" locus_tag="input.path1.gene30" class="clusterblast-orf" id="dummy-1_q17_0_all"  />
</g>
<g label="NW_006271975" description="NW_006271975 (27980-100581): Cordyceps militaris CM01 unplaced genomic scaffo... (22% of genes show similarity), NRPS,T1PKS" class="clusterblast-cluster"  >
<text x="5" y="70" class="clusterblast-acc"  >
<a xlink:href="https://antismash-db.secondarymetabolites.org/area?record=NW_006271975&amp;start=27980&amp;end=100581" target="_blank">NW_006271975 (27980-100581)</a>: Cordyceps militaris CM01 unplaced genomic scaffo... (22% of genes show similarity), NRPS,T1PKS</text>
<line x1="10" y1="85" x2="778.0" y2="85" style="stroke-width:1; stroke:grey; "  />
</g>
<g id="a1_000"  >
<polygon points="0,90 6,90 11,85 6,80 0,80 0,90 " style="fill:#1515d8; stroke-width:1; stroke:black; " description="&lt;b&gt;CCM_08272&lt;/b&gt;&lt;br&gt;sterol desaturase family&lt;br&gt;Location: 98041 - 97043&lt;br&gt;&lt;br&gt;&lt;b&gt;BlastP hit with input.path1.gene26&lt;/b&gt;&lt;br&gt;Percentage identity: 51&lt;br&gt;Percentage coverage: 98&lt;br&gt;BLAST bit score: 309&lt;br&gt;E-value: 2.5e-102" locus_tag="CCM_08272" class="clusterblast-orf" id="dummy-1_h1_7_0"  />
</g>
<g id="a1_001"  >
<polygon points="14,85 19,80 43,80 43,90 19,90 14,85 " style="fill:#d81563; stroke-width:1; stroke:black; " description="&lt;b&gt;CCM_08271&lt;/b&gt;&lt;br&gt;Tetratricopeptide repeat protein 39&lt;br&gt;Location: 96792 - 94217&lt;br&gt;&lt;br&gt;&lt;b&gt;BlastP hit with input.path1.gene27&lt;/b&gt;&lt;br&gt;Percentage identity: 41&lt;br&gt;Percentage coverage: 101&lt;br&gt;BLAST bit score: 437&lt;br&gt;E-value: 4.52e-142" locus_tag="CCM_08271" class="clusterblast-orf" id="dummy-1_h1_7_1"  />
</g>
<g id="a1_002"  >
<polygon points="51,90 51,90 56,85 51,80 51,80 51,90 " style="fill:white; stroke-width:1; stroke:black; " description="&lt;b&gt;CCM_08270&lt;/b&gt;&lt;br&gt;DSS1/SEM1 family protein&lt;br&gt;Location: 93522 - 93092" locus_tag="CCM_08270" class="clusterblast-orf" id="dummy-1_h1_7_2"  />
</g>
<g id="a1_003"  >
<polygon points="60,85 65,80 75,80 75,90 65,90 60,85 " style="fill:#15d8b1; stroke-width:1; stroke:black; " description="&lt;b&gt;CCM_08269&lt;/b&gt;&lt;br&gt;phosphoglycerate kinase&lt;br&gt;Location: 92739 - 91351&lt;br&gt;&lt;br&gt;&lt;b&gt;BlastP hit with input.path1.gene29&lt;/b&gt;&lt;br&gt;Percentage identity: 85&lt;br&gt;Percentage coverage: 100&lt;br&gt;BLAST bit score: 688&lt;br&gt;E-value: 2.67e-249" locus_tag="CCM_08269" class="clusterblast-orf" id="dummy-1_h1_7_3"  />
</g>
<g id="a1_004"  >
<polygon points="84,85 89,80 103,80 103,90 89,90 84,85 " style="fill:white; stroke-width:1; stroke:black; " description="&lt;b&gt;CCM_08268&lt;/b&gt;&lt;br&gt;hypothetical protein&lt;br&gt;Location: 90612 - 88863" locus_tag="CCM_08268" class="clusterblast-orf" id="dummy-1_h1_7_4"  />
</g>
<g id="a1_005"  >
<polygon points="110,85 115,80 128,80 128,90 115,90 110,85 " style="fill:#6315d8; stroke-width:1; stroke:black; " description="&lt;b&gt;CCM_08267&lt;/b&gt;&lt;br&gt;integral membrane protein, Mpv17/PMP22 family, putative&lt;br&gt;Location: 88244 - 86717&lt;br&gt;&lt;br&gt;&lt;b&gt;BlastP hit with input.path1.gene30&lt;/b&gt;&lt;br&gt;Percentage identity: 70&lt;br&gt;Percentage coverage: 96&lt;br&gt;BLAST bit score: 340&lt;br&gt;E-value: 3.16e-116" locus_tag="CCM_08267" class="clusterblast-orf" id="dummy-1_h1_7_5"  />
</g>
<g id="a1_006"  >
<polygon points="131,85 136,80 140,80 140,90 136,90 131,85 " style="fill:white; stroke-width:1; stroke:black; " description="&lt;b&gt;CCM_08266&lt;/b&gt;&lt;br&gt;N,O-diacetyl muramidase, putative&lt;br&gt;Location: 86417 - 85630" locus_tag="CCM_08266" class="clusterblast-orf" id="dummy-1_h1_7_6"  />
</g>
<g id="a1_007"  >
<polygon points="178,90 189,90 194,85 189,80 178,80 178,90 " style="fill:white; stroke-width:1; stroke:black; " description="&lt;b&gt;CCM_08265&lt;/b&gt;&lt;br&gt;aspartic endopeptidase (AP1), putative&lt;br&gt;Location: 82271 - 80870" locus_tag="CCM_08265" class="clusterblast-orf" id="dummy-1_h1_7_7"  />
</g>
<g id="a1_008"  >
<polygon points="197,85 202,80 233,80 233,90 202,90 197,85 " style="fill:white; stroke-width:1; stroke:black; " description="&lt;b&gt;CCM_08264&lt;/b&gt;&lt;br&gt;C6 zinc finger domain-containing protein&lt;br&gt;Location: 80573 - 77412" locus_tag="CCM_08264" class="clusterblast-orf" id="dummy-1_h1_7_8"  />
</g>
<g id="a1_009"  >
<polygon points="243,90 256,90 261,85 256,80 243,80 243,90 " style="fill:white; stroke-width:1; stroke:black; " description="&lt;b&gt;CCM_08263&lt;/b&gt;&lt;br&gt;cytochrome P450 monooxygenase, putative&lt;br&gt;Location: 76562 - 74921" locus_tag="CCM_08263" class="clusterblast-orf" id="dummy-1_h1_7_9"  />
</g>
<g id="a1_0010"  >
<polygon points="265,85 270,80 303,80 303,90 270,90 265,85 " style="fill:white; stroke-width:1; stroke:black; " description="&lt;b&gt;CCM_08262&lt;/b&gt;&lt;br&gt;alcohol dehydrogenase, putative&lt;br&gt;Location: 74611 - 71220" locus_tag="CCM_08262" class="clusterblast-orf" id="dummy-1_h1_7_10"  />
</g>
<g id="a1_0011"  >
<polygon points="311,90 448,90 453,85 448,80 311,80 311,90 " style="fill:white; stroke-width:1; stroke:black; " description="&lt;b&gt;CCM_08261&lt;/b&gt;&lt;br&gt;polyketide synthase, putative&lt;br&gt;Location: 70581 - 57981" locus_tag="CCM_08261" class="clusterblast-orf" id="dummy-1_h1_7_11"  />
</g>
<g id="a1_0012"  >
<polygon points="454,85 459,80 483,80 483,90 459,90 454,85 " style="fill:white; stroke-width:1; stroke:black; " description="&lt;b&gt;CCM_08260&lt;/b&gt;&lt;br&gt;C6 transcription factor, putative&lt;br&gt;Location: 57885 - 55383" locus_tag="CCM_08260" class="clusterblast-orf" id="dummy-1_h1_7_12"  />
</g>
<g id="a1_0013"  >
<polygon points="603,90 614,90 619,85 614,80 603,80 603,90 " style="fill:white; stroke-width:1; stroke:black; " description="&lt;b&gt;CCM_08259&lt;/b&gt;&lt;br&gt;MFS monocarboxylate transporter, putative&lt;br&gt;Location: 44764 - 43378" locus_tag="CCM_08259" class="clusterblast-orf" id="dummy-1_h1_7_13"  />
</g>
<g id="a1_0014"  >
<polygon points="624,85 629,80 642,80 642,90 629,90 624,85 " style="fill:white; stroke-width:1; stroke:black; " description="&lt;b&gt;CCM_08258&lt;/b&gt;&lt;br&gt;vitamin H transporter, putative&lt;br&gt;Location: 42880 - 41337" locus_tag="CCM_08258" class="clusterblast-orf" id="dummy-1_h1_7_14"  />
</g>
<g id="a1_0015"  >
<polygon points="741,90 747,90 752,85 747,80 741,80 741,90 " style="fill:white; stroke-width:1; stroke:black; " description="&lt;b&gt;CCM_08257&lt;/b&gt;&lt;br&gt;short-chain dehydrogenase, putative&lt;br&gt;Location: 32610 - 31628" locus_tag="CCM_08257" class="clusterblast-orf" id="dummy-1_h1_7_15"  />
</g>
<g id="a1_0016"  >
<polygon points="758,85 763,80 764,80 764,90 763,90 758,85 " style="fill:white; stroke-width:1; stroke:black; " description="&lt;b&gt;CCM_08256&lt;/b&gt;&lt;br&gt;ribose 5-phosphate isomerase&lt;br&gt;Location: 31105 - 30587" locus_tag="CCM_08256" class="clusterblast-orf" id="dummy-1_h1_7_16"  />
</g>
<g id="a1_0017"  >
<polygon points="769,90 775,90 780,85 775,80 769,80 769,90 " style="fill:white; stroke-width:1; stroke:black; " description="&lt;b&gt;CCM_08255&lt;/b&gt;&lt;br&gt;Ketose-bisphosphate aldolase, class-II&lt;br&gt;Location: 30138 - 29191" locus_tag="CCM_08255" class="clusterblast-orf" id="dummy-1_h1_7_17"  />
</g>
</svg>
