<svg xmlns="http://www.w3.org/2000/svg" xmlns:xlink="http://www.w3.org/1999/xlink" version="1.1" x="0" y="0" height="230" width="800" viewBox="0 0 800 230" preserveAspectRatio="none"  >
<g label="Query sequence" class="clusterblast-cluster"  >
<text x="5" y="20" class="clusterblast-acc"  >
Query sequence</text>
<line x1="10" y1="35" x2="778.0" y2="35" style="stroke-width:1; stroke:grey; "  />
<polygon points="107,40 195,40 200,35 195,30 107,30 107,40 " style="fill:#d81515; stroke-width:1; stroke:black; " description="&lt;b&gt;input.path1.gene1561&lt;/b&gt;&lt;br&gt;input.path1.gene1561&lt;br&gt;Location: 7337532 - 7340786" locus_tag="input.path1.gene1561" class="clusterblast-orf" id="dummy-4_q0_0_all"  />
<polygon points="207,35 212,30 247,30 247,40 212,40 207,35 " style="fill:#77d815; stroke-width:1; stroke:black; " description="&lt;b&gt;input.path1.gene1562&lt;/b&gt;&lt;br&gt;input.path1.gene1562&lt;br&gt;Location: 7341018 - 7342408" locus_tag="input.path1.gene1562" class="clusterblast-orf" id="dummy-4_q1_0_all"  />
<polygon points="327,40 386,40 391,35 386,30 327,30 327,40 " style="fill:#15d8d8; stroke-width:1; stroke:black; " description="&lt;b&gt;input.path1.gene1563&lt;/b&gt;&lt;br&gt;input.path1.gene1563&lt;br&gt;Location: 7345227 - 7347441" locus_tag="input.path1.gene1563" class="clusterblast-orf" id="dummy-4_q2_0_all"  />
<polygon points="393,35 398,30 447,30 447,40 398,40 393,35 " style="fill:#7715d8; stroke-width:1; stroke:black; " description="&lt;b&gt;input.path1.gene1564&lt;/b&gt;&lt;br&gt;input.path1.gene1564&lt;br&gt;Location: 7347511 - 7349411" locus_tag="input.path1.gene1564" class="clusterblast-orf" id="dummy-4_q3_0_all"  />
<polygon points="665,40 668,40 673,35 668,30 665,30 665,40 " style="fill:white; stroke-width:1; stroke:black; " description="&lt;b&gt;input.path1.gene1565&lt;/b&gt;&lt;br&gt;input.path1.gene1565&lt;br&gt;Location: 7357021 - 7357287" locus_tag="input.path1.gene1565" class="clusterblast-orf" id="dummy-4_q4_0_all"  />
</g>
<g label="NC_070544" description="NC_070544 (5794890-5826434): Fusarium falciforme chromosome 1, complete sequence (20% of genes show similarity), terpene" class="clusterblast-cluster"  >
<text x="5" y="70" class="clusterblast-acc"  >
<a xlink:href="https://antismash-db.secondarymetabolites.org/area?record=NC_070544&amp;start=5794890&amp;end=5826434" target="_blank">NC_070544 (5794890-5826434)</a>: Fusarium falciforme chromosome 1, complete sequence (20% of genes show similarity), terpene</text>
<line x1="10" y1="85" x2="778.0" y2="85" style="stroke-width:1; stroke:grey; "  />
</g>
<g id="a4_000"  >
<polygon points="0,90 67,90 72,85 67,80 0,80 0,90 " style="fill:white; stroke-width:1; stroke:black; " description="&lt;b&gt;NCS54_00165500&lt;/b&gt;&lt;br&gt;FHA domain-containing protein&lt;br&gt;Location: 5796140 - 5798680" locus_tag="NCS54_00165500" class="clusterblast-orf" id="dummy-4_h4_4_0"  />
</g>
<g id="a4_001"  >
<polygon points="78,85 83,80 113,80 113,90 83,90 78,85 " style="fill:white; stroke-width:1; stroke:black; " description="&lt;b&gt;NCS54_00165600&lt;/b&gt;&lt;br&gt;Cytochrome b5 heme-binding domain-containing protein&lt;br&gt;Location: 5798874 - 5800118" locus_tag="NCS54_00165600" class="clusterblast-orf" id="dummy-4_h4_4_1"  />
</g>
<g id="a4_002"  >
<polygon points="170,90 230,90 235,85 230,80 170,80 170,90 " style="fill:white; stroke-width:1; stroke:black; " description="&lt;b&gt;NCS54_00165700&lt;/b&gt;&lt;br&gt;Hypothetical protein&lt;br&gt;Location: 5802094 - 5804367" locus_tag="NCS54_00165700" class="clusterblast-orf" id="dummy-4_h4_4_2"  />
</g>
<g id="a4_003"  >
<polygon points="268,85 273,80 315,80 315,90 273,90 268,85 " style="fill:white; stroke-width:1; stroke:black; " description="&lt;b&gt;NCS54_00165800&lt;/b&gt;&lt;br&gt;J domain-containing protein&lt;br&gt;Location: 5805500 - 5807163" locus_tag="NCS54_00165800" class="clusterblast-orf" id="dummy-4_h4_4_3"  />
</g>
<g id="a4_004"  >
<polygon points="393,90 433,90 438,85 433,80 393,80 393,90 " style="fill:#15d8d8; stroke-width:1; stroke:black; " description="&lt;b&gt;NCS54_00165900&lt;/b&gt;&lt;br&gt;Squalene synthase&lt;br&gt;Location: 5809891 - 5811434&lt;br&gt;&lt;br&gt;&lt;b&gt;BlastP hit with input.path1.gene1563&lt;/b&gt;&lt;br&gt;Percentage identity: 76&lt;br&gt;Percentage coverage: 94&lt;br&gt;BLAST bit score: 688&lt;br&gt;E-value: 8.9e-248" locus_tag="NCS54_00165900" class="clusterblast-orf" id="dummy-4_h4_4_4"  />
</g>
<g id="a4_005"  >
<polygon points="469,85 474,80 512,80 512,90 474,90 469,85 " style="fill:#7715d8; stroke-width:1; stroke:black; " description="&lt;b&gt;NCS54_00166000&lt;/b&gt;&lt;br&gt;Hypothetical protein&lt;br&gt;Location: 5812546 - 5814039&lt;br&gt;&lt;br&gt;&lt;b&gt;BlastP hit with input.path1.gene1564&lt;/b&gt;&lt;br&gt;Percentage identity: 61&lt;br&gt;Percentage coverage: 75&lt;br&gt;BLAST bit score: 439&lt;br&gt;E-value: 5.11e-149" locus_tag="NCS54_00166000" class="clusterblast-orf" id="dummy-4_h4_4_5"  />
</g>
<g id="a4_006"  >
<polygon points="618,85 623,80 645,80 645,90 623,90 618,85 " style="fill:white; stroke-width:1; stroke:black; " description="&lt;b&gt;NCS54_00166100&lt;/b&gt;&lt;br&gt;Hypothetical protein&lt;br&gt;Location: 5817716 - 5818661" locus_tag="NCS54_00166100" class="clusterblast-orf" id="dummy-4_h4_4_6"  />
</g>
<g id="a4_007"  >
<polygon points="657,90 675,90 680,85 675,80 657,80 657,90 " style="fill:white; stroke-width:1; stroke:black; " description="&lt;b&gt;NCS54_00166200&lt;/b&gt;&lt;br&gt;Hypothetical protein&lt;br&gt;Location: 5819093 - 5819884" locus_tag="NCS54_00166200" class="clusterblast-orf" id="dummy-4_h4_4_7"  />
</g>
<g id="a4_008"  >
<polygon points="691,85 696,80 735,80 735,90 696,90 691,85 " style="fill:white; stroke-width:1; stroke:black; " description="&lt;b&gt;NCS54_00166300&lt;/b&gt;&lt;br&gt;Choline transport protein&lt;br&gt;Location: 5820289 - 5821812" locus_tag="NCS54_00166300" class="clusterblast-orf" id="dummy-4_h4_4_8"  />
</g>
<g id="a4_009"  >
<polygon points="755,90 775,90 780,85 775,80 755,80 755,90 " style="fill:white; stroke-width:1; stroke:black; " description="&lt;b&gt;NCS54_00166400&lt;/b&gt;&lt;br&gt;Acetoacetate decarboxylase&lt;br&gt;Location: 5822517 - 5823371" locus_tag="NCS54_00166400" class="clusterblast-orf" id="dummy-4_h4_4_9"  />
</g>
</svg>
