<svg xmlns="http://www.w3.org/2000/svg" xmlns:xlink="http://www.w3.org/1999/xlink" version="1.1" x="0" y="0" height="230" width="800" viewBox="0 0 800 230" preserveAspectRatio="none"  >
<g label="Query sequence" class="clusterblast-cluster"  >
<text x="5" y="20" class="clusterblast-acc"  >
Query sequence</text>
<line x1="10" y1="35" x2="778.0" y2="35" style="stroke-width:1; stroke:grey; "  />
<polygon points="286,40 286,40 291,35 286,30 286,30 286,40 " style="fill:#d81515; stroke-width:1; stroke:black; " description="&lt;b&gt;input.path1.gene785&lt;/b&gt;&lt;br&gt;input.path1.gene785&lt;br&gt;Location: 3986288 - 3987380" locus_tag="input.path1.gene785" class="clusterblast-orf" id="dummy-3_q0_0_all"  />
<polygon points="297,35 302,30 309,30 309,40 302,40 297,35 " style="fill:#15d863; stroke-width:1; stroke:black; " description="&lt;b&gt;input.path1.gene786&lt;/b&gt;&lt;br&gt;input.path1.gene786&lt;br&gt;Location: 3988713 - 3991066" locus_tag="input.path1.gene786" class="clusterblast-orf" id="dummy-3_q1_0_all"  />
<polygon points="329,40 355,40 360,35 355,30 329,30 329,40 " style="fill:white; stroke-width:1; stroke:black; " description="&lt;b&gt;input.path1.gene787&lt;/b&gt;&lt;br&gt;input.path1.gene787&lt;br&gt;Location: 3995441 - 4001799" locus_tag="input.path1.gene787" class="clusterblast-orf" id="dummy-3_q2_0_all"  />
<polygon points="360,35 365,30 369,30 369,40 365,40 360,35 " style="fill:white; stroke-width:1; stroke:black; " description="&lt;b&gt;input.path1.gene788&lt;/b&gt;&lt;br&gt;input.path1.gene788&lt;br&gt;Location: 4001815 - 4003882" locus_tag="input.path1.gene788" class="clusterblast-orf" id="dummy-3_q3_0_all"  />
<polygon points="378,40 411,40 416,35 411,30 378,30 378,40 " style="fill:#1563d8; stroke-width:1; stroke:black; " description="&lt;b&gt;input.path1.gene789&lt;/b&gt;&lt;br&gt;input.path1.gene789&lt;br&gt;Location: 4005596 - 4013733" locus_tag="input.path1.gene789" class="clusterblast-orf" id="dummy-3_q4_0_all"  />
<polygon points="423,35 427,30 427,40 423,35 " style="fill:white; stroke-width:1; stroke:black; " description="&lt;b&gt;input.path1.gene790&lt;/b&gt;&lt;br&gt;input.path1.gene790&lt;br&gt;Location: 4015180 - 4016098" locus_tag="input.path1.gene790" class="clusterblast-orf" id="dummy-3_q5_0_all"  />
<polygon points="444,40 447,35 444,30 444,40 " style="fill:white; stroke-width:1; stroke:black; " description="&lt;b&gt;input.path1.gene791&lt;/b&gt;&lt;br&gt;input.path1.gene791&lt;br&gt;Location: 4019496 - 4020282" locus_tag="input.path1.gene791" class="clusterblast-orf" id="dummy-3_q6_0_all"  />
<polygon points="451,35 456,30 462,30 462,40 456,40 451,35 " style="fill:white; stroke-width:1; stroke:black; " description="&lt;b&gt;input.path1.gene792&lt;/b&gt;&lt;br&gt;input.path1.gene792&lt;br&gt;Location: 4021054 - 4023397" locus_tag="input.path1.gene792" class="clusterblast-orf" id="dummy-3_q7_0_all"  />
<polygon points="466,35 471,30 471,30 471,40 471,40 466,35 " style="fill:#b115d8; stroke-width:1; stroke:black; " description="&lt;b&gt;input.path1.gene793&lt;/b&gt;&lt;br&gt;input.path1.gene793&lt;br&gt;Location: 4024264 - 4025360" locus_tag="input.path1.gene793" class="clusterblast-orf" id="dummy-3_q8_0_all"  />
<polygon points="475,40 476,40 481,35 476,30 475,30 475,40 " style="fill:#b1d815; stroke-width:1; stroke:black; " description="&lt;b&gt;input.path1.gene794&lt;/b&gt;&lt;br&gt;input.path1.gene794&lt;br&gt;Location: 4026227 - 4027483" locus_tag="input.path1.gene794" class="clusterblast-orf" id="dummy-3_q9_0_all"  />
<polygon points="484,35 489,30 493,30 493,40 489,40 484,35 " style="fill:white; stroke-width:1; stroke:black; " description="&lt;b&gt;input.path1.gene795&lt;/b&gt;&lt;br&gt;input.path1.gene795&lt;br&gt;Location: 4027983 - 4029966" locus_tag="input.path1.gene795" class="clusterblast-orf" id="dummy-3_q10_0_all"  />
</g>
<g label="NW_024468983" description="NW_024468983 (159885-325516): Aspergillus fijiensis CBS 313.89 unplaced genom... (3% of genes show similarity), NRPS,NRPS-like,T1PKS,indole,terpene" class="clusterblast-cluster"  >
<text x="5" y="70" class="clusterblast-acc"  >
<a xlink:href="https://antismash-db.secondarymetabolites.org/area?record=NW_024468983&amp;start=159885&amp;end=325516" target="_blank">NW_024468983 (159885-325516)</a>: Aspergillus fijiensis CBS 313.89 unplaced genom... (3% of genes show similarity), NRPS,NRPS-like,T1PKS,indole,terpene</text>
<line x1="10" y1="85" x2="778.0" y2="85" style="stroke-width:1; stroke:grey; "  />
</g>
<g id="a3_000"  >
<polygon points="0,90 1,90 6,85 1,80 0,80 0,90 " style="fill:white; stroke-width:1; stroke:black; " description="&lt;b&gt;BO72DRAFT_444839&lt;/b&gt;&lt;br&gt;lipase 1 precursor&lt;br&gt;Location: 160323 - 161612" locus_tag="BO72DRAFT_444839" class="clusterblast-orf" id="dummy-3_h3_7_0"  />
</g>
<g id="a3_001"  >
<polygon points="10,90 11,90 16,85 11,80 10,80 10,90 " style="fill:white; stroke-width:1; stroke:black; " description="&lt;b&gt;BO72DRAFT_421836&lt;/b&gt;&lt;br&gt;tfdA family taurine dioxygenase&lt;br&gt;Location: 162438 - 163698" locus_tag="BO72DRAFT_421836" class="clusterblast-orf" id="dummy-3_h3_7_1"  />
</g>
<g id="a3_002"  >
<polygon points="16,85 21,80 26,80 26,90 21,90 16,85 " style="fill:white; stroke-width:1; stroke:black; " description="&lt;b&gt;BO72DRAFT_370200&lt;/b&gt;&lt;br&gt;uncharacterized protein&lt;br&gt;Location: 163812 - 165840" locus_tag="BO72DRAFT_370200" class="clusterblast-orf" id="dummy-3_h3_7_2"  />
</g>
<g id="a3_003"  >
<polygon points="35,90 36,90 41,85 36,80 35,80 35,90 " style="fill:white; stroke-width:1; stroke:black; " description="&lt;b&gt;BO72DRAFT_524784&lt;/b&gt;&lt;br&gt;uncharacterized protein&lt;br&gt;Location: 167801 - 169083" locus_tag="BO72DRAFT_524784" class="clusterblast-orf" id="dummy-3_h3_7_3"  />
</g>
<g id="a3_004"  >
<polygon points="47,85 51,80 51,90 47,85 " style="fill:white; stroke-width:1; stroke:black; " description="&lt;b&gt;BO72DRAFT_444842&lt;/b&gt;&lt;br&gt;F5/8 type C domain protein&lt;br&gt;Location: 170391 - 171218" locus_tag="BO72DRAFT_444842" class="clusterblast-orf" id="dummy-3_h3_7_4"  />
</g>
<g id="a3_005"  >
<polygon points="64,85 68,80 68,90 64,85 " style="fill:white; stroke-width:1; stroke:black; " description="&lt;b&gt;BO72DRAFT_524786&lt;/b&gt;&lt;br&gt;uncharacterized protein&lt;br&gt;Location: 173816 - 174717" locus_tag="BO72DRAFT_524786" class="clusterblast-orf" id="dummy-3_h3_7_5"  />
</g>
<g id="a3_006"  >
<polygon points="69,85 74,80 74,80 74,90 74,90 69,85 " style="fill:white; stroke-width:1; stroke:black; " description="&lt;b&gt;BO72DRAFT_421843&lt;/b&gt;&lt;br&gt;unusual buried polar cluster in A family of fungal lipase&lt;br&gt;Location: 175061 - 176098" locus_tag="BO72DRAFT_421843" class="clusterblast-orf" id="dummy-3_h3_7_6"  />
</g>
<g id="a3_007"  >
<polygon points="86,90 90,90 95,85 90,80 86,80 86,90 " style="fill:white; stroke-width:1; stroke:black; " description="&lt;b&gt;BO72DRAFT_474930&lt;/b&gt;&lt;br&gt;glucose oxidase&lt;br&gt;Location: 178610 - 180547" locus_tag="BO72DRAFT_474930" class="clusterblast-orf" id="dummy-3_h3_7_7"  />
</g>
<g id="a3_008"  >
<polygon points="99,90 102,85 99,80 99,90 " style="fill:white; stroke-width:1; stroke:black; " description="&lt;b&gt;BO72DRAFT_444843&lt;/b&gt;&lt;br&gt;uncharacterized protein&lt;br&gt;Location: 181333 - 181929" locus_tag="BO72DRAFT_444843" class="clusterblast-orf" id="dummy-3_h3_7_8"  />
</g>
<g id="a3_009"  >
<polygon points="106,85 111,80 112,80 112,90 111,90 106,85 " style="fill:white; stroke-width:1; stroke:black; " description="&lt;b&gt;BO72DRAFT_261738&lt;/b&gt;&lt;br&gt;putative short-chain dehydrogenase&lt;br&gt;Location: 182867 - 183938" locus_tag="BO72DRAFT_261738" class="clusterblast-orf" id="dummy-3_h3_7_9"  />
</g>
<g id="a3_0010"  >
<polygon points="113,85 118,80 121,80 121,90 118,90 113,85 " style="fill:white; stroke-width:1; stroke:black; " description="&lt;b&gt;BO72DRAFT_492817&lt;/b&gt;&lt;br&gt;uncharacterized protein&lt;br&gt;Location: 184196 - 185860" locus_tag="BO72DRAFT_492817" class="clusterblast-orf" id="dummy-3_h3_7_10"  />
</g>
<g id="a3_0011"  >
<polygon points="124,85 128,80 128,90 124,85 " style="fill:white; stroke-width:1; stroke:black; " description="&lt;b&gt;BO72DRAFT_455822&lt;/b&gt;&lt;br&gt;uncharacterized protein&lt;br&gt;Location: 186488 - 187393" locus_tag="BO72DRAFT_455822" class="clusterblast-orf" id="dummy-3_h3_7_11"  />
</g>
<g id="a3_0012"  >
<polygon points="140,90 170,90 175,85 170,80 140,80 140,90 " style="fill:white; stroke-width:1; stroke:black; " description="&lt;b&gt;BO72DRAFT_524793&lt;/b&gt;&lt;br&gt;polyketide synthase&lt;br&gt;Location: 189886 - 197332" locus_tag="BO72DRAFT_524793" class="clusterblast-orf" id="dummy-3_h3_7_12"  />
</g>
<g id="a3_0013"  >
<polygon points="176,85 181,80 186,80 186,90 181,90 176,85 " style="fill:white; stroke-width:1; stroke:black; " description="&lt;b&gt;BO72DRAFT_421855&lt;/b&gt;&lt;br&gt;fungal-specific transcription factor domain protein&lt;br&gt;Location: 197473 - 199710" locus_tag="BO72DRAFT_421855" class="clusterblast-orf" id="dummy-3_h3_7_13"  />
</g>
<g id="a3_0014"  >
<polygon points="189,90 190,90 195,85 190,80 189,80 189,90 " style="fill:white; stroke-width:1; stroke:black; " description="&lt;b&gt;BO72DRAFT_370376&lt;/b&gt;&lt;br&gt;kinase-like protein&lt;br&gt;Location: 200218 - 201450" locus_tag="BO72DRAFT_370376" class="clusterblast-orf" id="dummy-3_h3_7_14"  />
</g>
<g id="a3_0015"  >
<polygon points="197,90 200,90 205,85 200,80 197,80 197,90 " style="fill:white; stroke-width:1; stroke:black; " description="&lt;b&gt;BO72DRAFT_261792&lt;/b&gt;&lt;br&gt;Metallo-dependent hydrolase&lt;br&gt;Location: 201892 - 203565" locus_tag="BO72DRAFT_261792" class="clusterblast-orf" id="dummy-3_h3_7_15"  />
</g>
<g id="a3_0016"  >
<polygon points="213,85 218,80 218,80 218,90 218,90 213,85 " style="fill:white; stroke-width:1; stroke:black; " description="&lt;b&gt;BO72DRAFT_444846&lt;/b&gt;&lt;br&gt;PLP-dependent transferase&lt;br&gt;Location: 205255 - 206331" locus_tag="BO72DRAFT_444846" class="clusterblast-orf" id="dummy-3_h3_7_16"  />
</g>
<g id="a3_0017"  >
<polygon points="228,90 229,90 234,85 229,80 228,80 228,90 " style="fill:white; stroke-width:1; stroke:black; " description="&lt;b&gt;BO72DRAFT_396939&lt;/b&gt;&lt;br&gt;uncharacterized protein&lt;br&gt;Location: 208528 - 209796" locus_tag="BO72DRAFT_396939" class="clusterblast-orf" id="dummy-3_h3_7_17"  />
</g>
<g id="a3_0018"  >
<polygon points="235,85 240,80 240,80 240,90 240,90 235,85 " style="fill:white; stroke-width:1; stroke:black; " description="&lt;b&gt;BO72DRAFT_524798&lt;/b&gt;&lt;br&gt;NAD(P)-binding protein&lt;br&gt;Location: 209910 - 210983" locus_tag="BO72DRAFT_524798" class="clusterblast-orf" id="dummy-3_h3_7_18"  />
</g>
<g id="a3_0019"  >
<polygon points="241,85 246,80 253,80 253,90 246,90 241,85 " style="fill:white; stroke-width:1; stroke:black; " description="&lt;b&gt;BO72DRAFT_421868&lt;/b&gt;&lt;br&gt;Zn(II)2Cys6 transcription factor&lt;br&gt;Location: 211259 - 213677" locus_tag="BO72DRAFT_421868" class="clusterblast-orf" id="dummy-3_h3_7_19"  />
</g>
<g id="a3_0020"  >
<polygon points="254,85 259,80 260,80 260,90 259,90 254,85 " style="fill:white; stroke-width:1; stroke:black; " description="&lt;b&gt;BO72DRAFT_261878&lt;/b&gt;&lt;br&gt;CoA-transferase family III&lt;br&gt;Location: 214007 - 215278" locus_tag="BO72DRAFT_261878" class="clusterblast-orf" id="dummy-3_h3_7_20"  />
</g>
<g id="a3_0021"  >
<polygon points="264,85 268,80 268,90 264,85 " style="fill:white; stroke-width:1; stroke:black; " description="&lt;b&gt;BO72DRAFT_492828&lt;/b&gt;&lt;br&gt;uncharacterized protein&lt;br&gt;Location: 216079 - 216952" locus_tag="BO72DRAFT_492828" class="clusterblast-orf" id="dummy-3_h3_7_21"  />
</g>
<g id="a3_0022"  >
<polygon points="270,85 273,80 273,90 270,85 " style="fill:white; stroke-width:1; stroke:black; " description="&lt;b&gt;BO72DRAFT_492829&lt;/b&gt;&lt;br&gt;uncharacterized protein&lt;br&gt;Location: 217379 - 217930" locus_tag="BO72DRAFT_492829" class="clusterblast-orf" id="dummy-3_h3_7_22"  />
</g>
<g id="a3_0023"  >
<polygon points="283,90 286,85 283,80 283,90 " style="fill:white; stroke-width:1; stroke:black; " description="&lt;b&gt;BO72DRAFT_483477&lt;/b&gt;&lt;br&gt;putative glutathione S-transferase&lt;br&gt;Location: 219962 - 220724" locus_tag="BO72DRAFT_483477" class="clusterblast-orf" id="dummy-3_h3_7_23"  />
</g>
<g id="a3_0024"  >
<polygon points="288,90 292,90 297,85 292,80 288,80 288,90 " style="fill:white; stroke-width:1; stroke:black; " description="&lt;b&gt;BO72DRAFT_421878&lt;/b&gt;&lt;br&gt;phytoene desaturase&lt;br&gt;Location: 221020 - 222936" locus_tag="BO72DRAFT_421878" class="clusterblast-orf" id="dummy-3_h3_7_24"  />
</g>
<g id="a3_0025"  >
<polygon points="297,85 302,80 307,80 307,90 302,90 297,85 " style="fill:white; stroke-width:1; stroke:black; " description="&lt;b&gt;BO72DRAFT_474943&lt;/b&gt;&lt;br&gt;terpenoid synthase&lt;br&gt;Location: 223102 - 225149" locus_tag="BO72DRAFT_474943" class="clusterblast-orf" id="dummy-3_h3_7_25"  />
</g>
<g id="a3_0026"  >
<polygon points="314,90 316,85 314,80 314,90 " style="fill:white; stroke-width:1; stroke:black; " description="&lt;b&gt;BO72DRAFT_455835&lt;/b&gt;&lt;br&gt;RBP protein&lt;br&gt;Location: 226554 - 227043" locus_tag="BO72DRAFT_455835" class="clusterblast-orf" id="dummy-3_h3_7_26"  />
</g>
<g id="a3_0027"  >
<polygon points="317,85 322,80 323,80 323,90 322,90 317,85 " style="fill:white; stroke-width:1; stroke:black; " description="&lt;b&gt;BO72DRAFT_370279&lt;/b&gt;&lt;br&gt;uncharacterized protein&lt;br&gt;Location: 227223 - 228413" locus_tag="BO72DRAFT_370279" class="clusterblast-orf" id="dummy-3_h3_7_27"  />
</g>
<g id="a3_0028"  >
<polygon points="329,90 332,85 329,80 329,90 " style="fill:white; stroke-width:1; stroke:black; " description="&lt;b&gt;BO72DRAFT_492835&lt;/b&gt;&lt;br&gt;uncharacterized protein&lt;br&gt;Location: 229760 - 230306" locus_tag="BO72DRAFT_492835" class="clusterblast-orf" id="dummy-3_h3_7_28"  />
</g>
<g id="a3_0029"  >
<polygon points="339,90 342,85 339,80 339,90 " style="fill:white; stroke-width:1; stroke:black; " description="&lt;b&gt;BO72DRAFT_492836&lt;/b&gt;&lt;br&gt;uncharacterized protein&lt;br&gt;Location: 231789 - 232403" locus_tag="BO72DRAFT_492836" class="clusterblast-orf" id="dummy-3_h3_7_29"  />
</g>
<g id="a3_0030"  >
<polygon points="343,85 348,80 348,80 348,90 348,90 343,85 " style="fill:white; stroke-width:1; stroke:black; " description="&lt;b&gt;BO72DRAFT_444852&lt;/b&gt;&lt;br&gt;uncharacterized protein&lt;br&gt;Location: 232655 - 233713" locus_tag="BO72DRAFT_444852" class="clusterblast-orf" id="dummy-3_h3_7_30"  />
</g>
<g id="a3_0031"  >
<polygon points="350,85 355,80 358,80 358,90 355,90 350,85 " style="fill:white; stroke-width:1; stroke:black; " description="&lt;b&gt;BO72DRAFT_261970&lt;/b&gt;&lt;br&gt;MFS general substrate transporter&lt;br&gt;Location: 234089 - 235801" locus_tag="BO72DRAFT_261970" class="clusterblast-orf" id="dummy-3_h3_7_31"  />
</g>
<g id="a3_0032"  >
<polygon points="367,90 371,90 376,85 371,80 367,80 367,90 " style="fill:white; stroke-width:1; stroke:black; " description="&lt;b&gt;BO72DRAFT_369978&lt;/b&gt;&lt;br&gt;cytochrome P450&lt;br&gt;Location: 237754 - 239592" locus_tag="BO72DRAFT_369978" class="clusterblast-orf" id="dummy-3_h3_7_32"  />
</g>
<g id="a3_0033"  >
<polygon points="380,90 382,85 380,80 380,90 " style="fill:white; stroke-width:1; stroke:black; " description="&lt;b&gt;BO72DRAFT_262027&lt;/b&gt;&lt;br&gt;uncharacterized protein&lt;br&gt;Location: 240431 - 240860" locus_tag="BO72DRAFT_262027" class="clusterblast-orf" id="dummy-3_h3_7_33"  />
</g>
<g id="a3_0034"  >
<polygon points="383,85 388,80 390,80 390,90 388,90 383,85 " style="fill:white; stroke-width:1; stroke:black; " description="&lt;b&gt;BO72DRAFT_444855&lt;/b&gt;&lt;br&gt;kinase-like protein&lt;br&gt;Location: 241096 - 242631" locus_tag="BO72DRAFT_444855" class="clusterblast-orf" id="dummy-3_h3_7_34"  />
</g>
<g id="a3_0035"  >
<polygon points="395,85 400,80 412,80 412,90 400,90 395,85 " style="fill:white; stroke-width:1; stroke:black; " description="&lt;b&gt;BO72DRAFT_524811&lt;/b&gt;&lt;br&gt;acetyl-CoA synthetase-like protein&lt;br&gt;Location: 243597 - 247312" locus_tag="BO72DRAFT_524811" class="clusterblast-orf" id="dummy-3_h3_7_35"  />
</g>
<g id="a3_0036"  >
<polygon points="421,85 426,80 428,80 428,90 426,90 421,85 " style="fill:white; stroke-width:1; stroke:black; " description="&lt;b&gt;BO72DRAFT_444859&lt;/b&gt;&lt;br&gt;aldehyde dehydrogenase&lt;br&gt;Location: 249048 - 250707" locus_tag="BO72DRAFT_444859" class="clusterblast-orf" id="dummy-3_h3_7_36"  />
</g>
<g id="a3_0037"  >
<polygon points="435,90 438,90 443,85 438,80 435,80 435,90 " style="fill:white; stroke-width:1; stroke:black; " description="&lt;b&gt;BO72DRAFT_524813&lt;/b&gt;&lt;br&gt;MFS general substrate transporter&lt;br&gt;Location: 251995 - 253793" locus_tag="BO72DRAFT_524813" class="clusterblast-orf" id="dummy-3_h3_7_37"  />
</g>
<g id="a3_0038"  >
<polygon points="445,90 447,90 452,85 447,80 445,80 445,90 " style="fill:white; stroke-width:1; stroke:black; " description="&lt;b&gt;BO72DRAFT_444860&lt;/b&gt;&lt;br&gt;aromatic prenyltransferase&lt;br&gt;Location: 254208 - 255580" locus_tag="BO72DRAFT_444860" class="clusterblast-orf" id="dummy-3_h3_7_38"  />
</g>
<g id="a3_0039"  >
<polygon points="453,85 458,80 459,80 459,90 458,90 453,85 " style="fill:white; stroke-width:1; stroke:black; " description="&lt;b&gt;BO72DRAFT_421904&lt;/b&gt;&lt;br&gt;S-adenosyl-L-methionine-dependent methyltransferase&lt;br&gt;Location: 255917 - 257096" locus_tag="BO72DRAFT_421904" class="clusterblast-orf" id="dummy-3_h3_7_39"  />
</g>
<g id="a3_0040"  >
<polygon points="462,90 466,90 471,85 466,80 462,80 462,90 " style="fill:white; stroke-width:1; stroke:black; " description="&lt;b&gt;BO72DRAFT_520129&lt;/b&gt;&lt;br&gt;putative cytochrome P450 monooxygenase&lt;br&gt;Location: 257684 - 259569" locus_tag="BO72DRAFT_520129" class="clusterblast-orf" id="dummy-3_h3_7_40"  />
</g>
<g id="a3_0041"  >
<polygon points="472,85 477,80 480,80 480,90 477,90 472,85 " style="fill:white; stroke-width:1; stroke:black; " description="&lt;b&gt;BO72DRAFT_396984&lt;/b&gt;&lt;br&gt;FAD/NAD(P)-binding domain-containing protein&lt;br&gt;Location: 259950 - 261476" locus_tag="BO72DRAFT_396984" class="clusterblast-orf" id="dummy-3_h3_7_41"  />
</g>
<g id="a3_0042"  >
<polygon points="487,85 492,80 494,80 494,90 492,90 487,85 " style="fill:white; stroke-width:1; stroke:black; " description="&lt;b&gt;BO72DRAFT_483490&lt;/b&gt;&lt;br&gt;putative O-methyltransferase&lt;br&gt;Location: 262990 - 264470" locus_tag="BO72DRAFT_483490" class="clusterblast-orf" id="dummy-3_h3_7_42"  />
</g>
<g id="a3_0043"  >
<polygon points="502,85 507,80 510,80 510,90 507,90 502,85 " style="fill:white; stroke-width:1; stroke:black; " description="&lt;b&gt;BO72DRAFT_444863&lt;/b&gt;&lt;br&gt;cytochrome P450&lt;br&gt;Location: 266213 - 267851" locus_tag="BO72DRAFT_444863" class="clusterblast-orf" id="dummy-3_h3_7_43"  />
</g>
<g id="a3_0044"  >
<polygon points="515,90 542,90 547,85 542,80 515,80 515,90 " style="fill:#1563d8; stroke-width:1; stroke:black; " description="&lt;b&gt;BO72DRAFT_474955&lt;/b&gt;&lt;br&gt;putative nonribosomal peptide synthase&lt;br&gt;Location: 268935 - 275690&lt;br&gt;&lt;br&gt;&lt;b&gt;BlastP hit with input.path1.gene789&lt;/b&gt;&lt;br&gt;Percentage identity: 36&lt;br&gt;Percentage coverage: 57&lt;br&gt;BLAST bit score: 912&lt;br&gt;E-value: 1.39e-284" locus_tag="BO72DRAFT_474955" class="clusterblast-orf" id="dummy-3_h3_7_44"  />
</g>
<g id="a3_0045"  >
<polygon points="549,85 551,80 551,90 549,85 " style="fill:white; stroke-width:1; stroke:black; " description="&lt;b&gt;BO72DRAFT_262107&lt;/b&gt;&lt;br&gt;uncharacterized protein&lt;br&gt;Location: 276011 - 276487" locus_tag="BO72DRAFT_262107" class="clusterblast-orf" id="dummy-3_h3_7_45"  />
</g>
<g id="a3_0046"  >
<polygon points="553,85 558,80 564,80 564,90 558,90 553,85 " style="fill:white; stroke-width:1; stroke:black; " description="&lt;b&gt;BO72DRAFT_524820&lt;/b&gt;&lt;br&gt;uncharacterized protein&lt;br&gt;Location: 276970 - 279345" locus_tag="BO72DRAFT_524820" class="clusterblast-orf" id="dummy-3_h3_7_46"  />
</g>
<g id="a3_0047"  >
<polygon points="566,85 571,80 572,80 572,90 571,90 566,85 " style="fill:white; stroke-width:1; stroke:black; " description="&lt;b&gt;BO72DRAFT_492852&lt;/b&gt;&lt;br&gt;NAD dependent epimerase/dehydratase family protein&lt;br&gt;Location: 279727 - 280967" locus_tag="BO72DRAFT_492852" class="clusterblast-orf" id="dummy-3_h3_7_47"  />
</g>
<g id="a3_0048"  >
<polygon points="574,90 576,90 581,85 576,80 574,80 574,90 " style="fill:white; stroke-width:1; stroke:black; " description="&lt;b&gt;BO72DRAFT_370258&lt;/b&gt;&lt;br&gt;FMN-dependent dehydrogenase&lt;br&gt;Location: 281438 - 282923" locus_tag="BO72DRAFT_370258" class="clusterblast-orf" id="dummy-3_h3_7_48"  />
</g>
<g id="a3_0049"  >
<polygon points="582,90 583,90 588,85 583,80 582,80 582,90 " style="fill:white; stroke-width:1; stroke:black; " description="&lt;b&gt;BO72DRAFT_492854&lt;/b&gt;&lt;br&gt;oxidoreductase&lt;br&gt;Location: 283126 - 284270" locus_tag="BO72DRAFT_492854" class="clusterblast-orf" id="dummy-3_h3_7_49"  />
</g>
<g id="a3_0050"  >
<polygon points="592,90 597,90 602,85 597,80 592,80 592,90 " style="fill:white; stroke-width:1; stroke:black; " description="&lt;b&gt;BO72DRAFT_524824&lt;/b&gt;&lt;br&gt;acyl-CoA oxidase&lt;br&gt;Location: 285063 - 287319" locus_tag="BO72DRAFT_524824" class="clusterblast-orf" id="dummy-3_h3_7_50"  />
</g>
<g id="a3_0051"  >
<polygon points="605,90 606,90 611,85 606,80 605,80 605,90 " style="fill:white; stroke-width:1; stroke:black; " description="&lt;b&gt;BO72DRAFT_444868&lt;/b&gt;&lt;br&gt;GroES-like protein&lt;br&gt;Location: 287858 - 289122" locus_tag="BO72DRAFT_444868" class="clusterblast-orf" id="dummy-3_h3_7_51"  />
</g>
<g id="a3_0052"  >
<polygon points="612,85 617,80 619,80 619,90 617,90 612,85 " style="fill:white; stroke-width:1; stroke:black; " description="&lt;b&gt;BO72DRAFT_262205&lt;/b&gt;&lt;br&gt;FMN-linked oxidoreductase&lt;br&gt;Location: 289471 - 290795" locus_tag="BO72DRAFT_262205" class="clusterblast-orf" id="dummy-3_h3_7_52"  />
</g>
<g id="a3_0053"  >
<polygon points="623,85 628,80 641,80 641,90 628,90 623,85 " style="fill:white; stroke-width:1; stroke:black; " description="&lt;b&gt;BO72DRAFT_524827&lt;/b&gt;&lt;br&gt;acetyl-CoA synthetase-like protein&lt;br&gt;Location: 291730 - 295516" locus_tag="BO72DRAFT_524827" class="clusterblast-orf" id="dummy-3_h3_7_53"  />
</g>
<g id="a3_0054"  >
<polygon points="666,85 671,80 676,80 676,90 671,90 666,85 " style="fill:white; stroke-width:1; stroke:black; " description="&lt;b&gt;BO72DRAFT_444872&lt;/b&gt;&lt;br&gt;uncharacterized protein&lt;br&gt;Location: 300741 - 302920" locus_tag="BO72DRAFT_444872" class="clusterblast-orf" id="dummy-3_h3_7_54"  />
</g>
<g id="a3_0055"  >
<polygon points="681,90 682,85 681,80 681,90 " style="fill:white; stroke-width:1; stroke:black; " description="&lt;b&gt;BO72DRAFT_444873&lt;/b&gt;&lt;br&gt;uncharacterized protein&lt;br&gt;Location: 303953 - 304195" locus_tag="BO72DRAFT_444873" class="clusterblast-orf" id="dummy-3_h3_7_55"  />
</g>
<g id="a3_0056"  >
<polygon points="689,90 692,90 697,85 692,80 689,80 689,90 " style="fill:white; stroke-width:1; stroke:black; " description="&lt;b&gt;BO72DRAFT_262289&lt;/b&gt;&lt;br&gt;uncharacterized protein&lt;br&gt;Location: 305508 - 307265" locus_tag="BO72DRAFT_262289" class="clusterblast-orf" id="dummy-3_h3_7_56"  />
</g>
<g id="a3_0057"  >
<polygon points="703,90 706,85 703,80 703,90 " style="fill:white; stroke-width:1; stroke:black; " description="&lt;b&gt;BO72DRAFT_492862&lt;/b&gt;&lt;br&gt;uncharacterized protein&lt;br&gt;Location: 308609 - 309255" locus_tag="BO72DRAFT_492862" class="clusterblast-orf" id="dummy-3_h3_7_57"  />
</g>
<g id="a3_0058"  >
<polygon points="708,85 713,80 718,80 718,90 713,90 708,85 " style="fill:white; stroke-width:1; stroke:black; " description="&lt;b&gt;BO72DRAFT_492863&lt;/b&gt;&lt;br&gt;uncharacterized protein&lt;br&gt;Location: 309647 - 311615" locus_tag="BO72DRAFT_492863" class="clusterblast-orf" id="dummy-3_h3_7_58"  />
</g>
<g id="a3_0059"  >
<polygon points="727,85 732,80 736,80 736,90 732,90 727,85 " style="fill:white; stroke-width:1; stroke:black; " description="&lt;b&gt;BO72DRAFT_465793&lt;/b&gt;&lt;br&gt;adenosine deaminase family protein&lt;br&gt;Location: 313530 - 315457" locus_tag="BO72DRAFT_465793" class="clusterblast-orf" id="dummy-3_h3_7_59"  />
</g>
<g id="a3_0060"  >
<polygon points="743,85 748,80 753,80 753,90 748,90 743,85 " style="fill:white; stroke-width:1; stroke:black; " description="&lt;b&gt;BO72DRAFT_465794&lt;/b&gt;&lt;br&gt;carboxylesterase&lt;br&gt;Location: 316886 - 319064" locus_tag="BO72DRAFT_465794" class="clusterblast-orf" id="dummy-3_h3_7_60"  />
</g>
<g id="a3_0061"  >
<polygon points="758,90 760,85 758,80 758,90 " style="fill:white; stroke-width:1; stroke:black; " description="&lt;b&gt;BO72DRAFT_262458&lt;/b&gt;&lt;br&gt;uncharacterized protein&lt;br&gt;Location: 320129 - 320641" locus_tag="BO72DRAFT_262458" class="clusterblast-orf" id="dummy-3_h3_7_61"  />
</g>
<g id="a3_0062"  >
<polygon points="761,90 764,90 769,85 764,80 761,80 761,90 " style="fill:white; stroke-width:1; stroke:black; " description="&lt;b&gt;BO72DRAFT_483505&lt;/b&gt;&lt;br&gt;sugar transporter&lt;br&gt;Location: 320829 - 322398" locus_tag="BO72DRAFT_483505" class="clusterblast-orf" id="dummy-3_h3_7_62"  />
</g>
<g id="a3_0063"  >
<polygon points="773,85 778,80 780,80 780,90 778,90 773,85 " style="fill:#d81515; stroke-width:1; stroke:black; " description="&lt;b&gt;BO72DRAFT_370290&lt;/b&gt;&lt;br&gt;putative D-arabinitol dehydrogenase ArbD&lt;br&gt;Location: 323357 - 324670&lt;br&gt;&lt;br&gt;&lt;b&gt;BlastP hit with input.path1.gene785&lt;/b&gt;&lt;br&gt;Percentage identity: 37&lt;br&gt;Percentage coverage: 83&lt;br&gt;BLAST bit score: 169&lt;br&gt;E-value: 6.13e-47" locus_tag="BO72DRAFT_370290" class="clusterblast-orf" id="dummy-3_h3_7_63"  />
</g>
</svg>
