<svg xmlns="http://www.w3.org/2000/svg" xmlns:xlink="http://www.w3.org/1999/xlink" version="1.1" x="0" y="0" height="230" width="800" viewBox="0 0 800 230" preserveAspectRatio="none"  >
<g label="Query sequence" class="clusterblast-cluster"  >
<text x="5" y="20" class="clusterblast-acc"  >
Query sequence</text>
<line x1="10" y1="35" x2="778.0" y2="35" style="stroke-width:1; stroke:grey; "  />
<polygon points="307,35 312,30 314,30 314,40 312,40 307,35 " style="fill:white; stroke-width:1; stroke:black; " description="&lt;b&gt;input.path1.gene1263&lt;/b&gt;&lt;br&gt;input.path1.gene1263&lt;br&gt;Location: 5533830 - 5535039" locus_tag="input.path1.gene1263" class="clusterblast-orf" id="dummy-6_q0_0_all"  />
<polygon points="318,40 319,35 318,30 318,40 " style="fill:white; stroke-width:1; stroke:black; " description="&lt;b&gt;input.path1.gene1264&lt;/b&gt;&lt;br&gt;input.path1.gene1264&lt;br&gt;Location: 5535667 - 5535913" locus_tag="input.path1.gene1264" class="clusterblast-orf" id="dummy-6_q1_0_all"  />
<polygon points="328,40 329,40 334,35 329,30 328,30 328,40 " style="fill:white; stroke-width:1; stroke:black; " description="&lt;b&gt;input.path1.gene1265&lt;/b&gt;&lt;br&gt;input.path1.gene1265&lt;br&gt;Location: 5537508 - 5538456" locus_tag="input.path1.gene1265" class="clusterblast-orf" id="dummy-6_q2_0_all"  />
<polygon points="334,35 339,30 350,30 350,40 339,40 334,35 " style="fill:white; stroke-width:1; stroke:black; " description="&lt;b&gt;input.path1.gene1266&lt;/b&gt;&lt;br&gt;input.path1.gene1266&lt;br&gt;Location: 5538510 - 5541251" locus_tag="input.path1.gene1266" class="clusterblast-orf" id="dummy-6_q3_0_all"  />
<polygon points="355,35 360,30 361,30 361,40 360,40 355,35 " style="fill:white; stroke-width:1; stroke:black; " description="&lt;b&gt;input.path1.gene1267&lt;/b&gt;&lt;br&gt;input.path1.gene1267&lt;br&gt;Location: 5542140 - 5543202" locus_tag="input.path1.gene1267" class="clusterblast-orf" id="dummy-6_q4_0_all"  />
<polygon points="369,40 373,40 378,35 373,30 369,30 369,40 " style="fill:white; stroke-width:1; stroke:black; " description="&lt;b&gt;input.path1.gene1268&lt;/b&gt;&lt;br&gt;input.path1.gene1268&lt;br&gt;Location: 5544605 - 5546186" locus_tag="input.path1.gene1268" class="clusterblast-orf" id="dummy-6_q5_0_all"  />
<polygon points="383,40 388,40 393,35 388,30 383,30 383,40 " style="fill:#d81515; stroke-width:1; stroke:black; " description="&lt;b&gt;input.path1.gene1269&lt;/b&gt;&lt;br&gt;input.path1.gene1269&lt;br&gt;Location: 5547034 - 5548722" locus_tag="input.path1.gene1269" class="clusterblast-orf" id="dummy-6_q6_0_all"  />
<polygon points="395,35 400,30 409,30 409,40 400,40 395,35 " style="fill:white; stroke-width:1; stroke:black; " description="&lt;b&gt;input.path1.gene1270&lt;/b&gt;&lt;br&gt;input.path1.gene1270&lt;br&gt;Location: 5549164 - 5551614" locus_tag="input.path1.gene1270" class="clusterblast-orf" id="dummy-6_q7_0_all"  />
<polygon points="411,40 414,40 419,35 414,30 411,30 411,40 " style="fill:white; stroke-width:1; stroke:black; " description="&lt;b&gt;input.path1.gene1271&lt;/b&gt;&lt;br&gt;input.path1.gene1271&lt;br&gt;Location: 5551893 - 5553348" locus_tag="input.path1.gene1271" class="clusterblast-orf" id="dummy-6_q8_0_all"  />
<polygon points="419,35 424,30 460,30 460,40 424,40 419,35 " style="fill:#15d815; stroke-width:1; stroke:black; " description="&lt;b&gt;input.path1.gene1272&lt;/b&gt;&lt;br&gt;input.path1.gene1272&lt;br&gt;Location: 5553357 - 5560483" locus_tag="input.path1.gene1272" class="clusterblast-orf" id="dummy-6_q9_0_all"  />
<polygon points="468,40 472,35 468,30 468,40 " style="fill:#1515d8; stroke-width:1; stroke:black; " description="&lt;b&gt;input.path1.gene1273&lt;/b&gt;&lt;br&gt;input.path1.gene1273&lt;br&gt;Location: 5561943 - 5562550" locus_tag="input.path1.gene1273" class="clusterblast-orf" id="dummy-6_q10_0_all"  />
</g>
<g label="NC_036440" description="NC_036440 (1315622-1455404): Aspergillus oryzae RIB40 DNA, chromosome 6 (6% of genes show similarity), T1PKS,isocyanide,terpene" class="clusterblast-cluster"  >
<text x="5" y="70" class="clusterblast-acc"  >
<a xlink:href="https://antismash-db.secondarymetabolites.org/area?record=NC_036440&amp;start=1315622&amp;end=1455404" target="_blank">NC_036440 (1315622-1455404)</a>: Aspergillus oryzae RIB40 DNA, chromosome 6 (6% of genes show similarity), T1PKS,isocyanide,terpene</text>
<line x1="10" y1="85" x2="778.0" y2="85" style="stroke-width:1; stroke:grey; "  />
</g>
<g id="a6_000"  >
<polygon points="0,85 5,80 7,80 7,90 5,90 0,85 " style="fill:white; stroke-width:1; stroke:black; " description="&lt;b&gt;AO090020000202&lt;/b&gt;&lt;br&gt;&lt;br&gt;Location: 1317193 - 1318471" locus_tag="AO090020000202" class="clusterblast-orf" id="dummy-6_h6_7_0"  />
</g>
<g id="a6_001"  >
<polygon points="20,85 24,80 24,90 20,85 " style="fill:white; stroke-width:1; stroke:black; " description="&lt;b&gt;AO090020000200&lt;/b&gt;&lt;br&gt;&lt;br&gt;Location: 1320718 - 1321507" locus_tag="AO090020000200" class="clusterblast-orf" id="dummy-6_h6_7_1"  />
</g>
<g id="a6_002"  >
<polygon points="30,90 34,85 30,80 30,90 " style="fill:white; stroke-width:1; stroke:black; " description="&lt;b&gt;AO090020000199&lt;/b&gt;&lt;br&gt;&lt;br&gt;Location: 1322569 - 1323231" locus_tag="AO090020000199" class="clusterblast-orf" id="dummy-6_h6_7_2"  />
</g>
<g id="a6_003"  >
<polygon points="40,90 44,90 49,85 44,80 40,80 40,90 " style="fill:white; stroke-width:1; stroke:black; " description="&lt;b&gt;AO090020000197&lt;/b&gt;&lt;br&gt;&lt;br&gt;Location: 1324309 - 1325926" locus_tag="AO090020000197" class="clusterblast-orf" id="dummy-6_h6_7_3"  />
</g>
<g id="a6_004"  >
<polygon points="51,90 53,85 51,80 51,90 " style="fill:white; stroke-width:1; stroke:black; " description="&lt;b&gt;AO090020000196&lt;/b&gt;&lt;br&gt;&lt;br&gt;Location: 1326280 - 1326627" locus_tag="AO090020000196" class="clusterblast-orf" id="dummy-6_h6_7_4"  />
</g>
<g id="a6_005"  >
<polygon points="63,90 67,90 72,85 67,80 63,80 63,90 " style="fill:white; stroke-width:1; stroke:black; " description="&lt;b&gt;AO090020000195&lt;/b&gt;&lt;br&gt;&lt;br&gt;Location: 1328278 - 1329923" locus_tag="AO090020000195" class="clusterblast-orf" id="dummy-6_h6_7_5"  />
</g>
<g id="a6_006"  >
<polygon points="76,85 81,80 90,80 90,90 81,90 76,85 " style="fill:white; stroke-width:1; stroke:black; " description="&lt;b&gt;AO090020000194&lt;/b&gt;&lt;br&gt;&lt;br&gt;Location: 1330623 - 1332968" locus_tag="AO090020000194" class="clusterblast-orf" id="dummy-6_h6_7_6"  />
</g>
<g id="a6_007"  >
<polygon points="101,85 105,80 105,90 101,85 " style="fill:white; stroke-width:1; stroke:black; " description="&lt;b&gt;AO090020000193&lt;/b&gt;&lt;br&gt;&lt;br&gt;Location: 1334965 - 1335711" locus_tag="AO090020000193" class="clusterblast-orf" id="dummy-6_h6_7_7"  />
</g>
<g id="a6_008"  >
<polygon points="111,90 116,90 121,85 116,80 111,80 111,90 " style="fill:white; stroke-width:1; stroke:black; " description="&lt;b&gt;AO090020000192&lt;/b&gt;&lt;br&gt;&lt;br&gt;Location: 1336624 - 1338346" locus_tag="AO090020000192" class="clusterblast-orf" id="dummy-6_h6_7_8"  />
</g>
<g id="a6_009"  >
<polygon points="132,85 137,80 137,80 137,90 137,90 132,85 " style="fill:white; stroke-width:1; stroke:black; " description="&lt;b&gt;AO090020000191&lt;/b&gt;&lt;br&gt;&lt;br&gt;Location: 1340356 - 1341156" locus_tag="AO090020000191" class="clusterblast-orf" id="dummy-6_h6_7_9"  />
</g>
<g id="a6_0010"  >
<polygon points="153,90 161,90 166,85 161,80 153,80 153,90 " style="fill:white; stroke-width:1; stroke:black; " description="&lt;b&gt;AO090020000190&lt;/b&gt;&lt;br&gt;&lt;br&gt;Location: 1344060 - 1346362" locus_tag="AO090020000190" class="clusterblast-orf" id="dummy-6_h6_7_10"  />
</g>
<g id="a6_0011"  >
<polygon points="184,85 189,80 190,80 190,90 189,90 184,85 " style="fill:white; stroke-width:1; stroke:black; " description="&lt;b&gt;AO090020000189&lt;/b&gt;&lt;br&gt;&lt;br&gt;Location: 1349456 - 1350406" locus_tag="AO090020000189" class="clusterblast-orf" id="dummy-6_h6_7_11"  />
</g>
<g id="a6_0012"  >
<polygon points="211,90 227,90 232,85 227,80 211,80 211,90 " style="fill:white; stroke-width:1; stroke:black; " description="&lt;b&gt;AO090020000188&lt;/b&gt;&lt;br&gt;&lt;br&gt;Location: 1354186 - 1357766" locus_tag="AO090020000188" class="clusterblast-orf" id="dummy-6_h6_7_12"  />
</g>
<g id="a6_0013"  >
<polygon points="239,85 244,80 285,80 285,90 244,90 239,85 " style="fill:#15d815; stroke-width:1; stroke:black; " description="&lt;b&gt;AO090020000186&lt;/b&gt;&lt;br&gt;&lt;br&gt;Location: 1359136 - 1367169&lt;br&gt;&lt;br&gt;&lt;b&gt;BlastP hit with input.path1.gene1272&lt;/b&gt;&lt;br&gt;Percentage identity: 35&lt;br&gt;Percentage coverage: 118&lt;br&gt;BLAST bit score: 1393&lt;br&gt;E-value: 0.0" locus_tag="AO090020000186" class="clusterblast-orf" id="dummy-6_h6_7_13"  />
</g>
<g id="a6_0014"  >
<polygon points="291,90 294,85 291,80 291,90 " style="fill:#1515d8; stroke-width:1; stroke:black; " description="&lt;b&gt;AO090020000185&lt;/b&gt;&lt;br&gt;&lt;br&gt;Location: 1368157 - 1368651&lt;br&gt;&lt;br&gt;&lt;b&gt;BlastP hit with input.path1.gene1273&lt;/b&gt;&lt;br&gt;Percentage identity: 43&lt;br&gt;Percentage coverage: 43&lt;br&gt;BLAST bit score: 57&lt;br&gt;E-value: 3.84e-09" locus_tag="AO090020000185" class="clusterblast-orf" id="dummy-6_h6_7_14"  />
</g>
<g id="a6_0015"  >
<polygon points="311,85 316,80 319,80 319,90 316,90 311,85 " style="fill:#d81515; stroke-width:1; stroke:black; " description="&lt;b&gt;AO090020000183&lt;/b&gt;&lt;br&gt;&lt;br&gt;Location: 1371621 - 1373023&lt;br&gt;&lt;br&gt;&lt;b&gt;BlastP hit with input.path1.gene1269&lt;/b&gt;&lt;br&gt;Percentage identity: 32&lt;br&gt;Percentage coverage: 35&lt;br&gt;BLAST bit score: 85&lt;br&gt;E-value: 1.87e-15" locus_tag="AO090020000183" class="clusterblast-orf" id="dummy-6_h6_7_15"  />
</g>
<g id="a6_0016"  >
<polygon points="324,90 328,85 324,80 324,90 " style="fill:white; stroke-width:1; stroke:black; " description="&lt;b&gt;AO090020000182&lt;/b&gt;&lt;br&gt;&lt;br&gt;Location: 1373963 - 1374635" locus_tag="AO090020000182" class="clusterblast-orf" id="dummy-6_h6_7_16"  />
</g>
<g id="a6_0017"  >
<polygon points="333,90 335,90 340,85 335,80 333,80 333,90 " style="fill:white; stroke-width:1; stroke:black; " description="&lt;b&gt;AO090020000180&lt;/b&gt;&lt;br&gt;&lt;br&gt;Location: 1375476 - 1376703" locus_tag="AO090020000180" class="clusterblast-orf" id="dummy-6_h6_7_17"  />
</g>
<g id="a6_0018"  >
<polygon points="340,85 343,80 343,90 340,85 " style="fill:white; stroke-width:1; stroke:black; " description="&lt;b&gt;AO090020000179&lt;/b&gt;&lt;br&gt;&lt;br&gt;Location: 1376708 - 1377247" locus_tag="AO090020000179" class="clusterblast-orf" id="dummy-6_h6_7_18"  />
</g>
<g id="a6_0019"  >
<polygon points="345,85 349,80 349,90 345,85 " style="fill:white; stroke-width:1; stroke:black; " description="&lt;b&gt;AO090020000178&lt;/b&gt;&lt;br&gt;&lt;br&gt;Location: 1377595 - 1378369" locus_tag="AO090020000178" class="clusterblast-orf" id="dummy-6_h6_7_19"  />
</g>
<g id="a6_0020"  >
<polygon points="358,90 359,90 364,85 359,80 358,80 358,90 " style="fill:white; stroke-width:1; stroke:black; " description="&lt;b&gt;AO090020000177&lt;/b&gt;&lt;br&gt;&lt;br&gt;Location: 1379919 - 1380836" locus_tag="AO090020000177" class="clusterblast-orf" id="dummy-6_h6_7_20"  />
</g>
<g id="a6_0021"  >
<polygon points="368,90 374,90 379,85 374,80 368,80 368,90 " style="fill:white; stroke-width:1; stroke:black; " description="&lt;b&gt;AO090020000176&lt;/b&gt;&lt;br&gt;&lt;br&gt;Location: 1381581 - 1383475" locus_tag="AO090020000176" class="clusterblast-orf" id="dummy-6_h6_7_21"  />
</g>
<g id="a6_0022"  >
<polygon points="381,90 384,85 381,80 381,90 " style="fill:white; stroke-width:1; stroke:black; " description="&lt;b&gt;AO090020000175&lt;/b&gt;&lt;br&gt;&lt;br&gt;Location: 1383799 - 1384473" locus_tag="AO090020000175" class="clusterblast-orf" id="dummy-6_h6_7_22"  />
</g>
<g id="a6_0023"  >
<polygon points="385,90 388,90 393,85 388,80 385,80 385,90 " style="fill:white; stroke-width:1; stroke:black; " description="&lt;b&gt;AO090020000174&lt;/b&gt;&lt;br&gt;&lt;br&gt;Location: 1384643 - 1385988" locus_tag="AO090020000174" class="clusterblast-orf" id="dummy-6_h6_7_23"  />
</g>
<g id="a6_0024"  >
<polygon points="398,90 400,85 398,80 398,90 " style="fill:white; stroke-width:1; stroke:black; " description="&lt;b&gt;AO090020000172&lt;/b&gt;&lt;br&gt;&lt;br&gt;Location: 1386793 - 1387194" locus_tag="AO090020000172" class="clusterblast-orf" id="dummy-6_h6_7_24"  />
</g>
<g id="a6_0025"  >
<polygon points="404,90 413,90 418,85 413,80 404,80 404,90 " style="fill:white; stroke-width:1; stroke:black; " description="&lt;b&gt;AO090020000171&lt;/b&gt;&lt;br&gt;&lt;br&gt;Location: 1387894 - 1390414" locus_tag="AO090020000171" class="clusterblast-orf" id="dummy-6_h6_7_25"  />
</g>
<g id="a6_0026"  >
<polygon points="421,90 426,90 431,85 426,80 421,80 421,90 " style="fill:white; stroke-width:1; stroke:black; " description="&lt;b&gt;AO090020000170&lt;/b&gt;&lt;br&gt;&lt;br&gt;Location: 1390911 - 1392663" locus_tag="AO090020000170" class="clusterblast-orf" id="dummy-6_h6_7_26"  />
</g>
<g id="a6_0027"  >
<polygon points="435,90 439,85 435,80 435,90 " style="fill:white; stroke-width:1; stroke:black; " description="&lt;b&gt;AO090020000169&lt;/b&gt;&lt;br&gt;&lt;br&gt;Location: 1393384 - 1394033" locus_tag="AO090020000169" class="clusterblast-orf" id="dummy-6_h6_7_27"  />
</g>
<g id="a6_0028"  >
<polygon points="465,90 467,90 472,85 467,80 465,80 465,90 " style="fill:white; stroke-width:1; stroke:black; " description="&lt;b&gt;AO090020000166&lt;/b&gt;&lt;br&gt;&lt;br&gt;Location: 1398621 - 1399739" locus_tag="AO090020000166" class="clusterblast-orf" id="dummy-6_h6_7_28"  />
</g>
<g id="a6_0029"  >
<polygon points="478,90 481,85 478,80 478,90 " style="fill:white; stroke-width:1; stroke:black; " description="&lt;b&gt;AO090020000165&lt;/b&gt;&lt;br&gt;&lt;br&gt;Location: 1400759 - 1401391" locus_tag="AO090020000165" class="clusterblast-orf" id="dummy-6_h6_7_29"  />
</g>
<g id="a6_0030"  >
<polygon points="484,85 488,80 488,90 484,85 " style="fill:white; stroke-width:1; stroke:black; " description="&lt;b&gt;AO090020000164&lt;/b&gt;&lt;br&gt;&lt;br&gt;Location: 1401906 - 1402655" locus_tag="AO090020000164" class="clusterblast-orf" id="dummy-6_h6_7_30"  />
</g>
<g id="a6_0031"  >
<polygon points="497,90 507,90 512,85 507,80 497,80 497,90 " style="fill:white; stroke-width:1; stroke:black; " description="&lt;b&gt;AO090020000163&lt;/b&gt;&lt;br&gt;&lt;br&gt;Location: 1404236 - 1406856" locus_tag="AO090020000163" class="clusterblast-orf" id="dummy-6_h6_7_31"  />
</g>
<g id="a6_0032"  >
<polygon points="514,85 519,80 525,80 525,90 519,90 514,85 " style="fill:white; stroke-width:1; stroke:black; " description="&lt;b&gt;AO090020000162&lt;/b&gt;&lt;br&gt;&lt;br&gt;Location: 1407101 - 1409105" locus_tag="AO090020000162" class="clusterblast-orf" id="dummy-6_h6_7_32"  />
</g>
<g id="a6_0033"  >
<polygon points="533,90 538,90 543,85 538,80 533,80 533,90 " style="fill:white; stroke-width:1; stroke:black; " description="&lt;b&gt;AO090020000161&lt;/b&gt;&lt;br&gt;&lt;br&gt;Location: 1410515 - 1412152" locus_tag="AO090020000161" class="clusterblast-orf" id="dummy-6_h6_7_33"  />
</g>
<g id="a6_0034"  >
<polygon points="545,85 550,80 555,80 555,90 550,90 545,85 " style="fill:white; stroke-width:1; stroke:black; " description="&lt;b&gt;AO090020000160&lt;/b&gt;&lt;br&gt;&lt;br&gt;Location: 1412467 - 1414360" locus_tag="AO090020000160" class="clusterblast-orf" id="dummy-6_h6_7_34"  />
</g>
<g id="a6_0035"  >
<polygon points="558,90 565,90 570,85 565,80 558,80 558,90 " style="fill:white; stroke-width:1; stroke:black; " description="&lt;b&gt;AO090020000159&lt;/b&gt;&lt;br&gt;&lt;br&gt;Location: 1414840 - 1416861" locus_tag="AO090020000159" class="clusterblast-orf" id="dummy-6_h6_7_35"  />
</g>
<g id="a6_0036"  >
<polygon points="570,85 575,80 580,80 580,90 575,90 570,85 " style="fill:white; stroke-width:1; stroke:black; " description="&lt;b&gt;AO090020000158&lt;/b&gt;&lt;br&gt;&lt;br&gt;Location: 1416985 - 1418724" locus_tag="AO090020000158" class="clusterblast-orf" id="dummy-6_h6_7_36"  />
</g>
<g id="a6_0037"  >
<polygon points="584,85 589,80 590,80 590,90 589,90 584,85 " style="fill:white; stroke-width:1; stroke:black; " description="&lt;b&gt;AO090020000157&lt;/b&gt;&lt;br&gt;&lt;br&gt;Location: 1419375 - 1420436" locus_tag="AO090020000157" class="clusterblast-orf" id="dummy-6_h6_7_37"  />
</g>
<g id="a6_0038"  >
<polygon points="598,90 604,90 609,85 604,80 598,80 598,90 " style="fill:white; stroke-width:1; stroke:black; " description="&lt;b&gt;AO090020000156&lt;/b&gt;&lt;br&gt;&lt;br&gt;Location: 1421724 - 1423701" locus_tag="AO090020000156" class="clusterblast-orf" id="dummy-6_h6_7_38"  />
</g>
<g id="a6_0039"  >
<polygon points="610,85 615,80 619,80 619,90 615,90 610,85 " style="fill:white; stroke-width:1; stroke:black; " description="&lt;b&gt;AO090020000155&lt;/b&gt;&lt;br&gt;&lt;br&gt;Location: 1423884 - 1425404" locus_tag="AO090020000155" class="clusterblast-orf" id="dummy-6_h6_7_39"  />
</g>
<g id="a6_0040"  >
<polygon points="619,85 622,80 622,90 619,85 " style="fill:white; stroke-width:1; stroke:black; " description="&lt;b&gt;AO090020000154&lt;/b&gt;&lt;br&gt;&lt;br&gt;Location: 1425542 - 1426006" locus_tag="AO090020000154" class="clusterblast-orf" id="dummy-6_h6_7_40"  />
</g>
<g id="a6_0041"  >
<polygon points="635,90 638,90 643,85 638,80 635,80 635,90 " style="fill:white; stroke-width:1; stroke:black; " description="&lt;b&gt;AO090020000152&lt;/b&gt;&lt;br&gt;&lt;br&gt;Location: 1428331 - 1429734" locus_tag="AO090020000152" class="clusterblast-orf" id="dummy-6_h6_7_41"  />
</g>
<g id="a6_0042"  >
<polygon points="648,85 653,80 665,80 665,90 653,90 648,85 " style="fill:white; stroke-width:1; stroke:black; " description="&lt;b&gt;AO090020000151&lt;/b&gt;&lt;br&gt;&lt;br&gt;Location: 1430585 - 1433569" locus_tag="AO090020000151" class="clusterblast-orf" id="dummy-6_h6_7_42"  />
</g>
<g id="a6_0043"  >
<polygon points="677,85 682,80 685,80 685,90 682,90 677,85 " style="fill:white; stroke-width:1; stroke:black; " description="&lt;b&gt;AO090020000149&lt;/b&gt;&lt;br&gt;&lt;br&gt;Location: 1435693 - 1436998" locus_tag="AO090020000149" class="clusterblast-orf" id="dummy-6_h6_7_43"  />
</g>
<g id="a6_0044"  >
<polygon points="696,85 701,80 702,80 702,90 701,90 696,85 " style="fill:white; stroke-width:1; stroke:black; " description="&lt;b&gt;AO090020000148&lt;/b&gt;&lt;br&gt;&lt;br&gt;Location: 1439008 - 1439962" locus_tag="AO090020000148" class="clusterblast-orf" id="dummy-6_h6_7_44"  />
</g>
<g id="a6_0045"  >
<polygon points="711,90 711,90 716,85 711,80 711,80 711,90 " style="fill:white; stroke-width:1; stroke:black; " description="&lt;b&gt;AO090020000147&lt;/b&gt;&lt;br&gt;&lt;br&gt;Location: 1441583 - 1442470" locus_tag="AO090020000147" class="clusterblast-orf" id="dummy-6_h6_7_45"  />
</g>
<g id="a6_0046"  >
<polygon points="719,85 723,80 723,90 719,85 " style="fill:white; stroke-width:1; stroke:black; " description="&lt;b&gt;AO090020000146&lt;/b&gt;&lt;br&gt;&lt;br&gt;Location: 1443008 - 1443592" locus_tag="AO090020000146" class="clusterblast-orf" id="dummy-6_h6_7_46"  />
</g>
<g id="a6_0047"  >
<polygon points="739,85 744,80 752,80 752,90 744,90 739,85 " style="fill:white; stroke-width:1; stroke:black; " description="&lt;b&gt;AO090020000145&lt;/b&gt;&lt;br&gt;&lt;br&gt;Location: 1446528 - 1448732" locus_tag="AO090020000145" class="clusterblast-orf" id="dummy-6_h6_7_47"  />
</g>
<g id="a6_0048"  >
<polygon points="759,85 764,80 780,80 780,90 764,90 759,85 " style="fill:white; stroke-width:1; stroke:black; " description="&lt;b&gt;AO090020000144&lt;/b&gt;&lt;br&gt;&lt;br&gt;Location: 1449961 - 1453537" locus_tag="AO090020000144" class="clusterblast-orf" id="dummy-6_h6_7_48"  />
</g>
</svg>
