<svg xmlns="http://www.w3.org/2000/svg" xmlns:xlink="http://www.w3.org/1999/xlink" version="1.1" x="0" y="0" height="230" width="800" viewBox="0 0 800 230" preserveAspectRatio="none"  >
<g label="Query sequence" class="clusterblast-cluster"  >
<text x="5" y="20" class="clusterblast-acc"  >
Query sequence</text>
<line x1="10" y1="35" x2="778.0" y2="35" style="stroke-width:1; stroke:grey; "  />
<polygon points="102,40 152,40 157,35 152,30 102,30 102,40 " style="fill:#d81515; stroke-width:1; stroke:black; " description="&lt;b&gt;input.path1.gene373&lt;/b&gt;&lt;br&gt;input.path1.gene373&lt;br&gt;Location: 2195576 - 2199651" locus_tag="input.path1.gene373" class="clusterblast-orf" id="dummy-3_q0_0_all"  />
<polygon points="161,35 166,30 220,30 220,40 166,40 161,35 " style="fill:#15d815; stroke-width:1; stroke:black; " description="&lt;b&gt;input.path1.gene374&lt;/b&gt;&lt;br&gt;input.path1.gene374&lt;br&gt;Location: 2199993 - 2204343" locus_tag="input.path1.gene374" class="clusterblast-orf" id="dummy-3_q1_0_all"  />
<polygon points="252,40 274,40 279,35 274,30 252,30 252,40 " style="fill:#1597d8; stroke-width:1; stroke:black; " description="&lt;b&gt;input.path1.gene375&lt;/b&gt;&lt;br&gt;input.path1.gene375&lt;br&gt;Location: 2206641 - 2208634" locus_tag="input.path1.gene375" class="clusterblast-orf" id="dummy-3_q2_0_all"  />
<polygon points="328,40 336,40 341,35 336,30 328,30 328,40 " style="fill:#9715d8; stroke-width:1; stroke:black; " description="&lt;b&gt;input.path1.gene376&lt;/b&gt;&lt;br&gt;input.path1.gene376&lt;br&gt;Location: 2212290 - 2213234" locus_tag="input.path1.gene376" class="clusterblast-orf" id="dummy-3_q3_0_all"  />
<polygon points="353,35 358,30 455,30 455,40 358,40 353,35 " style="fill:#d89715; stroke-width:1; stroke:black; " description="&lt;b&gt;input.path1.gene377&lt;/b&gt;&lt;br&gt;input.path1.gene377&lt;br&gt;Location: 2214115 - 2221658" locus_tag="input.path1.gene377" class="clusterblast-orf" id="dummy-3_q4_0_all"  />
<polygon points="556,35 561,30 564,30 564,40 561,40 556,35 " style="fill:#15d897; stroke-width:1; stroke:black; " description="&lt;b&gt;input.path1.gene378&lt;/b&gt;&lt;br&gt;input.path1.gene378&lt;br&gt;Location: 2229101 - 2229707" locus_tag="input.path1.gene378" class="clusterblast-orf" id="dummy-3_q5_0_all"  />
<polygon points="581,40 592,40 597,35 592,30 581,30 581,40 " style="fill:#1515d8; stroke-width:1; stroke:black; " description="&lt;b&gt;input.path1.gene379&lt;/b&gt;&lt;br&gt;input.path1.gene379&lt;br&gt;Location: 2230943 - 2232137" locus_tag="input.path1.gene379" class="clusterblast-orf" id="dummy-3_q6_0_all"  />
<polygon points="618,35 623,30 640,30 640,40 623,40 618,35 " style="fill:#d81597; stroke-width:1; stroke:black; " description="&lt;b&gt;input.path1.gene380&lt;/b&gt;&lt;br&gt;input.path1.gene380&lt;br&gt;Location: 2233700 - 2235328" locus_tag="input.path1.gene380" class="clusterblast-orf" id="dummy-3_q7_0_all"  />
<polygon points="641,40 673,40 678,35 673,30 641,30 641,40 " style="fill:#97d815; stroke-width:1; stroke:black; " description="&lt;b&gt;input.path1.gene381&lt;/b&gt;&lt;br&gt;input.path1.gene381&lt;br&gt;Location: 2235394 - 2238079" locus_tag="input.path1.gene381" class="clusterblast-orf" id="dummy-3_q8_0_all"  />
</g>
<g label="NW_006711164" description="NW_006711164 (601534-669174): Trichoderma reesei QM6a unplaced genomic scaffo... (64% of genes show similarity), T1PKS" class="clusterblast-cluster"  >
<text x="5" y="70" class="clusterblast-acc"  >
<a xlink:href="https://antismash-db.secondarymetabolites.org/area?record=NW_006711164&amp;start=601534&amp;end=669174" target="_blank">NW_006711164 (601534-669174)</a>: Trichoderma reesei QM6a unplaced genomic scaffo... (64% of genes show similarity), T1PKS</text>
<line x1="10" y1="85" x2="778.0" y2="85" style="stroke-width:1; stroke:grey; "  />
</g>
<g id="a3_000"  >
<polygon points="0,85 5,80 19,80 19,90 5,90 0,85 " style="fill:white; stroke-width:1; stroke:black; " description="&lt;b&gt;TRIREDRAFT_65735&lt;/b&gt;&lt;br&gt;peptidase C1B-like protein&lt;br&gt;Location: 666302 - 664872" locus_tag="TRIREDRAFT_65735" class="clusterblast-orf" id="dummy-3_h3_5_0"  />
</g>
<g id="a3_001"  >
<polygon points="37,85 42,80 47,80 47,90 42,90 37,85 " style="fill:white; stroke-width:1; stroke:black; " description="&lt;b&gt;TRIREDRAFT_123056&lt;/b&gt;&lt;br&gt;woronin body major protein&lt;br&gt;Location: 663558 - 662775" locus_tag="TRIREDRAFT_123056" class="clusterblast-orf" id="dummy-3_h3_5_1"  />
</g>
<g id="a3_002"  >
<polygon points="112,90 153,90 158,85 153,80 112,80 112,90 " style="fill:#d81515; stroke-width:1; stroke:black; " description="&lt;b&gt;TRIREDRAFT_50491&lt;/b&gt;&lt;br&gt;uncharacterized protein&lt;br&gt;Location: 657971 - 654600&lt;br&gt;&lt;br&gt;&lt;b&gt;BlastP hit with input.path1.gene373&lt;/b&gt;&lt;br&gt;Percentage identity: 62&lt;br&gt;Percentage coverage: 97&lt;br&gt;BLAST bit score: 1152&lt;br&gt;E-value: 0.0" locus_tag="TRIREDRAFT_50491" class="clusterblast-orf" id="dummy-3_h3_5_2"  />
</g>
<g id="a3_003"  >
<polygon points="164,85 169,80 183,80 183,90 169,90 164,85 " style="fill:#15d815; stroke-width:1; stroke:black; " description="&lt;b&gt;TRIREDRAFT_65945&lt;/b&gt;&lt;br&gt;uncharacterized protein&lt;br&gt;Location: 654175 - 652737&lt;br&gt;&lt;br&gt;&lt;b&gt;BlastP hit with input.path1.gene374&lt;/b&gt;&lt;br&gt;Percentage identity: 78&lt;br&gt;Percentage coverage: 37&lt;br&gt;BLAST bit score: 654&lt;br&gt;E-value: 3.09e-224" locus_tag="TRIREDRAFT_65945" class="clusterblast-orf" id="dummy-3_h3_5_3"  />
</g>
<g id="a3_004"  >
<polygon points="217,85 222,80 234,80 234,90 222,90 217,85 " style="fill:#15d815; stroke-width:1; stroke:black; " description="&lt;b&gt;TRIREDRAFT_80252&lt;/b&gt;&lt;br&gt;uncharacterized protein&lt;br&gt;Location: 650274 - 649002&lt;br&gt;&lt;br&gt;&lt;b&gt;BlastP hit with input.path1.gene374&lt;/b&gt;&lt;br&gt;Percentage identity: 76&lt;br&gt;Percentage coverage: 23&lt;br&gt;BLAST bit score: 446&lt;br&gt;E-value: 7.17e-145" locus_tag="TRIREDRAFT_80252" class="clusterblast-orf" id="dummy-3_h3_5_4"  />
</g>
<g id="a3_005"  >
<polygon points="269,90 282,90 287,85 282,80 269,80 269,90 " style="fill:#1597d8; stroke-width:1; stroke:black; " description="&lt;b&gt;TRIREDRAFT_65965&lt;/b&gt;&lt;br&gt;uncharacterized protein&lt;br&gt;Location: 646418 - 645126&lt;br&gt;&lt;br&gt;&lt;b&gt;BlastP hit with input.path1.gene375&lt;/b&gt;&lt;br&gt;Percentage identity: 78&lt;br&gt;Percentage coverage: 61&lt;br&gt;BLAST bit score: 542&lt;br&gt;E-value: 8.22e-190" locus_tag="TRIREDRAFT_65965" class="clusterblast-orf" id="dummy-3_h3_5_5"  />
</g>
<g id="a3_006"  >
<polygon points="335,90 351,90 356,85 351,80 335,80 335,90 " style="fill:#9715d8; stroke-width:1; stroke:black; " description="&lt;b&gt;TRIREDRAFT_65711&lt;/b&gt;&lt;br&gt;uncharacterized protein&lt;br&gt;Location: 641581 - 639988&lt;br&gt;&lt;br&gt;&lt;b&gt;BlastP hit with input.path1.gene376&lt;/b&gt;&lt;br&gt;Percentage identity: 55&lt;br&gt;Percentage coverage: 112&lt;br&gt;BLAST bit score: 304&lt;br&gt;E-value: 2.77e-100" locus_tag="TRIREDRAFT_65711" class="clusterblast-orf" id="dummy-3_h3_5_6"  />
</g>
<g id="a3_007"  >
<polygon points="367,85 372,80 471,80 471,90 372,90 367,85 " style="fill:#d89715; stroke-width:1; stroke:black; " description="&lt;b&gt;TRIREDRAFT_65891&lt;/b&gt;&lt;br&gt;polyketide synthase&lt;br&gt;Location: 639174 - 631535&lt;br&gt;&lt;br&gt;&lt;b&gt;BlastP hit with input.path1.gene377&lt;/b&gt;&lt;br&gt;Percentage identity: 50&lt;br&gt;Percentage coverage: 103&lt;br&gt;BLAST bit score: 2265&lt;br&gt;E-value: 0.0" locus_tag="TRIREDRAFT_65891" class="clusterblast-orf" id="dummy-3_h3_5_7"  />
</g>
<g id="a3_008"  >
<polygon points="526,90 549,90 554,85 549,80 526,80 526,90 " style="fill:white; stroke-width:1; stroke:black; " description="&lt;b&gt;TRIREDRAFT_65744&lt;/b&gt;&lt;br&gt;uncharacterized protein&lt;br&gt;Location: 627465 - 625422" locus_tag="TRIREDRAFT_65744" class="clusterblast-orf" id="dummy-3_h3_5_8"  />
</g>
<g id="a3_009"  >
<polygon points="561,85 566,80 570,80 570,90 566,90 561,85 " style="fill:white; stroke-width:1; stroke:black; " description="&lt;b&gt;TRIREDRAFT_65739&lt;/b&gt;&lt;br&gt;uncharacterized protein&lt;br&gt;Location: 624867 - 624244" locus_tag="TRIREDRAFT_65739" class="clusterblast-orf" id="dummy-3_h3_5_9"  />
</g>
<g id="a3_0010"  >
<polygon points="579,85 584,80 587,80 587,90 584,90 579,85 " style="fill:#15d897; stroke-width:1; stroke:black; " description="&lt;b&gt;TRIREDRAFT_65992&lt;/b&gt;&lt;br&gt;uncharacterized protein&lt;br&gt;Location: 623522 - 622969&lt;br&gt;&lt;br&gt;&lt;b&gt;BlastP hit with input.path1.gene378&lt;/b&gt;&lt;br&gt;Percentage identity: 58&lt;br&gt;Percentage coverage: 100&lt;br&gt;BLAST bit score: 116&lt;br&gt;E-value: 3.87e-33" locus_tag="TRIREDRAFT_65992" class="clusterblast-orf" id="dummy-3_h3_5_10"  />
</g>
<g id="a3_0011"  >
<polygon points="605,85 610,80 621,80 621,90 610,90 605,85 " style="fill:#d81597; stroke-width:1; stroke:black; " description="&lt;b&gt;TRIREDRAFT_80245&lt;/b&gt;&lt;br&gt;uncharacterized protein&lt;br&gt;Location: 621639 - 620441&lt;br&gt;&lt;br&gt;&lt;b&gt;BlastP hit with input.path1.gene380&lt;/b&gt;&lt;br&gt;Percentage identity: 83&lt;br&gt;Percentage coverage: 100&lt;br&gt;BLAST bit score: 434&lt;br&gt;E-value: 7.04e-153" locus_tag="TRIREDRAFT_80245" class="clusterblast-orf" id="dummy-3_h3_5_11"  />
</g>
<g id="a3_0012"  >
<polygon points="638,90 663,90 668,85 663,80 638,80 638,90 " style="fill:#97d815; stroke-width:1; stroke:black; " description="&lt;b&gt;TRIREDRAFT_80243&lt;/b&gt;&lt;br&gt;uncharacterized protein&lt;br&gt;Location: 619233 - 616955&lt;br&gt;&lt;br&gt;&lt;b&gt;BlastP hit with input.path1.gene381&lt;/b&gt;&lt;br&gt;Percentage identity: 77&lt;br&gt;Percentage coverage: 87&lt;br&gt;BLAST bit score: 931&lt;br&gt;E-value: 0.0" locus_tag="TRIREDRAFT_80243" class="clusterblast-orf" id="dummy-3_h3_5_12"  />
</g>
<g id="a3_0013"  >
<polygon points="685,85 690,80 780,80 780,90 690,90 685,85 " style="fill:white; stroke-width:1; stroke:black; " description="&lt;b&gt;TRIREDRAFT_34611&lt;/b&gt;&lt;br&gt;Hypothetical protein&lt;br&gt;Location: 615711 - 608761" locus_tag="TRIREDRAFT_34611" class="clusterblast-orf" id="dummy-3_h3_5_13"  />
</g>
</svg>
