<svg xmlns="http://www.w3.org/2000/svg" xmlns:xlink="http://www.w3.org/1999/xlink" version="1.1" x="0" y="0" height="230" width="800" viewBox="0 0 800 230" preserveAspectRatio="none"  >
<g label="Query sequence" class="clusterblast-cluster"  >
<text x="5" y="20" class="clusterblast-acc"  >
Query sequence</text>
<line x1="10" y1="35" x2="778.0" y2="35" style="stroke-width:1; stroke:grey; "  />
<polygon points="75,40 83,40 88,35 83,30 75,30 75,40 " style="fill:#d81515; stroke-width:1; stroke:black; " description="&lt;b&gt;input.path1.gene532&lt;/b&gt;&lt;br&gt;input.path1.gene532&lt;br&gt;Location: 2092141 - 2093273" locus_tag="input.path1.gene532" class="clusterblast-orf" id="dummy-2_q0_0_all"  />
<polygon points="96,35 101,30 113,30 113,40 101,40 96,35 " style="fill:#33d815; stroke-width:1; stroke:black; " description="&lt;b&gt;input.path1.gene533&lt;/b&gt;&lt;br&gt;input.path1.gene533&lt;br&gt;Location: 2094046 - 2095620" locus_tag="input.path1.gene533" class="clusterblast-orf" id="dummy-2_q1_0_all"  />
<polygon points="132,35 137,30 140,30 140,40 137,40 132,35 " style="fill:#15abd8; stroke-width:1; stroke:black; " description="&lt;b&gt;input.path1.gene534&lt;/b&gt;&lt;br&gt;input.path1.gene534&lt;br&gt;Location: 2097369 - 2098130" locus_tag="input.path1.gene534" class="clusterblast-orf" id="dummy-2_q2_0_all"  />
<polygon points="155,40 173,40 178,35 173,30 155,30 155,40 " style="fill:#8d15d8; stroke-width:1; stroke:black; " description="&lt;b&gt;input.path1.gene535&lt;/b&gt;&lt;br&gt;input.path1.gene535&lt;br&gt;Location: 2099562 - 2101677" locus_tag="input.path1.gene535" class="clusterblast-orf" id="dummy-2_q3_0_all"  />
<polygon points="186,40 224,40 229,35 224,30 186,30 186,40 " style="fill:#d86f15; stroke-width:1; stroke:black; " description="&lt;b&gt;input.path1.gene536&lt;/b&gt;&lt;br&gt;input.path1.gene536&lt;br&gt;Location: 2102408 - 2106403" locus_tag="input.path1.gene536" class="clusterblast-orf" id="dummy-2_q4_0_all"  />
<polygon points="230,35 235,30 258,30 258,40 235,40 230,35 " style="fill:#15d851; stroke-width:1; stroke:black; " description="&lt;b&gt;input.path1.gene537&lt;/b&gt;&lt;br&gt;input.path1.gene537&lt;br&gt;Location: 2106555 - 2109132" locus_tag="input.path1.gene537" class="clusterblast-orf" id="dummy-2_q5_0_all"  />
<polygon points="266,35 271,30 370,30 370,40 271,40 266,35 " style="fill:#1551d8; stroke-width:1; stroke:black; " description="&lt;b&gt;input.path1.gene538&lt;/b&gt;&lt;br&gt;input.path1.gene538&lt;br&gt;Location: 2109894 - 2119565" locus_tag="input.path1.gene538" class="clusterblast-orf" id="dummy-2_q6_0_all"  />
<polygon points="378,40 485,40 490,35 485,30 378,30 378,40 " style="fill:#1551d8; stroke-width:1; stroke:black; " description="&lt;b&gt;input.path1.gene539&lt;/b&gt;&lt;br&gt;input.path1.gene539&lt;br&gt;Location: 2120332 - 2130690" locus_tag="input.path1.gene539" class="clusterblast-orf" id="dummy-2_q7_0_all"  />
<polygon points="494,35 499,30 513,30 513,40 499,40 494,35 " style="fill:#d815c9; stroke-width:1; stroke:black; " description="&lt;b&gt;input.path1.gene540&lt;/b&gt;&lt;br&gt;input.path1.gene540&lt;br&gt;Location: 2131109 - 2132889" locus_tag="input.path1.gene540" class="clusterblast-orf" id="dummy-2_q8_0_all"  />
<polygon points="519,40 539,40 544,35 539,30 519,30 519,40 " style="fill:#d8c915; stroke-width:1; stroke:black; " description="&lt;b&gt;input.path1.gene541&lt;/b&gt;&lt;br&gt;input.path1.gene541&lt;br&gt;Location: 2133433 - 2135762" locus_tag="input.path1.gene541" class="clusterblast-orf" id="dummy-2_q9_0_all"  />
<polygon points="545,35 550,30 567,30 567,40 550,40 545,35 " style="fill:#15d8ab; stroke-width:1; stroke:black; " description="&lt;b&gt;input.path1.gene542&lt;/b&gt;&lt;br&gt;input.path1.gene542&lt;br&gt;Location: 2135852 - 2137832" locus_tag="input.path1.gene542" class="clusterblast-orf" id="dummy-2_q10_0_all"  />
<polygon points="588,35 593,30 613,30 613,40 593,40 588,35 " style="fill:#3315d8; stroke-width:1; stroke:black; " description="&lt;b&gt;input.path1.gene543&lt;/b&gt;&lt;br&gt;input.path1.gene543&lt;br&gt;Location: 2139774 - 2142112" locus_tag="input.path1.gene543" class="clusterblast-orf" id="dummy-2_q11_0_all"  />
<polygon points="619,40 620,40 625,35 620,30 619,30 619,40 " style="fill:white; stroke-width:1; stroke:black; " description="&lt;b&gt;input.path1.gene544&lt;/b&gt;&lt;br&gt;input.path1.gene544&lt;br&gt;Location: 2142663 - 2143246" locus_tag="input.path1.gene544" class="clusterblast-orf" id="dummy-2_q12_0_all"  />
<polygon points="670,35 675,30 677,30 677,40 675,40 670,35 " style="fill:#d8156f; stroke-width:1; stroke:black; " description="&lt;b&gt;input.path1.gene545&lt;/b&gt;&lt;br&gt;input.path1.gene545&lt;br&gt;Location: 2147477 - 2148070" locus_tag="input.path1.gene545" class="clusterblast-orf" id="dummy-2_q13_0_all"  />
<polygon points="693,35 698,30 704,30 704,40 698,40 693,35 " style="fill:#8dd815; stroke-width:1; stroke:black; " description="&lt;b&gt;input.path1.gene546&lt;/b&gt;&lt;br&gt;input.path1.gene546&lt;br&gt;Location: 2149540 - 2150596" locus_tag="input.path1.gene546" class="clusterblast-orf" id="dummy-2_q14_0_all"  />
</g>
<g label="NW_013566971" description="NW_013566971 (262949-340224): Aureobasidium subglaciale EXF-2481 unplaced gen... (6% of genes show similarity), T1PKS" class="clusterblast-cluster"  >
<text x="5" y="70" class="clusterblast-acc"  >
<a xlink:href="https://antismash-db.secondarymetabolites.org/area?record=NW_013566971&amp;start=262949&amp;end=340224" target="_blank">NW_013566971 (262949-340224)</a>: Aureobasidium subglaciale EXF-2481 unplaced gen... (6% of genes show similarity), T1PKS</text>
<line x1="10" y1="85" x2="778.0" y2="85" style="stroke-width:1; stroke:grey; "  />
</g>
<g id="a2_000"  >
<polygon points="0,90 9,90 14,85 9,80 0,80 0,90 " style="fill:white; stroke-width:1; stroke:black; " description="&lt;b&gt;AUEXF2481DRAFT_32564&lt;/b&gt;&lt;br&gt;hypothetical protein&lt;br&gt;Location: 267023 - 268384" locus_tag="AUEXF2481DRAFT_32564" class="clusterblast-orf" id="dummy-2_h2_7_0"  />
</g>
<g id="a2_001"  >
<polygon points="16,85 21,80 27,80 27,90 21,90 16,85 " style="fill:white; stroke-width:1; stroke:black; " description="&lt;b&gt;AUEXF2481DRAFT_69067&lt;/b&gt;&lt;br&gt;hypothetical protein&lt;br&gt;Location: 268538 - 269554" locus_tag="AUEXF2481DRAFT_69067" class="clusterblast-orf" id="dummy-2_h2_7_1"  />
</g>
<g id="a2_002"  >
<polygon points="41,90 48,90 53,85 48,80 41,80 41,90 " style="fill:white; stroke-width:1; stroke:black; " description="&lt;b&gt;AUEXF2481DRAFT_8053&lt;/b&gt;&lt;br&gt;hypothetical protein&lt;br&gt;Location: 270885 - 272010" locus_tag="AUEXF2481DRAFT_8053" class="clusterblast-orf" id="dummy-2_h2_7_2"  />
</g>
<g id="a2_003"  >
<polygon points="58,90 62,90 67,85 62,80 58,80 58,90 " style="fill:white; stroke-width:1; stroke:black; " description="&lt;b&gt;AUEXF2481DRAFT_32567&lt;/b&gt;&lt;br&gt;hypothetical protein&lt;br&gt;Location: 272447 - 273322" locus_tag="AUEXF2481DRAFT_32567" class="clusterblast-orf" id="dummy-2_h2_7_3"  />
</g>
<g id="a2_004"  >
<polygon points="69,90 76,90 81,85 76,80 69,80 69,90 " style="fill:white; stroke-width:1; stroke:black; " description="&lt;b&gt;AUEXF2481DRAFT_69224&lt;/b&gt;&lt;br&gt;hypothetical protein&lt;br&gt;Location: 273509 - 274609" locus_tag="AUEXF2481DRAFT_69224" class="clusterblast-orf" id="dummy-2_h2_7_4"  />
</g>
<g id="a2_005"  >
<polygon points="89,90 102,90 107,85 102,80 89,80 89,90 " style="fill:white; stroke-width:1; stroke:black; " description="&lt;b&gt;AUEXF2481DRAFT_69228&lt;/b&gt;&lt;br&gt;hypothetical protein&lt;br&gt;Location: 275365 - 276980" locus_tag="AUEXF2481DRAFT_69228" class="clusterblast-orf" id="dummy-2_h2_7_5"  />
</g>
<g id="a2_006"  >
<polygon points="115,90 115,90 120,85 115,80 115,80 115,90 " style="fill:white; stroke-width:1; stroke:black; " description="&lt;b&gt;AUEXF2481DRAFT_43493&lt;/b&gt;&lt;br&gt;hypothetical protein&lt;br&gt;Location: 277732 - 278247" locus_tag="AUEXF2481DRAFT_43493" class="clusterblast-orf" id="dummy-2_h2_7_6"  />
</g>
<g id="a2_007"  >
<polygon points="128,90 130,90 135,85 130,80 128,80 128,90 " style="fill:white; stroke-width:1; stroke:black; " description="&lt;b&gt;AUEXF2481DRAFT_69127&lt;/b&gt;&lt;br&gt;hypothetical protein&lt;br&gt;Location: 278945 - 279601" locus_tag="AUEXF2481DRAFT_69127" class="clusterblast-orf" id="dummy-2_h2_7_7"  />
</g>
<g id="a2_008"  >
<polygon points="150,90 153,90 158,85 153,80 150,80 150,90 " style="fill:white; stroke-width:1; stroke:black; " description="&lt;b&gt;AUEXF2481DRAFT_43496&lt;/b&gt;&lt;br&gt;hypothetical protein&lt;br&gt;Location: 281029 - 281750" locus_tag="AUEXF2481DRAFT_43496" class="clusterblast-orf" id="dummy-2_h2_7_8"  />
</g>
<g id="a2_009"  >
<polygon points="168,90 178,90 183,85 178,80 168,80 168,90 " style="fill:white; stroke-width:1; stroke:black; " description="&lt;b&gt;AUEXF2481DRAFT_444530&lt;/b&gt;&lt;br&gt;hypothetical protein&lt;br&gt;Location: 282673 - 284043" locus_tag="AUEXF2481DRAFT_444530" class="clusterblast-orf" id="dummy-2_h2_7_9"  />
</g>
<g id="a2_0010"  >
<polygon points="192,90 193,90 198,85 193,80 192,80 192,90 " style="fill:white; stroke-width:1; stroke:black; " description="&lt;b&gt;AUEXF2481DRAFT_8060&lt;/b&gt;&lt;br&gt;hypothetical protein&lt;br&gt;Location: 284922 - 285449" locus_tag="AUEXF2481DRAFT_8060" class="clusterblast-orf" id="dummy-2_h2_7_10"  />
</g>
<g id="a2_0011"  >
<polygon points="200,90 202,90 207,85 202,80 200,80 200,90 " style="fill:white; stroke-width:1; stroke:black; " description="&lt;b&gt;AUEXF2481DRAFT_8061&lt;/b&gt;&lt;br&gt;hypothetical protein&lt;br&gt;Location: 285702 - 286302" locus_tag="AUEXF2481DRAFT_8061" class="clusterblast-orf" id="dummy-2_h2_7_11"  />
</g>
<g id="a2_0012"  >
<polygon points="220,90 233,90 238,85 233,80 220,80 220,90 " style="fill:white; stroke-width:1; stroke:black; " description="&lt;b&gt;AUEXF2481DRAFT_48095&lt;/b&gt;&lt;br&gt;hypothetical protein&lt;br&gt;Location: 287526 - 289170" locus_tag="AUEXF2481DRAFT_48095" class="clusterblast-orf" id="dummy-2_h2_7_12"  />
</g>
<g id="a2_0013"  >
<polygon points="242,90 247,90 252,85 247,80 242,80 242,90 " style="fill:white; stroke-width:1; stroke:black; " description="&lt;b&gt;AUEXF2481DRAFT_43499&lt;/b&gt;&lt;br&gt;hypothetical protein&lt;br&gt;Location: 289576 - 290477" locus_tag="AUEXF2481DRAFT_43499" class="clusterblast-orf" id="dummy-2_h2_7_13"  />
</g>
<g id="a2_0014"  >
<polygon points="254,85 257,80 257,90 254,85 " style="fill:white; stroke-width:1; stroke:black; " description="&lt;b&gt;AUEXF2481DRAFT_444805&lt;/b&gt;&lt;br&gt;hypothetical protein&lt;br&gt;Location: 290706 - 290999" locus_tag="AUEXF2481DRAFT_444805" class="clusterblast-orf" id="dummy-2_h2_7_14"  />
</g>
<g id="a2_0015"  >
<polygon points="278,85 283,80 365,80 365,90 283,90 278,85 " style="fill:#1551d8; stroke-width:1; stroke:black; " description="&lt;b&gt;AUEXF2481DRAFT_8064&lt;/b&gt;&lt;br&gt;hypothetical protein&lt;br&gt;Location: 292950 - 301000&lt;br&gt;&lt;br&gt;&lt;b&gt;BlastP hit with input.path1.gene538&lt;/b&gt;&lt;br&gt;Percentage identity: 41&lt;br&gt;Percentage coverage: 95&lt;br&gt;BLAST bit score: 1726&lt;br&gt;E-value: 0.0" locus_tag="AUEXF2481DRAFT_8064" class="clusterblast-orf" id="dummy-2_h2_7_15"  />
</g>
<g id="a2_0016"  >
<polygon points="376,90 459,90 464,85 459,80 376,80 376,90 " style="fill:#1551d8; stroke-width:1; stroke:black; " description="&lt;b&gt;AUEXF2481DRAFT_111588&lt;/b&gt;&lt;br&gt;hypothetical protein&lt;br&gt;Location: 302076 - 310224&lt;br&gt;&lt;br&gt;&lt;b&gt;BlastP hit with input.path1.gene539&lt;/b&gt;&lt;br&gt;Percentage identity: 37&lt;br&gt;Percentage coverage: 94&lt;br&gt;BLAST bit score: 1629&lt;br&gt;E-value: 0.0" locus_tag="AUEXF2481DRAFT_111588" class="clusterblast-orf" id="dummy-2_h2_7_16"  />
</g>
<g id="a2_0017"  >
<polygon points="503,90 521,90 526,85 521,80 503,80 503,90 " style="fill:white; stroke-width:1; stroke:black; " description="&lt;b&gt;AUEXF2481DRAFT_43507&lt;/b&gt;&lt;br&gt;hypothetical protein&lt;br&gt;Location: 313894 - 315984" locus_tag="AUEXF2481DRAFT_43507" class="clusterblast-orf" id="dummy-2_h2_7_17"  />
</g>
<g id="a2_0018"  >
<polygon points="532,90 547,90 552,85 547,80 532,80 532,90 " style="fill:white; stroke-width:1; stroke:black; " description="&lt;b&gt;AUEXF2481DRAFT_43508&lt;/b&gt;&lt;br&gt;hypothetical protein&lt;br&gt;Location: 316528 - 318426" locus_tag="AUEXF2481DRAFT_43508" class="clusterblast-orf" id="dummy-2_h2_7_18"  />
</g>
<g id="a2_0019"  >
<polygon points="556,85 561,80 572,80 572,90 561,90 556,85 " style="fill:white; stroke-width:1; stroke:black; " description="&lt;b&gt;AUEXF2481DRAFT_68998&lt;/b&gt;&lt;br&gt;hypothetical protein&lt;br&gt;Location: 318816 - 320249" locus_tag="AUEXF2481DRAFT_68998" class="clusterblast-orf" id="dummy-2_h2_7_19"  />
</g>
<g id="a2_0020"  >
<polygon points="576,90 579,90 584,85 579,80 576,80 576,90 " style="fill:white; stroke-width:1; stroke:black; " description="&lt;b&gt;AUEXF2481DRAFT_445004&lt;/b&gt;&lt;br&gt;hypothetical protein&lt;br&gt;Location: 320631 - 321422" locus_tag="AUEXF2481DRAFT_445004" class="clusterblast-orf" id="dummy-2_h2_7_20"  />
</g>
<g id="a2_0021"  >
<polygon points="586,85 591,80 602,80 602,90 591,90 586,85 " style="fill:white; stroke-width:1; stroke:black; " description="&lt;b&gt;AUEXF2481DRAFT_68995&lt;/b&gt;&lt;br&gt;hypothetical protein&lt;br&gt;Location: 321590 - 323026" locus_tag="AUEXF2481DRAFT_68995" class="clusterblast-orf" id="dummy-2_h2_7_21"  />
</g>
<g id="a2_0022"  >
<polygon points="607,90 615,90 620,85 615,80 607,80 607,90 " style="fill:white; stroke-width:1; stroke:black; " description="&lt;b&gt;AUEXF2481DRAFT_82685&lt;/b&gt;&lt;br&gt;hypothetical protein&lt;br&gt;Location: 323547 - 324737" locus_tag="AUEXF2481DRAFT_82685" class="clusterblast-orf" id="dummy-2_h2_7_22"  />
</g>
<g id="a2_0023"  >
<polygon points="622,85 627,80 642,80 642,90 627,90 622,85 " style="fill:white; stroke-width:1; stroke:black; " description="&lt;b&gt;AUEXF2481DRAFT_48101&lt;/b&gt;&lt;br&gt;hypothetical protein&lt;br&gt;Location: 324945 - 326768" locus_tag="AUEXF2481DRAFT_48101" class="clusterblast-orf" id="dummy-2_h2_7_23"  />
</g>
<g id="a2_0024"  >
<polygon points="649,85 654,80 668,80 668,90 654,90 649,85 " style="fill:white; stroke-width:1; stroke:black; " description="&lt;b&gt;AUEXF2481DRAFT_101129&lt;/b&gt;&lt;br&gt;hypothetical protein&lt;br&gt;Location: 327420 - 329217" locus_tag="AUEXF2481DRAFT_101129" class="clusterblast-orf" id="dummy-2_h2_7_24"  />
</g>
<g id="a2_0025"  >
<polygon points="673,90 684,90 689,85 684,80 673,80 673,90 " style="fill:white; stroke-width:1; stroke:black; " description="&lt;b&gt;AUEXF2481DRAFT_43513&lt;/b&gt;&lt;br&gt;hypothetical protein&lt;br&gt;Location: 329693 - 331136" locus_tag="AUEXF2481DRAFT_43513" class="clusterblast-orf" id="dummy-2_h2_7_25"  />
</g>
<g id="a2_0026"  >
<polygon points="696,85 701,80 708,80 708,90 701,90 696,85 " style="fill:white; stroke-width:1; stroke:black; " description="&lt;b&gt;AUEXF2481DRAFT_8073&lt;/b&gt;&lt;br&gt;hypothetical protein&lt;br&gt;Location: 331794 - 332882" locus_tag="AUEXF2481DRAFT_8073" class="clusterblast-orf" id="dummy-2_h2_7_26"  />
</g>
<g id="a2_0027"  >
<polygon points="715,85 720,80 726,80 726,90 720,90 715,85 " style="fill:white; stroke-width:1; stroke:black; " description="&lt;b&gt;AUEXF2481DRAFT_43515&lt;/b&gt;&lt;br&gt;hypothetical protein&lt;br&gt;Location: 333600 - 334601" locus_tag="AUEXF2481DRAFT_43515" class="clusterblast-orf" id="dummy-2_h2_7_27"  />
</g>
<g id="a2_0028"  >
<polygon points="732,90 740,90 745,85 740,80 732,80 732,90 " style="fill:white; stroke-width:1; stroke:black; " description="&lt;b&gt;AUEXF2481DRAFT_82691&lt;/b&gt;&lt;br&gt;hypothetical protein&lt;br&gt;Location: 335153 - 336331" locus_tag="AUEXF2481DRAFT_82691" class="clusterblast-orf" id="dummy-2_h2_7_28"  />
</g>
<g id="a2_0029"  >
<polygon points="752,85 757,80 764,80 764,90 757,90 752,85 " style="fill:white; stroke-width:1; stroke:black; " description="&lt;b&gt;AUEXF2481DRAFT_43516&lt;/b&gt;&lt;br&gt;hypothetical protein&lt;br&gt;Location: 336963 - 338138" locus_tag="AUEXF2481DRAFT_43516" class="clusterblast-orf" id="dummy-2_h2_7_29"  />
</g>
<g id="a2_0030"  >
<polygon points="768,85 773,80 780,80 780,90 773,90 768,85 " style="fill:white; stroke-width:1; stroke:black; " description="&lt;b&gt;AUEXF2481DRAFT_43517&lt;/b&gt;&lt;br&gt;hypothetical protein&lt;br&gt;Location: 338497 - 339563" locus_tag="AUEXF2481DRAFT_43517" class="clusterblast-orf" id="dummy-2_h2_7_30"  />
</g>
</svg>
