<svg xmlns="http://www.w3.org/2000/svg" xmlns:xlink="http://www.w3.org/1999/xlink" version="1.1" x="0" y="0" height="230" width="800" viewBox="0 0 800 230" preserveAspectRatio="none"  >
<g label="Query sequence" class="clusterblast-cluster"  >
<text x="5" y="20" class="clusterblast-acc"  >
Query sequence</text>
<line x1="10" y1="35" x2="778.0" y2="35" style="stroke-width:1; stroke:grey; "  />
<polygon points="93,40 186,40 191,35 186,30 93,30 93,40 " style="fill:#d81515; stroke-width:1; stroke:black; " description="&lt;b&gt;input.path1.gene1295&lt;/b&gt;&lt;br&gt;input.path1.gene1295&lt;br&gt;Location: 5072276 - 5075652" locus_tag="input.path1.gene1295" class="clusterblast-orf" id="dummy-3_q0_0_all"  />
<polygon points="191,35 196,30 276,30 276,40 196,40 191,35 " style="fill:#15d815; stroke-width:1; stroke:black; " description="&lt;b&gt;input.path1.gene1296&lt;/b&gt;&lt;br&gt;input.path1.gene1296&lt;br&gt;Location: 5075655 - 5078621" locus_tag="input.path1.gene1296" class="clusterblast-orf" id="dummy-3_q1_0_all"  />
<polygon points="364,35 369,30 403,30 403,40 369,40 364,35 " style="fill:#1515d8; stroke-width:1; stroke:black; " description="&lt;b&gt;input.path1.gene1297&lt;/b&gt;&lt;br&gt;input.path1.gene1297&lt;br&gt;Location: 5081660 - 5083023" locus_tag="input.path1.gene1297" class="clusterblast-orf" id="dummy-3_q2_0_all"  />
<polygon points="433,40 464,40 469,35 464,30 433,30 433,40 " style="fill:#d815d8; stroke-width:1; stroke:black; " description="&lt;b&gt;input.path1.gene1298&lt;/b&gt;&lt;br&gt;input.path1.gene1298&lt;br&gt;Location: 5084047 - 5085286" locus_tag="input.path1.gene1298" class="clusterblast-orf" id="dummy-3_q3_0_all"  />
<polygon points="596,40 610,40 615,35 610,30 596,30 596,40 " style="fill:#d8d815; stroke-width:1; stroke:black; " description="&lt;b&gt;input.path1.gene1299&lt;/b&gt;&lt;br&gt;input.path1.gene1299&lt;br&gt;Location: 5089705 - 5090355" locus_tag="input.path1.gene1299" class="clusterblast-orf" id="dummy-3_q4_0_all"  />
<polygon points="635,35 640,30 686,30 686,40 640,40 635,35 " style="fill:#15d8d8; stroke-width:1; stroke:black; " description="&lt;b&gt;input.path1.gene1300&lt;/b&gt;&lt;br&gt;input.path1.gene1300&lt;br&gt;Location: 5091063 - 5092831" locus_tag="input.path1.gene1300" class="clusterblast-orf" id="dummy-3_q5_0_all"  />
</g>
<g label="NW_006711153" description="NW_006711153 (162056-193558): Trichoderma reesei QM6a unplaced genomic scaffo... (77% of genes show similarity), terpene" class="clusterblast-cluster"  >
<text x="5" y="70" class="clusterblast-acc"  >
<a xlink:href="https://antismash-db.secondarymetabolites.org/area?record=NW_006711153&amp;start=162056&amp;end=193558" target="_blank">NW_006711153 (162056-193558)</a>: Trichoderma reesei QM6a unplaced genomic scaffo... (77% of genes show similarity), terpene</text>
<line x1="10" y1="85" x2="778.0" y2="85" style="stroke-width:1; stroke:grey; "  />
</g>
<g id="a3_000"  >
<polygon points="0,85 5,80 50,80 50,90 5,90 0,85 " style="fill:white; stroke-width:1; stroke:black; " description="&lt;b&gt;TRIREDRAFT_59352&lt;/b&gt;&lt;br&gt;uncharacterized protein&lt;br&gt;Location: 191919 - 190155" locus_tag="TRIREDRAFT_59352" class="clusterblast-orf" id="dummy-3_h3_1_0"  />
</g>
<g id="a3_001"  >
<polygon points="119,90 138,90 143,85 138,80 119,80 119,90 " style="fill:#d81515; stroke-width:1; stroke:black; " description="&lt;b&gt;TRIREDRAFT_59491&lt;/b&gt;&lt;br&gt;uncharacterized protein&lt;br&gt;Location: 187769 - 186938&lt;br&gt;&lt;br&gt;&lt;b&gt;BlastP hit with input.path1.gene1295&lt;/b&gt;&lt;br&gt;Percentage identity: 99&lt;br&gt;Percentage coverage: 55&lt;br&gt;BLAST bit score: 448&lt;br&gt;E-value: 7.05e-157" locus_tag="TRIREDRAFT_59491" class="clusterblast-orf" id="dummy-3_h3_1_1"  />
</g>
<g id="a3_002"  >
<polygon points="190,90 199,90 204,85 199,80 190,80 190,90 " style="fill:#d81515; stroke-width:1; stroke:black; " description="&lt;b&gt;TRIREDRAFT_105844&lt;/b&gt;&lt;br&gt;uncharacterized protein&lt;br&gt;Location: 185326 - 184816&lt;br&gt;&lt;br&gt;&lt;b&gt;BlastP hit with input.path1.gene1295&lt;/b&gt;&lt;br&gt;Percentage identity: 97&lt;br&gt;Percentage coverage: 27&lt;br&gt;BLAST bit score: 243&lt;br&gt;E-value: 3.42e-78" locus_tag="TRIREDRAFT_105844" class="clusterblast-orf" id="dummy-3_h3_1_2"  />
</g>
<g id="a3_003"  >
<polygon points="225,85 230,80 351,80 351,90 230,90 225,85 " style="fill:#15d815; stroke-width:1; stroke:black; " description="&lt;b&gt;TRIREDRAFT_105843&lt;/b&gt;&lt;br&gt;uncharacterized protein&lt;br&gt;Location: 184108 - 179750&lt;br&gt;&lt;br&gt;&lt;b&gt;BlastP hit with input.path1.gene1296&lt;/b&gt;&lt;br&gt;Percentage identity: 96&lt;br&gt;Percentage coverage: 76&lt;br&gt;BLAST bit score: 536&lt;br&gt;E-value: 1.35e-185" locus_tag="TRIREDRAFT_105843" class="clusterblast-orf" id="dummy-3_h3_1_3"  />
</g>
<g id="a3_004"  >
<polygon points="385,85 390,80 428,80 428,90 390,90 385,85 " style="fill:#1515d8; stroke-width:1; stroke:black; " description="&lt;b&gt;TRIREDRAFT_59597&lt;/b&gt;&lt;br&gt;uncharacterized protein&lt;br&gt;Location: 178558 - 177057&lt;br&gt;&lt;br&gt;&lt;b&gt;BlastP hit with input.path1.gene1297&lt;/b&gt;&lt;br&gt;Percentage identity: 76&lt;br&gt;Percentage coverage: 120&lt;br&gt;BLAST bit score: 460&lt;br&gt;E-value: 3.13e-163" locus_tag="TRIREDRAFT_59597" class="clusterblast-orf" id="dummy-3_h3_1_4"  />
</g>
<g id="a3_005"  >
<polygon points="477,90 511,90 516,85 511,80 477,80 477,90 " style="fill:#d815d8; stroke-width:1; stroke:black; " description="&lt;b&gt;TRIREDRAFT_59558&lt;/b&gt;&lt;br&gt;uncharacterized protein&lt;br&gt;Location: 175382 - 174021&lt;br&gt;&lt;br&gt;&lt;b&gt;BlastP hit with input.path1.gene1298&lt;/b&gt;&lt;br&gt;Percentage identity: 95&lt;br&gt;Percentage coverage: 35&lt;br&gt;BLAST bit score: 211&lt;br&gt;E-value: 3e-63" locus_tag="TRIREDRAFT_59558" class="clusterblast-orf" id="dummy-3_h3_1_5"  />
</g>
<g id="a3_006"  >
<polygon points="590,90 636,90 641,85 636,80 590,80 590,90 " style="fill:#d8d815; stroke-width:1; stroke:black; " description="&lt;b&gt;TRIREDRAFT_105840&lt;/b&gt;&lt;br&gt;uncharacterized protein&lt;br&gt;Location: 171459 - 169666&lt;br&gt;&lt;br&gt;&lt;b&gt;BlastP hit with input.path1.gene1299&lt;/b&gt;&lt;br&gt;Percentage identity: 86&lt;br&gt;Percentage coverage: 74&lt;br&gt;BLAST bit score: 158&lt;br&gt;E-value: 1e-43" locus_tag="TRIREDRAFT_105840" class="clusterblast-orf" id="dummy-3_h3_1_6"  />
</g>
<g id="a3_007"  >
<polygon points="650,85 655,80 694,80 694,90 655,90 650,85 " style="fill:#15d8d8; stroke-width:1; stroke:black; " description="&lt;b&gt;TRIREDRAFT_121136&lt;/b&gt;&lt;br&gt;uncharacterized protein&lt;br&gt;Location: 169386 - 167849&lt;br&gt;&lt;br&gt;&lt;b&gt;BlastP hit with input.path1.gene1300&lt;/b&gt;&lt;br&gt;Percentage identity: 99&lt;br&gt;Percentage coverage: 99&lt;br&gt;BLAST bit score: 721&lt;br&gt;E-value: 1.64e-263" locus_tag="TRIREDRAFT_121136" class="clusterblast-orf" id="dummy-3_h3_1_7"  />
</g>
<g id="a3_008"  >
<polygon points="733,85 738,80 780,80 780,90 738,90 733,85 " style="fill:white; stroke-width:1; stroke:black; " description="&lt;b&gt;TRIREDRAFT_105838&lt;/b&gt;&lt;br&gt;uncharacterized protein&lt;br&gt;Location: 166492 - 164882" locus_tag="TRIREDRAFT_105838" class="clusterblast-orf" id="dummy-3_h3_1_8"  />
</g>
</svg>
