<svg xmlns="http://www.w3.org/2000/svg" xmlns:xlink="http://www.w3.org/1999/xlink" version="1.1" x="0" y="0" height="230" width="800" viewBox="0 0 800 230" preserveAspectRatio="none"  >
<g label="Query sequence" class="clusterblast-cluster"  >
<text x="5" y="20" class="clusterblast-acc"  >
Query sequence</text>
<line x1="10" y1="35" x2="778.0" y2="35" style="stroke-width:1; stroke:grey; "  />
<polygon points="96,35 101,30 116,30 116,40 101,40 96,35 " style="fill:#d81515; stroke-width:1; stroke:black; " description="&lt;b&gt;input.path1.gene790&lt;/b&gt;&lt;br&gt;input.path1.gene790&lt;br&gt;Location: 3238132 - 3239558" locus_tag="input.path1.gene790" class="clusterblast-orf" id="dummy-6_q0_0_all"  />
<polygon points="136,40 156,40 161,35 156,30 136,30 136,40 " style="fill:#33d815; stroke-width:1; stroke:black; " description="&lt;b&gt;input.path1.gene791&lt;/b&gt;&lt;br&gt;input.path1.gene791&lt;br&gt;Location: 3241049 - 3242833" locus_tag="input.path1.gene791" class="clusterblast-orf" id="dummy-6_q1_0_all"  />
<polygon points="163,35 168,30 208,30 208,40 168,40 163,35 " style="fill:#15abd8; stroke-width:1; stroke:black; " description="&lt;b&gt;input.path1.gene792&lt;/b&gt;&lt;br&gt;input.path1.gene792&lt;br&gt;Location: 3242987 - 3246234" locus_tag="input.path1.gene792" class="clusterblast-orf" id="dummy-6_q2_0_all"  />
<polygon points="208,40 265,40 270,35 265,30 208,30 208,40 " style="fill:#8d15d8; stroke-width:1; stroke:black; " description="&lt;b&gt;input.path1.gene793&lt;/b&gt;&lt;br&gt;input.path1.gene793&lt;br&gt;Location: 3246282 - 3250793" locus_tag="input.path1.gene793" class="clusterblast-orf" id="dummy-6_q3_0_all"  />
<polygon points="298,40 304,40 309,35 304,30 298,30 298,40 " style="fill:#d86f15; stroke-width:1; stroke:black; " description="&lt;b&gt;input.path1.gene794&lt;/b&gt;&lt;br&gt;input.path1.gene794&lt;br&gt;Location: 3252857 - 3253665" locus_tag="input.path1.gene794" class="clusterblast-orf" id="dummy-6_q4_0_all"  />
<polygon points="311,35 316,30 341,30 341,40 316,40 311,35 " style="fill:#15d851; stroke-width:1; stroke:black; " description="&lt;b&gt;input.path1.gene795&lt;/b&gt;&lt;br&gt;input.path1.gene795&lt;br&gt;Location: 3253747 - 3255963" locus_tag="input.path1.gene795" class="clusterblast-orf" id="dummy-6_q5_0_all"  />
<polygon points="357,35 362,30 411,30 411,40 362,40 357,35 " style="fill:#1551d8; stroke-width:1; stroke:black; " description="&lt;b&gt;input.path1.gene796&lt;/b&gt;&lt;br&gt;input.path1.gene796&lt;br&gt;Location: 3257150 - 3261058" locus_tag="input.path1.gene796" class="clusterblast-orf" id="dummy-6_q6_0_all"  />
<polygon points="430,35 435,30 452,30 452,40 435,40 430,35 " style="fill:#d815c9; stroke-width:1; stroke:black; " description="&lt;b&gt;input.path1.gene797&lt;/b&gt;&lt;br&gt;input.path1.gene797&lt;br&gt;Location: 3262483 - 3264070" locus_tag="input.path1.gene797" class="clusterblast-orf" id="dummy-6_q7_0_all"  />
<polygon points="538,40 549,40 554,35 549,30 538,30 538,40 " style="fill:#d8c915; stroke-width:1; stroke:black; " description="&lt;b&gt;input.path1.gene798&lt;/b&gt;&lt;br&gt;input.path1.gene798&lt;br&gt;Location: 3270359 - 3271502" locus_tag="input.path1.gene798" class="clusterblast-orf" id="dummy-6_q8_0_all"  />
<polygon points="559,35 564,30 576,30 576,40 564,40 559,35 " style="fill:#15d8ab; stroke-width:1; stroke:black; " description="&lt;b&gt;input.path1.gene799&lt;/b&gt;&lt;br&gt;input.path1.gene799&lt;br&gt;Location: 3271840 - 3273129" locus_tag="input.path1.gene799" class="clusterblast-orf" id="dummy-6_q9_0_all"  />
<polygon points="598,35 603,30 622,30 622,40 603,40 598,35 " style="fill:#3315d8; stroke-width:1; stroke:black; " description="&lt;b&gt;input.path1.gene800&lt;/b&gt;&lt;br&gt;input.path1.gene800&lt;br&gt;Location: 3274706 - 3276455" locus_tag="input.path1.gene800" class="clusterblast-orf" id="dummy-6_q10_0_all"  />
<polygon points="639,40 667,40 672,35 667,30 639,30 639,40 " style="fill:#d8156f; stroke-width:1; stroke:black; " description="&lt;b&gt;input.path1.gene801&lt;/b&gt;&lt;br&gt;input.path1.gene801&lt;br&gt;Location: 3277719 - 3280117" locus_tag="input.path1.gene801" class="clusterblast-orf" id="dummy-6_q11_0_all"  />
<polygon points="678,40 678,40 683,35 678,30 678,30 678,40 " style="fill:#8dd815; stroke-width:1; stroke:black; " description="&lt;b&gt;input.path1.gene802&lt;/b&gt;&lt;br&gt;input.path1.gene802&lt;br&gt;Location: 3280531 - 3280892" locus_tag="input.path1.gene802" class="clusterblast-orf" id="dummy-6_q12_0_all"  />
</g>
<g label="NW_011942160" description="NW_011942160 (555242-619088): Metarhizium robertsii ARSEF 23 MAA Scf 2, whole... (40% of genes show similarity), NRPS-like" class="clusterblast-cluster"  >
<text x="5" y="70" class="clusterblast-acc"  >
<a xlink:href="https://antismash-db.secondarymetabolites.org/area?record=NW_011942160&amp;start=555242&amp;end=619088" target="_blank">NW_011942160 (555242-619088)</a>: Metarhizium robertsii ARSEF 23 MAA Scf 2, whole... (40% of genes show similarity), NRPS-like</text>
<line x1="10" y1="85" x2="778.0" y2="85" style="stroke-width:1; stroke:grey; "  />
</g>
<g id="a6_000"  >
<polygon points="0,90 12,90 17,85 12,80 0,80 0,90 " style="fill:white; stroke-width:1; stroke:black; " description="&lt;b&gt;MAA_07155&lt;/b&gt;&lt;br&gt;catalytic protein&lt;br&gt;Location: 612940 - 611685" locus_tag="MAA_07155" class="clusterblast-orf" id="dummy-6_h6_10_0"  />
</g>
<g id="a6_001"  >
<polygon points="43,90 46,90 51,85 46,80 43,80 43,90 " style="fill:white; stroke-width:1; stroke:black; " description="&lt;b&gt;MAA_07154&lt;/b&gt;&lt;br&gt;DUF1348-domain-containing protein&lt;br&gt;Location: 609749 - 609209" locus_tag="MAA_07154" class="clusterblast-orf" id="dummy-6_h6_10_1"  />
</g>
<g id="a6_002"  >
<polygon points="84,85 89,80 98,80 98,90 89,90 84,85 " style="fill:white; stroke-width:1; stroke:black; " description="&lt;b&gt;MAA_07153&lt;/b&gt;&lt;br&gt;hypothetical protein&lt;br&gt;Location: 606771 - 605767" locus_tag="MAA_07153" class="clusterblast-orf" id="dummy-6_h6_10_2"  />
</g>
<g id="a6_003"  >
<polygon points="135,85 140,80 148,80 148,90 140,90 135,85 " style="fill:white; stroke-width:1; stroke:black; " description="&lt;b&gt;MAA_07152&lt;/b&gt;&lt;br&gt;isoflavone reductase&lt;br&gt;Location: 603052 - 602132" locus_tag="MAA_07152" class="clusterblast-orf" id="dummy-6_h6_10_3"  />
</g>
<g id="a6_004"  >
<polygon points="159,85 164,80 178,80 178,90 164,90 159,85 " style="fill:#d81515; stroke-width:1; stroke:black; " description="&lt;b&gt;MAA_07151&lt;/b&gt;&lt;br&gt;Peptidase A1&lt;br&gt;Location: 601302 - 599904&lt;br&gt;&lt;br&gt;&lt;b&gt;BlastP hit with input.path1.gene790&lt;/b&gt;&lt;br&gt;Percentage identity: 49&lt;br&gt;Percentage coverage: 103&lt;br&gt;BLAST bit score: 388&lt;br&gt;E-value: 1.08e-130" locus_tag="MAA_07151" class="clusterblast-orf" id="dummy-6_h6_10_4"  />
</g>
<g id="a6_005"  >
<polygon points="198,90 216,90 221,85 216,80 198,80 198,90 " style="fill:#33d815; stroke-width:1; stroke:black; " description="&lt;b&gt;MAA_07150&lt;/b&gt;&lt;br&gt;serine/threonine-protein kinase RIO1&lt;br&gt;Location: 598499 - 596762&lt;br&gt;&lt;br&gt;&lt;b&gt;BlastP hit with input.path1.gene791&lt;/b&gt;&lt;br&gt;Percentage identity: 73&lt;br&gt;Percentage coverage: 99&lt;br&gt;BLAST bit score: 717&lt;br&gt;E-value: 6.09e-256" locus_tag="MAA_07150" class="clusterblast-orf" id="dummy-6_h6_10_5"  />
</g>
<g id="a6_006"  >
<polygon points="227,85 232,80 264,80 264,90 232,90 227,85 " style="fill:#15abd8; stroke-width:1; stroke:black; " description="&lt;b&gt;MAA_07149&lt;/b&gt;&lt;br&gt;Fungal specific transcription factor&lt;br&gt;Location: 596342 - 593680&lt;br&gt;&lt;br&gt;&lt;b&gt;BlastP hit with input.path1.gene792&lt;/b&gt;&lt;br&gt;Percentage identity: 66&lt;br&gt;Percentage coverage: 90&lt;br&gt;BLAST bit score: 927&lt;br&gt;E-value: 0.0" locus_tag="MAA_07149" class="clusterblast-orf" id="dummy-6_h6_10_6"  />
</g>
<g id="a6_007"  >
<polygon points="289,90 315,90 320,85 315,80 289,80 289,90 " style="fill:#8d15d8; stroke-width:1; stroke:black; " description="&lt;b&gt;MAA_10780&lt;/b&gt;&lt;br&gt;rna-dependent rna polymerase&lt;br&gt;Location: 591829 - 589535&lt;br&gt;&lt;br&gt;&lt;b&gt;BlastP hit with input.path1.gene793&lt;/b&gt;&lt;br&gt;Percentage identity: 48&lt;br&gt;Percentage coverage: 56&lt;br&gt;BLAST bit score: 627&lt;br&gt;E-value: 1.53e-207" locus_tag="MAA_10780" class="clusterblast-orf" id="dummy-6_h6_10_7"  />
</g>
<g id="a6_008"  >
<polygon points="327,85 332,80 379,80 379,90 332,90 327,85 " style="fill:#1551d8; stroke-width:1; stroke:black; " description="&lt;b&gt;MAA_07148&lt;/b&gt;&lt;br&gt;Acyl carrier protein-like protein&lt;br&gt;Location: 589088 - 585243&lt;br&gt;&lt;br&gt;&lt;b&gt;BlastP hit with input.path1.gene796&lt;/b&gt;&lt;br&gt;Percentage identity: 71&lt;br&gt;Percentage coverage: 105&lt;br&gt;BLAST bit score: 1785&lt;br&gt;E-value: 0.0" locus_tag="MAA_07148" class="clusterblast-orf" id="dummy-6_h6_10_8"  />
</g>
<g id="a6_009"  >
<polygon points="406,85 411,80 427,80 427,90 411,90 406,85 " style="fill:#d815c9; stroke-width:1; stroke:black; " description="&lt;b&gt;MAA_07147&lt;/b&gt;&lt;br&gt;amino acid transporter&lt;br&gt;Location: 583269 - 581737&lt;br&gt;&lt;br&gt;&lt;b&gt;BlastP hit with input.path1.gene797&lt;/b&gt;&lt;br&gt;Percentage identity: 71&lt;br&gt;Percentage coverage: 97&lt;br&gt;BLAST bit score: 731&lt;br&gt;E-value: 5.89e-263" locus_tag="MAA_07147" class="clusterblast-orf" id="dummy-6_h6_10_9"  />
</g>
<g id="a6_0010"  >
<polygon points="479,85 484,80 486,80 486,90 484,90 479,85 " style="fill:white; stroke-width:1; stroke:black; " description="&lt;b&gt;MAA_07146&lt;/b&gt;&lt;br&gt;hypothetical protein&lt;br&gt;Location: 577952 - 577467" locus_tag="MAA_07146" class="clusterblast-orf" id="dummy-6_h6_10_10"  />
</g>
<g id="a6_0011"  >
<polygon points="503,90 513,90 518,85 513,80 503,80 503,90 " style="fill:white; stroke-width:1; stroke:black; " description="&lt;b&gt;MAA_07145&lt;/b&gt;&lt;br&gt;hypothetical protein&lt;br&gt;Location: 576213 - 575104" locus_tag="MAA_07145" class="clusterblast-orf" id="dummy-6_h6_10_11"  />
</g>
<g id="a6_0012"  >
<polygon points="541,90 562,90 567,85 562,80 541,80 541,90 " style="fill:white; stroke-width:1; stroke:black; " description="&lt;b&gt;MAA_07144&lt;/b&gt;&lt;br&gt;Choline transporter-like protein&lt;br&gt;Location: 573431 - 571588" locus_tag="MAA_07144" class="clusterblast-orf" id="dummy-6_h6_10_12"  />
</g>
<g id="a6_0013"  >
<polygon points="699,90 711,90 716,85 711,80 699,80 699,90 " style="fill:white; stroke-width:1; stroke:black; " description="&lt;b&gt;MAA_07143&lt;/b&gt;&lt;br&gt;DUF946 domain-containing protein&lt;br&gt;Location: 561919 - 560714" locus_tag="MAA_07143" class="clusterblast-orf" id="dummy-6_h6_10_13"  />
</g>
<g id="a6_0014"  >
<polygon points="770,85 775,80 780,80 780,90 775,90 770,85 " style="fill:white; stroke-width:1; stroke:black; " description="&lt;b&gt;MAA_07142&lt;/b&gt;&lt;br&gt;acetyltransferase&lt;br&gt;Location: 556738 - 556063" locus_tag="MAA_07142" class="clusterblast-orf" id="dummy-6_h6_10_14"  />
</g>
</svg>
