<svg xmlns="http://www.w3.org/2000/svg" xmlns:xlink="http://www.w3.org/1999/xlink" version="1.1" x="0" y="0" height="230" width="800" viewBox="0 0 800 230" preserveAspectRatio="none"  >
<g label="Query sequence" class="clusterblast-cluster"  >
<text x="5" y="20" class="clusterblast-acc"  >
Query sequence</text>
<line x1="10" y1="35" x2="778.0" y2="35" style="stroke-width:1; stroke:grey; "  />
<polygon points="180,35 185,30 201,30 201,40 185,40 180,35 " style="fill:white; stroke-width:1; stroke:black; " description="&lt;b&gt;input.path1.gene1406&lt;/b&gt;&lt;br&gt;input.path1.gene1406&lt;br&gt;Location: 5130455 - 5131161" locus_tag="input.path1.gene1406" class="clusterblast-orf" id="dummy-8_q0_0_all"  />
<polygon points="249,40 411,40 416,35 411,30 249,30 249,40 " style="fill:#d81515; stroke-width:1; stroke:black; " description="&lt;b&gt;input.path1.gene1407&lt;/b&gt;&lt;br&gt;input.path1.gene1407&lt;br&gt;Location: 5132766 - 5138314" locus_tag="input.path1.gene1407" class="clusterblast-orf" id="dummy-8_q1_0_all"  />
<polygon points="454,40 537,40 542,35 537,30 454,30 454,40 " style="fill:#15d815; stroke-width:1; stroke:black; " description="&lt;b&gt;input.path1.gene1408&lt;/b&gt;&lt;br&gt;input.path1.gene1408&lt;br&gt;Location: 5139592 - 5142525" locus_tag="input.path1.gene1408" class="clusterblast-orf" id="dummy-8_q2_0_all"  />
<polygon points="552,35 557,30 600,30 600,40 557,40 552,35 " style="fill:#1515d8; stroke-width:1; stroke:black; " description="&lt;b&gt;input.path1.gene1409&lt;/b&gt;&lt;br&gt;input.path1.gene1409&lt;br&gt;Location: 5142860 - 5144431" locus_tag="input.path1.gene1409" class="clusterblast-orf" id="dummy-8_q3_0_all"  />
</g>
<g label="NC_054389" description="NC_054389 (6185406-6216735): Drechmeria coniospora strain ARSEF 6962 chromoso... (44% of genes show similarity), terpene" class="clusterblast-cluster"  >
<text x="5" y="70" class="clusterblast-acc"  >
<a xlink:href="https://antismash-db.secondarymetabolites.org/area?record=NC_054389&amp;start=6185406&amp;end=6216735" target="_blank">NC_054389 (6185406-6216735)</a>: Drechmeria coniospora strain ARSEF 6962 chromoso... (44% of genes show similarity), terpene</text>
<line x1="10" y1="85" x2="778.0" y2="85" style="stroke-width:1; stroke:grey; "  />
</g>
<g id="a8_000"  >
<polygon points="0,90 48,90 53,85 48,80 0,80 0,90 " style="fill:#d81515; stroke-width:1; stroke:black; " description="&lt;b&gt;DCS_01576&lt;/b&gt;&lt;br&gt;indoleamine 2,3-dioxygenase-like protein&lt;br&gt;Location: 6188891 - 6190685&lt;br&gt;&lt;br&gt;&lt;b&gt;BlastP hit with input.path1.gene1407&lt;/b&gt;&lt;br&gt;Percentage identity: 75&lt;br&gt;Percentage coverage: 43&lt;br&gt;BLAST bit score: 740&lt;br&gt;E-value: 3.94e-256" locus_tag="DCS_01576" class="clusterblast-orf" id="dummy-8_h8_2_0"  />
</g>
<g id="a8_001"  >
<polygon points="86,90 120,90 125,85 120,80 86,80 86,90 " style="fill:#d81515; stroke-width:1; stroke:black; " description="&lt;b&gt;DCS_01577&lt;/b&gt;&lt;br&gt;hypothetical protein&lt;br&gt;Location: 6191779 - 6193053&lt;br&gt;&lt;br&gt;&lt;b&gt;BlastP hit with input.path1.gene1407&lt;/b&gt;&lt;br&gt;Percentage identity: 46&lt;br&gt;Percentage coverage: 14&lt;br&gt;BLAST bit score: 141&lt;br&gt;E-value: 8.45e-34" locus_tag="DCS_01577" class="clusterblast-orf" id="dummy-8_h8_2_1"  />
</g>
<g id="a8_002"  >
<polygon points="135,85 140,80 165,80 165,90 140,90 135,85 " style="fill:white; stroke-width:1; stroke:black; " description="&lt;b&gt;DCS_01578&lt;/b&gt;&lt;br&gt;putative cell division control protein&lt;br&gt;Location: 6193396 - 6194394" locus_tag="DCS_01578" class="clusterblast-orf" id="dummy-8_h8_2_2"  />
</g>
<g id="a8_003"  >
<polygon points="231,85 236,80 262,80 262,90 236,90 231,85 " style="fill:white; stroke-width:1; stroke:black; " description="&lt;b&gt;DCS_01579&lt;/b&gt;&lt;br&gt;Mitogen-activated protein kinase HOG1&lt;br&gt;Location: 6196587 - 6197620" locus_tag="DCS_01579" class="clusterblast-orf" id="dummy-8_h8_2_3"  />
</g>
<g id="a8_004"  >
<polygon points="345,90 380,90 385,85 380,80 345,80 345,90 " style="fill:#15d815; stroke-width:1; stroke:black; " description="&lt;b&gt;DCS_01580&lt;/b&gt;&lt;br&gt;Geranylgeranyl pyrophosphate synthetase&lt;br&gt;Location: 6200407 - 6201735&lt;br&gt;&lt;br&gt;&lt;b&gt;BlastP hit with input.path1.gene1408&lt;/b&gt;&lt;br&gt;Percentage identity: 72&lt;br&gt;Percentage coverage: 67&lt;br&gt;BLAST bit score: 499&lt;br&gt;E-value: 5.49e-173" locus_tag="DCS_01580" class="clusterblast-orf" id="dummy-8_h8_2_4"  />
</g>
<g id="a8_005"  >
<polygon points="399,85 404,80 445,80 445,90 404,90 399,85 " style="fill:#1515d8; stroke-width:1; stroke:black; " description="&lt;b&gt;DCS_01581&lt;/b&gt;&lt;br&gt;hypothetical protein&lt;br&gt;Location: 6202196 - 6203736&lt;br&gt;&lt;br&gt;&lt;b&gt;BlastP hit with input.path1.gene1409&lt;/b&gt;&lt;br&gt;Percentage identity: 68&lt;br&gt;Percentage coverage: 94&lt;br&gt;BLAST bit score: 624&lt;br&gt;E-value: 7.22e-222" locus_tag="DCS_01581" class="clusterblast-orf" id="dummy-8_h8_2_5"  />
</g>
<g id="a8_006"  >
<polygon points="540,90 669,90 674,85 669,80 540,80 540,90 " style="fill:white; stroke-width:1; stroke:black; " description="&lt;b&gt;DCS_01582&lt;/b&gt;&lt;br&gt;hypothetical protein&lt;br&gt;Location: 6206893 - 6211361" locus_tag="DCS_01582" class="clusterblast-orf" id="dummy-8_h8_2_6"  />
</g>
<g id="a8_007"  >
<polygon points="690,85 695,80 709,80 709,90 695,90 690,85 " style="fill:white; stroke-width:1; stroke:black; " description="&lt;b&gt;DCS_01583&lt;/b&gt;&lt;br&gt;hypothetical protein&lt;br&gt;Location: 6211882 - 6212508" locus_tag="DCS_01583" class="clusterblast-orf" id="dummy-8_h8_2_7"  />
</g>
<g id="a8_008"  >
<polygon points="768,90 775,90 780,85 775,80 768,80 768,90 " style="fill:white; stroke-width:1; stroke:black; " description="&lt;b&gt;DCS_01584&lt;/b&gt;&lt;br&gt;hypothetical protein&lt;br&gt;Location: 6214483 - 6214860" locus_tag="DCS_01584" class="clusterblast-orf" id="dummy-8_h8_2_8"  />
</g>
</svg>
