<svg xmlns="http://www.w3.org/2000/svg" xmlns:xlink="http://www.w3.org/1999/xlink" version="1.1" x="0" y="0" height="230" width="800" viewBox="0 0 800 230" preserveAspectRatio="none"  >
<g label="Query sequence" class="clusterblast-cluster"  >
<text x="5" y="20" class="clusterblast-acc"  >
Query sequence</text>
<line x1="10" y1="35" x2="778.0" y2="35" style="stroke-width:1; stroke:grey; "  />
<polygon points="108,35 113,30 160,30 160,40 113,40 108,35 " style="fill:#d81515; stroke-width:1; stroke:black; " description="&lt;b&gt;input.path1.gene7&lt;/b&gt;&lt;br&gt;input.path1.gene7&lt;br&gt;Location: 28562 - 30245" locus_tag="input.path1.gene7" class="clusterblast-orf" id="dummy-1_q0_0_all"  />
<polygon points="174,40 222,40 227,35 222,30 174,30 174,40 " style="fill:#4dd815; stroke-width:1; stroke:black; " description="&lt;b&gt;input.path1.gene8&lt;/b&gt;&lt;br&gt;input.path1.gene8&lt;br&gt;Location: 30723 - 32425" locus_tag="input.path1.gene8" class="clusterblast-orf" id="dummy-1_q1_0_all"  />
<polygon points="290,40 306,40 311,35 306,30 290,30 290,40 " style="fill:#1585d8; stroke-width:1; stroke:black; " description="&lt;b&gt;input.path1.gene9&lt;/b&gt;&lt;br&gt;input.path1.gene9&lt;br&gt;Location: 34477 - 35152" locus_tag="input.path1.gene9" class="clusterblast-orf" id="dummy-1_q2_0_all"  />
<polygon points="330,35 335,30 384,30 384,40 335,40 330,35 " style="fill:#d815bc; stroke-width:1; stroke:black; " description="&lt;b&gt;input.path1.gene10&lt;/b&gt;&lt;br&gt;input.path1.gene10&lt;br&gt;Location: 35762 - 37502" locus_tag="input.path1.gene10" class="clusterblast-orf" id="dummy-1_q3_0_all"  />
<polygon points="426,35 431,30 464,30 464,40 431,40 426,35 " style="fill:#d8bc15; stroke-width:1; stroke:black; " description="&lt;b&gt;input.path1.gene11&lt;/b&gt;&lt;br&gt;input.path1.gene11&lt;br&gt;Location: 38866 - 40117" locus_tag="input.path1.gene11" class="clusterblast-orf" id="dummy-1_q4_0_all"  />
<polygon points="486,40 496,40 501,35 496,30 486,30 486,40 " style="fill:#15d885; stroke-width:1; stroke:black; " description="&lt;b&gt;input.path1.gene12&lt;/b&gt;&lt;br&gt;input.path1.gene12&lt;br&gt;Location: 40804 - 41308" locus_tag="input.path1.gene12" class="clusterblast-orf" id="dummy-1_q5_0_all"  />
<polygon points="518,40 543,40 548,35 543,30 518,30 518,40 " style="fill:#15d885; stroke-width:1; stroke:black; " description="&lt;b&gt;input.path1.gene13&lt;/b&gt;&lt;br&gt;input.path1.gene13&lt;br&gt;Location: 41864 - 42817" locus_tag="input.path1.gene13" class="clusterblast-orf" id="dummy-1_q6_0_all"  />
<polygon points="577,35 582,30 631,30 631,40 582,40 577,35 " style="fill:#4d15d8; stroke-width:1; stroke:black; " description="&lt;b&gt;input.path1.gene14&lt;/b&gt;&lt;br&gt;input.path1.gene14&lt;br&gt;Location: 43780 - 45516" locus_tag="input.path1.gene14" class="clusterblast-orf" id="dummy-1_q7_0_all"  />
<polygon points="661,35 666,30 672,30 672,40 666,40 661,35 " style="fill:white; stroke-width:1; stroke:black; " description="&lt;b&gt;input.path1.gene15&lt;/b&gt;&lt;br&gt;input.path1.gene15&lt;br&gt;Location: 46494 - 46842" locus_tag="input.path1.gene15" class="clusterblast-orf" id="dummy-1_q8_0_all"  />
</g>
<g label="NC_072353" description="NC_072353 (3025130-3056913): Talaromyces marneffei chromosome 6, complete seq... (30% of genes show similarity), terpene" class="clusterblast-cluster"  >
<text x="5" y="70" class="clusterblast-acc"  >
<a xlink:href="https://antismash-db.secondarymetabolites.org/area?record=NC_072353&amp;start=3025130&amp;end=3056913" target="_blank">NC_072353 (3025130-3056913)</a>: Talaromyces marneffei chromosome 6, complete seq... (30% of genes show similarity), terpene</text>
<line x1="10" y1="85" x2="778.0" y2="85" style="stroke-width:1; stroke:grey; "  />
</g>
<g id="a1_000"  >
<polygon points="0,90 35,90 40,85 35,80 0,80 0,90 " style="fill:white; stroke-width:1; stroke:black; " description="&lt;b&gt;EYB26_008591&lt;/b&gt;&lt;br&gt;uncharacterized protein&lt;br&gt;Location: 3030242 - 3031549" locus_tag="EYB26_008591" class="clusterblast-orf" id="dummy-1_h1_5_0"  />
</g>
<g id="a1_001"  >
<polygon points="64,90 106,90 111,85 106,80 64,80 64,90 " style="fill:white; stroke-width:1; stroke:black; " description="&lt;b&gt;EYB26_008592&lt;/b&gt;&lt;br&gt;uncharacterized protein&lt;br&gt;Location: 3032340 - 3033856" locus_tag="EYB26_008592" class="clusterblast-orf" id="dummy-1_h1_5_1"  />
</g>
<g id="a1_002"  >
<polygon points="127,85 132,80 165,80 165,90 132,90 127,85 " style="fill:#d8bc15; stroke-width:1; stroke:black; " description="&lt;b&gt;EYB26_008593&lt;/b&gt;&lt;br&gt;uncharacterized protein&lt;br&gt;Location: 3034379 - 3035608&lt;br&gt;&lt;br&gt;&lt;b&gt;BlastP hit with input.path1.gene11&lt;/b&gt;&lt;br&gt;Percentage identity: 51&lt;br&gt;Percentage coverage: 104&lt;br&gt;BLAST bit score: 397&lt;br&gt;E-value: 4.03e-135" locus_tag="EYB26_008593" class="clusterblast-orf" id="dummy-1_h1_5_2"  />
</g>
<g id="a1_003"  >
<polygon points="194,90 247,90 252,85 247,80 194,80 194,90 " style="fill:#15d885; stroke-width:1; stroke:black; " description="&lt;b&gt;EYB26_008594&lt;/b&gt;&lt;br&gt;uncharacterized protein&lt;br&gt;Location: 3036545 - 3038411&lt;br&gt;&lt;br&gt;&lt;b&gt;BlastP hit with input.path1.gene13&lt;/b&gt;&lt;br&gt;Percentage identity: 49&lt;br&gt;Percentage coverage: 136&lt;br&gt;BLAST bit score: 278&lt;br&gt;E-value: 1.2e-89" locus_tag="EYB26_008594" class="clusterblast-orf" id="dummy-1_h1_5_3"  />
</g>
<g id="a1_004"  >
<polygon points="305,90 355,90 360,85 355,80 305,80 305,90 " style="fill:#d815bc; stroke-width:1; stroke:black; " description="&lt;b&gt;EYB26_008595&lt;/b&gt;&lt;br&gt;uncharacterized protein&lt;br&gt;Location: 3040131 - 3041913&lt;br&gt;&lt;br&gt;&lt;b&gt;BlastP hit with input.path1.gene10&lt;/b&gt;&lt;br&gt;Percentage identity: 61&lt;br&gt;Percentage coverage: 89&lt;br&gt;BLAST bit score: 436&lt;br&gt;E-value: 9.32e-151" locus_tag="EYB26_008595" class="clusterblast-orf" id="dummy-1_h1_5_4"  />
</g>
<g id="a1_005"  >
<polygon points="373,90 428,90 433,85 428,80 373,80 373,90 " style="fill:white; stroke-width:1; stroke:black; " description="&lt;b&gt;EYB26_008596&lt;/b&gt;&lt;br&gt;uncharacterized protein&lt;br&gt;Location: 3042348 - 3044285" locus_tag="EYB26_008596" class="clusterblast-orf" id="dummy-1_h1_5_5"  />
</g>
<g id="a1_006"  >
<polygon points="442,85 447,80 495,80 495,90 447,90 442,85 " style="fill:white; stroke-width:1; stroke:black; " description="&lt;b&gt;EYB26_008597&lt;/b&gt;&lt;br&gt;uncharacterized protein&lt;br&gt;Location: 3044562 - 3046307" locus_tag="EYB26_008597" class="clusterblast-orf" id="dummy-1_h1_5_6"  />
</g>
<g id="a1_007"  >
<polygon points="545,85 550,80 613,80 613,90 550,90 545,85 " style="fill:white; stroke-width:1; stroke:black; " description="&lt;b&gt;EYB26_008598&lt;/b&gt;&lt;br&gt;uncharacterized protein&lt;br&gt;Location: 3047901 - 3050119" locus_tag="EYB26_008598" class="clusterblast-orf" id="dummy-1_h1_5_7"  />
</g>
<g id="a1_008"  >
<polygon points="670,90 715,90 720,85 715,80 670,80 670,90 " style="fill:white; stroke-width:1; stroke:black; " description="&lt;b&gt;EYB26_008599&lt;/b&gt;&lt;br&gt;uncharacterized protein&lt;br&gt;Location: 3051973 - 3053566" locus_tag="EYB26_008599" class="clusterblast-orf" id="dummy-1_h1_5_8"  />
</g>
<g id="a1_009"  >
<polygon points="736,90 775,90 780,85 775,80 736,80 736,90 " style="fill:white; stroke-width:1; stroke:black; " description="&lt;b&gt;EYB26_008600&lt;/b&gt;&lt;br&gt;uncharacterized protein&lt;br&gt;Location: 3054107 - 3055507" locus_tag="EYB26_008600" class="clusterblast-orf" id="dummy-1_h1_5_9"  />
</g>
</svg>
