<svg xmlns="http://www.w3.org/2000/svg" xmlns:xlink="http://www.w3.org/1999/xlink" version="1.1" x="0" y="0" height="230" width="800" viewBox="0 0 800 230" preserveAspectRatio="none"  >
<g label="Query sequence" class="clusterblast-cluster"  >
<text x="5" y="20" class="clusterblast-acc"  >
Query sequence</text>
<line x1="10" y1="35" x2="778.0" y2="35" style="stroke-width:1; stroke:grey; "  />
<polygon points="132,40 144,40 149,35 144,30 132,30 132,40 " style="fill:#d81515; stroke-width:1; stroke:black; " description="&lt;b&gt;input.path1.gene15&lt;/b&gt;&lt;br&gt;input.path1.gene15&lt;br&gt;Location: 92529 - 93989" locus_tag="input.path1.gene15" class="clusterblast-orf" id="dummy-1_q0_0_all"  />
<polygon points="151,35 156,30 161,30 161,40 156,40 151,35 " style="fill:#5cd815; stroke-width:1; stroke:black; " description="&lt;b&gt;input.path1.gene16&lt;/b&gt;&lt;br&gt;input.path1.gene16&lt;br&gt;Location: 94102 - 94958" locus_tag="input.path1.gene16" class="clusterblast-orf" id="dummy-1_q1_0_all"  />
<polygon points="171,35 176,30 185,30 185,40 176,40 171,35 " style="fill:#15a3d8; stroke-width:1; stroke:black; " description="&lt;b&gt;input.path1.gene17&lt;/b&gt;&lt;br&gt;input.path1.gene17&lt;br&gt;Location: 95815 - 96985" locus_tag="input.path1.gene17" class="clusterblast-orf" id="dummy-1_q2_0_all"  />
<polygon points="196,35 201,30 210,30 210,40 201,40 196,35 " style="fill:#c715d8; stroke-width:1; stroke:black; " description="&lt;b&gt;input.path1.gene18&lt;/b&gt;&lt;br&gt;input.path1.gene18&lt;br&gt;Location: 97890 - 99073" locus_tag="input.path1.gene18" class="clusterblast-orf" id="dummy-1_q3_0_all"  />
<polygon points="215,40 222,40 227,35 222,30 215,30 215,40 " style="fill:#d88015; stroke-width:1; stroke:black; " description="&lt;b&gt;input.path1.gene19&lt;/b&gt;&lt;br&gt;input.path1.gene19&lt;br&gt;Location: 99553 - 100534" locus_tag="input.path1.gene19" class="clusterblast-orf" id="dummy-1_q4_0_all"  />
<polygon points="240,40 240,40 245,35 240,30 240,30 240,40 " style="fill:white; stroke-width:1; stroke:black; " description="&lt;b&gt;input.path1.gene20&lt;/b&gt;&lt;br&gt;input.path1.gene20&lt;br&gt;Location: 101596 - 102084" locus_tag="input.path1.gene20" class="clusterblast-orf" id="dummy-1_q5_0_all"  />
<polygon points="258,40 261,40 266,35 261,30 258,30 258,40 " style="fill:white; stroke-width:1; stroke:black; " description="&lt;b&gt;input.path1.gene21&lt;/b&gt;&lt;br&gt;input.path1.gene21&lt;br&gt;Location: 103144 - 103810" locus_tag="input.path1.gene21" class="clusterblast-orf" id="dummy-1_q6_0_all"  />
<polygon points="296,35 301,30 320,30 320,40 301,40 296,35 " style="fill:#15d839; stroke-width:1; stroke:black; " description="&lt;b&gt;input.path1.gene22&lt;/b&gt;&lt;br&gt;input.path1.gene22&lt;br&gt;Location: 106324 - 108373" locus_tag="input.path1.gene22" class="clusterblast-orf" id="dummy-1_q7_0_all"  />
<polygon points="334,40 441,40 446,35 441,30 334,30 334,40 " style="fill:#1539d8; stroke-width:1; stroke:black; " description="&lt;b&gt;input.path1.gene23&lt;/b&gt;&lt;br&gt;input.path1.gene23&lt;br&gt;Location: 109501 - 118936" locus_tag="input.path1.gene23" class="clusterblast-orf" id="dummy-1_q8_0_all"  />
<polygon points="468,40 477,40 482,35 477,30 468,30 468,40 " style="fill:#d81580; stroke-width:1; stroke:black; " description="&lt;b&gt;input.path1.gene24&lt;/b&gt;&lt;br&gt;input.path1.gene24&lt;br&gt;Location: 120856 - 122002" locus_tag="input.path1.gene24" class="clusterblast-orf" id="dummy-1_q9_0_all"  />
<polygon points="485,35 490,30 511,30 511,40 490,40 485,35 " style="fill:#c7d815; stroke-width:1; stroke:black; " description="&lt;b&gt;input.path1.gene25&lt;/b&gt;&lt;br&gt;input.path1.gene25&lt;br&gt;Location: 122211 - 124402" locus_tag="input.path1.gene25" class="clusterblast-orf" id="dummy-1_q10_0_all"  />
<polygon points="523,35 524,30 524,40 523,35 " style="fill:white; stroke-width:1; stroke:black; " description="&lt;b&gt;input.path1.gene26&lt;/b&gt;&lt;br&gt;input.path1.gene26&lt;br&gt;Location: 125438 - 125543" locus_tag="input.path1.gene26" class="clusterblast-orf" id="dummy-1_q11_0_all"  />
<polygon points="555,40 564,40 569,35 564,30 555,30 555,40 " style="fill:#15d8a3; stroke-width:1; stroke:black; " description="&lt;b&gt;input.path1.gene27&lt;/b&gt;&lt;br&gt;input.path1.gene27&lt;br&gt;Location: 128155 - 129360" locus_tag="input.path1.gene27" class="clusterblast-orf" id="dummy-1_q12_0_all"  />
<polygon points="580,40 602,40 607,35 602,30 580,30 580,40 " style="fill:#5c15d8; stroke-width:1; stroke:black; " description="&lt;b&gt;input.path1.gene28&lt;/b&gt;&lt;br&gt;input.path1.gene28&lt;br&gt;Location: 130225 - 132482" locus_tag="input.path1.gene28" class="clusterblast-orf" id="dummy-1_q13_0_all"  />
<polygon points="632,40 642,40 647,35 642,30 632,30 632,40 " style="fill:#d81580; stroke-width:1; stroke:black; " description="&lt;b&gt;input.path1.gene29&lt;/b&gt;&lt;br&gt;input.path1.gene29&lt;br&gt;Location: 134605 - 135915" locus_tag="input.path1.gene29" class="clusterblast-orf" id="dummy-1_q14_0_all"  />
</g>
<g label="NW_006711162" description="NW_006711162 (46105-114410): Trichoderma reesei QM6a unplaced genomic scaffol... (52% of genes show similarity), T1PKS" class="clusterblast-cluster"  >
<text x="5" y="70" class="clusterblast-acc"  >
<a xlink:href="https://antismash-db.secondarymetabolites.org/area?record=NW_006711162&amp;start=46105&amp;end=114410" target="_blank">NW_006711162 (46105-114410)</a>: Trichoderma reesei QM6a unplaced genomic scaffol... (52% of genes show similarity), T1PKS</text>
<line x1="10" y1="85" x2="778.0" y2="85" style="stroke-width:1; stroke:grey; "  />
</g>
<g id="a1_000"  >
<polygon points="0,85 5,80 20,80 20,90 5,90 0,85 " style="fill:white; stroke-width:1; stroke:black; " description="&lt;b&gt;TRIREDRAFT_65142&lt;/b&gt;&lt;br&gt;uncharacterized protein&lt;br&gt;Location: 47630 - 49314" locus_tag="TRIREDRAFT_65142" class="clusterblast-orf" id="dummy-1_h1_1_0"  />
</g>
<g id="a1_001"  >
<polygon points="26,85 31,80 50,80 50,90 31,90 26,85 " style="fill:white; stroke-width:1; stroke:black; " description="&lt;b&gt;TRIREDRAFT_64971&lt;/b&gt;&lt;br&gt;amino acid transporter&lt;br&gt;Location: 49852 - 51907" locus_tag="TRIREDRAFT_64971" class="clusterblast-orf" id="dummy-1_h1_1_1"  />
</g>
<g id="a1_002"  >
<polygon points="63,85 68,80 90,80 90,90 68,90 63,85 " style="fill:white; stroke-width:1; stroke:black; " description="&lt;b&gt;TRIREDRAFT_71823&lt;/b&gt;&lt;br&gt;fungal specific transcription factor domain-containing protein&lt;br&gt;Location: 52992 - 55245" locus_tag="TRIREDRAFT_71823" class="clusterblast-orf" id="dummy-1_h1_1_2"  />
</g>
<g id="a1_003"  >
<polygon points="108,90 118,90 123,85 118,80 108,80 108,90 " style="fill:white; stroke-width:1; stroke:black; " description="&lt;b&gt;TRIREDRAFT_65067&lt;/b&gt;&lt;br&gt;uncharacterized protein&lt;br&gt;Location: 56788 - 58016" locus_tag="TRIREDRAFT_65067" class="clusterblast-orf" id="dummy-1_h1_1_3"  />
</g>
<g id="a1_004"  >
<polygon points="136,90 142,90 147,85 142,80 136,80 136,90 " style="fill:#d81515; stroke-width:1; stroke:black; " description="&lt;b&gt;TRIREDRAFT_65097&lt;/b&gt;&lt;br&gt;uncharacterized protein&lt;br&gt;Location: 59125 - 60081&lt;br&gt;&lt;br&gt;&lt;b&gt;BlastP hit with input.path1.gene15&lt;/b&gt;&lt;br&gt;Percentage identity: 100&lt;br&gt;Percentage coverage: 66&lt;br&gt;BLAST bit score: 453&lt;br&gt;E-value: 3.67e-159" locus_tag="TRIREDRAFT_65097" class="clusterblast-orf" id="dummy-1_h1_1_4"  />
</g>
<g id="a1_005"  >
<polygon points="155,85 160,80 170,80 170,90 160,90 155,85 " style="fill:#5cd815; stroke-width:1; stroke:black; " description="&lt;b&gt;TRIREDRAFT_79725&lt;/b&gt;&lt;br&gt;uncharacterized protein&lt;br&gt;Location: 60755 - 61994&lt;br&gt;&lt;br&gt;&lt;b&gt;BlastP hit with input.path1.gene16&lt;/b&gt;&lt;br&gt;Percentage identity: 70&lt;br&gt;Percentage coverage: 135&lt;br&gt;BLAST bit score: 322&lt;br&gt;E-value: 6.56e-109" locus_tag="TRIREDRAFT_79725" class="clusterblast-orf" id="dummy-1_h1_1_5"  />
</g>
<g id="a1_006"  >
<polygon points="175,85 180,80 189,80 189,90 180,90 175,85 " style="fill:#15a3d8; stroke-width:1; stroke:black; " description="&lt;b&gt;TRIREDRAFT_65041&lt;/b&gt;&lt;br&gt;uncharacterized protein&lt;br&gt;Location: 62411 - 63580&lt;br&gt;&lt;br&gt;&lt;b&gt;BlastP hit with input.path1.gene17&lt;/b&gt;&lt;br&gt;Percentage identity: 100&lt;br&gt;Percentage coverage: 100&lt;br&gt;BLAST bit score: 795&lt;br&gt;E-value: 1.95e-292" locus_tag="TRIREDRAFT_65041" class="clusterblast-orf" id="dummy-1_h1_1_6"  />
</g>
<g id="a1_007"  >
<polygon points="200,85 205,80 214,80 214,90 205,90 200,85 " style="fill:#c715d8; stroke-width:1; stroke:black; " description="&lt;b&gt;TRIREDRAFT_64956&lt;/b&gt;&lt;br&gt;uncharacterized protein&lt;br&gt;Location: 64486 - 65668&lt;br&gt;&lt;br&gt;&lt;b&gt;BlastP hit with input.path1.gene18&lt;/b&gt;&lt;br&gt;Percentage identity: 99&lt;br&gt;Percentage coverage: 100&lt;br&gt;BLAST bit score: 636&lt;br&gt;E-value: 1.02e-231" locus_tag="TRIREDRAFT_64956" class="clusterblast-orf" id="dummy-1_h1_1_7"  />
</g>
<g id="a1_008"  >
<polygon points="219,90 239,90 244,85 239,80 219,80 219,90 " style="fill:#d88015; stroke-width:1; stroke:black; " description="&lt;b&gt;TRIREDRAFT_109219&lt;/b&gt;&lt;br&gt;uncharacterized protein&lt;br&gt;Location: 66149 - 68189&lt;br&gt;&lt;br&gt;&lt;b&gt;BlastP hit with input.path1.gene19&lt;/b&gt;&lt;br&gt;Percentage identity: 78&lt;br&gt;Percentage coverage: 59&lt;br&gt;BLAST bit score: 75&lt;br&gt;E-value: 2.93e-15" locus_tag="TRIREDRAFT_109219" class="clusterblast-orf" id="dummy-1_h1_1_8"  />
</g>
<g id="a1_009"  >
<polygon points="247,85 252,80 268,80 268,90 252,90 247,85 " style="fill:white; stroke-width:1; stroke:black; " description="&lt;b&gt;TRIREDRAFT_65036&lt;/b&gt;&lt;br&gt;uncharacterized protein&lt;br&gt;Location: 68498 - 70244" locus_tag="TRIREDRAFT_65036" class="clusterblast-orf" id="dummy-1_h1_1_9"  />
</g>
<g id="a1_0010"  >
<polygon points="275,90 281,90 286,85 281,80 275,80 275,90 " style="fill:white; stroke-width:1; stroke:black; " description="&lt;b&gt;TRIREDRAFT_109221&lt;/b&gt;&lt;br&gt;uncharacterized protein&lt;br&gt;Location: 70809 - 71776" locus_tag="TRIREDRAFT_109221" class="clusterblast-orf" id="dummy-1_h1_1_10"  />
</g>
<g id="a1_0011"  >
<polygon points="288,85 293,80 323,80 323,90 293,90 288,85 " style="fill:#15d839; stroke-width:1; stroke:black; " description="&lt;b&gt;TRIREDRAFT_25224&lt;/b&gt;&lt;br&gt;glycoside hydrolase family 65&lt;br&gt;Location: 71889 - 74905&lt;br&gt;&lt;br&gt;&lt;b&gt;BlastP hit with input.path1.gene22&lt;/b&gt;&lt;br&gt;Percentage identity: 85&lt;br&gt;Percentage coverage: 108&lt;br&gt;BLAST bit score: 1016&lt;br&gt;E-value: 0.0" locus_tag="TRIREDRAFT_25224" class="clusterblast-orf" id="dummy-1_h1_1_11"  />
</g>
<g id="a1_0012"  >
<polygon points="338,90 431,90 436,85 431,80 338,80 338,90 " style="fill:#1539d8; stroke-width:1; stroke:black; " description="&lt;b&gt;TRIREDRAFT_65172&lt;/b&gt;&lt;br&gt;polyketide synthase&lt;br&gt;Location: 76106 - 84410&lt;br&gt;&lt;br&gt;&lt;b&gt;BlastP hit with input.path1.gene23&lt;/b&gt;&lt;br&gt;Percentage identity: 90&lt;br&gt;Percentage coverage: 102&lt;br&gt;BLAST bit score: 4494&lt;br&gt;E-value: 0.0" locus_tag="TRIREDRAFT_65172" class="clusterblast-orf" id="dummy-1_h1_1_12"  />
</g>
<g id="a1_0013"  >
<polygon points="440,85 445,80 450,80 450,90 445,90 440,85 " style="fill:white; stroke-width:1; stroke:black; " description="&lt;b&gt;TRIREDRAFT_79726&lt;/b&gt;&lt;br&gt;uncharacterized protein&lt;br&gt;Location: 84689 - 85537" locus_tag="TRIREDRAFT_79726" class="clusterblast-orf" id="dummy-1_h1_1_13"  />
</g>
<g id="a1_0014"  >
<polygon points="473,90 481,90 486,85 481,80 473,80 473,90 " style="fill:#d81580; stroke-width:1; stroke:black; " description="&lt;b&gt;TRIREDRAFT_64996&lt;/b&gt;&lt;br&gt;Carbon/nitrogen hydrolase-like protein&lt;br&gt;Location: 87457 - 88602&lt;br&gt;&lt;br&gt;&lt;b&gt;BlastP hit with input.path1.gene24&lt;/b&gt;&lt;br&gt;Percentage identity: 92&lt;br&gt;Percentage coverage: 108&lt;br&gt;BLAST bit score: 602&lt;br&gt;E-value: 1.54e-218&lt;br&gt;&lt;br&gt;&lt;b&gt;BlastP hit with input.path1.gene29&lt;/b&gt;&lt;br&gt;Percentage identity: 37&lt;br&gt;Percentage coverage: 90&lt;br&gt;BLAST bit score: 213&lt;br&gt;E-value: 1.62e-64" locus_tag="TRIREDRAFT_64996" class="clusterblast-orf" id="dummy-1_h1_1_14"  />
</g>
<g id="a1_0015"  >
<polygon points="487,85 492,80 508,80 508,90 492,90 487,85 " style="fill:#c7d815; stroke-width:1; stroke:black; " description="&lt;b&gt;TRIREDRAFT_122783&lt;/b&gt;&lt;br&gt;N-terminal fungal transcription regulatory domain-containing protein&lt;br&gt;Location: 88691 - 90423&lt;br&gt;&lt;br&gt;&lt;b&gt;BlastP hit with input.path1.gene25&lt;/b&gt;&lt;br&gt;Percentage identity: 82&lt;br&gt;Percentage coverage: 109&lt;br&gt;BLAST bit score: 429&lt;br&gt;E-value: 6.37e-149" locus_tag="TRIREDRAFT_122783" class="clusterblast-orf" id="dummy-1_h1_1_15"  />
</g>
<g id="a1_0016"  >
<polygon points="559,90 568,90 573,85 568,80 559,80 559,90 " style="fill:#15d8a3; stroke-width:1; stroke:black; " description="&lt;b&gt;TRIREDRAFT_65039&lt;/b&gt;&lt;br&gt;uncharacterized protein&lt;br&gt;Location: 94737 - 95939&lt;br&gt;&lt;br&gt;&lt;b&gt;BlastP hit with input.path1.gene27&lt;/b&gt;&lt;br&gt;Percentage identity: 100&lt;br&gt;Percentage coverage: 100&lt;br&gt;BLAST bit score: 707&lt;br&gt;E-value: 5.27e-258" locus_tag="TRIREDRAFT_65039" class="clusterblast-orf" id="dummy-1_h1_1_16"  />
</g>
<g id="a1_0017"  >
<polygon points="589,90 604,90 609,85 604,80 589,80 589,90 " style="fill:#5c15d8; stroke-width:1; stroke:black; " description="&lt;b&gt;TRIREDRAFT_65070&lt;/b&gt;&lt;br&gt;uncharacterized protein&lt;br&gt;Location: 97256 - 98976&lt;br&gt;&lt;br&gt;&lt;b&gt;BlastP hit with input.path1.gene28&lt;/b&gt;&lt;br&gt;Percentage identity: 53&lt;br&gt;Percentage coverage: 107&lt;br&gt;BLAST bit score: 447&lt;br&gt;E-value: 4.93e-152" locus_tag="TRIREDRAFT_65070" class="clusterblast-orf" id="dummy-1_h1_1_17"  />
</g>
<g id="a1_0018"  >
<polygon points="636,90 646,90 651,85 646,80 636,80 636,90 " style="fill:#d81580; stroke-width:1; stroke:black; " description="&lt;b&gt;TRIREDRAFT_65190&lt;/b&gt;&lt;br&gt;Carbon/nitrogen hydrolase-like protein&lt;br&gt;Location: 101185 - 102494&lt;br&gt;&lt;br&gt;&lt;b&gt;BlastP hit with input.path1.gene24&lt;/b&gt;&lt;br&gt;Percentage identity: 34&lt;br&gt;Percentage coverage: 107&lt;br&gt;BLAST bit score: 185&lt;br&gt;E-value: 5.78e-54&lt;br&gt;&lt;br&gt;&lt;b&gt;BlastP hit with input.path1.gene29&lt;/b&gt;&lt;br&gt;Percentage identity: 98&lt;br&gt;Percentage coverage: 101&lt;br&gt;BLAST bit score: 712&lt;br&gt;E-value: 7.23e-261" locus_tag="TRIREDRAFT_65190" class="clusterblast-orf" id="dummy-1_h1_1_18"  />
</g>
<g id="a1_0019"  >
<polygon points="657,90 689,90 694,85 689,80 657,80 657,90 " style="fill:white; stroke-width:1; stroke:black; " description="&lt;b&gt;TRIREDRAFT_109230&lt;/b&gt;&lt;br&gt;uncharacterized protein&lt;br&gt;Location: 102959 - 106110" locus_tag="TRIREDRAFT_109230" class="clusterblast-orf" id="dummy-1_h1_1_19"  />
</g>
<g id="a1_0020"  >
<polygon points="707,90 708,90 713,85 708,80 707,80 707,90 " style="fill:white; stroke-width:1; stroke:black; " description="&lt;b&gt;TRIREDRAFT_109231&lt;/b&gt;&lt;br&gt;uncharacterized protein&lt;br&gt;Location: 107212 - 107673" locus_tag="TRIREDRAFT_109231" class="clusterblast-orf" id="dummy-1_h1_1_20"  />
</g>
<g id="a1_0021"  >
<polygon points="735,90 752,90 757,85 752,80 735,80 735,90 " style="fill:white; stroke-width:1; stroke:black; " description="&lt;b&gt;TRIREDRAFT_26871&lt;/b&gt;&lt;br&gt;uncharacterized protein&lt;br&gt;Location: 109520 - 111436" locus_tag="TRIREDRAFT_26871" class="clusterblast-orf" id="dummy-1_h1_1_21"  />
</g>
<g id="a1_0022"  >
<polygon points="762,85 767,80 780,80 780,90 767,90 762,85 " style="fill:white; stroke-width:1; stroke:black; " description="&lt;b&gt;TRIREDRAFT_64920&lt;/b&gt;&lt;br&gt;uncharacterized protein&lt;br&gt;Location: 111862 - 113297" locus_tag="TRIREDRAFT_64920" class="clusterblast-orf" id="dummy-1_h1_1_22"  />
</g>
</svg>
