<svg xmlns="http://www.w3.org/2000/svg" xmlns:xlink="http://www.w3.org/1999/xlink" version="1.1" x="0" y="0" height="230" width="800" viewBox="0 0 800 230" preserveAspectRatio="none"  >
<g label="Query sequence" class="clusterblast-cluster"  >
<text x="5" y="20" class="clusterblast-acc"  >
Query sequence</text>
<line x1="10" y1="35" x2="778.0" y2="35" style="stroke-width:1; stroke:grey; "  />
<polygon points="87,35 92,30 138,30 138,40 92,40 87,35 " style="fill:#d81515; stroke-width:1; stroke:black; " description="&lt;b&gt;input.path1.gene184&lt;/b&gt;&lt;br&gt;input.path1.gene184&lt;br&gt;Location: 768826 - 770355" locus_tag="input.path1.gene184" class="clusterblast-orf" id="dummy-3_q0_0_all"  />
<polygon points="176,40 218,40 223,35 218,30 176,30 176,40 " style="fill:#15d815; stroke-width:1; stroke:black; " description="&lt;b&gt;input.path1.gene185&lt;/b&gt;&lt;br&gt;input.path1.gene185&lt;br&gt;Location: 771491 - 772916" locus_tag="input.path1.gene185" class="clusterblast-orf" id="dummy-3_q1_0_all"  />
<polygon points="238,40 250,40 255,35 250,30 238,30 238,40 " style="fill:white; stroke-width:1; stroke:black; " description="&lt;b&gt;input.path1.gene186&lt;/b&gt;&lt;br&gt;input.path1.gene186&lt;br&gt;Location: 773338 - 773861" locus_tag="input.path1.gene186" class="clusterblast-orf" id="dummy-3_q2_0_all"  />
<polygon points="328,35 333,30 378,30 378,40 333,40 328,35 " style="fill:#1515d8; stroke-width:1; stroke:black; " description="&lt;b&gt;input.path1.gene187&lt;/b&gt;&lt;br&gt;input.path1.gene187&lt;br&gt;Location: 776052 - 777541" locus_tag="input.path1.gene187" class="clusterblast-orf" id="dummy-3_q3_0_all"  />
<polygon points="461,35 466,30 554,30 554,40 466,40 461,35 " style="fill:#d815d8; stroke-width:1; stroke:black; " description="&lt;b&gt;input.path1.gene188&lt;/b&gt;&lt;br&gt;input.path1.gene188&lt;br&gt;Location: 780018 - 782793" locus_tag="input.path1.gene188" class="clusterblast-orf" id="dummy-3_q4_0_all"  />
<polygon points="564,35 569,30 605,30 605,40 569,40 564,35 " style="fill:#d8d815; stroke-width:1; stroke:black; " description="&lt;b&gt;input.path1.gene189&lt;/b&gt;&lt;br&gt;input.path1.gene189&lt;br&gt;Location: 783104 - 784315" locus_tag="input.path1.gene189" class="clusterblast-orf" id="dummy-3_q5_0_all"  />
<polygon points="635,40 688,40 693,35 688,30 635,30 635,40 " style="fill:#15d8d8; stroke-width:1; stroke:black; " description="&lt;b&gt;input.path1.gene190&lt;/b&gt;&lt;br&gt;input.path1.gene190&lt;br&gt;Location: 785223 - 786952" locus_tag="input.path1.gene190" class="clusterblast-orf" id="dummy-3_q6_0_all"  />
</g>
<g label="NW_014013663" description="NW_014013663 (212718-244205): Trichoderma virens Gv29-8 chromosome Unknown TR... (66% of genes show similarity), terpene" class="clusterblast-cluster"  >
<text x="5" y="70" class="clusterblast-acc"  >
<a xlink:href="https://antismash-db.secondarymetabolites.org/area?record=NW_014013663&amp;start=212718&amp;end=244205" target="_blank">NW_014013663 (212718-244205)</a>: Trichoderma virens Gv29-8 chromosome Unknown TR... (66% of genes show similarity), terpene</text>
<line x1="10" y1="85" x2="778.0" y2="85" style="stroke-width:1; stroke:grey; "  />
</g>
<g id="a3_000"  >
<polygon points="0,90 69,90 74,85 69,80 0,80 0,90 " style="fill:white; stroke-width:1; stroke:black; " description="&lt;b&gt;TRIVIDRAFT_172676&lt;/b&gt;&lt;br&gt;hypothetical protein&lt;br&gt;Location: 216571 - 218805" locus_tag="TRIVIDRAFT_172676" class="clusterblast-orf" id="dummy-3_h3_2_0"  />
</g>
<g id="a3_001"  >
<polygon points="154,85 159,80 204,80 204,90 159,90 154,85 " style="fill:#d81515; stroke-width:1; stroke:black; " description="&lt;b&gt;TRIVIDRAFT_204498&lt;/b&gt;&lt;br&gt;hypothetical protein&lt;br&gt;Location: 221175 - 222671&lt;br&gt;&lt;br&gt;&lt;b&gt;BlastP hit with input.path1.gene184&lt;/b&gt;&lt;br&gt;Percentage identity: 82&lt;br&gt;Percentage coverage: 104&lt;br&gt;BLAST bit score: 730&lt;br&gt;E-value: 2.77e-265" locus_tag="TRIVIDRAFT_204498" class="clusterblast-orf" id="dummy-3_h3_2_1"  />
</g>
<g id="a3_002"  >
<polygon points="237,90 280,90 285,85 280,80 237,80 237,90 " style="fill:#15d815; stroke-width:1; stroke:black; " description="&lt;b&gt;TRIVIDRAFT_47179&lt;/b&gt;&lt;br&gt;hypothetical protein&lt;br&gt;Location: 223679 - 225096&lt;br&gt;&lt;br&gt;&lt;b&gt;BlastP hit with input.path1.gene185&lt;/b&gt;&lt;br&gt;Percentage identity: 88&lt;br&gt;Percentage coverage: 100&lt;br&gt;BLAST bit score: 678&lt;br&gt;E-value: 3.2e-246" locus_tag="TRIVIDRAFT_47179" class="clusterblast-orf" id="dummy-3_h3_2_2"  />
</g>
<g id="a3_003"  >
<polygon points="372,85 377,80 422,80 422,90 377,90 372,85 " style="fill:#1515d8; stroke-width:1; stroke:black; " description="&lt;b&gt;TRIVIDRAFT_225657&lt;/b&gt;&lt;br&gt;hypothetical protein&lt;br&gt;Location: 227719 - 229205&lt;br&gt;&lt;br&gt;&lt;b&gt;BlastP hit with input.path1.gene187&lt;/b&gt;&lt;br&gt;Percentage identity: 75&lt;br&gt;Percentage coverage: 98&lt;br&gt;BLAST bit score: 584&lt;br&gt;E-value: 3.28e-209" locus_tag="TRIVIDRAFT_225657" class="clusterblast-orf" id="dummy-3_h3_2_3"  />
</g>
<g id="a3_004"  >
<polygon points="551,90 724,90 729,85 724,80 551,80 551,90 " style="fill:white; stroke-width:1; stroke:black; " description="&lt;b&gt;TRIVIDRAFT_47475&lt;/b&gt;&lt;br&gt;hypothetical protein&lt;br&gt;Location: 233045 - 238375" locus_tag="TRIVIDRAFT_47475" class="clusterblast-orf" id="dummy-3_h3_2_4"  />
</g>
<g id="a3_005"  >
<polygon points="742,85 747,80 780,80 780,90 747,90 742,85 " style="fill:#d815d8; stroke-width:1; stroke:black; " description="&lt;b&gt;TRIVIDRAFT_128098&lt;/b&gt;&lt;br&gt;hypothetical protein&lt;br&gt;Location: 238757 - 239887&lt;br&gt;&lt;br&gt;&lt;b&gt;BlastP hit with input.path1.gene188&lt;/b&gt;&lt;br&gt;Percentage identity: 74&lt;br&gt;Percentage coverage: 65&lt;br&gt;BLAST bit score: 489&lt;br&gt;E-value: 1.06e-170" locus_tag="TRIVIDRAFT_128098" class="clusterblast-orf" id="dummy-3_h3_2_5"  />
</g>
</svg>
