<svg xmlns="http://www.w3.org/2000/svg" xmlns:xlink="http://www.w3.org/1999/xlink" version="1.1" x="0" y="0" height="230" width="800" viewBox="0 0 800 230" preserveAspectRatio="none"  >
<g label="Query sequence" class="clusterblast-cluster"  >
<text x="5" y="20" class="clusterblast-acc"  >
Query sequence</text>
<line x1="10" y1="35" x2="778.0" y2="35" style="stroke-width:1; stroke:grey; "  />
<polygon points="0,40 68,40 73,35 68,30 0,30 0,40 " style="fill:#d81515; stroke-width:1; stroke:black; " description="&lt;b&gt;input.path1.gene457&lt;/b&gt;&lt;br&gt;input.path1.gene457&lt;br&gt;Location: 1864875 - 1868678" locus_tag="input.path1.gene457" class="clusterblast-orf" id="dummy-1_q0_0_all"  />
<polygon points="84,35 89,30 122,30 122,40 89,40 84,35 " style="fill:#33d815; stroke-width:1; stroke:black; " description="&lt;b&gt;input.path1.gene458&lt;/b&gt;&lt;br&gt;input.path1.gene458&lt;br&gt;Location: 1869209 - 1871181" locus_tag="input.path1.gene458" class="clusterblast-orf" id="dummy-1_q1_0_all"  />
<polygon points="149,35 154,30 199,30 199,40 154,40 149,35 " style="fill:#15abd8; stroke-width:1; stroke:black; " description="&lt;b&gt;input.path1.gene459&lt;/b&gt;&lt;br&gt;input.path1.gene459&lt;br&gt;Location: 1872599 - 1875167" locus_tag="input.path1.gene459" class="clusterblast-orf" id="dummy-1_q2_0_all"  />
<polygon points="208,40 224,40 229,35 224,30 208,30 208,40 " style="fill:#8d15d8; stroke-width:1; stroke:black; " description="&lt;b&gt;input.path1.gene460&lt;/b&gt;&lt;br&gt;input.path1.gene460&lt;br&gt;Location: 1875627 - 1876714" locus_tag="input.path1.gene460" class="clusterblast-orf" id="dummy-1_q3_0_all"  />
<polygon points="233,35 238,30 263,30 263,40 238,40 233,35 " style="fill:#d86f15; stroke-width:1; stroke:black; " description="&lt;b&gt;input.path1.gene461&lt;/b&gt;&lt;br&gt;input.path1.gene461&lt;br&gt;Location: 1876911 - 1878435" locus_tag="input.path1.gene461" class="clusterblast-orf" id="dummy-1_q4_0_all"  />
<polygon points="297,40 390,40 395,35 390,30 297,30 297,40 " style="fill:#15d851; stroke-width:1; stroke:black; " description="&lt;b&gt;input.path1.gene462&lt;/b&gt;&lt;br&gt;input.path1.gene462&lt;br&gt;Location: 1880192 - 1885246" locus_tag="input.path1.gene462" class="clusterblast-orf" id="dummy-1_q5_0_all"  />
<polygon points="395,35 400,30 418,30 418,40 400,40 395,35 " style="fill:#1551d8; stroke-width:1; stroke:black; " description="&lt;b&gt;input.path1.gene463&lt;/b&gt;&lt;br&gt;input.path1.gene463&lt;br&gt;Location: 1885242 - 1886429" locus_tag="input.path1.gene463" class="clusterblast-orf" id="dummy-1_q6_0_all"  />
<polygon points="452,40 485,40 490,35 485,30 452,30 452,40 " style="fill:#d815c9; stroke-width:1; stroke:black; " description="&lt;b&gt;input.path1.gene464&lt;/b&gt;&lt;br&gt;input.path1.gene464&lt;br&gt;Location: 1888188 - 1890150" locus_tag="input.path1.gene464" class="clusterblast-orf" id="dummy-1_q7_0_all"  />
<polygon points="491,35 496,30 553,30 553,40 496,40 491,35 " style="fill:#d8c915; stroke-width:1; stroke:black; " description="&lt;b&gt;input.path1.gene465&lt;/b&gt;&lt;br&gt;input.path1.gene465&lt;br&gt;Location: 1890211 - 1893392" locus_tag="input.path1.gene465" class="clusterblast-orf" id="dummy-1_q8_0_all"  />
<polygon points="577,40 654,40 659,35 654,30 577,30 577,40 " style="fill:#15d8ab; stroke-width:1; stroke:black; " description="&lt;b&gt;input.path1.gene466&lt;/b&gt;&lt;br&gt;input.path1.gene466&lt;br&gt;Location: 1894662 - 1898873" locus_tag="input.path1.gene466" class="clusterblast-orf" id="dummy-1_q9_0_all"  />
<polygon points="686,40 689,35 686,30 686,40 " style="fill:white; stroke-width:1; stroke:black; " description="&lt;b&gt;input.path1.gene467&lt;/b&gt;&lt;br&gt;input.path1.gene467&lt;br&gt;Location: 1900280 - 1900412" locus_tag="input.path1.gene467" class="clusterblast-orf" id="dummy-1_q10_0_all"  />
<polygon points="702,40 707,40 712,35 707,30 702,30 702,40 " style="fill:#3315d8; stroke-width:1; stroke:black; " description="&lt;b&gt;input.path1.gene468&lt;/b&gt;&lt;br&gt;input.path1.gene468&lt;br&gt;Location: 1901099 - 1901588" locus_tag="input.path1.gene468" class="clusterblast-orf" id="dummy-1_q11_0_all"  />
<polygon points="715,35 720,30 740,30 740,40 720,40 715,35 " style="fill:#d8156f; stroke-width:1; stroke:black; " description="&lt;b&gt;input.path1.gene469&lt;/b&gt;&lt;br&gt;input.path1.gene469&lt;br&gt;Location: 1901759 - 1903048" locus_tag="input.path1.gene469" class="clusterblast-orf" id="dummy-1_q12_0_all"  />
<polygon points="759,40 775,40 780,35 775,30 759,30 759,40 " style="fill:#8dd815; stroke-width:1; stroke:black; " description="&lt;b&gt;input.path1.gene470&lt;/b&gt;&lt;br&gt;input.path1.gene470&lt;br&gt;Location: 1904016 - 1905098" locus_tag="input.path1.gene470" class="clusterblast-orf" id="dummy-1_q13_0_all"  />
</g>
<g label="NC_070549" description="NC_070549 (1227092-1292277): Fusarium falciforme chromosome 6, complete sequence (63% of genes show similarity), NRPS-like" class="clusterblast-cluster"  >
<text x="5" y="70" class="clusterblast-acc"  >
<a xlink:href="https://antismash-db.secondarymetabolites.org/area?record=NC_070549&amp;start=1227092&amp;end=1292277" target="_blank">NC_070549 (1227092-1292277)</a>: Fusarium falciforme chromosome 6, complete sequence (63% of genes show similarity), NRPS-like</text>
<line x1="10" y1="85" x2="778.0" y2="85" style="stroke-width:1; stroke:grey; "  />
</g>
<g id="a1_000"  >
<polygon points="65,85 70,80 83,80 83,90 70,90 65,85 " style="fill:#1551d8; stroke-width:1; stroke:black; " description="&lt;b&gt;NCS54_00794300&lt;/b&gt;&lt;br&gt;Hypothetical protein&lt;br&gt;Location: 1290537 - 1289628&lt;br&gt;&lt;br&gt;&lt;b&gt;BlastP hit with input.path1.gene463&lt;/b&gt;&lt;br&gt;Percentage identity: 72&lt;br&gt;Percentage coverage: 80&lt;br&gt;BLAST bit score: 316&lt;br&gt;E-value: 1.26e-106" locus_tag="NCS54_00794300" class="clusterblast-orf" id="dummy-1_h1_3_0"  />
</g>
<g id="a1_001"  >
<polygon points="126,90 158,90 163,85 158,80 126,80 126,90 " style="fill:white; stroke-width:1; stroke:black; " description="&lt;b&gt;NCS54_00794200&lt;/b&gt;&lt;br&gt;Hypothetical protein&lt;br&gt;Location: 1287408 - 1285512" locus_tag="NCS54_00794200" class="clusterblast-orf" id="dummy-1_h1_3_1"  />
</g>
<g id="a1_002"  >
<polygon points="181,90 276,90 281,85 276,80 181,80 181,90 " style="fill:white; stroke-width:1; stroke:black; " description="&lt;b&gt;NCS54_00794100&lt;/b&gt;&lt;br&gt;SEC7 domain-containing protein&lt;br&gt;Location: 1284551 - 1279393" locus_tag="NCS54_00794100" class="clusterblast-orf" id="dummy-1_h1_3_2"  />
</g>
<g id="a1_003"  >
<polygon points="292,90 347,90 352,85 347,80 292,80 292,90 " style="fill:#d8c915; stroke-width:1; stroke:black; " description="&lt;b&gt;NCS54_00794000&lt;/b&gt;&lt;br&gt;Hypothetical protein&lt;br&gt;Location: 1278821 - 1275743&lt;br&gt;&lt;br&gt;&lt;b&gt;BlastP hit with input.path1.gene465&lt;/b&gt;&lt;br&gt;Percentage identity: 74&lt;br&gt;Percentage coverage: 99&lt;br&gt;BLAST bit score: 1431&lt;br&gt;E-value: 0.0" locus_tag="NCS54_00794000" class="clusterblast-orf" id="dummy-1_h1_3_3"  />
</g>
<g id="a1_004"  >
<polygon points="353,85 358,80 382,80 382,90 358,90 353,85 " style="fill:#d815c9; stroke-width:1; stroke:black; " description="&lt;b&gt;NCS54_00793900&lt;/b&gt;&lt;br&gt;Hypothetical protein&lt;br&gt;Location: 1275719 - 1274193&lt;br&gt;&lt;br&gt;&lt;b&gt;BlastP hit with input.path1.gene464&lt;/b&gt;&lt;br&gt;Percentage identity: 33&lt;br&gt;Percentage coverage: 99&lt;br&gt;BLAST bit score: 210&lt;br&gt;E-value: 1.01e-60" locus_tag="NCS54_00793900" class="clusterblast-orf" id="dummy-1_h1_3_4"  />
</g>
<g id="a1_005"  >
<polygon points="397,85 402,80 432,80 432,90 402,90 397,85 " style="fill:white; stroke-width:1; stroke:black; " description="&lt;b&gt;NCS54_00793800&lt;/b&gt;&lt;br&gt;Hypothetical protein&lt;br&gt;Location: 1273444 - 1271605" locus_tag="NCS54_00793800" class="clusterblast-orf" id="dummy-1_h1_3_5"  />
</g>
<g id="a1_006"  >
<polygon points="466,90 467,90 472,85 467,80 466,80 466,90 " style="fill:white; stroke-width:1; stroke:black; " description="&lt;b&gt;NCS54_00793700&lt;/b&gt;&lt;br&gt;Hypothetical protein&lt;br&gt;Location: 1269891 - 1269551" locus_tag="NCS54_00793700" class="clusterblast-orf" id="dummy-1_h1_3_6"  />
</g>
<g id="a1_007"  >
<polygon points="475,85 480,80 526,80 526,90 480,90 475,85 " style="fill:#15abd8; stroke-width:1; stroke:black; " description="&lt;b&gt;NCS54_00793600&lt;/b&gt;&lt;br&gt;Pre-mRNA-splicing factor SYF1&lt;br&gt;Location: 1269386 - 1266793&lt;br&gt;&lt;br&gt;&lt;b&gt;BlastP hit with input.path1.gene459&lt;/b&gt;&lt;br&gt;Percentage identity: 84&lt;br&gt;Percentage coverage: 100&lt;br&gt;BLAST bit score: 1299&lt;br&gt;E-value: 0.0" locus_tag="NCS54_00793600" class="clusterblast-orf" id="dummy-1_h1_3_7"  />
</g>
<g id="a1_008"  >
<polygon points="538,90 554,90 559,85 554,80 538,80 538,90 " style="fill:#8d15d8; stroke-width:1; stroke:black; " description="&lt;b&gt;NCS54_00793500&lt;/b&gt;&lt;br&gt;Hypothetical protein&lt;br&gt;Location: 1266157 - 1265088&lt;br&gt;&lt;br&gt;&lt;b&gt;BlastP hit with input.path1.gene460&lt;/b&gt;&lt;br&gt;Percentage identity: 89&lt;br&gt;Percentage coverage: 102&lt;br&gt;BLAST bit score: 426&lt;br&gt;E-value: 9.74e-151" locus_tag="NCS54_00793500" class="clusterblast-orf" id="dummy-1_h1_3_8"  />
</g>
<g id="a1_009"  >
<polygon points="562,85 567,80 579,80 579,90 567,90 562,85 " style="fill:#d86f15; stroke-width:1; stroke:black; " description="&lt;b&gt;NCS54_00793400&lt;/b&gt;&lt;br&gt;Hypothetical protein&lt;br&gt;Location: 1264903 - 1264056&lt;br&gt;&lt;br&gt;&lt;b&gt;BlastP hit with input.path1.gene461&lt;/b&gt;&lt;br&gt;Percentage identity: 75&lt;br&gt;Percentage coverage: 84&lt;br&gt;BLAST bit score: 359&lt;br&gt;E-value: 4.93e-124" locus_tag="NCS54_00793400" class="clusterblast-orf" id="dummy-1_h1_3_9"  />
</g>
<g id="a1_0010"  >
<polygon points="613,90 709,90 714,85 709,80 613,80 613,90 " style="fill:#15d851; stroke-width:1; stroke:black; " description="&lt;b&gt;NCS54_00793300&lt;/b&gt;&lt;br&gt;Carrier domain-containing protein&lt;br&gt;Location: 1262277 - 1257093&lt;br&gt;&lt;br&gt;&lt;b&gt;BlastP hit with input.path1.gene462&lt;/b&gt;&lt;br&gt;Percentage identity: 57&lt;br&gt;Percentage coverage: 104&lt;br&gt;BLAST bit score: 1608&lt;br&gt;E-value: 0.0" locus_tag="NCS54_00793300" class="clusterblast-orf" id="dummy-1_h1_3_10"  />
</g>
</svg>
