<svg xmlns="http://www.w3.org/2000/svg" xmlns:xlink="http://www.w3.org/1999/xlink" version="1.1" x="0" y="0" height="230" width="800" viewBox="0 0 800 230" preserveAspectRatio="none"  >
<g label="Query sequence" class="clusterblast-cluster"  >
<text x="5" y="20" class="clusterblast-acc"  >
Query sequence</text>
<line x1="10" y1="35" x2="778.0" y2="35" style="stroke-width:1; stroke:grey; "  />
<polygon points="260,35 264,30 264,40 260,35 " style="fill:#d81515; stroke-width:1; stroke:black; " description="&lt;b&gt;input.path1.gene368&lt;/b&gt;&lt;br&gt;input.path1.gene368&lt;br&gt;Location: 1153078 - 1153869" locus_tag="input.path1.gene368" class="clusterblast-orf" id="dummy-4_q0_0_all"  />
<polygon points="265,40 266,35 265,30 265,40 " style="fill:white; stroke-width:1; stroke:black; " description="&lt;b&gt;input.path1.gene369&lt;/b&gt;&lt;br&gt;input.path1.gene369&lt;br&gt;Location: 1154089 - 1154407" locus_tag="input.path1.gene369" class="clusterblast-orf" id="dummy-4_q1_0_all"  />
<polygon points="275,35 280,30 288,30 288,40 280,40 275,35 " style="fill:#43d815; stroke-width:1; stroke:black; " description="&lt;b&gt;input.path1.gene370&lt;/b&gt;&lt;br&gt;input.path1.gene370&lt;br&gt;Location: 1156176 - 1158661" locus_tag="input.path1.gene370" class="clusterblast-orf" id="dummy-4_q2_0_all"  />
<polygon points="292,40 293,35 292,30 292,40 " style="fill:white; stroke-width:1; stroke:black; " description="&lt;b&gt;input.path1.gene371&lt;/b&gt;&lt;br&gt;input.path1.gene371&lt;br&gt;Location: 1159478 - 1159695" locus_tag="input.path1.gene371" class="clusterblast-orf" id="dummy-4_q3_0_all"  />
<polygon points="297,40 300,35 297,30 297,40 " style="fill:white; stroke-width:1; stroke:black; " description="&lt;b&gt;input.path1.gene372&lt;/b&gt;&lt;br&gt;input.path1.gene372&lt;br&gt;Location: 1160444 - 1160951" locus_tag="input.path1.gene372" class="clusterblast-orf" id="dummy-4_q4_0_all"  />
<polygon points="300,35 305,30 306,30 306,40 305,40 300,35 " style="fill:#15b6d8; stroke-width:1; stroke:black; " description="&lt;b&gt;input.path1.gene373&lt;/b&gt;&lt;br&gt;input.path1.gene373&lt;br&gt;Location: 1161041 - 1162255" locus_tag="input.path1.gene373" class="clusterblast-orf" id="dummy-4_q5_0_all"  />
<polygon points="311,40 317,40 322,35 317,30 311,30 311,40 " style="fill:#8815d8; stroke-width:1; stroke:black; " description="&lt;b&gt;input.path1.gene374&lt;/b&gt;&lt;br&gt;input.path1.gene374&lt;br&gt;Location: 1163128 - 1165451" locus_tag="input.path1.gene374" class="clusterblast-orf" id="dummy-4_q6_0_all"  />
<polygon points="325,40 325,40 330,35 325,30 325,30 325,40 " style="fill:#d85a15; stroke-width:1; stroke:black; " description="&lt;b&gt;input.path1.gene375&lt;/b&gt;&lt;br&gt;input.path1.gene375&lt;br&gt;Location: 1165924 - 1167059" locus_tag="input.path1.gene375" class="clusterblast-orf" id="dummy-4_q7_0_all"  />
<polygon points="333,35 338,30 341,30 341,40 338,40 333,35 " style="fill:#15d82c; stroke-width:1; stroke:black; " description="&lt;b&gt;input.path1.gene376&lt;/b&gt;&lt;br&gt;input.path1.gene376&lt;br&gt;Location: 1167543 - 1169104" locus_tag="input.path1.gene376" class="clusterblast-orf" id="dummy-4_q8_0_all"  />
<polygon points="350,40 351,40 356,35 351,30 350,30 350,40 " style="fill:#1571d8; stroke-width:1; stroke:black; " description="&lt;b&gt;input.path1.gene377&lt;/b&gt;&lt;br&gt;input.path1.gene377&lt;br&gt;Location: 1171027 - 1172182" locus_tag="input.path1.gene377" class="clusterblast-orf" id="dummy-4_q9_0_all"  />
<polygon points="359,35 363,30 363,40 359,35 " style="fill:#cd15d8; stroke-width:1; stroke:black; " description="&lt;b&gt;input.path1.gene378&lt;/b&gt;&lt;br&gt;input.path1.gene378&lt;br&gt;Location: 1172756 - 1173589" locus_tag="input.path1.gene378" class="clusterblast-orf" id="dummy-4_q10_0_all"  />
<polygon points="384,35 388,30 388,40 384,35 " style="fill:#d89f15; stroke-width:1; stroke:black; " description="&lt;b&gt;input.path1.gene379&lt;/b&gt;&lt;br&gt;input.path1.gene379&lt;br&gt;Location: 1177655 - 1178547" locus_tag="input.path1.gene379" class="clusterblast-orf" id="dummy-4_q11_0_all"  />
<polygon points="392,40 394,35 392,30 392,40 " style="fill:#15d871; stroke-width:1; stroke:black; " description="&lt;b&gt;input.path1.gene380&lt;/b&gt;&lt;br&gt;input.path1.gene380&lt;br&gt;Location: 1179188 - 1179639" locus_tag="input.path1.gene380" class="clusterblast-orf" id="dummy-4_q12_0_all"  />
<polygon points="402,40 404,35 402,30 402,40 " style="fill:#152cd8; stroke-width:1; stroke:black; " description="&lt;b&gt;input.path1.gene381&lt;/b&gt;&lt;br&gt;input.path1.gene381&lt;br&gt;Location: 1181246 - 1181578" locus_tag="input.path1.gene381" class="clusterblast-orf" id="dummy-4_q13_0_all"  />
<polygon points="414,35 419,30 433,30 433,40 419,40 414,35 " style="fill:#d8159f; stroke-width:1; stroke:black; " description="&lt;b&gt;input.path1.gene382&lt;/b&gt;&lt;br&gt;input.path1.gene382&lt;br&gt;Location: 1183559 - 1187333" locus_tag="input.path1.gene382" class="clusterblast-orf" id="dummy-4_q14_0_all"  />
<polygon points="440,40 468,40 473,35 468,30 440,30 440,40 " style="fill:#cdd815; stroke-width:1; stroke:black; " description="&lt;b&gt;input.path1.gene383&lt;/b&gt;&lt;br&gt;input.path1.gene383&lt;br&gt;Location: 1188806 - 1195263" locus_tag="input.path1.gene383" class="clusterblast-orf" id="dummy-4_q15_0_all"  />
<polygon points="474,35 479,30 482,30 482,40 479,40 474,35 " style="fill:#15d8b6; stroke-width:1; stroke:black; " description="&lt;b&gt;input.path1.gene384&lt;/b&gt;&lt;br&gt;input.path1.gene384&lt;br&gt;Location: 1195569 - 1197136" locus_tag="input.path1.gene384" class="clusterblast-orf" id="dummy-4_q16_0_all"  />
<polygon points="488,35 493,30 498,30 498,40 493,40 488,35 " style="fill:#4315d8; stroke-width:1; stroke:black; " description="&lt;b&gt;input.path1.gene385&lt;/b&gt;&lt;br&gt;input.path1.gene385&lt;br&gt;Location: 1198316 - 1200200" locus_tag="input.path1.gene385" class="clusterblast-orf" id="dummy-4_q17_0_all"  />
<polygon points="502,40 507,40 512,35 507,30 502,30 502,40 " style="fill:#d8155a; stroke-width:1; stroke:black; " description="&lt;b&gt;input.path1.gene386&lt;/b&gt;&lt;br&gt;input.path1.gene386&lt;br&gt;Location: 1200968 - 1203017" locus_tag="input.path1.gene386" class="clusterblast-orf" id="dummy-4_q18_0_all"  />
<polygon points="515,35 519,30 519,40 515,35 " style="fill:#88d815; stroke-width:1; stroke:black; " description="&lt;b&gt;input.path1.gene387&lt;/b&gt;&lt;br&gt;input.path1.gene387&lt;br&gt;Location: 1203647 - 1204447" locus_tag="input.path1.gene387" class="clusterblast-orf" id="dummy-4_q19_0_all"  />
</g>
<g label="NC_035791" description="NC_035791 (3928355-4086848): Pochonia chlamydosporia 170 chromosome 2, whole ... (6% of genes show similarity), fungal-RiPP-like,isocyanide-nrp" class="clusterblast-cluster"  >
<text x="5" y="70" class="clusterblast-acc"  >
<a xlink:href="https://antismash-db.secondarymetabolites.org/area?record=NC_035791&amp;start=3928355&amp;end=4086848" target="_blank">NC_035791 (3928355-4086848)</a>: Pochonia chlamydosporia 170 chromosome 2, whole ... (6% of genes show similarity), fungal-RiPP-like,isocyanide-nrp</text>
<line x1="10" y1="85" x2="778.0" y2="85" style="stroke-width:1; stroke:grey; "  />
</g>
<g id="a4_000"  >
<polygon points="0,90 3,90 8,85 3,80 0,80 0,90 " style="fill:white; stroke-width:1; stroke:black; " description="&lt;b&gt;VFPPC_03313&lt;/b&gt;&lt;br&gt;major facilitator superfamily domain, general substrate transporter&lt;br&gt;Location: 4085218 - 4083462" locus_tag="VFPPC_03313" class="clusterblast-orf" id="dummy-4_h4_2_0"  />
</g>
<g id="a4_001"  >
<polygon points="17,90 23,90 28,85 23,80 17,80 17,90 " style="fill:white; stroke-width:1; stroke:black; " description="&lt;b&gt;VFPPC_03312&lt;/b&gt;&lt;br&gt;sugar porter (SP) family MFS transporter&lt;br&gt;Location: 4081658 - 4079538" locus_tag="VFPPC_03312" class="clusterblast-orf" id="dummy-4_h4_2_1"  />
</g>
<g id="a4_002"  >
<polygon points="30,85 35,80 35,80 35,90 35,90 30,85 " style="fill:white; stroke-width:1; stroke:black; " description="&lt;b&gt;VFPPC_03311&lt;/b&gt;&lt;br&gt;hypothetical protein&lt;br&gt;Location: 4079127 - 4078255" locus_tag="VFPPC_03311" class="clusterblast-orf" id="dummy-4_h4_2_2"  />
</g>
<g id="a4_003"  >
<polygon points="38,90 46,90 51,85 46,80 38,80 38,90 " style="fill:white; stroke-width:1; stroke:black; " description="&lt;b&gt;VFPPC_03310&lt;/b&gt;&lt;br&gt;ankyrin repeat domain-containing protein&lt;br&gt;Location: 4077632 - 4075092" locus_tag="VFPPC_03310" class="clusterblast-orf" id="dummy-4_h4_2_3"  />
</g>
<g id="a4_004"  >
<polygon points="55,90 61,90 66,85 61,80 55,80 55,90 " style="fill:white; stroke-width:1; stroke:black; " description="&lt;b&gt;VFPPC_03309&lt;/b&gt;&lt;br&gt;vacuolar calcium ion transporter&lt;br&gt;Location: 4074267 - 4072063" locus_tag="VFPPC_03309" class="clusterblast-orf" id="dummy-4_h4_2_4"  />
</g>
<g id="a4_005"  >
<polygon points="70,85 75,80 77,80 77,90 75,90 70,85 " style="fill:#15d8b6; stroke-width:1; stroke:black; " description="&lt;b&gt;VFPPC_03308&lt;/b&gt;&lt;br&gt;tam domain methyltransferase&lt;br&gt;Location: 4071239 - 4069855&lt;br&gt;&lt;br&gt;&lt;b&gt;BlastP hit with input.path1.gene384&lt;/b&gt;&lt;br&gt;Percentage identity: 37&lt;br&gt;Percentage coverage: 91&lt;br&gt;BLAST bit score: 160&lt;br&gt;E-value: 1.56e-44" locus_tag="VFPPC_03308" class="clusterblast-orf" id="dummy-4_h4_2_5"  />
</g>
<g id="a4_006"  >
<polygon points="88,90 93,90 98,85 93,80 88,80 88,90 " style="fill:#4315d8; stroke-width:1; stroke:black; " description="&lt;b&gt;VFPPC_03306&lt;/b&gt;&lt;br&gt;benzoate 4-monooxygenase cytochrome p450&lt;br&gt;Location: 4067696 - 4065702&lt;br&gt;&lt;br&gt;&lt;b&gt;BlastP hit with input.path1.gene385&lt;/b&gt;&lt;br&gt;Percentage identity: 42&lt;br&gt;Percentage coverage: 95&lt;br&gt;BLAST bit score: 335&lt;br&gt;E-value: 4.39e-108" locus_tag="VFPPC_03306" class="clusterblast-orf" id="dummy-4_h4_2_6"  />
</g>
<g id="a4_007"  >
<polygon points="100,90 104,85 100,80 100,90 " style="fill:white; stroke-width:1; stroke:black; " description="&lt;b&gt;VFPPC_03305&lt;/b&gt;&lt;br&gt;oxidoreductase&lt;br&gt;Location: 4065377 - 4064496" locus_tag="VFPPC_03305" class="clusterblast-orf" id="dummy-4_h4_2_7"  />
</g>
<g id="a4_008"  >
<polygon points="108,90 112,85 108,80 108,90 " style="fill:white; stroke-width:1; stroke:black; " description="&lt;b&gt;VFPPC_03304&lt;/b&gt;&lt;br&gt;hypothetical protein&lt;br&gt;Location: 4063805 - 4063038" locus_tag="VFPPC_03304" class="clusterblast-orf" id="dummy-4_h4_2_8"  />
</g>
<g id="a4_009"  >
<polygon points="127,85 132,80 137,80 137,90 132,90 127,85 " style="fill:white; stroke-width:1; stroke:black; " description="&lt;b&gt;VFPPC_03303&lt;/b&gt;&lt;br&gt;MFS quinate transporter&lt;br&gt;Location: 4060048 - 4058086" locus_tag="VFPPC_03303" class="clusterblast-orf" id="dummy-4_h4_2_9"  />
</g>
<g id="a4_0010"  >
<polygon points="143,90 145,85 143,80 143,90 " style="fill:white; stroke-width:1; stroke:black; " description="&lt;b&gt;VFPPC_17520&lt;/b&gt;&lt;br&gt;hypothetical protein&lt;br&gt;Location: 4056776 - 4056402" locus_tag="VFPPC_17520" class="clusterblast-orf" id="dummy-4_h4_2_10"  />
</g>
<g id="a4_0011"  >
<polygon points="151,85 156,80 158,80 158,90 156,90 151,85 " style="fill:white; stroke-width:1; stroke:black; " description="&lt;b&gt;VFPPC_03302&lt;/b&gt;&lt;br&gt;bifunctional polynucleotide phosphatase/kinase&lt;br&gt;Location: 4055327 - 4053812" locus_tag="VFPPC_03302" class="clusterblast-orf" id="dummy-4_h4_2_11"  />
</g>
<g id="a4_0012"  >
<polygon points="160,90 160,90 165,85 160,80 160,80 160,90 " style="fill:white; stroke-width:1; stroke:black; " description="&lt;b&gt;VFPPC_03301&lt;/b&gt;&lt;br&gt;mediator complex subunit Med18&lt;br&gt;Location: 4053372 - 4052477" locus_tag="VFPPC_03301" class="clusterblast-orf" id="dummy-4_h4_2_12"  />
</g>
<g id="a4_0013"  >
<polygon points="168,85 173,80 177,80 177,90 173,90 168,85 " style="fill:white; stroke-width:1; stroke:black; " description="&lt;b&gt;VFPPC_03300&lt;/b&gt;&lt;br&gt;siderophore iron transporter&lt;br&gt;Location: 4051823 - 4050054" locus_tag="VFPPC_03300" class="clusterblast-orf" id="dummy-4_h4_2_13"  />
</g>
<g id="a4_0014"  >
<polygon points="181,85 186,80 207,80 207,90 186,90 181,85 " style="fill:white; stroke-width:1; stroke:black; " description="&lt;b&gt;VFPPC_03299&lt;/b&gt;&lt;br&gt;transferase family protein&lt;br&gt;Location: 4049348 - 4044127" locus_tag="VFPPC_03299" class="clusterblast-orf" id="dummy-4_h4_2_14"  />
</g>
<g id="a4_0015"  >
<polygon points="211,90 214,90 219,85 214,80 211,80 211,90 " style="fill:white; stroke-width:1; stroke:black; " description="&lt;b&gt;VFPPC_13442&lt;/b&gt;&lt;br&gt;alcohol acetyltransferase&lt;br&gt;Location: 4043269 - 4041751" locus_tag="VFPPC_13442" class="clusterblast-orf" id="dummy-4_h4_2_15"  />
</g>
<g id="a4_0016"  >
<polygon points="223,90 223,90 228,85 223,80 223,80 223,90 " style="fill:white; stroke-width:1; stroke:black; " description="&lt;b&gt;VFPPC_03298&lt;/b&gt;&lt;br&gt;lipase&lt;br&gt;Location: 4041017 - 4039986" locus_tag="VFPPC_03298" class="clusterblast-orf" id="dummy-4_h4_2_16"  />
</g>
<g id="a4_0017"  >
<polygon points="232,90 236,90 241,85 236,80 232,80 232,90 " style="fill:white; stroke-width:1; stroke:black; " description="&lt;b&gt;VFPPC_03297&lt;/b&gt;&lt;br&gt;siderophore iron transporter&lt;br&gt;Location: 4039186 - 4037423" locus_tag="VFPPC_03297" class="clusterblast-orf" id="dummy-4_h4_2_17"  />
</g>
<g id="a4_0018"  >
<polygon points="246,90 249,85 246,80 246,90 " style="fill:white; stroke-width:1; stroke:black; " description="&lt;b&gt;VFPPC_03296&lt;/b&gt;&lt;br&gt;peptidoglycan-binding domain-containing protein&lt;br&gt;Location: 4036429 - 4035854" locus_tag="VFPPC_03296" class="clusterblast-orf" id="dummy-4_h4_2_18"  />
</g>
<g id="a4_0019"  >
<polygon points="252,85 255,80 255,90 252,85 " style="fill:white; stroke-width:1; stroke:black; " description="&lt;b&gt;VFPPC_03295&lt;/b&gt;&lt;br&gt;hypothetical protein&lt;br&gt;Location: 4035204 - 4034694" locus_tag="VFPPC_03295" class="clusterblast-orf" id="dummy-4_h4_2_19"  />
</g>
<g id="a4_0020"  >
<polygon points="272,90 274,90 279,85 274,80 272,80 272,90 " style="fill:white; stroke-width:1; stroke:black; " description="&lt;b&gt;VFPPC_03293&lt;/b&gt;&lt;br&gt;efflux pump antibiotic resistance protein&lt;br&gt;Location: 4031388 - 4029822" locus_tag="VFPPC_03293" class="clusterblast-orf" id="dummy-4_h4_2_20"  />
</g>
<g id="a4_0021"  >
<polygon points="281,90 283,90 288,85 283,80 281,80 281,90 " style="fill:white; stroke-width:1; stroke:black; " description="&lt;b&gt;VFPPC_03292&lt;/b&gt;&lt;br&gt;polysaccharide synthase&lt;br&gt;Location: 4029446 - 4028084" locus_tag="VFPPC_03292" class="clusterblast-orf" id="dummy-4_h4_2_21"  />
</g>
<g id="a4_0022"  >
<polygon points="300,85 305,80 309,80 309,90 305,90 300,85 " style="fill:white; stroke-width:1; stroke:black; " description="&lt;b&gt;VFPPC_03291&lt;/b&gt;&lt;br&gt;hypothetical protein&lt;br&gt;Location: 4025667 - 4023883" locus_tag="VFPPC_03291" class="clusterblast-orf" id="dummy-4_h4_2_22"  />
</g>
<g id="a4_0023"  >
<polygon points="362,90 366,85 362,80 362,90 " style="fill:white; stroke-width:1; stroke:black; " description="&lt;b&gt;VFPPC_03287&lt;/b&gt;&lt;br&gt;hypothetical protein&lt;br&gt;Location: 4013542 - 4012705" locus_tag="VFPPC_03287" class="clusterblast-orf" id="dummy-4_h4_2_23"  />
</g>
<g id="a4_0024"  >
<polygon points="369,85 373,80 373,90 369,85 " style="fill:white; stroke-width:1; stroke:black; " description="&lt;b&gt;VFPPC_03286&lt;/b&gt;&lt;br&gt;hypothetical protein&lt;br&gt;Location: 4012130 - 4011334" locus_tag="VFPPC_03286" class="clusterblast-orf" id="dummy-4_h4_2_24"  />
</g>
<g id="a4_0025"  >
<polygon points="394,90 398,85 394,80 394,90 " style="fill:white; stroke-width:1; stroke:black; " description="&lt;b&gt;VFPPC_03285&lt;/b&gt;&lt;br&gt;hypothetical protein&lt;br&gt;Location: 4007174 - 4006416" locus_tag="VFPPC_03285" class="clusterblast-orf" id="dummy-4_h4_2_25"  />
</g>
<g id="a4_0026"  >
<polygon points="401,90 402,90 407,85 402,80 401,80 401,90 " style="fill:white; stroke-width:1; stroke:black; " description="&lt;b&gt;VFPPC_03284&lt;/b&gt;&lt;br&gt;F-box domain-containing protein&lt;br&gt;Location: 4005803 - 4004594" locus_tag="VFPPC_03284" class="clusterblast-orf" id="dummy-4_h4_2_26"  />
</g>
<g id="a4_0027"  >
<polygon points="410,85 413,80 413,90 410,85 " style="fill:white; stroke-width:1; stroke:black; " description="&lt;b&gt;VFPPC_03283&lt;/b&gt;&lt;br&gt;hypothetical protein&lt;br&gt;Location: 4004006 - 4003314" locus_tag="VFPPC_03283" class="clusterblast-orf" id="dummy-4_h4_2_27"  />
</g>
<g id="a4_0028"  >
<polygon points="443,90 446,90 451,85 446,80 443,80 443,90 " style="fill:white; stroke-width:1; stroke:black; " description="&lt;b&gt;VFPPC_13441&lt;/b&gt;&lt;br&gt;hypothetical protein&lt;br&gt;Location: 3997403 - 3995847" locus_tag="VFPPC_13441" class="clusterblast-orf" id="dummy-4_h4_2_28"  />
</g>
<g id="a4_0029"  >
<polygon points="453,85 457,80 457,90 453,85 " style="fill:white; stroke-width:1; stroke:black; " description="&lt;b&gt;VFPPC_03281&lt;/b&gt;&lt;br&gt;acetyltransferase (GNAT) domain-containing protein&lt;br&gt;Location: 3995480 - 3994716" locus_tag="VFPPC_03281" class="clusterblast-orf" id="dummy-4_h4_2_29"  />
</g>
<g id="a4_0030"  >
<polygon points="461,85 466,80 468,80 468,90 466,90 461,85 " style="fill:white; stroke-width:1; stroke:black; " description="&lt;b&gt;VFPPC_03280&lt;/b&gt;&lt;br&gt;kinase domain-containing protein&lt;br&gt;Location: 3993808 - 3992474" locus_tag="VFPPC_03280" class="clusterblast-orf" id="dummy-4_h4_2_30"  />
</g>
<g id="a4_0031"  >
<polygon points="523,85 528,80 549,80 549,90 528,90 523,85 " style="fill:white; stroke-width:1; stroke:black; " description="&lt;b&gt;VFPPC_03277&lt;/b&gt;&lt;br&gt;ABC multidrug transporter&lt;br&gt;Location: 3981618 - 3976561" locus_tag="VFPPC_03277" class="clusterblast-orf" id="dummy-4_h4_2_31"  />
</g>
<g id="a4_0032"  >
<polygon points="560,85 565,80 565,80 565,90 565,90 560,85 " style="fill:#d89f15; stroke-width:1; stroke:black; " description="&lt;b&gt;VFPPC_03276&lt;/b&gt;&lt;br&gt;hypothetical protein&lt;br&gt;Location: 3974327 - 3973356&lt;br&gt;&lt;br&gt;&lt;b&gt;BlastP hit with input.path1.gene379&lt;/b&gt;&lt;br&gt;Percentage identity: 34&lt;br&gt;Percentage coverage: 73&lt;br&gt;BLAST bit score: 99&lt;br&gt;E-value: 1.31e-22" locus_tag="VFPPC_03276" class="clusterblast-orf" id="dummy-4_h4_2_32"  />
</g>
<g id="a4_0033"  >
<polygon points="568,90 569,85 568,80 568,90 " style="fill:white; stroke-width:1; stroke:black; " description="&lt;b&gt;VFPPC_13440&lt;/b&gt;&lt;br&gt;hypothetical protein&lt;br&gt;Location: 3972707 - 3972433" locus_tag="VFPPC_13440" class="clusterblast-orf" id="dummy-4_h4_2_33"  />
</g>
<g id="a4_0034"  >
<polygon points="574,85 579,80 580,80 580,90 579,90 574,85 " style="fill:white; stroke-width:1; stroke:black; " description="&lt;b&gt;VFPPC_03275&lt;/b&gt;&lt;br&gt;hypothetical protein&lt;br&gt;Location: 3971576 - 3970338" locus_tag="VFPPC_03275" class="clusterblast-orf" id="dummy-4_h4_2_34"  />
</g>
<g id="a4_0035"  >
<polygon points="586,90 587,85 586,80 586,90 " style="fill:white; stroke-width:1; stroke:black; " description="&lt;b&gt;VFPPC_03274&lt;/b&gt;&lt;br&gt;hypothetical protein&lt;br&gt;Location: 3969114 - 3968872" locus_tag="VFPPC_03274" class="clusterblast-orf" id="dummy-4_h4_2_35"  />
</g>
<g id="a4_0036"  >
<polygon points="589,90 591,90 596,85 591,80 589,80 589,90 " style="fill:white; stroke-width:1; stroke:black; " description="&lt;b&gt;VFPPC_03273&lt;/b&gt;&lt;br&gt;hypothetical protein&lt;br&gt;Location: 3968492 - 3967086" locus_tag="VFPPC_03273" class="clusterblast-orf" id="dummy-4_h4_2_36"  />
</g>
<g id="a4_0037"  >
<polygon points="605,90 613,90 618,85 613,80 605,80 605,90 " style="fill:white; stroke-width:1; stroke:black; " description="&lt;b&gt;VFPPC_03272&lt;/b&gt;&lt;br&gt;fungal specific transcription factor domain-containing protein&lt;br&gt;Location: 3965292 - 3962813" locus_tag="VFPPC_03272" class="clusterblast-orf" id="dummy-4_h4_2_37"  />
</g>
<g id="a4_0038"  >
<polygon points="628,85 632,80 632,90 628,85 " style="fill:white; stroke-width:1; stroke:black; " description="&lt;b&gt;VFPPC_03270&lt;/b&gt;&lt;br&gt;v-ATPase proteolipid subunit&lt;br&gt;Location: 3960930 - 3960130" locus_tag="VFPPC_03270" class="clusterblast-orf" id="dummy-4_h4_2_38"  />
</g>
<g id="a4_0039"  >
<polygon points="639,85 640,80 640,90 639,85 " style="fill:white; stroke-width:1; stroke:black; " description="&lt;b&gt;VFPPC_03269&lt;/b&gt;&lt;br&gt;hypothetical protein&lt;br&gt;Location: 3958731 - 3958393" locus_tag="VFPPC_03269" class="clusterblast-orf" id="dummy-4_h4_2_39"  />
</g>
<g id="a4_0040"  >
<polygon points="651,85 653,80 653,90 651,85 " style="fill:white; stroke-width:1; stroke:black; " description="&lt;b&gt;VFPPC_17521&lt;/b&gt;&lt;br&gt;hypothetical protein&lt;br&gt;Location: 3956255 - 3955983" locus_tag="VFPPC_17521" class="clusterblast-orf" id="dummy-4_h4_2_40"  />
</g>
<g id="a4_0041"  >
<polygon points="666,90 669,85 666,80 666,90 " style="fill:white; stroke-width:1; stroke:black; " description="&lt;b&gt;VFPPC_17522&lt;/b&gt;&lt;br&gt;hypothetical protein&lt;br&gt;Location: 3953287 - 3952806" locus_tag="VFPPC_17522" class="clusterblast-orf" id="dummy-4_h4_2_41"  />
</g>
<g id="a4_0042"  >
<polygon points="690,90 693,85 690,80 690,90 " style="fill:white; stroke-width:1; stroke:black; " description="&lt;b&gt;VFPPC_13439&lt;/b&gt;&lt;br&gt;hypothetical protein&lt;br&gt;Location: 3948469 - 3948038" locus_tag="VFPPC_13439" class="clusterblast-orf" id="dummy-4_h4_2_42"  />
</g>
<g id="a4_0043"  >
<polygon points="699,90 701,85 699,80 699,90 " style="fill:white; stroke-width:1; stroke:black; " description="&lt;b&gt;VFPPC_13438&lt;/b&gt;&lt;br&gt;transmembrane alpha-helix domain-containing protein&lt;br&gt;Location: 3946865 - 3946442" locus_tag="VFPPC_13438" class="clusterblast-orf" id="dummy-4_h4_2_43"  />
</g>
<g id="a4_0044"  >
<polygon points="704,90 705,85 704,80 704,90 " style="fill:white; stroke-width:1; stroke:black; " description="&lt;b&gt;VFPPC_13437&lt;/b&gt;&lt;br&gt;ribosomal protein MRP10, mitochondrial&lt;br&gt;Location: 3945893 - 3945556" locus_tag="VFPPC_13437" class="clusterblast-orf" id="dummy-4_h4_2_44"  />
</g>
<g id="a4_0045"  >
<polygon points="711,85 716,80 727,80 727,90 716,90 711,85 " style="fill:white; stroke-width:1; stroke:black; " description="&lt;b&gt;VFPPC_03265&lt;/b&gt;&lt;br&gt;Rho guanyl nucleotide exchange factor&lt;br&gt;Location: 3944401 - 3941247" locus_tag="VFPPC_03265" class="clusterblast-orf" id="dummy-4_h4_2_45"  />
</g>
<g id="a4_0046"  >
<polygon points="738,85 739,80 739,90 738,85 " style="fill:white; stroke-width:1; stroke:black; " description="&lt;b&gt;VFPPC_03263&lt;/b&gt;&lt;br&gt;hypothetical protein&lt;br&gt;Location: 3939049 - 3938867" locus_tag="VFPPC_03263" class="clusterblast-orf" id="dummy-4_h4_2_46"  />
</g>
<g id="a4_0047"  >
<polygon points="744,90 745,85 744,80 744,90 " style="fill:white; stroke-width:1; stroke:black; " description="&lt;b&gt;VFPPC_15628&lt;/b&gt;&lt;br&gt;hypothetical protein&lt;br&gt;Location: 3937843 - 3937664" locus_tag="VFPPC_15628" class="clusterblast-orf" id="dummy-4_h4_2_47"  />
</g>
<g id="a4_0048"  >
<polygon points="758,90 768,90 773,85 768,80 758,80 758,90 " style="fill:white; stroke-width:1; stroke:black; " description="&lt;b&gt;VFPPC_03262&lt;/b&gt;&lt;br&gt;F-box and WD domain-containing protein&lt;br&gt;Location: 3935157 - 3932056" locus_tag="VFPPC_03262" class="clusterblast-orf" id="dummy-4_h4_2_48"  />
</g>
<g id="a4_0049"  >
<polygon points="776,85 780,80 780,90 776,85 " style="fill:white; stroke-width:1; stroke:black; " description="&lt;b&gt;VFPPC_13436&lt;/b&gt;&lt;br&gt;Snf7 protein&lt;br&gt;Location: 3931493 - 3930855" locus_tag="VFPPC_13436" class="clusterblast-orf" id="dummy-4_h4_2_49"  />
</g>
</svg>
