<svg xmlns="http://www.w3.org/2000/svg" xmlns:xlink="http://www.w3.org/1999/xlink" version="1.1" x="0" y="0" height="230" width="800" viewBox="0 0 800 230" preserveAspectRatio="none"  >
<g label="Query sequence" class="clusterblast-cluster"  >
<text x="5" y="20" class="clusterblast-acc"  >
Query sequence</text>
<line x1="10" y1="35" x2="778.0" y2="35" style="stroke-width:1; stroke:grey; "  />
<polygon points="98,40 115,40 120,35 115,30 98,30 98,40 " style="fill:#d81515; stroke-width:1; stroke:black; " description="&lt;b&gt;input.path1.gene53&lt;/b&gt;&lt;br&gt;input.path1.gene53&lt;br&gt;Location: 158362 - 160299" locus_tag="input.path1.gene53" class="clusterblast-orf" id="dummy-3_q0_0_all"  />
<polygon points="123,40 138,40 143,35 138,30 123,30 123,40 " style="fill:#33d815; stroke-width:1; stroke:black; " description="&lt;b&gt;input.path1.gene54&lt;/b&gt;&lt;br&gt;input.path1.gene54&lt;br&gt;Location: 160546 - 162277" locus_tag="input.path1.gene54" class="clusterblast-orf" id="dummy-3_q1_0_all"  />
<polygon points="144,35 149,30 163,30 163,40 149,40 144,35 " style="fill:#15abd8; stroke-width:1; stroke:black; " description="&lt;b&gt;input.path1.gene55&lt;/b&gt;&lt;br&gt;input.path1.gene55&lt;br&gt;Location: 162402 - 164034" locus_tag="input.path1.gene55" class="clusterblast-orf" id="dummy-3_q2_0_all"  />
<polygon points="164,40 167,35 164,30 164,40 " style="fill:white; stroke-width:1; stroke:black; " description="&lt;b&gt;input.path1.gene56&lt;/b&gt;&lt;br&gt;input.path1.gene56&lt;br&gt;Location: 164201 - 164403" locus_tag="input.path1.gene56" class="clusterblast-orf" id="dummy-3_q3_0_all"  />
<polygon points="179,40 181,40 186,35 181,30 179,30 179,40 " style="fill:white; stroke-width:1; stroke:black; " description="&lt;b&gt;input.path1.gene57&lt;/b&gt;&lt;br&gt;input.path1.gene57&lt;br&gt;Location: 165488 - 166090" locus_tag="input.path1.gene57" class="clusterblast-orf" id="dummy-3_q4_0_all"  />
<polygon points="187,35 192,30 260,30 260,40 192,40 187,35 " style="fill:#8d15d8; stroke-width:1; stroke:black; " description="&lt;b&gt;input.path1.gene58&lt;/b&gt;&lt;br&gt;input.path1.gene58&lt;br&gt;Location: 166179 - 172555" locus_tag="input.path1.gene58" class="clusterblast-orf" id="dummy-3_q5_0_all"  />
<polygon points="263,35 267,30 267,40 263,35 " style="fill:white; stroke-width:1; stroke:black; " description="&lt;b&gt;input.path1.gene59&lt;/b&gt;&lt;br&gt;input.path1.gene59&lt;br&gt;Location: 172808 - 173159" locus_tag="input.path1.gene59" class="clusterblast-orf" id="dummy-3_q6_0_all"  />
<polygon points="310,40 460,40 465,35 460,30 310,30 310,40 " style="fill:#d86f15; stroke-width:1; stroke:black; " description="&lt;b&gt;input.path1.gene60&lt;/b&gt;&lt;br&gt;input.path1.gene60&lt;br&gt;Location: 176990 - 190526" locus_tag="input.path1.gene60" class="clusterblast-orf" id="dummy-3_q7_0_all"  />
<polygon points="465,35 470,30 489,30 489,40 470,40 465,35 " style="fill:#15d851; stroke-width:1; stroke:black; " description="&lt;b&gt;input.path1.gene61&lt;/b&gt;&lt;br&gt;input.path1.gene61&lt;br&gt;Location: 190554 - 192644" locus_tag="input.path1.gene61" class="clusterblast-orf" id="dummy-3_q8_0_all"  />
<polygon points="512,40 525,40 530,35 525,30 512,30 512,40 " style="fill:#1551d8; stroke-width:1; stroke:black; " description="&lt;b&gt;input.path1.gene62&lt;/b&gt;&lt;br&gt;input.path1.gene62&lt;br&gt;Location: 194636 - 196215" locus_tag="input.path1.gene62" class="clusterblast-orf" id="dummy-3_q9_0_all"  />
<polygon points="531,35 536,30 543,30 543,40 536,40 531,35 " style="fill:#d815c9; stroke-width:1; stroke:black; " description="&lt;b&gt;input.path1.gene63&lt;/b&gt;&lt;br&gt;input.path1.gene63&lt;br&gt;Location: 196332 - 197383" locus_tag="input.path1.gene63" class="clusterblast-orf" id="dummy-3_q10_0_all"  />
<polygon points="558,35 563,30 571,30 571,40 563,40 558,35 " style="fill:#d8c915; stroke-width:1; stroke:black; " description="&lt;b&gt;input.path1.gene64&lt;/b&gt;&lt;br&gt;input.path1.gene64&lt;br&gt;Location: 198731 - 199842" locus_tag="input.path1.gene64" class="clusterblast-orf" id="dummy-3_q11_0_all"  />
<polygon points="581,35 586,30 589,30 589,40 586,40 581,35 " style="fill:white; stroke-width:1; stroke:black; " description="&lt;b&gt;input.path1.gene65&lt;/b&gt;&lt;br&gt;input.path1.gene65&lt;br&gt;Location: 200756 - 201437" locus_tag="input.path1.gene65" class="clusterblast-orf" id="dummy-3_q12_0_all"  />
<polygon points="597,35 602,30 605,30 605,40 602,40 597,35 " style="fill:#15d8ab; stroke-width:1; stroke:black; " description="&lt;b&gt;input.path1.gene66&lt;/b&gt;&lt;br&gt;input.path1.gene66&lt;br&gt;Location: 202097 - 202835" locus_tag="input.path1.gene66" class="clusterblast-orf" id="dummy-3_q13_0_all"  />
<polygon points="620,40 633,40 638,35 633,30 620,30 620,40 " style="fill:#3315d8; stroke-width:1; stroke:black; " description="&lt;b&gt;input.path1.gene67&lt;/b&gt;&lt;br&gt;input.path1.gene67&lt;br&gt;Location: 204137 - 205738" locus_tag="input.path1.gene67" class="clusterblast-orf" id="dummy-3_q14_0_all"  />
<polygon points="641,35 646,30 660,30 660,40 646,40 641,35 " style="fill:#d8156f; stroke-width:1; stroke:black; " description="&lt;b&gt;input.path1.gene68&lt;/b&gt;&lt;br&gt;input.path1.gene68&lt;br&gt;Location: 206021 - 207641" locus_tag="input.path1.gene68" class="clusterblast-orf" id="dummy-3_q15_0_all"  />
<polygon points="670,40 676,40 681,35 676,30 670,30 670,40 " style="fill:#8dd815; stroke-width:1; stroke:black; " description="&lt;b&gt;input.path1.gene69&lt;/b&gt;&lt;br&gt;input.path1.gene69&lt;br&gt;Location: 208507 - 209529" locus_tag="input.path1.gene69" class="clusterblast-orf" id="dummy-3_q16_0_all"  />
</g>
<g label="NW_014574715" description="NW_014574715 (339608-420863): Metarhizium brunneum ARSEF 3297 chromosome Unkn... (38% of genes show similarity), NRP-metallophore,NRPS" class="clusterblast-cluster"  >
<text x="5" y="70" class="clusterblast-acc"  >
<a xlink:href="https://antismash-db.secondarymetabolites.org/area?record=NW_014574715&amp;start=339608&amp;end=420863" target="_blank">NW_014574715 (339608-420863)</a>: Metarhizium brunneum ARSEF 3297 chromosome Unkn... (38% of genes show similarity), NRP-metallophore,NRPS</text>
<line x1="10" y1="85" x2="778.0" y2="85" style="stroke-width:1; stroke:grey; "  />
</g>
<g id="a3_000"  >
<polygon points="0,90 8,90 13,85 8,80 0,80 0,90 " style="fill:white; stroke-width:1; stroke:black; " description="&lt;b&gt;MBR_02218&lt;/b&gt;&lt;br&gt;F-box domain-containing protein&lt;br&gt;Location: 413640 - 412472" locus_tag="MBR_02218" class="clusterblast-orf" id="dummy-3_h3_7_0"  />
</g>
<g id="a3_001"  >
<polygon points="20,85 25,80 34,80 34,90 25,90 20,85 " style="fill:white; stroke-width:1; stroke:black; " description="&lt;b&gt;MBR_02217&lt;/b&gt;&lt;br&gt;Coiled-coil domain-containing protein 16&lt;br&gt;Location: 411823 - 410609" locus_tag="MBR_02217" class="clusterblast-orf" id="dummy-3_h3_7_1"  />
</g>
<g id="a3_002"  >
<polygon points="41,90 45,90 50,85 45,80 41,80 41,90 " style="fill:white; stroke-width:1; stroke:black; " description="&lt;b&gt;MBR_02216&lt;/b&gt;&lt;br&gt;mediator complex subunit 7&lt;br&gt;Location: 410040 - 409234" locus_tag="MBR_02216" class="clusterblast-orf" id="dummy-3_h3_7_2"  />
</g>
<g id="a3_003"  >
<polygon points="59,85 64,80 88,80 88,90 64,90 59,85 " style="fill:white; stroke-width:1; stroke:black; " description="&lt;b&gt;MBR_02215&lt;/b&gt;&lt;br&gt;Transcription factor S-II, central domain containing protein&lt;br&gt;Location: 408466 - 405897" locus_tag="MBR_02215" class="clusterblast-orf" id="dummy-3_h3_7_3"  />
</g>
<g id="a3_004"  >
<polygon points="106,90 111,90 116,85 111,80 106,80 106,90 " style="fill:white; stroke-width:1; stroke:black; " description="&lt;b&gt;MBR_02214&lt;/b&gt;&lt;br&gt;hypothetical protein&lt;br&gt;Location: 404332 - 403390" locus_tag="MBR_02214" class="clusterblast-orf" id="dummy-3_h3_7_4"  />
</g>
<g id="a3_005"  >
<polygon points="120,85 125,80 132,80 132,90 125,90 120,85 " style="fill:white; stroke-width:1; stroke:black; " description="&lt;b&gt;MBR_02213&lt;/b&gt;&lt;br&gt;PAP2 domain protein&lt;br&gt;Location: 403111 - 402008" locus_tag="MBR_02213" class="clusterblast-orf" id="dummy-3_h3_7_5"  />
</g>
<g id="a3_006"  >
<polygon points="139,90 153,90 158,85 153,80 139,80 139,90 " style="fill:#33d815; stroke-width:1; stroke:black; " description="&lt;b&gt;MBR_02212&lt;/b&gt;&lt;br&gt;FF domain protein&lt;br&gt;Location: 401444 - 399699&lt;br&gt;&lt;br&gt;&lt;b&gt;BlastP hit with input.path1.gene54&lt;/b&gt;&lt;br&gt;Percentage identity: 65&lt;br&gt;Percentage coverage: 102&lt;br&gt;BLAST bit score: 649&lt;br&gt;E-value: 1.49e-228" locus_tag="MBR_02212" class="clusterblast-orf" id="dummy-3_h3_7_6"  />
</g>
<g id="a3_007"  >
<polygon points="162,85 167,80 180,80 180,90 167,90 162,85 " style="fill:#15abd8; stroke-width:1; stroke:black; " description="&lt;b&gt;MBR_02211&lt;/b&gt;&lt;br&gt;translation initiation factor eIF-2B subunit family protein&lt;br&gt;Location: 399416 - 397838&lt;br&gt;&lt;br&gt;&lt;b&gt;BlastP hit with input.path1.gene55&lt;/b&gt;&lt;br&gt;Percentage identity: 48&lt;br&gt;Percentage coverage: 100&lt;br&gt;BLAST bit score: 450&lt;br&gt;E-value: 1.3e-152" locus_tag="MBR_02211" class="clusterblast-orf" id="dummy-3_h3_7_7"  />
</g>
<g id="a3_008"  >
<polygon points="185,85 190,80 213,80 213,90 190,90 185,85 " style="fill:#8d15d8; stroke-width:1; stroke:black; " description="&lt;b&gt;MBR_02210&lt;/b&gt;&lt;br&gt;Transcription factor, fungi&lt;br&gt;Location: 397356 - 394923&lt;br&gt;&lt;br&gt;&lt;b&gt;BlastP hit with input.path1.gene58&lt;/b&gt;&lt;br&gt;Percentage identity: 56&lt;br&gt;Percentage coverage: 45&lt;br&gt;BLAST bit score: 419&lt;br&gt;E-value: 3.3e-132" locus_tag="MBR_02210" class="clusterblast-orf" id="dummy-3_h3_7_8"  />
</g>
<g id="a3_009"  >
<polygon points="259,85 264,80 281,80 281,90 264,90 259,85 " style="fill:#8d15d8; stroke-width:1; stroke:black; " description="&lt;b&gt;MBR_02209&lt;/b&gt;&lt;br&gt;L-ornithine 5-monooxygenase (L-ornithine N(5)-oxygenase)&lt;br&gt;Location: 390863 - 388924&lt;br&gt;&lt;br&gt;&lt;b&gt;BlastP hit with input.path1.gene58&lt;/b&gt;&lt;br&gt;Percentage identity: 67&lt;br&gt;Percentage coverage: 51&lt;br&gt;BLAST bit score: 665&lt;br&gt;E-value: 3.55e-229" locus_tag="MBR_02209" class="clusterblast-orf" id="dummy-3_h3_7_9"  />
</g>
<g id="a3_0010"  >
<polygon points="335,90 497,90 502,85 497,80 335,80 335,90 " style="fill:#d86f15; stroke-width:1; stroke:black; " description="&lt;b&gt;MBR_02208&lt;/b&gt;&lt;br&gt;peptide synthetase&lt;br&gt;Location: 384260 - 369609&lt;br&gt;&lt;br&gt;&lt;b&gt;BlastP hit with input.path1.gene60&lt;/b&gt;&lt;br&gt;Percentage identity: 47&lt;br&gt;Percentage coverage: 102&lt;br&gt;BLAST bit score: 3849&lt;br&gt;E-value: 0.0" locus_tag="MBR_02208" class="clusterblast-orf" id="dummy-3_h3_7_10"  />
</g>
<g id="a3_0011"  >
<polygon points="503,85 508,80 523,80 523,90 508,90 503,85 " style="fill:white; stroke-width:1; stroke:black; " description="&lt;b&gt;MBR_02207&lt;/b&gt;&lt;br&gt;DUF1479 domain-containing protein&lt;br&gt;Location: 369457 - 367730" locus_tag="MBR_02207" class="clusterblast-orf" id="dummy-3_h3_7_11"  />
</g>
<g id="a3_0012"  >
<polygon points="535,85 540,80 554,80 554,90 540,90 535,85 " style="fill:#15d851; stroke-width:1; stroke:black; " description="&lt;b&gt;MBR_02206&lt;/b&gt;&lt;br&gt;choline oxidase (CodA)&lt;br&gt;Location: 366638 - 365004&lt;br&gt;&lt;br&gt;&lt;b&gt;BlastP hit with input.path1.gene61&lt;/b&gt;&lt;br&gt;Percentage identity: 84&lt;br&gt;Percentage coverage: 89&lt;br&gt;BLAST bit score: 956&lt;br&gt;E-value: 0.0" locus_tag="MBR_02206" class="clusterblast-orf" id="dummy-3_h3_7_12"  />
</g>
<g id="a3_0013"  >
<polygon points="591,90 603,90 608,85 603,80 591,80 591,90 " style="fill:#1551d8; stroke-width:1; stroke:black; " description="&lt;b&gt;MBR_02205&lt;/b&gt;&lt;br&gt;betaine aldehyde dehydrogenase&lt;br&gt;Location: 361786 - 360257&lt;br&gt;&lt;br&gt;&lt;b&gt;BlastP hit with input.path1.gene62&lt;/b&gt;&lt;br&gt;Percentage identity: 83&lt;br&gt;Percentage coverage: 99&lt;br&gt;BLAST bit score: 862&lt;br&gt;E-value: 6.08e-315" locus_tag="MBR_02205" class="clusterblast-orf" id="dummy-3_h3_7_13"  />
</g>
<g id="a3_0014"  >
<polygon points="614,85 619,80 622,80 622,90 619,90 614,85 " style="fill:white; stroke-width:1; stroke:black; " description="&lt;b&gt;MBR_02204&lt;/b&gt;&lt;br&gt;glyoxalase/bleomycin resistance protein/dioxygenase&lt;br&gt;Location: 359795 - 359085" locus_tag="MBR_02204" class="clusterblast-orf" id="dummy-3_h3_7_14"  />
</g>
<g id="a3_0015"  >
<polygon points="625,85 630,80 648,80 648,90 630,90 625,85 " style="fill:white; stroke-width:1; stroke:black; " description="&lt;b&gt;MBR_02203&lt;/b&gt;&lt;br&gt;amidase&lt;br&gt;Location: 358750 - 356814" locus_tag="MBR_02203" class="clusterblast-orf" id="dummy-3_h3_7_15"  />
</g>
<g id="a3_0016"  >
<polygon points="668,85 673,80 684,80 684,90 673,90 668,85 " style="fill:white; stroke-width:1; stroke:black; " description="&lt;b&gt;MBR_02202&lt;/b&gt;&lt;br&gt;proteinrelated to integral membrane protein pth11&lt;br&gt;Location: 355001 - 353610" locus_tag="MBR_02202" class="clusterblast-orf" id="dummy-3_h3_7_16"  />
</g>
<g id="a3_0017"  >
<polygon points="726,85 731,80 780,80 780,90 731,90 726,85 " style="fill:white; stroke-width:1; stroke:black; " description="&lt;b&gt;MBR_02201&lt;/b&gt;&lt;br&gt;ATP-binding cassette transporter ABC1&lt;br&gt;Location: 349954 - 345240" locus_tag="MBR_02201" class="clusterblast-orf" id="dummy-3_h3_7_17"  />
</g>
</svg>
