<svg xmlns="http://www.w3.org/2000/svg" xmlns:xlink="http://www.w3.org/1999/xlink" version="1.1" x="0" y="0" height="230" width="800" viewBox="0 0 800 230" preserveAspectRatio="none"  >
<g label="Query sequence" class="clusterblast-cluster"  >
<text x="5" y="20" class="clusterblast-acc"  >
Query sequence</text>
<line x1="10" y1="35" x2="778.0" y2="35" style="stroke-width:1; stroke:grey; "  />
<polygon points="0,40 29,40 34,35 29,30 0,30 0,40 " style="fill:#d81515; stroke-width:1; stroke:black; " description="&lt;b&gt;input.path1.gene76&lt;/b&gt;&lt;br&gt;input.path1.gene76&lt;br&gt;Location: 342425 - 344380" locus_tag="input.path1.gene76" class="clusterblast-orf" id="dummy-2_q0_0_all"  />
<polygon points="43,35 48,30 86,30 86,40 48,40 43,35 " style="fill:#3cd815; stroke-width:1; stroke:black; " description="&lt;b&gt;input.path1.gene77&lt;/b&gt;&lt;br&gt;input.path1.gene77&lt;br&gt;Location: 344888 - 347280" locus_tag="input.path1.gene77" class="clusterblast-orf" id="dummy-2_q1_0_all"  />
<polygon points="96,40 110,40 115,35 110,30 96,30 96,40 " style="fill:#1563d8; stroke-width:1; stroke:black; " description="&lt;b&gt;input.path1.gene78&lt;/b&gt;&lt;br&gt;input.path1.gene78&lt;br&gt;Location: 347876 - 348967" locus_tag="input.path1.gene78" class="clusterblast-orf" id="dummy-2_q2_0_all"  />
<polygon points="135,40 185,40 190,35 185,30 135,30 135,40 " style="fill:white; stroke-width:1; stroke:black; " description="&lt;b&gt;input.path1.gene79&lt;/b&gt;&lt;br&gt;input.path1.gene79&lt;br&gt;Location: 350081 - 353183" locus_tag="input.path1.gene79" class="clusterblast-orf" id="dummy-2_q3_0_all"  />
<polygon points="194,35 199,30 213,30 213,40 199,40 194,35 " style="fill:#b115d8; stroke-width:1; stroke:black; " description="&lt;b&gt;input.path1.gene80&lt;/b&gt;&lt;br&gt;input.path1.gene80&lt;br&gt;Location: 353407 - 354478" locus_tag="input.path1.gene80" class="clusterblast-orf" id="dummy-2_q4_0_all"  />
<polygon points="241,40 247,40 252,35 247,30 241,30 241,40 " style="fill:#d88a15; stroke-width:1; stroke:black; " description="&lt;b&gt;input.path1.gene81&lt;/b&gt;&lt;br&gt;input.path1.gene81&lt;br&gt;Location: 356070 - 356718" locus_tag="input.path1.gene81" class="clusterblast-orf" id="dummy-2_q5_0_all"  />
<polygon points="272,35 277,30 284,30 284,40 277,40 272,35 " style="fill:#15d863; stroke-width:1; stroke:black; " description="&lt;b&gt;input.path1.gene82&lt;/b&gt;&lt;br&gt;input.path1.gene82&lt;br&gt;Location: 357818 - 358508" locus_tag="input.path1.gene82" class="clusterblast-orf" id="dummy-2_q6_0_all"  />
<polygon points="297,35 302,30 429,30 429,40 302,40 297,35 " style="fill:#3c15d8; stroke-width:1; stroke:black; " description="&lt;b&gt;input.path1.gene83&lt;/b&gt;&lt;br&gt;input.path1.gene83&lt;br&gt;Location: 359261 - 366696" locus_tag="input.path1.gene83" class="clusterblast-orf" id="dummy-2_q7_0_all"  />
<polygon points="500,40 515,40 520,35 515,30 500,30 500,40 " style="fill:#d8158a; stroke-width:1; stroke:black; " description="&lt;b&gt;input.path1.gene84&lt;/b&gt;&lt;br&gt;input.path1.gene84&lt;br&gt;Location: 370739 - 371856" locus_tag="input.path1.gene84" class="clusterblast-orf" id="dummy-2_q8_0_all"  />
<polygon points="563,35 567,30 567,40 563,35 " style="fill:white; stroke-width:1; stroke:black; " description="&lt;b&gt;input.path1.gene85&lt;/b&gt;&lt;br&gt;input.path1.gene85&lt;br&gt;Location: 374281 - 374510" locus_tag="input.path1.gene85" class="clusterblast-orf" id="dummy-2_q9_0_all"  />
<polygon points="584,40 586,40 591,35 586,30 584,30 584,40 " style="fill:white; stroke-width:1; stroke:black; " description="&lt;b&gt;input.path1.gene86&lt;/b&gt;&lt;br&gt;input.path1.gene86&lt;br&gt;Location: 375442 - 375853" locus_tag="input.path1.gene86" class="clusterblast-orf" id="dummy-2_q10_0_all"  />
<polygon points="592,35 597,30 684,30 684,40 597,40 592,35 " style="fill:#b1d815; stroke-width:1; stroke:black; " description="&lt;b&gt;input.path1.gene87&lt;/b&gt;&lt;br&gt;input.path1.gene87&lt;br&gt;Location: 375931 - 381142" locus_tag="input.path1.gene87" class="clusterblast-orf" id="dummy-2_q11_0_all"  />
<polygon points="748,35 753,30 780,30 780,40 753,40 748,35 " style="fill:#15d8d8; stroke-width:1; stroke:black; " description="&lt;b&gt;input.path1.gene88&lt;/b&gt;&lt;br&gt;input.path1.gene88&lt;br&gt;Location: 384761 - 386536" locus_tag="input.path1.gene88" class="clusterblast-orf" id="dummy-2_q12_0_all"  />
</g>
<g label="NZ_CADEXC010000021" description="NZ_CADEXC010000021 (99760-141596): Burkholderia gladioli strain BCC1688, whol... (5% of genes show similarity), isocyanide" class="clusterblast-cluster"  >
<text x="5" y="70" class="clusterblast-acc"  >
<a xlink:href="https://antismash-db.secondarymetabolites.org/area?record=NZ_CADEXC010000021&amp;start=99760&amp;end=141596" target="_blank">NZ_CADEXC010000021 (99760-141596)</a>: Burkholderia gladioli strain BCC1688, whol... (5% of genes show similarity), isocyanide</text>
<line x1="10" y1="85" x2="778.0" y2="85" style="stroke-width:1; stroke:grey; "  />
</g>
<g id="a2_000"  >
<polygon points="35,85 40,80 51,80 51,90 40,90 35,85 " style="fill:white; stroke-width:1; stroke:black; " description="&lt;b&gt;H9D40_RS29970&lt;/b&gt;&lt;br&gt;ABC transporter substrate-binding protein&lt;br&gt;Location: 99952 - 100902" locus_tag="H9D40_RS29970" class="clusterblast-orf" id="dummy-2_h2_10_0"  />
</g>
<g id="a2_001"  >
<polygon points="59,90 62,85 59,80 59,90 " style="fill:white; stroke-width:1; stroke:black; " description="&lt;b&gt;H9D40_RS29975&lt;/b&gt;&lt;br&gt;DUF3562 domain-containing protein&lt;br&gt;Location: 101320 - 101514" locus_tag="H9D40_RS29975" class="clusterblast-orf" id="dummy-2_h2_10_1"  />
</g>
<g id="a2_002"  >
<polygon points="65,85 70,80 77,80 77,90 70,90 65,85 " style="fill:white; stroke-width:1; stroke:black; " description="&lt;b&gt;H9D40_RS29980&lt;/b&gt;&lt;br&gt;LysE family translocator&lt;br&gt;Location: 101693 - 102331" locus_tag="H9D40_RS29980" class="clusterblast-orf" id="dummy-2_h2_10_2"  />
</g>
<g id="a2_003"  >
<polygon points="78,85 83,80 96,80 96,90 83,90 78,85 " style="fill:white; stroke-width:1; stroke:black; " description="&lt;b&gt;H9D40_RS29985&lt;/b&gt;&lt;br&gt;sensor domain-containing diguanylate cyclase&lt;br&gt;Location: 102425 - 103399" locus_tag="H9D40_RS29985" class="clusterblast-orf" id="dummy-2_h2_10_3"  />
</g>
<g id="a2_004"  >
<polygon points="103,90 106,85 103,80 103,90 " style="fill:white; stroke-width:1; stroke:black; " description="&lt;b&gt;H9D40_RS29990&lt;/b&gt;&lt;br&gt;hypothetical protein&lt;br&gt;Location: 103798 - 103998" locus_tag="H9D40_RS29990" class="clusterblast-orf" id="dummy-2_h2_10_4"  />
</g>
<g id="a2_005"  >
<polygon points="107,90 139,90 144,85 139,80 107,80 107,90 " style="fill:#d81515; stroke-width:1; stroke:black; " description="&lt;b&gt;H9D40_RS29995&lt;/b&gt;&lt;br&gt;phospholipase C, phosphocholine-specific&lt;br&gt;Location: 104037 - 106166&lt;br&gt;&lt;br&gt;&lt;b&gt;BlastP hit with input.path1.gene76&lt;/b&gt;&lt;br&gt;Percentage identity: 35&lt;br&gt;Percentage coverage: 70&lt;br&gt;BLAST bit score: 218&lt;br&gt;E-value: 4.14e-60" locus_tag="H9D40_RS29995" class="clusterblast-orf" id="dummy-2_h2_10_5"  />
</g>
<g id="a2_006"  >
<polygon points="150,90 154,85 150,80 150,90 " style="fill:white; stroke-width:1; stroke:black; " description="&lt;b&gt;H9D40_RS30000&lt;/b&gt;&lt;br&gt;hypothetical protein&lt;br&gt;Location: 106476 - 106694" locus_tag="H9D40_RS30000" class="clusterblast-orf" id="dummy-2_h2_10_6"  />
</g>
<g id="a2_007"  >
<polygon points="156,85 161,80 163,80 163,90 161,90 156,85 " style="fill:white; stroke-width:1; stroke:black; " description="&lt;b&gt;H9D40_RS30005&lt;/b&gt;&lt;br&gt;CBS domain-containing protein&lt;br&gt;Location: 106808 - 107236" locus_tag="H9D40_RS30005" class="clusterblast-orf" id="dummy-2_h2_10_7"  />
</g>
<g id="a2_008"  >
<polygon points="166,90 171,90 176,85 171,80 166,80 166,90 " style="fill:white; stroke-width:1; stroke:black; " description="&lt;b&gt;H9D40_RS30010&lt;/b&gt;&lt;br&gt;hypothetical protein&lt;br&gt;Location: 107389 - 107940" locus_tag="H9D40_RS30010" class="clusterblast-orf" id="dummy-2_h2_10_8"  />
</g>
<g id="a2_009"  >
<polygon points="180,90 185,90 190,85 185,80 180,80 180,90 " style="fill:white; stroke-width:1; stroke:black; " description="&lt;b&gt;H9D40_RS30015&lt;/b&gt;&lt;br&gt;DUF3005 domain-containing protein&lt;br&gt;Location: 108175 - 108729" locus_tag="H9D40_RS30015" class="clusterblast-orf" id="dummy-2_h2_10_9"  />
</g>
<g id="a2_0010"  >
<polygon points="197,90 214,90 219,85 214,80 197,80 197,90 " style="fill:white; stroke-width:1; stroke:black; " description="&lt;b&gt;H9D40_RS30020&lt;/b&gt;&lt;br&gt;YeeE/YedE family protein&lt;br&gt;Location: 109139 - 110365" locus_tag="H9D40_RS30020" class="clusterblast-orf" id="dummy-2_h2_10_10"  />
</g>
<g id="a2_0011"  >
<polygon points="223,90 225,90 230,85 225,80 223,80 223,90 " style="fill:white; stroke-width:1; stroke:black; " description="&lt;b&gt;H9D40_RS30025&lt;/b&gt;&lt;br&gt;hypothetical protein&lt;br&gt;Location: 110592 - 111014" locus_tag="H9D40_RS30025" class="clusterblast-orf" id="dummy-2_h2_10_11"  />
</g>
<g id="a2_0012"  >
<polygon points="230,90 236,90 241,85 236,80 230,80 230,90 " style="fill:white; stroke-width:1; stroke:black; " description="&lt;b&gt;H9D40_RS30030&lt;/b&gt;&lt;br&gt;hypothetical protein&lt;br&gt;Location: 111014 - 111631" locus_tag="H9D40_RS30030" class="clusterblast-orf" id="dummy-2_h2_10_12"  />
</g>
<g id="a2_0013"  >
<polygon points="242,85 247,80 250,80 250,90 247,90 242,85 " style="fill:white; stroke-width:1; stroke:black; " description="&lt;b&gt;H9D40_RS30035&lt;/b&gt;&lt;br&gt;hypothetical protein&lt;br&gt;Location: 111657 - 112145" locus_tag="H9D40_RS30035" class="clusterblast-orf" id="dummy-2_h2_10_13"  />
</g>
<g id="a2_0014"  >
<polygon points="252,90 258,90 263,85 258,80 252,80 252,90 " style="fill:white; stroke-width:1; stroke:black; " description="&lt;b&gt;H9D40_RS30040&lt;/b&gt;&lt;br&gt;hypothetical protein&lt;br&gt;Location: 112248 - 112895" locus_tag="H9D40_RS30040" class="clusterblast-orf" id="dummy-2_h2_10_14"  />
</g>
<g id="a2_0015"  >
<polygon points="265,90 273,90 278,85 273,80 265,80 265,90 " style="fill:white; stroke-width:1; stroke:black; " description="&lt;b&gt;H9D40_RS30045&lt;/b&gt;&lt;br&gt;DNA/RNA non-specific endonuclease&lt;br&gt;Location: 112996 - 113742" locus_tag="H9D40_RS30045" class="clusterblast-orf" id="dummy-2_h2_10_15"  />
</g>
<g id="a2_0016"  >
<polygon points="278,90 278,90 283,85 278,80 278,80 278,90 " style="fill:white; stroke-width:1; stroke:black; " description="&lt;b&gt;H9D40_RS30050&lt;/b&gt;&lt;br&gt;hypothetical protein&lt;br&gt;Location: 113735 - 114004" locus_tag="H9D40_RS30050" class="clusterblast-orf" id="dummy-2_h2_10_16"  />
</g>
<g id="a2_0017"  >
<polygon points="284,85 289,80 303,80 303,90 289,90 284,85 " style="fill:white; stroke-width:1; stroke:black; " description="&lt;b&gt;H9D40_RS30055&lt;/b&gt;&lt;br&gt;LLM class flavin-dependent oxidoreductase&lt;br&gt;Location: 114063 - 115124" locus_tag="H9D40_RS30055" class="clusterblast-orf" id="dummy-2_h2_10_17"  />
</g>
<g id="a2_0018"  >
<polygon points="307,90 318,90 323,85 318,80 307,80 307,90 " style="fill:white; stroke-width:1; stroke:black; " description="&lt;b&gt;H9D40_RS30065&lt;/b&gt;&lt;br&gt;GlxA family transcriptional regulator&lt;br&gt;Location: 115332 - 116276" locus_tag="H9D40_RS30065" class="clusterblast-orf" id="dummy-2_h2_10_18"  />
</g>
<g id="a2_0019"  >
<polygon points="337,90 349,90 354,85 349,80 337,80 337,90 " style="fill:#3c15d8; stroke-width:1; stroke:black; " description="&lt;b&gt;H9D40_RS30070&lt;/b&gt;&lt;br&gt;isocyanide synthase family protein&lt;br&gt;Location: 117044 - 118027&lt;br&gt;&lt;br&gt;&lt;b&gt;BlastP hit with input.path1.gene83&lt;/b&gt;&lt;br&gt;Percentage identity: 32&lt;br&gt;Percentage coverage: 14&lt;br&gt;BLAST bit score: 123&lt;br&gt;E-value: 4.57e-28" locus_tag="H9D40_RS30070" class="clusterblast-orf" id="dummy-2_h2_10_19"  />
</g>
<g id="a2_0020"  >
<polygon points="355,90 371,90 376,85 371,80 355,80 355,90 " style="fill:white; stroke-width:1; stroke:black; " description="&lt;b&gt;H9D40_RS30075&lt;/b&gt;&lt;br&gt;Bcr/CflA family efflux MFS transporter&lt;br&gt;Location: 118056 - 119264" locus_tag="H9D40_RS30075" class="clusterblast-orf" id="dummy-2_h2_10_20"  />
</g>
<g id="a2_0021"  >
<polygon points="377,90 380,90 385,85 380,80 377,80 377,90 " style="fill:white; stroke-width:1; stroke:black; " description="&lt;b&gt;H9D40_RS30080&lt;/b&gt;&lt;br&gt;protein tyrosine phosphatase family protein&lt;br&gt;Location: 119294 - 119764" locus_tag="H9D40_RS30080" class="clusterblast-orf" id="dummy-2_h2_10_21"  />
</g>
<g id="a2_0022"  >
<polygon points="385,90 412,90 417,85 412,80 385,80 385,90 " style="fill:white; stroke-width:1; stroke:black; " description="&lt;b&gt;H9D40_RS30085&lt;/b&gt;&lt;br&gt;L-tyrosine/L-tryptophan isonitrile synthase family protein&lt;br&gt;Location: 119761 - 121596" locus_tag="H9D40_RS30085" class="clusterblast-orf" id="dummy-2_h2_10_22"  />
</g>
<g id="a2_0023"  >
<polygon points="418,90 436,90 441,85 436,80 418,80 418,90 " style="fill:white; stroke-width:1; stroke:black; " description="&lt;b&gt;H9D40_RS30090&lt;/b&gt;&lt;br&gt;glycosyl transferase family 1&lt;br&gt;Location: 121622 - 122911" locus_tag="H9D40_RS30090" class="clusterblast-orf" id="dummy-2_h2_10_23"  />
</g>
<g id="a2_0024"  >
<polygon points="442,90 481,90 486,85 481,80 442,80 442,90 " style="fill:white; stroke-width:1; stroke:black; " description="&lt;b&gt;H9D40_RS30095&lt;/b&gt;&lt;br&gt;hypothetical protein&lt;br&gt;Location: 123018 - 125456" locus_tag="H9D40_RS30095" class="clusterblast-orf" id="dummy-2_h2_10_24"  />
</g>
<g id="a2_0025"  >
<polygon points="486,90 493,90 498,85 493,80 486,80 486,90 " style="fill:white; stroke-width:1; stroke:black; " description="&lt;b&gt;H9D40_RS30100&lt;/b&gt;&lt;br&gt;class I SAM-dependent methyltransferase&lt;br&gt;Location: 125467 - 126147" locus_tag="H9D40_RS30100" class="clusterblast-orf" id="dummy-2_h2_10_25"  />
</g>
<g id="a2_0026"  >
<polygon points="498,90 518,90 523,85 518,80 498,80 498,90 " style="fill:white; stroke-width:1; stroke:black; " description="&lt;b&gt;H9D40_RS30105&lt;/b&gt;&lt;br&gt;UbiA family prenyltransferase&lt;br&gt;Location: 126165 - 127583" locus_tag="H9D40_RS30105" class="clusterblast-orf" id="dummy-2_h2_10_26"  />
</g>
<g id="a2_0027"  >
<polygon points="523,90 543,90 548,85 543,80 523,80 523,90 " style="fill:white; stroke-width:1; stroke:black; " description="&lt;b&gt;H9D40_RS30110&lt;/b&gt;&lt;br&gt;FAD-binding oxidoreductase&lt;br&gt;Location: 127580 - 128962" locus_tag="H9D40_RS30110" class="clusterblast-orf" id="dummy-2_h2_10_27"  />
</g>
<g id="a2_0028"  >
<polygon points="548,90 556,90 561,85 556,80 548,80 548,90 " style="fill:white; stroke-width:1; stroke:black; " description="&lt;b&gt;H9D40_RS30115&lt;/b&gt;&lt;br&gt;SDR family oxidoreductase&lt;br&gt;Location: 128959 - 129699" locus_tag="H9D40_RS30115" class="clusterblast-orf" id="dummy-2_h2_10_28"  />
</g>
<g id="a2_0029"  >
<polygon points="561,90 572,90 577,85 572,80 561,80 561,90 " style="fill:white; stroke-width:1; stroke:black; " description="&lt;b&gt;H9D40_RS30120&lt;/b&gt;&lt;br&gt;NAD-dependent epimerase/dehydratase family protein&lt;br&gt;Location: 129696 - 130631" locus_tag="H9D40_RS30120" class="clusterblast-orf" id="dummy-2_h2_10_29"  />
</g>
<g id="a2_0030"  >
<polygon points="577,90 595,90 600,85 595,80 577,80 577,90 " style="fill:white; stroke-width:1; stroke:black; " description="&lt;b&gt;H9D40_RS30125&lt;/b&gt;&lt;br&gt;NAD(P)/FAD-dependent oxidoreductase&lt;br&gt;Location: 130642 - 131937" locus_tag="H9D40_RS30125" class="clusterblast-orf" id="dummy-2_h2_10_30"  />
</g>
<g id="a2_0031"  >
<polygon points="600,90 603,90 608,85 603,80 600,80 600,90 " style="fill:white; stroke-width:1; stroke:black; " description="&lt;b&gt;H9D40_RS30130&lt;/b&gt;&lt;br&gt;GtrA family protein&lt;br&gt;Location: 131934 - 132392" locus_tag="H9D40_RS30130" class="clusterblast-orf" id="dummy-2_h2_10_31"  />
</g>
<g id="a2_0032"  >
<polygon points="609,85 614,80 614,80 614,90 614,90 609,85 " style="fill:white; stroke-width:1; stroke:black; " description="&lt;b&gt;H9D40_RS30135&lt;/b&gt;&lt;br&gt;hypothetical protein&lt;br&gt;Location: 132417 - 132734" locus_tag="H9D40_RS30135" class="clusterblast-orf" id="dummy-2_h2_10_32"  />
</g>
<g id="a2_0033"  >
<polygon points="614,85 619,80 639,80 639,90 619,90 614,85 " style="fill:white; stroke-width:1; stroke:black; " description="&lt;b&gt;H9D40_RS30140&lt;/b&gt;&lt;br&gt;DUF1446 domain-containing protein&lt;br&gt;Location: 132721 - 134133" locus_tag="H9D40_RS30140" class="clusterblast-orf" id="dummy-2_h2_10_33"  />
</g>
<g id="a2_0034"  >
<polygon points="640,85 645,80 663,80 663,90 645,90 640,85 " style="fill:white; stroke-width:1; stroke:black; " description="&lt;b&gt;H9D40_RS30145&lt;/b&gt;&lt;br&gt;citrate:proton symporter&lt;br&gt;Location: 134207 - 135514" locus_tag="H9D40_RS30145" class="clusterblast-orf" id="dummy-2_h2_10_34"  />
</g>
<g id="a2_0035"  >
<polygon points="665,90 676,90 681,85 676,80 665,80 665,90 " style="fill:white; stroke-width:1; stroke:black; " description="&lt;b&gt;H9D40_RS30150&lt;/b&gt;&lt;br&gt;LysR family transcriptional regulator&lt;br&gt;Location: 135614 - 136504" locus_tag="H9D40_RS30150" class="clusterblast-orf" id="dummy-2_h2_10_35"  />
</g>
<g id="a2_0036"  >
<polygon points="687,90 697,90 702,85 697,80 687,80 687,90 " style="fill:white; stroke-width:1; stroke:black; " description="&lt;b&gt;H9D40_RS30155&lt;/b&gt;&lt;br&gt;transporter substrate-binding domain-containing protein&lt;br&gt;Location: 136820 - 137668" locus_tag="H9D40_RS30155" class="clusterblast-orf" id="dummy-2_h2_10_36"  />
</g>
<g id="a2_0037"  >
<polygon points="704,90 711,90 716,85 711,80 704,80 704,90 " style="fill:white; stroke-width:1; stroke:black; " description="&lt;b&gt;H9D40_RS30160&lt;/b&gt;&lt;br&gt;ABC transporter permease subunit&lt;br&gt;Location: 137782 - 138507" locus_tag="H9D40_RS30160" class="clusterblast-orf" id="dummy-2_h2_10_37"  />
</g>
<g id="a2_0038"  >
<polygon points="717,90 725,90 730,85 725,80 717,80 717,90 " style="fill:white; stroke-width:1; stroke:black; " description="&lt;b&gt;H9D40_RS30165&lt;/b&gt;&lt;br&gt;ABC transporter permease subunit&lt;br&gt;Location: 138526 - 139272" locus_tag="H9D40_RS30165" class="clusterblast-orf" id="dummy-2_h2_10_38"  />
</g>
<g id="a2_0039"  >
<polygon points="730,90 739,90 744,85 739,80 730,80 730,90 " style="fill:white; stroke-width:1; stroke:black; " description="&lt;b&gt;H9D40_RS30170&lt;/b&gt;&lt;br&gt;ATP-binding cassette domain-containing protein&lt;br&gt;Location: 139299 - 140090" locus_tag="H9D40_RS30170" class="clusterblast-orf" id="dummy-2_h2_10_39"  />
</g>
</svg>
