<svg xmlns="http://www.w3.org/2000/svg" xmlns:xlink="http://www.w3.org/1999/xlink" version="1.1" x="0" y="0" height="230" width="800" viewBox="0 0 800 230" preserveAspectRatio="none"  >
<g label="Query sequence" class="clusterblast-cluster"  >
<text x="5" y="20" class="clusterblast-acc"  >
Query sequence</text>
<line x1="10" y1="35" x2="778.0" y2="35" style="stroke-width:1; stroke:grey; "  />
<polygon points="184,40 193,40 198,35 193,30 184,30 184,40 " style="fill:#d81515; stroke-width:1; stroke:black; " description="&lt;b&gt;input.path1.gene1122&lt;/b&gt;&lt;br&gt;input.path1.gene1122&lt;br&gt;Location: 4328458 - 4329855" locus_tag="input.path1.gene1122" class="clusterblast-orf" id="dummy-8_q0_0_all"  />
<polygon points="212,40 212,40 217,35 212,30 212,30 212,40 " style="fill:#3cd815; stroke-width:1; stroke:black; " description="&lt;b&gt;input.path1.gene1123&lt;/b&gt;&lt;br&gt;input.path1.gene1123&lt;br&gt;Location: 4331233 - 4331687" locus_tag="input.path1.gene1123" class="clusterblast-orf" id="dummy-8_q1_0_all"  />
<polygon points="217,35 222,30 240,30 240,40 222,40 217,35 " style="fill:#1563d8; stroke-width:1; stroke:black; " description="&lt;b&gt;input.path1.gene1124&lt;/b&gt;&lt;br&gt;input.path1.gene1124&lt;br&gt;Location: 4331757 - 4334010" locus_tag="input.path1.gene1124" class="clusterblast-orf" id="dummy-8_q2_0_all"  />
<polygon points="260,40 264,35 260,30 260,40 " style="fill:white; stroke-width:1; stroke:black; " description="&lt;b&gt;input.path1.gene1125&lt;/b&gt;&lt;br&gt;input.path1.gene1125&lt;br&gt;Location: 4335971 - 4336371" locus_tag="input.path1.gene1125" class="clusterblast-orf" id="dummy-8_q3_0_all"  />
<polygon points="269,35 274,30 285,30 285,40 274,40 269,35 " style="fill:#b115d8; stroke-width:1; stroke:black; " description="&lt;b&gt;input.path1.gene1126&lt;/b&gt;&lt;br&gt;input.path1.gene1126&lt;br&gt;Location: 4336847 - 4338524" locus_tag="input.path1.gene1126" class="clusterblast-orf" id="dummy-8_q4_0_all"  />
<polygon points="308,35 313,30 317,30 317,40 313,40 308,35 " style="fill:#d88a15; stroke-width:1; stroke:black; " description="&lt;b&gt;input.path1.gene1127&lt;/b&gt;&lt;br&gt;input.path1.gene1127&lt;br&gt;Location: 4340741 - 4341692" locus_tag="input.path1.gene1127" class="clusterblast-orf" id="dummy-8_q5_0_all"  />
<polygon points="373,40 439,40 444,35 439,30 373,30 373,40 " style="fill:#15d863; stroke-width:1; stroke:black; " description="&lt;b&gt;input.path1.gene1128&lt;/b&gt;&lt;br&gt;input.path1.gene1128&lt;br&gt;Location: 4347222 - 4354354" locus_tag="input.path1.gene1128" class="clusterblast-orf" id="dummy-8_q6_0_all"  />
<polygon points="452,40 464,40 469,35 464,30 452,30 452,40 " style="fill:#3c15d8; stroke-width:1; stroke:black; " description="&lt;b&gt;input.path1.gene1129&lt;/b&gt;&lt;br&gt;input.path1.gene1129&lt;br&gt;Location: 4355079 - 4356813" locus_tag="input.path1.gene1129" class="clusterblast-orf" id="dummy-8_q7_0_all"  />
<polygon points="475,35 480,30 512,30 512,40 480,40 475,35 " style="fill:#d8158a; stroke-width:1; stroke:black; " description="&lt;b&gt;input.path1.gene1130&lt;/b&gt;&lt;br&gt;input.path1.gene1130&lt;br&gt;Location: 4357368 - 4361088" locus_tag="input.path1.gene1130" class="clusterblast-orf" id="dummy-8_q8_0_all"  />
<polygon points="553,40 567,40 572,35 567,30 553,30 553,40 " style="fill:#b1d815; stroke-width:1; stroke:black; " description="&lt;b&gt;input.path1.gene1131&lt;/b&gt;&lt;br&gt;input.path1.gene1131&lt;br&gt;Location: 4365151 - 4367050" locus_tag="input.path1.gene1131" class="clusterblast-orf" id="dummy-8_q9_0_all"  />
<polygon points="583,35 588,30 595,30 595,40 588,40 583,35 " style="fill:#15d8d8; stroke-width:1; stroke:black; " description="&lt;b&gt;input.path1.gene1132&lt;/b&gt;&lt;br&gt;input.path1.gene1132&lt;br&gt;Location: 4368152 - 4369337" locus_tag="input.path1.gene1132" class="clusterblast-orf" id="dummy-8_q10_0_all"  />
</g>
<g label="NW_013581198" description="NW_013581198 (762797-842941): Aureobasidium namibiae CBS 147.97 unplaced geno... (7% of genes show similarity), NRPS-like,T1PKS" class="clusterblast-cluster"  >
<text x="5" y="70" class="clusterblast-acc"  >
<a xlink:href="https://antismash-db.secondarymetabolites.org/area?record=NW_013581198&amp;start=762797&amp;end=842941" target="_blank">NW_013581198 (762797-842941)</a>: Aureobasidium namibiae CBS 147.97 unplaced geno... (7% of genes show similarity), NRPS-like,T1PKS</text>
<line x1="10" y1="85" x2="778.0" y2="85" style="stroke-width:1; stroke:grey; "  />
</g>
<g id="a8_000"  >
<polygon points="0,85 5,80 5,80 5,90 5,90 0,85 " style="fill:white; stroke-width:1; stroke:black; " description="&lt;b&gt;M436DRAFT_49259&lt;/b&gt;&lt;br&gt;hypothetical protein&lt;br&gt;Location: 763667 - 764234" locus_tag="M436DRAFT_49259" class="clusterblast-orf" id="dummy-8_h8_9_0"  />
</g>
<g id="a8_001"  >
<polygon points="25,90 26,90 31,85 26,80 25,80 25,90 " style="fill:white; stroke-width:1; stroke:black; " description="&lt;b&gt;M436DRAFT_49433&lt;/b&gt;&lt;br&gt;hypothetical protein&lt;br&gt;Location: 766214 - 766849" locus_tag="M436DRAFT_49433" class="clusterblast-orf" id="dummy-8_h8_9_1"  />
</g>
<g id="a8_002"  >
<polygon points="35,85 40,80 54,80 54,90 40,90 35,85 " style="fill:white; stroke-width:1; stroke:black; " description="&lt;b&gt;M436DRAFT_49251&lt;/b&gt;&lt;br&gt;hypothetical protein&lt;br&gt;Location: 767239 - 769046" locus_tag="M436DRAFT_49251" class="clusterblast-orf" id="dummy-8_h8_9_2"  />
</g>
<g id="a8_003"  >
<polygon points="59,85 64,80 70,80 70,90 64,90 59,85 " style="fill:white; stroke-width:1; stroke:black; " description="&lt;b&gt;M436DRAFT_83101&lt;/b&gt;&lt;br&gt;putative RTA1 domain protein&lt;br&gt;Location: 769575 - 770640" locus_tag="M436DRAFT_83101" class="clusterblast-orf" id="dummy-8_h8_9_3"  />
</g>
<g id="a8_004"  >
<polygon points="86,90 95,90 100,85 95,80 86,80 86,90 " style="fill:white; stroke-width:1; stroke:black; " description="&lt;b&gt;M436DRAFT_49469&lt;/b&gt;&lt;br&gt;hypothetical protein&lt;br&gt;Location: 772319 - 773671" locus_tag="M436DRAFT_49469" class="clusterblast-orf" id="dummy-8_h8_9_4"  />
</g>
<g id="a8_005"  >
<polygon points="115,85 120,80 127,80 127,90 120,90 115,85 " style="fill:white; stroke-width:1; stroke:black; " description="&lt;b&gt;M436DRAFT_49398&lt;/b&gt;&lt;br&gt;CBD9-like protein&lt;br&gt;Location: 775124 - 776330" locus_tag="M436DRAFT_49398" class="clusterblast-orf" id="dummy-8_h8_9_5"  />
</g>
<g id="a8_006"  >
<polygon points="150,90 153,85 150,80 150,90 " style="fill:white; stroke-width:1; stroke:black; " description="&lt;b&gt;M436DRAFT_49625&lt;/b&gt;&lt;br&gt;hypothetical protein&lt;br&gt;Location: 778648 - 778963" locus_tag="M436DRAFT_49625" class="clusterblast-orf" id="dummy-8_h8_9_6"  />
</g>
<g id="a8_007"  >
<polygon points="164,90 177,90 182,85 177,80 164,80 164,90 " style="fill:white; stroke-width:1; stroke:black; " description="&lt;b&gt;M436DRAFT_49499&lt;/b&gt;&lt;br&gt;putative ferulic acid Esterase/Feruloyl esterase&lt;br&gt;Location: 780074 - 781848" locus_tag="M436DRAFT_49499" class="clusterblast-orf" id="dummy-8_h8_9_7"  />
</g>
<g id="a8_008"  >
<polygon points="192,90 208,90 213,85 208,80 192,80 192,90 " style="fill:white; stroke-width:1; stroke:black; " description="&lt;b&gt;M436DRAFT_49689&lt;/b&gt;&lt;br&gt;hypothetical protein&lt;br&gt;Location: 782784 - 784886" locus_tag="M436DRAFT_49689" class="clusterblast-orf" id="dummy-8_h8_9_8"  />
</g>
<g id="a8_009"  >
<polygon points="213,85 218,80 224,80 224,90 218,90 213,85 " style="fill:white; stroke-width:1; stroke:black; " description="&lt;b&gt;M436DRAFT_49609&lt;/b&gt;&lt;br&gt;hypothetical protein&lt;br&gt;Location: 784894 - 785988" locus_tag="M436DRAFT_49609" class="clusterblast-orf" id="dummy-8_h8_9_9"  />
</g>
<g id="a8_0010"  >
<polygon points="228,90 239,90 244,85 239,80 228,80 228,90 " style="fill:#1563d8; stroke-width:1; stroke:black; " description="&lt;b&gt;M436DRAFT_49090&lt;/b&gt;&lt;br&gt;MFS general substrate transporter&lt;br&gt;Location: 786453 - 787966&lt;br&gt;&lt;br&gt;&lt;b&gt;BlastP hit with input.path1.gene1124&lt;/b&gt;&lt;br&gt;Percentage identity: 32&lt;br&gt;Percentage coverage: 91&lt;br&gt;BLAST bit score: 233&lt;br&gt;E-value: 7.28e-68" locus_tag="M436DRAFT_49090" class="clusterblast-orf" id="dummy-8_h8_9_10"  />
</g>
<g id="a8_0011"  >
<polygon points="246,85 251,80 253,80 253,90 251,90 246,85 " style="fill:white; stroke-width:1; stroke:black; " description="&lt;b&gt;M436DRAFT_49535&lt;/b&gt;&lt;br&gt;putative integral membrane protein, Mpv17/PMP22 family&lt;br&gt;Location: 788163 - 788931" locus_tag="M436DRAFT_49535" class="clusterblast-orf" id="dummy-8_h8_9_11"  />
</g>
<g id="a8_0012"  >
<polygon points="256,85 261,80 263,80 263,90 261,90 256,85 " style="fill:white; stroke-width:1; stroke:black; " description="&lt;b&gt;M436DRAFT_83109&lt;/b&gt;&lt;br&gt;hypothetical protein&lt;br&gt;Location: 789172 - 789903" locus_tag="M436DRAFT_83109" class="clusterblast-orf" id="dummy-8_h8_9_12"  />
</g>
<g id="a8_0013"  >
<polygon points="274,85 279,80 287,80 287,90 279,90 274,85 " style="fill:white; stroke-width:1; stroke:black; " description="&lt;b&gt;M436DRAFT_49662&lt;/b&gt;&lt;br&gt;2-dehydropantoate 2-reductase&lt;br&gt;Location: 791017 - 792310" locus_tag="M436DRAFT_49662" class="clusterblast-orf" id="dummy-8_h8_9_13"  />
</g>
<g id="a8_0014"  >
<polygon points="292,85 297,80 324,80 324,90 297,90 292,85 " style="fill:white; stroke-width:1; stroke:black; " description="&lt;b&gt;M436DRAFT_49412&lt;/b&gt;&lt;br&gt;acetyl-CoA synthetase-like protein&lt;br&gt;Location: 792798 - 795978" locus_tag="M436DRAFT_49412" class="clusterblast-orf" id="dummy-8_h8_9_14"  />
</g>
<g id="a8_0015"  >
<polygon points="332,85 336,80 336,90 332,85 " style="fill:white; stroke-width:1; stroke:black; " description="&lt;b&gt;M436DRAFT_49176&lt;/b&gt;&lt;br&gt;hypothetical protein&lt;br&gt;Location: 796715 - 797208" locus_tag="M436DRAFT_49176" class="clusterblast-orf" id="dummy-8_h8_9_15"  />
</g>
<g id="a8_0016"  >
<polygon points="351,90 372,90 377,85 372,80 351,80 351,90 " style="fill:white; stroke-width:1; stroke:black; " description="&lt;b&gt;M436DRAFT_73935&lt;/b&gt;&lt;br&gt;Six-hairpin glycosidase&lt;br&gt;Location: 798617 - 801244" locus_tag="M436DRAFT_73935" class="clusterblast-orf" id="dummy-8_h8_9_16"  />
</g>
<g id="a8_0017"  >
<polygon points="382,90 386,85 382,80 382,90 " style="fill:white; stroke-width:1; stroke:black; " description="&lt;b&gt;M436DRAFT_73936&lt;/b&gt;&lt;br&gt;TOM13-domain-containing protein&lt;br&gt;Location: 801761 - 802175" locus_tag="M436DRAFT_73936" class="clusterblast-orf" id="dummy-8_h8_9_17"  />
</g>
<g id="a8_0018"  >
<polygon points="392,90 396,90 401,85 396,80 392,80 392,90 " style="fill:white; stroke-width:1; stroke:black; " description="&lt;b&gt;M436DRAFT_49216&lt;/b&gt;&lt;br&gt;hypothetical protein&lt;br&gt;Location: 802734 - 803652" locus_tag="M436DRAFT_49216" class="clusterblast-orf" id="dummy-8_h8_9_18"  />
</g>
<g id="a8_0019"  >
<polygon points="405,85 410,80 414,80 414,90 410,90 405,85 " style="fill:#d88a15; stroke-width:1; stroke:black; " description="&lt;b&gt;M436DRAFT_73938&lt;/b&gt;&lt;br&gt;hypothetical protein&lt;br&gt;Location: 803985 - 804971&lt;br&gt;&lt;br&gt;&lt;b&gt;BlastP hit with input.path1.gene1127&lt;/b&gt;&lt;br&gt;Percentage identity: 31&lt;br&gt;Percentage coverage: 113&lt;br&gt;BLAST bit score: 127&lt;br&gt;E-value: 9.27e-34" locus_tag="M436DRAFT_73938" class="clusterblast-orf" id="dummy-8_h8_9_19"  />
</g>
<g id="a8_0020"  >
<polygon points="427,90 490,90 495,85 490,80 427,80 427,90 " style="fill:#15d863; stroke-width:1; stroke:black; " description="&lt;b&gt;M436DRAFT_49593&lt;/b&gt;&lt;br&gt;polyketide synthase&lt;br&gt;Location: 806265 - 812941&lt;br&gt;&lt;br&gt;&lt;b&gt;BlastP hit with input.path1.gene1128&lt;/b&gt;&lt;br&gt;Percentage identity: 41&lt;br&gt;Percentage coverage: 101&lt;br&gt;BLAST bit score: 1696&lt;br&gt;E-value: 0.0" locus_tag="M436DRAFT_49593" class="clusterblast-orf" id="dummy-8_h8_9_20"  />
</g>
<g id="a8_0021"  >
<polygon points="498,85 503,80 509,80 509,90 503,90 498,85 " style="fill:white; stroke-width:1; stroke:black; " description="&lt;b&gt;M436DRAFT_49359&lt;/b&gt;&lt;br&gt;Malate/L-lactate dehydrogenase&lt;br&gt;Location: 813289 - 814408" locus_tag="M436DRAFT_49359" class="clusterblast-orf" id="dummy-8_h8_9_21"  />
</g>
<g id="a8_0022"  >
<polygon points="512,90 540,90 545,85 540,80 512,80 512,90 " style="fill:white; stroke-width:1; stroke:black; " description="&lt;b&gt;M436DRAFT_49179&lt;/b&gt;&lt;br&gt;hypothetical protein&lt;br&gt;Location: 814715 - 817937" locus_tag="M436DRAFT_49179" class="clusterblast-orf" id="dummy-8_h8_9_22"  />
</g>
<g id="a8_0023"  >
<polygon points="546,85 551,80 551,80 551,90 551,90 546,85 " style="fill:white; stroke-width:1; stroke:black; " description="&lt;b&gt;M436DRAFT_83119&lt;/b&gt;&lt;br&gt;hypothetical protein&lt;br&gt;Location: 818109 - 818523" locus_tag="M436DRAFT_83119" class="clusterblast-orf" id="dummy-8_h8_9_23"  />
</g>
<g id="a8_0024"  >
<polygon points="554,85 559,80 563,80 563,90 559,90 554,85 " style="fill:white; stroke-width:1; stroke:black; " description="&lt;b&gt;M436DRAFT_83120&lt;/b&gt;&lt;br&gt;hypothetical protein&lt;br&gt;Location: 818825 - 819778" locus_tag="M436DRAFT_83120" class="clusterblast-orf" id="dummy-8_h8_9_24"  />
</g>
<g id="a8_0025"  >
<polygon points="572,85 577,80 582,80 582,90 577,90 572,85 " style="fill:white; stroke-width:1; stroke:black; " description="&lt;b&gt;M436DRAFT_65000&lt;/b&gt;&lt;br&gt;NAD(P)-binding protein&lt;br&gt;Location: 820622 - 821644" locus_tag="M436DRAFT_65000" class="clusterblast-orf" id="dummy-8_h8_9_25"  />
</g>
<g id="a8_0026"  >
<polygon points="589,85 592,80 592,90 589,85 " style="fill:white; stroke-width:1; stroke:black; " description="&lt;b&gt;M436DRAFT_83122&lt;/b&gt;&lt;br&gt;hypothetical protein&lt;br&gt;Location: 822317 - 822649" locus_tag="M436DRAFT_83122" class="clusterblast-orf" id="dummy-8_h8_9_26"  />
</g>
<g id="a8_0027"  >
<polygon points="598,85 603,80 616,80 616,90 603,90 598,85 " style="fill:white; stroke-width:1; stroke:black; " description="&lt;b&gt;M436DRAFT_65002&lt;/b&gt;&lt;br&gt;hypothetical protein&lt;br&gt;Location: 823199 - 825042" locus_tag="M436DRAFT_65002" class="clusterblast-orf" id="dummy-8_h8_9_27"  />
</g>
<g id="a8_0028"  >
<polygon points="627,90 629,90 634,85 629,80 627,80 627,90 " style="fill:white; stroke-width:1; stroke:black; " description="&lt;b&gt;M436DRAFT_83124&lt;/b&gt;&lt;br&gt;hypothetical protein&lt;br&gt;Location: 826120 - 826860" locus_tag="M436DRAFT_83124" class="clusterblast-orf" id="dummy-8_h8_9_28"  />
</g>
<g id="a8_0029"  >
<polygon points="637,85 640,80 640,90 637,85 " style="fill:white; stroke-width:1; stroke:black; " description="&lt;b&gt;M436DRAFT_49147&lt;/b&gt;&lt;br&gt;hypothetical protein&lt;br&gt;Location: 827099 - 827389" locus_tag="M436DRAFT_49147" class="clusterblast-orf" id="dummy-8_h8_9_29"  />
</g>
<g id="a8_0030"  >
<polygon points="643,90 647,85 643,80 643,90 " style="fill:white; stroke-width:1; stroke:black; " description="&lt;b&gt;M436DRAFT_49125&lt;/b&gt;&lt;br&gt;hypothetical protein&lt;br&gt;Location: 827681 - 828163" locus_tag="M436DRAFT_49125" class="clusterblast-orf" id="dummy-8_h8_9_30"  />
</g>
<g id="a8_0031"  >
<polygon points="649,85 654,80 658,80 658,90 654,90 649,85 " style="fill:white; stroke-width:1; stroke:black; " description="&lt;b&gt;M436DRAFT_83125&lt;/b&gt;&lt;br&gt;supernatant protein factor, C-terminal domain-containing protein&lt;br&gt;Location: 828358 - 829178" locus_tag="M436DRAFT_83125" class="clusterblast-orf" id="dummy-8_h8_9_31"  />
</g>
<g id="a8_0032"  >
<polygon points="673,90 673,90 678,85 673,80 673,80 673,90 " style="fill:white; stroke-width:1; stroke:black; " description="&lt;b&gt;M436DRAFT_49019&lt;/b&gt;&lt;br&gt;DUF1768-domain-containing protein&lt;br&gt;Location: 830681 - 831223" locus_tag="M436DRAFT_49019" class="clusterblast-orf" id="dummy-8_h8_9_32"  />
</g>
<g id="a8_0033"  >
<polygon points="697,90 704,90 709,85 704,80 697,80 697,90 " style="fill:white; stroke-width:1; stroke:black; " description="&lt;b&gt;M436DRAFT_49800&lt;/b&gt;&lt;br&gt;hypothetical protein&lt;br&gt;Location: 833089 - 834266" locus_tag="M436DRAFT_49800" class="clusterblast-orf" id="dummy-8_h8_9_33"  />
</g>
<g id="a8_0034"  >
<polygon points="710,85 715,80 730,80 730,90 715,90 710,85 " style="fill:white; stroke-width:1; stroke:black; " description="&lt;b&gt;M436DRAFT_16653&lt;/b&gt;&lt;br&gt;hypothetical protein&lt;br&gt;Location: 834419 - 836369" locus_tag="M436DRAFT_16653" class="clusterblast-orf" id="dummy-8_h8_9_34"  />
</g>
<g id="a8_0035"  >
<polygon points="743,90 747,90 752,85 747,80 743,80 743,90 " style="fill:white; stroke-width:1; stroke:black; " description="&lt;b&gt;M436DRAFT_49263&lt;/b&gt;&lt;br&gt;oxidoreductase&lt;br&gt;Location: 837661 - 838570" locus_tag="M436DRAFT_49263" class="clusterblast-orf" id="dummy-8_h8_9_35"  />
</g>
<g id="a8_0036"  >
<polygon points="755,85 760,80 768,80 768,90 760,90 755,85 " style="fill:white; stroke-width:1; stroke:black; " description="&lt;b&gt;M436DRAFT_49605&lt;/b&gt;&lt;br&gt;SEP-domain-containing protein&lt;br&gt;Location: 838819 - 840172" locus_tag="M436DRAFT_49605" class="clusterblast-orf" id="dummy-8_h8_9_36"  />
</g>
<g id="a8_0037"  >
<polygon points="771,90 775,90 780,85 775,80 771,80 771,90 " style="fill:white; stroke-width:1; stroke:black; " description="&lt;b&gt;M436DRAFT_73953&lt;/b&gt;&lt;br&gt;hypothetical protein&lt;br&gt;Location: 840425 - 841303" locus_tag="M436DRAFT_73953" class="clusterblast-orf" id="dummy-8_h8_9_37"  />
</g>
</svg>
