<svg xmlns="http://www.w3.org/2000/svg" xmlns:xlink="http://www.w3.org/1999/xlink" version="1.1" x="0" y="0" height="230" width="800" viewBox="0 0 800 230" preserveAspectRatio="none"  >
<g label="Query sequence" class="clusterblast-cluster"  >
<text x="5" y="20" class="clusterblast-acc"  >
Query sequence</text>
<line x1="10" y1="35" x2="778.0" y2="35" style="stroke-width:1; stroke:grey; "  />
<polygon points="198,40 201,40 206,35 201,30 198,30 198,40 " style="fill:white; stroke-width:1; stroke:black; " description="&lt;b&gt;input.path1.gene962&lt;/b&gt;&lt;br&gt;input.path1.gene962&lt;br&gt;Location: 3697918 - 3698600" locus_tag="input.path1.gene962" class="clusterblast-orf" id="dummy-5_q0_0_all"  />
<polygon points="213,40 226,40 231,35 226,30 213,30 213,40 " style="fill:#d81515; stroke-width:1; stroke:black; " description="&lt;b&gt;input.path1.gene963&lt;/b&gt;&lt;br&gt;input.path1.gene963&lt;br&gt;Location: 3699160 - 3700704" locus_tag="input.path1.gene963" class="clusterblast-orf" id="dummy-5_q1_0_all"  />
<polygon points="233,35 238,30 245,30 245,40 238,40 233,35 " style="fill:#3cd815; stroke-width:1; stroke:black; " description="&lt;b&gt;input.path1.gene964&lt;/b&gt;&lt;br&gt;input.path1.gene964&lt;br&gt;Location: 3700888 - 3701898" locus_tag="input.path1.gene964" class="clusterblast-orf" id="dummy-5_q2_0_all"  />
<polygon points="254,35 259,30 285,30 285,40 259,40 254,35 " style="fill:#1563d8; stroke-width:1; stroke:black; " description="&lt;b&gt;input.path1.gene965&lt;/b&gt;&lt;br&gt;input.path1.gene965&lt;br&gt;Location: 3702636 - 3705293" locus_tag="input.path1.gene965" class="clusterblast-orf" id="dummy-5_q3_0_all"  />
<polygon points="294,40 310,40 315,35 310,30 294,30 294,40 " style="fill:#b115d8; stroke-width:1; stroke:black; " description="&lt;b&gt;input.path1.gene966&lt;/b&gt;&lt;br&gt;input.path1.gene966&lt;br&gt;Location: 3706063 - 3707820" locus_tag="input.path1.gene966" class="clusterblast-orf" id="dummy-5_q4_0_all"  />
<polygon points="327,35 332,30 427,30 427,40 332,40 327,35 " style="fill:#d88a15; stroke-width:1; stroke:black; " description="&lt;b&gt;input.path1.gene967&lt;/b&gt;&lt;br&gt;input.path1.gene967&lt;br&gt;Location: 3708838 - 3717299" locus_tag="input.path1.gene967" class="clusterblast-orf" id="dummy-5_q5_0_all"  />
<polygon points="435,40 441,40 446,35 441,30 435,30 435,40 " style="fill:#15d863; stroke-width:1; stroke:black; " description="&lt;b&gt;input.path1.gene968&lt;/b&gt;&lt;br&gt;input.path1.gene968&lt;br&gt;Location: 3717971 - 3718884" locus_tag="input.path1.gene968" class="clusterblast-orf" id="dummy-5_q6_0_all"  />
<polygon points="461,35 465,30 465,40 461,35 " style="fill:white; stroke-width:1; stroke:black; " description="&lt;b&gt;input.path1.gene969&lt;/b&gt;&lt;br&gt;input.path1.gene969&lt;br&gt;Location: 3720212 - 3720541" locus_tag="input.path1.gene969" class="clusterblast-orf" id="dummy-5_q7_0_all"  />
<polygon points="471,40 484,40 489,35 484,30 471,30 471,40 " style="fill:#3c15d8; stroke-width:1; stroke:black; " description="&lt;b&gt;input.path1.gene970&lt;/b&gt;&lt;br&gt;input.path1.gene970&lt;br&gt;Location: 3721033 - 3722511" locus_tag="input.path1.gene970" class="clusterblast-orf" id="dummy-5_q8_0_all"  />
<polygon points="494,35 499,30 500,30 500,40 499,40 494,35 " style="fill:#d8158a; stroke-width:1; stroke:black; " description="&lt;b&gt;input.path1.gene971&lt;/b&gt;&lt;br&gt;input.path1.gene971&lt;br&gt;Location: 3722931 - 3723483" locus_tag="input.path1.gene971" class="clusterblast-orf" id="dummy-5_q9_0_all"  />
<polygon points="514,35 516,30 516,40 514,35 " style="fill:white; stroke-width:1; stroke:black; " description="&lt;b&gt;input.path1.gene972&lt;/b&gt;&lt;br&gt;input.path1.gene972&lt;br&gt;Location: 3724638 - 3724842" locus_tag="input.path1.gene972" class="clusterblast-orf" id="dummy-5_q10_0_all"  />
<polygon points="536,40 564,40 569,35 564,30 536,30 536,40 " style="fill:#b1d815; stroke-width:1; stroke:black; " description="&lt;b&gt;input.path1.gene973&lt;/b&gt;&lt;br&gt;input.path1.gene973&lt;br&gt;Location: 3726497 - 3729313" locus_tag="input.path1.gene973" class="clusterblast-orf" id="dummy-5_q11_0_all"  />
<polygon points="573,35 578,30 581,30 581,40 578,40 573,35 " style="fill:#15d8d8; stroke-width:1; stroke:black; " description="&lt;b&gt;input.path1.gene974&lt;/b&gt;&lt;br&gt;input.path1.gene974&lt;br&gt;Location: 3729670 - 3730334" locus_tag="input.path1.gene974" class="clusterblast-orf" id="dummy-5_q12_0_all"  />
</g>
<g label="NC_049565" description="NC_049565 (1715696-1783101): Talaromyces rugulosus chromosome V, complete seq... (16% of genes show similarity), T1PKS" class="clusterblast-cluster"  >
<text x="5" y="70" class="clusterblast-acc"  >
<a xlink:href="https://antismash-db.secondarymetabolites.org/area?record=NC_049565&amp;start=1715696&amp;end=1783101" target="_blank">NC_049565 (1715696-1783101)</a>: Talaromyces rugulosus chromosome V, complete seq... (16% of genes show similarity), T1PKS</text>
<line x1="10" y1="85" x2="778.0" y2="85" style="stroke-width:1; stroke:grey; "  />
</g>
<g id="a5_000"  >
<polygon points="0,90 16,90 21,85 16,80 0,80 0,90 " style="fill:white; stroke-width:1; stroke:black; " description="&lt;b&gt;TRUGW13939_09164&lt;/b&gt;&lt;br&gt;uncharacterized protein&lt;br&gt;Location: 1781783 - 1779991" locus_tag="TRUGW13939_09164" class="clusterblast-orf" id="dummy-5_h5_4_0"  />
</g>
<g id="a5_001"  >
<polygon points="24,85 29,80 34,80 34,90 29,90 24,85 " style="fill:white; stroke-width:1; stroke:black; " description="&lt;b&gt;TRUGW13939_09163&lt;/b&gt;&lt;br&gt;uncharacterized protein&lt;br&gt;Location: 1779683 - 1778865" locus_tag="TRUGW13939_09163" class="clusterblast-orf" id="dummy-5_h5_4_1"  />
</g>
<g id="a5_002"  >
<polygon points="54,90 59,90 64,85 59,80 54,80 54,90 " style="fill:white; stroke-width:1; stroke:black; " description="&lt;b&gt;TRUGW13939_09162&lt;/b&gt;&lt;br&gt;uncharacterized protein&lt;br&gt;Location: 1777196 - 1776333" locus_tag="TRUGW13939_09162" class="clusterblast-orf" id="dummy-5_h5_4_2"  />
</g>
<g id="a5_003"  >
<polygon points="69,90 74,90 79,85 74,80 69,80 69,90 " style="fill:white; stroke-width:1; stroke:black; " description="&lt;b&gt;TRUGW13939_09161&lt;/b&gt;&lt;br&gt;uncharacterized protein&lt;br&gt;Location: 1775901 - 1775044" locus_tag="TRUGW13939_09161" class="clusterblast-orf" id="dummy-5_h5_4_3"  />
</g>
<g id="a5_004"  >
<polygon points="82,85 87,80 116,80 116,90 87,90 82,85 " style="fill:white; stroke-width:1; stroke:black; " description="&lt;b&gt;TRUGW13939_09160&lt;/b&gt;&lt;br&gt;uncharacterized protein&lt;br&gt;Location: 1774775 - 1771890" locus_tag="TRUGW13939_09160" class="clusterblast-orf" id="dummy-5_h5_4_4"  />
</g>
<g id="a5_005"  >
<polygon points="136,85 141,80 153,80 153,90 141,90 136,85 " style="fill:white; stroke-width:1; stroke:black; " description="&lt;b&gt;TRUGW13939_09159&lt;/b&gt;&lt;br&gt;uncharacterized protein&lt;br&gt;Location: 1770196 - 1768773" locus_tag="TRUGW13939_09159" class="clusterblast-orf" id="dummy-5_h5_4_5"  />
</g>
<g id="a5_006"  >
<polygon points="179,90 205,90 210,85 205,80 179,80 179,90 " style="fill:white; stroke-width:1; stroke:black; " description="&lt;b&gt;TRUGW13939_09158&lt;/b&gt;&lt;br&gt;uncharacterized protein&lt;br&gt;Location: 1766614 - 1763953" locus_tag="TRUGW13939_09158" class="clusterblast-orf" id="dummy-5_h5_4_6"  />
</g>
<g id="a5_007"  >
<polygon points="217,85 222,80 236,80 236,90 222,90 217,85 " style="fill:white; stroke-width:1; stroke:black; " description="&lt;b&gt;TRUGW13939_09157&lt;/b&gt;&lt;br&gt;uncharacterized protein&lt;br&gt;Location: 1763370 - 1761747" locus_tag="TRUGW13939_09157" class="clusterblast-orf" id="dummy-5_h5_4_7"  />
</g>
<g id="a5_008"  >
<polygon points="265,90 278,90 283,85 278,80 265,80 265,90 " style="fill:white; stroke-width:1; stroke:black; " description="&lt;b&gt;TRUGW13939_09156&lt;/b&gt;&lt;br&gt;uncharacterized protein&lt;br&gt;Location: 1759312 - 1757761" locus_tag="TRUGW13939_09156" class="clusterblast-orf" id="dummy-5_h5_4_8"  />
</g>
<g id="a5_009"  >
<polygon points="296,85 301,80 318,80 318,90 301,90 296,85 " style="fill:white; stroke-width:1; stroke:black; " description="&lt;b&gt;TRUGW13939_09155&lt;/b&gt;&lt;br&gt;uncharacterized protein&lt;br&gt;Location: 1756677 - 1754842" locus_tag="TRUGW13939_09155" class="clusterblast-orf" id="dummy-5_h5_4_9"  />
</g>
<g id="a5_0010"  >
<polygon points="338,85 343,80 426,80 426,90 343,90 338,85 " style="fill:#d88a15; stroke-width:1; stroke:black; " description="&lt;b&gt;TRUGW13939_09154&lt;/b&gt;&lt;br&gt;uncharacterized protein&lt;br&gt;Location: 1753101 - 1745697&lt;br&gt;&lt;br&gt;&lt;b&gt;BlastP hit with input.path1.gene967&lt;/b&gt;&lt;br&gt;Percentage identity: 48&lt;br&gt;Percentage coverage: 102&lt;br&gt;BLAST bit score: 2069&lt;br&gt;E-value: 0.0" locus_tag="TRUGW13939_09154" class="clusterblast-orf" id="dummy-5_h5_4_10"  />
</g>
<g id="a5_0011"  >
<polygon points="432,90 438,90 443,85 438,80 432,80 432,90 " style="fill:#15d863; stroke-width:1; stroke:black; " description="&lt;b&gt;TRUGW13939_09153&lt;/b&gt;&lt;br&gt;uncharacterized protein&lt;br&gt;Location: 1745109 - 1744213&lt;br&gt;&lt;br&gt;&lt;b&gt;BlastP hit with input.path1.gene968&lt;/b&gt;&lt;br&gt;Percentage identity: 39&lt;br&gt;Percentage coverage: 98&lt;br&gt;BLAST bit score: 214&lt;br&gt;E-value: 1.76e-66" locus_tag="TRUGW13939_09153" class="clusterblast-orf" id="dummy-5_h5_4_11"  />
</g>
<g id="a5_0012"  >
<polygon points="452,90 458,90 463,85 458,80 452,80 452,90 " style="fill:white; stroke-width:1; stroke:black; " description="&lt;b&gt;TRUGW13939_09152&lt;/b&gt;&lt;br&gt;uncharacterized protein&lt;br&gt;Location: 1743478 - 1742480" locus_tag="TRUGW13939_09152" class="clusterblast-orf" id="dummy-5_h5_4_12"  />
</g>
<g id="a5_0013"  >
<polygon points="465,85 470,80 492,80 492,90 470,90 465,85 " style="fill:#1563d8; stroke-width:1; stroke:black; " description="&lt;b&gt;TRUGW13939_09151&lt;/b&gt;&lt;br&gt;uncharacterized protein&lt;br&gt;Location: 1742336 - 1740069&lt;br&gt;&lt;br&gt;&lt;b&gt;BlastP hit with input.path1.gene965&lt;/b&gt;&lt;br&gt;Percentage identity: 63&lt;br&gt;Percentage coverage: 81&lt;br&gt;BLAST bit score: 892&lt;br&gt;E-value: 0.0" locus_tag="TRUGW13939_09151" class="clusterblast-orf" id="dummy-5_h5_4_13"  />
</g>
<g id="a5_0014"  >
<polygon points="501,85 506,80 522,80 522,90 506,90 501,85 " style="fill:#b115d8; stroke-width:1; stroke:black; " description="&lt;b&gt;TRUGW13939_09150&lt;/b&gt;&lt;br&gt;uncharacterized protein&lt;br&gt;Location: 1739302 - 1737565&lt;br&gt;&lt;br&gt;&lt;b&gt;BlastP hit with input.path1.gene966&lt;/b&gt;&lt;br&gt;Percentage identity: 57&lt;br&gt;Percentage coverage: 99&lt;br&gt;BLAST bit score: 606&lt;br&gt;E-value: 4.84e-213" locus_tag="TRUGW13939_09150" class="clusterblast-orf" id="dummy-5_h5_4_14"  />
</g>
<g id="a5_0015"  >
<polygon points="527,90 531,90 536,85 531,80 527,80 527,90 " style="fill:white; stroke-width:1; stroke:black; " description="&lt;b&gt;TRUGW13939_09149&lt;/b&gt;&lt;br&gt;uncharacterized protein&lt;br&gt;Location: 1737095 - 1736346" locus_tag="TRUGW13939_09149" class="clusterblast-orf" id="dummy-5_h5_4_15"  />
</g>
<g id="a5_0016"  >
<polygon points="540,85 545,80 562,80 562,90 545,90 540,85 " style="fill:white; stroke-width:1; stroke:black; " description="&lt;b&gt;TRUGW13939_09148&lt;/b&gt;&lt;br&gt;uncharacterized protein&lt;br&gt;Location: 1736026 - 1734098" locus_tag="TRUGW13939_09148" class="clusterblast-orf" id="dummy-5_h5_4_16"  />
</g>
<g id="a5_0017"  >
<polygon points="567,90 582,90 587,85 582,80 567,80 567,90 " style="fill:white; stroke-width:1; stroke:black; " description="&lt;b&gt;TRUGW13939_09147&lt;/b&gt;&lt;br&gt;uncharacterized protein&lt;br&gt;Location: 1733690 - 1732051" locus_tag="TRUGW13939_09147" class="clusterblast-orf" id="dummy-5_h5_4_17"  />
</g>
<g id="a5_0018"  >
<polygon points="613,85 618,80 629,80 629,90 618,90 613,85 " style="fill:white; stroke-width:1; stroke:black; " description="&lt;b&gt;TRUGW13939_09146&lt;/b&gt;&lt;br&gt;uncharacterized protein&lt;br&gt;Location: 1729799 - 1728456" locus_tag="TRUGW13939_09146" class="clusterblast-orf" id="dummy-5_h5_4_18"  />
</g>
<g id="a5_0019"  >
<polygon points="644,90 680,90 685,85 680,80 644,80 644,90 " style="fill:white; stroke-width:1; stroke:black; " description="&lt;b&gt;TRUGW13939_09145&lt;/b&gt;&lt;br&gt;uncharacterized protein&lt;br&gt;Location: 1727170 - 1723745" locus_tag="TRUGW13939_09145" class="clusterblast-orf" id="dummy-5_h5_4_19"  />
</g>
<g id="a5_0020"  >
<polygon points="690,90 699,90 704,85 699,80 690,80 690,90 " style="fill:white; stroke-width:1; stroke:black; " description="&lt;b&gt;TRUGW13939_09144&lt;/b&gt;&lt;br&gt;uncharacterized protein&lt;br&gt;Location: 1723325 - 1722110" locus_tag="TRUGW13939_09144" class="clusterblast-orf" id="dummy-5_h5_4_20"  />
</g>
<g id="a5_0021"  >
<polygon points="712,90 716,90 721,85 716,80 712,80 712,90 " style="fill:white; stroke-width:1; stroke:black; " description="&lt;b&gt;TRUGW13939_09143&lt;/b&gt;&lt;br&gt;uncharacterized protein&lt;br&gt;Location: 1721448 - 1720657" locus_tag="TRUGW13939_09143" class="clusterblast-orf" id="dummy-5_h5_4_21"  />
</g>
<g id="a5_0022"  >
<polygon points="722,85 727,80 754,80 754,90 727,90 722,85 " style="fill:white; stroke-width:1; stroke:black; " description="&lt;b&gt;TRUGW13939_09142&lt;/b&gt;&lt;br&gt;uncharacterized protein&lt;br&gt;Location: 1720541 - 1717882" locus_tag="TRUGW13939_09142" class="clusterblast-orf" id="dummy-5_h5_4_22"  />
</g>
<g id="a5_0023"  >
<polygon points="764,85 769,80 780,80 780,90 769,90 764,85 " style="fill:white; stroke-width:1; stroke:black; " description="&lt;b&gt;TRUGW13939_09141&lt;/b&gt;&lt;br&gt;uncharacterized protein&lt;br&gt;Location: 1717003 - 1715711" locus_tag="TRUGW13939_09141" class="clusterblast-orf" id="dummy-5_h5_4_23"  />
</g>
</svg>
