<svg xmlns="http://www.w3.org/2000/svg" xmlns:xlink="http://www.w3.org/1999/xlink" version="1.1" x="0" y="0" height="230" width="800" viewBox="0 0 800 230" preserveAspectRatio="none"  >
<g label="Query sequence" class="clusterblast-cluster"  >
<text x="5" y="20" class="clusterblast-acc"  >
Query sequence</text>
<line x1="10" y1="35" x2="778.0" y2="35" style="stroke-width:1; stroke:grey; "  />
<polygon points="49,35 54,30 66,30 66,40 54,40 49,35 " style="fill:white; stroke-width:1; stroke:black; " description="&lt;b&gt;input.path1.gene8&lt;/b&gt;&lt;br&gt;input.path1.gene8&lt;br&gt;Location: 22775 - 24095" locus_tag="input.path1.gene8" class="clusterblast-orf" id="dummy-1_q0_0_all"  />
<polygon points="105,35 110,30 131,30 131,40 110,40 105,35 " style="fill:#d81515; stroke-width:1; stroke:black; " description="&lt;b&gt;input.path1.gene9&lt;/b&gt;&lt;br&gt;input.path1.gene9&lt;br&gt;Location: 27053 - 28998" locus_tag="input.path1.gene9" class="clusterblast-orf" id="dummy-1_q1_0_all"  />
<polygon points="165,35 170,30 177,30 177,40 170,40 165,35 " style="fill:#33d815; stroke-width:1; stroke:black; " description="&lt;b&gt;input.path1.gene10&lt;/b&gt;&lt;br&gt;input.path1.gene10&lt;br&gt;Location: 31586 - 32534" locus_tag="input.path1.gene10" class="clusterblast-orf" id="dummy-1_q2_0_all"  />
<polygon points="183,40 186,40 191,35 186,30 183,30 183,40 " style="fill:#15abd8; stroke-width:1; stroke:black; " description="&lt;b&gt;input.path1.gene11&lt;/b&gt;&lt;br&gt;input.path1.gene11&lt;br&gt;Location: 32982 - 33580" locus_tag="input.path1.gene11" class="clusterblast-orf" id="dummy-1_q3_0_all"  />
<polygon points="197,35 202,30 210,30 210,40 202,40 197,35 " style="fill:#8d15d8; stroke-width:1; stroke:black; " description="&lt;b&gt;input.path1.gene12&lt;/b&gt;&lt;br&gt;input.path1.gene12&lt;br&gt;Location: 33987 - 34970" locus_tag="input.path1.gene12" class="clusterblast-orf" id="dummy-1_q4_0_all"  />
<polygon points="218,40 235,40 240,35 235,30 218,30 218,40 " style="fill:#d86f15; stroke-width:1; stroke:black; " description="&lt;b&gt;input.path1.gene13&lt;/b&gt;&lt;br&gt;input.path1.gene13&lt;br&gt;Location: 35600 - 37240" locus_tag="input.path1.gene13" class="clusterblast-orf" id="dummy-1_q5_0_all"  />
<polygon points="240,35 245,30 263,30 263,40 245,40 240,35 " style="fill:#15d851; stroke-width:1; stroke:black; " description="&lt;b&gt;input.path1.gene14&lt;/b&gt;&lt;br&gt;input.path1.gene14&lt;br&gt;Location: 37240 - 39028" locus_tag="input.path1.gene14" class="clusterblast-orf" id="dummy-1_q6_0_all"  />
<polygon points="275,40 303,40 308,35 303,30 275,30 275,40 " style="fill:#1551d8; stroke-width:1; stroke:black; " description="&lt;b&gt;input.path1.gene15&lt;/b&gt;&lt;br&gt;input.path1.gene15&lt;br&gt;Location: 39915 - 42418" locus_tag="input.path1.gene15" class="clusterblast-orf" id="dummy-1_q7_0_all"  />
<polygon points="309,35 314,30 478,30 478,40 314,40 309,35 " style="fill:#d815c9; stroke-width:1; stroke:black; " description="&lt;b&gt;input.path1.gene16&lt;/b&gt;&lt;br&gt;input.path1.gene16&lt;br&gt;Location: 42530 - 55306" locus_tag="input.path1.gene16" class="clusterblast-orf" id="dummy-1_q8_0_all"  />
<polygon points="512,40 524,40 529,35 524,30 512,30 512,40 " style="fill:#d8c915; stroke-width:1; stroke:black; " description="&lt;b&gt;input.path1.gene17&lt;/b&gt;&lt;br&gt;input.path1.gene17&lt;br&gt;Location: 57855 - 59154" locus_tag="input.path1.gene17" class="clusterblast-orf" id="dummy-1_q9_0_all"  />
<polygon points="538,35 543,30 551,30 551,40 543,40 538,35 " style="fill:#15d8ab; stroke-width:1; stroke:black; " description="&lt;b&gt;input.path1.gene18&lt;/b&gt;&lt;br&gt;input.path1.gene18&lt;br&gt;Location: 59892 - 60859" locus_tag="input.path1.gene18" class="clusterblast-orf" id="dummy-1_q10_0_all"  />
<polygon points="611,35 616,30 632,30 632,40 616,40 611,35 " style="fill:#3315d8; stroke-width:1; stroke:black; " description="&lt;b&gt;input.path1.gene19&lt;/b&gt;&lt;br&gt;input.path1.gene19&lt;br&gt;Location: 65426 - 66968" locus_tag="input.path1.gene19" class="clusterblast-orf" id="dummy-1_q11_0_all"  />
<polygon points="665,40 670,40 675,35 670,30 665,30 665,40 " style="fill:#d8156f; stroke-width:1; stroke:black; " description="&lt;b&gt;input.path1.gene20&lt;/b&gt;&lt;br&gt;input.path1.gene20&lt;br&gt;Location: 69476 - 70264" locus_tag="input.path1.gene20" class="clusterblast-orf" id="dummy-1_q12_0_all"  />
<polygon points="689,40 726,40 731,35 726,30 689,30 689,40 " style="fill:#8dd815; stroke-width:1; stroke:black; " description="&lt;b&gt;input.path1.gene21&lt;/b&gt;&lt;br&gt;input.path1.gene21&lt;br&gt;Location: 71314 - 74458" locus_tag="input.path1.gene21" class="clusterblast-orf" id="dummy-1_q13_0_all"  />
</g>
<g label="NW_017263610" description="NW_017263610 (256865-328702): Mollisia scopiformis unplaced genomic scaffold ... (16% of genes show similarity), NRPS,T1PKS" class="clusterblast-cluster"  >
<text x="5" y="70" class="clusterblast-acc"  >
<a xlink:href="https://antismash-db.secondarymetabolites.org/area?record=NW_017263610&amp;start=256865&amp;end=328702" target="_blank">NW_017263610 (256865-328702)</a>: Mollisia scopiformis unplaced genomic scaffold ... (16% of genes show similarity), NRPS,T1PKS</text>
<line x1="10" y1="85" x2="778.0" y2="85" style="stroke-width:1; stroke:grey; "  />
</g>
<g id="a1_000"  >
<polygon points="0,85 5,80 29,80 29,90 5,90 0,85 " style="fill:white; stroke-width:1; stroke:black; " description="&lt;b&gt;LY89DRAFT_690565&lt;/b&gt;&lt;br&gt;uncharacterized protein&lt;br&gt;Location: 268779 - 271040" locus_tag="LY89DRAFT_690565" class="clusterblast-orf" id="dummy-1_h1_5_0"  />
</g>
<g id="a1_001"  >
<polygon points="42,90 71,90 76,85 71,80 42,80 42,90 " style="fill:white; stroke-width:1; stroke:black; " description="&lt;b&gt;LY89DRAFT_628854&lt;/b&gt;&lt;br&gt;uncharacterized protein&lt;br&gt;Location: 271985 - 274593" locus_tag="LY89DRAFT_628854" class="clusterblast-orf" id="dummy-1_h1_5_1"  />
</g>
<g id="a1_002"  >
<polygon points="86,90 88,90 93,85 88,80 86,80 86,90 " style="fill:white; stroke-width:1; stroke:black; " description="&lt;b&gt;LY89DRAFT_318152&lt;/b&gt;&lt;br&gt;uncharacterized protein&lt;br&gt;Location: 275371 - 275871" locus_tag="LY89DRAFT_318152" class="clusterblast-orf" id="dummy-1_h1_5_2"  />
</g>
<g id="a1_003"  >
<polygon points="97,90 129,90 134,85 129,80 97,80 97,90 " style="fill:white; stroke-width:1; stroke:black; " description="&lt;b&gt;LY89DRAFT_318143&lt;/b&gt;&lt;br&gt;uncharacterized protein&lt;br&gt;Location: 276172 - 278979" locus_tag="LY89DRAFT_318143" class="clusterblast-orf" id="dummy-1_h1_5_3"  />
</g>
<g id="a1_004"  >
<polygon points="169,90 179,90 184,85 179,80 169,80 169,90 " style="fill:white; stroke-width:1; stroke:black; " description="&lt;b&gt;LY89DRAFT_701536&lt;/b&gt;&lt;br&gt;uncharacterized protein&lt;br&gt;Location: 281637 - 282794" locus_tag="LY89DRAFT_701536" class="clusterblast-orf" id="dummy-1_h1_5_4"  />
</g>
<g id="a1_005"  >
<polygon points="205,90 223,90 228,85 223,80 205,80 205,90 " style="fill:#1551d8; stroke-width:1; stroke:black; " description="&lt;b&gt;LY89DRAFT_690570&lt;/b&gt;&lt;br&gt;putative C6 transcription factor&lt;br&gt;Location: 284355 - 286067&lt;br&gt;&lt;br&gt;&lt;b&gt;BlastP hit with input.path1.gene15&lt;/b&gt;&lt;br&gt;Percentage identity: 33&lt;br&gt;Percentage coverage: 48&lt;br&gt;BLAST bit score: 129&lt;br&gt;E-value: 1.82e-29" locus_tag="LY89DRAFT_690570" class="clusterblast-orf" id="dummy-1_h1_5_5"  />
</g>
<g id="a1_006"  >
<polygon points="238,85 243,80 394,80 394,90 243,90 238,85 " style="fill:#d815c9; stroke-width:1; stroke:black; " description="&lt;b&gt;LY89DRAFT_711308&lt;/b&gt;&lt;br&gt;lovastatin nonaketide synthase&lt;br&gt;Location: 286866 - 298702&lt;br&gt;&lt;br&gt;&lt;b&gt;BlastP hit with input.path1.gene16&lt;/b&gt;&lt;br&gt;Percentage identity: 36&lt;br&gt;Percentage coverage: 103&lt;br&gt;BLAST bit score: 2283&lt;br&gt;E-value: 0.0" locus_tag="LY89DRAFT_711308" class="clusterblast-orf" id="dummy-1_h1_5_6"  />
</g>
<g id="a1_007"  >
<polygon points="413,85 418,80 438,80 438,90 418,90 413,85 " style="fill:white; stroke-width:1; stroke:black; " description="&lt;b&gt;LY89DRAFT_763533&lt;/b&gt;&lt;br&gt;cytochrome P450&lt;br&gt;Location: 300094 - 302016" locus_tag="LY89DRAFT_763533" class="clusterblast-orf" id="dummy-1_h1_5_7"  />
</g>
<g id="a1_008"  >
<polygon points="442,90 459,90 464,85 459,80 442,80 442,90 " style="fill:#15d8ab; stroke-width:1; stroke:black; " description="&lt;b&gt;LY89DRAFT_598735&lt;/b&gt;&lt;br&gt;cytochrome P450&lt;br&gt;Location: 302361 - 304009&lt;br&gt;&lt;br&gt;&lt;b&gt;BlastP hit with input.path1.gene18&lt;/b&gt;&lt;br&gt;Percentage identity: 40&lt;br&gt;Percentage coverage: 99&lt;br&gt;BLAST bit score: 236&lt;br&gt;E-value: 4.93e-72" locus_tag="LY89DRAFT_598735" class="clusterblast-orf" id="dummy-1_h1_5_8"  />
</g>
<g id="a1_009"  >
<polygon points="472,85 477,80 488,80 488,90 477,90 472,85 " style="fill:white; stroke-width:1; stroke:black; " description="&lt;b&gt;LY89DRAFT_741320&lt;/b&gt;&lt;br&gt;uncharacterized protein&lt;br&gt;Location: 304597 - 305787" locus_tag="LY89DRAFT_741320" class="clusterblast-orf" id="dummy-1_h1_5_9"  />
</g>
<g id="a1_0010"  >
<polygon points="499,85 504,80 518,80 518,90 504,90 499,85 " style="fill:white; stroke-width:1; stroke:black; " description="&lt;b&gt;LY89DRAFT_788437&lt;/b&gt;&lt;br&gt;uncharacterized protein&lt;br&gt;Location: 306681 - 308099" locus_tag="LY89DRAFT_788437" class="clusterblast-orf" id="dummy-1_h1_5_10"  />
</g>
<g id="a1_0011"  >
<polygon points="523,90 539,90 544,85 539,80 523,80 523,90 " style="fill:white; stroke-width:1; stroke:black; " description="&lt;b&gt;LY89DRAFT_658084&lt;/b&gt;&lt;br&gt;MFS general substrate transporter&lt;br&gt;Location: 308494 - 310029" locus_tag="LY89DRAFT_658084" class="clusterblast-orf" id="dummy-1_h1_5_11"  />
</g>
<g id="a1_0012"  >
<polygon points="548,85 553,80 588,80 588,90 553,90 548,85 " style="fill:white; stroke-width:1; stroke:black; " description="&lt;b&gt;LY89DRAFT_318256&lt;/b&gt;&lt;br&gt;uncharacterized protein&lt;br&gt;Location: 310372 - 313417" locus_tag="LY89DRAFT_318256" class="clusterblast-orf" id="dummy-1_h1_5_12"  />
</g>
<g id="a1_0013"  >
<polygon points="612,90 626,90 631,85 626,80 612,80 612,90 " style="fill:white; stroke-width:1; stroke:black; " description="&lt;b&gt;LY89DRAFT_741324&lt;/b&gt;&lt;br&gt;uncharacterized protein&lt;br&gt;Location: 315226 - 316634" locus_tag="LY89DRAFT_741324" class="clusterblast-orf" id="dummy-1_h1_5_13"  />
</g>
<g id="a1_0014"  >
<polygon points="647,90 648,90 653,85 648,80 647,80 647,90 " style="fill:white; stroke-width:1; stroke:black; " description="&lt;b&gt;LY89DRAFT_598914&lt;/b&gt;&lt;br&gt;uncharacterized protein&lt;br&gt;Location: 317889 - 318338" locus_tag="LY89DRAFT_598914" class="clusterblast-orf" id="dummy-1_h1_5_14"  />
</g>
<g id="a1_0015"  >
<polygon points="691,90 743,90 748,85 743,80 691,80 691,90 " style="fill:white; stroke-width:1; stroke:black; " description="&lt;b&gt;LY89DRAFT_711310&lt;/b&gt;&lt;br&gt;uncharacterized protein&lt;br&gt;Location: 321223 - 325493" locus_tag="LY89DRAFT_711310" class="clusterblast-orf" id="dummy-1_h1_5_15"  />
</g>
<g id="a1_0016"  >
<polygon points="754,85 758,80 758,90 754,85 " style="fill:white; stroke-width:1; stroke:black; " description="&lt;b&gt;LY89DRAFT_788443&lt;/b&gt;&lt;br&gt;uncharacterized protein&lt;br&gt;Location: 325949 - 326281" locus_tag="LY89DRAFT_788443" class="clusterblast-orf" id="dummy-1_h1_5_16"  />
</g>
<g id="a1_0017"  >
<polygon points="764,85 769,80 780,80 780,90 769,90 764,85 " style="fill:white; stroke-width:1; stroke:black; " description="&lt;b&gt;LY89DRAFT_788444&lt;/b&gt;&lt;br&gt;uncharacterized protein&lt;br&gt;Location: 326739 - 327908" locus_tag="LY89DRAFT_788444" class="clusterblast-orf" id="dummy-1_h1_5_17"  />
</g>
</svg>
