<svg xmlns="http://www.w3.org/2000/svg" xmlns:xlink="http://www.w3.org/1999/xlink" version="1.1" x="0" y="0" height="230" width="800" viewBox="0 0 800 230" preserveAspectRatio="none"  >
<g label="Query sequence" class="clusterblast-cluster"  >
<text x="5" y="20" class="clusterblast-acc"  >
Query sequence</text>
<line x1="10" y1="35" x2="778.0" y2="35" style="stroke-width:1; stroke:grey; "  />
<polygon points="50,40 127,40 132,35 127,30 50,30 50,40 " style="fill:#d81515; stroke-width:1; stroke:black; " description="&lt;b&gt;input.path1.gene1064&lt;/b&gt;&lt;br&gt;input.path1.gene1064&lt;br&gt;Location: 4092957 - 4097830" locus_tag="input.path1.gene1064" class="clusterblast-orf" id="dummy-7_q0_0_all"  />
<polygon points="140,35 145,30 180,30 180,40 145,40 140,35 " style="fill:#77d815; stroke-width:1; stroke:black; " description="&lt;b&gt;input.path1.gene1065&lt;/b&gt;&lt;br&gt;input.path1.gene1065&lt;br&gt;Location: 4098324 - 4100728" locus_tag="input.path1.gene1065" class="clusterblast-orf" id="dummy-7_q1_0_all"  />
<polygon points="196,40 204,40 209,35 204,30 196,30 196,40 " style="fill:#15d8d8; stroke-width:1; stroke:black; " description="&lt;b&gt;input.path1.gene1066&lt;/b&gt;&lt;br&gt;input.path1.gene1066&lt;br&gt;Location: 4101639 - 4102404" locus_tag="input.path1.gene1066" class="clusterblast-orf" id="dummy-7_q2_0_all"  />
<polygon points="275,40 330,40 335,35 330,30 275,30 275,40 " style="fill:#7715d8; stroke-width:1; stroke:black; " description="&lt;b&gt;input.path1.gene1067&lt;/b&gt;&lt;br&gt;input.path1.gene1067&lt;br&gt;Location: 4106353 - 4109902" locus_tag="input.path1.gene1067" class="clusterblast-orf" id="dummy-7_q3_0_all"  />
<polygon points="346,35 351,30 428,30 428,40 351,40 346,35 " style="fill:#d87715; stroke-width:1; stroke:black; " description="&lt;b&gt;input.path1.gene1068&lt;/b&gt;&lt;br&gt;input.path1.gene1068&lt;br&gt;Location: 4110597 - 4115469" locus_tag="input.path1.gene1068" class="clusterblast-orf" id="dummy-7_q4_0_all"  />
<polygon points="474,40 498,40 503,35 498,30 474,30 474,40 " style="fill:#15d815; stroke-width:1; stroke:black; " description="&lt;b&gt;input.path1.gene1069&lt;/b&gt;&lt;br&gt;input.path1.gene1069&lt;br&gt;Location: 4118185 - 4119919" locus_tag="input.path1.gene1069" class="clusterblast-orf" id="dummy-7_q5_0_all"  />
<polygon points="508,40 531,40 536,35 531,30 508,30 508,40 " style="fill:#1577d8; stroke-width:1; stroke:black; " description="&lt;b&gt;input.path1.gene1070&lt;/b&gt;&lt;br&gt;input.path1.gene1070&lt;br&gt;Location: 4120180 - 4121873" locus_tag="input.path1.gene1070" class="clusterblast-orf" id="dummy-7_q6_0_all"  />
<polygon points="543,40 553,40 558,35 553,30 543,30 543,40 " style="fill:#1577d8; stroke-width:1; stroke:black; " description="&lt;b&gt;input.path1.gene1071&lt;/b&gt;&lt;br&gt;input.path1.gene1071&lt;br&gt;Location: 4122295 - 4123177" locus_tag="input.path1.gene1071" class="clusterblast-orf" id="dummy-7_q7_0_all"  />
<polygon points="593,40 605,40 610,35 605,30 593,30 593,40 " style="fill:#d815d8; stroke-width:1; stroke:black; " description="&lt;b&gt;input.path1.gene1072&lt;/b&gt;&lt;br&gt;input.path1.gene1072&lt;br&gt;Location: 4125246 - 4126254" locus_tag="input.path1.gene1072" class="clusterblast-orf" id="dummy-7_q8_0_all"  />
<polygon points="615,35 620,30 633,30 633,40 620,40 615,35 " style="fill:#d8d815; stroke-width:1; stroke:black; " description="&lt;b&gt;input.path1.gene1073&lt;/b&gt;&lt;br&gt;input.path1.gene1073&lt;br&gt;Location: 4126531 - 4127644" locus_tag="input.path1.gene1073" class="clusterblast-orf" id="dummy-7_q9_0_all"  />
<polygon points="655,35 660,30 673,30 673,40 660,40 655,35 " style="fill:#15d877; stroke-width:1; stroke:black; " description="&lt;b&gt;input.path1.gene1074&lt;/b&gt;&lt;br&gt;input.path1.gene1074&lt;br&gt;Location: 4128922 - 4129996" locus_tag="input.path1.gene1074" class="clusterblast-orf" id="dummy-7_q10_0_all"  />
<polygon points="677,35 682,30 699,30 699,40 682,40 677,35 " style="fill:#1515d8; stroke-width:1; stroke:black; " description="&lt;b&gt;input.path1.gene1075&lt;/b&gt;&lt;br&gt;input.path1.gene1075&lt;br&gt;Location: 4130250 - 4131573" locus_tag="input.path1.gene1075" class="clusterblast-orf" id="dummy-7_q11_0_all"  />
<polygon points="720,40 725,40 730,35 725,30 720,30 720,40 " style="fill:#d81577; stroke-width:1; stroke:black; " description="&lt;b&gt;input.path1.gene1076&lt;/b&gt;&lt;br&gt;input.path1.gene1076&lt;br&gt;Location: 4132805 - 4133369" locus_tag="input.path1.gene1076" class="clusterblast-orf" id="dummy-7_q12_0_all"  />
</g>
<g label="NZ_CP014578" description="NZ_CP014578 (923071-970565): Paraburkholderia phytofirmans OLGA172 chromosome... (6% of genes show similarity), NRPS" class="clusterblast-cluster"  >
<text x="5" y="70" class="clusterblast-acc"  >
<a xlink:href="https://antismash-db.secondarymetabolites.org/area?record=NZ_CP014578&amp;start=923071&amp;end=970565" target="_blank">NZ_CP014578 (923071-970565)</a>: Paraburkholderia phytofirmans OLGA172 chromosome... (6% of genes show similarity), NRPS</text>
<line x1="10" y1="85" x2="778.0" y2="85" style="stroke-width:1; stroke:grey; "  />
</g>
<g id="a7_000"  >
<polygon points="0,90 7,90 12,85 7,80 0,80 0,90 " style="fill:white; stroke-width:1; stroke:black; " description="&lt;b&gt;AYM40_RS03950&lt;/b&gt;&lt;br&gt;outer membrane lipoprotein chaperone LolA&lt;br&gt;Location: 923810 - 924547" locus_tag="AYM40_RS03950" class="clusterblast-orf" id="dummy-7_h7_9_0"  />
</g>
<g id="a7_001"  >
<polygon points="15,85 20,80 30,80 30,90 20,90 15,85 " style="fill:white; stroke-width:1; stroke:black; " description="&lt;b&gt;AYM40_RS03955&lt;/b&gt;&lt;br&gt;LysR family transcriptional regulator&lt;br&gt;Location: 924727 - 925647" locus_tag="AYM40_RS03955" class="clusterblast-orf" id="dummy-7_h7_9_1"  />
</g>
<g id="a7_002"  >
<polygon points="33,90 45,90 50,85 45,80 33,80 33,90 " style="fill:white; stroke-width:1; stroke:black; " description="&lt;b&gt;AYM40_RS03960&lt;/b&gt;&lt;br&gt;agmatinase&lt;br&gt;Location: 925817 - 926806" locus_tag="AYM40_RS03960" class="clusterblast-orf" id="dummy-7_h7_9_2"  />
</g>
<g id="a7_003"  >
<polygon points="52,85 57,80 74,80 74,90 57,90 52,85 " style="fill:white; stroke-width:1; stroke:black; " description="&lt;b&gt;AYM40_RS03965&lt;/b&gt;&lt;br&gt;putative hydroxymethylpyrimidine transporter CytX&lt;br&gt;Location: 926912 - 928228" locus_tag="AYM40_RS03965" class="clusterblast-orf" id="dummy-7_h7_9_3"  />
</g>
<g id="a7_004"  >
<polygon points="78,90 95,90 100,85 95,80 78,80 78,90 " style="fill:white; stroke-width:1; stroke:black; " description="&lt;b&gt;AYM40_RS03970&lt;/b&gt;&lt;br&gt;replication-associated recombination protein A&lt;br&gt;Location: 928483 - 929796" locus_tag="AYM40_RS03970" class="clusterblast-orf" id="dummy-7_h7_9_4"  />
</g>
<g id="a7_005"  >
<polygon points="103,90 119,90 124,85 119,80 103,80 103,90 " style="fill:white; stroke-width:1; stroke:black; " description="&lt;b&gt;AYM40_RS03975&lt;/b&gt;&lt;br&gt;serine--tRNA ligase&lt;br&gt;Location: 929942 - 931237" locus_tag="AYM40_RS03975" class="clusterblast-orf" id="dummy-7_h7_9_5"  />
</g>
<g id="a7_006"  >
<polygon points="137,90 145,90 150,85 145,80 137,80 137,90 " style="fill:white; stroke-width:1; stroke:black; " description="&lt;b&gt;AYM40_RS03985&lt;/b&gt;&lt;br&gt;hypothetical protein&lt;br&gt;Location: 931972 - 932730" locus_tag="AYM40_RS03985" class="clusterblast-orf" id="dummy-7_h7_9_6"  />
</g>
<g id="a7_007"  >
<polygon points="150,90 165,90 170,85 165,80 150,80 150,90 " style="fill:white; stroke-width:1; stroke:black; " description="&lt;b&gt;AYM40_RS03990&lt;/b&gt;&lt;br&gt;transporter substrate-binding domain-containing protein&lt;br&gt;Location: 932773 - 933930" locus_tag="AYM40_RS03990" class="clusterblast-orf" id="dummy-7_h7_9_7"  />
</g>
<g id="a7_008"  >
<polygon points="176,90 185,90 190,85 185,80 176,80 176,90 " style="fill:white; stroke-width:1; stroke:black; " description="&lt;b&gt;AYM40_RS03995&lt;/b&gt;&lt;br&gt;type I methionyl aminopeptidase&lt;br&gt;Location: 934326 - 935111" locus_tag="AYM40_RS03995" class="clusterblast-orf" id="dummy-7_h7_9_8"  />
</g>
<g id="a7_009"  >
<polygon points="193,90 197,90 202,85 197,80 193,80 193,90 " style="fill:white; stroke-width:1; stroke:black; " description="&lt;b&gt;AYM40_RS04000&lt;/b&gt;&lt;br&gt;GNAT family N-acetyltransferase&lt;br&gt;Location: 935298 - 935831" locus_tag="AYM40_RS04000" class="clusterblast-orf" id="dummy-7_h7_9_9"  />
</g>
<g id="a7_0010"  >
<polygon points="205,90 215,90 220,85 215,80 205,80 205,90 " style="fill:white; stroke-width:1; stroke:black; " description="&lt;b&gt;AYM40_RS04005&lt;/b&gt;&lt;br&gt;septum site-determining protein MinC&lt;br&gt;Location: 936052 - 936915" locus_tag="AYM40_RS04005" class="clusterblast-orf" id="dummy-7_h7_9_10"  />
</g>
<g id="a7_0011"  >
<polygon points="222,90 230,90 235,85 230,80 222,80 222,90 " style="fill:white; stroke-width:1; stroke:black; " description="&lt;b&gt;AYM40_RS04010&lt;/b&gt;&lt;br&gt;septum site-determining protein MinD&lt;br&gt;Location: 937020 - 937835" locus_tag="AYM40_RS04010" class="clusterblast-orf" id="dummy-7_h7_9_11"  />
</g>
<g id="a7_0012"  >
<polygon points="236,90 240,85 236,80 236,90 " style="fill:white; stroke-width:1; stroke:black; " description="&lt;b&gt;AYM40_RS04015&lt;/b&gt;&lt;br&gt;cell division topological specificity factor MinE&lt;br&gt;Location: 937850 - 938113" locus_tag="AYM40_RS04015" class="clusterblast-orf" id="dummy-7_h7_9_12"  />
</g>
<g id="a7_0013"  >
<polygon points="242,85 247,80 266,80 266,90 247,90 242,85 " style="fill:white; stroke-width:1; stroke:black; " description="&lt;b&gt;AYM40_RS04020&lt;/b&gt;&lt;br&gt;chloride channel protein&lt;br&gt;Location: 938224 - 939639" locus_tag="AYM40_RS04020" class="clusterblast-orf" id="dummy-7_h7_9_13"  />
</g>
<g id="a7_0014"  >
<polygon points="274,85 276,80 276,90 274,85 " style="fill:white; stroke-width:1; stroke:black; " description="&lt;b&gt;AYM40_RS43220&lt;/b&gt;&lt;br&gt;hypothetical protein&lt;br&gt;Location: 940144 - 940266" locus_tag="AYM40_RS43220" class="clusterblast-orf" id="dummy-7_h7_9_14"  />
</g>
<g id="a7_0015"  >
<polygon points="280,90 282,85 280,80 280,90 " style="fill:white; stroke-width:1; stroke:black; " description="&lt;b&gt;AYM40_RS43225&lt;/b&gt;&lt;br&gt;hypothetical protein&lt;br&gt;Location: 940477 - 940611" locus_tag="AYM40_RS43225" class="clusterblast-orf" id="dummy-7_h7_9_15"  />
</g>
<g id="a7_0016"  >
<polygon points="283,85 288,80 305,80 305,90 288,90 283,85 " style="fill:white; stroke-width:1; stroke:black; " description="&lt;b&gt;AYM40_RS04025&lt;/b&gt;&lt;br&gt;MFS transporter&lt;br&gt;Location: 940638 - 941945" locus_tag="AYM40_RS04025" class="clusterblast-orf" id="dummy-7_h7_9_16"  />
</g>
<g id="a7_0017"  >
<polygon points="308,85 313,80 317,80 317,90 313,90 308,85 " style="fill:white; stroke-width:1; stroke:black; " description="&lt;b&gt;AYM40_RS04030&lt;/b&gt;&lt;br&gt;cell envelope integrity protein TolA&lt;br&gt;Location: 942129 - 942680" locus_tag="AYM40_RS04030" class="clusterblast-orf" id="dummy-7_h7_9_17"  />
</g>
<g id="a7_0018"  >
<polygon points="324,90 445,90 450,85 445,80 324,80 324,90 " style="fill:#d87715; stroke-width:1; stroke:black; " description="&lt;b&gt;AYM40_RS04035&lt;/b&gt;&lt;br&gt;non-ribosomal peptide synthetase&lt;br&gt;Location: 943072 - 950565&lt;br&gt;&lt;br&gt;&lt;b&gt;BlastP hit with input.path1.gene1068&lt;/b&gt;&lt;br&gt;Percentage identity: 31&lt;br&gt;Percentage coverage: 41&lt;br&gt;BLAST bit score: 217&lt;br&gt;E-value: 1.93e-54" locus_tag="AYM40_RS04035" class="clusterblast-orf" id="dummy-7_h7_9_18"  />
</g>
<g id="a7_0019"  >
<polygon points="454,85 459,80 477,80 477,90 459,90 454,85 " style="fill:#15d877; stroke-width:1; stroke:black; " description="&lt;b&gt;AYM40_RS04040&lt;/b&gt;&lt;br&gt;argininosuccinate lyase&lt;br&gt;Location: 950813 - 952219&lt;br&gt;&lt;br&gt;&lt;b&gt;BlastP hit with input.path1.gene1074&lt;/b&gt;&lt;br&gt;Percentage identity: 42&lt;br&gt;Percentage coverage: 94&lt;br&gt;BLAST bit score: 227&lt;br&gt;E-value: 3.34e-69" locus_tag="AYM40_RS04040" class="clusterblast-orf" id="dummy-7_h7_9_19"  />
</g>
<g id="a7_0020"  >
<polygon points="480,85 485,80 494,80 494,90 485,90 480,85 " style="fill:white; stroke-width:1; stroke:black; " description="&lt;b&gt;AYM40_RS04045&lt;/b&gt;&lt;br&gt;helix-turn-helix transcriptional regulator&lt;br&gt;Location: 952383 - 953195" locus_tag="AYM40_RS04045" class="clusterblast-orf" id="dummy-7_h7_9_20"  />
</g>
<g id="a7_0021"  >
<polygon points="497,90 504,90 509,85 504,80 497,80 497,90 " style="fill:white; stroke-width:1; stroke:black; " description="&lt;b&gt;AYM40_RS04050&lt;/b&gt;&lt;br&gt;class I SAM-dependent methyltransferase&lt;br&gt;Location: 953370 - 954122" locus_tag="AYM40_RS04050" class="clusterblast-orf" id="dummy-7_h7_9_21"  />
</g>
<g id="a7_0022"  >
<polygon points="511,90 512,90 517,85 512,80 511,80 511,90 " style="fill:white; stroke-width:1; stroke:black; " description="&lt;b&gt;AYM40_RS04055&lt;/b&gt;&lt;br&gt;hypothetical protein&lt;br&gt;Location: 954219 - 954554" locus_tag="AYM40_RS04055" class="clusterblast-orf" id="dummy-7_h7_9_22"  />
</g>
<g id="a7_0023"  >
<polygon points="518,85 523,80 572,80 572,90 523,90 518,85 " style="fill:white; stroke-width:1; stroke:black; " description="&lt;b&gt;AYM40_RS04060&lt;/b&gt;&lt;br&gt;phosphoenolpyruvate carboxylase&lt;br&gt;Location: 954615 - 957815" locus_tag="AYM40_RS04060" class="clusterblast-orf" id="dummy-7_h7_9_23"  />
</g>
<g id="a7_0024"  >
<polygon points="579,90 591,90 596,85 591,80 579,80 579,90 " style="fill:white; stroke-width:1; stroke:black; " description="&lt;b&gt;AYM40_RS04065&lt;/b&gt;&lt;br&gt;hydroxymethylbilane synthase&lt;br&gt;Location: 958229 - 959245" locus_tag="AYM40_RS04065" class="clusterblast-orf" id="dummy-7_h7_9_24"  />
</g>
<g id="a7_0025"  >
<polygon points="596,90 625,90 630,85 625,80 596,80 596,90 " style="fill:white; stroke-width:1; stroke:black; " description="&lt;b&gt;AYM40_RS04070&lt;/b&gt;&lt;br&gt;fused uroporphyrinogen-III synthase HemD/membrane protein HemX&lt;br&gt;Location: 959245 - 961263" locus_tag="AYM40_RS04070" class="clusterblast-orf" id="dummy-7_h7_9_25"  />
</g>
<g id="a7_0026"  >
<polygon points="630,90 645,90 650,85 645,80 630,80 630,90 " style="fill:white; stroke-width:1; stroke:black; " description="&lt;b&gt;AYM40_RS04075&lt;/b&gt;&lt;br&gt;heme biosynthesis protein HemY&lt;br&gt;Location: 961266 - 962456" locus_tag="AYM40_RS04075" class="clusterblast-orf" id="dummy-7_h7_9_26"  />
</g>
<g id="a7_0027"  >
<polygon points="653,85 658,80 675,80 675,90 658,90 653,85 " style="fill:white; stroke-width:1; stroke:black; " description="&lt;b&gt;AYM40_RS04080&lt;/b&gt;&lt;br&gt;MFS transporter&lt;br&gt;Location: 962655 - 963974" locus_tag="AYM40_RS04080" class="clusterblast-orf" id="dummy-7_h7_9_27"  />
</g>
<g id="a7_0028"  >
<polygon points="677,85 682,80 689,80 689,90 682,90 677,85 " style="fill:white; stroke-width:1; stroke:black; " description="&lt;b&gt;AYM40_RS04085&lt;/b&gt;&lt;br&gt;SDR family oxidoreductase&lt;br&gt;Location: 964059 - 964817" locus_tag="AYM40_RS04085" class="clusterblast-orf" id="dummy-7_h7_9_28"  />
</g>
<g id="a7_0029"  >
<polygon points="691,85 696,80 715,80 715,90 696,90 691,85 " style="fill:white; stroke-width:1; stroke:black; " description="&lt;b&gt;AYM40_RS04090&lt;/b&gt;&lt;br&gt;aldehyde dehydrogenase family protein&lt;br&gt;Location: 964896 - 966335" locus_tag="AYM40_RS04090" class="clusterblast-orf" id="dummy-7_h7_9_29"  />
</g>
<g id="a7_0030"  >
<polygon points="720,90 724,90 729,85 724,80 720,80 720,90 " style="fill:white; stroke-width:1; stroke:black; " description="&lt;b&gt;AYM40_RS04095&lt;/b&gt;&lt;br&gt;inorganic diphosphatase&lt;br&gt;Location: 966619 - 967146" locus_tag="AYM40_RS04095" class="clusterblast-orf" id="dummy-7_h7_9_30"  />
</g>
<g id="a7_0031"  >
<polygon points="734,90 764,90 769,85 764,80 734,80 734,90 " style="fill:white; stroke-width:1; stroke:black; " description="&lt;b&gt;AYM40_RS04100&lt;/b&gt;&lt;br&gt;FUSC family protein&lt;br&gt;Location: 967443 - 969548" locus_tag="AYM40_RS04100" class="clusterblast-orf" id="dummy-7_h7_9_31"  />
</g>
<g id="a7_0032"  >
<polygon points="775,85 780,80 780,80 780,90 780,90 775,85 " style="fill:white; stroke-width:1; stroke:black; " description="&lt;b&gt;AYM40_RS04105&lt;/b&gt;&lt;br&gt;PAAR domain-containing protein&lt;br&gt;Location: 969880 - 970173" locus_tag="AYM40_RS04105" class="clusterblast-orf" id="dummy-7_h7_9_32"  />
</g>
</svg>
