<svg xmlns="http://www.w3.org/2000/svg" xmlns:xlink="http://www.w3.org/1999/xlink" version="1.1" x="0" y="0" height="230" width="800" viewBox="0 0 800 230" preserveAspectRatio="none"  >
<g label="Query sequence" class="clusterblast-cluster"  >
<text x="5" y="20" class="clusterblast-acc"  >
Query sequence</text>
<line x1="10" y1="35" x2="778.0" y2="35" style="stroke-width:1; stroke:grey; "  />
<polygon points="203,35 208,30 216,30 216,40 208,40 203,35 " style="fill:#d81515; stroke-width:1; stroke:black; " description="&lt;b&gt;input.path1.gene222&lt;/b&gt;&lt;br&gt;input.path1.gene222&lt;br&gt;Location: 1031479 - 1033018" locus_tag="input.path1.gene222" class="clusterblast-orf" id="dummy-3_q0_0_all"  />
<polygon points="227,40 231,40 236,35 231,30 227,30 227,40 " style="fill:#56d815; stroke-width:1; stroke:black; " description="&lt;b&gt;input.path1.gene223&lt;/b&gt;&lt;br&gt;input.path1.gene223&lt;br&gt;Location: 1034197 - 1035191" locus_tag="input.path1.gene223" class="clusterblast-orf" id="dummy-3_q1_0_all"  />
<polygon points="238,35 243,30 244,30 244,40 243,40 238,35 " style="fill:#1597d8; stroke-width:1; stroke:black; " description="&lt;b&gt;input.path1.gene224&lt;/b&gt;&lt;br&gt;input.path1.gene224&lt;br&gt;Location: 1035469 - 1036117" locus_tag="input.path1.gene224" class="clusterblast-orf" id="dummy-3_q2_0_all"  />
<polygon points="246,40 255,40 260,35 255,30 246,30 246,40 " style="fill:#9715d8; stroke-width:1; stroke:black; " description="&lt;b&gt;input.path1.gene225&lt;/b&gt;&lt;br&gt;input.path1.gene225&lt;br&gt;Location: 1036316 - 1037873" locus_tag="input.path1.gene225" class="clusterblast-orf" id="dummy-3_q3_0_all"  />
<polygon points="265,35 268,30 268,40 265,35 " style="fill:#d85615; stroke-width:1; stroke:black; " description="&lt;b&gt;input.path1.gene226&lt;/b&gt;&lt;br&gt;input.path1.gene226&lt;br&gt;Location: 1038449 - 1038834" locus_tag="input.path1.gene226" class="clusterblast-orf" id="dummy-3_q4_0_all"  />
<polygon points="281,40 290,40 295,35 290,30 281,30 281,40 " style="fill:#15d815; stroke-width:1; stroke:black; " description="&lt;b&gt;input.path1.gene227&lt;/b&gt;&lt;br&gt;input.path1.gene227&lt;br&gt;Location: 1040238 - 1041905" locus_tag="input.path1.gene227" class="clusterblast-orf" id="dummy-3_q5_0_all"  />
<polygon points="308,40 324,40 329,35 324,30 308,30 308,40 " style="fill:#1556d8; stroke-width:1; stroke:black; " description="&lt;b&gt;input.path1.gene228&lt;/b&gt;&lt;br&gt;input.path1.gene228&lt;br&gt;Location: 1043332 - 1045694" locus_tag="input.path1.gene228" class="clusterblast-orf" id="dummy-3_q6_0_all"  />
<polygon points="340,35 345,30 349,30 349,40 345,40 340,35 " style="fill:#d815d8; stroke-width:1; stroke:black; " description="&lt;b&gt;input.path1.gene229&lt;/b&gt;&lt;br&gt;input.path1.gene229&lt;br&gt;Location: 1046943 - 1047924" locus_tag="input.path1.gene229" class="clusterblast-orf" id="dummy-3_q7_0_all"  />
<polygon points="368,40 402,40 407,35 402,30 368,30 368,40 " style="fill:#d89715; stroke-width:1; stroke:black; " description="&lt;b&gt;input.path1.gene230&lt;/b&gt;&lt;br&gt;input.path1.gene230&lt;br&gt;Location: 1050043 - 1054412" locus_tag="input.path1.gene230" class="clusterblast-orf" id="dummy-3_q8_0_all"  />
<polygon points="407,35 412,30 425,30 425,40 412,40 407,35 " style="fill:#15d856; stroke-width:1; stroke:black; " description="&lt;b&gt;input.path1.gene231&lt;/b&gt;&lt;br&gt;input.path1.gene231&lt;br&gt;Location: 1054414 - 1056488" locus_tag="input.path1.gene231" class="clusterblast-orf" id="dummy-3_q9_0_all"  />
<polygon points="430,40 430,40 435,35 430,30 430,30 430,40 " style="fill:#1515d8; stroke-width:1; stroke:black; " description="&lt;b&gt;input.path1.gene232&lt;/b&gt;&lt;br&gt;input.path1.gene232&lt;br&gt;Location: 1057066 - 1057572" locus_tag="input.path1.gene232" class="clusterblast-orf" id="dummy-3_q10_0_all"  />
<polygon points="438,35 443,30 448,30 448,40 443,40 438,35 " style="fill:#d81597; stroke-width:1; stroke:black; " description="&lt;b&gt;input.path1.gene233&lt;/b&gt;&lt;br&gt;input.path1.gene233&lt;br&gt;Location: 1057878 - 1059094" locus_tag="input.path1.gene233" class="clusterblast-orf" id="dummy-3_q11_0_all"  />
<polygon points="452,35 457,30 459,30 459,40 457,40 452,35 " style="fill:#d8d815; stroke-width:1; stroke:black; " description="&lt;b&gt;input.path1.gene234&lt;/b&gt;&lt;br&gt;input.path1.gene234&lt;br&gt;Location: 1059459 - 1060326" locus_tag="input.path1.gene234" class="clusterblast-orf" id="dummy-3_q12_0_all"  />
<polygon points="464,40 470,40 475,35 470,30 464,30 464,40 " style="fill:#15d897; stroke-width:1; stroke:black; " description="&lt;b&gt;input.path1.gene235&lt;/b&gt;&lt;br&gt;input.path1.gene235&lt;br&gt;Location: 1060800 - 1062122" locus_tag="input.path1.gene235" class="clusterblast-orf" id="dummy-3_q13_0_all"  />
<polygon points="477,35 482,30 495,30 495,40 482,40 477,35 " style="fill:#5615d8; stroke-width:1; stroke:black; " description="&lt;b&gt;input.path1.gene236&lt;/b&gt;&lt;br&gt;input.path1.gene236&lt;br&gt;Location: 1062317 - 1064290" locus_tag="input.path1.gene236" class="clusterblast-orf" id="dummy-3_q14_0_all"  />
<polygon points="508,40 513,40 518,35 513,30 508,30 508,40 " style="fill:#d81556; stroke-width:1; stroke:black; " description="&lt;b&gt;input.path1.gene237&lt;/b&gt;&lt;br&gt;input.path1.gene237&lt;br&gt;Location: 1065776 - 1066904" locus_tag="input.path1.gene237" class="clusterblast-orf" id="dummy-3_q15_0_all"  />
<polygon points="531,35 536,30 542,30 542,40 536,40 531,35 " style="fill:#97d815; stroke-width:1; stroke:black; " description="&lt;b&gt;input.path1.gene238&lt;/b&gt;&lt;br&gt;input.path1.gene238&lt;br&gt;Location: 1068367 - 1069669" locus_tag="input.path1.gene238" class="clusterblast-orf" id="dummy-3_q16_0_all"  />
<polygon points="547,35 552,30 576,30 576,40 552,40 547,35 " style="fill:#15d8d8; stroke-width:1; stroke:black; " description="&lt;b&gt;input.path1.gene239&lt;/b&gt;&lt;br&gt;input.path1.gene239&lt;br&gt;Location: 1070211 - 1073489" locus_tag="input.path1.gene239" class="clusterblast-orf" id="dummy-3_q17_0_all"  />
</g>
<g label="NZ_MAUJ01000002" description="NZ_MAUJ01000002 (439421-527978): Pseudoalteromonas luteoviolacea strain IPB1 ... (3% of genes show similarity), NRPS,NRPS-like" class="clusterblast-cluster"  >
<text x="5" y="70" class="clusterblast-acc"  >
<a xlink:href="https://antismash-db.secondarymetabolites.org/area?record=NZ_MAUJ01000002&amp;start=439421&amp;end=527978" target="_blank">NZ_MAUJ01000002 (439421-527978)</a>: Pseudoalteromonas luteoviolacea strain IPB1 ... (3% of genes show similarity), NRPS,NRPS-like</text>
<line x1="10" y1="85" x2="778.0" y2="85" style="stroke-width:1; stroke:grey; "  />
</g>
<g id="a3_000"  >
<polygon points="0,90 6,90 11,85 6,80 0,80 0,90 " style="fill:white; stroke-width:1; stroke:black; " description="&lt;b&gt;A7985_RS10460&lt;/b&gt;&lt;br&gt;TonB family protein&lt;br&gt;Location: 440204 - 441505" locus_tag="A7985_RS10460" class="clusterblast-orf" id="dummy-3_h3_10_0"  />
</g>
<g id="a3_001"  >
<polygon points="12,85 15,80 15,90 12,85 " style="fill:white; stroke-width:1; stroke:black; " description="&lt;b&gt;A7985_RS26235&lt;/b&gt;&lt;br&gt;hypothetical protein&lt;br&gt;Location: 441663 - 441920" locus_tag="A7985_RS26235" class="clusterblast-orf" id="dummy-3_h3_10_1"  />
</g>
<g id="a3_002"  >
<polygon points="18,85 23,80 23,80 23,90 23,90 18,85 " style="fill:white; stroke-width:1; stroke:black; " description="&lt;b&gt;A7985_RS10470&lt;/b&gt;&lt;br&gt;hypothetical protein&lt;br&gt;Location: 442291 - 442890" locus_tag="A7985_RS10470" class="clusterblast-orf" id="dummy-3_h3_10_2"  />
</g>
<g id="a3_003"  >
<polygon points="24,85 29,80 43,80 43,90 29,90 24,85 " style="fill:white; stroke-width:1; stroke:black; " description="&lt;b&gt;A7985_RS10475&lt;/b&gt;&lt;br&gt;winged helix-turn-helix domain-containing protein&lt;br&gt;Location: 442991 - 445057" locus_tag="A7985_RS10475" class="clusterblast-orf" id="dummy-3_h3_10_3"  />
</g>
<g id="a3_004"  >
<polygon points="44,90 63,90 68,85 63,80 44,80 44,90 " style="fill:white; stroke-width:1; stroke:black; " description="&lt;b&gt;A7985_RS10480&lt;/b&gt;&lt;br&gt;TonB-dependent receptor&lt;br&gt;Location: 445261 - 447921" locus_tag="A7985_RS10480" class="clusterblast-orf" id="dummy-3_h3_10_4"  />
</g>
<g id="a3_005"  >
<polygon points="72,90 86,90 91,85 86,80 72,80 72,90 " style="fill:white; stroke-width:1; stroke:black; " description="&lt;b&gt;A7985_RS10485&lt;/b&gt;&lt;br&gt;S9 family peptidase&lt;br&gt;Location: 448383 - 450443" locus_tag="A7985_RS10485" class="clusterblast-orf" id="dummy-3_h3_10_5"  />
</g>
<g id="a3_006"  >
<polygon points="93,85 98,80 104,80 104,90 98,90 93,85 " style="fill:white; stroke-width:1; stroke:black; " description="&lt;b&gt;A7985_RS10490&lt;/b&gt;&lt;br&gt;adenylate/guanylate cyclase domain-containing protein&lt;br&gt;Location: 450707 - 451966" locus_tag="A7985_RS10490" class="clusterblast-orf" id="dummy-3_h3_10_6"  />
</g>
<g id="a3_007"  >
<polygon points="106,85 111,80 130,80 130,90 111,90 106,85 " style="fill:white; stroke-width:1; stroke:black; " description="&lt;b&gt;A7985_RS10495&lt;/b&gt;&lt;br&gt;serine hydrolase&lt;br&gt;Location: 452232 - 454826" locus_tag="A7985_RS10495" class="clusterblast-orf" id="dummy-3_h3_10_7"  />
</g>
<g id="a3_008"  >
<polygon points="132,90 133,90 138,85 133,80 132,80 132,90 " style="fill:white; stroke-width:1; stroke:black; " description="&lt;b&gt;A7985_RS10500&lt;/b&gt;&lt;br&gt;alpha/beta hydrolase&lt;br&gt;Location: 455085 - 455819" locus_tag="A7985_RS10500" class="clusterblast-orf" id="dummy-3_h3_10_8"  />
</g>
<g id="a3_009"  >
<polygon points="139,90 139,90 144,85 139,80 139,80 139,90 " style="fill:white; stroke-width:1; stroke:black; " description="&lt;b&gt;A7985_RS10505&lt;/b&gt;&lt;br&gt;YdcF family protein&lt;br&gt;Location: 455918 - 456427" locus_tag="A7985_RS10505" class="clusterblast-orf" id="dummy-3_h3_10_9"  />
</g>
<g id="a3_0010"  >
<polygon points="146,90 150,85 146,80 146,90 " style="fill:white; stroke-width:1; stroke:black; " description="&lt;b&gt;A7985_RS10510&lt;/b&gt;&lt;br&gt;hypothetical protein&lt;br&gt;Location: 456623 - 457132" locus_tag="A7985_RS10510" class="clusterblast-orf" id="dummy-3_h3_10_10"  />
</g>
<g id="a3_0011"  >
<polygon points="152,85 157,80 159,80 159,90 157,90 152,85 " style="fill:white; stroke-width:1; stroke:black; " description="&lt;b&gt;A7985_RS10515&lt;/b&gt;&lt;br&gt;LysR family transcriptional regulator&lt;br&gt;Location: 457319 - 458173" locus_tag="A7985_RS10515" class="clusterblast-orf" id="dummy-3_h3_10_11"  />
</g>
<g id="a3_0012"  >
<polygon points="160,85 165,80 167,80 167,90 165,90 160,85 " style="fill:white; stroke-width:1; stroke:black; " description="&lt;b&gt;A7985_RS10520&lt;/b&gt;&lt;br&gt;hypothetical protein&lt;br&gt;Location: 458203 - 459042" locus_tag="A7985_RS10520" class="clusterblast-orf" id="dummy-3_h3_10_12"  />
</g>
<g id="a3_0013"  >
<polygon points="170,90 197,90 202,85 197,80 170,80 170,90 " style="fill:#d89715; stroke-width:1; stroke:black; " description="&lt;b&gt;A7985_RS10525&lt;/b&gt;&lt;br&gt;amino acid adenylation domain-containing protein&lt;br&gt;Location: 459422 - 462976&lt;br&gt;&lt;br&gt;&lt;b&gt;BlastP hit with input.path1.gene230&lt;/b&gt;&lt;br&gt;Percentage identity: 32&lt;br&gt;Percentage coverage: 33&lt;br&gt;BLAST bit score: 164&lt;br&gt;E-value: 1.8e-38" locus_tag="A7985_RS10525" class="clusterblast-orf" id="dummy-3_h3_10_13"  />
</g>
<g id="a3_0014"  >
<polygon points="205,90 205,90 210,85 205,80 205,80 205,90 " style="fill:white; stroke-width:1; stroke:black; " description="&lt;b&gt;A7985_RS10530&lt;/b&gt;&lt;br&gt;hypothetical protein&lt;br&gt;Location: 463306 - 463866" locus_tag="A7985_RS10530" class="clusterblast-orf" id="dummy-3_h3_10_14"  />
</g>
<g id="a3_0015"  >
<polygon points="211,85 216,80 222,80 222,90 216,90 211,85 " style="fill:white; stroke-width:1; stroke:black; " description="&lt;b&gt;A7985_RS10535&lt;/b&gt;&lt;br&gt;zinc metallochaperone GTPase ZigA&lt;br&gt;Location: 464014 - 465228" locus_tag="A7985_RS10535" class="clusterblast-orf" id="dummy-3_h3_10_15"  />
</g>
<g id="a3_0016"  >
<polygon points="223,85 227,80 227,90 223,85 " style="fill:white; stroke-width:1; stroke:black; " description="&lt;b&gt;A7985_RS10540&lt;/b&gt;&lt;br&gt;TraR/DksA C4-type zinc finger protein&lt;br&gt;Location: 465322 - 465753" locus_tag="A7985_RS10540" class="clusterblast-orf" id="dummy-3_h3_10_16"  />
</g>
<g id="a3_0017"  >
<polygon points="229,85 231,80 231,90 229,85 " style="fill:white; stroke-width:1; stroke:black; " description="&lt;b&gt;A7985_RS10545&lt;/b&gt;&lt;br&gt;hypothetical protein&lt;br&gt;Location: 466001 - 466216" locus_tag="A7985_RS10545" class="clusterblast-orf" id="dummy-3_h3_10_17"  />
</g>
<g id="a3_0018"  >
<polygon points="234,90 235,85 234,80 234,90 " style="fill:white; stroke-width:1; stroke:black; " description="&lt;b&gt;A7985_RS26460&lt;/b&gt;&lt;br&gt;hypothetical protein&lt;br&gt;Location: 466510 - 466662" locus_tag="A7985_RS26460" class="clusterblast-orf" id="dummy-3_h3_10_18"  />
</g>
<g id="a3_0019"  >
<polygon points="239,90 252,90 257,85 252,80 239,80 239,90 " style="fill:white; stroke-width:1; stroke:black; " description="&lt;b&gt;A7985_RS10550&lt;/b&gt;&lt;br&gt;DUF1800 domain-containing protein&lt;br&gt;Location: 467136 - 469163" locus_tag="A7985_RS10550" class="clusterblast-orf" id="dummy-3_h3_10_19"  />
</g>
<g id="a3_0020"  >
<polygon points="257,90 264,90 269,85 264,80 257,80 257,90 " style="fill:white; stroke-width:1; stroke:black; " description="&lt;b&gt;A7985_RS10555&lt;/b&gt;&lt;br&gt;DUF1501 domain-containing protein&lt;br&gt;Location: 469173 - 470531" locus_tag="A7985_RS10555" class="clusterblast-orf" id="dummy-3_h3_10_20"  />
</g>
<g id="a3_0021"  >
<polygon points="270,85 275,80 278,80 278,90 275,90 270,85 " style="fill:white; stroke-width:1; stroke:black; " description="&lt;b&gt;A7985_RS10560&lt;/b&gt;&lt;br&gt;histone deacetylase&lt;br&gt;Location: 470571 - 471476" locus_tag="A7985_RS10560" class="clusterblast-orf" id="dummy-3_h3_10_21"  />
</g>
<g id="a3_0022"  >
<polygon points="282,90 305,90 310,85 305,80 282,80 282,90 " style="fill:white; stroke-width:1; stroke:black; " description="&lt;b&gt;A7985_RS10565&lt;/b&gt;&lt;br&gt;M43 family zinc metalloprotease&lt;br&gt;Location: 471949 - 475122" locus_tag="A7985_RS10565" class="clusterblast-orf" id="dummy-3_h3_10_22"  />
</g>
<g id="a3_0023"  >
<polygon points="311,85 316,80 335,80 335,90 316,90 311,85 " style="fill:white; stroke-width:1; stroke:black; " description="&lt;b&gt;A7985_RS10570&lt;/b&gt;&lt;br&gt;tetratricopeptide repeat protein&lt;br&gt;Location: 475186 - 477894" locus_tag="A7985_RS10570" class="clusterblast-orf" id="dummy-3_h3_10_23"  />
</g>
<g id="a3_0024"  >
<polygon points="338,85 343,80 353,80 353,90 343,90 338,85 " style="fill:white; stroke-width:1; stroke:black; " description="&lt;b&gt;A7985_RS10575&lt;/b&gt;&lt;br&gt;cell envelope integrity protein TolA&lt;br&gt;Location: 478296 - 479999" locus_tag="A7985_RS10575" class="clusterblast-orf" id="dummy-3_h3_10_24"  />
</g>
<g id="a3_0025"  >
<polygon points="360,85 365,80 366,80 366,90 365,90 360,85 " style="fill:white; stroke-width:1; stroke:black; " description="&lt;b&gt;A7985_RS10580&lt;/b&gt;&lt;br&gt;LysE family translocator&lt;br&gt;Location: 480776 - 481372" locus_tag="A7985_RS10580" class="clusterblast-orf" id="dummy-3_h3_10_25"  />
</g>
<g id="a3_0026"  >
<polygon points="367,90 369,90 374,85 369,80 367,80 367,90 " style="fill:white; stroke-width:1; stroke:black; " description="&lt;b&gt;A7985_RS10585&lt;/b&gt;&lt;br&gt;LysR family transcriptional regulator&lt;br&gt;Location: 481472 - 482353" locus_tag="A7985_RS10585" class="clusterblast-orf" id="dummy-3_h3_10_26"  />
</g>
<g id="a3_0027"  >
<polygon points="374,85 379,80 388,80 388,90 379,90 374,85 " style="fill:white; stroke-width:1; stroke:black; " description="&lt;b&gt;A7985_RS10590&lt;/b&gt;&lt;br&gt;aldehyde dehydrogenase&lt;br&gt;Location: 482350 - 483870" locus_tag="A7985_RS10590" class="clusterblast-orf" id="dummy-3_h3_10_27"  />
</g>
<g id="a3_0028"  >
<polygon points="389,90 393,90 398,85 393,80 389,80 389,90 " style="fill:white; stroke-width:1; stroke:black; " description="&lt;b&gt;A7985_RS10595&lt;/b&gt;&lt;br&gt;AraC family transcriptional regulator N-terminal domain-containing protein&lt;br&gt;Location: 484023 - 484973" locus_tag="A7985_RS10595" class="clusterblast-orf" id="dummy-3_h3_10_28"  />
</g>
<g id="a3_0029"  >
<polygon points="397,85 401,80 401,90 397,85 " style="fill:white; stroke-width:1; stroke:black; " description="&lt;b&gt;A7985_RS10600&lt;/b&gt;&lt;br&gt;NAD(P)H-dependent oxidoreductase&lt;br&gt;Location: 484933 - 485388" locus_tag="A7985_RS10600" class="clusterblast-orf" id="dummy-3_h3_10_29"  />
</g>
<g id="a3_0030"  >
<polygon points="402,90 402,90 407,85 402,80 402,80 402,90 " style="fill:white; stroke-width:1; stroke:black; " description="&lt;b&gt;A7985_RS10605&lt;/b&gt;&lt;br&gt;redox-sensitive transcriptional activator SoxR&lt;br&gt;Location: 485483 - 485983" locus_tag="A7985_RS10605" class="clusterblast-orf" id="dummy-3_h3_10_30"  />
</g>
<g id="a3_0031"  >
<polygon points="407,90 418,90 423,85 418,80 407,80 407,90 " style="fill:white; stroke-width:1; stroke:black; " description="&lt;b&gt;A7985_RS10610&lt;/b&gt;&lt;br&gt;DUF885 domain-containing protein&lt;br&gt;Location: 486001 - 487785" locus_tag="A7985_RS10610" class="clusterblast-orf" id="dummy-3_h3_10_31"  />
</g>
<g id="a3_0032"  >
<polygon points="425,90 433,90 438,85 433,80 425,80 425,90 " style="fill:white; stroke-width:1; stroke:black; " description="&lt;b&gt;A7985_RS10615&lt;/b&gt;&lt;br&gt;alpha/beta hydrolase&lt;br&gt;Location: 488030 - 489499" locus_tag="A7985_RS10615" class="clusterblast-orf" id="dummy-3_h3_10_32"  />
</g>
<g id="a3_0033"  >
<polygon points="439,85 443,80 443,90 439,85 " style="fill:white; stroke-width:1; stroke:black; " description="&lt;b&gt;A7985_RS10620&lt;/b&gt;&lt;br&gt;MAPEG family protein&lt;br&gt;Location: 489636 - 490061" locus_tag="A7985_RS10620" class="clusterblast-orf" id="dummy-3_h3_10_33"  />
</g>
<g id="a3_0034"  >
<polygon points="444,90 447,90 452,85 447,80 444,80 444,90 " style="fill:white; stroke-width:1; stroke:black; " description="&lt;b&gt;A7985_RS10625&lt;/b&gt;&lt;br&gt;helix-turn-helix domain-containing protein&lt;br&gt;Location: 490156 - 491124" locus_tag="A7985_RS10625" class="clusterblast-orf" id="dummy-3_h3_10_34"  />
</g>
<g id="a3_0035"  >
<polygon points="453,90 459,90 464,85 459,80 453,80 453,90 " style="fill:white; stroke-width:1; stroke:black; " description="&lt;b&gt;A7985_RS10630&lt;/b&gt;&lt;br&gt;heparan-alpha-glucosaminide N-acetyltransferase domain-containing protein&lt;br&gt;Location: 491238 - 492407" locus_tag="A7985_RS10630" class="clusterblast-orf" id="dummy-3_h3_10_35"  />
</g>
<g id="a3_0036"  >
<polygon points="464,85 468,80 468,90 464,85 " style="fill:white; stroke-width:1; stroke:black; " description="&lt;b&gt;A7985_RS10635&lt;/b&gt;&lt;br&gt;hypothetical protein&lt;br&gt;Location: 492394 - 492861" locus_tag="A7985_RS10635" class="clusterblast-orf" id="dummy-3_h3_10_36"  />
</g>
<g id="a3_0037"  >
<polygon points="468,85 473,80 475,80 475,90 473,90 468,85 " style="fill:white; stroke-width:1; stroke:black; " description="&lt;b&gt;A7985_RS10640&lt;/b&gt;&lt;br&gt;PhzF family phenazine biosynthesis protein&lt;br&gt;Location: 492886 - 493683" locus_tag="A7985_RS10640" class="clusterblast-orf" id="dummy-3_h3_10_37"  />
</g>
<g id="a3_0038"  >
<polygon points="478,85 480,80 480,90 478,85 " style="fill:white; stroke-width:1; stroke:black; " description="&lt;b&gt;A7985_RS10645&lt;/b&gt;&lt;br&gt;cold-shock protein&lt;br&gt;Location: 494007 - 494216" locus_tag="A7985_RS10645" class="clusterblast-orf" id="dummy-3_h3_10_38"  />
</g>
<g id="a3_0039"  >
<polygon points="486,90 486,90 491,85 486,80 486,80 486,90 " style="fill:#d85615; stroke-width:1; stroke:black; " description="&lt;b&gt;A7985_RS10650&lt;/b&gt;&lt;br&gt;NADAR family protein&lt;br&gt;Location: 494861 - 495403&lt;br&gt;&lt;br&gt;&lt;b&gt;BlastP hit with input.path1.gene226&lt;/b&gt;&lt;br&gt;Percentage identity: 44&lt;br&gt;Percentage coverage: 88&lt;br&gt;BLAST bit score: 85&lt;br&gt;E-value: 1.03e-19" locus_tag="A7985_RS10650" class="clusterblast-orf" id="dummy-3_h3_10_39"  />
</g>
<g id="a3_0040"  >
<polygon points="491,85 495,80 495,90 491,85 " style="fill:white; stroke-width:1; stroke:black; " description="&lt;b&gt;A7985_RS10655&lt;/b&gt;&lt;br&gt;N-acetyltransferase&lt;br&gt;Location: 495430 - 495867" locus_tag="A7985_RS10655" class="clusterblast-orf" id="dummy-3_h3_10_40"  />
</g>
<g id="a3_0041"  >
<polygon points="495,85 500,80 501,80 501,90 500,90 495,85 " style="fill:white; stroke-width:1; stroke:black; " description="&lt;b&gt;A7985_RS10660&lt;/b&gt;&lt;br&gt;C39 family peptidase&lt;br&gt;Location: 495929 - 496582" locus_tag="A7985_RS10660" class="clusterblast-orf" id="dummy-3_h3_10_41"  />
</g>
<g id="a3_0042"  >
<polygon points="504,85 509,80 518,80 518,90 509,90 504,85 " style="fill:white; stroke-width:1; stroke:black; " description="&lt;b&gt;A7985_RS10665&lt;/b&gt;&lt;br&gt;methyl-accepting chemotaxis protein&lt;br&gt;Location: 496879 - 498510" locus_tag="A7985_RS10665" class="clusterblast-orf" id="dummy-3_h3_10_42"  />
</g>
<g id="a3_0043"  >
<polygon points="523,85 526,80 526,90 523,85 " style="fill:white; stroke-width:1; stroke:black; " description="&lt;b&gt;A7985_RS10670&lt;/b&gt;&lt;br&gt;DUF5329 family protein&lt;br&gt;Location: 499067 - 499429" locus_tag="A7985_RS10670" class="clusterblast-orf" id="dummy-3_h3_10_43"  />
</g>
<g id="a3_0044"  >
<polygon points="528,85 533,80 538,80 538,90 533,90 528,85 " style="fill:white; stroke-width:1; stroke:black; " description="&lt;b&gt;A7985_RS10675&lt;/b&gt;&lt;br&gt;hypothetical protein&lt;br&gt;Location: 499563 - 500768" locus_tag="A7985_RS10675" class="clusterblast-orf" id="dummy-3_h3_10_44"  />
</g>
<g id="a3_0045"  >
<polygon points="542,85 547,80 602,80 602,90 547,90 542,85 " style="fill:white; stroke-width:1; stroke:black; " description="&lt;b&gt;A7985_RS10685&lt;/b&gt;&lt;br&gt;non-ribosomal peptide synthetase&lt;br&gt;Location: 501154 - 507978" locus_tag="A7985_RS10685" class="clusterblast-orf" id="dummy-3_h3_10_45"  />
</g>
<g id="a3_0046"  >
<polygon points="605,85 610,80 628,80 628,90 610,90 605,85 " style="fill:white; stroke-width:1; stroke:black; " description="&lt;b&gt;A7985_RS10690&lt;/b&gt;&lt;br&gt;FtsX-like permease family protein&lt;br&gt;Location: 508324 - 510861" locus_tag="A7985_RS10690" class="clusterblast-orf" id="dummy-3_h3_10_46"  />
</g>
<g id="a3_0047"  >
<polygon points="628,85 633,80 634,80 634,90 633,90 628,85 " style="fill:white; stroke-width:1; stroke:black; " description="&lt;b&gt;A7985_RS10695&lt;/b&gt;&lt;br&gt;ABC transporter ATP-binding protein&lt;br&gt;Location: 510858 - 511508" locus_tag="A7985_RS10695" class="clusterblast-orf" id="dummy-3_h3_10_47"  />
</g>
<g id="a3_0048"  >
<polygon points="637,90 640,85 637,80 637,90 " style="fill:white; stroke-width:1; stroke:black; " description="&lt;b&gt;A7985_RS10700&lt;/b&gt;&lt;br&gt;VOC family protein&lt;br&gt;Location: 511818 - 512195" locus_tag="A7985_RS10700" class="clusterblast-orf" id="dummy-3_h3_10_48"  />
</g>
<g id="a3_0049"  >
<polygon points="643,85 648,80 654,80 654,90 648,90 643,85 " style="fill:white; stroke-width:1; stroke:black; " description="&lt;b&gt;A7985_RS10705&lt;/b&gt;&lt;br&gt;endonuclease/exonuclease/phosphatase family protein&lt;br&gt;Location: 512526 - 513731" locus_tag="A7985_RS10705" class="clusterblast-orf" id="dummy-3_h3_10_49"  />
</g>
<g id="a3_0050"  >
<polygon points="656,90 658,90 663,85 658,80 656,80 656,90 " style="fill:white; stroke-width:1; stroke:black; " description="&lt;b&gt;A7985_RS10710&lt;/b&gt;&lt;br&gt;sterol desaturase family protein&lt;br&gt;Location: 514039 - 514764" locus_tag="A7985_RS10710" class="clusterblast-orf" id="dummy-3_h3_10_50"  />
</g>
<g id="a3_0051"  >
<polygon points="663,85 666,80 666,90 663,85 " style="fill:white; stroke-width:1; stroke:black; " description="&lt;b&gt;A7985_RS10715&lt;/b&gt;&lt;br&gt;hypothetical protein&lt;br&gt;Location: 514806 - 515165" locus_tag="A7985_RS10715" class="clusterblast-orf" id="dummy-3_h3_10_51"  />
</g>
<g id="a3_0052"  >
<polygon points="667,85 669,80 669,90 667,85 " style="fill:white; stroke-width:1; stroke:black; " description="&lt;b&gt;A7985_RS10720&lt;/b&gt;&lt;br&gt;hypothetical protein&lt;br&gt;Location: 515294 - 515521" locus_tag="A7985_RS10720" class="clusterblast-orf" id="dummy-3_h3_10_52"  />
</g>
<g id="a3_0053"  >
<polygon points="673,85 678,80 678,80 678,90 678,90 673,85 " style="fill:white; stroke-width:1; stroke:black; " description="&lt;b&gt;A7985_RS10725&lt;/b&gt;&lt;br&gt;hypothetical protein&lt;br&gt;Location: 515897 - 516475" locus_tag="A7985_RS10725" class="clusterblast-orf" id="dummy-3_h3_10_53"  />
</g>
<g id="a3_0054"  >
<polygon points="678,85 683,80 684,80 684,90 683,90 678,85 " style="fill:white; stroke-width:1; stroke:black; " description="&lt;b&gt;A7985_RS10730&lt;/b&gt;&lt;br&gt;ribonuclease E/G&lt;br&gt;Location: 516514 - 517164" locus_tag="A7985_RS10730" class="clusterblast-orf" id="dummy-3_h3_10_54"  />
</g>
<g id="a3_0055"  >
<polygon points="684,85 685,80 685,90 684,85 " style="fill:white; stroke-width:1; stroke:black; " description="&lt;b&gt;A7985_RS26895&lt;/b&gt;&lt;br&gt;hypothetical protein&lt;br&gt;Location: 517192 - 517314" locus_tag="A7985_RS26895" class="clusterblast-orf" id="dummy-3_h3_10_55"  />
</g>
<g id="a3_0056"  >
<polygon points="687,85 692,80 693,80 693,90 692,90 687,85 " style="fill:white; stroke-width:1; stroke:black; " description="&lt;b&gt;A7985_RS26900&lt;/b&gt;&lt;br&gt;fibrinogen-like YCDxxxxGGGW domain-containing protein&lt;br&gt;Location: 517445 - 518218" locus_tag="A7985_RS26900" class="clusterblast-orf" id="dummy-3_h3_10_56"  />
</g>
<g id="a3_0057"  >
<polygon points="695,85 696,80 696,90 695,85 " style="fill:white; stroke-width:1; stroke:black; " description="&lt;b&gt;A7985_RS26905&lt;/b&gt;&lt;br&gt;collagen-like protein&lt;br&gt;Location: 518348 - 518539" locus_tag="A7985_RS26905" class="clusterblast-orf" id="dummy-3_h3_10_57"  />
</g>
<g id="a3_0058"  >
<polygon points="711,90 715,85 711,80 711,90 " style="fill:white; stroke-width:1; stroke:black; " description="&lt;b&gt;A7985_RS10745&lt;/b&gt;&lt;br&gt;hypothetical protein&lt;br&gt;Location: 520152 - 520664" locus_tag="A7985_RS10745" class="clusterblast-orf" id="dummy-3_h3_10_58"  />
</g>
<g id="a3_0059"  >
<polygon points="717,90 717,90 722,85 717,80 717,80 717,90 " style="fill:white; stroke-width:1; stroke:black; " description="&lt;b&gt;A7985_RS10750&lt;/b&gt;&lt;br&gt;DinB family protein&lt;br&gt;Location: 520855 - 521397" locus_tag="A7985_RS10750" class="clusterblast-orf" id="dummy-3_h3_10_59"  />
</g>
<g id="a3_0060"  >
<polygon points="723,90 730,90 735,85 730,80 723,80 723,90 " style="fill:white; stroke-width:1; stroke:black; " description="&lt;b&gt;A7985_RS10755&lt;/b&gt;&lt;br&gt;ATP-dependent RNA helicase DbpA&lt;br&gt;Location: 521531 - 522931" locus_tag="A7985_RS10755" class="clusterblast-orf" id="dummy-3_h3_10_60"  />
</g>
<g id="a3_0061"  >
<polygon points="737,85 742,80 745,80 745,90 742,90 737,85 " style="fill:white; stroke-width:1; stroke:black; " description="&lt;b&gt;A7985_RS10760&lt;/b&gt;&lt;br&gt;response regulator&lt;br&gt;Location: 523065 - 523961" locus_tag="A7985_RS10760" class="clusterblast-orf" id="dummy-3_h3_10_61"  />
</g>
<g id="a3_0062"  >
<polygon points="747,90 748,90 753,85 748,80 747,80 747,90 " style="fill:white; stroke-width:1; stroke:black; " description="&lt;b&gt;A7985_RS10765&lt;/b&gt;&lt;br&gt;chromosome partitioning protein ParA&lt;br&gt;Location: 524182 - 524862" locus_tag="A7985_RS10765" class="clusterblast-orf" id="dummy-3_h3_10_62"  />
</g>
<g id="a3_0063"  >
<polygon points="753,85 758,80 761,80 761,90 758,90 753,85 " style="fill:white; stroke-width:1; stroke:black; " description="&lt;b&gt;A7985_RS10770&lt;/b&gt;&lt;br&gt;DUF2306 domain-containing protein&lt;br&gt;Location: 524953 - 525843" locus_tag="A7985_RS10770" class="clusterblast-orf" id="dummy-3_h3_10_63"  />
</g>
<g id="a3_0064"  >
<polygon points="765,85 770,80 773,80 773,90 770,90 765,85 " style="fill:white; stroke-width:1; stroke:black; " description="&lt;b&gt;A7985_RS10775&lt;/b&gt;&lt;br&gt;LysR family transcriptional regulator&lt;br&gt;Location: 526207 - 527139" locus_tag="A7985_RS10775" class="clusterblast-orf" id="dummy-3_h3_10_64"  />
</g>
<g id="a3_0065"  >
<polygon points="774,90 775,90 780,85 775,80 774,80 774,90 " style="fill:white; stroke-width:1; stroke:black; " description="&lt;b&gt;A7985_RS10780&lt;/b&gt;&lt;br&gt;NAD(P)-dependent oxidoreductase&lt;br&gt;Location: 527252 - 527890" locus_tag="A7985_RS10780" class="clusterblast-orf" id="dummy-3_h3_10_65"  />
</g>
</svg>
