<svg xmlns="http://www.w3.org/2000/svg" xmlns:xlink="http://www.w3.org/1999/xlink" version="1.1" x="0" y="0" height="230" width="800" viewBox="0 0 800 230" preserveAspectRatio="none"  >
<g label="Query sequence" class="clusterblast-cluster"  >
<text x="5" y="20" class="clusterblast-acc"  >
Query sequence</text>
<line x1="10" y1="35" x2="778.0" y2="35" style="stroke-width:1; stroke:grey; "  />
<polygon points="123,40 127,35 123,30 123,40 " style="fill:white; stroke-width:1; stroke:black; " description="&lt;b&gt;input.path1.gene1186&lt;/b&gt;&lt;br&gt;input.path1.gene1186&lt;br&gt;Location: 4298558 - 4298866" locus_tag="input.path1.gene1186" class="clusterblast-orf" id="dummy-4_q0_0_all"  />
<polygon points="127,35 132,30 135,30 135,40 132,40 127,35 " style="fill:#d81515; stroke-width:1; stroke:black; " description="&lt;b&gt;input.path1.gene1187&lt;/b&gt;&lt;br&gt;input.path1.gene1187&lt;br&gt;Location: 4298866 - 4299520" locus_tag="input.path1.gene1187" class="clusterblast-orf" id="dummy-4_q1_0_all"  />
<polygon points="151,40 161,40 166,35 161,30 151,30 151,40 " style="fill:#15d815; stroke-width:1; stroke:black; " description="&lt;b&gt;input.path1.gene1188&lt;/b&gt;&lt;br&gt;input.path1.gene1188&lt;br&gt;Location: 4300831 - 4302075" locus_tag="input.path1.gene1188" class="clusterblast-orf" id="dummy-4_q2_0_all"  />
<polygon points="198,35 203,30 210,30 210,40 203,40 198,35 " style="fill:#1597d8; stroke-width:1; stroke:black; " description="&lt;b&gt;input.path1.gene1189&lt;/b&gt;&lt;br&gt;input.path1.gene1189&lt;br&gt;Location: 4304681 - 4305656" locus_tag="input.path1.gene1189" class="clusterblast-orf" id="dummy-4_q3_0_all"  />
<polygon points="249,40 259,40 264,35 259,30 249,30 249,40 " style="fill:#9715d8; stroke-width:1; stroke:black; " description="&lt;b&gt;input.path1.gene1190&lt;/b&gt;&lt;br&gt;input.path1.gene1190&lt;br&gt;Location: 4308782 - 4309961" locus_tag="input.path1.gene1190" class="clusterblast-orf" id="dummy-4_q4_0_all"  />
<polygon points="282,40 284,35 282,30 282,40 " style="fill:white; stroke-width:1; stroke:black; " description="&lt;b&gt;input.path1.gene1191&lt;/b&gt;&lt;br&gt;input.path1.gene1191&lt;br&gt;Location: 4311432 - 4311647" locus_tag="input.path1.gene1191" class="clusterblast-orf" id="dummy-4_q5_0_all"  />
<polygon points="346,40 357,40 362,35 357,30 346,30 346,40 " style="fill:#d89715; stroke-width:1; stroke:black; " description="&lt;b&gt;input.path1.gene1192&lt;/b&gt;&lt;br&gt;input.path1.gene1192&lt;br&gt;Location: 4316637 - 4317978" locus_tag="input.path1.gene1192" class="clusterblast-orf" id="dummy-4_q6_0_all"  />
<polygon points="368,35 373,30 435,30 435,40 373,40 368,35 " style="fill:#15d897; stroke-width:1; stroke:black; " description="&lt;b&gt;input.path1.gene1193&lt;/b&gt;&lt;br&gt;input.path1.gene1193&lt;br&gt;Location: 4318433 - 4323860" locus_tag="input.path1.gene1193" class="clusterblast-orf" id="dummy-4_q7_0_all"  />
<polygon points="456,40 476,40 481,35 476,30 456,30 456,40 " style="fill:#1515d8; stroke-width:1; stroke:black; " description="&lt;b&gt;input.path1.gene1194&lt;/b&gt;&lt;br&gt;input.path1.gene1194&lt;br&gt;Location: 4325545 - 4327618" locus_tag="input.path1.gene1194" class="clusterblast-orf" id="dummy-4_q8_0_all"  />
<polygon points="483,35 488,30 535,30 535,40 488,40 483,35 " style="fill:#d81597; stroke-width:1; stroke:black; " description="&lt;b&gt;input.path1.gene1195&lt;/b&gt;&lt;br&gt;input.path1.gene1195&lt;br&gt;Location: 4327791 - 4331989" locus_tag="input.path1.gene1195" class="clusterblast-orf" id="dummy-4_q9_0_all"  />
<polygon points="561,40 651,40 656,35 651,30 561,30 561,40 " style="fill:#97d815; stroke-width:1; stroke:black; " description="&lt;b&gt;input.path1.gene1196&lt;/b&gt;&lt;br&gt;input.path1.gene1196&lt;br&gt;Location: 4334074 - 4341817" locus_tag="input.path1.gene1196" class="clusterblast-orf" id="dummy-4_q10_0_all"  />
</g>
<g label="NW_014013664" description="NW_014013664 (48182-113471): Trichoderma virens Gv29-8 chromosome Unknown TRI... (64% of genes show similarity), NRPS" class="clusterblast-cluster"  >
<text x="5" y="70" class="clusterblast-acc"  >
<a xlink:href="https://antismash-db.secondarymetabolites.org/area?record=NW_014013664&amp;start=48182&amp;end=113471" target="_blank">NW_014013664 (48182-113471)</a>: Trichoderma virens Gv29-8 chromosome Unknown TRI... (64% of genes show similarity), NRPS</text>
<line x1="10" y1="85" x2="778.0" y2="85" style="stroke-width:1; stroke:grey; "  />
</g>
<g id="a4_000"  >
<polygon points="0,85 5,80 26,80 26,90 5,90 0,85 " style="fill:white; stroke-width:1; stroke:black; " description="&lt;b&gt;TRIVIDRAFT_66715&lt;/b&gt;&lt;br&gt;hypothetical protein&lt;br&gt;Location: 50034 - 52156" locus_tag="TRIVIDRAFT_66715" class="clusterblast-orf" id="dummy-4_h4_2_0"  />
</g>
<g id="a4_001"  >
<polygon points="52,85 57,80 81,80 81,90 57,90 52,85 " style="fill:white; stroke-width:1; stroke:black; " description="&lt;b&gt;TRIVIDRAFT_88835&lt;/b&gt;&lt;br&gt;hypothetical protein&lt;br&gt;Location: 54259 - 56669" locus_tag="TRIVIDRAFT_88835" class="clusterblast-orf" id="dummy-4_h4_2_1"  />
</g>
<g id="a4_002"  >
<polygon points="100,85 105,80 113,80 113,90 105,90 100,85 " style="fill:white; stroke-width:1; stroke:black; " description="&lt;b&gt;TRIVIDRAFT_231515&lt;/b&gt;&lt;br&gt;hypothetical protein&lt;br&gt;Location: 58163 - 59211" locus_tag="TRIVIDRAFT_231515" class="clusterblast-orf" id="dummy-4_h4_2_2"  />
</g>
<g id="a4_003"  >
<polygon points="122,85 127,80 133,80 133,90 127,90 122,85 " style="fill:#d81515; stroke-width:1; stroke:black; " description="&lt;b&gt;TRIVIDRAFT_111539&lt;/b&gt;&lt;br&gt;secretion-related small GTPase&lt;br&gt;Location: 59942 - 60869&lt;br&gt;&lt;br&gt;&lt;b&gt;BlastP hit with input.path1.gene1187&lt;/b&gt;&lt;br&gt;Percentage identity: 96&lt;br&gt;Percentage coverage: 92&lt;br&gt;BLAST bit score: 265&lt;br&gt;E-value: 1.65e-89" locus_tag="TRIVIDRAFT_111539" class="clusterblast-orf" id="dummy-4_h4_2_3"  />
</g>
<g id="a4_004"  >
<polygon points="147,90 188,90 193,85 188,80 147,80 147,90 " style="fill:#15d815; stroke-width:1; stroke:black; " description="&lt;b&gt;TRIVIDRAFT_204103&lt;/b&gt;&lt;br&gt;hypothetical protein&lt;br&gt;Location: 61963 - 65700&lt;br&gt;&lt;br&gt;&lt;b&gt;BlastP hit with input.path1.gene1188&lt;/b&gt;&lt;br&gt;Percentage identity: 39&lt;br&gt;Percentage coverage: 59&lt;br&gt;BLAST bit score: 95&lt;br&gt;E-value: 3.27e-20" locus_tag="TRIVIDRAFT_204103" class="clusterblast-orf" id="dummy-4_h4_2_4"  />
</g>
<g id="a4_005"  >
<polygon points="199,85 204,80 213,80 213,90 204,90 199,85 " style="fill:#1597d8; stroke-width:1; stroke:black; " description="&lt;b&gt;TRIVIDRAFT_231517&lt;/b&gt;&lt;br&gt;hypothetical protein&lt;br&gt;Location: 66200 - 67340&lt;br&gt;&lt;br&gt;&lt;b&gt;BlastP hit with input.path1.gene1189&lt;/b&gt;&lt;br&gt;Percentage identity: 42&lt;br&gt;Percentage coverage: 80&lt;br&gt;BLAST bit score: 121&lt;br&gt;E-value: 1.33e-30" locus_tag="TRIVIDRAFT_231517" class="clusterblast-orf" id="dummy-4_h4_2_5"  />
</g>
<g id="a4_006"  >
<polygon points="238,90 251,90 256,85 251,80 238,80 238,90 " style="fill:#9715d8; stroke-width:1; stroke:black; " description="&lt;b&gt;TRIVIDRAFT_57566&lt;/b&gt;&lt;br&gt;hypothetical protein&lt;br&gt;Location: 69384 - 70863&lt;br&gt;&lt;br&gt;&lt;b&gt;BlastP hit with input.path1.gene1190&lt;/b&gt;&lt;br&gt;Percentage identity: 68&lt;br&gt;Percentage coverage: 42&lt;br&gt;BLAST bit score: 177&lt;br&gt;E-value: 9.13e-50" locus_tag="TRIVIDRAFT_57566" class="clusterblast-orf" id="dummy-4_h4_2_6"  />
</g>
<g id="a4_007"  >
<polygon points="324,90 335,90 340,85 335,80 324,80 324,90 " style="fill:#d89715; stroke-width:1; stroke:black; " description="&lt;b&gt;TRIVIDRAFT_172349&lt;/b&gt;&lt;br&gt;hypothetical protein&lt;br&gt;Location: 76328 - 77656&lt;br&gt;&lt;br&gt;&lt;b&gt;BlastP hit with input.path1.gene1192&lt;/b&gt;&lt;br&gt;Percentage identity: 43&lt;br&gt;Percentage coverage: 104&lt;br&gt;BLAST bit score: 311&lt;br&gt;E-value: 7.14e-100" locus_tag="TRIVIDRAFT_172349" class="clusterblast-orf" id="dummy-4_h4_2_7"  />
</g>
<g id="a4_008"  >
<polygon points="347,85 352,80 412,80 412,90 352,90 347,85 " style="fill:#15d897; stroke-width:1; stroke:black; " description="&lt;b&gt;TRIVIDRAFT_44273&lt;/b&gt;&lt;br&gt;non-ribosomal peptide synthetase&lt;br&gt;Location: 78183 - 83471&lt;br&gt;&lt;br&gt;&lt;b&gt;BlastP hit with input.path1.gene1193&lt;/b&gt;&lt;br&gt;Percentage identity: 60&lt;br&gt;Percentage coverage: 102&lt;br&gt;BLAST bit score: 2021&lt;br&gt;E-value: 0.0" locus_tag="TRIVIDRAFT_44273" class="clusterblast-orf" id="dummy-4_h4_2_8"  />
</g>
<g id="a4_009"  >
<polygon points="436,90 454,90 459,85 454,80 436,80 436,90 " style="fill:#1515d8; stroke-width:1; stroke:black; " description="&lt;b&gt;TRIVIDRAFT_44194&lt;/b&gt;&lt;br&gt;hypothetical protein&lt;br&gt;Location: 85465 - 87308&lt;br&gt;&lt;br&gt;&lt;b&gt;BlastP hit with input.path1.gene1194&lt;/b&gt;&lt;br&gt;Percentage identity: 79&lt;br&gt;Percentage coverage: 99&lt;br&gt;BLAST bit score: 921&lt;br&gt;E-value: 0.0" locus_tag="TRIVIDRAFT_44194" class="clusterblast-orf" id="dummy-4_h4_2_9"  />
</g>
<g id="a4_0010"  >
<polygon points="462,85 467,80 480,80 480,90 467,90 462,85 " style="fill:#d81597; stroke-width:1; stroke:black; " description="&lt;b&gt;TRIVIDRAFT_44039&lt;/b&gt;&lt;br&gt;hypothetical protein&lt;br&gt;Location: 87521 - 88966&lt;br&gt;&lt;br&gt;&lt;b&gt;BlastP hit with input.path1.gene1195&lt;/b&gt;&lt;br&gt;Percentage identity: 72&lt;br&gt;Percentage coverage: 54&lt;br&gt;BLAST bit score: 692&lt;br&gt;E-value: 2.56e-243" locus_tag="TRIVIDRAFT_44039" class="clusterblast-orf" id="dummy-4_h4_2_10"  />
</g>
<g id="a4_0011"  >
<polygon points="507,90 526,90 531,85 526,80 507,80 507,90 " style="fill:white; stroke-width:1; stroke:black; " description="&lt;b&gt;TRIVIDRAFT_43838&lt;/b&gt;&lt;br&gt;hypothetical protein&lt;br&gt;Location: 91207 - 93161" locus_tag="TRIVIDRAFT_43838" class="clusterblast-orf" id="dummy-4_h4_2_11"  />
</g>
<g id="a4_0012"  >
<polygon points="537,85 542,80 556,80 556,90 542,90 537,85 " style="fill:#d81597; stroke-width:1; stroke:black; " description="&lt;b&gt;TRIVIDRAFT_44141&lt;/b&gt;&lt;br&gt;hypothetical protein&lt;br&gt;Location: 93666 - 95147&lt;br&gt;&lt;br&gt;&lt;b&gt;BlastP hit with input.path1.gene1195&lt;/b&gt;&lt;br&gt;Percentage identity: 62&lt;br&gt;Percentage coverage: 49&lt;br&gt;BLAST bit score: 492&lt;br&gt;E-value: 3.12e-165" locus_tag="TRIVIDRAFT_44141" class="clusterblast-orf" id="dummy-4_h4_2_12"  />
</g>
<g id="a4_0013"  >
<polygon points="572,90 619,90 624,85 619,80 572,80 572,90 " style="fill:#97d815; stroke-width:1; stroke:black; " description="&lt;b&gt;TRIVIDRAFT_210053&lt;/b&gt;&lt;br&gt;hypothetical protein&lt;br&gt;Location: 96467 - 100675&lt;br&gt;&lt;br&gt;&lt;b&gt;BlastP hit with input.path1.gene1196&lt;/b&gt;&lt;br&gt;Percentage identity: 68&lt;br&gt;Percentage coverage: 58&lt;br&gt;BLAST bit score: 1677&lt;br&gt;E-value: 0.0" locus_tag="TRIVIDRAFT_210053" class="clusterblast-orf" id="dummy-4_h4_2_13"  />
</g>
<g id="a4_0014"  >
<polygon points="628,90 713,90 718,85 713,80 628,80 628,90 " style="fill:#97d815; stroke-width:1; stroke:black; " description="&lt;b&gt;TRIVIDRAFT_213773&lt;/b&gt;&lt;br&gt;hypothetical protein&lt;br&gt;Location: 101030 - 108322&lt;br&gt;&lt;br&gt;&lt;b&gt;BlastP hit with input.path1.gene1196&lt;/b&gt;&lt;br&gt;Percentage identity: 68&lt;br&gt;Percentage coverage: 38&lt;br&gt;BLAST bit score: 1042&lt;br&gt;E-value: 0.0" locus_tag="TRIVIDRAFT_213773" class="clusterblast-orf" id="dummy-4_h4_2_14"  />
</g>
<g id="a4_0015"  >
<polygon points="721,85 725,80 725,90 721,85 " style="fill:white; stroke-width:1; stroke:black; " description="&lt;b&gt;TRIVIDRAFT_231521&lt;/b&gt;&lt;br&gt;hypothetical protein&lt;br&gt;Location: 108541 - 108843" locus_tag="TRIVIDRAFT_231521" class="clusterblast-orf" id="dummy-4_h4_2_15"  />
</g>
<g id="a4_0016"  >
<polygon points="749,90 775,90 780,85 775,80 749,80 749,90 " style="fill:white; stroke-width:1; stroke:black; " description="&lt;b&gt;TRIVIDRAFT_44117&lt;/b&gt;&lt;br&gt;hypothetical protein&lt;br&gt;Location: 110784 - 113297" locus_tag="TRIVIDRAFT_44117" class="clusterblast-orf" id="dummy-4_h4_2_16"  />
</g>
</svg>
