<svg xmlns="http://www.w3.org/2000/svg" xmlns:xlink="http://www.w3.org/1999/xlink" version="1.1" x="0" y="0" height="230" width="800" viewBox="0 0 800 230" preserveAspectRatio="none"  >
<g label="Query sequence" class="clusterblast-cluster"  >
<text x="5" y="20" class="clusterblast-acc"  >
Query sequence</text>
<line x1="10" y1="35" x2="778.0" y2="35" style="stroke-width:1; stroke:grey; "  />
<polygon points="0,35 5,30 10,30 10,40 5,40 0,35 " style="fill:white; stroke-width:1; stroke:black; " description="&lt;b&gt;input.path1.gene290&lt;/b&gt;&lt;br&gt;input.path1.gene290&lt;br&gt;Location: 1257738 - 1258844" locus_tag="input.path1.gene290" class="clusterblast-orf" id="dummy-4_q0_0_all"  />
<polygon points="29,40 40,40 45,35 40,30 29,30 29,40 " style="fill:white; stroke-width:1; stroke:black; " description="&lt;b&gt;input.path1.gene291&lt;/b&gt;&lt;br&gt;input.path1.gene291&lt;br&gt;Location: 1260993 - 1262746" locus_tag="input.path1.gene291" class="clusterblast-orf" id="dummy-4_q1_0_all"  />
<polygon points="58,40 65,40 70,35 65,30 58,30 58,40 " style="fill:white; stroke-width:1; stroke:black; " description="&lt;b&gt;input.path1.gene292&lt;/b&gt;&lt;br&gt;input.path1.gene292&lt;br&gt;Location: 1264198 - 1265550" locus_tag="input.path1.gene292" class="clusterblast-orf" id="dummy-4_q2_0_all"  />
<polygon points="80,40 92,40 97,35 92,30 80,30 80,40 " style="fill:white; stroke-width:1; stroke:black; " description="&lt;b&gt;input.path1.gene293&lt;/b&gt;&lt;br&gt;input.path1.gene293&lt;br&gt;Location: 1266645 - 1268528" locus_tag="input.path1.gene293" class="clusterblast-orf" id="dummy-4_q3_0_all"  />
<polygon points="102,35 107,30 138,30 138,40 107,40 102,35 " style="fill:white; stroke-width:1; stroke:black; " description="&lt;b&gt;input.path1.gene294&lt;/b&gt;&lt;br&gt;input.path1.gene294&lt;br&gt;Location: 1269068 - 1273063" locus_tag="input.path1.gene294" class="clusterblast-orf" id="dummy-4_q4_0_all"  />
<polygon points="150,40 160,40 165,35 160,30 150,30 150,40 " style="fill:white; stroke-width:1; stroke:black; " description="&lt;b&gt;input.path1.gene295&lt;/b&gt;&lt;br&gt;input.path1.gene295&lt;br&gt;Location: 1274344 - 1275957" locus_tag="input.path1.gene295" class="clusterblast-orf" id="dummy-4_q5_0_all"  />
<polygon points="177,40 202,40 207,35 202,30 177,30 177,40 " style="fill:white; stroke-width:1; stroke:black; " description="&lt;b&gt;input.path1.gene296&lt;/b&gt;&lt;br&gt;input.path1.gene296&lt;br&gt;Location: 1277327 - 1280651" locus_tag="input.path1.gene296" class="clusterblast-orf" id="dummy-4_q6_0_all"  />
<polygon points="214,40 231,40 236,35 231,30 214,30 214,40 " style="fill:white; stroke-width:1; stroke:black; " description="&lt;b&gt;input.path1.gene297&lt;/b&gt;&lt;br&gt;input.path1.gene297&lt;br&gt;Location: 1281371 - 1283847" locus_tag="input.path1.gene297" class="clusterblast-orf" id="dummy-4_q7_0_all"  />
<polygon points="245,35 249,30 249,40 245,35 " style="fill:white; stroke-width:1; stroke:black; " description="&lt;b&gt;input.path1.gene298&lt;/b&gt;&lt;br&gt;input.path1.gene298&lt;br&gt;Location: 1284796 - 1285314" locus_tag="input.path1.gene298" class="clusterblast-orf" id="dummy-4_q8_0_all"  />
<polygon points="267,35 272,30 286,30 286,40 272,40 267,35 " style="fill:white; stroke-width:1; stroke:black; " description="&lt;b&gt;input.path1.gene299&lt;/b&gt;&lt;br&gt;input.path1.gene299&lt;br&gt;Location: 1287251 - 1289396" locus_tag="input.path1.gene299" class="clusterblast-orf" id="dummy-4_q9_0_all"  />
<polygon points="301,40 306,40 311,35 306,30 301,30 301,40 " style="fill:white; stroke-width:1; stroke:black; " description="&lt;b&gt;input.path1.gene300&lt;/b&gt;&lt;br&gt;input.path1.gene300&lt;br&gt;Location: 1291056 - 1292142" locus_tag="input.path1.gene300" class="clusterblast-orf" id="dummy-4_q10_0_all"  />
<polygon points="314,35 319,30 324,30 324,40 319,40 314,35 " style="fill:white; stroke-width:1; stroke:black; " description="&lt;b&gt;input.path1.gene301&lt;/b&gt;&lt;br&gt;input.path1.gene301&lt;br&gt;Location: 1292472 - 1293519" locus_tag="input.path1.gene301" class="clusterblast-orf" id="dummy-4_q11_0_all"  />
<polygon points="352,35 357,30 366,30 366,40 357,40 352,35 " style="fill:white; stroke-width:1; stroke:black; " description="&lt;b&gt;input.path1.gene302&lt;/b&gt;&lt;br&gt;input.path1.gene302&lt;br&gt;Location: 1296596 - 1298146" locus_tag="input.path1.gene302" class="clusterblast-orf" id="dummy-4_q12_0_all"  />
<polygon points="386,40 396,40 401,35 396,30 386,30 386,40 " style="fill:white; stroke-width:1; stroke:black; " description="&lt;b&gt;input.path1.gene303&lt;/b&gt;&lt;br&gt;input.path1.gene303&lt;br&gt;Location: 1300430 - 1302043" locus_tag="input.path1.gene303" class="clusterblast-orf" id="dummy-4_q13_0_all"  />
<polygon points="405,40 405,40 410,35 405,30 405,30 405,40 " style="fill:white; stroke-width:1; stroke:black; " description="&lt;b&gt;input.path1.gene304&lt;/b&gt;&lt;br&gt;input.path1.gene304&lt;br&gt;Location: 1302537 - 1303049" locus_tag="input.path1.gene304" class="clusterblast-orf" id="dummy-4_q14_0_all"  />
<polygon points="411,35 416,30 427,30 427,40 416,40 411,35 " style="fill:white; stroke-width:1; stroke:black; " description="&lt;b&gt;input.path1.gene305&lt;/b&gt;&lt;br&gt;input.path1.gene305&lt;br&gt;Location: 1303202 - 1304960" locus_tag="input.path1.gene305" class="clusterblast-orf" id="dummy-4_q15_0_all"  />
<polygon points="437,35 442,30 455,30 455,40 442,40 437,35 " style="fill:white; stroke-width:1; stroke:black; " description="&lt;b&gt;input.path1.gene306&lt;/b&gt;&lt;br&gt;input.path1.gene306&lt;br&gt;Location: 1306039 - 1308001" locus_tag="input.path1.gene306" class="clusterblast-orf" id="dummy-4_q16_0_all"  />
<polygon points="479,40 493,40 498,35 493,30 479,30 479,40 " style="fill:white; stroke-width:1; stroke:black; " description="&lt;b&gt;input.path1.gene307&lt;/b&gt;&lt;br&gt;input.path1.gene307&lt;br&gt;Location: 1310667 - 1312732" locus_tag="input.path1.gene307" class="clusterblast-orf" id="dummy-4_q17_0_all"  />
<polygon points="523,35 528,30 534,30 534,40 528,40 523,35 " style="fill:#d81515; stroke-width:1; stroke:black; " description="&lt;b&gt;input.path1.gene308&lt;/b&gt;&lt;br&gt;input.path1.gene308&lt;br&gt;Location: 1315512 - 1316694" locus_tag="input.path1.gene308" class="clusterblast-orf" id="dummy-4_q18_0_all"  />
<polygon points="541,40 544,35 541,30 541,40 " style="fill:#15d8d8; stroke-width:1; stroke:black; " description="&lt;b&gt;input.path1.gene309&lt;/b&gt;&lt;br&gt;input.path1.gene309&lt;br&gt;Location: 1317517 - 1317900" locus_tag="input.path1.gene309" class="clusterblast-orf" id="dummy-4_q19_0_all"  />
<polygon points="553,40 620,40 625,35 620,30 553,30 553,40 " style="fill:white; stroke-width:1; stroke:black; " description="&lt;b&gt;input.path1.gene310&lt;/b&gt;&lt;br&gt;input.path1.gene310&lt;br&gt;Location: 1318844 - 1326792" locus_tag="input.path1.gene310" class="clusterblast-orf" id="dummy-4_q20_0_all"  />
<polygon points="625,35 630,30 638,30 638,40 630,40 625,35 " style="fill:white; stroke-width:1; stroke:black; " description="&lt;b&gt;input.path1.gene311&lt;/b&gt;&lt;br&gt;input.path1.gene311&lt;br&gt;Location: 1326832 - 1328187" locus_tag="input.path1.gene311" class="clusterblast-orf" id="dummy-4_q21_0_all"  />
<polygon points="658,40 660,40 665,35 660,30 658,30 658,40 " style="fill:white; stroke-width:1; stroke:black; " description="&lt;b&gt;input.path1.gene312&lt;/b&gt;&lt;br&gt;input.path1.gene312&lt;br&gt;Location: 1330475 - 1331191" locus_tag="input.path1.gene312" class="clusterblast-orf" id="dummy-4_q22_0_all"  />
<polygon points="675,40 679,35 675,30 675,40 " style="fill:white; stroke-width:1; stroke:black; " description="&lt;b&gt;input.path1.gene313&lt;/b&gt;&lt;br&gt;input.path1.gene313&lt;br&gt;Location: 1332296 - 1332778" locus_tag="input.path1.gene313" class="clusterblast-orf" id="dummy-4_q23_0_all"  />
<polygon points="680,35 684,30 684,40 680,35 " style="fill:white; stroke-width:1; stroke:black; " description="&lt;b&gt;input.path1.gene314&lt;/b&gt;&lt;br&gt;input.path1.gene314&lt;br&gt;Location: 1332826 - 1333291" locus_tag="input.path1.gene314" class="clusterblast-orf" id="dummy-4_q24_0_all"  />
<polygon points="701,40 701,40 706,35 701,30 701,30 701,40 " style="fill:white; stroke-width:1; stroke:black; " description="&lt;b&gt;input.path1.gene315&lt;/b&gt;&lt;br&gt;input.path1.gene315&lt;br&gt;Location: 1335236 - 1335776" locus_tag="input.path1.gene315" class="clusterblast-orf" id="dummy-4_q25_0_all"  />
<polygon points="714,40 726,40 731,35 726,30 714,30 714,40 " style="fill:white; stroke-width:1; stroke:black; " description="&lt;b&gt;input.path1.gene316&lt;/b&gt;&lt;br&gt;input.path1.gene316&lt;br&gt;Location: 1336602 - 1338504" locus_tag="input.path1.gene316" class="clusterblast-orf" id="dummy-4_q26_0_all"  />
<polygon points="733,35 738,30 741,30 741,40 738,40 733,35 " style="fill:white; stroke-width:1; stroke:black; " description="&lt;b&gt;input.path1.gene317&lt;/b&gt;&lt;br&gt;input.path1.gene317&lt;br&gt;Location: 1338725 - 1339570" locus_tag="input.path1.gene317" class="clusterblast-orf" id="dummy-4_q27_0_all"  />
<polygon points="751,35 756,30 780,30 780,40 756,40 751,35 " style="fill:white; stroke-width:1; stroke:black; " description="&lt;b&gt;input.path1.gene318&lt;/b&gt;&lt;br&gt;input.path1.gene318&lt;br&gt;Location: 1340651 - 1343863" locus_tag="input.path1.gene318" class="clusterblast-orf" id="dummy-4_q28_0_all"  />
</g>
<g label="BGC0001277" description="BGC0001277_c1: nivalenol/vomitoxin/3-acetyldeoxynivalenol/15-acetyldeoxynival... (9% of genes show similarity), Terpene" class="clusterblast-cluster"  >
<text x="5" y="70" class="clusterblast-acc"  >
<a xlink:href="https://mibig.secondarymetabolites.org/go/BGC0001277/1" target="_blank">BGC0001277</a>: nivalenol/vomitoxin/3-acetyldeoxynivalenol/15-acetyldeoxynivalenol/neosolaniol/calonectrin/apotrichodiol/isotrichotriol/15-deacetylcalonectrin/T-2 toxin/3-acetyl T-2 toxin/trichodiene (9% of genes show similarity), Terpene</text>
<line x1="10" y1="85" x2="778.0" y2="85" style="stroke-width:1; stroke:grey; "  />
</g>
<g id="a4_000"  >
<polygon points="130,85 135,80 137,80 137,90 135,90 130,85 " style="fill:white; stroke-width:1; stroke:black; " description="&lt;b&gt;AAO34682.1&lt;/b&gt;&lt;br&gt;catalase&lt;br&gt;Location: 57840 - 57076" locus_tag="AAO34682.1" class="clusterblast-orf" id="dummy-4_h4_2_0"  />
</g>
<g id="a4_001"  >
<polygon points="140,85 145,80 154,80 154,90 145,90 140,85 " style="fill:#d81515; stroke-width:1; stroke:black; " description="&lt;b&gt;AAO34681.1&lt;/b&gt;&lt;br&gt;monooxygenase&lt;br&gt;Location: 56803 - 55250&lt;br&gt;&lt;br&gt;&lt;b&gt;BlastP hit with input.path1.gene308&lt;/b&gt;&lt;br&gt;Percentage identity: 48&lt;br&gt;Percentage coverage: 99&lt;br&gt;BLAST bit score: 379&lt;br&gt;E-value: 7.95e-129" locus_tag="AAO34681.1" class="clusterblast-orf" id="dummy-4_h4_2_1"  />
</g>
<g id="a4_002"  >
<polygon points="163,90 171,90 176,85 171,80 163,80 163,90 " style="fill:#15d8d8; stroke-width:1; stroke:black; " description="&lt;b&gt;AAO34680.1&lt;/b&gt;&lt;br&gt;reductase&lt;br&gt;Location: 54210 - 52790&lt;br&gt;&lt;br&gt;&lt;b&gt;BlastP hit with input.path1.gene309&lt;/b&gt;&lt;br&gt;Percentage identity: 56&lt;br&gt;Percentage coverage: 78&lt;br&gt;BLAST bit score: 97&lt;br&gt;E-value: 5.33e-25" locus_tag="AAO34680.1" class="clusterblast-orf" id="dummy-4_h4_2_2"  />
</g>
<g id="a4_003"  >
<polygon points="182,90 185,90 190,85 185,80 182,80 182,90 " style="fill:white; stroke-width:1; stroke:black; " description="&lt;b&gt;AAO34679.1&lt;/b&gt;&lt;br&gt;dehydrogenase&lt;br&gt;Location: 52146 - 51292" locus_tag="AAO34679.1" class="clusterblast-orf" id="dummy-4_h4_2_3"  />
</g>
<g id="a4_004"  >
<polygon points="192,85 197,80 209,80 209,90 197,90 192,85 " style="fill:white; stroke-width:1; stroke:black; " description="&lt;b&gt;AAO34678.1&lt;/b&gt;&lt;br&gt;unknown&lt;br&gt;Location: 51000 - 49155" locus_tag="AAO34678.1" class="clusterblast-orf" id="dummy-4_h4_2_4"  />
</g>
<g id="a4_005"  >
<polygon points="238,90 240,90 245,85 240,80 238,80 238,90 " style="fill:white; stroke-width:1; stroke:black; " description="&lt;b&gt;AAO34677.1&lt;/b&gt;&lt;br&gt;deacetylase&lt;br&gt;Location: 45964 - 45216" locus_tag="AAO34677.1" class="clusterblast-orf" id="dummy-4_h4_2_5"  />
</g>
<g id="a4_006"  >
<polygon points="251,85 256,80 261,80 261,90 256,90 251,85 " style="fill:white; stroke-width:1; stroke:black; " description="&lt;b&gt;AAN40836.1&lt;/b&gt;&lt;br&gt;unknown&lt;br&gt;Location: 44569 - 43400" locus_tag="AAN40836.1" class="clusterblast-orf" id="dummy-4_h4_2_6"  />
</g>
<g id="a4_007"  >
<polygon points="289,90 302,90 307,85 302,80 289,80 289,90 " style="fill:white; stroke-width:1; stroke:black; " description="&lt;b&gt;AAK33081.1&lt;/b&gt;&lt;br&gt;trichothecene efflux pump&lt;br&gt;Location: 40320 - 38344" locus_tag="AAK33081.1" class="clusterblast-orf" id="dummy-4_h4_2_7"  />
</g>
<g id="a4_008"  >
<polygon points="312,90 323,90 328,85 323,80 312,80 312,90 " style="fill:white; stroke-width:1; stroke:black; " description="&lt;b&gt;AAK33080.1&lt;/b&gt;&lt;br&gt;putative trichothecene C-15 hydroxylase&lt;br&gt;Location: 37786 - 36046" locus_tag="AAK33080.1" class="clusterblast-orf" id="dummy-4_h4_2_8"  />
</g>
<g id="a4_009"  >
<polygon points="338,90 340,85 338,80 338,90 " style="fill:white; stroke-width:1; stroke:black; " description="&lt;b&gt;AAK33087.1&lt;/b&gt;&lt;br&gt;TRI9&lt;br&gt;Location: 34878 - 34747" locus_tag="AAK33087.1" class="clusterblast-orf" id="dummy-4_h4_2_9"  />
</g>
<g id="a4_0010"  >
<polygon points="345,85 350,80 357,80 357,90 350,90 345,85 " style="fill:white; stroke-width:1; stroke:black; " description="&lt;b&gt;AAK33079.1&lt;/b&gt;&lt;br&gt;TRI10&lt;br&gt;Location: 34151 - 32799" locus_tag="AAK33079.1" class="clusterblast-orf" id="dummy-4_h4_2_10"  />
</g>
<g id="a4_0011"  >
<polygon points="363,85 368,80 374,80 374,90 368,90 363,85 " style="fill:white; stroke-width:1; stroke:black; " description="&lt;b&gt;AAK33084.1&lt;/b&gt;&lt;br&gt;trichodiene synthase&lt;br&gt;Location: 32131 - 30945" locus_tag="AAK33084.1" class="clusterblast-orf" id="dummy-4_h4_2_11"  />
</g>
<g id="a4_0012"  >
<polygon points="400,85 405,80 406,80 406,90 405,90 400,85 " style="fill:white; stroke-width:1; stroke:black; " description="&lt;b&gt;AAK33085.1&lt;/b&gt;&lt;br&gt;positive regulatory protein&lt;br&gt;Location: 28057 - 27401" locus_tag="AAK33085.1" class="clusterblast-orf" id="dummy-4_h4_2_12"  />
</g>
<g id="a4_0013"  >
<polygon points="417,90 427,90 432,85 427,80 417,80 417,90 " style="fill:white; stroke-width:1; stroke:black; " description="&lt;b&gt;AAK33083.1&lt;/b&gt;&lt;br&gt;putative cytochrome P450&lt;br&gt;Location: 26232 - 24491" locus_tag="AAK33083.1" class="clusterblast-orf" id="dummy-4_h4_2_13"  />
</g>
<g id="a4_0014"  >
<polygon points="441,85 446,80 457,80 457,90 446,90 441,85 " style="fill:white; stroke-width:1; stroke:black; " description="&lt;b&gt;AAK33082.2&lt;/b&gt;&lt;br&gt;putative 15-O-acetyltransferase&lt;br&gt;Location: 23537 - 21770" locus_tag="AAK33082.2" class="clusterblast-orf" id="dummy-4_h4_2_14"  />
</g>
<g id="a4_0015"  >
<polygon points="483,90 490,90 495,85 490,80 483,80 483,90 " style="fill:white; stroke-width:1; stroke:black; " description="&lt;b&gt;AAK33086.1&lt;/b&gt;&lt;br&gt;TRI8&lt;br&gt;Location: 18892 - 17555" locus_tag="AAK33086.1" class="clusterblast-orf" id="dummy-4_h4_2_15"  />
</g>
<g id="a4_0016"  >
<polygon points="522,90 528,90 533,85 528,80 522,80 522,90 " style="fill:white; stroke-width:1; stroke:black; " description="&lt;b&gt;AAO34676.1&lt;/b&gt;&lt;br&gt;monooxygenase&lt;br&gt;Location: 14546 - 13429" locus_tag="AAO34676.1" class="clusterblast-orf" id="dummy-4_h4_2_16"  />
</g>
<g id="a4_0017"  >
<polygon points="534,85 539,80 541,80 541,90 539,90 534,85 " style="fill:white; stroke-width:1; stroke:black; " description="&lt;b&gt;AAO34675.1&lt;/b&gt;&lt;br&gt;acetylesterase&lt;br&gt;Location: 13307 - 12533" locus_tag="AAO34675.1" class="clusterblast-orf" id="dummy-4_h4_2_17"  />
</g>
<g id="a4_0018"  >
<polygon points="554,90 557,90 562,85 557,80 554,80 554,90 " style="fill:white; stroke-width:1; stroke:black; " description="&lt;b&gt;AAO34674.1&lt;/b&gt;&lt;br&gt;glucosidase&lt;br&gt;Location: 11114 - 10155" locus_tag="AAO34674.1" class="clusterblast-orf" id="dummy-4_h4_2_18"  />
</g>
<g id="a4_0019"  >
<polygon points="564,85 569,80 593,80 593,90 569,90 564,85 " style="fill:white; stroke-width:1; stroke:black; " description="&lt;b&gt;AAO34673.1&lt;/b&gt;&lt;br&gt;unknown&lt;br&gt;Location: 9974 - 6811" locus_tag="AAO34673.1" class="clusterblast-orf" id="dummy-4_h4_2_19"  />
</g>
<g id="a4_0020"  >
<polygon points="625,90 630,90 635,85 630,80 625,80 625,90 " style="fill:white; stroke-width:1; stroke:black; " description="&lt;b&gt;AAO34672.1&lt;/b&gt;&lt;br&gt;unknown&lt;br&gt;Location: 3213 - 2146" locus_tag="AAO34672.1" class="clusterblast-orf" id="dummy-4_h4_2_20"  />
</g>
<g id="a4_0021"  >
<polygon points="638,85 643,80 649,80 649,90 643,90 638,85 " style="fill:white; stroke-width:1; stroke:black; " description="&lt;b&gt;AAO34671.1&lt;/b&gt;&lt;br&gt;methyltransferase&lt;br&gt;Location: 1784 - 622" locus_tag="AAO34671.1" class="clusterblast-orf" id="dummy-4_h4_2_21"  />
</g>
</svg>
