<svg xmlns="http://www.w3.org/2000/svg" xmlns:xlink="http://www.w3.org/1999/xlink" version="1.1" x="0" y="0" height="50" width="800" viewBox="0 0 800 50" preserveAspectRatio="none"  >
<g label="Query sequence" class="clusterblast-cluster"  >
<text x="5" y="20" class="clusterblast-acc"  >
Query sequence</text>
<line x1="10" y1="35" x2="778.0" y2="35" style="stroke-width:1; stroke:grey; "  />
<polygon points="0,40 89,40 94,35 89,30 0,30 0,40 " style="fill:white; stroke-width:1; stroke:black; " description="&lt;b&gt;input.path1.gene1064&lt;/b&gt;&lt;br&gt;input.path1.gene1064&lt;br&gt;Location: 4092957 - 4097830" locus_tag="input.path1.gene1064" class="clusterblast-orf" id="subclusterblast-7_q0_0_all"  />
<polygon points="103,35 108,30 150,30 150,40 108,40 103,35 " style="fill:white; stroke-width:1; stroke:black; " description="&lt;b&gt;input.path1.gene1065&lt;/b&gt;&lt;br&gt;input.path1.gene1065&lt;br&gt;Location: 4098324 - 4100728" locus_tag="input.path1.gene1065" class="clusterblast-orf" id="subclusterblast-7_q1_0_all"  />
<polygon points="167,40 177,40 182,35 177,30 167,30 167,40 " style="fill:white; stroke-width:1; stroke:black; " description="&lt;b&gt;input.path1.gene1066&lt;/b&gt;&lt;br&gt;input.path1.gene1066&lt;br&gt;Location: 4101639 - 4102404" locus_tag="input.path1.gene1066" class="clusterblast-orf" id="subclusterblast-7_q2_0_all"  />
<polygon points="258,40 322,40 327,35 322,30 258,30 258,40 " style="fill:white; stroke-width:1; stroke:black; " description="&lt;b&gt;input.path1.gene1067&lt;/b&gt;&lt;br&gt;input.path1.gene1067&lt;br&gt;Location: 4106353 - 4109902" locus_tag="input.path1.gene1067" class="clusterblast-orf" id="subclusterblast-7_q3_0_all"  />
<polygon points="340,35 345,30 434,30 434,40 345,40 340,35 " style="fill:white; stroke-width:1; stroke:black; " description="&lt;b&gt;input.path1.gene1068&lt;/b&gt;&lt;br&gt;input.path1.gene1068&lt;br&gt;Location: 4110597 - 4115469" locus_tag="input.path1.gene1068" class="clusterblast-orf" id="subclusterblast-7_q4_0_all"  />
<polygon points="487,40 515,40 520,35 515,30 487,30 487,40 " style="fill:white; stroke-width:1; stroke:black; " description="&lt;b&gt;input.path1.gene1069&lt;/b&gt;&lt;br&gt;input.path1.gene1069&lt;br&gt;Location: 4118185 - 4119919" locus_tag="input.path1.gene1069" class="clusterblast-orf" id="subclusterblast-7_q5_0_all"  />
<polygon points="525,40 553,40 558,35 553,30 525,30 525,40 " style="fill:white; stroke-width:1; stroke:black; " description="&lt;b&gt;input.path1.gene1070&lt;/b&gt;&lt;br&gt;input.path1.gene1070&lt;br&gt;Location: 4120180 - 4121873" locus_tag="input.path1.gene1070" class="clusterblast-orf" id="subclusterblast-7_q6_0_all"  />
<polygon points="566,40 578,40 583,35 578,30 566,30 566,40 " style="fill:white; stroke-width:1; stroke:black; " description="&lt;b&gt;input.path1.gene1071&lt;/b&gt;&lt;br&gt;input.path1.gene1071&lt;br&gt;Location: 4122295 - 4123177" locus_tag="input.path1.gene1071" class="clusterblast-orf" id="subclusterblast-7_q7_0_all"  />
<polygon points="623,40 637,40 642,35 637,30 623,30 623,40 " style="fill:white; stroke-width:1; stroke:black; " description="&lt;b&gt;input.path1.gene1072&lt;/b&gt;&lt;br&gt;input.path1.gene1072&lt;br&gt;Location: 4125246 - 4126254" locus_tag="input.path1.gene1072" class="clusterblast-orf" id="subclusterblast-7_q8_0_all"  />
<polygon points="648,35 653,30 669,30 669,40 653,40 648,35 " style="fill:white; stroke-width:1; stroke:black; " description="&lt;b&gt;input.path1.gene1073&lt;/b&gt;&lt;br&gt;input.path1.gene1073&lt;br&gt;Location: 4126531 - 4127644" locus_tag="input.path1.gene1073" class="clusterblast-orf" id="subclusterblast-7_q9_0_all"  />
<polygon points="694,35 699,30 715,30 715,40 699,40 694,35 " style="fill:white; stroke-width:1; stroke:black; " description="&lt;b&gt;input.path1.gene1074&lt;/b&gt;&lt;br&gt;input.path1.gene1074&lt;br&gt;Location: 4128922 - 4129996" locus_tag="input.path1.gene1074" class="clusterblast-orf" id="subclusterblast-7_q10_0_all"  />
<polygon points="719,35 724,30 745,30 745,40 724,40 719,35 " style="fill:white; stroke-width:1; stroke:black; " description="&lt;b&gt;input.path1.gene1075&lt;/b&gt;&lt;br&gt;input.path1.gene1075&lt;br&gt;Location: 4130250 - 4131573" locus_tag="input.path1.gene1075" class="clusterblast-orf" id="subclusterblast-7_q11_0_all"  />
<polygon points="769,40 775,40 780,35 775,30 769,30 769,40 " style="fill:white; stroke-width:1; stroke:black; " description="&lt;b&gt;input.path1.gene1076&lt;/b&gt;&lt;br&gt;input.path1.gene1076&lt;br&gt;Location: 4132805 - 4133369" locus_tag="input.path1.gene1076" class="clusterblast-orf" id="subclusterblast-7_q12_0_all"  />
</g>
</svg>
