<svg xmlns="http://www.w3.org/2000/svg" xmlns:xlink="http://www.w3.org/1999/xlink" version="1.1" x="0" y="0" height="230" width="800" viewBox="0 0 800 230" preserveAspectRatio="none"  >
<g label="Query sequence" class="clusterblast-cluster"  >
<text x="5" y="20" class="clusterblast-acc"  >
Query sequence</text>
<line x1="10" y1="35" x2="778.0" y2="35" style="stroke-width:1; stroke:grey; "  />
<polygon points="265,40 267,35 265,30 265,40 " style="fill:white; stroke-width:1; stroke:black; " description="&lt;b&gt;input.path1.gene1&lt;/b&gt;&lt;br&gt;input.path1.gene1&lt;br&gt;Location: 140 - 284" locus_tag="input.path1.gene1" class="clusterblast-orf" id="dummy-1_q0_0_all"  />
<polygon points="284,40 347,40 352,35 347,30 284,30 284,40 " style="fill:#d81515; stroke-width:1; stroke:black; " description="&lt;b&gt;input.path1.gene2&lt;/b&gt;&lt;br&gt;input.path1.gene2&lt;br&gt;Location: 1622 - 7070" locus_tag="input.path1.gene2" class="clusterblast-orf" id="dummy-1_q1_0_all"  />
<polygon points="358,35 363,30 375,30 375,40 363,40 358,35 " style="fill:#77d815; stroke-width:1; stroke:black; " description="&lt;b&gt;input.path1.gene3&lt;/b&gt;&lt;br&gt;input.path1.gene3&lt;br&gt;Location: 7563 - 8907" locus_tag="input.path1.gene3" class="clusterblast-orf" id="dummy-1_q2_0_all"  />
<polygon points="384,40 386,40 391,35 386,30 384,30 384,40 " style="fill:white; stroke-width:1; stroke:black; " description="&lt;b&gt;input.path1.gene4&lt;/b&gt;&lt;br&gt;input.path1.gene4&lt;br&gt;Location: 9588 - 10139" locus_tag="input.path1.gene4" class="clusterblast-orf" id="dummy-1_q3_0_all"  />
<polygon points="464,35 469,30 496,30 496,40 469,40 464,35 " style="fill:#15d8d8; stroke-width:1; stroke:black; " description="&lt;b&gt;input.path1.gene5&lt;/b&gt;&lt;br&gt;input.path1.gene5&lt;br&gt;Location: 15968 - 18462" locus_tag="input.path1.gene5" class="clusterblast-orf" id="dummy-1_q4_0_all"  />
<polygon points="500,40 509,40 514,35 509,30 500,30 500,40 " style="fill:#7715d8; stroke-width:1; stroke:black; " description="&lt;b&gt;input.path1.gene6&lt;/b&gt;&lt;br&gt;input.path1.gene6&lt;br&gt;Location: 18773 - 19936" locus_tag="input.path1.gene6" class="clusterblast-orf" id="dummy-1_q5_0_all"  />
</g>
<g label="NW_006271973" description="NW_006271973 (996861-1062288): Cordyceps militaris CM01 unplaced genomic scaf... (21% of genes show similarity), NRPS" class="clusterblast-cluster"  >
<text x="5" y="70" class="clusterblast-acc"  >
<a xlink:href="https://antismash-db.secondarymetabolites.org/area?record=NW_006271973&amp;start=996861&amp;end=1062288" target="_blank">NW_006271973 (996861-1062288)</a>: Cordyceps militaris CM01 unplaced genomic scaf... (21% of genes show similarity), NRPS</text>
<line x1="10" y1="85" x2="778.0" y2="85" style="stroke-width:1; stroke:grey; "  />
</g>
<g id="a1_000"  >
<polygon points="0,85 5,80 8,80 8,90 5,90 0,85 " style="fill:white; stroke-width:1; stroke:black; " description="&lt;b&gt;CCM_06692&lt;/b&gt;&lt;br&gt;vacuolar ATP synthase subunit G, putative&lt;br&gt;Location: 998773 - 999478" locus_tag="CCM_06692" class="clusterblast-orf" id="dummy-1_h1_1_0"  />
</g>
<g id="a1_001"  >
<polygon points="13,90 17,85 13,80 13,90 " style="fill:white; stroke-width:1; stroke:black; " description="&lt;b&gt;CCM_06693&lt;/b&gt;&lt;br&gt;cytochrome c oxidase assembly protein&lt;br&gt;Location: 999853 - 1000200" locus_tag="CCM_06693" class="clusterblast-orf" id="dummy-1_h1_1_1"  />
</g>
<g id="a1_002"  >
<polygon points="22,85 27,80 71,80 71,90 27,90 22,85 " style="fill:white; stroke-width:1; stroke:black; " description="&lt;b&gt;CCM_06694&lt;/b&gt;&lt;br&gt;DNA-directed RNA polymerase II polypeptide&lt;br&gt;Location: 1000555 - 1004462" locus_tag="CCM_06694" class="clusterblast-orf" id="dummy-1_h1_1_2"  />
</g>
<g id="a1_003"  >
<polygon points="84,85 89,80 102,80 102,90 89,90 84,85 " style="fill:white; stroke-width:1; stroke:black; " description="&lt;b&gt;CCM_06695&lt;/b&gt;&lt;br&gt;indoleamine 2,3-dioxygenase&lt;br&gt;Location: 1005453 - 1006898" locus_tag="CCM_06695" class="clusterblast-orf" id="dummy-1_h1_1_3"  />
</g>
<g id="a1_004"  >
<polygon points="123,85 128,80 156,80 156,90 128,90 123,85 " style="fill:white; stroke-width:1; stroke:black; " description="&lt;b&gt;CCM_06696&lt;/b&gt;&lt;br&gt;SPX domain protein&lt;br&gt;Location: 1008597 - 1011232" locus_tag="CCM_06696" class="clusterblast-orf" id="dummy-1_h1_1_4"  />
</g>
<g id="a1_005"  >
<polygon points="166,85 171,80 221,80 221,90 171,90 166,85 " style="fill:white; stroke-width:1; stroke:black; " description="&lt;b&gt;CCM_06697&lt;/b&gt;&lt;br&gt;AtrH like protein&lt;br&gt;Location: 1011968 - 1016328" locus_tag="CCM_06697" class="clusterblast-orf" id="dummy-1_h1_1_5"  />
</g>
<g id="a1_006"  >
<polygon points="247,90 260,90 265,85 260,80 247,80 247,90 " style="fill:white; stroke-width:1; stroke:black; " description="&lt;b&gt;CCM_06698&lt;/b&gt;&lt;br&gt;pyridine nucleotide-disulfide oxidoreductase AMID-like, putative&lt;br&gt;Location: 1018402 - 1019836" locus_tag="CCM_06698" class="clusterblast-orf" id="dummy-1_h1_1_6"  />
</g>
<g id="a1_007"  >
<polygon points="268,85 273,80 279,80 279,90 273,90 268,85 " style="fill:white; stroke-width:1; stroke:black; " description="&lt;b&gt;CCM_06699&lt;/b&gt;&lt;br&gt;hypothetical protein&lt;br&gt;Location: 1020063 - 1020996" locus_tag="CCM_06699" class="clusterblast-orf" id="dummy-1_h1_1_7"  />
</g>
<g id="a1_008"  >
<polygon points="281,90 294,90 299,85 294,80 281,80 281,90 " style="fill:white; stroke-width:1; stroke:black; " description="&lt;b&gt;CCM_06700&lt;/b&gt;&lt;br&gt;Siderophore biosynthesis protein&lt;br&gt;Location: 1021136 - 1022549" locus_tag="CCM_06700" class="clusterblast-orf" id="dummy-1_h1_1_8"  />
</g>
<g id="a1_009"  >
<polygon points="302,85 307,80 337,80 337,90 307,90 302,85 " style="fill:white; stroke-width:1; stroke:black; " description="&lt;b&gt;CCM_06701&lt;/b&gt;&lt;br&gt;long-chain-fatty-acid-CoA ligase, putative&lt;br&gt;Location: 1022775 - 1025578" locus_tag="CCM_06701" class="clusterblast-orf" id="dummy-1_h1_1_9"  />
</g>
<g id="a1_0010"  >
<polygon points="353,90 417,90 422,85 417,80 353,80 353,90 " style="fill:#d81515; stroke-width:1; stroke:black; " description="&lt;b&gt;CCM_06702&lt;/b&gt;&lt;br&gt;AMP-dependent synthetase/ligase&lt;br&gt;Location: 1026862 - 1032288&lt;br&gt;&lt;br&gt;&lt;b&gt;BlastP hit with input.path1.gene2&lt;/b&gt;&lt;br&gt;Percentage identity: 78&lt;br&gt;Percentage coverage: 103&lt;br&gt;BLAST bit score: 2759&lt;br&gt;E-value: 0.0" locus_tag="CCM_06702" class="clusterblast-orf" id="dummy-1_h1_1_10"  />
</g>
<g id="a1_0011"  >
<polygon points="427,85 432,80 459,80 459,90 432,90 427,85 " style="fill:#77d815; stroke-width:1; stroke:black; " description="&lt;b&gt;CCM_06703&lt;/b&gt;&lt;br&gt;mitochondrial AAA ATPase, putative&lt;br&gt;Location: 1032735 - 1035222&lt;br&gt;&lt;br&gt;&lt;b&gt;BlastP hit with input.path1.gene3&lt;/b&gt;&lt;br&gt;Percentage identity: 74&lt;br&gt;Percentage coverage: 101&lt;br&gt;BLAST bit score: 624&lt;br&gt;E-value: 5.21e-221" locus_tag="CCM_06703" class="clusterblast-orf" id="dummy-1_h1_1_11"  />
</g>
<g id="a1_0012"  >
<polygon points="530,85 535,80 561,80 561,90 535,90 530,85 " style="fill:#15d8d8; stroke-width:1; stroke:black; " description="&lt;b&gt;CCM_06704&lt;/b&gt;&lt;br&gt;PAPA-1-like conserved region protein&lt;br&gt;Location: 1040906 - 1043314&lt;br&gt;&lt;br&gt;&lt;b&gt;BlastP hit with input.path1.gene5&lt;/b&gt;&lt;br&gt;Percentage identity: 80&lt;br&gt;Percentage coverage: 78&lt;br&gt;BLAST bit score: 350&lt;br&gt;E-value: 5.61e-115" locus_tag="CCM_06704" class="clusterblast-orf" id="dummy-1_h1_1_12"  />
</g>
<g id="a1_0013"  >
<polygon points="568,90 577,90 582,85 577,80 568,80 568,90 " style="fill:#7715d8; stroke-width:1; stroke:black; " description="&lt;b&gt;CCM_06705&lt;/b&gt;&lt;br&gt;peroxin Pex14/17-Penicillium chrysogenum&lt;br&gt;Location: 1043915 - 1045054&lt;br&gt;&lt;br&gt;&lt;b&gt;BlastP hit with input.path1.gene6&lt;/b&gt;&lt;br&gt;Percentage identity: 60&lt;br&gt;Percentage coverage: 115&lt;br&gt;BLAST bit score: 388&lt;br&gt;E-value: 2.43e-133" locus_tag="CCM_06705" class="clusterblast-orf" id="dummy-1_h1_1_13"  />
</g>
<g id="a1_0014"  >
<polygon points="585,85 590,80 631,80 631,90 590,90 585,85 " style="fill:white; stroke-width:1; stroke:black; " description="&lt;b&gt;CCM_06706&lt;/b&gt;&lt;br&gt;Chromo domain-like protein&lt;br&gt;Location: 1045268 - 1048918" locus_tag="CCM_06706" class="clusterblast-orf" id="dummy-1_h1_1_14"  />
</g>
<g id="a1_0015"  >
<polygon points="646,90 654,90 659,85 654,80 646,80 646,90 " style="fill:white; stroke-width:1; stroke:black; " description="&lt;b&gt;CCM_06707&lt;/b&gt;&lt;br&gt;Ras GTPase Rab11, putative&lt;br&gt;Location: 1050105 - 1051144" locus_tag="CCM_06707" class="clusterblast-orf" id="dummy-1_h1_1_15"  />
</g>
<g id="a1_0016"  >
<polygon points="679,90 688,90 693,85 688,80 679,80 679,90 " style="fill:white; stroke-width:1; stroke:black; " description="&lt;b&gt;CCM_06708&lt;/b&gt;&lt;br&gt;brix domain-containing protein 2&lt;br&gt;Location: 1052734 - 1053794" locus_tag="CCM_06708" class="clusterblast-orf" id="dummy-1_h1_1_16"  />
</g>
<g id="a1_0017"  >
<polygon points="704,90 717,90 722,85 717,80 704,80 704,90 " style="fill:white; stroke-width:1; stroke:black; " description="&lt;b&gt;CCM_06709&lt;/b&gt;&lt;br&gt;hypothetical protein&lt;br&gt;Location: 1054738 - 1056091" locus_tag="CCM_06709" class="clusterblast-orf" id="dummy-1_h1_1_17"  />
</g>
<g id="a1_0018"  >
<polygon points="751,90 775,90 780,85 775,80 751,80 751,90 " style="fill:white; stroke-width:1; stroke:black; " description="&lt;b&gt;CCM_06710&lt;/b&gt;&lt;br&gt;histone deacetylase&lt;br&gt;Location: 1058454 - 1060695" locus_tag="CCM_06710" class="clusterblast-orf" id="dummy-1_h1_1_18"  />
</g>
</svg>
