<svg xmlns="http://www.w3.org/2000/svg" xmlns:xlink="http://www.w3.org/1999/xlink" version="1.1" x="0" y="0" height="230" width="800" viewBox="0 0 800 230" preserveAspectRatio="none"  >
<g label="Query sequence" class="clusterblast-cluster"  >
<text x="5" y="20" class="clusterblast-acc"  >
Query sequence</text>
<line x1="10" y1="35" x2="778.0" y2="35" style="stroke-width:1; stroke:grey; "  />
<polygon points="129,40 151,40 156,35 151,30 129,30 129,40 " style="fill:white; stroke-width:1; stroke:black; " description="&lt;b&gt;input.path1.gene47&lt;/b&gt;&lt;br&gt;input.path1.gene47&lt;br&gt;Location: 179236 - 180801" locus_tag="input.path1.gene47" class="clusterblast-orf" id="dummy-1_q0_0_all"  />
<polygon points="185,40 229,40 234,35 229,30 185,30 185,40 " style="fill:white; stroke-width:1; stroke:black; " description="&lt;b&gt;input.path1.gene48&lt;/b&gt;&lt;br&gt;input.path1.gene48&lt;br&gt;Location: 182438 - 185264" locus_tag="input.path1.gene48" class="clusterblast-orf" id="dummy-1_q1_0_all"  />
<polygon points="274,40 295,40 300,35 295,30 274,30 274,40 " style="fill:white; stroke-width:1; stroke:black; " description="&lt;b&gt;input.path1.gene49&lt;/b&gt;&lt;br&gt;input.path1.gene49&lt;br&gt;Location: 187573 - 189053" locus_tag="input.path1.gene49" class="clusterblast-orf" id="dummy-1_q2_0_all"  />
<polygon points="326,40 356,40 361,35 356,30 326,30 326,40 " style="fill:#d81515; stroke-width:1; stroke:black; " description="&lt;b&gt;input.path1.gene50&lt;/b&gt;&lt;br&gt;input.path1.gene50&lt;br&gt;Location: 190576 - 192603" locus_tag="input.path1.gene50" class="clusterblast-orf" id="dummy-1_q3_0_all"  />
<polygon points="366,35 371,30 436,30 436,40 371,40 366,35 " style="fill:#15d815; stroke-width:1; stroke:black; " description="&lt;b&gt;input.path1.gene51&lt;/b&gt;&lt;br&gt;input.path1.gene51&lt;br&gt;Location: 192865 - 196906" locus_tag="input.path1.gene51" class="clusterblast-orf" id="dummy-1_q4_0_all"  />
<polygon points="505,40 524,40 529,35 524,30 505,30 505,40 " style="fill:#1515d8; stroke-width:1; stroke:black; " description="&lt;b&gt;input.path1.gene52&lt;/b&gt;&lt;br&gt;input.path1.gene52&lt;br&gt;Location: 200886 - 202255" locus_tag="input.path1.gene52" class="clusterblast-orf" id="dummy-1_q5_0_all"  />
<polygon points="542,40 546,40 551,35 546,30 542,30 542,40 " style="fill:white; stroke-width:1; stroke:black; " description="&lt;b&gt;input.path1.gene53&lt;/b&gt;&lt;br&gt;input.path1.gene53&lt;br&gt;Location: 203013 - 203556" locus_tag="input.path1.gene53" class="clusterblast-orf" id="dummy-1_q6_0_all"  />
<polygon points="604,35 609,30 650,30 650,40 609,40 604,35 " style="fill:white; stroke-width:1; stroke:black; " description="&lt;b&gt;input.path1.gene54&lt;/b&gt;&lt;br&gt;input.path1.gene54&lt;br&gt;Location: 206587 - 209242" locus_tag="input.path1.gene54" class="clusterblast-orf" id="dummy-1_q7_0_all"  />
</g>
<g label="NW_006271975" description="NW_006271975 (1702597-1751671): Cordyceps militaris CM01 unplaced genomic sca... (23% of genes show similarity), NAPAA" class="clusterblast-cluster"  >
<text x="5" y="70" class="clusterblast-acc"  >
<a xlink:href="https://antismash-db.secondarymetabolites.org/area?record=NW_006271975&amp;start=1702597&amp;end=1751671" target="_blank">NW_006271975 (1702597-1751671)</a>: Cordyceps militaris CM01 unplaced genomic sca... (23% of genes show similarity), NAPAA</text>
<line x1="10" y1="85" x2="778.0" y2="85" style="stroke-width:1; stroke:grey; "  />
</g>
<g id="a1_000"  >
<polygon points="0,90 9,90 14,85 9,80 0,80 0,90 " style="fill:white; stroke-width:1; stroke:black; " description="&lt;b&gt;CCM_08777&lt;/b&gt;&lt;br&gt;hypothetical protein&lt;br&gt;Location: 1751007 - 1750159" locus_tag="CCM_08777" class="clusterblast-orf" id="dummy-1_h1_1_0"  />
</g>
<g id="a1_001"  >
<polygon points="49,90 61,90 66,85 61,80 49,80 49,90 " style="fill:white; stroke-width:1; stroke:black; " description="&lt;b&gt;CCM_08776&lt;/b&gt;&lt;br&gt;palmitoyl-protein thioesterase precursor&lt;br&gt;Location: 1748172 - 1747180" locus_tag="CCM_08776" class="clusterblast-orf" id="dummy-1_h1_1_1"  />
</g>
<g id="a1_002"  >
<polygon points="74,85 79,80 94,80 94,90 79,90 74,85 " style="fill:white; stroke-width:1; stroke:black; " description="&lt;b&gt;CCM_08775&lt;/b&gt;&lt;br&gt;ribosomal protein L1&lt;br&gt;Location: 1746739 - 1745540" locus_tag="CCM_08775" class="clusterblast-orf" id="dummy-1_h1_1_2"  />
</g>
<g id="a1_003"  >
<polygon points="130,90 154,90 159,85 154,80 130,80 130,90 " style="fill:white; stroke-width:1; stroke:black; " description="&lt;b&gt;CCM_08774&lt;/b&gt;&lt;br&gt;Forkhead-associated&lt;br&gt;Location: 1743467 - 1741839" locus_tag="CCM_08774" class="clusterblast-orf" id="dummy-1_h1_1_3"  />
</g>
<g id="a1_004"  >
<polygon points="290,85 295,80 323,80 323,90 295,90 290,85 " style="fill:white; stroke-width:1; stroke:black; " description="&lt;b&gt;CCM_08773&lt;/b&gt;&lt;br&gt;asparaginyl-tRNA synthetase&lt;br&gt;Location: 1734258 - 1732367" locus_tag="CCM_08773" class="clusterblast-orf" id="dummy-1_h1_1_4"  />
</g>
<g id="a1_005"  >
<polygon points="340,90 370,90 375,85 370,80 340,80 340,90 " style="fill:#d81515; stroke-width:1; stroke:black; " description="&lt;b&gt;CCM_08772&lt;/b&gt;&lt;br&gt;FAD-binding, type 2&lt;br&gt;Location: 1731384 - 1729368&lt;br&gt;&lt;br&gt;&lt;b&gt;BlastP hit with input.path1.gene50&lt;/b&gt;&lt;br&gt;Percentage identity: 83&lt;br&gt;Percentage coverage: 100&lt;br&gt;BLAST bit score: 1019&lt;br&gt;E-value: 0.0" locus_tag="CCM_08772" class="clusterblast-orf" id="dummy-1_h1_1_5"  />
</g>
<g id="a1_006"  >
<polygon points="379,85 384,80 449,80 449,90 384,90 379,85 " style="fill:#15d815; stroke-width:1; stroke:black; " description="&lt;b&gt;CCM_08771&lt;/b&gt;&lt;br&gt;non-ribosomal peptide synthetase&lt;br&gt;Location: 1729171 - 1725098&lt;br&gt;&lt;br&gt;&lt;b&gt;BlastP hit with input.path1.gene51&lt;/b&gt;&lt;br&gt;Percentage identity: 81&lt;br&gt;Percentage coverage: 97&lt;br&gt;BLAST bit score: 2093&lt;br&gt;E-value: 0.0" locus_tag="CCM_08771" class="clusterblast-orf" id="dummy-1_h1_1_6"  />
</g>
<g id="a1_007"  >
<polygon points="511,90 550,90 555,85 550,80 511,80 511,90 " style="fill:#1515d8; stroke-width:1; stroke:black; " description="&lt;b&gt;CCM_08770&lt;/b&gt;&lt;br&gt;hypothetical protein&lt;br&gt;Location: 1721546 - 1719042&lt;br&gt;&lt;br&gt;&lt;b&gt;BlastP hit with input.path1.gene52&lt;/b&gt;&lt;br&gt;Percentage identity: 45&lt;br&gt;Percentage coverage: 142&lt;br&gt;BLAST bit score: 299&lt;br&gt;E-value: 5.95e-97" locus_tag="CCM_08770" class="clusterblast-orf" id="dummy-1_h1_1_7"  />
</g>
<g id="a1_008"  >
<polygon points="569,90 592,90 597,85 592,80 569,80 569,90 " style="fill:white; stroke-width:1; stroke:black; " description="&lt;b&gt;CCM_08769&lt;/b&gt;&lt;br&gt;phosphatidylinositol-3,4,5-trisphosphate 3-phosphatase PTEN&lt;br&gt;Location: 1718236 - 1716586" locus_tag="CCM_08769" class="clusterblast-orf" id="dummy-1_h1_1_8"  />
</g>
<g id="a1_009"  >
<polygon points="600,85 605,80 626,80 626,90 605,90 600,85 " style="fill:white; stroke-width:1; stroke:black; " description="&lt;b&gt;CCM_08768&lt;/b&gt;&lt;br&gt;cyclin&lt;br&gt;Location: 1716460 - 1714946" locus_tag="CCM_08768" class="clusterblast-orf" id="dummy-1_h1_1_9"  />
</g>
<g id="a1_0010"  >
<polygon points="636,85 641,80 644,80 644,90 641,90 636,85 " style="fill:white; stroke-width:1; stroke:black; " description="&lt;b&gt;CCM_08767&lt;/b&gt;&lt;br&gt;hypothetical protein&lt;br&gt;Location: 1714353 - 1713876" locus_tag="CCM_08767" class="clusterblast-orf" id="dummy-1_h1_1_10"  />
</g>
<g id="a1_0011"  >
<polygon points="694,85 699,80 724,80 724,90 699,90 694,85 " style="fill:white; stroke-width:1; stroke:black; " description="&lt;b&gt;CCM_08766&lt;/b&gt;&lt;br&gt;Mannose-1-phosphate guanylyltransferase (GDP)&lt;br&gt;Location: 1711028 - 1709270" locus_tag="CCM_08766" class="clusterblast-orf" id="dummy-1_h1_1_11"  />
</g>
<g id="a1_0012"  >
<polygon points="738,90 775,90 780,85 775,80 738,80 738,90 " style="fill:white; stroke-width:1; stroke:black; " description="&lt;b&gt;CCM_08765&lt;/b&gt;&lt;br&gt;M protein repeat protein&lt;br&gt;Location: 1708475 - 1706098" locus_tag="CCM_08765" class="clusterblast-orf" id="dummy-1_h1_1_12"  />
</g>
</svg>
