<svg xmlns="http://www.w3.org/2000/svg" xmlns:xlink="http://www.w3.org/1999/xlink" version="1.1" x="0" y="0" height="230" width="800" viewBox="0 0 800 230" preserveAspectRatio="none"  >
<g label="Query sequence" class="clusterblast-cluster"  >
<text x="5" y="20" class="clusterblast-acc"  >
Query sequence</text>
<line x1="10" y1="35" x2="778.0" y2="35" style="stroke-width:1; stroke:grey; "  />
<polygon points="147,40 158,40 163,35 158,30 147,30 147,40 " style="fill:white; stroke-width:1; stroke:black; " description="&lt;b&gt;input.path1.gene100&lt;/b&gt;&lt;br&gt;input.path1.gene100&lt;br&gt;Location: 405004 - 406827" locus_tag="input.path1.gene100" class="clusterblast-orf" id="dummy-1_q0_0_all"  />
<polygon points="209,35 214,30 215,30 215,40 214,40 209,35 " style="fill:white; stroke-width:1; stroke:black; " description="&lt;b&gt;input.path1.gene101&lt;/b&gt;&lt;br&gt;input.path1.gene101&lt;br&gt;Location: 412125 - 412825" locus_tag="input.path1.gene101" class="clusterblast-orf" id="dummy-1_q1_0_all"  />
<polygon points="242,40 249,40 254,35 249,30 242,30 242,40 " style="fill:#d81515; stroke-width:1; stroke:black; " description="&lt;b&gt;input.path1.gene102&lt;/b&gt;&lt;br&gt;input.path1.gene102&lt;br&gt;Location: 415835 - 417214" locus_tag="input.path1.gene102" class="clusterblast-orf" id="dummy-1_q2_0_all"  />
<polygon points="256,35 261,30 261,30 261,40 261,40 256,35 " style="fill:#4dd815; stroke-width:1; stroke:black; " description="&lt;b&gt;input.path1.gene103&lt;/b&gt;&lt;br&gt;input.path1.gene103&lt;br&gt;Location: 417517 - 418092" locus_tag="input.path1.gene103" class="clusterblast-orf" id="dummy-1_q3_0_all"  />
<polygon points="272,35 277,30 280,30 280,40 277,40 272,35 " style="fill:white; stroke-width:1; stroke:black; " description="&lt;b&gt;input.path1.gene104&lt;/b&gt;&lt;br&gt;input.path1.gene104&lt;br&gt;Location: 419329 - 420278" locus_tag="input.path1.gene104" class="clusterblast-orf" id="dummy-1_q4_0_all"  />
<polygon points="300,35 305,30 311,30 311,40 305,40 300,35 " style="fill:#1585d8; stroke-width:1; stroke:black; " description="&lt;b&gt;input.path1.gene105&lt;/b&gt;&lt;br&gt;input.path1.gene105&lt;br&gt;Location: 422495 - 423727" locus_tag="input.path1.gene105" class="clusterblast-orf" id="dummy-1_q5_0_all"  />
<polygon points="371,40 381,40 386,35 381,30 371,30 371,40 " style="fill:#d815bc; stroke-width:1; stroke:black; " description="&lt;b&gt;input.path1.gene106&lt;/b&gt;&lt;br&gt;input.path1.gene106&lt;br&gt;Location: 430657 - 432433" locus_tag="input.path1.gene106" class="clusterblast-orf" id="dummy-1_q6_0_all"  />
<polygon points="388,35 393,30 402,30 402,40 393,40 388,35 " style="fill:#d8bc15; stroke-width:1; stroke:black; " description="&lt;b&gt;input.path1.gene107&lt;/b&gt;&lt;br&gt;input.path1.gene107&lt;br&gt;Location: 432630 - 434194" locus_tag="input.path1.gene107" class="clusterblast-orf" id="dummy-1_q7_0_all"  />
<polygon points="414,40 431,40 436,35 431,30 414,30 414,40 " style="fill:#15d885; stroke-width:1; stroke:black; " description="&lt;b&gt;input.path1.gene108&lt;/b&gt;&lt;br&gt;input.path1.gene108&lt;br&gt;Location: 435597 - 438123" locus_tag="input.path1.gene108" class="clusterblast-orf" id="dummy-1_q8_0_all"  />
<polygon points="446,40 446,40 451,35 446,30 446,30 446,40 " style="fill:white; stroke-width:1; stroke:black; " description="&lt;b&gt;input.path1.gene109&lt;/b&gt;&lt;br&gt;input.path1.gene109&lt;br&gt;Location: 439260 - 439867" locus_tag="input.path1.gene109" class="clusterblast-orf" id="dummy-1_q9_0_all"  />
<polygon points="454,35 459,30 465,30 465,40 459,40 454,35 " style="fill:white; stroke-width:1; stroke:black; " description="&lt;b&gt;input.path1.gene110&lt;/b&gt;&lt;br&gt;input.path1.gene110&lt;br&gt;Location: 440223 - 441465" locus_tag="input.path1.gene110" class="clusterblast-orf" id="dummy-1_q10_0_all"  />
<polygon points="473,35 478,30 485,30 485,40 478,40 473,35 " style="fill:#4d15d8; stroke-width:1; stroke:black; " description="&lt;b&gt;input.path1.gene111&lt;/b&gt;&lt;br&gt;input.path1.gene111&lt;br&gt;Location: 442390 - 443686" locus_tag="input.path1.gene111" class="clusterblast-orf" id="dummy-1_q11_0_all"  />
<polygon points="497,35 502,30 505,30 505,40 502,40 497,35 " style="fill:white; stroke-width:1; stroke:black; " description="&lt;b&gt;input.path1.gene112&lt;/b&gt;&lt;br&gt;input.path1.gene112&lt;br&gt;Location: 445161 - 446007" locus_tag="input.path1.gene112" class="clusterblast-orf" id="dummy-1_q12_0_all"  />
<polygon points="510,40 515,40 520,35 515,30 510,30 510,40 " style="fill:white; stroke-width:1; stroke:black; " description="&lt;b&gt;input.path1.gene113&lt;/b&gt;&lt;br&gt;input.path1.gene113&lt;br&gt;Location: 446599 - 447764" locus_tag="input.path1.gene113" class="clusterblast-orf" id="dummy-1_q13_0_all"  />
<polygon points="521,35 526,30 526,30 526,40 526,40 521,35 " style="fill:white; stroke-width:1; stroke:black; " description="&lt;b&gt;input.path1.gene114&lt;/b&gt;&lt;br&gt;input.path1.gene114&lt;br&gt;Location: 447850 - 448395" locus_tag="input.path1.gene114" class="clusterblast-orf" id="dummy-1_q14_0_all"  />
<polygon points="526,35 531,30 566,30 566,40 531,40 526,35 " style="fill:white; stroke-width:1; stroke:black; " description="&lt;b&gt;input.path1.gene115&lt;/b&gt;&lt;br&gt;input.path1.gene115&lt;br&gt;Location: 448448 - 453054" locus_tag="input.path1.gene115" class="clusterblast-orf" id="dummy-1_q15_0_all"  />
<polygon points="584,40 599,40 604,35 599,30 584,30 584,40 " style="fill:white; stroke-width:1; stroke:black; " description="&lt;b&gt;input.path1.gene116&lt;/b&gt;&lt;br&gt;input.path1.gene116&lt;br&gt;Location: 455033 - 457388" locus_tag="input.path1.gene116" class="clusterblast-orf" id="dummy-1_q16_0_all"  />
<polygon points="624,35 629,30 632,30 632,40 629,40 624,35 " style="fill:white; stroke-width:1; stroke:black; " description="&lt;b&gt;input.path1.gene117&lt;/b&gt;&lt;br&gt;input.path1.gene117&lt;br&gt;Location: 459690 - 460581" locus_tag="input.path1.gene117" class="clusterblast-orf" id="dummy-1_q17_0_all"  />
</g>
<g label="NW_024469009" description="NW_024469009 (179824-271219): Aspergillus fijiensis CBS 313.89 unplaced genom... (4% of genes show similarity), fungal-RiPP-like" class="clusterblast-cluster"  >
<text x="5" y="70" class="clusterblast-acc"  >
<a xlink:href="https://antismash-db.secondarymetabolites.org/area?record=NW_024469009&amp;start=179824&amp;end=271219" target="_blank">NW_024469009 (179824-271219)</a>: Aspergillus fijiensis CBS 313.89 unplaced genom... (4% of genes show similarity), fungal-RiPP-like</text>
<line x1="10" y1="85" x2="778.0" y2="85" style="stroke-width:1; stroke:grey; "  />
</g>
<g id="a1_000"  >
<polygon points="0,90 2,85 0,80 0,90 " style="fill:white; stroke-width:1; stroke:black; " description="&lt;b&gt;BO72DRAFT_155785&lt;/b&gt;&lt;br&gt;uncharacterized protein&lt;br&gt;Location: 180885 - 181160" locus_tag="BO72DRAFT_155785" class="clusterblast-orf" id="dummy-1_h1_5_0"  />
</g>
<g id="a1_001"  >
<polygon points="2,85 7,80 20,80 20,90 7,90 2,85 " style="fill:white; stroke-width:1; stroke:black; " description="&lt;b&gt;BO72DRAFT_512731&lt;/b&gt;&lt;br&gt;siderochrome-iron transporter MirB&lt;br&gt;Location: 181228 - 183237" locus_tag="BO72DRAFT_512731" class="clusterblast-orf" id="dummy-1_h1_5_1"  />
</g>
<g id="a1_002"  >
<polygon points="37,85 42,80 55,80 55,90 42,90 37,85 " style="fill:white; stroke-width:1; stroke:black; " description="&lt;b&gt;BO72DRAFT_528944&lt;/b&gt;&lt;br&gt;uncharacterized protein&lt;br&gt;Location: 185160 - 187206" locus_tag="BO72DRAFT_528944" class="clusterblast-orf" id="dummy-1_h1_5_2"  />
</g>
<g id="a1_003"  >
<polygon points="60,85 65,80 68,80 68,90 65,90 60,85 " style="fill:white; stroke-width:1; stroke:black; " description="&lt;b&gt;BO72DRAFT_407154&lt;/b&gt;&lt;br&gt;putative hydrolase of the alpha/beta superfamily&lt;br&gt;Location: 187818 - 188772" locus_tag="BO72DRAFT_407154" class="clusterblast-orf" id="dummy-1_h1_5_3"  />
</g>
<g id="a1_004"  >
<polygon points="75,90 82,90 87,85 82,80 75,80 75,90 " style="fill:white; stroke-width:1; stroke:black; " description="&lt;b&gt;BO72DRAFT_487151&lt;/b&gt;&lt;br&gt;uncharacterized protein&lt;br&gt;Location: 189491 - 190928" locus_tag="BO72DRAFT_487151" class="clusterblast-orf" id="dummy-1_h1_5_4"  />
</g>
<g id="a1_005"  >
<polygon points="93,90 100,90 105,85 100,80 93,80 93,90 " style="fill:white; stroke-width:1; stroke:black; " description="&lt;b&gt;BO72DRAFT_432067&lt;/b&gt;&lt;br&gt;uncharacterized protein&lt;br&gt;Location: 191572 - 192968" locus_tag="BO72DRAFT_432067" class="clusterblast-orf" id="dummy-1_h1_5_5"  />
</g>
<g id="a1_006"  >
<polygon points="113,85 118,80 124,80 124,90 118,90 113,85 " style="fill:white; stroke-width:1; stroke:black; " description="&lt;b&gt;BO72DRAFT_449354&lt;/b&gt;&lt;br&gt;putative alkaline phytoceramidase&lt;br&gt;Location: 193912 - 195199" locus_tag="BO72DRAFT_449354" class="clusterblast-orf" id="dummy-1_h1_5_6"  />
</g>
<g id="a1_007"  >
<polygon points="144,90 152,90 157,85 152,80 144,80 144,90 " style="fill:#d8bc15; stroke-width:1; stroke:black; " description="&lt;b&gt;BO72DRAFT_449355&lt;/b&gt;&lt;br&gt;S-adenosyl-L-methionine-dependent methyltransferase&lt;br&gt;Location: 197396 - 198913&lt;br&gt;&lt;br&gt;&lt;b&gt;BlastP hit with input.path1.gene107&lt;/b&gt;&lt;br&gt;Percentage identity: 35&lt;br&gt;Percentage coverage: 95&lt;br&gt;BLAST bit score: 205&lt;br&gt;E-value: 7.42e-60" locus_tag="BO72DRAFT_449355" class="clusterblast-orf" id="dummy-1_h1_5_7"  />
</g>
<g id="a1_008"  >
<polygon points="161,85 166,80 167,80 167,90 166,90 161,85 " style="fill:white; stroke-width:1; stroke:black; " description="&lt;b&gt;BO72DRAFT_497643&lt;/b&gt;&lt;br&gt;2OG-Fe(II) oxygenase family oxidoreductase&lt;br&gt;Location: 199358 - 200101" locus_tag="BO72DRAFT_497643" class="clusterblast-orf" id="dummy-1_h1_5_8"  />
</g>
<g id="a1_009"  >
<polygon points="173,85 178,80 180,80 180,90 178,90 173,85 " style="fill:white; stroke-width:1; stroke:black; " description="&lt;b&gt;BO72DRAFT_449357&lt;/b&gt;&lt;br&gt;uncharacterized protein&lt;br&gt;Location: 200833 - 201635" locus_tag="BO72DRAFT_449357" class="clusterblast-orf" id="dummy-1_h1_5_9"  />
</g>
<g id="a1_0010"  >
<polygon points="188,85 193,80 199,80 199,90 193,90 188,85 " style="fill:white; stroke-width:1; stroke:black; " description="&lt;b&gt;BO72DRAFT_155967&lt;/b&gt;&lt;br&gt;oxidoreductase&lt;br&gt;Location: 202475 - 203749" locus_tag="BO72DRAFT_155967" class="clusterblast-orf" id="dummy-1_h1_5_10"  />
</g>
<g id="a1_0011"  >
<polygon points="202,85 207,80 220,80 220,90 207,90 202,85 " style="fill:white; stroke-width:1; stroke:black; " description="&lt;b&gt;BO72DRAFT_381226&lt;/b&gt;&lt;br&gt;putative C6 transcription factor&lt;br&gt;Location: 204062 - 206152" locus_tag="BO72DRAFT_381226" class="clusterblast-orf" id="dummy-1_h1_5_11"  />
</g>
<g id="a1_0012"  >
<polygon points="225,85 230,80 233,80 233,90 230,90 225,85 " style="fill:white; stroke-width:1; stroke:black; " description="&lt;b&gt;BO72DRAFT_381304&lt;/b&gt;&lt;br&gt;proline-specific peptidase&lt;br&gt;Location: 206704 - 207711" locus_tag="BO72DRAFT_381304" class="clusterblast-orf" id="dummy-1_h1_5_12"  />
</g>
<g id="a1_0013"  >
<polygon points="238,90 245,90 250,85 245,80 238,80 238,90 " style="fill:white; stroke-width:1; stroke:black; " description="&lt;b&gt;BO72DRAFT_407176&lt;/b&gt;&lt;br&gt;uncharacterized protein&lt;br&gt;Location: 208219 - 209579" locus_tag="BO72DRAFT_407176" class="clusterblast-orf" id="dummy-1_h1_5_13"  />
</g>
<g id="a1_0014"  >
<polygon points="256,90 267,90 272,85 267,80 256,80 256,90 " style="fill:white; stroke-width:1; stroke:black; " description="&lt;b&gt;BO72DRAFT_381243&lt;/b&gt;&lt;br&gt;GABA transporter&lt;br&gt;Location: 210257 - 212168" locus_tag="BO72DRAFT_381243" class="clusterblast-orf" id="dummy-1_h1_5_14"  />
</g>
<g id="a1_0015"  >
<polygon points="285,85 290,80 298,80 298,90 290,90 285,85 " style="fill:white; stroke-width:1; stroke:black; " description="&lt;b&gt;BO72DRAFT_432092&lt;/b&gt;&lt;br&gt;D-lactate dehydrogenase&lt;br&gt;Location: 213569 - 215059" locus_tag="BO72DRAFT_432092" class="clusterblast-orf" id="dummy-1_h1_5_15"  />
</g>
<g id="a1_0016"  >
<polygon points="306,85 311,80 321,80 321,90 311,90 306,85 " style="fill:white; stroke-width:1; stroke:black; " description="&lt;b&gt;BO72DRAFT_478481&lt;/b&gt;&lt;br&gt;FAD-binding domain-containing protein&lt;br&gt;Location: 216023 - 217731" locus_tag="BO72DRAFT_478481" class="clusterblast-orf" id="dummy-1_h1_5_16"  />
</g>
<g id="a1_0017"  >
<polygon points="333,85 338,80 344,80 344,90 338,90 333,85 " style="fill:white; stroke-width:1; stroke:black; " description="&lt;b&gt;BO72DRAFT_432099&lt;/b&gt;&lt;br&gt;uncharacterized protein&lt;br&gt;Location: 219142 - 220390" locus_tag="BO72DRAFT_432099" class="clusterblast-orf" id="dummy-1_h1_5_17"  />
</g>
<g id="a1_0018"  >
<polygon points="359,85 364,80 374,80 374,90 364,90 359,85 " style="fill:white; stroke-width:1; stroke:black; " description="&lt;b&gt;BO72DRAFT_478483&lt;/b&gt;&lt;br&gt;putative O-methyltransferase&lt;br&gt;Location: 222143 - 223770" locus_tag="BO72DRAFT_478483" class="clusterblast-orf" id="dummy-1_h1_5_18"  />
</g>
<g id="a1_0019"  >
<polygon points="383,90 385,90 390,85 385,80 383,80 383,90 " style="fill:#d815bc; stroke-width:1; stroke:black; " description="&lt;b&gt;BO72DRAFT_449368&lt;/b&gt;&lt;br&gt;uncharacterized protein&lt;br&gt;Location: 224825 - 225649&lt;br&gt;&lt;br&gt;&lt;b&gt;BlastP hit with input.path1.gene106&lt;/b&gt;&lt;br&gt;Percentage identity: 33&lt;br&gt;Percentage coverage: 31&lt;br&gt;BLAST bit score: 60&lt;br&gt;E-value: 2.75e-08" locus_tag="BO72DRAFT_449368" class="clusterblast-orf" id="dummy-1_h1_5_19"  />
</g>
<g id="a1_0020"  >
<polygon points="391,85 395,80 395,90 391,85 " style="fill:white; stroke-width:1; stroke:black; " description="&lt;b&gt;BO72DRAFT_381130&lt;/b&gt;&lt;br&gt;uncharacterized protein&lt;br&gt;Location: 225764 - 226219" locus_tag="BO72DRAFT_381130" class="clusterblast-orf" id="dummy-1_h1_5_20"  />
</g>
<g id="a1_0021"  >
<polygon points="409,90 411,85 409,80 409,90 " style="fill:white; stroke-width:1; stroke:black; " description="&lt;b&gt;BO72DRAFT_497656&lt;/b&gt;&lt;br&gt;uncharacterized protein&lt;br&gt;Location: 227792 - 228108" locus_tag="BO72DRAFT_497656" class="clusterblast-orf" id="dummy-1_h1_5_21"  />
</g>
<g id="a1_0022"  >
<polygon points="415,85 420,80 435,80 435,90 420,90 415,85 " style="fill:white; stroke-width:1; stroke:black; " description="&lt;b&gt;BO72DRAFT_469707&lt;/b&gt;&lt;br&gt;uncharacterized protein&lt;br&gt;Location: 228523 - 230860" locus_tag="BO72DRAFT_469707" class="clusterblast-orf" id="dummy-1_h1_5_22"  />
</g>
<g id="a1_0023"  >
<polygon points="438,90 443,90 448,85 443,80 438,80 438,90 " style="fill:white; stroke-width:1; stroke:black; " description="&lt;b&gt;BO72DRAFT_512751&lt;/b&gt;&lt;br&gt;NAD(P)-binding protein&lt;br&gt;Location: 231218 - 232263" locus_tag="BO72DRAFT_512751" class="clusterblast-orf" id="dummy-1_h1_5_23"  />
</g>
<g id="a1_0024"  >
<polygon points="473,90 473,90 478,85 473,80 473,80 473,90 " style="fill:white; stroke-width:1; stroke:black; " description="&lt;b&gt;BO72DRAFT_381143&lt;/b&gt;&lt;br&gt;uncharacterized protein&lt;br&gt;Location: 235124 - 235735" locus_tag="BO72DRAFT_381143" class="clusterblast-orf" id="dummy-1_h1_5_24"  />
</g>
<g id="a1_0025"  >
<polygon points="488,85 493,80 494,80 494,90 493,90 488,85 " style="fill:white; stroke-width:1; stroke:black; " description="&lt;b&gt;BO72DRAFT_407199&lt;/b&gt;&lt;br&gt;uncharacterized protein&lt;br&gt;Location: 236883 - 237571" locus_tag="BO72DRAFT_407199" class="clusterblast-orf" id="dummy-1_h1_5_25"  />
</g>
<g id="a1_0026"  >
<polygon points="498,85 503,80 518,80 518,90 503,90 498,85 " style="fill:white; stroke-width:1; stroke:black; " description="&lt;b&gt;BO72DRAFT_478485&lt;/b&gt;&lt;br&gt;sodium/solute symporter&lt;br&gt;Location: 238090 - 240307" locus_tag="BO72DRAFT_478485" class="clusterblast-orf" id="dummy-1_h1_5_26"  />
</g>
<g id="a1_0027"  >
<polygon points="527,85 532,80 538,80 538,90 532,90 527,85 " style="fill:white; stroke-width:1; stroke:black; " description="&lt;b&gt;BO72DRAFT_381372&lt;/b&gt;&lt;br&gt;uncharacterized protein&lt;br&gt;Location: 241336 - 242616" locus_tag="BO72DRAFT_381372" class="clusterblast-orf" id="dummy-1_h1_5_27"  />
</g>
<g id="a1_0028"  >
<polygon points="541,90 552,90 557,85 552,80 541,80 541,90 " style="fill:white; stroke-width:1; stroke:black; " description="&lt;b&gt;BO72DRAFT_487168&lt;/b&gt;&lt;br&gt;uncharacterized protein&lt;br&gt;Location: 242970 - 244766" locus_tag="BO72DRAFT_487168" class="clusterblast-orf" id="dummy-1_h1_5_28"  />
</g>
<g id="a1_0029"  >
<polygon points="558,85 563,80 569,80 569,90 563,90 558,85 " style="fill:white; stroke-width:1; stroke:black; " description="&lt;b&gt;BO72DRAFT_487169&lt;/b&gt;&lt;br&gt;alcohol dehydrogenase&lt;br&gt;Location: 244959 - 246165" locus_tag="BO72DRAFT_487169" class="clusterblast-orf" id="dummy-1_h1_5_29"  />
</g>
<g id="a1_0030"  >
<polygon points="575,90 577,85 575,80 575,90 " style="fill:white; stroke-width:1; stroke:black; " description="&lt;b&gt;BO72DRAFT_156472&lt;/b&gt;&lt;br&gt;uncharacterized protein&lt;br&gt;Location: 246841 - 247143" locus_tag="BO72DRAFT_156472" class="clusterblast-orf" id="dummy-1_h1_5_30"  />
</g>
<g id="a1_0031"  >
<polygon points="594,85 599,80 601,80 601,90 599,90 594,85 " style="fill:white; stroke-width:1; stroke:black; " description="&lt;b&gt;BO72DRAFT_432124&lt;/b&gt;&lt;br&gt;zincin&lt;br&gt;Location: 248993 - 249859" locus_tag="BO72DRAFT_432124" class="clusterblast-orf" id="dummy-1_h1_5_31"  />
</g>
<g id="a1_0032"  >
<polygon points="622,85 626,80 626,90 622,85 " style="fill:white; stroke-width:1; stroke:black; " description="&lt;b&gt;BO72DRAFT_449372&lt;/b&gt;&lt;br&gt;Thioesterase/thiol ester dehydrase-isomerase&lt;br&gt;Location: 252279 - 252755" locus_tag="BO72DRAFT_449372" class="clusterblast-orf" id="dummy-1_h1_5_32"  />
</g>
<g id="a1_0033"  >
<polygon points="629,85 634,80 650,80 650,90 634,90 629,85 " style="fill:white; stroke-width:1; stroke:black; " description="&lt;b&gt;BO72DRAFT_512760&lt;/b&gt;&lt;br&gt;uncharacterized protein&lt;br&gt;Location: 253102 - 255439" locus_tag="BO72DRAFT_512760" class="clusterblast-orf" id="dummy-1_h1_5_33"  />
</g>
<g id="a1_0034"  >
<polygon points="653,90 657,90 662,85 657,80 653,80 653,90 " style="fill:white; stroke-width:1; stroke:black; " description="&lt;b&gt;BO72DRAFT_512768&lt;/b&gt;&lt;br&gt;short chain dehydrogenase&lt;br&gt;Location: 255770 - 256887" locus_tag="BO72DRAFT_512768" class="clusterblast-orf" id="dummy-1_h1_5_34"  />
</g>
<g id="a1_0035"  >
<polygon points="664,90 675,90 680,85 675,80 664,80 664,90 " style="fill:white; stroke-width:1; stroke:black; " description="&lt;b&gt;BO72DRAFT_478493&lt;/b&gt;&lt;br&gt;serine carboxypeptidase&lt;br&gt;Location: 257079 - 258917" locus_tag="BO72DRAFT_478493" class="clusterblast-orf" id="dummy-1_h1_5_35"  />
</g>
<g id="a1_0036"  >
<polygon points="681,85 685,80 685,90 681,85 " style="fill:white; stroke-width:1; stroke:black; " description="&lt;b&gt;BO72DRAFT_407228&lt;/b&gt;&lt;br&gt;stress responsive A/B barrel domain protein&lt;br&gt;Location: 259032 - 259498" locus_tag="BO72DRAFT_407228" class="clusterblast-orf" id="dummy-1_h1_5_36"  />
</g>
<g id="a1_0037"  >
<polygon points="689,85 694,80 701,80 701,90 694,90 689,85 " style="fill:white; stroke-width:1; stroke:black; " description="&lt;b&gt;BO72DRAFT_487175&lt;/b&gt;&lt;br&gt;uncharacterized protein&lt;br&gt;Location: 259990 - 261285" locus_tag="BO72DRAFT_487175" class="clusterblast-orf" id="dummy-1_h1_5_37"  />
</g>
<g id="a1_0038"  >
<polygon points="706,90 718,90 723,85 718,80 706,80 706,90 " style="fill:white; stroke-width:1; stroke:black; " description="&lt;b&gt;BO72DRAFT_512774&lt;/b&gt;&lt;br&gt;putative dihydroxy-acid dehydratase&lt;br&gt;Location: 261935 - 263894" locus_tag="BO72DRAFT_512774" class="clusterblast-orf" id="dummy-1_h1_5_38"  />
</g>
<g id="a1_0039"  >
<polygon points="726,85 731,80 740,80 740,90 731,90 726,85 " style="fill:white; stroke-width:1; stroke:black; " description="&lt;b&gt;BO72DRAFT_469721&lt;/b&gt;&lt;br&gt;putative bicyclomycin resistance protein&lt;br&gt;Location: 264125 - 265742" locus_tag="BO72DRAFT_469721" class="clusterblast-orf" id="dummy-1_h1_5_39"  />
</g>
<g id="a1_0040"  >
<polygon points="751,90 757,90 762,85 757,80 751,80 751,90 " style="fill:white; stroke-width:1; stroke:black; " description="&lt;b&gt;BO72DRAFT_432147&lt;/b&gt;&lt;br&gt;amidohydrolase 2&lt;br&gt;Location: 267038 - 268285" locus_tag="BO72DRAFT_432147" class="clusterblast-orf" id="dummy-1_h1_5_40"  />
</g>
<g id="a1_0041"  >
<polygon points="768,90 774,90 779,85 774,80 768,80 768,90 " style="fill:white; stroke-width:1; stroke:black; " description="&lt;b&gt;BO72DRAFT_407239&lt;/b&gt;&lt;br&gt;uncharacterized protein&lt;br&gt;Location: 268968 - 270315" locus_tag="BO72DRAFT_407239" class="clusterblast-orf" id="dummy-1_h1_5_41"  />
</g>
</svg>
