<svg xmlns="http://www.w3.org/2000/svg" xmlns:xlink="http://www.w3.org/1999/xlink" version="1.1" x="0" y="0" height="230" width="800" viewBox="0 0 800 230" preserveAspectRatio="none"  >
<g label="Query sequence" class="clusterblast-cluster"  >
<text x="5" y="20" class="clusterblast-acc"  >
Query sequence</text>
<line x1="10" y1="35" x2="778.0" y2="35" style="stroke-width:1; stroke:grey; "  />
<polygon points="120,35 125,30 138,30 138,40 125,40 120,35 " style="fill:white; stroke-width:1; stroke:black; " description="&lt;b&gt;input.path1.gene54&lt;/b&gt;&lt;br&gt;input.path1.gene54&lt;br&gt;Location: 190957 - 193178" locus_tag="input.path1.gene54" class="clusterblast-orf" id="dummy-1_q0_0_all"  />
<polygon points="143,35 148,30 162,30 162,40 148,40 143,35 " style="fill:white; stroke-width:1; stroke:black; " description="&lt;b&gt;input.path1.gene55&lt;/b&gt;&lt;br&gt;input.path1.gene55&lt;br&gt;Location: 193748 - 195900" locus_tag="input.path1.gene55" class="clusterblast-orf" id="dummy-1_q1_0_all"  />
<polygon points="163,40 167,35 163,30 163,40 " style="fill:white; stroke-width:1; stroke:black; " description="&lt;b&gt;input.path1.gene56&lt;/b&gt;&lt;br&gt;input.path1.gene56&lt;br&gt;Location: 196040 - 196561" locus_tag="input.path1.gene56" class="clusterblast-orf" id="dummy-1_q2_0_all"  />
<polygon points="195,40 200,40 205,35 200,30 195,30 195,40 " style="fill:white; stroke-width:1; stroke:black; " description="&lt;b&gt;input.path1.gene57&lt;/b&gt;&lt;br&gt;input.path1.gene57&lt;br&gt;Location: 199845 - 200971" locus_tag="input.path1.gene57" class="clusterblast-orf" id="dummy-1_q3_0_all"  />
<polygon points="206,35 211,30 228,30 228,40 211,40 206,35 " style="fill:white; stroke-width:1; stroke:black; " description="&lt;b&gt;input.path1.gene58&lt;/b&gt;&lt;br&gt;input.path1.gene58&lt;br&gt;Location: 201099 - 203747" locus_tag="input.path1.gene58" class="clusterblast-orf" id="dummy-1_q4_0_all"  />
<polygon points="233,40 250,40 255,35 250,30 233,30 233,40 " style="fill:white; stroke-width:1; stroke:black; " description="&lt;b&gt;input.path1.gene59&lt;/b&gt;&lt;br&gt;input.path1.gene59&lt;br&gt;Location: 204364 - 206909" locus_tag="input.path1.gene59" class="clusterblast-orf" id="dummy-1_q5_0_all"  />
<polygon points="262,40 264,40 269,35 264,30 262,30 262,40 " style="fill:white; stroke-width:1; stroke:black; " description="&lt;b&gt;input.path1.gene60&lt;/b&gt;&lt;br&gt;input.path1.gene60&lt;br&gt;Location: 207788 - 208561" locus_tag="input.path1.gene60" class="clusterblast-orf" id="dummy-1_q6_0_all"  />
<polygon points="320,35 324,30 324,40 320,35 " style="fill:white; stroke-width:1; stroke:black; " description="&lt;b&gt;input.path1.gene61&lt;/b&gt;&lt;br&gt;input.path1.gene61&lt;br&gt;Location: 214604 - 215096" locus_tag="input.path1.gene61" class="clusterblast-orf" id="dummy-1_q7_0_all"  />
<polygon points="334,40 345,40 350,35 345,30 334,30 334,40 " style="fill:#d81515; stroke-width:1; stroke:black; " description="&lt;b&gt;input.path1.gene62&lt;/b&gt;&lt;br&gt;input.path1.gene62&lt;br&gt;Location: 216253 - 218085" locus_tag="input.path1.gene62" class="clusterblast-orf" id="dummy-1_q8_0_all"  />
<polygon points="356,40 392,40 397,35 392,30 356,30 356,40 " style="fill:#15d863; stroke-width:1; stroke:black; " description="&lt;b&gt;input.path1.gene63&lt;/b&gt;&lt;br&gt;input.path1.gene63&lt;br&gt;Location: 218841 - 223739" locus_tag="input.path1.gene63" class="clusterblast-orf" id="dummy-1_q9_0_all"  />
<polygon points="400,40 402,35 400,30 400,40 " style="fill:white; stroke-width:1; stroke:black; " description="&lt;b&gt;input.path1.gene64&lt;/b&gt;&lt;br&gt;input.path1.gene64&lt;br&gt;Location: 224021 - 224225" locus_tag="input.path1.gene64" class="clusterblast-orf" id="dummy-1_q10_0_all"  />
<polygon points="404,35 409,30 411,30 411,40 409,40 404,35 " style="fill:#15d863; stroke-width:1; stroke:black; " description="&lt;b&gt;input.path1.gene65&lt;/b&gt;&lt;br&gt;input.path1.gene65&lt;br&gt;Location: 224463 - 225285" locus_tag="input.path1.gene65" class="clusterblast-orf" id="dummy-1_q11_0_all"  />
<polygon points="416,40 418,40 423,35 418,30 416,30 416,40 " style="fill:white; stroke-width:1; stroke:black; " description="&lt;b&gt;input.path1.gene66&lt;/b&gt;&lt;br&gt;input.path1.gene66&lt;br&gt;Location: 225931 - 226759" locus_tag="input.path1.gene66" class="clusterblast-orf" id="dummy-1_q12_0_all"  />
<polygon points="431,40 436,40 441,35 436,30 431,30 431,40 " style="fill:white; stroke-width:1; stroke:black; " description="&lt;b&gt;input.path1.gene67&lt;/b&gt;&lt;br&gt;input.path1.gene67&lt;br&gt;Location: 227658 - 228893" locus_tag="input.path1.gene67" class="clusterblast-orf" id="dummy-1_q13_0_all"  />
<polygon points="445,40 457,40 462,35 457,30 445,30 445,40 " style="fill:#1563d8; stroke-width:1; stroke:black; " description="&lt;b&gt;input.path1.gene68&lt;/b&gt;&lt;br&gt;input.path1.gene68&lt;br&gt;Location: 229337 - 231417" locus_tag="input.path1.gene68" class="clusterblast-orf" id="dummy-1_q14_0_all"  />
<polygon points="482,40 484,40 489,35 484,30 482,30 482,40 " style="fill:#b115d8; stroke-width:1; stroke:black; " description="&lt;b&gt;input.path1.gene69&lt;/b&gt;&lt;br&gt;input.path1.gene69&lt;br&gt;Location: 233723 - 234498" locus_tag="input.path1.gene69" class="clusterblast-orf" id="dummy-1_q15_0_all"  />
<polygon points="492,35 497,30 501,30 501,40 497,40 492,35 " style="fill:white; stroke-width:1; stroke:black; " description="&lt;b&gt;input.path1.gene70&lt;/b&gt;&lt;br&gt;input.path1.gene70&lt;br&gt;Location: 234859 - 235919" locus_tag="input.path1.gene70" class="clusterblast-orf" id="dummy-1_q16_0_all"  />
<polygon points="505,40 510,40 515,35 510,30 505,30 505,40 " style="fill:white; stroke-width:1; stroke:black; " description="&lt;b&gt;input.path1.gene71&lt;/b&gt;&lt;br&gt;input.path1.gene71&lt;br&gt;Location: 236381 - 237562" locus_tag="input.path1.gene71" class="clusterblast-orf" id="dummy-1_q17_0_all"  />
<polygon points="526,40 534,40 539,35 534,30 526,30 526,40 " style="fill:white; stroke-width:1; stroke:black; " description="&lt;b&gt;input.path1.gene72&lt;/b&gt;&lt;br&gt;input.path1.gene72&lt;br&gt;Location: 238879 - 240490" locus_tag="input.path1.gene72" class="clusterblast-orf" id="dummy-1_q18_0_all"  />
<polygon points="550,40 554,40 559,35 554,30 550,30 550,40 " style="fill:white; stroke-width:1; stroke:black; " description="&lt;b&gt;input.path1.gene73&lt;/b&gt;&lt;br&gt;input.path1.gene73&lt;br&gt;Location: 241728 - 242805" locus_tag="input.path1.gene73" class="clusterblast-orf" id="dummy-1_q19_0_all"  />
<polygon points="562,35 567,30 576,30 576,40 567,40 562,35 " style="fill:white; stroke-width:1; stroke:black; " description="&lt;b&gt;input.path1.gene74&lt;/b&gt;&lt;br&gt;input.path1.gene74&lt;br&gt;Location: 243216 - 244817" locus_tag="input.path1.gene74" class="clusterblast-orf" id="dummy-1_q20_0_all"  />
<polygon points="581,35 586,30 619,30 619,40 586,40 581,35 " style="fill:#b1d815; stroke-width:1; stroke:black; " description="&lt;b&gt;input.path1.gene75&lt;/b&gt;&lt;br&gt;input.path1.gene75&lt;br&gt;Location: 245383 - 249910" locus_tag="input.path1.gene75" class="clusterblast-orf" id="dummy-1_q21_0_all"  />
<polygon points="636,40 637,40 642,35 637,30 636,30 636,40 " style="fill:white; stroke-width:1; stroke:black; " description="&lt;b&gt;input.path1.gene76&lt;/b&gt;&lt;br&gt;input.path1.gene76&lt;br&gt;Location: 251859 - 252554" locus_tag="input.path1.gene76" class="clusterblast-orf" id="dummy-1_q22_0_all"  />
<polygon points="652,40 654,40 659,35 654,30 652,30 652,40 " style="fill:white; stroke-width:1; stroke:black; " description="&lt;b&gt;input.path1.gene77&lt;/b&gt;&lt;br&gt;input.path1.gene77&lt;br&gt;Location: 253840 - 254671" locus_tag="input.path1.gene77" class="clusterblast-orf" id="dummy-1_q23_0_all"  />
</g>
<g label="NW_011371361" description="NW_011371361 (1937664-2035052): Paracoccidioides brasiliensis Pb18 unplaced g... (17% of genes show similarity), fungal-RiPP-like" class="clusterblast-cluster"  >
<text x="5" y="70" class="clusterblast-acc"  >
<a xlink:href="https://antismash-db.secondarymetabolites.org/area?record=NW_011371361&amp;start=1937664&amp;end=2035052" target="_blank">NW_011371361 (1937664-2035052)</a>: Paracoccidioides brasiliensis Pb18 unplaced g... (17% of genes show similarity), fungal-RiPP-like</text>
<line x1="10" y1="85" x2="778.0" y2="85" style="stroke-width:1; stroke:grey; "  />
</g>
<g id="a1_000"  >
<polygon points="0,90 13,90 18,85 13,80 0,80 0,90 " style="fill:white; stroke-width:1; stroke:black; " description="&lt;b&gt;PADG_04166&lt;/b&gt;&lt;br&gt;uncharacterized protein&lt;br&gt;Location: 2030079 - 2027932" locus_tag="PADG_04166" class="clusterblast-orf" id="dummy-1_h1_1_0"  />
</g>
<g id="a1_001"  >
<polygon points="30,85 35,80 41,80 41,90 35,90 30,85 " style="fill:white; stroke-width:1; stroke:black; " description="&lt;b&gt;PADG_04165&lt;/b&gt;&lt;br&gt;uncharacterized protein&lt;br&gt;Location: 2026494 - 2025173" locus_tag="PADG_04165" class="clusterblast-orf" id="dummy-1_h1_1_1"  />
</g>
<g id="a1_002"  >
<polygon points="44,90 46,90 51,85 46,80 44,80 44,90 " style="fill:white; stroke-width:1; stroke:black; " description="&lt;b&gt;PADG_04164&lt;/b&gt;&lt;br&gt;uncharacterized protein&lt;br&gt;Location: 2024862 - 2023963" locus_tag="PADG_04164" class="clusterblast-orf" id="dummy-1_h1_1_2"  />
</g>
<g id="a1_003"  >
<polygon points="71,90 74,90 79,85 74,80 71,80 71,90 " style="fill:white; stroke-width:1; stroke:black; " description="&lt;b&gt;PADG_04163&lt;/b&gt;&lt;br&gt;uncharacterized protein&lt;br&gt;Location: 2021671 - 2020737" locus_tag="PADG_04163" class="clusterblast-orf" id="dummy-1_h1_1_3"  />
</g>
<g id="a1_004"  >
<polygon points="94,85 99,80 129,80 129,90 99,90 94,85 " style="fill:white; stroke-width:1; stroke:black; " description="&lt;b&gt;PADG_04162&lt;/b&gt;&lt;br&gt;cohesin subunit SMC1&lt;br&gt;Location: 2018941 - 2014749" locus_tag="PADG_04162" class="clusterblast-orf" id="dummy-1_h1_1_4"  />
</g>
<g id="a1_005"  >
<polygon points="160,90 169,90 174,85 169,80 160,80 160,90 " style="fill:white; stroke-width:1; stroke:black; " description="&lt;b&gt;PADG_04161&lt;/b&gt;&lt;br&gt;glycerophosphocholine acyltransferase&lt;br&gt;Location: 2011104 - 2009433" locus_tag="PADG_04161" class="clusterblast-orf" id="dummy-1_h1_1_5"  />
</g>
<g id="a1_006"  >
<polygon points="181,90 191,90 196,85 191,80 181,80 181,90 " style="fill:white; stroke-width:1; stroke:black; " description="&lt;b&gt;PADG_04160&lt;/b&gt;&lt;br&gt;uncharacterized protein&lt;br&gt;Location: 2008707 - 2006931" locus_tag="PADG_04160" class="clusterblast-orf" id="dummy-1_h1_1_6"  />
</g>
<g id="a1_007"  >
<polygon points="205,90 211,90 216,85 211,80 205,80 205,90 " style="fill:white; stroke-width:1; stroke:black; " description="&lt;b&gt;PADG_04159&lt;/b&gt;&lt;br&gt;8-oxo-dGTP diphosphatase&lt;br&gt;Location: 2005846 - 2004544" locus_tag="PADG_04159" class="clusterblast-orf" id="dummy-1_h1_1_7"  />
</g>
<g id="a1_008"  >
<polygon points="222,90 231,90 236,85 231,80 222,80 222,90 " style="fill:white; stroke-width:1; stroke:black; " description="&lt;b&gt;PADG_04158&lt;/b&gt;&lt;br&gt;uncharacterized protein&lt;br&gt;Location: 2003766 - 2002153" locus_tag="PADG_04158" class="clusterblast-orf" id="dummy-1_h1_1_8"  />
</g>
<g id="a1_009"  >
<polygon points="248,85 253,80 260,80 260,90 253,90 248,85 " style="fill:white; stroke-width:1; stroke:black; " description="&lt;b&gt;PADG_04157&lt;/b&gt;&lt;br&gt;uncharacterized protein&lt;br&gt;Location: 2000772 - 1999357" locus_tag="PADG_04157" class="clusterblast-orf" id="dummy-1_h1_1_9"  />
</g>
<g id="a1_0010"  >
<polygon points="264,90 277,90 282,85 277,80 264,80 264,90 " style="fill:#1563d8; stroke-width:1; stroke:black; " description="&lt;b&gt;PADG_04156&lt;/b&gt;&lt;br&gt;uncharacterized protein&lt;br&gt;Location: 1998824 - 1996760&lt;br&gt;&lt;br&gt;&lt;b&gt;BlastP hit with input.path1.gene68&lt;/b&gt;&lt;br&gt;Percentage identity: 57&lt;br&gt;Percentage coverage: 100&lt;br&gt;BLAST bit score: 759&lt;br&gt;E-value: 7.48e-270" locus_tag="PADG_04156" class="clusterblast-orf" id="dummy-1_h1_1_10"  />
</g>
<g id="a1_0011"  >
<polygon points="284,85 289,80 299,80 299,90 289,90 284,85 " style="fill:white; stroke-width:1; stroke:black; " description="&lt;b&gt;PADG_04155&lt;/b&gt;&lt;br&gt;uncharacterized protein&lt;br&gt;Location: 1996500 - 1994751" locus_tag="PADG_04155" class="clusterblast-orf" id="dummy-1_h1_1_11"  />
</g>
<g id="a1_0012"  >
<polygon points="312,90 321,90 326,85 321,80 312,80 312,90 " style="fill:#d81515; stroke-width:1; stroke:black; " description="&lt;b&gt;PADG_04154&lt;/b&gt;&lt;br&gt;uncharacterized protein&lt;br&gt;Location: 1993251 - 1991521&lt;br&gt;&lt;br&gt;&lt;b&gt;BlastP hit with input.path1.gene62&lt;/b&gt;&lt;br&gt;Percentage identity: 35&lt;br&gt;Percentage coverage: 98&lt;br&gt;BLAST bit score: 313&lt;br&gt;E-value: 1.3e-99" locus_tag="PADG_04154" class="clusterblast-orf" id="dummy-1_h1_1_12"  />
</g>
<g id="a1_0013"  >
<polygon points="339,85 344,80 349,80 349,90 344,90 339,85 " style="fill:#15d863; stroke-width:1; stroke:black; " description="&lt;b&gt;PADG_04153&lt;/b&gt;&lt;br&gt;uncharacterized protein&lt;br&gt;Location: 1990052 - 1988810&lt;br&gt;&lt;br&gt;&lt;b&gt;BlastP hit with input.path1.gene63&lt;/b&gt;&lt;br&gt;Percentage identity: 74&lt;br&gt;Percentage coverage: 20&lt;br&gt;BLAST bit score: 343&lt;br&gt;E-value: 2.28e-108&lt;br&gt;&lt;br&gt;&lt;b&gt;BlastP hit with input.path1.gene65&lt;/b&gt;&lt;br&gt;Percentage identity: 34&lt;br&gt;Percentage coverage: 51&lt;br&gt;BLAST bit score: 54&lt;br&gt;E-value: 3.28e-07" locus_tag="PADG_04153" class="clusterblast-orf" id="dummy-1_h1_1_13"  />
</g>
<g id="a1_0014"  >
<polygon points="353,90 365,90 370,85 365,80 353,80 353,90 " style="fill:#1563d8; stroke-width:1; stroke:black; " description="&lt;b&gt;PADG_04152&lt;/b&gt;&lt;br&gt;uncharacterized protein&lt;br&gt;Location: 1988393 - 1986347&lt;br&gt;&lt;br&gt;&lt;b&gt;BlastP hit with input.path1.gene68&lt;/b&gt;&lt;br&gt;Percentage identity: 44&lt;br&gt;Percentage coverage: 97&lt;br&gt;BLAST bit score: 483&lt;br&gt;E-value: 4.71e-161" locus_tag="PADG_04152" class="clusterblast-orf" id="dummy-1_h1_1_14"  />
</g>
<g id="a1_0015"  >
<polygon points="377,85 382,80 384,80 384,90 382,90 377,85 " style="fill:white; stroke-width:1; stroke:black; " description="&lt;b&gt;PADG_04151&lt;/b&gt;&lt;br&gt;uncharacterized protein&lt;br&gt;Location: 1985541 - 1984692" locus_tag="PADG_04151" class="clusterblast-orf" id="dummy-1_h1_1_15"  />
</g>
<g id="a1_0016"  >
<polygon points="390,90 396,90 401,85 396,80 390,80 390,90 " style="fill:#15d863; stroke-width:1; stroke:black; " description="&lt;b&gt;PADG_04150&lt;/b&gt;&lt;br&gt;uncharacterized protein&lt;br&gt;Location: 1983966 - 1982665&lt;br&gt;&lt;br&gt;&lt;b&gt;BlastP hit with input.path1.gene63&lt;/b&gt;&lt;br&gt;Percentage identity: 39&lt;br&gt;Percentage coverage: 23&lt;br&gt;BLAST bit score: 188&lt;br&gt;E-value: 3.31e-51&lt;br&gt;&lt;br&gt;&lt;b&gt;BlastP hit with input.path1.gene65&lt;/b&gt;&lt;br&gt;Percentage identity: 33&lt;br&gt;Percentage coverage: 58&lt;br&gt;BLAST bit score: 60&lt;br&gt;E-value: 2.91e-09" locus_tag="PADG_04150" class="clusterblast-orf" id="dummy-1_h1_1_16"  />
</g>
<g id="a1_0017"  >
<polygon points="404,85 409,80 427,80 427,90 409,90 404,85 " style="fill:#b115d8; stroke-width:1; stroke:black; " description="&lt;b&gt;PADG_04149&lt;/b&gt;&lt;br&gt;uncharacterized protein&lt;br&gt;Location: 1982348 - 1979564&lt;br&gt;&lt;br&gt;&lt;b&gt;BlastP hit with input.path1.gene69&lt;/b&gt;&lt;br&gt;Percentage identity: 44&lt;br&gt;Percentage coverage: 112&lt;br&gt;BLAST bit score: 172&lt;br&gt;E-value: 1.63e-47" locus_tag="PADG_04149" class="clusterblast-orf" id="dummy-1_h1_1_17"  />
</g>
<g id="a1_0018"  >
<polygon points="446,90 471,90 476,85 471,80 446,80 446,90 " style="fill:white; stroke-width:1; stroke:black; " description="&lt;b&gt;PADG_04148&lt;/b&gt;&lt;br&gt;alpha-mannosidase&lt;br&gt;Location: 1977338 - 1973839" locus_tag="PADG_04148" class="clusterblast-orf" id="dummy-1_h1_1_18"  />
</g>
<g id="a1_0019"  >
<polygon points="483,85 488,80 492,80 492,90 488,90 483,85 " style="fill:white; stroke-width:1; stroke:black; " description="&lt;b&gt;PADG_04147&lt;/b&gt;&lt;br&gt;uncharacterized protein&lt;br&gt;Location: 1973031 - 1971991" locus_tag="PADG_04147" class="clusterblast-orf" id="dummy-1_h1_1_19"  />
</g>
<g id="a1_0020"  >
<polygon points="506,90 510,90 515,85 510,80 506,80 506,90 " style="fill:white; stroke-width:1; stroke:black; " description="&lt;b&gt;PADG_04146&lt;/b&gt;&lt;br&gt;low-affinity Cu transporter&lt;br&gt;Location: 1970251 - 1969239" locus_tag="PADG_04146" class="clusterblast-orf" id="dummy-1_h1_1_20"  />
</g>
<g id="a1_0021"  >
<polygon points="518,85 523,80 537,80 537,90 523,90 518,85 " style="fill:white; stroke-width:1; stroke:black; " description="&lt;b&gt;PADG_04145&lt;/b&gt;&lt;br&gt;uncharacterized protein&lt;br&gt;Location: 1968865 - 1966697" locus_tag="PADG_04145" class="clusterblast-orf" id="dummy-1_h1_1_21"  />
</g>
<g id="a1_0022"  >
<polygon points="545,90 554,90 559,85 554,80 545,80 545,90 " style="fill:white; stroke-width:1; stroke:black; " description="&lt;b&gt;PADG_11711&lt;/b&gt;&lt;br&gt;ATP-dependent RNA helicase eIF4A&lt;br&gt;Location: 1965654 - 1963987" locus_tag="PADG_11711" class="clusterblast-orf" id="dummy-1_h1_1_22"  />
</g>
<g id="a1_0023"  >
<polygon points="578,90 587,90 592,85 587,80 578,80 578,90 " style="fill:white; stroke-width:1; stroke:black; " description="&lt;b&gt;PADG_04143&lt;/b&gt;&lt;br&gt;uncharacterized protein&lt;br&gt;Location: 1961751 - 1960099" locus_tag="PADG_04143" class="clusterblast-orf" id="dummy-1_h1_1_23"  />
</g>
<g id="a1_0024"  >
<polygon points="594,85 599,80 602,80 602,90 599,90 594,85 " style="fill:white; stroke-width:1; stroke:black; " description="&lt;b&gt;PADG_04142&lt;/b&gt;&lt;br&gt;uncharacterized protein&lt;br&gt;Location: 1959899 - 1959000" locus_tag="PADG_04142" class="clusterblast-orf" id="dummy-1_h1_1_24"  />
</g>
<g id="a1_0025"  >
<polygon points="605,90 608,85 605,80 605,90 " style="fill:white; stroke-width:1; stroke:black; " description="&lt;b&gt;PADG_04141&lt;/b&gt;&lt;br&gt;uncharacterized protein&lt;br&gt;Location: 1958628 - 1958219" locus_tag="PADG_04141" class="clusterblast-orf" id="dummy-1_h1_1_25"  />
</g>
<g id="a1_0026"  >
<polygon points="615,90 629,90 634,85 629,80 615,80 615,90 " style="fill:white; stroke-width:1; stroke:black; " description="&lt;b&gt;PADG_11710&lt;/b&gt;&lt;br&gt;uncharacterized protein&lt;br&gt;Location: 1957416 - 1955206" locus_tag="PADG_11710" class="clusterblast-orf" id="dummy-1_h1_1_26"  />
</g>
<g id="a1_0027"  >
<polygon points="641,90 658,90 663,85 658,80 641,80 641,90 " style="fill:white; stroke-width:1; stroke:black; " description="&lt;b&gt;PADG_11709&lt;/b&gt;&lt;br&gt;TTK protein kinase&lt;br&gt;Location: 1954363 - 1951721" locus_tag="PADG_11709" class="clusterblast-orf" id="dummy-1_h1_1_27"  />
</g>
<g id="a1_0028"  >
<polygon points="669,85 674,80 676,80 676,90 674,90 669,85 " style="fill:white; stroke-width:1; stroke:black; " description="&lt;b&gt;PADG_04139&lt;/b&gt;&lt;br&gt;mitochondrial 54S ribosomal protein YmL49&lt;br&gt;Location: 1951073 - 1950288" locus_tag="PADG_04139" class="clusterblast-orf" id="dummy-1_h1_1_28"  />
</g>
<g id="a1_0029"  >
<polygon points="678,90 681,90 686,85 681,80 678,80 678,90 " style="fill:white; stroke-width:1; stroke:black; " description="&lt;b&gt;PADG_04138&lt;/b&gt;&lt;br&gt;ribosome biogenesis protein NSA2&lt;br&gt;Location: 1949945 - 1949029" locus_tag="PADG_04138" class="clusterblast-orf" id="dummy-1_h1_1_29"  />
</g>
<g id="a1_0030"  >
<polygon points="694,85 699,80 719,80 719,90 699,90 694,85 " style="fill:white; stroke-width:1; stroke:black; " description="&lt;b&gt;PADG_04137&lt;/b&gt;&lt;br&gt;uncharacterized protein&lt;br&gt;Location: 1948102 - 1945214" locus_tag="PADG_04137" class="clusterblast-orf" id="dummy-1_h1_1_30"  />
</g>
<g id="a1_0031"  >
<polygon points="732,85 734,80 734,90 732,85 " style="fill:white; stroke-width:1; stroke:black; " description="&lt;b&gt;PADG_04136&lt;/b&gt;&lt;br&gt;uncharacterized protein&lt;br&gt;Location: 1943634 - 1943365" locus_tag="PADG_04136" class="clusterblast-orf" id="dummy-1_h1_1_31"  />
</g>
<g id="a1_0032"  >
<polygon points="742,85 747,80 762,80 762,90 747,90 742,85 " style="fill:white; stroke-width:1; stroke:black; " description="&lt;b&gt;PADG_04135&lt;/b&gt;&lt;br&gt;uncharacterized protein&lt;br&gt;Location: 1942471 - 1940124" locus_tag="PADG_04135" class="clusterblast-orf" id="dummy-1_h1_1_32"  />
</g>
<g id="a1_0033"  >
<polygon points="764,90 775,90 780,85 775,80 764,80 764,90 " style="fill:white; stroke-width:1; stroke:black; " description="&lt;b&gt;PADG_04134&lt;/b&gt;&lt;br&gt;uncharacterized protein&lt;br&gt;Location: 1939841 - 1938018" locus_tag="PADG_04134" class="clusterblast-orf" id="dummy-1_h1_1_33"  />
</g>
</svg>
