<svg xmlns="http://www.w3.org/2000/svg" xmlns:xlink="http://www.w3.org/1999/xlink" version="1.1" x="0" y="0" height="230" width="800" viewBox="0 0 800 230" preserveAspectRatio="none"  >
<g label="Query sequence" class="clusterblast-cluster"  >
<text x="5" y="20" class="clusterblast-acc"  >
Query sequence</text>
<line x1="10" y1="35" x2="778.0" y2="35" style="stroke-width:1; stroke:grey; "  />
<polygon points="250,40 251,40 256,35 251,30 250,30 250,40 " style="fill:white; stroke-width:1; stroke:black; " description="&lt;b&gt;input.path1.gene510&lt;/b&gt;&lt;br&gt;input.path1.gene510&lt;br&gt;Location: 1753724 - 1755122" locus_tag="input.path1.gene510" class="clusterblast-orf" id="dummy-2_q0_0_all"  />
<polygon points="262,35 267,30 269,30 269,40 267,40 262,35 " style="fill:white; stroke-width:1; stroke:black; " description="&lt;b&gt;input.path1.gene511&lt;/b&gt;&lt;br&gt;input.path1.gene511&lt;br&gt;Location: 1756260 - 1757750" locus_tag="input.path1.gene511" class="clusterblast-orf" id="dummy-2_q1_0_all"  />
<polygon points="276,40 276,40 281,35 276,30 276,30 276,40 " style="fill:white; stroke-width:1; stroke:black; " description="&lt;b&gt;input.path1.gene512&lt;/b&gt;&lt;br&gt;input.path1.gene512&lt;br&gt;Location: 1759298 - 1760384" locus_tag="input.path1.gene512" class="clusterblast-orf" id="dummy-2_q2_0_all"  />
<polygon points="295,35 299,30 299,40 295,35 " style="fill:white; stroke-width:1; stroke:black; " description="&lt;b&gt;input.path1.gene513&lt;/b&gt;&lt;br&gt;input.path1.gene513&lt;br&gt;Location: 1763230 - 1764005" locus_tag="input.path1.gene513" class="clusterblast-orf" id="dummy-2_q3_0_all"  />
<polygon points="308,40 312,35 308,30 308,40 " style="fill:white; stroke-width:1; stroke:black; " description="&lt;b&gt;input.path1.gene514&lt;/b&gt;&lt;br&gt;input.path1.gene514&lt;br&gt;Location: 1765978 - 1766725" locus_tag="input.path1.gene514" class="clusterblast-orf" id="dummy-2_q4_0_all"  />
<polygon points="320,35 325,30 325,30 325,40 325,40 320,35 " style="fill:white; stroke-width:1; stroke:black; " description="&lt;b&gt;input.path1.gene515&lt;/b&gt;&lt;br&gt;input.path1.gene515&lt;br&gt;Location: 1768481 - 1769442" locus_tag="input.path1.gene515" class="clusterblast-orf" id="dummy-2_q5_0_all"  />
<polygon points="332,40 351,40 356,35 351,30 332,30 332,40 " style="fill:#d81515; stroke-width:1; stroke:black; " description="&lt;b&gt;input.path1.gene516&lt;/b&gt;&lt;br&gt;input.path1.gene516&lt;br&gt;Location: 1770991 - 1776007" locus_tag="input.path1.gene516" class="clusterblast-orf" id="dummy-2_q6_0_all"  />
<polygon points="357,35 362,30 362,30 362,40 362,40 357,35 " style="fill:#77d815; stroke-width:1; stroke:black; " description="&lt;b&gt;input.path1.gene517&lt;/b&gt;&lt;br&gt;input.path1.gene517&lt;br&gt;Location: 1776130 - 1777259" locus_tag="input.path1.gene517" class="clusterblast-orf" id="dummy-2_q7_0_all"  />
<polygon points="364,40 367,40 372,35 367,30 364,30 364,40 " style="fill:#15d8d8; stroke-width:1; stroke:black; " description="&lt;b&gt;input.path1.gene518&lt;/b&gt;&lt;br&gt;input.path1.gene518&lt;br&gt;Location: 1777635 - 1779318" locus_tag="input.path1.gene518" class="clusterblast-orf" id="dummy-2_q8_0_all"  />
<polygon points="378,35 382,30 382,40 378,35 " style="fill:white; stroke-width:1; stroke:black; " description="&lt;b&gt;input.path1.gene519&lt;/b&gt;&lt;br&gt;input.path1.gene519&lt;br&gt;Location: 1780658 - 1781378" locus_tag="input.path1.gene519" class="clusterblast-orf" id="dummy-2_q9_0_all"  />
<polygon points="385,35 387,30 387,40 385,35 " style="fill:white; stroke-width:1; stroke:black; " description="&lt;b&gt;input.path1.gene520&lt;/b&gt;&lt;br&gt;input.path1.gene520&lt;br&gt;Location: 1782183 - 1782422" locus_tag="input.path1.gene520" class="clusterblast-orf" id="dummy-2_q10_0_all"  />
<polygon points="390,40 393,35 390,30 390,40 " style="fill:#7715d8; stroke-width:1; stroke:black; " description="&lt;b&gt;input.path1.gene521&lt;/b&gt;&lt;br&gt;input.path1.gene521&lt;br&gt;Location: 1783084 - 1783802" locus_tag="input.path1.gene521" class="clusterblast-orf" id="dummy-2_q11_0_all"  />
<polygon points="420,35 425,30 433,30 433,40 425,40 420,35 " style="fill:white; stroke-width:1; stroke:black; " description="&lt;b&gt;input.path1.gene522&lt;/b&gt;&lt;br&gt;input.path1.gene522&lt;br&gt;Location: 1789333 - 1792081" locus_tag="input.path1.gene522" class="clusterblast-orf" id="dummy-2_q12_0_all"  />
<polygon points="434,40 437,35 434,30 434,40 " style="fill:white; stroke-width:1; stroke:black; " description="&lt;b&gt;input.path1.gene523&lt;/b&gt;&lt;br&gt;input.path1.gene523&lt;br&gt;Location: 1792279 - 1793089" locus_tag="input.path1.gene523" class="clusterblast-orf" id="dummy-2_q13_0_all"  />
<polygon points="447,35 452,30 462,30 462,40 452,40 447,35 " style="fill:white; stroke-width:1; stroke:black; " description="&lt;b&gt;input.path1.gene524&lt;/b&gt;&lt;br&gt;input.path1.gene524&lt;br&gt;Location: 1795084 - 1798258" locus_tag="input.path1.gene524" class="clusterblast-orf" id="dummy-2_q14_0_all"  />
<polygon points="470,40 474,35 470,30 470,40 " style="fill:white; stroke-width:1; stroke:black; " description="&lt;b&gt;input.path1.gene525&lt;/b&gt;&lt;br&gt;input.path1.gene525&lt;br&gt;Location: 1799888 - 1800796" locus_tag="input.path1.gene525" class="clusterblast-orf" id="dummy-2_q15_0_all"  />
<polygon points="477,35 482,30 482,30 482,40 482,40 477,35 " style="fill:white; stroke-width:1; stroke:black; " description="&lt;b&gt;input.path1.gene526&lt;/b&gt;&lt;br&gt;input.path1.gene526&lt;br&gt;Location: 1801362 - 1802329" locus_tag="input.path1.gene526" class="clusterblast-orf" id="dummy-2_q16_0_all"  />
<polygon points="510,35 515,30 515,30 515,40 515,40 510,35 " style="fill:white; stroke-width:1; stroke:black; " description="&lt;b&gt;input.path1.gene527&lt;/b&gt;&lt;br&gt;input.path1.gene527&lt;br&gt;Location: 1808240 - 1809368" locus_tag="input.path1.gene527" class="clusterblast-orf" id="dummy-2_q17_0_all"  />
<polygon points="520,40 523,35 520,30 520,40 " style="fill:white; stroke-width:1; stroke:black; " description="&lt;b&gt;input.path1.gene528&lt;/b&gt;&lt;br&gt;input.path1.gene528&lt;br&gt;Location: 1810367 - 1810922" locus_tag="input.path1.gene528" class="clusterblast-orf" id="dummy-2_q18_0_all"  />
<polygon points="523,40 524,40 529,35 524,30 523,30 523,40 " style="fill:white; stroke-width:1; stroke:black; " description="&lt;b&gt;input.path1.gene529&lt;/b&gt;&lt;br&gt;input.path1.gene529&lt;br&gt;Location: 1811005 - 1812354" locus_tag="input.path1.gene529" class="clusterblast-orf" id="dummy-2_q19_0_all"  />
</g>
<g label="NC_054856" description="NC_054856 (3727884-3894446): Aspergillus luchuensis IFO 4308 DNA, chromosome ... (3% of genes show similarity), NI-siderophore,NRPS,fungal-RiPP-like" class="clusterblast-cluster"  >
<text x="5" y="70" class="clusterblast-acc"  >
<a xlink:href="https://antismash-db.secondarymetabolites.org/area?record=NC_054856&amp;start=3727884&amp;end=3894446" target="_blank">NC_054856 (3727884-3894446)</a>: Aspergillus luchuensis IFO 4308 DNA, chromosome ... (3% of genes show similarity), NI-siderophore,NRPS,fungal-RiPP-like</text>
<line x1="10" y1="85" x2="778.0" y2="85" style="stroke-width:1; stroke:grey; "  />
</g>
<g id="a2_000"  >
<polygon points="0,90 4,85 0,80 0,90 " style="fill:white; stroke-width:1; stroke:black; " description="&lt;b&gt;AKAW2_81343A&lt;/b&gt;&lt;br&gt;uncharacterized protein&lt;br&gt;Location: 3892215 - 3891280" locus_tag="AKAW2_81343A" class="clusterblast-orf" id="dummy-2_h2_10_0"  />
</g>
<g id="a2_001"  >
<polygon points="9,90 13,85 9,80 9,90 " style="fill:white; stroke-width:1; stroke:black; " description="&lt;b&gt;AKAW2_81342A&lt;/b&gt;&lt;br&gt;uncharacterized protein&lt;br&gt;Location: 3890301 - 3889304" locus_tag="AKAW2_81342A" class="clusterblast-orf" id="dummy-2_h2_10_1"  />
</g>
<g id="a2_002"  >
<polygon points="18,85 20,80 20,90 18,85 " style="fill:white; stroke-width:1; stroke:black; " description="&lt;b&gt;AKAW2_81341S&lt;/b&gt;&lt;br&gt;uncharacterized protein&lt;br&gt;Location: 3888348 - 3887870" locus_tag="AKAW2_81341S" class="clusterblast-orf" id="dummy-2_h2_10_2"  />
</g>
<g id="a2_003"  >
<polygon points="24,85 26,80 26,90 24,85 " style="fill:white; stroke-width:1; stroke:black; " description="&lt;b&gt;AKAW2_81340S&lt;/b&gt;&lt;br&gt;uncharacterized protein&lt;br&gt;Location: 3887008 - 3886694" locus_tag="AKAW2_81340S" class="clusterblast-orf" id="dummy-2_h2_10_3"  />
</g>
<g id="a2_004"  >
<polygon points="31,90 34,90 39,85 34,80 31,80 31,90 " style="fill:white; stroke-width:1; stroke:black; " description="&lt;b&gt;AKAW2_81339A&lt;/b&gt;&lt;br&gt;uncharacterized protein&lt;br&gt;Location: 3885579 - 3884040" locus_tag="AKAW2_81339A" class="clusterblast-orf" id="dummy-2_h2_10_4"  />
</g>
<g id="a2_005"  >
<polygon points="40,85 45,80 47,80 47,90 45,90 40,85 " style="fill:white; stroke-width:1; stroke:black; " description="&lt;b&gt;AKAW2_81338S&lt;/b&gt;&lt;br&gt;uncharacterized protein&lt;br&gt;Location: 3883707 - 3882245" locus_tag="AKAW2_81338S" class="clusterblast-orf" id="dummy-2_h2_10_5"  />
</g>
<g id="a2_006"  >
<polygon points="54,85 59,80 61,80 61,90 59,90 54,85 " style="fill:white; stroke-width:1; stroke:black; " description="&lt;b&gt;AKAW2_81337S&lt;/b&gt;&lt;br&gt;uncharacterized protein&lt;br&gt;Location: 3880894 - 3879321" locus_tag="AKAW2_81337S" class="clusterblast-orf" id="dummy-2_h2_10_6"  />
</g>
<g id="a2_007"  >
<polygon points="63,85 68,80 72,80 72,90 68,90 63,85 " style="fill:white; stroke-width:1; stroke:black; " description="&lt;b&gt;AKAW2_81336S&lt;/b&gt;&lt;br&gt;uncharacterized protein&lt;br&gt;Location: 3878925 - 3876967" locus_tag="AKAW2_81336S" class="clusterblast-orf" id="dummy-2_h2_10_7"  />
</g>
<g id="a2_008"  >
<polygon points="77,85 82,80 84,80 84,90 82,90 77,85 " style="fill:white; stroke-width:1; stroke:black; " description="&lt;b&gt;AKAW2_81335S&lt;/b&gt;&lt;br&gt;uncharacterized protein&lt;br&gt;Location: 3875981 - 3874486" locus_tag="AKAW2_81335S" class="clusterblast-orf" id="dummy-2_h2_10_8"  />
</g>
<g id="a2_009"  >
<polygon points="88,90 91,90 96,85 91,80 88,80 88,90 " style="fill:white; stroke-width:1; stroke:black; " description="&lt;b&gt;AKAW2_81334A&lt;/b&gt;&lt;br&gt;uncharacterized protein&lt;br&gt;Location: 3873703 - 3871935" locus_tag="AKAW2_81334A" class="clusterblast-orf" id="dummy-2_h2_10_9"  />
</g>
<g id="a2_0010"  >
<polygon points="99,90 101,90 106,85 101,80 99,80 99,90 " style="fill:white; stroke-width:1; stroke:black; " description="&lt;b&gt;AKAW2_81333A&lt;/b&gt;&lt;br&gt;uncharacterized protein&lt;br&gt;Location: 3871448 - 3869805" locus_tag="AKAW2_81333A" class="clusterblast-orf" id="dummy-2_h2_10_10"  />
</g>
<g id="a2_0011"  >
<polygon points="109,90 111,85 109,80 109,90 " style="fill:white; stroke-width:1; stroke:black; " description="&lt;b&gt;AKAW2_81332A&lt;/b&gt;&lt;br&gt;uncharacterized protein&lt;br&gt;Location: 3869178 - 3868780" locus_tag="AKAW2_81332A" class="clusterblast-orf" id="dummy-2_h2_10_11"  />
</g>
<g id="a2_0012"  >
<polygon points="114,90 114,90 119,85 114,80 114,80 114,90 " style="fill:white; stroke-width:1; stroke:black; " description="&lt;b&gt;AKAW2_81331A&lt;/b&gt;&lt;br&gt;uncharacterized protein&lt;br&gt;Location: 3868178 - 3867126" locus_tag="AKAW2_81331A" class="clusterblast-orf" id="dummy-2_h2_10_12"  />
</g>
<g id="a2_0013"  >
<polygon points="120,85 125,80 129,80 129,90 125,90 120,85 " style="fill:white; stroke-width:1; stroke:black; " description="&lt;b&gt;AKAW2_81330S&lt;/b&gt;&lt;br&gt;uncharacterized protein&lt;br&gt;Location: 3866945 - 3865048" locus_tag="AKAW2_81330S" class="clusterblast-orf" id="dummy-2_h2_10_13"  />
</g>
<g id="a2_0014"  >
<polygon points="136,85 141,80 145,80 145,90 141,90 136,85 " style="fill:white; stroke-width:1; stroke:black; " description="&lt;b&gt;AKAW2_81329S&lt;/b&gt;&lt;br&gt;uncharacterized protein&lt;br&gt;Location: 3863670 - 3861819" locus_tag="AKAW2_81329S" class="clusterblast-orf" id="dummy-2_h2_10_14"  />
</g>
<g id="a2_0015"  >
<polygon points="145,85 147,80 147,90 145,85 " style="fill:white; stroke-width:1; stroke:black; " description="&lt;b&gt;AKAW2_81328S&lt;/b&gt;&lt;br&gt;uncharacterized protein&lt;br&gt;Location: 3861697 - 3861358" locus_tag="AKAW2_81328S" class="clusterblast-orf" id="dummy-2_h2_10_15"  />
</g>
<g id="a2_0016"  >
<polygon points="149,90 153,85 149,80 149,90 " style="fill:white; stroke-width:1; stroke:black; " description="&lt;b&gt;AKAW2_81327A&lt;/b&gt;&lt;br&gt;uncharacterized protein&lt;br&gt;Location: 3860886 - 3859943" locus_tag="AKAW2_81327A" class="clusterblast-orf" id="dummy-2_h2_10_16"  />
</g>
<g id="a2_0017"  >
<polygon points="160,85 165,80 167,80 167,90 165,90 160,85 " style="fill:white; stroke-width:1; stroke:black; " description="&lt;b&gt;AKAW2_81326S&lt;/b&gt;&lt;br&gt;uncharacterized protein&lt;br&gt;Location: 3858498 - 3857182" locus_tag="AKAW2_81326S" class="clusterblast-orf" id="dummy-2_h2_10_17"  />
</g>
<g id="a2_0018"  >
<polygon points="169,85 174,80 176,80 176,90 174,90 169,85 " style="fill:white; stroke-width:1; stroke:black; " description="&lt;b&gt;AKAW2_81325S&lt;/b&gt;&lt;br&gt;uncharacterized protein&lt;br&gt;Location: 3856624 - 3855191" locus_tag="AKAW2_81325S" class="clusterblast-orf" id="dummy-2_h2_10_18"  />
</g>
<g id="a2_0019"  >
<polygon points="177,90 180,90 185,85 180,80 177,80 177,90 " style="fill:white; stroke-width:1; stroke:black; " description="&lt;b&gt;AKAW2_81324A&lt;/b&gt;&lt;br&gt;uncharacterized protein&lt;br&gt;Location: 3854918 - 3853371" locus_tag="AKAW2_81324A" class="clusterblast-orf" id="dummy-2_h2_10_19"  />
</g>
<g id="a2_0020"  >
<polygon points="189,90 191,85 189,80 189,90 " style="fill:white; stroke-width:1; stroke:black; " description="&lt;b&gt;AKAW2_81323A&lt;/b&gt;&lt;br&gt;uncharacterized protein&lt;br&gt;Location: 3852404 - 3852156" locus_tag="AKAW2_81323A" class="clusterblast-orf" id="dummy-2_h2_10_20"  />
</g>
<g id="a2_0021"  >
<polygon points="191,90 191,90 196,85 191,80 191,80 191,90 " style="fill:white; stroke-width:1; stroke:black; " description="&lt;b&gt;AKAW2_81322A&lt;/b&gt;&lt;br&gt;uncharacterized protein&lt;br&gt;Location: 3852015 - 3850939" locus_tag="AKAW2_81322A" class="clusterblast-orf" id="dummy-2_h2_10_21"  />
</g>
<g id="a2_0022"  >
<polygon points="199,85 201,80 201,90 199,85 " style="fill:white; stroke-width:1; stroke:black; " description="&lt;b&gt;AKAW2_81321S&lt;/b&gt;&lt;br&gt;uncharacterized protein&lt;br&gt;Location: 3850365 - 3849926" locus_tag="AKAW2_81321S" class="clusterblast-orf" id="dummy-2_h2_10_22"  />
</g>
<g id="a2_0023"  >
<polygon points="204,90 208,85 204,80 204,90 " style="fill:#7715d8; stroke-width:1; stroke:black; " description="&lt;b&gt;AKAW2_81320A&lt;/b&gt;&lt;br&gt;uncharacterized protein&lt;br&gt;Location: 3849446 - 3848433&lt;br&gt;&lt;br&gt;&lt;b&gt;BlastP hit with input.path1.gene521&lt;/b&gt;&lt;br&gt;Percentage identity: 49&lt;br&gt;Percentage coverage: 98&lt;br&gt;BLAST bit score: 209&lt;br&gt;E-value: 1.92e-65" locus_tag="AKAW2_81320A" class="clusterblast-orf" id="dummy-2_h2_10_23"  />
</g>
<g id="a2_0024"  >
<polygon points="211,90 215,85 211,80 211,90 " style="fill:white; stroke-width:1; stroke:black; " description="&lt;b&gt;AKAW2_81319A&lt;/b&gt;&lt;br&gt;uncharacterized protein&lt;br&gt;Location: 3847912 - 3847106" locus_tag="AKAW2_81319A" class="clusterblast-orf" id="dummy-2_h2_10_24"  />
</g>
<g id="a2_0025"  >
<polygon points="224,90 236,90 241,85 236,80 224,80 224,90 " style="fill:#d81515; stroke-width:1; stroke:black; " description="&lt;b&gt;AKAW2_81318A&lt;/b&gt;&lt;br&gt;uncharacterized protein&lt;br&gt;Location: 3845081 - 3841671&lt;br&gt;&lt;br&gt;&lt;b&gt;BlastP hit with input.path1.gene516&lt;/b&gt;&lt;br&gt;Percentage identity: 34&lt;br&gt;Percentage coverage: 66&lt;br&gt;BLAST bit score: 392&lt;br&gt;E-value: 6.04e-116" locus_tag="AKAW2_81318A" class="clusterblast-orf" id="dummy-2_h2_10_25"  />
</g>
<g id="a2_0026"  >
<polygon points="247,85 252,80 259,80 259,90 252,90 247,85 " style="fill:white; stroke-width:1; stroke:black; " description="&lt;b&gt;AKAW2_81317S&lt;/b&gt;&lt;br&gt;uncharacterized protein&lt;br&gt;Location: 3840256 - 3837846" locus_tag="AKAW2_81317S" class="clusterblast-orf" id="dummy-2_h2_10_26"  />
</g>
<g id="a2_0027"  >
<polygon points="267,90 284,90 289,85 284,80 267,80 267,90 " style="fill:white; stroke-width:1; stroke:black; " description="&lt;b&gt;AKAW2_81316A&lt;/b&gt;&lt;br&gt;uncharacterized protein&lt;br&gt;Location: 3836124 - 3831578" locus_tag="AKAW2_81316A" class="clusterblast-orf" id="dummy-2_h2_10_27"  />
</g>
<g id="a2_0028"  >
<polygon points="310,90 310,90 315,85 310,80 310,80 310,90 " style="fill:white; stroke-width:1; stroke:black; " description="&lt;b&gt;AKAW2_81315A&lt;/b&gt;&lt;br&gt;uncharacterized protein&lt;br&gt;Location: 3827206 - 3826016" locus_tag="AKAW2_81315A" class="clusterblast-orf" id="dummy-2_h2_10_28"  />
</g>
<g id="a2_0029"  >
<polygon points="319,90 320,90 325,85 320,80 319,80 319,90 " style="fill:white; stroke-width:1; stroke:black; " description="&lt;b&gt;AKAW2_81314A&lt;/b&gt;&lt;br&gt;uncharacterized protein&lt;br&gt;Location: 3825237 - 3823986" locus_tag="AKAW2_81314A" class="clusterblast-orf" id="dummy-2_h2_10_29"  />
</g>
<g id="a2_0030"  >
<polygon points="326,90 334,90 339,85 334,80 326,80 326,90 " style="fill:white; stroke-width:1; stroke:black; " description="&lt;b&gt;AKAW2_81313A&lt;/b&gt;&lt;br&gt;uncharacterized protein&lt;br&gt;Location: 3823784 - 3821028" locus_tag="AKAW2_81313A" class="clusterblast-orf" id="dummy-2_h2_10_30"  />
</g>
<g id="a2_0031"  >
<polygon points="342,85 347,80 354,80 354,90 347,90 342,85 " style="fill:white; stroke-width:1; stroke:black; " description="&lt;b&gt;AKAW2_81312S&lt;/b&gt;&lt;br&gt;uncharacterized protein&lt;br&gt;Location: 3820521 - 3817826" locus_tag="AKAW2_81312S" class="clusterblast-orf" id="dummy-2_h2_10_31"  />
</g>
<g id="a2_0032"  >
<polygon points="359,90 361,85 359,80 359,90 " style="fill:white; stroke-width:1; stroke:black; " description="&lt;b&gt;AKAW2_81311A&lt;/b&gt;&lt;br&gt;uncharacterized protein&lt;br&gt;Location: 3816824 - 3816422" locus_tag="AKAW2_81311A" class="clusterblast-orf" id="dummy-2_h2_10_32"  />
</g>
<g id="a2_0033"  >
<polygon points="370,85 372,80 372,90 370,85 " style="fill:white; stroke-width:1; stroke:black; " description="&lt;b&gt;AKAW2_81310S&lt;/b&gt;&lt;br&gt;uncharacterized protein&lt;br&gt;Location: 3814597 - 3814161" locus_tag="AKAW2_81310S" class="clusterblast-orf" id="dummy-2_h2_10_33"  />
</g>
<g id="a2_0034"  >
<polygon points="379,90 381,85 379,80 379,90 " style="fill:white; stroke-width:1; stroke:black; " description="&lt;b&gt;AKAW2_81309A&lt;/b&gt;&lt;br&gt;uncharacterized protein&lt;br&gt;Location: 3812719 - 3812231" locus_tag="AKAW2_81309A" class="clusterblast-orf" id="dummy-2_h2_10_34"  />
</g>
<g id="a2_0035"  >
<polygon points="389,90 392,85 389,80 389,90 " style="fill:white; stroke-width:1; stroke:black; " description="&lt;b&gt;AKAW2_81308A&lt;/b&gt;&lt;br&gt;uncharacterized protein&lt;br&gt;Location: 3810657 - 3810037" locus_tag="AKAW2_81308A" class="clusterblast-orf" id="dummy-2_h2_10_35"  />
</g>
<g id="a2_0036"  >
<polygon points="397,90 400,90 405,85 400,80 397,80 397,90 " style="fill:white; stroke-width:1; stroke:black; " description="&lt;b&gt;AKAW2_81307A&lt;/b&gt;&lt;br&gt;uncharacterized protein&lt;br&gt;Location: 3808966 - 3807266" locus_tag="AKAW2_81307A" class="clusterblast-orf" id="dummy-2_h2_10_36"  />
</g>
<g id="a2_0037"  >
<polygon points="407,90 409,85 407,80 407,90 " style="fill:white; stroke-width:1; stroke:black; " description="&lt;b&gt;AKAW2_81306A&lt;/b&gt;&lt;br&gt;uncharacterized protein&lt;br&gt;Location: 3806867 - 3806476" locus_tag="AKAW2_81306A" class="clusterblast-orf" id="dummy-2_h2_10_37"  />
</g>
<g id="a2_0038"  >
<polygon points="410,85 415,80 417,80 417,90 415,90 410,85 " style="fill:white; stroke-width:1; stroke:black; " description="&lt;b&gt;AKAW2_81305S&lt;/b&gt;&lt;br&gt;uncharacterized protein&lt;br&gt;Location: 3806113 - 3804755" locus_tag="AKAW2_81305S" class="clusterblast-orf" id="dummy-2_h2_10_38"  />
</g>
<g id="a2_0039"  >
<polygon points="419,85 424,80 425,80 425,90 424,90 419,85 " style="fill:white; stroke-width:1; stroke:black; " description="&lt;b&gt;AKAW2_81304S&lt;/b&gt;&lt;br&gt;uncharacterized protein&lt;br&gt;Location: 3804364 - 3803128" locus_tag="AKAW2_81304S" class="clusterblast-orf" id="dummy-2_h2_10_39"  />
</g>
<g id="a2_0040"  >
<polygon points="430,90 431,90 436,85 431,80 430,80 430,90 " style="fill:white; stroke-width:1; stroke:black; " description="&lt;b&gt;AKAW2_81303A&lt;/b&gt;&lt;br&gt;uncharacterized protein&lt;br&gt;Location: 3801884 - 3800772" locus_tag="AKAW2_81303A" class="clusterblast-orf" id="dummy-2_h2_10_40"  />
</g>
<g id="a2_0041"  >
<polygon points="441,90 444,90 449,85 444,80 441,80 441,90 " style="fill:white; stroke-width:1; stroke:black; " description="&lt;b&gt;AKAW2_81302A&lt;/b&gt;&lt;br&gt;uncharacterized protein&lt;br&gt;Location: 3799717 - 3797921" locus_tag="AKAW2_81302A" class="clusterblast-orf" id="dummy-2_h2_10_41"  />
</g>
<g id="a2_0042"  >
<polygon points="454,85 457,80 457,90 454,85 " style="fill:white; stroke-width:1; stroke:black; " description="&lt;b&gt;AKAW2_81301S&lt;/b&gt;&lt;br&gt;uncharacterized protein&lt;br&gt;Location: 3796962 - 3796366" locus_tag="AKAW2_81301S" class="clusterblast-orf" id="dummy-2_h2_10_42"  />
</g>
<g id="a2_0043"  >
<polygon points="461,90 466,90 471,85 466,80 461,80 461,90 " style="fill:white; stroke-width:1; stroke:black; " description="&lt;b&gt;AKAW2_81300A&lt;/b&gt;&lt;br&gt;uncharacterized protein&lt;br&gt;Location: 3795403 - 3793378" locus_tag="AKAW2_81300A" class="clusterblast-orf" id="dummy-2_h2_10_43"  />
</g>
<g id="a2_0044"  >
<polygon points="475,85 478,80 478,90 475,85 " style="fill:white; stroke-width:1; stroke:black; " description="&lt;b&gt;AKAW2_81299S&lt;/b&gt;&lt;br&gt;uncharacterized protein&lt;br&gt;Location: 3792452 - 3791964" locus_tag="AKAW2_81299S" class="clusterblast-orf" id="dummy-2_h2_10_44"  />
</g>
<g id="a2_0045"  >
<polygon points="482,90 485,85 482,80 482,90 " style="fill:white; stroke-width:1; stroke:black; " description="&lt;b&gt;AKAW2_81298A&lt;/b&gt;&lt;br&gt;putative secondary metabolism biosynthetic enzyme&lt;br&gt;Location: 3791163 - 3790354" locus_tag="AKAW2_81298A" class="clusterblast-orf" id="dummy-2_h2_10_45"  />
</g>
<g id="a2_0046"  >
<polygon points="488,90 490,85 488,80 488,90 " style="fill:white; stroke-width:1; stroke:black; " description="&lt;b&gt;AKAW2_81297A&lt;/b&gt;&lt;br&gt;uncharacterized protein&lt;br&gt;Location: 3789920 - 3789450" locus_tag="AKAW2_81297A" class="clusterblast-orf" id="dummy-2_h2_10_46"  />
</g>
<g id="a2_0047"  >
<polygon points="493,90 499,90 504,85 499,80 493,80 493,90 " style="fill:white; stroke-width:1; stroke:black; " description="&lt;b&gt;AKAW2_81296A&lt;/b&gt;&lt;br&gt;uncharacterized protein&lt;br&gt;Location: 3788833 - 3786555" locus_tag="AKAW2_81296A" class="clusterblast-orf" id="dummy-2_h2_10_47"  />
</g>
<g id="a2_0048"  >
<polygon points="505,90 505,90 510,85 505,80 505,80 505,90 " style="fill:white; stroke-width:1; stroke:black; " description="&lt;b&gt;AKAW2_81295A&lt;/b&gt;&lt;br&gt;uncharacterized protein&lt;br&gt;Location: 3786208 - 3785141" locus_tag="AKAW2_81295A" class="clusterblast-orf" id="dummy-2_h2_10_48"  />
</g>
<g id="a2_0049"  >
<polygon points="512,85 517,80 522,80 522,90 517,90 512,85 " style="fill:white; stroke-width:1; stroke:black; " description="&lt;b&gt;AKAW2_81294S&lt;/b&gt;&lt;br&gt;uncharacterized protein&lt;br&gt;Location: 3784756 - 3782609" locus_tag="AKAW2_81294S" class="clusterblast-orf" id="dummy-2_h2_10_49"  />
</g>
<g id="a2_0050"  >
<polygon points="529,85 534,80 539,80 539,90 534,90 529,85 " style="fill:white; stroke-width:1; stroke:black; " description="&lt;b&gt;AKAW2_81293S&lt;/b&gt;&lt;br&gt;lysophospholipase 1&lt;br&gt;Location: 3781251 - 3779124" locus_tag="AKAW2_81293S" class="clusterblast-orf" id="dummy-2_h2_10_50"  />
</g>
<g id="a2_0051"  >
<polygon points="545,85 548,80 548,90 545,85 " style="fill:white; stroke-width:1; stroke:black; " description="&lt;b&gt;AKAW2_81292S&lt;/b&gt;&lt;br&gt;uncharacterized protein&lt;br&gt;Location: 3777866 - 3777256" locus_tag="AKAW2_81292S" class="clusterblast-orf" id="dummy-2_h2_10_51"  />
</g>
<g id="a2_0052"  >
<polygon points="550,90 553,90 558,85 553,80 550,80 550,90 " style="fill:white; stroke-width:1; stroke:black; " description="&lt;b&gt;AKAW2_81291A&lt;/b&gt;&lt;br&gt;uncharacterized protein&lt;br&gt;Location: 3776745 - 3775121" locus_tag="AKAW2_81291A" class="clusterblast-orf" id="dummy-2_h2_10_52"  />
</g>
<g id="a2_0053"  >
<polygon points="562,85 567,80 640,80 640,90 567,90 562,85 " style="fill:white; stroke-width:1; stroke:black; " description="&lt;b&gt;AKAW2_81290S&lt;/b&gt;&lt;br&gt;non-ribosomal peptide synthetase&lt;br&gt;Location: 3774414 - 3757885" locus_tag="AKAW2_81290S" class="clusterblast-orf" id="dummy-2_h2_10_53"  />
</g>
<g id="a2_0054"  >
<polygon points="643,90 643,90 648,85 643,80 643,80 643,90 " style="fill:white; stroke-width:1; stroke:black; " description="&lt;b&gt;AKAW2_81289A&lt;/b&gt;&lt;br&gt;uncharacterized protein&lt;br&gt;Location: 3757242 - 3756224" locus_tag="AKAW2_81289A" class="clusterblast-orf" id="dummy-2_h2_10_54"  />
</g>
<g id="a2_0055"  >
<polygon points="657,85 662,80 662,80 662,90 662,90 657,85 " style="fill:white; stroke-width:1; stroke:black; " description="&lt;b&gt;AKAW2_81288S&lt;/b&gt;&lt;br&gt;uncharacterized protein&lt;br&gt;Location: 3754410 - 3753392" locus_tag="AKAW2_81288S" class="clusterblast-orf" id="dummy-2_h2_10_55"  />
</g>
<g id="a2_0056"  >
<polygon points="668,85 672,80 672,90 668,85 " style="fill:white; stroke-width:1; stroke:black; " description="&lt;b&gt;AKAW2_81287S&lt;/b&gt;&lt;br&gt;uncharacterized protein&lt;br&gt;Location: 3752039 - 3751167" locus_tag="AKAW2_81287S" class="clusterblast-orf" id="dummy-2_h2_10_56"  />
</g>
<g id="a2_0057"  >
<polygon points="675,85 680,80 681,80 681,90 680,90 675,85 " style="fill:white; stroke-width:1; stroke:black; " description="&lt;b&gt;AKAW2_81286S&lt;/b&gt;&lt;br&gt;putative secondary metabolism biosynthetic enzyme&lt;br&gt;Location: 3750588 - 3749334" locus_tag="AKAW2_81286S" class="clusterblast-orf" id="dummy-2_h2_10_57"  />
</g>
<g id="a2_0058"  >
<polygon points="685,90 704,90 709,85 704,80 685,80 685,90 " style="fill:white; stroke-width:1; stroke:black; " description="&lt;b&gt;AKAW2_81285A&lt;/b&gt;&lt;br&gt;uncharacterized protein&lt;br&gt;Location: 3748462 - 3743489" locus_tag="AKAW2_81285A" class="clusterblast-orf" id="dummy-2_h2_10_58"  />
</g>
<g id="a2_0059"  >
<polygon points="715,85 720,80 723,80 723,90 720,90 715,85 " style="fill:white; stroke-width:1; stroke:black; " description="&lt;b&gt;AKAW2_81284S&lt;/b&gt;&lt;br&gt;uncharacterized protein&lt;br&gt;Location: 3742186 - 3740523" locus_tag="AKAW2_81284S" class="clusterblast-orf" id="dummy-2_h2_10_59"  />
</g>
<g id="a2_0060"  >
<polygon points="729,85 734,80 738,80 738,90 734,90 729,85 " style="fill:white; stroke-width:1; stroke:black; " description="&lt;b&gt;AKAW2_81283S&lt;/b&gt;&lt;br&gt;uncharacterized protein&lt;br&gt;Location: 3739321 - 3737511" locus_tag="AKAW2_81283S" class="clusterblast-orf" id="dummy-2_h2_10_60"  />
</g>
<g id="a2_0061"  >
<polygon points="739,85 744,80 750,80 750,90 744,90 739,85 " style="fill:white; stroke-width:1; stroke:black; " description="&lt;b&gt;AKAW2_81282S&lt;/b&gt;&lt;br&gt;uncharacterized protein&lt;br&gt;Location: 3737286 - 3734867" locus_tag="AKAW2_81282S" class="clusterblast-orf" id="dummy-2_h2_10_61"  />
</g>
<g id="a2_0062"  >
<polygon points="752,90 756,85 752,80 752,90 " style="fill:white; stroke-width:1; stroke:black; " description="&lt;b&gt;AKAW2_81281A&lt;/b&gt;&lt;br&gt;uncharacterized protein&lt;br&gt;Location: 3734475 - 3733750" locus_tag="AKAW2_81281A" class="clusterblast-orf" id="dummy-2_h2_10_62"  />
</g>
<g id="a2_0063"  >
<polygon points="759,90 759,90 764,85 759,80 759,80 759,90 " style="fill:white; stroke-width:1; stroke:black; " description="&lt;b&gt;AKAW2_81280A&lt;/b&gt;&lt;br&gt;uncharacterized protein&lt;br&gt;Location: 3733021 - 3732021" locus_tag="AKAW2_81280A" class="clusterblast-orf" id="dummy-2_h2_10_63"  />
</g>
<g id="a2_0064"  >
<polygon points="764,85 767,80 767,90 764,85 " style="fill:white; stroke-width:1; stroke:black; " description="&lt;b&gt;AKAW2_81279S&lt;/b&gt;&lt;br&gt;uncharacterized protein&lt;br&gt;Location: 3731885 - 3731319" locus_tag="AKAW2_81279S" class="clusterblast-orf" id="dummy-2_h2_10_64"  />
</g>
<g id="a2_0065"  >
<polygon points="771,90 775,90 780,85 775,80 771,80 771,90 " style="fill:white; stroke-width:1; stroke:black; " description="&lt;b&gt;AKAW2_81278A&lt;/b&gt;&lt;br&gt;uncharacterized protein&lt;br&gt;Location: 3730428 - 3728731" locus_tag="AKAW2_81278A" class="clusterblast-orf" id="dummy-2_h2_10_65"  />
</g>
</svg>
