<svg xmlns="http://www.w3.org/2000/svg" xmlns:xlink="http://www.w3.org/1999/xlink" version="1.1" x="0" y="0" height="230" width="800" viewBox="0 0 800 230" preserveAspectRatio="none"  >
<g label="Query sequence" class="clusterblast-cluster"  >
<text x="5" y="20" class="clusterblast-acc"  >
Query sequence</text>
<line x1="10" y1="35" x2="778.0" y2="35" style="stroke-width:1; stroke:grey; "  />
<polygon points="305,40 305,40 310,35 305,30 305,30 305,40 " style="fill:white; stroke-width:1; stroke:black; " description="&lt;b&gt;input.path1.gene161&lt;/b&gt;&lt;br&gt;input.path1.gene161&lt;br&gt;Location: 620541 - 621558" locus_tag="input.path1.gene161" class="clusterblast-orf" id="dummy-3_q0_0_all"  />
<polygon points="313,40 315,40 320,35 315,30 313,30 313,40 " style="fill:#d81515; stroke-width:1; stroke:black; " description="&lt;b&gt;input.path1.gene162&lt;/b&gt;&lt;br&gt;input.path1.gene162&lt;br&gt;Location: 622331 - 624041" locus_tag="input.path1.gene162" class="clusterblast-orf" id="dummy-3_q1_0_all"  />
<polygon points="334,35 336,30 336,40 334,35 " style="fill:white; stroke-width:1; stroke:black; " description="&lt;b&gt;input.path1.gene163&lt;/b&gt;&lt;br&gt;input.path1.gene163&lt;br&gt;Location: 627409 - 628009" locus_tag="input.path1.gene163" class="clusterblast-orf" id="dummy-3_q2_0_all"  />
<polygon points="345,35 350,30 350,30 350,40 350,40 345,35 " style="fill:white; stroke-width:1; stroke:black; " description="&lt;b&gt;input.path1.gene164&lt;/b&gt;&lt;br&gt;input.path1.gene164&lt;br&gt;Location: 630137 - 631301" locus_tag="input.path1.gene164" class="clusterblast-orf" id="dummy-3_q3_0_all"  />
<polygon points="352,35 356,30 356,40 352,35 " style="fill:#15d863; stroke-width:1; stroke:black; " description="&lt;b&gt;input.path1.gene165&lt;/b&gt;&lt;br&gt;input.path1.gene165&lt;br&gt;Location: 631830 - 632897" locus_tag="input.path1.gene165" class="clusterblast-orf" id="dummy-3_q4_0_all"  />
<polygon points="363,40 367,35 363,30 363,40 " style="fill:white; stroke-width:1; stroke:black; " description="&lt;b&gt;input.path1.gene166&lt;/b&gt;&lt;br&gt;input.path1.gene166&lt;br&gt;Location: 634543 - 635344" locus_tag="input.path1.gene166" class="clusterblast-orf" id="dummy-3_q5_0_all"  />
<polygon points="372,35 377,30 399,30 399,40 377,40 372,35 " style="fill:#1563d8; stroke-width:1; stroke:black; " description="&lt;b&gt;input.path1.gene167&lt;/b&gt;&lt;br&gt;input.path1.gene167&lt;br&gt;Location: 636774 - 643144" locus_tag="input.path1.gene167" class="clusterblast-orf" id="dummy-3_q6_0_all"  />
<polygon points="407,40 409,40 414,35 409,30 407,30 407,40 " style="fill:white; stroke-width:1; stroke:black; " description="&lt;b&gt;input.path1.gene168&lt;/b&gt;&lt;br&gt;input.path1.gene168&lt;br&gt;Location: 645152 - 646946" locus_tag="input.path1.gene168" class="clusterblast-orf" id="dummy-3_q7_0_all"  />
<polygon points="422,40 423,40 428,35 423,30 422,30 422,40 " style="fill:#b115d8; stroke-width:1; stroke:black; " description="&lt;b&gt;input.path1.gene169&lt;/b&gt;&lt;br&gt;input.path1.gene169&lt;br&gt;Location: 648846 - 650269" locus_tag="input.path1.gene169" class="clusterblast-orf" id="dummy-3_q8_0_all"  />
<polygon points="430,40 433,35 430,30 430,40 " style="fill:white; stroke-width:1; stroke:black; " description="&lt;b&gt;input.path1.gene170&lt;/b&gt;&lt;br&gt;input.path1.gene170&lt;br&gt;Location: 650663 - 651332" locus_tag="input.path1.gene170" class="clusterblast-orf" id="dummy-3_q9_0_all"  />
<polygon points="433,35 435,30 435,40 433,35 " style="fill:white; stroke-width:1; stroke:black; " description="&lt;b&gt;input.path1.gene171&lt;/b&gt;&lt;br&gt;input.path1.gene171&lt;br&gt;Location: 651431 - 651824" locus_tag="input.path1.gene171" class="clusterblast-orf" id="dummy-3_q10_0_all"  />
<polygon points="435,35 439,30 439,40 435,35 " style="fill:white; stroke-width:1; stroke:black; " description="&lt;b&gt;input.path1.gene172&lt;/b&gt;&lt;br&gt;input.path1.gene172&lt;br&gt;Location: 651930 - 652889" locus_tag="input.path1.gene172" class="clusterblast-orf" id="dummy-3_q11_0_all"  />
<polygon points="445,40 446,40 451,35 446,30 445,30 445,40 " style="fill:white; stroke-width:1; stroke:black; " description="&lt;b&gt;input.path1.gene173&lt;/b&gt;&lt;br&gt;input.path1.gene173&lt;br&gt;Location: 654282 - 655657" locus_tag="input.path1.gene173" class="clusterblast-orf" id="dummy-3_q12_0_all"  />
<polygon points="452,35 457,30 462,30 462,40 457,40 452,35 " style="fill:#b1d815; stroke-width:1; stroke:black; " description="&lt;b&gt;input.path1.gene174&lt;/b&gt;&lt;br&gt;input.path1.gene174&lt;br&gt;Location: 656015 - 658374" locus_tag="input.path1.gene174" class="clusterblast-orf" id="dummy-3_q13_0_all"  />
<polygon points="462,40 469,40 474,35 469,30 462,30 462,40 " style="fill:white; stroke-width:1; stroke:black; " description="&lt;b&gt;input.path1.gene175&lt;/b&gt;&lt;br&gt;input.path1.gene175&lt;br&gt;Location: 658548 - 661277" locus_tag="input.path1.gene175" class="clusterblast-orf" id="dummy-3_q14_0_all"  />
</g>
<g label="NW_023336287" description="NW_023336287 (400215-591232): Aspergillus tubingensis WU-2223L DNA, scaffold ... (2% of genes show similarity), NRPS-like,T1PKS,fungal-RiPP-like" class="clusterblast-cluster"  >
<text x="5" y="70" class="clusterblast-acc"  >
<a xlink:href="https://antismash-db.secondarymetabolites.org/area?record=NW_023336287&amp;start=400215&amp;end=591232" target="_blank">NW_023336287 (400215-591232)</a>: Aspergillus tubingensis WU-2223L DNA, scaffold ... (2% of genes show similarity), NRPS-like,T1PKS,fungal-RiPP-like</text>
<line x1="10" y1="85" x2="778.0" y2="85" style="stroke-width:1; stroke:grey; "  />
</g>
<g id="a3_000"  >
<polygon points="0,85 5,80 5,80 5,90 5,90 0,85 " style="fill:white; stroke-width:1; stroke:black; " description="&lt;b&gt;AtWU_10430&lt;/b&gt;&lt;br&gt;uncharacterized protein&lt;br&gt;Location: 402082 - 403443" locus_tag="AtWU_10430" class="clusterblast-orf" id="dummy-3_h3_6_0"  />
</g>
<g id="a3_001"  >
<polygon points="12,90 13,90 18,85 13,80 12,80 12,90 " style="fill:white; stroke-width:1; stroke:black; " description="&lt;b&gt;AtWU_10431&lt;/b&gt;&lt;br&gt;O-methyltransferase&lt;br&gt;Location: 405001 - 406507" locus_tag="AtWU_10431" class="clusterblast-orf" id="dummy-3_h3_6_1"  />
</g>
<g id="a3_002"  >
<polygon points="20,90 22,90 27,85 22,80 20,80 20,90 " style="fill:white; stroke-width:1; stroke:black; " description="&lt;b&gt;AtWU_10432&lt;/b&gt;&lt;br&gt;tetratricopeptide repeat domain protein&lt;br&gt;Location: 407015 - 408785" locus_tag="AtWU_10432" class="clusterblast-orf" id="dummy-3_h3_6_2"  />
</g>
<g id="a3_003"  >
<polygon points="28,85 33,80 33,80 33,90 33,90 28,85 " style="fill:white; stroke-width:1; stroke:black; " description="&lt;b&gt;AtWU_10433&lt;/b&gt;&lt;br&gt;MIP transporter&lt;br&gt;Location: 408975 - 410123" locus_tag="AtWU_10433" class="clusterblast-orf" id="dummy-3_h3_6_3"  />
</g>
<g id="a3_004"  >
<polygon points="39,85 42,80 42,90 39,85 " style="fill:white; stroke-width:1; stroke:black; " description="&lt;b&gt;AtWU_10434&lt;/b&gt;&lt;br&gt;related to prenyl cysteine carboxyl methyltransferase&lt;br&gt;Location: 411635 - 412303" locus_tag="AtWU_10434" class="clusterblast-orf" id="dummy-3_h3_6_4"  />
</g>
<g id="a3_005"  >
<polygon points="44,90 46,90 51,85 46,80 44,80 44,90 " style="fill:white; stroke-width:1; stroke:black; " description="&lt;b&gt;AtWU_10435&lt;/b&gt;&lt;br&gt;MFS general substrate transporter&lt;br&gt;Location: 412850 - 414528" locus_tag="AtWU_10435" class="clusterblast-orf" id="dummy-3_h3_6_5"  />
</g>
<g id="a3_006"  >
<polygon points="53,85 58,80 61,80 61,90 58,90 53,85 " style="fill:white; stroke-width:1; stroke:black; " description="&lt;b&gt;AtWU_10436&lt;/b&gt;&lt;br&gt;glycosyl transferase&lt;br&gt;Location: 414904 - 417038" locus_tag="AtWU_10436" class="clusterblast-orf" id="dummy-3_h3_6_6"  />
</g>
<g id="a3_007"  >
<polygon points="72,85 77,80 79,80 79,90 77,90 72,85 " style="fill:white; stroke-width:1; stroke:black; " description="&lt;b&gt;AtWU_10437&lt;/b&gt;&lt;br&gt;actin-like ATPase domain-containing protein&lt;br&gt;Location: 419623 - 421320" locus_tag="AtWU_10437" class="clusterblast-orf" id="dummy-3_h3_6_7"  />
</g>
<g id="a3_008"  >
<polygon points="83,90 86,90 91,85 86,80 83,80 83,90 " style="fill:white; stroke-width:1; stroke:black; " description="&lt;b&gt;AtWU_10438&lt;/b&gt;&lt;br&gt;putative glucan endo-1, 3-beta-glucosidase eglC domain protein&lt;br&gt;Location: 422366 - 424275" locus_tag="AtWU_10438" class="clusterblast-orf" id="dummy-3_h3_6_8"  />
</g>
<g id="a3_009"  >
<polygon points="103,85 108,80 109,80 109,90 108,90 103,85 " style="fill:white; stroke-width:1; stroke:black; " description="&lt;b&gt;AtWU_10439&lt;/b&gt;&lt;br&gt;fungal chitosanase of glycosyl hydrolase group 75 family protein&lt;br&gt;Location: 427127 - 428680" locus_tag="AtWU_10439" class="clusterblast-orf" id="dummy-3_h3_6_9"  />
</g>
<g id="a3_0010"  >
<polygon points="116,90 123,90 128,85 123,80 116,80 116,90 " style="fill:white; stroke-width:1; stroke:black; " description="&lt;b&gt;AtWU_10440&lt;/b&gt;&lt;br&gt;NRPS-like enzyme&lt;br&gt;Location: 430216 - 433248" locus_tag="AtWU_10440" class="clusterblast-orf" id="dummy-3_h3_6_10"  />
</g>
<g id="a3_0011"  >
<polygon points="129,85 134,80 137,80 137,90 134,90 129,85 " style="fill:white; stroke-width:1; stroke:black; " description="&lt;b&gt;AtWU_10441&lt;/b&gt;&lt;br&gt;oxidoreductase&lt;br&gt;Location: 433458 - 435359" locus_tag="AtWU_10441" class="clusterblast-orf" id="dummy-3_h3_6_11"  />
</g>
<g id="a3_0012"  >
<polygon points="141,90 144,90 149,85 144,80 141,80 141,90 " style="fill:white; stroke-width:1; stroke:black; " description="&lt;b&gt;AtWU_10442&lt;/b&gt;&lt;br&gt;catalase&lt;br&gt;Location: 436388 - 438354" locus_tag="AtWU_10442" class="clusterblast-orf" id="dummy-3_h3_6_12"  />
</g>
<g id="a3_0013"  >
<polygon points="162,90 164,90 169,85 164,80 162,80 162,90 " style="fill:white; stroke-width:1; stroke:black; " description="&lt;b&gt;AtWU_10443&lt;/b&gt;&lt;br&gt;uncharacterized protein&lt;br&gt;Location: 441481 - 443068" locus_tag="AtWU_10443" class="clusterblast-orf" id="dummy-3_h3_6_13"  />
</g>
<g id="a3_0014"  >
<polygon points="175,85 178,80 178,90 175,85 " style="fill:white; stroke-width:1; stroke:black; " description="&lt;b&gt;AtWU_10444&lt;/b&gt;&lt;br&gt;uncharacterized protein&lt;br&gt;Location: 444463 - 445276" locus_tag="AtWU_10444" class="clusterblast-orf" id="dummy-3_h3_6_14"  />
</g>
<g id="a3_0015"  >
<polygon points="182,90 185,85 182,80 182,90 " style="fill:white; stroke-width:1; stroke:black; " description="&lt;b&gt;AtWU_10445&lt;/b&gt;&lt;br&gt;RmlC-like cupin&lt;br&gt;Location: 446319 - 446889" locus_tag="AtWU_10445" class="clusterblast-orf" id="dummy-3_h3_6_15"  />
</g>
<g id="a3_0016"  >
<polygon points="187,90 192,90 197,85 192,80 187,80 187,90 " style="fill:white; stroke-width:1; stroke:black; " description="&lt;b&gt;AtWU_10446&lt;/b&gt;&lt;br&gt;alpha/beta-hydrolase&lt;br&gt;Location: 447500 - 449750" locus_tag="AtWU_10446" class="clusterblast-orf" id="dummy-3_h3_6_16"  />
</g>
<g id="a3_0017"  >
<polygon points="198,90 201,85 198,80 198,90 " style="fill:white; stroke-width:1; stroke:black; " description="&lt;b&gt;AtWU_10447&lt;/b&gt;&lt;br&gt;macro domain-like protein&lt;br&gt;Location: 450046 - 450777" locus_tag="AtWU_10447" class="clusterblast-orf" id="dummy-3_h3_6_17"  />
</g>
<g id="a3_0018"  >
<polygon points="207,90 211,85 207,80 207,90 " style="fill:white; stroke-width:1; stroke:black; " description="&lt;b&gt;AtWU_10448&lt;/b&gt;&lt;br&gt;ankyrin&lt;br&gt;Location: 452183 - 453334" locus_tag="AtWU_10448" class="clusterblast-orf" id="dummy-3_h3_6_18"  />
</g>
<g id="a3_0019"  >
<polygon points="214,85 219,80 223,80 223,90 219,90 214,85 " style="fill:white; stroke-width:1; stroke:black; " description="&lt;b&gt;AtWU_10449&lt;/b&gt;&lt;br&gt;uracil transporter&lt;br&gt;Location: 454089 - 456223" locus_tag="AtWU_10449" class="clusterblast-orf" id="dummy-3_h3_6_19"  />
</g>
<g id="a3_0020"  >
<polygon points="236,90 240,85 236,80 236,90 " style="fill:white; stroke-width:1; stroke:black; " description="&lt;b&gt;AtWU_10450&lt;/b&gt;&lt;br&gt;spherulin 4-like cell surface protein&lt;br&gt;Location: 459175 - 460310" locus_tag="AtWU_10450" class="clusterblast-orf" id="dummy-3_h3_6_20"  />
</g>
<g id="a3_0021"  >
<polygon points="242,85 244,80 244,90 242,85 " style="fill:white; stroke-width:1; stroke:black; " description="&lt;b&gt;AtWU_10451&lt;/b&gt;&lt;br&gt;glutathione S-transferase&lt;br&gt;Location: 460803 - 461126" locus_tag="AtWU_10451" class="clusterblast-orf" id="dummy-3_h3_6_21"  />
</g>
<g id="a3_0022"  >
<polygon points="248,85 252,80 252,90 248,85 " style="fill:white; stroke-width:1; stroke:black; " description="&lt;b&gt;AtWU_10452&lt;/b&gt;&lt;br&gt;glutathione S-transferase omega-like 2&lt;br&gt;Location: 462129 - 463258" locus_tag="AtWU_10452" class="clusterblast-orf" id="dummy-3_h3_6_22"  />
</g>
<g id="a3_0023"  >
<polygon points="257,90 260,85 257,80 257,90 " style="fill:white; stroke-width:1; stroke:black; " description="&lt;b&gt;AtWU_10453&lt;/b&gt;&lt;br&gt;xyloglucan-specific endo-beta-1,4-glucanase A&lt;br&gt;Location: 464381 - 465180" locus_tag="AtWU_10453" class="clusterblast-orf" id="dummy-3_h3_6_23"  />
</g>
<g id="a3_0024"  >
<polygon points="271,90 275,90 280,85 275,80 271,80 271,90 " style="fill:white; stroke-width:1; stroke:black; " description="&lt;b&gt;AtWU_10454&lt;/b&gt;&lt;br&gt;serine hydrolase (FSH1) family protein&lt;br&gt;Location: 467718 - 469941" locus_tag="AtWU_10454" class="clusterblast-orf" id="dummy-3_h3_6_24"  />
</g>
<g id="a3_0025"  >
<polygon points="283,90 283,90 288,85 283,80 283,80 283,90 " style="fill:white; stroke-width:1; stroke:black; " description="&lt;b&gt;AtWU_10455&lt;/b&gt;&lt;br&gt;maleylacetate reductase&lt;br&gt;Location: 470757 - 471911" locus_tag="AtWU_10455" class="clusterblast-orf" id="dummy-3_h3_6_25"  />
</g>
<g id="a3_0026"  >
<polygon points="289,90 290,90 295,85 290,80 289,80 289,90 " style="fill:white; stroke-width:1; stroke:black; " description="&lt;b&gt;AtWU_10456&lt;/b&gt;&lt;br&gt;S-adenosyl-L-methionine-dependent methyltransferase&lt;br&gt;Location: 472213 - 473652" locus_tag="AtWU_10456" class="clusterblast-orf" id="dummy-3_h3_6_26"  />
</g>
<g id="a3_0027"  >
<polygon points="297,90 300,85 297,80 297,90 " style="fill:white; stroke-width:1; stroke:black; " description="&lt;b&gt;AtWU_10457&lt;/b&gt;&lt;br&gt;RmlC-like cupin&lt;br&gt;Location: 474142 - 474867" locus_tag="AtWU_10457" class="clusterblast-orf" id="dummy-3_h3_6_27"  />
</g>
<g id="a3_0028"  >
<polygon points="302,85 307,80 308,80 308,90 307,90 302,85 " style="fill:white; stroke-width:1; stroke:black; " description="&lt;b&gt;AtWU_10458&lt;/b&gt;&lt;br&gt;benzoate 4-monooxygenase cytochrome P450&lt;br&gt;Location: 475170 - 476816" locus_tag="AtWU_10458" class="clusterblast-orf" id="dummy-3_h3_6_28"  />
</g>
<g id="a3_0029"  >
<polygon points="312,90 313,90 318,85 313,80 312,80 312,90 " style="fill:white; stroke-width:1; stroke:black; " description="&lt;b&gt;AtWU_10459&lt;/b&gt;&lt;br&gt;FAD/NAD(P)-binding domain-containing protein&lt;br&gt;Location: 477697 - 479155" locus_tag="AtWU_10459" class="clusterblast-orf" id="dummy-3_h3_6_29"  />
</g>
<g id="a3_0030"  >
<polygon points="322,90 324,85 322,80 322,90 " style="fill:white; stroke-width:1; stroke:black; " description="&lt;b&gt;AtWU_10460&lt;/b&gt;&lt;br&gt;FAD/NAD(P)-binding domain-containing protein&lt;br&gt;Location: 480100 - 480550" locus_tag="AtWU_10460" class="clusterblast-orf" id="dummy-3_h3_6_30"  />
</g>
<g id="a3_0031"  >
<polygon points="327,90 350,90 355,85 350,80 327,80 327,90 " style="fill:#1563d8; stroke-width:1; stroke:black; " description="&lt;b&gt;AtWU_10461&lt;/b&gt;&lt;br&gt;polyketide synthase&lt;br&gt;Location: 481290 - 488017&lt;br&gt;&lt;br&gt;&lt;b&gt;BlastP hit with input.path1.gene167&lt;/b&gt;&lt;br&gt;Percentage identity: 37&lt;br&gt;Percentage coverage: 104&lt;br&gt;BLAST bit score: 1200&lt;br&gt;E-value: 0.0" locus_tag="AtWU_10461" class="clusterblast-orf" id="dummy-3_h3_6_31"  />
</g>
<g id="a3_0032"  >
<polygon points="356,90 358,90 363,85 358,80 356,80 356,90 " style="fill:white; stroke-width:1; stroke:black; " description="&lt;b&gt;AtWU_10462&lt;/b&gt;&lt;br&gt;O-methyltransferase&lt;br&gt;Location: 488426 - 489897" locus_tag="AtWU_10462" class="clusterblast-orf" id="dummy-3_h3_6_32"  />
</g>
<g id="a3_0033"  >
<polygon points="363,85 367,80 367,90 363,85 " style="fill:white; stroke-width:1; stroke:black; " description="&lt;b&gt;AtWU_10463&lt;/b&gt;&lt;br&gt;hscarg dehydrogenase&lt;br&gt;Location: 490103 - 491038" locus_tag="AtWU_10463" class="clusterblast-orf" id="dummy-3_h3_6_33"  />
</g>
<g id="a3_0034"  >
<polygon points="388,90 389,90 394,85 389,80 388,80 388,90 " style="fill:white; stroke-width:1; stroke:black; " description="&lt;b&gt;AtWU_10464&lt;/b&gt;&lt;br&gt;aminotransferase class-V&lt;br&gt;Location: 496050 - 497531" locus_tag="AtWU_10464" class="clusterblast-orf" id="dummy-3_h3_6_34"  />
</g>
<g id="a3_0035"  >
<polygon points="402,90 406,85 402,80 402,90 " style="fill:white; stroke-width:1; stroke:black; " description="&lt;b&gt;AtWU_10465&lt;/b&gt;&lt;br&gt;concanavalin A-like lectin/glucanase&lt;br&gt;Location: 499436 - 500443" locus_tag="AtWU_10465" class="clusterblast-orf" id="dummy-3_h3_6_35"  />
</g>
<g id="a3_0036"  >
<polygon points="411,85 416,80 417,80 417,90 416,90 411,85 " style="fill:white; stroke-width:1; stroke:black; " description="&lt;b&gt;AtWU_10466&lt;/b&gt;&lt;br&gt;acetyl-CoA acetyltransferase A, mitochondrial&lt;br&gt;Location: 501534 - 503095" locus_tag="AtWU_10466" class="clusterblast-orf" id="dummy-3_h3_6_36"  />
</g>
<g id="a3_0037"  >
<polygon points="431,90 434,90 439,85 434,80 431,80 431,90 " style="fill:white; stroke-width:1; stroke:black; " description="&lt;b&gt;AtWU_10467&lt;/b&gt;&lt;br&gt;neutral amino acid permease&lt;br&gt;Location: 506567 - 508290" locus_tag="AtWU_10467" class="clusterblast-orf" id="dummy-3_h3_6_37"  />
</g>
<g id="a3_0038"  >
<polygon points="441,90 443,90 448,85 443,80 441,80 441,90 " style="fill:white; stroke-width:1; stroke:black; " description="&lt;b&gt;AtWU_10468&lt;/b&gt;&lt;br&gt;beta-glucosidase&lt;br&gt;Location: 508891 - 510635" locus_tag="AtWU_10468" class="clusterblast-orf" id="dummy-3_h3_6_38"  />
</g>
<g id="a3_0039"  >
<polygon points="448,85 453,80 460,80 460,90 453,90 448,85 " style="fill:white; stroke-width:1; stroke:black; " description="&lt;b&gt;AtWU_10469&lt;/b&gt;&lt;br&gt;beta-glucosidase precursor&lt;br&gt;Location: 510673 - 513386" locus_tag="AtWU_10469" class="clusterblast-orf" id="dummy-3_h3_6_39"  />
</g>
<g id="a3_0040"  >
<polygon points="463,90 464,90 469,85 464,80 463,80 463,90 " style="fill:white; stroke-width:1; stroke:black; " description="&lt;b&gt;AtWU_10470&lt;/b&gt;&lt;br&gt;sugar transporter&lt;br&gt;Location: 514134 - 515738" locus_tag="AtWU_10470" class="clusterblast-orf" id="dummy-3_h3_6_40"  />
</g>
<g id="a3_0041"  >
<polygon points="469,85 474,80 476,80 476,90 474,90 469,85 " style="fill:white; stroke-width:1; stroke:black; " description="&lt;b&gt;AtWU_10471&lt;/b&gt;&lt;br&gt;extracellular salicylate hydroxylase/monooxygenase&lt;br&gt;Location: 515758 - 517320" locus_tag="AtWU_10471" class="clusterblast-orf" id="dummy-3_h3_6_41"  />
</g>
<g id="a3_0042"  >
<polygon points="477,85 482,80 484,80 484,90 482,90 477,85 " style="fill:white; stroke-width:1; stroke:black; " description="&lt;b&gt;AtWU_10472&lt;/b&gt;&lt;br&gt;tannase and feruloyl esterase&lt;br&gt;Location: 517596 - 519308" locus_tag="AtWU_10472" class="clusterblast-orf" id="dummy-3_h3_6_42"  />
</g>
<g id="a3_0043"  >
<polygon points="495,85 500,80 501,80 501,90 500,90 495,85 " style="fill:white; stroke-width:1; stroke:black; " description="&lt;b&gt;AtWU_10473&lt;/b&gt;&lt;br&gt;glycoside hydrolase&lt;br&gt;Location: 521947 - 523370" locus_tag="AtWU_10473" class="clusterblast-orf" id="dummy-3_h3_6_43"  />
</g>
<g id="a3_0044"  >
<polygon points="514,90 514,90 519,85 514,80 514,80 514,90 " style="fill:white; stroke-width:1; stroke:black; " description="&lt;b&gt;AtWU_10474&lt;/b&gt;&lt;br&gt;chitosanase-domain-containing protein&lt;br&gt;Location: 526505 - 527745" locus_tag="AtWU_10474" class="clusterblast-orf" id="dummy-3_h3_6_44"  />
</g>
<g id="a3_0045"  >
<polygon points="520,85 525,80 528,80 528,90 525,90 520,85 " style="fill:white; stroke-width:1; stroke:black; " description="&lt;b&gt;AtWU_10475&lt;/b&gt;&lt;br&gt;allantoate permease&lt;br&gt;Location: 527901 - 529934" locus_tag="AtWU_10475" class="clusterblast-orf" id="dummy-3_h3_6_45"  />
</g>
<g id="a3_0046"  >
<polygon points="530,90 530,90 535,85 530,80 530,80 530,90 " style="fill:white; stroke-width:1; stroke:black; " description="&lt;b&gt;AtWU_10476&lt;/b&gt;&lt;br&gt;NAD binding Rossmann fold oxidoreductase&lt;br&gt;Location: 530334 - 531611" locus_tag="AtWU_10476" class="clusterblast-orf" id="dummy-3_h3_6_46"  />
</g>
<g id="a3_0047"  >
<polygon points="537,85 538,80 538,90 537,85 " style="fill:white; stroke-width:1; stroke:black; " description="&lt;b&gt;AtWU_10477&lt;/b&gt;&lt;br&gt;AP-1 complex subunit sigma-1&lt;br&gt;Location: 532025 - 532452" locus_tag="AtWU_10477" class="clusterblast-orf" id="dummy-3_h3_6_47"  />
</g>
<g id="a3_0048"  >
<polygon points="542,90 542,90 547,85 542,80 542,80 542,90 " style="fill:white; stroke-width:1; stroke:black; " description="&lt;b&gt;AtWU_10478&lt;/b&gt;&lt;br&gt;similar to An03g05220&lt;br&gt;Location: 533379 - 534543" locus_tag="AtWU_10478" class="clusterblast-orf" id="dummy-3_h3_6_48"  />
</g>
<g id="a3_0049"  >
<polygon points="547,85 552,80 554,80 554,90 552,90 547,85 " style="fill:white; stroke-width:1; stroke:black; " description="&lt;b&gt;AtWU_10479&lt;/b&gt;&lt;br&gt;glucooligosaccharide oxidase&lt;br&gt;Location: 534646 - 536127" locus_tag="AtWU_10479" class="clusterblast-orf" id="dummy-3_h3_6_49"  />
</g>
<g id="a3_0050"  >
<polygon points="556,85 561,80 564,80 564,90 561,90 556,85 " style="fill:white; stroke-width:1; stroke:black; " description="&lt;b&gt;AtWU_10480&lt;/b&gt;&lt;br&gt;serine carboxypeptidase&lt;br&gt;Location: 536789 - 538593" locus_tag="AtWU_10480" class="clusterblast-orf" id="dummy-3_h3_6_50"  />
</g>
<g id="a3_0051"  >
<polygon points="566,85 571,80 572,80 572,90 571,90 566,85 " style="fill:white; stroke-width:1; stroke:black; " description="&lt;b&gt;AtWU_10481&lt;/b&gt;&lt;br&gt;xylitol dehydrogenase XdhB&lt;br&gt;Location: 539114 - 540456" locus_tag="AtWU_10481" class="clusterblast-orf" id="dummy-3_h3_6_51"  />
</g>
<g id="a3_0052"  >
<polygon points="573,90 574,90 579,85 574,80 573,80 573,90 " style="fill:white; stroke-width:1; stroke:black; " description="&lt;b&gt;AtWU_10482&lt;/b&gt;&lt;br&gt;putative flavin-containing amine oxidase&lt;br&gt;Location: 540829 - 542382" locus_tag="AtWU_10482" class="clusterblast-orf" id="dummy-3_h3_6_52"  />
</g>
<g id="a3_0053"  >
<polygon points="586,90 593,90 598,85 593,80 586,80 586,90 " style="fill:white; stroke-width:1; stroke:black; " description="&lt;b&gt;AtWU_10483&lt;/b&gt;&lt;br&gt;HLH transcription factor&lt;br&gt;Location: 543928 - 546873" locus_tag="AtWU_10483" class="clusterblast-orf" id="dummy-3_h3_6_53"  />
</g>
<g id="a3_0054"  >
<polygon points="608,90 611,90 616,85 611,80 608,80 608,90 " style="fill:white; stroke-width:1; stroke:black; " description="&lt;b&gt;AtWU_10484&lt;/b&gt;&lt;br&gt;ferric-chelate reductase&lt;br&gt;Location: 549375 - 551194" locus_tag="AtWU_10484" class="clusterblast-orf" id="dummy-3_h3_6_54"  />
</g>
<g id="a3_0055"  >
<polygon points="617,85 621,80 621,90 617,85 " style="fill:white; stroke-width:1; stroke:black; " description="&lt;b&gt;AtWU_10485&lt;/b&gt;&lt;br&gt;D-mandelate dehydrogenase&lt;br&gt;Location: 551365 - 552484" locus_tag="AtWU_10485" class="clusterblast-orf" id="dummy-3_h3_6_55"  />
</g>
<g id="a3_0056"  >
<polygon points="622,85 627,80 657,80 657,90 627,90 622,85 " style="fill:white; stroke-width:1; stroke:black; " description="&lt;b&gt;AtWU_10486&lt;/b&gt;&lt;br&gt;polyketide synthase&lt;br&gt;Location: 552753 - 561232" locus_tag="AtWU_10486" class="clusterblast-orf" id="dummy-3_h3_6_56"  />
</g>
<g id="a3_0057"  >
<polygon points="660,90 663,85 660,80 660,90 " style="fill:white; stroke-width:1; stroke:black; " description="&lt;b&gt;AtWU_10487&lt;/b&gt;&lt;br&gt;major facilitator superfamily transporter&lt;br&gt;Location: 561825 - 562680" locus_tag="AtWU_10487" class="clusterblast-orf" id="dummy-3_h3_6_57"  />
</g>
<g id="a3_0058"  >
<polygon points="665,90 669,90 674,85 669,80 665,80 665,90 " style="fill:white; stroke-width:1; stroke:black; " description="&lt;b&gt;AtWU_10488&lt;/b&gt;&lt;br&gt;major facilitator superfamily transporter&lt;br&gt;Location: 563148 - 565262" locus_tag="AtWU_10488" class="clusterblast-orf" id="dummy-3_h3_6_58"  />
</g>
<g id="a3_0059"  >
<polygon points="675,85 679,80 679,90 675,85 " style="fill:white; stroke-width:1; stroke:black; " description="&lt;b&gt;AtWU_10489&lt;/b&gt;&lt;br&gt;EF-hand calcium-binding domain protein&lt;br&gt;Location: 565556 - 566410" locus_tag="AtWU_10489" class="clusterblast-orf" id="dummy-3_h3_6_59"  />
</g>
<g id="a3_0060"  >
<polygon points="684,90 687,85 684,80 684,90 " style="fill:white; stroke-width:1; stroke:black; " description="&lt;b&gt;AtWU_10490&lt;/b&gt;&lt;br&gt;exosome complex subunit Rrp46&lt;br&gt;Location: 567650 - 568490" locus_tag="AtWU_10490" class="clusterblast-orf" id="dummy-3_h3_6_60"  />
</g>
<g id="a3_0061"  >
<polygon points="694,90 698,90 703,85 698,80 694,80 694,90 " style="fill:white; stroke-width:1; stroke:black; " description="&lt;b&gt;AtWU_10491&lt;/b&gt;&lt;br&gt;NAD+ kinase Utr1&lt;br&gt;Location: 570159 - 572194" locus_tag="AtWU_10491" class="clusterblast-orf" id="dummy-3_h3_6_61"  />
</g>
<g id="a3_0062"  >
<polygon points="705,85 709,80 709,90 705,85 " style="fill:white; stroke-width:1; stroke:black; " description="&lt;b&gt;AtWU_10492&lt;/b&gt;&lt;br&gt;GAF domain nucleotide-binding protein&lt;br&gt;Location: 572753 - 573649" locus_tag="AtWU_10492" class="clusterblast-orf" id="dummy-3_h3_6_62"  />
</g>
<g id="a3_0063"  >
<polygon points="711,90 712,90 717,85 712,80 711,80 711,90 " style="fill:white; stroke-width:1; stroke:black; " description="&lt;b&gt;AtWU_10493&lt;/b&gt;&lt;br&gt;agmatinase 1&lt;br&gt;Location: 574153 - 575721" locus_tag="AtWU_10493" class="clusterblast-orf" id="dummy-3_h3_6_63"  />
</g>
<g id="a3_0064"  >
<polygon points="718,85 723,80 725,80 725,90 723,90 718,85 " style="fill:#b1d815; stroke-width:1; stroke:black; " description="&lt;b&gt;AtWU_10494&lt;/b&gt;&lt;br&gt;GABA permease&lt;br&gt;Location: 575885 - 577704&lt;br&gt;&lt;br&gt;&lt;b&gt;BlastP hit with input.path1.gene174&lt;/b&gt;&lt;br&gt;Percentage identity: 32&lt;br&gt;Percentage coverage: 65&lt;br&gt;BLAST bit score: 136&lt;br&gt;E-value: 3.98e-33" locus_tag="AtWU_10494" class="clusterblast-orf" id="dummy-3_h3_6_64"  />
</g>
<g id="a3_0065"  >
<polygon points="731,90 734,85 731,80 731,90 " style="fill:white; stroke-width:1; stroke:black; " description="&lt;b&gt;AtWU_10495&lt;/b&gt;&lt;br&gt;short chain dehydrogenase/oxidoreductase&lt;br&gt;Location: 578944 - 579791" locus_tag="AtWU_10495" class="clusterblast-orf" id="dummy-3_h3_6_65"  />
</g>
<g id="a3_0066"  >
<polygon points="757,90 761,85 757,80 757,90 " style="fill:white; stroke-width:1; stroke:black; " description="&lt;b&gt;AtWU_10496&lt;/b&gt;&lt;br&gt;fungal specific transcription factor domain family protein&lt;br&gt;Location: 585281 - 586285" locus_tag="AtWU_10496" class="clusterblast-orf" id="dummy-3_h3_6_66"  />
</g>
<g id="a3_0067"  >
<polygon points="766,90 766,90 771,85 766,80 766,80 766,90 " style="fill:white; stroke-width:1; stroke:black; " description="&lt;b&gt;AtWU_10497&lt;/b&gt;&lt;br&gt;alpha-1,6 mannosyltransferase subunit&lt;br&gt;Location: 587479 - 588830" locus_tag="AtWU_10497" class="clusterblast-orf" id="dummy-3_h3_6_67"  />
</g>
<g id="a3_0068"  >
<polygon points="775,90 775,90 780,85 775,80 775,80 775,90 " style="fill:white; stroke-width:1; stroke:black; " description="&lt;b&gt;AtWU_10498&lt;/b&gt;&lt;br&gt;alpha-1,6 mannosyltransferase subunit&lt;br&gt;Location: 589565 - 590771" locus_tag="AtWU_10498" class="clusterblast-orf" id="dummy-3_h3_6_68"  />
</g>
</svg>
