<svg xmlns="http://www.w3.org/2000/svg" xmlns:xlink="http://www.w3.org/1999/xlink" version="1.1" x="0" y="0" height="50" width="800" viewBox="0 0 800 50" preserveAspectRatio="none"  >
<g label="Query sequence" class="clusterblast-cluster"  >
<text x="5" y="20" class="clusterblast-acc"  >
Query sequence</text>
<line x1="10" y1="35" x2="778.0" y2="35" style="stroke-width:1; stroke:grey; "  />
<polygon points="0,40 9,40 14,35 9,30 0,30 0,40 " style="fill:white; stroke-width:1; stroke:black; " description="&lt;b&gt;input.path1.gene45&lt;/b&gt;&lt;br&gt;input.path1.gene45&lt;br&gt;Location: 179159 - 179783" locus_tag="input.path1.gene45" class="clusterblast-orf" id="subclusterblast-1_q0_0_all"  />
<polygon points="46,40 83,40 88,35 83,30 46,30 46,40 " style="fill:white; stroke-width:1; stroke:black; " description="&lt;b&gt;input.path1.gene46&lt;/b&gt;&lt;br&gt;input.path1.gene46&lt;br&gt;Location: 181195 - 183073" locus_tag="input.path1.gene46" class="clusterblast-orf" id="subclusterblast-1_q1_0_all"  />
<polygon points="93,35 98,30 101,30 101,40 98,40 93,35 " style="fill:white; stroke-width:1; stroke:black; " description="&lt;b&gt;input.path1.gene47&lt;/b&gt;&lt;br&gt;input.path1.gene47&lt;br&gt;Location: 183289 - 183639" locus_tag="input.path1.gene47" class="clusterblast-orf" id="subclusterblast-1_q2_0_all"  />
<polygon points="106,35 111,30 152,30 152,40 111,40 106,35 " style="fill:white; stroke-width:1; stroke:black; " description="&lt;b&gt;input.path1.gene48&lt;/b&gt;&lt;br&gt;input.path1.gene48&lt;br&gt;Location: 183889 - 185912" locus_tag="input.path1.gene48" class="clusterblast-orf" id="subclusterblast-1_q3_0_all"  />
<polygon points="153,40 184,40 189,35 184,30 153,30 153,40 " style="fill:white; stroke-width:1; stroke:black; " description="&lt;b&gt;input.path1.gene49&lt;/b&gt;&lt;br&gt;input.path1.gene49&lt;br&gt;Location: 185956 - 187567" locus_tag="input.path1.gene49" class="clusterblast-orf" id="subclusterblast-1_q4_0_all"  />
<polygon points="295,40 316,40 321,35 316,30 295,30 295,40 " style="fill:white; stroke-width:1; stroke:black; " description="&lt;b&gt;input.path1.gene50&lt;/b&gt;&lt;br&gt;input.path1.gene50&lt;br&gt;Location: 192279 - 193433" locus_tag="input.path1.gene50" class="clusterblast-orf" id="subclusterblast-1_q5_0_all"  />
<polygon points="356,35 361,30 410,30 410,40 361,40 356,35 " style="fill:white; stroke-width:1; stroke:black; " description="&lt;b&gt;input.path1.gene51&lt;/b&gt;&lt;br&gt;input.path1.gene51&lt;br&gt;Location: 194968 - 197400" locus_tag="input.path1.gene51" class="clusterblast-orf" id="subclusterblast-1_q6_0_all"  />
<polygon points="428,40 604,40 609,35 604,30 428,30 428,40 " style="fill:white; stroke-width:1; stroke:black; " description="&lt;b&gt;input.path1.gene52&lt;/b&gt;&lt;br&gt;input.path1.gene52&lt;br&gt;Location: 198177 - 206228" locus_tag="input.path1.gene52" class="clusterblast-orf" id="subclusterblast-1_q7_0_all"  />
<polygon points="752,40 775,40 780,35 775,30 752,30 752,40 " style="fill:white; stroke-width:1; stroke:black; " description="&lt;b&gt;input.path1.gene53&lt;/b&gt;&lt;br&gt;input.path1.gene53&lt;br&gt;Location: 212548 - 213800" locus_tag="input.path1.gene53" class="clusterblast-orf" id="subclusterblast-1_q8_0_all"  />
</g>
</svg>
