<svg xmlns="http://www.w3.org/2000/svg" xmlns:xlink="http://www.w3.org/1999/xlink" version="1.1" x="0" y="0" height="50" width="800" viewBox="0 0 800 50" preserveAspectRatio="none"  >
<g label="Query sequence" class="clusterblast-cluster"  >
<text x="5" y="20" class="clusterblast-acc"  >
Query sequence</text>
<line x1="10" y1="35" x2="778.0" y2="35" style="stroke-width:1; stroke:grey; "  />
<polygon points="0,40 1,40 6,35 1,30 0,30 0,40 " style="fill:white; stroke-width:1; stroke:black; " description="&lt;b&gt;input.path1.gene1&lt;/b&gt;&lt;br&gt;input.path1.gene1&lt;br&gt;Location: 140 - 284" locus_tag="input.path1.gene1" class="clusterblast-orf" id="subclusterblast-1_q0_0_all"  />
<polygon points="58,40 268,40 273,35 268,30 58,30 58,40 " style="fill:white; stroke-width:1; stroke:black; " description="&lt;b&gt;input.path1.gene2&lt;/b&gt;&lt;br&gt;input.path1.gene2&lt;br&gt;Location: 1622 - 7070" locus_tag="input.path1.gene2" class="clusterblast-orf" id="subclusterblast-1_q1_0_all"  />
<polygon points="292,35 297,30 345,30 345,40 297,40 292,35 " style="fill:white; stroke-width:1; stroke:black; " description="&lt;b&gt;input.path1.gene3&lt;/b&gt;&lt;br&gt;input.path1.gene3&lt;br&gt;Location: 7563 - 8907" locus_tag="input.path1.gene3" class="clusterblast-orf" id="subclusterblast-1_q2_0_all"  />
<polygon points="372,40 389,40 394,35 389,30 372,30 372,40 " style="fill:white; stroke-width:1; stroke:black; " description="&lt;b&gt;input.path1.gene4&lt;/b&gt;&lt;br&gt;input.path1.gene4&lt;br&gt;Location: 9588 - 10139" locus_tag="input.path1.gene4" class="clusterblast-orf" id="subclusterblast-1_q3_0_all"  />
<polygon points="624,35 629,30 722,30 722,40 629,40 624,35 " style="fill:white; stroke-width:1; stroke:black; " description="&lt;b&gt;input.path1.gene5&lt;/b&gt;&lt;br&gt;input.path1.gene5&lt;br&gt;Location: 15968 - 18462" locus_tag="input.path1.gene5" class="clusterblast-orf" id="subclusterblast-1_q4_0_all"  />
<polygon points="734,40 775,40 780,35 775,30 734,30 734,40 " style="fill:white; stroke-width:1; stroke:black; " description="&lt;b&gt;input.path1.gene6&lt;/b&gt;&lt;br&gt;input.path1.gene6&lt;br&gt;Location: 18773 - 19936" locus_tag="input.path1.gene6" class="clusterblast-orf" id="subclusterblast-1_q5_0_all"  />
</g>
</svg>
